<?xml version="1.0" encoding="utf-8"?>
<!-- Generator: Adobe Illustrator 19.0.0, SVG Export Plug-In . SVG Version: 6.00 Build 0)  -->
<svg version="1.0" id="Calque_1" xmlns="http://www.w3.org/2000/svg" xmlns:xlink="http://www.w3.org/1999/xlink" x="0px" y="0px" width="100px" height="100px"
	 viewBox="0 0 100 100" style="enable-background:new 0 0 100 100;" xml:space="preserve">
<style type="text/css">
	.st0{display:none;}
	.st1{display:inline;fill:#FFFFFF;stroke:#000000;stroke-miterlimit:10;}
	.st2{fill:#646671;stroke:#000000;stroke-width:2;stroke-miterlimit:10;}
	.st3{opacity:0.42;fill:#FFFFFF;}
</style>
<g id="Calque_2" class="st0">
	<path id="XMLID_8_" class="st1" d="M89.9,53.5v-7.1h-6.5c-0.7-6.6-3.3-12.7-7.3-17.6l4.6-4.6l-5-5l-4.6,4.6
		c-4.9-4-10.9-6.6-17.6-7.3v-6.5h-7.1v6.5c-6.6,0.7-12.7,3.3-17.6,7.3l-4.6-4.6l-5,5l4.6,4.6c-4,4.9-6.6,10.9-7.3,17.6h-6.5v7.1h6.5
		c0.7,6.6,3.3,12.7,7.3,17.6l-4.6,4.6l5,5l4.6-4.6c4.9,4,10.9,6.6,17.6,7.3v6.5h7.1v-6.5c6.6-0.7,12.7-3.3,17.6-7.3l4.6,4.6l5-5
		l-4.6-4.6c4-4.9,6.6-10.9,7.3-17.6H89.9z"/>
	<circle id="XMLID_1_" class="st1" cx="50" cy="50" r="20"/>
</g>
<g id="Calque_2_-_copie">
	<path id="XMLID_3_" class="st2" d="M83.4,46.5c-0.7-6.6-3.3-12.7-7.3-17.6l4.6-4.6l-5-5l-4.6,4.6c-4.9-4-10.9-6.6-17.6-7.3v-6.5
		h-7.1v6.5c-6.6,0.7-12.7,3.3-17.6,7.3l-4.6-4.6l-5,5l4.6,4.6c-4,4.9-6.6,10.9-7.3,17.6h-6.5v7.1h6.5c0.7,6.6,3.3,12.7,7.3,17.6
		l-4.6,4.6l5,5l4.6-4.6c4.9,4,10.9,6.6,17.6,7.3v6.5h7.1v-6.5c6.6-0.7,12.7-3.3,17.6-7.3l4.6,4.6l5-5l-4.6-4.6
		c4-4.9,6.6-10.9,7.3-17.6h6.5v-7.1H83.4z M50,70C39,70,30,61,30,50S39,30,50,30S70,39,70,50S61,70,50,70z"/>
	<path id="XMLID_13_" class="st3" d="M50,21.7c-15.6,0-28.3,12.7-28.3,28.3c0,15.6,12.7,28.3,28.3,28.3S78.3,65.6,78.3,50
		C78.3,34.4,65.6,21.7,50,21.7z M50,71c-11.6,0-21-9.4-21-21s9.4-21,21-21s21,9.4,21,21S61.6,71,50,71z"/>
</g>
</svg>