<svg version="1.0" id="圖層_1" xmlns="http://www.w3.org/2000/svg" x="0" y="0" width="300" height="260" style="enable-background:new 0 0 300 260" xml:space="preserve"><style>.st0{display:none}.st1{display:inline}.st5{fill:#555;stroke:#424143;stroke-width:2;stroke-miterlimit:10}.st5,.st6{display:inline}.st6,.st7{fill:#010101}.st13,.st16,.st8{display:inline;fill:#ec2227}.st13,.st16{fill:#fff;fill-opacity:.78}.st16{fill-opacity:.42}.st37{display:none}.st37,.st38{fill:#fff;fill-opacity:.55}</style><g id="圖層_1_2_"><g id="圖層_12"><g id="圖層_4_7_"><path id="XMLID_189_" class="st7" d="M49.6 163h17.8v14.2H49.6z"/><path id="XMLID_196_" class="st7" d="M49.5 191.3h17.8v7.1H49.5z"/><path id="XMLID_188_" class="st7" d="M49.5 134.6h17.8v14.2H49.5z"/><path id="XMLID_187_" class="st7" d="M49.6 106.3h17.8v14.2H49.6z"/><path id="XMLID_186_" class="st7" d="M49.5 77.9h17.8v14.2H49.5z"/><path id="XMLID_185_" class="st7" d="M49.5 60.2h17.8v3.6H49.5z"/></g></g><g id="圖層_12_1_"><g id="圖層_4_10_"><path id="XMLID_268_" class="st7" d="M232.4 162.9h17.8v14.2h-17.8z"/><path id="XMLID_267_" class="st7" d="M232.4 191.3h17.8v7.1h-17.8z"/><path id="XMLID_266_" class="st7" d="M232.4 134.5h17.8v14.2h-17.8z"/><path id="XMLID_265_" class="st7" d="M232.4 106.2h17.8v14.2h-17.8z"/><path id="XMLID_263_" class="st7" d="M232.4 77.8h17.8V92h-17.8z"/><path id="XMLID_262_" class="st7" d="M232.4 60.2h17.8v3.6h-17.8z"/></g></g></g></svg>