<svg version="1.0" id="圖層_1" xmlns="http://www.w3.org/2000/svg" x="0" y="0" width="300" height="260" style="enable-background:new 0 0 300 260" xml:space="preserve"><style>.st0{opacity:.15}.st1{fill:#2a3a1d}.st2{fill:#5eb446}.st3{opacity:.5;fill:#49873f}.st4{fill:#90cb78}.st5{display:none}.st6{display:inline;fill:#e5df92}</style><g id="Calque_5_-_copie_2"><path id="XMLID_100_" class="st0" d="M253 66c0 2.9-1.6 5.4-2.5 8-1.4 3.8-6.5 11.2-9.4 13.9-2.3 2.1-5.6 3-8.5 4.1-2.7 1-5 2.4-8.1 2.4-3.1 0-6.1-.6-8.8-1.6-2.1-.8-5.8-4-7.6-5.3-3.1-2.3-3.9-6.6-5.7-10.1-1.6-3.3-4.3-5.8-4.3-9.7 0-3.9.9-7.5 2.5-10.8 1.7-3.6 5.3-6.4 8.5-8.7 4.1-3.1 13.7-6.9 19.3-6.9 2.4 0 4.3 1.3 6.4 1.9 2.3.7 4.9.7 6.9 1.9 3.6 2.3 4.6 5.9 6.6 9.6 1.7 3.6 4.7 7.1 4.7 11.3z"/><path id="XMLID_99_" class="st1" d="M254.4 66c0 3.1-1.7 5.7-2.7 8.5-1.4 4-2.7 7.9-5.8 10.8-2.4 2.2-5.9 3.2-9 4.3-2.9 1.1-5.3 2.5-8.6 2.5s-6.4-.6-9.3-1.7c-2.3-.9-4.4-2-6.3-3.4-3.3-2.5-4.1-6.9-6-10.7-1.7-3.4-4.5-6.1-4.5-10.2s.9-7.9 2.6-11.4c1.8-3.8 5.6-6.7 9-9.2 4.3-3.2 8.7-5.4 14.5-5.4 2.5 0 4.5 1.4 6.8 2.1 2.5.7 5.1.7 7.2 2 3.8 2.4 4.9 6.2 7 10.1 2 3.5 5.1 7.3 5.1 11.7z"/><path id="XMLID_98_" class="st2" d="M251.9 66c0 2.8-1.5 5.2-2.4 7.7-1.3 3.7-2.4 7.2-5.3 9.8-2.2 2-5.4 2.9-8.2 3.9-2.6 1-4.8 2.3-7.8 2.3s-5.8-.5-8.4-1.5c-2-.8-4-1.8-5.7-3.1-3-2.2-3.8-6.3-5.4-9.7-1.5-3.1-4.1-5.6-4.1-9.3 0-3.7.9-7.2 2.4-10.3 1.7-3.4 5.1-6.1 8.1-8.4 3.9-2.9 7.9-4.9 13.1-4.9 2.3 0 4.1 1.3 6.2 1.9 2.2.6 4.7.6 6.6 1.9 3.4 2.2 4.4 5.6 6.3 9.2 1.8 3.1 4.6 6.5 4.6 10.5z"/><path id="XMLID_95_" class="st3" d="M247.4 55.3c-1.9-3.6-2.9-7-6.3-9.2-1.9-1.2-4.3-1.2-6.6-1.9-2.1-.6-3.9-1.9-6.2-1.9-5.3 0-9.2 2-13.1 4.9-3 2.3-6.5 4.9-8.1 8.4-1.5 3.1-2.4 6.6-2.4 10.3 0 3.7 2.6 6.1 4.1 9.3 1.7 3.4 2.4 7.4 5.4 9.7 1.7 1.3 3.6 2.3 5.7 3.1 2.6 1 5.5 1.5 8.4 1.5 3 0 5.2-1.3 7.8-2.3 2.8-1.1 6-2 8.2-3.9 2.8-2.6 3.9-6.1 5.3-9.8.9-2.5 2.4-4.9 2.4-7.7-.1-3.8-2.9-7.2-4.6-10.5zm1 11.3c-.1.5-.6.8-1.1.8-.2 0-.5 0-.7.1-.6.4.3 1.2.1 1.9-.4.2-.8.3-1.2.3-.1-.6-.8-.9-1.4-.7-.6.2-.8.9-.6 1.5.4-.2.9-.1 1.1.3.2.3.2.8-.1 1.1-.2.2-.5.3-.7.5-.4.5.3 1.4.9 1.1.4.8-.5 1.7-1.3 2.3 1 .1 1.3 1.8.4 2.3-.6.3-1.5.3-1.4 1 .8.1 1.1 1.3.5 1.7-.2.1-.5.2-.8.2-1.4.2-2.9.3-4.3.2-.3.4-.1 1.1.4 1.3-.6.6-1.9-.2-1.7-1-.4-.1-.8-.2-1.2-.1s-.7.4-.7.8c0 .5.7 1 .4 1.4-.2.4-.8.2-1.1.5-.3.4.2 1 0 1.5-.1.5-.9.7-1.4.5-.5-.2-1-.5-1.6-.5-.6 0-1.1.7-.7 1.1 0 .7-1.1.8-1.7.5-.6-.4-1.2-1-1.9-.9-.7 0-1.3.8-2.1.6-.8-.2-.9-1.2-1.5-1.7-.5-.4-1.1-.3-1.7-.5-.6-.2-1.1-.9-.7-1.3.3-.3.8-.2 1.1-.5.3-.3.3-.8.2-1.3-.1-.5-.2-1-.6-1.4-.4-.3-1.1-.2-1.3.3-.1.3 0 .6-.1.9-.2.5-1 .3-1.5 0s-1.1-.7-1.5-.3c-.1.1-.2.3-.3.4-.4.5-1.1.5-1.6.2-.5-.2-1-.6-1.6-.7-.6-.1-.6-.3-1-.3-.7-.2-.8.2-1-.9-.1-.5-.5-.8-.5-1.3-.2-1.3 1.8-2.5 1.2-3.7-.3-.5-1-.7-1.2-1.2-.4-.9.7-2.2 0-2.9-.3-.4-1-.4-1.3-.8-.2-.3-.2-.6-.4-.9-.4-1.2-2.2-1.9-1.9-3.1.2-.8 1.3-1.2 1.6-2 .3-.8-.3-1.8.1-2.5.5-.7 1.8-.6 2-1.5.1-.4-.2-.8-.5-1.2-.2-.4-.4-.9 0-1.2.1-.1.3-.1.5-.2.8-.1 2-.2 2.2-1 .2-.8-.5-1.9.2-2.2.2-.1.5-.1.7-.2.3-.3 0-.8-.3-1.1-.3-.3-.7-.6-.5-1 .1-.2.4-.3.6-.4.5-.2 1.1-.4 1.6-.1.7.3 1.2 1.5 2 1.2.5-.2.5-.9.9-1.3.9-.9 2.7.6 3.5-.3.5-.6.1-1.7.8-2.1.5.6 1.4.7 2 .2.6-.4.7-1.4.3-2 .8 0 1.6-.6 1.9-1.4.8-.4 1.7.2 2.3.8.6.7 1.2 1.5 2 1.6.6.1 1.2-.3 1.8-.2.6 0 1.3.7.9 1.2-.2.2-.4.2-.6.4-.4.3-.4 1 .1 1.3.6.4 1.5-.3 2.2 0 .5.2.7.8.8 1.3.7.6 1.4-.8 2.3-.8.4 0 .7.3 1.1.2.3 0 .5-.3.8-.4.6-.4 1.4-.3 1.9 0 .6.4.9 1.1.7 1.8-.1.6-.5 1.2-.2 1.7.2.4.7.5 1.2.7.4.2.9.6.6 1-.2.3-.6.3-.7.6-.3.4 0 .9.4 1.1.4.2.8.3 1.2.6.4.3.5.9.1 1.1-.5.1-1.1.2-1.5.6-.4.4-.5 1.1 0 1.4.6.4 1.7-.2 1.9.5.2.5-.4.8-.8 1 .8.6 1.8.8 2.8.5.3.6.1 1.3-.4 1.8.4.2.7.7.6 1.2z"/><path id="XMLID_94_" class="st4" d="M229.7 83.2c-.5.6-1.6 0-2.1-.6-.4-.6-.6-1.4-.9-2-.2-.4-.4-.7-.6-1.1-.2-.8.1-1.7-.1-2.5-.2-.6-.7-1.2-.6-1.8 0-.6.4-1.1.4-1.7 0-.5-.5-1-1-1s-1 .3-1.2.8c-.1.2-.1.5-.2.7-.3.5-1.2.3-1.6.8-.5.5 0 1.5-.5 2-.5.6-1.5.1-2.1.6-.2.1-.4.4-.6.6-.5.5-1.3.6-1.9.2-.6-.3-.9-1.1-.7-1.8.1-.3.3-.6.3-.9 0-.6-.9-1.2-.6-1.8.1-.2.5-.3.7-.4 1.2-.4 2.1-1.6 2.2-2.9.9.1 1.7-.9 1.2-1.6-.7-.9-2.2.1-3.1-.5l-.6-.6c-.5-.3-1.1-.2-1.6.1s-.9.6-1.5.8c-.9.3-1.9 0-2.5-.8-.2-.3-.4-.7-.2-1.1.1-.2.3-.3.4-.5.4-.4.5-1 .2-1.5.6-.9 2.1-.3 3-.9.2-.2.4-.4.6-.5.9-.5 2 .7 2.9.3.4-.2.6-.6.9-.8.7-.5 1.6-.1 2.3.3.2-.6.3-1.4-.3-1.7-.3-.2-.8-.1-1.2-.1-.4 0-.9-.1-1-.4-.2-.5.4-1 .2-1.4-.2-.4-.7-.4-1-.7-.4-.3-.5-.8-.4-1.3.1-.5.2-.9.3-1.4 0-.3 0-.7.3-1 .4-.5 1.2-.3 1.7 0 .5.4.9.9 1.5 1 .9.2 2.1-.5 2.6.3.2.2.2.5.2.8.1.5.4 1 .9 1.1s1.1-.1 1.2-.6c.1-.6-.5-1.1-.4-1.7.1-.5.8-.7 1-1.2.3-.8-1-1.9-.3-2.5.2-.1.4-.2.5-.4.3-.5-.7-1-.5-1.5l.3-.3c.9-.5 2-.2 2.6.6.4.5.5 1.2.9 1.6.5.5 1.3.7 1.5 1.4.1.9-1.1 1.6-.8 2.4.2.6 1 .7 1.6.6.6-.1 1.2-.5 1.8-.3-.2-.5.5-.8 1.1-.8.5 0 1.3 0 1.3-.6.7-.5 1.6.1 1.9.9.4.7.4 1.6 1 2.2.2.3-.2.7-.6.8-.3.1-.8.3-.8.7 0 .4.6.7.6 1.2 0 .6-1 .6-1.3 1.1-.3.4 0 1 .5 1.2.5.2 1 .2 1.5.2s1.1.2 1.3.6c.1.2.1.3.2.5.2.2.5.2.7.2.7 0 1.3-.1 2-.1.4 0 .8 0 1.2.1.4.2.6.6.5 1-.3.7-1.6.6-1.6 1.3 0 .4.4.7.5 1.1.1.4-.2.8-.6.9-.4.1-.8.1-1.2-.1-.3-.1-.5-.3-.8-.3s-.6.1-.7.4c0 .2.1.5 0 .7-.1.1-.3.1-.4.1-.4 0-.8 0-1.2-.1-.4-.1-.7-.4-1-.5-.4-.2-.8-.3-1.1-.1-.3.2-.5.7-.2 1-.7-.2-1.8-.3-2 .5-.2.8.7 1.3 1.5 1.4.8 0 1.7-.1 2.2.6.3.4.4.9.8 1.2.6.4 1.6-.3 2.2.1.4.3.4 1 0 1.3-.3.4-.9.5-1.4.6.3.6.5 1.4-.1 1.8-.4.3-.9.1-1.4 0-.5-.1-1.1 0-1.2.5-.6.3-1.3-.3-1.6-1-.3-.6-.6-1.4-1.3-1.5-.2-.1-.5 0-.8-.1-.7-.2-.7-1.3-1.3-1.8-.4-.3-1-.3-1.3 0-.4.3-.4.9-.2 1.3.3.5.9.8.8 1.3-.1.6-.9.6-1.2 1.1-.5.8.7 1.7.4 2.6-.1.2-.2.3-.2.5s.2.4.3.5c.3.4.3 1.1 0 1.5 0 .6-.6.9-1.1.8"/><g id="Calque_2_-_copie_2"><g id="Calque_4_-_copie_2"><path id="XMLID_75_" class="st1" d="m229.6 62.7-.5-6.9-.8-10.6v-.6.3-.3.5l-.8 10.6-.5 6.9c-.2 2.1-.2 4.3 0 6.4l.5 7.5.7 10.1v.6-.3.3-.5l.7-10.1.5-7.5c.3-2.1.3-4.2.2-6.4z"/><path id="XMLID_74_" class="st1" d="m231.5 64.6 4.5-5.2 7-8 .5-.5-.2.2.2-.2-.4.4-8 7-5.2 4.5c-1.6 1.4-3.1 2.9-4.5 4.5l-4.9 5.7-6.7 7.7-.5.5.2-.2-.2.2.4-.4 7.7-6.7 5.7-4.9c1.5-1.5 3-3 4.4-4.6z"/><path id="XMLID_73_" class="st1" d="m226.9 62.8-5.2-4.5-8-7-.5-.5.2.2-.2-.2.4.4 7 8 4.5 5.2c1.4 1.6 2.9 3.1 4.5 4.5l5.7 4.9 7.7 6.7.5.5-.2-.2.2.2-.4-.4-6.7-7.7-4.9-5.7c-1.5-1.5-3-3-4.6-4.4z"/><path id="XMLID_72_" class="st1" d="m225.1 64.7-6.9.5-10.7.8h-.6.3-.3.5l10.6.8 6.9.5c2.1.2 4.3.2 6.4 0l7.5-.5L249 66h.6-.3.3-.5l-10.1-.8-7.5-.5c-2.2-.2-4.3-.2-6.4 0z"/></g></g><g id="XMLID_56_"><path id="XMLID_38_" d="M239.4 65.9c0 1.8-2.4 3.1-3.2 4.5-.9 1.5-.8 4.2-2.3 5.1-1.5.9-3.7-.5-5.5-.5-1.8 0-4.1 1.4-5.5.5-1.5-.9-1.4-3.5-2.3-5.1-.9-1.5-3.2-2.7-3.2-4.5 0-1.8 2.4-3.1 3.2-4.5.9-1.5.8-4.2 2.3-5.1 1.5-.9 3.7.5 5.5.5 1.8 0 4.1-1.4 5.5-.5 1.5.9 1.4 3.5 2.3 5.1.9 1.4 3.2 2.6 3.2 4.5z" style="fill:#6d295e"/></g><g id="XMLID_47_"><path id="XMLID_35_" d="M238 65.9c0 1.6-2.3 2.6-3 3.8-.8 1.3-.5 3.8-1.8 4.5-1.3.7-3.3-.7-4.8-.7-1.6 0-3.6 1.4-4.8.7-1.3-.8-1-3.2-1.8-4.5-.7-1.3-3-2.3-3-3.8 0-1.6 2.3-2.6 3-3.8.8-1.3.5-3.8 1.8-4.5 1.3-.7 3.3.7 4.8.7 1.6 0 3.6-1.4 4.8-.7 1.3.8 1 3.2 1.8 4.5.7 1.2 3 2.2 3 3.8z" style="fill:#d380b5"/></g><g id="XMLID_44_" style="opacity:.5"><path id="XMLID_36_" d="M235.6 65.9c0 1.1-2.2 1.7-2.7 2.6-.6 1 0 3.1-.9 3.7-.9.5-2.5-1-3.6-1s-2.7 1.6-3.6 1c-1-.6-.4-2.7-.9-3.7-.5-.9-2.7-1.5-2.7-2.6s2.2-1.7 2.7-2.6c.6-1 0-3.1.9-3.7.9-.5 2.5 1 3.6 1s2.7-1.6 3.6-1c1 .6.4 2.7.9 3.7.6.8 2.7 1.4 2.7 2.6z" style="fill:#d1b4cb"/></g><g id="XMLID_41_"><path id="XMLID_39_" d="M233.2 65.9c0 .1-7.5-1.7-7.6-1.6-.1.1 5.3 5.7 5.2 5.8-.1.1-2.3-7.4-2.4-7.4-.1 0-2.3 7.4-2.4 7.4-.1-.1 5.2-5.6 5.2-5.8-.1-.1-7.6 1.7-7.6 1.6 0-.1 7.5 1.7 7.6 1.6.1-.1-5.3-5.7-5.2-5.8.1-.1 2.3 7.4 2.4 7.4.1 0 2.3-7.4 2.4-7.4.1.1-5.2 5.6-5.2 5.8.1.1 7.6-1.8 7.6-1.6z" style="fill:#fff"/></g></g><g id="Calque_5_-_copie_3"><path id="XMLID_34_" class="st0" d="M205.8 37.8c0 2.4-1.3 4.5-2.1 6.7-1.1 3.2-5.4 9.4-7.9 11.7-1.9 1.7-4.7 2.5-7.2 3.5-2.3.9-4.2 2-6.8 2-2.6 0-5.1-.5-7.4-1.4-1.8-.7-4.8-3.3-6.4-4.5-2.6-2-3.3-5.5-4.7-8.5-1.3-2.7-3.6-4.9-3.6-8.1 0-3.2.7-6.3 2.1-9 1.5-3 4.5-5.4 7.1-7.3 3.4-2.6 11.5-5.8 16.2-5.8 2 0 3.6 1.1 5.4 1.6 1.9.6 4.1.6 5.8 1.6 3 1.9 3.9 4.9 5.5 8.1 1.5 3 4 5.9 4 9.4z"/><path id="XMLID_33_" class="st1" d="M207.3 37.8c0 2.6-1.4 4.9-2.3 7.2-1.2 3.4-2.3 6.8-4.9 9.2-2 1.9-5 2.7-7.7 3.7-2.5.9-4.5 2.1-7.3 2.1s-5.5-.5-7.9-1.5c-1.9-.7-3.7-1.7-5.3-2.9-2.8-2.1-3.5-5.9-5.1-9.1-1.4-2.9-3.9-5.2-3.9-8.7 0-3.5.8-6.8 2.2-9.7 1.6-3.2 4.8-5.8 7.6-7.9 3.7-2.8 7.4-4.6 12.4-4.6 2.1 0 3.9 1.2 5.8 1.8 2.1.6 4.4.6 6.2 1.7 3.2 2.1 4.1 5.3 5.9 8.6 1.6 3.2 4.3 6.4 4.3 10.1z"/><path id="XMLID_32_" class="st2" d="M204.9 37.8c0 2.3-1.3 4.4-2 6.4-1.1 3.1-2.1 6-4.4 8.2-1.8 1.7-4.5 2.4-6.9 3.3-2.2.8-4 1.9-6.5 1.9s-4.9-.5-7.1-1.3c-1.7-.7-3.3-1.5-4.8-2.6-2.5-1.9-3.2-5.3-4.5-8.1-1.3-2.6-3.4-4.7-3.4-7.8 0-3.1.7-6 2-8.7 1.4-2.9 4.3-5.1 6.8-7 3.3-2.5 6.6-4.1 11-4.1 1.9 0 3.4 1.1 5.2 1.6 1.9.5 3.9.5 5.5 1.6 2.9 1.8 3.7 4.7 5.3 7.7 1.4 2.7 3.8 5.6 3.8 8.9z"/><path id="XMLID_27_" class="st3" d="M201 28.9c-1.6-3-2.4-5.9-5.3-7.7-1.6-1-3.6-1-5.5-1.6-1.7-.5-3.3-1.6-5.2-1.6-4.4 0-7.7 1.7-11 4.1-2.5 1.9-5.4 4.2-6.8 7-1.3 2.6-2 5.6-2 8.7 0 3.1 2.2 5.2 3.4 7.8 1.4 2.9 2 6.2 4.5 8.1 1.4 1.1 3.1 2 4.8 2.6 2.2.8 4.6 1.3 7.1 1.3s4.3-1.1 6.5-1.9c2.4-.9 5-1.6 6.9-3.3 2.4-2.2 3.3-5.1 4.4-8.2.7-2.1 2-4.1 2-6.4.1-3.3-2.3-6.2-3.8-8.9zm.9 9.5c-.1.4-.5.7-.9.7-.2 0-.4 0-.6.1-.5.3.2 1 .1 1.6-.3.2-.7.3-1 .2-.1-.5-.7-.8-1.2-.6-.5.2-.7.8-.5 1.2.3-.2.7-.1.9.2.2.3.2.7-.1.9-.2.2-.4.2-.6.4-.4.4.2 1.2.7.9.4.7-.4 1.5-1.1 1.9.8.1 1.1 1.5.3 1.9-.5.2-1.3.3-1.2.8.7 0 .9 1.1.4 1.4-.2.1-.4.2-.6.2-1.2.2-2.4.2-3.6.2-.2.4-.1.9.3 1.1-.5.5-1.6-.2-1.4-.9-.3-.1-.7-.2-1-.1-.3.1-.6.4-.6.7 0 .4.6.8.4 1.2-.2.3-.7.2-.9.4-.3.3.1.9 0 1.3-.1.5-.7.6-1.2.4-.4-.2-.9-.5-1.3-.4s-.9.6-.6.9c0 .6-.9.7-1.4.4-.5-.3-1-.8-1.6-.8-.6 0-1.1.7-1.7.5-.6-.2-.8-1-1.3-1.4-.4-.3-.9-.3-1.4-.4-.5-.2-.9-.7-.6-1.1.2-.3.7-.2 1-.4.3-.2.3-.7.2-1.1-.1-.4-.2-.9-.5-1.1-.3-.3-.9-.2-1.1.2-.1.2 0 .5-.1.7-.2.4-.8.3-1.2 0s-.9-.6-1.3-.3c-.1.1-.2.3-.3.4-.3.4-.9.4-1.4.2-.5-.2-.9-.5-1.4-.6-.5-.1-.5-.3-.8-.3-.6-.2-.6.2-.8-.7-.1-.4-.4-.7-.5-1.1-.2-1.1 1.5-2.1 1-3.1-.2-.4-.8-.6-1-1-.4-.8.6-1.8 0-2.5-.3-.3-.8-.3-1.1-.7-.2-.2-.2-.5-.3-.8-.4-1-1.8-1.6-1.6-2.6.2-.7 1.1-1 1.3-1.7.2-.7-.3-1.5.1-2.1.4-.6 1.5-.5 1.6-1.2.1-.4-.2-.7-.4-1-.2-.3-.3-.8 0-1 .1-.1.3-.1.4-.1.7-.1 1.6-.2 1.8-.9.2-.6-.4-1.6.1-1.8.2-.1.4 0 .6-.2.3-.2 0-.7-.2-.9-.3-.2-.6-.5-.5-.9.1-.2.3-.3.5-.4.4-.2 1-.3 1.4-.1.6.3 1 1.3 1.7 1 .4-.2.4-.8.7-1.1.7-.7 2.3.5 3-.3.4-.5.1-1.4.6-1.8.4.5 1.2.6 1.7.2.5-.4.6-1.1.2-1.6.7 0 1.3-.5 1.6-1.2.6-.4 1.4.1 1.9.7s1 1.2 1.7 1.3c.5.1 1-.2 1.5-.2s1.1.6.7 1c-.1.2-.4.2-.5.3-.3.3-.3.8.1 1.1.5.3 1.3-.2 1.8 0 .4.2.6.7.7 1.1.6.5 1.2-.7 1.9-.7.3 0 .6.2.9.2.3 0 .4-.2.7-.4.5-.3 1.1-.3 1.6 0s.7.9.6 1.5c-.1.5-.4 1-.2 1.4.2.3.6.4 1 .6.4.1.7.5.5.9-.1.2-.5.3-.6.5-.2.3 0 .7.4.9.3.2.7.3 1 .5.3.2.4.7.1 1-.5.1-.9.2-1.3.5-.3.3-.4 1 0 1.2.5.3 1.4-.1 1.6.4.1.4-.3.7-.7.8.6.5 1.5.7 2.3.5.2.5.1 1.1-.3 1.5.7.6 1 1.1.9 1.5z"/><path id="XMLID_23_" class="st4" d="M186.2 52.3c-.4.5-1.4 0-1.7-.5s-.5-1.2-.7-1.7c-.2-.3-.4-.6-.5-1-.2-.7.1-1.4-.1-2.1-.1-.5-.5-1-.5-1.5s.4-.9.3-1.4c0-.4-.4-.8-.8-.8s-.9.2-1 .7c-.1.2 0 .4-.2.6-.3.4-1 .3-1.4.6-.4.4 0 1.2-.4 1.7s-1.3.1-1.8.5c-.2.1-.3.3-.5.5-.4.4-1.1.5-1.6.2s-.7-.9-.6-1.5c.1-.3.2-.5.2-.8 0-.5-.8-1-.5-1.5.1-.2.4-.3.6-.3 1-.3 1.8-1.3 1.9-2.4.7.1 1.4-.8 1-1.4-.6-.7-1.8.1-2.6-.5-.2-.1-.3-.3-.5-.5-.4-.3-.9-.1-1.3.1s-.8.5-1.2.7c-.7.3-1.6 0-2.1-.6-.2-.3-.3-.6-.2-.9.1-.2.2-.3.4-.4.3-.3.4-.8.2-1.3.5-.7 1.8-.2 2.5-.8.2-.1.3-.3.5-.5.7-.4 1.7.6 2.5.2.3-.2.5-.5.8-.7.6-.4 1.3-.1 1.9.3.2-.5.2-1.2-.2-1.5-.3-.2-.7-.1-1-.1-.3 0-.7 0-.9-.4-.1-.4.3-.8.1-1.2-.1-.3-.6-.4-.9-.6-.3-.2-.4-.7-.4-1.1 0-.4.2-.8.3-1.2 0-.3 0-.6.2-.8.3-.4 1-.3 1.4 0s.8.7 1.3.8c.7.1 1.7-.4 2.2.2.1.2.1.4.2.7.1.4.3.8.7 1 .4.1.9-.1 1-.5.1-.5-.4-1-.3-1.4.1-.4.7-.6.9-1 .2-.7-.8-1.6-.3-2.1.1-.1.3-.2.4-.3.2-.4-.6-.8-.4-1.3 0-.1.2-.2.3-.3.7-.4 1.7-.1 2.2.5.3.4.4 1 .7 1.4.4.4 1.1.6 1.2 1.2.1.7-.9 1.3-.7 2 .2.5.8.6 1.3.5s1-.4 1.5-.3c-.2-.4.5-.7.9-.6s1.1 0 1.1-.5c.5-.4 1.3.1 1.6.7.3.6.4 1.3.8 1.9.1.3-.2.6-.5.7-.3.1-.7.3-.7.6 0 .4.5.6.5 1 0 .5-.8.5-1.1.9-.2.4 0 .9.4 1 .4.2.8.1 1.3.2.4 0 .9.2 1.1.5.1.1.1.3.2.4.1.2.4.2.6.1.6 0 1.1-.1 1.7-.1.3 0 .7 0 1 .1s.5.5.4.8c-.2.6-1.3.5-1.4 1.1 0 .3.3.6.4.9.1.3-.2.7-.5.8-.3.1-.7.1-1-.1-.2-.1-.4-.2-.7-.2-.2 0-.5.1-.5.4 0 .2.1.4 0 .6-.1.1-.2.1-.3.1-.3 0-.7 0-1-.1-.3-.1-.6-.3-.9-.4s-.7-.2-.9-.1c-.3.2-.4.6-.1.8-.6-.2-1.5-.2-1.7.4-.2.6.6 1.1 1.3 1.2.7 0 1.5-.1 1.9.5.2.3.3.8.6 1 .5.3 1.3-.3 1.8.1.3.2.3.8 0 1.1-.3.3-.7.4-1.1.5.2.5.4 1.2-.1 1.5-.3.2-.7.1-1.1 0-.4-.1-.9 0-1 .4-.5.3-1.1-.3-1.4-.8-.3-.5-.5-1.2-1.1-1.3-.2 0-.4 0-.6-.1-.6-.2-.6-1.1-1.1-1.5-.3-.2-.8-.2-1.1 0-.3.3-.4.8-.2 1.1.2.4.8.6.7 1.1-.1.5-.8.5-1 .9-.4.6.6 1.5.3 2.2-.1.1-.2.3-.1.4 0 .2.1.3.2.4.3.4.3.9 0 1.3s-.6 1-1 .9"/><g id="Calque_2_-_copie_3"><g id="Calque_4_-_copie_3"><path id="XMLID_83_" class="st1" d="m186.1 35.1-.4-5.8-.6-8.9v-.5.3-.2.4l-.6 8.9-.4 5.8c-.1 1.8-.1 3.6 0 5.4l.4 6.3.6 8.5v.5-.3.2-.4l.6-8.5.4-6.3c.1-1.8.1-3.6 0-5.4z"/><path id="XMLID_82_" class="st1" d="m187.7 36.7 3.8-4.4 5.9-6.8.4-.4-.2.2.1-.2-.3.3-6.8 5.9-4.4 3.8c-1.4 1.2-2.6 2.4-3.8 3.8l-4.1 4.8-5.6 6.4-.4.4.2-.2-.1.2.3-.3 6.4-5.6 4.8-4.1c1.4-1.2 2.6-2.5 3.8-3.8z"/><path id="XMLID_81_" class="st1" d="m183.9 35.1-4.4-3.8-6.8-5.9-.4-.4.2.2-.2-.1.3.3 5.9 6.8 3.8 4.4c1.2 1.4 2.4 2.6 3.8 3.8l4.8 4.1 6.4 5.6.4.4-.2-.2.2.1-.3-.3-5.6-6.4-4.1-4.8c-1.2-1.3-2.5-2.6-3.8-3.8z"/><path id="XMLID_80_" class="st1" d="m182.3 36.7-5.8.4-8.9.6h-.5.3-.2.4l8.9.6 5.8.4c1.8.1 3.6.1 5.4 0l6.3-.4 8.5-.6h.5-.3.2-.4l-8.5-.6-6.3-.4c-1.8-.1-3.6-.1-5.4 0z"/></g></g></g><g id="Calque_5_-_copie_4"><path id="XMLID_16_" class="st0" d="M251.4 110.6c0 1.7-.9 3.1-1.5 4.6-.8 2.2-3.7 6.5-5.4 8.1-1.3 1.2-3.2 1.7-4.9 2.4-1.6.6-2.9 1.4-4.7 1.4-1.8 0-3.5-.3-5.1-.9-1.2-.5-3.3-2.3-4.4-3.1-1.8-1.4-2.3-3.8-3.3-5.9-.9-1.9-2.5-3.4-2.5-5.6 0-2.2.5-4.4 1.4-6.2 1-2.1 3.1-3.7 4.9-5.1 2.4-1.8 8-4 11.1-4 1.4 0 2.5.8 3.7 1.1 1.3.4 2.8.4 4 1.1 2.1 1.3 2.7 3.4 3.8 5.6 1.2 2 2.9 4.1 2.9 6.5z"/><path id="XMLID_14_" class="st1" d="M253.4 110.6c0 1.9-1.1 3.6-1.7 5.3-.9 2.5-1.7 4.9-3.6 6.7-1.5 1.4-3.7 2-5.6 2.7-1.8.7-3.3 1.5-5.3 1.5s-4-.4-5.8-1.1c-1.4-.5-2.7-1.3-3.9-2.1-2.1-1.5-2.6-4.3-3.7-6.6-1-2.1-2.8-3.8-2.8-6.4 0-2.5.6-4.9 1.6-7.1 1.1-2.3 3.5-4.2 5.6-5.7 2.7-2 5.4-3.4 9-3.4 1.5 0 2.8.9 4.2 1.3 1.5.4 3.2.4 4.5 1.3 2.3 1.5 3 3.8 4.3 6.3 1.2 2.2 3.2 4.6 3.2 7.3z"/><path id="XMLID_13_" class="st2" d="M250.8 110.6c0 1.6-.9 3-1.4 4.4-.8 2.1-1.4 4.2-3 5.6-1.3 1.2-3.1 1.7-4.7 2.3-1.5.6-2.8 1.3-4.5 1.3-1.7 0-3.4-.3-4.9-.9-1.2-.5-2.3-1.1-3.3-1.8-1.7-1.3-2.2-3.6-3.1-5.6-.9-1.8-2.4-3.2-2.4-5.4 0-2.1.5-4.2 1.4-6 1-2 2.9-3.5 4.7-4.8 2.3-1.7 4.5-2.9 7.6-2.9 1.3 0 2.4.7 3.6 1.1 1.3.4 2.7.4 3.8 1.1 2 1.3 2.5 3.2 3.7 5.3.9 2 2.5 4 2.5 6.3z"/><path id="XMLID_5_" class="st3" d="M248.2 104.4c-1.1-2.1-1.7-4.1-3.7-5.3-1.1-.7-2.5-.7-3.8-1.1-1.2-.3-2.3-1.1-3.6-1.1-3.1 0-5.3 1.2-7.6 2.9-1.8 1.3-3.7 2.9-4.7 4.8-.9 1.8-1.4 3.8-1.4 6s1.5 3.6 2.4 5.4c1 2 1.4 4.3 3.1 5.6 1 .7 2.1 1.4 3.3 1.8 1.5.6 3.2.9 4.9.9 1.7 0 3-.7 4.5-1.3 1.6-.6 3.5-1.1 4.7-2.3 1.6-1.5 2.3-3.5 3-5.6.5-1.4 1.4-2.8 1.4-4.4.1-2.4-1.5-4.4-2.5-6.3zm.6 6.6c-.1.3-.4.5-.6.5-.1 0-.3 0-.4.1-.3.2.2.7.1 1.1-.2.1-.5.2-.7.2-.1-.3-.5-.5-.8-.4-.3.1-.5.5-.3.9.2-.1.5 0 .6.2.1.2.1.5-.1.6-.1.1-.3.2-.4.3-.3.3.2.8.5.6.3.5-.3 1-.7 1.3.6.1.7 1 .2 1.3-.3.2-.9.2-.8.6.5 0 .6.7.3 1-.1.1-.3.1-.4.1-.8.1-1.7.2-2.5.1-.2.2 0 .6.2.7-.4.4-1.1-.1-1-.6-.2-.1-.5-.1-.7-.1s-.4.3-.4.5c0 .3.4.6.2.8-.1.2-.5.1-.6.3-.2.2.1.6 0 .9-.1.3-.5.4-.8.3-.3-.1-.6-.3-.9-.3-.3 0-.6.4-.4.6 0 .4-.6.5-1 .3s-.7-.6-1.1-.5c-.4 0-.8.5-1.2.4-.4-.1-.5-.7-.9-1-.3-.2-.7-.2-1-.3-.3-.1-.6-.5-.4-.8.2-.2.5-.1.7-.3.2-.2.2-.5.1-.7-.1-.3-.1-.6-.4-.8-.2-.2-.7-.1-.7.1v.5c-.1.3-.6.2-.8 0-.3-.2-.6-.4-.9-.2-.1.1-.1.2-.2.3-.2.3-.6.3-.9.1-.3-.1-.6-.3-.9-.4-.3-.1-.3-.2-.6-.2-.4-.1-.4.1-.6-.5-.1-.3-.3-.5-.3-.8-.1-.8 1.1-1.4.7-2.1-.2-.3-.6-.4-.7-.7-.3-.5.4-1.3 0-1.7-.2-.2-.6-.2-.8-.5-.1-.1-.1-.4-.2-.5-.3-.7-1.3-1.1-1.1-1.8.1-.5.7-.7.9-1.1.2-.5-.2-1 .1-1.4.3-.4 1-.4 1.1-.9.1-.3-.1-.5-.3-.7-.1-.2-.2-.5 0-.7.1-.1.2-.1.3-.1.5-.1 1.1-.1 1.2-.6.1-.4-.3-1.1.1-1.3.1-.1.3 0 .4-.1.2-.2 0-.5-.2-.6-.2-.2-.4-.4-.3-.6.1-.1.2-.2.3-.2.3-.1.7-.2 1-.1.4.2.7.9 1.2.7.3-.1.3-.5.5-.7.5-.5 1.6.4 2-.2.3-.3.1-1 .4-1.2.3.3.8.4 1.1.1s.4-.8.2-1.1c.5 0 .9-.3 1.1-.8.4-.3 1 .1 1.3.5.3.4.7.9 1.2.9.3 0 .7-.1 1-.1.4 0 .7.4.5.7-.1.1-.2.1-.4.2-.2.2-.2.6 0 .7.4.2.9-.1 1.3 0 .3.1.4.5.5.8.4.3.8-.5 1.3-.5.2 0 .4.2.6.1.2 0 .3-.2.5-.2.3-.2.8-.2 1.1 0 .3.2.5.6.4 1-.1.3-.3.7-.1 1 .1.2.4.3.7.4s.5.4.4.6c-.1.2-.3.2-.4.4-.1.2 0 .5.2.6.2.1.5.2.7.3.2.2.3.5.1.7-.3.1-.7.1-.9.3-.2.2-.3.7 0 .8.3.2 1-.1 1.1.3.1.3-.2.5-.5.6.4.4 1.1.5 1.6.3.2.3.1.8-.2 1 .4.1.6.4.5.7z"/><path id="XMLID_2_" class="st4" d="M237.9 120.6c-.3.3-.9 0-1.2-.4-.3-.3-.3-.8-.5-1.2-.1-.2-.3-.4-.3-.7-.1-.5.1-1 0-1.5-.1-.4-.4-.7-.4-1 0-.3.3-.6.2-1 0-.3-.3-.6-.6-.6s-.6.2-.7.5c0 .1 0 .3-.1.4-.2.3-.7.2-.9.4-.3.3 0 .9-.3 1.2-.3.3-.9.1-1.2.3l-.3.3c-.3.3-.7.3-1.1.1-.3-.2-.5-.6-.4-1 .1-.2.2-.4.2-.5 0-.4-.5-.7-.3-1 .1-.1.3-.2.4-.2.7-.2 1.2-.9 1.3-1.7.5.1 1-.5.7-.9-.4-.5-1.3 0-1.8-.3-.1-.1-.2-.2-.4-.3-.3-.2-.6-.1-.9.1-.3.2-.5.4-.9.5-.5.2-1.1 0-1.5-.4-.1-.2-.2-.4-.1-.6l.3-.3c.2-.2.3-.6.1-.9.4-.5 1.2-.2 1.7-.5.1-.1.2-.2.4-.3.5-.3 1.2.4 1.7.2.2-.1.3-.3.5-.5.4-.3.9 0 1.3.2.1-.4.2-.8-.2-1-.2-.1-.5-.1-.7 0-.2 0-.5 0-.6-.3-.1-.3.2-.6.1-.8-.1-.2-.4-.2-.6-.4-.2-.2-.3-.5-.3-.8 0-.3.1-.5.2-.8 0-.2 0-.4.2-.6.2-.3.7-.2 1 0 .3.2.5.5.9.6.5.1 1.2-.3 1.5.2.1.1.1.3.1.5.1.3.2.6.5.7.3.1.6 0 .7-.3.1-.3-.3-.7-.2-1 .1-.3.5-.4.6-.7.2-.5-.6-1.1-.2-1.4.1-.1.2-.1.3-.2.2-.3-.4-.6-.3-.9 0-.1.1-.1.2-.2.5-.3 1.2-.1 1.5.4.2.3.3.7.5.9.3.3.8.4.8.8.1.5-.6.9-.5 1.4.1.3.6.4.9.3s.7-.3 1.1-.2c-.1-.3.3-.5.6-.4.3 0 .7 0 .7-.3.4-.3.9.1 1.1.5s.3.9.6 1.3c.1.2-.1.4-.3.5-.2.1-.5.2-.5.4 0 .3.3.4.3.7 0 .3-.6.3-.8.6-.2.2 0 .6.3.7s.6.1.9.1c.3 0 .6.1.8.4 0 .1.1.2.1.3.1.1.3.1.4.1.4 0 .8 0 1.2-.1.2 0 .5 0 .7.1.2.1.4.4.3.6-.2.4-.9.3-.9.8 0 .2.2.4.3.6 0 .2-.1.5-.3.5-.2.1-.5 0-.7 0-.2-.1-.3-.1-.5-.2s-.4.1-.4.2.1.3 0 .4c-.1.1-.1.1-.2.1h-.7l-.6-.3c-.2-.1-.5-.2-.7 0-.2.1-.3.4-.1.6-.4-.1-1-.2-1.2.3-.1.4.4.8.9.8s1 0 1.3.3c.2.2.2.5.4.7.4.2.9-.2 1.2.1.2.2.2.6 0 .8-.2.2-.5.3-.8.3.2.3.3.8 0 1-.2.2-.5.1-.8 0-.3 0-.6 0-.7.3-.4.2-.8-.2-.9-.6-.2-.4-.4-.8-.8-.9-.1 0-.3 0-.4-.1-.4-.1-.4-.8-.8-1-.2-.2-.6-.2-.8 0-.2.2-.3.5-.1.8.2.3.5.4.5.8-.1.3-.5.4-.7.6-.3.4.4 1 .2 1.5 0 .1-.1.2-.1.3 0 .1.1.2.2.3.2.3.2.6 0 .9.1-.1-.3 0-.6 0"/><g id="Calque_2_-_copie_4"><g id="Calque_4_-_copie_4"><path id="XMLID_37_" class="st1" d="m237.9 108.7-.3-4-.4-6.1v-.4.2-.1.3l-.4 6.1-.3 4c-.1 1.2-.1 2.5 0 3.7l.3 4.4.4 5.9v.4-.2.2-.3l.4-5.9.3-4.4c.1-1.3.1-2.6 0-3.8z"/><path id="XMLID_31_" class="st1" d="m239 109.8 2.6-3 4-4.7.3-.3-.1.1.1-.1-.2.2-4.7 4-3 2.6c-.9.8-1.8 1.7-2.6 2.6l-2.9 3.3-3.9 4.4-.3.3.1-.1-.1.1.2-.2 4.4-3.9 3.3-2.9c1.1-.6 2-1.5 2.8-2.4z"/><path id="XMLID_28_" class="st1" d="m236.3 108.7-3-2.6-4.7-4-.3-.3.1.1-.1-.1.2.2 4 4.7 2.6 3c.8.9 1.7 1.8 2.6 2.6l3.3 2.9 4.4 3.9.3.3-.1-.1.1.1-.2-.2-3.9-4.4-2.9-3.3c-.5-1.1-1.4-1.9-2.4-2.8z"/><path id="XMLID_26_" class="st1" d="m235.3 109.9-4 .3-6.1.4h-.4.2-.1.3l6.1.4 4 .3c1.2.1 2.5.1 3.7 0l4.4-.3 5.9-.4h.4-.2.2-.3l-5.9-.4-4.4-.3c-1.4-.1-2.6-.1-3.8 0z"/></g></g></g></svg>