<svg version="1.0" id="圖層_1" xmlns="http://www.w3.org/2000/svg" x="0" y="0" width="300" height="260" style="enable-background:new 0 0 300 260" xml:space="preserve"><style>.st7{fill:#dd8c39;stroke:#54331a;stroke-miterlimit:10}.st12{opacity:.4;fill:#ffe1a4}.st13{fill:#293a1a}.st14{fill:#bed731}.st15{fill:#009447}.st16{display:none;opacity:.1}.st17{opacity:.35}.st18{fill:#d9e136}.st19,.st20{opacity:.5;fill:none;stroke:#245429;stroke-width:1.5;stroke-miterlimit:10}.st20{display:none}</style><g id="Calque_7"><g id="圖層_7"><path id="XMLID_47_" d="M96.4 165.3c-5.7 2.7-12.6 2.9-19.8 1.1-9.5-3.6-23.5-9.7-21.5-21.2.7-10.6 2.3-18.4 2.3-28.5 1.5-12.2 10.5-19.5 20.5-23 2.2-.8 4.3-1.4 6.2-1.8 4-.7 8.2-.5 12.2 1.2 2.2.9 4.6 2.4 5.7 4.6 1.7 3.1 0 6.2-2.9 8.1-4.1 2-9.7 6.9-4.2 12.1 5.4 6.4 13.8 8.5 18.3 16.6 7.5 15.2-7.1 24.2-16.8 30.8" style="fill:#fdc272"/><path id="XMLID_23_" d="M92.1 154.2c-3.8 1.9-8.4 1.9-13.3.8-6.3-2.4-15.8-6.5-14.4-14.3.5-7.1 1.5-12.4 1.6-19.1 1-8.2 7-13.1 13.7-15.5 1.5-.6 2.8-1 4.2-1.2 2.7-.5 5.5-.3 8.2.8 1.6.6 3.1 1.6 3.9 3.1 1.2 2.1-.1 4.2-2 5.4-2.8 1.3-6.6 4.6-2.8 8.1 3.6 4.3 9.2 5.7 12.3 11.1 5 10.3-4.9 16.3-11.4 20.8" style="fill:#fcc981"/><path id="XMLID_8_" d="M89.8 148.2c-2.8 1.4-6.2 1.4-9.8.6-4.7-1.8-11.7-4.8-10.7-10.5.3-5.2 1.1-9.2 1.2-14.1.8-6 5.2-9.7 10.1-11.5 1.1-.4 2.1-.7 3.1-.9 2-.3 4.1-.2 6.1.6 1.2.5 2.3 1.2 2.8 2.3.9 1.5 0 3.1-1.5 4-2.1 1-4.9 3.4-2.1 6 2.7 3.2 6.8 4.2 9.1 8.2 3.8 7.6-3.5 12-8.3 15.3" style="opacity:.35;fill:#f8d3a5"/></g><g id="Calque_15_-_copie_6"><g id="Calque_2_-_copie_11"><g id="Calque_8_-_copie_10"><path id="XMLID_99_" d="M225.5 127.6s-2.2 5.7-.4 14.7c0 0-3-8.3-1.5-17 0 0-16.1-6.7-36.4-7.2 8.8-4.8 16.1-10.6 19.5-17.4 0 0-18.4-1.4-26.5-11 0 0 22.4 12.2 29.1 9.4 0 0 22.3-37.8 15.2-56.3 0 0-41.6-10.3-54.3 11.6 0 0 4.1 4.5 13 6.9 0 0-8.7-1-15.9-6.2 0 0-20.9 18.2-29.2 44.8-2-16.4-6.4-34.1-15.8-42 0 0-5.7 17.5-17 23.2 0 0 17.2-18.9 16-26 0 0-31.5-30.6-51.1-28.1 0 0-19.8 37.9-1.6 55.5 0 0 5.3-2.9 9.8-11 0 0-3.1 8.3-9.8 14 0 0 21.4 41.3 60.5 48.1-38 1-65.5 35.2-65.5 35.2 5.5 6.9 6.8 15.6 6.8 15.6-2.8-8.8-7.4-12.7-7.4-12.7-21.3 13.6-9.4 54.8-9.4 54.8C72.1 232.8 109 209 109 209c2.6-6.7-10.5-28.7-10.5-28.7 10 7.8 12.1 26.1 12.1 26.1 5.9-3.2 10.9-9.6 15.1-17.2.4 8.8 2.1 16.8 6.1 22.3 0 0 9.9-15.6 22.2-18.2 0 0-21.4 14-21.9 21.2 0 0 22.9 37.5 42.5 39.9 0 0 28.6-31.8 15.4-53.4 0 0-5.9 1.5-12.2 8.2 0 0 5-7.2 13-11.1 0 0-2.4-10.5-9-23.3 6.4 3.7 12.8 6.2 18.7 6.1 0 0-6.9-17.1-1.9-28.7 0 0-1 25.5 4.6 30.2 0 0 43.8 3.1 57.1-11.5-.2.2-9.5-41.6-34.8-43.3z" style="opacity:.15;fill:#245429"/></g></g></g><g id="Calque_14"><path id="XMLID_30_" d="M76.6 140s-9.8-21.6 6.2-26.4 33.3-4.4 43.5-.2 36.6 2.2 37 10.8-16 20.9-28.3 19.3c-12.3-1.6-21.9 1.8-33.6 2.1-10.8.2-21.9 1.4-24.8-5.6z" style="fill:#543116"/><path id="XMLID_9_" d="M78 139.1s-9-19.9 5.7-24.3 30.6-4 39.9-.2 33.6 2 34 9.9c.3 7.9-14.7 19.2-26 17.7s-20.1 1.6-30.9 1.9c-9.8.3-20.1 1.3-22.7-5z" style="fill:#dd8c3b"/><path id="XMLID_37_" class="st7" d="M139.2 117.4c-5.9-.7-12-1.3-15.6-2.8-9.3-3.8-25.2-4.2-39.9.2S78 139.1 78 139.1c2.6 6.4 12.9 5.3 22.7 5 6.4-.2 12.2-1.4 18.1-2-2.8-10.5 15.5-21.9 20.4-24.7z"/><path id="XMLID_36_" class="st7" d="M126.3 141.8c-13.4-10.1-21.5-22.5-25.7-30.1-5.6.4-11.4 1.3-17 3-14.6 4.5-5.6 24.4-5.6 24.4 2.6 6.4 12.9 5.3 22.7 5 9.1-.3 16.7-2.5 25.6-2.3z"/><path id="XMLID_32_" class="st7" d="M122.2 114c-9.5-3.3-24.5-3.5-38.5.7-14.7 4.5-5.7 24.4-5.7 24.4 2.5 5.9 11.5 5.4 20.7 5.1 4.4-7.4 13.6-21.7 23.5-30.2z"/><path id="XMLID_13_" d="M86.4 114c-.9.2-1.8.5-2.7.8-14.7 4.4-5.7 24.3-5.7 24.3 2.6 6.4 12.9 5.3 22.7 5 2.9-.1 5.7-.4 8.5-.7-7.2-4.4-19.4-13.8-22.8-29.4z" style="fill:#dd8c3a;stroke:#54331a;stroke-miterlimit:10"/><path id="XMLID_14_" class="st7" d="M83.7 114.8C69 119.2 78 139.1 78 139.1c1.4 3.3 4.8 4.6 9.1 5.1 1.5-9.2 16.7-26.7 21.9-32.4-7.9-.5-16.8.4-25.3 3z"/><path id="XMLID_29_" class="st7" d="M96 144.3c-7.4-7.3-12-22.5-13.7-29-12.6 5.2-4.3 23.8-4.3 23.8 2.2 5.3 9.8 5.4 18 5.2z"/><path id="XMLID_12_" d="M93.7 112.5c-3.4.5-6.8 1.3-10.1 2.3-14.6 4.4-5.6 24.3-5.6 24.3.3.7.7 1.2 1.1 1.7 2-5.7 7.8-21.2 14.6-28.3z" style="fill:#dd8c3a;stroke:#543218;stroke-miterlimit:10"/><path id="XMLID_38_" d="M157.6 124.5c-.3-7.9-24.7-6.1-34-9.9-4.3-1.8-10.1-2.8-16.5-2.9 3 5.9 7.9 13.7 13.4 15 0 0-15.4 10.3-21.1 17.5h1.4c10.8-.3 19.5-3.4 30.9-1.9 11.2 1.3 26.2-10 25.9-17.8z" style="opacity:.25"/><path id="XMLID_10_" d="M164.5 124.8c-.3-7-21.8-5.4-30.1-8.8-3.8-1.6-9-2.5-14.6-2.6 2.7 5.2 7 12.1 11.9 13.3 0 0-13.6 9.1-18.7 15.5h1.2c9.5-.3 17.3-3 27.3-1.7 10.1 1.2 23.3-8.8 23-15.7z" style="opacity:.3"/><path id="XMLID_16_" class="st12" d="M83.7 114.8C69 119.2 78 139.1 78 139.1c1.6 4 6.2 5 11.8 5.2-1.6-5.7-5.9-4.9-6.7-15.6-.8-10.5 5.8-12.3 6.9-15.6-2.1.5-4.2 1-6.3 1.7z"/><path id="XMLID_11_" class="st12" d="M81.2 116.3c-9.5 4-3.7 22.3-3.7 22.3 1.1 3.6 4 4.6 7.6 4.8-1-5.3-3.8-4.5-4.3-14.3-.5-9.6 3.7-11.3 4.4-14.3-1.3.4-2.7.9-4 1.5z"/></g><g id="Calque_31"><g id="Calque_15_-_copie_5"><g id="Calque_2_-_copie_10"><path id="XMLID_233_" class="st13" d="M156.9 124.4s-17 56.7-2.2 77.4c0 0 9.7-15.3 21.9-17.9 0 0-21 13.8-21.6 20.9 0 0 22.6 36.9 41.9 39.3 0 0 28.2-31.4 15.1-52.6 0 0-5.8 1.5-12 8.1 0 0 5-7.1 12.8-10.9 0 0-12.2-52.8-55.9-64.3z"/><path id="XMLID_232_" class="st14" d="M159.9 129.9s-16.3 47.7-2.7 66.6c0 0 8.9-12.7 21.4-13.2 0 0-19.3 12.7-19.8 19.2 0 0 18.9 33.9 36.6 36.1 0 0 25.4-26.9 13.4-46.4 0 0-6.5 3.5-12.2 9.6 0 0 4.7-9.8 11.8-13.2 0 0-8.4-48.2-48.5-58.7z"/><path id="XMLID_231_" class="st15" d="M159.9 129.9s-16.2 45.7-2.5 64.7c0 0 8.7-10.7 21.2-11.3 0 0-17.9 13-18.4 19.5 0 0 16.8 31.7 34.5 33.9 0 0 25.6-23.6 13.7-43.1 0 0-6 2.2-11.8 8.2 0 0 3.3-10.4 10.4-13.9 0 0-7-47.5-47.1-58z"/><g id="XMLID_222_" class="st17"><path id="XMLID_229_" class="st18" d="M154.8 168c1.7-1.5 3.2-3.6 2.7-5.8-.2-.8-.5-1.5-.5-2.3.1-1.1 1.1-1.9 1.3-2.9.2-1.5-1.4-2.7-1.7-4.2-.3-1.6.9-3.1 1-4.8.1-1.5-.6-2.8-1.7-3.8-1.8 7.5-3.6 17-4 26.3.9-.9 1.9-1.7 2.9-2.5z"/><path id="XMLID_228_" class="st18" d="M174.9 141.5c4.3 3.1 8.8 5.9 13.5 8.4 1 .5 2 1 3.1 1.4-5.3-6.8-12.2-13.1-21-17.4-.8 2.8 1.9 5.7 4.4 7.6z"/><path id="XMLID_227_" class="st18" d="M202.4 196.5c-.6 1.6-2.1 3.2-.9 4.3.6.6 1.7.4 2.5.2 1.8-.5 3.6-.9 5.4-1.4.7-.2 1.4-.4 2.1-.5-.5-2.4-1.3-4.7-2.7-6.9 0 0-2.9 1.6-6.4 4.3z"/><path id="XMLID_226_" class="st18" d="M194.6 171.3c-.1.7-.3 1.5.2 2 .7.7 1.9.2 2.9.6 1.7.6 1.1 3.2 1.7 5 .5 1.4 1.8 2.4 2.1 3.9.3 1.7-1 3.1-2.1 4.4-1.1 1.3-2 3.2-1.1 4.6.8 1.2 2.6 1.4 3.6 2.3 1.8-2.1 4-4.1 6.6-5.3 0 0-2.4-13.7-10.7-28.1-1.4 3.3-2.4 6.9-3.2 10.6z"/><path id="XMLID_225_" class="st18" d="M210.2 214.2c-1.2.4-2.4.7-3.6.8-.8 0-1.7 0-2.4.5-.7.4-1 1.2-1.3 2-.8 2.2-1.6 4.3-2.4 6.5-.3.7-.6 1.5-1.3 1.9-.6.3-1.3.3-2 .5-2.3.7-3.1 4.3-5.5 4.4-2 .1-3.1-2.5-5-3.1-1.4-.5-2.9.1-4.3-.2-3.4-.7-4.7-5.9-8.2-6.1-.7 0-1.4.2-2.1.4 6.7 8.1 15.1 15.9 23.3 16.9-.1-.1 10.5-11.3 14.8-24.5z"/><path id="XMLID_224_" class="st18" d="M169.2 210.6c1.9-3.7 2.9-7.9 2.8-12.1-.1-3-.9-6.1-3-8.1-4.9 4-9.9 8.8-10.2 12.1 0 0 3.2 5.7 8.1 12.6.6-1.6 1.5-3 2.3-4.5z"/><path id="XMLID_223_" class="st18" d="M157.2 196.6s3.5-5 9.2-8.9c-.2-1.1.3-2.2-.1-3.2-1.1-2.4-5.5 0-7.4-1.9-1-1-.8-2.8-1.9-3.7-1.3-1.2-3.4 0-5.2-.4.5 6.9 2 13.4 5.4 18.1z"/></g><g id="Calque_8_-_copie_9"><path id="XMLID_97_" class="st19" d="M160.1 130.1c16.9 23.5 19.4 32.5 22.5 43"/><path id="XMLID_96_" class="st19" d="M193.4 212.5c1.7 7.5 2.9 14.4 1.9 26.1"/><path id="XMLID_95_" class="st19" d="M212 204.2c-1.4-1.3-4.6-.2-7.3 2.5"/><path id="XMLID_94_" class="st19" d="M205.3 177.5c-.8-.8-3.7 1-6.6 4"/><path id="XMLID_93_" class="st19" d="M193.5 153.7c-.9.2-3.6 2-5.7 5.6"/><path id="XMLID_79_" class="st19" d="M168.4 218.2c-.5-.5 1.4-3.3 4.4-6.3"/><path id="XMLID_77_" class="st19" d="M151.3 170.3c-.1-.7 3.1-2 7.2-2.8"/></g></g></g><g id="Calque_15_-_copie_4"><g id="Calque_2_-_copie_9"><path id="XMLID_199_" class="st13" d="M168.5 127.5s-9.3 57.8-31.4 69.8c0 0-2.1-17.8-11.7-25.4 0 0 12.8 21.4 10.2 27.9 0 0-36 23.1-54.2 16.9 0 0-11.6-40.1 9.2-53.3 0 0 4.5 3.8 7.2 12.4 0 0-1.3-8.5-6.7-15.2 0 0 33.6-41.7 77.4-33.1z"/><path id="XMLID_198_" class="st14" d="M163.9 130.6s-6.1 50-26.6 61.2c0 0-2.5-15.3-13.5-21.2 0 0 11.8 19.8 9.5 25.9 0 0-31.8 22.3-48.7 16.6 0 0-11.1-35.3 8.1-47.6 0 0 4.3 6 6.8 14 0 0 0-10.8-4.9-17.1.2-.1 28.7-39.8 69.3-31.8z"/><path id="XMLID_197_" class="st15" d="M163.9 130.6s-5.4 48.2-25.9 59.3c0 0-3.2-13.4-14.2-19.4 0 0 10.4 19.5 8.1 25.5 0 0-28.9 21.2-45.8 15.5 0 0-12.8-32.4 6.5-44.7 0 0 4.5 4.6 7 12.5 0 0 1.6-10.8-3.4-17.1.1.1 27.1-39.6 67.7-31.6z"/><g id="XMLID_186_" class="st17"><path id="XMLID_195_" class="st18" d="M152 167.1c-.9-2.1-1.3-4.6.1-6.4.5-.6 1.1-1.1 1.4-1.8.4-1-.2-2.2.1-3.2.5-1.5 2.4-1.8 3.4-3 1-1.3.6-3.2 1.2-4.7.5-1.4 1.8-2.3 3.2-2.7-1.7 7.5-4.2 16.9-7.8 25.4-.6-1.2-1.2-2.4-1.6-3.6z"/><path id="XMLID_194_" class="st18" d="M145.4 134.5c-5.2 1-10.5 1.5-15.8 1.7-1.1 0-2.2 0-3.3-.1 7.7-3.8 16.7-6.5 26.5-6.5-.6 2.8-4.3 4.3-7.4 4.9z"/><path id="XMLID_193_" class="st18" d="M96.7 172.1c-.2 1.7.5 3.8-1.1 4.3-.8.3-1.7-.3-2.3-.9l-4.2-3.6c-.5-.5-1.1-.9-1.7-1.3 1.5-1.9 3.3-3.6 5.5-5.1-.1-.1 1.8 2.5 3.8 6.6z"/><path id="XMLID_192_" class="st18" d="M114.7 152.7c-.2.7-.4 1.4-1 1.7-.9.4-1.8-.7-2.8-.8-1.8-.2-2.4 2.4-3.7 3.8-1 1.1-2.7 1.4-3.5 2.6-1 1.4-.4 3.3 0 4.9.4 1.6.4 3.7-1 4.6-1.2.7-3 .2-4.3.5-.7-2.7-1.8-5.5-3.6-7.7 0 0 8.1-11.3 21.9-20.6-.5 3.7-1.1 7.4-2 11z"/><path id="XMLID_191_" class="st18" d="M82 184.6c.9.9 1.8 1.7 2.9 2.3.7.4 1.6.8 2 1.5.4.7.3 1.5.3 2.3l-.6 6.9c-.1.8-.1 1.6.3 2.2.4.6 1.1.8 1.6 1.3 1.8 1.6.9 5.2 3 6.3 1.8.9 3.9-.9 5.9-.6 1.4.2 2.6 1.4 4 1.7 3.4.9 6.8-3.3 10-1.9.7.3 1.2.8 1.8 1.3-9.6 4.4-20.5 7.7-28.3 5.1-.2 0-4.8-14.7-2.9-28.4z"/><path id="XMLID_190_" class="st18" d="M120.5 199.2c-.1-4.2.8-8.4 2.8-12.1 1.4-2.6 3.5-5.1 6.3-6 2.7 5.7 5.1 12.2 3.9 15.3 0 0-5.3 3.8-12.8 7.8 0-1.6-.2-3.3-.2-5z"/><path id="XMLID_187_" class="st18" d="M137.3 191.8s-1-6-4.4-12c.6-.9.7-2.2 1.5-2.9 2.1-1.7 4.9 2.4 7.5 1.5 1.3-.5 2-2.2 3.3-2.5 1.7-.5 3.1 1.5 4.8 1.9-3.4 6.1-7.6 11.2-12.7 14z"/></g><g id="Calque_8_-_copie_8"><path id="XMLID_89_" class="st19" d="M163.7 130.7c-25.4 13.8-31.6 20.8-39 28.9"/><path id="XMLID_88_" class="st19" d="M97.8 190.3c-4.8 6-8.9 11.7-13.1 22.7"/><path id="XMLID_87_" class="st19" d="M84.7 174.8c1.8-.6 4.2 1.8 5.5 5.5"/><path id="XMLID_86_" class="st19" d="M102.4 153.6c1-.3 2.9 2.5 4.2 6.5"/><path id="XMLID_85_" class="st19" d="M123.3 137.4c.7.5 2.4 3.4 2.6 7.5"/><path id="XMLID_83_" class="st19" d="M117.8 206.4c.7-.2.2-3.6-1.2-7.6"/><path id="XMLID_81_" class="st19" d="M154.1 170.8c.4-.6-1.9-3.1-5.2-5.6"/></g></g></g><g id="Calque_15_-_copie_3"><g id="Calque_2_-_copie_8"><path id="XMLID_165_" class="st13" d="M157.9 127.6s36.3 46.8 61.9 46.7c0 0-6.8-16.8-1.9-28.3 0 0-.9 25.2 4.5 29.8 0 0 43.2 3 56.3-11.3 0 0-9.2-41.2-34.1-42.9 0 0-2.1 5.6-.4 14.5 0 0-2.9-8.2-1.5-16.8.1.1-50-20.7-84.8 8.3z"/><path id="XMLID_164_" class="st14" d="M164.2 128.3s29.4 40.9 52.7 40.9c0 0-5.2-14.6 1.6-25.1 0 0-.9 23 4.1 27.2 0 0 38.6 4.3 50.7-8.8 0 0-7.2-36.3-30-37.8 0 0-.9 7.3.7 15.5 0 0-5.2-9.5-3.9-17.3 0 0-44.1-21.1-75.9 5.4z"/><path id="XMLID_163_" class="st15" d="M164.2 128.3s27.9 39.7 51.2 39.6c0 0-3.7-13.3 3.1-23.8 0 0 .2 22.1 5.2 26.3 0 0 35.6 4.7 47.6-8.4 0 0-4.4-34.6-27.2-36.1 0 0-1.7 6.2-.1 14.4 0 0-6.6-8.7-5.3-16.6 0-.1-42.7-21.9-74.5 4.6z"/><path id="XMLID_162_" d="M171.6 130.9c-.1-1.5 1.5-2.6 3-2.9 1.5-.2 3.1 0 4.6-.5 1.7-.6 3.3-2.4 5-1.9.8.2 1.4.8 2.1 1.1 1.1.5 2.6.3 3.5-.5 1.4-1.2 1.9-3.5 3.7-3.9 2.1-.4 4.1 2.5 6.1 1.6 1.4-.6 1.8-2.8 3.4-3 .4-.1.9.1 1.3.3 1.7.8 2.9 2.5 4.2 3.9s3.2 2.7 5.1 2.1c.7-.2 1.4-.7 2.1-.8 2.2-.1 3 3.3 5.2 3.7 1.7.3 3.2-1.4 4.9-1.7 1.5-.2 2.9.8 3.9 1.9 1.4 1.5 2.4 3.3 3 5.3.6 1.9.8 4.3 2.6 5.3.7.4 1.6.5 2.4.9 1.3.6 2.2 1.8 2.9 3 .8 1.2 1.5 2.5 2.7 3.2 1.2.8 3 .9 3.9-.2.8-.9.7-2.2.8-3.3s.6-2.5 1.8-2.7c1.5-.3 2.6 1.6 4.1 1.5.6 0 1.1-.3 1.7-.4 1.1 0 2 1 2.3 2.1.3 1.1.1 2.3-.4 3.3-.4.6-.9 1.2-1.2 1.8-.6 1.4 0 3 .1 4.5.2 1.5-.5 3.4-2 3.5-1.5.1-2.6-1.7-4.1-1.5-2 .3-1.9 3.5-3.6 4.5-1.2.7-2.8 0-3.8-1.1s-1.5-2.4-2.5-3.4-2.8-1.5-3.8-.5c-.6.6-.7 1.5-1 2.3s-1 1.6-1.8 1.5c-.3-.1-.6-.3-.9-.5-2-1.9-1.5-5.7-3.8-7.1-1-.6-2.4-.6-3.3-1.5-.9-.9-.8-2.4-.9-3.6-.3-3.2-2.4-5.9-4.4-8.5-.3-.4-.6-.7-1-1-1.3-.6-2.7.5-3.5 1.7-.8 1.2-1.5 2.6-2.9 3-1.4.4-3-.7-4.3-.1-1.5.6-1.7 2.7-1.4 4.3.3 1.6.8 3.4 0 4.8-.8 1.3-2.8 1.7-4 .8-1.4-1-2.1-3.4-3.8-3-1.1.3-1.8 1.7-2.8 1.3-.4-.1-.7-.5-.9-.9-1.1-1.7-2-3.5-2.7-5.4-.5-1.4-.9-2.8-1.7-3.9-.8-1.2-2.2-2.1-3.7-1.8-1.2.2-2.2 1.1-3.4 1.2-1.9 0-2.9-2.2-3.6-4-.7-1.8-2-3.9-3.9-3.5-1 .2-1.8 1.2-2.9 1.3-1 .1-1.9-.6-2.6-1.3" style="opacity:.1"/><g id="XMLID_152_" class="st17"><path id="XMLID_161_" class="st18" d="M192.2 154.6c-.2-2.2-1.1-4.7-3.1-5.6-.7-.3-1.5-.4-2.1-.9-.8-.7-.9-2-1.7-2.7-1.1-1-3-.4-4.4-1-1.5-.7-2-2.5-3.3-3.6-1.1-.9-2.7-1.1-4.1-.9 5.1 5.8 11.8 12.8 19.1 18.5-.2-1.2-.2-2.5-.4-3.8z"/><path id="XMLID_160_" class="st18" d="M182.3 122.8c5-1.7 9.9-3.7 14.6-6.1 1-.5 2-1 2.9-1.7-8.6.4-17.7 2.3-26.4 7 1.9 2.3 5.9 1.8 8.9.8z"/><path id="XMLID_159_" class="st18" d="M243.1 132.4c1 1.4 1.4 3.6 3 3.2.9-.2 1.3-1.1 1.6-1.9.7-1.7 1.3-3.5 2-5.2.3-.7.5-1.3.8-2-2.2-1-4.6-1.6-7.2-1.8 0 0-.4 3.2-.2 7.7z"/><path id="XMLID_158_" class="st18" d="M218 124.1c.5.5 1 1.1 1.7 1 1-.1 1.3-1.5 2.1-2 1.5-1 3.3 1 5 1.6 1.4.4 3-.1 4.4.6 1.5.8 1.9 2.7 2.4 4.3.4 1.6 1.4 3.5 3.1 3.6 1.4 0 2.7-1.3 4-1.6-.7-2.7-1-5.7-.5-8.5 0 0-12.5-6-29.1-7.6 2 2.9 4.4 5.8 6.9 8.6z"/><path id="XMLID_157_" class="st18" d="M262 136.3c-.3 1.2-.8 2.3-1.5 3.4-.5.7-1 1.4-1 2.3 0 .8.4 1.5.9 2.2 1.3 1.9 2.6 3.8 3.9 5.8.4.6.9 1.3.8 2.1-.1.7-.6 1.3-.8 1.9-.8 2.3 1.8 5 .4 7-1.1 1.7-3.8 1.1-5.4 2.3-1.2.8-1.6 2.4-2.6 3.4-2.5 2.4-7.6.4-9.7 3.1-.4.6-.7 1.3-.9 2 10.5-.8 21.7-3.1 27.3-9.2-.1-.1-3.1-15.2-11.4-26.3z"/><path id="XMLID_156_" class="st18" d="M235.3 167.6c-1.9-3.7-4.8-6.9-8.2-9.3-2.5-1.7-5.5-2.9-8.4-2.3.4 6.3 1.4 13.2 3.9 15.3 0 0 6.5.7 15 .7-.9-1.3-1.6-2.9-2.3-4.4z"/><path id="XMLID_153_" class="st18" d="M216.9 169.2s-2-5.8-1.9-12.6c-1-.4-1.6-1.6-2.7-1.8-2.6-.5-3.2 4.5-5.8 4.9-1.4.2-2.8-1-4.1-.6-1.7.4-2 2.8-3.3 4 5.9 3.6 12 6.1 17.8 6.1z"/></g><g id="Calque_8_-_copie_7"><path id="XMLID_76_" class="st19" d="M164.4 128.3c28.9-.1 37.7 3.1 48 6.6"/><path id="XMLID_75_" class="st19" d="M250.9 148.9c7.1 2.9 13.4 6 22.4 13.6"/><path id="XMLID_74_" class="st19" d="M254.9 129c-1.9.3-2.8 3.7-2.2 7.4"/><path id="XMLID_73_" class="st19" d="M229.2 118.9c-1.1.2-1.3 3.6-.6 7.7"/><path id="XMLID_72_" class="st19" d="M203.1 114.8c-.4.8-.5 4.1 1.3 7.8"/><path id="XMLID_70_" class="st19" d="M241 172.6c-.7.1-1.9-3.1-2.6-7.2"/><path id="XMLID_68_" class="st19" d="M192.1 158.8c-.7-.3.2-3.6 1.9-7.5"/></g></g></g><g id="Calque_15_-_copie_2"><g id="Calque_2_-_copie_7"><path id="XMLID_131_" class="st13" d="M164.6 131.3s2.3-57.8-16.8-73.8c0 0-5.5 16.9-16.4 22.3 0 0 16.6-18.2 15.4-25 0 0-30.3-29.4-49.2-27 0 0-19.1 36.5-1.5 53.5 0 0 5.1-2.8 9.4-10.6 0 0-3 7.9-9.4 13.4 0-.1 24.3 46.9 68.5 47.2z"/><path id="XMLID_130_" class="st14" d="M161.1 127.9s4-50.2-13.9-65.2c0 0-5.4 14.5-17.4 18.1 0 0 15.5-17.1 14.4-23.5 0 0-26.7-28.2-44.4-25.9 0 0-17.9 32.4-1.5 48.3 0 0 5.4-5 9.5-12.3 0 0-2.1 10.6-8.2 15.8 0-.1 20.1 44.5 61.5 44.7z"/><path id="XMLID_129_" class="st15" d="M161.1 127.9s4.3-48.3-13.6-63.3c0 0-5.8 12.5-17.7 16.2 0 0 14.1-17 13-23.4 0 0-24.1-26.6-41.8-24.3 0 0-18.9 29.3-2.5 45.1 0 0 5.3-3.6 9.3-10.9 0 0-.6 10.9-6.7 16.1 0 0 18.6 44.3 60 44.5z"/><g id="XMLID_120_" class="st17"><path id="XMLID_127_" class="st18" d="M156.6 89.7c-1.2 1.9-2.2 4.3-1.2 6.3.3.7.9 1.3 1 2.1.2 1.1-.6 2.1-.5 3.2.2 1.5 2 2.3 2.7 3.7.7 1.5-.1 3.2.2 4.9.2 1.4 1.3 2.6 2.6 3.3-.1-7.7-.7-17.4-2.6-26.5-.7 1-1.5 2-2.2 3z"/><path id="XMLID_126_" class="st18" d="M143.7 120.4c-4.9-2-10-3.6-15.1-4.8-1.1-.3-2.2-.5-3.3-.6 6.8 5.2 15.1 9.6 24.7 11.6-.1-2.8-3.4-5-6.3-6.2z"/><path id="XMLID_125_" class="st18" d="M103.4 73.9c.2-1.7 1.2-3.6-.2-4.4-.8-.4-1.7 0-2.5.4-1.6.9-3.2 1.8-4.9 2.7-.6.3-1.3.7-1.9 1 1.1 2.2 2.5 4.2 4.4 6 0 .1 2.3-2.1 5.1-5.7z"/><path id="XMLID_124_" class="st18" d="M117.2 96.5c0-.7-.1-1.5-.7-1.8-.8-.5-1.9.3-2.9.2-1.8-.2-1.9-2.9-2.9-4.4-.8-1.2-2.4-1.9-3-3.3-.7-1.6.2-3.3 1-4.8.7-1.5 1.2-3.6-.1-4.7-1.1-.9-2.9-.8-4.1-1.3-1.2 2.5-2.9 5-5 6.8 0 0 5.7 12.7 17.3 24.5.4-3.8.5-7.5.4-11.2z"/><path id="XMLID_123_" class="st18" d="M91.4 58.8c1-.7 2.1-1.3 3.3-1.6.8-.2 1.7-.4 2.2-1.1.5-.6.6-1.4.7-2.2.3-2.3.5-4.6.8-6.9.1-.8.2-1.6.8-2.1.5-.5 1.2-.6 1.8-1 2.1-1.3 1.9-5 4.2-5.6 1.9-.6 3.6 1.6 5.6 1.8 1.5.1 2.8-.8 4.2-.9 3.5-.2 6 4.6 9.5 3.9.7-.1 1.3-.5 2-.9-8.5-6.2-18.6-11.6-26.8-10.6 0-.2-7.4 13.3-8.3 27.2z"/><path id="XMLID_122_" class="st18" d="M132.1 52c-.9 4.1-.8 8.4.3 12.4.8 2.9 2.4 5.7 4.9 7.1 3.8-5.1 7.4-11 6.8-14.2 0 0-4.5-4.7-11-10.2-.1 1.7-.7 3.3-1 4.9z"/><path id="XMLID_121_" class="st18" d="M147.1 62.7s-2.2 5.7-6.7 10.9c.5 1 .2 2.3.9 3.1 1.7 2.1 5.3-1.4 7.6 0 1.2.7 1.5 2.5 2.7 3.1 1.6.8 3.3-.8 5.1-.9-2.1-6.7-5.1-12.5-9.6-16.2z"/></g><g id="Calque_8_-_copie_6"><path id="XMLID_65_" class="st19" d="M160.9 127.8c-22.2-18.6-26.8-26.7-32.5-36"/><path id="XMLID_64_" class="st19" d="M108.1 56.3c-3.6-6.8-6.4-13.2-8.3-24.8"/><path id="XMLID_63_" class="st19" d="M92.2 68.9c1.6 1 4.5-1 6.5-4.3"/><path id="XMLID_62_" class="st19" d="M105.3 93.1c.9.5 3.4-1.9 5.4-5.5"/><path id="XMLID_61_" class="st19" d="M122.6 113.2c.8-.4 3-2.8 4.1-6.8"/><path id="XMLID_58_" class="st19" d="M130.9 44.5c.6.4-.6 3.6-2.7 7.2"/><path id="XMLID_56_" class="st19" d="M159.4 86.6c.3.7-2.5 2.7-6.3 4.5"/></g></g></g><g id="Calque_15_-_copie"><g id="Calque_2_-_copie_6"><path id="XMLID_98_" class="st13" d="M158.9 132.2s56.6-11.4 67.6-33.7c0 0-17.7-1.3-25.5-10.6 0 0 21.6 11.8 27.9 9 0 0 21.4-36.4 14.6-54.1 0 0-39.9-9.9-52.2 11.1 0 0 4 4.3 12.5 6.6 0 0-8.4-1-15.3-6 0 .1-39.8 34.8-29.6 77.7z"/><path id="XMLID_90_" class="st14" d="M161.3 128.1s49.7-8.1 60.1-29c0 0-15.3-1.9-21.7-12.6 0 0 20.3 11 26.2 8.4 0 0 21.1-32.6 14.7-49.3 0 0-35.7-9.7-47.2 10 0 0 6.2 4.1 14.2 6.3 0 0-10.8.5-17.3-4.2-.1 0-38.6 30.1-29 70.4z"/><path id="XMLID_67_" class="st15" d="M161.3 128.1s47.9-7.3 58.3-28.2c0 0-13.6-2.6-19.9-13.4 0 0 19.9 9.6 25.8 7.1 0 0 20.1-29.7 13.7-46.4 0 0-32.9-11.5-44.4 8.2 0 0 4.8 4.3 12.8 6.5 0 0-10.7 2-17.2-2.7-.1 0-38.7 28.6-29.1 68.9z"/><g id="XMLID_40_" class="st17"><path id="XMLID_54_" class="st18" d="M197.3 114.6c-2.1-.8-4.7-1.1-6.4.3-.6.5-1.1 1.2-1.8 1.5-1 .4-2.2-.1-3.2.3-1.4.5-1.7 2.5-2.9 3.5-1.3 1-3.2.7-4.7 1.4-1.3.6-2.2 1.9-2.6 3.3 7.5-1.9 16.7-4.8 25.1-8.8-1.2-.5-2.3-1-3.5-1.5z"/><path id="XMLID_53_" class="st18" d="M164.4 109.4c.8-5.2 1.1-10.5 1.1-15.8 0-1.1 0-2.2-.2-3.3-3.5 7.9-5.8 16.9-5.5 26.7 2.8-.7 4.2-4.5 4.6-7.6z"/><path id="XMLID_52_" class="st18" d="M200 59.2c1.7-.3 3.8.3 4.2-1.2.2-.8-.4-1.7-1-2.3-1.3-1.4-2.5-2.7-3.8-4.1-.5-.5-1-1.1-1.4-1.6-1.9 1.5-3.5 3.4-4.8 5.7 0-.1 2.7 1.7 6.8 3.5z"/><path id="XMLID_51_" class="st18" d="M181.4 78c.7-.2 1.4-.5 1.6-1.1.3-.9-.7-1.8-.9-2.8-.3-1.8 2.3-2.5 3.6-3.8 1-1.1 1.3-2.8 2.5-3.6 1.3-1 3.2-.5 4.9-.2 1.7.3 3.8.3 4.6-1.2.7-1.3.1-3 .3-4.3-2.7-.6-5.5-1.6-7.8-3.3 0 0-11 8.6-19.7 22.7 3.7-.6 7.3-1.4 10.9-2.4z"/><path id="XMLID_50_" class="st18" d="M211.9 44c.9.8 1.7 1.8 2.4 2.8.4.7.8 1.5 1.6 1.9.7.4 1.6.3 2.3.2l6.9-.9c.8-.1 1.6-.2 2.3.2.6.4.9 1.1 1.4 1.5 1.7 1.7 5.3.7 6.5 2.7 1 1.7-.7 3.9-.4 5.9.2 1.4 1.5 2.5 1.9 3.9 1 3.4-3 6.9-1.5 10.1.3.7.8 1.2 1.3 1.7 4-9.7 6.9-20.8 3.9-28.5 0 .1-14.9-3.9-28.6-1.5z"/><path id="XMLID_49_" class="st18" d="M228.1 81.9c-4.2 0-8.3 1.2-11.9 3.2-2.6 1.5-5 3.7-5.8 6.5 5.8 2.4 12.4 4.6 15.4 3.3 0 0 3.5-5.5 7.3-13.1-1.6.2-3.3.1-5 .1z"/><path id="XMLID_48_" class="st18" d="M221.3 99.1s-6.1-.7-12.1-3.9c-.8.7-2.1.8-2.8 1.6-1.6 2.1 2.6 4.8 1.8 7.4-.4 1.3-2.1 2-2.4 3.4-.4 1.7 1.6 3.1 2.1 4.8 5.9-3.8 10.9-8.2 13.4-13.3z"/></g><g id="Calque_8_-_copie_5"><path id="XMLID_60_" class="st19" d="M161.3 127.9c12.8-25.9 19.6-32.4 27.3-40.1"/><path id="XMLID_46_" class="st19" d="M218.3 59.6c5.8-5.1 11.3-9.4 22.2-14"/><path id="XMLID_45_" class="st19" d="M202.3 47.2c-.5 1.8 2 4.2 5.7 5.3"/><path id="XMLID_44_" class="st19" d="M181.8 65.6c-.3 1 2.7 2.8 6.6 4"/><path id="XMLID_31_" class="st19" d="M166.5 87.2c.6.7 3.5 2.3 7.6 2.3"/><path id="XMLID_6_" class="st19" d="M235.2 79c-.2.7-3.6.3-7.7-.9"/><path id="XMLID_4_" class="st19" d="M201 116.6c-.6.5-3.2-1.8-5.8-5"/></g></g></g></g></g></svg>