<svg version="1.0" xmlns="http://www.w3.org/2000/svg" width="300" height="260" style="enable-background:new 0 0 300 260" xml:space="preserve"><style>.st0{display:none}.st2,.st6{display:inline}.st6{fill:#fff}.st10,.st13,.st15{fill:none;stroke:#fff;stroke-miterlimit:10}.st10{display:inline;stroke-width:7}.st13,.st15{stroke-width:17}.st15{opacity:.67;stroke:#262262;stroke-width:11}.st17{opacity:.92}.st18{opacity:.44;fill:#020202}.st23,.st24{display:inline;fill:#414042;stroke:#282828;stroke-miterlimit:10}.st24{fill:#49484a;stroke:#262626;stroke-width:.5}.st28{opacity:.53;fill:#fff}.st31{fill:#58595b}.st33,.st42{fill:none;stroke:#414042;stroke-width:.5;stroke-miterlimit:10}.st42{fill:#6d6e71}.st43{opacity:.81}.st44{opacity:.28;fill:#fff}.st51{fill:#515151;stroke:#262626;stroke-miterlimit:10}.st52{opacity:.25;fill:#232323}</style><g id="crash"><g id="debris"><g id="Calque_21"><circle id="XMLID_52_" class="st42" cx="87.3" cy="41" r="11.3"/><circle id="XMLID_108_" class="st43" cx="87.3" cy="41" r="9.3"/><path id="XMLID_53_" class="st42" d="M86 27.7h2.7v26.5H86z"/><path id="XMLID_56_" transform="rotate(-45.001 87.333 41.001)" class="st42" d="M86 27.7h2.7v26.5H86z"/><path id="XMLID_54_" class="st42" d="M74.1 39.7h26.5v2.7H74.1z"/><path id="XMLID_55_" transform="rotate(-134.999 87.334 41)" class="st42" d="M86 27.7h2.7v26.5H86z"/><circle id="XMLID_57_" class="st42" cx="87.3" cy="41" r="8.2"/><path id="XMLID_58_" class="st44" d="M84.6 46.4s1.4-4.6 1.5-4.7c.1-.1-.7-3.6-.7-3.6s1.2 3.3 1.3 3.4 5.4 1.8 5.4 1.8l-5.7-1.4-1.8 4.5z"/><linearGradient id="XMLID_156_" gradientUnits="userSpaceOnUse" x1="89.508" y1="44.1" x2="89.508" y2="33.26"><stop offset="0" style="stop-color:#fff"/><stop offset="1" style="stop-color:#fff;stop-opacity:0"/></linearGradient><path id="XMLID_105_" d="M86.7 41.5 83.9 34s3.5-1.8 7.1.1c2.5 1.3 3.8 3.3 4 6 .1.6.1 1.3 0 2-.1.6-.4 1.3-.5 2l-7.8-2.6z" style="opacity:.26;fill:url(#XMLID_156_)"/><linearGradient id="XMLID_157_" gradientUnits="userSpaceOnUse" x1="79.664" y1="41.098" x2="85.813" y2="41.098"><stop offset="0" style="stop-color:#fff"/><stop offset="1" style="stop-color:#fff;stop-opacity:0"/></linearGradient><path id="XMLID_106_" d="m85.8 42-1.6 5.8s-3.1-.7-4.1-4.6c-.7-2.7-.4-4.3.8-6.5.3-.6 1.8-1.9 2.4-2.3.5-.4 2.2 3.8 2.2 3.8l.3 3.8z" style="opacity:.33;fill:url(#XMLID_157_)"/></g><g id="Calque_21_-_copie"><circle id="XMLID_68_" class="st42" cx="254.7" cy="100.7" r="11.3"/><circle id="XMLID_67_" class="st43" cx="254.7" cy="100.7" r="9.3"/><path id="XMLID_65_" transform="rotate(32.563 254.685 100.672)" class="st42" d="M253.3 87.4h2.7v26.5h-2.7z"/><path id="XMLID_64_" transform="rotate(-12.439 254.607 100.651)" class="st42" d="M253.3 87.4h2.7v26.5h-2.7z"/><path id="XMLID_63_" transform="rotate(-57.439 254.657 100.672)" class="st42" d="M253.3 87.4h2.7v26.5h-2.7z"/><path id="XMLID_62_" transform="scale(-1) rotate(77.561 125.301 -316.962)" class="st42" d="M253.3 87.4h2.7v26.5h-2.7z"/><circle id="XMLID_61_" class="st42" cx="254.7" cy="100.7" r="8.2"/><path id="XMLID_60_" class="st44" d="M249.5 103.7s3.7-3.1 3.8-3.1 1.4-3.4 1.4-3.4-.8 3.4-.7 3.5c0 .2 3.6 4.5 3.6 4.5l-4.1-4.3-4 2.8z"/><linearGradient id="XMLID_158_" gradientUnits="userSpaceOnUse" x1="256.841" y1="103.767" x2="256.841" y2="92.926" gradientTransform="rotate(32.563 254.685 100.672)"><stop offset="0" style="stop-color:#fff"/><stop offset="1" style="stop-color:#fff;stop-opacity:0"/></linearGradient><path id="XMLID_59_" d="m253.9 100.8 1.7-7.8s3.9.3 5.9 3.9c1.4 2.4 1.4 4.9.2 7.2-.3.6-.6 1.2-1.1 1.7-.4.5-1.1.8-1.5 1.4l-5.2-6.4z" style="opacity:.26;fill:url(#XMLID_158_)"/><linearGradient id="XMLID_159_" gradientUnits="userSpaceOnUse" x1="246.997" y1="100.764" x2="253.146" y2="100.764" gradientTransform="rotate(32.563 254.685 100.672)"><stop offset="0" style="stop-color:#fff"/><stop offset="1" style="stop-color:#fff;stop-opacity:0"/></linearGradient><path id="XMLID_48_" d="m252.9 100.7-4.5 4.1s-2.2-2.2-1-6.1c.8-2.6 2-3.8 4.2-5 .6-.3 2.6-.6 3.3-.6.7 0-.2 4.3-.2 4.3l-1.8 3.3z" style="opacity:.33;fill:url(#XMLID_159_)"/></g><g id="Calque_21_-_copie_2"><circle id="XMLID_117_" class="st42" cx="233.6" cy="197" r="11.3"/><circle id="XMLID_116_" class="st43" cx="233.6" cy="197" r="9.3"/><path id="XMLID_115_" transform="rotate(53.971 233.602 196.958)" class="st42" d="M232.3 183.7h2.7v26.5h-2.7z"/><path id="XMLID_114_" transform="rotate(8.969 233.615 196.98)" class="st42" d="M232.3 183.7h2.7v26.5h-2.7z"/><path id="XMLID_113_" transform="rotate(-36.031 233.6 196.97)" class="st42" d="M232.3 183.7h2.7v26.5h-2.7z"/><path id="XMLID_73_" transform="rotate(-81.031 233.589 196.957)" class="st42" d="M232.3 183.7h2.7v26.5h-2.7z"/><circle id="XMLID_72_" class="st42" cx="233.6" cy="197" r="8.2"/><path id="XMLID_71_" class="st44" d="M227.6 197.9s4.5-1.5 4.7-1.5 2.5-2.6 2.5-2.6-2 2.9-2 3c0 .2 1.7 5.5 1.7 5.5l-2.2-5.5-4.7 1.1z"/><linearGradient id="XMLID_160_" gradientUnits="userSpaceOnUse" x1="290.915" y1="196.263" x2="290.915" y2="185.423" gradientTransform="rotate(53.971 257.442 140.912)"><stop offset="0" style="stop-color:#fff"/><stop offset="1" style="stop-color:#fff;stop-opacity:0"/></linearGradient><path id="XMLID_70_" d="m232.8 196.8 4.4-6.7s3.5 1.7 4.1 5.8c.4 2.8-.5 5-2.5 6.8-.5.4-1 .9-1.6 1.2-.6.3-1.3.4-1.9.7l-2.5-7.8z" style="opacity:.26;fill:url(#XMLID_160_)"/><linearGradient id="XMLID_161_" gradientUnits="userSpaceOnUse" x1="281.072" y1="193.261" x2="287.22" y2="193.261" gradientTransform="rotate(53.971 257.442 140.912)"><stop offset="0" style="stop-color:#fff"/><stop offset="1" style="stop-color:#fff;stop-opacity:0"/></linearGradient><path id="XMLID_69_" d="m231.9 196.3-5.7 2.1s-1.3-2.9 1.3-6.1c1.7-2.2 3.2-2.9 5.7-3.1.6-.1 2.6.4 3.3.6.6.2-1.8 4-1.8 4l-2.8 2.5z" style="opacity:.33;fill:url(#XMLID_161_)"/></g><g id="Calque_24"><path id="XMLID_66_" class="st51" d="M122.5 189.9s-1.9-1-5-2.6c-1.6-.8-3.5-1.8-5.6-2.8-8.6-3.2-16.9-2.4-25.7-3.2-13.4-1.7-16.8-16.3-26.7-23.5-2.9-2-5.7-13.5-5.7-13.5l6.5-.8s-.4 5.5 2.6 7.4c3.3 1.8 5.6 4.4 7.9 7 5.4 7.7 11.7 16.6 21.7 16.6 7.7.3 15.7 0 22.7 3.4 2.2 1 4 2 5.6 2.8 3.1 1.6 5 2.6 5 2.6l-3.3 6.6z"/><path id="XMLID_77_" class="st52" d="M115.2 177.9c-7-3.4-15-3.2-22.7-3.4-10 0-16.3-8.9-21.7-16.6-2.3-2.6-4.6-5.1-7.9-7-3-1.8-2.6-7.4-2.6-7.4l-3.8.4c1 3.6 4.6 7.9 6.5 9.2 9.9 7.2 13.4 22.2 26.8 23.9 8.8.9 15.1 1.4 23.7 4.6 2.2 1 3.3 2.2 4.9 3 3.1 1.6 5.1 3.2 5.1 3.2l2.3-4.7s-1.9-1-5-2.6c-1.6-.6-3.5-1.5-5.6-2.6z"/><linearGradient id="XMLID_162_" gradientUnits="userSpaceOnUse" x1="56.612" y1="153.311" x2="64.125" y2="153.311"><stop offset="0" style="stop-color:#fff"/><stop offset="1" style="stop-color:#fff;stop-opacity:0"/></linearGradient><path id="XMLID_119_" d="M60.9 149.5c-.4.3-.9.8-1.6 1.1-1.1.5-2.1.6-2.7.7.2 1 .5 2.5 1.5 4.1.7 1.2 1 1.7 1.6 1.8 1.9.3 4.4-4.9 4.4-4.9 0-.1-2.5-.9-3.2-2.8z" style="opacity:.64;fill:url(#XMLID_162_)"/><linearGradient id="XMLID_163_" gradientUnits="userSpaceOnUse" x1="78.449" y1="177.708" x2="88.975" y2="177.708" gradientTransform="rotate(-17.099 82.594 175.684)"><stop offset="0" style="stop-color:#fff"/><stop offset="1" style="stop-color:#fff;stop-opacity:0"/></linearGradient><path id="XMLID_121_" d="M84.3 173c-.4.7-1.1 1.8-2.2 2.9-1.2 1.1-2.4 1.7-3.2 2 .7.5 1.8 1.2 3.2 1.8 2.2.9 4.2 1.7 5.5.8 1.4-.9 1.9-3.2 1.3-5.7.1-.1-2.8-.6-4.6-1.8z" style="opacity:.64;fill:url(#XMLID_163_)"/><linearGradient id="XMLID_164_" gradientUnits="userSpaceOnUse" x1="99.666" y1="187.411" x2="110.078" y2="187.411" gradientTransform="rotate(150.204 106.669 183.945)"><stop offset="0" style="stop-color:#fff"/><stop offset="1" style="stop-color:#fff;stop-opacity:0"/></linearGradient><path id="XMLID_122_" d="M109.9 183.3c0-.9 0-2 .2-3.3.1-1.2.4-2.2.6-3.1-4.5-1.7-6.4-1.1-7.2-.3-1.1.9-2 5.1-2 5.1s6.2.8 8.4 1.6z" style="opacity:.64;fill:url(#XMLID_164_)"/></g><g id="Calque_24_-_copie"><path id="XMLID_124_" class="st51" d="M181.7 14.5s1.2 1.7 3.3 4.6c1 1.4 2.3 3.1 3.8 5 6.2 6.7 14 9.7 21.5 14.4 11.2 7.6 7.7 22.1 13.3 33 1.7 3.1-1 14.6-1 14.6l-6.1-2.3s2.9-4.8 1-7.8c-2.1-3.1-3-6.4-3.9-9.7-1.4-9.3-3-20-11.9-24.5-6.7-3.7-14-7.1-18.8-13.3-1.5-1.9-2.7-3.6-3.7-5-2.1-2.9-3.3-4.6-3.3-4.6l5.8-4.4z"/><path id="XMLID_123_" class="st52" d="M182.9 28.5c4.7 6.2 12 9.6 18.8 13.3 8.9 4.5 10.5 15.2 11.9 24.5.9 3.3 1.8 6.6 3.9 9.7 1.9 3-1 7.8-1 7.8l3.6 1.3c.7-3.7-.5-9.1-1.6-11.2-5.6-10.9-2-25.8-13.2-33.4-7.5-4.7-12.9-8-19.1-14.8-1.5-1.9-1.9-3.5-3-4.9-2.1-2.9-3.1-5.2-3.1-5.2l-4.2 3.1s1.2 1.7 3.3 4.6c.9 1.6 2.2 3.3 3.7 5.2z"/><linearGradient id="XMLID_165_" gradientUnits="userSpaceOnUse" x1="185.224" y1="52.99" x2="192.737" y2="52.99" gradientTransform="rotate(-153.25 207.483 60.301)"><stop offset="0" style="stop-color:#fff"/><stop offset="1" style="stop-color:#fff;stop-opacity:0"/></linearGradient><path id="XMLID_120_" d="M218.5 78.3c.5-.1 1.1-.3 1.9-.3 1.2 0 2.2.4 2.7.6.3-.9.6-2.4.5-4.3-.1-1.3-.1-2-.6-2.4-1.6-1.1-6.2 2.4-6.2 2.4.1.2 1.9 2 1.7 4z" style="opacity:.64;fill:url(#XMLID_165_)"/><linearGradient id="XMLID_166_" gradientUnits="userSpaceOnUse" x1="230.873" y1="119.634" x2="241.398" y2="119.634" gradientTransform="scale(-1) rotate(9.648 976.394 -2605.773)"><stop offset="0" style="stop-color:#fff"/><stop offset="1" style="stop-color:#fff;stop-opacity:0"/></linearGradient><path id="XMLID_76_" d="M208.2 46.8c.7-.5 1.8-1.1 3.3-1.6 1.6-.4 2.9-.4 3.8-.4-.4-.8-1.1-1.9-2.1-3-1.5-1.7-3-3.4-4.6-3.2-1.6.2-3.1 2.1-3.7 4.6-.1 0 2.2 1.8 3.3 3.6z" style="opacity:.64;fill:url(#XMLID_166_)"/><linearGradient id="XMLID_167_" gradientUnits="userSpaceOnUse" x1="-61.793" y1="210.571" x2="-51.382" y2="210.571" gradientTransform="matrix(.9986 -.05315 .05315 .9986 236.853 -182.76)"><stop offset="0" style="stop-color:#fff"/><stop offset="1" style="stop-color:#fff;stop-opacity:0"/></linearGradient><path id="XMLID_75_" d="M189.9 26.1c-.4.9-.9 1.8-1.6 2.8-.7 1-1.3 1.8-2 2.5 3.3 3.6 5.2 3.8 6.3 3.5 1.4-.4 4.1-3.7 4.1-3.7s-5.1-3.4-6.8-5.1z" style="opacity:.64;fill:url(#XMLID_167_)"/></g></g></g></svg>