<?xml version="1.0" encoding="utf-8"?>
<!-- Generator: Adobe Illustrator 19.0.0, SVG Export Plug-In . SVG Version: 6.00 Build 0)  -->
<svg version="1.0" xmlns="http://www.w3.org/2000/svg" xmlns:xlink="http://www.w3.org/1999/xlink" x="0px" y="0px" width="300px" height="260px"
	 viewBox="0 0 300 260" style="enable-background:new 0 0 300 260;" xml:space="preserve">
<style type="text/css">
	.st0{fill:url(#XMLID_61_);}
	.st1{opacity:0.15;fill:url(#XMLID_62_);}
	.st2{opacity:0.15;fill:url(#XMLID_90_);}
	.st3{opacity:0.5;fill:url(#XMLID_113_);}
	.st4{fill:url(#XMLID_114_);}
	.st5{opacity:0.5;fill:url(#XMLID_115_);}
	.st6{fill:url(#XMLID_116_);}
	.st7{opacity:0.5;fill:url(#XMLID_117_);}
	.st8{fill:url(#XMLID_118_);}
	.st9{fill:url(#XMLID_119_);}
	.st10{opacity:0.75;}
	.st11{opacity:0.5;fill:url(#XMLID_120_);}
	.st12{opacity:0.5;fill:url(#XMLID_121_);}
	.st13{fill:url(#XMLID_122_);}
	.st14{opacity:0.5;fill:url(#XMLID_123_);}
	.st15{opacity:0.5;fill:url(#XMLID_124_);}
	.st16{opacity:0.3;}
	.st17{fill:#353535;}
	.st18{fill:url(#XMLID_125_);}
	.st19{opacity:0.6;fill:url(#XMLID_126_);}
	.st20{fill:url(#XMLID_127_);}
	.st21{fill:#CCCCCC;}
	.st22{opacity:0.5;fill:#E5E5E5;}
	.st23{fill:#675B47;stroke:#353535;stroke-width:3;stroke-miterlimit:10;}
	.st24{fill:url(#XMLID_128_);}
	.st25{opacity:0.5;fill:url(#XMLID_129_);}
	.st26{opacity:0.5;fill:#FFFFFF;}
	.st27{fill:url(#XMLID_130_);}
	.st28{fill:url(#XMLID_131_);}
	.st29{fill:url(#XMLID_132_);}
	.st30{opacity:0.5;fill:url(#XMLID_133_);}
	.st31{fill:url(#XMLID_134_);}
	.st32{fill:url(#XMLID_135_);}
	.st33{fill:url(#XMLID_136_);}
	.st34{opacity:0.5;fill:url(#XMLID_137_);}
	.st35{fill:url(#XMLID_138_);}
	.st36{fill:url(#XMLID_139_);}
	.st37{fill:url(#XMLID_140_);}
	.st38{opacity:0.5;fill:url(#XMLID_141_);}
	.st39{fill:url(#XMLID_142_);}
	.st40{fill:url(#XMLID_143_);}
	.st41{fill:url(#XMLID_144_);}
	.st42{opacity:0.5;fill:url(#XMLID_145_);}
	.st43{fill:url(#XMLID_146_);}
	.st44{fill:url(#XMLID_147_);}
	.st45{fill:url(#XMLID_148_);}
	.st46{opacity:0.5;fill:url(#XMLID_149_);}
	.st47{fill:url(#XMLID_150_);}
	.st48{fill:url(#XMLID_151_);}
</style>
<g id="border_-_copie">
	<g id="keepit">
		<g id="XMLID_22_">
			<radialGradient id="XMLID_61_" cx="150" cy="130" r="111.296" gradientUnits="userSpaceOnUse">
				<stop  offset="0" style="stop-color:#D6D5D5"/>
				<stop  offset="0.3213" style="stop-color:#D4D3D2"/>
				<stop  offset="0.5416" style="stop-color:#CCCACA"/>
				<stop  offset="0.7315" style="stop-color:#BEBDBD"/>
				<stop  offset="0.9032" style="stop-color:#ACABAB"/>
				<stop  offset="1" style="stop-color:#9F9E9E"/>
			</radialGradient>
			<path id="XMLID_23_" class="st0" d="M198.7,233l-97.6-0.2c-7.6,0-14.7-4-18.5-10.4l-48.7-82.2c-3.8-6.5-3.8-14.4,0-20.8
				l48.9-82.2C86.6,30.9,93.7,27,101.3,27l97.6,0.2c7.6,0,14.7,4,18.5,10.4l48.7,82.2c3.8,6.5,3.8,14.4,0,20.8l-48.9,82.2
				C213.4,229,206.3,233,198.7,233z"/>
		</g>
		<radialGradient id="XMLID_62_" cx="192.0361" cy="193.3179" r="53.0478" gradientUnits="userSpaceOnUse">
			<stop  offset="0" style="stop-color:#959698"/>
			<stop  offset="0.3213" style="stop-color:#959697"/>
			<stop  offset="0.5416" style="stop-color:#939494"/>
			<stop  offset="0.7315" style="stop-color:#8F9090"/>
			<stop  offset="0.9032" style="stop-color:#89898A"/>
			<stop  offset="1" style="stop-color:#848484"/>
		</radialGradient>
		<path id="XMLID_58_" class="st1" d="M251.1,156.1c-3.5-1.6-7.5-3.2-11.2-2.1c-4.3,1.3-7,5.8-11.4,6.9c-2.3,0.6-4.9,0.2-6.8,1.6
			c-1.2,0.9-1.8,2.3-3,3.1c-2.4,1.7-5.6,0.5-8.2-0.9c-2.9-1.6-5.6-3.3-8.3-5.2c-2-1.5-4-3.1-6.5-3.8c-2.4-0.7-5.4-0.2-6.8,1.9
			c-0.9,1.3-1,3-1.8,4.3c-1.8,3.1-6.1,3.3-9.6,3.2c-1.2,0-2.6-0.1-3.6-0.8c-2.3-1.6-1.9-5.3-3.9-7.3c-2.4-2.4-6.7-0.7-8.9,1.9
			s-3.7,6-6.7,7.6c-3.7,2-8.5,0.9-12,3.2c-5.2,3.5-3.5,12-7.4,16.9c-1.3,1.7-3.2,2.8-4.5,4.5c-2.2,2.7-2.6,6.6-1.8,10
			c0.8,3.4,2.6,6.5,4.5,9.4c1.8,2.7,3.7,6.2,1.9,8.9c-0.6,0.9-1.6,1.6-2.3,2.4c-2,2.5-1.1,6.2-1,9.5c0,0.5,0,1,0,1.5l66.9,0.1
			c7.6,0,14.7-4,18.6-10.4l38.4-64.6C254.2,157.4,252.6,156.7,251.1,156.1z"/>
		<radialGradient id="XMLID_90_" cx="138.4097" cy="116.8781" r="99.0406" gradientUnits="userSpaceOnUse">
			<stop  offset="0" style="stop-color:#959698"/>
			<stop  offset="0.3213" style="stop-color:#959697"/>
			<stop  offset="0.5416" style="stop-color:#939494"/>
			<stop  offset="0.7315" style="stop-color:#8F9090"/>
			<stop  offset="0.9032" style="stop-color:#89898A"/>
			<stop  offset="1" style="stop-color:#848484"/>
		</radialGradient>
		<path id="XMLID_59_" class="st2" d="M217.4,37.5c-3.8-6.4-10.8-10.4-18.5-10.4L101.3,27c-7.6,0-14.7,3.9-18.6,10.4l-48.9,82.2
			c-3.8,6.5-3.8,14.4,0,20.8l39.4,66.4c5.8-0.9,13.8-0.8,14.9-6.6c0.3-1.4,0-3,0.3-4.4c1.6-9.2,19.1-5.2,22.4-13.9
			c2-5.4-3.2-12.4,0.7-16.6c0.9-1,2.1-1.6,2.8-2.6c2.6-3.7-2.6-8.2-7.1-8.4c-4.5-0.2-9.4,1.4-13.2-0.9c-6.7-4.1-3-14.4-4.4-22.1
			c-0.9-4.6-3.8-8.6-5.9-12.8c-2.1-4.2-3.2-9.6-0.5-13.5c1.1-1.5,2.6-2.6,3.7-4.2c3.6-5.4-0.7-12.6-0.1-19.1
			c0.7-7.5,9.4-13.1,16.6-10.6c6.9,2.5,11.2,10.8,18.5,11.4c4,0.4,8.1-1.7,11.8-0.4c2.7,0.9,4.4,3.3,6.5,5.3
			c6.9,6.6,18.3,7.9,26.6,3c1.4-0.8,2.7-1.8,4.2-2c3.5-0.4,6.2,3.1,9.4,4.5c8.7,3.8,17.6-8.1,27-6.5c5.4,0.9,9.6,6.2,15.1,6.1
			c5.3-0.1,9.6-5.3,14.9-5.2c2.6,0,5.7,1.2,7.6-0.6c0.4-0.4,0.6-0.8,0.8-1.3L217.4,37.5z"/>
	</g>
	<g id="Calque_14">
		<g id="Calque_13">
			<linearGradient id="XMLID_113_" gradientUnits="userSpaceOnUse" x1="90.1954" y1="69.0443" x2="106.3151" y2="69.0443">
				<stop  offset="0" style="stop-color:#FFFFFF;stop-opacity:0"/>
				<stop  offset="1" style="stop-color:#FFFFFF"/>
			</linearGradient>
			<path id="XMLID_47_" class="st3" d="M90.3,51.5c0,0-2.3,20.4,16,35C106.3,86.5,106.7,61.3,90.3,51.5z M91.9,55.2
				c11.3,7.8,12.7,27.8,12.7,27.8C91.9,70.9,91.9,55.2,91.9,55.2z"/>
			<radialGradient id="XMLID_114_" cx="98.3013" cy="69.0443" r="10.7908" gradientUnits="userSpaceOnUse">
				<stop  offset="0" style="stop-color:#959698"/>
				<stop  offset="0.3213" style="stop-color:#959697"/>
				<stop  offset="0.5416" style="stop-color:#939494"/>
				<stop  offset="0.7315" style="stop-color:#8F9090"/>
				<stop  offset="0.9032" style="stop-color:#89898A"/>
				<stop  offset="1" style="stop-color:#848484"/>
			</radialGradient>
			<path id="XMLID_41_" class="st4" d="M91.9,55.2c0,0,0,15.8,12.7,27.8C104.7,82.9,103.2,62.9,91.9,55.2z"/>
		</g>
		<g id="Calque_13_-_copie">
			
				<linearGradient id="XMLID_115_" gradientUnits="userSpaceOnUse" x1="113.7057" y1="103.1932" x2="129.8254" y2="103.1932" gradientTransform="matrix(0.7414 -0.6711 0.6711 0.7414 -75.715 173.7476)">
				<stop  offset="0" style="stop-color:#FFFFFF;stop-opacity:0"/>
				<stop  offset="1" style="stop-color:#FFFFFF"/>
			</linearGradient>
			<path id="XMLID_36_" class="st5" d="M66.2,160.9c0,0,12,16.6,35.4,15.2C101.5,176.1,84.8,157.1,66.2,160.9z M69.8,162.5
				c13.6-1.8,28,12,28,12C80.4,174.2,69.8,162.5,69.8,162.5z"/>
			
				<radialGradient id="XMLID_116_" cx="121.8115" cy="103.1932" r="10.7908" gradientTransform="matrix(0.7414 -0.6711 0.6711 0.7414 -75.715 173.7476)" gradientUnits="userSpaceOnUse">
				<stop  offset="0" style="stop-color:#959698"/>
				<stop  offset="0.3213" style="stop-color:#959697"/>
				<stop  offset="0.5416" style="stop-color:#939494"/>
				<stop  offset="0.7315" style="stop-color:#8F9090"/>
				<stop  offset="0.9032" style="stop-color:#89898A"/>
				<stop  offset="1" style="stop-color:#848484"/>
			</radialGradient>
			<path id="XMLID_35_" class="st6" d="M69.8,162.5c0,0,10.5,11.7,28,12C97.9,174.5,83.4,160.6,69.8,162.5z"/>
		</g>
		<g id="Calque_13_-_copie_2">
			
				<linearGradient id="XMLID_117_" gradientUnits="userSpaceOnUse" x1="204.857" y1="176.7179" x2="220.9768" y2="176.7179" gradientTransform="matrix(0.2924 0.9563 -0.9563 0.2924 315.5067 -70.7139)">
				<stop  offset="0" style="stop-color:#FFFFFF;stop-opacity:0"/>
				<stop  offset="1" style="stop-color:#FFFFFF"/>
			</linearGradient>
			<path id="XMLID_6_" class="st7" d="M223.2,171.8c0,0-20.2,3.8-28.8,25.6C194.4,197.4,218.7,190.3,223.2,171.8z M220.2,174.5
				c-4.1,13.1-22.8,20.3-22.8,20.3C205.1,179,220.2,174.5,220.2,174.5z"/>
			
				<radialGradient id="XMLID_118_" cx="212.9629" cy="176.7179" r="10.7908" gradientTransform="matrix(0.2924 0.9563 -0.9563 0.2924 315.5067 -70.7139)" gradientUnits="userSpaceOnUse">
				<stop  offset="0" style="stop-color:#959698"/>
				<stop  offset="0.3213" style="stop-color:#959697"/>
				<stop  offset="0.5416" style="stop-color:#939494"/>
				<stop  offset="0.7315" style="stop-color:#8F9090"/>
				<stop  offset="0.9032" style="stop-color:#89898A"/>
				<stop  offset="1" style="stop-color:#848484"/>
			</radialGradient>
			<path id="XMLID_4_" class="st8" d="M220.2,174.5c0,0-15.1,4.6-22.8,20.3C197.4,194.8,216.1,187.5,220.2,174.5z"/>
		</g>
		<g id="Calque_9">
			<radialGradient id="XMLID_119_" cx="108.6719" cy="219.7581" r="9.9629" gradientUnits="userSpaceOnUse">
				<stop  offset="0" style="stop-color:#959698"/>
				<stop  offset="0.3213" style="stop-color:#959697"/>
				<stop  offset="0.5416" style="stop-color:#939494"/>
				<stop  offset="0.7315" style="stop-color:#8F9090"/>
				<stop  offset="0.9032" style="stop-color:#89898A"/>
				<stop  offset="1" style="stop-color:#848484"/>
			</radialGradient>
			<path id="XMLID_19_" class="st9" d="M103.5,232.8c0,0,7.8-19.9,10.4-26.2c0,0-2.7,22.5-3.2,26.2L103.5,232.8z"/>
			<g id="XMLID_26_" class="st10">
				<linearGradient id="XMLID_120_" gradientUnits="userSpaceOnUse" x1="107.487" y1="232.8578" x2="110.682" y2="232.8578">
					<stop  offset="0" style="stop-color:#FFFFFF"/>
					<stop  offset="1" style="stop-color:#FFFFFF;stop-opacity:0"/>
				</linearGradient>
				<polygon id="XMLID_27_" class="st11" points="110.7,232.9 110.7,232.9 107.5,232.9 				"/>
				<linearGradient id="XMLID_121_" gradientUnits="userSpaceOnUse" x1="100.5101" y1="217.7177" x2="114.7932" y2="217.7177">
					<stop  offset="0" style="stop-color:#FFFFFF;stop-opacity:0"/>
					<stop  offset="1" style="stop-color:#FFFFFF"/>
				</linearGradient>
				<path id="XMLID_28_" class="st12" d="M114.8,202.6c-4,6.3-14.3,30.3-14.3,30.3l7,0l-4,0c0,0,7.8-19.9,10.4-26.2
					c0,0-2.7,22.4-3.2,26.2l2.4,0C113.8,229.1,114.8,202.6,114.8,202.6z"/>
			</g>
		</g>
		<g id="Calque_9_-_copie">
			
				<radialGradient id="XMLID_122_" cx="257.1387" cy="228.5164" r="9.9628" gradientTransform="matrix(-0.6866 -1.1475 1.2049 -0.7209 122.8793 540.6137)" gradientUnits="userSpaceOnUse">
				<stop  offset="0" style="stop-color:#959698"/>
				<stop  offset="0.3213" style="stop-color:#959697"/>
				<stop  offset="0.5416" style="stop-color:#939494"/>
				<stop  offset="0.7315" style="stop-color:#8F9090"/>
				<stop  offset="0.9032" style="stop-color:#89898A"/>
				<stop  offset="1" style="stop-color:#848484"/>
			</radialGradient>
			<path id="XMLID_30_" class="st13" d="M241,77.3c0,0-29.4,5.4-38.7,7c0,0,28.9-13.1,33.8-15.3L241,77.3z"/>
			<g id="XMLID_24_" class="st10">
				
					<linearGradient id="XMLID_123_" gradientUnits="userSpaceOnUse" x1="255.9539" y1="241.616" x2="259.1489" y2="241.616" gradientTransform="matrix(-0.6866 -1.1475 1.2049 -0.7209 122.8793 540.6137)">
					<stop  offset="0" style="stop-color:#FFFFFF"/>
					<stop  offset="1" style="stop-color:#FFFFFF;stop-opacity:0"/>
				</linearGradient>
				<polygon id="XMLID_29_" class="st14" points="236.1,69 236.1,69 238.3,72.7 				"/>
				
					<linearGradient id="XMLID_124_" gradientUnits="userSpaceOnUse" x1="248.9769" y1="226.4759" x2="263.2601" y2="226.4759" gradientTransform="matrix(-0.6866 -1.1475 1.2049 -0.7209 122.8793 540.6137)">
					<stop  offset="0" style="stop-color:#FFFFFF;stop-opacity:0"/>
					<stop  offset="1" style="stop-color:#FFFFFF"/>
				</linearGradient>
				<path id="XMLID_25_" class="st15" d="M196.8,86.2c10.3,0,46.3-5.4,46.3-5.4l-4.8-8l2.7,4.6c0,0-29.4,5.4-38.7,7
					c0,0,28.9-13,33.7-15.3l-1.6-2.7C229.4,68.2,196.8,86.2,196.8,86.2z"/>
			</g>
		</g>
	</g>
	<g id="border_1_">
		<path id="XMLID_32_" class="st16" d="M270.4,119.3l-50.5-85.1c-3.9-6.6-11.2-10.7-19.2-10.7L99.5,23.3c-7.9,0-15.2,4.1-19.2,10.7
			l-50.7,85.1c-3.9,6.7-3.9,14.9,0,21.6l50.5,85.1c3.9,6.6,11.2,10.7,19.2,10.7l101.2,0.2c7.9,0,15.2-4.1,19.2-10.7l50.7-85.1
			C274.3,134.2,274.3,126,270.4,119.3z M257.8,139.7L212.4,216c-3.6,5.9-10.1,9.6-17.2,9.6l-90.6-0.2c-7.1,0-13.6-3.7-17.2-9.6
			l-45.2-76.2c-3.5-6-3.5-13.3,0-19.3L87.6,44c3.6-6,10.1-9.6,17.2-9.6l90.6,0.2c7.1,0,13.6,3.7,17.2,9.6l45.2,76.2
			C261.3,126.4,261.3,133.8,257.8,139.7z"/>
		<path id="XMLID_55_" class="st17" d="M275.8,118.9L223,30.8c-4.1-6.8-11.7-11.1-20-11.1L97.3,19.5c-8.3,0-15.9,4.2-20.1,11.1
			l-52.9,88.1c-4.1,6.9-4.1,15.4,0,22.3L77,229.2c4.1,6.8,11.7,11.1,20,11.1l105.7,0.2c8.3,0,15.9-4.3,20.1-11.1l52.9-88.1
			C279.9,134.3,279.9,125.8,275.8,118.9z M262.7,140.1l-47.4,79c-3.7,6.1-10.6,10-18,10l-94.7-0.2c-7.4,0-14.3-3.8-17.9-10l-47.3-79
			c-3.7-6.2-3.7-13.8,0-20l47.4-79c3.7-6.2,10.6-10,18-10l94.7,0.2c7.4,0,14.3,3.8,17.9,10l47.3,79
			C266.3,126.3,266.3,133.9,262.7,140.1z"/>
		<path id="XMLID_16_" class="st17" d="M284.7,118l-56.5-95.3c-4.4-7.4-12.6-12-21.4-12L93.5,10.5c-8.9,0-17.1,4.5-21.5,12
			l-56.7,95.3c-4.4,7.5-4.4,16.7,0,24.1l56.5,95.3c4.4,7.4,12.6,12,21.4,12l113.2,0.2c8.9,0,17.1-4.6,21.5-12l56.7-95.3
			C289.1,134.7,289.1,125.5,284.7,118z M270.7,140.9l-50.8,85.3c-4,6.6-11.3,10.8-19.3,10.8l-101.4-0.2c-7.9,0-15.3-4.2-19.2-10.8
			l-50.6-85.3c-3.9-6.7-3.9-14.9,0-21.6l50.8-85.3c4-6.7,11.3-10.8,19.3-10.8l101.4,0.2c7.9,0,15.3,4.2,19.2,10.8l50.6,85.3
			C274.6,126,274.6,134.2,270.7,140.9z"/>
		<radialGradient id="XMLID_125_" cx="150" cy="130" r="124.2415" gradientUnits="userSpaceOnUse">
			<stop  offset="0" style="stop-color:#D6D5D5"/>
			<stop  offset="0.3213" style="stop-color:#D4D3D2"/>
			<stop  offset="0.5416" style="stop-color:#CCCACA"/>
			<stop  offset="0.7315" style="stop-color:#BEBDBD"/>
			<stop  offset="0.9032" style="stop-color:#ACABAB"/>
			<stop  offset="1" style="stop-color:#9F9E9E"/>
		</radialGradient>
		<path id="XMLID_11_" class="st18" d="M279.7,118.5l-54.4-91.7c-4.2-7.1-12.1-11.6-20.6-11.6L95.6,15c-8.5,0-16.4,4.4-20.7,11.6
			l-54.6,91.7c-4.2,7.2-4.2,16,0,23.2l54.4,91.7c4.2,7.1,12.1,11.6,20.6,11.6l109,0.2c8.5,0,16.4-4.5,20.7-11.6l54.6-91.7
			C283.9,134.5,283.9,125.7,279.7,118.5z M266.2,140.5l-48.9,82.2c-3.9,6.4-10.9,10.4-18.6,10.4l-97.6-0.2c-7.6,0-14.7-4-18.5-10.4
			l-48.7-82.2c-3.8-6.5-3.8-14.4,0-20.8l48.9-82.2C86.6,30.9,93.7,27,101.3,27l97.6,0.2c7.6,0,14.7,4,18.5,10.4l48.7,82.2
			C269.9,126.1,269.9,134,266.2,140.5z"/>
		<radialGradient id="XMLID_126_" cx="150" cy="130" r="124.2415" gradientUnits="userSpaceOnUse">
			<stop  offset="0.8768" style="stop-color:#FFFFFF;stop-opacity:0"/>
			<stop  offset="1" style="stop-color:#FFFFFF"/>
		</radialGradient>
		<path id="XMLID_2_" class="st19" d="M279.7,118.5l-54.4-91.7c-4.2-7.1-12.1-11.6-20.6-11.6L95.6,15c-8.5,0-16.4,4.4-20.7,11.6
			l-54.6,91.7c-4.2,7.2-4.2,16,0,23.2l54.4,91.7c4.2,7.1,12.1,11.6,20.6,11.6l109,0.2c8.5,0,16.4-4.5,20.7-11.6l54.6-91.7
			C283.9,134.5,283.9,125.7,279.7,118.5z M266.2,140.5l-48.9,82.2c-3.9,6.4-10.9,10.4-18.6,10.4l-97.6-0.2c-7.6,0-14.7-4-18.5-10.4
			l-48.7-82.2c-3.8-6.5-3.8-14.4,0-20.8l48.9-82.2C86.6,30.9,93.7,27,101.3,27l97.6,0.2c7.6,0,14.7,4,18.5,10.4l48.7,82.2
			C269.9,126.1,269.9,134,266.2,140.5z"/>
	</g>
</g>
<g id="Calque_16">
	<g id="Calque_15_-_copie">
		<radialGradient id="XMLID_127_" cx="85.9925" cy="24.5" r="4.9659" gradientUnits="userSpaceOnUse">
			<stop  offset="0" style="stop-color:#959698"/>
			<stop  offset="0.3213" style="stop-color:#959697"/>
			<stop  offset="0.5416" style="stop-color:#939494"/>
			<stop  offset="0.7315" style="stop-color:#8F9090"/>
			<stop  offset="0.9032" style="stop-color:#89898A"/>
			<stop  offset="1" style="stop-color:#848484"/>
		</radialGradient>
		<circle id="XMLID_20_" class="st20" cx="86" cy="24.5" r="5"/>
		<circle id="XMLID_21_" class="st21" cx="86" cy="24.5" r="3"/>
		<path id="XMLID_51_" class="st22" d="M86,21.9c-0.9,0-1.7,0.5-2.2,1.2c0.4-0.2,0.8-0.4,1.3-0.4c1.4,0,2.6,1.2,2.6,2.6
			c0,0.5-0.2,1.1-0.4,1.5c0.8-0.5,1.3-1.3,1.3-2.3C88.6,23,87.5,21.9,86,21.9z"/>
	</g>
	<g id="Calque_15">
		<polygon id="XMLID_1_" class="st23" points="18.3,110.5 39.6,120.7 34,131.3 38.5,140.7 18.3,151.5 6.7,129.8 		"/>
		<radialGradient id="XMLID_128_" cx="23.25" cy="130.4228" r="16.0529" gradientUnits="userSpaceOnUse">
			<stop  offset="0" style="stop-color:#C5B798"/>
			<stop  offset="0.3429" style="stop-color:#C2B495"/>
			<stop  offset="0.5778" style="stop-color:#BBAC8C"/>
			<stop  offset="0.7804" style="stop-color:#B0A07F"/>
			<stop  offset="0.9638" style="stop-color:#A2916E"/>
			<stop  offset="1" style="stop-color:#9F8E6A"/>
		</radialGradient>
		<polygon id="XMLID_7_" class="st24" points="18.9,112.8 18.7,116.2 12.5,129.2 9,129.8 12,130.7 18.5,144.1 18.9,148.1 
			20.4,144.6 31.6,139.1 35,139.6 31.9,137.4 29.5,131.5 32.1,131.3 29.6,130.2 34.1,123.2 37.5,121.5 32.8,121.9 20.3,116.3 		"/>
		<linearGradient id="XMLID_129_" gradientUnits="userSpaceOnUse" x1="15.6305" y1="114.723" x2="23.7204" y2="128.7353">
			<stop  offset="0" style="stop-color:#FFFFFF"/>
			<stop  offset="1" style="stop-color:#FFFFFF;stop-opacity:0"/>
		</linearGradient>
		<polygon id="XMLID_9_" class="st25" points="18.9,112.8 19,116.3 12.5,130.1 21.9,129.8 32.3,122.8 19.5,116.2 		"/>
		<polygon id="XMLID_38_" class="st26" points="13.9,127.2 12.2,129.9 9.6,129.9 12.1,130.4 13.3,132.8 12.5,130.1 		"/>
		<polygon id="XMLID_39_" class="st26" points="17.7,140.9 18.9,144.1 19,147.1 19.8,144.6 22.4,143.3 19.6,144 		"/>
		<polygon id="XMLID_40_" class="st26" points="30.4,134.4 31.4,138.3 29.3,140.1 31.6,138.8 33.9,139.3 32,138 		"/>
		<polygon id="XMLID_18_" class="st26" points="29.5,132.9 29.2,131.3 31.4,131.1 29.4,130.3 30.3,128.2 28.5,130.8 		"/>
		<polygon id="XMLID_37_" class="st26" points="36.4,121.8 33,122.4 29.8,121.6 32.3,122.8 31.8,125.6 33.1,122.8 		"/>
		<radialGradient id="XMLID_130_" cx="22.25" cy="130" r="4.9659" gradientUnits="userSpaceOnUse">
			<stop  offset="0" style="stop-color:#616263"/>
			<stop  offset="0.3213" style="stop-color:#606162"/>
			<stop  offset="0.5416" style="stop-color:#5C5D5E"/>
			<stop  offset="0.7315" style="stop-color:#565758"/>
			<stop  offset="0.9032" style="stop-color:#4E4F50"/>
			<stop  offset="1" style="stop-color:#48494A"/>
		</radialGradient>
		<circle id="XMLID_52_" class="st27" cx="22.3" cy="130" r="5"/>
		<radialGradient id="XMLID_131_" cx="22.25" cy="130" r="2.959" gradientUnits="userSpaceOnUse">
			<stop  offset="0" style="stop-color:#AEAFAF"/>
			<stop  offset="0.3213" style="stop-color:#ACACAD"/>
			<stop  offset="0.5416" style="stop-color:#A5A5A6"/>
			<stop  offset="0.7315" style="stop-color:#999A9A"/>
			<stop  offset="0.9032" style="stop-color:#8A8A8A"/>
			<stop  offset="1" style="stop-color:#7E7F7F"/>
		</radialGradient>
		<circle id="XMLID_49_" class="st28" cx="22.3" cy="130" r="3"/>
		<path id="XMLID_31_" class="st22" d="M22.3,127.4c-0.9,0-1.7,0.5-2.2,1.2c0.4-0.2,0.8-0.4,1.3-0.4c1.4,0,2.6,1.2,2.6,2.6
			c0,0.5-0.2,1.1-0.4,1.5c0.8-0.5,1.3-1.3,1.3-2.3C24.9,128.5,23.7,127.4,22.3,127.4z"/>
	</g>
	<g id="Calque_15_-_copie_3">
		<polygon id="XMLID_73_" class="st23" points="281.1,110.5 259.9,120.7 265.4,131.3 260.9,140.7 281.1,151.5 292.7,129.8 		"/>
		
			<radialGradient id="XMLID_132_" cx="33.548" cy="130.4228" r="16.0529" gradientTransform="matrix(-1 0 0 1 309.7032 0)" gradientUnits="userSpaceOnUse">
			<stop  offset="0" style="stop-color:#C5B798"/>
			<stop  offset="0.3429" style="stop-color:#C2B495"/>
			<stop  offset="0.5778" style="stop-color:#BBAC8C"/>
			<stop  offset="0.7804" style="stop-color:#B0A07F"/>
			<stop  offset="0.9638" style="stop-color:#A2916E"/>
			<stop  offset="1" style="stop-color:#9F8E6A"/>
		</radialGradient>
		<polygon id="XMLID_72_" class="st29" points="280.5,112.8 280.7,116.2 286.9,129.2 290.4,129.8 287.4,130.7 280.9,144.1 
			280.5,148.1 279,144.6 267.8,139.1 264.4,139.6 267.5,137.4 269.9,131.5 267.4,131.3 269.8,130.2 265.3,123.2 261.9,121.5 
			266.6,121.9 279.1,116.3 		"/>
		
			<linearGradient id="XMLID_133_" gradientUnits="userSpaceOnUse" x1="25.9285" y1="114.723" x2="34.0184" y2="128.7353" gradientTransform="matrix(-1 0 0 1 309.7032 0)">
			<stop  offset="0" style="stop-color:#FFFFFF"/>
			<stop  offset="1" style="stop-color:#FFFFFF;stop-opacity:0"/>
		</linearGradient>
		<polygon id="XMLID_71_" class="st30" points="280.5,112.8 280.4,116.3 286.9,130.1 277.5,129.8 267.1,122.8 279.9,116.2 		"/>
		<polygon id="XMLID_70_" class="st26" points="285.5,127.2 287.2,129.9 289.8,129.9 287.3,130.4 286.1,132.8 286.9,130.1 		"/>
		<polygon id="XMLID_69_" class="st26" points="281.7,140.9 280.5,144.1 280.4,147.1 279.6,144.6 277,143.3 279.8,144 		"/>
		<polygon id="XMLID_54_" class="st26" points="269,134.4 268,138.3 270.1,140.1 267.8,138.8 265.5,139.3 267.4,138 		"/>
		<polygon id="XMLID_53_" class="st26" points="269.9,132.9 270.2,131.3 268,131.1 270,130.3 269.1,128.2 270.9,130.8 		"/>
		<polygon id="XMLID_50_" class="st26" points="263,121.8 266.4,122.4 269.6,121.6 267.1,122.8 267.6,125.6 266.3,122.8 		"/>
		
			<radialGradient id="XMLID_134_" cx="32.548" cy="130" r="4.9659" gradientTransform="matrix(-1 0 0 1 309.7032 0)" gradientUnits="userSpaceOnUse">
			<stop  offset="0" style="stop-color:#616263"/>
			<stop  offset="0.3213" style="stop-color:#606162"/>
			<stop  offset="0.5416" style="stop-color:#5C5D5E"/>
			<stop  offset="0.7315" style="stop-color:#565758"/>
			<stop  offset="0.9032" style="stop-color:#4E4F50"/>
			<stop  offset="1" style="stop-color:#48494A"/>
		</radialGradient>
		<circle id="XMLID_44_" class="st31" cx="277.2" cy="130" r="5"/>
		
			<radialGradient id="XMLID_135_" cx="32.548" cy="130" r="2.959" gradientTransform="matrix(-1 0 0 1 309.7032 0)" gradientUnits="userSpaceOnUse">
			<stop  offset="0" style="stop-color:#AEAFAF"/>
			<stop  offset="0.3213" style="stop-color:#ACACAD"/>
			<stop  offset="0.5416" style="stop-color:#A5A5A6"/>
			<stop  offset="0.7315" style="stop-color:#999A9A"/>
			<stop  offset="0.9032" style="stop-color:#8A8A8A"/>
			<stop  offset="1" style="stop-color:#7E7F7F"/>
		</radialGradient>
		<circle id="XMLID_42_" class="st32" cx="277.2" cy="130" r="3"/>
		<path id="XMLID_10_" class="st22" d="M277.1,127.4c0.9,0,1.7,0.5,2.2,1.2c-0.4-0.2-0.8-0.4-1.3-0.4c-1.4,0-2.6,1.2-2.6,2.6
			c0,0.5,0.2,1.1,0.4,1.5c-0.8-0.5-1.3-1.3-1.3-2.3C274.5,128.5,275.7,127.4,277.1,127.4z"/>
	</g>
	<g id="Calque_17">
		<g id="Calque_15_-_copie_4">
			<polygon id="XMLID_81_" class="st23" points="198.2,9.5 196.4,33 208.5,33.5 214.3,42 233.8,29.8 220.7,9 			"/>
			
				<radialGradient id="XMLID_136_" cx="96.6907" cy="25.3114" r="16.0529" gradientTransform="matrix(-0.4963 0.8681 0.8681 0.4963 239.0275 -72.8189)" gradientUnits="userSpaceOnUse">
				<stop  offset="0" style="stop-color:#C5B798"/>
				<stop  offset="0.3429" style="stop-color:#C2B495"/>
				<stop  offset="0.5778" style="stop-color:#BBAC8C"/>
				<stop  offset="0.7804" style="stop-color:#B0A07F"/>
				<stop  offset="0.9638" style="stop-color:#A2916E"/>
				<stop  offset="1" style="stop-color:#9F8E6A"/>
			</radialGradient>
			<polygon id="XMLID_80_" class="st33" points="199.8,11.2 203,12.6 217.3,13.7 219.5,11 218.8,14 227.3,26.4 230.5,28.7 
				226.7,28.3 216.4,35.2 215.2,38.4 214.8,34.6 210.8,29.6 209.4,31.8 209.7,29.1 201.4,29.5 198.2,31.6 200.8,27.7 202.3,14.1 			
				"/>
			
				<linearGradient id="XMLID_137_" gradientUnits="userSpaceOnUse" x1="89.0711" y1="9.6116" x2="97.1611" y2="23.6238" gradientTransform="matrix(-0.4963 0.8681 0.8681 0.4963 239.0275 -72.8189)">
				<stop  offset="0" style="stop-color:#FFFFFF"/>
				<stop  offset="1" style="stop-color:#FFFFFF;stop-opacity:0"/>
			</linearGradient>
			<polygon id="XMLID_79_" class="st34" points="199.9,11.2 202.8,13 218,14.2 213.2,22.2 202,27.7 202.5,13.4 			"/>
			<polygon id="XMLID_78_" class="st26" points="214.9,14 218,13.8 219.3,11.6 218.5,14 220,16.2 218,14.2 			"/>
			<polygon id="XMLID_77_" class="st26" points="224.9,24 227,26.7 229.6,28.3 227,27.7 224.6,29.3 226.6,27.3 			"/>
			<polygon id="XMLID_76_" class="st26" points="212.9,31.8 215.8,34.6 218.4,33.7 216.1,35 215.4,37.3 215.3,35 			"/>
			<polygon id="XMLID_75_" class="st26" points="212,30.4 210.9,29.3 209.5,31.1 209.8,29 207.6,28.7 210.7,28.5 			"/>
			<polygon id="XMLID_74_" class="st26" points="199,30.8 201.2,28.1 202.1,25 202,27.7 204.6,28.7 201.5,28.5 			"/>
			
				<radialGradient id="XMLID_138_" cx="95.6907" cy="24.8885" r="4.9659" gradientTransform="matrix(-0.4963 0.8681 0.8681 0.4963 239.0275 -72.8189)" gradientUnits="userSpaceOnUse">
				<stop  offset="0" style="stop-color:#616263"/>
				<stop  offset="0.3213" style="stop-color:#606162"/>
				<stop  offset="0.5416" style="stop-color:#5C5D5E"/>
				<stop  offset="0.7315" style="stop-color:#565758"/>
				<stop  offset="0.9032" style="stop-color:#4E4F50"/>
				<stop  offset="1" style="stop-color:#48494A"/>
			</radialGradient>
			<circle id="XMLID_65_" class="st35" cx="213.1" cy="22.6" r="5"/>
			
				<radialGradient id="XMLID_139_" cx="95.6907" cy="24.8885" r="2.959" gradientTransform="matrix(-0.4963 0.8681 0.8681 0.4963 239.0275 -72.8189)" gradientUnits="userSpaceOnUse">
				<stop  offset="0" style="stop-color:#AEAFAF"/>
				<stop  offset="0.3213" style="stop-color:#ACACAD"/>
				<stop  offset="0.5416" style="stop-color:#A5A5A6"/>
				<stop  offset="0.7315" style="stop-color:#999A9A"/>
				<stop  offset="0.9032" style="stop-color:#8A8A8A"/>
				<stop  offset="1" style="stop-color:#7E7F7F"/>
			</radialGradient>
			<circle id="XMLID_64_" class="st36" cx="213.1" cy="22.6" r="3"/>
			<path id="XMLID_63_" class="st22" d="M210.8,21.3c0.4-0.8,1.2-1.3,2.1-1.3c-0.4,0.2-0.7,0.5-0.9,0.9c-0.7,1.3-0.3,2.9,1,3.6
				c0.5,0.3,1,0.4,1.5,0.3c-0.8,0.5-1.8,0.5-2.6,0C210.5,24.2,210.1,22.6,210.8,21.3z"/>
		</g>
		<g id="Calque_15_-_copie_5">
			<polygon id="XMLID_89_" class="st23" points="102,9.5 103.8,33 91.8,33.5 85.9,42 66.4,29.8 79.5,9 			"/>
			
				<radialGradient id="XMLID_140_" cx="32.1668" cy="138.1683" r="16.0529" gradientTransform="matrix(0.4963 0.8681 -0.8681 0.4963 191.1946 -72.8189)" gradientUnits="userSpaceOnUse">
				<stop  offset="0" style="stop-color:#C5B798"/>
				<stop  offset="0.3429" style="stop-color:#C2B495"/>
				<stop  offset="0.5778" style="stop-color:#BBAC8C"/>
				<stop  offset="0.7804" style="stop-color:#B0A07F"/>
				<stop  offset="0.9638" style="stop-color:#A2916E"/>
				<stop  offset="1" style="stop-color:#9F8E6A"/>
			</radialGradient>
			<polygon id="XMLID_88_" class="st37" points="100.4,11.2 97.3,12.6 82.9,13.7 80.7,11 81.4,14 73,26.4 69.7,28.7 73.5,28.3 
				83.8,35.2 85,38.4 85.4,34.6 89.4,29.6 90.8,31.8 90.6,29.1 98.9,29.5 102,31.6 99.4,27.7 98,14.1 			"/>
			
				<linearGradient id="XMLID_141_" gradientUnits="userSpaceOnUse" x1="24.5473" y1="122.4685" x2="32.6373" y2="136.4807" gradientTransform="matrix(0.4963 0.8681 -0.8681 0.4963 191.1946 -72.8189)">
				<stop  offset="0" style="stop-color:#FFFFFF"/>
				<stop  offset="1" style="stop-color:#FFFFFF;stop-opacity:0"/>
			</linearGradient>
			<polygon id="XMLID_87_" class="st38" points="100.4,11.2 97.4,13 82.2,14.2 87.1,22.2 98.3,27.7 97.7,13.4 			"/>
			<polygon id="XMLID_86_" class="st26" points="85.3,14 82.2,13.8 80.9,11.6 81.7,14 80.2,16.2 82.2,14.2 			"/>
			<polygon id="XMLID_85_" class="st26" points="75.3,24 73.2,26.7 70.6,28.3 73.2,27.7 75.6,29.3 73.6,27.3 			"/>
			<polygon id="XMLID_84_" class="st26" points="87.3,31.8 84.4,34.6 81.8,33.7 84.1,35 84.8,37.3 84.9,35 			"/>
			<polygon id="XMLID_83_" class="st26" points="88.2,30.4 89.4,29.3 90.7,31.1 90.4,29 92.6,28.7 89.5,28.5 			"/>
			<polygon id="XMLID_82_" class="st26" points="101.2,30.8 99,28.1 98.2,25 98.3,27.7 95.6,28.7 98.7,28.5 			"/>
			
				<radialGradient id="XMLID_142_" cx="31.1668" cy="137.7454" r="4.9659" gradientTransform="matrix(0.4963 0.8681 -0.8681 0.4963 191.1946 -72.8189)" gradientUnits="userSpaceOnUse">
				<stop  offset="0" style="stop-color:#616263"/>
				<stop  offset="0.3213" style="stop-color:#606162"/>
				<stop  offset="0.5416" style="stop-color:#5C5D5E"/>
				<stop  offset="0.7315" style="stop-color:#565758"/>
				<stop  offset="0.9032" style="stop-color:#4E4F50"/>
				<stop  offset="1" style="stop-color:#48494A"/>
			</radialGradient>
			<circle id="XMLID_68_" class="st39" cx="87.1" cy="22.6" r="5"/>
			
				<radialGradient id="XMLID_143_" cx="31.1668" cy="137.7454" r="2.959" gradientTransform="matrix(0.4963 0.8681 -0.8681 0.4963 191.1946 -72.8189)" gradientUnits="userSpaceOnUse">
				<stop  offset="0" style="stop-color:#AEAFAF"/>
				<stop  offset="0.3213" style="stop-color:#ACACAD"/>
				<stop  offset="0.5416" style="stop-color:#A5A5A6"/>
				<stop  offset="0.7315" style="stop-color:#999A9A"/>
				<stop  offset="0.9032" style="stop-color:#8A8A8A"/>
				<stop  offset="1" style="stop-color:#7E7F7F"/>
			</radialGradient>
			<circle id="XMLID_67_" class="st40" cx="87.1" cy="22.6" r="3"/>
			<path id="XMLID_66_" class="st22" d="M89.4,21.3c-0.4-0.8-1.2-1.3-2.1-1.3c0.4,0.2,0.7,0.5,0.9,0.9c0.7,1.3,0.3,2.9-1,3.6
				c-0.5,0.3-1,0.4-1.5,0.3c0.8,0.5,1.8,0.5,2.6,0C89.7,24.2,90.1,22.6,89.4,21.3z"/>
		</g>
	</g>
	<g id="Calque_17_-_copie">
		<g id="Calque_15_-_copie_6_1_">
			<polygon id="XMLID_111_" class="st23" points="198.2,250.5 196.4,227 208.5,226.5 214.3,218 233.8,230.2 220.7,251 			"/>
			
				<radialGradient id="XMLID_144_" cx="-84.7485" cy="-78.4231" r="16.0529" gradientTransform="matrix(-0.4963 -0.8681 0.8681 -0.4963 239.0275 123.8053)" gradientUnits="userSpaceOnUse">
				<stop  offset="0" style="stop-color:#C5B798"/>
				<stop  offset="0.3429" style="stop-color:#C2B495"/>
				<stop  offset="0.5778" style="stop-color:#BBAC8C"/>
				<stop  offset="0.7804" style="stop-color:#B0A07F"/>
				<stop  offset="0.9638" style="stop-color:#A2916E"/>
				<stop  offset="1" style="stop-color:#9F8E6A"/>
			</radialGradient>
			<polygon id="XMLID_110_" class="st41" points="199.8,248.8 203,247.3 217.3,246.3 219.5,249 218.8,245.9 227.3,233.6 
				230.5,231.3 226.7,231.7 216.4,224.8 215.2,221.5 214.8,225.3 210.8,230.3 209.4,228.2 209.7,230.9 201.4,230.5 198.2,228.4 
				200.8,232.3 202.3,245.9 			"/>
			
				<linearGradient id="XMLID_145_" gradientUnits="userSpaceOnUse" x1="-92.368" y1="-94.1229" x2="-84.278" y2="-80.1107" gradientTransform="matrix(-0.4963 -0.8681 0.8681 -0.4963 239.0275 123.8053)">
				<stop  offset="0" style="stop-color:#FFFFFF"/>
				<stop  offset="1" style="stop-color:#FFFFFF;stop-opacity:0"/>
			</linearGradient>
			<polygon id="XMLID_109_" class="st42" points="199.9,248.8 202.8,247 218,245.8 213.2,237.8 202,232.2 202.5,246.6 			"/>
			<polygon id="XMLID_108_" class="st26" points="214.9,246 218,246.2 219.3,248.4 218.5,246 220,243.8 218,245.8 			"/>
			<polygon id="XMLID_107_" class="st26" points="224.9,236 227,233.3 229.6,231.7 227,232.3 224.6,230.6 226.6,232.7 			"/>
			<polygon id="XMLID_106_" class="st26" points="212.9,228.1 215.8,225.3 218.4,226.3 216.1,224.9 215.4,222.7 215.3,224.9 			"/>
			<polygon id="XMLID_105_" class="st26" points="212,229.6 210.9,230.7 209.5,228.9 209.8,231 207.6,231.3 210.7,231.5 			"/>
			<polygon id="XMLID_104_" class="st26" points="199,229.2 201.2,231.9 202.1,235 202,232.2 204.6,231.3 201.5,231.5 			"/>
			
				<radialGradient id="XMLID_146_" cx="-85.7485" cy="-78.8459" r="4.9659" gradientTransform="matrix(-0.4963 -0.8681 0.8681 -0.4963 239.0275 123.8053)" gradientUnits="userSpaceOnUse">
				<stop  offset="0" style="stop-color:#616263"/>
				<stop  offset="0.3213" style="stop-color:#606162"/>
				<stop  offset="0.5416" style="stop-color:#5C5D5E"/>
				<stop  offset="0.7315" style="stop-color:#565758"/>
				<stop  offset="0.9032" style="stop-color:#4E4F50"/>
				<stop  offset="1" style="stop-color:#48494A"/>
			</radialGradient>
			<circle id="XMLID_103_" class="st43" cx="213.1" cy="237.4" r="5"/>
			
				<radialGradient id="XMLID_147_" cx="-85.7485" cy="-78.8459" r="2.959" gradientTransform="matrix(-0.4963 -0.8681 0.8681 -0.4963 239.0275 123.8053)" gradientUnits="userSpaceOnUse">
				<stop  offset="0" style="stop-color:#AEAFAF"/>
				<stop  offset="0.3213" style="stop-color:#ACACAD"/>
				<stop  offset="0.5416" style="stop-color:#A5A5A6"/>
				<stop  offset="0.7315" style="stop-color:#999A9A"/>
				<stop  offset="0.9032" style="stop-color:#8A8A8A"/>
				<stop  offset="1" style="stop-color:#7E7F7F"/>
			</radialGradient>
			<circle id="XMLID_102_" class="st44" cx="213.1" cy="237.4" r="3"/>
			<path id="XMLID_101_" class="st22" d="M210.8,238.7c0.4,0.8,1.2,1.3,2.1,1.3c-0.4-0.2-0.7-0.5-0.9-0.9c-0.7-1.3-0.3-2.9,1-3.6
				c0.5-0.3,1-0.4,1.5-0.3c-0.8-0.5-1.8-0.5-2.6,0C210.5,235.8,210.1,237.4,210.8,238.7z"/>
		</g>
		<g id="Calque_15_-_copie_6">
			<polygon id="XMLID_112_" class="st23" points="102,250.5 103.8,227 91.8,226.5 85.9,218 66.4,230.2 79.5,251 			"/>
			
				<radialGradient id="XMLID_148_" cx="-149.2723" cy="34.4338" r="16.0529" gradientTransform="matrix(0.4963 -0.8681 -0.8681 -0.4963 191.1946 123.8053)" gradientUnits="userSpaceOnUse">
				<stop  offset="0" style="stop-color:#C5B798"/>
				<stop  offset="0.3429" style="stop-color:#C2B495"/>
				<stop  offset="0.5778" style="stop-color:#BBAC8C"/>
				<stop  offset="0.7804" style="stop-color:#B0A07F"/>
				<stop  offset="0.9638" style="stop-color:#A2916E"/>
				<stop  offset="1" style="stop-color:#9F8E6A"/>
			</radialGradient>
			<polygon id="XMLID_100_" class="st45" points="100.4,248.8 97.3,247.3 82.9,246.3 80.7,249 81.4,245.9 73,233.6 69.7,231.3 
				73.5,231.7 83.8,224.8 85,221.5 85.4,225.3 89.4,230.3 90.8,228.2 90.6,230.9 98.9,230.5 102,228.4 99.4,232.3 98,245.9 			"/>
			
				<linearGradient id="XMLID_149_" gradientUnits="userSpaceOnUse" x1="-156.8918" y1="18.734" x2="-148.8019" y2="32.7462" gradientTransform="matrix(0.4963 -0.8681 -0.8681 -0.4963 191.1946 123.8053)">
				<stop  offset="0" style="stop-color:#FFFFFF"/>
				<stop  offset="1" style="stop-color:#FFFFFF;stop-opacity:0"/>
			</linearGradient>
			<polygon id="XMLID_99_" class="st46" points="100.4,248.8 97.4,247 82.2,245.8 87.1,237.8 98.3,232.2 97.7,246.6 			"/>
			<polygon id="XMLID_98_" class="st26" points="85.3,246 82.2,246.2 80.9,248.4 81.7,246 80.2,243.8 82.2,245.8 			"/>
			<polygon id="XMLID_97_" class="st26" points="75.3,236 73.2,233.3 70.6,231.7 73.2,232.3 75.6,230.6 73.6,232.7 			"/>
			<polygon id="XMLID_96_" class="st26" points="87.3,228.1 84.4,225.3 81.8,226.3 84.1,224.9 84.8,222.7 84.9,224.9 			"/>
			<polygon id="XMLID_95_" class="st26" points="88.2,229.6 89.4,230.7 90.7,228.9 90.4,231 92.6,231.3 89.5,231.5 			"/>
			<polygon id="XMLID_94_" class="st26" points="101.2,229.2 99,231.9 98.2,235 98.3,232.2 95.6,231.3 98.7,231.5 			"/>
			
				<radialGradient id="XMLID_150_" cx="-150.2723" cy="34.0109" r="4.9659" gradientTransform="matrix(0.4963 -0.8681 -0.8681 -0.4963 191.1946 123.8053)" gradientUnits="userSpaceOnUse">
				<stop  offset="0" style="stop-color:#616263"/>
				<stop  offset="0.3213" style="stop-color:#606162"/>
				<stop  offset="0.5416" style="stop-color:#5C5D5E"/>
				<stop  offset="0.7315" style="stop-color:#565758"/>
				<stop  offset="0.9032" style="stop-color:#4E4F50"/>
				<stop  offset="1" style="stop-color:#48494A"/>
			</radialGradient>
			<circle id="XMLID_93_" class="st47" cx="87.1" cy="237.4" r="5"/>
			
				<radialGradient id="XMLID_151_" cx="-150.2723" cy="34.0109" r="2.959" gradientTransform="matrix(0.4963 -0.8681 -0.8681 -0.4963 191.1946 123.8053)" gradientUnits="userSpaceOnUse">
				<stop  offset="0" style="stop-color:#AEAFAF"/>
				<stop  offset="0.3213" style="stop-color:#ACACAD"/>
				<stop  offset="0.5416" style="stop-color:#A5A5A6"/>
				<stop  offset="0.7315" style="stop-color:#999A9A"/>
				<stop  offset="0.9032" style="stop-color:#8A8A8A"/>
				<stop  offset="1" style="stop-color:#7E7F7F"/>
			</radialGradient>
			<circle id="XMLID_92_" class="st48" cx="87.1" cy="237.4" r="3"/>
			<path id="XMLID_91_" class="st22" d="M89.4,238.7c-0.4,0.8-1.2,1.3-2.1,1.3c0.4-0.2,0.7-0.5,0.9-0.9c0.7-1.3,0.3-2.9-1-3.6
				c-0.5-0.3-1-0.4-1.5-0.3c0.8-0.5,1.8-0.5,2.6,0C89.7,235.8,90.1,237.4,89.4,238.7z"/>
		</g>
	</g>
</g>
<g id="圖層_1">
</g>
<g id="Calque_23">
</g>
</svg>
