<?xml version="1.0" encoding="utf-8"?>
<!-- Generator: Adobe Illustrator 19.0.0, SVG Export Plug-In . SVG Version: 6.00 Build 0)  -->
<svg version="1.0" id="Calque_16" xmlns="http://www.w3.org/2000/svg" xmlns:xlink="http://www.w3.org/1999/xlink" x="0px" y="0px" width="300px" height="260px"
	 viewBox="0 0 300 260" style="enable-background:new 0 0 300 260;" xml:space="preserve">
<style type="text/css">
	.st0{fill:url(#XMLID_3_);}
	.st1{fill:#CCCCCC;}
	.st2{opacity:0.5;fill:#E5E5E5;}
	.st3{fill:#675B47;stroke:#353535;stroke-width:3;stroke-miterlimit:10;}
	.st4{fill:url(#XMLID_4_);}
	.st5{opacity:0.5;fill:url(#XMLID_5_);}
	.st6{opacity:0.5;fill:#FFFFFF;}
	.st7{fill:url(#XMLID_6_);}
	.st8{fill:url(#XMLID_8_);}
	.st9{fill:url(#XMLID_11_);}
	.st10{opacity:0.5;fill:url(#XMLID_12_);}
	.st11{fill:url(#XMLID_13_);}
	.st12{fill:url(#XMLID_14_);}
	.st13{fill:url(#XMLID_15_);}
	.st14{opacity:0.5;fill:url(#XMLID_16_);}
	.st15{fill:url(#XMLID_17_);}
	.st16{fill:url(#XMLID_19_);}
	.st17{fill:url(#XMLID_22_);}
	.st18{opacity:0.5;fill:url(#XMLID_23_);}
	.st19{fill:url(#XMLID_24_);}
	.st20{fill:url(#XMLID_25_);}
	.st21{fill:url(#XMLID_26_);}
	.st22{opacity:0.5;fill:url(#XMLID_27_);}
	.st23{fill:url(#XMLID_28_);}
	.st24{fill:url(#XMLID_29_);}
	.st25{fill:url(#XMLID_30_);}
	.st26{opacity:0.5;fill:url(#XMLID_32_);}
	.st27{fill:url(#XMLID_33_);}
	.st28{fill:url(#XMLID_34_);}
</style>
<g id="Calque_15_-_copie">
	<radialGradient id="XMLID_3_" cx="85.9925" cy="24.5" r="4.9659" gradientUnits="userSpaceOnUse">
		<stop  offset="0" style="stop-color:#959698"/>
		<stop  offset="0.3213" style="stop-color:#959697"/>
		<stop  offset="0.5416" style="stop-color:#939494"/>
		<stop  offset="0.7315" style="stop-color:#8F9090"/>
		<stop  offset="0.9032" style="stop-color:#89898A"/>
		<stop  offset="1" style="stop-color:#848484"/>
	</radialGradient>
	<circle id="XMLID_20_" class="st0" cx="86" cy="24.5" r="5"/>
	<circle id="XMLID_21_" class="st1" cx="86" cy="24.5" r="3"/>
	<path id="XMLID_51_" class="st2" d="M86,21.9c-0.9,0-1.7,0.5-2.2,1.2c0.4-0.2,0.8-0.4,1.3-0.4c1.4,0,2.6,1.2,2.6,2.6
		c0,0.5-0.2,1.1-0.4,1.5c0.8-0.5,1.3-1.3,1.3-2.3C88.6,23,87.5,21.9,86,21.9z"/>
</g>
<g id="Calque_15">
	<polygon id="XMLID_1_" class="st3" points="18.3,110.5 39.6,120.7 34,131.3 38.5,140.7 18.3,151.5 6.7,129.8 	"/>
	<radialGradient id="XMLID_4_" cx="23.25" cy="130.4228" r="16.0529" gradientUnits="userSpaceOnUse">
		<stop  offset="0" style="stop-color:#C5B798"/>
		<stop  offset="0.3429" style="stop-color:#C2B495"/>
		<stop  offset="0.5778" style="stop-color:#BBAC8C"/>
		<stop  offset="0.7804" style="stop-color:#B0A07F"/>
		<stop  offset="0.9638" style="stop-color:#A2916E"/>
		<stop  offset="1" style="stop-color:#9F8E6A"/>
	</radialGradient>
	<polygon id="XMLID_7_" class="st4" points="18.9,112.8 18.7,116.2 12.5,129.2 9,129.8 12,130.7 18.5,144.1 18.9,148.1 20.4,144.6 
		31.6,139.1 35,139.6 31.9,137.4 29.5,131.5 32.1,131.3 29.6,130.2 34.1,123.2 37.5,121.5 32.8,121.9 20.3,116.3 	"/>
	<linearGradient id="XMLID_5_" gradientUnits="userSpaceOnUse" x1="15.6305" y1="114.723" x2="23.7204" y2="128.7353">
		<stop  offset="0" style="stop-color:#FFFFFF"/>
		<stop  offset="1" style="stop-color:#FFFFFF;stop-opacity:0"/>
	</linearGradient>
	<polygon id="XMLID_9_" class="st5" points="18.9,112.8 19,116.3 12.5,130.1 21.9,129.8 32.3,122.8 19.5,116.2 	"/>
	<polygon id="XMLID_38_" class="st6" points="13.9,127.2 12.2,129.9 9.6,129.9 12.1,130.4 13.3,132.8 12.5,130.1 	"/>
	<polygon id="XMLID_39_" class="st6" points="17.7,140.9 18.9,144.1 19,147.1 19.8,144.6 22.4,143.3 19.6,144 	"/>
	<polygon id="XMLID_40_" class="st6" points="30.4,134.4 31.4,138.3 29.3,140.1 31.6,138.8 33.9,139.3 32,138 	"/>
	<polygon id="XMLID_18_" class="st6" points="29.5,132.9 29.2,131.3 31.4,131.1 29.4,130.3 30.3,128.2 28.5,130.8 	"/>
	<polygon id="XMLID_37_" class="st6" points="36.4,121.8 33,122.4 29.8,121.6 32.3,122.8 31.8,125.6 33.1,122.8 	"/>
	<radialGradient id="XMLID_6_" cx="22.25" cy="130" r="4.9659" gradientUnits="userSpaceOnUse">
		<stop  offset="0" style="stop-color:#616263"/>
		<stop  offset="0.3213" style="stop-color:#606162"/>
		<stop  offset="0.5416" style="stop-color:#5C5D5E"/>
		<stop  offset="0.7315" style="stop-color:#565758"/>
		<stop  offset="0.9032" style="stop-color:#4E4F50"/>
		<stop  offset="1" style="stop-color:#48494A"/>
	</radialGradient>
	<circle id="XMLID_52_" class="st7" cx="22.3" cy="130" r="5"/>
	<radialGradient id="XMLID_8_" cx="22.25" cy="130" r="2.959" gradientUnits="userSpaceOnUse">
		<stop  offset="0" style="stop-color:#AEAFAF"/>
		<stop  offset="0.3213" style="stop-color:#ACACAD"/>
		<stop  offset="0.5416" style="stop-color:#A5A5A6"/>
		<stop  offset="0.7315" style="stop-color:#999A9A"/>
		<stop  offset="0.9032" style="stop-color:#8A8A8A"/>
		<stop  offset="1" style="stop-color:#7E7F7F"/>
	</radialGradient>
	<circle id="XMLID_49_" class="st8" cx="22.3" cy="130" r="3"/>
	<path id="XMLID_31_" class="st2" d="M22.3,127.4c-0.9,0-1.7,0.5-2.2,1.2c0.4-0.2,0.8-0.4,1.3-0.4c1.4,0,2.6,1.2,2.6,2.6
		c0,0.5-0.2,1.1-0.4,1.5c0.8-0.5,1.3-1.3,1.3-2.3C24.9,128.5,23.7,127.4,22.3,127.4z"/>
</g>
<g id="Calque_15_-_copie_3">
	<polygon id="XMLID_73_" class="st3" points="281.1,110.5 259.9,120.7 265.4,131.3 260.9,140.7 281.1,151.5 292.7,129.8 	"/>
	
		<radialGradient id="XMLID_11_" cx="33.548" cy="130.4228" r="16.0529" gradientTransform="matrix(-1 0 0 1 309.7032 0)" gradientUnits="userSpaceOnUse">
		<stop  offset="0" style="stop-color:#C5B798"/>
		<stop  offset="0.3429" style="stop-color:#C2B495"/>
		<stop  offset="0.5778" style="stop-color:#BBAC8C"/>
		<stop  offset="0.7804" style="stop-color:#B0A07F"/>
		<stop  offset="0.9638" style="stop-color:#A2916E"/>
		<stop  offset="1" style="stop-color:#9F8E6A"/>
	</radialGradient>
	<polygon id="XMLID_72_" class="st9" points="280.5,112.8 280.7,116.2 286.9,129.2 290.4,129.8 287.4,130.7 280.9,144.1 
		280.5,148.1 279,144.6 267.8,139.1 264.4,139.6 267.5,137.4 269.9,131.5 267.4,131.3 269.8,130.2 265.3,123.2 261.9,121.5 
		266.6,121.9 279.1,116.3 	"/>
	
		<linearGradient id="XMLID_12_" gradientUnits="userSpaceOnUse" x1="25.9285" y1="114.723" x2="34.0184" y2="128.7353" gradientTransform="matrix(-1 0 0 1 309.7032 0)">
		<stop  offset="0" style="stop-color:#FFFFFF"/>
		<stop  offset="1" style="stop-color:#FFFFFF;stop-opacity:0"/>
	</linearGradient>
	<polygon id="XMLID_71_" class="st10" points="280.5,112.8 280.4,116.3 286.9,130.1 277.5,129.8 267.1,122.8 279.9,116.2 	"/>
	<polygon id="XMLID_70_" class="st6" points="285.5,127.2 287.2,129.9 289.8,129.9 287.3,130.4 286.1,132.8 286.9,130.1 	"/>
	<polygon id="XMLID_69_" class="st6" points="281.7,140.9 280.5,144.1 280.4,147.1 279.6,144.6 277,143.3 279.8,144 	"/>
	<polygon id="XMLID_54_" class="st6" points="269,134.4 268,138.3 270.1,140.1 267.8,138.8 265.5,139.3 267.4,138 	"/>
	<polygon id="XMLID_53_" class="st6" points="269.9,132.9 270.2,131.3 268,131.1 270,130.3 269.1,128.2 270.9,130.8 	"/>
	<polygon id="XMLID_50_" class="st6" points="263,121.8 266.4,122.4 269.6,121.6 267.1,122.8 267.6,125.6 266.3,122.8 	"/>
	
		<radialGradient id="XMLID_13_" cx="32.548" cy="130" r="4.9659" gradientTransform="matrix(-1 0 0 1 309.7032 0)" gradientUnits="userSpaceOnUse">
		<stop  offset="0" style="stop-color:#616263"/>
		<stop  offset="0.3213" style="stop-color:#606162"/>
		<stop  offset="0.5416" style="stop-color:#5C5D5E"/>
		<stop  offset="0.7315" style="stop-color:#565758"/>
		<stop  offset="0.9032" style="stop-color:#4E4F50"/>
		<stop  offset="1" style="stop-color:#48494A"/>
	</radialGradient>
	<circle id="XMLID_44_" class="st11" cx="277.2" cy="130" r="5"/>
	
		<radialGradient id="XMLID_14_" cx="32.548" cy="130" r="2.959" gradientTransform="matrix(-1 0 0 1 309.7032 0)" gradientUnits="userSpaceOnUse">
		<stop  offset="0" style="stop-color:#AEAFAF"/>
		<stop  offset="0.3213" style="stop-color:#ACACAD"/>
		<stop  offset="0.5416" style="stop-color:#A5A5A6"/>
		<stop  offset="0.7315" style="stop-color:#999A9A"/>
		<stop  offset="0.9032" style="stop-color:#8A8A8A"/>
		<stop  offset="1" style="stop-color:#7E7F7F"/>
	</radialGradient>
	<circle id="XMLID_42_" class="st12" cx="277.2" cy="130" r="3"/>
	<path id="XMLID_10_" class="st2" d="M277.1,127.4c0.9,0,1.7,0.5,2.2,1.2c-0.4-0.2-0.8-0.4-1.3-0.4c-1.4,0-2.6,1.2-2.6,2.6
		c0,0.5,0.2,1.1,0.4,1.5c-0.8-0.5-1.3-1.3-1.3-2.3C274.5,128.5,275.7,127.4,277.1,127.4z"/>
</g>
<g id="Calque_17">
	<g id="Calque_15_-_copie_4">
		<polygon id="XMLID_81_" class="st3" points="198.2,9.5 196.4,33 208.5,33.5 214.3,42 233.8,29.8 220.7,9 		"/>
		
			<radialGradient id="XMLID_15_" cx="96.6907" cy="25.3114" r="16.0529" gradientTransform="matrix(-0.4963 0.8681 0.8681 0.4963 239.0275 -72.8189)" gradientUnits="userSpaceOnUse">
			<stop  offset="0" style="stop-color:#C5B798"/>
			<stop  offset="0.3429" style="stop-color:#C2B495"/>
			<stop  offset="0.5778" style="stop-color:#BBAC8C"/>
			<stop  offset="0.7804" style="stop-color:#B0A07F"/>
			<stop  offset="0.9638" style="stop-color:#A2916E"/>
			<stop  offset="1" style="stop-color:#9F8E6A"/>
		</radialGradient>
		<polygon id="XMLID_80_" class="st13" points="199.8,11.2 203,12.6 217.3,13.7 219.5,11 218.8,14 227.3,26.4 230.5,28.7 
			226.7,28.3 216.4,35.2 215.2,38.4 214.8,34.6 210.8,29.6 209.4,31.8 209.7,29.1 201.4,29.5 198.2,31.6 200.8,27.7 202.3,14.1 		
			"/>
		
			<linearGradient id="XMLID_16_" gradientUnits="userSpaceOnUse" x1="89.0711" y1="9.6116" x2="97.1611" y2="23.6238" gradientTransform="matrix(-0.4963 0.8681 0.8681 0.4963 239.0275 -72.8189)">
			<stop  offset="0" style="stop-color:#FFFFFF"/>
			<stop  offset="1" style="stop-color:#FFFFFF;stop-opacity:0"/>
		</linearGradient>
		<polygon id="XMLID_79_" class="st14" points="199.9,11.2 202.8,13 218,14.2 213.2,22.2 202,27.7 202.5,13.4 		"/>
		<polygon id="XMLID_78_" class="st6" points="214.9,14 218,13.8 219.3,11.6 218.5,14 220,16.2 218,14.2 		"/>
		<polygon id="XMLID_77_" class="st6" points="224.9,24 227,26.7 229.6,28.3 227,27.7 224.6,29.3 226.6,27.3 		"/>
		<polygon id="XMLID_76_" class="st6" points="212.9,31.8 215.8,34.6 218.4,33.7 216.1,35 215.4,37.3 215.3,35 		"/>
		<polygon id="XMLID_75_" class="st6" points="212,30.4 210.9,29.3 209.5,31.1 209.8,29 207.6,28.7 210.7,28.5 		"/>
		<polygon id="XMLID_74_" class="st6" points="199,30.8 201.2,28.1 202.1,25 202,27.7 204.6,28.7 201.5,28.5 		"/>
		
			<radialGradient id="XMLID_17_" cx="95.6907" cy="24.8885" r="4.9659" gradientTransform="matrix(-0.4963 0.8681 0.8681 0.4963 239.0275 -72.8189)" gradientUnits="userSpaceOnUse">
			<stop  offset="0" style="stop-color:#616263"/>
			<stop  offset="0.3213" style="stop-color:#606162"/>
			<stop  offset="0.5416" style="stop-color:#5C5D5E"/>
			<stop  offset="0.7315" style="stop-color:#565758"/>
			<stop  offset="0.9032" style="stop-color:#4E4F50"/>
			<stop  offset="1" style="stop-color:#48494A"/>
		</radialGradient>
		<circle id="XMLID_65_" class="st15" cx="213.1" cy="22.6" r="5"/>
		
			<radialGradient id="XMLID_19_" cx="95.6907" cy="24.8885" r="2.959" gradientTransform="matrix(-0.4963 0.8681 0.8681 0.4963 239.0275 -72.8189)" gradientUnits="userSpaceOnUse">
			<stop  offset="0" style="stop-color:#AEAFAF"/>
			<stop  offset="0.3213" style="stop-color:#ACACAD"/>
			<stop  offset="0.5416" style="stop-color:#A5A5A6"/>
			<stop  offset="0.7315" style="stop-color:#999A9A"/>
			<stop  offset="0.9032" style="stop-color:#8A8A8A"/>
			<stop  offset="1" style="stop-color:#7E7F7F"/>
		</radialGradient>
		<circle id="XMLID_64_" class="st16" cx="213.1" cy="22.6" r="3"/>
		<path id="XMLID_63_" class="st2" d="M210.8,21.3c0.4-0.8,1.2-1.3,2.1-1.3c-0.4,0.2-0.7,0.5-0.9,0.9c-0.7,1.3-0.3,2.9,1,3.6
			c0.5,0.3,1,0.4,1.5,0.3c-0.8,0.5-1.8,0.5-2.6,0C210.5,24.2,210.1,22.6,210.8,21.3z"/>
	</g>
	<g id="Calque_15_-_copie_5">
		<polygon id="XMLID_89_" class="st3" points="102,9.5 103.8,33 91.8,33.5 85.9,42 66.4,29.8 79.5,9 		"/>
		
			<radialGradient id="XMLID_22_" cx="32.1668" cy="138.1683" r="16.0529" gradientTransform="matrix(0.4963 0.8681 -0.8681 0.4963 191.1946 -72.8189)" gradientUnits="userSpaceOnUse">
			<stop  offset="0" style="stop-color:#C5B798"/>
			<stop  offset="0.3429" style="stop-color:#C2B495"/>
			<stop  offset="0.5778" style="stop-color:#BBAC8C"/>
			<stop  offset="0.7804" style="stop-color:#B0A07F"/>
			<stop  offset="0.9638" style="stop-color:#A2916E"/>
			<stop  offset="1" style="stop-color:#9F8E6A"/>
		</radialGradient>
		<polygon id="XMLID_88_" class="st17" points="100.4,11.2 97.3,12.6 82.9,13.7 80.7,11 81.4,14 73,26.4 69.7,28.7 73.5,28.3 
			83.8,35.2 85,38.4 85.4,34.6 89.4,29.6 90.8,31.8 90.6,29.1 98.9,29.5 102,31.6 99.4,27.7 98,14.1 		"/>
		
			<linearGradient id="XMLID_23_" gradientUnits="userSpaceOnUse" x1="24.5473" y1="122.4685" x2="32.6373" y2="136.4807" gradientTransform="matrix(0.4963 0.8681 -0.8681 0.4963 191.1946 -72.8189)">
			<stop  offset="0" style="stop-color:#FFFFFF"/>
			<stop  offset="1" style="stop-color:#FFFFFF;stop-opacity:0"/>
		</linearGradient>
		<polygon id="XMLID_87_" class="st18" points="100.4,11.2 97.4,13 82.2,14.2 87.1,22.2 98.3,27.7 97.7,13.4 		"/>
		<polygon id="XMLID_86_" class="st6" points="85.3,14 82.2,13.8 80.9,11.6 81.7,14 80.2,16.2 82.2,14.2 		"/>
		<polygon id="XMLID_85_" class="st6" points="75.3,24 73.2,26.7 70.6,28.3 73.2,27.7 75.6,29.3 73.6,27.3 		"/>
		<polygon id="XMLID_84_" class="st6" points="87.3,31.8 84.4,34.6 81.8,33.7 84.1,35 84.8,37.3 84.9,35 		"/>
		<polygon id="XMLID_83_" class="st6" points="88.2,30.4 89.4,29.3 90.7,31.1 90.4,29 92.6,28.7 89.5,28.5 		"/>
		<polygon id="XMLID_82_" class="st6" points="101.2,30.8 99,28.1 98.2,25 98.3,27.7 95.6,28.7 98.7,28.5 		"/>
		
			<radialGradient id="XMLID_24_" cx="31.1668" cy="137.7454" r="4.9659" gradientTransform="matrix(0.4963 0.8681 -0.8681 0.4963 191.1946 -72.8189)" gradientUnits="userSpaceOnUse">
			<stop  offset="0" style="stop-color:#616263"/>
			<stop  offset="0.3213" style="stop-color:#606162"/>
			<stop  offset="0.5416" style="stop-color:#5C5D5E"/>
			<stop  offset="0.7315" style="stop-color:#565758"/>
			<stop  offset="0.9032" style="stop-color:#4E4F50"/>
			<stop  offset="1" style="stop-color:#48494A"/>
		</radialGradient>
		<circle id="XMLID_68_" class="st19" cx="87.1" cy="22.6" r="5"/>
		
			<radialGradient id="XMLID_25_" cx="31.1668" cy="137.7454" r="2.959" gradientTransform="matrix(0.4963 0.8681 -0.8681 0.4963 191.1946 -72.8189)" gradientUnits="userSpaceOnUse">
			<stop  offset="0" style="stop-color:#AEAFAF"/>
			<stop  offset="0.3213" style="stop-color:#ACACAD"/>
			<stop  offset="0.5416" style="stop-color:#A5A5A6"/>
			<stop  offset="0.7315" style="stop-color:#999A9A"/>
			<stop  offset="0.9032" style="stop-color:#8A8A8A"/>
			<stop  offset="1" style="stop-color:#7E7F7F"/>
		</radialGradient>
		<circle id="XMLID_67_" class="st20" cx="87.1" cy="22.6" r="3"/>
		<path id="XMLID_66_" class="st2" d="M89.4,21.3c-0.4-0.8-1.2-1.3-2.1-1.3c0.4,0.2,0.7,0.5,0.9,0.9c0.7,1.3,0.3,2.9-1,3.6
			c-0.5,0.3-1,0.4-1.5,0.3c0.8,0.5,1.8,0.5,2.6,0C89.7,24.2,90.1,22.6,89.4,21.3z"/>
	</g>
</g>
<g id="Calque_17_-_copie">
	<g id="Calque_15_-_copie_6_1_">
		<polygon id="XMLID_111_" class="st3" points="198.2,250.5 196.4,227 208.5,226.5 214.3,218 233.8,230.2 220.7,251 		"/>
		
			<radialGradient id="XMLID_26_" cx="-84.7485" cy="-78.4231" r="16.0529" gradientTransform="matrix(-0.4963 -0.8681 0.8681 -0.4963 239.0275 123.8053)" gradientUnits="userSpaceOnUse">
			<stop  offset="0" style="stop-color:#C5B798"/>
			<stop  offset="0.3429" style="stop-color:#C2B495"/>
			<stop  offset="0.5778" style="stop-color:#BBAC8C"/>
			<stop  offset="0.7804" style="stop-color:#B0A07F"/>
			<stop  offset="0.9638" style="stop-color:#A2916E"/>
			<stop  offset="1" style="stop-color:#9F8E6A"/>
		</radialGradient>
		<polygon id="XMLID_110_" class="st21" points="199.8,248.8 203,247.3 217.3,246.3 219.5,249 218.8,245.9 227.3,233.6 230.5,231.3 
			226.7,231.7 216.4,224.8 215.2,221.5 214.8,225.3 210.8,230.3 209.4,228.2 209.7,230.9 201.4,230.5 198.2,228.4 200.8,232.3 
			202.3,245.9 		"/>
		
			<linearGradient id="XMLID_27_" gradientUnits="userSpaceOnUse" x1="-92.368" y1="-94.1229" x2="-84.278" y2="-80.1107" gradientTransform="matrix(-0.4963 -0.8681 0.8681 -0.4963 239.0275 123.8053)">
			<stop  offset="0" style="stop-color:#FFFFFF"/>
			<stop  offset="1" style="stop-color:#FFFFFF;stop-opacity:0"/>
		</linearGradient>
		<polygon id="XMLID_109_" class="st22" points="199.9,248.8 202.8,247 218,245.8 213.2,237.8 202,232.2 202.5,246.6 		"/>
		<polygon id="XMLID_108_" class="st6" points="214.9,246 218,246.2 219.3,248.4 218.5,246 220,243.8 218,245.8 		"/>
		<polygon id="XMLID_107_" class="st6" points="224.9,236 227,233.3 229.6,231.7 227,232.3 224.6,230.6 226.6,232.7 		"/>
		<polygon id="XMLID_106_" class="st6" points="212.9,228.1 215.8,225.3 218.4,226.3 216.1,224.9 215.4,222.7 215.3,224.9 		"/>
		<polygon id="XMLID_105_" class="st6" points="212,229.6 210.9,230.7 209.5,228.9 209.8,231 207.6,231.3 210.7,231.5 		"/>
		<polygon id="XMLID_104_" class="st6" points="199,229.2 201.2,231.9 202.1,235 202,232.2 204.6,231.3 201.5,231.5 		"/>
		
			<radialGradient id="XMLID_28_" cx="-85.7485" cy="-78.8459" r="4.9659" gradientTransform="matrix(-0.4963 -0.8681 0.8681 -0.4963 239.0275 123.8053)" gradientUnits="userSpaceOnUse">
			<stop  offset="0" style="stop-color:#616263"/>
			<stop  offset="0.3213" style="stop-color:#606162"/>
			<stop  offset="0.5416" style="stop-color:#5C5D5E"/>
			<stop  offset="0.7315" style="stop-color:#565758"/>
			<stop  offset="0.9032" style="stop-color:#4E4F50"/>
			<stop  offset="1" style="stop-color:#48494A"/>
		</radialGradient>
		<circle id="XMLID_103_" class="st23" cx="213.1" cy="237.4" r="5"/>
		
			<radialGradient id="XMLID_29_" cx="-85.7485" cy="-78.8459" r="2.959" gradientTransform="matrix(-0.4963 -0.8681 0.8681 -0.4963 239.0275 123.8053)" gradientUnits="userSpaceOnUse">
			<stop  offset="0" style="stop-color:#AEAFAF"/>
			<stop  offset="0.3213" style="stop-color:#ACACAD"/>
			<stop  offset="0.5416" style="stop-color:#A5A5A6"/>
			<stop  offset="0.7315" style="stop-color:#999A9A"/>
			<stop  offset="0.9032" style="stop-color:#8A8A8A"/>
			<stop  offset="1" style="stop-color:#7E7F7F"/>
		</radialGradient>
		<circle id="XMLID_102_" class="st24" cx="213.1" cy="237.4" r="3"/>
		<path id="XMLID_101_" class="st2" d="M210.8,238.7c0.4,0.8,1.2,1.3,2.1,1.3c-0.4-0.2-0.7-0.5-0.9-0.9c-0.7-1.3-0.3-2.9,1-3.6
			c0.5-0.3,1-0.4,1.5-0.3c-0.8-0.5-1.8-0.5-2.6,0C210.5,235.8,210.1,237.4,210.8,238.7z"/>
	</g>
	<g id="Calque_15_-_copie_6">
		<polygon id="XMLID_112_" class="st3" points="102,250.5 103.8,227 91.8,226.5 85.9,218 66.4,230.2 79.5,251 		"/>
		
			<radialGradient id="XMLID_30_" cx="-149.2723" cy="34.4338" r="16.0529" gradientTransform="matrix(0.4963 -0.8681 -0.8681 -0.4963 191.1946 123.8053)" gradientUnits="userSpaceOnUse">
			<stop  offset="0" style="stop-color:#C5B798"/>
			<stop  offset="0.3429" style="stop-color:#C2B495"/>
			<stop  offset="0.5778" style="stop-color:#BBAC8C"/>
			<stop  offset="0.7804" style="stop-color:#B0A07F"/>
			<stop  offset="0.9638" style="stop-color:#A2916E"/>
			<stop  offset="1" style="stop-color:#9F8E6A"/>
		</radialGradient>
		<polygon id="XMLID_100_" class="st25" points="100.4,248.8 97.3,247.3 82.9,246.3 80.7,249 81.4,245.9 73,233.6 69.7,231.3 
			73.5,231.7 83.8,224.8 85,221.5 85.4,225.3 89.4,230.3 90.8,228.2 90.6,230.9 98.9,230.5 102,228.4 99.4,232.3 98,245.9 		"/>
		
			<linearGradient id="XMLID_32_" gradientUnits="userSpaceOnUse" x1="-156.8918" y1="18.734" x2="-148.8019" y2="32.7462" gradientTransform="matrix(0.4963 -0.8681 -0.8681 -0.4963 191.1946 123.8053)">
			<stop  offset="0" style="stop-color:#FFFFFF"/>
			<stop  offset="1" style="stop-color:#FFFFFF;stop-opacity:0"/>
		</linearGradient>
		<polygon id="XMLID_99_" class="st26" points="100.4,248.8 97.4,247 82.2,245.8 87.1,237.8 98.3,232.2 97.7,246.6 		"/>
		<polygon id="XMLID_98_" class="st6" points="85.3,246 82.2,246.2 80.9,248.4 81.7,246 80.2,243.8 82.2,245.8 		"/>
		<polygon id="XMLID_97_" class="st6" points="75.3,236 73.2,233.3 70.6,231.7 73.2,232.3 75.6,230.6 73.6,232.7 		"/>
		<polygon id="XMLID_96_" class="st6" points="87.3,228.1 84.4,225.3 81.8,226.3 84.1,224.9 84.8,222.7 84.9,224.9 		"/>
		<polygon id="XMLID_95_" class="st6" points="88.2,229.6 89.4,230.7 90.7,228.9 90.4,231 92.6,231.3 89.5,231.5 		"/>
		<polygon id="XMLID_94_" class="st6" points="101.2,229.2 99,231.9 98.2,235 98.3,232.2 95.6,231.3 98.7,231.5 		"/>
		
			<radialGradient id="XMLID_33_" cx="-150.2723" cy="34.0109" r="4.9659" gradientTransform="matrix(0.4963 -0.8681 -0.8681 -0.4963 191.1946 123.8053)" gradientUnits="userSpaceOnUse">
			<stop  offset="0" style="stop-color:#616263"/>
			<stop  offset="0.3213" style="stop-color:#606162"/>
			<stop  offset="0.5416" style="stop-color:#5C5D5E"/>
			<stop  offset="0.7315" style="stop-color:#565758"/>
			<stop  offset="0.9032" style="stop-color:#4E4F50"/>
			<stop  offset="1" style="stop-color:#48494A"/>
		</radialGradient>
		<circle id="XMLID_93_" class="st27" cx="87.1" cy="237.4" r="5"/>
		
			<radialGradient id="XMLID_34_" cx="-150.2723" cy="34.0109" r="2.959" gradientTransform="matrix(0.4963 -0.8681 -0.8681 -0.4963 191.1946 123.8053)" gradientUnits="userSpaceOnUse">
			<stop  offset="0" style="stop-color:#AEAFAF"/>
			<stop  offset="0.3213" style="stop-color:#ACACAD"/>
			<stop  offset="0.5416" style="stop-color:#A5A5A6"/>
			<stop  offset="0.7315" style="stop-color:#999A9A"/>
			<stop  offset="0.9032" style="stop-color:#8A8A8A"/>
			<stop  offset="1" style="stop-color:#7E7F7F"/>
		</radialGradient>
		<circle id="XMLID_92_" class="st28" cx="87.1" cy="237.4" r="3"/>
		<path id="XMLID_91_" class="st2" d="M89.4,238.7c-0.4,0.8-1.2,1.3-2.1,1.3c0.4-0.2,0.7-0.5,0.9-0.9c0.7-1.3,0.3-2.9-1-3.6
			c-0.5-0.3-1-0.4-1.5-0.3c0.8-0.5,1.8-0.5,2.6,0C89.7,235.8,90.1,237.4,89.4,238.7z"/>
	</g>
</g>
</svg>
