<?xml version="1.0" encoding="utf-8"?>
<!-- Generator: Adobe Illustrator 19.0.0, SVG Export Plug-In . SVG Version: 6.00 Build 0)  -->
<svg version="1.0" id="Calque_8" xmlns="http://www.w3.org/2000/svg" xmlns:xlink="http://www.w3.org/1999/xlink" x="0px" y="0px" width="300px" height="260px"
	 viewBox="0 0 300 260" style="enable-background:new 0 0 300 260;" xml:space="preserve">
<style type="text/css">
	.st0{fill:#2B2B2B;}
	.st1{fill:url(#XMLID_2_);}
	.st2{display:none;}
	.st3{display:inline;fill:none;stroke:#2B2B2B;stroke-width:7;stroke-miterlimit:10;}
	.st4{display:inline;fill:url(#XMLID_3_);}
	.st5{display:inline;fill:url(#XMLID_4_);}
	.st6{display:inline;opacity:0.5;fill:#E5E5E5;}
	.st7{display:inline;fill:#2B2B2B;}
	.st8{display:inline;fill:url(#XMLID_10_);}
</style>
<g id="圖層_1">
	<circle id="XMLID_123_" class="st0" cx="150" cy="130" r="67"/>
	<radialGradient id="XMLID_2_" cx="150" cy="130" r="62.3334" gradientUnits="userSpaceOnUse">
		<stop  offset="0" style="stop-color:#38383A"/>
		<stop  offset="0.2021" style="stop-color:#3F3F41"/>
		<stop  offset="0.5025" style="stop-color:#4D4D4E"/>
		<stop  offset="0.5526" style="stop-color:#535455"/>
		<stop  offset="0.6182" style="stop-color:#58595A"/>
		<stop  offset="0.6958" style="stop-color:#5A5B5C"/>
		<stop  offset="0.796" style="stop-color:#5B5D5D"/>
		<stop  offset="1" style="stop-color:#5B5D5D"/>
	</radialGradient>
	<circle id="XMLID_122_" class="st1" cx="150" cy="130" r="62.3"/>
</g>
<g id="圖層_1_-_copie" class="st2">
</g>
<g id="圖層_1_-_copie_3" class="st2">
</g>
<g id="圖層_1_-_copie_2" class="st2">
</g>
<g id="Calque_7" class="st2">
	<path id="XMLID_16_" class="st3" d="M150,130l-50.6,36.4c11.3,15.7,29.8,25.9,50.6,25.9s39.3-10.2,50.6-25.9L150,130z"/>
	<radialGradient id="XMLID_3_" cx="150" cy="161.1666" r="42.0133" gradientUnits="userSpaceOnUse">
		<stop  offset="0" style="stop-color:#D6D5D5"/>
		<stop  offset="0.3213" style="stop-color:#D4D3D2"/>
		<stop  offset="0.5416" style="stop-color:#CCCACA"/>
		<stop  offset="0.7315" style="stop-color:#BEBDBD"/>
		<stop  offset="0.9032" style="stop-color:#ACABAB"/>
		<stop  offset="1" style="stop-color:#9F9E9E"/>
	</radialGradient>
	<path id="XMLID_9_" class="st4" d="M150,130l-50.6,36.4c11.3,15.7,29.8,25.9,50.6,25.9s39.3-10.2,50.6-25.9L150,130z"/>
	<path id="XMLID_8_" class="st3" d="M99.5,93.5l50.9,36.6l50.4-36.3C189.4,78,170.9,67.7,150,67.7C129.2,67.7,110.8,77.8,99.5,93.5z
		"/>
	<radialGradient id="XMLID_4_" cx="150.1252" cy="98.8693" r="42.047" gradientUnits="userSpaceOnUse">
		<stop  offset="0" style="stop-color:#D6D5D5"/>
		<stop  offset="0.3213" style="stop-color:#D4D3D2"/>
		<stop  offset="0.5416" style="stop-color:#CCCACA"/>
		<stop  offset="0.7315" style="stop-color:#BEBDBD"/>
		<stop  offset="0.9032" style="stop-color:#ACABAB"/>
		<stop  offset="1" style="stop-color:#9F9E9E"/>
	</radialGradient>
	<path id="XMLID_7_" class="st5" d="M99.5,93.5l50.9,36.6l50.4-36.3C189.4,78,170.9,67.7,150,67.7C129.2,67.7,110.8,77.8,99.5,93.5z
		"/>
	<path id="XMLID_6_" class="st6" d="M155.5,93c2.8,9.6,1.8,26.9-2,30.1l42.9-31.4c-18.8-17.7-42.5-21.1-55.8-19.4
		C143.2,72.9,152.6,83,155.5,93z"/>
	<path id="XMLID_5_" class="st6" d="M144.9,166.4c-2.9-9.6-1.9-26.9,1.8-30.1l-42.8,31.5c18.8,17.6,42.6,20.9,55.8,19.2
		C157.2,186.4,147.8,176.4,144.9,166.4z"/>
</g>
<g id="Calque_2" class="st2">
	<circle id="XMLID_118_" class="st7" cx="150" cy="130" r="18.2"/>
	<radialGradient id="XMLID_10_" cx="150" cy="130" r="15.5" gradientUnits="userSpaceOnUse">
		<stop  offset="0" style="stop-color:#D6D5D5"/>
		<stop  offset="0.3213" style="stop-color:#D4D3D2"/>
		<stop  offset="0.5416" style="stop-color:#CCCACA"/>
		<stop  offset="0.7315" style="stop-color:#BEBDBD"/>
		<stop  offset="0.9032" style="stop-color:#ACABAB"/>
		<stop  offset="1" style="stop-color:#9F9E9E"/>
	</radialGradient>
	<circle id="XMLID_117_" class="st8" cx="150" cy="130" r="15.5"/>
	<path id="XMLID_127_" class="st6" d="M151.7,115.4c-5.3-0.4-10.1,2.1-12.8,6.1c2.9-1.6,6.3-2.4,10.1-1.5
		c5.9,1.4,10.3,6.5,10.8,12.5c0.3,3.4-0.6,6.5-2.4,9c4.4-2.5,7.4-7.3,7.1-12.9C164.2,121.7,158.6,115.9,151.7,115.4z"/>
</g>
</svg>
