<?xml version="1.0" encoding="utf-8"?>
<!-- Generator: Adobe Illustrator 19.0.0, SVG Export Plug-In . SVG Version: 6.00 Build 0)  -->
<svg version="1.0" xmlns="http://www.w3.org/2000/svg" xmlns:xlink="http://www.w3.org/1999/xlink" x="0px" y="0px" width="300px" height="260px"
	 viewBox="0 0 300 260" style="enable-background:new 0 0 300 260;" xml:space="preserve">
<style type="text/css">
	.st0{fill:url(#XMLID_3_);}
	.st1{fill:url(#XMLID_5_);}
	.st2{opacity:0.75;fill:#FFFFFF;enable-background:new    ;}
	.st3{opacity:0.73;fill:url(#XMLID_6_);}
</style>
<g id="energy">
	<g id="XMLID_274_">
		<radialGradient id="XMLID_3_" cx="153" cy="129.0227" r="44.2121" gradientUnits="userSpaceOnUse">
			<stop  offset="0" style="stop-color:#4487BA"/>
			<stop  offset="0.1917" style="stop-color:#4987B8"/>
			<stop  offset="0.3457" style="stop-color:#5788B5"/>
			<stop  offset="0.4866" style="stop-color:#6B89B2"/>
			<stop  offset="0.6197" style="stop-color:#838BAC"/>
			<stop  offset="0.7474" style="stop-color:#A18CA5"/>
			<stop  offset="0.8709" style="stop-color:#C38E9C"/>
			<stop  offset="0.9891" style="stop-color:#EE8F91"/>
			<stop  offset="1" style="stop-color:#F59090"/>
		</radialGradient>
		<path id="XMLID_11_" class="st0" d="M173.2,171.7h-40.4c-14,0-25.5-11.5-25.5-25.5v-34.5c0-14,11.5-25.5,25.5-25.5h40.4
			c14,0,25.5,11.5,25.5,25.5v34.5C198.7,160.3,187.2,171.7,173.2,171.7z"/>
	</g>
	<linearGradient id="XMLID_5_" gradientUnits="userSpaceOnUse" x1="153" y1="171.2113" x2="153" y2="86.8341">
		<stop  offset="0" style="stop-color:#F59090"/>
		<stop  offset="0.5" style="stop-color:#BB4545"/>
		<stop  offset="1" style="stop-color:#F59090"/>
	</linearGradient>
	<path id="XMLID_1_" class="st1" d="M172.9,171.2h-39.8c-13.1,0-23.9-10.7-23.9-23.9v-36.6c0-13.1,10.7-23.9,23.9-23.9h39.8
		c13.1,0,23.9,10.7,23.9,23.9v36.6C196.8,160.5,186,171.2,172.9,171.2z"/>
	<g id="Calque_1">
		<g id="thunder">
			<polygon id="XMLID_155_" class="st2" points="160.4,103.7 135.9,131.5 153.7,131.5 149.4,152 174.6,124.4 155.9,124.4 			"/>
		</g>
	</g>
	<linearGradient id="XMLID_6_" gradientUnits="userSpaceOnUse" x1="153.994" y1="139.4302" x2="149.2608" y2="85.3291">
		<stop  offset="0" style="stop-color:#FFFFFF"/>
		<stop  offset="1" style="stop-color:#FFFFFF;stop-opacity:0"/>
	</linearGradient>
	<path id="XMLID_4_" class="st3" d="M110.8,142c16.5-13.7,37-21.4,57.3-28.2c9.2-3.1,18.6-6.1,28.1-8.6c-2.5-10.5-12-18.3-23.2-18.3
		h-39.8c-13.1,0-23.9,10.7-23.9,23.9v32.6C109.7,142.9,110.3,142.4,110.8,142z"/>
</g>
<g id="attack">
</g>
</svg>
