<?xml version="1.0" encoding="utf-8"?>
<!-- Generator: Adobe Illustrator 19.0.0, SVG Export Plug-In . SVG Version: 6.00 Build 0)  -->
<svg version="1.0" xmlns="http://www.w3.org/2000/svg" xmlns:xlink="http://www.w3.org/1999/xlink" x="0px" y="0px" width="300px" height="260px"
	 viewBox="0 0 300 260" style="enable-background:new 0 0 300 260;" xml:space="preserve">
<style type="text/css">
	.st0{display:none;}
	.st1{display:inline;}
	.st2{display:inline;opacity:0.75;fill:#FFFFFF;}
	.st3{opacity:0.75;fill:#F79520;}
</style>
<g id="Calque_3" class="st0">
	<rect id="XMLID_1_" class="st1" width="300" height="260"/>
</g>
<g id="health" class="st0">
	<polygon id="XMLID_18_" class="st2" points="208.8,118.7 161.3,118.7 161.3,71.2 138.7,71.2 138.7,118.7 91.2,118.7 91.2,141.3 
		138.7,141.3 138.7,188.8 161.3,188.8 161.3,141.3 208.8,141.3 	"/>
</g>
<g id="fast" class="st0">
	<path id="XMLID_11_" class="st2" d="M208.7,164.2c0,0-3.9-2.1-4.9-16.9c-1-14.8-7.3-33.1-24.5-40.1c-16.3-6.6-47.5-10.1-76.6-33.6
		c-2.3,4.2-7.8,21.8,20.1,38.4s29.4,16.5,27.6,20c-1.3,2.6-12.5,9.8-61-23.7c2.2,9.7,25.3,43.6,43.2,46.9c16.7,3,24.7-6.5,27.9-1.8
		c3.1,4.7-2.5,11.5-18.2,10.9c-17.5-0.6-34.6-11.3-33.9-12.2c0,0,7.8,29.4,31.8,33.9C164.1,190.2,205.5,173,208.7,164.2z"/>
</g>
<g id="power" class="st0">
	<path id="XMLID_22_" class="st2" d="M119.5,149.4l28,16.2l-10.8,18.7c0,0-5.6,9.4-19.4,1.2s-8.6-17.4-8.6-17.4L119.5,149.4z"/>
	<path id="XMLID_15_" class="st2" d="M158.8,156.6c0,0,31.8-54.2,32.3-56c0.5-1.8-7.9-29.4-7.9-29.4l-29.4,7.9l-32.3,56l-9.3-5.4
		l-5.4,9.3l56,32.3l5.4-9.3L158.8,156.6z M149.5,151.2c0.1-0.2-18.7-10.8-18.7-10.8l32.3-56l14.7-3.9l3.9,14.7
		C181.8,95.2,149.4,151.4,149.5,151.2z"/>
</g>
<g id="money" class="st0">
	<path id="XMLID_8_" class="st2" d="M183.7,134.7c-3.2-4.6-9.6-8.1-19-10.5l-5.8-1.4V98.6c5.1,1.4,8.5,4.6,10.2,9.6l15.7-3.9
		c-1.7-6.3-5.7-11.2-11.9-14.7c-4.3-2.4-9-3.9-14.1-4.7V73.1h-13v11.7c-6.9,0.8-12.7,3.2-17.5,7.1c-6.1,5-9.1,11.5-9.1,19.7
		c0,4.1,0.9,8,2.6,11.6c1.7,3.6,4,6.4,6.9,8.4c2.9,2,7.3,3.8,13.3,5.3l3.8,1v27.2c-8.7-1.4-13.8-5.8-15.4-13.1l-16.1,3.4
		c2.2,8.1,6.8,14,13.6,17.8c5.3,2.9,11.2,4.7,17.8,5.4v10h13v-10.1c7.7-0.9,14.2-3.4,19.5-7.4c6.8-5.2,10.2-12.3,10.2-21.3
		C188.5,144.5,186.9,139.3,183.7,134.7z M136.2,109.2c0-3.3,1.4-6.1,4.1-8.2c1.5-1.2,3.3-2,5.5-2.5v20.9
		C139.4,117.1,136.2,113.8,136.2,109.2z M166.2,162.3c-1.9,1.4-4.4,2.4-7.4,3v-23.8l0.7,0.2c4.7,1.2,7.8,2.9,9.2,5
		c1.4,2.1,2.2,4.5,2.2,7C170.9,157.1,169.4,160,166.2,162.3z"/>
</g>
<g id="moneyGold">
	<path id="XMLID_2_" class="st3" d="M183.7,134.7c-3.2-4.6-9.6-8.1-19-10.5l-5.8-1.4V98.6c5.1,1.4,8.5,4.6,10.2,9.6l15.7-3.9
		c-1.7-6.3-5.7-11.2-11.9-14.7c-4.3-2.4-9-3.9-14.1-4.7V73.1h-13v11.7c-6.9,0.8-12.7,3.2-17.5,7.1c-6.1,5-9.1,11.5-9.1,19.7
		c0,4.1,0.9,8,2.6,11.6c1.7,3.6,4,6.4,6.9,8.4c2.9,2,7.3,3.8,13.3,5.3l3.8,1v27.2c-8.7-1.4-13.8-5.8-15.4-13.1l-16.1,3.4
		c2.2,8.1,6.8,14,13.6,17.8c5.3,2.9,11.2,4.7,17.8,5.4v10h13v-10.1c7.7-0.9,14.2-3.4,19.5-7.4c6.8-5.2,10.2-12.3,10.2-21.3
		C188.5,144.5,186.9,139.3,183.7,134.7z M136.2,109.2c0-3.3,1.4-6.1,4.1-8.2c1.5-1.2,3.3-2,5.5-2.5v20.9
		C139.4,117.1,136.2,113.8,136.2,109.2z M166.2,162.3c-1.9,1.4-4.4,2.4-7.4,3v-23.8l0.7,0.2c4.7,1.2,7.8,2.9,9.2,5
		c1.4,2.1,2.2,4.5,2.2,7C170.9,157.1,169.4,160,166.2,162.3z"/>
</g>
</svg>
