<?xml version="1.0" encoding="utf-8"?>
<!-- Generator: Adobe Illustrator 19.0.0, SVG Export Plug-In . SVG Version: 6.00 Build 0)  -->
<svg version="1.0" xmlns="http://www.w3.org/2000/svg" xmlns:xlink="http://www.w3.org/1999/xlink" x="0px" y="0px"
	 viewBox="0 0 300 260" style="enable-background:new 0 0 300 260;" xml:space="preserve">
<style type="text/css">
	.st0{display:none;}
	.st1{display:inline;}
	.st2{display:inline;opacity:0.75;fill:#FFFFFF;}
	.st3{opacity:0.75;fill:#FFFFFF;}
</style>
<g id="Calque_3" class="st0">
	<rect id="XMLID_1_" class="st1" width="300" height="260"/>
</g>
<g id="health" class="st0">
	<polygon id="XMLID_18_" class="st2" points="208.8,118.7 161.3,118.7 161.3,71.2 138.7,71.2 138.7,118.7 91.2,118.7 91.2,141.3 
		138.7,141.3 138.7,188.8 161.3,188.8 161.3,141.3 208.8,141.3 	"/>
</g>
<g id="fast" class="st0">
	<path id="XMLID_11_" class="st2" d="M208.7,164.2c0,0-3.9-2.1-4.9-16.9c-1-14.8-7.3-33.1-24.5-40.1c-16.3-6.6-47.5-10.1-76.6-33.6
		c-2.3,4.2-7.8,21.8,20.1,38.4s29.4,16.5,27.6,20c-1.3,2.6-12.5,9.8-61-23.7c2.2,9.7,25.3,43.6,43.2,46.9c16.7,3,24.7-6.5,27.9-1.8
		c3.1,4.7-2.5,11.5-18.2,10.9c-17.5-0.6-34.6-11.3-33.9-12.2c0,0,7.8,29.4,31.8,33.9C164.1,190.2,205.5,173,208.7,164.2z"/>
</g>
<g id="power" class="st0">
	<path id="XMLID_22_" class="st2" d="M119.5,149.4l28,16.2l-10.8,18.7c0,0-5.6,9.4-19.4,1.2s-8.6-17.4-8.6-17.4L119.5,149.4z"/>
	<path id="XMLID_15_" class="st2" d="M158.8,156.6c0,0,31.8-54.2,32.3-56c0.5-1.8-7.9-29.4-7.9-29.4l-29.4,7.9l-32.3,56l-9.3-5.4
		l-5.4,9.3l56,32.3l5.4-9.3L158.8,156.6z M149.5,151.2c0.1-0.2-18.7-10.8-18.7-10.8l32.3-56l14.7-3.9l3.9,14.7
		C181.8,95.2,149.4,151.4,149.5,151.2z"/>
</g>
<g id="money">
	<path id="XMLID_8_" class="st3" d="M184.9,135.9c-3.4-4.9-10.1-8.6-20-11.1l-6.1-1.5V98c5.3,1.5,8.9,4.8,10.8,10.1l16.5-4.1
		c-1.8-6.6-6-11.8-12.5-15.4c-4.5-2.5-9.5-4.1-14.8-4.9V71.2h-13.7v12.3c-7.2,0.9-13.3,3.4-18.4,7.4c-6.4,5.2-9.6,12.1-9.6,20.8
		c0,4.3,0.9,8.4,2.7,12.2c1.8,3.8,4.2,6.8,7.2,8.9c3,2.1,7.7,4,14,5.6l4,1v28.6c-9.1-1.5-14.5-6.1-16.2-13.8l-16.9,3.6
		c2.4,8.5,7.1,14.7,14.3,18.7c5.5,3.1,11.8,5,18.7,5.7v10.5h13.7v-10.6c8.1-0.9,14.9-3.5,20.5-7.8c7.1-5.4,10.7-12.9,10.7-22.4
		C190,146.2,188.3,140.8,184.9,135.9z M135,109.2c0-3.5,1.4-6.4,4.3-8.6c1.6-1.2,3.5-2.1,5.8-2.7v21.9
		C138.4,117.5,135,113.9,135,109.2z M166.5,164.9c-2,1.5-4.6,2.5-7.7,3.1v-25l0.8,0.2c4.9,1.3,8.2,3,9.7,5.3
		c1.5,2.2,2.3,4.7,2.3,7.3C171.5,159.5,169.8,162.5,166.5,164.9z"/>
</g>
</svg>
