<?xml version="1.0" encoding="utf-8"?>
<!-- Generator: Adobe Illustrator 19.0.0, SVG Export Plug-In . SVG Version: 6.00 Build 0)  -->
<svg version="1.0" xmlns="http://www.w3.org/2000/svg" xmlns:xlink="http://www.w3.org/1999/xlink" x="0px" y="0px" width="300px" height="260px"
	 viewBox="0 0 300 260" style="enable-background:new 0 0 300 260;" xml:space="preserve">
<style type="text/css">
	.st0{display:none;}
	.st1{display:inline;}
	.st2{opacity:0.7;fill:none;stroke:#FFFFFF;stroke-width:7;stroke-miterlimit:10;}
</style>
<g id="Calque_3" class="st0">
	<rect id="XMLID_1_" class="st1" width="300" height="260"/>
</g>
<g id="shield">
	<circle id="XMLID_2_" class="st2" cx="150" cy="130" r="57.2"/>
	<ellipse id="XMLID_3_" class="st2" cx="150" cy="130" rx="36.8" ry="57.2"/>
	<line id="XMLID_4_" class="st2" x1="92.8" y1="130" x2="207.2" y2="130"/>
	<line id="XMLID_5_" class="st2" x1="150" y1="72.8" x2="150" y2="187.2"/>
	<path id="XMLID_9_" class="st2" d="M150,158.3c-16,0-30.4,4.6-40.8,11.9c10.4,10.5,24.8,17.1,40.8,17.1s30.4-6.5,40.8-17.1
		C180.4,162.8,166,158.3,150,158.3z"/>
	<path id="XMLID_10_" class="st2" d="M150,101.2c15.8,0,30.1-4.5,40.5-11.7c-10.4-10.4-24.7-16.8-40.5-16.8s-30.1,6.4-40.5,16.8
		C119.9,96.8,134.2,101.2,150,101.2z"/>
</g>
</svg>
