<?xml version="1.0" encoding="utf-8"?>
<!-- Generator: Adobe Illustrator 19.0.0, SVG Export Plug-In . SVG Version: 6.00 Build 0)  -->
<svg version="1.0" xmlns="http://www.w3.org/2000/svg" xmlns:xlink="http://www.w3.org/1999/xlink" x="0px" y="0px" width="300px" height="260px"
	 viewBox="0 0 300 260" style="enable-background:new 0 0 300 260;" xml:space="preserve">
<style type="text/css">
	.st0{fill:none;stroke:#345226;stroke-width:8;stroke-miterlimit:10;}
	.st1{fill:#345226;}
</style>
<g id="border_-_copie_2">
	<g id="圖層_23_4_">
		<g id="XMLID_143_">
			<path id="XMLID_147_" class="st0" d="M204.4,245l-109-0.2c-8.5,0-16.4-4.5-20.6-11.6l-54.4-91.7c-4.2-7.2-4.2-16,0-23.2
				l54.6-91.7C79.2,19.4,87.1,15,95.6,15l109,0.2c8.5,0,16.4,4.5,20.6,11.6l54.4,91.7c4.2,7.2,4.2,16,0,23.2l-54.6,91.7
				C220.8,240.5,212.9,245,204.4,245z"/>
		</g>
	</g>
</g>
<g id="Calque_52">
	<g id="poison">
		<g id="Calque_53_1_">
			<g id="XMLID_140_">
				<path id="XMLID_142_" class="st1" d="M169.5,167.4l-1.3,6.5l-1.5-6.2l-8.1,0.1l-1.7,6.1l-1.8-5.8l-10.7-0.7l-1.6,6.6l-1.4-6.2
					l-8.9-0.5l-2.1,12.2c0,0,31.2,5.4,49.5,0l-2.7-12H169.5z"/>
				<path id="XMLID_504_" class="st1" d="M199.5,115.6c-3.5-36.8-24.4-31-43.4-31.5c-29.4-0.8-51.9,7.4-51.9,27.2
					c0,7.7,0,19.6,3.7,24.5c8.4,11.2,27.6,14.8,27.6,14.8l-2.7,15.6l8.9-0.8l1.7-6.4l1.1,6.2l11.3,0.1l0.4-7.1l2.4,6.9l7.8,0.2
					l1.9-7.8l1.1,8h7.4l-3.5-15.2C173.3,150.3,203,152.5,199.5,115.6z M134.1,126.9c-5.8,0-10.5-5-10.5-11.1
					c0-6.1,4.7-11.1,10.5-11.1c5.8,0,10.5,5,10.5,11.1C144.6,121.9,139.9,126.9,134.1,126.9z M152.4,135.3c-0.4,0.7-1.3,0.7-1.9,0.2
					c-0.6-0.6-1.5-1-1.6-1.6c-0.3-2.1,0-3.3,0-3.3s4-1,4.2,1.8C153.2,133.6,152.8,134.6,152.4,135.3z M160.4,134
					c-0.1,0.6-1,1-1.6,1.6c-0.6,0.5-1.5,0.5-1.9-0.2c-0.4-0.8-0.8-1.7-0.7-2.9c0.2-2.7,4.2-1.8,4.2-1.8S160.7,131.9,160.4,134z
					 M175.9,126.9c-5.8,0-10.5-5-10.5-11.1c0-6.1,4.7-11.1,10.5-11.1c5.8,0,10.5,5,10.5,11.1C186.4,121.9,181.7,126.9,175.9,126.9z"
					/>
			</g>
		</g>
	</g>
</g>
</svg>
