<?xml version="1.0" encoding="utf-8"?>
<!-- Generator: Adobe Illustrator 19.0.0, SVG Export Plug-In . SVG Version: 6.00 Build 0)  -->
<svg version="1.0" id="poison" xmlns="http://www.w3.org/2000/svg" xmlns:xlink="http://www.w3.org/1999/xlink" x="0px" y="0px" width="300px" height="260px"
	 viewBox="0 0 300 260" style="enable-background:new 0 0 300 260;" xml:space="preserve">
<style type="text/css">
	.st0{fill:none;stroke:#353535;stroke-width:12;stroke-miterlimit:10;}
	.st1{fill:none;stroke:#FEFFFF;stroke-width:4;stroke-miterlimit:10;}
	.st2{fill:url(#XMLID_2_);}
	.st3{fill:url(#XMLID_3_);}
	.st4{opacity:0.25;fill:url(#XMLID_4_);}
</style>
<g id="Calque_53_1_">
	<g id="XMLID_350_">
		<path id="XMLID_363_" class="st0" d="M168.2,164.2l-1.2,6.5l-1.5-6.1l-8,0.1l-1.6,6l-1.8-5.8l-10.6-0.7l-1.6,6.5l-1.4-6.2
			l-8.8-0.5l-2.1,12c0,0,30.9,5.4,49,0l-2.7-11.9H168.2z"/>
		<path id="XMLID_351_" class="st0" d="M197.9,113c-3.4-36.5-24.2-30.7-43-31.2c-29.1-0.8-51.4,7.3-51.4,26.9c0,7.7,0,19.4,3.7,24.3
			c8.3,11.1,27.3,14.7,27.3,14.7l-2.7,15.4l8.8-0.8l1.7-6.3l1.1,6.1l11.2,0.1l0.4-7l2.4,6.8l7.7,0.2l1.9-7.7l1.1,7.9h7.3l-3.4-15.1
			C171.9,147.3,201.4,149.5,197.9,113z M133.1,124.1c-5.7,0-10.4-4.9-10.4-11c0-6.1,4.7-11,10.4-11c5.7,0,10.4,4.9,10.4,11
			C143.5,119.2,138.9,124.1,133.1,124.1z M151.2,132.5c-0.4,0.7-1.3,0.7-1.9,0.2c-0.6-0.6-1.5-1-1.6-1.6c-0.3-2,0-3.3,0-3.3
			s4-0.9,4.2,1.8C152,130.8,151.7,131.7,151.2,132.5z M159.1,131.1c-0.1,0.6-1,1-1.6,1.6c-0.6,0.5-1.5,0.5-1.9-0.2
			c-0.4-0.7-0.8-1.7-0.7-2.9c0.2-2.7,4.2-1.8,4.2-1.8S159.4,129.1,159.1,131.1z M174.5,124.1c-5.7,0-10.4-4.9-10.4-11
			c0-6.1,4.7-11,10.4-11c5.7,0,10.4,4.9,10.4,11C184.9,119.2,180.2,124.1,174.5,124.1z"/>
	</g>
	<g id="XMLID_422_">
		<path id="XMLID_429_" class="st1" d="M168.2,164.2l-1.2,6.5l-1.5-6.1l-8,0.1l-1.6,6l-1.8-5.8l-10.6-0.7l-1.6,6.5l-1.4-6.2
			l-8.8-0.5l-2.1,12c0,0,30.9,5.4,49,0l-2.7-11.9H168.2z"/>
		<path id="XMLID_423_" class="st1" d="M197.9,113c-3.4-36.5-24.2-30.7-43-31.2c-29.1-0.8-51.4,7.3-51.4,26.9c0,7.7,0,19.4,3.7,24.3
			c8.3,11.1,27.3,14.7,27.3,14.7l-2.7,15.4l8.8-0.8l1.7-6.3l1.1,6.1l11.2,0.1l0.4-7l2.4,6.8l7.7,0.2l1.9-7.7l1.1,7.9h7.3l-3.4-15.1
			C171.9,147.3,201.4,149.5,197.9,113z M133.1,124.1c-5.7,0-10.4-4.9-10.4-11c0-6.1,4.7-11,10.4-11c5.7,0,10.4,4.9,10.4,11
			C143.5,119.2,138.9,124.1,133.1,124.1z M151.2,132.5c-0.4,0.7-1.3,0.7-1.9,0.2c-0.6-0.6-1.5-1-1.6-1.6c-0.3-2,0-3.3,0-3.3
			s4-0.9,4.2,1.8C152,130.8,151.7,131.7,151.2,132.5z M159.1,131.1c-0.1,0.6-1,1-1.6,1.6c-0.6,0.5-1.5,0.5-1.9-0.2
			c-0.4-0.7-0.8-1.7-0.7-2.9c0.2-2.7,4.2-1.8,4.2-1.8S159.4,129.1,159.1,131.1z M174.5,124.1c-5.7,0-10.4-4.9-10.4-11
			c0-6.1,4.7-11,10.4-11c5.7,0,10.4,4.9,10.4,11C184.9,119.2,180.2,124.1,174.5,124.1z"/>
	</g>
	<g id="XMLID_368_">
		<radialGradient id="XMLID_2_" cx="153.9406" cy="171.2269" r="18.061" gradientUnits="userSpaceOnUse">
			<stop  offset="0" style="stop-color:#5A834C"/>
			<stop  offset="0.2753" style="stop-color:#5C854B"/>
			<stop  offset="0.4964" style="stop-color:#648B48"/>
			<stop  offset="0.6987" style="stop-color:#719543"/>
			<stop  offset="0.8887" style="stop-color:#82A539"/>
			<stop  offset="1" style="stop-color:#90B330"/>
		</radialGradient>
		<path id="XMLID_421_" class="st2" d="M168.2,164.2l-1.2,6.5l-1.5-6.1l-8,0.1l-1.6,6l-1.8-5.8l-10.6-0.7l-1.6,6.5l-1.4-6.2
			l-8.8-0.5l-2.1,12c0,0,30.9,5.4,49,0l-2.7-11.9H168.2z"/>
		<radialGradient id="XMLID_3_" cx="150.8331" cy="122.3475" r="44.1359" gradientUnits="userSpaceOnUse">
			<stop  offset="0" style="stop-color:#5A834C"/>
			<stop  offset="0.2753" style="stop-color:#5C854B"/>
			<stop  offset="0.4964" style="stop-color:#648B48"/>
			<stop  offset="0.6987" style="stop-color:#719543"/>
			<stop  offset="0.8887" style="stop-color:#82A539"/>
			<stop  offset="1" style="stop-color:#90B330"/>
		</radialGradient>
		<path id="XMLID_399_" class="st3" d="M197.9,113c-3.4-36.5-24.2-30.7-43-31.2c-29.1-0.8-51.4,7.3-51.4,26.9c0,7.7,0,19.4,3.7,24.3
			c8.3,11.1,27.3,14.7,27.3,14.7l-2.7,15.4l8.8-0.8l1.7-6.3l1.1,6.1l11.2,0.1l0.4-7l2.4,6.8l7.7,0.2l1.9-7.7l1.1,7.9h7.3l-3.4-15.1
			C171.9,147.3,201.4,149.5,197.9,113z M133.1,124.1c-5.7,0-10.4-4.9-10.4-11c0-6.1,4.7-11,10.4-11c5.7,0,10.4,4.9,10.4,11
			C143.5,119.2,138.9,124.1,133.1,124.1z M151.2,132.5c-0.4,0.7-1.3,0.7-1.9,0.2c-0.6-0.6-1.5-1-1.6-1.6c-0.3-2,0-3.3,0-3.3
			s4-0.9,4.2,1.8C152,130.8,151.7,131.7,151.2,132.5z M159.1,131.1c-0.1,0.6-1,1-1.6,1.6c-0.6,0.5-1.5,0.5-1.9-0.2
			c-0.4-0.7-0.8-1.7-0.7-2.9c0.2-2.7,4.2-1.8,4.2-1.8S159.4,129.1,159.1,131.1z M174.5,124.1c-5.7,0-10.4-4.9-10.4-11
			c0-6.1,4.7-11,10.4-11c5.7,0,10.4,4.9,10.4,11C184.9,119.2,180.2,124.1,174.5,124.1z"/>
	</g>
</g>
<linearGradient id="XMLID_4_" gradientUnits="userSpaceOnUse" x1="154.203" y1="128.4186" x2="139.5679" y2="80.5495">
	<stop  offset="0" style="stop-color:#FFFFFF"/>
	<stop  offset="1" style="stop-color:#FFFFFF;stop-opacity:0"/>
</linearGradient>
<path id="XMLID_535_" class="st4" d="M154.9,81.7c-29.1-0.8-51.4,7.3-51.4,26.9c0,7.7,0,19.4,3.7,24.3c2.2,2.9,5.2,5.4,8.4,7.3
	c9.2-2.8,20.7-6.9,32.2-12.3c0-0.1,0-0.1,0-0.1s0.1,0,0.4-0.1c5.9-2.8,11.7-5.9,17.3-9.4c-0.8-1.6-1.3-3.4-1.3-5.3
	c0-6.1,4.7-11,10.4-11c3,0,5.7,1.3,7.6,3.5c4.1-3.9,7.6-8.1,10.5-12.6C184.4,79,169.1,82.1,154.9,81.7z M133.1,124.1
	c-5.7,0-10.4-4.9-10.4-11s4.7-11,10.4-11s10.4,4.9,10.4,11S138.9,124.1,133.1,124.1z"/>
</svg>
