<?xml version="1.0" encoding="utf-8"?>
<!-- Generator: Adobe Illustrator 19.0.0, SVG Export Plug-In . SVG Version: 6.00 Build 0)  -->
<svg version="1.0" id="Calque_126" xmlns="http://www.w3.org/2000/svg" xmlns:xlink="http://www.w3.org/1999/xlink" x="0px" y="0px" width="300px" height="260px"
	 viewBox="0 0 300 260" style="enable-background:new 0 0 300 260;" xml:space="preserve">
<style type="text/css">
	.st0{fill:none;stroke:#353535;stroke-width:5;stroke-miterlimit:10;}
	.st1{display:none;fill:none;stroke:#FFFFFF;stroke-width:2;stroke-miterlimit:10;}
	.st2{fill:url(#XMLID_2_);}
	.st3{fill:url(#XMLID_3_);}
	.st4{fill:url(#XMLID_4_);}
	.st5{fill:url(#XMLID_5_);}
	.st6{fill:url(#XMLID_6_);}
	.st7{fill:url(#XMLID_7_);}
	.st8{fill:url(#XMLID_8_);}
	.st9{fill:url(#XMLID_9_);}
	.st10{fill:none;stroke:#353535;stroke-width:3;stroke-miterlimit:10;}
	.st11{fill:url(#XMLID_10_);}
	.st12{opacity:0.5;fill:url(#XMLID_11_);}
	.st13{fill:url(#XMLID_12_);}
	.st14{fill:url(#XMLID_13_);}
	.st15{fill:url(#XMLID_14_);}
	.st16{fill:url(#XMLID_15_);}
	.st17{opacity:0.48;fill:#FFFFFF;}
	.st18{fill:url(#XMLID_16_);}
</style>
<g id="Calque_132">
	<g id="Calque_129">
		<path id="XMLID_735_" class="st0" d="M176.5,86.1c-10.8,0-19.6,8.8-19.6,19.6c0,10.8,8.8,19.6,19.6,19.6
			c10.8,0,19.6-8.8,19.6-19.6C196.1,94.9,187.4,86.1,176.5,86.1z M176.5,120.1c-8,0-14.4-6.5-14.4-14.4c0-8,6.5-14.4,14.4-14.4
			c8,0,14.4,6.5,14.4,14.4C191,113.7,184.5,120.1,176.5,120.1z"/>
		<path id="XMLID_317_" class="st1" d="M176.5,86.1c-10.8,0-19.6,8.8-19.6,19.6c0,10.8,8.8,19.6,19.6,19.6
			c10.8,0,19.6-8.8,19.6-19.6C196.1,94.9,187.4,86.1,176.5,86.1z M176.5,120.1c-8,0-14.4-6.5-14.4-14.4c0-8,6.5-14.4,14.4-14.4
			c8,0,14.4,6.5,14.4,14.4C191,113.7,184.5,120.1,176.5,120.1z"/>
		<linearGradient id="XMLID_2_" gradientUnits="userSpaceOnUse" x1="156.958" y1="105.6808" x2="196.1252" y2="105.6808">
			<stop  offset="0" style="stop-color:#90D9F8"/>
			<stop  offset="0.5" style="stop-color:#4487BA"/>
			<stop  offset="1" style="stop-color:#90D9F8"/>
		</linearGradient>
		<path id="XMLID_736_" class="st2" d="M176.5,86.1c-10.8,0-19.6,8.8-19.6,19.6c0,10.8,8.8,19.6,19.6,19.6
			c10.8,0,19.6-8.8,19.6-19.6C196.1,94.9,187.4,86.1,176.5,86.1z M176.5,120.1c-8,0-14.4-6.5-14.4-14.4c0-8,6.5-14.4,14.4-14.4
			c8,0,14.4,6.5,14.4,14.4C191,113.7,184.5,120.1,176.5,120.1z"/>
		<radialGradient id="XMLID_3_" cx="176.5416" cy="105.6808" r="19.5836" gradientUnits="userSpaceOnUse">
			<stop  offset="0.7291" style="stop-color:#FFFFFF;stop-opacity:3.416718e-002"/>
			<stop  offset="0.7805" style="stop-color:#A5DEF2;stop-opacity:0.3961"/>
			<stop  offset="0.8296" style="stop-color:#42C6E9;stop-opacity:0.7412"/>
			<stop  offset="0.8522" style="stop-color:#00BDE6;stop-opacity:0.9"/>
			<stop  offset="0.8707" style="stop-color:#00BEE6;stop-opacity:0.7591"/>
			<stop  offset="0.8881" style="stop-color:#18C2E8;stop-opacity:0.6268"/>
			<stop  offset="0.9051" style="stop-color:#4CC7EA;stop-opacity:0.4978"/>
			<stop  offset="0.9218" style="stop-color:#73CFED;stop-opacity:0.371"/>
			<stop  offset="0.9383" style="stop-color:#9CDBF1;stop-opacity:0.2457"/>
			<stop  offset="0.9544" style="stop-color:#C9EAF6;stop-opacity:0.1232"/>
			<stop  offset="0.9703" style="stop-color:#FEFFFF;stop-opacity:1.985490e-003"/>
			<stop  offset="0.9704" style="stop-color:#FFFFFF;stop-opacity:9.124206e-004"/>
		</radialGradient>
		<path id="XMLID_726_" class="st3" d="M176.5,86.1c-10.8,0-19.6,8.8-19.6,19.6c0,10.8,8.8,19.6,19.6,19.6
			c10.8,0,19.6-8.8,19.6-19.6C196.1,94.9,187.4,86.1,176.5,86.1z M176.5,120.1c-8,0-14.4-6.5-14.4-14.4c0-8,6.5-14.4,14.4-14.4
			c8,0,14.4,6.5,14.4,14.4C191,113.7,184.5,120.1,176.5,120.1z"/>
	</g>
	<g id="Calque_129_-_copie_4">
		<path id="XMLID_825_" class="st0" d="M176.5,137.1c-10.8,0-19.6,8.8-19.6,19.6c0,10.8,8.8,19.6,19.6,19.6
			c10.8,0,19.6-8.8,19.6-19.6C196.1,145.9,187.4,137.1,176.5,137.1z M176.5,171.1c-8,0-14.4-6.5-14.4-14.4c0-8,6.5-14.4,14.4-14.4
			c8,0,14.4,6.5,14.4,14.4C191,164.7,184.5,171.1,176.5,171.1z"/>
		<path id="XMLID_596_" class="st1" d="M176.5,137.1c-10.8,0-19.6,8.8-19.6,19.6c0,10.8,8.8,19.6,19.6,19.6
			c10.8,0,19.6-8.8,19.6-19.6C196.1,145.9,187.4,137.1,176.5,137.1z M176.5,171.1c-8,0-14.4-6.5-14.4-14.4c0-8,6.5-14.4,14.4-14.4
			c8,0,14.4,6.5,14.4,14.4C191,164.7,184.5,171.1,176.5,171.1z"/>
		<linearGradient id="XMLID_4_" gradientUnits="userSpaceOnUse" x1="156.958" y1="156.6808" x2="196.1252" y2="156.6808">
			<stop  offset="0" style="stop-color:#90D9F8"/>
			<stop  offset="0.5" style="stop-color:#4487BA"/>
			<stop  offset="1" style="stop-color:#90D9F8"/>
		</linearGradient>
		<path id="XMLID_364_" class="st4" d="M176.5,137.1c-10.8,0-19.6,8.8-19.6,19.6c0,10.8,8.8,19.6,19.6,19.6
			c10.8,0,19.6-8.8,19.6-19.6C196.1,145.9,187.4,137.1,176.5,137.1z M176.5,171.1c-8,0-14.4-6.5-14.4-14.4c0-8,6.5-14.4,14.4-14.4
			c8,0,14.4,6.5,14.4,14.4C191,164.7,184.5,171.1,176.5,171.1z"/>
		<radialGradient id="XMLID_5_" cx="176.5416" cy="156.6808" r="19.5836" gradientUnits="userSpaceOnUse">
			<stop  offset="0.7291" style="stop-color:#FFFFFF;stop-opacity:3.416718e-002"/>
			<stop  offset="0.7805" style="stop-color:#A5DEF2;stop-opacity:0.3961"/>
			<stop  offset="0.8296" style="stop-color:#42C6E9;stop-opacity:0.7412"/>
			<stop  offset="0.8522" style="stop-color:#00BDE6;stop-opacity:0.9"/>
			<stop  offset="0.8707" style="stop-color:#00BEE6;stop-opacity:0.7591"/>
			<stop  offset="0.8881" style="stop-color:#18C2E8;stop-opacity:0.6268"/>
			<stop  offset="0.9051" style="stop-color:#4CC7EA;stop-opacity:0.4978"/>
			<stop  offset="0.9218" style="stop-color:#73CFED;stop-opacity:0.371"/>
			<stop  offset="0.9383" style="stop-color:#9CDBF1;stop-opacity:0.2457"/>
			<stop  offset="0.9544" style="stop-color:#C9EAF6;stop-opacity:0.1232"/>
			<stop  offset="0.9703" style="stop-color:#FEFFFF;stop-opacity:1.985490e-003"/>
			<stop  offset="0.9704" style="stop-color:#FFFFFF;stop-opacity:9.124206e-004"/>
		</radialGradient>
		<path id="XMLID_320_" class="st5" d="M176.5,137.1c-10.8,0-19.6,8.8-19.6,19.6c0,10.8,8.8,19.6,19.6,19.6
			c10.8,0,19.6-8.8,19.6-19.6C196.1,145.9,187.4,137.1,176.5,137.1z M176.5,171.1c-8,0-14.4-6.5-14.4-14.4c0-8,6.5-14.4,14.4-14.4
			c8,0,14.4,6.5,14.4,14.4C191,164.7,184.5,171.1,176.5,171.1z"/>
	</g>
</g>
<g id="Calque_132_-_copie">
	<g id="Calque_129_-_copie">
		<path id="XMLID_855_" class="st0" d="M125.5,86.1c-10.8,0-19.6,8.8-19.6,19.6c0,10.8,8.8,19.6,19.6,19.6
			c10.8,0,19.6-8.8,19.6-19.6C145.1,94.9,136.4,86.1,125.5,86.1z M125.5,120.1c-8,0-14.4-6.5-14.4-14.4c0-8,6.5-14.4,14.4-14.4
			c8,0,14.4,6.5,14.4,14.4C140,113.7,133.5,120.1,125.5,120.1z"/>
		<path id="XMLID_852_" class="st1" d="M125.5,86.1c-10.8,0-19.6,8.8-19.6,19.6c0,10.8,8.8,19.6,19.6,19.6
			c10.8,0,19.6-8.8,19.6-19.6C145.1,94.9,136.4,86.1,125.5,86.1z M125.5,120.1c-8,0-14.4-6.5-14.4-14.4c0-8,6.5-14.4,14.4-14.4
			c8,0,14.4,6.5,14.4,14.4C140,113.7,133.5,120.1,125.5,120.1z"/>
		<linearGradient id="XMLID_6_" gradientUnits="userSpaceOnUse" x1="105.958" y1="105.6808" x2="145.1252" y2="105.6808">
			<stop  offset="0" style="stop-color:#90D9F8"/>
			<stop  offset="0.5" style="stop-color:#4487BA"/>
			<stop  offset="1" style="stop-color:#90D9F8"/>
		</linearGradient>
		<path id="XMLID_849_" class="st6" d="M125.5,86.1c-10.8,0-19.6,8.8-19.6,19.6c0,10.8,8.8,19.6,19.6,19.6
			c10.8,0,19.6-8.8,19.6-19.6C145.1,94.9,136.4,86.1,125.5,86.1z M125.5,120.1c-8,0-14.4-6.5-14.4-14.4c0-8,6.5-14.4,14.4-14.4
			c8,0,14.4,6.5,14.4,14.4C140,113.7,133.5,120.1,125.5,120.1z"/>
		<radialGradient id="XMLID_7_" cx="125.5416" cy="105.6808" r="19.5836" gradientUnits="userSpaceOnUse">
			<stop  offset="0.7291" style="stop-color:#FFFFFF;stop-opacity:3.416718e-002"/>
			<stop  offset="0.7805" style="stop-color:#A5DEF2;stop-opacity:0.3961"/>
			<stop  offset="0.8296" style="stop-color:#42C6E9;stop-opacity:0.7412"/>
			<stop  offset="0.8522" style="stop-color:#00BDE6;stop-opacity:0.9"/>
			<stop  offset="0.8707" style="stop-color:#00BEE6;stop-opacity:0.7591"/>
			<stop  offset="0.8881" style="stop-color:#18C2E8;stop-opacity:0.6268"/>
			<stop  offset="0.9051" style="stop-color:#4CC7EA;stop-opacity:0.4978"/>
			<stop  offset="0.9218" style="stop-color:#73CFED;stop-opacity:0.371"/>
			<stop  offset="0.9383" style="stop-color:#9CDBF1;stop-opacity:0.2457"/>
			<stop  offset="0.9544" style="stop-color:#C9EAF6;stop-opacity:0.1232"/>
			<stop  offset="0.9703" style="stop-color:#FEFFFF;stop-opacity:1.985490e-003"/>
			<stop  offset="0.9704" style="stop-color:#FFFFFF;stop-opacity:9.124206e-004"/>
		</radialGradient>
		<path id="XMLID_846_" class="st7" d="M125.5,86.1c-10.8,0-19.6,8.8-19.6,19.6c0,10.8,8.8,19.6,19.6,19.6
			c10.8,0,19.6-8.8,19.6-19.6C145.1,94.9,136.4,86.1,125.5,86.1z M125.5,120.1c-8,0-14.4-6.5-14.4-14.4c0-8,6.5-14.4,14.4-14.4
			c8,0,14.4,6.5,14.4,14.4C140,113.7,133.5,120.1,125.5,120.1z"/>
	</g>
	<g id="Calque_129_-_copie_5">
		<path id="XMLID_868_" class="st0" d="M125.5,137.1c-10.8,0-19.6,8.8-19.6,19.6c0,10.8,8.8,19.6,19.6,19.6
			c10.8,0,19.6-8.8,19.6-19.6C145.1,145.9,136.4,137.1,125.5,137.1z M125.5,171.1c-8,0-14.4-6.5-14.4-14.4c0-8,6.5-14.4,14.4-14.4
			c8,0,14.4,6.5,14.4,14.4C140,164.7,133.5,171.1,125.5,171.1z"/>
		<path id="XMLID_865_" class="st1" d="M125.5,137.1c-10.8,0-19.6,8.8-19.6,19.6c0,10.8,8.8,19.6,19.6,19.6
			c10.8,0,19.6-8.8,19.6-19.6C145.1,145.9,136.4,137.1,125.5,137.1z M125.5,171.1c-8,0-14.4-6.5-14.4-14.4c0-8,6.5-14.4,14.4-14.4
			c8,0,14.4,6.5,14.4,14.4C140,164.7,133.5,171.1,125.5,171.1z"/>
		<linearGradient id="XMLID_8_" gradientUnits="userSpaceOnUse" x1="105.958" y1="156.6808" x2="145.1252" y2="156.6808">
			<stop  offset="0" style="stop-color:#90D9F8"/>
			<stop  offset="0.5" style="stop-color:#4487BA"/>
			<stop  offset="1" style="stop-color:#90D9F8"/>
		</linearGradient>
		<path id="XMLID_862_" class="st8" d="M125.5,137.1c-10.8,0-19.6,8.8-19.6,19.6c0,10.8,8.8,19.6,19.6,19.6
			c10.8,0,19.6-8.8,19.6-19.6C145.1,145.9,136.4,137.1,125.5,137.1z M125.5,171.1c-8,0-14.4-6.5-14.4-14.4c0-8,6.5-14.4,14.4-14.4
			c8,0,14.4,6.5,14.4,14.4C140,164.7,133.5,171.1,125.5,171.1z"/>
		<radialGradient id="XMLID_9_" cx="125.5416" cy="156.6808" r="19.5836" gradientUnits="userSpaceOnUse">
			<stop  offset="0.7291" style="stop-color:#FFFFFF;stop-opacity:3.416718e-002"/>
			<stop  offset="0.7805" style="stop-color:#A5DEF2;stop-opacity:0.3961"/>
			<stop  offset="0.8296" style="stop-color:#42C6E9;stop-opacity:0.7412"/>
			<stop  offset="0.8522" style="stop-color:#00BDE6;stop-opacity:0.9"/>
			<stop  offset="0.8707" style="stop-color:#00BEE6;stop-opacity:0.7591"/>
			<stop  offset="0.8881" style="stop-color:#18C2E8;stop-opacity:0.6268"/>
			<stop  offset="0.9051" style="stop-color:#4CC7EA;stop-opacity:0.4978"/>
			<stop  offset="0.9218" style="stop-color:#73CFED;stop-opacity:0.371"/>
			<stop  offset="0.9383" style="stop-color:#9CDBF1;stop-opacity:0.2457"/>
			<stop  offset="0.9544" style="stop-color:#C9EAF6;stop-opacity:0.1232"/>
			<stop  offset="0.9703" style="stop-color:#FEFFFF;stop-opacity:1.985490e-003"/>
			<stop  offset="0.9704" style="stop-color:#FFFFFF;stop-opacity:9.124206e-004"/>
		</radialGradient>
		<path id="XMLID_859_" class="st9" d="M125.5,137.1c-10.8,0-19.6,8.8-19.6,19.6c0,10.8,8.8,19.6,19.6,19.6
			c10.8,0,19.6-8.8,19.6-19.6C145.1,145.9,136.4,137.1,125.5,137.1z M125.5,171.1c-8,0-14.4-6.5-14.4-14.4c0-8,6.5-14.4,14.4-14.4
			c8,0,14.4,6.5,14.4,14.4C140,164.7,133.5,171.1,125.5,171.1z"/>
	</g>
</g>
<g id="Calque_133">
	<circle id="XMLID_278_" class="st10" cx="151" cy="132.8" r="38.6"/>
</g>
<g id="factory">
	<linearGradient id="XMLID_10_" gradientUnits="userSpaceOnUse" x1="131.261" y1="132.8413" x2="170.2996" y2="132.8413">
		<stop  offset="0" style="stop-color:#90D9F8"/>
		<stop  offset="0.5" style="stop-color:#4487BA"/>
		<stop  offset="1" style="stop-color:#90D9F8"/>
	</linearGradient>
	<rect id="XMLID_119_" x="131.3" y="113.3" class="st11" width="39" height="39"/>
	<radialGradient id="XMLID_11_" cx="150.7803" cy="132.8413" r="14.7371" gradientUnits="userSpaceOnUse">
		<stop  offset="0.269" style="stop-color:#FFFFFF;stop-opacity:0"/>
		<stop  offset="0.6105" style="stop-color:#FFFFFF;stop-opacity:0.6512"/>
		<stop  offset="1" style="stop-color:#FFFFFF;stop-opacity:0.95"/>
	</radialGradient>
	<path id="XMLID_117_" class="st12" d="M164.5,135.2l-11.4,11.4c-1.3,1.3-3.4,1.3-4.7,0L137,135.2c-1.3-1.3-1.3-3.4,0-4.7l11.4-11.4
		c1.3-1.3,3.4-1.3,4.7,0l11.4,11.4C165.8,131.8,165.8,133.9,164.5,135.2z"/>
	<path id="XMLID_125_" d="M151,99.4c-18.4,0-33.4,15-33.4,33.4c0,18.4,15,33.4,33.4,33.4c18.4,0,33.4-15,33.4-33.4
		C184.4,114.4,169.5,99.4,151,99.4z M150.8,149.6l-16.7-16.7l16.7-16.7l16.7,16.7L150.8,149.6z"/>
	<radialGradient id="XMLID_12_" cx="151.0161" cy="132.8413" r="37.2822" gradientUnits="userSpaceOnUse">
		<stop  offset="0" style="stop-color:#D6D5D5"/>
		<stop  offset="0.3213" style="stop-color:#D4D3D2"/>
		<stop  offset="0.5416" style="stop-color:#CCCACA"/>
		<stop  offset="0.7315" style="stop-color:#BEBDBD"/>
		<stop  offset="0.9032" style="stop-color:#ACABAB"/>
		<stop  offset="1" style="stop-color:#9F9E9E"/>
	</radialGradient>
	<path id="XMLID_124_" class="st13" d="M151,95.6c-20.6,0-37.3,16.7-37.3,37.3c0,20.6,16.7,37.3,37.3,37.3
		c20.6,0,37.3-16.7,37.3-37.3C188.3,112.3,171.6,95.6,151,95.6z M150.8,151.5l-18.7-18.7l18.7-18.7l18.7,18.7L150.8,151.5z"/>
	<linearGradient id="XMLID_13_" gradientUnits="userSpaceOnUse" x1="114.6154" y1="132.8972" x2="151.9245" y2="132.8972">
		<stop  offset="0" style="stop-color:#FFFFFF"/>
		<stop  offset="0.665" style="stop-color:#FFFFFF;stop-opacity:0"/>
	</linearGradient>
	<path id="XMLID_832_" class="st14" d="M151.7,161.2c0.9-4.2-0.5-6.7-3.6-9.7l-0.9-0.5l-10.3-10.3c-4.8-4.8-9.1-6.2-4.3-11l14.6-15
		l0,0c2.8-2.7,4.8-5.3,4.3-9.1c-1.1-7.3-3.1-4.7-11.5-4.6c-1.5,0-3,0.3-4.4,0.9c-12.3,4.9-20.9,17-20.9,31
		c0,13.7,8.3,25.5,20.1,30.6c1.5,0.3,3,0.6,4.5,1C147.7,164.8,150.3,167.5,151.7,161.2z"/>
	
		<linearGradient id="XMLID_14_" gradientUnits="userSpaceOnUse" x1="473.162" y1="132.3211" x2="510.4711" y2="132.3211" gradientTransform="matrix(-1 0 0 1 660.5129 0)">
		<stop  offset="0" style="stop-color:#FFFFFF"/>
		<stop  offset="0.665" style="stop-color:#FFFFFF;stop-opacity:0"/>
	</linearGradient>
	<path id="XMLID_131_" class="st15" d="M150.3,160.6c-0.9-4.2,0.5-6.7,3.6-9.7l0.9-0.5l10.3-10.3c4.8-4.8,9.1-6.2,4.3-11l-14.6-15
		l0,0c-2.8-2.7-4.8-5.3-4.3-9.1c1.1-7.3,3.1-4.7,11.5-4.6c1.5,0,3,0.3,4.4,0.9c12.3,4.9,20.9,17,20.9,31c0,13.7-8.3,25.5-20.1,30.6
		c-1.5,0.3-3,0.6-4.5,1C154.3,164.2,151.6,167,150.3,160.6z"/>
	<radialGradient id="XMLID_15_" cx="150.6833" cy="132.3211" r="31.6486" gradientUnits="userSpaceOnUse">
		<stop  offset="0" style="stop-color:#959698"/>
		<stop  offset="0.3213" style="stop-color:#959697"/>
		<stop  offset="0.5416" style="stop-color:#939494"/>
		<stop  offset="0.7315" style="stop-color:#8F9090"/>
		<stop  offset="0.9032" style="stop-color:#89898A"/>
		<stop  offset="1" style="stop-color:#848484"/>
	</radialGradient>
	<path id="XMLID_824_" class="st16" d="M150.7,100.7c-17.5,0-31.6,14.2-31.6,31.6s14.2,31.6,31.6,31.6s31.6-14.2,31.6-31.6
		S168.2,100.7,150.7,100.7z M150.7,163c-17,0-30.7-13.7-30.7-30.7s13.7-30.7,30.7-30.7s30.7,13.7,30.7,30.7S167.6,163,150.7,163z"/>
	<g id="Calque_131">
		<path id="XMLID_130_" class="st17" d="M151,146.5L151,146.5c-0.7,0-1.3-0.6-1.3-1.3v-24.5c0-0.7,0.6-1.3,1.3-1.3l0,0
			c0.7,0,1.3,0.6,1.3,1.3v24.5C152.3,145.9,151.7,146.5,151,146.5z"/>
		<path id="XMLID_127_" class="st17" d="M155,142.5L155,142.5c-0.7,0-1.3-0.6-1.3-1.3v-16.5c0-0.7,0.6-1.3,1.3-1.3l0,0
			c0.7,0,1.3,0.6,1.3,1.3v16.5C156.3,141.9,155.7,142.5,155,142.5z"/>
		<path id="XMLID_216_" class="st17" d="M159,140.2L159,140.2c-0.7,0-1.3-0.6-1.3-1.3V127c0-0.7,0.6-1.3,1.3-1.3l0,0
			c0.7,0,1.3,0.6,1.3,1.3v11.9C160.3,139.6,159.7,140.2,159,140.2z"/>
		<path id="XMLID_275_" class="st17" d="M163,136.1L163,136.1c-0.7,0-1.3-0.6-1.3-1.3v-3.8c0-0.7,0.6-1.3,1.3-1.3l0,0
			c0.7,0,1.3,0.6,1.3,1.3v3.8C164.3,135.6,163.7,136.1,163,136.1z"/>
		<path id="XMLID_118_" class="st17" d="M147,142.5L147,142.5c-0.7,0-1.3-0.6-1.3-1.3v-16.5c0-0.7,0.6-1.3,1.3-1.3l0,0
			c0.7,0,1.3,0.6,1.3,1.3v16.5C148.3,141.9,147.7,142.5,147,142.5z"/>
		<path id="XMLID_120_" class="st17" d="M143,140.2L143,140.2c-0.7,0-1.3-0.6-1.3-1.3V127c0-0.7,0.6-1.3,1.3-1.3l0,0
			c0.7,0,1.3,0.6,1.3,1.3v11.9C144.3,139.6,143.7,140.2,143,140.2z"/>
		<path id="XMLID_122_" class="st17" d="M139,136.1L139,136.1c-0.7,0-1.3-0.6-1.3-1.3v-3.8c0-0.7,0.6-1.3,1.3-1.3l0,0
			c0.7,0,1.3,0.6,1.3,1.3v3.8C140.3,135.6,139.7,136.1,139,136.1z"/>
	</g>
	<radialGradient id="XMLID_16_" cx="150.8049" cy="132.8413" r="25.7367" gradientUnits="userSpaceOnUse">
		<stop  offset="0" style="stop-color:#00B1E6"/>
		<stop  offset="6.025976e-002" style="stop-color:#00B1E7;stop-opacity:0.9397"/>
		<stop  offset="1" style="stop-color:#00B2F0;stop-opacity:0"/>
	</radialGradient>
	<circle id="XMLID_276_" class="st18" cx="150.8" cy="132.8" r="25.7"/>
</g>
<g id="Calque_124_-_copie">
</g>
</svg>
