<?xml version="1.0" encoding="utf-8"?>
<!-- Generator: Adobe Illustrator 19.0.0, SVG Export Plug-In . SVG Version: 6.00 Build 0)  -->
<svg version="1.0" id="Calque_126" xmlns="http://www.w3.org/2000/svg" xmlns:xlink="http://www.w3.org/1999/xlink" x="0px" y="0px" width="300px" height="260px"
	 viewBox="0 0 300 260" style="enable-background:new 0 0 300 260;" xml:space="preserve">
<style type="text/css">
	.st0{fill:url(#XMLID_2_);}
	.st1{opacity:0.48;fill:#353434;}
</style>
<g id="Calque_124_-_copie">
</g>
<radialGradient id="XMLID_2_" cx="150.7133" cy="133.4832" r="50.7333" gradientUnits="userSpaceOnUse">
	<stop  offset="0" style="stop-color:#00B1E6"/>
	<stop  offset="0.3311" style="stop-color:#00B1EA;stop-opacity:0.6689"/>
	<stop  offset="1" style="stop-color:#00B2F0;stop-opacity:0"/>
</radialGradient>
<circle id="XMLID_276_" class="st0" cx="150.7" cy="133.5" r="50.7"/>
<g id="Calque_131">
	<path id="XMLID_130_" class="st1" d="M151.2,152.3h-1c-0.7,0-1.3-0.6-1.3-1.3v-35c0-0.7,0.6-1.3,1.3-1.3h1c0.7,0,1.3,0.6,1.3,1.3
		v35C152.5,151.7,151.9,152.3,151.2,152.3z"/>
	<path id="XMLID_127_" class="st1" d="M156.8,146.7h-1c-0.7,0-1.3-0.6-1.3-1.3v-23.9c0-0.7,0.6-1.3,1.3-1.3h1c0.7,0,1.3,0.6,1.3,1.3
		v23.9C158,146.1,157.5,146.7,156.8,146.7z"/>
	<path id="XMLID_216_" class="st1" d="M162.3,143.5h-1c-0.7,0-1.3-0.6-1.3-1.3v-17.4c0-0.7,0.6-1.3,1.3-1.3h1c0.7,0,1.3,0.6,1.3,1.3
		v17.4C163.6,142.9,163,143.5,162.3,143.5z"/>
	<path id="XMLID_275_" class="st1" d="M167.8,137.9h-1c-0.7,0-1.3-0.6-1.3-1.3v-6.3c0-0.7,0.6-1.3,1.3-1.3h1c0.7,0,1.3,0.6,1.3,1.3
		v6.3C169.1,137.3,168.5,137.9,167.8,137.9z"/>
	<path id="XMLID_118_" class="st1" d="M145.7,146.7h-1c-0.7,0-1.3-0.6-1.3-1.3v-23.9c0-0.7,0.6-1.3,1.3-1.3h1c0.7,0,1.3,0.6,1.3,1.3
		v23.9C146.9,146.1,146.4,146.7,145.7,146.7z"/>
	<path id="XMLID_120_" class="st1" d="M140.1,143.5h-1c-0.7,0-1.3-0.6-1.3-1.3v-17.4c0-0.7,0.6-1.3,1.3-1.3h1c0.7,0,1.3,0.6,1.3,1.3
		v17.4C141.4,142.9,140.8,143.5,140.1,143.5z"/>
	<path id="XMLID_122_" class="st1" d="M134.6,137.9h-1c-0.7,0-1.3-0.6-1.3-1.3v-6.3c0-0.7,0.6-1.3,1.3-1.3h1c0.7,0,1.3,0.6,1.3,1.3
		v6.3C135.8,137.3,135.3,137.9,134.6,137.9z"/>
</g>
</svg>
