<?xml version="1.0" encoding="utf-8"?>
<!-- Generator: Adobe Illustrator 19.0.0, SVG Export Plug-In . SVG Version: 6.00 Build 0)  -->
<svg version="1.0" xmlns="http://www.w3.org/2000/svg" xmlns:xlink="http://www.w3.org/1999/xlink" x="0px" y="0px" width="300px" height="260px"
	 viewBox="0 0 300 260" style="enable-background:new 0 0 300 260;" xml:space="preserve">
<style type="text/css">
	.st0{fill:none;stroke:#3D3937;stroke-width:5;stroke-miterlimit:10;}
	.st1{display:none;fill:none;stroke:#FFFFFF;stroke-width:2;stroke-miterlimit:10;}
	.st2{fill:url(#XMLID_2_);}
	.st3{fill:url(#XMLID_3_);}
	.st4{opacity:0.5;fill:#15192F;}
</style>
<g id="Calque_1">
</g>
<g id="Calque_4">
	<g id="Calque_129_-_copie_5">
		<path id="XMLID_868_" class="st0" d="M130.7,110.8c-10.6,10.6-10.5,27.8,0.1,38.4c10.6,10.6,27.8,10.5,38.4-0.1
			c10.6-10.6,10.5-27.8-0.1-38.4C158.5,100.1,141.3,100.2,130.7,110.8z M164.2,144.1c-7.8,7.8-20.5,7.9-28.3,0.1
			c-7.8-7.8-7.9-20.5-0.1-28.3c7.8-7.8,20.5-7.9,28.3-0.1C172,123.5,172,136.2,164.2,144.1z"/>
		<path id="XMLID_865_" class="st1" d="M130.7,110.8c-10.6,10.6-10.5,27.8,0.1,38.4c10.6,10.6,27.8,10.5,38.4-0.1
			c10.6-10.6,10.5-27.8-0.1-38.4C158.5,100.1,141.3,100.2,130.7,110.8z M164.2,144.1c-7.8,7.8-20.5,7.9-28.3,0.1
			c-7.8-7.8-7.9-20.5-0.1-28.3c7.8-7.8,20.5-7.9,28.3-0.1C172,123.5,172,136.2,164.2,144.1z"/>
		
			<linearGradient id="XMLID_2_" gradientUnits="userSpaceOnUse" x1="125.0111" y1="130.3824" x2="179.3214" y2="130.3824" gradientTransform="matrix(0.7049 -0.7093 0.7093 0.7049 -49.7436 145.9542)">
			<stop  offset="0" style="stop-color:#A4DBF8"/>
			<stop  offset="0.5" style="stop-color:#4C8BBE"/>
			<stop  offset="1" style="stop-color:#A4DBF8"/>
		</linearGradient>
		<path id="XMLID_862_" class="st2" d="M130.7,110.8c-10.6,10.6-10.5,27.8,0.1,38.4c10.6,10.6,27.8,10.5,38.4-0.1
			c10.6-10.6,10.5-27.8-0.1-38.4C158.5,100.1,141.3,100.2,130.7,110.8z M164.2,144.1c-7.8,7.8-20.5,7.9-28.3,0.1
			c-7.8-7.8-7.9-20.5-0.1-28.3c7.8-7.8,20.5-7.9,28.3-0.1C172,123.5,172,136.2,164.2,144.1z"/>
		
			<radialGradient id="XMLID_3_" cx="152.1662" cy="130.3824" r="27.1551" gradientTransform="matrix(0.7049 -0.7093 0.7093 0.7049 -49.7436 145.9542)" gradientUnits="userSpaceOnUse">
			<stop  offset="0.7291" style="stop-color:#FFFFFF;stop-opacity:3.416718e-002"/>
			<stop  offset="0.7805" style="stop-color:#B6E1F5;stop-opacity:0.3961"/>
			<stop  offset="0.8296" style="stop-color:#55C3E9;stop-opacity:0.7412"/>
			<stop  offset="0.8522" style="stop-color:#00B7E4;stop-opacity:0.9"/>
			<stop  offset="0.8707" style="stop-color:#00B9E5;stop-opacity:0.7591"/>
			<stop  offset="0.8881" style="stop-color:#36BDE7;stop-opacity:0.6268"/>
			<stop  offset="0.9051" style="stop-color:#5FC5EA;stop-opacity:0.4978"/>
			<stop  offset="0.9218" style="stop-color:#87D0EF;stop-opacity:0.371"/>
			<stop  offset="0.9383" style="stop-color:#AEDEF4;stop-opacity:0.2457"/>
			<stop  offset="0.9544" style="stop-color:#D6EDFA;stop-opacity:0.1232"/>
			<stop  offset="0.9703" style="stop-color:#FFFFFF;stop-opacity:1.985490e-003"/>
			<stop  offset="0.9704" style="stop-color:#FFFFFF;stop-opacity:9.124206e-004"/>
		</radialGradient>
		<path id="XMLID_859_" class="st3" d="M130.7,110.8c-10.6,10.6-10.5,27.8,0.1,38.4c10.6,10.6,27.8,10.5,38.4-0.1
			c10.6-10.6,10.5-27.8-0.1-38.4C158.5,100.1,141.3,100.2,130.7,110.8z M164.2,144.1c-7.8,7.8-20.5,7.9-28.3,0.1
			c-7.8-7.8-7.9-20.5-0.1-28.3c7.8-7.8,20.5-7.9,28.3-0.1C172,123.5,172,136.2,164.2,144.1z"/>
		<path id="XMLID_6_" class="st4" d="M170,148.4C170,148.4,169.9,148.4,170,148.4c-3.3-2.2-7.5-2.3-11-0.5c-5.6,2.9-12.4,2.9-18,0
			c-3.5-1.8-7.7-1.7-10.9,0.5c0,0,0,0-0.1,0c0.3,0.3,0.5,0.6,0.8,0.8c10.6,10.6,27.8,10.5,38.4-0.1
			C169.5,148.9,169.7,148.7,170,148.4z"/>
	</g>
</g>
</svg>
