<?xml version="1.0" encoding="utf-8"?>
<!-- Generator: Adobe Illustrator 19.0.0, SVG Export Plug-In . SVG Version: 6.00 Build 0)  -->
<svg version="1.0" id="Calque_126" xmlns="http://www.w3.org/2000/svg" xmlns:xlink="http://www.w3.org/1999/xlink" x="0px" y="0px" width="300px" height="260px"
	 viewBox="0 0 300 260" style="enable-background:new 0 0 300 260;" xml:space="preserve">
<style type="text/css">
	.st0{display:none;}
	.st1{fill:none;stroke:#353535;stroke-width:7;stroke-miterlimit:10;}
	.st2{fill:none;stroke:#FFFFFF;stroke-width:7;stroke-miterlimit:10;}
	.st3{fill:none;stroke:#9E9D9D;stroke-width:7;stroke-miterlimit:10;}
	.st4{display:inline;fill:none;stroke:#353535;stroke-width:10;stroke-miterlimit:10;}
	.st5{display:inline;fill:none;stroke:#353535;stroke-width:8;stroke-miterlimit:10;}
	.st6{display:inline;fill:url(#XMLID_16_);}
	.st7{fill:url(#XMLID_20_);}
	.st8{fill:none;stroke:#353535;stroke-width:12;stroke-miterlimit:10;}
	.st9{fill:none;stroke:#FFFFFF;stroke-width:5;stroke-miterlimit:10;}
	.st10{fill:url(#XMLID_21_);}
	.st11{opacity:0.25;fill:url(#XMLID_22_);}
	.st12{opacity:0.25;fill:url(#XMLID_23_);}
	.st13{display:none;fill:url(#XMLID_24_);}
	.st14{display:inline;opacity:0.48;fill:#FFFFFF;}
	.st15{fill:url(#XMLID_25_);}
	.st16{fill:none;stroke:#FDFDFE;stroke-width:4;stroke-miterlimit:10;}
	.st17{fill:none;stroke:#E5E5E5;stroke-width:4;stroke-miterlimit:10;}
</style>
<g id="Calque_133" class="st0">
	<circle id="XMLID_278_" class="st1" cx="150.9" cy="133.5" r="76.7"/>
	<circle id="XMLID_8_" class="st2" cx="150.9" cy="133.5" r="70.3"/>
	<circle id="XMLID_9_" class="st1" cx="150.9" cy="133.5" r="67.2"/>
	<circle id="XMLID_5_" class="st3" cx="150.9" cy="133.5" r="63.4"/>
	<path id="XMLID_2_" class="st4" d="M177.4,198.2c0-29.9,22.7-54.5,51.8-57.6c0.2-2.4,0.3-4.8,0.3-7.2c0-3.5-0.2-6.9-0.7-10.2
		c-28.9-3.2-51.4-27.7-51.4-57.5c0-2.1,0.1-4.1,0.3-6.1c-8.3-3-17.3-4.7-26.7-4.7c-9.3,0-18.2,1.6-26.5,4.6c0.2,2,0.3,4.1,0.3,6.2
		c0,29.9-22.6,54.5-51.7,57.6c-0.4,3.3-0.7,6.7-0.7,10.2c0,2.4,0.1,4.8,0.3,7.2c29.2,2.9,52,27.6,52,57.6c0,3.1-0.2,6.1-0.7,9
		c8.4,3,17.4,4.7,26.8,4.7c9.5,0,18.6-1.7,27.1-4.8C177.6,204.3,177.4,201.3,177.4,198.2z M150.5,172.8l-39.3-39.3l39.3-39.3
		l39.3,39.3L150.5,172.8z"/>
	<circle id="XMLID_1_" class="st5" cx="150.6" cy="133.5" r="65.9"/>
	<radialGradient id="XMLID_16_" cx="150.5993" cy="133.4833" r="65.9156" gradientUnits="userSpaceOnUse">
		<stop  offset="0" style="stop-color:#88CDEF"/>
		<stop  offset="0.6379" style="stop-color:#4487BA"/>
		<stop  offset="0.7156" style="stop-color:#4C8FC0"/>
		<stop  offset="0.8404" style="stop-color:#64A6D2"/>
		<stop  offset="0.996" style="stop-color:#8FD6F6"/>
		<stop  offset="1" style="stop-color:#90D9F8"/>
	</radialGradient>
	<circle id="XMLID_6_" class="st6" cx="150.6" cy="133.5" r="65.9"/>
	<linearGradient id="XMLID_20_" gradientUnits="userSpaceOnUse" x1="113.2261" y1="187.2314" x2="193.1927" y2="187.2314">
		<stop  offset="0" style="stop-color:#2484C6;stop-opacity:6.000000e-002"/>
		<stop  offset="0.5" style="stop-color:#2484C6"/>
		<stop  offset="1" style="stop-color:#2484C6;stop-opacity:0"/>
	</linearGradient>
	<path id="XMLID_11_" class="st7" d="M150.6,199.4c16.2,0,31.1-5.9,42.6-15.6l-27.4-7.2c-9.2-2.4-19-1.9-27.9,1.6l-24.6,9.6
		C123.8,195.1,136.7,199.4,150.6,199.4z"/>
</g>
<g id="factory">
	<path id="XMLID_17_" class="st8" d="M177.4,198.2c0-29.9,22.7-54.5,51.8-57.6c0.2-2.4,0.3-4.8,0.3-7.2c0-3.5-0.2-6.9-0.7-10.2
		c-28.9-3.2-51.4-27.7-51.4-57.5c0-2.1,0.1-4.1,0.3-6.1c-8.3-3-17.3-4.7-26.7-4.7c-9.3,0-18.2,1.6-26.5,4.6c0.2,2,0.3,4.1,0.3,6.2
		c0,29.9-22.6,54.5-51.7,57.6c-0.4,3.3-0.7,6.7-0.7,10.2c0,2.4,0.1,4.8,0.3,7.2c29.2,2.9,52,27.6,52,57.6c0,3.1-0.2,6.1-0.7,9
		c8.4,3,17.4,4.7,26.8,4.7c9.5,0,18.6-1.7,27.1-4.8C177.6,204.3,177.4,201.3,177.4,198.2z M150.5,172.8l-39.3-39.3l39.3-39.3
		l39.3,39.3L150.5,172.8z"/>
	<path id="XMLID_42_" class="st9" d="M177.4,198.2c0-29.9,22.7-54.5,51.8-57.6c0.2-2.4,0.3-4.8,0.3-7.2c0-3.5-0.2-6.9-0.7-10.2
		c-28.9-3.2-51.4-27.7-51.4-57.5c0-2.1,0.1-4.1,0.3-6.1c-8.3-3-17.3-4.7-26.7-4.7c-9.3,0-18.2,1.6-26.5,4.6c0.2,2,0.3,4.1,0.3,6.2
		c0,29.9-22.6,54.5-51.7,57.6c-0.4,3.3-0.7,6.7-0.7,10.2c0,2.4,0.1,4.8,0.3,7.2c29.2,2.9,52,27.6,52,57.6c0,3.1-0.2,6.1-0.7,9
		c8.4,3,17.4,4.7,26.8,4.7c9.5,0,18.6-1.7,27.1-4.8C177.6,204.3,177.4,201.3,177.4,198.2z M150.5,172.8l-39.3-39.3l39.3-39.3
		l39.3,39.3L150.5,172.8z"/>
	<radialGradient id="XMLID_21_" cx="151.0063" cy="133.4833" r="78.4937" gradientUnits="userSpaceOnUse">
		<stop  offset="0" style="stop-color:#D6D5D5"/>
		<stop  offset="0.3213" style="stop-color:#D4D3D2"/>
		<stop  offset="0.5416" style="stop-color:#CCCACA"/>
		<stop  offset="0.7315" style="stop-color:#BEBDBD"/>
		<stop  offset="0.9032" style="stop-color:#ACABAB"/>
		<stop  offset="1" style="stop-color:#9F9E9E"/>
	</radialGradient>
	<path id="XMLID_39_" class="st10" d="M177.4,198.2c0-29.9,22.7-54.5,51.8-57.6c0.2-2.4,0.3-4.8,0.3-7.2c0-3.5-0.2-6.9-0.7-10.2
		c-28.9-3.2-51.4-27.7-51.4-57.5c0-2.1,0.1-4.1,0.3-6.1c-8.3-3-17.3-4.7-26.7-4.7c-9.3,0-18.2,1.6-26.5,4.6c0.2,2,0.3,4.1,0.3,6.2
		c0,29.9-22.6,54.5-51.7,57.6c-0.4,3.3-0.7,6.7-0.7,10.2c0,2.4,0.1,4.8,0.3,7.2c29.2,2.9,52,27.6,52,57.6c0,3.1-0.2,6.1-0.7,9
		c8.4,3,17.4,4.7,26.8,4.7c9.5,0,18.6-1.7,27.1-4.8C177.6,204.3,177.4,201.3,177.4,198.2z M150.5,172.8l-39.3-39.3l39.3-39.3
		l39.3,39.3L150.5,172.8z"/>
	<linearGradient id="XMLID_22_" gradientUnits="userSpaceOnUse" x1="148.955" y1="132.388" x2="219.7023" y2="132.388">
		<stop  offset="0.2414" style="stop-color:#FFFFFF;stop-opacity:0"/>
		<stop  offset="1" style="stop-color:#FFFFFF"/>
	</linearGradient>
	<path id="XMLID_7_" class="st11" d="M174.6,198.2c0-26.9,16.5-49.5,38.9-56c3.6-1.1,6.1-4.3,6.2-8c0-0.7,0-1.3,0-2
		c0-0.9,0-1.9-0.1-2.8c-0.1-3.7-2.7-6.8-6.2-7.8c-22.4-6.5-38.9-29.1-38.9-56c0-0.1,0-0.1,0-0.2c-0.9-0.1-1.9-0.2-2.9-0.3
		c-16-0.3-19.8-5.7-21.8,9.6c-1.1,8.2,2.7,13.5,8.1,19.3l27.7,31.6c9.1,10.1,0.9,13-8.2,23.1l-18.8,20.8c-0.5,0.5-1,1-1.5,1.3l0,0
		c-0.5,0.4-1,0.8-1.5,1.3c-5.4,5.9-7.8,11.2-6.2,19.6c2.5,13.4,7.6,7.6,23.7,6.9c0.5-0.1,0.9-0.2,1.4-0.3
		C174.6,198.4,174.6,198.3,174.6,198.2z"/>
	
		<linearGradient id="XMLID_23_" gradientUnits="userSpaceOnUse" x1="144.5894" y1="132.388" x2="215.3367" y2="132.388" gradientTransform="matrix(-1 0 0 1 296.1565 0)">
		<stop  offset="0.2414" style="stop-color:#FFFFFF;stop-opacity:0"/>
		<stop  offset="1" style="stop-color:#FFFFFF"/>
	</linearGradient>
	<path id="XMLID_12_" class="st12" d="M126,198.2c0-26.9-16.5-49.5-38.9-56c-3.6-1.1-6.1-4.3-6.2-8c0-0.7,0-1.3,0-2
		c0-0.9,0-1.9,0.1-2.8c0.1-3.7,2.7-6.8,6.2-7.8c22.4-6.5,38.9-29.1,38.9-56c0-0.1,0-0.1,0-0.2c0.9-0.1,1.9-0.2,2.9-0.3
		c16-0.3,19.8-5.7,21.8,9.6c1.1,8.2-2.7,13.5-8.1,19.3l-27.7,31.6c-9.1,10.1-0.9,13,8.2,23.1l18.8,20.8c0.5,0.5,1,1,1.5,1.3l0,0
		c0.5,0.4,1,0.8,1.5,1.3c5.4,5.9,7.8,11.2,6.2,19.6c-2.5,13.4-7.6,7.6-23.7,6.9c-0.5-0.1-0.9-0.2-1.4-0.3
		C126,198.4,126,198.3,126,198.2z"/>
	<radialGradient id="XMLID_24_" cx="150.4677" cy="133.4833" r="27.9662" gradientUnits="userSpaceOnUse">
		<stop  offset="0" style="stop-color:#D6D5D5"/>
		<stop  offset="0.3213" style="stop-color:#D4D3D2"/>
		<stop  offset="0.5416" style="stop-color:#CCCACA"/>
		<stop  offset="0.7315" style="stop-color:#BEBDBD"/>
		<stop  offset="0.9032" style="stop-color:#ACABAB"/>
		<stop  offset="1" style="stop-color:#9F9E9E"/>
	</radialGradient>
	<path id="XMLID_117_" class="st13" d="M177.5,135.8l-24.6,24.6c-1.3,1.3-3.4,1.3-4.7,0l-24.6-24.6c-1.3-1.3-1.3-3.4,0-4.7
		l24.6-24.6c1.3-1.3,3.4-1.3,4.7,0l24.6,24.6C178.8,132.4,178.8,134.5,177.5,135.8z"/>
	<g id="Calque_131" class="st0">
		<path id="XMLID_130_" class="st14" d="M151.9,152.7h-1.8c-0.5,0-0.9-0.4-0.9-0.9v-36.2c0-0.5,0.4-0.9,0.9-0.9h1.8
			c0.5,0,0.9,0.4,0.9,0.9v36.2C152.8,152.3,152.4,152.7,151.9,152.7z"/>
		<path id="XMLID_127_" class="st14" d="M157.5,147.1h-1.8c-0.5,0-0.9-0.4-0.9-0.9v-25c0-0.5,0.4-0.9,0.9-0.9h1.8
			c0.5,0,0.9,0.4,0.9,0.9v25C158.4,146.7,158,147.1,157.5,147.1z"/>
		<path id="XMLID_216_" class="st14" d="M163.1,143.9h-1.8c-0.5,0-0.9-0.4-0.9-0.9v-18.4c0-0.5,0.4-0.9,0.9-0.9h1.8
			c0.5,0,0.9,0.4,0.9,0.9V143C164,143.5,163.6,143.9,163.1,143.9z"/>
		<path id="XMLID_275_" class="st14" d="M168.7,138.2h-1.8c-0.5,0-0.9-0.4-0.9-0.9v-7.1c0-0.5,0.4-0.9,0.9-0.9h1.8
			c0.5,0,0.9,0.4,0.9,0.9v7.1C169.6,137.8,169.2,138.2,168.7,138.2z"/>
		<path id="XMLID_118_" class="st14" d="M146.3,147.1h-1.8c-0.5,0-0.9-0.4-0.9-0.9v-25c0-0.5,0.4-0.9,0.9-0.9h1.8
			c0.5,0,0.9,0.4,0.9,0.9v25C147.2,146.7,146.8,147.1,146.3,147.1z"/>
		<path id="XMLID_120_" class="st14" d="M140.7,143.9h-1.8c-0.5,0-0.9-0.4-0.9-0.9v-18.4c0-0.5,0.4-0.9,0.9-0.9h1.8
			c0.5,0,0.9,0.4,0.9,0.9V143C141.6,143.5,141.2,143.9,140.7,143.9z"/>
		<path id="XMLID_122_" class="st14" d="M135.1,138.2h-1.8c-0.5,0-0.9-0.4-0.9-0.9v-7.1c0-0.5,0.4-0.9,0.9-0.9h1.8
			c0.5,0,0.9,0.4,0.9,0.9v7.1C136,137.8,135.6,138.2,135.1,138.2z"/>
	</g>
	<radialGradient id="XMLID_25_" cx="150.5993" cy="133.4833" r="40.9007" gradientUnits="userSpaceOnUse">
		<stop  offset="0" style="stop-color:#EDEDED"/>
		<stop  offset="1" style="stop-color:#D6D5D5"/>
	</radialGradient>
	<circle id="XMLID_10_" class="st15" cx="150.6" cy="133.5" r="40.9"/>
	<circle id="XMLID_13_" class="st16" cx="150.6" cy="133.5" r="30.4"/>
	<circle id="XMLID_15_" class="st17" cx="150.6" cy="133.5" r="18.6"/>
</g>
</svg>
