<?xml version="1.0" encoding="utf-8"?>
<!-- Generator: Adobe Illustrator 19.0.0, SVG Export Plug-In . SVG Version: 6.00 Build 0)  -->
<svg version="1.0" id="Calque_126" xmlns="http://www.w3.org/2000/svg" xmlns:xlink="http://www.w3.org/1999/xlink" x="0px" y="0px" width="300px" height="260px"
	 viewBox="0 0 300 260" style="enable-background:new 0 0 300 260;" xml:space="preserve">
<style type="text/css">
	.st0{display:none;}
	.st1{display:inline;fill:#353535;}
	.st2{display:inline;fill:#FFFFFF;}
	.st3{display:inline;fill:url(#XMLID_9_);}
	.st4{display:inline;fill:url(#XMLID_10_);}
	.st5{fill:#383838;stroke:#383838;stroke-width:4;stroke-miterlimit:10;}
	.st6{fill:#383838;}
	.st7{fill:#939292;}
	.st8{fill:#DEDDDD;stroke:#383838;stroke-width:4;stroke-miterlimit:10;}
	.st9{fill:#ABABAB;}
	.st10{fill:url(#XMLID_11_);}
	.st11{fill:none;stroke:#383838;stroke-width:4;stroke-miterlimit:10;}
</style>
<g id="Calque_133" class="st0">
	<circle id="XMLID_278_" class="st1" cx="150.9" cy="133.5" r="76.2"/>
	<circle id="XMLID_8_" class="st2" cx="150.9" cy="133.5" r="69.9"/>
	<radialGradient id="XMLID_9_" cx="150.5943" cy="133.4833" r="67.8722" gradientUnits="userSpaceOnUse">
		<stop  offset="0" style="stop-color:#88CDEF"/>
		<stop  offset="0.6379" style="stop-color:#4487BA"/>
		<stop  offset="0.7156" style="stop-color:#4C8FC0"/>
		<stop  offset="0.8404" style="stop-color:#64A6D2"/>
		<stop  offset="0.996" style="stop-color:#8FD6F6"/>
		<stop  offset="1" style="stop-color:#90D9F8"/>
	</radialGradient>
	<circle id="XMLID_6_" class="st3" cx="150.6" cy="133.5" r="67.9"/>
	<linearGradient id="XMLID_10_" gradientUnits="userSpaceOnUse" x1="102.7296" y1="185.8298" x2="197.9385" y2="185.8298">
		<stop  offset="0" style="stop-color:#2484C6;stop-opacity:6.000000e-002"/>
		<stop  offset="9.869918e-002" style="stop-color:#227AB8;stop-opacity:0.2456"/>
		<stop  offset="0.2146" style="stop-color:#2074AE;stop-opacity:0.4635"/>
		<stop  offset="0.3417" style="stop-color:#1F70A8;stop-opacity:0.7024"/>
		<stop  offset="0.5" style="stop-color:#1E6EA6"/>
		<stop  offset="0.6583" style="stop-color:#1F70A8;stop-opacity:0.6834"/>
		<stop  offset="0.7854" style="stop-color:#2074AE;stop-opacity:0.4292"/>
		<stop  offset="0.9013" style="stop-color:#227AB8;stop-opacity:0.1974"/>
		<stop  offset="1" style="stop-color:#2484C6;stop-opacity:0"/>
	</linearGradient>
	<path id="XMLID_14_" class="st4" d="M151.1,201.4c18.3,0,34.9-7.5,46.8-19.5l-12.8-11.5l-32.6,16.5l-39-14.3l-10.8,9.1
		C114.7,193.9,132.6,201.4,151.1,201.4z"/>
</g>
<g id="factory">
	<g id="Calque_4_-_copie_3">
		<path id="XMLID_23_" class="st5" d="M216,141.2c0.3-2.5,0.5-5.1,0.5-7.7c0-2.6-0.2-5.2-0.5-7.7h-21.2c-1.2-6.6-3.8-12.8-7.5-18.1
			l15-15c-1.6-2-3.3-3.9-5.1-5.8s-3.8-3.6-5.8-5.1l-15,15c-5.3-3.7-11.4-6.3-18.1-7.5V68c-2.5-0.3-5.1-0.5-7.7-0.5s-5.2,0.2-7.7,0.5
			v21.2c-6.6,1.2-12.8,3.8-18.1,7.5l-15-15c-2,1.6-3.9,3.3-5.8,5.1s-3.6,3.8-5.1,5.8l15,15c-3.7,5.3-6.3,11.4-7.5,18.1H85.2
			c-0.3,2.5-0.5,5.1-0.5,7.7c0,2.6,0.2,5.2,0.5,7.7h21.2c1.2,6.6,3.8,12.8,7.5,18.1l-15,15c1.6,2,3.3,3.9,5.1,5.8
			c1.9,1.9,3.8,3.6,5.8,5.1l15-15c5.3,3.7,11.4,6.3,18.1,7.5v21.2c2.5,0.3,5.1,0.5,7.7,0.5s5.2-0.2,7.7-0.5v-21.2
			c6.6-1.2,12.8-3.8,18.1-7.5l15,15c2-1.6,3.9-3.3,5.8-5.1c1.9-1.9,3.6-3.8,5.1-5.8l-15-15c3.7-5.3,6.3-11.4,7.5-18.1H216z"/>
		<circle id="XMLID_22_" class="st6" cx="150.4" cy="133.5" r="54.9"/>
	</g>
	<g id="Calque_4_-_copie_2">
		<g id="XMLID_2_">
			<path id="XMLID_21_" class="st7" d="M150.6,82.3c-28.2,0-51.2,22.9-51.2,51.2c0,28.2,22.9,51.2,51.2,51.2s51.2-22.9,51.2-51.2
				C201.8,105.2,178.8,82.3,150.6,82.3z M150.6,177.6c-24.4,0-44.1-19.8-44.1-44.1c0-24.4,19.8-44.1,44.1-44.1s44.1,19.8,44.1,44.1
				C194.7,157.9,175,177.6,150.6,177.6z"/>
		</g>
		<path id="XMLID_7_" class="st8" d="M208.7,141.2c4.2,0,7.8-3.4,7.8-7.7c0,0,0-0.1,0-0.1s0-0.1,0-0.1c0-4.2-3.5-7.7-7.8-7.7H201
			c-3.4,0-6.5-2.2-7.5-5.5c-0.8-2.7-1.9-5.2-3.2-7.7c-1.6-3-1.1-6.8,1.4-9.2l5.5-5.5c3-3,3.1-7.9,0.1-10.9c0,0,0,0-0.1-0.1
			s0,0-0.1-0.1c-3-3-7.9-2.9-10.9,0.1l-5.5,5.5c-2.4,2.4-6.2,3-9.2,1.4c-2.4-1.3-5-2.4-7.7-3.2c-3.3-1-5.5-4.1-5.5-7.5v-7.7
			c0-4.2-3.4-7.8-7.7-7.8c0,0-0.1,0-0.1,0s-0.1,0-0.1,0c-4.2,0-7.7,3.5-7.7,7.8v7.7c0,3.4-2.2,6.5-5.5,7.5c-2.7,0.8-5.2,1.9-7.7,3.2
			c-3,1.6-6.8,1.1-9.2-1.4l-5.5-5.5c-3-3-7.9-3.1-10.9-0.1c0,0,0,0-0.1,0.1s0,0-0.1,0.1c-3,3-2.9,7.9,0.1,10.9l5.5,5.5
			c2.4,2.4,3,6.2,1.4,9.2c-1.3,2.4-2.4,5-3.2,7.7c-1,3.3-4.1,5.5-7.5,5.5h-7.7c-4.2,0-7.8,3.4-7.8,7.7c0,0,0,0.1,0,0.1s0,0.1,0,0.1
			c0,4.2,3.5,7.7,7.8,7.7h7.7c3.4,0,6.5,2.2,7.5,5.5c0.8,2.7,1.9,5.2,3.2,7.7c1.6,3,1.1,6.8-1.4,9.2l-5.5,5.5c-3,3-3.1,7.9-0.1,10.9
			c0,0,0,0,0.1,0.1s0,0,0.1,0.1c3,3,7.9,2.9,10.9-0.1l5.5-5.5c2.4-2.4,6.2-3,9.2-1.4c2.4,1.3,5,2.4,7.7,3.2c3.3,1,5.5,4.1,5.5,7.5
			v7.7c0,4.2,3.4,7.8,7.7,7.8c0,0,0.1,0,0.1,0s0.1,0,0.1,0c4.2,0,7.7-3.5,7.7-7.8v-7.7c0-3.4,2.2-6.5,5.5-7.5
			c2.7-0.8,5.2-1.9,7.7-3.2c3-1.6,6.8-1.1,9.2,1.4l5.5,5.5c3,3,7.9,3.1,10.9,0.1c0,0,0,0,0.1-0.1s0,0,0.1-0.1c3-3,2.9-7.9-0.1-10.9
			l-5.5-5.5c-2.4-2.4-3-6.2-1.4-9.2c1.3-2.4,2.4-5,3.2-7.7c1-3.3,4.1-5.5,7.5-5.5H208.7z"/>
	</g>
	<circle id="XMLID_3_" class="st9" cx="150.6" cy="133.5" r="33.7"/>
	<radialGradient id="XMLID_11_" cx="150.5993" cy="133.4833" r="23.0375" gradientUnits="userSpaceOnUse">
		<stop  offset="0" style="stop-color:#88CDEF"/>
		<stop  offset="0.409" style="stop-color:#86CAED"/>
		<stop  offset="0.606" style="stop-color:#7DC0E6"/>
		<stop  offset="0.7578" style="stop-color:#6EB1DB"/>
		<stop  offset="0.8855" style="stop-color:#5C9ECC"/>
		<stop  offset="0.9983" style="stop-color:#4487BA"/>
		<stop  offset="1" style="stop-color:#4487BA"/>
	</radialGradient>
	<circle id="XMLID_1_" class="st10" cx="150.6" cy="133.5" r="23"/>
	<g id="shield_-_copie">
	</g>
	<g id="Calque_10_-_copie">
		<polygon id="XMLID_26_" class="st6" points="146.7,122.6 154.8,122.6 161.4,113.4 155.4,110.7 150.2,110.5 145.2,110.8 
			139.7,113.4 		"/>
		<polygon id="XMLID_25_" class="st6" points="144.8,142.7 140,136.2 128.6,136.3 130,142.8 133,147.1 136.2,151 141.5,153.8 		"/>
		<polygon id="XMLID_24_" class="st6" points="156.1,142.7 160.9,136.2 172.2,136.3 170.9,142.8 167.9,147.1 164.6,151 159.4,153.8 
					"/>
	</g>
	<circle id="XMLID_4_" class="st11" cx="150.4" cy="133.5" r="23.2"/>
</g>
</svg>
