<?xml version="1.0" encoding="utf-8"?>
<!-- Generator: Adobe Illustrator 19.0.0, SVG Export Plug-In . SVG Version: 6.00 Build 0)  -->
<svg version="1.0" xmlns="http://www.w3.org/2000/svg" xmlns:xlink="http://www.w3.org/1999/xlink" x="0px" y="0px" width="300px" height="260px"
	 viewBox="0 0 300 260" style="enable-background:new 0 0 300 260;" xml:space="preserve">
<style type="text/css">
	.st0{display:none;}
	.st1{display:inline;}
	.st2{opacity:0.25;fill:#C6C6C5;}
	.st3{opacity:0.75;fill:#FFFFFF;}
</style>
<g id="Calque_3" class="st0">
	<rect id="XMLID_1_" class="st1" width="300" height="260"/>
</g>
<g id="shield">
	<path id="XMLID_50_" class="st2" d="M147.6,94.5L125,81.5c-2-1.1-4.5-0.8-6,0.9c-8.8,9.7-14.3,23.4-14.3,38.6
		c0,29.2,20.3,65.2,45.4,65.2l0.1-90.9C149.3,95.2,148.4,95,147.6,94.5z"/>
	<path id="XMLID_36_" class="st3" d="M189.2,74.1c-2.6-3-6.9-3.8-10.3-1.8l-24.7,14.3c-2.5,1.5-5.6,1.5-8.1,0l-24.7-14.3
		c-3.4-2-7.7-1.2-10.3,1.8c-9.9,11.6-16,27.5-16,45.1c0,27.9,15.4,56.2,36.8,66.8c5.7,2.8,18.3,18.1,18.3,18.1s12.2-15.1,17.8-17.8
		c21.7-10.5,37.2-38.9,37.2-67.1C205.1,101.6,199,85.7,189.2,74.1z M150,186.1c-25.1,0-45.4-35.9-45.4-65.2
		c0-15.2,5.5-28.9,14.3-38.6c1.5-1.7,4-2.1,6-0.9l22.6,13.1c1.5,0.9,3.4,0.9,4.9,0l22.6-13.1c2-1.1,4.5-0.8,6,0.9
		c8.8,9.7,14.3,23.4,14.3,38.6C195.5,150.2,175.1,186.1,150,186.1z"/>
	<g id="Calque_15">
		<circle id="XMLID_34_" class="st3" cx="115.4" cy="99.3" r="4.2"/>
		<circle id="XMLID_41_" class="st3" cx="122.4" cy="89.2" r="4.2"/>
	</g>
	<g id="Calque_15_-_copie">
	</g>
	<g id="Calque_17">
		<circle id="XMLID_61_" class="st3" cx="163.7" cy="168.3" r="4.2"/>
		<circle id="XMLID_60_" class="st3" cx="175.7" cy="159.3" r="4.2"/>
		<circle id="XMLID_59_" class="st3" cx="183.3" cy="147.9" r="4.2"/>
		<circle id="XMLID_58_" class="st3" cx="187.5" cy="135.6" r="4.2"/>
		<circle id="XMLID_57_" class="st3" cx="184.2" cy="99.3" r="4.2"/>
		<circle id="XMLID_56_" class="st3" cx="177.2" cy="89.2" r="4.2"/>
		<circle id="XMLID_55_" class="st3" cx="135.9" cy="168.3" r="4.2"/>
		<circle id="XMLID_54_" class="st3" cx="124" cy="159.3" r="4.2"/>
		<circle id="XMLID_53_" class="st3" cx="116.3" cy="147.9" r="4.2"/>
		<circle id="XMLID_52_" class="st3" cx="112.1" cy="135.6" r="4.2"/>
	</g>
	<path id="XMLID_49_" class="st3" d="M150.1,127.1c17,0,32.7-4.9,45.3-9.4c-0.2-3.4-0.6-6.7-1.3-9.8c-12.4,4.3-27.5,8.8-44,8.8
		c-16.4,0-31.7-4.6-44.1-8.9c-0.7,3.2-1.2,6.5-1.3,9.9C117.3,122.2,133.1,127.1,150.1,127.1z"/>
	<path id="XMLID_23_" class="st3" d="M146.3,127c-0.1,5.9,2.4,12.7,3.8,18.9c1.1-5,4-12.1,3.8-18.9l-4.1,0.1L146.3,127z"/>
</g>
</svg>
