<?xml version="1.0" encoding="utf-8"?>
<!-- Generator: Adobe Illustrator 19.0.0, SVG Export Plug-In . SVG Version: 6.00 Build 0)  -->
<svg version="1.0" xmlns="http://www.w3.org/2000/svg" xmlns:xlink="http://www.w3.org/1999/xlink" x="0px" y="0px" width="300px" height="260px"
	 viewBox="0 0 300 260" style="enable-background:new 0 0 300 260;" xml:space="preserve">
<style type="text/css">
	.st0{display:none;}
	.st1{display:inline;}
	.st2{display:inline;opacity:0.75;fill:#FFFFFF;}
	.st3{opacity:0.75;fill:#FFFFFF;}
</style>
<g id="Calque_3" class="st0">
	<rect id="XMLID_1_" class="st1" width="300" height="260"/>
</g>
<g id="health" class="st0">
	<polygon id="XMLID_18_" class="st2" points="208.8,118.7 161.3,118.7 161.3,71.2 138.7,71.2 138.7,118.7 91.2,118.7 91.2,141.3 
		138.7,141.3 138.7,188.8 161.3,188.8 161.3,141.3 208.8,141.3 	"/>
</g>
<g id="fast" class="st0">
	<path id="XMLID_11_" class="st2" d="M208.7,164.2c0,0-3.9-2.1-4.9-16.9c-1-14.8-7.3-33.1-24.5-40.1c-16.3-6.6-47.5-10.1-76.6-33.6
		c-2.3,4.2-7.8,21.8,20.1,38.4s29.4,16.5,27.6,20c-1.3,2.6-12.5,9.8-61-23.7c2.2,9.7,25.3,43.6,43.2,46.9c16.7,3,24.7-6.5,27.9-1.8
		c3.1,4.7-2.5,11.5-18.2,10.9c-17.5-0.6-34.6-11.3-33.9-12.2c0,0,7.8,29.4,31.8,33.9C164.1,190.2,205.5,173,208.7,164.2z"/>
</g>
<g id="power">
	<path id="XMLID_22_" class="st3" d="M119.5,149.4l28,16.2l-10.8,18.7c0,0-5.6,9.4-19.4,1.2s-8.6-17.4-8.6-17.4L119.5,149.4z"/>
	<path id="XMLID_15_" class="st3" d="M158.8,156.6c0,0,31.8-54.2,32.3-56c0.5-1.8-7.9-29.4-7.9-29.4l-29.4,7.9l-32.3,56l-9.3-5.4
		l-5.4,9.3l56,32.3l5.4-9.3L158.8,156.6z M149.5,151.2c0.1-0.2-18.7-10.8-18.7-10.8l32.3-56l14.7-3.9l3.9,14.7
		C181.8,95.2,149.4,151.4,149.5,151.2z"/>
</g>
</svg>
