<svg version="1.1" id="Layer_1" xmlns="http://www.w3.org/2000/svg" x="0" y="0" viewBox="0 0 300 200" style="enable-background:new 0 0 300 200" xml:space="preserve"><style>.st4{fill:#eea435}.st5{fill:#faf28f}</style><g id="fireDust"><g id="explosion"><g id="Calque_29_-_copie" style="opacity:.5"><g id="cool_5_"><g id="XMLID_378_"><path id="XMLID_379_" d="M259.2 96.1c-53.5-7.7-65.8-8.8-23.1-23.4-42.7 14.6-34.6 12.1 1.5-27.5-50.9 16.9-60.6 25.2-34-6-26.6 31.2-26.1 22.2-13.3-24.1-27.4 40-33.5 45.6-26.7 4.9-6.8 40.7-8.1 34.3-25.6-14.6-5.7 47.1-9.6 57.1-30.7 18.1 21.1 39 6.6 36.9-39.7 6.2 35.4 41.2 38.9 49.1-3.7 26.1 40.5 22.6 36.1 23.5-17.3 15 49.1 22.6 56 25.4 9.3 19.8 46.7 5.7 38.9 11.6-15.9 30.1 54.3-.1 65.2-1 21.2 16.4 44-17.4 39.2-11.3.6 25.7 48.8-23.3 57.8-28.6 28 3.1 29.8-31.6 25.7-24.1 12.1 24 34-39.1 37.2-46.8 26.5-6.4 10.6-40.4 13.3-32.5 23 14.4 8.2-48.2 9-57.6 19.3-20-10.4-37.7-5.8-28.3 30.4 10.5-14.7-46.9-16.7-54.4 17.5-22.9-34.1-31.6-25.7-32.4 24.8-16.4-42.4-30.9-50.2-37.3-7.3-27.6-42.7-9.5-31.8-11.7 23.1-25.4zm-59.6 5.6c-27.4-2-29.2-.9-3.9 8.2-25.5-2.9-24.7-.4 4.3 11.8-27.6-11.8-35.7-11.1-17.9 9.5-19.5-12.6-18.6-7.7.2 17.7-18.7-25.4-20-28.6-15.7-5.3-17.6-22.2-19.7-19.4-17.4 6.7-2.3-26.1-2.8-29.4-11.3-6.8-2-22.8-3-19.9-12.3 5.5 9.4-25.4 8.9-30.8-7.7-13.6 9.9-20.2 4.5-19.1-17.4-.8 21.9-18.2 22.8-22-3.3-9.2 21-14.6 15.8-14.5-15.4-1.6 31.2-12.9 37.1-15.7 13.7-13.5 25.4-10.1 21.6-13.8-5.6-15 27.2 1.3 33.2 2 18-6.9 21.3.5 18-3-.4-15.2 18.5 12.2 26.5 13.3 22.2-4.6 10.6 11.2 9.4 3.1 3.9-22.6 5.5 25.7 9.4 30.3 15.3 8.5 1.7 21.3 3.1 17.5 10.4-8.1-7.2 25.6-6.9 28.2 4.4 6.1-7.6 22.9-3.9 22.9 10.9.8-14.8 22.1-19.3 25.8-2.2 12.6-10.3 18.5-2 18.1 23.1 4.5-25.1 13.7-25.7 17.1 2.1 8.1-24.6 10.2-21.4 11.4 9.6 3.5-30.9 7.9-36.8 8.6-12.3 6.6-25.4 7-25.2 9.9 4.7 13.1z" style="fill:#13171a"/></g></g></g><g id="Calque_29_-_copie_1_"><g id="cool_1_"><g id="XMLID_22_"><radialGradient id="XMLID_2_" cx="154.75" cy="101.625" r="80.556" gradientTransform="matrix(.9985 .05542 -.05542 .9985 1.065 -8.034)" gradientUnits="userSpaceOnUse"><stop offset=".657" style="stop-color:#f47c33"/><stop offset="1" style="stop-color:#f26538"/></radialGradient><path id="XMLID_23_" d="M235.8 97.4c-42-6.1-51.7-6.9-18.1-18.4-33.6 11.5-27.2 9.5 1.2-21.7-40 13.3-47.6 19.9-26.7-4.7-20.9 24.5-20.5 17.4-10.5-18.9-21.6 31.5-26.3 35.9-21 3.8-5.3 32-6.4 27-20.1-11.5-4.5 37-7.5 44.9-24.1 14.3 16.6 30.7 5.2 29-31.2 4.9 27.8 32.4 30.6 38.6-2.9 20.5 31.9 17.8 28.4 18.5-13.6 11.8 38.6 17.7 44 20 7.3 15.6 36.7 4.5 30.6 9.1-12.5 23.6 42.7-.1 51.3-.8 16.7 12.9 34.6-13.7 30.8-8.9.5 20.2 38.4-18.3 45.5-22.5 22 2.4 23.5-24.9 20.2-18.9 9.5 18.9 26.8-30.7 29.2-36.8 20.8-5 8.4-31.8 10.5-25.5 18.1 11.4 6.4-37.9 7.1-45.3 15.2-15.7-8.2-29.6-4.5-22.3 23.9 8.3-11.6-36.9-13.1-42.8 13.8-18-26.8-24.8-20.2-25.5 19.5-12.9-33.3-24.3-39.4-29.3-5.8-21.7-33.7-7.6-25.1-9.4 18-20.1zm-46.8 4.3c-21.5-1.6-23-.7-3 6.4-20-2.2-19.4-.3 3.4 9.3-21.7-9.3-28.1-8.7-14.1 7.5-15.3-9.9-14.6-6 .1 13.9-14.7-20-15.7-22.5-12.3-4.1-13.8-17.5-15.5-15.3-13.7 5.3-1.8-20.5-2.2-23.1-8.9-5.4-1.6-17.9-2.3-15.7-9.7 4.3 7.4-20 7-24.2-6.1-10.7 7.8-15.9 3.5-15-13.7-.6 17.2-14.3 17.9-17.3-2.6-7.2 16.5-11.5 12.4-11.4-12.1-1.3 24.5-10.1 29.2-12.4 10.8-10.6 20-7.9 17-10.8-4.4-11.8 21.4 1 26.1 1.6 14.2-5.4 16.8.4 14.2-2.4-.3-12 14.5 9.6 20.8 10.4 17.5-3.6 8.3 8.8 7.4 2.4 3.1-17.8 4.4 20.2 7.4 23.8 12 6.7 1.3 16.7 2.4 13.8 8.1-6.3-5.7 20.1-5.4 22.2 3.4 4.8-5.9 18-3.1 18 8.5.7-11.6 17.4-15.2 20.3-1.7 9.9-8.1 14.5-1.6 14.3 18.1 3.5-19.8 10.7-20.2 13.5 1.7 6.4-19.3 8-16.8 8.9 7.5 2.7-24.3 6.2-28.9 6.7-9.7 5.2-19.8 5.5-19.6 7.7 3.9 10.2z" style="fill:url(#XMLID_2_)"/></g></g><path id="XMLID_19_" style="fill:#f47c33" d="m104.8 120.9-8.9-8.5 17.5-36.5 25.5-20.6 30.2 8.8 21.6 15.1 5.3 22.2-13.8 27.3-13.6 10.5-19.5 2.3-23.5-3.5z"/></g><g id="Calque_22_-_copie_3_1_"><g id="cool_4_"><g id="XMLID_375_"><path id="XMLID_376_" class="st4" d="M214.8 98.5c-31.8-4.6-39-5.2-13.7-13.9-25.4 8.6-20.5 7.2.9-16.4-30.2 10-35.9 15-20.2-3.5-15.8 18.5-15.4 13.1-8-14.3-16.3 23.8-19.8 27-15.8 2.9-4 24.2-4.8 20.3-15.2-8.7-3.4 28-5.7 33.9-18.2 10.7 12.5 23.1 3.9 21.9-23.5 3.7 21 24.4 23.1 29.1-2.2 15.5 24.1 13.5 21.5 14-10.2 9 29.1 13.4 33.2 15.1 5.5 11.7 27.7 3.4 23.1 6.9-9.4 17.9 32.2-.1 38.7-.6 12.6 9.7 26.1-10.3 23.3-6.7.3 15.3 29-13.9 34.3-17 16.6 1.8 17.7-18.8 15.3-14.3 7.2 14.3 20.2-23.2 22.1-27.8 15.7-3.8 6.3-24 7.9-19.3 13.7 8.6 4.9-28.7 5.4-34.2 11.5-11.9-6.1-22.4-3.4-16.8 18 6.3-8.7-27.9-9.9-32.3 10.4-13.6-20.3-18.7-15.2-19.2 14.7-9.7-25.2-18.3-29.8-22.1-4.4-16.4-25.4-5.7-18.9-7 13.7-15.2zm-35.3 3.3c-16.2-1.1-17.3-.6-2.3 4.9-15.1-1.7-14.6-.2 2.5 7-16.3-7-21.2-6.5-10.6 5.7-11.6-7.5-11.1-4.5.1 10.5-11.1-15.1-11.9-17-9.3-3.1-10.5-13.2-11.7-11.5-10.3 3.9-1.4-15.5-1.7-17.4-6.7-4.1-1.2-13.6-1.7-11.8-7.3 3.3 5.6-15.1 5.2-18.3-4.6-8.1 5.8-12 2.7-11.3-10.4-.5 13-10.8 13.5-13.1-2-5.5 12.5-8.6 9.4-8.6-9.1-1 18.5-7.7 22-9.4 8.1-8 15.1-6 12.8-8.2-3.4-8.9 16.1.7 19.7 1.2 10.7-4 12.7.3 10.7-1.8-.3-9.1 11 7.3 15.7 7.9 13.2-2.7 6.3 6.7 5.6 1.9 2.4-13.4 3.3 15.3 5.6 17.9 9.1 5 1 12.7 1.9 10.4 6.2-4.8-4.3 15.2-4.1 16.7 2.6 3.6-4.5 13.6-2.3 13.6 6.5.5-8.8 13.1-11.4 15.3-1.3 7.5-6.1 11-1.2 10.8 13.7 2.7-14.9 8.1-15.3 10.2 1.2 4.8-14.6 6.1-12.6 6.7 5.7 2-18.4 4.7-21.9 5.1-7.3 3.9-15.1 4.4-14.9 6 2.9 7.9z"/></g></g><path id="XMLID_374_" class="st4" d="m115.9 116.2-6.7-6.3 13.2-27.6 19.3-15.6 22.7 6.7 16.3 11.5 4.1 16.7-10.5 20.6-10.2 7.9-14.7 1.7-17.8-2.7z"/></g><g id="Calque_22_-_copie_3"><g id="cool_3_"><g id="XMLID_358_"><path id="XMLID_359_" class="st5" d="M202.7 99.2c-25.8-3.8-31.8-4.3-11.2-11.3-20.6 7-16.7 5.9.7-13.3-24.6 8.2-29.2 12.2-16.4-2.9-12.9 15.1-12.6 10.7-6.4-11.6-13.2 19.3-16.2 22-12.9 2.3-3.3 19.7-3.9 16.6-12.3-7.1-2.8 22.8-4.6 27.6-14.8 8.8 10.2 18.8 3.2 17.9-19.1 3 17.1 19.9 18.8 23.7-1.8 12.6C128.1 90.6 126 91 100.1 87c23.7 10.9 27.1 12.3 4.5 9.6 22.5 2.7 18.8 5.6-7.6 14.5 26.2 0 31.5-.5 10.2 7.9 21.2-8.4 18.9-5.4.3 12.4 23.6-11.2 27.9-13.8 13.5 1.5 14.4-15.3 12.4-11.6 5.8 11.6 16.5-18.8 18-22.6 12.8-3.1 5.1-19.5 6.4-15.7 11.2 7 4-23.3 4.3-27.8 9.3-9.7-5-18.2-2.8-13.7 14.7 5.1-7.1-22.7-8-26.3 8.5-11.1-16.5-15.3-12.4-15.6 12-7.9-20.5-14.9-24.2-18-3.5-13.3-20.8-4.6-15.6-5.7 10.9-12.3zm-28.8 2.7c-13.2-1-14.1-.5-1.9 3.9-12.3-1.4-11.9-.2 2.1 5.7-13.3-5.7-17.3-5.3-8.6 4.6-9.4-6.1-9-3.7.1 8.6-9.1-12.3-9.6-13.8-7.6-2.6-8.5-10.8-9.5-9.4-8.4 3.2-1.1-12.6-1.4-14.2-5.5-3.3-.9-11-1.4-9.6-6 2.6 4.6-12.3 4.3-14.9-3.7-6.6 4.8-9.7 2.2-9.2-8.4-.4 10.6-8.8 11-10.6-1.6-4.4 10.2-7.1 7.6-7-7.5-.8 15-6.2 17.9-7.6 6.6-6.5 12.2-4.9 10.4-6.6-2.8-7.2 13.1.6 16.1 1 8.7-3.3 10.3.2 8.7-1.5-.2-7.4 8.9 5.9 12.8 6.4 10.7-2.2 5.1 5.4 4.6 1.5 1.9-10.9 2.6 12.4 4.5 14.6 7.4 4.1.8 10.3 1.5 8.5 5-3.9-3.5 12.4-3.3 13.6 2.1 2.9-3.6 11-1.9 11.1 5.3.4-7.1 10.7-9.3 12.5-1.1 6.1-5 8.9-1 8.8 11.1 2.2-12.1 6.6-12.4 8.3 1 3.9-11.8 4.9-10.3 5.5 4.6 1.7-14.9 3.8-17.8 4.1-5.9 3.2-11.9 3.5-11.8 4.8 2.6 6.4z"/></g></g><path id="XMLID_348_" class="st5" d="m122.2 113.6-5.4-5.2L127.5 86l15.7-12.7 18.5 5.4L175 88l3.3 13.7-8.5 16.8-8.3 6.4-12 1.4-14.5-2.2z"/></g></g></g></svg>