<svg version="1.0" id="Calque_1" xmlns="http://www.w3.org/2000/svg" x="0" y="0" viewBox="0 0 300 195.2" style="enable-background:new 0 0 300 195.2" xml:space="preserve"><style>.st0{display:none}.st1{display:inline}.st6{fill:#f1a823}.st7{fill:#fcf18f}.st8{fill:#3d3d3b}.st10,.st11,.st12{opacity:.25;fill:#fff;enable-background:new}.st11,.st12{fill:#222223}.st12{fill:#5d1b1b}.st13{fill:#aba9aa}.st14{fill:#e5e5e4}.st15{fill:#d7d6d6}.st17{fill:#6f6f6e}.st26{display:inline;opacity:.25;fill:#030405;enable-background:new}.st33{fill:#fff}</style><g id="Calque_2"><g id="Calque_40_-_copie"><g id="Calque_47_-_copie"><path id="XMLID_424_" class="st8" d="m111.4 83.8-2.2-1.5c-3.2-2.2-5.1-5.9-5.1-9.7v-5.4c0-2.8 1-5.4 2.7-7.5l.7-.8c1.4-1.7 3.3-3 5.5-3.7l18.3-6c1.2-.4 2.4-.6 3.7-.6h14.6c1 0 2 .1 2.9.4l23.6 6c4 1 7.1 4 8.4 7.9 1.7 5.5-.7 11.5-4.6 13.3l-16 8.3c-2.9 1.7-4.8 2.2-6.7 2.2H120c-3.1-.2-6.1-1.2-8.6-2.9z"/><radialGradient id="XMLID_3_" cx="144.612" cy="128.667" r="29.236" gradientTransform="matrix(1 0 0 -1 0 196.11)" gradientUnits="userSpaceOnUse"><stop offset="0" style="stop-color:#a99468"/><stop offset="1" style="stop-color:#cdbe9c"/></radialGradient><path id="XMLID_423_" d="m113.9 82.5-2.1-1.4c-2.9-2.1-4.7-5.4-4.7-9v-5c0-2.5.9-5 2.5-7l.6-.8c1.3-1.6 3.1-2.8 5.1-3.5l16.9-5.5c1.1-.4 2.2-.5 3.4-.5h13.5c.9 0 1.8.1 2.7.3l21.8 5.6c3.7.9 6.6 3.7 7.7 7.3 1.6 5.1-.7 10.6-4.3 12.3L162.4 83c-2.7 1.6-4.4 2-6.2 2h-34.4c-2.8.1-5.6-.8-7.9-2.5z" style="fill:url(#XMLID_3_)"/><path id="XMLID_414_" class="st10" d="M181.5 63.1c-1.1-3.6-4.1-6.4-7.7-7.3L152 50.2c-.9-.2-1.8-.3-2.7-.3l15.6 7c3.7.9 6.6 3.7 7.7 7.3 1.6 5.1-.7 10.6-4.3 12.3l-14.8 7.7c-.6.4-1.2.7-1.7.9h4.4c1.8 0 3.5-.4 6.2-2l14.8-7.7c3.6-1.7 5.9-7.2 4.3-12.3z"/><path id="XMLID_413_" class="st11" d="M153.5 63.9c.4-6.1-5.7-11.7-9.4-13.9h-8.5c-1.2 0-2.3.2-3.4.5L115.4 56c-2 .6-3.7 1.8-5.1 3.5l-.6.8c-1.6 2-2.5 4.4-2.5 7v5c0 3.6 1.8 6.9 4.7 9l2.1 1.4c2.3 1.6 5.1 2.5 8 2.5h19.9c7.1-3.8 11.2-14.1 11.6-21.3z"/><path id="XMLID_412_" class="st12" d="M179.3 64.8c-.1-1.7-2-3.1-1.7-4.8.1-.6.5-1.1 1.1-1.4-1.4-1.3-3.1-2.3-5-2.8l-12.8-3.3c.3 1 .7 1.9 1.2 2.8.9 1.8 1.8 3.8 1.5 5.8-.5 2.5-2.8 4.1-4.7 5.7-.7.6-1.4 1.2-1.7 2.1-.8 2.3 1.4 4.6 3.8 5.3 3.8 1.1 8.2-.3 10.5-3.5 1.1-1.5 2.2-3.6 4.1-3.5.4 0 .8.2 1.2.2 1.3.1 2.6-1.2 2.5-2.6z"/><path id="XMLID_409_" class="st12" d="M123.6 79.2c2.1 2.1 6.4-.1 6-3-.3-2.8-3.7-4.2-5.1-6.7-1.9-3.4 1.3-8.3 5.1-7.9 1.3.1 2.5.7 3.8.8 2.1.1 4.3-1.5 4.7-3.7.4-2-.5-4.1.5-5.9.7-1.2 2.1-2 3.2-2.9h-6.2c-1.2 0-2.3.2-3.4.5L115.4 56c-1 .3-2 .8-2.9 1.4-1.3 2.4-3 4.6-4.9 6.7-.3 1-.5 2-.5 3.1v5c0 2.1.6 4.1 1.7 5.8l.1-.1c1.9-2.2 2.7-5.8 5.4-6.8 3.2-1.1 6.2 2.2 7.6 5.3.5.9.9 2 1.7 2.8z"/></g><g id="Calque_45_-_copie"><path id="XMLID_373_" class="st8" d="M142.6 68.2c.3 4.9-5.5 8.8-13 8.6-2.3-.1-9.1-.5-9.7-5.5-.5-4.5-3.8-.5-3.7-3.9.1-3.2 3.1 1 4.5-2.9 1.6-4.2 6.3-5.3 8.6-5.2 7.1.2 13 4.1 13.3 8.9z"/><path id="XMLID_265_" class="st8" d="M140.3 68c.2 4.1-4.6 7.4-10.9 7.3-2 0-10.5-.6-12.1-1.2-3.6-1.4.8-3.8.8-6.7.1-2.7-1.9-6.7 1.4-7.8 1.6-.5 7.7.9 9.7.9 5.9.2 10.8 3.5 11.1 7.5z"/><path id="XMLID_372_" class="st13" d="M139 68c.2 3.7-4.2 6.6-9.8 6.5-1.8 0-9.4-.5-10.9-1.1-3.2-1.3.7-3.4.7-6 .1-2.4-1.7-6 1.3-7 1.4-.5 6.9.8 8.6.8 5.4.2 9.9 3.2 10.1 6.8z"/><path id="XMLID_371_" class="st14" d="m132.4 62.1-7-1.3c-.3-.1-.6.2-.7.6-.2.7.1 1.5.6 1.6l9.8 1.5c.2 0 1.6.3 1.5-.2-.1-.4-2.9-1.8-4.2-2.2z"/><path id="XMLID_370_" class="st8" d="M132.4 67.2c.1 4.2-5 7.6-11.5 7.4s-11.6-3.8-11.4-8.1c.2-4.1 5.5-7.2 11.6-7 6.2.2 11.2 3.6 11.3 7.7z"/><path id="XMLID_369_" class="st15" d="M131 67.1c.1 3.7-4.4 6.6-10.1 6.5s-10.2-3.4-10-7.1c.2-3.6 4.8-6.3 10.2-6.1 5.4.2 9.8 3.2 9.9 6.7z"/><path id="XMLID_368_" class="st8" d="m122.5 63.5-48.6-7c-1.5-.2-2.9.8-3.5 2.5-1 2.8.5 6 2.8 6.3l47.5 6c1 .1 2.9-.2 3.6-1.1.8-1 1.6-2.5.7-4.6-.4-1.2-1.4-2-2.5-2.1z"/><path id="XMLID_367_" class="st13" d="m121.5 64.1-46.3-6.3c-1.4-.2-2.8.5-3.4 1.8-1 2 .3 4.4 2.5 4.7l46.4 5.6c.9.1 1.9-.1 2.5-.8.8-.7 1.4-1.9.6-3.5-.4-.7-1.3-1.3-2.3-1.5z"/><path id="XMLID_366_" class="st14" d="m120.7 64.5-45.9-6.1c-1.4-.2-2.8-.1-3.4.3-1.1.6.2 1.5 2.4 1.8l46.1 5.9c.9.1 3.6.4 3.1-.5-.3-.4-1.3-1.3-2.3-1.4z"/><path id="XMLID_365_" class="st8" d="M87.5 61.8c.2 4.4-4.9 7.9-11.6 7.7-2.1-.1-11.2-.6-12.9-1.3-3.8-1.5.8-4.1.9-7.1.1-2.9-2-7.1 1.5-8.3 1.7-.6 8.2.9 10.3 1 6.3.3 11.6 3.8 11.8 8z"/><path id="XMLID_364_" class="st13" d="M86 61.7c.2 3.9-4.4 7-10.3 6.8-1.9 0-9.9-.6-11.4-1.2-3.4-1.3.7-3.6.8-6.3.1-2.6-1.8-6.3 1.4-7.3 1.5-.5 7.2.8 9.1.9 5.5.3 10.2 3.4 10.4 7.1z"/><path id="XMLID_363_" class="st14" d="m79.1 55.6-7-1.3c-.3-.1-.6.2-.7.6-.2.7.1 1.5.6 1.6l9.8 1.5c.2 0 1.6.3 1.5-.2 0-.4-2.9-1.8-4.2-2.2z"/><path id="XMLID_362_" class="st8" d="M79 60.9c.1 4.4-5.3 7.9-12 7.7-6.8-.2-12.2-4-11.9-8.5.2-4.3 5.7-7.5 12.2-7.3 6.4.3 11.6 3.8 11.7 8.1z"/><path id="XMLID_361_" class="st15" d="M77.6 60.9c.1 3.9-4.6 7-10.6 6.8s-10.8-3.6-10.5-7.5c.2-3.8 5.1-6.7 10.8-6.5 5.6.3 10.2 3.4 10.3 7.2z"/><path id="XMLID_360_" class="st8" d="M73.2 60.8c.1 2.2-2.7 4-6.1 3.9-3.5-.1-6.2-2.1-6.1-4.3.1-2.2 2.9-3.8 6.2-3.7 3.2.1 5.9 2 6 4.1z"/></g><g id="Calque_43_-_copie_2"><path id="XMLID_344_" class="st8" d="m125.8 110.8 14-11c.3-.3.7-.5 1.1-.6l64-16.4c.5-.1 1.4.6 1.9.7l29-1c1.2.2 2.3 1 2.8 2.2l5.6 14.5c.1.1.1.3.1.4 1.5 5.5.3 11.9-4.3 15.8-.4.3-1.6 1.3-3.2 2.4-1.8 1.2-3.9 2.1-6.1 2.4l-13.9 2.5-41.8.3c5.4-5.5-33.1-4.5-47.4-5.7-3.3-.2-4.4-4.5-1.8-6.5z"/><radialGradient id="XMLID_4_" cx="184.609" cy="95.895" r="42.96" gradientTransform="matrix(1 0 0 -1 0 196.11)" gradientUnits="userSpaceOnUse"><stop offset="0" style="stop-color:#d6d5d5"/><stop offset=".321" style="stop-color:#d6d3d3"/><stop offset=".542" style="stop-color:#cccaca"/><stop offset=".732" style="stop-color:#bebcbc"/><stop offset=".903" style="stop-color:#acaaab"/></radialGradient><path id="XMLID_343_" d="m127.4 109.6 13.6-10c.3-.2.7-.4 1.1-.5l62.2-14.7c.4-.1 1.4.6 1.8.6l28.2-.7c1.2.2 2.2.9 2.7 2.1l5.5 13.3c.1.1.1.3.1.4 1.5 5.1-.4 10.3-4.8 13.8-.6.5-1.3.7-2.1.7l-55.2 1.6c-.1 0-37.5.7-51.4-.4-3.1-.4-4.2-4.4-1.7-6.2z" style="fill:url(#XMLID_4_)"/><path id="XMLID_342_" class="st17" d="M230.2 110.3c-11.7.2-13.2-4.7-13.2-4.7l-5.4 4-2.4 5.8 27.6-.6c.8 0 2.4-1.8 2.9-2.3 2-1.7 2.3-3.8 3.1-6-2.8 1.7-6.2 3.7-12.6 3.8z"/><path id="XMLID_341_" class="st8" d="M191.9 89.6c-2.3 0-4.1 2-3.7 4.3l2.5 17.2.4 2c.3 1.8 1.9 3.1 3.7 3l21.7-.4c1.7 0 3.2-1.2 3.6-2.9l.6-2.8c.1-.4.1-.8.1-1.2l-.6-5.9c0-.4-.2-.8-.3-1.2l-4.5-9.7c-.6-1.3-1.9-2.1-3.3-2.1l-20.2-.3z"/><path id="XMLID_340_" d="M189.2 88.1c-2.3 0-4.1 2-3.7 4.3l2.5 17.2.4 2c.3 1.8 1.9 3.1 3.7 3l21.7-.4c1.7 0 3.2-1.2 3.6-2.9l.6-2.8c.1-.4.1-.8.1-1.2l-.6-5.9c0-.4-.2-.8-.3-1.2l-4.5-9.7c-.6-1.3-1.9-2.1-3.3-2.1l-20.2-.3z" style="fill:#1d1d1d"/><path id="XMLID_339_" class="st17" d="m217.8 93.5 22.1-.4-1.6-3.7-19.8-.2-1.1 4.4z"/><path id="XMLID_338_" class="st8" d="m242.8 84.6-.7-2.1c-.3-1.1-2.3-1.8-3.4-1.9l-26-2.3c-1.3-.1-2.4.7-2.9 1.8 0 .1-.1.2-.2.2l-16.2-.3c-4.2-.1-7.5 3.7-6.9 8l2.4 16.4c.6 3.3 3.5 5.7 6.9 5.7l20-.4c3.2-.1 6.7-2.1 7.4-5.2 0 0 .3-1.6.1-2.8l-.6-6c-.1-.8-.1-1.8-.3-2.2l-1-2.4c-.1-.2 0-.3.2-.3l18.4-.1c1.9-.3 3.3-4.3 2.8-6.1z"/><radialGradient id="XMLID_5_" cx="215.263" cy="102.048" r="20.634" gradientTransform="matrix(1 0 0 -1 0 196.11)" gradientUnits="userSpaceOnUse"><stop offset="0" style="stop-color:#a99468"/><stop offset="1" style="stop-color:#cdbe9c"/></radialGradient><path id="XMLID_337_" d="m240.7 85.8-.5-1.8c-.3-1-1.2-1.7-2.2-1.8l-25-2.1c-1.2-.1-2.3.7-2.6 1.7l-14.6-.2c-3.8 0-6.7 3.3-6.1 7l2.1 14.4c.6 2.9 3.2 5 6.1 5l17.8-.4c2.8-.1 5.2-2 5.9-4.8l.1-.6c.1-.6.2-1.3.1-1.9l-.5-5.1c-.1-.7-.3-1.4-.6-2l-2.1-4.5 19.7.1c1.7.2 2.9-1.4 2.4-3z" style="fill:url(#XMLID_5_)"/><path id="XMLID_336_" class="st10" d="m237.1 87.7-21.2-.1c-.9 0-1.7-.4-2-1.1l-1.4-2.6c-.7-1.2.6-2.6 2.2-2.5l22.1 1.5c.9.1 1.7.6 1.9 1.3l.5 1.3c.5 1.1-.6 2.2-2.1 2.2z"/><path id="XMLID_335_" d="M209.1 103.5c-1.8.4-4.5-5.2-6.8-8.9-1.5-2.3-1.1-11.2-3.4-12.8h-3.1c-1.1 0-2.1.3-2.9.7 0 1.5.6 4.6.1 5-1.2.8-1.7 2.3-1.6 3.7.1 1.4.6 2.7 1.1 4l-.2.4c0 1.5.5 3 1.1 4.4s1.2 2.9 2.3 4c.4.4.9.7 1.4 1.1 1 .8 1.7 1.7 2.7 2.5.3.2.5.4.8.6l15.5-.3c2.6-.1 4.8-1.8 5.3-4.4l.2-1c.1-.6.2-1.3.1-1.9 0 0-1.7 2.6-3.4 2.8l-9.2.1z" style="opacity:.13;fill:#3d3d3b;enable-background:new"/><path id="XMLID_334_" class="st12" d="m222.1 80.9-4.6-.4c-1.3.5-2.4 1.6-2.9 2.9-1.2 3.4 1.2 7.7-.8 10.7-1 1.5-2.9 2.2-4.7 2.4-1.8.3-3.7.2-5.4.9-2 .7-4.2 1.7-5.7 3.3-1.5 1.2-1.3 4.2-.8 6 .2.5.4 1 .7 1.4l17.3-.3c.3-.8.8-1.5 1.5-2 1.1-.8 2.6-.8 4-1 .3-.6.6-1.2.7-1.8l.1-.6c.1-.6.2-1.3.1-1.9l-.5-5.1c-.1-.7-.3-1.4-.6-2l-2.1-4.5h4.6c.3-.7.7-1.5.9-2.2 1-2.1 0-4.6-1.8-5.8z"/></g><g id="Calque_41_-_copie_2"><path id="XMLID_328_" class="st8" d="m86.3 115.2 13.3-10.8c.3-.3.7-.5 1.1-.6l62.9-21.2c.4-.1.9-.2 1.4-.2l28.4 2.3c1.2.1 2.3.8 2.8 2l6.2 13.2c.1.1.1.3.2.4 1.7 5.1.1 10.4-4.3 14.2-.6.5-2.2 2.3-3 2.4l-54.9 2.5c-.1 0-56.5-2.2-54.1-4.2z"/><radialGradient id="XMLID_6_" cx="144.838" cy="95.239" r="42.783" gradientTransform="matrix(1 0 0 -1 0 196.11)" gradientUnits="userSpaceOnUse"><stop offset="0" style="stop-color:#d6d5d5"/><stop offset=".321" style="stop-color:#d6d3d3"/><stop offset=".542" style="stop-color:#cccaca"/><stop offset=".732" style="stop-color:#bebcbc"/><stop offset=".903" style="stop-color:#acaaab"/></radialGradient><path id="XMLID_327_" d="m87.1 115 13.1-10.6c.3-.3.7-.4 1-.6l62.1-21c.4-.1.9-.2 1.4-.2l28.1 2.3c1.2.1 2.3.8 2.8 1.9l6.1 13c.1.1.1.3.2.4 1.7 5 .1 10.3-4.2 14-.6.5-2.2 2.3-2.9 2.3l-54.2 2.5c-.2.2-56-2-53.5-4z" style="fill:url(#XMLID_6_)"/><path id="XMLID_326_" class="st17" d="M191.3 105.9c-11.7.2-14.2-3.1-14.2-3.1l-7.6 8.6-11.8 6.9 37-1.7c.8 0 2.4-1.8 2.9-2.3 2-1.7 4.1-8.7 4.9-10.8-2.8 1.7-4.8 2.3-11.2 2.4z"/><path id="XMLID_322_" class="st17" d="m175.5 93.3 22.5.2-1.6-3.9-19.9-1.2-1.2 4.3z"/><path id="XMLID_309_" d="m87.1 115 13.1-10.6c.3-.3.7-.4 1-.6l62.1-21c.4-.1.9-.2 1.4-.2l28.1 2.3c1.2.1 2.3.8 2.8 1.9l6.1 13c.1.1.1.3.2.4 1.7 5 .1 10.3-4.2 14-.6.5-2.2 2.3-2.9 2.3l-54.2 2.5c-.2.2-56-2-53.5-4z" style="fill:none;stroke:#3d3d3b;stroke-width:2;stroke-miterlimit:10"/><path id="XMLID_305_" d="m82.4 114.1-6.9-12.2 97.4-14.4 3.7 10.5c.6 1.8.8 3.8.5 5.8-.9 5.9-5.3 10.5-11.1 12.1-4.1 1.1-10.4 2.6-17.3 3.4l-52.8 3.6c-6-1.1-11-4.4-13.5-8.8z" style="fill:#3d3d3b;stroke:#3d3d3b;stroke-width:2;stroke-miterlimit:10"/><path id="XMLID_284_" d="m176.5 98-3.7-10.5-73.6 10.9-18.7 6c-1.1.3-2 .9-2.7 1.7l4.6 8.1c.6 1.1 1.4 2.2 2.4 3.1l84.1-9.4c2.3-.3 4.3-1.7 5.3-3.8l2.6-5.4c-.1-.3-.2-.5-.3-.7z" style="opacity:.75;fill:#010202;enable-background:new"/><path id="XMLID_101_" class="st8" d="m200.6 85.1-.7-2c-.3-1.1-3-2.6-4.1-2.7l-22.7-3.2h-.5c-.5-.2-1-.4-1.5-.5l-13.8-2.5c-1.1-.2-2.3-.1-3.3.3l-80.1 25.9c-3.9 1.3-5.9 7.3-4.2 11.3 1.2 3 4.2 4.9 7.3 4.5l90.1-10.7c2.4-.3 4.5-1.9 5.6-4.2l4.8-10.7c.3-.7.3-.9.3-.9l18.9 1c1.9.1 4.4-3.8 3.9-5.6z"/><radialGradient id="XMLID_7_" cx="135.703" cy="100.973" r="46.583" gradientTransform="matrix(1 0 0 -1 0 196.11)" gradientUnits="userSpaceOnUse"><stop offset="0" style="stop-color:#a99468"/><stop offset="1" style="stop-color:#cdbe9c"/></radialGradient><path id="XMLID_100_" d="m198.7 86-.5-1.8c-.3-1-1.1-1.7-2.1-1.9L171.2 79h-.5c-.4-.2-.9-.3-1.4-.4l-13.1-2.2c-1.1-.2-2.1-.1-3.2.2L77.2 101c-3.7 1.2-5.7 5.4-4.1 9 1.2 2.7 4 4.4 6.9 4l85.5-9.6c2.3-.3 4.3-1.7 5.3-3.8l4.6-9.6c.5-1 .7-2 .6-3l20.1 1.1c1.7.1 3-1.4 2.6-3.1z" style="fill:url(#XMLID_7_)"/><path id="XMLID_96_" class="st10" d="m195.3 88.1-18.5-1c-.8 0-1.4-.5-1.7-1.1l-1.1-2.6c-.5-1.2.6-2.5 2.1-2.3l19.2 2.4c.8.1 1.4.6 1.6 1.3l.4 1.2c.3 1.1-.7 2.2-2 2.1z"/><path id="XMLID_59_" class="st11" d="M168.8 81.3c-.4-.1-.9-.2-1.3-.3L155 79.4c-1-.1-2 0-3 .2l-72.7 22c-3.5 1-5.3 4.5-3.8 7.4 1.1 2.2 3.8 3.5 6.6 3.2l80.9-9.3c2.2-.2 4.1-1.4 5-3.2l4.2-7.9c.4-.8.6-1.6.6-2.5 0 0-3.9-8-4-8z"/><g id="Calque_4_-_copie_3_2_"><path id="XMLID_57_" class="st12" d="m80 114.1 50.4-5.6c0-.7-.1-1.4-.3-2.1-.6-2.4-2.7-4.6-5.3-4.6-3 0-5.8 2.9-8.6 1.8-2-.8-2.8-3.2-4.2-4.9-2.1-2.7-6.8-3.4-8.9-.7-2.3 2.8-.6 7.5-2.9 10.3-1.5 1.9-4.5 2.2-6.8 1.2s-3.9-3-5.3-5c-.6-.9-1.2-1.9-2.1-2.6-2.5-2-6.5-1.1-8.4 1.5-1.8 2.6-1.7 6.3-.2 9.1.4.7.8 1.3 1.4 1.8.4-.2.8-.2 1.2-.2z"/><path id="XMLID_55_" class="st12" d="M176.6 81.5c-2.5-.8-5.5.6-6.4 3.1-1.2 3.4 1.2 7.7-.8 10.7-1 1.5-2.9 2.2-4.7 2.4-1.8.3-3.7.2-5.4.9-2 .7-4.2 1.7-5.7 3.3-1.1.8-1.3 2.6-1.1 4.1l13-1.5c2.3-.3 4.3-1.7 5.3-3.8l4.6-9.6c.5-1 .7-2 .6-3l3.6.2c.1-.1.1-.3.1-.4.9-2.6-.6-5.6-3.1-6.4z"/><path id="XMLID_42_" class="st12" d="M148.7 99.8c-.5-2.2-2.3-4.6-.9-6.4 1-1.2 2.9-1 4.4-.9 1.6.1 3.6-.3 3.9-1.9.2-1.5-1.7-3.5-2.7-3.3-.9 0-1.7-2.7-1.2-3.4 1.2-1.7 2.6-3.2 3.3-5.2.3-.7.4-1.5.4-2.3-1-.1-1.9 0-2.8.3L121 87c-.1 2 .5 4 1.6 5.6 1.6 2.2 4.4 3.5 7.1 2.9.7-.2 1.4-.4 2.1-.3.5.1.9.4 1.2.7 1.7 1.5 2.7 3.8 2.6 6.1-.1 1.6-.6 3.3.1 4.7.2.4.5.8.9 1.1l8.1-.9c2.5-1.7 4.5-4.3 4-7.1z"/></g></g></g></g></svg>