<svg version="1.0" id="Calque_1" xmlns="http://www.w3.org/2000/svg" x="0" y="0" viewBox="0 0 300 195.2" style="enable-background:new 0 0 300 195.2" xml:space="preserve"><style>.st0{display:none}.st1{display:inline}.st6{fill:#f1a823}.st7{fill:#fcf18f}.st8{fill:#3d3d3b}.st10,.st11,.st12{opacity:.25;fill:#fff;enable-background:new}.st11,.st12{fill:#222223}.st12{fill:#5d1b1b}.st13{fill:#aba9aa}.st14{fill:#e5e5e4}.st15{fill:#d7d6d6}.st17{fill:#6f6f6e}.st26{opacity:.25;fill:#030405;enable-background:new}.st33{fill:#fff}</style><g id="Calque_2"><g id="Calque_39"><path id="XMLID_263_" class="st26" d="m228.9 164.6 25.2 7.3c2.7.8 11.9 2.4 13.7.3 1.1-1.3-6.5-7.3-7.9-8.1l-8-6.3c-2.1-2.2-3.5-4.2.9-6.3l8.1-1.1c6.1-.7 13.4-.3 13.2-2-.4-2.8-8.9-4.3-11.7-5.1l-25.2-7.3c-5.1-1.5-10.5 1.7-12 7l-2.7 9.3c-.8 2.8-2.4 6.6-1.1 8.9 1.1 2 5.1 2.7 7.5 3.4z"/><linearGradient id="XMLID_8_" gradientUnits="userSpaceOnUse" x1="270.293" y1="17072.984" x2="217.098" y2="17072.984" gradientTransform="translate(0 -16923.89)"><stop offset="0" style="stop-color:#eb5959"/><stop offset=".089" style="stop-color:#d74746"/><stop offset=".231" style="stop-color:#be3532"/><stop offset=".383" style="stop-color:#ac2a23"/><stop offset=".548" style="stop-color:#9f211d"/><stop offset=".736" style="stop-color:#981c1a"/><stop offset="1" style="stop-color:#951919"/></linearGradient><path id="XMLID_262_" d="m225.1 159.3 25.2 7.3c2.7.8 11.9 2.4 13.7.3 1.1-1.3-6.5-7.3-7.9-8.1l-8-6.3c-2.1-2.2-3.5-4.2.9-6.3l8.1-1.1c6.1-.7 13.4-.3 13.2-2-.4-2.8-8.9-4.3-11.7-5.1l-25.2-7.3c-5.1-1.5-10.5 1.7-12 7l-2.7 9.3c-.8 2.8-2.4 6.6-1.1 8.9 1.1 2 5.1 2.7 7.5 3.4z" style="fill:url(#XMLID_8_);stroke:#3b1913;stroke-width:3;stroke-miterlimit:10"/><path id="XMLID_261_" class="st26" d="M70.9 163.7 45.8 171c-2.7.8-11.9 2.4-13.7.3-1.1-1.3 6.5-7.3 7.9-8.1l8-6.3c2.1-2.2 3.5-4.2-.9-6.3l-8.1-1.1c-6.1-.7-13.4-.3-13.2-2 .4-2.8 8.9-4.3 11.7-5.1l25.2-7.3c5.1-1.5 10.5 1.7 12 7l2.7 9.3c.8 2.8 2.4 6.6 1.1 8.9-1.2 2.1-5.1 2.7-7.6 3.4z"/><linearGradient id="XMLID_9_" gradientUnits="userSpaceOnUse" x1="239.144" y1="47.915" x2="185.948" y2="47.915" gradientTransform="rotate(180 134.392 98.055)"><stop offset="0" style="stop-color:#eb5959"/><stop offset=".089" style="stop-color:#d74746"/><stop offset=".231" style="stop-color:#be3532"/><stop offset=".383" style="stop-color:#ac2a23"/><stop offset=".548" style="stop-color:#9f211d"/><stop offset=".736" style="stop-color:#981c1a"/><stop offset="1" style="stop-color:#951919"/></linearGradient><path id="XMLID_260_" d="m74.7 158.4-25.2 7.3c-2.7.8-11.9 2.4-13.7.3-1.1-1.3 6.5-7.3 7.9-8.1l8-6.3c2.1-2.2 3.5-4.2-.9-6.3l-8.1-1.1c-6.1-.7-13.4-.3-13.2-2 .4-2.8 8.9-4.3 11.7-5.1l25.2-7.3c5.1-1.5 10.5 1.7 12 7l2.7 9.3c.8 2.8 2.4 6.6 1.1 8.9-1.1 2-5 2.7-7.5 3.4z" style="fill:url(#XMLID_9_);stroke:#3b1913;stroke-width:3;stroke-miterlimit:10"/><g id="XMLID_257_" style="opacity:.25"><path id="XMLID_271_" d="M224.6 154.1c-48.7-13.5-100.1-13.5-148.8 0-6.4 1.8-13.4-1.6-15.5-7.9-1-3.1-2-6.1-3-9.2-2.1-6.3 2.1-13.3 9.5-15.4 54.5-15.1 112.2-15.1 166.7 0 7.3 2 11.6 9.1 9.5 15.4-1 3.1-2 6.1-3 9.2-2 6.2-8.9 9.6-15.4 7.9z" style="fill:#030405"/></g><g id="XMLID_34_"><radialGradient id="XMLID_10_" cx="150.295" cy="67.568" r="67.862" gradientTransform="matrix(1 0 0 -1 0 196.11)" gradientUnits="userSpaceOnUse"><stop offset="0" style="stop-color:#eb5959"/><stop offset="1" style="stop-color:#951919"/></radialGradient><path id="XMLID_51_" d="M225.2 149.6a280.1 280.1 0 0 0-149.8 0c-6.4 1.8-13.4-1.6-15.5-7.9-.9-2.7-1.7-5.3-2.6-8-2.1-6.3 2.1-13.3 9.4-15.4 54.7-15.2 112.4-15.2 167.1 0 7.3 2 11.5 9.1 9.4 15.4-.9 2.7-1.7 5.3-2.6 8-2.1 6.3-9 9.7-15.4 7.9z" style="fill:url(#XMLID_10_)"/><path id="XMLID_50_" d="M225.2 149.6a280.1 280.1 0 0 0-149.8 0c-6.4 1.8-13.4-1.6-15.5-7.9-.9-2.7-1.7-5.3-2.6-8-2.1-6.3 2.1-13.3 9.4-15.4 54.7-15.2 112.4-15.2 167.1 0 7.3 2 11.5 9.1 9.4 15.4-.9 2.7-1.7 5.3-2.6 8-2.1 6.3-9 9.7-15.4 7.9z" style="fill:none;stroke:#3c1912;stroke-width:3;stroke-miterlimit:10"/></g><g id="XMLID_26_"><g id="XMLID_138_"><path id="XMLID_158_" class="st33" d="M102.5 119.4c1.5-.3 2.9-.5 4.4-.7 1.2-.2 2.1-.2 2.8-.2.7.1 1.2.3 1.5.5.4.3.6.7.8 1.1.2.5.3 1.2.5 2.1.1.5.1.9.2 1.4.1 1 .1 1.7 0 2.2s-.5.9-1 1.2-1.3.6-2.2.7c-.4.1-.8.1-1.1.2.3 2.1.7 4.2 1 6.3-1.4.2-2.7.4-4.1.7-1-5.1-1.9-10.3-2.8-15.5zm4.8 2c.2 1.3.4 2.6.6 4h.3c.4-.1.6-.2.8-.4.1-.2.1-.6.1-1.2-.1-.4-.1-.9-.2-1.3-.1-.5-.2-.9-.4-1-.3-.2-.7-.2-1.2-.1z"/><path id="XMLID_155_" class="st33" d="M113.1 117.8c1-.1 2.1-.3 3.1-.4 2.1-.3 3.5-.3 4.2-.3.7.1 1.4.4 1.9 1s.8 1.5 1 2.9c.1 1.2 0 2.1-.2 2.5-.3.5-.9.8-1.8 1 .9.1 1.5.3 1.8.6s.5.6.6.9c.1.3.2 1 .3 2.3.1 1.4.3 2.8.4 4.1-1.3.1-2.5.3-3.8.4-.2-1.7-.4-3.5-.6-5.2-.1-.8-.2-1.4-.4-1.5-.2-.2-.5-.2-1.1-.2.3 2.4.6 4.7.8 7.1-1.4.2-2.7.3-4.1.5-.7-5.3-1.4-10.5-2.1-15.7zm4.7 2.1c.1 1.2.3 2.3.4 3.5.5-.1.8-.2 1-.3s.2-.6.1-1.3c0-.3-.1-.6-.1-.9-.1-.5-.2-.8-.4-.9-.2-.1-.5-.2-1-.1z"/><path id="XMLID_152_" class="st33" d="M135.1 124.9c.1 1.6.1 2.7.1 3.4s-.2 1.3-.6 1.9c-.4.6-.9 1-1.5 1.4-.7.3-1.4.5-2.3.6-.8.1-1.6 0-2.3-.2s-1.3-.6-1.7-1.1c-.5-.5-.8-1.1-.9-1.7-.1-.6-.3-1.8-.4-3.4l-.3-2.7c-.1-1.6-.2-2.7-.2-3.4s.2-1.3.6-1.9c.4-.6.9-1.1 1.6-1.4.7-.4 1.5-.6 2.5-.6.9-.1 1.7 0 2.5.2.7.2 1.3.6 1.8 1.1s.8 1.1.9 1.8c.1.6.2 1.8.3 3.4-.3.8-.2 1.7-.1 2.6zm-4.7-4.9c-.1-.7-.1-1.2-.2-1.4-.1-.2-.3-.3-.6-.3-.2 0-.4.1-.5.3s-.1.7-.1 1.5c.2 2.5.4 4.9.6 7.4.1.9.2 1.5.2 1.7.1.2.3.3.6.3s.5-.2.5-.4c.1-.3.1-.8 0-1.8-.1-2.4-.3-4.8-.5-7.3z"/><path id="XMLID_150_" class="st33" d="M146.3 121.1c-1.4 0-2.9.1-4.3.1v-1.4c0-.9-.1-1.5-.2-1.7-.1-.2-.3-.3-.6-.3s-.4.1-.5.3-.1.7-.1 1.5c.1 2.5.2 5.1.3 7.6 0 .7.1 1.2.2 1.4.1.2.3.3.6.3s.5-.1.6-.4c.1-.3.1-.8.1-1.5 0-.6 0-1.2-.1-1.9h-.9c0-.8-.1-1.6-.1-2.4 1.7-.1 3.3-.1 5-.1 0 2.8.1 5.7.1 8.5-.9 0-1.7 0-2.6.1-.1-.4-.3-.7-.4-1.1-.3.5-.6.9-1 1.1-.4.3-.9.4-1.5.4-.7 0-1.3-.1-2-.4-.6-.3-1.1-.7-1.4-1.2-.3-.5-.6-1-.7-1.5-.1-.5-.2-1.4-.2-2.4-.1-1.6-.2-3.1-.2-4.7-.1-1.5-.1-2.6.1-3.3.1-.7.6-1.3 1.4-2 .8-.6 1.8-.9 3.2-1 1.3 0 2.4.2 3.2.6.9.5 1.4 1.1 1.7 1.7.3.7.4 1.7.4 3-.1.2-.1.5-.1.7z"/><path id="XMLID_147_" class="st33" d="M147.9 115.2h3.1c2.1 0 3.5.1 4.2.3s1.3.6 1.8 1.2c.4.6.6 1.6.6 3 0 1.2-.2 2.1-.5 2.5s-1 .7-1.9.7c.8.2 1.4.5 1.7.8s.5.7.5.9c.1.3.1 1.1 0 2.3 0 1.4-.1 2.8-.1 4.2-1.3 0-2.6-.1-3.8-.1 0-1.8 0-3.5.1-5.3 0-.8-.1-1.4-.2-1.6-.1-.2-.5-.3-1.1-.3v7.1h-4.1c-.2-5.1-.3-10.4-.3-15.7zm4.3 2.7v3.5c.5 0 .8-.1 1-.2.2-.1.3-.5.3-1.2v-.9c0-.5-.1-.8-.3-1-.1-.1-.5-.2-1-.2z"/><path id="XMLID_144_" class="st33" d="M166.9 115.7c.5 5.3 1 10.6 1.4 15.9-1.4-.1-2.8-.2-4.2-.2 0-.9-.1-1.9-.1-2.8-.5 0-1 0-1.5-.1-.1.9-.3 1.9-.4 2.8-1.4-.1-2.8-.1-4.3-.2.8-5.2 1.7-10.5 2.7-15.7 2.2.1 4.3.2 6.4.3zm-2.8 10c-.1-1.8-.2-4-.3-6.7-.6 3-.9 5.2-1.1 6.6.4.1.9.1 1.4.1z"/><path id="XMLID_142_" class="st33" d="M183.6 117.2c-.6 5.2-1.2 10.5-1.9 15.7-1.2-.1-2.4-.3-3.6-.4.4-3.5.7-7.1 1.1-10.6-.9 3.5-1.7 7-2.5 10.5-.9-.1-1.7-.2-2.6-.2l-.6-10.5c-.3 3.5-.6 6.9-.9 10.4l-3.6-.3c.4-5.3.7-10.5 1.1-15.8 1.9.1 3.8.3 5.7.4.1 1 .2 2.1.2 3.4.1 1.4.2 2.7.2 4.1.6-2.4 1.1-4.8 1.7-7.3 1.9.1 3.8.3 5.7.6z"/><path id="XMLID_139_" class="st33" d="M198.3 123.5c-1.4-.2-2.7-.5-4.1-.7.1-.7.2-1.2.2-1.4s0-.4-.2-.5c-.1-.2-.3-.2-.6-.3-.2 0-.4 0-.5.1-.2.1-.3.2-.3.4-.1.2-.1.6-.2 1.2-.1.8-.3 1.7-.4 2.5.3-.4.6-.7 1.1-.8.4-.1 1-.2 1.5-.1.7.1 1.4.4 1.9.9s.8 1 .8 1.6c.1.6 0 1.3-.2 2.2-.1.4-.1.8-.2 1.2-.2 1.1-.4 1.9-.6 2.4-.2.5-.5 1-.9 1.4s-1 .7-1.7.8-1.4.1-2.3 0c-1.1-.2-1.9-.4-2.5-.8-.6-.4-1.1-.9-1.4-1.5-.3-.6-.4-1.2-.4-1.8s.1-1.8.4-3.5c.1-.7.2-1.4.3-2.2.3-1.9.5-3.1.6-3.7.1-.6.5-1.2 1-1.7s1.1-.8 1.9-1c.8-.2 1.6-.2 2.6 0 1.2.2 2.1.5 2.8 1s1.1 1.1 1.3 1.8c.2.7.2 1.6.1 2.5zm-4.9 4.2c.1-.6.1-.9 0-1.2-.1-.2-.3-.4-.6-.4s-.5 0-.7.2-.3.6-.4 1.1c-.1.9-.3 1.9-.4 2.8-.1.7-.1 1.1 0 1.4.1.2.3.4.6.4.2 0 .4 0 .6-.2.2-.1.4-.6.5-1.3.1-.8.2-1.8.4-2.8z"/></g></g></g></g></svg>