<svg version="1.0" id="Calque_51_-_copie" xmlns="http://www.w3.org/2000/svg" x="0" y="0" width="300" height="260" style="enable-background:new 0 0 300 260" xml:space="preserve"><style>.st0{fill:none;stroke:#754c29;stroke-width:8;stroke-miterlimit:10}.st2{display:none}.st3{display:inline;fill:none;stroke:#754c29;stroke-width:8;stroke-miterlimit:10}.st10{opacity:.25;fill:#fbb85e}.st11{opacity:.5;fill:#dea987;stroke:#4e3012;stroke-width:2;stroke-miterlimit:10}.st12,.st13{opacity:.3;fill:#682e1a}.st13{fill:#3c2415}.st14{opacity:.5;fill:#ecc194}</style><g id="Calque_45_-_copie_2"><g id="Calque_50_-_copie_3"><g id="Calque_9_-_copie"><path id="XMLID_15_" class="st0" d="M256.1 191.6c-7.4-2-15.2.3-20.2 6.1-10.9 12.5-5.3 20.7-11.1 25.7-4.4 3.8-13.7 10.1-23 11 14.6 8.3 28.5 7.6 35.2 7.2 16.6-1 26.9-6.4 34.4-20.6 3.7-6.9.4-17.1-3-21.3-3.2-3.7-7.5-6.8-12.3-8.1z"/><linearGradient id="XMLID_2_" gradientUnits="userSpaceOnUse" x1="215.601" y1="248.487" x2="266.636" y2="197.948"><stop offset="0" style="stop-color:#e93e3a"/><stop offset=".182" style="stop-color:#ec5c3c"/><stop offset=".301" style="stop-color:#ed683c"/><stop offset=".407" style="stop-color:#f07e3e"/><stop offset=".597" style="stop-color:#f49e41"/><stop offset=".766" style="stop-color:#f8b643"/><stop offset=".906" style="stop-color:#fbc543"/><stop offset="1" style="stop-color:#fccb43"/></linearGradient><path id="XMLID_17_" d="M256.1 191.6c-7.4-2-15.2.3-20.2 6.1-10.9 12.5-5.3 20.7-11.1 25.7-4.4 3.8-13.7 10.1-23 11 14.6 8.3 28.5 7.6 35.2 7.2 16.6-1 26.9-6.4 34.4-20.6 3.7-6.9.4-17.1-3-21.3-3.2-3.7-7.5-6.8-12.3-8.1z" style="fill:url(#XMLID_2_)"/></g></g><circle id="XMLID_18_" class="st10" cx="251.6" cy="213" r="19.7"/><g id="Calque_10_-_copie_3"><path id="XMLID_36_" class="st11" d="M240.4 223.8c-.7-1-.7-2.7-1.5-3.8-.8-1.2-2-2.2-2.3-3.6-.1-.5-.1-1 0-1.4 0-.9.1-1.9.1-2.8.1-1.9.2-4 1.2-5.6.2-.4.5-.7.7-1.2.2-.5.3-1 .4-1.5.7-2.3 3.4-3.3 4.5-5.4.2-.5.5-1 1-1.2.5-.1 1 .2 1.5 0 .3-.1.5-.4.7-.6.5-.5 1.3-.6 2-.6.7.1 1.4.3 2.1.4 1.3.2 2.7.1 4 .1 1 0 2.1.1 3 .6 1.4.9 2 2.7 3.4 3.6.8.5 1.8.6 2.8.9s1.9 1 1.9 2c0 .4-.1.7-.2 1.1-.5 2.3.6 4.6.8 6.9.1 1 .1 2.1 0 3.1 0 .6-.1 1.2-.3 1.7-.2.4-.4.7-.6 1-.5 1.1 0 2.5-.7 3.4-.4.5-1 .8-1.5 1.1-1 .7-1.7 1.8-1.8 3.1 0 .3 0 .7-.2 1-.4.8-1.6.7-2.6.7-1.8.1-3.3 1.3-5.1 1.6-2.5.4-5-1.1-7.6-1.1-.7 0-1.4 0-2-.2-1.5-.6-3.1-2-3.7-3.3"/><path id="XMLID_35_" class="st12" d="M254.8 196.5c-1.3 0-2.7.2-4-.1-.7-.1-1.4-.3-2.1-.4-.7-.1-1.5.1-2 .6-.2.2-.4.5-.7.6-.2.1-.5.1-.8 0v.2l.3.3c1.1.8 2.7 0 3.9.6.4.2.7.5 1.1.7.4.2.9.4 1.2.1.2-.1.3-.3.5-.5.4-.4 1.1-.4 1.7-.3.6.1 1.3.5 1.6 1 .3.6.2 1.4-.4 1.7.1.3.5.5.9.4.4 0 .7-.1 1 .1.3.2.3.7.2 1.1-.3 1.5-1.4 3.1-.6 4.5.3.5.8.9.9 1.5.1.4-.1.9-.2 1.3s0 1 .4 1.2c.2.1.5.1.8.1.7.1 1.1.9 1.1 1.5s-.4 1.3-.7 1.9c-.4-.2-.8-.4-1.2-.5-.6.8-1.5 1.3-2.5 1.6 0-.6-.8-1-1.4-.8-.6.2-1 .7-1.4 1.2-.2.3-.4.7-.5 1.1-.2 1.1.9 2 1.9 2.3.3.1.5.1.7-.1.1-.1.2-.3.3-.5.3-.7 1.1-1.2 1.9-1.1.8.1 1.5.7 1.5 1.5 0 .6-.4 1.2-1 1.5-.5.3-1.2.4-1.8.3.1.6 0 1.2-.4 1.7-.1-.4-.5-.5-.9-.4-.4.1-.7.3-1.1.2-.8-.1-1.1-1.2-1.9-1.4-.8-.2-1.6.6-1.5 1.4 0 .8.6 1.5 1.1 2.1.3.3.6.6.7.9.1.4-.1.9-.5.9-.3 0-.6-.3-.9-.5-1.3-1.4-3.7-1.6-5.3-.4.3-.4-.1-1-.6-1.2-.5-.2-1-.2-1.4-.6-.2-.2-.3-.4-.4-.6-.4-.4-1-.4-1.4-.1-.2.1-.3.2-.4.3.7 1.3 2.3 2.6 3.9 3.2.6.2 1.3.2 2 .2 2.6.1 5.1 1.6 7.6 1.1 1.8-.3 3.3-1.5 5.1-1.6.9 0 2.1.1 2.6-.7.2-.3.2-.7.2-1 .1-1.2.8-2.3 1.8-3.1.5-.4 1.1-.6 1.5-1.1.7-1 .2-2.4.7-3.4.2-.4.4-.7.6-1 .3-.5.3-1.1.3-1.7 0-1 .1-2.1 0-3.1-.3-2.3-1.3-4.6-.8-6.9.1-.3.2-.7.2-1.1 0-1-1-1.7-1.9-2-.9-.3-1.9-.4-2.8-.9-1.4-.9-2-2.7-3.4-3.6-1.2-.1-2.2-.2-3.3-.2z"/><path id="XMLID_30_" class="st13" d="M256.6 196.7c.5.3 1.1.7 1.1 1.2 0 .3-.1.5-.1.8 0 .3.3.6.5.8.6.5 1.2.9 1.9 1.3.3.2.7.3.9.6.1.2.2.4.4.6.4.4 1 .2 1.5.4.7.2 1 1 1.2 1.8.3.9.6 1.9.4 2.9-.1.4-.2.7-.2 1.1 0 .7.7 1.3 1.4 1.3-.8 1.1-.1 2.6 0 3.9 0 .7 0 1.3-.2 1.9-.5 2.1-1.6 4.1-3.2 5.7-.3.3-.6.6-.8.9-.2.4-.3.9-.5 1.3s-.5.8-1 .8h-.5c-.7.1-.5 1.3-1 1.9-.5.7-1.5.4-2.3.5-1.4.1-2.6 1-4 1.2-.3 0-.5 0-.8-.1-.4-.2-.5-.6-.9-.8-.5-.4-1.3-.2-1.9-.6l-.6-.6c-.8-.5-1.8.4-2.6.2-.2 0-.3-.1-.5-.2-.7-.4-1.3-1.1-1.6-1.8-.1-.2-.1-.3-.3-.4-.2-.1-.4-.1-.6-.1-.7 0-1.5 0-2.1.4 0 .1.1.2.1.2.7 1.3 2.3 2.7 3.9 3.2.6.2 1.3.2 2 .2 2.6.1 5.1 1.6 7.6 1.1 1.8-.3 3.3-1.5 5.1-1.6.9 0 2.1.1 2.6-.7.2-.3.2-.7.2-1 .1-1.2.8-2.3 1.8-3.1.5-.4 1.1-.6 1.5-1.1.7-1 .2-2.4.7-3.4.2-.4.4-.7.6-1 .3-.5.3-1.1.3-1.7 0-1 .1-2.1 0-3.1-.3-2.3-1.3-4.6-.8-6.9.1-.3.2-.7.2-1.1 0-1-1-1.7-1.9-2-.9-.3-1.9-.4-2.8-.9-1.4-.9-2-2.7-3.4-3.6-.4-.2-.8-.3-1.3-.4z"/><path id="XMLID_28_" class="st14" d="M242.2 222.4c-.6-1.2-.8-2.5-.5-3.8.2-.7.5-1.3 1-1.8s1.3-.7 1.9-.4c-.5-.8-.3-1.8-.6-2.7-.4-1.3-2-2-3.2-1.6-.2.1-.4.1-.5.1-.3-.1-.4-.5-.4-.8-.1-2.2.7-4.5 2.2-6.2.1-.1.3-.3.4-.2.1 0 .1.1.2.2.3.5.3 1.2.3 1.8s.2 1.3.7 1.6c.7.5 1.7.2 2.5.5 1 .5 1.3 2 2.4 2.3.5.1 1 0 1.5.2-1.1-.7-1.2-2.5-2.4-3 .6-.5 1.3-1 2-1.2.3-.1.6-.2.9-.2 1.2-.2 2.5-.1 3.7.3-.7-1.7-1.3-3.3-2-5-.1-.1-.1-.3-.2-.4-.2-.3-.6-.3-1-.2s-.7.2-1 .3c-1.1.2-2.2-.5-2.7-1.5-.3-.5-.5-1.2-1.1-1.4-.5-.1-.9.2-1.3.5-.3.4-.5.8-.9 1.1-.8.8-2.1.8-3 1.4-1 .8-1.3 2.2-1.8 3.4-.4.9-1 1.7-1.3 2.6-.6 1.8.1 3.7-.2 5.6-.1.9-.5 1.9-.2 2.8.3.7.9 1.2 1.4 1.8.5.6.8 1.4 1.2 2.1.5.8 1.8 2.1 2 1.9 0 .2.1 0 0-.1"/><path id="XMLID_24_" class="st14" d="M256.1 219.4c.3.3.2.7.1 1.1-.2.4-.7.6-1 .3l-.3-.3c-.2-.1-.3 0-.5 0-.4.1-.8.2-1.3.3-.5.1-1 .3-1.5.1-.7-.3-.9-1.4-1.6-1.8l-.6-.3c-.4-.2-.7-.7-.7-1.2s.2-1 .6-1.3c.1-.1.3-.2.4-.4.4-.5 0-1.2.1-1.9 0-.4.2-.7.4-1 .5-.7.9-1.4 1.5-2 .3-.3.6-.5 1-.6.4-.1.8 0 1.1.3.2.3.2.6.4 1s.4.7.7.6c.2 0 .3-.2.5-.3.6-.4 1.5-.3 2.2-.1.1 0 .2.1.3.1.2.1.2.4.1.6-.1.4-.5.7-.9.9-.8.5-1.7.9-2.7.7-.5-.1-1-.5-1.5-.3-.2.1-.3.2-.5.4-.4.4-.8.8-1.1 1.2-.4.4-.7.8-.9 1.3-.2.5-.1 1.1.4 1.4.3.2.6.2.9.4.4.2.6.5.9.8.7.5 1.8.5 2.4-.2.2-.2.3-.4.6-.5.1.4.4.4.5.7"/></g></g><g id="Calque_45_-_copie_4"><g id="Calque_50_-_copie_5"><g id="Calque_9_-_copie_4_1_"><path id="XMLID_60_" class="st0" d="M39.3 67.5c7.4 2 15.2-.3 20.2-6.1 10.9-12.5 5.3-20.7 11.1-25.7 4.4-3.8 13.7-10.1 23-11-14.6-8.3-28.5-7.6-35.2-7.2-16.4 1-26.7 6.4-34.2 20.5-3.7 6.9-.4 17.1 3 21.3 3.1 3.8 7.3 6.9 12.1 8.2z"/><linearGradient id="XMLID_39_" gradientUnits="userSpaceOnUse" x1="393.813" y1="428.673" x2="444.848" y2="378.133" gradientTransform="rotate(180 236.846 219.655)"><stop offset="0" style="stop-color:#e93e3a"/><stop offset=".182" style="stop-color:#ec5c3c"/><stop offset=".301" style="stop-color:#ed683c"/><stop offset=".407" style="stop-color:#f07e3e"/><stop offset=".597" style="stop-color:#f49e41"/><stop offset=".766" style="stop-color:#f8b643"/><stop offset=".906" style="stop-color:#fbc543"/><stop offset="1" style="stop-color:#fccb43"/></linearGradient><path id="XMLID_59_" d="M39.3 67.5c7.4 2 15.2-.3 20.2-6.1 10.9-12.5 5.3-20.7 11.1-25.7 4.4-3.8 13.7-10.1 23-11-14.6-8.3-28.5-7.6-35.2-7.2-16.4 1-26.7 6.4-34.2 20.5-3.7 6.9-.4 17.1 3 21.3 3.1 3.8 7.3 6.9 12.1 8.2z" style="fill:url(#XMLID_39_)"/></g></g><circle id="XMLID_7_" class="st10" cx="43.9" cy="46.1" r="19.7"/><g id="Calque_10_-_copie_7"><path id="XMLID_12_" class="st11" d="M55.1 35.3c.7 1 .7 2.7 1.5 3.8.8 1.2 2 2.2 2.3 3.6.1.5.1 1 0 1.4 0 .9-.1 1.9-.1 2.8-.1 1.9-.2 4-1.2 5.6-.2.4-.5.7-.7 1.2-.2.5-.3 1-.4 1.5-.7 2.3-3.4 3.3-4.5 5.4-.2.5-.5 1-1 1.2-.5.1-1-.2-1.5 0-.3.1-.5.4-.7.6-.5.5-1.3.6-2 .6-.7-.1-1.4-.3-2.1-.4-1.3-.2-2.7-.1-4-.1-1 0-2.1-.1-3-.6-1.4-.9-2-2.7-3.4-3.6-.8-.5-1.8-.6-2.8-.9-.9-.3-1.9-1-1.9-2 0-.4.1-.7.2-1.1.5-2.3-.6-4.6-.8-6.9-.1-1-.1-2.1 0-3.1 0-.6.1-1.2.3-1.7.2-.4.4-.7.6-1 .5-1.1 0-2.5.7-3.4.4-.5 1-.8 1.5-1.1 1-.7 1.7-1.8 1.8-3.1 0-.3 0-.7.2-1 .4-.8 1.6-.7 2.6-.7 1.8-.1 3.3-1.3 5.1-1.6 2.5-.4 5 1.1 7.6 1.1.7 0 1.4 0 2 .2 1.5.7 3 2 3.7 3.3"/><path id="XMLID_11_" class="st12" d="M40.7 62.6c1.3 0 2.7-.2 4 .1.7.1 1.4.3 2.1.4.7.1 1.5-.1 2-.6.2-.2.4-.5.7-.6.2-.1.5-.1.8 0v-.2l-.3-.3c-1.1-.8-2.7 0-3.9-.6-.4-.2-.7-.5-1.1-.7s-.9-.4-1.2-.1c-.2.1-.3.3-.5.5-.4.4-1.1.4-1.7.3-.6-.1-1.3-.5-1.6-1-.3-.6-.2-1.4.4-1.7-.1-.3-.5-.5-.9-.4-.4 0-.7.1-1-.1-.3-.2-.3-.7-.2-1.1.3-1.5 1.4-3.1.6-4.5-.3-.5-.8-.9-.9-1.5-.1-.4.1-.9.2-1.3s0-1-.4-1.2c-.2-.1-.5-.1-.8-.1-.7-.1-1.1-.9-1.1-1.5 0-.7.4-1.3.7-1.9.4.2.8.4 1.2.5.6-.8 1.5-1.3 2.5-1.6 0 .6.8 1 1.4.8.6-.2 1-.7 1.4-1.2.2-.3.4-.7.5-1.1.2-1.1-.9-2-1.9-2.3-.3-.1-.5-.1-.7.1-.1.1-.2.3-.3.5-.3.7-1.1 1.2-1.9 1.1-.8-.1-1.5-.7-1.5-1.5 0-.6.4-1.2 1-1.5.5-.3 1.2-.4 1.8-.3-.1-.6 0-1.2.4-1.7.1.4.5.5.9.4.4-.1.7-.3 1.1-.2.8.1 1.1 1.2 1.9 1.4.8.2 1.6-.6 1.5-1.4 0-.8-.6-1.5-1.1-2.1-.3-.3-.6-.6-.7-.9-.1-.4.1-.9.5-.9.3 0 .6.3.9.5 1.3 1.4 3.7 1.6 5.3.4-.3.4.1 1 .6 1.2.5.2 1 .2 1.4.6.2.2.3.4.4.6.4.4 1 .4 1.4.1.2-.1.3-.2.4-.3-.7-1.3-2.3-2.6-3.9-3.2-.6-.2-1.3-.2-2-.2-2.6-.1-5.1-1.6-7.6-1.1-1.8.3-3.3 1.5-5.1 1.6-.9 0-2.1-.1-2.6.7-.2.3-.2.7-.2 1-.1 1.2-.8 2.3-1.8 3.1-.5.4-1.1.6-1.5 1.1-.7 1-.2 2.4-.7 3.4-.2.4-.4.7-.6 1-.3.5-.3 1.1-.3 1.7 0 1-.1 2.1 0 3.1.3 2.3 1.3 4.6.8 6.9-.1.3-.2.7-.2 1.1 0 1 1 1.7 1.9 2 .9.3 1.9.4 2.8.9 1.4.9 2 2.7 3.4 3.6 1.1.1 2.2.2 3.3.2z"/><path id="XMLID_6_" class="st13" d="M38.9 62.4c-.5-.3-1.1-.7-1.1-1.2 0-.3.1-.5.1-.8 0-.3-.3-.6-.5-.8-.6-.5-1.2-.9-1.9-1.3-.3-.2-.7-.3-.9-.6-.1-.2-.2-.4-.4-.6-.4-.4-1-.2-1.5-.4-.7-.2-1-1-1.2-1.8-.3-.9-.6-1.9-.4-2.9.1-.4.2-.7.2-1.1 0-.7-.7-1.3-1.4-1.3.8-1.1.1-2.6 0-3.9 0-.7 0-1.3.2-1.9.5-2.1 1.6-4.1 3.2-5.7.3-.3.6-.6.8-.9.2-.4.3-.9.5-1.3s.5-.8 1-.8h.5c.7-.1.5-1.3 1-1.9.5-.7 1.5-.4 2.3-.5 1.4-.1 2.6-1 4-1.2.3 0 .5 0 .8.1.4.2.5.6.9.8.5.4 1.3.2 1.9.6l.6.6c.8.5 1.8-.4 2.6-.2.2 0 .3.1.5.2.7.4 1.3 1.1 1.6 1.8.1.2.1.3.3.4.2.1.4.1.6.1.7 0 1.5 0 2.1-.4 0-.1-.1-.2-.1-.2-.7-1.3-2.3-2.7-3.9-3.2-.6-.2-1.3-.2-2-.2-2.6-.1-5.1-1.6-7.6-1.1-1.8.3-3.3 1.5-5.1 1.6-.9 0-2.1-.1-2.6.7-.2.3-.2.7-.2 1-.1 1.2-.8 2.3-1.8 3.1-.5.4-1.1.6-1.5 1.1-.7 1-.2 2.4-.7 3.4-.2.4-.4.7-.6 1-.3.5-.3 1.1-.3 1.7 0 1-.1 2.1 0 3.1.3 2.3 1.3 4.6.8 6.9-.1.3-.2.7-.2 1.1 0 1 1 1.7 1.9 2 .9.3 1.9.4 2.8.9 1.4.9 2 2.7 3.4 3.6.4.2.8.3 1.3.4z"/><path id="XMLID_4_" class="st14" d="M53.3 36.7c.6 1.2.8 2.5.5 3.8-.2.7-.5 1.3-1 1.8s-1.3.7-1.9.4c.5.8.3 1.8.6 2.7.4 1.3 2 2 3.2 1.6.2-.1.4-.1.5-.1.3.1.4.5.4.8.1 2.2-.7 4.5-2.2 6.2-.1.1-.3.3-.4.2.1 0 0-.1 0-.1-.3-.5-.3-1.2-.3-1.8s-.2-1.2-.7-1.6c-.7-.5-1.7-.2-2.5-.5-1-.5-1.3-2-2.4-2.3-.5-.1-1 0-1.5-.2 1.1.7 1.2 2.5 2.4 3-.6.5-1.3 1-2 1.2-.3.1-.6.2-.9.2-1.2.2-2.5.1-3.7-.3.7 1.7 1.3 3.3 2 5 .1.1.1.3.2.4.2.3.6.3 1 .2.3-.1.7-.2 1-.3 1.1-.2 2.2.5 2.7 1.5.3.5.5 1.2 1.1 1.4.5.1.9-.2 1.3-.5.3-.4.5-.8.9-1.1.8-.8 2.1-.8 3-1.4 1-.8 1.3-2.2 1.8-3.4.4-.9 1-1.7 1.3-2.6.6-1.8-.1-3.7.2-5.6.1-.9.5-1.9.2-2.8-.3-.7-.9-1.2-1.4-1.8-.5-.6-.8-1.4-1.2-2.1-.5-.8-1.8-2.1-2-1.9-.2-.2-.3-.1-.2 0"/><path id="XMLID_3_" class="st14" d="M39.4 39.7c-.3-.3-.2-.7-.1-1.1.2-.4.7-.6 1-.3l.3.3c.2.1.3 0 .5 0 .4-.1.8-.2 1.3-.3.5-.1 1-.3 1.5-.1.7.3.9 1.4 1.6 1.8l.6.3c.4.2.7.7.7 1.2s-.2 1-.6 1.3c-.1.1-.3.2-.4.4-.4.5 0 1.2-.1 1.9 0 .4-.2.7-.4 1-.5.7-.9 1.4-1.5 2-.3.3-.6.5-1 .6-.4.1-.8 0-1.1-.3-.2-.3-.2-.6-.4-1-.1-.3-.4-.7-.7-.6-.2 0-.3.2-.5.3-.6.4-1.5.3-2.2.1-.1 0-.2-.1-.3-.1-.2-.1-.2-.4-.1-.6.1-.4.5-.7.9-.9.8-.5 1.7-.9 2.7-.7.5.1 1 .5 1.5.3.2-.1.3-.2.5-.4.4-.4.8-.8 1.1-1.2.4-.4.7-.8.9-1.3.2-.5.1-1.1-.4-1.4-.3-.2-.6-.2-.9-.4-.4-.2-.6-.5-.9-.8-.7-.5-1.8-.5-2.4.2-.2.2-.3.4-.6.5-.1-.3-.4-.4-.5-.7"/></g></g></svg>