<svg version="1.0" id="speed" xmlns="http://www.w3.org/2000/svg" x="0" y="0" width="300" height="260" style="enable-background:new 0 0 300 260" xml:space="preserve"><style>.st0{fill:#484748}.st1{fill:#fff}.st2{display:none}.st2,.st3{fill:#5fc5f1}</style><g id="Calque_22"><g id="Calque_23"><path id="XMLID_134_" class="st0" d="m65.3 18.7-48.9-.9c-3.3-.1-5.8 3-5 6.2l11.1 47.6c1 4.1 6.2 5.3 8.9 2l11.2-13.9c.9-1.2 1.3-2.7 1-4.2l-1.3-6.8c-.6-3.1 1.7-6 4.9-6.1l6.9-.1c1.5 0 2.9-.7 3.9-1.9L69.1 27c2.7-3.3.4-8.2-3.8-8.3z"/><path id="XMLID_128_" class="st1" d="m58.5 25.1-37.8-1.5c-1.8-.1-3.2 1.6-2.8 3.4l9.4 36.7c.6 2.2 3.4 2.8 4.8 1l5.7-7c.5-.6.7-1.3.6-2L36.8 42c-.2-1.5.9-2.9 2.5-3l13.6-1.3c.7-.1 1.4-.4 1.9-1l5.7-7.1c1.4-1.8.2-4.4-2-4.5z"/><path id="XMLID_4_" class="st3" d="m54.7 36.6 1.6-2-23.2-.9c-1.8-.1-3.2 1.6-2.8 3.4l5.8 22.5 1.5-1.9c.5-.6.7-1.3.6-2L36.8 43l-.2-.8c-.5-1.8.9-3.5 2.8-3.4h1.2l12.2-1.2c.8 0 1.5-.4 1.9-1z"/></g><g id="Calque_23_-_copie"><path id="XMLID_7_" class="st0" d="m228.5 238.1 48.9.9c3.3.1 5.8-3 5-6.2l-11.1-47.6c-1-4.1-6.2-5.3-8.9-2L251.2 197c-.9 1.2-1.3 2.7-1 4.2l1.3 6.8c.6 3.1-1.7 6-4.9 6.1l-6.9.1c-1.5 0-2.9.7-3.9 1.9L224.6 230c-2.6 3.1-.3 8 3.9 8.1z"/><path id="XMLID_5_" class="st1" d="m235.3 231.7 37.8 1.5c1.8.1 3.2-1.6 2.8-3.4l-9.4-36.7c-.6-2.2-3.4-2.8-4.8-1l-5.7 7c-.5.6-.7 1.3-.6 2l1.5 13.7c.2 1.5-.9 2.9-2.5 3l-13.6 1.3c-.7.1-1.4.4-1.9 1l-5.7 7.1c-1.3 1.8-.2 4.5 2.1 4.5z"/><path id="XMLID_1_" class="st3" d="m239 220.2-1.6 2 23.2.9c1.8.1 3.2-1.6 2.8-3.4l-5.8-22.5-1.5 1.9c-.5.6-.7 1.3-.6 2l1.4 12.7.2.8c.5 1.8-.9 3.5-2.8 3.4h-1.2l-12.2 1.2c-.7 0-1.4.4-1.9 1z"/></g></g></svg>