<svg version="1.0" id="圖層_1" xmlns="http://www.w3.org/2000/svg" x="0" y="0" viewBox="0 0 300 260" style="enable-background:new 0 0 300 260" xml:space="preserve"><style>.st0{fill:#303030}.st3{display:none}.st4{display:inline}.st4,.st5{fill:#010101}.st11{fill:#fff;fill-opacity:.78}.st13{fill:none;stroke:#414042;stroke-width:3;stroke-miterlimit:10}.st17{opacity:.5;fill:#1d4f93}.st19,.st24{fill:#fff;fill-opacity:.42}.st24{fill-opacity:.55}.st31{fill:#414042}.st37{opacity:.2;fill:#fff}</style><g id="Calque_32"><g id="Calque_30"><g id="Calque_29"><path id="XMLID_197_" class="st0" d="M68.6 200.4H52c-2.2 0-4-1.6-4-3.6v-134c0-1.9 1.8-3.6 4-3.6h16.4c2.2 0 4 1.6 4 3.6v133.9c.2 2.1-1.6 3.7-3.8 3.7z"/><radialGradient id="XMLID_8_" cx="60.255" cy="-16251.847" r="49.438" gradientTransform="matrix(1 0 0 -1 0 -16122)" gradientUnits="userSpaceOnUse"><stop offset="0" style="stop-color:#d6d5d5"/><stop offset=".321" style="stop-color:#d4d3d2"/><stop offset=".542" style="stop-color:#cccaca"/><stop offset=".732" style="stop-color:#bebdbd"/><stop offset=".903" style="stop-color:#acabab"/><stop offset="1" style="stop-color:#9f9e9e"/></radialGradient><path id="XMLID_28_" d="M67.5 198.9H53.1c-1.9 0-3.5-1.6-3.5-3.5V64.2c0-1.9 1.6-3.5 3.5-3.5h14.3c1.9 0 3.5 1.6 3.5 3.5v131.1c.1 2-1.5 3.6-3.4 3.6z" style="fill:url(#XMLID_8_)"/></g><g id="Calque_29_-_copie"><path id="XMLID_54_" class="st0" d="M247.9 200.3h-16.6c-2.2 0-4-1.6-4-3.6v-134c0-1.9 1.8-3.6 4-3.6h16.4c2.2 0 4 1.6 4 3.6v133.9c.2 2.1-1.6 3.7-3.8 3.7z"/><radialGradient id="XMLID_9_" cx="239.553" cy="-16251.747" r="49.438" gradientTransform="matrix(1 0 0 -1 0 -16122)" gradientUnits="userSpaceOnUse"><stop offset="0" style="stop-color:#d6d5d5"/><stop offset=".321" style="stop-color:#d4d3d2"/><stop offset=".542" style="stop-color:#cccaca"/><stop offset=".732" style="stop-color:#bebdbd"/><stop offset=".903" style="stop-color:#acabab"/><stop offset="1" style="stop-color:#9f9e9e"/></radialGradient><path id="XMLID_47_" d="M246.8 198.8h-14.4c-1.9 0-3.5-1.6-3.5-3.5V64.1c0-1.9 1.6-3.5 3.5-3.5h14.3c1.9 0 3.5 1.6 3.5 3.5v131.1c.1 2-1.5 3.6-3.4 3.6z" style="fill:url(#XMLID_9_)"/></g></g><g id="rightWheel"><g id="圖層_4_9_"><path id="XMLID_261_" class="st5" d="M232.4 159.4h17.8v14.2h-17.8z"/><path id="XMLID_260_" class="st5" d="M232.3 131h17.8v14.2h-17.8z"/><path id="XMLID_259_" class="st5" d="M232.4 102.7h17.8v14.2h-17.8z"/><path id="XMLID_258_" class="st5" d="M232.3 74.3h17.8v14.2h-17.8z"/><path id="XMLID_257_" class="st5" d="M232.3 184.2h17.8v14.2h-17.8z"/></g></g><g id="leftWheel"><g id="圖層_4_8_"><path id="XMLID_194_" class="st5" d="M49.6 159.5h17.8v14.2H49.6z"/><path id="XMLID_193_" class="st5" d="M49.5 131.1h17.8v14.2H49.5z"/><path id="XMLID_192_" class="st5" d="M49.6 102.8h17.8V117H49.6z"/><path id="XMLID_191_" class="st5" d="M49.5 74.4h17.8v14.2H49.5z"/><path id="XMLID_190_" class="st5" d="M49.5 184.3h17.8v14.2H49.5z"/></g></g></g><g id="tank"><radialGradient id="XMLID_10_" cx="152.103" cy="-16247.347" r="68.032" gradientTransform="matrix(1 0 0 -1 0 -16122)" gradientUnits="userSpaceOnUse"><stop offset="0" style="stop-color:#195891"/><stop offset="1" style="stop-color:#69a0d6"/></radialGradient><path id="XMLID_349_" style="fill:url(#XMLID_10_)" d="M80.8 60.7h142.6v129.2H80.8z"/></g><g id="tank_1_"><g id="center"><path id="XMLID_348_" style="fill:#595a5c" d="M223.4 198.9h-35.7v-4.5h-17.8v4.5h-35.6v-4.5h-17.9v4.5H80.8v-9h142.6z"/><linearGradient id="XMLID_11_" gradientUnits="userSpaceOnUse" x1="152.103" y1="199.117" x2="152.103" y2="190.205" gradientTransform="translate(0 -.22)"><stop offset="0" style="stop-color:#010101;stop-opacity:0"/><stop offset=".853" style="stop-color:#010101;stop-opacity:.6995"/><stop offset="1" style="stop-color:#010101;stop-opacity:.82"/></linearGradient><path id="XMLID_345_" style="fill:url(#XMLID_11_)" d="M223.4 198.9h-35.7v-4.5h-17.8v4.5h-35.6v-4.5h-17.9v4.5H80.8v-9h142.6z"/><linearGradient id="XMLID_13_" gradientUnits="userSpaceOnUse" x1="152.103" y1="87.721" x2="152.103" y2="60.986" gradientTransform="translate(0 -.22)"><stop offset="0" style="stop-color:#c8c8c8"/><stop offset=".076" style="stop-color:#d9d9d8;stop-opacity:.924"/><stop offset=".184" style="stop-color:#eaeaea;stop-opacity:.8161"/><stop offset=".318" style="stop-color:#f6f6f6;stop-opacity:.6824"/><stop offset=".503" style="stop-color:#fff;stop-opacity:.4966"/><stop offset="1" style="stop-color:#fff;stop-opacity:0"/></linearGradient><path id="XMLID_335_" style="fill:url(#XMLID_13_);fill-opacity:.33" d="M80.8 60.7h142.6v26.7H80.8z"/><linearGradient id="XMLID_14_" gradientUnits="userSpaceOnUse" x1="152.103" y1="172.382" x2="152.103" y2="163.47" gradientTransform="translate(0 -.22)"><stop offset="0" style="stop-color:#fff;stop-opacity:0"/><stop offset="1" style="stop-color:#c8c8c8"/></linearGradient><path id="XMLID_332_" style="fill:url(#XMLID_14_);fill-opacity:.32" d="M80.8 163.2h142.6v8.9H80.8z"/><path id="XMLID_329_" class="st11" d="M99 87.4h101.7v.2H99z"/><linearGradient id="XMLID_15_" gradientUnits="userSpaceOnUse" x1="98.603" y1="125.567" x2="201.103" y2="125.567" gradientTransform="translate(0 -.22)"><stop offset="0" style="stop-color:#010101"/><stop offset=".073" style="stop-color:#010101;stop-opacity:.8537"/><stop offset=".5" style="stop-color:#010101;stop-opacity:0"/><stop offset=".927" style="stop-color:#010101;stop-opacity:.8537"/><stop offset="1" style="stop-color:#010101"/></linearGradient><path id="XMLID_69_" style="fill:url(#XMLID_15_);fill-opacity:.21" d="M98.6 60.7h102.5v129.2H98.6z"/><path id="XMLID_66_" class="st11" d="M98.9 163h101.7v.2H98.9z"/><path id="XMLID_51_" class="st13" d="M100.6 60.7h99.1"/><path id="XMLID_52_" class="st13" d="M100.6 189h99.1"/></g><g id="Calque_20"><g id="right_1_"><path id="XMLID_1_" class="st0" d="M204 209.9c-1.4 0-2.8-.6-3.7-1.6-.9-.9-1.4-2.2-1.4-3.4V54.4c0-2.7 2.3-4.9 5.1-4.9h29.6c2.8 0 5.1 2.2 5.1 4.9V205c0 2.7-2.3 4.9-5.1 4.9H204z"/><radialGradient id="XMLID_18_" cx="218.803" cy="-16251.747" r="56.57" gradientTransform="matrix(1 0 0 -1 0 -16122)" gradientUnits="userSpaceOnUse"><stop offset="0" style="stop-color:#195891"/><stop offset="1" style="stop-color:#69a0d6"/></radialGradient><path id="XMLID_43_" d="M205.6 207.7c-1.2 0-2.5-.6-3.3-1.5-.8-.9-1.3-2.1-1.2-3.3V56.4c0-2.6 2-4.7 4.6-4.7H232c2.5 0 4.6 2.1 4.6 4.7V203c0 2.6-2 4.7-4.6 4.7h-26.4z" style="fill:url(#XMLID_18_)"/></g><g id="left_1_"><path id="XMLID_4_" class="st0" d="M66.1 210c-1.4 0-2.8-.6-3.7-1.6-.9-.9-1.4-2.2-1.4-3.4V54.5c0-2.7 2.3-4.9 5.1-4.9h29.6c2.8 0 5.1 2.2 5.1 4.9V205c0 2.7-2.3 4.9-5.1 4.9H66.1z"/><radialGradient id="XMLID_29_" cx="80.951" cy="-16251.897" r="56.57" gradientTransform="matrix(1 0 0 -1 0 -16122)" gradientUnits="userSpaceOnUse"><stop offset="0" style="stop-color:#195891"/><stop offset="1" style="stop-color:#69a0d6"/></radialGradient><path id="XMLID_3_" d="M67.7 207.9c-1.2 0-2.5-.6-3.3-1.5-.8-.9-1.3-2.1-1.2-3.3V56.6c0-2.6 2-4.7 4.6-4.7h26.5c2.5 0 4.6 2.1 4.6 4.7v146.5c0 2.6-2 4.7-4.6 4.7H67.7z" style="fill:url(#XMLID_29_)"/></g></g><g id="Calque_4_-_copie_3_2_"><path id="XMLID_61_" class="st17" d="M89.9 63.3c-1.7-1.7-4-2.6-6-3.9-3.4-2.2-5.9-5.7-7.2-9.6H66.1c-1.5 0-2.8.6-3.7 1.6v32.4c.9.3 1.8.6 2.6 1.2 3.7 2.5 4.8 7.7 3.5 11.9-1.1 3.5-3.4 6.3-6.1 8.8v21.5c4.7 1.7 10.2.5 14.3-2.3 1.6-1.1 3-2.4 3.9-4.1 2.3-4.6-.2-10-2.1-14.7-1.9-4.8-2.8-11.2 1.4-14.2l2.3-.2c3.9.8 6.2-4.5 5.8-8.5s-1.6-8.6 1.1-11.5c.7-.7 1.5-1.2 2.1-2 1.4-1.9.4-4.7-1.3-6.4z"/><path id="XMLID_384_" class="st17" d="M123.4 100.7c.3-3.5-4-6.8-7.3-8.2-3.2-1.4-7.1-.9-10.2.8-3.3 1.9-6 5.4-9.8 5.9-3.4.5-8-1.2-9.7 1.8-.5.9-.5 2-.4 3 1 6 8.8 10 8 16.1-.4 2.8-2.5 4.9-3.9 7.3-2.1 3.7-2.5 8.4-.5 12.1 1.9 3.7 6.3 6.2 10.4 5.6 1.7-.2 3.3-.9 5-.6 3.4.8 4 5.3 5.8 8.3 2.4 4 8.3 5.6 12.4 3.2 4.1-2.3 5.8-8.1 3.5-12.3-3.1-5.8-11.8-7.5-13.4-13.8-.8-3.2.5-6.5 2.3-9.2 1.8-2.7 4-5.2 5.3-8.3 1.5-3.6 2.9-7.7 2.5-11.7"/><path id="XMLID_30_" class="st17" d="M207.1 51h-2.9c-2.8 0-5.1 2.2-5.1 4.9v6.3h-26.6c-1 3 2 6.6 4.3 9.2 6.9 7.7 9.4 18.2 11.8 28.2.6 2.7 1.3 5.5.9 8.3-.3 2-1 4.1-.6 6 .7 3.2 4.4 4.8 7.7 4.7 8-.2 14.5-9.3 12.1-16.9-1.6-5.1-6.3-9.6-5.2-14.7 1.3-6 9.2-7.5 15.3-6.6 2 .3 4.1.8 6 .3 5.1-1.3 5.9-9.8 1.1-12.1-4.6-2.2-9.9 1.6-15.1 1.4-6.9-.3-11.4-9.9-7.2-15.4 1.1-1.4 2.4-2.5 3.5-3.6z"/><path id="XMLID_34_" class="st17" d="M108.1 62.2c.6.6 1.2 1.1 1.9 1.5 3.5 2 9 2.4 9.7 6.4.5 2.8-2 5.1-4.1 7.1-2 2-3.9 5.2-2.1 7.5 1.7 2.2 6.7 1.9 7.6.4 1-1.2 5.7 1 6 2.5.9 3.6 1.2 7.4 2.9 10.7 1.7 3.3 5.3 6 8.9 5 3.2-.9 5-4.3 7.2-6.8 4.3-4.9 11.5-6.9 17.7-5 3.3-2.3 5.1-6.6 4.4-10.6-.7-4-3.8-7.4-7.7-8.5-2.7-.7-6-.6-7.6-2.8-1.7-2.3-.4-5.4 1.7-7.5h-46.5z"/><path id="XMLID_58_" class="st17" d="M117.4 173.9c-.7-4.8-3.4-9.4-7.5-12s-9.9-2.7-13.9.1c-1 .7-2 1.6-3.2 1.9-.9.2-1.8 0-2.6-.3-3.9-1.3-7.2-4.4-8.6-8.3-1-2.7-1.2-5.8-3.3-7.7-3.5-3.1-9-.6-12.3 2.6-1.3 1.3-2.6 2.8-3.6 4.5v14.6c2.4 2.8 5.9 5.3 5 8.7-.6 2.2-2.8 3.2-5 4.1v10c1.5-.2 4.4 3.5 4.1 4.9-.7 3.6-2.1 7.2-2 10.9 0 .6.1 1.3.2 1.9.5.1.9.2 1.4.2h29.6c2.8 0 5.1-2.2 5.1-4.9v-6.2h3.3c-.3-.4-.7-.7-1.1-1.1-2.1-1.8-5.1-3.1-5.7-5.8-.7-3.6 3.5-6.1 7.1-6.6s7.6-.1 10.4-2.5c2.6-2.1 3.1-5.8 2.6-9z"/><path id="XMLID_32_" class="st17" d="M236.7 99.6c-.7.4-1.4.8-2.2 1-3.8.9-7.4-2-11.2-3.1-5.9-1.9-13.5 1.9-13.9 8-.5 6.5 6.7 11.8 6.1 18.3-.4 4.4-4.5 7.9-8.9 8.7-4.4.9-8.9-.4-13-2-1.9-.8-3.8-1.6-5.8-1.8-5.7-.5-10.8 5-10.9 10.7-.1 5.7 3.9 11 9 13.6 1.7.9 3.5 1.5 5.4 1.5 5.1-.1 8.7-4.9 12-8.8 3.3-3.9 8.5-7.8 13.1-5.5l1.3 1.9c1.1 3.8 6.9 3.3 10.2 1.1 2.8-1.9 5.7-4.5 8.9-4.6v-39z"/><path id="XMLID_25_" class="st17" d="M231.1 169.9c-.3-3.5-2.5-6.7-5.5-8.6-3.3-2-7.6-2.7-9.9-5.9-2-2.8-2.7-7.6-6.2-7.6-1 0-2 .5-2.8 1.1-4.8 3.8-4.6 12.5-10.4 14.6-2.6 1-5.5.1-8.3 0-4.2-.1-8.5 1.8-10.9 5.3-2.4 3.5-2.5 8.5 0 11.9 1 1.3 2.4 2.5 2.8 4.1.3 1 .1 1.9-.2 2.7H195c.4-.9 1-1.7 1.8-2.4 2.4-2.2 6-2.6 9.2-2.4 3.3.3 6.5 1 9.8.7 3.9-.4 8.2-1.1 11.5-3.3 3.2-1.3 4.1-6.7 3.8-10.2z"/><path id="XMLID_17_" class="st17" d="M232.1 209.1c-2.7-4.4-7-8.8-12-7.9-2.4.4-5.1 2-6.9.3-.5-.5-.8-1.1-1.2-1.6-2.3-2.8-7.3-1.1-8.8 2.2-1.1 2.4-1 5-.5 7.6.4.1.9.2 1.3.2h28.6c-.1-.3-.3-.6-.5-.8z"/><path id="XMLID_62_" class="st17" d="m132.9 170.4-.8.1c2-.3 3.5 2 3.9 4 1 4.9-1.5 10.1-5.5 13h31.6c0-.8-.2-1.6-.5-2.4-1.3-3.3-4.7-5.9-4.9-9.5-.2-4.5 4.6-9.4 1.5-12.7-.7-.7-1.6-1.1-2.5-1.4-3.5-1.4-7.1-2.6-10.7-3.5-3.4-.9-7-1.6-10.5-.7s-6.6 3.6-6.9 7.1c-.1 2.9 2.5 5.8 5.3 6z"/></g><g id="left"><linearGradient id="XMLID_31_" gradientUnits="userSpaceOnUse" x1="-188.388" y1="163.467" x2="-188.388" y2="154.555" gradientTransform="translate(269.291 -.22)"><stop offset="0" style="stop-color:#c8c8c8"/><stop offset="1" style="stop-color:#fff;stop-opacity:0"/></linearGradient><path id="XMLID_164_" style="opacity:.68;fill:url(#XMLID_31_);fill-opacity:.49;enable-background:new" d="M63.1 154.3h35.6v8.9H63.1z"/><path id="XMLID_158_" class="st19" d="M63.1 198.7h35.6v.2H63.1z"/><path id="XMLID_155_" class="st19" d="M63.1 198.7h35.6v.2H63.1z"/><path id="XMLID_152_" class="st19" d="M63.1 163.1h35.6v.2H63.1z"/><linearGradient id="XMLID_45_" gradientUnits="userSpaceOnUse" x1="-862.053" y1="-668.039" x2="-862.053" y2="-676.95" gradientTransform="rotate(180 -390.575 -285.813)"><stop offset="0" style="stop-color:#c8c8c8"/><stop offset="1" style="stop-color:#fff;stop-opacity:0"/></linearGradient><path id="XMLID_149_" style="opacity:.68;fill:url(#XMLID_45_);fill-opacity:.49;enable-background:new" d="M63.1 96.4h35.6v8.9H63.1z"/><path id="XMLID_145_" class="st19" d="M63.1 60.7h35.6v.2H63.1z"/><path id="XMLID_142_" class="st19" d="M63.1 60.7h35.6v.2H63.1z"/><path id="XMLID_139_" class="st19" d="M63.1 96.3h35.6v.2H63.1z"/><linearGradient id="XMLID_63_" gradientUnits="userSpaceOnUse" x1="52.589" y1="130.167" x2="63.13" y2="130.167" gradientTransform="translate(0 -.22)"><stop offset="0" style="stop-color:#030303;stop-opacity:0"/><stop offset="1" style="stop-color:#010101"/></linearGradient><linearGradient id="XMLID_64_" gradientUnits="userSpaceOnUse" x1="80.903" y1="-362.512" x2="80.903" y2="-353.644" gradientTransform="matrix(1 0 0 -1 0 -154.703)"><stop offset="0" style="stop-color:#010101;stop-opacity:.95"/><stop offset=".127" style="stop-color:#010101;stop-opacity:.8292"/><stop offset="1" style="stop-color:#010101;stop-opacity:0"/></linearGradient><path id="XMLID_50_" d="M63.1 203.9v-5h35.6v5c0 2.1-1.7 3.8-3.8 3.8H67c-2.1.1-3.9-1.7-3.9-3.8z" style="opacity:.64;fill:url(#XMLID_64_);fill-opacity:.46;enable-background:new"/><linearGradient id="XMLID_67_" gradientUnits="userSpaceOnUse" x1="80.903" y1="52.074" x2="80.903" y2="60.942" gradientTransform="translate(0 -.22)"><stop offset="0" style="stop-color:#010101;stop-opacity:.95"/><stop offset=".127" style="stop-color:#010101;stop-opacity:.8292"/><stop offset="1" style="stop-color:#010101;stop-opacity:0"/></linearGradient><path id="XMLID_5_" d="M63.1 55.7v5h35.6v-5c0-2.1-1.7-3.8-3.8-3.8H67c-2.1-.1-3.9 1.6-3.9 3.8z" style="opacity:.64;fill:url(#XMLID_67_);fill-opacity:.46;enable-background:new"/><path id="XMLID_35_" class="st24" d="M63.3 55.7V204c-.1 1.7 1.2 3.2 2.8 3.6h1.7l3.1-9V163l-2.2-8.7.1-30.9-.1-18.4 2.2-8.7V60.8l-3-8.8H67c-2-.1-3.7 1.6-3.7 3.7z"/><path id="XMLID_36_" class="st24" d="M98.8 204v-1.8l-.1-78.6.1-67v-1c0-2.1-1.7-3.8-3.8-3.8h-.8l-3.1 9v35.6l2.2 8.7-.1 18.5.1 30.9-2.2 8.7v35.6l3.1 9h.8c2 0 3.8-1.7 3.8-3.8z"/></g><g id="right"><linearGradient id="XMLID_71_" gradientUnits="userSpaceOnUse" x1="-1010.705" y1="163.467" x2="-1010.705" y2="154.555" gradientTransform="matrix(-1 0 0 1 -791.902 -.22)"><stop offset="0" style="stop-color:#c8c8c8"/><stop offset="1" style="stop-color:#fff;stop-opacity:0"/></linearGradient><path id="XMLID_322_" style="opacity:.68;fill:url(#XMLID_71_);fill-opacity:.49;enable-background:new" d="M201 154.3h35.6v8.9H201z"/><path id="XMLID_308_" class="st19" d="M201 198.7h35.6v.2H201z"/><path id="XMLID_305_" class="st19" d="M201 198.7h35.6v.2H201z"/><path id="XMLID_302_" class="st19" d="M201 163.1h35.6v.2H201z"/><linearGradient id="XMLID_79_" gradientUnits="userSpaceOnUse" x1="-39.736" y1="-668.039" x2="-39.736" y2="-676.95" gradientTransform="matrix(1 0 0 -1 258.54 -571.626)"><stop offset="0" style="stop-color:#c8c8c8"/><stop offset="1" style="stop-color:#fff;stop-opacity:0"/></linearGradient><path id="XMLID_298_" style="opacity:.68;fill:url(#XMLID_79_);fill-opacity:.49;enable-background:new" d="M201 96.4h35.6v8.9H201z"/><path id="XMLID_294_" class="st19" d="M201 60.7h35.6v.2H201z"/><path id="XMLID_275_" class="st19" d="M201 60.7h35.6v.2H201z"/><path id="XMLID_269_" class="st19" d="M201 96.3h35.6v.2H201z"/><linearGradient id="XMLID_88_" gradientUnits="userSpaceOnUse" x1="247.143" y1="129.967" x2="236.602" y2="129.967" gradientTransform="translate(0 -.22)"><stop offset="0" style="stop-color:#030303;stop-opacity:0"/><stop offset="1" style="stop-color:#010101"/></linearGradient><linearGradient id="XMLID_91_" gradientUnits="userSpaceOnUse" x1="218.903" y1="-362.512" x2="218.903" y2="-353.644" gradientTransform="matrix(1 0 0 -1 0 -154.703)"><stop offset="0" style="stop-color:#010101;stop-opacity:.95"/><stop offset=".127" style="stop-color:#010101;stop-opacity:.8292"/><stop offset="1" style="stop-color:#010101;stop-opacity:0"/></linearGradient><path id="XMLID_49_" d="M201.1 203.9v-5h35.6v5c0 2.1-1.7 3.8-3.8 3.8H205c-2.2.1-3.9-1.7-3.9-3.8z" style="opacity:.64;fill:url(#XMLID_91_);fill-opacity:.46;enable-background:new"/><linearGradient id="XMLID_92_" gradientUnits="userSpaceOnUse" x1="218.803" y1="52.074" x2="218.803" y2="60.942" gradientTransform="translate(0 -.22)"><stop offset="0" style="stop-color:#010101;stop-opacity:.95"/><stop offset=".127" style="stop-color:#010101;stop-opacity:.8292"/><stop offset="1" style="stop-color:#010101;stop-opacity:0"/></linearGradient><path id="XMLID_48_" d="M201 55.7v5h35.6v-5c0-2.1-1.7-3.8-3.8-3.8h-27.9c-2.2-.1-3.9 1.6-3.9 3.8z" style="opacity:.64;fill:url(#XMLID_92_);fill-opacity:.46;enable-background:new"/><path id="XMLID_38_" class="st24" d="M201.1 55.7V204c-.1 1.7 1.2 3.2 2.8 3.6h1.7l3.1-9V163l-2.2-8.7.1-30.9-.1-18.5 2.2-8.7V60.7l-3-8.8h-.8c-2.1 0-3.8 1.7-3.8 3.8z"/><path id="XMLID_19_" class="st24" d="M236.6 204v-1.8l-.1-78.6.1-67v-1c0-2.1-1.7-3.8-3.8-3.8h-.8l-3.1 9v35.6l2.2 8.7-.1 18.5.1 30.9-2.2 8.7v35.6l3.1 9h.8c2.1 0 3.8-1.7 3.8-3.8z"/></g></g><g id="cannon"><g id="tureel"><g id="XMLID_341_"><path id="XMLID_81_" class="st31" d="M171.3 159.3c-1.5.3-5.4.6-8.7.5l-26.1-.1c-3.3 0-7.2-.3-8.7-.6s-6.2-4.6-8.3-7.1l-10.7-12.6c-2.1-2.5-4.3-5.5-4.9-6.7-.5-1.2 1.2-6.7 2.6-9.7l4.2-8.9c1.4-3 3.6-6.4 4.8-7.7 1.2-1.2 8.6-2.3 11.9-2.3h44.8c3.3 0 7.5.4 9.4.9s5.8 6.2 7.2 9.2l4.1 9c1.4 3 2.6 6.5 2.7 7.7.2 1.2-3 6.1-5.2 8.6L179.6 152c-2.1 2.7-6.8 6.9-8.3 7.3z"/></g><g id="XMLID_6_"><radialGradient id="XMLID_119_" cx="149.778" cy="-16254.013" r="34.71" gradientTransform="matrix(1 0 0 -1 0 -16122)" gradientUnits="userSpaceOnUse"><stop offset="0" style="stop-color:#195891"/><stop offset="1" style="stop-color:#69a0d6"/></radialGradient><path id="XMLID_137_" d="M169.5 156.9c-1.4.3-5.2.5-8.5.5l-22.8-.1c-3.3 0-7.1-.3-8.5-.5-1.4-.3-5.8-4.3-7.9-6.9l-9.1-10.7c-2.1-2.5-4.3-5.5-4.8-6.5-.5-1.1 1.2-6.4 2.6-9.3l3.4-7.2c1.4-3 3.5-6.3 4.6-7.5 1.1-1.1 8.1-2.1 11.4-2.1h39.9c3.3 0 7.4.4 9.1.8 1.7.5 5.4 5.9 6.8 8.9l3.3 7.3c1.4 3 2.6 6.4 2.7 7.5s-2.9 5.8-5.1 8.3l-9.2 10.7c-2.1 2.5-6.5 6.5-7.9 6.8z" style="fill:url(#XMLID_119_)"/></g><g id="Calque_33"><path id="XMLID_33_" class="st17" d="M163.6 114.7c2.1-1.6 4.8-2.1 7.2-3.1 2.4-.9 4.9-2.5 5.5-5h-13.2c-.1.2-.3.4-.5.6-3.8 3.4-9.5 3.3-14.6 3.5-5.1.3-11.1 2-12.7 6.9-.7 2.3-.7 5.4-3 6.2-.6.2-1.4.2-2 .3-3.6.7-4.4 5.9-2.2 8.8 2.2 2.9 6 4 9.5 4.8 3.5.9 7.3 1.8 9.6 4.6 2.9 3.5 2.4 8.5 2.5 13.1 0 .6 0 1.3.1 1.9h16.4c3.2-4.2 4.6-9.8 3.3-15-.8-3.3-2.5-7.2-.1-9.7.5-.6 1.2-.9 1.7-1.5 1.7-1.7 1.5-5-.5-6.5-2.5-1.9-6.6-.8-8.6-3.2-1.7-1.8-.5-5.1 1.6-6.7z"/></g><radialGradient id="XMLID_133_" cx="149.786" cy="142.447" r="29.324" gradientUnits="userSpaceOnUse"><stop offset="0" style="stop-color:#fff;stop-opacity:0"/><stop offset=".636" style="stop-color:#fff;stop-opacity:.6512"/><stop offset="1" style="stop-color:#fff;stop-opacity:.95"/></radialGradient><path id="XMLID_210_" d="m111.9 133.4 14.7 19c1.9 2.5 5.2 4 8.6 4.1l29 .1c3.5 0 6.7-1.5 8.6-4l14.8-18.9c.5-.6.8-1.3 1-1.9.5-1.7-1-3.4-3.1-3.4l-30 11.8c-3.9 1.5-8.1 1.5-12 0l-29.7-11.7c-2.1 0-3.7 1.8-3 3.5.4.3.7.9 1.1 1.4z" style="opacity:.5;fill:url(#XMLID_133_);fill-opacity:.55"/></g><g id="long"><path id="XMLID_53_" class="st0" d="M132.2 33.3H167v65.4h-34.8z"/><radialGradient id="XMLID_134_" cx="149.603" cy="-16188.064" r="25.508" gradientTransform="matrix(1 0 0 -1 0 -16122)" gradientUnits="userSpaceOnUse"><stop offset="0" style="stop-color:#d6d5d5"/><stop offset=".321" style="stop-color:#d4d3d2"/><stop offset=".542" style="stop-color:#cccaca"/><stop offset=".732" style="stop-color:#bebdbd"/><stop offset=".903" style="stop-color:#acabab"/><stop offset="1" style="stop-color:#9f9e9e"/></radialGradient><path id="XMLID_206_" style="fill:url(#XMLID_134_)" d="M134.4 33.3h30.4v65.4h-30.4z"/><path id="XMLID_98_" class="st37" d="M157.2 41.9h7.6v51.5h-7.6z"/></g><g id="bottom"><path id="XMLID_342_" class="st31" d="M119.3 93.5H180v12.2h-60.7z"/><radialGradient id="XMLID_136_" cx="149.653" cy="-16221.897" r="20.082" gradientTransform="matrix(1 0 0 -1 0 -16122)" gradientUnits="userSpaceOnUse"><stop offset="0" style="stop-color:#d6d5d5"/><stop offset=".321" style="stop-color:#d4d3d2"/><stop offset=".542" style="stop-color:#cccaca"/><stop offset=".732" style="stop-color:#bebdbd"/><stop offset=".903" style="stop-color:#acabab"/><stop offset="1" style="stop-color:#9f9e9e"/></radialGradient><path id="XMLID_55_" style="fill:url(#XMLID_136_)" d="M121.6 95.4h56.1v8.9h-56.1z"/><path id="XMLID_307_" class="st37" d="M122.6 101.8h54.1v2.4h-54.1z"/></g><g id="top"><path id="XMLID_344_" class="st0" d="M124.9 21.9h50.6v21.7h-50.6z"/><radialGradient id="XMLID_144_" cx="150.203" cy="-16154.73" r="17.269" gradientTransform="matrix(1 0 0 -1 0 -16122)" gradientUnits="userSpaceOnUse"><stop offset="0" style="stop-color:#d6d5d5"/><stop offset=".321" style="stop-color:#d4d3d2"/><stop offset=".542" style="stop-color:#cccaca"/><stop offset=".732" style="stop-color:#bebdbd"/><stop offset=".903" style="stop-color:#acabab"/><stop offset="1" style="stop-color:#9f9e9e"/></radialGradient><path id="XMLID_12_" style="fill:url(#XMLID_144_)" d="M127.2 24.4h45.9V41h-45.9z"/><path id="XMLID_7_" class="st37" d="M128.3 36.4h43.9V40h-43.9z"/></g></g></svg>