<svg xmlns="http://www.w3.org/2000/svg" viewBox="0 0 300 300" style="enable-background:new 0 0 300 300" xml:space="preserve"><style>.st1{opacity:.1;fill:#fff;enable-background:new}.st2{fill:#010202}.st4{fill:#572121}.st5{fill:#030405}.st10{fill:#020304}.st14{fill:#f9eac0}.st18{opacity:.4;fill:#fff;enable-background:new}.st19{display:none}.st20{display:inline}.st21,.st24{enable-background:new}.st21{opacity:5.000000e-002;fill:#020304}.st24{opacity:.25}.st24,.st25{fill:#fff;stroke:#010202;stroke-width:3;stroke-miterlimit:10}.st26{fill:#c15857}.st29{opacity:.25;fill:#020304}.st35{fill:#fff}</style><g id="Calque_1"><g id="Calque_12"><circle id="XMLID_86_" cx="152" cy="147.8" r="114.3"/><g id="backgroundEffect" style="opacity:.5"><g id="Calque_5_-_copie_2_"><path id="XMLID_51_" class="st1" d="M202.1 178.3c5.8-6.5 6.4-9.6 9.2-18.3h5.4c3.9 0 7.5-1.5 10.2-4-.7 1.6-1.6 3.2-2.5 4.8.9-1.6 1.7-3.3 2.5-4.9 1.1-1 2.1-2.3 2.8-3.6.4-.9.9-1.9 1.3-2.8 0-.1.1-.1.1-.1.2-.4.4-.8.5-1.3.1-.1.1-.3.1-.4.1-.4.4-.8.5-1.3.1-.1.1-.3.1-.4.1-.4.4-.8.5-1.3.1-.1.1-.2.1-.4.1-.4.3-.9.4-1.3 0-.1.1-.1.1-.2.7-2 1.3-12.5 1.7-14.6.1-.2.1-.4.1-.6.1-.4.1-.7.2-1 .1-.2.1-.5.1-.7.1-.3.1-.7.1-1 .1-.3.1-.6.1-.9.1-.3.1-.6.1-1 .1-.3.1-.6.1-1 .1-.3.1-.6.1-.9s.1-.7.1-1c0-.3.1-.6.1-.8 0-.4.1-.7.1-1.1 0-.3.1-.5.1-.8 0-.4.1-.8.1-1.3V113.5c0-.9 0-1.8-.1-2.7v-.6c-.1-.9-.1-1.7-.1-2.6v-.3c-.1-.8-.1-1.6-.3-2.5 0-.1 0-.2-.1-.3-.1-.9-.3-1.8-.4-2.7 0-.1 0-.2-.1-.3-.4-1.8-.7-3.6-1.3-5.4 0-.1 0-.1-.1-.1-.5-1.8-1.1-3.6-1.8-5.4-1.9-4.9-4.2-9.5-7.1-13.9l-.1-.1c-.4-.5-.7-1-1-1.5 0-.1-.1-.1-.1-.1-.4-.4-.7-1-1-1.4 0-.1-.1-.1-.1-.1-.4-.4-.7-1-1.1-1.4 0-.1-.1-.1-.1-.1-.4-.4-.7-1-1.1-1.4l-.1-.1c-.4-.4-.8-1-1.2-1.4V69c-4.3-4.9-9.4-9.3-15-13.1h-.1c-.5-.4-1.1-.7-1.6-1.1 0 0-.1 0-.1-.1-.5-.4-1.1-.7-1.7-1h-.1c-.6-.4-1.1-.7-1.7-1C186.4 45.3 170.7 41 154 41c-1.8 0-3.6.1-5.3.1h-.6c-1 .1-2 .1-3.1.2-.1 0-.4 0-.5.1-1 .1-2.1.2-3.1.4-1 .1-2.1.3-3.1.4-.1 0-.3.1-.5.1-1 .1-2 .4-3 .6-.1 0-.2.1-.4.1-2.1.4-4.1 1-6.1 1.5-.1 0-.2.1-.4.1l-3 .9c-.1 0-.1.1-.2.1-2 .7-4 1.4-6 2.2-.1 0-.1.1-.1.1-3 1.3-5.9 2.6-8.6 4.2h-.1c-2.8 1.6-5.5 3.2-8 5.1-6.9 4.6-12.8 10.4-17.7 16.9-.8 1.1-1.6 2.3-2.4 3.5-2.7 4.2-4.9 8.6-6.7 13.1 0 .1-.1.1-.1.2-.2.5-.4 1.1-.6 1.6 0 .1-.1.2-.1.3-.1.5-.4 1.1-.5 1.6 0 .1-.1.2-.1.3-.1.6-.4 1.2-.5 1.8 0 .1 0 .1-.1.1-.4 1.3-.7 2.7-1 4 0 .1 0 .1-.1.2-.1.6-.2 1.1-.3 1.7 0 .2-.1.4-.1.6-.1.4-.1.9-.2 1.4 0 .2-.1 9-.1 9.2-.1.4-.1.9-.1 1.3 0 .2-.1.5-.1.7-.1.4-.1.8-.1 1.3 0 .2-.1.5-.1.7 0 .4-.1.9-.1 1.4v2.7c0 .9 0 1.9.1 2.8v.6c.1.9.1 1.8.2 2.7v.2c.1.8.2 1.7.3 2.5 0 .1.1.3.1.5.1.9.3 1.8.4 2.7 0 .1.1.2.1.3.1.9.4 1.7.6 2.5 0 .1.1.1.1.3.2.9.4 1.8.7 2.7 0 .1.1.1.1.3.3.9.5 1.8.8 2.7.3.9.7 1.8 1 2.7 0 .1 0 .1.1.1.8 2.2 1.8 4.2 2.9 6.3 2.5 4.8 7.5 7.7 13.1 7.7h5.4c2.5 8.1 3.6 10.3 8.9 16.6-14.9 8-29.2 21.6-40.3 37.9C56.8 226.5 101 255 101 255h93.9s53.7-24.2 47.2-35.3c-10.3-17.4-24.4-32.5-40-41.4z"/></g></g><g id="Calque_4_2_"><path id="XMLID_6_" class="st2" d="M234 223.1c-17.5-31.6-47.7-52.5-82.2-52.5-35.2 0-66.1 21.8-83.4 54.6l39.9 30h84.1l41.6-32.1z"/><radialGradient id="XMLID_54_" cx="151.292" cy="215.346" r="61.779" gradientUnits="userSpaceOnUse"><stop offset="0" style="stop-color:#951917"/><stop offset="1" style="stop-color:#eb5758"/></radialGradient><path id="XMLID_49_" d="M229.1 226.9c-16-30.8-44.6-51.3-77.2-51.3-33.4 0-62.5 21.5-78.3 53.4l34.8 26.2h84.1l36.6-28.3z" style="fill:url(#XMLID_54_)"/><g id="圖層_1_6_"><path id="XMLID_48_" class="st4" d="M205.9 196.9c-1.6 1.8-2.9 3.2-3.2 3.6-1.8-.4-3.6-.7-5.4-.1-1.8.6-3.1 2.5-2.5 4.2.3.8.9 1.4 1.4 2.1 1.5 2.1 1.4 5.1-.1 7.1-1.8 2.4-5 3.2-6.8 5.6-1.2 1.6-1.5 3.8-1.6 5.9-.1.9-.1 1.9.2 2.8.4.9 1.2 1.6 2.1 1.4 1.2-.1 1.7-1.5 2.4-2.5 1-1.4 3.3-2.2 4.6-1 2.2 2-1 5.6-.1 8.4.6 1.8 2.7 2.7 4.5 3 2.8.4 5.5.1 8.1-.8.7-.2 1.3-.5 2-.4 1.6.1 2.7 1.9 2.9 3.4s-.1 3.3.3 4.8c.4 1.6 1.9 3.1 3.4 2.6.5-.1 1-.5 1.5-.7 1.7-.4 13.4-10.7 11.1-15.6-6.1-13.3-14.6-24.8-24.8-33.8z"/><path id="XMLID_47_" class="st4" d="M76.9 235.4c1.6-2 4.8-1.9 6.8-.4.6.4 1.2 1 2 1.2 1.6.3 2.8-1.4 3.4-2.8.7-1.5 1.5-3.2 3.1-3.3 2.2-.2 4.1 2.9 6.1 2 1.4-.7 1.3-2.7 1.1-4.2-.3-1.6-.1-3.6 1.4-4.1.5-.1 1 0 1.6 0 1.8 0 3.6-1.5 3.6-3.3 0-1.8-2.1-3.3-3.7-2.6-.5.2-1 .7-1.6.4-.3-.1-.4-.4-.6-.7-1.2-2.1-2.2-5.1-.2-6.5 1.5-1.1 3.8-.3 5.2-1.5 1.3-1.1 1-3.3-.1-4.7s-2.6-2.2-3.8-3.5c-1.1-1.3-1.9-2.8-2.1-4.5-.1-.4-.1-.7 0-1-12.6 10.8-22.9 25.4-29.6 42.4 2.8-1 6.7-2 7.4-2.9z"/><path id="XMLID_46_" class="st4" d="M189.9 250.4c.1-1.3.9-2.6.7-4-.3-3.2-5-4.2-5.7-7.4-.4-1.6.4-3.7-.8-4.9-1.5-1.5-4.2 0-6-1-1.6-1-1.9-3.6-3.7-4.1-1.5-.4-2.8.8-4.3 1.3-2.2.7-4.7-.6-6.1-2.5-.7-1-1.3-2.2-2.5-2.6-2.5-1-5 2.6-7.7 2.2-1.9-.3-3.3-2.5-5.2-2.2-1.7.3-2.4 2.5-2.6 4.2-.2 1.7-6.9-6-8.7-5.9-2.4.2-4.2-3.3-6.5-2.7-2 .6-1.9 3.6-3.3 5-1 1-2.7 1.1-3.9 1.9-2.8 1.7-3 6.2-6 7.4-.9.4-1.9.3-2.8.7-2.2.9-3.1 3.6-3.5 6l-.3.2c.1.9-.9 1.6-1.9 1.6-.9.1-1.9-.3-2.8-.3-1.5 0-2.9.9-3.5 2.3-.3.7.2 5.5 1 9.6h87.5c-.8-1.5-1.6-3.1-1.4-4.8z"/></g><path id="XMLID_45_" class="st5" d="M120.8 255.2h65.1c-19.3-13.4-32.6-37.1-32.6-37.1s-13.2 23.7-32.5 37.1z"/><path id="XMLID_44_" d="M123.8 255.2h59.1c-17.5-13.1-29.5-36.3-29.5-36.3s-12.1 23.2-29.6 36.3z" style="fill:#343434"/><path id="XMLID_43_" d="M134.3 255.2h38.2c-11.3-13.1-19-36.3-19-36.3s-7.9 23.2-19.2 36.3z" style="fill:#a5a3a3"/><g id="Calque_6_2_"><path id="XMLID_42_" class="st5" d="m153.2 214.4-31.5-7.2 10.4 9.2s8.1 5.1 12.4 7.4c5.3 2.8 9 14.1 9 14.1s3.2-11.1 8.5-13.8c4.2-2.2 12.6-7.6 12.6-7.6l10.4-8.8-31.8 6.7z"/><path id="XMLID_41_" d="m153.2 216.6-26.9-6.8 13.7 8.6s5.7 2.9 8.3 4.3c3.3 1.7 5 12.2 5 12.2s1.6-10.5 4.8-12.2c2.6-1.3 8.3-4.3 8.3-4.3l13.4-8.4-26.6 6.6z" style="fill:#848580"/><path id="XMLID_40_" d="m153.2 219.9-10-3.3 5.4 3.3s2 1 2.9 1.6c1.2.6 1.7 7.9 1.7 7.9s.6-7.2 1.7-7.9c.9-.5 2.9-1.6 2.9-1.6l5.4-3.3-10 3.3z" style="fill:#cfcece"/></g><g id="Calque_5_2_"><g id="Calque_9_2_"><path id="XMLID_39_" class="st10" d="M215.1 165.9c5.5 0 10.5-3.1 12.9-8 4.7-9.4 7.4-19.9 7.4-30.8 0-41.1-36.8-74.5-82.1-74.5s-82 33.3-82 74.4c0 11 2.6 21.4 7.4 30.8 2.5 4.9 7.4 8 12.9 8l123.5.1z"/><radialGradient id="XMLID_56_" cx="153.339" cy="192.786" r="66.501" gradientTransform="matrix(1 0 0 -1 0 302)" gradientUnits="userSpaceOnUse"><stop offset="0" style="stop-color:#951917"/><stop offset="1" style="stop-color:#eb5758"/></radialGradient><path id="XMLID_38_" d="M211.6 162.7c5.1 0 9.9-2.9 12.2-7.5 4.5-8.9 6.9-18.7 6.9-29.1 0-38.8-34.7-70.3-77.4-70.3S76 87.2 76 126.1c0 10.3 2.5 20.2 6.9 29.1 2.3 4.6 7.1 7.5 12.2 7.5h116.5z" style="fill:url(#XMLID_56_)"/><g id="圖層_1_2_"><path id="XMLID_37_" class="st4" d="M84.8 93.4c.1.4.2 1-.1 1.3-.1.1-.4.2-.7.3h-.1c-5.1 9.4-8 19.9-8 31 0 8 1.5 15.8 4.2 23 1.1.1 2.2.1 3.1-.3 1.4-.7 1.8-2.6 1.7-4.2-.1-2.3-.7-4.6-1.9-6.6-.3-.5-.6-1-.7-1.6-.1-1.3 1.1-2.5 2.4-2.9 1.3-.4 2.7-.4 3.9-1 1.3-.6 2.2-2 1.6-3.3-.2-.4-.6-.7-.7-1.2-.6-1.3.8-2.7 2.1-3.4 1.3-.7 2.8-1.7 2.7-3.2-.1-1.3-1.6-2-2.3-3.1-1.2-1.8-.1-4.2 1.6-5.5.5-.4 1.2-.7 1.5-1.3.7-1.2-.4-2.6-1.3-3.5s-2.2-2.1-1.9-3.3c.4-1.8 3.4-2.5 3.2-4.3-.1-1.3-1.8-1.8-3.1-2-1.3-.2-3-.9-2.9-2.2 0-.4.3-.8.4-1.3.5-1.4-.2-3.3-1.6-3.7-.6-.2-1.3-.1-1.9.2l-1.2 2.1z"/><path id="XMLID_36_" class="st4" d="M104.8 71.8c-.1.7-.5 1.5-.6 2.2-.2 1.2.4 2.5 1.4 3.2 1 .7 2.5.6 3.5-.1.6-.4 1.1-1.1 1.8-1.5 1.5-.9 3.3-.2 5 .5-.1 1.6-.1 3.1.7 4.5s2.5 2.2 3.9 1.5c.6-.4 1-1 1.5-1.5 1.5-1.6 3.9-1.9 5.9-1 2.2 1.1 3.4 3.6 5.7 4.7 1.6.7 3.3.7 5.1.4.7-.1 1.6-.1 2.2-.6.7-.4 1.1-1.3.9-1.9-.3-1-1.5-1.2-2.5-1.6-1.3-.6-2.4-2.4-1.6-3.6 1.3-2.1 4.8-.1 6.9-1.2 1.4-.7 1.8-2.6 1.7-4.2-.1-2.3-.7-4.6-1.9-6.6-.3-.5-.6-1-.7-1.6-.1-1.3 1.1-2.5 2.4-2.9 1.3-.4 2.7-.4 3.9-1 1.3-.6 2.2-2 1.6-3.3-.1-.1-.1-.3-.2-.4-17.6.4-33.8 6.2-46.6 15.5v.5z"/><path id="XMLID_35_" class="st4" d="M171.7 57.8v.4c.2 1.7 2.7 2 3.7 3.4.7 1 .6 2.4 1 3.5 1 2.5 4.8 3.2 5.4 5.9.1.8 0 1.6.2 2.4.4 2 2.6 3 4.5 3.7l.3.3c.7 0 1.2 1 1.1 1.7-.1.7-.5 1.5-.6 2.2-.2 1.2.4 2.5 1.4 3.2s2.5.6 3.5-.1c.6-.4 1.1-1.1 1.8-1.5 1.5-.9 3.3-.2 5 .5-.1 1.6-.1 3.1.7 4.5.7 1.3 2.5 2.2 3.9 1.5.6-.4 1-1 1.5-1.5 1.5-1.6 3.9-1.9 5.9-1 2.2 1.1 3.4 3.6 5.7 4.7 1.4.7 3.1.7 4.7.5-10.5-16.9-28.4-29.6-49.7-34.3z"/><path id="XMLID_34_" class="st4" d="M226.8 104c-.1.1-.2.2-.3.4-1.2 1-3.3.6-4.2 1.9-.7 1-.1 2.5-.1 3.7-.1 1.9-1.8 3.6-3.6 4.2-1 .3-2.1.4-2.8 1.3-1.5 1.7.7 4.6-.4 6.7-.7 1.4-2.8 1.9-3.1 3.5-.2 1.5 1.3 2.5 2.6 3.2s2.9 1.6 2.8 3.1c-.1 2-3.3 3-3.1 5 .2 1.7 2.7 2 3.7 3.4.7 1 .6 2.4 1 3.5 1 2.5 4.8 3.2 5.4 5.9.1.8 0 1.6.2 2.4 0 .1.1.3.1.4 3.6-8.2 5.7-17 5.7-26.4 0-7.9-1.3-15.2-3.9-22.2z"/></g><path id="XMLID_33_" class="st1" d="M187.3 81.4c36.7 20.6 49.1 48.8 31.6 82.1 17.7-33.6 15.8-72.5-25.4-95.8-37.2-21-80.1-9.3-105.2 20.2 25.1-29.3 61.7-27.5 99-6.5z"/><path id="XMLID_32_" d="M192.4 75c36.7 20.6 44 55.2 26.5 88.5 17.7-33.6 15.8-72.5-25.4-95.8-37.2-21-80.1-9.3-105.2 20.2C113.4 58.6 155.1 54 192.4 75z" style="opacity:.2;fill:#fff;enable-background:new"/></g><path id="XMLID_31_" class="st2" d="M212.6 142.8c0 35.6-26.6 64.4-59.2 64.4s-59.2-28.9-59.2-64.4c0-7.5 1.2-14.7 3.3-21.5 8.1-25 30.1-12 55.9-12 26.2 0 48.4-12.5 56.2 13.1 1.9 6.4 3 13.3 3 20.4z"/><path id="XMLID_30_" d="M207.1 144.1c0 32.3-24.1 58.6-53.8 58.6s-53.8-26.2-53.8-58.6c0-6.8 1-13.4 3.1-19.5 7.4-22.8 27.3-10.9 50.7-10.9 23.7 0 43.9-11.3 51 11.9 1.9 5.7 2.8 12 2.8 18.5z" style="fill:#aea387"/><path id="XMLID_29_" class="st14" d="M200.8 144.1c0 31.2-22.5 58.3-48.8 58.3s-46.2-27.1-46.2-58.3c0-6.6 1-12.9 2.7-18.8 6.5-21.9 24.1-8.3 44.8-8.3 21 0 38.8-13.2 45.1 9.2 1.6 5.7 2.4 11.6 2.4 17.9z"/><g id="Calque_8_2_"><path id="XMLID_28_" class="st10" d="M101.6 111.5c7.8 5.4 25.3 19.3 51.6 19.3 26 0 43-13.5 51.1-19.1-12-9.7-28-2.5-51-2.5-23 .1-39.5-8.1-51.7 2.3z"/><path id="XMLID_27_" d="M108.3 111.6c6.2 4.3 24 15.2 45 15.2 20.8 0 38.3-10.6 44.8-15-10.3-6.3-26.5.1-44.7.1-18.5-.1-34.9-7.1-45.1-.3z" style="fill:#828383"/><linearGradient id="XMLID_57_" gradientUnits="userSpaceOnUse" x1="153.19" y1="16223.56" x2="153.19" y2="16234.113" gradientTransform="translate(0 -16112)"><stop offset="0" style="stop-color:#fff;stop-opacity:0"/><stop offset="1" style="stop-color:#fff"/></linearGradient><path id="XMLID_26_" d="M119.2 113.8c4.7 3.3 18.5 8.3 34.4 8.3 15.7 0 28.8-4.8 33.6-8.2-7.7-4.8-20.1.1-33.9.1-13.9-.1-26.4-5.3-34.1-.2z" style="opacity:.5;fill:url(#XMLID_57_);enable-background:new"/></g><path id="XMLID_25_" d="M158.3 171h-10.1c-.6 0-1.1-.5-1.1-1.1v-1.3c0-.4.1-.7.4-.9l17.5-12.4c.2-.1.4-.2.7-.2h1.3c.9 0 1.4 1 1 1.7l-8.6 13.6c-.3.5-.7.6-1.1.6z" style="opacity:.1;fill:#020304;enable-background:new"/><path id="XMLID_24_" class="st10" d="M157.8 168h-9.5c-.7 0-1.4-.4-1.7-1l-5.1-8.9c-.7-1.3.2-3 1.7-3h2.5l7.7 2.5 7.6-2.5h2.4c1.6 0 2.5 1.7 1.7 3.1l-5.6 8.9c-.4.6-1 .9-1.7.9z"/><path id="XMLID_23_" class="st14" d="M156.6 166.1h-7.1c-.7 0-1.4-.4-1.8-1l-3.7-6.8c-.7-1.3.2-3 1.8-3h14.7c1.6 0 2.5 1.7 1.8 3.1l-4 6.8c-.3.5-.9.9-1.7.9z"/><path id="XMLID_22_" class="st18" d="M153.3 157.8v6c0 1 .8 1.8 1.8 1.8h.5c.6 0 1.2-.3 1.6-.9l3.6-6c.7-1.2-.1-2.7-1.6-2.7h-4.1c-.9 0-1.8.8-1.8 1.8z"/><path id="XMLID_11_" class="st18" d="M181.5 134.5H172c-2 0-4 .3-5.9.9l-8.3 2.7c-3.1 1-6.7 1-9.8.1l-10-3.1c-1.2-.4-2.5-.6-3.8-.6h-12.1c-1.7 0-3.1-1-3.1-2.3 0-1.3 1.4-2.3 3.1-2.3h12.4c1.3 0 2.7.2 3.9.6l9.7 3.1c3.2 1 6.8 1 10-.1l7.7-2.5c2-.7 4.2-1 6.5-1h9.4c1.7 0 3.1 1 3.1 2.3-.2 1.2-1.6 2.2-3.3 2.2z"/><path id="XMLID_10_" class="st18" d="M128.3 162.9h-9.7c-1.3 0-2.2-1-2.2-2.2 0-1.3 1-2.2 2.2-2.2h9.7c1.3 0 2.2 1 2.2 2.2.1 1.2-1 2.2-2.2 2.2z"/><path id="XMLID_9_" class="st18" d="M188.2 162.2h-9.7c-1.3 0-2.2-1-2.2-2.2 0-1.3 1-2.2 2.2-2.2h9.7c1.3 0 2.2 1 2.2 2.2.1 1.3-1 2.2-2.2 2.2z"/></g></g><circle id="XMLID_4_" cx="152" cy="147.8" r="114.3" style="fill:none;stroke:#0b0b0c;stroke-width:19;stroke-miterlimit:10"/><circle id="XMLID_195_" cx="152" cy="147.8" r="114.3" style="fill:none;stroke:#ddd;stroke-width:6;stroke-miterlimit:10"/></g></g><g id="Calque_5"><path id="XMLID_59_" class="st29" d="m239.3 68 28.5 8.3c3.1.9 13.5 2.7 15.5.3 1.2-1.4-7.4-8.2-8.9-9.1l-9.1-7.1c-2.4-2.5-4-4.8 1-7.1l9.2-1.3c6.9-.8 15.2-.4 14.9-2.2-.4-3.1-10.1-4.8-13.2-5.7l-28.5-8.3c-5.7-1.7-11.8 1.9-13.6 7.9l-3 10.5c-.9 3.1-2.7 7.4-1.3 10 1.3 2.2 5.8 3 8.5 3.8z"/><linearGradient id="XMLID_63_" gradientUnits="userSpaceOnUse" x1="286.044" y1="-16132.533" x2="225.937" y2="-16132.533" gradientTransform="matrix(1 0 0 -1 0 -16082)"><stop offset="0" style="stop-color:#eb5758"/><stop offset=".089" style="stop-color:#d64645"/><stop offset=".231" style="stop-color:#bd3431"/><stop offset=".383" style="stop-color:#ab2823"/><stop offset=".548" style="stop-color:#9e201c"/><stop offset=".736" style="stop-color:#971b18"/><stop offset="1" style="stop-color:#951917"/></linearGradient><path id="XMLID_60_" d="m235 62 28.5 8.3c3.1.9 13.5 2.7 15.5.3 1.2-1.4-7.4-8.2-8.9-9.1l-9.1-7.1c-2.4-2.5-4-4.8 1-7.1l9.2-1.3c6.9-.8 15.2-.4 14.9-2.2-.4-3.1-10.1-4.8-13.2-5.7l-28.5-8.3c-5.7-1.7-11.8 1.9-13.6 7.9l-3 10.5c-.9 3.1-2.7 7.4-1.3 10 1.3 2.2 5.8 3 8.5 3.8z" style="fill:url(#XMLID_63_);stroke:#3b1812;stroke-width:3;stroke-miterlimit:10"/><path id="XMLID_62_" class="st29" d="m60.7 67-28.5 8.3c-3.1.9-13.5 2.7-15.5.3-1.2-1.4 7.4-8.2 8.9-9.1l9.1-7.1c2.4-2.5 4-4.8-1-7.1L24.6 51c-6.9-.8-15.2-.4-14.9-2.2.4-3.1 10.1-4.8 13.2-5.7l28.5-8.3c5.7-1.7 11.8 1.9 13.6 7.9l3 10.5c.9 3.1 2.7 7.4 1.3 10-1.4 2.3-5.9 3-8.6 3.8z"/><linearGradient id="XMLID_64_" gradientUnits="userSpaceOnUse" x1="548.828" y1="49.562" x2="488.722" y2="49.562" gradientTransform="matrix(-1 0 0 1 562.785 0)"><stop offset="0" style="stop-color:#eb5758"/><stop offset=".089" style="stop-color:#d64645"/><stop offset=".231" style="stop-color:#bd3431"/><stop offset=".383" style="stop-color:#ab2823"/><stop offset=".548" style="stop-color:#9e201c"/><stop offset=".736" style="stop-color:#971b18"/><stop offset="1" style="stop-color:#951917"/></linearGradient><path id="XMLID_61_" d="m65 61-28.5 8.3c-3.1.9-13.4 2.7-15.5.3-1.2-1.4 7.4-8.2 8.9-9.1l9.1-7.1c2.4-2.5 4-4.8-1-7.1L28.9 45c-6.9-.8-15.2-.4-14.9-2.3.4-3.1 10.1-4.8 13.2-5.7l28.5-8.3c5.7-1.7 11.8 1.9 13.6 7.9l3 10.5c.9 3.1 2.7 7.4 1.3 10-1.4 2.4-5.9 3.1-8.6 3.9z" style="fill:url(#XMLID_64_);stroke:#3b1812;stroke-width:3;stroke-miterlimit:10"/><g id="XMLID_58_" style="opacity:.25"><path id="XMLID_52_" class="st10" d="M236 56.5c-56-15.8-115.3-15.8-171.3 0-6.4 1.8-13.4-1.6-15.5-7.8-1.4-4.4-2.9-8.9-4.3-13.3-2.1-6.3 2.1-13.3 9.5-15.4 62.8-17.7 129.2-17.7 192 0 7.3 2.1 11.5 9.2 9.5 15.4-1.4 4.4-2.9 8.9-4.3 13.3-2.2 6.2-9.1 9.6-15.6 7.8z"/></g><g id="XMLID_55_"><radialGradient id="XMLID_65_" cx="150.37" cy="27.474" r="77.022" gradientUnits="userSpaceOnUse"><stop offset="0" style="stop-color:#eb5758"/><stop offset="1" style="stop-color:#951917"/></radialGradient><path id="XMLID_5_" d="M236.6 51.5c-56.4-15.9-116.1-15.9-172.5 0-6.4 1.8-13.4-1.6-15.5-7.8l-3.9-12c-2.1-6.3 2.1-13.3 9.4-15.4 62.9-17.8 129.5-17.8 192.4 0 7.3 2.1 11.5 9.1 9.4 15.4l-3.9 12c-2 6.2-8.9 9.6-15.4 7.8z" style="fill:url(#XMLID_65_)"/><path id="XMLID_2_" d="M236.6 51.5c-56.4-15.9-116.1-15.9-172.5 0-6.4 1.8-13.4-1.6-15.5-7.8l-3.9-12c-2.1-6.3 2.1-13.3 9.4-15.4 62.9-17.8 129.5-17.8 192.4 0 7.3 2.1 11.5 9.1 9.4 15.4l-3.9 12c-2 6.2-8.9 9.6-15.4 7.8z" style="fill:none;stroke:#3b1812;stroke-width:3;stroke-miterlimit:10"/></g><g id="XMLID_3_"><g id="XMLID_281_"><path id="XMLID_322_" class="st35" d="M71.9 24.2c.6 4.5 1.3 9 2 13.6-1.8.5-3.5 1.1-5.3 1.6-2-4.1-4.1-8.2-6.2-12.3 1.3-.4 2.6-.8 3.8-1.2 1.6 3.4 2.8 6.4 3.7 8.8-.6-2.6-1.1-4.8-1.4-6.8-.2-.8-.3-1.7-.5-2.5 1.3-.5 2.6-.8 3.9-1.2z"/><path id="XMLID_319_" class="st35" d="m78.8 22.3 5.4 12.6-3.6.9c-.3-.8-.5-1.5-.8-2.3-.4.1-.8.2-1.3.3.1.8.3 1.6.4 2.4-1.2.3-2.4.7-3.6 1-.7-4.5-1.3-9-1.9-13.6 1.9-.4 3.7-.8 5.4-1.3zm.3 8.9c-.6-1.4-1.3-3.2-2-5.4.3 2.6.6 4.5.8 5.7.4 0 .8-.2 1.2-.3z"/><path id="XMLID_317_" class="st35" d="M89.8 19.7c1 4.4 1.9 8.8 2.9 13.3-1 .2-2.1.5-3.1.7-1.1-1.9-2.2-3.7-3.3-5.6.5 2 .9 4 1.4 6-1 .2-2 .5-2.9.7l-3.3-13.2c1-.3 2.1-.5 3.1-.8 1.2 1.8 2.3 3.6 3.4 5.5-.5-2-.9-4-1.4-6 1.2-.2 2.2-.4 3.2-.6z"/><path id="XMLID_314_" class="st35" d="M102.2 31c.1.5.2 1.1.3 1.6-.9.2-1.8.3-2.7.5-.6.1-1.1.2-1.4.1-.3 0-.5-.2-.6-.3-.1-.2-.2-.5-.3-1-.8.1-1.5.1-2.2-.2-.7-.3-1.1-.7-1.5-1.2-.3-.6-.6-1.4-.9-2.6-.3-1.4-.6-2.7-.9-4.1-.2-.9-.3-1.6-.3-2.1s.2-1 .4-1.5c.3-.5.7-.9 1.2-1.2.5-.3 1.1-.6 1.8-.7.8-.2 1.6-.2 2.3 0 .7.1 1.2.4 1.6.7.4.3.7.7.9 1.2.2.4.3 1.1.5 1.9.3 1.4.5 2.9.8 4.3.2 1.2.3 2 .3 2.4 0 .4-.2.8-.5 1.1-.3.3-.7.6-1.2.8.1.3.2.5.3.5.1.1.4 0 .8 0 .5 0 .9-.1 1.3-.2zm-5.4-9.2c-.1-.6-.2-1-.3-1.2-.1-.2-.3-.2-.5-.2s-.3.1-.4.3c-.1.2 0 .6.1 1.3.4 2.1.8 4.1 1.2 6.2.2.8.3 1.2.4 1.4.1.2.3.2.5.2s.4-.2.4-.4 0-.7-.2-1.5c-.5-2-.9-4.1-1.2-6.1z"/><path id="XMLID_312_" class="st35" d="M109.7 16.1c.4 3 .9 6 1.3 9 .1 1 .2 1.7.2 2.2 0 .4-.1.9-.4 1.4-.3.5-.7.9-1.2 1.2-.5.3-1.1.5-1.9.6-.8.1-1.6.1-2.2 0-.7-.2-1.2-.4-1.6-.8-.4-.4-.6-.8-.8-1.2-.1-.5-.3-1.4-.6-3-.5-2.6-.9-5.3-1.4-7.9 1.2-.2 2.5-.4 3.7-.6.5 3.3 1.1 6.7 1.6 10 .1.6.2 1 .3 1.1.1.2.2.2.4.2s.4-.1.4-.3c0-.2 0-.6-.1-1.3-.5-3.3-1-6.6-1.6-9.9 1.4-.4 2.6-.5 3.9-.7z"/><path id="XMLID_310_" class="st35" d="M114.9 15.4c.6 4.5 1.1 9 1.7 13.5-1.2.2-2.4.3-3.6.5-.6-4.5-1.3-9-1.9-13.4 1.3-.3 2.5-.5 3.8-.6z"/><path id="XMLID_308_" class="st35" d="M124.7 18.4c-1.1.1-2.3.2-3.4.3 0-.3-.1-.7-.1-1 0-.5-.1-.8-.2-.9-.1-.1-.3-.2-.5-.1-.2 0-.4.1-.5.3-.1.2-.1.5-.1.8 0 .4.2.8.3 1 .1.2.5.5 1.1.7 1.7.8 2.8 1.4 3.3 2 .5.6.8 1.5.9 2.8.1 1 0 1.7-.2 2.2-.2.5-.6.9-1.2 1.3s-1.4.6-2.2.7c-1 .1-1.8 0-2.5-.3s-1.2-.7-1.5-1.2c-.3-.5-.5-1.3-.6-2.3 0-.3-.1-.6-.1-.9 1.1-.1 2.3-.3 3.4-.4.1.5.1 1.1.2 1.6s.1.8.2 1c.1.1.3.2.5.2s.4-.1.5-.3c.1-.2.1-.5.1-.8-.1-.8-.2-1.3-.5-1.5-.3-.2-.9-.6-1.8-1l-2-1c-.3-.2-.6-.6-.9-1-.3-.4-.4-1-.5-1.7-.1-1-.1-1.8.1-2.3.2-.5.6-.9 1.2-1.3.6-.3 1.3-.6 2.2-.7 1-.1 1.8 0 2.5.2s1.2.6 1.5 1c.3.4.4 1.2.5 2.3.3 0 .3.1.3.3z"/><path id="XMLID_306_" class="st35" d="M134.5 13.6c.3 4.5.5 9 .8 13.5-1.2.1-2.4.1-3.6.2-.1-1.9-.3-3.8-.4-5.7-.4 0-.7.1-1.1.1.1 1.9.3 3.8.4 5.7l-3.6.3-1.2-13.5c1.3-.1 2.5-.2 3.8-.3.1 1.6.2 3.2.4 4.8.4 0 .7-.1 1.1-.1l-.3-4.8c1.2-.1 2.4-.2 3.7-.2z"/><path id="XMLID_304_" class="st35" d="M146.8 13.1v2.7h-2.2c.1 3.6.2 7.2.2 10.8-1.2 0-2.4.1-3.6.1-.1-3.6-.2-7.2-.4-10.8-.7 0-1.5.1-2.2.1 0-.9-.1-1.8-.1-2.7 2.8 0 5.6-.1 8.3-.2z"/><path id="XMLID_302_" class="st35" d="M156.4 13.2c-.1 4.5-.2 9-.3 13.6h-3.6v-5.7h-1.1v5.7h-3.6c0-4.5-.1-9-.1-13.6h3.8v4.9h1.1v-4.9c1.3-.1 2.5 0 3.8 0z"/><path id="XMLID_300_" class="st35" d="M157.9 13.2c2.1.1 4.2.1 6.3.2 0 .9-.1 1.8-.1 2.7-.8 0-1.7-.1-2.5-.1 0 .9-.1 1.7-.1 2.6.8 0 1.5.1 2.3.1 0 .9-.1 1.7-.1 2.6-.8 0-1.5-.1-2.3-.1 0 1-.1 2-.1 3 .9 0 1.8.1 2.7.1 0 .9-.1 1.8-.1 2.7-2.1-.1-4.2-.2-6.2-.2 0-4.5.1-9.1.2-13.6z"/><path id="XMLID_297_" class="st35" d="M168.7 13.7c.9.1 1.8.1 2.7.2 1.8.1 3 .3 3.6.5.6.2 1.1.6 1.4 1.1.3.6.5 1.4.4 2.6-.1 1.1-.3 1.7-.6 2.1-.3.3-.9.5-1.7.5.7.2 1.2.5 1.4.8.2.3.4.6.4.8 0 .2 0 .9-.1 2l-.3 3.6-3.3-.3c.1-1.5.2-3 .4-4.5.1-.7 0-1.2-.1-1.4-.1-.2-.4-.3-.9-.3-.2 2-.3 4.1-.5 6.1l-3.6-.3c.3-4.5.6-9 .8-13.5zm3.6 2.6c-.1 1-.2 2-.2 3 .4 0 .7 0 .9-.1.2-.1.3-.4.3-1 0-.2 0-.5.1-.7 0-.4 0-.7-.2-.9-.2-.2-.4-.3-.9-.3z"/><path id="XMLID_295_" class="st35" d="M178.6 14.5c2.1.2 4.2.4 6.3.7l-.3 2.7c-.8-.1-1.7-.2-2.5-.3-.1.9-.2 1.7-.3 2.6.8.1 1.5.2 2.3.3-.1.9-.2 1.7-.3 2.6-.8-.1-1.5-.2-2.3-.3l-.3 3c.9.1 1.8.2 2.6.3l-.3 2.7c-2.1-.3-4.1-.5-6.2-.7.4-4.6.9-9.1 1.3-13.6z"/><path id="XMLID_292_" class="st35" d="M186.2 15.3c.9.1 1.9.2 2.8.4 1.8.2 3 .5 3.6.8.6.2 1.1.6 1.3 1 .3.4.4.8.4 1.3 0 .4-.1 1.3-.3 2.6-.2 1.6-.5 3.1-.7 4.7-.2 1.2-.4 2-.6 2.4-.2.4-.4.7-.8.9-.3.2-.7.3-1.1.3-.4 0-1.1 0-1.9-.1l-4.5-.6c.7-4.7 1.2-9.2 1.8-13.7zm3.4 2.8c-.4 2.9-.8 5.9-1.2 8.8.5.1.9 0 1-.2.1-.2.3-.7.4-1.6.2-1.7.5-3.5.7-5.2.1-.6.1-1 .1-1.2 0-.2-.1-.3-.2-.4-.1 0-.4-.1-.8-.2z"/><path id="XMLID_289_" class="st35" d="M205.9 18.5c-.2 4.6-.4 9.1-.6 13.7-1.2-.2-2.4-.5-3.6-.7l.3-2.4c-.4-.1-.9-.2-1.3-.2-.2.8-.4 1.6-.7 2.4-1.2-.2-2.4-.4-3.7-.7 1.4-4.4 2.8-8.7 4.2-13 1.8.2 3.6.6 5.4.9zm-3.6 8.2c.1-1.5.3-3.4.5-5.7-.9 2.5-1.4 4.3-1.7 5.5.4 0 .8.1 1.2.2z"/><path id="XMLID_286_" class="st35" d="M208.6 19.1c.9.2 1.8.4 2.6.6 1.7.4 2.9.7 3.5 1 .6.3 1 .7 1.3 1.3.3.6.3 1.5 0 2.6-.2 1-.5 1.7-.9 2-.4.3-.9.4-1.7.3.7.3 1.1.7 1.3 1 .2.3.3.6.3.9 0 .3-.1.9-.4 2-.3 1.2-.6 2.3-.8 3.5-1.1-.3-2.2-.5-3.3-.8.3-1.5.7-2.9 1-4.4.2-.7.2-1.2.1-1.4-.1-.2-.4-.3-.9-.5-.4 2-.9 4-1.3 6-1.2-.3-2.4-.5-3.5-.8.9-4.5 1.8-8.9 2.7-13.3zm3.3 3c-.2 1-.4 2-.7 2.9.4.1.7.1.9 0 .2-.1.3-.4.5-1 .1-.2.1-.5.2-.7.1-.4.1-.7-.1-.9-.1 0-.4-.2-.8-.3z"/><path id="XMLID_284_" class="st35" d="M229.7 24.3c-1.3 4.3-2.5 8.7-3.8 13-1-.3-2-.6-3.1-.9.8-2.9 1.6-5.9 2.4-8.8-1.2 2.8-2.4 5.7-3.6 8.5-.7-.2-1.4-.4-2.2-.6l.9-9c-.7 2.9-1.5 5.8-2.2 8.7-1-.3-2-.5-3.1-.8 1.1-4.4 2.1-8.8 3.2-13.2l4.8 1.2c-.1.8-.2 1.8-.3 2.9-.1 1.2-.2 2.3-.4 3.5.8-2 1.6-3.9 2.5-5.9 1.7.5 3.3.9 4.9 1.4z"/><path id="XMLID_282_" class="st35" d="M238.9 27.1c-1.8 2.5-3.5 4.9-5.2 7.4-.5 1.6-1 3.1-1.5 4.7-1.1-.3-2.1-.7-3.2-1 .5-1.6.9-3.1 1.4-4.7 0-3 0-6-.1-9 1.1.3 2.2.7 3.4 1-.2 2.7-.5 4.5-.7 5.4.6-1.3 1.5-2.9 2.6-4.8 1.1.3 2.2.6 3.3 1z"/></g></g></g></svg>