<svg version="1.0" xmlns="http://www.w3.org/2000/svg" width="150" height="100" viewBox="0 0 100 150" style="enable-background:new 0 0 100 150" xml:space="preserve"><path d="M51 102s-10.9-.3-14.2-8.2c-.6-1.4.1-2.2.1-4.2-.5-13.1-3.1-28.8.5-29 1.4-.1 2.5 1.1 3.1 2.2 1.1 2.1 1.3 7.7 1.2 9.9 0 .4.3.8.8.8h.3c.5 0 .9-.4.9-1V59.2s-2.1-6.8.6-6.8c4.3-.1 3.8 6.9 3.8 6.9l.2 12.7c0 .6.5 1 1 1h.1c.6 0 1-.5 1-1V54.8s-1-4.9.9-4.9c4.4 0 3.9 4.9 3.9 4.9v17.5c0 .6.5 1 1 1 .6 0 1.1-.5 1.1-1.1V57.8s-1.3-5.7.5-5.7c4.2 0 4 3.1 4 5.6.1 2.2.1 22.5.1 26.7 0 .4.3.8.8.8h.2c.4 0 .8-.4.8-.8v-7s-1.5-6.4.7-6.4c3.8 0 3.7 6.1 3.7 6.9v9.3S68 101.7 51 102z" style="fill:#682121"/><path d="M49.4 100.1s-13.6.7-14.1-12.4-1.5-27 2.1-27c2.7-.1 2.8 7.6 2.7 10.2 0 .4.3.8.8.8h.3c.5 0 .9-.4.9-1V57.3s-.5-4.9 2.2-4.9c2.8-.1 2.3 5 2.3 5l.1 12.8c0 .6.5 1 1 1h.1c.6 0 1-.5 1-1V53s.6-3 2.4-3 2.4 3 2.4 3v17.5c0 .6.5 1 1 1 .6 0 1.1-.5 1.1-1.1V55.9s.3-3.8 2-3.8c1.6 0 2.4 1.2 2.5 3.7.1 2.2.1 22.5.1 26.7 0 .4.3.8.8.8h.2c.4 0 .8-.4.8-.8v-7s0-4.5 2.1-4.5c2.2 0 2.3 3.8 2.3 5v9.3s-.1 14.4-17.1 14.8z" style="fill:#d13939"/></svg>