<svg version="1.0" id="Calque_1" xmlns="http://www.w3.org/2000/svg" x="0" y="0" viewBox="0 0 36 36" style="enable-background:new 0 0 36 36" xml:space="preserve"><style>.st0{display:none}.st3{fill:none;stroke:#fff;stroke-miterlimit:10}.st4{display:inline}.st5,.st6{fill:none;stroke:#fff;stroke-width:.75;stroke-miterlimit:10}.st6{display:inline}</style><g id="diamond"><path id="XMLID_430_" class="st3" d="M30 15 19 30.1c-.5.6-1.4.6-1.9 0L6 15c-.3-.4-.3-.9 0-1.3l3.3-5.1c.2-.4.5-.6.9-.6h15.7c.4 0 .8.2 1 .6l3.1 5.1c.3.4.3.9 0 1.3z"/><path id="XMLID_4_" class="st3" d="M18 30.6 9.7 8.4"/><path id="XMLID_5_" class="st3" d="M26.4 8 18 30.6"/><path id="XMLID_6_" class="st3" d="M5.7 14.4h24.6"/><path id="XMLID_7_" class="st3" d="m12.1 14.4 6-6.4"/><path id="XMLID_8_" class="st3" d="m18.1 8 6 6.4"/></g></svg>