<svg version="1.0" id="Calque_52" xmlns="http://www.w3.org/2000/svg" x="0" y="0" viewBox="0 0 100 150" style="enable-background:new 0 0 100 150" xml:space="preserve"><style>.st0{fill:#e7af26}.st1{fill:#e6c020}</style><g id="power"><g id="圖層_8_拷貝_1_"><path id="XMLID_49_" class="st0" d="m34.5 88.2 15 7.9 1.8 1.8-6.5 11.1s-3.3 5.7-11.6.7c-8.3-4.9-5.1-10.4-5.1-10.4l6.4-11.1z"/><path id="XMLID_48_" class="st0" d="M58.1 92.5S77.1 60 77.5 59c.3-1.1-4.7-17.6-4.7-17.6L71 39.5 55.1 46 35.7 79.6l-5.6-3.2-5 3.8 1.8 1.8 33.5 19.4 3.2-5.6-1.8-1.8-3.7-1.5zm-5.5-3.3c.1-.1-11.2-6.5-11.2-6.5l19.4-33.5 8.8-2.4 2.4 8.8c-.1.1-19.5 33.8-19.4 33.6z"/></g><g id="圖層_8_拷貝_2_"><path id="XMLID_4_" class="st1" d="m32.7 86.4 16.8 9.7-6.4 11.2s-3.3 5.7-11.6.7c-8.3-4.9-5.1-10.4-5.1-10.4l6.3-11.2z"/><path id="XMLID_1_" class="st1" d="M56.3 90.7s19-32.5 19.4-33.5C76 56 71 39.5 71 39.5l-17.6 4.7L34 77.8l-5.6-3.2-3.2 5.6 33.5 19.4 3.2-5.6-5.6-3.3zm-5.5-3.3c.1-.1-11.2-6.5-11.2-6.5L59 47.4l8.8-2.4 2.4 8.8c-.1.1-19.5 33.8-19.4 33.6z"/></g></g></svg>