<?xml version="1.0" encoding="utf-8"?>
<!-- Generator: Adobe Illustrator 19.0.0, SVG Export Plug-In . SVG Version: 6.00 Build 0)  -->
<svg version="1.0" id="Layer_1" xmlns="http://www.w3.org/2000/svg" xmlns:xlink="http://www.w3.org/1999/xlink" x="0px" y="0px"
	 viewBox="0 0 100 20" style="enable-background:new 0 0 100 20;" xml:space="preserve">
<style type="text/css">
	.st0{opacity:0.5;fill:url(#XMLID_2_);}
	.st1{fill:url(#XMLID_3_);}
	.st2{opacity:0.5;fill:url(#XMLID_5_);}
	.st3{fill:url(#XMLID_7_);}
	.st4{opacity:0.5;fill:url(#XMLID_9_);}
	.st5{fill:url(#XMLID_10_);}
	.st6{fill:url(#XMLID_11_);}
	.st7{opacity:0.75;}
	.st8{opacity:0.5;fill:url(#XMLID_12_);}
	.st9{opacity:0.5;fill:url(#XMLID_13_);}
	.st10{fill:url(#XMLID_14_);}
	.st11{opacity:0.5;fill:url(#XMLID_15_);}
	.st12{opacity:0.5;fill:url(#XMLID_16_);}
</style>
<linearGradient id="XMLID_2_" gradientUnits="userSpaceOnUse" x1="15.9371" y1="7.7948" x2="18.6264" y2="7.7948">
	<stop  offset="0" style="stop-color:#FFFFFF;stop-opacity:0"/>
	<stop  offset="1" style="stop-color:#FFFFFF"/>
</linearGradient>
<path id="XMLID_47_" class="st0" d="M16,4.9c0,0-0.4,3.4,2.7,5.8C18.6,10.7,18.7,6.5,16,4.9z M16.2,5.5c1.9,1.3,2.1,4.6,2.1,4.6
	C16.2,8.1,16.2,5.5,16.2,5.5z"/>
<radialGradient id="XMLID_3_" cx="17.2895" cy="7.7948" r="1.8002" gradientUnits="userSpaceOnUse">
	<stop  offset="0" style="stop-color:#959698"/>
	<stop  offset="0.3213" style="stop-color:#959697"/>
	<stop  offset="0.5416" style="stop-color:#939494"/>
	<stop  offset="0.7315" style="stop-color:#8F9090"/>
	<stop  offset="0.9032" style="stop-color:#89898A"/>
	<stop  offset="1" style="stop-color:#848484"/>
</radialGradient>
<path id="XMLID_41_" class="st1" d="M16.2,5.5c0,0,0,2.6,2.1,4.6C18.3,10.1,18.1,6.8,16.2,5.5z"/>
<linearGradient id="XMLID_5_" gradientUnits="userSpaceOnUse" x1="62.7741" y1="-21.7059" x2="65.4633" y2="-21.7059" gradientTransform="matrix(0.7414 -0.6711 0.6711 0.7414 -21.0459 75.5986)">
	<stop  offset="0" style="stop-color:#FFFFFF;stop-opacity:0"/>
	<stop  offset="1" style="stop-color:#FFFFFF"/>
</linearGradient>
<path id="XMLID_36_" class="st2" d="M9,15.2c0,0,2,2.8,5.9,2.5C14.9,17.7,12.1,14.6,9,15.2z M9.6,15.5c2.3-0.3,4.7,2,4.7,2
	C11.3,17.4,9.6,15.5,9.6,15.5z"/>
<radialGradient id="XMLID_7_" cx="64.1264" cy="-21.7059" r="1.8002" gradientTransform="matrix(0.7414 -0.6711 0.6711 0.7414 -21.0459 75.5986)" gradientUnits="userSpaceOnUse">
	<stop  offset="0" style="stop-color:#959698"/>
	<stop  offset="0.3213" style="stop-color:#959697"/>
	<stop  offset="0.5416" style="stop-color:#939494"/>
	<stop  offset="0.7315" style="stop-color:#8F9090"/>
	<stop  offset="0.9032" style="stop-color:#89898A"/>
	<stop  offset="1" style="stop-color:#848484"/>
</radialGradient>
<path id="XMLID_35_" class="st3" d="M9.6,15.5c0,0,1.8,2,4.7,2C14.3,17.5,11.9,15.2,9.6,15.5z"/>
<linearGradient id="XMLID_9_" gradientUnits="userSpaceOnUse" x1="48.7037" y1="65.4293" x2="51.393" y2="65.4293" gradientTransform="matrix(0.2924 0.9563 -0.9563 0.2924 129.9949 -59.9938)">
	<stop  offset="0" style="stop-color:#FFFFFF;stop-opacity:0"/>
	<stop  offset="1" style="stop-color:#FFFFFF"/>
</linearGradient>
<path id="XMLID_6_" class="st4" d="M84.5,4.9c0,0-3.4,0.6-4.8,4.3C79.7,9.1,83.7,8,84.5,4.9z M84,5.3c-0.7,2.2-3.8,3.4-3.8,3.4
	C81.5,6.1,84,5.3,84,5.3z"/>
<radialGradient id="XMLID_10_" cx="50.0561" cy="65.4293" r="1.8002" gradientTransform="matrix(0.2924 0.9563 -0.9563 0.2924 129.9949 -59.9938)" gradientUnits="userSpaceOnUse">
	<stop  offset="0" style="stop-color:#959698"/>
	<stop  offset="0.3213" style="stop-color:#959697"/>
	<stop  offset="0.5416" style="stop-color:#939494"/>
	<stop  offset="0.7315" style="stop-color:#8F9090"/>
	<stop  offset="0.9032" style="stop-color:#89898A"/>
	<stop  offset="1" style="stop-color:#848484"/>
</radialGradient>
<path id="XMLID_4_" class="st5" d="M84,5.3c0,0-2.5,0.8-3.8,3.4C80.2,8.7,83.3,7.5,84,5.3z"/>
<radialGradient id="XMLID_11_" cx="56.4363" cy="14.772" r="1.6621" gradientUnits="userSpaceOnUse">
	<stop  offset="0" style="stop-color:#959698"/>
	<stop  offset="0.3213" style="stop-color:#959697"/>
	<stop  offset="0.5416" style="stop-color:#939494"/>
	<stop  offset="0.7315" style="stop-color:#8F9090"/>
	<stop  offset="0.9032" style="stop-color:#89898A"/>
	<stop  offset="1" style="stop-color:#848484"/>
</radialGradient>
<path id="XMLID_19_" class="st6" d="M55.6,17c0,0,1.3-3.3,1.7-4.4c0,0-0.5,3.7-0.5,4.4L55.6,17z"/>
<g id="XMLID_26_" class="st7">
	<linearGradient id="XMLID_12_" gradientUnits="userSpaceOnUse" x1="56.2386" y1="16.9575" x2="56.7716" y2="16.9575">
		<stop  offset="0" style="stop-color:#FFFFFF"/>
		<stop  offset="1" style="stop-color:#FFFFFF;stop-opacity:0"/>
	</linearGradient>
	<polygon id="XMLID_27_" class="st8" points="56.8,17 56.8,17 56.2,17 	"/>
	<linearGradient id="XMLID_13_" gradientUnits="userSpaceOnUse" x1="55.0746" y1="14.4316" x2="57.4575" y2="14.4316">
		<stop  offset="0" style="stop-color:#FFFFFF;stop-opacity:0"/>
		<stop  offset="1" style="stop-color:#FFFFFF"/>
	</linearGradient>
	<path id="XMLID_28_" class="st9" d="M57.5,11.9c-0.7,1-2.4,5.1-2.4,5.1l1.2,0l-0.7,0c0,0,1.3-3.3,1.7-4.4c0,0-0.5,3.7-0.5,4.4
		l0.4,0C57.3,16.3,57.5,11.9,57.5,11.9z"/>
</g>
<radialGradient id="XMLID_14_" cx="157.8937" cy="39.4031" r="1.6621" gradientTransform="matrix(-0.6866 -1.1475 1.2049 -0.7209 98.8045 219.3501)" gradientUnits="userSpaceOnUse">
	<stop  offset="0" style="stop-color:#959698"/>
	<stop  offset="0.3213" style="stop-color:#959697"/>
	<stop  offset="0.5416" style="stop-color:#939494"/>
	<stop  offset="0.7315" style="stop-color:#8F9090"/>
	<stop  offset="0.9032" style="stop-color:#89898A"/>
	<stop  offset="1" style="stop-color:#848484"/>
</radialGradient>
<path id="XMLID_30_" class="st10" d="M41.1,9.2c0,0-4.9,0.9-6.5,1.2c0,0,4.8-2.2,5.6-2.5L41.1,9.2z"/>
<g id="XMLID_24_" class="st7">
	
		<linearGradient id="XMLID_15_" gradientUnits="userSpaceOnUse" x1="157.696" y1="41.5885" x2="158.2291" y2="41.5885" gradientTransform="matrix(-0.6866 -1.1475 1.2049 -0.7209 98.8045 219.3501)">
		<stop  offset="0" style="stop-color:#FFFFFF"/>
		<stop  offset="1" style="stop-color:#FFFFFF;stop-opacity:0"/>
	</linearGradient>
	<polygon id="XMLID_29_" class="st11" points="40.3,7.8 40.3,7.8 40.6,8.4 	"/>
	
		<linearGradient id="XMLID_16_" gradientUnits="userSpaceOnUse" x1="156.5321" y1="39.0627" x2="158.9149" y2="39.0627" gradientTransform="matrix(-0.6866 -1.1475 1.2049 -0.7209 98.8045 219.3501)">
		<stop  offset="0" style="stop-color:#FFFFFF;stop-opacity:0"/>
		<stop  offset="1" style="stop-color:#FFFFFF"/>
	</linearGradient>
	<path id="XMLID_25_" class="st12" d="M33.7,10.7c1.7,0,7.7-0.9,7.7-0.9l-0.8-1.3l0.5,0.8c0,0-4.9,0.9-6.5,1.2c0,0,4.8-2.2,5.6-2.5
		L40,7.3C39.2,7.7,33.7,10.7,33.7,10.7z"/>
</g>
</svg>
