<svg version="1.0" xmlns="http://www.w3.org/2000/svg" viewBox="0 0 100 150" style="enable-background:new 0 0 100 150" xml:space="preserve"><path d="M65.8 61.6c-2.7-3-6-4.9-9.7-5.9l.6-3.8-4.2-.7L52 55c-3.8-.2-7.6.7-11 2.6l-2.3-3.2-3.5 2.6 2.3 3.2c-3 2.7-4.9 6-5.9 9.7l-3.8-.6-.7 4.2 3.8.6c-.2 3.8.7 7.6 2.6 11l-3.2 2.3 2.5 3.4 3.2-2.3c2.7 3 6 4.9 9.7 5.9l-.6 3.8 4.2.7.6-3.8c3.8.2 7.6-.7 11-2.6l2.3 3.2 3.4-2.5-2.3-3.2c3-2.7 4.9-6 5.9-9.7l3.8.6.7-4.2-3.8-.7c.2-3.8-.7-7.6-2.6-11l3.2-2.3-2.5-3.4-3.2 2.3zm-4.9 27.1c-7.6 5.5-18.1 3.8-23.6-3.7-5.5-7.6-3.8-18.1 3.7-23.6s18.1-3.8 23.6 3.7 3.8 18.1-3.7 23.6z" style="fill:#a9a8a8"/><path d="M41 61.3c-7.6 5.5-9.2 16.1-3.7 23.6 5.5 7.6 16.1 9.2 23.6 3.7 7.6-5.5 9.2-16.1 3.7-23.6-5.5-7.5-16.1-9.2-23.6-3.7zm16.7 23.1c-5.2 3.8-12.4 2.6-16.1-2.6-3.8-5.2-2.6-12.4 2.6-16.1 5.2-3.8 12.4-2.6 16.1 2.6 3.7 5.1 2.6 12.3-2.6 16.1z" style="fill:#c6c6c5"/><radialGradient id="a" cx="-18.577" cy="121.171" r="28.736" gradientTransform="rotate(-36.002 -54.871 -8.875)" gradientUnits="userSpaceOnUse"><stop offset="0" style="stop-color:#d6d5d5"/><stop offset=".321" style="stop-color:#d4d3d2"/><stop offset=".542" style="stop-color:#cccaca"/><stop offset=".732" style="stop-color:#bebdbd"/><stop offset=".903" style="stop-color:#acabab"/><stop offset="1" style="stop-color:#9f9e9e"/></radialGradient><path d="m76.8 61.7-5.2-7.1-5.6 4c-2.2-2-4.6-3.5-7.3-4.5l1.1-6.9-8.7-1.4-1.1 7c-2.8.1-5.7.8-8.3 2l-4.1-5.6-7.1 5.2 4.1 5.6c-2 2.2-3.5 4.6-4.5 7.3l-6.9-1.1-1.4 8.7 6.9 1.1c.1 2.8.8 5.7 2 8.3l-5.6 4.1 5.2 7.1 5.6-4.1c2.2 2 4.6 3.5 7.3 4.5l-1.1 6.9 8.7 1.4 1.1-6.9c2.8-.1 5.7-.8 8.3-2l4.1 5.6 7.1-5.2-4.1-5.6c2-2.2 3.5-4.6 4.5-7.3l6.9 1.1 1.4-8.7-6.9-1.1c-.1-2.8-.8-5.7-2-8.3l5.6-4.1zM57.4 84c-5 3.6-11.9 2.5-15.5-2.5-3.6-5-2.5-11.9 2.5-15.5 5-3.6 11.9-2.5 15.5 2.5s2.5 11.9-2.5 15.5z" style="fill:url(#a);stroke:#414042;stroke-width:3;stroke-miterlimit:10"/><path d="M42.1 62.9c-6.7 4.9-8.2 14.2-3.3 20.9 4.9 6.7 14.2 8.2 20.9 3.3 6.7-4.9 8.2-14.2 3.3-20.9-4.8-6.7-14.2-8.2-20.9-3.3zm16.4 22.5c-5.7 4.2-13.8 2.9-17.9-2.8-4.2-5.7-2.9-13.8 2.8-17.9 5.7-4.2 13.8-2.9 17.9 2.8 4.2 5.7 2.9 13.7-2.8 17.9z" style="fill:none;stroke:#aaa8a8;stroke-width:3;stroke-miterlimit:10"/></svg>