<svg version="1.0" id="Calque_1" xmlns="http://www.w3.org/2000/svg" x="0" y="0" width="150" height="100" viewBox="0 0 100 150" style="enable-background:new 0 0 100 150" xml:space="preserve"><style>.st0{fill:#e8af29}</style><g id="zoomOut_-_copie"><g id="Calque_28_-_copie_3_1_"><path id="XMLID_437_" class="st0" d="M24.8 84.9V74c0-.9.7-1.6 1.6-1.6h47.3c.9 0 1.6.7 1.6 1.6v10.9c0 .9-.7 1.6-1.6 1.6H26.4c-.9 0-1.6-.7-1.6-1.6z"/><path id="XMLID_436_" class="st0" d="m28.3 69.9-3 3h2.4l.6-3"/><path id="XMLID_435_" class="st0" d="m77.8 83-2.9 2.9v-3.2l2.9.3"/></g><g id="Calque_28_-_copie_3"><path id="XMLID_438_" d="M27.7 82V71.1c0-.9.7-1.6 1.6-1.6h47.3c.9 0 1.6.7 1.6 1.6V82c0 .9-.7 1.6-1.6 1.6H29.3c-.9 0-1.6-.7-1.6-1.6z" style="fill:#e9c01e"/></g></g></svg>