<svg version="1.0" xmlns="http://www.w3.org/2000/svg" width="100" height="150" style="enable-background:new 0 0 100 150" xml:space="preserve"><style>.st0{display:none}.st1{display:inline;fill:#333}.st5{fill:#2e3192}.st6{fill:#27aae1}.st8{display:inline}.st11,.st13,.st14,.st15,.st9{fill:none;stroke:#2b3990;stroke-width:4;stroke-miterlimit:10}.st11,.st13,.st14,.st15{stroke:#5ca1d8}.st13,.st14,.st15{stroke:#be1e2d;stroke-width:8}.st14,.st15{stroke:#ed1c24}.st15{stroke:#fff;stroke-width:4}.st16{fill:#fff}.st18{fill:none;stroke:#fff;stroke-width:7;stroke-miterlimit:10}</style><g id="patrol_2_"><g id="圖層_2_拷貝"><g id="patrol"><path id="XMLID_23_" class="st5" d="m81.4 87.3-5.7-4.5c-2.6 10.7-12.2 18.6-23.7 18.6-13.5 0-24.4-10.9-24.4-24.4h-10c0 19.1 15.4 34.5 34.5 34.5 16.8 0 30.7-12 33.8-27.8l-4.5 3.6z"/><path id="XMLID_22_" class="st5" d="m85.9 83.7 8.4-6.7h-7.9c0-19.1-15.4-34.5-34.5-34.5-16.8 0-30.7 12-33.8 27.8l4.5-3.6 5.7 4.5C30.9 60.5 40.5 52.6 52 52.6c13.5 0 24.4 10.9 24.4 24.4h-7.7l7.2 5.7 5.7 4.5 4.3-3.5z"/><path id="XMLID_21_" class="st5" d="M18.1 70.3 9.7 77H35.4l-7.2-5.7-5.6-4.6z"/></g><path id="XMLID_31_" class="st5" d="m7.7 75 2 2 2.5-2H7.7"/><path id="XMLID_33_" class="st5" d="m35.4 77-2-2h-.5z"/><path id="XMLID_34_" class="st5" d="m68.6 77-2-2 2.5 2z"/><path id="XMLID_35_" class="st5" d="m94.3 77-2-2-2.5 2z"/></g><g id="圖層_2_拷貝_2"><g id="patrol_3_"><path id="XMLID_114_" class="st6" d="m79.4 85.3-5.7-4.5C71.1 91.5 61.5 99.4 50 99.4c-13.5 0-24.4-10.9-24.4-24.4h-10c0 19.1 15.4 34.5 34.5 34.5 16.8 0 30.7-12 33.8-27.8l-4.5 3.6z"/><path id="XMLID_113_" d="m83.9 81.7 8.4-6.7h-7.9c0-19.1-15.4-34.5-34.5-34.5-16.8 0-30.7 12-33.8 27.8l4.5-3.6 5.7 4.5C28.9 58.5 38.5 50.6 50 50.6c13.5 0 24.4 10.9 24.4 24.4h-7.7l7.2 5.7 5.7 4.5 4.3-3.5z" style="fill:#1c75bc"/><path id="XMLID_112_" class="st6" d="M16.1 68.3 7.7 75H33.4l-7.2-5.7-5.6-4.6z"/></g></g></g></svg>