<svg version="1.0" id="圖層_1" xmlns="http://www.w3.org/2000/svg" x="0" y="0" width="300" height="260" style="enable-background:new 0 0 300 260" xml:space="preserve"><style>.st0{display:none}.st1{display:inline}.st2{fill:#303030}.st4{opacity:.2;fill:#fff}.st5{fill:#414042}.st11{opacity:.3}.st12{fill:#e2e2e2}.st13{fill:none;stroke:#414042;stroke-miterlimit:10}.st14{opacity:.3;fill:#e2e2e2}.st15,.st16{opacity:.3;fill:#9b9a9a}.st16{fill:#414042}.st20,.st21{opacity:.5}.st21{fill:#e2e2e2}.st22,.st23{opacity:.5;fill:#9b9a9a}.st23{fill:#414042}.st27,.st28{opacity:.75}.st28{fill:#e2e2e2}.st29,.st30{opacity:.75;fill:#9b9a9a}.st30{fill:#414042}.st34{fill:#9b9a9a}</style><g id="turrel4"><g id="cannon_-_copie"><g id="long_-_copie"><path id="XMLID_11_" class="st2" d="M132.2 33.3H167v65.4h-34.8z"/><radialGradient id="XMLID_43_" cx="149.603" cy="-16188.064" r="25.508" gradientTransform="matrix(1 0 0 -1 0 -16122)" gradientUnits="userSpaceOnUse"><stop offset="0" style="stop-color:#d6d5d5"/><stop offset=".321" style="stop-color:#d4d3d2"/><stop offset=".542" style="stop-color:#cccaca"/><stop offset=".732" style="stop-color:#bebdbd"/><stop offset=".903" style="stop-color:#acabab"/><stop offset="1" style="stop-color:#9f9e9e"/></radialGradient><path id="XMLID_10_" style="fill:url(#XMLID_43_)" d="M134.4 33.3h30.4v65.4h-30.4z"/><path id="XMLID_9_" class="st4" d="M157.2 41.9h7.6v51.5h-7.6z"/></g><g id="bottom_-_copie"><path id="XMLID_6_" class="st5" d="M119.3 93.5H180v12.2h-60.7z"/><radialGradient id="XMLID_44_" cx="149.653" cy="-16221.897" r="20.082" gradientTransform="matrix(1 0 0 -1 0 -16122)" gradientUnits="userSpaceOnUse"><stop offset="0" style="stop-color:#d6d5d5"/><stop offset=".321" style="stop-color:#d4d3d2"/><stop offset=".542" style="stop-color:#cccaca"/><stop offset=".732" style="stop-color:#bebdbd"/><stop offset=".903" style="stop-color:#acabab"/><stop offset="1" style="stop-color:#9f9e9e"/></radialGradient><path id="XMLID_5_" style="fill:url(#XMLID_44_)" d="M121.6 95.4h56.1v8.9h-56.1z"/><path id="XMLID_4_" class="st4" d="M122.6 101.8h54.1v2.4h-54.1z"/></g><g id="top_-_copie"><path id="XMLID_3_" class="st2" d="M124.9 27.9h50.6v21.7h-50.6z"/><radialGradient id="XMLID_45_" cx="150.203" cy="-16160.73" r="17.269" gradientTransform="matrix(1 0 0 -1 0 -16122)" gradientUnits="userSpaceOnUse"><stop offset="0" style="stop-color:#d6d5d5"/><stop offset=".321" style="stop-color:#d4d3d2"/><stop offset=".542" style="stop-color:#cccaca"/><stop offset=".732" style="stop-color:#bebdbd"/><stop offset=".903" style="stop-color:#acabab"/><stop offset="1" style="stop-color:#9f9e9e"/></radialGradient><path id="XMLID_2_" style="fill:url(#XMLID_45_)" d="M127.2 30.4h45.9V47h-45.9z"/><path id="XMLID_1_" class="st4" d="M128.3 42.4h43.9V46h-43.9z"/></g></g><g id="圖層_5"><g id="XMLID_463_" class="st11"><path id="XMLID_476_" class="st12" d="M50.5 36c-.6 0-1.3-.2-1.9-.5-1.7-.9-3.8-2.7-4.2-4.8-.2-.8 0-1.6.4-2.3-.1-.1-.2-.2-.3-.4-.7-.8-1.6-1.9-1.2-3.7.4-1.8 2-2.6 3.1-3 0-1 .3-2.6 1.3-4 .7-.9 1.8-1.4 3.2-1.4.6 0 1.1.1 1.5.2.5-.5 1.5-1.2 2.9-1.2.2 0 .5 0 .7.1 1.2.2 2 .8 2.4 1.4.4-.1.9-.3 1.5-.3.9 0 2.6.3 3.4 2.6 1.4 3.6-.3 5.7-.6 6.1-.3.3-1.6 2-3.3 2-.2 1.1-.8 2.3-1.7 3.3 0 1.7-1.1 3.1-1.2 3.3-.1.1-.8.9-2 .9-.2 0-.4 0-.6-.1-.8 1-2 1.8-3.4 1.8z"/><path id="XMLID_475_" class="st13" d="M50.5 36c-.6 0-1.3-.2-1.9-.5-1.7-.9-3.8-2.7-4.2-4.8-.2-.8 0-1.6.4-2.3-.1-.1-.2-.2-.3-.4-.7-.8-1.6-1.9-1.2-3.7.4-1.8 2-2.6 3.1-3 0-1 .3-2.6 1.3-4 .7-.9 1.8-1.4 3.2-1.4.6 0 1.1.1 1.5.2.5-.5 1.5-1.2 2.9-1.2.2 0 .5 0 .7.1 1.2.2 2 .8 2.4 1.4.4-.1.9-.3 1.5-.3.9 0 2.6.3 3.4 2.6 1.4 3.6-.3 5.7-.6 6.1-.3.3-1.6 2-3.3 2-.2 1.1-.8 2.3-1.7 3.3 0 1.7-1.1 3.1-1.2 3.3-.1.1-.8.9-2 .9-.2 0-.4 0-.6-.1-.8 1-2 1.8-3.4 1.8z"/></g><path id="XMLID_462_" class="st14" d="M47.4 22.2s-.3-2.3 1.1-4.1c1.3-1.8 4.2-.7 4.2-.7s1.1-1.7 3.1-1.3c2 .4 2.1 1.7 2.1 1.7s3.2-2 4.5 1.4c1.3 3.4-.5 5.1-.5 5.1s-1.8 2.5-3.5 1.4c.2.9-.4 2.7-1.8 4.2.2 1.5-1 3-1 3s-1 1.2-2.2.2c-.3.8-2 2.8-4.4 1.6-2.3-1.2-4.9-4.2-3-6.2-.7-1.2-2.2-1.9-1.8-3.9.5-2 3.2-2.4 3.2-2.4z"/><path id="XMLID_461_" class="st15" d="M49.3 31.2c-.7-1.2-2.2-1.9-1.8-3.9.4-1.9 3.1-2.4 3.1-2.4s-.3-2.3 1.1-4.1 4.2-.7 4.2-.7 1.1-1.7 3.1-1.3c2 .4 2.1 1.7 2.1 1.7s.7-.4 1.5-.5c-.1-.3-.1-.5-.3-.8-1.3-3.4-4.5-1.4-4.5-1.4s-.1-1.4-2.1-1.7c-2-.4-3.1 1.3-3.1 1.3s-2.8-1.1-4.2.7-1.1 4.1-1.1 4.1-2.7.5-3.1 2.4c-.4 1.9 1.1 2.6 1.8 3.9-1.9 2 .7 5.1 3 6.2.1.1.2.1.3.1-.7-1.2-1-2.5 0-3.6z"/><path id="XMLID_460_" class="st16" d="M51.9 26.4s-.6-3.8 2.4-4.6c3-.8 4.9 1.1 4.9 1.1s-5.5-1.6-7.3 3.5z"/></g><g id="圖層_5_拷貝"><g id="XMLID_493_" class="st11"><path id="XMLID_496_" class="st12" d="M248.1 36.4c-1.4 0-2.6-.8-3.3-1.7-.2.1-.4.1-.6.1-1.1 0-1.9-.8-2-.9-.1-.2-1.3-1.6-1.3-3.3-.9-1-1.5-2.2-1.7-3.3-1.7-.1-3-1.7-3.3-2-.4-.4-2-2.5-.6-6.1.9-2.3 2.5-2.6 3.4-2.6.6 0 1.1.1 1.5.3.4-.6 1.2-1.2 2.4-1.4.3 0 .5-.1.7-.1 1.4 0 2.3.7 2.9 1.2.4-.1.9-.2 1.5-.2 1.4 0 2.4.5 3.2 1.4 1 1.4 1.3 3 1.3 4 1 .4 2.7 1.2 3.1 3 .4 1.8-.5 2.9-1.2 3.7-.1.1-.2.2-.3.4.4.7.5 1.5.4 2.3-.4 2.1-2.4 4-4.2 4.8-.6.3-1.3.4-1.9.4z"/><path id="XMLID_495_" class="st13" d="M248.1 36.4c-1.4 0-2.6-.8-3.3-1.7-.2.1-.4.1-.6.1-1.1 0-1.9-.8-2-.9-.1-.2-1.3-1.6-1.3-3.3-.9-1-1.5-2.2-1.7-3.3-1.7-.1-3-1.7-3.3-2-.4-.4-2-2.5-.6-6.1.9-2.3 2.5-2.6 3.4-2.6.6 0 1.1.1 1.5.3.4-.6 1.2-1.2 2.4-1.4.3 0 .5-.1.7-.1 1.4 0 2.3.7 2.9 1.2.4-.1.9-.2 1.5-.2 1.4 0 2.4.5 3.2 1.4 1 1.4 1.3 3 1.3 4 1 .4 2.7 1.2 3.1 3 .4 1.8-.5 2.9-1.2 3.7-.1.1-.2.2-.3.4.4.7.5 1.5.4 2.3-.4 2.1-2.4 4-4.2 4.8-.6.3-1.3.4-1.9.4z"/></g><path id="XMLID_492_" class="st14" d="M251.2 22.6s.3-2.3-1.1-4.1c-1.3-1.8-4.2-.7-4.2-.7s-1.1-1.7-3.1-1.3c-2 .4-2.1 1.7-2.1 1.7s-3.3-2-4.5 1.4.5 5.1.5 5.1 1.8 2.5 3.5 1.4c-.2.9.4 2.7 1.8 4.2-.2 1.5 1 3 1 3s1 1.2 2.2.2c.3.8 2 2.8 4.4 1.6 2.3-1.2 4.9-4.2 3-6.2.7-1.2 2.2-1.9 1.8-3.9-.5-2-3.2-2.4-3.2-2.4z"/><path id="XMLID_491_" class="st15" d="M249.3 31.6c.7-1.2 2.2-1.9 1.8-3.9s-3.1-2.4-3.1-2.4.3-2.3-1.1-4.1c-1.3-1.8-4.2-.7-4.2-.7s-1.1-1.7-3.1-1.3c-2 .4-2.1 1.7-2.1 1.7s-.7-.4-1.5-.5c.1-.3.1-.5.3-.8 1.3-3.4 4.5-1.4 4.5-1.4s.1-1.4 2.1-1.7c2-.4 3.1 1.3 3.1 1.3s2.8-1.1 4.2.7 1.1 4.1 1.1 4.1 2.7.5 3.1 2.4c.4 1.9-1.1 2.6-1.8 3.9 1.9 2-.7 5.1-3 6.2-.1.1-.2.1-.3.1.7-1.2 1-2.6 0-3.6z"/><path id="XMLID_490_" class="st16" d="M246.7 26.7s.6-3.8-2.4-4.6c-3-.8-4.9 1.1-4.9 1.1s5.5-1.5 7.3 3.5z"/></g></g></svg>