<svg version="1.0" xmlns="http://www.w3.org/2000/svg" viewBox="0 0 100 150" style="enable-background:new 0 0 100 150" xml:space="preserve"><path d="M83.9 94c-1-2.5-6.3-15.6-7.3-18-.2-.5-.5-.9-.9-1.3-.5-.5-1.2-1-2.3-1.1-3.2-.2-4.7-.3-5.5-.7-.8-.5-.8-1.4-.5-2.6.2-1.1 1-8.4 1.2-10.2v-.9c-.3-2.4-1.9-12.9-9.4-16.6-2.6-1.3-11.8-1.3-14.4 0-7.5 3.7-9.2 14.2-9.4 16.6v.9c.2 1.8 1 9.1 1.2 10.2.2 1.2.2 2.2-.5 2.6-.8.5-2.3.5-5.5.7-1 .1-1.8.6-2.3 1.1-.4.4-.7.8-.9 1.3-1 2.4-6.3 15.5-7.3 18-1 2.7-.6 5.3 1.5 7.4 1 1.1 3.5 1.3 5.8 1.2 2.3 0 4.1-2 3.9-4.3-.3-5.1-.8-13.4-.9-14.7-.1-1.1.8-1.6 1.4-1.8.4-.1.7-.2 1.1-.2h38.2c.4 0 .8 0 1.1.2.7.2 1.5.7 1.4 1.8-.1 1.3-.6 9.6-.9 14.7-.1 2.3 1.6 4.2 3.9 4.3 2.2 0 4.7-.2 5.8-1.2 2.1-2.1 2.5-4.7 1.5-7.4zM57.4 68.1l.4 8.6c-.1 0-2.2.7-5.5.8-3.3.1-5.1-.8-5.2-.8l.3-8.4c-8.3-3.7-7.2-14-7.2-14.1 0 0 1.9-3.3 11.6-3.6 9.7-.2 12.7 3.9 12.7 3.9 1.5 10.2-7 13.6-7.1 13.6z" style="fill:none;stroke:#96d5df;stroke-width:8;stroke-miterlimit:10"/><radialGradient id="a" cx="51.997" cy="72.138" r="31.473" gradientUnits="userSpaceOnUse"><stop offset="0" style="stop-color:#005a6a"/><stop offset=".335" style="stop-color:#005869"/><stop offset=".567" style="stop-color:#005367"/><stop offset=".769" style="stop-color:#004a62"/><stop offset=".952" style="stop-color:#003e5c"/><stop offset="1" style="stop-color:#003a5a"/></radialGradient><path d="M83.9 94c-1-2.5-6.3-15.6-7.3-18-.2-.5-.5-.9-.9-1.3-.5-.5-1.2-1-2.3-1.1-3.2-.2-4.7-.3-5.5-.7-.8-.5-.8-1.4-.5-2.6.2-1.1 1-8.4 1.2-10.2v-.9c-.3-2.4-1.9-12.9-9.4-16.6-2.6-1.3-11.8-1.3-14.4 0-7.5 3.7-9.2 14.2-9.4 16.6v.9c.2 1.8 1 9.1 1.2 10.2.2 1.2.2 2.2-.5 2.6-.8.5-2.3.5-5.5.7-1 .1-1.8.6-2.3 1.1-.4.4-.7.8-.9 1.3-1 2.4-6.3 15.5-7.3 18-1 2.7-.6 5.3 1.5 7.4 1 1.1 3.5 1.3 5.8 1.2 2.3 0 4.1-2 3.9-4.3-.3-5.1-.8-13.4-.9-14.7-.1-1.1.8-1.6 1.4-1.8.4-.1.7-.2 1.1-.2h38.2c.4 0 .8 0 1.1.2.7.2 1.5.7 1.4 1.8-.1 1.3-.6 9.6-.9 14.7-.1 2.3 1.6 4.2 3.9 4.3 2.2 0 4.7-.2 5.8-1.2 2.1-2.1 2.5-4.7 1.5-7.4zM57.4 68.1l.4 8.6c-.1 0-2.2.7-5.5.8-3.3.1-5.1-.8-5.2-.8l.3-8.4c-8.3-3.7-7.2-14-7.2-14.1 0 0 1.9-3.3 11.6-3.6 9.7-.2 12.7 3.9 12.7 3.9 1.5 10.2-7 13.6-7.1 13.6z" style="fill:url(#a)"/><path d="m32.5 102.6-1.2-16.9c-.1-1.7 1.3-3.2 3.1-3.2h35.2c1.8 0 3.2 1.5 3.1 3.2l-1.1 16.9c-.1 1.6-1.4 2.8-3.1 2.8h-33c-1.6-.1-2.9-1.3-3-2.8z" style="fill:#636464"/><linearGradient id="b" gradientUnits="userSpaceOnUse" x1="51.983" y1="83.903" x2="51.983" y2="104.464"><stop offset="0" style="stop-color:#fff"/><stop offset="1" style="stop-color:#000"/></linearGradient><path d="M66.6 104.5H37.4c-2.4 0-4.3-2-4.3-4.3v-12c0-2.4 2-4.3 4.3-4.3h29.2c2.4 0 4.3 2 4.3 4.3v11.9c0 2.4-1.9 4.4-4.3 4.4z" style="opacity:.25;fill:url(#b)"/></svg>