<svg version="1.0" xmlns="http://www.w3.org/2000/svg" viewBox="0 0 100 150" style="enable-background:new 0 0 100 150" xml:space="preserve"><style>.st1{display:inline;enable-background:new}.st2{fill:#e45d2a}.st4{fill:#f58d48}.st5{enable-background:new}</style><g id="Calque_1_-_copie"><g id="XMLID_14_" class="st5"><path id="XMLID_24_" d="M77.9 82.4c-.5-6.6-2.9-13.2-7.5-18-2.3-2.4-5.2-4.4-6.8-7.4-1.6-2.9 1.7-10.4 4.7-11.9-7.3 1.4-10.2 7.2-12 10.8-.4-2.5-1.1-3-2.7-5-2.8-3.6-5.8-9.2-3.1-12.9 2.1-2.9 4.2-7.3 7.9-12.5-2.7 3.8-2.5 2.2-12.1 7.6-4 2.2-6.4 3.9-7 5.3-1.3 3.1 1.1 8.7 1.5 12 .5 4-1.8 9.6-.1 13.2.7 1.6 2.1 2.8 2.9 4.4.8 1.5 1 3.7-.3 4.8-.7.6-1.8.8-2.8.9-2.4.2-5.4 0-6.4-2.1-.4-.7-.4-1.6-.5-2.4-.6-4.3-.8-11.7-5.1-11.4 1.2 2.7 1.1 5.9.5 8.8-.5 2.3-3.8 7-5.1 8.9-4.1 5.8-7.1 12.7-6.9 19.9.4 10.5 8.7 20.2 19.1 22.2l.2-.2c-5.7-3.6-9.6-10-9.6-17.2 0-11.2 9.1-20.3 20.3-20.3s20.3 9.1 20.3 20.3c0 4.9-1.7 9.4-4.6 12.9 2.3-1.9 4.4-3.9 6.4-6.1 4.1-4.7 7.3-10.4 8.5-16.6.4-2.5.5-5.3.3-8z" style="fill:#6b3333"/></g><g id="XMLID_10_" class="st5"><path id="XMLID_38_" class="st2" d="M80.9 79.4c-.5-6.6-2.9-13.2-7.5-18-2.3-2.4-5.2-4.4-6.8-7.4-1.6-2.9-1.3-7.4 1.7-8.9-3.7 1.6-5.9 5.5-7.7 9.1-.4-2.5-2.5-4.3-4-6.3-2.8-3.6-5.8-9.2-3.1-12.9 2.1-2.9 4.4-6.1 6-12.2-1.5 5.6-9.2 8.7-14.2 13-1.1.9-2.3 2-2.9 3.3-1.3 3.1.6 6.5.9 9.8.5 4-1.3 8.3.3 11.9.7 1.6 2.1 2.8 2.9 4.4.8 1.5 1 3.7-.3 4.8-.7.6-1.8.8-2.8.9-2.4.2-5.4 0-6.4-2.1-.4-.7-.4-1.6-.5-2.4-.6-4.3-3.8-8.7-8.1-8.4 1.2 2.7 2.3 5.7 1.7 8.6-.5 2.3-2 4.1-3.4 6-4.1 5.8-7.1 12.7-6.9 19.9.4 10.5 8.7 20.2 19.1 22.2l.2-.2c-5.7-3.6-9.6-10-9.6-17.2 0-11.2 9.1-20.3 20.3-20.3s20.3 9.1 20.3 20.3c0 4.9-1.7 9.4-4.6 12.9 2.3-1.9 4.4-3.9 6.4-6.1 4.1-4.7 7.3-10.4 8.5-16.6.6-2.6.7-5.4.5-8.1z"/></g><g id="XMLID_5_" style="opacity:.5;enable-background:new"><path id="XMLID_39_" class="st4" d="M80.9 79.4c-.5-6.6-2.9-13.2-7.5-18-1-1-2.1-2-3.1-3-.6.1-1.1.1-1.7.2-4.9.7-10.5 1.9-13.1 6.1-1.1 1.8-1.5 4.1-2.8 5.8-2.5 3.2-7.3 3.3-11.4 3.3-4.1-.1-9 .5-11 4-1.4 2.4-1 5.7-2.9 7.8-1.4 1.5-3.5 1.9-5.3 2.8-.9.5-1.7 1.1-2.4 1.7-.1.8-.1 1.6 0 2.4.4 10.5 8.7 20.2 19.1 22.2l.2-.2c-5.7-3.6-9.6-10-9.6-17.2 0-11.2 9.1-20.3 20.3-20.3S70 86.1 70 97.3c0 4.9-1.7 9.4-4.6 12.9 2.3-1.9 4.4-3.9 6.4-6.1 4.1-4.7 7.3-10.4 8.5-16.6.7-2.6.8-5.4.6-8.1z"/></g></g><g id="Calque_3"><circle id="XMLID_4_" cx="49.9" cy="99.5" r="25.2" style="fill:#eac01e"/><circle id="XMLID_3_" cx="49.9" cy="99.5" r="20.5" style="opacity:.62;fill:#e8af2a;enable-background:new"/><path id="XMLID_2_" style="fill:#030404" d="m53.9 80.7-19.1 21.7h13.9l-3.3 15.9L65 96.8H50.4z"/></g></svg>