<svg version="1.0" id="Calque_1" xmlns="http://www.w3.org/2000/svg" x="0" y="0" width="150" height="100" viewBox="0 0 100 150" style="enable-background:new 0 0 100 150" xml:space="preserve"><style>.st0{fill:#e8af28}.st1{fill:#e8c01f}</style><g id="zoom_-_copie"><g id="Calque_28_-_copie_4_1_"><path id="XMLID_456_" class="st0" d="M25.3 84.9V74c0-.9.7-1.6 1.6-1.6h47.3c.9 0 1.6.7 1.6 1.6v10.9c0 .9-.7 1.6-1.6 1.6H26.9c-.9 0-1.6-.7-1.6-1.6z"/><path id="XMLID_455_" class="st0" d="M56 104.7H45c-.9 0-1.6-.7-1.6-1.6V55.8c0-.9.7-1.6 1.6-1.6h11c.9 0 1.6.7 1.6 1.6v47.3c-.1.9-.7 1.6-1.6 1.6z"/><path id="XMLID_454_" class="st0" d="m47 51.7-3.1 3.1 4-.6-.9-2.5"/><path id="XMLID_453_" class="st0" d="m28.7 70-3 3h2.4l.6-3"/><path id="XMLID_452_" class="st0" d="m60 101.3-2.8 2.8V101l2.8.3"/><path id="XMLID_447_" class="st0" d="m78.3 83-2.9 2.9v-3.1l2.9.2"/></g><g id="Calque_28_-_copie_4"><path id="XMLID_440_" class="st1" d="M28.2 82V71.1c0-.9.7-1.6 1.6-1.6h47.3c.9 0 1.6.7 1.6 1.6V82c0 .9-.7 1.6-1.6 1.6H29.8c-.9 0-1.6-.7-1.6-1.6z"/><path id="XMLID_439_" class="st1" d="M58.9 101.8H48c-.9 0-1.6-.7-1.6-1.6V52.9c0-.9.7-1.6 1.6-1.6h10.9c.9 0 1.6.7 1.6 1.6v47.3c0 .9-.7 1.6-1.6 1.6z"/></g></g></svg>