<svg version="1.0" xmlns="http://www.w3.org/2000/svg" viewBox="0 0 100 150" style="enable-background:new 0 0 100 150" xml:space="preserve"><style>.st1{fill:#50a5db}.st2{fill:#fff}</style><g id="Calque_52"><g id="speed"><g id="Calque_4"><path id="XMLID_11_" class="st1" d="M52.5 71.9c-5 0-9 4-9 9s4 9 9 9 9-4 9-9-4-9-9-9zm0 12.8c-2.1 0-3.8-1.7-3.8-3.8 0-2.1 1.7-3.8 3.8-3.8s3.8 1.7 3.8 3.8c0 2.1-1.7 3.8-3.8 3.8z"/><path id="XMLID_3_" class="st1" d="M53.9 68.1h-3c-1.3 0-4.2-2.9-4.2-4.3l2-17.3c0-1.3 1.1-2.4 2.4-2.4l.7-2c1.3 0 4.4 1.6 4.4 2.9v20.7c.1 1.3-1 2.4-2.3 2.4z"/><path id="XMLID_5_" class="st1" d="m60.7 87.2 3.6-1.1c.7-1.2 2.2-1.6 3.3-.9L82 92.7l2 1.3c1.2.7 1.8 3.1 1.1 4.2l-1.4 2.4c-.7 1.2-2.2 1.6-3.3.9l-16.6-9.6c-1.1-.8-3.7-2-3.1-4.7z"/><path id="XMLID_4_" class="st1" d="m41 86.5 1.4 2.3c.7 1.1.4 2.6-.8 3.4l-16.3 10.2c-1.7 1.2-4.4-1.3-5.1-2.5l-.9-1.3c-.7-1.1.8-1.9 2-2.6l15.5-12.3c1.2-.8 3.4 1.7 4.2 2.8z"/></g><g id="Calque_4_-_copie"><path id="XMLID_10_" class="st2" d="M50.5 69.9c-5 0-9 4-9 9s4 9 9 9 9-4 9-9-4-9-9-9zm0 12.8c-2.1 0-3.8-1.7-3.8-3.8 0-2.1 1.7-3.8 3.8-3.8s3.8 1.7 3.8 3.8c0 2.1-1.7 3.8-3.8 3.8z"/><path id="XMLID_7_" class="st2" d="M51.9 66.1h-2.7c-1.3 0-2.4-1.1-2.4-2.4V44.4c0-1.3 1.1-2.4 2.4-2.4h2.7c1.3 0 2.4 1.1 2.4 2.4v19.2c0 1.4-1.1 2.5-2.4 2.5z"/><path id="XMLID_6_" class="st2" d="m60.9 86.5 1.4-2.4c.7-1.2 2.2-1.6 3.3-.9l16.6 9.6c1.2.7 1.6 2.2.9 3.3l-1.4 2.4c-.7 1.2-2.2 1.6-3.3.9l-16.6-9.6c-1.1-.7-1.5-2.2-.9-3.3z"/><path id="XMLID_2_" class="st2" d="m39 84.5 1.4 2.3c.7 1.1.4 2.6-.8 3.4l-16.3 10.2c-1.1.7-2.6.4-3.4-.8l-1.4-2.3c-.7-1.1-.4-2.6.8-3.4l16.3-10.2c1.1-.7 2.6-.3 3.4.8z"/></g></g></g></svg>