<svg version="1.0" id="Calque_1" xmlns="http://www.w3.org/2000/svg" x="0" y="0" viewBox="0 0 36 36" style="enable-background:new 0 0 36 36" xml:space="preserve"><style>.st0{display:none}.st2,.st3{fill:none;stroke:#fff;stroke-miterlimit:10}.st2{display:inline}.st3{stroke-width:.75}</style><g id="tank"><g id="圖層_22_2_"><path id="XMLID_32_" class="st3" d="M28.4 26.6h1.2c.2 0 .4-.2.4-.4V10.5c0-.2-.2-.4-.4-.4h-1.2v16.5z"/><path id="XMLID_31_" class="st3" d="M7.5 26.7h-1c-.2 0-.4-.2-.4-.4V10.6c0-.2.2-.4.4-.4h1.1v16.5z"/></g><path id="XMLID_30_" class="st3" d="M24.2 26.7h-1.6v-.6h-2.2v.6h-4.2v-.6h-2.1v.6h-2.3.1v-2.6h12.3z"/><path id="XMLID_29_" class="st3" d="M11.9 10.2h4.2V7.8h3.8v2.4h4.3v14.6H11.9z"/><path id="XMLID_28_" class="st3" d="M27.9 27.8h-3.4c-.2 0-.4-.2-.4-.4V9.6c0-.2.2-.4.4-.4h3.4c.2 0 .4.2.4.4v17.8c.1.2-.1.4-.4.4z"/><path id="XMLID_27_" class="st3" d="M7.6 27.7c-.1-.1-.1-.2-.1-.4V9.5c0-.3.3-.5.6-.5h3.4c.3 0 .5.3.5.5v17.8c0 .3-.3.5-.5.5H8.1s-.4 0-.5-.1z"/><path id="XMLID_26_" class="st3" d="M12.2 10.2h3.9V7.8h3.8v2.4h4"/><g id="upside_2_"><path id="XMLID_23_" class="st3" d="m15.2 20.9-1.3-1.5c-.4-.5-.4-1.3 0-1.9l1.3-1.5c.2-.3.6-.4.9-.4h3.8c.4 0 .7.2.9.4l1.3 1.5c.4.5.4 1.3 0 1.9l-1.3 1.5c-.2.3-.6.4-.9.4h-3.8c-.4 0-.7-.1-.9-.4z"/><path id="XMLID_22_" class="st3" d="M16.1 7.8H20v5.8h-3.9z"/><path id="XMLID_20_" class="st3" d="M15.4 13.6h5.2v1.9h-5.2z"/><path id="XMLID_19_" class="st3" d="M15.3 5.8h5.5v2h-5.5z"/></g></g></svg>