<?xml version="1.0" encoding="utf-8"?>
<!-- Generator: Adobe Illustrator 19.0.0, SVG Export Plug-In . SVG Version: 6.00 Build 0)  -->
<svg version="1.0" id="圖層_1" xmlns="http://www.w3.org/2000/svg" xmlns:xlink="http://www.w3.org/1999/xlink" x="0px" y="0px" width="300px" height="260px"
	 viewBox="0 0 300 260" style="enable-background:new 0 0 300 260;" xml:space="preserve">
<style type="text/css">
	.st0{display:none;}
	.st1{display:inline;}
	.st2{fill:#303030;}
	.st3{fill:url(#XMLID_40_);}
	.st4{opacity:0.2;fill:#FFFFFF;}
	.st5{fill:#414042;}
	.st6{fill:url(#XMLID_41_);}
	.st7{fill:url(#XMLID_42_);}
	.st8{fill:url(#XMLID_43_);}
	.st9{fill:url(#XMLID_44_);}
	.st10{fill:url(#XMLID_45_);}
	.st11{opacity:0.3;}
	.st12{fill:#E2E2E2;}
	.st13{fill:none;stroke:#414042;stroke-miterlimit:10;}
	.st14{opacity:0.3;fill:#E2E2E2;}
	.st15{opacity:0.3;fill:#9B9A9A;}
	.st16{opacity:0.3;fill:#414042;}
	.st17{fill:url(#XMLID_46_);}
	.st18{fill:url(#XMLID_47_);}
	.st19{fill:url(#XMLID_48_);}
	.st20{opacity:0.5;}
	.st21{opacity:0.5;fill:#E2E2E2;}
	.st22{opacity:0.5;fill:#9B9A9A;}
	.st23{opacity:0.5;fill:#414042;}
	.st24{fill:url(#XMLID_49_);}
	.st25{fill:url(#XMLID_50_);}
	.st26{fill:url(#XMLID_51_);}
	.st27{opacity:0.75;}
	.st28{opacity:0.75;fill:#E2E2E2;}
	.st29{opacity:0.75;fill:#9B9A9A;}
	.st30{opacity:0.75;fill:#414042;}
	.st31{fill:url(#XMLID_52_);}
	.st32{fill:url(#XMLID_54_);}
	.st33{fill:url(#XMLID_56_);}
	.st34{fill:#9B9A9A;}
</style>
<g id="cannon" class="st0">
	<g id="long" class="st1">
		<rect id="XMLID_53_" x="132.2" y="33.3" class="st2" width="34.8" height="65.4"/>
		
			<radialGradient id="XMLID_40_" cx="149.6031" cy="-16188.0635" r="25.5075" gradientTransform="matrix(1 0 0 -1 0 -16122)" gradientUnits="userSpaceOnUse">
			<stop  offset="0" style="stop-color:#D6D5D5"/>
			<stop  offset="0.3213" style="stop-color:#D4D3D2"/>
			<stop  offset="0.5416" style="stop-color:#CCCACA"/>
			<stop  offset="0.7315" style="stop-color:#BEBDBD"/>
			<stop  offset="0.9032" style="stop-color:#ACABAB"/>
			<stop  offset="1" style="stop-color:#9F9E9E"/>
		</radialGradient>
		<rect id="XMLID_206_" x="134.4" y="33.3" class="st3" width="30.4" height="65.4"/>
		<rect id="XMLID_98_" x="157.2" y="41.9" class="st4" width="7.6" height="51.5"/>
	</g>
	<g id="bottom" class="st1">
		<rect id="XMLID_342_" x="119.3" y="93.5" class="st5" width="60.7" height="12.2"/>
		
			<radialGradient id="XMLID_41_" cx="149.6531" cy="-16221.8965" r="20.0824" gradientTransform="matrix(1 0 0 -1 0 -16122)" gradientUnits="userSpaceOnUse">
			<stop  offset="0" style="stop-color:#D6D5D5"/>
			<stop  offset="0.3213" style="stop-color:#D4D3D2"/>
			<stop  offset="0.5416" style="stop-color:#CCCACA"/>
			<stop  offset="0.7315" style="stop-color:#BEBDBD"/>
			<stop  offset="0.9032" style="stop-color:#ACABAB"/>
			<stop  offset="1" style="stop-color:#9F9E9E"/>
		</radialGradient>
		<rect id="XMLID_55_" x="121.6" y="95.4" class="st6" width="56.1" height="8.9"/>
		<rect id="XMLID_307_" x="122.6" y="101.8" class="st4" width="54.1" height="2.4"/>
	</g>
	<g id="top" class="st1">
		<rect id="XMLID_344_" x="124.9" y="21.9" class="st2" width="50.6" height="21.7"/>
		
			<radialGradient id="XMLID_42_" cx="150.2031" cy="-16154.7305" r="17.2694" gradientTransform="matrix(1 0 0 -1 0 -16122)" gradientUnits="userSpaceOnUse">
			<stop  offset="0" style="stop-color:#D6D5D5"/>
			<stop  offset="0.3213" style="stop-color:#D4D3D2"/>
			<stop  offset="0.5416" style="stop-color:#CCCACA"/>
			<stop  offset="0.7315" style="stop-color:#BEBDBD"/>
			<stop  offset="0.9032" style="stop-color:#ACABAB"/>
			<stop  offset="1" style="stop-color:#9F9E9E"/>
		</radialGradient>
		<rect id="XMLID_12_" x="127.2" y="24.4" class="st7" width="45.9" height="16.6"/>
		<rect id="XMLID_7_" x="128.3" y="36.4" class="st4" width="43.9" height="3.6"/>
	</g>
</g>
<g id="turrel4">
	<g id="cannon_-_copie">
		<g id="long_-_copie">
			<rect id="XMLID_11_" x="132.2" y="33.3" class="st2" width="34.8" height="65.4"/>
			
				<radialGradient id="XMLID_43_" cx="149.6031" cy="-16188.0635" r="25.5075" gradientTransform="matrix(1 0 0 -1 0 -16122)" gradientUnits="userSpaceOnUse">
				<stop  offset="0" style="stop-color:#D6D5D5"/>
				<stop  offset="0.3213" style="stop-color:#D4D3D2"/>
				<stop  offset="0.5416" style="stop-color:#CCCACA"/>
				<stop  offset="0.7315" style="stop-color:#BEBDBD"/>
				<stop  offset="0.9032" style="stop-color:#ACABAB"/>
				<stop  offset="1" style="stop-color:#9F9E9E"/>
			</radialGradient>
			<rect id="XMLID_10_" x="134.4" y="33.3" class="st8" width="30.4" height="65.4"/>
			<rect id="XMLID_9_" x="157.2" y="41.9" class="st4" width="7.6" height="51.5"/>
		</g>
		<g id="bottom_-_copie">
			<rect id="XMLID_6_" x="119.3" y="93.5" class="st5" width="60.7" height="12.2"/>
			
				<radialGradient id="XMLID_44_" cx="149.6531" cy="-16221.8965" r="20.0824" gradientTransform="matrix(1 0 0 -1 0 -16122)" gradientUnits="userSpaceOnUse">
				<stop  offset="0" style="stop-color:#D6D5D5"/>
				<stop  offset="0.3213" style="stop-color:#D4D3D2"/>
				<stop  offset="0.5416" style="stop-color:#CCCACA"/>
				<stop  offset="0.7315" style="stop-color:#BEBDBD"/>
				<stop  offset="0.9032" style="stop-color:#ACABAB"/>
				<stop  offset="1" style="stop-color:#9F9E9E"/>
			</radialGradient>
			<rect id="XMLID_5_" x="121.6" y="95.4" class="st9" width="56.1" height="8.9"/>
			<rect id="XMLID_4_" x="122.6" y="101.8" class="st4" width="54.1" height="2.4"/>
		</g>
		<g id="top_-_copie">
			<rect id="XMLID_3_" x="124.9" y="27.9" class="st2" width="50.6" height="21.7"/>
			
				<radialGradient id="XMLID_45_" cx="150.2031" cy="-16160.7305" r="17.2694" gradientTransform="matrix(1 0 0 -1 0 -16122)" gradientUnits="userSpaceOnUse">
				<stop  offset="0" style="stop-color:#D6D5D5"/>
				<stop  offset="0.3213" style="stop-color:#D4D3D2"/>
				<stop  offset="0.5416" style="stop-color:#CCCACA"/>
				<stop  offset="0.7315" style="stop-color:#BEBDBD"/>
				<stop  offset="0.9032" style="stop-color:#ACABAB"/>
				<stop  offset="1" style="stop-color:#9F9E9E"/>
			</radialGradient>
			<rect id="XMLID_2_" x="127.2" y="30.4" class="st10" width="45.9" height="16.6"/>
			<rect id="XMLID_1_" x="128.3" y="42.4" class="st4" width="43.9" height="3.6"/>
		</g>
	</g>
	<g id="圖層_5">
		<g id="XMLID_463_" class="st11">
			<path id="XMLID_476_" class="st12" d="M50.5,36c-0.6,0-1.3-0.2-1.9-0.5c-1.7-0.9-3.8-2.7-4.2-4.8c-0.2-0.8,0-1.6,0.4-2.3
				c-0.1-0.1-0.2-0.2-0.3-0.4c-0.7-0.8-1.6-1.9-1.2-3.7c0.4-1.8,2-2.6,3.1-3c0-1,0.3-2.6,1.3-4c0.7-0.9,1.8-1.4,3.2-1.4
				c0.6,0,1.1,0.1,1.5,0.2c0.5-0.5,1.5-1.2,2.9-1.2c0.2,0,0.5,0,0.7,0.1c1.2,0.2,2,0.8,2.4,1.4c0.4-0.1,0.9-0.3,1.5-0.3
				c0.9,0,2.6,0.3,3.4,2.6c1.4,3.6-0.3,5.7-0.6,6.1c-0.3,0.3-1.6,2-3.3,2c-0.2,1.1-0.8,2.3-1.7,3.3c0,1.7-1.1,3.1-1.2,3.3
				c-0.1,0.1-0.8,0.9-2,0.9c-0.2,0-0.4,0-0.6-0.1C53.1,35.2,51.9,36,50.5,36z"/>
			<path id="XMLID_475_" class="st13" d="M50.5,36c-0.6,0-1.3-0.2-1.9-0.5c-1.7-0.9-3.8-2.7-4.2-4.8c-0.2-0.8,0-1.6,0.4-2.3
				c-0.1-0.1-0.2-0.2-0.3-0.4c-0.7-0.8-1.6-1.9-1.2-3.7c0.4-1.8,2-2.6,3.1-3c0-1,0.3-2.6,1.3-4c0.7-0.9,1.8-1.4,3.2-1.4
				c0.6,0,1.1,0.1,1.5,0.2c0.5-0.5,1.5-1.2,2.9-1.2c0.2,0,0.5,0,0.7,0.1c1.2,0.2,2,0.8,2.4,1.4c0.4-0.1,0.9-0.3,1.5-0.3
				c0.9,0,2.6,0.3,3.4,2.6c1.4,3.6-0.3,5.7-0.6,6.1c-0.3,0.3-1.6,2-3.3,2c-0.2,1.1-0.8,2.3-1.7,3.3c0,1.7-1.1,3.1-1.2,3.3
				c-0.1,0.1-0.8,0.9-2,0.9c-0.2,0-0.4,0-0.6-0.1C53.1,35.2,51.9,36,50.5,36z"/>
		</g>
		<path id="XMLID_462_" class="st14" d="M47.4,22.2c0,0-0.3-2.3,1.1-4.1c1.3-1.8,4.2-0.7,4.2-0.7s1.1-1.7,3.1-1.3
			c2,0.4,2.1,1.7,2.1,1.7s3.2-2,4.5,1.4c1.3,3.4-0.5,5.1-0.5,5.1s-1.8,2.5-3.5,1.4c0.2,0.9-0.4,2.7-1.8,4.2c0.2,1.5-1,3-1,3
			s-1,1.2-2.2,0.2c-0.3,0.8-2,2.8-4.4,1.6c-2.3-1.2-4.9-4.2-3-6.2c-0.7-1.2-2.2-1.9-1.8-3.9C44.7,22.6,47.4,22.2,47.4,22.2z"/>
		<path id="XMLID_461_" class="st15" d="M49.3,31.2c-0.7-1.2-2.2-1.9-1.8-3.9c0.4-1.9,3.1-2.4,3.1-2.4s-0.3-2.3,1.1-4.1
			s4.2-0.7,4.2-0.7s1.1-1.7,3.1-1.3c2,0.4,2.1,1.7,2.1,1.7s0.7-0.4,1.5-0.5c-0.1-0.3-0.1-0.5-0.3-0.8c-1.3-3.4-4.5-1.4-4.5-1.4
			s-0.1-1.4-2.1-1.7c-2-0.4-3.1,1.3-3.1,1.3s-2.8-1.1-4.2,0.7s-1.1,4.1-1.1,4.1s-2.7,0.5-3.1,2.4c-0.4,1.9,1.1,2.6,1.8,3.9
			c-1.9,2,0.7,5.1,3,6.2c0.1,0.1,0.2,0.1,0.3,0.1C48.6,33.6,48.3,32.3,49.3,31.2z"/>
		<path id="XMLID_460_" class="st16" d="M51.9,26.4c0,0-0.6-3.8,2.4-4.6c3-0.8,4.9,1.1,4.9,1.1S53.7,21.3,51.9,26.4z"/>
	</g>
	<g id="圖層_5_拷貝">
		<g id="XMLID_493_" class="st11">
			<path id="XMLID_496_" class="st12" d="M248.1,36.4c-1.4,0-2.6-0.8-3.3-1.7c-0.2,0.1-0.4,0.1-0.6,0.1c-1.1,0-1.9-0.8-2-0.9
				c-0.1-0.2-1.3-1.6-1.3-3.3c-0.9-1-1.5-2.2-1.7-3.3c-1.7-0.1-3-1.7-3.3-2c-0.4-0.4-2-2.5-0.6-6.1c0.9-2.3,2.5-2.6,3.4-2.6
				c0.6,0,1.1,0.1,1.5,0.3c0.4-0.6,1.2-1.2,2.4-1.4c0.3,0,0.5-0.1,0.7-0.1c1.4,0,2.3,0.7,2.9,1.2c0.4-0.1,0.9-0.2,1.5-0.2
				c1.4,0,2.4,0.5,3.2,1.4c1,1.4,1.3,3,1.3,4c1,0.4,2.7,1.2,3.1,3c0.4,1.8-0.5,2.9-1.2,3.7c-0.1,0.1-0.2,0.2-0.3,0.4
				c0.4,0.7,0.5,1.5,0.4,2.3c-0.4,2.1-2.4,4-4.2,4.8C249.4,36.3,248.7,36.4,248.1,36.4L248.1,36.4z"/>
			<path id="XMLID_495_" class="st13" d="M248.1,36.4c-1.4,0-2.6-0.8-3.3-1.7c-0.2,0.1-0.4,0.1-0.6,0.1c-1.1,0-1.9-0.8-2-0.9
				c-0.1-0.2-1.3-1.6-1.3-3.3c-0.9-1-1.5-2.2-1.7-3.3c-1.7-0.1-3-1.7-3.3-2c-0.4-0.4-2-2.5-0.6-6.1c0.9-2.3,2.5-2.6,3.4-2.6
				c0.6,0,1.1,0.1,1.5,0.3c0.4-0.6,1.2-1.2,2.4-1.4c0.3,0,0.5-0.1,0.7-0.1c1.4,0,2.3,0.7,2.9,1.2c0.4-0.1,0.9-0.2,1.5-0.2
				c1.4,0,2.4,0.5,3.2,1.4c1,1.4,1.3,3,1.3,4c1,0.4,2.7,1.2,3.1,3c0.4,1.8-0.5,2.9-1.2,3.7c-0.1,0.1-0.2,0.2-0.3,0.4
				c0.4,0.7,0.5,1.5,0.4,2.3c-0.4,2.1-2.4,4-4.2,4.8C249.4,36.3,248.7,36.4,248.1,36.4L248.1,36.4z"/>
		</g>
		<path id="XMLID_492_" class="st14" d="M251.2,22.6c0,0,0.3-2.3-1.1-4.1c-1.3-1.8-4.2-0.7-4.2-0.7s-1.1-1.7-3.1-1.3
			c-2,0.4-2.1,1.7-2.1,1.7s-3.3-2-4.5,1.4s0.5,5.1,0.5,5.1s1.8,2.5,3.5,1.4c-0.2,0.9,0.4,2.7,1.8,4.2c-0.2,1.5,1,3,1,3
			s1,1.2,2.2,0.2c0.3,0.8,2,2.8,4.4,1.6c2.3-1.2,4.9-4.2,3-6.2c0.7-1.2,2.2-1.9,1.8-3.9C253.9,23,251.2,22.6,251.2,22.6z"/>
		<path id="XMLID_491_" class="st15" d="M249.3,31.6c0.7-1.2,2.2-1.9,1.8-3.9s-3.1-2.4-3.1-2.4s0.3-2.3-1.1-4.1
			c-1.3-1.8-4.2-0.7-4.2-0.7s-1.1-1.7-3.1-1.3c-2,0.4-2.1,1.7-2.1,1.7s-0.7-0.4-1.5-0.5c0.1-0.3,0.1-0.5,0.3-0.8
			c1.3-3.4,4.5-1.4,4.5-1.4s0.1-1.4,2.1-1.7c2-0.4,3.1,1.3,3.1,1.3s2.8-1.1,4.2,0.7s1.1,4.1,1.1,4.1s2.7,0.5,3.1,2.4
			c0.4,1.9-1.1,2.6-1.8,3.9c1.9,2-0.7,5.1-3,6.2c-0.1,0.1-0.2,0.1-0.3,0.1C250,34,250.3,32.6,249.3,31.6z"/>
		<path id="XMLID_490_" class="st16" d="M246.7,26.7c0,0,0.6-3.8-2.4-4.6c-3-0.8-4.9,1.1-4.9,1.1S244.9,21.7,246.7,26.7z"/>
	</g>
</g>
<g id="turrel3" class="st0">
	<g id="cannon_-_copie_2" class="st1">
		<g id="long_-_copie_2">
			<rect id="XMLID_20_" x="132.2" y="37.4" class="st2" width="34.8" height="61.3"/>
			
				<radialGradient id="XMLID_46_" cx="149.6031" cy="-16188.0635" r="25.5075" gradientTransform="matrix(1 0 0 -0.9373 0 -15105.6172)" gradientUnits="userSpaceOnUse">
				<stop  offset="0" style="stop-color:#D6D5D5"/>
				<stop  offset="0.3213" style="stop-color:#D4D3D2"/>
				<stop  offset="0.5416" style="stop-color:#CCCACA"/>
				<stop  offset="0.7315" style="stop-color:#BEBDBD"/>
				<stop  offset="0.9032" style="stop-color:#ACABAB"/>
				<stop  offset="1" style="stop-color:#9F9E9E"/>
			</radialGradient>
			<rect id="XMLID_19_" x="134.4" y="37.4" class="st17" width="30.4" height="61.3"/>
			<rect id="XMLID_18_" x="157.2" y="45.5" class="st4" width="7.6" height="48.3"/>
		</g>
		<g id="bottom_-_copie_2">
			<rect id="XMLID_17_" x="119.3" y="93.5" class="st5" width="60.7" height="12.2"/>
			
				<radialGradient id="XMLID_47_" cx="149.6531" cy="-16221.8965" r="20.0824" gradientTransform="matrix(1 0 0 -1 0 -16122)" gradientUnits="userSpaceOnUse">
				<stop  offset="0" style="stop-color:#D6D5D5"/>
				<stop  offset="0.3213" style="stop-color:#D4D3D2"/>
				<stop  offset="0.5416" style="stop-color:#CCCACA"/>
				<stop  offset="0.7315" style="stop-color:#BEBDBD"/>
				<stop  offset="0.9032" style="stop-color:#ACABAB"/>
				<stop  offset="1" style="stop-color:#9F9E9E"/>
			</radialGradient>
			<rect id="XMLID_16_" x="121.6" y="95.4" class="st18" width="56.1" height="8.9"/>
			<rect id="XMLID_15_" x="122.6" y="101.8" class="st4" width="54.1" height="2.4"/>
		</g>
		<g id="top_-_copie_2">
			<rect id="XMLID_14_" x="124.9" y="34.9" class="st2" width="50.6" height="21.7"/>
			
				<radialGradient id="XMLID_48_" cx="150.2031" cy="-16167.7305" r="17.2694" gradientTransform="matrix(1 0 0 -1 0 -16122)" gradientUnits="userSpaceOnUse">
				<stop  offset="0" style="stop-color:#D6D5D5"/>
				<stop  offset="0.3213" style="stop-color:#D4D3D2"/>
				<stop  offset="0.5416" style="stop-color:#CCCACA"/>
				<stop  offset="0.7315" style="stop-color:#BEBDBD"/>
				<stop  offset="0.9032" style="stop-color:#ACABAB"/>
				<stop  offset="1" style="stop-color:#9F9E9E"/>
			</radialGradient>
			<rect id="XMLID_13_" x="127.2" y="37.4" class="st19" width="45.9" height="16.6"/>
			<rect id="XMLID_8_" x="128.3" y="49.4" class="st4" width="43.9" height="3.6"/>
		</g>
	</g>
	<g id="圖層_4_1_" class="st1">
		<g id="XMLID_503_" class="st20">
			<path id="XMLID_506_" class="st12" d="M70.9,46.2c-3,0-5.5-0.9-7-2.4C63.2,43,62.7,42,62.6,41c-0.4-0.1-0.8-0.2-1.2-0.2
				c-1.6-0.3-3.6-0.6-4.9-3c-1.3-2.6,0.1-5.4,1-6.6c-0.9-1.1-2.5-3.4-2.7-6.3c-0.2-3.4,3-5.3,4.5-6c0.1-1.2,0.5-3.7,3-5.1
				c1-0.6,2-0.9,2.9-0.9c0.6,0,1.1,0.1,1.5,0.3c0.7-1.3,2.3-3.4,4.9-3.4c1,0,2.1,0.3,3.2,0.9c5.3,3,5.3,7.1,5.3,7.8
				c0.1,1.8-0.3,4.6-2.2,5.8c1,1.5,1.5,3.9,1.4,6.3c1.8,1.9,1.9,5,1.9,5.2c0,1.2-0.6,2.8-2.3,3.3c0.1,1.1,0,2.5-0.8,3.8
				c-0.8,1.5-2.2,2.5-3.9,2.9C73.1,46.1,72,46.2,70.9,46.2z"/>
			<path id="XMLID_505_" class="st13" d="M70.9,46.2c-3,0-5.5-0.9-7-2.4C63.2,43,62.7,42,62.6,41c-0.4-0.1-0.8-0.2-1.2-0.2
				c-1.6-0.3-3.6-0.6-4.9-3c-1.3-2.6,0.1-5.4,1-6.6c-0.9-1.1-2.5-3.4-2.7-6.3c-0.2-3.4,3-5.3,4.5-6c0.1-1.2,0.5-3.7,3-5.1
				c1-0.6,2-0.9,2.9-0.9c0.6,0,1.1,0.1,1.5,0.3c0.7-1.3,2.3-3.4,4.9-3.4c1,0,2.1,0.3,3.2,0.9c5.3,3,5.3,7.1,5.3,7.8
				c0.1,1.8-0.3,4.6-2.2,5.8c1,1.5,1.5,3.9,1.4,6.3c1.8,1.9,1.9,5,1.9,5.2c0,1.2-0.6,2.8-2.3,3.3c0.1,1.1,0,2.5-0.8,3.8
				c-0.8,1.5-2.2,2.5-3.9,2.9C73.1,46.1,72,46.2,70.9,46.2z"/>
		</g>
		<path id="XMLID_502_" class="st21" d="M58.7,31c0,0-2.8-2.6-3-6.3s4.5-5.3,4.5-5.3s-0.3-3.3,2.5-4.9c2.9-1.6,4.4,0,4.4,0
			s2-5.9,7.1-3s4.8,6.9,4.8,6.9s0.3,5-2.9,5.4c1.3,0.9,2.4,3.8,2.1,7.1c1.9,1.6,1.9,4.8,1.9,4.8s0,2.5-2.5,2.5
			c0.5,1.4,0.4,5.6-3.8,6.6s-10.5-0.1-10.3-4.6c-2.1-0.9-4.8-0.1-6.3-3S58.7,31,58.7,31z"/>
		<path id="XMLID_501_" class="st22" d="M70.6,40.2c-2.1-0.9-4.8-0.1-6.3-3s1.4-6.3,1.4-6.3s-2.8-2.6-3-6.3s4.5-5.3,4.5-5.3
			s-0.3-3.3,2.5-4.9c2.9-1.6,4.4,0,4.4,0s0.4-1.2,1.3-2.2c-0.4-0.3-0.7-0.5-1.2-0.8c-5.1-2.9-7.1,3-7.1,3s-1.5-1.6-4.4,0
			c-2.9,1.6-2.5,4.9-2.5,4.9s-4.6,1.6-4.5,5.3s3,6.3,3,6.3s-2.9,3.4-1.4,6.3s4.1,2.1,6.3,3c-0.3,4.5,6.1,5.6,10.3,4.6
			c0.2,0,0.4-0.1,0.5-0.2C72.2,44,70.5,42.6,70.6,40.2z"/>
		<path id="XMLID_500_" class="st23" d="M68.8,31.5c0,0-4.7-4.1-1.8-8.3s7.3-3.7,7.3-3.7S65.7,23.3,68.8,31.5z"/>
	</g>
	<g id="圖層_4_拷貝" class="st1">
		<g id="XMLID_513_" class="st20">
			<path id="XMLID_520_" class="st12" d="M227.7,46.6c-1.1,0-2.2-0.1-3.2-0.4c-1.8-0.4-3.1-1.4-3.9-2.9c-0.7-1.3-0.9-2.7-0.8-3.8
				c-1.7-0.5-2.3-2.2-2.3-3.3c0-0.1,0-3.2,1.9-5.2c-0.1-2.4,0.5-4.8,1.4-6.3c-1.8-1.2-2.2-4-2.2-5.8c0-0.7,0-4.8,5.3-7.8
				c1.1-0.6,2.2-0.9,3.2-0.9c2.6,0,4.2,2,4.9,3.4c0.4-0.2,0.9-0.3,1.5-0.3c0.9,0,1.9,0.3,2.9,0.9c2.5,1.4,3,3.8,3,5.1
				c1.4,0.7,4.6,2.5,4.5,6c-0.1,2.9-1.8,5.2-2.7,6.3c0.9,1.3,2.3,4.1,1,6.6c-1.3,2.4-3.3,2.8-4.9,3c-0.4,0.1-0.9,0.1-1.2,0.2
				c-0.1,1.1-0.5,2.1-1.3,2.9C233.2,45.7,230.7,46.6,227.7,46.6C227.7,46.6,227.7,46.6,227.7,46.6z"/>
			<path id="XMLID_519_" class="st13" d="M227.7,46.6c-1.1,0-2.2-0.1-3.2-0.4c-1.8-0.4-3.1-1.4-3.9-2.9c-0.7-1.3-0.9-2.7-0.8-3.8
				c-1.7-0.5-2.3-2.2-2.3-3.3c0-0.1,0-3.2,1.9-5.2c-0.1-2.4,0.5-4.8,1.4-6.3c-1.8-1.2-2.2-4-2.2-5.8c0-0.7,0-4.8,5.3-7.8
				c1.1-0.6,2.2-0.9,3.2-0.9c2.6,0,4.2,2,4.9,3.4c0.4-0.2,0.9-0.3,1.5-0.3c0.9,0,1.9,0.3,2.9,0.9c2.5,1.4,3,3.8,3,5.1
				c1.4,0.7,4.6,2.5,4.5,6c-0.1,2.9-1.8,5.2-2.7,6.3c0.9,1.3,2.3,4.1,1,6.6c-1.3,2.4-3.3,2.8-4.9,3c-0.4,0.1-0.9,0.1-1.2,0.2
				c-0.1,1.1-0.5,2.1-1.3,2.9C233.2,45.7,230.7,46.6,227.7,46.6C227.7,46.6,227.7,46.6,227.7,46.6z"/>
		</g>
		<path id="XMLID_512_" class="st21" d="M239.9,31.4c0,0,2.8-2.6,3-6.3s-4.5-5.3-4.5-5.3s0.3-3.3-2.5-4.9s-4.4,0-4.4,0s-2-5.9-7.1-3
			s-4.8,6.9-4.8,6.9s-0.3,5,2.9,5.4c-1.3,0.9-2.4,3.8-2.1,7.1c-1.9,1.6-1.9,4.7-1.9,4.7s0,2.5,2.5,2.5c-0.5,1.4-0.4,5.6,3.8,6.6
			s10.5-0.1,10.3-4.6c2.1-0.9,4.8-0.1,6.3-3S239.9,31.4,239.9,31.4z"/>
		<path id="XMLID_511_" class="st22" d="M228,40.6c2.1-0.9,4.8-0.1,6.3-3s-1.4-6.2-1.4-6.2s2.8-2.6,3-6.3s-4.5-5.3-4.5-5.3
			s0.3-3.3-2.5-4.9c-2.9-1.6-4.4,0-4.4,0s-0.4-1.2-1.3-2.2c0.4-0.3,0.7-0.5,1.2-0.8c5.1-2.9,7.1,3,7.1,3s1.5-1.6,4.4,0
			c2.9,1.6,2.5,4.9,2.5,4.9s4.6,1.6,4.5,5.3s-3,6.3-3,6.3s2.9,3.4,1.4,6.2s-4.1,2.1-6.3,3c0.3,4.5-6.1,5.6-10.3,4.6
			c-0.2,0-0.4-0.1-0.5-0.2C226.4,44.4,228.1,43,228,40.6z"/>
		<path id="XMLID_510_" class="st23" d="M229.8,31.9c0,0,4.7-4.1,1.8-8.3s-7.3-3.7-7.3-3.7S232.9,23.7,229.8,31.9z"/>
	</g>
</g>
<g id="turrel2" class="st0">
	<g id="cannon_-_copie_3" class="st1">
		<g id="long_-_copie_3">
			<rect id="XMLID_29_" x="132.2" y="47.7" class="st2" width="34.8" height="51.1"/>
			
				<radialGradient id="XMLID_49_" cx="149.6031" cy="-16188.0635" r="25.5075" gradientTransform="matrix(1 0 0 -0.7812 0 -12572.1523)" gradientUnits="userSpaceOnUse">
				<stop  offset="0" style="stop-color:#D6D5D5"/>
				<stop  offset="0.3213" style="stop-color:#D4D3D2"/>
				<stop  offset="0.5416" style="stop-color:#CCCACA"/>
				<stop  offset="0.7315" style="stop-color:#BEBDBD"/>
				<stop  offset="0.9032" style="stop-color:#ACABAB"/>
				<stop  offset="1" style="stop-color:#9F9E9E"/>
			</radialGradient>
			<rect id="XMLID_28_" x="134.4" y="47.7" class="st24" width="30.4" height="51.1"/>
			<rect id="XMLID_27_" x="157.2" y="54.4" class="st4" width="7.6" height="40.3"/>
		</g>
		<g id="bottom_-_copie_3">
			<rect id="XMLID_26_" x="119.3" y="93.5" class="st5" width="60.7" height="12.2"/>
			
				<radialGradient id="XMLID_50_" cx="149.6531" cy="-16221.8965" r="20.0824" gradientTransform="matrix(1 0 0 -1 0 -16122)" gradientUnits="userSpaceOnUse">
				<stop  offset="0" style="stop-color:#D6D5D5"/>
				<stop  offset="0.3213" style="stop-color:#D4D3D2"/>
				<stop  offset="0.5416" style="stop-color:#CCCACA"/>
				<stop  offset="0.7315" style="stop-color:#BEBDBD"/>
				<stop  offset="0.9032" style="stop-color:#ACABAB"/>
				<stop  offset="1" style="stop-color:#9F9E9E"/>
			</radialGradient>
			<rect id="XMLID_25_" x="121.6" y="95.4" class="st25" width="56.1" height="8.9"/>
			<rect id="XMLID_24_" x="122.6" y="101.8" class="st4" width="54.1" height="2.4"/>
		</g>
		<g id="top_-_copie_3">
			<rect id="XMLID_23_" x="124.9" y="43.9" class="st2" width="50.6" height="21.7"/>
			
				<radialGradient id="XMLID_51_" cx="150.2031" cy="-16176.7305" r="17.2694" gradientTransform="matrix(1 0 0 -1 0 -16122)" gradientUnits="userSpaceOnUse">
				<stop  offset="0" style="stop-color:#D6D5D5"/>
				<stop  offset="0.3213" style="stop-color:#D4D3D2"/>
				<stop  offset="0.5416" style="stop-color:#CCCACA"/>
				<stop  offset="0.7315" style="stop-color:#BEBDBD"/>
				<stop  offset="0.9032" style="stop-color:#ACABAB"/>
				<stop  offset="1" style="stop-color:#9F9E9E"/>
			</radialGradient>
			<rect id="XMLID_22_" x="127.2" y="46.4" class="st26" width="45.9" height="16.6"/>
			<rect id="XMLID_21_" x="128.3" y="58.4" class="st4" width="43.9" height="3.6"/>
		</g>
	</g>
	<g id="圖層_3_拷貝" class="st1">
		<g id="XMLID_479_" class="st27">
			<path id="XMLID_482_" class="st12" d="M215.9,51.2c-4.6,0-9-3-12.2-5.2c-0.5-0.3-0.9-0.6-1.3-0.9l0.4-1.8c1.8-0.3,3.1-1.2,4-2.6
				c0.9-1.5,1-3.1,0.9-3.6l0.5-1.1c0.6-0.6,0.9-5.6-1.5-10.2l0.1-1c3.4-4.8-3.2-12.9-3.3-13l0.2-1.4c0.2-0.1,3.8-2.8,8.3-3.1
				c0.2,0,0.3,0,0.5,0c3.4,0,5.7,2.1,6.6,3.2c0.3-0.1,0.6-0.1,1-0.1c1,0,2.1,0.3,3.2,1c2.3,1.3,2.4,3.7,2.3,5
				c1.6,0.7,5.2,2.7,5.8,6.5c0.5,3.5-2.1,7-3.5,8.6c1.3,1.1,2.6,3.1,1.9,5.9c-0.8,2.9-4.1,5.1-6.1,6.2c0.5,0.5,0.9,1.1,0.9,2
				c0.1,1.6-1.1,3.1-3.7,4.7C219.4,50.7,217.7,51.2,215.9,51.2L215.9,51.2z"/>
			<path id="XMLID_481_" class="st13" d="M215.9,51.2c-4.6,0-9-3-12.2-5.2c-0.5-0.3-0.9-0.6-1.3-0.9l0.4-1.8c1.8-0.3,3.1-1.2,4-2.6
				c0.9-1.5,1-3.1,0.9-3.6l0.5-1.1c0.6-0.6,0.9-5.6-1.5-10.2l0.1-1c3.4-4.8-3.2-12.9-3.3-13l0.2-1.4c0.2-0.1,3.8-2.8,8.3-3.1
				c0.2,0,0.3,0,0.5,0c3.4,0,5.7,2.1,6.6,3.2c0.3-0.1,0.6-0.1,1-0.1c1,0,2.1,0.3,3.2,1c2.3,1.3,2.4,3.7,2.3,5
				c1.6,0.7,5.2,2.7,5.8,6.5c0.5,3.5-2.1,7-3.5,8.6c1.3,1.1,2.6,3.1,1.9,5.9c-0.8,2.9-4.1,5.1-6.1,6.2c0.5,0.5,0.9,1.1,0.9,2
				c0.1,1.6-1.1,3.1-3.7,4.7C219.4,50.7,217.7,51.2,215.9,51.2L215.9,51.2z"/>
		</g>
		<path id="XMLID_478_" class="st28" d="M204.2,11c0,0,7.2,8.8,3.3,14.2c2.5,4.8,2.5,10.8,1.1,11.6c0.4,1.6-0.6,6.6-5.7,7.5
			c4.2,2.8,11.1,8.5,17.4,4.7c6.3-3.8,1.3-6,1.3-6s6.1-2.5,7.1-6.2c1-3.8-2.5-5.5-2.5-5.5s4.6-4.4,4-8.6c-0.6-4.2-5.9-6-5.9-6
			s0.8-3.2-1.8-4.7s-4-0.5-4-0.5s-2.5-3.6-6.8-3.3S204.2,11,204.2,11z"/>
		<path id="XMLID_477_" class="st29" d="M213.1,48.9c6.3-3.8,1.3-6,1.3-6s6.1-2.5,7.1-6.2c1-3.8-2.5-5.5-2.5-5.5s4.6-4.4,4-8.6
			s-5.9-6-5.9-6s0.8-3.2-1.8-4.7c-2.5-1.5-4-0.5-4-0.5s-1.1-1.6-3.1-2.6c1.1-0.4,2.3-0.7,3.7-0.8c4.3-0.3,6.8,3.3,6.8,3.3
			s1.5-1,4,0.5s1.8,4.7,1.8,4.7s5.3,1.8,5.9,6c0.6,4.2-4,8.6-4,8.6s3.4,1.8,2.5,5.5c-1,3.8-7.1,6.2-7.1,6.2s5,2.2-1.3,6
			c-2.8,1.7-5.7,1.5-8.4,0.5C212.4,49.3,212.7,49.1,213.1,48.9z"/>
		<path id="XMLID_470_" class="st30" d="M218.5,24.5c0,0,3-8.4-6.3-10.6C215.7,12.2,223.7,16.6,218.5,24.5z"/>
		<path id="XMLID_469_" class="st30" d="M212.7,44.9c0,0,7.9-4.5,4.6-11.4C220.8,35.2,221.4,43.4,212.7,44.9z"/>
	</g>
	<g id="圖層_3" class="st1">
		<g id="XMLID_441_" class="st27">
			<path id="XMLID_468_" class="st12" d="M82.7,50.8c-1.8,0-3.5-0.5-5-1.4c-2.6-1.5-3.8-3.1-3.7-4.7c0.1-0.8,0.5-1.5,0.9-2
				c-2-1.1-5.4-3.2-6.1-6.2c-0.7-2.8,0.6-4.8,1.9-5.9c-1.4-1.6-4-5.1-3.5-8.6c0.5-3.8,4.1-5.7,5.8-6.5c-0.1-1.3,0.1-3.6,2.3-5
				c1.1-0.6,2.2-1,3.2-1c0.4,0,0.7,0.1,1,0.1c1-1.1,3.2-3.2,6.6-3.2c0.2,0,0.3,0,0.5,0c4.5,0.3,8.2,3,8.3,3.1l0.2,1.4
				c-0.1,0.1-6.7,8.2-3.3,13l0.1,1c-2.5,4.7-2.2,9.7-1.5,10.3l0.4,1.1c-0.1,0.5,0,2.1,0.9,3.6c0.9,1.4,2.2,2.3,4,2.6l0.4,1.8
				c-0.4,0.3-0.9,0.6-1.3,0.9C91.6,47.8,87.2,50.8,82.7,50.8z"/>
			<path id="XMLID_467_" class="st13" d="M82.7,50.8c-1.8,0-3.5-0.5-5-1.4c-2.6-1.5-3.8-3.1-3.7-4.7c0.1-0.8,0.5-1.5,0.9-2
				c-2-1.1-5.4-3.2-6.1-6.2c-0.7-2.8,0.6-4.8,1.9-5.9c-1.4-1.6-4-5.1-3.5-8.6c0.5-3.8,4.1-5.7,5.8-6.5c-0.1-1.3,0.1-3.6,2.3-5
				c1.1-0.6,2.2-1,3.2-1c0.4,0,0.7,0.1,1,0.1c1-1.1,3.2-3.2,6.6-3.2c0.2,0,0.3,0,0.5,0c4.5,0.3,8.2,3,8.3,3.1l0.2,1.4
				c-0.1,0.1-6.7,8.2-3.3,13l0.1,1c-2.5,4.7-2.2,9.7-1.5,10.3l0.4,1.1c-0.1,0.5,0,2.1,0.9,3.6c0.9,1.4,2.2,2.3,4,2.6l0.4,1.8
				c-0.4,0.3-0.9,0.6-1.3,0.9C91.6,47.8,87.2,50.8,82.7,50.8z"/>
		</g>
		<path id="XMLID_440_" class="st28" d="M94.4,10.6c0,0-7.2,8.8-3.3,14.2c-2.5,4.8-2.5,10.8-1.1,11.6c-0.4,1.6,0.6,6.6,5.7,7.5
			c-4.2,2.8-11.1,8.5-17.4,4.7c-6.3-3.8-1.3-6-1.3-6s-6.1-2.5-7.1-6.2c-1-3.8,2.5-5.5,2.5-5.5s-4.6-4.4-4-8.6s5.9-6,5.9-6
			s-0.8-3.2,1.8-4.7c2.5-1.5,4-0.5,4-0.5s2.5-3.6,6.8-3.3C90.9,8,94.4,10.6,94.4,10.6z"/>
		<path id="XMLID_439_" class="st29" d="M85.5,48.6c-6.3-3.8-1.3-6-1.3-6s-6.1-2.5-7.1-6.2c-1-3.8,2.5-5.5,2.5-5.5s-4.6-4.4-4-8.6
			s5.9-6,5.9-6s-0.8-3.2,1.8-4.7c2.5-1.5,4-0.5,4-0.5s1.1-1.6,3.1-2.6c-1.1-0.4-2.3-0.7-3.7-0.8c-4.3-0.3-6.8,3.3-6.8,3.3
			s-1.5-1-4,0.5c-2.5,1.5-1.8,4.7-1.8,4.7s-5.3,1.8-5.9,6s4,8.6,4,8.6s-3.4,1.8-2.5,5.5c1,3.8,7.1,6.2,7.1,6.2s-5,2.2,1.3,6
			c2.8,1.7,5.7,1.5,8.4,0.5C86.2,48.9,85.9,48.8,85.5,48.6z"/>
		<path id="XMLID_438_" class="st30" d="M80.1,24.2c0,0-3-8.4,6.3-10.6C82.9,11.8,74.9,16.2,80.1,24.2z"/>
		<path id="XMLID_437_" class="st30" d="M85.9,44.5c0,0-7.9-4.5-4.6-11.4C77.8,34.8,77.2,43,85.9,44.5z"/>
	</g>
</g>
<g id="turrel1" class="st0">
	<g id="cannon_-_copie_4" class="st1">
		<g id="long_-_copie_4">
			<rect id="XMLID_38_" x="132.2" y="58.4" class="st2" width="34.8" height="40.4"/>
			
				<radialGradient id="XMLID_52_" cx="149.6031" cy="-16188.0635" r="25.5075" gradientTransform="matrix(1 0 0 -0.6177 0 -9920.4219)" gradientUnits="userSpaceOnUse">
				<stop  offset="0" style="stop-color:#D6D5D5"/>
				<stop  offset="0.3213" style="stop-color:#D4D3D2"/>
				<stop  offset="0.5416" style="stop-color:#CCCACA"/>
				<stop  offset="0.7315" style="stop-color:#BEBDBD"/>
				<stop  offset="0.9032" style="stop-color:#ACABAB"/>
				<stop  offset="1" style="stop-color:#9F9E9E"/>
			</radialGradient>
			<rect id="XMLID_37_" x="134.4" y="58.4" class="st31" width="30.4" height="40.4"/>
			<rect id="XMLID_36_" x="157.2" y="63.7" class="st4" width="7.6" height="31.8"/>
		</g>
		<g id="bottom_-_copie_4">
			<rect id="XMLID_35_" x="119.3" y="93.5" class="st5" width="60.7" height="12.2"/>
			
				<radialGradient id="XMLID_54_" cx="149.6531" cy="-16221.8965" r="20.0824" gradientTransform="matrix(1 0 0 -1 0 -16122)" gradientUnits="userSpaceOnUse">
				<stop  offset="0" style="stop-color:#D6D5D5"/>
				<stop  offset="0.3213" style="stop-color:#D4D3D2"/>
				<stop  offset="0.5416" style="stop-color:#CCCACA"/>
				<stop  offset="0.7315" style="stop-color:#BEBDBD"/>
				<stop  offset="0.9032" style="stop-color:#ACABAB"/>
				<stop  offset="1" style="stop-color:#9F9E9E"/>
			</radialGradient>
			<rect id="XMLID_34_" x="121.6" y="95.4" class="st32" width="56.1" height="8.9"/>
			<rect id="XMLID_33_" x="122.6" y="101.8" class="st4" width="54.1" height="2.4"/>
		</g>
		<g id="top_-_copie_4">
			<rect id="XMLID_32_" x="124.9" y="54.9" class="st2" width="50.6" height="21.7"/>
			
				<radialGradient id="XMLID_56_" cx="150.2031" cy="-16187.7305" r="17.2694" gradientTransform="matrix(1 0 0 -1 0 -16122)" gradientUnits="userSpaceOnUse">
				<stop  offset="0" style="stop-color:#D6D5D5"/>
				<stop  offset="0.3213" style="stop-color:#D4D3D2"/>
				<stop  offset="0.5416" style="stop-color:#CCCACA"/>
				<stop  offset="0.7315" style="stop-color:#BEBDBD"/>
				<stop  offset="0.9032" style="stop-color:#ACABAB"/>
				<stop  offset="1" style="stop-color:#9F9E9E"/>
			</radialGradient>
			<rect id="XMLID_31_" x="127.2" y="57.4" class="st33" width="45.9" height="16.6"/>
			<rect id="XMLID_30_" x="128.3" y="69.4" class="st4" width="43.9" height="3.6"/>
		</g>
	</g>
	<g id="圖層_2_拷貝" class="st1">
		<g id="XMLID_452_">
			<path id="XMLID_486_" class="st12" d="M196.1,63.8c-6.4,0-12.6-4.3-17.1-7.4c-0.7-0.5-1.3-0.9-1.9-1.3l0.4-1.8
				c3.3-0.6,5.1-2.4,6-3.9c1.4-2.1,1.6-4.5,1.3-5.5l0.5-1.1c1.1-0.6,1.6-8.3-2-15.2l0.1-1c5-7-4.6-18.9-4.7-19l0.2-1.4
				c0.2-0.2,5.3-3.9,11.7-4.3c0.2,0,0.5,0,0.7,0c4.9,0,8.1,3.2,9.3,4.6c0.4-0.1,0.9-0.2,1.6-0.2c1.4,0,2.8,0.4,4.3,1.3
				c3.2,1.9,3.3,5.3,3.1,7c2.1,0.9,7.5,3.6,8.3,9c0.7,5.1-3.3,10.2-5.2,12.2c1.8,1.4,3.9,4.3,2.9,8.3c-1.1,4.3-6.3,7.4-9,8.8
				c0.8,0.7,1.5,1.6,1.6,2.9c0.1,2.1-1.6,4.2-5,6.3C201,63.1,198.6,63.8,196.1,63.8C196.1,63.8,196.1,63.8,196.1,63.8z"/>
			<path id="XMLID_458_" class="st13" d="M196.1,63.8c-6.4,0-12.6-4.3-17.1-7.4c-0.7-0.5-1.3-0.9-1.9-1.3l0.4-1.8
				c3.3-0.6,5.1-2.4,6-3.9c1.4-2.1,1.6-4.5,1.3-5.5l0.5-1.1c1.1-0.6,1.6-8.3-2-15.2l0.1-1c5-7-4.6-18.9-4.7-19l0.2-1.4
				c0.2-0.2,5.3-3.9,11.7-4.3c0.2,0,0.5,0,0.7,0c4.9,0,8.1,3.2,9.3,4.6c0.4-0.1,0.9-0.2,1.6-0.2c1.4,0,2.8,0.4,4.3,1.3
				c3.2,1.9,3.3,5.3,3.1,7c2.1,0.9,7.5,3.6,8.3,9c0.7,5.1-3.3,10.2-5.2,12.2c1.8,1.4,3.9,4.3,2.9,8.3c-1.1,4.3-6.3,7.4-9,8.8
				c0.8,0.7,1.5,1.6,1.6,2.9c0.1,2.1-1.6,4.2-5,6.3C201,63.1,198.6,63.8,196.1,63.8C196.1,63.8,196.1,63.8,196.1,63.8z"/>
		</g>
		<path id="XMLID_451_" class="st12" d="M179.5,6.8c0,0,10.3,12.5,4.8,20.3c3.6,6.9,3.6,15.4,1.6,16.5c0.6,2.3-0.9,9.4-8.1,10.6
			c6,4,15.9,12.1,24.9,6.8s1.9-8.5,1.9-8.5s8.8-3.5,10.1-8.9s-3.5-7.9-3.5-7.9s6.6-6.2,5.8-12.2s-8.4-8.5-8.4-8.5s1.1-4.6-2.5-6.8
			s-5.8-0.7-5.8-0.7s-3.5-5.1-9.6-4.8S179.5,6.8,179.5,6.8z"/>
		<path id="XMLID_450_" class="st34" d="M192.1,61c9-5.4,1.9-8.5,1.9-8.5s8.8-3.5,10.1-8.9s-3.5-7.9-3.5-7.9s6.6-6.2,5.8-12.2
			S198,15,198,15s1.1-4.6-2.5-6.8s-5.8-0.7-5.8-0.7s-1.5-2.2-4.4-3.6c1.6-0.5,3.3-1,5.2-1.1c6.1-0.4,9.6,4.8,9.6,4.8
			s2.1-1.4,5.8,0.7s2.5,6.8,2.5,6.8s7.5,2.5,8.4,8.5s-5.8,12.2-5.8,12.2s4.9,2.5,3.5,7.9s-10.1,8.9-10.1,8.9s7.1,3.1-1.9,8.5
			c-4,2.4-8.1,2.1-12,0.8C191.1,61.5,191.6,61.3,192.1,61z"/>
		<path id="XMLID_444_" class="st5" d="M196.7,29.1c0,0,4.3-12-9-15.1C192.7,11.6,204,17.8,196.7,29.1z"/>
		<path id="XMLID_443_" class="st5" d="M188.5,52.2c0,0,11.2-6.4,6.6-16.3C200,38.4,200.7,50.1,188.5,52.2z"/>
	</g>
	<g id="圖層_2_5_" class="st1">
		<g id="XMLID_449_">
			<path id="XMLID_455_" class="st12" d="M102.5,63.4c-2.5,0-4.8-0.6-6.9-1.9c-3.5-2.1-5.2-4.2-5-6.3c0.1-1.3,0.8-2.3,1.6-2.9
				c-2.7-1.4-7.9-4.5-9-8.8c-1-4,1.1-6.9,2.9-8.3c-1.9-2-5.9-7.1-5.2-12.2c0.8-5.4,6.2-8.1,8.3-9c-0.2-1.6-0.1-5.1,3.1-7
				c1.5-0.9,3-1.3,4.3-1.3c0.7,0,1.2,0.1,1.6,0.2c1.2-1.4,4.4-4.6,9.3-4.6c0.2,0,0.5,0,0.7,0c6.4,0.4,11.5,4.2,11.7,4.3l0.2,1.4
				c-0.1,0.1-9.7,12-4.7,19l0.1,1c-3.6,6.9-3.1,14.5-2,15.2l0.5,1.1c-0.3,0.9,0,3.3,1.3,5.5c0.9,1.5,2.7,3.3,6,3.9l0.4,1.8
				c-0.6,0.4-1.2,0.8-1.9,1.3C115,59.1,108.8,63.4,102.5,63.4z"/>
			<path id="XMLID_454_" class="st13" d="M102.5,63.4c-2.5,0-4.8-0.6-6.9-1.9c-3.5-2.1-5.2-4.2-5-6.3c0.1-1.3,0.8-2.3,1.6-2.9
				c-2.7-1.4-7.9-4.5-9-8.8c-1-4,1.1-6.9,2.9-8.3c-1.9-2-5.9-7.1-5.2-12.2c0.8-5.4,6.2-8.1,8.3-9c-0.2-1.6-0.1-5.1,3.1-7
				c1.5-0.9,3-1.3,4.3-1.3c0.7,0,1.2,0.1,1.6,0.2c1.2-1.4,4.4-4.6,9.3-4.6c0.2,0,0.5,0,0.7,0c6.4,0.4,11.5,4.2,11.7,4.3l0.2,1.4
				c-0.1,0.1-9.7,12-4.7,19l0.1,1c-3.6,6.9-3.1,14.5-2,15.2l0.5,1.1c-0.3,0.9,0,3.3,1.3,5.5c0.9,1.5,2.7,3.3,6,3.9l0.4,1.8
				c-0.6,0.4-1.2,0.8-1.9,1.3C115,59.1,108.8,63.4,102.5,63.4z"/>
		</g>
		<path id="XMLID_448_" class="st12" d="M119.1,6.5c0,0-10.3,12.5-4.8,20.3c-3.6,6.9-3.6,15.4-1.6,16.5c-0.6,2.3,0.9,9.4,8.1,10.6
			c-6,4-15.9,12.1-24.9,6.8s-1.9-8.5-1.9-8.5s-8.8-3.5-10.1-8.9s3.5-7.9,3.5-7.9s-6.6-6.3-5.8-12.3s8.4-8.5,8.4-8.5S89,10,92.6,7.8
			s5.8-0.8,5.8-0.8s3.5-5.1,9.6-4.8S119.1,6.5,119.1,6.5z"/>
		<path id="XMLID_447_" class="st34" d="M106.5,60.6c-9-5.4-1.9-8.5-1.9-8.5s-8.8-3.5-10.1-8.9s3.5-7.9,3.5-7.9s-6.6-6.3-5.8-12.3
			s8.4-8.5,8.4-8.5s-1.1-4.6,2.5-6.7s5.8-0.8,5.8-0.8s1.5-2.2,4.4-3.6c-1.6-0.5-3.3-1-5.2-1.1c-6.1-0.4-9.6,4.8-9.6,4.8
			s-2.1-1.4-5.8,0.8s-2.5,6.7-2.5,6.7s-7.5,2.5-8.4,8.5s5.8,12.3,5.8,12.3s-4.9,2.5-3.5,7.9s10.1,8.9,10.1,8.9S87,55.2,96,60.6
			c4,2.4,8.1,2.1,12,0.8C107.5,61.1,107,60.9,106.5,60.6z"/>
		<path id="XMLID_446_" class="st5" d="M101.9,28.7c0,0-4.3-12,9-15.1C105.9,11.2,94.6,17.4,101.9,28.7z"/>
		<path id="XMLID_445_" class="st5" d="M110.1,51.8c0,0-11.2-6.4-6.6-16.3C98.6,38,97.9,49.8,110.1,51.8z"/>
	</g>
</g>
</svg>
