<?xml version="1.0" encoding="utf-8"?>
<!-- Generator: Adobe Illustrator 19.0.0, SVG Export Plug-In . SVG Version: 6.00 Build 0)  -->
<svg version="1.0" id="圖層_1" xmlns="http://www.w3.org/2000/svg" xmlns:xlink="http://www.w3.org/1999/xlink" x="0px" y="0px" width="300px" height="260px"
	 viewBox="0 0 300 260" style="enable-background:new 0 0 300 260;" xml:space="preserve">
<style type="text/css">
	.st0{display:none;fill:#CFCECE;}
	.st1{display:none;}
	.st2{display:inline;}
	.st3{fill:none;stroke:#333333;stroke-width:7;stroke-miterlimit:10;}
	.st4{display:none;fill:#68C7F1;}
	.st5{fill:#232323;stroke:#333333;stroke-width:7;stroke-miterlimit:10;}
	.st6{fill:#818285;stroke:#333333;stroke-width:7;stroke-miterlimit:10;}
	.st7{fill:url(#XMLID_14_);}
	.st8{opacity:0.52;fill:#FFFFFF;}
	.st9{fill:url(#XMLID_15_);stroke:#333333;stroke-width:3;stroke-miterlimit:10;}
	.st10{display:none;fill:url(#XMLID_16_);}
	.st11{display:none;fill:url(#XMLID_17_);}
	.st12{display:none;fill:url(#XMLID_19_);stroke:#191919;stroke-width:2;stroke-miterlimit:10;}
	.st13{fill:url(#XMLID_23_);}
</style>
<rect id="XMLID_11_" class="st0" width="300" height="260"/>
<g id="圖層_23_2_" class="st1">
	<g id="XMLID_118_" class="st2">
		<path id="XMLID_10_" class="st3" d="M210.2,258l-120.6-0.2c-9.4,0-18.2-4.9-22.8-12.8L6.6,143.5c-4.7-8-4.7-17.7,0-25.7L67,16.4
			c4.8-8,13.5-12.8,22.9-12.8l120.6,0.2c9.4,0,18.2,4.9,22.8,12.8L293.5,118c4.7,8,4.7,17.7,0,25.7l-60.4,101.4
			C228.3,253.1,219.6,258,210.2,258z"/>
	</g>
</g>
<path id="XMLID_1_" class="st4" d="M194.2,221.7h-88.3c-26.7,0-48.5-21.8-48.5-48.5V86.8c0-26.7,21.8-48.5,48.5-48.5h88.3
	c26.7,0,48.5,21.8,48.5,48.5v86.4C242.7,199.9,220.9,221.7,194.2,221.7z"/>
<path id="XMLID_5_" class="st5" d="M185.5,213.9h-70.9c-26.7,0-48.5-21.8-48.5-48.5V94.5c0-26.7,21.8-48.5,48.5-48.5h70.9
	c26.7,0,48.5,21.8,48.5,48.5v70.9C234,192.1,212.2,213.9,185.5,213.9z"/>
<path id="XMLID_2_" class="st6" d="M151.3,213.9h-2.4c-45.5,0-82.7-37.2-82.7-82.7v-2.4c0-45.5,37.2-82.7,82.7-82.7h2.4
	c45.5,0,82.7,37.2,82.7,82.7v2.4C234,176.7,196.8,213.9,151.3,213.9z"/>
<radialGradient id="XMLID_14_" cx="150.0518" cy="130" r="83.9482" gradientUnits="userSpaceOnUse">
	<stop  offset="0" style="stop-color:#F2F2F2"/>
	<stop  offset="1" style="stop-color:#424143"/>
</radialGradient>
<path id="XMLID_9_" class="st7" d="M151.3,46.1h-2.4c-45.5,0-82.7,37.2-82.7,82.7v2.4c0,45.5,37.2,82.7,82.7,82.7h2.4
	c45.5,0,82.7-37.2,82.7-82.7v-2.4C234,83.3,196.8,46.1,151.3,46.1z M148.8,188.9c-31.9,0-57.7-25.8-57.7-57.7
	c0-31.9,25.8-57.7,57.7-57.7s57.7,25.8,57.7,57.7C206.6,163.1,180.7,188.9,148.8,188.9z"/>
<path id="XMLID_22_" class="st8" d="M151.3,46.1h-2.4c-45.5,0-82.7,37.2-82.7,82.7v2.4c0,45.5,37.2,82.7,82.7,82.7h2.4
	c45.5,0,82.7-37.2,82.7-82.7v-2.4C234,83.3,196.8,46.1,151.3,46.1z M148.4,207.2c-41.8,0-75.6-33.8-75.6-75.6
	c0-41.8,33.8-75.6,75.6-75.6c41.8,0,75.6,33.8,75.6,75.6C224.1,173.4,190.2,207.2,148.4,207.2z"/>
<g id="Calque_12">
	<radialGradient id="XMLID_15_" cx="150.0792" cy="129.8022" r="29.0522" gradientUnits="userSpaceOnUse">
		<stop  offset="1.065275e-007" style="stop-color:#000000"/>
		<stop  offset="1" style="stop-color:#414042"/>
	</radialGradient>
	<circle id="XMLID_4_" class="st9" cx="150.1" cy="129.8" r="29.1"/>
	<radialGradient id="XMLID_16_" cx="135.3657" cy="144.625" r="14.625" gradientUnits="userSpaceOnUse">
		<stop  offset="1.057028e-007" style="stop-color:#D5D7D8"/>
		<stop  offset="1" style="stop-color:#AFB1B4"/>
	</radialGradient>
	<path id="XMLID_18_" class="st10" d="M120.7,130c0,16.2,13.1,29.3,29.3,29.3V130H120.7z"/>
	<radialGradient id="XMLID_17_" cx="164.6157" cy="115.375" r="14.625" gradientUnits="userSpaceOnUse">
		<stop  offset="1.057028e-007" style="stop-color:#D5D7D8"/>
		<stop  offset="1" style="stop-color:#AFB1B4"/>
	</radialGradient>
	<path id="XMLID_12_" class="st11" d="M179.2,130c0-16.2-13.1-29.3-29.3-29.3V130H179.2z"/>
	<radialGradient id="XMLID_19_" cx="150.1655" cy="129.6095" r="10.1471" gradientUnits="userSpaceOnUse">
		<stop  offset="0" style="stop-color:#D6D5D5"/>
		<stop  offset="0.3213" style="stop-color:#D4D3D2"/>
		<stop  offset="0.5416" style="stop-color:#CCCACA"/>
		<stop  offset="0.7315" style="stop-color:#BEBDBD"/>
		<stop  offset="0.9032" style="stop-color:#ACABAB"/>
		<stop  offset="1" style="stop-color:#9F9E9E"/>
	</radialGradient>
	<circle id="XMLID_6_" class="st12" cx="150.2" cy="129.6" r="10.1"/>
</g>
<radialGradient id="XMLID_23_" cx="150" cy="130" r="0.5762" gradientUnits="userSpaceOnUse">
	<stop  offset="1.057028e-007" style="stop-color:#D5D7D8"/>
	<stop  offset="1" style="stop-color:#AFB1B4"/>
</radialGradient>
<circle id="XMLID_3_" class="st13" cx="150" cy="130" r="0.6"/>
</svg>
