<svg version="1.0" id="Calque_1" xmlns="http://www.w3.org/2000/svg" x="0" y="0" width="300" height="260" style="enable-background:new 0 0 300 260" xml:space="preserve"><style>.st0{display:none}.st1,.st2,.st3{display:inline;fill:#adadad}.st2,.st3{fill:#d1d1d1}.st3{fill:none;stroke:#3a3a3a;stroke-width:16;stroke-miterlimit:10}.st4{fill:#3a3a3a}.st4,.st5{display:inline}.st6{fill:#adadad}.st7{fill:#d1d1d1}</style><g id="dust5"><path id="XMLID_20_" class="st6" d="M121.8 130.8s-19.6-16.1 4-26.9 26.4-1.8 26.4-1.8 21.6-4 23.1 7.5-5 21.1-5 21.1 17.8 9.8 5.2 20.3c-12.5 10.5-28.6 25.9-36.9 8.8 0 0-5 6.5-16.1-6-11-12.4-.7-23-.7-23z"/><path id="XMLID_22_" class="st7" d="M133.4 131.9s-10.6-8.7 2.2-14.5c12.8-5.8 14.2-.9 14.2-.9s11.7-2.2 12.5 4.1c.8 6.2-2.7 11.4-2.7 11.4s9.6 5.3 2.8 11-15.5 14-19.9 4.7c0 0-2.7 3.5-8.7-3.3s-.4-12.5-.4-12.5z"/><path id="XMLID_21_" d="M121.8 130.8s-19.6-16.1 4-26.9 26.4-1.8 26.4-1.8 21.6-4 23.1 7.5-5 21.1-5 21.1 17.8 9.8 5.2 20.3c-12.5 10.5-28.6 25.9-36.9 8.8 0 0-5 6.5-16.1-6-11-12.4-.7-23-.7-23z" style="fill:none;stroke:#3a3a3a;stroke-width:16;stroke-miterlimit:10"/><path id="XMLID_23_" d="M139.4 129.5s-3.6-7 2.9-9.6c6.1-2.5 10.3 1.3 10.3 1.3s-5.1-2.9-10.1 1.7c-4.3 3.9-3.1 6.6-3.1 6.6z" style="fill:#3a3a3a"/></g></svg>