<svg version="1.0" xmlns="http://www.w3.org/2000/svg" width="300" height="260" style="enable-background:new 0 0 300 260" xml:space="preserve"><style>.st0{display:none}.st1{display:inline}.st2{fill:#e5e5e5}.st3{fill:#9a9999}.st4{fill:#262525}.st5{fill:#e9e8e8}.st6{fill:#8e8e8e}.st7{fill:#313131}</style><g id="cloud3"><path id="XMLID_2_" class="st2" d="M114.3 162.3c-11.1 6.6-24.7 9.1-36.8 6.6-5.5-1-11.1-3.5-14.1-8.1l-1-1.5c8.6.5 16.6-3 23.7-8.1 6.6-5 12.1-12.1 17.6-18.6 2.5-3.5 5.5-7.1 9.1-9.6 3.5-3 7.6-5 11.6-5 4.5-.5 9.1 1.5 11.6 5 2.5-6.6 7.1-10.6 13.1-14.6 3.5-2 7.1-4 10.6-5 4-1 8.1-.5 11.6 1.5 1-2 3.5-3 5-5 6.6-7.1 16.1-11.6 25.7-11.6 5.5 0 11.1 1 14.6 5 1.5 2 2 4 3 6.6.5 1.5 1 3.5 1 5.5 0 5-3 10.1-6.6 14.1l3 .5c3.5.5 7.1.5 10.6 1 2 0 4.5.5 6.6 1.5 1.5 1 3 2.5 4 4 4 4.5 7.6 9.6 9.6 15.1s3 12.1 1 17.6c-1 3.5-3.5 7.1-5.5 10.6-2 3-3.5 5.5-6 8.1-4.5 5-11.6 8.6-18.1 10.1-7.1 1.5-14.1.5-20.7-1.5-1.5-.5-3-1-4.5-2-1.5-.5-2.5-1.5-3.5-2.5-3-3-5-6.6-6.6-10.1v.5c-6.6 2-13.1 3.5-19.7 4.5-2.5.5-5.5.5-8.1.5-4-.5-8.1-2.5-11.6-5.5-3-3-5.5-6.6-7.6-10.1h.5c-2 1.5-4 3-6.6 3.5-1.5.5-3.5.5-5 .5-3.9-1.5-8-.5-11.5-3.5"/><path id="XMLID_28_" class="st3" d="M247.9 141.1c-2-5.5-5.5-10.6-9.6-15.1-1-1.5-2.5-3-4-4-2-1-4.5-1.5-6.6-1.5-3.5-.5-7.1-.5-10.6-1l-3-.5c3-4 6.6-8.6 6.6-14.1 0-2-.5-3.5-1-5.5-1-2-1.5-4.5-3-6.6-3-4-9.1-5.5-14.1-5-9.6.5-19.2 4.5-26.2 11.6-1.5 2-4 2.5-5 5-3.5-2-7.6-2.5-11.6-1.5s-7.6 2.5-10.6 5c-6 3.5-10.6 8.1-13.1 14.6-2.5-3.5-7.1-5.5-11.6-5s-8.6 2.5-11.6 5c-3.5 3-6 6.6-9.1 9.6-5 6.6-10.6 13.1-17.6 18.6-6.6 5-15.1 8.6-23.7 8.1l1 1.5c3 4.5 8.6 7.1 14.1 8.1.5 0 1 0 1.5.5 2-.5 4-1 5.5-1.5 9.1-3.5 17.1-10.6 21.2-19.7 1.5-3.5 2.5-7.6 4.5-11.1s4-7.1 7.6-8.6c5.5-2.5 13.6 0 16.1 6l.5.5c1.5-5 5-9.1 9.1-12.1 4-3 9.1-5 14.1-6.6 3-1 6.6-1.5 9.6-.5s5.5 4.5 4.5 7.6l2 3.5c0-8.1 6.6-15.1 13.6-18.1 2-1 4.5-1.5 7.1-1.5s5 1 6.6 2.5c2 2 2.5 5.5 2 9.1-.5 3.5-1.5 7.1-3 10.1l1-1c4.5.5 8.6 3 12.1 6 6 5 11.6 11.1 14.6 18.1 3 7.1 3.5 16.1 0 23.2-3.5 6.6-10.1 10.6-17.1 13.6 3 0 6 0 9.6-.5 7.1-1.5 13.6-4.5 18.1-10.1 2-2.5 4-5 6-8.1 2-3.5 4-6.6 5.5-10.6.5-5.9 0-12.5-2-18z"/><g id="XMLID_36_"><g id="XMLID_76_"><path id="XMLID_80_" class="st4" d="M112.8 160.2c-12.1 7.1-39.3 13.1-48.9-2.5-.5 1.5-1.5 2.5-2 4 11.1 0 20.7-4.5 28.7-11.6 9.1-8.1 27.7-41.8 42.8-25.7 1 1 3 1 4-.5 5-10.6 19.2-22.2 31.8-16.6 1 .5 2 .5 3-.5 6-6.6 13.6-12.6 22.7-15.1 18.6-4.5 27.7 11.1 16.6 26.2-1 1.5 0 3.5 1.5 3.5 6.6 1.5 12.6 1 18.6 4 13.6 7.1 18.6 26.2 11.1 39.3-5 8.6-11.6 16.1-21.2 19.2-14.6 4.5-29.2 0-35.8-14.1-1.5-3-5.5-.5-4.5 2.5v.5c.5-1 1-2.5 1.5-3.5-6.6 2-12.6 3.5-19.7 4-11.6 1-18.6-4-24.7-14.1-.5 1.5-1.5 2.5-2 4h.5l-1.5-4.5c-5.5 3.5-14.6 5.5-21.2 1.5-3-1.5-5.5 2.5-2.5 4.5 8.1 4.5 18.6 3 26.2-1.5 2-1.5 1-4.5-1.5-4.5h-.3c-2 0-3 2.5-2 4 12.6 20.2 28.7 18.1 49.4 12.1 1.5-.5 2-2 1.5-3.5v-.5c-1.5 1-3 1.5-4.5 2.5 13.1 27.7 49.4 20.7 63.5-2 8.6-13.6 8.6-26.7-.5-40.3-8.6-13.1-16.1-11.1-30.2-13.6.5 1 1 2.5 1.5 3.5 6.6-8.6 10.1-19.7 2-28.7-7.1-8.1-20.2-6.6-29.2-3-6 2.5-9.6 6-14.6 9.6-6 4-8.1 1-14.6 2.5-11.1 2-21.2 10.6-25.7 20.7 1.5 0 2.5-.5 4-.5-7.6-8.1-18.1-6.6-26.2 0-17.1 13.6-23.2 35.8-48.9 36.3-2 0-3 2-2 4 10.6 18.6 40.3 12.6 55.4 4 3.4-3 .9-7.1-2.1-5.6z"/></g></g><g id="XMLID_37_"><g id="XMLID_70_"><path id="XMLID_74_" class="st4" d="M187.4 171.3c-9.6-21.2 19.2-47.9 35.3-26.2 6 8.6 5 22.7-5 27.7-6.6 3-13.6.5-16.1-6-3-10.1 7.6-15.1 15.6-12.6 3 1 4.5-4 1.5-5-7.6-2.5-17.1.5-21.7 7.6-3.5 5.5 0 12.6 3.5 17.1 10.1 11.6 27.2 2.5 30.2-11.1 3.5-17.1-10.1-33.3-27.7-30.2-18.6 3-28.2 24.7-20.7 40.8 2.1 3.5 6.1.5 5.1-2.1z"/></g></g><g id="XMLID_30_"><g id="XMLID_58_"><path id="XMLID_62_" class="st4" d="M140 160.2c-3-6-2-14.1 4-18.1 6.6-4.5 15.6-7.6 20.2 1.5 3.5 6.6 3 15.6-5.5 17.6-4.5 1-14.6-1.5-13.1-8.6 1-4.5 6-7.1 10.1-6 3 1 4.5-4 1.5-5-10.1-2.5-22.2 9.6-14.1 18.6 8.1 9.6 26.2 6.6 28.7-6.6 1-5.5-1.5-12.6-5-17.1-4.5-5.5-11.6-5.5-17.6-3-5.5 2-11.6 5.5-14.1 11.1-2.5 5.5-1.5 12.1 1 17.1.9 4.1 5.4 1.6 3.9-1.5z"/></g></g><g id="XMLID_3_"><g id="XMLID_52_"><path id="XMLID_56_" class="st4" d="M168.2 103.8c-6 5.5-2.5 17.6 2.5 22.7 6.6 7.1 17.6 4 24.2-2 6-5 9.6-17.1 0-20.7-9.1-3.5-15.6 5.5-15.1 13.6 0 3 5 3 5 0 0-2 0-4.5 1.5-6.6 3.5-4.5 10.1-3 10.1 2.5 0 5-6 9.1-10.1 10.6-5.5 2-10.6.5-13.1-5-1.5-3-3.5-9.6-.5-12.1 1.6-1.5-1.9-5.5-4.5-3z"/></g></g></g></svg>