<svg version="1.0" xmlns="http://www.w3.org/2000/svg" width="300" height="260" style="enable-background:new 0 0 300 260" xml:space="preserve"><style>.st0{fill:#e5e5e5}.st1{fill:#9a9999}.st2{fill:#262525}.st3{fill:#e9e8e8}.st4{fill:#8e8e8e}.st5{fill:#313131}.st6{display:none}.st7,.st8,.st9{display:inline}.st8,.st9{fill:#e5e5e5}.st9{fill:#9a9999}</style><g id="cloud1"><g id="Calque_1"><path id="XMLID_195_" class="st0" d="M86.4 136.8c-8.6 5.1-19.2 7.1-28.6 5.1-4.3-.8-8.6-2.7-11-6.3l-.8-1.2c6.7.4 12.9-2.4 18.4-6.3 5.1-3.9 9.4-9.4 13.7-14.5 2-2.7 4.3-5.5 7.1-7.4 2.7-2.4 5.9-3.9 9-3.9 3.5-.4 7.1 1.2 9 3.9 2-5.1 5.5-8.2 10.2-11.4 2.7-1.6 5.1-3.1 8.2-3.9 3.1-.8 6.3-.4 9 1.2.8-1.6 2.7-2.4 3.9-3.9 5.1-5.5 12.5-9 20.4-9 4.3 0 8.6.8 11 3.9 1.2 1.6 2 3.1 2.4 5.1.4 1.2.8 2.7.8 4.3 0 3.9-2.4 7.8-5.1 11l2.4.4c2.7.4 5.5.4 8.2.8 1.6 0 3.5.4 5.1 1.2 1.2.8 2.4 2 3.1 3.1 3.1 3.5 5.9 7.4 7.4 11.8 1.6 4.3 2.4 9.4.8 13.7-.8 2.7-2.7 5.5-4.3 8.2-1.6 2.4-2.7 4.3-4.7 6.3-3.5 3.9-9 6.7-14.1 7.8-5.5 1.2-11 .4-16.1-1.2-1.2-.4-2.4-.8-3.5-1.6-1.2-.4-2-1.2-2.7-2-2.4-2.4-3.9-5.1-5.1-7.8v.4c-5.1 1.6-10.2 2.7-15.3 3.5-2 .4-3.9.4-6.3.4-3.1-.4-6.3-2-9-4.3-2.4-2.4-4.3-5.1-5.9-7.8h.4c-1.6 1.2-3.1 2.4-5.1 2.7-1.2.4-2.7.4-3.9.4-3.1-1.1-5.8-.4-9-2.7"/><path id="XMLID_194_" class="st1" d="M190.3 120.3c-1.6-4.3-4.3-8.2-7.4-11.8-.8-1.2-2-2.4-3.1-3.1-1.6-.8-3.5-1.2-5.1-1.2-2.7-.4-5.5-.4-8.2-.8l-2.4-.4c2.4-3.1 5.1-6.7 5.1-11 0-1.6-.4-2.7-.8-4.3-.8-1.6-1.2-3.5-2.4-5.1-2.4-3.1-7.1-4.3-11-3.9-7.4.4-14.9 3.5-20.4 9-1.2 1.6-3.1 2-3.9 3.9-2.7-1.6-5.9-2-9-1.2-3.1.8-5.9 2-8.2 3.9-4.7 2.7-8.2 6.3-10.2 11.4-2-2.7-5.5-4.3-9-3.9-3.5.4-6.7 2-9 3.9-2.7 2.4-4.7 5.1-7.1 7.4-3.9 5.1-8.2 10.2-13.7 14.5-5.1 3.9-11.8 6.7-18.4 6.3l.8 1.2c2.4 3.5 6.7 5.5 11 6.3.4 0 .8 0 1.2.4 1.6-.4 3.1-.8 4.3-1.2 7.1-2.7 13.3-8.2 16.5-15.3 1.2-2.7 2-5.9 3.5-8.6 1.6-2.7 3.1-5.5 5.9-6.7 4.3-2 10.6 0 12.5 4.7l.4.4c1.2-3.9 3.9-7.1 7.1-9.4 3.1-2.4 7.1-3.9 11-5.1 2.4-.8 5.1-1.2 7.4-.4 2.4.8 4.3 3.5 3.5 5.9l1.6 2.7c0-6.3 5.1-11.8 10.6-14.1 1.6-.8 3.5-1.2 5.5-1.2s3.9.8 5.1 2c1.6 1.6 2 4.3 1.6 7.1s-1.2 5.5-2.4 7.8l.8-.8c3.5.4 6.7 2.4 9.4 4.7 4.7 3.9 9 8.6 11.4 14.1 2.4 5.5 2.7 12.5 0 18-2.7 5.1-7.8 8.2-13.3 10.6 2.4 0 4.7 0 7.4-.4 5.5-1.2 10.6-3.5 14.1-7.8 1.6-2 3.1-3.9 4.7-6.3 1.6-2.7 3.1-5.1 4.3-8.2.6-4.6.2-9.7-1.7-14z"/><g id="XMLID_187_"><g id="XMLID_189_"><path id="XMLID_193_" class="st2" d="M85.6 135.2c-9.4 5.5-30.6 10.2-38-2-.4 1.2-1.2 2-1.6 3.1 8.6 0 16.1-3.5 22.3-9 7.1-6.3 21.6-32.5 33.3-20 .8.8 2.4.8 3.1-.4 3.9-8.2 14.9-17.2 24.7-12.9.8.4 1.6.4 2.4-.4 4.7-5.1 10.6-9.8 17.6-11.8 14.5-3.5 21.6 8.6 12.9 20.4-.8 1.2 0 2.7 1.2 2.7 5.1 1.2 9.8.8 14.5 3.1 10.6 5.5 14.5 20.4 8.6 30.6-3.9 6.7-9 12.5-16.5 14.9-11.4 3.5-22.7 0-27.8-11-1.2-2.4-4.3-.4-3.5 2v.4c.4-.8.8-2 1.2-2.7-5.1 1.6-9.8 2.7-15.3 3.1-9 .8-14.5-3.1-19.2-11-.4 1.2-1.2 2-1.6 3.1h.4c-.4-1.2-.8-2.4-1.2-3.5-4.3 2.7-11.4 4.3-16.5 1.2-2.4-1.2-4.3 2-2 3.5 6.3 3.5 14.5 2.4 20.4-1.2 1.6-1.2.8-3.5-1.2-3.5h-.4c-1.6 0-2.4 2-1.6 3.1 9.8 15.7 22.3 14.1 38.4 9.4 1.2-.4 1.6-1.6 1.2-2.7v-.4c-1.2.8-2.4 1.2-3.5 2 10.2 21.6 38.4 16.1 49.4-1.6 6.7-10.6 6.7-20.8-.4-31.4-6.7-10.2-12.5-8.6-23.5-10.6.4.8.8 2 1.2 2.7 5.1-6.7 7.8-15.3 1.6-22.3-5.5-6.3-15.7-5.1-22.7-2.4-4.7 2-7.4 4.7-11.4 7.4-4.7 3.1-6.3.8-11.4 2-8.6 1.6-16.5 8.2-20 16.1 1.2 0 2-.4 3.1-.4-5.9-6.3-14.1-5.1-20.4 0-13.3 10.6-18 27.8-38 28.2-1.6 0-2.4 1.6-1.6 3.1 8.2 14.5 31.4 9.8 43.1 3.1 3.1-2 1.1-5.2-1.3-4z"/></g></g><g id="XMLID_180_"><g id="XMLID_182_"><path id="XMLID_186_" class="st2" d="M143.3 143.8c-7.4-16.5 14.9-37.2 27.4-20.4 4.7 6.7 3.9 17.6-3.9 21.6-5.1 2.4-10.6.4-12.5-4.7-2.4-7.8 5.9-11.8 12.1-9.8 2.4.8 3.5-3.1 1.2-3.9-5.9-2-13.3.4-16.9 5.9-2.7 4.3 0 9.8 2.7 13.3 7.8 9 21.2 2 23.5-8.6 2.7-13.3-7.8-25.9-21.6-23.5-14.5 2.4-21.9 19.2-16.1 31.7 1.7 2.4 5.2.4 4.1-1.6z"/></g></g><g id="XMLID_166_"><g id="XMLID_168_"><path id="XMLID_172_" class="st2" d="M106.8 135.2c-2.4-4.7-1.6-11 3.1-14.1 5.1-3.5 12.1-5.9 15.7 1.2 2.7 5.1 2.4 12.1-4.3 13.7-3.5.8-11.4-1.2-10.2-6.7.8-3.5 4.7-5.5 7.8-4.7 2.4.8 3.5-3.1 1.2-3.9-7.8-2-17.2 7.4-11 14.5 6.3 7.4 20.4 5.1 22.3-5.1.8-4.3-1.2-9.8-3.9-13.3-3.5-4.3-9-4.3-13.7-2.4-4.3 1.6-9 4.3-11 8.6s-1.2 9.4.8 13.3c.9 3.2 4.4.9 3.2-1.1z"/></g></g><g id="XMLID_159_"><g id="XMLID_161_"><path id="XMLID_165_" class="st2" d="M128.8 91.3c-4.7 4.3-2 13.7 2 17.6 5.1 5.5 13.7 3.1 18.8-1.6 4.7-3.9 7.4-13.3 0-16.1-7.1-2.7-12.1 4.3-11.8 10.6 0 2.4 3.9 2.4 3.9 0 0-1.6 0-3.5 1.2-5.1 2.7-3.5 7.8-2.4 7.8 2 0 3.9-4.7 7.1-7.8 8.2-4.3 1.6-8.2.4-10.2-3.9-1.2-2.4-2.7-7.4-.4-9.4 1.2-1.5-1.6-4.2-3.5-2.3z"/></g></g><g id="cloud2_-_copie"><path id="XMLID_205_" class="st3" d="M150.3 145.4c-7.1 0-14.5 1.6-20 5.9-5.9 4.3-9.4 11.4-8.6 18.4.8 5.1 3.9 9.4 8.2 12.1 4.3 2.7 9.4 3.9 14.5 3.9 4.3 0 8.6-2 11.8-4.7 7.8 4.7 18 5.1 26.3.8l1.6-1.6c3.9 6.3 8.6 12.5 15.3 15.3 3.1 1.2 6.7 1.6 10.2 1.2 6.7-.8 12.9-3.5 17.6-7.8 4.3-3.9 7.8-9.8 6.3-15.3 7.1-.4 14.1-3.5 18-9.4 1.2-2 2.4-4.3 2.7-7.1 0-2.4-.4-4.7-1.2-6.7-2-5.1-5.5-10.6-11.4-11.8.4-3.9 1.6-9.4.4-13.3-1.2-3.9-3.5-7.8-7.1-9.8-3.1-2-7.4-2.4-11-2-7.4.4-14.5 2.7-20.8 6.7-2 1.2-3.9 2.7-4.7 5.1-.8-1.2-1.6-2-2.7-1.6-3.1.4-5.9 1.2-8.6 2.4-2.7 1.2-5.1 3.1-6.7 5.5-.4 1.2-1.2 2.4-.4 3.1-3.1-1.6-5.1-3.1-8.6-3.1s-7.4.4-11 2c-2 1.2-3.9 2.4-5.5 3.9-3 2.8-5 4-4.6 7.9"/><path id="XMLID_204_" class="st4" d="M253 150.9c-2-5.5-5.9-10.6-11.4-11.8.4-3.9 1.6-9.4.4-13.3-1.2-3.9-3.5-7.8-7.1-9.8s-7.4-2.4-11-2c-7.4.4-14.5 2.7-20.8 6.7-2 1.2-3.9 2.7-4.7 5.1-.8-1.2-1.6-2-2.7-1.6-3.1.4-5.9 1.2-8.6 2-2.7 1.2-5.1 3.1-6.7 5.5-.8 1.2-1.2 2.4-.4 3.1-3.1-1.6-5.1-3.1-8.6-3.1-3.9 0-7.4.4-11 2-2 1.2-3.5 2.4-5.5 3.9-3.1 2.7-5.5 3.5-5.1 7.8-7.1 0-14.5 1.6-20 5.9-5.9 4.3-9.4 11.4-8.6 18.4.4 3.5 2.4 6.3 4.3 9 .4-1.2 1.2-2.4 1.6-3.5 1.2-2.4 2.7-4.7 4.7-6.3 3.9-3.9 10.2-5.1 15.3-3.5v.4c5.5-9.4 16.5-15.7 27.4-15.3h1.2c.4-1.6 1.2-2.4 2.4-3.5 7.1-6.7 16.1-11 25.9-11.8v.4c0-2 2-3.1 3.9-3.9 2-.4 3.9-.8 5.9-1.2 2.4 0 5.1 0 6.7 1.6 2 1.6 2.4 4.3 2.4 7.1 0 5.5-3.1 10.6-7.4 13.7l5.1-3.1c3.9 0 7.8 3.1 9.8 6.7s2.7 7.8 3.5 11.8c.4 1.6.4 3.5.4 5.5 6.7-.4 13.3-3.9 16.9-9.4 1.6-2 2.4-4.3 2.7-7.1.3-2.1-.1-4.4-.9-6.4z"/><g id="XMLID_197_"><g id="XMLID_199_"><path id="XMLID_203_" class="st5" d="M150.3 143.5c-11.4.4-23.5 3.9-28.6 14.9-4.3 9-1.6 18.8 6.3 24.3 4.7 3.5 10.6 5.1 16.5 5.1 4.7-.4 8.2-3.5 12.1-3.9 2.4-.4 5.1 1.6 7.4 2 3.1.8 6.3.8 9.8.4 4.3-.4 8.2-2 11.8-4.7-1.2 0-2-.4-3.1-.4 7.4 11.4 16.5 20 31 16.9 11.8-2.4 23.9-11.8 21.9-24.7-.8.8-1.2 1.6-2 2.4 9-.8 19.6-5.5 22.3-15.3 2.4-9.4-4.3-20.4-13.3-23.1l1.2 2.4c1.6-11 .8-23.9-11.8-27-10.2-2.7-29.4 1.6-34.5 12.1 1.2 0 2-.4 3.1-.4-6.3-6.3-23.1 2.4-21.9 11 .8-.8 2-1.6 2.7-2.4-10.2-5.9-32.5-2.7-32.5 12.1 0 2.4 3.9 2.4 3.9 0 0-5.1 7.4-9.8 11.4-11 5.5-1.6 10.6-.8 15.3 2 1.6.8 3.1-.8 2.7-2.4-.8-4.7 12.1-11 15.3-7.4.8.8 2.4.8 3.1-.4 3.5-7.4 17.6-11 25.1-10.6 14.5.4 16.1 11.4 14.5 22.7 0 1.2.4 2 1.2 2.4 9.8 3.1 14.5 16.5 7.4 24.3-3.9 4.3-9.4 6.3-15.3 6.7-1.6 0-2 1.2-2 2.4 2 12.5-14.5 21.9-25.5 20.4-10.2-1.2-15.3-7.8-20.4-15.3-.8-1.2-2-1.2-3.1-.4-6.7 5.9-18.4 3.9-25.5.4-.8-.4-1.6-.4-2.4.4-10.6 9-31.4 2.7-31.4-12.5 0-14.1 15.3-19.2 26.6-19.6 3.5.1 3.5-3.8.7-3.8z"/></g></g><g id="Calque_5_-_copie"><g id="XMLID_143_"><g id="XMLID_145_"><path id="XMLID_149_" class="st5" d="M163.2 181.9c-15.3-5.1-11-27 3.9-29 6.7-.8 15.7 7.1 11.8 14.5-1.2 2.4-4.7 4.7-7.8 5.1-2.7.8-4.7.4-6.7-1.6-2.4-3.1-1.2-6.3 3.1-9 2.4.8 3.5-3.1 1.2-3.9-11-3.1-12.1 13.7-4.3 17.6 11 5.5 23.1-8.2 17.2-18.4-2.7-5.1-6.7-8.6-12.5-8.6-6.3 0-11 2.4-14.9 7.4-8.2 10.2-5.5 25.1 7.8 29.4 2.8 1.2 3.6-2.8 1.2-3.5z"/></g></g><g id="XMLID_136_"><g id="XMLID_138_"><path id="XMLID_142_" class="st5" d="M154.6 159.1c-4.7-2.7-12.9-3.1-18-.4s-8.6 9-6.3 14.5c2 4.7 7.8 7.4 12.5 5.5 5.5-2.4 4.3-9.8 2-13.7-1.2-2.4-4.7-.4-3.5 2 2 3.5 2 9.4-3.5 8.6-5.5-1.2-5.9-6.7-2.7-10.2 3.5-4.3 12.1-5.5 16.9-2.7 2.6 1.1 4.6-2 2.6-3.6z"/></g></g><g id="XMLID_99_"><g id="XMLID_101_"><path id="XMLID_105_" class="st5" d="M227.9 191.3c2.4-2.4 3.5-4.7 4.3-7.8s2.7-6.7 2.4-10.2c-.4-5.1-5.1-9.8-9.4-12.1-11.8-5.9-25.5 1.2-26.3 14.5-.8 12.1 14.5 16.5 21.6 7.8 3.1-3.5 4.3-9.8 1.2-13.7-4.7-5.9-9.8-.4-14.5 2-2.4 1.2-.4 4.3 2 3.5.8-.4 1.6-.4 2-1.2 2.4-2.7 5.1-2 8.2 3.1-.4 4.7-6.7 8.2-11 7.1-10.6-2.4-5.1-16.9 1.6-20 6.3-2.7 14.5-.8 18.4 5.1 3.1 4.7 0 15.3-3.9 19.2-1.3 1.9 1.4 4.6 3.4 2.7z"/></g></g><g id="XMLID_92_"><g id="XMLID_94_"><path id="XMLID_98_" class="st5" d="M206.7 165.4c4.3-7.4 5.5-16.9-3.1-21.9-7.8-4.7-16.5-1.2-18.8 7.8-2 6.7 3.9 15.3 11 11 2.7-1.6 5.1-5.5 5.1-8.6 0-2-1.2-5.5-3.9-4.7-2.4.8-1.2 4.7 1.2 3.9-1.6.4-2 4.7-3.9 5.9-3.9 2.4-6.3-.8-6.3-3.9.4-4.7 4.3-9 9-8.6 4.3.4 8.2 3.1 9 7.4 1.2 3.9-.8 7.4-2.7 10.6-.9 1.5 2.3 3.4 3.4 1.1z"/></g></g><g id="XMLID_29_"><g id="XMLID_45_"><path id="XMLID_91_" class="st5" d="M240 140.3c3.9 11.8-18.8 12.5-22.3 2-1.6-5.5 1.6-11.4 7.1-12.9 3.5-.8 6.7.8 7.4 4.3 1.6 3.1-.4 5.1-5.5 5.9-.8-.8-1.6-1.6-2-2.4-1.6-2-4.3.8-2.7 2.7 2.7 3.1 6.7 6.3 11.4 3.9 4.3-2.4 4.3-7.4 3.1-11.4-1.6-4.3-3.9-7.8-8.6-7.8s-9.8 3.1-12.1 7.1c-5.1 9 .8 19.6 10.6 21.6 9 2 21.9-3.1 18-14.5-1.2-2-5.1-.8-4.4 1.5z"/></g></g></g></g></g></g></svg>