<svg version="1.0" xmlns="http://www.w3.org/2000/svg" width="300" height="260" style="enable-background:new 0 0 300 260" xml:space="preserve"><style>.st0{display:none}.st2,.st8,.st9{display:inline}.st8,.st9{fill:#515250}.st9{fill:#262626}.st10{fill:#fbf7cb}.st11{fill:#f3eab1}.st14{fill:#efa624}.st15{fill:#fff48b}.st16{fill:#e0c17d}.st17{fill:#cbb577}.st18{fill:#fffad9}.st19{fill:#f7f0d0}.st20{fill:#fffada}</style><g id="fireDust6"><g id="base_-_copie_5"><path id="XMLID_62_" class="st10" d="M130.2 139.9s-6.4-2.2-6-10.5c.2-2.5 3.8-5.9 5.1-5.6 0 0-1.2-1.2-.6-2.9.6-1.6 1.4-4.1 2.4-3.9 0 0 5.1 7.9 6.4 5.1 1.4-3.1 7 .5 9-3.8 0 0 2.6-7.6-1.6-10.9 0 0-3-3.7-.7-7s9-.9 9-.9 4.1-.6 7.4.4c2.3.7 4.4 2.9 4.4 2.9s2.7 1.5 2.4 3.3c0 0-.7 2.4 1 3.6s3.9 2.9 3.9 2.9 3.1 2.4 2.8 9.3c-.4 6.8-10.2 9.4-12.9 9.2 0 0-10.7 0-10.3 2.2 0 0 1.1 6.8 5.1 10.5 3.7 3.5.5 7-2.4 4.2 0 0-.3.9-1.8.4s-1.3-1.7-1.3-1.7-.2.9-1.5.6c-1.3-.3-1.4-1.5-1.4-1.5s-.2 1-1.2 1.2c-.9.2-1.8-.1-1.8-.1s-2.1 3-5.8 2.3c-3.7-.7-4.7-5.1-4.7-5.1s-1.2.4-3.4-1.2-1.5-3-1.5-3z"/></g><g id="Calque_26_-_copie_5"><g id="XMLID_58_"><path id="XMLID_63_" class="st11" d="M152.6 131.7c-.6.5-7.4 3.6-8 3.5-2.1-.4-4.5.1-4.9.2-.4.1-1 .2-2.1 0-1.3-.2-2-1.1-2.4-1.9-.3-.5-.7-.9-1.3-1-.6-.1-1.4-.3-2.5-.9-1.8-1-.3-2.8.4-3.6.3-.3.5-.8.5-1.3 0-.7-.4-1.4-.7-1.9-.3-.4-.7-.7-1.2-.8-.4-.1-.7-.1-.9-.2-.4-.1-.8-.1-1.2 0-1.6.7-4 3.4-4.2 5.4-.4 6.3 3.2 9.1 5 10.1.5.3.8.8.9 1.4.1.5.4 1.3 1.5 2.1s1.9 1.1 2.5 1.2c.6.1 1 .5 1.2 1 .5 1.3 1.8 3.6 4.3 4 2.6.5 4.5-.9 5.3-1.7.3-.3.8-.5 1.3-.5.3 0 .7 0 1.1-.1.1 0 .2-.1.3-.1.6-.2 1.2-.3 1.7.1.2.1.4.2.7.3.2.1.4.1.6.1.5 0 1 .1 1.4.5.2.2.5.4.8.5.5.2.9.2 1.2.1.6-.1 1.1 0 1.6.3 2.4 1.9 5.8 0 5.2-2.6-.7-3.2-5.5-6.6-6.3-8.4-.9-2.1.8-4.7 1.6-5.1.8-.4 3.7-1.2 4.2-1.3.7-.1 5.6-.6 6.1-.8 1.1-.5 6.9-2.7 7.4-5"/></g><path id="XMLID_60_" class="st11" d="M142.8 135.5s3.6-.8 4.8-2.7 4.1-2.1 5.6-2.4 3.2-1.8 4.8-2 3.8.6 5.3 0 3.2-1.8 4.1-2.3 3.6-1.5 4.2-1.1 2.8-1.6 2.8-.7c0 2.8-8 5.7-8 5.7l-12.9 2.9-4 3.5-6.7-.9z"/></g><g id="details_-_copie_5"><g id="XMLID_48_"><path id="XMLID_53_" class="st16" d="M144.5 145.4s-2.7 2.3-5.6 1.9c-2.9-.4-2.9-4.5-2.9-4.5s-1 .2-3.2-1 1.1-6.1 1.1-6.1c-3-.7-3.9 2.3-4.1 2.3-5.5-2.9-4.7-9.2-4.2-11.6-.8 1-1.4 2.1-1.4 3-.4 7 3.8 9.7 5.1 10.4.2.1.3.3.4.6 0 .5.4 1.5 1.8 2.5 1.1.8 1.9 1.1 2.5 1.2.5.1 1 .4 1.2.9.5 1.3 1.8 3.6 4.4 4.1 3.7.7 5.5-1.8 5.5-1.8s.6-.4 1-.4l-.7-.6c-.2-.1-.3-.3-.4-.5l-.5-.4z"/><path id="XMLID_52_" class="st16" d="M152.6 148.3c.3.5 2.4.5 2.4.5.4.5.5.1 1.1.4-.1-.1-.2-.2-.5-.3-3.4-2.1-3.4-7.2-3.4-7.2-1.5 1.1-.7 5.3-.7 5.3-1.8.1-3.2-1.3-3.2-1.3v.2s.1 1.3 1.4 1.5"/></g><path id="XMLID_47_" class="st18" d="M163.7 118.6s.9 2.9 3.3 2.5c2.4-.4 3-2.6 3-2.6s1.7-.6.9-1.8c-.8-1.2-4.7-.9-4.7-.9s-5.1-2.2-5.5.7c-.5 2.9 3 2.1 3 2.1z"/><path id="XMLID_38_" class="st19" d="M140.1 143.6s-2.3.2-2.6-1.8 1.9-1.2 1.9-1.2.4-1 2.3-.4c1.8.7 1.8 1.5 1.8 1.5s1.3.9.4 1.8-2.1.7-2.1.7-.4.5-1.1.1c-.7-.2-.6-.7-.6-.7z"/><path id="XMLID_37_" class="st20" d="M151.6 106.4s-1.7-.5-1-1.9c.7-1.5 2.8-.2 2.8-.2s1.9-.3 2.4.5c.5.9-.5 1.6-.5 1.6s.4 1.3-.6 1.4c-.9 0-3.1-.3-3.1-1.4z"/><path id="XMLID_31_" class="st19" d="M148.8 143.1s-.3 1.4-1.8.9-.7-2.2-.7-2.2-.5-.6.6-1.6 2.1-.2 2.1-.2 1-.6 1.4.3 0 1.2 0 1.2-.1.9-.5 1.3c-.6.3-1.1.3-1.1.3z"/></g></g></svg>