<svg version="1.1" id="Calque_1" xmlns="http://www.w3.org/2000/svg" x="0" y="0" width="1000" height="1000" style="enable-background:new 0 0 1000 1000" xml:space="preserve"><style>.st2{opacity:.36;fill:#046939;enable-background:new}.st3{display:none}.st24{display:inline}.st25{fill:none;stroke:#343434;stroke-width:7;stroke-miterlimit:10}</style><radialGradient id="XMLID_3_" cx="501" cy="489.11" r="329.9" gradientTransform="matrix(1 0 0 -1 0 1000.11)" gradientUnits="userSpaceOnUse"><stop offset="0" style="stop-color:#019544"/><stop offset=".512" style="stop-color:#009545"/><stop offset=".722" style="stop-color:#009747"/><stop offset=".876" style="stop-color:#009c4a"/><stop offset="1" style="stop-color:#08a651"/></radialGradient><path id="XMLID_58_" d="M501 181.1c-182.2 0-329.9 147.7-329.9 329.9S318.8 840.9 501 840.9 830.9 693.2 830.9 511 683.2 181.1 501 181.1zm0 561.2c-127.8 0-231.3-103.6-231.3-231.3S373.2 279.7 501 279.7 732.3 383.2 732.3 511 628.8 742.3 501 742.3z" style="fill:url(#XMLID_3_)"/><radialGradient id="XMLID_19_" cx="501" cy="489.11" r="231.3" gradientTransform="matrix(1 0 0 -1 0 1000.11)" gradientUnits="userSpaceOnUse"><stop offset="0" style="stop-color:#8fc044"/><stop offset=".04" style="stop-color:#88be43"/><stop offset=".319" style="stop-color:#5dac44"/><stop offset=".581" style="stop-color:#389e44"/><stop offset=".816" style="stop-color:#0c9744"/><stop offset="1" style="stop-color:#019544"/></radialGradient><circle id="XMLID_54_" cx="501" cy="511" r="231.3" style="fill:url(#XMLID_19_)"/><g id="圖層_3"><circle id="XMLID_15_" class="st2" cx="309.5" cy="463.1" r="7.1"/><ellipse id="XMLID_55_" class="st2" cx="327" cy="432" rx="4.4" ry="4.1"/><ellipse id="XMLID_16_" class="st2" cx="285.1" cy="369.9" rx="5.3" ry="5.1"/><ellipse id="XMLID_59_" class="st2" cx="291.5" cy="438.9" rx="3" ry="2.8"/></g><g id="圖層_3_拷貝_2"><circle id="XMLID_67_" class="st2" cx="346.2" cy="620" r="7.1"/><ellipse id="XMLID_66_" class="st2" cx="363.8" cy="589" rx="4.4" ry="4.1"/><ellipse id="XMLID_65_" class="st2" cx="321.8" cy="526.8" rx="5.3" ry="5.1"/><ellipse id="XMLID_64_" class="st2" cx="328.3" cy="595.9" rx="3" ry="2.8"/></g><g id="圖層_3_拷貝"><circle id="XMLID_63_" class="st2" cx="544.2" cy="681.8" r="7.1"/><ellipse id="XMLID_62_" class="st2" cx="561.7" cy="650.8" rx="4.4" ry="4.1"/><ellipse id="XMLID_61_" class="st2" cx="519.8" cy="588.6" rx="5.3" ry="5.1"/><ellipse id="XMLID_60_" class="st2" cx="526.2" cy="657.7" rx="3" ry="2.8"/></g><g id="圖層_3_拷貝_5"><circle id="XMLID_99_" class="st2" cx="478" cy="384.9" r="7.1"/><ellipse id="XMLID_98_" class="st2" cx="495.5" cy="353.9" rx="4.4" ry="4.1"/><ellipse id="XMLID_90_" class="st2" cx="453.6" cy="291.7" rx="5.3" ry="5.1"/><ellipse id="XMLID_76_" class="st2" cx="460" cy="360.8" rx="3" ry="2.8"/></g><g id="圖層_3_拷貝_4"><circle id="XMLID_108_" class="st2" cx="514.7" cy="541.9" r="7.1"/><ellipse id="XMLID_107_" class="st2" cx="532.2" cy="510.8" rx="4.4" ry="4.1"/><ellipse id="XMLID_106_" class="st2" cx="490.3" cy="448.7" rx="5.3" ry="5.1"/><ellipse id="XMLID_105_" class="st2" cx="496.7" cy="517.7" rx="3" ry="2.8"/></g><g id="圖層_3_拷貝_3"><circle id="XMLID_71_" class="st2" cx="712.7" cy="603.7" r="7.1"/><ellipse id="XMLID_70_" class="st2" cx="730.2" cy="572.6" rx="4.4" ry="4.1"/><ellipse id="XMLID_69_" class="st2" cx="688.3" cy="510.5" rx="5.3" ry="5.1"/><ellipse id="XMLID_68_" class="st2" cx="694.7" cy="579.6" rx="3" ry="2.8"/></g><g id="圖層_3_拷貝_8"><circle id="XMLID_111_" class="st2" cx="441.3" cy="513.6" r="7.1"/><ellipse id="XMLID_110_" transform="rotate(174.977 408.865 498.888) scale(1.00004)" class="st2" cx="408.9" cy="498.9" rx="4.1" ry="4.4"/><ellipse id="XMLID_109_" transform="rotate(174.977 350.582 546.054) scale(1.00004)" class="st2" cx="350.6" cy="546.1" rx="5.1" ry="5.3"/><ellipse id="XMLID_104_" transform="rotate(174.977 418.813 533.653) scale(1.00004)" class="st2" cx="418.8" cy="533.7" rx="2.8" ry="3"/></g><g id="圖層_3_拷貝_7"><circle id="XMLID_120_" class="st2" cx="594.4" cy="463.3" r="7.1"/><ellipse id="XMLID_119_" transform="rotate(174.977 561.924 448.555) scale(1.00004)" class="st2" cx="561.9" cy="448.6" rx="4.1" ry="4.4"/><ellipse id="XMLID_117_" transform="rotate(174.977 503.741 495.713) scale(1.00004)" class="st2" cx="503.7" cy="495.7" rx="5.1" ry="5.3"/><ellipse id="XMLID_116_" transform="rotate(174.977 571.972 483.312) scale(1.00004)" class="st2" cx="572" cy="483.3" rx="2.8" ry="3"/></g><g id="圖層_3_拷貝_6"><circle id="XMLID_75_" class="st2" cx="638.6" cy="260.7" r="7.1"/><ellipse id="XMLID_74_" transform="rotate(174.977 606.16 245.89) scale(1.00004)" class="st2" cx="606.2" cy="245.9" rx="4.1" ry="4.4"/><ellipse id="XMLID_73_" transform="rotate(174.977 547.986 293.148) scale(1.00004)" class="st2" cx="548" cy="293.1" rx="5.1" ry="5.3"/><ellipse id="XMLID_72_" transform="rotate(174.977 616.208 280.647) scale(1.00004)" class="st2" cx="616.2" cy="280.6" rx="2.8" ry="3"/></g></svg>