<svg version="1.0" id="圖層_1" xmlns="http://www.w3.org/2000/svg" x="0" y="0" width="300" height="260" style="enable-background:new 0 0 300 260" xml:space="preserve"><style>.st3{fill:#39b54a}.st5{fill:#019547;stroke:#046938;stroke-width:.5;stroke-miterlimit:10}.st6{opacity:.16;fill:#010101;enable-background:new}.st7{fill:#046938}</style><g id="small"><g id="XMLID_527_" style="opacity:.7"><path id="XMLID_261_" d="M62.6 24.5c-.7-.4-.8-.9-.7-1.3.2-.4.7-.8 1.3-.9-1-.8.4-1.5.8-1.7.4-.3.8-.5 1.2-.7s.8-.4 1.3-.5c.8-.1 1.8-.1 2.7.4-.2-.4-.5-.8-.2-1.3 1.2-1.7.8-2.9 1-4.5.1-.6.3-1.2.6-1.7s.6-.9 1-1.3c2.8-2.2 6.6-1.6 10-1.2.7.1 1.4.1 2 .2.4-.6 1.1-1.1 1.8-1.3.7-.2 1.4.1 1.9.9 0-.4 0-.8.2-1 .6-.2.8.2 1.2.6-.2-.4-.2-.8-.2-1.2.6.4 1.9.4 1.9-.6.4.4.8.8 1.2 1v-.8c.9.8 2.1 1.5 3.2 2.2.6.4 1.1.8 1.6 1.2 1.2.8 2.1 2.2 2.3 3.6.1.5.1 1-.1 1.4 1-.4 1.7-1.2 2.5-1.9-.4.8.6 1 .6 1.7.2 0 .4-.2.6-.2 1 .8 1.7 1.4 3.1 1.7.4.2.6.4.8.8.2.6.5 1.2.7 1.8.6 1.2 1.1 2.5 1.5 3.8s.6 2.7.8 4.1c.2 1 .2 1.9.1 2.9-.1.5-.1 1-.2 1.4-.3 1.1-.5 2.3-.5 3.4-.1.8.3 1.6.6 2.3 0 .7.8 1.1 0 1.9 1 .6 1.4 1.9 1.2 2.9-.2 1-.4 1.9-.4 2.7 0 .4 0 .8.1 1.3.1.4.3 1 .5 1.4-1.7.2-.6 1.4-1.2 2.5-1.4 2.1-3.7 2.7-5.2 3.7-2.7 1.4-5.6 1.9-8.5 4.1-.6.2-1.2.6-1.9.4 0 .2.2.4.2.6-.4-.4-.8-.6-1.5-.6-.5-.2-1.1-.3-1.6-.4s-1.1-.2-1.6-.4c-.5-.1-1-.3-1.5-.5-1.2-1.2-2.2-2.4-3.9-3 0 2.1-2.5 1-3.5.8 1 .4.8 1.7.2 2.3-1.2 1.2-2.9 1.7-4.8 1.4-1.2-.2-2.9-1.2-2.5-2.7-2.3.2-4.8-.2-6.2-2.3-.1-.4-.6-.6-1-.9-.4-.3-.6-.6-.2-1.1h-.6c.3-.9.2-1.7-.1-2.6-.3-.8-.8-1.6-1.2-2.4-.5-1-2.4-2.9-.3-3.3-.6-.4-1.3-1-1.7-1.7-.6-1.4-.8-2.6-1.6-4-.6-1.4-1.2-3.5.2-4.3-.8-.8-.4-1.9-.8-2.9 2.5 0 2.3-3.5 1.7-5.2.2-.2 1.1-1 1.1-1z" style="opacity:.2;enable-background:new"/></g><path id="XMLID_526_" d="M64.8 25.6s-1-.9-.6-1.2c.4-.4 1.3-.4 1.3-.4s-.4-.8 0-.8h.9s-.2-.8.3-.7 1.1.2 1.1.2.4-.3.9-.2c.4.1 1.4-.5 1.8-.4s1.3.3 1.3.3-.4-.8 0-.9c0-.4-.4-1.2.6-1.5s.4-1.9.4-1.9-.7-.9-.6-1.8c0-.9.8-1 .8-1s-.3-1.2 0-1.7 1-.2 1-.2-.2-.5.2-.7c.4-.1 1 .2 1 .2s-.1-1.1.9-1.1c.9 0 .9.5.9.5s.1-.3 1-.5c.7-.3 1 .2 1 .2s.3-.5.8-.3.8.8.8.8-.3-.3.5-.2.8.7.8.7.8-.4.9-.8.3-.9.8-.9c.4 0 .9.3.9.3s.6-.2.9 0 .6.7.6.7-.2-.6.2-.9c.5-.3 1.3.3 1.3.3s-.3-.9 0-1h.8s.7-.3.9 0c.1.3-.1-.8.4-.7.5 0 1.1.7 1.1.7s0-.9.5-.7.6.8.6.8.4-.3.7.1c.4.4.3.7.3.7s.7-.5 1 0 .2.9.2.9.4 0 .6.3c.3.3.2.5.2.5s.2-.5.6-.3.5.4.5.4.6 0 .7.3.1.8.1.8.5.1.5.6c-.1.5-.5.8-.5.8s.4.7.2 1.1 1.3-.8 1.3-.8.3-.6.6-.4c.3.1 0 .9 0 .9s.4 0 .3.3.1-.7.6-.4c.4.3.9.6.7.9-.2.3.5.6.5.6s.4-.8.9-.2c.5.6.1.9.1.9s.8.4.9.8-.3.6-.3.6.5.5.6.9c.5.3.9.6.9.9s-.3 1-.3 1v1.2s1.4.5 1.6.9 1.3.7 1.1 1.1c-.2.4-.1.7-.1.7s.4 0 .4.4c.1.4-.3.6-.3.6s.3 0 .3.4-.5.9-.5.9.3.7.2.9c0 .2-.6.5-.6.5v.9s.5.2.4.5c-.1.4-.4.8-.4.8s.3.4.2.7.4.5.3.7c-.1.3-.5.9-.8.9-.4 0-.4.7-.4.7s.8.4.7.7c-.1.3.7.5.7.9s0 1.7-.2 1.6.3.9.3.9 1.2 1.1.6 1.6-.3 1.2-.3 1.2-.5.5-.8.2c-.3-.2-.3 1.1-.3 1.1s.9-.1.9.3-.4 1-.4 1 .9.6.6.8c-.2.2-.9.2-.9.4s-.3.5-.3.5.7.6.4.9c-.3.2-.9 1.5-.9 1.5s-.5.6-1 .5c-.5 0-.2.7-.8.6-.5 0-1.2-.1-1.2.3 0 .3.6 1 .1 1s-1.3.5-1.3.5-.3.8-1 .5-1.4-.9-1.4-.9-1 .1-1 .6-.6.8-1.5.9c-.9.1-.5.6-.5.6s.4 1.1 0 1.2c-.4 0-.8.4-1 .1-.1-.3-.6-.3-.6 0s-.2.6-.4.6.1.9-.5.7-.8-.4-.8-.4.3.4-.3.3c-.6-.1-.5.3-1.2.2-.6-.1-.3-.8-.7-.8-.4 0-.4-.6-.7-.5-.2.1-.3.7-.7.5-.4-.2-.7-.7-.7-.7s-.8.3-.9-.1-.1-.9-.2-.9-1.1-.3-1.1-.3.1-.6.2-.9-.2-.9-.4-.9c-.3 0-.5.3-.8.1-.2-.2-.2-.8-.2-.8s-.6-.4-.8-.2c-.2.1.2.9-.4 1.2s-1.5-.8-1.5-.8-.7.5-.9.3.9 1.1.4 1.3.5 1.2-.4 1c-.9-.1-.8.5-.8.5s-.6.4-.8 0c-.2-.3-.3.6-.6.8-.4.2-1.6 0-1.7-.5-.6 0-1.3.1-1.4-.5-.1-.5 0-1.3 0-1.3s-.9.2-.9 0c0-.3.2.6-.3.7s-.8-.2-.8-.2 0 .4-.5.4c-.4 0-.6-.4-.6-.4s-.2.5-.5.5-.6-.7-.6-.7-1.7-.1-1.8-.6-.1-.7-.1-.7-1.5.3-1.6-.4-.1-1-.1-1-.9-.1-.9-.5.4-.9.4-.9-.3-.1-.3-.4c0-.3.6-.7.6-.7s.1-.5-.3-.5-1.1-.8-1.1-.8-.1-.9-.9-.7-.7-.9-.7-.9-.7-.6-.6-.9c.1-.3.4-.5.4-.5s-.8-.3-.6-.6c.2-.3.8-.7.8-.7s-.7-.7-.6-1-.4-.2-.5-.3c-.1-.2-.1-.7-.1-.7s-.5-.4-.3-.6l.6-.6s-1.3-.3-1.3-.6.4-.8.4-.8.3-.3 0-.7-.3-1-.3-1-.6-.4-.5-.9 1-.6 1-.6.3-.4.1-.7c-.1-.3-.6-.8-.5-1.1s.2-.5.2-.5-.6-.6-.4-1c.1-.4 1.2-.5 1.2-.5s1-.2.7-.6c-.4-.5-.4-.9 0-1.1.4-.3-.4-.8-.4-.8s.1-.6-.1-.8c-.3-.2.2-.7.2-.7s-.3-.3-.2-.5.9-1 .9-1z" style="fill:#00a651;stroke:#414042;stroke-miterlimit:10"/><path id="XMLID_525_" class="st3" d="M67.7 26.7s-.9-.7-.5-1.1 1.1-.4 1.1-.4-.3-.7 0-.7h.7s-.2-.7.3-.6l1 .2s.4-.3.7-.2c.4 0 1.2-.4 1.5-.3.4.1 1.1.3 1.1.3s-.4-.6 0-.7c0-.3-.4-1.1.5-1.3.9-.2.3-1.6.3-1.6s-.6-.7-.5-1.5c0-.8.7-.9.7-.9s-.3-1 0-1.4.9-.2.9-.2-.2-.4.2-.6c.4-.1.9.2.9.2s-.1-1 .7-1 .8.4.8.4.1-.2.9-.4 1 .2 1 .2.2-.4.6-.3c.4.1.6.7.6.7s-.3-.3.4-.2c.7.1.7.6.7.6s.7-.3.8-.6.3-.7.6-.7c.4 0 .7.3.7.3s.5-.2.8 0 .5.6.5.6-.2-.5.2-.8c.4-.3 1.1.3 1.1.3s-.3-.8 0-.9.7 0 .7 0 .6-.2.7 0-.1-.7.4-.6.9.6.9.6 0-.8.4-.6.5.7.5.7.3-.2.6.1c.3.3.2.6.2.6s.6-.4.9 0 .2.8.2.8.3 0 .5.2.1.4.1.4.2-.4.5-.2.4.4.4.4.5 0 .6.2.1.7.1.7.5.1.4.5c.2.1-.1.3-.1.3s.3.6.2 1 1.1-.7 1.1-.7.3-.5.5-.4c.3.1 0 .8 0 .8s.3 0 .3.3c-.1.3.1-.6.5-.4s.7.5.6.8c-.2.3.4.5.4.5s.3-.7.8-.2.1.8.1.8.7.3.8.6c.1.3-.2.5-.2.5s.5.5.5.8c.5.2.8.5.8.8s-.2.9-.2.9v1s1.2.4 1.4.8c.2.3 1.1.6.9.9-.1.3-.1.6-.1.6s.3 0 .4.3-.3.5-.3.5.3 0 .3.4c0 .3-.4.8-.4.8s.2.6.2.8c0 .2-.5.4-.5.4v.8s.4.2.4.5c-.1.3-.3.7-.3.7s.3.4.2.6c-.1.2.3.4.3.6s-.4.7-.7.8-.3.6-.3.6.7.3.6.6.6.4.6.7 0 1.4-.2 1.3c-.2-.1.2.8.3.8.1 0 1 1 .5 1.4-.4.4-.3 1-.3 1s-.4.4-.7.2c-.2-.2-.2 1-.2 1s.8-.1.8.3c0 .3-.3.9-.3.9s.8.5.5.7c-.2.2-.8.2-.8.3s-.3.4-.3.4.6.5.3.8c-.3.2-.7 1.3-.7 1.3s-.4.5-.8.4c-.4 0-.2.6-.6.5-.4 0-1.1-.1-1 .2 0 .3.5.9.1.9s-1.1.5-1.1.5-.2.7-.8.5c-.6-.2-1.2-.8-1.2-.8s-.8.1-.8.5-.5.7-1.3.8c-1.3 0-1 .4-1 .4s.3 1 0 1-.7.3-.8.1-.5-.3-.5-.1-.1.5-.3.5c-.2 0 .1.7-.4.6-.5-.1-.7-.4-.7-.4s.3.4-.2.3c-.5-.1-.4.3-1 .2-.5-.1-.3-.7-.6-.7s-.4-.5-.6-.5c-.2.1-.3.6-.6.4s-.6-.6-.6-.6-.7.2-.8-.1c-.1-.3-.1-.8-.1-.8-.1 0-1-.2-1-.2s-.3-.4-.2-.7c.1-.3-.1-.8-.4-.7-.2 0-.5.3-.6.1-.2-.2-.1-.7-.1-.7s-.5-.3-.7-.2c-.1.1.1.8-.4 1-.5.3-1.3-.6-1.3-.6s-.6.4-.7.2.8 1 .3 1.1.4 1-.3.9c-.7-.1-.7.4-.7.4s-.5.3-.7 0-.2.5-.5.6-1.3 0-1.5-.4c-.5 0-1.1.1-1.2-.4s0-1.1 0-1.1-.8.2-.8 0 .2.5-.3.6-.6-.2-.6-.2 0 .3-.4.3-.5-.3-.5-.3-.2.4-.4.4c-.3 0-.5-.6-.5-.6s-1.4-.1-1.5-.5c-.1-.2-.1-.4-.1-.4s-1.3.2-1.4-.3c-.1-.6-.1-.9-.1-.9s-.8-.1-.8-.4c0-.4.3-.8.3-.8s-.2-.1-.2-.3.5-.6.5-.6.1-.4-.3-.4-1-.6-1-.7c0-.1-.1-.8-.7-.6s-.6-.8-.6-.8-.6-.5-.5-.8.3-.4.3-.4-.7-.2-.5-.5c.1-.2.7-.6.7-.6s-.7-.7-.7-1-.4-.1-.4-.3c-.1-.1-.1-.6-.1-.6s-.5-.3-.3-.5l.5-.5s-1.1-.2-1.1-.5.4-.7.4-.7.2-.3 0-.6-.2-.9-.2-.9-.5-.3-.4-.8c.1-.4.9-.5.9-.5s.2-.3.1-.6-.5-.7-.4-.9c.1-.3.2-.5.2-.5s-.5-.5-.4-.9 1.1-.4 1.1-.4.9-.2.6-.5c-.3-.4-.3-.7 0-1 .2-.3-.5-.7-.5-.7s.1-.5-.1-.7.2-.6.2-.6-.2-.2-.2-.4c.1-.1.8-.6.8-.6z"/><path id="XMLID_524_" d="M76.1 41.3s-.7.3-.8 0 .1-.7.1-.7-.5 0-.4-.2l.2-.4s-.4-.1-.3-.3c.2-.2.4-.5.4-.5s0-.3.1-.5.1-.8.2-1c.2-.2.5-.6.5-.6s-.5 0-.4-.2c-.2-.1-.7-.1-.6-.6s-.9-.6-.9-.6-.6.1-1-.1c-.5-.3-.3-.7-.3-.7s-.7-.1-.8-.4c-.2-.3.1-.6.1-.6s-.3 0-.3-.3c0-.2.3-.5.3-.5s-.6-.2-.4-.7.5-.3.5-.3-.1-.1 0-.6.4-.5.4-.5-.2-.3 0-.5.6-.2.6-.2-.2.1 0-.3c.3-.4.5-.2.5-.2s0-.5-.2-.7-.3-.4-.2-.6.4-.3.4-.3 0-.3.2-.5c.2-.1.5-.1.5-.1s-.4 0-.4-.3c-.1-.3.5-.6.5-.6s-.6-.1-.5-.2l.2-.4s0-.4.2-.4-.4-.1-.3-.4c.1-.2.6-.4.6-.4s-.5-.2-.2-.4.5-.1.5-.1 0-.3.2-.3c.3-.1.4 0 .4 0s-.1-.5.3-.5c.3-.1.5.1.5.1s.1-.2.3-.3c.2-.1.3 0 .3 0s-.2-.2 0-.4.3-.1.3-.1.2-.3.3-.3c.1 0 .4.1.4.1s.2-.2.4-.1.3.4.3.4.4 0 .6.2-.1-.9-.1-.9-.2-.3-.1-.4.5.2.5.2.1-.2.2-.1-.3-.2-.1-.4.5-.3.6-.1c.1.2.4-.1.4-.1s-.3-.4.1-.5.5.2.5.2.4-.3.6-.3c.2.1.3.3.3.3s.4-.1.6-.1c.3-.2.5-.3.7-.2l.4.4.6.3s.6-.6.8-.6c.3 0 .7-.5.8-.3.1.2.3.2.3.2s.1-.2.3-.1c.2.1.2.3.2.3s.1-.1.3-.1c.2.1.4.5.4.5s.4 0 .5.1.1.4.1.4l.4.2s.2-.2.4-.1.3.4.3.4.3-.1.4.1c.1.1.3-.1.4 0s.3.4.2.6c-.1.2.2.3.2.3s.4-.3.5-.2c.1.1.4-.2.6-.1s.9.4.7.5c-.1.1.5.1.5.1s.8-.3 1 .1c.1.4.5.5.5.5s.1.4-.1.4.5.4.5.4.2-.5.4-.4c.2.1.4.4.4.4s.5-.3.6-.1-.1.5 0 .5.2.3.2.3.5-.2.5 0 .5.8.5.8.2.4 0 .6c-.1.2.3.3.1.5-.1.2-.3.6-.2.7.2.1.6-.1.5.2-.1.3 0 .8 0 .8s.3.3 0 .6-.8.5-.8.5-.2.5.1.6.2.5.1 1 .2.4.2.4.7.1.6.3 0 .5-.2.5-.3.2-.1.3c.1.1.2.2.2.3s.4.2.2.4c-.2.3-.4.3-.4.3s.3-.1.1.2c-.2.3 0 .3-.2.6s-.5 0-.6.2c.3.4 0 .2 0 .4 0 .1.3.3.1.5-.2.2-.5.2-.5.2s-.1.5-.3.4c-.2-.1-.5-.2-.5-.1s-.4.5-.4.5-.3 0-.5-.1c-.1-.1-.5-.1-.5 0-.1.1 0 .3-.1.4-.2.1-.4-.1-.4-.1s-.4.2-.3.3c0 .1.5.1.5.5s-.7.6-.7.6.1.5-.1.5c-.1 0 .8-.2.8.1s.7 0 .4.4c-.3.4 0 .5 0 .5s0 .4-.2.4.2.3.2.5-.4.8-.7.7c-.1.3-.3.7-.6.6-.3-.1-.7-.3-.7-.3s-.1.5-.2.4.3 0 .3.3c-.1.3-.3.3-.3.3s.2.1.1.3-.3.2-.3.2.2.2.1.4-.5.1-.5.1-.5.8-.7.7-.4-.1-.4-.1-.2.8-.6.7-.5-.2-.5-.2-.3.4-.5.3-.4-.4-.4-.4-.1.1-.3.1c-.1-.1-.2-.5-.2-.5s-.2-.2-.3 0c-.1.2-.7.4-.7.4s-.5-.2-.5.3c-.1.4-.6.1-.6.1s-.4.2-.6.1c-.1-.1-.2-.3-.2-.3s-.2.5-.3.3-.2-.6-.2-.6-.6.3-.7.2-.2.2-.3.2c-.1 0-.4-.1-.4-.1s-.3.2-.4 0-.1-.5-.1-.5-.4.6-.6.5-.3-.4-.3-.4-.1-.2-.3-.2c-.3 0-.6-.1-.6-.1s-.3.2-.6 0c-.2-.2 0-.7 0-.7s-.1-.2-.3-.2c-.2 0-.5.1-.7 0s-.2-.2-.2-.2-.4.1-.6 0c-.2-.2 0-.7 0-.7s.2-.6-.2-.5c-.3.1-.5 0-.6-.3-.1-.2-.5 0-.5 0s-.2-.2-.4-.1-.3-.3-.3-.3-.2.1-.3 0c-.1-.1-.2-.7-.2-.7z" style="opacity:.31;fill:#1a643a;enable-background:new"/><path id="XMLID_523_" class="st3" d="M76.2 32.5s-.4-.1-.3-.2c.1-.2.3-.3.3-.3s-.2-.1-.1-.2.2-.1.2-.1-.2-.2 0-.2c.1-.1.3-.1.3-.1l.2-.2c.1 0 .3-.3.4-.4.1 0 .4-.1.4-.1s-.2-.1-.1-.2c-.1-.1-.3-.2-.1-.5.2-.2-.2-.5-.2-.5s-.3-.1-.4-.4.1-.4.1-.4-.3-.3-.2-.4c0-.2.2-.2.2-.2s-.1-.1 0-.2.3-.1.3-.1-.2-.3.1-.4c.2-.1.3 0 .3 0s0-.1.2-.3c.2-.2.3-.1.3-.1s0-.2.1-.2.3.1.3.1-.1 0 .1-.1.3.1.3.1.1-.2.1-.3c0-.1 0-.3.1-.3.1-.1.3 0 .3 0s.1-.1.2-.1.3.1.3.1-.1-.1-.1-.3c.1-.2.4-.1.4-.1s-.2-.2-.1-.3c.1-.1.2-.1.2-.1s.1-.2.2-.1c.1 0-.1-.2 0-.2h.4s-.1-.2 0-.2c.2 0 .3.1.3.1s.1-.1.2-.1c.1.1.2.1.2.1s.1-.2.3-.1c.2.1.2.2.2.2h.2c.1 0 .1.1.1.1s0-.1.1-.2h.2s.2-.1.2 0c.1 0 .1.2.1.2s.2 0 .2.1c.1.1 0 .3 0 .3s.2.1.2.3.2-.4.2-.4 0-.2.1-.2.1.2.1.2.1-.1.1 0-.1-.2.1-.2c.1 0 .3 0 .3.1s.2.1.2.1 0-.3.2-.2c.2.1.2.2.2.2s.3 0 .3.1c.1.1 0 .2 0 .2s.2.1.3.1c.2 0 .3 0 .4.1s.1.3.1.3l.2.3s.4-.1.5 0 .4 0 .4.1.1.2.1.2.1-.1.2 0 0 .2 0 .2.1 0 .1.1v.3s.2.1.2.2-.1.2-.1.2l.1.2s.2 0 .2.1v.3s.1.1.2.1c0 .1.2.1.2.1s0 .3-.1.3 0 .2 0 .2.3 0 .3.1.2 0 .3.1.3.4.2.4.2.2.2.2.4.1.4.3c-.1.2.1.4.1.4s-.1.2-.2.2.1.3.1.3.2-.2.3-.1 0 .3 0 .3.3 0 .3.1-.2.2-.2.2v.2s.3.1.2.2 0 .5 0 .5 0 .2-.2.3 0 .2-.1.3-.3.2-.3.2c.1.1.3.2.2.2-.1.1-.2.3-.2.3s0 .2-.2.3h-.5s-.2.2-.2.3c.1.1 0 .3-.2.4-.2.2-.1.2-.1.2s.3.2.2.3l-.2.2c-.1-.1-.2 0-.2.1v.2s.1.2 0 .2h-.3s.1.1 0 .1c-.2.1-.1.2-.3.2-.2.1-.2-.2-.3-.1-.1.1-.2-.1-.2 0s0 .2-.1.2-.3-.1-.3-.1-.2.2-.2.1l-.2-.2-.3.1-.2-.2-.2-.2s-.1.2-.2.1c-.1 0-.2-.2-.2-.2s-.2 0-.2.1.2.2.1.4-.5 0-.5 0-.1.2-.2.2.4.1.3.3c-.1.1.3.2.1.3-.2.1-.1.2-.1.2s-.1.2-.2.1 0 .2-.1.3-.4.2-.5.1c-.1.1-.3.2-.4.1-.5 0-.5-.2-.5-.2s-.2.2-.2.1.1.1 0 .2-.2 0-.2 0 0 .1-.1.2-.2 0-.2 0 0 .2-.1.2-.2-.1-.2-.1-.4.2-.5.1c-.1-.1-.1-.2-.1-.2s-.3.3-.5.1l-.2-.2s-.2.1-.3 0c-.1-.1 0-.3 0-.3s-.1 0-.1-.1.1-.3.1-.3-.1-.1-.2-.1c-.1.1-.4 0-.4 0s-.2-.2-.3-.1c-.2.2-.3-.1-.3-.1s-.2 0-.3-.1V37s-.2 0-.2-.1.1-.3.1-.3-.3-.1-.4-.1c0-.1-.1 0-.2 0s-.1-.2-.1-.2-.2 0-.2-.1.1-.2.1-.2-.4.1-.4 0c-.1-.1 0-.3 0-.3s0-.1-.1-.2l-.2-.2s-.2 0-.3-.2c-.1-.1.2-.3.2-.3s0-.1-.1-.2-.3-.1-.3-.2v-.2s-.2-.1-.3-.2c0-.1.2-.3.2-.3s.2-.2.1-.3-.2-.2-.2-.3-.2-.1-.2-.1 0-.2-.1-.2 0-.2 0-.2-.1 0-.1-.1c-.1.3 0 0 0 0z"/><g id="圖層_4_拷貝_45_7_"><g id="圖層_1_拷貝_47_22_"><path id="XMLID_182_" class="st5" d="M135.1 70.8s2.7-3.2 5-2.6c2.4.6 6.4 2.3 6.4 2.3s-3.3 3.1-5.8 2.9c-2.4-.2-5.6-2.6-5.6-2.6z"/><path id="XMLID_181_" class="st6" d="M139.6 69.3c1.8.5 4.6 1.5 5.8 2 .7-.5 1.1-1 1.1-1s-4.1-1.7-6.4-2.3c-2.4-.6-5 2.6-5 2.6s.2.1.4.3c.9-.7 2.6-1.9 4.1-1.6z"/><path id="XMLID_179_" class="st7" d="M142.5 71.1s-2.2-1.3-3.7-1.3c-1.5.1-3.4.9-3.4.9s2.7-.5 3.6-.4c.7.2 3.5.8 3.5.8z"/></g><g id="圖層_1_拷貝_47_23_"><path id="XMLID_174_" class="st5" d="M133.9 90.3s3.7-2 5.7-.5 5.1 4.6 5.1 4.6-4.3 1.6-6.5.5c-2.2-1.2-4.3-4.6-4.3-4.6z"/><path id="XMLID_173_" class="st6" d="M138.7 90.6c1.5 1.1 3.6 3.2 4.5 4.1.8-.2 1.4-.4 1.4-.4s-3.1-3.1-5.1-4.6c-1.9-1.5-5.7.5-5.7.5s.1.1.2.4c1.4-.4 3.4-.9 4.7 0z"/><path id="XMLID_132_" class="st7" d="M140.6 93.4s-1.5-2.1-3-2.6-3.5-.5-3.5-.5 2.7.6 3.5 1c.7.5 3 2.1 3 2.1z"/></g><g id="圖層_1_拷貝_47_21_"><path id="XMLID_131_" class="st5" d="M107.8 90.3s1.2 4-.6 5.7c-1.8 1.6-5.4 4.1-5.4 4.1s-.8-4.5.7-6.4c1.5-2 5.3-3.4 5.3-3.4z"/><path id="XMLID_125_" class="st6" d="M106.5 94.9c-1.4 1.2-3.8 3-4.9 3.7.1.8.2 1.5.2 1.5s3.6-2.5 5.4-4.1.6-5.7.6-5.7l-.4.2c.2 1.3.3 3.3-.9 4.4z"/><path id="XMLID_123_" class="st7" d="M103.5 96.3s2.3-1.1 3.1-2.4c.7-1.3 1.1-3.4 1.1-3.4s-1.1 2.6-1.6 3.2c-.6.7-2.6 2.6-2.6 2.6z"/></g></g><g id="圖層_4_拷貝_45_13_"><g id="圖層_1_拷貝_47_35_"><path id="XMLID_191_" class="st5" d="M149.1 46.2s-4 1.2-5.7-.6c-1.6-1.8-4.1-5.5-4.1-5.5s4.5-.8 6.4.8c2 1.5 3.4 5.3 3.4 5.3z"/><path id="XMLID_190_" class="st6" d="M144.5 44.9c-1.2-1.4-2.9-3.8-3.7-4.9-.8 0-1.5.2-1.5.2s2.5 3.7 4.1 5.5 5.7.6 5.7.6l-.2-.4c-1.3.1-3.3.2-4.4-1z"/><path id="XMLID_189_" class="st7" d="M143.1 41.9s1.1 2.3 2.4 3.1c1.3.8 3.4 1.1 3.4 1.1s-2.6-1.1-3.2-1.7c-.6-.5-2.6-2.5-2.6-2.5z"/></g><g id="圖層_1_拷貝_47_34_"><path id="XMLID_188_" class="st5" d="M132 55.9s-4.2.2-5.3-2c-1.1-2.2-2.6-6.3-2.6-6.3s4.6.4 6 2.3c1.5 2 1.9 6 1.9 6z"/><path id="XMLID_184_" class="st6" d="M127.8 53.5c-.8-1.6-1.9-4.4-2.3-5.7-.8-.2-1.4-.2-1.4-.2s1.5 4.2 2.6 6.3c1.1 2.2 5.3 2 5.3 2v-.5c-1.4-.1-3.5-.5-4.2-1.9z"/><path id="XMLID_183_" class="st7" d="M127.2 50.2s.4 2.5 1.5 3.6 3 2 3 2-2.2-1.7-2.7-2.4c-.4-.8-1.8-3.2-1.8-3.2z"/></g><g id="圖層_1_拷貝_47_33_"><path id="XMLID_177_" class="st5" d="M136.1 31.7s-4-1.2-4.4-3.6-.4-6.8-.4-6.8 4.2 1.9 4.9 4.2c.8 2.3-.1 6.2-.1 6.2z"/><path id="XMLID_176_" class="st6" d="M132.9 28.1c-.3-1.8-.3-4.8-.4-6.1-.7-.4-1.3-.7-1.3-.7s0 4.4.4 6.8 4.4 3.6 4.4 3.6 0-.2.1-.5c-1.2-.5-2.9-1.6-3.2-3.1z"/><path id="XMLID_175_" class="st7" d="M133.4 24.8s-.4 2.5.3 3.9 2.2 2.8 2.2 2.8-1.5-2.3-1.8-3.2c-.1-.8-.7-3.5-.7-3.5z"/></g></g><g id="圖層_4_拷貝_45_14_"><g id="圖層_1_拷貝_47_38_"><path id="XMLID_200_" class="st5" d="M62 62.1s3 3 2.2 5.3c-.8 2.3-2.8 6.2-2.8 6.2s-2.8-3.6-2.4-6c.3-2.5 3-5.5 3-5.5z"/><path id="XMLID_199_" class="st6" d="M63 66.7c-.6 1.7-1.9 4.4-2.5 5.6.4.7.8 1.2.8 1.2s2-3.9 2.8-6.2C65 65 62 62 62 62s-.1.1-.3.4c.8 1.1 1.8 2.9 1.3 4.3z"/><path id="XMLID_198_" class="st7" d="M61 69.4s1.5-2.1 1.6-3.6c0-1.5-.6-3.5-.6-3.5s.2 2.8.1 3.6c-.3.9-1.1 3.5-1.1 3.5z"/></g><g id="圖層_1_拷貝_47_37_"><path id="XMLID_197_" class="st5" d="M83.5 69.9s2.1 3.6.8 5.6c-1.4 2-4.3 5.3-4.3 5.3s-1.8-4.2-.8-6.4c.9-2.3 4.3-4.5 4.3-4.5z"/><path id="XMLID_196_" class="st6" d="M83.3 74.6c-1 1.5-3 3.8-3.9 4.8.3.8.5 1.4.5 1.4s3-3.3 4.3-5.3c1.4-2-.8-5.6-.8-5.6s-.1.1-.4.3c.6 1.2 1.2 3.1.3 4.4z"/><path id="XMLID_195_" class="st7" d="M80.7 76.7s2-1.6 2.5-3.1c.4-1.5.3-3.5.3-3.5s-.5 2.7-.8 3.5c-.5.8-2 3.1-2 3.1z"/></g><g id="圖層_1_拷貝_47_36_"><path id="XMLID_194_" class="st5" d="M49.2 71.9s.9 4.1-1.1 5.6-5.8 3.6-5.8 3.6-.4-4.6 1.3-6.3c1.7-1.8 5.6-2.9 5.6-2.9z"/><path id="XMLID_193_" class="st6" d="M47.5 76.4c-1.5 1.1-4.1 2.6-5.2 3.2v1.5s3.9-2.1 5.8-3.6 1.1-5.6 1.1-5.6-.2.1-.5.1c.2 1.4.1 3.5-1.2 4.4z"/><path id="XMLID_192_" class="st7" d="M44.4 77.6s2.4-.9 3.3-2.1c.9-1.3 1.4-3.3 1.4-3.3s-1.3 2.4-1.9 3l-2.8 2.4z"/></g></g></g></svg>