<svg version="1.0" id="圖層_1" xmlns="http://www.w3.org/2000/svg" x="0" y="0" width="300" height="260" style="enable-background:new 0 0 300 260" xml:space="preserve"><style>.st2{fill:#1b5632}.st6{opacity:.1;fill:#1a5632}</style><g id="Calque_8"><g id="XMLID_181_" style="opacity:.15"><path id="XMLID_183_" d="M27.9 89.9c-3.1-1.8-3.8-4.1-3-6.2.8-2 3.1-3.7 5.9-4.2-4.8-3.9 1.8-6.8 3.7-7.8 1.9-1.2 3.8-2.4 5.7-3.3 1.9-1 3.9-1.8 5.8-2.2 3.7-.2 8.5-.2 12.3 1.7-1-1.9-1.9-3.9-1-5.8 5.7-7.7 3.8-13.6 4.8-21.3.5-2.9 1.4-5.5 2.6-7.8 1.2-2.3 2.8-4.3 4.7-6 13-10.3 30.4-7.4 46.4-5.5 3.2.4 6.3.7 9.3.9 1.9-2.9 5-5.3 8.2-6.1 3.2-.7 6.6.2 8.9 4.1 0-2 0-3.9 1-4.9 2.9-1 3.8 1 5.7 2.9-1-1.9-1-3.9-1-5.8 2.9 1.9 8.6 1.9 8.6-2.9 1.9 1.9 3.8 3.9 5.7 4.8v-3.9c4.1 3.6 9.5 6.9 14.7 10.4 2.6 1.8 5.1 3.6 7.4 5.6 5.6 4 9.7 10.4 10.6 17.1.3 2.2.2 4.5-.2 6.6 4.8-1.9 7.6-5.8 11.5-8.7-1.9 3.9 2.9 4.8 2.9 7.7 1 0 1.9-1 2.9-1 4.8 3.9 7.6 6.8 14.3 7.7 1.9 1 2.9 1.9 3.8 3.9l3.3 8.4c2.7 5.7 5 11.7 6.8 18 1.7 6.3 2.9 12.7 3.5 19.3.9 4.5.8 9 .3 13.5-.2 2.3-.6 4.5-1 6.8-1.2 5.3-2.3 10.6-2.1 15.9-.6 3.6 1.2 7.4 2.6 10.9 0 3.2 3.8 5.1 0 9 4.8 2.9 6.7 8.7 5.7 13.6-1 4.8-1.9 8.7-2 12.6-.1 1.9.1 3.9.6 5.9.5 1.8 1.5 4.7 2.4 6.7-7.6 1-2.9 6.8-5.7 11.6-6.7 9.7-17.2 12.6-23.9 17.4-12.4 6.8-25.8 8.7-39.1 19.4-2.9 1-5.7 2.9-8.6 1.9 0 1 1 1.9 1 2.9-1.9-1.9-3.8-2.9-6.8-3-2.4-.8-5-1.3-7.6-1.9s-5.1-1-7.6-1.7c-2.5-.6-4.8-1.4-7-2.5-5.4-5.5-4.6-2.9-12.3-5.8 0 9.7-8.6 2.6-13.4 1.6 4.8 1.9-4.6 1.6-7.4 4.5-5.7 5.8-13.4 7.7-22 6.8-5.7-1-13.4-5.8-11.5-12.6-10.5 1-22-1-28.8-10.9-.4-1.8-2.8-3-4.5-4.3-1.8-1.3-3-2.8-1.1-5.2H41c1.3-4.2.8-8.2-.5-12-1.3-3.8-3.5-7.5-5.8-11.2-2.4-4.9-11-13.6-1.4-15.6-2.9-1.9-6-4.8-7.9-8.1-2.6-6.4-3.6-12.2-7.4-19-2.9-6.8-5.7-16.5 1-20.3-3.8-3.9-1.9-8.7-3.8-13.6 11.5 0 10.5-16.5 8-24.6.7-.7 4.7-4.4 4.7-4.4z" style="opacity:.2"/></g><g id="Calque_7"><path id="XMLID_179_" class="st2" d="M46.2 84.9s-5.2-4.2-3.1-6.1c2.1-1.9 6.3-2.1 6.3-2.1s-1.9-4 0-4h4.2s-.9-4 1.6-3.5 5.6 1.2 5.6 1.2-.6-3.6 1.5-3.3c2.1.3 6.8-2.5 8.9-1.8s6.3 1.6 6.3 1.6-2.1-3.8 0-4.2c0-1.9-2.1-6.1 2.8-7.5 4.9-1.4 1.9-9.4 1.9-9.4s-.6-2.1-.3-6.8c.2-4.7 4-5.2 4-5.2s-1.7-5.9 0-8.2c1.7-2.4 4.9-1.2 4.9-1.2s-.9-2.6 1.2-3.3c2.1-.7 4.9.9 4.9.9s-.5-5.6 4.2-5.6 4.7 2.6 4.7 2.6.7-1.4 4.9-2.6c4.2-1.2 5.6 1.4 5.6 1.4s1.4-2.5 3.8-1.7 3.8 3.8 3.8 3.8-1.6-1.6 2.6-.9c4.2.7 4 3.3 4 3.3s4-1.9 4.7-3.8 1.6-4.2 3.8-4.2c2.1 0 4.2 1.6 4.2 1.6s2.8-1.2 4.5-.2 3.1 3.3 3.1 3.3-1.2-3.1 1.2-4.7 6.3 1.6 6.3 1.6-1.6-4.7 0-4.9c1.6-.2 4 0 4 0s3.5-1.4 4.2-.1-.5-3.9 2.1-3.7c2.6.2 5.4 3.5 5.4 3.5s-.1-4.6 2.4-3.5c2.5 1.1 3.1 3.8 3.1 3.8s1.9-1.3 3.6.7 1.4 3.3 1.4 3.3 3.5-2.2 5.2.1.9 4.6.9 4.6 1.8.1 3.2 1.4c1.4 1.3.8 2.2.8 2.2s1.1-2.2 3.1-1.3c2 .9 2.2 2.1 2.2 2.1s3.1.1 3.6 1.3c.6 1.2.5 4 .5 4s2.7.7 2.4 3.1c-.4 2.4-.3 1.7-.3 1.7s2.8 3.3 2 5.6c-.8 2.2 3.6-2 3.6-2s1.6-2.8 3.2-2.1c1.5.7 0 4.6 0 4.6s1.9 0 1.5 1.5c-.4 1.5.7-3.5 2.8-2.1s4.2 2.8 3.3 4.5c-.9 1.6 2.2 2.8 2.2 2.8s1.9-4 4.6-.9c2.7 3.1.5 4.6.5 4.6s4 1.8 4.4 3.8c.4 2-1.4 3.2-1.4 3.2s2.7 2.7 2.8 4.5c2.7 1.3 4.5 3.2 4.4 4.7-.1 1.5-1.3 4.9-1.3 4.9l.1 5.9s6.8 2.4 7.9 4.4c1.1 2 6.2 3.5 5.4 5.3-.8 1.8-.6 3.6-.6 3.6s1.8 0 2.1 1.9c.4 1.9-1.6 3.2-1.6 3.2s1.5.2 1.7 2.1c.2 1.9-2.5 4.7-2.5 4.7s1.4 3.3 1.2 4.4c-.2 1.1-2.8 2.2-2.8 2.2l-.2 4.5s2.6.9 2.1 2.7c-.5 1.8-1.9 3.9-1.9 3.9s1.6 2.1 1.2 3.5c-.5 1.4 2 2.4 1.5 3.6-.5 1.3-2.2 4.2-4.1 4.4-1.9.1-1.8 3.3-1.8 3.3s4 2 3.5 3.5 3.3 2.5 3.3 4.2c0 1.8.2 8.3-1.2 7.8-1.4-.6 1.4 4.4 1.7 4.6s5.7 5.5 3.1 8-1.6 6-1.6 6-2.5 2.2-3.9 1.2c-1.4-1.1-1.3 5.5-1.3 5.5s4.6-.4 4.6 1.5-2 5.1-2 5.1 4.4 2.9 3.2 4-4.4 1.2-4.5 1.9c-.1.7-1.5 2.4-1.5 2.4s3.4 3.2 1.8 4.4c-1.6 1.2-4.2 7.3-4.2 7.3s-2.6 2.8-4.8 2.6c-2.2-.2-1.2 3.3-3.8 3.1-2.6-.2-6.1-.4-5.9 1.3s2.9 4.9.4 4.9c-2.6 0-6.2 2.7-6.2 2.7s-1.4 4-4.8 2.7c-3.4-1.3-6.7-4.6-6.7-4.6s-4.8.7-4.8 3.2-3.1 3.9-7.4 4.6-2.7 2.9-2.7 2.9 1.8 5.6-.1 5.8c-1.9.1-4.1 1.9-4.8.5s-3.1-1.4-3.1 0-.8 2.8-1.8 2.9.5 4.2-2.5 3.4c-2.9-.8-3.9-2.1-3.9-2.1s1.6 2.1-1.4 1.5c-3.1-.6-2.6 1.6-5.8 1.2-3.2-.5-1.6-4-3.6-4.1-2-.1-2.1-3.2-3.3-2.7-1.2.5-1.6 3.4-3.6 2.6s-3.6-3.3-3.6-3.3-4.1 1.4-4.5-.4c-.4-1.8-1-4.9-.8-4.6-1.1-1.8-5.5-2.6-6.8-2.5s-1.9-2.5-3-3.5c-1.1-1.1-.8-3.9-.8-3.9s-3.2-2-4-1.3.8 4.4-2.1 6c-2.9 1.6-7.4-3.8-7.4-3.8s-1.1 3-1.8 2.1c-.7-.9 2.2 4.7-.6 5.8-2.7 1.1 2.5 5.8-1.8 5.2s-6.7-.8-6.7-.8-2.9 1.9-3.9.2c-.9-1.6-1.3 2.9-3.2 3.8-1.9.8-7.8-.1-8.6-2.6-2.8 0-6.5.5-6.9-2.2-.5-2.7.1-6.6.1-6.6s-4.6 1.1-4.4-.2 1.1 2.9-1.5 3.3-3.8-1.2-3.8-1.2-.1 1.9-2.2 2c-2.1.1-3.1-2-3.1-2s-.9 2.6-2.6 2.6c-1.6 0-2.8-3.3-2.8-3.3s-8.2-.7-8.7-2.8-.4-3.5-.4-3.5-7.5 1.4-8-1.9-.4-5.1-.4-5.1-4.6-.4-4.5-2.5c.1-2.1 1.8-4.4 1.8-4.4s-1.4-.5-1.4-1.9 3.1-3.5 3.1-3.5.4-2.5-1.6-2.5-5.6-3.8-5.5-4.1-.5-4.6-4.2-3.4c-3.8 1.2-3.6-4.5-3.6-4.5s-3.3-2.8-2.9-4.5 1.9-2.6 1.9-2.6-3.8-1.4-3-2.8 4-3.5 4-3.5-4.3-3.8-4.2-5.3c.2-1.5-2.1-.8-2.4-1.6-.4-.8-.7-3.4-.7-3.4s-2.7-1.9-1.5-3.2 3.1-2.9 3.1-2.9-6.3-1.3-6.3-3.2 2.1-4 2.1-4 1.4-1.5.1-3.5c-1.3-2-1.4-5.1-1.4-5.1s-3.1-1.9-2.6-4.5 5.2-2.9 5.2-2.9 1.3-1.9.6-3.4c-.7-1.5-2.9-3.9-2.4-5.4.6-1.5 1.2-2.7 1.2-2.7s-2.8-3.1-2.1-5.2c.7-2.1 6.1-2.5 6.1-2.5s5.1-.9 3.3-3.2c-1.8-2.2-1.8-4.2 0-5.6 1.8-1.4-2.1-4-2.1-4s.7-2.8-.6-3.9c-1.3-1.1 1.1-3.3 1.1-3.3s-1.4-1.4-1.1-2.4c.3-1.3 4.2-4.4 4.2-4.4z"/><path id="XMLID_178_" d="M48.6 85.9s-5-4.1-3-6c2.1-1.8 6.2-2.1 6.2-2.1S50 74 51.8 74h4.1s-.9-3.9 1.6-3.4l5.5 1.1s2.1-1.5 4.1-1.2c2.1.3 6.7-2.5 8.7-1.8 2.1.7 6.2 1.6 6.2 1.6s-2.1-3.7 0-4.1c0-1.8-2.1-6 2.8-7.3 4.8-1.4 1.8-9.2 1.8-9.2s-3.2-4.1-3-8.7 3.9-5 3.9-5-1.6-5.7 0-8 4.8-1.1 4.8-1.1-.9-2.5 1.1-3.2c2.1-.7 4.8.9 4.8.9s-.5-5.5 4.1-5.5 4.6 2.5 4.6 2.5.7-1.4 4.8-2.5 5.5 1.4 5.5 1.4 1.4-2.4 3.7-1.7 3.7 3.7 3.7 3.7-1.6-1.6 2.5-.9c4.1.7 3.9 3.2 3.9 3.2s3.9-1.8 4.6-3.7c.7-1.8 1.6-4.1 3.7-4.1s4.1 1.6 4.1 1.6 2.8-1.1 4.4-.2c1.6.9 3 3.2 3 3.2s-1.1-3 1.1-4.6c2.3-1.6 6.2 1.6 6.2 1.6s-1.6-4.6 0-4.8c1.6-.2 3.9 0 3.9 0s3.4-1.4 4.1-.1c.7 1.2-.5-3.8 2.1-3.6 2.5.2 5.3 3.4 5.3 3.4s-.1-4.5 2.3-3.4c2.4 1 3 3.7 3 3.7s1.8-1.3 3.6.7c1.7 1.9 1.4 3.2 1.4 3.2s3.4-2.2 5 .1c1.6 2.3.9 4.5.9 4.5s1.7.1 3.1 1.4c1.4 1.3.8 2.2.8 2.2s1-2.2 3-1.3c1.9.9 2.2 2.1 2.2 2.1s3 .1 3.6 1.3c.6 1.1.5 3.9.5 3.9s2.6.7 2.3 3c-.3 2.3-2.3 3.7-2.3 3.7s1.8 3.3 1 5.5 6.4-4 6.4-4 1.6-2.8 3.1-2.1 0 4.5 0 4.5 1.8 0 1.5 1.5c-.3 1.5.7-3.4 2.8-2.1 2.1 1.4 4.1 2.8 3.2 4.4-.9 1.6 2.2 2.8 2.2 2.8s1.8-3.9 4.5-.9c2.6 3.1.5 4.4.5 4.4s3.9 1.7 4.2 3.7c.3 1.9-1.4 3.1-1.4 3.1s2.6 2.6 2.8 4.4c2.6 1.3 4.4 3.1 4.2 4.6s-1.3 4.8-1.3 4.8l.1 5.7s6.7 2.3 7.7 4.2 6.1 3.4 5.3 5.2c-.8 1.7-.6 3.6-.6 3.6s1.7 0 2.1 1.8c.3 1.8-1.6 3.1-1.6 3.1s1.5.2 1.6 2.1c.2 1.8-2.4 4.6-2.4 4.6s1.4 3.2 1.1 4.2c-.2 1-2.8 2.2-2.8 2.2l-.2 4.4s2.5.9 2.1 2.6c-.5 1.7-1.8 3.8-1.8 3.8s1.6 2.1 1.1 3.4 1.9 2.3 1.5 3.6c-.5 1.3-2.2 4.1-4 4.2s-1.7 3.2-1.7 3.2 3.9 1.9 3.4 3.4 3.2 2.4 3.2 4.1.2 8.1-1.1 7.6 1.4 4.2 1.7 4.5c.3.2 5.6 5.4 3 7.8-2.5 2.4-1.6 5.8-1.6 5.8s-2.4 2.2-3.8 1.1-1.3 5.4-1.3 5.4 4.5-.3 4.5 1.5-1.9 4.9-1.9 4.9 4.2 2.9 3.1 3.9-4.2 1.1-4.4 1.8c-.1.7-1.5 2.3-1.5 2.3s3.3 3.1 1.7 4.2c-1.6 1.1-4.1 7.1-4.1 7.1s-2.5 2.8-4.7 2.5c-2.2-.2-1.1 3.2-3.7 3-2.5-.2-6-.3-5.7 1.3.2 1.6 2.9 4.8.3 4.8s-6.1 2.6-6.1 2.6-1.4 3.9-4.7 2.6c-3.3-1.3-6.5-4.5-6.5-4.5s-4.7.7-4.7 3.1-3 3.8-7.2 4.5c-4.2.7-2.6 2.9-2.6 2.9s1.7 5.5-.1 5.6-4 1.8-4.7.5c-.7-1.4-3-1.4-3 0s-.8 2.8-1.7 2.9.5 4.1-2.4 3.3-3.8-2.1-3.8-2.1 1.6 2.1-1.4 1.5-2.5 1.6-5.6 1.1-1.6-3.9-3.6-4c-1.9-.1-2.1-3.1-3.2-2.6s-1.6 3.3-3.6 2.5c-1.9-.8-3.6-3.2-3.6-3.2s-4 1.4-4.4-.3-.5-4.5-.8-4.5c-.3 0-5.4-1.3-5.4-1.3s-1.5-2.4-1-4-.8-4.2-2.1-4.1c-1.3.1-2.6 1.5-3.7.5-1-1-.8-3.8-.8-3.8s-3.1-1.9-3.9-1.3c-.8.7.8 4.2-2.1 5.8-2.9 1.6-7.2-3.7-7.2-3.7s-3.4 2.2-4.1 1.3 4.5 5.4 1.8 6.4c-2.6 1 2.4 5.6-1.7 5-4.1-.6-3.9 2.3-3.9 2.3s-2.9 1.8-3.8.2c-.9-1.6-1.3 2.9-3.1 3.7-1.8.8-7.6-.1-8.4-2.5-2.8 0-6.3.5-6.8-2.2-.5-2.6.1-6.4.1-6.4s-4.5 1-4.2-.2c.2-1.3 1 2.9-1.5 3.2-2.5.3-3.7-1.1-3.7-1.1s-.1 1.8-2.2 1.9c-2.1.1-3-1.9-3-1.9s-.9 2.5-2.5 2.5-2.8-3.2-2.8-3.2-8-.7-8.5-2.8c-.5-2.1-.3-3.4-.3-3.4s-7.3 1.4-7.8-1.8-.3-4.9-.3-4.9-4.5-.3-4.4-2.4c.1-2.1 1.7-4.2 1.7-4.2s-1.4-.5-1.4-1.8 3-3.4 3-3.4.3-2.4-1.6-2.4-5.5-3.7-5.4-4c.1-.3-.5-4.5-4.1-3.3-3.7 1.1-3.6-4.4-3.6-4.4s-3.2-2.8-2.9-4.4c.3-1.6 1.8-2.5 1.8-2.5s-3.7-1.4-2.9-2.8c.8-1.4 3.9-3.4 3.9-3.4s-4.2-3.7-4.1-5.2c.2-1.5-2-.8-2.4-1.6-.3-.8-.7-3.3-.7-3.3s-2.6-1.8-1.5-3.1 3-2.9 3-2.9-6.2-1.3-6.2-3.1 2.1-3.9 2.1-3.9 1.4-1.5.1-3.4-1.4-4.9-1.4-4.9-3-1.8-2.5-4.4c.5-2.5 5-2.9 5-2.9s1.3-1.8.6-3.3c-.7-1.5-2.9-3.8-2.3-5.3.6-1.5 1.1-2.6 1.1-2.6s-2.8-3-2.1-5c.7-2.1 6-2.4 6-2.4s4.9-.9 3.2-3.1c-1.7-2.2-1.7-4.1 0-5.5 1.7-1.4-2.1-3.9-2.1-3.9s.7-2.8-.6-3.8 1-3.2 1-3.2-1.4-1.4-1-2.3c.9-1.2 4.7-4.2 4.7-4.2z" style="fill:#51aa59"/><path id="XMLID_177_" d="M52.8 87.5s-4.8-4-2.9-5.7c2-1.8 5.9-2 5.9-2s-1.8-3.7 0-3.7h4s-.9-3.7 1.5-3.3 5.3 1.1 5.3 1.1 2-1.4 4-1.1c2 .3 6.4-2.4 8.3-1.7 2 .7 5.9 1.5 5.9 1.5s-2-3.5 0-4c0-1.8-2-5.7 2.6-7s1.8-8.8 1.8-8.8-3.1-4-2.9-8.3c.2-4.4 3.7-4.8 3.7-4.8s-1.5-5.5 0-7.7 4.6-1.1 4.6-1.1-.9-2.4 1.1-3.1 4.6.9 4.6.9-.4-5.3 4-5.3 4.4 2.4 4.4 2.4.7-1.3 4.6-2.4c4-1.1 5.3 1.3 5.3 1.3s1.3-2.3 3.5-1.6c2.2.7 3.5 3.6 3.5 3.6s-1.5-1.5 2.4-.9c4 .7 3.7 3.1 3.7 3.1s3.7-1.8 4.4-3.5c.7-1.8 1.5-4 3.5-4s4 1.5 4 1.5 2.6-1.1 4.2-.2c1.5.9 2.9 3.1 2.9 3.1s-1.1-2.9 1.1-4.4c2.2-1.5 5.9 1.5 5.9 1.5s-1.5-4.4 0-4.6c1.5-.2 3.7 0 3.7 0s3.3-1.3 4-.1c.7 1.2-.4-3.6 2-3.4 2.4.2 5.1 3.3 5.1 3.3s-.1-4.3 2.2-3.3c2.3 1 2.9 3.5 2.9 3.5s1.8-1.2 3.4.7 1.3 3.1 1.3 3.1 3.3-2.1 4.8.1.9 4.3.9 4.3 1.6.1 3 1.3c1.3 1.2.8 2.1.8 2.1s1-2.1 2.9-1.2c1.9.9 2.1 2 2.1 2s2.9.1 3.4 1.2c.5 1.1.4 3.7.4 3.7s2.5.7 2.2 2.9c-.3 2.2-2.2 3.5-2.2 3.5s1.8 3.2 1 5.3c-.8 2.1 6.1-3.8 6.1-3.8s1.5-2.6 3-2c1.4.7 0 4.3 0 4.3s1.8 0 1.4 1.4c-.3 1.4.7-3.3 2.6-2s4 2.6 3.1 4.2c-.9 1.5 2.1 2.6 2.1 2.6s1.8-3.8 4.3-.8c2.5 2.9.4 4.3.4 4.3s3.7 1.6 4.1 3.5c.3 1.9-1.3 3-1.3 3s2.5 2.5 2.6 4.2c2.5 1.2 4.2 3 4.1 4.4-.1 1.4-1.2 4.6-1.2 4.6l.1 5.5s6.4 2.2 7.4 4.1c1 1.9 5.8 3.3 5.1 4.9-.8 1.6-.5 3.4-.5 3.4s1.6 0 2 1.8c.3 1.8-1.5 3-1.5 3s1.4.2 1.6 2c.2 1.8-2.3 4.4-2.3 4.4s1.3 3.1 1.1 4.1c-.2 1-2.6 2.1-2.6 2.1l-.2 4.2s2.4.9 2 2.5-1.8 3.6-1.8 3.6 1.5 2 1.1 3.3c-.4 1.3 1.9 2.2 1.4 3.4s-2.1 4-3.8 4.1c-1.8.1-1.6 3.1-1.6 3.1s3.7 1.9 3.3 3.3c-.4 1.4 3.1 2.3 3.1 4s.2 7.8-1.1 7.2c-1.3-.5 1.3 4.1 1.6 4.3.3.2 5.3 5.2 2.9 7.5s-1.5 5.6-1.5 5.6-2.3 2.1-3.6 1.1c-1.3-1-1.2 5.2-1.2 5.2s4.3-.3 4.3 1.4-1.9 4.7-1.9 4.7 4.1 2.7 3 3.7c-1.1 1-4.1 1.1-4.2 1.8-.1.7-1.4 2.2-1.4 2.2s3.2 3 1.6 4.1c-1.5 1.1-4 6.8-4 6.8s-2.4 2.6-4.5 2.4c-2.1-.2-1.1 3.1-3.5 2.9-2.4-.2-5.7-.3-5.5 1.2.2 1.5 2.7 4.6.3 4.6s-5.8 2.5-5.8 2.5-1.3 3.7-4.5 2.5c-3.2-1.2-6.3-4.3-6.3-4.3s-4.5.7-4.5 3-2.9 3.6-6.9 4.3c-4.1.7-2.5 2.7-2.5 2.7s1.6 5.3-.1 5.4c-1.8.1-3.8 1.8-4.5.4-.7-1.3-2.9-1.3-2.9 0s-.8 2.6-1.6 2.7c-.9.1.4 4-2.3 3.2-2.7-.8-3.6-2-3.6-2s1.5 2-1.3 1.4-2.4 1.5-5.4 1.1c-3-.4-1.5-3.7-3.4-3.8-1.9-.1-2-3-3.1-2.5s-1.5 3.2-3.4 2.4c-1.9-.8-3.4-3.1-3.4-3.1s-3.8 1.3-4.2-.3-.4-4.3-.8-4.3-5.2-1.2-5.2-1.2-1.4-2.3-1-3.8c.4-1.5-.8-4.1-2-4-1.2.1-2.5 1.4-3.5.4-1-1-.8-3.6-.8-3.6s-3-1.9-3.7-1.2c-.8.7.8 4.1-2 5.6-2.7 1.5-6.9-3.5-6.9-3.5s-3.3 2.1-4 1.2c-.7-.9 4.3 5.2 1.8 6.1-2.5 1 2.3 5.4-1.6 4.8S125 223 125 223s-2.7 1.8-3.6.2c-.9-1.5-1.2 2.7-3 3.5s-7.2-.1-8-2.4c-2.6 0-6 .4-6.5-2.1-.4-2.5.1-6.1.1-6.1s-4.3 1-4.1-.2 1 2.7-1.4 3.1c-2.4.3-3.5-1.1-3.5-1.1s-.1 1.8-2.1 1.9c-2 .1-2.9-1.9-2.9-1.9s-.9 2.4-2.4 2.4-2.6-3.1-2.6-3.1-7.7-.7-8.1-2.6c-.4-2-.3-3.3-.3-3.3s-7 1.3-7.5-1.8c-.4-3.1-.3-4.7-.3-4.7s-4.3-.3-4.2-2.3c.1-2 1.6-4.1 1.6-4.1s-1.3-.4-1.3-1.8c0-1.3 2.9-3.3 2.9-3.3s.3-2.3-1.5-2.3c-1.9 0-5.3-3.5-5.2-3.8.1-.3-.4-4.3-4-3.2-3.5 1.1-3.4-4.2-3.4-4.2s-3.1-2.6-2.7-4.2 1.8-2.4 1.8-2.4-3.6-1.3-2.8-2.6c.8-1.3 3.8-3.3 3.8-3.3s-4-3.5-3.9-4.9c.2-1.4-1.9-.8-2.3-1.5-.3-.8-.7-3.2-.7-3.2s-2.5-1.8-1.4-3 2.9-2.7 2.9-2.7-5.9-1.2-5.9-3 2-3.7 2-3.7 1.3-1.4.1-3.3-1.3-4.7-1.3-4.7-2.9-1.8-2.4-4.2 4.8-2.7 4.8-2.7 1.2-1.8.5-3.2c-.7-1.4-2.7-3.6-2.2-5.1.5-1.4 1.1-2.5 1.1-2.5s-2.6-2.9-2-4.8c.7-2 5.7-2.3 5.7-2.3s4.7-.9 3.1-3-1.6-4 0-5.3c1.6-1.3-2-3.7-2-3.7s.7-2.6-.5-3.6 1-3.1 1-3.1-1.3-1.3-1-2.2c-.3-1.3 3.4-4.1 3.4-4.1z" style="fill:#3a9e47"/></g><g id="Calque_6"><path id="XMLID_199_" class="st2" d="M67.8 93.2s-4-3.3-2.4-4.8c1.7-1.5 5-1.7 5-1.7s-1.5-3.1 0-3.1h3.3s-.7-3 1.3-2.7c2 .4 1.1-2.6 1.1-2.6s1.7-1.2 3.3-.9 5.3-2 7-1.4 4.1.6 4.1.6-.8-2.2.9-2.6c0-1.5-1.7-4.8 2.2-5.9 3.9-1.1 1.5-7.4 1.5-7.4s.7.2.9-3.4c.2-3.7 3.1-4 3.1-4s-1.3-4.6 0-6.4c1.3-1.8 3.9-.9 3.9-.9s-.7-2 .9-2.6 3.9.7 3.9.7-.4-4.4 3.3-4.4c3.7 0 3.7 2 3.7 2s.6-1.1 3.9-2c3.3-.9 4.4 1.1 4.4 1.1s1.1-1.9 2.9-1.3c1.8.6 2.9 3 2.9 3s-1.3-1.3 2-.7c3.3.6 3.1 2.6 3.1 2.6s3.1-1.5 3.7-2.9c.6-1.5 1.3-3.3 2.9-3.3s3.3 1.3 3.3 1.3 2.2-.9 3.5-.2 2.4 2.6 2.4 2.6-.9-2.4.9-3.7 5 1.3 5 1.3-1.3-3.7 0-3.9 3.1 0 3.1 0 2.8-1.1 3.3-.1c.6 1-.4-3 1.7-2.9s4.2 2.8 4.2 2.8-.1-3.6 1.8-2.8 2.4 2.9 2.4 2.9 1.5-1 2.8.6 1.1 2.6 1.1 2.6 2.8-1.7 4 .1c1.3 1.8.7 3.6.7 3.6s1.4.1 2.5 1.1.6 1.7.6 1.7.8-1.7 2.4-1 1.7 1.7 1.7 1.7 2.4.1 2.8 1c.5.9.4 3.1.4 3.1s2.1.6 1.8 2.4c-.3 1.8-1.8 2.9-1.8 2.9s1.5 2.7.8 4.4c-.6 1.7 5.1-3.2 5.1-3.2s1.3-2.2 2.5-1.7 0 3.6 0 3.6 1.5 0 1.2 1.2c-.3 1.2.6-2.8 2.2-1.7 1.7 1.1 3.3 2.2 2.6 3.5s1.7 2.2 1.7 2.2 1.5-3.2 3.6-.7.4 3.6.4 3.6 3.1 1.4 3.4 2.9-1.1 2.5-1.1 2.5 2.1 2.1 2.2 3.5c2.1 1 3.5 2.5 3.4 3.7s-1 3.9-1 3.9l.1 4.6s5.3 1.8 6.2 3.4 4.9 2.8 4.2 4.1-.5 2.8-.5 2.8 1.4 0 1.7 1.5c.3 1.5-1.3 2.5-1.3 2.5s1.2.2 1.3 1.7c.2 1.5-2 3.7-2 3.7s1.1 2.6.9 3.4-2.2 1.7-2.2 1.7l-.2 3.5s2 .7 1.7 2.1-1.5 3-1.5 3 1.3 1.7.9 2.8 1.6 1.8 1.2 2.8-1.7 3.3-3.2 3.4-1.4 2.6-1.4 2.6 3.1 1.6 2.8 2.8 2.6 1.9 2.6 3.3.2 6.5-.9 6.1 1.1 3.4 1.3 3.6c.2.2 4.5 4.3 2.4 6.2-2 1.9-1.3 4.7-1.3 4.7s-1.9 1.7-3 .9-1 4.3-1 4.3 3.6-.3 3.6 1.2-1.6 4-1.6 4 3.4 2.3 2.5 3.1-3.4.9-3.5 1.5-1.2 1.8-1.2 1.8 2.7 2.5 1.4 3.4-3.3 5.7-3.3 5.7-2 2.2-3.8 2-.9 2.6-2.9 2.4-4.8-.3-4.6 1 2.3 3.9.3 3.9-4.9 2.1-4.9 2.1-1.1 3.1-3.8 2.1-5.2-3.6-5.2-3.6-3.8.6-3.8 2.5-2.4 3-5.8 3.6c-3.4.6-2.1 2.3-2.1 2.3s1.4 4.4-.1 4.5-3.2 1.5-3.8.4-2.4-1.1-2.4 0-.6 2.2-1.4 2.3.4 3.3-1.9 2.7-3-1.7-3-1.7 1.3 1.7-1.1 1.2-2 1.3-4.5.9-1.3-3.1-2.8-3.2-1.7-2.5-2.6-2.1-1.3 2.7-2.8 2-2.8-2.6-2.8-2.6-3.2 1.1-3.5-.3-.4-3.6-.6-3.6-4.3-1-4.3-1-1.2-1.9-.8-3.2-.6-3.4-1.7-3.3-2.1 1.2-2.9.4-.6-3-.6-3-2.5-1.6-3.1-1 .6 3.4-1.7 4.7-5.8-2.9-5.8-2.9-2.8 1.7-3.3 1 3.6 4.3 1.5 5.1c-2.1.8 1.9 4.5-1.4 4s-3.1 1.8-3.1 1.8-2.3 1.5-3 .2-1 2.3-2.5 2.9-6.1-.1-6.7-2c-2.2 0-5.1.4-5.4-1.7s.1-5.1.1-5.1-3.6.8-3.4-.2.8 2.3-1.2 2.6-2.9-.9-2.9-.9-.1 1.5-1.7 1.6c-1.7.1-2.4-1.6-2.4-1.6s-.7 2-2 2-2.2-2.6-2.2-2.6-6.4-.6-6.8-2.2-.3-2.8-.3-2.8-5.9 1.1-6.2-1.5c-.4-2.6-.3-4-.3-4s-3.6-.3-3.5-1.9 1.4-3.4 1.4-3.4-1.1-.4-1.1-1.5 2.4-2.8 2.4-2.8.3-1.9-1.3-1.9-4.4-2.9-4.3-3.2-.4-3.6-3.3-2.7-2.8-3.5-2.8-3.5-2.6-2.2-2.3-3.5 1.5-2 1.5-2-3-1.1-2.3-2.2 3.2-2.8 3.2-2.8-3.4-2.9-3.3-4.1c.1-1.2-1.6-.6-1.9-1.3s-.6-2.7-.6-2.7-2.1-1.5-1.2-2.5 2.4-2.3 2.4-2.3-5-1-5-2.5 1.7-3.1 1.7-3.1 1.1-1.2.1-2.8c-1-1.6-1.1-4-1.1-4s-2.4-1.5-2-3.5 4-2.3 4-2.3 1-1.5.5-2.7c-.6-1.2-2.3-3-1.8-4.2.5-1.2.9-2.1.9-2.1s-2.2-2.4-1.7-4 4.8-1.9 4.8-1.9 4-.7 2.6-2.5c-1.4-1.7-1.4-3.3 0-4.4s-1.7-3.1-1.7-3.1.6-2.2-.5-3c-1-.8.8-2.6.8-2.6s-1.1-1.1-.8-1.8 3.1-3.3 3.1-3.3z"/><path id="XMLID_198_" d="M71.1 94.5s-3.9-3.2-2.3-4.6c1.6-1.4 4.8-1.6 4.8-1.6s-1.4-3 0-3h3.2s-.7-3 1.2-2.6c1.9.4 1.1-2.5 1.1-2.5s1.6-1.1 3.2-.9c1.6.2 5.1-1.9 6.7-1.4s3.9.6 3.9.6-.8-2.1.8-2.5c0-1.4-1.6-4.6 2.1-5.6 3.7-1.1 1.4-7 1.4-7s.7.2.9-3.3c.2-3.5 3-3.9 3-3.9s-1.2-4.4 0-6.2c1.2-1.8 3.7-.9 3.7-.9s-.7-1.9.9-2.5 3.7.7 3.7.7-.4-4.2 3.2-4.2c3.5 0 3.5 1.9 3.5 1.9s.5-1.1 3.7-1.9c3.2-.9 4.2 1.1 4.2 1.1s1.1-1.9 2.8-1.3c1.8.6 2.8 2.9 2.8 2.9s-1.2-1.2 1.9-.7c3.2.5 3 2.5 3 2.5s3-1.4 3.5-2.8 1.2-3.2 2.8-3.2c1.6 0 3.2 1.2 3.2 1.2s2.1-.9 3.3-.2c1.2.7 2.3 2.5 2.3 2.5s-.9-2.3.9-3.5c1.8-1.2 4.8 1.2 4.8 1.2s-1.2-3.5 0-3.7c1.2-.2 3 0 3 0s2.6-1 3.2-.1c.5 1-.4-2.9 1.6-2.7 1.9.2 4 2.6 4 2.6s-.1-3.4 1.8-2.6c1.8.8 2.3 2.8 2.3 2.8s1.4-1 2.7.5c1.3 1.5 1.1 2.5 1.1 2.5s2.6-1.7 3.9.1.7 3.4.7 3.4 1.3.1 2.4 1.1c1.1 1 .6 1.7.6 1.7s.8-1.7 2.3-1c1.5.7 1.7 1.6 1.7 1.6s2.3.1 2.7 1c.4.9.4 3 .4 3s2 .5 1.8 2.3c-.3 1.8-1.8 2.8-1.8 2.8s1.4 2.6.8 4.2 4.9-3.1 4.9-3.1 1.2-2.1 2.4-1.6c1.1.5 0 3.4 0 3.4s1.4 0 1.1 1.1c-.3 1.1.5-2.6 2.1-1.6 1.6 1.1 3.2 2.1 2.5 3.3-.7 1.2 1.7 2.1 1.7 2.1s1.4-3 3.4-.7c2 2.4.4 3.4.4 3.4s3 1.3 3.3 2.8c.3 1.5-1.1 2.4-1.1 2.4s2 2 2.1 3.3c2 1 3.3 2.4 3.3 3.5-.1 1.1-1 3.7-1 3.7l.1 4.4s5.1 1.8 5.9 3.3 4.7 2.6 4 4c-.6 1.3-.4 2.7-.4 2.7s1.3 0 1.6 1.4c.3 1.4-1.2 2.4-1.2 2.4s1.1.2 1.3 1.6c.1 1.4-1.9 3.5-1.9 3.5s1.1 2.5.9 3.3c-.2.8-2.1 1.7-2.1 1.7l-.2 3.3s1.9.7 1.6 2-1.4 2.9-1.4 2.9 1.2 1.6.9 2.6c-.4 1.1 1.5 1.8 1.1 2.7s-1.7 3.2-3.1 3.3c-1.4.1-1.3 2.5-1.3 2.5s3 1.5 2.6 2.6c-.4 1.1 2.5 1.8 2.5 3.2s.2 6.3-.9 5.8 1 3.3 1.3 3.4c.2.2 4.3 4.1 2.3 6s-1.2 4.5-1.2 4.5-1.8 1.7-2.9.9c-1.1-.8-1 4.1-1 4.1s3.4-.3 3.4 1.1c0 1.4-1.5 3.8-1.5 3.8s3.3 2.2 2.4 3c-.9.8-3.3.9-3.3 1.4-.1.5-1.1 1.8-1.1 1.8s2.6 2.4 1.3 3.3c-1.2.9-3.2 5.5-3.2 5.5s-1.9 2.1-3.6 1.9-.9 2.5-2.8 2.3c-1.9-.2-4.6-.3-4.4 1 .2 1.2 2.2 3.7.3 3.7s-4.7 2-4.7 2-1.1 3-3.6 2c-2.6-1-5-3.4-5-3.4s-3.6.5-3.6 2.4-2.3 2.9-5.5 3.4c-3.3.5-2 2.2-2 2.2s1.3 4.2-.1 4.3c-1.4.1-3.1 1.4-3.6.4-.5-1.1-2.3-1.1-2.3 0s-.6 2.1-1.3 2.2c-.7.1.4 3.2-1.8 2.6-2.2-.6-2.9-1.6-2.9-1.6s1.2 1.6-1.1 1.1c-2.3-.4-1.9 1.2-4.3.9s-1.2-3-2.7-3.1c-1.5-.1-1.6-2.4-2.5-2-.9.4-1.2 2.6-2.7 1.9s-2.7-2.5-2.7-2.5-3.1 1.1-3.3-.3-.4-3.4-.6-3.4-4.1-1-4.1-1-1.1-1.8-.8-3.1c.4-1.2-.6-3.3-1.6-3.2-1 .1-2 1.1-2.8.4-.8-.8-.6-2.9-.6-2.9s-2.4-1.5-3-1c-.6.5.6 3.3-1.6 4.5-2.2 1.2-5.5-2.8-5.5-2.8s-2.6 1.7-3.2 1c-.5-.7 3.4 4.1 1.4 4.9-2 .8 1.8 4.3-1.3 3.9s-3 1.8-3 1.8-2.2 1.4-2.9.2-1 2.2-2.4 2.8c-1.4.6-5.8-.1-6.4-1.9-2.1 0-4.8.4-5.2-1.7-.4-2 .1-4.9.1-4.9s-3.4.8-3.3-.2c.2-1 .8 2.2-1.1 2.5-1.9.3-2.8-.9-2.8-.9s-.1 1.4-1.7 1.5c-1.6.1-2.3-1.5-2.3-1.5s-.7 1.9-1.9 1.9-2.1-2.5-2.1-2.5-6.2-.5-6.5-2.1c-.4-1.6-.3-2.6-.3-2.6s-5.6 1.1-6-1.4c-.4-2.5-.3-3.8-.3-3.8s-3.4-.3-3.3-1.8c.1-1.6 1.3-3.3 1.3-3.3s-1.1-.4-1.1-1.4 2.3-2.6 2.3-2.6.3-1.8-1.2-1.8-4.2-2.8-4.1-3.1c.1-.3-.4-3.4-3.2-2.6-2.8.9-2.7-3.3-2.7-3.3s-2.5-2.1-2.2-3.3c.3-1.2 1.4-1.9 1.4-1.9s-2.9-1.1-2.2-2.1 3-2.6 3-2.6-3.2-2.8-3.1-4c.1-1.1-1.5-.6-1.8-1.2-.3-.6-.5-2.6-.5-2.6s-2-1.4-1.1-2.4c.9-1 2.3-2.2 2.3-2.2s-4.8-1-4.8-2.4 1.6-3 1.6-3 1.1-1.1.1-2.6-1.1-3.8-1.1-3.8-2.3-1.4-1.9-3.3c.4-1.9 3.9-2.2 3.9-2.2s1-1.4.4-2.6c-.5-1.1-2.2-2.9-1.8-4s.9-2 .9-2-2.1-2.3-1.6-3.9 4.6-1.8 4.6-1.8 3.8-.7 2.5-2.4c-1.3-1.7-1.3-3.2 0-4.2 1.3-1.1-1.6-3-1.6-3s.5-2.1-.4-2.9c-1-.8.8-2.5.8-2.5s-1.1-1.1-.8-1.8c-.5-.8 2.4-3.1 2.4-3.1z" style="fill:#5fb446"/><path id="XMLID_197_" class="st6" d="M113.5 67.5c1.7-2.7 4-5.8 7.2-5.8 1.3 0 2.5.5 3.8.5 4.3-.1 6.7-5.6 10.9-6.5 1.9-.4 4.1.3 5.9-.6 2.5-1.2 3.8-4.9 6.5-4.7 3.2.2 3.7 5.5 6.9 6.4 2.3.6 7.1 13.6 8.2 11.5s2.9-4.5 5.2-4c2.5.5 3.3 3.9 5.5 5.2 3.2 1.8 7.9-1.6 10.7.9 1.2 1.1 1.4 2.9 1.9 4.4.9 3 3.3 5.8 6.5 6 2 .1 4.4-.8 6 .4 2 1.5 1.2 5 2.8 6.9 1.8 2.2 6 1.6 7.1 4.2.9 2.1-1 4.3-1.3 6.6-.5 4.3 4.9 7.8 3.8 12-.5 1.8-2 3-2.8 4.7-1.7 3.4 0 7.4.5 11.2.1.8.1 1.8-.5 2.4-1 1 2.9 11.5 1.6 12-1.2.4-1.9 1.8-2.2 3-.5 2.2-.3 4.6.5 6.7.9 2.2 2.4 4 3.1 6.2.7 2.2.1 5.2-2.1 6-2.3.8-4.9-1.2-7.3-.5-3.1.9-3.3 5.1-2.8 8.3.1.4.1.8.4 1.1.5.5 1.4.3 2.1.2 2.4-.2 4.4 2.7 3.5 5s-3.8 3.3-6.1 2.5c-.7-.3-1.3-.7-2-.7-2.1-.2-3.3 2.4-3.7 4.5-.4 2.1-1.3 4.7-3.4 4.9-3 .2-3.9-4.6-6.7-5.3-2.1-.6-4 1.2-5.5 2.8s-3.8 3.1-5.7 2c-.9-.5-1.4-1.5-2-2.4-1.9-2.8-5.8-4.5-8.7-2.7-1.8 1.1-12.2-.7-14.3-.5-2.4.2-14.2 9.5-15.3 7.4s-3.2-4.4-5.4-3.5c-.7.3-1.2.9-1.9 1.2-2 .9-4.3-.8-5.1-2.8-.9-2-.8-4.3-1.4-6.3-.6-2.1-2.4-4.2-4.5-4-.9.1-1.8.6-2.6 1.1-3.3 1.8-6.9 2.7-10.6 2.7-2.6 0-5.5-.7-6.7-3-1.7-3.5 1.6-8.9-1.6-11.2-2-1.4-4.8.2-5.9 2.3-.7 1.4-1.2 3.3-2.7 3.8-1.2.4-2.5-.4-3.1-1.5-.6-1.1-.7-2.3-.8-3.6-.2-2.8-.3-5.7 1-8.2 1.8-3.5 6-5.3 7.8-8.8 1.6-3 1-7-1.4-9.5-.8-.8-1.8-1.5-2.3-2.5-1.2-2.2.3-5 2.5-6.1 2.2-1.1 4.8-1 7.2-.9 1.2-2.5 16.4-24.4 15.1-26.8-.6-1.1-11.6-11.3-12.3-12.3-1.1-1.7 2.6-19.8 4-21.2 1.4-1.4 3.6-1.9 5.5-1.2 1.2.4 2.1 1.3 3.3 1.7s2.8 0 3.1-1.2"/></g><g id="layout2"><path id="XMLID_173_" d="M101.8 163.8s-3.4 1.6-3.8.1c-.4-1.5.5-3.7.5-3.7s-2.5 0-2-1-3.4-.5-3.4-.5-2.3-.5-1.4-1.7 2-2.6 2-2.6-.2-1.4.4-2.4c.7-1 .4-4.1 1.3-5 .9-.9 2.4-2.8 2.4-2.8s-2.4.2-2.1-1c-1-.5-3.6-.4-3.1-3.3.5-2.8-4.3-3.2-4.3-3.2s1.5-1-.8-2.3c-2.3-1.3-6.1-1.7-6.1-1.7s-3.4-.6-4.2-2c-.8-1.4.6-2.8.6-2.8s-1.5-.2-1.4-1.4c.2-1.2 1.7-2.3 1.7-2.3s-3-1.1-1.8-3.5 6.9-3.4 6.9-3.4-.5-.7-.1-3.1 2.1-2.5 2.1-2.5-.9-1.3.1-2.3c1-1 2.9-1 2.9-1s-1.2.4.2-1.5c1.4-2 2.6-1.2 2.6-1.2s0-2.5-.8-3.3c-.8-.8-1.7-1.9-1.2-2.9.5-1.1 1.9-1.7 1.9-1.7s.1-1.7 1-2.3c.9-.6 2.4-.7 2.4-.7s-1.8-.2-2.1-1.7c-.3-1.6 2.4-2.8 2.4-2.8s-2.8-.3-2.5-1.2c.3-.9 1-2 1-2s.2-2.1 1-2.2-2.1-.7-1.3-2 3.1-1.9 3.1-1.9-2.4-1.1-1.2-2.1c1.1-1 2.7-.6 2.7-.6s-.2-1.3 1.2-1.7c1.4-.4 2 .1 2 .1s-.3-2.3 1.3-2.6c1.6-.3 2.5.6 2.5.6s.5-.9 1.5-1.3 1.3.1 1.3.1-.9-1.1.1-1.9 1.6-.6 1.6-.6.8-1.5 1.5-1.5 2.1.7 2.1.7 1-1.2 2.1-.4c1.1.8 1.3 2.1 1.3 2.1s1.5-1.3 2.4-.4.2-3.1.2-3.1-1-1.5-.3-2.1 2.3 1.1 2.3 1.1.5-1 1.1-.4c.7.6-1.6-1.2-.4-1.9s2.5-1.5 3.1-.6c.6.9 2-.4 2-.4s-1.6-1.9.7-2.5c2.2-.6 2.4.9 2.4.9s1.9-1.6 3-1.3c1.1.3 1.3 1.5 1.3 1.5s2-.7 2.9-.3c1.3-1.1 2.7-1.5 3.4-1.1.7.4 2.2 1.9 2.2 1.9l3 1.4s2.9-2.9 4.1-2.9c1.3 0 3.3-2.3 4-1.4s1.7 1.2 1.7 1.2.4-.9 1.5-.6c1 .3 1.2 1.6 1.2 1.6s.5-.7 1.5-.3c1 .4 1.8 2.4 1.8 2.4s2 .1 2.5.5.4 2 .4 2l2.2 1.2s1.1-1.1 1.9-.4 1.5 1.9 1.5 1.9 1.5-.3 2.1.3c.6.6 1.7-.4 2.2.1.5.6 1.6 2.2 1.2 3.1s1.2 1.7 1.2 1.7 2-1.5 2.6-.9c.7.6 2.1-1.1 2.9-.6s4.3 1.9 3.6 2.5 2.5.4 2.7.3 4.2-1.5 4.8.4c.6 1.9 2.6 2.3 2.6 2.3s.5 1.8-.4 2.3c-.9.5 2.5 2 2.5 2s.9-2.4 1.9-1.9c1 .5 2.1 2.2 2.1 2.2s2.5-1.5 2.8-.6c.2.9-.5 2.5-.1 2.7.3.2.8 1.3.8 1.3s2.4-.9 2.6.2c.2 1.1 2.7 3.9 2.7 3.9s.8 2 .1 3.1 1.4 1.4.6 2.7c-.8 1.3-1.7 3-.8 3.3.9.3 3.2-.3 2.6 1-.6 1.3-.2 3.8-.2 3.8s1.7 1.7.2 3.1c-1.5 1.4-4 2.3-4 2.3s-.8 2.6.4 3.2c1.2.6 1.2 2.5.5 4.9-.7 2.4.8 2.1.8 2.1s3.3.5 2.9 1.5c-.4 1-.1 2.5-.9 2.6-.9 0-1.5 1.2-.7 1.5.7.3 1.2 1.1 1.1 1.6-.2.5 2.3.8 1.1 2.1-1.1 1.3-2 1.4-2 1.4s1.5-.3.4 1.1c-1 1.4.2 1.7-.8 3.2-1 1.5-2.4-.1-3 .8-.5 1-2.1.3-2.2 1 0 .7 1.3 1.7.4 2.5s2.1.9 2.1.9-.3 2.4-1.3 2.2-2.4-.9-2.5-.7c-.1.2-2 2.5-2 2.5s-1.6.2-2.3-.5c-.7-.6-2.4-.6-2.7 0-.3.7.1 1.7-.7 2-.8.3-2.2-.5-2.2-.5s-1.8 1.1-1.6 1.7 2.4.6 2.5 2.5c.1 1.9-3.7 2.8-3.7 2.8s.3 2.3-.4 2.5c-.6.1 3.9-1 3.8.7-.1 1.6 3.5.2 2.2 2.2s.2 2.6.2 2.6-1.5 1.7-2.6 1.8c-1.1.1-1.8 1.7-1.8 2.9s-2 3.9-3.4 3.7c-.7 1.4-1.3 3.4-2.8 3-1.5-.4-3.3-1.7-3.3-1.7s-.6 2.6-1.2 2.1c-.6-.4 1.7.2 1.3 1.6-.5 1.4-1.5 1.6-1.5 1.6s.9.5.5 1.6c-.5 1.1-1.8 1.1-1.8 1.1s1.1 1.1.7 1.9c-.4.8-2.4.6-2.4.6s-2.4 4-3.6 3.7c-1.2-.3-1.9-.7-1.9-.7s-1.1 4.2-2.9 3.6c-1.8-.6-2.6-1.1-2.6-1.1s-1.3 2.2-2.3 1.7-1.8-2-1.8-2-.6.6-1.3.3-1-2.4-1-2.4-1.2-.8-1.7.2-3.3 1.9-3.4 1.8c-.1-.1-2.4-.9-2.8 1.3-.3 2.2-3.2.8-3.2.8s-2.2 1-3 .4c-.7-.6-.8-1.6-.8-1.6s-1.7 1.6-2.2.8-.8-2.9-.8-2.9-3 1.3-3.7.8c-.7-.5-.9.8-1.4.8-.5 0-1.9-.5-1.9-.5s-1.6.9-2 0c-.4-.9-.7-2.3-.7-2.3s-2.2 2.9-3.2 2.4-1.5-2-1.5-2-.4-1.1-1.8-.9c-1.3.2-2.9-.5-2.9-.5s-1.7 1.1-2.9.2c-1.2-.9-.2-3.3-.2-3.3s-.6-1.1-1.6-1.1c-.9 0-2.7.5-3.3-.1-.6-.7-1.1-1.3-1.1-1.3s-2.2.7-3.1-.2c-.9-.9.2-3.7.2-3.7s.8-2.8-.8-2.4c-1.6.3-2.6-.1-2.9-1.4s-2.5.1-2.5.1-1.3-1-2.1-.7c-.9.4-1.4-1.3-1.4-1.3s-1.1.4-1.4 0c0-1-.6-3.7-.6-3.7z" style="fill:#1a5632"/><path id="XMLID_132_" d="M103.4 162.3s-3.3 1.5-3.7.1c-.4-1.5.5-3.6.5-3.6s-2.4 0-1.9-.9c.4-.9 1-2.1 1-2.1s-2.2-.5-1.3-1.6c.8-1.1 1.9-2.5 1.9-2.5s-.2-1.4.4-2.3c.6-1 .4-3.9 1.2-4.8.8-.9 2.3-2.7 2.3-2.7s-2.3.1-2.1-1c-.9-.4-3.5-.4-3-3.1s-4.1-3.1-4.1-3.1-2.8.6-5.1-.6c-2.2-1.2-1.6-3.2-1.6-3.2s-3.3-.6-4-1.9c-.8-1.4.6-2.7.6-2.7s-1.5-.2-1.3-1.3c.2-1.2 1.6-2.2 1.6-2.2s-2.9-1.1-1.8-3.4c1.1-2.3 2.4-1.7 2.4-1.7s-.5-.7-.1-3 2-2.4 2-2.4-.9-1.3 0-2.2c.9-1 2.8-.9 2.8-.9s-1.2.4.2-1.5c1.3-1.9 2.5-1.2 2.5-1.2s0-2.4-.7-3.2c-.8-.8-1.7-1.8-1.2-2.8s1.8-1.7 1.8-1.7.1-1.7.9-2.2c.8-.6 2.3-.7 2.3-.7s-1.8-.1-2-1.7c-.2-1.5 2.3-2.7 2.3-2.7s-2.7-.3-2.4-1.2c.3-.9.9-1.9.9-1.9s.2-2 .9-2.1c.8 0-2-.7-1.3-1.9s3-1.8 3-1.8-2.3-1-1.2-2c1.1-1 2.6-.6 2.6-.6s-.2-1.2 1.2-1.6c1.4-.4 1.9.1 1.9.1s-.3-2.2 1.3-2.5c1.5-.2 2.5.6 2.5.6s.5-.8 1.4-1.2 1.3.1 1.3.1-.8-1 .1-1.8 1.6-.6 1.6-.6.8-1.5 1.5-1.5 2.1.7 2.1.7 1-1.2 2-.4c1.1.7 1.3 2 1.3 2s2.1-.1 3 .8c.9.9-.5-4.2-.5-4.2s-1-1.5-.3-2c.7-.6 2.2 1.1 2.2 1.1s.4-.9 1.1-.4c.7.5-1.6-1.2-.4-1.9 1.2-.7 2.4-1.4 3-.6s1.9-.4 1.9-.4-1.5-1.9.6-2.4c2.2-.6 2.3.8 2.3.8s1.8-1.5 2.9-1.2 1.2 1.4 1.2 1.4 2-.7 2.8-.3c1.3-1 2.6-1.4 3.3-1 .7.4 2.1 1.8 2.1 1.8l2.9 1.3s2.7-2.8 4-2.8 3.2-2.2 3.8-1.4 1.6 1.1 1.6 1.1.4-.9 1.4-.6 1.2 1.5 1.2 1.5.5-.7 1.4-.3c1 .3 1.7 2.3 1.7 2.3s1.9.1 2.4.5.4 1.9.4 1.9l2.1 1.2s1.1-1 1.8-.4 1.4 1.8 1.4 1.8 1.4-.3 2 .3c.6.6 1.6-.4 2.1.1s1.5 2.1 1.2 3c-.4.9 1.2 1.6 1.2 1.6s1.9-1.5 2.5-.9c.6.6 2-1 2.8-.6.9.4 4.1 1.8 3.5 2.4-.6.5 2.4.3 2.6.3.2-.1 4-1.5 4.6.4.6 1.8 2.5 2.2 2.5 2.2s.5 1.7-.3 2.2 2.4 1.9 2.4 1.9.9-2.3 1.8-1.9c.9.4 2 2.2 2 2.2s2.5-1.4 2.7-.6c.2.8-.5 2.4-.1 2.6.3.2.8 1.3.8 1.3s2.3-.9 2.5.2 2.6 3.8 2.6 3.8.8 1.9.1 3c-.6 1 1.3 1.3.6 2.6s-1.6 2.9-.8 3.2c.9.3 3.1-.3 2.5 1s-.1 3.7-.1 3.7 1.6 1.6.2 3-3.8 2.2-3.8 2.2-.8 2.5.4 3.1c1.2.6 1.2 2.4.5 4.7-.7 2.3.8 2 .8 2s3.2.5 2.8 1.4c-.4.9-.1 2.4-.9 2.5-.9 0-1.4 1.2-.7 1.5.7.3 1.2 1.1 1 1.6s2.2.8 1.1 2-1.9 1.4-1.9 1.4 1.4-.3.4 1c-1 1.4.2 1.6-.8 3.1s-2.3-.1-2.9.8-2 .3-2.1 1c0 .7 1.3 1.6.4 2.4-.9.8-2.5 1-2.5 1s-.3 2.3-1.2 2.1c-.9-.2-2.3-.8-2.4-.7-.1.2-1.9 2.4-1.9 2.4s-1.6.2-2.3-.5c-.7-.6-2.3-.6-2.6 0-.2.7.1 1.7-.7 1.9s-2.1-.5-2.1-.5-1.7 1.1-1.6 1.6 2.3.6 2.4 2.4c.1 1.8-3.6 2.7-3.6 2.7s.3 2.2-.4 2.4c-.6.1 3.8-.9 3.7.6-.1 1.6 3.4.2 2.1 2.1-1.3 1.9.2 2.5.2 2.5s.2 1.9-.8 1.9c-1 .1 1.1 1.3 1.1 2.4 0 1.1-1.9 3.8-3.3 3.6-.7 1.4-1.3 3.3-2.7 2.9-1.4-.4-3.2-1.6-3.2-1.6s-.6 2.5-1.1 2.1 1.7.2 1.2 1.5c-.4 1.3-1.5 1.6-1.5 1.6s.9.5.4 1.6-1.7 1-1.7 1 1 1.1.7 1.9c-.4.8-2.3.6-2.3.6s-2.3 3.8-3.4 3.6-1.8-.7-1.8-.7-1.1 4-2.8 3.5c-1.7-.5-2.5-1-2.5-1s-1.3 2.2-2.3 1.6c-1-.6-1.7-1.9-1.7-1.9s-.6.6-1.2.2c-.7-.3-1-2.3-1-2.3s-1.1-.8-1.6.2-3.2 1.9-3.3 1.7c-.1-.1-2.3-.8-2.7 1.3-.3 2.1-3 .7-3 .7s-2.1.9-2.9.4c-.7-.6-.8-1.5-.8-1.5s-1.6 1.5-2.1.8c-.5-.8-.8-2.8-.8-2.8s-2.9 1.2-3.6.8-.9.8-1.4.8c-.5 0-1.8-.5-1.8-.5s-1.6.9-1.9 0c-.4-.9-.7-2.2-.7-2.2s-2.1 2.8-3 2.3c-.9-.4-1.4-2-1.4-2s-.4-1-1.7-.9c-1.3.2-2.8-.5-2.8-.5s-1.6 1-2.8.2c-1.1-.8-.2-3.2-.2-3.2s-.6-1.1-1.5-1.1-2.6.5-3.2-.1c-.6-.6-1-1.2-1-1.2s-2.2.7-3-.2c-.9-.8.2-3.6.2-3.6s.7-2.7-.8-2.4c-1.5.3-2.5-.1-2.7-1.3-.3-1.2-2.4.1-2.4.1s-1.2-1-2-.6-1.4-1.3-1.4-1.3-1 .4-1.4 0c.1-.7-.5-3.3-.5-3.3z" style="fill:#80c460"/><path id="XMLID_131_" class="st6" d="M120.9 153.3c-2.5-1-5.4-2.3-6-5-.2-1.1 0-2.2-.3-3.2-.8-3.5-5.7-4.6-7.2-7.9-.6-1.5-.5-3.4-1.4-4.7-1.4-1.9-4.7-2.3-5-4.6-.4-2.7 3.9-4 4.1-6.7.1-2-2-3.3-3.8-4.1-1.8-.9-3.8-2.3-3.5-4.3.4-2.1 3.2-2.8 4.2-4.7 1.4-2.7-1.5-6.6.5-9 .9-1 2.4-1.2 3.7-1.7 2.5-.8 4.8-2.9 4.9-5.6.1-1.7-.8-3.6.2-5 1.2-1.7 4.1-1.1 5.7-2.5 1.8-1.6 1.2-5 3.3-6.1 1.7-.8 3.7.7 5.6.9 3.6.3 6.4-4.3 10-3.4 1.5.3 2.6 1.6 4 2.3 2.9 1.3 6.2-.2 9.4-.7.7-.1 1.5-.1 2 .3.9.8.4 2.3.8 3.4.4 1 1.5 1.5 2.6 1.7 1.9.4 3.9.2 5.6-.6 1.8-.8 3.3-2.1 5.1-2.8s4.3-.2 5 1.6c.8 1.9-.9 4.1-.3 6.1.8 2.6 4.4 2.6 7 2.2.3-.1.7-.1.9-.4.4-.5.2-1.2.1-1.8-.2-2 2.2-3.7 4.1-3.1 1.9.7 2.9 3.1 2.2 5-.2.6-.5 1.1-.6 1.7-.1 1.8 2.1 2.7 3.9 3 1.8.3 4 .9 4.2 2.7.2 2.5-3.7 3.3-4.3 5.8-.4 1.8 1.1 3.3 2.5 4.5 1.3 1.2 2.7 3.1 1.8 4.7-.4.8-1.3 1.2-2 1.7-2.3 1.6-3.6 5-2.1 7.4 1 1.5 2.9 2.4 3.1 4.2.2 2-1.9 3.3-3.6 4.3s-3.6 2.8-2.8 4.6c.3.6.7 1 1 1.6.8 1.6-.5 3.6-2.2 4.4-1.7.8-3.6.8-5.3 1.4-1.7.6-3.4 2.1-3.2 3.9.1.8.5 1.5.9 2.2 1.6 2.7 2.4 5.8 2.5 8.9.1 2.2-.4 4.6-2.3 5.7-2.9 1.5-7.5-1.2-9.3 1.6-1.1 1.7.2 4 2.1 4.9 1.2.6 2.8.9 3.3 2.2.3 1-.3 2.1-1.2 2.6-.9.6-1.9.7-3 .8-2.3.2-4.8.4-6.9-.6-3-1.4-4.6-4.9-7.6-6.3-2.6-1.3-5.9-.7-7.9 1.4-.7.7-1.2 1.5-2 2-1.8 1-4.2-.2-5.2-2s-1-4-.9-6c-2.1-1-4.7-1.9-6.7-.7-.9.5-1.5 1.4-2.4 2-1.4 1-3.3 1-4.7.1s-2.2-2.7-1.9-4.3c.2-1 .7-2 .8-3s-.5-2.3-1.5-2.3"/></g><g id="layout"><path id="XMLID_193_" d="M111.4 121.7s-1.9-.3-1.6-1.1c.3-.8 1.3-1.4 1.3-1.4s-1-.7-.6-1 1-.6 1-.6-.8-.8-.1-1.1c.7-.2 1.5-.5 1.5-.5s.3-.7.9-.9c.6-.2 1.3-1.6 1.9-1.7.6-.1 1.8-.5 1.8-.5s-1-.6-.6-1c-.3-.5-1.4-1.2-.4-2.2 1-1-.9-2.6-.9-2.6s-1.4-.6-2-1.8.3-1.8.3-1.8-1.2-1.2-1.2-2 1-1 1-1-.6-.5-.2-1c.4-.5 1.3-.5 1.3-.5s-.9-1.3.2-2 1.5 0 1.5 0 0-.4.8-1.3c.9-.9 1.6-.4 1.6-.4s0-.8.7-.9c.7-.1 1.5.4 1.5.4s-.6-.2.5-.6c1.1-.4 1.4.2 1.4.2s.7-1 .6-1.6c-.1-.6-.2-1.3.3-1.6s1.3-.2 1.3-.2.5-.7 1.1-.7c.5 0 1.2.4 1.2.4s-.7-.6-.4-1.3c.3-.7 1.8-.5 1.8-.5s-1.1-.9-.7-1.2c.4-.3 1-.6 1-.6s.7-.8 1-.6c.4.2-.7-.9 0-1.2.7-.3 1.8.1 1.8.1s-.7-1.1.1-1.2c.8-.1 1.3.5 1.3.5s.3-.6 1-.3c.7.2.8.6.8.6s.6-1 1.3-.7.9 1 .9 1 .4-.2 1-.1.5.4.5.4-.1-.7.6-.7c.6 0 .8.2.8.2s.8-.4 1.1-.2.7.9.7.9.8-.2 1 .4 0 1.3 0 1.3.9.6 1 1.2 1-1.9 1-1.9 0-.9.5-1c.5 0 .6 1.1.6 1.1s.5-.3.6.2c.1.4-.3-1 .4-.9.7 0 1.4.1 1.4.6s.9.4.9.4-.1-1.3 1-.9.8 1 .8 1 1.2-.1 1.6.3.1 1 .1 1 1 .3 1.3.7c.8-.1 1.5.2 1.7.5s.4 1.4.4 1.4l.9 1.4s2-.4 2.5 0 2 0 2.1.5.4 1 .4 1 .4-.2.8.2c.3.4 0 1 0 1s.4-.2.7.3c.3.4 0 1.5 0 1.5s.8.6.9.9c.1.3-.4.9-.4.9l.6 1.1s.8-.1.9.4c.1.5.1 1.2.1 1.2s.7.3.8.7.8.3.9.7c.1.4 0 1.3-.4 1.6-.4.3 0 1.1 0 1.1s1.3-.1 1.4.4c.1.4 1.2.1 1.4.6s1.2 2 .8 2.1c-.4.1 1 .9 1.1.9s2.2.6 1.9 1.5c-.3 1 .4 1.7.4 1.7s-.3.9-.8.8c-.5-.1.5 1.5.5 1.5s1.1-.7 1.3-.3c.3.5.2 1.5.2 1.5s1.5.1 1.3.5c-.1.4-.9.9-.8 1.1s0 .8 0 .8 1.3.3 1 .8c-.2.5 0 2.4 0 2.4s-.2 1.1-.8 1.3c-.6.3.2 1-.5 1.3s-1.5.8-1.3 1.1 1.4.8.8 1.2-1.1 1.5-1.1 1.5.2 1.2-.8 1.3c-1 .2-2.3-.2-2.3-.2s-1.1.8-.7 1.5c.3.6-.2 1.4-1.2 2.2-1 .8-.3 1.1-.3 1.1s1.2 1.1.8 1.4-.7 1-1.1.8c-.4-.2-.9.1-.7.4.2.3.2.8 0 1-.2.2.7 1-.1 1.2-.8.2-1.2 0-1.2 0s.7.3-.1.6c-.8.3-.4.8-1.2 1.1-.8.3-1-.7-1.5-.5s-1-.5-1.2-.2c-.2.3.1 1.1-.5 1.1-.6.1-1.4-.3-1.4-.3s-.8.9-1.1.5c-.3-.4-.8-1.1-.8-1-.1 0-1.5.5-1.5.5s-.7-.4-.8-.9c-.1-.5-.8-1-1.1-.7s-.4.8-.9.6-.7-.8-.7-.8-1.1 0-1.2.2c-.1.3.8 1 .3 1.8s-2.3.1-2.3.1-.6 1-.9.9c-.3-.1 1.9.7 1.4 1.4s1.4 1.1.3 1.5-.7 1.1-.7 1.1-.5.9-.9.6.1.9-.3 1.4c-.3.5-1.9 1.1-2.5.6-.7.4-1.5 1-2 .4s-.9-1.6-.9-1.6-1 .9-1.1.6c-.1-.3.7.6.1 1s-1.1.2-1.1.2.2.5-.3.8c-.5.3-1-.1-1-.1s.1.8-.3 1c-.4.2-1.2-.4-1.2-.4s-2.1 1-2.5.5c-.4-.5-.6-.8-.6-.8s-1.6 1.4-2.2.7c-.6-.7-.8-1.2-.8-1.2s-1.2.6-1.4 0c-.3-.5-.2-1.3-.2-1.3s-.4.1-.6-.3.3-1.3.3-1.3-.3-.7-.7-.4c-.5.3-1.9-.1-1.9-.2s-.8-1.1-1.5-.2c-.8.8-1.5-.6-1.5-.6s-1.2-.2-1.3-.7c-.1-.5.1-.9.1-.9s-1.1.2-1.1-.3.5-1.4.5-1.4-1.6-.3-1.8-.7-.6.1-.8-.1l-.7-.7s-.9-.1-.8-.6c.1-.5.3-1.1.3-1.1s-1.7.6-2 .1 0-1.3 0-1.3.1-.6-.5-.9c-.6-.3-1.1-1-1.1-1s-1 0-1.3-.7c-.2-.7.9-1.4.9-1.4s.1-.6-.3-.9c-.4-.3-1.3-.5-1.3-1-.1-.5-.1-.8-.1-.8s-1.1-.4-1.2-1c-.1-.6 1.2-1.5 1.2-1.5s1.1-.9.4-1.2-1-.8-.8-1.4c.2-.6-1.1-.7-1.1-.7s-.2-.8-.7-.9c-.5-.1-.2-1-.2-1s-.5-.1-.6-.4c-.2-.1.3-1.3.3-1.3z" style="fill:none;stroke:#1b5632;stroke-width:3;stroke-miterlimit:10"/><path id="XMLID_192_" d="M111.7 121.6s-1.8-.3-1.6-1.1c.3-.7 1.2-1.4 1.2-1.4s-1-.7-.6-1 1-.6 1-.6-.8-.8-.1-1.1c.7-.2 1.5-.5 1.5-.5s.3-.7.9-.9c.6-.2 1.3-1.6 1.9-1.7s1.8-.5 1.8-.5-1-.6-.6-1c-.3-.5-1.4-1.2-.4-2.2s-.8-2.5-.8-2.5-1.4-.6-2-1.7c-.6-1.2.3-1.8.3-1.8s-1.2-1.2-1.1-2c.1-.8 1-1 1-1s-.6-.5-.2-1c.4-.5 1.3-.5 1.3-.5s-.9-1.3.2-2 1.5 0 1.5 0 0-.4.8-1.3c.9-.9 1.6-.4 1.6-.4s0-.8.7-.9c.7-.1 1.4.4 1.4.4s-.6-.2.5-.6c1.1-.4 1.4.2 1.4.2s.7-1 .6-1.6c-.1-.6-.2-1.3.3-1.5.5-.3 1.3-.2 1.3-.2s.5-.7 1.1-.7c.5 0 1.2.4 1.2.4s-.7-.6-.4-1.3c.3-.7 1.8-.5 1.8-.5s-1.1-.9-.7-1.2c.4-.3 1-.6 1-.6s.7-.8 1-.6c.3.2-.7-.9 0-1.2s1.8.1 1.8.1-.7-1.1.1-1.2c.7-.1 1.3.5 1.3.5s.3-.6 1-.3c.7.2.8.6.8.6s.5-1 1.3-.7c.7.3.9 1 .9 1s.4-.2 1-.1c.5.1.5.4.5.4s-.1-.7.6-.7c.6 0 .8.2.8.2s.8-.4 1.1-.2.7.9.7.9.8-.2 1 .4c.2.6 0 1.2 0 1.2s.9.6 1 1.2c.1.7 1-1.9 1-1.9s0-.9.5-1c.5 0 .6 1.1.6 1.1s.5-.3.6.2c.1.4-.3-1 .4-.9.7 0 1.4.1 1.4.6s.9.4.9.4-.1-1.2 1-.9.7 1 .7 1 1.2-.1 1.6.3c.4.4.1 1 .1 1s1 .3 1.3.7c.8-.1 1.5.2 1.7.5s.4 1.4.4 1.4l.8 1.4s2-.4 2.5 0c.5.3 2 0 2 .5s.4 1 .4 1 .4-.2.8.2c.3.4 0 1 0 1s.4-.1.7.3c.3.4 0 1.5 0 1.5s.8.6.9.9-.4.9-.4.9l.6 1.1s.8-.1.9.4c.1.5.1 1.2.1 1.2s.7.3.8.7c.1.4.8.3.9.7.1.4 0 1.3-.4 1.6-.4.3 0 1 0 1s1.2-.1 1.3.4c.1.4 1.1.1 1.4.6s1.2 2 .8 2c-.4.1.9.9 1 .9.1 0 2.1.5 1.9 1.5-.3 1 .4 1.7.4 1.7s-.3.9-.8.8c-.5-.1.5 1.5.5 1.5s1.1-.7 1.3-.3c.3.5.2 1.5.2 1.5s1.5.1 1.3.5c-.1.4-.9.9-.8 1.1.1.2 0 .8 0 .8s1.3.3 1 .8c-.2.5 0 2.4 0 2.4s-.2 1-.8 1.3c-.6.3.2 1-.5 1.3-.7.3-1.5.8-1.2 1.1.3.4 1.4.8.8 1.1-.6.4-1.1 1.5-1.1 1.5s.2 1.2-.8 1.3c-1 .2-2.3-.2-2.3-.2s-1.1.8-.7 1.4c.3.6-.2 1.4-1.2 2.1s-.2 1.1-.2 1.1 1.2 1.1.8 1.4c-.4.3-.7 1-1.1.8-.4-.2-.9.1-.7.4.2.3.2.8 0 1-.2.2.7 1-.1 1.2s-1.2 0-1.2 0 .7.3-.1.6c-.8.3-.4.8-1.2 1.1-.8.3-1-.7-1.5-.5-.5.2-1-.5-1.2-.2s.1 1.1-.5 1.1-1.3-.3-1.3-.3-.8.9-1.1.5c-.3-.4-.7-1-.8-1-.1 0-1.5.5-1.5.5s-.7-.4-.8-.9c-.1-.5-.8-.9-1.1-.7s-.4.7-.8.6-.7-.8-.7-.8-1 0-1.1.2.8.9.3 1.7c-.5.8-2.3.1-2.3.1s-.5 1-.8.9c-.3-.1 1.9.7 1.4 1.3-.5.6 1.4 1.1.3 1.5-1.1.4-.6 1.1-.6 1.1s-.5.9-.9.6c-.5-.3.1.9-.2 1.4-.3.5-1.9 1-2.4.6-.7.4-1.5 1-2 .4s-.9-1.6-.9-1.6-1 .9-1.1.5.7.6.1 1-1.1.2-1.1.2.2.5-.3.8c-.5.3-1-.1-1-.1s.1.8-.3 1c-.4.2-1.1-.4-1.1-.4s-2.1 1-2.5.5-.6-.8-.6-.8-1.6 1.4-2.2.7c-.6-.7-.8-1.2-.8-1.2s-1.2.5-1.4 0c-.3-.5-.2-1.3-.2-1.3s-.4.1-.6-.3c-.2-.3.3-1.3.3-1.3s-.3-.6-.7-.4c-.5.3-1.9-.1-1.9-.2s-.7-1-1.5-.2c-.7.8-1.5-.6-1.5-.6s-1.2-.2-1.3-.7c-.1-.4.1-.9.1-.9s-1.1.2-1.1-.3.5-1.4.5-1.4-1.6-.3-1.7-.7c-.2-.4-.6.1-.8-.1-.2-.2-.6-.7-.6-.7s-.9-.1-.8-.6.3-1.1.3-1.1-1.7.6-2 .1c-.3-.5 0-1.3 0-1.3s.1-.6-.5-.9c-.6-.3-1-1-1-1s-1 0-1.2-.7c-.2-.7.8-1.4.8-1.4s.1-.6-.3-.9-1.2-.5-1.3-1c-.1-.5-.1-.8-.1-.8s-1.1-.4-1.2-1c-.1-.6 1.1-1.4 1.1-1.4s1.1-.9.4-1.2c-.7-.3-1-.8-.8-1.4s-1.1-.7-1.1-.7-.2-.8-.7-.9c-.5-.1-.2-.9-.2-.9s-.5-.1-.6-.4c-.9.4-.4-.9-.4-.9z" style="fill:#99c972"/><path id="XMLID_191_" d="M137.4 134.4c-.7.3-1.4-.1-1.9-.6s-.8-1.1-1.4-1.6c-.9-.7-2.2-.8-2.8-1.7-.3-.5-.4-1.2-.8-1.6-.6-.7-1.6-.7-2.4-1.1-.9-.6-1.2-1.9-.7-2.9.2-.4.5-.6.7-1 .8-1.2.4-3-.7-4-.5-.5-1.2-1-1.2-1.7-.1-1.3 2-1.8 2.3-3.1.2-.7-.2-1.4-.7-1.9-.5-.5-1.1-.9-1.6-1.4-1.2-1.3-1.3-3.6-.1-4.9.8-1 2.2-1.5 2.8-2.6.6-1.2.2-2.7 1-3.7.7-.8 1.9-.9 2.8-1.4.8-.5 1.4-1.2 2.1-1.8.7-.6 1.8-.9 2.6-.3.4.3.6.9.9 1.4.8 1.6 2.4 2.8 4.2 3 1 .1 2 0 3 .2s2 .7 2.3 1.7c.3 1.1-.5 2.3-.1 3.3.2.4.5.6.8.8 1 .6 2.1.6 3.2.6s2.3.1 3.2.7c.9.6 1.3 2.1.5 2.9-.4.3-.9.5-1.3.7-1.4.9-1.3 3-.3 4.3s2.6 1.9 4.1 2.4c1.2.4 2.6 1.1 2.8 2.4.3 2-2.6 3.5-2.1 5.5.2.6.6 1.2.2 1.7-.1.2-.3.3-.5.3-1 .3-2 .2-3.1.2-1 .1-2.2.6-2.3 1.7-.1.5.1 1.1-.1 1.6-.2.4-.6.6-.9.7-.9.3-1.9 0-2.8-.3s-1.9-.5-2.8-.2c-.9.3-1.7 1.4-1.2 2.2.1.3.4.5.5.8.6 1.1-.4 2.5-1.6 2.7-1.2.2-2.4-.5-3.3-1.3-.9-.8-1.8-1.7-2.9-2.3" style="opacity:.1;fill:#1b5632"/></g></g></svg>