<?xml version="1.0" encoding="utf-8"?>
<!-- Generator: Adobe Illustrator 19.0.0, SVG Export Plug-In . SVG Version: 6.00 Build 0)  -->
<svg version="1.0" id="Calque_1" xmlns="http://www.w3.org/2000/svg" xmlns:xlink="http://www.w3.org/1999/xlink" x="0px" y="0px"
	 viewBox="0 0 300 200" style="enable-background:new 0 0 300 200;" xml:space="preserve">
<style type="text/css">
	.st0{display:none;}
	.st1{display:inline;fill:none;stroke:#503614;stroke-width:3;stroke-miterlimit:10;}
	.st2{display:inline;fill:#D29710;}
	.st3{display:inline;fill:#F3D414;}
	.st4{display:inline;opacity:0.61;fill:#FCF39E;}
	.st5{display:inline;opacity:0.5;fill:none;stroke:#9B4F16;stroke-width:2;stroke-miterlimit:10;}
	.st6{display:inline;fill:none;stroke:#3B3735;stroke-width:13;stroke-miterlimit:10;}
	.st7{display:inline;fill:url(#XMLID_2_);}
	.st8{display:inline;fill:none;stroke:#FFFFFF;stroke-width:2.5;stroke-miterlimit:10;}
	.st9{display:inline;opacity:0.25;}
	.st10{fill:#FFFFFF;}
	.st11{display:inline;fill:url(#XMLID_4_);}
	.st12{display:inline;opacity:0.25;fill:#030405;enable-background:new    ;}
	.st13{display:inline;fill:url(#XMLID_27_);stroke:#3B1913;stroke-width:3;stroke-miterlimit:10;}
	.st14{display:inline;fill:url(#XMLID_32_);stroke:#3B1913;stroke-width:3;stroke-miterlimit:10;}
	.st15{fill:#030405;}
	.st16{display:inline;}
	.st17{fill:url(#XMLID_33_);}
	.st18{fill:none;stroke:#3C1912;stroke-width:3;stroke-miterlimit:10;}
	.st19{fill:none;stroke:#503614;stroke-width:6;stroke-miterlimit:10;}
	.st20{fill:#D29710;}
	.st21{fill:#F3D414;}
	.st22{opacity:0.61;fill:#FCF39E;}
	.st23{opacity:0.5;fill:none;stroke:#9B4F16;stroke-width:2;stroke-miterlimit:10;}
</style>
<g id="Calque_2_-_copie" class="st0">
	<path id="XMLID_25_" class="st1" d="M107.4,59.3C107.4,59.2,107.4,59.2,107.4,59.3c-1.8-3.7-6.3-6-10.7-3.9l-14.2,6.7
		c-3.1,1.5-6.9,0.8-9.2-1.8L62.5,48.9c-5.3-5.7-14.8-1.2-13.8,6.5l2,15.6c0.4,3.4-1.4,6.8-4.5,8.3L32,85.9c-3.8,1.8-5.2,5.7-4.4,9.1
		c0.1,0.4,0.2,0.7,0.3,1.1c0.9,2.3,4.7,8,7.7,8.5l15.4,2.9c1.9,0.4,3.5,1.4,4.6,2.8c0,0.2,0.1,0.3,0.1,0.5l2,15.6
		c0.1,1,0.4,1.8,0.8,2.6c2,6.5,12.4,10.2,15.9,3.8l7.5-13.8c1.7-3,5.1-4.7,8.5-4l15.4,2.9c7.3,1.4,11.4-8.7,7.3-14.3c0,0,0,0,0,0
		c-0.4-0.9-0.9-1.8-1.7-2.6l-10.8-11.4c-0.1-0.1-0.2-0.3-0.3-0.4c-0.3-1.8-0.1-3.7,0.8-5.3l7.5-13.8
		C110.3,67.5,108.6,61.4,107.4,59.3z"/>
	<path id="XMLID_24_" class="st2" d="M64.2,52.5L75,63.9c2.4,2.5,6.1,3.2,9.2,1.8L98.4,59c4.3-2.1,7.2-3.3,9,0.3
		c1.1,2.2,2.9,8.2,1.4,10.8l-7.5,13.8c-1.7,3-1.2,6.8,1.2,9.3l10.8,11.4c0.3,0.3-0.2-1.3,0-1c4.1,5.7-0.1,15.7-7.3,14.3L90.5,115
		c-3.4-0.6-6.8,1-8.5,4l-7.5,13.8c-3.5,6.4-13.9,2.7-15.9-3.8c-0.1-0.4,1,1.5,0.9,1l-2-15.6c-0.4-3.4-3-6.2-6.5-6.9l-15.4-2.9
		c-3-0.6-6.8-6.2-7.7-8.5c-1.5-3.6,1.5-4.6,5.8-6.6l14.2-6.7c3.1-1.5,5-4.8,4.5-8.3l-2-15.6C49.5,51.3,58.9,46.8,64.2,52.5z"/>
	<path id="XMLID_23_" class="st3" d="M62.5,48.9l10.8,11.4c2.4,2.5,6.1,3.2,9.2,1.8l14.2-6.7c7-3.3,14.2,4.3,10.4,11.1l-7.5,13.8
		c-1.7,3-1.2,6.8,1.2,9.3l10.8,11.4c5.3,5.7,0.3,14.8-7.3,13.4l-15.4-2.9c-3.4-0.6-6.8,1-8.5,4l-7.5,13.8c-3.7,6.8-14,4.9-15-2.8
		l-2-15.6c-0.4-3.4-3-6.2-6.5-6.9L33.9,101C26.3,99.6,25,89.2,32,85.9l14.2-6.7c3.1-1.5,5-4.8,4.5-8.3l-2-15.6
		C47.8,47.7,57.2,43.2,62.5,48.9z"/>
	<path id="XMLID_22_" class="st4" d="M85.9,60.5l-3.3,1.6c-3.1,1.5-6.9,0.8-9.2-1.8L62.5,48.9c-5.3-5.7-14.8-1.2-13.8,6.5l2,15.6
		c0.4,3.4-1.4,6.8-4.5,8.3L32,85.9c-7,3.3-5.7,13.7,1.9,15.1l15.4,2.9c2.8,0.5,5,2.5,6,5.1C68.3,101,84.1,86.1,85.9,60.5z"/>
	<path id="XMLID_19_" class="st5" d="M64.3,56.1l8.6,9.1c1.9,2,4.9,2.6,7.4,1.4l11.4-5.4c5.6-2.6,11.3,3.4,8.3,8.9l-6,11
		c-1.3,2.4-1,5.4,1,7.5l8.6,9.1c4.3,4.5,0.2,11.8-5.9,10.7l-12.3-2.3c-2.7-0.5-5.5,0.8-6.8,3.2l-6,11c-3,5.4-11.2,3.9-12-2.3
		l-1.6-12.5c-0.4-2.8-2.4-5-5.2-5.5l-12.3-2.3c-6.1-1.2-7.2-9.4-1.5-12.1l11.4-5.4c2.5-1.2,4-3.8,3.6-6.6l-1.6-12.5
		C52.5,55.2,60,51.6,64.3,56.1z"/>
</g>
<g id="Calque_2_-_copie_2" class="st0">
	<path id="XMLID_17_" class="st1" d="M188.9,59.3C188.9,59.2,188.9,59.2,188.9,59.3c1.8-3.7,6.3-6,10.7-3.9l14.2,6.7
		c3.1,1.5,6.9,0.8,9.2-1.8l10.8-11.4c5.3-5.7,14.8-1.2,13.8,6.5l-2,15.6c-0.4,3.4,1.4,6.8,4.5,8.3l14.2,6.7c3.8,1.8,5.2,5.7,4.4,9.1
		c-0.1,0.4-0.2,0.7-0.3,1.1c-0.9,2.3-4.7,8-7.7,8.5l-15.4,2.9c-1.9,0.4-3.5,1.4-4.6,2.8c0,0.2-0.1,0.3-0.1,0.5l-2,15.6
		c-0.1,1-0.4,1.8-0.8,2.6c-2,6.5-12.4,10.2-15.9,3.8l-7.5-13.8c-1.7-3-5.1-4.7-8.5-4l-15.4,2.9c-7.3,1.4-11.4-8.7-7.3-14.3
		c0,0,0,0,0,0c0.4-0.9,0.9-1.8,1.7-2.6l10.8-11.4c0.1-0.1,0.2-0.3,0.3-0.4c0.3-1.8,0.1-3.7-0.8-5.3l-7.5-13.8
		C186,67.5,187.7,61.4,188.9,59.3z"/>
	<path id="XMLID_16_" class="st2" d="M232.1,52.5l-10.8,11.4c-2.4,2.5-6.1,3.2-9.2,1.8L197.9,59c-4.3-2.1-7.2-3.3-9,0.3
		c-1.1,2.2-2.9,8.2-1.4,10.8l7.5,13.8c1.7,3,1.2,6.8-1.2,9.3L183,104.6c-0.3,0.3,0.2-1.3,0-1c-4.1,5.7,0.1,15.7,7.3,14.3l15.4-2.9
		c3.4-0.6,6.8,1,8.5,4l7.5,13.8c3.5,6.4,13.9,2.7,15.9-3.8c0.1-0.4-1,1.5-0.9,1l2-15.6c0.4-3.4,3-6.2,6.5-6.9l15.4-2.9
		c3-0.6,6.8-6.2,7.7-8.5c1.5-3.6-1.5-4.6-5.8-6.6l-14.2-6.7c-3.1-1.5-5-4.8-4.5-8.3l2-15.6C246.8,51.3,237.4,46.8,232.1,52.5z"/>
	<path id="XMLID_13_" class="st3" d="M233.8,48.9L223,60.3c-2.4,2.5-6.1,3.2-9.2,1.8l-14.2-6.7c-7-3.3-14.2,4.3-10.4,11.1l7.5,13.8
		c1.7,3,1.2,6.8-1.2,9.3L184.7,101c-5.3,5.7-0.3,14.8,7.3,13.4l15.4-2.9c3.4-0.6,6.8,1,8.5,4l7.5,13.8c3.7,6.8,14,4.9,15-2.8l2-15.6
		c0.4-3.4,3-6.2,6.5-6.9l15.4-2.9c7.6-1.4,8.9-11.8,1.9-15.1l-14.2-6.7c-3.1-1.5-5-4.8-4.5-8.3l2-15.6
		C248.5,47.7,239.1,43.2,233.8,48.9z"/>
	<path id="XMLID_9_" class="st4" d="M210.4,60.5l3.3,1.6c3.1,1.5,6.9,0.8,9.2-1.8l10.8-11.4c5.3-5.7,14.8-1.2,13.8,6.5l-2,15.6
		c-0.4,3.4,1.4,6.8,4.5,8.3l14.2,6.7c7,3.3,5.7,13.7-1.9,15.1l-15.4,2.9c-2.8,0.5-5,2.5-6,5.1C227.9,101,212.2,86.1,210.4,60.5z"/>
	<path id="XMLID_7_" class="st5" d="M232,56.1l-8.6,9.1c-1.9,2-4.9,2.6-7.4,1.4l-11.4-5.4c-5.6-2.6-11.3,3.4-8.3,8.9l6,11
		c1.3,2.4,1,5.4-1,7.5l-8.6,9.1c-4.3,4.5-0.2,11.8,5.9,10.7l12.3-2.3c2.7-0.5,5.5,0.8,6.8,3.2l6,11c3,5.4,11.2,3.9,12-2.3l1.6-12.5
		c0.4-2.8,2.4-5,5.2-5.5l12.3-2.3c6.1-1.2,7.2-9.4,1.5-12.1l-11.4-5.4c-2.5-1.2-4-3.8-3.6-6.6l1.6-12.5
		C243.8,55.2,236.3,51.6,232,56.1z"/>
</g>
<g id="Calque_52_-_copie" class="st0">
	<path id="XMLID_31_" class="st6" d="M80.2,107.1c5.1,1.6,23,5.1,38.7-19.4c0,0,0.1-0.1,0.1-0.1c3.1-6.4-0.9-7.5-7.1-6.8
		c-6.3,0.7-18.2-1.1-19.9-12.1c-1.7-11-5.3-11-20.5-7.1c-14.5,3.8-46.3,6.5-55.7,5.8c-0.6,0-1.1,0.5-1,1.1
		c0.7,3.9,4.5,15.3,23.7,10.8c23-5.4,30.4-6.6,30.4-6.6s6.8-1.4,7.3,0.2c0.4,1.3,0.6,2-3.7,3.4c-2.2,0.7-31.5,10.3-45.3,8.7
		c-0.6-0.1-1.1,0.5-1,1.1c0.6,3.6,3.4,12.4,23,9.1c10.6-1.8,19.4-5.6,22-6.8c0.5-0.2,0.9-0.4,1.3-0.7c2-1.2,9.4-5.5,10.6-3.5
		c1,1.7-0.2,3.3-6.7,6.4c-12.2,5.8-24.8,10.7-30.7,10.6c-0.7,0-0.8,0.9-0.2,1.2c5.6,2.5,19,7.7,28.5,3c9.2-4.5,7.2-1.6,5.7,0.1
		C79.3,106.1,79.5,106.9,80.2,107.1z"/>
	
		<linearGradient id="XMLID_2_" gradientUnits="userSpaceOnUse" x1="21.6941" y1="69.2187" x2="103.4478" y2="69.2187" gradientTransform="matrix(0.8388 -0.5445 0.5445 0.8388 -21.1644 55.3671)">
		<stop  offset="0" style="stop-color:#EFEEEF"/>
		<stop  offset="0.5" style="stop-color:#C7C6C6"/>
		<stop  offset="1" style="stop-color:#EFEEEF"/>
	</linearGradient>
	<path id="XMLID_30_" class="st7" d="M80.2,107.1c5.1,1.6,23,5.1,38.7-19.4c0,0,0.1-0.1,0.1-0.1c3.1-6.4-0.9-7.5-7.1-6.8
		c-6.3,0.7-18.2-1.1-19.9-12.1c-1.7-11-5.3-11-20.5-7.1c-14.5,3.8-46.3,6.5-55.7,5.8c-0.6,0-1.1,0.5-1,1.1
		c0.7,3.9,4.3,15.9,23.7,12.4c24.1-4.4,37.1-10.6,37.8-7.9c0.3,1.3,0.3,1.4-3.7,3.4c-4.5,2.3-25.9,12.4-45.3,8.7
		c-0.6-0.1-1.1,0.5-1,1.1c0.6,3.6,3.3,11.7,23,9.1c14.2-1.9,31.9-14.1,33.9-11c1.3,2-1.7,4.5-8.2,7.6c-12.2,5.8-23.3,9.5-29.2,9.4
		c-0.7,0-0.8,0.9-0.2,1.2c5.6,2.5,19,7.7,28.5,3c4.3-2.1,7.9-5.3,9-3.9c0.9,1.2-2.5,3.1-3.3,4C79.3,106.1,79.5,106.9,80.2,107.1z"/>
	<path id="XMLID_29_" class="st8" d="M80.2,107.1c5.1,1.6,23,5.1,38.7-19.4c0,0,0.1-0.1,0.1-0.1c3.1-6.4-0.9-7.5-7.1-6.8
		c-6.3,0.7-18.2-1.1-19.9-12.1c-1.7-11-5.3-11-20.5-7.1c-14.5,3.8-46.3,6.5-55.7,5.8c-0.6,0-1.1,0.5-1,1.1
		c0.7,3.9,4.3,15.9,23.7,12.4c24.1-4.4,37.1-10.6,37.8-7.9c0.3,1.3,0.3,1.4-3.7,3.4c-4.5,2.3-25.9,12.4-45.3,8.7
		c-0.6-0.1-1.1,0.5-1,1.1c0.6,3.6,3.3,11.7,23,9.1c14.2-1.9,31.9-14.1,33.9-11c1.3,2-1.7,4.5-8.2,7.6c-12.2,5.8-23.3,9.5-29.2,9.4
		c-0.7,0-0.8,0.9-0.2,1.2c5.6,2.5,19,7.7,28.5,3c4.3-2.1,7.9-5.3,9-3.9c0.9,1.2-2.5,3.1-3.3,4C79.3,106.1,79.5,106.9,80.2,107.1z"/>
	<g id="XMLID_3_" class="st9">
		<path id="XMLID_28_" class="st10" d="M45.8,101.2c-0.7,0-0.8,0.9-0.2,1.2c4.1,1.9,12.6,5.2,20.5,4.9c0.7-4,1.7-8.3,2.9-12.7
			C59.2,98.8,50.7,101.3,45.8,101.2z"/>
		<path id="XMLID_20_" class="st10" d="M15.8,67.4c-0.6,0-1.1,0.5-1,1.1c0.7,3.9,4.3,15.9,23.7,12.4c24.1-4.4,37.1-10.6,37.8-7.9
			c0.3,1.3,0.3,1.4-3.7,3.4c-4.5,2.3-25.9,12.4-45.3,8.7c-0.6-0.1-1.1,0.5-1,1.1c0.6,3.6,3.3,11.7,23,9.1c7.2-0.9,15.2-4.5,21.7-7.4
			c3.1-9.4,7.4-19.2,13.6-28.6c-3-0.1-7.1,0.8-13,2.4C57,65.4,25.2,68.1,15.8,67.4z"/>
	</g>
</g>
<g id="Calque_52_-_copie_2" class="st0">
	<path id="XMLID_41_" class="st6" d="M216.6,107.1c-5.1,1.6-23,5.1-38.7-19.4c0,0-0.1-0.1-0.1-0.1c-3.1-6.4,0.9-7.5,7.1-6.8
		c6.3,0.7,18.2-1.1,19.9-12.1c1.7-11,5.3-11,20.5-7.1c14.5,3.8,46.3,6.5,55.7,5.8c0.6,0,1.1,0.5,1,1.1c-0.7,3.9-4.5,15.3-23.7,10.8
		c-23-5.4-30.4-6.6-30.4-6.6s-6.8-1.4-7.3,0.2c-0.4,1.3-0.6,2,3.7,3.4c2.2,0.7,31.5,10.3,45.3,8.7c0.6-0.1,1.1,0.5,1,1.1
		c-0.6,3.6-3.4,12.4-23,9.1c-10.6-1.8-19.4-5.6-22-6.8c-0.5-0.2-0.9-0.4-1.3-0.7c-2-1.2-9.4-5.5-10.6-3.5c-1,1.7,0.2,3.3,6.7,6.4
		c12.2,5.8,24.8,10.7,30.7,10.6c0.7,0,0.8,0.9,0.2,1.2c-5.6,2.5-19,7.7-28.5,3c-9.2-4.5-7.2-1.6-5.7,0.1
		C217.5,106.1,217.3,106.9,216.6,107.1z"/>
	
		<linearGradient id="XMLID_4_" gradientUnits="userSpaceOnUse" x1="-110.8331" y1="-16.8078" x2="-29.0794" y2="-16.8078" gradientTransform="matrix(-0.8388 -0.5445 -0.5445 0.8388 159.9834 55.3671)">
		<stop  offset="0" style="stop-color:#EFEEEF"/>
		<stop  offset="0.5" style="stop-color:#C7C6C6"/>
		<stop  offset="1" style="stop-color:#EFEEEF"/>
	</linearGradient>
	<path id="XMLID_40_" class="st11" d="M216.6,107.1c-5.1,1.6-23,5.1-38.7-19.4c0,0-0.1-0.1-0.1-0.1c-3.1-6.4,0.9-7.5,7.1-6.8
		c6.3,0.7,18.2-1.1,19.9-12.1c1.7-11,5.3-11,20.5-7.1c14.5,3.8,46.3,6.5,55.7,5.8c0.6,0,1.1,0.5,1,1.1c-0.7,3.9-4.3,15.9-23.7,12.4
		c-24.1-4.4-37.1-10.6-37.8-7.9c-0.3,1.3-0.3,1.4,3.7,3.4c4.5,2.3,25.9,12.4,45.3,8.7c0.6-0.1,1.1,0.5,1,1.1
		c-0.6,3.6-3.3,11.7-23,9.1c-14.2-1.9-31.9-14.1-33.9-11c-1.3,2,1.7,4.5,8.2,7.6c12.2,5.8,23.3,9.5,29.2,9.4c0.7,0,0.8,0.9,0.2,1.2
		c-5.6,2.5-19,7.7-28.5,3c-4.3-2.1-7.9-5.3-9-3.9c-0.9,1.2,2.5,3.1,3.3,4C217.5,106.1,217.3,106.9,216.6,107.1z"/>
	<path id="XMLID_39_" class="st8" d="M216.6,107.1c-5.1,1.6-23,5.1-38.7-19.4c0,0-0.1-0.1-0.1-0.1c-3.1-6.4,0.9-7.5,7.1-6.8
		c6.3,0.7,18.2-1.1,19.9-12.1c1.7-11,5.3-11,20.5-7.1c14.5,3.8,46.3,6.5,55.7,5.8c0.6,0,1.1,0.5,1,1.1c-0.7,3.9-4.3,15.9-23.7,12.4
		c-24.1-4.4-37.1-10.6-37.8-7.9c-0.3,1.3-0.3,1.4,3.7,3.4c4.5,2.3,25.9,12.4,45.3,8.7c0.6-0.1,1.1,0.5,1,1.1
		c-0.6,3.6-3.3,11.7-23,9.1c-14.2-1.9-31.9-14.1-33.9-11c-1.3,2,1.7,4.5,8.2,7.6c12.2,5.8,23.3,9.5,29.2,9.4c0.7,0,0.8,0.9,0.2,1.2
		c-5.6,2.5-19,7.7-28.5,3c-4.3-2.1-7.9-5.3-9-3.9c-0.9,1.2,2.5,3.1,3.3,4C217.5,106.1,217.3,106.9,216.6,107.1z"/>
	<g id="XMLID_36_" class="st9">
		<path id="XMLID_38_" class="st10" d="M251,101.2c0.7,0,0.8,0.9,0.2,1.2c-4.1,1.9-12.6,5.2-20.5,4.9c-0.7-4-1.7-8.3-2.9-12.7
			C237.6,98.8,246.2,101.3,251,101.2z"/>
		<path id="XMLID_37_" class="st10" d="M281,67.4c0.6,0,1.1,0.5,1,1.1c-0.7,3.9-4.3,15.9-23.7,12.4c-24.1-4.4-37.1-10.6-37.8-7.9
			c-0.3,1.3-0.3,1.4,3.7,3.4c4.5,2.3,25.9,12.4,45.3,8.7c0.6-0.1,1.1,0.5,1,1.1c-0.6,3.6-3.3,11.7-23,9.1
			c-7.2-0.9-15.2-4.5-21.7-7.4c-3.1-9.4-7.4-19.2-13.6-28.6c3-0.1,7.1,0.8,13,2.4C239.8,65.4,271.6,68.1,281,67.4z"/>
	</g>
</g>
<g id="Calque_39" class="st0">
	<path id="XMLID_263_" class="st12" d="M228.9,190.4l25.2,7.3c2.7,0.8,11.9,2.4,13.7,0.3c1.1-1.3-6.5-7.3-7.9-8.1l-8-6.3
		c-2.1-2.2-3.5-4.2,0.9-6.3l8.1-1.1c6.1-0.7,13.4-0.3,13.2-2c-0.4-2.8-8.9-4.3-11.7-5.1l-25.2-7.3c-5.1-1.5-10.5,1.7-12,7l-2.7,9.3
		c-0.8,2.8-2.4,6.6-1.1,8.9C222.6,189,226.6,189.7,228.9,190.4z"/>
	
		<linearGradient id="XMLID_27_" gradientUnits="userSpaceOnUse" x1="270.2985" y1="17098.7852" x2="217.1029" y2="17098.7852" gradientTransform="matrix(1 0 0 1 0 -16923.8906)">
		<stop  offset="0" style="stop-color:#EB5959"/>
		<stop  offset="8.947212e-002" style="stop-color:#D74746"/>
		<stop  offset="0.2307" style="stop-color:#BE3532"/>
		<stop  offset="0.3825" style="stop-color:#AC2A23"/>
		<stop  offset="0.5477" style="stop-color:#9F211D"/>
		<stop  offset="0.7363" style="stop-color:#981C1A"/>
		<stop  offset="1" style="stop-color:#951919"/>
	</linearGradient>
	<path id="XMLID_262_" class="st13" d="M225.1,185.1l25.2,7.3c2.7,0.8,11.9,2.4,13.7,0.3c1.1-1.3-6.5-7.3-7.9-8.1l-8-6.3
		c-2.1-2.2-3.5-4.2,0.9-6.3l8.1-1.1c6.1-0.7,13.4-0.3,13.2-2c-0.4-2.8-8.9-4.3-11.7-5.1l-25.2-7.3c-5.1-1.5-10.5,1.7-12,7l-2.7,9.3
		c-0.8,2.8-2.4,6.6-1.1,8.9C218.8,183.7,222.8,184.4,225.1,185.1z"/>
	<path id="XMLID_261_" class="st12" d="M70.9,189.5l-25.1,7.3c-2.7,0.8-11.9,2.4-13.7,0.3c-1.1-1.3,6.5-7.3,7.9-8.1l8-6.3
		c2.1-2.2,3.5-4.2-0.9-6.3l-8.1-1.1c-6.1-0.7-13.4-0.3-13.2-2c0.4-2.8,8.9-4.3,11.7-5.1l25.2-7.3c5.1-1.5,10.5,1.7,12,7l2.7,9.3
		c0.8,2.8,2.4,6.6,1.1,8.9C77.3,188.2,73.4,188.8,70.9,189.5z"/>
	
		<linearGradient id="XMLID_32_" gradientUnits="userSpaceOnUse" x1="239.139" y1="26.115" x2="185.9434" y2="26.115" gradientTransform="matrix(-1 0 0 -1 268.7847 200.11)">
		<stop  offset="0" style="stop-color:#EB5959"/>
		<stop  offset="8.947212e-002" style="stop-color:#D74746"/>
		<stop  offset="0.2307" style="stop-color:#BE3532"/>
		<stop  offset="0.3825" style="stop-color:#AC2A23"/>
		<stop  offset="0.5477" style="stop-color:#9F211D"/>
		<stop  offset="0.7363" style="stop-color:#981C1A"/>
		<stop  offset="1" style="stop-color:#951919"/>
	</linearGradient>
	<path id="XMLID_260_" class="st14" d="M74.8,184.2l-25.2,7.3c-2.7,0.8-11.9,2.4-13.7,0.3c-1.1-1.3,6.5-7.3,7.9-8.1l8-6.3
		c2.1-2.2,3.5-4.2-0.9-6.3l-8.1-1.1c-6.1-0.7-13.4-0.3-13.2-2c0.4-2.8,8.9-4.3,11.7-5.1l25.2-7.3c5.1-1.5,10.5,1.7,12,7l2.7,9.3
		c0.8,2.8,2.4,6.6,1.1,8.9C81.1,182.8,77.3,183.5,74.8,184.2z"/>
	<g id="XMLID_257_" class="st9">
		<path id="XMLID_271_" class="st15" d="M224.6,181.6c-48.7-22.7-100.1-22.7-148.8,0c-6.4,3-13.4-2.7-15.5-13.3
			c-1-5.2-2-10.2-3-15.5c-2.1-10.6,2.1-22.3,9.5-25.9c54.5-25.4,112.2-25.4,166.7,0c7.3,3.4,11.6,15.3,9.5,25.9
			c-1,5.2-2,10.2-3,15.5C238.1,178.7,231.1,184.4,224.6,181.6z"/>
	</g>
	<g id="XMLID_34_" class="st16">
		
			<radialGradient id="XMLID_33_" cx="150.3" cy="76.1047" r="67.8625" gradientTransform="matrix(1 0 0 -1.6795 0 266.5517)" gradientUnits="userSpaceOnUse">
			<stop  offset="0" style="stop-color:#EB5959"/>
			<stop  offset="1" style="stop-color:#951919"/>
		</radialGradient>
		<path id="XMLID_51_" class="st17" d="M225.3,174c-49-22.8-100.8-22.8-149.8,0c-6.4,3-13.4-2.7-15.5-13.3
			c-0.9-4.5-1.7-8.9-2.6-13.4c-2.1-10.6,2.1-22.3,9.4-25.9c54.7-25.5,112.4-25.5,167.1,0c7.3,3.4,11.5,15.3,9.4,25.9
			c-0.9,4.5-1.7,8.9-2.6,13.4C238.6,171.3,231.6,177.1,225.3,174z"/>
		<path id="XMLID_50_" class="st18" d="M225.3,174c-49-22.8-100.8-22.8-149.8,0c-6.4,3-13.4-2.7-15.5-13.3
			c-0.9-4.5-1.7-8.9-2.6-13.4c-2.1-10.6,2.1-22.3,9.4-25.9c54.7-25.5,112.4-25.5,167.1,0c7.3,3.4,11.5,15.3,9.4,25.9
			c-0.9,4.5-1.7,8.9-2.6,13.4C238.6,171.3,231.6,177.1,225.3,174z"/>
	</g>
</g>
<g id="Calque_2">
	<path id="XMLID_14_" class="st19" d="M201.7,53.8C201.7,53.8,201.7,53.7,201.7,53.8c0-5.1-3.8-9.9-9.8-9.9h-19.2
		c-4.3,0-8-2.7-9.3-6.8l-5.9-18.3c-2.9-9-15.7-9-18.7,0l-5.9,18.3c-1.3,4-5.1,6.8-9.3,6.8h-19.2c-5.2,0-8.7,3.6-9.6,7.8
		c-0.1,0.4-0.2,0.9-0.2,1.4c-0.2,3.1,1.1,11.3,4.1,13.5l15.6,11.3c1.9,1.4,3.1,3.3,3.7,5.5c-0.1,0.2-0.1,0.4-0.1,0.6l-5.9,18.3
		c-0.4,1.1-0.5,2.2-0.5,3.3c-1.2,8.2,8.4,17.8,15.6,12.6l15.6-11.3c3.4-2.5,8.1-2.5,11.5,0l15.6,11.3c7.3,5.3,17.2-3.6,15.6-12.1
		c0,0,0,0,0,0c0.1-1.2-0.1-2.5-0.5-3.8l-5.9-18.3c-0.1-0.2-0.1-0.4-0.1-0.6c0.6-2.2,1.8-4.1,3.7-5.5l15.6-11.3
		C200.6,64.4,201.8,56.8,201.7,53.8z"/>
	<path id="XMLID_12_" class="st20" d="M157.4,23.7l5.9,18.3c1.3,4,5.1,6.8,9.3,6.8h19.2c5.9,0,9.7,0.1,9.8,5
		c0.1,3-1.1,10.6-4.1,12.7l-15.6,11.3c-3.4,2.5-4.9,6.9-3.6,11l5.9,18.3c0.1,0.4,0.4-1.5,0.5-1.1c1.6,8.4-8.3,17.4-15.6,12.1
		l-15.6-11.3c-3.4-2.5-8.1-2.5-11.5,0l-15.6,11.3c-7.2,5.2-16.9-4.3-15.6-12.6c0.1-0.6,0.3,2.2,0.5,1.6l5.9-18.3
		c1.3-4-0.1-8.5-3.6-11L98.4,66.5c-3-2.2-4.3-10.4-4.1-13.5c0.3-4.8,4-4.3,9.8-4.3h19.2c4.3,0,8-2.7,9.3-6.8l5.9-18.3
		C141.6,14.6,154.4,14.6,157.4,23.7z"/>
	<path id="XMLID_10_" class="st21" d="M157.4,18.8l5.9,18.3c1.3,4,5.1,6.8,9.3,6.8h19.2c9.5,0,13.5,12.2,5.8,17.8l-15.6,11.3
		c-3.4,2.5-4.9,6.9-3.6,11l5.9,18.3c2.9,9-7.4,16.6-15.1,11l-15.6-11.3c-3.4-2.5-8.1-2.5-11.5,0l-15.6,11.3c-7.7,5.6-18-1.9-15.1-11
		l5.9-18.3c1.3-4-0.1-8.5-3.6-11L98.4,61.6c-7.7-5.6-3.7-17.8,5.8-17.8h19.2c4.3,0,8-2.7,9.3-6.8l5.9-18.3
		C141.6,9.7,154.4,9.7,157.4,18.8z"/>
	<path id="XMLID_11_" class="st22" d="M177.2,43.9h-4.5c-4.3,0-8-2.7-9.3-6.8l-5.9-18.3c-2.9-9-15.7-9-18.7,0l-5.9,18.3
		c-1.3,4-5.1,6.8-9.3,6.8h-19.2c-9.5,0-13.5,12.2-5.8,17.8l15.6,11.3c2.8,2.1,4.3,5.4,4,8.8C136.5,79.7,161.8,71.4,177.2,43.9z"/>
	<path id="XMLID_8_" class="st23" d="M155.5,27.7l4.8,14.6c1.1,3.2,4.1,5.4,7.5,5.4h15.4c7.6,0,10.8,9.7,4.6,14.2l-12.5,9
		c-2.8,2-3.9,5.5-2.9,8.8l4.8,14.6c2.4,7.2-5.9,13.3-12.1,8.8l-12.5-9c-2.8-2-6.5-2-9.2,0l-12.5,9c-6.2,4.5-14.4-1.5-12.1-8.8
		l4.8-14.6c1.1-3.2-0.1-6.8-2.9-8.8l-12.5-9c-6.2-4.5-3-14.2,4.6-14.2h15.4c3.4,0,6.4-2.2,7.5-5.4l4.8-14.6
		C142.9,20.5,153.1,20.5,155.5,27.7z"/>
</g>
<g id="XMLID_18_" class="st0">
	<g id="XMLID_5_" class="st16">
		<path id="XMLID_71_" class="st10" d="M97.8,146.6c-1.4-7-2.1-10.5-3.5-17.5c2.1-0.3,3.2-0.4,5.3-0.6c0.4,2.3,0.7,3.5,1.1,5.8
			c0.6-2.5,0.9-3.7,1.5-6.1c2.1-0.2,3.2-0.3,5.3-0.5c-1.9,7.3-2.9,11-4.6,18.4C100.9,146.3,99.9,146.4,97.8,146.6z"/>
		<path id="XMLID_69_" class="st10" d="M110.5,145.2c0.3-7.2,0.5-10.8,1-17.9c2.1-0.2,3.2-0.3,5.3-0.4c-0.5,7.2-0.7,10.8-1.2,17.9
			C113.5,145,112.5,145.1,110.5,145.2z"/>
		<path id="XMLID_67_" class="st10" d="M136.5,125.7c0.1,2,0.1,3,0.2,5.1c-3.7,0.1-5.6,0.2-9.3,0.4c-0.7,3.1-1.1,4.6-1.8,7.7
			c4.6-0.3,6.8-0.4,11.4-0.5c0.1,2,0.1,3,0.2,5.1c-7.1,0.3-10.7,0.4-17.8,1c1.5-7.2,2.3-10.9,4-18.1
			C128.6,126.1,131.3,125.9,136.5,125.7z"/>
		<path id="XMLID_65_" class="st10" d="M152.4,125.5c0,2,0,3,0,5.1c-1.6,0-2.4,0-3.9,0c-1,5.1-1.5,7.6-2.4,12.7
			c-2,0-3.1,0.1-5.1,0.1c0.9-5.1,1.3-7.7,2.3-12.8c-2.1,0-3.1,0.1-5.2,0.1c1-2.1,1.5-3.1,2.5-5.2
			C145.3,125.5,147.7,125.5,152.4,125.5z"/>
		<path id="XMLID_62_" class="st10" d="M171.5,143.6c-7.1-0.3-10.7-0.4-17.8-0.4c2-7.1,3.1-10.7,5.3-17.7c5.3,0.1,7.9,0.1,13.2,0.4
			C171.9,133,171.8,136.5,171.5,143.6z M166.8,130.7c-1.6,0-2.5-0.1-4.1-0.1c-1,3-1.4,4.5-2.4,7.6c2.5,0,3.8,0.1,6.3,0.1
			C166.7,135.3,166.7,133.8,166.8,130.7z"/>
		<path id="XMLID_59_" class="st10" d="M184.1,137.9c-1.6-0.1-2.4-0.2-4-0.3c-0.9,2.5-1.3,3.7-2.2,6.2c-2-0.1-3-0.2-5.1-0.3
			c2.3-7,3.6-10.5,6.1-17.5c5.3,0.3,7.9,0.5,13.2,0.9c-0.4,4.6-0.6,6.8-1,11.4c-0.7-0.1-1.1-0.1-1.8-0.1c0.5,2.6,0.8,3.9,1.3,6.5
			c-2-0.2-3-0.2-5.1-0.4C184.9,141.8,184.7,140.5,184.1,137.9z M186.4,131.7c-1.6-0.1-2.5-0.2-4.1-0.3c-0.2,0.5-0.3,0.7-0.5,1.2
			c1.8,0.1,2.7,0.2,4.5,0.3C186.3,132.5,186.4,132.2,186.4,131.7z"/>
		<path id="XMLID_57_" class="st10" d="M199.7,139.3c-2.2-0.2-3.3-0.3-5.5-0.5c1.7-4.4,2.6-6.6,4.4-11.1c2.1,0.2,3.2,0.3,5.3,0.5
			c-1,2.4-1.5,3.7-2.5,6.1c1.8,0.2,2.7,0.3,4.5,0.5c0.3-2.5,0.4-3.8,0.7-6.3c2.1,0.2,3.2,0.4,5.3,0.6c-0.6,4.5-0.9,6.8-1.4,11.3
			c-2.2-0.3-3.3-0.4-5.5-0.7c-0.7,2.5-1,3.7-1.6,6.2c-2-0.2-3-0.3-5.1-0.5C198.8,143,199.1,141.8,199.7,139.3z"/>
	</g>
</g>
</svg>
