<svg version="1.1" id="Calque_1" xmlns="http://www.w3.org/2000/svg" x="0" y="0" viewBox="0 0 300 300" style="enable-background:new 0 0 300 300" xml:space="preserve"><style>.st0{display:none}.st1{display:inline;fill:none;stroke:#010202;stroke-width:3;stroke-miterlimit:10}.st2{opacity:.1;fill:#020304;enable-background:new}.st2,.st3{display:inline}.st4{opacity:.25;enable-background:new}.st4,.st5{fill:#fff;stroke:#010202;stroke-width:3;stroke-miterlimit:10}.st6{fill:#c15857}.st7,.st8{fill:#010202}.st8{opacity:.25;enable-background:new}</style><g id="Calque_12"><g id="expression"><g id="Calque_4"><g id="Calque_5"><path id="XMLID_1_" class="st7" d="m138.4 147.3-5.6-1.3c-2-.5-4.1-.5-6.1 0l-5.7 1.3c-1 .2-1.9-.5-1.9-1.5v-.2c0-.8.5-1.4 1.3-1.6l9.1-1.9h.7l9 1.9c.7.2 1.3.8 1.3 1.6v.2c-.2 1-1.1 1.8-2.1 1.5z"/><path id="XMLID_3_" class="st8" d="m136 149.4-4-1.3c-1.4-.5-3-.5-4.4 0l-4.1 1.3c-.7.2-1.4-.5-1.4-1.6v-.2c0-.8.4-1.4.9-1.6l6.6-1.9h.5l6.5 1.9c.5.2.9.8.9 1.6v.2c-.1 1-.8 1.8-1.5 1.6z"/></g><g id="Calque_5_-_copie"><path id="XMLID_50_" class="st7" d="m183.1 147.3-5.6-1.3c-2-.5-4.1-.5-6.1 0l-5.7 1.3c-1 .2-1.9-.5-1.9-1.5v-.2c0-.8.5-1.4 1.3-1.6l9.1-1.9h.7l9 1.9c.7.2 1.3.8 1.3 1.6v.2c-.2 1-1.1 1.8-2.1 1.5z"/><path id="XMLID_5_" class="st8" d="m180.7 149.4-4-1.3c-1.4-.5-3-.5-4.4 0l-4.1 1.3c-.7.2-1.4-.5-1.4-1.6v-.2c0-.8.4-1.4.9-1.6l6.6-1.9h.5l6.5 1.9c.5.2.9.8.9 1.6v.2c-.1 1-.8 1.8-1.5 1.6z"/></g></g></g></g></svg>