<?xml version="1.0" encoding="utf-8"?>
<!-- Generator: Adobe Illustrator 19.0.0, SVG Export Plug-In . SVG Version: 6.00 Build 0)  -->
<svg version="1.0" xmlns="http://www.w3.org/2000/svg" xmlns:xlink="http://www.w3.org/1999/xlink" x="0px" y="0px" width="300px" heihgt="260px"
	 viewBox="0 0 300 260" style="enable-background:new 0 0 300 260;" xml:space="preserve">
<style type="text/css">
	.st0{display:none;}
	.st1{display:inline;fill:#1D935C;}
	.st2{display:inline;fill:url(#XMLID_197_);}
	.st3{fill:none;stroke:#094256;stroke-width:7;stroke-miterlimit:10;}
	.st4{fill:none;stroke:#2193BA;stroke-width:35;stroke-miterlimit:10;}
	.st5{display:inline;fill:none;stroke:#47AACC;stroke-width:3;stroke-miterlimit:10;}
	.st6{fill:none;stroke:#47AACC;stroke-width:8;stroke-miterlimit:10;}
	.st7{fill:#46A5DC;stroke:#0C3444;stroke-width:4;stroke-miterlimit:10;}
	.st8{fill:#297CA5;stroke:#0C3444;stroke-width:4;stroke-miterlimit:10;}
	.st9{opacity:0.25;fill:#0C3444;}
	.st10{stroke:#0C3444;stroke-width:4;stroke-miterlimit:10;}
</style>
<g id="圖層_20" class="st0">
	<rect id="XMLID_188_" x="0.2" y="-0.9" class="st1" width="300" height="260.9"/>
</g>
<g id="圖層_1">
	<g id="selectionCell_1_" class="st0">
		<radialGradient id="XMLID_197_" cx="149.9427" cy="130.2475" r="137.4346" gradientUnits="userSpaceOnUse">
			<stop  offset="0" style="stop-color:#2484C6"/>
			<stop  offset="1" style="stop-color:#2484C6;stop-opacity:0"/>
		</radialGradient>
		<path id="XMLID_395_" class="st2" d="M210.1,257.5l-120.6-0.2c-9.4,0-18.2-4.9-22.8-12.8L6.5,143c-4.7-8-4.7-17.7,0-25.7
			L66.9,15.8C71.7,7.9,80.4,3,89.8,3l120.6,0.2c9.4,0,18.2,4.9,22.8,12.8l60.2,101.4c4.7,8,4.7,17.7,0,25.7L233,244.7
			C228.2,252.5,219.5,257.5,210.1,257.5z"/>
		<path id="XMLID_400_" class="st3" d="M210.1,257.5l-120.6-0.2c-9.4,0-18.2-4.9-22.8-12.8L6.5,143c-4.7-8-4.7-17.7,0-25.7
			L66.9,15.8C71.7,7.9,80.4,3,89.8,3l120.6,0.2c9.4,0,18.2,4.9,22.8,12.8l60.2,101.4c4.7,8,4.7,17.7,0,25.7L233,244.7
			C228.2,252.5,219.5,257.5,210.1,257.5z"/>
		<path id="XMLID_190_" class="st4" d="M201.8,240l-104-0.2c-8.1,0-15.7-4.3-19.7-11l-51.9-87.5c-4-6.9-4-15.3,0-22.2l52.1-87.5
			c4.1-6.9,11.6-11,19.8-11l104,0.2c8.1,0,15.7,4.3,19.7,11l51.9,87.5c4,6.9,4,15.3,0,22.2L221.6,229C217.5,235.7,210,240,201.8,240
			z"/>
		<path id="XMLID_191_" class="st5" d="M204.3,245.2L95.3,245c-8.5,0-16.4-4.5-20.6-11.6l-54.4-91.7c-4.2-7.2-4.2-16,0-23.2
			l54.6-91.7c4.3-7.2,12.2-11.6,20.7-11.6l108.9,0.2c8.5,0,16.4,4.5,20.6,11.6l54.4,91.7c4.2,7.2,4.2,16,0,23.2L225,233.6
			C220.7,240.7,212.8,245.2,204.3,245.2z"/>
		<path id="XMLID_192_" class="st6" d="M199.8,235.7l-99.9-0.2c-7.8,0-15-4.1-18.9-10.6l-49.9-84.1c-3.9-6.6-3.9-14.7,0-21.3
			l50-84.1c4-6.6,11.2-10.6,19-10.6L200,25c7.8,0,15,4.1,18.9,10.6l49.9,84.1c3.9,6.6,3.9,14.7,0,21.3l-50,84.1
			C214.8,231.6,207.6,235.7,199.8,235.7z"/>
	</g>
	<path id="XMLID_193_" class="st7" d="M220.8,128.2c0-39.2-31.8-71-71-71c-26.4,0-49.4,14.4-61.6,35.7l0,0l-26.4,38.3h16.2
		c0,39.2,31.8,71,71,71c26.4,0,49.4-14.4,61.6-35.7l0,0l26.4-38.3H220.8z M150,165c-19.5,0-35.3-15.8-35.3-35.3
		c0-19.5,15.8-35.3,35.3-35.3s35.3,15.8,35.3,35.3C185.3,149.2,169.5,165,150,165z"/>
	<path id="XMLID_203_" class="st8" d="M210.6,166.6l0.1-0.1l-30.6-18.4c-6.2,10.1-17.4,16.9-30.1,16.9c-19.5,0-35.3-15.8-35.3-35.3
		c0-6.6,1.8-12.7,4.9-18L88.3,92.9c0,0,0,0,0,0l0,0l-26.4,38.3h16.2c0,39.2,31.8,71,71,71C175.4,202.3,198.4,187.9,210.6,166.6
		L210.6,166.6z"/>
	<path id="XMLID_205_" class="st9" d="M149.4,78.5c-28.2,0-51.1,22.9-51.1,51.1c0,28.2,22.9,51.1,51.1,51.1
		c28.2,0,51.1-22.9,51.1-51.1C200.5,101.3,177.6,78.5,149.4,78.5z M150,165c-19.5,0-35.3-15.8-35.3-35.3c0-19.5,15.8-35.3,35.3-35.3
		s35.3,15.8,35.3,35.3C185.3,149.2,169.5,165,150,165z"/>
	<line id="XMLID_202_" class="st10" x1="180.3" y1="148.3" x2="210.6" y2="166.6"/>
	<line id="XMLID_189_" class="st10" x1="88.2" y1="93" x2="119.6" y2="111.8"/>
</g>
</svg>
