<?xml version="1.0" encoding="utf-8"?>
<!-- Generator: Adobe Illustrator 19.0.0, SVG Export Plug-In . SVG Version: 6.00 Build 0)  -->
<svg version="1.0" xmlns="http://www.w3.org/2000/svg" xmlns:xlink="http://www.w3.org/1999/xlink" x="0px" y="0px" width="300px" height="260px"
	 viewBox="0 0 300 260" style="enable-background:new 0 0 300 260;" xml:space="preserve">
<style type="text/css">
	.st0{display:none;}
	.st1{display:inline;fill:#009444;}
	.st2{display:inline;}
	.st3{fill:none;stroke:#333333;stroke-width:7;stroke-miterlimit:10;}
	.st4{opacity:0.5;fill:none;stroke:#000000;stroke-width:10;stroke-miterlimit:10;}
	.st5{fill:#FFFFFF;}
	.st6{fill:none;stroke:#FFFFFF;stroke-width:8;stroke-miterlimit:10;}
	.st7{display:inline;fill:#FFFFFF;}
	.st8{fill:none;stroke:#F7941E;stroke-width:8;stroke-miterlimit:10;}
	.st9{fill:#F7941E;}
	.st10{display:inline;fill:#F7941E;}
	.st11{display:inline;fill:none;stroke:#FFFFFF;stroke-width:7;stroke-miterlimit:10;}
	.st12{display:inline;opacity:0.46;fill:#FFFFFF;}
	.st13{display:inline;fill:none;stroke:#FFFFFF;stroke-width:5;stroke-miterlimit:10;}
	.st14{fill:none;stroke:#FFFFFF;stroke-width:17;stroke-miterlimit:10;}
	.st15{fill:#00AEEF;stroke:#FFFFFF;stroke-width:17;stroke-miterlimit:10;}
	.st16{opacity:0.67;fill:none;stroke:#262262;stroke-width:11;stroke-miterlimit:10;}
	.st17{opacity:0.67;fill:#00AEEF;stroke:#262262;stroke-width:11;stroke-miterlimit:10;}
	.st18{opacity:0.92;}
	.st19{opacity:0.44;fill:#020202;}
	.st20{display:inline;opacity:0.47;}
	.st21{display:inline;fill:#49484A;stroke:#262626;stroke-miterlimit:10;}
	.st22{display:inline;fill:#282828;}
	.st23{display:inline;fill:#6D6E71;stroke:#282828;stroke-miterlimit:10;}
	.st24{display:inline;fill:#414042;stroke:#282828;stroke-miterlimit:10;}
	.st25{display:inline;fill:#49484A;stroke:#262626;stroke-width:0.5;stroke-miterlimit:10;}
	.st26{display:inline;opacity:0.91;fill:url(#XMLID_141_);}
	.st27{opacity:0.34;fill:url(#XMLID_142_);}
	.st28{opacity:0.34;fill:url(#XMLID_143_);}
	.st29{opacity:0.53;fill:#FFFFFF;}
	.st30{opacity:0.34;fill:url(#XMLID_147_);}
	.st31{opacity:0.34;fill:url(#XMLID_148_);}
	.st32{fill:#58595B;}
	.st33{opacity:0.3;fill:url(#XMLID_149_);}
	.st34{fill:none;stroke:#414042;stroke-width:0.5;stroke-miterlimit:10;}
	.st35{opacity:0.3;fill:url(#XMLID_150_);}
	.st36{display:inline;opacity:0.91;fill:url(#XMLID_151_);}
	.st37{opacity:0.34;fill:url(#XMLID_152_);}
	.st38{opacity:0.34;fill:url(#XMLID_153_);}
	.st39{opacity:0.34;fill:url(#XMLID_154_);}
	.st40{opacity:0.34;fill:url(#XMLID_155_);}
	.st41{opacity:0.3;fill:url(#XMLID_156_);}
	.st42{opacity:0.3;fill:url(#XMLID_157_);}
	.st43{fill:#6D6E71;stroke:#414042;stroke-width:0.5;stroke-miterlimit:10;}
	.st44{opacity:0.81;}
	.st45{opacity:0.28;fill:#FFFFFF;}
	.st46{opacity:0.26;fill:url(#XMLID_158_);}
	.st47{opacity:0.33;fill:url(#XMLID_159_);}
	.st48{opacity:0.26;fill:url(#XMLID_160_);}
	.st49{opacity:0.33;fill:url(#XMLID_161_);}
	.st50{opacity:0.26;fill:url(#XMLID_162_);}
	.st51{opacity:0.33;fill:url(#XMLID_163_);}
	.st52{fill:#515151;stroke:#262626;stroke-miterlimit:10;}
	.st53{opacity:0.25;fill:#232323;}
	.st54{opacity:0.64;fill:url(#XMLID_164_);}
	.st55{opacity:0.64;fill:url(#XMLID_165_);}
	.st56{opacity:0.64;fill:url(#XMLID_166_);}
	.st57{opacity:0.64;fill:url(#XMLID_167_);}
	.st58{opacity:0.64;fill:url(#XMLID_168_);}
	.st59{opacity:0.64;fill:url(#XMLID_169_);}
</style>
<g id="圖層_2" class="st0">
	<rect id="XMLID_1_" class="st1" width="300" height="260"/>
</g>
<g id="ceil" class="st0">
	<g id="圖層_23_2_" class="st2">
		<g id="XMLID_118_">
			<path id="XMLID_10_" class="st3" d="M210.1,257.2L89.6,257c-9.4,0-18.2-4.9-22.8-12.8L6.6,142.8c-4.7-8-4.7-17.7,0-25.7
				L66.9,15.6c4.8-8,13.5-12.8,22.9-12.8L210.4,3c9.4,0,18.2,4.9,22.8,12.8l60.2,101.4c4.7,8,4.7,17.7,0,25.7l-60.4,101.4
				C228.3,252.3,219.6,257.2,210.1,257.2z"/>
		</g>
	</g>
</g>
<g id="Calque_40">
	<circle id="XMLID_131_" class="st4" cx="150" cy="130" r="33.2"/>
</g>
<g id="Calque_40_-_copie">
	<circle id="XMLID_139_" class="st5" cx="150" cy="130" r="33.2"/>
</g>
<g id="border" class="st0">
	<g id="圖層_23_1_" class="st2">
		<g id="XMLID_3_">
			<path id="XMLID_4_" class="st6" d="M204.4,245l-109-0.2c-8.5,0-16.4-4.5-20.6-11.6l-54.4-91.7c-4.2-7.2-4.2-16,0-23.2l54.6-91.7
				C79.2,19.4,87.1,15,95.6,15l109,0.2c8.5,0,16.4,4.5,20.6,11.6l54.4,91.7c4.2,7.2,4.2,16,0,23.2l-54.6,91.7
				C220.8,240.5,212.9,245,204.4,245z"/>
		</g>
	</g>
</g>
<g id="money" class="st0">
	<g id="XMLID_31_" class="st2">
		<path id="XMLID_32_" class="st5" d="M107.2,157.4l17.9-3.8c2.1,10.1,10.4,15.2,24.7,15.2c6.5,0,11.6-1.3,15.1-3.9
			c3.5-2.6,5.3-5.8,5.3-9.7c0-2.8-0.8-5.4-2.4-7.7c-1.6-2.4-5-4.2-10.3-5.6l-19.5-5.1c-6.7-1.7-11.6-3.7-14.8-5.9
			c-3.2-2.2-5.8-5.4-7.7-9.4c-1.9-4-2.9-8.4-2.9-12.9c0-9.1,3.4-16.4,10.2-22c6.8-5.5,15.5-8.3,26-8.3c8.8,0,16.6,1.9,23.5,5.8
			c6.9,3.8,11.3,9.3,13.2,16.3l-17.5,4.3c-2.7-7.7-9-11.6-18.9-11.6c-5.7,0-10.1,1.2-13.1,3.6c-3,2.4-4.5,5.4-4.5,9.1
			c0,5.8,4.7,9.9,14.2,12.3l17.4,4.3c10.5,2.6,17.6,6.5,21.2,11.7c3.6,5.2,5.4,10.9,5.4,17.1c0,10-3.8,17.9-11.3,23.7
			c-7.6,5.8-17.3,8.6-29.4,8.6c-10.1,0-19-2.1-26.6-6.4C114.8,173,109.7,166.4,107.2,157.4z"/>
	</g>
	<rect id="XMLID_24_" x="142.2" y="65.7" class="st7" width="14.5" height="128.7"/>
</g>
<g id="money_-_copie" class="st0">
	<g id="border_-_copie" class="st2">
		<g id="圖層_23_3_">
			<g id="XMLID_30_">
				<path id="XMLID_34_" class="st8" d="M204.4,245l-109-0.2c-8.5,0-16.4-4.5-20.6-11.6l-54.4-91.7c-4.2-7.2-4.2-16,0-23.2
					l54.6-91.7C79.2,19.4,87.1,15,95.6,15l109,0.2c8.5,0,16.4,4.5,20.6,11.6l54.4,91.7c4.2,7.2,4.2,16,0,23.2l-54.6,91.7
					C220.8,240.5,212.9,245,204.4,245z"/>
			</g>
		</g>
	</g>
	<g id="XMLID_13_" class="st2">
		<path id="XMLID_14_" class="st9" d="M107.2,157.4l17.9-3.8c2.1,10.1,10.4,15.2,24.7,15.2c6.5,0,11.6-1.3,15.1-3.9
			c3.5-2.6,5.3-5.8,5.3-9.7c0-2.8-0.8-5.4-2.4-7.7c-1.6-2.4-5-4.2-10.3-5.6l-19.5-5.1c-6.7-1.7-11.6-3.7-14.8-5.9
			c-3.2-2.2-5.8-5.4-7.7-9.4c-1.9-4-2.9-8.4-2.9-12.9c0-9.1,3.4-16.4,10.2-22c6.8-5.5,15.5-8.3,26-8.3c8.8,0,16.6,1.9,23.5,5.8
			c6.9,3.8,11.3,9.3,13.2,16.3l-17.5,4.3c-2.7-7.7-9-11.6-18.9-11.6c-5.7,0-10.1,1.2-13.1,3.6c-3,2.4-4.5,5.4-4.5,9.1
			c0,5.8,4.7,9.9,14.2,12.3l17.4,4.3c10.5,2.6,17.6,6.5,21.2,11.7c3.6,5.2,5.4,10.9,5.4,17.1c0,10-3.8,17.9-11.3,23.7
			c-7.6,5.8-17.3,8.6-29.4,8.6c-10.1,0-19-2.1-26.6-6.4C114.8,173,109.7,166.4,107.2,157.4z"/>
	</g>
	<rect id="XMLID_12_" x="142.2" y="65.7" class="st10" width="14.5" height="128.7"/>
</g>
<g id="oldpower" class="st0">
	<path id="XMLID_18_" class="st7" d="M148.8,173.6h42.5V202c0,0-0.1,14.4-21.3,14.2c-21.1-0.3-21.3-14.2-21.3-14.2V173.6z"/>
	<path id="XMLID_21_" class="st7" d="M198.4,155.9c0,0,0.6-82.7,0-85c-0.6-2.4-28.3-28.3-28.3-28.3l-28.3,28.3v85h-14.2v14.2h85
		v-14.2H198.4z M184.3,155.9c0-0.3-28.3,0-28.3,0v-85l14.2-14.2l14.2,14.2C184.3,70.9,184.3,156.2,184.3,155.9z"/>
</g>
<g id="vision" class="st0">
	<ellipse id="XMLID_2_" class="st11" cx="150" cy="130" rx="94.3" ry="48.6"/>
	<circle id="XMLID_5_" class="st11" cx="150" cy="130" r="43.8"/>
	<path id="XMLID_9_" class="st12" d="M150,155.9c-14.3,0-25.9-11.6-25.9-25.9h51.7C175.9,144.3,164.3,155.9,150,155.9z"/>
	<circle id="XMLID_6_" class="st11" cx="150" cy="130" r="25.7"/>
</g>
<g id="health" class="st0">
	<rect id="XMLID_7_" x="135.3" y="52" class="st7" width="29.3" height="152"/>
	<rect id="XMLID_8_" x="74" y="113.3" class="st7" width="152" height="29.3"/>
</g>
<g id="power" class="st0">
	<path id="XMLID_22_" class="st7" d="M112.3,156.1l36.8,21.3L135,201.9c0,0-7.3,12.4-25.5,1.6s-11.3-22.9-11.3-22.9L112.3,156.1z"/>
	<path id="XMLID_15_" class="st7" d="M164.1,165.5c0,0,41.8-71.3,42.5-73.6c0.7-2.4-10.4-38.7-10.4-38.7l-38.7,10.4L115,137.2
		l-12.3-7.1l-7.1,12.3l73.6,42.5l7.1-12.3L164.1,165.5z M151.9,158.4c0.2-0.3-24.5-14.2-24.5-14.2l42.5-73.6l19.4-5.2l5.2,19.4
		C194.4,84.8,151.7,158.7,151.9,158.4z"/>
</g>
<g id="camouflage" class="st0">
	<path id="XMLID_25_" class="st7" d="M137.1,64.1l18-1.4c0,0-2.1,6.8,2.1,7s15.8,3.3,13.9,9.5s-7.1,5.6-9.5,4.5s-10.1-6.6-12.3-2.2
		c-2.1,4.4-1.5,9.5,0.1,14.4s-2.6,10.4-6.6,12.8c-3.8,2.2-8.6,0.9-11.3-1.5s-5-5.5-3.3-10.8c0.8-2.3,1.6-5-1.5-5.1s-6,1.8-7.1,8
		s-3.8,10.9-9.5,11.8S92,104.9,91.8,96.5s15.1-24.2,24.8-24.3S133.8,71.9,137.1,64.1z"/>
	<circle id="XMLID_23_" class="st13" cx="148.9" cy="130" r="67.9"/>
	<path id="XMLID_26_" class="st7" d="M192.8,80.3c0,0-7.9,4-8.9,7.8s-3.4,7.9,2.1,16.6s-2.2,10.9-4.7,8.8s-7.8-15-16.5-8.1
		s-3.2,19.1,4.9,21.1s21.7,3.8,22.5,11.2s-2.1,26.8,8.5,32.6s13.4-27.6,13.4-27.6s-8.8-5-8.3-9.4c0.5-4.4,1.8-8.2,10.2-7.6
		c1.4,0.1,2.8,0.3,3-0.6c1-3.7-5.3-15.2-5.1-15.2c0,0-9.6,1.7-10-3.9s3.9-10,3.9-10s-13.4-16.3-13.4-15.7"/>
	<path id="XMLID_27_" class="st7" d="M83.8,115c0,0,6.6,2.9,5.8,6.9s-6,17.9,0.1,18.4s8.3-2.9,14.2-12.3s20.9-15.5,23.7-13.1
		s7,8.3-5.3,15s-9.4,12.9-9.4,12.9s4.2,10.5,21.3,1.6s27.5,1.2,29.4,4.3s8.2,16-4.3,17.4c-12.5,1.4-21-15.4-34.8-8.3
		c-13.8,7.1-23.5,17.4-27.3,15.1C93.6,170.6,76.3,145.8,83.8,115z"/>
	<path id="XMLID_29_" class="st7" d="M108.2,182.8c0,0,2.8-4.5,8.5-5.4c5.8-0.9,10.4,4.3,10.4,4.3s2.9,9.5,10,7.5s8.7-2.6,5.1-6.8
		c-3.6-4.3-6-9.8,2.8-12.4c8.8-2.7,10.8,3.5,10.8,7.8c0.1,4.3,3.1,10.1,10.3,4.6s5.7-13.2,15.5-12.3s10.4,12.5,10.4,12.5
		s-21,15.6-36.9,15.2S110.1,189.9,108.2,182.8z"/>
</g>
<g id="fast" class="st0">
	<path id="XMLID_11_" class="st7" d="M205.1,159.8c0,0-3.8-2-4.8-16.3s-7-31.8-23.5-38.5c-15.7-6.4-45.6-9.7-73.5-32.3
		c-2.3,4-7.5,20.9,19.3,36.8s28.2,15.8,26.5,19.2c-1.2,2.5-12,9.4-58.5-22.7c2.1,9.3,24.2,41.9,41.5,45c16,2.9,23.8-6.3,26.8-1.8
		s-2.4,11-17.5,10.5c-16.8-0.6-33.2-10.8-32.5-11.8c0,0,7.5,28.3,30.5,32.5S202.1,168.3,205.1,159.8z"/>
</g>
<g id="target" class="st0">
	<g id="Calque_13" class="st2">
		<circle id="XMLID_96_" class="st14" cx="150" cy="130" r="60.3"/>
		<line id="XMLID_95_" class="st14" x1="64.7" y1="130" x2="107.3" y2="130"/>
		<line id="XMLID_94_" class="st14" x1="150" y1="87.3" x2="150" y2="44.7"/>
		<line id="XMLID_93_" class="st14" x1="150" y1="172.7" x2="150" y2="215.3"/>
		<line id="XMLID_92_" class="st15" x1="192.7" y1="130" x2="235.3" y2="130"/>
	</g>
	<g id="Calque_13_-_copie" class="st2">
		<circle id="XMLID_39_" class="st16" cx="150" cy="130" r="60.3"/>
		<line id="XMLID_38_" class="st16" x1="64.7" y1="130" x2="107.3" y2="130"/>
		<line id="XMLID_37_" class="st16" x1="150" y1="87.3" x2="150" y2="44.7"/>
		<line id="XMLID_36_" class="st16" x1="150" y1="172.7" x2="150" y2="215.3"/>
		<line id="XMLID_35_" class="st17" x1="192.7" y1="130" x2="235.3" y2="130"/>
	</g>
</g>
<g id="crash" class="st0">
	<g id="Calque_25">
		<g id="Calque_17_-_copie" class="st2">
			<path id="XMLID_40_" class="st18" d="M240.9,138.6c-5.9,2-9.8,2.6-12.3,2.3c-4.1-16.7,4.9-23.1,29.4-8.2
				c-29.3-28-41.3-32.1-12.3-70.1c-28.4,22-36.6,25.1-42.3,12c0.9-5.3,8.1-11.4,20-15.4c-29-0.2-46.8,4.6-23.2-29.9
				c-35.8,31.1-42.2,30.2-63.8-2.2c11.6,32.4,8.3,32.6-12,15.7c13.9,17.8,10.8,18.5-5.5,11c10.2,9.2,7.2,10.2-3.9,8.2
				c5.4,4.4,2.7,5.8-3.1,6.7c0.4,2.2-2.2,4-4.6,4.5s-4.7-0.3-6.9-3.7c-4.4,15.5-8.2,20.4-23,3.9c8.5,27.3,6,33.1-25,26.8
				c27.7,18.5,26.8,24.9,4,39.9c22.7-5,23-1.8,9.6,11.8c14.3-7.2,14.9-4,9,7c7.6-4.9,8.7-2,6.6,4.5c2.7-1.3,2.3,0.8,0.1,2.5
				c5.3,3.7,8.9,6.9,8.8,9.8c-0.1,3-3.7,5.7-13,8.6c27.2,2.8,32.1,6.6,13.2,35c29.5-22.2,35.3-19.8,47.4,11.4
				c0.1-27.8,6.5-26.9,23.5-16.5c-7.1-10.3-3.8-10.6,4.9-6.7c-2.6-4,0.2-3.8,3.2-2.7c3.1-2.8,6.4-4.6,9.1-3.9
				c2.8,0.7,5,3.9,6.6,11.5c7.5-21.5,12.4-25.3,33.5,4.8c-12.3-38.8-8.5-43.7,36.2-42.2C216.7,162.7,219.2,156.9,240.9,138.6z"/>
		</g>
		<g id="Calque_18" class="st2">
			<path id="XMLID_42_" class="st19" d="M214.8,128.9c-2.5,0.9-3.9,2.3-4.1,4c-0.3,1.7,0.6,3.7,2.7,5.9c-5.4,1.3-5,5.4-1.7,9.4
				c-5.1,1.3-9.6,3.4-5.2,8.1c-7.1-0.1-7.7,3.2-3.5,8.6c-7.3-1.3-13.3-1.7-7.4,5.7c-9.2-4-9.7-0.2-5.8,7.5c-7.7-4.9-11.3-5-8.4,3.9
				c-6.9-6.4-8.6-3.3-8.3,4.7c-5-6.5-7.8-6.2-9.4,2c-3.4-7.3-6.6-7.1-9.9,1.1c-1.9-7.9-5.3-9.3-9.8-1.6c0.9-6.7,0.2-9.2-4.7-4.6
				c2.3-5.5-1.4-1.8-4.8,3c1-6.4,1.2-14.2-3-6.1c2.3-9.5-1.5-6.1-5.3,1.4c1.5-4.8,4.5-10,0.3-9c3.9-3.6,1-2-2.4,3.5
				c2.4-5.8,2.9-7.6-1.1-5.7c2-0.8-2.9,3.5-5.2,7.2c1.5-4.4,5.1-9.2,2.8-9.9c2.6-2.4-0.2-1-3.3,3.8c2.4-5.5,4.1-8,1.1-7.3
				c0.9-0.3-3.6,2.8-7.3,6.9c3.3-5.7,5-9,3.4-9.9c-0.5-1.1-4.4,0.2-9.9,3.2c8.8-9.3,6.7-10.9-5-8c9.7-6.7,7.1-8.4-3.7-8.7
				c9.3-4,6.7-6.6-2.3-9.4c8.1-2.2,6.2-5.8-0.8-9.9c7-0.6,7-3.4,0.9-6.8c6.8-0.3,5.7-3.3,0.5-6.2c6-0.7,8.3-2.8,3.4-6.3
				c6.5,0.2,5.5-2.5,0.6-5.8c6.2,0.1,10-0.2,5.7-5c6.4,1.9,5-1,0.7-5.9c4.2,1.2,6.9,1.4,8,0.4c1.1-1.1,0.6-3.4-1.5-7.2
				c7.8,4.6,9,1.9,6.6-6.3c3.7,4,6.6,7.4,6.6,1.9c3,4.9,3.4,1,3.5-4.8c2.4,5.1,3.9,6.7,4.6,1.4c1.2,3.2,1.7-3.2,2-7.3
				c2,3.3,3.5,7.7,5.6,5.4c1.3,3.6,3.4,1.4,5.8-2c0.3,3.4,1.6,3.1,3.4,0.6c1.1-0.3,3.1-4.1,4.4-7.1c1,6.1,1.4,9.8,4.7,7.6
				c-0.4,2.5,2.9-1.8,5.2-6.8c0,5.4,0,8.6,2.5,7.9c0.4,1.2,3.7-1.7,6.9-5.6c-1,4.7-1.2,7.5,0.5,8.1c1,1,4-0.3,8-3
				c-2,4.1-1.7,5.8-0.1,6.1c1.7,0.3,4.7-0.9,8.3-2.6c-3.2,6.3-1.8,9.1,5.1,9.2c-3.7,4.2,3.6,4.3,8.1,4c-1.4,4.4-1.5,7.7,0.8,10.4
				c0.3,2.6,3.8,4.7,7.9,6.4c-5.6,4.1-4.1,6.6,2.3,9.4C208.4,121.7,209.9,124.9,214.8,128.9z"/>
		</g>
	</g>
	<g id="Calque_25_-_copie">
		<g id="Calque_18_-_copie_3">
			<g id="XMLID_84_" class="st2">
				<path id="XMLID_85_" class="st19" d="M131.4,165.4C133.4,163.5,132.9,163.7,131.4,165.4L131.4,165.4z"/>
				<path id="XMLID_88_" class="st19" d="M219.2,139.7c-2.3-2.4-3.2-4.6-2.9-6.4c0.3-1.9,1.8-3.4,4.5-4.4c-5.4-4.4-7-8-0.9-10.9
					c-7-3-8.7-5.7-2.5-10.3c-4.5-1.8-8.3-4.1-8.6-7c-2.5-2.9-2.4-6.6-0.9-11.4c-4.9,0.3-12.9,0.2-8.9-4.4c-7.6-0.1-9.1-3.2-5.6-10.1
					c-3.9,1.8-7.3,3.1-9.1,2.8c-1.8-0.3-2.1-2.2,0.1-6.7c-4.4,3-7.6,4.3-8.8,3.2c-1.8-0.6-1.6-3.8-0.5-8.9c-3.5,4.3-7.2,7.5-7.6,6.2
					c-2.7,0.8-2.7-2.8-2.7-8.7c-2.5,5.5-6.2,10.3-5.7,7.5c-3.6,2.4-4.1-1.7-5.1-8.4c-1.4,3.3-3.6,7.5-4.8,7.9c-2,2.7-3.4,3-3.8-0.7
					c-2.6,3.7-4.9,6.1-6.4,2.2c-2.3,2.5-4-2.3-6.2-6c-0.3,4.4-0.8,11.5-2.2,8c-0.8,5.8-2.5,4-5.1-1.6c-0.1,6.3-0.6,10.7-3.9,5.2
					c0.1,6-3.2,2.3-7.2-2.1c2.6,8.9,1.2,11.9-7.3,6.9c2.3,4.3,2.9,6.8,1.6,8c-1.2,1.2-4.2,0.9-8.8-0.4c4.7,5.3,6.2,8.5-0.7,6.4
					c4.7,5.2,0.7,5.6-6.2,5.5c5.3,3.6,6.4,6.5-0.7,6.3c5.4,3.9,2.8,6.2-3.7,7c5.7,3.2,6.9,6.5-0.6,6.9c6.7,3.8,6.7,6.9-1,7.5
					c7.7,4.5,9.8,8.4,0.9,10.9c9.8,3.1,12.8,5.9,2.5,10.3c11.8,0.4,14.7,2.3,4.1,9.6c12.8-3.2,15.1-1.5,5.4,8.8
					c6.1-3.3,10.4-4.7,10.9-3.5c1.8,1-0.1,4.6-3.7,10.8c4-4.5,8.9-7.8,8-7.5c3.3-0.8,1.4,2-1.2,8c3.4-5.3,6.5-6.8,3.7-4.2
					c2.5,0.7-1.5,6-3.1,10.8c2.6-4.2,8-8.8,5.8-8c4.5-2.2,3.9-0.2,1.2,6.2c1-1.6,1.9-2.9,2.7-3.8c4.6-0.9,1.3,4.8-0.4,9.9
					c4.1-8.2,8.3-12,5.8-1.6c4.6-8.9,4.3-0.3,3.3,6.7c3.7-5.4,7.8-9.4,5.3-3.3c5.4-5.1,6.2-2.4,5.1,5c5-8.4,8.6-6.9,10.8,1.7
					c3.6-8.9,7.1-9.1,10.9-1.2c1.7-9,4.8-9.4,10.3-2.2c-0.3-8.9,1.6-12.3,9.2-5.2c-3.1-9.8,0.7-9.6,9.2-4.3
					c-4.2-8.4-3.7-12.6,6.4-8.2c-6.5-8.1,0.1-7.7,8.1-6.3c-4.7-5.9-4-9.6,3.8-9.5c-4.9-5.1,0.1-7.4,5.7-8.9
					C213.7,145.6,213.2,141.2,219.2,139.7z M124.3,177.1C126.1,174.8,126.8,174.6,124.3,177.1L124.3,177.1z M203.3,137.1
					c-4.5,1.1-4.1,4.5-1.4,7.8c-4.2,1.1-8,2.8-4.3,6.7c-5.9-0.1-6.4,2.7-2.9,7.2c-6.1-1.1-11.1-1.4-6.1,4.8c-7.6-3.4-8-0.2-4.8,6.2
					c-6.4-4-9.4-4.1-7,3.3c-5.8-5.4-7.1-2.8-6.9,3.9c-4.1-5.4-6.5-5.1-7.8,1.7c-2.9-6-5.5-5.9-8.2,0.9c-1.6-6.6-4.4-7.7-8.2-1.3
					c0.8-5.6,0.2-7.7-3.9-3.8c2-4.6-1.2-1.5-4,2.5c0.8-5.3,1-11.8-2.5-5.1c1.9-7.9-1.2-5-4.4,1.2c1.2-3.9,3.7-8.2,0.3-7.5
					c-0.6,0.7-1.3,1.7-2,2.9c2-4.8,2.4-6.4-0.9-4.7c1.7-0.6-2.4,2.9-4.4,6c1.2-3.7,4.3-7.7,2.4-8.2c2.2-2-0.2-0.9-2.8,3.2
					c2-4.6,3.4-6.7,0.9-6.1c0.7-0.2-3,2.3-6,5.7c2.8-4.7,4.2-7.5,2.8-8.2c-0.4-0.9-3.6,0.1-8.3,2.6c7.3-7.8,5.6-9.1-4.1-6.6
					c8.1-5.5,5.9-6.9-3.1-7.3c7.8-3.3,5.5-5.5-1.9-7.8c6.8-1.8,5.2-4.9-0.7-8.2c5.8-0.5,5.8-2.8,0.7-5.7c5.6-0.3,4.8-2.8,0.4-5.2
					c5-0.5,6.9-2.3,2.8-5.3c5.4,0.1,4.5-2.1,0.5-4.8c5.2,0.1,8.3-0.2,4.7-4.1c5.3,1.6,4.1-0.8,0.6-4.9c3.5,1,5.8,1.2,6.7,0.3
					c0.9-0.9,0.5-2.8-1.2-6c6.5,3.8,7.5,1.5,5.5-5.2c3,3.3,5.5,6.2,5.5,1.6c2.5,4.1,2.9,0.8,2.9-4c2,4.2,3.3,5.6,3.9,1.2
					c1,2.7,1.5-2.7,1.7-6c1.6,2.7,2.9,6.4,4.7,4.5c1.1,3,2.9,1.1,4.9-1.7c0.2,2.8,1.4,2.6,2.8,0.5c0.9-0.2,2.6-3.4,3.6-5.9
					c0.8,5,1.2,8.2,3.9,6.3c-0.3,2.1,2.4-1.5,4.3-5.7c0,4.5,0,7.2,2.1,6.6c0.3,1,3.1-1.4,5.7-4.7c-0.8,3.9-1,6.3,0.4,6.7
					c0.9,0.8,3.3-0.2,6.7-2.5c-1.7,3.4-1.4,4.8-0.1,5.1c1.4,0.2,3.9-0.7,6.9-2.1c-2.6,5.2-1.5,7.5,4.3,7.6c-3,3.5,3,3.6,6.7,3.4
					c-1.2,3.6-1.3,6.4,0.7,8.6c0.2,2.2,3.2,4,6.5,5.3c-4.7,3.4-3.4,5.5,1.9,7.8c-4.6,2.2-3.4,4.9,0.7,8.2c-2.1,0.8-3.2,1.9-3.4,3.3
					C200.9,133.6,201.6,135.3,203.3,137.1z"/>
			</g>
		</g>
		<g id="Calque_18_-_copie_5">
			<g id="XMLID_98_" class="st20">
				<path id="XMLID_103_" class="st19" d="M133.4,162.1C135.2,160.4,134.7,160.5,133.4,162.1L133.4,162.1z"/>
				<path id="XMLID_99_" class="st19" d="M213.3,138.8c-2.1-2.2-2.9-4.2-2.7-5.9c0.3-1.7,1.7-3.1,4.1-4c-4.9-4-6.3-7.2-0.8-9.9
					c-6.4-2.8-8-5.2-2.3-9.4c-4.1-1.6-7.6-3.7-7.9-6.4c-2.3-2.6-2.2-6-0.8-10.4c-4.5,0.3-11.7,0.1-8.1-4c-7-0.1-8.3-2.9-5.1-9.2
					c-3.6,1.7-6.6,2.8-8.3,2.6s-1.9-2,0.1-6.1c-4,2.7-7,3.9-8,3c-1.6-0.6-1.5-3.4-0.5-8.1c-3.2,3.9-6.5,6.8-6.9,5.6
					c-2.5,0.7-2.5-2.5-2.5-7.9c-2.3,5-5.6,9.4-5.2,6.8c-3.2,2.2-3.7-1.6-4.7-7.6c-1.3,3-3.3,6.9-4.4,7.1c-1.8,2.5-3.1,2.7-3.4-0.6
					c-2.4,3.4-4.5,5.6-5.8,2c-2.1,2.3-3.6-2.1-5.6-5.4c-0.3,4-0.8,10.5-2,7.3c-0.7,5.2-2.3,3.6-4.6-1.4c-0.1,5.8-0.6,9.7-3.5,4.8
					c0.1,5.5-2.9,2.1-6.6-1.9c2.3,8.1,1.1,10.8-6.6,6.3c2.1,3.9,2.6,6.2,1.5,7.2c-1.1,1.1-3.8,0.8-8-0.4c4.3,4.9,5.7,7.7-0.7,5.9
					c4.3,4.7,0.6,5.1-5.7,5c4.8,3.2,5.9,5.9-0.6,5.8c4.9,3.6,2.6,5.7-3.4,6.3c5.2,2.9,6.2,5.9-0.5,6.2c6.1,3.4,6.1,6.3-0.9,6.8
					c7,4.1,8.9,7.7,0.8,9.9c9,2.8,11.7,5.4,2.3,9.4c10.8,0.4,13.4,2.1,3.7,8.7c11.7-2.9,13.8-1.4,5,8c5.6-3,9.4-4.3,9.9-3.2
					c1.6,0.9-0.1,4.2-3.4,9.9c3.7-4.1,8.1-7.1,7.3-6.9c3-0.7,1.3,1.8-1.1,7.3c3.1-4.9,5.9-6.2,3.3-3.8c2.3,0.6-1.4,5.4-2.8,9.9
					c2.4-3.8,7.3-8,5.2-7.2c4.1-2,3.5-0.1,1.1,5.7c0.9-1.4,1.7-2.6,2.5-3.5c4.2-0.8,1.1,4.3-0.3,9c3.8-7.5,7.5-10.9,5.3-1.4
					c4.2-8.1,4-0.3,3,6.1c3.4-4.9,7.1-8.5,4.8-3c4.9-4.6,5.6-2.1,4.7,4.6c4.5-7.7,7.9-6.3,9.8,1.6c3.3-8.1,6.5-8.3,9.9-1.1
					c1.6-8.2,4.4-8.6,9.4-2c-0.3-8.1,1.4-11.2,8.3-4.7c-2.9-8.9,0.7-8.8,8.4-3.9c-3.9-7.7-3.4-11.5,5.8-7.5c-5.9-7.4,0.1-7,7.4-5.7
					c-4.3-5.4-3.7-8.7,3.5-8.6c-4.5-4.7,0.1-6.8,5.2-8.1C208.3,144.1,207.9,140.1,213.3,138.8z M126.9,172.8
					C128.6,170.7,129.3,170.5,126.9,172.8L126.9,172.8z M198.9,136.4c-4.1,1-3.8,4.1-1.3,7.1c-3.9,1-7.3,2.6-3.9,6.1
					c-5.4-0.1-5.8,2.4-2.6,6.5c-5.5-1-10.1-1.3-5.6,4.3c-7-3-7.3-0.2-4.4,5.6c-5.8-3.7-8.5-3.8-6.4,3c-5.2-4.9-6.5-2.5-6.3,3.6
					c-3.8-4.9-5.9-4.7-7.1,1.6c-2.6-5.5-5-5.4-7.5,0.8c-1.5-6-4-7-7.4-1.2c0.7-5.1,0.2-7-3.5-3.5c1.8-4.2-1.1-1.4-3.6,2.3
					c0.7-4.8,0.9-10.7-2.3-4.6c1.7-7.2-1.1-4.6-4,1.1c1.1-3.6,3.4-7.5,0.3-6.9c-0.5,0.7-1.2,1.5-1.9,2.6c1.8-4.4,2.2-5.8-0.9-4.3
					c1.5-0.6-2.2,2.6-4,5.5c1.1-3.4,3.9-7,2.2-7.5c2-1.8-0.2-0.8-2.5,2.9c1.8-4.2,3.1-6.1,0.9-5.5c0.7-0.2-2.7,2.1-5.5,5.2
					c2.5-4.3,3.8-6.8,2.5-7.5c-0.4-0.8-3.3,0.1-7.5,2.4c6.7-7.1,5.1-8.2-3.8-6c7.4-5.1,5.4-6.3-2.8-6.6c7.1-3,5-5-1.7-7.1
					c6.2-1.7,4.7-4.4-0.6-7.5c5.3-0.4,5.3-2.6,0.7-5.2c5.1-0.2,4.3-2.5,0.4-4.7c4.5-0.5,6.3-2.1,2.6-4.8c4.9,0.1,4.1-1.9,0.5-4.4
					c4.7,0.1,7.5-0.2,4.3-3.8c4.8,1.4,3.8-0.7,0.5-4.4c3.2,0.9,5.3,1.1,6.1,0.3s0.5-2.5-1.1-5.5c5.9,3.5,6.8,1.4,5-4.8
					c2.8,3,5,5.6,5,1.5c2.2,3.7,2.6,0.8,2.7-3.6c1.8,3.8,3,5.1,3.5,1.1c0.9,2.4,1.3-2.4,1.5-5.5c1.5,2.5,2.7,5.8,4.2,4.1
					c1,2.7,2.6,1,4.4-1.5c0.2,2.5,1.2,2.3,2.6,0.5c0.8-0.2,2.3-3.1,3.3-5.4c0.7,4.6,1.1,7.4,3.5,5.8c-0.3,1.9,2.2-1.4,3.9-5.2
					c0,4.1,0,6.5,1.9,6c0.3,0.9,2.8-1.3,5.2-4.3c-0.7,3.5-0.9,5.7,0.4,6.1c0.8,0.7,3-0.2,6.1-2.2c-1.5,3.1-1.3,4.4-0.1,4.6
					c1.3,0.2,3.6-0.7,6.3-1.9c-2.4,4.7-1.4,6.9,3.9,6.9c-2.8,3.2,2.7,3.3,6.1,3.1c-1.1,3.3-1.1,5.8,0.6,7.8c0.2,2,2.9,3.6,6,4.8
					c-4.3,3.1-3.1,5,1.7,7.1c-4.2,2-3.1,4.4,0.6,7.5c-1.9,0.7-2.9,1.7-3.1,3C196.6,133.2,197.3,134.7,198.9,136.4z"/>
			</g>
		</g>
		<g id="Calque_18_-_copie" class="st2">
			<g id="XMLID_79_">
				<path id="XMLID_80_" class="st18" d="M126.9,172.8C129.3,170.5,128.6,170.7,126.9,172.8L126.9,172.8z"/>
				<path id="XMLID_83_" class="st18" d="M240.9,138.6c-5.9,2-9.8,2.6-12.3,2.3c-4.1-16.7,4.9-23.1,29.4-8.2
					c-29.3-28-41.3-32.1-12.3-70.1c-28.4,22-36.6,25.1-42.3,12c0.9-5.3,8.1-11.4,20-15.4c-29-0.2-46.8,4.6-23.2-29.9
					c-35.8,31.1-42.2,30.2-63.8-2.2c11.6,32.4,8.3,32.6-12,15.7c13.9,17.8,10.8,18.5-5.5,11c10.2,9.2,7.2,10.2-3.9,8.2
					c5.4,4.4,2.7,5.8-3.1,6.7c0.4,2.2-2.2,4-4.6,4.5s-4.7-0.3-6.9-3.7c-4.4,15.5-8.2,20.4-23,3.9c8.5,27.3,6,33.1-25,26.8
					c27.7,18.5,26.8,24.9,4,39.9c22.7-5,23-1.8,9.6,11.8c14.3-7.2,14.9-4,9,7c7.6-4.9,8.7-2,6.6,4.5c2.7-1.3,2.3,0.8,0.1,2.5
					c5.3,3.7,8.9,6.9,8.8,9.8c-0.1,3-3.7,5.7-13,8.6c27.2,2.8,32.1,6.6,13.2,35c29.5-22.2,35.3-19.8,47.4,11.4
					c0.1-27.8,6.5-26.9,23.5-16.5c-7.1-10.3-3.8-10.6,4.9-6.7c-2.6-4,0.2-3.8,3.2-2.7c3.1-2.8,6.4-4.6,9.1-3.9
					c2.8,0.7,5,3.9,6.6,11.5c7.5-21.5,12.4-25.3,33.5,4.8c-12.3-38.8-8.5-43.7,36.2-42.2C216.7,162.7,219.2,156.9,240.9,138.6z
					 M213.3,138.8c-5.4,1.3-5,5.4-1.7,9.4c-5.1,1.3-9.6,3.4-5.2,8.1c-7.1-0.1-7.7,3.2-3.5,8.6c-7.3-1.3-13.3-1.7-7.4,5.7
					c-9.2-4-9.7-0.2-5.8,7.5c-7.7-4.9-11.3-5-8.4,3.9c-6.9-6.4-8.6-3.3-8.3,4.7c-5-6.5-7.8-6.2-9.4,2c-3.4-7.3-6.6-7.1-9.9,1.1
					c-1.9-7.9-5.3-9.3-9.8-1.6c0.9-6.7,0.2-9.2-4.7-4.6c2.3-5.5-1.4-1.8-4.8,3c1-6.4,1.2-14.2-3-6.1c2.3-9.5-1.5-6.1-5.3,1.4
					c1.5-4.7,4.5-9.9,0.3-9c-0.7,0.9-1.6,2-2.5,3.5c2.4-5.8,2.9-7.6-1.1-5.7c2-0.8-2.9,3.5-5.2,7.2c1.5-4.4,5.1-9.2,2.8-9.9
					c2.6-2.4-0.2-1-3.3,3.8c2.4-5.5,4.1-8,1.1-7.3c0.9-0.3-3.6,2.8-7.3,6.9c3.3-5.7,5-9,3.4-9.9c-0.5-1.1-4.4,0.2-9.9,3.2
					c8.8-9.3,6.7-10.9-5-8c9.7-6.7,7.1-8.4-3.7-8.7c9.3-4,6.7-6.6-2.3-9.4c8.1-2.2,6.2-5.8-0.8-9.9c7-0.6,7-3.4,0.9-6.8
					c6.8-0.3,5.7-3.3,0.5-6.2c6-0.7,8.3-2.8,3.4-6.3c6.5,0.2,5.5-2.5,0.6-5.8c6.2,0.1,10-0.2,5.7-5c6.4,1.9,5-1,0.7-5.9
					c4.2,1.2,6.9,1.4,8,0.4c1.1-1.1,0.6-3.4-1.5-7.2c7.8,4.6,9,1.9,6.6-6.3c3.7,4,6.6,7.4,6.6,1.9c3,4.9,3.4,1,3.5-4.8
					c2.4,5.1,3.9,6.7,4.6,1.4c1.2,3.2,1.7-3.2,2-7.3c2,3.3,3.5,7.7,5.6,5.4c1.3,3.6,3.4,1.4,5.8-2c0.3,3.4,1.6,3.1,3.4,0.6
					c1.1-0.3,3.1-4.1,4.4-7.1c1,6.1,1.4,9.8,4.7,7.6c-0.4,2.5,2.9-1.8,5.2-6.8c0,5.4,0,8.6,2.5,7.9c0.4,1.2,3.7-1.7,6.9-5.6
					c-1,4.7-1.2,7.5,0.5,8.1c1,1,4-0.3,8-3c-2,4.1-1.7,5.8-0.1,6.1s4.7-0.9,8.3-2.6c-3.2,6.3-1.8,9.1,5.1,9.2
					c-3.7,4.2,3.6,4.3,8.1,4c-1.4,4.4-1.5,7.7,0.8,10.4c0.3,2.6,3.8,4.7,7.9,6.4c-5.6,4.1-4.1,6.6,2.3,9.4c-5.5,2.6-4.1,5.8,0.8,9.9
					c-2.5,0.9-3.9,2.3-4.1,4C210.4,134.6,211.2,136.6,213.3,138.8z"/>
			</g>
		</g>
		<g id="Calque_18_-_copie_4">
			<g id="XMLID_74_" class="st2">
				<path id="XMLID_97_" class="st18" d="M126.9,172.8C129.3,170.5,128.6,170.7,126.9,172.8L126.9,172.8z"/>
				<path id="XMLID_78_" class="st18" d="M240.9,138.6c-5.9,2-9.8,2.6-12.3,2.3c-4.1-16.7,4.9-23.1,29.4-8.2
					c-29.3-28-41.3-32.1-12.3-70.1c-28.4,22-36.6,25.1-42.3,12c0.9-5.3,8.1-11.4,20-15.4c-29-0.2-46.8,4.6-23.2-29.9
					c-35.8,31.1-42.2,30.2-63.8-2.2c11.6,32.4,8.3,32.6-12,15.7c13.9,17.8,10.8,18.5-5.5,11c10.2,9.2,7.2,10.2-3.9,8.2
					c5.4,4.4,2.7,5.8-3.1,6.7c0.4,2.2-2.2,4-4.6,4.5s-4.7-0.3-6.9-3.7c-4.4,15.5-8.2,20.4-23,3.9c8.5,27.3,6,33.1-25,26.8
					c27.7,18.5,26.8,24.9,4,39.9c22.7-5,23-1.8,9.6,11.8c14.3-7.2,14.9-4,9,7c7.6-4.9,8.7-2,6.6,4.5c2.7-1.3,2.3,0.8,0.1,2.5
					c5.3,3.7,8.9,6.9,8.8,9.8c-0.1,3-3.7,5.7-13,8.6c27.2,2.8,32.1,6.6,13.2,35c29.5-22.2,35.3-19.8,47.4,11.4
					c0.1-27.8,6.5-26.9,23.5-16.5c-7.1-10.3-3.8-10.6,4.9-6.7c-2.6-4,0.2-3.8,3.2-2.7c3.1-2.8,6.4-4.6,9.1-3.9
					c2.8,0.7,5,3.9,6.6,11.5c7.5-21.5,12.4-25.3,33.5,4.8c-12.3-38.8-8.5-43.7,36.2-42.2C216.7,162.7,219.2,156.9,240.9,138.6z
					 M213.3,138.8c-5.4,1.3-5,5.4-1.7,9.4c-5.1,1.3-9.6,3.4-5.2,8.1c-7.1-0.1-7.7,3.2-3.5,8.6c-7.3-1.3-13.3-1.7-7.4,5.7
					c-9.2-4-9.7-0.2-5.8,7.5c-7.7-4.9-11.3-5-8.4,3.9c-6.9-6.4-8.6-3.3-8.3,4.7c-5-6.5-7.8-6.2-9.4,2c-3.4-7.3-6.6-7.1-9.9,1.1
					c-1.9-7.9-5.3-9.3-9.8-1.6c0.9-6.7,0.2-9.2-4.7-4.6c2.3-5.5-1.4-1.8-4.8,3c1-6.4,1.2-14.2-3-6.1c2.3-9.5-1.5-6.1-5.3,1.4
					c1.5-4.7,4.5-9.9,0.3-9c-0.7,0.9-1.6,2-2.5,3.5c2.4-5.8,2.9-7.6-1.1-5.7c2-0.8-2.9,3.5-5.2,7.2c1.5-4.4,5.1-9.2,2.8-9.9
					c2.6-2.4-0.2-1-3.3,3.8c2.4-5.5,4.1-8,1.1-7.3c0.9-0.3-3.6,2.8-7.3,6.9c3.3-5.7,5-9,3.4-9.9c-0.5-1.1-4.4,0.2-9.9,3.2
					c8.8-9.3,6.7-10.9-5-8c9.7-6.7,7.1-8.4-3.7-8.7c9.3-4,6.7-6.6-2.3-9.4c8.1-2.2,6.2-5.8-0.8-9.9c7-0.6,7-3.4,0.9-6.8
					c6.8-0.3,5.7-3.3,0.5-6.2c6-0.7,8.3-2.8,3.4-6.3c6.5,0.2,5.5-2.5,0.6-5.8c6.2,0.1,10-0.2,5.7-5c6.4,1.9,5-1,0.7-5.9
					c4.2,1.2,6.9,1.4,8,0.4c1.1-1.1,0.6-3.4-1.5-7.2c7.8,4.6,9,1.9,6.6-6.3c3.7,4,6.6,7.4,6.6,1.9c3,4.9,3.4,1,3.5-4.8
					c2.4,5.1,3.9,6.7,4.6,1.4c1.2,3.2,1.7-3.2,2-7.3c2,3.3,3.5,7.7,5.6,5.4c1.3,3.6,3.4,1.4,5.8-2c0.3,3.4,1.6,3.1,3.4,0.6
					c1.1-0.3,3.1-4.1,4.4-7.1c1,6.1,1.4,9.8,4.7,7.6c-0.4,2.5,2.9-1.8,5.2-6.8c0,5.4,0,8.6,2.5,7.9c0.4,1.2,3.7-1.7,6.9-5.6
					c-1,4.7-1.2,7.5,0.5,8.1c1,1,4-0.3,8-3c-2,4.1-1.7,5.8-0.1,6.1s4.7-0.9,8.3-2.6c-3.2,6.3-1.8,9.1,5.1,9.2
					c-3.7,4.2,3.6,4.3,8.1,4c-1.4,4.4-1.5,7.7,0.8,10.4c0.3,2.6,3.8,4.7,7.9,6.4c-5.6,4.1-4.1,6.6,2.3,9.4c-5.5,2.6-4.1,5.8,0.8,9.9
					c-2.5,0.9-3.9,2.3-4.1,4C210.4,134.6,211.2,136.6,213.3,138.8z"/>
			</g>
		</g>
	</g>
	<g id="debris" class="st2">
		<g id="Calque_19" class="st0">
			<path id="XMLID_41_" class="st21" d="M60.7,200.3H39c0,0,0-3.7,0-9.5c0-5.8,0-13.9,0-22.7c0-8.8,5.4-28,0-27
				c5.4-13.5,10.6-21.5,0-22.7c10.6-4,10.2-5.7,0-9.5c10.2,3.8,19.7,5,21.7,0c-2,5,0,50.4,0,59.2c0,8.8,0,16.8,0,22.7
				S60.7,200.3,60.7,200.3z"/>
			<path id="XMLID_45_" class="st22" d="M45.4,152.6L39,200.3c0,0,0-3.7,0-9.5c0-5.8,0-13.9,0-22.7c0-8.8,5.4-28,0-27
				c5.4-13.5,10.6-21.5,0-22.7c10.6-4,10.2-5.7,0-9.5c10.2,3.8,19.7,5,21.7,0c-2,5,0,50.4,0,59.2c0,8.8-10.8-38.6-10.8-32.8
				C49.8,141.3,45.4,152.6,45.4,152.6z"/>
			<rect id="XMLID_43_" x="47" y="169.4" class="st23" width="10.8" height="26.3"/>
			<circle id="XMLID_44_" class="st24" cx="50" cy="172.3" r="1.5"/>
			<circle id="XMLID_46_" class="st24" cx="50" cy="192.8" r="1.5"/>
		</g>
		<g id="Calque_19_-_copie" class="st0">
			<path id="XMLID_51_" class="st25" d="M148.1,225.6l-7.6,20.3c0,0-3.4-1.3-8.9-3.3c-5.5-2-13-4.9-21.2-7.9S86,219.7,85,225.1
				c-10.7-9.8-16.4-17.5-21.2-7.9c0-11.3-1.8-11.6-8.9-3.3c7.1-8.2,11.6-16.7,7.6-20.3c4,3.6,47.2,17.7,55.4,20.7s15.7,5.9,21.2,7.9
				C144.6,224.3,148.1,225.6,148.1,225.6z"/>
			
				<linearGradient id="XMLID_141_" gradientUnits="userSpaceOnUse" x1="54.8597" y1="229.9092" x2="142.4842" y2="229.9092" gradientTransform="matrix(0.9974 7.199606e-002 -7.199606e-002 0.9974 16.575 -16.9086)">
				<stop  offset="0" style="stop-color:#000000"/>
				<stop  offset="1" style="stop-color:#414042;stop-opacity:0"/>
			</linearGradient>
			<path id="XMLID_50_" class="st26" d="M98,223.1l42.5,22.7c0,0-3.4-1.3-8.9-3.3c-5.5-2-13-4.9-21.2-7.9S86,219.7,85,225.1
				c-10.7-9.8-16.4-17.5-21.2-7.9c0-11.3-1.8-11.6-8.9-3.3c7.1-8.2,11.6-16.7,7.6-20.3c4,3.6,29.2,11.7,37.5,14.5
				c4.5,1.5-22,2.8-16.5,4.9C88.9,215,98,223.1,98,223.1z"/>
			<g id="effect" class="st2">
				
					<linearGradient id="XMLID_142_" gradientUnits="userSpaceOnUse" x1="130.0828" y1="234.9175" x2="127.9107" y2="245.1362" gradientTransform="matrix(0.9974 7.199606e-002 -7.199606e-002 0.9974 16.575 -16.9086)">
					<stop  offset="0" style="stop-color:#FFFFFF"/>
					<stop  offset="1" style="stop-color:#FFFFFF;stop-opacity:0"/>
				</linearGradient>
				<path id="XMLID_111_" class="st27" d="M130.4,227.1l-10.7,4.4c0.6,1.1,2,3.1,4.5,4.5c4.9,2.7,10,0.6,10.7,0.3
					C133.5,233.1,132,230.1,130.4,227.1z"/>
				
					<linearGradient id="XMLID_143_" gradientUnits="userSpaceOnUse" x1="108.8577" y1="257.5868" x2="106.2894" y2="269.6699" gradientTransform="matrix(7.537777e-002 -0.9972 0.9972 7.537777e-002 -134.3253 317.8238)">
					<stop  offset="0" style="stop-color:#FFFFFF"/>
					<stop  offset="1" style="stop-color:#FFFFFF;stop-opacity:0"/>
				</linearGradient>
				<path id="XMLID_112_" class="st28" d="M131.3,226.8c1.2,3.1,2.5,6.2,3.7,9.3c0.2,0,4.1,0.5,6.5-2.5c1.7-2.1,2.1-5.1,1-7.6
					c-1.3,0.1-2.6,0.2-3.9,0.3C136.2,226.5,133.7,226.6,131.3,226.8z"/>
				<polygon id="XMLID_49_" class="st29" points="103.2,219 131,226.2 142.5,225.9 131.3,226.8 135,236.2 130.4,227.1 121.6,230.7 
					130.3,226.6 				"/>
				
					<linearGradient id="XMLID_147_" gradientUnits="userSpaceOnUse" x1="123.1773" y1="233.0422" x2="124.1171" y2="226.3547" gradientTransform="matrix(0.9974 7.199606e-002 -7.199606e-002 0.9974 16.575 -16.9086)">
					<stop  offset="0" style="stop-color:#FFFFFF"/>
					<stop  offset="5.476443e-002" style="stop-color:#FFFFFF;stop-opacity:0.9452"/>
					<stop  offset="1" style="stop-color:#FFFFFF;stop-opacity:0"/>
				</linearGradient>
				<path id="XMLID_109_" class="st30" d="M131,226.2l-27.4-7.1c2.7-0.9,6-1.7,9.6-1.9c14.1-1.1,24.9,5.7,29.3,8.8
					C138.7,226,134.9,226.1,131,226.2z"/>
				
					<linearGradient id="XMLID_148_" gradientUnits="userSpaceOnUse" x1="118.1749" y1="229.8163" x2="114.9662" y2="238.1753" gradientTransform="matrix(0.9974 7.199606e-002 -7.199606e-002 0.9974 16.575 -16.9086)">
					<stop  offset="0" style="stop-color:#FFFFFF"/>
					<stop  offset="5.476443e-002" style="stop-color:#FFFFFF;stop-opacity:0.9452"/>
					<stop  offset="1" style="stop-color:#FFFFFF;stop-opacity:0"/>
				</linearGradient>
				<path id="XMLID_110_" class="st31" d="M130.3,226.6l-8.4,4c0,0-19.8-3.3-18.3-11.5L130.3,226.6z"/>
			</g>
			<g id="Calque_32" class="st2">
				<circle id="XMLID_127_" class="st32" cx="138.7" cy="242.2" r="1.5"/>
				
					<linearGradient id="XMLID_149_" gradientUnits="userSpaceOnUse" x1="139.0267" y1="250.8856" x2="140.1783" y2="250.8856" gradientTransform="matrix(1.0333 -2.396281e-002 -0.1941 1.3238 42.6984 -86.7309)">
					<stop  offset="0" style="stop-color:#FFFFFF"/>
					<stop  offset="1" style="stop-color:#FFFFFF;stop-opacity:0"/>
				</linearGradient>
				<path id="XMLID_126_" class="st33" d="M138.9,241c0.4,0.2-0.4,0.3-0.6,0.9s0.3,1.3-0.1,1.1s-0.6-0.7-0.4-1.3
					C137.9,241.2,138.5,240.9,138.9,241z"/>
				<circle id="XMLID_125_" class="st34" cx="138.7" cy="242.2" r="1.5"/>
			</g>
			<g id="Calque_32_-_copie" class="st2">
				<circle id="XMLID_107_" class="st32" cx="103.2" cy="211.7" r="1.5"/>
				
					<linearGradient id="XMLID_150_" gradientUnits="userSpaceOnUse" x1="100.2905" y1="227.2032" x2="101.4421" y2="227.2032" gradientTransform="matrix(1.0333 -2.396281e-002 -0.1941 1.3238 42.6984 -86.7309)">
					<stop  offset="0" style="stop-color:#FFFFFF"/>
					<stop  offset="1" style="stop-color:#FFFFFF;stop-opacity:0"/>
				</linearGradient>
				<path id="XMLID_104_" class="st35" d="M103.4,210.6c0.4,0.2-0.4,0.3-0.6,0.9c-0.2,0.6,0.3,1.3-0.1,1.1s-0.6-0.7-0.4-1.3
					C102.5,210.8,103,210.4,103.4,210.6z"/>
				<circle id="XMLID_47_" class="st34" cx="103.2" cy="211.7" r="1.5"/>
			</g>
		</g>
		<g id="Calque_19_-_copie_2" class="st0">
			<path id="XMLID_133_" class="st25" d="M90.4,235.2l-1.9-11.4c0,0,1.1-0.2,3-0.5c1.8-0.3,4.4-0.7,7.1-1.2c2.7-0.5,9.2,1.4,8.5-1.4
				c4.7,2.1,10.2,8.9,12,9.7c-1.8-0.8-15.8,2.6-18.5,3.1c-2.7,0.5-5.3,0.9-7.1,1.2C91.5,235,90.4,235.2,90.4,235.2z"/>
			
				<linearGradient id="XMLID_151_" gradientUnits="userSpaceOnUse" x1="71.3552" y1="188.8227" x2="114.0748" y2="188.8227" gradientTransform="matrix(-0.5265 0.3786 -0.329 -0.9346 214.6733 368.4438)">
				<stop  offset="0" style="stop-color:#000000"/>
				<stop  offset="1" style="stop-color:#414042;stop-opacity:0"/>
			</linearGradient>
			<path id="XMLID_132_" class="st36" d="M104,224.6l-15.5-0.9c0,0,1.1-0.2,3-0.5c1.8-0.3,4.4-0.7,7.1-1.2c2.7-0.5,9.2,1.4,8.5-1.4
				c4.7,2.1,10.2,8.9,12,9.7c-1.8-0.8-9.9,1.3-12.6,1.9c-1.5,0.3,5.2-6.5,3.4-6.2S104,224.6,104,224.6z"/>
			<g id="effect_-_copie" class="st2">
				
					<linearGradient id="XMLID_152_" gradientUnits="userSpaceOnUse" x1="123.6382" y1="195.4165" x2="122.4999" y2="200.7719" gradientTransform="matrix(-0.9 0.4359 -0.4359 -0.9 294.9544 351.538)">
					<stop  offset="0" style="stop-color:#FFFFFF"/>
					<stop  offset="1" style="stop-color:#FFFFFF;stop-opacity:0"/>
				</linearGradient>
				<path id="XMLID_138_" class="st37" d="M98,229.7l3.7-4.8c-0.6-0.3-1.7-0.9-3.2-0.8c-2.9,0.1-4.7,2.4-4.9,2.7
					C95,227.7,96.5,228.7,98,229.7z"/>
				
					<linearGradient id="XMLID_153_" gradientUnits="userSpaceOnUse" x1="149.2038" y1="250.3095" x2="147.8578" y2="256.642" gradientTransform="matrix(0.4328 0.9015 -0.9015 0.4328 258.4741 -13.8192)">
					<stop  offset="0" style="stop-color:#FFFFFF"/>
					<stop  offset="1" style="stop-color:#FFFFFF;stop-opacity:0"/>
				</linearGradient>
				<path id="XMLID_137_" class="st38" d="M97.6,230c-1.4-1.1-2.8-2.2-4.1-3.2c-0.1,0.1-2,0.9-2.3,2.9c-0.2,1.4,0.4,2.9,1.5,3.7
					c0.6-0.4,1.1-0.8,1.7-1.2C95.5,231.5,96.6,230.7,97.6,230z"/>
				<polygon id="XMLID_136_" class="st29" points="112.4,226.2 97.9,230.2 92.8,233.4 97.6,230 93.5,226.7 98,229.7 101,225.7 
					98.1,229.8 				"/>
				
					<linearGradient id="XMLID_154_" gradientUnits="userSpaceOnUse" x1="120.0192" y1="194.4336" x2="120.5117" y2="190.9288" gradientTransform="matrix(-0.9 0.4359 -0.4359 -0.9 294.9544 351.538)">
					<stop  offset="0" style="stop-color:#FFFFFF"/>
					<stop  offset="5.476443e-002" style="stop-color:#FFFFFF;stop-opacity:0.9452"/>
					<stop  offset="1" style="stop-color:#FFFFFF;stop-opacity:0"/>
				</linearGradient>
				<path id="XMLID_135_" class="st39" d="M97.9,230.2l14.3-4c-1,1.1-2.3,2.3-3.9,3.4c-6.1,4.2-12.8,3.9-15.6,3.7
					C94.5,232.3,96.2,231.3,97.9,230.2z"/>
				
					<linearGradient id="XMLID_155_" gradientUnits="userSpaceOnUse" x1="117.3975" y1="192.743" x2="115.7159" y2="197.1238" gradientTransform="matrix(-0.9 0.4359 -0.4359 -0.9 294.9544 351.538)">
					<stop  offset="0" style="stop-color:#FFFFFF"/>
					<stop  offset="5.476443e-002" style="stop-color:#FFFFFF;stop-opacity:0.9452"/>
					<stop  offset="1" style="stop-color:#FFFFFF;stop-opacity:0"/>
				</linearGradient>
				<path id="XMLID_134_" class="st40" d="M98.1,229.8l2.8-4c0,0,9.8-3.7,11.3,0.4L98.1,229.8z"/>
			</g>
			<g id="Calque_32_-_copie_2_1_" class="st2">
				<circle id="XMLID_146_" class="st32" cx="90.3" cy="225" r="0.8"/>
				
					<linearGradient id="XMLID_156_" gradientUnits="userSpaceOnUse" x1="125.0216" y1="215.0226" x2="125.6251" y2="215.0226" gradientTransform="matrix(-0.8832 0.5369 -0.4931 -1.2437 307.2013 425.0743)">
					<stop  offset="0" style="stop-color:#FFFFFF"/>
					<stop  offset="1" style="stop-color:#FFFFFF;stop-opacity:0"/>
				</linearGradient>
				<path id="XMLID_145_" class="st41" d="M90.5,225.6c-0.2,0,0.1-0.3,0-0.6c-0.1-0.3-0.5-0.5-0.2-0.6c0.2,0,0.5,0.2,0.5,0.5
					C90.8,225.2,90.7,225.5,90.5,225.6z"/>
				<circle id="XMLID_144_" class="st34" cx="90.3" cy="225" r="0.8"/>
			</g>
			<g id="Calque_32_-_copie_2" class="st2">
				<circle id="XMLID_130_" class="st32" cx="114.3" cy="229.5" r="0.8"/>
				
					<linearGradient id="XMLID_157_" gradientUnits="userSpaceOnUse" x1="104.7205" y1="202.611" x2="105.3241" y2="202.611" gradientTransform="matrix(-0.8832 0.5369 -0.4931 -1.2437 307.2013 425.0743)">
					<stop  offset="0" style="stop-color:#FFFFFF"/>
					<stop  offset="1" style="stop-color:#FFFFFF;stop-opacity:0"/>
				</linearGradient>
				<path id="XMLID_129_" class="st42" d="M114.5,230.1c-0.2,0,0.1-0.3,0-0.6c-0.1-0.3-0.5-0.5-0.2-0.6s0.5,0.2,0.5,0.5
					C114.9,229.8,114.8,230,114.5,230.1z"/>
				<circle id="XMLID_128_" class="st34" cx="114.3" cy="229.5" r="0.8"/>
			</g>
		</g>
		<g id="Calque_21">
			<circle id="XMLID_52_" class="st43" cx="87.3" cy="41" r="11.3"/>
			<circle id="XMLID_108_" class="st44" cx="87.3" cy="41" r="9.3"/>
			<rect id="XMLID_53_" x="86" y="27.7" class="st43" width="2.7" height="26.5"/>
			
				<rect id="XMLID_56_" x="86" y="27.7" transform="matrix(0.7071 -0.7071 0.7071 0.7071 -3.412 73.7626)" class="st43" width="2.7" height="26.5"/>
			<rect id="XMLID_54_" x="74.1" y="39.7" class="st43" width="26.5" height="2.7"/>
			
				<rect id="XMLID_55_" x="86" y="27.7" transform="matrix(-0.7071 -0.7071 0.7071 -0.7071 120.0959 131.7454)" class="st43" width="2.7" height="26.5"/>
			<circle id="XMLID_57_" class="st43" cx="87.3" cy="41" r="8.2"/>
			<path id="XMLID_58_" class="st45" d="M84.6,46.4c0,0,1.4-4.6,1.5-4.7c0.1-0.1-0.7-3.6-0.7-3.6s1.2,3.3,1.3,3.4s5.4,1.8,5.4,1.8
				l-5.7-1.4L84.6,46.4z"/>
			<linearGradient id="XMLID_158_" gradientUnits="userSpaceOnUse" x1="89.5079" y1="44.1002" x2="89.5079" y2="33.2597">
				<stop  offset="0" style="stop-color:#FFFFFF"/>
				<stop  offset="1" style="stop-color:#FFFFFF;stop-opacity:0"/>
			</linearGradient>
			<path id="XMLID_105_" class="st46" d="M86.7,41.5L83.9,34c0,0,3.5-1.8,7.1,0.1c2.5,1.3,3.8,3.3,4,6c0.1,0.6,0.1,1.3,0,2
				c-0.1,0.6-0.4,1.3-0.5,2L86.7,41.5z"/>
			<linearGradient id="XMLID_159_" gradientUnits="userSpaceOnUse" x1="79.664" y1="41.0978" x2="85.8125" y2="41.0978">
				<stop  offset="0" style="stop-color:#FFFFFF"/>
				<stop  offset="1" style="stop-color:#FFFFFF;stop-opacity:0"/>
			</linearGradient>
			<path id="XMLID_106_" class="st47" d="M85.8,42l-1.6,5.8c0,0-3.1-0.7-4.1-4.6c-0.7-2.7-0.4-4.3,0.8-6.5c0.3-0.6,1.8-1.9,2.4-2.3
				c0.5-0.4,2.2,3.8,2.2,3.8L85.8,42z"/>
		</g>
		<g id="Calque_21_-_copie">
			<circle id="XMLID_68_" class="st43" cx="254.7" cy="100.7" r="11.3"/>
			<circle id="XMLID_67_" class="st44" cx="254.7" cy="100.7" r="9.3"/>
			
				<rect id="XMLID_65_" x="253.3" y="87.4" transform="matrix(0.8428 0.5382 -0.5382 0.8428 94.218 -121.2458)" class="st43" width="2.7" height="26.5"/>
			
				<rect id="XMLID_64_" x="253.3" y="87.4" transform="matrix(0.9765 -0.2154 0.2154 0.9765 -15.7034 57.2052)" class="st43" width="2.7" height="26.5"/>
			
				<rect id="XMLID_63_" x="253.3" y="87.4" transform="matrix(0.5382 -0.8428 0.8428 0.5382 32.7542 261.1153)" class="st43" width="2.7" height="26.5"/>
			
				<rect id="XMLID_62_" x="253.3" y="87.4" transform="matrix(-0.2154 -0.9765 0.9765 -0.2154 211.2052 371.0367)" class="st43" width="2.7" height="26.5"/>
			<circle id="XMLID_61_" class="st43" cx="254.7" cy="100.7" r="8.2"/>
			<path id="XMLID_60_" class="st45" d="M249.5,103.7c0,0,3.7-3.1,3.8-3.1s1.4-3.4,1.4-3.4s-0.8,3.4-0.7,3.5c0,0.2,3.6,4.5,3.6,4.5
				l-4.1-4.3L249.5,103.7z"/>
			
				<linearGradient id="XMLID_160_" gradientUnits="userSpaceOnUse" x1="256.8412" y1="103.7668" x2="256.8412" y2="92.9264" gradientTransform="matrix(0.8428 0.5382 -0.5382 0.8428 94.218 -121.2458)">
				<stop  offset="0" style="stop-color:#FFFFFF"/>
				<stop  offset="1" style="stop-color:#FFFFFF;stop-opacity:0"/>
			</linearGradient>
			<path id="XMLID_59_" class="st48" d="M253.9,100.8l1.7-7.8c0,0,3.9,0.3,5.9,3.9c1.4,2.4,1.4,4.9,0.2,7.2
				c-0.3,0.6-0.6,1.2-1.1,1.7c-0.4,0.5-1.1,0.8-1.5,1.4L253.9,100.8z"/>
			
				<linearGradient id="XMLID_161_" gradientUnits="userSpaceOnUse" x1="246.9973" y1="100.7645" x2="253.1458" y2="100.7645" gradientTransform="matrix(0.8428 0.5382 -0.5382 0.8428 94.218 -121.2458)">
				<stop  offset="0" style="stop-color:#FFFFFF"/>
				<stop  offset="1" style="stop-color:#FFFFFF;stop-opacity:0"/>
			</linearGradient>
			<path id="XMLID_48_" class="st49" d="M252.9,100.7l-4.5,4.1c0,0-2.2-2.2-1-6.1c0.8-2.6,2-3.8,4.2-5c0.6-0.3,2.6-0.6,3.3-0.6
				c0.7,0-0.2,4.3-0.2,4.3L252.9,100.7z"/>
		</g>
		<g id="Calque_21_-_copie_2">
			<circle id="XMLID_117_" class="st43" cx="233.6" cy="197" r="11.3"/>
			<circle id="XMLID_116_" class="st44" cx="233.6" cy="197" r="9.3"/>
			
				<rect id="XMLID_115_" x="232.3" y="183.7" transform="matrix(0.5882 0.8087 -0.8087 0.5882 255.4774 -107.8064)" class="st43" width="2.7" height="26.5"/>
			
				<rect id="XMLID_114_" x="232.3" y="183.7" transform="matrix(0.9878 0.1559 -0.1559 0.9878 33.5654 -34.0121)" class="st43" width="2.7" height="26.5"/>
			
				<rect id="XMLID_113_" x="232.3" y="183.7" transform="matrix(0.8087 -0.5882 0.5882 0.8087 -71.1697 175.0837)" class="st43" width="2.7" height="26.5"/>
			
				<rect id="XMLID_73_" x="232.3" y="183.7" transform="matrix(0.1559 -0.9878 0.9878 0.1559 2.6245 396.9957)" class="st43" width="2.7" height="26.5"/>
			<circle id="XMLID_72_" class="st43" cx="233.6" cy="197" r="8.2"/>
			<path id="XMLID_71_" class="st45" d="M227.6,197.9c0,0,4.5-1.5,4.7-1.5s2.5-2.6,2.5-2.6s-2,2.9-2,3c0,0.2,1.7,5.5,1.7,5.5
				l-2.2-5.5L227.6,197.9z"/>
			
				<linearGradient id="XMLID_162_" gradientUnits="userSpaceOnUse" x1="290.9154" y1="196.2635" x2="290.9154" y2="185.423" gradientTransform="matrix(0.5882 0.8087 -0.8087 0.5882 219.97 -150.1654)">
				<stop  offset="0" style="stop-color:#FFFFFF"/>
				<stop  offset="1" style="stop-color:#FFFFFF;stop-opacity:0"/>
			</linearGradient>
			<path id="XMLID_70_" class="st50" d="M232.8,196.8l4.4-6.7c0,0,3.5,1.7,4.1,5.8c0.4,2.8-0.5,5-2.5,6.8c-0.5,0.4-1,0.9-1.6,1.2
				c-0.6,0.3-1.3,0.4-1.9,0.7L232.8,196.8z"/>
			
				<linearGradient id="XMLID_163_" gradientUnits="userSpaceOnUse" x1="281.0715" y1="193.2611" x2="287.22" y2="193.2611" gradientTransform="matrix(0.5882 0.8087 -0.8087 0.5882 219.97 -150.1654)">
				<stop  offset="0" style="stop-color:#FFFFFF"/>
				<stop  offset="1" style="stop-color:#FFFFFF;stop-opacity:0"/>
			</linearGradient>
			<path id="XMLID_69_" class="st51" d="M231.9,196.3l-5.7,2.1c0,0-1.3-2.9,1.3-6.1c1.7-2.2,3.2-2.9,5.7-3.1
				c0.6-0.1,2.6,0.4,3.3,0.6c0.6,0.2-1.8,4-1.8,4L231.9,196.3z"/>
		</g>
		<g id="Calque_24">
			<path id="XMLID_66_" class="st52" d="M122.5,189.9c0,0-1.9-1-5-2.6c-1.6-0.8-3.5-1.8-5.6-2.8c-8.6-3.2-16.9-2.4-25.7-3.2
				c-13.4-1.7-16.8-16.3-26.7-23.5c-2.9-2-5.7-13.5-5.7-13.5l6.5-0.8c0,0-0.4,5.5,2.6,7.4c3.3,1.8,5.6,4.4,7.9,7
				c5.4,7.7,11.7,16.6,21.7,16.6c7.7,0.3,15.7,0,22.7,3.4c2.2,1,4,2,5.6,2.8c3.1,1.6,5,2.6,5,2.6L122.5,189.9z"/>
			<path id="XMLID_77_" class="st53" d="M115.2,177.9c-7-3.4-15-3.2-22.7-3.4c-10,0-16.3-8.9-21.7-16.6c-2.3-2.6-4.6-5.1-7.9-7
				c-3-1.8-2.6-7.4-2.6-7.4l-3.8,0.4c1,3.6,4.6,7.9,6.5,9.2c9.9,7.2,13.4,22.2,26.8,23.9c8.8,0.9,15.1,1.4,23.7,4.6
				c2.2,1,3.3,2.2,4.9,3c3.1,1.6,5.1,3.2,5.1,3.2l2.3-4.7c0,0-1.9-1-5-2.6C119.2,179.9,117.3,179,115.2,177.9z"/>
			<linearGradient id="XMLID_164_" gradientUnits="userSpaceOnUse" x1="56.6118" y1="153.3112" x2="64.125" y2="153.3112">
				<stop  offset="0" style="stop-color:#FFFFFF"/>
				<stop  offset="1" style="stop-color:#FFFFFF;stop-opacity:0"/>
			</linearGradient>
			<path id="XMLID_119_" class="st54" d="M60.9,149.5c-0.4,0.3-0.9,0.8-1.6,1.1c-1.1,0.5-2.1,0.6-2.7,0.7c0.2,1,0.5,2.5,1.5,4.1
				c0.7,1.2,1,1.7,1.6,1.8c1.9,0.3,4.4-4.9,4.4-4.9l0,0C64.1,152.2,61.6,151.4,60.9,149.5z"/>
			
				<linearGradient id="XMLID_165_" gradientUnits="userSpaceOnUse" x1="78.4489" y1="177.7075" x2="88.9746" y2="177.7075" gradientTransform="matrix(0.9558 -0.294 0.294 0.9558 -48.0004 32.0478)">
				<stop  offset="0" style="stop-color:#FFFFFF"/>
				<stop  offset="1" style="stop-color:#FFFFFF;stop-opacity:0"/>
			</linearGradient>
			<path id="XMLID_121_" class="st55" d="M84.3,173c-0.4,0.7-1.1,1.8-2.2,2.9c-1.2,1.1-2.4,1.7-3.2,2c0.7,0.5,1.8,1.2,3.2,1.8
				c2.2,0.9,4.2,1.7,5.5,0.8c1.4-0.9,1.9-3.2,1.3-5.7C89,174.7,86.1,174.2,84.3,173z"/>
			
				<linearGradient id="XMLID_166_" gradientUnits="userSpaceOnUse" x1="99.6663" y1="187.4114" x2="110.0777" y2="187.4114" gradientTransform="matrix(-0.8678 0.4969 -0.4969 -0.8678 290.6377 290.5685)">
				<stop  offset="0" style="stop-color:#FFFFFF"/>
				<stop  offset="1" style="stop-color:#FFFFFF;stop-opacity:0"/>
			</linearGradient>
			<path id="XMLID_122_" class="st56" d="M109.9,183.3c0-0.9,0-2,0.2-3.3c0.1-1.2,0.4-2.2,0.6-3.1c-4.5-1.7-6.4-1.1-7.2-0.3
				c-1.1,0.9-2,5.1-2,5.1S107.7,182.5,109.9,183.3z"/>
		</g>
		<g id="Calque_24_-_copie">
			<path id="XMLID_124_" class="st52" d="M181.7,14.5c0,0,1.2,1.7,3.3,4.6c1,1.4,2.3,3.1,3.8,5c6.2,6.7,14,9.7,21.5,14.4
				c11.2,7.6,7.7,22.1,13.3,33c1.7,3.1-1,14.6-1,14.6l-6.1-2.3c0,0,2.9-4.8,1-7.8c-2.1-3.1-3-6.4-3.9-9.7c-1.4-9.3-3-20-11.9-24.5
				c-6.7-3.7-14-7.1-18.8-13.3c-1.5-1.9-2.7-3.6-3.7-5c-2.1-2.9-3.3-4.6-3.3-4.6L181.7,14.5z"/>
			<path id="XMLID_123_" class="st53" d="M182.9,28.5c4.7,6.2,12,9.6,18.8,13.3c8.9,4.5,10.5,15.2,11.9,24.5
				c0.9,3.3,1.8,6.6,3.9,9.7c1.9,3-1,7.8-1,7.8l3.6,1.3c0.7-3.7-0.5-9.1-1.6-11.2c-5.6-10.9-2-25.8-13.2-33.4
				c-7.5-4.7-12.9-8-19.1-14.8c-1.5-1.9-1.9-3.5-3-4.9c-2.1-2.9-3.1-5.2-3.1-5.2l-4.2,3.1c0,0,1.2,1.7,3.3,4.6
				C180.1,24.9,181.4,26.6,182.9,28.5z"/>
			
				<linearGradient id="XMLID_167_" gradientUnits="userSpaceOnUse" x1="185.2241" y1="52.9896" x2="192.7373" y2="52.9896" gradientTransform="matrix(-0.893 -0.45 0.45 -0.893 365.6297 207.5176)">
				<stop  offset="0" style="stop-color:#FFFFFF"/>
				<stop  offset="1" style="stop-color:#FFFFFF;stop-opacity:0"/>
			</linearGradient>
			<path id="XMLID_120_" class="st57" d="M218.5,78.3c0.5-0.1,1.1-0.3,1.9-0.3c1.2,0,2.2,0.4,2.7,0.6c0.3-0.9,0.6-2.4,0.5-4.3
				c-0.1-1.3-0.1-2-0.6-2.4c-1.6-1.1-6.2,2.4-6.2,2.4l0,0C216.9,74.5,218.7,76.3,218.5,78.3z"/>
			
				<linearGradient id="XMLID_168_" gradientUnits="userSpaceOnUse" x1="230.8727" y1="119.6342" x2="241.3984" y2="119.6342" gradientTransform="matrix(-0.9859 -0.1676 0.1676 -0.9859 422.9172 200.5005)">
				<stop  offset="0" style="stop-color:#FFFFFF"/>
				<stop  offset="1" style="stop-color:#FFFFFF;stop-opacity:0"/>
			</linearGradient>
			<path id="XMLID_76_" class="st58" d="M208.2,46.8c0.7-0.5,1.8-1.1,3.3-1.6c1.6-0.4,2.9-0.4,3.8-0.4c-0.4-0.8-1.1-1.9-2.1-3
				c-1.5-1.7-3-3.4-4.6-3.2c-1.6,0.2-3.1,2.1-3.7,4.6C204.8,43.2,207.1,45,208.2,46.8z"/>
			
				<linearGradient id="XMLID_169_" gradientUnits="userSpaceOnUse" x1="-61.7932" y1="210.5714" x2="-51.3817" y2="210.5714" gradientTransform="matrix(0.9986 -5.314531e-002 5.314531e-002 0.9986 236.8534 -182.7605)">
				<stop  offset="0" style="stop-color:#FFFFFF"/>
				<stop  offset="1" style="stop-color:#FFFFFF;stop-opacity:0"/>
			</linearGradient>
			<path id="XMLID_75_" class="st59" d="M189.9,26.1c-0.4,0.9-0.9,1.8-1.6,2.8c-0.7,1-1.3,1.8-2,2.5c3.3,3.6,5.2,3.8,6.3,3.5
				c1.4-0.4,4.1-3.7,4.1-3.7S191.6,27.8,189.9,26.1z"/>
		</g>
	</g>
</g>
</svg>
