<?xml version="1.0" encoding="utf-8"?>
<!-- Generator: Adobe Illustrator 19.0.0, SVG Export Plug-In . SVG Version: 6.00 Build 0)  -->
<svg version="1.0" id="圖層_1" xmlns="http://www.w3.org/2000/svg" xmlns:xlink="http://www.w3.org/1999/xlink" x="0px" y="0px" width="300px" height="260px"
	 viewBox="0 0 300 260" style="enable-background:new 0 0 300 260;" xml:space="preserve">
<style type="text/css">
	.st0{fill:#414042;}
	.st1{fill:url(#XMLID_2_);}
	.st2{opacity:0.5;fill:#605139;}
	.st3{opacity:0.5;fill:url(#XMLID_3_);fill-opacity:0.55;}
</style>
<g id="cannon">
	<g id="tureel">
		<g id="XMLID_341_">
			<path id="XMLID_81_" class="st0" d="M171.3,159.3c-1.5,0.3-5.4,0.6-8.7,0.5l-26.1-0.1c-3.3,0-7.2-0.3-8.7-0.6s-6.2-4.6-8.3-7.1
				l-10.7-12.6c-2.1-2.5-4.3-5.5-4.9-6.7c-0.5-1.2,1.2-6.7,2.6-9.7l4.2-8.9c1.4-3,3.6-6.4,4.8-7.7c1.2-1.2,8.6-2.3,11.9-2.3h44.8
				c3.3,0,7.5,0.4,9.4,0.9s5.8,6.2,7.2,9.2l4.1,9c1.4,3,2.6,6.5,2.7,7.7c0.2,1.2-3,6.1-5.2,8.6l-10.8,12.5
				C177.5,154.7,172.8,158.9,171.3,159.3z"/>
		</g>
		<g id="XMLID_6_">
			
				<radialGradient id="XMLID_2_" cx="149.7776" cy="-16254.0127" r="34.7097" gradientTransform="matrix(1 0 0 -1 0 -16122)" gradientUnits="userSpaceOnUse">
				<stop  offset="0" style="stop-color:#9F8E6A"/>
				<stop  offset="1" style="stop-color:#C5B798"/>
			</radialGradient>
			<path id="XMLID_146_" class="st1" d="M169.5,156.9c-1.4,0.3-5.2,0.5-8.5,0.5l-22.8-0.1c-3.3,0-7.1-0.3-8.5-0.5
				c-1.4-0.3-5.8-4.3-7.9-6.9l-9.1-10.7c-2.1-2.5-4.3-5.5-4.8-6.5c-0.5-1.1,1.2-6.4,2.6-9.3l3.4-7.2c1.4-3,3.5-6.3,4.6-7.5
				c1.1-1.1,8.1-2.1,11.4-2.1h39.9c3.3,0,7.4,0.4,9.1,0.8c1.7,0.5,5.4,5.9,6.8,8.9l3.3,7.3c1.4,3,2.6,6.4,2.7,7.5s-2.9,5.8-5.1,8.3
				l-9.2,10.7C175.3,152.6,170.9,156.6,169.5,156.9z"/>
		</g>
		<g id="Calque_33">
			<path id="XMLID_33_" class="st2" d="M163.6,114.7c2.1-1.6,4.8-2.1,7.2-3.1c2.4-0.9,4.9-2.5,5.5-5c-0.2,0-0.3,0-0.5,0h-12.7
				c-0.1,0.2-0.3,0.4-0.5,0.6c-3.8,3.4-9.5,3.3-14.6,3.5c-5.1,0.3-11.1,2-12.7,6.9c-0.7,2.3-0.7,5.4-3,6.2c-0.6,0.2-1.4,0.2-2,0.3
				c-3.6,0.7-4.4,5.9-2.2,8.8c2.2,2.9,6,4,9.5,4.8c3.5,0.9,7.3,1.8,9.6,4.6c2.9,3.5,2.4,8.5,2.5,13.1c0,0.6,0,1.3,0.1,1.9l16.4,0
				c3.2-4.2,4.6-9.8,3.3-15c-0.8-3.3-2.5-7.2-0.1-9.7c0.5-0.6,1.2-0.9,1.7-1.5c1.7-1.7,1.5-5-0.5-6.5c-2.5-1.9-6.6-0.8-8.6-3.2
				C160.3,119.6,161.5,116.3,163.6,114.7z"/>
		</g>
		<radialGradient id="XMLID_3_" cx="149.7865" cy="142.4468" r="29.3241" gradientUnits="userSpaceOnUse">
			<stop  offset="1.076729e-007" style="stop-color:#FFFFFF;stop-opacity:0"/>
			<stop  offset="0.6364" style="stop-color:#FFFFFF;stop-opacity:0.6512"/>
			<stop  offset="1" style="stop-color:#FFFFFF;stop-opacity:0.95"/>
		</radialGradient>
		<path id="XMLID_210_" class="st3" d="M111.9,133.4l14.7,19c1.9,2.5,5.2,4,8.6,4.1l29,0.1c3.5,0,6.7-1.5,8.6-4l14.8-18.9
			c0.5-0.6,0.8-1.3,1-1.9c0.5-1.7-1-3.4-3.1-3.4l-30,11.8c-3.9,1.5-8.1,1.5-12,0l-29.7-11.7c-2.1,0-3.7,1.8-3,3.5
			C111.2,132.3,111.5,132.9,111.9,133.4z"/>
	</g>
</g>
</svg>
