<?xml version="1.0" encoding="utf-8"?>
<!-- Generator: Adobe Illustrator 19.0.0, SVG Export Plug-In . SVG Version: 6.00 Build 0)  -->
<svg version="1.0" id="blue" xmlns="http://www.w3.org/2000/svg" xmlns:xlink="http://www.w3.org/1999/xlink" x="0px" y="0px" width="300px" height="260px"
	 viewBox="0 0 300 260" style="enable-background:new 0 0 300 260;" xml:space="preserve">
<style type="text/css">
	.st0{fill:url(#XMLID_2_);}
	.st1{opacity:0.25;fill:url(#XMLID_3_);}
	.st2{opacity:0.25;fill:url(#XMLID_4_);}
	.st3{opacity:0.25;fill:url(#XMLID_5_);}
	.st4{opacity:0.25;fill:url(#XMLID_6_);}
	.st5{opacity:0.25;fill:url(#XMLID_8_);}
	.st6{opacity:0.25;fill:url(#XMLID_10_);}
</style>
<g id="XMLID_7_">
	<radialGradient id="XMLID_2_" cx="150" cy="130" r="111.296" gradientUnits="userSpaceOnUse">
		<stop  offset="0.866" style="stop-color:#C5B798;stop-opacity:0"/>
		<stop  offset="0.8867" style="stop-color:#C8BA95;stop-opacity:0.1543"/>
		<stop  offset="0.9138" style="stop-color:#D1C18D;stop-opacity:0.3568"/>
		<stop  offset="0.9446" style="stop-color:#DFCE7D;stop-opacity:0.5862"/>
		<stop  offset="0.9777" style="stop-color:#F3E05D;stop-opacity:0.8334"/>
		<stop  offset="1" style="stop-color:#FFF333"/>
	</radialGradient>
	<path id="XMLID_9_" class="st0" d="M198.7,233l-97.6-0.2c-7.6,0-14.7-4-18.5-10.4l-48.7-82.2c-3.8-6.5-3.8-14.4,0-20.8l48.9-82.2
		C86.6,30.9,93.7,27,101.3,27l97.6,0.2c7.6,0,14.7,4,18.5,10.4l48.7,82.2c3.8,6.5,3.8,14.4,0,20.8l-48.9,82.2
		C213.4,229,206.3,233,198.7,233z"/>
</g>
<radialGradient id="XMLID_3_" cx="263.2473" cy="129.6776" r="6.5169" gradientUnits="userSpaceOnUse">
	<stop  offset="0.1724" style="stop-color:#FFFFFF"/>
	<stop  offset="0.4101" style="stop-color:#FFE7BC"/>
	<stop  offset="0.6969" style="stop-color:#FFD17A"/>
	<stop  offset="0.9005" style="stop-color:#FEC44C"/>
	<stop  offset="1" style="stop-color:#FDBF37"/>
</radialGradient>
<path id="XMLID_40_" class="st1" d="M267.5,122.5c-5.6,0.4-10,3.5-10,7.2c0,3.8,4.5,6.9,10.3,7.2
	C269.5,132.2,269.4,127.1,267.5,122.5z"/>
<radialGradient id="XMLID_4_" cx="206.6044" cy="223.976" r="6.5169" gradientTransform="matrix(0.4752 0.8799 -0.8799 0.4752 306.0245 -63.2937)" gradientUnits="userSpaceOnUse">
	<stop  offset="0.1724" style="stop-color:#FFFFFF"/>
	<stop  offset="0.4101" style="stop-color:#FFE7BC"/>
	<stop  offset="0.6969" style="stop-color:#FFD17A"/>
	<stop  offset="0.9005" style="stop-color:#FEC44C"/>
	<stop  offset="1" style="stop-color:#FDBF37"/>
</radialGradient>
<path id="XMLID_37_" class="st2" d="M215.5,225.3c-3.1-4.8-7.8-7.2-11.1-5.4c-3.3,1.8-3.9,7.3-1.4,12.5
	C207.9,231.6,212.3,229.1,215.5,225.3z"/>
<radialGradient id="XMLID_5_" cx="156.5639" cy="321.9272" r="6.5169" gradientTransform="matrix(-0.5842 0.8116 -0.8116 -0.5842 445.1171 285.4608)" gradientUnits="userSpaceOnUse">
	<stop  offset="0.1724" style="stop-color:#FFFFFF"/>
	<stop  offset="0.4101" style="stop-color:#FFE7BC"/>
	<stop  offset="0.6969" style="stop-color:#FFD17A"/>
	<stop  offset="0.9005" style="stop-color:#FEC44C"/>
	<stop  offset="1" style="stop-color:#FDBF37"/>
</radialGradient>
<path id="XMLID_38_" class="st3" d="M95.7,232.1c3-4.8,3-10.2,0-12.3c-3.1-2.2-8.2-0.3-11.9,4.2C86.7,228,90.9,230.9,95.7,232.1z"/>
<radialGradient id="XMLID_6_" cx="122.2821" cy="414.0732" r="6.5169" gradientTransform="matrix(-0.9999 1.585607e-002 -1.585607e-002 -0.9999 165.587 542.6464)" gradientUnits="userSpaceOnUse">
	<stop  offset="0.1724" style="stop-color:#FFFFFF"/>
	<stop  offset="0.4101" style="stop-color:#FFE7BC"/>
	<stop  offset="0.6969" style="stop-color:#FFD17A"/>
	<stop  offset="0.9005" style="stop-color:#FEC44C"/>
	<stop  offset="1" style="stop-color:#FDBF37"/>
</radialGradient>
<path id="XMLID_39_" class="st4" d="M32.6,137.8c5.6-0.5,10-3.6,9.9-7.4c-0.1-3.8-4.6-6.8-10.4-7.1
	C30.5,128.1,30.7,133.2,32.6,137.8z"/>
<radialGradient id="XMLID_8_" cx="66.6139" cy="502.6546" r="6.5169" gradientTransform="matrix(-0.4398 -0.8981 0.8981 -0.4398 -328.2608 315.3598)" gradientUnits="userSpaceOnUse">
	<stop  offset="0.1724" style="stop-color:#FFFFFF"/>
	<stop  offset="0.4101" style="stop-color:#FFE7BC"/>
	<stop  offset="0.6969" style="stop-color:#FFD17A"/>
	<stop  offset="0.9005" style="stop-color:#FEC44C"/>
	<stop  offset="1" style="stop-color:#FDBF37"/>
</radialGradient>
<path id="XMLID_42_" class="st5" d="M85.5,33.8c2.9,4.9,7.5,7.5,10.9,5.8c3.4-1.7,4.2-7.1,1.9-12.5C93.4,27.8,88.9,30.1,85.5,33.8z"
	/>
<radialGradient id="XMLID_10_" cx="19.0767" cy="600.4573" r="6.5169" gradientTransform="matrix(0.4594 -0.8882 0.8882 0.4594 -336.1464 -224.3875)" gradientUnits="userSpaceOnUse">
	<stop  offset="0.1724" style="stop-color:#FFFFFF"/>
	<stop  offset="0.4101" style="stop-color:#FFE7BC"/>
	<stop  offset="0.6969" style="stop-color:#FFD17A"/>
	<stop  offset="0.9005" style="stop-color:#FEC44C"/>
	<stop  offset="1" style="stop-color:#FDBF37"/>
</radialGradient>
<path id="XMLID_44_" class="st6" d="M201.5,27.4c-2.2,5.2-1.5,10.5,1.8,12.2c3.4,1.7,8.2-0.9,11.2-5.9
	C211.1,30.1,206.5,27.9,201.5,27.4z"/>
</svg>
