<?xml version="1.0" encoding="utf-8"?>
<!-- Generator: Adobe Illustrator 19.0.0, SVG Export Plug-In . SVG Version: 6.00 Build 0)  -->
<svg version="1.0" id="Calque_1" xmlns="http://www.w3.org/2000/svg" xmlns:xlink="http://www.w3.org/1999/xlink" x="0px" y="0px" width="300px" height="260px"
	 viewBox="0 21 300 260" style="enable-background:new 0 21 300 260;" xml:space="preserve">
<style type="text/css">
	.st0{fill:#FBF7CB;}
	.st1{fill:#F3EAB1;}
	.st2{fill:#E0C17D;}
	.st3{fill:#FFFAD9;}
	.st4{fill:#F7F0D0;}
	.st5{fill:#FFFADA;}
</style>
<g id="fireDust4">
	<g id="base_-_copie_3">
		<path id="XMLID_70_" class="st0" d="M120.9,167c0,0-10-3.4-9.3-16.4c0.3-3.8,5.9-9.2,8-8.7c0,0-1.8-1.9-0.9-4.5s3.1-3.5,4.5-3.2
			c0,0-4.5-5.7-0.1-7.9s11.2,0.7,9,5.4c0,0,1.9-2.3,6.6-1.3c0,0-5.9-2.4-2.4-7.6c3.5-5.2,12.8-1.4,12.8-1.4s3.2-5,8.2-3.5
			c3.6,1.1,3.6,4.6,3.6,4.6s3.8,0,3.2,2.9c0,0,4.9-0.9,7.4,0.9c2.5,1.8,3,7.8,3,7.8s8-1.8,7.4,8.8c-0.6,10.6-1.9,16.9-6.2,16.5
			c0,0,1.8,4.3-4.3,4.8c0,0,6.1,8,0.4,13.5c-5.7,5.5-8.9,5.9-13.3,1.5c0,0-0.5,1.5-2.8,0.6c-2.3-0.8-2-2.6-2-2.6s-0.3,1.4-2.3,0.9
			s-2.2-2.3-2.2-2.3s-0.4,1.5-1.8,1.9s-2.8-0.1-2.8-0.1s-3.3,4.7-9.1,3.6c-5.8-1.1-7.3-7.8-7.3-7.8s-1.9,0.6-5.3-1.9
			C119.7,169.1,120.9,167,120.9,167z"/>
	</g>
	<g id="Calque_26_-_copie_3">
		<g id="XMLID_67_">
			<path id="XMLID_69_" class="st1" d="M175.3,151.1c1.9,2.9-2.5,4.9-2.6,5.2c-0.2,4.3-5.1,3.6-5.1,3.6c1.7,0.9,0.8,3.6,0.8,3.6
				c-1.9,4-7.9,1.1-7.9,1.1c-4.9-5.7,1.6-11.6,1.6-11.6c-0.8-0.3-0.7-1.1-0.7-1.4c-0.5,0.9-3.1,0.3-3.1,0.3c1.4,0.4,0.8,1.8,0.8,1.8
				s-1.4,7.6-6.5,9.1c-5.2,1.5-9-5.5-9-5.5s-0.5,2-2.8,3s-4.1-1.1-4.1-1.1s-0.5,1.4-4.2,0.7c-3.7-0.6-4.3-4.5-4.3-4.5
				s-1.7,0.8-5.3-1.2c-3.7-2.1,1.2-6.1,1.2-6.1c0.9-2.5-1.6-5.5-1.6-5.5c-1.4-0.1-2.4-0.4-3.1-0.7c-2.2-0.1-7.4,5-7.7,8.7
				C111,163.5,121,167,121,167s-1.3,2.1,2.1,4.7c3.4,2.6,5.3,1.9,5.3,1.9s1.5,6.8,7.3,7.8c5.8,1.1,9.1-3.6,9.1-3.6s1.4,0.4,2.8,0.1
				s1.8-1.9,1.8-1.9s0.2,1.8,2.2,2.3s2.3-0.9,2.3-0.9s-0.3,1.7,2,2.6c2.3,0.8,2.8-0.6,2.8-0.6c4.5,4.4,7.7,4,13.3-1.5
				c5.7-5.5-0.4-13.5-0.4-13.5c6-0.5,4.3-4.8,4.3-4.8c4.2,0.4,5.6-5.8,6.2-16.3C180.3,147.2,175.3,151.1,175.3,151.1z"/>
			<path id="XMLID_68_" class="st1" d="M161.5,151.3c0,0,0,0.1-0.1,0.3C161.5,151.5,161.5,151.4,161.5,151.3z"/>
		</g>
	</g>
	<g id="details_-_copie_3">
		<g id="XMLID_56_">
			<path id="XMLID_66_" class="st2" d="M143.2,175.4c0,0-4.2,3.5-8.7,3c-4.5-0.6-4.4-6.9-4.4-6.9s-1.6,0.2-5-1.6
				c-3.4-1.8,1.7-9.5,1.7-9.5c-4.6-1.1-6.1,3.6-6.4,3.5c-8.5-4.5-7.3-14.2-6.5-17.9c-1.2,1.5-2.1,3.2-2.2,4.7
				c-0.7,12.9,9.3,16.4,9.3,16.4s-1.3,2.1,2.1,4.7c3.4,2.6,5.3,1.9,5.3,1.9s1.5,6.8,7.3,7.8c5.8,1.1,9.1-3.6,9.1-3.6
				s0.4,0.1,1.1,0.2l-1.1-0.9c-0.3-0.2-0.5-0.5-0.7-0.7L143.2,175.4z"/>
			<path id="XMLID_57_" class="st2" d="M160.5,180.8c-5.3-3.3-5.2-11.2-5.2-11.2c-2.3,1.8-1.6,7.2-1.6,7.2c-2.8,0.1-4.4-1-4.4-1v0.4
				l0,0c0,0,0.2,1.8,2.2,2.3s2.3-0.9,2.3-0.9s-0.3,1.7,2,2.6c2.3,0.8,2.8-0.6,2.8-0.6c1,1,1.9,1.7,2.8,2.2
				C161.3,181.3,161,181.1,160.5,180.8z"/>
		</g>
		<path id="XMLID_50_" class="st3" d="M144.8,145.1c0,0,1.3,4.5,5.1,3.9c3.7-0.7,4.6-4.1,4.6-4.1s2.7-0.9,1.4-2.8
			c-1.3-1.9-7.3-1.3-7.3-1.3s-7.9-3.4-8.5,1.1C139.4,146.4,144.8,145.1,144.8,145.1z"/>
		<path id="XMLID_49_" class="st4" d="M136.4,172.7c0,0-3.6,0.4-4-2.8c-0.4-3.1,2.9-1.9,2.9-1.9s0.7-1.6,3.5-0.6s2.9,2.3,2.9,2.3
			s2,1.3,0.7,2.8c-1.4,1.5-3.3,1.1-3.3,1.1s-0.7,0.7-1.8,0.2S136.4,172.7,136.4,172.7z"/>
		<path id="XMLID_46_" class="st5" d="M142.3,127.8c0,0-2.6-0.7-1.5-3s4.3-0.4,4.3-0.4s3-0.5,3.8,0.8c0.8,1.4-0.8,2.5-0.8,2.5
			s0.7,2.1-0.9,2.2C145.7,129.9,142.3,129.5,142.3,127.8z"/>
		<path id="XMLID_45_" class="st4" d="M166.5,176c0,0-0.5,2.1-2.7,1.3s-1.2-3.4-1.2-3.4s-0.8-1,0.9-2.5s3.3-0.3,3.3-0.3
			s1.6-0.9,2.1,0.5c0.6,1.4,0,1.8,0,1.8s-0.1,1.4-0.8,2C167.4,176,166.5,176,166.5,176z"/>
	</g>
</g>
</svg>
