<?xml version="1.0" encoding="utf-8"?>
<!-- Generator: Adobe Illustrator 19.0.0, SVG Export Plug-In . SVG Version: 6.00 Build 0)  -->
<svg version="1.0" id="Calque_1" xmlns="http://www.w3.org/2000/svg" xmlns:xlink="http://www.w3.org/1999/xlink" x="0px" y="0px" width="300px" height="260px"
	 viewBox="0 21 300 260" style="enable-background:new 0 21 300 260;" xml:space="preserve">
<style type="text/css">
	.st0{fill:#FBF7CB;}
	.st1{fill:#F3EAB1;}
	.st2{fill:url(#XMLID_2_);}
	.st3{fill:#F47621;}
	.st4{fill:#EFA624;}
	.st5{fill:#FFF48B;}
	.st6{fill:#E0C17D;}
	.st7{fill:#CBB577;}
	.st8{fill:#FFFAD9;}
	.st9{fill:#F7F0D0;}
	.st10{fill:#FFFADA;}
</style>
<g id="fireDust">
	<g id="subBase">
		<path id="XMLID_89_" class="st0" d="M82.8,217.3c0,0-30.9-3.3-37.3-40.9c-1.5-11.2,10.8-30.2,17.2-30.2c0,0-6.5-4.4-5.4-12.2
			c1.1-7.9,6.5-12,10.9-12c0,0-16.7-13.3-5.5-22.5s32.5-5.2,29.5,9.6c0,0,3.9-7.9,18.1-8.1c0,0-18.5-3.1-12-20.3
			s35.8-12.4,35.8-12.4s5.9-16.6,21.4-15.5c11.1,0.9,13.3,10.9,13.3,10.9s10.9-2.4,11.1,6.1c0,0,13.4-5.7,22-2.2
			s13.6,20.5,13.6,20.5s21.8-10.5,27,20.3c5.2,30.7,5.5,49.7-7,51.5c0,0,7.9,11.1-9.2,16.4c0,0,22.7,18.9,10,38.5
			s-21.6,22.7-37.3,13.1c0,0-0.4,4.5-7.6,3.6c-7.2-0.9-7.5-6-7.5-6s0.1,4.2-6,4.2s-7.9-5-7.9-5s-0.1,4.7-4,6.5
			c-3.9,1.9-8.2,1.6-8.2,1.6s-6.4,15.6-23.7,16.2c-17.2,0.7-26-17.8-26-17.8s-5,3.1-16.4-2.1C80.5,224.2,82.8,217.3,82.8,217.3z"/>
	</g>
	<g id="subBaseEffect">
		<path id="XMLID_218_" class="st1" d="M87,212.9c0,0-28.9-3.1-34.8-38.2c-1.4-10.5,10.1-28.2,16-28.2c0,0-6.1-4.1-5-11.4
			c1-7.3,6.1-11.2,10.2-11.2c0,0-15.6-12.4-5.1-21s30.4-4.9,27.5,9c0,0,3.7-7.3,16.9-7.5c0,0-17.3-2.8-11.2-18.9
			c6.1-16.1,33.4-11.6,33.4-11.6s5.5-15.5,19.9-14.5c10.4,0.8,12.4,10.2,12.4,10.2s10.2-2.2,10.4,5.7c0,0,12.5-5.3,20.5-2
			s12.7,19.1,12.7,19.1s20.4-9.8,25.2,18.9s5.1,46.4-6.5,48c0,0,7.3,10.3-8.5,15.3c0,0,21.2,17.6,9.4,36
			c-11.8,18.3-20.2,21.2-34.8,12.2c0,0-0.4,4.2-7.1,3.4c-6.7-0.8-7-5.6-7-5.6s0.1,3.9-5.6,3.9c-5.8,0-7.3-4.7-7.3-4.7
			s-0.1,4.3-3.7,6.1c-3.7,1.8-7.7,1.5-7.7,1.5s-6,14.5-22.1,15.1S110.7,226,110.7,226s-4.7,2.8-15.3-1.9
			C84.9,219.3,87,212.9,87,212.9z"/>
	</g>
	<g id="explosion">
		<g id="Calque_29_-_copie">
			<g id="cool_5_">
				<g id="XMLID_196_">
					
						<radialGradient id="XMLID_2_" cx="152" cy="153.1" r="135.573" gradientTransform="matrix(1 0 0 -1 0 304)" gradientUnits="userSpaceOnUse">
						<stop  offset="0.6568" style="stop-color:#F47621"/>
						<stop  offset="1" style="stop-color:#F15A29"/>
					</radialGradient>
					<path id="XMLID_197_" class="st2" d="M295.9,135.1c-71.2-6.3-87.6-6.8-32.2-29.2c-55.4,22.4-44.8,18.5,0-36.5
						c-66,26-78.2,37.8-45.3-5.4c-32.9,43.2-32.8,31.2-19.4-30.8c-33.3,54.9-40.9,62.7-34.9,8.4c-6,54.3-8.2,45.9-34.9-17.4
						c-4.1,62.6-8.5,76.1-39.2,26.2c30.8,50,11.4,48.3-52,11.1c49.8,51.8,55,62-3,34.8c55.2,26.9,49.4,28.4-21.8,21.1
						c66.5,26.2,75.8,29.5,13.7,25.5C89,147,79.2,155.4,8.1,183.8c71.7-4.1,86.1-6.1,29.2,20.1c56.9-26.2,51-17.8,2.7,33.9
						c62.8-34.4,74.3-42,37.2,2c37.1-44,32.2-33.7,17.8,30.8c42.1-54.1,45.7-64.6,34.5-10.4c11.1-54.2,15.2-43.9,31.5,17.4
						c7.3-64.3,7.7-76.8,24.1-27.8c-16.5-49-9.7-37,40.9,11.7c-22.9-60.9-26-70.7,21.5-31.5c-47.4-39.2-36.3-40.9,31.5-23.5
						c-58.3-37.7-69-45.6-11.7-35.9C210.2,160.9,224.4,157.2,295.9,135.1z M217.6,146.8c-36.3-0.6-38.7,0.9-4.5,11.1
						c-33.9-1.9-32.6,1.3,6.5,15.3c-37.3-13.6-48-12-23,13.9c-26.7-15.2-25.1-8.8,1.5,23.4c-26.6-32.2-28.5-36.3-21.1-5.8
						c-24.9-28.1-27.5-24.2-22.5,10.1c-5-34.3-5.8-38.6-15.4-8.2c-4.3-30-5.4-26.1-15.9,8.2c10.6-34.3,9.5-41.3-11.2-17.4
						c11.6-27.4,4.5-25.5-23.1,0.2c27.6-25.7,28.5-30.7-5-11.9c26.7-20.8,19.8-20.3-20.5-1c40.3-19.3,47.9-23.5,17.1-18.8
						c32.8-15.2,27.5-19.8-8.5-19.4c36-0.3,44,0.2,23.3-10.4c28.2-0.9,23.6-5.3-1.7-20.1c25.3,14.8,36,15.6,29-7.7
						c14.8,14,12.7,3.4,3.5-30.2c9.2,33.6,14.6,39.3,20.8,10.1c3.8,28,5.4,22.9,13.1-11.4c-7.7,34.3-7,37.8,6.2,7.7
						c-8.3,30.8-3.5,30.6,14.4,0.3c-17.9,30.3-23.6,35.5-2,16.8c-12.2,25.2-1.3,24.1,30.8,4.2c-32.2,19.9-32.7,24.5,3.4,10.6
						c-31.7,15.3-27.4,16.6,12.9,3.9c-40.3,12.7-48,14-15.8,9.6C177.3,141,177.8,144.8,217.6,146.8z"/>
				</g>
			</g>
			<polygon id="XMLID_187_" class="st3" points="77.9,186.8 62.2,173.4 88.2,110.4 129.1,73.4 180.6,85.4 218.4,108.8 229.4,145.6 
				208.7,192.8 186.9,211.7 154.3,217.3 114.4,213.6 			"/>
		</g>
		<g id="Calque_22_-_copie_3_1_">
			<g id="cool_4_">
				<g id="XMLID_202_">
					<path id="XMLID_203_" class="st4" d="M260.7,139c-53.8-4.8-66.1-5.1-24.3-22c-41.8,16.9-33.8,14,0-27.6
						c-49.9,19.6-59,28.5-34.2-4c-24.9,32.6-24.7,23.5-14.7-23.3c-25.1,41.5-30.8,47.3-26.3,6.3c-4.5,41-6.2,34.6-26.3-13.2
						c-3.1,47.3-6.4,57.5-29.6,19.7c23.2,37.7,8.6,36.5-39.2,8.4c37.6,39.1,41.5,46.8-2.3,26.3c41.7,20.3,37.3,21.4-16.4,15.9
						c50.2,19.8,57.2,22.3,10.4,19.2c46.8,3.1,39.4,9.4-14.2,30.9c54.1-3.1,65-4.6,22,15.2c42.9-19.8,38.5-13.4,2,25.6
						c47.4-26,56.1-31.7,28.1,1.5c28-33.2,24.3-25.4,13.4,23.3c31.8-40.8,34.5-48.7,26.1-7.8c8.4-40.9,11.5-33.1,23.8,13.2
						c5.5-48.6,5.8-58,18.2-21c-12.4-37-7.3-27.9,30.9,8.9c-17.3-46-19.6-53.4,16.2-23.8c-35.8-29.6-27.4-30.9,23.8-17.7
						c-44-28.4-52.1-34.4-8.9-27.1C195.9,158.5,206.7,155.7,260.7,139z M201.6,147.8c-27.4-0.4-29.2,0.6-3.4,8.4
						c-25.6-1.5-24.6,1,4.9,11.5c-28.1-10.3-36.2-9-17.3,10.5c-20.2-11.5-19-6.6,1.1,17.7c-20.1-24.3-21.5-27.4-15.9-4.4
						c-18.8-21.2-20.7-18.3-17,7.6c-3.8-25.9-4.4-29.1-11.6-6.2c-3.2-22.7-4-19.7-12,6.2c8-25.9,7.1-31.2-8.5-13.2
						c8.7-20.7,3.4-19.3-17.5,0.1c20.8-19.4,21.5-23.2-3.8-9c20.2-15.7,15-15.3-15.4-0.8c30.4-14.6,36.1-17.8,12.9-14.2
						c24.8-11.5,20.7-14.9-6.5-14.7c27.2-0.3,33.2,0.1,17.6-7.8c21.3-0.7,17.8-4-1.3-15.2c19.1,11.2,27.2,11.8,21.9-5.8
						c11.2,10.6,9.6,2.6,2.7-22.8c6.9,25.4,11.1,29.6,15.7,7.6c2.9,21.2,4.1,17.3,9.9-8.6c-5.8,25.9-5.3,28.5,4.7,5.8
						c-6.3,23.2-2.6,23.1,10.9,0.3c-13.5,22.9-17.8,26.8-1.5,12.7c-9.2,19-1,18.2,23.3,3.2c-24.3,15-24.7,18.5,2.5,8
						c-23.9,11.6-20.6,12.5,9.7,2.9c-30.4,9.6-36.3,10.6-11.9,7.2C171.1,143.5,171.5,146.3,201.6,147.8z"/>
				</g>
			</g>
			<polygon id="XMLID_189_" class="st4" points="96.1,178 84.2,167.9 103.8,120.3 134.8,92.4 173.6,101.5 202.1,119.2 210.5,146.9 
				194.8,182.6 178.4,196.8 153.8,201 123.7,198.2 			"/>
		</g>
		<g id="Calque_22_-_copie_3">
			<g id="cool_3_">
				<g id="XMLID_184_">
					<path id="XMLID_185_" class="st5" d="M240.4,141.2c-43.7-3.9-53.8-4.2-19.8-17.9c-34,13.7-27.5,11.4,0-22.4
						c-40.6,16-48,23.2-27.8-3.3c-20.2,26.5-20.1,19.1-11.9-18.9c-20.4,33.7-25.1,38.5-21.4,5.1c-3.7,33.4-5,28.2-21.4-10.7
						c-2.5,38.5-5.2,46.8-24.1,16.1c18.9,30.7,7,29.7-31.9,6.8c30.6,31.8,33.8,38.1-1.9,21.4c33.9,16.5,30.4,17.4-13.4,13
						c40.9,16.1,46.6,18.1,8.4,15.7c38.1,2.5,32.1,7.7-11.5,25.1c44-2.5,52.9-3.7,17.9,12.4c34.9-16.1,31.3-10.9,1.6,20.8
						c38.6-21.1,45.6-25.8,22.9,1.2c22.8-27,19.8-20.7,10.9,18.9c25.9-33.2,28.1-39.7,21.2-6.4c6.8-33.3,9.3-26.9,19.4,10.7
						c4.5-39.5,4.7-47.2,14.8-17.1c-10.1-30.1-6-22.7,25.1,7.2c-14.1-37.4-15.9-43.4,13.2-19.4c-29.1-24.1-22.3-25.1,19.4-14.4
						c-35.8-23.1-42.4-28-7.2-22C187.8,157.1,196.5,154.8,240.4,141.2z M192.3,148.4c-22.3-0.4-23.8,0.5-2.8,6.8
						c-20.8-1.2-20,0.8,4,9.4c-22.9-8.4-29.5-7.3-14.1,8.5c-16.4-9.4-15.4-5.4,0.9,14.4c-16.4-19.8-17.5-22.3-13-3.6
						c-15.3-17.3-16.9-14.9-13.8,6.2c-3.1-21.1-3.6-23.7-9.5-5c-2.6-18.4-3.3-16-9.8,5c6.5-21.1,5.8-25.4-6.9-10.7
						c7.1-16.8,2.8-15.7-14.2,0.1c17-15.8,17.5-18.9-3.1-7.3c16.4-12.8,12.2-12.5-12.6-0.6c24.7-11.9,29.4-14.4,10.5-11.5
						c20.1-9.3,16.9-12.1-5.3-11.9c22.1-0.2,27.1,0.1,14.3-6.4c17.3-0.6,14.5-3.3-1-12.4c15.5,9.1,22.1,9.6,17.8-4.7
						c9.1,8.6,7.8,2.1,2.2-18.5c5.6,20.6,9,24.1,12.8,6.2c2.3,17.2,3.3,14.1,8-7c-4.7,21.1-4.3,23.2,3.8,4.7
						c-5.1,18.9-2.1,18.8,8.9,0.2c-11,18.6-14.5,21.8-1.2,10.3c-7.5,15.5-0.8,14.8,18.9,2.6c-19.8,12.2-20.1,15.1,2.1,6.5
						c-19.4,9.4-16.8,10.2,7.9,2.4c-24.7,7.8-29.5,8.6-9.7,5.9C167.6,144.9,167.9,147.2,192.3,148.4z"/>
				</g>
			</g>
			<polygon id="XMLID_20_" class="st5" points="106.5,173 96.9,164.8 112.8,126.1 138,103.3 169.6,110.7 192.8,125.1 199.6,147.7 
				186.9,176.7 173.5,188.3 153.5,191.7 129,189.4 			"/>
		</g>
	</g>
	<g id="base">
		<path id="XMLID_151_" class="st0" d="M97,202.4c0,0-24-2.6-28.9-31.7c-1.2-8.7,8.4-23.4,13.3-23.4c0,0-5-3.4-4.2-9.5
			c0.8-6.1,5.1-9.3,8.4-9.3c0,0-12.9-10.3-4.3-17.4c8.7-7.1,25.2-4.1,22.8,7.4c0,0,3-6.1,14-6.2c0,0-14.4-2.4-9.3-15.7
			s27.7-9.6,27.7-9.6s4.6-12.8,16.6-12c8.6,0.7,10.3,8.4,10.3,8.4s8.4-1.9,8.6,4.7c0,0,10.4-4.4,17-1.7c6.6,2.7,10.5,15.9,10.5,15.9
			s16.9-8.1,20.9,15.7s4.2,38.5-5.4,39.9c0,0,6.1,8.6-7.1,12.7c0,0,17.6,14.6,7.8,29.8S199,218,186.8,210.5c0,0-0.3,3.5-5.9,2.8
			c-5.6-0.7-5.8-4.7-5.8-4.7s0.1,3.3-4.7,3.3s-6.1-3.9-6.1-3.9s-0.1,3.6-3.1,5.1s-6.4,1.2-6.4,1.2s-5,12-18.3,12.6
			s-20.1-13.8-20.1-13.8s-3.9,2.4-12.7-1.6S97,202.4,97,202.4z"/>
	</g>
	<g id="Calque_26">
		<g id="XMLID_90_">
			<path id="XMLID_117_" class="st1" d="M209.7,139.6c5.7,5.4-3,12.2-3.2,12.8c1.7,9.7-9.5,10.6-9.5,10.6c4.3,1,3.6,7.7,3.6,7.7
				c-2.2,9.9-17,6.5-17,6.5c-13.7-10.1-2.2-26.6-2.2-26.6c-1.9-0.4-2.2-2-2.2-2.9c-0.6,2.2-6.8,2.2-6.8,2.2c3.2,0.2,2.7,3.6,2.7,3.6
				s0.8,17.6-9.9,23.5c-10.7,6-22.7-7.7-22.7-7.7s-0.1,4.7-4.6,8.1c-4.5,3.4-9.7-0.3-9.7-0.3s-0.3,3.3-8.9,3.7
				c-8.6,0.5-11.8-7.8-11.8-7.8s-3.3,2.7-12.5,0s-0.4-14.1-0.4-14.1c0.8-6.1-6.4-11.5-6.4-11.5c-3.1,0.5-5.5,0.3-7.3-0.1
				c-5,0.9-14,14.9-12.8,23.3C73,199.8,97,202.4,97,202.4s-1.8,5.3,7,9.3s12.7,1.6,12.7,1.6s6.8,14.3,20.1,13.8s18.3-12.6,18.3-12.6
				s3.3,0.2,6.4-1.2c3-1.5,3.1-5.1,3.1-5.1s1.3,3.9,6.1,3.9s4.7-3.3,4.7-3.3s0.2,4,5.8,4.7s5.9-2.8,5.9-2.8
				c12.2,7.4,19.1,5.1,28.9-10.1s-7.8-29.8-7.8-29.8c13.2-4.2,7.1-12.7,7.1-12.7c9.6-1.3,9.5-15.8,5.5-39.3
				C219,128.4,209.7,139.6,209.7,139.6z"/>
			<path id="XMLID_119_" class="st1" d="M179.3,147.1c0,0,0,0.3,0,0.7C179.3,147.5,179.3,147.3,179.3,147.1z"/>
		</g>
	</g>
	<g id="details">
		<g id="XMLID_138_">
			<path id="XMLID_140_" class="st6" d="M150.7,209.8c0,0-7.6,10-17.9,11c-10.3,1-13.3-13.2-13.3-13.2s-3.4,1.4-11.8-1s-1-22-1-22
				c-10.8-0.2-11.7,11-12.4,11C73,189.9,70.8,167.7,70.7,159c-1.9,4-3.1,8.3-2.6,11.6C73,199.8,97,202.4,97,202.4s-1.8,5.3,7,9.3
				s12.7,1.6,12.7,1.6s6.8,14.3,20.1,13.8s18.3-12.6,18.3-12.6s1,0.1,2.5-0.1l-2.9-1.3c-0.7-0.3-1.3-0.8-1.9-1.3L150.7,209.8z"/>
			<path id="XMLID_139_" class="st6" d="M192,213c-13.4-4.7-17.3-22.3-17.3-22.3c-4.1,5.1,0,16.7,0,16.7c-6.1,1.6-10.3,0-10.3,0
				l0.2,0.8v-0.1c0,0,1.3,3.9,6.1,3.9s4.7-3.3,4.7-3.3s0.2,4,5.8,4.7s5.9-2.8,5.9-2.8c2.7,1.6,5.1,2.8,7.4,3.4
				C194,213.8,193.2,213.4,192,213z"/>
		</g>
		<path id="XMLID_135_" class="st7" d="M137.4,117.2c0,0,6.2-6.9,19-2.5c0,0,2.3-12.5,12.6-11.4c0,0-11.6,2.6-12.1,13.9
			C156.9,117.2,151.7,110.2,137.4,117.2z"/>
		<path id="XMLID_134_" class="st7" d="M212.1,109.6c0,0-3.9,7.1-8.9,7.7c0,0,6,13.8-4.9,16.3c0,0,6.3,0.7,7.2-5.5
			s-1.1-10.2-1.1-10.2S211.9,114.6,212.1,109.6z"/>
		<path id="XMLID_133_" class="st7" d="M106.3,151c0,0-1.9,6.8,6.1,6.4c0,0-0.4,2.9,4,3.3s5.5-0.8,5.5-0.8s-2.5,3-6.9,1.4
			s-3.4-3.2-3.4-3.2s-3.3,0.3-5.3-1.7C104.2,154.4,106.3,151,106.3,151z"/>
		<path id="XMLID_132_" class="st8" d="M138.9,141.7c0,0,5.2,9.4,13.2,6c8-3.4,8.1-11.3,8.1-11.3s5.6-3.4,1.7-7
			c-3.9-3.6-17,0.8-17,0.8s-19.3-3.5-18.3,6.8C127.5,147.2,138.9,141.7,138.9,141.7z"/>
		<path id="XMLID_131_" class="st9" d="M134.2,207.3c0,0-7.9,2.6-10.2-4.1s5.5-5.7,5.5-5.7s0.7-4,7.5-3c6.8,0.9,7.5,3.7,7.5,3.7
			s5.2,1.9,2.9,6c-2.2,4.1-6.7,4.1-6.7,4.1s-1.1,1.9-3.8,1.3C134.2,209,134.2,207.3,134.2,207.3z"/>
		<path id="XMLID_130_" class="st10" d="M124.7,104.5c0,0-6.2-0.3-4.8-5.9c1.4-5.6,9.5-3,9.5-3s6.4-2.7,8.8-0.1s-0.6,5.9-0.6,5.9
			s2.5,4.3-0.8,5.2S125.4,108.2,124.7,104.5z"/>
		<path id="XMLID_120_" class="st9" d="M202.9,199.4c0,0-0.1,5-5.4,4.3c-5.3-0.7-4.3-6.9-4.3-6.9s-2.2-1.8,0.7-6.1s7.1-2.4,7.1-2.4
			s3-2.8,5,0.1c2,2.9,1,4,1,4s0.4,3.2-0.9,4.8C204.8,198.8,202.9,199.4,202.9,199.4z"/>
		<path id="XMLID_29_" class="st7" d="M147.4,160.7c0,0,3.5,3.5,8.3,2.9c4.5-0.5,7.7-4.1,7.7-4.1s-2.7,4.8-7.6,5.2
			C149.1,165.2,147.4,160.7,147.4,160.7z"/>
	</g>
</g>
</svg>
