<?xml version="1.0" encoding="utf-8"?>
<!-- Generator: Adobe Illustrator 19.0.0, SVG Export Plug-In . SVG Version: 6.00 Build 0)  -->
<svg version="1.0" id="Calque_1" xmlns="http://www.w3.org/2000/svg" xmlns:xlink="http://www.w3.org/1999/xlink" x="0px" y="0px" width="300px" height="260px"
	 viewBox="0 21 300 260" style="enable-background:new 0 21 300 260;" xml:space="preserve">
<style type="text/css">
	.st0{fill:#FBF7CB;}
	.st1{fill:#F3EAB1;}
	.st2{fill:#E0C17D;}
	.st3{fill:#CBB577;}
	.st4{fill:#FFFAD9;}
	.st5{fill:#F7F0D0;}
	.st6{fill:#FFFADA;}
</style>
<g id="fireDust2">
	<g id="base_-_copie">
		<path id="XMLID_17_" class="st0" d="M125.1,93.8c10-8.3,23.6-2.4,23.6-2.4s9.6-11.1,20.1-7.9c7.5,2.3,7.4,9.6,7.4,9.6
			s10,1,8.8,6.8c0,0,8-2.7,13.4,1c5.3,3.7,7.1,18.2,7.1,18.2s15.6-5.8,14.4,16.2c-1.2,22-4,35-12.9,34.3c0,0,3.7,8.8-8.9,9.9
			c0,0,12.6,16.5,0.9,28c-11.8,11.5-18.4,12.2-27.7,3.2c0,0-1,3-5.8,1.3s-4.2-5.3-4.2-5.3s-0.6,2.9-4.8,2s-4.6-4.7-4.6-4.7
			s-0.8,3.2-3.8,3.9s-5.9-0.2-5.9-0.2s-6.9,9.7-18.8,7.4c-11.9-2.2-15.1-16.3-15.1-16.3s-3.9,1.3-10.9-4s-4.3-9.7-4.3-9.7
			s-20.7-7.1-19.2-34C74.6,143.2,86,132,90.4,133c0,0-3.8-4-1.8-9.2c2-5.2,6.4-7.2,9.4-6.5c0,0,2.3-23.4,26.5-23.1"/>
	</g>
	<g id="Calque_26_-_copie">
		<g id="XMLID_14_">
			<path id="XMLID_16_" class="st1" d="M205,151.5c3.9,5.9-4.3,11-4.6,11.5c-0.5,9-10.6,7.4-10.6,7.4c3.6,1.8,1.7,7.5,1.7,7.5
				c-3.9,8.3-16.4,2.4-16.4,2.4c-6.3-8.5-5.3-14.4-5.3-14.4s-1.4,7.5-11,10.6c-10.6,3.4-18.6-11.4-18.6-11.4s-1.1,4.2-5.7,6.3
				s-8.5-2.3-8.5-2.3s-1,2.8-8.6,1.5c-7.7-1.3-8.9-9.3-8.9-9.3s-3.5,1.7-11.1-2.5c-7.6-4.3,2.5-12.6,2.5-12.6
				c1.9-5.2-3.4-11.5-3.4-11.5c-2.9-0.2-5-0.8-6.5-1.5c-4.7-0.2-15.4,10.4-16.1,18.1c-1.5,26.8,19.2,34,19.2,34s-2.6,4.4,4.3,9.7
				c7,5.3,10.9,4,10.9,4s3.1,14,15.1,16.3c11.9,2.2,18.8-7.4,18.8-7.4s2.9,0.9,5.9,0.2s3.8-3.9,3.8-3.9s0.4,3.7,4.6,4.7
				c4.2,1,4.8-2,4.8-2s-0.6,3.6,4.2,5.3s5.8-1.3,5.8-1.3c9.3,9.1,13,6.3,24.8-5.2s0.8-27.4,0.8-27.4c12.5-1,10.1-8.4,10.1-8.4
				c8.7,0.7,10.3-11.2,11.5-32.9C215,145.2,205,151.5,205,151.5z"/>
		</g>
	</g>
	<g id="details_-_copie">
		<g id="XMLID_11_">
			<path id="XMLID_13_" class="st2" d="M139.2,202.7c0,0-2.7,12.9-19.6,7.6c-9-2.8-7.7-15.9-7.7-15.9s-5.1,3.9-13-2.1
				c-8.9-6.7,6.3-21,6.3-21c-9.5-2.4-11.6,10.1-12.3,10c-17.6-9.3-16.1-32.2-14.4-39.9c-2.5,3.1-4.4,6.7-4.6,9.8
				c-1.5,26.8,19.2,34,19.2,34s-2.6,4.4,4.3,9.7c7,5.3,10.9,4,10.9,4s3.1,14,15.1,16.3c11.9,2.2,18.8-7.4,18.8-7.4s0.9,0.3,2.2,0.4
				l-2.3-1.8c-0.6-0.4-1-0.9-1.4-1.5L139.2,202.7z"/>
			<path id="XMLID_12_" class="st2" d="M164.4,190.6c-4.7,3.7-3.4,14.8-3.4,14.8c-3.7,4.4-9.1-2.1-9.1-2.1v0.7l0,0
				c0,0,0.4,3.7,4.6,4.7c4.2,1,4.8-2,4.8-2s-0.6,3.6,4.2,5.3s5.8-1.3,5.8-1.3C161.2,210,164.4,190.6,164.4,190.6z"/>
		</g>
		<path id="XMLID_9_" class="st3" d="M138.7,116.6c0,0,9.4-6.6,23.6,2.2c0,0,6.2-14.5,18.4-10.3c0,0-14.7-0.1-18.4,13.4
			C162.3,121.9,157.8,112.1,138.7,116.6z"/>
		<path id="XMLID_8_" class="st3" d="M214,126.2c0,0-4.9,5.5-9.4,5c0,0,2.5,13.4-7.6,13.5c0,0,5.5,1.9,7.5-3.4
			c2-5.3,1.1-9.3,1.1-9.3S212.8,130.6,214,126.2z"/>
		<path id="XMLID_7_" class="st3" d="M108.8,143.5c0,0-4.7,8.6,6.3,10.6c0,0-1.4,3.8,4.4,5.7s7.7,0.7,7.7,0.7s-4.4,3.2-9.8-0.2
			c-5.5-3.4-3.6-5.4-3.6-5.4s-4.6-0.7-6.7-4C105,147.5,108.8,143.5,108.8,143.5z"/>
		<path id="XMLID_6_" class="st4" d="M130.1,141.5c0,0,3.6,12.4,13.9,10.6c10.2-1.8,12.6-11.1,12.6-11.1s7.4-2.5,3.8-7.8
			c-3.6-5.3-20.1-3.6-20.1-3.6s-21.6-9.3-23.2,3S130.1,141.5,130.1,141.5z"/>
		<path id="XMLID_5_" class="st5" d="M123.7,193.7c0,0-7.5,0.7-8.2-5.7c-0.7-6.5,4.9-6,4.9-6s1.7-5.5,7.6-3.3c4.2,1.6,7.5,4,9,5.3
			c0.6,0.5,1,1.2,1,2c0.1,1.9,0,5.4-2,7.7c-2.8,3.1-6.8,2.2-6.8,2.2s-1.4,1.5-3.6,0.4C123.3,195.2,123.7,193.7,123.7,193.7z"/>
		<path id="XMLID_4_" class="st6" d="M137.5,104c0,0-5.4-1.5-3.1-6.2c2.3-4.7,9-0.8,9-0.8s6.2-1.1,7.8,1.7c1.6,2.8-1.7,5.1-1.7,5.1
			s1.4,4.3-1.8,4.5C144.5,108.4,137.4,107.4,137.5,104z"/>
		<path id="XMLID_3_" class="st5" d="M188.4,205.7c0,0-1.5,6.1-7.8,3.8s-4.4-9.6-4.4-9.6s-2.9-3.8,1.9-8.2c4.7-4.4,11.2,0,11.2,0
			s4.5-2.6,6.1,1.5c1.6,4,0.1,5.2,0.1,5.2s-0.4,4.1-2.4,5.7C191,205.6,188.4,205.7,188.4,205.7z"/>
		<path id="XMLID_2_" class="st3" d="M115.4,199.3c0,0,3.6,5.8,10.3,6.5c6.3,0.7,11.7-3.2,11.7-3.2s-5.2,5.7-11.9,4.7
			C116.2,205.9,115.4,199.3,115.4,199.3z"/>
	</g>
</g>
</svg>
