<?xml version="1.0" encoding="utf-8"?>
<!-- Generator: Adobe Illustrator 19.0.0, SVG Export Plug-In . SVG Version: 6.00 Build 0)  -->
<svg version="1.0" id="Calque_1" xmlns="http://www.w3.org/2000/svg" xmlns:xlink="http://www.w3.org/1999/xlink" x="0px" y="0px" width="300px" height="260px"
	 viewBox="0 21 300 260" style="enable-background:new 0 21 300 260;" xml:space="preserve">
<style type="text/css">
	.st0{fill:#FBF7CB;}
	.st1{fill:#F3EAB1;}
	.st2{opacity:0.43;}
	.st3{fill:#E0C17D;}
	.st4{opacity:0.43;fill:#FFFAD9;enable-background:new    ;}
	.st5{opacity:0.43;fill:#F7F0D0;enable-background:new    ;}
	.st6{opacity:0.43;fill:#FFFADA;enable-background:new    ;}
	.st7{opacity:0.37;}
	.st8{opacity:0.37;fill:#FFFAD9;enable-background:new    ;}
	.st9{opacity:0.37;fill:#F7F0D0;enable-background:new    ;}
	.st10{opacity:0.37;fill:#FFFADA;enable-background:new    ;}
</style>
<g id="dust7">
	<g id="one">
		<g id="base_-_copie_6">
			<path id="XMLID_166_" class="st0" d="M135.5,167.8c0,0-0.4,3.5-4.7,4.1c-1.3,0.2-3.4-1.3-3.4-2c0,0-0.5,0.7-1.4,0.6
				c-0.9-0.1-1.3-0.8-1.3-1.2c0,0-1.5,1.9-2.5,0.6c-1-1.3-0.5-3.7,1.1-3.3c0,0-0.9-0.5-0.9-2.1c0,0-0.4,2.1-2.3,1.3
				s-1.3-4.1-1.3-4.1s-1.9-0.7-1.7-2.4c0.1-1.3,1.3-1.5,1.3-1.5s-0.3-1.2,0.7-1.2c0,0-0.6-1.5-0.2-2.5s2.3-1.5,2.3-1.5
				s-1.1-2.5,2.3-3s5.6-0.5,5.8,0.9c0,0,1.3-0.9,1.8,1.1c0,0,2.2-2.5,4.4-1.1s2.5,2.5,1.4,4.2c0,0,0.5,0.1,0.4,0.9
				c-0.1,0.8-0.7,0.8-0.7,0.8s0.5,0,0.5,0.7s-0.6,0.9-0.6,0.9s0.5,0,0.7,0.5c0.2,0.4,0.2,0.9,0.2,0.9s1.7,0.8,1.8,2.7
				c0,1.9-2,2.9-2,2.9s0.3,0.6-0.3,1.8C136.3,168,135.5,167.8,135.5,167.8z"/>
		</g>
		<g id="Calque_26_-_copie_6">
			<g id="XMLID_126_">
				<path id="XMLID_128_" class="st1" d="M126.7,151.2c0.8-0.8,1.8,0.5,1.9,0.5c1.4-0.2,1.5,1.4,1.5,1.4c0.2-0.6,1.1-0.5,1.1-0.5
					c1.4,0.3,0.9,2.5,0.9,2.5c-1.5,2-3.9,0.3-3.9,0.3c-0.1,0.3-0.3,0.3-0.4,0.3c0.3,0.1,0.3,1,0.3,1c0-0.5,0.5-0.4,0.5-0.4
					s2.6-0.1,3.4,1.5c0.8,1.6-1.2,3.3-1.2,3.3s0.7,0,1.2,0.7s-0.1,1.4-0.1,1.4s0.5,0.1,0.5,1.3s-1.2,1.7-1.2,1.7s0.4,0.5,0,1.8
					s-2,0-2,0c-0.9-0.1-1.7,0.9-1.7,0.9c0.1,0.5,0,0.8,0,1.1c0.1,0.7,2.1,2.1,3.4,1.9c4.2-0.6,4.7-4.1,4.7-4.1s0.8,0.3,1.4-1
					c0.6-1.3,0.3-1.8,0.3-1.8s2.1-1,2-2.9c0-1.9-1.8-2.7-1.8-2.7s0-0.5-0.2-0.9s-0.7-0.5-0.7-0.5s0.6-0.2,0.6-0.9s-0.5-0.7-0.5-0.7
					s0.6,0,0.7-0.8c0.1-0.8-0.4-0.9-0.4-0.9c1.1-1.8,0.8-2.8-1.4-4.2s-4.4,1.1-4.4,1.1c-0.6-1.9-1.8-1.1-1.8-1.1
					c-0.2-1.4-2.3-1.4-5.7-0.9C125,149.8,126.7,151.2,126.7,151.2z"/>
				<path id="XMLID_127_" class="st1" d="M127.7,155.7L127.7,155.7C127.7,155.7,127.7,155.6,127.7,155.7z"/>
			</g>
		</g>
		<g id="details_-_copie_6">
			<g id="XMLID_123_" class="st2">
				<path id="XMLID_125_" class="st3" d="M136.7,160c0,0,1.4,1.1,1.6,2.6c0.1,1.5-1.9,1.9-1.9,1.9s0.2,0.5-0.2,1.7s-3.2,0.1-3.2,0.1
					c-0.1,1.6,1.6,1.7,1.6,1.8c-0.9,3.1-4.1,3.3-5.4,3.3c0.6,0.3,1.2,0.5,1.7,0.4c4.2-0.6,4.7-4.1,4.7-4.1s0.8,0.3,1.4-1
					c0.6-1.3,0.3-1.8,0.3-1.8s2.1-1,2-2.9c0-1.9-1.8-2.7-1.8-2.7s0-0.2,0-0.4l-0.2,0.4c0,0.1-0.1,0.2-0.2,0.3L136.7,160z"/>
				<path id="XMLID_124_" class="st3" d="M137.3,154c-0.7,1.9-3.3,2.5-3.3,2.5c0.7,0.6,2.4,0,2.4,0c0.2,0.9,0,1.5,0,1.5h0.1l0,0
					c0,0,0.6-0.2,0.6-0.9s-0.5-0.7-0.5-0.7s0.6,0,0.7-0.8c0.1-0.8-0.4-0.9-0.4-0.9c0.2-0.4,0.4-0.7,0.5-1.1
					C137.4,153.7,137.4,153.8,137.3,154z"/>
			</g>
			<path id="XMLID_115_" class="st4" d="M126.8,161.5c0,0,1.4-0.7,0.9-1.9s-1.6-1.2-1.6-1.2s-0.5-0.8-1-0.3
				c-0.5,0.6,0.1,2.5,0.1,2.5s-0.6,2.8,0.9,2.7C127.6,163.2,126.8,161.5,126.8,161.5z"/>
			<path id="XMLID_114_" class="st5" d="M136.3,162.3c0,0,0.4,1.1-0.6,1.5c-1,0.3-0.8-0.8-0.8-0.8s-0.6-0.1-0.4-1.1
				c0.2-1,0.6-1.1,0.6-1.1s0.3-0.7,0.9-0.4s0.6,1,0.6,1s0.3,0.2,0.2,0.6C136.6,162.4,136.3,162.3,136.3,162.3z"/>
			<path id="XMLID_113_" class="st6" d="M121.3,163.5c0,0-0.1,0.9-0.9,0.7s-0.4-1.4-0.4-1.4s-0.4-0.9,0-1.3c0.4-0.3,0.9,0.1,0.9,0.1
				s0.6-0.4,0.8,0.1S121.9,163.4,121.3,163.5z"/>
			<path id="XMLID_112_" class="st5" d="M135.3,152.3c0,0,0.7,0,0.6,0.8s-1,0.6-1,0.6s-0.3,0.3-0.9-0.1s-0.3-1-0.3-1s-0.4-0.4,0-0.7
				s0.6-0.1,0.6-0.1s0.5-0.1,0.7,0.1C135.3,152.1,135.3,152.3,135.3,152.3z"/>
		</g>
	</g>
	<g id="two">
		<g id="base_-_copie_7">
			<path id="XMLID_168_" class="st0" d="M160.5,135.7c0,0-2.5-2.4-0.5-6.2c0.6-1.1,3.1-1.9,3.6-1.5c0,0-0.3-0.8,0.4-1.5
				s1.4-0.6,1.8-0.3c0,0-0.6-2.3,1.1-2.4c1.6,0,3.2,1.8,1.9,2.9c0,0,0.9-0.4,2.2,0.5c0,0-1.4-1.6,0.3-2.6c1.8-1.1,4,1.4,4,1.4
				s1.7-1.1,3,0.1c0.9,0.9,0.4,1.9,0.4,1.9s1.1,0.5,0.6,1.3c0,0,1.6,0.4,2.1,1.3s-0.2,2.8-0.2,2.8s2.7,0.6,1,3.7s-3,4.8-4.2,4.1
				c0,0-0.1,1.5-2,0.8c0,0,0.7,3.3-1.8,4.1c-2.5,0.9-3.5,0.5-4.2-1.4c0,0-0.4,0.4-0.9-0.2c-0.6-0.6-0.2-1.1-0.2-1.1s-0.3,0.4-0.8,0
				s-0.3-1-0.3-1s-0.3,0.4-0.8,0.3s-0.8-0.4-0.8-0.4s-1.7,0.9-3.2-0.2c-1.6-1.1-1.1-3.4-1.1-3.4s-0.7-0.1-1.3-1.3
				C159.8,136.2,160.5,135.7,160.5,135.7z"/>
		</g>
		<g id="Calque_26_-_copie_7">
			<g id="XMLID_150_">
				<path id="XMLID_153_" class="st1" d="M179,138.7c0.2,1.1-1.4,1.1-1.5,1.2c-0.7,1.3-2,0.4-2,0.4c0.4,0.5-0.3,1.2-0.3,1.2
					c-1.1,0.9-2.5-0.8-2.5-0.8c-0.7-2.4,2.1-3.2,2.1-3.2c-0.2-0.2-0.1-0.4,0-0.5c-0.3,0.2-1-0.4-1-0.4c0.3,0.3,0,0.7,0,0.7
					s-1.5,2.1-3.2,1.8c-1.8-0.3-1.9-2.9-1.9-2.9s-0.4,0.5-1.3,0.5c-0.8,0-1.1-0.9-1.1-0.9s-0.3,0.3-1.4-0.4c-1-0.7-0.6-2-0.6-2
					s-0.6,0-1.4-1.1c-0.8-1.1,1.2-1.6,1.2-1.6c0.6-0.6,0.3-1.9,0.3-1.9c-0.4-0.2-0.7-0.5-0.8-0.7c-0.7-0.4-2.9,0.4-3.6,1.5
					c-2.1,3.8,0.5,6.2,0.5,6.2s-0.7,0.4,0,1.7c0.6,1.2,1.3,1.3,1.3,1.3s-0.5,2.2,1.1,3.4c1.6,1.1,3.2,0.2,3.2,0.2s0.4,0.3,0.8,0.4
					c0.5,0.1,0.8-0.3,0.8-0.3s-0.2,0.6,0.3,1s0.8,0,0.8,0s-0.3,0.5,0.2,1.1c0.6,0.6,0.9,0.2,0.9,0.2c0.7,1.9,1.7,2.3,4.2,1.4
					s1.8-4.1,1.8-4.1c1.9,0.7,2-0.8,2-0.8c1.2,0.7,2.5-1,4.2-4C181.1,138.2,179,138.7,179,138.7z"/>
				<path id="XMLID_152_" class="st1" d="M174.9,136.8L174.9,136.8C174.8,136.8,174.9,136.8,174.9,136.8z"/>
			</g>
		</g>
		<g id="details_-_copie_7">
			<g id="XMLID_161_" class="st7">
				<path id="XMLID_163_" class="st3" d="M166,141.4c0,0-1.8,0.5-3-0.4c-1.3-0.8-0.3-2.7-0.3-2.7s-0.5-0.1-1.3-1.2
					c-0.8-1,1.9-2.6,1.9-2.6c-1.2-1-2.3,0.2-2.4,0.1c-1.9-2.6-0.2-5.3,0.6-6.3c-0.6,0.3-1.1,0.7-1.3,1.1c-2.1,3.8,0.5,6.2,0.5,6.2
					s-0.7,0.4,0,1.7c0.6,1.2,1.3,1.3,1.3,1.3s-0.5,2.2,1.1,3.4c1.6,1.1,3.2,0.2,3.2,0.2s0.1,0.1,0.3,0.2l-0.2-0.4
					c-0.1-0.1-0.1-0.2-0.1-0.3L166,141.4z"/>
				<path id="XMLID_162_" class="st3" d="M170.4,145.5c-1.1-1.7,0-4.1,0-4.1c-0.9,0.2-1.5,1.9-1.5,1.9c-0.8-0.4-1.2-0.9-1.2-0.9
					l-0.1,0.1l0,0c0,0-0.2,0.6,0.3,1s0.8,0,0.8,0s-0.3,0.5,0.2,1.1c0.6,0.6,0.9,0.2,0.9,0.2c0.2,0.4,0.3,0.8,0.5,1.1
					C170.6,145.7,170.5,145.6,170.4,145.5z"/>
			</g>
			<path id="XMLID_160_" class="st8" d="M170.7,132.5c0,0-0.2,1.5,1,1.9c1.2,0.3,1.9-0.6,1.9-0.6s0.9,0.1,0.8-0.7s-2-1.4-2-1.4
				s-1.9-2.1-2.7-0.9C169,132.2,170.7,132.5,170.7,132.5z"/>
			<path id="XMLID_159_" class="st9" d="M164.3,139.6c0,0-1.1-0.4-0.8-1.4s1.1-0.2,1.1-0.2s0.4-0.4,1.1,0.3c0.7,0.7,0.5,1.1,0.5,1.1
				s0.4,0.7-0.2,0.9c-0.6,0.3-1.1-0.1-1.1-0.1s-0.3,0.1-0.6-0.2C164.2,139.8,164.3,139.6,164.3,139.6z"/>
			<path id="XMLID_158_" class="st10" d="M172.5,127c0,0-0.7-0.6,0-1.1s1.4,0.5,1.4,0.5s1,0.3,1,0.8s-0.6,0.6-0.6,0.6
				s-0.1,0.7-0.6,0.5C173.2,128.1,172.2,127.5,172.5,127z"/>
			<path id="XMLID_157_" class="st9" d="M172.9,144.9c0,0-0.5,0.6-1,0c-0.5-0.6,0.1-1.2,0.1-1.2s-0.1-0.4,0.6-0.6
				c0.7-0.2,1,0.4,1,0.4s0.6,0,0.6,0.5s-0.2,0.5-0.2,0.5s-0.2,0.4-0.5,0.5C173.2,145,172.9,144.9,172.9,144.9z"/>
		</g>
	</g>
</g>
</svg>
