<?xml version="1.0" encoding="utf-8"?>
<!-- Generator: Adobe Illustrator 19.0.0, SVG Export Plug-In . SVG Version: 6.00 Build 0)  -->
<svg version="1.0" id="Calque_1" xmlns="http://www.w3.org/2000/svg" xmlns:xlink="http://www.w3.org/1999/xlink" x="0px" y="0px" width="300px" height="260px"
	 viewBox="0 21 300 260" style="enable-background:new 0 21 300 260;" xml:space="preserve">
<style type="text/css">
	.st0{fill:#FBF7CB;}
	.st1{fill:#F3EAB1;}
	.st2{fill:#E0C17D;}
	.st3{fill:#FFFAD9;}
	.st4{fill:#F7F0D0;}
	.st5{fill:#FFFADA;}
</style>
<g id="fireDust5">
	<g id="base_-_copie_4">
		<path id="XMLID_91_" class="st0" d="M130.2,160.9c0,0-6.4-2.2-6-10.5c0.2-2.5,3.8-5.9,5.1-5.6c0,0-1.2-1.2-0.6-2.9
			c0.6-1.6,1.4-4.1,2.4-3.9c0,0-1.1-2.1,0.2-5c1.4-3.1,7.6-2,6.2,1c0,0,0.7-2.9,3.7-2.3c0,0-2.1-0.6,0.2-3.9
			c2.2-3.4,8.1,0.9,8.1,0.9s3.1-3.1,6.4-2.1c2.3,0.7,4.2,3.8,4.2,3.8s3.5-2.2,3.1-0.4c0,0-0.5,2.2,1.2,3.3c1.7,1.2,2.4,4.6,2.4,4.6
			s8.5-2.2,8.2,4.7c-0.4,6.8-6.6,13.6-9.4,13.4c0,0,1.1,2.7-2.8,3.1c0,0,3.9,5.1,0.3,8.7s-5.7,3.8-8.6,1c0,0-0.3,0.9-1.8,0.4
			s-1.3-1.7-1.3-1.7s-0.2,0.9-1.5,0.6c-1.3-0.3-1.4-1.5-1.4-1.5s-0.2,1-1.2,1.2c-0.9,0.2-1.8-0.1-1.8-0.1s-2.1,3-5.8,2.3
			s-4.7-5.1-4.7-5.1s-1.2,0.4-3.4-1.2S130.2,160.9,130.2,160.9z"/>
	</g>
	<g id="Calque_26_-_copie_4">
		<g id="XMLID_86_">
			<path id="XMLID_30_" class="st1" d="M156,157.2"/>
			<path id="XMLID_18_" class="st1" d="M154.7,154.6c-3.5-1.9-5.1-0.5-6.4-0.9c-0.5-0.1-1.1,0-1.5,0.3c-1,0.8-2.8,2.1-3.8,2.6
				c-0.7,0.3-1.4,0.1-1.9-0.1c-0.4-0.2-0.9-0.3-1.4-0.1c-0.4,0.1-1,0.2-2.1,0c-1.3-0.2-2-1.1-2.4-1.9c-0.3-0.5-0.7-0.9-1.3-1
				s-1.4-0.3-2.5-0.9c-1.8-1-0.3-2.8,0.4-3.6c0.3-0.3,0.5-0.8,0.5-1.3c0-0.7-0.4-1.4-0.7-1.9c-0.3-0.4-0.7-0.7-1.2-0.8
				c-0.4-0.1-0.7-0.1-0.9-0.2c-0.4-0.1-0.8-0.1-1.2,0c-1.6,0.7-4,3.4-4.2,5.4c-0.4,6.3,3.2,9.1,5,10.1c0.5,0.3,0.8,0.8,0.9,1.4
				c0.1,0.5,0.4,1.3,1.5,2.1s1.9,1.1,2.5,1.2c0.6,0.1,1,0.5,1.2,1c0.5,1.3,1.8,3.6,4.3,4c2.6,0.5,4.5-0.9,5.3-1.7
				c0.3-0.3,0.8-0.5,1.3-0.5c0.3,0,0.7,0,1.1-0.1c0.1,0,0.2-0.1,0.3-0.1c0.6-0.2,1.2-0.3,1.7,0.1c0.2,0.1,0.4,0.2,0.7,0.3
				c0.2,0.1,0.4,0.1,0.6,0.1c0.5,0,1,0.1,1.4,0.5c0.2,0.2,0.5,0.4,0.8,0.5c0.5,0.2,0.9,0.2,1.2,0.1c0.6-0.1,1.1,0,1.6,0.3
				c2.4,1.9,4.4,1.4,7.6-1.8c2.3-2.3,1.6-5.1,0.7-7c-0.4-0.8,0-1.8,0.8-2.2s1-1,1.1-1.5c0.1-0.6,0.4-1,1-1.3c1.1-0.5,1.8-2,2.2-4.4
				c0.3-1.6-1.6-2.7-2.8-1.6l0,0c-0.4,0.4-0.6,0.9-0.6,1.5c0.1,1-0.8,1.8-1.5,2.2c-0.3,0.2-0.5,0.5-0.6,0.8
				c-0.8,2.3-6.5,1.9-6.5,1.9"/>
			<path id="XMLID_87_" class="st1" d="M156.3,150.9c0,0,0,0.1-0.1,0.2C156.3,151,156.3,150.9,156.3,150.9z"/>
		</g>
	</g>
	<g id="details_-_copie_4">
		<g id="XMLID_83_">
			<path id="XMLID_85_" class="st2" d="M144.5,166.4c0,0-2.7,2.3-5.6,1.9c-2.9-0.4-2.9-4.5-2.9-4.5s-1,0.2-3.2-1s1.1-6.1,1.1-6.1
				c-3-0.7-3.9,2.3-4.1,2.3c-5.5-2.9-4.7-9.2-4.2-11.6c-0.8,1-1.4,2.1-1.4,3c-0.5,8.3,6,10.5,6,10.5s-0.8,1.4,1.3,3s3.4,1.2,3.4,1.2
				s1,4.4,4.7,5.1c3.7,0.7,5.8-2.3,5.8-2.3s0.3,0.1,0.7,0.1l-0.7-0.6c-0.2-0.1-0.3-0.3-0.4-0.5L144.5,166.4z"/>
			<path id="XMLID_28_" class="st2" d="M152.6,169.3c1.4,0.7,1.8-0.4,1.8-0.4c0.6,0.6,1.2,1.1,1.8,1.4c-0.1-0.1-0.3-0.2-0.6-0.4
				c-3.4-2.1-3.4-7.2-3.4-7.2c-1.5,1.1-1.1,4.6-1.1,4.6c-1.8,0.1-2.8-0.6-2.8-0.6v0.2l0,0c0,0,0.1,1.3,1.4,1.5"/>
		</g>
		<path id="XMLID_79_" class="st3" d="M155.9,150.4c0,0,0.9,2.9,3.3,2.5c2.4-0.4,3-2.6,3-2.6s1.7-0.6,0.9-1.8s-4.7-0.9-4.7-0.9
			s-5.1-2.2-5.5,0.7S155.9,150.4,155.9,150.4z"/>
		<path id="XMLID_78_" class="st4" d="M140.1,164.6c0,0-2.3,0.2-2.6-1.8s1.9-1.2,1.9-1.2s0.4-1,2.3-0.4c1.8,0.7,1.8,1.5,1.8,1.5
			s1.3,0.9,0.4,1.8s-2.1,0.7-2.1,0.7s-0.4,0.5-1.1,0.1C140,165.1,140.1,164.6,140.1,164.6z"/>
		<path id="XMLID_77_" class="st5" d="M139.3,140.9c0,0-1.7-0.5-1-1.9c0.7-1.5,2.8-0.2,2.8-0.2s1.9-0.3,2.4,0.5
			c0.5,0.9-0.5,1.6-0.5,1.6s0.4,1.3-0.6,1.4C141.4,142.3,139.2,142,139.3,140.9z"/>
		<path id="XMLID_76_" class="st4" d="M159.5,163.3c0,0-0.3,1.4-1.8,0.9c-1.4-0.5-0.7-2.2-0.7-2.2s-0.5-0.6,0.6-1.6s2.1-0.2,2.1-0.2
			s1-0.6,1.4,0.3c0.4,0.9,0,1.2,0,1.2s-0.1,0.9-0.5,1.3C160.1,163.3,159.5,163.3,159.5,163.3z"/>
	</g>
</g>
</svg>
