<?xml version="1.0" encoding="utf-8"?>
<!-- Generator: Adobe Illustrator 19.0.0, SVG Export Plug-In . SVG Version: 6.00 Build 0)  -->
<svg version="1.0" id="Calque_1" xmlns="http://www.w3.org/2000/svg" xmlns:xlink="http://www.w3.org/1999/xlink" x="0px" y="0px" width="300px" height="260px"
	 viewBox="0 21 300 260" style="enable-background:new 0 21 300 260;" xml:space="preserve">
<style type="text/css">
	.st0{fill:#FBF7CB;}
	.st1{fill:#F3EAB1;}
	.st2{fill:#E0C17D;}
	.st3{fill:#FFFAD9;}
	.st4{fill:#F7F0D0;}
	.st5{fill:#FFFADA;}
</style>
<g id="fireDust3">
	<g id="base_-_copie_2">
		<path id="XMLID_43_" class="st0" d="M114.5,179c0,0-14.3-4.9-13.2-23.3c0.5-5.5,8.4-13.1,11.4-12.4c0,0-2.6-2.8-1.2-6.4
			s4.4-5,6.4-4.5c0,0-6.4-8.1-0.2-11.2c6.3-3.1,15.9,1,12.9,7.7c0,0,2.7-3.3,9.4-1.9c0,0-8.4-3.4-3.5-10.9c4.9-7.4,18.2-2,18.2-2
			s4.6-7.2,11.8-5c5.2,1.6,5.1,6.6,5.1,6.6s5.4,0,4.6,4.1c0,0,6.9-1.2,10.6,1.3c3.7,2.6,4.2,11.2,4.2,11.2s11.4-2.6,10.6,12.5
			s-2.8,24.1-8.8,23.6c0,0,2.5,6.1-6.1,6.8c0,0,8.7,11.4,0.6,19.3s-12.6,8.4-19,2.2c0,0-0.7,2.1-4,0.9c-3.3-1.2-2.9-3.7-2.9-3.7
			s-0.4,2-3.3,1.3s-3.2-3.2-3.2-3.2s-0.5,2.2-2.6,2.7s-4.1-0.1-4.1-0.1s-4.7,6.7-12.9,5.1S125,188.3,125,188.3s-2.7,0.9-7.5-2.7
			C112.7,182,114.5,179,114.5,179z"/>
	</g>
	<g id="Calque_26_-_copie_2">
		<g id="XMLID_40_">
			<path id="XMLID_42_" class="st1" d="M187.4,151.5c2.7,4.1-3.6,7-3.7,7.4c-0.3,6.2-7.3,5.1-7.3,5.1c2.5,1.2,1.2,5.2,1.2,5.2
				c-2.7,5.7-11.3,1.6-11.3,1.6c-3.7-4.2-6.9-4.4-11.2-2.7c-7.1,2.9-12.8-7.8-12.8-7.8s-0.7,2.9-3.9,4.3c-3.2,1.4-5.9-1.6-5.9-1.6
				s-0.7,1.9-5.9,1c-5.3-0.9-6.1-6.4-6.1-6.4s-2.4,1.2-7.6-1.7s1.7-8.6,1.7-8.6c1.3-3.6-2.3-7.9-2.3-7.9c-2-0.2-3.4-0.6-4.4-1.1
				c-3.2-0.2-10.6,7.1-11,12.4c-1.1,18.4,13.2,23.3,13.2,23.3s-1.8,3,3,6.6s7.5,2.7,7.5,2.7s2.1,9.6,10.4,11.2
				c8.2,1.5,12.9-5.1,12.9-5.1s2,0.6,4.1,0.1s2.6-2.7,2.6-2.7s0.3,2.6,3.2,3.2c2.9,0.7,3.3-1.3,3.3-1.3s-0.4,2.5,2.9,3.7
				c3.3,1.2,4-0.9,4-0.9c6.4,6.2,10.9,5.7,19-2.2s-0.6-19.3-0.6-19.3c8.6-0.7,6.1-6.8,6.1-6.8C194.2,164,187.4,151.5,187.4,151.5z"
				/>
			<path id="XMLID_41_" class="st1" d="M167.6,152.3"/>
		</g>
	</g>
	<g id="details_-_copie_2">
		<g id="XMLID_35_">
			<path id="XMLID_39_" class="st2" d="M141.6,186.2c0,0-0.6,8.8-10.5,7.2c-8.5-1.3-9.8-11.3-9.8-11.3s-2.5,2-8.5-2.4
				c-8.5-6.2,5.4-12.9,5.4-12.9c-4.5-0.7-7.8,6.2-8.3,6.1c-12.1-6.4-14.3-20.3-10.1-28.9c-1.7,2.2-3,4.6-3.2,6.7
				c-1.1,18.4,13,22.9,13,22.9s-1.6,3.4,3.2,7c4.8,3.6,7.5,2.7,7.5,2.7s2.1,9.6,10.4,11.2c8.2,1.5,12.9-5.1,12.9-5.1
				s0.6,0.2,1.5,0.3l-1.6-1.2c-0.4-0.3-0.7-0.6-1-1L141.6,186.2z"/>
			<path id="XMLID_36_" class="st2" d="M163.4,191.2c-10.8,4.7-4.5-13.4-4.5-13.4c-3.2,2.5-2.3,10.2-2.3,10.2
				c-1.9,4.3-6.3-1.4-6.3-1.4v0.5l0,0c0,0,0.3,2.6,3.2,3.2c2.9,0.7,3.3-1.3,3.3-1.3s-0.4,2.5,2.9,3.7c3.3,1.2,4-0.9,4-0.9
				c1.4,1.4,2.7,2.4,4,3.1C167.5,194.6,164.1,190.9,163.4,191.2z"/>
		</g>
		<path id="XMLID_27_" class="st3" d="M144.1,153.8c0,0,2.5,8.5,9.5,7.2s8.6-7.6,8.6-7.6s5.1-1.7,2.6-5.3
			c-2.4-3.6-13.7-2.5-13.7-2.5s-14.8-6.3-15.9,2.1C134,156.1,144.1,153.8,144.1,153.8z"/>
		<path id="XMLID_24_" class="st4" d="M131.9,182.4c0,0-5.2,0.5-5.7-3.9c-0.5-4.5,4.1-2.7,4.1-2.7s1-2.3,5-0.8s4.1,3.3,4.1,3.3
			s2.9,1.9,0.9,4.1c-1.9,2.2-4.7,1.5-4.7,1.5s-0.9,1-2.5,0.3C131.6,183.4,131.9,182.4,131.9,182.4z"/>
		<path id="XMLID_23_" class="st5" d="M167.3,130.5c0,0-3.7-1.1-2.1-4.3c1.6-3.2,6.2-0.5,6.2-0.5s4.3-0.8,5.4,1.2
			c1.1,1.9-1.2,3.5-1.2,3.5s0.9,3-1.2,3.1C172.1,133.6,167.2,132.9,167.3,130.5z"/>
		<path id="XMLID_22_" class="st4" d="M174.9,187.1c0,0-0.7,3.1-3.9,1.9c-3.1-1.1-1.6-4.8-1.6-4.8s-1.1-1.4,1.3-3.6s4.7-0.5,4.7-0.5
			s2.2-1.3,3,0.7s0,2.6,0,2.6s-0.2,2-1.2,2.8C176.1,187,174.9,187.1,174.9,187.1z"/>
	</g>
</g>
</svg>
