<?xml version="1.0" encoding="utf-8"?>
<!-- Generator: Adobe Illustrator 19.0.0, SVG Export Plug-In . SVG Version: 6.00 Build 0)  -->
<svg version="1.0" id="Calque_1" xmlns="http://www.w3.org/2000/svg" xmlns:xlink="http://www.w3.org/1999/xlink" x="0px" y="0px" width="300px" height="260px"
	 viewBox="0 21 300 260" style="enable-background:new 0 21 300 260;" xml:space="preserve">
<style type="text/css">
	.st0{fill:#FBF7CB;}
	.st1{fill:#F3EAB1;}
	.st2{fill:#E0C17D;}
	.st3{fill:#FFFAD9;}
	.st4{fill:#F7F0D0;}
	.st5{fill:#FFFADA;}
</style>
<g id="fireDust6">
	<g id="base_-_copie_5">
		<path id="XMLID_62_" class="st0" d="M130.2,160.9c0,0-6.4-2.2-6-10.5c0.2-2.5,3.8-5.9,5.1-5.6c0,0-1.2-1.2-0.6-2.9
			c0.6-1.6,1.4-4.1,2.4-3.9c0,0,5.1,7.9,6.4,5.1c1.4-3.1,7,0.5,9-3.8c0,0,2.6-7.6-1.6-10.9c0,0-3-3.7-0.7-7s9-0.9,9-0.9
			s4.1-0.6,7.4,0.4c2.3,0.7,4.4,2.9,4.4,2.9s2.7,1.5,2.4,3.3c0,0-0.7,2.4,1,3.6c1.7,1.2,3.9,2.9,3.9,2.9s3.1,2.4,2.8,9.3
			c-0.4,6.8-10.2,9.4-12.9,9.2c0,0-10.7,0-10.3,2.2c0,0,1.1,6.8,5.1,10.5c3.7,3.5,0.5,7-2.4,4.2c0,0-0.3,0.9-1.8,0.4
			s-1.3-1.7-1.3-1.7s-0.2,0.9-1.5,0.6c-1.3-0.3-1.4-1.5-1.4-1.5s-0.2,1-1.2,1.2c-0.9,0.2-1.8-0.1-1.8-0.1s-2.1,3-5.8,2.3
			s-4.7-5.1-4.7-5.1s-1.2,0.4-3.4-1.2S130.2,160.9,130.2,160.9z"/>
	</g>
	<g id="Calque_26_-_copie_5">
		<g id="XMLID_58_">
			<path id="XMLID_63_" class="st1" d="M152.6,152.7c-0.6,0.5-7.4,3.6-8,3.5c-2.1-0.4-4.5,0.1-4.9,0.2c-0.4,0.1-1,0.2-2.1,0
				c-1.3-0.2-2-1.1-2.4-1.9c-0.3-0.5-0.7-0.9-1.3-1s-1.4-0.3-2.5-0.9c-1.8-1-0.3-2.8,0.4-3.6c0.3-0.3,0.5-0.8,0.5-1.3
				c0-0.7-0.4-1.4-0.7-1.9c-0.3-0.4-0.7-0.7-1.2-0.8c-0.4-0.1-0.7-0.1-0.9-0.2c-0.4-0.1-0.8-0.1-1.2,0c-1.6,0.7-4,3.4-4.2,5.4
				c-0.4,6.3,3.2,9.1,5,10.1c0.5,0.3,0.8,0.8,0.9,1.4c0.1,0.5,0.4,1.3,1.5,2.1s1.9,1.1,2.5,1.2c0.6,0.1,1,0.5,1.2,1
				c0.5,1.3,1.8,3.6,4.3,4c2.6,0.5,4.5-0.9,5.3-1.7c0.3-0.3,0.8-0.5,1.3-0.5c0.3,0,0.7,0,1.1-0.1c0.1,0,0.2-0.1,0.3-0.1
				c0.6-0.2,1.2-0.3,1.7,0.1c0.2,0.1,0.4,0.2,0.7,0.3c0.2,0.1,0.4,0.1,0.6,0.1c0.5,0,1,0.1,1.4,0.5c0.2,0.2,0.5,0.4,0.8,0.5
				c0.5,0.2,0.9,0.2,1.2,0.1c0.6-0.1,1.1,0,1.6,0.3c2.4,1.9,5.8,0,5.2-2.6c-0.7-3.2-5.5-6.6-6.3-8.4c-0.9-2.1,0.8-4.7,1.6-5.1
				c0.8-0.4,3.7-1.2,4.2-1.3c0.7-0.1,5.6-0.6,6.1-0.8c1.1-0.5,6.9-2.7,7.4-5"/>
		</g>
		<path id="XMLID_60_" class="st1" d="M142.8,156.5c0,0,3.6-0.8,4.8-2.7s4.1-2.1,5.6-2.4s3.2-1.8,4.8-2s3.8,0.6,5.3,0
			s3.2-1.8,4.1-2.3s3.6-1.5,4.2-1.1c0.6,0.4,2.8-1.6,2.8-0.7c0,2.8-8,5.7-8,5.7l-12.9,2.9l-4,3.5L142.8,156.5z"/>
	</g>
	<g id="details_-_copie_5">
		<g id="XMLID_48_">
			<path id="XMLID_53_" class="st2" d="M144.5,166.4c0,0-2.7,2.3-5.6,1.9c-2.9-0.4-2.9-4.5-2.9-4.5s-1,0.2-3.2-1s1.1-6.1,1.1-6.1
				c-3-0.7-3.9,2.3-4.1,2.3c-5.5-2.9-4.7-9.2-4.2-11.6c-0.8,1-1.4,2.1-1.4,3c-0.4,7,3.8,9.7,5.1,10.4c0.2,0.1,0.3,0.3,0.4,0.6
				c0,0.5,0.4,1.5,1.8,2.5c1.1,0.8,1.9,1.1,2.5,1.2c0.5,0.1,1,0.4,1.2,0.9c0.5,1.3,1.8,3.6,4.4,4.1c3.7,0.7,5.5-1.8,5.5-1.8
				s0.6-0.4,1-0.4l-0.7-0.6c-0.2-0.1-0.3-0.3-0.4-0.5L144.5,166.4z"/>
			<path id="XMLID_52_" class="st2" d="M152.6,169.3c0.3,0.5,2.4,0.5,2.4,0.5c0.4,0.5,0.5,0.1,1.1,0.4c-0.1-0.1-0.2-0.2-0.5-0.3
				c-3.4-2.1-3.4-7.2-3.4-7.2c-1.5,1.1-0.7,5.3-0.7,5.3c-1.8,0.1-3.2-1.3-3.2-1.3v0.2l0,0c0,0,0.1,1.3,1.4,1.5"/>
		</g>
		<path id="XMLID_47_" class="st3" d="M163.7,139.6c0,0,0.9,2.9,3.3,2.5c2.4-0.4,3-2.6,3-2.6s1.7-0.6,0.9-1.8s-4.7-0.9-4.7-0.9
			s-5.1-2.2-5.5,0.7C160.2,140.4,163.7,139.6,163.7,139.6z"/>
		<path id="XMLID_38_" class="st4" d="M140.1,164.6c0,0-2.3,0.2-2.6-1.8s1.9-1.2,1.9-1.2s0.4-1,2.3-0.4c1.8,0.7,1.8,1.5,1.8,1.5
			s1.3,0.9,0.4,1.8s-2.1,0.7-2.1,0.7s-0.4,0.5-1.1,0.1C140,165.1,140.1,164.6,140.1,164.6z"/>
		<path id="XMLID_37_" class="st5" d="M151.6,127.4c0,0-1.7-0.5-1-1.9c0.7-1.5,2.8-0.2,2.8-0.2s1.9-0.3,2.4,0.5
			c0.5,0.9-0.5,1.6-0.5,1.6s0.4,1.3-0.6,1.4C153.8,128.8,151.6,128.5,151.6,127.4z"/>
		<path id="XMLID_31_" class="st4" d="M148.8,164.1c0,0-0.3,1.4-1.8,0.9s-0.7-2.2-0.7-2.2s-0.5-0.6,0.6-1.6s2.1-0.2,2.1-0.2
			s1-0.6,1.4,0.3s0,1.2,0,1.2s-0.1,0.9-0.5,1.3C149.3,164.1,148.8,164.1,148.8,164.1z"/>
	</g>
</g>
</svg>
