<?xml version="1.0" encoding="utf-8"?>
<!-- Generator: Adobe Illustrator 19.0.0, SVG Export Plug-In . SVG Version: 6.00 Build 0)  -->
<svg version="1.0" id="Calque_1" xmlns="http://www.w3.org/2000/svg" xmlns:xlink="http://www.w3.org/1999/xlink" x="0px" y="0px" width="300px" height="260px"
	 viewBox="0 21 300 260" style="enable-background:new 0 21 300 260;" xml:space="preserve">
<style type="text/css">
	.st0{fill:#CBB577;}
	.st1{fill:#E0E0E0;stroke:#000000;stroke-width:2;stroke-miterlimit:10;}
	.st2{fill:#C6C6C5;}
	.st3{fill:#E0E0E0;}
	.st4{fill:#515250;}
	.st5{fill:#262626;}
</style>
<g id="Calque_53">
	<path id="XMLID_15_" class="st0" d="M136.9,181c0,0,18.5,3.2,29.2,0l-3.9-17.2c0,0,17.6,1.3,15.5-20.5S163.2,125,152,124.7
		c-17.4-0.5-30.7,4.4-30.7,16.1c0,4.6,0,11.6,2.2,14.5c5,6.6,16.3,8.8,16.3,8.8L136.9,181z"/>
	<path id="XMLID_44_" class="st1" d="M136.9,181c0,0,18.5,3.2,29.2,0l-3.9-17.2c0,0,17.6,1.3,15.5-20.5S163.2,125,152,124.7
		c-17.4-0.5-30.7,4.4-30.7,16.1c0,4.6,0,11.6,2.2,14.5c5,6.6,16.3,8.8,16.3,8.8L136.9,181z"/>
	<path id="XMLID_51_" class="st2" d="M136.9,181c0,0,18.5,3.2,29.2,0l-3.9-17.2c0,0,17.6,1.3,15.5-20.5S163.2,125,152,124.7
		c-17.4-0.5-30.7,4.4-30.7,16.1c0,4.6,0,11.6,2.2,14.5c5,6.6,16.3,8.8,16.3,8.8l-1.6,9.2L136.9,181z"/>
	<path id="XMLID_55_" class="st3" d="M137.7,181.1c0,0,17.5,3,26.7,0.3l-4-19.4c0,0,16.9-0.5,15.2-19.1c-1.8-18.6-14.4-14.7-24-15
		c-14.8-0.4-28.7,3.6-28.7,13.5c0,3.9,1.8,11.2,3.7,13.7c4.3,5.6,15.3,7.5,15.3,7.5l-2.1,9L137.7,181.1z"/>
	<polygon id="XMLID_54_" points="143.8,173.2 144.5,169 144.9,173.2 152.1,173.2 152.1,168.5 153.1,173.2 158.5,173.2 159.3,168.1 
		159.9,172.8 164.3,172.8 164.5,173.7 159.9,173.7 159.3,177.8 158.8,173.8 153.2,173.9 152.6,177.8 152.4,174.1 145.2,173.9 
		144.2,177.8 144.1,173.8 138.1,173.8 138.3,173.2 	"/>
	<path id="XMLID_80_" d="M148.7,155.1c0.3,0.3,0.9,0.3,1.1-0.1c0.3-0.4,0.5-1,0.4-1.7c-0.1-1.6-2.5-1.1-2.5-1.1s-0.2,0.7,0,2
		C147.8,154.5,148.4,154.8,148.7,155.1z"/>
	<path id="XMLID_81_" d="M153.7,155.1c-0.3,0.3-0.9,0.3-1.1-0.1c-0.3-0.4-0.5-1-0.4-1.7c0.1-1.6,2.5-1.1,2.5-1.1s0.2,0.7,0,2
		C154.5,154.5,154,154.8,153.7,155.1z"/>
	<ellipse id="XMLID_75_" cx="139.1" cy="143.4" rx="6.2" ry="6.6"/>
	<ellipse id="XMLID_143_" cx="163.8" cy="143.4" rx="6.2" ry="6.6"/>
	<path id="XMLID_146_" class="st4" d="M163.6,137.1c-1.6,0-3,0.7-4,1.7c0.8-0.5,1.8-0.7,2.7-0.7c3.3,0,5.9,2.9,5.9,6.5
		c0,1.9-0.7,3.6-1.9,4.7c1.9-1.1,3.2-3.2,3.2-5.7C169.5,140,166.9,137.1,163.6,137.1z"/>
	<path id="XMLID_82_" class="st4" d="M138.9,137.1c1.5,0,2.9,0.6,3.9,1.7c-0.8-0.5-1.7-0.7-2.7-0.7c-3.2,0-5.8,2.8-5.8,6.3
		c0,1.8,0.7,3.4,1.9,4.6c-1.9-1-3.1-3.1-3.1-5.5C133.1,139.9,135.7,137.1,138.9,137.1z"/>
	<path id="XMLID_145_" class="st5" d="M153.2,155.2c0,0-0.9-0.4-0.8-0.9s0.8-0.2,0.8-0.2S154.1,154.8,153.2,155.2z"/>
	<path id="XMLID_147_" class="st5" d="M149.1,155c0,0,0.9-0.4,0.8-0.9s-0.8-0.2-0.8-0.2S148.2,154.6,149.1,155z"/>
</g>
</svg>
