<svg version="1.0" xmlns="http://www.w3.org/2000/svg" width="300" height="260" style="enable-background:new 0 0 300 260" xml:space="preserve"><style>.st0{display:none}.st2,.st8,.st9{display:inline}.st8,.st9{fill:#515250}.st9{fill:#262626}.st10{fill:#fbf7cb}.st11{fill:#f3eab1}.st14{fill:#efa624}.st15{fill:#fff48b}.st16{fill:#e0c17d}.st17{fill:#cbb577}.st18{fill:#fffad9}.st19{fill:#f7f0d0}.st20{fill:#fffada}</style><g id="fireDust"><g id="subBase"><path id="XMLID_89_" class="st10" d="M82.8 196.3s-30.9-3.3-37.3-40.9c-1.5-11.2 10.8-30.2 17.2-30.2 0 0-6.5-4.4-5.4-12.2 1.1-7.9 6.5-12 10.9-12 0 0-16.7-13.3-5.5-22.5s32.5-5.2 29.5 9.6c0 0 3.9-7.9 18.1-8.1 0 0-18.5-3.1-12-20.3s35.8-12.4 35.8-12.4 5.9-16.6 21.4-15.5c11.1.9 13.3 10.9 13.3 10.9s10.9-2.4 11.1 6.1c0 0 13.4-5.7 22-2.2s13.6 20.5 13.6 20.5 21.8-10.5 27 20.3c5.2 30.7 5.5 49.7-7 51.5 0 0 7.9 11.1-9.2 16.4 0 0 22.7 18.9 10 38.5s-21.6 22.7-37.3 13.1c0 0-.4 4.5-7.6 3.6-7.2-.9-7.5-6-7.5-6s.1 4.2-6 4.2-7.9-5-7.9-5-.1 4.7-4 6.5c-3.9 1.9-8.2 1.6-8.2 1.6s-6.4 15.6-23.7 16.2c-17.2.7-26-17.8-26-17.8s-5 3.1-16.4-2.1c-11.2-4.9-8.9-11.8-8.9-11.8z"/></g><g id="subBaseEffect"><path id="XMLID_218_" class="st11" d="M87 191.9s-28.9-3.1-34.8-38.2c-1.4-10.5 10.1-28.2 16-28.2 0 0-6.1-4.1-5-11.4 1-7.3 6.1-11.2 10.2-11.2 0 0-15.6-12.4-5.1-21s30.4-4.9 27.5 9c0 0 3.7-7.3 16.9-7.5 0 0-17.3-2.8-11.2-18.9 6.1-16.1 33.4-11.6 33.4-11.6s5.5-15.5 19.9-14.5c10.4.8 12.4 10.2 12.4 10.2s10.2-2.2 10.4 5.7c0 0 12.5-5.3 20.5-2s12.7 19.1 12.7 19.1 20.4-9.8 25.2 18.9 5.1 46.4-6.5 48c0 0 7.3 10.3-8.5 15.3 0 0 21.2 17.6 9.4 36-11.8 18.3-20.2 21.2-34.8 12.2 0 0-.4 4.2-7.1 3.4-6.7-.8-7-5.6-7-5.6s.1 3.9-5.6 3.9c-5.8 0-7.3-4.7-7.3-4.7s-.1 4.3-3.7 6.1c-3.7 1.8-7.7 1.5-7.7 1.5s-6 14.5-22.1 15.1-24.4-16.5-24.4-16.5-4.7 2.8-15.3-1.9c-10.5-4.8-8.4-11.2-8.4-11.2z"/></g><g id="explosion"><g id="Calque_29_-_copie"><g id="cool_5_"><g id="XMLID_196_"><radialGradient id="XMLID_25_" cx="152.094" cy="129.854" r="135.556" gradientUnits="userSpaceOnUse"><stop offset=".657" style="stop-color:#f47621"/><stop offset="1" style="stop-color:#f15a29"/></radialGradient><path id="XMLID_197_" d="M295.9 114.1c-71.2-6.3-87.6-6.8-32.2-29.2-55.4 22.4-44.8 18.5 0-36.5-66 26-78.2 37.8-45.3-5.4-32.9 43.2-32.8 31.2-19.4-30.8-33.3 54.9-40.9 62.7-34.9 8.4-6 54.3-8.2 45.9-34.9-17.4-4.1 62.6-8.5 76.1-39.2 26.2 30.8 50 11.4 48.3-52 11.1 49.8 51.8 55 62-3 34.8 55.2 26.9 49.4 28.4-21.8 21.1 66.5 26.2 75.8 29.5 13.7 25.5C89 126 79.2 134.4 8.1 162.8c71.7-4.1 86.1-6.1 29.2 20.1 56.9-26.2 51-17.8 2.7 33.9 62.8-34.4 74.3-42 37.2 2 37.1-44 32.2-33.7 17.8 30.8 42.1-54.1 45.7-64.6 34.5-10.4 11.1-54.2 15.2-43.9 31.5 17.4 7.3-64.3 7.7-76.8 24.1-27.8-16.5-49-9.7-37 40.9 11.7-22.9-60.9-26-70.7 21.5-31.5-47.4-39.2-36.3-40.9 31.5-23.5-58.3-37.7-69-45.6-11.7-35.9-57.1-9.7-42.9-13.4 28.6-35.5zm-78.3 11.7c-36.3-.6-38.7.9-4.5 11.1-33.9-1.9-32.6 1.3 6.5 15.3-37.3-13.6-48-12-23 13.9-26.7-15.2-25.1-8.8 1.5 23.4-26.6-32.2-28.5-36.3-21.1-5.8-24.9-28.1-27.5-24.2-22.5 10.1-5-34.3-5.8-38.6-15.4-8.2-4.3-30-5.4-26.1-15.9 8.2 10.6-34.3 9.5-41.3-11.2-17.4 11.6-27.4 4.5-25.5-23.1.2 27.6-25.7 28.5-30.7-5-11.9 26.7-20.8 19.8-20.3-20.5-1 40.3-19.3 47.9-23.5 17.1-18.8 32.8-15.2 27.5-19.8-8.5-19.4 36-.3 44 .2 23.3-10.4 28.2-.9 23.6-5.3-1.7-20.1 25.3 14.8 36 15.6 29-7.7 14.8 14 12.7 3.4 3.5-30.2 9.2 33.6 14.6 39.3 20.8 10.1 3.8 28 5.4 22.9 13.1-11.4-7.7 34.3-7 37.8 6.2 7.7-8.3 30.8-3.5 30.6 14.4.3-17.9 30.3-23.6 35.5-2 16.8-12.2 25.2-1.3 24.1 30.8 4.2-32.2 19.9-32.7 24.5 3.4 10.6-31.7 15.3-27.4 16.6 12.9 3.9-40.3 12.7-48 14-15.8 9.6-32.6 11.1-32.1 14.9 7.7 16.9z" style="fill:url(#XMLID_25_)"/></g></g><path id="XMLID_187_" style="fill:#f47621" d="m77.9 165.8-15.7-13.4 26-63 40.9-37 51.5 12 37.8 23.4 11 36.8-20.7 47.2-21.8 18.9-32.6 5.6-39.9-3.7z"/></g><g id="Calque_22_-_copie_3_1_"><g id="cool_4_"><g id="XMLID_202_"><path id="XMLID_203_" class="st14" d="M260.7 118c-53.8-4.8-66.1-5.1-24.3-22-41.8 16.9-33.8 14 0-27.6-49.9 19.6-59 28.5-34.2-4-24.9 32.6-24.7 23.5-14.7-23.3-25.1 41.5-30.8 47.3-26.3 6.3-4.5 41-6.2 34.6-26.3-13.2-3.1 47.3-6.4 57.5-29.6 19.7 23.2 37.7 8.6 36.5-39.2 8.4 37.6 39.1 41.5 46.8-2.3 26.3 41.7 20.3 37.3 21.4-16.4 15.9 50.2 19.8 57.2 22.3 10.4 19.2 46.8 3.1 39.4 9.4-14.2 30.9 54.1-3.1 65-4.6 22 15.2 42.9-19.8 38.5-13.4 2 25.6 47.4-26 56.1-31.7 28.1 1.5 28-33.2 24.3-25.4 13.4 23.3 31.8-40.8 34.5-48.7 26.1-7.8 8.4-40.9 11.5-33.1 23.8 13.2 5.5-48.6 5.8-58 18.2-21-12.4-37-7.3-27.9 30.9 8.9-17.3-46-19.6-53.4 16.2-23.8-35.8-29.6-27.4-30.9 23.8-17.7-44-28.4-52.1-34.4-8.9-27.1-43.3-7.4-32.5-10.2 21.5-26.9zm-59.1 8.8c-27.4-.4-29.2.6-3.4 8.4-25.6-1.5-24.6 1 4.9 11.5-28.1-10.3-36.2-9-17.3 10.5-20.2-11.5-19-6.6 1.1 17.7-20.1-24.3-21.5-27.4-15.9-4.4-18.8-21.2-20.7-18.3-17 7.6-3.8-25.9-4.4-29.1-11.6-6.2-3.2-22.7-4-19.7-12 6.2 8-25.9 7.1-31.2-8.5-13.2 8.7-20.7 3.4-19.3-17.5.1 20.8-19.4 21.5-23.2-3.8-9 20.2-15.7 15-15.3-15.4-.8 30.4-14.6 36.1-17.8 12.9-14.2 24.8-11.5 20.7-14.9-6.5-14.7 27.2-.3 33.2.1 17.6-7.8 21.3-.7 17.8-4-1.3-15.2 19.1 11.2 27.2 11.8 21.9-5.8 11.2 10.6 9.6 2.6 2.7-22.8 6.9 25.4 11.1 29.6 15.7 7.6 2.9 21.2 4.1 17.3 9.9-8.6-5.8 25.9-5.3 28.5 4.7 5.8-6.3 23.2-2.6 23.1 10.9.3-13.5 22.9-17.8 26.8-1.5 12.7-9.2 19-1 18.2 23.3 3.2-24.3 15-24.7 18.5 2.5 8-23.9 11.6-20.6 12.5 9.7 2.9-30.4 9.6-36.3 10.6-11.9 7.2-24.7 8.7-24.3 11.5 5.8 13z"/></g></g><path id="XMLID_189_" class="st14" d="m96.1 157-11.9-10.1 19.6-47.6 31-27.9 38.8 9.1 28.5 17.7 8.4 27.7-15.7 35.7-16.4 14.2-24.6 4.2-30.1-2.8z"/></g><g id="Calque_22_-_copie_3"><g id="cool_3_"><g id="XMLID_184_"><path id="XMLID_185_" class="st15" d="M240.4 120.2c-43.7-3.9-53.8-4.2-19.8-17.9-34 13.7-27.5 11.4 0-22.4-40.6 16-48 23.2-27.8-3.3-20.2 26.5-20.1 19.1-11.9-18.9-20.4 33.7-25.1 38.5-21.4 5.1-3.7 33.4-5 28.2-21.4-10.7-2.5 38.5-5.2 46.8-24.1 16.1 18.9 30.7 7 29.7-31.9 6.8 30.6 31.8 33.8 38.1-1.9 21.4 33.9 16.5 30.4 17.4-13.4 13 40.9 16.1 46.6 18.1 8.4 15.7 38.1 2.5 32.1 7.7-11.5 25.1 44-2.5 52.9-3.7 17.9 12.4 34.9-16.1 31.3-10.9 1.6 20.8 38.6-21.1 45.6-25.8 22.9 1.2 22.8-27 19.8-20.7 10.9 18.9 25.9-33.2 28.1-39.7 21.2-6.4 6.8-33.3 9.3-26.9 19.4 10.7 4.5-39.5 4.7-47.2 14.8-17.1-10.1-30.1-6-22.7 25.1 7.2-14.1-37.4-15.9-43.4 13.2-19.4-29.1-24.1-22.3-25.1 19.4-14.4-35.8-23.1-42.4-28-7.2-22-35.1-6-26.4-8.3 17.5-21.9zm-48.1 7.2c-22.3-.4-23.8.5-2.8 6.8-20.8-1.2-20 .8 4 9.4-22.9-8.4-29.5-7.3-14.1 8.5-16.4-9.4-15.4-5.4.9 14.4-16.4-19.8-17.5-22.3-13-3.6-15.3-17.3-16.9-14.9-13.8 6.2-3.1-21.1-3.6-23.7-9.5-5-2.6-18.4-3.3-16-9.8 5 6.5-21.1 5.8-25.4-6.9-10.7 7.1-16.8 2.8-15.7-14.2.1 17-15.8 17.5-18.9-3.1-7.3 16.4-12.8 12.2-12.5-12.6-.6 24.7-11.9 29.4-14.4 10.5-11.5 20.1-9.3 16.9-12.1-5.3-11.9 22.1-.2 27.1.1 14.3-6.4 17.3-.6 14.5-3.3-1-12.4 15.5 9.1 22.1 9.6 17.8-4.7 9.1 8.6 7.8 2.1 2.2-18.5 5.6 20.6 9 24.1 12.8 6.2 2.3 17.2 3.3 14.1 8-7-4.7 21.1-4.3 23.2 3.8 4.7-5.1 18.9-2.1 18.8 8.9.2-11 18.6-14.5 21.8-1.2 10.3-7.5 15.5-.8 14.8 18.9 2.6-19.8 12.2-20.1 15.1 2.1 6.5-19.4 9.4-16.8 10.2 7.9 2.4-24.7 7.8-29.5 8.6-9.7 5.9-19.8 6.9-19.5 9.2 4.9 10.4z"/></g></g><path id="XMLID_20_" class="st15" d="m106.5 152-9.6-8.2 15.9-38.7L138 82.3l31.6 7.4 23.2 14.4 6.8 22.6-12.7 29-13.4 11.6-20 3.4-24.5-2.3z"/></g></g><g id="base"><path id="XMLID_151_" class="st10" d="M97 181.4s-24-2.6-28.9-31.7c-1.2-8.7 8.4-23.4 13.3-23.4 0 0-5-3.4-4.2-9.5.8-6.1 5.1-9.3 8.4-9.3 0 0-12.9-10.3-4.3-17.4 8.7-7.1 25.2-4.1 22.8 7.4 0 0 3-6.1 14-6.2 0 0-14.4-2.4-9.3-15.7 5.1-13.3 27.7-9.6 27.7-9.6s4.6-12.8 16.6-12c8.6.7 10.3 8.4 10.3 8.4s8.4-1.9 8.6 4.7c0 0 10.4-4.4 17-1.7s10.5 15.9 10.5 15.9 16.9-8.1 20.9 15.7 4.2 38.5-5.4 39.9c0 0 6.1 8.6-7.1 12.7 0 0 17.6 14.6 7.8 29.8S199 197 186.8 189.5c0 0-.3 3.5-5.9 2.8-5.6-.7-5.8-4.7-5.8-4.7s.1 3.3-4.7 3.3-6.1-3.9-6.1-3.9-.1 3.6-3.1 5.1c-3 1.5-6.4 1.2-6.4 1.2s-5 12-18.3 12.6-20.1-13.8-20.1-13.8-3.9 2.4-12.7-1.6-6.7-9.1-6.7-9.1z"/></g><g id="Calque_26"><g id="XMLID_90_"><path id="XMLID_117_" class="st11" d="M209.7 118.6c5.7 5.4-3 12.2-3.2 12.8 1.7 9.7-9.5 10.6-9.5 10.6 4.3 1 3.6 7.7 3.6 7.7-2.2 9.9-17 6.5-17 6.5-13.7-10.1-2.2-26.6-2.2-26.6-1.9-.4-2.2-2-2.2-2.9-.6 2.2-6.8 2.2-6.8 2.2 3.2.2 2.7 3.6 2.7 3.6s.8 17.6-9.9 23.5c-10.7 6-22.7-7.7-22.7-7.7s-.1 4.7-4.6 8.1c-4.5 3.4-9.7-.3-9.7-.3s-.3 3.3-8.9 3.7c-8.6.5-11.8-7.8-11.8-7.8s-3.3 2.7-12.5 0-.4-14.1-.4-14.1c.8-6.1-6.4-11.5-6.4-11.5-3.1.5-5.5.3-7.3-.1-5 .9-14 14.9-12.8 23.3C73 178.8 97 181.4 97 181.4s-1.8 5.3 7 9.3 12.7 1.6 12.7 1.6 6.8 14.3 20.1 13.8 18.3-12.6 18.3-12.6 3.3.2 6.4-1.2c3-1.5 3.1-5.1 3.1-5.1s1.3 3.9 6.1 3.9 4.7-3.3 4.7-3.3.2 4 5.8 4.7c5.6.7 5.9-2.8 5.9-2.8 12.2 7.4 19.1 5.1 28.9-10.1s-7.8-29.8-7.8-29.8c13.2-4.2 7.1-12.7 7.1-12.7 9.6-1.3 9.5-15.8 5.5-39.3-1.8 9.6-11.1 20.8-11.1 20.8z"/><path id="XMLID_119_" class="st11" d="M179.3 126.1v.7-.7z"/></g></g><g id="details"><g id="XMLID_138_"><path id="XMLID_140_" class="st16" d="M150.7 188.8s-7.6 10-17.9 11c-10.3 1-13.3-13.2-13.3-13.2s-3.4 1.4-11.8-1-1-22-1-22c-10.8-.2-11.7 11-12.4 11-21.3-5.7-23.5-27.9-23.6-36.6-1.9 4-3.1 8.3-2.6 11.6C73 178.8 97 181.4 97 181.4s-1.8 5.3 7 9.3 12.7 1.6 12.7 1.6 6.8 14.3 20.1 13.8 18.3-12.6 18.3-12.6 1 .1 2.5-.1l-2.9-1.3c-.7-.3-1.3-.8-1.9-1.3l-2.1-2z"/><path id="XMLID_139_" class="st16" d="M192 192c-13.4-4.7-17.3-22.3-17.3-22.3-4.1 5.1 0 16.7 0 16.7-6.1 1.6-10.3 0-10.3 0l.2.8v-.1s1.3 3.9 6.1 3.9 4.7-3.3 4.7-3.3.2 4 5.8 4.7c5.6.7 5.9-2.8 5.9-2.8 2.7 1.6 5.1 2.8 7.4 3.4-.5-.2-1.3-.6-2.5-1z"/></g><path id="XMLID_135_" class="st17" d="M137.4 96.2s6.2-6.9 19-2.5c0 0 2.3-12.5 12.6-11.4 0 0-11.6 2.6-12.1 13.9 0 0-5.2-7-19.5 0z"/><path id="XMLID_134_" class="st17" d="M212.1 88.6s-3.9 7.1-8.9 7.7c0 0 6 13.8-4.9 16.3 0 0 6.3.7 7.2-5.5.9-6.2-1.1-10.2-1.1-10.2s7.5-3.3 7.7-8.3z"/><path id="XMLID_133_" class="st17" d="M106.3 130s-1.9 6.8 6.1 6.4c0 0-.4 2.9 4 3.3s5.5-.8 5.5-.8-2.5 3-6.9 1.4-3.4-3.2-3.4-3.2-3.3.3-5.3-1.7c-2.1-2 0-5.4 0-5.4z"/><path id="XMLID_132_" class="st18" d="M138.9 120.7s5.2 9.4 13.2 6c8-3.4 8.1-11.3 8.1-11.3s5.6-3.4 1.7-7c-3.9-3.6-17 .8-17 .8s-19.3-3.5-18.3 6.8c.9 10.2 12.3 4.7 12.3 4.7z"/><path id="XMLID_131_" class="st19" d="M134.2 186.3s-7.9 2.6-10.2-4.1 5.5-5.7 5.5-5.7.7-4 7.5-3c6.8.9 7.5 3.7 7.5 3.7s5.2 1.9 2.9 6c-2.2 4.1-6.7 4.1-6.7 4.1s-1.1 1.9-3.8 1.3c-2.7-.6-2.7-2.3-2.7-2.3z"/><path id="XMLID_130_" class="st20" d="M124.7 83.5s-6.2-.3-4.8-5.9c1.4-5.6 9.5-3 9.5-3s6.4-2.7 8.8-.1-.6 5.9-.6 5.9 2.5 4.3-.8 5.2-11.4 1.6-12.1-2.1z"/><path id="XMLID_120_" class="st19" d="M202.9 178.4s-.1 5-5.4 4.3c-5.3-.7-4.3-6.9-4.3-6.9s-2.2-1.8.7-6.1c2.9-4.3 7.1-2.4 7.1-2.4s3-2.8 5 .1 1 4 1 4 .4 3.2-.9 4.8c-1.3 1.6-3.2 2.2-3.2 2.2z"/><path id="XMLID_29_" class="st17" d="M147.4 139.7s3.5 3.5 8.3 2.9c4.5-.5 7.7-4.1 7.7-4.1s-2.7 4.8-7.6 5.2c-6.7.5-8.4-4-8.4-4z"/></g></g></svg>