<svg version="1.1" id="Calque_1" xmlns="http://www.w3.org/2000/svg" x="0" y="0" viewBox="0 0 300 300" style="enable-background:new 0 0 300 300" xml:space="preserve"><style>.st0{display:none}.st1{display:inline;fill:none;stroke:#010202;stroke-width:3;stroke-miterlimit:10}.st2,.st3{enable-background:new}.st2{display:inline;opacity:.1;fill:#020304}.st3{opacity:.25}.st3,.st4{fill:#fff;stroke:#010202;stroke-width:3;stroke-miterlimit:10}.st5{fill:#c15857}.st6{display:inline}.st7,.st8{fill:#010202}.st8{opacity:.25;enable-background:new}</style><g id="Calque_12"><g id="expression"><g id="Calque_18_2_"><g id="Calque_3_2_"><path id="XMLID_21_" class="st3" d="M132.3 153h-5.6c-1.2 0-2.2-.7-2.8-1.8l-3.1-6.8c-.9-2 .5-4.3 2.8-4.3h12.1c2.2 0 3.7 2.4 2.7 4.4l-3.4 6.8c-.5 1-1.6 1.7-2.7 1.7z"/><path id="XMLID_20_" class="st4" d="M132.8 150.8h-6.6c-.9 0-1.7-.4-2.1-1.3l-3.3-6.1c-.9-1.6.3-3.5 2.1-3.5h13.6c1.9 0 3 2 2.1 3.6l-3.6 6.1c-.6.7-1.4 1.2-2.2 1.2z"/><ellipse id="XMLID_19_" class="st5" cx="129.8" cy="145.3" rx="1.9" ry="3.3"/></g><g id="Calque_3_-_copie_2_"><path id="XMLID_18_" class="st3" d="M177 153h-5.6c-1.2 0-2.2-.7-2.8-1.8l-3.1-6.8c-.9-2 .5-4.3 2.8-4.3h12.1c2.2 0 3.7 2.4 2.7 4.4l-3.4 6.8c-.5 1-1.5 1.7-2.7 1.7z"/><path id="XMLID_17_" class="st4" d="M177.5 150.8h-6.6c-.9 0-1.7-.4-2.1-1.3l-3.3-6.1c-.9-1.6.3-3.5 2.1-3.5h13.6c1.9 0 3 2 2.1 3.6l-3.6 6.1c-.5.7-1.4 1.2-2.2 1.2z"/><ellipse id="XMLID_16_" class="st5" cx="174.5" cy="145.3" rx="1.9" ry="3.3"/></g></g></g></g></svg>