<svg version="1.1" id="Layer_1" xmlns="http://www.w3.org/2000/svg" x="0" y="0" viewBox="0 0 300 200" style="enable-background:new 0 0 300 200" xml:space="preserve"><style>.st0{fill:#343738}.st2,.st3,.st4{opacity:.25;fill:#fff}.st3,.st4{fill:#191c1f}.st4{fill:#560f19;enable-background:new}.st5{fill:#a0a0a2}.st6{fill:#dddedd}.st7{fill:#cdcdcd}.st9{fill:#646869}</style><g id="Layer_3"><path id="XMLID_209_" class="st0" d="m108.7 87.8-2.2-1.5c-3.2-2.2-5.1-5.9-5.1-9.7v-5.4c0-2.8 1-5.4 2.7-7.5l.7-.8c1.4-1.7 3.3-3 5.5-3.7l18.3-6c1.2-.4 2.4-.6 3.7-.6h14.6c1 0 2 .1 2.9.4l23.6 6c4 1 7.1 4 8.4 7.9 1.7 5.5-.7 11.5-4.6 13.3l-16 8.3c-2.9 1.7-4.8 2.2-6.7 2.2h-37.2c-3.1-.2-6.1-1.2-8.6-2.9z"/><radialGradient id="XMLID_4_" cx="141.853" cy="71.479" r="29.236" gradientUnits="userSpaceOnUse"><stop offset="0" style="stop-color:#9f8e6a"/><stop offset="1" style="stop-color:#c5b798"/></radialGradient><path id="XMLID_208_" d="m111.2 86.5-2.1-1.4c-2.9-2.1-4.7-5.4-4.7-9v-5c0-2.5.9-5 2.5-7l.6-.8c1.3-1.6 3.1-2.8 5.1-3.5l16.9-5.5c1.1-.4 2.2-.5 3.4-.5h13.5c.9 0 1.8.1 2.7.3l21.8 5.6c3.7.9 6.6 3.7 7.7 7.3 1.6 5.1-.7 10.6-4.3 12.3L159.7 87c-2.7 1.6-4.4 2-6.2 2h-34.4c-2.8 0-5.6-.8-7.9-2.5z" style="fill:url(#XMLID_4_)"/><path id="XMLID_207_" class="st2" d="M178.8 67.1c-1.1-3.6-4.1-6.4-7.7-7.3l-21.8-5.6c-.9-.2-1.8-.3-2.7-.3l15.6 7c3.7.9 6.6 3.7 7.7 7.3 1.6 5.1-.7 10.6-4.3 12.3l-14.8 7.7c-.6.4-1.2.7-1.7.9h4.4c1.8 0 3.5-.4 6.2-2l14.8-7.7c3.6-1.7 5.9-7.2 4.3-12.3z"/><path id="XMLID_206_" class="st3" d="M150.8 67.9c.4-6.1-5.7-11.7-9.4-13.9H133c-1.2 0-2.3.2-3.4.5l-17 5.5c-2 .6-3.7 1.8-5.1 3.5l-.6.8c-1.6 2-2.5 4.4-2.5 7v5c0 3.6 1.8 6.9 4.7 9l2.1 1.4c2.3 1.6 5.1 2.5 8 2.5h19.9c7.1-3.8 11.3-14.1 11.7-21.3z"/><path id="XMLID_205_" class="st4" d="M176.6 68.8c-.1-1.7-2-3.1-1.7-4.8.1-.6.5-1.1 1.1-1.4-1.4-1.3-3.1-2.3-5-2.8l-12.8-3.3c.3 1 .7 1.9 1.2 2.8.9 1.8 1.8 3.8 1.5 5.8-.5 2.5-2.8 4.1-4.7 5.7-.7.6-1.4 1.2-1.7 2.1-.8 2.3 1.4 4.6 3.8 5.3 3.8 1.1 8.2-.3 10.5-3.5 1.1-1.5 2.2-3.6 4.1-3.5.4 0 .8.2 1.2.2 1.3.1 2.6-1.2 2.5-2.6z"/><path id="XMLID_204_" class="st4" d="M120.9 83.2c2.1 2.1 6.4-.1 6-3-.3-2.8-3.7-4.2-5.1-6.7-1.9-3.4 1.3-8.3 5.1-7.9 1.3.1 2.5.7 3.8.8 2.1.1 4.3-1.5 4.7-3.7.4-2-.5-4.1.5-5.9.7-1.2 2.1-2 3.2-2.9H133c-1.2 0-2.3.2-3.4.5l-17 5.6c-1 .3-2 .8-2.9 1.4-1.3 2.4-3 4.6-4.9 6.7-.3 1-.5 2-.5 3.1v5c0 2.1.6 4.1 1.7 5.8l.1-.1c1.9-2.2 2.7-5.8 5.4-6.8 3.2-1.1 6.2 2.2 7.6 5.3.6.9.9 2 1.8 2.8z"/><path id="XMLID_373_" class="st0" d="M139.9 72.2c.3 4.9-5.5 8.8-13 8.6-2.3-.1-9.1-.5-9.7-5.5-.5-4.5-3.8-.5-3.7-3.9.1-3.2 3.1 1 4.5-2.9 1.6-4.2 6.3-5.3 8.6-5.2 7.1.2 13 4.1 13.3 8.9z"/><path id="XMLID_265_" class="st0" d="M137.6 72c.2 4.1-4.6 7.4-10.9 7.3-2 0-10.5-.6-12.1-1.2-3.6-1.4.8-3.8.8-6.7.1-2.7-1.9-6.7 1.4-7.8 1.6-.5 7.7.9 9.7.9 5.9.2 10.8 3.5 11.1 7.5z"/><path id="XMLID_372_" class="st5" d="M136.2 72c.2 3.7-4.2 6.6-9.8 6.5-1.8 0-9.4-.5-10.9-1.1-3.2-1.3.7-3.4.7-6 .1-2.4-1.7-6 1.3-7 1.4-.5 6.9.8 8.6.8 5.5.2 10 3.2 10.1 6.8z"/><path id="XMLID_371_" class="st6" d="m129.6 66.1-7-1.3c-.3-.1-.6.2-.7.6-.2.7.1 1.5.6 1.6l9.8 1.5c.2 0 1.6.3 1.5-.2 0-.4-2.9-1.8-4.2-2.2z"/><path id="XMLID_370_" class="st0" d="M129.7 71.2c.1 4.2-5 7.6-11.5 7.4-6.5-.2-11.6-3.8-11.4-8.1.2-4.1 5.5-7.2 11.6-7 6.2.2 11.2 3.6 11.3 7.7z"/><path id="XMLID_369_" class="st7" d="M128.3 71.1c.1 3.7-4.4 6.6-10.1 6.5-5.7-.1-10.2-3.4-10-7.1.2-3.6 4.8-6.3 10.2-6.1 5.4.2 9.8 3.2 9.9 6.7z"/><path id="XMLID_368_" class="st0" d="m119.8 67.5-48.6-7c-1.5-.2-2.9.8-3.5 2.5-1 2.8.5 6 2.8 6.3l47.5 6c1 .1 2.9-.2 3.6-1.1.8-1 1.6-2.5.7-4.6-.4-1.2-1.4-2-2.5-2.1z"/><path id="XMLID_367_" class="st5" d="m118.7 68.1-46.3-6.3c-1.4-.2-2.8.5-3.4 1.8-1 2 .3 4.4 2.5 4.7L118 74c.9.1 1.9-.1 2.5-.8.8-.7 1.4-1.9.6-3.5-.4-.8-1.3-1.4-2.4-1.6z"/><path id="XMLID_366_" class="st6" d="m118 68.5-45.9-6.1c-1.4-.2-2.8-.1-3.4.3-1.1.6.2 1.5 2.4 1.8l46.1 5.9c.9.1 3.6.4 3.1-.5-.3-.4-1.3-1.3-2.3-1.4z"/><path id="XMLID_365_" class="st0" d="M84.8 65.8c.2 4.4-4.9 7.9-11.6 7.7-2.1-.1-11.2-.6-12.9-1.3-3.8-1.5.8-4.1.9-7.1.1-2.9-2-7.1 1.5-8.3 1.7-.6 8.2.9 10.3 1 6.3.3 11.6 3.8 11.8 8z"/><path id="XMLID_364_" class="st5" d="M83.3 65.7c.2 3.9-4.4 7-10.3 6.8-1.9 0-9.9-.6-11.4-1.2-3.4-1.3.7-3.6.8-6.3.1-2.6-1.8-6.3 1.4-7.3 1.5-.5 7.2.8 9.1.9 5.5.2 10.2 3.4 10.4 7.1z"/><path id="XMLID_363_" class="st6" d="m76.4 59.6-7-1.3c-.3-.1-.6.2-.7.6-.2.7.1 1.5.6 1.6l9.8 1.5c.2 0 1.6.3 1.5-.2 0-.4-2.9-1.8-4.2-2.2z"/><path id="XMLID_362_" class="st0" d="M76.3 64.9c.1 4.4-5.3 7.9-12 7.7-6.8-.2-12.2-4-11.9-8.5.2-4.3 5.7-7.5 12.2-7.3 6.4.3 11.6 3.8 11.7 8.1z"/><path id="XMLID_361_" class="st7" d="M74.9 64.9c.1 3.9-4.6 7-10.6 6.8-6-.2-10.8-3.6-10.5-7.5.2-3.8 5.1-6.7 10.8-6.5 5.6.3 10.2 3.4 10.3 7.2z"/><path id="XMLID_360_" class="st0" d="M70.5 64.8c.1 2.2-2.7 4-6.1 3.9-3.5-.1-6.2-2.1-6.1-4.3.1-2.2 2.9-3.8 6.2-3.7 3.2.1 5.9 2 6 4.1z"/><path id="XMLID_18_" class="st0" d="m123.1 114.8 14-11c.3-.3.7-.5 1.1-.6l64-16.4c.5-.1 1.4.6 1.9.7l29-1c1.2.2 2.3 1 2.8 2.2l5.6 14.5c.1.1.1.3.1.4 1.5 5.5.3 11.9-4.3 15.8-.4.3-1.6 1.3-3.2 2.4-1.8 1.2-3.9 2.1-6.1 2.4 0 0-92.8 3.9-103-2.9-2.9-1.7-4.5-4.5-1.9-6.5z"/><radialGradient id="XMLID_7_" cx="181.866" cy="104.252" r="42.949" gradientUnits="userSpaceOnUse"><stop offset="0" style="stop-color:#cccdcd"/><stop offset=".321" style="stop-color:#cbcbca"/><stop offset=".542" style="stop-color:#c1c1c1"/><stop offset=".732" style="stop-color:#b2b3b3"/><stop offset=".903" style="stop-color:#a0a1a3"/></radialGradient><path id="XMLID_17_" d="m124.7 113.5 13.6-10c.3-.2.7-.4 1.1-.5l62.2-14.7c.4-.1 1.4.6 1.8.6l28.2-.7c1.2.2 2.2.9 2.7 2.1l5.5 13.3c.1.1.1.3.1.4 1.5 5.1-.4 10.3-4.8 13.8-.6.5-1.3.7-2.1.7l-55.2 1.6c-.1 0-37.5.7-51.4-.4-3.1-.3-4.3-4.3-1.7-6.2z" style="fill:url(#XMLID_7_)"/><path id="XMLID_16_" class="st9" d="M227.5 114.3c-11.7.2-13.2-4.7-13.2-4.7l-5.4 4-2.4 5.8 27.6-.6c.8 0 2.4-1.8 2.9-2.3 2-1.7 2.3-3.8 3.1-6-2.8 1.7-6.3 3.7-12.6 3.8z"/><path id="XMLID_12_" class="st0" d="M189.1 93.6c-2.3 0-4.1 2-3.7 4.3l2.5 17.2.4 2c.3 1.8 1.9 3.1 3.7 3l21.7-.4c1.7 0 3.2-1.2 3.6-2.9l.6-2.8c.1-.4.1-.8.1-1.2l-.6-5.9c0-.4-.2-.8-.3-1.2l-4.5-9.7c-.6-1.3-1.9-2.1-3.3-2.1l-20.2-.3z"/><path id="XMLID_11_" d="M186.5 92.1c-2.3 0-4.1 2-3.7 4.3l2.5 17.2.4 2c.3 1.8 1.9 3.1 3.7 3l21.7-.4c1.7 0 3.2-1.2 3.6-2.9l.6-2.8c.1-.4.1-.8.1-1.2l-.6-5.9c0-.4-.2-.8-.3-1.2l-4.5-9.7c-.6-1.3-1.9-2.1-3.3-2.1l-20.2-.3z" style="fill:#101418"/><path id="XMLID_10_" class="st9" d="m215 97.5 22.1-.4-1.5-3.7-19.9-.2-1 4.4z"/><path id="XMLID_8_" class="st0" d="m240 88.6-.7-2.1c-.3-1.1-2.3-1.8-3.4-1.9l-26-2.3c-1.3-.1-2.4.7-2.9 1.8 0 .1-.1.2-.2.2l-16.1-.3c-4.2-.1-7.5 3.7-6.9 8l2.4 16.4c.6 3.3 3.5 5.7 6.9 5.7l20-.4c3.2-.1 6.7-2.1 7.4-5.2 0 0 .3-1.6.1-2.8l-.6-6c-.1-.8-.1-1.8-.3-2.2l-1-2.4c-.1-.2 0-.3.2-.3l18.4-.1c1.9-.3 3.3-4.3 2.7-6.1z"/><radialGradient id="XMLID_9_" cx="212.466" cy="98.099" r="20.642" gradientUnits="userSpaceOnUse"><stop offset="0" style="stop-color:#9f8e6a"/><stop offset="1" style="stop-color:#c5b798"/></radialGradient><path id="XMLID_6_" d="m238 89.8-.5-1.8c-.3-1-1.2-1.7-2.2-1.8l-25-2.1c-1.2-.1-2.3.7-2.6 1.7l-14.7-.1c-3.8 0-6.7 3.3-6.1 7l2.1 14.4c.6 2.9 3.2 5 6.1 5l17.8-.4c2.8-.1 5.2-2 5.9-4.8l.1-.6c.1-.6.2-1.3.1-1.9l-.5-5.1c-.1-.7-.3-1.4-.6-2l-2.1-4.5 19.7.1c1.8.1 3-1.5 2.5-3.1z" style="fill:url(#XMLID_9_)"/><path id="XMLID_5_" class="st2" d="m234.4 91.7-21.2-.1c-.9 0-1.7-.4-2-1.1l-1.4-2.6c-.7-1.2.6-2.6 2.2-2.5l22.1 1.5c.9.1 1.7.6 1.9 1.3l.5 1.3c.5 1.1-.6 2.2-2.1 2.2z"/><path id="XMLID_3_" d="M206.4 107.5c-1.8.4-4.5-5.2-6.8-8.9-1.5-2.3-1.1-11.2-3.4-12.8h-3.1c-1.1 0-2.1.3-2.9.7 0 1.5.6 4.6.1 5-1.2.8-1.7 2.3-1.6 3.7.1 1.4.6 2.7 1.1 4l-.2.4c0 1.5.5 3 1.1 4.4.6 1.4 1.2 2.9 2.3 4 .4.4.9.7 1.4 1.1 1 .8 1.7 1.7 2.7 2.5.3.2.5.4.8.6l15.5-.3c2.6-.1 4.8-1.8 5.3-4.4l.2-1c.1-.6.2-1.3.1-1.9 0 0-1.7 2.6-3.4 2.8l-9.2.1z" style="opacity:.13;fill:#343738"/><path id="XMLID_1_" class="st4" d="m219.4 84.9-4.6-.4c-1.3.5-2.4 1.6-2.9 2.9-1.2 3.4 1.2 7.7-.8 10.7-1 1.5-2.9 2.2-4.7 2.4-1.8.3-3.7.2-5.4.9-2 .7-4.2 1.7-5.7 3.3-1.5 1.2-1.3 4.2-.8 6 .2.5.4 1 .7 1.4l17.3-.3c.3-.8.8-1.5 1.5-2 1.1-.8 2.6-.8 4-1 .3-.6.6-1.2.7-1.8l.1-.6c.1-.6.2-1.3.1-1.9l-.5-5.1c-.1-.7-.3-1.4-.6-2l-2.1-4.5h4.6c.3-.7.7-1.5.9-2.2 1-2.1 0-4.6-1.8-5.8z"/><path id="XMLID_328_" class="st0" d="m83.6 119.2 13.3-10.8c.3-.3.7-.5 1.1-.6l62.9-21.2c.4-.1.9-.2 1.4-.2l28.4 2.3c1.2.1 2.3.8 2.8 2l6.2 13.2c.1.1.1.3.2.4 1.7 5.1.1 10.4-4.3 14.2-.6.5-2.2 2.3-3 2.4l-54.9 2.5c-.1 0-56.6-2.2-54.1-4.2z"/><radialGradient id="XMLID_13_" cx="142.016" cy="104.907" r="42.826" gradientUnits="userSpaceOnUse"><stop offset="0" style="stop-color:#cccdcd"/><stop offset=".321" style="stop-color:#cbcbca"/><stop offset=".542" style="stop-color:#c1c1c1"/><stop offset=".732" style="stop-color:#b2b3b3"/><stop offset=".903" style="stop-color:#a0a1a3"/></radialGradient><path id="XMLID_327_" d="m84.3 119 13.1-10.6c.3-.3.7-.4 1-.6l62.1-21c.4-.1.9-.2 1.4-.2l28.1 2.3c1.2.1 2.3.8 2.8 1.9l6.1 13c.1.1.1.3.2.4 1.7 5 .1 10.3-4.2 14-.6.5-2.2 2.3-2.9 2.3l-54.2 2.5c-.1.2-55.9-2-53.5-4z" style="fill:url(#XMLID_13_)"/><path id="XMLID_326_" class="st9" d="M188.6 109.9c-11.7.2-14.2-3.1-14.2-3.1l-7.6 8.6-11.8 6.9 37-1.7c.8 0 2.4-1.8 2.9-2.3 2-1.7 4.1-8.7 4.9-10.8-2.8 1.7-4.8 2.3-11.2 2.4z"/><path id="XMLID_322_" class="st9" d="m172.8 97.3 22.5.2-1.6-3.9-19.9-1.2-1.2 4.3z"/><path id="XMLID_309_" d="m84.3 119 13.1-10.6c.3-.3.7-.4 1-.6l62.1-21c.4-.1.9-.2 1.4-.2l28.1 2.3c1.2.1 2.3.8 2.8 1.9l6.1 13c.1.1.1.3.2.4 1.7 5 .1 10.3-4.2 14-.6.5-2.2 2.3-2.9 2.3l-54.2 2.5c-.1.2-55.9-2-53.5-4z" style="fill:none;stroke:#343738;stroke-width:2;stroke-miterlimit:10"/><path id="XMLID_305_" d="m79.7 118.1-6.9-12.2 97.4-14.4 3.7 10.5c.6 1.8.8 3.8.5 5.8-.9 5.9-5.3 10.5-11.1 12.1-4.1 1.1-10.4 2.6-17.3 3.4l-52.8 3.6c-6-1.2-11-4.4-13.5-8.8z" style="fill:#343738;stroke:#343738;stroke-width:2;stroke-miterlimit:10"/><path id="XMLID_284_" d="m173.8 102-3.7-10.5-73.6 10.9-18.7 6c-1.1.3-2 .9-2.7 1.7l4.6 8.1c.6 1.1 1.4 2.2 2.4 3.1l84.1-9.4c2.3-.3 4.3-1.7 5.3-3.8l2.6-5.4c-.1-.3-.2-.5-.3-.7z" style="opacity:.75"/><path id="XMLID_101_" class="st0" d="m197.9 89-.7-2c-.3-1.1-3-2.6-4.1-2.7l-22.7-3.2h-.5c-.5-.2-1-.4-1.5-.5l-13.8-2.5c-1.1-.2-2.3-.1-3.3.3l-80.1 25.9c-3.9 1.3-5.9 7.3-4.2 11.3 1.2 3 4.2 4.9 7.3 4.5l90.1-10.7c2.4-.3 4.5-1.9 5.6-4.2l4.8-10.7c.3-.7.3-.9.3-.9l18.9 1c1.9.2 4.3-3.7 3.9-5.6z"/><radialGradient id="XMLID_14_" cx="132.952" cy="99.197" r="46.593" gradientUnits="userSpaceOnUse"><stop offset="0" style="stop-color:#9f8e6a"/><stop offset="1" style="stop-color:#c5b798"/></radialGradient><path id="XMLID_100_" d="m196 90-.5-1.8c-.3-1-1.1-1.7-2.1-1.9L168.5 83h-.5c-.4-.2-.9-.3-1.4-.4l-13.1-2.2c-1.1-.2-2.1-.1-3.2.2L74.5 105c-3.7 1.2-5.7 5.4-4.1 9 1.2 2.7 4 4.4 6.9 4l85.5-9.6c2.3-.3 4.3-1.7 5.3-3.8l4.6-9.6c.5-1 .7-2 .6-3l20.1 1.1c1.7.1 3-1.4 2.6-3.1z" style="fill:url(#XMLID_14_)"/><path id="XMLID_96_" class="st2" d="m192.6 92.1-18.5-1c-.8 0-1.4-.5-1.7-1.1l-1.1-2.6c-.5-1.2.6-2.5 2.1-2.3l19.2 2.4c.8.1 1.4.6 1.6 1.3l.4 1.2c.3 1.1-.7 2.2-2 2.1z"/><path id="XMLID_59_" class="st3" d="M166 85.3c-.4-.1-.9-.2-1.3-.3l-12.5-1.6c-1-.1-2 0-3 .2l-72.7 22c-3.5 1-5.3 4.5-3.8 7.4 1.1 2.2 3.8 3.5 6.6 3.2l80.9-9.3c2.2-.2 4.1-1.4 5-3.2l4.2-7.9c.4-.8.6-1.6.6-2.5.1 0-3.8-8-4-8z"/><g id="Calque_4_-_copie_3_2_"><path id="XMLID_57_" class="st4" d="m77.3 118.1 50.4-5.6c0-.7-.1-1.4-.3-2.1-.6-2.4-2.7-4.6-5.3-4.6-3 0-5.8 2.9-8.6 1.8-2-.8-2.8-3.2-4.2-4.9-2.1-2.7-6.8-3.4-8.9-.7-2.3 2.8-.6 7.5-2.9 10.3-1.5 1.9-4.5 2.2-6.8 1.2-2.3-1-3.9-3-5.3-5-.6-.9-1.2-1.9-2.1-2.6-2.5-2-6.5-1.1-8.4 1.5-1.8 2.6-1.7 6.3-.2 9.1.4.7.8 1.3 1.4 1.8.4-.2.8-.2 1.2-.2z"/><path id="XMLID_55_" class="st4" d="M173.9 85.4c-2.5-.8-5.5.6-6.4 3.1-1.2 3.4 1.2 7.7-.8 10.7-1 1.5-2.9 2.2-4.7 2.4-1.8.3-3.7.2-5.4.9-2 .7-4.2 1.7-5.7 3.3-1.1.8-1.3 2.6-1.1 4.1l13-1.5c2.3-.3 4.3-1.7 5.3-3.8l4.6-9.6c.5-1 .7-2 .6-3l3.6.2c.1-.1.1-.3.1-.4.9-2.5-.6-5.5-3.1-6.4z"/><path id="XMLID_42_" class="st4" d="M146 103.8c-.5-2.2-2.3-4.6-.9-6.4 1-1.2 2.9-1 4.4-.9 1.6.1 3.6-.3 3.9-1.9.2-1.5-1.7-3.5-2.7-3.3-.9 0-1.7-2.7-1.2-3.4 1.2-1.7 2.6-3.2 3.3-5.2.3-.7.4-1.5.4-2.3-1-.1-1.9 0-2.8.3L118.3 91c-.1 2 .5 4 1.6 5.6 1.6 2.2 4.4 3.5 7.1 2.9.7-.2 1.4-.4 2.1-.3.5.1.9.4 1.2.7 1.7 1.5 2.7 3.8 2.6 6.1-.1 1.6-.6 3.3.1 4.7.2.4.5.8.9 1.1l8.1-.9c2.5-1.7 4.5-4.3 4-7.1z"/></g></g></svg>