<?xml version="1.0" encoding="utf-8"?>
<!-- Generator: Adobe Illustrator 19.0.0, SVG Export Plug-In . SVG Version: 6.00 Build 0)  -->
<svg version="1.0" id="Calque_51" xmlns="http://www.w3.org/2000/svg" xmlns:xlink="http://www.w3.org/1999/xlink" x="0px" y="0px"
	 viewBox="0 0 100 150" style="enable-background:new 0 0 100 150;" xml:space="preserve">
<style type="text/css">
	.st0{display:none;stroke:#FFFFFF;stroke-miterlimit:10;}
	.st1{fill:none;stroke:#377EBA;stroke-width:10;stroke-miterlimit:10;}
	.st2{fill:none;stroke:#337EBC;stroke-width:10;stroke-miterlimit:10;}
	.st3{fill:none;stroke:#73A5D8;stroke-width:8;stroke-miterlimit:10;}
	.st4{fill:#71A4D8;}
</style>
<rect id="XMLID_2_" class="st0" width="100" height="150"/>
<g id="Calque_5">
	<g id="Calque_6">
		<path id="XMLID_15_" class="st1" d="M59.9,64l-5.7-9.8c-1.5-2.5-4.1-4.1-7.1-4.1H35.8c-2.9,0-5.6,1.6-7.1,4.1L23.1,64
			c-1.5,2.5-1.5,5.6,0,8.1l5.7,9.8c1.5,2.5,4.1,4.1,7.1,4.1h3.5c0.4-0.4,0.8-0.8,1.3-1.1c0.2-0.1,0.4-0.2,0.6-0.3
			c-0.3-1.2,10-16.5,11.4-17.4c1-0.6,2.8-0.3,3.8-0.2c1.4-0.4,2.9-0.6,4.4-0.5C60.6,65.6,60.3,64.8,59.9,64z"/>
		<path id="XMLID_14_" class="st2" d="M59.9,62.2l-5.7-9.8c-1.5-2.5-4.1-4.1-7.1-4.1H35.8c-2.9,0-5.6,1.6-7.1,4.1l-5.7,9.8
			c-1.5,2.5-1.5,5.6,0,8.1l5.7,9.8c1.5,2.5,4.1,4.1,7.1,4.1h5.3c-0.2-1,9.6-16.7,11-17.6c1-0.6,3.3,0.3,4.2,0.3
			c1.5-0.4,3-0.6,4.6-0.5C61,65,60.6,63.5,59.9,62.2z"/>
		<path id="XMLID_16_" class="st3" d="M59.9,62.2l-5.7-9.8c-1.5-2.5-4.1-4.1-7.1-4.1H35.8c-2.9,0-5.6,1.6-7.1,4.1l-5.7,9.8
			c-1.5,2.5-1.5,5.6,0,8.1l5.7,9.8c1.5,2.5,4.1,4.1,7.1,4.1h5.3c-0.2-1,9.8-16.3,11.2-17.2c1-0.6,3.1-0.2,4-0.1
			c1.5-0.4,3-0.6,4.6-0.5C61,65,60.6,63.5,59.9,62.2z"/>
	</g>
	<rect id="XMLID_12_" x="36.8" y="45.9" class="st4" width="9.3" height="4.8"/>
</g>
<g id="Calque_5_-_copie">
	<g id="Calque_6_-_copie">
		<path id="XMLID_10_" class="st1" d="M48.4,100l-5.7-9.8c-1.5-2.5-1.5-5.6,0-8.1l5.7-9.8c1.5-2.5,4.1-4.1,7.1-4.1h11.3
			c2.9,0,5.6,1.6,7.1,4.1l5.7,9.8c1.5,2.5,1.5,5.6,0,8.1l-5.7,9.8c-1.5,2.5-4.1,4.1-7.1,4.1H55.4C52.5,104.1,49.8,102.5,48.4,100z"
			/>
		<path id="XMLID_9_" class="st2" d="M48.4,98.2l-5.7-9.8c-1.5-2.5-1.5-5.6,0-8.1l5.7-9.8c1.5-2.5,4.1-4.1,7.1-4.1h11.3
			c2.9,0,5.6,1.6,7.1,4.1l5.7,9.8c1.5,2.5,1.5,5.6,0,8.1l-5.7,9.8c-1.5,2.5-4.1,4.1-7.1,4.1H55.4C52.5,102.3,49.8,100.8,48.4,98.2z"
			/>
		<path id="XMLID_8_" class="st3" d="M48.4,98.2l-5.7-9.8c-1.5-2.5-1.5-5.6,0-8.1l5.7-9.8c1.5-2.5,4.1-4.1,7.1-4.1h11.3
			c2.9,0,5.6,1.6,7.1,4.1l5.7,9.8c1.5,2.5,1.5,5.6,0,8.1l-5.7,9.8c-1.5,2.5-4.1,4.1-7.1,4.1H55.4C52.5,102.3,49.8,100.8,48.4,98.2z"
			/>
	</g>
	<rect id="XMLID_4_" x="56.4" y="64" class="st4" width="9.3" height="4.8"/>
</g>
</svg>
