<?xml version="1.0" encoding="utf-8"?>
<!-- Generator: Adobe Illustrator 19.0.0, SVG Export Plug-In . SVG Version: 6.00 Build 0)  -->
<svg version="1.0" xmlns="http://www.w3.org/2000/svg" xmlns:xlink="http://www.w3.org/1999/xlink" x="0px" y="0px"
	 viewBox="0 0 100 150" style="enable-background:new 0 0 100 150;" xml:space="preserve">
<style type="text/css">
	.st0{display:none;stroke:#FFFFFF;stroke-miterlimit:10;}
	.st1{opacity:0.5;fill:url(#XMLID_16_);}
	.st2{fill:none;stroke:#377EBA;stroke-width:10;stroke-miterlimit:10;}
	.st3{fill:none;stroke:#337EBC;stroke-width:10;stroke-miterlimit:10;}
	.st4{fill:none;stroke:#73A5D8;stroke-width:8;stroke-miterlimit:10;}
	.st5{fill:#327EBC;}
	.st6{fill:#73A5D8;}
	.st7{fill:none;stroke:#337EBC;stroke-miterlimit:10;}
	.st8{fill:#71A4D8;}
	.st9{display:none;}
	.st10{stroke:#FFFFFF;stroke-miterlimit:10;}
	.st11{display:inline;fill:none;stroke:#C1C1C0;stroke-width:10;stroke-miterlimit:10;}
	.st12{display:inline;fill:none;stroke:#EDEDED;stroke-width:10;stroke-miterlimit:10;}
	.st13{display:inline;}
	.st14{fill:#C1C1C0;}
	.st15{fill:#EDEDED;}
</style>
<g id="Calque_51">
	<rect id="XMLID_2_" class="st0" width="100" height="150"/>
	<radialGradient id="XMLID_16_" cx="50" cy="76" r="30" gradientUnits="userSpaceOnUse">
		<stop  offset="0" style="stop-color:#000000;stop-opacity:0"/>
		<stop  offset="0.8587" style="stop-color:#000000;stop-opacity:0.8157"/>
		<stop  offset="1" style="stop-color:#000000;stop-opacity:0.95"/>
	</radialGradient>
	<circle id="XMLID_13_" class="st1" cx="50" cy="76" r="30"/>
	<path id="XMLID_4_" class="st2" d="M28.7,101.2l-9.5-16.4c-2.4-4.2-2.4-9.4,0-13.6l9.5-16.4c2.4-4.2,6.9-6.8,11.8-6.8h18.9
		c4.9,0,9.4,2.6,11.8,6.8l9.5,16.4c2.4,4.2,2.4,9.4,0,13.6l-9.5,16.4c-2.4,4.2-6.9,6.8-11.8,6.8H40.5
		C35.7,108,31.2,105.4,28.7,101.2z"/>
	<path id="XMLID_6_" class="st3" d="M28.7,98.2l-9.5-16.4c-2.4-4.2-2.4-9.4,0-13.6l9.5-16.4c2.4-4.2,6.9-6.8,11.8-6.8h18.9
		c4.9,0,9.4,2.6,11.8,6.8l9.5,16.4c2.4,4.2,2.4,9.4,0,13.6l-9.5,16.4c-2.4,4.2-6.9,6.8-11.8,6.8H40.5C35.7,105,31.2,102.4,28.7,98.2
		z"/>
	<path id="XMLID_11_" class="st4" d="M28.7,98.2l-9.5-16.4c-2.4-4.2-2.4-9.4,0-13.6l9.5-16.4c2.4-4.2,6.9-6.8,11.8-6.8h18.9
		c4.9,0,9.4,2.6,11.8,6.8l9.5,16.4c2.4,4.2,2.4,9.4,0,13.6l-9.5,16.4c-2.4,4.2-6.9,6.8-11.8,6.8H40.5C35.7,105,31.2,102.4,28.7,98.2
		z"/>
	<g id="Calque_2">
		<path id="XMLID_5_" class="st5" d="M68.6,67.5c-1.4-1.4-4.3,1.9-5.7,3.4l-9.3,9.3V33.7c0-2-1.7-3.7-3.7-3.7s-3.7,1.6-3.7,3.7v46.5
			l-9.3-9.3c-1.4-1.4-4.1-5-5.5-3.6c-1.4,1.4-1.1,7.4,0.3,8.8l15.5,15.5c0,0,0,0,0,0c0.5,0.5,1.1,0.8,1.8,1c0,0,0,0,0.1,0
			c0.2,0,0.5,0.1,0.7,0.1c0,0,0,0,0,0s0,0,0,0c0.2,0,0.5,0,0.7-0.1c0,0,0,0,0.1,0c0.7-0.1,1.3-0.5,1.8-1c0,0,0,0,0,0l15.5-15.5
			C69.5,74.6,70,68.9,68.6,67.5z"/>
		<path id="XMLID_1_" class="st6" d="M68.1,66.9c-1.4-1.4-3.8-1.4-5.2,0l-9.3,9.3V29.7c0-2-1.7-3.7-3.7-3.7s-3.7,1.6-3.7,3.7v46.5
			l-9.3-9.3c-1.4-1.4-3.8-1.4-5.2,0c-1.4,1.4-1.4,3.8,0,5.2l15.5,15.5c0,0,0,0,0,0c0.5,0.5,1.1,0.8,1.8,1c0,0,0,0,0.1,0
			c0.2,0,0.5,0.1,0.7,0.1c0,0,0,0,0,0s0,0,0,0c0.2,0,0.5,0,0.7-0.1c0,0,0,0,0.1,0c0.7-0.1,1.3-0.5,1.8-1c0,0,0,0,0,0l15.5-15.5
			C69.5,70.6,69.5,68.3,68.1,66.9z"/>
		<path id="XMLID_12_" class="st7" d="M68.1,66.9c-1.4-1.4-3.8-1.4-5.2,0l-9.3,9.3V29.7c0-2-1.7-3.7-3.7-3.7s-3.7,1.6-3.7,3.7v46.5
			l-9.3-9.3c-1.4-1.4-3.8-1.4-5.2,0c-1.4,1.4-1.4,3.8,0,5.2l15.5,15.5c0,0,0,0,0,0c0.5,0.5,1.1,0.8,1.8,1c0,0,0,0,0.1,0
			c0.2,0,0.5,0.1,0.7,0.1c0,0,0,0,0,0s0,0,0,0c0.2,0,0.5,0,0.7-0.1c0,0,0,0,0.1,0c0.7-0.1,1.3-0.5,1.8-1c0,0,0,0,0,0l15.5-15.5
			C69.5,70.6,69.5,68.3,68.1,66.9z"/>
	</g>
	<rect id="XMLID_14_" x="42.2" y="41" class="st8" width="15.6" height="8"/>
</g>
<g id="Calque_51_-_copie" class="st9">
	<rect id="XMLID_10_" class="st10" width="100" height="150"/>
	<path id="XMLID_9_" class="st11" d="M28.7,101.2l-9.5-16.4c-2.4-4.2-2.4-9.4,0-13.6l9.5-16.4c2.4-4.2,6.9-6.8,11.8-6.8h18.9
		c4.9,0,9.4,2.6,11.8,6.8l9.5,16.4c2.4,4.2,2.4,9.4,0,13.6l-9.5,16.4c-2.4,4.2-6.9,6.8-11.8,6.8H40.5
		C35.7,108,31.2,105.4,28.7,101.2z"/>
	<path id="XMLID_8_" class="st12" d="M28.7,98.2l-9.5-16.4c-2.4-4.2-2.4-9.4,0-13.6l9.5-16.4c2.4-4.2,6.9-6.8,11.8-6.8h18.9
		c4.9,0,9.4,2.6,11.8,6.8l9.5,16.4c2.4,4.2,2.4,9.4,0,13.6l-9.5,16.4c-2.4,4.2-6.9,6.8-11.8,6.8H40.5C35.7,105,31.2,102.4,28.7,98.2
		z"/>
	<g id="Calque_2_-_copie" class="st13">
		<path id="XMLID_7_" class="st14" d="M68.6,67.5c-1.4-1.4-4.3,1.9-5.7,3.4l-9.3,9.3V33.7c0-2-1.7-3.7-3.7-3.7s-3.7,1.6-3.7,3.7
			v46.5l-9.3-9.3c-1.4-1.4-4.1-5-5.5-3.6c-1.4,1.4-1.1,7.4,0.3,8.8l15.5,15.5c0,0,0,0,0,0c0.5,0.5,1.1,0.8,1.8,1c0,0,0,0,0.1,0
			c0.2,0,0.5,0.1,0.7,0.1c0,0,0,0,0,0s0,0,0,0c0.2,0,0.5,0,0.7-0.1c0,0,0,0,0.1,0c0.7-0.1,1.3-0.5,1.8-1c0,0,0,0,0,0l15.5-15.5
			C69.5,74.6,70,68.9,68.6,67.5z"/>
		<path id="XMLID_3_" class="st15" d="M68.1,66.9c-1.4-1.4-3.8-1.4-5.2,0l-9.3,9.3V29.7c0-2-1.7-3.7-3.7-3.7s-3.7,1.6-3.7,3.7v46.5
			l-9.3-9.3c-1.4-1.4-3.8-1.4-5.2,0c-1.4,1.4-1.4,3.8,0,5.2l15.5,15.5c0,0,0,0,0,0c0.5,0.5,1.1,0.8,1.8,1c0,0,0,0,0.1,0
			c0.2,0,0.5,0.1,0.7,0.1c0,0,0,0,0,0s0,0,0,0c0.2,0,0.5,0,0.7-0.1c0,0,0,0,0.1,0c0.7-0.1,1.3-0.5,1.8-1c0,0,0,0,0,0l15.5-15.5
			C69.5,70.6,69.5,68.3,68.1,66.9z"/>
	</g>
</g>
<g id="energy">
</g>
</svg>
