<svg version="1.0" id="Calque_52" xmlns="http://www.w3.org/2000/svg" x="0" y="0" width="100" height="150" style="enable-background:new 0 0 100 150" xml:space="preserve"><style>.st0{fill:#2aace3}</style><g id="camouflage"><g id="圖層_10"><path id="XMLID_41_" class="st0" d="m45.1 46.1 7.6-.6s-.9 2.9.9 2.9c1.8.1 6.6 1.4 5.8 4-.8 2.6-3 2.4-4 1.9s-4.2-2.8-5.2-.9c-.9 1.8-.6 4 0 6.1.7 2.1-1.1 4.4-2.8 5.4-1.6.9-3.6.4-4.8-.6-1.1-1-2.1-2.3-1.4-4.5.3-1 .7-2.1-.6-2.1-1.3 0-2.5.8-3 3.4-.5 2.6-1.6 4.6-4 5-2.4.4-7.6-2.6-7.7-6.1-.1-3.5 6.3-10.2 10.4-10.2s7.4-.4 8.8-3.7z"/><circle id="XMLID_2_" cx="50" cy="75" r="29.5" style="fill:none;stroke:#1d75bc;stroke-width:5;stroke-miterlimit:10"/><circle id="XMLID_40_" cx="50" cy="75" r="28.5" style="fill:none;stroke:#2aace3;stroke-width:4;stroke-miterlimit:10"/><path id="XMLID_39_" class="st0" d="M66.5 54.2s-3.3 1.7-3.7 3.3c-.4 1.6-1.4 3.3.9 7s-.9 4.6-2 3.7-3.3-6.3-6.9-3.4-1.3 8 2.1 8.9 9.1 1.6 9.5 4.7-1.1 11.2 3.4 13.6 6.3-11.2 6.3-11.2-4.3-2.5-4.1-4.4c.2-1.8.8-3.4 4.3-3.2.6 0 1.2.1 1.3-.3.4-1.6-2.2-6.4-2.1-6.4 0 0-4 .7-4.2-1.6-.2-2.4 1.6-4.2 1.6-4.2s-5.6-6.9-5.6-6.6"/><path id="XMLID_38_" class="st0" d="M22.7 68.7s2.8 1.2 2.4 2.9-2.5 7.5 0 7.7c2.6.2 3.5-1.2 6-5.2s8.8-6.5 10-5.5c1.2 1 2.9 3.5-2.2 6.3-5.2 2.8-4 5.4-4 5.4s1.8 4.4 9 .7 11.6.5 12.4 1.8c.8 1.3 3.4 6.7-1.8 7.3s-8.8-6.5-14.6-3.5c-5.8 3-9.9 7.3-11.5 6.3-1.6-.8-8.9-11.2-5.7-24.2z"/><path id="XMLID_36_" class="st0" d="M32.9 97.2s1.2-1.9 3.6-2.3c2.4-.4 4.4 1.8 4.4 1.8s1.2 4 4.2 3.2c3-.8 3.7-1.1 2.1-2.9-1.5-1.8-2.5-4.1 1.2-5.2 3.7-1.1 4.5 1.5 4.5 3.3 0 1.8 1.3 4.2 4.3 1.9 3-2.3 2.4-5.5 6.5-5.2 4.1.4 4.4 5.3 4.4 5.3s-8.8 6.6-15.5 6.4c-6.7-.1-18.9-3.3-19.7-6.3z"/></g></g></svg>