<?xml version="1.0" encoding="utf-8"?>
<!-- Generator: Adobe Illustrator 19.0.0, SVG Export Plug-In . SVG Version: 6.00 Build 0)  -->
<svg version="1.0" id="Calque_52" xmlns="http://www.w3.org/2000/svg" xmlns:xlink="http://www.w3.org/1999/xlink" x="0px" y="0px" width="100px" height="150px"
	 viewBox="0 0 100 150" style="enable-background:new 0 0 100 150;" xml:space="preserve">
<style type="text/css">
	.st0{fill:#2AACE3;}
	.st1{fill:none;stroke:#1D75BC;stroke-width:5;stroke-miterlimit:10;}
	.st2{fill:none;stroke:#2AACE3;stroke-width:4;stroke-miterlimit:10;}
</style>
<g id="camouflage">
	<g id="圖層_10">
		<path id="XMLID_41_" class="st0" d="M45.1,46.1l7.6-0.6c0,0-0.9,2.9,0.9,2.9c1.8,0.1,6.6,1.4,5.8,4c-0.8,2.6-3,2.4-4,1.9
			s-4.2-2.8-5.2-0.9c-0.9,1.8-0.6,4,0,6.1c0.7,2.1-1.1,4.4-2.8,5.4c-1.6,0.9-3.6,0.4-4.8-0.6c-1.1-1-2.1-2.3-1.4-4.5
			c0.3-1,0.7-2.1-0.6-2.1c-1.3,0-2.5,0.8-3,3.4c-0.5,2.6-1.6,4.6-4,5c-2.4,0.4-7.6-2.6-7.7-6.1c-0.1-3.5,6.3-10.2,10.4-10.2
			S43.7,49.4,45.1,46.1z"/>
		<circle id="XMLID_2_" class="st1" cx="50" cy="75" r="29.5"/>
		<circle id="XMLID_40_" class="st2" cx="50" cy="75" r="28.5"/>
		<path id="XMLID_39_" class="st0" d="M66.5,54.2c0,0-3.3,1.7-3.7,3.3c-0.4,1.6-1.4,3.3,0.9,7c2.3,3.7-0.9,4.6-2,3.7
			s-3.3-6.3-6.9-3.4s-1.3,8,2.1,8.9s9.1,1.6,9.5,4.7S65.3,89.6,69.8,92s6.3-11.2,6.3-11.2s-4.3-2.5-4.1-4.4c0.2-1.8,0.8-3.4,4.3-3.2
			c0.6,0,1.2,0.1,1.3-0.3c0.4-1.6-2.2-6.4-2.1-6.4c0,0-4,0.7-4.2-1.6c-0.2-2.4,1.6-4.2,1.6-4.2s-5.6-6.9-5.6-6.6"/>
		<path id="XMLID_38_" class="st0" d="M22.7,68.7c0,0,2.8,1.2,2.4,2.9s-2.5,7.5,0,7.7c2.6,0.2,3.5-1.2,6-5.2c2.5-4,8.8-6.5,10-5.5
			c1.2,1,2.9,3.5-2.2,6.3c-5.2,2.8-4,5.4-4,5.4s1.8,4.4,9,0.7s11.6,0.5,12.4,1.8c0.8,1.3,3.4,6.7-1.8,7.3s-8.8-6.5-14.6-3.5
			c-5.8,3-9.9,7.3-11.5,6.3C26.8,92.1,19.5,81.7,22.7,68.7z"/>
		<path id="XMLID_36_" class="st0" d="M32.9,97.2c0,0,1.2-1.9,3.6-2.3c2.4-0.4,4.4,1.8,4.4,1.8s1.2,4,4.2,3.2c3-0.8,3.7-1.1,2.1-2.9
			c-1.5-1.8-2.5-4.1,1.2-5.2c3.7-1.1,4.5,1.5,4.5,3.3c0,1.8,1.3,4.2,4.3,1.9c3-2.3,2.4-5.5,6.5-5.2c4.1,0.4,4.4,5.3,4.4,5.3
			s-8.8,6.6-15.5,6.4C45.9,103.4,33.7,100.2,32.9,97.2z"/>
	</g>
</g>
</svg>
