<?xml version="1.0" encoding="utf-8"?>
<!-- Generator: Adobe Illustrator 19.0.0, SVG Export Plug-In . SVG Version: 6.00 Build 0)  -->
<svg version="1.0" xmlns="http://www.w3.org/2000/svg" xmlns:xlink="http://www.w3.org/1999/xlink" x="0px" y="0px"
	 viewBox="0 0 100 150" style="enable-background:new 0 0 100 150;" xml:space="preserve">
<style type="text/css">
	.st0{display:none;}
	.st1{display:inline;}
	.st2{fill:none;stroke:#FFFFFF;stroke-width:4;stroke-miterlimit:10;}
	.st3{display:inline;fill:#FFFFFF;}
	.st4{font-family:'FranklinGothic-Medium';}
	.st5{font-size:47.6478px;}
	.st6{fill:#C587BB;}
	.st7{fill:url(#XMLID_4_);}
	.st8{opacity:0.1;fill:url(#XMLID_5_);}
	.st9{opacity:0.5;fill:url(#XMLID_6_);}
	.st10{opacity:0.5;fill:url(#XMLID_7_);}
	.st11{opacity:0.1;fill:url(#XMLID_8_);}
	.st12{opacity:0.1;fill:url(#XMLID_9_);}
	.st13{opacity:0.1;fill:url(#XMLID_10_);}
	.st14{opacity:0.5;fill:url(#XMLID_11_);}
	.st15{opacity:0.5;fill:url(#XMLID_12_);}
</style>
<g id="Calque_52">
	<g id="money" class="st0">
		<g id="圖層_3_1_" class="st1">
			<g id="圖層_23_2_">
				<g id="XMLID_225_">
					<path id="XMLID_227_" class="st2" d="M64.5,104.5l-27.9-0.1c-2.2,0-4.2-1.2-5.3-3L17.3,77.9c-1.1-1.8-1.1-4.1,0-5.9l14-23.5
						c1.1-1.8,3.1-3,5.3-3l27.9,0.1c2.2,0,4.2,1.2,5.3,3l13.9,23.5c1.1,1.8,1.1,4.1,0,5.9l-14,23.5
						C68.7,103.3,66.6,104.5,64.5,104.5z"/>
				</g>
			</g>
		</g>
		<text id="XMLID_214_" transform="matrix(1 0 0 1 36.8738 91.1697)" class="st3 st4 st5">S</text>
		<path id="XMLID_213_" class="st3" d="M50.2,55L50.2,55c-1.2,0-2.2,1-2.2,2.2v35.5c0,1.2,1,2.2,2.2,2.2h0c1.2,0,2.2-1,2.2-2.2V57.2
			C52.4,56,51.4,55,50.2,55z"/>
	</g>
</g>
<g id="diamond">
	<polygon id="XMLID_2_" class="st6" points="77.3,68.4 51,104.4 24.6,68.4 33.3,55 69.1,55 	"/>
	<radialGradient id="XMLID_4_" cx="50.6921" cy="78.0153" r="21.7656" gradientUnits="userSpaceOnUse">
		<stop  offset="0" style="stop-color:#8C3293"/>
		<stop  offset="0.665" style="stop-color:#D84F9C"/>
		<stop  offset="1" style="stop-color:#D84698"/>
	</radialGradient>
	<polygon id="XMLID_1_" class="st7" points="73.1,68.4 50.7,99.1 28.2,68.4 35.6,57 66.1,57 	"/>
	<linearGradient id="XMLID_5_" gradientUnits="userSpaceOnUse" x1="50.9699" y1="68.8263" x2="50.9699" y2="97.997">
		<stop  offset="0" style="stop-color:#F6A8CA"/>
		<stop  offset="9.993196e-002" style="stop-color:#F7BAD5;stop-opacity:0.9001"/>
		<stop  offset="0.2547" style="stop-color:#FAD2E4;stop-opacity:0.7453"/>
		<stop  offset="0.417" style="stop-color:#FCE5EF;stop-opacity:0.583"/>
		<stop  offset="0.588" style="stop-color:#FEF2F7;stop-opacity:0.412"/>
		<stop  offset="0.7736" style="stop-color:#FFFBFC;stop-opacity:0.2264"/>
		<stop  offset="1" style="stop-color:#FFFFFF;stop-opacity:0"/>
	</linearGradient>
	<polygon id="XMLID_189_" class="st8" points="38.8,68.8 63.1,68.8 50.3,98 	"/>
	<linearGradient id="XMLID_6_" gradientUnits="userSpaceOnUse" x1="39.9298" y1="68.8263" x2="39.9298" y2="97.997">
		<stop  offset="0" style="stop-color:#71294E"/>
		<stop  offset="1" style="stop-color:#72294F;stop-opacity:0"/>
	</linearGradient>
	<polygon id="XMLID_188_" class="st9" points="37.8,68.8 29.7,68.8 50.2,98 	"/>
	
		<linearGradient id="XMLID_7_" gradientUnits="userSpaceOnUse" x1="127.1546" y1="68.8263" x2="127.1546" y2="97.997" gradientTransform="matrix(-1 0 0 1 188.796 0)">
		<stop  offset="0" style="stop-color:#71294E"/>
		<stop  offset="1" style="stop-color:#72294F;stop-opacity:0"/>
	</linearGradient>
	<polygon id="XMLID_194_" class="st10" points="63.7,68.8 71.9,68.8 51.4,98 	"/>
	<linearGradient id="XMLID_8_" gradientUnits="userSpaceOnUse" x1="50.9599" y1="68.2871" x2="50.9599" y2="57.3232">
		<stop  offset="0" style="stop-color:#F6A8CA"/>
		<stop  offset="9.993196e-002" style="stop-color:#F7BAD5;stop-opacity:0.9001"/>
		<stop  offset="0.2547" style="stop-color:#FAD2E4;stop-opacity:0.7453"/>
		<stop  offset="0.417" style="stop-color:#FCE5EF;stop-opacity:0.583"/>
		<stop  offset="0.588" style="stop-color:#FEF2F7;stop-opacity:0.412"/>
		<stop  offset="0.7736" style="stop-color:#FFFBFC;stop-opacity:0.2264"/>
		<stop  offset="1" style="stop-color:#FFFFFF;stop-opacity:0"/>
	</linearGradient>
	<polygon id="XMLID_192_" class="st11" points="39.5,68.3 51,57.3 62.5,68.3 	"/>
	<linearGradient id="XMLID_9_" gradientUnits="userSpaceOnUse" x1="42.486" y1="67.4324" x2="42.486" y2="57.6377">
		<stop  offset="0" style="stop-color:#F5A8CA"/>
		<stop  offset="2.340972e-002" style="stop-color:#F6AECD;stop-opacity:0.9766"/>
		<stop  offset="0.1264" style="stop-color:#F9C7DC;stop-opacity:0.8736"/>
		<stop  offset="0.2394" style="stop-color:#FBDBE9;stop-opacity:0.7606"/>
		<stop  offset="0.3644" style="stop-color:#FDEAF2;stop-opacity:0.6356"/>
		<stop  offset="0.5076" style="stop-color:#FEF4F8;stop-opacity:0.4924"/>
		<stop  offset="0.6849" style="stop-color:#FFFCFD;stop-opacity:0.3151"/>
		<stop  offset="1" style="stop-color:#FFFFFF;stop-opacity:0"/>
	</linearGradient>
	<polygon id="XMLID_193_" class="st12" points="35.8,57.6 39.2,67.4 49.2,57.6 	"/>
	
		<linearGradient id="XMLID_10_" gradientUnits="userSpaceOnUse" x1="90.1056" y1="67.4324" x2="90.1056" y2="57.6377" gradientTransform="matrix(-1 0 0 1 149.1667 0)">
		<stop  offset="0" style="stop-color:#F5A8CA"/>
		<stop  offset="2.340972e-002" style="stop-color:#F6AECD;stop-opacity:0.9766"/>
		<stop  offset="0.1264" style="stop-color:#F9C7DC;stop-opacity:0.8736"/>
		<stop  offset="0.2394" style="stop-color:#FBDBE9;stop-opacity:0.7606"/>
		<stop  offset="0.3644" style="stop-color:#FDEAF2;stop-opacity:0.6356"/>
		<stop  offset="0.5076" style="stop-color:#FEF4F8;stop-opacity:0.4924"/>
		<stop  offset="0.6849" style="stop-color:#FFFCFD;stop-opacity:0.3151"/>
		<stop  offset="1" style="stop-color:#FFFFFF;stop-opacity:0"/>
	</linearGradient>
	<polygon id="XMLID_195_" class="st13" points="65.8,57.6 62.4,67.4 52.3,57.6 	"/>
	<linearGradient id="XMLID_11_" gradientUnits="userSpaceOnUse" x1="28.8991" y1="62.9624" x2="38.3352" y2="62.9624">
		<stop  offset="0" style="stop-color:#71294E"/>
		<stop  offset="1" style="stop-color:#72294F;stop-opacity:0"/>
	</linearGradient>
	<polygon id="XMLID_196_" class="st14" points="35.5,57.6 38.3,68.3 28.9,68.3 	"/>
	
		<linearGradient id="XMLID_12_" gradientUnits="userSpaceOnUse" x1="98.4614" y1="62.9624" x2="107.8976" y2="62.9624" gradientTransform="matrix(-1 0 0 1 171.296 0)">
		<stop  offset="0" style="stop-color:#71294E"/>
		<stop  offset="1" style="stop-color:#72294F;stop-opacity:0"/>
	</linearGradient>
	<polygon id="XMLID_197_" class="st15" points="66.2,57.6 63.4,68.3 72.8,68.3 	"/>
</g>
</svg>
