<?xml version="1.0" encoding="utf-8"?>
<!-- Generator: Adobe Illustrator 19.0.0, SVG Export Plug-In . SVG Version: 6.00 Build 0)  -->
<svg version="1.0" id="Calque_1" xmlns="http://www.w3.org/2000/svg" xmlns:xlink="http://www.w3.org/1999/xlink" x="0px" y="0px" width="150px" height="100px"
	 viewBox="0 0 100 150" style="enable-background:new 0 0 100 150;" xml:space="preserve">
<style type="text/css">
	.st0{fill:#E8AF28;}
	.st1{fill:#E8C01F;}
</style>
<g id="zoom_-_copie">
	<g id="Calque_28_-_copie_4_1_">
		<path id="XMLID_456_" class="st0" d="M25.3,84.9V74c0-0.9,0.7-1.6,1.6-1.6h47.3c0.9,0,1.6,0.7,1.6,1.6v10.9c0,0.9-0.7,1.6-1.6,1.6
			H26.9C26,86.5,25.3,85.8,25.3,84.9z"/>
		<path id="XMLID_455_" class="st0" d="M56,104.7H45c-0.9,0-1.6-0.7-1.6-1.6V55.8c0-0.9,0.7-1.6,1.6-1.6H56c0.9,0,1.6,0.7,1.6,1.6
			v47.3C57.5,104,56.9,104.7,56,104.7z"/>
		<polyline id="XMLID_454_" class="st0" points="47,51.7 43.9,54.8 47.9,54.2 47,51.7 		"/>
		<polyline id="XMLID_453_" class="st0" points="28.7,70 25.7,73 28.1,73 28.7,70 		"/>
		<polyline id="XMLID_452_" class="st0" points="60,101.3 57.2,104.1 57.2,101 60,101.3 		"/>
		<polyline id="XMLID_447_" class="st0" points="78.3,83 75.4,85.9 75.4,82.8 78.3,83 		"/>
	</g>
	<g id="Calque_28_-_copie_4">
		<path id="XMLID_440_" class="st1" d="M28.2,82V71.1c0-0.9,0.7-1.6,1.6-1.6h47.3c0.9,0,1.6,0.7,1.6,1.6V82c0,0.9-0.7,1.6-1.6,1.6
			H29.8C28.9,83.6,28.2,82.9,28.2,82z"/>
		<path id="XMLID_439_" class="st1" d="M58.9,101.8H48c-0.9,0-1.6-0.7-1.6-1.6V52.9c0-0.9,0.7-1.6,1.6-1.6h10.9
			c0.9,0,1.6,0.7,1.6,1.6v47.3C60.5,101.1,59.8,101.8,58.9,101.8z"/>
	</g>
</g>
</svg>
