<?xml version="1.0" encoding="utf-8"?>
<!-- Generator: Adobe Illustrator 19.0.0, SVG Export Plug-In . SVG Version: 6.00 Build 0)  -->
<svg version="1.0" id="Calque_52" xmlns="http://www.w3.org/2000/svg" xmlns:xlink="http://www.w3.org/1999/xlink" x="0px" y="0px"
	 viewBox="0 0 100 150" style="enable-background:new 0 0 100 150;" xml:space="preserve">
<style type="text/css">
	.st0{fill:#3A275E;}
	.st1{fill:#624D84;}
</style>
<g id="poison">
	<g id="Calque_53_1_">
		<g id="XMLID_21_">
			<path id="XMLID_22_" class="st0" d="M61.4,97.3l-0.7,3.5l0.7-10.6l-5.9,7.3l-0.9,3.2l0.6-9.4l-7.3,5.9l-0.9,3.5l1.9-10l-9.1,2
				l-1.4,8.1l2,2.8c0,0,16.7,2.9,26.5,0L65,95.4L61.4,97.3z"/>
			<path id="XMLID_504_" class="st0" d="M77.4,69.7c-1.9-19.7-10.3-19.3-20.5-19.3c-15.7,0-32.5,6.7-32.5,17.2
				c0,4.1,0.6,8.8,2.6,11.4c4.5,6,16.1,9.3,16.1,9.3l-1.5,8.3l4.8-0.4l0.9-3.4l0.6,3.3l6.1,0l0.2-3.8l1.3,3.7l4.2,0.1l1-4.2l0.6,4.3
				h3.9l-1.8-8.1C63.4,88.2,79.3,89.4,77.4,69.7z M42.4,75.7c-3.1,0-5.6-2.7-5.6-6s2.5-6,5.6-6c3.1,0,5.6,2.7,5.6,6
				S45.5,75.7,42.4,75.7z M52.2,80.2c-0.2,0.4-0.7,0.4-1,0.1c-0.3-0.3-0.8-0.5-0.9-0.8c-0.2-1.1,0-1.8,0-1.8s2.1-0.5,2.3,1
				C52.6,79.3,52.4,79.8,52.2,80.2z M56.5,79.5c0,0.3-0.5,0.5-0.9,0.8c-0.3,0.3-0.8,0.3-1-0.1c-0.2-0.4-0.4-0.9-0.4-1.5
				c0.1-1.5,2.3-1,2.3-1S56.7,78.4,56.5,79.5z M64.8,75.7c-3.1,0-5.6-2.7-5.6-6s2.5-6,5.6-6c3.1,0,5.6,2.7,5.6,6
				S67.9,75.7,64.8,75.7z"/>
		</g>
		<g id="XMLID_2_">
			<path id="XMLID_9_" class="st1" d="M59.4,94.5L58.7,98l-0.8-3.3l-4.3,0.1L52.7,98l-1-3.1l-5.7-0.4L45.1,98l-0.7-3.3l-4.8-0.3
				l-1.1,6.5c0,0,16.7,2.9,26.5,0l-1.4-6.4H59.4z"/>
			<path id="XMLID_3_" class="st1" d="M75.4,66.8c-1.9-19.7-13.1-16.6-23.2-16.9c-15.7-0.4-27.8,4-27.8,14.5c0,4.1,0,10.5,2,13.1
				c4.5,6,14.8,7.9,14.8,7.9l-1.5,8.3l4.8-0.4l0.9-3.4l0.6,3.3l6.1,0l0.2-3.8l1.3,3.7l4.2,0.1l1-4.2l0.6,4.3h3.9l-1.8-8.1
				C61.4,85.4,77.3,86.5,75.4,66.8z M40.4,72.8c-3.1,0-5.6-2.7-5.6-6c0-3.3,2.5-6,5.6-6c3.1,0,5.6,2.7,5.6,6
				C46.1,70.2,43.5,72.8,40.4,72.8z M50.2,77.4c-0.2,0.4-0.7,0.4-1,0.1c-0.3-0.3-0.8-0.5-0.9-0.8c-0.2-1.1,0-1.8,0-1.8
				s2.1-0.5,2.3,1C50.6,76.4,50.4,77,50.2,77.4z M54.5,76.6c0,0.3-0.5,0.5-0.9,0.8c-0.3,0.3-0.8,0.3-1-0.1c-0.2-0.4-0.4-0.9-0.4-1.5
				c0.1-1.5,2.3-1,2.3-1S54.7,75.5,54.5,76.6z M62.8,72.8c-3.1,0-5.6-2.7-5.6-6c0-3.3,2.5-6,5.6-6c3.1,0,5.6,2.7,5.6,6
				C68.4,70.2,65.9,72.8,62.8,72.8z"/>
		</g>
	</g>
</g>
</svg>
