<svg version="1.0" id="Calque_52" xmlns="http://www.w3.org/2000/svg" x="0" y="0" viewBox="0 0 100 150" style="enable-background:new 0 0 100 150" xml:space="preserve"><style>.st0{fill:#3a275e}.st1{fill:#624d84}</style><g id="poison"><g id="Calque_53_1_"><g id="XMLID_21_"><path id="XMLID_22_" class="st0" d="m61.4 97.3-.7 3.5.7-10.6-5.9 7.3-.9 3.2.6-9.4-7.3 5.9-.9 3.5 1.9-10-9.1 2-1.4 8.1 2 2.8s16.7 2.9 26.5 0L65 95.4l-3.6 1.9z"/><path id="XMLID_504_" class="st0" d="M77.4 69.7C75.5 50 67.1 50.4 56.9 50.4c-15.7 0-32.5 6.7-32.5 17.2 0 4.1.6 8.8 2.6 11.4 4.5 6 16.1 9.3 16.1 9.3l-1.5 8.3 4.8-.4.9-3.4.6 3.3H54l.2-3.8 1.3 3.7 4.2.1 1-4.2.6 4.3h3.9l-1.8-8.1c0 .1 15.9 1.3 14-18.4zm-35 6c-3.1 0-5.6-2.7-5.6-6s2.5-6 5.6-6c3.1 0 5.6 2.7 5.6 6s-2.5 6-5.6 6zm9.8 4.5c-.2.4-.7.4-1 .1-.3-.3-.8-.5-.9-.8-.2-1.1 0-1.8 0-1.8s2.1-.5 2.3 1c0 .6-.2 1.1-.4 1.5zm4.3-.7c0 .3-.5.5-.9.8-.3.3-.8.3-1-.1-.2-.4-.4-.9-.4-1.5.1-1.5 2.3-1 2.3-1s.2.7 0 1.8zm8.3-3.8c-3.1 0-5.6-2.7-5.6-6s2.5-6 5.6-6c3.1 0 5.6 2.7 5.6 6s-2.5 6-5.6 6z"/></g><g id="XMLID_2_"><path id="XMLID_9_" class="st1" d="m59.4 94.5-.7 3.5-.8-3.3-4.3.1-.9 3.2-1-3.1-5.7-.4-.9 3.5-.7-3.3-4.8-.3-1.1 6.5s16.7 2.9 26.5 0l-1.4-6.4h-4.2z"/><path id="XMLID_3_" class="st1" d="M75.4 66.8c-1.9-19.7-13.1-16.6-23.2-16.9-15.7-.4-27.8 4-27.8 14.5 0 4.1 0 10.5 2 13.1 4.5 6 14.8 7.9 14.8 7.9l-1.5 8.3 4.8-.4.9-3.4.6 3.3h6.1l.2-3.8 1.3 3.7 4.2.1 1-4.2.6 4.3h3.9l-1.8-8.1c-.1.2 15.8 1.3 13.9-18.4zm-35 6c-3.1 0-5.6-2.7-5.6-6s2.5-6 5.6-6c3.1 0 5.6 2.7 5.6 6 .1 3.4-2.5 6-5.6 6zm9.8 4.6c-.2.4-.7.4-1 .1-.3-.3-.8-.5-.9-.8-.2-1.1 0-1.8 0-1.8s2.1-.5 2.3 1c0 .5-.2 1.1-.4 1.5zm4.3-.8c0 .3-.5.5-.9.8-.3.3-.8.3-1-.1-.2-.4-.4-.9-.4-1.5.1-1.5 2.3-1 2.3-1s.2.7 0 1.8zm8.3-3.8c-3.1 0-5.6-2.7-5.6-6s2.5-6 5.6-6c3.1 0 5.6 2.7 5.6 6 0 3.4-2.5 6-5.6 6z"/></g></g></g></svg>