<?xml version="1.0" encoding="utf-8"?>
<!-- Generator: Adobe Illustrator 19.0.0, SVG Export Plug-In . SVG Version: 6.00 Build 0)  -->
<svg version="1.0" id="Calque_52" xmlns="http://www.w3.org/2000/svg" xmlns:xlink="http://www.w3.org/1999/xlink" x="0px" y="0px"
	 viewBox="0 0 100 150" style="enable-background:new 0 0 100 150;" xml:space="preserve">
<style type="text/css">
	.st0{fill:#E7AF26;}
	.st1{fill:#E6C020;}
</style>
<g id="power">
	<g id="圖層_8_拷貝_1_">
		<path id="XMLID_49_" class="st0" d="M34.5,88.2l15,7.9l1.8,1.8L44.8,109c0,0-3.3,5.7-11.6,0.7c-8.3-4.9-5.1-10.4-5.1-10.4
			L34.5,88.2z"/>
		<path id="XMLID_48_" class="st0" d="M58.1,92.5c0,0,19-32.5,19.4-33.5c0.3-1.1-4.7-17.6-4.7-17.6L71,39.5L55.1,46L35.7,79.6
			l-5.6-3.2l-5,3.8l1.8,1.8l33.5,19.4l3.2-5.6l-1.8-1.8L58.1,92.5z M52.6,89.2c0.1-0.1-11.2-6.5-11.2-6.5l19.4-33.5l8.8-2.4l2.4,8.8
			C71.9,55.7,52.5,89.4,52.6,89.2z"/>
	</g>
	<g id="圖層_8_拷貝_2_">
		<path id="XMLID_4_" class="st1" d="M32.7,86.4l16.8,9.7l-6.4,11.2c0,0-3.3,5.7-11.6,0.7c-8.3-4.9-5.1-10.4-5.1-10.4L32.7,86.4z"/>
		<path id="XMLID_1_" class="st1" d="M56.3,90.7c0,0,19-32.5,19.4-33.5C76,56,71,39.5,71,39.5l-17.6,4.7L34,77.8l-5.6-3.2l-3.2,5.6
			l33.5,19.4l3.2-5.6L56.3,90.7z M50.8,87.4c0.1-0.1-11.2-6.5-11.2-6.5L59,47.4l8.8-2.4l2.4,8.8C70.1,53.9,50.7,87.6,50.8,87.4z"/>
	</g>
</g>
</svg>
