<?xml version="1.0" encoding="utf-8"?>
<!-- Generator: Adobe Illustrator 19.0.0, SVG Export Plug-In . SVG Version: 6.00 Build 0)  -->
<svg version="1.0" id="Calque_1" xmlns="http://www.w3.org/2000/svg" xmlns:xlink="http://www.w3.org/1999/xlink" x="0px" y="0px"
	 viewBox="0 0 300 300" style="enable-background:new 0 0 300 300;" xml:space="preserve">
<style type="text/css">
	.st0{display:none;}
	.st1{display:inline;fill:#727272;}
	.st2{display:inline;opacity:0.15;fill:#CAC9C9;}
	.st3{display:inline;fill:#CAC9C9;}
	.st4{display:inline;opacity:0.29;fill:#8CAFA1;}
	.st5{display:inline;opacity:0.71;}
	.st6{display:inline;opacity:0.16;}
	.st7{display:inline;fill:#464647;}
	.st8{fill:#727272;}
	.st9{opacity:0.15;fill:#CAC9C9;}
	.st10{fill:#CAC9C9;}
	.st11{opacity:0.29;fill:#8CAFA1;}
	.st12{opacity:0.71;}
	.st13{opacity:0.16;}
	.st14{fill:#464647;}
	.st15{fill:#60421C;}
	.st16{fill:#73BC7B;}
	.st17{opacity:0.33;}
	.st18{fill:#319B4D;}
</style>
<g id="Calque_2" class="st0">
	<path id="XMLID_2_" class="st1" d="M186.5,54.7h-58.3c-32,0-58.3,26.2-58.3,58.3v28.8v29.5v41.7h174.8v-41.7v-29.5V113
		C244.7,80.9,218.5,54.7,186.5,54.7z"/>
	<path id="XMLID_4_" class="st2" d="M185.3,58H129c-31,0-56.3,25.3-56.3,56.3v27.9v28.5v40.3h169v-40.3v-28.5v-27.9
		C241.7,83.3,216.3,58,185.3,58z"/>
	<path id="XMLID_23_" class="st3" d="M180.3,60H124c-31,0-56.3,25.3-56.3,56.3v27.9v28.5v40.3h169v-40.3v-28.5v-27.9
		C236.7,85.3,211.3,60,180.3,60z"/>
	<path id="XMLID_22_" class="st4" d="M178.5,70.1l-48.4-0.8c-26.6-0.4-48.7,21-49.1,47.6l-0.4,23.9l-0.4,24.4l-0.6,34.6l55.2-9
		c9-1.5,18.1-1.4,27.1,0.2l62.8,11.2l0.6-34.6l0.4-24.4l0.4-23.9C226.5,92.7,205.1,70.6,178.5,70.1z"/>
	<g id="XMLID_3_" class="st5">
		<path id="XMLID_5_" d="M119.3,94.9c2.6-0.5,6.4-0.8,10-0.8c5.6,0,9.2,1,11.7,3.3c2,1.8,3.2,4.6,3.2,7.7c0,5.3-3.4,8.9-7.6,10.3
			v0.2c3.1,1.1,5,4,5.9,8.2c1.3,5.6,2.3,9.5,3.1,11.1h-5.4c-0.7-1.1-1.6-4.6-2.7-9.7c-1.2-5.6-3.4-7.7-8.1-7.9h-4.9v17.5h-5.2V94.9z
			 M124.5,113.3h5.3c5.6,0,9.1-3.1,9.1-7.7c0-5.2-3.8-7.5-9.3-7.6c-2.5,0-4.3,0.2-5.2,0.5V113.3z"/>
		<path id="XMLID_8_" d="M156.8,94.3v40.4h-5.2V94.3H156.8z"/>
		<path id="XMLID_10_" d="M165.9,94.8c2.5-0.4,5.8-0.8,10-0.8c5.2,0,8.9,1.2,11.3,3.4c2.2,1.9,3.5,4.9,3.5,8.5
			c0,3.7-1.1,6.5-3.1,8.6c-2.8,2.9-7.3,4.4-12.4,4.4c-1.6,0-3-0.1-4.2-0.4v16.2h-5.2V94.8z M171.1,114.3c1.1,0.3,2.6,0.4,4.3,0.4
			c6.3,0,10.1-3.1,10.1-8.6c0-5.3-3.8-7.9-9.5-7.9c-2.3,0-4,0.2-4.9,0.4V114.3z"/>
	</g>
	<g id="XMLID_1_" class="st6">
		<path id="XMLID_18_" d="M121.3,93.9c2.6-0.5,6.4-0.8,10-0.8c5.6,0,9.2,1,11.7,3.3c2,1.8,3.2,4.6,3.2,7.7c0,5.3-3.4,8.9-7.6,10.3
			v0.2c3.1,1.1,5,4,5.9,8.2c1.3,5.6,2.3,9.5,3.1,11.1h-5.4c-0.7-1.1-1.6-4.6-2.7-9.7c-1.2-5.6-3.4-7.7-8.1-7.9h-4.9v17.5h-5.2V93.9z
			 M126.5,112.3h5.3c5.6,0,9.1-3.1,9.1-7.7c0-5.2-3.8-7.5-9.3-7.6c-2.5,0-4.3,0.2-5.2,0.5V112.3z"/>
		<path id="XMLID_16_" d="M158.8,93.3v40.4h-5.2V93.3H158.8z"/>
		<path id="XMLID_13_" d="M167.9,93.8c2.5-0.4,5.8-0.8,10-0.8c5.2,0,8.9,1.2,11.3,3.4c2.2,1.9,3.5,4.9,3.5,8.5
			c0,3.7-1.1,6.5-3.1,8.6c-2.8,2.9-7.3,4.4-12.4,4.4c-1.6,0-3-0.1-4.2-0.4v16.2h-5.2V93.8z M173.1,113.3c1.1,0.3,2.6,0.4,4.3,0.4
			c6.3,0,10.1-3.1,10.1-8.6c0-5.3-3.8-7.9-9.5-7.9c-2.3,0-4,0.2-4.9,0.4V113.3z"/>
	</g>
	<path id="XMLID_37_" class="st7" d="M220.8,66c-1.8-1.4-3.8-2.6-5.8-3.7l-9.8,3.5L198,89.3l12.2-20.6L220.8,66z"/>
	<polygon id="XMLID_39_" class="st7" points="86.5,164 67.7,170 67.7,172.6 67.7,176.8 	"/>
	<polygon id="XMLID_38_" class="st7" points="236.7,141.8 217.9,146.8 236.8,146.8 244.7,144.7 244.7,141.8 244.7,137.8 	"/>
</g>
<g id="Calque_2_-_copie">
	<path id="XMLID_62_" class="st8" d="M177,66h-41.2c-22.6,0-41.2,22.5-41.2,50v24.8v25.3v35.8h123.6v-35.8v-25.3V116
		C218.1,88.5,199.6,66,177,66z"/>
	<path id="XMLID_61_" class="st9" d="M176.2,68.8h-39.8c-21.9,0-39.8,21.8-39.8,48.4v23.9v24.4v34.6H216v-34.6v-24.4v-23.9
		C216,90.6,198,68.8,176.2,68.8z"/>
	<path id="XMLID_60_" class="st10" d="M172.6,70.5h-39.8c-21.9,0-39.8,21.8-39.8,48.4v23.9v24.4v34.6h119.5v-34.6v-24.4v-23.9
		C212.4,92.3,194.5,70.5,172.6,70.5z"/>
	<path id="XMLID_59_" class="st11" d="M171.3,79.3l-34.2-0.7c-18.8-0.4-34.4,18-34.7,40.8l-0.3,20.5l-0.3,21l-0.4,29.7l39-7.7
		c6.3-1.3,12.8-1.2,19.1,0.2l44.4,9.6l0.4-29.7l0.3-21l0.3-20.5C205.2,98.6,190.1,79.6,171.3,79.3z"/>
	<g id="XMLID_50_" class="st12">
		<path id="XMLID_56_" d="M129.5,100.2c1.9-0.4,4.5-0.6,7.1-0.6c3.9,0,6.5,0.7,8.3,2.3c1.4,1.2,2.2,3.1,2.2,5.3
			c0,3.7-2.4,6.1-5.4,7.1v0.1c2.2,0.7,3.5,2.7,4.2,5.6c0.9,3.9,1.6,6.5,2.2,7.6h-3.8c-0.5-0.8-1.1-3.2-1.9-6.6
			c-0.8-3.8-2.4-5.3-5.7-5.4h-3.5v12h-3.7V100.2z M133.2,112.8h3.8c3.9,0,6.4-2.1,6.4-5.3c0-3.6-2.7-5.1-6.6-5.2
			c-1.8,0-3.1,0.2-3.6,0.3V112.8z"/>
		<path id="XMLID_54_" d="M156,99.8v27.7h-3.7V99.8H156z"/>
		<path id="XMLID_51_" d="M162.4,100.1c1.8-0.3,4.1-0.5,7.1-0.5c3.6,0,6.3,0.8,8,2.3c1.6,1.3,2.5,3.3,2.5,5.8c0,2.5-0.8,4.5-2.2,5.9
			c-2,2-5.1,3-8.7,3c-1.1,0-2.1,0-3-0.2v11.1h-3.7V100.1z M166.1,113.5c0.8,0.2,1.8,0.3,3.1,0.3c4.5,0,7.2-2.1,7.2-5.9
			c0-3.7-2.7-5.4-6.7-5.4c-1.6,0-2.8,0.1-3.5,0.3V113.5z"/>
	</g>
	<g id="XMLID_41_" class="st13">
		<path id="XMLID_47_" d="M130.9,99.5c1.9-0.4,4.5-0.6,7.1-0.6c3.9,0,6.5,0.7,8.3,2.3c1.4,1.2,2.2,3.1,2.2,5.3
			c0,3.7-2.4,6.1-5.4,7.1v0.1c2.2,0.7,3.5,2.7,4.2,5.6c0.9,3.9,1.6,6.5,2.2,7.6h-3.8c-0.5-0.8-1.1-3.2-1.9-6.6
			c-0.8-3.8-2.4-5.3-5.7-5.4h-3.5v12h-3.7V99.5z M134.6,112.1h3.8c3.9,0,6.4-2.1,6.4-5.3c0-3.6-2.7-5.1-6.6-5.2
			c-1.8,0-3.1,0.2-3.6,0.3V112.1z"/>
		<path id="XMLID_45_" d="M157.4,99.1v27.7h-3.7V99.1H157.4z"/>
		<path id="XMLID_42_" d="M163.8,99.4c1.8-0.3,4.1-0.5,7.1-0.5c3.6,0,6.3,0.8,8,2.3c1.6,1.3,2.5,3.3,2.5,5.8c0,2.5-0.8,4.5-2.2,5.9
			c-2,2-5.1,3-8.7,3c-1.1,0-2.1,0-3-0.2v11.1h-3.7V99.4z M167.5,112.8c0.8,0.2,1.8,0.3,3.1,0.3c4.5,0,7.2-2.1,7.2-5.9
			c0-3.7-2.7-5.4-6.7-5.4c-1.6,0-2.8,0.1-3.5,0.3V112.8z"/>
	</g>
	<path id="XMLID_40_" class="st14" d="M201.2,75.7c-1.3-1.2-2.7-2.2-4.1-3.2l-6.9,3l-5.1,20.1l8.6-17.7L201.2,75.7z"/>
	<polygon id="XMLID_36_" class="st14" points="106.3,159.8 93,165 93,167.3 93,170.9 	"/>
	<polygon id="XMLID_35_" class="st14" points="212.4,140.7 199.1,145 212.5,145 218.1,143.3 218.1,140.8 218.1,137.3 	"/>
</g>
<path id="XMLID_63_" class="st15" d="M50.3,208.5l13.8-6.8l14.2-3.1c0,0,65.1-18.8,137.6-0.2l1.3-8.1l4.1,2.2l14.8,6.7
	c0,0,31.6-3.9,34.2,23.4c0,0-13.6-10.2-24.7,7.6c0,0-7.5-11.5-16.4-3.5c0,0-30.4,0.1-27.3,21.8c0,0-94.6-41.8-162.7-12.3
	c0,0,2.8-19.2-12.4-20.6C26.8,215.7,40.1,206.2,50.3,208.5z"/>
<path id="XMLID_34_" class="st16" d="M53.8,205.6l-10.7-19.9l14.5,14.5l-3-22.5l7.8,15.1V172l4.8,27.5l11.5-29l2.2,26.2
	c0,0,62.8-16.9,132.8-0.2l-6.8-16l8,8.8l4-18.8v20.8l5.8-14.8l-1,12.8l9.5-21l-3,23.3l14.3-6.5l-11.3,12.3c0,0,30.5-3.5,33,21
	c0,0-13.2-9.2-23.8,6.8c0,0-7.3-10.3-15.8-3.2c0,0-29.3,0.1-26.3,19.6c0,0-91.3-37.5-157-11c0,0,2.8-17.3-12-18.5
	C31.1,212,43.9,203.5,53.8,205.6z"/>
<g id="XMLID_24_" class="st17">
	<polygon id="XMLID_33_" class="st18" points="221.8,183.6 221.8,199.3 227.6,184.5 226.6,197.3 230.4,188.7 233.1,168.3 
		223.6,189.3 224.6,176.5 	"/>
	<polygon id="XMLID_32_" class="st18" points="233.4,196.9 244.3,185 234.3,189.6 	"/>
	<polygon id="XMLID_31_" class="st18" points="217.8,197.3 219.4,189.7 218.8,191.3 218.8,170.5 214.8,189.3 206.8,180.5 
		210.5,189.3 	"/>
	<path id="XMLID_30_" class="st18" d="M236.1,205.3c0,0,21.2-2.4,29.7,11c-2.4-13.5-13.9-17.6-22.6-18.8L236.1,205.3z"/>
	<path id="XMLID_29_" class="st18" d="M238.3,197.1c-2.5-0.1-4.3,0.1-5,0.1l-0.3,2.3L238.3,197.1z"/>
	<path id="XMLID_28_" class="st18" d="M40.2,216.7c4.6-2.1,11-4.2,16.5-3l-4.4-8.2c-9.7-1.1-21.3,6.6-21.3,6.6
		C35.6,212.4,38.4,214.3,40.2,216.7z"/>
	<path id="XMLID_27_" class="st18" d="M80.3,205.5c0,0,66.3-17.8,136.3-1l-3.4-8.1c-60.5-14.4-118.1-3-132.4,0.3L80.3,205.5z"/>
	<polygon id="XMLID_26_" class="st18" points="70.1,207.5 77.7,188.1 78.6,170.5 68.2,196.7 	"/>
	<polygon id="XMLID_25_" class="st18" points="48.9,196.6 60.6,208.3 57.6,185.8 65.3,200.9 65.3,189.4 62.3,172 62.3,192.9 
		54.6,177.8 57.6,200.3 43.1,185.8 	"/>
</g>
</svg>
