<svg version="1.0" id="Calque_1" xmlns="http://www.w3.org/2000/svg" x="0" y="0" viewBox="0 0 300 300" style="enable-background:new 0 0 300 300" xml:space="preserve"><style>.st7{display:inline}.st14,.st7{fill:#464647}.st18{fill:#319b4d}</style><g id="Calque_2_-_copie"><path id="XMLID_62_" d="M177 66h-41.2c-22.6 0-41.2 22.5-41.2 50v85.9h123.6V116c-.1-27.5-18.6-50-41.2-50z" style="fill:#727272"/><path id="XMLID_61_" d="M176.2 68.8h-39.8c-21.9 0-39.8 21.8-39.8 48.4v82.9H216v-82.9c0-26.6-18-48.4-39.8-48.4z" style="opacity:.15;fill:#cac9c9"/><path id="XMLID_60_" d="M172.6 70.5h-39.8c-21.9 0-39.8 21.8-39.8 48.4v82.9h119.5v-82.9c-.1-26.6-18-48.4-39.9-48.4z" style="fill:#cac9c9"/><path id="XMLID_59_" d="m171.3 79.3-34.2-.7c-18.8-.4-34.4 18-34.7 40.8l-.3 20.5-.3 21-.4 29.7 39-7.7c6.3-1.3 12.8-1.2 19.1.2l44.4 9.6.4-29.7.3-21 .3-20.5c.3-22.9-14.8-41.9-33.6-42.2z" style="opacity:.29;fill:#8cafa1"/><g id="XMLID_50_" style="opacity:.71"><path id="XMLID_56_" d="M129.5 100.2c1.9-.4 4.5-.6 7.1-.6 3.9 0 6.5.7 8.3 2.3 1.4 1.2 2.2 3.1 2.2 5.3 0 3.7-2.4 6.1-5.4 7.1v.1c2.2.7 3.5 2.7 4.2 5.6.9 3.9 1.6 6.5 2.2 7.6h-3.8c-.5-.8-1.1-3.2-1.9-6.6-.8-3.8-2.4-5.3-5.7-5.4h-3.5v12h-3.7v-27.4zm3.7 12.6h3.8c3.9 0 6.4-2.1 6.4-5.3 0-3.6-2.7-5.1-6.6-5.2-1.8 0-3.1.2-3.6.3v10.2z"/><path id="XMLID_54_" d="M156 99.8v27.7h-3.7V99.8h3.7z"/><path id="XMLID_51_" d="M162.4 100.1c1.8-.3 4.1-.5 7.1-.5 3.6 0 6.3.8 8 2.3 1.6 1.3 2.5 3.3 2.5 5.8s-.8 4.5-2.2 5.9c-2 2-5.1 3-8.7 3-1.1 0-2.1 0-3-.2v11.1h-3.7v-27.4zm3.7 13.4c.8.2 1.8.3 3.1.3 4.5 0 7.2-2.1 7.2-5.9 0-3.7-2.7-5.4-6.7-5.4-1.6 0-2.8.1-3.5.3v10.7z"/></g><g id="XMLID_41_" style="opacity:.16"><path id="XMLID_47_" d="M130.9 99.5c1.9-.4 4.5-.6 7.1-.6 3.9 0 6.5.7 8.3 2.3 1.4 1.2 2.2 3.1 2.2 5.3 0 3.7-2.4 6.1-5.4 7.1v.1c2.2.7 3.5 2.7 4.2 5.6.9 3.9 1.6 6.5 2.2 7.6h-3.8c-.5-.8-1.1-3.2-1.9-6.6-.8-3.8-2.4-5.3-5.7-5.4h-3.5v12h-3.7V99.5zm3.7 12.6h3.8c3.9 0 6.4-2.1 6.4-5.3 0-3.6-2.7-5.1-6.6-5.2-1.8 0-3.1.2-3.6.3v10.2z"/><path id="XMLID_45_" d="M157.4 99.1v27.7h-3.7V99.1h3.7z"/><path id="XMLID_42_" d="M163.8 99.4c1.8-.3 4.1-.5 7.1-.5 3.6 0 6.3.8 8 2.3 1.6 1.3 2.5 3.3 2.5 5.8s-.8 4.5-2.2 5.9c-2 2-5.1 3-8.7 3-1.1 0-2.1 0-3-.2v11.1h-3.7V99.4zm3.7 13.4c.8.2 1.8.3 3.1.3 4.5 0 7.2-2.1 7.2-5.9 0-3.7-2.7-5.4-6.7-5.4-1.6 0-2.8.1-3.5.3v10.7z"/></g><path id="XMLID_40_" class="st14" d="M201.2 75.7c-1.3-1.2-2.7-2.2-4.1-3.2l-6.9 3-5.1 20.1 8.6-17.7 7.5-2.2z"/><path id="XMLID_36_" class="st14" d="M106.3 159.8 93 165v5.9z"/><path id="XMLID_35_" class="st14" d="m212.4 140.7-13.3 4.3h13.4l5.6-1.7v-6z"/></g><path id="XMLID_63_" d="m50.3 208.5 13.8-6.8 14.2-3.1s65.1-18.8 137.6-.2l1.3-8.1 4.1 2.2 14.8 6.7s31.6-3.9 34.2 23.4c0 0-13.6-10.2-24.7 7.6 0 0-7.5-11.5-16.4-3.5 0 0-30.4.1-27.3 21.8 0 0-94.6-41.8-162.7-12.3 0 0 2.8-19.2-12.4-20.6 0 .1 13.3-9.4 23.5-7.1z" style="fill:#60421c"/><path id="XMLID_34_" d="m53.8 205.6-10.7-19.9 14.5 14.5-3-22.5 7.8 15.1V172l4.8 27.5 11.5-29 2.2 26.2s62.8-16.9 132.8-.2l-6.8-16 8 8.8 4-18.8v20.8l5.8-14.8-1 12.8 9.5-21-3 23.3 14.3-6.5-11.3 12.3s30.5-3.5 33 21c0 0-13.2-9.2-23.8 6.8 0 0-7.3-10.3-15.8-3.2 0 0-29.3.1-26.3 19.6 0 0-91.3-37.5-157-11 0 0 2.8-17.3-12-18.5-.2-.1 12.6-8.6 22.5-6.5z" style="fill:#73bc7b"/><g id="XMLID_24_" style="opacity:.33"><path id="XMLID_33_" class="st18" d="M221.8 183.6v15.7l5.8-14.8-1 12.8 3.8-8.6 2.7-20.4-9.5 21 1-12.8z"/><path id="XMLID_32_" class="st18" d="m233.4 196.9 10.9-11.9-10 4.6z"/><path id="XMLID_31_" class="st18" d="m217.8 197.3 1.6-7.6-.6 1.6v-20.8l-4 18.8-8-8.8 3.7 8.8z"/><path id="XMLID_30_" class="st18" d="M236.1 205.3s21.2-2.4 29.7 11c-2.4-13.5-13.9-17.6-22.6-18.8l-7.1 7.8z"/><path id="XMLID_29_" class="st18" d="M238.3 197.1c-2.5-.1-4.3.1-5 .1l-.3 2.3 5.3-2.4z"/><path id="XMLID_28_" class="st18" d="M40.2 216.7c4.6-2.1 11-4.2 16.5-3l-4.4-8.2c-9.7-1.1-21.3 6.6-21.3 6.6 4.6.3 7.4 2.2 9.2 4.6z"/><path id="XMLID_27_" class="st18" d="M80.3 205.5s66.3-17.8 136.3-1l-3.4-8.1c-60.5-14.4-118.1-3-132.4.3l-.5 8.8z"/><path id="XMLID_26_" class="st18" d="m70.1 207.5 7.6-19.4.9-17.6-10.4 26.2z"/><path id="XMLID_25_" class="st18" d="m48.9 196.6 11.7 11.7-3-22.5 7.7 15.1v-11.5l-3-17.4v20.9l-7.7-15.1 3 22.5-14.5-14.5z"/></g></svg>