<?xml version="1.0" encoding="utf-8"?>
<!-- Generator: Adobe Illustrator 19.0.0, SVG Export Plug-In . SVG Version: 6.00 Build 0)  -->
<svg version="1.0" id="Calque_52" xmlns="http://www.w3.org/2000/svg" xmlns:xlink="http://www.w3.org/1999/xlink" x="0px" y="0px"
	 viewBox="0 0 100 150" style="enable-background:new 0 0 100 150;" xml:space="preserve">
<style type="text/css">
	.st0{display:none;fill:#484748;}
	.st1{display:none;fill:#E0E0E0;}
	.st2{fill:#6CC1ED;}
	.st3{fill:#40A6CE;}
	.st4{opacity:0.1;fill:#6BC0E2;}
</style>
<rect id="XMLID_9_" class="st0" width="100" height="150"/>
<g id="Calque_2">
	<path id="XMLID_16_" class="st1" d="M45.7,43.3L30.5,49c-6.5,2.4-10.3,9-9.3,15.8l2.5,16c0.4,2.5,1.4,4.9,3,6.9L37.4,101
		c5.4,6.7,15.3,7.3,21.5,1.3L71,90.4c1.8-1.8,3.2-4,3.8-6.5l4.4-15.6c1.9-6.6-1.2-13.7-7.3-16.8L57.5,44
		C53.8,42.2,49.6,41.9,45.7,43.3z"/>
	<path id="XMLID_12_" class="st2" d="M74.8,53.4c2,2.9,4.6,6.6,4.8,10c0.1,1,0,2-0.2,3c0.2,1.6-1.5,3.3-2,5l-4.5,13.1
		c-0.6,2.1-0.8,3.6-2.3,5.1L59.7,99.8c-3.4,3.4-6.6,5.4-10.8,4.1c-0.4,0-0.9,0-1.3,0c-2.3-0.2-4.6-1.1-6.9-1.3
		c-0.1,0-0.1,0.1-0.1,0.1l-0.8,0.7c5.4,6.7,16.6,7.2,22.8,1.2l12.2-11.9c1.8-1.8,3.2-4,3.8-6.5L83,70.7
		C84.8,64.1,80.7,56.6,74.8,53.4z"/>
	<path id="XMLID_8_" class="st3" d="M71.9,51.5L57.5,44c-3.6-1.9-7.9-2.1-11.7-0.7L30.5,49c-6.5,2.4-10.3,9-9.3,15.8l2.5,16
		c0.4,2.5,1.4,4.9,3,6.9L37.4,101c5.4,6.7,15.3,7.3,21.5,1.3L71,90.4c1.8-1.8,3.2-4,3.8-6.5l4.4-15.6C81.1,61.7,78,54.6,71.9,51.5z
		 M75.3,69.1l-3.8,13.5c-0.6,2.1-1.7,4.1-3.3,5.6L57.6,98.6c-5.3,5.2-14,4.7-18.6-1.1l-9.3-11.5c-1.4-1.7-2.3-3.8-2.6-6L25,66.1
		c-0.9-5.9,2.5-11.6,8.1-13.7l13.2-4.9c3.3-1.2,7-1,10.1,0.6L69,54.5C74.3,57.3,76.9,63.4,75.3,69.1z"/>
	<path id="XMLID_7_" class="st3" d="M28.7,55.4l1.5,2.6c0.3,0.5,0.3,1.1,0,1.6l-1,1.8c-0.2,0.4-0.7,0.7-1.2,0.8l-3.3,0.4
		c-1.1,0.1-1.9-0.8-1.8-1.9l0.4-2.4c0.1-0.3,0.2-0.6,0.4-0.8l2.4-2.5C27,54.3,28.2,54.5,28.7,55.4z"/>
	<path id="XMLID_4_" class="st3" d="M26.4,79.5l3-0.2c0.6,0,1.1,0.2,1.4,0.7l1.2,1.6c0.3,0.4,0.4,0.9,0.2,1.4l-1.1,3.2
		c-0.3,1-1.6,1.4-2.4,0.8l-1.9-1.4c-0.3-0.2-0.4-0.4-0.6-0.7L25,81.6C24.6,80.7,25.3,79.6,26.4,79.5z"/>
	<path id="XMLID_3_" class="st3" d="M72.2,82.3l-3-0.6c-0.5-0.1-1.1,0.1-1.5,0.5l-1.3,1.5c-0.3,0.4-0.5,0.9-0.4,1.4l0.7,3.3
		c0.2,1,1.4,1.6,2.3,1.1l2.1-1.2c0.3-0.2,0.5-0.4,0.6-0.7l1.6-3C73.8,83.6,73.3,82.5,72.2,82.3z"/>
	<path id="XMLID_2_" class="st3" d="M72.3,57.5L70.5,60c-0.3,0.4-0.4,1-0.2,1.5l0.8,1.9c0.2,0.5,0.6,0.8,1.1,0.9l3.2,0.8
		c1,0.3,2-0.6,2-1.6l-0.1-2.4c0-0.3-0.1-0.6-0.3-0.9l-2.1-2.7C74.2,56.7,73,56.7,72.3,57.5z"/>
	<g id="Calque_3">
		<path id="XMLID_13_" class="st4" d="M53.7,44.3l-26.1,8.6L23,62.6l1.9,15l5.6,13.1l10.7,11.4l9.2,2.1c0,0-3-10.8-2.3-29.8
			C48.8,55.3,53.7,44.3,53.7,44.3z"/>
	</g>
</g>
</svg>
