<svg version="1.0" id="Calque_52" xmlns="http://www.w3.org/2000/svg" x="0" y="0" width="150" height="100" viewBox="0 0 100 150" style="enable-background:new 0 0 100 150" xml:space="preserve"><style>.st1{fill:#90c964}</style><g id="slow"><g id="圖層_3_6_"><g id="圖層_23_7_"><g id="XMLID_31_"><path id="XMLID_35_" d="m64.5 104.5-27.9-.1c-2.2 0-4.2-1.2-5.3-3l-14-23.5c-1.1-1.8-1.1-4.1 0-5.9l14-23.5c1.1-1.8 3.1-3 5.3-3l27.9.1c2.2 0 4.2 1.2 5.3 3l13.9 23.5c1.1 1.8 1.1 4.1 0 5.9l-14 23.5c-1 1.8-3.1 3-5.2 3z" style="fill:none;stroke:#90c963;stroke-width:4;stroke-miterlimit:10"/></g></g></g><path id="XMLID_23_" class="st1" d="M33.2 78.1s-.2-4.5 2.7-9.3l3.8 4.3s-1.2 3-1.1 4.9l-5.4.1z"/><path id="XMLID_113_" class="st1" d="M46.9 77.6 36.2 65.5l1.6-1.7 1.5 1.2s7.9-6.4 16.5-3.5c8.7 2.9 11.5 8.4 12 16.7h-5.5s-.1-11.5-11.1-11.8c-4.2-.1-7.6 2.2-7.6 2.2l6.6 6.3s3.8-.6 3.8 3.6c0 3-3.6 4-6 2.4-1.7-1.3-1.1-3.3-1.1-3.3z"/><circle id="XMLID_500_" class="st1" cx="50.6" cy="78.3" r="4.1"/></g></svg>