<svg version="1.0" id="Calque_1" xmlns="http://www.w3.org/2000/svg" x="0" y="0" width="100" height="150" style="enable-background:new 0 0 100 150" xml:space="preserve"><style>.st2{fill:#3f7193}.st3{fill:#599ed6}</style><g id="Calque_4"><circle id="XMLID_1_" cx="52.1" cy="77.3" r="19.6" style="fill:none;stroke:#3f7193;stroke-width:3;stroke-miterlimit:10"/><circle id="XMLID_2_" cx="52.7" cy="76.7" r="19.6" style="fill:none;stroke:#599ed6;stroke-width:3;stroke-miterlimit:10"/><g id="Calque_2"><path id="XMLID_3_" class="st2" d="M28.9 99.3v-1.8l10.1.3 1.5 8.2v1.8l-4.3-3.2-5.3 7.3-2.9-2.2v-1.8l.8.6 4.5-6z"/><path id="XMLID_4_" class="st3" d="M28.9 97.5 39 96l1.5 10-4.3-3.2-5.3 7.3-2.9-2.2 5.3-7.2z"/></g><g id="Calque_2_-_copie"><path id="XMLID_6_" class="st2" d="m67.4 48.5-1.7.6 3.2 9.4 8.4-1L79 57l-4.4-3.2 5.3-7.2-2.9-2.2-1.7.6.8.6-4.4 6.1z"/><path id="XMLID_5_" class="st3" d="m65.7 49.1 1.5 10 10.1-1.6-4.4-3.2 5.3-7.2-2.9-2.1-5.3 7.2z"/></g></g></svg>