<svg version="1.0" xmlns="http://www.w3.org/2000/svg" viewBox="0 0 100 150" style="enable-background:new 0 0 100 150" xml:space="preserve"><path d="M83.3 90.4s-1.9-1-2.5-8.3c-.5-7.3-3.6-16.3-12-19.7-8-3.3-27.3-7-41.6-18.5-1.2 2 .2 12.7 13.9 20.8s14.4 8.1 13.6 9.8c-.6 1.3-10.1 2.8-33.9-13.6 1.1 4.8 16.4 23.4 25.2 25 8.2 1.5 12.2-3.2 13.7-.9 1.5 2.3-1.2 5.6-9 5.4-8.6-.3-21-7.5-20.6-8 0 0 7.8 16.5 19.6 18.6 11.7 2 32-6.3 33.6-10.6z" style="fill:#fff"/><path d="M79.3 88.4s-1.9-1-2.5-8.3c-.5-7.3-3.6-16.3-12-19.7-8-3.3-23.3-5-37.6-16.5-1.2 2-3.8 10.7 9.9 18.8s14.4 8.1 13.6 9.8c-.6 1.3-6.1 4.8-29.9-11.6 1.1 4.8 12.4 21.4 21.2 23 8.2 1.5 12.2-3.2 13.7-.9 1.5 2.3-1.2 5.6-9 5.4-8.6-.3-17-5.5-16.6-6 0 0 3.8 14.5 15.6 16.6 11.7 2 32.1-6.3 33.6-10.6z" style="fill:#e0e0e0"/></svg>