<svg version="1.0" xmlns="http://www.w3.org/2000/svg" viewBox="0 0 300 300" style="enable-background:new 0 0 300 300" xml:space="preserve"><style>.st0{fill:#e8c03e}.st1{fill:#bc943a}</style><g id="Calque_4_-_copie"><path id="XMLID_12_" class="st0" d="M148.8 217.8c-17.6 0-31.9 22.4-31.9 50.1h63.9c-.1-27.7-14.4-50.1-32-50.1z"/><path id="XMLID_14_" class="st1" d="M119.7 247.2c-1.1 3.7-1.8 7.5-2.3 11.6 7.3 2.1 18.6 3.5 31.4 3.5s24.1-1.4 31.4-3.5c-.5-4.1-1.3-7.9-2.3-11.6-7.3-1.8-17.6-2.9-29.1-2.9s-21.9 1.1-29.1 2.9z"/><g id="Calque_1_-_copie_3_1_"><linearGradient id="XMLID_7_" gradientUnits="userSpaceOnUse" x1="143.75" y1="329.518" x2="143.75" y2="288.795" gradientTransform="translate(5 -70.264)"><stop offset="0" style="stop-color:#cfe6f5;stop-opacity:0"/><stop offset=".299" style="stop-color:#d2e7f6;stop-opacity:.2989"/><stop offset=".544" style="stop-color:#dbecf8;stop-opacity:.5438"/><stop offset=".77" style="stop-color:#e9f4fb;stop-opacity:.7696"/><stop offset=".983" style="stop-color:#fdfeff;stop-opacity:.9826"/><stop offset="1" style="stop-color:#fff"/></linearGradient><ellipse id="XMLID_5_" cx="148.8" cy="238.9" rx="16.1" ry="20.4" style="opacity:.25;fill:url(#XMLID_7_)"/></g></g><g id="Calque_3_-_copie_2"><ellipse id="XMLID_17_" class="st0" cx="149.5" cy="207.3" rx="13.5" ry="13"/><linearGradient id="XMLID_13_" gradientUnits="userSpaceOnUse" x1="145.5" y1="86.095" x2="145.5" y2="69.67" gradientTransform="rotate(180 147.5 144.257)"><stop offset="0" style="stop-color:#cfe6f5;stop-opacity:0"/><stop offset=".299" style="stop-color:#d2e7f6;stop-opacity:.2989"/><stop offset=".544" style="stop-color:#dbecf8;stop-opacity:.5438"/><stop offset=".77" style="stop-color:#e9f4fb;stop-opacity:.7696"/><stop offset=".983" style="stop-color:#fdfeff;stop-opacity:.9826"/><stop offset="1" style="stop-color:#fff"/></linearGradient><ellipse id="XMLID_16_" cx="149.5" cy="210.6" rx="6.5" ry="8.2" style="opacity:.25;fill:url(#XMLID_13_)"/></g><g id="Calque_3_-_copie"><ellipse id="XMLID_8_" class="st0" cx="149.5" cy="183.8" rx="13.5" ry="13"/><linearGradient id="XMLID_15_" gradientUnits="userSpaceOnUse" x1="145.5" y1="109.595" x2="145.5" y2="93.17" gradientTransform="rotate(180 147.5 144.257)"><stop offset="0" style="stop-color:#cfe6f5;stop-opacity:0"/><stop offset=".299" style="stop-color:#d2e7f6;stop-opacity:.2989"/><stop offset=".544" style="stop-color:#dbecf8;stop-opacity:.5438"/><stop offset=".77" style="stop-color:#e9f4fb;stop-opacity:.7696"/><stop offset=".983" style="stop-color:#fdfeff;stop-opacity:.9826"/><stop offset="1" style="stop-color:#fff"/></linearGradient><ellipse id="XMLID_4_" cx="149.5" cy="187.1" rx="6.5" ry="8.2" style="opacity:.25;fill:url(#XMLID_15_)"/></g><g id="Calque_6"><path id="XMLID_10_" class="st0" d="M105 150.5c-41.7 0-75.6-14.5-75.6-32.5 0-17.9 33.8-32.5 75.6-32.5 19.4 0 15.8-5.1-7.4-5.1-41.8.1-75.6 16.9-75.6 37.5 0 20.7 33.8 37.4 75.6 37.4 22.7 0 26.3-4.8 7.4-4.8z"/><path id="XMLID_2_" class="st0" d="M195 150.5c41.7 0 75.6-14.5 75.6-32.5 0-17.9-33.8-32.5-75.6-32.5-19.4 0-15.8-5.1 7.4-5.1 41.7 0 75.6 16.8 75.6 37.4 0 20.7-33.8 37.4-75.6 37.4-22.7.1-26.3-4.7-7.4-4.7z"/></g><g id="Calque_4"><path id="XMLID_6_" class="st0" d="M150 172.8c39.2 0 71-49.8 71-111.3H79c0 61.4 31.8 111.3 71 111.3z"/><ellipse id="XMLID_3_" class="st1" cx="150" cy="61.5" rx="71" ry="16"/><g id="Calque_1_-_copie"><linearGradient id="XMLID_18_" gradientUnits="userSpaceOnUse" x1="145" y1="208.014" x2="145" y2="117.5" gradientTransform="rotate(180 147.5 144.257)"><stop offset="0" style="stop-color:#cfe6f5;stop-opacity:0"/><stop offset=".299" style="stop-color:#d2e7f6;stop-opacity:.2989"/><stop offset=".544" style="stop-color:#dbecf8;stop-opacity:.5438"/><stop offset=".77" style="stop-color:#e9f4fb;stop-opacity:.7696"/><stop offset=".983" style="stop-color:#fdfeff;stop-opacity:.9826"/><stop offset="1" style="stop-color:#fff"/></linearGradient><ellipse id="XMLID_11_" cx="150" cy="125.8" rx="35.8" ry="45.3" style="opacity:.25;fill:url(#XMLID_18_)"/></g><g id="Calque_1_-_copie_2"><linearGradient id="XMLID_19_" gradientUnits="userSpaceOnUse" x1="146.25" y1="237.514" x2="146.25" y2="213.333" gradientTransform="rotate(180 147.5 144.257)"><stop offset="0" style="stop-color:#000;stop-opacity:0"/><stop offset=".916" style="stop-color:#000;stop-opacity:.916"/><stop offset="1" style="stop-color:#000"/></linearGradient><ellipse id="XMLID_9_" cx="148.8" cy="63.1" rx="61.8" ry="12.1" style="opacity:5.000000e-002;fill:url(#XMLID_19_)"/></g></g></svg>