<svg version="1.0" xmlns="http://www.w3.org/2000/svg" width="100" height="150" style="enable-background:new 0 0 100 150" xml:space="preserve"><style>.st0{display:none}.st1{fill:#333}.st1,.st5{display:inline}.st6{fill:#2e3192}.st7{fill:#27aae1}.st8{fill:#1c75bc}.st11,.st13,.st14,.st15,.st9{fill:none;stroke:#2b3990;stroke-width:4;stroke-miterlimit:10}.st11,.st13,.st14,.st15{stroke:#5ca1d8}.st13,.st14,.st15{stroke:#be1e2d;stroke-width:8}.st14,.st15{stroke:#ed1c24}.st15{stroke:#fff;stroke-width:4}.st16{fill:#fff}.st18{fill:none;stroke:#fff;stroke-width:7;stroke-miterlimit:10}.st21{fill:#00aeef}.st22{fill:#006838}.st23{fill:#00a651}.st24{fill:#a8aaad;stroke:#6e6f72;stroke-miterlimit:10}.st25{display:inline;fill:#a8aaad}.st25,.st28,.st29{stroke:#595a5c;stroke-miterlimit:10}.st28{display:inline;fill:#a8aaad;fill-opacity:.78}.st29{opacity:.68;fill-opacity:.49;enable-background:new}.st29,.st30,.st32{display:inline;fill:#a8aaad}.st30{fill-opacity:.42;stroke:#595a5c;stroke-miterlimit:10}.st32{opacity:.64;fill-opacity:.46;enable-background:new}.st32,.st33,.st34,.st38{stroke:#595a5c;stroke-miterlimit:10}.st33{display:inline;fill:none}.st34,.st38{fill:#a8aaad}.st38{opacity:.2;enable-background:new}.st39{stroke:#58595b}.st39,.st42,.st43,.st44,.st45{fill:#a7a9ac;stroke-miterlimit:10}.st42{fill-opacity:.49;stroke:#6d6e71;enable-background:new}.st43,.st44,.st45{stroke:#58595b}.st43{enable-background:new}.st44,.st45{fill-opacity:.42}.st45{fill-opacity:.46;enable-background:new}.st48{opacity:.18;fill:#fff}</style><g id="vision"><g id="圖層_3_4_"><g id="圖層_23_5_"><g id="XMLID_59_"><path id="XMLID_60_" class="st15" d="m64.5 104.5-27.9-.1c-2.2 0-4.2-1.2-5.3-3l-14-23.5c-1.1-1.8-1.1-4.1 0-5.9l14-23.5c1.1-1.8 3.1-3 5.3-3l27.9.1c2.2 0 4.2 1.2 5.3 3l13.9 23.5c1.1 1.8 1.1 4.1 0 5.9l-14 23.5c-1 1.8-3.1 3-5.2 3z"/></g></g></g><g id="圖層_4"><ellipse id="XMLID_58_" class="st18" cx="50.5" cy="75" rx="24.2" ry="12.4"/><circle id="XMLID_57_" class="st18" cx="50.5" cy="75" r="11.2"/><path id="XMLID_56_" d="M50.5 81.6c-3.7 0-6.6-3-6.6-6.6h13.2c.1 3.7-2.9 6.6-6.6 6.6z" style="opacity:.46;fill:#fff;enable-background:new"/><circle id="XMLID_55_" class="st18" cx="50.5" cy="75" r="6.6"/></g></g><g id="Calque_39"><path id="XMLID_212_" class="st48" d="M15.1 129.3c-.1.1-.1.1 0 0-.1 0-.1-.1 0 0 0-.1 0 0 0 0z"/><path id="XMLID_211_" d="M22.5 127.3s.6.8 0 1.9c-.7 1.3-3.2 4.5-3.6 5l-.1.1c-.1.3-.8 1.3-3 .9-1.7-.3-3.4-.4-4.3-.5-.6 0-1.1-.4-1.3-.9 0-.1-.1-.2-.1-.3-.4-1-1.8-6.4-2.1-7.6 0-.1-.1-.2-.1-.3-.1-.3-.5-1.1.7-1.8 1.5-.9 3.3-1.7 3.3-1.7s.7-.4 1.4-.3c.7.1 6 2.7 6.6 3.1h.1c.3.2 1.3.6 2.5 2.4z" style="fill:none;stroke:#58595b;stroke-width:3;stroke-miterlimit:10"/><path id="XMLID_210_" d="M22.5 127.3s.6.8 0 1.9c-.7 1.3-3.2 4.5-3.6 5l-.1.1c-.1.3-.8 1.3-3 .9-1.7-.3-3.4-.4-4.3-.5-.6 0-1.1-.4-1.3-.9 0-.1-.1-.2-.1-.3-.4-1-1.8-6.4-2.1-7.6 0-.1-.1-.2-.1-.3-.1-.3-.5-1.1.7-1.8 1.5-.9 3.3-1.7 3.3-1.7s.7-.4 1.4-.3c.7.1 6 2.7 6.6 3.1h.1c.3.2 1.3.6 2.5 2.4z" style="fill:#cb2890"/><path id="XMLID_209_" d="m15.9 126.6-.7 1.6s-.1.3-.5.2c-.3-.1-2.8-1.1-2.8-1.1l2.9 1.4s.2.1.7.9c.4.8.9 1.5.9 1.5s-1.3-2.1-1.2-2.6c.2-.3.7-1.9.7-1.9z" style="opacity:.61;fill:#e6e7e8"/><path id="XMLID_208_" d="M11.6 134.8c.9.1 2.6.2 4.3.5 2.1.4 2.8-.7 3-.9l.1-.1c.4-.5 2.9-3.7 3.6-5 .6-1.1 0-1.9 0-1.9l-.2.4s-1.3 3.3-4.7 4.4c-3.4 1.1-6.5.9-7.5.6 0 .1-.1.1-.1.2 0 .2.1.3.1.4v.2c0 .1.1.2.1.3.2.5.7.9 1.3.9z" style="opacity:.3"/><path id="XMLID_115_" d="M19.6 124.8c-.5-.2-1.3-.7-2.2-1.1-.1 0-.2-.1-.2-.1l-.1.1-1.8 5 3.3 6.1.1-.1.1-.1s0-.1.1-.1v-.1l.1-.1c.4-.5 2.9-3.7 3.6-5 .6-1.1 0-1.9 0-1.9-1.2-1.8-2.2-2.2-2.4-2.3h-.1c-.2-.1-.3-.2-.5-.3z" style="opacity:.3;fill:#fff"/><path id="XMLID_110_" d="m10.7 125.2 1.5-3.2c-.2.1-.3.2-.3.2s-1.7.8-3.3 1.7c-.3.2-.5.4-.7.6l2.8.7z" style="opacity:.21"/><linearGradient id="XMLID_214_" gradientUnits="userSpaceOnUse" x1="231.282" y1="283.548" x2="231.282" y2="290.384" gradientTransform="scale(-1) rotate(-33.998 -565.225 481.701)"><stop offset="0" style="stop-color:#fff"/><stop offset=".033" style="stop-color:#fff;stop-opacity:.9674"/><stop offset="1" style="stop-color:#fff;stop-opacity:0"/></linearGradient><path id="XMLID_108_" d="m15.4 128 .2-.7s1.1-3 1.3-3.4c.1-.2 0-.3 0-.3-1.6-.7-3.2-1.5-3.6-1.6-.4-.1-.8 0-1.1.1 0 0-1.1 2.2-1.5 3.2-.5 1-.1 1.5-.1 1.5s3.1 1.4 3.9 1.7c.7.2.9-.5.9-.5z" style="opacity:.52;fill:url(#XMLID_214_)"/><linearGradient id="XMLID_215_" gradientUnits="userSpaceOnUse" x1="233.858" y1="289.032" x2="237.12" y2="289.032" gradientTransform="scale(-1) rotate(-33.998 -565.225 481.701)"><stop offset="0" style="stop-color:#000"/><stop offset="1" style="stop-color:#000;stop-opacity:0"/></linearGradient><path id="XMLID_106_" d="m10.7 125.2-2.7-.7c-.4.5-.1 1-.1 1.2 0 .1.1.2.1.3.1.2.3 1.1.5 1.7.6.1 1.1-.2 1.5-.7.2-.3.4-.6.4-1 .1-.3.3-.8.3-.8z" style="opacity:.46;fill:url(#XMLID_215_)"/><path id="XMLID_104_" class="st48" d="M9.3 127.2s0 .1-.2.2c-.1 0-.2 0-.2-.1.1-.1.2-.2.4-.1 0-.1 0 0 0 0z"/><path id="XMLID_102_" class="st48" d="M10.3 124.8s-.1.1-.2-.1c-.1-.1-.1-.2 0-.2s.3 0 .3.1l-.1.2z"/><path id="XMLID_9_" class="st48" d="M12.5 133.3s0 .2-.1.2-.2.1-.2 0 .1-.3.2-.3.1.1.1.1z"/></g></svg>