<svg version="1.0" xmlns="http://www.w3.org/2000/svg" width="300" height="260" style="enable-background:new 0 0 300 260" xml:space="preserve"><radialGradient id="a" cx="150" cy="130" r="111.296" gradientUnits="userSpaceOnUse"><stop offset=".866" style="stop-color:#1e1e1e;stop-opacity:0"/><stop offset=".887" style="stop-color:#1e1e1e;stop-opacity:.1543"/><stop offset=".914" style="stop-color:#1e1e1e;stop-opacity:.3568"/><stop offset=".945" style="stop-color:#1e1e1e;;stop-opacity:.5862"/><stop offset=".978" style="stop-color:#1e1e1e;stop-opacity:.8334"/><stop offset="1" style="stop-color:#1e1e1e"/></radialGradient><path d="m198.7 233-97.6-.2c-7.6 0-14.7-4-18.5-10.4l-48.7-82.2c-3.8-6.5-3.8-14.4 0-20.8l48.9-82.2C86.6 30.9 93.7 27 101.3 27l97.6.2c7.6 0 14.7 4 18.5 10.4l48.7 82.2c3.8 6.5 3.8 14.4 0 20.8l-48.9 82.2c-3.8 6.2-10.9 10.2-18.5 10.2z" style="fill:url(#a)"/><radialGradient id="b" cx="263.247" cy="129.678" r="6.517" gradientUnits="userSpaceOnUse"><stop offset=".172" style="stop-color:#1e1e1e"/><stop offset=".41" style="stop-color:#1e1e1e"/><stop offset=".697" style="stop-color:#ffd17a"/><stop offset=".9" style="stop-color:#1e1e1e"/><stop offset="1" style="stop-color:#1e1e1e"/></radialGradient><path d="M267.5 122.5c-5.6.4-10 3.5-10 7.2 0 3.8 4.5 6.9 10.3 7.2 1.7-4.7 1.6-9.8-.3-14.4z" style="opacity:.25;fill:url(#b)"/><radialGradient id="c" cx="206.604" cy="223.976" r="6.517" gradientTransform="rotate(61.628 206.065 224.891)" gradientUnits="userSpaceOnUse"><stop offset=".172" style="stop-color:#1e1e1e"/><stop offset=".41" style="stop-color:#ffe7bc"/><stop offset=".697" style="stop-color:#1e1e1e"/><stop offset=".9" style="stop-color:#1e1e1e"/><stop offset="1" style="stop-color:#1e1e1e"/></radialGradient><path d="M215.5 225.3c-3.1-4.8-7.8-7.2-11.1-5.4-3.3 1.8-3.9 7.3-1.4 12.5 4.9-.8 9.3-3.3 12.5-7.1z" style="opacity:.25;fill:url(#c)"/><radialGradient id="d" cx="156.564" cy="321.927" r="6.517" gradientTransform="rotate(125.746 149.437 256.75)" gradientUnits="userSpaceOnUse"><stop offset=".172" style="stop-color:#1e1e1e"/><stop offset=".41" style="stop-color:#1e1e1e"/><stop offset=".697" style="stop-color:#1e1e1e"/><stop offset=".9" style="stop-color:#1e1e1e"/><stop offset="1" style="stop-color:#1e1e1e"/></radialGradient><path d="M95.7 232.1c3-4.8 3-10.2 0-12.3-3.1-2.2-8.2-.3-11.9 4.2 2.9 4 7.1 6.9 11.9 8.1z" style="opacity:.25;fill:url(#d)"/><radialGradient id="e" cx="122.282" cy="414.073" r="6.517" gradientTransform="matrix(-.9999 .01586 -.01586 -.9999 165.587 542.646)" gradientUnits="userSpaceOnUse"><stop offset=".172" style="stop-color:#fff"/><stop offset=".41" style="stop-color:#1e1e1e"/><stop offset=".697" style="stop-color:#1e1e1e"/><stop offset=".9" style="stop-color:#1e1e1e"/><stop offset="1" style="stop-color:#1e1e1e"/></radialGradient><path d="M32.6 137.8c5.6-.5 10-3.6 9.9-7.4-.1-3.8-4.6-6.8-10.4-7.1-1.6 4.8-1.4 9.9.5 14.5z" style="opacity:.25;fill:url(#e)"/><radialGradient id="f" cx="66.614" cy="502.655" r="6.517" gradientTransform="rotate(-116.091 -65.775 260.058)" gradientUnits="userSpaceOnUse"><stop offset=".172" style="stop-color:#1e1e1e"/><stop offset=".41" style="stop-color:#1e1e1e"/><stop offset=".697" style="stop-color:#1e1e1e"/><stop offset=".9" style="stop-color:#1e1e1e"/><stop offset="1" style="stop-color:#1e1e1e"/></radialGradient><path d="M85.5 33.8c2.9 4.9 7.5 7.5 10.9 5.8 3.4-1.7 4.2-7.1 1.9-12.5-4.9.7-9.4 3-12.8 6.7z" style="opacity:.25;fill:url(#f)"/><radialGradient id="g" cx="19.077" cy="600.457" r="6.517" gradientTransform="rotate(-62.651 -352.424 163.966)" gradientUnits="userSpaceOnUse"><stop offset=".172" style="stop-color:#1e1e1e"/><stop offset=".41" style="stop-color:#1e1e1e"/><stop offset=".697" style="stop-color:#1e1e1e"/><stop offset=".9" style="stop-color:#1e1e1e"/><stop offset="1" style="stop-color:#fdbf37"/></radialGradient><path d="M201.5 27.4c-2.2 5.2-1.5 10.5 1.8 12.2 3.4 1.7 8.2-.9 11.2-5.9-3.4-3.6-8-5.8-13-6.3z" style="opacity:.25;fill:url(#g)"/></svg>