<svg version="1.0" xmlns="http://www.w3.org/2000/svg" viewBox="0 0 300 300" style="enable-background:new 0 0 300 300" xml:space="preserve"><style>.st0{display:none}.st1{display:inline;fill:#bbab8e}.st5{fill:#1c3a1f}.st6{fill:#030405}.st13{opacity:.25}.st17{opacity:.1}.st18{fill:#e0be90;stroke:#000;stroke-width:3;stroke-miterlimit:10}.st22{opacity:.3;fill:#fff}.st23{fill:none;stroke:#000;stroke-width:2;stroke-miterlimit:10}.st24{display:inline}.st25,.st26,.st27,.st28{fill:#563d1e;stroke:#000;stroke-width:2;stroke-miterlimit:10}.st26,.st27,.st28{fill:#fff}.st27,.st28{fill:#009fe3}.st28{display:inline;fill:none}.st29{opacity:.25;fill:#020304}.st35{fill:#fff}</style><g id="Calque_1"><g id="Calque_12"><circle id="XMLID_86_" cx="152" cy="147.8" r="114.3"/><g id="Calque_13"><path id="XMLID_88_" d="M248 223.2s2.1-10.2-.2-13c-12.8-16.3-29.5-29.3-48.8-37.5.8-4.2 1.1-8.7 1.1-13l2.9-3.8c6.4-8.5 10-18.1 10.4-28l.3-6.6c0-6.5-2.6-12.6-6.9-17.6-2-5.8-6-10.9-11.2-14.8v-.1c0-.2.1-.4.1-.6 0-.7.6-21.8 0-22.5 0-5.9-19.1-10.6-42.6-10.6s-42.6 4.7-42.6 10.6c0 .6.2 1.1.6 1.7-.3 4.5-.5 16.6-.5 19.9-6.4 4-11.3 9.8-13.7 16.4-4.4 5-6.9 11.1-6.9 17.6l.3 6.6c.4 9.8 4 19.5 10.4 28l2.9 3.8c0 4.1.3 8.2 1 12.2-19.1 7.8-35.9 20.3-48.8 36.1-3.5 4.2 3.6 22.9 5.2 22.8l29.1 18.7c.2 1.4.5 2.8.8 4.2H201s0-.1-.1-.1h1.4l27.4-18c.2.4.3.8.4 1.2.3 1.7-.1 3.5.4 5.2 0 1.6 17.5-18.8 17.5-18.8z" style="opacity:5.000000e-002;fill:#fff;enable-background:new"/></g><g id="Calque_4_2_"><path id="XMLID_6_" d="M234 223.1c-17.5-31.6-47.7-52.5-82.2-52.5-35.2 0-66.1 21.8-83.4 54.6l39.9 30h84.1l41.6-32.1z" style="fill:#010202"/><radialGradient id="XMLID_72_" cx="151.292" cy="215.346" r="61.779" gradientUnits="userSpaceOnUse"><stop offset="0" style="stop-color:#009640"/><stop offset="1" style="stop-color:#007936"/></radialGradient><path id="XMLID_49_" d="M229.1 226.9c-16-30.8-44.6-51.3-77.2-51.3-33.4 0-62.5 21.5-78.3 53.4l34.8 26.2h84.1l36.6-28.3z" style="fill:url(#XMLID_72_);stroke:#1a3a1d;stroke-width:3;stroke-miterlimit:10"/><g id="圖層_1_6_"><path id="XMLID_48_" class="st5" d="M205.9 196.9c-1.6 1.8-2.9 3.2-3.2 3.6-1.8-.4-3.6-.7-5.4-.1-1.8.6-3.1 2.5-2.5 4.2.3.8.9 1.4 1.4 2.1 1.5 2.1 1.4 5.1-.1 7.1-1.8 2.4-5 3.2-6.8 5.6-1.2 1.6-1.5 3.8-1.6 5.9-.1.9-.1 1.9.2 2.8.4.9 1.2 1.6 2.1 1.4 1.2-.1 1.7-1.5 2.4-2.5 1-1.4 3.3-2.2 4.6-1 2.2 2-1 5.6-.1 8.4.6 1.8 2.7 2.7 4.5 3 2.8.4 5.5.1 8.1-.8.7-.2 1.3-.5 2-.4 1.6.1 2.7 1.9 2.9 3.4s-.1 3.3.3 4.8c.4 1.6 1.9 3.1 3.4 2.6.5-.1 1-.5 1.5-.7 1.7-.4 13.4-10.7 11.1-15.6-6.1-13.3-14.6-24.8-24.8-33.8z"/><path id="XMLID_47_" class="st5" d="M76.9 235.4c1.6-2 4.8-1.9 6.8-.4.6.4 1.2 1 2 1.2 1.6.3 2.8-1.4 3.4-2.8.7-1.5 1.5-3.2 3.1-3.3 2.2-.2 4.1 2.9 6.1 2 1.4-.7 1.3-2.7 1.1-4.2-.3-1.6-.1-3.6 1.4-4.1.5-.1 1 0 1.6 0 1.8 0 3.6-1.5 3.6-3.3 0-1.8-2.1-3.3-3.7-2.6-.5.2-1 .7-1.6.4-.3-.1-.4-.4-.6-.7-1.2-2.1-2.2-5.1-.2-6.5 1.5-1.1 3.8-.3 5.2-1.5 1.3-1.1 1-3.3-.1-4.7s-2.6-2.2-3.8-3.5c-1.1-1.3-1.9-2.8-2.1-4.5-.1-.4-.1-.7 0-1-12.6 10.8-22.9 25.4-29.6 42.4 2.8-1 6.7-2 7.4-2.9z"/><path id="XMLID_46_" class="st5" d="M189.9 250.4c.1-1.3.9-2.6.7-4-.3-3.2-5-4.2-5.7-7.4-.4-1.6.4-3.7-.8-4.9-1.5-1.5-4.2 0-6-1-1.6-1-1.9-3.6-3.7-4.1-1.5-.4-2.8.8-4.3 1.3-2.2.7-4.7-.6-6.1-2.5-.7-1-1.3-2.2-2.5-2.6-2.5-1-5 2.6-7.7 2.2-1.9-.3-3.3-2.5-5.2-2.2-1.7.3-2.4 2.5-2.6 4.2-.2 1.7-6.9-6-8.7-5.9-2.4.2-4.2-3.3-6.5-2.7-2 .6-1.9 3.6-3.3 5-1 1-2.7 1.1-3.9 1.9-2.8 1.7-3 6.2-6 7.4-.9.4-1.9.3-2.8.7-2.2.9-3.1 3.6-3.5 6l-.3.2c.1.9-.9 1.6-1.9 1.6-.9.1-1.9-.3-2.8-.3-1.5 0-2.9.9-3.5 2.3-.3.7.2 5.5 1 9.6h87.5c-.8-1.5-1.6-3.1-1.4-4.8z"/></g><path id="XMLID_45_" class="st6" d="M120.8 255.2h65.1c-19.3-13.4-32.6-37.1-32.6-37.1s-13.2 23.7-32.5 37.1z"/><path id="XMLID_44_" d="M123.8 255.2h59.1c-17.5-13.1-29.5-36.3-29.5-36.3s-12.1 23.2-29.6 36.3z" style="fill:#343434"/><path id="XMLID_43_" d="M134.3 255.2h38.2c-11.3-13.1-19-36.3-19-36.3s-7.9 23.2-19.2 36.3z" style="fill:#a5a3a3"/><g id="Calque_6_2_"><path id="XMLID_42_" class="st6" d="m153.2 214.4-31.5-7.2 10.4 9.2s8.1 5.1 12.4 7.4c5.3 2.8 9 14.1 9 14.1s3.2-11.1 8.5-13.8c4.2-2.2 12.6-7.6 12.6-7.6l10.4-8.8-31.8 6.7z"/><path id="XMLID_41_" d="m153.2 216.6-26.9-6.8 13.7 8.6s5.7 2.9 8.3 4.3c3.3 1.7 5 12.2 5 12.2s1.6-10.5 4.8-12.2c2.6-1.3 8.3-4.3 8.3-4.3l13.4-8.4-26.6 6.6z" style="fill:#848580"/><path id="XMLID_40_" d="m153.2 219.9-10-3.3 5.4 3.3s2 1 2.9 1.6c1.2.6 1.7 7.9 1.7 7.9s.6-7.2 1.7-7.9c.9-.5 2.9-1.6 2.9-1.6l5.4-3.3-10 3.3z" style="fill:#cfcece"/></g></g><circle id="XMLID_4_" cx="152" cy="147.8" r="114.3" style="fill:none;stroke:#0b0b0c;stroke-width:19;stroke-miterlimit:10"/><circle id="XMLID_195_" cx="152" cy="147.8" r="114.3" style="fill:none;stroke:#ddd;stroke-width:6;stroke-miterlimit:10"/><g id="Calque_8"><g id="Calque_4_-_copie_2"><path id="XMLID_9_" class="st13" d="M167.6 99.9h-30.1c-15.6 0-28.3 14.3-28.3 31.7l.2 6.6c.3 9.9 2.8 19.6 7.3 28.1l-3 3.2c0 17.4 8.3 37.1 23.9 37.1h30.1c15.6 0 24.8-21.2 24.8-38.7l-4-1.7c4.5-8.6 7-18.2 7.3-28.1l.2-6.6c-.1-17.4-12.9-31.6-28.4-31.6z"/><path id="XMLID_16_" d="M169.4 91.2h-33.5c-17.4 0-31.7 14.3-31.7 31.7l.2 6.6c.3 9.9 3.1 19.6 8.1 28.1l2.2 3.8c0 17.4 3.7 36.6 21.1 36.6h33.5c17.4 0 21.1-19.1 21.1-36.6l2.2-3.8c5-8.6 7.8-18.2 8.1-28.1l.2-6.6c.2-17.4-14.1-31.7-31.5-31.7z" style="fill:none;stroke:#000;stroke-width:6;stroke-miterlimit:10"/><path id="XMLID_8_" d="M169.4 91.2h-33.5c-17.4 0-31.7 14.3-31.7 31.7l.2 6.6c.3 9.9 3.1 19.6 8.1 28.1l2.2 3.8c0 17.4 3.7 36.6 21.1 36.6h33.5c17.4 0 21.1-19.1 21.1-36.6l2.2-3.8c5-8.6 7.8-18.2 8.1-28.1l.2-6.6c.2-17.4-14.1-31.7-31.5-31.7z" style="fill:#fdd18c"/><path id="XMLID_39_" d="M133 91.4c-.7.1-1.5.1-2.2.3h-.3c-.7.1-1.3.2-2 .4-.1 0-.2.1-.4.1l-2.1.6c-.1 0-.2.1-.3.1-.7.2-1.4.5-2 .8h-.1c-.7.3-1.4.6-2.1 1-.1 0-.2.1-.2.1-1.4.7-2.7 1.5-3.9 2.4-8.1 5.8-13.4 15.2-13.4 25.8l.2 5.9c.9.2 1.7.4 2.7.4 6.2 0 11.5-5.9 13.2-14 8.7 2.9 20.5 4.7 33.6 4.7 12.3 0 23.5-1.6 32-4.2 1.6 8.3 6.9 14.4 13.2 14.4.6 0 1.3-.1 1.9-.2v-.4l.2-6.6c0-10.2-4.9-19.3-12.4-25.1-2-1.5-4.1-2.8-6.4-3.8-.1 0-.1-.1-.2-.1-.3-.1-.6-.3-.9-.4-.1-.1-.3-.1-.4-.2l-.9-.3c-.2-.1-.3-.1-.5-.2-.3-.1-.5-.2-.8-.3-.2-.1-.4-.1-.6-.2l-1.2-.3c-.3-.1-.6-.1-.9-.2-.2 0-.4-.1-.6-.1-.3-.1-.6-.1-.8-.2-.2 0-.4-.1-.6-.1-.3 0-.6-.1-.9-.1-.2 0-.4 0-.6-.1-.3 0-.7-.1-1-.1h-35.5c-.8 0-1.5 0-2.3.1-.2 0-.3 0-.5.1z" style="fill:#563d1e;stroke:#000;stroke-width:3;stroke-miterlimit:10"/><path id="XMLID_20_" class="st17" d="M169.4 91.2h-33.5c-17.4 0-31.7 14.3-31.7 31.7l.2 6.6c.3 9.9 3.1 19.6 8.1 28.1l2.2 3.8c0 17.4 3.7 36.6 21.1 36.6h33.5c17.4 0 21.1-19.1 21.1-36.6l2.2-3.8c5-8.6 7.8-18.2 8.1-28.1l.2-6.6c.2-17.4-14.1-31.7-31.5-31.7zm26.3 40c-.3 8.8-2.8 17.5-7.3 25.1l-2 3.4c0 15.6-3.3 32.6-18.8 32.6h-30.1c-15.6 0-18.8-17.1-18.8-32.6l-2-3.4c-4.5-7.6-7-16.3-7.3-25.1l-.2-5.9c0-15.6 12.7-28.3 28.3-28.3h30.1c15.6 0 28.3 12.7 28.3 28.3l-.2 5.9z"/><path id="XMLID_31_" class="st18" d="M107.8 139.5c-2.8-.7-5.8-.7-8.6 0-.6.1-1.3.3-1.8.8-.7.6-.8 1.6-.9 2.5-.2 2.3.3 4.7 1.1 6.9.7 1.9 1.6 3.7 3.2 5 .7.6 1.5 1 2.3 1.3 2.6 1.1 5.5 1.5 8.4 1.2"/><path id="XMLID_35_" class="st18" d="M196.3 139.5c2.8-.7 5.8-.7 8.6 0 .6.1 1.3.3 1.8.8.7.6.8 1.6.9 2.5.2 2.3-.3 4.7-1.1 6.9-.7 1.9-1.6 3.7-3.2 5-.7.6-1.5 1-2.3 1.3-2.6 1.1-5.5 1.5-8.4 1.2"/></g><g id="Calque_9"><radialGradient id="XMLID_73_" cx="152.111" cy="122.638" r="26.47" gradientUnits="userSpaceOnUse"><stop offset="0" style="stop-color:#009640"/><stop offset="1" style="stop-color:#007936"/></radialGradient><path id="XMLID_15_" d="m124.5 134.7 26.7-2.5c.7-.1 1.5-.1 2.2 0l26.1 2.5c.8.1 1.6.1 2.5 0 4.4-.7 6.9-4.3 4.7-7.3l-10.1-14.1c-1.2-1.7-3.6-2.8-6.2-2.8h-36.7c-2.6 0-5 1.1-6.2 2.8l-10 14.1c-2.3 3.2.7 7 5.5 7.4.5 0 1 0 1.5-.1z" style="fill:url(#XMLID_73_);stroke:#101913;stroke-width:3;stroke-miterlimit:10"/><radialGradient id="XMLID_74_" cx="153.747" cy="92.793" r="29.974" gradientTransform="matrix(1.27 0 0 1 -41.49 0)" gradientUnits="userSpaceOnUse"><stop offset="0" style="stop-color:#009640"/><stop offset="1" style="stop-color:#007936"/></radialGradient><path id="XMLID_12_" d="M197.8 104.1c0 7.1-19.8 12.9-44.1 12.9s-44.1-5.8-44.1-12.9c0-.8.3-26.6.8-27.4 3.9-5.9 21.8-8 43.3-8 21.3 0 40 2.2 44.1 8 .6.8 0 26.5 0 27.4z" style="fill:url(#XMLID_74_);stroke:#0f1911;stroke-width:3;stroke-miterlimit:10"/><path id="XMLID_22_" class="st5" d="M188.4 71.3c-.3.8-.4 1.7-.1 2.6.4 1.1 1.2 1.8 1.8 2.7 1.9 2.7 1.8 6.6-.1 9.3-2.3 3.1-6.5 4.2-8.8 7.3-1.6 2.1-1.9 4.9-2.1 7.7-.1 1.2-.2 2.4.3 3.6.5 1.2 1.6 2 2.7 1.8 1.6-.2 2.2-1.9 3.1-3.2 1.4-1.8 4.3-2.9 6-1.4 2.1 1.9.4 4.9-.1 7.8 3.5-1.9 5.6-4 5.6-6.2 0-.9.6-26.5 0-27.4-1.4-1.9-4.3-3.4-8.3-4.6z"/><path id="XMLID_27_" class="st5" d="M110.9 105c3.6 6 21.7 10.5 43.6 10.4 11.3-.1 21.6-1.4 29.4-3.5-.6-.1-1.2-.2-1.7-.5-2.1-1.2-2.5-4.6-4.9-5.3-1.9-.6-3.7 1.1-5.6 1.7-2.9.9-6.1-.7-8-3.2-1-1.3-1.8-2.8-3.2-3.4-3.3-1.2-6.5 3.4-10 2.9-2.4-.4-4.3-3.2-6.8-2.8-2.2.4-3.1 3.2-3.4 5.4-.3 2.2-9.1-7.8-11.4-7.6-3.1.3-5.5-4.3-8.5-3.4-2.6.8-2.4 4.7-4.3 6.5-1.3 1.4-3.5 1.5-5.1 2.6 0 .1 0 .1-.1.2z"/><radialGradient id="XMLID_75_" cx="153.644" cy="76.701" r="26.203" gradientTransform="matrix(1.27 0 0 1 -41.49 0)" gradientUnits="userSpaceOnUse"><stop offset="0" style="stop-color:#009640"/><stop offset="1" style="stop-color:#007936"/></radialGradient><ellipse id="XMLID_30_" cx="153.6" cy="76.7" rx="44.1" ry="12.9" style="fill:url(#XMLID_75_);stroke:#0f1911;stroke-width:3;stroke-miterlimit:10"/><path id="XMLID_33_" class="st5" d="M113.2 73.3s0 .1-.1.3c1.1 0 1.9-.1 2.3-.4 2.8-1.7 6.7-.1 8.4 2.7.5.8 1 1.8 1.9 2.4 1.8 1.1 4-.5 5.5-1.9 1.5-1.5 3.3-3.2 5.4-2.6 2.8.8 3.6 5.4 6.5 5.3 2-.2 2.9-2.6 3.3-4.7.4-2 1.5-4.5 3.6-4.3.7.1 1.3.5 2 .8 2.2.8 5-.2 5.9-2.3.4-1 .2-2.2-.4-3.2h-1c-21.4-.2-39.3 1.9-43.3 7.9z"/></g><g id="light"><path id="XMLID_54_" class="st22" d="m163.2 119.7 12.8-1.3 6.6 10.3s.6 3.5-3.8 2.9c-4.4-.6-19.1-2.2-19.1-2.2l3.5-9.7z"/><path id="XMLID_21_" class="st22" d="M149.3 181.3c5.4-1.2 5.8 1.3 5.8 2.7-.1 1.4-3.9 2.3-6 2.3-2.1-.1-3.8-1.3-3.7-2.6 0-1.5 1.9-2 3.9-2.4z"/><path id="XMLID_24_" class="st22" d="M160.8 159.7c1.2 4.2-1.9 4.3-3.6 4.1-1.7-.2-2.8-3.2-2.6-4.8.2-1.6 1.7-2.7 3.4-2.5 1.7.2 2.3 1.7 2.8 3.2z"/><ellipse id="XMLID_23_" class="st22" cx="128.8" cy="161" rx="6" ry="2.9"/><ellipse id="XMLID_32_" class="st22" cx="177" cy="160.4" rx="6" ry="2.9"/></g><g id="Calque_11"><path id="XMLID_10_" class="st23" d="M146.1 155.8c-3.4 3-3 6.8-3 6.9-.1 2 3 3 4.1 3h10.5c2.2 0 3.6-1.6 3.8-3.5.3-2.5-.8-5.4-2.7-7.3"/></g></g></g></g><g id="Calque_5"><path id="XMLID_59_" class="st29" d="m239.3 68 28.5 8.3c3.1.9 13.5 2.7 15.5.3 1.2-1.4-7.4-8.2-8.9-9.1l-9.1-7.1c-2.4-2.5-4-4.8 1-7.1l9.2-1.3c6.9-.8 15.2-.4 14.9-2.2-.4-3.1-10.1-4.8-13.2-5.7l-28.5-8.3c-5.7-1.7-11.8 1.9-13.6 7.9l-3 10.5c-.9 3.1-2.7 7.4-1.3 10 1.3 2.2 5.8 3 8.5 3.8z"/><radialGradient id="XMLID_76_" cx="255.99" cy="-16132.533" r="26.013" gradientTransform="matrix(1 0 0 -1 0 -16082)" gradientUnits="userSpaceOnUse"><stop offset="0" style="stop-color:#009640"/><stop offset="1" style="stop-color:#007936"/></radialGradient><path id="XMLID_60_" d="m235 62 28.5 8.3c3.1.9 13.5 2.7 15.5.3 1.2-1.4-7.4-8.2-8.9-9.1l-9.1-7.1c-2.4-2.5-4-4.8 1-7.1l9.2-1.3c6.9-.8 15.2-.4 14.9-2.2-.4-3.1-10.1-4.8-13.2-5.7l-28.5-8.3c-5.7-1.7-11.8 1.9-13.6 7.9l-3 10.5c-.9 3.1-2.7 7.4-1.3 10 1.3 2.2 5.8 3 8.5 3.8z" style="fill:url(#XMLID_76_);stroke:#1a3a1d;stroke-width:3;stroke-miterlimit:10"/><path id="XMLID_62_" class="st29" d="m60.7 67-28.5 8.3c-3.1.9-13.5 2.7-15.5.3-1.2-1.4 7.4-8.2 8.9-9.1l9.1-7.1c2.4-2.5 4-4.8-1-7.1L24.6 51c-6.9-.8-15.2-.4-14.9-2.2.4-3.1 10.1-4.8 13.2-5.7l28.5-8.3c5.7-1.7 11.8 1.9 13.6 7.9l3 10.5c.9 3.1 2.7 7.4 1.3 10-1.4 2.3-5.9 3-8.6 3.8z"/><radialGradient id="XMLID_77_" cx="518.775" cy="49.562" r="26.013" gradientTransform="matrix(-1 0 0 1 562.785 0)" gradientUnits="userSpaceOnUse"><stop offset="0" style="stop-color:#009640"/><stop offset="1" style="stop-color:#007936"/></radialGradient><path id="XMLID_61_" d="m65 61-28.5 8.3c-3.1.9-13.4 2.7-15.5.3-1.2-1.4 7.4-8.2 8.9-9.1l9.1-7.1c2.4-2.5 4-4.8-1-7.1L28.9 45c-6.9-.8-15.2-.4-14.9-2.3.4-3.1 10.1-4.8 13.2-5.7l28.5-8.3c5.7-1.7 11.8 1.9 13.6 7.9l3 10.5c.9 3.1 2.7 7.4 1.3 10-1.4 2.4-5.9 3.1-8.6 3.9z" style="fill:url(#XMLID_77_);stroke:#1a3a1d;stroke-width:3;stroke-miterlimit:10"/><g id="XMLID_58_" class="st13"><path id="XMLID_52_" d="M236 56.5c-56-15.8-115.3-15.8-171.3 0-6.4 1.8-13.4-1.6-15.5-7.8-1.4-4.4-2.9-8.9-4.3-13.3-2.1-6.3 2.1-13.3 9.5-15.4 62.8-17.7 129.2-17.7 192 0 7.3 2.1 11.5 9.2 9.5 15.4-1.4 4.4-2.9 8.9-4.3 13.3-2.2 6.2-9.1 9.6-15.6 7.8z" style="fill:#020304"/></g><g id="XMLID_55_"><radialGradient id="XMLID_78_" cx="150.37" cy="27.474" r="77.022" gradientUnits="userSpaceOnUse"><stop offset="0" style="stop-color:#009640"/><stop offset="1" style="stop-color:#007936"/></radialGradient><path id="XMLID_65_" d="M236.6 51.5c-56.4-15.9-116.1-15.9-172.5 0-6.4 1.8-13.4-1.6-15.5-7.8l-3.9-12c-2.1-6.3 2.1-13.3 9.4-15.4 62.9-17.8 129.5-17.8 192.4 0 7.3 2.1 11.5 9.1 9.4 15.4l-3.9 12c-2 6.2-8.9 9.6-15.4 7.8z" style="fill:url(#XMLID_78_)"/><path id="XMLID_64_" d="M236.6 51.5c-56.4-15.9-116.1-15.9-172.5 0-6.4 1.8-13.4-1.6-15.5-7.8l-3.9-12c-2.1-6.3 2.1-13.3 9.4-15.4 62.9-17.8 129.5-17.8 192.4 0 7.3 2.1 11.5 9.1 9.4 15.4l-3.9 12c-2 6.2-8.9 9.6-15.4 7.8z" style="fill:none;stroke:#1a3a1d;stroke-width:3;stroke-miterlimit:10"/></g><g id="XMLID_1_"><g id="XMLID_97_"><path id="XMLID_124_" class="st35" d="M100.8 18.3c.2.9.3 1.8.5 2.7-.8.1-1.5.3-2.3.4.7 3.6 1.4 7.1 2.1 10.7-1.2.2-2.5.5-3.7.7-.8-3.5-1.5-7.1-2.3-10.6-.8.1-1.5.3-2.3.5l-.6-2.7c3-.7 5.8-1.2 8.6-1.7z"/><path id="XMLID_121_" class="st35" d="M101.7 18.2c.9-.2 1.8-.3 2.8-.5 1.8-.3 3.1-.4 3.8-.4.7 0 1.2.3 1.7.7.5.5.8 1.3 1 2.4.2 1 .1 1.8-.1 2.2-.2.4-.8.7-1.6.9.8.1 1.3.2 1.6.5.3.3.5.5.6.7.1.2.2.9.4 2 .2 1.2.4 2.4.5 3.5-1.1.2-2.3.3-3.4.5-.3-1.5-.5-3-.7-4.5-.1-.7-.3-1.2-.4-1.3-.2-.2-.5-.2-1-.1.3 2 .7 4 1 6-1.2.2-2.5.4-3.7.6-.9-4.3-1.7-8.8-2.5-13.2zm4.3 1.6c.2 1 .3 2 .5 3 .4-.1.7-.2.9-.3.2-.1.2-.5.1-1.1 0-.2-.1-.5-.1-.7-.1-.4-.2-.7-.4-.8-.3-.1-.6-.1-1-.1z"/><path id="XMLID_118_" class="st35" d="M118.6 15.8c1.2 4.4 2.5 8.8 3.7 13.3-1.3.1-2.5.3-3.8.4-.2-.8-.3-1.6-.5-2.4-.4.1-.9.1-1.3.2 0 .8.1 1.6.1 2.4-1.3.2-2.5.3-3.8.5-.1-4.6 0-9.1 0-13.7 1.9-.3 3.8-.5 5.6-.7zm-1 8.9c-.4-1.5-.8-3.4-1.3-5.6-.1 2.6-.1 4.5 0 5.7.5 0 .9-.1 1.3-.1z"/><path id="XMLID_116_" class="st35" d="m125.4 15.1 1.2 13.5c-1.2.1-2.5.2-3.7.3-.5-4.5-1-9-1.4-13.5 1.3 0 2.6-.2 3.9-.3z"/><path id="XMLID_114_" class="st35" d="M135.6 14.4c.2 4.5.5 9 .7 13.5-1.1.1-2.1.1-3.2.2l-2.4-6c.2 2.1.3 4.1.5 6.2-1 .1-2.1.2-3.1.2L126.9 15c1.1-.1 2.2-.2 3.2-.2.9 2 1.7 4 2.6 6-.1-2-.3-4.1-.4-6.1 1.1-.2 2.2-.2 3.3-.3z"/><path id="XMLID_112_" class="st35" d="M141 14.2c.2 4.5.3 9 .5 13.6-1.2 0-2.5.1-3.7.1-.2-4.5-.4-9-.7-13.5 1.3-.1 2.6-.2 3.9-.2z"/><path id="XMLID_110_" class="st35" d="M151.2 14v13.6H148c-.7-2-1.3-4.1-2-6.1 0 2.1.1 4.1.1 6.2-1 0-2.1 0-3.1.1-.1-4.5-.3-9-.4-13.6 1.1 0 2.2-.1 3.2-.1.8 2 1.5 4.1 2.2 6.1 0-2 0-4.1-.1-6.1 1.1-.1 2.2-.1 3.3-.1z"/><path id="XMLID_108_" class="st35" d="M161.4 19.2c-1.3 0-2.5-.1-3.8-.1v-1.2c0-.8 0-1.3-.1-1.5-.1-.2-.2-.3-.5-.3-.2 0-.4.1-.5.2-.1.2-.1.6-.2 1.3 0 2.2-.1 4.3-.1 6.5 0 .6 0 1 .1 1.2.1.2.2.3.5.3s.5-.1.6-.3c.1-.2.2-.6.2-1.3v-1.6h-.8v-2.1c1.5 0 3 .1 4.4.1-.1 2.4-.2 4.9-.3 7.3-.8 0-1.5-.1-2.3-.1-.1-.3-.2-.7-.3-1-.3.4-.6.7-1 .9-.4.2-.8.3-1.4.3-.6 0-1.2-.2-1.7-.5s-.9-.7-1.2-1.1c-.3-.4-.5-.9-.5-1.3-.1-.5-.1-1.2-.1-2.1v-4c0-1.3.1-2.2.2-2.8.2-.6.6-1.1 1.3-1.6.7-.5 1.7-.7 2.8-.7 1.1 0 2.1.3 2.8.7.7.4 1.2 1 1.4 1.6.2.6.3 1.4.2 2.6.3.2.3.4.3.6z"/><path id="XMLID_106_" class="st35" d="M175 21c-1.3-.1-2.5-.2-3.8-.3.1-.8.1-1.6.2-2.4.1-.7 0-1.1 0-1.3-.1-.2-.2-.3-.5-.3s-.5.1-.6.3c-.1.2-.2.6-.2 1.3-.1 2.1-.3 4.2-.5 6.3v1.3c.1.2.2.3.5.3s.5-.1.6-.3c.1-.2.2-.7.2-1.4 0-.6.1-1.1.1-1.7 1.3.1 2.5.2 3.8.3v.5c-.1 1.4-.3 2.4-.6 2.9-.3.6-.8 1-1.5 1.4-.7.4-1.6.5-2.7.5-1.1-.1-2-.3-2.6-.7-.7-.4-1.1-1-1.3-1.6-.2-.7-.2-1.7-.2-3 .1-1.3.2-2.6.2-4 .1-1 .1-1.7.2-2.2.1-.5.3-.9.7-1.4.4-.4.9-.8 1.6-1 .7-.2 1.4-.3 2.3-.2 1.1.1 2.1.4 2.8.8.7.5 1.2 1 1.3 1.6.2.6.2 1.6.1 2.8-.1.6-.1 1.1-.1 1.5z"/><path id="XMLID_103_" class="st35" d="M183.6 15.9c.2 4.6.4 9.2.5 13.7-1.3-.2-2.5-.3-3.8-.4 0-.8.1-1.6.1-2.4-.4 0-.9-.1-1.3-.1-.2.8-.3 1.6-.5 2.4-1.3-.1-2.5-.3-3.8-.4 1.1-4.4 2.1-8.9 3.2-13.3 1.8.1 3.7.3 5.6.5zm-3 8.5c0-1.5 0-3.5.1-5.7-.7 2.5-1.1 4.4-1.4 5.6.4 0 .8 0 1.3.1z"/><path id="XMLID_101_" class="st35" d="M198.5 18c-.8 4.5-1.6 8.9-2.4 13.4-1.1-.2-2.2-.4-3.2-.5l1.5-9c-.9 2.9-1.9 5.9-2.8 8.9-.8-.1-1.5-.2-2.3-.3v-9.1c-.4 3-.9 5.9-1.3 8.9-1.1-.1-2.1-.3-3.2-.4l1.8-13.5c1.7.2 3.4.4 5 .7v6.4c.6-2 1.2-4.1 1.9-6.1 1.6.1 3.3.3 5 .6z"/><path id="XMLID_98_" class="st35" d="M200 18.3c1.3.2 2.6.5 3.9.7 1.1.2 1.9.4 2.4.7.5.3.9.6 1.2.9.2.3.3.7.4 1.1 0 .4-.1 1-.2 1.9l-.3 1.2c-.2.8-.4 1.4-.7 1.8-.3.4-.7.6-1.3.7-.6.1-1.2.1-2.1-.1-.3-.1-.7-.1-1-.2-.4 1.8-.7 3.6-1.1 5.4-1.2-.2-2.5-.4-3.7-.7.9-4.5 1.7-9 2.5-13.4zm3.5 2.9c-.2 1.1-.4 2.3-.7 3.4.1 0 .2 0 .3.1.4.1.6 0 .8-.1.2-.1.3-.4.4-.9.1-.4.1-.7.2-1.1.1-.5.1-.8-.1-.9-.1-.2-.4-.4-.9-.5z"/></g></g></g></svg>