<?xml version="1.0" encoding="utf-8"?>
<!-- Generator: Adobe Illustrator 19.0.0, SVG Export Plug-In . SVG Version: 6.00 Build 0)  -->
<svg version="1.0" id="圖層_1" xmlns="http://www.w3.org/2000/svg" xmlns:xlink="http://www.w3.org/1999/xlink" x="0px" y="0px" width="300px" height="260px"
	 viewBox="0 0 300 260" style="enable-background:new 0 0 300 260;" xml:space="preserve">
<style type="text/css">
	.st0{display:none;}
	.st1{display:inline;fill:url(#XMLID_2_);}
	.st2{display:inline;fill:#FEBC12;}
	.st3{display:inline;fill:url(#XMLID_3_);}
	.st4{display:inline;fill:url(#XMLID_4_);}
	.st5{display:inline;fill:url(#XMLID_5_);}
	.st6{fill:url(#XMLID_6_);}
	.st7{fill:#FEBC12;}
	.st8{fill:url(#XMLID_7_);}
	.st9{fill:url(#XMLID_8_);}
	.st10{display:inline;fill:url(#XMLID_9_);}
	.st11{display:inline;fill:url(#XMLID_10_);}
	.st12{display:inline;fill:url(#XMLID_11_);}
	.st13{fill:#ED1C24;}
	.st14{fill:none;stroke:#414042;stroke-miterlimit:10;}
	.st15{fill:#EC2227;}
	.st16{opacity:0.2;fill:#FFFFFF;enable-background:new    ;}
	.st17{fill:#D1D3D4;}
	.st18{fill:#EB2529;}
	.st19{fill:#BCBEC0;}
	.st20{opacity:0.69;fill:#6D6E71;enable-background:new    ;}
	.st21{opacity:0.31;fill:#58595B;enable-background:new    ;}
	.st22{fill:none;stroke:#414042;stroke-width:0.5;stroke-miterlimit:10;}
	.st23{fill:#58595B;stroke:#414042;stroke-miterlimit:10;}
	.st24{fill:#414042;}
	.st25{opacity:0.32;enable-background:new    ;}
</style>
<g id="fire" class="st0">
	
		<linearGradient id="XMLID_2_" gradientUnits="userSpaceOnUse" x1="151.4071" y1="167.0365" x2="151.4071" y2="200.3566" gradientTransform="matrix(1 0 0 1 0 -16.5083)">
		<stop  offset="0.4929" style="stop-color:#ED683C"/>
		<stop  offset="1" style="stop-color:#E93E3A"/>
	</linearGradient>
	<path id="XMLID_378_" class="st1" d="M154.1,150.9c-3.5-1-7.3,0-10,2.4c-1.5,1.3-3.1,3.3-4.4,6c0,0,0.9-1.2,1.6-1.2
		c0,0-2.6,6.6,1.5,11.2c2,2.2,0.5,7.1,0.5,7.1s2.8-1.5,2.6-5c-0.1-1.5-1.5-3.5,0.1-5.5c0,0,0.1,3.7,1.8,6.6c1.1,2-0.1,3.7,0.6,5.7
		c0.7,2.1,1.8,4.9,2.9,5.5c0,0,0.1-4.9,2.8-7.2c2.7-2.3,1.2-8.8-0.2-10c0,0,2.6,0,4.2,6c0,0,2.2-2.4,0.9-6.5c0,0,1.7,1.3,4.3,1.3
		c0,0-4.3-2.4-4-6.4s0.5-8.5-3.2-9.8C155.3,151.2,154.7,151.1,154.1,150.9z"/>
	<path id="XMLID_377_" class="st2" d="M156,153.3c-2-1.8-4.8-2.3-7.3-1.6c-2.4,0.7-5.5,2.3-6.2,5.6c-0.5,2-0.7,4.8,0,5.7
		c0.2-0.5,0.4-4.5,2.4-4.8c2.1-0.2,1.2,7.2,1.8,8.8c0.5,1.2,0.7,1.7,1.6,2.1c0.5,0.2,1,0,1.2-0.4c0.4-0.7-1.2-3.5-0.7-4.6
		c0.4-1,1.5-1.8,2.6-1.5c1.1,0.4,2.1,2.8,4.9,4.4c1.3,0.7-3.2-6.1-0.9-5.7c1.1,0.1,2.6,2.9,2.6,2.9S160.3,157.2,156,153.3z"/>
	
		<linearGradient id="XMLID_3_" gradientUnits="userSpaceOnUse" x1="150.2743" y1="168.6348" x2="150.2743" y2="178.2861" gradientTransform="matrix(1 0 0 1 0 -16.5083)">
		<stop  offset="0" style="stop-color:#FFF579"/>
		<stop  offset="1" style="stop-color:#FFF9BA"/>
	</linearGradient>
	<path id="XMLID_375_" class="st3" d="M154.6,153.2c-1.3-1.2-3.9-1.2-5.6-1c-1.8,0.2-3.1,1-4.5,2.6c-1,1.2-2,3.2-1.3,3.8
		c0.5-0.5,0.7-1.5,2.3-1.6c1.6-0.1,1.6,3.2,2,4.3c0.4,0.9,1.3-2.6,2-2.7c1.5-0.1,1.3,1.8,3.3,3.1c1,0.5,0.4-4.3,2-4
		c0.7,0.1,3.1,2.7,3.1,2.7S157.6,156,154.6,153.2z"/>
</g>
<g id="fire2" class="st0">
	
		<linearGradient id="XMLID_4_" gradientUnits="userSpaceOnUse" x1="151.0407" y1="122.5494" x2="151.0407" y2="156.1814" gradientTransform="matrix(1 0 0 1 0 27.8173)">
		<stop  offset="0.4929" style="stop-color:#ED683C"/>
		<stop  offset="1" style="stop-color:#E93E3A"/>
	</linearGradient>
	<path id="XMLID_382_" class="st4" d="M154.1,150.7c-3.5-1-7.3,0-10.1,2.4c-1.5,1.3-3.1,3.3-4.4,6c0,0,0.9-1.2,1.6-1.2
		c0,0-2.4,5.3,1.7,10c2.1,2.3-0.6,7.1-0.6,7.1s3.3-0.1,3.2-3.8c-0.1-1.5-1.1-3.5,0.5-5.5c0,0-0.7,3.9,1,6.8c1.1,2,0.1,5.6,0.9,7.7
		c0.7,2.2,2.4,2.8,3.5,3.4c0,0-3.3-5-1.6-5.5c2.4-0.7,3.7,3.4,3.7,3.4c0.1-0.7,0.5-4.6-0.7-5.6c-3.2-2.4-2.1-7.2,0-8.2
		c0,0,2-1.3,4.8,4c0,0,2-2.6,0.6-6.7c0,0,2,0.7,4.5,0.7c0,0-3.4-1.1-3.2-5C159.6,157,158.2,152,154.1,150.7z"/>
	<path id="XMLID_381_" class="st2" d="M155.6,153.4c-2-1.8-4.4-2.6-7-1.8c-2.4,0.7-5.6,2.3-6.2,5.7c-0.5,2-0.1,6.4,0.7,7.3
		c0.2-0.5-0.1-5.4,2-5.5c2.1-0.1,2.2,6.6,2,8.2c-0.2,1.3,0.4,3.5,1.2,3.9c0.5,0.2,1.7-1.8,1.7-2.7s-1.2-1.8-1.2-3.2
		c0-1.1,0.7-2.7,2-2.3c1.1,0.4,2.8,2.3,5.6,3.9c1.5,0.7-3.7-6.1-1.2-5.7c1.1,0.1,3.1,2.2,3.1,2.2S160,157.5,155.6,153.4z"/>
	
		<linearGradient id="XMLID_5_" gradientUnits="userSpaceOnUse" x1="150.0621" y1="124.6018" x2="150.0621" y2="133.6259" gradientTransform="matrix(1 0 0 1 0 27.8173)">
		<stop  offset="0" style="stop-color:#FFF579"/>
		<stop  offset="1" style="stop-color:#FFF9BA"/>
	</linearGradient>
	<path id="XMLID_379_" class="st5" d="M154.5,153.6c-1.3-1.3-3.5-1.2-5.1-1c-1.8,0.2-3.4,0.6-4.9,2.2c-1,1.2-2,3.2-1.5,3.9
		c0.5-0.5,0.9-1.7,2.3-2c1.5-0.2,1.5,3.1,1.8,4.2c0.4,0.9,1.5-2.6,2.1-2.7c1.5-0.1,1.1,2.1,3.1,3.2c1,0.5,0.9-4.3,2.4-4
		c0.7,0.1,2.6,2.9,2.6,2.9S157.5,156.4,154.5,153.6z"/>
</g>
<g id="fire3">
	
		<linearGradient id="XMLID_6_" gradientUnits="userSpaceOnUse" x1="150.1248" y1="208.0361" x2="150.1248" y2="243.549" gradientTransform="matrix(1 0 0 1 0 -56.7402)">
		<stop  offset="0.4929" style="stop-color:#ED683C"/>
		<stop  offset="1" style="stop-color:#E93E3A"/>
	</linearGradient>
	<path id="XMLID_386_" class="st6" d="M154.2,151.7c-3.9-1.1-8.1,0-11,2.7c-1.6,1.5-3.3,3.5-4.9,6.6c0,0,0.9-1.3,1.7-1.3
		c0,0-2.2,3.7-0.6,8.4c0.7,3.3,3.1,5.7,2.9,1.8c-0.1-1.6,2.8-4.9,2.8-1.6c0,0-0.9,4.3,1.1,7.5c1.2,2.1-0.4,6.1,0.4,8.4
		c0.7,2.3,2,1.8,3.2,2.6c0,0-3.9-5.3-0.7-9.6c1.6-2.2,1.1-5.4,3.4-6.6c0,0,1.6-0.2,4.6,5.6c0,0,1.1-3.7-0.5-8.1c0,0,2.4,3.7,5.3,3.7
		c0,0-2.4-4.4-2.1-8.7C160,158.8,158.7,153.1,154.2,151.7z"/>
	<path id="XMLID_385_" class="st7" d="M155.8,154.5c-2.2-2-4.8-2.8-7.6-2c-2.7,0.9-6.1,2.6-6.8,6.2c-0.5,2.2-0.1,7,0.7,8.1
		c0.2-0.5-0.1-5.7,2.2-6c2.3-0.2,2.4,7.1,2.1,8.9c-0.2,1.5,0.4,3.8,1.3,4.3c0.5,0.2,1.8-2.1,2-2.9c0-0.9-1.3-2.1-1.3-3.4
		c0-1.2,0.7-2.9,2.2-2.4c1.1,0.4,1.6,3.3,4.6,5c1.6,0.9-2.6-7.5,0-7.1c1.2,0.2,3.3,4.2,3.3,4.2S160.6,158.9,155.8,154.5z"/>
	
		<linearGradient id="XMLID_7_" gradientUnits="userSpaceOnUse" x1="149.6226" y1="210.2634" x2="149.6226" y2="220.0905" gradientTransform="matrix(1 0 0 1 0 -56.7402)">
		<stop  offset="0" style="stop-color:#FFF579"/>
		<stop  offset="1" style="stop-color:#FFF9BA"/>
	</linearGradient>
	<path id="XMLID_384_" class="st8" d="M154.6,154.8c-1.5-1.3-3.8-1.3-5.6-1.1c-2,0.4-3.7,0.6-5.4,2.4c-1.1,1.3-2.2,3.4-1.6,4.2
		c0.5-0.5,0.9-2,2.6-2.1c1.6-0.1,1.6,3.3,2,4.5c0.4,1,1.6-2.8,2.2-2.9c1.7-0.1,1.2,2.2,3.3,3.4c1.1,0.6,0.9-4.8,2.7-4.4
		c0.9,0.1,2.7,3.2,2.7,3.2S157.9,157.8,154.6,154.8z"/>
	
		<linearGradient id="XMLID_8_" gradientUnits="userSpaceOnUse" x1="145.2423" y1="233.2852" x2="145.2423" y2="243.128" gradientTransform="matrix(0.9992 -3.979808e-002 3.979808e-002 0.9992 -3.3207 -49.7818)">
		<stop  offset="0.4929" style="stop-color:#ED683C"/>
		<stop  offset="1" style="stop-color:#E93E3A"/>
	</linearGradient>
	<path id="XMLID_383_" class="st9" d="M150.8,177.6c0,0-2.4,2.1-1.1,4.5c1.2,2.4,2.4,3.8,2.1,5.3c0,0,2.1-2.2,1.3-4
		C152.3,181.5,150.2,179.8,150.8,177.6z"/>
</g>
<g id="fire4" class="st0">
	
		<linearGradient id="XMLID_9_" gradientUnits="userSpaceOnUse" x1="150.9797" y1="131.7823" x2="150.9797" y2="163.1491" gradientTransform="matrix(1 0 0 1 0 18.5899)">
		<stop  offset="0.4929" style="stop-color:#ED683C"/>
		<stop  offset="1" style="stop-color:#E93E3A"/>
	</linearGradient>
	<path id="XMLID_396_" class="st10" d="M154.3,150.7c-3.8-1.1-7.9,0-10.9,2.7c-1.6,1.5-3.3,3.5-4.8,6.5c0,0,0.9-1.3,1.7-1.3
		c0,0-2.6,5.7,1.8,10.9c2.2,2.4,0.1-2.7,2.7-4.3c0,0-0.4,6.2,1.6,9.4c1.2,2.1,2.9-7.5,5.9-7.2c1.3,0.1,4.3,3.5,4.4,6.7
		c0.1,3.4-2,7.6-2,7.6c0.1-0.7,5.6-4.8,4.5-7c-2.6-4.9,0.4-5.7-2.1-9.9c0,0,3.2,2.3,6,2.3c0,0-3.7-1.1-3.4-5.4
		C160.1,157.8,158.9,152.1,154.3,150.7z"/>
	<path id="XMLID_395_" class="st2" d="M155.9,153.6c-2.2-2-4.6-2.8-7.5-2c-2.7,0.9-6,2.6-6.7,6.1c-0.5,2.2-0.1,6.8,0.7,7.9
		c0.2-0.5-0.1-5.7,2.2-6c2.3-0.2,2.4,7.1,2.1,8.8c-0.2,1.5,1.8-0.7,1.8-2.1c0-1.2,0.7-2.8,2.1-2.4c1.1,0.4,3.1,2.4,6,4.2
		c1.5,0.9-3.9-6.6-1.3-6.2c1.2,0.1,3.3,2.4,3.3,2.4S160.7,157.9,155.9,153.6z"/>
	
		<linearGradient id="XMLID_10_" gradientUnits="userSpaceOnUse" x1="150.092" y1="133.9811" x2="150.092" y2="143.7009" gradientTransform="matrix(1 0 0 1 0 18.5899)">
		<stop  offset="0" style="stop-color:#FFF579"/>
		<stop  offset="1" style="stop-color:#FFF9BA"/>
	</linearGradient>
	<path id="XMLID_388_" class="st11" d="M154.7,153.8c-1.5-1.3-3.8-1.3-5.5-1c-2,0.4-3.7,0.6-5.3,2.3c-1.1,1.3-2.1,3.4-1.5,4.2
		c0.5-0.5,0.9-1.8,2.6-2.1c1.6-0.1,1.6,3.3,2,4.5c0.4,0.9,1.6-2.8,2.2-2.8c1.6-0.1,1.1,2.2,3.3,3.4c1.1,0.6,0.9-4.6,2.7-4.4
		c0.9,0.1,2.7,3.2,2.7,3.2S158,156.8,154.7,153.8z"/>
	
		<linearGradient id="XMLID_11_" gradientUnits="userSpaceOnUse" x1="150.1079" y1="150.7489" x2="150.1079" y2="160.484" gradientTransform="matrix(0.9992 -3.979808e-002 3.979808e-002 0.9992 -3.3207 25.5483)">
		<stop  offset="0.4929" style="stop-color:#ED683C"/>
		<stop  offset="1" style="stop-color:#E93E3A"/>
	</linearGradient>
	<path id="XMLID_387_" class="st12" d="M152.4,170.2c0,0-2.3,2.1-1.1,4.5c1.2,2.4,2.4,3.8,2.1,5.3c0,0,2.1-2.2,1.2-4
		C153.8,174.2,151.8,172.5,152.4,170.2z"/>
</g>
<g id="missile">
	<path id="XMLID_374_" class="st13" d="M152.6,89.5h-4.2c-1.2,0-2.2-1.2-2.2-2.7l0,0c0-1.5,1-2.7,2.2-2.7h4.2c1.2,0,2.2,1.2,2.2,2.7
		l0,0C154.8,88.3,153.8,89.5,152.6,89.5z"/>
	<path id="XMLID_359_" class="st14" d="M152.6,89.5h-4.2c-1.2,0-2.2-1.2-2.2-2.7l0,0c0-1.5,1-2.7,2.2-2.7h4.2c1.2,0,2.2,1.2,2.2,2.7
		l0,0C154.8,88.3,153.8,89.5,152.6,89.5z"/>
	<polygon id="XMLID_111_" class="st15" points="136.1,102.8 144,87.1 156.7,87.1 165.1,102.8 	"/>
	<polygon id="XMLID_373_" class="st16" points="146.4,87.1 138.5,102.8 143.7,102.8 151.4,87.1 	"/>
	<polygon id="XMLID_354_" class="st14" points="136.1,102.8 144,87.1 156.7,87.1 165.1,102.8 	"/>
	<polygon id="XMLID_350_" class="st17" points="135.8,150.3 135.8,134.7 144.3,124.2 148.4,129.5 139.9,150.3 	"/>
	<polygon id="XMLID_372_" class="st18" points="138.6,136.2 146.3,126.7 144.3,124.2 135.8,134.7 135.8,150.3 138.6,150.3 	"/>
	<polygon id="XMLID_339_" class="st14" points="135.8,150.3 135.8,134.7 144.3,124.2 148.4,129.5 139.9,150.3 	"/>
	<polygon id="XMLID_399_" class="st17" points="165.4,150.3 165.4,134.7 156.9,124.2 152.8,129.5 161.3,150.3 	"/>
	<polygon id="XMLID_398_" class="st18" points="162.6,136.2 154.9,126.7 156.9,124.2 165.4,134.7 165.4,150.3 162.6,150.3 	"/>
	<polygon id="XMLID_397_" class="st14" points="165.4,150.3 165.4,134.7 156.9,124.2 152.8,129.5 161.3,150.3 	"/>
	<polygon id="XMLID_112_" class="st19" points="144.3,145.2 135.8,103.2 165.4,103.2 156.9,145.2 	"/>
	<polygon id="XMLID_360_" class="st20" points="135.8,103.2 144.3,145.2 151.3,145.2 142.8,103.2 	"/>
	<path id="XMLID_380_" class="st21" d="M159.9,113.3L159.9,113.3c-0.1,0.1-0.1,0.1-0.1,0.3l-2.2,10.6c-0.1,0.6-0.6,1-1.1,1h-1.3
		c0,0.7,0.5,1.5,1.1,1.5h1.4c0.5,0,1-0.4,1.1-1L161,115C161.3,114.2,160.7,113.3,159.9,113.3z"/>
	<path id="XMLID_352_" class="st22" d="M161,115l-2.2,10.6c-0.1,0.6-0.6,1-1.1,1h-1.4c-0.7,0-1.3-0.9-1.1-1.8l2.2-10.6
		c0.1-0.6,0.6-1,1.1-1h1.4C160.7,113.3,161.3,114.2,161,115z"/>
	<polygon id="XMLID_355_" class="st14" points="144.3,145.2 135.8,103.2 165.4,103.2 156.9,145.2 	"/>
	<rect id="XMLID_376_" x="144.3" y="145.2" class="st23" width="12.7" height="7.4"/>
	<rect id="XMLID_113_" x="144.3" y="145.2" class="st24" width="12.7" height="4.4"/>
	<rect id="XMLID_357_" x="144.9" y="145.2" class="st25" width="6.3" height="4.4"/>
	<line id="XMLID_358_" class="st22" x1="136.2" y1="105.6" x2="165.1" y2="105.6"/>
</g>
</svg>
