<?xml version="1.0" encoding="utf-8"?>
<!-- Generator: Adobe Illustrator 19.0.0, SVG Export Plug-In . SVG Version: 6.00 Build 0)  -->
<svg version="1.0" id="Calque_1" xmlns="http://www.w3.org/2000/svg" xmlns:xlink="http://www.w3.org/1999/xlink" x="0px" y="0px" width="300px" height="260px"
	 viewBox="0 21 300 260" style="enable-background:new 0 21 300 260;" xml:space="preserve">
<style type="text/css">
	.st0{fill:#CB2890;stroke:#58595B;stroke-width:3;stroke-miterlimit:10;}
	.st1{opacity:0.61;fill:#E6E7E8;enable-background:new    ;}
	.st2{opacity:0.3;enable-background:new    ;}
	.st3{opacity:0.3;fill:#FFFFFF;enable-background:new    ;}
	.st4{opacity:0.21;enable-background:new    ;}
	.st5{opacity:0.52;fill:url(#XMLID_2_);enable-background:new    ;}
	.st6{opacity:0.46;fill:url(#XMLID_3_);enable-background:new    ;}
	.st7{opacity:0.18;fill:#FFFFFF;enable-background:new    ;}
	.st8{fill:#CB2890;stroke:#58595B;stroke-width:4;stroke-miterlimit:10;}
	.st9{opacity:0.52;fill:url(#XMLID_4_);enable-background:new    ;}
	.st10{opacity:0.46;fill:url(#XMLID_5_);enable-background:new    ;}
	.st11{opacity:0.52;fill:url(#XMLID_6_);enable-background:new    ;}
	.st12{opacity:0.46;fill:url(#XMLID_7_);enable-background:new    ;}
	.st13{opacity:0.52;fill:url(#XMLID_8_);enable-background:new    ;}
	.st14{opacity:0.46;fill:url(#XMLID_9_);enable-background:new    ;}
	.st15{opacity:0.52;fill:url(#XMLID_10_);enable-background:new    ;}
	.st16{opacity:0.46;fill:url(#XMLID_11_);enable-background:new    ;}
	.st17{opacity:0.52;fill:url(#XMLID_12_);enable-background:new    ;}
	.st18{opacity:0.46;fill:url(#XMLID_13_);enable-background:new    ;}
	.st19{opacity:0.52;fill:url(#XMLID_14_);enable-background:new    ;}
	.st20{opacity:0.46;fill:url(#XMLID_15_);enable-background:new    ;}
	.st21{opacity:0.52;fill:url(#XMLID_16_);enable-background:new    ;}
	.st22{opacity:0.46;fill:url(#XMLID_17_);enable-background:new    ;}
	.st23{opacity:0.52;fill:url(#XMLID_18_);enable-background:new    ;}
	.st24{opacity:0.46;fill:url(#XMLID_19_);enable-background:new    ;}
	.st25{opacity:0.52;fill:url(#XMLID_20_);enable-background:new    ;}
	.st26{opacity:0.46;fill:url(#XMLID_21_);enable-background:new    ;}
	.st27{opacity:0.52;fill:url(#XMLID_22_);enable-background:new    ;}
	.st28{opacity:0.46;fill:url(#XMLID_23_);enable-background:new    ;}
	.st29{opacity:0.52;fill:url(#XMLID_24_);enable-background:new    ;}
	.st30{opacity:0.46;fill:url(#XMLID_25_);enable-background:new    ;}
</style>
<g id="圖層_2_1_">
	<path id="XMLID_366_" class="st0" d="M160,166.8c0,0,1.3,1.3,0.5,3.3c-0.9,2.3-4.4,8.2-5,9.2c0,0.1-0.1,0.2-0.1,0.2
		c-0.2,0.5-1.1,2.4-4.8,2.2c-2.9-0.2-5.8,0-7.3,0.1c-1,0.1-1.9-0.4-2.4-1.3c-0.1-0.1-0.2-0.3-0.2-0.4c-0.8-1.6-4.4-10.5-5.2-12.3
		c-0.1-0.2-0.2-0.4-0.3-0.5c-0.3-0.5-1.1-1.7,0.8-3.3c2.4-1.9,5.1-3.7,5.1-3.7s1-0.8,2.4-0.7c1.2,0.1,10.7,3.3,11.9,3.7
		c0.1,0,0.1,0,0.2,0.1C155.8,163.5,157.5,164,160,166.8z"/>
	<path id="XMLID_365_" class="st1" d="M148.7,167l-0.8,2.8c0,0-0.2,0.5-0.8,0.4s-5-1.2-5-1.2l5.3,1.8c0,0,0.4,0.2,1.4,1.4
		c0.9,1.2,1.9,2.4,1.9,2.4s-2.6-3.3-2.5-4.1C148.2,169.8,148.7,167,148.7,167z"/>
	<path id="XMLID_364_" class="st2" d="M143.2,181.9c1.5-0.1,4.4-0.3,7.3-0.1c3.7,0.2,4.6-1.8,4.8-2.2c0-0.1,0.1-0.2,0.1-0.2
		c0.6-1,4.1-6.9,5-9.2c0.8-2-0.5-3.3-0.5-3.3l0,0l-0.3,0.7c0,0-1.4,5.8-7,8.4c-5.5,2.6-10.7,3-12.6,2.7c0,0.1-0.1,0.2-0.1,0.3
		c0.1,0.3,0.2,0.5,0.3,0.7v0.1c0,0.1,0.1,0.1,0.1,0.2v0.1c0,0.1,0.1,0.1,0.1,0.2c0.1,0.2,0.2,0.3,0.2,0.4
		C141.3,181.5,142.2,181.9,143.2,181.9z"/>
	<path id="XMLID_363_" class="st3" d="M154.5,163.2c-0.9-0.3-2.4-0.8-4-1.3l0,0c-0.1,0-0.3-0.1-0.4-0.1l0,0l-0.2,0.2l-2,8.9l7,9.5
		c0.1-0.1,0.1-0.2,0.2-0.2l0,0c0-0.1,0.1-0.1,0.1-0.2l0,0c0-0.1,0.1-0.1,0.1-0.1l0,0c0,0,0-0.1,0.1-0.1c0-0.1,0.1-0.2,0.1-0.2
		c0.6-1,4.1-6.9,5-9.2c0.8-2-0.5-3.3-0.5-3.3c-2.5-2.8-4.2-3.3-4.6-3.4c-0.1,0-0.1,0-0.2-0.1c-0.1,0-0.3-0.1-0.6-0.2
		C154.6,163.2,154.5,163.2,154.5,163.2z"/>
	<path id="XMLID_362_" class="st4" d="M139.7,165.8l1.9-5.7c-0.3,0.2-0.5,0.3-0.5,0.3s-2.7,1.7-5.1,3.7c-0.5,0.4-0.8,0.8-1,1.2
		L139.7,165.8z"/>
	
		<linearGradient id="XMLID_2_" gradientUnits="userSpaceOnUse" x1="3.4376" y1="182.3522" x2="3.4376" y2="170.718" gradientTransform="matrix(-0.7503 0.6611 0.6611 0.7503 30.7136 30.2698)">
		<stop  offset="0" style="stop-color:#FFFFFF"/>
		<stop  offset="3.264958e-002" style="stop-color:#FFFFFF;stop-opacity:0.9674"/>
		<stop  offset="1" style="stop-color:#FFFFFF;stop-opacity:0"/>
	</linearGradient>
	<path id="XMLID_361_" class="st5" d="M148.2,169.5l0.3-1.2c0,0,1.2-5.3,1.4-6.1c0.1-0.3,0-0.5-0.1-0.6c-2.8-0.9-5.7-1.8-6.4-1.9
		c-0.7,0-1.4,0.2-1.8,0.4l0,0c0,0-1.3,3.9-1.9,5.7c-0.6,1.7,0.1,2.5,0.1,2.5s5.6,1.7,6.9,2C148,170.6,148.2,169.5,148.2,169.5z"/>
	
		<linearGradient id="XMLID_3_" gradientUnits="userSpaceOnUse" x1="7.8476" y1="173.0604" x2="13.402" y2="173.0604" gradientTransform="matrix(-0.7503 0.6611 0.6611 0.7503 30.7136 30.2698)">
		<stop  offset="1.065275e-007" style="stop-color:#000000"/>
		<stop  offset="1" style="stop-color:#000000;stop-opacity:0"/>
	</linearGradient>
	<path id="XMLID_360_" class="st6" d="M139.7,165.8l-4.8-0.5l0,0c-0.5,1,0,1.7,0.2,2.1c0.1,0.1,0.2,0.3,0.3,0.5
		c0.2,0.4,0.8,1.9,1.2,2.8c1,0,1.7-0.6,2.4-1.6c0.3-0.5,0.6-1.1,0.5-1.8C139.4,166.7,139.7,165.8,139.7,165.8z"/>
	<path id="XMLID_359_" class="st7" d="M137.6,169.4c0,0,0,0.3-0.3,0.3c-0.2,0.1-0.4,0-0.3-0.1s0.3-0.4,0.4-0.4
		S137.6,169.4,137.6,169.4z"/>
	<path id="XMLID_358_" class="st7" d="M138.8,165.3c0,0-0.2,0.1-0.4-0.1c-0.2-0.2-0.3-0.3-0.1-0.3s0.5,0,0.6,0.1
		C138.9,165.2,138.8,165.3,138.8,165.3z"/>
	<path id="XMLID_357_" class="st7" d="M144.5,179.1c0,0,0.1,0.3-0.2,0.4c-0.2,0.1-0.4,0.2-0.3,0s0.1-0.5,0.3-0.5
		C144.4,179,144.5,179.1,144.5,179.1z"/>
	<path id="XMLID_355_" class="st7" d="M147.9,171.7c0,0,0,0.1-0.1,0.2c-0.1,0-0.1,0-0.1,0S147.7,171.7,147.9,171.7
		C147.9,171.6,147.9,171.7,147.9,171.7z"/>
	<path id="XMLID_354_" class="st8" d="M114.4,149.7c0,0-1.8,0-2.6-2c-1-2.3-2.6-9-2.9-10.1c0-0.1,0-0.2-0.1-0.3
		c-0.2-0.5-0.9-2.5,1.8-5c2.2-1.9,4.1-4.1,5.1-5.2c0.6-0.7,1.6-1,2.6-0.8c0.1,0,0.3,0.1,0.5,0.1c1.8,0.6,10.5,4.4,12.4,5.1
		c0.2,0.1,0.4,0.1,0.5,0.2c0.6,0.2,2,0.5,1.7,2.9c-0.3,3-1.1,6.2-1.1,6.2s-0.2,1.3-1.2,2.2c-0.9,0.8-9.9,5.2-11,5.7
		c-0.1,0-0.1,0.1-0.2,0.1C119.7,149.1,118.1,150,114.4,149.7z"/>
	<path id="XMLID_352_" class="st1" d="M122.4,141.6l-1.4-2.5c0,0-0.2-0.5,0.2-0.9c0.4-0.4,4.5-2.7,4.5-2.7l-5,2.4c0,0-0.4,0.2-1.9,0
		c-1.5-0.2-3-0.3-3-0.3s4.2,0.5,4.7,1.1C120.7,139.3,122.4,141.6,122.4,141.6z"/>
	<path id="XMLID_350_" class="st2" d="M115.8,127.2c-1,1.1-2.9,3.3-5.1,5.2c-2.8,2.5-2.1,4.5-1.8,5c0,0.1,0.1,0.2,0.1,0.3
		c0.3,1.1,1.9,7.8,2.9,10.1c0.8,2,2.6,2,2.6,2l0,0l-0.3-0.7c0,0-3.1-5.2-1-10.9c2.1-5.7,5.5-9.7,7.1-10.8c0-0.1-0.1-0.2-0.1-0.3
		c-0.3-0.1-0.5-0.2-0.7-0.3h-0.1c-0.1,0-0.1-0.1-0.2-0.1h-0.1c-0.1,0-0.2-0.1-0.2-0.1c-0.2-0.1-0.3-0.1-0.5-0.1
		C117.4,126.2,116.4,126.5,115.8,127.2z"/>
	<path id="XMLID_346_" class="st3" d="M120.9,148.4c0.9-0.4,2.3-1.1,3.8-1.9l0,0c0.1-0.1,0.3-0.1,0.4-0.2l0,0V146l-4.9-7.7
		l-11.7-1.9c0,0.1,0,0.2,0,0.3l0,0c0,0.1,0,0.2,0.1,0.2l0,0c0,0.1,0,0.1,0,0.2l0,0c0,0.1,0,0.1,0.1,0.1c0,0.1,0.1,0.2,0.1,0.3
		c0.3,1.1,1.9,7.8,2.9,10.1c0.8,2,2.6,2,2.6,2c3.7,0.3,5.3-0.6,5.6-0.8c0.1,0,0.1-0.1,0.2-0.1c0.1-0.1,0.3-0.2,0.6-0.3
		C120.8,148.5,120.9,148.5,120.9,148.4z"/>
	<path id="XMLID_343_" class="st4" d="M129.6,136.1l2.6,5.4c0.1-0.4,0.2-0.6,0.2-0.6s0.7-3.1,1.1-6.2c0.1-0.7,0-1.2-0.1-1.6
		L129.6,136.1z"/>
	
		<linearGradient id="XMLID_4_" gradientUnits="userSpaceOnUse" x1="149.2609" y1="75.7955" x2="149.2609" y2="64.157" gradientTransform="matrix(6.879872e-002 -0.9976 -0.9976 -6.879872e-002 186.0209 293.9048)">
		<stop  offset="0" style="stop-color:#FFFFFF"/>
		<stop  offset="3.264958e-002" style="stop-color:#FFFFFF;stop-opacity:0.9674"/>
		<stop  offset="1" style="stop-color:#FFFFFF;stop-opacity:0"/>
	</linearGradient>
	<path id="XMLID_339_" class="st9" d="M121,139.5l0.7,1c0,0,2.9,4.6,3.3,5.3c0.1,0.3,0.3,0.3,0.5,0.3c2.6-1.3,5.3-2.7,5.8-3.1
		c0.6-0.5,0.9-1.1,1-1.6l0,0c0,0-1.8-3.7-2.6-5.4c-0.8-1.6-1.8-1.7-1.8-1.7s-5.1,2.7-6.3,3.5C120.4,138.6,121,139.5,121,139.5z"/>
	
		<linearGradient id="XMLID_5_" gradientUnits="userSpaceOnUse" x1="153.5078" y1="66.485" x2="159.0621" y2="66.485" gradientTransform="matrix(6.879872e-002 -0.9976 -0.9976 -6.879872e-002 186.0209 293.9048)">
		<stop  offset="1.065275e-007" style="stop-color:#000000"/>
		<stop  offset="1" style="stop-color:#000000;stop-opacity:0"/>
	</linearGradient>
	<path id="XMLID_337_" class="st10" d="M129.6,136.1l3.7-3l0,0c-0.3-1-1.2-1.2-1.6-1.4c-0.1-0.1-0.3-0.1-0.5-0.2
		c-0.4-0.1-1.9-0.8-2.8-1.1c-0.7,0.7-0.8,1.6-0.6,2.8c0.1,0.6,0.4,1.2,0.9,1.6C129.2,135.3,129.6,136.1,129.6,136.1z"/>
	<path id="XMLID_317_" class="st7" d="M128.5,132.1c0,0-0.2-0.2,0-0.4c0.1-0.2,0.2-0.3,0.3-0.2c0,0.1,0.1,0.5,0,0.6
		C128.6,132.2,128.5,132.1,128.5,132.1z"/>
	<path id="XMLID_91_" class="st7" d="M130.6,135.9c0,0,0.1-0.3,0.3-0.3s0.4,0,0.3,0.1c-0.1,0.1-0.3,0.3-0.5,0.3
		C130.6,136,130.6,135.9,130.6,135.9z"/>
	<path id="XMLID_76_" class="st7" d="M116.8,130c0,0-0.2-0.1-0.2-0.4c0-0.3,0.1-0.4,0.2-0.2c0.1,0.2,0.2,0.4,0.2,0.5
		C116.9,130.1,116.8,130,116.8,130z"/>
	<path id="XMLID_77_" class="st7" d="M119.6,137.7c0,0-0.1-0.1-0.1-0.2s0.1-0.1,0.1,0S119.7,137.6,119.6,137.7L119.6,137.7z"/>
</g>
<g id="圖層_2_拷貝">
	<path id="XMLID_388_" class="st0" d="M167.5,205.1c0,0-0.8,1.6-2.9,1.5c-2.5-0.1-9.2-1.6-10.3-1.8c-0.1,0-0.2,0-0.3,0
		c-0.5,0-2.7-0.3-3.7-3.8c-0.8-2.8-1.9-5.5-2.4-6.9c-0.4-0.9-0.2-1.9,0.4-2.7c0.1-0.1,0.2-0.2,0.3-0.4c1.3-1.3,8.5-7.5,10-8.9
		c0.2-0.1,0.3-0.3,0.4-0.4c0.4-0.4,1.3-1.6,3.4-0.3c2.6,1.6,5.1,3.7,5.1,3.7s1.1,0.7,1.5,2c0.3,1.2,0.3,11.2,0.3,12.4
		c0,0.1,0,0.1,0,0.2C169.3,200.1,169.4,201.9,167.5,205.1z"/>
	<path id="XMLID_387_" class="st1" d="M163.7,194.4l-2.9,0.2c0,0-0.5,0-0.7-0.6c-0.1-0.6-0.4-5.2-0.4-5.2v5.6c0,0,0,0.5-0.9,1.7
		c-0.9,1.3-1.6,2.6-1.6,2.6s2.3-3.6,3-3.7C160.9,194.9,163.7,194.4,163.7,194.4z"/>
	<path id="XMLID_386_" class="st2" d="M147.9,194c0.6,1.4,1.6,4.1,2.4,6.9c1,3.5,3.2,3.8,3.7,3.8c0.1,0,0.2,0,0.3,0
		c1.1,0.2,7.8,1.7,10.3,1.8c2.1,0.1,2.9-1.5,2.9-1.5l0,0l-0.8-0.1c0,0-6,0.5-10.2-3.9s-6.3-9.2-6.6-11.1c-0.1,0-0.2,0-0.3,0
		c-0.2,0.2-0.4,0.4-0.6,0.5c0,0,0,0-0.1,0.1s-0.1,0.1-0.2,0.1c0,0,0,0-0.1,0.1s-0.1,0.1-0.2,0.2c-0.1,0.1-0.2,0.2-0.3,0.4
		C147.6,192.1,147.5,193.1,147.9,194z"/>
	<path id="XMLID_385_" class="st3" d="M169.2,198.7c0-0.9,0-2.5,0-4.2l0,0c0-0.2,0-0.3,0-0.5l0,0l-0.3-0.1l-9.1,1l-6.8,9.7
		c0.1,0,0.2,0.1,0.3,0.1l0,0c0.1,0,0.2,0,0.2,0.1l0,0c0.1,0,0.1,0,0.2,0l0,0c0.1,0,0.1,0,0.1,0c0.1,0,0.2,0,0.3,0
		c1.1,0.2,7.8,1.7,10.3,1.8c2.1,0.1,2.9-1.5,2.9-1.5c1.9-3.2,1.8-5,1.7-5.4c0-0.1,0-0.1,0-0.2c0-0.1,0-0.4,0-0.7
		C169.2,198.8,169.2,198.7,169.2,198.7z"/>
	<path id="XMLID_384_" class="st4" d="M162,185.5h6c-0.3-0.3-0.5-0.4-0.5-0.4s-2.5-2-5.1-3.7c-0.6-0.4-1-0.5-1.4-0.6L162,185.5z"/>
	
		<linearGradient id="XMLID_6_" gradientUnits="userSpaceOnUse" x1="-61.7622" y1="186.1064" x2="-61.7622" y2="174.468" gradientTransform="matrix(-0.8671 -0.4981 -0.4981 0.8671 200.5366 3.0118)">
		<stop  offset="0" style="stop-color:#FFFFFF"/>
		<stop  offset="3.264958e-002" style="stop-color:#FFFFFF;stop-opacity:0.9674"/>
		<stop  offset="1" style="stop-color:#FFFFFF;stop-opacity:0"/>
	</linearGradient>
	<path id="XMLID_383_" class="st11" d="M161.2,194.7l1.2-0.1c0,0,5.4-0.6,6.2-0.6c0.3,0,0.5-0.1,0.5-0.3c0-2.9-0.1-6-0.3-6.6
		c-0.2-0.7-0.6-1.2-1-1.6l0,0c0,0-4.2,0-6,0s-2.3,0.9-2.3,0.9s0.2,5.8,0.3,7.2C160.1,195,161.2,194.7,161.2,194.7z"/>
	
		<linearGradient id="XMLID_7_" gradientUnits="userSpaceOnUse" x1="-57.4493" y1="176.7062" x2="-51.8948" y2="176.7062" gradientTransform="matrix(-0.8671 -0.4981 -0.4981 0.8671 200.5366 3.0118)">
		<stop  offset="1.065275e-007" style="stop-color:#000000"/>
		<stop  offset="1" style="stop-color:#000000;stop-opacity:0"/>
	</linearGradient>
	<path id="XMLID_382_" class="st12" d="M162,185.5l-1.1-4.7l0,0c-1.1-0.2-1.6,0.5-1.9,0.8c-0.1,0.1-0.2,0.3-0.4,0.4
		c-0.3,0.3-1.5,1.4-2.2,2c0.3,0.9,1.1,1.5,2.3,1.7c0.6,0.1,1.3,0.2,1.8-0.1C161,185.5,162,185.5,162,185.5z"/>
	<path id="XMLID_381_" class="st7" d="M157.8,184.7c0,0-0.3,0-0.4-0.2s-0.2-0.4,0-0.3c0.1,0,0.5,0.1,0.5,0.3
		C158,184.7,157.8,184.7,157.8,184.7z"/>
	<path id="XMLID_380_" class="st7" d="M162.1,184.5c0,0-0.2-0.2-0.1-0.4c0.1-0.2,0.2-0.3,0.2-0.2s0.2,0.4,0.1,0.6
		C162.3,184.6,162.1,184.5,162.1,184.5z"/>
	<path id="XMLID_379_" class="st7" d="M150.8,194.3c0,0-0.2,0.1-0.4,0c-0.2-0.2-0.3-0.3-0.1-0.3s0.5,0,0.6,0.1
		S150.8,194.3,150.8,194.3z"/>
	<path id="XMLID_378_" class="st7" d="M159,195.2c0,0-0.1,0.1-0.2,0c-0.1-0.1-0.1-0.1,0-0.1s0.1-0.1,0.2,0S159,195.2,159,195.2z"/>
	<path id="XMLID_377_" class="st8" d="M169.1,156.4c0,0-0.6-1.7,1.1-3.1c1.9-1.7,7.7-5.4,8.6-6c0.1,0,0.1-0.1,0.2-0.2
		c0.4-0.4,2.1-1.7,5.3,0.1c2.5,1.4,5.2,2.6,6.6,3.2c0.9,0.4,1.5,1.2,1.6,2.2c0,0.2,0,0.3,0,0.5c0,1.8-0.8,11.3-0.8,13.3
		c0,0.2,0,0.4,0,0.6c0,0.6,0.2,2-2.2,2.5c-3,0.7-6.2,1-6.2,1s-1.3,0.3-2.4-0.4c-1.1-0.6-8.1-7.7-8.9-8.6c-0.1-0.1-0.1-0.1-0.2-0.1
		C171.3,161.2,170,160,169.1,156.4z"/>
	<path id="XMLID_376_" class="st1" d="M179.3,161.3l2-2.2c0,0,0.4-0.4,0.9-0.1s3.9,3.4,3.9,3.4l-3.9-4c0,0-0.3-0.4-0.6-1.9
		s-0.7-3-0.7-3s0.9,4.2,0.4,4.8C180.9,159,179.3,161.3,179.3,161.3z"/>
	<path id="XMLID_375_" class="st2" d="M190.8,150.5c-1.4-0.6-4-1.7-6.6-3.2c-3.2-1.8-4.9-0.5-5.3-0.1c-0.1,0.1-0.1,0.1-0.2,0.2
		c-1,0.6-6.7,4.3-8.6,6c-1.6,1.4-1.1,3.1-1.1,3.1l0,0l0.6-0.5c0,0,3.9-4.6,10-4.4c6.1,0.2,10.9,2.1,12.5,3.2
		c0.1-0.1,0.1-0.1,0.2-0.2c0-0.3,0-0.5,0-0.8v-0.1c0-0.1,0-0.1,0-0.2v-0.1c0-0.1,0-0.2,0-0.2c0-0.2,0-0.3,0-0.5
		C192.3,151.7,191.7,150.8,190.8,150.5z"/>
	<path id="XMLID_374_" class="st3" d="M172.3,162.2c0.7,0.7,1.8,1.8,3,3l0,0c0.1,0.1,0.2,0.2,0.3,0.3l0,0l0.3-0.1l5.7-7.1l-2-11.6
		c-0.1,0-0.2,0.1-0.3,0.1l0,0c-0.1,0-0.1,0.1-0.2,0.1l0,0L179,147l0,0l-0.1,0.1c-0.1,0.1-0.1,0.1-0.2,0.2c-1,0.6-6.7,4.3-8.6,6
		c-1.6,1.4-1.1,3.1-1.1,3.1c1,3.6,2.3,4.8,2.6,5c0.1,0,0.1,0.1,0.2,0.1C171.9,161.7,172,161.9,172.3,162.2
		C172.3,162.1,172.3,162.1,172.3,162.2z"/>
	<path id="XMLID_373_" class="st4" d="M186.8,166.4l-4.3,4.2c0.4,0,0.6-0.1,0.6-0.1s3.2-0.3,6.2-1c0.7-0.1,1.1-0.4,1.4-0.6
		L186.8,166.4z"/>
	
		<linearGradient id="XMLID_8_" gradientUnits="userSpaceOnUse" x1="192.8297" y1="27.2156" x2="192.8297" y2="15.5881" gradientTransform="matrix(0.9668 -0.2555 -0.2555 -0.9668 0.796 234.7909)">
		<stop  offset="0" style="stop-color:#FFFFFF"/>
		<stop  offset="3.264958e-002" style="stop-color:#FFFFFF;stop-opacity:0.9674"/>
		<stop  offset="1" style="stop-color:#FFFFFF;stop-opacity:0"/>
	</linearGradient>
	<path id="XMLID_372_" class="st13" d="M180.8,159.4l-0.8,1c0,0-3.4,4.2-4,4.8c-0.2,0.2-0.2,0.4-0.2,0.6c2.1,2.1,4.3,4.2,4.9,4.5
		c0.6,0.4,1.3,0.5,1.8,0.4l0,0c0,0,3-2.9,4.3-4.2s1-2.3,1-2.3s-4.2-4-5.3-4.9C181.5,158.4,180.8,159.4,180.8,159.4z"/>
	
		<linearGradient id="XMLID_9_" gradientUnits="userSpaceOnUse" x1="197.2979" y1="17.8782" x2="202.8524" y2="17.8782" gradientTransform="matrix(0.9668 -0.2555 -0.2555 -0.9668 0.796 234.7909)">
		<stop  offset="1.065275e-007" style="stop-color:#000000"/>
		<stop  offset="1" style="stop-color:#000000;stop-opacity:0"/>
	</linearGradient>
	<path id="XMLID_371_" class="st14" d="M186.8,166.4l4,2.6l0,0c0.9-0.6,0.8-1.5,0.8-1.9c0-0.2,0-0.4,0-0.6c0-0.4,0.1-2,0.2-3
		c-0.9-0.4-1.8-0.3-2.8,0.4c-0.5,0.3-1,0.7-1.3,1.3S186.8,166.4,186.8,166.4z"/>
	<path id="XMLID_370_" class="st7" d="M190.3,164.1c0,0,0.2-0.2,0.4-0.2c0.2,0.1,0.4,0.1,0.2,0.2c-0.1,0.1-0.4,0.2-0.5,0.2
		C190.2,164.2,190.3,164.1,190.3,164.1z"/>
	<path id="XMLID_369_" class="st7" d="M187.3,167.3c0,0,0.3,0,0.3,0.2c0.1,0.2,0.1,0.4,0,0.3s-0.4-0.2-0.4-0.4
		S187.3,167.3,187.3,167.3z"/>
	<path id="XMLID_368_" class="st7" d="M188.5,152.3c0,0,0.1-0.3,0.3-0.3s0.4,0,0.3,0.1c-0.1,0.1-0.3,0.4-0.5,0.3
		C188.5,152.5,188.5,152.3,188.5,152.3z"/>
	<path id="XMLID_367_" class="st7" d="M182.1,157.5c0,0,0-0.1,0.1-0.1s0.1,0,0.1,0.1C182.2,157.5,182.2,157.6,182.1,157.5
		L182.1,157.5z"/>
</g>
<g id="圖層_2_拷貝_2">
	<path id="XMLID_410_" class="st0" d="M134.5,194.1c0,0-0.8,1.6-2.9,1.5c-2.5-0.1-9.2-1.6-10.3-1.8c-0.1,0-0.2,0-0.3,0
		c-0.5,0-2.7-0.3-3.7-3.8c-0.8-2.8-1.9-5.5-2.4-6.9c-0.4-0.9-0.2-1.9,0.4-2.7c0.1-0.1,0.2-0.2,0.3-0.4c1.3-1.3,8.5-7.5,10-8.9
		c0.2-0.1,0.3-0.3,0.4-0.4c0.4-0.4,1.3-1.6,3.4-0.3c2.6,1.6,5.1,3.7,5.1,3.7s1.1,0.7,1.5,2c0.3,1.2,0.3,11.2,0.3,12.4
		c0,0.1,0,0.1,0,0.2C136.2,189.1,136.3,190.9,134.5,194.1z"/>
	<path id="XMLID_409_" class="st1" d="M130.7,183.4l-2.9,0.2c0,0-0.5,0-0.7-0.6c-0.1-0.6-0.4-5.2-0.4-5.2v5.6c0,0,0,0.5-0.9,1.7
		c-0.9,1.3-1.6,2.6-1.6,2.6s2.3-3.6,3-3.7C127.9,183.9,130.7,183.4,130.7,183.4z"/>
	<path id="XMLID_408_" class="st2" d="M114.8,183.1c0.6,1.4,1.6,4.1,2.4,6.9c1,3.5,3.2,3.8,3.7,3.8c0.1,0,0.2,0,0.3,0
		c1.1,0.2,7.8,1.7,10.3,1.8c2.1,0.1,2.9-1.5,2.9-1.5l0,0l-0.8-0.1c0,0-6,0.5-10.2-3.9s-6.3-9.2-6.6-11.1c-0.1,0-0.2,0-0.3,0
		c-0.2,0.2-0.4,0.4-0.6,0.5c0,0,0,0-0.1,0.1s-0.1,0.1-0.2,0.1c0,0,0,0-0.1,0.1s-0.1,0.1-0.2,0.2c-0.1,0.1-0.2,0.2-0.3,0.4
		C114.6,181.1,114.4,182.2,114.8,183.1z"/>
	<path id="XMLID_407_" class="st3" d="M136.2,187.7c0-0.9,0-2.5,0-4.2l0,0c0-0.2,0-0.3,0-0.5l0,0l-0.3-0.1l-9.1,1l-6.8,9.7
		c0.1,0,0.2,0.1,0.3,0.1l0,0c0.1,0,0.2,0,0.2,0.1l0,0c0.1,0,0.1,0,0.2,0l0,0c0.1,0,0.1,0,0.1,0c0.1,0,0.2,0,0.3,0
		c1.1,0.2,7.8,1.7,10.3,1.8c2.1,0.1,2.9-1.5,2.9-1.5c1.9-3.2,1.8-5,1.7-5.4c0-0.1,0-0.1,0-0.2c0-0.1,0-0.4,0-0.7
		C136.2,187.8,136.2,187.8,136.2,187.7z"/>
	<path id="XMLID_406_" class="st4" d="M128.9,174.5h6c-0.3-0.3-0.5-0.4-0.5-0.4s-2.5-2-5.1-3.7c-0.6-0.4-1-0.5-1.4-0.6L128.9,174.5z
		"/>
	
		<linearGradient id="XMLID_10_" gradientUnits="userSpaceOnUse" x1="-27.7175" y1="193.0436" x2="-27.7175" y2="181.4051" gradientTransform="matrix(-0.8671 -0.4981 -0.4981 0.8671 200.5366 3.0118)">
		<stop  offset="0" style="stop-color:#FFFFFF"/>
		<stop  offset="3.264958e-002" style="stop-color:#FFFFFF;stop-opacity:0.9674"/>
		<stop  offset="1" style="stop-color:#FFFFFF;stop-opacity:0"/>
	</linearGradient>
	<path id="XMLID_405_" class="st15" d="M128.2,183.8l1.2-0.1c0,0,5.4-0.6,6.2-0.6c0.3,0,0.5-0.1,0.5-0.3c0-2.9-0.1-6-0.3-6.6
		c-0.2-0.7-0.6-1.2-1-1.6l0,0c0,0-4.2,0-6,0s-2.3,0.9-2.3,0.9s0.2,5.8,0.3,7.2S128.2,183.8,128.2,183.8z"/>
	
		<linearGradient id="XMLID_11_" gradientUnits="userSpaceOnUse" x1="-23.3403" y1="183.6554" x2="-17.7859" y2="183.6554" gradientTransform="matrix(-0.8671 -0.4981 -0.4981 0.8671 200.5366 3.0118)">
		<stop  offset="1.065275e-007" style="stop-color:#000000"/>
		<stop  offset="1" style="stop-color:#000000;stop-opacity:0"/>
	</linearGradient>
	<path id="XMLID_404_" class="st16" d="M128.9,174.5l-1.1-4.7l0,0c-1.1-0.2-1.6,0.5-1.9,0.8c-0.1,0.1-0.2,0.3-0.4,0.4
		c-0.3,0.3-1.5,1.4-2.2,2c0.3,0.9,1.1,1.5,2.3,1.7c0.6,0.1,1.3,0.2,1.8-0.1C128,174.5,128.9,174.5,128.9,174.5z"/>
	<path id="XMLID_403_" class="st7" d="M124.8,173.8c0,0-0.3,0-0.4-0.2s-0.2-0.4,0-0.3s0.5,0.1,0.5,0.3
		C124.9,173.7,124.8,173.8,124.8,173.8z"/>
	<path id="XMLID_402_" class="st7" d="M129.1,173.5c0,0-0.2-0.2-0.1-0.4c0.1-0.2,0.2-0.3,0.2-0.2s0.2,0.4,0.1,0.6
		C129.2,173.6,129.1,173.5,129.1,173.5z"/>
	<path id="XMLID_401_" class="st7" d="M117.8,183.4c0,0-0.2,0.1-0.4,0c-0.2-0.2-0.3-0.3-0.1-0.3c0.2,0,0.5,0,0.6,0.1
		C117.9,183.3,117.8,183.4,117.8,183.4z"/>
	<path id="XMLID_400_" class="st7" d="M126,184.2c0,0-0.1,0.1-0.2,0s-0.1-0.1,0-0.1s0.1-0.1,0.2,0S126,184.2,126,184.2z"/>
	<path id="XMLID_399_" class="st8" d="M136,145.4c0,0-0.6-1.7,1.1-3.1c1.9-1.7,7.7-5.4,8.6-6c0.1,0,0.1-0.1,0.2-0.2
		c0.4-0.4,2.1-1.7,5.3,0.1c2.5,1.4,5.2,2.6,6.6,3.2c0.9,0.4,1.5,1.2,1.6,2.2c0,0.2,0,0.3,0,0.5c0,1.8-0.8,11.3-0.8,13.3
		c0,0.2,0,0.4,0,0.6c0,0.6,0.2,2-2.2,2.5c-3,0.7-6.2,1-6.2,1s-1.3,0.3-2.4-0.4c-1.1-0.6-8.1-7.7-8.9-8.6c-0.1-0.1-0.1-0.1-0.2-0.1
		C138.3,150.2,137,149,136,145.4z"/>
	<path id="XMLID_398_" class="st1" d="M146.2,150.4l2-2.2c0,0,0.4-0.4,0.9-0.1c0.5,0.3,3.9,3.4,3.9,3.4l-3.9-4c0,0-0.3-0.4-0.6-1.9
		s-0.7-3-0.7-3s0.9,4.2,0.4,4.8S146.2,150.4,146.2,150.4z"/>
	<path id="XMLID_397_" class="st2" d="M157.8,139.5c-1.4-0.6-4-1.7-6.6-3.2c-3.2-1.8-4.9-0.5-5.3-0.1c-0.1,0.1-0.1,0.1-0.2,0.2
		c-1,0.6-6.7,4.3-8.6,6c-1.6,1.4-1.1,3.1-1.1,3.1l0,0l0.6-0.5c0,0,3.9-4.6,10-4.4c6.1,0.2,10.9,2.1,12.5,3.2
		c0.1-0.1,0.1-0.1,0.2-0.2c0-0.3,0-0.5,0-0.8v-0.1c0-0.1,0-0.1,0-0.2v-0.1c0-0.1,0-0.2,0-0.2c0-0.2,0-0.3,0-0.5
		C159.3,140.7,158.7,139.9,157.8,139.5z"/>
	<path id="XMLID_396_" class="st3" d="M139.3,151.2c0.7,0.7,1.8,1.8,3,3l0,0c0.1,0.1,0.2,0.2,0.3,0.3l0,0l0.3-0.1l5.7-7.1l-2-11.6
		c-0.1,0-0.2,0.1-0.3,0.1l0,0c-0.1,0-0.1,0.1-0.2,0.1l0,0L146,136l0,0l-0.1,0.1c-0.1,0.1-0.1,0.1-0.2,0.2c-1,0.6-6.7,4.3-8.6,6
		c-1.6,1.4-1.1,3.1-1.1,3.1c1,3.6,2.3,4.8,2.6,5c0.1,0,0.1,0.1,0.2,0.1C138.9,150.7,139,150.9,139.3,151.2
		C139.3,151.1,139.3,151.1,139.3,151.2z"/>
	<path id="XMLID_395_" class="st4" d="M153.8,155.5l-4.3,4.2c0.4,0,0.6-0.1,0.6-0.1s3.2-0.3,6.2-1c0.7-0.1,1.1-0.4,1.4-0.6
		L153.8,155.5z"/>
	
		<linearGradient id="XMLID_12_" gradientUnits="userSpaceOnUse" x1="163.7352" y1="46.2634" x2="163.7352" y2="34.625" gradientTransform="matrix(0.9668 -0.2555 -0.2555 -0.9668 0.796 234.7909)">
		<stop  offset="0" style="stop-color:#FFFFFF"/>
		<stop  offset="3.264958e-002" style="stop-color:#FFFFFF;stop-opacity:0.9674"/>
		<stop  offset="1" style="stop-color:#FFFFFF;stop-opacity:0"/>
	</linearGradient>
	<path id="XMLID_394_" class="st17" d="M147.8,148.4l-0.8,1c0,0-3.4,4.2-4,4.8c-0.2,0.2-0.2,0.4-0.2,0.6c2.1,2.1,4.3,4.2,4.9,4.5
		c0.6,0.4,1.3,0.5,1.8,0.4l0,0c0,0,3-2.9,4.3-4.2s1-2.3,1-2.3s-4.2-4-5.3-4.9C148.4,147.4,147.8,148.4,147.8,148.4z"/>
	
		<linearGradient id="XMLID_13_" gradientUnits="userSpaceOnUse" x1="168.1655" y1="36.8482" x2="173.7199" y2="36.8482" gradientTransform="matrix(0.9668 -0.2555 -0.2555 -0.9668 0.796 234.7909)">
		<stop  offset="1.065275e-007" style="stop-color:#000000"/>
		<stop  offset="1" style="stop-color:#000000;stop-opacity:0"/>
	</linearGradient>
	<path id="XMLID_393_" class="st18" d="M153.8,155.5l4,2.6l0,0c0.9-0.6,0.8-1.5,0.8-1.9c0-0.2,0-0.4,0-0.6c0-0.4,0.1-2,0.2-3
		c-0.9-0.4-1.8-0.3-2.8,0.4c-0.5,0.3-1,0.7-1.3,1.3C154.4,154.8,153.8,155.5,153.8,155.5z"/>
	<path id="XMLID_392_" class="st7" d="M157.2,153.1c0,0,0.2-0.2,0.4-0.2c0.2,0.1,0.4,0.1,0.2,0.2c-0.1,0.1-0.4,0.2-0.5,0.2
		S157.2,153.1,157.2,153.1z"/>
	<path id="XMLID_391_" class="st7" d="M154.3,156.3c0,0,0.3,0,0.3,0.2c0.1,0.2,0.1,0.4,0,0.3s-0.4-0.2-0.4-0.4
		S154.3,156.3,154.3,156.3z"/>
	<path id="XMLID_390_" class="st7" d="M155.4,141.4c0,0,0.1-0.3,0.3-0.3s0.4,0,0.3,0.1s-0.3,0.4-0.5,0.3S155.4,141.4,155.4,141.4z"
		/>
	<path id="XMLID_389_" class="st7" d="M149,146.5c0,0,0-0.1,0.1-0.1s0.1,0,0.1,0.1C149.2,146.5,149.2,146.6,149,146.5
		C149,146.6,149,146.5,149,146.5z"/>
</g>
<g id="圖層_2_拷貝_3">
	<path id="XMLID_432_" class="st0" d="M185.5,178.6c0,0,0.3,1.8-1.5,2.9c-2.1,1.4-8.4,4.1-9.5,4.5c-0.1,0-0.2,0.1-0.2,0.1
		c-0.4,0.3-2.3,1.3-5.2-1c-2.3-1.8-4.7-3.4-6-4.2c-0.8-0.5-1.3-1.5-1.2-2.4c0-0.2,0-0.3,0.1-0.5c0.3-1.8,2.6-11.1,3-13
		c0-0.2,0.1-0.4,0.1-0.6c0.1-0.6,0.1-2,2.6-2.1c3.1-0.2,6.3,0,6.3,0s1.3-0.1,2.3,0.8c1,0.8,6.7,8.9,7.4,10c0,0.1,0.1,0.1,0.1,0.2
		C184.1,173.5,185.2,174.9,185.5,178.6z"/>
	<path id="XMLID_431_" class="st1" d="M176.3,172.1l-2.3,1.8c0,0-0.4,0.3-0.9-0.1c-0.4-0.4-3.3-4-3.3-4l3.2,4.6c0,0,0.2,0.4,0.3,1.9
		c0,1.5,0.2,3.1,0.2,3.1s-0.2-4.2,0.3-4.8S176.3,172.1,176.3,172.1z"/>
	<path id="XMLID_430_" class="st2" d="M163.1,181c1.3,0.8,3.7,2.4,6,4.2c2.9,2.3,4.8,1.3,5.2,1c0.1-0.1,0.2-0.1,0.2-0.1
		c1-0.4,7.4-3.1,9.5-4.5c1.8-1.1,1.5-2.9,1.5-2.9l0,0l-0.7,0.4c0,0-4.6,3.9-10.6,2.7s-10.4-3.9-11.8-5.2c-0.1,0.1-0.2,0.1-0.2,0.2
		c-0.1,0.3-0.1,0.5-0.2,0.7v0.1c0,0.1,0,0.1,0,0.2v0.1c0,0.1,0,0.2,0,0.2c0,0.2,0,0.3-0.1,0.5C161.8,179.5,162.3,180.4,163.1,181z"
		/>
	<path id="XMLID_429_" class="st3" d="M183.2,172.4c-0.5-0.8-1.5-2.1-2.5-3.4l0,0c-0.1-0.1-0.2-0.3-0.3-0.4l0,0l-0.3,0.1l-6.8,6.1
		l0.1,11.8c0.1,0,0.2-0.1,0.3-0.1l0,0c0.1,0,0.2-0.1,0.2-0.1l0,0c0.1,0,0.1-0.1,0.1-0.1l0,0l0.1-0.1c0.1-0.1,0.2-0.1,0.2-0.1
		c1-0.4,7.4-3.1,9.5-4.5c1.8-1.1,1.5-2.9,1.5-2.9c-0.4-3.7-1.4-5.1-1.7-5.4c0-0.1-0.1-0.1-0.1-0.2
		C183.6,173,183.5,172.8,183.2,172.4C183.3,172.5,183.3,172.5,183.2,172.4z"/>
	<path id="XMLID_428_" class="st4" d="M169.7,165.8l4.9-3.5c-0.4-0.1-0.6,0-0.6,0s-3.2-0.2-6.3,0c-0.7,0-1.2,0.2-1.5,0.4
		L169.7,165.8z"/>
	
		<linearGradient id="XMLID_14_" gradientUnits="userSpaceOnUse" x1="-40.087" y1="168.3875" x2="-40.087" y2="156.7489" gradientTransform="matrix(-0.9955 9.519356e-002 9.519356e-002 0.9955 118.8666 10.2155)">
		<stop  offset="0" style="stop-color:#FFFFFF"/>
		<stop  offset="3.264958e-002" style="stop-color:#FFFFFF;stop-opacity:0.9674"/>
		<stop  offset="1" style="stop-color:#FFFFFF;stop-opacity:0"/>
	</linearGradient>
	<path id="XMLID_427_" class="st19" d="M174.4,173.8l0.9-0.8c0,0,4.1-3.6,4.7-4.1c0.2-0.2,0.3-0.4,0.3-0.5c-1.7-2.4-3.6-4.8-4.1-5.2
		c-0.6-0.5-1.2-0.7-1.7-0.7l0,0c0,0-3.4,2.4-4.9,3.5s-1.4,2.1-1.4,2.1s3.5,4.6,4.4,5.7C173.6,174.7,174.4,173.8,174.4,173.8z"/>
	
		<linearGradient id="XMLID_15_" gradientUnits="userSpaceOnUse" x1="-35.7678" y1="158.9971" x2="-30.2133" y2="158.9971" gradientTransform="matrix(-0.9955 9.519356e-002 9.519356e-002 0.9955 118.8666 10.2155)">
		<stop  offset="1.065275e-007" style="stop-color:#000000"/>
		<stop  offset="1" style="stop-color:#000000;stop-opacity:0"/>
	</linearGradient>
	<path id="XMLID_426_" class="st20" d="M169.7,165.8l-3.6-3.2l0,0c-1,0.5-1,1.4-1.1,1.8c0,0.1-0.1,0.4-0.1,0.6
		c-0.1,0.4-0.4,2-0.7,2.9c0.8,0.5,1.8,0.5,2.8,0.1c0.5-0.2,1.1-0.6,1.5-1.1C168.9,166.4,169.7,165.8,169.7,165.8z"/>
	<path id="XMLID_425_" class="st7" d="M165.9,167.6c0,0-0.2,0.2-0.4,0.1s-0.3-0.2-0.2-0.2s0.4-0.2,0.6-0.1
		C165.9,167.5,165.9,167.6,165.9,167.6z"/>
	<path id="XMLID_424_" class="st7" d="M169.3,164.9c0,0-0.3,0-0.3-0.3c0-0.2,0-0.4,0.1-0.3c0.1,0.1,0.4,0.3,0.4,0.4
		C169.4,164.9,169.3,164.9,169.3,164.9z"/>
	<path id="XMLID_423_" class="st7" d="M165.7,179.5c0,0-0.1,0.2-0.4,0.2s-0.4-0.1-0.3-0.2c0.1-0.1,0.4-0.3,0.5-0.3
		C165.8,179.3,165.7,179.5,165.7,179.5z"/>
	<path id="XMLID_422_" class="st7" d="M172.9,175.5c0,0,0,0.1-0.1,0.1s-0.1,0,0-0.1C172.7,175.4,172.8,175.3,172.9,175.5
		C172.9,175.4,172.9,175.5,172.9,175.5z"/>
	<path id="XMLID_421_" class="st8" d="M156.9,140.9c0,0-1.4-1.1-0.9-3.2c0.6-2.5,3.1-8.8,3.6-9.9c0-0.1,0.1-0.2,0.1-0.3
		c0.1-0.5,0.7-2.6,4.4-3c2.9-0.3,5.7-0.9,7.2-1.2c1-0.2,1.9,0.1,2.6,0.9c0.1,0.1,0.2,0.2,0.3,0.4c1.1,1.5,5.9,9.7,7.1,11.4
		c0.1,0.2,0.2,0.3,0.3,0.5c0.4,0.5,1.3,1.5-0.3,3.4c-2.1,2.3-4.5,4.4-4.5,4.4s-0.9,1-2.2,1.1c-1.2,0.1-11.1-1.6-12.3-1.9
		c-0.1,0-0.1,0-0.2,0C161.5,143.5,159.8,143.3,156.9,140.9z"/>
	<path id="XMLID_420_" class="st1" d="M168.1,139l0.3-2.9c0,0,0.1-0.5,0.7-0.6c0.6,0,5.2,0.5,5.2,0.5l-5.5-1c0,0-0.5-0.1-1.6-1.2
		s-2.3-2.1-2.3-2.1s3.1,2.9,3.1,3.6S168.1,139,168.1,139z"/>
	<path id="XMLID_419_" class="st2" d="M171.2,123.5c-1.5,0.3-4.3,0.9-7.2,1.2c-3.7,0.4-4.3,2.4-4.4,3c0,0.1,0,0.2-0.1,0.3
		c-0.4,1-3,7.4-3.6,9.9c-0.5,2.1,0.9,3.2,0.9,3.2l0,0l0.2-0.7c0,0,0.5-6,5.6-9.4c5.1-3.4,10.1-4.6,12-4.6c0-0.1,0-0.2,0.1-0.3
		c-0.2-0.2-0.3-0.5-0.4-0.6c0,0,0,0,0-0.1s-0.1-0.1-0.1-0.2c0,0,0,0,0-0.1s-0.1-0.1-0.1-0.2c-0.1-0.1-0.2-0.3-0.3-0.4
		C173.2,123.6,172.2,123.3,171.2,123.5z"/>
	<path id="XMLID_418_" class="st3" d="M162.9,143.7c0.9,0.2,2.5,0.4,4.2,0.7l0,0c0.2,0,0.3,0.1,0.5,0.1l0,0l0.2-0.3l0.6-9.1
		l-8.3-8.3c-0.1,0.1-0.1,0.2-0.1,0.3l0,0c0,0.1-0.1,0.2-0.1,0.2l0,0c0,0.1,0,0.1-0.1,0.2l0,0c0,0.1,0,0.1,0,0.1c0,0.1,0,0.2-0.1,0.3
		c-0.4,1-3,7.4-3.6,9.9c-0.5,2.1,0.9,3.2,0.9,3.2c2.9,2.4,4.6,2.6,5,2.6c0.1,0,0.1,0,0.2,0C162.3,143.6,162.6,143.7,162.9,143.7
		C162.8,143.7,162.9,143.7,162.9,143.7z"/>
	<path id="XMLID_417_" class="st4" d="M177.2,138.8l-1,5.9c0.3-0.2,0.5-0.4,0.5-0.4s2.4-2.1,4.5-4.4c0.4-0.5,0.7-0.9,0.8-1.3
		L177.2,138.8z"/>
	
		<linearGradient id="XMLID_16_" gradientUnits="userSpaceOnUse" x1="186.5788" y1="54.529" x2="186.5788" y2="42.8905" gradientTransform="matrix(0.641 -0.7676 -0.7676 -0.641 89.9928 314.85)">
		<stop  offset="0" style="stop-color:#FFFFFF"/>
		<stop  offset="3.264958e-002" style="stop-color:#FFFFFF;stop-opacity:0.9674"/>
		<stop  offset="1" style="stop-color:#FFFFFF;stop-opacity:0"/>
	</linearGradient>
	<path id="XMLID_416_" class="st21" d="M168.2,136.5l-0.1,1.2c0,0-0.4,5.5-0.5,6.2c-0.1,0.3,0,0.5,0.2,0.6c2.9,0.5,5.9,0.9,6.6,0.9
		c0.7-0.1,1.3-0.4,1.7-0.7l0,0c0,0,0.7-4.1,1-5.9c0.3-1.8-0.5-2.5-0.5-2.5s-5.8-0.8-7.2-0.9C168.2,135.3,168.2,136.5,168.2,136.5z"
		/>
	
		<linearGradient id="XMLID_17_" gradientUnits="userSpaceOnUse" x1="190.9955" y1="45.151" x2="196.55" y2="45.151" gradientTransform="matrix(0.641 -0.7676 -0.7676 -0.641 89.9928 314.85)">
		<stop  offset="1.065275e-007" style="stop-color:#000000"/>
		<stop  offset="1" style="stop-color:#000000;stop-opacity:0"/>
	</linearGradient>
	<path id="XMLID_415_" class="st22" d="M177.2,138.8l4.8-0.2l0,0c0.3-1-0.2-1.7-0.5-2c-0.1-0.1-0.2-0.3-0.3-0.5
		c-0.2-0.4-1.1-1.7-1.6-2.5c-0.9,0.2-1.6,0.8-2.1,1.9c-0.2,0.5-0.4,1.2-0.3,1.8C177.3,137.9,177.2,138.8,177.2,138.8z"/>
	<path id="XMLID_414_" class="st7" d="M178.7,134.9c0,0,0-0.3,0.2-0.4s0.4-0.1,0.3,0c-0.1,0.1-0.2,0.4-0.4,0.4
		S178.7,134.9,178.7,134.9z"/>
	<path id="XMLID_413_" class="st7" d="M178.1,139.2c0,0,0.2-0.2,0.4,0c0.2,0.1,0.3,0.3,0.2,0.3s-0.5,0.1-0.6,0
		C178,139.3,178.1,139.2,178.1,139.2z"/>
	<path id="XMLID_412_" class="st7" d="M170.4,126.4c0,0-0.1-0.2,0.1-0.4c0.2-0.2,0.3-0.2,0.3-0.1s0,0.5-0.2,0.5
		S170.4,126.4,170.4,126.4z"/>
	<path id="XMLID_411_" class="st7" d="M168.1,134.2c0,0-0.1-0.1,0-0.2s0.1,0,0.1,0c0,0.1,0,0.1,0,0.2
		C168.2,134.3,168.1,134.2,168.1,134.2z"/>
</g>
<g id="圖層_2_拷貝_4">
	<path id="XMLID_454_" class="st0" d="M150,201.6c0,0,0.8,1.6-0.6,3.2c-1.6,1.9-6.8,6.5-7.6,7.2c-0.1,0.1-0.1,0.1-0.2,0.2
		c-0.3,0.4-1.8,2-5.3,0.6c-2.7-1-5.5-1.8-7-2.2c-0.9-0.2-1.7-1-1.9-1.9c0-0.1-0.1-0.3-0.1-0.5c-0.3-1.8-0.9-11.3-1.2-13.3
		c0-0.2-0.1-0.4-0.1-0.6c-0.1-0.6-0.5-2,1.8-2.8c2.9-1.1,6-1.9,6-1.9s1.2-0.5,2.5,0c1.2,0.5,9.1,6.5,10.1,7.2c0.1,0,0.1,0.1,0.2,0.1
		C147.1,197.1,148.6,198.1,150,201.6z"/>
	<path id="XMLID_453_" class="st1" d="M139.2,198.2l-1.6,2.4c0,0-0.3,0.4-0.9,0.2c-0.5-0.2-4.4-2.7-4.4-2.7l4.5,3.3
		c0,0,0.4,0.3,0.9,1.8c0.5,1.4,1.1,2.9,1.1,2.9s-1.5-4-1.1-4.6C137.9,200.7,139.2,198.2,139.2,198.2z"/>
	<path id="XMLID_452_" class="st2" d="M129.4,210.7c1.5,0.4,4.2,1.1,7,2.2c3.4,1.3,5-0.2,5.3-0.6c0.1-0.1,0.1-0.1,0.2-0.2
		c0.9-0.7,6-5.3,7.6-7.2c1.4-1.6,0.6-3.2,0.6-3.2l0,0l-0.5,0.6c0,0-3.2,5.1-9.3,5.9c-6.1,0.7-11.1-0.5-12.8-1.4
		c-0.1,0.1-0.1,0.2-0.2,0.2c0,0.3,0.1,0.5,0.1,0.8v0.1c0,0.1,0,0.1,0,0.2v0.1c0,0.1,0,0.2,0,0.2c0,0.2,0.1,0.3,0.1,0.5
		C127.7,209.7,128.5,210.4,129.4,210.7z"/>
	<path id="XMLID_451_" class="st3" d="M145.9,196.4c-0.8-0.6-2-1.5-3.4-2.5l0,0c-0.1-0.1-0.3-0.2-0.4-0.3l0,0l-0.3,0.2l-4.6,7.9
		l3.7,11.2c0.1-0.1,0.2-0.1,0.2-0.2l0,0c0.1-0.1,0.1-0.1,0.2-0.2l0,0l0.1-0.1l0,0l0.1-0.1c0.1-0.1,0.1-0.1,0.2-0.2
		c0.9-0.7,6-5.3,7.6-7.2c1.4-1.6,0.6-3.2,0.6-3.2c-1.5-3.4-2.9-4.4-3.3-4.6c-0.1,0-0.1-0.1-0.2-0.1
		C146.5,196.8,146.3,196.6,145.9,196.4C146,196.4,146,196.4,145.9,196.4z"/>
	<path id="XMLID_450_" class="st4" d="M131,194.3l3.6-4.8c-0.4,0.1-0.6,0.1-0.6,0.1s-3.1,0.8-6,1.9c-0.6,0.2-1,0.5-1.3,0.8
		L131,194.3z"/>
	
		<linearGradient id="XMLID_18_" gradientUnits="userSpaceOnUse" x1="10.2919" y1="189.0133" x2="10.2919" y2="177.3749" gradientTransform="matrix(-0.9184 0.3957 0.3957 0.9184 73.2345 22.7482)">
		<stop  offset="0" style="stop-color:#FFFFFF"/>
		<stop  offset="3.264958e-002" style="stop-color:#FFFFFF;stop-opacity:0.9674"/>
		<stop  offset="1" style="stop-color:#FFFFFF;stop-opacity:0"/>
	</linearGradient>
	<path id="XMLID_449_" class="st23" d="M138,200.4l0.6-1.1c0,0,2.8-4.7,3.3-5.4c0.2-0.2,0.2-0.4,0.1-0.6c-2.4-1.7-4.9-3.5-5.5-3.8
		c-0.7-0.3-1.4-0.3-1.8-0.2l0,0c0,0-2.5,3.3-3.6,4.8s-0.7,2.4-0.7,2.4s4.8,3.3,6,4.1C137.5,201.5,138,200.4,138,200.4z"/>
	
		<linearGradient id="XMLID_19_" gradientUnits="userSpaceOnUse" x1="14.7919" y1="179.7509" x2="20.3463" y2="179.7509" gradientTransform="matrix(-0.9184 0.3957 0.3957 0.9184 73.2345 22.7482)">
		<stop  offset="1.065275e-007" style="stop-color:#000000"/>
		<stop  offset="1" style="stop-color:#000000;stop-opacity:0"/>
	</linearGradient>
	<path id="XMLID_448_" class="st24" d="M131,194.3l-4.4-1.9l0,0c-0.8,0.8-0.6,1.6-0.5,2c0,0.2,0.1,0.4,0.1,0.6c0.1,0.4,0.2,2,0.3,3
		c0.9,0.3,1.8,0,2.7-0.8c0.4-0.4,0.9-0.9,1-1.5C130.5,195,131,194.3,131,194.3z"/>
	<path id="XMLID_447_" class="st7" d="M127.9,197.1c0,0-0.1,0.2-0.4,0.2c-0.2,0-0.4-0.1-0.3-0.2c0.1-0.1,0.4-0.3,0.5-0.2
		C128,197,127.9,197.1,127.9,197.1z"/>
	<path id="XMLID_446_" class="st7" d="M130.3,193.5c0,0-0.3,0-0.4-0.2c-0.1-0.2-0.2-0.4,0-0.3c0.1,0,0.5,0.1,0.5,0.3
		S130.3,193.5,130.3,193.5z"/>
	<path id="XMLID_445_" class="st7" d="M131.4,208.4c0,0,0,0.3-0.3,0.3c-0.2,0.1-0.4,0.1-0.3-0.1c0.1-0.1,0.3-0.4,0.4-0.4
		C131.4,208.3,131.4,208.4,131.4,208.4z"/>
	<path id="XMLID_444_" class="st7" d="M137,202.4c0,0,0,0.1-0.1,0.1s-0.1,0-0.1-0.1C136.9,202.4,136.9,202.4,137,202.4L137,202.4z"
		/>
	<path id="XMLID_443_" class="st8" d="M112,171.1c0,0-1.7-0.6-1.9-2.7c-0.2-2.5,0.3-9.4,0.4-10.5c0-0.1,0-0.2,0-0.3
		c-0.1-0.5-0.1-2.7,3.3-4.2c2.7-1.2,5.2-2.6,6.5-3.3c0.8-0.5,1.9-0.5,2.7,0.1c0.1,0.1,0.3,0.2,0.4,0.3c1.5,1.1,8.6,7.4,10.2,8.7
		c0.2,0.1,0.3,0.2,0.5,0.3c0.5,0.3,1.7,1.1,0.7,3.3c-1.3,2.8-2.9,5.6-2.9,5.6s-0.6,1.2-1.8,1.7c-1.1,0.5-11,1.8-12.3,2
		c-0.1,0-0.1,0-0.2,0C117.2,172.2,115.4,172.5,112,171.1z"/>
	<path id="XMLID_442_" class="st1" d="M122.1,165.9l-0.6-2.9c0,0-0.1-0.5,0.5-0.7c0.5-0.2,5.1-1.1,5.1-1.1l-5.5,0.8
		c0,0-0.5,0-1.8-0.6s-2.8-1.3-2.8-1.3s3.8,1.8,4.1,2.5C121.2,163.2,122.1,165.9,122.1,165.9z"/>
	<path id="XMLID_441_" class="st2" d="M120.3,150.2c-1.3,0.8-3.8,2.2-6.5,3.3c-3.4,1.5-3.4,3.7-3.3,4.2c0,0.1,0,0.2,0,0.3
		c-0.1,1.1-0.6,8-0.4,10.5c0.2,2.1,1.9,2.7,1.9,2.7l0,0v-0.8c0,0-1.3-5.9,2.5-10.7s8.2-7.5,10.1-8c0-0.1,0-0.2,0-0.3
		c-0.2-0.2-0.4-0.3-0.6-0.5c0,0,0,0-0.1-0.1c-0.1,0-0.1-0.1-0.2-0.1c0,0,0,0-0.1-0.1s-0.1-0.1-0.2-0.1c-0.1-0.1-0.3-0.2-0.4-0.3
		C122.2,149.7,121.1,149.7,120.3,150.2z"/>
	<path id="XMLID_440_" class="st3" d="M118.6,171.9c0.9-0.1,2.5-0.3,4.2-0.6l0,0c0.2,0,0.3,0,0.5-0.1l0,0l0.1-0.3l-2.2-8.8
		l-10.5-5.4c0,0.1,0,0.2-0.1,0.3l0,0c0,0.1,0,0.2,0,0.2l0,0c0,0.1,0,0.1,0,0.2l0,0c0,0.1,0,0.1,0,0.1c0,0.1,0,0.2,0,0.3
		c-0.1,1.1-0.6,8-0.4,10.5c0.2,2.1,1.9,2.7,1.9,2.7c3.4,1.4,5.2,1.1,5.6,1c0.1,0,0.1,0,0.2,0S118.3,172,118.6,171.9
		C118.5,172,118.5,172,118.6,171.9z"/>
	<path id="XMLID_439_" class="st4" d="M130.7,163l0.8,5.9c0.2-0.3,0.3-0.5,0.3-0.5s1.7-2.8,2.9-5.6c0.3-0.6,0.4-1.1,0.4-1.5
		L130.7,163z"/>
	
		<linearGradient id="XMLID_20_" gradientUnits="userSpaceOnUse" x1="139.4725" y1="75.9382" x2="139.4725" y2="64.297" gradientTransform="matrix(0.3749 -0.9271 -0.9271 -0.3749 139.1036 321.5756)">
		<stop  offset="0" style="stop-color:#FFFFFF"/>
		<stop  offset="3.264958e-002" style="stop-color:#FFFFFF;stop-opacity:0.9674"/>
		<stop  offset="1" style="stop-color:#FFFFFF;stop-opacity:0"/>
	</linearGradient>
	<path id="XMLID_438_" class="st25" d="M121.4,163.5l0.3,1.2c0,0,1.3,5.3,1.5,6.1c0,0.3,0.2,0.4,0.4,0.5c2.9-0.4,5.9-0.9,6.5-1.2
		c0.7-0.3,1.2-0.8,1.4-1.2l0,0c0,0-0.6-4.1-0.8-5.9c-0.3-1.8-1.2-2.2-1.2-2.2s-5.7,1-7.1,1.3C121,162.4,121.4,163.5,121.4,163.5z"/>
	
		<linearGradient id="XMLID_21_" gradientUnits="userSpaceOnUse" x1="143.8835" y1="66.5347" x2="149.4379" y2="66.5347" gradientTransform="matrix(0.3749 -0.9271 -0.9271 -0.3749 139.1036 321.5756)">
		<stop  offset="1.065275e-007" style="stop-color:#000000"/>
		<stop  offset="1" style="stop-color:#000000;stop-opacity:0"/>
	</linearGradient>
	<path id="XMLID_437_" class="st26" d="M130.7,163l4.5-1.7l0,0c0-1.1-0.7-1.5-1.1-1.8c-0.1-0.1-0.3-0.2-0.5-0.3
		c-0.3-0.3-1.6-1.3-2.3-1.9c-0.8,0.5-1.3,1.3-1.4,2.5c0,0.6,0,1.3,0.3,1.8C130.5,162,130.7,163,130.7,163z"/>
	<path id="XMLID_436_" class="st7" d="M130.8,158.8c0,0-0.1-0.3,0.1-0.4s0.3-0.2,0.3-0.1c0,0.1-0.1,0.5-0.2,0.5
		C130.9,158.9,130.8,158.8,130.8,158.8z"/>
	<path id="XMLID_435_" class="st7" d="M131.7,163c0,0,0.2-0.2,0.4-0.1c0.2,0.1,0.4,0.1,0.2,0.2c-0.1,0.1-0.4,0.2-0.6,0.1
		C131.6,163.1,131.7,163,131.7,163z"/>
	<path id="XMLID_434_" class="st7" d="M120.4,153.2c0,0-0.2-0.2,0-0.4c0.1-0.2,0.2-0.3,0.3-0.2c0,0.1,0.1,0.5,0,0.6
		S120.4,153.2,120.4,153.2z"/>
	<path id="XMLID_433_" class="st7" d="M120.6,161.4c0,0-0.1-0.1,0-0.2c0.1-0.1,0.1-0.1,0.1,0S120.8,161.3,120.6,161.4
		C120.6,161.5,120.6,161.4,120.6,161.4z"/>
</g>
<g id="圖層_2_拷貝_5">
	<path id="XMLID_476_" class="st0" d="M195.7,196.5c0,0,0.8,1.6-0.6,3.2c-1.6,1.9-6.8,6.5-7.6,7.2c-0.1,0.1-0.1,0.1-0.2,0.2
		c-0.3,0.4-1.8,2-5.3,0.6c-2.7-1-5.5-1.8-7-2.2c-0.9-0.2-1.7-1-1.9-1.9c0-0.1-0.1-0.3-0.1-0.5c-0.3-1.8-0.9-11.3-1.2-13.3
		c0-0.2-0.1-0.4-0.1-0.6c-0.1-0.6-0.5-2,1.8-2.8c2.9-1.1,6-1.9,6-1.9s1.2-0.5,2.5,0c1.2,0.5,9.1,6.5,10.1,7.2c0.1,0,0.1,0.1,0.2,0.1
		C192.8,192.1,194.2,193.1,195.7,196.5z"/>
	<path id="XMLID_475_" class="st1" d="M184.9,193.1l-1.6,2.4c0,0-0.3,0.4-0.9,0.2c-0.5-0.2-4.4-2.7-4.4-2.7l4.5,3.3
		c0,0,0.4,0.3,0.9,1.8s1.1,2.9,1.1,2.9s-1.5-4-1.1-4.6C183.6,195.7,184.9,193.1,184.9,193.1z"/>
	<path id="XMLID_474_" class="st2" d="M175.1,205.6c1.5,0.4,4.2,1.1,7,2.2c3.4,1.3,5-0.2,5.3-0.6c0.1-0.1,0.1-0.1,0.2-0.2
		c0.9-0.7,6-5.3,7.6-7.2c1.4-1.6,0.6-3.2,0.6-3.2l0,0l-0.5,0.6c0,0-3.2,5.1-9.3,5.9s-11.1-0.5-12.8-1.4c-0.1,0.1-0.1,0.2-0.2,0.2
		c0,0.3,0.1,0.5,0.1,0.8v0.1c0,0.1,0,0.1,0,0.2v0.1c0,0.1,0,0.2,0,0.2c0,0.2,0.1,0.3,0.1,0.5C173.4,204.6,174.1,205.4,175.1,205.6z"
		/>
	<path id="XMLID_473_" class="st3" d="M191.6,191.3c-0.8-0.6-2-1.5-3.4-2.5l0,0c-0.1-0.1-0.3-0.2-0.4-0.3l0,0l-0.3,0.2l-4.6,7.9
		l3.7,11.2c0.1-0.1,0.2-0.1,0.2-0.2l0,0c0.1-0.1,0.1-0.1,0.2-0.2l0,0l0.1-0.1l0,0l0.1-0.1c0.1-0.1,0.1-0.1,0.2-0.2
		c0.9-0.7,6-5.3,7.6-7.2c1.4-1.6,0.6-3.2,0.6-3.2c-1.5-3.4-2.9-4.4-3.3-4.6c-0.1,0-0.1-0.1-0.2-0.1
		C192.1,191.7,192,191.6,191.6,191.3C191.7,191.3,191.7,191.3,191.6,191.3z"/>
	<path id="XMLID_472_" class="st4" d="M176.7,189.2l3.6-4.8c-0.4,0.1-0.6,0.1-0.6,0.1s-3.1,0.8-6,1.9c-0.6,0.2-1,0.5-1.3,0.8
		L176.7,189.2z"/>
	
		<linearGradient id="XMLID_22_" gradientUnits="userSpaceOnUse" x1="-33.6036" y1="202.4434" x2="-33.6036" y2="190.8049" gradientTransform="matrix(-0.9184 0.3957 0.3957 0.9184 73.2345 22.7482)">
		<stop  offset="0" style="stop-color:#FFFFFF"/>
		<stop  offset="3.264958e-002" style="stop-color:#FFFFFF;stop-opacity:0.9674"/>
		<stop  offset="1" style="stop-color:#FFFFFF;stop-opacity:0"/>
	</linearGradient>
	<path id="XMLID_471_" class="st27" d="M183.6,195.3l0.6-1.1c0,0,2.8-4.7,3.3-5.4c0.2-0.2,0.2-0.4,0.1-0.6c-2.4-1.7-4.9-3.5-5.5-3.8
		c-0.7-0.3-1.4-0.3-1.8-0.2l0,0c0,0-2.5,3.3-3.6,4.8s-0.7,2.4-0.7,2.4s4.8,3.3,6,4.1S183.6,195.3,183.6,195.3z"/>
	
		<linearGradient id="XMLID_23_" gradientUnits="userSpaceOnUse" x1="-29.1567" y1="193.15" x2="-23.6023" y2="193.15" gradientTransform="matrix(-0.9184 0.3957 0.3957 0.9184 73.2345 22.7482)">
		<stop  offset="1.065275e-007" style="stop-color:#000000"/>
		<stop  offset="1" style="stop-color:#000000;stop-opacity:0"/>
	</linearGradient>
	<path id="XMLID_470_" class="st28" d="M176.7,189.2l-4.4-1.9l0,0c-0.8,0.8-0.6,1.6-0.5,2c0,0.2,0.1,0.4,0.1,0.6
		c0.1,0.4,0.2,2,0.3,3c0.9,0.3,1.8,0,2.7-0.8c0.4-0.4,0.9-0.9,1-1.5C176.1,189.9,176.7,189.2,176.7,189.2z"/>
	<path id="XMLID_469_" class="st7" d="M173.6,192c0,0-0.1,0.2-0.4,0.2c-0.2,0-0.4-0.1-0.3-0.2c0.1-0.1,0.4-0.3,0.5-0.2
		C173.6,191.9,173.6,192,173.6,192z"/>
	<path id="XMLID_468_" class="st7" d="M176,188.4c0,0-0.3,0-0.4-0.2c-0.1-0.2-0.2-0.4,0-0.3c0.1,0,0.5,0.1,0.5,0.3
		S176,188.4,176,188.4z"/>
	<path id="XMLID_467_" class="st7" d="M177.1,203.4c0,0,0,0.3-0.3,0.3c-0.2,0.1-0.4,0.1-0.3-0.1c0.1-0.1,0.3-0.4,0.4-0.4
		C177.1,203.2,177.1,203.4,177.1,203.4z"/>
	<path id="XMLID_466_" class="st7" d="M182.7,197.4c0,0,0,0.1-0.1,0.1s-0.1,0-0.1-0.1C182.6,197.4,182.6,197.3,182.7,197.4
		C182.7,197.3,182.7,197.4,182.7,197.4z"/>
	<path id="XMLID_465_" class="st8" d="M157.7,166.1c0,0-1.7-0.6-1.9-2.7c-0.2-2.5,0.3-9.4,0.4-10.5c0-0.1,0-0.2,0-0.3
		c-0.1-0.5-0.1-2.7,3.3-4.2c2.7-1.2,5.2-2.6,6.5-3.3c0.8-0.5,1.9-0.5,2.7,0.1c0.1,0.1,0.3,0.2,0.4,0.3c1.5,1.1,8.6,7.4,10.2,8.7
		c0.2,0.1,0.3,0.2,0.5,0.3c0.5,0.3,1.7,1.1,0.7,3.3c-1.3,2.8-2.9,5.6-2.9,5.6s-0.6,1.2-1.8,1.7c-1.1,0.5-11,1.8-12.3,2
		c-0.1,0-0.1,0-0.2,0C162.9,167.1,161.1,167.5,157.7,166.1z"/>
	<path id="XMLID_464_" class="st1" d="M167.7,160.9l-0.6-2.9c0,0-0.1-0.5,0.5-0.7c0.5-0.2,5.1-1.1,5.1-1.1l-5.5,0.8
		c0,0-0.5,0-1.8-0.6s-2.8-1.3-2.8-1.3s3.8,1.8,4.1,2.5C166.9,158.2,167.7,160.9,167.7,160.9z"/>
	<path id="XMLID_463_" class="st2" d="M165.9,145.1c-1.3,0.8-3.8,2.2-6.5,3.3c-3.4,1.5-3.4,3.7-3.3,4.2c0,0.1,0,0.2,0,0.3
		c-0.1,1.1-0.6,8-0.4,10.5c0.2,2.1,1.9,2.7,1.9,2.7l0,0v-0.8c0,0-1.3-5.9,2.5-10.7s8.2-7.5,10.1-8c0-0.1,0-0.2,0-0.3
		c-0.2-0.2-0.4-0.3-0.6-0.5c0,0,0,0-0.1-0.1c-0.1,0-0.1-0.1-0.2-0.1c0,0,0,0-0.1-0.1c-0.1-0.1-0.1-0.1-0.2-0.1
		c-0.1-0.1-0.3-0.2-0.4-0.3C167.8,144.6,166.8,144.6,165.9,145.1z"/>
	<path id="XMLID_462_" class="st3" d="M164.2,166.9c0.9-0.1,2.5-0.3,4.2-0.6l0,0c0.2,0,0.3,0,0.5-0.1l0,0l0.1-0.3l-2.2-8.8
		l-10.5-5.4c0,0.1,0,0.2-0.1,0.3l0,0c0,0.1,0,0.2,0,0.2l0,0c0,0.1,0,0.1,0,0.2l0,0c0,0.1,0,0.1,0,0.1c0,0.1,0,0.2,0,0.3
		c-0.1,1.1-0.6,8-0.4,10.5c0.2,2.1,1.9,2.7,1.9,2.7c3.4,1.4,5.2,1.1,5.6,1c0.1,0,0.1,0,0.2,0C163.6,167,163.9,167,164.2,166.9
		C164.2,166.9,164.2,166.9,164.2,166.9z"/>
	<path id="XMLID_461_" class="st4" d="M176.3,157.9l0.8,5.9c0.2-0.3,0.3-0.5,0.3-0.5s1.7-2.8,2.9-5.6c0.3-0.6,0.4-1.1,0.4-1.5
		L176.3,157.9z"/>
	
		<linearGradient id="XMLID_24_" gradientUnits="userSpaceOnUse" x1="161.3322" y1="35.4875" x2="161.3322" y2="23.8463" gradientTransform="matrix(0.3749 -0.9271 -0.9271 -0.3749 139.1036 321.5756)">
		<stop  offset="0" style="stop-color:#FFFFFF"/>
		<stop  offset="3.264958e-002" style="stop-color:#FFFFFF;stop-opacity:0.9674"/>
		<stop  offset="1" style="stop-color:#FFFFFF;stop-opacity:0"/>
	</linearGradient>
	<path id="XMLID_460_" class="st29" d="M167.1,158.4l0.3,1.2c0,0,1.3,5.3,1.5,6.1c0,0.3,0.2,0.4,0.4,0.5c2.9-0.4,5.9-0.9,6.5-1.2
		c0.7-0.3,1.2-0.8,1.4-1.2l0,0c0,0-0.6-4.1-0.8-5.9c-0.3-1.8-1.2-2.2-1.2-2.2s-5.7,1-7.1,1.3C166.7,157.3,167.1,158.4,167.1,158.4z"
		/>
	
		<linearGradient id="XMLID_25_" gradientUnits="userSpaceOnUse" x1="165.6973" y1="26.1736" x2="171.2517" y2="26.1736" gradientTransform="matrix(0.3749 -0.9271 -0.9271 -0.3749 139.1036 321.5756)">
		<stop  offset="1.065275e-007" style="stop-color:#000000"/>
		<stop  offset="1" style="stop-color:#000000;stop-opacity:0"/>
	</linearGradient>
	<path id="XMLID_459_" class="st30" d="M176.3,157.9l4.5-1.7l0,0c0-1.1-0.7-1.5-1.1-1.8c-0.1-0.1-0.3-0.2-0.5-0.3
		c-0.3-0.3-1.6-1.3-2.3-1.9c-0.8,0.5-1.3,1.3-1.4,2.5c0,0.6,0,1.3,0.3,1.8C176.2,157,176.3,157.9,176.3,157.9z"/>
	<path id="XMLID_458_" class="st7" d="M176.5,153.7c0,0-0.1-0.3,0.1-0.4c0.2-0.2,0.3-0.2,0.3-0.1c0,0.1-0.1,0.5-0.2,0.5
		S176.5,153.7,176.5,153.7z"/>
	<path id="XMLID_457_" class="st7" d="M177.3,158c0,0,0.2-0.2,0.4-0.1c0.2,0.1,0.4,0.1,0.2,0.2s-0.4,0.2-0.6,0.1
		C177.3,158.1,177.3,158,177.3,158z"/>
	<path id="XMLID_456_" class="st7" d="M166.1,148.1c0,0-0.2-0.2,0-0.4c0.1-0.2,0.2-0.3,0.3-0.2s0.1,0.5,0,0.6
		C166.2,148.2,166.1,148.1,166.1,148.1z"/>
	<path id="XMLID_455_" class="st7" d="M166.3,156.3c0,0-0.1-0.1,0-0.2c0.1-0.1,0.1-0.1,0.1,0s0.1,0.1,0,0.2S166.3,156.3,166.3,156.3
		z"/>
</g>
<g id="圖層_3">
</g>
</svg>
