<?xml version="1.0" encoding="utf-8"?>
<!-- Generator: Adobe Illustrator 19.0.0, SVG Export Plug-In . SVG Version: 6.00 Build 0)  -->
<svg version="1.0" id="Calque_1" xmlns="http://www.w3.org/2000/svg" xmlns:xlink="http://www.w3.org/1999/xlink" x="0px" y="0px" width="300px" height="260px"
	 viewBox="0 21 300 260" style="enable-background:new 0 21 300 260;" xml:space="preserve">
<style type="text/css">
	.st0{fill:#CB2890;stroke:#58595B;stroke-width:3;stroke-miterlimit:10;}
	.st1{opacity:0.61;fill:#E6E7E8;enable-background:new    ;}
	.st2{opacity:0.3;enable-background:new    ;}
	.st3{opacity:0.3;fill:#FFFFFF;enable-background:new    ;}
	.st4{opacity:0.21;enable-background:new    ;}
	.st5{opacity:0.52;fill:url(#XMLID_2_);enable-background:new    ;}
	.st6{opacity:0.46;fill:url(#XMLID_3_);enable-background:new    ;}
	.st7{opacity:0.18;fill:#FFFFFF;enable-background:new    ;}
	.st8{fill:#CB2890;stroke:#58595B;stroke-width:4;stroke-miterlimit:10;}
	.st9{opacity:0.52;fill:url(#XMLID_4_);enable-background:new    ;}
	.st10{opacity:0.46;fill:url(#XMLID_5_);enable-background:new    ;}
</style>
<g id="圖層_2_1_">
	<path id="XMLID_366_" class="st0" d="M160,166.8c0,0,1.3,1.3,0.5,3.3c-0.9,2.3-4.4,8.2-5,9.2c0,0.1-0.1,0.2-0.1,0.2
		c-0.2,0.5-1.1,2.4-4.8,2.2c-2.9-0.2-5.8,0-7.3,0.1c-1,0.1-1.9-0.4-2.4-1.3c-0.1-0.1-0.2-0.3-0.2-0.4c-0.8-1.6-4.4-10.5-5.2-12.3
		c-0.1-0.2-0.2-0.4-0.3-0.5c-0.3-0.5-1.1-1.7,0.8-3.3c2.4-1.9,5.1-3.7,5.1-3.7s1-0.8,2.4-0.7c1.2,0.1,10.7,3.3,11.9,3.7
		c0.1,0,0.1,0,0.2,0.1C155.8,163.5,157.5,164,160,166.8z"/>
	<path id="XMLID_365_" class="st1" d="M148.7,167l-0.8,2.8c0,0-0.2,0.5-0.8,0.4s-5-1.2-5-1.2l5.3,1.8c0,0,0.4,0.2,1.4,1.4
		c0.9,1.2,1.9,2.4,1.9,2.4s-2.6-3.3-2.5-4.1C148.2,169.8,148.7,167,148.7,167z"/>
	<path id="XMLID_364_" class="st2" d="M143.2,181.9c1.5-0.1,4.4-0.3,7.3-0.1c3.7,0.2,4.6-1.8,4.8-2.2c0-0.1,0.1-0.2,0.1-0.2
		c0.6-1,4.1-6.9,5-9.2c0.8-2-0.5-3.3-0.5-3.3l0,0l-0.3,0.7c0,0-1.4,5.8-7,8.4c-5.5,2.6-10.7,3-12.6,2.7c0,0.1-0.1,0.2-0.1,0.3
		c0.1,0.3,0.2,0.5,0.3,0.7v0.1c0,0.1,0.1,0.1,0.1,0.2v0.1c0,0.1,0.1,0.1,0.1,0.2c0.1,0.2,0.2,0.3,0.2,0.4
		C141.3,181.5,142.2,181.9,143.2,181.9z"/>
	<path id="XMLID_363_" class="st3" d="M154.5,163.2c-0.9-0.3-2.4-0.8-4-1.3l0,0c-0.1,0-0.3-0.1-0.4-0.1l0,0l-0.2,0.2l-2,8.9l7,9.5
		c0.1-0.1,0.1-0.2,0.2-0.2l0,0c0-0.1,0.1-0.1,0.1-0.2l0,0c0-0.1,0.1-0.1,0.1-0.1l0,0c0,0,0-0.1,0.1-0.1c0-0.1,0.1-0.2,0.1-0.2
		c0.6-1,4.1-6.9,5-9.2c0.8-2-0.5-3.3-0.5-3.3c-2.5-2.8-4.2-3.3-4.6-3.4c-0.1,0-0.1,0-0.2-0.1c-0.1,0-0.3-0.1-0.6-0.2
		C154.6,163.2,154.5,163.2,154.5,163.2z"/>
	<path id="XMLID_362_" class="st4" d="M139.7,165.8l1.9-5.7c-0.3,0.2-0.5,0.3-0.5,0.3s-2.7,1.7-5.1,3.7c-0.5,0.4-0.8,0.8-1,1.2
		L139.7,165.8z"/>
	
		<linearGradient id="XMLID_2_" gradientUnits="userSpaceOnUse" x1="3.4376" y1="182.3522" x2="3.4376" y2="170.718" gradientTransform="matrix(-0.7503 0.6611 0.6611 0.7503 30.7136 30.2698)">
		<stop  offset="0" style="stop-color:#FFFFFF"/>
		<stop  offset="3.264958e-002" style="stop-color:#FFFFFF;stop-opacity:0.9674"/>
		<stop  offset="1" style="stop-color:#FFFFFF;stop-opacity:0"/>
	</linearGradient>
	<path id="XMLID_361_" class="st5" d="M148.2,169.5l0.3-1.2c0,0,1.2-5.3,1.4-6.1c0.1-0.3,0-0.5-0.1-0.6c-2.8-0.9-5.7-1.8-6.4-1.9
		c-0.7,0-1.4,0.2-1.8,0.4l0,0c0,0-1.3,3.9-1.9,5.7c-0.6,1.7,0.1,2.5,0.1,2.5s5.6,1.7,6.9,2C148,170.6,148.2,169.5,148.2,169.5z"/>
	
		<linearGradient id="XMLID_3_" gradientUnits="userSpaceOnUse" x1="7.8476" y1="173.0604" x2="13.402" y2="173.0604" gradientTransform="matrix(-0.7503 0.6611 0.6611 0.7503 30.7136 30.2698)">
		<stop  offset="1.065275e-007" style="stop-color:#000000"/>
		<stop  offset="1" style="stop-color:#000000;stop-opacity:0"/>
	</linearGradient>
	<path id="XMLID_360_" class="st6" d="M139.7,165.8l-4.8-0.5l0,0c-0.5,1,0,1.7,0.2,2.1c0.1,0.1,0.2,0.3,0.3,0.5
		c0.2,0.4,0.8,1.9,1.2,2.8c1,0,1.7-0.6,2.4-1.6c0.3-0.5,0.6-1.1,0.5-1.8C139.4,166.7,139.7,165.8,139.7,165.8z"/>
	<path id="XMLID_359_" class="st7" d="M137.6,169.4c0,0,0,0.3-0.3,0.3c-0.2,0.1-0.4,0-0.3-0.1s0.3-0.4,0.4-0.4
		S137.6,169.4,137.6,169.4z"/>
	<path id="XMLID_358_" class="st7" d="M138.8,165.3c0,0-0.2,0.1-0.4-0.1c-0.2-0.2-0.3-0.3-0.1-0.3s0.5,0,0.6,0.1
		C138.9,165.2,138.8,165.3,138.8,165.3z"/>
	<path id="XMLID_357_" class="st7" d="M144.5,179.1c0,0,0.1,0.3-0.2,0.4c-0.2,0.1-0.4,0.2-0.3,0s0.1-0.5,0.3-0.5
		C144.4,179,144.5,179.1,144.5,179.1z"/>
	<path id="XMLID_355_" class="st7" d="M147.9,171.7c0,0,0,0.1-0.1,0.2c-0.1,0-0.1,0-0.1,0S147.7,171.7,147.9,171.7
		C147.9,171.6,147.9,171.7,147.9,171.7z"/>
	<path id="XMLID_354_" class="st8" d="M114.4,149.7c0,0-1.8,0-2.6-2c-1-2.3-2.6-9-2.9-10.1c0-0.1,0-0.2-0.1-0.3
		c-0.2-0.5-0.9-2.5,1.8-5c2.2-1.9,4.1-4.1,5.1-5.2c0.6-0.7,1.6-1,2.6-0.8c0.1,0,0.3,0.1,0.5,0.1c1.8,0.6,10.5,4.4,12.4,5.1
		c0.2,0.1,0.4,0.1,0.5,0.2c0.6,0.2,2,0.5,1.7,2.9c-0.3,3-1.1,6.2-1.1,6.2s-0.2,1.3-1.2,2.2c-0.9,0.8-9.9,5.2-11,5.7
		c-0.1,0-0.1,0.1-0.2,0.1C119.7,149.1,118.1,150,114.4,149.7z"/>
	<path id="XMLID_352_" class="st1" d="M122.4,141.6l-1.4-2.5c0,0-0.2-0.5,0.2-0.9c0.4-0.4,4.5-2.7,4.5-2.7l-5,2.4c0,0-0.4,0.2-1.9,0
		c-1.5-0.2-3-0.3-3-0.3s4.2,0.5,4.7,1.1C120.7,139.3,122.4,141.6,122.4,141.6z"/>
	<path id="XMLID_350_" class="st2" d="M115.8,127.2c-1,1.1-2.9,3.3-5.1,5.2c-2.8,2.5-2.1,4.5-1.8,5c0,0.1,0.1,0.2,0.1,0.3
		c0.3,1.1,1.9,7.8,2.9,10.1c0.8,2,2.6,2,2.6,2l0,0l-0.3-0.7c0,0-3.1-5.2-1-10.9c2.1-5.7,5.5-9.7,7.1-10.8c0-0.1-0.1-0.2-0.1-0.3
		c-0.3-0.1-0.5-0.2-0.7-0.3h-0.1c-0.1,0-0.1-0.1-0.2-0.1h-0.1c-0.1,0-0.2-0.1-0.2-0.1c-0.2-0.1-0.3-0.1-0.5-0.1
		C117.4,126.2,116.4,126.5,115.8,127.2z"/>
	<path id="XMLID_346_" class="st3" d="M120.9,148.4c0.9-0.4,2.3-1.1,3.8-1.9l0,0c0.1-0.1,0.3-0.1,0.4-0.2l0,0V146l-4.9-7.7
		l-11.7-1.9c0,0.1,0,0.2,0,0.3l0,0c0,0.1,0,0.2,0.1,0.2l0,0c0,0.1,0,0.1,0,0.2l0,0c0,0.1,0,0.1,0.1,0.1c0,0.1,0.1,0.2,0.1,0.3
		c0.3,1.1,1.9,7.8,2.9,10.1c0.8,2,2.6,2,2.6,2c3.7,0.3,5.3-0.6,5.6-0.8c0.1,0,0.1-0.1,0.2-0.1c0.1-0.1,0.3-0.2,0.6-0.3
		C120.8,148.5,120.9,148.5,120.9,148.4z"/>
	<path id="XMLID_343_" class="st4" d="M129.6,136.1l2.6,5.4c0.1-0.4,0.2-0.6,0.2-0.6s0.7-3.1,1.1-6.2c0.1-0.7,0-1.2-0.1-1.6
		L129.6,136.1z"/>
	
		<linearGradient id="XMLID_4_" gradientUnits="userSpaceOnUse" x1="149.2609" y1="75.7955" x2="149.2609" y2="64.157" gradientTransform="matrix(6.879872e-002 -0.9976 -0.9976 -6.879872e-002 186.0209 293.9048)">
		<stop  offset="0" style="stop-color:#FFFFFF"/>
		<stop  offset="3.264958e-002" style="stop-color:#FFFFFF;stop-opacity:0.9674"/>
		<stop  offset="1" style="stop-color:#FFFFFF;stop-opacity:0"/>
	</linearGradient>
	<path id="XMLID_339_" class="st9" d="M121,139.5l0.7,1c0,0,2.9,4.6,3.3,5.3c0.1,0.3,0.3,0.3,0.5,0.3c2.6-1.3,5.3-2.7,5.8-3.1
		c0.6-0.5,0.9-1.1,1-1.6l0,0c0,0-1.8-3.7-2.6-5.4c-0.8-1.6-1.8-1.7-1.8-1.7s-5.1,2.7-6.3,3.5C120.4,138.6,121,139.5,121,139.5z"/>
	
		<linearGradient id="XMLID_5_" gradientUnits="userSpaceOnUse" x1="153.5078" y1="66.485" x2="159.0621" y2="66.485" gradientTransform="matrix(6.879872e-002 -0.9976 -0.9976 -6.879872e-002 186.0209 293.9048)">
		<stop  offset="1.065275e-007" style="stop-color:#000000"/>
		<stop  offset="1" style="stop-color:#000000;stop-opacity:0"/>
	</linearGradient>
	<path id="XMLID_337_" class="st10" d="M129.6,136.1l3.7-3l0,0c-0.3-1-1.2-1.2-1.6-1.4c-0.1-0.1-0.3-0.1-0.5-0.2
		c-0.4-0.1-1.9-0.8-2.8-1.1c-0.7,0.7-0.8,1.6-0.6,2.8c0.1,0.6,0.4,1.2,0.9,1.6C129.2,135.3,129.6,136.1,129.6,136.1z"/>
	<path id="XMLID_317_" class="st7" d="M128.5,132.1c0,0-0.2-0.2,0-0.4c0.1-0.2,0.2-0.3,0.3-0.2c0,0.1,0.1,0.5,0,0.6
		C128.6,132.2,128.5,132.1,128.5,132.1z"/>
	<path id="XMLID_91_" class="st7" d="M130.6,135.9c0,0,0.1-0.3,0.3-0.3s0.4,0,0.3,0.1c-0.1,0.1-0.3,0.3-0.5,0.3
		C130.6,136,130.6,135.9,130.6,135.9z"/>
	<path id="XMLID_76_" class="st7" d="M116.8,130c0,0-0.2-0.1-0.2-0.4c0-0.3,0.1-0.4,0.2-0.2c0.1,0.2,0.2,0.4,0.2,0.5
		C116.9,130.1,116.8,130,116.8,130z"/>
	<path id="XMLID_77_" class="st7" d="M119.6,137.7c0,0-0.1-0.1-0.1-0.2s0.1-0.1,0.1,0S119.7,137.6,119.6,137.7L119.6,137.7z"/>
</g>
<g id="圖層_3">
</g>
</svg>
