<?xml version="1.0" encoding="utf-8"?>
<!-- Generator: Adobe Illustrator 19.0.0, SVG Export Plug-In . SVG Version: 6.00 Build 0)  -->
<svg version="1.0" id="Calque_1" xmlns="http://www.w3.org/2000/svg" xmlns:xlink="http://www.w3.org/1999/xlink" x="0px" y="0px" width="300px" height="260px"
	 viewBox="0 21 300 260" style="enable-background:new 0 21 300 260;" xml:space="preserve">
<style type="text/css">
	.st0{fill:#CB2890;stroke:#58595B;stroke-width:3;stroke-miterlimit:10;}
	.st1{opacity:0.61;fill:#E6E7E8;enable-background:new    ;}
	.st2{opacity:0.3;enable-background:new    ;}
	.st3{opacity:0.3;fill:#FFFFFF;enable-background:new    ;}
	.st4{opacity:0.21;enable-background:new    ;}
	.st5{opacity:0.52;fill:url(#XMLID_2_);enable-background:new    ;}
	.st6{opacity:0.46;fill:url(#XMLID_3_);enable-background:new    ;}
	.st7{opacity:0.18;fill:#FFFFFF;enable-background:new    ;}
	.st8{fill:#CB2890;stroke:#58595B;stroke-width:4;stroke-miterlimit:10;}
	.st9{opacity:0.52;fill:url(#XMLID_4_);enable-background:new    ;}
	.st10{opacity:0.46;fill:url(#XMLID_5_);enable-background:new    ;}
	.st11{opacity:0.52;fill:url(#XMLID_6_);enable-background:new    ;}
	.st12{opacity:0.46;fill:url(#XMLID_7_);enable-background:new    ;}
	.st13{opacity:0.52;fill:url(#XMLID_8_);enable-background:new    ;}
	.st14{opacity:0.46;fill:url(#XMLID_9_);enable-background:new    ;}
	.st15{opacity:0.52;fill:url(#XMLID_10_);enable-background:new    ;}
	.st16{opacity:0.46;fill:url(#XMLID_11_);enable-background:new    ;}
	.st17{opacity:0.52;fill:url(#XMLID_12_);enable-background:new    ;}
	.st18{opacity:0.46;fill:url(#XMLID_13_);enable-background:new    ;}
</style>
<g id="圖層_2_1_">
	<path id="XMLID_366_" class="st0" d="M160,166.8c0,0,1.3,1.3,0.5,3.3c-0.9,2.3-4.4,8.2-5,9.2c0,0.1-0.1,0.2-0.1,0.2
		c-0.2,0.5-1.1,2.4-4.8,2.2c-2.9-0.2-5.8,0-7.3,0.1c-1,0.1-1.9-0.4-2.4-1.3c-0.1-0.1-0.2-0.3-0.2-0.4c-0.8-1.6-4.4-10.5-5.2-12.3
		c-0.1-0.2-0.2-0.4-0.3-0.5c-0.3-0.5-1.1-1.7,0.8-3.3c2.4-1.9,5.1-3.7,5.1-3.7s1-0.8,2.4-0.7c1.2,0.1,10.7,3.3,11.9,3.7
		c0.1,0,0.1,0,0.2,0.1C155.8,163.5,157.5,164,160,166.8z"/>
	<path id="XMLID_365_" class="st1" d="M148.7,167l-0.8,2.8c0,0-0.2,0.5-0.8,0.4s-5-1.2-5-1.2l5.3,1.8c0,0,0.4,0.2,1.4,1.4
		c0.9,1.2,1.9,2.4,1.9,2.4s-2.6-3.3-2.5-4.1C148.2,169.8,148.7,167,148.7,167z"/>
	<path id="XMLID_364_" class="st2" d="M143.2,181.9c1.5-0.1,4.4-0.3,7.3-0.1c3.7,0.2,4.6-1.8,4.8-2.2c0-0.1,0.1-0.2,0.1-0.2
		c0.6-1,4.1-6.9,5-9.2c0.8-2-0.5-3.3-0.5-3.3l0,0l-0.3,0.7c0,0-1.4,5.8-7,8.4c-5.5,2.6-10.7,3-12.6,2.7c0,0.1-0.1,0.2-0.1,0.3
		c0.1,0.3,0.2,0.5,0.3,0.7v0.1c0,0.1,0.1,0.1,0.1,0.2v0.1c0,0.1,0.1,0.1,0.1,0.2c0.1,0.2,0.2,0.3,0.2,0.4
		C141.3,181.5,142.2,181.9,143.2,181.9z"/>
	<path id="XMLID_363_" class="st3" d="M154.5,163.2c-0.9-0.3-2.4-0.8-4-1.3l0,0c-0.1,0-0.3-0.1-0.4-0.1l0,0l-0.2,0.2l-2,8.9l7,9.5
		c0.1-0.1,0.1-0.2,0.2-0.2l0,0c0-0.1,0.1-0.1,0.1-0.2l0,0c0-0.1,0.1-0.1,0.1-0.1l0,0c0,0,0-0.1,0.1-0.1c0-0.1,0.1-0.2,0.1-0.2
		c0.6-1,4.1-6.9,5-9.2c0.8-2-0.5-3.3-0.5-3.3c-2.5-2.8-4.2-3.3-4.6-3.4c-0.1,0-0.1,0-0.2-0.1c-0.1,0-0.3-0.1-0.6-0.2
		C154.6,163.2,154.5,163.2,154.5,163.2z"/>
	<path id="XMLID_362_" class="st4" d="M139.7,165.8l1.9-5.7c-0.3,0.2-0.5,0.3-0.5,0.3s-2.7,1.7-5.1,3.7c-0.5,0.4-0.8,0.8-1,1.2
		L139.7,165.8z"/>
	
		<linearGradient id="XMLID_2_" gradientUnits="userSpaceOnUse" x1="3.4376" y1="182.3522" x2="3.4376" y2="170.718" gradientTransform="matrix(-0.7503 0.6611 0.6611 0.7503 30.7136 30.2698)">
		<stop  offset="0" style="stop-color:#FFFFFF"/>
		<stop  offset="3.264958e-002" style="stop-color:#FFFFFF;stop-opacity:0.9674"/>
		<stop  offset="1" style="stop-color:#FFFFFF;stop-opacity:0"/>
	</linearGradient>
	<path id="XMLID_361_" class="st5" d="M148.2,169.5l0.3-1.2c0,0,1.2-5.3,1.4-6.1c0.1-0.3,0-0.5-0.1-0.6c-2.8-0.9-5.7-1.8-6.4-1.9
		c-0.7,0-1.4,0.2-1.8,0.4l0,0c0,0-1.3,3.9-1.9,5.7c-0.6,1.7,0.1,2.5,0.1,2.5s5.6,1.7,6.9,2C148,170.6,148.2,169.5,148.2,169.5z"/>
	
		<linearGradient id="XMLID_3_" gradientUnits="userSpaceOnUse" x1="7.8476" y1="173.0604" x2="13.402" y2="173.0604" gradientTransform="matrix(-0.7503 0.6611 0.6611 0.7503 30.7136 30.2698)">
		<stop  offset="1.065275e-007" style="stop-color:#000000"/>
		<stop  offset="1" style="stop-color:#000000;stop-opacity:0"/>
	</linearGradient>
	<path id="XMLID_360_" class="st6" d="M139.7,165.8l-4.8-0.5l0,0c-0.5,1,0,1.7,0.2,2.1c0.1,0.1,0.2,0.3,0.3,0.5
		c0.2,0.4,0.8,1.9,1.2,2.8c1,0,1.7-0.6,2.4-1.6c0.3-0.5,0.6-1.1,0.5-1.8C139.4,166.7,139.7,165.8,139.7,165.8z"/>
	<path id="XMLID_359_" class="st7" d="M137.6,169.4c0,0,0,0.3-0.3,0.3c-0.2,0.1-0.4,0-0.3-0.1s0.3-0.4,0.4-0.4
		S137.6,169.4,137.6,169.4z"/>
	<path id="XMLID_358_" class="st7" d="M138.8,165.3c0,0-0.2,0.1-0.4-0.1c-0.2-0.2-0.3-0.3-0.1-0.3s0.5,0,0.6,0.1
		C138.9,165.2,138.8,165.3,138.8,165.3z"/>
	<path id="XMLID_357_" class="st7" d="M144.5,179.1c0,0,0.1,0.3-0.2,0.4c-0.2,0.1-0.4,0.2-0.3,0s0.1-0.5,0.3-0.5
		C144.4,179,144.5,179.1,144.5,179.1z"/>
	<path id="XMLID_355_" class="st7" d="M147.9,171.7c0,0,0,0.1-0.1,0.2c-0.1,0-0.1,0-0.1,0S147.7,171.7,147.9,171.7
		C147.9,171.6,147.9,171.7,147.9,171.7z"/>
	<path id="XMLID_354_" class="st8" d="M114.4,149.7c0,0-1.8,0-2.6-2c-1-2.3-2.6-9-2.9-10.1c0-0.1,0-0.2-0.1-0.3
		c-0.2-0.5-0.9-2.5,1.8-5c2.2-1.9,4.1-4.1,5.1-5.2c0.6-0.7,1.6-1,2.6-0.8c0.1,0,0.3,0.1,0.5,0.1c1.8,0.6,10.5,4.4,12.4,5.1
		c0.2,0.1,0.4,0.1,0.5,0.2c0.6,0.2,2,0.5,1.7,2.9c-0.3,3-1.1,6.2-1.1,6.2s-0.2,1.3-1.2,2.2c-0.9,0.8-9.9,5.2-11,5.7
		c-0.1,0-0.1,0.1-0.2,0.1C119.7,149.1,118.1,150,114.4,149.7z"/>
	<path id="XMLID_352_" class="st1" d="M122.4,141.6l-1.4-2.5c0,0-0.2-0.5,0.2-0.9c0.4-0.4,4.5-2.7,4.5-2.7l-5,2.4c0,0-0.4,0.2-1.9,0
		c-1.5-0.2-3-0.3-3-0.3s4.2,0.5,4.7,1.1C120.7,139.3,122.4,141.6,122.4,141.6z"/>
	<path id="XMLID_350_" class="st2" d="M115.8,127.2c-1,1.1-2.9,3.3-5.1,5.2c-2.8,2.5-2.1,4.5-1.8,5c0,0.1,0.1,0.2,0.1,0.3
		c0.3,1.1,1.9,7.8,2.9,10.1c0.8,2,2.6,2,2.6,2l0,0l-0.3-0.7c0,0-3.1-5.2-1-10.9c2.1-5.7,5.5-9.7,7.1-10.8c0-0.1-0.1-0.2-0.1-0.3
		c-0.3-0.1-0.5-0.2-0.7-0.3h-0.1c-0.1,0-0.1-0.1-0.2-0.1h-0.1c-0.1,0-0.2-0.1-0.2-0.1c-0.2-0.1-0.3-0.1-0.5-0.1
		C117.4,126.2,116.4,126.5,115.8,127.2z"/>
	<path id="XMLID_346_" class="st3" d="M120.9,148.4c0.9-0.4,2.3-1.1,3.8-1.9l0,0c0.1-0.1,0.3-0.1,0.4-0.2l0,0V146l-4.9-7.7
		l-11.7-1.9c0,0.1,0,0.2,0,0.3l0,0c0,0.1,0,0.2,0.1,0.2l0,0c0,0.1,0,0.1,0,0.2l0,0c0,0.1,0,0.1,0.1,0.1c0,0.1,0.1,0.2,0.1,0.3
		c0.3,1.1,1.9,7.8,2.9,10.1c0.8,2,2.6,2,2.6,2c3.7,0.3,5.3-0.6,5.6-0.8c0.1,0,0.1-0.1,0.2-0.1c0.1-0.1,0.3-0.2,0.6-0.3
		C120.8,148.5,120.9,148.5,120.9,148.4z"/>
	<path id="XMLID_343_" class="st4" d="M129.6,136.1l2.6,5.4c0.1-0.4,0.2-0.6,0.2-0.6s0.7-3.1,1.1-6.2c0.1-0.7,0-1.2-0.1-1.6
		L129.6,136.1z"/>
	
		<linearGradient id="XMLID_4_" gradientUnits="userSpaceOnUse" x1="149.2609" y1="75.7955" x2="149.2609" y2="64.157" gradientTransform="matrix(6.879872e-002 -0.9976 -0.9976 -6.879872e-002 186.0209 293.9048)">
		<stop  offset="0" style="stop-color:#FFFFFF"/>
		<stop  offset="3.264958e-002" style="stop-color:#FFFFFF;stop-opacity:0.9674"/>
		<stop  offset="1" style="stop-color:#FFFFFF;stop-opacity:0"/>
	</linearGradient>
	<path id="XMLID_339_" class="st9" d="M121,139.5l0.7,1c0,0,2.9,4.6,3.3,5.3c0.1,0.3,0.3,0.3,0.5,0.3c2.6-1.3,5.3-2.7,5.8-3.1
		c0.6-0.5,0.9-1.1,1-1.6l0,0c0,0-1.8-3.7-2.6-5.4c-0.8-1.6-1.8-1.7-1.8-1.7s-5.1,2.7-6.3,3.5C120.4,138.6,121,139.5,121,139.5z"/>
	
		<linearGradient id="XMLID_5_" gradientUnits="userSpaceOnUse" x1="153.5078" y1="66.485" x2="159.0621" y2="66.485" gradientTransform="matrix(6.879872e-002 -0.9976 -0.9976 -6.879872e-002 186.0209 293.9048)">
		<stop  offset="1.065275e-007" style="stop-color:#000000"/>
		<stop  offset="1" style="stop-color:#000000;stop-opacity:0"/>
	</linearGradient>
	<path id="XMLID_337_" class="st10" d="M129.6,136.1l3.7-3l0,0c-0.3-1-1.2-1.2-1.6-1.4c-0.1-0.1-0.3-0.1-0.5-0.2
		c-0.4-0.1-1.9-0.8-2.8-1.1c-0.7,0.7-0.8,1.6-0.6,2.8c0.1,0.6,0.4,1.2,0.9,1.6C129.2,135.3,129.6,136.1,129.6,136.1z"/>
	<path id="XMLID_317_" class="st7" d="M128.5,132.1c0,0-0.2-0.2,0-0.4c0.1-0.2,0.2-0.3,0.3-0.2c0,0.1,0.1,0.5,0,0.6
		C128.6,132.2,128.5,132.1,128.5,132.1z"/>
	<path id="XMLID_91_" class="st7" d="M130.6,135.9c0,0,0.1-0.3,0.3-0.3s0.4,0,0.3,0.1c-0.1,0.1-0.3,0.3-0.5,0.3
		C130.6,136,130.6,135.9,130.6,135.9z"/>
	<path id="XMLID_76_" class="st7" d="M116.8,130c0,0-0.2-0.1-0.2-0.4c0-0.3,0.1-0.4,0.2-0.2c0.1,0.2,0.2,0.4,0.2,0.5
		C116.9,130.1,116.8,130,116.8,130z"/>
	<path id="XMLID_77_" class="st7" d="M119.6,137.7c0,0-0.1-0.1-0.1-0.2s0.1-0.1,0.1,0S119.7,137.6,119.6,137.7L119.6,137.7z"/>
</g>
<g id="圖層_2_拷貝">
	<path id="XMLID_388_" class="st0" d="M167.5,205.1c0,0-0.8,1.6-2.9,1.5c-2.5-0.1-9.2-1.6-10.3-1.8c-0.1,0-0.2,0-0.3,0
		c-0.5,0-2.7-0.3-3.7-3.8c-0.8-2.8-1.9-5.5-2.4-6.9c-0.4-0.9-0.2-1.9,0.4-2.7c0.1-0.1,0.2-0.2,0.3-0.4c1.3-1.3,8.5-7.5,10-8.9
		c0.2-0.1,0.3-0.3,0.4-0.4c0.4-0.4,1.3-1.6,3.4-0.3c2.6,1.6,5.1,3.7,5.1,3.7s1.1,0.7,1.5,2c0.3,1.2,0.3,11.2,0.3,12.4
		c0,0.1,0,0.1,0,0.2C169.3,200.1,169.4,201.9,167.5,205.1z"/>
	<path id="XMLID_387_" class="st1" d="M163.7,194.4l-2.9,0.2c0,0-0.5,0-0.7-0.6c-0.1-0.6-0.4-5.2-0.4-5.2v5.6c0,0,0,0.5-0.9,1.7
		c-0.9,1.3-1.6,2.6-1.6,2.6s2.3-3.6,3-3.7C160.9,194.9,163.7,194.4,163.7,194.4z"/>
	<path id="XMLID_386_" class="st2" d="M147.9,194c0.6,1.4,1.6,4.1,2.4,6.9c1,3.5,3.2,3.8,3.7,3.8c0.1,0,0.2,0,0.3,0
		c1.1,0.2,7.8,1.7,10.3,1.8c2.1,0.1,2.9-1.5,2.9-1.5l0,0l-0.8-0.1c0,0-6,0.5-10.2-3.9s-6.3-9.2-6.6-11.1c-0.1,0-0.2,0-0.3,0
		c-0.2,0.2-0.4,0.4-0.6,0.5c0,0,0,0-0.1,0.1s-0.1,0.1-0.2,0.1c0,0,0,0-0.1,0.1s-0.1,0.1-0.2,0.2c-0.1,0.1-0.2,0.2-0.3,0.4
		C147.6,192.1,147.5,193.1,147.9,194z"/>
	<path id="XMLID_385_" class="st3" d="M169.2,198.7c0-0.9,0-2.5,0-4.2l0,0c0-0.2,0-0.3,0-0.5l0,0l-0.3-0.1l-9.1,1l-6.8,9.7
		c0.1,0,0.2,0.1,0.3,0.1l0,0c0.1,0,0.2,0,0.2,0.1l0,0c0.1,0,0.1,0,0.2,0l0,0c0.1,0,0.1,0,0.1,0c0.1,0,0.2,0,0.3,0
		c1.1,0.2,7.8,1.7,10.3,1.8c2.1,0.1,2.9-1.5,2.9-1.5c1.9-3.2,1.8-5,1.7-5.4c0-0.1,0-0.1,0-0.2c0-0.1,0-0.4,0-0.7
		C169.2,198.8,169.2,198.7,169.2,198.7z"/>
	<path id="XMLID_384_" class="st4" d="M162,185.5h6c-0.3-0.3-0.5-0.4-0.5-0.4s-2.5-2-5.1-3.7c-0.6-0.4-1-0.5-1.4-0.6L162,185.5z"/>
	
		<linearGradient id="XMLID_6_" gradientUnits="userSpaceOnUse" x1="-61.7622" y1="186.1064" x2="-61.7622" y2="174.468" gradientTransform="matrix(-0.8671 -0.4981 -0.4981 0.8671 200.5366 3.0118)">
		<stop  offset="0" style="stop-color:#FFFFFF"/>
		<stop  offset="3.264958e-002" style="stop-color:#FFFFFF;stop-opacity:0.9674"/>
		<stop  offset="1" style="stop-color:#FFFFFF;stop-opacity:0"/>
	</linearGradient>
	<path id="XMLID_383_" class="st11" d="M161.2,194.7l1.2-0.1c0,0,5.4-0.6,6.2-0.6c0.3,0,0.5-0.1,0.5-0.3c0-2.9-0.1-6-0.3-6.6
		c-0.2-0.7-0.6-1.2-1-1.6l0,0c0,0-4.2,0-6,0s-2.3,0.9-2.3,0.9s0.2,5.8,0.3,7.2C160.1,195,161.2,194.7,161.2,194.7z"/>
	
		<linearGradient id="XMLID_7_" gradientUnits="userSpaceOnUse" x1="-57.4493" y1="176.7062" x2="-51.8948" y2="176.7062" gradientTransform="matrix(-0.8671 -0.4981 -0.4981 0.8671 200.5366 3.0118)">
		<stop  offset="1.065275e-007" style="stop-color:#000000"/>
		<stop  offset="1" style="stop-color:#000000;stop-opacity:0"/>
	</linearGradient>
	<path id="XMLID_382_" class="st12" d="M162,185.5l-1.1-4.7l0,0c-1.1-0.2-1.6,0.5-1.9,0.8c-0.1,0.1-0.2,0.3-0.4,0.4
		c-0.3,0.3-1.5,1.4-2.2,2c0.3,0.9,1.1,1.5,2.3,1.7c0.6,0.1,1.3,0.2,1.8-0.1C161,185.5,162,185.5,162,185.5z"/>
	<path id="XMLID_381_" class="st7" d="M157.8,184.7c0,0-0.3,0-0.4-0.2s-0.2-0.4,0-0.3c0.1,0,0.5,0.1,0.5,0.3
		C158,184.7,157.8,184.7,157.8,184.7z"/>
	<path id="XMLID_380_" class="st7" d="M162.1,184.5c0,0-0.2-0.2-0.1-0.4c0.1-0.2,0.2-0.3,0.2-0.2s0.2,0.4,0.1,0.6
		C162.3,184.6,162.1,184.5,162.1,184.5z"/>
	<path id="XMLID_379_" class="st7" d="M150.8,194.3c0,0-0.2,0.1-0.4,0c-0.2-0.2-0.3-0.3-0.1-0.3s0.5,0,0.6,0.1
		S150.8,194.3,150.8,194.3z"/>
	<path id="XMLID_378_" class="st7" d="M159,195.2c0,0-0.1,0.1-0.2,0c-0.1-0.1-0.1-0.1,0-0.1s0.1-0.1,0.2,0S159,195.2,159,195.2z"/>
	<path id="XMLID_377_" class="st8" d="M169.1,156.4c0,0-0.6-1.7,1.1-3.1c1.9-1.7,7.7-5.4,8.6-6c0.1,0,0.1-0.1,0.2-0.2
		c0.4-0.4,2.1-1.7,5.3,0.1c2.5,1.4,5.2,2.6,6.6,3.2c0.9,0.4,1.5,1.2,1.6,2.2c0,0.2,0,0.3,0,0.5c0,1.8-0.8,11.3-0.8,13.3
		c0,0.2,0,0.4,0,0.6c0,0.6,0.2,2-2.2,2.5c-3,0.7-6.2,1-6.2,1s-1.3,0.3-2.4-0.4c-1.1-0.6-8.1-7.7-8.9-8.6c-0.1-0.1-0.1-0.1-0.2-0.1
		C171.3,161.2,170,160,169.1,156.4z"/>
	<path id="XMLID_376_" class="st1" d="M179.3,161.3l2-2.2c0,0,0.4-0.4,0.9-0.1s3.9,3.4,3.9,3.4l-3.9-4c0,0-0.3-0.4-0.6-1.9
		s-0.7-3-0.7-3s0.9,4.2,0.4,4.8C180.9,159,179.3,161.3,179.3,161.3z"/>
	<path id="XMLID_375_" class="st2" d="M190.8,150.5c-1.4-0.6-4-1.7-6.6-3.2c-3.2-1.8-4.9-0.5-5.3-0.1c-0.1,0.1-0.1,0.1-0.2,0.2
		c-1,0.6-6.7,4.3-8.6,6c-1.6,1.4-1.1,3.1-1.1,3.1l0,0l0.6-0.5c0,0,3.9-4.6,10-4.4c6.1,0.2,10.9,2.1,12.5,3.2
		c0.1-0.1,0.1-0.1,0.2-0.2c0-0.3,0-0.5,0-0.8v-0.1c0-0.1,0-0.1,0-0.2v-0.1c0-0.1,0-0.2,0-0.2c0-0.2,0-0.3,0-0.5
		C192.3,151.7,191.7,150.8,190.8,150.5z"/>
	<path id="XMLID_374_" class="st3" d="M172.3,162.2c0.7,0.7,1.8,1.8,3,3l0,0c0.1,0.1,0.2,0.2,0.3,0.3l0,0l0.3-0.1l5.7-7.1l-2-11.6
		c-0.1,0-0.2,0.1-0.3,0.1l0,0c-0.1,0-0.1,0.1-0.2,0.1l0,0L179,147l0,0l-0.1,0.1c-0.1,0.1-0.1,0.1-0.2,0.2c-1,0.6-6.7,4.3-8.6,6
		c-1.6,1.4-1.1,3.1-1.1,3.1c1,3.6,2.3,4.8,2.6,5c0.1,0,0.1,0.1,0.2,0.1C171.9,161.7,172,161.9,172.3,162.2
		C172.3,162.1,172.3,162.1,172.3,162.2z"/>
	<path id="XMLID_373_" class="st4" d="M186.8,166.4l-4.3,4.2c0.4,0,0.6-0.1,0.6-0.1s3.2-0.3,6.2-1c0.7-0.1,1.1-0.4,1.4-0.6
		L186.8,166.4z"/>
	
		<linearGradient id="XMLID_8_" gradientUnits="userSpaceOnUse" x1="192.8297" y1="27.2156" x2="192.8297" y2="15.5881" gradientTransform="matrix(0.9668 -0.2555 -0.2555 -0.9668 0.796 234.7909)">
		<stop  offset="0" style="stop-color:#FFFFFF"/>
		<stop  offset="3.264958e-002" style="stop-color:#FFFFFF;stop-opacity:0.9674"/>
		<stop  offset="1" style="stop-color:#FFFFFF;stop-opacity:0"/>
	</linearGradient>
	<path id="XMLID_372_" class="st13" d="M180.8,159.4l-0.8,1c0,0-3.4,4.2-4,4.8c-0.2,0.2-0.2,0.4-0.2,0.6c2.1,2.1,4.3,4.2,4.9,4.5
		c0.6,0.4,1.3,0.5,1.8,0.4l0,0c0,0,3-2.9,4.3-4.2s1-2.3,1-2.3s-4.2-4-5.3-4.9C181.5,158.4,180.8,159.4,180.8,159.4z"/>
	
		<linearGradient id="XMLID_9_" gradientUnits="userSpaceOnUse" x1="197.2979" y1="17.8782" x2="202.8524" y2="17.8782" gradientTransform="matrix(0.9668 -0.2555 -0.2555 -0.9668 0.796 234.7909)">
		<stop  offset="1.065275e-007" style="stop-color:#000000"/>
		<stop  offset="1" style="stop-color:#000000;stop-opacity:0"/>
	</linearGradient>
	<path id="XMLID_371_" class="st14" d="M186.8,166.4l4,2.6l0,0c0.9-0.6,0.8-1.5,0.8-1.9c0-0.2,0-0.4,0-0.6c0-0.4,0.1-2,0.2-3
		c-0.9-0.4-1.8-0.3-2.8,0.4c-0.5,0.3-1,0.7-1.3,1.3S186.8,166.4,186.8,166.4z"/>
	<path id="XMLID_370_" class="st7" d="M190.3,164.1c0,0,0.2-0.2,0.4-0.2c0.2,0.1,0.4,0.1,0.2,0.2c-0.1,0.1-0.4,0.2-0.5,0.2
		C190.2,164.2,190.3,164.1,190.3,164.1z"/>
	<path id="XMLID_369_" class="st7" d="M187.3,167.3c0,0,0.3,0,0.3,0.2c0.1,0.2,0.1,0.4,0,0.3s-0.4-0.2-0.4-0.4
		S187.3,167.3,187.3,167.3z"/>
	<path id="XMLID_368_" class="st7" d="M188.5,152.3c0,0,0.1-0.3,0.3-0.3s0.4,0,0.3,0.1c-0.1,0.1-0.3,0.4-0.5,0.3
		C188.5,152.5,188.5,152.3,188.5,152.3z"/>
	<path id="XMLID_367_" class="st7" d="M182.1,157.5c0,0,0-0.1,0.1-0.1s0.1,0,0.1,0.1C182.2,157.5,182.2,157.6,182.1,157.5
		L182.1,157.5z"/>
</g>
<g id="圖層_2_拷貝_2">
	<path id="XMLID_410_" class="st0" d="M134.5,194.1c0,0-0.8,1.6-2.9,1.5c-2.5-0.1-9.2-1.6-10.3-1.8c-0.1,0-0.2,0-0.3,0
		c-0.5,0-2.7-0.3-3.7-3.8c-0.8-2.8-1.9-5.5-2.4-6.9c-0.4-0.9-0.2-1.9,0.4-2.7c0.1-0.1,0.2-0.2,0.3-0.4c1.3-1.3,8.5-7.5,10-8.9
		c0.2-0.1,0.3-0.3,0.4-0.4c0.4-0.4,1.3-1.6,3.4-0.3c2.6,1.6,5.1,3.7,5.1,3.7s1.1,0.7,1.5,2c0.3,1.2,0.3,11.2,0.3,12.4
		c0,0.1,0,0.1,0,0.2C136.2,189.1,136.3,190.9,134.5,194.1z"/>
	<path id="XMLID_409_" class="st1" d="M130.7,183.4l-2.9,0.2c0,0-0.5,0-0.7-0.6c-0.1-0.6-0.4-5.2-0.4-5.2v5.6c0,0,0,0.5-0.9,1.7
		c-0.9,1.3-1.6,2.6-1.6,2.6s2.3-3.6,3-3.7C127.9,183.9,130.7,183.4,130.7,183.4z"/>
	<path id="XMLID_408_" class="st2" d="M114.8,183.1c0.6,1.4,1.6,4.1,2.4,6.9c1,3.5,3.2,3.8,3.7,3.8c0.1,0,0.2,0,0.3,0
		c1.1,0.2,7.8,1.7,10.3,1.8c2.1,0.1,2.9-1.5,2.9-1.5l0,0l-0.8-0.1c0,0-6,0.5-10.2-3.9s-6.3-9.2-6.6-11.1c-0.1,0-0.2,0-0.3,0
		c-0.2,0.2-0.4,0.4-0.6,0.5c0,0,0,0-0.1,0.1s-0.1,0.1-0.2,0.1c0,0,0,0-0.1,0.1s-0.1,0.1-0.2,0.2c-0.1,0.1-0.2,0.2-0.3,0.4
		C114.6,181.1,114.4,182.2,114.8,183.1z"/>
	<path id="XMLID_407_" class="st3" d="M136.2,187.7c0-0.9,0-2.5,0-4.2l0,0c0-0.2,0-0.3,0-0.5l0,0l-0.3-0.1l-9.1,1l-6.8,9.7
		c0.1,0,0.2,0.1,0.3,0.1l0,0c0.1,0,0.2,0,0.2,0.1l0,0c0.1,0,0.1,0,0.2,0l0,0c0.1,0,0.1,0,0.1,0c0.1,0,0.2,0,0.3,0
		c1.1,0.2,7.8,1.7,10.3,1.8c2.1,0.1,2.9-1.5,2.9-1.5c1.9-3.2,1.8-5,1.7-5.4c0-0.1,0-0.1,0-0.2c0-0.1,0-0.4,0-0.7
		C136.2,187.8,136.2,187.8,136.2,187.7z"/>
	<path id="XMLID_406_" class="st4" d="M128.9,174.5h6c-0.3-0.3-0.5-0.4-0.5-0.4s-2.5-2-5.1-3.7c-0.6-0.4-1-0.5-1.4-0.6L128.9,174.5z
		"/>
	
		<linearGradient id="XMLID_10_" gradientUnits="userSpaceOnUse" x1="-27.7175" y1="193.0436" x2="-27.7175" y2="181.4051" gradientTransform="matrix(-0.8671 -0.4981 -0.4981 0.8671 200.5366 3.0118)">
		<stop  offset="0" style="stop-color:#FFFFFF"/>
		<stop  offset="3.264958e-002" style="stop-color:#FFFFFF;stop-opacity:0.9674"/>
		<stop  offset="1" style="stop-color:#FFFFFF;stop-opacity:0"/>
	</linearGradient>
	<path id="XMLID_405_" class="st15" d="M128.2,183.8l1.2-0.1c0,0,5.4-0.6,6.2-0.6c0.3,0,0.5-0.1,0.5-0.3c0-2.9-0.1-6-0.3-6.6
		c-0.2-0.7-0.6-1.2-1-1.6l0,0c0,0-4.2,0-6,0s-2.3,0.9-2.3,0.9s0.2,5.8,0.3,7.2S128.2,183.8,128.2,183.8z"/>
	
		<linearGradient id="XMLID_11_" gradientUnits="userSpaceOnUse" x1="-23.3403" y1="183.6554" x2="-17.7859" y2="183.6554" gradientTransform="matrix(-0.8671 -0.4981 -0.4981 0.8671 200.5366 3.0118)">
		<stop  offset="1.065275e-007" style="stop-color:#000000"/>
		<stop  offset="1" style="stop-color:#000000;stop-opacity:0"/>
	</linearGradient>
	<path id="XMLID_404_" class="st16" d="M128.9,174.5l-1.1-4.7l0,0c-1.1-0.2-1.6,0.5-1.9,0.8c-0.1,0.1-0.2,0.3-0.4,0.4
		c-0.3,0.3-1.5,1.4-2.2,2c0.3,0.9,1.1,1.5,2.3,1.7c0.6,0.1,1.3,0.2,1.8-0.1C128,174.5,128.9,174.5,128.9,174.5z"/>
	<path id="XMLID_403_" class="st7" d="M124.8,173.8c0,0-0.3,0-0.4-0.2s-0.2-0.4,0-0.3s0.5,0.1,0.5,0.3
		C124.9,173.7,124.8,173.8,124.8,173.8z"/>
	<path id="XMLID_402_" class="st7" d="M129.1,173.5c0,0-0.2-0.2-0.1-0.4c0.1-0.2,0.2-0.3,0.2-0.2s0.2,0.4,0.1,0.6
		C129.2,173.6,129.1,173.5,129.1,173.5z"/>
	<path id="XMLID_401_" class="st7" d="M117.8,183.4c0,0-0.2,0.1-0.4,0c-0.2-0.2-0.3-0.3-0.1-0.3c0.2,0,0.5,0,0.6,0.1
		C117.9,183.3,117.8,183.4,117.8,183.4z"/>
	<path id="XMLID_400_" class="st7" d="M126,184.2c0,0-0.1,0.1-0.2,0s-0.1-0.1,0-0.1s0.1-0.1,0.2,0S126,184.2,126,184.2z"/>
	<path id="XMLID_399_" class="st8" d="M136,145.4c0,0-0.6-1.7,1.1-3.1c1.9-1.7,7.7-5.4,8.6-6c0.1,0,0.1-0.1,0.2-0.2
		c0.4-0.4,2.1-1.7,5.3,0.1c2.5,1.4,5.2,2.6,6.6,3.2c0.9,0.4,1.5,1.2,1.6,2.2c0,0.2,0,0.3,0,0.5c0,1.8-0.8,11.3-0.8,13.3
		c0,0.2,0,0.4,0,0.6c0,0.6,0.2,2-2.2,2.5c-3,0.7-6.2,1-6.2,1s-1.3,0.3-2.4-0.4c-1.1-0.6-8.1-7.7-8.9-8.6c-0.1-0.1-0.1-0.1-0.2-0.1
		C138.3,150.2,137,149,136,145.4z"/>
	<path id="XMLID_398_" class="st1" d="M146.2,150.4l2-2.2c0,0,0.4-0.4,0.9-0.1c0.5,0.3,3.9,3.4,3.9,3.4l-3.9-4c0,0-0.3-0.4-0.6-1.9
		s-0.7-3-0.7-3s0.9,4.2,0.4,4.8S146.2,150.4,146.2,150.4z"/>
	<path id="XMLID_397_" class="st2" d="M157.8,139.5c-1.4-0.6-4-1.7-6.6-3.2c-3.2-1.8-4.9-0.5-5.3-0.1c-0.1,0.1-0.1,0.1-0.2,0.2
		c-1,0.6-6.7,4.3-8.6,6c-1.6,1.4-1.1,3.1-1.1,3.1l0,0l0.6-0.5c0,0,3.9-4.6,10-4.4c6.1,0.2,10.9,2.1,12.5,3.2
		c0.1-0.1,0.1-0.1,0.2-0.2c0-0.3,0-0.5,0-0.8v-0.1c0-0.1,0-0.1,0-0.2v-0.1c0-0.1,0-0.2,0-0.2c0-0.2,0-0.3,0-0.5
		C159.3,140.7,158.7,139.9,157.8,139.5z"/>
	<path id="XMLID_396_" class="st3" d="M139.3,151.2c0.7,0.7,1.8,1.8,3,3l0,0c0.1,0.1,0.2,0.2,0.3,0.3l0,0l0.3-0.1l5.7-7.1l-2-11.6
		c-0.1,0-0.2,0.1-0.3,0.1l0,0c-0.1,0-0.1,0.1-0.2,0.1l0,0L146,136l0,0l-0.1,0.1c-0.1,0.1-0.1,0.1-0.2,0.2c-1,0.6-6.7,4.3-8.6,6
		c-1.6,1.4-1.1,3.1-1.1,3.1c1,3.6,2.3,4.8,2.6,5c0.1,0,0.1,0.1,0.2,0.1C138.9,150.7,139,150.9,139.3,151.2
		C139.3,151.1,139.3,151.1,139.3,151.2z"/>
	<path id="XMLID_395_" class="st4" d="M153.8,155.5l-4.3,4.2c0.4,0,0.6-0.1,0.6-0.1s3.2-0.3,6.2-1c0.7-0.1,1.1-0.4,1.4-0.6
		L153.8,155.5z"/>
	
		<linearGradient id="XMLID_12_" gradientUnits="userSpaceOnUse" x1="163.7352" y1="46.2634" x2="163.7352" y2="34.625" gradientTransform="matrix(0.9668 -0.2555 -0.2555 -0.9668 0.796 234.7909)">
		<stop  offset="0" style="stop-color:#FFFFFF"/>
		<stop  offset="3.264958e-002" style="stop-color:#FFFFFF;stop-opacity:0.9674"/>
		<stop  offset="1" style="stop-color:#FFFFFF;stop-opacity:0"/>
	</linearGradient>
	<path id="XMLID_394_" class="st17" d="M147.8,148.4l-0.8,1c0,0-3.4,4.2-4,4.8c-0.2,0.2-0.2,0.4-0.2,0.6c2.1,2.1,4.3,4.2,4.9,4.5
		c0.6,0.4,1.3,0.5,1.8,0.4l0,0c0,0,3-2.9,4.3-4.2s1-2.3,1-2.3s-4.2-4-5.3-4.9C148.4,147.4,147.8,148.4,147.8,148.4z"/>
	
		<linearGradient id="XMLID_13_" gradientUnits="userSpaceOnUse" x1="168.1655" y1="36.8482" x2="173.7199" y2="36.8482" gradientTransform="matrix(0.9668 -0.2555 -0.2555 -0.9668 0.796 234.7909)">
		<stop  offset="1.065275e-007" style="stop-color:#000000"/>
		<stop  offset="1" style="stop-color:#000000;stop-opacity:0"/>
	</linearGradient>
	<path id="XMLID_393_" class="st18" d="M153.8,155.5l4,2.6l0,0c0.9-0.6,0.8-1.5,0.8-1.9c0-0.2,0-0.4,0-0.6c0-0.4,0.1-2,0.2-3
		c-0.9-0.4-1.8-0.3-2.8,0.4c-0.5,0.3-1,0.7-1.3,1.3C154.4,154.8,153.8,155.5,153.8,155.5z"/>
	<path id="XMLID_392_" class="st7" d="M157.2,153.1c0,0,0.2-0.2,0.4-0.2c0.2,0.1,0.4,0.1,0.2,0.2c-0.1,0.1-0.4,0.2-0.5,0.2
		S157.2,153.1,157.2,153.1z"/>
	<path id="XMLID_391_" class="st7" d="M154.3,156.3c0,0,0.3,0,0.3,0.2c0.1,0.2,0.1,0.4,0,0.3s-0.4-0.2-0.4-0.4
		S154.3,156.3,154.3,156.3z"/>
	<path id="XMLID_390_" class="st7" d="M155.4,141.4c0,0,0.1-0.3,0.3-0.3s0.4,0,0.3,0.1s-0.3,0.4-0.5,0.3S155.4,141.4,155.4,141.4z"
		/>
	<path id="XMLID_389_" class="st7" d="M149,146.5c0,0,0-0.1,0.1-0.1s0.1,0,0.1,0.1C149.2,146.5,149.2,146.6,149,146.5
		C149,146.6,149,146.5,149,146.5z"/>
</g>
<g id="圖層_3">
</g>
</svg>
