<?xml version="1.0" encoding="utf-8"?>
<!-- Generator: Adobe Illustrator 19.0.0, SVG Export Plug-In . SVG Version: 6.00 Build 0)  -->
<svg version="1.0" id="border_-_copie_2" xmlns="http://www.w3.org/2000/svg" xmlns:xlink="http://www.w3.org/1999/xlink" x="0px" y="0px" width="300px" height="260px"
	  viewBox="0 0 300 260" style="enable-background:new 0 0 300 260;" xml:space="preserve">
<style type="text/css">
	.st0{fill:#EC2227;}
</style>
<g id="Calque_4">
	<path id="XMLID_3_" class="st0" d="M150,99.7L150,99.7c-5,0-9-4-9-9v-39c0-5,4-9,9-9h0c5,0,9,4,9,9v39C159,95.6,155,99.7,150,99.7z
		"/>
	<path id="XMLID_5_" class="st0" d="M176.2,145.2L176.2,145.2c2.5-4.3,8-5.8,12.3-3.3l33.7,19.6c4.3,2.5,5.8,8,3.3,12.3v0
		c-2.5,4.3-8,5.8-12.3,3.3l-33.7-19.6C175.2,155,173.7,149.5,176.2,145.2z"/>
	<path id="XMLID_4_" class="st0" d="M124.3,146.1L124.3,146.1c2.6,4.2,1.4,9.8-2.8,12.4l-33.1,20.7c-4.2,2.6-9.8,1.4-12.4-2.8l0,0
		c-2.6-4.2-1.4-9.8,2.8-12.4l33.1-20.7C116.1,140.6,121.7,141.9,124.3,146.1z"/>
</g>
</svg>
