<?xml version="1.0" encoding="utf-8"?>
<!-- Generator: Adobe Illustrator 19.0.0, SVG Export Plug-In . SVG Version: 6.00 Build 0)  -->
<svg version="1.0" id="border_-_copie_2" xmlns="http://www.w3.org/2000/svg" xmlns:xlink="http://www.w3.org/1999/xlink" x="0px" y="0px" width="300px" height="260px"
	  viewBox="0 0 300 260" style="enable-background:new 0 0 300 260;" xml:space="preserve">
<style type="text/css">
	.st0{fill:none;stroke:#F9F31C;stroke-width:8;stroke-miterlimit:10;}
	.st1{fill:#F9F31C;}
</style>
<g id="圖層_23_4_">
	<g id="XMLID_143_">
		<path id="XMLID_147_" class="st0" d="M204.4,245l-109-0.2c-8.5,0-16.4-4.5-20.6-11.6l-54.4-91.7c-4.2-7.2-4.2-16,0-23.2l54.6-91.7
			C79.2,19.4,87.1,15,95.6,15l109,0.2c8.5,0,16.4,4.5,20.6,11.6l54.4,91.7c4.2,7.2,4.2,16,0,23.2l-54.6,91.7
			C220.8,240.5,212.9,245,204.4,245z"/>
	</g>
</g>
<g id="Calque_4">
	<path id="XMLID_11_" class="st1" d="M150,108.7c-11.8,0-21.3,9.6-21.3,21.3c0,11.8,9.6,21.3,21.3,21.3s21.3-9.6,21.3-21.3
		C171.3,118.2,161.8,108.7,150,108.7z M150,139c-5,0-9-4-9-9c0-5,4-9,9-9s9,4,9,9C159,135,155,139,150,139z"/>
</g>
</svg>
