<svg xmlns="http://www.w3.org/2000/svg" viewBox="0 0 300 300" style="enable-background:new 0 0 300 300" xml:space="preserve"><style>.st0,.st3{display:none}.st3{fill:#98c33f}.st6{opacity:.25;fill:#353535}.st7{fill:#141414}.st9{opacity:.1;fill:#020304}.st14,.st15{display:none;fill:#c7c6c6}.st15{fill:#ddd}.st18{display:inline;opacity:.25;fill:#141414}.st19{fill:#661718}.st33{fill:#310f0f}</style><g id="Calque_1_-_copie"><path id="XMLID_15_" class="st6" d="m46.6 229.1 19.1-21.3c1-1.2 2.5-1.9 4.1-2.1l61.8-5.9c.8-.1 1.6 0 2.4.2l54.1 16.7c2.6.8 4.4 3.3 4.4 6l-.2 25.2c0 3.1-2.3 5.7-5.4 6.1L105 265.5c-1.2.2-2.5 0-3.6-.6l-52.8-26c-3.8-1.8-4.7-6.7-2-9.8z"/><g id="bottom"><g id="Calque_1_-_copie_2"><path id="XMLID_17_" class="st7" d="M230.2 179.2v-2.1c0-.4 0-.8-.1-1.2l.1-13.7c0-2.8-1.8-5.2-4.4-6l-54.4-16.8c-.8-.2-1.6-.3-2.4-.3l-62.1 5.9c-1.6.1-3 .9-4.1 2.1l-19.2 21.4c-1.1 1.2-1.6 2.7-1.6 4.2V225c0 3.1-.2 8.3 3.5 10.2l53 26.1c1.1.6 2.4.8 3.6.6l82.4-11.4c3.1-.4 5.4-3 5.4-6.2l.2-65c.1 0 .1 0 .1-.1z"/></g><radialGradient id="XMLID_22_" cx="156.174" cy="208.757" r="61.054" gradientUnits="userSpaceOnUse"><stop offset="0" style="stop-color:#d6d5d5"/><stop offset=".321" style="stop-color:#d5d3d2"/><stop offset=".542" style="stop-color:#cccaca"/><stop offset=".732" style="stop-color:#bebdbc"/><stop offset=".903" style="stop-color:#acaaab"/><stop offset="1" style="stop-color:#a09e9e"/></radialGradient><path id="XMLID_76_" d="M85.9 223.9v-47.5l19.7-10.2c1-1.1 2.4-1.8 3.9-2l58.9-5.6c.8-.1 1.6 0 2.3.2l51.6 15.9c2.5.8 4.2 3.1 4.2 5.7l-.2 61.7c0 3-2.2 5.4-5.1 5.8l-78.2 11c-1.2.2-2.4 0-3.4-.6l-50.3-24.8c-3.6-1.7-3.4-6.7-3.4-9.6z" style="fill:url(#XMLID_22_)"/><path id="XMLID_19_" class="st9" d="M85.9 223.9v1.3c0 2.9.3 6.8 3.3 8.3l50.3 24.8c.4.2.7.3 1.1.4v-49.9l-54.7-26.5v41.6z"/><linearGradient id="XMLID_23_" gradientUnits="userSpaceOnUse" x1="95.597" y1="-16241.429" x2="215.422" y2="-16241.429" gradientTransform="matrix(1 0 0 -1 0 -16082)"><stop offset="0" style="stop-color:#cecdcd;stop-opacity:0"/><stop offset=".139" style="stop-color:#cdcbcb;stop-opacity:.3627"/><stop offset=".195" style="stop-color:#c7c6c6;stop-opacity:.5062"/><stop offset=".235" style="stop-color:#bebdbd;stop-opacity:.611"/><stop offset=".268" style="stop-color:#b1b0b0;stop-opacity:.6969"/><stop offset=".296" style="stop-color:#a1a0a0;stop-opacity:.7712"/><stop offset=".322" style="stop-color:#8c8c8c;stop-opacity:.8375"/><stop offset=".345" style="stop-color:#737373;stop-opacity:.898"/><stop offset=".366" style="stop-color:#585958;stop-opacity:.952"/><stop offset=".384" style="stop-color:#3a3a39"/><stop offset=".414" style="stop-color:#575857;stop-opacity:.9508"/><stop offset=".451" style="stop-color:#747474;stop-opacity:.8912"/><stop offset=".492" style="stop-color:#8e8e8e;stop-opacity:.8252"/><stop offset=".536" style="stop-color:#a5a4a4;stop-opacity:.7533"/><stop offset=".585" style="stop-color:#b7b6b6;stop-opacity:.6734"/><stop offset=".641" style="stop-color:#c5c4c4;stop-opacity:.5823"/><stop offset=".709" style="stop-color:#cfcece;stop-opacity:.4733"/><stop offset=".798" style="stop-color:#d5d4d4;stop-opacity:.3282"/><stop offset="1" style="stop-color:#d6d5d5;stop-opacity:0"/></linearGradient><path id="XMLID_77_" d="M85.9 187.5v-9.8l19.7-10.2c1-1.1 2.4-1.8 3.9-2l58.9-5.6c.8-.1 1.6 0 2.3.2l51.6 15.9c2.5.8 4.2 3.1 4.2 5.7l-.1 29.1s-3.6.5-5.2.7l-78.2 11c-1.2.2-2.4 0-3.4-.6L86 197.2c-.1.1-.1-7.8-.1-9.7z" style="opacity:.33;fill:#2d0e0f"/><g id="Calque_19_-_copie"><path id="XMLID_139_" class="st7" d="M235.8 160.8c0-2.8-1.9-5.3-4.7-6.1l-58.3-17c-.8-.2-1.7-.3-2.6-.3l-66.6 6c-1.7.2-3.2.9-4.4 2.1l-20.6 21.8c-.8.9-1.3 1.9-1.6 2.9l-.2.1v18.9s2.4 1.3 3.8 1.9l56.9 26.5c1.2.6 2.6.8 3.9.6l88.4-11.6c1.9-.2 5.9-.8 5.9-.8l.1-31.1c0-.4 0-.8-.1-1.2l.1-12.7z"/></g><g id="Calque_19"><radialGradient id="XMLID_26_" cx="156.129" cy="-16266.206" r="54.403" gradientTransform="matrix(1.0723 0 0 -1 -11.248 -16082)" gradientUnits="userSpaceOnUse"><stop offset="0" style="stop-color:#eb5758"/><stop offset="1" style="stop-color:#951917"/></radialGradient><path id="XMLID_57_" d="M80.8 180.5v-9.8l21.1-10.2c1.1-1.1 2.6-1.8 4.2-2l63.1-5.6c.8-.1 1.7 0 2.5.2L227 169c2.7.8 4.5 3.1 4.5 5.7l-.1 29.1s-3.8.5-5.6.7l-83.8 11c-1.3.2-2.6 0-3.7-.6l-53.9-24.8c-1.3-.6-3.6-1.8-3.6-1.8v-7.8z" style="fill:url(#XMLID_26_)"/><radialGradient id="XMLID_32_" cx="156.13" cy="-16253.303" r="54.402" gradientTransform="matrix(1.0723 0 0 -1 -11.248 -16082)" gradientUnits="userSpaceOnUse"><stop offset="0" style="stop-color:#eb5758"/><stop offset="1" style="stop-color:#951917"/></radialGradient><path id="XMLID_40_" d="m82.4 167.9 19.5-20.3c1.1-1.1 2.6-1.8 4.2-2l63.1-5.6c.8-.1 1.7 0 2.5.2l55.3 15.9c2.7.8 4.5 3.1 4.5 5.7l-.2 24c0 3-2.4 5.4-5.5 5.8l-83.8 11c-1.3.2-2.6 0-3.7-.6l-53.9-24.8c-3.8-1.7-4.8-6.4-2-9.3z" style="fill:url(#XMLID_32_)"/></g><path id="XMLID_4_" class="st7" d="m102 173.1 18.1-20.3 45.3-4.2 41.3 12.7-.2 24.3-61.7 8.6z"/><g id="Calque_21"><path id="XMLID_126_" class="st19" d="M109.2 200.6v-11.9l11.1-5.1 1.3.6-11.2 5.2-.1 11.8z"/><path id="XMLID_125_" class="st19" d="M117.2 204.1v-11.8l11-5.2 1.3.6-11.2 5.2-.1 11.8z"/><path id="XMLID_124_" class="st19" d="M166.3 210.9v-11.5l-11.1-5.5-1.2.5 11.1 5.2.2 11.4z"/><path id="XMLID_123_" class="st19" d="M177.4 209.1v-11.5l-11.2-5.5-1.1.5 11.1 5.2.1 11.4z"/><path id="XMLID_122_" class="st19" d="M190.4 208.2v-11.4l-11.1-5.6-1.2.6 11.1 5.2.2 11.3z"/><path id="XMLID_121_" class="st19" d="M201.5 206v-11.5l-11.2-5.5-1.1.5 11.1 5.2.1 11.4z"/><path id="XMLID_120_" class="st19" d="M212.8 204.3v-11.4l-11.2-5.5-1.1.5 11.1 5.2.1 11.3z"/><path id="XMLID_119_" class="st19" d="M101.5 197v-11.9l11-5.2 1.3.7-11.2 5.1-.1 11.8z"/><path id="XMLID_118_" class="st19" d="M93 193v-11.9l11.1-5.2 1.2.6-11.1 5.2-.1 11.8z"/><path id="XMLID_117_" class="st19" d="m86.3 163.9 11.5 4.7-.7.9-11.7-4.6z"/><path id="XMLID_116_" class="st19" d="m217.1 182.2 14.4.5v1.3l-14.4-.4z"/><path id="XMLID_115_" class="st19" d="m217.1 176.1 14.4.4v1.4l-14.4-.4z"/><path id="XMLID_114_" class="st19" d="m217.1 169.1 14.4.5v1.3l-14.4-.4z"/><path id="XMLID_113_" class="st19" d="m217.1 162.9 14.4.5v1.3l-14.4-.4z"/><path id="XMLID_112_" class="st19" d="m205.7 156.6 3.7-5.6 1.3.5-3.6 5.5z"/><path id="XMLID_111_" class="st19" d="m197.3 154.1 3.7-5.5 1.3.4-3.8 5.8z"/><path id="XMLID_110_" class="st19" d="m91 158.9 11.5 4.7-.7.9-11.7-4.6z"/><path id="XMLID_109_" class="st19" d="m95.8 154 11.5 4.7-.6 1-11.8-4.8z"/><path id="XMLID_108_" class="st19" d="m100.1 149.2 11.5 4.7-.7.9-11.7-4.6z"/></g></g><path id="XMLID_13_" class="st6" d="m95.8 175.8 10.2-11.4c.6-.6 1.3-1 2.2-1.1l33.1-3.1c.4 0 .9 0 1.3.1l29 8.9c1.4.4 2.4 1.7 2.4 3.2l-.1 13.5c0 1.7-1.2 3.1-2.9 3.3l-43.9 6.1c-.7.1-1.3 0-1.9-.3L97 181.1c-2.2-1-2.7-3.6-1.2-5.3z"/><g id="top"><g id="Calque_1_-_copie_4"><path id="XMLID_93_" class="st7" d="M202.3 142.4v-1.2c0-.2 0-.5-.1-.7l.1-8.2c0-1.7-1.1-3.1-2.6-3.6l-32.5-10c-.5-.1-1-.2-1.5-.2l-37.1 3.5c-.9.1-1.8.5-2.4 1.2L114.7 136c-.7.7-1 1.6-1 2.5v31.3c0 1.8-.1 5 2.1 6.1l31.7 15.6c.7.3 1.4.5 2.2.4l49.3-6.8c1.8-.3 3.2-1.8 3.2-3.7l.1-38.9v-.1z"/></g><radialGradient id="XMLID_35_" cx="157.993" cy="-16242.094" r="36.431" gradientTransform="matrix(1 0 0 -1 0 -16082)" gradientUnits="userSpaceOnUse"><stop offset="0" style="stop-color:#d6d5d5"/><stop offset=".321" style="stop-color:#d5d3d2"/><stop offset=".542" style="stop-color:#cccaca"/><stop offset=".732" style="stop-color:#bebdbc"/><stop offset=".903" style="stop-color:#acaaab"/><stop offset="1" style="stop-color:#a09e9e"/></radialGradient><path id="XMLID_73_" d="M116.1 169.1v-28.3l11.8-6.1c.6-.7 1.4-1.1 2.3-1.2l35.1-3.3c.5 0 .9 0 1.4.1l30.8 9.5c1.5.5 2.5 1.9 2.5 3.4l-.1 36.8c0 1.8-1.3 3.2-3.1 3.5l-46.6 6.5c-.7.1-1.4 0-2.1-.3l-30-14.8c-2.2-1.1-2-4-2-5.8z" style="fill:url(#XMLID_35_)"/><linearGradient id="XMLID_45_" gradientUnits="userSpaceOnUse" x1="116.057" y1="-16242.094" x2="199.929" y2="-16242.094" gradientTransform="matrix(1 0 0 -1 0 -16082)"><stop offset="0" style="stop-color:#cecdcd;stop-opacity:0"/><stop offset=".139" style="stop-color:#cdcbcb;stop-opacity:.3627"/><stop offset=".195" style="stop-color:#c7c6c6;stop-opacity:.5062"/><stop offset=".235" style="stop-color:#bebdbd;stop-opacity:.611"/><stop offset=".268" style="stop-color:#b1b0b0;stop-opacity:.6969"/><stop offset=".296" style="stop-color:#a1a0a0;stop-opacity:.7712"/><stop offset=".322" style="stop-color:#8c8c8c;stop-opacity:.8375"/><stop offset=".345" style="stop-color:#737373;stop-opacity:.898"/><stop offset=".366" style="stop-color:#585958;stop-opacity:.952"/><stop offset=".384" style="stop-color:#3a3a39"/><stop offset=".414" style="stop-color:#575857;stop-opacity:.9508"/><stop offset=".451" style="stop-color:#747474;stop-opacity:.8912"/><stop offset=".492" style="stop-color:#8e8e8e;stop-opacity:.8252"/><stop offset=".536" style="stop-color:#a5a4a4;stop-opacity:.7533"/><stop offset=".585" style="stop-color:#b7b6b6;stop-opacity:.6734"/><stop offset=".641" style="stop-color:#c5c4c4;stop-opacity:.5823"/><stop offset=".709" style="stop-color:#cfcece;stop-opacity:.4733"/><stop offset=".798" style="stop-color:#d5d4d4;stop-opacity:.3282"/><stop offset="1" style="stop-color:#d6d5d5;stop-opacity:0"/></linearGradient><path id="XMLID_71_" d="M116.1 146v-5.8l11.8-6.1c.6-.7 1.4-1.1 2.3-1.2l35.1-3.3c.5 0 .9 0 1.4.1l30.8 9.5c1.5.5 2.5 1.9 2.5 3.4l-.1 17.4s-2.1.3-3.1.4l-46.6 6.5c-.7.1-1.4 0-2.1-.3l-30-14.8c-.7-.4-2-1.1-2-1.1V146z" style="fill:#581213"/><g id="Calque_23"><path id="XMLID_37_" class="st9" d="M116 169.3v.7c0 1.7.2 3.9 1.9 4.8l29 14.3c.2.1.4.2.6.2v-28.8L116 145.2v24.1z"/><path id="XMLID_36_" class="st7" d="M204.3 132.6c0-1.7-1.1-3.3-2.8-3.8l-34-10.5c-.5-.2-1-.2-1.5-.2l-38.8 3.7c-1 .1-1.9.6-2.6 1.3l-12 13.4c-.5.5-.8 1.2-.9 1.8l-.1.1V150s1.4.8 2.2 1.2l33.1 16.3c.7.3 1.5.5 2.3.4l51.5-7.1c1.1-.2 3.5-.5 3.5-.5l.1-19.2c0-.2 0-.5-.1-.7l.1-7.8z"/></g><g id="Calque_23_-_copie"><radialGradient id="XMLID_47_" cx="157.993" cy="-16228.845" r="32.462" gradientTransform="matrix(1 0 0 -1 0 -16082)" gradientUnits="userSpaceOnUse"><stop offset="0" style="stop-color:#eb5758"/><stop offset="1" style="stop-color:#951917"/></radialGradient><path id="XMLID_88_" d="M116.1 144.6v-5.8l11.8-6.1c.6-.7 1.4-1.1 2.3-1.2l35.1-3.3c.5 0 .9 0 1.4.1l30.8 9.5c1.5.5 2.5 1.9 2.5 3.4l-.1 17.4s-2.1.3-3.1.4l-46.6 6.5c-.7.1-1.4 0-2.1-.3l-30-14.8c-.7-.4-2-1.1-2-1.1v-4.7z" style="fill:url(#XMLID_47_)"/><radialGradient id="XMLID_48_" cx="157.993" cy="-16221.145" r="32.462" gradientTransform="matrix(1 0 0 -1 0 -16082)" gradientUnits="userSpaceOnUse"><stop offset="0" style="stop-color:#eb5758"/><stop offset="1" style="stop-color:#951917"/></radialGradient><path id="XMLID_87_" d="m117 137.1 10.9-12.1c.6-.7 1.4-1.1 2.3-1.2l35.1-3.3c.5 0 .9 0 1.4.1l30.8 9.5c1.5.5 2.5 1.9 2.5 3.4l-.1 14.3c0 1.8-1.3 3.2-3.1 3.5l-46.6 6.5c-.7.1-1.4 0-2.1-.3l-30-14.8c-2.2-1.1-2.7-3.8-1.1-5.6z" style="fill:url(#XMLID_48_)"/></g><path id="XMLID_70_" d="m130.2 135.1 4.9-5.5c.9-1 2.1-1.6 3.4-1.7l24-2.3c.7-.1 1.4 0 2 .2l20 6.2c2.2.7 3.7 2.7 3.6 5l-.1 6.2c0 2.6-1.9 4.7-4.4 5.1l-30.8 4.3c-1 .1-2.1 0-3-.5l-18-8.9c-3.1-1.5-3.9-5.5-1.6-8.1z" style="opacity:.25;fill:#efefef"/><g id="Calque_24"><path id="XMLID_5_" class="st19" d="M197.9 143.5c-.7 1-2 1.5-3.2 1.2L129 129.6l.7-.4c.7-.4 1.5-.6 2.3-.4l65.9 14.7z"/><path id="XMLID_11_" class="st19" d="M191.6 131.3c.6-.1 1.2.1 1.6.4l1.2.9-67.5 7.7c-1 .1-2-.5-2.4-1.4l67.1-7.6z"/><path id="XMLID_16_" class="st19" d="M171.9 124.1c1 .2 1.4 1.5.6 2.2l-28.3 24.6c-.3.3-.8.4-1.2.3l-.8-.2c-1-.3-1.2-1.5-.4-2.2l29.1-24.3c.3-.4.7-.5 1-.4z"/><path id="XMLID_8_" class="st19" d="m174.8 153.5-1.2.1c-.4.1-.8-.1-1.1-.4l-23.7-27.8c-.7-.8-.2-2 .8-2.1.4 0 .8.1 1.1.4l24.9 27.6c.7.9.2 2.1-.8 2.2z"/></g></g><g id="door"><path id="XMLID_44_" class="st6" d="m175.2 260.8-10.2 1.7c-2.8.4-5.2-.5-5.8-2.2-.5-1.5 3.4-13.3 4.5-15.3l.3 2.8c1.1 1.1 2.5 5.8 4.4 7.2l6.1 4.6c1.1.8 9.2-.7 9 0-.1-.1-6.8 1-8.3 1.2z"/><g id="Calque_6_-_copie"><path id="XMLID_49_" class="st7" d="m208.3 244-13.1-18.3c-.5-.7-1.2-1.4-1.9-1.9l-.2-.1c-.2-.1-.4-.3-.7-.4l-3.1-1.9c-6.2-4.2-11.2-4.4-14 1L164 244.1c-3.1 5.9 6.7 17.3 13.3 16.4.3 0 .7 0 1-.1l24.3-3.4c6.2-.9 9.3-7.9 5.7-13z"/></g><radialGradient id="XMLID_50_" cx="183.883" cy="239.384" r="19.186" gradientUnits="userSpaceOnUse"><stop offset="0" style="stop-color:#eb5758"/><stop offset="1" style="stop-color:#951917"/></radialGradient><path id="XMLID_43_" d="m165.6 243.7 10.4-20.1c2.6-5.1 7.2-4.9 13-.9l3.7 2.3 8.4 14.7c3.4 4.7.5 11.3-5.2 12l-18.1 7.2c-6 .9-15-9.7-12.2-15.2z" style="fill:url(#XMLID_50_)"/><path id="XMLID_42_" class="st7" d="m170 248.1 11-21.3c2.8-5.4 10.3-5.9 13.8-1l12.9 18c3.6 5 .6 12-5.5 12.8l-24 3.3c-6.4.9-11.2-5.9-8.2-11.8z"/><path id="XMLID_41_" d="m172.1 247.4 9.8-18.9c2.5-4.8 9.1-5.3 12.3-.9l11.5 16c3.2 4.4.5 10.6-4.9 11.4l-21.3 2.9c-5.8.8-10.1-5.3-7.4-10.5z" style="fill:#d8d8d8"/><path id="XMLID_39_" class="st7" d="m178.1 251.3 7.3-14.2c1.9-3.6 6.8-3.9 9.2-.7l8.6 12c2.4 3.3.4 8-3.6 8.5l-15.9 2.2c-4.4.6-7.6-4-5.6-7.8z"/><radialGradient id="XMLID_51_" cx="190.917" cy="247.239" r="11.141" gradientUnits="userSpaceOnUse"><stop offset="0" style="stop-color:#d6d5d5"/><stop offset=".321" style="stop-color:#d5d3d2"/><stop offset=".542" style="stop-color:#cccaca"/><stop offset=".732" style="stop-color:#bebdbc"/><stop offset=".903" style="stop-color:#acaaab"/><stop offset="1" style="stop-color:#a09e9e"/></radialGradient><path id="XMLID_38_" d="m179.9 251.2 6.3-12.2c1.6-3.1 5.9-3.4 7.9-.6l7.4 10.3c2 2.8.3 6.8-3.1 7.3l-13.7 1.9c-3.7.6-6.5-3.4-4.8-6.7z" style="fill:url(#XMLID_51_)"/><g id="Calque_9"><path id="XMLID_61_" d="M196 247.2c.8 2.4-.4 5.3-3.1 6.4-3.3 1.3-6.9-.6-7.3-4.1-.3-3.1 2.2-5.6 5.1-5.8 2.4-.3 4.7 1.3 5.3 3.5z" style="fill:#222223"/><radialGradient id="XMLID_52_" cx="191.14" cy="248.556" r="3.928" gradientUnits="userSpaceOnUse"><stop offset="0" style="stop-color:#d6d5d5"/><stop offset=".321" style="stop-color:#d5d3d2"/><stop offset=".542" style="stop-color:#cccaca"/><stop offset=".732" style="stop-color:#bebdbc"/><stop offset=".903" style="stop-color:#acaaab"/><stop offset="1" style="stop-color:#a09e9e"/></radialGradient><path id="XMLID_60_" d="M195 247.4c.6 1.8-.4 4-2.5 4.7-2.4.9-5-.5-5.3-3.1-.3-2.3 1.5-4.2 3.7-4.4 1.8-.1 3.6 1.1 4.1 2.8z" style="fill:url(#XMLID_52_)"/></g></g><g id="Calque_22"><path id="XMLID_34_" class="st33" d="M161 137.3h-2.3c-1.1 0-2-.7-2-1.5v-64c0-.2-.1-1.6.1-1.8.6-.4 2-.8 2.8-.8 0 0 2.9.2 2.9 1.1l.4 65.6c.1.8-.8 1.4-1.9 1.4z"/><path id="XMLID_33_" d="M159.8 135.1c-.9 0-1.7-.7-1.7-1.5V69.1c0-.6.7-.7 1.7-.7 0 0 1.7 0 1.7.6v64.6c0 .9-.7 1.5-1.7 1.5z" style="fill:#ddd"/><path id="XMLID_30_" class="st33" d="m159.6 26.4-16-1.3c-2.5-.2-4.6 2-4.2 4.5 2 14.2 7.7 51.2 8.7 53.7l8.1 20.4c.6 1.6 2.1 8.5 3.4 8.4 1.3 0 2.6-6.8 3.3-8.4l8.1-20.4c1-2.4 7-39.4 9.1-53.6.4-2.5-1.7-4.7-4.2-4.5l-15.7 1.3c-.1-.1-.3-.1-.6-.1z"/><path id="XMLID_29_" d="M159.8 26.4 143.9 25s6.3 50.8 7.2 53l6.1 15.2c.5 1.2 1.6 6.3 2.6 6.3s2-5.1 2.4-6.3l6.1-15.2c.9-2.2 7.2-53 7.2-53l-15.7 1.4z" style="fill:#b2302f"/><radialGradient id="XMLID_53_" cx="159.697" cy="57.044" r="24.26" gradientUnits="userSpaceOnUse"><stop offset="0" style="stop-color:#eb5758"/><stop offset="1" style="stop-color:#951917"/></radialGradient><path id="XMLID_28_" d="m159.8 26.6-13.5-1.1s5.3 43 6.1 45l5.2 12.9c.4 1 1.4 5.4 2.2 5.3.8 0 1.7-4.3 2.1-5.3l5.2-12.9c.7-1.9 6.1-45 6.1-45l-13.4 1.1z" style="fill:url(#XMLID_53_)"/><g id="Calque_6_1_"><path id="XMLID_27_" d="m159.8 39.6-26.7-6.1 8.8 7.7s6.9 4.3 10.4 6.2c4.5 2.3 7.6 11.9 7.6 11.9s2.7-9.4 7.2-11.7c3.5-1.9 10.6-6.4 10.6-6.4l8.8-7.4-26.7 5.8z" style="fill:#3c1112"/><radialGradient id="XMLID_54_" cx="159.65" cy="46.421" r="17.635" gradientUnits="userSpaceOnUse"><stop offset="0" style="stop-color:#d6d5d5"/><stop offset=".321" style="stop-color:#d5d3d2"/><stop offset=".542" style="stop-color:#cccaca"/><stop offset=".732" style="stop-color:#bebdbc"/><stop offset=".903" style="stop-color:#acaaab"/><stop offset="1" style="stop-color:#a09e9e"/></radialGradient><path id="XMLID_25_" d="m159.8 41.5-22.7-5.7 11.6 7.3s4.8 2.5 7 3.6c2.8 1.4 4.2 10.3 4.2 10.3s1.3-8.9 4.1-10.3c2.2-1.1 7-3.6 7-3.6l11.3-7.1-22.5 5.5z" style="fill:url(#XMLID_54_)"/><path id="XMLID_24_" d="m159.8 44.3-8.5-2.8 4.5 2.8s1.7.9 2.5 1.3c1 .5 1.4 6.7 1.4 6.7s.5-6.1 1.4-6.7c.8-.4 2.5-1.3 2.5-1.3l4.5-2.8-8.3 2.8z" style="fill:#cfcece"/></g></g></g></svg>