<?xml version="1.0" encoding="utf-8"?>
<!-- Generator: Adobe Illustrator 19.0.0, SVG Export Plug-In . SVG Version: 6.00 Build 0)  -->
<svg version="1.0" xmlns="http://www.w3.org/2000/svg" xmlns:xlink="http://www.w3.org/1999/xlink" x="0px" y="0px" width="300px" height="260px"
	 viewBox="0 0 300 260" style="enable-background:new 0 0 300 260;" xml:space="preserve">
<style type="text/css">
	.st0{display:none;}
	.st1{display:inline;fill:#009444;}
	.st2{display:inline;}
	.st3{fill:none;stroke:#333333;stroke-width:7;stroke-miterlimit:10;}
	.st4{display:inline;fill:#CBB577;}
	.st5{display:inline;fill:#E0E0E0;stroke:#000000;stroke-width:2;stroke-miterlimit:10;}
	.st6{display:inline;fill:#C6C6C5;}
	.st7{display:inline;fill:#E0E0E0;}
	.st8{display:inline;fill:#515250;}
	.st9{display:inline;fill:#262626;}
	.st10{fill:#FBF7CB;}
	.st11{fill:#F3EAB1;}
	.st12{fill:url(#XMLID_21_);}
	.st13{fill:#F47621;}
	.st14{fill:#EFA624;}
	.st15{fill:#FFF48B;}
	.st16{fill:#E0C17D;}
	.st17{fill:#CBB577;}
	.st18{fill:#FFFAD9;}
	.st19{fill:#F7F0D0;}
	.st20{fill:#FFFADA;}
</style>
<g id="圖層_2" class="st0">
	<rect id="XMLID_1_" class="st1" width="300" height="260"/>
</g>
<g id="ceil" class="st0">
	<g id="圖層_23_2_" class="st2">
		<g id="XMLID_118_">
			<path id="XMLID_10_" class="st3" d="M210.1,257.2L89.6,257c-9.4,0-18.2-4.9-22.8-12.8L6.6,142.8c-4.7-8-4.7-17.7,0-25.7
				L66.9,15.6c4.8-8,13.5-12.8,22.9-12.8L210.4,3c9.4,0,18.2,4.9,22.8,12.8l60.2,101.4c4.7,8,4.7,17.7,0,25.7l-60.4,101.4
				C228.3,252.3,219.6,257.2,210.1,257.2z"/>
		</g>
	</g>
</g>
<g id="Calque_53" class="st0">
	<path id="XMLID_15_" class="st4" d="M136.9,160c0,0,18.5,3.2,29.2,0l-3.9-17.2c0,0,17.6,1.3,15.5-20.5s-14.5-18.3-25.7-18.6
		c-17.4-0.5-30.7,4.4-30.7,16.1c0,4.6,0,11.6,2.2,14.5c5,6.6,16.3,8.8,16.3,8.8L136.9,160z"/>
	<path id="XMLID_44_" class="st5" d="M136.9,160c0,0,18.5,3.2,29.2,0l-3.9-17.2c0,0,17.6,1.3,15.5-20.5s-14.5-18.3-25.7-18.6
		c-17.4-0.5-30.7,4.4-30.7,16.1c0,4.6,0,11.6,2.2,14.5c5,6.6,16.3,8.8,16.3,8.8L136.9,160z"/>
	<path id="XMLID_51_" class="st6" d="M136.9,160c0,0,18.5,3.2,29.2,0l-3.9-17.2c0,0,17.6,1.3,15.5-20.5s-14.5-18.3-25.7-18.6
		c-17.4-0.5-30.7,4.4-30.7,16.1c0,4.6,0,11.6,2.2,14.5c5,6.6,16.3,8.8,16.3,8.8l-1.6,9.2L136.9,160z"/>
	<path id="XMLID_55_" class="st7" d="M137.7,160.1c0,0,17.5,3,26.7,0.3l-4-19.4c0,0,16.9-0.5,15.2-19.1c-1.8-18.6-14.4-14.7-24-15
		c-14.8-0.4-28.7,3.6-28.7,13.5c0,3.9,1.8,11.2,3.7,13.7c4.3,5.6,15.3,7.5,15.3,7.5l-2.1,9L137.7,160.1z"/>
	<polygon id="XMLID_54_" class="st2" points="143.8,152.2 144.5,148 144.9,152.2 152.1,152.2 152.1,147.5 153.1,152.2 158.5,152.2 
		159.3,147.1 159.9,151.8 164.3,151.8 164.5,152.7 159.9,152.7 159.3,156.8 158.8,152.8 153.2,152.9 152.6,156.8 152.4,153.1 
		145.2,152.9 144.2,156.8 144.1,152.8 138.1,152.8 138.3,152.2 	"/>
	<path id="XMLID_80_" class="st2" d="M148.7,134.1c0.3,0.3,0.9,0.3,1.1-0.1c0.3-0.4,0.5-1,0.4-1.7c-0.1-1.6-2.5-1.1-2.5-1.1
		s-0.2,0.7,0,2C147.8,133.5,148.4,133.8,148.7,134.1z"/>
	<path id="XMLID_81_" class="st2" d="M153.7,134.1c-0.3,0.3-0.9,0.3-1.1-0.1c-0.3-0.4-0.5-1-0.4-1.7c0.1-1.6,2.5-1.1,2.5-1.1
		s0.2,0.7,0,2C154.5,133.5,154,133.8,153.7,134.1z"/>
	<ellipse id="XMLID_75_" class="st2" cx="139.1" cy="122.4" rx="6.2" ry="6.6"/>
	<ellipse id="XMLID_143_" class="st2" cx="163.8" cy="122.4" rx="6.2" ry="6.6"/>
	<path id="XMLID_146_" class="st8" d="M163.6,116.1c-1.6,0-3,0.7-4,1.7c0.8-0.5,1.8-0.7,2.7-0.7c3.3,0,5.9,2.9,5.9,6.5
		c0,1.9-0.7,3.6-1.9,4.7c1.9-1.1,3.2-3.2,3.2-5.7C169.5,119,166.9,116.1,163.6,116.1z"/>
	<path id="XMLID_82_" class="st8" d="M138.9,116.1c1.5,0,2.9,0.6,3.9,1.7c-0.8-0.5-1.7-0.7-2.7-0.7c-3.2,0-5.8,2.8-5.8,6.3
		c0,1.8,0.7,3.4,1.9,4.6c-1.9-1-3.1-3.1-3.1-5.5C133.1,118.9,135.7,116.1,138.9,116.1z"/>
	<path id="XMLID_145_" class="st9" d="M153.2,134.2c0,0-0.9-0.4-0.8-0.9s0.8-0.2,0.8-0.2S154.1,133.8,153.2,134.2z"/>
	<path id="XMLID_147_" class="st9" d="M149.1,134c0,0,0.9-0.4,0.8-0.9s-0.8-0.2-0.8-0.2S148.2,133.6,149.1,134z"/>
</g>
<g id="fireDust" class="st0">
	<g id="subBase" class="st2">
		<path id="XMLID_89_" class="st10" d="M82.8,196.3c0,0-30.9-3.3-37.3-40.9c-1.5-11.2,10.8-30.2,17.2-30.2c0,0-6.5-4.4-5.4-12.2
			c1.1-7.9,6.5-12,10.9-12c0,0-16.7-13.3-5.5-22.5s32.5-5.2,29.5,9.6c0,0,3.9-7.9,18.1-8.1c0,0-18.5-3.1-12-20.3
			c6.5-17.2,35.8-12.4,35.8-12.4s5.9-16.6,21.4-15.5c11.1,0.9,13.3,10.9,13.3,10.9s10.9-2.4,11.1,6.1c0,0,13.4-5.7,22-2.2
			c8.6,3.5,13.6,20.5,13.6,20.5s21.8-10.5,27,20.3c5.2,30.7,5.5,49.7-7,51.5c0,0,7.9,11.1-9.2,16.4c0,0,22.7,18.9,10,38.5
			s-21.6,22.7-37.3,13.1c0,0-0.4,4.5-7.6,3.6c-7.2-0.9-7.5-6-7.5-6s0.1,4.2-6,4.2s-7.9-5-7.9-5s-0.1,4.7-4,6.5
			c-3.9,1.9-8.2,1.6-8.2,1.6s-6.4,15.6-23.7,16.2c-17.2,0.7-26-17.8-26-17.8s-5,3.1-16.4-2.1C80.5,203.2,82.8,196.3,82.8,196.3z"/>
	</g>
	<g id="subBaseEffect" class="st2">
		<path id="XMLID_218_" class="st11" d="M87,191.9c0,0-28.9-3.1-34.8-38.2c-1.4-10.5,10.1-28.2,16-28.2c0,0-6.1-4.1-5-11.4
			c1-7.3,6.1-11.2,10.2-11.2c0,0-15.6-12.4-5.1-21s30.4-4.9,27.5,9c0,0,3.7-7.3,16.9-7.5c0,0-17.3-2.8-11.2-18.9
			c6.1-16.1,33.4-11.6,33.4-11.6s5.5-15.5,19.9-14.5c10.4,0.8,12.4,10.2,12.4,10.2s10.2-2.2,10.4,5.7c0,0,12.5-5.3,20.5-2
			s12.7,19.1,12.7,19.1s20.4-9.8,25.2,18.9s5.1,46.4-6.5,48c0,0,7.3,10.3-8.5,15.3c0,0,21.2,17.6,9.4,36
			c-11.8,18.3-20.2,21.2-34.8,12.2c0,0-0.4,4.2-7.1,3.4c-6.7-0.8-7-5.6-7-5.6s0.1,3.9-5.6,3.9c-5.8,0-7.3-4.7-7.3-4.7
			s-0.1,4.3-3.7,6.1c-3.7,1.8-7.7,1.5-7.7,1.5s-6,14.5-22.1,15.1S110.7,205,110.7,205s-4.7,2.8-15.3-1.9
			C84.9,198.3,87,191.9,87,191.9z"/>
	</g>
	<g id="explosion" class="st2">
		<g id="Calque_29_-_copie">
			<g id="cool_5_">
				<g id="XMLID_196_">
					<radialGradient id="XMLID_21_" cx="152.0938" cy="129.8543" r="135.5565" gradientUnits="userSpaceOnUse">
						<stop  offset="0.6568" style="stop-color:#F47621"/>
						<stop  offset="1" style="stop-color:#F15A29"/>
					</radialGradient>
					<path id="XMLID_197_" class="st12" d="M295.9,114.1c-71.2-6.3-87.6-6.8-32.2-29.2c-55.4,22.4-44.8,18.5,0-36.5
						c-66,26-78.2,37.8-45.3-5.4c-32.9,43.2-32.8,31.2-19.4-30.8c-33.3,54.9-40.9,62.7-34.9,8.4c-6,54.3-8.2,45.9-34.9-17.4
						c-4.1,62.6-8.5,76.1-39.2,26.2c30.8,50,11.4,48.3-52,11.1c49.8,51.8,55,62-3,34.8c55.2,26.9,49.4,28.4-21.8,21.1
						c66.5,26.2,75.8,29.5,13.7,25.5c62.1,4.1,52.3,12.5-18.8,40.9c71.7-4.1,86.1-6.1,29.2,20.1c56.9-26.2,51-17.8,2.7,33.9
						c62.8-34.4,74.3-42,37.2,2c37.1-44,32.2-33.7,17.8,30.8c42.1-54.1,45.7-64.6,34.5-10.4c11.1-54.2,15.2-43.9,31.5,17.4
						c7.3-64.3,7.7-76.8,24.1-27.8c-16.5-49-9.7-37,40.9,11.7c-22.9-60.9-26-70.7,21.5-31.5c-47.4-39.2-36.3-40.9,31.5-23.5
						c-58.3-37.7-69-45.6-11.7-35.9C210.2,139.9,224.4,136.2,295.9,114.1z M217.6,125.8c-36.3-0.6-38.7,0.9-4.5,11.1
						c-33.9-1.9-32.6,1.3,6.5,15.3c-37.3-13.6-48-12-23,13.9c-26.7-15.2-25.1-8.8,1.5,23.4c-26.6-32.2-28.5-36.3-21.1-5.8
						c-24.9-28.1-27.5-24.2-22.5,10.1c-5-34.3-5.8-38.6-15.4-8.2c-4.3-30-5.4-26.1-15.9,8.2c10.6-34.3,9.5-41.3-11.2-17.4
						c11.6-27.4,4.5-25.5-23.1,0.2c27.6-25.7,28.5-30.7-5-11.9c26.7-20.8,19.8-20.3-20.5-1c40.3-19.3,47.9-23.5,17.1-18.8
						c32.8-15.2,27.5-19.8-8.5-19.4c36-0.3,44,0.2,23.3-10.4c28.2-0.9,23.6-5.3-1.7-20.1c25.3,14.8,36,15.6,29-7.7
						c14.8,14,12.7,3.4,3.5-30.2c9.2,33.6,14.6,39.3,20.8,10.1c3.8,28,5.4,22.9,13.1-11.4c-7.7,34.3-7,37.8,6.2,7.7
						c-8.3,30.8-3.5,30.6,14.4,0.3c-17.9,30.3-23.6,35.5-2,16.8c-12.2,25.2-1.3,24.1,30.8,4.2c-32.2,19.9-32.7,24.5,3.4,10.6
						c-31.7,15.3-27.4,16.6,12.9,3.9c-40.3,12.7-48,14-15.8,9.6C177.3,120,177.8,123.8,217.6,125.8z"/>
				</g>
			</g>
			<polygon id="XMLID_187_" class="st13" points="77.9,165.8 62.2,152.4 88.2,89.4 129.1,52.4 180.6,64.4 218.4,87.8 229.4,124.6 
				208.7,171.8 186.9,190.7 154.3,196.3 114.4,192.6 			"/>
		</g>
		<g id="Calque_22_-_copie_3_1_">
			<g id="cool_4_">
				<g id="XMLID_202_">
					<path id="XMLID_203_" class="st14" d="M260.7,118c-53.8-4.8-66.1-5.1-24.3-22c-41.8,16.9-33.8,14,0-27.6
						c-49.9,19.6-59,28.5-34.2-4c-24.9,32.6-24.7,23.5-14.7-23.3c-25.1,41.5-30.8,47.3-26.3,6.3c-4.5,41-6.2,34.6-26.3-13.2
						c-3.1,47.3-6.4,57.5-29.6,19.7c23.2,37.7,8.6,36.5-39.2,8.4c37.6,39.1,41.5,46.8-2.3,26.3c41.7,20.3,37.3,21.4-16.4,15.9
						c50.2,19.8,57.2,22.3,10.4,19.2c46.8,3.1,39.4,9.4-14.2,30.9c54.1-3.1,65-4.6,22,15.2c42.9-19.8,38.5-13.4,2,25.6
						c47.4-26,56.1-31.7,28.1,1.5c28-33.2,24.3-25.4,13.4,23.3c31.8-40.8,34.5-48.7,26.1-7.8c8.4-40.9,11.5-33.1,23.8,13.2
						c5.5-48.6,5.8-58,18.2-21c-12.4-37-7.3-27.9,30.9,8.9c-17.3-46-19.6-53.4,16.2-23.8c-35.8-29.6-27.4-30.9,23.8-17.7
						c-44-28.4-52.1-34.4-8.9-27.1C195.9,137.5,206.7,134.7,260.7,118z M201.6,126.8c-27.4-0.4-29.2,0.6-3.4,8.4
						c-25.6-1.5-24.6,1,4.9,11.5c-28.1-10.3-36.2-9-17.3,10.5c-20.2-11.5-19-6.6,1.1,17.7c-20.1-24.3-21.5-27.4-15.9-4.4
						c-18.8-21.2-20.7-18.3-17,7.6c-3.8-25.9-4.4-29.1-11.6-6.2c-3.2-22.7-4-19.7-12,6.2c8-25.9,7.1-31.2-8.5-13.2
						c8.7-20.7,3.4-19.3-17.5,0.1c20.8-19.4,21.5-23.2-3.8-9c20.2-15.7,15-15.3-15.4-0.8c30.4-14.6,36.1-17.8,12.9-14.2
						c24.8-11.5,20.7-14.9-6.5-14.7c27.2-0.3,33.2,0.1,17.6-7.8c21.3-0.7,17.8-4-1.3-15.2c19.1,11.2,27.2,11.8,21.9-5.8
						c11.2,10.6,9.6,2.6,2.7-22.8c6.9,25.4,11.1,29.6,15.7,7.6c2.9,21.2,4.1,17.3,9.9-8.6c-5.8,25.9-5.3,28.5,4.7,5.8
						c-6.3,23.2-2.6,23.1,10.9,0.3c-13.5,22.9-17.8,26.8-1.5,12.7c-9.2,19-1,18.2,23.3,3.2c-24.3,15-24.7,18.5,2.5,8
						c-23.9,11.6-20.6,12.5,9.7,2.9c-30.4,9.6-36.3,10.6-11.9,7.2C171.1,122.5,171.5,125.3,201.6,126.8z"/>
				</g>
			</g>
			<polygon id="XMLID_189_" class="st14" points="96.1,157 84.2,146.9 103.8,99.3 134.8,71.4 173.6,80.5 202.1,98.2 210.5,125.9 
				194.8,161.6 178.4,175.8 153.8,180 123.7,177.2 			"/>
		</g>
		<g id="Calque_22_-_copie_3">
			<g id="cool_3_">
				<g id="XMLID_184_">
					<path id="XMLID_185_" class="st15" d="M240.4,120.2c-43.7-3.9-53.8-4.2-19.8-17.9c-34,13.7-27.5,11.4,0-22.4
						c-40.6,16-48,23.2-27.8-3.3c-20.2,26.5-20.1,19.1-11.9-18.9c-20.4,33.7-25.1,38.5-21.4,5.1c-3.7,33.4-5,28.2-21.4-10.7
						c-2.5,38.5-5.2,46.8-24.1,16.1c18.9,30.7,7,29.7-31.9,6.8c30.6,31.8,33.8,38.1-1.9,21.4c33.9,16.5,30.4,17.4-13.4,13
						c40.9,16.1,46.6,18.1,8.4,15.7c38.1,2.5,32.1,7.7-11.5,25.1c44-2.5,52.9-3.7,17.9,12.4c34.9-16.1,31.3-10.9,1.6,20.8
						c38.6-21.1,45.6-25.8,22.9,1.2c22.8-27,19.8-20.7,10.9,18.9c25.9-33.2,28.1-39.7,21.2-6.4c6.8-33.3,9.3-26.9,19.4,10.7
						c4.5-39.5,4.7-47.2,14.8-17.1c-10.1-30.1-6-22.7,25.1,7.2c-14.1-37.4-15.9-43.4,13.2-19.4c-29.1-24.1-22.3-25.1,19.4-14.4
						c-35.8-23.1-42.4-28-7.2-22C187.8,136.1,196.5,133.8,240.4,120.2z M192.3,127.4c-22.3-0.4-23.8,0.5-2.8,6.8
						c-20.8-1.2-20,0.8,4,9.4c-22.9-8.4-29.5-7.3-14.1,8.5c-16.4-9.4-15.4-5.4,0.9,14.4c-16.4-19.8-17.5-22.3-13-3.6
						c-15.3-17.3-16.9-14.9-13.8,6.2c-3.1-21.1-3.6-23.7-9.5-5c-2.6-18.4-3.3-16-9.8,5c6.5-21.1,5.8-25.4-6.9-10.7
						c7.1-16.8,2.8-15.7-14.2,0.1c17-15.8,17.5-18.9-3.1-7.3c16.4-12.8,12.2-12.5-12.6-0.6c24.7-11.9,29.4-14.4,10.5-11.5
						c20.1-9.3,16.9-12.1-5.3-11.9c22.1-0.2,27.1,0.1,14.3-6.4c17.3-0.6,14.5-3.3-1-12.4c15.5,9.1,22.1,9.6,17.8-4.7
						c9.1,8.6,7.8,2.1,2.2-18.5c5.6,20.6,9,24.1,12.8,6.2c2.3,17.2,3.3,14.1,8-7c-4.7,21.1-4.3,23.2,3.8,4.7
						c-5.1,18.9-2.1,18.8,8.9,0.2c-11,18.6-14.5,21.8-1.2,10.3c-7.5,15.5-0.8,14.8,18.9,2.6c-19.8,12.2-20.1,15.1,2.1,6.5
						c-19.4,9.4-16.8,10.2,7.9,2.4c-24.7,7.8-29.5,8.6-9.7,5.9C167.6,123.9,167.9,126.2,192.3,127.4z"/>
				</g>
			</g>
			<polygon id="XMLID_20_" class="st15" points="106.5,152 96.9,143.8 112.8,105.1 138,82.3 169.6,89.7 192.8,104.1 199.6,126.7 
				186.9,155.7 173.5,167.3 153.5,170.7 129,168.4 			"/>
		</g>
	</g>
	<g id="base" class="st2">
		<path id="XMLID_151_" class="st10" d="M97,181.4c0,0-24-2.6-28.9-31.7c-1.2-8.7,8.4-23.4,13.3-23.4c0,0-5-3.4-4.2-9.5
			c0.8-6.1,5.1-9.3,8.4-9.3c0,0-12.9-10.3-4.3-17.4c8.7-7.1,25.2-4.1,22.8,7.4c0,0,3-6.1,14-6.2c0,0-14.4-2.4-9.3-15.7
			c5.1-13.3,27.7-9.6,27.7-9.6s4.6-12.8,16.6-12c8.6,0.7,10.3,8.4,10.3,8.4s8.4-1.9,8.6,4.7c0,0,10.4-4.4,17-1.7
			c6.6,2.7,10.5,15.9,10.5,15.9s16.9-8.1,20.9,15.7s4.2,38.5-5.4,39.9c0,0,6.1,8.6-7.1,12.7c0,0,17.6,14.6,7.8,29.8
			s-16.7,17.6-28.9,10.1c0,0-0.3,3.5-5.9,2.8c-5.6-0.7-5.8-4.7-5.8-4.7s0.1,3.3-4.7,3.3c-4.8,0-6.1-3.9-6.1-3.9s-0.1,3.6-3.1,5.1
			c-3,1.5-6.4,1.2-6.4,1.2s-5,12-18.3,12.6s-20.1-13.8-20.1-13.8s-3.9,2.4-12.7-1.6S97,181.4,97,181.4z"/>
	</g>
	<g id="Calque_26" class="st2">
		<g id="XMLID_90_">
			<path id="XMLID_117_" class="st11" d="M209.7,118.6c5.7,5.4-3,12.2-3.2,12.8c1.7,9.7-9.5,10.6-9.5,10.6c4.3,1,3.6,7.7,3.6,7.7
				c-2.2,9.9-17,6.5-17,6.5c-13.7-10.1-2.2-26.6-2.2-26.6c-1.9-0.4-2.2-2-2.2-2.9c-0.6,2.2-6.8,2.2-6.8,2.2c3.2,0.2,2.7,3.6,2.7,3.6
				s0.8,17.6-9.9,23.5c-10.7,6-22.7-7.7-22.7-7.7s-0.1,4.7-4.6,8.1c-4.5,3.4-9.7-0.3-9.7-0.3s-0.3,3.3-8.9,3.7
				c-8.6,0.5-11.8-7.8-11.8-7.8s-3.3,2.7-12.5,0c-9.2-2.7-0.4-14.1-0.4-14.1c0.8-6.1-6.4-11.5-6.4-11.5c-3.1,0.5-5.5,0.3-7.3-0.1
				c-5,0.9-14,14.9-12.8,23.3C73,178.8,97,181.4,97,181.4s-1.8,5.3,7,9.3s12.7,1.6,12.7,1.6s6.8,14.3,20.1,13.8s18.3-12.6,18.3-12.6
				s3.3,0.2,6.4-1.2c3-1.5,3.1-5.1,3.1-5.1s1.3,3.9,6.1,3.9c4.8,0,4.7-3.3,4.7-3.3s0.2,4,5.8,4.7c5.6,0.7,5.9-2.8,5.9-2.8
				c12.2,7.4,19.1,5.1,28.9-10.1s-7.8-29.8-7.8-29.8c13.2-4.2,7.1-12.7,7.1-12.7c9.6-1.3,9.5-15.8,5.5-39.3
				C219,107.4,209.7,118.6,209.7,118.6z"/>
			<path id="XMLID_119_" class="st11" d="M179.3,126.1c0,0,0,0.3,0,0.7C179.3,126.5,179.3,126.3,179.3,126.1z"/>
		</g>
	</g>
	<g id="details" class="st2">
		<g id="XMLID_138_">
			<path id="XMLID_140_" class="st16" d="M150.7,188.8c0,0-7.6,10-17.9,11c-10.3,1-13.3-13.2-13.3-13.2s-3.4,1.4-11.8-1
				c-8.4-2.4-1-22-1-22c-10.8-0.2-11.7,11-12.4,11C73,168.9,70.8,146.7,70.7,138c-1.9,4-3.1,8.3-2.6,11.6
				C73,178.8,97,181.4,97,181.4s-1.8,5.3,7,9.3s12.7,1.6,12.7,1.6s6.8,14.3,20.1,13.8s18.3-12.6,18.3-12.6s1,0.1,2.5-0.1l-2.9-1.3
				c-0.7-0.3-1.3-0.8-1.9-1.3L150.7,188.8z"/>
			<path id="XMLID_139_" class="st16" d="M192,192c-13.4-4.7-17.3-22.3-17.3-22.3c-4.1,5.1,0,16.7,0,16.7c-6.1,1.6-10.3,0-10.3,0
				l0.2,0.8c0,0,0-0.1,0-0.1s1.3,3.9,6.1,3.9c4.8,0,4.7-3.3,4.7-3.3s0.2,4,5.8,4.7c5.6,0.7,5.9-2.8,5.9-2.8c2.7,1.6,5.1,2.8,7.4,3.4
				C194,192.8,193.2,192.4,192,192z"/>
		</g>
		<path id="XMLID_135_" class="st17" d="M137.4,96.2c0,0,6.2-6.9,19-2.5c0,0,2.3-12.5,12.6-11.4c0,0-11.6,2.6-12.1,13.9
			C156.9,96.2,151.7,89.2,137.4,96.2z"/>
		<path id="XMLID_134_" class="st17" d="M212.1,88.6c0,0-3.9,7.1-8.9,7.7c0,0,6,13.8-4.9,16.3c0,0,6.3,0.7,7.2-5.5
			c0.9-6.2-1.1-10.2-1.1-10.2S211.9,93.6,212.1,88.6z"/>
		<path id="XMLID_133_" class="st17" d="M106.3,130c0,0-1.9,6.8,6.1,6.4c0,0-0.4,2.9,4,3.3s5.5-0.8,5.5-0.8s-2.5,3-6.9,1.4
			s-3.4-3.2-3.4-3.2s-3.3,0.3-5.3-1.7C104.2,133.4,106.3,130,106.3,130z"/>
		<path id="XMLID_132_" class="st18" d="M138.9,120.7c0,0,5.2,9.4,13.2,6c8-3.4,8.1-11.3,8.1-11.3s5.6-3.4,1.7-7
			c-3.9-3.6-17,0.8-17,0.8s-19.3-3.5-18.3,6.8C127.5,126.2,138.9,120.7,138.9,120.7z"/>
		<path id="XMLID_131_" class="st19" d="M134.2,186.3c0,0-7.9,2.6-10.2-4.1s5.5-5.7,5.5-5.7s0.7-4,7.5-3c6.8,0.9,7.5,3.7,7.5,3.7
			s5.2,1.9,2.9,6c-2.2,4.1-6.7,4.1-6.7,4.1s-1.1,1.9-3.8,1.3C134.2,188,134.2,186.3,134.2,186.3z"/>
		<path id="XMLID_130_" class="st20" d="M124.7,83.5c0,0-6.2-0.3-4.8-5.9c1.4-5.6,9.5-3,9.5-3s6.4-2.7,8.8-0.1s-0.6,5.9-0.6,5.9
			s2.5,4.3-0.8,5.2S125.4,87.2,124.7,83.5z"/>
		<path id="XMLID_120_" class="st19" d="M202.9,178.4c0,0-0.1,5-5.4,4.3c-5.3-0.7-4.3-6.9-4.3-6.9s-2.2-1.8,0.7-6.1
			c2.9-4.3,7.1-2.4,7.1-2.4s3-2.8,5,0.1c2,2.9,1,4,1,4s0.4,3.2-0.9,4.8C204.8,177.8,202.9,178.4,202.9,178.4z"/>
		<path id="XMLID_29_" class="st17" d="M147.4,139.7c0,0,3.5,3.5,8.3,2.9c4.5-0.5,7.7-4.1,7.7-4.1s-2.7,4.8-7.6,5.2
			C149.1,144.2,147.4,139.7,147.4,139.7z"/>
	</g>
</g>
<g id="fireDust2" class="st0">
	<g id="base_-_copie" class="st2">
		<path id="XMLID_17_" class="st10" d="M125.1,72.8c10-8.3,23.6-2.4,23.6-2.4s9.6-11.1,20.1-7.9c7.5,2.3,7.4,9.6,7.4,9.6
			s10,1,8.8,6.8c0,0,8-2.7,13.4,1c5.3,3.7,7.1,18.2,7.1,18.2s15.6-5.8,14.4,16.2c-1.2,22-4,35-12.9,34.3c0,0,3.7,8.8-8.9,9.9
			c0,0,12.6,16.5,0.9,28c-11.8,11.5-18.4,12.2-27.7,3.2c0,0-1,3-5.8,1.3c-4.8-1.7-4.2-5.3-4.2-5.3s-0.6,2.9-4.8,2s-4.6-4.7-4.6-4.7
			s-0.8,3.2-3.8,3.9c-3,0.7-5.9-0.2-5.9-0.2s-6.9,9.7-18.8,7.4c-11.9-2.2-15.1-16.3-15.1-16.3s-3.9,1.3-10.9-4
			c-7-5.3-4.3-9.7-4.3-9.7s-20.7-7.1-19.2-34c0.7-7.9,12.1-19.1,16.5-18.1c0,0-3.8-4-1.8-9.2c2-5.2,6.4-7.2,9.4-6.5
			c0,0,2.3-23.4,26.5-23.1"/>
	</g>
	<g id="Calque_26_-_copie" class="st2">
		<g id="XMLID_14_">
			<path id="XMLID_16_" class="st11" d="M205,130.5c3.9,5.9-4.3,11-4.6,11.5c-0.5,9-10.6,7.4-10.6,7.4c3.6,1.8,1.7,7.5,1.7,7.5
				c-3.9,8.3-16.4,2.4-16.4,2.4c-6.3-8.5-5.3-14.4-5.3-14.4s-1.4,7.5-11,10.6c-10.6,3.4-18.6-11.4-18.6-11.4s-1.1,4.2-5.7,6.3
				s-8.5-2.3-8.5-2.3s-1,2.8-8.6,1.5c-7.7-1.3-8.9-9.3-8.9-9.3s-3.5,1.7-11.1-2.5c-7.6-4.3,2.5-12.6,2.5-12.6
				c1.9-5.2-3.4-11.5-3.4-11.5c-2.9-0.2-5-0.8-6.5-1.5c-4.7-0.2-15.4,10.4-16.1,18.1c-1.5,26.8,19.2,34,19.2,34s-2.6,4.4,4.3,9.7
				c7,5.3,10.9,4,10.9,4s3.1,14,15.1,16.3c11.9,2.2,18.8-7.4,18.8-7.4s2.9,0.9,5.9,0.2c3-0.7,3.8-3.9,3.8-3.9s0.4,3.7,4.6,4.7
				c4.2,1,4.8-2,4.8-2s-0.6,3.6,4.2,5.3c4.8,1.7,5.8-1.3,5.8-1.3c9.3,9.1,13,6.3,24.8-5.2c11.8-11.5,0.8-27.4,0.8-27.4
				c12.5-1,10.1-8.4,10.1-8.4c8.7,0.7,10.3-11.2,11.5-32.9C215,124.2,205,130.5,205,130.5z"/>
		</g>
	</g>
	<g id="details_-_copie" class="st2">
		<g id="XMLID_11_">
			<path id="XMLID_13_" class="st16" d="M139.2,181.7c0,0-2.7,12.9-19.6,7.6c-9-2.8-7.7-15.9-7.7-15.9s-5.1,3.9-13-2.1
				c-8.9-6.7,6.3-21,6.3-21c-9.5-2.4-11.6,10.1-12.3,10c-17.6-9.3-16.1-32.2-14.4-39.9c-2.5,3.1-4.4,6.7-4.6,9.8
				c-1.5,26.8,19.2,34,19.2,34s-2.6,4.4,4.3,9.7c7,5.3,10.9,4,10.9,4s3.1,14,15.1,16.3c11.9,2.2,18.8-7.4,18.8-7.4s0.9,0.3,2.2,0.4
				l-2.3-1.8c-0.6-0.4-1-0.9-1.4-1.5L139.2,181.7z"/>
			<path id="XMLID_12_" class="st16" d="M164.4,169.6c-4.7,3.7-3.4,14.8-3.4,14.8c-3.7,4.4-9.1-2.1-9.1-2.1l0,0.7c0,0,0,0,0,0
				s0.4,3.7,4.6,4.7c4.2,1,4.8-2,4.8-2s-0.6,3.6,4.2,5.3c4.8,1.7,5.8-1.3,5.8-1.3C161.2,189,164.4,169.6,164.4,169.6z"/>
		</g>
		<path id="XMLID_9_" class="st17" d="M138.7,95.6c0,0,9.4-6.6,23.6,2.2c0,0,6.2-14.5,18.4-10.3c0,0-14.7-0.1-18.4,13.4
			C162.3,100.9,157.8,91.1,138.7,95.6z"/>
		<path id="XMLID_8_" class="st17" d="M214,105.2c0,0-4.9,5.5-9.4,5c0,0,2.5,13.4-7.6,13.5c0,0,5.5,1.9,7.5-3.4
			c2-5.3,1.1-9.3,1.1-9.3S212.8,109.6,214,105.2z"/>
		<path id="XMLID_7_" class="st17" d="M108.8,122.5c0,0-4.7,8.6,6.3,10.6c0,0-1.4,3.8,4.4,5.7s7.7,0.7,7.7,0.7s-4.4,3.2-9.8-0.2
			c-5.5-3.4-3.6-5.4-3.6-5.4s-4.6-0.7-6.7-4C105,126.5,108.8,122.5,108.8,122.5z"/>
		<path id="XMLID_6_" class="st18" d="M130.1,120.5c0,0,3.6,12.4,13.9,10.6c10.2-1.8,12.6-11.1,12.6-11.1s7.4-2.5,3.8-7.8
			c-3.6-5.3-20.1-3.6-20.1-3.6s-21.6-9.3-23.2,3S130.1,120.5,130.1,120.5z"/>
		<path id="XMLID_5_" class="st19" d="M123.7,172.7c0,0-7.5,0.7-8.2-5.7c-0.7-6.5,4.9-6,4.9-6s1.7-5.5,7.6-3.3c4.2,1.6,7.5,4,9,5.3
			c0.6,0.5,1,1.2,1,2c0.1,1.9,0,5.4-2,7.7c-2.8,3.1-6.8,2.2-6.8,2.2s-1.4,1.5-3.6,0.4C123.3,174.2,123.7,172.7,123.7,172.7z"/>
		<path id="XMLID_4_" class="st20" d="M137.5,83c0,0-5.4-1.5-3.1-6.2c2.3-4.7,9-0.8,9-0.8s6.2-1.1,7.8,1.7c1.6,2.8-1.7,5.1-1.7,5.1
			s1.4,4.3-1.8,4.5C144.5,87.4,137.4,86.4,137.5,83z"/>
		<path id="XMLID_3_" class="st19" d="M188.4,184.7c0,0-1.5,6.1-7.8,3.8c-6.3-2.3-4.4-9.6-4.4-9.6s-2.9-3.8,1.9-8.2
			c4.7-4.4,11.2,0,11.2,0s4.5-2.6,6.1,1.5c1.6,4,0.1,5.2,0.1,5.2s-0.4,4.1-2.4,5.7C191,184.6,188.4,184.7,188.4,184.7z"/>
		<path id="XMLID_2_" class="st17" d="M115.4,178.3c0,0,3.6,5.8,10.3,6.5c6.3,0.7,11.7-3.2,11.7-3.2s-5.2,5.7-11.9,4.7
			C116.2,184.9,115.4,178.3,115.4,178.3z"/>
	</g>
</g>
<g id="fireDust3" class="st0">
	<g id="base_-_copie_2" class="st2">
		<path id="XMLID_43_" class="st10" d="M114.5,158c0,0-14.3-4.9-13.2-23.3c0.5-5.5,8.4-13.1,11.4-12.4c0,0-2.6-2.8-1.2-6.4
			c1.4-3.6,4.4-5,6.4-4.5c0,0-6.4-8.1-0.2-11.2c6.3-3.1,15.9,1,12.9,7.7c0,0,2.7-3.3,9.4-1.9c0,0-8.4-3.4-3.5-10.9
			c4.9-7.4,18.2-2,18.2-2s4.6-7.2,11.8-5c5.2,1.6,5.1,6.6,5.1,6.6s5.4,0,4.6,4.1c0,0,6.9-1.2,10.6,1.3c3.7,2.6,4.2,11.2,4.2,11.2
			s11.4-2.6,10.6,12.5s-2.8,24.1-8.8,23.6c0,0,2.5,6.1-6.1,6.8c0,0,8.7,11.4,0.6,19.3s-12.6,8.4-19,2.2c0,0-0.7,2.1-4,0.9
			c-3.3-1.2-2.9-3.7-2.9-3.7s-0.4,2-3.3,1.3s-3.2-3.2-3.2-3.2s-0.5,2.2-2.6,2.7c-2.1,0.5-4.1-0.1-4.1-0.1s-4.7,6.7-12.9,5.1
			S125,167.3,125,167.3s-2.7,0.9-7.5-2.7C112.7,161,114.5,158,114.5,158z"/>
	</g>
	<g id="Calque_26_-_copie_2" class="st2">
		<g id="XMLID_40_">
			<path id="XMLID_42_" class="st11" d="M187.4,130.5c2.7,4.1-3.6,7-3.7,7.4c-0.3,6.2-7.3,5.1-7.3,5.1c2.5,1.2,1.2,5.2,1.2,5.2
				c-2.7,5.7-11.3,1.6-11.3,1.6c-3.7-4.2-6.9-4.4-11.2-2.7c-7.1,2.9-12.8-7.8-12.8-7.8s-0.7,2.9-3.9,4.3c-3.2,1.4-5.9-1.6-5.9-1.6
				s-0.7,1.9-5.9,1c-5.3-0.9-6.1-6.4-6.1-6.4s-2.4,1.2-7.6-1.7c-5.2-2.9,1.7-8.6,1.7-8.6c1.3-3.6-2.3-7.9-2.3-7.9
				c-2-0.2-3.4-0.6-4.4-1.1c-3.2-0.2-10.6,7.1-11,12.4c-1.1,18.4,13.2,23.3,13.2,23.3s-1.8,3,3,6.6c4.8,3.6,7.5,2.7,7.5,2.7
				s2.1,9.6,10.4,11.2c8.2,1.5,12.9-5.1,12.9-5.1s2,0.6,4.1,0.1s2.6-2.7,2.6-2.7s0.3,2.6,3.2,3.2c2.9,0.7,3.3-1.3,3.3-1.3
				s-0.4,2.5,2.9,3.7c3.3,1.2,4-0.9,4-0.9c6.4,6.2,10.9,5.7,19-2.2s-0.6-19.3-0.6-19.3c8.6-0.7,6.1-6.8,6.1-6.8
				C194.2,143,187.4,130.5,187.4,130.5z"/>
			<path id="XMLID_41_" class="st11" d="M167.6,131.3"/>
		</g>
	</g>
	<g id="details_-_copie_2" class="st2">
		<g id="XMLID_35_">
			<path id="XMLID_39_" class="st16" d="M141.6,165.2c0,0-0.6,8.8-10.5,7.2c-8.5-1.3-9.8-11.3-9.8-11.3s-2.5,2-8.5-2.4
				c-8.5-6.2,5.4-12.9,5.4-12.9c-4.5-0.7-7.8,6.2-8.3,6.1c-12.1-6.4-14.3-20.3-10.1-28.9c-1.7,2.2-3,4.6-3.2,6.7
				c-1.1,18.4,13,22.9,13,22.9s-1.6,3.4,3.2,7c4.8,3.6,7.5,2.7,7.5,2.7s2.1,9.6,10.4,11.2c8.2,1.5,12.9-5.1,12.9-5.1
				s0.6,0.2,1.5,0.3l-1.6-1.2c-0.4-0.3-0.7-0.6-1-1L141.6,165.2z"/>
			<path id="XMLID_36_" class="st16" d="M163.4,170.2c-10.8,4.7-4.5-13.4-4.5-13.4c-3.2,2.5-2.3,10.2-2.3,10.2
				c-1.9,4.3-6.3-1.4-6.3-1.4l0,0.5c0,0,0,0,0,0s0.3,2.6,3.2,3.2c2.9,0.7,3.3-1.3,3.3-1.3s-0.4,2.5,2.9,3.7c3.3,1.2,4-0.9,4-0.9
				c1.4,1.4,2.7,2.4,4,3.1C167.5,173.6,164.1,169.9,163.4,170.2z"/>
		</g>
		<path id="XMLID_27_" class="st18" d="M144.1,132.8c0,0,2.5,8.5,9.5,7.2c7-1.3,8.6-7.6,8.6-7.6s5.1-1.7,2.6-5.3
			c-2.4-3.6-13.7-2.5-13.7-2.5s-14.8-6.3-15.9,2.1C134,135.1,144.1,132.8,144.1,132.8z"/>
		<path id="XMLID_24_" class="st19" d="M131.9,161.4c0,0-5.2,0.5-5.7-3.9c-0.5-4.5,4.1-2.7,4.1-2.7s1-2.3,5-0.8
			c4,1.5,4.1,3.3,4.1,3.3s2.9,1.9,0.9,4.1c-1.9,2.2-4.7,1.5-4.7,1.5s-0.9,1-2.5,0.3C131.6,162.4,131.9,161.4,131.9,161.4z"/>
		<path id="XMLID_23_" class="st20" d="M167.3,109.5c0,0-3.7-1.1-2.1-4.3c1.6-3.2,6.2-0.5,6.2-0.5s4.3-0.8,5.4,1.2
			c1.1,1.9-1.2,3.5-1.2,3.5s0.9,3-1.2,3.1C172.1,112.6,167.2,111.9,167.3,109.5z"/>
		<path id="XMLID_22_" class="st19" d="M174.9,166.1c0,0-0.7,3.1-3.9,1.9c-3.1-1.1-1.6-4.8-1.6-4.8s-1.1-1.4,1.3-3.6
			s4.7-0.5,4.7-0.5s2.2-1.3,3,0.7c0.8,2,0,2.6,0,2.6s-0.2,2-1.2,2.8C176.1,166,174.9,166.1,174.9,166.1z"/>
	</g>
</g>
<g id="fireDust4" class="st0">
	<g id="base_-_copie_3" class="st2">
		<path id="XMLID_70_" class="st10" d="M120.9,146c0,0-10-3.4-9.3-16.4c0.3-3.8,5.9-9.2,8-8.7c0,0-1.8-1.9-0.9-4.5s3.1-3.5,4.5-3.2
			c0,0-4.5-5.7-0.1-7.9s11.2,0.7,9,5.4c0,0,1.9-2.3,6.6-1.3c0,0-5.9-2.4-2.4-7.6c3.5-5.2,12.8-1.4,12.8-1.4s3.2-5,8.2-3.5
			c3.6,1.1,3.6,4.6,3.6,4.6s3.8,0,3.2,2.9c0,0,4.9-0.9,7.4,0.9s3,7.8,3,7.8s8-1.8,7.4,8.8c-0.6,10.6-1.9,16.9-6.2,16.5
			c0,0,1.8,4.3-4.3,4.8c0,0,6.1,8,0.4,13.5c-5.7,5.5-8.9,5.9-13.3,1.5c0,0-0.5,1.5-2.8,0.6c-2.3-0.8-2-2.6-2-2.6s-0.3,1.4-2.3,0.9
			s-2.2-2.3-2.2-2.3s-0.4,1.5-1.8,1.9s-2.8-0.1-2.8-0.1s-3.3,4.7-9.1,3.6c-5.8-1.1-7.3-7.8-7.3-7.8s-1.9,0.6-5.3-1.9
			C119.7,148.1,120.9,146,120.9,146z"/>
	</g>
	<g id="Calque_26_-_copie_3" class="st2">
		<g id="XMLID_67_">
			<path id="XMLID_69_" class="st11" d="M175.3,130.1c1.9,2.9-2.5,4.9-2.6,5.2c-0.2,4.3-5.1,3.6-5.1,3.6c1.7,0.9,0.8,3.6,0.8,3.6
				c-1.9,4-7.9,1.1-7.9,1.1c-4.9-5.7,1.6-11.6,1.6-11.6c-0.8-0.3-0.7-1.1-0.7-1.4c-0.5,0.9-3.1,0.3-3.1,0.3c1.4,0.4,0.8,1.8,0.8,1.8
				s-1.4,7.6-6.5,9.1c-5.2,1.5-9-5.5-9-5.5s-0.5,2-2.8,3c-2.3,1-4.1-1.1-4.1-1.1s-0.5,1.4-4.2,0.7c-3.7-0.6-4.3-4.5-4.3-4.5
				s-1.7,0.8-5.3-1.2c-3.7-2.1,1.2-6.1,1.2-6.1c0.9-2.5-1.6-5.5-1.6-5.5c-1.4-0.1-2.4-0.4-3.1-0.7c-2.2-0.1-7.4,5-7.7,8.7
				c-0.7,12.9,9.3,16.4,9.3,16.4s-1.3,2.1,2.1,4.7c3.4,2.6,5.3,1.9,5.3,1.9s1.5,6.8,7.3,7.8c5.8,1.1,9.1-3.6,9.1-3.6
				s1.4,0.4,2.8,0.1s1.8-1.9,1.8-1.9s0.2,1.8,2.2,2.3c2,0.5,2.3-0.9,2.3-0.9s-0.3,1.7,2,2.6c2.3,0.8,2.8-0.6,2.8-0.6
				c4.5,4.4,7.7,4,13.3-1.5c5.7-5.5-0.4-13.5-0.4-13.5c6-0.5,4.3-4.8,4.3-4.8c4.2,0.4,5.6-5.8,6.2-16.3
				C180.3,126.2,175.3,130.1,175.3,130.1z"/>
			<path id="XMLID_68_" class="st11" d="M161.5,130.3c0,0,0,0.1-0.1,0.3C161.5,130.5,161.5,130.4,161.5,130.3z"/>
		</g>
	</g>
	<g id="details_-_copie_3" class="st2">
		<g id="XMLID_56_">
			<path id="XMLID_66_" class="st16" d="M143.2,154.4c0,0-4.2,3.5-8.7,3c-4.5-0.6-4.4-6.9-4.4-6.9s-1.6,0.2-5-1.6
				c-3.4-1.8,1.7-9.5,1.7-9.5c-4.6-1.1-6.1,3.6-6.4,3.5c-8.5-4.5-7.3-14.2-6.5-17.9c-1.2,1.5-2.1,3.2-2.2,4.7
				c-0.7,12.9,9.3,16.4,9.3,16.4s-1.3,2.1,2.1,4.7c3.4,2.6,5.3,1.9,5.3,1.9s1.5,6.8,7.3,7.8c5.8,1.1,9.1-3.6,9.1-3.6
				s0.4,0.1,1.1,0.2l-1.1-0.9c-0.3-0.2-0.5-0.5-0.7-0.7L143.2,154.4z"/>
			<path id="XMLID_57_" class="st16" d="M160.5,159.8c-5.3-3.3-5.2-11.2-5.2-11.2c-2.3,1.8-1.6,7.2-1.6,7.2c-2.8,0.1-4.4-1-4.4-1
				l0,0.4c0,0,0,0,0,0s0.2,1.8,2.2,2.3c2,0.5,2.3-0.9,2.3-0.9s-0.3,1.7,2,2.6c2.3,0.8,2.8-0.6,2.8-0.6c1,1,1.9,1.7,2.8,2.2
				C161.3,160.3,161,160.1,160.5,159.8z"/>
		</g>
		<path id="XMLID_50_" class="st18" d="M144.8,124.1c0,0,1.3,4.5,5.1,3.9c3.7-0.7,4.6-4.1,4.6-4.1s2.7-0.9,1.4-2.8s-7.3-1.3-7.3-1.3
			s-7.9-3.4-8.5,1.1C139.4,125.4,144.8,124.1,144.8,124.1z"/>
		<path id="XMLID_49_" class="st19" d="M136.4,151.7c0,0-3.6,0.4-4-2.8c-0.4-3.1,2.9-1.9,2.9-1.9s0.7-1.6,3.5-0.6s2.9,2.3,2.9,2.3
			s2,1.3,0.7,2.8c-1.4,1.5-3.3,1.1-3.3,1.1s-0.7,0.7-1.8,0.2S136.4,151.7,136.4,151.7z"/>
		<path id="XMLID_46_" class="st20" d="M142.3,106.8c0,0-2.6-0.7-1.5-3c1.1-2.3,4.3-0.4,4.3-0.4s3-0.5,3.8,0.8
			c0.8,1.4-0.8,2.5-0.8,2.5s0.7,2.1-0.9,2.2C145.7,108.9,142.3,108.5,142.3,106.8z"/>
		<path id="XMLID_45_" class="st19" d="M166.5,155c0,0-0.5,2.1-2.7,1.3s-1.2-3.4-1.2-3.4s-0.8-1,0.9-2.5s3.3-0.3,3.3-0.3
			s1.6-0.9,2.1,0.5c0.6,1.4,0,1.8,0,1.8s-0.1,1.4-0.8,2C167.4,155,166.5,155,166.5,155z"/>
	</g>
</g>
<g id="fireDust5" class="st0">
	<g id="base_-_copie_4" class="st2">
		<path id="XMLID_91_" class="st10" d="M130.2,139.9c0,0-6.4-2.2-6-10.5c0.2-2.5,3.8-5.9,5.1-5.6c0,0-1.2-1.2-0.6-2.9
			c0.6-1.6,1.4-4.1,2.4-3.9c0,0-1.1-2.1,0.2-5c1.4-3.1,7.6-2,6.2,1c0,0,0.7-2.9,3.7-2.3c0,0-2.1-0.6,0.2-3.9
			c2.2-3.4,8.1,0.9,8.1,0.9s3.1-3.1,6.4-2.1c2.3,0.7,4.2,3.8,4.2,3.8s3.5-2.2,3.1-0.4c0,0-0.5,2.2,1.2,3.3c1.7,1.2,2.4,4.6,2.4,4.6
			s8.5-2.2,8.2,4.7c-0.4,6.8-6.6,13.6-9.4,13.4c0,0,1.1,2.7-2.8,3.1c0,0,3.9,5.1,0.3,8.7s-5.7,3.8-8.6,1c0,0-0.3,0.9-1.8,0.4
			c-1.5-0.5-1.3-1.7-1.3-1.7s-0.2,0.9-1.5,0.6c-1.3-0.3-1.4-1.5-1.4-1.5s-0.2,1-1.2,1.2c-0.9,0.2-1.8-0.1-1.8-0.1s-2.1,3-5.8,2.3
			c-3.7-0.7-4.7-5.1-4.7-5.1s-1.2,0.4-3.4-1.2S130.2,139.9,130.2,139.9z"/>
	</g>
	<g id="Calque_26_-_copie_4" class="st2">
		<g id="XMLID_86_">
			<path id="XMLID_30_" class="st11" d="M156,136.2"/>
			<path id="XMLID_18_" class="st11" d="M154.7,133.6c-3.5-1.9-5.1-0.5-6.4-0.9c-0.5-0.1-1.1,0-1.5,0.3c-1,0.8-2.8,2.1-3.8,2.6
				c-0.7,0.3-1.4,0.1-1.9-0.1c-0.4-0.2-0.9-0.3-1.4-0.1c-0.4,0.1-1,0.2-2.1,0c-1.3-0.2-2-1.1-2.4-1.9c-0.3-0.5-0.7-0.9-1.3-1
				c-0.6-0.1-1.4-0.3-2.5-0.9c-1.8-1-0.3-2.8,0.4-3.6c0.3-0.3,0.5-0.8,0.5-1.3c0-0.7-0.4-1.4-0.7-1.9c-0.3-0.4-0.7-0.7-1.2-0.8
				c-0.4-0.1-0.7-0.1-0.9-0.2c-0.4-0.1-0.8-0.1-1.2,0c-1.6,0.7-4,3.4-4.2,5.4c-0.4,6.3,3.2,9.1,5,10.1c0.5,0.3,0.8,0.8,0.9,1.4
				c0.1,0.5,0.4,1.3,1.5,2.1s1.9,1.1,2.5,1.2c0.6,0.1,1,0.5,1.2,1c0.5,1.3,1.8,3.6,4.3,4c2.6,0.5,4.5-0.9,5.3-1.7
				c0.3-0.3,0.8-0.5,1.3-0.5c0.3,0,0.7,0,1.1-0.1c0.1,0,0.2-0.1,0.3-0.1c0.6-0.2,1.2-0.3,1.7,0.1c0.2,0.1,0.4,0.2,0.7,0.3
				c0.2,0.1,0.4,0.1,0.6,0.1c0.5,0,1,0.1,1.4,0.5c0.2,0.2,0.5,0.4,0.8,0.5c0.5,0.2,0.9,0.2,1.2,0.1c0.6-0.1,1.1,0,1.6,0.3
				c2.4,1.9,4.4,1.4,7.6-1.8c2.3-2.3,1.6-5.1,0.7-7c-0.4-0.8,0-1.8,0.8-2.2c0.8-0.4,1-1,1.1-1.5c0.1-0.6,0.4-1,1-1.3
				c1.1-0.5,1.8-2,2.2-4.4c0.3-1.6-1.6-2.7-2.8-1.6c0,0,0,0,0,0c-0.4,0.4-0.6,0.9-0.6,1.5c0.1,1-0.8,1.8-1.5,2.2
				c-0.3,0.2-0.5,0.5-0.6,0.8c-0.8,2.3-6.5,1.9-6.5,1.9"/>
			<path id="XMLID_87_" class="st11" d="M156.3,129.9c0,0,0,0.1-0.1,0.2C156.3,130,156.3,129.9,156.3,129.9z"/>
		</g>
	</g>
	<g id="details_-_copie_4" class="st2">
		<g id="XMLID_83_">
			<path id="XMLID_85_" class="st16" d="M144.5,145.4c0,0-2.7,2.3-5.6,1.9c-2.9-0.4-2.9-4.5-2.9-4.5s-1,0.2-3.2-1
				c-2.2-1.2,1.1-6.1,1.1-6.1c-3-0.7-3.9,2.3-4.1,2.3c-5.5-2.9-4.7-9.2-4.2-11.6c-0.8,1-1.4,2.1-1.4,3c-0.5,8.3,6,10.5,6,10.5
				s-0.8,1.4,1.3,3s3.4,1.2,3.4,1.2s1,4.4,4.7,5.1c3.7,0.7,5.8-2.3,5.8-2.3s0.3,0.1,0.7,0.1l-0.7-0.6c-0.2-0.1-0.3-0.3-0.4-0.5
				L144.5,145.4z"/>
			<path id="XMLID_28_" class="st16" d="M152.6,148.3c1.4,0.7,1.8-0.4,1.8-0.4c0.6,0.6,1.2,1.1,1.8,1.4c-0.1-0.1-0.3-0.2-0.6-0.4
				c-3.4-2.1-3.4-7.2-3.4-7.2c-1.5,1.1-1.1,4.6-1.1,4.6c-1.8,0.1-2.8-0.6-2.8-0.6l0,0.2c0,0,0,0,0,0s0.1,1.3,1.4,1.5"/>
		</g>
		<path id="XMLID_79_" class="st18" d="M155.9,129.4c0,0,0.9,2.9,3.3,2.5c2.4-0.4,3-2.6,3-2.6s1.7-0.6,0.9-1.8
			c-0.8-1.2-4.7-0.9-4.7-0.9s-5.1-2.2-5.5,0.7S155.9,129.4,155.9,129.4z"/>
		<path id="XMLID_78_" class="st19" d="M140.1,143.6c0,0-2.3,0.2-2.6-1.8s1.9-1.2,1.9-1.2s0.4-1,2.3-0.4c1.8,0.7,1.8,1.5,1.8,1.5
			s1.3,0.9,0.4,1.8s-2.1,0.7-2.1,0.7s-0.4,0.5-1.1,0.1C140,144.1,140.1,143.6,140.1,143.6z"/>
		<path id="XMLID_77_" class="st20" d="M139.3,119.9c0,0-1.7-0.5-1-1.9c0.7-1.5,2.8-0.2,2.8-0.2s1.9-0.3,2.4,0.5
			c0.5,0.9-0.5,1.6-0.5,1.6s0.4,1.3-0.6,1.4C141.4,121.3,139.2,121,139.3,119.9z"/>
		<path id="XMLID_76_" class="st19" d="M159.5,142.3c0,0-0.3,1.4-1.8,0.9c-1.4-0.5-0.7-2.2-0.7-2.2s-0.5-0.6,0.6-1.6
			s2.1-0.2,2.1-0.2s1-0.6,1.4,0.3c0.4,0.9,0,1.2,0,1.2s-0.1,0.9-0.5,1.3C160.1,142.3,159.5,142.3,159.5,142.3z"/>
	</g>
</g>
<g id="fireDust6">
	<g id="base_-_copie_5">
		<path id="XMLID_62_" class="st10" d="M130.2,139.9c0,0-6.4-2.2-6-10.5c0.2-2.5,3.8-5.9,5.1-5.6c0,0-1.2-1.2-0.6-2.9
			c0.6-1.6,1.4-4.1,2.4-3.9c0,0,5.1,7.9,6.4,5.1c1.4-3.1,7,0.5,9-3.8c0,0,2.6-7.6-1.6-10.9c0,0-3-3.7-0.7-7s9-0.9,9-0.9
			s4.1-0.6,7.4,0.4c2.3,0.7,4.4,2.9,4.4,2.9s2.7,1.5,2.4,3.3c0,0-0.7,2.4,1,3.6s3.9,2.9,3.9,2.9s3.1,2.4,2.8,9.3
			c-0.4,6.8-10.2,9.4-12.9,9.2c0,0-10.7,0-10.3,2.2c0,0,1.1,6.8,5.1,10.5c3.7,3.5,0.5,7-2.4,4.2c0,0-0.3,0.9-1.8,0.4
			c-1.5-0.5-1.3-1.7-1.3-1.7s-0.2,0.9-1.5,0.6c-1.3-0.3-1.4-1.5-1.4-1.5s-0.2,1-1.2,1.2c-0.9,0.2-1.8-0.1-1.8-0.1s-2.1,3-5.8,2.3
			c-3.7-0.7-4.7-5.1-4.7-5.1s-1.2,0.4-3.4-1.2S130.2,139.9,130.2,139.9z"/>
	</g>
	<g id="Calque_26_-_copie_5">
		<g id="XMLID_58_">
			<path id="XMLID_63_" class="st11" d="M152.6,131.7c-0.6,0.5-7.4,3.6-8,3.5c-2.1-0.4-4.5,0.1-4.9,0.2c-0.4,0.1-1,0.2-2.1,0
				c-1.3-0.2-2-1.1-2.4-1.9c-0.3-0.5-0.7-0.9-1.3-1c-0.6-0.1-1.4-0.3-2.5-0.9c-1.8-1-0.3-2.8,0.4-3.6c0.3-0.3,0.5-0.8,0.5-1.3
				c0-0.7-0.4-1.4-0.7-1.9c-0.3-0.4-0.7-0.7-1.2-0.8c-0.4-0.1-0.7-0.1-0.9-0.2c-0.4-0.1-0.8-0.1-1.2,0c-1.6,0.7-4,3.4-4.2,5.4
				c-0.4,6.3,3.2,9.1,5,10.1c0.5,0.3,0.8,0.8,0.9,1.4c0.1,0.5,0.4,1.3,1.5,2.1s1.9,1.1,2.5,1.2c0.6,0.1,1,0.5,1.2,1
				c0.5,1.3,1.8,3.6,4.3,4c2.6,0.5,4.5-0.9,5.3-1.7c0.3-0.3,0.8-0.5,1.3-0.5c0.3,0,0.7,0,1.1-0.1c0.1,0,0.2-0.1,0.3-0.1
				c0.6-0.2,1.2-0.3,1.7,0.1c0.2,0.1,0.4,0.2,0.7,0.3c0.2,0.1,0.4,0.1,0.6,0.1c0.5,0,1,0.1,1.4,0.5c0.2,0.2,0.5,0.4,0.8,0.5
				c0.5,0.2,0.9,0.2,1.2,0.1c0.6-0.1,1.1,0,1.6,0.3c2.4,1.9,5.8,0,5.2-2.6c-0.7-3.2-5.5-6.6-6.3-8.4c-0.9-2.1,0.8-4.7,1.6-5.1
				c0.8-0.4,3.7-1.2,4.2-1.3c0.7-0.1,5.6-0.6,6.1-0.8c1.1-0.5,6.9-2.7,7.4-5"/>
		</g>
		<path id="XMLID_60_" class="st11" d="M142.8,135.5c0,0,3.6-0.8,4.8-2.7s4.1-2.1,5.6-2.4s3.2-1.8,4.8-2s3.8,0.6,5.3,0
			s3.2-1.8,4.1-2.3s3.6-1.5,4.2-1.1s2.8-1.6,2.8-0.7c0,2.8-8,5.7-8,5.7l-12.9,2.9l-4,3.5L142.8,135.5z"/>
	</g>
	<g id="details_-_copie_5">
		<g id="XMLID_48_">
			<path id="XMLID_53_" class="st16" d="M144.5,145.4c0,0-2.7,2.3-5.6,1.9c-2.9-0.4-2.9-4.5-2.9-4.5s-1,0.2-3.2-1
				c-2.2-1.2,1.1-6.1,1.1-6.1c-3-0.7-3.9,2.3-4.1,2.3c-5.5-2.9-4.7-9.2-4.2-11.6c-0.8,1-1.4,2.1-1.4,3c-0.4,7,3.8,9.7,5.1,10.4
				c0.2,0.1,0.3,0.3,0.4,0.6c0,0.5,0.4,1.5,1.8,2.5c1.1,0.8,1.9,1.1,2.5,1.2c0.5,0.1,1,0.4,1.2,0.9c0.5,1.3,1.8,3.6,4.4,4.1
				c3.7,0.7,5.5-1.8,5.5-1.8s0.6-0.4,1-0.4l-0.7-0.6c-0.2-0.1-0.3-0.3-0.4-0.5L144.5,145.4z"/>
			<path id="XMLID_52_" class="st16" d="M152.6,148.3c0.3,0.5,2.4,0.5,2.4,0.5c0.4,0.5,0.5,0.1,1.1,0.4c-0.1-0.1-0.2-0.2-0.5-0.3
				c-3.4-2.1-3.4-7.2-3.4-7.2c-1.5,1.1-0.7,5.3-0.7,5.3c-1.8,0.1-3.2-1.3-3.2-1.3l0,0.2c0,0,0,0,0,0s0.1,1.3,1.4,1.5"/>
		</g>
		<path id="XMLID_47_" class="st18" d="M163.7,118.6c0,0,0.9,2.9,3.3,2.5c2.4-0.4,3-2.6,3-2.6s1.7-0.6,0.9-1.8
			c-0.8-1.2-4.7-0.9-4.7-0.9s-5.1-2.2-5.5,0.7C160.2,119.4,163.7,118.6,163.7,118.6z"/>
		<path id="XMLID_38_" class="st19" d="M140.1,143.6c0,0-2.3,0.2-2.6-1.8s1.9-1.2,1.9-1.2s0.4-1,2.3-0.4c1.8,0.7,1.8,1.5,1.8,1.5
			s1.3,0.9,0.4,1.8s-2.1,0.7-2.1,0.7s-0.4,0.5-1.1,0.1C140,144.1,140.1,143.6,140.1,143.6z"/>
		<path id="XMLID_37_" class="st20" d="M151.6,106.4c0,0-1.7-0.5-1-1.9c0.7-1.5,2.8-0.2,2.8-0.2s1.9-0.3,2.4,0.5
			c0.5,0.9-0.5,1.6-0.5,1.6s0.4,1.3-0.6,1.4C153.8,107.8,151.6,107.5,151.6,106.4z"/>
		<path id="XMLID_31_" class="st19" d="M148.8,143.1c0,0-0.3,1.4-1.8,0.9s-0.7-2.2-0.7-2.2s-0.5-0.6,0.6-1.6c1.1-1,2.1-0.2,2.1-0.2
			s1-0.6,1.4,0.3s0,1.2,0,1.2s-0.1,0.9-0.5,1.3C149.3,143.1,148.8,143.1,148.8,143.1z"/>
	</g>
</g>
<g id="dust7" class="st0">
	<g id="one" class="st2">
		<g id="base_-_copie_6">
			<path id="XMLID_166_" class="st10" d="M135.5,146.8c0,0-0.4,3.5-4.7,4.1c-1.3,0.2-3.4-1.3-3.4-2c0,0-0.5,0.7-1.4,0.6
				c-0.9-0.1-1.3-0.8-1.3-1.2c0,0-1.5,1.9-2.5,0.6c-1-1.3-0.5-3.7,1.1-3.3c0,0-0.9-0.5-0.9-2.1c0,0-0.4,2.1-2.3,1.3
				c-1.9-0.8-1.3-4.1-1.3-4.1s-1.9-0.7-1.7-2.4c0.1-1.3,1.3-1.5,1.3-1.5s-0.3-1.2,0.7-1.2c0,0-0.6-1.5-0.2-2.5
				c0.4-1,2.3-1.5,2.3-1.5s-1.1-2.5,2.3-3s5.6-0.5,5.8,0.9c0,0,1.3-0.9,1.8,1.1c0,0,2.2-2.5,4.4-1.1s2.5,2.5,1.4,4.2
				c0,0,0.5,0.1,0.4,0.9c-0.1,0.8-0.7,0.8-0.7,0.8s0.5,0,0.5,0.7c0,0.7-0.6,0.9-0.6,0.9s0.5,0,0.7,0.5c0.2,0.4,0.2,0.9,0.2,0.9
				s1.7,0.8,1.8,2.7c0,1.9-2,2.9-2,2.9s0.3,0.6-0.3,1.8C136.3,147,135.5,146.8,135.5,146.8z"/>
		</g>
		<g id="Calque_26_-_copie_6">
			<g id="XMLID_126_">
				<path id="XMLID_128_" class="st11" d="M126.7,130.2c0.8-0.8,1.8,0.5,1.9,0.5c1.4-0.2,1.5,1.4,1.5,1.4c0.2-0.6,1.1-0.5,1.1-0.5
					c1.4,0.3,0.9,2.5,0.9,2.5c-1.5,2-3.9,0.3-3.9,0.3c-0.1,0.3-0.3,0.3-0.4,0.3c0.3,0.1,0.3,1,0.3,1c0-0.5,0.5-0.4,0.5-0.4
					s2.6-0.1,3.4,1.5c0.8,1.6-1.2,3.3-1.2,3.3s0.7,0,1.2,0.7c0.5,0.7-0.1,1.4-0.1,1.4s0.5,0.1,0.5,1.3c0,1.2-1.2,1.7-1.2,1.7
					s0.4,0.5,0,1.8c-0.4,1.3-2,0-2,0c-0.9-0.1-1.7,0.9-1.7,0.9c0.1,0.5,0,0.8,0,1.1c0.1,0.7,2.1,2.1,3.4,1.9
					c4.2-0.6,4.7-4.1,4.7-4.1s0.8,0.3,1.4-1c0.6-1.3,0.3-1.8,0.3-1.8s2.1-1,2-2.9c0-1.9-1.8-2.7-1.8-2.7s0-0.5-0.2-0.9
					c-0.2-0.4-0.7-0.5-0.7-0.5s0.6-0.2,0.6-0.9c0-0.7-0.5-0.7-0.5-0.7s0.6,0,0.7-0.8c0.1-0.8-0.4-0.9-0.4-0.9
					c1.1-1.8,0.8-2.8-1.4-4.2s-4.4,1.1-4.4,1.1c-0.6-1.9-1.8-1.1-1.8-1.1c-0.2-1.4-2.3-1.4-5.7-0.9
					C125,128.8,126.7,130.2,126.7,130.2z"/>
				<path id="XMLID_127_" class="st11" d="M127.7,134.7C127.7,134.7,127.7,134.7,127.7,134.7C127.7,134.7,127.7,134.6,127.7,134.7z"
					/>
			</g>
		</g>
		<g id="details_-_copie_6">
			<g id="XMLID_123_">
				<path id="XMLID_125_" class="st16" d="M136.7,139c0,0,1.4,1.1,1.6,2.6c0.1,1.5-1.9,1.9-1.9,1.9s0.2,0.5-0.2,1.7
					c-0.4,1.2-3.2,0.1-3.2,0.1c-0.1,1.6,1.6,1.7,1.6,1.8c-0.9,3.1-4.1,3.3-5.4,3.3c0.6,0.3,1.2,0.5,1.7,0.4c4.2-0.6,4.7-4.1,4.7-4.1
					s0.8,0.3,1.4-1c0.6-1.3,0.3-1.8,0.3-1.8s2.1-1,2-2.9c0-1.9-1.8-2.7-1.8-2.7s0-0.2,0-0.4l-0.2,0.4c0,0.1-0.1,0.2-0.2,0.3
					L136.7,139z"/>
				<path id="XMLID_124_" class="st16" d="M137.3,133c-0.7,1.9-3.3,2.5-3.3,2.5c0.7,0.6,2.4,0,2.4,0c0.2,0.9,0,1.5,0,1.5l0.1,0
					c0,0,0,0,0,0s0.6-0.2,0.6-0.9c0-0.7-0.5-0.7-0.5-0.7s0.6,0,0.7-0.8c0.1-0.8-0.4-0.9-0.4-0.9c0.2-0.4,0.4-0.7,0.5-1.1
					C137.4,132.7,137.4,132.8,137.3,133z"/>
			</g>
			<path id="XMLID_115_" class="st18" d="M126.8,140.5c0,0,1.4-0.7,0.9-1.9s-1.6-1.2-1.6-1.2s-0.5-0.8-1-0.3
				c-0.5,0.6,0.1,2.5,0.1,2.5s-0.6,2.8,0.9,2.7C127.6,142.2,126.8,140.5,126.8,140.5z"/>
			<path id="XMLID_114_" class="st19" d="M136.3,141.3c0,0,0.4,1.1-0.6,1.5c-1,0.3-0.8-0.8-0.8-0.8s-0.6-0.1-0.4-1.1
				c0.2-1,0.6-1.1,0.6-1.1s0.3-0.7,0.9-0.4s0.6,1,0.6,1s0.3,0.2,0.2,0.6C136.6,141.4,136.3,141.3,136.3,141.3z"/>
			<path id="XMLID_113_" class="st20" d="M121.3,142.5c0,0-0.1,0.9-0.9,0.7c-0.8-0.2-0.4-1.4-0.4-1.4s-0.4-0.9,0-1.3
				c0.4-0.3,0.9,0.1,0.9,0.1s0.6-0.4,0.8,0.1S121.9,142.4,121.3,142.5z"/>
			<path id="XMLID_112_" class="st19" d="M135.3,131.3c0,0,0.7,0,0.6,0.8s-1,0.6-1,0.6s-0.3,0.3-0.9-0.1s-0.3-1-0.3-1
				s-0.4-0.4,0-0.7c0.4-0.3,0.6-0.1,0.6-0.1s0.5-0.1,0.7,0.1C135.3,131.1,135.3,131.3,135.3,131.3z"/>
		</g>
	</g>
	<g id="two" class="st2">
		<g id="base_-_copie_7">
			<path id="XMLID_168_" class="st10" d="M160.5,114.7c0,0-2.5-2.4-0.5-6.2c0.6-1.1,3.1-1.9,3.6-1.5c0,0-0.3-0.8,0.4-1.5
				s1.4-0.6,1.8-0.3c0,0-0.6-2.3,1.1-2.4c1.6,0,3.2,1.8,1.9,2.9c0,0,0.9-0.4,2.2,0.5c0,0-1.4-1.6,0.3-2.6c1.8-1.1,4,1.4,4,1.4
				s1.7-1.1,3,0.1c0.9,0.9,0.4,1.9,0.4,1.9s1.1,0.5,0.6,1.3c0,0,1.6,0.4,2.1,1.3s-0.2,2.8-0.2,2.8s2.7,0.6,1,3.7
				c-1.7,3.1-3,4.8-4.2,4.1c0,0-0.1,1.5-2,0.8c0,0,0.7,3.3-1.8,4.1c-2.5,0.9-3.5,0.5-4.2-1.4c0,0-0.4,0.4-0.9-0.2
				c-0.6-0.6-0.2-1.1-0.2-1.1s-0.3,0.4-0.8,0c-0.5-0.4-0.3-1-0.3-1s-0.3,0.4-0.8,0.3s-0.8-0.4-0.8-0.4s-1.7,0.9-3.2-0.2
				c-1.6-1.1-1.1-3.4-1.1-3.4s-0.7-0.1-1.3-1.3C159.8,115.2,160.5,114.7,160.5,114.7z"/>
		</g>
		<g id="Calque_26_-_copie_7">
			<g id="XMLID_150_">
				<path id="XMLID_153_" class="st11" d="M179,117.7c0.2,1.1-1.4,1.1-1.5,1.2c-0.7,1.3-2,0.4-2,0.4c0.4,0.5-0.3,1.2-0.3,1.2
					c-1.1,0.9-2.5-0.8-2.5-0.8c-0.7-2.4,2.1-3.2,2.1-3.2c-0.2-0.2-0.1-0.4,0-0.5c-0.3,0.2-1-0.4-1-0.4c0.3,0.3,0,0.7,0,0.7
					s-1.5,2.1-3.2,1.8c-1.8-0.3-1.9-2.9-1.9-2.9s-0.4,0.5-1.3,0.5c-0.8,0-1.1-0.9-1.1-0.9s-0.3,0.3-1.4-0.4c-1-0.7-0.6-2-0.6-2
					s-0.6,0-1.4-1.1c-0.8-1.1,1.2-1.6,1.2-1.6c0.6-0.6,0.3-1.9,0.3-1.9c-0.4-0.2-0.7-0.5-0.8-0.7c-0.7-0.4-2.9,0.4-3.6,1.5
					c-2.1,3.8,0.5,6.2,0.5,6.2s-0.7,0.4,0,1.7c0.6,1.2,1.3,1.3,1.3,1.3s-0.5,2.2,1.1,3.4c1.6,1.1,3.2,0.2,3.2,0.2s0.4,0.3,0.8,0.4
					c0.5,0.1,0.8-0.3,0.8-0.3s-0.2,0.6,0.3,1c0.5,0.4,0.8,0,0.8,0s-0.3,0.5,0.2,1.1c0.6,0.6,0.9,0.2,0.9,0.2
					c0.7,1.9,1.7,2.3,4.2,1.4c2.5-0.9,1.8-4.1,1.8-4.1c1.9,0.7,2-0.8,2-0.8c1.2,0.7,2.5-1,4.2-4C181.1,117.2,179,117.7,179,117.7z"
					/>
				<path id="XMLID_152_" class="st11" d="M174.9,115.8C174.9,115.8,174.9,115.8,174.9,115.8C174.8,115.8,174.9,115.8,174.9,115.8z"
					/>
			</g>
		</g>
		<g id="details_-_copie_7">
			<g id="XMLID_161_">
				<path id="XMLID_163_" class="st16" d="M166,120.4c0,0-1.8,0.5-3-0.4c-1.3-0.8-0.3-2.7-0.3-2.7s-0.5-0.1-1.3-1.2
					c-0.8-1,1.9-2.6,1.9-2.6c-1.2-1-2.3,0.2-2.4,0.1c-1.9-2.6-0.2-5.3,0.6-6.3c-0.6,0.3-1.1,0.7-1.3,1.1c-2.1,3.8,0.5,6.2,0.5,6.2
					s-0.7,0.4,0,1.7c0.6,1.2,1.3,1.3,1.3,1.3s-0.5,2.2,1.1,3.4c1.6,1.1,3.2,0.2,3.2,0.2s0.1,0.1,0.3,0.2l-0.2-0.4
					c-0.1-0.1-0.1-0.2-0.1-0.3L166,120.4z"/>
				<path id="XMLID_162_" class="st16" d="M170.4,124.5c-1.1-1.7,0-4.1,0-4.1c-0.9,0.2-1.5,1.9-1.5,1.9c-0.8-0.4-1.2-0.9-1.2-0.9
					l-0.1,0.1c0,0,0,0,0,0s-0.2,0.6,0.3,1c0.5,0.4,0.8,0,0.8,0s-0.3,0.5,0.2,1.1c0.6,0.6,0.9,0.2,0.9,0.2c0.2,0.4,0.3,0.8,0.5,1.1
					C170.6,124.7,170.5,124.6,170.4,124.5z"/>
			</g>
			<path id="XMLID_160_" class="st18" d="M170.7,111.5c0,0-0.2,1.5,1,1.9c1.2,0.3,1.9-0.6,1.9-0.6s0.9,0.1,0.8-0.7s-2-1.4-2-1.4
				s-1.9-2.1-2.7-0.9C169,111.2,170.7,111.5,170.7,111.5z"/>
			<path id="XMLID_159_" class="st19" d="M164.3,118.6c0,0-1.1-0.4-0.8-1.4c0.3-1,1.1-0.2,1.1-0.2s0.4-0.4,1.1,0.3
				c0.7,0.7,0.5,1.1,0.5,1.1s0.4,0.7-0.2,0.9c-0.6,0.3-1.1-0.1-1.1-0.1s-0.3,0.1-0.6-0.2C164.2,118.8,164.3,118.6,164.3,118.6z"/>
			<path id="XMLID_158_" class="st20" d="M172.5,106c0,0-0.7-0.6,0-1.1c0.7-0.5,1.4,0.5,1.4,0.5s1,0.3,1,0.8c0,0.5-0.6,0.6-0.6,0.6
				s-0.1,0.7-0.6,0.5C173.2,107.1,172.2,106.5,172.5,106z"/>
			<path id="XMLID_157_" class="st19" d="M172.9,123.9c0,0-0.5,0.6-1,0s0.1-1.2,0.1-1.2s-0.1-0.4,0.6-0.6c0.7-0.2,1,0.4,1,0.4
				s0.6,0,0.6,0.5c0,0.5-0.2,0.5-0.2,0.5s-0.2,0.4-0.5,0.5C173.2,124,172.9,123.9,172.9,123.9z"/>
		</g>
	</g>
</g>
</svg>
