<svg version="1.0" id="圖層_1" xmlns="http://www.w3.org/2000/svg" x="0" y="0" width="300" height="260" style="enable-background:new 0 0 300 260" xml:space="preserve"><style>.st0{display:none}.st1{display:inline}.st5{fill:#555;stroke:#424143;stroke-width:2;stroke-miterlimit:10}.st5,.st6{display:inline}.st6,.st7{fill:#010101}.st13,.st16,.st8{display:inline;fill:#ec2227}.st13,.st16{fill:#fff;fill-opacity:.78}.st16{fill-opacity:.42}.st37{display:none}.st37,.st38{fill:#fff;fill-opacity:.55}</style><g id="圖層_1_2_"><g id="圖層_12"><g id="圖層_4_6_"><path id="XMLID_184_" class="st7" d="M49.6 194.8h17.8v3.6H49.6z"/><path id="XMLID_195_" class="st7" d="M49.6 166.5h17.8v14.2H49.6z"/><path id="XMLID_183_" class="st7" d="M49.5 138.2h17.8v14.2H49.5z"/><path id="XMLID_182_" class="st7" d="M49.6 109.8h17.8V124H49.6z"/><path id="XMLID_180_" class="st7" d="M49.5 81.5h17.8v14.2H49.5z"/><path id="XMLID_179_" class="st7" d="M49.5 60.2h17.8v7.1H49.5z"/></g></g><g id="圖層_12_1_"><g id="圖層_4_11_"><path id="XMLID_276_" class="st7" d="M232.4 194.8h17.8v3.6h-17.8z"/><path id="XMLID_274_" class="st7" d="M232.4 166.4h17.8v14.2h-17.8z"/><path id="XMLID_273_" class="st7" d="M232.4 138.1h17.8v14.2h-17.8z"/><path id="XMLID_272_" class="st7" d="M232.4 109.7h17.8v14.2h-17.8z"/><path id="XMLID_271_" class="st7" d="M232.4 81.4h17.8v14.2h-17.8z"/><path id="XMLID_270_" class="st7" d="M232.4 60.2h17.8v7.1h-17.8z"/></g></g></g></svg>