<svg version="1.0" xmlns="http://www.w3.org/2000/svg" width="300" height="260" style="enable-background:new 0 0 300 260" xml:space="preserve"><style>.st0{display:none}.st1,.st4{display:inline}.st4{fill:#27aae1}.st8{fill:#555;stroke:#424143;stroke-width:2;stroke-miterlimit:10}.st9{display:inline}.st10,.st9{fill:#010101}.st16{display:inline;fill:#fff;fill-opacity:.78}.st18{fill:#ec2227;stroke:#414042;stroke-width:2;stroke-miterlimit:10}.st18,.st21,.st35{display:inline}.st21{fill:#fff;fill-opacity:.42}.st35{fill:none;stroke:#414042;stroke-width:3;stroke-miterlimit:10}.st36{fill:#fff;fill-opacity:.55}.st37{display:inline;fill:#6d6e71;stroke:#414042;stroke-width:2;stroke-miterlimit:10}.st39{fill:#ec2227}.st43{display:inline;opacity:.2;fill:#fff}.st50{fill:#ec2227;stroke:#414042;stroke-width:2;stroke-miterlimit:10}.st53{fill:#fff;fill-opacity:.42}.st67{fill:none;stroke:#414042;stroke-width:3;stroke-miterlimit:10}.st71{fill:#58595b}.st72{opacity:.29}.st73{opacity:.17}.st80{fill:#cb2890;stroke:#58595b;stroke-width:3;stroke-miterlimit:10}.st81{opacity:.61;fill:#e6e7e8}.st82,.st83{opacity:.3}.st83{fill:#fff}.st84{opacity:.21}.st87{opacity:.18;fill:#fff}.st103,.st88{fill:#cb2890;stroke:#58595b;stroke-width:4;stroke-miterlimit:10}.st103{display:inline;stroke-width:3}.st104{display:inline;opacity:.61;fill:#e6e7e8}.st105,.st106{display:inline;opacity:.3}.st106{fill:#fff}.st107,.st110{display:inline;opacity:.21}.st110{opacity:.18;fill:#fff}.st111{display:inline;fill:#cb2890;stroke:#58595b;stroke-width:4;stroke-miterlimit:10}</style><g id="圖層_2_1_"><path id="XMLID_366_" class="st80" d="M160 145.8s1.3 1.3.5 3.3c-.9 2.3-4.4 8.2-5 9.2 0 .1-.1.2-.1.2-.2.5-1.1 2.4-4.8 2.2-2.9-.2-5.8 0-7.3.1-1 .1-1.9-.4-2.4-1.3-.1-.1-.2-.3-.2-.4-.8-1.6-4.4-10.5-5.2-12.3-.1-.2-.2-.4-.3-.5-.3-.5-1.1-1.7.8-3.3 2.4-1.9 5.1-3.7 5.1-3.7s1-.8 2.4-.7c1.2.1 10.7 3.3 11.9 3.7.1 0 .1 0 .2.1.2.1 1.9.6 4.4 3.4z"/><path id="XMLID_365_" class="st81" d="m148.7 146-.8 2.8s-.2.5-.8.4-5-1.2-5-1.2l5.3 1.8s.4.2 1.4 1.4c.9 1.2 1.9 2.4 1.9 2.4s-2.6-3.3-2.5-4.1c0-.7.5-3.5.5-3.5z"/><path id="XMLID_364_" class="st82" d="M143.2 160.9c1.5-.1 4.4-.3 7.3-.1 3.7.2 4.6-1.8 4.8-2.2 0-.1.1-.2.1-.2.6-1 4.1-6.9 5-9.2.8-2-.5-3.3-.5-3.3l-.3.7s-1.4 5.8-7 8.4c-5.5 2.6-10.7 3-12.6 2.7 0 .1-.1.2-.1.3.1.3.2.5.3.7v.1c0 .1.1.1.1.2v.1c0 .1.1.1.1.2.1.2.2.3.2.4.7.8 1.6 1.2 2.6 1.2z"/><path id="XMLID_363_" class="st83" d="M154.5 142.2c-.9-.3-2.4-.8-4-1.3-.1 0-.3-.1-.4-.1l-.2.2-2 8.9 7 9.5c.1-.1.1-.2.2-.2 0-.1.1-.1.1-.2s.1-.1.1-.1 0-.1.1-.1c0-.1.1-.2.1-.2.6-1 4.1-6.9 5-9.2.8-2-.5-3.3-.5-3.3-2.5-2.8-4.2-3.3-4.6-3.4-.1 0-.1 0-.2-.1-.1 0-.3-.1-.6-.2 0-.2-.1-.2-.1-.2z"/><path id="XMLID_362_" class="st84" d="m139.7 144.8 1.9-5.7c-.3.2-.5.3-.5.3s-2.7 1.7-5.1 3.7c-.5.4-.8.8-1 1.2l4.7.5z"/><linearGradient id="XMLID_519_" gradientUnits="userSpaceOnUse" x1="-9.098" y1="133.908" x2="-9.098" y2="145.547" gradientTransform="rotate(138.616 67.052 170.935)"><stop offset="0" style="stop-color:#fff"/><stop offset=".033" style="stop-color:#fff;stop-opacity:.9674"/><stop offset="1" style="stop-color:#fff;stop-opacity:0"/></linearGradient><path id="XMLID_361_" d="m148.2 148.5.3-1.2s1.2-5.3 1.4-6.1c.1-.3 0-.5-.1-.6-2.8-.9-5.7-1.8-6.4-1.9-.7 0-1.4.2-1.8.4l-1.9 5.7c-.6 1.7.1 2.5.1 2.5s5.6 1.7 6.9 2c1.3.3 1.5-.8 1.5-.8z" style="opacity:.52;fill:url(#XMLID_519_)"/><linearGradient id="XMLID_520_" gradientUnits="userSpaceOnUse" x1="-4.713" y1="143.245" x2=".841" y2="143.245" gradientTransform="rotate(138.616 67.052 170.935)"><stop offset="0" style="stop-color:#000"/><stop offset="1" style="stop-color:#000;stop-opacity:0"/></linearGradient><path id="XMLID_360_" d="m139.7 144.8-4.8-.5c-.5 1 0 1.7.2 2.1.1.1.2.3.3.5.2.4.8 1.9 1.2 2.8 1 0 1.7-.6 2.4-1.6.3-.5.6-1.1.5-1.8-.1-.6.2-1.5.2-1.5z" style="opacity:.46;fill:url(#XMLID_520_)"/><path id="XMLID_359_" class="st87" d="M137.6 148.4s0 .3-.3.3c-.2.1-.4 0-.3-.1s.3-.4.4-.4.2.2.2.2z"/><path id="XMLID_358_" class="st87" d="M138.8 144.3s-.2.1-.4-.1-.3-.3-.1-.3c.2 0 .5 0 .6.1 0 .2-.1.3-.1.3z"/><path id="XMLID_357_" class="st87" d="M144.5 158.1s.1.3-.2.4c-.2.1-.4.2-.3 0s.1-.5.3-.5c.1 0 .2.1.2.1z"/><path id="XMLID_355_" class="st87" d="M147.9 150.7s0 .1-.1.2h-.1s0-.2.2-.2c0-.1 0 0 0 0z"/><path id="XMLID_354_" class="st88" d="M114.4 128.7s-1.8 0-2.6-2c-1-2.3-2.6-9-2.9-10.1 0-.1 0-.2-.1-.3-.2-.5-.9-2.5 1.8-5 2.2-1.9 4.1-4.1 5.1-5.2.6-.7 1.6-1 2.6-.8.1 0 .3.1.5.1 1.8.6 10.5 4.4 12.4 5.1.2.1.4.1.5.2.6.2 2 .5 1.7 2.9-.3 3-1.1 6.2-1.1 6.2s-.2 1.3-1.2 2.2c-.9.8-9.9 5.2-11 5.7-.1 0-.1.1-.2.1-.2.3-1.8 1.2-5.5.9z"/><path id="XMLID_352_" class="st81" d="m122.4 120.6-1.4-2.5s-.2-.5.2-.9 4.5-2.7 4.5-2.7l-5 2.4s-.4.2-1.9 0-3-.3-3-.3 4.2.5 4.7 1.1c.2.6 1.9 2.9 1.9 2.9z"/><path id="XMLID_350_" class="st82" d="M115.8 106.2c-1 1.1-2.9 3.3-5.1 5.2-2.8 2.5-2.1 4.5-1.8 5 0 .1.1.2.1.3.3 1.1 1.9 7.8 2.9 10.1.8 2 2.6 2 2.6 2l-.3-.7s-3.1-5.2-1-10.9 5.5-9.7 7.1-10.8c0-.1-.1-.2-.1-.3-.3-.1-.5-.2-.7-.3h-.1c-.1 0-.1-.1-.2-.1h-.1c-.1 0-.2-.1-.2-.1-.2-.1-.3-.1-.5-.1-1-.3-2 0-2.6.7z"/><path id="XMLID_346_" class="st83" d="M120.9 127.4c.9-.4 2.3-1.1 3.8-1.9.1-.1.3-.1.4-.2v-.3l-4.9-7.7-11.7-1.9v.3c0 .1 0 .2.1.2v.2c0 .1 0 .1.1.1 0 .1.1.2.1.3.3 1.1 1.9 7.8 2.9 10.1.8 2 2.6 2 2.6 2 3.7.3 5.3-.6 5.6-.8.1 0 .1-.1.2-.1.1-.1.3-.2.6-.3.1.1.2.1.2 0z"/><path id="XMLID_343_" class="st84" d="m129.6 115.1 2.6 5.4c.1-.4.2-.6.2-.6s.7-3.1 1.1-6.2c.1-.7 0-1.2-.1-1.6l-3.8 3z"/><linearGradient id="XMLID_521_" gradientUnits="userSpaceOnUse" x1="168.078" y1="224.897" x2="168.078" y2="236.536" gradientTransform="rotate(-86.055 87.608 197.302) scale(.99997)"><stop offset="0" style="stop-color:#fff"/><stop offset=".033" style="stop-color:#fff;stop-opacity:.9674"/><stop offset="1" style="stop-color:#fff;stop-opacity:0"/></linearGradient><path id="XMLID_339_" d="m121 118.5.7 1s2.9 4.6 3.3 5.3c.1.3.3.3.5.3 2.6-1.3 5.3-2.7 5.8-3.1.6-.5.9-1.1 1-1.6 0 0-1.8-3.7-2.6-5.4-.8-1.6-1.8-1.7-1.8-1.7s-5.1 2.7-6.3 3.5-.6 1.7-.6 1.7z" style="opacity:.52;fill:url(#XMLID_521_)"/><linearGradient id="XMLID_522_" gradientUnits="userSpaceOnUse" x1="172.463" y1="234.234" x2="178.018" y2="234.234" gradientTransform="rotate(-86.055 87.608 197.302) scale(.99997)"><stop offset="0" style="stop-color:#000"/><stop offset="1" style="stop-color:#000;stop-opacity:0"/></linearGradient><path id="XMLID_337_" d="m129.6 115.1 3.7-3c-.3-1-1.2-1.2-1.6-1.4-.1-.1-.3-.1-.5-.2-.4-.1-1.9-.8-2.8-1.1-.7.7-.8 1.6-.6 2.8.1.6.4 1.2.9 1.6.5.5.9 1.3.9 1.3z" style="opacity:.46;fill:url(#XMLID_522_)"/><path id="XMLID_317_" class="st87" d="M128.5 111.1s-.2-.2 0-.4c.1-.2.2-.3.3-.2 0 .1.1.5 0 .6-.2.1-.3 0-.3 0z"/><path id="XMLID_91_" class="st87" d="M130.6 114.9s.1-.3.3-.3c.2 0 .4 0 .3.1-.1.1-.3.3-.5.3-.1 0-.1-.1-.1-.1z"/><path id="XMLID_2_" class="st87" d="M116.8 109s-.2-.1-.2-.4.1-.4.2-.2.2.4.2.5c-.1.2-.2.1-.2.1z"/><path id="XMLID_1_" class="st87" d="M119.6 116.7s-.1-.1-.1-.2.1-.1.1 0 .1.1 0 .2z"/></g><g id="圖層_2_拷貝"><path id="XMLID_388_" class="st80" d="M167.5 184.1s-.8 1.6-2.9 1.5c-2.5-.1-9.2-1.6-10.3-1.8h-.3c-.5 0-2.7-.3-3.7-3.8-.8-2.8-1.9-5.5-2.4-6.9-.4-.9-.2-1.9.4-2.7.1-.1.2-.2.3-.4 1.3-1.3 8.5-7.5 10-8.9.2-.1.3-.3.4-.4.4-.4 1.3-1.6 3.4-.3 2.6 1.6 5.1 3.7 5.1 3.7s1.1.7 1.5 2c.3 1.2.3 11.2.3 12.4v.2c0 .4.1 2.2-1.8 5.4z"/><path id="XMLID_387_" class="st81" d="m163.7 173.4-2.9.2s-.5 0-.7-.6c-.1-.6-.4-5.2-.4-5.2v5.6s0 .5-.9 1.7c-.9 1.3-1.6 2.6-1.6 2.6s2.3-3.6 3-3.7c.7-.1 3.5-.6 3.5-.6z"/><path id="XMLID_386_" class="st82" d="M147.9 173c.6 1.4 1.6 4.1 2.4 6.9 1 3.5 3.2 3.8 3.7 3.8h.3c1.1.2 7.8 1.7 10.3 1.8 2.1.1 2.9-1.5 2.9-1.5l-.8-.1s-6 .5-10.2-3.9c-4.2-4.4-6.3-9.2-6.6-11.1h-.3c-.2.2-.4.4-.6.5l-.1.1c-.1.1-.1.1-.2.1l-.1.1-.2.2c-.1.1-.2.2-.3.4-.5.8-.6 1.8-.2 2.7z"/><path id="XMLID_385_" class="st83" d="M169.2 177.7V173l-.3-.1-9.1 1-6.8 9.7c.1 0 .2.1.3.1.1 0 .2 0 .2.1H154.1c1.1.2 7.8 1.7 10.3 1.8 2.1.1 2.9-1.5 2.9-1.5 1.9-3.2 1.8-5 1.7-5.4V177.8c.2 0 .2-.1.2-.1z"/><path id="XMLID_384_" class="st84" d="M162 164.5h6c-.3-.3-.5-.4-.5-.4s-2.5-2-5.1-3.7c-.6-.4-1-.5-1.4-.6l1 4.7z"/><linearGradient id="XMLID_523_" gradientUnits="userSpaceOnUse" x1="-52.37" y1="132.368" x2="-52.37" y2="144.006" gradientTransform="rotate(-150.123 60.12 124.755)"><stop offset="0" style="stop-color:#fff"/><stop offset=".033" style="stop-color:#fff;stop-opacity:.9674"/><stop offset="1" style="stop-color:#fff;stop-opacity:0"/></linearGradient><path id="XMLID_383_" d="m161.2 173.7 1.2-.1s5.4-.6 6.2-.6c.3 0 .5-.1.5-.3 0-2.9-.1-6-.3-6.6-.2-.7-.6-1.2-1-1.6h-6c-1.8 0-2.3.9-2.3.9s.2 5.8.3 7.2c.3 1.4 1.4 1.1 1.4 1.1z" style="opacity:.52;fill:url(#XMLID_523_)"/><linearGradient id="XMLID_524_" gradientUnits="userSpaceOnUse" x1="-47.985" y1="141.704" x2="-42.431" y2="141.704" gradientTransform="rotate(-150.123 60.12 124.755)"><stop offset="0" style="stop-color:#000"/><stop offset="1" style="stop-color:#000;stop-opacity:0"/></linearGradient><path id="XMLID_382_" d="m162 164.5-1.1-4.7c-1.1-.2-1.6.5-1.9.8-.1.1-.2.3-.4.4-.3.3-1.5 1.4-2.2 2 .3.9 1.1 1.5 2.3 1.7.6.1 1.3.2 1.8-.1.5-.1 1.5-.1 1.5-.1z" style="opacity:.46;fill:url(#XMLID_524_)"/><path id="XMLID_381_" class="st87" d="M157.8 163.7s-.3 0-.4-.2-.2-.4 0-.3c.1 0 .5.1.5.3.1.2-.1.2-.1.2z"/><path id="XMLID_380_" class="st87" d="M162.1 163.5s-.2-.2-.1-.4.2-.3.2-.2.2.4.1.6c0 .1-.2 0-.2 0z"/><path id="XMLID_379_" class="st87" d="M150.8 173.3s-.2.1-.4 0c-.2-.2-.3-.3-.1-.3.2 0 .5 0 .6.1s-.1.2-.1.2z"/><path id="XMLID_378_" class="st87" d="M159 174.2s-.1.1-.2 0-.1-.1 0-.1.1-.1.2 0 0 .1 0 .1z"/><path id="XMLID_377_" class="st88" d="M169.1 135.4s-.6-1.7 1.1-3.1c1.9-1.7 7.7-5.4 8.6-6 .1 0 .1-.1.2-.2.4-.4 2.1-1.7 5.3.1 2.5 1.4 5.2 2.6 6.6 3.2.9.4 1.5 1.2 1.6 2.2v.5c0 1.8-.8 11.3-.8 13.3v.6c0 .6.2 2-2.2 2.5-3 .7-6.2 1-6.2 1s-1.3.3-2.4-.4c-1.1-.6-8.1-7.7-8.9-8.6-.1-.1-.1-.1-.2-.1-.5-.2-1.8-1.4-2.7-5z"/><path id="XMLID_376_" class="st81" d="m179.3 140.3 2-2.2s.4-.4.9-.1 3.9 3.4 3.9 3.4l-3.9-4s-.3-.4-.6-1.9-.7-3-.7-3 .9 4.2.4 4.8c-.4.7-2 3-2 3z"/><path id="XMLID_375_" class="st82" d="M190.8 129.5c-1.4-.6-4-1.7-6.6-3.2-3.2-1.8-4.9-.5-5.3-.1l-.2.2c-1 .6-6.7 4.3-8.6 6-1.6 1.4-1.1 3.1-1.1 3.1l.6-.5s3.9-4.6 10-4.4c6.1.2 10.9 2.1 12.5 3.2l.2-.2V131.7c0-1-.6-1.9-1.5-2.2z"/><path id="XMLID_374_" class="st83" d="m172.3 141.2 3 3 .3.3.3-.1 5.7-7.1-2-11.6c-.1 0-.2.1-.3.1-.1 0-.1.1-.2.1l-.1.1-.1.1-.2.2c-1 .6-6.7 4.3-8.6 6-1.6 1.4-1.1 3.1-1.1 3.1 1 3.6 2.3 4.8 2.6 5 .1 0 .1.1.2.1.1.2.2.4.5.7 0-.1 0-.1 0 0z"/><path id="XMLID_373_" class="st84" d="m186.8 145.4-4.3 4.2c.4 0 .6-.1.6-.1s3.2-.3 6.2-1c.7-.1 1.1-.4 1.4-.6l-3.9-2.5z"/><linearGradient id="XMLID_525_" gradientUnits="userSpaceOnUse" x1="197.768" y1="256.415" x2="197.768" y2="268.053" gradientTransform="rotate(-14.805 -265.981 264.323)"><stop offset="0" style="stop-color:#fff"/><stop offset=".033" style="stop-color:#fff;stop-opacity:.9674"/><stop offset="1" style="stop-color:#fff;stop-opacity:0"/></linearGradient><path id="XMLID_372_" d="m180.8 138.4-.8 1s-3.4 4.2-4 4.8c-.2.2-.2.4-.2.6 2.1 2.1 4.3 4.2 4.9 4.5.6.4 1.3.5 1.8.4 0 0 3-2.9 4.3-4.2 1.3-1.3 1-2.3 1-2.3s-4.2-4-5.3-4.9c-1-.9-1.7.1-1.7.1z" style="opacity:.52;fill:url(#XMLID_525_)"/><linearGradient id="XMLID_526_" gradientUnits="userSpaceOnUse" x1="202.153" y1="265.752" x2="207.707" y2="265.752" gradientTransform="rotate(-14.805 -265.981 264.323)"><stop offset="0" style="stop-color:#000"/><stop offset="1" style="stop-color:#000;stop-opacity:0"/></linearGradient><path id="XMLID_371_" d="m186.8 145.4 4 2.6c.9-.6.8-1.5.8-1.9v-.6c0-.4.1-2 .2-3-.9-.4-1.8-.3-2.8.4-.5.3-1 .7-1.3 1.3-.3.6-.9 1.2-.9 1.2z" style="opacity:.46;fill:url(#XMLID_526_)"/><path id="XMLID_370_" class="st87" d="M190.3 143.1s.2-.2.4-.2c.2.1.4.1.2.2-.1.1-.4.2-.5.2-.2-.1-.1-.2-.1-.2z"/><path id="XMLID_369_" class="st87" d="M187.3 146.3s.3 0 .3.2c.1.2.1.4 0 .3s-.4-.2-.4-.4.1-.1.1-.1z"/><path id="XMLID_368_" class="st87" d="M188.5 131.3s.1-.3.3-.3.4 0 .3.1c-.1.1-.3.4-.5.3-.1.1-.1-.1-.1-.1z"/><path id="XMLID_367_" class="st87" d="M182.1 136.5s0-.1.1-.1.1 0 .1.1c-.1 0-.1.1-.2 0z"/></g><g id="圖層_2_拷貝_2"><path id="XMLID_410_" class="st80" d="M134.5 173.1s-.8 1.6-2.9 1.5c-2.5-.1-9.2-1.6-10.3-1.8h-.3c-.5 0-2.7-.3-3.7-3.8-.8-2.8-1.9-5.5-2.4-6.9-.4-.9-.2-1.9.4-2.7.1-.1.2-.2.3-.4 1.3-1.3 8.5-7.5 10-8.9.2-.1.3-.3.4-.4.4-.4 1.3-1.6 3.4-.3 2.6 1.6 5.1 3.7 5.1 3.7s1.1.7 1.5 2c.3 1.2.3 11.2.3 12.4v.2c-.1.4 0 2.2-1.8 5.4z"/><path id="XMLID_409_" class="st81" d="m130.7 162.4-2.9.2s-.5 0-.7-.6c-.1-.6-.4-5.2-.4-5.2v5.6s0 .5-.9 1.7c-.9 1.3-1.6 2.6-1.6 2.6s2.3-3.6 3-3.7c.7-.1 3.5-.6 3.5-.6z"/><path id="XMLID_408_" class="st82" d="M114.8 162.1c.6 1.4 1.6 4.1 2.4 6.9 1 3.5 3.2 3.8 3.7 3.8h.3c1.1.2 7.8 1.7 10.3 1.8 2.1.1 2.9-1.5 2.9-1.5l-.8-.1s-6 .5-10.2-3.9c-4.2-4.4-6.3-9.2-6.6-11.1h-.3c-.2.2-.4.4-.6.5l-.1.1c-.1.1-.1.1-.2.1l-.1.1-.2.2c-.1.1-.2.2-.3.4-.4.7-.6 1.8-.2 2.7z"/><path id="XMLID_407_" class="st83" d="M136.2 166.7V162l-.3-.1-9.1 1-6.8 9.7c.1 0 .2.1.3.1.1 0 .2 0 .2.1H121.1c1.1.2 7.8 1.7 10.3 1.8 2.1.1 2.9-1.5 2.9-1.5 1.9-3.2 1.8-5 1.7-5.4V166.8c.2 0 .2 0 .2-.1z"/><path id="XMLID_406_" class="st84" d="M128.9 153.5h6c-.3-.3-.5-.4-.5-.4s-2.5-2-5.1-3.7c-.6-.4-1-.5-1.4-.6l1 4.7z"/><linearGradient id="XMLID_527_" gradientUnits="userSpaceOnUse" x1="-18.261" y1="125.432" x2="-18.261" y2="137.07" gradientTransform="rotate(-150.123 60.12 124.755)"><stop offset="0" style="stop-color:#fff"/><stop offset=".033" style="stop-color:#fff;stop-opacity:.9674"/><stop offset="1" style="stop-color:#fff;stop-opacity:0"/></linearGradient><path id="XMLID_405_" d="m128.2 162.8 1.2-.1s5.4-.6 6.2-.6c.3 0 .5-.1.5-.3 0-2.9-.1-6-.3-6.6-.2-.7-.6-1.2-1-1.6h-6c-1.8 0-2.3.9-2.3.9s.2 5.8.3 7.2 1.4 1.1 1.4 1.1z" style="opacity:.52;fill:url(#XMLID_527_)"/><linearGradient id="XMLID_528_" gradientUnits="userSpaceOnUse" x1="-13.876" y1="134.768" x2="-8.322" y2="134.768" gradientTransform="rotate(-150.123 60.12 124.755)"><stop offset="0" style="stop-color:#000"/><stop offset="1" style="stop-color:#000;stop-opacity:0"/></linearGradient><path id="XMLID_404_" d="m128.9 153.5-1.1-4.7c-1.1-.2-1.6.5-1.9.8-.1.1-.2.3-.4.4-.3.3-1.5 1.4-2.2 2 .3.9 1.1 1.5 2.3 1.7.6.1 1.3.2 1.8-.1.6-.1 1.5-.1 1.5-.1z" style="opacity:.46;fill:url(#XMLID_528_)"/><path id="XMLID_403_" class="st87" d="M124.8 152.8s-.3 0-.4-.2c-.1-.2-.2-.4 0-.3s.5.1.5.3c0 .1-.1.2-.1.2z"/><path id="XMLID_402_" class="st87" d="M129.1 152.5s-.2-.2-.1-.4.2-.3.2-.2c0 .1.2.4.1.6-.1.1-.2 0-.2 0z"/><path id="XMLID_401_" class="st87" d="M117.8 162.4s-.2.1-.4 0c-.2-.2-.3-.3-.1-.3.2 0 .5 0 .6.1 0 .1-.1.2-.1.2z"/><path id="XMLID_400_" class="st87" d="M126 163.2s-.1.1-.2 0-.1-.1 0-.1.1-.1.2 0 0 .1 0 .1z"/><path id="XMLID_399_" class="st88" d="M136 124.4s-.6-1.7 1.1-3.1c1.9-1.7 7.7-5.4 8.6-6 .1 0 .1-.1.2-.2.4-.4 2.1-1.7 5.3.1 2.5 1.4 5.2 2.6 6.6 3.2.9.4 1.5 1.2 1.6 2.2v.5c0 1.8-.8 11.3-.8 13.3v.6c0 .6.2 2-2.2 2.5-3 .7-6.2 1-6.2 1s-1.3.3-2.4-.4c-1.1-.6-8.1-7.7-8.9-8.6-.1-.1-.1-.1-.2-.1-.4-.2-1.7-1.4-2.7-5z"/><path id="XMLID_398_" class="st81" d="m146.2 129.4 2-2.2s.4-.4.9-.1c.5.3 3.9 3.4 3.9 3.4l-3.9-4s-.3-.4-.6-1.9-.7-3-.7-3 .9 4.2.4 4.8-2 3-2 3z"/><path id="XMLID_397_" class="st82" d="M157.8 118.5c-1.4-.6-4-1.7-6.6-3.2-3.2-1.8-4.9-.5-5.3-.1l-.2.2c-1 .6-6.7 4.3-8.6 6-1.6 1.4-1.1 3.1-1.1 3.1l.6-.5s3.9-4.6 10-4.4c6.1.2 10.9 2.1 12.5 3.2l.2-.2V120.7c0-1-.6-1.8-1.5-2.2z"/><path id="XMLID_396_" class="st83" d="m139.3 130.2 3 3 .3.3.3-.1 5.7-7.1-2-11.6c-.1 0-.2.1-.3.1-.1 0-.1.1-.2.1l-.1.1-.1.1-.2.2c-1 .6-6.7 4.3-8.6 6-1.6 1.4-1.1 3.1-1.1 3.1 1 3.6 2.3 4.8 2.6 5 .1 0 .1.1.2.1.1.2.2.4.5.7 0-.1 0-.1 0 0z"/><path id="XMLID_395_" class="st84" d="m153.8 134.5-4.3 4.2c.4 0 .6-.1.6-.1s3.2-.3 6.2-1c.7-.1 1.1-.4 1.4-.6l-3.9-2.5z"/><linearGradient id="XMLID_529_" gradientUnits="userSpaceOnUse" x1="168.635" y1="237.367" x2="168.635" y2="249.006" gradientTransform="rotate(-14.805 -265.981 264.323)"><stop offset="0" style="stop-color:#fff"/><stop offset=".033" style="stop-color:#fff;stop-opacity:.9674"/><stop offset="1" style="stop-color:#fff;stop-opacity:0"/></linearGradient><path id="XMLID_394_" d="m147.8 127.4-.8 1s-3.4 4.2-4 4.8c-.2.2-.2.4-.2.6 2.1 2.1 4.3 4.2 4.9 4.5.6.4 1.3.5 1.8.4 0 0 3-2.9 4.3-4.2 1.3-1.3 1-2.3 1-2.3s-4.2-4-5.3-4.9-1.7.1-1.7.1z" style="opacity:.52;fill:url(#XMLID_529_)"/><linearGradient id="XMLID_530_" gradientUnits="userSpaceOnUse" x1="173.02" y1="246.704" x2="178.575" y2="246.704" gradientTransform="rotate(-14.805 -265.981 264.323)"><stop offset="0" style="stop-color:#000"/><stop offset="1" style="stop-color:#000;stop-opacity:0"/></linearGradient><path id="XMLID_393_" d="m153.8 134.5 4 2.6c.9-.6.8-1.5.8-1.9v-.6c0-.4.1-2 .2-3-.9-.4-1.8-.3-2.8.4-.5.3-1 .7-1.3 1.3-.3.5-.9 1.2-.9 1.2z" style="opacity:.46;fill:url(#XMLID_530_)"/><path id="XMLID_392_" class="st87" d="M157.2 132.1s.2-.2.4-.2c.2.1.4.1.2.2-.1.1-.4.2-.5.2s-.1-.2-.1-.2z"/><path id="XMLID_391_" class="st87" d="M154.3 135.3s.3 0 .3.2c.1.2.1.4 0 .3s-.4-.2-.4-.4.1-.1.1-.1z"/><path id="XMLID_390_" class="st87" d="M155.4 120.4s.1-.3.3-.3c.2 0 .4 0 .3.1s-.3.4-.5.3-.1-.1-.1-.1z"/><path id="XMLID_389_" class="st87" d="M149 125.5s0-.1.1-.1.1 0 .1.1c0 0 0 .1-.2 0 0 .1 0 0 0 0z"/></g><g id="圖層_2_拷貝_3"><path id="XMLID_432_" class="st80" d="M185.5 157.6s.3 1.8-1.5 2.9c-2.1 1.4-8.4 4.1-9.5 4.5-.1 0-.2.1-.2.1-.4.3-2.3 1.3-5.2-1-2.3-1.8-4.7-3.4-6-4.2-.8-.5-1.3-1.5-1.2-2.4 0-.2 0-.3.1-.5.3-1.8 2.6-11.1 3-13 0-.2.1-.4.1-.6.1-.6.1-2 2.6-2.1 3.1-.2 6.3 0 6.3 0s1.3-.1 2.3.8c1 .8 6.7 8.9 7.4 10 0 .1.1.1.1.2.3.2 1.4 1.6 1.7 5.3z"/><path id="XMLID_431_" class="st81" d="m176.3 151.1-2.3 1.8s-.4.3-.9-.1c-.4-.4-3.3-4-3.3-4l3.2 4.6s.2.4.3 1.9c0 1.5.2 3.1.2 3.1s-.2-4.2.3-4.8 2.5-2.5 2.5-2.5z"/><path id="XMLID_430_" class="st82" d="M163.1 160c1.3.8 3.7 2.4 6 4.2 2.9 2.3 4.8 1.3 5.2 1 .1-.1.2-.1.2-.1 1-.4 7.4-3.1 9.5-4.5 1.8-1.1 1.5-2.9 1.5-2.9l-.7.4s-4.6 3.9-10.6 2.7c-6-1.2-10.4-3.9-11.8-5.2-.1.1-.2.1-.2.2-.1.3-.1.5-.2.7V157.1c0 .2 0 .3-.1.5-.1.9.4 1.8 1.2 2.4z"/><path id="XMLID_429_" class="st83" d="M183.2 151.4c-.5-.8-1.5-2.1-2.5-3.4-.1-.1-.2-.3-.3-.4l-.3.1-6.8 6.1.1 11.8c.1 0 .2-.1.3-.1.1 0 .2-.1.2-.1.1 0 .1-.1.1-.1l.1-.1c.1-.1.2-.1.2-.1 1-.4 7.4-3.1 9.5-4.5 1.8-1.1 1.5-2.9 1.5-2.9-.4-3.7-1.4-5.1-1.7-5.4 0-.1-.1-.1-.1-.2.1-.1 0-.3-.3-.7.1.1.1.1 0 0z"/><path id="XMLID_428_" class="st84" d="m169.7 144.8 4.9-3.5c-.4-.1-.6 0-.6 0s-3.2-.2-6.3 0c-.7 0-1.2.2-1.5.4l3.5 3.1z"/><linearGradient id="XMLID_531_" gradientUnits="userSpaceOnUse" x1="-41.961" y1="152.525" x2="-41.961" y2="164.164" gradientTransform="rotate(174.538 66.44 157.949) scale(1.00004)"><stop offset="0" style="stop-color:#fff"/><stop offset=".033" style="stop-color:#fff;stop-opacity:.9674"/><stop offset="1" style="stop-color:#fff;stop-opacity:0"/></linearGradient><path id="XMLID_427_" d="m174.4 152.8.9-.8s4.1-3.6 4.7-4.1c.2-.2.3-.4.3-.5-1.7-2.4-3.6-4.8-4.1-5.2-.6-.5-1.2-.7-1.7-.7 0 0-3.4 2.4-4.9 3.5-1.5 1.1-1.4 2.1-1.4 2.1s3.5 4.6 4.4 5.7c1 .9 1.8 0 1.8 0z" style="opacity:.52;fill:url(#XMLID_531_)"/><linearGradient id="XMLID_532_" gradientUnits="userSpaceOnUse" x1="-37.576" y1="161.862" x2="-32.022" y2="161.862" gradientTransform="rotate(174.538 66.44 157.949) scale(1.00004)"><stop offset="0" style="stop-color:#000"/><stop offset="1" style="stop-color:#000;stop-opacity:0"/></linearGradient><path id="XMLID_426_" d="m169.7 144.8-3.6-3.2c-1 .5-1 1.4-1.1 1.8 0 .1-.1.4-.1.6-.1.4-.4 2-.7 2.9.8.5 1.8.5 2.8.1.5-.2 1.1-.6 1.5-1.1.4-.5 1.2-1.1 1.2-1.1z" style="opacity:.46;fill:url(#XMLID_532_)"/><path id="XMLID_425_" class="st87" d="M165.9 146.6s-.2.2-.4.1-.3-.2-.2-.2c.1 0 .4-.2.6-.1v.2z"/><path id="XMLID_424_" class="st87" d="M169.3 143.9s-.3 0-.3-.3c0-.2 0-.4.1-.3.1.1.4.3.4.4-.1.2-.2.2-.2.2z"/><path id="XMLID_423_" class="st87" d="M165.7 158.5s-.1.2-.4.2-.4-.1-.3-.2c.1-.1.4-.3.5-.3.3.1.2.3.2.3z"/><path id="XMLID_422_" class="st87" d="M172.9 154.5s0 .1-.1.1-.1 0 0-.1c-.1-.1 0-.2.1 0 0-.1 0 0 0 0z"/><path id="XMLID_421_" class="st88" d="M156.9 119.9s-1.4-1.1-.9-3.2c.6-2.5 3.1-8.8 3.6-9.9 0-.1.1-.2.1-.3.1-.5.7-2.6 4.4-3 2.9-.3 5.7-.9 7.2-1.2 1-.2 1.9.1 2.6.9.1.1.2.2.3.4 1.1 1.5 5.9 9.7 7.1 11.4.1.2.2.3.3.5.4.5 1.3 1.5-.3 3.4-2.1 2.3-4.5 4.4-4.5 4.4s-.9 1-2.2 1.1c-1.2.1-11.1-1.6-12.3-1.9h-.2c-.6 0-2.3-.2-5.2-2.6z"/><path id="XMLID_420_" class="st81" d="m168.1 118 .3-2.9s.1-.5.7-.6c.6 0 5.2.5 5.2.5l-5.5-1s-.5-.1-1.6-1.2c-1.1-1.1-2.3-2.1-2.3-2.1s3.1 2.9 3.1 3.6.1 3.7.1 3.7z"/><path id="XMLID_419_" class="st82" d="M171.2 102.5c-1.5.3-4.3.9-7.2 1.2-3.7.4-4.3 2.4-4.4 3 0 .1 0 .2-.1.3-.4 1-3 7.4-3.6 9.9-.5 2.1.9 3.2.9 3.2l.2-.7s.5-6 5.6-9.4c5.1-3.4 10.1-4.6 12-4.6 0-.1 0-.2.1-.3-.2-.2-.3-.5-.4-.6v-.1c0-.1-.1-.1-.1-.2v-.1c0-.1-.1-.1-.1-.2-.1-.1-.2-.3-.3-.4-.6-.9-1.6-1.2-2.6-1z"/><path id="XMLID_418_" class="st83" d="M162.9 122.7c.9.2 2.5.4 4.2.7.2 0 .3.1.5.1l.2-.3.6-9.1-8.3-8.3c-.1.1-.1.2-.1.3 0 .1-.1.2-.1.2 0 .1 0 .1-.1.2v.1c0 .1 0 .2-.1.3-.4 1-3 7.4-3.6 9.9-.5 2.1.9 3.2.9 3.2 2.9 2.4 4.6 2.6 5 2.6h.2c.1 0 .4.1.7.1-.1 0 0 0 0 0z"/><path id="XMLID_417_" class="st84" d="m177.2 117.8-1 5.9c.3-.2.5-.4.5-.4s2.4-2.1 4.5-4.4c.4-.5.7-.9.8-1.3l-4.8.2z"/><linearGradient id="XMLID_533_" gradientUnits="userSpaceOnUse" x1="201.194" y1="235.293" x2="201.194" y2="246.932" gradientTransform="rotate(-50.136 56.577 211.225)"><stop offset="0" style="stop-color:#fff"/><stop offset=".033" style="stop-color:#fff;stop-opacity:.9674"/><stop offset="1" style="stop-color:#fff;stop-opacity:0"/></linearGradient><path id="XMLID_416_" d="m168.2 115.5-.1 1.2s-.4 5.5-.5 6.2c-.1.3 0 .5.2.6 2.9.5 5.9.9 6.6.9.7-.1 1.3-.4 1.7-.7 0 0 .7-4.1 1-5.9.3-1.8-.5-2.5-.5-2.5s-5.8-.8-7.2-.9c-1.2-.1-1.2 1.1-1.2 1.1z" style="opacity:.52;fill:url(#XMLID_533_)"/><linearGradient id="XMLID_534_" gradientUnits="userSpaceOnUse" x1="205.579" y1="244.63" x2="211.133" y2="244.63" gradientTransform="rotate(-50.136 56.577 211.225)"><stop offset="0" style="stop-color:#000"/><stop offset="1" style="stop-color:#000;stop-opacity:0"/></linearGradient><path id="XMLID_415_" d="m177.2 117.8 4.8-.2c.3-1-.2-1.7-.5-2-.1-.1-.2-.3-.3-.5-.2-.4-1.1-1.7-1.6-2.5-.9.2-1.6.8-2.1 1.9-.2.5-.4 1.2-.3 1.8.1.6 0 1.5 0 1.5z" style="opacity:.46;fill:url(#XMLID_534_)"/><path id="XMLID_414_" class="st87" d="M178.7 113.9s0-.3.2-.4c.2-.1.4-.1.3 0-.1.1-.2.4-.4.4h-.1z"/><path id="XMLID_413_" class="st87" d="M178.1 118.2s.2-.2.4 0c.2.1.3.3.2.3s-.5.1-.6 0c-.1-.2 0-.3 0-.3z"/><path id="XMLID_412_" class="st87" d="M170.4 105.4s-.1-.2.1-.4.3-.2.3-.1 0 .5-.2.5h-.2z"/><path id="XMLID_411_" class="st87" d="M168.1 113.2s-.1-.1 0-.2.1 0 .1 0v.2c0 .1-.1 0-.1 0z"/></g></svg>