<svg version="1.0" xmlns="http://www.w3.org/2000/svg" width="300" height="260" style="enable-background:new 0 0 300 260" xml:space="preserve"><style>.st0{display:none}.st1,.st4{display:inline}.st4{fill:#27aae1}.st8{fill:#555;stroke:#424143;stroke-width:2;stroke-miterlimit:10}.st9{display:inline}.st10,.st9{fill:#010101}.st16{display:inline;fill:#fff;fill-opacity:.78}.st18{fill:#ec2227;stroke:#414042;stroke-width:2;stroke-miterlimit:10}.st18,.st21,.st35{display:inline}.st21{fill:#fff;fill-opacity:.42}.st35{fill:none;stroke:#414042;stroke-width:3;stroke-miterlimit:10}.st36{fill:#fff;fill-opacity:.55}.st37{display:inline;fill:#6d6e71;stroke:#414042;stroke-width:2;stroke-miterlimit:10}.st39{fill:#ec2227}.st43{display:inline;opacity:.2;fill:#fff}.st50{fill:#ec2227;stroke:#414042;stroke-width:2;stroke-miterlimit:10}.st53{fill:#fff;fill-opacity:.42}.st67{fill:none;stroke:#414042;stroke-width:3;stroke-miterlimit:10}.st71{fill:#58595b}.st72{opacity:.29}.st73{opacity:.17}.st81{opacity:.61;fill:#e6e7e8}.st82,.st83{opacity:.3}.st83{fill:#fff}.st84{opacity:.21}.st87{opacity:.18;fill:#fff}.st91,.st92{display:inline}.st91{fill:#cb2890;stroke:#58595b;stroke-width:3;stroke-miterlimit:10}.st92{opacity:.61;fill:#e6e7e8}.st93,.st94{display:inline;opacity:.3}.st94{fill:#fff}.st95{opacity:.21}.st95,.st98,.st99{display:inline}.st98{opacity:.18;fill:#fff}.st99{fill:#cb2890;stroke:#58595b;stroke-width:4;stroke-miterlimit:10}</style><g id="圖層_2_1_"><path id="XMLID_366_" d="M160 145.8s1.3 1.3.5 3.3c-.9 2.3-4.4 8.2-5 9.2 0 .1-.1.2-.1.2-.2.5-1.1 2.4-4.8 2.2-2.9-.2-5.8 0-7.3.1-1 .1-1.9-.4-2.4-1.3-.1-.1-.2-.3-.2-.4-.8-1.6-4.4-10.5-5.2-12.3-.1-.2-.2-.4-.3-.5-.3-.5-1.1-1.7.8-3.3 2.4-1.9 5.1-3.7 5.1-3.7s1-.8 2.4-.7c1.2.1 10.7 3.3 11.9 3.7.1 0 .1 0 .2.1.2.1 1.9.6 4.4 3.4z" style="fill:#cb2890;stroke:#58595b;stroke-width:3;stroke-miterlimit:10"/><path id="XMLID_365_" class="st81" d="m148.7 146-.8 2.8s-.2.5-.8.4-5-1.2-5-1.2l5.3 1.8s.4.2 1.4 1.4c.9 1.2 1.9 2.4 1.9 2.4s-2.6-3.3-2.5-4.1c0-.7.5-3.5.5-3.5z"/><path id="XMLID_364_" class="st82" d="M143.2 160.9c1.5-.1 4.4-.3 7.3-.1 3.7.2 4.6-1.8 4.8-2.2 0-.1.1-.2.1-.2.6-1 4.1-6.9 5-9.2.8-2-.5-3.3-.5-3.3l-.3.7s-1.4 5.8-7 8.4c-5.5 2.6-10.7 3-12.6 2.7 0 .1-.1.2-.1.3.1.3.2.5.3.7v.1c0 .1.1.1.1.2v.1c0 .1.1.1.1.2.1.2.2.3.2.4.7.8 1.6 1.2 2.6 1.2z"/><path id="XMLID_363_" class="st83" d="M154.5 142.2c-.9-.3-2.4-.8-4-1.3-.1 0-.3-.1-.4-.1l-.2.2-2 8.9 7 9.5c.1-.1.1-.2.2-.2 0-.1.1-.1.1-.2s.1-.1.1-.1 0-.1.1-.1c0-.1.1-.2.1-.2.6-1 4.1-6.9 5-9.2.8-2-.5-3.3-.5-3.3-2.5-2.8-4.2-3.3-4.6-3.4-.1 0-.1 0-.2-.1-.1 0-.3-.1-.6-.2 0-.2-.1-.2-.1-.2z"/><path id="XMLID_362_" class="st84" d="m139.7 144.8 1.9-5.7c-.3.2-.5.3-.5.3s-2.7 1.7-5.1 3.7c-.5.4-.8.8-1 1.2l4.7.5z"/><linearGradient id="XMLID_519_" gradientUnits="userSpaceOnUse" x1="-9.098" y1="133.908" x2="-9.098" y2="145.547" gradientTransform="rotate(138.616 67.052 170.935)"><stop offset="0" style="stop-color:#fff"/><stop offset=".033" style="stop-color:#fff;stop-opacity:.9674"/><stop offset="1" style="stop-color:#fff;stop-opacity:0"/></linearGradient><path id="XMLID_361_" d="m148.2 148.5.3-1.2s1.2-5.3 1.4-6.1c.1-.3 0-.5-.1-.6-2.8-.9-5.7-1.8-6.4-1.9-.7 0-1.4.2-1.8.4l-1.9 5.7c-.6 1.7.1 2.5.1 2.5s5.6 1.7 6.9 2c1.3.3 1.5-.8 1.5-.8z" style="opacity:.52;fill:url(#XMLID_519_)"/><linearGradient id="XMLID_520_" gradientUnits="userSpaceOnUse" x1="-4.713" y1="143.245" x2=".841" y2="143.245" gradientTransform="rotate(138.616 67.052 170.935)"><stop offset="0" style="stop-color:#000"/><stop offset="1" style="stop-color:#000;stop-opacity:0"/></linearGradient><path id="XMLID_360_" d="m139.7 144.8-4.8-.5c-.5 1 0 1.7.2 2.1.1.1.2.3.3.5.2.4.8 1.9 1.2 2.8 1 0 1.7-.6 2.4-1.6.3-.5.6-1.1.5-1.8-.1-.6.2-1.5.2-1.5z" style="opacity:.46;fill:url(#XMLID_520_)"/><path id="XMLID_359_" class="st87" d="M137.6 148.4s0 .3-.3.3c-.2.1-.4 0-.3-.1s.3-.4.4-.4.2.2.2.2z"/><path id="XMLID_358_" class="st87" d="M138.8 144.3s-.2.1-.4-.1-.3-.3-.1-.3c.2 0 .5 0 .6.1 0 .2-.1.3-.1.3z"/><path id="XMLID_357_" class="st87" d="M144.5 158.1s.1.3-.2.4c-.2.1-.4.2-.3 0s.1-.5.3-.5c.1 0 .2.1.2.1z"/><path id="XMLID_355_" class="st87" d="M147.9 150.7s0 .1-.1.2h-.1s0-.2.2-.2c0-.1 0 0 0 0z"/><path id="XMLID_354_" d="M114.4 128.7s-1.8 0-2.6-2c-1-2.3-2.6-9-2.9-10.1 0-.1 0-.2-.1-.3-.2-.5-.9-2.5 1.8-5 2.2-1.9 4.1-4.1 5.1-5.2.6-.7 1.6-1 2.6-.8.1 0 .3.1.5.1 1.8.6 10.5 4.4 12.4 5.1.2.1.4.1.5.2.6.2 2 .5 1.7 2.9-.3 3-1.1 6.2-1.1 6.2s-.2 1.3-1.2 2.2c-.9.8-9.9 5.2-11 5.7-.1 0-.1.1-.2.1-.2.3-1.8 1.2-5.5.9z" style="fill:#cb2890;stroke:#58595b;stroke-width:4;stroke-miterlimit:10"/><path id="XMLID_352_" class="st81" d="m122.4 120.6-1.4-2.5s-.2-.5.2-.9 4.5-2.7 4.5-2.7l-5 2.4s-.4.2-1.9 0-3-.3-3-.3 4.2.5 4.7 1.1c.2.6 1.9 2.9 1.9 2.9z"/><path id="XMLID_350_" class="st82" d="M115.8 106.2c-1 1.1-2.9 3.3-5.1 5.2-2.8 2.5-2.1 4.5-1.8 5 0 .1.1.2.1.3.3 1.1 1.9 7.8 2.9 10.1.8 2 2.6 2 2.6 2l-.3-.7s-3.1-5.2-1-10.9 5.5-9.7 7.1-10.8c0-.1-.1-.2-.1-.3-.3-.1-.5-.2-.7-.3h-.1c-.1 0-.1-.1-.2-.1h-.1c-.1 0-.2-.1-.2-.1-.2-.1-.3-.1-.5-.1-1-.3-2 0-2.6.7z"/><path id="XMLID_346_" class="st83" d="M120.9 127.4c.9-.4 2.3-1.1 3.8-1.9.1-.1.3-.1.4-.2v-.3l-4.9-7.7-11.7-1.9v.3c0 .1 0 .2.1.2v.2c0 .1 0 .1.1.1 0 .1.1.2.1.3.3 1.1 1.9 7.8 2.9 10.1.8 2 2.6 2 2.6 2 3.7.3 5.3-.6 5.6-.8.1 0 .1-.1.2-.1.1-.1.3-.2.6-.3.1.1.2.1.2 0z"/><path id="XMLID_343_" class="st84" d="m129.6 115.1 2.6 5.4c.1-.4.2-.6.2-.6s.7-3.1 1.1-6.2c.1-.7 0-1.2-.1-1.6l-3.8 3z"/><linearGradient id="XMLID_521_" gradientUnits="userSpaceOnUse" x1="168.078" y1="224.897" x2="168.078" y2="236.536" gradientTransform="rotate(-86.055 87.608 197.302) scale(.99997)"><stop offset="0" style="stop-color:#fff"/><stop offset=".033" style="stop-color:#fff;stop-opacity:.9674"/><stop offset="1" style="stop-color:#fff;stop-opacity:0"/></linearGradient><path id="XMLID_339_" d="m121 118.5.7 1s2.9 4.6 3.3 5.3c.1.3.3.3.5.3 2.6-1.3 5.3-2.7 5.8-3.1.6-.5.9-1.1 1-1.6 0 0-1.8-3.7-2.6-5.4-.8-1.6-1.8-1.7-1.8-1.7s-5.1 2.7-6.3 3.5-.6 1.7-.6 1.7z" style="opacity:.52;fill:url(#XMLID_521_)"/><linearGradient id="XMLID_522_" gradientUnits="userSpaceOnUse" x1="172.463" y1="234.234" x2="178.018" y2="234.234" gradientTransform="rotate(-86.055 87.608 197.302) scale(.99997)"><stop offset="0" style="stop-color:#000"/><stop offset="1" style="stop-color:#000;stop-opacity:0"/></linearGradient><path id="XMLID_337_" d="m129.6 115.1 3.7-3c-.3-1-1.2-1.2-1.6-1.4-.1-.1-.3-.1-.5-.2-.4-.1-1.9-.8-2.8-1.1-.7.7-.8 1.6-.6 2.8.1.6.4 1.2.9 1.6.5.5.9 1.3.9 1.3z" style="opacity:.46;fill:url(#XMLID_522_)"/><path id="XMLID_317_" class="st87" d="M128.5 111.1s-.2-.2 0-.4c.1-.2.2-.3.3-.2 0 .1.1.5 0 .6-.2.1-.3 0-.3 0z"/><path id="XMLID_91_" class="st87" d="M130.6 114.9s.1-.3.3-.3c.2 0 .4 0 .3.1-.1.1-.3.3-.5.3-.1 0-.1-.1-.1-.1z"/><path id="XMLID_2_" class="st87" d="M116.8 109s-.2-.1-.2-.4.1-.4.2-.2.2.4.2.5c-.1.2-.2.1-.2.1z"/><path id="XMLID_1_" class="st87" d="M119.6 116.7s-.1-.1-.1-.2.1-.1.1 0 .1.1 0 .2z"/></g></svg>