<?xml version="1.0" encoding="utf-8"?>
<!-- Generator: Adobe Illustrator 19.0.0, SVG Export Plug-In . SVG Version: 6.00 Build 0)  -->
<svg version="1.1" id="Layer_1" xmlns="http://www.w3.org/2000/svg" xmlns:xlink="http://www.w3.org/1999/xlink" x="0px" y="0px"
	 viewBox="0 0 300 200" style="enable-background:new 0 0 300 200;" xml:space="preserve">
<style type="text/css">
	.st0{opacity:0.25;}
	.st1{fill:url(#XMLID_3_);stroke:#360E0B;stroke-width:3;stroke-miterlimit:10;}
	.st2{fill:url(#XMLID_5_);stroke:#360E0B;stroke-width:3;stroke-miterlimit:10;}
	.st3{fill:url(#XMLID_6_);}
	.st4{fill:none;stroke:#380D09;stroke-width:3;stroke-miterlimit:10;}
	.st5{fill:#FFFFFF;stroke:#350D0C;stroke-width:4;stroke-miterlimit:10;}
	.st6{fill:#FFFFFF;}
	.st7{fill:#473114;}
	.st8{fill:#27A9E1;}
	.st9{fill:#E6E7E8;}
	.st10{fill:none;stroke:#473114;stroke-width:3;stroke-miterlimit:10;}
	.st11{display:none;fill:url(#XMLID_8_);}
	.st12{fill:url(#XMLID_10_);stroke:#473114;stroke-width:2;stroke-miterlimit:10;}
	.st13{fill:#27AAE1;}
</style>
<g id="Layer_2">
	<path id="XMLID_75_" class="st0" d="M226.2,168.6l25.2,7.3c2.7,0.8,11.9,2.4,13.7,0.3c1.1-1.3-6.5-7.3-7.9-8.1l-8-6.3
		c-2.1-2.2-3.5-4.2,0.9-6.3l8.1-1.1c6.1-0.7,13.4-0.3,13.2-2c-0.4-2.8-8.9-4.3-11.7-5.1l-25.2-7.3c-5.1-1.5-10.5,1.7-12,7l-2.7,9.3
		c-0.8,2.8-2.4,6.6-1.1,8.9C219.8,167.2,223.8,167.9,226.2,168.6z"/>
	
		<linearGradient id="XMLID_3_" gradientUnits="userSpaceOnUse" x1="267.5349" y1="-16335.1436" x2="214.3725" y2="-16335.1436" gradientTransform="matrix(1 0 0 -1 0 -16182)">
		<stop  offset="0" style="stop-color:#F1605E"/>
		<stop  offset="8.947212e-002" style="stop-color:#D64E4D"/>
		<stop  offset="0.2307" style="stop-color:#BB3B3A"/>
		<stop  offset="0.3825" style="stop-color:#A82C2C"/>
		<stop  offset="0.5477" style="stop-color:#9C2224"/>
		<stop  offset="0.7363" style="stop-color:#941C20"/>
		<stop  offset="1" style="stop-color:#921A1E"/>
	</linearGradient>
	<path id="XMLID_74_" class="st1" d="M222.4,163.3l25.2,7.3c2.7,0.8,11.9,2.4,13.7,0.3c1.1-1.3-6.5-7.3-7.9-8.1l-8-6.3
		c-2.1-2.2-3.5-4.2,0.9-6.3l8.1-1.1c6.1-0.7,13.4-0.3,13.2-2c-0.4-2.8-8.9-4.3-11.7-5.1l-25.2-7.3c-5.1-1.5-10.5,1.7-12,7L216,151
		c-0.8,2.8-2.4,6.6-1.1,8.9C216,161.9,220,162.6,222.4,163.3z"/>
	<path id="XMLID_73_" class="st0" d="M68.2,167.7L43,175c-2.7,0.8-11.9,2.4-13.7,0.3c-1.1-1.3,6.5-7.3,7.9-8.1l8-6.3
		c2.1-2.2,3.5-4.2-0.9-6.3l-8.1-1.1c-6.1-0.7-13.4-0.3-13.2-2c0.4-2.8,8.9-4.3,11.7-5.1l25.2-7.3c5.1-1.5,10.5,1.7,12,7l2.7,9.3
		c0.8,2.8,2.4,6.6,1.1,8.9C74.6,166.4,70.6,167,68.2,167.7z"/>
	
		<linearGradient id="XMLID_5_" gradientUnits="userSpaceOnUse" x1="535.9026" y1="152.2843" x2="482.7403" y2="152.2843" gradientTransform="matrix(-1 0 0 1 562.7847 0)">
		<stop  offset="0" style="stop-color:#F1605E"/>
		<stop  offset="8.947212e-002" style="stop-color:#D64E4D"/>
		<stop  offset="0.2307" style="stop-color:#BB3B3A"/>
		<stop  offset="0.3825" style="stop-color:#A82C2C"/>
		<stop  offset="0.5477" style="stop-color:#9C2224"/>
		<stop  offset="0.7363" style="stop-color:#941C20"/>
		<stop  offset="1" style="stop-color:#921A1E"/>
	</linearGradient>
	<path id="XMLID_72_" class="st2" d="M72,162.4l-25.2,7.3c-2.7,0.8-11.9,2.4-13.7,0.3c-1.1-1.3,6.5-7.3,7.9-8.1l8-6.3
		c2.1-2.2,3.5-4.2-0.9-6.3l-8.1-1.1c-6.1-0.7-13.4-0.3-13.2-2c0.4-2.8,8.9-4.3,11.7-5.1l25.2-7.3c5.1-1.5,10.5,1.7,12,7l2.7,9.3
		c0.8,2.8,2.4,6.6,1.1,8.9C78.4,161,74.4,161.7,72,162.4z"/>
	<g id="XMLID_69_" class="st0">
		<path id="XMLID_36_" d="M221.9,158.1c-48.7-13.5-100.1-13.5-148.8,0c-6.4,1.8-13.4-1.6-15.5-7.9c-1-3.1-2-6.1-3-9.2
			c-2.1-6.3,2.1-13.3,9.5-15.4c54.5-15.1,112.2-15.1,166.7,0c7.3,2,11.6,9.1,9.5,15.4c-1,3.1-2,6.1-3,9.2
			C235.3,156.4,228.4,159.8,221.9,158.1z"/>
	</g>
	<g id="XMLID_65_">
		<radialGradient id="XMLID_6_" cx="147.5354" cy="132.5783" r="67.8458" gradientUnits="userSpaceOnUse">
			<stop  offset="0" style="stop-color:#F1605E"/>
			<stop  offset="1" style="stop-color:#921A1E"/>
		</radialGradient>
		<path id="XMLID_33_" class="st3" d="M222.4,153.6c-49-13.6-100.8-13.6-149.8,0c-6.4,1.8-13.4-1.6-15.5-7.9c-0.9-2.7-1.7-5.3-2.6-8
			c-2.1-6.3,2.1-13.3,9.4-15.4c54.7-15.2,112.4-15.2,167.1,0c7.3,2,11.5,9.1,9.4,15.4c-0.9,2.7-1.7,5.3-2.6,8
			C235.8,152,228.9,155.4,222.4,153.6z"/>
		<path id="XMLID_32_" class="st4" d="M222.4,153.6c-49-13.6-100.8-13.6-149.8,0c-6.4,1.8-13.4-1.6-15.5-7.9c-0.9-2.7-1.7-5.3-2.6-8
			c-2.1-6.3,2.1-13.3,9.4-15.4c54.7-15.2,112.4-15.2,167.1,0c7.3,2,11.5,9.1,9.4,15.4c-0.9,2.7-1.7,5.3-2.6,8
			C235.8,152,228.9,155.4,222.4,153.6z"/>
	</g>
	<g id="XMLID_39_">
		<g id="XMLID_147_">
			<path id="XMLID_164_" class="st5" d="M103.7,132.7c0.2,1,0.3,2.1,0.4,3.1c-1.1,0.3-2.3,0.6-3.6,0.9c-0.6-2.7-1.2-6.5-2-11.5
				c1.3-0.5,2.6-0.8,3.8-1c0.3,1.6,0.6,3.3,0.8,4.9c0.6-0.1,1.2-0.3,1.8-0.5c-0.2-1.5-0.5-3.1-0.7-4.9c1.3-0.4,2.6-0.7,3.8-0.9
				c0.6,3.7,1.1,7.6,1.6,11.5c-1.1,0.3-2.3,0.6-3.6,0.9c-0.2-0.9-0.4-2-0.5-3.1C105,132.4,104.3,132.5,103.7,132.7z"/>
			<path id="XMLID_162_" class="st5" d="M118,121.8c0.2,1.1,0.3,2.2,0.3,3.2c-1.6,0.3-3.3,0.6-4.9,1c0.1,0.4,0.1,0.7,0.2,1.1
				c1.6-0.3,3.1-0.6,4.7-0.9c0.1,1,0.2,2,0.3,3.1c-0.2,0.1-1.7,0.3-4.6,0.9c0,0.3,0.1,0.7,0.1,1c3-0.7,4.6-1,4.8-1
				c0.2,1.2,0.3,2.3,0.3,3.1c-1.9,0.5-4.7,1-8.2,1.7c-0.6-3.4-1.1-7.2-1.5-11.4C112.7,122.7,115.6,122.2,118,121.8z"/>
			<path id="XMLID_160_" class="st5" d="M122.8,127.8c-1-1.1-2.1-2.3-3.4-3.6c0.4-0.7,1.4-1.6,2.9-2.7c0.2,0.2,1.1,1.1,2.7,2.7
				c1.4-2.3,2.1-3.4,2.2-3.5c1.4,0.6,2.5,1.1,3.2,1.6c-1.1,1.8-2,3.4-2.8,4.7c1,1.1,2.1,2.4,3.4,3.8c-0.8,0.9-1.8,1.7-2.9,2.5
				c-0.1-0.1-0.9-1-2.6-2.8c-1.2,2.1-1.9,3.3-2.1,3.5c-1.6-0.6-2.6-1.1-3.2-1.6C121.2,130.7,122,129.2,122.8,127.8z"/>
			<path id="XMLID_157_" class="st5" d="M135.9,131.8c-0.1,0.4-0.2,0.9-0.2,1.3c-1.8,0.2-3.1,0.2-3.7-0.1c1.2-5.9,2.2-9.9,2.8-11.8
				c1.5-0.4,2.9-0.6,4.2-0.5c1.5,3.4,2.9,7,4.3,11c-0.6,0.3-1.9,0.6-3.8,0.9c-0.1-0.4-0.3-0.9-0.4-1.3
				C138.1,131.5,137.1,131.6,135.9,131.8z M137.9,128.5c-0.3-0.9-0.6-1.7-0.9-2.3c-0.2,0.8-0.4,1.6-0.5,2.4
				C137,128.6,137.4,128.5,137.9,128.5z"/>
			<path id="XMLID_155_" class="st5" d="M157.7,124.1c-0.1,3.5-0.2,6.3-0.3,8.2c-1.7,0.2-3,0.3-3.7,0.2c0-2.6,0-5.3,0.1-8.1
				c-1,0.1-2.1,0.1-3.3,0.2c-0.1-1-0.1-2.2,0-3.5c3.7-0.4,7.3-0.6,10.7-0.7c0,1.1-0.1,2.2-0.2,3.5C160.9,124,159.7,124,157.7,124.1z
				"/>
			<path id="XMLID_152_" class="st5" d="M165.9,132c-0.1,0.4-0.2,0.9-0.4,1.3c-1.8,0-3.1-0.1-3.7-0.4c1.9-5.8,3.2-9.6,4-11.5
				c1.6-0.2,3-0.3,4.2-0.1c1.2,3.5,2.2,7.3,3.1,11.4c-0.6,0.3-1.9,0.5-3.9,0.6c-0.1-0.5-0.2-0.9-0.3-1.3
				C168.1,132,167.1,132,165.9,132z M168.2,128.9c-0.2-1-0.4-1.8-0.6-2.3c-0.3,0.8-0.5,1.6-0.8,2.4C167.3,129,167.7,129,168.2,128.9
				z"/>
			<path id="XMLID_150_" class="st5" d="M175.1,122.5c1.2-0.2,2.4-0.3,3.5-0.5c0.9,1.4,2,3.2,3.1,5.3c0.1-1.3,0.2-2.8,0.5-4.7
				c1.8,0.1,3.1,0.2,3.9,0.5c-0.4,4.2-0.9,8-1.4,11.2c-1.2,0.3-2.2,0.4-2.9,0.3c-0.9-1.7-2-3.6-3.5-5.9c-0.2,1.8-0.4,3.6-0.5,5.5
				c-2-0.1-3.2-0.2-3.6-0.4C174.3,130.5,174.6,126.7,175.1,122.5z"/>
			<path id="XMLID_148_" class="st5" d="M194,129.8c0.5,0.7,1.3,2,2.3,3.7c-0.6,0.6-1.7,1.5-3.1,2.5c-0.1-0.1-0.8-1.3-2.3-3.6
				c-0.4,0.4-0.8,0.7-1.3,1.1c-0.1,0.6-0.2,1.2-0.2,1.8c-1.2,0-2.5-0.1-3.8-0.2c0.4-3.9,0.9-7.8,1.5-11.5c1.2-0.1,2.5,0,3.9,0.2
				c-0.2,1.4-0.4,2.6-0.5,3.8c1.2-1,2.6-2.2,4.2-3.6c0.8,0.6,1.7,1.5,2.7,2.8C197.3,127,196.1,128,194,129.8z"/>
		</g>
	</g>
	<g id="XMLID_4_">
		<g id="XMLID_128_">
			<path id="XMLID_145_" class="st6" d="M104.1,132.9c0.2,1,0.3,2.1,0.5,3.1c-1,0.3-2.2,0.7-3.6,0.9c-0.6-2.7-1.3-6.5-2.1-11.5
				c1.3-0.5,2.6-0.8,3.8-1c0.3,1.6,0.6,3.3,0.9,4.9c0.6-0.1,1.2-0.3,1.8-0.5c-0.2-1.5-0.5-3.1-0.7-4.9c1.3-0.5,2.6-0.8,3.8-0.9
				c0.6,3.7,1.2,7.6,1.6,11.5c-1.1,0.3-2.2,0.6-3.6,0.9c-0.2-0.9-0.4-2-0.6-3.1C105.3,132.6,104.7,132.8,104.1,132.9z"/>
			<path id="XMLID_143_" class="st6" d="M118.2,122.1c0.2,1.1,0.3,2.2,0.3,3.2c-1.6,0.3-3.2,0.7-4.8,1c0.1,0.4,0.1,0.7,0.2,1.1
				c1.5-0.3,3.1-0.6,4.6-0.9c0.1,1,0.2,2,0.3,3.1c-0.2,0.1-1.7,0.4-4.5,0.9c0,0.3,0.1,0.7,0.1,1c2.9-0.7,4.5-1,4.7-1
				c0.2,1.2,0.3,2.3,0.3,3.1c-1.9,0.5-4.6,1-8.1,1.7c-0.6-3.4-1.1-7.2-1.6-11.4C113,123,115.8,122.4,118.2,122.1z"/>
			<path id="XMLID_141_" class="st6" d="M123,128c-1-1.1-2.1-2.3-3.4-3.6c0.4-0.7,1.4-1.6,2.8-2.7c0.2,0.2,1.1,1.1,2.6,2.7
				c1.3-2.3,2.1-3.4,2.2-3.5c1.4,0.6,2.5,1.1,3.2,1.6c-1.1,1.8-2,3.4-2.8,4.7c1,1.1,2.1,2.4,3.3,3.8c-0.8,0.9-1.8,1.7-2.8,2.5
				c-0.1-0.1-0.9-1-2.6-2.8c-1.2,2.1-1.9,3.3-2,3.5c-1.6-0.6-2.6-1.1-3.1-1.6C121.4,131,122.2,129.4,123,128z"/>
			<path id="XMLID_138_" class="st6" d="M136,132c-0.1,0.4-0.2,0.9-0.2,1.3c-1.8,0.2-3,0.2-3.7,0c1.2-5.9,2.2-9.9,2.8-11.8
				c1.5-0.4,2.9-0.6,4.1-0.5c1.5,3.4,2.9,7,4.3,11c-0.6,0.3-1.8,0.6-3.8,0.9c-0.1-0.4-0.3-0.9-0.4-1.3
				C138.2,131.7,137.2,131.8,136,132z M138,128.7c-0.3-0.9-0.6-1.7-0.9-2.3c-0.2,0.8-0.4,1.6-0.5,2.4
				C137,128.8,137.5,128.7,138,128.7z"/>
			<path id="XMLID_136_" class="st6" d="M157.7,124.4c-0.1,3.5-0.2,6.3-0.3,8.2c-1.7,0.2-2.9,0.3-3.7,0.2c0-2.6,0.1-5.3,0.1-8.1
				c-1,0.1-2.1,0.1-3.3,0.2c-0.1-1-0.1-2.2,0-3.5c3.7-0.4,7.2-0.6,10.7-0.6c0,1.1-0.1,2.2-0.2,3.5
				C160.8,124.2,159.7,124.2,157.7,124.4z"/>
			<path id="XMLID_133_" class="st6" d="M165.7,132.2c-0.1,0.4-0.2,0.9-0.4,1.3c-1.8,0-3-0.1-3.7-0.4c1.9-5.8,3.2-9.6,4-11.5
				c1.6-0.2,3-0.3,4.2-0.1c1.1,3.5,2.2,7.3,3,11.4c-0.6,0.3-1.9,0.4-3.9,0.5c-0.1-0.5-0.2-0.9-0.3-1.3
				C167.9,132.2,166.9,132.2,165.7,132.2z M168.1,129.2c-0.2-1-0.4-1.8-0.6-2.3c-0.3,0.8-0.5,1.6-0.8,2.4
				C167.1,129.2,167.6,129.2,168.1,129.2z"/>
			<path id="XMLID_131_" class="st6" d="M174.9,122.8c1.2-0.2,2.3-0.3,3.5-0.5c0.9,1.4,1.9,3.2,3,5.3c0.1-1.3,0.2-2.8,0.5-4.7
				c1.8,0.1,3,0.2,3.9,0.5c-0.4,4.2-0.9,8-1.5,11.2c-1.2,0.3-2.2,0.4-2.9,0.3c-0.8-1.7-2-3.6-3.4-5.9c-0.2,1.8-0.4,3.6-0.6,5.5
				c-2-0.1-3.2-0.2-3.6-0.4C174.1,130.8,174.4,127,174.9,122.8z"/>
			<path id="XMLID_129_" class="st6" d="M193.7,130.2c0.5,0.7,1.3,2,2.3,3.7c-0.6,0.6-1.7,1.4-3.1,2.5c-0.1-0.1-0.8-1.3-2.2-3.6
				c-0.4,0.4-0.8,0.7-1.3,1.1c-0.1,0.6-0.2,1.2-0.3,1.8c-1.2,0-2.5-0.1-3.7-0.2c0.5-3.9,1-7.8,1.6-11.5c1.2-0.1,2.5,0,3.9,0.2
				c-0.2,1.4-0.4,2.6-0.6,3.8c1.2-1,2.6-2.2,4.2-3.6c0.8,0.6,1.7,1.5,2.7,2.8C197,127.4,195.8,128.4,193.7,130.2z"/>
		</g>
	</g>
	<circle id="XMLID_102_" class="st7" cx="209.6" cy="159" r="22.4"/>
	<circle id="XMLID_99_" class="st8" cx="209.6" cy="159" r="21"/>
	<path id="XMLID_98_" class="st9" d="M209.6,138c-11.6,0-21,9.4-21,21c0,2.4,0.4,4.7,1.1,6.8l5.4,0.5l1.9,2.8l26.3-18.4l-1.4-2.3
		l-0.6-6.9C217.8,139.3,213.9,138,209.6,138z"/>
	<circle id="XMLID_97_" class="st10" cx="209.6" cy="159" r="16.7"/>
	<linearGradient id="XMLID_8_" gradientUnits="userSpaceOnUse" x1="190.3065" y1="159.0189" x2="228.8464" y2="159.0189">
		<stop  offset="0" style="stop-color:#C16B2A"/>
		<stop  offset="1" style="stop-color:#F6A441"/>
	</linearGradient>
	<circle id="XMLID_95_" class="st11" cx="209.6" cy="159" r="19.3"/>
	<circle id="XMLID_94_" class="st6" cx="209.5" cy="159" r="16.7"/>
	<path id="XMLID_93_" class="st9" d="M209.5,142.4c-9.2,0-16.7,7.5-16.7,16.7c0,4,1.4,7.7,3.8,10.6l27.2-19
		C220.9,145.7,215.6,142.4,209.5,142.4z"/>
	<linearGradient id="XMLID_10_" gradientUnits="userSpaceOnUse" x1="199.019" y1="159.2623" x2="217.854" y2="159.2623">
		<stop  offset="0" style="stop-color:#C16B2A"/>
		<stop  offset="1" style="stop-color:#F6A441"/>
	</linearGradient>
	<path id="XMLID_15_" class="st12" d="M215,157.7c1.7-1,2.8-2.7,2.8-4.7c0-3.1-2.8-5.6-6.3-5.6c-3.5,0-6.3,2.5-6.3,5.6v8.4v0.9v2.9
		h0c0,0.7,0,1.5,0,1.9c0,1.3-1,2.3-2.3,2.3c-1.3,0-2.3-1-2.3-2.3c0-0.5-0.6-1.2-1.2-1.9c-0.3,0.6-0.5,1.2-0.5,1.9c0,2.2,1.8,4,4,4
		c2.2,0,4-1.8,4-4c0-0.4-0.1-0.9-0.2-1.3c1.2,1.3,2.9,2.1,4.9,2.1c3.5,0,6.3-2.5,6.3-5.6C217.9,160.4,216.7,158.7,215,157.7z
		 M214.5,162.4c0,2-1.6,3.6-3.6,3.6c-2,0-3.6-1.6-3.6-3.6V153c0-2,1.6-3.6,3.6-3.6c2,0,3.6,1.6,3.6,3.6c0,2-1.6,3.6-3.6,3.6v2
		C212.9,158.7,214.5,160.4,214.5,162.4z"/>
	<path id="XMLID_2_" class="st13" d="M215,157.7c1.7-1,2.8-2.7,2.8-4.7c0-3.1-2.8-5.6-6.3-5.6c-3.5,0-6.3,2.5-6.3,5.6v8.4v0.9v2.9h0
		c0,0.7,0,1.5,0,1.9c0,1.3-1,2.3-2.3,2.3c-1.3,0-2.3-1-2.3-2.3c0-0.5-0.6-1.2-1.2-1.9c-0.3,0.6-0.5,1.2-0.5,1.9c0,2.2,1.8,4,4,4
		c2.2,0,4-1.8,4-4c0-0.4-0.1-0.9-0.2-1.3c1.2,1.3,2.9,2.1,4.9,2.1c3.5,0,6.3-2.5,6.3-5.6C217.9,160.4,216.7,158.7,215,157.7z
		 M214.5,162.4c0,2-1.6,3.6-3.6,3.6c-2,0-3.6-1.6-3.6-3.6V153c0-2,1.6-3.6,3.6-3.6c2,0,3.6,1.6,3.6,3.6c0,2-1.6,3.6-3.6,3.6v2
		C212.9,158.7,214.5,160.4,214.5,162.4z"/>
</g>
</svg>
