<?xml version="1.0" encoding="utf-8"?>
<!-- Generator: Adobe Illustrator 19.0.0, SVG Export Plug-In . SVG Version: 6.00 Build 0)  -->
<svg version="1.0" xmlns="http://www.w3.org/2000/svg" xmlns:xlink="http://www.w3.org/1999/xlink" x="0px" y="0px" width="300px" height="260px"
	 viewBox="0 0 300 260" style="enable-background:new 0 0 300 260;" xml:space="preserve">
<style type="text/css">
	.st0{display:none;}
	.st1{display:inline;fill:#009444;}
	.st2{display:inline;}
	.st3{fill:none;stroke:#333333;stroke-width:7;stroke-miterlimit:10;}
	.st4{fill:none;stroke:#FFFFFF;stroke-width:8;stroke-miterlimit:10;}
	.st5{display:inline;fill:#FFFFFF;}
	.st6{display:inline;fill:none;stroke:#FFFFFF;stroke-width:7;stroke-miterlimit:10;}
	.st7{display:inline;opacity:0.46;fill:#FFFFFF;}
	.st8{fill:#FFFFFF;}
	.st9{display:inline;fill:none;stroke:#FFFFFF;stroke-width:5;stroke-miterlimit:10;}
</style>
<g id="圖層_2" class="st0">
	<rect id="XMLID_1_" class="st1" width="300" height="260"/>
</g>
<g id="圖層_1" class="st0">
	<g id="圖層_23_2_" class="st2">
		<g id="XMLID_118_">
			<path id="XMLID_10_" class="st3" d="M210.1,257.2L89.6,257c-9.4,0-18.2-4.9-22.8-12.8L6.6,142.8c-4.7-8-4.7-17.7,0-25.7
				L66.9,15.6c4.8-8,13.5-12.8,22.9-12.8L210.4,3c9.4,0,18.2,4.9,22.8,12.8l60.2,101.4c4.7,8,4.7,17.7,0,25.7l-60.4,101.4
				C228.3,252.3,219.6,257.2,210.1,257.2z"/>
		</g>
	</g>
</g>
<g id="圖層_3">
	<g id="圖層_23_1_">
		<g id="XMLID_3_">
			<path id="XMLID_4_" class="st4" d="M204.4,245l-109-0.2c-8.5,0-16.4-4.5-20.6-11.6l-54.4-91.7c-4.2-7.2-4.2-16,0-23.2l54.6-91.7
				C79.2,19.4,87.1,15,95.6,15l109,0.2c8.5,0,16.4,4.5,20.6,11.6l54.4,91.7c4.2,7.2,4.2,16,0,23.2l-54.6,91.7
				C220.8,240.5,212.9,245,204.4,245z"/>
		</g>
	</g>
</g>
<g id="圖層_8" class="st0">
	<path id="XMLID_18_" class="st5" d="M148.8,173.6h42.5V202c0,0-0.1,14.4-21.3,14.2c-21.1-0.3-21.3-14.2-21.3-14.2V173.6z"/>
	<path id="XMLID_21_" class="st5" d="M198.4,155.9c0,0,0.6-82.7,0-85c-0.6-2.4-28.3-28.3-28.3-28.3l-28.3,28.3v85h-14.2v14.2h85
		v-14.2H198.4z M184.3,155.9c0-0.3-28.3,0-28.3,0v-85l14.2-14.2l14.2,14.2C184.3,70.9,184.3,156.2,184.3,155.9z"/>
</g>
<g id="圖層_4" class="st0">
	<ellipse id="XMLID_2_" class="st6" cx="150" cy="130" rx="94.3" ry="48.6"/>
	<circle id="XMLID_5_" class="st6" cx="150" cy="130" r="43.8"/>
	<path id="XMLID_9_" class="st7" d="M150,155.9c-14.3,0-25.9-11.6-25.9-25.9h51.7C175.9,144.3,164.3,155.9,150,155.9z"/>
	<circle id="XMLID_6_" class="st6" cx="150" cy="130" r="25.7"/>
</g>
<g id="圖層_5">
	<rect id="XMLID_7_" x="135.3" y="52" class="st8" width="29.3" height="152"/>
	<rect id="XMLID_8_" x="74" y="113.3" class="st8" width="152" height="29.3"/>
</g>
<g id="圖層_8_拷貝" class="st0">
	<path id="XMLID_22_" class="st5" d="M112.3,156.1l36.8,21.3L135,201.9c0,0-7.3,12.4-25.5,1.6s-11.3-22.9-11.3-22.9L112.3,156.1z"/>
	<path id="XMLID_15_" class="st5" d="M164.1,165.5c0,0,41.8-71.3,42.5-73.6c0.7-2.4-10.4-38.7-10.4-38.7l-38.7,10.4L115,137.2
		l-12.3-7.1l-7.1,12.3l73.6,42.5l7.1-12.3L164.1,165.5z M151.9,158.4c0.2-0.3-24.5-14.2-24.5-14.2l42.5-73.6l19.4-5.2l5.2,19.4
		C194.4,84.8,151.7,158.7,151.9,158.4z"/>
</g>
<g id="圖層_10" class="st0">
	<path id="XMLID_25_" class="st5" d="M137.1,64.1l18-1.4c0,0-2.1,6.8,2.1,7s15.8,3.3,13.9,9.5s-7.1,5.6-9.5,4.5s-10.1-6.6-12.3-2.2
		c-2.1,4.4-1.5,9.5,0.1,14.4s-2.6,10.4-6.6,12.8c-3.8,2.2-8.6,0.9-11.3-1.5s-5-5.5-3.3-10.8c0.8-2.3,1.6-5-1.5-5.1s-6,1.8-7.1,8
		s-3.8,10.9-9.5,11.8S92,104.9,91.8,96.5s15.1-24.2,24.8-24.3S133.8,71.9,137.1,64.1z"/>
	<circle id="XMLID_23_" class="st9" cx="148.9" cy="130" r="67.9"/>
	<path id="XMLID_26_" class="st5" d="M192.8,80.3c0,0-7.9,4-8.9,7.8s-3.4,7.9,2.1,16.6s-2.2,10.9-4.7,8.8s-7.8-15-16.5-8.1
		s-3.2,19.1,4.9,21.1s21.7,3.8,22.5,11.2s-2.1,26.8,8.5,32.6s13.4-27.6,13.4-27.6s-8.8-5-8.3-9.4c0.5-4.4,1.8-8.2,10.2-7.6
		c1.4,0.1,2.8,0.3,3-0.6c1-3.7-5.3-15.2-5.1-15.2c0,0-9.6,1.7-10-3.9s3.9-10,3.9-10s-13.4-16.3-13.4-15.7"/>
	<path id="XMLID_27_" class="st5" d="M83.8,115c0,0,6.6,2.9,5.8,6.9s-6,17.9,0.1,18.4s8.3-2.9,14.2-12.3s20.9-15.5,23.7-13.1
		s7,8.3-5.3,15s-9.4,12.9-9.4,12.9s4.2,10.5,21.3,1.6s27.5,1.2,29.4,4.3s8.2,16-4.3,17.4c-12.5,1.4-21-15.4-34.8-8.3
		c-13.8,7.1-23.5,17.4-27.3,15.1C93.6,170.6,76.3,145.8,83.8,115z"/>
	<path id="XMLID_29_" class="st5" d="M108.2,182.8c0,0,2.8-4.5,8.5-5.4c5.8-0.9,10.4,4.3,10.4,4.3s2.9,9.5,10,7.5s8.7-2.6,5.1-6.8
		c-3.6-4.3-6-9.8,2.8-12.4c8.8-2.7,10.8,3.5,10.8,7.8c0.1,4.3,3.1,10.1,10.3,4.6s5.7-13.2,15.5-12.3s10.4,12.5,10.4,12.5
		s-21,15.6-36.9,15.2S110.1,189.9,108.2,182.8z"/>
</g>
<g id="圖層_6" class="st0">
	<path id="XMLID_11_" class="st5" d="M205.1,159.8c0,0-3.8-2-4.8-16.3s-7-31.8-23.5-38.5c-15.7-6.4-45.6-9.7-73.5-32.3
		c-2.3,4-7.5,20.9,19.3,36.8s28.2,15.8,26.5,19.2c-1.2,2.5-12,9.4-58.5-22.7c2.1,9.3,24.2,41.9,41.5,45c16,2.9,23.8-6.3,26.8-1.8
		s-2.4,11-17.5,10.5c-16.8-0.6-33.2-10.8-32.5-11.8c0,0,7.5,28.3,30.5,32.5S202.1,168.3,205.1,159.8z"/>
</g>
</svg>
