<svg version="1.0" xmlns="http://www.w3.org/2000/svg" viewBox="0 0 300 300" style="enable-background:new 0 0 300 300" xml:space="preserve"><style>.st0{display:none}.st1{display:inline;fill:#fde2cb}.st2,.st3,.st4{stroke-width:2;stroke-miterlimit:10}.st2{display:inline;fill:none;stroke:#010202}.st3,.st4{fill:#fff;stroke:#000}.st4{fill:none}.st5{fill:#86bce7}.st6{fill:#8e6425;stroke:#000;stroke-width:2;stroke-miterlimit:10}.st7{opacity:.25}.st8{fill:#fff}.st9{display:inline}.st10{fill:#cea98a}.st11{fill:#8e6425}.st12{fill:none}</style><g id="Calque_31"><g id="Calque_28"><path id="XMLID_1_" class="st3" d="M124.5 145.2s-.3 8.1 4.8 8.2c5.1.1 8.7 0 8.7 0s5.1-.7 4.8-8.2h-18.3z"/><circle id="XMLID_6_" class="st4" cx="135.6" cy="148.3" r="2.7"/><circle id="XMLID_8_" class="st5" cx="135.6" cy="148.3" r="2.7"/><path id="XMLID_10_" class="st6" d="M142.8 140.7H125c-1.9 0-3.4 1.5-3.4 3.3v2.5c0 .4.3.8.8.8H145.4c.4 0 .8-.3.8-.8V144c0-1.8-1.5-3.3-3.4-3.3z"/><g id="XMLID_9_" class="st7"><path id="XMLID_11_" class="st8" d="M137.3 140.7c0 .1 0 .2.1.3.1.4.1.8.2 1.2 0 .3.1.5 0 .8-.1.4-.4.6-.7.9-1 .9-1.7 2.1-2 3.4h4.9v-.5c0-.6-.2-1.2.1-1.8.1-.3.4-.5.6-.7 1-1 1.6-2.2 1.8-3.6h-5z"/><path id="XMLID_22_" class="st8" d="M129.7 147.3v-.3c0-.3 0-.5.1-.8.1-.3.3-.6.6-.8 1.1-1.2 2-2.6 2.7-4.1.1-.2.1-.3.2-.5h-5.6c-.1.2-.1.5-.2.7-.2 1.1-.3 2.3-.8 3.4-.2.5-.6.9-.9 1.4-.2.3-.3.7-.5 1h4.4z"/></g><path id="XMLID_2_" class="st4" d="M142.8 140.7H125c-1.9 0-3.4 1.5-3.4 3.3v2.4c0 .5.4.9.9.9h22.8c.5 0 .9-.4.9-.9V144c0-1.8-1.5-3.3-3.4-3.3z"/></g><g id="Calque_28_-_copie_2"><path id="XMLID_29_" class="st3" d="M186.3 145.2s.3 8.1-4.8 8.2c-5.1.1-8.7 0-8.7 0s-5.1-.7-4.8-8.2h18.3z"/><circle id="XMLID_28_" class="st4" cx="175.3" cy="148.3" r="2.7"/><circle id="XMLID_27_" class="st5" cx="175.3" cy="148.3" r="2.7"/><path id="XMLID_26_" class="st6" d="M168 140.7h17.8c1.9 0 3.4 1.5 3.4 3.3v2.5c0 .4-.3.8-.8.8H165.4c-.4 0-.8-.3-.8-.8V144c0-1.8 1.5-3.3 3.4-3.3z"/><g id="XMLID_23_" class="st7"><path id="XMLID_25_" class="st8" d="M173.5 140.7c0 .1 0 .2-.1.3-.1.4-.1.8-.2 1.2 0 .3-.1.5 0 .8.1.4.4.6.7.9 1 .9 1.7 2.1 2 3.4H171v-.5c0-.6.2-1.2-.1-1.8-.1-.3-.4-.5-.6-.7-1-1-1.6-2.2-1.8-3.6h5z"/><path id="XMLID_24_" class="st8" d="M181.2 147.3v-.3c0-.3 0-.5-.1-.8-.1-.3-.3-.6-.6-.8-1.1-1.2-2-2.6-2.7-4.1-.1-.2-.1-.3-.2-.5h5.6c.1.2.1.5.2.7.2 1.1.3 2.3.8 3.4.2.5.6.9.9 1.4.2.3.3.7.5 1h-4.4z"/></g><path id="XMLID_7_" class="st4" d="M168 140.7h17.8c1.9 0 3.4 1.5 3.4 3.3v2.4c0 .5-.4.9-.9.9h-22.8c-.5 0-.9-.4-.9-.9V144c0-1.8 1.5-3.3 3.4-3.3z"/></g></g></svg>