<svg version="1.0" xmlns="http://www.w3.org/2000/svg" viewBox="0 0 300 300" style="enable-background:new 0 0 300 300" xml:space="preserve"><style>.st0{display:none}.st1{display:inline;fill:#fde2cb}.st2{fill:none;stroke:#010202;stroke-width:2;stroke-miterlimit:10}.st2,.st3{display:inline}.st4,.st5{fill:#fff;stroke:#000;stroke-width:2;stroke-miterlimit:10}.st5{fill:none}.st6{fill:#86bce7}.st7{fill:#8e6425;stroke:#000;stroke-width:2;stroke-miterlimit:10}.st8{opacity:.25}.st9{fill:#fff}.st10{fill:#cea98a}.st11{fill:#8e6425}.st12{fill:none}</style><g id="Calque_31_-_copie"><g id="Calque_28_-_copie"><path id="XMLID_21_" class="st10" d="M140.7 145.3c.4.7.8 1.4 1.2 2 .2.4.5.8.6 1.2.1.5.1.9.1 1.4 0 .2 0 .5-.3.6-.1.1-.3.1-.5 0-1.1-.1-2.2-.3-3.3-.3-2.3 0-4.7.5-6.8 1.4-.5.2-1.1.5-1.7.7-.2 0-.3.1-.5 0-.4-.1-.7-.5-1-.9-.3-.4-.5-1-.2-1.4.2-.2.5-.3.7-.5.4-.4.3-1 .4-1.5.1-.6.5-1.1 1-1.4s1-.6 1.6-.7c1.3-.4 2.6-.5 3.9-.7 1.7-.2 3.5-.4 5 .4"/><path id="XMLID_19_" d="M129.2 152.6c.9-.9 2.1-1.4 3.4-1.7 2.8-.7 5.8-.9 8.7-.6-1.2-1 1.7-.6 2.7.8.1.1.2.3.1.4-.1.1-.2.1-.3.1-.8 0-1.5-.1-2.3-.1-3.1-.3-6.3-.4-9.2.7-1.2.5-2.5 1.2-3.7.8"/><path id="XMLID_34_" class="st11" d="M142.8 140.7H125c-1.9 0-3.4 1.6-3.4 3.6v2.8c0 .5.3.8.8.8h2.6l16.5.1c.9 0 1.8.1 2.6.4l1.3.3c.4.1.8-.2.9-.6l.7-2.7c.6-1.9-2.3-4.7-4.2-4.7z"/><g id="XMLID_31_" class="st8"><path id="XMLID_33_" class="st9" d="M137.3 140.7c0 .1 0 .2.1.4.1.4.1.8.2 1.3 0 .3.1.6 0 .9-.1.4-.4.7-.7 1-1 1-1.7 2.4-2 3.8h4.9v-.7c0-.6-.2-1.3.1-1.9.1-.3.4-.5.6-.8 1-1 1.6-2.4 1.8-3.9h-5z"/><path id="XMLID_32_" class="st9" d="M129.7 147.8v-.4c0-.3 0-.6.1-.8.1-.3.3-.6.6-.9 1.1-1.3 2-2.8 2.7-4.5.1-.2.1-.4.2-.6h-5.6c-.1.3-.1.5-.2.8-.2 1.2-.3 2.5-.8 3.7-.2.5-.6 1-.9 1.5-.2.4-.3.7-.5 1.1h4.4z"/></g><path id="XMLID_20_" class="st12" d="M119.7 151.3s-.1 0 0 0"/><path id="XMLID_5_" class="st5" d="M142.8 140.7H125c-1.9 0-3.4 1.6-3.4 3.6v2.8c0 .5.3.8.8.8h2.6l16.5.1c.9 0 1.8.1 2.6.4l1.3.3c.4.1.8-.2.9-.6l.7-2.7c.6-1.9-2.3-4.7-4.2-4.7z"/></g><g id="Calque_28_-_copie_3"><path id="XMLID_36_" class="st10" d="M170.9 145.1c-.4.7-.8 1.4-1.2 2-.2.4-.5.8-.6 1.2-.1.5-.1.9-.1 1.4 0 .2 0 .5.3.6.1.1.3.1.5 0 1.1-.1 2.2-.3 3.3-.3 2.3 0 4.7.5 6.8 1.4.5.2 1.1.5 1.7.7.2 0 .3.1.5 0 .4-.1.7-.5 1-.9.3-.4.5-1 .2-1.4-.2-.2-.5-.3-.7-.5-.4-.4-.3-1-.4-1.5-.1-.6-.5-1.1-1-1.4-.5-.3-1-.6-1.6-.7-1.3-.4-2.6-.5-3.9-.7-1.7-.2-3.5-.4-5 .4"/><path id="XMLID_42_" d="M181.5 152.6c-.9-.9-2.1-1.4-3.4-1.7-2.8-.7-5.8-.9-8.7-.6 1.2-1-1.7-.6-2.7.8-.1.1-.2.3-.1.4.1.1.2.1.3.1.8 0 1.5-.1 2.3-.1 3.1-.3 6.3-.4 9.2.7 1.2.5 2.5 1.2 3.7.8"/><path id="XMLID_41_" class="st11" d="M167.9 140.7h17.8c1.9 0 3.4 1.6 3.4 3.6v2.8c0 .5-.3.8-.8.8h-2.6l-16.5.1c-.9 0-1.8.1-2.6.4l-1.3.3c-.4.1-.8-.2-.9-.6l-.7-2.7c-.5-1.9 2.3-4.7 4.2-4.7z"/><g id="XMLID_17_" class="st8"><path id="XMLID_30_" class="st9" d="M173.4 140.7c0 .1 0 .2-.1.4-.1.4-.1.8-.2 1.3 0 .3-.1.6 0 .9.1.4.4.7.7 1 1 1 1.7 2.4 2 3.8h-4.9v-.7c0-.6.2-1.3-.1-1.9-.1-.3-.4-.5-.6-.8-1-1-1.6-2.4-1.8-3.9h5z"/><path id="XMLID_18_" class="st9" d="M181.1 147.8v-.4c0-.3 0-.6-.1-.8-.1-.3-.3-.6-.6-.9-1.1-1.3-2-2.8-2.7-4.5-.1-.2-.1-.4-.2-.6h5.6c.1.3.1.5.2.8.2 1.2.3 2.5.8 3.7.2.5.6 1 .9 1.5.2.4.3.7.5 1.1h-4.4z"/></g><path id="XMLID_16_" class="st12" d="M191.1 151.3"/><path id="XMLID_12_" class="st5" d="M167.9 140.7h17.8c1.9 0 3.4 1.6 3.4 3.6v2.8c0 .5-.3.8-.8.8h-2.6l-16.5.1c-.9 0-1.8.1-2.6.4l-1.3.3c-.4.1-.8-.2-.9-.6l-.7-2.7c-.5-1.9 2.3-4.7 4.2-4.7z"/></g></g></svg>