<?xml version="1.0" encoding="utf-8"?>
<!-- Generator: Adobe Illustrator 19.0.0, SVG Export Plug-In . SVG Version: 6.00 Build 0)  -->
<svg version="1.0" id="圖層_1" xmlns="http://www.w3.org/2000/svg" xmlns:xlink="http://www.w3.org/1999/xlink" x="0px" y="0px" width="300px" height="260px"
	 viewBox="0 0 300 260" style="enable-background:new 0 0 300 260;" xml:space="preserve">
<style type="text/css">
	.st0{display:none;}
	.st1{display:inline;fill:url(#XMLID_2_);}
	.st2{display:inline;fill:#FEBC12;}
	.st3{display:inline;fill:url(#XMLID_3_);}
	.st4{display:inline;fill:url(#XMLID_4_);}
	.st5{display:inline;fill:url(#XMLID_5_);}
	.st6{fill:url(#XMLID_6_);}
	.st7{fill:#FEBC12;}
	.st8{fill:url(#XMLID_7_);}
	.st9{fill:url(#XMLID_8_);}
	.st10{display:inline;fill:url(#XMLID_9_);}
	.st11{display:inline;fill:url(#XMLID_10_);}
	.st12{display:inline;fill:url(#XMLID_11_);}
	.st13{fill:#F1F2F2;}
	.st14{fill:#939598;}
	.st15{fill:none;stroke:#414042;stroke-miterlimit:10;}
	.st16{fill:#58595B;stroke:#414042;stroke-miterlimit:10;}
	.st17{fill:#414042;}
	.st18{opacity:0.32;enable-background:new    ;}
	.st19{opacity:0.39;fill:#58595B;enable-background:new    ;}
	.st20{fill:none;stroke:#414042;stroke-width:0.5;stroke-miterlimit:10;}
	.st21{fill:#ED1C24;}
	.st22{opacity:0.25;fill:#FFFFFF;enable-background:new    ;}
	.st23{fill:#58595B;}
</style>
<g id="fire" class="st0">
	
		<linearGradient id="XMLID_2_" gradientUnits="userSpaceOnUse" x1="150.7" y1="89.6658" x2="150.7" y2="62.3838" gradientTransform="matrix(1 0 0 -1 0 243.4917)">
		<stop  offset="0.4929" style="stop-color:#ED683C"/>
		<stop  offset="1" style="stop-color:#E93E3A"/>
	</linearGradient>
	<path id="XMLID_378_" class="st1" d="M152.9,154.1c-2.9-0.8-6,0-8.2,2c-1.2,1.1-2.5,2.7-3.6,4.9c0,0,0.7-1,1.3-1
		c0,0-2.1,5.4,1.2,9.2c1.6,1.8,0.4,5.8,0.4,5.8s2.3-1.2,2.1-4.1c-0.1-1.2-1.2-2.9,0.1-4.5c0,0,0.1,3,1.5,5.4c0.9,1.6-0.1,3,0.5,4.7
		s1.5,4,2.4,4.5c0,0,0.1-4,2.3-5.9s1-7.2-0.2-8.2c0,0,2.1,0,3.4,4.9c0,0,1.8-2,0.7-5.3c0,0,1.4,1.1,3.5,1.1c0,0-3.5-2-3.3-5.2
		s0.4-7-2.6-8C153.9,154.4,153.4,154.3,152.9,154.1z"/>
	<path id="XMLID_377_" class="st2" d="M154.5,156.1c-1.6-1.5-3.9-1.9-6-1.3c-2,0.6-4.5,1.9-5.1,4.6c-0.4,1.6-0.6,3.9,0,4.7
		c0.2-0.4,0.3-3.7,2-3.9s1,5.9,1.5,7.2c0.4,1,0.6,1.4,1.3,1.7c0.4,0.2,0.8,0,1-0.3c0.3-0.6-1-2.9-0.6-3.8c0.3-0.8,1.2-1.5,2.1-1.2
		c0.9,0.3,1.7,2.3,4,3.6c1.1,0.6-2.6-5-0.7-4.7c0.9,0.1,2.1,2.4,2.1,2.4S158,159.3,154.5,156.1z"/>
	
		<linearGradient id="XMLID_3_" gradientUnits="userSpaceOnUse" x1="149.7724" y1="88.3572" x2="149.7724" y2="80.4548" gradientTransform="matrix(1 0 0 -1 0 243.4917)">
		<stop  offset="0" style="stop-color:#FFF579"/>
		<stop  offset="1" style="stop-color:#FFF9BA"/>
	</linearGradient>
	<path id="XMLID_375_" class="st3" d="M153.3,156c-1.1-1-3.2-1-4.6-0.8c-1.5,0.2-2.5,0.8-3.7,2.1c-0.8,1-1.6,2.6-1.1,3.1
		c0.4-0.4,0.6-1.2,1.9-1.3c1.2-0.1,1.3,2.6,1.6,3.5c0.3,0.7,1.1-2.1,1.6-2.2c1.2-0.1,1.1,1.5,2.7,2.5c0.8,0.4,0.3-3.5,1.6-3.3
		c0.6,0.1,2.5,2.2,2.5,2.2S155.8,158.3,153.3,156z"/>
</g>
<g id="fire2" class="st0">
	
		<linearGradient id="XMLID_4_" gradientUnits="userSpaceOnUse" x1="150.4" y1="134.1239" x2="150.4" y2="106.5865" gradientTransform="matrix(1 0 0 -1 0 287.8173)">
		<stop  offset="0.4929" style="stop-color:#ED683C"/>
		<stop  offset="1" style="stop-color:#E93E3A"/>
	</linearGradient>
	<path id="XMLID_484_" class="st4" d="M152.9,154c-2.9-0.8-6,0-8.3,2c-1.2,1.1-2.5,2.7-3.6,4.9c0,0,0.7-1,1.3-1c0,0-2,4.3,1.4,8.2
		c1.7,1.9-0.5,5.8-0.5,5.8s2.7-0.1,2.6-3.1c-0.1-1.2-0.9-2.9,0.4-4.5c0,0-0.6,3.2,0.8,5.6c0.9,1.6,0.1,4.6,0.7,6.3
		c0.6,1.8,2,2.3,2.9,2.8c0,0-2.7-4.1-1.3-4.5c2-0.6,3,2.8,3,2.8c0.1-0.6,0.4-3.8-0.6-4.6c-2.6-2-1.7-5.9,0-6.7c0,0,1.6-1.1,3.9,3.3
		c0,0,1.6-2.1,0.5-5.5c0,0,1.6,0.6,3.7,0.6c0,0-2.8-0.9-2.6-4.1S156.3,155,152.9,154z"/>
	<path id="XMLID_483_" class="st2" d="M154.1,156.2c-1.6-1.5-3.6-2.1-5.7-1.5c-2,0.6-4.6,1.9-5.1,4.7c-0.4,1.6-0.1,5.2,0.6,6
		c0.2-0.4-0.1-4.4,1.6-4.5s1.8,5.4,1.6,6.7c-0.2,1.1,0.3,2.9,1,3.2c0.4,0.2,1.4-1.5,1.4-2.2s-1-1.5-1-2.6c0-0.9,0.6-2.2,1.6-1.9
		c0.9,0.3,2.3,1.9,4.6,3.2c1.2,0.6-3-5-1-4.7c0.9,0.1,2.5,1.8,2.5,1.8S157.7,159.5,154.1,156.2z"/>
	
		<linearGradient id="XMLID_5_" gradientUnits="userSpaceOnUse" x1="149.5987" y1="132.4434" x2="149.5987" y2="125.0546" gradientTransform="matrix(1 0 0 -1 0 287.8173)">
		<stop  offset="0" style="stop-color:#FFF579"/>
		<stop  offset="1" style="stop-color:#FFF9BA"/>
	</linearGradient>
	<path id="XMLID_442_" class="st5" d="M153.2,156.3c-1.1-1.1-2.9-1-4.2-0.8c-1.5,0.2-2.8,0.5-4,1.8c-0.8,1-1.6,2.6-1.2,3.2
		c0.4-0.4,0.7-1.4,1.9-1.6s1.2,2.5,1.5,3.4c0.3,0.7,1.2-2.1,1.7-2.2c1.2-0.1,0.9,1.7,2.5,2.6c0.8,0.4,0.7-3.5,2-3.3
		c0.6,0.1,2.1,2.4,2.1,2.4S155.7,158.6,153.2,156.3z"/>
</g>
<g id="fire3">
	
		<linearGradient id="XMLID_6_" gradientUnits="userSpaceOnUse" x1="149.65" y1="48.8055" x2="149.65" y2="19.7282" gradientTransform="matrix(1 0 0 -1 0 203.2598)">
		<stop  offset="0.4929" style="stop-color:#ED683C"/>
		<stop  offset="1" style="stop-color:#E93E3A"/>
	</linearGradient>
	<path id="XMLID_386_" class="st6" d="M153,154.8c-3.2-0.9-6.6,0-9,2.2c-1.3,1.2-2.7,2.9-4,5.4c0,0,0.7-1.1,1.4-1.1
		c0,0-1.8,3-0.5,6.9c0.6,2.7,2.5,4.7,2.4,1.5c-0.1-1.3,2.3-4,2.3-1.3c0,0-0.7,3.5,0.9,6.1c1,1.7-0.3,5,0.3,6.9s1.6,1.5,2.6,2.1
		c0,0-3.2-4.3-0.6-7.9c1.3-1.8,0.9-4.4,2.8-5.4c0,0,1.3-0.2,3.8,4.6c0,0,0.9-3-0.4-6.6c0,0,2,3,4.3,3c0,0-2-3.6-1.7-7.1
		C157.7,160.6,156.7,155.9,153,154.8z"/>
	<path id="XMLID_385_" class="st7" d="M154.3,157.1c-1.8-1.6-3.9-2.3-6.2-1.6c-2.2,0.7-5,2.1-5.6,5.1c-0.4,1.8-0.1,5.7,0.6,6.6
		c0.2-0.4-0.1-4.7,1.8-4.9c1.9-0.2,2,5.8,1.7,7.3c-0.2,1.2,0.3,3.1,1.1,3.5c0.4,0.2,1.5-1.7,1.6-2.4c0-0.7-1.1-1.7-1.1-2.8
		c0-1,0.6-2.4,1.8-2c0.9,0.3,1.3,2.7,3.8,4.1c1.3,0.7-2.1-6.1,0-5.8c1,0.2,2.7,3.4,2.7,3.4S158.2,160.7,154.3,157.1z"/>
	
		<linearGradient id="XMLID_7_" gradientUnits="userSpaceOnUse" x1="149.2388" y1="46.9817" x2="149.2388" y2="38.9354" gradientTransform="matrix(1 0 0 -1 0 203.2598)">
		<stop  offset="0" style="stop-color:#FFF579"/>
		<stop  offset="1" style="stop-color:#FFF9BA"/>
	</linearGradient>
	<path id="XMLID_384_" class="st8" d="M153.3,157.3c-1.2-1.1-3.1-1.1-4.6-0.9c-1.6,0.3-3,0.5-4.4,2c-0.9,1.1-1.8,2.8-1.3,3.4
		c0.4-0.4,0.7-1.6,2.1-1.7c1.3-0.1,1.3,2.7,1.6,3.7c0.3,0.8,1.3-2.3,1.8-2.4c1.4-0.1,1,1.8,2.7,2.8c0.9,0.5,0.7-3.9,2.2-3.6
		c0.7,0.1,2.2,2.6,2.2,2.6S156,159.8,153.3,157.3z"/>
	
		<linearGradient id="XMLID_8_" gradientUnits="userSpaceOnUse" x1="144.6568" y1="28.336" x2="144.6568" y2="20.2769" gradientTransform="matrix(0.9992 -3.979808e-002 -3.979808e-002 -0.9992 7.0268 210.0102)">
		<stop  offset="0.4929" style="stop-color:#ED683C"/>
		<stop  offset="1" style="stop-color:#E93E3A"/>
	</linearGradient>
	<path id="XMLID_383_" class="st9" d="M150.2,176c0,0-2,1.7-0.9,3.7c1,2,2,3.1,1.7,4.3c0,0,1.7-1.8,1.1-3.3
		C151.4,179.2,149.7,177.8,150.2,176z"/>
</g>
<g id="fire4" class="st0">
	
		<linearGradient id="XMLID_9_" gradientUnits="userSpaceOnUse" x1="150.35" y1="124.8918" x2="150.35" y2="99.2091" gradientTransform="matrix(1 0 0 -1 0 278.5899)">
		<stop  offset="0.4929" style="stop-color:#ED683C"/>
		<stop  offset="1" style="stop-color:#E93E3A"/>
	</linearGradient>
	<path id="XMLID_388_" class="st10" d="M153.1,154c-3.1-0.9-6.5,0-8.9,2.2c-1.3,1.2-2.7,2.9-3.9,5.3c0,0,0.7-1.1,1.4-1.1
		c0,0-2.1,4.7,1.5,8.9c1.8,2,0.1-2.2,2.2-3.5c0,0-0.3,5.1,1.3,7.7c1,1.7,2.4-6.1,4.8-5.9c1.1,0.1,3.5,2.9,3.6,5.5
		c0.1,2.8-1.6,6.2-1.6,6.2c0.1-0.6,4.6-3.9,3.7-5.7c-2.1-4,0.3-4.7-1.7-8.1c0,0,2.6,1.9,4.9,1.9c0,0-3-0.9-2.8-4.4
		C157.8,159.8,156.8,155.1,153.1,154z"/>
	<path id="XMLID_387_" class="st2" d="M154.4,156.3c-1.8-1.6-3.8-2.3-6.1-1.6c-2.2,0.7-4.9,2.1-5.5,5c-0.4,1.8-0.1,5.6,0.6,6.5
		c0.2-0.4-0.1-4.7,1.8-4.9c1.9-0.2,2,5.8,1.7,7.2c-0.2,1.2,1.5-0.6,1.5-1.7c0-1,0.6-2.3,1.7-2c0.9,0.3,2.5,2,4.9,3.4
		c1.2,0.7-3.2-5.4-1.1-5.1c1,0.1,2.7,2,2.7,2S158.3,159.9,154.4,156.3z"/>
	
		<linearGradient id="XMLID_10_" gradientUnits="userSpaceOnUse" x1="149.6232" y1="123.0914" x2="149.6232" y2="115.133" gradientTransform="matrix(1 0 0 -1 0 278.5899)">
		<stop  offset="0" style="stop-color:#FFF579"/>
		<stop  offset="1" style="stop-color:#FFF9BA"/>
	</linearGradient>
	<path id="XMLID_382_" class="st11" d="M153.4,156.5c-1.2-1.1-3.1-1.1-4.5-0.8c-1.6,0.3-3,0.5-4.3,1.9c-0.9,1.1-1.7,2.8-1.2,3.4
		c0.4-0.4,0.7-1.5,2.1-1.7c1.3-0.1,1.3,2.7,1.6,3.7c0.3,0.7,1.3-2.3,1.8-2.3c1.3-0.1,0.9,1.8,2.7,2.8c0.9,0.5,0.7-3.8,2.2-3.6
		c0.7,0.1,2.2,2.6,2.2,2.6S156.1,159,153.4,156.5z"/>
	
		<linearGradient id="XMLID_11_" gradientUnits="userSpaceOnUse" x1="149.1839" y1="109.5557" x2="149.1839" y2="101.5848" gradientTransform="matrix(0.9992 -3.979808e-002 -3.979808e-002 -0.9992 7.0268 285.3403)">
		<stop  offset="0.4929" style="stop-color:#ED683C"/>
		<stop  offset="1" style="stop-color:#E93E3A"/>
	</linearGradient>
	<path id="XMLID_381_" class="st12" d="M151.5,169.9c0,0-1.9,1.7-0.9,3.7s2,3.1,1.7,4.3c0,0,1.7-1.8,1-3.3
		C152.7,173.2,151,171.8,151.5,169.9z"/>
</g>
<g id="missile">
	<polygon id="XMLID_350_" class="st13" points="137.8,151.8 137.8,141.2 144.9,134.1 148.4,137.7 141.3,151.8 	"/>
	<polygon id="XMLID_372_" class="st14" points="140.2,142.2 146.6,135.8 144.9,134.1 137.8,141.2 137.8,151.8 140.2,151.8 	"/>
	<polygon id="XMLID_339_" class="st15" points="137.8,151.8 137.8,141.2 144.9,134.1 148.4,137.7 141.3,151.8 	"/>
	<polygon id="XMLID_399_" class="st13" points="162.6,151.8 162.6,141.2 155.5,134.1 152,137.7 159.1,151.8 	"/>
	<polygon id="XMLID_398_" class="st14" points="160.2,142.2 153.8,135.8 155.5,134.1 162.6,141.2 162.6,151.8 160.2,151.8 	"/>
	<polygon id="XMLID_397_" class="st15" points="162.6,151.8 162.6,141.2 155.5,134.1 152,137.7 159.1,151.8 	"/>
	<polygon id="XMLID_376_" class="st16" points="145,155 145,150 155,150 155,155 	"/>
	<rect id="XMLID_111_" x="144.7" y="149.5" class="st17" width="10.6" height="3"/>
	<rect id="XMLID_357_" x="145.5" y="149.5" class="st18" width="5.3" height="3"/>
	<rect id="XMLID_112_" x="142.5" y="112.5" class="st13" width="15" height="37.5"/>
	<rect id="XMLID_424_" x="142.5" y="112.5" class="st19" width="3" height="37.5"/>
	<rect id="XMLID_113_" x="142.5" y="112.5" class="st15" width="15" height="37.5"/>
	<line id="XMLID_358_" class="st20" x1="142.3" y1="117.4" x2="157.3" y2="117.4"/>
	<line id="XMLID_354_" class="st20" x1="142.5" y1="120" x2="157.5" y2="120"/>
	<path id="XMLID_374_" class="st20" d="M157.5,122.6H156c-1.2,0-2.2,1-2.2,2.2v14.4c0,1.2,1,2.2,2.2,2.2h1.5V122.6z"/>
	<path id="XMLID_411_" class="st21" d="M152.5,102.8h-5c-0.7,0-1.3-0.6-1.3-1.3l0,0c0-0.7,0.6-1.3,1.3-1.3h5c0.7,0,1.3,0.6,1.3,1.3
		l0,0C153.8,102.2,153.2,102.8,152.5,102.8z"/>
	<path id="XMLID_418_" class="st15" d="M152.5,102.8h-5c-0.7,0-1.3-0.6-1.3-1.3l0,0c0-0.7,0.6-1.3,1.3-1.3h5c0.7,0,1.3,0.6,1.3,1.3
		l0,0C153.8,102.2,153.2,102.8,152.5,102.8z"/>
	<polygon id="XMLID_359_" class="st21" points="142.5,112.1 145,102.1 155,102.1 157.5,112.1 	"/>
	<polygon id="XMLID_423_" class="st22" points="146,102.1 143.5,112.1 146.5,112.1 149,102.1 	"/>
	<polygon id="XMLID_373_" class="st15" points="142.5,112.1 145,102.1 155,102.1 157.5,112.1 	"/>
	<circle id="XMLID_420_" class="st23" cx="155.7" cy="124.7" r="0.8"/>
	<circle id="XMLID_422_" class="st23" cx="155.7" cy="139.2" r="0.8"/>
</g>
</svg>
