<svg version="1.0" id="Calque_7" xmlns="http://www.w3.org/2000/svg" x="0" y="0" width="300" height="260" viewBox="0 0 300 300" style="enable-background:new 0 0 300 300" xml:space="preserve"><style>.st0{opacity:.4;fill:#353535}.st1{fill:#59452a}.st2{opacity:.75;fill:#8a6940}</style><g id="Calque_5"><path id="XMLID_27_" class="st0" d="M54.1 77s2.4-2.7 4-9.1 4.7-11.2 4.7-11.2l.7-3s3.7-3.8 5.3-5.9c.1-.2.6.1.7-.1 0 0 1.5 1.9-3.7 6.4L63 60.6l5.5-1.8 3.4-4.5s2.9-2.4 4-3.7c.1-.1.6.1.6 0 0 0 1.9.6-3.5 4.7L69.2 60l-6.7 2.8-1.8 4s.7 4.2-2 7.7l8.6-2.3 16.6-12 .3-7 2.4-12.1 2.8-6.5 5.6-5.9.7-.1-4.7 6.6-1.2 4.1s1.2-.1 4-1.4c2-.9 4-5.5 5.1-7.5.4-.8.8-.4.8-.4s-.2 5.2-4.6 8.5l-4.7 2.1-2.8 6.6L85.9 58l2.5-1.6L98.2 41l2.3-3 8.7-7.4h.6l-.2 2.4-8 6.1-.8 2.1 4.5.5 7.2-2.4 5.3-6h.6l-4.4 5.9 2.8.9-3.6.3-7.4 2.6-5.3-.9-9.9 16.1-20.4 16.5-13.9 3.8-13.8 8.1 2.4-4.5 9.2-5.1z"/><path id="XMLID_26_" class="st1" d="M53.4 77s2.4-2.7 4-9.1c1.6-6.4 4.7-11.2 4.7-11.2l.7-3s4.7-3.9 5.9-6c0 0 1.5 1.9-3.7 6.4l-2.8 6.5 5.5-1.8 3.4-4.5s4-2.5 4.7-3.7c0 0 1.9.6-3.5 4.7L68.6 60l-6.7 2.8-1.8 4s.7 4.2-2 7.7l8.6-2.3 16.6-12 .3-7L86 41.1l2.8-6.5 6.3-6-4.9 6.6-1.2 4.1s1.2-.1 4-1.4 5.9-7.9 5.9-7.9-.2 5.2-4.6 8.5l-4.7 2.1-2.8 6.6L85.2 58l2.5-1.6L97.5 41l2.3-3 9.3-7.4-.2 2.4-8 6.1-.8 2.1 4.5.5 7.2-2.4 5.9-6-4.4 5.9 2.8.9-3.6.3-7.4 2.6-5.3-.9L90 58.2 69.6 74.7l-13.9 3.8-13.8 8.1 2.4-4.5 9.1-5.1z"/><g id="Calque_3"><path id="XMLID_4_" class="st2" d="M55.5 74.8s2.8-5.8 2.8-7.3c-.1-2.1 3.5-9.8 3.5-9.8s.1.7-.5 2.1c-.9 2.2-2.5 5.6-2.4 7 .1 1.7-1.3 4.9-1.7 5.5-.4.8-1.7 2.5-1.7 2.5z"/><path id="XMLID_5_" class="st2" d="M57.9 77.2s12.2-4.2 12.9-5.5c1.9-3.2 7-6 7-6s.1.6-1.1 1.4c-2 1.3-4.8 4.5-5.5 5.6-.9 1.4-5.4 2.3-6.2 2.5s-7.1 2-7.1 2z"/><path id="XMLID_1_" class="st2" d="M91.9 32.3s-5.8 4.3-6.5 16.6c-.1 0 2.3-11.9 6.5-16.6z"/><path id="XMLID_8_" class="st2" d="M95.5 45.9S95 53 85.1 60.6c0 0 8.7-8.6 10.4-14.7z"/><path id="XMLID_7_" class="st2" d="M88.4 40.3s5.6-1 7.7-3.8c0 0-3.3 2.3-7.7 3.8z"/><path id="XMLID_9_" class="st2" d="M100.6 42s5.6 1.2 8.6-.7c0 0-3.9 1-8.6.7z"/><path id="XMLID_10_" class="st2" d="M108.4 32s-5.1 2.6-6.3 5.9c0 0 2.5-3.2 6.3-5.9z"/></g></g><g id="Calque_4"><path id="XMLID_12_" class="st0" d="M80.1 88.8s9.9-4.2 11.1-4.1 5.7.3 5.7.3 4.2-2.9 7.1-2.8c2.9 0 7.2-.5 7.2-.5s4.2-1.2 5.5-.7c.8.3 3.3 1.5 4.5 2.3.8.6.6.9.6.9l-5.3-1.4s-3.4-.5-4.3.3c-.9.8-3.3.1-3.3.1l-3.2.4s6.3 3 7.8 4.5c1.6 1.4 6.1 2.6 6.1 2.6s5 1.5 6.1 3.3 1.6 3.9 1.6 3.9-1.7-2.8-3.6-3.6-7.2-1.8-7.2-1.8-3.8-2.6-6-3.7c-2.2-1-8.9-4.2-9.7-3.7-.8.5-3.8 1.3-3.8 1.3s-5.8.2-7.1 1c-1.3.8-7.8 2.7-7.8 2.7S88.8 94 93 94.9c3 .6 6.5-.1 8 0 .7 0 .7.9.7.9s-1.8 4.1-12.1.5c-10.4-3.6-21.7-11.1-21.7-11.1s.1-.3.4-.3c1-.1 3.2-.1 5 .4 2.2.7 6.8 3.5 6.8 3.5z"/><path id="XMLID_11_" class="st1" d="M79.5 87.9s9.9-4.2 11.1-4.1c1.2.1 5.7.3 5.7.3s4.2-2.9 7.1-2.8c2.9 0 7.2-.5 7.2-.5s4.2-1.2 5.5-.7c1.3.4 5.1 3.2 5.1 3.2l-5.3-1.4s-3.4-.5-4.3.3c-.9.8-3.3.1-3.3.1l-3.2.4s6.3 3 7.8 4.5c1.6 1.4 6.1 2.6 6.1 2.6s5 1.5 6.1 3.3c1 1.8 1.6 3.9 1.6 3.9s-1.7-2.8-3.6-3.6c-1.9-.7-7.2-1.8-7.2-1.8s-3.8-2.6-6-3.7c-2.2-1-8.9-4.2-9.7-3.7-.8.5-3.8 1.3-3.8 1.3s-5.8.2-7.1 1c-1.3.8-7.8 2.7-7.8 2.7s6.7 3.9 10.9 4.8 8.7.9 8.7.9-1.8 4.1-12.1.5S68.1 85 68.1 85s2.1-1.1 4.5-.5c2.3.6 6.9 3.4 6.9 3.4z"/><path id="XMLID_14_" class="st2" d="M77.9 88.9s5.4-1 6.3-1.8c1.2-1.2 8.2-2.6 8.2-2.6s-.4.4-1.6.8c-1.9.5-5 1.2-5.8 2-1 1-3.8 1.7-4.5 1.7-.7-.1-2.6-.1-2.6-.1z"/><path id="XMLID_15_" class="st2" d="M99.4 83.3s7.1-.9 16.4 7.4c0 .1-10.1-6.9-16.4-7.4z"/><path id="XMLID_16_" class="st2" d="M98.6 96s-6.9 1.8-17.3-5.2c.1 0 11 5.6 17.3 5.2z"/></g><g id="Calque_4_-_copie"><path id="XMLID_17_" class="st0" d="M215.6 230.2s-3.2-8.6-3.9-9.3-3.5-3.4-3.5-3.4-.7-4.3-2.4-6.1c-1.7-1.8-3.9-4.8-3.9-4.8s-1.7-3.3-2.7-3.9c-.6-.3-2.9-1.2-4.1-1.5-.9-.2-.9.2-.9.2l3.9 2.5s2.3 1.8 2.3 2.9 1.9 2.2 1.9 2.2l1.6 2.2s-5.6-2.2-7.4-2.3c-1.8-.1-5.2-2.3-5.2-2.3s-3.9-2.3-5.6-1.9c-1.7.4-3.4 1.3-3.4 1.3s2.8-.6 4.4.2c1.6.8 5.3 3.5 5.3 3.5s3.9.9 5.8 1.7c2 .8 7.9 3.1 8 3.9.2.8 1.4 3.1 1.4 3.1s3.3 3.8 3.5 5c.3 1.3 2.8 6.5 2.8 6.5s-6.3-1.9-9.4-4c-2.1-1.5-3.7-4.1-4.7-5.1-.4-.4-1 .1-1 .1s-1.5 3.5 6.8 7.9 19.7 7.2 19.7 7.2.1-.2-.1-.5c-.5-.7-1.9-2.1-3.2-2.9-1.5-1.2-6-2.4-6-2.4z"/><path id="XMLID_13_" class="st1" d="M216.5 230s-3.2-8.6-3.9-9.3-3.5-3.4-3.5-3.4-.7-4.3-2.4-6.1c-1.7-1.8-3.9-4.8-3.9-4.8s-1.7-3.3-2.7-3.9c-1-.6-5-1.3-5-1.3l3.9 2.5s2.3 1.8 2.3 2.9c0 1 1.9 2.2 1.9 2.2l1.6 2.2s-5.6-2.2-7.4-2.3c-1.8-.1-5.2-2.3-5.2-2.3s-3.9-2.3-5.6-1.9c-1.7.4-3.4 1.3-3.4 1.3s2.8-.6 4.4.2c1.6.8 5.3 3.5 5.3 3.5s3.9.9 5.8 1.7c2 .8 7.9 3.1 8 3.9.2.8 1.4 3.1 1.4 3.1s3.3 3.8 3.5 5 2.8 6.5 2.8 6.5-6.3-1.9-9.4-4c-3-2.1-5.7-5-5.7-5s-1.5 3.5 6.8 7.9 18.7 6.9 18.7 6.9-.5-2-2.3-3.1c-1.5-1.2-6-2.4-6-2.4z"/><path id="XMLID_6_" class="st2" d="M216.9 231.6s-2.5-4-2.5-5c0-1.4-3.2-6.7-3.2-6.7s0 .5.4 1.5c.8 1.5 2.2 3.9 2.2 4.8-.1 1.2 1.2 3.4 1.6 3.8.4.4 1.5 1.6 1.5 1.6z"/><path id="XMLID_3_" class="st2" d="M207.8 214.8s-3.6-4.9-14.3-6c0 .1 10.2 2.4 14.3 6z"/><path id="XMLID_2_" class="st2" d="M200.2 222.7s2.9 5.4 13.4 7.8c0 0-9.9-3.6-13.4-7.8z"/></g></svg>