<svg version="1.0" id="Calque_7" xmlns="http://www.w3.org/2000/svg" x="0" y="0" width="300" height="300" style="enable-background:new 0 0 300 300" xml:space="preserve"><style>.st0{opacity:.4}.st7{opacity:.25;fill:#424142}.st8{fill:none;stroke:#333;stroke-width:3;stroke-miterlimit:10}.st9{fill:#c9e9f4}.st10{fill:#e4f4fa}.st11{fill:#ecf8fd}.st12{opacity:.5;fill:#fff}.st14{fill:#e5f5fa}.st16{opacity:.25}.st17{fill:#424142}</style><g id="XMLID_17_" class="st0"><g id="XMLID_65_"><path id="XMLID_66_" d="M135.9 163.4c3 6.4 5.8 14 11.4 18.8 5.7 4.9 13 6.2 20.6 5.7 2-.5 4.3 1.2 6.2.7 1.9-.5 2.7-2.9 4.2-4.4 4.4-4.4 11.2-6.7 16-10.9 4.8-4.3 7.3-10.1 8.8-16.6 3.5-12.9 2.3-27.1-4.8-38.1-7.2-11.1-19.7-17.6-33.3-18.6-8.2-1-15.8.1-21.8 5-5.7 4.7-8.8 12.5-12.2 19.4-2 4.5-4.4 8.8-4.2 13.6.2 4.8 3.2 9.3 4.2 13.8 0 .5-1.2 1.9-.7 2.4s2.7 0 2.7.5c.5 1.5-1.2 3.6-.8 5.1.4 1.5 2.7 2.1 3.6 3.6l-.4 1.5c.4-.4.5-1.5.5-1.5z" style="fill:#98a9af"/></g></g><g id="XMLID_20_" style="opacity:.75"><g id="XMLID_67_"><path id="XMLID_77_" d="M152.7 156.1c2.5 3 5 8 9.1 10s8.5.9 12.5-2.1c3.5-3 8.5-5.2 10.8-9.2 2.4-4 1.8-8.8.8-13.8-1.5-5.5-3-11.9-7.4-15.9-4.4-4.1-10.5-4.9-16.5-4.4-1.9.5-4.3-1-6-.3-1.9.8-2.2 3.2-3.3 4.8-1 1.9-3.9 2.6-5 4.3-1.2 1.8-.4 4.4-.9 6.4-1 4-2.1 7.7-.7 11.1 1.4 3.4 5.2 5.8 6.7 9.3l-.3 1.2c.5-.3.2-1.4.2-1.4z" style="fill:#9b9176"/></g></g><linearGradient id="XMLID_5_" gradientUnits="userSpaceOnUse" x1="134.196" y1="143.48" x2="177.854" y2="143.48"><stop offset="0" style="stop-color:#59411f"/><stop offset=".173" style="stop-color:#563f1d"/><stop offset=".423" style="stop-color:#4d3915"/><stop offset=".718" style="stop-color:#3d2e04"/><stop offset="1" style="stop-color:#261b00"/></linearGradient><path id="XMLID_19_" d="M134.6 138.3s-1.6-14.7 1.2-10.1c4.5 7.4 5.7 10.4 13 11.7 5.5 1 12.4-4.5 15-6.2 1.2-.7 2.5-1.1 3.9-1 2.2.1 5.3.8 7 3.2 2.8 3.9 6.3 14.8-2.8 16.3-9.2 1.5-12.3-1.8-13.7 3.3-1.3 5.2-11.7 4.2-11.7 4.2l-9-11.2-2.9-10.2z" style="fill:url(#XMLID_5_);stroke:#424142;stroke-width:2;stroke-miterlimit:10"/><radialGradient id="XMLID_6_" cx="148.847" cy="159.622" r="42.763" gradientUnits="userSpaceOnUse"><stop offset="0" style="stop-color:#71532d"/><stop offset=".354" style="stop-color:#61492c"/><stop offset=".748" style="stop-color:#54412a"/><stop offset="1" style="stop-color:#4f3d2a"/></radialGradient><path id="XMLID_12_" d="M108.6 157.5s22-2.3 23.3-8.3c1.3-6-9.5-34.7-9.5-34.7h20.4s-9.4 25.7 6.1 35c15.4 9.3 40.2 3.7 40.2 3.7l-12.8 21.9s-18.7-11.7-25-9.7c-6.3 2-12.3 39.3-12.3 39.3l-5.4-17.1s8.8-9.6 6.4-12.5c-2.8-3.4-7.6.9-8.8.5-3.5-1.1-3.5-5.1-3.5-5.1s11.2-10.1 4.6-10.9c-6.7-.8-12 2.2-12 2.2l-11.7-4.3z" style="fill:url(#XMLID_6_);stroke:#424142;stroke-width:2;stroke-miterlimit:10"/><g id="Calque_5"><radialGradient id="XMLID_8_" cx="211.177" cy="187.677" r="61.566" gradientUnits="userSpaceOnUse"><stop offset="0" style="stop-color:#006838"/><stop offset=".198" style="stop-color:#006d3a"/><stop offset=".485" style="stop-color:#007b41"/><stop offset=".824" style="stop-color:#00944a"/><stop offset="1" style="stop-color:#00a651"/></radialGradient><path id="XMLID_16_" d="M200.3 125.6c-2.1.2-3.2 2.7-3.4 4.8s0 4.4-1.3 6.1c-.6.8-1.5 1.4-2.4 1.9-4.2 2.5-9.4 5.8-8.9 10.8.1.8.3 1.6.1 2.3-.3 1.6-2.2 2.4-3.7 3-2.1.9-4.2 2.1-5 4.2-1.1 2.9.6 6.5-1.2 9.1-1.5 2.2-4.7 2.2-7.3 1.6s-5.3-1.7-7.8-.9c-2 .6-3.6 2.3-4.1 4.3-.4 1.6-.1 3.2.2 4.8 1 5.8 2.1 11.7 3.1 17.5.4 2.5.8 5.3-.8 7.2-.4.5-.9.9-1.2 1.5-.7 1.8 1.6 3.2 2.8 4.7 2.5 3 .9 8 3.1 11.2 1 1.4 2.7 2.8 2 4.3-.3.7-.9 1.1-1.3 1.7-.6.9-.5 2-.3 3 1.2 7.8 7 14.7 14.5 17.3.5 4.4 5.7 6.3 10 7 8.5 1.4 17.2 1.7 25.8.7.9-.1 1.8-.2 2.5-.8 1-.8 1.2-2.3 1.6-3.5.9-2.8 3.4-5 6.2-5.6-.7-1.9-1.3-3.9-.7-5.8.3-.9 1-1.7 1.6-2.4 3.8-4.7 7.7-9.4 12.8-12.6 2.8-1.7 6-3.2 7.3-6.2.4-1 .5-2.1 1-3 .9-1.6 2.7-2.5 4.3-3.4 4.1-2.2 7.8-4.9 11.2-8.1 1.8-1.7 3.7-3.8 3.7-6.4 0-1.9-1.1-3.7-.9-5.6.1-1.1.6-2.1 1-3.2 1.7-4.2 1.8-8.8 1.9-13.3 0-1.1.1-2.3-.2-3.4-.3-1-.8-2-1.4-2.9-3-4.8-6.6-9.4-7.3-15-.2-1.8-.1-3.8-.8-5.5-1.7-4.1-7.2-5.3-9.2-9.2-.6-1.2-.8-2.5-1.5-3.6-3.1-5.3-12.6-2.2-16.6-6.8-1-1.2-1.6-2.7-2.8-3.7-1.1-.8-2.5-1-3.8-1.2-5.6-.7-11.3-1.1-16.9-1.6-1.4-.1-2.8-.2-4.1.4-1.2.6-2.2 2.1-1.7 3.3" style="fill:url(#XMLID_8_);stroke:#424142;stroke-width:2;stroke-miterlimit:10"/><path id="XMLID_35_" class="st7" d="M266.9 170.5c-.3-1-.8-2-1.4-2.9-3-4.8-6.6-9.4-7.3-15-.2-1.8-.1-3.8-.8-5.5-1.7-4.1-7.2-5.3-9.2-9.2-.6-1.2-.8-2.5-1.5-3.6-3.1-5.3-12.6-2.2-16.6-6.8-1-1.2-1.6-2.7-2.8-3.7-1.1-.8-2.5-1-3.8-1.2-5.6-.7-11.3-1.1-16.9-1.6-1.4-.1-2.8-.2-4.1.4-.2.1-.3.2-.4.3.5.2 1 .4 1.4.7 1.2.9 1.8 2.5 2.8 3.7 4.1 4.7 13.5 1.5 16.6 6.8.7 1.1.9 2.4 1.5 3.6 2 3.9 7.5 5.2 9.2 9.2.7 1.7.6 3.6.8 5.5.7 5.6 4.3 10.2 7.3 15 .6.9 1.1 1.9 1.4 2.9.3 1.1.3 2.3.2 3.4-.1 4.5-.2 9.1-1.9 13.3-.4 1-.9 2-1 3.2-.2 1.9.9 3.7.9 5.6 0 2.5-1.8 4.7-3.7 6.4-3.4 3.1-7.1 5.9-11.2 8.1-1.6.9-3.4 1.8-4.3 3.4-.5.9-.6 2-1 3-1.2 3-4.5 4.5-7.3 6.2-5.1 3.2-9 8-12.8 12.6-.6.8-1.2 1.5-1.6 2.4-.7 1.9 0 3.9.7 5.8-2.9.6-5.4 2.8-6.2 5.6-.4 1.2-.6 2.7-1.6 3.5-.7.6-1.6.7-2.5.8-1.3.1-2.5.2-3.8.3.6.1 1.2.3 1.8.4 8.5 1.4 17.2 1.7 25.8.7.9-.1 1.8-.2 2.5-.8 1-.8 1.2-2.3 1.6-3.5.9-2.8 3.4-5 6.2-5.6-.7-1.9-1.3-3.9-.7-5.8.3-.9 1-1.7 1.6-2.4 3.8-4.7 7.7-9.4 12.8-12.6 2.8-1.7 6-3.2 7.3-6.2.4-1 .5-2.1 1-3 .9-1.6 2.7-2.5 4.3-3.4 4.1-2.2 7.8-4.9 11.2-8.1 1.8-1.7 3.7-3.8 3.7-6.4 0-1.9-1.1-3.7-.9-5.6.1-1.1.6-2.1 1-3.2 1.7-4.2 1.8-8.8 1.9-13.3.1-1.1.1-2.3-.2-3.4z"/><g id="XMLID_26_" class="st0"><g id="XMLID_98_"><path id="XMLID_101_" class="st8" d="M174 195.9c-.5 6.4-2 12.8-.6 18.7 1.4 6.1 5.5 11.2 8.5 16.7 1.4 2.3 1.5 5.5 3.2 7 2 1.8 5.2 1.5 7.4 2.6 1 .5 2.1 2.3 3.2 2s.9-2.4 1.4-3.4c.5-1.8 2.9-2.6 3.7-4 .9-1.7.4-4.3 1.5-5.3 1-1 3.5-.2 4.7-.9s1.5-3.2 2.5-4.2c8.3-3.9 18.5-6.2 25.9-11.5 7.7-5.5 12.1-13.6 13.6-23.7 1-8.1 2.2-15.8-.1-23-2.3-7.1-7.7-12.8-12.7-19.3-.9-1.4-.7-3.8-1.9-4.6-1.3-.9-3.9-.1-4.9-1.2-2.9-2.4-5.9-7.4-10-9.2-4.4-1.9-8.4-.6-11.5 4-.5 1-2.5.9-2.8 1.6s1.3 2.4.8 3.4c-6.4 8.9-15.2 15.9-21.1 24.5-6.3 8.6-9.3 18.7-10.8 29.8l-1.1.9c.5 0 1.1-.9 1.1-.9z"/></g></g><g id="XMLID_27_"><g id="XMLID_102_"><path id="XMLID_103_" class="st9" d="M174 195.9c-.5 6.4-2 12.8-.6 18.7 1.4 6.1 5.5 11.2 8.5 16.7 1.4 2.3 1.5 5.5 3.2 7 2 1.8 5.2 1.5 7.4 2.6 1 .5 2.1 2.3 3.2 2s.9-2.4 1.4-3.4c.5-1.8 2.9-2.6 3.7-4 .9-1.7.4-4.3 1.5-5.3 1-1 3.5-.2 4.7-.9s1.5-3.2 2.5-4.2c8.3-3.9 18.5-6.2 25.9-11.5 7.7-5.5 12.1-13.6 13.6-23.7 1-8.1 2.2-15.8-.1-23-2.3-7.1-7.7-12.8-12.7-19.3-.9-1.4-.7-3.8-1.9-4.6-1.3-.9-3.9-.1-4.9-1.2-2.9-2.4-5.9-7.4-10-9.2-4.4-1.9-8.4-.6-11.5 4-.5 1-2.5.9-2.8 1.6s1.3 2.4.8 3.4c-6.4 8.9-15.2 15.9-21.1 24.5-6.3 8.6-9.3 18.7-10.8 29.8l-1.1.9c.5 0 1.1-.9 1.1-.9z"/></g></g><g id="XMLID_28_" class="st0"><g id="XMLID_99_"><path id="XMLID_100_" class="st10" d="M181.9 186c-1.5 6.9-4.5 14.5-3.6 21.7.9 7.3 5.2 13.2 11.2 18.2.5 0 .6 1.8 1.4 1.8s.7-1.6 1.2-1.6c2.9-4.4 7.8-5.6 11.8-7.5 4.2-2 8.1-4.9 12.7-5.9 4-1.5 8.8-1.7 12.5-4.2 3.6-2.5 5.5-6.8 8-10.3 5-9.5 7.6-21.2 4.5-31.8-3.1-10.7-11.4-18.8-21.9-22.8-.5-.2-.6-1.4-1.1-1.1-.3.2.1 2.1-.3 2.1-1.1.5-2.8.3-3.4 1.5-.5 1.1.6 3.3-.3 4.3-5.9 5.4-13.9 9.2-19.9 14.8-6.1 5.8-9.8 13.2-12.9 20.8l-1.1.6c.5.3 1.2-.6 1.2-.6z"/></g></g><g id="XMLID_29_" class="st0"><g id="XMLID_105_"><path id="XMLID_106_" class="st11" d="M191.9 187.2c-2 4.5-4.6 10.3-3.5 15.7 1.1 5.4 5.2 8.9 10.7 10.9.5-1.4 2-.9 3-1.8 1.2-1.1 1.4-3.5 2.5-4.1 4.5-2 10.6-1.4 15.3-3.4 4.8-2 7.7-6.1 10.2-11.1 3-6.5 4.8-14.4 2.4-21.4-2.5-7-8.8-11.8-15.8-14.3-.7 0-.9-.7-1.6.2-.3.4.4 2.4-.6 2.7-.5.5-2.2.1-2.4.8s1 2.6.5 3.1c-4.5 3-10 4.7-13.6 8.4-3.7 3.9-5.1 9.2-7.1 14.3l-1.3.5c.4.2 1.3-.5 1.3-.5z"/></g></g><ellipse id="XMLID_30_" transform="matrix(.9999 .01505 -.01505 .9999 3.038 -2.99)" class="st12" cx="200.1" cy="200.3" rx="2.3" ry="2.5"/><ellipse id="XMLID_32_" transform="matrix(.9999 .01505 -.01505 .9999 2.707 -3.1)" class="st12" cx="207.3" cy="178.2" rx="1.9" ry="2.3"/><ellipse id="XMLID_36_" transform="matrix(.9999 .01505 -.01505 .9999 2.929 -3.338)" class="st12" cx="223.2" cy="192.9" rx="1.8" ry="1.5"/></g><g id="Calque_6"><radialGradient id="XMLID_9_" cx="133.577" cy="88.329" r="50.667" gradientUnits="userSpaceOnUse"><stop offset="0" style="stop-color:#006838"/><stop offset=".198" style="stop-color:#006d3a"/><stop offset=".485" style="stop-color:#007b41"/><stop offset=".824" style="stop-color:#00944a"/><stop offset="1" style="stop-color:#00a651"/></radialGradient><path id="XMLID_129_" d="M71.5 96.5c2.3 3.6 6.3 6.1 10.5 6.6 1 .1 2.1.1 3 .7.8.5 1.2 1.4 1.7 2.3 1.4 2.3 3.5 4 6 4.8 1.7.5 3.4.7 5 1.5 2.3 1.2 3.7 3.6 5.9 5 3.7 2.3 8.6.9 12.9 1.9 4.7 1.1 8.8 5.1 13.6 4.2 1.6-.3 3-1.1 4.5-1.3 2.1-.2 4.1.6 6.1.9 5.3.7 10.5-2.5 15.9-2.6 4.3-.1 8.8 1.9 12.7.1 2.3-1.1 3.9-3.3 6-4.5 2.4-1.4 5.5-1.7 7.6-3.6 3.4-3.1 2.4-9.1 5.6-12.4 1.7-1.8 4.4-2.5 5.8-4.5.8-1.1 1.2-2.6 1.4-4 .9-5.7-.2-11.6-1.2-17.3-.6-3.6-1.3-7.2-1.9-10.8-.2-1.1-.4-2.2-1-3.2-.9-1.4-2.5-2.1-4.1-2.6-6.8-2-14.4-.1-21.1-2.5-3.2-1.2-7-3.2-9.6-1.1-6.6-1.2-13.5-.9-20 .8-3.3.9-6.5 2.1-9.8 3.3-2.5 1-5.1 1.9-7.6 2.9-4.7 1.8-9.6 3.7-13.2 7.2-.8.8-1.5 1.6-2.5 2.2-4 2.5-10-.6-13.7 2.4-2.1 1.8-2.5 5-4.7 6.7-3.5 2.7-9.5.1-12.3 3.5-.7.9-1.1 2.1-1.3 3.3-.6 3.2-.8 6.6-.4 9.8" style="fill:url(#XMLID_9_);stroke:#424142;stroke-width:2;stroke-miterlimit:10"/><path id="XMLID_128_" class="st7" d="M79.6 94.6c.2-1.2.5-2.3 1.3-3.3 2.8-3.4 8.8-.9 12.3-3.5 2.2-1.7 2.6-4.9 4.7-6.7 3.6-3 9.7.1 13.7-2.4.9-.6 1.7-1.4 2.5-2.2 3.6-3.5 8.5-5.4 13.2-7.2 2.5-1 5.1-1.9 7.6-2.9 3.2-1.2 6.4-2.4 9.8-3.3 6.5-1.7 13.4-1.9 20-.8 2.6-2.1 6.4-.1 9.6 1.1 5.9 2.2 12.5.9 18.7 2-.1-.7-.2-1.3-.4-2-.2-1.1-.4-2.2-1-3.2-.9-1.4-2.5-2.1-4.1-2.6-6.8-2-14.4-.1-21.1-2.5-3.2-1.2-7-3.2-9.6-1.1-6.6-1.2-13.5-.9-20 .8-3.3.9-6.5 2.1-9.8 3.3-2.5 1-5.1 1.9-7.6 2.9-4.7 1.8-9.6 3.7-13.2 7.2-.8.8-1.5 1.6-2.5 2.2-4 2.5-10-.6-13.7 2.4-2.1 1.8-2.5 5-4.7 6.7-3.5 2.7-9.5.1-12.3 3.5-.7.9-1.1 2.1-1.3 3.3-.6 3.2-.8 6.6-.4 9.8l.1.4c1.7 2.8 4.5 4.9 7.6 5.9 0-2.6.1-5.2.6-7.8z"/><g id="XMLID_124_" class="st0"><g id="XMLID_126_"><path id="XMLID_127_" class="st8" d="M140.1 61.8c-8.5 1.5-17.6 4.6-23.3 11.1-5.8 6.6-7.4 15.6-5.9 24.7 2 8.6 7.1 14.2 14.7 16.5 7.5 2.2 16.4.2 23.3-.3 5 0 10.1 1.2 14.6-.3s7.8-5.5 11.8-8.5c4.5-3.5 9.5-6.7 11.6-11.7 2.2-5 1-10.8 0-16.4-.5-2.6.2-5.7-1.4-7.8-1.5-1.9-4.7-2.1-7.1-3.5-6-3-12-6.4-18.6-6.9-6.5-.4-13.2 2.1-19.7 3.1L139 61c.1.5 1.1.8 1.1.8z"/></g></g><g id="XMLID_120_"><g id="XMLID_122_"><path id="XMLID_123_" class="st9" d="M140.1 61.8c-8.5 1.5-17.6 4.6-23.3 11.1-5.8 6.6-7.4 15.6-5.9 24.7 2 8.6 7.1 14.2 14.7 16.5 7.5 2.2 16.4.2 23.3-.3 5 0 10.1 1.2 14.6-.3s7.8-5.5 11.8-8.5c4.5-3.5 9.5-6.7 11.6-11.7 2.2-5 1-10.8 0-16.4-.5-2.6.2-5.7-1.4-7.8-1.5-1.9-4.7-2.1-7.1-3.5-6-3-12-6.4-18.6-6.9-6.5-.4-13.2 2.1-19.7 3.1L139 61c.1.5 1.1.8 1.1.8z"/></g></g><g id="XMLID_116_" class="st0"><g id="XMLID_118_"><path id="XMLID_119_" class="st14" d="M142.1 67.8c-4.1.5-8.5-.1-11.9 2-3.3 2-4.9 6.1-7.4 9.6-2.4 3.9-6 7.9-6.2 12.3-.2 4.6 2.8 8.2 6.9 11.3 8.5 5.5 18.2 9.6 27.7 8.3 9.4-1.3 17.4-7.6 23.9-16.1 3-4 6.3-8.5 5.9-13.2-.4-4.7-4.1-8.3-8.6-11.3-4.9-2.5-9.5-5.6-14.6-6-5.3-.4-10.6 2.1-15.7 3.1l-1.1-.9c0 .5 1.1.9 1.1.9z"/></g></g><g id="XMLID_112_" class="st0"><g id="XMLID_114_"><path id="XMLID_115_" class="st14" d="M143 74.8c-3.5 0-7.4-.9-10.4.8-3.1 1.8-4.2 5.6-5.7 8.7-1.3 2.2-4 4.2-4 6.4-.1 2.7 2.4 4.1 4.6 5.2 5 2.5 9.7 6.1 15.1 6.9 5.4.7 10.7-1.5 16.2-3 4.5-1.5 10-2.9 12.8-6.7 2.8-3.9 2.1-8.8-.4-13.8-.5-.5-.4-2.5-1.6-3-1-.5-2.8 1-3.7.5-4-.5-7.4-3.5-11.1-4.1-3.8-.6-7.5 1.1-11.5 2.1l-1.2-1c-.1.5.9 1 .9 1z"/></g></g></g><g id="Calque_4"><radialGradient id="XMLID_15_" cx="101.037" cy="194.28" r="57.504" gradientTransform="rotate(-2.712 87.123 192.838) scale(1.00002)" gradientUnits="userSpaceOnUse"><stop offset="0" style="stop-color:#006838"/><stop offset=".198" style="stop-color:#006d3a"/><stop offset=".485" style="stop-color:#007b41"/><stop offset=".824" style="stop-color:#00944a"/><stop offset="1" style="stop-color:#00a651"/></radialGradient><path id="XMLID_42_" d="M70.5 219.3c-2.4-2-4.8-3.9-7.2-5.9-.6-.5-1.3-1.1-1.7-1.8-.7-1.4-.3-3-.5-4.6-.4-2.5-2.5-4.3-3.5-6.6-1.2-2.9-.3-6.5-1.9-9.3-.7-1.3-1.9-2.3-2.7-3.6-1-1.6-1.3-3.5-1.6-5.4-1.2-7.6-2.4-15.2-3.6-22.9-.2-1.1-.3-2.3 0-3.3.3-.8.8-1.4 1.3-2 2.7-3.2 5.4-6.5 8-9.7 1-1.2 2-2.4 3.5-3 2-.9 4.4-.3 6.5-1 2.4-.8 3.9-3.1 5.5-5s3.8-3.8 6.3-3.4c1.1.2 2.1.8 3.1 1.3 3.6 1.7 7.8 1.4 11.7 1.6 4 .2 8.3 1.2 10.5 4.5.4.7.8 1.4 1.4 2 1.1 1.1 2.9 1.2 4.4 1.6 8 2.1 10.9 11.9 17.3 17.2.7.5 1.4 1.1 1.8 1.8.5.8.4 1.9.6 2.8.6 2.6 2.9 4.5 4.1 6.9.6 1.3.9 2.7 1.2 4.1.5 2.7 1.1 5.5 1.6 8.2.3 1.7.7 3.4 1.5 5 .8 1.5 2 2.7 2.8 4.1 1.4 2.4 1.7 5.2 2.2 7.8 1.3 6.7 4.1 13 8.1 18.5 1.9 2.6 4.1 6 2.4 8.8-.8 1.3-2.2 1.9-3.3 3a7.12 7.12 0 0 0-2.2 5.8c.1.9.3 2.1-.4 2.7-.4.4-1 .4-1.6.4-3.8.2-8.4 1.8-8.6 5.6-.1 1.2.4 2.5 0 3.6-.7 1.9-3.2 2.1-5.2 2.2-4.2.2-8.4 1.3-12.2 3.2-1.2.6-2.5 1.3-3.8 1-1.1-.3-1.9-1.2-2.8-2-3.5-3.3-9-4.3-13.4-2.5-1.1.5-2.2 1.1-3.4 1.2-2.3.3-4.5-1.2-6.1-2.9-1.6-1.7-2.9-3.7-4.8-5.1-3-2.2-7.2-2.5-9.5-5.5-1.1-1.4-1.5-3.2-1.9-4.9-1.2-5-2.4-9.9-3.6-14.9" style="fill:url(#XMLID_15_);stroke:#424142;stroke-width:2;stroke-miterlimit:10"/><g id="XMLID_39_" class="st16"><path id="XMLID_41_" class="st17" d="M103.9 248.5c-3-2.2-7.2-2.5-9.5-5.5-1.1-1.4-1.5-3.2-1.9-4.9-1.2-5-2.4-9.9-3.6-14.9h-.5c-2.4-2-4.8-3.9-7.2-5.9-.6-.5-1.3-1.1-1.7-1.8-.7-1.4-.3-3-.5-4.6-.4-2.5-2.5-4.3-3.5-6.6-1.2-2.9-.3-6.5-1.9-9.3-.7-1.3-1.9-2.3-2.7-3.6-1-1.6-1.3-3.5-1.6-5.4-1.2-7.6-2.4-15.2-3.6-22.9-.2-1.1-.3-2.3 0-3.3.3-.8.8-1.4 1.3-2 2.7-3.2 5.4-6.5 8-9.7 1-1.2 2-2.4 3.5-3 2-.9 4.4-.3 6.5-1 2.4-.8 3.9-3.1 5.5-5s3.8-3.8 6.3-3.4c1.1.2 2.1.8 3.1 1.3 1.1.5 2.3.8 3.5 1.1-2.4-2.5-6.2-3.3-9.7-3.5-4-.2-8.1.1-11.7-1.6-1-.5-2-1.1-3.1-1.3-2.5-.4-4.7 1.5-6.3 3.4-1.6 1.9-3.1 4.2-5.5 5-2.1.7-4.5.1-6.5 1-1.4.6-2.5 1.8-3.5 3-2.7 3.2-5.4 6.5-8 9.7-.5.6-1 1.2-1.3 2-.4 1.1-.2 2.2 0 3.3 1.2 7.6 2.4 15.2 3.6 22.9.3 1.9.6 3.8 1.6 5.4.8 1.3 2 2.3 2.7 3.6 1.5 2.8.7 6.3 1.9 9.3.9 2.3 3 4.1 3.5 6.6.3 1.5-.2 3.2.5 4.6.4.7 1 1.3 1.7 1.8 2.4 2 4.8 3.9 7.2 5.9h.5c1.2 5 2.4 9.9 3.6 14.9.4 1.7.9 3.5 1.9 4.9 2.3 2.9 6.5 3.3 9.5 5.5 1.9 1.4 3.2 3.4 4.8 5.1 1.6 1.7 3.8 3.2 6.1 2.9 1.2-.2 2.3-.8 3.4-1.2 1.8-.7 3.7-1 5.6-.9-.6-.7-1.3-1.4-2-1.9z"/><path id="XMLID_40_" class="st17" d="M118.1 255.2c-.4.2-.7.3-1.1.5 1.1 0 2.2-.6 3.3-1.1.1 0 .1 0 .2-.1-.9.2-1.6.4-2.4.7z"/></g><g id="Calque_8"><g id="XMLID_3_" class="st0"><g id="XMLID_48_"><path id="XMLID_49_" class="st8" d="M73.8 213.3c4 7.5 8.9 15.6 16.5 20.3 7.5 4.6 16.6 5.2 25.5 4.2 3.4-.5 7.7-.5 10.3-2.9 2.7-2.5 2.8-6.6 2.8-10.1 0-7.6.9-15.4-.7-23.1-1.6-7.4-5.8-14.2-8.2-21.6-1-3-.4-6.6-2-9.2-1.5-2.6-4.8-3.9-6.8-6.4-1.4-.9-1.2-3.5-2.2-4.7-1.2-1.3-3.6-1.2-4.7-2.2-5.5-4-10.9-9.3-17.4-10.8-6.5-1.5-12.9.8-19.4 4.8-4.1 3-7.1 6-7.4 10.2-.3 4.1 2.4 8.5 2.9 12.9 0 1-1.3 2.4-.8 3.1s2.8.9 2.8 1.9c.5 4.6-.7 9.4.3 14 1 4.4 4.1 8.3 5.6 12.8.5 1.1-.5 2.9.2 4.1.6 1.1 2.9 1.8 2.9 3.2l-.5.9c.4-.3.3-1.4.3-1.4z"/></g></g><g id="XMLID_22_"><g id="XMLID_70_"><path id="XMLID_71_" class="st9" d="M73.8 213.3c4 7.5 8.9 15.6 16.5 20.3 7.5 4.6 16.6 5.2 25.5 4.2 3.4-.5 7.7-.5 10.3-2.9 2.7-2.5 2.8-6.6 2.8-10.1 0-7.6.9-15.4-.7-23.1-1.6-7.4-5.8-14.2-8.2-21.6-1-3-.4-6.6-2-9.2-1.5-2.6-4.8-3.9-6.8-6.4-1.4-.9-1.2-3.5-2.2-4.7-1.2-1.3-3.6-1.2-4.7-2.2-5.5-4-10.9-9.3-17.4-10.8-6.5-1.5-12.9.8-19.4 4.8-4.1 3-7.1 6-7.4 10.2-.3 4.1 2.4 8.5 2.9 12.9 0 1-1.3 2.4-.8 3.1s2.8.9 2.8 1.9c.5 4.6-.7 9.4.3 14 1 4.4 4.1 8.3 5.6 12.8.5 1.1-.5 2.9.2 4.1.6 1.1 2.9 1.8 2.9 3.2l-.5.9c.4-.3.3-1.4.3-1.4z"/></g></g><g id="XMLID_1_" class="st0"><g id="XMLID_72_"><path id="XMLID_74_" class="st10" d="M78.5 211.5c3.5 7 8.6 15.3 16.3 19.3 7.6 4 16.3 3.3 24.3-1.7 2-1.5 4.8-2.8 5.4-5.3.6-2.5-1.4-5.1-1.9-7.6-.5-1.5.9-3.8.4-5.5-.5-1.7-2.9-3.1-3.4-4.6-1-8-.6-16.8-3.6-24.3s-9-13.1-16-18.1c-4.4-2.9-8.8-7.2-14-8.1-5.3-.9-10.2 1.5-14.8 5.1-1.4 1.4-3.9 1.9-4.5 3.5-.6 1.9 1.3 4 1.8 5.6.5 7-.5 14.6 1.2 21.8 1.7 7.2 5.8 13.5 8.8 19.9l-.4 1.3c.4-.1.4-1.3.4-1.3z"/></g></g><g id="XMLID_4_" class="st16"><g id="XMLID_75_"><path id="XMLID_76_" class="st11" d="M81.4 206.5c3 5 5.6 10.6 10.3 13.5 4.8 2.9 10.7 2.5 16.7 2 1.8-.5 4.3.5 5.8-.6 1.7-1.3 1.3-3.8 1.3-5.5 1-9 2.2-19.3-1-28.3-3.1-9-10.1-15.8-18.6-20.8-2.5-1.5-4.8-4.1-7.7-4.4-2.8-.2-5.6 2-8.5 2.5-2.6 1-5.8 1.4-7 3.8-1.2 2.2.2 5.1.7 8 1.5 5 .6 10.5 1.7 15.6 1.1 5 4.3 9.3 6.3 14.3l-.4 1.2c.5-.2.4-1.3.4-1.3z"/></g></g><ellipse id="XMLID_7_" transform="matrix(.9999 .01505 -.01505 .9999 2.61 -1.265)" class="st12" cx="85.3" cy="172.8" rx="2.3" ry="2.5"/><ellipse id="XMLID_10_" transform="rotate(-31.056 85.977 194.95)" class="st12" cx="86" cy="195" rx="2.3" ry="3"/><circle id="XMLID_14_" transform="matrix(.9999 .01505 -.01505 .9999 3.223 -1.554)" class="st12" cx="104.8" cy="213.3" r="1.6"/><ellipse id="XMLID_18_" transform="matrix(.9999 .01505 -.01505 .9999 1.208 -2.327)" class="st12" cx="155.2" cy="79" rx="2.3" ry="2.5"/><ellipse id="XMLID_13_" transform="rotate(-31.056 133.572 91.931)" class="st12" cx="133.6" cy="91.9" rx="2.3" ry="3"/><circle id="XMLID_11_" transform="matrix(.9999 .01505 -.01505 .9999 1.36 -2.494)" class="st12" cx="166.3" cy="89.1" r="1.6"/></g></g></svg>