<?xml version="1.0" encoding="utf-8"?>
<!-- Generator: Adobe Illustrator 19.0.0, SVG Export Plug-In . SVG Version: 6.00 Build 0)  -->
<svg version="1.0" xmlns="http://www.w3.org/2000/svg" xmlns:xlink="http://www.w3.org/1999/xlink" x="0px" y="0px" width="300px" heihgt="260px"
	 viewBox="0 0 300 260" style="enable-background:new 0 0 300 260;" xml:space="preserve">
<style type="text/css">
	.st0{display:none;}
	.st1{display:inline;fill:#1D935C;}
	.st2{display:inline;fill:#ED1C24;}
	.st3{display:none;fill:#FFEE99;stroke:#FFFFFF;stroke-miterlimit:10;}
	.st4{fill:#FCC79A;stroke:#FFFFFF;stroke-miterlimit:10;}
	.st5{opacity:0.75;fill:#ED1C24;}
	.st6{fill:url(#XMLID_8_);stroke:url(#XMLID_9_);stroke-miterlimit:10;}
	.st7{opacity:0.15;fill:#FFFFFF;}
</style>
<g id="圖層_20" class="st0">
	<rect id="XMLID_144_" class="st1" width="300" height="260"/>
</g>
<g id="Calque_3" class="st0">
	<polygon id="XMLID_1_" class="st2" points="150,225.7 88.3,172.7 88.3,157.5 211.8,157.5 211.8,172.7 	"/>
	<rect id="XMLID_2_" x="113" y="98.7" class="st2" width="73.9" height="73.9"/>
</g>
<g id="Calque_3_-_copie">
	<path id="XMLID_6_" class="st3" d="M191.1,142.7l0.6-37.2c0-6.4-5.2-11.6-11.6-11.6H121c-6.4,0-11.6,5.2-11.6,11.6l-0.6,37.2
		c0,6.4-5.2,11.6-11.6,11.6h-4.4c-6.4,0-11.6,6.1-11.6,12.5v0c0,3.4,1.5,6.6,4,8.8l57.1,49c4.3,3.7,10.7,3.7,15.1,0l57.1-49
		c2.6-2.2,4-5.4,4-8.8v0c0-6.4-5.2-12.5-11.6-12.5h-4.4C196.3,154.2,191.1,149.1,191.1,142.7z"/>
	<path id="XMLID_12_" class="st4" d="M207.1,154.2h-4.4c-6.4,0-11.6-5.2-11.6-11.6l0.6-37.2c0-6.4-5.2-11.6-11.6-11.6H121
		c-6.4,0-11.6,5.2-11.6,11.6l-0.6,37.2c0,6.4-5.2,11.6-11.6,11.6h-4.4c-6.4,0-11.6,6.1-11.6,12.5c0,3.4,1.5,6.6,4,8.8l57.1,49
		c4.3,3.7,10.7,3.7,15.1,0l57.1-49c2.6-2.2,4-5.4,4-8.8C218.7,160.3,213.5,154.2,207.1,154.2z M208.1,175.8l-51.4,44.1
		c-3.9,3.3-9.6,3.3-13.5,0l-51.4-44.1c-2.3-2-3.6-4.9-3.6-7.9c0-5.7,4.7-10.4,10.4-10.4h4c5.7,0,10.4-4.7,10.4-10.4v-38
		c0-5.7,4.7-10.4,10.4-10.4h53.2c5.7,0,10.4,4.7,10.4,10.4v38c0,5.7,4.7,10.4,10.4,10.4h4c5.7,0,10.4,4.7,10.4,10.4
		C211.8,170.9,210.4,173.8,208.1,175.8z"/>
	<path id="XMLID_7_" class="st5" d="M187,147.1v-38c0-5.7-4.7-10.4-10.4-10.4h-53.2c-5.7,0-10.4,4.7-10.4,10.4v38
		c0,5.7-4.7,10.4-10.4,10.4h-4c-5.7,0-10.4,4.7-10.4,10.4v0c0,3,1.3,5.9,3.6,7.9l51.4,44.1c3.9,3.3,9.6,3.3,13.5,0l51.4-44.1
		c2.3-2,3.6-4.9,3.6-7.9v0c0-5.7-4.7-10.4-10.4-10.4h-4C191.6,157.5,187,152.8,187,147.1z"/>
	<radialGradient id="XMLID_8_" cx="150" cy="160.5312" r="56.7046" gradientUnits="userSpaceOnUse">
		<stop  offset="0.8065" style="stop-color:#FFFFFF;stop-opacity:0"/>
		<stop  offset="1" style="stop-color:#FCF6B6;stop-opacity:0.26"/>
	</radialGradient>
	<radialGradient id="XMLID_9_" cx="150" cy="160.5312" r="57.2046" gradientUnits="userSpaceOnUse">
		<stop  offset="0.8065" style="stop-color:#FFFFFF;stop-opacity:0"/>
		<stop  offset="1" style="stop-color:#FCF6B6;stop-opacity:0"/>
	</radialGradient>
	<path id="XMLID_4_" class="st6" d="M183.9,148.2v-34.9c0-5.3-4.3-9.5-9.5-9.5h-48.8c-5.3,0-9.5,4.3-9.5,9.5v34.9
		c0,5.3-3.6,12.3-8.9,12.3h-3.7c-5.3,0-10.2,1.5-10.2,6.8v0c0,2.8,1.2,5.4,3.3,7.2l47.1,40.5c3.6,3.1,8.8,3.1,12.4,0l47.1-40.5
		c2.1-1.8,3.3-4.5,3.3-7.2v0c0-5.3-3.6-6.8-8.9-6.8h-3.7C188.8,160.5,183.9,153.5,183.9,148.2z"/>
	
		<ellipse id="XMLID_5_" transform="matrix(0.7348 -0.6783 0.6783 0.7348 -94.768 138.2834)" class="st7" cx="129.5" cy="190.3" rx="4.1" ry="8.9"/>
</g>
</svg>
