<?xml version="1.0" encoding="utf-8"?>
<!-- Generator: Adobe Illustrator 19.0.0, SVG Export Plug-In . SVG Version: 6.00 Build 0)  -->
<svg version="1.0" id="Calque_126" xmlns="http://www.w3.org/2000/svg" xmlns:xlink="http://www.w3.org/1999/xlink" x="0px" y="0px" width="300px" height="260px"
	 viewBox="0 0 300 260" style="enable-background:new 0 0 300 260;" xml:space="preserve">
<style type="text/css">
	.st0{fill:#68C7F1;}
	.st1{fill:#FFFFFF;}
</style>
<g id="Calque_133">
	<path id="XMLID_9_" class="st0" d="M150,53.8c-42.1,0-76.2,34.1-76.2,76.2c0,42.1,34.1,76.2,76.2,76.2s76.2-34.1,76.2-76.2
		C226.2,87.9,192.1,53.8,150,53.8z M149.6,197.9c-37.5,0-67.9-30.4-67.9-67.9c0-37.5,30.4-67.9,67.9-67.9s67.9,30.4,67.9,67.9
		C217.5,167.5,187.1,197.9,149.6,197.9z"/>
	<path id="XMLID_7_" class="st1" d="M150,60.1c-38.6,0-69.9,31.3-69.9,69.9c0,38.6,31.3,69.9,69.9,69.9s69.9-31.3,69.9-69.9
		C219.9,91.4,188.6,60.1,150,60.1z M149.6,197.9c-37.5,0-67.9-30.4-67.9-67.9c0-37.5,30.4-67.9,67.9-67.9s67.9,30.4,67.9,67.9
		C217.5,167.5,187.1,197.9,149.6,197.9z"/>
</g>
</svg>
