<?xml version="1.0" encoding="utf-8"?>
<!-- Generator: Adobe Illustrator 19.0.0, SVG Export Plug-In . SVG Version: 6.00 Build 0)  -->
<svg version="1.0" xmlns="http://www.w3.org/2000/svg" xmlns:xlink="http://www.w3.org/1999/xlink" x="0px" y="0px" width="300px" height="260px"
	 viewBox="0 0 300 260" style="enable-background:new 0 0 300 260;" xml:space="preserve">
<style type="text/css">
	.st0{fill:none;stroke:#A7A9AC;stroke-width:7;stroke-miterlimit:10;}
	.st1{fill:none;stroke:#FFFFFF;stroke-width:7;stroke-miterlimit:10;}
	.st2{fill:#FFFFFF;stroke:#58595B;stroke-miterlimit:10;}
	.st3{opacity:0.61;fill:#58595B;}
	.st4{opacity:0.55;fill:#A7A9AC;stroke:#58595B;stroke-miterlimit:10;}
	.st5{fill:#FFFFFF;}
	.st6{fill:#A7A9AC;stroke:#58595B;stroke-miterlimit:10;}
</style>
<g id="Calque_5_-_copie">
	<g id="normalCell_1_">
		<g id="XMLID_2_">
			<path id="XMLID_3_" class="st0" d="M206.7,249.7L93,249.5c-8.9,0-17.1-4.7-21.5-12.1l-56.7-95.6c-4.4-7.5-4.4-16.7,0-24.2
				l56.9-95.6c4.5-7.5,12.7-12.1,21.6-12.1L207,10.1c8.9,0,17.1,4.7,21.5,12.1l56.7,95.6c4.4,7.5,4.4,16.7,0,24.2l-56.9,95.6
				C223.8,245,215.6,249.7,206.7,249.7z"/>
		</g>
	</g>
</g>
<g id="Calque_51">
	<g id="Calque_54">
		<g id="Calque_53">
			<g id="Calque_5">
				<g id="normalCell">
					<g id="XMLID_118_">
						<path id="XMLID_156_" class="st1" d="M208.5,253.6l-117.3-0.2c-9.2,0-17.7-4.8-22.2-12.5l-58.6-98.7c-4.5-7.8-4.5-17.3,0-25
							l58.8-98.7C73.8,10.7,82.3,6,91.5,6l117.3,0.2c9.2,0,17.7,4.8,22.2,12.5l58.6,98.7c4.5,7.8,4.5,17.3,0,25l-58.8,98.7
							C226.2,248.8,217.7,253.6,208.5,253.6z"/>
					</g>
				</g>
			</g>
			<rect id="XMLID_370_" x="206" y="158.9" class="st2" width="6.3" height="83.4"/>
			<rect id="XMLID_368_" x="206.5" y="158.9" class="st3" width="1.7" height="83.4"/>
			<polygon id="XMLID_369_" class="st4" points="243,182.6 238.7,179.3 213.3,161.4 213.3,204.3 			"/>
			<polygon id="XMLID_366_" class="st5" points="237.3,178.9 213.9,162.4 213.9,195.4 			"/>
			<rect id="XMLID_367_" x="207.3" y="156.7" class="st6" width="3.6" height="2.2"/>
		</g>
	</g>
</g>
</svg>
