<?xml version="1.0" encoding="utf-8"?>
<!-- Generator: Adobe Illustrator 19.0.0, SVG Export Plug-In . SVG Version: 6.00 Build 0)  -->
<svg version="1.0" xmlns="http://www.w3.org/2000/svg" xmlns:xlink="http://www.w3.org/1999/xlink" x="0px" y="0px" width="300px" height="260px"
	 viewBox="0 0 300 260" style="enable-background:new 0 0 300 260;" xml:space="preserve">
<style type="text/css">
	.st0{display:none;}
	.st1{display:inline;}
	.st2{fill:#A9A8A8;}
	.st3{fill:#C6C6C5;}
	.st4{fill:url(#XMLID_122_);stroke:#414042;stroke-width:3;stroke-miterlimit:10;}
	.st5{fill:none;stroke:#AAA8A8;stroke-width:3;stroke-miterlimit:10;}
	.st6{fill:url(#XMLID_123_);stroke:#414042;stroke-width:3;stroke-miterlimit:10;}
	.st7{fill:url(#XMLID_124_);stroke:#414042;stroke-width:3;stroke-miterlimit:10;}
	.st8{fill:url(#XMLID_125_);stroke:#414042;stroke-width:3;stroke-miterlimit:10;}
	.st9{fill:url(#XMLID_126_);stroke:#414042;stroke-width:3;stroke-miterlimit:10;}
	.st10{fill:url(#XMLID_127_);stroke:#414042;stroke-width:3;stroke-miterlimit:10;}
	.st11{fill:url(#XMLID_128_);stroke:#414042;stroke-width:3;stroke-miterlimit:10;}
	.st12{fill:url(#XMLID_129_);stroke:#414042;stroke-width:3;stroke-miterlimit:10;}
	.st13{fill:url(#XMLID_130_);stroke:#414042;stroke-width:3;stroke-miterlimit:10;}
	.st14{fill:url(#XMLID_131_);stroke:#414042;stroke-width:3;stroke-miterlimit:10;}
</style>
<g id="Calque_36" class="st0">
	<g id="Calque_2_-_copie_3" class="st1">
		<path id="XMLID_31_" class="st2" d="M279.3,209.8c-0.6-5.5-2.7-10.5-6-14.6l3.8-3.8l-4.2-4.2l-3.8,3.8c-4.1-3.3-9.1-5.5-14.6-6
			v-5.4h-5.9v5.4c-5.5,0.6-10.5,2.7-14.6,6l-3.8-3.8l-4.2,4.2l3.8,3.8c-3.3,4.1-5.5,9.1-6,14.6h-5.4v5.9h5.4
			c0.6,5.5,2.7,10.5,6,14.6l-3.8,3.8l4.2,4.2l3.8-3.8c4.1,3.3,9.1,5.5,14.6,6v5.4h5.9v-5.4c5.5-0.6,10.5-2.7,14.6-6l3.8,3.8l4.2-4.2
			l-3.8-3.8c3.3-4.1,5.5-9.1,6-14.6h5.4v-5.9H279.3z M251.6,236.2c-13,0-23.5-10.5-23.5-23.5c0-13,10.5-23.5,23.5-23.5
			c13,0,23.5,10.5,23.5,23.5C275.1,225.7,264.5,236.2,251.6,236.2z"/>
		<path id="XMLID_11_" class="st3" d="M251.6,189.2c-13,0-23.5,10.5-23.5,23.5c0,13,10.5,23.5,23.5,23.5c13,0,23.5-10.5,23.5-23.5
			C275.1,199.7,264.5,189.2,251.6,189.2z M251.6,228.8c-8.9,0-16.1-7.2-16.1-16.1c0-8.9,7.2-16.1,16.1-16.1
			c8.9,0,16.1,7.2,16.1,16.1C267.6,221.6,260.4,228.8,251.6,228.8z"/>
		<radialGradient id="XMLID_122_" cx="251.5544" cy="212.718" r="39.9486" gradientUnits="userSpaceOnUse">
			<stop  offset="0" style="stop-color:#D6D5D5"/>
			<stop  offset="0.3213" style="stop-color:#D4D3D2"/>
			<stop  offset="0.5416" style="stop-color:#CCCACA"/>
			<stop  offset="0.7315" style="stop-color:#BEBDBD"/>
			<stop  offset="0.9032" style="stop-color:#ACABAB"/>
			<stop  offset="1" style="stop-color:#9F9E9E"/>
		</radialGradient>
		<path id="XMLID_78_" class="st4" d="M291.5,218.8v-12.2h-9.6c-0.8-4-2.4-7.7-4.6-11l6.8-6.8l-8.6-8.6l-6.8,6.8
			c-3.3-2.2-7-3.8-11-4.6v-9.6h-12.2v9.6c-4,0.8-7.7,2.4-11,4.6l-6.8-6.8l-8.6,8.6l6.8,6.8c-2.2,3.3-3.8,7-4.6,11h-9.6v12.2h9.6
			c0.8,4,2.4,7.7,4.6,11l-6.8,6.8l8.6,8.6l6.8-6.8c3.3,2.2,7,3.8,11,4.6v9.6h12.2V243c4-0.8,7.7-2.4,11-4.6l6.8,6.8l8.6-8.6
			l-6.8-6.8c2.2-3.3,3.8-7,4.6-11H291.5z M251.6,228.1c-8.5,0-15.4-6.9-15.4-15.4s6.9-15.4,15.4-15.4c8.5,0,15.4,6.9,15.4,15.4
			S260.1,228.1,251.6,228.1z"/>
		<path id="XMLID_5_" class="st5" d="M251.6,191.9c-11.5,0-20.8,9.3-20.8,20.8c0,11.5,9.3,20.8,20.8,20.8c11.5,0,20.8-9.3,20.8-20.8
			C272.4,201.2,263,191.9,251.6,191.9z M251.6,230.6c-9.9,0-17.9-8-17.9-17.9c0-9.9,8-17.9,17.9-17.9c9.9,0,17.9,8,17.9,17.9
			C269.4,222.6,261.4,230.6,251.6,230.6z"/>
	</g>
	<g id="Calque_2_-_copie_6" class="st1">
		<path id="XMLID_82_" class="st2" d="M72.8,43.2c-0.6-5.5-2.7-10.5-6-14.6l3.8-3.8l-4.2-4.2l-3.8,3.8c-4.1-3.3-9.1-5.5-14.6-6V13
			h-5.9v5.4c-5.5,0.6-10.5,2.7-14.6,6l-3.8-3.8l-4.2,4.2l3.8,3.8c-3.3,4.1-5.5,9.1-6,14.6H12v5.9h5.4c0.6,5.5,2.7,10.5,6,14.6
			l-3.8,3.8l4.2,4.2l3.8-3.8c4.1,3.3,9.1,5.5,14.6,6v5.4h5.9v-5.4c5.5-0.6,10.5-2.7,14.6-6l3.8,3.8l4.2-4.2l-3.8-3.8
			c3.3-4.1,5.5-9.1,6-14.6h5.4v-5.9H72.8z M45.1,69.6c-13,0-23.5-10.5-23.5-23.5c0-13,10.5-23.5,23.5-23.5s23.5,10.5,23.5,23.5
			C68.6,59.1,58.1,69.6,45.1,69.6z"/>
		<path id="XMLID_79_" class="st3" d="M45.1,22.6c-13,0-23.5,10.5-23.5,23.5c0,13,10.5,23.5,23.5,23.5c13,0,23.5-10.5,23.5-23.5
			C68.6,33.1,58.1,22.6,45.1,22.6z M45.1,62.2c-8.9,0-16.1-7.2-16.1-16.1c0-8.9,7.2-16.1,16.1-16.1c8.9,0,16.1,7.2,16.1,16.1
			C61.2,55,54,62.2,45.1,62.2z"/>
		<radialGradient id="XMLID_123_" cx="45.1266" cy="46.126" r="39.9486" gradientUnits="userSpaceOnUse">
			<stop  offset="0" style="stop-color:#D6D5D5"/>
			<stop  offset="0.3213" style="stop-color:#D4D3D2"/>
			<stop  offset="0.5416" style="stop-color:#CCCACA"/>
			<stop  offset="0.7315" style="stop-color:#BEBDBD"/>
			<stop  offset="0.9032" style="stop-color:#ACABAB"/>
			<stop  offset="1" style="stop-color:#9F9E9E"/>
		</radialGradient>
		<path id="XMLID_73_" class="st6" d="M85.1,52.2V40h-9.6c-0.8-4-2.4-7.7-4.6-11l6.8-6.8l-8.6-8.6l-6.8,6.8c-3.3-2.2-7-3.8-11-4.6
			V6.2H39v9.6c-4,0.8-7.7,2.4-11,4.6l-6.8-6.8l-8.6,8.6l6.8,6.8c-2.2,3.3-3.8,7-4.6,11H5.2v12.2h9.6c0.8,4,2.4,7.7,4.6,11l-6.8,6.8
			l8.6,8.6l6.8-6.8c3.3,2.2,7,3.8,11,4.6v9.6h12.2v-9.6c4-0.8,7.7-2.4,11-4.6l6.8,6.8l8.6-8.6l-6.8-6.8c2.2-3.3,3.8-7,4.6-11H85.1z
			 M45.1,61.5c-8.5,0-15.4-6.9-15.4-15.4s6.9-15.4,15.4-15.4c8.5,0,15.4,6.9,15.4,15.4S53.6,61.5,45.1,61.5z"/>
		<path id="XMLID_34_" class="st5" d="M45.1,25.3c-11.5,0-20.8,9.3-20.8,20.8c0,11.5,9.3,20.8,20.8,20.8c11.5,0,20.8-9.3,20.8-20.8
			C65.9,34.6,56.6,25.3,45.1,25.3z M45.1,64c-9.9,0-17.9-8-17.9-17.9c0-9.9,8-17.9,17.9-17.9c9.9,0,17.9,8,17.9,17.9
			C63,56,55,64,45.1,64z"/>
	</g>
</g>
<g id="Calque_36_-_copie">
	<g id="Calque_2_-_copie_4">
		<path id="XMLID_28_" class="st2" d="M278.5,205.5c-1.4-5.3-4.4-9.9-8.2-13.4l3.2-4.4l-4.8-3.5l-3.2,4.4c-4.5-2.6-9.8-4-15.3-3.7
			l-0.8-5.3l-5.8,0.9l0.8,5.3c-5.3,1.4-9.9,4.4-13.4,8.2l-4.4-3.2l-3.5,4.8l4.4,3.2c-2.6,4.5-4,9.8-3.7,15.3l-5.3,0.8l0.9,5.8
			l5.3-0.8c1.4,5.3,4.4,9.9,8.2,13.4l-3.2,4.4l4.8,3.5l3.2-4.4c4.5,2.6,9.8,4,15.3,3.7l0.8,5.3l5.8-0.9l-0.8-5.3
			c5.3-1.4,9.9-4.4,13.4-8.2l4.4,3.2l3.5-4.8l-4.4-3.2c2.6-4.5,4-9.8,3.7-15.3l5.3-0.8l-0.9-5.8L278.5,205.5z M255.2,235.9
			c-12.8,2-24.9-6.7-26.9-19.5c-2-12.8,6.7-24.9,19.5-26.9s24.9,6.7,26.9,19.5C276.8,221.9,268.1,233.9,255.2,235.9z"/>
		<path id="XMLID_25_" class="st3" d="M247.9,189.5c-12.8,2-21.6,14.1-19.5,26.9c2,12.8,14.1,21.6,26.9,19.5
			c12.8-2,21.6-14.1,19.5-26.9C272.7,196.2,260.7,187.5,247.9,189.5z M254.1,228.6c-8.8,1.4-17-4.6-18.4-13.4
			c-1.4-8.8,4.6-17,13.4-18.4c8.8-1.4,17,4.6,18.4,13.4C268.8,219,262.8,227.2,254.1,228.6z"/>
		
			<radialGradient id="XMLID_124_" cx="251.5544" cy="212.718" r="39.9486" gradientTransform="matrix(0.9877 -0.1564 0.1564 0.9877 -30.1794 41.9707)" gradientUnits="userSpaceOnUse">
			<stop  offset="0" style="stop-color:#D6D5D5"/>
			<stop  offset="0.3213" style="stop-color:#D4D3D2"/>
			<stop  offset="0.5416" style="stop-color:#CCCACA"/>
			<stop  offset="0.7315" style="stop-color:#BEBDBD"/>
			<stop  offset="0.9032" style="stop-color:#ACABAB"/>
			<stop  offset="1" style="stop-color:#9F9E9E"/>
		</radialGradient>
		<path id="XMLID_22_" class="st7" d="M292,212.5l-1.9-12.1l-9.5,1.5c-1.4-3.8-3.6-7.2-6.2-10.1l5.7-7.8l-9.9-7.2l-5.7,7.8
			c-3.6-1.6-7.5-2.6-11.6-2.8l-1.5-9.5l-12.1,1.9l1.5,9.5c-3.8,1.4-7.2,3.6-10.1,6.2l-7.8-5.7l-7.2,9.9l7.8,5.7
			c-1.6,3.6-2.6,7.5-2.8,11.6l-9.5,1.5l1.9,12.1l9.5-1.5c1.4,3.8,3.6,7.2,6.2,10.1l-5.7,7.8l9.9,7.2l5.7-7.8
			c3.6,1.6,7.5,2.6,11.6,2.8l1.5,9.5l12.1-1.9l-1.5-9.5c3.8-1.4,7.2-3.6,10.1-6.2l7.8,5.7l7.2-9.9l-7.8-5.7
			c1.6-3.6,2.6-7.5,2.8-11.6L292,212.5z M254,227.9c-8.4,1.3-16.3-4.4-17.6-12.8c-1.3-8.4,4.4-16.3,12.8-17.6
			c8.4-1.3,16.3,4.4,17.6,12.8S262.4,226.6,254,227.9z"/>
		<path id="XMLID_19_" class="st5" d="M248.3,192.2C237,194,229.2,204.6,231,216c1.8,11.3,12.5,19.1,23.8,17.3
			c11.3-1.8,19.1-12.5,17.3-23.8C270.3,198.1,259.6,190.4,248.3,192.2z M254.3,230.4c-9.7,1.5-18.9-5.1-20.4-14.8
			c-1.5-9.7,5.1-18.9,14.8-20.4c9.7-1.5,18.9,5.1,20.4,14.8C270.7,219.7,264.1,228.8,254.3,230.4z"/>
	</g>
	<g id="Calque_2_-_copie_7">
		<path id="XMLID_16_" class="st2" d="M72,38.9c-1.4-5.3-4.4-9.9-8.2-13.4l3.2-4.4l-4.8-3.5L59,22c-4.5-2.6-9.8-4-15.3-3.7l-0.8-5.3
			L37,13.9l0.8,5.3c-5.3,1.4-9.9,4.4-13.4,8.2l-4.4-3.2L16.6,29l4.4,3.2c-2.6,4.5-4,9.8-3.7,15.3l-5.3,0.8l0.9,5.8l5.3-0.8
			c1.4,5.3,4.4,9.9,8.2,13.4l-3.2,4.4l4.8,3.5l3.2-4.4c4.5,2.6,9.8,4,15.3,3.7l0.8,5.3l5.8-0.9L52.4,73c5.3-1.4,9.9-4.4,13.4-8.2
			l4.4,3.2l3.5-4.8L69.3,60c2.6-4.5,4-9.8,3.7-15.3l5.3-0.8L77.4,38L72,38.9z M48.8,69.4c-12.8,2-24.9-6.7-26.9-19.5
			c-2-12.8,6.7-24.9,19.5-26.9s24.9,6.7,26.9,19.5C70.4,55.3,61.6,67.3,48.8,69.4z"/>
		<path id="XMLID_10_" class="st3" d="M41.4,22.9c-12.8,2-21.6,14.1-19.5,26.9c2,12.8,14.1,21.6,26.9,19.5
			c12.8-2,21.6-14.1,19.5-26.9C66.3,29.6,54.3,20.9,41.4,22.9z M47.6,62c-8.8,1.4-17-4.6-18.4-13.4c-1.4-8.8,4.6-17,13.4-18.4
			c8.8-1.4,17,4.6,18.4,13.4C62.4,52.4,56.4,60.6,47.6,62z"/>
		
			<radialGradient id="XMLID_125_" cx="45.1266" cy="46.126" r="39.9486" gradientTransform="matrix(0.9877 -0.1564 0.1564 0.9877 -6.6601 7.6272)" gradientUnits="userSpaceOnUse">
			<stop  offset="0" style="stop-color:#D6D5D5"/>
			<stop  offset="0.3213" style="stop-color:#D4D3D2"/>
			<stop  offset="0.5416" style="stop-color:#CCCACA"/>
			<stop  offset="0.7315" style="stop-color:#BEBDBD"/>
			<stop  offset="0.9032" style="stop-color:#ACABAB"/>
			<stop  offset="1" style="stop-color:#9F9E9E"/>
		</radialGradient>
		<path id="XMLID_4_" class="st8" d="M85.5,45.9l-1.9-12.1l-9.5,1.5c-1.4-3.8-3.6-7.2-6.2-10.1l5.7-7.8l-9.9-7.2L58,18
			c-3.6-1.6-7.5-2.6-11.6-2.8l-1.5-9.5L32.8,7.6l1.5,9.5c-3.8,1.4-7.2,3.6-10.1,6.2l-7.8-5.7l-7.2,9.9l7.8,5.7
			c-1.6,3.6-2.6,7.5-2.8,11.6l-9.5,1.5l1.9,12.1l9.5-1.5c1.4,3.8,3.6,7.2,6.2,10.1l-5.7,7.8l9.9,7.2l5.7-7.8
			c3.6,1.6,7.5,2.6,11.6,2.8l1.5,9.5l12.1-1.9l-1.5-9.5c3.8-1.4,7.2-3.6,10.1-6.2l7.8,5.7l7.2-9.9L73.2,59c1.6-3.6,2.6-7.5,2.8-11.6
			L85.5,45.9z M47.5,61.3c-8.4,1.3-16.3-4.4-17.6-12.8c-1.3-8.4,4.4-16.3,12.8-17.6c8.4-1.3,16.3,4.4,17.6,12.8
			C61.7,52.1,55.9,60,47.5,61.3z"/>
		<path id="XMLID_1_" class="st5" d="M41.9,25.6C30.5,27.4,22.8,38,24.6,49.4C26.4,60.7,37,68.5,48.4,66.7
			c11.3-1.8,19.1-12.5,17.3-23.8C63.9,31.5,53.2,23.8,41.9,25.6z M47.9,63.8c-9.7,1.5-18.9-5.1-20.4-14.8C26,39.2,32.6,30,42.3,28.5
			c9.7-1.5,18.9,5.1,20.4,14.8C64.3,53.1,57.7,62.2,47.9,63.8z"/>
	</g>
</g>
<g id="Calque_36_-_copie_2" class="st0">
	<g id="Calque_2_-_copie_5" class="st1">
		<path id="XMLID_58_" class="st2" d="M277,201.4c-2.2-5-5.9-9.1-10.2-12l2.5-4.8l-5.2-2.7l-2.5,4.8c-4.9-1.9-10.3-2.4-15.7-1.2
			l-1.7-5.1l-5.6,1.8l1.7,5.1c-5,2.2-9.1,5.9-12,10.2l-4.8-2.5l-2.7,5.2l4.8,2.5c-1.9,4.9-2.4,10.3-1.2,15.7l-5.1,1.7l1.8,5.6
			l5.1-1.7c2.2,5,5.9,9.1,10.2,12l-2.5,4.8l5.2,2.7l2.5-4.8c4.9,1.9,10.3,2.4,15.7,1.2l1.7,5.1l5.6-1.8l-1.7-5.1
			c5-2.2,9.1-5.9,12-10.2l4.8,2.5l2.7-5.2l-4.8-2.5c1.9-4.9,2.4-10.3,1.2-15.7l5.1-1.7l-1.8-5.6L277,201.4z M258.8,235.1
			c-12.4,4-25.6-2.7-29.6-15.1c-4-12.4,2.7-25.6,15.1-29.6c12.4-4,25.6,2.7,29.6,15.1C277.9,217.8,271.2,231.1,258.8,235.1z"/>
		<path id="XMLID_55_" class="st3" d="M244.3,190.4c-12.4,4-19.1,17.3-15.1,29.6c4,12.4,17.3,19.1,29.6,15.1
			c12.4-4,19.1-17.3,15.1-29.6C269.9,193.1,256.6,186.3,244.3,190.4z M256.5,228c-8.4,2.7-17.5-1.9-20.2-10.3
			c-2.7-8.4,1.9-17.5,10.3-20.2c8.4-2.7,17.5,1.9,20.2,10.3C269.6,216.2,265,225.3,256.5,228z"/>
		
			<radialGradient id="XMLID_126_" cx="251.5544" cy="212.718" r="39.9486" gradientTransform="matrix(0.9511 -0.309 0.309 0.9511 -53.4215 88.1457)" gradientUnits="userSpaceOnUse">
			<stop  offset="0" style="stop-color:#D6D5D5"/>
			<stop  offset="0.3213" style="stop-color:#D4D3D2"/>
			<stop  offset="0.5416" style="stop-color:#CCCACA"/>
			<stop  offset="0.7315" style="stop-color:#BEBDBD"/>
			<stop  offset="0.9032" style="stop-color:#ACABAB"/>
			<stop  offset="1" style="stop-color:#9F9E9E"/>
		</radialGradient>
		<path id="XMLID_52_" class="st9" d="M291.4,206.2l-3.8-11.6l-9.2,3c-2-3.6-4.6-6.6-7.7-9l4.4-8.6l-10.9-5.5l-4.4,8.6
			c-3.8-1.1-7.8-1.4-11.9-0.9l-3-9.2l-11.6,3.8l3,9.2c-3.6,2-6.6,4.6-9,7.7l-8.6-4.4l-5.5,10.9l8.6,4.4c-1.1,3.8-1.4,7.8-0.9,11.9
			l-9.2,3l3.8,11.6l9.2-3c2,3.6,4.6,6.6,7.7,9l-4.4,8.6l10.9,5.5l4.4-8.6c3.8,1.1,7.8,1.4,11.9,0.9l3,9.2l11.6-3.8l-3-9.2
			c3.6-2,6.6-4.6,9-7.7l8.6,4.4l5.5-10.9l-8.6-4.4c1.1-3.8,1.4-7.8,0.9-11.9L291.4,206.2z M256.3,227.4c-8.1,2.6-16.8-1.8-19.4-9.9
			c-2.6-8.1,1.8-16.8,9.9-19.4c8.1-2.6,16.8,1.8,19.4,9.9C268.8,216.1,264.4,224.7,256.3,227.4z"/>
		<path id="XMLID_49_" class="st5" d="M245.1,192.9c-10.9,3.6-16.9,15.3-13.4,26.2c3.6,10.9,15.3,16.9,26.2,13.4
			c10.9-3.6,16.9-15.3,13.4-26.2C267.8,195.4,256.1,189.4,245.1,192.9z M257.1,229.7c-9.4,3-19.4-2.1-22.5-11.5
			c-3-9.4,2.1-19.4,11.5-22.5c9.4-3,19.4,2.1,22.5,11.5C271.6,216.6,266.4,226.6,257.1,229.7z"/>
	</g>
	<g id="Calque_2_-_copie_8" class="st1">
		<path id="XMLID_46_" class="st2" d="M70.6,34.8c-2.2-5-5.9-9.1-10.2-12l2.5-4.8l-5.2-2.7l-2.5,4.8c-4.9-1.9-10.3-2.4-15.7-1.2
			l-1.7-5.1l-5.6,1.8l1.7,5.1c-5,2.2-9.1,5.9-12,10.2l-4.8-2.5l-2.7,5.2l4.8,2.5c-1.9,4.9-2.4,10.3-1.2,15.7l-5.1,1.7l1.8,5.6
			l5.1-1.7c2.2,5,5.9,9.1,10.2,12l-2.5,4.8l5.2,2.7l2.5-4.8c4.9,1.9,10.3,2.4,15.7,1.2l1.7,5.1l5.6-1.8l-1.7-5.1
			c5-2.2,9.1-5.9,12-10.2l4.8,2.5l2.7-5.2l-4.8-2.5c1.9-4.9,2.4-10.3,1.2-15.7l5.1-1.7l-1.8-5.6L70.6,34.8z M52.4,68.5
			c-12.4,4-25.6-2.7-29.6-15.1c-4-12.4,2.7-25.6,15.1-29.6s25.6,2.7,29.6,15.1C71.5,51.2,64.7,64.5,52.4,68.5z"/>
		<path id="XMLID_43_" class="st3" d="M37.9,23.8c-12.4,4-19.1,17.3-15.1,29.6c4,12.4,17.3,19.1,29.6,15.1
			c12.4-4,19.1-17.3,15.1-29.6C63.5,26.5,50.2,19.7,37.9,23.8z M50.1,61.4c-8.4,2.7-17.5-1.9-20.2-10.3c-2.7-8.4,1.9-17.5,10.3-20.2
			c8.4-2.7,17.5,1.9,20.2,10.3C63.1,49.6,58.5,58.7,50.1,61.4z"/>
		
			<radialGradient id="XMLID_127_" cx="45.1266" cy="46.126" r="39.9486" gradientTransform="matrix(0.9511 -0.309 0.309 0.9511 -12.0451 16.2025)" gradientUnits="userSpaceOnUse">
			<stop  offset="0" style="stop-color:#D6D5D5"/>
			<stop  offset="0.3213" style="stop-color:#D4D3D2"/>
			<stop  offset="0.5416" style="stop-color:#CCCACA"/>
			<stop  offset="0.7315" style="stop-color:#BEBDBD"/>
			<stop  offset="0.9032" style="stop-color:#ACABAB"/>
			<stop  offset="1" style="stop-color:#9F9E9E"/>
		</radialGradient>
		<path id="XMLID_40_" class="st10" d="M85,39.6L81.2,28l-9.2,3c-2-3.6-4.6-6.6-7.7-9l4.4-8.6L57.8,7.8l-4.4,8.6
			c-3.8-1.1-7.8-1.4-11.9-0.9l-3-9.2L27,10l3,9.2c-3.6,2-6.6,4.6-9,7.7l-8.6-4.4L6.8,33.4l8.6,4.4c-1.1,3.8-1.4,7.8-0.9,11.9l-9.2,3
			L9,64.3l9.2-3c2,3.6,4.6,6.6,7.7,9l-4.4,8.6l10.9,5.5l4.4-8.6c3.8,1.1,7.8,1.4,11.9,0.9l3,9.2l11.6-3.8l-3-9.2
			c3.6-2,6.6-4.6,9-7.7l8.6,4.4l5.5-10.9l-8.6-4.4c1.1-3.8,1.4-7.8,0.9-11.9L85,39.6z M49.9,60.8c-8.1,2.6-16.8-1.8-19.4-9.9
			s1.8-16.8,9.9-19.4c8.1-2.6,16.8,1.8,19.4,9.9C62.4,49.5,58,58.2,49.9,60.8z"/>
		<path id="XMLID_37_" class="st5" d="M38.7,26.3c-10.9,3.6-16.9,15.3-13.4,26.2c3.6,10.9,15.3,16.9,26.2,13.4
			c10.9-3.6,16.9-15.3,13.4-26.2C61.4,28.8,49.6,22.8,38.7,26.3z M50.6,63.1c-9.4,3-19.4-2.1-22.5-11.5c-3-9.4,2.1-19.4,11.5-22.5
			c9.4-3,19.4,2.1,22.5,11.5C65.2,50,60,60.1,50.6,63.1z"/>
	</g>
</g>
<g id="Calque_36_-_copie_3" class="st0">
	<g id="Calque_2_-_copie_9_1_" class="st1">
		<path id="XMLID_94_" class="st2" d="M274.9,197.5c-3-4.6-7.2-8.1-12-10.2l1.7-5.2l-5.6-1.8l-1.7,5.2c-5.1-1.1-10.6-0.7-15.7,1.2
			l-2.5-4.8l-5.2,2.7l2.5,4.8c-4.6,3-8.1,7.2-10.2,12l-5.2-1.7l-1.8,5.6l5.2,1.7c-1.1,5.1-0.7,10.6,1.2,15.7l-4.8,2.5l2.7,5.2
			l4.8-2.5c3,4.6,7.2,8.1,12,10.2l-1.7,5.2l5.6,1.8l1.7-5.2c5.1,1.1,10.6,0.7,15.7-1.2l2.5,4.8l5.2-2.7l-2.5-4.8
			c4.6-3,8.1-7.2,10.2-12l5.2,1.7l1.8-5.6l-5.2-1.7c1.1-5.1,0.7-10.6-1.2-15.7l4.8-2.5l-2.7-5.2L274.9,197.5z M262.2,233.7
			c-11.6,5.9-25.7,1.3-31.6-10.3c-5.9-11.6-1.3-25.7,10.3-31.6c11.6-5.9,25.7-1.3,31.6,10.3C278.4,213.6,273.8,227.8,262.2,233.7z"
			/>
		<path id="XMLID_91_" class="st3" d="M240.9,191.8c-11.6,5.9-16.2,20.1-10.3,31.6c5.9,11.6,20.1,16.2,31.6,10.3
			c11.6-5.9,16.2-20.1,10.3-31.6C266.6,190.5,252.5,185.9,240.9,191.8z M258.8,227c-7.9,4-17.6,0.9-21.6-7c-4-7.9-0.9-17.6,7-21.6
			c7.9-4,17.6-0.9,21.6,7C269.9,213.3,266.8,223,258.8,227z"/>
		
			<radialGradient id="XMLID_128_" cx="251.5544" cy="212.718" r="39.9486" gradientTransform="matrix(0.891 -0.454 0.454 0.891 -69.1542 137.3882)" gradientUnits="userSpaceOnUse">
			<stop  offset="0" style="stop-color:#D6D5D5"/>
			<stop  offset="0.3213" style="stop-color:#D4D3D2"/>
			<stop  offset="0.5416" style="stop-color:#CCCACA"/>
			<stop  offset="0.7315" style="stop-color:#BEBDBD"/>
			<stop  offset="0.9032" style="stop-color:#ACABAB"/>
			<stop  offset="1" style="stop-color:#9F9E9E"/>
		</radialGradient>
		<path id="XMLID_88_" class="st11" d="M289.9,200l-5.5-10.9l-8.6,4.4c-2.5-3.2-5.6-5.8-9.1-7.7l3-9.2l-11.6-3.8l-3,9.2
			c-3.9-0.5-7.9-0.2-11.9,0.9l-4.4-8.6l-10.9,5.5l4.4,8.6c-3.2,2.5-5.8,5.6-7.7,9.1l-9.2-3l-3.8,11.6l9.2,3
			c-0.5,3.9-0.2,7.9,0.9,11.9l-8.6,4.4l5.5,10.9l8.6-4.4c2.5,3.2,5.6,5.8,9.1,7.7l-3,9.2l11.6,3.8l3-9.2c3.9,0.5,7.9,0.2,11.9-0.9
			l4.4,8.6l10.9-5.5l-4.4-8.6c3.2-2.5,5.8-5.6,7.7-9.1l9.2,3l3.8-11.6l-9.2-3c0.5-3.9,0.2-7.9-0.9-11.9L289.9,200z M258.6,226.5
			c-7.6,3.9-16.9,0.8-20.7-6.7c-3.9-7.6-0.8-16.9,6.7-20.7c7.6-3.9,16.9-0.8,20.7,6.7C269.2,213.3,266.1,222.6,258.6,226.5z"/>
		<path id="XMLID_85_" class="st5" d="M242.1,194.2c-10.2,5.2-14.3,17.7-9.1,28c5.2,10.2,17.7,14.3,28,9.1
			c10.2-5.2,14.3-17.7,9.1-28C264.9,193,252.3,189,242.1,194.2z M259.7,228.6c-8.8,4.5-19.5,1-24-7.8c-4.5-8.8-1-19.5,7.8-24
			c8.8-4.5,19.5-1,24,7.8C271.9,213.4,268.4,224.1,259.7,228.6z"/>
	</g>
	<g id="Calque_2_-_copie_9" class="st1">
		<path id="XMLID_70_" class="st2" d="M68.5,30.9c-3-4.6-7.2-8.1-12-10.2l1.7-5.2l-5.6-1.8l-1.7,5.2c-5.1-1.1-10.6-0.7-15.7,1.2
			l-2.5-4.8l-5.2,2.7l2.5,4.8c-4.6,3-8.1,7.2-10.2,12l-5.2-1.7l-1.8,5.6l5.2,1.7c-1.1,5.1-0.7,10.6,1.2,15.7l-4.8,2.5l2.7,5.2
			l4.8-2.5c3,4.6,7.2,8.1,12,10.2l-1.7,5.2l5.6,1.8l1.7-5.2c5.1,1.1,10.6,0.7,15.7-1.2l2.5,4.8l5.2-2.7l-2.5-4.8
			c4.6-3,8.1-7.2,10.2-12l5.2,1.7l1.8-5.6l-5.2-1.7c1.1-5.1,0.7-10.6-1.2-15.7l4.8-2.5l-2.7-5.2L68.5,30.9z M55.8,67.1
			C44.2,73,30.1,68.4,24.2,56.8c-5.9-11.6-1.3-25.7,10.3-31.6s25.7-1.3,31.6,10.3C72,47,67.4,61.2,55.8,67.1z"/>
		<path id="XMLID_67_" class="st3" d="M34.5,25.2c-11.6,5.9-16.2,20.1-10.3,31.6C30.1,68.4,44.2,73,55.8,67.1
			C67.4,61.2,72,47,66.1,35.5C60.2,23.9,46,19.3,34.5,25.2z M52.4,60.4c-7.9,4-17.6,0.9-21.6-7c-4-7.9-0.9-17.6,7-21.6
			c7.9-4,17.6-0.9,21.6,7C63.5,46.7,60.3,56.4,52.4,60.4z"/>
		
			<radialGradient id="XMLID_129_" cx="45.1266" cy="46.126" r="39.9486" gradientTransform="matrix(0.891 -0.454 0.454 0.891 -16.0223 25.5145)" gradientUnits="userSpaceOnUse">
			<stop  offset="0" style="stop-color:#D6D5D5"/>
			<stop  offset="0.3213" style="stop-color:#D4D3D2"/>
			<stop  offset="0.5416" style="stop-color:#CCCACA"/>
			<stop  offset="0.7315" style="stop-color:#BEBDBD"/>
			<stop  offset="0.9032" style="stop-color:#ACABAB"/>
			<stop  offset="1" style="stop-color:#9F9E9E"/>
		</radialGradient>
		<path id="XMLID_64_" class="st12" d="M83.5,33.4l-5.5-10.9l-8.6,4.4c-2.5-3.2-5.6-5.8-9.1-7.7l3-9.2L51.7,6.2l-3,9.2
			c-3.9-0.5-7.9-0.2-11.9,0.9l-4.4-8.6l-10.9,5.5l4.4,8.6c-3.2,2.5-5.8,5.6-7.7,9.1L9,28L5.2,39.6l9.2,3c-0.5,3.9-0.2,7.9,0.9,11.9
			l-8.6,4.4l5.5,10.9l8.6-4.4c2.5,3.2,5.6,5.8,9.1,7.7l-3,9.2L38.6,86l3-9.2c3.9,0.5,7.9,0.2,11.9-0.9l4.4,8.6l10.9-5.5l-4.4-8.6
			c3.2-2.5,5.8-5.6,7.7-9.1l9.2,3L85,52.7l-9.2-3c0.5-3.9,0.2-7.9-0.9-11.9L83.5,33.4z M52.1,59.9c-7.6,3.9-16.9,0.8-20.7-6.7
			s-0.8-16.9,6.7-20.7c7.6-3.9,16.9-0.8,20.7,6.7S59.7,56,52.1,59.9z"/>
		<path id="XMLID_61_" class="st5" d="M35.7,27.6c-10.2,5.2-14.3,17.7-9.1,28c5.2,10.2,17.7,14.3,28,9.1c10.2-5.2,14.3-17.7,9.1-28
			C58.4,26.4,45.9,22.4,35.7,27.6z M53.2,62c-8.8,4.5-19.5,1-24-7.8c-4.5-8.8-1-19.5,7.8-24c8.8-4.5,19.5-1,24,7.8
			C65.5,46.8,62,57.6,53.2,62z"/>
	</g>
</g>
<g id="Calque_36_-_copie_4" class="st0">
	<g id="Calque_2_-_copie_10_1_" class="st1">
		<path id="XMLID_118_" class="st2" d="M272.2,194c-3.7-4.1-8.4-6.9-13.5-8.2l0.8-5.4l-5.8-0.9l-0.8,5.4c-5.2-0.3-10.6,0.9-15.3,3.7
			l-3.2-4.4l-4.8,3.5l3.2,4.4c-4.1,3.7-6.9,8.4-8.2,13.5l-5.4-0.8l-0.9,5.8l5.4,0.8c-0.3,5.2,0.9,10.6,3.7,15.3l-4.4,3.2l3.5,4.8
			l4.4-3.2c3.7,4.1,8.4,6.9,13.5,8.2l-0.8,5.4l5.8,0.9l0.8-5.4c5.2,0.3,10.6-0.9,15.3-3.7l3.2,4.4l4.8-3.5l-3.2-4.4
			c4.1-3.7,6.9-8.4,8.2-13.5l5.4,0.8l0.9-5.8l-5.4-0.8c0.3-5.2-0.9-10.6-3.7-15.3l4.4-3.2l-3.5-4.8L272.2,194z M265.4,231.7
			c-10.5,7.6-25.2,5.3-32.8-5.2c-7.6-10.5-5.3-25.2,5.2-32.8c10.5-7.6,25.2-5.3,32.8,5.2C278.2,209.4,275.9,224.1,265.4,231.7z"/>
		<path id="XMLID_115_" class="st3" d="M237.7,193.7c-10.5,7.6-12.8,22.3-5.2,32.8c7.6,10.5,22.3,12.8,32.8,5.2
			c10.5-7.6,12.8-22.3,5.2-32.8C262.9,188.4,248.2,186.1,237.7,193.7z M261,225.7c-7.2,5.2-17.2,3.6-22.4-3.6
			c-5.2-7.2-3.6-17.2,3.6-22.4c7.2-5.2,17.2-3.6,22.4,3.6C269.8,210.5,268.2,220.5,261,225.7z"/>
		
			<radialGradient id="XMLID_130_" cx="251.5544" cy="212.718" r="39.9486" gradientTransform="matrix(0.809 -0.5878 0.5878 0.809 -76.9899 188.4855)" gradientUnits="userSpaceOnUse">
			<stop  offset="0" style="stop-color:#D6D5D5"/>
			<stop  offset="0.3213" style="stop-color:#D4D3D2"/>
			<stop  offset="0.5416" style="stop-color:#CCCACA"/>
			<stop  offset="0.7315" style="stop-color:#BEBDBD"/>
			<stop  offset="0.9032" style="stop-color:#ACABAB"/>
			<stop  offset="1" style="stop-color:#9F9E9E"/>
		</radialGradient>
		<path id="XMLID_112_" class="st13" d="M287.5,194.2l-7.2-9.9l-7.8,5.7c-3-2.8-6.5-4.8-10.2-6.2l1.5-9.5l-12.1-1.9l-1.5,9.5
			c-3.9,0.2-7.9,1.1-11.6,2.8l-5.7-7.8l-9.9,7.2l5.7,7.8c-2.8,3-4.8,6.5-6.2,10.2l-9.5-1.5l-1.9,12.1l9.5,1.5
			c0.2,3.9,1.1,7.9,2.8,11.6l-7.8,5.7l7.2,9.9l7.8-5.7c3,2.8,6.5,4.8,10.2,6.2l-1.5,9.5l12.1,1.9l1.5-9.5c3.9-0.2,7.9-1.1,11.6-2.8
			l5.7,7.8l9.9-7.2l-5.7-7.8c2.8-3,4.8-6.5,6.2-10.2l9.5,1.5l1.9-12.1l-9.5-1.5c-0.2-3.9-1.1-7.9-2.8-11.6L287.5,194.2z
			 M260.6,225.2c-6.9,5-16.5,3.5-21.5-3.4c-5-6.9-3.5-16.5,3.4-21.5c6.9-5,16.5-3.5,21.5,3.4C269,210.5,267.5,220.2,260.6,225.2z"/>
		<path id="XMLID_109_" class="st5" d="M239.3,195.9c-9.3,6.8-11.4,19.8-4.6,29.1c6.8,9.3,19.8,11.4,29.1,4.6
			c9.3-6.8,11.4-19.8,4.6-29.1C261.6,191.2,248.6,189.1,239.3,195.9z M262,227.2c-8,5.8-19.1,4-24.9-3.9c-5.8-8-4-19.1,3.9-24.9
			c8-5.8,19.1-4,24.9,3.9C271.8,210.2,270,221.4,262,227.2z"/>
	</g>
	<g id="Calque_2_-_copie_10" class="st1">
		<path id="XMLID_106_" class="st2" d="M65.8,27.5c-3.7-4.1-8.4-6.9-13.5-8.2l0.8-5.4l-5.8-0.9l-0.8,5.4C41.3,18,36,19.2,31.2,22
			L28,17.6l-4.8,3.5l3.2,4.4c-4.1,3.7-6.9,8.4-8.2,13.5L12.9,38l-0.9,5.8l5.4,0.8C17,49.9,18.2,55.3,21,60l-4.4,3.2l3.5,4.8l4.4-3.2
			c3.7,4.1,8.4,6.9,13.5,8.2L37,78.4l5.8,0.9l0.8-5.4c5.2,0.3,10.6-0.9,15.3-3.7l3.2,4.4l4.8-3.5l-3.2-4.4c4.1-3.7,6.9-8.4,8.2-13.5
			l5.4,0.8l0.9-5.8L73,47.6c0.3-5.2-0.9-10.6-3.7-15.3l4.4-3.2l-3.5-4.8L65.8,27.5z M58.9,65.2c-10.5,7.6-25.2,5.3-32.8-5.2
			c-7.6-10.5-5.3-25.2,5.2-32.8s25.2-5.3,32.8,5.2C71.8,42.8,69.5,57.5,58.9,65.2z"/>
		<path id="XMLID_103_" class="st3" d="M31.3,27.1c-10.5,7.6-12.8,22.3-5.2,32.8c7.6,10.5,22.3,12.8,32.8,5.2
			c10.5-7.6,12.8-22.3,5.2-32.8C56.5,21.8,41.8,19.5,31.3,27.1z M54.6,59.1c-7.2,5.2-17.2,3.6-22.4-3.6c-5.2-7.2-3.6-17.2,3.6-22.4
			c7.2-5.2,17.2-3.6,22.4,3.6C63.3,43.9,61.7,53.9,54.6,59.1z"/>
		
			<radialGradient id="XMLID_131_" cx="45.1266" cy="46.126" r="39.9486" gradientTransform="matrix(0.809 -0.5878 0.5878 0.809 -18.4938 35.334)" gradientUnits="userSpaceOnUse">
			<stop  offset="0" style="stop-color:#D6D5D5"/>
			<stop  offset="0.3213" style="stop-color:#D4D3D2"/>
			<stop  offset="0.5416" style="stop-color:#CCCACA"/>
			<stop  offset="0.7315" style="stop-color:#BEBDBD"/>
			<stop  offset="0.9032" style="stop-color:#ACABAB"/>
			<stop  offset="1" style="stop-color:#9F9E9E"/>
		</radialGradient>
		<path id="XMLID_100_" class="st14" d="M81,27.6l-7.2-9.9l-7.8,5.7c-3-2.8-6.5-4.8-10.2-6.2l1.5-9.5L45.3,5.7l-1.5,9.5
			c-3.9,0.2-7.9,1.1-11.6,2.8l-5.7-7.8l-9.9,7.2l5.7,7.8c-2.8,3-4.8,6.5-6.2,10.2l-9.5-1.5L4.7,45.9l9.5,1.5
			c0.2,3.9,1.1,7.9,2.8,11.6l-7.8,5.7l7.2,9.9l7.8-5.7c3,2.8,6.5,4.8,10.2,6.2l-1.5,9.5l12.1,1.9l1.5-9.5c3.9-0.2,7.9-1.1,11.6-2.8
			l5.7,7.8l9.9-7.2l-5.7-7.8c2.8-3,4.8-6.5,6.2-10.2l9.5,1.5l1.9-12.1L76,44.8c-0.2-3.9-1.1-7.9-2.8-11.6L81,27.6z M54.2,58.6
			c-6.9,5-16.5,3.5-21.5-3.4s-3.5-16.5,3.4-21.5c6.9-5,16.5-3.5,21.5,3.4S61.1,53.6,54.2,58.6z"/>
		<path id="XMLID_97_" class="st5" d="M32.9,29.3c-9.3,6.8-11.4,19.8-4.6,29.1c6.8,9.3,19.8,11.4,29.1,4.6
			c9.3-6.8,11.4-19.8,4.6-29.1C55.2,24.6,42.2,22.5,32.9,29.3z M55.6,60.6c-8,5.8-19.1,4-24.9-3.9c-5.8-8-4-19.1,3.9-24.9
			c8-5.8,19.1-4,24.9,3.9C65.4,43.6,63.6,54.8,55.6,60.6z"/>
	</g>
</g>
</svg>
