<?xml version="1.0" encoding="utf-8"?>
<!-- Generator: Adobe Illustrator 19.0.0, SVG Export Plug-In . SVG Version: 6.00 Build 0)  -->
<svg version="1.0" id="Calque_51_-_copie" xmlns="http://www.w3.org/2000/svg" xmlns:xlink="http://www.w3.org/1999/xlink" x="0px"
	 y="0px" width="300px" height="260px" viewBox="0 0 300 260" style="enable-background:new 0 0 300 260;" xml:space="preserve">
<style type="text/css">
	.st0{display:none;}
	.st1{display:inline;fill:none;stroke:#754C29;stroke-width:8;stroke-miterlimit:10;}
	.st2{display:inline;fill:url(#XMLID_2_);}
	.st3{display:inline;fill:url(#XMLID_31_);}
	.st4{display:inline;fill:url(#XMLID_32_);}
	.st5{display:inline;fill:url(#XMLID_33_);}
	.st6{display:inline;fill:url(#XMLID_34_);}
	.st7{display:inline;fill:url(#XMLID_37_);}
	.st8{fill:none;stroke:#754C29;stroke-width:8;stroke-miterlimit:10;}
	.st9{fill:url(#XMLID_38_);}
	.st10{opacity:0.25;fill:#FBB85E;}
	.st11{opacity:0.5;fill:#DEA987;stroke:#4E3012;stroke-width:2;stroke-miterlimit:10;}
	.st12{opacity:0.3;fill:#682E1A;}
	.st13{opacity:0.3;fill:#3C2415;}
	.st14{opacity:0.5;fill:#ECC194;}
	.st15{display:inline;fill:url(#XMLID_39_);}
	.st16{display:inline;fill:url(#XMLID_40_);}
	.st17{display:inline;fill:url(#XMLID_41_);}
	.st18{display:inline;fill:url(#XMLID_42_);}
	.st19{display:inline;fill:url(#XMLID_43_);}
	.st20{display:inline;fill:url(#XMLID_44_);}
	.st21{fill:url(#XMLID_45_);}
</style>
<g id="Calque_45_-_copie_2">
	<g id="Calque_50_-_copie_3">
		<g id="Calque_9_-_copie" class="st0">
			<path id="XMLID_15_" class="st1" d="M256.1,191.6c-7.4-2-15.2,0.3-20.2,6.1c-10.9,12.5-5.3,20.7-11.1,25.7
				c-4.4,3.8-13.7,10.1-23,11c14.6,8.3,28.5,7.6,35.2,7.2c16.6-1,26.9-6.4,34.4-20.6c3.7-6.9,0.4-17.1-3-21.3
				C265.2,196,260.9,192.9,256.1,191.6z"/>
			<linearGradient id="XMLID_2_" gradientUnits="userSpaceOnUse" x1="215.6009" y1="248.4868" x2="266.6361" y2="197.9476">
				<stop  offset="0" style="stop-color:#E93E3A"/>
				<stop  offset="0.1823" style="stop-color:#EC5C3C"/>
				<stop  offset="0.3014" style="stop-color:#ED683C"/>
				<stop  offset="0.4069" style="stop-color:#F07E3E"/>
				<stop  offset="0.5973" style="stop-color:#F49E41"/>
				<stop  offset="0.7665" style="stop-color:#F8B643"/>
				<stop  offset="0.9065" style="stop-color:#FBC543"/>
				<stop  offset="1" style="stop-color:#FCCB43"/>
			</linearGradient>
			<path id="XMLID_17_" class="st2" d="M256.1,191.6c-7.4-2-15.2,0.3-20.2,6.1c-10.9,12.5-5.3,20.7-11.1,25.7
				c-4.4,3.8-13.7,10.1-23,11c14.6,8.3,28.5,7.6,35.2,7.2c16.6-1,26.9-6.4,34.4-20.6c3.7-6.9,0.4-17.1-3-21.3
				C265.2,196,260.9,192.9,256.1,191.6z"/>
		</g>
		<g id="Calque_9_-_copie_2" class="st0">
			<path id="XMLID_20_" class="st1" d="M256.1,191.6c-7.4-2-15.2,0.3-20.2,6.1c-10.9,12.5-6.7,19.1-12.6,24.2
				c-4.4,3.8-13.3,13.6-22.6,14.5c14.6,8.3,28.6,3.7,35.3,3.3c16.6-1,27.8-4.4,35.3-18.6c3.7-6.9,0.4-17.1-3-21.3
				C265.2,196,260.9,192.9,256.1,191.6z"/>
			<linearGradient id="XMLID_31_" gradientUnits="userSpaceOnUse" x1="214.0068" y1="249.8036" x2="266.5052" y2="197.8154">
				<stop  offset="0" style="stop-color:#E93E3A"/>
				<stop  offset="0.1823" style="stop-color:#EC5C3C"/>
				<stop  offset="0.3014" style="stop-color:#ED683C"/>
				<stop  offset="0.4069" style="stop-color:#F07E3E"/>
				<stop  offset="0.5973" style="stop-color:#F49E41"/>
				<stop  offset="0.7665" style="stop-color:#F8B643"/>
				<stop  offset="0.9065" style="stop-color:#FBC543"/>
				<stop  offset="1" style="stop-color:#FCCB43"/>
			</linearGradient>
			<path id="XMLID_21_" class="st3" d="M256.1,191.6c-7.4-2-15.2,0.3-20.2,6.1c-10.9,12.5-6.7,19.1-12.6,24.2
				c-4.4,3.8-13.3,13.6-22.6,14.5c14.6,8.3,28.6,3.7,35.3,3.3c16.6-1,27.8-4.4,35.3-18.6c3.7-6.9,0.4-17.1-3-21.3
				C265.2,196,260.9,192.9,256.1,191.6z"/>
		</g>
		<g id="Calque_10_-_copie_3_2_" class="st0">
			<path id="XMLID_5_" class="st1" d="M256.1,191.6c-7.4-2-15.2,0.3-20.2,6.1c-10.9,12.5-8.1,16.7-13.9,21.7
				c-4.4,3.8-9.4,14.1-18,19.7c12.2,4,21.8-4.3,28.5-4.7c16.6-1,31.3,0.7,38.8-13.4c3.7-6.9,0.4-17.1-3-21.3
				C265.2,196,260.9,192.9,256.1,191.6z"/>
			<linearGradient id="XMLID_32_" gradientUnits="userSpaceOnUse" x1="214.0514" y1="249.3167" x2="266.2838" y2="197.5919">
				<stop  offset="0" style="stop-color:#E93E3A"/>
				<stop  offset="0.1823" style="stop-color:#EC5C3C"/>
				<stop  offset="0.3014" style="stop-color:#ED683C"/>
				<stop  offset="0.4069" style="stop-color:#F07E3E"/>
				<stop  offset="0.5973" style="stop-color:#F49E41"/>
				<stop  offset="0.7665" style="stop-color:#F8B643"/>
				<stop  offset="0.9065" style="stop-color:#FBC543"/>
				<stop  offset="1" style="stop-color:#FCCB43"/>
			</linearGradient>
			<path id="XMLID_19_" class="st4" d="M256.1,191.6c-7.4-2-15.2,0.3-20.2,6.1c-10.9,12.5-8.1,16.7-13.9,21.7
				c-4.4,3.8-9.4,14.1-18,19.7c12.2,4,21.8-4.3,28.5-4.7c16.6-1,31.3,0.7,38.8-13.4c3.7-6.9,0.4-17.1-3-21.3
				C265.2,196,260.9,192.9,256.1,191.6z"/>
		</g>
		<g id="Calque_10_-_copie_4" class="st0">
			<path id="XMLID_22_" class="st1" d="M256.1,191.6c-7.4-2-15.2,0.3-20.2,6.1c-10.9,12.5-9.6,15.4-15.4,20.4
				c-4.4,3.8-8.5,15.2-14.1,23c10.9-2.3,15.9-9.8,22.6-8.8c29.8,4.2,34.8,2.9,42.3-11.2c3.7-6.9,0.4-17.1-3-21.3
				C265.2,196,260.9,192.9,256.1,191.6z"/>
			<linearGradient id="XMLID_33_" gradientUnits="userSpaceOnUse" x1="214.5758" y1="249.4059" x2="266.588" y2="197.8991">
				<stop  offset="0" style="stop-color:#E93E3A"/>
				<stop  offset="0.1823" style="stop-color:#EC5C3C"/>
				<stop  offset="0.3014" style="stop-color:#ED683C"/>
				<stop  offset="0.4069" style="stop-color:#F07E3E"/>
				<stop  offset="0.5973" style="stop-color:#F49E41"/>
				<stop  offset="0.7665" style="stop-color:#F8B643"/>
				<stop  offset="0.9065" style="stop-color:#FBC543"/>
				<stop  offset="1" style="stop-color:#FCCB43"/>
			</linearGradient>
			<path id="XMLID_26_" class="st5" d="M256.1,191.6c-7.4-2-15.2,0.3-20.2,6.1c-10.9,12.5-9.6,15.4-15.4,20.4
				c-4.4,3.8-8.5,15.2-14.1,23c10.9-2.3,15.9-9.8,22.6-8.8c29.8,4.2,34.8,2.9,42.3-11.2c3.7-6.9,0.4-17.1-3-21.3
				C265.2,196,260.9,192.9,256.1,191.6z"/>
		</g>
		<g id="Calque_10_-_copie_3_1_" class="st0">
			<path id="XMLID_8_" class="st1" d="M256.1,191.6c-7.4-2-14.7,0.8-20.2,6.1c-12.4,12.1-5.2,14.8-22.9,22.2
				c-5.4,2.3-4,12.7-6.2,22.8c11.8-9.2,16.2-12.7,22.8-11.5c26,4.7,34.1,3.9,41.6-10.2c3.7-6.9,0.4-17.1-3-21.3
				C265.2,196,260.9,192.9,256.1,191.6z"/>
			<linearGradient id="XMLID_34_" gradientUnits="userSpaceOnUse" x1="213.6249" y1="249.6915" x2="266.2601" y2="197.5679">
				<stop  offset="0" style="stop-color:#E93E3A"/>
				<stop  offset="0.1823" style="stop-color:#EC5C3C"/>
				<stop  offset="0.3014" style="stop-color:#ED683C"/>
				<stop  offset="0.4069" style="stop-color:#F07E3E"/>
				<stop  offset="0.5973" style="stop-color:#F49E41"/>
				<stop  offset="0.7665" style="stop-color:#F8B643"/>
				<stop  offset="0.9065" style="stop-color:#FBC543"/>
				<stop  offset="1" style="stop-color:#FCCB43"/>
			</linearGradient>
			<path id="XMLID_23_" class="st6" d="M256.1,191.6c-7.4-2-14.7,0.8-20.2,6.1c-12.4,12.1-5.2,14.8-22.9,22.2
				c-5.4,2.3-4,12.7-6.2,22.8c11.8-9.2,16.2-12.7,22.8-11.5c26,4.7,34.1,3.9,41.6-10.2c3.7-6.9,0.4-17.1-3-21.3
				C265.2,196,260.9,192.9,256.1,191.6z"/>
		</g>
		<g id="Calque_10_-_copie_5" class="st0">
			<path id="XMLID_27_" class="st1" d="M256.1,191.6c-7.4-2-14.7,0.8-20.2,6.1c-12.4,12.1-12.6,15.2-20.5,22.3
				c-4.3,3.9-4,17.3-6.2,27.4c11.8-9.2,14.2-14.7,22.6-13.8c28.9,3,31.9,1.6,39.5-12.6c3.7-6.9,0.4-17.1-3-21.3
				C265.2,196,260.9,192.9,256.1,191.6z"/>
			<linearGradient id="XMLID_37_" gradientUnits="userSpaceOnUse" x1="212.9665" y1="251.253" x2="266.7148" y2="198.0271">
				<stop  offset="0" style="stop-color:#E93E3A"/>
				<stop  offset="0.1823" style="stop-color:#EC5C3C"/>
				<stop  offset="0.3014" style="stop-color:#ED683C"/>
				<stop  offset="0.4069" style="stop-color:#F07E3E"/>
				<stop  offset="0.5973" style="stop-color:#F49E41"/>
				<stop  offset="0.7665" style="stop-color:#F8B643"/>
				<stop  offset="0.9065" style="stop-color:#FBC543"/>
				<stop  offset="1" style="stop-color:#FCCB43"/>
			</linearGradient>
			<path id="XMLID_29_" class="st7" d="M256.1,191.6c-7.4-2-14.7,0.8-20.2,6.1c-12.4,12.1-12.6,15.2-20.5,22.3
				c-4.3,3.9-4,17.3-6.2,27.4c11.8-9.2,14.2-14.7,22.6-13.8c28.9,3,31.9,1.6,39.5-12.6c3.7-6.9,0.4-17.1-3-21.3
				C265.2,196,260.9,192.9,256.1,191.6z"/>
		</g>
		<g id="Calque_11_-_copie">
			<path id="XMLID_16_" class="st8" d="M256.1,191.6c-7.4-2-14.7,0.8-20.2,6.1c-12.4,12.1-1.9,1.9-17.3,18.1c-4,4.2-5.7,19.2-4,32.5
				c4.4-11.5,7-12.3,12.3-14.5c8.4-3.5,16.5,1,21.7,1.3c13.4,0.7,17.3-4,22.7-14.1c3.7-6.9,0.4-17.1-3-21.3
				C265.2,196,260.9,192.9,256.1,191.6z"/>
			<linearGradient id="XMLID_38_" gradientUnits="userSpaceOnUse" x1="215.173" y1="249.0122" x2="266.6869" y2="197.9989">
				<stop  offset="0" style="stop-color:#E93E3A"/>
				<stop  offset="0.1823" style="stop-color:#EC5C3C"/>
				<stop  offset="0.3014" style="stop-color:#ED683C"/>
				<stop  offset="0.4069" style="stop-color:#F07E3E"/>
				<stop  offset="0.5973" style="stop-color:#F49E41"/>
				<stop  offset="0.7665" style="stop-color:#F8B643"/>
				<stop  offset="0.9065" style="stop-color:#FBC543"/>
				<stop  offset="1" style="stop-color:#FCCB43"/>
			</linearGradient>
			<path id="XMLID_25_" class="st9" d="M256.1,191.6c-7.4-2-14.7,0.8-20.2,6.1c-12.4,12.1-1.9,1.9-17.3,18.1c-4,4.2-5.7,19.2-4,32.5
				c4.4-11.5,7-12.3,12.3-14.5c8.4-3.5,16.5,1,21.7,1.3c13.4,0.7,17.3-4,22.7-14.1c3.7-6.9,0.4-17.1-3-21.3
				C265.2,196,260.9,192.9,256.1,191.6z"/>
		</g>
	</g>
	<circle id="XMLID_18_" class="st10" cx="251.6" cy="213" r="19.7"/>
	<g id="Calque_10_-_copie_3">
		<path id="XMLID_36_" class="st11" d="M240.4,223.8c-0.7-1-0.7-2.7-1.5-3.8c-0.8-1.2-2-2.2-2.3-3.6c-0.1-0.5-0.1-1,0-1.4
			c0-0.9,0.1-1.9,0.1-2.8c0.1-1.9,0.2-4,1.2-5.6c0.2-0.4,0.5-0.7,0.7-1.2c0.2-0.5,0.3-1,0.4-1.5c0.7-2.3,3.4-3.3,4.5-5.4
			c0.2-0.5,0.5-1,1-1.2c0.5-0.1,1,0.2,1.5,0c0.3-0.1,0.5-0.4,0.7-0.6c0.5-0.5,1.3-0.6,2-0.6c0.7,0.1,1.4,0.3,2.1,0.4
			c1.3,0.2,2.7,0.1,4,0.1c1,0,2.1,0.1,3,0.6c1.4,0.9,2,2.7,3.4,3.6c0.8,0.5,1.8,0.6,2.8,0.9s1.9,1,1.9,2c0,0.4-0.1,0.7-0.2,1.1
			c-0.5,2.3,0.6,4.6,0.8,6.9c0.1,1,0.1,2.1,0,3.1c0,0.6-0.1,1.2-0.3,1.7c-0.2,0.4-0.4,0.7-0.6,1c-0.5,1.1,0,2.5-0.7,3.4
			c-0.4,0.5-1,0.8-1.5,1.1c-1,0.7-1.7,1.8-1.8,3.1c0,0.3,0,0.7-0.2,1c-0.4,0.8-1.6,0.7-2.6,0.7c-1.8,0.1-3.3,1.3-5.1,1.6
			c-2.5,0.4-5-1.1-7.6-1.1c-0.7,0-1.4,0-2-0.2C242.6,226.5,241,225.1,240.4,223.8"/>
		<path id="XMLID_35_" class="st12" d="M254.8,196.5c-1.3,0-2.7,0.2-4-0.1c-0.7-0.1-1.4-0.3-2.1-0.4c-0.7-0.1-1.5,0.1-2,0.6
			c-0.2,0.2-0.4,0.5-0.7,0.6c-0.2,0.1-0.5,0.1-0.8,0c0,0.1,0,0.1,0,0.2c0.1,0.1,0.2,0.2,0.3,0.3c1.1,0.8,2.7,0,3.9,0.6
			c0.4,0.2,0.7,0.5,1.1,0.7c0.4,0.2,0.9,0.4,1.2,0.1c0.2-0.1,0.3-0.3,0.5-0.5c0.4-0.4,1.1-0.4,1.7-0.3c0.6,0.1,1.3,0.5,1.6,1
			c0.3,0.6,0.2,1.4-0.4,1.7c0.1,0.3,0.5,0.5,0.9,0.4c0.4,0,0.7-0.1,1,0.1c0.3,0.2,0.3,0.7,0.2,1.1c-0.3,1.5-1.4,3.1-0.6,4.5
			c0.3,0.5,0.8,0.9,0.9,1.5c0.1,0.4-0.1,0.9-0.2,1.3c-0.1,0.4,0,1,0.4,1.2c0.2,0.1,0.5,0.1,0.8,0.1c0.7,0.1,1.1,0.9,1.1,1.5
			s-0.4,1.3-0.7,1.9c-0.4-0.2-0.8-0.4-1.2-0.5c-0.6,0.8-1.5,1.3-2.5,1.6c0-0.6-0.8-1-1.4-0.8c-0.6,0.2-1,0.7-1.4,1.2
			c-0.2,0.3-0.4,0.7-0.5,1.1c-0.2,1.1,0.9,2,1.9,2.3c0.3,0.1,0.5,0.1,0.7-0.1c0.1-0.1,0.2-0.3,0.3-0.5c0.3-0.7,1.1-1.2,1.9-1.1
			c0.8,0.1,1.5,0.7,1.5,1.5c0,0.6-0.4,1.2-1,1.5c-0.5,0.3-1.2,0.4-1.8,0.3c0.1,0.6,0,1.2-0.4,1.7c-0.1-0.4-0.5-0.5-0.9-0.4
			c-0.4,0.1-0.7,0.3-1.1,0.2c-0.8-0.1-1.1-1.2-1.9-1.4c-0.8-0.2-1.6,0.6-1.5,1.4c0,0.8,0.6,1.5,1.1,2.1c0.3,0.3,0.6,0.6,0.7,0.9
			c0.1,0.4-0.1,0.9-0.5,0.9c-0.3,0-0.6-0.3-0.9-0.5c-1.3-1.4-3.7-1.6-5.3-0.4c0.3-0.4-0.1-1-0.6-1.2c-0.5-0.2-1-0.2-1.4-0.6
			c-0.2-0.2-0.3-0.4-0.4-0.6c-0.4-0.4-1-0.4-1.4-0.1c-0.2,0.1-0.3,0.2-0.4,0.3c0.7,1.3,2.3,2.6,3.9,3.2c0.6,0.2,1.3,0.2,2,0.2
			c2.6,0.1,5.1,1.6,7.6,1.1c1.8-0.3,3.3-1.5,5.1-1.6c0.9,0,2.1,0.1,2.6-0.7c0.2-0.3,0.2-0.7,0.2-1c0.1-1.2,0.8-2.3,1.8-3.1
			c0.5-0.4,1.1-0.6,1.5-1.1c0.7-1,0.2-2.4,0.7-3.4c0.2-0.4,0.4-0.7,0.6-1c0.3-0.5,0.3-1.1,0.3-1.7c0-1,0.1-2.1,0-3.1
			c-0.3-2.3-1.3-4.6-0.8-6.9c0.1-0.3,0.2-0.7,0.2-1.1c0-1-1-1.7-1.9-2c-0.9-0.3-1.9-0.4-2.8-0.9c-1.4-0.9-2-2.7-3.4-3.6
			C256.9,196.6,255.9,196.5,254.8,196.5z"/>
		<path id="XMLID_30_" class="st13" d="M256.6,196.7c0.5,0.3,1.1,0.7,1.1,1.2c0,0.3-0.1,0.5-0.1,0.8c0,0.3,0.3,0.6,0.5,0.8
			c0.6,0.5,1.2,0.9,1.9,1.3c0.3,0.2,0.7,0.3,0.9,0.6c0.1,0.2,0.2,0.4,0.4,0.6c0.4,0.4,1,0.2,1.5,0.4c0.7,0.2,1,1,1.2,1.8
			c0.3,0.9,0.6,1.9,0.4,2.9c-0.1,0.4-0.2,0.7-0.2,1.1c0,0.7,0.7,1.3,1.4,1.3c-0.8,1.1-0.1,2.6,0,3.9c0,0.7,0,1.3-0.2,1.9
			c-0.5,2.1-1.6,4.1-3.2,5.7c-0.3,0.3-0.6,0.6-0.8,0.9c-0.2,0.4-0.3,0.9-0.5,1.3s-0.5,0.8-1,0.8c-0.2,0-0.4,0-0.5,0
			c-0.7,0.1-0.5,1.3-1,1.9c-0.5,0.7-1.5,0.4-2.3,0.5c-1.4,0.1-2.6,1-4,1.2c-0.3,0-0.5,0-0.8-0.1c-0.4-0.2-0.5-0.6-0.9-0.8
			c-0.5-0.4-1.3-0.2-1.9-0.6c-0.2-0.2-0.4-0.4-0.6-0.6c-0.8-0.5-1.8,0.4-2.6,0.2c-0.2,0-0.3-0.1-0.5-0.2c-0.7-0.4-1.3-1.1-1.6-1.8
			c-0.1-0.2-0.1-0.3-0.3-0.4c-0.2-0.1-0.4-0.1-0.6-0.1c-0.7,0-1.5,0-2.1,0.4c0,0.1,0.1,0.2,0.1,0.2l0,0c0.7,1.3,2.3,2.7,3.9,3.2
			c0.6,0.2,1.3,0.2,2,0.2c2.6,0.1,5.1,1.6,7.6,1.1c1.8-0.3,3.3-1.5,5.1-1.6c0.9,0,2.1,0.1,2.6-0.7c0.2-0.3,0.2-0.7,0.2-1
			c0.1-1.2,0.8-2.3,1.8-3.1c0.5-0.4,1.1-0.6,1.5-1.1c0.7-1,0.2-2.4,0.7-3.4c0.2-0.4,0.4-0.7,0.6-1c0.3-0.5,0.3-1.1,0.3-1.7
			c0-1,0.1-2.1,0-3.1c-0.3-2.3-1.3-4.6-0.8-6.9c0.1-0.3,0.2-0.7,0.2-1.1c0-1-1-1.7-1.9-2c-0.9-0.3-1.9-0.4-2.8-0.9
			c-1.4-0.9-2-2.7-3.4-3.6C257.5,196.9,257.1,196.8,256.6,196.7z"/>
		<path id="XMLID_28_" class="st14" d="M242.2,222.4c-0.6-1.2-0.8-2.5-0.5-3.8c0.2-0.7,0.5-1.3,1-1.8c0.5-0.5,1.3-0.7,1.9-0.4
			c-0.5-0.8-0.3-1.8-0.6-2.7c-0.4-1.3-2-2-3.2-1.6c-0.2,0.1-0.4,0.1-0.5,0.1c-0.3-0.1-0.4-0.5-0.4-0.8c-0.1-2.2,0.7-4.5,2.2-6.2
			c0.1-0.1,0.3-0.3,0.4-0.2c0.1,0,0.1,0.1,0.2,0.2c0.3,0.5,0.3,1.2,0.3,1.8s0.2,1.3,0.7,1.6c0.7,0.5,1.7,0.2,2.5,0.5
			c1,0.5,1.3,2,2.4,2.3c0.5,0.1,1,0,1.5,0.2c-1.1-0.7-1.2-2.5-2.4-3c0.6-0.5,1.3-1,2-1.2c0.3-0.1,0.6-0.2,0.9-0.2
			c1.2-0.2,2.5-0.1,3.7,0.3c-0.7-1.7-1.3-3.3-2-5c-0.1-0.1-0.1-0.3-0.2-0.4c-0.2-0.3-0.6-0.3-1-0.2s-0.7,0.2-1,0.3
			c-1.1,0.2-2.2-0.5-2.7-1.5c-0.3-0.5-0.5-1.2-1.1-1.4c-0.5-0.1-0.9,0.2-1.3,0.5c-0.3,0.4-0.5,0.8-0.9,1.1c-0.8,0.8-2.1,0.8-3,1.4
			c-1,0.8-1.3,2.2-1.8,3.4c-0.4,0.9-1,1.7-1.3,2.6c-0.6,1.8,0.1,3.7-0.2,5.6c-0.1,0.9-0.5,1.9-0.2,2.8c0.3,0.7,0.9,1.2,1.4,1.8
			c0.5,0.6,0.8,1.4,1.2,2.1c0.5,0.8,1.8,2.1,2,1.9C242.2,222.7,242.3,222.5,242.2,222.4"/>
		<path id="XMLID_24_" class="st14" d="M256.1,219.4c0.3,0.3,0.2,0.7,0.1,1.1c-0.2,0.4-0.7,0.6-1,0.3c-0.1-0.1-0.2-0.2-0.3-0.3
			c-0.2-0.1-0.3,0-0.5,0c-0.4,0.1-0.8,0.2-1.3,0.3c-0.5,0.1-1,0.3-1.5,0.1c-0.7-0.3-0.9-1.4-1.6-1.8c-0.2-0.1-0.4-0.2-0.6-0.3
			c-0.4-0.2-0.7-0.7-0.7-1.2c0-0.5,0.2-1,0.6-1.3c0.1-0.1,0.3-0.2,0.4-0.4c0.4-0.5,0-1.2,0.1-1.9c0-0.4,0.2-0.7,0.4-1
			c0.5-0.7,0.9-1.4,1.5-2c0.3-0.3,0.6-0.5,1-0.6c0.4-0.1,0.8,0,1.1,0.3c0.2,0.3,0.2,0.6,0.4,1s0.4,0.7,0.7,0.6
			c0.2,0,0.3-0.2,0.5-0.3c0.6-0.4,1.5-0.3,2.2-0.1c0.1,0,0.2,0.1,0.3,0.1c0.2,0.1,0.2,0.4,0.1,0.6c-0.1,0.4-0.5,0.7-0.9,0.9
			c-0.8,0.5-1.7,0.9-2.7,0.7c-0.5-0.1-1-0.5-1.5-0.3c-0.2,0.1-0.3,0.2-0.5,0.4c-0.4,0.4-0.8,0.8-1.1,1.2c-0.4,0.4-0.7,0.8-0.9,1.3
			c-0.2,0.5-0.1,1.1,0.4,1.4c0.3,0.2,0.6,0.2,0.9,0.4c0.4,0.2,0.6,0.5,0.9,0.8c0.7,0.5,1.8,0.5,2.4-0.2c0.2-0.2,0.3-0.4,0.6-0.5
			C255.7,219.1,256,219.1,256.1,219.4"/>
	</g>
</g>
<g id="Calque_45_-_copie_4">
	<g id="Calque_50_-_copie_5">
		<g id="Calque_9_-_copie_4_1_" class="st0">
			<path id="XMLID_60_" class="st1" d="M39.3,67.5c7.4,2,15.2-0.3,20.2-6.1c10.9-12.5,5.3-20.7,11.1-25.7c4.4-3.8,13.7-10.1,23-11
				c-14.6-8.3-28.5-7.6-35.2-7.2C42,18.5,31.7,23.9,24.2,38c-3.7,6.9-0.4,17.1,3,21.3C30.3,63.1,34.5,66.2,39.3,67.5z"/>
			
				<linearGradient id="XMLID_39_" gradientUnits="userSpaceOnUse" x1="393.813" y1="428.6726" x2="444.8482" y2="378.1334" gradientTransform="matrix(-1 0 0 -1 473.6911 439.3091)">
				<stop  offset="0" style="stop-color:#E93E3A"/>
				<stop  offset="0.1823" style="stop-color:#EC5C3C"/>
				<stop  offset="0.3014" style="stop-color:#ED683C"/>
				<stop  offset="0.4069" style="stop-color:#F07E3E"/>
				<stop  offset="0.5973" style="stop-color:#F49E41"/>
				<stop  offset="0.7665" style="stop-color:#F8B643"/>
				<stop  offset="0.9065" style="stop-color:#FBC543"/>
				<stop  offset="1" style="stop-color:#FCCB43"/>
			</linearGradient>
			<path id="XMLID_59_" class="st15" d="M39.3,67.5c7.4,2,15.2-0.3,20.2-6.1c10.9-12.5,5.3-20.7,11.1-25.7c4.4-3.8,13.7-10.1,23-11
				c-14.6-8.3-28.5-7.6-35.2-7.2C42,18.5,31.7,23.9,24.2,38c-3.7,6.9-0.4,17.1,3,21.3C30.3,63.1,34.5,66.2,39.3,67.5z"/>
		</g>
		<g id="Calque_9_-_copie_4" class="st0">
			<path id="XMLID_77_" class="st1" d="M39.3,67.5c7.4,2,15.2-0.3,20.2-6.1c10.9-12.5,6.7-19.1,12.6-24.2
				c4.4-3.8,13.3-13.6,22.6-14.5c-14.6-8.3-28.6-3.7-35.3-3.3c-16.6,1-27.8,4.4-35.3,18.6c-3.7,6.9-0.4,17.1,3,21.3
				C30.3,63.1,34.5,66.2,39.3,67.5z"/>
			
				<linearGradient id="XMLID_40_" gradientUnits="userSpaceOnUse" x1="392.219" y1="429.9894" x2="444.7173" y2="378.0013" gradientTransform="matrix(-1 0 0 -1 473.6911 439.3091)">
				<stop  offset="0" style="stop-color:#E93E3A"/>
				<stop  offset="0.1823" style="stop-color:#EC5C3C"/>
				<stop  offset="0.3014" style="stop-color:#ED683C"/>
				<stop  offset="0.4069" style="stop-color:#F07E3E"/>
				<stop  offset="0.5973" style="stop-color:#F49E41"/>
				<stop  offset="0.7665" style="stop-color:#F8B643"/>
				<stop  offset="0.9065" style="stop-color:#FBC543"/>
				<stop  offset="1" style="stop-color:#FCCB43"/>
			</linearGradient>
			<path id="XMLID_76_" class="st16" d="M39.3,67.5c7.4,2,15.2-0.3,20.2-6.1c10.9-12.5,6.7-19.1,12.6-24.2
				c4.4-3.8,13.3-13.6,22.6-14.5c-14.6-8.3-28.6-3.7-35.3-3.3c-16.6,1-27.8,4.4-35.3,18.6c-3.7,6.9-0.4,17.1,3,21.3
				C30.3,63.1,34.5,66.2,39.3,67.5z"/>
		</g>
		<g id="Calque_10_-_copie_7_4_" class="st0">
			<path id="XMLID_56_" class="st1" d="M39.3,67.5c7.4,2,15.2-0.3,20.2-6.1c10.9-12.5,8.1-16.7,13.9-21.7c4.4-3.8,9.4-14.1,18-19.7
				c-12.2-4-21.8,4.3-28.5,4.7c-16.6,1-31.3-0.7-38.8,13.4c-3.7,6.9-0.4,17.1,3,21.3C30.3,63.1,34.5,66.2,39.3,67.5z"/>
			
				<linearGradient id="XMLID_41_" gradientUnits="userSpaceOnUse" x1="392.2635" y1="429.5024" x2="444.4959" y2="377.7776" gradientTransform="matrix(-1 0 0 -1 473.6911 439.3091)">
				<stop  offset="0" style="stop-color:#E93E3A"/>
				<stop  offset="0.1823" style="stop-color:#EC5C3C"/>
				<stop  offset="0.3014" style="stop-color:#ED683C"/>
				<stop  offset="0.4069" style="stop-color:#F07E3E"/>
				<stop  offset="0.5973" style="stop-color:#F49E41"/>
				<stop  offset="0.7665" style="stop-color:#F8B643"/>
				<stop  offset="0.9065" style="stop-color:#FBC543"/>
				<stop  offset="1" style="stop-color:#FCCB43"/>
			</linearGradient>
			<path id="XMLID_55_" class="st17" d="M39.3,67.5c7.4,2,15.2-0.3,20.2-6.1c10.9-12.5,8.1-16.7,13.9-21.7c4.4-3.8,9.4-14.1,18-19.7
				c-12.2-4-21.8,4.3-28.5,4.7c-16.6,1-31.3-0.7-38.8,13.4c-3.7,6.9-0.4,17.1,3,21.3C30.3,63.1,34.5,66.2,39.3,67.5z"/>
		</g>
		<g id="Calque_10_-_copie_7_3_" class="st0">
			<path id="XMLID_69_" class="st1" d="M39.3,67.5c7.4,2,15.2-0.3,20.2-6.1C70.5,48.8,69.2,46,75,41c4.4-3.8,8.5-15.2,14.1-23
				c-10.9,2.3-15.9,9.8-22.6,8.8C36.7,22.6,31.7,23.9,24.2,38c-3.7,6.9-0.4,17.1,3,21.3C30.3,63.1,34.5,66.2,39.3,67.5z"/>
			
				<linearGradient id="XMLID_42_" gradientUnits="userSpaceOnUse" x1="392.788" y1="429.5917" x2="444.8002" y2="378.0849" gradientTransform="matrix(-1 0 0 -1 473.6911 439.3091)">
				<stop  offset="0" style="stop-color:#E93E3A"/>
				<stop  offset="0.1823" style="stop-color:#EC5C3C"/>
				<stop  offset="0.3014" style="stop-color:#ED683C"/>
				<stop  offset="0.4069" style="stop-color:#F07E3E"/>
				<stop  offset="0.5973" style="stop-color:#F49E41"/>
				<stop  offset="0.7665" style="stop-color:#F8B643"/>
				<stop  offset="0.9065" style="stop-color:#FBC543"/>
				<stop  offset="1" style="stop-color:#FCCB43"/>
			</linearGradient>
			<path id="XMLID_68_" class="st18" d="M39.3,67.5c7.4,2,15.2-0.3,20.2-6.1C70.5,48.8,69.2,46,75,41c4.4-3.8,8.5-15.2,14.1-23
				c-10.9,2.3-15.9,9.8-22.6,8.8C36.7,22.6,31.7,23.9,24.2,38c-3.7,6.9-0.4,17.1,3,21.3C30.3,63.1,34.5,66.2,39.3,67.5z"/>
		</g>
		<g id="Calque_10_-_copie_7_2_" class="st0">
			<path id="XMLID_14_" class="st1" d="M39.3,67.5c7.4,2,14.7-0.8,20.2-6.1C72,49.3,64.8,46.6,82.5,39.1c5.4-2.3,4-12.7,6.2-22.8
				C76.8,25.5,72.4,29,65.8,27.8c-26-4.7-34.1-3.9-41.6,10.2c-3.7,6.9-0.4,17.1,3,21.3C30.3,63.1,34.5,66.2,39.3,67.5z"/>
			
				<linearGradient id="XMLID_43_" gradientUnits="userSpaceOnUse" x1="391.8371" y1="429.8773" x2="444.4722" y2="377.7537" gradientTransform="matrix(-1 0 0 -1 473.6911 439.3091)">
				<stop  offset="0" style="stop-color:#E93E3A"/>
				<stop  offset="0.1823" style="stop-color:#EC5C3C"/>
				<stop  offset="0.3014" style="stop-color:#ED683C"/>
				<stop  offset="0.4069" style="stop-color:#F07E3E"/>
				<stop  offset="0.5973" style="stop-color:#F49E41"/>
				<stop  offset="0.7665" style="stop-color:#F8B643"/>
				<stop  offset="0.9065" style="stop-color:#FBC543"/>
				<stop  offset="1" style="stop-color:#FCCB43"/>
			</linearGradient>
			<path id="XMLID_13_" class="st19" d="M39.3,67.5c7.4,2,14.7-0.8,20.2-6.1C72,49.3,64.8,46.6,82.5,39.1c5.4-2.3,4-12.7,6.2-22.8
				C76.8,25.5,72.4,29,65.8,27.8c-26-4.7-34.1-3.9-41.6,10.2c-3.7,6.9-0.4,17.1,3,21.3C30.3,63.1,34.5,66.2,39.3,67.5z"/>
		</g>
		<g id="Calque_10_-_copie_7_1_" class="st0">
			<path id="XMLID_58_" class="st1" d="M39.3,67.5c7.4,2,14.7-0.8,20.2-6.1C72,49.3,72.1,46.1,80.1,39c4.3-3.9,4-17.3,6.2-27.4
				C74.4,20.8,72,26.3,63.6,25.5c-28.9-3-31.9-1.6-39.5,12.6c-3.7,6.9-0.4,17.1,3,21.3C30.3,63.1,34.5,66.2,39.3,67.5z"/>
			
				<linearGradient id="XMLID_44_" gradientUnits="userSpaceOnUse" x1="391.1786" y1="431.4388" x2="444.9269" y2="378.2129" gradientTransform="matrix(-1 0 0 -1 473.6911 439.3091)">
				<stop  offset="0" style="stop-color:#E93E3A"/>
				<stop  offset="0.1823" style="stop-color:#EC5C3C"/>
				<stop  offset="0.3014" style="stop-color:#ED683C"/>
				<stop  offset="0.4069" style="stop-color:#F07E3E"/>
				<stop  offset="0.5973" style="stop-color:#F49E41"/>
				<stop  offset="0.7665" style="stop-color:#F8B643"/>
				<stop  offset="0.9065" style="stop-color:#FBC543"/>
				<stop  offset="1" style="stop-color:#FCCB43"/>
			</linearGradient>
			<path id="XMLID_57_" class="st20" d="M39.3,67.5c7.4,2,14.7-0.8,20.2-6.1C72,49.3,72.1,46.1,80.1,39c4.3-3.9,4-17.3,6.2-27.4
				C74.4,20.8,72,26.3,63.6,25.5c-28.9-3-31.9-1.6-39.5,12.6c-3.7,6.9-0.4,17.1,3,21.3C30.3,63.1,34.5,66.2,39.3,67.5z"/>
		</g>
		<g id="Calque_11_-_copie_3">
			<path id="XMLID_10_" class="st8" d="M39.3,67.5c7.4,2,14.7-0.8,20.2-6.1c12.4-12.1,1.9-1.9,17.3-18.1c4-4.2,5.7-19.2,4-32.5
				c-4.4,11.5-7,12.3-12.3,14.5c-8.4,3.5-16.5-1-21.7-1.3c-13.4-0.7-17.3,4-22.7,14.1c-3.7,6.9-0.4,17.1,3,21.3
				C30.3,63.1,34.5,66.2,39.3,67.5z"/>
			
				<linearGradient id="XMLID_45_" gradientUnits="userSpaceOnUse" x1="393.3852" y1="429.198" x2="444.8991" y2="378.1848" gradientTransform="matrix(-1 0 0 -1 473.6911 439.3091)">
				<stop  offset="0" style="stop-color:#E93E3A"/>
				<stop  offset="0.1823" style="stop-color:#EC5C3C"/>
				<stop  offset="0.3014" style="stop-color:#ED683C"/>
				<stop  offset="0.4069" style="stop-color:#F07E3E"/>
				<stop  offset="0.5973" style="stop-color:#F49E41"/>
				<stop  offset="0.7665" style="stop-color:#F8B643"/>
				<stop  offset="0.9065" style="stop-color:#FBC543"/>
				<stop  offset="1" style="stop-color:#FCCB43"/>
			</linearGradient>
			<path id="XMLID_9_" class="st21" d="M39.3,67.5c7.4,2,14.7-0.8,20.2-6.1c12.4-12.1,1.9-1.9,17.3-18.1c4-4.2,5.7-19.2,4-32.5
				c-4.4,11.5-7,12.3-12.3,14.5c-8.4,3.5-16.5-1-21.7-1.3c-13.4-0.7-17.3,4-22.7,14.1c-3.7,6.9-0.4,17.1,3,21.3
				C30.3,63.1,34.5,66.2,39.3,67.5z"/>
		</g>
	</g>
	<circle id="XMLID_7_" class="st10" cx="43.9" cy="46.1" r="19.7"/>
	<g id="Calque_10_-_copie_7">
		<path id="XMLID_12_" class="st11" d="M55.1,35.3c0.7,1,0.7,2.7,1.5,3.8c0.8,1.2,2,2.2,2.3,3.6c0.1,0.5,0.1,1,0,1.4
			c0,0.9-0.1,1.9-0.1,2.8c-0.1,1.9-0.2,4-1.2,5.6c-0.2,0.4-0.5,0.7-0.7,1.2c-0.2,0.5-0.3,1-0.4,1.5c-0.7,2.3-3.4,3.3-4.5,5.4
			c-0.2,0.5-0.5,1-1,1.2c-0.5,0.1-1-0.2-1.5,0c-0.3,0.1-0.5,0.4-0.7,0.6c-0.5,0.5-1.3,0.6-2,0.6c-0.7-0.1-1.4-0.3-2.1-0.4
			c-1.3-0.2-2.7-0.1-4-0.1c-1,0-2.1-0.1-3-0.6c-1.4-0.9-2-2.7-3.4-3.6c-0.8-0.5-1.8-0.6-2.8-0.9c-0.9-0.3-1.9-1-1.9-2
			c0-0.4,0.1-0.7,0.2-1.1c0.5-2.3-0.6-4.6-0.8-6.9c-0.1-1-0.1-2.1,0-3.1c0-0.6,0.1-1.2,0.3-1.7c0.2-0.4,0.4-0.7,0.6-1
			c0.5-1.1,0-2.5,0.7-3.4c0.4-0.5,1-0.8,1.5-1.1c1-0.7,1.7-1.8,1.8-3.1c0-0.3,0-0.7,0.2-1c0.4-0.8,1.6-0.7,2.6-0.7
			c1.8-0.1,3.3-1.3,5.1-1.6c2.5-0.4,5,1.1,7.6,1.1c0.7,0,1.4,0,2,0.2C52.9,32.7,54.4,34,55.1,35.3"/>
		<path id="XMLID_11_" class="st12" d="M40.7,62.6c1.3,0,2.7-0.2,4,0.1c0.7,0.1,1.4,0.3,2.1,0.4c0.7,0.1,1.5-0.1,2-0.6
			c0.2-0.2,0.4-0.5,0.7-0.6c0.2-0.1,0.5-0.1,0.8,0c0-0.1,0-0.1,0-0.2c-0.1-0.1-0.2-0.2-0.3-0.3c-1.1-0.8-2.7,0-3.9-0.6
			c-0.4-0.2-0.7-0.5-1.1-0.7s-0.9-0.4-1.2-0.1c-0.2,0.1-0.3,0.3-0.5,0.5c-0.4,0.4-1.1,0.4-1.7,0.3c-0.6-0.1-1.3-0.5-1.6-1
			c-0.3-0.6-0.2-1.4,0.4-1.7c-0.1-0.3-0.5-0.5-0.9-0.4c-0.4,0-0.7,0.1-1-0.1c-0.3-0.2-0.3-0.7-0.2-1.1c0.3-1.5,1.4-3.1,0.6-4.5
			c-0.3-0.5-0.8-0.9-0.9-1.5c-0.1-0.4,0.1-0.9,0.2-1.3c0.1-0.4,0-1-0.4-1.2c-0.2-0.1-0.5-0.1-0.8-0.1c-0.7-0.1-1.1-0.9-1.1-1.5
			c0-0.7,0.4-1.3,0.7-1.9c0.4,0.2,0.8,0.4,1.2,0.5c0.6-0.8,1.5-1.3,2.5-1.6c0,0.6,0.8,1,1.4,0.8c0.6-0.2,1-0.7,1.4-1.2
			c0.2-0.3,0.4-0.7,0.5-1.1c0.2-1.1-0.9-2-1.9-2.3c-0.3-0.1-0.5-0.1-0.7,0.1c-0.1,0.1-0.2,0.3-0.3,0.5c-0.3,0.7-1.1,1.2-1.9,1.1
			c-0.8-0.1-1.5-0.7-1.5-1.5c0-0.6,0.4-1.2,1-1.5c0.5-0.3,1.2-0.4,1.8-0.3c-0.1-0.6,0-1.2,0.4-1.7c0.1,0.4,0.5,0.5,0.9,0.4
			c0.4-0.1,0.7-0.3,1.1-0.2c0.8,0.1,1.1,1.2,1.9,1.4c0.8,0.2,1.6-0.6,1.5-1.4c0-0.8-0.6-1.5-1.1-2.1c-0.3-0.3-0.6-0.6-0.7-0.9
			c-0.1-0.4,0.1-0.9,0.5-0.9c0.3,0,0.6,0.3,0.9,0.5c1.3,1.4,3.7,1.6,5.3,0.4c-0.3,0.4,0.1,1,0.6,1.2c0.5,0.2,1,0.2,1.4,0.6
			c0.2,0.2,0.3,0.4,0.4,0.6c0.4,0.4,1,0.4,1.4,0.1c0.2-0.1,0.3-0.2,0.4-0.3c-0.7-1.3-2.3-2.6-3.9-3.2c-0.6-0.2-1.3-0.2-2-0.2
			c-2.6-0.1-5.1-1.6-7.6-1.1c-1.8,0.3-3.3,1.5-5.1,1.6c-0.9,0-2.1-0.1-2.6,0.7c-0.2,0.3-0.2,0.7-0.2,1c-0.1,1.2-0.8,2.3-1.8,3.1
			c-0.5,0.4-1.1,0.6-1.5,1.1c-0.7,1-0.2,2.4-0.7,3.4c-0.2,0.4-0.4,0.7-0.6,1c-0.3,0.5-0.3,1.1-0.3,1.7c0,1-0.1,2.1,0,3.1
			c0.3,2.3,1.3,4.6,0.8,6.9c-0.1,0.3-0.2,0.7-0.2,1.1c0,1,1,1.7,1.9,2c0.9,0.3,1.9,0.4,2.8,0.9c1.4,0.9,2,2.7,3.4,3.6
			C38.5,62.5,39.6,62.6,40.7,62.6z"/>
		<path id="XMLID_6_" class="st13" d="M38.9,62.4c-0.5-0.3-1.1-0.7-1.1-1.2c0-0.3,0.1-0.5,0.1-0.8c0-0.3-0.3-0.6-0.5-0.8
			c-0.6-0.5-1.2-0.9-1.9-1.3c-0.3-0.2-0.7-0.3-0.9-0.6c-0.1-0.2-0.2-0.4-0.4-0.6c-0.4-0.4-1-0.2-1.5-0.4c-0.7-0.2-1-1-1.2-1.8
			c-0.3-0.9-0.6-1.9-0.4-2.9c0.1-0.4,0.2-0.7,0.2-1.1c0-0.7-0.7-1.3-1.4-1.3c0.8-1.1,0.1-2.6,0-3.9c0-0.7,0-1.3,0.2-1.9
			c0.5-2.1,1.6-4.1,3.2-5.7c0.3-0.3,0.6-0.6,0.8-0.9c0.2-0.4,0.3-0.9,0.5-1.3c0.2-0.4,0.5-0.8,1-0.8c0.2,0,0.4,0,0.5,0
			c0.7-0.1,0.5-1.3,1-1.9c0.5-0.7,1.5-0.4,2.3-0.5c1.4-0.1,2.6-1,4-1.2c0.3,0,0.5,0,0.8,0.1c0.4,0.2,0.5,0.6,0.9,0.8
			c0.5,0.4,1.3,0.2,1.9,0.6c0.2,0.2,0.4,0.4,0.6,0.6c0.8,0.5,1.8-0.4,2.6-0.2c0.2,0,0.3,0.1,0.5,0.2c0.7,0.4,1.3,1.1,1.6,1.8
			c0.1,0.2,0.1,0.3,0.3,0.4c0.2,0.1,0.4,0.1,0.6,0.1c0.7,0,1.5,0,2.1-0.4c0-0.1-0.1-0.2-0.1-0.2l0,0c-0.7-1.3-2.3-2.7-3.9-3.2
			c-0.6-0.2-1.3-0.2-2-0.2c-2.6-0.1-5.1-1.6-7.6-1.1c-1.8,0.3-3.3,1.5-5.1,1.6c-0.9,0-2.1-0.1-2.6,0.7c-0.2,0.3-0.2,0.7-0.2,1
			c-0.1,1.2-0.8,2.3-1.8,3.1c-0.5,0.4-1.1,0.6-1.5,1.1c-0.7,1-0.2,2.4-0.7,3.4c-0.2,0.4-0.4,0.7-0.6,1c-0.3,0.5-0.3,1.1-0.3,1.7
			c0,1-0.1,2.1,0,3.1c0.3,2.3,1.3,4.6,0.8,6.9c-0.1,0.3-0.2,0.7-0.2,1.1c0,1,1,1.7,1.9,2c0.9,0.3,1.9,0.4,2.8,0.9
			c1.4,0.9,2,2.7,3.4,3.6C38,62.2,38.4,62.3,38.9,62.4z"/>
		<path id="XMLID_4_" class="st14" d="M53.3,36.7c0.6,1.2,0.8,2.5,0.5,3.8c-0.2,0.7-0.5,1.3-1,1.8c-0.5,0.5-1.3,0.7-1.9,0.4
			c0.5,0.8,0.3,1.8,0.6,2.7c0.4,1.3,2,2,3.2,1.6c0.2-0.1,0.4-0.1,0.5-0.1c0.3,0.1,0.4,0.5,0.4,0.8c0.1,2.2-0.7,4.5-2.2,6.2
			c-0.1,0.1-0.3,0.3-0.4,0.2C53.1,54.1,53,54,53,54c-0.3-0.5-0.3-1.2-0.3-1.8S52.5,51,52,50.6c-0.7-0.5-1.7-0.2-2.5-0.5
			c-1-0.5-1.3-2-2.4-2.3c-0.5-0.1-1,0-1.5-0.2c1.1,0.7,1.2,2.5,2.4,3c-0.6,0.5-1.3,1-2,1.2c-0.3,0.1-0.6,0.2-0.9,0.2
			c-1.2,0.2-2.5,0.1-3.7-0.3c0.7,1.7,1.3,3.3,2,5c0.1,0.1,0.1,0.3,0.2,0.4c0.2,0.3,0.6,0.3,1,0.2c0.3-0.1,0.7-0.2,1-0.3
			c1.1-0.2,2.2,0.5,2.7,1.5c0.3,0.5,0.5,1.2,1.1,1.4c0.5,0.1,0.9-0.2,1.3-0.5c0.3-0.4,0.5-0.8,0.9-1.1c0.8-0.8,2.1-0.8,3-1.4
			c1-0.8,1.3-2.2,1.8-3.4c0.4-0.9,1-1.7,1.3-2.6c0.6-1.8-0.1-3.7,0.2-5.6c0.1-0.9,0.5-1.9,0.2-2.8c-0.3-0.7-0.9-1.2-1.4-1.8
			c-0.5-0.6-0.8-1.4-1.2-2.1c-0.5-0.8-1.8-2.1-2-1.9C53.3,36.5,53.2,36.6,53.3,36.7"/>
		<path id="XMLID_3_" class="st14" d="M39.4,39.7c-0.3-0.3-0.2-0.7-0.1-1.1c0.2-0.4,0.7-0.6,1-0.3c0.1,0.1,0.2,0.2,0.3,0.3
			c0.2,0.1,0.3,0,0.5,0c0.4-0.1,0.8-0.2,1.3-0.3c0.5-0.1,1-0.3,1.5-0.1c0.7,0.3,0.9,1.4,1.6,1.8c0.2,0.1,0.4,0.2,0.6,0.3
			c0.4,0.2,0.7,0.7,0.7,1.2c0,0.5-0.2,1-0.6,1.3c-0.1,0.1-0.3,0.2-0.4,0.4c-0.4,0.5,0,1.2-0.1,1.9c0,0.4-0.2,0.7-0.4,1
			c-0.5,0.7-0.9,1.4-1.5,2c-0.3,0.3-0.6,0.5-1,0.6c-0.4,0.1-0.8,0-1.1-0.3c-0.2-0.3-0.2-0.6-0.4-1c-0.1-0.3-0.4-0.7-0.7-0.6
			c-0.2,0-0.3,0.2-0.5,0.3c-0.6,0.4-1.5,0.3-2.2,0.1c-0.1,0-0.2-0.1-0.3-0.1c-0.2-0.1-0.2-0.4-0.1-0.6c0.1-0.4,0.5-0.7,0.9-0.9
			c0.8-0.5,1.7-0.9,2.7-0.7c0.5,0.1,1,0.5,1.5,0.3c0.2-0.1,0.3-0.2,0.5-0.4c0.4-0.4,0.8-0.8,1.1-1.2c0.4-0.4,0.7-0.8,0.9-1.3
			c0.2-0.5,0.1-1.1-0.4-1.4c-0.3-0.2-0.6-0.2-0.9-0.4c-0.4-0.2-0.6-0.5-0.9-0.8c-0.7-0.5-1.8-0.5-2.4,0.2c-0.2,0.2-0.3,0.4-0.6,0.5
			C39.8,40.1,39.5,40,39.4,39.7"/>
	</g>
</g>
</svg>
