<?xml version="1.0" encoding="utf-8"?>
<!-- Generator: Adobe Illustrator 19.0.0, SVG Export Plug-In . SVG Version: 6.00 Build 0)  -->
<svg version="1.0" id="圖層_1" xmlns="http://www.w3.org/2000/svg" xmlns:xlink="http://www.w3.org/1999/xlink" x="0px" y="0px" width="300px" height="260px"
	 viewBox="0 0 300 260" style="enable-background:new 0 0 300 260;" xml:space="preserve">
<style type="text/css">
	.st0{fill:none;stroke:#333333;stroke-width:7;stroke-miterlimit:10;}
	.st1{fill:none;stroke:#333333;stroke-width:35;stroke-miterlimit:10;}
	.st2{fill:none;stroke:#FFFFFF;stroke-width:3;stroke-miterlimit:10;}
	.st3{fill:none;stroke:#FFFFFF;stroke-width:8;stroke-miterlimit:10;}
</style>
<g id="圖層_1_1_">
	<g id="selectionCell">
		<path id="XMLID_151_" class="st0" d="M210.1,257.5l-120.6-0.2c-9.4,0-18.2-4.9-22.8-12.8L6.5,143c-4.7-8-4.7-17.7,0-25.7
			L66.9,15.8C71.7,7.9,80.4,3,89.8,3l120.6,0.2c9.4,0,18.2,4.9,22.8,12.8l60.2,101.4c4.7,8,4.7,17.7,0,25.7L233,244.7
			C228.2,252.5,219.5,257.5,210.1,257.5z"/>
		<path id="XMLID_150_" class="st1" d="M201.8,240l-104-0.2c-8.1,0-15.7-4.3-19.7-11l-51.9-87.5c-4-6.9-4-15.3,0-22.2l52.1-87.5
			c4.1-6.9,11.6-11,19.8-11l104,0.2c8.1,0,15.7,4.3,19.7,11l51.9,87.5c4,6.9,4,15.3,0,22.2L221.6,229C217.5,235.7,210,240,201.8,240
			z"/>
		<path id="XMLID_352_" class="st2" d="M204.3,245.2l-109-0.2c-8.5,0-16.4-4.5-20.6-11.6l-54.4-91.7c-4.2-7.2-4.2-16,0-23.2
			l54.6-91.7c4.3-7.2,12.2-11.6,20.7-11.6l108.9,0.2c8.5,0,16.4,4.5,20.6,11.6l54.4,91.7c4.2,7.2,4.2,16,0,23.2L225,233.6
			C220.7,240.7,212.8,245.2,204.3,245.2z"/>
		<path id="XMLID_355_" class="st3" d="M199.8,235.7l-99.9-0.2c-7.8,0-15-4.1-18.9-10.6l-49.9-84.1c-3.9-6.6-3.9-14.7,0-21.3
			l50-84.1c4-6.6,11.2-10.6,19-10.6L200,25c7.8,0,15,4.1,18.9,10.6l49.9,84.1c3.9,6.6,3.9,14.7,0,21.3l-50,84.1
			C214.8,231.6,207.6,235.7,199.8,235.7z"/>
	</g>
</g>
</svg>
