<?xml version="1.0" encoding="utf-8"?>
<!-- Generator: Adobe Illustrator 19.0.0, SVG Export Plug-In . SVG Version: 6.00 Build 0)  -->
<svg version="1.0" xmlns="http://www.w3.org/2000/svg" xmlns:xlink="http://www.w3.org/1999/xlink" x="0px" y="0px" width="300px" height="260px"
	 viewBox="0 0 300 260" style="enable-background:new 0 0 300 260;" xml:space="preserve">
<style type="text/css">
	.st0{display:none;}
	.st1{display:inline;fill:#1D935C;}
	.st2{fill:none;stroke:#333333;stroke-width:20;stroke-miterlimit:10;}
	.st3{fill:none;stroke:#FFFFFF;stroke-width:8;stroke-miterlimit:10;}
</style>
<g id="圖層_20" class="st0">
	<rect id="XMLID_144_" class="st1" width="300" height="260"/>
</g>
<g id="圖層_1">
	<g id="selectionCell">
		<path id="XMLID_150_" class="st2" d="M201.1,238.5l-102.6-0.2c-8,0-15.5-4.2-19.4-10.9l-51.2-86.3c-4-6.8-4-15.1,0-21.9l51.4-86.3
			C83.3,26.1,90.7,22,98.8,22l102.6,0.2c8,0,15.5,4.2,19.4,10.9l51.2,86.3c4,6.8,4,15.1,0,21.9l-51.4,86.3
			C216.6,234.3,209.1,238.5,201.1,238.5z"/>
		<path id="XMLID_355_" class="st3" d="M199.8,235.7l-99.9-0.2c-7.8,0-15-4.1-18.9-10.6l-49.9-84.1c-3.9-6.6-3.9-14.7,0-21.3
			l50-84.1c4-6.6,11.2-10.6,19-10.6L200,25c7.8,0,15,4.1,18.9,10.6l49.9,84.1c3.9,6.6,3.9,14.7,0,21.3l-50,84.1
			C214.8,231.6,207.6,235.7,199.8,235.7z"/>
	</g>
</g>
</svg>
