<?xml version="1.0" encoding="utf-8"?>
<!-- Generator: Adobe Illustrator 19.0.0, SVG Export Plug-In . SVG Version: 6.00 Build 0)  -->
<svg version="1.0" id="speed" xmlns="http://www.w3.org/2000/svg" xmlns:xlink="http://www.w3.org/1999/xlink" x="0px" y="0px" width="300px" height="260px"
	 viewBox="0 0 300 260" style="enable-background:new 0 0 300 260;" xml:space="preserve">
<style type="text/css">
	.st0{fill:#484748;}
	.st1{fill:#FFFFFF;}
	.st2{fill:#5FC5F1;}
	.st3{display:none;fill:#5FC5F1;}
</style>
<g id="Calque_22">
	<g id="Calque_23">
		<path id="XMLID_134_" class="st0" d="M65.3,18.7l-48.9-0.9c-3.3-0.1-5.8,3-5,6.2l11.1,47.6c1,4.1,6.2,5.3,8.9,2l11.2-13.9
			c0.9-1.2,1.3-2.7,1-4.2l-1.3-6.8c-0.6-3.1,1.7-6,4.9-6.1l6.9-0.1c1.5,0,2.9-0.7,3.9-1.9L69.1,27C71.8,23.7,69.5,18.8,65.3,18.7z"
			/>
		<path id="XMLID_128_" class="st1" d="M58.5,25.1l-37.8-1.5c-1.8-0.1-3.2,1.6-2.8,3.4l9.4,36.7c0.6,2.2,3.4,2.8,4.8,1l5.7-7
			c0.5-0.6,0.7-1.3,0.6-2L36.8,42c-0.2-1.5,0.9-2.9,2.5-3l13.6-1.3c0.7-0.1,1.4-0.4,1.9-1l5.7-7.1C61.9,27.8,60.7,25.2,58.5,25.1z"
			/>
		<path id="XMLID_138_" class="st2" d="M32.1,64.7l0.4-0.4l-8.3-32.2c-0.5-1.8,0.9-3.5,2.8-3.4L60.1,30l0.4-0.4
			c1.4-1.8,0.2-4.4-2-4.5l-37.8-1.5c-1.8-0.1-3.2,1.6-2.8,3.4l9.4,36.7C27.8,65.8,30.7,66.4,32.1,64.7z"/>
		<path id="XMLID_6_" class="st3" d="M60.2,29.9L27,28.6c-1.8-0.1-3.2,1.6-2.8,3.4l8.3,32.2l3.8-4.7l-5.8-22.4
			c-0.5-1.8,0.9-3.5,2.8-3.4l23.2,0.9L60.2,29.9z"/>
		<path id="XMLID_4_" class="st3" d="M54.7,36.6l1.6-2l-23.2-0.9c-1.8-0.1-3.2,1.6-2.8,3.4l5.8,22.5l1.5-1.9c0.5-0.6,0.7-1.3,0.6-2
			l-1.4-12.7l-0.2-0.8c-0.5-1.8,0.9-3.5,2.8-3.4l1.2,0l12.2-1.2C53.6,37.6,54.3,37.2,54.7,36.6z"/>
	</g>
	<g id="Calque_23_-_copie">
		<path id="XMLID_7_" class="st0" d="M228.5,238.1l48.9,0.9c3.3,0.1,5.8-3,5-6.2l-11.1-47.6c-1-4.1-6.2-5.3-8.9-2L251.2,197
			c-0.9,1.2-1.3,2.7-1,4.2l1.3,6.8c0.6,3.1-1.7,6-4.9,6.1l-6.9,0.1c-1.5,0-2.9,0.7-3.9,1.9l-11.2,13.9
			C222,233.1,224.3,238,228.5,238.1z"/>
		<path id="XMLID_5_" class="st1" d="M235.3,231.7l37.8,1.5c1.8,0.1,3.2-1.6,2.8-3.4l-9.4-36.7c-0.6-2.2-3.4-2.8-4.8-1l-5.7,7
			c-0.5,0.6-0.7,1.3-0.6,2l1.5,13.7c0.2,1.5-0.9,2.9-2.5,3l-13.6,1.3c-0.7,0.1-1.4,0.4-1.9,1l-5.7,7.1
			C231.9,229,233,231.7,235.3,231.7z"/>
		<path id="XMLID_3_" class="st2" d="M261.7,192.1l-0.4,0.4l8.3,32.2c0.5,1.8-0.9,3.5-2.8,3.4l-33.2-1.3l-0.4,0.4
			c-1.4,1.8-0.2,4.4,2,4.5l37.8,1.5c1.8,0.1,3.2-1.6,2.8-3.4l-9.4-36.7C265.9,191,263.1,190.4,261.7,192.1z"/>
		<path id="XMLID_2_" class="st3" d="M233.6,226.9l33.2,1.3c1.8,0.1,3.2-1.6,2.8-3.4l-8.3-32.2l-3.8,4.7l5.8,22.4
			c0.5,1.8-0.9,3.5-2.8,3.4l-23.2-0.9L233.6,226.9z"/>
		<path id="XMLID_1_" class="st3" d="M239,220.2l-1.6,2l23.2,0.9c1.8,0.1,3.2-1.6,2.8-3.4l-5.8-22.5l-1.5,1.9
			c-0.5,0.6-0.7,1.3-0.6,2l1.4,12.7l0.2,0.8c0.5,1.8-0.9,3.5-2.8,3.4l-1.2,0l-12.2,1.2C240.2,219.2,239.5,219.6,239,220.2z"/>
	</g>
</g>
</svg>
