<?xml version="1.0" encoding="utf-8"?>
<!-- Generator: Adobe Illustrator 19.0.0, SVG Export Plug-In . SVG Version: 6.00 Build 0)  -->
<svg version="1.0" xmlns="http://www.w3.org/2000/svg" xmlns:xlink="http://www.w3.org/1999/xlink" x="0px" y="0px" width="300px" height="260px"
	 viewBox="0 0 300 260" style="enable-background:new 0 0 300 260;" xml:space="preserve">
<style type="text/css">
	.st0{display:none;}
	.st1{display:inline;fill:#1D935C;}
	.st2{display:inline;fill:none;stroke:#68C7F1;stroke-width:7;stroke-miterlimit:10;}
	.st3{fill:none;stroke:#FFFFFF;stroke-width:7;stroke-miterlimit:10;}
</style>
<g id="圖層_20" class="st0">
	<rect id="XMLID_144_" class="st1" width="300" height="260"/>
</g>
<g id="right" class="st0">
	<path id="XMLID_7_" class="st2" d="M247.8,59.1h-9v-4.7c0-2.7-2.3-4.9-5.1-4.9H204c-2.8,0-5.1,2.2-5.1,4.9l0,6.3h-98v-6.1
		c0-2.7-2.3-4.9-5.1-4.9H76.7H66.1c-0.3,0-0.6,0-1,0.1c0,0-0.1,0-0.1,0c-0.3,0.1-0.5,0.1-0.8,0.2c-0.1,0-0.1,0.1-0.2,0.1
		c-0.2,0.1-0.4,0.2-0.6,0.3c-0.1,0.1-0.2,0.1-0.3,0.2c-0.1,0.1-0.3,0.2-0.4,0.3c-0.1,0.1-0.2,0.2-0.3,0.3l0,0l0,0
		c-0.8,0.9-1.4,2-1.4,3.3l0,4.6h-9c-2.2,0-4,1.6-4,3.6v134c0,1.9,1.8,3.6,4,3.6h9l0,4.7c-0.1,1.2,0.4,2.4,1.4,3.4
		c0.6,0.6,1.5,1.1,2.3,1.3l0,0c0,0,0,0,0,0c0.2,0.1,0.4,0.1,0.6,0.1c0.3,0,0.5,0.1,0.8,0.1h29.6c2.8,0,5.1-2.2,5.1-4.9v-6.2h3.3
		h12.2v-4.5h17.9v4.5h35.6v-4.5h17.8v4.5h8.9h2.3l0,6c-0.1,1.2,0.4,2.4,1.4,3.4c0.7,0.7,1.5,1.1,2.4,1.4l0,0h0
		c0.2,0,0.3,0.1,0.5,0.1c0.3,0,0.5,0.1,0.8,0.1h28.6h1c2.8,0,5.1-2.2,5.1-4.9v-4.7h9.2c2.2,0,4-1.6,3.9-3.7V62.7
		C251.8,60.8,250,59.1,247.8,59.1z"/>
</g>
<g id="right_-_copie">
	<path id="XMLID_1_" class="st3" d="M247.8,59.1h-9v-4.7c0-2.7-2.3-4.9-5.1-4.9H204c-2.8,0-5.1,2.2-5.1,4.9l0,6.3h-98v-6.1
		c0-2.7-2.3-4.9-5.1-4.9H76.7H66.1c-0.3,0-0.6,0-1,0.1c0,0-0.1,0-0.1,0c-0.3,0.1-0.5,0.1-0.8,0.2c-0.1,0-0.1,0.1-0.2,0.1
		c-0.2,0.1-0.4,0.2-0.6,0.3c-0.1,0.1-0.2,0.1-0.3,0.2c-0.1,0.1-0.3,0.2-0.4,0.3c-0.1,0.1-0.2,0.2-0.3,0.3l0,0l0,0
		c-0.8,0.9-1.4,2-1.4,3.3l0,4.6h-9c-2.2,0-4,1.6-4,3.6v134c0,1.9,1.8,3.6,4,3.6h9l0,4.7c-0.1,1.2,0.4,2.4,1.4,3.4
		c0.6,0.6,1.5,1.1,2.3,1.3l0,0c0,0,0,0,0,0c0.2,0.1,0.4,0.1,0.6,0.1c0.3,0,0.5,0.1,0.8,0.1h29.6c2.8,0,5.1-2.2,5.1-4.9v-6.2h3.3
		h12.2v-4.5h17.9v4.5h35.6v-4.5h17.8v4.5h8.9h2.3l0,6c-0.1,1.2,0.4,2.4,1.4,3.4c0.7,0.7,1.5,1.1,2.4,1.4l0,0h0
		c0.2,0,0.3,0.1,0.5,0.1c0.3,0,0.5,0.1,0.8,0.1h28.6h1c2.8,0,5.1-2.2,5.1-4.9v-4.7h9.2c2.2,0,4-1.6,3.9-3.7V62.7
		C251.8,60.8,250,59.1,247.8,59.1z"/>
</g>
</svg>
