<svg version="1.0" xmlns="http://www.w3.org/2000/svg" width="300" height="260" style="enable-background:new 0 0 300 260" xml:space="preserve"><style>.st0{display:none}.st2{display:inline;fill:#ed1c24}</style><g id="Calque_3_-_copie"><path id="XMLID_12_" d="M207.1 154.2h-4.4c-6.4 0-11.6-5.2-11.6-11.6l.6-37.2c0-6.4-5.2-11.6-11.6-11.6H121c-6.4 0-11.6 5.2-11.6 11.6l-.6 37.2c0 6.4-5.2 11.6-11.6 11.6h-4.4c-6.4 0-11.6 6.1-11.6 12.5 0 3.4 1.5 6.6 4 8.8l57.1 49c4.3 3.7 10.7 3.7 15.1 0l57.1-49c2.6-2.2 4-5.4 4-8.8.2-6.4-5-12.5-11.4-12.5zm1 21.6-51.4 44.1c-3.9 3.3-9.6 3.3-13.5 0l-51.4-44.1c-2.3-2-3.6-4.9-3.6-7.9 0-5.7 4.7-10.4 10.4-10.4h4c5.7 0 10.4-4.7 10.4-10.4v-38c0-5.7 4.7-10.4 10.4-10.4h53.2c5.7 0 10.4 4.7 10.4 10.4v38c0 5.7 4.7 10.4 10.4 10.4h4c5.7 0 10.4 4.7 10.4 10.4 0 3-1.4 5.9-3.7 7.9z" style="fill:#fcc79a;stroke:#fff;stroke-miterlimit:10"/><path id="XMLID_7_" d="M187 147.1v-38c0-5.7-4.7-10.4-10.4-10.4h-53.2c-5.7 0-10.4 4.7-10.4 10.4v38c0 5.7-4.7 10.4-10.4 10.4h-4c-5.7 0-10.4 4.7-10.4 10.4 0 3 1.3 5.9 3.6 7.9l51.4 44.1c3.9 3.3 9.6 3.3 13.5 0l51.4-44.1c2.3-2 3.6-4.9 3.6-7.9 0-5.7-4.7-10.4-10.4-10.4h-4c-5.7 0-10.3-4.7-10.3-10.4z" style="opacity:.75;fill:#ed1c24"/><radialGradient id="XMLID_8_" cx="150" cy="160.531" r="56.705" gradientUnits="userSpaceOnUse"><stop offset=".806" style="stop-color:#fff;stop-opacity:0"/><stop offset="1" style="stop-color:#fcf6b6;stop-opacity:.26"/></radialGradient><radialGradient id="XMLID_9_" cx="150" cy="160.531" r="57.205" gradientUnits="userSpaceOnUse"><stop offset=".806" style="stop-color:#fff;stop-opacity:0"/><stop offset="1" style="stop-color:#fcf6b6;stop-opacity:0"/></radialGradient><path id="XMLID_4_" d="M183.9 148.2v-34.9c0-5.3-4.3-9.5-9.5-9.5h-48.8c-5.3 0-9.5 4.3-9.5 9.5v34.9c0 5.3-3.6 12.3-8.9 12.3h-3.7c-5.3 0-10.2 1.5-10.2 6.8 0 2.8 1.2 5.4 3.3 7.2l47.1 40.5c3.6 3.1 8.8 3.1 12.4 0l47.1-40.5c2.1-1.8 3.3-4.5 3.3-7.2 0-5.3-3.6-6.8-8.9-6.8h-3.7c-5.1 0-10-7-10-12.3z" style="fill:url(#XMLID_8_);stroke:url(#XMLID_9_);stroke-miterlimit:10"/><ellipse id="XMLID_5_" transform="rotate(-42.71 129.454 190.328)" cx="129.5" cy="190.3" rx="4.1" ry="8.9" style="opacity:.15;fill:#fff"/></g></svg>