<svg version="1.0" xmlns="http://www.w3.org/2000/svg" width="300" height="260" style="enable-background:new 0 0 300 260" xml:space="preserve"><style>.st1{fill:#3a2d24}.st1,.st2{opacity:.25}.st3{fill:#3a2d24}</style><g id="Layer_3"><path id="XMLID_1_" d="M112.3 66.7s-9.3-37.7 40-29.3 41.3 32.3 41.3 32.3 39 58.3.5 77l-18.8 73.5s-3.5 11.8-18.7 7.5c-14.5-4.1 4.7-72.7 4.7-72.7s-6.7 17.3-22.4 15.7c-15.7-1.7-16.3-16.3-14.7-27 0 0-3.3 13.6-1 16.9 0 0-31 3.1-23.3-33.6 0 0-2.2 10.2-2.3 17 .1 0-33.3-33 14.7-77.3z" style="fill:#e7c3af"/><path id="XMLID_5_" class="st1" d="M193.7 69.7s8-24-41.3-32.3c-15.4-2.6-25-.7-31.1 3.1 2 .4-4.5 3.7-2.3 3.1 18.5-4.9 56.9 2.3 67.6 17.6 3 4.3-2.1 8.1-1.2 9.6 6.7 11.4 14.1 21.1 17.5 35.4 2.6 11.3 2.4 22.4 3.7 29.8 15.2-24.2-12.9-66.3-12.9-66.3z"/><g id="XMLID_7_" class="st2"><path id="XMLID_9_" class="st3" d="M97.7 144c.1-2.8.5-6.1.9-9.1-5.1-9.8-8.7-19.7-11.3-28.8-4.6 23.1 10.4 37.9 10.4 37.9z"/></g><g id="XMLID_4_" class="st2"><path id="XMLID_6_" class="st3" d="M123 159.9c-.6-2.8-.9-2.2-2.2-4.9-13.7-1.9-16.7-14.3-23.9-20.5 3.9 28.7 26.1 25.4 26.1 25.4z"/><path id="XMLID_12_" class="st3" d="M142.7 171.3c-.6-2.8 5.9.4 4.7-2.3-13.7-1.9-16.7-14.3-23.9-20.5 3.8 28.6 19.2 22.8 19.2 22.8z"/></g><path id="XMLID_10_" class="st1" d="M113.4 67.1c-10.5 9.8-18.5 19-22.3 27.4 10.5-8.5 19.3-21 49.4-17 13.2 1.7 2.4-7.2-11.9-7.9-25.2-1.2-5.6-33.8-12.8-25.9-11.2 12.5.2 23.8-2.4 23.4z"/><path id="XMLID_16_" class="st1" d="M182.9 157.6c-10.8 47.3-4.6 75.3-30.2 65.6.9 2.3 2.2 3.9 4 4.5 15.2 4.3 18.7-7.5 18.7-7.5l19.4-76c-3.6-1.1-9.9 4.4-11.9 13.4z"/><path id="XMLID_2_" d="M112.3 66.7s-9.3-37.7 40-29.3 41.3 32.3 41.3 32.3 39 58.3.5 77l-18.8 73.5s-3.5 12-18.7 7.5c-14.5-4.3 4.7-72.7 4.7-72.7s-6.7 17.3-22.4 15.7c-15.7-1.7-16.3-16.3-14.7-27 0 0-3.3 13.6-1 16.9 0 0-31 3.1-23.3-33.6 0 0-2.2 10.2-2.3 17 .1 0-33.3-33 14.7-77.3z" style="fill:none;stroke:#3a2d24;stroke-width:6;stroke-miterlimit:10"/><path id="XMLID_3_" d="M162.4 221.5h-.3c-3.1-.5-5.2-3.3-4.7-6.4l.6-3.7c.5-3.1 2.9-3.5 5.9-3 3.1.5 5.9 1.6 5.4 4.7l-.6 3.7c-.4 3-3.3 5.2-6.3 4.7z" style="fill:#edddd8"/></g></svg>