<?xml version="1.0" encoding="utf-8"?>
<!-- Generator: Adobe Illustrator 19.0.0, SVG Export Plug-In . SVG Version: 6.00 Build 0)  -->
<svg version="1.0" xmlns="http://www.w3.org/2000/svg" xmlns:xlink="http://www.w3.org/1999/xlink" x="0px" y="0px" width="300px" height="260px"
	 viewBox="0 0 300 260" style="enable-background:new 0 0 300 260;" xml:space="preserve">
<style type="text/css">
	.st0{display:none;}
	.st1{display:inline;fill:#1D935C;}
	.st2{fill:url(#XMLID_2_);}
	.st3{display:none;fill:none;stroke:#094256;stroke-width:7;stroke-miterlimit:10;}
	.st4{display:none;fill:none;stroke:#2193BA;stroke-width:35;stroke-miterlimit:10;}
	.st5{fill:none;stroke:#47AACC;stroke-width:3;stroke-miterlimit:10;}
	.st6{display:none;fill:none;stroke:#47AACC;stroke-width:8;stroke-miterlimit:10;}
	.st7{display:inline;fill:#27AAE1;}
	.st8{display:inline;fill:#1C75BC;}
	.st9{display:inline;fill:none;stroke:#FFFFFF;stroke-width:5;stroke-miterlimit:10;}
</style>
<g id="圖層_20" class="st0">
	<rect id="XMLID_144_" class="st1" width="300" height="260"/>
</g>
<g id="圖層_1">
	<g id="selectionCell_1_">
		<radialGradient id="XMLID_2_" cx="149.9427" cy="130.2475" r="137.4346" gradientUnits="userSpaceOnUse">
			<stop  offset="0" style="stop-color:#2484C6"/>
			<stop  offset="1" style="stop-color:#2484C6;stop-opacity:0"/>
		</radialGradient>
		<path id="XMLID_395_" class="st2" d="M210.1,257.5l-120.6-0.2c-9.4,0-18.2-4.9-22.8-12.8L6.5,143c-4.7-8-4.7-17.7,0-25.7
			L66.9,15.8C71.7,7.9,80.4,3,89.8,3l120.6,0.2c9.4,0,18.2,4.9,22.8,12.8l60.2,101.4c4.7,8,4.7,17.7,0,25.7L233,244.7
			C228.2,252.5,219.5,257.5,210.1,257.5z"/>
		<path id="XMLID_400_" class="st3" d="M210.1,257.5l-120.6-0.2c-9.4,0-18.2-4.9-22.8-12.8L6.5,143c-4.7-8-4.7-17.7,0-25.7
			L66.9,15.8C71.7,7.9,80.4,3,89.8,3l120.6,0.2c9.4,0,18.2,4.9,22.8,12.8l60.2,101.4c4.7,8,4.7,17.7,0,25.7L233,244.7
			C228.2,252.5,219.5,257.5,210.1,257.5z"/>
		<path id="XMLID_16_" class="st4" d="M201.8,240l-104-0.2c-8.1,0-15.7-4.3-19.7-11l-51.9-87.5c-4-6.9-4-15.3,0-22.2l52.1-87.5
			c4.1-6.9,11.6-11,19.8-11l104,0.2c8.1,0,15.7,4.3,19.7,11l51.9,87.5c4,6.9,4,15.3,0,22.2L221.6,229C217.5,235.7,210,240,201.8,240
			z"/>
		<path id="XMLID_15_" class="st5" d="M204.3,245.2L95.3,245c-8.5,0-16.4-4.5-20.6-11.6l-54.4-91.7c-4.2-7.2-4.2-16,0-23.2
			l54.6-91.7c4.3-7.2,12.2-11.6,20.7-11.6l108.9,0.2c8.5,0,16.4,4.5,20.6,11.6l54.4,91.7c4.2,7.2,4.2,16,0,23.2L225,233.6
			C220.7,240.7,212.8,245.2,204.3,245.2z"/>
		<path id="XMLID_12_" class="st6" d="M199.8,235.7l-99.9-0.2c-7.8,0-15-4.1-18.9-10.6l-49.9-84.1c-3.9-6.6-3.9-14.7,0-21.3l50-84.1
			c4-6.6,11.2-10.6,19-10.6L200,25c7.8,0,15,4.1,18.9,10.6l49.9,84.1c3.9,6.6,3.9,14.7,0,21.3l-50,84.1
			C214.8,231.6,207.6,235.7,199.8,235.7z"/>
	</g>
	<g id="patrol_1_" class="st0">
		<path id="XMLID_380_" class="st7" d="M230.3,155.9l-15.6-12.5c-7.1,29.5-33.7,51.5-65.4,51.5c-37.2,0-67.3-30.1-67.3-67.3H54.1
			c0,52.6,42.6,95.2,95.2,95.2c46.3,0,84.8-33,93.4-76.8L230.3,155.9z"/>
		<path id="XMLID_379_" class="st8" d="M242.7,146l23.1-18.4H244c0-52.6-42.6-95.2-95.2-95.2c-46.3,0-84.8,33-93.4,76.8l12.4-9.9
			l15.6,12.5c7.1-29.5,33.7-51.5,65.4-51.5c37.2,0,67.3,30.1,67.3,67.3h-21.3l19.8,15.9l15.6,12.5L242.7,146z"/>
		<polygon id="XMLID_360_" class="st7" points="55.4,109.1 32.4,127.6 53.6,127.6 81.5,127.6 103.2,127.6 83.4,111.7 67.8,99.2 		
			"/>
		<path id="XMLID_396_" class="st9" d="M244,127.6c0-52.6-42.6-95.2-95.2-95.2c-46.3,0-84.8,33-93.4,76.8l-23.1,18.4h21.3h27.9h21.7
			l-19.8-15.9c7.1-29.5,33.7-51.5,65.4-51.5c37.2,0,67.3,30.1,67.3,67.3h-21.3l19.8,15.9c-7.1,29.5-33.7,51.5-65.4,51.5
			c-37.2,0-67.3-30.1-67.3-67.3H54.1c0,52.6,42.6,95.2,95.2,95.2c46.3,0,84.8-33,93.4-76.8l23.1-18.4H244z"/>
	</g>
</g>
</svg>
