<?xml version="1.0" encoding="utf-8"?>
<!-- Generator: Adobe Illustrator 19.0.0, SVG Export Plug-In . SVG Version: 6.00 Build 0)  -->
<svg version="1.0" id="圖層_1" xmlns="http://www.w3.org/2000/svg" xmlns:xlink="http://www.w3.org/1999/xlink" x="0px" y="0px" width="300px" height="260px"
	 viewBox="0 0 300 260" style="enable-background:new 0 0 300 260;" xml:space="preserve">
<style type="text/css">
	.st0{fill:#414042;}
	.st1{fill:#FFFFFF;}
</style>
<g id="selection">
	<path id="XMLID_8_" class="st0" d="M150,7.7C82.4,7.7,27.7,62.4,27.7,130S82.4,252.3,150,252.3S272.3,197.6,272.3,130
		S217.6,7.7,150,7.7z M150,231.1c-55.8,0-101.1-45.3-101.1-101.1C48.9,74.2,94.2,28.9,150,28.9S251.1,74.2,251.1,130
		C251.1,185.8,205.8,231.1,150,231.1z"/>
	<path id="XMLID_9_" class="st1" d="M150,20.5c-60.5,0-109.5,49-109.5,109.5c0,60.5,49,109.5,109.5,109.5s109.5-49,109.5-109.5
		C259.5,69.5,210.5,20.5,150,20.5z M150,233.3c-57.1,0-103.3-46.3-103.3-103.3C46.7,72.9,92.9,26.7,150,26.7S253.3,72.9,253.3,130
		C253.3,187.1,207.1,233.3,150,233.3z"/>
</g>
</svg>
