<?xml version="1.0" encoding="utf-8"?>
<!-- Generator: Adobe Illustrator 19.0.0, SVG Export Plug-In . SVG Version: 6.00 Build 0)  -->
<svg version="1.0" xmlns="http://www.w3.org/2000/svg" xmlns:xlink="http://www.w3.org/1999/xlink" x="0px" y="0px" width="300px" height="260px"
	 viewBox="0 0 300 260" style="enable-background:new 0 0 300 260;" xml:space="preserve">
<style type="text/css">
	.st0{display:none;}
	.st1{display:inline;fill:#1D935C;}
	.st2{display:inline;fill:none;stroke:#69C7F1;stroke-width:11;stroke-miterlimit:10;}
	.st3{fill:none;stroke:#FFFFFF;stroke-width:11;stroke-miterlimit:10;}
</style>
<g id="圖層_20" class="st0">
	<rect id="XMLID_144_" class="st1" width="300" height="260"/>
</g>
<g id="圖層_1">
	<g id="selectionCell_1_" class="st0">
		<path id="XMLID_12_" class="st2" d="M206.9,250.8l-114.3-0.2c-8.9,0-17.2-4.7-21.6-12.1l-57-96.2c-4.4-7.6-4.4-16.8,0-24.4
			l57.2-96.2C75.7,14.3,84,9.7,92.9,9.7l114.3,0.2c8.9,0,17.2,4.7,21.6,12.1l57,96.2c4.4,7.6,4.4,16.8,0,24.4l-57.2,96.2
			C224.1,246.1,215.9,250.8,206.9,250.8z"/>
	</g>
	<g id="selectionCell_2_">
		<path id="XMLID_1_" class="st3" d="M206.9,250.8l-114.3-0.2c-8.9,0-17.2-4.7-21.6-12.1l-57-96.2c-4.4-7.6-4.4-16.8,0-24.4
			l57.2-96.2C75.7,14.3,84,9.7,92.9,9.7l114.3,0.2c8.9,0,17.2,4.7,21.6,12.1l57,96.2c4.4,7.6,4.4,16.8,0,24.4l-57.2,96.2
			C224.1,246.1,215.9,250.8,206.9,250.8z"/>
	</g>
</g>
</svg>
