<svg version="1.0" xmlns="http://www.w3.org/2000/svg" width="300" height="260" style="enable-background:new 0 0 300 260" xml:space="preserve"><style>.st0{display:none}.st2{display:inline}.st4,.st5{stroke-miterlimit:10}.st4{fill:#fff;stroke:#b4b4b5;stroke-width:12}.st5{stroke:#e8e8e8;stroke-width:6}.st5,.st6{fill:#fff}.st7{fill:#b5b5b6}.st8{fill:none;stroke:#b4b4b5;stroke-width:5;stroke-miterlimit:10}.st9{fill:#eaeaea}.st11{fill:#e5e5e5}.st12{fill:#e3e5e4}.st14,.st15,.st17{display:inline;fill:#e5e5e5}.st15,.st17{fill:#fff}.st17{fill:#b5b5b6}.st21,.st22{fill:#ededed}.st22{display:inline}.st27{display:none;fill:#b5b5b6}.st30{fill:#c6c6c5}</style><g id="cloud2"><path id="XMLID_22_" d="M106.1 179.3s-34 6.5-43.7-15.2 10.5-43 10.5-43S52.4 97.6 68.7 77s48.3-9.2 48.3-9.2 8.4-28.6 42.8-24.4S190.1 73 190.1 73s38.6-5.3 47.9 22.9-13.9 39.1-13.9 39.1 18.9 21.8-1.3 51.7S177 199 177 199s-10.9 16.7-39.9 13.8-31-33.5-31-33.5z" style="fill:#f4f4f4;stroke:#b5b5b6;stroke-width:5;stroke-miterlimit:10"/><path id="XMLID_23_" d="M106.1 179.3s-34 6.5-43.7-15.2 10.5-43 10.5-43S52.4 97.6 68.7 77s48.3-9.2 48.3-9.2 8.4-28.6 42.8-24.4S190.1 73 190.1 73s38.6-5.3 47.9 22.9-13.9 39.1-13.9 39.1 18.9 21.8-1.3 51.7S177 199 177 199s-10.9 16.7-39.9 13.8-31-33.5-31-33.5z" style="fill:#f4f4f4"/><path id="XMLID_27_" class="st21" d="M206.7 164.5s-19.7 18.7-34 16.6c-14.3-2.1-30.4-12.9-30.4-12.9s-27.4 9.2-41.1-1.2c-13.7-10.4-22.7-29.8-8.9-45.7 3.1-3.5 3-3.3 3-3.3s-8.9-14.5-1.8-27c15.8-27.9 37.6-14 38.7-2 3.5-1.7 34.2-26.6 56.7-2 7.7 8.5 17.8 34 11.2 37.5 0-.1 21.8 18.9 6.6 40z"/><path id="XMLID_21_" class="st6" d="M99.6 136.7s2.4-20.6 14-27c8.9-4.9 22.2-.9 22.2-.9s4.4-15.6 16.5-16c15.2-.5 27 3.1 26.5 17.9-.1 3.3.1 3.7.1 3.7s13.7 2.5 15.3 12.5c3.7 22.3-23.1 29-29.1 21.9-1.1 2.5-1.7 12.8-18 11.2-8-.8-17.7-12-16.6-14.7.1 0-29.9 9.7-30.9-8.6z"/><path id="XMLID_17_" class="st7" d="M168.6 141.7s4.9 7.6 11.3 3.8 6-9.5 6-9.5-2.5 7.2-8.1 8.3c-5.7 1-9.2-2.6-9.2-2.6z"/><path id="XMLID_25_" class="st7" d="M115.4 186.4s6.3 19.3 23.8 19.4c20.5.1 29.3-11.9 29.3-11.9s-15.9 10.9-32.5 9.3c-13.3-1.2-20.6-16.8-20.6-16.8z"/><path id="XMLID_26_" class="st7" d="M108.4 75.1s-17.8-11.5-27.9 2.8-3.6 26.2-3.6 26.2-3-20.2 8-27.8 23.5-1.2 23.5-1.2z"/><path id="XMLID_28_" class="st7" d="M218.9 122.8s15.1-14.9 3.3-27.9c-11.7-13-24.8-9.2-24.8-9.2s19.6 2 24.6 14.4-3.1 22.7-3.1 22.7z"/><path id="XMLID_29_" class="st7" d="M172.1 74.6s2.8-21-14.4-24.1-25.2 7.9-25.2 7.9 18.2-9.7 29.8-2.9c11.6 6.8 9.8 19.1 9.8 19.1z"/></g></svg>