<svg version="1.0" id="Calque_1" xmlns="http://www.w3.org/2000/svg" x="0" y="0" width="300" height="260" style="enable-background:new 0 0 300 260" xml:space="preserve"><style>.st0{fill:#adadad}.st1{fill:#d1d1d1}.st4{display:none}.st5,.st6{display:inline}.st6{fill:none;stroke:#3a3a3a;stroke-width:16;stroke-miterlimit:10}.st7,.st8,.st9{display:inline;fill:#3a3a3a}.st8,.st9{fill:#adadad}.st9{fill:#d1d1d1}</style><g id="dust1"><path id="XMLID_9_" class="st0" d="M71.7 152.3s-30.1-24.1-10.2-62.5S92.4 60 105.2 69.5c0 0 6.8-20 32-22.6 25.2-2.6 25.6 7.2 25.6 7.2s34.3-18.8 52 3.4 3.8 34.6 3.8 34.6 43.3 17.3 24.9 47.5-31.3 56.1-54.6 42.9c0 0 .8 38.8-56.5 26.4s-62.2-19.3-60.7-56.6z"/><path id="XMLID_15_" class="st1" d="M88.2 147.5S64.3 128.4 80.1 98s24.5-23.6 34.6-16.1c0 0 5.4-15.8 25.4-17.9s20.3 5.7 20.3 5.7 27.1-14.9 41.2 2.7 3 27.4 3 27.4 34.3 13.7 19.7 37.6c-14.6 23.9-24.8 44.4-43.2 34 0 0 .6 30.7-44.7 20.9-45.5-9.9-49.3-15.3-48.2-44.8z"/><path id="XMLID_2_" d="M71.7 152.3s-30.1-24.1-10.2-62.5S92.4 60 105.2 69.5c0 0 6.8-20 32-22.6 25.2-2.6 25.6 7.2 25.6 7.2s34.3-18.8 52 3.4 3.8 34.6 3.8 34.6 43.3 17.3 24.9 47.5-31.3 56.1-54.6 42.9c0 0 .8 38.8-56.5 26.4s-62.2-19.3-60.7-56.6z" style="fill:none;stroke:#3a3a3a;stroke-width:16;stroke-miterlimit:10"/><path id="XMLID_8_" d="M109.9 133.1s-13.1-37.3 23-45.2c34.3-7.5 53.7 14.1 53.7 14.1s-27.3-22.5-57.5-3.9c-26.2 16.1-19.2 35-19.2 35z" style="fill:#3a3a3a"/></g></svg>