<svg version="1.0" id="Calque_1" xmlns="http://www.w3.org/2000/svg" x="0" y="0" viewBox="0 0 300 300" style="enable-background:new 0 0 300 300" xml:space="preserve"><style>.st1{opacity:.1;fill:#fff;enable-background:new}.st2{fill:#010202}.st4{fill:#009fe3}.st7{fill:none;stroke:#000;stroke-width:5;stroke-miterlimit:10}.st9{fill:#020304}.st11{opacity:.2;fill:#fff;enable-background:new}.st12{fill:#f4a69f}.st16,.st17{fill:#fff;stroke:#f4a69f;stroke-width:3;stroke-miterlimit:10}.st17{fill:#009fe3;stroke:#1568a4;stroke-width:2}</style><g id="Calque_12"><circle id="background" cx="152" cy="147.8" r="114.3"/><g id="backgroundEffect" style="opacity:.5"><g id="Calque_5_-_copie_2_"><path id="XMLID_51_" class="st1" d="M202.1 178.3c5.8-6.5 6.4-9.6 9.2-18.3h5.4c3.9 0 7.5-1.5 10.2-4-.7 1.6-1.6 3.2-2.5 4.8.9-1.6 1.7-3.3 2.5-4.9 1.1-1 2.1-2.3 2.8-3.6.4-.9.9-1.9 1.3-2.8 0-.1.1-.1.1-.1.2-.4.4-.8.5-1.3.1-.1.1-.3.1-.4.1-.4.4-.8.5-1.3.1-.1.1-.3.1-.4.1-.4.4-.8.5-1.3.1-.1.1-.2.1-.4.1-.4.3-.9.4-1.3 0-.1.1-.1.1-.2.7-2 1.3-12.5 1.7-14.6.1-.2.1-.4.1-.6.1-.4.1-.7.2-1 .1-.2.1-.5.1-.7.1-.3.1-.7.1-1 .1-.3.1-.6.1-.9.1-.3.1-.6.1-1 .1-.3.1-.6.1-1 .1-.3.1-.6.1-.9s.1-.7.1-1c0-.3.1-.6.1-.8 0-.4.1-.7.1-1.1 0-.3.1-.5.1-.8 0-.4.1-.8.1-1.3V113.5c0-.9 0-1.8-.1-2.7v-.6c-.1-.9-.1-1.7-.1-2.6v-.3c-.1-.8-.1-1.6-.3-2.5 0-.1 0-.2-.1-.3-.1-.9-.3-1.8-.4-2.7 0-.1 0-.2-.1-.3-.4-1.8-.7-3.6-1.3-5.4 0-.1 0-.1-.1-.1-.5-1.8-1.1-3.6-1.8-5.4-1.9-4.9-4.2-9.5-7.1-13.9l-.1-.1c-.4-.5-.7-1-1-1.5 0-.1-.1-.1-.1-.1-.4-.4-.7-1-1-1.4 0-.1-.1-.1-.1-.1-.4-.4-.7-1-1.1-1.4 0-.1-.1-.1-.1-.1-.4-.4-.7-1-1.1-1.4l-.1-.1c-.4-.4-.8-1-1.2-1.4V69c-4.3-4.9-9.4-9.3-15-13.1h-.1c-.5-.4-1.1-.7-1.6-1.1 0 0-.1 0-.1-.1-.5-.4-1.1-.7-1.7-1h-.1c-.6-.4-1.1-.7-1.7-1C186.4 45.3 170.7 41 154 41c-1.8 0-3.6.1-5.3.1h-.6c-1 .1-2 .1-3.1.2-.1 0-.4 0-.5.1-1 .1-2.1.2-3.1.4-1 .1-2.1.3-3.1.4-.1 0-.3.1-.5.1-1 .1-2 .4-3 .6-.1 0-.2.1-.4.1-2.1.4-4.1 1-6.1 1.5-.1 0-.2.1-.4.1l-3 .9c-.1 0-.1.1-.2.1-2 .7-4 1.4-6 2.2-.1 0-.1.1-.1.1-3 1.3-5.9 2.6-8.6 4.2h-.1c-2.8 1.6-5.5 3.2-8 5.1-6.9 4.6-12.8 10.4-17.7 16.9-.8 1.1-1.6 2.3-2.4 3.5-2.7 4.2-4.9 8.6-6.7 13.1 0 .1-.1.1-.1.2-.2.5-.4 1.1-.6 1.6 0 .1-.1.2-.1.3-.1.5-.4 1.1-.5 1.6 0 .1-.1.2-.1.3-.1.6-.4 1.2-.5 1.8 0 .1 0 .1-.1.1-.4 1.3-.7 2.7-1 4 0 .1 0 .1-.1.2-.1.6-.2 1.1-.3 1.7 0 .2-.1.4-.1.6-.1.4-.1.9-.2 1.4 0 .2-.1 9-.1 9.2-.1.4-.1.9-.1 1.3 0 .2-.1.5-.1.7-.1.4-.1.8-.1 1.3 0 .2-.1.5-.1.7 0 .4-.1.9-.1 1.4v2.7c0 .9 0 1.9.1 2.8v.6c.1.9.1 1.8.2 2.7v.2c.1.8.2 1.7.3 2.5 0 .1.1.3.1.5.1.9.3 1.8.4 2.7 0 .1.1.2.1.3.1.9.4 1.7.6 2.5 0 .1.1.1.1.3.2.9.4 1.8.7 2.7 0 .1.1.1.1.3.3.9.5 1.8.8 2.7.3.9.7 1.8 1 2.7 0 .1 0 .1.1.1.8 2.2 1.8 4.2 2.9 6.3 2.5 4.8 7.5 7.7 13.1 7.7h5.4c2.5 8.1 3.6 10.3 8.9 16.6-14.9 8-29.2 21.6-40.3 37.9C56.8 226.5 101 255 101 255h93.9s53.7-24.2 47.2-35.3c-10.3-17.4-24.4-32.5-40-41.4z"/></g></g><g id="Layer_6"><path id="XMLID_6_" class="st2" d="M234 223.1c-17.5-31.6-47.7-52.5-82.2-52.5-35.2 0-66.1 21.8-83.4 54.6l39.9 30h84.1l41.6-32.1z"/><radialGradient id="XMLID_24_" cx="151.292" cy="215.346" r="61.779" gradientUnits="userSpaceOnUse"><stop offset="0" style="stop-color:#cdbb00"/><stop offset="1" style="stop-color:#f28c10"/></radialGradient><path id="XMLID_49_" d="M229.1 226.9c-16-30.8-44.6-51.3-77.2-51.3-33.4 0-62.5 21.5-78.3 53.4l34.8 26.2h84.1l36.6-28.3z" style="fill:url(#XMLID_24_)"/><g id="Layer_7"><path id="XMLID_25_" class="st4" d="M129.5 178.9c-2.3 4.9-3.6 10.6-3.6 16.7 0 18.8 12.5 34 27.9 34 15.4 0 27.9-15.2 27.9-34 0-5.5-1.1-10.6-2.9-15.2-8.5-3.1-17.5-4.8-26.9-4.8-7.8-.1-15.3 1.1-22.4 3.3z"/><path id="XMLID_22_" class="st4" d="M108.5 188.6C94 198 81.9 212 73.5 229l11.6 8.7c8-2.6 15.6-8.6 20.5-17.2 6.2-10.7 6.9-22.7 2.9-31.9z"/><path id="XMLID_19_" class="st4" d="M196.6 189.6c-4.3 9.3-3.7 21.6 2.6 32.5 4.1 7 9.8 12.3 16.1 15.4l13.8-10.6c-8.1-15.5-19.2-28.3-32.5-37.3z"/></g><path id="XMLID_13_" d="M223 216.6c-16.6-25-42.3-41-71.1-41-32.8 0-61.6 20.8-77.6 51.9 31.6-17.3 84-34.2 148.7-10.9z" style="opacity:.1;fill:#fff"/><path id="XMLID_34_" d="M151.9 175.5c-28 0-53 15.1-69.7 38.9 30.4-14.7 76.1-26.9 131.4-10-16.2-17.9-37.9-28.9-61.7-28.9z" style="opacity:.18;fill:#fff"/><g id="Layer_7_copy"><path id="XMLID_12_" class="st7" d="M129.5 178.9c-2.3 4.9-3.6 10.6-3.6 16.7 0 18.8 12.5 34 27.9 34 15.4 0 27.9-15.2 27.9-34 0-5.5-1.1-10.6-2.9-15.2-8.5-3.1-17.5-4.8-26.9-4.8-7.8-.1-15.3 1.1-22.4 3.3z"/><path id="XMLID_11_" class="st7" d="M108.5 188.6C94 198 81.9 212 73.5 229l11.6 8.7c8-2.6 15.6-8.6 20.5-17.2 6.2-10.7 6.9-22.7 2.9-31.9z"/><path id="XMLID_4_" class="st7" d="M196.6 189.6c-4.3 9.3-3.7 21.6 2.6 32.5 4.1 7 9.8 12.3 16.1 15.4l13.8-10.6c-8.1-15.5-19.2-28.3-32.5-37.3z"/></g><path id="XMLID_14_" style="fill:none;stroke:#000;stroke-width:6;stroke-miterlimit:10" d="M153.8 229.5v25.7"/></g><g id="Calque_9_2_"><path id="XMLID_39_" class="st9" d="M215.1 165.9c5.5 0 10.5-3.1 12.9-8 4.7-9.4 7.4-19.9 7.4-30.8 0-41.1-36.8-74.5-82.1-74.5s-82 33.3-82 74.4c0 11 2.6 21.4 7.4 30.8 2.5 4.9 7.4 8 12.9 8l123.5.1z"/><radialGradient id="XMLID_35_" cx="153.339" cy="192.786" r="66.501" gradientTransform="matrix(1 0 0 -1 0 302)" gradientUnits="userSpaceOnUse"><stop offset="0" style="stop-color:#cdbb00"/><stop offset="1" style="stop-color:#f28c10"/></radialGradient><path id="XMLID_38_" d="M211.6 162.7c5.1 0 9.9-2.9 12.2-7.5 4.5-8.9 6.9-18.7 6.9-29.1 0-38.8-34.7-70.3-77.4-70.3S76 87.2 76 126.1c0 10.3 2.5 20.2 6.9 29.1 2.3 4.6 7.1 7.5 12.2 7.5h116.5z" style="fill:url(#XMLID_35_)"/><path id="XMLID_33_" class="st1" d="M187.3 81.4c36.7 20.6 49.1 48.8 31.6 82.1 17.7-33.6 15.8-72.5-25.4-95.8-37.2-21-80.1-9.3-105.2 20.2 25.1-29.3 61.7-27.5 99-6.5z"/><path id="XMLID_32_" class="st11" d="M192.4 75c36.7 20.6 44 55.2 26.5 88.5 17.7-33.6 15.8-72.5-25.4-95.8-37.2-21-80.1-9.3-105.2 20.2C113.4 58.6 155.1 54 192.4 75z"/></g><g id="expression"><g id="Calque_5_2_"><path id="XMLID_31_" class="st2" d="M212.6 142.8c0 35.6-26.6 64.4-59.2 64.4s-59.2-28.9-59.2-64.4c0-7.5 1.2-14.7 3.3-21.5 8.1-25 30.1-12 55.9-12 26.2 0 48.4-12.5 56.2 13.1 1.9 6.4 3 13.3 3 20.4z"/><path id="XMLID_30_" class="st12" d="M207.1 144.1c0 32.3-24.1 58.6-53.8 58.6s-53.8-26.2-53.8-58.6c0-6.8 1-13.4 3.1-19.5 7.4-22.8 27.3-10.9 50.7-10.9 23.7 0 43.9-11.3 51 11.9 1.9 5.7 2.8 12 2.8 18.5z"/><path id="XMLID_29_" d="M200.8 144.1c0 31.2-22.5 58.3-48.8 58.3s-46.2-27.1-46.2-58.3c0-6.6 1-12.9 2.7-18.8 6.5-21.9 24.1-8.3 44.8-8.3 21 0 38.8-13.2 45.1 9.2 1.6 5.7 2.4 11.6 2.4 17.9z" style="fill:#f4bbb8"/><path id="XMLID_10_" class="st12" d="M128.3 162.9h-9.7c-1.3 0-2.2-1-2.2-2.2 0-1.3 1-2.2 2.2-2.2h9.7c1.3 0 2.2 1 2.2 2.2.1 1.2-1 2.2-2.2 2.2z"/><path id="XMLID_9_" class="st12" d="M188.2 162.2h-9.7c-1.3 0-2.2-1-2.2-2.2 0-1.3 1-2.2 2.2-2.2h9.7c1.3 0 2.2 1 2.2 2.2.1 1.3-1 2.2-2.2 2.2z"/></g><path id="XMLID_8_" d="M162.9 179.5c-1.7 2.1-6.1 3.7-8.8 3.8-4.6.2-7.1-.9-8.8-2.9" style="fill:none;stroke:#010202;stroke-width:3;stroke-miterlimit:10"/><path id="XMLID_7_" class="st12" d="m155.9 189.1-6 .3c-1 .1-1.8-.7-1.9-1.7-.1-1 .7-1.8 1.7-1.9l6-.3c1-.1 1.8.7 1.9 1.7 0 1-.8 1.8-1.7 1.9z"/><path id="XMLID_23_" class="st12" d="m161 167-4 1.6c-2.7.8-6.9.3-8-1.1-3.4-3.1-2.4-5.9-1.5-6.3l5.9 4.7 6.3-2.2c.9-.4 1.9 0 2.3 1 .3.8-.2 1.9-1 2.3z"/><path id="XMLID_1_" d="M148.6 160.7s-.5 5.2 4.7 5.2 8.1-3 8.1-3" style="fill:none;stroke:#000;stroke-width:3;stroke-miterlimit:10"/><g id="Layer_10"><path id="XMLID_5_" class="st16" d="M121.3 139.1c1.8-2.5 6.3-4.2 9.3-4 6.3.3 12.7 4.9 12.6 9.3-.1 6.6-5.3 8-11.3 7.9-9.1 0-14-6.1-12-10.8.4-.8.9-1.7 1.4-2.4z"/><circle id="XMLID_15_" class="st17" cx="132.1" cy="144.2" r="4.4"/></g><g id="Layer_10_copy"><path id="XMLID_18_" class="st16" d="M186.3 139.1c-1.8-2.5-6.3-4.2-9.3-4-6.3.3-12.7 4.9-12.6 9.3.1 6.6 5.3 8 11.3 7.9 9.1 0 14-6.1 12-10.8-.4-.8-.9-1.7-1.4-2.4z"/><circle id="XMLID_16_" class="st17" cx="175.5" cy="144.2" r="4.4"/></g></g><g id="Layer_8"><radialGradient id="XMLID_36_" cx="154.365" cy="77.762" r="30.889" gradientTransform="matrix(-1 0 0 -1.0636 308.73 167.622)" gradientUnits="userSpaceOnUse"><stop offset="0" style="stop-color:#cdbb00"/><stop offset="1" style="stop-color:#f2916a"/></radialGradient><path id="XMLID_2_" d="M154.6 48.7c7.1 0 27 6.4 27 13.4l-14.2 46.2c0 7.1-5.8 12.8-12.8 12.8-7.1 0-12.8-5.8-12.8-12.8L127 61c0-7 20.6-12.3 27.6-12.3z" style="fill:url(#XMLID_36_);stroke:#000;stroke-width:5;stroke-miterlimit:10"/><path id="XMLID_21_" class="st11" d="M154.6 51.6c-6.2 0-24.2 4.5-24.2 10.6l4 12.4c10.9-4.4 25.7-8 42.1-5.9l1.8-5.6c0-6-17.5-11.5-23.7-11.5z"/><g id="Calque_8_2_"><path id="XMLID_28_" class="st9" d="M102.8 112.5c7.7 5.4 25 19.3 51 19.3 25.7 0 42.5-13.5 50.6-19.1-11.8-9.7-27.7-2.5-50.4-2.5-22.9.1-39.3-8.1-51.2 2.3z"/><radialGradient id="XMLID_37_" cx="153.227" cy="118.67" r="32.39" gradientTransform="matrix(.9891 0 0 1 2.228 0)" gradientUnits="userSpaceOnUse"><stop offset="0" style="stop-color:#cdbb00"/><stop offset="1" style="stop-color:#f2916a"/></radialGradient><path id="XMLID_27_" d="M109.4 112.6c6.2 4.3 23.8 15.2 44.5 15.2 20.5 0 37.9-10.6 44.3-15-10.2-6.3-26.2.1-44.2.1-18.4-.1-34.5-7.1-44.6-.3z" style="fill:url(#XMLID_37_)"/><linearGradient id="XMLID_40_" gradientUnits="userSpaceOnUse" x1="153.748" y1="16224.56" x2="153.748" y2="16235.113" gradientTransform="translate(0 -16112)"><stop offset="0" style="stop-color:#fff;stop-opacity:0"/><stop offset="1" style="stop-color:#fff"/></linearGradient><path id="XMLID_26_" d="M120.1 114.8c4.6 3.3 18.3 8.3 34 8.3 15.5 0 28.5-4.8 33.3-8.2-7.7-4.8-19.9.1-33.6.1-13.7-.1-26-5.3-33.7-.2z" style="opacity:.5;fill:url(#XMLID_40_);enable-background:new"/></g></g><g id="border_1_"><circle id="blackBorder" cx="152" cy="147.8" r="114.3" style="fill:none;stroke:#0b0b0c;stroke-width:19;stroke-miterlimit:10"/><circle id="border" cx="152" cy="147.8" r="114.3" style="fill:none;stroke:#ddd;stroke-width:6;stroke-miterlimit:10"/></g></g><g id="Layer_4"><path id="XMLID_17_" d="m202.9 142.8-5.2-10-5.8 11.1c-.3.8-.5 1.6-.5 2.5 0 3.5 2.8 6.3 6.3 6.3s6.3-2.8 6.3-6.3c0-1.3-.4-2.6-1.1-3.6z" style="fill:#009fe3;stroke:#272e59;stroke-width:2;stroke-miterlimit:10"/><path id="XMLID_3_" d="m197.5 144.3-2.3-4.4-2.5 4.8c-.1.3-.2.7-.2 1.1 0 1.5 1.2 2.8 2.8 2.8 1.5 0 2.8-1.2 2.8-2.8-.1-.6-.3-1.1-.6-1.5z" style="fill:#74cbf0"/></g></svg>