<?xml version="1.0" encoding="utf-8"?>
<!-- Generator: Adobe Illustrator 19.0.0, SVG Export Plug-In . SVG Version: 6.00 Build 0)  -->
<svg version="1.0" xmlns="http://www.w3.org/2000/svg" xmlns:xlink="http://www.w3.org/1999/xlink" x="0px" y="0px" width="150px" height="100px"
	 viewBox="0 0 100 150" style="enable-background:new 0 0 100 150;" xml:space="preserve">
<style type="text/css">
	.st0{fill:#682121;}
	.st1{fill:#D13939;}
</style>
<g id="border_-_copie_2">
	<path id="XMLID_2_" class="st0" d="M51,102c0,0-10.9-0.3-14.2-8.2c-0.6-1.4,0.1-2.2,0.1-4.2c-0.5-13.1-3.1-28.8,0.5-29
		c1.4-0.1,2.5,1.1,3.1,2.2c1.1,2.1,1.3,7.7,1.2,9.9c0,0.4,0.3,0.8,0.8,0.8l0.3,0c0.5,0,0.9-0.4,0.9-1V59.2c0,0-2.1-6.8,0.6-6.8
		c4.3-0.1,3.8,6.9,3.8,6.9L48.3,72c0,0.6,0.5,1,1,1h0.1c0.6,0,1-0.5,1-1V54.8c0,0-1-4.9,0.9-4.9c4.4,0,3.9,4.9,3.9,4.9l0,17.5
		c0,0.6,0.5,1,1,1l0,0c0.6,0,1.1-0.5,1.1-1.1V57.8c0,0-1.3-5.7,0.5-5.7c4.2,0,4,3.1,4,5.6c0.1,2.2,0.1,22.5,0.1,26.7
		c0,0.4,0.3,0.8,0.8,0.8l0.2,0c0.4,0,0.8-0.4,0.8-0.8v-7c0,0-1.5-6.4,0.7-6.4c3.8,0,3.7,6.1,3.7,6.9c0,1.1,0,9.3,0,9.3
		S68,101.7,51,102z"/>
</g>
<g id="border_-_copie_3">
	<path id="XMLID_1_" class="st1" d="M49.4,100.1c0,0-13.6,0.7-14.1-12.4s-1.5-27,2.1-27c2.7-0.1,2.8,7.6,2.7,10.2
		c0,0.4,0.3,0.8,0.8,0.8l0.3,0c0.5,0,0.9-0.4,0.9-1V57.3c0,0-0.5-4.9,2.2-4.9c2.8-0.1,2.3,5,2.3,5l0.1,12.8c0,0.6,0.5,1,1,1h0.1
		c0.6,0,1-0.5,1-1l0-17.2c0,0,0.6-3,2.4-3s2.4,3,2.4,3l0,17.5c0,0.6,0.5,1,1,1l0,0c0.6,0,1.1-0.5,1.1-1.1V55.9c0,0,0.3-3.8,2-3.8
		c1.6,0,2.4,1.2,2.5,3.7c0.1,2.2,0.1,22.5,0.1,26.7c0,0.4,0.3,0.8,0.8,0.8l0.2,0c0.4,0,0.8-0.4,0.8-0.8v-7c0,0,0-4.5,2.1-4.5
		c2.2,0,2.3,3.8,2.3,5s0,9.3,0,9.3S66.4,99.7,49.4,100.1z"/>
</g>
</svg>
