<?xml version="1.0" encoding="utf-8"?>
<!-- Generator: Adobe Illustrator 19.0.0, SVG Export Plug-In . SVG Version: 6.00 Build 0)  -->
<svg version="1.0" xmlns="http://www.w3.org/2000/svg" xmlns:xlink="http://www.w3.org/1999/xlink" x="0px" y="0px" width="100px" height="150px"
	 viewBox="0 0 100 150" style="enable-background:new 0 0 100 150;" xml:space="preserve">
<style type="text/css">
	.st0{display:none;}
	.st1{display:inline;fill:#333333;}
	.st2{fill:#333333;}
	.st3{display:inline;}
	.st4{fill:#2E3192;}
	.st5{fill:#27AAE1;}
	.st6{fill:#1C75BC;}
	.st7{fill:none;stroke:#2B3990;stroke-width:4;stroke-miterlimit:10;}
	.st8{fill:#00AEEF;stroke:#2B3990;stroke-width:4;stroke-miterlimit:10;}
	.st9{fill:none;stroke:#5CA1D8;stroke-width:4;stroke-miterlimit:10;}
	.st10{fill:#00AEEF;stroke:#5CA1D8;stroke-width:4;stroke-miterlimit:10;}
	.st11{fill:none;stroke:#BE1E2D;stroke-width:8;stroke-miterlimit:10;}
	.st12{fill:none;stroke:#ED1C24;stroke-width:8;stroke-miterlimit:10;}
</style>
<g id="圖層_2" class="st0">
	<rect id="XMLID_6_" class="st1" width="100" height="150"/>
</g>
<g id="圖層_15_拷貝" class="st0">
	<path id="XMLID_37_" class="st1" d="M100,143.3c0-3.7-3-6.8-6.8-6.8H75H6.8H0V150h6.8H75h14.3h3.9h6.8V143.3L100,143.3
		C100,143.3,100,143.3,100,143.3z"/>
</g>
<g id="圖層_15_拷貝_2">
	<path id="XMLID_20_" class="st2" d="M100,6.8c0,3.7-3,6.8-6.8,6.8H75H6.8H0V0h6.8H75h14.3h3.9h6.8V6.8L100,6.8
		C100,6.7,100,6.7,100,6.8z"/>
</g>
<g id="圖層_14" class="st0">
	<g id="圖層_2_拷貝" class="st3">
		<g id="patrol">
			<path id="XMLID_23_" class="st4" d="M81.4,82.3l-5.7-4.5c-2.6,10.7-12.2,18.6-23.7,18.6c-13.5,0-24.4-10.9-24.4-24.4H17.6
				c0,19.1,15.4,34.5,34.5,34.5c16.8,0,30.7-12,33.8-27.8L81.4,82.3z"/>
			<path id="XMLID_22_" class="st4" d="M85.9,78.7l8.4-6.7h-7.9c0-19.1-15.4-34.5-34.5-34.5c-16.8,0-30.7,12-33.8,27.8l4.5-3.6
				l5.7,4.5c2.6-10.7,12.2-18.6,23.7-18.6c13.5,0,24.4,10.9,24.4,24.4h-7.7l7.2,5.7l5.7,4.5L85.9,78.7z"/>
			<polygon id="XMLID_21_" class="st4" points="18.1,65.3 9.7,72 17.4,72 27.5,72 35.4,72 28.2,66.3 22.6,61.7 			"/>
		</g>
		<polyline id="XMLID_31_" class="st4" points="7.7,70 9.7,72 12.2,70 7.7,70 7.7,70 		"/>
		<polygon id="XMLID_33_" class="st4" points="35.4,72 33.4,70 32.9,70 		"/>
		<polygon id="XMLID_34_" class="st4" points="68.6,72 66.6,70 69.1,72 		"/>
		<polygon id="XMLID_35_" class="st4" points="94.3,72 92.3,70 89.8,72 		"/>
	</g>
	<g id="圖層_2_拷貝_2" class="st3">
		<g id="patrol_1_">
			<path id="XMLID_30_" class="st5" d="M79.4,80.3l-5.7-4.5c-2.6,10.7-12.2,18.6-23.7,18.6c-13.5,0-24.4-10.9-24.4-24.4H15.6
				c0,19.1,15.4,34.5,34.5,34.5c16.8,0,30.7-12,33.8-27.8L79.4,80.3z"/>
			<path id="XMLID_29_" class="st6" d="M83.9,76.7l8.4-6.7h-7.9c0-19.1-15.4-34.5-34.5-34.5c-16.8,0-30.7,12-33.8,27.8l4.5-3.6
				l5.7,4.5c2.6-10.7,12.2-18.6,23.7-18.6c13.5,0,24.4,10.9,24.4,24.4h-7.7l7.2,5.7l5.7,4.5L83.9,76.7z"/>
			<polygon id="XMLID_27_" class="st5" points="16.1,63.3 7.7,70 15.4,70 25.5,70 33.4,70 26.2,64.3 20.6,59.7 			"/>
		</g>
	</g>
</g>
<g id="target" class="st0">
	<g id="targetShadow" class="st3">
		<polygon id="XMLID_13_" class="st4" points="10,72 12.5,72 12.5,74.5 		"/>
		<circle id="XMLID_1_" class="st7" cx="52.5" cy="72.5" r="28.3"/>
		<line id="XMLID_2_" class="st7" x1="12.5" y1="72.5" x2="32.5" y2="72.5"/>
		<line id="XMLID_3_" class="st7" x1="52.5" y1="52.5" x2="52.5" y2="32.5"/>
		<line id="XMLID_4_" class="st7" x1="52.5" y1="92.5" x2="52.5" y2="112.5"/>
		<line id="XMLID_5_" class="st8" x1="72.5" y1="72.5" x2="92.5" y2="72.5"/>
		<polygon id="XMLID_12_" class="st4" points="48,110 50.5,110 50.5,112.5 		"/>
		<polygon id="XMLID_14_" class="st4" points="48,50 50.5,50 50.5,52.5 		"/>
		<polygon id="XMLID_15_" class="st4" points="70,72 72.5,72 72.5,74.5 		"/>
		<polygon id="XMLID_16_" class="st4" points="92.5,70.5 90,70.5 90,68 		"/>
		<polygon id="XMLID_17_" class="st4" points="54.5,92.5 52,92.5 52,90 		"/>
		<polygon id="XMLID_18_" class="st4" points="32.5,70.5 30,70.5 30,68 		"/>
		<polygon id="XMLID_19_" class="st4" points="54.5,32.5 52,32.5 52,30 		"/>
	</g>
	<g id="target_1_" class="st3">
		<circle id="XMLID_11_" class="st9" cx="50" cy="70" r="28.3"/>
		<line id="XMLID_10_" class="st9" x1="10" y1="70" x2="30" y2="70"/>
		<line id="XMLID_9_" class="st9" x1="50" y1="50" x2="50" y2="30"/>
		<line id="XMLID_8_" class="st9" x1="50" y1="90" x2="50" y2="110"/>
		<line id="XMLID_7_" class="st10" x1="70" y1="70" x2="90" y2="70"/>
	</g>
</g>
<g id="圖層_13" class="st0">
	<g id="圖層_8" class="st3">
		<g id="圖層_6">
			<line id="XMLID_24_" class="st11" x1="32" y1="52" x2="72" y2="92"/>
		</g>
		<g id="圖層_6_拷貝">
			<line id="XMLID_28_" class="st11" x1="32" y1="92" x2="72" y2="52"/>
		</g>
	</g>
	<g id="圖層_8_拷貝" class="st3">
		<g id="圖層_6_拷貝_2_1_">
			<line id="XMLID_26_" class="st12" x1="30" y1="50" x2="70" y2="90"/>
		</g>
		<g id="圖層_6_拷貝_2">
			<line id="XMLID_25_" class="st12" x1="30" y1="90" x2="70" y2="50"/>
		</g>
	</g>
</g>
</svg>
