<?xml version="1.0" encoding="utf-8"?>
<!-- Generator: Adobe Illustrator 19.0.0, SVG Export Plug-In . SVG Version: 6.00 Build 0)  -->
<svg version="1.0" id="Calque_52" xmlns="http://www.w3.org/2000/svg" xmlns:xlink="http://www.w3.org/1999/xlink" x="0px" y="0px" width="150px" height="100px"
	 viewBox="0 0 100 150" style="enable-background:new 0 0 100 150;" xml:space="preserve">
<style type="text/css">
	.st0{fill:none;stroke:#90C962;stroke-width:4;stroke-miterlimit:10;}
	.st1{fill:#90C962;}
</style>
<g id="poison">
	<g id="圖層_3_5_">
		<g id="圖層_23_6_">
			<g id="XMLID_33_">
				<path id="XMLID_34_" class="st0" d="M64.5,104.5l-27.9-0.1c-2.2,0-4.2-1.2-5.3-3L17.3,77.9c-1.1-1.8-1.1-4.1,0-5.9l14-23.5
					c1.1-1.8,3.1-3,5.3-3l27.9,0.1c2.2,0,4.2,1.2,5.3,3l13.9,23.5c1.1,1.8,1.1,4.1,0,5.9l-14,23.5C68.7,103.3,66.6,104.5,64.5,104.5
					z"/>
			</g>
		</g>
	</g>
	<g id="Calque_53_1_">
		<g id="XMLID_21_">
			<path id="XMLID_22_" class="st1" d="M54.5,84.7l-0.3,1.7l-0.4-1.6l-2.1,0l-0.4,1.5l-0.5-1.5l-2.7-0.2l-0.4,1.7l-0.3-1.6l-2.3-0.1
				l-0.5,3.1c0,0,8,1.4,12.6,0l-0.7-3H54.5z"/>
			<path id="XMLID_504_" class="st1" d="M62.1,71.5c-0.9-9.4-6.2-7.9-11-8c-7.5-0.2-13.2,1.9-13.2,6.9c0,2,0,5,0.9,6.2
				c2.1,2.8,7,3.8,7,3.8l-0.7,4l2.3-0.2l0.4-1.6l0.3,1.6l2.9,0l0.1-1.8l0.6,1.8l2,0.1l0.5-2l0.3,2h1.9l-0.9-3.9
				C55.4,80.3,63,80.9,62.1,71.5z M45.5,74.4c-1.5,0-2.7-1.3-2.7-2.8c0-1.6,1.2-2.8,2.7-2.8c1.5,0,2.7,1.3,2.7,2.8
				C48.1,73.1,46.9,74.4,45.5,74.4z M50.1,76.5c-0.1,0.2-0.3,0.2-0.5,0.1c-0.2-0.1-0.4-0.3-0.4-0.4c-0.1-0.5,0-0.8,0-0.8
				s1-0.2,1.1,0.5C50.3,76.1,50.2,76.3,50.1,76.5z M52.1,76.2c0,0.1-0.2,0.3-0.4,0.4c-0.2,0.1-0.4,0.1-0.5-0.1
				c-0.1-0.2-0.2-0.4-0.2-0.7c0.1-0.7,1.1-0.5,1.1-0.5S52.2,75.6,52.1,76.2z M56.1,74.4c-1.5,0-2.7-1.3-2.7-2.8
				c0-1.6,1.2-2.8,2.7-2.8s2.7,1.3,2.7,2.8C58.7,73.1,57.6,74.4,56.1,74.4z"/>
		</g>
	</g>
</g>
</svg>
