<?xml version="1.0" encoding="utf-8"?>
<!-- Generator: Adobe Illustrator 19.0.0, SVG Export Plug-In . SVG Version: 6.00 Build 0)  -->
<svg version="1.0" xmlns="http://www.w3.org/2000/svg" xmlns:xlink="http://www.w3.org/1999/xlink" x="0px" y="0px" width="100px" height="150px"
	 viewBox="0 0 100 150" style="enable-background:new 0 0 100 150;" xml:space="preserve">
<style type="text/css">
	.st0{display:none;}
	.st1{display:inline;fill:#333333;}
	.st2{fill:none;stroke:#C6C6C5;stroke-miterlimit:10;}
	.st3{display:none;fill:#C6C6C5;}
	.st4{font-family:'Stroke';}
	.st5{font-size:18px;}
	.st6{fill:#C6C6C5;}
	.st7{display:inline;fill:#C6C6C5;}
</style>
<g id="normal" class="st0">
	<rect id="XMLID_6_" class="st1" width="100" height="150"/>
</g>
<g id="Calque_51">
	<g id="Calque_56">
		<path id="XMLID_9_" class="st2" d="M59.5,28.4H43.3c-1.9,0-3.4-1.5-3.4-3.4V8.9c0-1.9,1.5-3.4,3.4-3.4h16.2c1.9,0,3.4,1.5,3.4,3.4
			V25C62.9,26.9,61.4,28.4,59.5,28.4z"/>
		<text id="XMLID_102_" transform="matrix(1 0 0 1 46.2525 23.4757)" class="st3 st4 st5">0</text>
		<g id="XMLID_8_">
			<path id="XMLID_10_" class="st6" d="M51.4,10.9c0.2,0,0.4-0.1,0.6-0.1c0.3,0,0.5,0,0.6,0c0.4,0.1,0.8,0.5,1.1,1.1
				c0.1,0.2,0.3,0.4,0.5,0.6c0.5,0.3,0.8,0.7,1,1.1c0.1,0.3,0.2,0.5,0.3,0.8c0,0.3,0.1,0.7,0.1,1.2c0,0.5,0,0.8,0,1
				c0,0.2-0.1,0.5-0.2,0.8c-0.1,0.6-0.2,0.9-0.3,1c0,0.2-0.1,0.4-0.1,0.7c-0.1,1.5-0.5,2.6-1.2,3.3c-0.4,0.4-0.9,0.6-1.4,0.7
				c-0.3,0-0.6,0.1-0.7,0.2c-0.6,0.2-1.2,0.1-1.9-0.2c-0.7-0.3-1.3-1-1.8-1.9c-0.2-0.4-0.3-0.6-0.4-0.7c-0.4-0.8-0.7-1.5-0.8-2.3
				c-0.1-0.9-0.1-1.8,0.1-2.7c0.2-0.9,0.6-1.7,1.2-2.3c0.1-0.1,0.2-0.3,0.3-0.5c0.1-0.2,0.2-0.4,0.5-0.7s0.4-0.4,0.7-0.5
				c0.3-0.1,0.4-0.2,0.5-0.2c0,0,0.1,0,0.3-0.1c0.1-0.1,0.3-0.1,0.6-0.2C51,11,51.2,10.9,51.4,10.9z M47.1,15.8c0-0.3,0-0.4,0-0.4
				c0,0,0,0.1-0.1,0.3c-0.1,0.5-0.1,0.9-0.2,1.4s0,0.9,0.1,1.3l0.1,0.3l0-0.4c0-0.3,0-0.7,0-1.3C47.1,16.4,47.1,16,47.1,15.8z
				 M47.8,18.9c0-0.1,0-0.1-0.1-0.3c0-0.1-0.1-0.1-0.1,0C47.7,18.7,47.7,18.8,47.8,18.9C47.8,19,47.8,19,47.8,18.9z M47.8,15.9
				c0-0.1,0-0.2,0-0.2c0,0,0,0,0,0c0,0,0,0.1,0,0.1L47.8,15.9z M48.4,21.4c-0.1-0.1-0.1-0.2-0.2-0.2s0,0,0,0.1s0.1,0.2,0.2,0.3
				c0.1,0.1,0.1,0.2,0.2,0.3l0.2,0.2l-0.2-0.2C48.6,21.7,48.5,21.5,48.4,21.4z M51.9,13.1c-0.4-0.2-0.8-0.3-1.1-0.2
				c-0.6,0.2-1.1,0.6-1.4,1.2c-0.4,0.7-0.6,1.5-0.7,2.6c0,0.3,0,0.5,0,0.6s0.1,0.5,0.2,1c0.2,0.8,0.3,1.4,0.4,1.7
				c0.1,0.3,0.1,0.5,0.2,0.6c0,0.1,0.2,0.2,0.3,0.4c0.4,0.3,0.8,0.6,1.2,0.6c0.3,0,0.5,0,0.8-0.1c0.2-0.1,0.5-0.2,0.7-0.3
				c0.2-0.1,0.3-0.2,0.3-0.3c0.1-0.1,0.2-0.3,0.3-0.5c0.3-0.7,0.6-1.5,0.7-2.4c0.1-0.9,0.1-1.7,0-2.4c-0.2-0.8-0.4-1.4-0.7-1.7
				C52.9,13.6,52.4,13.3,51.9,13.1z M49.4,11.9c0.2-0.2,0.3-0.3,0.3-0.3c-0.1,0-0.2,0-0.3,0.1c-0.1,0.1-0.3,0.2-0.4,0.3
				c-0.2,0.2-0.3,0.3-0.2,0.3C48.9,12.4,49.1,12.3,49.4,11.9z M51.2,12.4c-0.4-0.1-0.7-0.2-0.9-0.1c-0.2,0-0.4,0.2-0.6,0.4
				c-0.1,0.1-0.2,0.3-0.4,0.6c-0.1,0.3-0.2,0.4-0.1,0.5c0,0,0,0,0,0s0.1-0.2,0.3-0.4c0.2-0.2,0.4-0.3,0.5-0.4
				c0.2-0.2,0.5-0.3,0.8-0.3c0.3,0,0.6,0,0.9,0.1c0.1,0,0.1,0,0,0C51.6,12.6,51.5,12.5,51.2,12.4z M52.4,21.9
				C52.4,21.9,52.4,21.9,52.4,21.9c-0.1,0-0.2,0-0.3,0.1c-0.1,0-0.5,0.1-1,0.1h-0.8l0.3,0.1c0.2,0.1,0.4,0.1,0.8,0.1
				c0.3,0,0.6-0.1,0.8-0.2C52.2,22.1,52.4,22,52.4,21.9z M51.7,12.2c-0.2-0.1-0.3-0.1-0.4-0.1l0,0c0,0,0.2,0.1,0.5,0.2
				c0.2,0.1,0.3,0.1,0.3,0.1C52,12.4,51.9,12.3,51.7,12.2z M51.9,11.6c-0.3-0.1-0.4-0.1-0.4,0C51.5,11.6,51.6,11.6,51.9,11.6
				l0.3,0.1L51.9,11.6z M52.7,11.1c-0.1,0-0.3-0.1-0.5-0.1c-0.3,0-0.4,0-0.5,0c-0.1,0-0.1,0.1,0,0.1c0.1,0,0.2,0,0.3,0.1
				c0.1,0,0.3,0.1,0.6,0.2c0.3,0.1,0.5,0.2,0.7,0.3l0.3,0.2l-0.1-0.2C53.2,11.5,53,11.2,52.7,11.1z M53.1,12.5
				c-0.2-0.3-0.4-0.4-0.6-0.4c0,0,0.1,0.2,0.3,0.4c0.4,0.4,0.7,0.8,0.9,1.5c0.2,0.6,0.4,0.8,0.4,0.8c0,0,0,0,0-0.1
				c-0.1-0.3-0.3-0.7-0.5-1.2C53.5,13.1,53.3,12.7,53.1,12.5z M54.1,21.3c0.1-0.3,0.2-0.4,0.2-0.4l-0.2,0.3
				c-0.1,0.2-0.3,0.4-0.4,0.6c-0.2,0.2-0.3,0.4-0.4,0.5v0c0,0,0.1-0.1,0.3-0.2C53.8,21.9,54,21.6,54.1,21.3z M53.8,12.9
				c0-0.1-0.1-0.2-0.2-0.3c-0.1-0.1-0.1-0.1-0.1-0.1c0.2,0.4,0.3,0.6,0.4,0.6C53.9,13.1,53.9,13.1,53.8,12.9z M53.8,21.1
				c0,0,0.1-0.1,0.1-0.2c0.1-0.1,0.1-0.2,0.1-0.2s-0.1,0.1-0.1,0.2C53.8,21,53.8,21.1,53.8,21.1z M54.4,17.6c0-0.5,0-0.8-0.1-1
				c0-0.1-0.1-0.1-0.1,0c0,0.1,0,0.5,0,1c0,0.8,0,1.3-0.1,1.4h0c0,0,0-0.1,0.1-0.3C54.4,18.5,54.4,18.1,54.4,17.6z M54.7,14
				c-0.2-0.4-0.3-0.5-0.3-0.5c0,0,0,0,0,0.1c0,0,0.1,0.4,0.3,1.1c0.3,1.1,0.4,1.9,0.4,2.3c0,0.1,0,0.2,0.1,0.2c0,0,0.1-0.2,0.1-0.5
				s0-0.7,0-1C55.1,15.1,55,14.6,54.7,14z M54.9,13.7c-0.1-0.2-0.2-0.3-0.3-0.5c-0.1-0.1-0.1-0.1-0.1-0.1c0,0,0.1,0.1,0.2,0.3
				c0.1,0.1,0.2,0.3,0.3,0.5l0.1,0.2C55.1,14,55,13.9,54.9,13.7z"/>
		</g>
		<g id="XMLID_134_" class="st0">
			<path id="XMLID_135_" class="st7" d="M52.2,10.9c0.1-0.1,0.2,0,0.3,0.3c0.1,0.2,0.1,0.4,0.2,0.6c0,0.3,0.1,1,0.1,2.1
				c0,1.2,0,1.9,0.1,2.3c0.1,0.4,0.1,1,0.2,1.7c0.1,1.6,0.2,2.7,0.2,3.3c0,0.6,0,0.9-0.1,1c0,0-0.1,0-0.1,0c0,0-0.1-0.1-0.1-0.2
				c0-0.1,0-0.3,0-0.5c0-0.2,0-0.5,0-0.8c0-0.9-0.1-1.7-0.2-2.4l-0.1-1c0,0,0,0.8,0,2.1c0,1.1,0,1.8-0.1,2.2s-0.1,0.8-0.2,1
				c0,0.1-0.1,0.1-0.2,0.2c-0.1,0-0.1,0-0.2,0c0,0-0.1-0.1-0.1-0.1s-0.1,0.1-0.1,0.3c0,0.1,0,0.2,0,0.2s0,0.1-0.1,0.1
				c0,0-0.1,0-0.1,0c0,0,0-0.1-0.1-0.2c0-0.1-0.1-0.3-0.1-0.4c0-0.2,0-0.3-0.1-0.4c0-0.1,0-0.1-0.1,0c0,0,0,0.1,0,0.1
				c0,0.1-0.1,0.2-0.1,0.2c0,0-0.1,0.1-0.1,0.1c-0.1,0-0.1-0.1-0.2-0.2c-0.1-0.4-0.1-1.4-0.1-2.9c0-1.5,0-2.7,0.1-3.5
				c0-0.5,0-0.8,0-0.8c0,0-0.5,0.1-1.4,0.4c-0.7,0.2-1.1,0.3-1.2,0.1c0-0.1,0-0.1,0-0.2c0.1-0.1,0.2-0.1,0.3-0.1
				c0.2,0,0.3-0.1,0.3-0.1c0,0,0-0.1-0.1-0.1c-0.1,0-0.2-0.1-0.5-0.3c-0.3-0.2-0.4-0.3-0.5-0.4c0-0.1,0-0.1,0-0.2
				c0-0.1,0-0.1-0.1-0.1c-0.1,0-0.1-0.1-0.1-0.2c0-0.1,0-0.1,0.1-0.1s0.1,0,0.3-0.1c0.3,0,0.5,0,0.8,0c0.6,0,1.1-0.1,1.5-0.4
				c0.4-0.2,0.8-0.6,1.2-1.2c0.2-0.4,0.4-0.6,0.5-0.6c0.1-0.1,0.1-0.2,0.1-0.3c0-0.3,0.1-0.4,0.3-0.4C52.2,10.9,52.2,10.9,52.2,10.9
				z M49.2,14.6l0.1-0.1c0,0-0.2,0-0.6,0h0l-0.7,0l0.1,0.1c0.1,0.1,0.3,0.1,0.5,0.1C48.9,14.7,49.1,14.7,49.2,14.6z M51.2,13.1
				C51.2,13.1,51.2,13.1,51.2,13.1c0.1-0.1,0.1-0.1,0.1-0.2c0,0,0,0,0,0L51.2,13.1c-0.2,0.1-0.4,0.3-0.8,0.5
				c-0.3,0.2-0.6,0.3-0.7,0.4c-0.2,0.1-0.5,0.1-0.8,0.1c-0.4,0-0.6,0.1-0.6,0.1c0,0,0.2,0,0.7,0c0.4,0,0.6,0,0.8,0
				c0.1,0,0.3-0.1,0.4-0.2C50.5,13.8,50.9,13.5,51.2,13.1z M50.9,14L50.9,14L50.9,14c0-0.1-0.1,0-0.2,0.1c0,0-0.1,0-0.1,0.1
				c-0.3,0.2-0.5,0.4-0.9,0.5c-0.3,0.2-0.6,0.2-0.8,0.2c-0.1,0-0.1,0-0.1,0.1c0,0,0.1,0.1,0.2,0.1c0.2,0,0.6-0.1,1-0.4
				C50.6,14.5,50.8,14.2,50.9,14z M51.2,16.1c0-0.8,0.1-1.2,0.1-1.2c0,0-0.1,0-0.2,0.1c0,0-0.1,0.1-0.1,0.2s0,0.4-0.1,1
				c-0.1,1.3-0.1,2.8,0,4.4c0,0.6,0,0.9,0.1,0.8c0-0.1,0.1-0.6,0.1-1.7c0-0.9,0-1.6,0.1-2C51.1,17.6,51.2,17,51.2,16.1z M51.2,14.3
				c0.1-0.1,0.1-0.1,0.1-0.1C51.3,14.1,51.3,14.1,51.2,14.3C51.2,14.3,51.2,14.3,51.2,14.3C51.1,14.3,51.1,14.3,51.2,14.3
				C51.2,14.3,51.2,14.3,51.2,14.3z M51.7,20.7c0.1-0.4,0.1-0.8,0.1-1.2c0-0.3,0-1.1,0-2.4l0-2.6l-0.1,1.1c-0.1,0.6-0.1,1.4-0.2,2.4
				c0,1,0,2,0,2.8l0,0.9L51.7,20.7z M52.2,20.8c0-0.6,0.1-0.9,0-0.9c0,0,0,0.1,0,0.2c0,0.2,0,0.5,0,0.8l0,0.3
				C52.2,21.3,52.2,21.1,52.2,20.8z"/>
		</g>
		<g id="XMLID_106_" class="st0">
			<path id="XMLID_107_" class="st7" d="M50.3,11c0.2-0.1,0.3-0.2,0.4-0.2c0,0,0.1,0,0.1,0.1c0,0.1,0,0.1,0,0.2c0,0,0,0,0.1,0.1
				c0.1,0,0.2,0,0.4,0.1c0.3,0,0.6,0.1,0.9,0.2c0.3,0.1,0.8,0.2,1.5,0.2c0.7,0,1.2,0.1,1.5,0.1c0.3,0.1,0.5,0.2,0.7,0.4
				c0.3,0.3,0.4,0.6,0.4,1s-0.2,0.9-0.5,1.7c-0.2,0.4-0.3,0.7-0.5,1c-0.2,0.3-0.3,0.5-0.3,0.7c0,0.2-0.1,0.3-0.2,0.3
				c-0.1,0-0.1,0.2-0.2,0.4c-0.1,0.3-0.3,0.7-0.7,1.1s-0.6,0.5-0.7,0.5c-0.1,0-0.2,0-0.3,0.1C52.6,19,52.5,19,52.5,19
				c0,0-0.2,0.2-0.6,0.5c-0.4,0.3-0.8,0.7-1.3,1L49.8,21l0,0.3c0,0.2,0.1,0.3,0.1,0.4c0,0,0.2,0.1,0.6,0.1s0.6,0.1,0.7,0l0.3,0
				l-0.4-0.1c-0.3-0.1-0.5-0.1-0.6-0.1c-0.1,0-0.2,0-0.3-0.1c-0.1-0.1-0.1-0.1-0.1-0.2c0-0.1,0.2-0.1,0.5-0.1c0.2,0,0.7,0.1,1.5,0.1
				l1.3,0L52,21.2c-1.1-0.1-1.7-0.2-1.7-0.3c0,0,0-0.1,0-0.1c0,0,0.5,0,1.5,0.1c1.6,0.2,2.6,0.3,3.2,0.4c0.2,0,0.3,0.1,0.4,0.1
				c0.1,0,0.1,0.1,0.1,0.1c0,0,0,0.1-0.1,0.1c-0.1,0-0.4,0-0.8,0.1c-0.7,0-1.2,0-1.7,0h-0.6c0,0,0,0,0.1,0c0.1,0,0.6,0,1.3,0
				c1.4,0,2.2,0.1,2.3,0.2c0,0,0,0.1,0,0.1c0,0.1-0.3,0.1-0.9,0c-0.1,0-0.1,0-0.1,0c0,0,0,0,0,0.1c0,0.1,0,0.1,0.1,0.1
				c0,0,0.2,0,0.3,0c0.2,0,0.3,0,0.3,0c0,0,0.1,0.1,0.1,0.1s0,0.1-0.1,0.1c0,0-0.1,0-0.3,0c-0.2,0-0.5,0.1-0.7,0.1
				c-0.3,0.1-0.6,0.1-1,0.1C52,23,51.2,23,51.2,23.1c0,0,0,0,0.1,0c0.1,0,0.2,0,0.3,0c0.3,0,0.7,0,1.3,0c0.6,0,1-0.1,1.3-0.1
				c0.4-0.1,0.6-0.1,0.7-0.1c0.1,0,0.1,0,0.1,0.1c0,0.1-0.1,0.1-0.1,0.1c0,0,0,0,0,0c0.1,0,0.2,0,0.3,0c0.4,0,0.6,0.1,0.6,0.1
				c0,0,0,0,0,0.1c0,0.1-0.6,0.1-1.7,0.1c-0.4,0-1.1,0-2.1-0.1c-1-0.1-1.6-0.1-1.6-0.1c0,0-0.2,0-0.6,0.1c-0.4,0.1-0.8,0.1-1.2,0.1
				c-0.3,0-0.5,0-0.6,0c-0.1,0-0.2-0.1-0.4-0.1c-0.1-0.1-0.2-0.1-0.3-0.2s-0.1-0.1-0.1-0.2l0-0.1c0,0,0,0.1-0.1,0.3
				c0,0.4-0.1,0.6-0.1,0.7s-0.1,0.1-0.1,0.1c-0.1,0-0.1,0-0.1-0.1c0,0,0-0.2,0-0.4c0-0.3,0-0.5,0.1-0.6c0-0.1,0-0.2-0.1-0.3
				c-0.1,0-0.1-0.1-0.1-0.2s0.1-0.3,0.3-0.4c0.2-0.1,0.3-0.2,0.3-0.3c0-0.1,0-0.2,0.1-0.5s0.2-0.5,0.2-0.6c0.5-1,1.2-1.9,2.3-2.4
				c0.4-0.2,0.6-0.3,0.7-0.2c0,0,0.2,0,0.4-0.2c0.5-0.4,0.8-0.6,1.1-0.8c0.1,0,0.3-0.4,0.6-1.1s0.5-1.1,0.6-1.4
				c0-0.3,0.1-0.4,0.1-0.5c0-0.1-0.1-0.3-0.4-0.5c-0.2-0.2-0.3-0.3-0.4-0.3c-0.1-0.1-0.2-0.1-0.3-0.1c-0.8-0.1-1.4-0.2-1.5-0.3
				c-0.1,0-0.2,0-0.4,0.2c-0.2,0.1-0.3,0.2-0.3,0.3c0,0-0.1,0.2-0.3,0.6c-0.3,0.7-0.5,1.2-0.5,1.5c0,0.3,0,0.5-0.1,0.5
				c-0.1,0-0.2-0.1-0.3-0.2c-0.1-0.1-0.2-0.2-0.2-0.3l0-0.1c0,0-0.1,0.2-0.1,0.6c0,0.4-0.1,0.6-0.1,0.6c-0.1,0-0.2-0.2-0.2-0.5
				c0-0.2,0-0.3,0-0.3c0,0-0.1-0.1-0.1-0.1c-0.1,0-0.1,0-0.1,0c0,0,0-0.1,0-0.2c0-0.1,0-0.2,0-0.2c0,0,0,0-0.1,0c-0.1,0-0.1,0-0.1,0
				c0,0,0,0.1,0,0.2c0,0.1,0,0.2,0,0.2s-0.1,0-0.1,0h-0.2l0-0.8c0-0.5,0-0.8-0.1-0.9c-0.1,0,0-0.2,0.1-0.3c0.2-0.4,0.6-0.9,1.1-1.5
				c0.3-0.3,0.5-0.5,0.5-0.6c0-0.1,0.1-0.2,0.3-0.3C49.4,11.5,49.8,11.3,50.3,11z M49.5,23c-0.1,0-0.4,0-1-0.1c-0.6,0-0.9,0-1,0
				c-0.1,0.1,0,0.2,0.2,0.2c0.3,0.1,0.8,0.2,1.3,0.1c0.4,0,0.6-0.1,0.6-0.2C49.6,23.1,49.6,23,49.5,23z M51.6,17.9
				c0,0,0.1-0.1,0.1-0.1s0.1-0.1,0.1-0.1l0,0c0,0-0.2,0.1-0.5,0.4c-0.3,0.3-0.6,0.5-0.9,0.8c-1,1-1.6,1.5-1.7,1.5c0,0-0.1,0-0.1-0.1
				c0,0,0.3-0.4,0.9-1l0.9-0.9L50,18.6c-0.2,0.1-0.5,0.4-0.9,0.7c-0.3,0.3-0.4,0.5-0.5,0.6c-0.1,0.1-0.2,0.4-0.4,0.8
				c-0.3,0.6-0.4,0.9-0.5,0.9c0,0.1,0,0.1,0,0.1c0,0,0,0,0.1,0c0.1-0.1,0.3-0.3,0.6-0.7c0.1-0.1,0.3-0.4,0.7-0.8
				c0.4-0.4,0.7-0.7,1-0.9c0.3-0.2,0.4-0.3,0.4-0.3C50.4,18.9,50.8,18.5,51.6,17.9z M48.7,13.4c0,0,0.1-0.1,0.1-0.1
				c0,0,0.1-0.1,0.1-0.1c0,0,0,0,0,0l-0.4,0.3c-0.2,0.2-0.4,0.4-0.5,0.7c-0.1,0.3-0.2,0.4-0.2,0.5s0,0.1-0.1,0.2
				c0,0-0.1,0.1-0.1,0.2c0,0.1,0,0.2,0.1,0.2c0.1,0,0.1,0,0.1,0c0,0,0.1-0.1,0.1-0.3C48.2,14.3,48.4,13.8,48.7,13.4z M48.2,22.2
				c0,0,0-0.1,0-0.1l0-0.1L48.1,22c0,0.1-0.1,0.1-0.1,0.1c0,0,0,0,0.1,0.1C48.1,22.2,48.2,22.2,48.2,22.2z M48.8,21.9
				c0,0-0.1,0-0.2,0c-0.1,0-0.1,0-0.2,0c0,0,0,0,0,0.1c0,0.3,0.1,0.4,0.3,0.4c0.1,0,0.1,0,0.1,0c0,0,0-0.1,0-0.2
				C48.9,22,48.9,21.9,48.8,21.9z M49.2,20.8l0.1-0.1C49.2,20.7,49.2,20.7,49.2,20.8c-0.1,0-0.2,0.1-0.2,0.1
				c-0.1,0.1-0.1,0.1-0.1,0.1c0,0,0.1,0,0.2-0.1C49.1,20.9,49.1,20.9,49.2,20.8z M49.8,12.2l0.1-0.1c0,0-0.2,0.1-0.4,0.2
				c-0.2,0.1-0.3,0.2-0.4,0.3c-0.1,0-0.1,0.1-0.1,0.1c0,0,0.1,0,0.3-0.1C49.6,12.3,49.7,12.2,49.8,12.2z M49.5,22.3c0,0,0-0.1,0-0.1
				c0-0.1,0-0.1,0-0.1s-0.1,0-0.1,0c-0.1,0-0.1,0-0.1,0c0,0,0,0.1,0,0.1c0,0.1,0.1,0.2,0.1,0.2C49.4,22.3,49.4,22.3,49.5,22.3z
				 M49.4,21.5c0-0.2,0-0.2,0-0.2c-0.1,0-0.2,0.1-0.2,0.3c0,0.1,0,0.1,0,0.2c0,0,0,0,0.1,0c0,0,0.1,0,0.1,0
				C49.4,21.6,49.4,21.5,49.4,21.5z M50.9,19.6C50.9,19.6,51,19.6,50.9,19.6c0.1-0.1,0.1-0.1,0.1-0.1v0c0,0-0.2,0.1-0.6,0.4
				c-0.3,0.2-0.4,0.3-0.5,0.3c-0.1,0.1-0.1,0.1-0.1,0.2c0,0.1,0,0.2,0,0.2c0,0,0.1,0,0.1-0.1c0.1,0,0.2-0.2,0.4-0.4
				S50.8,19.8,50.9,19.6z M50.9,11.5l0.5-0.1L50.9,11.5c-0.6-0.1-0.9,0-1,0.1c0,0,0.1,0,0.2,0C50.3,11.6,50.5,11.5,50.9,11.5z
				 M50.4,22.1c-0.1-0.1-0.2-0.1-0.4-0.1l-0.1,0c0,0,0.1,0.1,0.3,0.1C50.4,22.2,50.4,22.2,50.4,22.1z M51.8,12.7
				c-0.2-0.1-0.4-0.2-0.5-0.2c-0.2,0-0.3,0-0.3,0c0,0-0.1,0.1,0,0.1c0,0,0.1,0.1,0.2,0.1c0.2,0,0.4,0.1,0.6,0.1c0.1,0,0.2,0,0.3,0.1
				s0.1,0,0.1,0S52,12.8,51.8,12.7z M52.5,22.4l0.1-0.1c0,0-0.2,0-0.5,0c-0.4,0-0.7,0-0.9,0l-0.3,0l0.3,0
				C51.8,22.5,52.2,22.5,52.5,22.4z M52.2,18.8c0.1-0.1,0.2-0.2,0.2-0.2c0,0-0.1,0.1-0.3,0.2c-0.2,0.2-0.3,0.3-0.5,0.5l-0.3,0.4
				l0.4-0.3c0.3-0.2,0.4-0.3,0.4-0.4C52,19,52,18.9,52.2,18.8z M52.5,12.2c-0.1-0.1-0.2-0.1-0.2-0.1C52.3,12.1,52.3,12.1,52.5,12.2
				c0,0.1,0.2,0.2,0.3,0.4c0.2,0.2,0.3,0.2,0.3,0.2c0,0-0.1-0.1-0.2-0.3C52.7,12.3,52.6,12.2,52.5,12.2z M53.6,16c0,0,0-0.1,0-0.1
				s0-0.1,0-0.1c0,0,0,0,0,0c0,0-0.1,0.1-0.3,0.4c-0.2,0.2-0.2,0.4-0.2,0.4c0,0.1-0.1,0.2-0.2,0.5l-0.2,0.4l0.2-0.3
				C53.4,16.8,53.6,16.4,53.6,16z M53.1,12c0,0-0.1,0-0.2,0c0,0-0.1,0,0,0c0,0,0,0,0.1,0.1c0.1,0.1,0.2,0.2,0.3,0.2
				c0.1,0,0.2,0.2,0.4,0.4c0.2,0.3,0.4,0.6,0.6,0.9c0.2,0.3,0.3,0.5,0.3,0.5c0,0,0,0,0.1-0.1c0.1-0.1,0.1-0.3,0.1-0.6
				c0-0.4-0.1-0.8-0.3-1c-0.1-0.1-0.4-0.3-0.7-0.4C53.3,12,53.1,11.9,53.1,12z M53,13.2c-0.1-0.1-0.1-0.1-0.1-0.1
				c-0.1,0,0,0.1,0.1,0.3c0.1,0.1,0.1,0.1,0.1,0.1C53.2,13.4,53.1,13.3,53,13.2z M54.1,17.2l0.1-0.2c0,0-0.2,0.2-0.6,0.5
				c-0.6,0.6-0.8,0.9-0.8,0.9c0,0,0.2-0.2,0.5-0.5C53.8,17.6,54,17.4,54.1,17.2z M53.7,14.9c0-0.2-0.1-0.3-0.1-0.4
				c0-0.1-0.1-0.1-0.1,0c0,0.1-0.1,0.2-0.1,0.4l-0.1,0.4c0,0.2-0.1,0.3-0.1,0.3s0,0,0.1-0.1c0.1-0.1,0.2-0.1,0.2-0.2
				c0.1,0,0.1-0.1,0.1-0.1C53.8,15.2,53.8,15.1,53.7,14.9z M54.6,12.1c-0.2-0.1-0.3-0.1-0.4-0.1l-0.2,0l0.2,0.1
				c0.1,0.1,0.3,0.2,0.4,0.3s0.2,0.3,0.3,0.4c0.1,0.2,0.1,0.4,0.1,0.7c0,0.3,0,0.6-0.1,0.9c0,0.3-0.1,0.5,0,0.6l0,0.3l0.1-0.3
				c0.2-0.5,0.3-1.1,0.3-1.7v-0.5l-0.2-0.2C54.9,12.3,54.8,12.2,54.6,12.1z M54.3,14.7c-0.1-0.1-0.1-0.3-0.2-0.3
				c-0.1-0.1-0.1-0.1-0.1-0.1c0,0,0,0.1,0,0.2c0,0.2,0.1,0.3,0.1,0.4c0,0,0.1,0.1,0.1,0.1c0,0,0,0.1,0,0.1c0,0,0,0.1-0.1,0.1
				c0,0,0,0,0,0.1c0,0.1,0,0.1,0,0.2c0,0,0,0.1,0,0.2c0,0,0,0,0.1-0.1c0-0.1,0.1-0.1,0.1-0.3C54.4,15,54.4,14.8,54.3,14.7z M54.4,16
				c0.1-0.1,0.1-0.2,0.1-0.3c0,0,0,0-0.1,0.1C54.4,15.8,54.4,15.8,54.4,16c-0.1,0.1-0.2,0.2-0.1,0.2S54.3,16.1,54.4,16z M55.3,12
				C55.1,11.9,55,11.9,55,12c0,0,0,0,0.1,0.1c0.1,0.1,0.2,0.2,0.3,0.3c0.1,0.1,0.1,0.2,0.1,0.3c0,0.1,0,0.3,0,0.8c0,0.6,0,1-0.1,1.2
				c-0.1,0.2-0.1,0.4-0.1,0.4c0,0,0.1-0.1,0.1-0.2c0.1-0.2,0.2-0.4,0.3-0.6s0.1-0.4,0.2-0.5C56.1,12.9,55.9,12.3,55.3,12z"/>
		</g>
		<g id="XMLID_70_" class="st0">
			<path id="XMLID_71_" class="st7" d="M50.4,11.1c0.3-0.1,0.6-0.1,0.9-0.1c0.9,0,1.6,0.2,2.1,0.7c0.2,0.2,0.4,0.3,0.5,0.3
				c0.1,0,0.2,0.1,0.4,0.2c0.2,0.1,0.3,0.4,0.5,0.8c0.3,0.6,0.5,1.2,0.5,1.8c0,0.6-0.2,1-0.5,1.4c-0.1,0.1-0.2,0.2-0.2,0.3
				s0,0.1,0,0.3c0,0.2,0.1,0.4,0.1,0.6c0,0.1,0.1,0.2,0.1,0.3c0,0,0.1,0,0.2,0c0.1,0,0.2,0,0.2,0.1c0,0.1,0.1,0.3,0.2,0.6
				c0.2,0.6,0.3,1.2,0.2,1.8c0,0.3-0.1,0.5-0.1,0.7c0,0.1,0,0.2-0.1,0.3c0,0-0.1,0.2-0.3,0.5c-0.2,0.4-0.4,0.7-0.7,1
				c-0.3,0.3-0.8,0.7-1.5,1.2c-0.1,0-0.1,0-0.2,0c-0.1,0-0.1-0.1-0.1-0.1c0-0.1,0-0.1-0.1-0.1c0,0-0.1,0-0.3,0.1
				c-0.5,0.1-1,0.2-1.7,0.1c-0.2,0-0.3,0-0.4,0c0,0-0.1,0-0.1,0.1c0,0.1-0.1,0.1-0.1,0.1c-0.1,0-0.2,0-0.4-0.1
				c-0.2-0.1-0.4-0.2-0.6-0.4c-0.2-0.2-0.4-0.3-0.5-0.5c-0.1-0.2-0.2-0.2-0.3-0.2c-0.1,0-0.2,0-0.4-0.1c-0.2-0.1-0.3-0.2-0.4-0.3
				c-0.3-0.3-0.6-0.7-0.8-1.2c-0.2-0.5-0.3-0.9-0.3-1.3c0-0.1,0-0.2,0-0.2c0,0,0,0,0.1,0c0.1,0,0.1,0,0.2,0.1c0,0.1,0.1,0.1,0.1,0.1
				c0.1,0,0.1,0.1,0.2,0.3c0,0,0,0.1,0.1,0.1c0,0,0,0.1,0.1,0.1c0,0,0,0,0,0c0,0,0-0.1,0-0.3c0-0.2-0.1-0.3-0.1-0.4
				c0-0.1,0-0.1,0-0.2s0.1,0,0.1,0c0.1,0,0.1,0.1,0.2,0.2c0,0,0,0.1,0,0.2s0,0.2,0,0.2l0,0.2l0-0.3c0-0.2,0.1-0.3,0.1-0.3
				s0.1,0,0.2-0.1c0.1-0.1,0.2-0.1,0.2,0.1c0,0,0,0.1,0,0.2c0,0.2,0,0.3,0.1,0.4c0.1,0.2,0.3,0.4,0.6,0.6c0.3,0.3,0.4,0.4,0.6,0.5h0
				c-0.1-0.1-0.2-0.2-0.3-0.3c-0.6-0.5-0.8-0.9-0.8-1.1c0,0,0-0.1,0-0.1c0,0,0.1,0,0.1,0c0.1,0,0.1,0,0.1,0
				c-0.1-0.3-0.2-0.5-0.1-0.6c0,0,0.1,0,0.1,0c0,0,0.1,0,0.1,0c0,0,0.1,0.1,0.1,0.1c0,0.1,0.1,0.1,0.1,0.2c0.3,0.8,0.8,1.5,1.5,2
				c0.4,0.3,0.7,0.5,0.7,0.5c0.1,0,0.2,0,0.4,0c0.2-0.1,0.5-0.2,0.8-0.3c0.3-0.1,0.5-0.3,0.7-0.4c0.2-0.1,0.4-0.4,0.5-0.8
				s0.3-0.7,0.3-1c0-0.2,0-0.3,0.1-0.4c0,0,0-0.1,0-0.1c0,0-0.1-0.1-0.2-0.3c-0.1-0.2-0.3-0.4-0.4-0.4c0,0-0.1,0-0.2,0s-0.1,0-0.2,0
				c-0.2,0-0.5-0.1-0.9-0.1c-0.3,0-0.6,0-0.8,0c-0.2,0-0.4,0-0.4,0c0,0-0.1-0.1-0.4-0.1c-0.2,0-0.3,0-0.3-0.1c0,0-0.1-0.1-0.1-0.1
				l0-0.1l0.7,0l0.7,0l-0.4-0.1c-0.2,0-0.4-0.1-0.5-0.1c-0.1,0-0.2,0-0.2-0.1c-0.1-0.1-0.1-0.1,0-0.2c0,0,0.2-0.1,0.4,0
				c0.2,0,0.3,0,0.4,0c0,0,0-0.1-0.1-0.1c-0.1-0.1-0.1-0.1-0.1-0.2s0-0.1,0.1-0.2s0.1-0.1,0.2-0.1c0.1,0,0.3,0,0.6-0.1
				s0.4,0,0.4-0.1c0,0-0.1-0.1-0.2-0.1c-0.1,0-0.3,0-0.4,0c-0.2,0-0.4,0.1-0.6,0.1s-0.3,0-0.3-0.1c0,0,0-0.1,0-0.2
				c0.1-0.1,0.1-0.1,0.2-0.1c0.1,0,0.2,0,0.1-0.1c0-0.1,0-0.1,0.1-0.1c0.1,0,0.3,0,0.6,0c0.1,0,0.1,0,0.2,0c0.1,0,0.2,0,0.2-0.1
				c0.1,0,0.1-0.1,0.2-0.1c0.1,0,0.1-0.1,0.2-0.1c0,0,0-0.1,0-0.1c0-0.1,0.1-0.2,0.3-0.6c0.3-0.4,0.4-0.7,0.5-0.9
				c0-0.3,0.1-0.5,0-0.5c0-0.1-0.1-0.2-0.3-0.3c-0.2-0.2-0.4-0.4-0.6-0.5c-0.2-0.1-0.3-0.2-0.5-0.2c-0.4-0.1-0.9,0-1.3,0.2
				c-0.1,0.1-0.2,0.1-0.3,0.3c-0.1,0.1-0.3,0.3-0.6,0.7c-0.4,0.5-0.6,0.7-0.7,0.9c-0.1,0.1-0.2,0.2-0.3,0.2c-0.2,0-0.1-0.2,0.1-0.4
				c0.2-0.3,0.4-0.5,0.6-0.7c0.1-0.2,0.2-0.3,0.2-0.3c0,0-0.2,0.1-0.5,0.3c-0.3,0.2-0.5,0.2-0.5,0.1c0-0.1,0-0.1-0.1-0.1
				s-0.1,0-0.1-0.1c0,0-0.1,0-0.1,0.1c0,0.1,0,0.2,0.1,0.4c0,0.1,0.1,0.2,0.1,0.3c0,0.1,0,0.1-0.1,0.1c-0.1,0-0.1,0-0.2-0.1
				c-0.1-0.1-0.1-0.2-0.1-0.3L47.8,14l-0.1,0.5c-0.1,0.3-0.2,0.5-0.2,0.5s-0.1-0.1-0.1-0.2c0-0.3,0-0.6,0.1-0.8c0,0,0.1-0.1,0.1-0.2
				s0.1-0.1,0.1-0.2c0,0,0-0.1,0-0.1c0,0-0.1,0.2-0.3,0.5c-0.3,0.6-0.4,1-0.4,1.4c0,0.1,0,0.2,0,0.2c0,0,0,0-0.1,0
				c-0.1,0-0.1,0-0.1-0.1c0,0,0-0.1,0-0.2c0-0.3,0.1-0.7,0.3-1.1c0.2-0.5,0.4-0.9,0.7-1.3c0.2-0.3,0.4-0.6,0.6-0.9
				c0.4-0.7,0.6-1,0.7-1c0,0,0.1,0,0.1,0.1c0,0.1,0,0.1,0,0.2c0,0.1-0.1,0.2-0.2,0.3c-0.1,0.1-0.1,0.2,0,0.2c0,0,0.1-0.1,0.2-0.1
				C49.3,11.5,49.8,11.3,50.4,11.1z M47.1,21c0-0.1-0.1-0.3-0.3-0.6c0,0-0.1-0.1-0.1-0.1c0,0.1,0,0.2,0.1,0.4
				C46.9,21,47,21.1,47.1,21C47.1,21.1,47.1,21,47.1,21z M48.1,22.3c0,0-0.1-0.1-0.4-0.4l-0.3-0.3c0,0,0,0.1,0.1,0.1
				C47.6,22,47.8,22.2,48.1,22.3C48.1,22.3,48.1,22.4,48.1,22.3z M48.5,22.2c0,0-0.1-0.2-0.3-0.6L48,21.1c0,0,0,0.1,0.1,0.3
				s0.2,0.4,0.3,0.5C48.5,22.1,48.5,22.2,48.5,22.2z M52.3,11.5c-0.2-0.1-0.5-0.1-0.9-0.1c-0.4,0-0.7,0-0.9,0.1
				c-0.6,0.1-0.9,0.3-0.9,0.5c0,0.1-0.1,0.1-0.3,0.2c-0.2,0-0.4,0.2-0.6,0.4c-0.2,0.2-0.3,0.4-0.3,0.4c0,0,0,0,0.1,0
				c0.3-0.2,0.6-0.4,1.1-0.7c0.6-0.5,1.3-0.7,2-0.7c0.3,0,0.6,0.1,0.9,0.3c0.3,0.2,0.5,0.2,0.5,0.2c0,0,0,0-0.1-0.1
				C52.8,11.6,52.6,11.5,52.3,11.5z M50.2,12.6L50.2,12.6c-0.1-0.1-0.4,0-0.9,0.3c-0.2,0.1-0.3,0.1-0.3,0.2s-0.1,0.2-0.3,0.4
				l-0.2,0.3l0.2-0.2c0.1-0.1,0.3-0.2,0.6-0.4C49.9,13,50.1,12.8,50.2,12.6z M49.5,22.1c-0.1,0-0.2-0.2-0.5-0.4
				c-0.2-0.2-0.3-0.2-0.3-0.2c0,0.1,0.2,0.2,0.4,0.4c0.2,0.2,0.4,0.3,0.4,0.3C49.6,22.2,49.6,22.2,49.5,22.1z M49.3,22.6
				c-0.2-0.2-0.3-0.3-0.3-0.3s0,0,0.1,0.1l0.1,0.2L49.3,22.6l0.1,0.1C49.5,22.7,49.4,22.6,49.3,22.6z M50.6,23.3c-0.1,0-0.2,0-0.3,0
				l-0.2,0l0.2,0.1C50.4,23.3,50.4,23.3,50.6,23.3C50.6,23.4,50.6,23.4,50.6,23.3c0.1,0.1,0.1,0.1,0.1,0.1
				C50.7,23.3,50.7,23.3,50.6,23.3z M51,12c0-0.1-0.1,0-0.4,0.1c-0.2,0.1-0.3,0.1-0.3,0.1c0,0,0.1,0,0.2,0c0.2,0,0.3-0.1,0.4-0.1
				C50.9,12.1,51,12,51,12z M50.8,22.8c0-0.1,0-0.1,0-0.1s0,0-0.1,0c0,0,0,0.1,0,0.1c0,0.1,0,0.1,0.1,0.1
				C50.8,23,50.8,22.9,50.8,22.8z M51.1,12.5c-0.1,0-0.2-0.1-0.2-0.1c0,0-0.1,0-0.2,0.1c-0.1,0.1-0.1,0.1-0.1,0.1c0,0,0,0,0.1,0
				c0.1,0,0.2,0,0.4-0.1l0.2,0L51.1,12.5z M51.4,22.8c-0.2-0.1-0.3-0.1-0.3,0c0,0.1,0,0.1,0,0.1s0,0,0.1,0c0.1,0,0.1,0,0.2,0
				c0.1,0,0.1,0,0.1,0C51.6,22.9,51.5,22.9,51.4,22.8z M52,22.1l0.1-0.1c-0.1,0-0.2,0.1-0.2,0.1c-0.1,0.1-0.3,0.1-0.5,0.2
				c-0.1,0-0.2,0-0.2,0.1c0,0,0,0,0,0.1c0.1,0,0.2,0,0.4,0c0.2,0,0.3-0.1,0.3-0.1C51.9,22.3,51.9,22.2,52,22.1z M54.6,21.5
				c0.1-0.2,0.1-0.3,0.1-0.3c0,0-0.1,0-0.2,0.1s-0.2,0.2-0.3,0.4c-0.1,0.1-0.2,0.3-0.3,0.3c-0.2,0.3-0.4,0.5-0.7,0.6
				c-0.1,0-0.2,0.1-0.4,0.2c-0.1,0-0.1,0.1-0.2,0.1s-0.2,0-0.3,0c-0.1,0-0.1,0-0.1-0.1s-0.1,0-0.2,0c-0.1,0-0.2,0.1-0.2,0.2
				c0,0.1-0.1,0.1-0.2,0.1c-0.1,0-0.2,0-0.3,0.1s-0.1,0.1,0,0.1c0,0,0.1,0,0.2,0c0.6-0.1,1.2-0.3,1.8-0.6S54.4,22,54.6,21.5z
				 M52.3,17.5l0.2,0c0,0-0.2,0-0.5,0l-0.5,0c0,0,0.1,0,0.2,0C51.9,17.6,52.1,17.6,52.3,17.5z M51.8,12.3c-0.2-0.1-0.3-0.1-0.3-0.1
				s0.1,0.1,0.3,0.2c0.3,0.2,0.4,0.3,0.6,0.4l0.3,0.2l-0.3-0.3C52.1,12.5,51.9,12.4,51.8,12.3z M53.2,21.4l0.2-0.3
				c0,0-0.1,0.1-0.3,0.2s-0.3,0.3-0.3,0.3c0,0-0.2,0.2-0.3,0.4c-0.1,0.1-0.2,0.2-0.2,0.2c0,0,0,0,0.1,0c0.1,0,0.2-0.1,0.4-0.3
				C52.9,21.8,53.1,21.6,53.2,21.4z M53,22.5L53,22.5c0-0.1-0.1,0-0.3,0.1c-0.2,0.1-0.3,0.2-0.3,0.2c0,0,0,0.1,0.1,0.1
				c0.1,0,0.2,0,0.3-0.1S53,22.5,53,22.5z M52.8,12.5c-0.1-0.1-0.2-0.2-0.3-0.2s0,0.1,0.1,0.2c0.2,0.1,0.2,0.2,0.3,0.1
				C52.9,12.6,52.9,12.5,52.8,12.5z M53.5,14.8c0-0.4,0-0.5-0.1-0.5c0,0-0.1,0.1-0.1,0.2c0,0.2-0.2,0.4-0.4,0.8
				c-0.2,0.3-0.2,0.5-0.2,0.5l0.1-0.1c0.1-0.1,0.2-0.1,0.2-0.1c0.1,0,0.2-0.1,0.3-0.2S53.5,15,53.5,14.8z M53.3,17.8
				c-0.2-0.1-0.3-0.1-0.3-0.1c0,0,0,0.1-0.1,0.1c-0.1,0-0.1,0,0,0.1c0.1,0,0.2,0.1,0.3,0.1l0.3,0L53.3,17.8z M53.5,20.7
				c0-0.1,0.1-0.1,0.1-0.3l0-0.1c0,0,0,0.1-0.1,0.2C53.4,20.7,53.3,20.8,53.5,20.7C53.4,20.8,53.4,20.7,53.5,20.7z M54.2,15.6
				c0-0.1,0-0.1-0.1,0c0,0-0.1,0-0.1,0.1c0,0.1-0.1,0.2-0.2,0.3c-0.2,0.2-0.2,0.4-0.2,0.4c0,0,0,0,0.1-0.1c0.1-0.1,0.2-0.2,0.2-0.2
				c0-0.1,0-0.1,0.1-0.1c0,0,0.1-0.1,0.1-0.2S54.2,15.6,54.2,15.6z M53.7,13.2c-0.1-0.1-0.1-0.2-0.2-0.3L53.7,13.2
				c0,0.2,0.1,0.3,0.1,0.3C53.8,13.4,53.8,13.3,53.7,13.2z M53.8,18.3c0,0,0-0.1-0.1-0.1c-0.1-0.1-0.1-0.1-0.2-0.1
				c0,0,0,0.1,0.1,0.1C53.7,18.3,53.8,18.4,53.8,18.3z M54.1,16.5c0-0.1-0.1-0.1-0.3,0.1l-0.2,0.1l0.4,0.4l0.4,0.4l0-0.2
				c0-0.1,0-0.2,0-0.3c0-0.1-0.1-0.1-0.1-0.1c0,0-0.1,0-0.2,0.1c-0.1,0.1-0.2,0.1-0.2,0.1c-0.1,0-0.1-0.1-0.1-0.2
				c0-0.1,0.1-0.1,0.1-0.2C54.1,16.6,54.1,16.5,54.1,16.5z M54,19.2c-0.1-0.2-0.2-0.3-0.3-0.4l-0.1-0.1c0,0.1,0.1,0.2,0.3,0.5
				c0.1,0.2,0.2,0.3,0.2,0.4c0,0,0,0,0.1-0.1C54.2,19.5,54.1,19.4,54,19.2z M53.9,21.4c0-0.1,0-0.2,0-0.4l0-0.3L53.8,21
				c-0.1,0.1-0.1,0.2-0.1,0.2c0,0,0,0.1,0,0.2l0.1,0.1L53.9,21.4z M54.4,12.8c-0.1-0.2-0.2-0.3-0.3-0.3c0,0-0.1,0,0,0
				c0,0,0,0.2,0.1,0.4c0.1,0.3,0.2,0.5,0.2,0.5c0,0.1,0,0.1,0.1,0.1c0,0,0.1-0.1,0-0.3C54.5,13.1,54.4,13,54.4,12.8z M54.4,20.6
				c0-0.1,0-0.3,0-0.4l-0.1-0.1c0,0,0,0,0,0.1C54.2,20.2,54.2,20.4,54.4,20.6l0,0.2L54.4,20.6z M54.9,13.9c-0.1-0.2-0.1-0.3-0.1-0.3
				c0,0-0.1,0-0.1,0.1c0,0,0,0,0,0.1c0,0.1,0,0.3,0,0.6c0.1,0.3,0.1,0.6,0.1,0.9c0,0.3,0,0.4,0,0.4c0,0,0.1-0.1,0.1-0.4
				C55.1,14.9,55,14.4,54.9,13.9z M54.8,20.1c0-0.1,0-0.3-0.1-0.5l-0.1-0.1c0,0,0,0.2,0,0.5c0,0.4,0,0.6,0,0.6l0-0.1
				C54.8,20.4,54.8,20.3,54.8,20.1z"/>
		</g>
		<g id="XMLID_56_" class="st0">
			<path id="XMLID_57_" class="st7" d="M51.5,11.9c0.7-0.7,1.1-1,1.1-1c0,0,0.1,0,0.1,0.1c0,0,0,0.2-0.3,0.4
				c-0.2,0.2-0.5,0.5-0.7,0.8l-0.4,0.5l0.4-0.4c0.5-0.4,0.8-0.6,1-0.6c0.1,0,0.1,0,0.3-0.1c0.2-0.2,0.4-0.3,0.5-0.3
				c0,0,0.1,0.1,0.1,0.3l0.1,0.2h0c0-0.1,0.1-0.1,0.1-0.1c0.1,0,0.1,0,0.1,0.1s0,0.3-0.1,0.6c-0.1,0.6-0.2,1.1-0.2,1.6
				c0,0.5,0.1,1.3,0.3,2.6c0.1,0.9,0.2,1.4,0.2,1.5v0.2h0.8c0.6,0,0.8,0,0.8,0.1c0,0.1-0.1,0.1-0.3,0.2c-0.2,0-0.2,0.1-0.2,0.1
				c0,0,0,0.1-0.1,0.2L55,19.3h0.4c0.2,0,0.4,0,0.5,0c0.1,0,0.1,0.1,0,0.1c0,0.1-0.2,0.1-0.6,0.1c-0.8,0-1.2,0-1.2,0.1
				c0,0,0.2,0.1,0.6,0.1c0.4,0,0.6,0.1,0.8,0.1c0.1,0,0.2,0.1,0.2,0.2c0,0,0,0.1-0.1,0.1c-0.1,0-0.3,0-0.6,0c-0.4,0-0.6,0-0.6,0
				c-0.1,0-0.1,0.1-0.1,0.1c0,0.1,0,0.1,0.1,0.1c0.1,0,0.3,0,0.7,0l0.8,0v0.1c0,0.1,0,0.1-0.1,0.1c0,0-0.2,0-0.4,0.1
				c-0.3,0-0.5,0.1-0.8,0.1l-0.4,0l0,1l0,1h-0.1c-0.1,0-0.1,0-0.1,0s0-0.1,0-0.2c0-0.2,0-0.5-0.1-1c-0.1-0.5-0.1-0.7-0.1-0.8
				c-0.1-0.1,0,0.7,0.2,2.3C54,24,54,24.5,54,24.5c-0.1,0.1-0.2,0-0.2-0.2c0-0.1-0.1-0.3-0.1-0.5c-0.1-0.3-0.1-0.5-0.2-0.6
				c0-0.1-0.1-0.1-0.1-0.1s-0.1,0-0.1,0c0,0,0-0.1,0-0.2v-0.3l-0.1,0.2c0,0.1-0.1,0.2-0.2,0.2s-0.1,0.1-0.1,0.1c0,0-0.1,0.1-0.2,0.1
				c-0.1,0-0.1,0-0.1,0s0-0.1,0-0.2c0-0.2,0-0.2-0.1-0.2s-0.1,0.3-0.1,0.9v0.9l-0.1,0l-0.1,0v-1.9c0-1.2,0-1.8,0-1.9
				c0,0-0.4,0-1.1,0c-0.7,0-1.5,0-2.7,0c-1.1,0-1.8-0.1-2.2-0.1c-0.4-0.1-0.6-0.2-0.6-0.4c0-0.1,0.1-0.2,0.2-0.3
				c0.1-0.1,0.2-0.2,0.4-0.2l0.2-0.1l-0.2-0.1c-0.1,0-0.2-0.1-0.2-0.2c0-0.1,0-0.1,0.1-0.1c0,0,0.2,0,0.5,0l0.5-0.1
				c0,0-0.1-0.1,0-0.3l0-0.3L47,18.9c-0.1,0-0.2,0-0.3,0c-0.1-0.1-0.1-0.1,0-0.2c0.1-0.2,0.2-0.2,0.1-0.2l0,0c-0.1,0-0.1,0-0.2-0.1
				c0,0-0.1-0.1-0.1-0.1c0,0,0-0.1,0.1-0.2c0.1-0.1,0.3-0.5,0.7-1c0.3-0.5,0.8-1.1,1.5-2c0.6-0.9,1.1-1.5,1.4-1.9
				C50.5,12.9,50.9,12.5,51.5,11.9z M46.5,20.2c0-0.1-0.1-0.1-0.1-0.1c0,0-0.1,0-0.2,0.1S46,20.3,46,20.3c-0.1,0.1,0.3,0.2,1.1,0.3
				c0.2,0,0.6,0,1.1,0c0.6,0,1.1,0,1.5,0c0.5,0,0.7,0,0.6,0c0,0-0.5,0-1.3-0.1C47.5,20.4,46.7,20.3,46.5,20.2z M48.5,19
				c-0.4,0-0.6-0.1-0.7-0.1c-0.1,0-0.2,0-0.3,0.2l-0.1,0.2l0.1,0c0.1,0,0.5,0,1.2-0.1l0.8,0C49.4,19.1,49.1,19.1,48.5,19z
				 M48.9,15.5l0-0.1l-0.8,1c-0.4,0.6-0.6,0.8-0.5,0.8l0,0c0.1-0.1,0.3-0.4,0.6-0.8C48.6,16,48.9,15.7,48.9,15.5z M51.8,20
				c-0.3,0-0.9-0.1-1.9-0.1c-1,0-1.6,0-1.7,0L47.9,20l0.5,0.1c0.9,0.1,1.9,0.2,2.9,0.1L52,20C52,20,51.9,20,51.8,20z M52,18.3
				c0-0.1-0.1-0.9-0.1-2.4l0-2.2L51.7,14c0,0-0.1,0.2-0.3,0.4s-0.4,0.5-0.7,0.9c-0.3,0.4-0.6,0.7-0.8,1l-1.6,2h0.3
				c0.2,0,0.8,0,1.8,0.1c1.1,0.1,1.6,0.1,1.6,0.1C52,18.5,52,18.5,52,18.3z M51.5,13.7l0.4-0.5c0,0-0.4,0.4-1.1,1.2
				c-0.7,0.8-1.2,1.5-1.6,2c-0.5,0.7-0.7,1-0.6,1c0,0,0.5-0.6,1.3-1.6C50.7,14.7,51.3,14,51.5,13.7z M53,21.5c0-0.5,0-0.7,0-0.7
				c-0.1,0-0.1,0.4-0.1,1.1c0,0.4,0,0.6,0,0.6C53,22.4,53,22.1,53,21.5z M53.3,18.2c0-0.1,0-0.2,0-0.3l0,0V18L53.3,18.2z M53.8,18.1
				l-0.1-0.8c0,0,0,0.2,0,0.4c0,0.5,0.1,0.7,0.1,0.8c0,0,0,0,0-0.3C53.8,18.2,53.8,18.2,53.8,18.1z M53.8,19.3c0,0,0.1-0.1,0.1-0.2
				c0-0.1,0-0.2-0.1-0.2c0,0-0.1,0.1-0.1,0.2C53.8,19.2,53.8,19.3,53.8,19.3z M54.7,18.9c-0.1,0-0.2,0-0.3,0c-0.1,0-0.2,0-0.2,0.2
				c0,0.1,0,0.1,0,0.1c0,0,0.1,0,0.3,0c0.3-0.1,0.4-0.1,0.3-0.2C54.8,18.9,54.8,18.9,54.7,18.9z"/>
		</g>
		<g id="XMLID_7_" class="st0">
			<path id="XMLID_30_" class="st7" d="M49,11c0.4-0.1,1.1,0,1.9,0c0.9,0.1,1.9,0.1,3,0.1l1,0v0.1c0,0.1,0,0.1-0.1,0.2
				c0,0-0.4,0-1,0.1c-0.5,0-0.8,0.1-0.8,0.1c0.1,0,0.3,0,0.6,0c0.3,0,0.5,0,0.5,0.1c0,0,0.1,0.1,0.3,0.1s0.3,0.1,0.3,0.2
				c0,0.1,0,0.1-0.1,0.1c-0.1,0-0.7,0.1-1.8,0.1c-1.2,0-1.8,0-1.8,0.1c0,0,0.2,0.1,0.5,0.1c0.5,0.1,1,0.1,1.7,0.1c0.5,0,0.7,0,0.9,0
				c0.1,0,0.2,0,0.2,0.1c0.1,0.1,0.2,0.1,0.5,0.1c0.3,0,0.5,0,0.5,0c0,0,0.1,0.1,0.2,0.1s0.1,0,0.1,0.1c0,0.1,0,0.1-0.1,0.1
				c0,0-0.2,0-0.5,0.1c-0.4,0-0.6,0-0.7,0.1c-0.1,0-0.1,0.1-0.1,0.2c0,0.1-0.1,0.2-0.2,0.2c-0.2,0-0.6,0.1-1.3,0.1
				c-0.8,0-1.3,0.1-1.3,0.1c-0.1,0-0.4,0-0.9,0.1c-0.5,0-0.8,0.1-0.8,0.1c-0.1,0.1-0.2,0.6-0.2,1.4l0,0.7l0.1-0.1
				c0.1,0,0.2-0.1,0.5-0.1c0.2,0,0.5-0.1,0.7-0.1h0.3l-0.4-0.2c-0.1-0.1-0.2-0.1-0.3-0.2c-0.1,0-0.1-0.1-0.1-0.1
				c0-0.1,0.1-0.1,0.2-0.1c0.1,0,0.3,0.1,0.6,0.2c0.4,0.2,0.7,0.3,1,0.3c0.9,0.1,1.7,0.6,2.4,1.6c0.8,1.1,1,2.1,0.6,3
				c-0.1,0.2-0.1,0.5-0.2,0.8c0,0.6-0.2,1-0.4,1.4c-0.1,0.1-0.2,0.3-0.4,0.5c-0.2,0.2-0.4,0.3-0.5,0.4c-1,0.7-2,0.9-3.1,0.7
				c-0.3-0.1-0.7-0.1-0.9-0.1c-0.4-0.1-0.8-0.2-1.2-0.5c-0.4-0.3-0.7-0.6-1-1c-0.1-0.2-0.3-0.4-0.4-0.8c-0.2-0.3-0.2-0.6-0.2-0.6
				c0-0.1,0.1-0.2,0.2-0.2c0.1,0,0.2,0.1,0.4,0.2l0.2,0.1l0-0.1c0-0.1,0-0.2,0-0.3c0-0.1,0.1-0.1,0.2-0.1c0.1,0,0.1,0,0.2,0.1
				l0.1,0.1L48,20.6c0-0.2,0-0.5,0-0.7c0-0.3,0-0.4,0.1-0.5c0.1-0.1,0.1-0.2,0.2-0.2c0.1,0,0.1,0.1,0.1,0.2c0,0.2,0.1,0.6,0.1,1
				s0.1,0.7,0.1,0.7c0,0,0.1,0.1,0.3,0.2l0.2,0.1L49,21.3c-0.1-0.1-0.1-0.2-0.1-0.3c0-0.1,0-0.2,0.1-0.2c0.1,0,0.3,0,0.7,0
				c0.4,0,0.7,0.1,0.9,0.2c0.2,0.1,0.5,0.2,0.8,0.4c0.2,0.1,0.3,0.2,0.4,0.2c0.1,0,0.2-0.1,0.3-0.3c0.2-0.3,0.5-0.6,0.8-1
				c0.3-0.4,0.6-0.6,0.8-0.7c0.2-0.1,0.2-0.3,0.2-0.7c0-0.3-0.2-0.6-0.5-1s-0.7-0.7-1.1-0.9c-0.6-0.3-1-0.4-1.4-0.3S50,17,49.4,17.3
				c-0.2,0.2-0.3,0.3-0.4,0.4c0,0.1-0.1,0.2-0.2,0.2s-0.2,0.1-0.3,0.3c-0.1,0.2-0.1,0.3-0.2,0.3c0,0-0.1,0-0.1,0s0-0.1,0-0.1
				c0-0.1,0-0.2,0.1-0.4c0.1-0.1,0.1-0.3,0.1-0.3c0-0.1-0.1,0-0.2,0.1c-0.1,0.1-0.2,0.1-0.3,0.1c0,0-0.1,0-0.1,0c0,0,0,0.1-0.1,0.2
				c0,0.2-0.1,0.3-0.2,0.3c-0.2,0.1-0.2,0-0.2-0.1c0-0.1,0-0.4,0.1-0.9c0.1-0.7,0.2-1.2,0.2-1.7c0-0.6,0-1.3,0.1-1.9
				c0.1-0.7,0.1-1.1,0.2-1.3c0-0.1,0-0.1-0.1-0.1c-0.1,0-0.1,0-0.2-0.1c0-0.1-0.1-0.1,0-0.2c0,0,0.1-0.1,0.2-0.1
				c0.1,0,0.2,0,0.2-0.1c0-0.1,0.1-0.1,0.2-0.1s0.3-0.1,0.4-0.2c0.2-0.2,0.3-0.2,0.4-0.1c0,0.1,0,0.1,0.1,0.1c0.1,0,0.1,0,0.1,0
				c0,0,0,0,0,0c0,0,0-0.1,0-0.1c0,0,0-0.1-0.1-0.1c-0.1,0-0.2,0-0.4-0.1c-0.2,0-0.3-0.1-0.3-0.2c0-0.1,0-0.1,0.1-0.1
				C48.7,11.1,48.8,11.1,49,11z M47.7,21.8c-0.1-0.1-0.2-0.3-0.3-0.4c-0.1-0.1-0.1-0.1-0.1-0.1l0,0.1c0,0.2,0.2,0.4,0.3,0.7
				c0.2,0.3,0.3,0.5,0.5,0.6c0.3,0.4,0.7,0.6,1.2,0.8l0.4,0.1l-0.3-0.2c-0.2-0.2-0.3-0.3-0.4-0.4c-0.1-0.1-0.4-0.3-0.6-0.6
				S47.8,22,47.7,21.8z M48.1,14.2c0-0.1,0-0.2,0-0.3c0,0.1,0,0.1,0,0.2L48.1,14.2z M48.2,16.9c0.1-0.1,0.1-0.2,0-0.3l0-0.2
				l-0.1,0.3c0,0.2,0,0.3,0,0.3C48.1,17,48.1,17,48.2,16.9z M48.4,17.2c0-0.1-0.1-0.1-0.2,0.1l-0.1,0.2l0.1-0.1
				C48.4,17.3,48.4,17.2,48.4,17.2z M48.5,15.6c0-0.5,0-0.8,0-0.8c0,0,0,0,0,0.1c0,0,0,0.1,0,0.1c0,0,0,0.1,0,0.1
				c-0.1,0.3-0.1,0.7,0,1.1c0,0.1,0,0.1,0.1,0C48.5,16,48.5,15.9,48.5,15.6z M48.9,14c0-0.1,0-0.1,0-0.2c0,0,0,0,0,0
				C48.9,13.8,48.9,13.8,48.9,14L48.9,14L48.9,14z M49,13.2c0-0.1,0.1-0.2,0-0.3s0,0-0.1,0S49,13.1,49,13.2c-0.1,0.1,0,0.1,0,0.1
				L49,13.2z M49.8,22.3c-0.2-0.1-0.4-0.2-0.5-0.2l-0.2-0.1c0,0,0,0,0.1,0.1c0.1,0.1,0.5,0.3,1.2,0.6c0.7,0.3,1.1,0.5,1.2,0.5
				c0,0,0,0-0.1-0.1s-0.2-0.1-0.3-0.2c-0.4-0.2-0.6-0.4-0.8-0.4C50.2,22.5,50,22.4,49.8,22.3z M50.7,21.4c-0.3-0.1-0.6-0.2-0.9-0.2
				c-0.3,0-0.5,0-0.5,0c0,0,0.1,0.1,0.2,0.2l0.1,0.2h0.8l0.8,0L50.7,21.4z M51.7,16.1c-0.3-0.2-0.6-0.2-0.9-0.3
				c-1,0-1.5,0.2-1.5,0.8c0,0,0,0,0.1,0c0.1,0,0.1,0,0.2-0.1c0.2-0.1,0.6-0.1,1-0.2c0.5-0.1,0.8-0.1,1.1-0.1l0.5,0L51.7,16.1z
				 M50.7,13.1C50.3,13,50,13,50,13c-0.1,0-0.2,0-0.2,0c0,0,0,0,0,0.1c0,0.1,0,0.1,0.1,0.1c0.1,0,0.3,0,0.6,0h0.7L50.7,13.1z
				 M51.7,22.2c0-0.1-0.1-0.1-0.2-0.2c-0.1,0-0.3,0-0.6,0.1l-0.5,0.1l0.3,0.1c0.4,0.1,0.7,0.2,1.1,0.1c0.1,0,0.1,0,0,0
				C51.8,22.4,51.7,22.3,51.7,22.2z M52,11.8c0,0-0.2-0.1-0.5-0.1c-0.4,0-0.6,0-0.7,0.1c-0.1,0,0,0,0.5,0.1
				C51.7,11.8,52,11.8,52,11.8z M52.1,22.9c0-0.1-0.1-0.1-0.2-0.1h-0.2l0.2,0.1C52,22.9,52,23,52.1,22.9
				C52.1,23,52.1,22.9,52.1,22.9z M53.7,22C53.8,22,53.7,22,53.7,22C53.7,22,53.7,22,53.6,22l-0.5,0c-0.2,0-0.4,0.1-0.6,0.2
				c-0.3,0.2-0.3,0.3-0.2,0.3c0.2,0,0.4-0.1,0.8-0.2C53.5,22.2,53.7,22.1,53.7,22z M53,22.8c0.1-0.1,0.2-0.2,0.1-0.2
				c-0.1,0-0.3,0-0.4,0.1l-0.3,0.1l0,0.2c0,0.1,0,0.2,0,0.2c0,0,0.1,0,0.3-0.1S52.9,22.9,53,22.8z M54.6,21.5
				c0.1-0.3,0.1-0.4,0.1-0.5c0-0.1,0-0.1-0.1-0.1c0,0,0,0,0,0.1c0,0.1-0.1,0.2-0.1,0.3c-0.2,0.9-0.7,1.6-1.7,2
				c-0.3,0.1-0.5,0.2-0.5,0.2c0,0,0.2,0,0.4-0.1c0.2-0.1,0.5-0.2,0.6-0.3C54,22.7,54.4,22.2,54.6,21.5z M53.7,20.1
				c0-0.1,0-0.2,0-0.2c-0.1,0-0.3,0.2-0.7,0.7c-0.4,0.4-0.6,0.7-0.5,0.7c0,0,0.1,0,0.4-0.2s0.4-0.2,0.5-0.3
				C53.4,20.8,53.5,20.5,53.7,20.1z M53,16.1c-0.2-0.1-0.3-0.2-0.4-0.2l-0.1,0c0,0,0.1,0.1,0.2,0.1c0.9,0.5,1.5,1.2,1.9,1.9
				c0.1,0.2,0.2,0.4,0.2,0.6c0,0.2,0.1,0.5,0.1,0.9l0,0.3l0-0.3c0.1-0.6-0.1-1.2-0.6-2c-0.2-0.3-0.4-0.6-0.7-0.8
				C53.4,16.4,53.2,16.3,53,16.1z M52.8,21.6c0.1-0.1,0.1-0.1,0.1-0.1c0,0-0.1,0-0.2,0.1c-0.2,0.1-0.2,0.1-0.1,0.1
				C52.6,21.7,52.7,21.7,52.8,21.6z M53.3,17.3c-0.3-0.3-0.5-0.4-0.6-0.4c0,0,0.1,0.1,0.2,0.1c0.1,0.1,0.3,0.2,0.5,0.4
				c0.2,0.1,0.2,0.2,0.3,0.2C53.6,17.6,53.4,17.4,53.3,17.3z M53.7,21c0.1-0.1,0.1-0.1,0.1-0.1c-0.1,0-0.2,0.2-0.5,0.5
				c-0.1,0.2-0.2,0.3-0.1,0.3c0.1,0,0.1,0,0.1-0.1c0,0,0.1-0.1,0.1-0.3C53.6,21.2,53.7,21.1,53.7,21z M54.2,20
				c0-0.1,0.1-0.2,0.1-0.2s0,0-0.1,0c-0.1,0-0.1,0.1-0.2,0.2c0,0.1-0.1,0.2-0.1,0.3h0c0,0,0,0,0,0C54,20.3,54.1,20.2,54.2,20z
				 M54.6,20.4c0-0.1,0-0.2,0-0.2c0,0,0,0,0,0c0,0,0,0,0,0.1c0,0.1,0,0.2,0,0.2C54.6,20.5,54.6,20.5,54.6,20.4
				C54.6,20.5,54.6,20.5,54.6,20.4z"/>
		</g>
	</g>
</g>
</svg>
