<?xml version="1.0" encoding="utf-8"?>
<!-- Generator: Adobe Illustrator 19.0.0, SVG Export Plug-In . SVG Version: 6.00 Build 0)  -->
<svg version="1.0" id="Calque_51" xmlns="http://www.w3.org/2000/svg" xmlns:xlink="http://www.w3.org/1999/xlink" x="0px" y="0px" width="150px" height="100px"
	 viewBox="0 0 100 150" style="enable-background:new 0 0 100 150;" xml:space="preserve">
<style type="text/css">
	.st0{fill:#A7A9AC;stroke:#58595B;stroke-miterlimit:10;}
	.st1{fill:#A7A9AC;fill-opacity:0.33;stroke:#58595B;stroke-miterlimit:10;}
	.st2{fill:#A7A9AC;fill-opacity:0.32;stroke:#58595B;stroke-miterlimit:10;}
	.st3{fill:#A7A9AC;fill-opacity:0.49;stroke:#6D6E71;stroke-miterlimit:10;enable-background:new    ;}
	.st4{fill:#A7A9AC;stroke:#58595B;stroke-miterlimit:10;enable-background:new    ;}
	.st5{fill:#A7A9AC;fill-opacity:0.42;stroke:#58595B;stroke-miterlimit:10;}
	.st6{fill:#A7A9AC;fill-opacity:0.46;stroke:#58595B;stroke-miterlimit:10;enable-background:new    ;}
	.st7{display:none;opacity:0.35;fill:#A7A9AC;stroke:#58595B;stroke-miterlimit:10;stroke-opacity:0.11;}
	.st8{display:none;fill:#A7A9AC;stroke:#58595B;stroke-miterlimit:10;}
</style>
<g id="Calque_40">
	<g id="圖層_22_1_">
		<path id="XMLID_323_" class="st0" d="M79.4,96.6h4.9c0.6,0,1.2-0.5,1.2-1.2V50.6c0-0.6-0.5-1.2-1.2-1.2h-4.9
			c-0.6,0-1.2,0.5-1.2,1.2v44.8C78.2,96,78.7,96.6,79.4,96.6z"/>
		<path id="XMLID_322_" class="st0" d="M23,96.8h-4.9c-0.6,0-1.2-0.5-1.2-1.2V50.8c0-0.6,0.5-1.2,1.2-1.2H23c0.6,0,1.2,0.5,1.2,1.2
			v44.8C24.2,96.3,23.7,96.8,23,96.8z"/>
	</g>
	<g id="truck">
		<rect id="XMLID_321_" x="27.6" y="49.6" class="st0" width="48.7" height="44.1"/>
		<polygon id="XMLID_319_" class="st0" points="76.3,96.8 70.2,96.8 67.1,96.8 64.1,96.8 64.1,96.8 64.1,95.3 58,95.3 58,95.3 
			58,96.8 45.9,96.8 45.9,95.3 39.7,95.3 39.7,96.8 33.7,96.8 27.6,96.8 27.6,95.3 27.6,93.7 76.3,93.7 		"/>
		<polygon id="XMLID_318_" class="st0" points="76.3,96.8 70.2,96.8 67.1,96.8 64.1,96.8 64.1,96.8 64.1,95.3 58,95.3 58,95.3 
			58,96.8 45.9,96.8 45.9,95.3 39.7,95.3 39.7,96.8 33.7,96.8 27.6,96.8 27.6,95.3 27.6,93.7 76.3,93.7 		"/>
		<rect id="XMLID_313_" x="27.6" y="49.6" class="st1" width="48.7" height="9.1"/>
		<rect id="XMLID_309_" x="27.6" y="84.6" class="st2" width="48.7" height="3"/>
		<path id="XMLID_307_" class="st0" d="M79.5,99.8H70c-0.7,0-1.3-0.6-1.3-1.3V47.9c0-0.7,0.6-1.3,1.3-1.3h9.5c0.7,0,1.3,0.6,1.3,1.3
			v50.7C80.8,99.2,80.2,99.8,79.5,99.8z"/>
		<path id="XMLID_306_" class="st0" d="M70,100.2c-0.4,0-0.9-0.2-1.2-0.5c-0.3-0.3-0.5-0.7-0.4-1.1l0-50.7c0-0.9,0.7-1.6,1.6-1.6
			h9.5c0.9,0,1.6,0.7,1.6,1.6v50.7c0,0.9-0.7,1.6-1.6,1.6H70z"/>
		<rect id="XMLID_301_" x="68.6" y="81.6" class="st3" width="12.2" height="3"/>
		<rect id="XMLID_300_" x="68.6" y="84.6" class="st4" width="12.2" height="12.2"/>
		<rect id="XMLID_296_" x="68.6" y="96.7" class="st5" width="12.2" height="0.1"/>
		<rect id="XMLID_291_" x="68.6" y="96.7" class="st5" width="12.2" height="0.1"/>
		<rect id="XMLID_287_" x="68.6" y="84.6" class="st5" width="12.2" height="0.1"/>
		<rect id="XMLID_283_" x="68.6" y="61.8" class="st3" width="12.2" height="3"/>
		<rect id="XMLID_282_" x="68.6" y="49.6" class="st4" width="12.2" height="12.2"/>
		<rect id="XMLID_278_" x="68.6" y="49.6" class="st5" width="12.2" height="0.1"/>
		<rect id="XMLID_274_" x="68.6" y="49.6" class="st5" width="12.2" height="0.1"/>
		<rect id="XMLID_270_" x="68.6" y="61.7" class="st5" width="12.2" height="0.1"/>
		<path id="XMLID_269_" class="st0" d="M22.9,100.2c-0.4,0-0.9-0.2-1.2-0.5c-0.3-0.3-0.5-0.7-0.4-1.1l0-50.7c0-0.9,0.7-1.6,1.6-1.6
			h9.5c0.9,0,1.6,0.7,1.6,1.6v50.7c0,0.9-0.7,1.6-1.6,1.6H22.9z"/>
		<rect id="XMLID_265_" x="21.5" y="81.6" class="st3" width="12.2" height="3"/>
		<rect id="XMLID_264_" x="21.5" y="84.6" class="st4" width="12.2" height="12.2"/>
		<rect id="XMLID_260_" x="21.5" y="96.7" class="st5" width="12.2" height="0.1"/>
		<rect id="XMLID_256_" x="21.5" y="96.7" class="st5" width="12.2" height="0.1"/>
		<rect id="XMLID_252_" x="21.5" y="84.6" class="st5" width="12.2" height="0.1"/>
		<rect id="XMLID_248_" x="21.5" y="61.8" class="st3" width="12.2" height="3"/>
		<rect id="XMLID_247_" x="21.5" y="49.6" class="st4" width="12.2" height="12.2"/>
		<rect id="XMLID_243_" x="21.5" y="49.6" class="st5" width="12.2" height="0.1"/>
		<rect id="XMLID_239_" x="21.5" y="49.6" class="st5" width="12.2" height="0.1"/>
		<rect id="XMLID_235_" x="21.5" y="61.7" class="st5" width="12.2" height="0.1"/>
		<path id="XMLID_232_" class="st6" d="M21.5,47.9v1.7h12.2v-1.7c0-0.7-0.6-1.3-1.3-1.3h-9.5C22.1,46.5,21.5,47.1,21.5,47.9z"/>
		<path id="XMLID_229_" class="st6" d="M68.6,47.9v1.7h12.2v-1.7c0-0.7-0.6-1.3-1.3-1.3H70C69.2,46.5,68.6,47.1,68.6,47.9z"/>
		<path id="XMLID_226_" class="st6" d="M68.7,98.5v-1.7h12.2v1.7c0,0.7-0.6,1.3-1.3,1.3H70C69.3,99.8,68.7,99.2,68.7,98.5z"/>
		<path id="XMLID_223_" class="st6" d="M21.5,98.5v-1.7h12.2v1.7c0,0.7-0.6,1.3-1.3,1.3h-9.5C22.1,99.8,21.5,99.2,21.5,98.5z"/>
		<line id="XMLID_222_" class="st0" x1="34.3" y1="49.6" x2="68.2" y2="49.6"/>
		<line id="XMLID_221_" class="st0" x1="34.3" y1="93.4" x2="68.2" y2="93.4"/>
		<path id="XMLID_327_" class="st0" d="M60.5,51.8H41.1c-1.3,0-2.4-0.2-2.4,2v0c0,2.2,1.1,4,2.4,4h19.4c1.3,0,2.4-1.8,2.4-4v0
			C62.9,51.6,61.8,51.8,60.5,51.8z"/>
		<path id="XMLID_331_" class="st0" d="M60.5,51.8H41.1c-1.3,0-2.4-0.2-2.4,2c0,1.8,0.7,3.4,1.8,3.9c-0.3-0.7-0.6-1.6-0.6-2.7v0
			c0-2.2,1-2,2.2-2h17.4c1.2,0,2.2-0.2,2.2,2c0,1-0.2,2-0.6,2.7c1-0.5,1.8-2,1.8-3.9C62.9,51.6,61.8,51.8,60.5,51.8z"/>
		<rect id="XMLID_316_" x="34.3" y="60.3" class="st0" width="33.7" height="33.1"/>
		<path id="XMLID_220_" class="st0" d="M66.8,63.1"/>
		<path id="XMLID_219_" class="st0" d="M68,63.1"/>
		<path id="XMLID_320_" class="st0" d="M61.2,89.6h-2.6c-1,0-1.7-0.8-1.7-1.7v-21c0-1,0.8-1.7,1.7-1.7h2.6c1,0,1.7,0.8,1.7,1.7v21
			C62.9,88.9,62.1,89.6,61.2,89.6z"/>
		<path id="XMLID_325_" class="st0" d="M44.2,89.6h-2.6c-1,0-1.7-0.8-1.7-1.7v-21c0-1,0.8-1.7,1.7-1.7h2.6c1,0,1.7,0.8,1.7,1.7v21
			C46,88.9,45.2,89.6,44.2,89.6z"/>
		<path id="XMLID_218_" class="st0" d="M38.1,62.7"/>
		<path id="XMLID_217_" class="st0" d="M35.7,93.9"/>
		<path id="XMLID_216_" class="st0" d="M38.1,93.9"/>
		<rect id="XMLID_326_" x="33.6" y="61.8" class="st7" width="35" height="0.6"/>
		<polygon id="XMLID_333_" class="st8" points="51.1,57.5 55.5,57.5 60.2,52.2 54.4,52.2 		"/>
	</g>
</g>
</svg>
