<?xml version="1.0" encoding="utf-8"?>
<!-- Generator: Adobe Illustrator 19.0.0, SVG Export Plug-In . SVG Version: 6.00 Build 0)  -->
<svg version="1.0" id="圖層_1" xmlns="http://www.w3.org/2000/svg" xmlns:xlink="http://www.w3.org/1999/xlink" x="0px" y="0px" width="300px" height="260px"
	 viewBox="0 0 300 260" style="enable-background:new 0 0 300 260;" xml:space="preserve">
<style type="text/css">
	.st0{opacity:0.7;}
	.st1{opacity:0.2;enable-background:new    ;}
	.st2{fill:#00A651;stroke:#414042;stroke-miterlimit:10;}
	.st3{fill:#39B54A;}
	.st4{opacity:0.31;fill:#1A643A;enable-background:new    ;}
	.st5{fill:#019547;stroke:#046938;stroke-width:0.5;stroke-miterlimit:10;}
	.st6{opacity:0.16;fill:#010101;enable-background:new    ;}
	.st7{fill:#046938;}
</style>
<g id="small">
	<g id="XMLID_527_" class="st0">
		<path id="XMLID_261_" class="st1" d="M62.6,24.5c-0.7-0.4-0.8-0.9-0.7-1.3c0.2-0.4,0.7-0.8,1.3-0.9c-1-0.8,0.4-1.5,0.8-1.7
			c0.4-0.3,0.8-0.5,1.2-0.7s0.8-0.4,1.3-0.5c0.8-0.1,1.8-0.1,2.7,0.4C69,19.4,68.7,19,69,18.5c1.2-1.7,0.8-2.9,1-4.5
			c0.1-0.6,0.3-1.2,0.6-1.7c0.3-0.5,0.6-0.9,1-1.3c2.8-2.2,6.6-1.6,10-1.2c0.7,0.1,1.4,0.1,2,0.2c0.4-0.6,1.1-1.1,1.8-1.3
			c0.7-0.2,1.4,0.1,1.9,0.9c0-0.4,0-0.8,0.2-1c0.6-0.2,0.8,0.2,1.2,0.6c-0.2-0.4-0.2-0.8-0.2-1.2c0.6,0.4,1.9,0.4,1.9-0.6
			c0.4,0.4,0.8,0.8,1.2,1c0-0.2,0-0.6,0-0.8c0.9,0.8,2.1,1.5,3.2,2.2c0.6,0.4,1.1,0.8,1.6,1.2c1.2,0.8,2.1,2.2,2.3,3.6
			c0.1,0.5,0.1,1-0.1,1.4c1-0.4,1.7-1.2,2.5-1.9c-0.4,0.8,0.6,1,0.6,1.7c0.2,0,0.4-0.2,0.6-0.2c1,0.8,1.7,1.4,3.1,1.7
			c0.4,0.2,0.6,0.4,0.8,0.8c0.2,0.6,0.5,1.2,0.7,1.8c0.6,1.2,1.1,2.5,1.5,3.8s0.6,2.7,0.8,4.1c0.2,1,0.2,1.9,0.1,2.9
			c-0.1,0.5-0.1,1-0.2,1.4c-0.3,1.1-0.5,2.3-0.5,3.4c-0.1,0.8,0.3,1.6,0.6,2.3c0,0.7,0.8,1.1,0,1.9c1,0.6,1.4,1.9,1.2,2.9
			c-0.2,1-0.4,1.9-0.4,2.7c0,0.4,0,0.8,0.1,1.3c0.1,0.4,0.3,1,0.5,1.4c-1.7,0.2-0.6,1.4-1.2,2.5c-1.4,2.1-3.7,2.7-5.2,3.7
			c-2.7,1.4-5.6,1.9-8.5,4.1c-0.6,0.2-1.2,0.6-1.9,0.4c0,0.2,0.2,0.4,0.2,0.6c-0.4-0.4-0.8-0.6-1.5-0.6c-0.5-0.2-1.1-0.3-1.6-0.4
			s-1.1-0.2-1.6-0.4c-0.5-0.1-1-0.3-1.5-0.5c-1.2-1.2-2.2-2.4-3.9-3c0,2.1-2.5,1-3.5,0.8c1,0.4,0.8,1.7,0.2,2.3
			c-1.2,1.2-2.9,1.7-4.8,1.4c-1.2-0.2-2.9-1.2-2.5-2.7c-2.3,0.2-4.8-0.2-6.2-2.3c-0.1-0.4-0.6-0.6-1-0.9c-0.4-0.3-0.6-0.6-0.2-1.1
			c-0.2,0-0.4,0-0.6,0c0.3-0.9,0.2-1.7-0.1-2.6c-0.3-0.8-0.8-1.6-1.2-2.4c-0.5-1-2.4-2.9-0.3-3.3c-0.6-0.4-1.3-1-1.7-1.7
			c-0.6-1.4-0.8-2.6-1.6-4c-0.6-1.4-1.2-3.5,0.2-4.3c-0.8-0.8-0.4-1.9-0.8-2.9c2.5,0,2.3-3.5,1.7-5.2C61.7,25.3,62.6,24.5,62.6,24.5
			z"/>
	</g>
	<path id="XMLID_526_" class="st2" d="M64.8,25.6c0,0-1-0.9-0.6-1.2c0.4-0.4,1.3-0.4,1.3-0.4s-0.4-0.8,0-0.8s0.9,0,0.9,0
		s-0.2-0.8,0.3-0.7s1.1,0.2,1.1,0.2s0.4-0.3,0.9-0.2c0.4,0.1,1.4-0.5,1.8-0.4s1.3,0.3,1.3,0.3s-0.4-0.8,0-0.9c0-0.4-0.4-1.2,0.6-1.5
		s0.4-1.9,0.4-1.9s-0.7-0.9-0.6-1.8c0-0.9,0.8-1,0.8-1s-0.3-1.2,0-1.7s1-0.2,1-0.2s-0.2-0.5,0.2-0.7c0.4-0.1,1,0.2,1,0.2
		s-0.1-1.1,0.9-1.1c0.9,0,0.9,0.5,0.9,0.5s0.1-0.3,1-0.5c0.7-0.3,1,0.2,1,0.2s0.3-0.5,0.8-0.3s0.8,0.8,0.8,0.8s-0.3-0.3,0.5-0.2
		s0.8,0.7,0.8,0.7s0.8-0.4,0.9-0.8s0.3-0.9,0.8-0.9c0.4,0,0.9,0.3,0.9,0.3s0.6-0.2,0.9,0s0.6,0.7,0.6,0.7s-0.2-0.6,0.2-0.9
		c0.5-0.3,1.3,0.3,1.3,0.3s-0.3-0.9,0-1c0.3,0,0.8,0,0.8,0s0.7-0.3,0.9,0c0.1,0.3-0.1-0.8,0.4-0.7c0.5,0,1.1,0.7,1.1,0.7
		s0-0.9,0.5-0.7s0.6,0.8,0.6,0.8s0.4-0.3,0.7,0.1c0.4,0.4,0.3,0.7,0.3,0.7s0.7-0.5,1,0s0.2,0.9,0.2,0.9s0.4,0,0.6,0.3
		c0.3,0.3,0.2,0.5,0.2,0.5s0.2-0.5,0.6-0.3s0.5,0.4,0.5,0.4s0.6,0,0.7,0.3s0.1,0.8,0.1,0.8s0.5,0.1,0.5,0.6
		c-0.1,0.5-0.5,0.8-0.5,0.8s0.4,0.7,0.2,1.1s1.3-0.8,1.3-0.8s0.3-0.6,0.6-0.4c0.3,0.1,0,0.9,0,0.9s0.4,0,0.3,0.3s0.1-0.7,0.6-0.4
		c0.4,0.3,0.9,0.6,0.7,0.9c-0.2,0.3,0.5,0.6,0.5,0.6s0.4-0.8,0.9-0.2c0.5,0.6,0.1,0.9,0.1,0.9s0.8,0.4,0.9,0.8s-0.3,0.6-0.3,0.6
		s0.5,0.5,0.6,0.9c0.5,0.3,0.9,0.6,0.9,0.9s-0.3,1-0.3,1v1.2c0,0,1.4,0.5,1.6,0.9s1.3,0.7,1.1,1.1c-0.2,0.4-0.1,0.7-0.1,0.7
		s0.4,0,0.4,0.4c0.1,0.4-0.3,0.6-0.3,0.6s0.3,0,0.3,0.4s-0.5,0.9-0.5,0.9s0.3,0.7,0.2,0.9c0,0.2-0.6,0.5-0.6,0.5v0.9
		c0,0,0.5,0.2,0.4,0.5c-0.1,0.4-0.4,0.8-0.4,0.8s0.3,0.4,0.2,0.7s0.4,0.5,0.3,0.7c-0.1,0.3-0.5,0.9-0.8,0.9c-0.4,0-0.4,0.7-0.4,0.7
		s0.8,0.4,0.7,0.7c-0.1,0.3,0.7,0.5,0.7,0.9s0,1.7-0.2,1.6s0.3,0.9,0.3,0.9s1.2,1.1,0.6,1.6s-0.3,1.2-0.3,1.2s-0.5,0.5-0.8,0.2
		c-0.3-0.2-0.3,1.1-0.3,1.1s0.9-0.1,0.9,0.3s-0.4,1-0.4,1s0.9,0.6,0.6,0.8c-0.2,0.2-0.9,0.2-0.9,0.4s-0.3,0.5-0.3,0.5
		s0.7,0.6,0.4,0.9c-0.3,0.2-0.9,1.5-0.9,1.5s-0.5,0.6-1,0.5c-0.5,0-0.2,0.7-0.8,0.6c-0.5,0-1.2-0.1-1.2,0.3c0,0.3,0.6,1,0.1,1
		s-1.3,0.5-1.3,0.5s-0.3,0.8-1,0.5s-1.4-0.9-1.4-0.9s-1,0.1-1,0.6s-0.6,0.8-1.5,0.9c-0.9,0.1-0.5,0.6-0.5,0.6s0.4,1.1,0,1.2
		c-0.4,0-0.8,0.4-1,0.1C94.5,55,94,55,94,55.3s-0.2,0.6-0.4,0.6c-0.2,0,0.1,0.9-0.5,0.7s-0.8-0.4-0.8-0.4s0.3,0.4-0.3,0.3
		c-0.6-0.1-0.5,0.3-1.2,0.2c-0.6-0.1-0.3-0.8-0.7-0.8c-0.4,0-0.4-0.6-0.7-0.5c-0.2,0.1-0.3,0.7-0.7,0.5c-0.4-0.2-0.7-0.7-0.7-0.7
		s-0.8,0.3-0.9-0.1s-0.1-0.9-0.2-0.9s-1.1-0.3-1.1-0.3s0.1-0.6,0.2-0.9s-0.2-0.9-0.4-0.9c-0.3,0-0.5,0.3-0.8,0.1
		c-0.2-0.2-0.2-0.8-0.2-0.8S84,51,83.8,51.2c-0.2,0.1,0.2,0.9-0.4,1.2s-1.5-0.8-1.5-0.8s-0.7,0.5-0.9,0.3s0.9,1.1,0.4,1.3
		s0.5,1.2-0.4,1c-0.9-0.1-0.8,0.5-0.8,0.5s-0.6,0.4-0.8,0c-0.2-0.3-0.3,0.6-0.6,0.8c-0.4,0.2-1.6,0-1.7-0.5c-0.6,0-1.3,0.1-1.4-0.5
		c-0.1-0.5,0-1.3,0-1.3s-0.9,0.2-0.9,0c0-0.3,0.2,0.6-0.3,0.7s-0.8-0.2-0.8-0.2s0,0.4-0.5,0.4c-0.4,0-0.6-0.4-0.6-0.4
		s-0.2,0.5-0.5,0.5s-0.6-0.7-0.6-0.7s-1.7-0.1-1.8-0.6s-0.1-0.7-0.1-0.7s-1.5,0.3-1.6-0.4s-0.1-1-0.1-1S67,50.7,67,50.3
		s0.4-0.9,0.4-0.9s-0.3-0.1-0.3-0.4c0-0.3,0.6-0.7,0.6-0.7s0.1-0.5-0.3-0.5S66.3,47,66.3,47s-0.1-0.9-0.9-0.7s-0.7-0.9-0.7-0.9
		s-0.7-0.6-0.6-0.9c0.1-0.3,0.4-0.5,0.4-0.5s-0.8-0.3-0.6-0.6c0.2-0.3,0.8-0.7,0.8-0.7s-0.7-0.7-0.6-1s-0.4-0.2-0.5-0.3
		c-0.1-0.2-0.1-0.7-0.1-0.7s-0.5-0.4-0.3-0.6s0.6-0.6,0.6-0.6s-1.3-0.3-1.3-0.6s0.4-0.8,0.4-0.8s0.3-0.3,0-0.7s-0.3-1-0.3-1
		S62,36,62.1,35.5s1-0.6,1-0.6s0.3-0.4,0.1-0.7c-0.1-0.3-0.6-0.8-0.5-1.1s0.2-0.5,0.2-0.5s-0.6-0.6-0.4-1c0.1-0.4,1.2-0.5,1.2-0.5
		s1-0.2,0.7-0.6c-0.4-0.5-0.4-0.9,0-1.1c0.4-0.3-0.4-0.8-0.4-0.8s0.1-0.6-0.1-0.8c-0.3-0.2,0.2-0.7,0.2-0.7s-0.3-0.3-0.2-0.5
		S64.8,25.6,64.8,25.6z"/>
	<path id="XMLID_525_" class="st3" d="M67.7,26.7c0,0-0.9-0.7-0.5-1.1s1.1-0.4,1.1-0.4s-0.3-0.7,0-0.7s0.7,0,0.7,0s-0.2-0.7,0.3-0.6
		s1,0.2,1,0.2s0.4-0.3,0.7-0.2c0.4,0,1.2-0.4,1.5-0.3c0.4,0.1,1.1,0.3,1.1,0.3s-0.4-0.6,0-0.7c0-0.3-0.4-1.1,0.5-1.3
		c0.9-0.2,0.3-1.6,0.3-1.6s-0.6-0.7-0.5-1.5c0-0.8,0.7-0.9,0.7-0.9s-0.3-1,0-1.4s0.9-0.2,0.9-0.2s-0.2-0.4,0.2-0.6
		c0.4-0.1,0.9,0.2,0.9,0.2s-0.1-1,0.7-1s0.8,0.4,0.8,0.4s0.1-0.2,0.9-0.4s1,0.2,1,0.2s0.2-0.4,0.6-0.3c0.4,0.1,0.6,0.7,0.6,0.7
		s-0.3-0.3,0.4-0.2c0.7,0.1,0.7,0.6,0.7,0.6s0.7-0.3,0.8-0.6s0.3-0.7,0.6-0.7c0.4,0,0.7,0.3,0.7,0.3s0.5-0.2,0.8,0s0.5,0.6,0.5,0.6
		s-0.2-0.5,0.2-0.8C86.3,14.4,87,15,87,15s-0.3-0.8,0-0.9s0.7,0,0.7,0s0.6-0.2,0.7,0s-0.1-0.7,0.4-0.6s0.9,0.6,0.9,0.6
		s0-0.8,0.4-0.6s0.5,0.7,0.5,0.7s0.3-0.2,0.6,0.1c0.3,0.3,0.2,0.6,0.2,0.6s0.6-0.4,0.9,0s0.2,0.8,0.2,0.8s0.3,0,0.5,0.2
		c0.2,0.2,0.1,0.4,0.1,0.4s0.2-0.4,0.5-0.2s0.4,0.4,0.4,0.4s0.5,0,0.6,0.2s0.1,0.7,0.1,0.7s0.5,0.1,0.4,0.5c0.2,0.1-0.1,0.3-0.1,0.3
		s0.3,0.6,0.2,1s1.1-0.7,1.1-0.7s0.3-0.5,0.5-0.4c0.3,0.1,0,0.8,0,0.8s0.3,0,0.3,0.3c-0.1,0.3,0.1-0.6,0.5-0.4s0.7,0.5,0.6,0.8
		c-0.2,0.3,0.4,0.5,0.4,0.5s0.3-0.7,0.8-0.2s0.1,0.8,0.1,0.8s0.7,0.3,0.8,0.6c0.1,0.3-0.2,0.5-0.2,0.5s0.5,0.5,0.5,0.8
		c0.5,0.2,0.8,0.5,0.8,0.8s-0.2,0.9-0.2,0.9v1c0,0,1.2,0.4,1.4,0.8c0.2,0.3,1.1,0.6,0.9,0.9c-0.1,0.3-0.1,0.6-0.1,0.6s0.3,0,0.4,0.3
		s-0.3,0.5-0.3,0.5s0.3,0,0.3,0.4c0,0.3-0.4,0.8-0.4,0.8s0.2,0.6,0.2,0.8c0,0.2-0.5,0.4-0.5,0.4v0.8c0,0,0.4,0.2,0.4,0.5
		c-0.1,0.3-0.3,0.7-0.3,0.7s0.3,0.4,0.2,0.6c-0.1,0.2,0.3,0.4,0.3,0.6s-0.4,0.7-0.7,0.8s-0.3,0.6-0.3,0.6s0.7,0.3,0.6,0.6
		s0.6,0.4,0.6,0.7s0,1.4-0.2,1.3c-0.2-0.1,0.2,0.8,0.3,0.8c0.1,0,1,1,0.5,1.4c-0.4,0.4-0.3,1-0.3,1s-0.4,0.4-0.7,0.2
		c-0.2-0.2-0.2,1-0.2,1s0.8-0.1,0.8,0.3c0,0.3-0.3,0.9-0.3,0.9s0.8,0.5,0.5,0.7c-0.2,0.2-0.8,0.2-0.8,0.3s-0.3,0.4-0.3,0.4
		s0.6,0.5,0.3,0.8c-0.3,0.2-0.7,1.3-0.7,1.3s-0.4,0.5-0.8,0.4c-0.4,0-0.2,0.6-0.6,0.5c-0.4,0-1.1-0.1-1,0.2c0,0.3,0.5,0.9,0.1,0.9
		s-1.1,0.5-1.1,0.5s-0.2,0.7-0.8,0.5c-0.6-0.2-1.2-0.8-1.2-0.8s-0.8,0.1-0.8,0.5s-0.5,0.7-1.3,0.8c-1.3,0-1,0.4-1,0.4s0.3,1,0,1
		s-0.7,0.3-0.8,0.1S93,51.8,93,52s-0.1,0.5-0.3,0.5c-0.2,0,0.1,0.7-0.4,0.6c-0.5-0.1-0.7-0.4-0.7-0.4s0.3,0.4-0.2,0.3
		c-0.5-0.1-0.4,0.3-1,0.2c-0.5-0.1-0.3-0.7-0.6-0.7c-0.3,0-0.4-0.5-0.6-0.5c-0.2,0.1-0.3,0.6-0.6,0.4S88,51.8,88,51.8
		s-0.7,0.2-0.8-0.1c-0.1-0.3-0.1-0.8-0.1-0.8c-0.1,0-1-0.2-1-0.2s-0.3-0.4-0.2-0.7c0.1-0.3-0.1-0.8-0.4-0.7c-0.2,0-0.5,0.3-0.6,0.1
		c-0.2-0.2-0.1-0.7-0.1-0.7s-0.5-0.3-0.7-0.2c-0.1,0.1,0.1,0.8-0.4,1c-0.5,0.3-1.3-0.6-1.3-0.6s-0.6,0.4-0.7,0.2s0.8,1,0.3,1.1
		s0.4,1-0.3,0.9C81,51,81,51.5,81,51.5s-0.5,0.3-0.7,0s-0.2,0.5-0.5,0.6s-1.3,0-1.5-0.4c-0.5,0-1.1,0.1-1.2-0.4s0-1.1,0-1.1
		s-0.8,0.2-0.8,0s0.2,0.5-0.3,0.6s-0.6-0.2-0.6-0.2s0,0.3-0.4,0.3s-0.5-0.3-0.5-0.3S74.3,51,74.1,51c-0.3,0-0.5-0.6-0.5-0.6
		s-1.4-0.1-1.5-0.5C72,49.7,72,49.5,72,49.5s-1.3,0.2-1.4-0.3c-0.1-0.6-0.1-0.9-0.1-0.9s-0.8-0.1-0.8-0.4c0-0.4,0.3-0.8,0.3-0.8
		s-0.2-0.1-0.2-0.3s0.5-0.6,0.5-0.6s0.1-0.4-0.3-0.4s-1-0.6-1-0.7c0-0.1-0.1-0.8-0.7-0.6s-0.6-0.8-0.6-0.8s-0.6-0.5-0.5-0.8
		s0.3-0.4,0.3-0.4S66.8,42.3,67,42c0.1-0.2,0.7-0.6,0.7-0.6s-0.7-0.7-0.7-1s-0.4-0.1-0.4-0.3c-0.1-0.1-0.1-0.6-0.1-0.6
		S66,39.2,66.2,39s0.5-0.5,0.5-0.5s-1.1-0.2-1.1-0.5s0.4-0.7,0.4-0.7s0.2-0.3,0-0.6s-0.2-0.9-0.2-0.9s-0.5-0.3-0.4-0.8
		c0.1-0.4,0.9-0.5,0.9-0.5s0.2-0.3,0.1-0.6S65.9,33.2,66,33c0.1-0.3,0.2-0.5,0.2-0.5s-0.5-0.5-0.4-0.9s1.1-0.4,1.1-0.4
		s0.9-0.2,0.6-0.5c-0.3-0.4-0.3-0.7,0-1C67.7,29.4,67,29,67,29s0.1-0.5-0.1-0.7s0.2-0.6,0.2-0.6s-0.2-0.2-0.2-0.4
		C67,27.2,67.7,26.7,67.7,26.7z"/>
	<path id="XMLID_524_" class="st4" d="M76.1,41.3c0,0-0.7,0.3-0.8,0s0.1-0.7,0.1-0.7s-0.5,0-0.4-0.2s0.2-0.4,0.2-0.4
		s-0.4-0.1-0.3-0.3c0.2-0.2,0.4-0.5,0.4-0.5s0-0.3,0.1-0.5s0.1-0.8,0.2-1c0.2-0.2,0.5-0.6,0.5-0.6s-0.5,0-0.4-0.2
		c-0.2-0.1-0.7-0.1-0.6-0.6s-0.9-0.6-0.9-0.6s-0.6,0.1-1-0.1c-0.5-0.3-0.3-0.7-0.3-0.7s-0.7-0.1-0.8-0.4c-0.2-0.3,0.1-0.6,0.1-0.6
		s-0.3,0-0.3-0.3c0-0.2,0.3-0.5,0.3-0.5s-0.6-0.2-0.4-0.7s0.5-0.3,0.5-0.3s-0.1-0.1,0-0.6s0.4-0.5,0.4-0.5s-0.2-0.3,0-0.5
		s0.6-0.2,0.6-0.2s-0.2,0.1,0-0.3c0.3-0.4,0.5-0.2,0.5-0.2s0-0.5-0.2-0.7s-0.3-0.4-0.2-0.6s0.4-0.3,0.4-0.3s0-0.3,0.2-0.5
		c0.2-0.1,0.5-0.1,0.5-0.1s-0.4,0-0.4-0.3c-0.1-0.3,0.5-0.6,0.5-0.6s-0.6-0.1-0.5-0.2c0.1-0.2,0.2-0.4,0.2-0.4s0-0.4,0.2-0.4
		s-0.4-0.1-0.3-0.4c0.1-0.2,0.6-0.4,0.6-0.4s-0.5-0.2-0.2-0.4s0.5-0.1,0.5-0.1s0-0.3,0.2-0.3c0.3-0.1,0.4,0,0.4,0s-0.1-0.5,0.3-0.5
		c0.3-0.1,0.5,0.1,0.5,0.1s0.1-0.2,0.3-0.3c0.2-0.1,0.3,0,0.3,0s-0.2-0.2,0-0.4c0.2-0.2,0.3-0.1,0.3-0.1s0.2-0.3,0.3-0.3
		c0.1,0,0.4,0.1,0.4,0.1s0.2-0.2,0.4-0.1c0.2,0.1,0.3,0.4,0.3,0.4s0.4,0,0.6,0.2s-0.1-0.9-0.1-0.9s-0.2-0.3-0.1-0.4s0.5,0.2,0.5,0.2
		s0.1-0.2,0.2-0.1s-0.3-0.2-0.1-0.4s0.5-0.3,0.6-0.1c0.1,0.2,0.4-0.1,0.4-0.1s-0.3-0.4,0.1-0.5s0.5,0.2,0.5,0.2s0.4-0.3,0.6-0.3
		c0.2,0.1,0.3,0.3,0.3,0.3s0.4-0.1,0.6-0.1c0.3-0.2,0.5-0.3,0.7-0.2c0.1,0.1,0.4,0.4,0.4,0.4l0.6,0.3c0,0,0.6-0.6,0.8-0.6
		c0.3,0,0.7-0.5,0.8-0.3c0.1,0.2,0.3,0.2,0.3,0.2s0.1-0.2,0.3-0.1C87,20.8,87,21,87,21s0.1-0.1,0.3-0.1c0.2,0.1,0.4,0.5,0.4,0.5
		s0.4,0,0.5,0.1s0.1,0.4,0.1,0.4l0.4,0.2c0,0,0.2-0.2,0.4-0.1c0.2,0.1,0.3,0.4,0.3,0.4s0.3-0.1,0.4,0.1c0.1,0.1,0.3-0.1,0.4,0
		s0.3,0.4,0.2,0.6c-0.1,0.2,0.2,0.3,0.2,0.3s0.4-0.3,0.5-0.2c0.1,0.1,0.4-0.2,0.6-0.1s0.9,0.4,0.7,0.5c-0.1,0.1,0.5,0.1,0.5,0.1
		s0.8-0.3,1,0.1c0.1,0.4,0.5,0.5,0.5,0.5s0.1,0.4-0.1,0.4s0.5,0.4,0.5,0.4s0.2-0.5,0.4-0.4c0.2,0.1,0.4,0.4,0.4,0.4s0.5-0.3,0.6-0.1
		s-0.1,0.5,0,0.5s0.2,0.3,0.2,0.3s0.5-0.2,0.5,0s0.5,0.8,0.5,0.8s0.2,0.4,0,0.6c-0.1,0.2,0.3,0.3,0.1,0.5c-0.1,0.2-0.3,0.6-0.2,0.7
		c0.2,0.1,0.6-0.1,0.5,0.2c-0.1,0.3,0,0.8,0,0.8s0.3,0.3,0,0.6c-0.3,0.3-0.8,0.5-0.8,0.5s-0.2,0.5,0.1,0.6s0.2,0.5,0.1,1
		s0.2,0.4,0.2,0.4s0.7,0.1,0.6,0.3s0,0.5-0.2,0.5s-0.3,0.2-0.1,0.3c0.1,0.1,0.2,0.2,0.2,0.3s0.4,0.2,0.2,0.4
		c-0.2,0.3-0.4,0.3-0.4,0.3s0.3-0.1,0.1,0.2c-0.2,0.3,0,0.3-0.2,0.6s-0.5,0-0.6,0.2c0.3,0.4,0,0.2,0,0.4c0,0.1,0.3,0.3,0.1,0.5
		c-0.2,0.2-0.5,0.2-0.5,0.2s-0.1,0.5-0.3,0.4c-0.2-0.1-0.5-0.2-0.5-0.1s-0.4,0.5-0.4,0.5s-0.3,0-0.5-0.1c-0.1-0.1-0.5-0.1-0.5,0
		c-0.1,0.1,0,0.3-0.1,0.4c-0.2,0.1-0.4-0.1-0.4-0.1s-0.4,0.2-0.3,0.3c0,0.1,0.5,0.1,0.5,0.5s-0.7,0.6-0.7,0.6s0.1,0.5-0.1,0.5
		c-0.1,0,0.8-0.2,0.8,0.1s0.7,0,0.4,0.4c-0.3,0.4,0,0.5,0,0.5s0,0.4-0.2,0.4s0.2,0.3,0.2,0.5s-0.4,0.8-0.7,0.7
		c-0.1,0.3-0.3,0.7-0.6,0.6c-0.3-0.1-0.7-0.3-0.7-0.3s-0.1,0.5-0.2,0.4s0.3,0,0.3,0.3c-0.1,0.3-0.3,0.3-0.3,0.3s0.2,0.1,0.1,0.3
		S92.1,44,92.1,44s0.2,0.2,0.1,0.4s-0.5,0.1-0.5,0.1s-0.5,0.8-0.7,0.7s-0.4-0.1-0.4-0.1s-0.2,0.8-0.6,0.7s-0.5-0.2-0.5-0.2
		S89.2,46,89,45.9s-0.4-0.4-0.4-0.4s-0.1,0.1-0.3,0.1c-0.1-0.1-0.2-0.5-0.2-0.5s-0.2-0.2-0.3,0c-0.1,0.2-0.7,0.4-0.7,0.4
		s-0.5-0.2-0.5,0.3c-0.1,0.4-0.6,0.1-0.6,0.1s-0.4,0.2-0.6,0.1c-0.1-0.1-0.2-0.3-0.2-0.3S85,46.2,84.9,46s-0.2-0.6-0.2-0.6
		s-0.6,0.3-0.7,0.2s-0.2,0.2-0.3,0.2c-0.1,0-0.4-0.1-0.4-0.1s-0.3,0.2-0.4,0s-0.1-0.5-0.1-0.5s-0.4,0.6-0.6,0.5s-0.3-0.4-0.3-0.4
		s-0.1-0.2-0.3-0.2C81.3,45.1,81,45,81,45s-0.3,0.2-0.6,0c-0.2-0.2,0-0.7,0-0.7s-0.1-0.2-0.3-0.2c-0.2,0-0.5,0.1-0.7,0
		s-0.2-0.2-0.2-0.2s-0.4,0.1-0.6,0c-0.2-0.2,0-0.7,0-0.7s0.2-0.6-0.2-0.5c-0.3,0.1-0.5,0-0.6-0.3c-0.1-0.2-0.5,0-0.5,0
		s-0.2-0.2-0.4-0.1c-0.2,0.1-0.3-0.3-0.3-0.3s-0.2,0.1-0.3,0C76.2,41.9,76.1,41.3,76.1,41.3z"/>
	<path id="XMLID_523_" class="st3" d="M76.2,32.5c0,0-0.4-0.1-0.3-0.2c0.1-0.2,0.3-0.3,0.3-0.3s-0.2-0.1-0.1-0.2s0.2-0.1,0.2-0.1
		s-0.2-0.2,0-0.2c0.1-0.1,0.3-0.1,0.3-0.1s0.1-0.1,0.2-0.2c0.1,0,0.3-0.3,0.4-0.4c0.1,0,0.4-0.1,0.4-0.1s-0.2-0.1-0.1-0.2
		c-0.1-0.1-0.3-0.2-0.1-0.5c0.2-0.2-0.2-0.5-0.2-0.5s-0.3-0.1-0.4-0.4s0.1-0.4,0.1-0.4s-0.3-0.3-0.2-0.4c0-0.2,0.2-0.2,0.2-0.2
		s-0.1-0.1,0-0.2s0.3-0.1,0.3-0.1s-0.2-0.3,0.1-0.4c0.2-0.1,0.3,0,0.3,0s0-0.1,0.2-0.3c0.2-0.2,0.3-0.1,0.3-0.1s0-0.2,0.1-0.2
		s0.3,0.1,0.3,0.1s-0.1,0,0.1-0.1s0.3,0.1,0.3,0.1s0.1-0.2,0.1-0.3c0-0.1,0-0.3,0.1-0.3c0.1-0.1,0.3,0,0.3,0s0.1-0.1,0.2-0.1
		s0.3,0.1,0.3,0.1s-0.1-0.1-0.1-0.3c0.1-0.2,0.4-0.1,0.4-0.1s-0.2-0.2-0.1-0.3c0.1-0.1,0.2-0.1,0.2-0.1s0.1-0.2,0.2-0.1
		c0.1,0-0.1-0.2,0-0.2s0.4,0,0.4,0s-0.1-0.2,0-0.2c0.2,0,0.3,0.1,0.3,0.1s0.1-0.1,0.2-0.1c0.1,0.1,0.2,0.1,0.2,0.1s0.1-0.2,0.3-0.1
		c0.2,0.1,0.2,0.2,0.2,0.2s0.1,0,0.2,0s0.1,0.1,0.1,0.1s0-0.1,0.1-0.2c0.1,0,0.2,0,0.2,0s0.2-0.1,0.2,0c0.1,0,0.1,0.2,0.1,0.2
		s0.2,0,0.2,0.1c0.1,0.1,0,0.3,0,0.3s0.2,0.1,0.2,0.3s0.2-0.4,0.2-0.4s0-0.2,0.1-0.2s0.1,0.2,0.1,0.2s0.1-0.1,0.1,0
		s-0.1-0.2,0.1-0.2c0.1,0,0.3,0,0.3,0.1s0.2,0.1,0.2,0.1s0-0.3,0.2-0.2c0.2,0.1,0.2,0.2,0.2,0.2s0.3,0,0.3,0.1c0.1,0.1,0,0.2,0,0.2
		s0.2,0.1,0.3,0.1c0.2,0,0.3,0,0.4,0.1s0.1,0.3,0.1,0.3l0.2,0.3c0,0,0.4-0.1,0.5,0s0.4,0,0.4,0.1s0.1,0.2,0.1,0.2s0.1-0.1,0.2,0
		s0,0.2,0,0.2s0.1,0,0.1,0.1s0,0.3,0,0.3s0.2,0.1,0.2,0.2S87.6,28,87.6,28l0.1,0.2c0,0,0.2,0,0.2,0.1s0,0.3,0,0.3s0.1,0.1,0.2,0.1
		c0,0.1,0.2,0.1,0.2,0.1s0,0.3-0.1,0.3s0,0.2,0,0.2s0.3,0,0.3,0.1s0.2,0,0.3,0.1s0.3,0.4,0.2,0.4s0.2,0.2,0.2,0.2s0.4,0.1,0.4,0.3
		c-0.1,0.2,0.1,0.4,0.1,0.4S89.6,31,89.5,31s0.1,0.3,0.1,0.3s0.2-0.2,0.3-0.1s0,0.3,0,0.3s0.3,0,0.3,0.1S90,31.8,90,31.8V32
		c0,0,0.3,0.1,0.2,0.2s0,0.5,0,0.5s0,0.2-0.2,0.3s0,0.2-0.1,0.3s-0.3,0.2-0.3,0.2c0.1,0.1,0.3,0.2,0.2,0.2c-0.1,0.1-0.2,0.3-0.2,0.3
		s0,0.2-0.2,0.3c-0.2,0-0.5,0-0.5,0s-0.2,0.2-0.2,0.3c0.1,0.1,0,0.3-0.2,0.4c-0.2,0.2-0.1,0.2-0.1,0.2s0.3,0.2,0.2,0.3
		s-0.2,0.2-0.2,0.2c-0.1-0.1-0.2,0-0.2,0.1s0,0.2,0,0.2s0.1,0.2,0,0.2c-0.2,0-0.3,0-0.3,0s0.1,0.1,0,0.1c-0.2,0.1-0.1,0.2-0.3,0.2
		c-0.2,0.1-0.2-0.2-0.3-0.1c-0.1,0.1-0.2-0.1-0.2,0s0,0.2-0.1,0.2s-0.3-0.1-0.3-0.1s-0.2,0.2-0.2,0.1c-0.1-0.1-0.2-0.2-0.2-0.2
		L86,36.5c0,0-0.1-0.1-0.2-0.2s-0.2-0.2-0.2-0.2s-0.1,0.2-0.2,0.1c-0.1,0-0.2-0.2-0.2-0.2S85,36,85,36.1s0.2,0.2,0.1,0.4
		s-0.5,0-0.5,0s-0.1,0.2-0.2,0.2s0.4,0.1,0.3,0.3c-0.1,0.1,0.3,0.2,0.1,0.3c-0.2,0.1-0.1,0.2-0.1,0.2s-0.1,0.2-0.2,0.1
		s0,0.2-0.1,0.3S84,38.1,83.9,38c-0.1,0.1-0.3,0.2-0.4,0.1c-0.5,0-0.5-0.2-0.5-0.2s-0.2,0.2-0.2,0.1s0.1,0.1,0,0.2
		c-0.1,0.1-0.2,0-0.2,0s0,0.1-0.1,0.2s-0.2,0-0.2,0s0,0.2-0.1,0.2S82,38.5,82,38.5s-0.4,0.2-0.5,0.1c-0.1-0.1-0.1-0.2-0.1-0.2
		s-0.3,0.3-0.5,0.1s-0.2-0.2-0.2-0.2s-0.2,0.1-0.3,0c-0.1-0.1,0-0.3,0-0.3s-0.1,0-0.1-0.1s0.1-0.3,0.1-0.3s-0.1-0.1-0.2-0.1
		c-0.1,0.1-0.4,0-0.4,0s-0.2-0.2-0.3-0.1c-0.2,0.2-0.3-0.1-0.3-0.1s-0.2,0-0.3-0.1c0-0.1,0-0.2,0-0.2s-0.2,0-0.2-0.1
		s0.1-0.3,0.1-0.3s-0.3-0.1-0.4-0.1c0-0.1-0.1,0-0.2,0s-0.1-0.2-0.1-0.2s-0.2,0-0.2-0.1S78,36,78,36s-0.4,0.1-0.4,0
		c-0.1-0.1,0-0.3,0-0.3s0-0.1-0.1-0.2c-0.1-0.1-0.2-0.2-0.2-0.2s-0.2,0-0.3-0.2c-0.1-0.1,0.2-0.3,0.2-0.3s0-0.1-0.1-0.2
		s-0.3-0.1-0.3-0.2c0-0.1,0-0.2,0-0.2s-0.2-0.1-0.3-0.2c0-0.1,0.2-0.3,0.2-0.3s0.2-0.2,0.1-0.3s-0.2-0.2-0.2-0.3S76.4,33,76.4,33
		s0-0.2-0.1-0.2s0-0.2,0-0.2S76.2,32.6,76.2,32.5C76.1,32.8,76.2,32.5,76.2,32.5z"/>
	<g id="圖層_4_拷貝_45_7_">
		<g id="圖層_1_拷貝_47_22_">
			<path id="XMLID_182_" class="st5" d="M135.1,70.8c0,0,2.7-3.2,5-2.6c2.4,0.6,6.4,2.3,6.4,2.3s-3.3,3.1-5.8,2.9
				C138.3,73.2,135.1,70.8,135.1,70.8z"/>
			<path id="XMLID_181_" class="st6" d="M139.6,69.3c1.8,0.5,4.6,1.5,5.8,2c0.7-0.5,1.1-1,1.1-1s-4.1-1.7-6.4-2.3
				c-2.4-0.6-5,2.6-5,2.6s0.2,0.1,0.4,0.3C136.4,70.2,138.1,69,139.6,69.3z"/>
			<path id="XMLID_179_" class="st7" d="M142.5,71.1c0,0-2.2-1.3-3.7-1.3c-1.5,0.1-3.4,0.9-3.4,0.9s2.7-0.5,3.6-0.4
				C139.7,70.5,142.5,71.1,142.5,71.1z"/>
		</g>
		<g id="圖層_1_拷貝_47_23_">
			<path id="XMLID_174_" class="st5" d="M133.9,90.3c0,0,3.7-2,5.7-0.5s5.1,4.6,5.1,4.6s-4.3,1.6-6.5,0.5
				C136,93.7,133.9,90.3,133.9,90.3z"/>
			<path id="XMLID_173_" class="st6" d="M138.7,90.6c1.5,1.1,3.6,3.2,4.5,4.1c0.8-0.2,1.4-0.4,1.4-0.4s-3.1-3.1-5.1-4.6
				c-1.9-1.5-5.7,0.5-5.7,0.5s0.1,0.1,0.2,0.4C135.4,90.2,137.4,89.7,138.7,90.6z"/>
			<path id="XMLID_132_" class="st7" d="M140.6,93.4c0,0-1.5-2.1-3-2.6s-3.5-0.5-3.5-0.5s2.7,0.6,3.5,1
				C138.3,91.8,140.6,93.4,140.6,93.4z"/>
		</g>
		<g id="圖層_1_拷貝_47_21_">
			<path id="XMLID_131_" class="st5" d="M107.8,90.3c0,0,1.2,4-0.6,5.7c-1.8,1.6-5.4,4.1-5.4,4.1s-0.8-4.5,0.7-6.4
				C104,91.7,107.8,90.3,107.8,90.3z"/>
			<path id="XMLID_125_" class="st6" d="M106.5,94.9c-1.4,1.2-3.8,3-4.9,3.7c0.1,0.8,0.2,1.5,0.2,1.5s3.6-2.5,5.4-4.1
				s0.6-5.7,0.6-5.7s-0.2,0.1-0.4,0.2C107.6,91.8,107.7,93.8,106.5,94.9z"/>
			<path id="XMLID_123_" class="st7" d="M103.5,96.3c0,0,2.3-1.1,3.1-2.4c0.7-1.3,1.1-3.4,1.1-3.4s-1.1,2.6-1.6,3.2
				C105.5,94.4,103.5,96.3,103.5,96.3z"/>
		</g>
	</g>
	<g id="圖層_4_拷貝_45_13_">
		<g id="圖層_1_拷貝_47_35_">
			<path id="XMLID_191_" class="st5" d="M149.1,46.2c0,0-4,1.2-5.7-0.6c-1.6-1.8-4.1-5.5-4.1-5.5s4.5-0.8,6.4,0.8
				C147.7,42.4,149.1,46.2,149.1,46.2z"/>
			<path id="XMLID_190_" class="st6" d="M144.5,44.9c-1.2-1.4-2.9-3.8-3.7-4.9c-0.8,0-1.5,0.2-1.5,0.2s2.5,3.7,4.1,5.5
				s5.7,0.6,5.7,0.6s-0.1-0.2-0.2-0.4C147.6,46,145.6,46.1,144.5,44.9z"/>
			<path id="XMLID_189_" class="st7" d="M143.1,41.9c0,0,1.1,2.3,2.4,3.1c1.3,0.8,3.4,1.1,3.4,1.1s-2.6-1.1-3.2-1.7
				C145.1,43.9,143.1,41.9,143.1,41.9z"/>
		</g>
		<g id="圖層_1_拷貝_47_34_">
			<path id="XMLID_188_" class="st5" d="M132,55.9c0,0-4.2,0.2-5.3-2c-1.1-2.2-2.6-6.3-2.6-6.3s4.6,0.4,6,2.3
				C131.6,51.9,132,55.9,132,55.9z"/>
			<path id="XMLID_184_" class="st6" d="M127.8,53.5c-0.8-1.6-1.9-4.4-2.3-5.7c-0.8-0.2-1.4-0.2-1.4-0.2s1.5,4.2,2.6,6.3
				c1.1,2.2,5.3,2,5.3,2s0-0.2,0-0.5C130.6,55.3,128.5,54.9,127.8,53.5z"/>
			<path id="XMLID_183_" class="st7" d="M127.2,50.2c0,0,0.4,2.5,1.5,3.6c1.1,1.1,3,2,3,2s-2.2-1.7-2.7-2.4
				C128.6,52.6,127.2,50.2,127.2,50.2z"/>
		</g>
		<g id="圖層_1_拷貝_47_33_">
			<path id="XMLID_177_" class="st5" d="M136.1,31.7c0,0-4-1.2-4.4-3.6s-0.4-6.8-0.4-6.8s4.2,1.9,4.9,4.2
				C137,27.8,136.1,31.7,136.1,31.7z"/>
			<path id="XMLID_176_" class="st6" d="M132.9,28.1c-0.3-1.8-0.3-4.8-0.4-6.1c-0.7-0.4-1.3-0.7-1.3-0.7s0,4.4,0.4,6.8
				s4.4,3.6,4.4,3.6s0-0.2,0.1-0.5C134.9,30.7,133.2,29.6,132.9,28.1z"/>
			<path id="XMLID_175_" class="st7" d="M133.4,24.8c0,0-0.4,2.5,0.3,3.9s2.2,2.8,2.2,2.8s-1.5-2.3-1.8-3.2
				C134,27.5,133.4,24.8,133.4,24.8z"/>
		</g>
	</g>
	<g id="圖層_4_拷貝_45_14_">
		<g id="圖層_1_拷貝_47_38_">
			<path id="XMLID_200_" class="st5" d="M62,62.1c0,0,3,3,2.2,5.3c-0.8,2.3-2.8,6.2-2.8,6.2s-2.8-3.6-2.4-6
				C59.3,65.1,62,62.1,62,62.1z"/>
			<path id="XMLID_199_" class="st6" d="M63,66.7c-0.6,1.7-1.9,4.4-2.5,5.6c0.4,0.7,0.8,1.2,0.8,1.2s2-3.9,2.8-6.2
				C65,65,62,62,62,62s-0.1,0.1-0.3,0.4C62.5,63.5,63.5,65.3,63,66.7z"/>
			<path id="XMLID_198_" class="st7" d="M61,69.4c0,0,1.5-2.1,1.6-3.6c0-1.5-0.6-3.5-0.6-3.5s0.2,2.8,0.1,3.6
				C61.8,66.8,61,69.4,61,69.4z"/>
		</g>
		<g id="圖層_1_拷貝_47_37_">
			<path id="XMLID_197_" class="st5" d="M83.5,69.9c0,0,2.1,3.6,0.8,5.6c-1.4,2-4.3,5.3-4.3,5.3s-1.8-4.2-0.8-6.4
				C80.1,72.1,83.5,69.9,83.5,69.9z"/>
			<path id="XMLID_196_" class="st6" d="M83.3,74.6c-1,1.5-3,3.8-3.9,4.8c0.3,0.8,0.5,1.4,0.5,1.4s3-3.3,4.3-5.3
				c1.4-2-0.8-5.6-0.8-5.6S83.3,70,83,70.2C83.6,71.4,84.2,73.3,83.3,74.6z"/>
			<path id="XMLID_195_" class="st7" d="M80.7,76.7c0,0,2-1.6,2.5-3.1c0.4-1.5,0.3-3.5,0.3-3.5s-0.5,2.7-0.8,3.5
				C82.2,74.4,80.7,76.7,80.7,76.7z"/>
		</g>
		<g id="圖層_1_拷貝_47_36_">
			<path id="XMLID_194_" class="st5" d="M49.2,71.9c0,0,0.9,4.1-1.1,5.6s-5.8,3.6-5.8,3.6s-0.4-4.6,1.3-6.3
				C45.3,73,49.2,71.9,49.2,71.9z"/>
			<path id="XMLID_193_" class="st6" d="M47.5,76.4c-1.5,1.1-4.1,2.6-5.2,3.2c0,0.8,0,1.5,0,1.5s3.9-2.1,5.8-3.6s1.1-5.6,1.1-5.6
				S49,72,48.7,72C48.9,73.4,48.8,75.5,47.5,76.4z"/>
			<path id="XMLID_192_" class="st7" d="M44.4,77.6c0,0,2.4-0.9,3.3-2.1c0.9-1.3,1.4-3.3,1.4-3.3s-1.3,2.4-1.9,3
				C46.5,75.8,44.4,77.6,44.4,77.6z"/>
		</g>
	</g>
</g>
</svg>
