<?xml version="1.0" encoding="utf-8"?>
<!-- Generator: Adobe Illustrator 19.0.0, SVG Export Plug-In . SVG Version: 6.00 Build 0)  -->
<svg version="1.0" id="圖層_1" xmlns="http://www.w3.org/2000/svg" xmlns:xlink="http://www.w3.org/1999/xlink" x="0px" y="0px" width="300px" height="260px"
	 viewBox="0 0 300 260" style="enable-background:new 0 0 300 260;" xml:space="preserve">
<style type="text/css">
	.st0{opacity:0.15;}
	.st1{fill:#2A3A1D;}
	.st2{fill:#5EB446;}
	.st3{opacity:0.5;fill:#49873F;}
	.st4{fill:#90CB78;}
	.st5{display:none;}
	.st6{display:inline;fill:#E5DF92;}
	.st7{fill:#6D295E;}
	.st8{fill:#D380B5;}
	.st9{opacity:0.5;}
	.st10{fill:#D1B4CB;}
	.st11{fill:#FFFFFF;}
</style>
<g id="Calque_5_-_copie_2">
	<path id="XMLID_100_" class="st0" d="M253,66c0,2.9-1.6,5.4-2.5,8c-1.4,3.8-6.5,11.2-9.4,13.9c-2.3,2.1-5.6,3-8.5,4.1
		c-2.7,1-5,2.4-8.1,2.4c-3.1,0-6.1-0.6-8.8-1.6c-2.1-0.8-5.8-4-7.6-5.3c-3.1-2.3-3.9-6.6-5.7-10.1c-1.6-3.3-4.3-5.8-4.3-9.7
		c0-3.9,0.9-7.5,2.5-10.8c1.7-3.6,5.3-6.4,8.5-8.7c4.1-3.1,13.7-6.9,19.3-6.9c2.4,0,4.3,1.3,6.4,1.9c2.3,0.7,4.9,0.7,6.9,1.9
		c3.6,2.3,4.6,5.9,6.6,9.6C250,58.3,253,61.8,253,66z"/>
	<path id="XMLID_99_" class="st1" d="M254.4,66c0,3.1-1.7,5.7-2.7,8.5c-1.4,4-2.7,7.9-5.8,10.8c-2.4,2.2-5.9,3.2-9,4.3
		c-2.9,1.1-5.3,2.5-8.6,2.5c-3.3,0-6.4-0.6-9.3-1.7c-2.3-0.9-4.4-2-6.3-3.4c-3.3-2.5-4.1-6.9-6-10.7c-1.7-3.4-4.5-6.1-4.5-10.2
		c0-4.1,0.9-7.9,2.6-11.4c1.8-3.8,5.6-6.7,9-9.2c4.3-3.2,8.7-5.4,14.5-5.4c2.5,0,4.5,1.4,6.8,2.1c2.5,0.7,5.1,0.7,7.2,2
		c3.8,2.4,4.9,6.2,7,10.1C251.3,57.8,254.4,61.6,254.4,66z"/>
	<path id="XMLID_98_" class="st2" d="M251.9,66c0,2.8-1.5,5.2-2.4,7.7c-1.3,3.7-2.4,7.2-5.3,9.8c-2.2,2-5.4,2.9-8.2,3.9
		c-2.6,1-4.8,2.3-7.8,2.3c-3,0-5.8-0.5-8.4-1.5c-2-0.8-4-1.8-5.7-3.1c-3-2.2-3.8-6.3-5.4-9.7c-1.5-3.1-4.1-5.6-4.1-9.3
		c0-3.7,0.9-7.2,2.4-10.3c1.7-3.4,5.1-6.1,8.1-8.4c3.9-2.9,7.9-4.9,13.1-4.9c2.3,0,4.1,1.3,6.2,1.9c2.2,0.6,4.7,0.6,6.6,1.9
		c3.4,2.2,4.4,5.6,6.3,9.2C249.1,58.6,251.9,62,251.9,66z"/>
	<path id="XMLID_95_" class="st3" d="M247.4,55.3c-1.9-3.6-2.9-7-6.3-9.2c-1.9-1.2-4.3-1.2-6.6-1.9c-2.1-0.6-3.9-1.9-6.2-1.9
		c-5.3,0-9.2,2-13.1,4.9c-3,2.3-6.5,4.9-8.1,8.4c-1.5,3.1-2.4,6.6-2.4,10.3c0,3.7,2.6,6.1,4.1,9.3c1.7,3.4,2.4,7.4,5.4,9.7
		c1.7,1.3,3.6,2.3,5.7,3.1c2.6,1,5.5,1.5,8.4,1.5c3,0,5.2-1.3,7.8-2.3c2.8-1.1,6-2,8.2-3.9c2.8-2.6,3.9-6.1,5.3-9.8
		c0.9-2.5,2.4-4.9,2.4-7.7C251.9,62,249.1,58.6,247.4,55.3z M248.4,66.6c-0.1,0.5-0.6,0.8-1.1,0.8c-0.2,0-0.5,0-0.7,0.1
		c-0.6,0.4,0.3,1.2,0.1,1.9c-0.4,0.2-0.8,0.3-1.2,0.3c-0.1-0.6-0.8-0.9-1.4-0.7c-0.6,0.2-0.8,0.9-0.6,1.5c0.4-0.2,0.9-0.1,1.1,0.3
		c0.2,0.3,0.2,0.8-0.1,1.1c-0.2,0.2-0.5,0.3-0.7,0.5c-0.4,0.5,0.3,1.4,0.9,1.1c0.4,0.8-0.5,1.7-1.3,2.3c1,0.1,1.3,1.8,0.4,2.3
		c-0.6,0.3-1.5,0.3-1.4,1c0.8,0.1,1.1,1.3,0.5,1.7c-0.2,0.1-0.5,0.2-0.8,0.2c-1.4,0.2-2.9,0.3-4.3,0.2c-0.3,0.4-0.1,1.1,0.4,1.3
		c-0.6,0.6-1.9-0.2-1.7-1c-0.4-0.1-0.8-0.2-1.2-0.1s-0.7,0.4-0.7,0.8c0,0.5,0.7,1,0.4,1.4c-0.2,0.4-0.8,0.2-1.1,0.5
		c-0.3,0.4,0.2,1,0,1.5c-0.1,0.5-0.9,0.7-1.4,0.5c-0.5-0.2-1-0.5-1.6-0.5c-0.6,0-1.1,0.7-0.7,1.1c0,0.7-1.1,0.8-1.7,0.5
		c-0.6-0.4-1.2-1-1.9-0.9c-0.7,0-1.3,0.8-2.1,0.6c-0.8-0.2-0.9-1.2-1.5-1.7c-0.5-0.4-1.1-0.3-1.7-0.5c-0.6-0.2-1.1-0.9-0.7-1.3
		c0.3-0.3,0.8-0.2,1.1-0.5c0.3-0.3,0.3-0.8,0.2-1.3c-0.1-0.5-0.2-1-0.6-1.4c-0.4-0.3-1.1-0.2-1.3,0.3c-0.1,0.3,0,0.6-0.1,0.9
		c-0.2,0.5-1,0.3-1.5,0s-1.1-0.7-1.5-0.3c-0.1,0.1-0.2,0.3-0.3,0.4c-0.4,0.5-1.1,0.5-1.6,0.2c-0.5-0.2-1-0.6-1.6-0.7
		c-0.6-0.1-0.6-0.3-1-0.3c-0.7-0.2-0.8,0.2-1-0.9c-0.1-0.5-0.5-0.8-0.5-1.3c-0.2-1.3,1.8-2.5,1.2-3.7c-0.3-0.5-1-0.7-1.2-1.2
		c-0.4-0.9,0.7-2.2,0-2.9c-0.3-0.4-1-0.4-1.3-0.8c-0.2-0.3-0.2-0.6-0.4-0.9c-0.4-1.2-2.2-1.9-1.9-3.1c0.2-0.8,1.3-1.2,1.6-2
		c0.3-0.8-0.3-1.8,0.1-2.5c0.5-0.7,1.8-0.6,2-1.5c0.1-0.4-0.2-0.8-0.5-1.2c-0.2-0.4-0.4-0.9,0-1.2c0.1-0.1,0.3-0.1,0.5-0.2
		c0.8-0.1,2-0.2,2.2-1c0.2-0.8-0.5-1.9,0.2-2.2c0.2-0.1,0.5-0.1,0.7-0.2c0.3-0.3,0-0.8-0.3-1.1c-0.3-0.3-0.7-0.6-0.5-1
		c0.1-0.2,0.4-0.3,0.6-0.4c0.5-0.2,1.1-0.4,1.6-0.1c0.7,0.3,1.2,1.5,2,1.2c0.5-0.2,0.5-0.9,0.9-1.3c0.9-0.9,2.7,0.6,3.5-0.3
		c0.5-0.6,0.1-1.7,0.8-2.1c0.5,0.6,1.4,0.7,2,0.2c0.6-0.4,0.7-1.4,0.3-2c0.8,0,1.6-0.6,1.9-1.4c0.8-0.4,1.7,0.2,2.3,0.8
		c0.6,0.7,1.2,1.5,2,1.6c0.6,0.1,1.2-0.3,1.8-0.2c0.6,0,1.3,0.7,0.9,1.2c-0.2,0.2-0.4,0.2-0.6,0.4c-0.4,0.3-0.4,1,0.1,1.3
		c0.6,0.4,1.5-0.3,2.2,0c0.5,0.2,0.7,0.8,0.8,1.3c0.7,0.6,1.4-0.8,2.3-0.8c0.4,0,0.7,0.3,1.1,0.2c0.3,0,0.5-0.3,0.8-0.4
		c0.6-0.4,1.4-0.3,1.9,0c0.6,0.4,0.9,1.1,0.7,1.8c-0.1,0.6-0.5,1.2-0.2,1.7c0.2,0.4,0.7,0.5,1.2,0.7c0.4,0.2,0.9,0.6,0.6,1
		c-0.2,0.3-0.6,0.3-0.7,0.6c-0.3,0.4,0,0.9,0.4,1.1c0.4,0.2,0.8,0.3,1.2,0.6c0.4,0.3,0.5,0.9,0.1,1.1c-0.5,0.1-1.1,0.2-1.5,0.6
		c-0.4,0.4-0.5,1.1,0,1.4c0.6,0.4,1.7-0.2,1.9,0.5c0.2,0.5-0.4,0.8-0.8,1c0.8,0.6,1.8,0.8,2.8,0.5c0.3,0.6,0.1,1.3-0.4,1.8
		C248.2,65.6,248.5,66.1,248.4,66.6z"/>
	<path id="XMLID_94_" class="st4" d="M229.7,83.2c-0.5,0.6-1.6,0-2.1-0.6c-0.4-0.6-0.6-1.4-0.9-2c-0.2-0.4-0.4-0.7-0.6-1.1
		c-0.2-0.8,0.1-1.7-0.1-2.5c-0.2-0.6-0.7-1.2-0.6-1.8c0-0.6,0.4-1.1,0.4-1.7c0-0.5-0.5-1-1-1s-1,0.3-1.2,0.8
		c-0.1,0.2-0.1,0.5-0.2,0.7c-0.3,0.5-1.2,0.3-1.6,0.8c-0.5,0.5,0,1.5-0.5,2c-0.5,0.6-1.5,0.1-2.1,0.6c-0.2,0.1-0.4,0.4-0.6,0.6
		c-0.5,0.5-1.3,0.6-1.9,0.2c-0.6-0.3-0.9-1.1-0.7-1.8c0.1-0.3,0.3-0.6,0.3-0.9c0-0.6-0.9-1.2-0.6-1.8c0.1-0.2,0.5-0.3,0.7-0.4
		c1.2-0.4,2.1-1.6,2.2-2.9c0.9,0.1,1.7-0.9,1.2-1.6c-0.7-0.9-2.2,0.1-3.1-0.5c-0.2-0.2-0.4-0.4-0.6-0.6c-0.5-0.3-1.1-0.2-1.6,0.1
		s-0.9,0.6-1.5,0.8c-0.9,0.3-1.9,0-2.5-0.8c-0.2-0.3-0.4-0.7-0.2-1.1c0.1-0.2,0.3-0.3,0.4-0.5c0.4-0.4,0.5-1,0.2-1.5
		c0.6-0.9,2.1-0.3,3-0.9c0.2-0.2,0.4-0.4,0.6-0.5c0.9-0.5,2,0.7,2.9,0.3c0.4-0.2,0.6-0.6,0.9-0.8c0.7-0.5,1.6-0.1,2.3,0.3
		c0.2-0.6,0.3-1.4-0.3-1.7c-0.3-0.2-0.8-0.1-1.2-0.1c-0.4,0-0.9-0.1-1-0.4c-0.2-0.5,0.4-1,0.2-1.4c-0.2-0.4-0.7-0.4-1-0.7
		c-0.4-0.3-0.5-0.8-0.4-1.3c0.1-0.5,0.2-0.9,0.3-1.4c0-0.3,0-0.7,0.3-1c0.4-0.5,1.2-0.3,1.7,0c0.5,0.4,0.9,0.9,1.5,1
		c0.9,0.2,2.1-0.5,2.6,0.3c0.2,0.2,0.2,0.5,0.2,0.8c0.1,0.5,0.4,1,0.9,1.1s1.1-0.1,1.2-0.6c0.1-0.6-0.5-1.1-0.4-1.7
		c0.1-0.5,0.8-0.7,1-1.2c0.3-0.8-1-1.9-0.3-2.5c0.2-0.1,0.4-0.2,0.5-0.4c0.3-0.5-0.7-1-0.5-1.5c0.1-0.1,0.2-0.2,0.3-0.3
		c0.9-0.5,2-0.2,2.6,0.6c0.4,0.5,0.5,1.2,0.9,1.6c0.5,0.5,1.3,0.7,1.5,1.4c0.1,0.9-1.1,1.6-0.8,2.4c0.2,0.6,1,0.7,1.6,0.6
		c0.6-0.1,1.2-0.5,1.8-0.3c-0.2-0.5,0.5-0.8,1.1-0.8c0.5,0,1.3,0,1.3-0.6c0.7-0.5,1.6,0.1,1.9,0.9c0.4,0.7,0.4,1.6,1,2.2
		c0.2,0.3-0.2,0.7-0.6,0.8c-0.3,0.1-0.8,0.3-0.8,0.7c0,0.4,0.6,0.7,0.6,1.2c0,0.6-1,0.6-1.3,1.1c-0.3,0.4,0,1,0.5,1.2
		c0.5,0.2,1,0.2,1.5,0.2c0.5,0,1.1,0.2,1.3,0.6c0.1,0.2,0.1,0.3,0.2,0.5c0.2,0.2,0.5,0.2,0.7,0.2c0.7,0,1.3-0.1,2-0.1
		c0.4,0,0.8,0,1.2,0.1c0.4,0.2,0.6,0.6,0.5,1c-0.3,0.7-1.6,0.6-1.6,1.3c0,0.4,0.4,0.7,0.5,1.1c0.1,0.4-0.2,0.8-0.6,0.9
		c-0.4,0.1-0.8,0.1-1.2-0.1c-0.3-0.1-0.5-0.3-0.8-0.3s-0.6,0.1-0.7,0.4c0,0.2,0.1,0.5,0,0.7c-0.1,0.1-0.3,0.1-0.4,0.1
		c-0.4,0-0.8,0-1.2-0.1c-0.4-0.1-0.7-0.4-1-0.5c-0.4-0.2-0.8-0.3-1.1-0.1c-0.3,0.2-0.5,0.7-0.2,1c-0.7-0.2-1.8-0.3-2,0.5
		c-0.2,0.8,0.7,1.3,1.5,1.4c0.8,0,1.7-0.1,2.2,0.6c0.3,0.4,0.4,0.9,0.8,1.2c0.6,0.4,1.6-0.3,2.2,0.1c0.4,0.3,0.4,1,0,1.3
		c-0.3,0.4-0.9,0.5-1.4,0.6c0.3,0.6,0.5,1.4-0.1,1.8c-0.4,0.3-0.9,0.1-1.4,0c-0.5-0.1-1.1,0-1.2,0.5c-0.6,0.3-1.3-0.3-1.6-1
		c-0.3-0.6-0.6-1.4-1.3-1.5c-0.2-0.1-0.5,0-0.8-0.1c-0.7-0.2-0.7-1.3-1.3-1.8c-0.4-0.3-1-0.3-1.3,0c-0.4,0.3-0.4,0.9-0.2,1.3
		c0.3,0.5,0.9,0.8,0.8,1.3c-0.1,0.6-0.9,0.6-1.2,1.1c-0.5,0.8,0.7,1.7,0.4,2.6c-0.1,0.2-0.2,0.3-0.2,0.5c0,0.2,0.2,0.4,0.3,0.5
		c0.3,0.4,0.3,1.1,0,1.5C230.8,83,230.2,83.3,229.7,83.2"/>
	<g id="Calque_2_-_copie_2">
		<g id="Calque_4_-_copie_2">
			<path id="XMLID_75_" class="st1" d="M229.6,62.7l-0.5-6.9l-0.8-10.6v-0.6l0,0.3l0-0.3v0.5l-0.8,10.6l-0.5,6.9
				c-0.2,2.1-0.2,4.3,0,6.4l0.5,7.5l0.7,10.1v0.6l0-0.3l0,0.3v-0.5l0.7-10.1l0.5-7.5C229.7,67,229.7,64.9,229.6,62.7z"/>
			<path id="XMLID_74_" class="st1" d="M231.5,64.6l4.5-5.2l7-8l0.5-0.5l-0.2,0.2l0.2-0.2l-0.4,0.4l-8,7l-5.2,4.5
				c-1.6,1.4-3.1,2.9-4.5,4.5l-4.9,5.7l-6.7,7.7l-0.5,0.5l0.2-0.2l-0.2,0.2l0.4-0.4l7.7-6.7l5.7-4.9
				C228.6,67.7,230.1,66.2,231.5,64.6z"/>
			<path id="XMLID_73_" class="st1" d="M226.9,62.8l-5.2-4.5l-8-7l-0.5-0.5l0.2,0.2l-0.2-0.2l0.4,0.4l7,8l4.5,5.2
				c1.4,1.6,2.9,3.1,4.5,4.5l5.7,4.9l7.7,6.7l0.5,0.5l-0.2-0.2l0.2,0.2l-0.4-0.4l-6.7-7.7l-4.9-5.7C230,65.7,228.5,64.2,226.9,62.8z
				"/>
			<path id="XMLID_72_" class="st1" d="M225.1,64.7l-6.9,0.5L207.5,66h-0.6l0.3,0l-0.3,0h0.5l10.6,0.8l6.9,0.5
				c2.1,0.2,4.3,0.2,6.4,0l7.5-0.5L249,66h0.6l-0.3,0l0.3,0h-0.5L239,65.2l-7.5-0.5C229.3,64.5,227.2,64.5,225.1,64.7z"/>
		</g>
		<g id="Calque_3_-_copie_2" class="st5">
			<path id="XMLID_71_" class="st6" d="M152.1,120.8l-0.7-19.4l-1.1-29.8v-1.8l0,0.9l0-0.7v1.5l-1.1,29.8l-0.7,19.4
				c-0.2,6-0.2,12,0,18l0.8,21.1l1,28.5v1.8l0-0.9l0,0.7v-1.5l1-28.5l0.8-21.1C152.3,132.8,152.3,126.8,152.1,120.8z"/>
			<path id="XMLID_70_" class="st6" d="M158,124.8l13.2-14.2l20.3-21.9l1.3-1.3l-0.7,0.6l0.5-0.5l-1,1l-21.9,20.3l-14.2,13.2
				c-4.4,4.1-8.6,8.3-12.7,12.7l-14.4,15.5L109,171.1l-1.3,1.3l0.7-0.6l-0.5,0.5l1-1l20.9-19.4l15.5-14.4
				C149.6,133.4,153.9,129.2,158,124.8z"/>
			<path id="XMLID_69_" class="st6" d="M159.3,131.8l19.4-0.7l29.8-1.1h1.8l-0.9,0l0.7,0h-1.5l-29.8-1.1l-19.4-0.7
				c-6-0.2-12-0.2-18,0l-21.1,0.8l-28.5,1h-1.8l0.9,0l-0.7,0h1.5l28.5,1l21.1,0.8C147.3,132,153.4,132,159.3,131.8z"/>
			<path id="XMLID_68_" class="st6" d="M155.4,137.7l14.2,13.2l21.9,20.3l1.3,1.3l-0.6-0.7l0.5,0.5l-1-1l-20.3-21.9l-13.2-14.2
				c-4.1-4.4-8.3-8.6-12.7-12.7l-15.5-14.4L109,88.7l-1.3-1.3l0.6,0.7l-0.5-0.5l1,1l19.4,20.9l14.4,15.5
				C146.7,129.3,151,133.6,155.4,137.7z"/>
		</g>
	</g>
	<g id="XMLID_56_">
		<path id="XMLID_38_" class="st7" d="M239.4,65.9c0,1.8-2.4,3.1-3.2,4.5c-0.9,1.5-0.8,4.2-2.3,5.1c-1.5,0.9-3.7-0.5-5.5-0.5
			c-1.8,0-4.1,1.4-5.5,0.5c-1.5-0.9-1.4-3.5-2.3-5.1c-0.9-1.5-3.2-2.7-3.2-4.5c0-1.8,2.4-3.1,3.2-4.5c0.9-1.5,0.8-4.2,2.3-5.1
			c1.5-0.9,3.7,0.5,5.5,0.5c1.8,0,4.1-1.4,5.5-0.5c1.5,0.9,1.4,3.5,2.3,5.1C237.1,62.8,239.4,64,239.4,65.9z"/>
	</g>
	<g id="XMLID_47_">
		<path id="XMLID_35_" class="st8" d="M238,65.9c0,1.6-2.3,2.6-3,3.8c-0.8,1.3-0.5,3.8-1.8,4.5c-1.3,0.7-3.3-0.7-4.8-0.7
			c-1.6,0-3.6,1.4-4.8,0.7c-1.3-0.8-1-3.2-1.8-4.5c-0.7-1.3-3-2.3-3-3.8c0-1.6,2.3-2.6,3-3.8c0.8-1.3,0.5-3.8,1.8-4.5
			c1.3-0.7,3.3,0.7,4.8,0.7c1.6,0,3.6-1.4,4.8-0.7c1.3,0.8,1,3.2,1.8,4.5C235.7,63.3,238,64.3,238,65.9z"/>
	</g>
	<g id="XMLID_44_" class="st9">
		<path id="XMLID_36_" class="st10" d="M235.6,65.9c0,1.1-2.2,1.7-2.7,2.6c-0.6,1,0,3.1-0.9,3.7c-0.9,0.5-2.5-1-3.6-1
			c-1.1,0-2.7,1.6-3.6,1c-1-0.6-0.4-2.7-0.9-3.7c-0.5-0.9-2.7-1.5-2.7-2.6c0-1.1,2.2-1.7,2.7-2.6c0.6-1,0-3.1,0.9-3.7
			c0.9-0.5,2.5,1,3.6,1c1.1,0,2.7-1.6,3.6-1c1,0.6,0.4,2.7,0.9,3.7C233.5,64.1,235.6,64.7,235.6,65.9z"/>
	</g>
	<g id="XMLID_41_">
		<path id="XMLID_39_" class="st11" d="M233.2,65.9c0,0.1-7.5-1.7-7.6-1.6c-0.1,0.1,5.3,5.7,5.2,5.8c-0.1,0.1-2.3-7.4-2.4-7.4
			c-0.1,0-2.3,7.4-2.4,7.4c-0.1-0.1,5.2-5.6,5.2-5.8c-0.1-0.1-7.6,1.7-7.6,1.6c0-0.1,7.5,1.7,7.6,1.6c0.1-0.1-5.3-5.7-5.2-5.8
			c0.1-0.1,2.3,7.4,2.4,7.4c0.1,0,2.3-7.4,2.4-7.4c0.1,0.1-5.2,5.6-5.2,5.8C225.7,67.6,233.2,65.7,233.2,65.9z"/>
	</g>
</g>
<g id="Calque_5_-_copie_3">
	<path id="XMLID_34_" class="st0" d="M205.8,37.8c0,2.4-1.3,4.5-2.1,6.7c-1.1,3.2-5.4,9.4-7.9,11.7c-1.9,1.7-4.7,2.5-7.2,3.5
		c-2.3,0.9-4.2,2-6.8,2c-2.6,0-5.1-0.5-7.4-1.4c-1.8-0.7-4.8-3.3-6.4-4.5c-2.6-2-3.3-5.5-4.7-8.5c-1.3-2.7-3.6-4.9-3.6-8.1
		c0-3.2,0.7-6.3,2.1-9c1.5-3,4.5-5.4,7.1-7.3c3.4-2.6,11.5-5.8,16.2-5.8c2,0,3.6,1.1,5.4,1.6c1.9,0.6,4.1,0.6,5.8,1.6
		c3,1.9,3.9,4.9,5.5,8.1C203.3,31.4,205.8,34.3,205.8,37.8z"/>
	<path id="XMLID_33_" class="st1" d="M207.3,37.8c0,2.6-1.4,4.9-2.3,7.2c-1.2,3.4-2.3,6.8-4.9,9.2c-2,1.9-5,2.7-7.7,3.7
		c-2.5,0.9-4.5,2.1-7.3,2.1c-2.8,0-5.5-0.5-7.9-1.5c-1.9-0.7-3.7-1.7-5.3-2.9c-2.8-2.1-3.5-5.9-5.1-9.1c-1.4-2.9-3.9-5.2-3.9-8.7
		c0-3.5,0.8-6.8,2.2-9.7c1.6-3.2,4.8-5.8,7.6-7.9c3.7-2.8,7.4-4.6,12.4-4.6c2.1,0,3.9,1.2,5.8,1.8c2.1,0.6,4.4,0.6,6.2,1.7
		c3.2,2.1,4.1,5.3,5.9,8.6C204.6,30.9,207.3,34.1,207.3,37.8z"/>
	<path id="XMLID_32_" class="st2" d="M204.9,37.8c0,2.3-1.3,4.4-2,6.4c-1.1,3.1-2.1,6-4.4,8.2c-1.8,1.7-4.5,2.4-6.9,3.3
		c-2.2,0.8-4,1.9-6.5,1.9c-2.5,0-4.9-0.5-7.1-1.3c-1.7-0.7-3.3-1.5-4.8-2.6c-2.5-1.9-3.2-5.3-4.5-8.1c-1.3-2.6-3.4-4.7-3.4-7.8
		c0-3.1,0.7-6,2-8.7c1.4-2.9,4.3-5.1,6.8-7c3.3-2.5,6.6-4.1,11-4.1c1.9,0,3.4,1.1,5.2,1.6c1.9,0.5,3.9,0.5,5.5,1.6
		c2.9,1.8,3.7,4.7,5.3,7.7C202.5,31.6,204.9,34.5,204.9,37.8z"/>
	<path id="XMLID_27_" class="st3" d="M201,28.9c-1.6-3-2.4-5.9-5.3-7.7c-1.6-1-3.6-1-5.5-1.6c-1.7-0.5-3.3-1.6-5.2-1.6
		c-4.4,0-7.7,1.7-11,4.1c-2.5,1.9-5.4,4.2-6.8,7c-1.3,2.6-2,5.6-2,8.7c0,3.1,2.2,5.2,3.4,7.8c1.4,2.9,2,6.2,4.5,8.1
		c1.4,1.1,3.1,2,4.8,2.6c2.2,0.8,4.6,1.3,7.1,1.3c2.5,0,4.3-1.1,6.5-1.9c2.4-0.9,5-1.6,6.9-3.3c2.4-2.2,3.3-5.1,4.4-8.2
		c0.7-2.1,2-4.1,2-6.4C204.9,34.5,202.5,31.6,201,28.9z M201.9,38.4c-0.1,0.4-0.5,0.7-0.9,0.7c-0.2,0-0.4,0-0.6,0.1
		c-0.5,0.3,0.2,1,0.1,1.6c-0.3,0.2-0.7,0.3-1,0.2c-0.1-0.5-0.7-0.8-1.2-0.6c-0.5,0.2-0.7,0.8-0.5,1.2c0.3-0.2,0.7-0.1,0.9,0.2
		c0.2,0.3,0.2,0.7-0.1,0.9c-0.2,0.2-0.4,0.2-0.6,0.4c-0.4,0.4,0.2,1.2,0.7,0.9c0.4,0.7-0.4,1.5-1.1,1.9c0.8,0.1,1.1,1.5,0.3,1.9
		c-0.5,0.2-1.3,0.3-1.2,0.8c0.7,0,0.9,1.1,0.4,1.4c-0.2,0.1-0.4,0.2-0.6,0.2c-1.2,0.2-2.4,0.2-3.6,0.2c-0.2,0.4-0.1,0.9,0.3,1.1
		c-0.5,0.5-1.6-0.2-1.4-0.9c-0.3-0.1-0.7-0.2-1-0.1c-0.3,0.1-0.6,0.4-0.6,0.7c0,0.4,0.6,0.8,0.4,1.2c-0.2,0.3-0.7,0.2-0.9,0.4
		c-0.3,0.3,0.1,0.9,0,1.3c-0.1,0.5-0.7,0.6-1.2,0.4c-0.4-0.2-0.9-0.5-1.3-0.4s-0.9,0.6-0.6,0.9c0,0.6-0.9,0.7-1.4,0.4
		c-0.5-0.3-1-0.8-1.6-0.8c-0.6,0-1.1,0.7-1.7,0.5c-0.6-0.2-0.8-1-1.3-1.4c-0.4-0.3-0.9-0.3-1.4-0.4c-0.5-0.2-0.9-0.7-0.6-1.1
		c0.2-0.3,0.7-0.2,1-0.4c0.3-0.2,0.3-0.7,0.2-1.1c-0.1-0.4-0.2-0.9-0.5-1.1c-0.3-0.3-0.9-0.2-1.1,0.2c-0.1,0.2,0,0.5-0.1,0.7
		c-0.2,0.4-0.8,0.3-1.2,0s-0.9-0.6-1.3-0.3c-0.1,0.1-0.2,0.3-0.3,0.4c-0.3,0.4-0.9,0.4-1.4,0.2c-0.5-0.2-0.9-0.5-1.4-0.6
		c-0.5-0.1-0.5-0.3-0.8-0.3c-0.6-0.2-0.6,0.2-0.8-0.7c-0.1-0.4-0.4-0.7-0.5-1.1c-0.2-1.1,1.5-2.1,1-3.1c-0.2-0.4-0.8-0.6-1-1
		c-0.4-0.8,0.6-1.8,0-2.5c-0.3-0.3-0.8-0.3-1.1-0.7c-0.2-0.2-0.2-0.5-0.3-0.8c-0.4-1-1.8-1.6-1.6-2.6c0.2-0.7,1.1-1,1.3-1.7
		c0.2-0.7-0.3-1.5,0.1-2.1c0.4-0.6,1.5-0.5,1.6-1.2c0.1-0.4-0.2-0.7-0.4-1c-0.2-0.3-0.3-0.8,0-1c0.1-0.1,0.3-0.1,0.4-0.1
		c0.7-0.1,1.6-0.2,1.8-0.9c0.2-0.6-0.4-1.6,0.1-1.8c0.2-0.1,0.4,0,0.6-0.2c0.3-0.2,0-0.7-0.2-0.9c-0.3-0.2-0.6-0.5-0.5-0.9
		c0.1-0.2,0.3-0.3,0.5-0.4c0.4-0.2,1-0.3,1.4-0.1c0.6,0.3,1,1.3,1.7,1c0.4-0.2,0.4-0.8,0.7-1.1c0.7-0.7,2.3,0.5,3-0.3
		c0.4-0.5,0.1-1.4,0.6-1.8c0.4,0.5,1.2,0.6,1.7,0.2c0.5-0.4,0.6-1.1,0.2-1.6c0.7,0,1.3-0.5,1.6-1.2c0.6-0.4,1.4,0.1,1.9,0.7
		c0.5,0.6,1,1.2,1.7,1.3c0.5,0.1,1-0.2,1.5-0.2c0.5,0,1.1,0.6,0.7,1c-0.1,0.2-0.4,0.2-0.5,0.3c-0.3,0.3-0.3,0.8,0.1,1.1
		c0.5,0.3,1.3-0.2,1.8,0c0.4,0.2,0.6,0.7,0.7,1.1c0.6,0.5,1.2-0.7,1.9-0.7c0.3,0,0.6,0.2,0.9,0.2c0.3,0,0.4-0.2,0.7-0.4
		c0.5-0.3,1.1-0.3,1.6,0c0.5,0.3,0.7,0.9,0.6,1.5c-0.1,0.5-0.4,1-0.2,1.4c0.2,0.3,0.6,0.4,1,0.6c0.4,0.1,0.7,0.5,0.5,0.9
		c-0.1,0.2-0.5,0.3-0.6,0.5c-0.2,0.3,0,0.7,0.4,0.9c0.3,0.2,0.7,0.3,1,0.5c0.3,0.2,0.4,0.7,0.1,1c-0.5,0.1-0.9,0.2-1.3,0.5
		c-0.3,0.3-0.4,1,0,1.2c0.5,0.3,1.4-0.1,1.6,0.4c0.1,0.4-0.3,0.7-0.7,0.8c0.6,0.5,1.5,0.7,2.3,0.5c0.2,0.5,0.1,1.1-0.3,1.5
		C201.7,37.5,202,38,201.9,38.4z"/>
	<path id="XMLID_23_" class="st4" d="M186.2,52.3c-0.4,0.5-1.4,0-1.7-0.5s-0.5-1.2-0.7-1.7c-0.2-0.3-0.4-0.6-0.5-1
		c-0.2-0.7,0.1-1.4-0.1-2.1c-0.1-0.5-0.5-1-0.5-1.5c0-0.5,0.4-0.9,0.3-1.4c0-0.4-0.4-0.8-0.8-0.8c-0.4,0-0.9,0.2-1,0.7
		c-0.1,0.2,0,0.4-0.2,0.6c-0.3,0.4-1,0.3-1.4,0.6c-0.4,0.4,0,1.2-0.4,1.7c-0.4,0.5-1.3,0.1-1.8,0.5c-0.2,0.1-0.3,0.3-0.5,0.5
		c-0.4,0.4-1.1,0.5-1.6,0.2c-0.5-0.3-0.7-0.9-0.6-1.5c0.1-0.3,0.2-0.5,0.2-0.8c0-0.5-0.8-1-0.5-1.5c0.1-0.2,0.4-0.3,0.6-0.3
		c1-0.3,1.8-1.3,1.9-2.4c0.7,0.1,1.4-0.8,1-1.4c-0.6-0.7-1.8,0.1-2.6-0.5c-0.2-0.1-0.3-0.3-0.5-0.5c-0.4-0.3-0.9-0.1-1.3,0.1
		c-0.4,0.2-0.8,0.5-1.2,0.7c-0.7,0.3-1.6,0-2.1-0.6c-0.2-0.3-0.3-0.6-0.2-0.9c0.1-0.2,0.2-0.3,0.4-0.4c0.3-0.3,0.4-0.8,0.2-1.3
		c0.5-0.7,1.8-0.2,2.5-0.8c0.2-0.1,0.3-0.3,0.5-0.5c0.7-0.4,1.7,0.6,2.5,0.2c0.3-0.2,0.5-0.5,0.8-0.7c0.6-0.4,1.3-0.1,1.9,0.3
		c0.2-0.5,0.2-1.2-0.2-1.5c-0.3-0.2-0.7-0.1-1-0.1c-0.3,0-0.7,0-0.9-0.4c-0.1-0.4,0.3-0.8,0.1-1.2c-0.1-0.3-0.6-0.4-0.9-0.6
		c-0.3-0.2-0.4-0.7-0.4-1.1c0-0.4,0.2-0.8,0.3-1.2c0-0.3,0-0.6,0.2-0.8c0.3-0.4,1-0.3,1.4,0s0.8,0.7,1.3,0.8
		c0.7,0.1,1.7-0.4,2.2,0.2c0.1,0.2,0.1,0.4,0.2,0.7c0.1,0.4,0.3,0.8,0.7,1c0.4,0.1,0.9-0.1,1-0.5c0.1-0.5-0.4-1-0.3-1.4
		c0.1-0.4,0.7-0.6,0.9-1c0.2-0.7-0.8-1.6-0.3-2.1c0.1-0.1,0.3-0.2,0.4-0.3c0.2-0.4-0.6-0.8-0.4-1.3c0-0.1,0.2-0.2,0.3-0.3
		c0.7-0.4,1.7-0.1,2.2,0.5c0.3,0.4,0.4,1,0.7,1.4c0.4,0.4,1.1,0.6,1.2,1.2c0.1,0.7-0.9,1.3-0.7,2c0.2,0.5,0.8,0.6,1.3,0.5
		s1-0.4,1.5-0.3c-0.2-0.4,0.5-0.7,0.9-0.6s1.1,0,1.1-0.5c0.5-0.4,1.3,0.1,1.6,0.7c0.3,0.6,0.4,1.3,0.8,1.9c0.1,0.3-0.2,0.6-0.5,0.7
		c-0.3,0.1-0.7,0.3-0.7,0.6c0,0.4,0.5,0.6,0.5,1c0,0.5-0.8,0.5-1.1,0.9c-0.2,0.4,0,0.9,0.4,1c0.4,0.2,0.8,0.1,1.3,0.2
		c0.4,0,0.9,0.2,1.1,0.5c0.1,0.1,0.1,0.3,0.2,0.4c0.1,0.2,0.4,0.2,0.6,0.1c0.6,0,1.1-0.1,1.7-0.1c0.3,0,0.7,0,1,0.1s0.5,0.5,0.4,0.8
		c-0.2,0.6-1.3,0.5-1.4,1.1c0,0.3,0.3,0.6,0.4,0.9c0.1,0.3-0.2,0.7-0.5,0.8c-0.3,0.1-0.7,0.1-1-0.1c-0.2-0.1-0.4-0.2-0.7-0.2
		c-0.2,0-0.5,0.1-0.5,0.4c0,0.2,0.1,0.4,0,0.6c-0.1,0.1-0.2,0.1-0.3,0.1c-0.3,0-0.7,0-1-0.1c-0.3-0.1-0.6-0.3-0.9-0.4
		s-0.7-0.2-0.9-0.1c-0.3,0.2-0.4,0.6-0.1,0.8c-0.6-0.2-1.5-0.2-1.7,0.4c-0.2,0.6,0.6,1.1,1.3,1.2c0.7,0,1.5-0.1,1.9,0.5
		c0.2,0.3,0.3,0.8,0.6,1c0.5,0.3,1.3-0.3,1.8,0.1c0.3,0.2,0.3,0.8,0,1.1c-0.3,0.3-0.7,0.4-1.1,0.5c0.2,0.5,0.4,1.2-0.1,1.5
		c-0.3,0.2-0.7,0.1-1.1,0c-0.4-0.1-0.9,0-1,0.4c-0.5,0.3-1.1-0.3-1.4-0.8c-0.3-0.5-0.5-1.2-1.1-1.3c-0.2,0-0.4,0-0.6-0.1
		c-0.6-0.2-0.6-1.1-1.1-1.5c-0.3-0.2-0.8-0.2-1.1,0c-0.3,0.3-0.4,0.8-0.2,1.1c0.2,0.4,0.8,0.6,0.7,1.1c-0.1,0.5-0.8,0.5-1,0.9
		c-0.4,0.6,0.6,1.5,0.3,2.2c-0.1,0.1-0.2,0.3-0.1,0.4c0,0.2,0.1,0.3,0.2,0.4c0.3,0.4,0.3,0.9,0,1.3S186.6,52.4,186.2,52.3"/>
	<g id="Calque_2_-_copie_3">
		<g id="Calque_4_-_copie_3">
			<path id="XMLID_83_" class="st1" d="M186.1,35.1l-0.4-5.8l-0.6-8.9v-0.5l0,0.3l0-0.2v0.4l-0.6,8.9l-0.4,5.8
				c-0.1,1.8-0.1,3.6,0,5.4l0.4,6.3l0.6,8.5v0.5l0-0.3l0,0.2v-0.4l0.6-8.5l0.4-6.3C186.2,38.7,186.2,36.9,186.1,35.1z"/>
			<path id="XMLID_82_" class="st1" d="M187.7,36.7l3.8-4.4l5.9-6.8l0.4-0.4l-0.2,0.2l0.1-0.2l-0.3,0.3l-6.8,5.9l-4.4,3.8
				c-1.4,1.2-2.6,2.4-3.8,3.8l-4.1,4.8l-5.6,6.4l-0.4,0.4l0.2-0.2l-0.1,0.2l0.3-0.3l6.4-5.6l4.8-4.1C185.3,39.3,186.5,38,187.7,36.7
				z"/>
			<path id="XMLID_81_" class="st1" d="M183.9,35.1l-4.4-3.8l-6.8-5.9l-0.4-0.4l0.2,0.2l-0.2-0.1l0.3,0.3l5.9,6.8l3.8,4.4
				c1.2,1.4,2.4,2.6,3.8,3.8l4.8,4.1l6.4,5.6l0.4,0.4l-0.2-0.2l0.2,0.1l-0.3-0.3l-5.6-6.4l-4.1-4.8
				C186.5,37.6,185.2,36.3,183.9,35.1z"/>
			<path id="XMLID_80_" class="st1" d="M182.3,36.7l-5.8,0.4l-8.9,0.6h-0.5l0.3,0l-0.2,0h0.4l8.9,0.6l5.8,0.4c1.8,0.1,3.6,0.1,5.4,0
				l6.3-0.4l8.5-0.6h0.5l-0.3,0l0.2,0h-0.4l-8.5-0.6l-6.3-0.4C185.9,36.6,184.1,36.6,182.3,36.7z"/>
		</g>
		<g id="Calque_3_-_copie_3" class="st5">
			<path id="XMLID_79_" class="st6" d="M152.1,120.8l-0.7-19.4l-1.1-29.8v-1.8l0,0.9l0-0.7v1.5l-1.1,29.8l-0.7,19.4
				c-0.2,6-0.2,12,0,18l0.8,21.1l1,28.5v1.8l0-0.9l0,0.7v-1.5l1-28.5l0.8-21.1C152.3,132.8,152.3,126.8,152.1,120.8z"/>
			<path id="XMLID_78_" class="st6" d="M158,124.8l13.2-14.2l20.3-21.9l1.3-1.3l-0.7,0.6l0.5-0.5l-1,1l-21.9,20.3l-14.2,13.2
				c-4.4,4.1-8.6,8.3-12.7,12.7l-14.4,15.5L109,171.1l-1.3,1.3l0.7-0.6l-0.5,0.5l1-1l20.9-19.4l15.5-14.4
				C149.6,133.4,153.9,129.2,158,124.8z"/>
			<path id="XMLID_77_" class="st6" d="M159.3,131.8l19.4-0.7l29.8-1.1h1.8l-0.9,0l0.7,0h-1.5l-29.8-1.1l-19.4-0.7
				c-6-0.2-12-0.2-18,0l-21.1,0.8l-28.5,1h-1.8l0.9,0l-0.7,0h1.5l28.5,1l21.1,0.8C147.3,132,153.4,132,159.3,131.8z"/>
			<path id="XMLID_76_" class="st6" d="M155.4,137.7l14.2,13.2l21.9,20.3l1.3,1.3l-0.6-0.7l0.5,0.5l-1-1l-20.3-21.9l-13.2-14.2
				c-4.1-4.4-8.3-8.6-12.7-12.7l-15.5-14.4L109,88.7l-1.3-1.3l0.6,0.7l-0.5-0.5l1,1l19.4,20.9l14.4,15.5
				C146.7,129.3,151,133.6,155.4,137.7z"/>
		</g>
	</g>
</g>
<g id="Calque_5_-_copie_4">
	<path id="XMLID_16_" class="st0" d="M251.4,110.6c0,1.7-0.9,3.1-1.5,4.6c-0.8,2.2-3.7,6.5-5.4,8.1c-1.3,1.2-3.2,1.7-4.9,2.4
		c-1.6,0.6-2.9,1.4-4.7,1.4c-1.8,0-3.5-0.3-5.1-0.9c-1.2-0.5-3.3-2.3-4.4-3.1c-1.8-1.4-2.3-3.8-3.3-5.9c-0.9-1.9-2.5-3.4-2.5-5.6
		c0-2.2,0.5-4.4,1.4-6.2c1-2.1,3.1-3.7,4.9-5.1c2.4-1.8,8-4,11.1-4c1.4,0,2.5,0.8,3.7,1.1c1.3,0.4,2.8,0.4,4,1.1
		c2.1,1.3,2.7,3.4,3.8,5.6C249.7,106.1,251.4,108.2,251.4,110.6z"/>
	<path id="XMLID_14_" class="st1" d="M253.4,110.6c0,1.9-1.1,3.6-1.7,5.3c-0.9,2.5-1.7,4.9-3.6,6.7c-1.5,1.4-3.7,2-5.6,2.7
		c-1.8,0.7-3.3,1.5-5.3,1.5c-2,0-4-0.4-5.8-1.1c-1.4-0.5-2.7-1.3-3.9-2.1c-2.1-1.5-2.6-4.3-3.7-6.6c-1-2.1-2.8-3.8-2.8-6.4
		c0-2.5,0.6-4.9,1.6-7.1c1.1-2.3,3.5-4.2,5.6-5.7c2.7-2,5.4-3.4,9-3.4c1.5,0,2.8,0.9,4.2,1.3c1.5,0.4,3.2,0.4,4.5,1.3
		c2.3,1.5,3,3.8,4.3,6.3C251.4,105.5,253.4,107.9,253.4,110.6z"/>
	<path id="XMLID_13_" class="st2" d="M250.8,110.6c0,1.6-0.9,3-1.4,4.4c-0.8,2.1-1.4,4.2-3,5.6c-1.3,1.2-3.1,1.7-4.7,2.3
		c-1.5,0.6-2.8,1.3-4.5,1.3c-1.7,0-3.4-0.3-4.9-0.9c-1.2-0.5-2.3-1.1-3.3-1.8c-1.7-1.3-2.2-3.6-3.1-5.6c-0.9-1.8-2.4-3.2-2.4-5.4
		c0-2.1,0.5-4.2,1.4-6c1-2,2.9-3.5,4.7-4.8c2.3-1.7,4.5-2.9,7.6-2.9c1.3,0,2.4,0.7,3.6,1.1c1.3,0.4,2.7,0.4,3.8,1.1
		c2,1.3,2.5,3.2,3.7,5.3C249.2,106.3,250.8,108.3,250.8,110.6z"/>
	<path id="XMLID_5_" class="st3" d="M248.2,104.4c-1.1-2.1-1.7-4.1-3.7-5.3c-1.1-0.7-2.5-0.7-3.8-1.1c-1.2-0.3-2.3-1.1-3.6-1.1
		c-3.1,0-5.3,1.2-7.6,2.9c-1.8,1.3-3.7,2.9-4.7,4.8c-0.9,1.8-1.4,3.8-1.4,6c0,2.2,1.5,3.6,2.4,5.4c1,2,1.4,4.3,3.1,5.6
		c1,0.7,2.1,1.4,3.3,1.8c1.5,0.6,3.2,0.9,4.9,0.9c1.7,0,3-0.7,4.5-1.3c1.6-0.6,3.5-1.1,4.7-2.3c1.6-1.5,2.3-3.5,3-5.6
		c0.5-1.4,1.4-2.8,1.4-4.4C250.8,108.3,249.2,106.3,248.2,104.4z M248.8,111c-0.1,0.3-0.4,0.5-0.6,0.5c-0.1,0-0.3,0-0.4,0.1
		c-0.3,0.2,0.2,0.7,0.1,1.1c-0.2,0.1-0.5,0.2-0.7,0.2c-0.1-0.3-0.5-0.5-0.8-0.4c-0.3,0.1-0.5,0.5-0.3,0.9c0.2-0.1,0.5,0,0.6,0.2
		c0.1,0.2,0.1,0.5-0.1,0.6c-0.1,0.1-0.3,0.2-0.4,0.3c-0.3,0.3,0.2,0.8,0.5,0.6c0.3,0.5-0.3,1-0.7,1.3c0.6,0.1,0.7,1,0.2,1.3
		c-0.3,0.2-0.9,0.2-0.8,0.6c0.5,0,0.6,0.7,0.3,1c-0.1,0.1-0.3,0.1-0.4,0.1c-0.8,0.1-1.7,0.2-2.5,0.1c-0.2,0.2,0,0.6,0.2,0.7
		c-0.4,0.4-1.1-0.1-1-0.6c-0.2-0.1-0.5-0.1-0.7-0.1s-0.4,0.3-0.4,0.5c0,0.3,0.4,0.6,0.2,0.8c-0.1,0.2-0.5,0.1-0.6,0.3
		c-0.2,0.2,0.1,0.6,0,0.9c-0.1,0.3-0.5,0.4-0.8,0.3c-0.3-0.1-0.6-0.3-0.9-0.3c-0.3,0-0.6,0.4-0.4,0.6c0,0.4-0.6,0.5-1,0.3
		s-0.7-0.6-1.1-0.5c-0.4,0-0.8,0.5-1.2,0.4c-0.4-0.1-0.5-0.7-0.9-1c-0.3-0.2-0.7-0.2-1-0.3c-0.3-0.1-0.6-0.5-0.4-0.8
		c0.2-0.2,0.5-0.1,0.7-0.3c0.2-0.2,0.2-0.5,0.1-0.7c-0.1-0.3-0.1-0.6-0.4-0.8c-0.2-0.2-0.7-0.1-0.7,0.1c0,0.2,0,0.3,0,0.5
		c-0.1,0.3-0.6,0.2-0.8,0c-0.3-0.2-0.6-0.4-0.9-0.2c-0.1,0.1-0.1,0.2-0.2,0.3c-0.2,0.3-0.6,0.3-0.9,0.1c-0.3-0.1-0.6-0.3-0.9-0.4
		c-0.3-0.1-0.3-0.2-0.6-0.2c-0.4-0.1-0.4,0.1-0.6-0.5c-0.1-0.3-0.3-0.5-0.3-0.8c-0.1-0.8,1.1-1.4,0.7-2.1c-0.2-0.3-0.6-0.4-0.7-0.7
		c-0.3-0.5,0.4-1.3,0-1.7c-0.2-0.2-0.6-0.2-0.8-0.5c-0.1-0.1-0.1-0.4-0.2-0.5c-0.3-0.7-1.3-1.1-1.1-1.8c0.1-0.5,0.7-0.7,0.9-1.1
		c0.2-0.5-0.2-1,0.1-1.4c0.3-0.4,1-0.4,1.1-0.9c0.1-0.3-0.1-0.5-0.3-0.7c-0.1-0.2-0.2-0.5,0-0.7c0.1-0.1,0.2-0.1,0.3-0.1
		c0.5-0.1,1.1-0.1,1.2-0.6c0.1-0.4-0.3-1.1,0.1-1.3c0.1-0.1,0.3,0,0.4-0.1c0.2-0.2,0-0.5-0.2-0.6c-0.2-0.2-0.4-0.4-0.3-0.6
		c0.1-0.1,0.2-0.2,0.3-0.2c0.3-0.1,0.7-0.2,1-0.1c0.4,0.2,0.7,0.9,1.2,0.7c0.3-0.1,0.3-0.5,0.5-0.7c0.5-0.5,1.6,0.4,2-0.2
		c0.3-0.3,0.1-1,0.4-1.2c0.3,0.3,0.8,0.4,1.1,0.1s0.4-0.8,0.2-1.1c0.5,0,0.9-0.3,1.1-0.8c0.4-0.3,1,0.1,1.3,0.5
		c0.3,0.4,0.7,0.9,1.2,0.9c0.3,0,0.7-0.1,1-0.1c0.4,0,0.7,0.4,0.5,0.7c-0.1,0.1-0.2,0.1-0.4,0.2c-0.2,0.2-0.2,0.6,0,0.7
		c0.4,0.2,0.9-0.1,1.3,0c0.3,0.1,0.4,0.5,0.5,0.8c0.4,0.3,0.8-0.5,1.3-0.5c0.2,0,0.4,0.2,0.6,0.1c0.2,0,0.3-0.2,0.5-0.2
		c0.3-0.2,0.8-0.2,1.1,0c0.3,0.2,0.5,0.6,0.4,1c-0.1,0.3-0.3,0.7-0.1,1c0.1,0.2,0.4,0.3,0.7,0.4s0.5,0.4,0.4,0.6
		c-0.1,0.2-0.3,0.2-0.4,0.4c-0.1,0.2,0,0.5,0.2,0.6c0.2,0.1,0.5,0.2,0.7,0.3c0.2,0.2,0.3,0.5,0.1,0.7c-0.3,0.1-0.7,0.1-0.9,0.3
		c-0.2,0.2-0.3,0.7,0,0.8c0.3,0.2,1-0.1,1.1,0.3c0.1,0.3-0.2,0.5-0.5,0.6c0.4,0.4,1.1,0.5,1.6,0.3c0.2,0.3,0.1,0.8-0.2,1
		C248.7,110.4,248.9,110.7,248.8,111z"/>
	<path id="XMLID_2_" class="st4" d="M237.9,120.6c-0.3,0.3-0.9,0-1.2-0.4c-0.3-0.3-0.3-0.8-0.5-1.2c-0.1-0.2-0.3-0.4-0.3-0.7
		c-0.1-0.5,0.1-1,0-1.5c-0.1-0.4-0.4-0.7-0.4-1c0-0.3,0.3-0.6,0.2-1c0-0.3-0.3-0.6-0.6-0.6c-0.3,0-0.6,0.2-0.7,0.5
		c0,0.1,0,0.3-0.1,0.4c-0.2,0.3-0.7,0.2-0.9,0.4c-0.3,0.3,0,0.9-0.3,1.2c-0.3,0.3-0.9,0.1-1.2,0.3c-0.1,0.1-0.2,0.2-0.3,0.3
		c-0.3,0.3-0.7,0.3-1.1,0.1c-0.3-0.2-0.5-0.6-0.4-1c0.1-0.2,0.2-0.4,0.2-0.5c0-0.4-0.5-0.7-0.3-1c0.1-0.1,0.3-0.2,0.4-0.2
		c0.7-0.2,1.2-0.9,1.3-1.7c0.5,0.1,1-0.5,0.7-0.9c-0.4-0.5-1.3,0-1.8-0.3c-0.1-0.1-0.2-0.2-0.4-0.3c-0.3-0.2-0.6-0.1-0.9,0.1
		c-0.3,0.2-0.5,0.4-0.9,0.5c-0.5,0.2-1.1,0-1.5-0.4c-0.1-0.2-0.2-0.4-0.1-0.6c0.1-0.1,0.2-0.2,0.3-0.3c0.2-0.2,0.3-0.6,0.1-0.9
		c0.4-0.5,1.2-0.2,1.7-0.5c0.1-0.1,0.2-0.2,0.4-0.3c0.5-0.3,1.2,0.4,1.7,0.2c0.2-0.1,0.3-0.3,0.5-0.5c0.4-0.3,0.9,0,1.3,0.2
		c0.1-0.4,0.2-0.8-0.2-1c-0.2-0.1-0.5-0.1-0.7,0c-0.2,0-0.5,0-0.6-0.3c-0.1-0.3,0.2-0.6,0.1-0.8c-0.1-0.2-0.4-0.2-0.6-0.4
		c-0.2-0.2-0.3-0.5-0.3-0.8c0-0.3,0.1-0.5,0.2-0.8c0-0.2,0-0.4,0.2-0.6c0.2-0.3,0.7-0.2,1,0c0.3,0.2,0.5,0.5,0.9,0.6
		c0.5,0.1,1.2-0.3,1.5,0.2c0.1,0.1,0.1,0.3,0.1,0.5c0.1,0.3,0.2,0.6,0.5,0.7c0.3,0.1,0.6,0,0.7-0.3c0.1-0.3-0.3-0.7-0.2-1
		c0.1-0.3,0.5-0.4,0.6-0.7c0.2-0.5-0.6-1.1-0.2-1.4c0.1-0.1,0.2-0.1,0.3-0.2c0.2-0.3-0.4-0.6-0.3-0.9c0-0.1,0.1-0.1,0.2-0.2
		c0.5-0.3,1.2-0.1,1.5,0.4c0.2,0.3,0.3,0.7,0.5,0.9c0.3,0.3,0.8,0.4,0.8,0.8c0.1,0.5-0.6,0.9-0.5,1.4c0.1,0.3,0.6,0.4,0.9,0.3
		s0.7-0.3,1.1-0.2c-0.1-0.3,0.3-0.5,0.6-0.4c0.3,0,0.7,0,0.7-0.3c0.4-0.3,0.9,0.1,1.1,0.5s0.3,0.9,0.6,1.3c0.1,0.2-0.1,0.4-0.3,0.5
		c-0.2,0.1-0.5,0.2-0.5,0.4c0,0.3,0.3,0.4,0.3,0.7c0,0.3-0.6,0.3-0.8,0.6c-0.2,0.2,0,0.6,0.3,0.7s0.6,0.1,0.9,0.1
		c0.3,0,0.6,0.1,0.8,0.4c0,0.1,0.1,0.2,0.1,0.3c0.1,0.1,0.3,0.1,0.4,0.1c0.4,0,0.8,0,1.2-0.1c0.2,0,0.5,0,0.7,0.1
		c0.2,0.1,0.4,0.4,0.3,0.6c-0.2,0.4-0.9,0.3-0.9,0.8c0,0.2,0.2,0.4,0.3,0.6c0,0.2-0.1,0.5-0.3,0.5c-0.2,0.1-0.5,0-0.7,0
		c-0.2-0.1-0.3-0.1-0.5-0.2s-0.4,0.1-0.4,0.2c0,0.1,0.1,0.3,0,0.4c-0.1,0.1-0.1,0.1-0.2,0.1c-0.2,0-0.5,0-0.7,0
		c-0.2-0.1-0.4-0.2-0.6-0.3c-0.2-0.1-0.5-0.2-0.7,0c-0.2,0.1-0.3,0.4-0.1,0.6c-0.4-0.1-1-0.2-1.2,0.3c-0.1,0.4,0.4,0.8,0.9,0.8
		s1,0,1.3,0.3c0.2,0.2,0.2,0.5,0.4,0.7c0.4,0.2,0.9-0.2,1.2,0.1c0.2,0.2,0.2,0.6,0,0.8c-0.2,0.2-0.5,0.3-0.8,0.3
		c0.2,0.3,0.3,0.8,0,1c-0.2,0.2-0.5,0.1-0.8,0c-0.3,0-0.6,0-0.7,0.3c-0.4,0.2-0.8-0.2-0.9-0.6c-0.2-0.4-0.4-0.8-0.8-0.9
		c-0.1,0-0.3,0-0.4-0.1c-0.4-0.1-0.4-0.8-0.8-1c-0.2-0.2-0.6-0.2-0.8,0c-0.2,0.2-0.3,0.5-0.1,0.8c0.2,0.3,0.5,0.4,0.5,0.8
		c-0.1,0.3-0.5,0.4-0.7,0.6c-0.3,0.4,0.4,1,0.2,1.5c0,0.1-0.1,0.2-0.1,0.3c0,0.1,0.1,0.2,0.2,0.3c0.2,0.3,0.2,0.6,0,0.9
		C238.6,120.5,238.2,120.6,237.9,120.6"/>
	<g id="Calque_2_-_copie_4">
		<g id="Calque_4_-_copie_4">
			<path id="XMLID_37_" class="st1" d="M237.9,108.7l-0.3-4l-0.4-6.1v-0.4l0,0.2l0-0.1v0.3l-0.4,6.1l-0.3,4c-0.1,1.2-0.1,2.5,0,3.7
				l0.3,4.4l0.4,5.9v0.4l0-0.2l0,0.2v-0.3l0.4-5.9l0.3-4.4C238,111.2,238,109.9,237.9,108.7z"/>
			<path id="XMLID_31_" class="st1" d="M239,109.8l2.6-3l4-4.7l0.3-0.3l-0.1,0.1l0.1-0.1l-0.2,0.2l-4.7,4l-3,2.6
				c-0.9,0.8-1.8,1.7-2.6,2.6l-2.9,3.3l-3.9,4.4l-0.3,0.3l0.1-0.1l-0.1,0.1l0.2-0.2l4.4-3.9l3.3-2.9
				C237.3,111.6,238.2,110.7,239,109.8z"/>
			<path id="XMLID_28_" class="st1" d="M236.3,108.7l-3-2.6l-4.7-4l-0.3-0.3l0.1,0.1l-0.1-0.1l0.2,0.2l4,4.7l2.6,3
				c0.8,0.9,1.7,1.8,2.6,2.6l3.3,2.9l4.4,3.9l0.3,0.3l-0.1-0.1l0.1,0.1l-0.2-0.2l-3.9-4.4l-2.9-3.3
				C238.2,110.4,237.3,109.6,236.3,108.7z"/>
			<path id="XMLID_26_" class="st1" d="M235.3,109.9l-4,0.3l-6.1,0.4h-0.4l0.2,0l-0.1,0h0.3l6.1,0.4l4,0.3c1.2,0.1,2.5,0.1,3.7,0
				l4.4-0.3l5.9-0.4h0.4l-0.2,0l0.2,0h-0.3l-5.9-0.4l-4.4-0.3C237.7,109.8,236.5,109.8,235.3,109.9z"/>
		</g>
		<g id="Calque_3_-_copie_4" class="st5">
			<path id="XMLID_25_" class="st6" d="M152.1,120.8l-0.7-19.4l-1.1-29.8v-1.8l0,0.9l0-0.7v1.5l-1.1,29.8l-0.7,19.4
				c-0.2,6-0.2,12,0,18l0.8,21.1l1,28.5v1.8l0-0.9l0,0.7v-1.5l1-28.5l0.8-21.1C152.3,132.8,152.3,126.8,152.1,120.8z"/>
			<path id="XMLID_24_" class="st6" d="M158,124.8l13.2-14.2l20.3-21.9l1.3-1.3l-0.7,0.6l0.5-0.5l-1,1l-21.9,20.3l-14.2,13.2
				c-4.4,4.1-8.6,8.3-12.7,12.7l-14.4,15.5L109,171.1l-1.3,1.3l0.7-0.6l-0.5,0.5l1-1l20.9-19.4l15.5-14.4
				C149.6,133.4,153.9,129.2,158,124.8z"/>
			<path id="XMLID_22_" class="st6" d="M159.3,131.8l19.4-0.7l29.8-1.1h1.8l-0.9,0l0.7,0h-1.5l-29.8-1.1l-19.4-0.7
				c-6-0.2-12-0.2-18,0l-21.1,0.8l-28.5,1h-1.8l0.9,0l-0.7,0h1.5l28.5,1l21.1,0.8C147.3,132,153.4,132,159.3,131.8z"/>
			<path id="XMLID_19_" class="st6" d="M155.4,137.7l14.2,13.2l21.9,20.3l1.3,1.3l-0.6-0.7l0.5,0.5l-1-1l-20.3-21.9l-13.2-14.2
				c-4.1-4.4-8.3-8.6-12.7-12.7l-15.5-14.4L109,88.7l-1.3-1.3l0.6,0.7l-0.5-0.5l1,1l19.4,20.9l14.4,15.5
				C146.7,129.3,151,133.6,155.4,137.7z"/>
		</g>
	</g>
</g>
</svg>
