<svg version="1.0" xmlns="http://www.w3.org/2000/svg" width="300" height="260" style="enable-background:new 0 0 300 260" xml:space="preserve"><style>.st0{display:none}.st1{display:inline}.st2{fill:#e5e5e5}.st3{fill:#9a9999}.st4{fill:#262525}.st5{fill:#e9e8e8}.st6{fill:#8e8e8e}.st7{fill:#313131}</style><g id="cloud4"><g id="cloud4_-_copie"><path id="XMLID_157_" class="st2" d="M185.1 145.5c0 2.9-1.3 5.5-2.9 7.6-1.7 2.1-3.8 3.4-5.9 4.6-2.1.8-4.2 2.1-6.3 1.7-.8 0-2.1-.4-3.4-.4-3.8-1.3-7.6-3.4-10.9-5.9l-1.7.4c-6.7 11.4-18.1 18.1-29.4 18.5-11.4 0-22.7-6.7-29.4-18.1v-.8c-7.2 3.4-15.6 3.4-22.7.4-3.4-1.3-6.7-3.8-9.3-7.2l.4-1.3c-3.4 2.9-7.2 5.5-11.4 4.6-2.9-.8-5.5-3.4-7.6-6.3-1.3-2.1-2.9-4.2-3.4-6.7-.8-3.4-.4-7.2 0-10.9.4-2.1.8-4.2 1.7-5.9 2.1-3.8 5.5-17.2 9.3-17.7 3.4-.4 7.2 0 10.5.8l-.4 1.3c.8-3.4 2.5-5.9 5-8 1.7-1.3 3.8-2.1 5.5-2.9 5-2.1 10.5-4.6 16-4.6 1.3 0 2.9 0 4.2 1.3 1.3.8 2.1 2.9 1.7 4.6l-1.3.8c2.9-7.6 9.7-11.4 16-15.1 7.2-3.8 14.3-7.6 21.9-5.9 8.8 1.7 15.1 10.5 21 18.5v1.7c2.1-1.7 4.6-2.9 7.2-3.4 2.1-.8 4.2-1.3 6.3-1.7 8.4-.8 16.8 4.6 20.6 13.9l-.4 2.1c5-.8 10.9-1.7 15.6 1.3 1.3.8 2.5 1.7 3.4 3.4 1.3 1.7 1.7 4.2 1.7 6.3.4 8.4-5 27.8-11.8 30.7-2.5 1.3-5.5 1.3-8 0"/><path id="XMLID_155_" class="st3" d="M42.5 137.1c.4-1.7.8-2.9 1.3-4.2 2.1-3.8 5.5-5.9 9.3-6.3 3.4-.4 7.2 0 10.5.8l-.4 1.3c.8-3.4 2.5-17.2 5-19.3 1.7-1.3 3.8-2.1 5.5-2.9 5-2.1 10.5-4.6 16-4.6 1.3 0 2.9 0 4.2 1.3.8.8 1.7 1.7 1.7 2.9 3.4-5.9 9.3-9.3 14.7-12.6 7.2-3.8 14.3-7.6 21.9-5.9 8.8 1.7 15.1 10.5 21 18.5v1.7c2.1-1.7 4.6-2.9 7.2-3.4 2.1-.8 4.2-1.3 6.3-1.7 8.4-.8 16.8 4.6 20.6 13.9l-.4 2.1c5-.8 10.9-1.7 15.6 1.3 1.3.8 2.5 13 3.4 14.7v.4c.8-2.5 1.7-16.4 1.3-19.3 0-2.1-.4-4.6-1.7-6.3-.8-1.3-2.1-2.5-3.4-3.4-4.6-2.9-10.5-2.1-15.6-1.3l.4-2.1c-3.8-8.8-12.2-14.7-20.6-13.9-2.1.4-4.2.8-6.3 1.7-2.5.8-5 1.7-7.2 3.4v-1.7c-5.9-8-12.2-16.8-21-18.5-7.6-1.7-15.1 2.1-21.9 5.9-5.5 2.9-11.4 6.3-14.7 12.6 0-1.3-.8-2.5-1.7-2.9-1.3-.8-2.9-1.3-4.2-1.3-5.5 0-10.9 2.1-16 4.6-2.1.8-3.8 1.7-5.5 2.9-2.5 1.7-4.2 4.6-5 8l.4-1.3c-3.4-.8-7.2-1.3-10.5-.8-3.8.8-7.2 13.9-9.3 17.7-.8 1.7-1.3 3.8-1.7 5.9-.4 3.8-.8 7.6 0 10.9.4.4.8.8.8 1.2z"/><g id="Calque_12_-_copie"><g id="XMLID_245_"><g id="XMLID_247_"><path id="XMLID_251_" class="st4" d="M183 145.1c-1.3 7.2-7.6 13-15.6 11.8-3.4-.4-8-5.9-10.9-5.9-2.9 0-2.9.8-5 2.5-4.2 3.8-6.3 8-11.4 11.4-4.6 2.9-10.1 4.6-15.6 4.6-11.8 0-21.5-7.6-27.8-16.8-.4-.8-1.7-1.3-2.5-.8-10.5 3.8-22.3 1.7-29.9-7.2-.4-.8-1.7-.8-2.5-.4-8.4 5.9-16.4-.4-18.9-8.8-1.7-5.9.4-11.8 2.5-16.8 3.8-9.3 4.2-16.4 16.8-14.3 1.3.4 2.1-.4 2.5-1.3 2.5-6.3 9.3-8.8 15.1-10.5 3.4-.8 12.6-4.6 12.6 1.7 0 2.1 2.9 2.9 3.8 1.3 3.8-8.4 12.2-12.6 20.2-16.4 16-7.2 25.2 2.5 34.1 14.7.8.8 1.7 1.3 2.9.8 11.8-6.3 24.8-2.5 30.7 9.7.4.4 1.3 1.3 1.7.8 15.6-1.7 19.8 9.7 16.4 22.7-2.1 8.4-6.3 21.5-17.7 16.8-2.5-.8-3.8 2.9-1.3 4.2 8.4 3.4 15.1-.8 18.9-8 4.2-8 9.3-23.1 4.2-31.5-2.1-3.8-6.3-5.9-10.5-7.2-3.4-.8-6.7-.4-9.7-2.5-1.7-1.3-3.4-4.6-5-6.3-8.4-7.2-20.6-7.2-29.9-1.7.8.4 2.1.4 2.9.8-7.2-10.1-16-21.5-29.9-19.8C112.8 74.4 98 82.8 93 93.8c1.3.4 2.5.8 3.8 1.3-.4-17.7-32-2.1-36.2 8 .8-.4 1.7-.8 2.5-1.3-10.5-2.1-14.3-1.7-18.5 8.4-3.8 9.7-8.8 20.2-4.6 30.7 3.4 8.4 9.7 13.5 18.5 11.8 5-.8 2.5-1.7 7.2.8 1.7.8 3.4 2.1 5.5 2.9 5.5 2.5 11.4 2.9 17.2 2.5 8-.4 6.7 1.7 13 7.2 3.4 2.9 7.2 5 10.9 6.7 10.9 4.2 22.7 2.1 32-4.6 3.4-2.5 5.9-7.6 9.3-9.7.8-2.5 1.7-2.5 2.9-.4 1.7 1.3 3.4 2.1 5.5 2.9s4.2 1.7 6.7 1.7c8.8.4 16-7.2 17.7-15.1 1.2-4.2-3-5.5-3.4-2.5z"/></g></g><g id="XMLID_214_"><g id="XMLID_256_"><path id="XMLID_294_" class="st4" d="M83.7 119.4c5-.4 6.3 10.5 2.9 12.6-4.6 2.9-12.6-2.1-14.3-5.9-7.2-14.7 12.6-28.6 24.4-16 5 5.5 5 12.6 5 19.8.4 9.3-3.8 15.1-8.8 22.3-1.7 2.1 2.1 4.2 3.8 2.1 5.5-7.2 9.7-13.5 9.7-22.7 0-6.3 0-13.9-2.9-19.8-7.6-13.8-30.7-16.8-34.9.9-3.4 13 3.8 27.8 19.3 23.1 9.7-2.9 5.5-21.9-3.8-21-2.9.8-2.9 5-.4 4.6z"/></g></g><g id="XMLID_196_"><g id="XMLID_296_"><path id="XMLID_300_" class="st4" d="M125.4 122c6.7 1.7 13.9.8 18.5-5 4.6-5.9 4.6-14.7-.8-19.8-5-4.6-14.7-6.3-20.6-2.9-7.6 4.2-11.4 16.8-10.1 24.8 2.1 17.7 23.6 30.3 38.7 18.5 13-10.5 18.9-36.2 3.8-47.5-2.1-1.7-4.2 2.1-2.1 3.8 19.8 14.7-5.5 59.3-28.6 39.1-9.7-8.4-11.4-29.4 2.1-35.8 6.3-2.9 15.6 2.9 17.2 9.3.8 4.2-3.8 9.7-7.2 11.4-2.9 1.3-6.3.8-9.3 0-2.9-.6-4.2 3.2-1.6 4.1z"/></g></g><g id="XMLID_15_"><g id="XMLID_302_"><path id="XMLID_306_" class="st4" d="M163.6 108.5c1.3-1.7 5.5-1.3 7.2-1.3 3.4.4 5.9 2.5 7.6 5 2.1 3.4 4.2 10.5 1.7 13.9-2.1 2.9-5 5.5-8.4 3.8-2.1-.8-2.9-2.1-3.8-4.2-.4-1.3-.8-2.1-.8-3.4-.4-2.9 1.7-5 5.5-5.5 2.1 1.7 5-1.3 2.9-2.9-7.2-5.9-13.9 4.2-12.2 10.9s8.8 13 15.6 8.4c2.9-2.1 6.3-5.5 6.7-9.3.4-4.6-.8-10.1-3.4-13.9-4.2-6.7-16.8-11.4-22.3-4.2-1.3 2.7 2.1 4.8 3.7 2.7z"/></g></g></g></g><path id="XMLID_290_" class="st2" d="M159 179.2c-9.3 5.5-20.6 7.6-31.1 5.5-4.6-.8-9.3-2.9-11.8-6.7l-.8-1.3c7.2.4 13.9-2.5 19.8-6.7s10.1-10.1 14.7-15.6c2.1-2.9 4.6-5.9 7.6-8 2.9-2.5 6.3-4.2 9.7-4.2 3.8-.4 7.6 1.3 9.7 4.2 2.1-5.5 5.9-8.8 10.9-12.2 2.9-1.7 5.5-3.4 8.8-4.2 3.4-.8 6.7-.4 9.7 1.3.8-1.7 2.9-2.5 4.2-4.2 5.5-5.9 13.5-9.7 21.9-9.7 4.6 0 9.3.8 11.8 4.2 1.3 1.7 2.1 3.4 2.5 5.5.4 1.3.8 2.9.8 4.6 0 4.2-2.5 8.4-5.5 11.8l2.5.4c2.9.4 5.9.4 8.8.8 1.7 0 3.8.4 5.5 1.3 1.3.8 2.5 2.1 3.4 3.4 3.4 3.8 6.3 8 8 12.6 1.7 4.6 2.5 10.1.8 14.7-.8 2.9-2.9 5.9-4.6 8.8-1.7 2.5-2.9 4.6-5 6.7-3.8 4.2-9.7 7.2-15.1 8.4-5.9 1.3-11.8.4-17.2-1.3-1.3-.4-2.5-.8-3.8-1.7-1.3-.4-2.1-1.3-2.9-2.1-2.5-2.5-4.2-5.5-5.5-8.4v.4c-5.5 1.7-10.9 2.9-16.4 3.8-2.1.4-4.2.4-6.7.4-3.4-.4-6.7-2.1-9.7-4.6-2.5-2.5-4.6-5.5-6.3-8.4h.4c-1.7 1.3-3.4 2.5-5.5 2.9-1.3.4-2.9.4-4.2.4-3.5-1.2-6.4-.3-9.4-2.8"/><path id="XMLID_289_" class="st3" d="M270.5 161.5c-1.7-4.6-4.6-8.8-8-12.6-.8-1.3-2.1-2.5-3.4-3.4-1.7-.8-3.8-1.3-5.5-1.3-2.9-.4-5.9-.4-8.8-.8l-2.5-.4c2.5-3.4 5.5-7.2 5.5-11.8 0-1.7-.4-2.9-.8-4.6-.8-1.7-1.3-3.8-2.5-5.5-2.5-3.4-7.6-4.6-11.8-4.2-8 .4-16 3.8-21.9 9.7-1.3 1.7-3.4 2.1-4.2 4.2-2.9-1.7-6.3-2.1-9.7-1.3s-6.3 2.1-8.8 4.2c-5 2.9-8.8 6.7-10.9 12.2-2.1-2.9-5.9-4.6-9.7-4.2-3.8.4-7.2 2.1-9.7 4.2-2.9 2.5-5 5.5-7.6 8-4.2 5.5-8.8 10.9-14.7 15.6-5.5 4.2-12.6 7.2-19.8 6.7l.8 1.3c2.5 3.8 7.2 5.9 11.8 6.7.4 0 .8 0 1.3.4 1.7-.4 3.4-.8 4.6-1.3 7.6-2.9 14.3-8.8 17.7-16.4 1.3-2.9 2.1-6.3 3.8-9.3 1.7-2.9 3.4-5.9 6.3-7.2 4.6-2.1 11.4 0 13.5 5l.4.4c1.3-4.2 4.2-7.6 7.6-10.1 3.4-2.5 7.6-4.2 11.8-5.5 2.5-.8 5.5-1.3 8-.4s4.6 3.8 3.8 6.3l1.7 2.9c0-6.7 5.5-12.6 11.4-15.1 1.7-.8 3.8-1.3 5.9-1.3s4.2.8 5.5 2.1c1.7 1.7 2.1 4.6 1.7 7.6-.4 2.9-1.3 5.9-2.5 8.4l.8-.8c3.8.4 7.2 2.5 10.1 5 5 4.2 9.7 9.3 12.2 15.1 2.5 5.9 2.9 13.5 0 19.3-2.9 5.5-8.4 8.8-14.3 11.4 2.5 0 5 0 8-.4 5.9-1.3 11.4-3.8 15.1-8.4 1.7-2.1 3.4-4.2 5-6.7 1.7-2.9 3.4-5.5 4.6-8.8.3-4.8-.1-10.3-1.8-14.9z"/><g id="XMLID_282_"><g id="XMLID_284_"><path id="XMLID_288_" class="st4" d="M157.8 177.5c-10.1 5.9-32.8 10.9-40.8-2.1-.4 1.3-1.3 2.1-1.7 3.4 9.3 0 17.2-3.8 24-9.7 7.6-6.7 23.1-34.9 35.8-21.5.8.8 2.5.8 3.4-.4 4.2-8.8 16-18.5 26.5-13.9.8.4 1.7.4 2.5-.4 5-5.5 11.4-10.5 18.9-12.6 15.6-3.8 23.1 9.3 13.9 21.9-.8 1.3 0 2.9 1.3 2.9 5.5 1.3 10.5.8 15.6 3.4 11.4 5.9 15.6 21.9 9.3 32.8-4.2 7.2-9.7 13.5-17.7 16-12.2 3.8-24.4 0-29.9-11.8-1.3-2.5-4.6-.4-3.8 2.1v.4c.4-.8.8-2.1 1.3-2.9-5.5 1.7-10.5 2.9-16.4 3.4-9.7.8-15.6-3.4-20.6-11.8-.4 1.3-1.3 2.1-1.7 3.4h.4c-.4-1.3-.8-2.5-1.3-3.8-4.6 2.9-12.2 4.6-17.7 1.3-2.5-1.3-4.6 2.1-2.1 3.8 6.7 3.8 15.6 2.5 21.9-1.3 1.7-1.3.8-3.8-1.3-3.8h-.4c-1.7 0-2.5 2.1-1.7 3.4 10.5 16.8 24 15.1 41.2 10.1 1.3-.4 1.7-1.7 1.3-2.9v-.4c-1.3.8-2.5 1.3-3.8 2.1 10.9 23.1 41.2 17.2 53-1.7 7.2-11.4 7.2-22.3-.4-33.6-7.2-10.9-13.5-9.3-25.2-11.4.4.8.8 2.1 1.3 2.9 5.5-7.2 8.4-16.4 1.7-24-5.9-6.7-16.8-5.5-24.4-2.5-5 2.1-8 5-12.2 8-5 3.4-6.7.8-12.2 2.1-9.3 1.7-17.7 8.8-21.5 17.2 1.3 0 2.1-.4 3.4-.4-6.3-6.7-15.1-5.5-21.9 0-14.3 11.4-19.3 29.9-40.8 30.3-1.7 0-2.5 1.7-1.7 3.4 8.8 15.6 33.6 10.5 46.3 3.4 2.8-2.7.7-6.1-1.8-4.8z"/></g></g><g id="XMLID_275_"><g id="XMLID_277_"><path id="XMLID_281_" class="st4" d="M220 186.3c-8-17.7 16-40 29.4-21.9 5 7.2 4.2 18.9-4.2 23.1-5.5 2.5-11.4.4-13.5-5-2.5-8.4 6.3-12.6 13-10.5 2.5.8 3.8-3.4 1.3-4.2-6.3-2.1-14.3.4-18.1 6.3-2.9 4.6 0 10.5 2.9 14.3 8.4 9.7 22.7 2.1 25.2-9.3 2.9-14.3-8.4-27.8-23.1-25.2-15.6 2.5-23.6 20.6-17.2 34.1 1.8 2.9 5.1.8 4.3-1.7z"/></g></g><g id="XMLID_261_"><g id="XMLID_263_"><path id="XMLID_267_" class="st4" d="M180.5 177.5c-2.5-5-1.7-11.8 3.4-15.1 5.5-3.8 13-6.3 16.8 1.3 2.9 5.5 2.5 13-4.6 14.7-3.8.8-12.2-1.3-10.9-7.2.8-3.8 5-5.9 8.4-5 2.5.8 3.8-3.4 1.3-4.2-8.4-2.1-18.5 8-11.8 15.6 6.7 8 21.9 5.5 24-5.5.8-4.6-1.3-10.5-4.2-14.3-3.8-4.6-9.7-4.6-14.7-2.5-4.6 1.7-9.7 4.6-11.8 9.3-2.1 4.6-1.3 10.1.8 14.3.7 2.8 4.5.7 3.3-1.4z"/></g></g><g id="XMLID_252_"><g id="XMLID_254_"><path id="XMLID_260_" class="st4" d="M204 130.4c-5 4.6-2.1 14.7 2.1 18.9 5.5 5.9 14.7 3.4 20.2-1.7 5-4.2 8-14.3 0-17.2-7.6-2.9-13 4.6-12.6 11.4 0 2.5 4.2 2.5 4.2 0 0-1.7 0-3.8 1.3-5.5 2.9-3.8 8.4-2.5 8.4 2.1 0 4.2-5 7.6-8.4 8.8-4.6 1.7-8.8.4-10.9-4.2-1.3-2.5-2.9-8-.4-10.1 1.2-1.7-1.8-4.6-3.9-2.5z"/></g></g></g></svg>