<svg version="1.0" xmlns="http://www.w3.org/2000/svg" width="300" height="260" style="enable-background:new 0 0 300 260" xml:space="preserve"><style>.st0{display:none}.st1{display:inline}.st2{fill:#e5e5e5}.st3{fill:#9a9999}.st4{fill:#262525}.st5{fill:#e9e8e8}.st6{fill:#8e8e8e}.st7{fill:#313131}.st8,.st9{display:inline;fill:#e5e5e5}.st9{fill:#9a9999}</style><g id="Calque_1_1_"><g id="cloud4_1_"><path id="XMLID_152_" class="st2" d="M226 155.8c0 2.8-1.7 5.1-3.4 7.4-1.7 1.7-4.5 3.4-6.8 4.5s-5.1 1.7-7.4 1.7c-1.1 0-2.3 0-4-.6-4.5-1.1-9.1-3.4-13-5.7l-1.7.6c-7.9 10.8-21.5 18.1-35.2 18.1s-27.2-6.8-35.2-17.6v-1.1c-8.5 3.4-18.7 3.4-27.2.6-4-1.7-7.9-3.4-10.8-6.8l.6-1.1c-4 2.8-9.1 5.7-13.6 4.5-3.4-.6-6.8-3.4-9.1-6.2-1.7-2.3-3.4-4.5-4-6.8-1.1-3.4-.6-7.4 0-10.8.6-2.3 1.1-4 2.3-5.7 2.3-4 6.8-5.7 10.8-6.2 4.5-.6 8.5 0 13 .6l-.6 1.1c1.1-3.4 3.4-6.2 6.2-7.9 1.7-1.1 4.5-2.3 6.8-2.8 6.2-2.3 12.5-4.5 19.3-4.5 1.7 0 3.4 0 5.1 1.1 1.7 1.1 2.3 2.8 1.7 4.5l-1.1 1.1c3.4-7.4 11.9-11.3 19.3-14.7 8.5-4 17.6-7.4 26.1-6.2 10.2 1.7 18.1 10.2 25.5 18.1v1.7c2.3-1.7 5.7-2.8 8.5-3.4 2.3-.6 5.1-1.1 7.4-1.7 9.6-1.1 19.8 4.5 24.4 13.6l-.6 2.3c6.2-1.1 13-1.7 18.7 1.1 1.7.6 2.8 1.7 4 3.4 1.1 1.7 1.7 4 1.7 6.2.6 8.5-6.2 16.4-14.2 19.3-3.4 1.1-6.8 1.7-9.6 0"/><path id="XMLID_16_" class="st3" d="M55.4 147.3c.6-1.7 1.1-2.8 1.7-4 2.3-4 6.8-5.7 10.8-6.2 4.5-.6 8.5 0 13 .6l-.6 1.1c1.1-3.4 3.4-6.2 6.2-7.9 1.7-1.1 4.5-2.3 6.8-2.8 6.2-2.3 12.5-4.5 19.3-4.5 1.7 0 3.4 0 5.1 1.1 1.1.6 1.7 1.7 1.7 2.8 4-5.7 11.3-9.1 17.6-12.5 8.5-4 17-7.4 26.1-6.2 10.2 1.7 18.1 10.2 25.5 18.1v1.7c2.3-1.7 5.7-2.8 8.5-3.4 2.3-.6 5.1-1.1 7.4-1.7 9.6-1.1 19.8 4.5 24.4 13.6l-.6 2.3c6.2-1.1 13-1.7 18.7 1.1 1.7.6 2.8 1.7 4 3.4v.6c1.1-2.3 1.7-5.1 1.7-7.9 0-2.3-.6-4.5-1.7-6.2-1.1-1.1-2.3-2.3-4-3.4-5.7-2.8-12.5-2.3-18.7-1.1l.6-2.3c-4.5-8.5-14.7-14.2-24.4-13.6-2.8 0-5.1 1.1-7.4 1.7-2.8.6-5.7 1.7-8.5 3.4v-1.7c-6.8-7.9-14.7-16.4-25.5-18.1-9.1-1.7-18.1 2.3-26.1 6.2-6.8 2.8-13.6 6.2-17.6 12.5 0-1.1-1.1-2.3-1.7-2.8-1.7-1.1-3.4-1.1-5.1-1.1-6.8 0-13 2.3-19.3 4.5-2.3.6-4.5 1.7-6.8 2.8-2.8 1.7-5.1 4.5-6.2 7.9l.6-1.1c-4.5-.6-8.5-1.1-13-.6-4.5.6-8.5 2.8-10.8 6.2-1.1 1.7-1.7 4-2.3 5.7-.6 3.4-1.1 7.4 0 10.8 0 .5.6 1 .6 1z"/><g id="Calque_12"><g id="XMLID_156_"><g id="XMLID_235_"><path id="XMLID_239_" class="st4" d="M223.8 155.3c-4 14.7-17.6 12.5-26.6 7.9-1.1-.6-3.4-2.8-5.7-2.8-4 0-5.1 2.8-7.9 5.7-18.1 18.7-46.5 15.3-62.4-4.5-.6-.6-1.7-1.1-2.8-.6-11.9 3.4-25.5 2.3-35.2-6.8-1.1-1.1-2.3-1.1-3.4-.6-22.1 12.5-34.6-32.3.6-27.2 1.1 0 2.8 0 3.4-1.1 2.3-5.1 32.3-19.3 32.9-9.6 0 2.8 4 4 5.1 1.7 6.2-10.2 22.1-16.4 32.9-18.1 14.2-1.7 23.2 7.4 31.7 17 .6.6 1.7 1.1 2.8.6 13.6-5.1 28.3-5.1 36.9 8.5.6.6 1.7 1.7 2.3 1.1 9.6-.6 27.2 1.7 18.7 18.7-3.4 6.8-13.6 9.6-20.4 7.4-3.4-1.1-5.1 4.5-1.7 5.7 14.2 4 31.2-6.2 30-22.1-.6-7.4-5.1-11.3-11.9-13.6-4.5-1.7-10.8-1.1-14.7-3.4-3.4-2.3-5.7-6.2-9.1-8.5-8.5-4.5-15.3-2.8-23.8-1.7-10.8 1.1-15.3-9.6-24.4-13.6-17-7.9-45.4 2.8-55 18.7 1.7.6 3.4 1.1 5.1 1.7-.6-13-17-7.9-24.9-5.7-7.4 2.3-10.8 6.2-17 9.1-5.1 2.8-11.3 0-17 2.3-9.6 4-13.6 15.9-10.8 25.5 1.7 5.1 6.2 10.8 10.8 13.6 6.2 3.4 9.1.6 15.3.6 7.4 0 14.2 6.2 21.5 7.4 7.4 1.1 14.7-1.7 21 2.3 12.5 8.5 22.1 15.3 38 13.6 8.5-1.1 16.4-4.5 23.2-9.6 2.3-1.7 5.1-6.2 7.9-7.4s5.1 1.7 9.1 2.8c12.5 4.5 26.1-.6 29.5-13.6 2.2-3.7-3.5-4.8-4-1.4z"/></g></g><g id="XMLID_154_"><g id="XMLID_229_"><path id="XMLID_233_" class="st4" d="M105.8 137.1c4.5-.6 9.1 5.1 9.1 9.1.6 7.9-9.1 10.2-14.7 6.8-9.6-5.1-13-21-.6-24.4 8.5-2.3 18.1 0 23.2 7.4 7.4 10.2 0 18.1-6.8 25.5-2.3 2.8 1.7 6.8 4 4 5.7-6.2 12.5-12.5 11.9-21.5 0-6.8-4.5-13-9.6-17-10.8-7.9-34.6-7.4-36.3 9.1-1.7 14.2 14.2 30 28.3 22.1 5.1-2.8 8.5-9.6 6.8-15.3s-9.1-12.5-15.3-11.9c-3.9.5-3.9 6.1 0 6.1z"/></g></g><g id="XMLID_206_"><g id="XMLID_223_"><path id="XMLID_227_" class="st4" d="M154.6 144.5c15.3 3.4 34.6-8.5 22.7-25.5-12.5-17.6-36.3-1.1-38.6 15.9-4 24.9 27.8 28.3 44.2 21 17-7.9 26.1-32.3 7.4-43.7-2.8-1.7-6.2 2.8-2.8 5.1 27.2 17-20.4 54.4-39.1 30.6-7.9-9.6-1.1-26.6 11.3-29.5 6.8-1.7 14.7 1.7 15.9 8.5 2.3 12.5-10.2 14.2-18.7 12.5-4-1.1-5.7 4.5-2.3 5.1z"/></g></g><g id="XMLID_207_"><g id="XMLID_217_"><path id="XMLID_221_" class="st4" d="M200.5 131.5c2.3-2.3 9.1-1.7 11.9-.6 4 1.1 7.9 5.7 8.5 10.2.6 5.1-3.4 8.5-8.5 8.5-2.8 0-5.7-.6-6.8-4-1.1-3.4 2.8-7.9 6.2-5.7 2.8 2.3 5.7-2.8 2.8-5.1-7.4-5.7-16.4 3.4-14.7 11.3 2.3 9.6 14.7 11.3 21.5 5.7 7.4-5.7 5.7-16.4 0-22.1-3.4-3.4-7.9-5.1-12.5-5.7-4 0-9.1-.6-11.9 2.8-3.3 3.5.7 7.5 3.5 4.7z"/></g></g></g></g></g></svg>