<svg version="1.0" id="Calque_1" xmlns="http://www.w3.org/2000/svg" x="0" y="0" width="300" height="260" style="enable-background:new 0 0 300 260" xml:space="preserve"><style>.st0{opacity:.18;fill:#fff}</style><path id="XMLID_212_" class="st0" d="M149.2 139s.2 1-.6 1.3c-.8.4-.9.1-.8-.4.2-.5 0-1.3.5-1.4.7 0 .9.5.9.5z"/><path id="XMLID_211_" d="M259 102.4s10.4 11.9 2.3 29.2c-9.4 20.2-43.8 70.5-49.5 78.8-.5.7-.8 1.3-1.2 2.1-1.8 4.2-11.3 21-43.8 17.3-25.7-2.9-51.3-3.2-64.6-3.1-8.7.1-16.6-4.8-20.5-12.5-.6-1.2-1.2-2.5-1.9-4-6.6-15-33.2-95.3-39.8-111.8-.7-1.7-1.5-3.3-2-4.6-2.2-4.8-8.4-15.8 9.4-28.5 22.1-15.8 47.2-29.7 47.2-29.7s9.5-6.7 21.2-5.3c10.9 1.4 92.7 35 103 39.3l1.8.6c3.3.9 18.2 6.2 38.4 32.2z" style="fill:none;stroke:#575756;stroke-width:13;stroke-miterlimit:10"/><path id="XMLID_210_" d="M259 102.4s10.4 11.9 2.3 29.2c-9.4 20.2-43.8 70.5-49.5 78.8-.5.7-.8 1.3-1.2 2.1-1.8 4.2-11.3 21-43.8 17.3-25.7-2.9-51.3-3.2-64.6-3.1-8.7.1-16.6-4.8-20.5-12.5-.6-1.2-1.2-2.5-1.9-4-6.6-15-33.2-95.3-39.8-111.8-.7-1.7-1.5-3.3-2-4.6-2.2-4.8-8.4-15.8 9.4-28.5 22.1-15.8 47.2-29.7 47.2-29.7s9.5-6.7 21.2-5.3c10.9 1.4 92.7 35 103 39.3l1.8.6c3.3.9 18.2 6.2 38.4 32.2z" style="fill:#cd1c83"/><path id="XMLID_209_" d="m158.5 97.7-8.4 24.4s-1.9 4.4-7 3.5-43.9-13.7-43.9-13.7l45.9 18.7s3.8 1.9 11.3 13.1c7.5 11.2 15.8 22.1 15.8 22.1S150.8 135 152 128.6c1.2-6.4 6.5-30.9 6.5-30.9z" style="opacity:.61;fill:#ededed"/><path id="XMLID_208_" d="M102.2 226.6c13.3-.1 38.9.2 64.6 3.1 32.5 3.7 42-13.1 43.8-17.3.3-.7.7-1.4 1.2-2.1 5.7-8.2 40.1-58.6 49.5-78.8 8.1-17.2-2.3-29.2-2.3-29.2v-.1l-3.1 6s-15.9 51-66.4 71-96.5 20.6-113 16.9c-.4.8-.7 1.6-1 2.5.9 2.4 1.7 4.5 2.4 6.3.1.2.2.5.3.7.2.6.5 1.2.7 1.8.1.2.2.5.3.7.3.7.6 1.3.8 1.9.6 1.4 1.3 2.8 1.9 4 3.8 7.9 11.7 12.7 20.3 12.6z" style="opacity:.3"/><path id="XMLID_115_" d="M212.3 67c-7.8-3.2-20.8-8.5-34.9-14.1l-3.9-1.5h-.1l-1.9 2.1-22.2 77.8 56.6 88.1c.7-.7 1.2-1.4 1.8-2.1.5-.6.9-1.2 1.2-1.8.1-.1.1-.2.2-.3.3-.4.5-.9.7-1.2.1-.1.1-.2.2-.3.2-.4.4-.8.5-1.1.3-.7.7-1.4 1.2-2.1 5.7-8.2 40.1-58.6 49.5-78.8 8.1-17.2-2.3-29.2-2.3-29.2-20.3-26.1-35.1-31.3-38.5-32.2l-1.8-.6c-1.1-.4-3-1.2-5.5-2.2-.1-.2-.4-.4-.8-.5z" style="opacity:.3;fill:#fff"/><path id="XMLID_110_" d="m79.5 82.2 20-49.2c-3.1 1.3-5 2.7-5 2.7s-25 13.8-47.1 29.6c-4.8 3.4-7.9 6.8-9.7 9.9l41.8 7z" style="opacity:.21"/><linearGradient id="XMLID_2_" gradientUnits="userSpaceOnUse" x1="260.695" y1="367.573" x2="260.695" y2="470.828" gradientTransform="rotate(142.12 251.663 225.473)"><stop offset="0" style="stop-color:#fff"/><stop offset=".033" style="stop-color:#fff;stop-opacity:.9674"/><stop offset="1" style="stop-color:#fff;stop-opacity:0"/></linearGradient><path id="XMLID_108_" d="m152.8 119.4 3-10.6s13.3-46.6 16-53.2c1-2.5.5-4.1-.6-5.2-24.2-9.6-49.6-19.3-55.4-20-6.5-.8-12.4.9-16.3 2.6 0 0-13.9 34.2-20.1 49.2-6.1 15-.6 22.3-.6 22.3s48.4 17.7 60.3 21.5c11.9 3.7 13.7-6.6 13.7-6.6z" style="opacity:.52;fill:url(#XMLID_2_)"/><linearGradient id="XMLID_3_" gradientUnits="userSpaceOnUse" x1="299.598" y1="450.406" x2="348.876" y2="450.406" gradientTransform="rotate(142.12 251.663 225.473)"><stop offset="0" style="stop-color:#000"/><stop offset="1" style="stop-color:#000;stop-opacity:0"/></linearGradient><path id="XMLID_106_" d="m79.5 82.2-41.8-6.9c-4.9 8.3-1.2 15 .5 18.5.4 1.3 1.3 2.9 2 4.6 1.4 3.5 6.2 17 9 25.1 8.5.2 15.7-4.2 21.8-12.8 2.9-4.1 5.8-9.7 5.7-15.2-.3-5.7 2.8-13.3 2.8-13.3z" style="opacity:.46;fill:url(#XMLID_3_)"/><path id="XMLID_104_" class="st0" d="M59.3 113.5s-.5 2.3-2.7 2.6c-2.2.3-3.5.2-2.6-.8.9-1 2.6-3.3 3.9-3.2s1.4 1.4 1.4 1.4z"/><path id="XMLID_102_" class="st0" d="M72 77.3s-2.2.9-3.7-.7-2.2-2.7-.8-2.6c1.3.1 4.2.3 4.9 1.4s-.4 1.9-.4 1.9z"/><path id="XMLID_9_" class="st0" d="M114.8 203.1s.3 2.3-1.6 3.4-3.2 1.4-2.8.2c.4-1.3 1.3-4 2.5-4.4 1.3-.4 1.9.8 1.9.8z"/></svg>