<svg version="1.0" id="圖層_1" xmlns="http://www.w3.org/2000/svg" x="0" y="0" width="300" height="260" style="enable-background:new 0 0 300 260" xml:space="preserve"><style>.st11,.st5{opacity:.34;fill:#f1f2f2;enable-background:new}.st11{opacity:.18;fill:#fff}</style><g id="water6"><path id="XMLID_312_" d="M208.5 22.8C152-9.8 79.7 9.6 47.1 66.1S33.8 194.9 90.3 227.5c16.9 9.7 35.1 14.8 53.3 15.7 0 0 50.2 2.6 78.1 7.8 7.2 1.4 7.9-9.9 10.9-8.2l61.7-103.9c-2.2-1.3 7-6.5 3.7-10.1-18.3-19.8-49.3-67.7-49.3-67.7-9.8-15.3-23.4-28.5-40.2-38.3z" style="fill:#ccbc5c"/><path id="XMLID_311_" d="M205.2 29.5C152.2-1.1 84.4 17 53.9 70S41.4 190.7 94.4 221.3c15.8 9.1 32.9 13.9 50 14.7 0 0 47.1 2.4 73.3 7.3 6.7 1.3 7.9.4 10.7 2l66-109.4c-2.1-1.2-2.1-3.8-5.3-7.1-17.2-18.6-46.2-63.4-46.2-63.4-9.2-14.4-21.9-26.8-37.7-35.9z" style="opacity:.58;fill:#3b2416;enable-background:new"/><path id="XMLID_310_" d="M206.3 26.9C152-4.4 82.6 14.2 51.2 68.5S38.5 192.2 92.8 223.6c16.2 9.4 33.8 14.3 51.2 15.1 0 0 48.3 2.5 75.1 7.5 6.9 1.3 8.1.4 11 2L297.8 136c-2.1-1.3-2.2-3.8-5.4-7.3-17.6-19-47.4-65-47.4-65-9.4-14.7-22.5-27.4-38.7-36.8z" style="opacity:.12;enable-background:new"/><path id="XMLID_309_" d="M204.4 31.7C152.6 1.8 86.3 19.6 56.3 71.4S44.2 189.6 96 219.5c15.5 8.9 32.2 13.6 48.9 14.4 0 0 72.8 3.7 86.3 11.4l63.2-109.4c-13.4-7.8-53-69-53-69-9.1-14-21.5-26.2-37-35.2z" style="fill:#1f64af"/><radialGradient id="XMLID_2_" cx="121.102" cy="133.999" r="82.364" gradientTransform="matrix(-1 0 0 1 272.202 -9.899)" gradientUnits="userSpaceOnUse"><stop offset="0" style="stop-color:#1b1a52"/><stop offset=".359" style="stop-color:#1a1950;stop-opacity:.6407"/><stop offset=".634" style="stop-color:#17184b;stop-opacity:.3659"/><stop offset=".88" style="stop-color:#101542;stop-opacity:.1198"/><stop offset="1" style="stop-color:#0b123d;stop-opacity:0"/></radialGradient><path id="XMLID_308_" d="M68.7 126.2c-1.2-46.1 35.7-84.4 82.4-84.4s83.6 38.3 82.4 84.4c-1.2 44.8-38 80.2-82.4 80.2S69.8 171 68.7 126.2z" style="opacity:.75;fill:url(#XMLID_2_);enable-background:new"/><g id="圖層_2_拷貝_3"><ellipse id="XMLID_153_" class="st5" cx="207.9" cy="167.4" rx="5.9" ry="2.9"/><ellipse id="XMLID_152_" class="st5" cx="179.5" cy="153.6" rx="4" ry="2.2"/><ellipse id="XMLID_151_" class="st5" cx="134.5" cy="162.3" rx="4" ry="2.2"/><ellipse id="XMLID_150_" class="st5" cx="121.1" cy="128.2" rx="4" ry="2.2"/><ellipse id="XMLID_149_" class="st5" cx="166.9" cy="117" rx="4" ry="2.2"/><ellipse id="XMLID_148_" class="st5" cx="191" cy="105.6" rx="2.6" ry="1.2"/><ellipse id="XMLID_147_" class="st5" cx="136.1" cy="94" rx="4" ry="2.2"/><ellipse id="XMLID_145_" class="st5" cx="202" cy="81" rx="4" ry="2.2"/></g><g id="圖層_13_拷貝_2"><path id="XMLID_185_" d="M223.4 17s1.1.7.9 2.3c-.2 1.8-1.7 6.7-1.9 7.5v.2c0 .4-.4 1.9-3 2.5-2.1.4-4.1 1-5.2 1.4-.7.2-1.4 0-1.9-.5-.1-.1-.2-.2-.2-.3-.9-1-5-6.7-6-7.9l-.3-.3c-.3-.3-1.1-1 0-2.5 1.4-1.8 3-3.5 3-3.5s.6-.8 1.5-1 8.2.4 9.1.5h.2c.2 0 1.5 0 3.8 1.6z" style="fill:none;stroke:#414042;stroke-width:3;stroke-miterlimit:10"/><path id="XMLID_182_" d="M223.4 17s1.1.7.9 2.3c-.2 1.8-1.7 6.7-1.9 7.5v.2c0 .4-.4 1.9-3 2.5-2.1.4-4.1 1-5.2 1.4-.7.2-1.4 0-1.9-.5-.1-.1-.2-.2-.2-.3-.9-1-5-6.7-6-7.9l-.3-.3c-.3-.3-1.1-1 0-2.5 1.4-1.8 3-3.5 3-3.5s.6-.8 1.5-1 8.2.4 9.1.5h.2c.2 0 1.5 0 3.8 1.6z" style="fill:#6d6e71"/><path id="XMLID_176_" d="m215.3 19.1-.1 2.1s0 .4-.5.5c-.4.1-3.8 0-3.8 0l4.1.3s.3.1 1.2.8l1.8 1.4s-2.5-1.9-2.5-2.4c0-.6-.2-2.7-.2-2.7z" style="opacity:.61;fill:#e6e7e8;enable-background:new"/><path id="XMLID_162_" d="M218.8 15.3c-.7-.1-1.9-.2-3.1-.2h-.3l-.1.2.2 6.7 6.7 5.6c0-.1.1-.1.1-.2s0-.1.1-.2v-.4c.2-.8 1.7-5.6 1.9-7.5.2-1.6-.9-2.3-.9-2.3-2.3-1.6-3.6-1.6-3.9-1.6h-.2c-.1 0-.2-.1-.5-.1z" style="opacity:.3;fill:#fff;enable-background:new"/><linearGradient id="XMLID_3_" gradientUnits="userSpaceOnUse" x1="-132.725" y1="-32.528" x2="-132.725" y2="-41.111" gradientTransform="scale(-1 1) rotate(55.495 -224.927 -84.664)"><stop offset="0" style="stop-color:#fff"/><stop offset=".033" style="stop-color:#fff;stop-opacity:.9674"/><stop offset="1" style="stop-color:#fff;stop-opacity:0"/></linearGradient><path id="XMLID_161_" d="M215.4 21v-.9s-.1-4-.1-4.6c0-.2-.1-.3-.2-.4-2.2-.2-4.4-.3-4.9-.2s-1 .4-1.2.6c0 0-.2 3.1-.4 4.4-.1 1.3.5 1.8.5 1.8s4.3.2 5.3.2 1-.9 1-.9z" style="opacity:.52;fill:url(#XMLID_3_);enable-background:new"/><path id="XMLID_160_" class="st11" d="M207.8 22.9s0 .2-.1.3c-.2.1-.3.1-.2 0 0-.1.1-.3.2-.4.1 0 .1.1.1.1z"/><path id="XMLID_157_" class="st11" d="M207.9 19.7s-.1.1-.3 0-.2-.2-.1-.2.3-.1.4 0c.1.1 0 .2 0 .2z"/><path id="XMLID_155_" class="st11" d="M214.5 28.6s.1.2 0 .3c-.1.1-.2.2-.2.1s0-.3.2-.4c0-.1 0 0 0 0z"/><path id="XMLID_154_" class="st11" d="M215.6 22.6v.1h-.1s0-.1.1-.1c-.1 0 0 0 0 0z"/></g></g></svg>