<?xml version="1.0" encoding="utf-8"?>
<!-- Generator: Adobe Illustrator 19.0.0, SVG Export Plug-In . SVG Version: 6.00 Build 0)  -->
<svg version="1.0" id="圖層_1" xmlns="http://www.w3.org/2000/svg" xmlns:xlink="http://www.w3.org/1999/xlink" x="0px" y="0px" width="300px" height="260px"
	 viewBox="0 0 300 260" style="enable-background:new 0 0 300 260;" xml:space="preserve">
<style type="text/css">
	.st0{opacity:0.15;}
	.st1{opacity:0.2;}
	.st2{fill:#1B5632;}
	.st3{fill:#51AA59;}
	.st4{fill:#3A9E47;}
	.st5{fill:#5FB446;}
	.st6{opacity:0.1;fill:#1A5632;}
	.st7{fill:#1A5632;}
	.st8{fill:#80C460;}
	.st9{fill:none;stroke:#1B5632;stroke-width:3;stroke-miterlimit:10;}
	.st10{fill:#99C972;}
	.st11{opacity:0.1;fill:#1B5632;}
</style>
<g id="Calque_8">
	<g id="XMLID_181_" class="st0">
		<path id="XMLID_183_" class="st1" d="M27.9,89.9c-3.1-1.8-3.8-4.1-3-6.2c0.8-2,3.1-3.7,5.9-4.2c-4.8-3.9,1.8-6.8,3.7-7.8
			c1.9-1.2,3.8-2.4,5.7-3.3c1.9-1,3.9-1.8,5.8-2.2c3.7-0.2,8.5-0.2,12.3,1.7c-1-1.9-1.9-3.9-1-5.8c5.7-7.7,3.8-13.6,4.8-21.3
			c0.5-2.9,1.4-5.5,2.6-7.8c1.2-2.3,2.8-4.3,4.7-6c13-10.3,30.4-7.4,46.4-5.5c3.2,0.4,6.3,0.7,9.3,0.9c1.9-2.9,5-5.3,8.2-6.1
			c3.2-0.7,6.6,0.2,8.9,4.1c0-2,0-3.9,1-4.9c2.9-1,3.8,1,5.7,2.9c-1-1.9-1-3.9-1-5.8c2.9,1.9,8.6,1.9,8.6-2.9
			c1.9,1.9,3.8,3.9,5.7,4.8c0-1,0-2.9,0-3.9c4.1,3.6,9.5,6.9,14.7,10.4c2.6,1.8,5.1,3.6,7.4,5.6c5.6,4,9.7,10.4,10.6,17.1
			c0.3,2.2,0.2,4.5-0.2,6.6c4.8-1.9,7.6-5.8,11.5-8.7c-1.9,3.9,2.9,4.8,2.9,7.7c1,0,1.9-1,2.9-1c4.8,3.9,7.6,6.8,14.3,7.7
			c1.9,1,2.9,1.9,3.8,3.9c1.1,2.8,2.2,5.6,3.3,8.4c2.7,5.7,5,11.7,6.8,18c1.7,6.3,2.9,12.7,3.5,19.3c0.9,4.5,0.8,9,0.3,13.5
			c-0.2,2.3-0.6,4.5-1,6.8c-1.2,5.3-2.3,10.6-2.1,15.9c-0.6,3.6,1.2,7.4,2.6,10.9c0,3.2,3.8,5.1,0,9c4.8,2.9,6.7,8.7,5.7,13.6
			c-1,4.8-1.9,8.7-2,12.6c-0.1,1.9,0.1,3.9,0.6,5.9c0.5,1.8,1.5,4.7,2.4,6.7c-7.6,1-2.9,6.8-5.7,11.6c-6.7,9.7-17.2,12.6-23.9,17.4
			c-12.4,6.8-25.8,8.7-39.1,19.4c-2.9,1-5.7,2.9-8.6,1.9c0,1,1,1.9,1,2.9c-1.9-1.9-3.8-2.9-6.8-3c-2.4-0.8-5-1.3-7.6-1.9
			s-5.1-1-7.6-1.7c-2.5-0.6-4.8-1.4-7-2.5c-5.4-5.5-4.6-2.9-12.3-5.8c0,9.7-8.6,2.6-13.4,1.6c4.8,1.9-4.6,1.6-7.4,4.5
			c-5.7,5.8-13.4,7.7-22,6.8c-5.7-1-13.4-5.8-11.5-12.6c-10.5,1-22-1-28.8-10.9c-0.4-1.8-2.8-3-4.5-4.3c-1.8-1.3-3-2.8-1.1-5.2
			c-1,0-1.9,0-2.9,0c1.3-4.2,0.8-8.2-0.5-12c-1.3-3.8-3.5-7.5-5.8-11.2c-2.4-4.9-11-13.6-1.4-15.6c-2.9-1.9-6-4.8-7.9-8.1
			c-2.6-6.4-3.6-12.2-7.4-19c-2.9-6.8-5.7-16.5,1-20.3c-3.8-3.9-1.9-8.7-3.8-13.6c11.5,0,10.5-16.5,8-24.6
			C23.9,93.6,27.9,89.9,27.9,89.9z"/>
	</g>
	<g id="Calque_7">
		<path id="XMLID_179_" class="st2" d="M46.2,84.9c0,0-5.2-4.2-3.1-6.1c2.1-1.9,6.3-2.1,6.3-2.1s-1.9-4,0-4s4.2,0,4.2,0
			s-0.9-4,1.6-3.5s5.6,1.2,5.6,1.2s-0.6-3.6,1.5-3.3c2.1,0.3,6.8-2.5,8.9-1.8s6.3,1.6,6.3,1.6s-2.1-3.8,0-4.2c0-1.9-2.1-6.1,2.8-7.5
			c4.9-1.4,1.9-9.4,1.9-9.4s-0.6-2.1-0.3-6.8c0.2-4.7,4-5.2,4-5.2s-1.7-5.9,0-8.2c1.7-2.4,4.9-1.2,4.9-1.2s-0.9-2.6,1.2-3.3
			c2.1-0.7,4.9,0.9,4.9,0.9s-0.5-5.6,4.2-5.6s4.7,2.6,4.7,2.6s0.7-1.4,4.9-2.6c4.2-1.2,5.6,1.4,5.6,1.4s1.4-2.5,3.8-1.7
			c2.4,0.8,3.8,3.8,3.8,3.8s-1.6-1.6,2.6-0.9c4.2,0.7,4,3.3,4,3.3s4-1.9,4.7-3.8s1.6-4.2,3.8-4.2c2.1,0,4.2,1.6,4.2,1.6
			s2.8-1.2,4.5-0.2s3.1,3.3,3.1,3.3s-1.2-3.1,1.2-4.7c2.4-1.6,6.3,1.6,6.3,1.6s-1.6-4.7,0-4.9c1.6-0.2,4,0,4,0s3.5-1.4,4.2-0.1
			s-0.5-3.9,2.1-3.7c2.6,0.2,5.4,3.5,5.4,3.5s-0.1-4.6,2.4-3.5c2.5,1.1,3.1,3.8,3.1,3.8s1.9-1.3,3.6,0.7s1.4,3.3,1.4,3.3
			s3.5-2.2,5.2,0.1s0.9,4.6,0.9,4.6s1.8,0.1,3.2,1.4c1.4,1.3,0.8,2.2,0.8,2.2s1.1-2.2,3.1-1.3c2,0.9,2.2,2.1,2.2,2.1
			s3.1,0.1,3.6,1.3c0.6,1.2,0.5,4,0.5,4s2.7,0.7,2.4,3.1c-0.4,2.4-0.3,1.7-0.3,1.7s2.8,3.3,2,5.6c-0.8,2.2,3.6-2,3.6-2
			s1.6-2.8,3.2-2.1c1.5,0.7,0,4.6,0,4.6s1.9,0,1.5,1.5c-0.4,1.5,0.7-3.5,2.8-2.1s4.2,2.8,3.3,4.5c-0.9,1.6,2.2,2.8,2.2,2.8
			s1.9-4,4.6-0.9c2.7,3.1,0.5,4.6,0.5,4.6s4,1.8,4.4,3.8c0.4,2-1.4,3.2-1.4,3.2s2.7,2.7,2.8,4.5c2.7,1.3,4.5,3.2,4.4,4.7
			c-0.1,1.5-1.3,4.9-1.3,4.9l0.1,5.9c0,0,6.8,2.4,7.9,4.4c1.1,2,6.2,3.5,5.4,5.3c-0.8,1.8-0.6,3.6-0.6,3.6s1.8,0,2.1,1.9
			c0.4,1.9-1.6,3.2-1.6,3.2s1.5,0.2,1.7,2.1c0.2,1.9-2.5,4.7-2.5,4.7s1.4,3.3,1.2,4.4c-0.2,1.1-2.8,2.2-2.8,2.2l-0.2,4.5
			c0,0,2.6,0.9,2.1,2.7c-0.5,1.8-1.9,3.9-1.9,3.9s1.6,2.1,1.2,3.5c-0.5,1.4,2,2.4,1.5,3.6c-0.5,1.3-2.2,4.2-4.1,4.4
			c-1.9,0.1-1.8,3.3-1.8,3.3s4,2,3.5,3.5s3.3,2.5,3.3,4.2c0,1.8,0.2,8.3-1.2,7.8c-1.4-0.6,1.4,4.4,1.7,4.6s5.7,5.5,3.1,8
			c-2.6,2.5-1.6,6-1.6,6s-2.5,2.2-3.9,1.2c-1.4-1.1-1.3,5.5-1.3,5.5s4.6-0.4,4.6,1.5c0,1.9-2,5.1-2,5.1s4.4,2.9,3.2,4
			s-4.4,1.2-4.5,1.9c-0.1,0.7-1.5,2.4-1.5,2.4s3.4,3.2,1.8,4.4c-1.6,1.2-4.2,7.3-4.2,7.3s-2.6,2.8-4.8,2.6c-2.2-0.2-1.2,3.3-3.8,3.1
			c-2.6-0.2-6.1-0.4-5.9,1.3s2.9,4.9,0.4,4.9c-2.6,0-6.2,2.7-6.2,2.7s-1.4,4-4.8,2.7c-3.4-1.3-6.7-4.6-6.7-4.6s-4.8,0.7-4.8,3.2
			c0,2.5-3.1,3.9-7.4,4.6s-2.7,2.9-2.7,2.9s1.8,5.6-0.1,5.8c-1.9,0.1-4.1,1.9-4.8,0.5s-3.1-1.4-3.1,0s-0.8,2.8-1.8,2.9
			s0.5,4.2-2.5,3.4c-2.9-0.8-3.9-2.1-3.9-2.1s1.6,2.1-1.4,1.5c-3.1-0.6-2.6,1.6-5.8,1.2c-3.2-0.5-1.6-4-3.6-4.1
			c-2-0.1-2.1-3.2-3.3-2.7c-1.2,0.5-1.6,3.4-3.6,2.6s-3.6-3.3-3.6-3.3s-4.1,1.4-4.5-0.4c-0.4-1.8-1-4.9-0.8-4.6
			c-1.1-1.8-5.5-2.6-6.8-2.5s-1.9-2.5-3-3.5c-1.1-1.1-0.8-3.9-0.8-3.9s-3.2-2-4-1.3s0.8,4.4-2.1,6c-2.9,1.6-7.4-3.8-7.4-3.8
			s-1.1,3-1.8,2.1c-0.7-0.9,2.2,4.7-0.6,5.8c-2.7,1.1,2.5,5.8-1.8,5.2s-6.7-0.8-6.7-0.8s-2.9,1.9-3.9,0.2c-0.9-1.6-1.3,2.9-3.2,3.8
			c-1.9,0.8-7.8-0.1-8.6-2.6c-2.8,0-6.5,0.5-6.9-2.2c-0.5-2.7,0.1-6.6,0.1-6.6s-4.6,1.1-4.4-0.2s1.1,2.9-1.5,3.3s-3.8-1.2-3.8-1.2
			s-0.1,1.9-2.2,2c-2.1,0.1-3.1-2-3.1-2s-0.9,2.6-2.6,2.6c-1.6,0-2.8-3.3-2.8-3.3s-8.2-0.7-8.7-2.8s-0.4-3.5-0.4-3.5s-7.5,1.4-8-1.9
			s-0.4-5.1-0.4-5.1s-4.6-0.4-4.5-2.5c0.1-2.1,1.8-4.4,1.8-4.4s-1.4-0.5-1.4-1.9c0-1.4,3.1-3.5,3.1-3.5s0.4-2.5-1.6-2.5
			s-5.6-3.8-5.5-4.1s-0.5-4.6-4.2-3.4c-3.8,1.2-3.6-4.5-3.6-4.5s-3.3-2.8-2.9-4.5s1.9-2.6,1.9-2.6s-3.8-1.4-3-2.8s4-3.5,4-3.5
			s-4.3-3.8-4.2-5.3c0.2-1.5-2.1-0.8-2.4-1.6c-0.4-0.8-0.7-3.4-0.7-3.4s-2.7-1.9-1.5-3.2s3.1-2.9,3.1-2.9s-6.3-1.3-6.3-3.2
			s2.1-4,2.1-4s1.4-1.5,0.1-3.5c-1.3-2-1.4-5.1-1.4-5.1s-3.1-1.9-2.6-4.5c0.5-2.6,5.2-2.9,5.2-2.9s1.3-1.9,0.6-3.4
			c-0.7-1.5-2.9-3.9-2.4-5.4c0.6-1.5,1.2-2.7,1.2-2.7s-2.8-3.1-2.1-5.2c0.7-2.1,6.1-2.5,6.1-2.5s5.1-0.9,3.3-3.2
			c-1.8-2.2-1.8-4.2,0-5.6c1.8-1.4-2.1-4-2.1-4s0.7-2.8-0.6-3.9c-1.3-1.1,1.1-3.3,1.1-3.3s-1.4-1.4-1.1-2.4
			C42.3,88,46.2,84.9,46.2,84.9z"/>
		<path id="XMLID_178_" class="st3" d="M48.6,85.9c0,0-5-4.1-3-6c2.1-1.8,6.2-2.1,6.2-2.1S50,74,51.8,74c1.8,0,4.1,0,4.1,0
			s-0.9-3.9,1.6-3.4c2.5,0.5,5.5,1.1,5.5,1.1s2.1-1.5,4.1-1.2c2.1,0.3,6.7-2.5,8.7-1.8c2.1,0.7,6.2,1.6,6.2,1.6s-2.1-3.7,0-4.1
			c0-1.8-2.1-6,2.8-7.3c4.8-1.4,1.8-9.2,1.8-9.2s-3.2-4.1-3-8.7s3.9-5,3.9-5s-1.6-5.7,0-8s4.8-1.1,4.8-1.1s-0.9-2.5,1.1-3.2
			c2.1-0.7,4.8,0.9,4.8,0.9s-0.5-5.5,4.1-5.5c4.6,0,4.6,2.5,4.6,2.5s0.7-1.4,4.8-2.5c4.1-1.1,5.5,1.4,5.5,1.4s1.4-2.4,3.7-1.7
			s3.7,3.7,3.7,3.7s-1.6-1.6,2.5-0.9c4.1,0.7,3.9,3.2,3.9,3.2s3.9-1.8,4.6-3.7c0.7-1.8,1.6-4.1,3.7-4.1s4.1,1.6,4.1,1.6
			s2.8-1.1,4.4-0.2c1.6,0.9,3,3.2,3,3.2s-1.1-3,1.1-4.6c2.3-1.6,6.2,1.6,6.2,1.6s-1.6-4.6,0-4.8c1.6-0.2,3.9,0,3.9,0
			s3.4-1.4,4.1-0.1c0.7,1.2-0.5-3.8,2.1-3.6c2.5,0.2,5.3,3.4,5.3,3.4s-0.1-4.5,2.3-3.4c2.4,1,3,3.7,3,3.7s1.8-1.3,3.6,0.7
			c1.7,1.9,1.4,3.2,1.4,3.2s3.4-2.2,5,0.1c1.6,2.3,0.9,4.5,0.9,4.5s1.7,0.1,3.1,1.4c1.4,1.3,0.8,2.2,0.8,2.2s1-2.2,3-1.3
			c1.9,0.9,2.2,2.1,2.2,2.1s3,0.1,3.6,1.3c0.6,1.1,0.5,3.9,0.5,3.9s2.6,0.7,2.3,3c-0.3,2.3-2.3,3.7-2.3,3.7s1.8,3.3,1,5.5
			c-0.8,2.2,6.4-4,6.4-4s1.6-2.8,3.1-2.1s0,4.5,0,4.5s1.8,0,1.5,1.5c-0.3,1.5,0.7-3.4,2.8-2.1c2.1,1.4,4.1,2.8,3.2,4.4
			c-0.9,1.6,2.2,2.8,2.2,2.8s1.8-3.9,4.5-0.9c2.6,3.1,0.5,4.4,0.5,4.4s3.9,1.7,4.2,3.7c0.3,1.9-1.4,3.1-1.4,3.1s2.6,2.6,2.8,4.4
			c2.6,1.3,4.4,3.1,4.2,4.6s-1.3,4.8-1.3,4.8l0.1,5.7c0,0,6.7,2.3,7.7,4.2s6.1,3.4,5.3,5.2c-0.8,1.7-0.6,3.6-0.6,3.6s1.7,0,2.1,1.8
			c0.3,1.8-1.6,3.1-1.6,3.1s1.5,0.2,1.6,2.1c0.2,1.8-2.4,4.6-2.4,4.6s1.4,3.2,1.1,4.2c-0.2,1-2.8,2.2-2.8,2.2l-0.2,4.4
			c0,0,2.5,0.9,2.1,2.6c-0.5,1.7-1.8,3.8-1.8,3.8s1.6,2.1,1.1,3.4s1.9,2.3,1.5,3.6c-0.5,1.3-2.2,4.1-4,4.2s-1.7,3.2-1.7,3.2
			s3.9,1.9,3.4,3.4s3.2,2.4,3.2,4.1s0.2,8.1-1.1,7.6s1.4,4.2,1.7,4.5c0.3,0.2,5.6,5.4,3,7.8c-2.5,2.4-1.6,5.8-1.6,5.8
			s-2.4,2.2-3.8,1.1s-1.3,5.4-1.3,5.4s4.5-0.3,4.5,1.5s-1.9,4.9-1.9,4.9s4.2,2.9,3.1,3.9c-1.1,1-4.2,1.1-4.4,1.8
			c-0.1,0.7-1.5,2.3-1.5,2.3s3.3,3.1,1.7,4.2c-1.6,1.1-4.1,7.1-4.1,7.1s-2.5,2.8-4.7,2.5c-2.2-0.2-1.1,3.2-3.7,3
			c-2.5-0.2-6-0.3-5.7,1.3c0.2,1.6,2.9,4.8,0.3,4.8s-6.1,2.6-6.1,2.6s-1.4,3.9-4.7,2.6c-3.3-1.3-6.5-4.5-6.5-4.5s-4.7,0.7-4.7,3.1
			s-3,3.8-7.2,4.5c-4.2,0.7-2.6,2.9-2.6,2.9s1.7,5.5-0.1,5.6s-4,1.8-4.7,0.5c-0.7-1.4-3-1.4-3,0s-0.8,2.8-1.7,2.9s0.5,4.1-2.4,3.3
			s-3.8-2.1-3.8-2.1s1.6,2.1-1.4,1.5s-2.5,1.6-5.6,1.1s-1.6-3.9-3.6-4c-1.9-0.1-2.1-3.1-3.2-2.6c-1.1,0.5-1.6,3.3-3.6,2.5
			c-1.9-0.8-3.6-3.2-3.6-3.2s-4,1.4-4.4-0.3s-0.5-4.5-0.8-4.5c-0.3,0-5.4-1.3-5.4-1.3s-1.5-2.4-1-4c0.5-1.6-0.8-4.2-2.1-4.1
			c-1.3,0.1-2.6,1.5-3.7,0.5c-1-1-0.8-3.8-0.8-3.8s-3.1-1.9-3.9-1.3c-0.8,0.7,0.8,4.2-2.1,5.8c-2.9,1.6-7.2-3.7-7.2-3.7
			s-3.4,2.2-4.1,1.3s4.5,5.4,1.8,6.4c-2.6,1,2.4,5.6-1.7,5c-4.1-0.6-3.9,2.3-3.9,2.3s-2.9,1.8-3.8,0.2c-0.9-1.6-1.3,2.9-3.1,3.7
			c-1.8,0.8-7.6-0.1-8.4-2.5c-2.8,0-6.3,0.5-6.8-2.2c-0.5-2.6,0.1-6.4,0.1-6.4s-4.5,1-4.2-0.2c0.2-1.3,1,2.9-1.5,3.2
			c-2.5,0.3-3.7-1.1-3.7-1.1s-0.1,1.8-2.2,1.9c-2.1,0.1-3-1.9-3-1.9s-0.9,2.5-2.5,2.5s-2.8-3.2-2.8-3.2s-8-0.7-8.5-2.8
			c-0.5-2.1-0.3-3.4-0.3-3.4s-7.3,1.4-7.8-1.8s-0.3-4.9-0.3-4.9s-4.5-0.3-4.4-2.4c0.1-2.1,1.7-4.2,1.7-4.2s-1.4-0.5-1.4-1.8
			s3-3.4,3-3.4s0.3-2.4-1.6-2.4s-5.5-3.7-5.4-4c0.1-0.3-0.5-4.5-4.1-3.3c-3.7,1.1-3.6-4.4-3.6-4.4s-3.2-2.8-2.9-4.4
			c0.3-1.6,1.8-2.5,1.8-2.5s-3.7-1.4-2.9-2.8c0.8-1.4,3.9-3.4,3.9-3.4s-4.2-3.7-4.1-5.2c0.2-1.5-2-0.8-2.4-1.6
			c-0.3-0.8-0.7-3.3-0.7-3.3s-2.6-1.8-1.5-3.1c1.1-1.3,3-2.9,3-2.9s-6.2-1.3-6.2-3.1s2.1-3.9,2.1-3.9s1.4-1.5,0.1-3.4
			s-1.4-4.9-1.4-4.9s-3-1.8-2.5-4.4c0.5-2.5,5-2.9,5-2.9s1.3-1.8,0.6-3.3c-0.7-1.5-2.9-3.8-2.3-5.3c0.6-1.5,1.1-2.6,1.1-2.6
			s-2.8-3-2.1-5c0.7-2.1,6-2.4,6-2.4s4.9-0.9,3.2-3.1c-1.7-2.2-1.7-4.1,0-5.5c1.7-1.4-2.1-3.9-2.1-3.9s0.7-2.8-0.6-3.8s1-3.2,1-3.2
			s-1.4-1.4-1-2.3C44.8,88.9,48.6,85.9,48.6,85.9z"/>
		<path id="XMLID_177_" class="st4" d="M52.8,87.5c0,0-4.8-4-2.9-5.7c2-1.8,5.9-2,5.9-2s-1.8-3.7,0-3.7s4,0,4,0s-0.9-3.7,1.5-3.3
			s5.3,1.1,5.3,1.1s2-1.4,4-1.1c2,0.3,6.4-2.4,8.3-1.7c2,0.7,5.9,1.5,5.9,1.5s-2-3.5,0-4c0-1.8-2-5.7,2.6-7s1.8-8.8,1.8-8.8
			s-3.1-4-2.9-8.3c0.2-4.4,3.7-4.8,3.7-4.8s-1.5-5.5,0-7.7c1.5-2.2,4.6-1.1,4.6-1.1s-0.9-2.4,1.1-3.1s4.6,0.9,4.6,0.9
			s-0.4-5.3,4-5.3c4.4,0,4.4,2.4,4.4,2.4s0.7-1.3,4.6-2.4c4-1.1,5.3,1.3,5.3,1.3s1.3-2.3,3.5-1.6c2.2,0.7,3.5,3.6,3.5,3.6
			s-1.5-1.5,2.4-0.9c4,0.7,3.7,3.1,3.7,3.1s3.7-1.8,4.4-3.5c0.7-1.8,1.5-4,3.5-4s4,1.5,4,1.5s2.6-1.1,4.2-0.2
			c1.5,0.9,2.9,3.1,2.9,3.1s-1.1-2.9,1.1-4.4c2.2-1.5,5.9,1.5,5.9,1.5s-1.5-4.4,0-4.6c1.5-0.2,3.7,0,3.7,0s3.3-1.3,4-0.1
			c0.7,1.2-0.4-3.6,2-3.4c2.4,0.2,5.1,3.3,5.1,3.3s-0.1-4.3,2.2-3.3c2.3,1,2.9,3.5,2.9,3.5s1.8-1.2,3.4,0.7s1.3,3.1,1.3,3.1
			s3.3-2.1,4.8,0.1s0.9,4.3,0.9,4.3s1.6,0.1,3,1.3c1.3,1.2,0.8,2.1,0.8,2.1s1-2.1,2.9-1.2c1.9,0.9,2.1,2,2.1,2s2.9,0.1,3.4,1.2
			c0.5,1.1,0.4,3.7,0.4,3.7s2.5,0.7,2.2,2.9c-0.3,2.2-2.2,3.5-2.2,3.5s1.8,3.2,1,5.3c-0.8,2.1,6.1-3.8,6.1-3.8s1.5-2.6,3-2
			c1.4,0.7,0,4.3,0,4.3s1.8,0,1.4,1.4c-0.3,1.4,0.7-3.3,2.6-2s4,2.6,3.1,4.2c-0.9,1.5,2.1,2.6,2.1,2.6s1.8-3.8,4.3-0.8
			c2.5,2.9,0.4,4.3,0.4,4.3s3.7,1.6,4.1,3.5c0.3,1.9-1.3,3-1.3,3s2.5,2.5,2.6,4.2c2.5,1.2,4.2,3,4.1,4.4c-0.1,1.4-1.2,4.6-1.2,4.6
			l0.1,5.5c0,0,6.4,2.2,7.4,4.1c1,1.9,5.8,3.3,5.1,4.9c-0.8,1.6-0.5,3.4-0.5,3.4s1.6,0,2,1.8c0.3,1.8-1.5,3-1.5,3s1.4,0.2,1.6,2
			c0.2,1.8-2.3,4.4-2.3,4.4s1.3,3.1,1.1,4.1c-0.2,1-2.6,2.1-2.6,2.1l-0.2,4.2c0,0,2.4,0.9,2,2.5s-1.8,3.6-1.8,3.6s1.5,2,1.1,3.3
			c-0.4,1.3,1.9,2.2,1.4,3.4s-2.1,4-3.8,4.1c-1.8,0.1-1.6,3.1-1.6,3.1s3.7,1.9,3.3,3.3c-0.4,1.4,3.1,2.3,3.1,4s0.2,7.8-1.1,7.2
			c-1.3-0.5,1.3,4.1,1.6,4.3c0.3,0.2,5.3,5.2,2.9,7.5s-1.5,5.6-1.5,5.6s-2.3,2.1-3.6,1.1c-1.3-1-1.2,5.2-1.2,5.2s4.3-0.3,4.3,1.4
			s-1.9,4.7-1.9,4.7s4.1,2.7,3,3.7c-1.1,1-4.1,1.1-4.2,1.8c-0.1,0.7-1.4,2.2-1.4,2.2s3.2,3,1.6,4.1c-1.5,1.1-4,6.8-4,6.8
			s-2.4,2.6-4.5,2.4c-2.1-0.2-1.1,3.1-3.5,2.9c-2.4-0.2-5.7-0.3-5.5,1.2c0.2,1.5,2.7,4.6,0.3,4.6s-5.8,2.5-5.8,2.5s-1.3,3.7-4.5,2.5
			c-3.2-1.2-6.3-4.3-6.3-4.3s-4.5,0.7-4.5,3s-2.9,3.6-6.9,4.3c-4.1,0.7-2.5,2.7-2.5,2.7s1.6,5.3-0.1,5.4c-1.8,0.1-3.8,1.8-4.5,0.4
			c-0.7-1.3-2.9-1.3-2.9,0c0,1.3-0.8,2.6-1.6,2.7c-0.9,0.1,0.4,4-2.3,3.2c-2.7-0.8-3.6-2-3.6-2s1.5,2-1.3,1.4s-2.4,1.5-5.4,1.1
			c-3-0.4-1.5-3.7-3.4-3.8c-1.9-0.1-2-3-3.1-2.5s-1.5,3.2-3.4,2.4c-1.9-0.8-3.4-3.1-3.4-3.1s-3.8,1.3-4.2-0.3s-0.4-4.3-0.8-4.3
			s-5.2-1.2-5.2-1.2s-1.4-2.3-1-3.8c0.4-1.5-0.8-4.1-2-4c-1.2,0.1-2.5,1.4-3.5,0.4c-1-1-0.8-3.6-0.8-3.6s-3-1.9-3.7-1.2
			c-0.8,0.7,0.8,4.1-2,5.6c-2.7,1.5-6.9-3.5-6.9-3.5s-3.3,2.1-4,1.2c-0.7-0.9,4.3,5.2,1.8,6.1c-2.5,1,2.3,5.4-1.6,4.8
			s-3.7,2.2-3.7,2.2s-2.7,1.8-3.6,0.2c-0.9-1.5-1.2,2.7-3,3.5s-7.2-0.1-8-2.4c-2.6,0-6,0.4-6.5-2.1c-0.4-2.5,0.1-6.1,0.1-6.1
			s-4.3,1-4.1-0.2s1,2.7-1.4,3.1c-2.4,0.3-3.5-1.1-3.5-1.1s-0.1,1.8-2.1,1.9c-2,0.1-2.9-1.9-2.9-1.9s-0.9,2.4-2.4,2.4
			c-1.5,0-2.6-3.1-2.6-3.1s-7.7-0.7-8.1-2.6c-0.4-2-0.3-3.3-0.3-3.3s-7,1.3-7.5-1.8c-0.4-3.1-0.3-4.7-0.3-4.7s-4.3-0.3-4.2-2.3
			c0.1-2,1.6-4.1,1.6-4.1s-1.3-0.4-1.3-1.8c0-1.3,2.9-3.3,2.9-3.3s0.3-2.3-1.5-2.3c-1.9,0-5.3-3.5-5.2-3.8c0.1-0.3-0.4-4.3-4-3.2
			c-3.5,1.1-3.4-4.2-3.4-4.2s-3.1-2.6-2.7-4.2s1.8-2.4,1.8-2.4s-3.6-1.3-2.8-2.6c0.8-1.3,3.8-3.3,3.8-3.3s-4-3.5-3.9-4.9
			c0.2-1.4-1.9-0.8-2.3-1.5c-0.3-0.8-0.7-3.2-0.7-3.2s-2.5-1.8-1.4-3s2.9-2.7,2.9-2.7s-5.9-1.2-5.9-3s2-3.7,2-3.7s1.3-1.4,0.1-3.3
			c-1.2-1.9-1.3-4.7-1.3-4.7s-2.9-1.8-2.4-4.2s4.8-2.7,4.8-2.7s1.2-1.8,0.5-3.2c-0.7-1.4-2.7-3.6-2.2-5.1c0.5-1.4,1.1-2.5,1.1-2.5
			s-2.6-2.9-2-4.8c0.7-2,5.7-2.3,5.7-2.3s4.7-0.9,3.1-3c-1.6-2.1-1.6-4,0-5.3c1.6-1.3-2-3.7-2-3.7s0.7-2.6-0.5-3.6s1-3.1,1-3.1
			s-1.3-1.3-1-2.2C49.1,90.3,52.8,87.5,52.8,87.5z"/>
	</g>
	<g id="Calque_6">
		<path id="XMLID_199_" class="st2" d="M67.8,93.2c0,0-4-3.3-2.4-4.8c1.7-1.5,5-1.7,5-1.7s-1.5-3.1,0-3.1s3.3,0,3.3,0
			S73,80.6,75,80.9c2,0.4,1.1-2.6,1.1-2.6s1.7-1.2,3.3-0.9s5.3-2,7-1.4s4.1,0.6,4.1,0.6s-0.8-2.2,0.9-2.6c0-1.5-1.7-4.8,2.2-5.9
			c3.9-1.1,1.5-7.4,1.5-7.4s0.7,0.2,0.9-3.4c0.2-3.7,3.1-4,3.1-4s-1.3-4.6,0-6.4c1.3-1.8,3.9-0.9,3.9-0.9s-0.7-2,0.9-2.6
			s3.9,0.7,3.9,0.7s-0.4-4.4,3.3-4.4c3.7,0,3.7,2,3.7,2s0.6-1.1,3.9-2c3.3-0.9,4.4,1.1,4.4,1.1s1.1-1.9,2.9-1.3c1.8,0.6,2.9,3,2.9,3
			s-1.3-1.3,2-0.7c3.3,0.6,3.1,2.6,3.1,2.6s3.1-1.5,3.7-2.9c0.6-1.5,1.3-3.3,2.9-3.3s3.3,1.3,3.3,1.3s2.2-0.9,3.5-0.2
			s2.4,2.6,2.4,2.6s-0.9-2.4,0.9-3.7s5,1.3,5,1.3s-1.3-3.7,0-3.9s3.1,0,3.1,0s2.8-1.1,3.3-0.1c0.6,1-0.4-3,1.7-2.9s4.2,2.8,4.2,2.8
			s-0.1-3.6,1.8-2.8s2.4,2.9,2.4,2.9s1.5-1,2.8,0.6s1.1,2.6,1.1,2.6s2.8-1.7,4,0.1c1.3,1.8,0.7,3.6,0.7,3.6s1.4,0.1,2.5,1.1
			c1.1,1,0.6,1.7,0.6,1.7s0.8-1.7,2.4-1s1.7,1.7,1.7,1.7s2.4,0.1,2.8,1c0.5,0.9,0.4,3.1,0.4,3.1s2.1,0.6,1.8,2.4
			c-0.3,1.8-1.8,2.9-1.8,2.9s1.5,2.7,0.8,4.4c-0.6,1.7,5.1-3.2,5.1-3.2s1.3-2.2,2.5-1.7s0,3.6,0,3.6s1.5,0,1.2,1.2
			c-0.3,1.2,0.6-2.8,2.2-1.7c1.7,1.1,3.3,2.2,2.6,3.5s1.7,2.2,1.7,2.2s1.5-3.2,3.6-0.7c2.1,2.5,0.4,3.6,0.4,3.6s3.1,1.4,3.4,2.9
			s-1.1,2.5-1.1,2.5s2.1,2.1,2.2,3.5c2.1,1,3.5,2.5,3.4,3.7s-1,3.9-1,3.9l0.1,4.6c0,0,5.3,1.8,6.2,3.4s4.9,2.8,4.2,4.1
			s-0.5,2.8-0.5,2.8s1.4,0,1.7,1.5c0.3,1.5-1.3,2.5-1.3,2.5s1.2,0.2,1.3,1.7c0.2,1.5-2,3.7-2,3.7s1.1,2.6,0.9,3.4s-2.2,1.7-2.2,1.7
			l-0.2,3.5c0,0,2,0.7,1.7,2.1s-1.5,3-1.5,3s1.3,1.7,0.9,2.8s1.6,1.8,1.2,2.8s-1.7,3.3-3.2,3.4s-1.4,2.6-1.4,2.6s3.1,1.6,2.8,2.8
			s2.6,1.9,2.6,3.3s0.2,6.5-0.9,6.1s1.1,3.4,1.3,3.6c0.2,0.2,4.5,4.3,2.4,6.2c-2,1.9-1.3,4.7-1.3,4.7s-1.9,1.7-3,0.9s-1,4.3-1,4.3
			s3.6-0.3,3.6,1.2s-1.6,4-1.6,4s3.4,2.3,2.5,3.1s-3.4,0.9-3.5,1.5s-1.2,1.8-1.2,1.8s2.7,2.5,1.4,3.4s-3.3,5.7-3.3,5.7s-2,2.2-3.8,2
			s-0.9,2.6-2.9,2.4s-4.8-0.3-4.6,1s2.3,3.9,0.3,3.9s-4.9,2.1-4.9,2.1s-1.1,3.1-3.8,2.1s-5.2-3.6-5.2-3.6s-3.8,0.6-3.8,2.5
			s-2.4,3-5.8,3.6c-3.4,0.6-2.1,2.3-2.1,2.3s1.4,4.4-0.1,4.5s-3.2,1.5-3.8,0.4s-2.4-1.1-2.4,0s-0.6,2.2-1.4,2.3s0.4,3.3-1.9,2.7
			s-3-1.7-3-1.7s1.3,1.7-1.1,1.2s-2,1.3-4.5,0.9s-1.3-3.1-2.8-3.2s-1.7-2.5-2.6-2.1s-1.3,2.7-2.8,2s-2.8-2.6-2.8-2.6
			s-3.2,1.1-3.5-0.3s-0.4-3.6-0.6-3.6s-4.3-1-4.3-1s-1.2-1.9-0.8-3.2s-0.6-3.4-1.7-3.3s-2.1,1.2-2.9,0.4s-0.6-3-0.6-3
			s-2.5-1.6-3.1-1s0.6,3.4-1.7,4.7s-5.8-2.9-5.8-2.9s-2.8,1.7-3.3,1s3.6,4.3,1.5,5.1c-2.1,0.8,1.9,4.5-1.4,4
			c-3.3-0.5-3.1,1.8-3.1,1.8s-2.3,1.5-3,0.2s-1,2.3-2.5,2.9s-6.1-0.1-6.7-2c-2.2,0-5.1,0.4-5.4-1.7s0.1-5.1,0.1-5.1
			s-3.6,0.8-3.4-0.2s0.8,2.3-1.2,2.6s-2.9-0.9-2.9-0.9s-0.1,1.5-1.7,1.6c-1.7,0.1-2.4-1.6-2.4-1.6s-0.7,2-2,2s-2.2-2.6-2.2-2.6
			s-6.4-0.6-6.8-2.2s-0.3-2.8-0.3-2.8s-5.9,1.1-6.2-1.5c-0.4-2.6-0.3-4-0.3-4s-3.6-0.3-3.5-1.9s1.4-3.4,1.4-3.4s-1.1-0.4-1.1-1.5
			s2.4-2.8,2.4-2.8s0.3-1.9-1.3-1.9s-4.4-2.9-4.3-3.2s-0.4-3.6-3.3-2.7s-2.8-3.5-2.8-3.5s-2.6-2.2-2.3-3.5s1.5-2,1.5-2
			s-3-1.1-2.3-2.2s3.2-2.8,3.2-2.8s-3.4-2.9-3.3-4.1c0.1-1.2-1.6-0.6-1.9-1.3s-0.6-2.7-0.6-2.7s-2.1-1.5-1.2-2.5s2.4-2.3,2.4-2.3
			s-5-1-5-2.5c0-1.5,1.7-3.1,1.7-3.1s1.1-1.2,0.1-2.8c-1-1.6-1.1-4-1.1-4s-2.4-1.5-2-3.5s4-2.3,4-2.3s1-1.5,0.5-2.7
			c-0.6-1.2-2.3-3-1.8-4.2c0.5-1.2,0.9-2.1,0.9-2.1s-2.2-2.4-1.7-4s4.8-1.9,4.8-1.9s4-0.7,2.6-2.5c-1.4-1.7-1.4-3.3,0-4.4
			s-1.7-3.1-1.7-3.1s0.6-2.2-0.5-3c-1-0.8,0.8-2.6,0.8-2.6s-1.1-1.1-0.8-1.8S67.8,93.2,67.8,93.2z"/>
		<path id="XMLID_198_" class="st5" d="M71.1,94.5c0,0-3.9-3.2-2.3-4.6c1.6-1.4,4.8-1.6,4.8-1.6s-1.4-3,0-3c1.4,0,3.2,0,3.2,0
			s-0.7-3,1.2-2.6c1.9,0.4,1.1-2.5,1.1-2.5s1.6-1.1,3.2-0.9c1.6,0.2,5.1-1.9,6.7-1.4s3.9,0.6,3.9,0.6s-0.8-2.1,0.8-2.5
			c0-1.4-1.6-4.6,2.1-5.6c3.7-1.1,1.4-7,1.4-7s0.7,0.2,0.9-3.3c0.2-3.5,3-3.9,3-3.9s-1.2-4.4,0-6.2c1.2-1.8,3.7-0.9,3.7-0.9
			s-0.7-1.9,0.9-2.5s3.7,0.7,3.7,0.7s-0.4-4.2,3.2-4.2c3.5,0,3.5,1.9,3.5,1.9s0.5-1.1,3.7-1.9c3.2-0.9,4.2,1.1,4.2,1.1
			s1.1-1.9,2.8-1.3c1.8,0.6,2.8,2.9,2.8,2.9s-1.2-1.2,1.9-0.7c3.2,0.5,3,2.5,3,2.5s3-1.4,3.5-2.8c0.5-1.4,1.2-3.2,2.8-3.2
			c1.6,0,3.2,1.2,3.2,1.2s2.1-0.9,3.3-0.2c1.2,0.7,2.3,2.5,2.3,2.5s-0.9-2.3,0.9-3.5c1.8-1.2,4.8,1.2,4.8,1.2s-1.2-3.5,0-3.7
			c1.2-0.2,3,0,3,0s2.6-1,3.2-0.1c0.5,1-0.4-2.9,1.6-2.7c1.9,0.2,4,2.6,4,2.6s-0.1-3.4,1.8-2.6c1.8,0.8,2.3,2.8,2.3,2.8
			s1.4-1,2.7,0.5c1.3,1.5,1.1,2.5,1.1,2.5s2.6-1.7,3.9,0.1s0.7,3.4,0.7,3.4s1.3,0.1,2.4,1.1c1.1,1,0.6,1.7,0.6,1.7s0.8-1.7,2.3-1
			c1.5,0.7,1.7,1.6,1.7,1.6s2.3,0.1,2.7,1c0.4,0.9,0.4,3,0.4,3s2,0.5,1.8,2.3c-0.3,1.8-1.8,2.8-1.8,2.8s1.4,2.6,0.8,4.2
			s4.9-3.1,4.9-3.1s1.2-2.1,2.4-1.6c1.1,0.5,0,3.4,0,3.4s1.4,0,1.1,1.1c-0.3,1.1,0.5-2.6,2.1-1.6c1.6,1.1,3.2,2.1,2.5,3.3
			c-0.7,1.2,1.7,2.1,1.7,2.1s1.4-3,3.4-0.7c2,2.4,0.4,3.4,0.4,3.4s3,1.3,3.3,2.8c0.3,1.5-1.1,2.4-1.1,2.4s2,2,2.1,3.3
			c2,1,3.3,2.4,3.3,3.5c-0.1,1.1-1,3.7-1,3.7l0.1,4.4c0,0,5.1,1.8,5.9,3.3s4.7,2.6,4,4c-0.6,1.3-0.4,2.7-0.4,2.7s1.3,0,1.6,1.4
			c0.3,1.4-1.2,2.4-1.2,2.4s1.1,0.2,1.3,1.6c0.1,1.4-1.9,3.5-1.9,3.5s1.1,2.5,0.9,3.3c-0.2,0.8-2.1,1.7-2.1,1.7l-0.2,3.3
			c0,0,1.9,0.7,1.6,2s-1.4,2.9-1.4,2.9s1.2,1.6,0.9,2.6c-0.4,1.1,1.5,1.8,1.1,2.7s-1.7,3.2-3.1,3.3c-1.4,0.1-1.3,2.5-1.3,2.5
			s3,1.5,2.6,2.6c-0.4,1.1,2.5,1.8,2.5,3.2s0.2,6.3-0.9,5.8s1,3.3,1.3,3.4c0.2,0.2,4.3,4.1,2.3,6s-1.2,4.5-1.2,4.5s-1.8,1.7-2.9,0.9
			c-1.1-0.8-1,4.1-1,4.1s3.4-0.3,3.4,1.1c0,1.4-1.5,3.8-1.5,3.8s3.3,2.2,2.4,3c-0.9,0.8-3.3,0.9-3.3,1.4c-0.1,0.5-1.1,1.8-1.1,1.8
			s2.6,2.4,1.3,3.3c-1.2,0.9-3.2,5.5-3.2,5.5s-1.9,2.1-3.6,1.9s-0.9,2.5-2.8,2.3c-1.9-0.2-4.6-0.3-4.4,1c0.2,1.2,2.2,3.7,0.3,3.7
			s-4.7,2-4.7,2s-1.1,3-3.6,2c-2.6-1-5-3.4-5-3.4s-3.6,0.5-3.6,2.4s-2.3,2.9-5.5,3.4c-3.3,0.5-2,2.2-2,2.2s1.3,4.2-0.1,4.3
			c-1.4,0.1-3.1,1.4-3.6,0.4c-0.5-1.1-2.3-1.1-2.3,0s-0.6,2.1-1.3,2.2c-0.7,0.1,0.4,3.2-1.8,2.6c-2.2-0.6-2.9-1.6-2.9-1.6
			s1.2,1.6-1.1,1.1c-2.3-0.4-1.9,1.2-4.3,0.9s-1.2-3-2.7-3.1c-1.5-0.1-1.6-2.4-2.5-2c-0.9,0.4-1.2,2.6-2.7,1.9s-2.7-2.5-2.7-2.5
			s-3.1,1.1-3.3-0.3s-0.4-3.4-0.6-3.4s-4.1-1-4.1-1s-1.1-1.8-0.8-3.1c0.4-1.2-0.6-3.3-1.6-3.2c-1,0.1-2,1.1-2.8,0.4
			c-0.8-0.8-0.6-2.9-0.6-2.9s-2.4-1.5-3-1c-0.6,0.5,0.6,3.3-1.6,4.5c-2.2,1.2-5.5-2.8-5.5-2.8s-2.6,1.7-3.2,1
			c-0.5-0.7,3.4,4.1,1.4,4.9c-2,0.8,1.8,4.3-1.3,3.9s-3,1.8-3,1.8s-2.2,1.4-2.9,0.2s-1,2.2-2.4,2.8c-1.4,0.6-5.8-0.1-6.4-1.9
			c-2.1,0-4.8,0.4-5.2-1.7c-0.4-2,0.1-4.9,0.1-4.9s-3.4,0.8-3.3-0.2c0.2-1,0.8,2.2-1.1,2.5c-1.9,0.3-2.8-0.9-2.8-0.9
			s-0.1,1.4-1.7,1.5c-1.6,0.1-2.3-1.5-2.3-1.5s-0.7,1.9-1.9,1.9c-1.2,0-2.1-2.5-2.1-2.5s-6.2-0.5-6.5-2.1c-0.4-1.6-0.3-2.6-0.3-2.6
			s-5.6,1.1-6-1.4c-0.4-2.5-0.3-3.8-0.3-3.8s-3.4-0.3-3.3-1.8c0.1-1.6,1.3-3.3,1.3-3.3s-1.1-0.4-1.1-1.4s2.3-2.6,2.3-2.6
			s0.3-1.8-1.2-1.8c-1.5,0-4.2-2.8-4.1-3.1c0.1-0.3-0.4-3.4-3.2-2.6c-2.8,0.9-2.7-3.3-2.7-3.3s-2.5-2.1-2.2-3.3
			c0.3-1.2,1.4-1.9,1.4-1.9s-2.9-1.1-2.2-2.1s3-2.6,3-2.6s-3.2-2.8-3.1-4c0.1-1.1-1.5-0.6-1.8-1.2c-0.3-0.6-0.5-2.6-0.5-2.6
			s-2-1.4-1.1-2.4c0.9-1,2.3-2.2,2.3-2.2s-4.8-1-4.8-2.4c0-1.4,1.6-3,1.6-3s1.1-1.1,0.1-2.6c-1-1.5-1.1-3.8-1.1-3.8
			s-2.3-1.4-1.9-3.3c0.4-1.9,3.9-2.2,3.9-2.2s1-1.4,0.4-2.6c-0.5-1.1-2.2-2.9-1.8-4s0.9-2,0.9-2s-2.1-2.3-1.6-3.9
			c0.5-1.6,4.6-1.8,4.6-1.8s3.8-0.7,2.5-2.4c-1.3-1.7-1.3-3.2,0-4.2c1.3-1.1-1.6-3-1.6-3s0.5-2.1-0.4-2.9c-1-0.8,0.8-2.5,0.8-2.5
			s-1.1-1.1-0.8-1.8C68.2,96.8,71.1,94.5,71.1,94.5z"/>
		<path id="XMLID_197_" class="st6" d="M113.5,67.5c1.7-2.7,4-5.8,7.2-5.8c1.3,0,2.5,0.5,3.8,0.5c4.3-0.1,6.7-5.6,10.9-6.5
			c1.9-0.4,4.1,0.3,5.9-0.6c2.5-1.2,3.8-4.9,6.5-4.7c3.2,0.2,3.7,5.5,6.9,6.4c2.3,0.6,7.1,13.6,8.2,11.5s2.9-4.5,5.2-4
			c2.5,0.5,3.3,3.9,5.5,5.2c3.2,1.8,7.9-1.6,10.7,0.9c1.2,1.1,1.4,2.9,1.9,4.4c0.9,3,3.3,5.8,6.5,6c2,0.1,4.4-0.8,6,0.4
			c2,1.5,1.2,5,2.8,6.9c1.8,2.2,6,1.6,7.1,4.2c0.9,2.1-1,4.3-1.3,6.6c-0.5,4.3,4.9,7.8,3.8,12c-0.5,1.8-2,3-2.8,4.7
			c-1.7,3.4,0,7.4,0.5,11.2c0.1,0.8,0.1,1.8-0.5,2.4c-1,1,2.9,11.5,1.6,12c-1.2,0.4-1.9,1.8-2.2,3c-0.5,2.2-0.3,4.6,0.5,6.7
			c0.9,2.2,2.4,4,3.1,6.2c0.7,2.2,0.1,5.2-2.1,6c-2.3,0.8-4.9-1.2-7.3-0.5c-3.1,0.9-3.3,5.1-2.8,8.3c0.1,0.4,0.1,0.8,0.4,1.1
			c0.5,0.5,1.4,0.3,2.1,0.2c2.4-0.2,4.4,2.7,3.5,5s-3.8,3.3-6.1,2.5c-0.7-0.3-1.3-0.7-2-0.7c-2.1-0.2-3.3,2.4-3.7,4.5
			c-0.4,2.1-1.3,4.7-3.4,4.9c-3,0.2-3.9-4.6-6.7-5.3c-2.1-0.6-4,1.2-5.5,2.8s-3.8,3.1-5.7,2c-0.9-0.5-1.4-1.5-2-2.4
			c-1.9-2.8-5.8-4.5-8.7-2.7c-1.8,1.1-12.2-0.7-14.3-0.5c-2.4,0.2-14.2,9.5-15.3,7.4s-3.2-4.4-5.4-3.5c-0.7,0.3-1.2,0.9-1.9,1.2
			c-2,0.9-4.3-0.8-5.1-2.8c-0.9-2-0.8-4.3-1.4-6.3c-0.6-2.1-2.4-4.2-4.5-4c-0.9,0.1-1.8,0.6-2.6,1.1c-3.3,1.8-6.9,2.7-10.6,2.7
			c-2.6,0-5.5-0.7-6.7-3c-1.7-3.5,1.6-8.9-1.6-11.2c-2-1.4-4.8,0.2-5.9,2.3c-0.7,1.4-1.2,3.3-2.7,3.8c-1.2,0.4-2.5-0.4-3.1-1.5
			c-0.6-1.1-0.7-2.3-0.8-3.6c-0.2-2.8-0.3-5.7,1-8.2c1.8-3.5,6-5.3,7.8-8.8c1.6-3,1-7-1.4-9.5c-0.8-0.8-1.8-1.5-2.3-2.5
			c-1.2-2.2,0.3-5,2.5-6.1c2.2-1.1,4.8-1,7.2-0.9c1.2-2.5,16.4-24.4,15.1-26.8C108.7,101,97.7,90.8,97,89.8
			c-1.1-1.7,2.6-19.8,4-21.2c1.4-1.4,3.6-1.9,5.5-1.2c1.2,0.4,2.1,1.3,3.3,1.7s2.8,0,3.1-1.2"/>
	</g>
	<g id="layout2">
		<path id="XMLID_173_" class="st7" d="M101.8,163.8c0,0-3.4,1.6-3.8,0.1c-0.4-1.5,0.5-3.7,0.5-3.7s-2.5,0-2-1
			c0.5-1-3.4-0.5-3.4-0.5s-2.3-0.5-1.4-1.7s2-2.6,2-2.6s-0.2-1.4,0.4-2.4c0.7-1,0.4-4.1,1.3-5c0.9-0.9,2.4-2.8,2.4-2.8
			s-2.4,0.2-2.1-1c-1-0.5-3.6-0.4-3.1-3.3c0.5-2.8-4.3-3.2-4.3-3.2s1.5-1-0.8-2.3c-2.3-1.3-6.1-1.7-6.1-1.7s-3.4-0.6-4.2-2
			c-0.8-1.4,0.6-2.8,0.6-2.8s-1.5-0.2-1.4-1.4c0.2-1.2,1.7-2.3,1.7-2.3s-3-1.1-1.8-3.5s6.9-3.4,6.9-3.4s-0.5-0.7-0.1-3.1
			s2.1-2.5,2.1-2.5s-0.9-1.3,0.1-2.3c1-1,2.9-1,2.9-1s-1.2,0.4,0.2-1.5c1.4-2,2.6-1.2,2.6-1.2s0-2.5-0.8-3.3
			c-0.8-0.8-1.7-1.9-1.2-2.9c0.5-1.1,1.9-1.7,1.9-1.7s0.1-1.7,1-2.3c0.9-0.6,2.4-0.7,2.4-0.7s-1.8-0.2-2.1-1.7
			c-0.3-1.6,2.4-2.8,2.4-2.8s-2.8-0.3-2.5-1.2c0.3-0.9,1-2,1-2s0.2-2.1,1-2.2s-2.1-0.7-1.3-2c0.8-1.3,3.1-1.9,3.1-1.9
			s-2.4-1.1-1.2-2.1c1.1-1,2.7-0.6,2.7-0.6s-0.2-1.3,1.2-1.7c1.4-0.4,2,0.1,2,0.1s-0.3-2.3,1.3-2.6c1.6-0.3,2.5,0.6,2.5,0.6
			s0.5-0.9,1.5-1.3c1-0.4,1.3,0.1,1.3,0.1s-0.9-1.1,0.1-1.9s1.6-0.6,1.6-0.6s0.8-1.5,1.5-1.5s2.1,0.7,2.1,0.7s1-1.2,2.1-0.4
			c1.1,0.8,1.3,2.1,1.3,2.1s1.5-1.3,2.4-0.4s0.2-3.1,0.2-3.1s-1-1.5-0.3-2.1s2.3,1.1,2.3,1.1s0.5-1,1.1-0.4c0.7,0.6-1.6-1.2-0.4-1.9
			s2.5-1.5,3.1-0.6c0.6,0.9,2-0.4,2-0.4s-1.6-1.9,0.7-2.5c2.2-0.6,2.4,0.9,2.4,0.9s1.9-1.6,3-1.3c1.1,0.3,1.3,1.5,1.3,1.5
			s2-0.7,2.9-0.3c1.3-1.1,2.7-1.5,3.4-1.1c0.7,0.4,2.2,1.9,2.2,1.9l3,1.4c0,0,2.9-2.9,4.1-2.9c1.3,0,3.3-2.3,4-1.4s1.7,1.2,1.7,1.2
			s0.4-0.9,1.5-0.6c1,0.3,1.2,1.6,1.2,1.6s0.5-0.7,1.5-0.3c1,0.4,1.8,2.4,1.8,2.4s2,0.1,2.5,0.5c0.5,0.4,0.4,2,0.4,2l2.2,1.2
			c0,0,1.1-1.1,1.9-0.4s1.5,1.9,1.5,1.9s1.5-0.3,2.1,0.3c0.6,0.6,1.7-0.4,2.2,0.1c0.5,0.6,1.6,2.2,1.2,3.1s1.2,1.7,1.2,1.7
			s2-1.5,2.6-0.9c0.7,0.6,2.1-1.1,2.9-0.6s4.3,1.9,3.6,2.5s2.5,0.4,2.7,0.3s4.2-1.5,4.8,0.4c0.6,1.9,2.6,2.3,2.6,2.3
			s0.5,1.8-0.4,2.3c-0.9,0.5,2.5,2,2.5,2s0.9-2.4,1.9-1.9c1,0.5,2.1,2.2,2.1,2.2s2.5-1.5,2.8-0.6c0.2,0.9-0.5,2.5-0.1,2.7
			c0.3,0.2,0.8,1.3,0.8,1.3s2.4-0.9,2.6,0.2c0.2,1.1,2.7,3.9,2.7,3.9s0.8,2,0.1,3.1s1.4,1.4,0.6,2.7c-0.8,1.3-1.7,3-0.8,3.3
			c0.9,0.3,3.2-0.3,2.6,1c-0.6,1.3-0.2,3.8-0.2,3.8s1.7,1.7,0.2,3.1c-1.5,1.4-4,2.3-4,2.3s-0.8,2.6,0.4,3.2c1.2,0.6,1.2,2.5,0.5,4.9
			c-0.7,2.4,0.8,2.1,0.8,2.1s3.3,0.5,2.9,1.5c-0.4,1-0.1,2.5-0.9,2.6c-0.9,0-1.5,1.2-0.7,1.5c0.7,0.3,1.2,1.1,1.1,1.6
			c-0.2,0.5,2.3,0.8,1.1,2.1c-1.1,1.3-2,1.4-2,1.4s1.5-0.3,0.4,1.1c-1,1.4,0.2,1.7-0.8,3.2c-1,1.5-2.4-0.1-3,0.8
			c-0.5,1-2.1,0.3-2.2,1c0,0.7,1.3,1.7,0.4,2.5c-0.9,0.8,2.1,0.9,2.1,0.9s-0.3,2.4-1.3,2.2s-2.4-0.9-2.5-0.7c-0.1,0.2-2,2.5-2,2.5
			s-1.6,0.2-2.3-0.5c-0.7-0.6-2.4-0.6-2.7,0c-0.3,0.7,0.1,1.7-0.7,2c-0.8,0.3-2.2-0.5-2.2-0.5s-1.8,1.1-1.6,1.7s2.4,0.6,2.5,2.5
			c0.1,1.9-3.7,2.8-3.7,2.8s0.3,2.3-0.4,2.5c-0.6,0.1,3.9-1,3.8,0.7c-0.1,1.6,3.5,0.2,2.2,2.2s0.2,2.6,0.2,2.6s-1.5,1.7-2.6,1.8
			c-1.1,0.1-1.8,1.7-1.8,2.9s-2,3.9-3.4,3.7c-0.7,1.4-1.3,3.4-2.8,3c-1.5-0.4-3.3-1.7-3.3-1.7s-0.6,2.6-1.2,2.1
			c-0.6-0.4,1.7,0.2,1.3,1.6c-0.5,1.4-1.5,1.6-1.5,1.6s0.9,0.5,0.5,1.6c-0.5,1.1-1.8,1.1-1.8,1.1s1.1,1.1,0.7,1.9
			c-0.4,0.8-2.4,0.6-2.4,0.6s-2.4,4-3.6,3.7c-1.2-0.3-1.9-0.7-1.9-0.7s-1.1,4.2-2.9,3.6c-1.8-0.6-2.6-1.1-2.6-1.1s-1.3,2.2-2.3,1.7
			s-1.8-2-1.8-2s-0.6,0.6-1.3,0.3s-1-2.4-1-2.4s-1.2-0.8-1.7,0.2c-0.5,1-3.3,1.9-3.4,1.8c-0.1-0.1-2.4-0.9-2.8,1.3
			c-0.3,2.2-3.2,0.8-3.2,0.8s-2.2,1-3,0.4c-0.7-0.6-0.8-1.6-0.8-1.6s-1.7,1.6-2.2,0.8s-0.8-2.9-0.8-2.9s-3,1.3-3.7,0.8
			c-0.7-0.5-0.9,0.8-1.4,0.8c-0.5,0-1.9-0.5-1.9-0.5s-1.6,0.9-2,0c-0.4-0.9-0.7-2.3-0.7-2.3s-2.2,2.9-3.2,2.4c-1-0.5-1.5-2-1.5-2
			s-0.4-1.1-1.8-0.9c-1.3,0.2-2.9-0.5-2.9-0.5s-1.7,1.1-2.9,0.2c-1.2-0.9-0.2-3.3-0.2-3.3s-0.6-1.1-1.6-1.1c-0.9,0-2.7,0.5-3.3-0.1
			c-0.6-0.7-1.1-1.3-1.1-1.3s-2.2,0.7-3.1-0.2c-0.9-0.9,0.2-3.7,0.2-3.7s0.8-2.8-0.8-2.4c-1.6,0.3-2.6-0.1-2.9-1.4s-2.5,0.1-2.5,0.1
			s-1.3-1-2.1-0.7c-0.9,0.4-1.4-1.3-1.4-1.3s-1.1,0.4-1.4,0C102.4,166.5,101.8,163.8,101.8,163.8z"/>
		<path id="XMLID_132_" class="st8" d="M103.4,162.3c0,0-3.3,1.5-3.7,0.1c-0.4-1.5,0.5-3.6,0.5-3.6s-2.4,0-1.9-0.9
			c0.4-0.9,1-2.1,1-2.1s-2.2-0.5-1.3-1.6c0.8-1.1,1.9-2.5,1.9-2.5s-0.2-1.4,0.4-2.3c0.6-1,0.4-3.9,1.2-4.8c0.8-0.9,2.3-2.7,2.3-2.7
			s-2.3,0.1-2.1-1c-0.9-0.4-3.5-0.4-3-3.1s-4.1-3.1-4.1-3.1s-2.8,0.6-5.1-0.6c-2.2-1.2-1.6-3.2-1.6-3.2s-3.3-0.6-4-1.9
			c-0.8-1.4,0.6-2.7,0.6-2.7s-1.5-0.2-1.3-1.3c0.2-1.2,1.6-2.2,1.6-2.2s-2.9-1.1-1.8-3.4c1.1-2.3,2.4-1.7,2.4-1.7s-0.5-0.7-0.1-3
			c0.4-2.3,2-2.4,2-2.4s-0.9-1.3,0-2.2c0.9-1,2.8-0.9,2.8-0.9s-1.2,0.4,0.2-1.5c1.3-1.9,2.5-1.2,2.5-1.2s0-2.4-0.7-3.2
			c-0.8-0.8-1.7-1.8-1.2-2.8s1.8-1.7,1.8-1.7s0.1-1.7,0.9-2.2c0.8-0.6,2.3-0.7,2.3-0.7s-1.8-0.1-2-1.7c-0.2-1.5,2.3-2.7,2.3-2.7
			s-2.7-0.3-2.4-1.2c0.3-0.9,0.9-1.9,0.9-1.9s0.2-2,0.9-2.1c0.8,0-2-0.7-1.3-1.9c0.7-1.2,3-1.8,3-1.8s-2.3-1-1.2-2
			c1.1-1,2.6-0.6,2.6-0.6s-0.2-1.2,1.2-1.6c1.4-0.4,1.9,0.1,1.9,0.1s-0.3-2.2,1.3-2.5c1.5-0.2,2.5,0.6,2.5,0.6s0.5-0.8,1.4-1.2
			s1.3,0.1,1.3,0.1s-0.8-1,0.1-1.8c0.9-0.8,1.6-0.6,1.6-0.6s0.8-1.5,1.5-1.5c0.7,0,2.1,0.7,2.1,0.7s1-1.2,2-0.4c1.1,0.7,1.3,2,1.3,2
			s2.1-0.1,3,0.8c0.9,0.9-0.5-4.2-0.5-4.2s-1-1.5-0.3-2c0.7-0.6,2.2,1.1,2.2,1.1s0.4-0.9,1.1-0.4c0.7,0.5-1.6-1.2-0.4-1.9
			c1.2-0.7,2.4-1.4,3-0.6s1.9-0.4,1.9-0.4s-1.5-1.9,0.6-2.4c2.2-0.6,2.3,0.8,2.3,0.8s1.8-1.5,2.9-1.2s1.2,1.4,1.2,1.4s2-0.7,2.8-0.3
			c1.3-1,2.6-1.4,3.3-1c0.7,0.4,2.1,1.8,2.1,1.8l2.9,1.3c0,0,2.7-2.8,4-2.8s3.2-2.2,3.8-1.4s1.6,1.1,1.6,1.1s0.4-0.9,1.4-0.6
			s1.2,1.5,1.2,1.5s0.5-0.7,1.4-0.3c1,0.3,1.7,2.3,1.7,2.3s1.9,0.1,2.4,0.5s0.4,1.9,0.4,1.9l2.1,1.2c0,0,1.1-1,1.8-0.4
			c0.7,0.6,1.4,1.8,1.4,1.8s1.4-0.3,2,0.3c0.6,0.6,1.6-0.4,2.1,0.1c0.5,0.5,1.5,2.1,1.2,3c-0.4,0.9,1.2,1.6,1.2,1.6s1.9-1.5,2.5-0.9
			c0.6,0.6,2-1,2.8-0.6c0.9,0.4,4.1,1.8,3.5,2.4c-0.6,0.5,2.4,0.3,2.6,0.3c0.2-0.1,4-1.5,4.6,0.4c0.6,1.8,2.5,2.2,2.5,2.2
			s0.5,1.7-0.3,2.2s2.4,1.9,2.4,1.9s0.9-2.3,1.8-1.9c0.9,0.4,2,2.2,2,2.2s2.5-1.4,2.7-0.6c0.2,0.8-0.5,2.4-0.1,2.6
			c0.3,0.2,0.8,1.3,0.8,1.3s2.3-0.9,2.5,0.2s2.6,3.8,2.6,3.8s0.8,1.9,0.1,3c-0.6,1,1.3,1.3,0.6,2.6s-1.6,2.9-0.8,3.2
			c0.9,0.3,3.1-0.3,2.5,1s-0.1,3.7-0.1,3.7s1.6,1.6,0.2,3s-3.8,2.2-3.8,2.2s-0.8,2.5,0.4,3.1c1.2,0.6,1.2,2.4,0.5,4.7
			c-0.7,2.3,0.8,2,0.8,2s3.2,0.5,2.8,1.4c-0.4,0.9-0.1,2.4-0.9,2.5c-0.9,0-1.4,1.2-0.7,1.5c0.7,0.3,1.2,1.1,1,1.6s2.2,0.8,1.1,2
			c-1.1,1.2-1.9,1.4-1.9,1.4s1.4-0.3,0.4,1c-1,1.4,0.2,1.6-0.8,3.1s-2.3-0.1-2.9,0.8s-2,0.3-2.1,1c0,0.7,1.3,1.6,0.4,2.4
			c-0.9,0.8-2.5,1-2.5,1s-0.3,2.3-1.2,2.1c-0.9-0.2-2.3-0.8-2.4-0.7c-0.1,0.2-1.9,2.4-1.9,2.4s-1.6,0.2-2.3-0.5
			c-0.7-0.6-2.3-0.6-2.6,0c-0.2,0.7,0.1,1.7-0.7,1.9s-2.1-0.5-2.1-0.5s-1.7,1.1-1.6,1.6s2.3,0.6,2.4,2.4c0.1,1.8-3.6,2.7-3.6,2.7
			s0.3,2.2-0.4,2.4c-0.6,0.1,3.8-0.9,3.7,0.6c-0.1,1.6,3.4,0.2,2.1,2.1c-1.3,1.9,0.2,2.5,0.2,2.5s0.2,1.9-0.8,1.9
			c-1,0.1,1.1,1.3,1.1,2.4c0,1.1-1.9,3.8-3.3,3.6c-0.7,1.4-1.3,3.3-2.7,2.9c-1.4-0.4-3.2-1.6-3.2-1.6s-0.6,2.5-1.1,2.1
			s1.7,0.2,1.2,1.5c-0.4,1.3-1.5,1.6-1.5,1.6s0.9,0.5,0.4,1.6s-1.7,1-1.7,1s1,1.1,0.7,1.9c-0.4,0.8-2.3,0.6-2.3,0.6
			s-2.3,3.8-3.4,3.6s-1.8-0.7-1.8-0.7s-1.1,4-2.8,3.5c-1.7-0.5-2.5-1-2.5-1s-1.3,2.2-2.3,1.6c-1-0.6-1.7-1.9-1.7-1.9
			s-0.6,0.6-1.2,0.2c-0.7-0.3-1-2.3-1-2.3s-1.1-0.8-1.6,0.2c-0.5,1-3.2,1.9-3.3,1.7c-0.1-0.1-2.3-0.8-2.7,1.3c-0.3,2.1-3,0.7-3,0.7
			s-2.1,0.9-2.9,0.4c-0.7-0.6-0.8-1.5-0.8-1.5s-1.6,1.5-2.1,0.8c-0.5-0.8-0.8-2.8-0.8-2.8s-2.9,1.2-3.6,0.8s-0.9,0.8-1.4,0.8
			c-0.5,0-1.8-0.5-1.8-0.5s-1.6,0.9-1.9,0c-0.4-0.9-0.7-2.2-0.7-2.2s-2.1,2.8-3,2.3c-0.9-0.4-1.4-2-1.4-2s-0.4-1-1.7-0.9
			c-1.3,0.2-2.8-0.5-2.8-0.5s-1.6,1-2.8,0.2c-1.1-0.8-0.2-3.2-0.2-3.2s-0.6-1.1-1.5-1.1c-0.9,0-2.6,0.5-3.2-0.1
			c-0.6-0.6-1-1.2-1-1.2s-2.2,0.7-3-0.2c-0.9-0.8,0.2-3.6,0.2-3.6s0.7-2.7-0.8-2.4c-1.5,0.3-2.5-0.1-2.7-1.3
			c-0.3-1.2-2.4,0.1-2.4,0.1s-1.2-1-2-0.6s-1.4-1.3-1.4-1.3s-1,0.4-1.4,0C104,164.9,103.4,162.3,103.4,162.3z"/>
		<path id="XMLID_131_" class="st6" d="M120.9,153.3c-2.5-1-5.4-2.3-6-5c-0.2-1.1,0-2.2-0.3-3.2c-0.8-3.5-5.7-4.6-7.2-7.9
			c-0.6-1.5-0.5-3.4-1.4-4.7c-1.4-1.9-4.7-2.3-5-4.6c-0.4-2.7,3.9-4,4.1-6.7c0.1-2-2-3.3-3.8-4.1c-1.8-0.9-3.8-2.3-3.5-4.3
			c0.4-2.1,3.2-2.8,4.2-4.7c1.4-2.7-1.5-6.6,0.5-9c0.9-1,2.4-1.2,3.7-1.7c2.5-0.8,4.8-2.9,4.9-5.6c0.1-1.7-0.8-3.6,0.2-5
			c1.2-1.7,4.1-1.1,5.7-2.5c1.8-1.6,1.2-5,3.3-6.1c1.7-0.8,3.7,0.7,5.6,0.9c3.6,0.3,6.4-4.3,10-3.4c1.5,0.3,2.6,1.6,4,2.3
			c2.9,1.3,6.2-0.2,9.4-0.7c0.7-0.1,1.5-0.1,2,0.3c0.9,0.8,0.4,2.3,0.8,3.4c0.4,1,1.5,1.5,2.6,1.7c1.9,0.4,3.9,0.2,5.6-0.6
			c1.8-0.8,3.3-2.1,5.1-2.8s4.3-0.2,5,1.6c0.8,1.9-0.9,4.1-0.3,6.1c0.8,2.6,4.4,2.6,7,2.2c0.3-0.1,0.7-0.1,0.9-0.4
			c0.4-0.5,0.2-1.2,0.1-1.8c-0.2-2,2.2-3.7,4.1-3.1c1.9,0.7,2.9,3.1,2.2,5c-0.2,0.6-0.5,1.1-0.6,1.7c-0.1,1.8,2.1,2.7,3.9,3
			c1.8,0.3,4,0.9,4.2,2.7c0.2,2.5-3.7,3.3-4.3,5.8c-0.4,1.8,1.1,3.3,2.5,4.5c1.3,1.2,2.7,3.1,1.8,4.7c-0.4,0.8-1.3,1.2-2,1.7
			c-2.3,1.6-3.6,5-2.1,7.4c1,1.5,2.9,2.4,3.1,4.2c0.2,2-1.9,3.3-3.6,4.3s-3.6,2.8-2.8,4.6c0.3,0.6,0.7,1,1,1.6
			c0.8,1.6-0.5,3.6-2.2,4.4c-1.7,0.8-3.6,0.8-5.3,1.4c-1.7,0.6-3.4,2.1-3.2,3.9c0.1,0.8,0.5,1.5,0.9,2.2c1.6,2.7,2.4,5.8,2.5,8.9
			c0.1,2.2-0.4,4.6-2.3,5.7c-2.9,1.5-7.5-1.2-9.3,1.6c-1.1,1.7,0.2,4,2.1,4.9c1.2,0.6,2.8,0.9,3.3,2.2c0.3,1-0.3,2.1-1.2,2.6
			c-0.9,0.6-1.9,0.7-3,0.8c-2.3,0.2-4.8,0.4-6.9-0.6c-3-1.4-4.6-4.9-7.6-6.3c-2.6-1.3-5.9-0.7-7.9,1.4c-0.7,0.7-1.2,1.5-2,2
			c-1.8,1-4.2-0.2-5.2-2c-1-1.8-1-4-0.9-6c-2.1-1-4.7-1.9-6.7-0.7c-0.9,0.5-1.5,1.4-2.4,2c-1.4,1-3.3,1-4.7,0.1s-2.2-2.7-1.9-4.3
			c0.2-1,0.7-2,0.8-3s-0.5-2.3-1.5-2.3"/>
	</g>
	<g id="layout">
		<path id="XMLID_193_" class="st9" d="M111.4,121.7c0,0-1.9-0.3-1.6-1.1c0.3-0.8,1.3-1.4,1.3-1.4s-1-0.7-0.6-1s1-0.6,1-0.6
			s-0.8-0.8-0.1-1.1c0.7-0.2,1.5-0.5,1.5-0.5s0.3-0.7,0.9-0.9c0.6-0.2,1.3-1.6,1.9-1.7c0.6-0.1,1.8-0.5,1.8-0.5s-1-0.6-0.6-1
			c-0.3-0.5-1.4-1.2-0.4-2.2c1-1-0.9-2.6-0.9-2.6s-1.4-0.6-2-1.8s0.3-1.8,0.3-1.8s-1.2-1.2-1.2-2s1-1,1-1s-0.6-0.5-0.2-1
			c0.4-0.5,1.3-0.5,1.3-0.5s-0.9-1.3,0.2-2s1.5,0,1.5,0s0-0.4,0.8-1.3c0.9-0.9,1.6-0.4,1.6-0.4s0-0.8,0.7-0.9
			c0.7-0.1,1.5,0.4,1.5,0.4s-0.6-0.2,0.5-0.6c1.1-0.4,1.4,0.2,1.4,0.2s0.7-1,0.6-1.6c-0.1-0.6-0.2-1.3,0.3-1.6s1.3-0.2,1.3-0.2
			s0.5-0.7,1.1-0.7c0.5,0,1.2,0.4,1.2,0.4s-0.7-0.6-0.4-1.3c0.3-0.7,1.8-0.5,1.8-0.5s-1.1-0.9-0.7-1.2c0.4-0.3,1-0.6,1-0.6
			s0.7-0.8,1-0.6c0.4,0.2-0.7-0.9,0-1.2c0.7-0.3,1.8,0.1,1.8,0.1s-0.7-1.1,0.1-1.2c0.8-0.1,1.3,0.5,1.3,0.5s0.3-0.6,1-0.3
			c0.7,0.2,0.8,0.6,0.8,0.6s0.6-1,1.3-0.7s0.9,1,0.9,1s0.4-0.2,1-0.1s0.5,0.4,0.5,0.4s-0.1-0.7,0.6-0.7c0.6,0,0.8,0.2,0.8,0.2
			s0.8-0.4,1.1-0.2s0.7,0.9,0.7,0.9s0.8-0.2,1,0.4s0,1.3,0,1.3s0.9,0.6,1,1.2s1-1.9,1-1.9s0-0.9,0.5-1c0.5,0,0.6,1.1,0.6,1.1
			s0.5-0.3,0.6,0.2c0.1,0.4-0.3-1,0.4-0.9c0.7,0,1.4,0.1,1.4,0.6c0,0.5,0.9,0.4,0.9,0.4s-0.1-1.3,1-0.9s0.8,1,0.8,1s1.2-0.1,1.6,0.3
			s0.1,1,0.1,1s1,0.3,1.3,0.7c0.8-0.1,1.5,0.2,1.7,0.5s0.4,1.4,0.4,1.4l0.9,1.4c0,0,2-0.4,2.5,0s2,0,2.1,0.5s0.4,1,0.4,1
			s0.4-0.2,0.8,0.2c0.3,0.4,0,1,0,1s0.4-0.2,0.7,0.3c0.3,0.4,0,1.5,0,1.5s0.8,0.6,0.9,0.9c0.1,0.3-0.4,0.9-0.4,0.9l0.6,1.1
			c0,0,0.8-0.1,0.9,0.4c0.1,0.5,0.1,1.2,0.1,1.2s0.7,0.3,0.8,0.7s0.8,0.3,0.9,0.7c0.1,0.4,0,1.3-0.4,1.6c-0.4,0.3,0,1.1,0,1.1
			s1.3-0.1,1.4,0.4c0.1,0.4,1.2,0.1,1.4,0.6s1.2,2,0.8,2.1c-0.4,0.1,1,0.9,1.1,0.9s2.2,0.6,1.9,1.5c-0.3,1,0.4,1.7,0.4,1.7
			s-0.3,0.9-0.8,0.8c-0.5-0.1,0.5,1.5,0.5,1.5s1.1-0.7,1.3-0.3c0.3,0.5,0.2,1.5,0.2,1.5s1.5,0.1,1.3,0.5c-0.1,0.4-0.9,0.9-0.8,1.1
			s0,0.8,0,0.8s1.3,0.3,1,0.8c-0.2,0.5,0,2.4,0,2.4s-0.2,1.1-0.8,1.3c-0.6,0.3,0.2,1-0.5,1.3s-1.5,0.8-1.3,1.1s1.4,0.8,0.8,1.2
			s-1.1,1.5-1.1,1.5s0.2,1.2-0.8,1.3c-1,0.2-2.3-0.2-2.3-0.2s-1.1,0.8-0.7,1.5c0.3,0.6-0.2,1.4-1.2,2.2c-1,0.8-0.3,1.1-0.3,1.1
			s1.2,1.1,0.8,1.4s-0.7,1-1.1,0.8c-0.4-0.2-0.9,0.1-0.7,0.4c0.2,0.3,0.2,0.8,0,1c-0.2,0.2,0.7,1-0.1,1.2c-0.8,0.2-1.2,0-1.2,0
			s0.7,0.3-0.1,0.6c-0.8,0.3-0.4,0.8-1.2,1.1c-0.8,0.3-1-0.7-1.5-0.5s-1-0.5-1.2-0.2c-0.2,0.3,0.1,1.1-0.5,1.1
			c-0.6,0.1-1.4-0.3-1.4-0.3s-0.8,0.9-1.1,0.5c-0.3-0.4-0.8-1.1-0.8-1c-0.1,0-1.5,0.5-1.5,0.5s-0.7-0.4-0.8-0.9
			c-0.1-0.5-0.8-1-1.1-0.7s-0.4,0.8-0.9,0.6s-0.7-0.8-0.7-0.8s-1.1,0-1.2,0.2c-0.1,0.3,0.8,1,0.3,1.8c-0.5,0.8-2.3,0.1-2.3,0.1
			s-0.6,1-0.9,0.9c-0.3-0.1,1.9,0.7,1.4,1.4s1.4,1.1,0.3,1.5s-0.7,1.1-0.7,1.1s-0.5,0.9-0.9,0.6s0.1,0.9-0.3,1.4
			c-0.3,0.5-1.9,1.1-2.5,0.6c-0.7,0.4-1.5,1-2,0.4s-0.9-1.6-0.9-1.6s-1,0.9-1.1,0.6c-0.1-0.3,0.7,0.6,0.1,1
			c-0.6,0.4-1.1,0.2-1.1,0.2s0.2,0.5-0.3,0.8c-0.5,0.3-1-0.1-1-0.1s0.1,0.8-0.3,1c-0.4,0.2-1.2-0.4-1.2-0.4s-2.1,1-2.5,0.5
			c-0.4-0.5-0.6-0.8-0.6-0.8s-1.6,1.4-2.2,0.7c-0.6-0.7-0.8-1.2-0.8-1.2s-1.2,0.6-1.4,0c-0.3-0.5-0.2-1.3-0.2-1.3s-0.4,0.1-0.6-0.3
			s0.3-1.3,0.3-1.3s-0.3-0.7-0.7-0.4c-0.5,0.3-1.9-0.1-1.9-0.2c0-0.1-0.8-1.1-1.5-0.2c-0.8,0.8-1.5-0.6-1.5-0.6s-1.2-0.2-1.3-0.7
			c-0.1-0.5,0.1-0.9,0.1-0.9s-1.1,0.2-1.1-0.3s0.5-1.4,0.5-1.4s-1.6-0.3-1.8-0.7s-0.6,0.1-0.8-0.1c-0.2-0.2-0.7-0.7-0.7-0.7
			s-0.9-0.1-0.8-0.6c0.1-0.5,0.3-1.1,0.3-1.1s-1.7,0.6-2,0.1s0-1.3,0-1.3s0.1-0.6-0.5-0.9c-0.6-0.3-1.1-1-1.1-1s-1,0-1.3-0.7
			c-0.2-0.7,0.9-1.4,0.9-1.4s0.1-0.6-0.3-0.9c-0.4-0.3-1.3-0.5-1.3-1c-0.1-0.5-0.1-0.8-0.1-0.8s-1.1-0.4-1.2-1
			c-0.1-0.6,1.2-1.5,1.2-1.5s1.1-0.9,0.4-1.2s-1-0.8-0.8-1.4c0.2-0.6-1.1-0.7-1.1-0.7s-0.2-0.8-0.7-0.9c-0.5-0.1-0.2-1-0.2-1
			s-0.5-0.1-0.6-0.4C110.9,122.9,111.4,121.7,111.4,121.7z"/>
		<path id="XMLID_192_" class="st10" d="M111.7,121.6c0,0-1.8-0.3-1.6-1.1c0.3-0.7,1.2-1.4,1.2-1.4s-1-0.7-0.6-1s1-0.6,1-0.6
			s-0.8-0.8-0.1-1.1c0.7-0.2,1.5-0.5,1.5-0.5s0.3-0.7,0.9-0.9c0.6-0.2,1.3-1.6,1.9-1.7s1.8-0.5,1.8-0.5s-1-0.6-0.6-1
			c-0.3-0.5-1.4-1.2-0.4-2.2s-0.8-2.5-0.8-2.5s-1.4-0.6-2-1.7c-0.6-1.2,0.3-1.8,0.3-1.8s-1.2-1.2-1.1-2c0.1-0.8,1-1,1-1
			s-0.6-0.5-0.2-1c0.4-0.5,1.3-0.5,1.3-0.5s-0.9-1.3,0.2-2c1.1-0.7,1.5,0,1.5,0s0-0.4,0.8-1.3c0.9-0.9,1.6-0.4,1.6-0.4
			s0-0.8,0.7-0.9c0.7-0.1,1.4,0.4,1.4,0.4s-0.6-0.2,0.5-0.6c1.1-0.4,1.4,0.2,1.4,0.2s0.7-1,0.6-1.6c-0.1-0.6-0.2-1.3,0.3-1.5
			c0.5-0.3,1.3-0.2,1.3-0.2s0.5-0.7,1.1-0.7c0.5,0,1.2,0.4,1.2,0.4s-0.7-0.6-0.4-1.3c0.3-0.7,1.8-0.5,1.8-0.5s-1.1-0.9-0.7-1.2
			c0.4-0.3,1-0.6,1-0.6s0.7-0.8,1-0.6c0.3,0.2-0.7-0.9,0-1.2s1.8,0.1,1.8,0.1s-0.7-1.1,0.1-1.2c0.7-0.1,1.3,0.5,1.3,0.5
			s0.3-0.6,1-0.3c0.7,0.2,0.8,0.6,0.8,0.6s0.5-1,1.3-0.7c0.7,0.3,0.9,1,0.9,1s0.4-0.2,1-0.1c0.5,0.1,0.5,0.4,0.5,0.4
			s-0.1-0.7,0.6-0.7c0.6,0,0.8,0.2,0.8,0.2s0.8-0.4,1.1-0.2s0.7,0.9,0.7,0.9s0.8-0.2,1,0.4c0.2,0.6,0,1.2,0,1.2s0.9,0.6,1,1.2
			c0.1,0.7,1-1.9,1-1.9s0-0.9,0.5-1c0.5,0,0.6,1.1,0.6,1.1s0.5-0.3,0.6,0.2c0.1,0.4-0.3-1,0.4-0.9c0.7,0,1.4,0.1,1.4,0.6
			c0,0.5,0.9,0.4,0.9,0.4s-0.1-1.2,1-0.9s0.7,1,0.7,1s1.2-0.1,1.6,0.3c0.4,0.4,0.1,1,0.1,1s1,0.3,1.3,0.7c0.8-0.1,1.5,0.2,1.7,0.5
			s0.4,1.4,0.4,1.4l0.8,1.4c0,0,2-0.4,2.5,0c0.5,0.3,2,0,2,0.5c0,0.5,0.4,1,0.4,1s0.4-0.2,0.8,0.2c0.3,0.4,0,1,0,1s0.4-0.1,0.7,0.3
			c0.3,0.4,0,1.5,0,1.5s0.8,0.6,0.9,0.9s-0.4,0.9-0.4,0.9l0.6,1.1c0,0,0.8-0.1,0.9,0.4c0.1,0.5,0.1,1.2,0.1,1.2s0.7,0.3,0.8,0.7
			c0.1,0.4,0.8,0.3,0.9,0.7c0.1,0.4,0,1.3-0.4,1.6c-0.4,0.3,0,1,0,1s1.2-0.1,1.3,0.4c0.1,0.4,1.1,0.1,1.4,0.6s1.2,2,0.8,2
			c-0.4,0.1,0.9,0.9,1,0.9c0.1,0,2.1,0.5,1.9,1.5c-0.3,1,0.4,1.7,0.4,1.7s-0.3,0.9-0.8,0.8c-0.5-0.1,0.5,1.5,0.5,1.5
			s1.1-0.7,1.3-0.3c0.3,0.5,0.2,1.5,0.2,1.5s1.5,0.1,1.3,0.5c-0.1,0.4-0.9,0.9-0.8,1.1c0.1,0.2,0,0.8,0,0.8s1.3,0.3,1,0.8
			c-0.2,0.5,0,2.4,0,2.4s-0.2,1-0.8,1.3c-0.6,0.3,0.2,1-0.5,1.3c-0.7,0.3-1.5,0.8-1.2,1.1c0.3,0.4,1.4,0.8,0.8,1.1
			c-0.6,0.4-1.1,1.5-1.1,1.5s0.2,1.2-0.8,1.3c-1,0.2-2.3-0.2-2.3-0.2s-1.1,0.8-0.7,1.4c0.3,0.6-0.2,1.4-1.2,2.1s-0.2,1.1-0.2,1.1
			s1.2,1.1,0.8,1.4c-0.4,0.3-0.7,1-1.1,0.8c-0.4-0.2-0.9,0.1-0.7,0.4c0.2,0.3,0.2,0.8,0,1c-0.2,0.2,0.7,1-0.1,1.2s-1.2,0-1.2,0
			s0.7,0.3-0.1,0.6c-0.8,0.3-0.4,0.8-1.2,1.1c-0.8,0.3-1-0.7-1.5-0.5c-0.5,0.2-1-0.5-1.2-0.2s0.1,1.1-0.5,1.1s-1.3-0.3-1.3-0.3
			s-0.8,0.9-1.1,0.5c-0.3-0.4-0.7-1-0.8-1c-0.1,0-1.5,0.5-1.5,0.5s-0.7-0.4-0.8-0.9c-0.1-0.5-0.8-0.9-1.1-0.7s-0.4,0.7-0.8,0.6
			s-0.7-0.8-0.7-0.8s-1,0-1.1,0.2s0.8,0.9,0.3,1.7c-0.5,0.8-2.3,0.1-2.3,0.1s-0.5,1-0.8,0.9c-0.3-0.1,1.9,0.7,1.4,1.3
			c-0.5,0.6,1.4,1.1,0.3,1.5c-1.1,0.4-0.6,1.1-0.6,1.1s-0.5,0.9-0.9,0.6c-0.5-0.3,0.1,0.9-0.2,1.4c-0.3,0.5-1.9,1-2.4,0.6
			c-0.7,0.4-1.5,1-2,0.4s-0.9-1.6-0.9-1.6s-1,0.9-1.1,0.5s0.7,0.6,0.1,1c-0.6,0.4-1.1,0.2-1.1,0.2s0.2,0.5-0.3,0.8
			c-0.5,0.3-1-0.1-1-0.1s0.1,0.8-0.3,1c-0.4,0.2-1.1-0.4-1.1-0.4s-2.1,1-2.5,0.5s-0.6-0.8-0.6-0.8s-1.6,1.4-2.2,0.7
			c-0.6-0.7-0.8-1.2-0.8-1.2s-1.2,0.5-1.4,0c-0.3-0.5-0.2-1.3-0.2-1.3s-0.4,0.1-0.6-0.3c-0.2-0.3,0.3-1.3,0.3-1.3s-0.3-0.6-0.7-0.4
			c-0.5,0.3-1.9-0.1-1.9-0.2c0-0.1-0.7-1-1.5-0.2c-0.7,0.8-1.5-0.6-1.5-0.6s-1.2-0.2-1.3-0.7c-0.1-0.4,0.1-0.9,0.1-0.9
			s-1.1,0.2-1.1-0.3c0-0.5,0.5-1.4,0.5-1.4s-1.6-0.3-1.7-0.7c-0.2-0.4-0.6,0.1-0.8-0.1c-0.2-0.2-0.6-0.7-0.6-0.7s-0.9-0.1-0.8-0.6
			s0.3-1.1,0.3-1.1s-1.7,0.6-2,0.1c-0.3-0.5,0-1.3,0-1.3s0.1-0.6-0.5-0.9c-0.6-0.3-1-1-1-1s-1,0-1.2-0.7c-0.2-0.7,0.8-1.4,0.8-1.4
			s0.1-0.6-0.3-0.9s-1.2-0.5-1.3-1c-0.1-0.5-0.1-0.8-0.1-0.8s-1.1-0.4-1.2-1c-0.1-0.6,1.1-1.4,1.1-1.4s1.1-0.9,0.4-1.2
			c-0.7-0.3-1-0.8-0.8-1.4s-1.1-0.7-1.1-0.7s-0.2-0.8-0.7-0.9c-0.5-0.1-0.2-0.9-0.2-0.9s-0.5-0.1-0.6-0.4
			C111.2,122.9,111.7,121.6,111.7,121.6z"/>
		<path id="XMLID_191_" class="st11" d="M137.4,134.4c-0.7,0.3-1.4-0.1-1.9-0.6c-0.5-0.5-0.8-1.1-1.4-1.6c-0.9-0.7-2.2-0.8-2.8-1.7
			c-0.3-0.5-0.4-1.2-0.8-1.6c-0.6-0.7-1.6-0.7-2.4-1.1c-0.9-0.6-1.2-1.9-0.7-2.9c0.2-0.4,0.5-0.6,0.7-1c0.8-1.2,0.4-3-0.7-4
			c-0.5-0.5-1.2-1-1.2-1.7c-0.1-1.3,2-1.8,2.3-3.1c0.2-0.7-0.2-1.4-0.7-1.9c-0.5-0.5-1.1-0.9-1.6-1.4c-1.2-1.3-1.3-3.6-0.1-4.9
			c0.8-1,2.2-1.5,2.8-2.6c0.6-1.2,0.2-2.7,1-3.7c0.7-0.8,1.9-0.9,2.8-1.4c0.8-0.5,1.4-1.2,2.1-1.8c0.7-0.6,1.8-0.9,2.6-0.3
			c0.4,0.3,0.6,0.9,0.9,1.4c0.8,1.6,2.4,2.8,4.2,3c1,0.1,2,0,3,0.2c1,0.2,2,0.7,2.3,1.7c0.3,1.1-0.5,2.3-0.1,3.3
			c0.2,0.4,0.5,0.6,0.8,0.8c1,0.6,2.1,0.6,3.2,0.6c1.1,0,2.3,0.1,3.2,0.7c0.9,0.6,1.3,2.1,0.5,2.9c-0.4,0.3-0.9,0.5-1.3,0.7
			c-1.4,0.9-1.3,3-0.3,4.3s2.6,1.9,4.1,2.4c1.2,0.4,2.6,1.1,2.8,2.4c0.3,2-2.6,3.5-2.1,5.5c0.2,0.6,0.6,1.2,0.2,1.7
			c-0.1,0.2-0.3,0.3-0.5,0.3c-1,0.3-2,0.2-3.1,0.2c-1,0.1-2.2,0.6-2.3,1.7c-0.1,0.5,0.1,1.1-0.1,1.6c-0.2,0.4-0.6,0.6-0.9,0.7
			c-0.9,0.3-1.9,0-2.8-0.3s-1.9-0.5-2.8-0.2c-0.9,0.3-1.7,1.4-1.2,2.2c0.1,0.3,0.4,0.5,0.5,0.8c0.6,1.1-0.4,2.5-1.6,2.7
			c-1.2,0.2-2.4-0.5-3.3-1.3c-0.9-0.8-1.8-1.7-2.9-2.3"/>
	</g>
</g>
</svg>
