<?xml version="1.0" encoding="utf-8"?>
<!-- Generator: Adobe Illustrator 19.0.0, SVG Export Plug-In . SVG Version: 6.00 Build 0)  -->
<svg version="1.0" id="Calque_8" xmlns="http://www.w3.org/2000/svg" xmlns:xlink="http://www.w3.org/1999/xlink" x="0px" y="0px" width="300px" height="260px"
	 viewBox="0 0 300 260" style="enable-background:new 0 0 300 260;" xml:space="preserve">
<style type="text/css">
	.st0{opacity:0.15;}
	.st1{fill:none;stroke:#64672B;stroke-width:2;stroke-miterlimit:10;}
	.st2{fill:#3A9E47;}
	.st3{opacity:0.35;}
	.st4{fill:#D9E133;}
	.st5{opacity:0.45;fill:#9ECC44;}
	.st6{opacity:0.1;fill:#4A4D20;}
	.st7{opacity:0.5;fill:#D9E133;}
	.st8{fill:none;stroke:#65672C;stroke-width:2;stroke-miterlimit:10;}
</style>
<g id="Calque_6">
	<path id="XMLID_2_" class="st0" d="M253.6,197.8c0,0-35.1-14.6-40.9-11.7c0,0-4.4,3.6-3.7,4.3c0,0,11.7,3.8,13.9,6.3
		c0,0-16.5-1.6-17.7-1c-1.2,0.5-5.6,6.2-5.2,7.4l3.8,2.1c0,0,5.9,3.7-0.1,3.7c-6-0.1-9-0.4-9-0.4l-16.5,15.5l13.6,3l10.7-10.1
		l-3.2,11.5l11.5-0.3c0,0,8.9-11.3,8.5-14.2c0,0,1.6,9.1-1.8,12.4l10-6.3c0,0,4.6-9,3.7-12.3c0,0,2.2,6.9,1.5,8.5
		C232.7,216,251.5,202.9,253.6,197.8z"/>
	<path id="XMLID_11_" class="st1" d="M252.6,196.8c0,0-35.6-16.8-41.4-13.9c0,0-3.8,4.9-3.1,5.6c0,0,11.2,2.5,13.3,4.9
		c0,0-16.5-1.6-17.7-1c-1.2,0.5-5.2,7.4-4.9,8.6l3.5,0.9c0,0,5.9,3.7-0.1,3.7c-6-0.1-9-0.4-9-0.4l-16.5,15.5l13.6,3l10.7-10.1
		l-3.2,11.5l11.5-0.3c0,0,8.9-11.3,8.5-14.2c0,0,1.6,9.1-1.8,12.4l10-6.3c0,0,4.6-9,3.7-12.3c0,0,2.2,6.9,1.5,8.5
		C231.2,212.8,250.5,201.9,252.6,196.8z"/>
	<path id="XMLID_18_" class="st2" d="M252.6,196.8c0,0-35.6-16.8-41.4-13.9c0,0-3.8,4.9-3.1,5.6c0,0,11.2,2.5,13.3,4.9
		c0,0-16.5-1.6-17.7-1c-1.2,0.5-5.2,7.4-4.9,8.6l3.5,0.9c0,0,5.9,3.7-0.1,3.7c-6-0.1-9-0.4-9-0.4l-16.5,15.5l13.6,3l10.7-10.1
		l-3.2,11.5l11.5-0.3c0,0,8.9-11.3,8.5-14.2c0,0,1.6,9.1-1.8,12.4l10-6.3c0,0,4.6-9,3.7-12.3c0,0,2.2,6.9,1.5,8.5
		C231.2,212.8,250.5,201.9,252.6,196.8z"/>
	<g id="XMLID_16_" class="st3">
		<path id="XMLID_17_" class="st4" d="M245.9,193.7c-1.5-0.7-3.3-1.4-5.1-2.2C242.7,192.3,244.4,193.1,245.9,193.7z"/>
		<path id="XMLID_20_" class="st4" d="M239,190.8c0.6,0.2,1.1,0.5,1.7,0.7C240.2,191.2,239.6,191,239,190.8z"/>
		<path id="XMLID_21_" class="st4" d="M215.3,216.4c0.1-0.2,0.2-0.3,0.3-0.5C215.5,216.1,215.4,216.3,215.3,216.4z"/>
		<path id="XMLID_24_" class="st4" d="M216.6,214.2c0.1-0.1,0.2-0.3,0.2-0.4C216.8,213.9,216.7,214.1,216.6,214.2z"/>
		<path id="XMLID_25_" class="st4" d="M237.1,190c0.5,0.2,1,0.4,1.5,0.6C238.2,190.4,237.6,190.2,237.1,190z"/>
		<path id="XMLID_35_" class="st4" d="M215.7,215.7c0.1-0.2,0.3-0.5,0.4-0.7C216,215.3,215.9,215.5,215.7,215.7z"/>
		<path id="XMLID_47_" class="st4" d="M216.2,215c0.1-0.2,0.2-0.4,0.3-0.6C216.4,214.6,216.3,214.8,216.2,215z"/>
		<path id="XMLID_48_" class="st4" d="M221.2,184.1c0.5,0.2,1,0.3,1.6,0.5C222.2,184.4,221.7,184.3,221.2,184.1z"/>
		<path id="XMLID_49_" class="st4" d="M235.2,189.2c0.5,0.2,1,0.4,1.5,0.6C236.2,189.6,235.7,189.4,235.2,189.2z"/>
		<path id="XMLID_50_" class="st4" d="M215.2,190.4c0.4-0.2,0.6-0.4,0.8-0.8c0.3-0.9-0.5-1.8-1.1-2.5c-0.6-0.7-1.1-1.9-0.4-2.6
			c0.3-0.3,0.9-0.4,1.2-0.8c0.2-0.2,0.4-0.5,0.5-0.9c0.5,0.1,1,0.2,1.5,0.3c-2.9-0.7-5.2-0.9-6.3-0.3c0,0-3.8,4.9-3.1,5.6
			C208.1,188.5,211.7,189.3,215.2,190.4z"/>
		<path id="XMLID_51_" class="st4" d="M216.9,213.6c0.1-0.1,0.1-0.3,0.2-0.4C217.1,213.3,217,213.4,216.9,213.6z"/>
		<path id="XMLID_52_" class="st4" d="M219.4,183.6c0.5,0.1,1,0.3,1.5,0.4C220.4,183.9,219.9,183.8,219.4,183.6z"/>
		<path id="XMLID_53_" class="st4" d="M224.8,185.3c1.9,0.7,4,1.4,6,2.2C228.8,186.7,226.8,185.9,224.8,185.3z"/>
		<path id="XMLID_54_" class="st4" d="M233.1,188.4c0.5,0.2,1.1,0.4,1.6,0.6C234.2,188.8,233.7,188.6,233.1,188.4z"/>
		<path id="XMLID_55_" class="st4" d="M230.9,187.5c0.6,0.2,1.2,0.5,1.8,0.7C232.2,188,231.5,187.7,230.9,187.5z"/>
		<path id="XMLID_56_" class="st4" d="M219.2,183.6c-0.5-0.1-1-0.2-1.4-0.4C218.2,183.3,218.7,183.4,219.2,183.6z"/>
		<path id="XMLID_57_" class="st4" d="M229.8,204.6c0-0.1,0-0.1-0.1-0.2C229.8,204.4,229.8,204.5,229.8,204.6z"/>
		<path id="XMLID_58_" class="st4" d="M229.9,204.8c0-0.1,0-0.1-0.1-0.2C229.9,204.7,229.9,204.8,229.9,204.8z"/>
		<path id="XMLID_59_" class="st4" d="M229.7,204.3C229.7,204.3,229.7,204.3,229.7,204.3C229.7,204.3,229.7,204.3,229.7,204.3z"/>
		<path id="XMLID_60_" class="st4" d="M230,205.2c0-0.1,0-0.1-0.1-0.2C230,205,230,205.1,230,205.2z"/>
		<path id="XMLID_61_" class="st4" d="M245.9,193.7c0.3,1.2,0.1,2.3-0.5,3.4c-0.3,0.6-0.8,1.1-1,1.7c-0.4,1.3,0.5,2.5,1.3,3.6
			c0.2,0.2,0.3,0.5,0.5,0.7c3.1-2.4,5.7-4.7,6.4-6.4C252.6,196.8,249.9,195.5,245.9,193.7z"/>
		<path id="XMLID_62_" class="st4" d="M246.2,203.2c-1.4,1.1-2.9,2.1-4.5,3.2C243.3,205.3,244.8,204.2,246.2,203.2z"/>
		<path id="XMLID_63_" class="st4" d="M229.7,204.3c0.1,0.2,0.1,0.5,0.1,0.7C229.8,204.7,229.8,204.5,229.7,204.3z"/>
		<path id="XMLID_64_" class="st4" d="M229.8,205c0,0.2,0,0.5,0,0.8C229.8,205.5,229.8,205.3,229.8,205z"/>
		<path id="XMLID_65_" class="st4" d="M217.9,210.7C217.9,210.7,217.9,210.7,217.9,210.7C217.9,210.7,217.9,210.7,217.9,210.7z"/>
		<path id="XMLID_66_" class="st4" d="M217.9,211c0,0.1,0,0.2,0,0.3C217.9,211.2,217.9,211.1,217.9,211z"/>
		<path id="XMLID_67_" class="st4" d="M217.9,210.5C217.9,210.5,217.9,210.5,217.9,210.5C217.9,210.5,217.9,210.5,217.9,210.5z"/>
		<path id="XMLID_68_" class="st4" d="M229.7,206.8c-0.1,0.3-0.1,0.6-0.2,0.9C229.5,207.4,229.6,207.1,229.7,206.8z"/>
		<path id="XMLID_69_" class="st4" d="M217.9,210.5c0,0.1,0,0.2,0,0.3C217.9,210.7,217.9,210.6,217.9,210.5z"/>
		<path id="XMLID_70_" class="st4" d="M229.8,205.9c0,0.3-0.1,0.6-0.1,0.9C229.7,206.4,229.8,206.2,229.8,205.9z"/>
		<path id="XMLID_71_" class="st4" d="M223,184.7c0.6,0.2,1.2,0.4,1.8,0.6C224.2,185.1,223.5,184.9,223,184.7z"/>
		<path id="XMLID_72_" class="st4" d="M230.5,206.9c0-0.1,0-0.1,0-0.2C230.5,206.8,230.5,206.8,230.5,206.9z"/>
		<path id="XMLID_73_" class="st4" d="M229.2,208.9c-0.1,0.3-0.2,0.7-0.3,1C229,209.5,229.1,209.2,229.2,208.9z"/>
		<path id="XMLID_74_" class="st4" d="M228.4,211c-0.1,0.3-0.3,0.7-0.4,1C228.2,211.7,228.3,211.4,228.4,211z"/>
		<path id="XMLID_75_" class="st4" d="M228.8,209.9c-0.1,0.3-0.2,0.7-0.4,1C228.6,210.6,228.7,210.3,228.8,209.9z"/>
		<path id="XMLID_76_" class="st4" d="M217.7,211.7c0-0.1,0.1-0.2,0.1-0.3C217.8,211.5,217.7,211.6,217.7,211.7z"/>
		<path id="XMLID_77_" class="st4" d="M217.5,212.4c-0.1,0.2-0.2,0.4-0.2,0.6C217.3,212.8,217.4,212.6,217.5,212.4z"/>
		<path id="XMLID_78_" class="st4" d="M217.7,211.9c-0.1,0.2-0.1,0.3-0.2,0.5C217.6,212.2,217.6,212,217.7,211.9z"/>
		<path id="XMLID_79_" class="st4" d="M227.9,212c-0.8,0.1-1.1,1.2-1.7,1.7c-1.4,1.3-3.9-0.3-5.6,0.5c-1.4,0.6-1.8,2.3-2.1,3.8
			c-0.1-0.1-0.3-0.1-0.4-0.1c0,0,0,0,0,0c-0.3,1.9-0.8,3.8-2,4.9l10-6.3c0,0,1-2,2-4.5C228,212,228,212,227.9,212z"/>
		<path id="XMLID_80_" class="st4" d="M229.2,208.8c0.1-0.3,0.2-0.6,0.3-1C229.4,208.2,229.3,208.5,229.2,208.8z"/>
		<path id="XMLID_81_" class="st4" d="M230.9,208.4c0-0.1-0.1-0.2-0.1-0.4C230.8,208.2,230.8,208.3,230.9,208.4z"/>
		<path id="XMLID_82_" class="st4" d="M231,209.2c0-0.1,0-0.2-0.1-0.3C231,209,231,209.1,231,209.2z"/>
		<path id="XMLID_83_" class="st4" d="M240.1,207.4c0.5-0.3,1-0.6,1.4-1C241.1,206.7,240.6,207.1,240.1,207.4z"/>
		<path id="XMLID_84_" class="st4" d="M230.2,205.7c0-0.1,0-0.1,0-0.2C230.1,205.6,230.1,205.6,230.2,205.7z"/>
		<path id="XMLID_85_" class="st4" d="M230.7,207.7c0-0.1,0-0.1-0.1-0.2C230.7,207.6,230.7,207.6,230.7,207.7z"/>
		<path id="XMLID_86_" class="st4" d="M237.5,206.9c-0.6-0.1-1.1-0.1-1.7,0.2c-0.9,0.4-1.4,1.5-2.4,1.9c-0.7,0.3-1.7,0.2-2.4,0.5
			c0,0,0,0,0,0c0.3,1.4,0.4,2.7,0.2,3.3c0,0,4.2-2.4,8.9-5.4C239.3,207.1,238.4,206.9,237.5,206.9z"/>
		<path id="XMLID_87_" class="st4" d="M230.3,206.4c0-0.1,0-0.1,0-0.2C230.3,206.3,230.3,206.3,230.3,206.4z"/>
		<path id="XMLID_88_" class="st4" d="M202.2,201.9c0.1-0.1,0.1-0.2,0.2-0.3c0.3-0.6,0.2-1.3,0.7-1.7c0.3-0.2,0.7-0.2,1-0.2
			c0.6,0,1.2-0.2,1.6-0.6c0.4-0.4,0.6-1.1,0.3-1.6c-0.1-0.2-0.4-0.4-0.5-0.6c-0.4-0.8,0.7-1.7,0.8-2.6c0.1-0.7-0.4-1.3-0.7-1.9
			c3.3,0,10,0.6,13.6,0.9c-4.6-0.4-14.5-1.2-15.4-0.8c-1.2,0.5-5.2,7.4-4.9,8.6L202.2,201.9z"/>
		<path id="XMLID_89_" class="st4" d="M218,191.5c0,0,0.1,0,0.1,0C218.1,191.5,218.1,191.5,218,191.5z"/>
		<path id="XMLID_90_" class="st4" d="M217.1,191.1c0,0,0.1,0,0.1,0C217.2,191.1,217.1,191.1,217.1,191.1z"/>
		<path id="XMLID_91_" class="st4" d="M221,193C221,193,221,193,221,193C221,193,221,193,221,193z"/>
		<path id="XMLID_92_" class="st4" d="M220.4,192.6c0,0,0.1,0,0.1,0.1C220.4,192.6,220.4,192.6,220.4,192.6z"/>
		<path id="XMLID_93_" class="st4" d="M218.9,191.8C218.9,191.8,219,191.9,218.9,191.8C219,191.9,218.9,191.8,218.9,191.8z"/>
		<path id="XMLID_94_" class="st4" d="M221,193.4c0.3,0,0.4,0,0.4,0S221.3,193.4,221,193.4z"/>
		<path id="XMLID_95_" class="st4" d="M219.7,192.2C219.7,192.2,219.7,192.2,219.7,192.2C219.7,192.2,219.7,192.2,219.7,192.2z"/>
		<path id="XMLID_96_" class="st4" d="M212.2,220.9c-2.4-0.1-4.1-3.7-6.5-2.9c-1.1,0.3-1.8,1.5-2.9,1.6c-1.1,0.1-2.4-0.9-3.3-0.3
			c0,0-0.1,0.1-0.1,0.1l1.7-5.8l-3.2,11.5l11.5-0.3c0,0,1.5-1.9,3.3-4.4C212.5,220.5,212.4,220.7,212.2,220.9z"/>
		<path id="XMLID_97_" class="st4" d="M214.3,218c0.1-0.2,0.3-0.4,0.4-0.6C214.6,217.6,214.4,217.8,214.3,218z"/>
		<path id="XMLID_98_" class="st4" d="M213.8,218.8c0.2-0.2,0.3-0.5,0.5-0.7C214.1,218.3,213.9,218.5,213.8,218.8z"/>
		<path id="XMLID_99_" class="st4" d="M219.1,193.2c0.7,0.1,1.3,0.1,1.7,0.2C220.4,193.3,219.8,193.3,219.1,193.2z"/>
		<path id="XMLID_100_" class="st4" d="M213.3,219.5c0.1-0.2,0.3-0.4,0.4-0.5C213.5,219.1,213.4,219.3,213.3,219.5z"/>
		<path id="XMLID_101_" class="st4" d="M191.8,220.5c-1.9,0.2-4.1,1.1-5.4-0.3c-0.7-0.8-0.9-2.1-1.8-2.4c-0.3-0.1-0.6-0.1-0.8-0.3
			c-0.3-0.3-0.2-0.8-0.2-1.2c0.1-0.6,0-1.3-0.1-1.9l4.7-4.4c1.3,0.1,2.4-0.6,3.5-1.2c0.3-0.2,0.7-0.4,0.9-0.7
			c0.6-0.6,0.5-1.6,0.1-2.4l0.5-0.5l-16.5,15.5l13.6,3l10.7-10.1l-7.5,7C193,220.5,192.4,220.4,191.8,220.5z"/>
		<path id="XMLID_102_" class="st4" d="M214.8,217.2c0.1-0.2,0.2-0.3,0.3-0.5C215,216.8,214.9,217,214.8,217.2z"/>
		<path id="XMLID_103_" class="st4" d="M212.8,220.2c0.1-0.2,0.2-0.3,0.4-0.5C213,219.8,212.9,220,212.8,220.2z"/>
	</g>
	<path id="XMLID_12_" class="st5" d="M252.6,196.8c0,0-35.6-16.8-41.4-13.9c0,0-2.7,4.3-2,5c0,0,10,3.1,12.2,5.5
		c0,0-16.5-1.6-17.7-1c-1.2,0.5-4.2,6.8-3.8,8l2.4,1.5c0,0,5.9,3.7-0.1,3.7c-6-0.1-9-0.4-9-0.4l-14.7,15.3l11.8,3.1l10.7-10.1
		l-2.2,10.7l10.6,0.5c0,0,8.9-11.3,8.5-14.2c0,0,3.3,7.4-0.2,10.7l8.3-4.6c0,0,4.6-9,3.7-12.3c0,0,3.2,5.4,2.5,7
		C232.3,211.3,250.5,201.9,252.6,196.8z"/>
	<path id="XMLID_13_" class="st6" d="M239.4,194.1c-2-1.4-4-2.9-6.4-3.5c-1.2-0.3-2.6-0.4-3.7-1c-1.6-0.7-2.9-2.2-4.6-2.3
		c-0.8,0-1.7,0.3-2.5,0.2c-0.9-0.1-1.6-0.7-2.4-1s-2,0-2.1,0.9c-0.1,0.6,0.4,1.2,0.9,1.6c0.5,0.4,1,0.7,1.6,1c1,0.4,2.1,0.4,3,0.9
		c0.9,0.5,1.6,1.8,0.9,2.6c-0.2,0.2-0.5,0.4-0.7,0.6c-0.9,1,0.4,2.9-0.5,3.9c-1.2,1.3-3.7-1-5,0.2c-0.2,0.2-0.4,0.5-0.6,0.8
		c-0.6,0.6-1.6,0.4-2.2-0.1c-0.7-0.4-1.2-1.1-1.8-1.6c-0.8-0.6-1.9-0.8-2.8-0.6c-0.8,0.1-1.6,0.6-1.6,1.4c0,0.7,0.6,1.2,0.9,1.8
		c0.5,0.9,0.2,2.1-0.5,2.8c-0.2,0.2-0.5,0.4-0.6,0.6c-0.4,0.8,0.6,1.7,0.3,2.6c-0.2,0.6-0.9,0.9-1.5,1s-1.3,0-1.9,0.3
		c-0.3,0.2-0.6,0.5-0.9,0.8c-1.6,1.2-3.8,0-5.7,0c-0.6,0-1.3,0.2-1.4,0.8c0,0.3,0.1,0.6,0.1,0.8c0,0.6-0.6,1-1.1,1.1
		c-0.6,0.1-1.1-0.1-1.7-0.2c-1-0.3-2.1-0.4-3.1,0c-1,0.4-1.8,1.4-1.6,2.4c-1.2-0.2-2.4,0.4-3,1.3c-0.6,1-0.6,2.4,0.3,3.2
		c0.8,0.8,2.3,0.9,3.1,0.1c0.6-0.6,0.9-1.5,1.5-2c1-0.7,2.4-0.3,3.4-1c0.4-0.3,0.7-0.9,1.2-1.2c1.1-0.6,2.9,0.5,3.5-0.6
		c0.2-0.3,0.2-0.6,0.3-0.9c0.3-0.9,1.5-1.3,2.3-0.9c0.9,0.4,1.3,1.5,1.1,2.4c-0.1,0.6-0.5,1.3-0.4,1.9c0.2,0.6,0.7,1,1.3,1.1
		c0.6,0.1,1.2-0.1,1.8-0.2c1.1-0.3,2.4-0.7,2.8-1.7c0.3-0.6,0.2-1.4,0.7-1.8c0.5-0.6,1.5-0.5,2.2-1c1.5-1.1,0.1-4.2,1.8-5
		c0.4-0.2,0.8-0.2,1.3-0.2c2.3,0.1,4.6,0.2,6.8,0.2c0.4,0,0.8,0,1.2,0.2c1,0.4,1.5,1.7,1.4,2.8c0,0.2-0.1,0.5,0,0.7
		c0.2,0.4,0.7,0.5,1.2,0.4s0.7-0.5,1-0.9c0.3-0.5,0.7-1.1,0.6-1.7c0-1.6-2-2.9-1.4-4.4c0.5-1.1,2.1-1.1,3-1.9
		c0.4-0.3,0.7-0.8,1.2-1.2c1-0.9,2.6-0.9,3.6,0c1,0.9,1.2,2.5,0.5,3.6c-0.2,0.3-0.4,0.5-0.5,0.9c-0.1,0.5,0.5,1,1,1.1
		c0.5,0.1,1.1-0.2,1.6-0.4c1-0.4,2-1,2.4-2c0.3-1-0.2-2-0.6-3s-0.7-2.1-0.1-3c0.3-0.5,0.9-0.7,1.4-1c0.5-0.3,1-0.6,1.2-1.1
		s-0.2-1.3-0.7-1.3"/>
	<path id="XMLID_15_" class="st7" d="M236.1,197.3c0,0-20.8,4.9-24.9,9.6C211.1,206.9,220.2,197.4,236.1,197.3z"/>
</g>
<g id="Calque_6_-_copie">
	<path id="XMLID_244_" class="st0" d="M267.4,181c0,0-40.7,1.4-44.8-3.7c0,0-2.4-5.1-1.5-5.5c0,0,12.2,1.6,15.2,0.3
		c0,0-15.6-5.6-16.4-6.6c-0.8-1-2.4-8-1.6-8.9l4.4-0.3c0,0,6.9-0.8,1.5-3.4c-5.5-2.5-8.3-3.5-8.3-3.5l-8.3-21l13.6,3.2l5.4,13.7
		l2-11.8l10.3,5.2c0,0,3.2,14.1,1.6,16.5c0,0,5.4-7.5,3.6-12l6.3,10c0,0,0.3,10-1.9,12.7c0,0,4.9-5.3,5-7
		C253.6,158.8,267.8,175.4,267.4,181z"/>
	<path id="XMLID_243_" class="st8" d="M268,179.7c0,0-39.3-0.1-43.4-5.2c0,0-1.3-6.1-0.4-6.4c0,0,11.1,2.6,14.2,1.2
		c0,0-15.6-5.6-16.4-6.6c-0.8-1-1.6-8.9-0.7-9.8l3.5,0.6c0,0,6.9-0.8,1.5-3.4c-5.5-2.5-8.3-3.5-8.3-3.5l-8.3-21l13.6,3.2l5.4,13.7
		l2-11.8l10.3,5.2c0,0,3.2,14.1,1.6,16.5c0,0,5.4-7.5,3.6-12l6.3,10c0,0,0.3,10-1.9,12.7c0,0,4.9-5.3,5-7
		C255.6,156.1,268.4,174.2,268,179.7z"/>
	<path id="XMLID_242_" class="st2" d="M268,179.7c0,0-39.3-0.1-43.4-5.2c0,0-1.3-6.1-0.4-6.4c0,0,11.1,2.6,14.2,1.2
		c0,0-15.6-5.6-16.4-6.6c-0.8-1-1.6-8.9-0.7-9.8l3.5,0.6c0,0,6.9-0.8,1.5-3.4c-5.5-2.5-8.3-3.5-8.3-3.5l-8.3-21l13.6,3.2l5.4,13.7
		l2-11.8l10.3,5.2c0,0,3.2,14.1,1.6,16.5c0,0,5.4-7.5,3.6-12l6.3,10c0,0,0.3,10-1.9,12.7c0,0,4.9-5.3,5-7
		C255.6,156.1,268.4,174.2,268,179.7z"/>
	<g id="XMLID_109_" class="st3">
		<path id="XMLID_172_" class="st4" d="M260.7,179.6c-1.7,0-3.6-0.1-5.6-0.2C257.1,179.5,259,179.5,260.7,179.6z"/>
		<path id="XMLID_171_" class="st4" d="M253.2,179.3c0.6,0,1.2,0.1,1.9,0.1C254.4,179.4,253.8,179.3,253.2,179.3z"/>
		<path id="XMLID_170_" class="st4" d="M242.7,145.9c0,0.2,0,0.4,0.1,0.6C242.8,146.3,242.8,146.1,242.7,145.9z"/>
		<path id="XMLID_169_" class="st4" d="M243,148.5c0,0.2,0,0.3,0,0.5C243,148.8,243,148.7,243,148.5z"/>
		<path id="XMLID_168_" class="st4" d="M251.1,179.2c0.6,0,1.1,0.1,1.7,0.1C252.2,179.3,251.7,179.2,251.1,179.2z"/>
		<path id="XMLID_167_" class="st4" d="M242.8,146.7c0,0.3,0.1,0.5,0.1,0.8C242.9,147.3,242.8,147,242.8,146.7z"/>
		<path id="XMLID_166_" class="st4" d="M242.9,147.6c0,0.2,0,0.4,0,0.7C242.9,148.1,242.9,147.8,242.9,147.6z"/>
		<path id="XMLID_165_" class="st4" d="M234.2,177.6c0.5,0.1,1.1,0.2,1.6,0.2C235.3,177.8,234.7,177.7,234.2,177.6z"/>
		<path id="XMLID_164_" class="st4" d="M249,179.1c0.6,0,1.1,0.1,1.7,0.1C250.1,179.1,249.6,179.1,249,179.1z"/>
		<path id="XMLID_163_" class="st4" d="M231.5,169.4c0.2,0.3,0.4,0.7,0.3,1.1c-0.1,1-1.2,1.4-2.1,1.8c-0.9,0.4-1.8,1.2-1.5,2.1
			c0.2,0.5,0.6,0.8,0.8,1.2c0.1,0.3,0.1,0.6,0,1c0.5,0.1,0.9,0.2,1.5,0.4c-2.9-0.6-5.1-1.4-5.9-2.4c0,0-1.3-6.1-0.4-6.4
			C224.2,168.1,227.8,168.9,231.5,169.4z"/>
		<path id="XMLID_162_" class="st4" d="M243,149.2c0,0.2,0,0.3,0,0.5C243,149.5,243,149.4,243,149.2z"/>
		<path id="XMLID_161_" class="st4" d="M232.4,177.3c0.5,0.1,1,0.2,1.5,0.3C233.4,177.5,232.9,177.4,232.4,177.3z"/>
		<path id="XMLID_160_" class="st4" d="M238,178.1c2,0.2,4.2,0.4,6.4,0.6C242.2,178.6,240,178.4,238,178.1z"/>
		<path id="XMLID_159_" class="st4" d="M246.8,178.9c0.6,0,1.2,0.1,1.7,0.1C248,179,247.4,179,246.8,178.9z"/>
		<path id="XMLID_158_" class="st4" d="M244.5,178.8c0.7,0.1,1.3,0.1,2,0.1C245.8,178.9,245.1,178.8,244.5,178.8z"/>
		<path id="XMLID_157_" class="st4" d="M232.1,177.3c-0.5-0.1-1-0.2-1.4-0.3C231.2,177.1,231.7,177.2,232.1,177.3z"/>
		<path id="XMLID_156_" class="st4" d="M250.8,162.9c-0.1,0.1-0.1,0.1-0.1,0.1C250.7,163,250.7,162.9,250.8,162.9z"/>
		<path id="XMLID_155_" class="st4" d="M250.9,162.7c0,0-0.1,0.1-0.1,0.1C250.9,162.8,250.9,162.7,250.9,162.7z"/>
		<path id="XMLID_154_" class="st4" d="M250.6,163.1C250.6,163.1,250.6,163.1,250.6,163.1C250.6,163.1,250.6,163.1,250.6,163.1z"/>
		<path id="XMLID_153_" class="st4" d="M251.2,162.4c0,0-0.1,0.1-0.1,0.1C251.1,162.5,251.1,162.5,251.2,162.4z"/>
		<path id="XMLID_152_" class="st4" d="M260.7,179.6c0.7-0.9,1.1-2.1,1-3.3c-0.1-0.7-0.3-1.3-0.2-2c0.2-1.3,1.6-2.1,2.8-2.7
			c0.2-0.1,0.5-0.3,0.7-0.4c1.8,3.5,3.1,6.7,3,8.5C268,179.7,265.1,179.7,260.7,179.6z"/>
		<path id="XMLID_151_" class="st4" d="M265,171.2c-0.8-1.6-1.7-3.2-2.7-4.8C263.2,168,264.2,169.6,265,171.2z"/>
		<path id="XMLID_150_" class="st4" d="M250.6,163.1c0.1-0.2,0.3-0.4,0.4-0.6C250.8,162.7,250.7,162.9,250.6,163.1z"/>
		<path id="XMLID_149_" class="st4" d="M251,162.5c0.1-0.2,0.2-0.5,0.3-0.7C251.2,162,251.1,162.2,251,162.5z"/>
		<path id="XMLID_148_" class="st4" d="M242.7,152.2C242.6,152.2,242.6,152.2,242.7,152.2C242.6,152.3,242.6,152.2,242.7,152.2z"/>
		<path id="XMLID_147_" class="st4" d="M242.7,152c0-0.1,0.1-0.2,0.1-0.3C242.8,151.8,242.8,151.9,242.7,152z"/>
		<path id="XMLID_146_" class="st4" d="M242.5,152.4C242.5,152.4,242.6,152.4,242.5,152.4C242.5,152.4,242.5,152.4,242.5,152.4z"/>
		<path id="XMLID_145_" class="st4" d="M251.6,160.8c0.1-0.3,0.1-0.6,0.2-0.9C251.7,160.2,251.7,160.5,251.6,160.8z"/>
		<path id="XMLID_144_" class="st4" d="M242.5,152.4c0.1-0.1,0.1-0.2,0.2-0.3C242.6,152.2,242.6,152.3,242.5,152.4z"/>
		<path id="XMLID_143_" class="st4" d="M251.3,161.7c0.1-0.3,0.2-0.5,0.3-0.8C251.5,161.1,251.4,161.4,251.3,161.7z"/>
		<path id="XMLID_142_" class="st4" d="M236,177.9c0.6,0.1,1.2,0.2,1.9,0.2C237.3,178.1,236.7,178,236,177.9z"/>
		<path id="XMLID_141_" class="st4" d="M252.4,161.1c0,0-0.1,0.1-0.1,0.1C252.3,161.2,252.3,161.1,252.4,161.1z"/>
		<path id="XMLID_140_" class="st4" d="M252,158.7c0.1-0.3,0.1-0.7,0.1-1C252.1,158,252.1,158.4,252,158.7z"/>
		<path id="XMLID_139_" class="st4" d="M252.3,156.5c0-0.4,0.1-0.7,0.1-1.1C252.3,155.7,252.3,156.1,252.3,156.5z"/>
		<path id="XMLID_138_" class="st4" d="M252.2,157.6c0-0.4,0.1-0.7,0.1-1.1C252.2,156.9,252.2,157.2,252.2,157.6z"/>
		<path id="XMLID_137_" class="st4" d="M242.9,151.2c0,0.1,0,0.2-0.1,0.3C242.9,151.4,242.9,151.3,242.9,151.2z"/>
		<path id="XMLID_136_" class="st4" d="M243,150.5c0-0.2,0-0.4,0-0.6C243,150.1,243,150.3,243,150.5z"/>
		<path id="XMLID_135_" class="st4" d="M242.9,151.1c0-0.2,0-0.3,0-0.5C243,150.7,242.9,150.9,242.9,151.1z"/>
		<path id="XMLID_134_" class="st4" d="M252.2,155.3c-0.7-0.5-0.5-1.5-0.8-2.3c-0.7-1.8-3.6-1.4-4.9-2.8c-1-1.1-0.6-2.9-0.2-4.3
			c-0.1,0-0.3,0-0.4-0.1c0,0,0,0,0,0c0.6-1.8,0.9-3.8,0.3-5.3l6.3,10c0,0,0.1,2.3-0.1,5C252.3,155.3,252.3,155.3,252.2,155.3z"/>
		<path id="XMLID_133_" class="st4" d="M252,158.8c-0.1,0.3-0.1,0.7-0.2,1C251.9,159.4,252,159.1,252,158.8z"/>
		<path id="XMLID_132_" class="st4" d="M253.4,159.8c-0.1,0.1-0.2,0.2-0.2,0.3C253.2,160,253.3,159.9,253.4,159.8z"/>
		<path id="XMLID_131_" class="st4" d="M253.8,159.2c-0.1,0.1-0.1,0.2-0.2,0.2C253.7,159.4,253.8,159.3,253.8,159.2z"/>
		<path id="XMLID_130_" class="st4" d="M261.3,164.8c0.3,0.5,0.6,1,0.9,1.5C261.9,165.7,261.6,165.3,261.3,164.8z"/>
		<path id="XMLID_129_" class="st4" d="M251.6,162c0,0-0.1,0.1-0.1,0.1C251.5,162.1,251.5,162,251.6,162z"/>
		<path id="XMLID_128_" class="st4" d="M252.9,160.4c0,0.1-0.1,0.1-0.1,0.2C252.8,160.5,252.9,160.5,252.9,160.4z"/>
		<path id="XMLID_127_" class="st4" d="M258.7,164.1c-0.5-0.2-1.1-0.4-1.4-0.9c-0.7-0.8-0.6-2-1.3-2.7c-0.5-0.6-1.5-1-2-1.5
			c0,0,0,0,0,0c0.9-1.2,1.5-2.3,1.6-2.9c0,0,2.8,3.9,5.7,8.7C260.4,164.6,259.6,164.4,258.7,164.1z"/>
		<path id="XMLID_126_" class="st4" d="M252,161.5c0,0-0.1,0.1-0.1,0.1C251.9,161.6,252,161.5,252,161.5z"/>
		<path id="XMLID_125_" class="st4" d="M224.6,153.5c0,0.1,0,0.2,0,0.4c0,0.6-0.4,1.3-0.1,1.8c0.2,0.3,0.5,0.5,0.8,0.7
			c0.5,0.3,1,0.7,1.2,1.2c0.2,0.5,0.1,1.2-0.4,1.5c-0.2,0.1-0.5,0.2-0.7,0.4c-0.8,0.6-0.1,1.8-0.4,2.7c-0.2,0.6-0.9,1-1.5,1.4
			c3,1.4,9.3,3.8,12.7,5c-4.3-1.6-13.6-5.1-14.2-5.9c-0.8-1-1.6-8.9-0.7-9.8L224.6,153.5z"/>
		<path id="XMLID_124_" class="st4" d="M234.5,169.7c0,0,0.1,0,0.1,0C234.6,169.7,234.5,169.7,234.5,169.7z"/>
		<path id="XMLID_123_" class="st4" d="M233.5,169.6c0,0,0.1,0,0.1,0C233.6,169.6,233.5,169.6,233.5,169.6z"/>
		<path id="XMLID_122_" class="st4" d="M237.8,169.5C237.8,169.5,237.9,169.5,237.8,169.5C237.9,169.5,237.8,169.5,237.8,169.5z"/>
		<path id="XMLID_121_" class="st4" d="M237.1,169.6c0,0,0.1,0,0.1,0C237.2,169.6,237.1,169.6,237.1,169.6z"/>
		<path id="XMLID_120_" class="st4" d="M235.5,169.7C235.5,169.7,235.5,169.7,235.5,169.7C235.5,169.7,235.5,169.7,235.5,169.7z"/>
		<path id="XMLID_119_" class="st4" d="M238,169.2c0.3,0.1,0.4,0.2,0.4,0.2S238.3,169.3,238,169.2z"/>
		<path id="XMLID_118_" class="st4" d="M236.3,169.7C236.3,169.7,236.4,169.7,236.3,169.7C236.4,169.7,236.3,169.7,236.3,169.7z"/>
		<path id="XMLID_117_" class="st4" d="M241.9,140.6c-2.2-1-5.3,1.5-7.1-0.1c-0.8-0.7-1-2.1-1.9-2.7c-1-0.6-2.5-0.2-3.1-1.1
			c0,0,0-0.1-0.1-0.1l-1,6l2-11.8l10.3,5.2c0,0,0.5,2.4,1.1,5.4C242,141.1,242,140.8,241.9,140.6z"/>
		<path id="XMLID_116_" class="st4" d="M242.5,144.1c0,0.3,0.1,0.5,0.1,0.8C242.6,144.6,242.5,144.3,242.5,144.1z"/>
		<path id="XMLID_115_" class="st4" d="M242.3,143.2c0,0.3,0.1,0.6,0.1,0.8C242.4,143.7,242.4,143.4,242.3,143.2z"/>
		<path id="XMLID_114_" class="st4" d="M236.3,168.6c0.7,0.2,1.2,0.4,1.6,0.6C237.5,169,236.9,168.8,236.3,168.6z"/>
		<path id="XMLID_113_" class="st4" d="M242.2,142.3c0,0.2,0.1,0.4,0.1,0.7C242.3,142.8,242.3,142.6,242.2,142.3z"/>
		<path id="XMLID_112_" class="st4" d="M223.2,132.2c-1.6-1-3.3-2.8-5-2c-0.9,0.4-1.7,1.5-2.7,1.4c-0.3,0-0.6-0.2-0.8-0.1
			c-0.4,0.1-0.6,0.6-0.7,1c-0.2,0.6-0.6,1.1-0.9,1.6l2.4,6c1.2,0.5,2,1.6,2.7,2.6c0.2,0.3,0.4,0.7,0.5,1c0.2,0.8-0.2,1.7-0.9,2.2
			l0.3,0.7l-8.3-21l13.6,3.2l5.4,13.7l-3.8-9.6C224.3,132.7,223.7,132.5,223.2,132.2z"/>
		<path id="XMLID_111_" class="st4" d="M242.6,145.1c0,0.2,0.1,0.4,0.1,0.6C242.7,145.5,242.6,145.3,242.6,145.1z"/>
		<path id="XMLID_110_" class="st4" d="M242.1,141.5c0,0.2,0.1,0.4,0.1,0.6C242.1,141.9,242.1,141.7,242.1,141.5z"/>
	</g>
	<path id="XMLID_108_" class="st5" d="M268,179.7c0,0-39.3-0.1-43.4-5.2c0,0-0.6-5.1,0.4-5.4c0,0,10.4,1.5,13.4,0.2
		c0,0-15.6-5.6-16.4-6.6c-0.8-1-0.9-7.9,0-8.8l2.8-0.4c0,0,6.9-0.8,1.5-3.4c-5.5-2.5-8.3-3.5-8.3-3.5l-6.7-20.1l12,2.2l5.4,13.7
		l2.5-10.6l9.8,4c0,0,3.2,14.1,1.6,16.5c0,0,6.1-5.2,4.4-9.7l5.5,7.7c0,0,0.3,10-1.9,12.7c0,0,5.2-3.5,5.3-5.2
		C255.8,157.9,268.4,174.2,268,179.7z"/>
	<path id="XMLID_107_" class="st6" d="M255,176.4c-2.4,0.4-4.9,0.9-7.3,0.4c-1.3-0.2-2.5-0.7-3.8-0.7c-1.7,0-3.6,0.8-5.2,0.1
		c-0.8-0.3-1.4-1-2.2-1.2c-0.8-0.2-1.7,0-2.6-0.1c-0.9-0.1-1.8-0.9-1.5-1.7c0.2-0.6,0.9-0.9,1.5-1c0.6-0.1,1.2-0.2,1.8-0.2
		c1.1,0.1,2.1,0.5,3.2,0.5c1.1,0,2.2-1,2-2c-0.1-0.3-0.3-0.6-0.4-0.9c-0.3-1.3,1.6-2.5,1.2-3.8c-0.5-1.7-3.8-0.7-4.5-2.3
		c-0.1-0.3-0.1-0.7-0.2-1c-0.3-0.8-1.2-1-2-0.9s-1.5,0.5-2.3,0.6c-1,0.2-2-0.1-2.8-0.6c-0.6-0.4-1.2-1.3-0.9-2
		c0.3-0.6,1.1-0.9,1.6-1.3c0.8-0.6,1.1-1.8,0.7-2.7c-0.1-0.3-0.3-0.5-0.3-0.8c-0.1-0.9,1.2-1.3,1.4-2.2c0.1-0.6-0.4-1.2-1-1.5
		s-1.2-0.6-1.5-1.1c-0.2-0.3-0.3-0.7-0.5-1.1c-0.9-1.8-3.4-1.6-5.2-2.4c-0.5-0.2-1.1-0.8-0.9-1.3c0.1-0.3,0.3-0.5,0.4-0.7
		c0.2-0.5-0.1-1.1-0.6-1.4c-0.5-0.3-1.1-0.4-1.6-0.5c-1-0.2-2.1-0.6-2.8-1.3c-0.7-0.8-1-2-0.4-2.9c-1.1-0.4-2-1.3-2.2-2.5
		c-0.2-1.2,0.5-2.4,1.6-2.8s2.5,0.1,2.9,1.2c0.3,0.8,0.1,1.7,0.5,2.5c0.6,1.1,2.1,1.3,2.6,2.4c0.3,0.5,0.3,1.1,0.6,1.6
		c0.7,1,2.8,0.8,2.9,2.1c0,0.3-0.1,0.6-0.1,0.9c-0.1,0.9,0.8,1.8,1.7,1.8c0.9,0,1.8-0.8,2-1.7c0.2-0.6,0.1-1.4,0.5-1.9
		c0.4-0.5,1.1-0.6,1.7-0.4c0.6,0.2,1.1,0.6,1.5,0.9c0.9,0.7,1.9,1.6,1.8,2.8c0,0.7-0.4,1.3-0.2,1.9c0.2,0.8,1.2,1.1,1.6,1.8
		c0.9,1.6-1.7,3.8-0.6,5.3c0.3,0.3,0.7,0.5,1.1,0.7c2.1,0.9,4.2,1.8,6.3,2.7c0.4,0.2,0.8,0.3,1.2,0.4c1.1,0.1,2-0.9,2.4-1.9
		c0.1-0.2,0.2-0.5,0.3-0.6c0.3-0.3,0.9-0.2,1.2,0.1s0.4,0.8,0.5,1.2c0.1,0.6,0.1,1.3-0.1,1.8c-0.7,1.4-3,1.8-3.1,3.4
		c0,1.2,1.4,1.9,1.9,3c0.3,0.5,0.3,1.1,0.5,1.6c0.5,1.2,2,1.9,3.3,1.5s2.2-1.7,2-3.1c-0.1-0.3-0.2-0.7-0.1-1
		c0.2-0.5,0.9-0.7,1.4-0.5c0.5,0.2,0.9,0.6,1.2,1c0.7,0.8,1.4,1.8,1.3,2.8c-0.1,1-1,1.8-1.8,2.5c-0.8,0.7-1.6,1.6-1.4,2.6
		c0.1,0.6,0.5,1,0.9,1.5c0.3,0.5,0.7,1,0.6,1.5s-0.7,1.1-1.2,0.8"/>
	<path id="XMLID_106_" class="st7" d="M253.3,172.1c0,0-16.7-13.4-18.4-19.3C234.9,152.7,239,165.2,253.3,172.1z"/>
</g>
</svg>
