<?xml version="1.0" encoding="utf-8"?>
<!-- Generator: Adobe Illustrator 19.0.0, SVG Export Plug-In . SVG Version: 6.00 Build 0)  -->
<svg version="1.1" xmlns="http://www.w3.org/2000/svg" xmlns:xlink="http://www.w3.org/1999/xlink" x="0px" y="0px" width="1000px" height="1000px"
	 viewBox="0 0 1000 1000" style="enable-background:new 0 0 1000 1000;" xml:space="preserve">
<style type="text/css">
	.st0{fill:url(#XMLID_2_);}
	.st1{fill:url(#XMLID_3_);}
	.st2{fill:url(#XMLID_4_);}
	.st3{fill:url(#XMLID_5_);}
	.st4{fill:url(#XMLID_6_);}
	.st5{fill:url(#XMLID_7_);}
	.st6{fill:url(#XMLID_8_);}
	.st7{fill:url(#XMLID_9_);}
	.st8{fill:url(#XMLID_10_);}
	.st9{fill:url(#XMLID_11_);}
	.st10{fill:url(#XMLID_12_);}
	.st11{fill:url(#XMLID_13_);}
	.st12{fill:url(#XMLID_14_);}
	.st13{fill:url(#XMLID_15_);}
	.st14{fill:url(#XMLID_16_);}
	.st15{fill:url(#XMLID_17_);}
	.st16{fill:url(#XMLID_18_);}
	.st17{fill:url(#XMLID_19_);}
	.st18{fill:url(#XMLID_20_);}
	.st19{fill:url(#XMLID_21_);}
</style>
<g id="Calque_9">
	<g id="圖層_10_拷貝_3_4_">
		
			<linearGradient id="XMLID_2_" gradientUnits="userSpaceOnUse" x1="192.8176" y1="577.485" x2="192.8176" y2="532.31" gradientTransform="matrix(1 0 0 -1 0 1000.11)">
			<stop  offset="0" style="stop-color:#8FC044"/>
			<stop  offset="0.1447" style="stop-color:#89BF45"/>
			<stop  offset="0.3381" style="stop-color:#7ABA48"/>
			<stop  offset="0.559" style="stop-color:#59B24B"/>
			<stop  offset="0.7984" style="stop-color:#25A94F"/>
			<stop  offset="1" style="stop-color:#08A651"/>
		</linearGradient>
		<path id="XMLID_64_" class="st0" d="M188.9,422.6c2.9,2,6.5,6.9,7.4,14.1c1.8,10.6-1.8,29.2-2.8,31c0.7-5.1,1.1-12.6-0.6-21.4
			C191,436.3,191.8,427.3,188.9,422.6z"/>
		
			<linearGradient id="XMLID_3_" gradientUnits="userSpaceOnUse" x1="205.4066" y1="587.11" x2="205.4066" y2="532.31" gradientTransform="matrix(1 0 0 -1 0 1000.11)">
			<stop  offset="0" style="stop-color:#8FC044"/>
			<stop  offset="0.1447" style="stop-color:#89BF45"/>
			<stop  offset="0.3381" style="stop-color:#7ABA48"/>
			<stop  offset="0.559" style="stop-color:#59B24B"/>
			<stop  offset="0.7984" style="stop-color:#25A94F"/>
			<stop  offset="1" style="stop-color:#08A651"/>
		</linearGradient>
		<path id="XMLID_63_" class="st1" d="M198.1,467.8c0,0,13.9-34.3,10-54.8c8.5,6.5,3.1,28.6,0.5,35.3S198.1,467.8,198.1,467.8z"/>
		
			<linearGradient id="XMLID_4_" gradientUnits="userSpaceOnUse" x1="220.95" y1="562.5024" x2="220.95" y2="527.8947" gradientTransform="matrix(1 0 0 -1 0 1000.11)">
			<stop  offset="0" style="stop-color:#8FC044"/>
			<stop  offset="0.1447" style="stop-color:#89BF45"/>
			<stop  offset="0.3381" style="stop-color:#7ABA48"/>
			<stop  offset="0.559" style="stop-color:#59B24B"/>
			<stop  offset="0.7984" style="stop-color:#25A94F"/>
			<stop  offset="1" style="stop-color:#08A651"/>
		</linearGradient>
		<path id="XMLID_62_" class="st2" d="M204.4,472.2c0,0,9-25.8,14.5-29.7c8.3-5.9,18.6-4.9,18.6-4.9s-8.4,2.9-16.6,9.6
			C214.1,452.9,207.7,461.4,204.4,472.2z"/>
		
			<linearGradient id="XMLID_5_" gradientUnits="userSpaceOnUse" x1="224.6" y1="546.8422" x2="224.6" y2="523.7067" gradientTransform="matrix(1 0 0 -1 0 1000.11)">
			<stop  offset="0" style="stop-color:#8FC044"/>
			<stop  offset="0.1447" style="stop-color:#89BF45"/>
			<stop  offset="0.3381" style="stop-color:#7ABA48"/>
			<stop  offset="0.559" style="stop-color:#59B24B"/>
			<stop  offset="0.7984" style="stop-color:#25A94F"/>
			<stop  offset="1" style="stop-color:#08A651"/>
		</linearGradient>
		<path id="XMLID_61_" class="st3" d="M209.7,476.4c0,0,3.3-18.3,9.9-21.3s19.9-1.6,19.9-1.6s-18.9,2.8-22.6,7.7
			C213.5,465.9,209.7,476.4,209.7,476.4z"/>
	</g>
</g>
<g id="Calque_9_-_copie">
	<g id="圖層_10_拷貝_3_7_">
		
			<linearGradient id="XMLID_6_" gradientUnits="userSpaceOnUse" x1="390.0176" y1="790.985" x2="390.0176" y2="745.81" gradientTransform="matrix(1 0 0 -1 0 1000.11)">
			<stop  offset="0" style="stop-color:#8FC044"/>
			<stop  offset="0.1447" style="stop-color:#89BF45"/>
			<stop  offset="0.3381" style="stop-color:#7ABA48"/>
			<stop  offset="0.559" style="stop-color:#59B24B"/>
			<stop  offset="0.7984" style="stop-color:#25A94F"/>
			<stop  offset="1" style="stop-color:#08A651"/>
		</linearGradient>
		<path id="XMLID_76_" class="st4" d="M386.1,209.1c2.9,2,6.5,6.9,7.4,14.1c1.8,10.6-1.8,29.2-2.8,31c0.7-5.1,1.1-12.6-0.6-21.4
			C388.2,222.8,389,213.8,386.1,209.1z"/>
		
			<linearGradient id="XMLID_7_" gradientUnits="userSpaceOnUse" x1="402.6066" y1="800.61" x2="402.6066" y2="745.81" gradientTransform="matrix(1 0 0 -1 0 1000.11)">
			<stop  offset="0" style="stop-color:#8FC044"/>
			<stop  offset="0.1447" style="stop-color:#89BF45"/>
			<stop  offset="0.3381" style="stop-color:#7ABA48"/>
			<stop  offset="0.559" style="stop-color:#59B24B"/>
			<stop  offset="0.7984" style="stop-color:#25A94F"/>
			<stop  offset="1" style="stop-color:#08A651"/>
		</linearGradient>
		<path id="XMLID_75_" class="st5" d="M395.3,254.3c0,0,13.9-34.3,10-54.8c8.5,6.5,3.1,28.6,0.5,35.3
			C403.2,241.5,395.3,254.3,395.3,254.3z"/>
		
			<linearGradient id="XMLID_8_" gradientUnits="userSpaceOnUse" x1="418.15" y1="776.0024" x2="418.15" y2="741.3947" gradientTransform="matrix(1 0 0 -1 0 1000.11)">
			<stop  offset="0" style="stop-color:#8FC044"/>
			<stop  offset="0.1447" style="stop-color:#89BF45"/>
			<stop  offset="0.3381" style="stop-color:#7ABA48"/>
			<stop  offset="0.559" style="stop-color:#59B24B"/>
			<stop  offset="0.7984" style="stop-color:#25A94F"/>
			<stop  offset="1" style="stop-color:#08A651"/>
		</linearGradient>
		<path id="XMLID_74_" class="st6" d="M401.6,258.7c0,0,9-25.8,14.5-29.7c8.3-5.9,18.6-4.9,18.6-4.9s-8.4,2.9-16.6,9.6
			C411.3,239.4,404.9,247.9,401.6,258.7z"/>
		
			<linearGradient id="XMLID_9_" gradientUnits="userSpaceOnUse" x1="421.8" y1="760.3422" x2="421.8" y2="737.2067" gradientTransform="matrix(1 0 0 -1 0 1000.11)">
			<stop  offset="0" style="stop-color:#8FC044"/>
			<stop  offset="0.1447" style="stop-color:#89BF45"/>
			<stop  offset="0.3381" style="stop-color:#7ABA48"/>
			<stop  offset="0.559" style="stop-color:#59B24B"/>
			<stop  offset="0.7984" style="stop-color:#25A94F"/>
			<stop  offset="1" style="stop-color:#08A651"/>
		</linearGradient>
		<path id="XMLID_73_" class="st7" d="M406.9,262.9c0,0,3.3-18.3,9.9-21.3s19.9-1.6,19.9-1.6s-18.9,2.8-22.6,7.7
			C410.7,252.4,406.9,262.9,406.9,262.9z"/>
	</g>
</g>
<g id="Calque_9_-_copie_2">
	<g id="圖層_10_拷貝_3_11_">
		
			<linearGradient id="XMLID_10_" gradientUnits="userSpaceOnUse" x1="548.8176" y1="443.585" x2="548.8176" y2="398.41" gradientTransform="matrix(1 0 0 -1 0 1000.11)">
			<stop  offset="0" style="stop-color:#8FC044"/>
			<stop  offset="0.1447" style="stop-color:#89BF45"/>
			<stop  offset="0.3381" style="stop-color:#7ABA48"/>
			<stop  offset="0.559" style="stop-color:#59B24B"/>
			<stop  offset="0.7984" style="stop-color:#25A94F"/>
			<stop  offset="1" style="stop-color:#08A651"/>
		</linearGradient>
		<path id="XMLID_92_" class="st8" d="M544.9,556.5c2.9,2,6.5,6.9,7.4,14.1c1.8,10.6-1.8,29.2-2.8,31c0.7-5.1,1.1-12.6-0.6-21.4
			C547,570.2,547.8,561.2,544.9,556.5z"/>
		
			<linearGradient id="XMLID_11_" gradientUnits="userSpaceOnUse" x1="561.4066" y1="453.21" x2="561.4066" y2="398.41" gradientTransform="matrix(1 0 0 -1 0 1000.11)">
			<stop  offset="0" style="stop-color:#8FC044"/>
			<stop  offset="0.1447" style="stop-color:#89BF45"/>
			<stop  offset="0.3381" style="stop-color:#7ABA48"/>
			<stop  offset="0.559" style="stop-color:#59B24B"/>
			<stop  offset="0.7984" style="stop-color:#25A94F"/>
			<stop  offset="1" style="stop-color:#08A651"/>
		</linearGradient>
		<path id="XMLID_91_" class="st9" d="M554.1,601.7c0,0,13.9-34.3,10-54.8c8.5,6.5,3.1,28.6,0.5,35.3
			C562,588.9,554.1,601.7,554.1,601.7z"/>
		
			<linearGradient id="XMLID_12_" gradientUnits="userSpaceOnUse" x1="576.95" y1="428.6024" x2="576.95" y2="393.9947" gradientTransform="matrix(1 0 0 -1 0 1000.11)">
			<stop  offset="0" style="stop-color:#8FC044"/>
			<stop  offset="0.1447" style="stop-color:#89BF45"/>
			<stop  offset="0.3381" style="stop-color:#7ABA48"/>
			<stop  offset="0.559" style="stop-color:#59B24B"/>
			<stop  offset="0.7984" style="stop-color:#25A94F"/>
			<stop  offset="1" style="stop-color:#08A651"/>
		</linearGradient>
		<path id="XMLID_90_" class="st10" d="M560.4,606.1c0,0,9-25.8,14.5-29.7c8.3-5.9,18.6-4.9,18.6-4.9s-8.4,2.9-16.6,9.6
			C570.1,586.8,563.7,595.3,560.4,606.1z"/>
		
			<linearGradient id="XMLID_13_" gradientUnits="userSpaceOnUse" x1="580.6" y1="412.9422" x2="580.6" y2="389.8066" gradientTransform="matrix(1 0 0 -1 0 1000.11)">
			<stop  offset="0" style="stop-color:#8FC044"/>
			<stop  offset="0.1447" style="stop-color:#89BF45"/>
			<stop  offset="0.3381" style="stop-color:#7ABA48"/>
			<stop  offset="0.559" style="stop-color:#59B24B"/>
			<stop  offset="0.7984" style="stop-color:#25A94F"/>
			<stop  offset="1" style="stop-color:#08A651"/>
		</linearGradient>
		<path id="XMLID_89_" class="st11" d="M565.7,610.3c0,0,3.3-18.3,9.9-21.3s19.9-1.6,19.9-1.6s-18.9,2.8-22.6,7.7
			C569.5,599.8,565.7,610.3,565.7,610.3z"/>
	</g>
</g>
<g id="Calque_9_-_copie_3">
	<g id="圖層_10_拷貝_3_15_">
		
			<linearGradient id="XMLID_14_" gradientUnits="userSpaceOnUse" x1="433.3176" y1="345.785" x2="433.3176" y2="300.61" gradientTransform="matrix(1 0 0 -1 0 1000.11)">
			<stop  offset="0" style="stop-color:#8FC044"/>
			<stop  offset="0.1447" style="stop-color:#89BF45"/>
			<stop  offset="0.3381" style="stop-color:#7ABA48"/>
			<stop  offset="0.559" style="stop-color:#59B24B"/>
			<stop  offset="0.7984" style="stop-color:#25A94F"/>
			<stop  offset="1" style="stop-color:#08A651"/>
		</linearGradient>
		<path id="XMLID_108_" class="st12" d="M429.4,654.3c2.9,2,6.5,6.9,7.4,14.1c1.8,10.6-1.8,29.3-2.8,31c0.7-5.1,1.1-12.6-0.6-21.4
			C431.5,668,432.3,659,429.4,654.3z"/>
		
			<linearGradient id="XMLID_15_" gradientUnits="userSpaceOnUse" x1="445.9066" y1="355.41" x2="445.9066" y2="300.61" gradientTransform="matrix(1 0 0 -1 0 1000.11)">
			<stop  offset="0" style="stop-color:#8FC044"/>
			<stop  offset="0.1447" style="stop-color:#89BF45"/>
			<stop  offset="0.3381" style="stop-color:#7ABA48"/>
			<stop  offset="0.559" style="stop-color:#59B24B"/>
			<stop  offset="0.7984" style="stop-color:#25A94F"/>
			<stop  offset="1" style="stop-color:#08A651"/>
		</linearGradient>
		<path id="XMLID_107_" class="st13" d="M438.6,699.5c0,0,13.9-34.3,10-54.8c8.5,6.5,3.1,28.6,0.5,35.3
			C446.5,686.7,438.6,699.5,438.6,699.5z"/>
		
			<linearGradient id="XMLID_16_" gradientUnits="userSpaceOnUse" x1="461.45" y1="330.8023" x2="461.45" y2="296.1946" gradientTransform="matrix(1 0 0 -1 0 1000.11)">
			<stop  offset="0" style="stop-color:#8FC044"/>
			<stop  offset="0.1447" style="stop-color:#89BF45"/>
			<stop  offset="0.3381" style="stop-color:#7ABA48"/>
			<stop  offset="0.559" style="stop-color:#59B24B"/>
			<stop  offset="0.7984" style="stop-color:#25A94F"/>
			<stop  offset="1" style="stop-color:#08A651"/>
		</linearGradient>
		<path id="XMLID_106_" class="st14" d="M444.9,703.9c0,0,9-25.8,14.5-29.7c8.3-5.9,18.6-4.9,18.6-4.9s-8.4,2.9-16.6,9.6
			C454.6,684.6,448.2,693.1,444.9,703.9z"/>
		
			<linearGradient id="XMLID_17_" gradientUnits="userSpaceOnUse" x1="465.1" y1="315.1422" x2="465.1" y2="292.0066" gradientTransform="matrix(1 0 0 -1 0 1000.11)">
			<stop  offset="0" style="stop-color:#8FC044"/>
			<stop  offset="0.1447" style="stop-color:#89BF45"/>
			<stop  offset="0.3381" style="stop-color:#7ABA48"/>
			<stop  offset="0.559" style="stop-color:#59B24B"/>
			<stop  offset="0.7984" style="stop-color:#25A94F"/>
			<stop  offset="1" style="stop-color:#08A651"/>
		</linearGradient>
		<path id="XMLID_105_" class="st15" d="M450.2,708.1c0,0,3.3-18.3,9.9-21.3s19.9-1.6,19.9-1.6s-18.9,2.8-22.6,7.7
			C454,697.6,450.2,708.1,450.2,708.1z"/>
	</g>
</g>
<g id="Calque_9_-_copie_4">
	<g id="圖層_10_拷貝_3_19_">
		
			<linearGradient id="XMLID_18_" gradientUnits="userSpaceOnUse" x1="755.7177" y1="314.085" x2="755.7177" y2="268.91" gradientTransform="matrix(1 0 0 -1 0 1000.11)">
			<stop  offset="0" style="stop-color:#8FC044"/>
			<stop  offset="0.1447" style="stop-color:#89BF45"/>
			<stop  offset="0.3381" style="stop-color:#7ABA48"/>
			<stop  offset="0.559" style="stop-color:#59B24B"/>
			<stop  offset="0.7984" style="stop-color:#25A94F"/>
			<stop  offset="1" style="stop-color:#08A651"/>
		</linearGradient>
		<path id="XMLID_124_" class="st16" d="M751.8,686c2.9,2,6.5,6.9,7.4,14.1c1.8,10.6-1.8,29.2-2.8,31c0.7-5.1,1.1-12.6-0.6-21.4
			C753.9,699.7,754.7,690.7,751.8,686z"/>
		
			<linearGradient id="XMLID_19_" gradientUnits="userSpaceOnUse" x1="768.3066" y1="323.71" x2="768.3066" y2="268.91" gradientTransform="matrix(1 0 0 -1 0 1000.11)">
			<stop  offset="0" style="stop-color:#8FC044"/>
			<stop  offset="0.1447" style="stop-color:#89BF45"/>
			<stop  offset="0.3381" style="stop-color:#7ABA48"/>
			<stop  offset="0.559" style="stop-color:#59B24B"/>
			<stop  offset="0.7984" style="stop-color:#25A94F"/>
			<stop  offset="1" style="stop-color:#08A651"/>
		</linearGradient>
		<path id="XMLID_123_" class="st17" d="M761,731.2c0,0,13.9-34.3,10-54.8c8.5,6.5,3.1,28.6,0.5,35.3
			C768.9,718.4,761,731.2,761,731.2z"/>
		
			<linearGradient id="XMLID_20_" gradientUnits="userSpaceOnUse" x1="783.85" y1="299.1024" x2="783.85" y2="264.4947" gradientTransform="matrix(1 0 0 -1 0 1000.11)">
			<stop  offset="0" style="stop-color:#8FC044"/>
			<stop  offset="0.1447" style="stop-color:#89BF45"/>
			<stop  offset="0.3381" style="stop-color:#7ABA48"/>
			<stop  offset="0.559" style="stop-color:#59B24B"/>
			<stop  offset="0.7984" style="stop-color:#25A94F"/>
			<stop  offset="1" style="stop-color:#08A651"/>
		</linearGradient>
		<path id="XMLID_122_" class="st18" d="M767.3,735.6c0,0,9-25.8,14.5-29.7c8.3-5.9,18.6-4.9,18.6-4.9s-8.4,2.9-16.6,9.6
			C777,716.3,770.6,724.8,767.3,735.6z"/>
		
			<linearGradient id="XMLID_21_" gradientUnits="userSpaceOnUse" x1="787.5" y1="283.4422" x2="787.5" y2="260.3066" gradientTransform="matrix(1 0 0 -1 0 1000.11)">
			<stop  offset="0" style="stop-color:#8FC044"/>
			<stop  offset="0.1447" style="stop-color:#89BF45"/>
			<stop  offset="0.3381" style="stop-color:#7ABA48"/>
			<stop  offset="0.559" style="stop-color:#59B24B"/>
			<stop  offset="0.7984" style="stop-color:#25A94F"/>
			<stop  offset="1" style="stop-color:#08A651"/>
		</linearGradient>
		<path id="XMLID_121_" class="st19" d="M772.6,739.8c0,0,3.3-18.3,9.9-21.3s19.9-1.6,19.9-1.6s-18.9,2.8-22.6,7.7
			C776.4,729.3,772.6,739.8,772.6,739.8z"/>
	</g>
</g>
</svg>
