<svg version="1.0" xmlns="http://www.w3.org/2000/svg" width="1000" height="1000" style="enable-background:new 0 0 1000 1000" xml:space="preserve"><style>.st0{display:none}.st1{display:inline}.st2{fill:#e62b2c}.st11{opacity:.36;fill:#888989;enable-background:new}.st12{fill:#343434}.st13{fill:#fff}.st14{fill:#adadad}.st15{fill:none;stroke:#343434;stroke-width:7;stroke-miterlimit:10}.st46{opacity:.3}.st47{fill:#3d3937}.st51{fill:#d6d4d4}.st52{opacity:.5;fill:#ececec}.st53{fill:#705e45;stroke:#3d3937;stroke-width:3;stroke-miterlimit:10}.st56{opacity:.5;fill:#fff}</style><g id="Calque_4"><g id="Calque_1_-_copie"><g id="Calque_18_-_copie"><radialGradient id="XMLID_299_" cx="500.55" cy="500.7" r="425.149" gradientUnits="userSpaceOnUse"><stop offset="0" style="stop-color:#dfdddd"/><stop offset=".321" style="stop-color:#dddada"/><stop offset=".542" style="stop-color:#d5d2d2"/><stop offset=".732" style="stop-color:#c8c5c4"/><stop offset=".903" style="stop-color:#b6b2b1"/><stop offset="1" style="stop-color:#a8a5a3"/></radialGradient><radialGradient id="XMLID_300_" cx="500.55" cy="500.7" r="300.431" gradientUnits="userSpaceOnUse"><stop offset="0" style="stop-color:#dfdddd"/><stop offset=".321" style="stop-color:#dddada"/><stop offset=".542" style="stop-color:#d5d2d2"/><stop offset=".732" style="stop-color:#c8c5c4"/><stop offset=".903" style="stop-color:#b6b2b1"/><stop offset="1" style="stop-color:#a8a5a3"/></radialGradient><radialGradient id="XMLID_301_" cx="500.55" cy="500.7" r="425.149" gradientUnits="userSpaceOnUse"><stop offset=".522" style="stop-color:#a8a5a3"/><stop offset=".66" style="stop-color:#b4b1b0"/><stop offset=".92" style="stop-color:#d4d1d1"/><stop offset="1" style="stop-color:#dfdddd"/></radialGradient><path id="XMLID_304_" d="M850.2 514.8c-5.1-8.7-14.7-14.1-25.1-14.2v-.5c10.2-.2 19.6-5.6 24.9-14.2l67.2-112.8c5.2-8.9 5.2-19.7 0-28.6l-67-112.9c-5.1-8.8-14.9-14.2-25.4-14.2l-134.2-.1c-7.4 0-14.4 2.7-19.8 7.4-2.4-1.5-4.9-3-7.4-4.5 2-7.3 1.1-15.1-2.9-21.9l-67-112.8c-5.1-8.8-14.9-14.2-25.4-14.2l-134-.3c-10.5 0-20.1 5.3-25.5 14.2L341.4 198c-2.9 4.9-4.2 10.4-3.9 15.8-4.2 2.3-8.3 4.6-12.4 7.1-4.3-2.4-9.3-3.7-14.4-3.7l-134.2-.1c-10.5 0-20.1 5.3-25.5 14.2l-67.1 113c-5.2 8.9-5.2 19.7 0 28.6l67 112.8c3.2 5.5 8.2 9.7 14.1 12 0 1.7-.1 3.3-.1 5-5.7 2.4-10.5 6.5-13.8 11.9L83.9 627.4c-5.2 8.9-5.2 19.7 0 28.6l67 112.8c5.1 8.8 14.9 14.2 25.4 14.2l134.2.2c2.4 0 4.8-.3 7-.9 6.7 4.3 13.6 8.3 20.6 12.1.6 2.9 1.7 5.8 3.3 8.5l67 112.8c5.1 8.8 14.9 14.2 25.4 14.2l134.2.2c10.6 0 20.3-5.6 25.5-14.2l67.2-112.8c2.9-4.9 4.2-10.4 3.9-15.9 4.1-2.5 8.2-5 12.2-7.7 4.2 2.1 8.8 3.3 13.7 3.3l134.2.2c10.5 0 20.1-5.6 25.5-14.4l67.2-112.8c5.2-8.9 5.2-19.7 0-28.6l-67.2-112.4zM498.9 729.1c-124.3 0-225.1-100.8-225.1-225.1s100.8-225.1 225.1-225.1S724 379.7 724 504 623.2 729.1 498.9 729.1z" style="fill:url(#XMLID_301_)"/><radialGradient id="XMLID_302_" cx="498.904" cy="496.065" r="231.3" gradientTransform="matrix(1 0 0 -1 0 1000.11)" gradientUnits="userSpaceOnUse"><stop offset="0" style="stop-color:#dfdddd"/><stop offset=".321" style="stop-color:#dddada"/><stop offset=".542" style="stop-color:#d5d2d2"/><stop offset=".732" style="stop-color:#c8c5c4"/><stop offset=".903" style="stop-color:#b6b2b1"/><stop offset="1" style="stop-color:#a8a5a3"/></radialGradient></g></g></g></svg>