<?xml version="1.0" encoding="utf-8"?>
<!-- Generator: Adobe Illustrator 19.0.0, SVG Export Plug-In . SVG Version: 6.00 Build 0)  -->
<svg version="1.0" xmlns="http://www.w3.org/2000/svg" xmlns:xlink="http://www.w3.org/1999/xlink" x="0px" y="0px" width="300px" height="260px"
	 viewBox="0 0 300 260" style="enable-background:new 0 0 300 260;" xml:space="preserve">
<style type="text/css">
	.st0{display:none;}
	.st1{display:inline;}
	.st2{fill:none;stroke:#3B3835;stroke-width:7;stroke-miterlimit:10;}
	.st3{opacity:0.15;fill:#12100B;}
	.st4{fill:#333E1F;}
	.st5{fill:#4CA276;}
	.st6{fill:#2A7A55;}
	.st7{opacity:0.2;fill:#12100B;}
	.st8{opacity:0.2;fill:#BCDDC1;}
	.st9{opacity:0.5;fill:#AED0B1;}
	.st10{display:inline;opacity:0.15;fill:#12100B;}
	.st11{display:inline;fill:#D5EDF8;}
	.st12{display:inline;opacity:0.4;}
	.st13{fill:#ECF7FD;}
	.st14{display:inline;opacity:0.25;}
	.st15{fill:#F2FAFE;}
	.st16{display:inline;opacity:0.5;fill:#FFFFFF;}
	.st17{fill:#D5EDF8;}
	.st18{opacity:0.4;}
	.st19{opacity:0.25;}
	.st20{opacity:0.5;fill:#FFFFFF;}
</style>
<g id="Calque_1">
</g>
<g id="圖層_1" class="st0">
	<g id="normalCell" class="st1">
		<g id="XMLID_15_">
			<path id="XMLID_282_" class="st2" d="M210.1,257.2L89.6,257c-9.4,0-18.2-4.9-22.8-12.8L6.6,142.8c-4.7-8-4.7-17.7,0-25.7
				L66.9,15.6c4.8-8,13.5-12.8,22.9-12.8L210.4,3c9.4,0,18.2,4.9,22.8,12.8l60.2,101.4c4.7,8,4.7,17.7,0,25.7l-60.4,101.4
				C228.3,252.3,219.6,257.2,210.1,257.2z"/>
		</g>
	</g>
</g>
<g id="Calque_7_-_copie">
	<path id="XMLID_75_" class="st3" d="M240.4,55.9c0.3-1.9,0.3-3.9,0.1-5.7c0-0.2-0.2-0.3-0.4-0.3l-4.1,0.3l4-0.9
		c0.2,0,0.3-0.2,0.3-0.4c-0.6-2.8-1.9-5.4-3.8-7.6c-0.5-0.6-1.3-0.6-1.9-0.2l-0.2,0.1l-3,2.5l2.4-2.6l1.1-1.2c0.1-0.1,0.1-0.4,0-0.5
		c-2.4-2.1-5.4-3.6-8.7-4.2c-0.2,0-0.4-0.1-0.6-0.1c-0.2,0-0.4,0.1-0.4,0.3l-0.1,0.5l0,0c0,0.2-0.4,2.4-0.6,2.4
		c-0.2,0-0.1-2.2-0.1-2.4v0l0-0.5c0-0.2-0.1-0.4-0.3-0.4c-2.9-0.2-5.8,0.4-8.3,1.6c-0.5,0.2-3.4,3-3.2,3.6l0.7,2.2l-1.2-2.6
		c-0.1-0.2-0.3-0.3-0.5-0.2c-2.5,1.5-5.7,5.9-7.2,8.4c0,0,0,0,0,0l3.8,0.2l-4.1,0.3c0,0,0,0,0,0c-1,1.7-1.6,3.6-2,5.6
		c-0.3,2-0.4,3.9-0.1,5.8c0,0,0,0,0,0l3.9-1.2l-3.8,1.8c0,0,0,0,0,0c0.8,4.4,3.3,8.3,6.8,10.9l3.3-3.1l-2.8,3.5c0,0,0,0,0,0
		c2,1.4,4.4,2.4,7,2.9c1,0.2,2,0.3,3,0.3c0,0,0,0,0,0l0-0.6c0-0.2-0.1-4.8,0.1-4.8c0.2,0,0.6,4.5,0.6,4.8l0.1,0.7c0,0,0,0,0,0
		c4-0.2,7.7-1.7,10.7-4.2c0,0,0,0,0,0l-1.6-2l1.9,1.8c0,0,0,0,0,0c2-1.8,7.2-8.5,8.3-11c0.1-0.2,0-0.3-0.1-0.4l-3-1.8l3,1.3
		c0.2,0.1,0.4,0,0.5-0.2C240,57.6,240.2,56.7,240.4,55.9z"/>
	<g id="Calque_2_-_copie_3_2_">
		<path id="XMLID_74_" class="st4" d="M241.3,56c0.4-2,0.4-4,0.1-6c0-0.2-0.2-0.3-0.4-0.3l-4.3,0.3l4.2-0.9c0.2,0,0.3-0.2,0.3-0.4
			c-0.7-2.9-2-5.7-3.9-7.9c-0.5-0.6-1.4-0.7-2-0.2l-0.2,0.1l-3.2,2.7l2.5-2.7l1.1-1.2c0.1-0.2,0.1-0.4,0-0.5
			c-2.5-2.2-5.6-3.8-9.2-4.5c-0.2,0-0.4-0.1-0.7-0.1c-0.2,0-0.4,0.1-0.4,0.3l-0.1,0.5l0,0c0,0.2-0.4,2.5-0.6,2.5
			c-0.2,0-0.1-2.3-0.1-2.6v0l0-0.5c0-0.2-0.2-0.4-0.4-0.4c-3.1-0.2-6.1,0.4-8.8,1.7c-0.6,0.3-0.8,0.9-0.7,1.5l0.7,2.4l-1.3-2.7
			c-0.1-0.2-0.3-0.3-0.5-0.2c-2.5,1.5-4.7,3.6-6.2,6.1c-0.1,0.2-0.1,0.4,0.1,0.5l2.7,2.4l-2.8-1.9c-0.2-0.1-0.4-0.1-0.5,0.1
			c-0.9,1.7-1.6,3.5-1.9,5.5c-0.3,1.9-0.4,3.8-0.1,5.6c0,0.2,0.3,0.4,0.5,0.3l3.7-1.1l-3.7,1.7c-0.2,0.1-0.2,0.2-0.2,0.4
			c0.9,4.4,3.4,8.3,6.9,11c0.1,0.1,0.4,0.1,0.5,0l3.3-3.1l-2.7,3.3c-0.1,0.2-0.1,0.4,0.1,0.6c2.1,1.4,4.4,2.3,7,2.8
			c0.9,0.2,1.9,0.3,2.8,0.3c0.2,0,0.4-0.2,0.4-0.4l0-0.3c0-0.2-0.1-5,0.1-5.1c0.2,0,0.6,4.8,0.7,5l0,0.3c0,0.2,0.2,0.3,0.4,0.3
			c3.9-0.2,7.6-1.7,10.6-4.1c0.2-0.1,0.2-0.4,0.1-0.5l-1.5-1.8l1.8,1.6c0.1,0.1,0.4,0.1,0.5,0c2-1.8,3.6-4.1,4.7-6.6
			c0.1-0.2,0-0.4-0.2-0.5l-3.1-1.9l3.2,1.4c0.2,0.1,0.4,0,0.5-0.2C240.9,57.8,241.1,56.9,241.3,56z"/>
		<path id="XMLID_73_" class="st5" d="M239.6,55.7c0.3-1.9,0.3-3.7,0.1-5.4c0-0.2-0.2-0.3-0.4-0.3l-3.9,0.3l3.8-0.8
			c0.2,0,0.3-0.2,0.3-0.4c-0.6-2.7-1.8-5.1-3.6-7.2c-0.5-0.5-1.3-0.6-1.8-0.2l-0.2,0.1l-2.9,2.4l2.3-2.5l1-1.1
			c0.1-0.1,0.1-0.4,0-0.5c-2.3-2-5.1-3.5-8.3-4.1c-0.2,0-0.4-0.1-0.6-0.1c-0.2,0-0.3,0.1-0.4,0.3l-0.1,0.5l0,0
			c0,0.2-0.4,2.3-0.6,2.3c-0.2,0-0.1-2.1-0.1-2.3v0l0-0.5c0-0.2-0.1-0.3-0.3-0.4c-2.8-0.2-5.6,0.4-8,1.5c-0.5,0.2-0.8,0.8-0.6,1.3
			l0.6,2.1l-1.1-2.5c-0.1-0.2-0.3-0.3-0.5-0.2c-2.3,1.4-4.2,3.3-5.7,5.6c-0.1,0.1-0.1,0.3,0.1,0.4l2.4,2.2l-2.6-1.7
			c-0.2-0.1-0.4-0.1-0.5,0.1c-0.8,1.5-1.4,3.2-1.7,5c-0.3,1.7-0.3,3.5-0.1,5.1c0,0.2,0.2,0.3,0.4,0.3l3.3-1l-3.4,1.6
			c-0.1,0.1-0.2,0.2-0.2,0.4c0.8,4,3.1,7.5,6.2,10c0.1,0.1,0.3,0.1,0.4,0l3-2.8l-2.5,3c-0.1,0.2-0.1,0.4,0.1,0.5
			c1.9,1.2,4,2.1,6.4,2.5c0.9,0.2,1.7,0.2,2.5,0.3c0.2,0,0.3-0.1,0.3-0.3l0-0.3c0-0.2-0.1-4.6,0.1-4.6c0.2,0,0.6,4.3,0.6,4.6l0,0.3
			c0,0.2,0.2,0.3,0.4,0.3c3.6-0.2,6.9-1.6,9.6-3.8c0.1-0.1,0.2-0.3,0-0.5l-1.3-1.7l1.6,1.5c0.1,0.1,0.3,0.1,0.5,0
			c1.8-1.6,3.3-3.7,4.2-6c0.1-0.2,0-0.3-0.1-0.4l-2.8-1.7l2.9,1.3c0.2,0.1,0.4,0,0.5-0.2C239.3,57.4,239.5,56.6,239.6,55.7z"/>
		<path id="XMLID_72_" class="st6" d="M238.8,55.6c0.3-1.7,0.1-3.3-0.1-4.9c0-0.2-0.2-0.3-0.3-0.3l-4.2,0.1l4.1-1.3
			c0.2,0,0.3-0.2,0.2-0.4c-0.5-2.4-1.4-4.5-3-6.4c-0.4-0.5-1.1-0.6-1.6-0.2l-0.1,0.1l-3.3,2.2l2-2.8l0.9-1c0.1-0.1,0.1-0.3,0-0.4
			c-2.1-1.8-4.2-3.2-7.1-3.7c-0.2,0-0.4-0.1-0.5-0.1c-0.2,0-0.3,0.1-0.3,0.3l-0.1,0.4l0,0c0,0.2-0.9,3-1,3c-0.1,0-0.5-2.7-0.5-2.9v0
			l0-0.4c0-0.2-0.1-0.3-0.3-0.3c-2.5-0.1-4.9,0.2-7.1,1.2c-0.5,0.2-0.7,0.7-0.5,1.2l0.8,2.9l-1.8-2.3c-0.1-0.2-0.6-0.8-0.7-0.7
			c-2.1,1.2-3.5,2.7-4.8,4.8c-0.1,0.1-0.1,0.5,0,0.6l2.8,2.7l-2.9-1.5c-0.2-0.1-0.9-0.2-0.9,0c-0.7,1.4-0.8,2.8-1.1,4.4
			c-0.3,1.6-0.5,2.5-0.3,4c0,0.2,0.5,0.6,1.1,0.4l3.3-0.7l-3.2,1.8c-0.1,0.1-0.2,0.2-0.2,0.3c0.7,3.6,2.8,6.8,5.6,9
			c0.1,0.1,0.3,0.1,0.4,0l2.8-2.4l-2.3,3.3c-0.1,0.1-0.1,0.4,0.1,0.5c1.7,1.1,3.4,1.9,5.5,2.3c0.8,0.1,1.2,0.1,1.9,0.1
			c0.2,0,0.3-0.1,0.3-0.3l0-0.2c0-0.2,0.4-4.7,0.5-4.7c0.2,0,0.7,3.9,0.7,4.1l0,0.3c0,0.2,0.2,0.3,0.3,0.3c3.2-0.2,6-0.7,8.5-2.7
			c0.1-0.1,0.2-0.3,0-0.4l-1.1-2.2l2.1,1.4c0.1,0.1,0.3,0.1,0.4,0c1.6-1.5,2.8-2.9,3.7-5c0.1-0.1,0-0.3-0.1-0.4l-3-2.1l3.7,1.1
			c0.2,0.1,0.4,0,0.4-0.2C238.7,56.8,238.7,56.3,238.8,55.6z"/>
		<path id="XMLID_71_" class="st7" d="M212.1,54.3c-0.3-0.3-0.4-0.8-0.2-1.2c0.2-0.4-1.5-1.4-1-1.9c0.2-0.2,0.6-0.1,0.8-0.4
			c0.3-0.3,0.1-0.8,0-1.3c-0.1-0.4-0.2-0.9-0.1-1.4s0.5-0.8,1-0.9c0.2,0,0.5,0.1,0.7,0.1c0.9,0,1.7-0.9,1.4-1.8
			c-0.1-0.6-0.6-1-0.9-1.6s0-1.4,0.6-1.4c0.3,0,0.5,0.2,0.8,0.3c0.6,0.1,3.1,0.5,3-0.1c-0.1-0.6-0.6-1.1-1.2-1.4
			c0.1-0.5,0.7-0.7,1.3-0.6c0.5,0.1,1.1,0.3,1.6,0.1c0.5-0.2,0.7-0.7,1-1.1c0.3-0.4,0.8-0.8,1.3-0.7c0.4,0.1,0.6,0.6,0.8,0.9
			c0.5,0.7,1.4,1.1,2.2,1.1c0.2,0,0.3,0,0.5,0c0.4,0.2,0.4,0.7,0.2,1.1s-0.3,0.8-0.1,1.2c0.2,0.3,0.5,0.4,0.8,0.4
			c0.3,0,0.6-0.1,0.9-0.2c0.2,0,0.4-0.1,0.6,0c0.2,0.1,0.3,0.4,0.3,0.7c0,0.6,0,1.3-0.2,1.9c0.6,0.6,2.5,0.2,3.1-0.5
			c0.3-0.3,0.6-0.9,1.1-0.8c0.5,0,0.7,0.6,0.8,1c0.1,0.5,0,1,0.4,1.3c0.4,0.5,1.4,0.5,1.4,1.1c0,0.7-1,0.8-1.3,1.5
			c-0.2,0.5,1,1.9,1.4,2.3c0.4,0.4,0.9,1,0.6,1.6c-0.5,1-4.1-0.4-4.6,0.6c-0.3,0.5,0.1,1.1,0.5,1.5c0.4,0.4,0.9,0.9,0.8,1.5
			c-0.1,0.4-0.4,0.7-0.7,0.9c-0.3-0.3-0.6-0.5-1-0.6c-0.4-0.1-0.8,0.1-0.9,0.5c-0.1,0.3,0.1,0.6,0.3,0.8c0.3,0.4,0.7,0.8,1.2,1
			c0.5,0.2,1.1,0.1,1.4-0.3c0.2-0.2,0.3-0.4,0.5-0.4c0.1,0,0.2,0.1,0.2,0.1c0.3,0.3,0.5,0.7,0.5,1.1c0,0.4-0.3,0.8-0.7,0.9
			c-0.4,0-0.7-0.2-1.1-0.1c-0.6,0.2-0.7,1.2-1.3,1.4c-0.6,0.2-1.1-0.4-1.7-0.4c-0.5,0-0.9,0.3-1.2,0.8c-0.2,0.4-0.3,0.9-0.5,1.4
			c-0.2,0.6-0.4,1.2-0.9,1.6c-0.5,0.4-1.2,0.6-1.7,0.3c-0.9-0.5-1-1.8-1.9-2.4c-0.1-0.1-0.3-0.1-0.4-0.1c-0.2,0-0.4,0.2-0.5,0.4
			c-0.3,0.4-0.8,0.8-1.3,0.9c-0.5,0.1-1.1-0.3-1.1-0.9c0-0.2,0.1-0.2-0.2-0.5c-0.3-0.2-0.7,0.2-1.1,0.3c-0.4,0.1-0.9,0.1-1.2-0.3
			c-0.3-0.3-0.4-0.8-0.1-1.2c0.2-0.3,0.7-0.5,1-0.8c0.5-0.4,0.5-1.2,0.1-1.7c-0.4-0.5-1.8-1-2.2-0.6c-0.3,0.3-0.5,0.7-0.9,0.7
			c-0.3,0-0.6-0.2-0.8-0.1c-0.6,0.1-0.7,0.9-1.3,1c-0.4,0.1-0.8-0.3-1-0.6c-0.3-0.4-0.6-0.9-0.4-1.3c0.2-0.6,0.9-0.9,0.9-1.5
			c0-0.4-0.3-0.7-0.7-0.9s0.2-0.8,0-1.2c-0.2-0.4,0-0.9,0.4-0.9"/>
	</g>
	<g id="Calque_2_-_copie_3_1_">
		<path id="XMLID_156_" class="st4" d="M233.6,52.8c0-1.2-0.2-2.3-0.6-3.4c0-0.1-0.1-0.2-0.3-0.1l-2.4,0.6l2.3-0.9
			c0.1,0,0.2-0.2,0.1-0.3c-0.7-1.6-1.7-3-3-4.1c-0.3-0.3-0.8-0.2-1.1,0.1l-0.1,0.1l-1.5,1.8l1.1-1.8l0.5-0.8c0.1-0.1,0-0.2-0.1-0.3
			c-1.6-1-3.5-1.6-5.6-1.6c-0.1,0-0.3,0-0.4,0c-0.1,0-0.2,0.1-0.2,0.2v0.3v0c0,0.1,0,1.5-0.1,1.5c-0.1,0-0.3-1.3-0.3-1.4l0,0l0-0.3
			c0-0.1-0.1-0.2-0.2-0.2c-1.8,0.2-3.4,0.9-4.8,1.8c-0.3,0.2-0.4,0.6-0.2,0.9l0.6,1.3l-1-1.4c-0.1-0.1-0.2-0.1-0.3,0
			c-1.3,1.1-2.3,2.5-2.9,4.1c0,0.1,0,0.2,0.1,0.3l1.7,1.1l-1.8-0.8c-0.1-0.1-0.3,0-0.3,0.1c-0.3,1-0.5,2.1-0.5,3.3
			c0,1.1,0.2,2.2,0.5,3.2c0,0.1,0.2,0.2,0.3,0.1l2-1l-1.9,1.4c-0.1,0.1-0.1,0.2-0.1,0.3c0.9,2.4,2.7,4.3,5,5.5c0.1,0,0.2,0,0.3-0.1
			l1.5-2l-1.2,2.1c-0.1,0.1,0,0.3,0.1,0.3c1.3,0.6,2.7,0.9,4.2,0.9c0.5,0,1.1,0,1.6-0.1c0.1,0,0.2-0.1,0.2-0.2l0-0.2
			c0-0.1-0.5-2.8-0.5-2.9c0.1,0,0.8,2.6,0.9,2.8l0.1,0.2c0,0.1,0.1,0.2,0.3,0.1c2.2-0.5,4.1-1.7,5.6-3.4c0.1-0.1,0.1-0.2,0-0.3
			l-1-0.9l1.2,0.7c0.1,0.1,0.2,0,0.3,0c0.9-1.2,1.6-2.6,2-4.2c0-0.1,0-0.2-0.1-0.2l-1.9-0.8l1.9,0.5c0.1,0,0.2-0.1,0.3-0.2
			C233.5,53.8,233.6,53.3,233.6,52.8z"/>
		<path id="XMLID_155_" class="st5" d="M232.3,52.8c0-1-0.2-2-0.5-3c0-0.1-0.1-0.1-0.2-0.1l-2.1,0.5l2-0.8c0.1,0,0.1-0.2,0.1-0.2
			c-0.6-1.4-1.5-2.6-2.6-3.6c-0.3-0.2-0.7-0.2-1,0.1l-0.1,0.1l-1.3,1.6l1-1.6l0.4-0.7c0.1-0.1,0-0.2-0.1-0.3
			c-1.4-0.9-3.1-1.4-4.9-1.4c-0.1,0-0.2,0-0.3,0c-0.1,0-0.2,0.1-0.2,0.2v0.3v0c0,0.1,0,1.3-0.1,1.3c-0.1,0-0.3-1.1-0.3-1.3v0l0-0.3
			c0-0.1-0.1-0.2-0.2-0.2c-1.5,0.2-3,0.8-4.2,1.6c-0.3,0.2-0.3,0.5-0.2,0.8L218,47l-0.9-1.2c-0.1-0.1-0.2-0.1-0.3,0
			c-1.1,1-2,2.2-2.6,3.6c0,0.1,0,0.2,0.1,0.2l1.5,1l-1.6-0.7c-0.1,0-0.2,0-0.3,0.1c-0.3,0.9-0.5,1.9-0.5,2.9c0,1,0.2,1.9,0.4,2.8
			c0,0.1,0.2,0.2,0.3,0.1l1.7-0.9l-1.7,1.2c-0.1,0.1-0.1,0.1-0.1,0.2c0.8,2.1,2.4,3.8,4.4,4.8c0.1,0,0.2,0,0.2-0.1l1.4-1.8l-1,1.9
			c-0.1,0.1,0,0.2,0.1,0.3c1.1,0.5,2.4,0.8,3.7,0.8c0.5,0,0.9,0,1.4-0.1c0.1,0,0.2-0.1,0.2-0.2l0-0.1c0-0.1-0.5-2.5-0.4-2.5
			c0.1,0,0.7,2.3,0.8,2.4l0.1,0.2c0,0.1,0.1,0.2,0.2,0.1c1.9-0.5,3.6-1.5,4.9-3c0.1-0.1,0.1-0.2,0-0.3l-0.9-0.8l1,0.7
			c0.1,0.1,0.2,0,0.3,0c0.8-1.1,1.4-2.3,1.7-3.7c0-0.1,0-0.2-0.1-0.2l-1.7-0.7l1.7,0.4c0.1,0,0.2,0,0.2-0.2
			C232.3,53.7,232.3,53.2,232.3,52.8z"/>
		<path id="XMLID_154_" class="st6" d="M231.9,52.8c0-0.9-0.3-1.8-0.5-2.6c0-0.1-0.1-0.1-0.2-0.1l-2.3,0.4l2.1-1.1
			c0.1,0,0.1-0.1,0.1-0.2c-0.5-1.3-1.2-2.3-2.3-3.2c-0.3-0.2-0.7-0.2-0.9,0.1l-0.1,0.1l-1.6,1.5L227,46l0.4-0.6c0-0.1,0-0.2-0.1-0.2
			c-1.3-0.8-2.6-1.3-4.2-1.3c-0.1,0-0.2,0-0.3,0c-0.1,0-0.2,0.1-0.2,0.2v0.2v0c0,0.1-0.2,1.7-0.3,1.7c-0.1,0-0.5-1.4-0.6-1.5v0
			l0-0.2c0-0.1-0.1-0.2-0.2-0.1c-1.4,0.2-2.6,0.6-3.7,1.3c-0.2,0.2-0.3,0.5-0.2,0.7l0.7,1.5l-1.2-1.1c-0.1-0.1-0.4-0.4-0.5-0.3
			c-1,0.9-1.6,1.8-2.1,3.1c0,0.1,0,0.3,0.1,0.3l1,0.5l-0.9,0.2c-0.1,0-0.5,0-0.5,0.1c-0.3,0.8-0.2,1.6-0.2,2.5
			c0,0.9-0.1,1.4,0.2,2.2c0,0.1,0.3,0.3,0.6,0.1l1.7-0.7l-1.5,1.3c-0.1,0-0.1,0.1-0.1,0.2c0.7,1.9,2.2,3.4,3.9,4.4
			c0.1,0,0.2,0,0.2,0l1.3-1.6l-0.9,2c0,0.1,0,0.2,0.1,0.2c1,0.4,2,0.7,3.2,0.7c0.4,0,0.7-0.1,1.1-0.1c0.1,0,0.2-0.1,0.1-0.2l0-0.1
			c0-0.1-0.2-2.6-0.2-2.6c0.1,0,0.7,2.1,0.8,2.2l0,0.1c0,0.1,0.1,0.1,0.2,0.1c1.7-0.4,3.2-1,4.3-2.3c0.1-0.1,0.1-0.2,0-0.2l-0.8-1.1
			l1.3,0.6c0.1,0,0.2,0,0.2,0c0.7-1,1.2-1.8,1.5-3.1c0-0.1,0-0.2-0.1-0.2l-1.8-0.9l2.1,0.2c0.1,0,0.2,0,0.2-0.1
			C231.9,53.5,231.9,53.2,231.9,52.8z"/>
		<path id="XMLID_153_" class="st7" d="M226.4,58.3c-0.1,0.2-0.3,0.4-0.5,0.4c-0.2,0-0.5-0.1-0.6-0.3c-0.1-0.1-0.2-0.2-0.4-0.3
			c-0.2-0.1-0.9-0.2-1-0.1c-0.2,0.2-0.4,0.3-0.6,0.3c-0.2,0-0.5-0.1-0.6-0.3c-0.1-0.1-0.1-0.2-0.1-0.4c-0.2-0.4-0.8-0.6-1.2-0.3
			c-0.2,0.2-0.3,0.5-0.6,0.8c-0.2,0.2-0.7,0.3-0.8,0c-0.1-0.1,0-0.3-0.1-0.5c-0.1-0.3-0.5-0.4-0.8-0.2c-0.3,0.2-0.4,0.5-0.4,0.9
			c-0.3,0.1-0.5-0.2-0.6-0.5c-0.1-0.3-0.1-0.6-0.3-0.8c-0.2-0.2-0.5-0.2-0.8-0.3c-0.3,0-0.6-0.2-0.6-0.5c0-0.2,0.1-0.4,0.2-0.6
			c0.2-0.4,0.2-0.9,0-1.3c0-0.1-0.1-0.1-0.1-0.2c0-0.2,0.3-0.3,0.5-0.4s-0.4-0.8-0.2-0.9c0.1-0.1,0.1-0.3,0-0.5
			c-0.1-0.2-0.2-0.3-0.3-0.4c-0.1-0.1-0.1-0.2-0.1-0.3c0-0.1,0.1-0.2,0.3-0.3c0.3-0.2,0.6-0.3,0.9-0.3c0.1-0.4-0.1-1-0.5-1.1
			c-0.2-0.1-0.6-0.1-0.7-0.4c-0.1-0.2,0.1-0.5,0.3-0.6s0.5-0.2,0.6-0.5c0.1-0.3,0.8-0.1,1.1-0.2c0.3-0.2,0.6-1,0.9-1
			c0.3,0,0.5-0.4,0.6-0.7s0.3-0.7,0.6-0.6c0.6,0,0.5,1.3,1.1,1.3c0.3,0,0.5-0.3,0.6-0.6c0.1-0.3,0.2-0.6,0.5-0.7
			c0.2,0,0.5,1.4,0.7,1.5c-0.1,0.2-0.1,0.4-0.1,0.6s0.3,0.4,0.5,0.3c0.2,0,0.2-0.2,0.3-0.3c0.1-0.2,0.2-0.5,0.2-0.8
			s-0.2-0.6-0.5-0.6c-0.1,0-0.3-0.1-0.3-0.2c0,0,0-0.1,0-0.1c0.1-0.2,0.2-0.4,0.4-0.5c0.2-0.1,0.5,0,0.6,0.2
			c0.1,0.2,0.1,0.4,0.2,0.6c0.2,0.3,0.7,0.1,1,0.3c0.2,0.2,0.1,0.6,0.2,0.9c0.1,0.2,0.4,0.4,0.6,0.4c0.3,0,0.5-0.1,0.8-0.1
			c0.3-0.1,0.7-0.1,1,0.1c0.3,0.1,0.5,0.4,0.5,0.8c0,0.6-0.7,0.9-0.8,1.5c0,0.1,0,0.2,0,0.2c0.1,0.1,0.2,0.1,0.3,0.1
			c0.3,0.1,0.6,0.2,0.7,0.4s0.8,0.5,0.5,0.7c-0.2,0.2-0.6,0.2-0.6,0.5c-0.1,0.2,0.2,0.3,0.3,0.5c0.2,0.2,0.2,0.4,0.2,0.7
			c-0.1,0.2-0.3,0.4-0.6,0.3c-0.2,0-0.4-0.2-0.6-0.3c-0.3-0.1-1.4-0.1-1.5,0.2c-0.1,0.3,0,0.7,0.3,0.8c0.2,0.1,0.4,0.1,0.6,0.3
			c0.1,0.1,0.5,0.7,0.5,0.8c0.2,0.3,0.6,0.2,0.8,0.4c0.1,0.2,0,0.4-0.1,0.6c-0.1,0.2-0.3,0.5-0.5,0.5c-0.3,0-0.6-0.3-0.9-0.1
			c-0.2,0.1-0.3,0.3-0.3,0.5s0,0.4-0.2,0.6c-0.1,0.2-0.4,0.2-0.5,0"/>
	</g>
	<g id="Calque_2_-_copie_3">
		<path id="XMLID_64_" class="st4" d="M229,50.8c-0.2-0.7-0.5-1.3-0.9-1.8c0-0.1-0.1-0.1-0.2,0l-1.3,0.8l1.1-1c0.1,0,0.1-0.1,0-0.2
			c-0.7-0.8-1.5-1.4-2.5-1.8c-0.2-0.1-0.5,0-0.6,0.3l0,0.1l-0.5,1.3l0.3-1.2l0.1-0.5c0-0.1,0-0.1-0.1-0.2c-1.1-0.3-2.3-0.2-3.5,0.1
			c-0.1,0-0.1,0-0.2,0.1c-0.1,0-0.1,0.1-0.1,0.2l0.1,0.2l0,0c0,0.1,0.3,0.8,0.2,0.8c-0.1,0-0.4-0.7-0.5-0.8v0l-0.1-0.2
			c0-0.1-0.1-0.1-0.2-0.1c-1,0.5-1.8,1.1-2.4,1.9c-0.1,0.2-0.1,0.4,0,0.6l0.6,0.6l-0.8-0.6c-0.1,0-0.1,0-0.2,0
			c-0.5,0.9-0.8,1.8-0.9,2.9c0,0.1,0,0.1,0.1,0.1l1.2,0.3l-1.2-0.1c-0.1,0-0.1,0.1-0.1,0.1c0,0.7,0.1,1.3,0.3,2
			c0.2,0.6,0.5,1.2,0.9,1.7c0,0.1,0.1,0.1,0.2,0l0.9-0.9l-0.8,1.1c0,0,0,0.1,0,0.2c1,1.2,2.4,2,3.9,2.2c0.1,0,0.1,0,0.1-0.1l0.5-1.5
			l-0.3,1.4c0,0.1,0,0.1,0.1,0.2c0.8,0.1,1.7,0,2.6-0.3c0.3-0.1,0.6-0.2,0.9-0.4c0.1,0,0.1-0.1,0.1-0.2l0-0.1c0-0.1-0.8-1.5-0.8-1.5
			c0.1,0,1,1.3,1,1.4l0.1,0.1c0,0.1,0.1,0.1,0.2,0c1.2-0.7,2-1.8,2.5-3c0-0.1,0-0.1-0.1-0.2l-0.7-0.3l0.8,0.2c0.1,0,0.1,0,0.2-0.1
			c0.3-0.9,0.4-1.8,0.3-2.8c0-0.1-0.1-0.1-0.1-0.1l-1.2-0.1l1.2-0.1c0.1,0,0.1-0.1,0.1-0.1C229.2,51.4,229.1,51.1,229,50.8z"/>
		<path id="XMLID_63_" class="st5" d="M227.9,51.1c-0.2-0.6-0.4-1.1-0.8-1.5c0,0-0.1-0.1-0.1,0l-1,0.7l0.9-0.8c0,0,0.1-0.1,0-0.2
			c-0.6-0.6-1.3-1.1-2-1.4c-0.2-0.1-0.4,0-0.5,0.2l0,0.1l-0.4,1.1l0.3-1l0.1-0.5c0-0.1,0-0.1-0.1-0.1c-0.9-0.2-1.9-0.2-2.9,0.1
			c-0.1,0-0.1,0-0.2,0.1c-0.1,0-0.1,0.1-0.1,0.1l0,0.1l0,0c0,0.1,0.2,0.7,0.2,0.7c0,0-0.3-0.6-0.4-0.6l0,0l-0.1-0.1
			c0-0.1-0.1-0.1-0.1-0.1c-0.8,0.4-1.5,0.9-2,1.6c-0.1,0.1-0.1,0.3,0,0.5l0.5,0.5l-0.7-0.5c-0.1,0-0.1,0-0.2,0
			c-0.4,0.7-0.7,1.5-0.7,2.4c0,0.1,0,0.1,0.1,0.1l1,0.2l-1-0.1c-0.1,0-0.1,0-0.1,0.1c0,0.5,0.1,1.1,0.3,1.6c0.2,0.5,0.4,1,0.7,1.4
			c0,0.1,0.1,0.1,0.2,0l0.8-0.8l-0.7,0.9c0,0,0,0.1,0,0.1c0.8,1,1.9,1.6,3.2,1.8c0.1,0,0.1,0,0.1-0.1l0.4-1.2l-0.2,1.2
			c0,0.1,0,0.1,0.1,0.1c0.7,0.1,1.4,0,2.1-0.2c0.3-0.1,0.5-0.2,0.7-0.3c0.1,0,0.1-0.1,0-0.1l0-0.1c0-0.1-0.7-1.2-0.7-1.3
			c0,0,0.8,1.1,0.8,1.2l0.1,0.1c0,0,0.1,0.1,0.1,0c1-0.6,1.7-1.4,2.1-2.4c0-0.1,0-0.1-0.1-0.1l-0.6-0.3l0.7,0.2c0.1,0,0.1,0,0.1-0.1
			c0.3-0.7,0.4-1.5,0.3-2.3c0-0.1,0-0.1-0.1-0.1l-1-0.1l1-0.1c0.1,0,0.1-0.1,0.1-0.1C228.1,51.6,228,51.4,227.9,51.1z"/>
		<path id="XMLID_62_" class="st6" d="M227.7,51.2c-0.2-0.5-0.4-0.9-0.7-1.3c0,0-0.1-0.1-0.1,0l-1.1,0.6l0.9-0.9c0,0,0-0.1,0-0.1
			c-0.5-0.6-1.1-1-1.8-1.3c-0.2-0.1-0.4,0-0.5,0.2l0,0.1l-0.6,1.1l0.1-1.1L224,48c0-0.1,0-0.1-0.1-0.1c-0.8-0.2-1.6-0.3-2.5,0
			c-0.1,0-0.1,0-0.2,0.1c0,0-0.1,0.1-0.1,0.1l0,0.1l0,0c0,0.1,0.2,1,0.2,1c0,0-0.5-0.7-0.6-0.7v0l-0.1-0.1c0,0-0.1-0.1-0.1,0
			c-0.7,0.3-1.3,0.8-1.8,1.4c-0.1,0.1-0.1,0.3,0,0.4l0.7,0.7l-0.8-0.4c0,0-0.3-0.1-0.3-0.1c-0.4,0.6-0.6,1.2-0.6,2
			c0,0,0.1,0.2,0.1,0.2l1.2,0.3l-1,0c-0.1,0-0.3,0.1-0.3,0.1c0,0.5,0.2,0.9,0.4,1.4c0.2,0.5,0.2,0.8,0.5,1.1c0,0,0.2,0.1,0.4-0.1
			l0.8-0.7l-0.6,1c0,0,0,0.1,0,0.1c0.7,0.9,1.8,1.5,2.9,1.7c0,0,0.1,0,0.1-0.1l0.4-1.1l-0.1,1.2c0,0.1,0,0.1,0.1,0.1
			c0.6,0.1,1.2,0,1.8-0.2c0.2-0.1,0.3-0.1,0.6-0.3c0,0,0.1-0.1,0-0.1l0-0.1c0-0.1-0.6-1.4-0.5-1.4c0,0,0.8,1,0.8,1l0,0.1
			c0,0,0.1,0.1,0.1,0c0.9-0.5,1.6-1.1,1.9-2c0,0,0-0.1-0.1-0.1l-0.6-0.4l0.8,0.1c0,0,0.1,0,0.1-0.1c0.2-0.6,0.3-1.2,0.3-1.9
			c0,0,0-0.1-0.1-0.1l-1.1-0.1l1.2-0.2c0.1,0,0.1-0.1,0.1-0.1C227.9,51.6,227.8,51.4,227.7,51.2z"/>
		<path id="XMLID_61_" class="st8" d="M222.3,55.6c-0.1,0-0.2,0-0.3-0.1c-0.1-0.1-0.1-0.2-0.1-0.3c0-0.1,0-0.2,0-0.2
			c-0.1-0.1-0.2-0.1-0.3-0.1c-0.1,0-0.2,0-0.3-0.1c-0.1-0.1-0.2-0.2-0.1-0.3c0-0.1,0.1-0.1,0.1-0.2c0.1-0.2-0.1-0.5-0.3-0.5
			c-0.2,0-0.3,0.1-0.5,0.1s-0.3-0.1-0.3-0.3c0-0.1,0.1-0.1,0.1-0.2c0.1-0.1,0-0.3-0.2-0.4c-0.2,0-0.3,0-0.4,0.2
			c-0.1-0.1-0.1-0.3,0-0.4c0.1-0.1,0.2-0.2,0.2-0.4c0-0.1-0.1-0.2-0.2-0.4c-0.1-0.1-0.1-0.3,0-0.4c0.1-0.1,0.2-0.1,0.3-0.1
			c0.2-0.1,0.4-0.2,0.5-0.4c0,0,0-0.1,0.1-0.1c0.1-0.1,0.2,0,0.3,0s0.2,0.2,0.3,0.1c0.1,0,0.1-0.1,0.2-0.2c0-0.1,0-0.2,0-0.3
			c0,0,0-0.1,0.1-0.1c0.1,0,0.1,0,0.2,0c0.2,0.1,0.3,0.1,0.4,0.2c0.2-0.1,0.3-0.4,0.2-0.6c-0.1-0.1-0.2-0.2-0.1-0.4
			c0-0.1,0.2-0.1,0.3-0.1c0.1,0,0.2,0.1,0.4,0c0.2-0.1,0.3-0.3,0.4-0.2c0.2,0.1,0.1,0.3,0.2,0.5c0.1,0.1,0.3,0.1,0.4,0
			c0.1-0.1,0.3-0.1,0.4,0c0.2,0.2-0.3,0.6-0.1,0.8c0.1,0.1,0.3,0.1,0.4,0s0.3-0.1,0.4-0.1c0.1,0.1,0.1,0.2,0.1,0.3
			c-0.1,0-0.2,0.1-0.2,0.2c-0.1,0.1,0,0.2,0,0.3c0.1,0,0.1,0,0.2,0c0.1,0,0.3-0.1,0.3-0.2c0.1-0.1,0.1-0.3,0.1-0.4
			c0-0.1-0.1-0.1,0-0.2c0,0,0,0,0.1,0c0.1-0.1,0.2-0.1,0.3,0c0.1,0,0.2,0.2,0.1,0.3c0,0.1-0.1,0.2-0.1,0.3c0,0.2,0.2,0.3,0.2,0.4
			c0,0.2-0.2,0.2-0.3,0.4c-0.1,0.1,0,0.3,0.1,0.4c0.1,0.1,0.2,0.2,0.3,0.2c0.1,0.1,0.2,0.2,0.3,0.4c0.1,0.2,0,0.3-0.1,0.5
			c-0.2,0.2-0.5,0.1-0.8,0.2c0,0-0.1,0.1-0.1,0.1c0,0.1,0,0.1,0.1,0.2c0.1,0.1,0.1,0.3,0.1,0.4s-0.2,0.2-0.3,0.2
			c-0.1,0-0.2-0.2-0.3-0.1c-0.1,0-0.1,0.2-0.1,0.3c0,0.1-0.1,0.2-0.2,0.3s-0.2,0-0.3-0.1c-0.1-0.1,0-0.2-0.1-0.3
			c-0.1-0.2-0.3-0.2-0.4-0.2c-0.2,0.1-0.2,0.2-0.2,0.4c0,0.1,0.1,0.2,0.1,0.3c0,0.1-0.1,0.1-0.1,0.2c0,0.1,0.2,0.3,0.1,0.4
			c0,0.1-0.1,0.2-0.2,0.2c-0.1,0-0.3,0.1-0.4,0c-0.1-0.1-0.1-0.3-0.3-0.4c-0.1,0-0.2,0-0.3,0.1s-0.2,0.1-0.3,0.2
			C222.4,55.8,222.3,55.7,222.3,55.6"/>
	</g>
	<path id="XMLID_60_" class="st9" d="M220.4,52.8c0,0,2.6-0.6,2.6-1.8c0,0,0.5,1.8,2.1,1.9c0,0-2.3,0.9-2.4,2.2
		C222.8,55,222.7,52.9,220.4,52.8z"/>
	<path id="XMLID_59_" class="st9" d="M221.7,52.9c0,0,1.2-0.3,1.2-0.8c0,0,0.2,0.8,1,0.9c0,0-1,0.4-1.1,1
		C222.8,53.9,222.7,52.9,221.7,52.9z"/>
	<g id="Calque_5_-_copie_3_2_" class="st0">
		<path id="XMLID_131_" class="st10" d="M222.8,41.3l-0.5,0c-0.6,0-1.2,0.1-1.7,0.2l-2.5,0.7c-0.9,0.2-1.8-0.3-2-1.3
			c0-0.2-0.1-0.4-0.2-0.6l-0.1-0.3c-0.1-0.1-0.1-0.3-0.1-0.4l-0.1-0.5c-0.1-0.5,0-1,0.3-1.4c0.4-0.5,1-0.8,1.6-0.8l0.3,0
			c0.4,0,0.8,0,1.1-0.1l3.3-0.8c1-0.2,1.9,0.4,2.2,1.4c0,0.1,0,0.2,0,0.3l0,0.4c0,0.3,0.1,0.6,0.1,0.9l0.1,0.3
			c0.2,0.9-0.3,1.6-1.2,1.9C223.2,41.2,223,41.3,222.8,41.3z"/>
		<path id="XMLID_130_" class="st11" d="M222.6,41.1l-0.5,0c-0.5,0-1,0.1-1.6,0.2l-2.3,0.6c-0.9,0.2-1.6-0.3-1.8-1.2
			c0-0.2-0.1-0.4-0.2-0.6l-0.1-0.3c0-0.1-0.1-0.2-0.1-0.4l-0.1-0.4c-0.1-0.5,0-0.9,0.3-1.3c0.3-0.5,0.9-0.7,1.4-0.7l0.3,0
			c0.3,0,0.7,0,1-0.1l3-0.7c0.9-0.2,1.7,0.4,2,1.3c0,0.1,0,0.2,0,0.3l0,0.4c0,0.3,0.1,0.6,0.1,0.8l0.1,0.3c0.1,0.8-0.3,1.4-1.1,1.7
			C222.9,41,222.8,41.1,222.6,41.1z"/>
		<g id="XMLID_126_" class="st12">
			<g id="XMLID_128_">
				<path id="XMLID_129_" class="st13" d="M220.3,37.7c-0.5,0.5-2.6-0.9-3.3-0.5c-0.8,0.4-0.1,1.2,0.4,2.2c1,1,2.2,3.1,3.7,2.8
					c1.5-0.3,1.5-2.1,1.5-4c-0.5-0.5,0-1.9-0.7-2c-0.8-0.1-1.8,1.8-2.3,1.8l-0.7-0.3C219.2,38.1,220.3,37.7,220.3,37.7z"/>
			</g>
		</g>
		<g id="XMLID_122_" class="st14">
			<g id="XMLID_124_">
				<path id="XMLID_125_" class="st15" d="M220.3,38.7c-0.5,0.5-2.2-0.7-2.4-0.4s0,0.2-0.5,0.7c1.5-0.8,2.2,3.7,3.7,2.4
					c0.5-0.4-0.4-2.3,0.6-3.7c-0.5,0,0-0.7-0.5-0.7s-1,2-1.5,2l-0.7-0.3C219.2,39.1,220.3,38.7,220.3,38.7z"/>
			</g>
		</g>
		
			<ellipse id="XMLID_121_" transform="matrix(-0.3109 0.9504 -0.9504 -0.3109 328.0893 -160.3037)" class="st16" cx="222.2" cy="38.8" rx="0.2" ry="0.2"/>
		
			<ellipse id="XMLID_120_" transform="matrix(0.2386 0.9711 -0.9711 0.2386 205.0042 -184.8792)" class="st16" cx="220.4" cy="38.3" rx="0.2" ry="0.2"/>
		<circle id="XMLID_119_" class="st16" cx="218.5" cy="39.3" r="0.1"/>
	</g>
	<g id="Calque_5_-_copie_3_1_">
		<path id="XMLID_45_" class="st3" d="M224.9,63.9l0.5-0.1c0.6-0.1,1.1-0.3,1.7-0.5l2.4-1.1c0.9-0.3,1.8,0,2.2,1
			c0.1,0.2,0.2,0.4,0.3,0.6l0.2,0.3c0.1,0.1,0.1,0.2,0.2,0.4l0.2,0.4c0.2,0.5,0.1,1-0.1,1.5c-0.3,0.6-0.8,1-1.5,1.1l-0.3,0
			c-0.4,0.1-0.8,0.2-1.1,0.3l-3.1,1.3c-0.9,0.3-2-0.1-2.4-1c0-0.1-0.1-0.2-0.1-0.3l-0.1-0.4c-0.1-0.3-0.2-0.6-0.3-0.9l-0.1-0.3
			c-0.3-0.9,0.1-1.7,0.9-2.1C224.5,64,224.7,63.9,224.9,63.9z"/>
		<path id="XMLID_44_" class="st17" d="M225.2,64.1l0.5-0.1c0.5-0.1,1-0.2,1.5-0.5l2.2-1c0.8-0.3,1.7,0,2,0.9
			c0.1,0.2,0.2,0.4,0.3,0.5l0.2,0.3c0.1,0.1,0.1,0.2,0.2,0.3l0.1,0.4c0.2,0.5,0.1,0.9-0.1,1.3c-0.2,0.5-0.8,0.9-1.3,1l-0.3,0
			c-0.4,0.1-0.7,0.2-1,0.3l-2.9,1.2c-0.9,0.3-1.8-0.1-2.2-0.9c0-0.1-0.1-0.2-0.1-0.3l-0.1-0.4c-0.1-0.3-0.2-0.5-0.3-0.8l-0.1-0.3
			c-0.3-0.8,0.1-1.5,0.8-1.9C224.9,64.1,225,64.1,225.2,64.1z"/>
		<g id="XMLID_40_" class="st18">
			<g id="XMLID_42_">
				<path id="XMLID_43_" class="st13" d="M228.9,66.3c0.4-0.4,2.1,0.9,2.4,0.7c0.5-0.3-0.7-1.1-0.7-1.7c-0.5-1.1-0.4-2.6-1.3-2.6
					c-0.8,0-1.8,2.2-2.7,2.2c-0.7,0-3.3-1-3.3,0.4c0,0.6,2.1,0.8,3.1,2c0.5,0.5,0.9,1.8,1.7,1.4c0.7-0.4,1-2.8,1.5-2.8l0.7,0.3
					C229.9,65.9,228.9,66.3,228.9,66.3z"/>
			</g>
		</g>
		<g id="XMLID_34_" class="st19">
			<g id="XMLID_38_">
				<path id="XMLID_39_" class="st15" d="M227.6,67c0-0.5,2.1-0.6,2.4-1.1s-0.1-0.5-0.1-1c-0.7,0.7-3-2.8-4-1.6
					c-0.4,0.4,1,1.9,0.7,3.6c0.5,0,0,1.1,0.5,1.1s1-2,1.5-2l0,0C228.1,66,227.6,67,227.6,67z"/>
			</g>
		</g>
		
			<ellipse id="XMLID_33_" transform="matrix(0.1449 -0.9894 0.9894 0.1449 127.6966 280.3135)" class="st20" cx="226" cy="66.3" rx="0.2" ry="0.2"/>
		
			<ellipse id="XMLID_32_" transform="matrix(-0.4001 -0.9165 0.9165 -0.4001 258.1493 301.8965)" class="st20" cx="227.9" cy="66.5" rx="0.2" ry="0.3"/>
		<circle id="XMLID_30_" class="st20" cx="229.6" cy="65.1" r="0.1"/>
	</g>
	<g id="Calque_5_-_copie_3">
		<path id="XMLID_49_" class="st3" d="M211.7,48.7l-0.2,0.4c-0.2,0.4-0.3,0.9-0.4,1.3l-0.3,2.1c-0.2,0.8-0.8,1.2-1.6,1.1
			c-0.2,0-0.3-0.1-0.5-0.1l-0.3,0c-0.1,0-0.2,0-0.3,0l-0.4-0.1c-0.4-0.1-0.7-0.3-1-0.7c-0.3-0.4-0.3-1-0.1-1.4l0.1-0.2
			c0.1-0.3,0.2-0.6,0.3-0.9l0.4-2.7c0.2-0.8,0.9-1.3,1.7-1.2c0.1,0,0.2,0,0.2,0.1l0.3,0.1c0.2,0.1,0.5,0.1,0.7,0.2l0.3,0
			c0.7,0.2,1.1,0.7,1,1.4C211.8,48.4,211.8,48.5,211.7,48.7z"/>
		<path id="XMLID_48_" class="st17" d="M211.5,48.8l-0.2,0.4c-0.2,0.4-0.3,0.8-0.3,1.2l-0.2,1.9c-0.2,0.7-0.7,1.1-1.4,1
			c-0.2,0-0.3,0-0.5-0.1l-0.2,0c-0.1,0-0.2,0-0.3,0l-0.3-0.1c-0.4-0.1-0.7-0.3-0.9-0.6c-0.2-0.4-0.3-0.9-0.1-1.3l0.1-0.2
			c0.1-0.3,0.2-0.5,0.2-0.8l0.4-2.4c0.2-0.7,0.8-1.2,1.5-1.1c0.1,0,0.1,0,0.2,0.1l0.3,0.1c0.2,0.1,0.4,0.1,0.7,0.2l0.2,0
			c0.7,0.1,1,0.7,0.9,1.3C211.6,48.5,211.5,48.7,211.5,48.8z"/>
		<g id="XMLID_28_" class="st18">
			<g id="XMLID_46_">
				<path id="XMLID_47_" class="st13" d="M208.6,50c0,0.7-2.2,2-1.6,2.7c0.3,0.3,1.1-0.9,2-0.5c0-1,2.2-1,2.6-2.1
					c0.4-1.2-0.7-1.6-2.3-2.1c-0.5,0-1.7-0.9-2-0.3C207,48.3,208.6,49.5,208.6,50l-1,1C208.1,51,208.6,50,208.6,50z"/>
			</g>
		</g>
		<g id="XMLID_19_" class="st19">
			<g id="XMLID_21_">
				<path id="XMLID_22_" class="st15" d="M208.3,49.3c0.4,0.4-0.9,2.1-0.7,2.4c0.3,0.5,1.4-0.7,2-0.7c0.6,0,2.3,0.1,2.1-1
					c-0.1-0.6-1.6-0.3-2.3-1c-0.5,0.5-1.3-0.9-1.5-0.7s0.9,1.9,0.4,2.4l0,0C208.7,50.4,208.3,49.3,208.3,49.3z"/>
			</g>
		</g>
		
			<ellipse id="XMLID_18_" transform="matrix(0.7601 0.6498 -0.6498 0.7601 81.7565 -124.61)" class="st20" cx="209.6" cy="48.4" rx="0.2" ry="0.2"/>
		
			<ellipse id="XMLID_17_" transform="matrix(0.9887 0.1496 -0.1496 0.9887 9.7703 -30.6784)" class="st20" cx="208.7" cy="49.6" rx="0.2" ry="0.2"/>
		<circle id="XMLID_16_" class="st20" cx="208.9" cy="51.3" r="0.1"/>
	</g>
</g>
<g id="Calque_7_-_copie_2">
	<path id="XMLID_92_" class="st3" d="M260.4,171.4c0.3-1.9,0.3-3.9,0.1-5.7c0-0.2-0.2-0.3-0.4-0.3l-4.1,0.3l4-0.9
		c0.2,0,0.3-0.2,0.3-0.4c-0.6-2.8-1.9-5.4-3.8-7.6c-0.5-0.6-1.3-0.6-1.9-0.2l-0.2,0.1l-3,2.5l2.4-2.6l1.1-1.2c0.1-0.1,0.1-0.4,0-0.5
		c-2.4-2.1-5.4-3.6-8.7-4.2c-0.2,0-0.4-0.1-0.6-0.1c-0.2,0-0.4,0.1-0.4,0.3l-0.1,0.5l0,0c0,0.2-0.4,2.4-0.6,2.4
		c-0.2,0-0.1-2.2-0.1-2.4l0,0l0-0.5c0-0.2-0.1-0.4-0.3-0.4c-2.9-0.2-5.8,0.4-8.3,1.6c-0.5,0.2-3.4,3-3.2,3.6l0.7,2.2l-1.2-2.6
		c-0.1-0.2-0.3-0.3-0.5-0.2c-2.5,1.5-5.7,5.9-7.2,8.4c0,0,0,0,0,0l3.8,0.2l-4.1,0.3c0,0,0,0,0,0c-1,1.7-1.6,3.6-2,5.6
		c-0.3,2-0.4,3.9-0.1,5.8c0,0,0,0,0,0l3.9-1.2l-3.8,1.8c0,0,0,0,0,0c0.8,4.4,3.3,8.3,6.8,10.9l3.3-3.1l-2.8,3.5c0,0,0,0,0,0
		c2,1.4,4.4,2.4,7,2.9c1,0.2,2,0.3,3,0.3c0,0,0,0,0,0l0-0.6c0-0.2-0.1-4.8,0.1-4.8c0.2,0,0.6,4.5,0.6,4.8l0.1,0.7c0,0,0,0,0,0
		c4-0.2,7.7-1.7,10.7-4.2c0,0,0,0,0,0l-1.6-2l1.9,1.8c0,0,0,0,0,0c2-1.8,7.2-8.5,8.3-11c0.1-0.2,0-0.3-0.1-0.4l-3-1.8l3,1.3
		c0.2,0.1,0.4,0,0.5-0.2C260,173.1,260.2,172.3,260.4,171.4z"/>
	<g id="Calque_2_-_copie_4_2_">
		<path id="XMLID_91_" class="st4" d="M261.2,171.6c0.4-2,0.4-4,0.1-6c0-0.2-0.2-0.3-0.4-0.3l-4.3,0.3l4.2-0.9
			c0.2,0,0.3-0.2,0.3-0.4c-0.7-2.9-2-5.7-3.9-7.9c-0.5-0.6-1.4-0.7-2-0.2l-0.2,0.1l-3.2,2.7l2.5-2.7l1.1-1.2c0.1-0.2,0.1-0.4,0-0.5
			c-2.5-2.2-5.6-3.8-9.2-4.5c-0.2,0-0.4-0.1-0.7-0.1c-0.2,0-0.4,0.1-0.4,0.3l-0.1,0.5l0,0c0,0.2-0.4,2.5-0.6,2.5
			c-0.2,0-0.1-2.3-0.1-2.6l0,0l0-0.5c0-0.2-0.2-0.4-0.4-0.4c-3.1-0.2-6.1,0.4-8.8,1.7c-0.6,0.3-0.8,0.9-0.7,1.5l0.7,2.4l-1.3-2.7
			c-0.1-0.2-0.3-0.3-0.5-0.2c-2.5,1.5-4.7,3.6-6.2,6.1c-0.1,0.2-0.1,0.4,0.1,0.5l2.7,2.4l-2.8-1.9c-0.2-0.1-0.4-0.1-0.5,0.1
			c-0.9,1.7-1.6,3.5-1.9,5.5c-0.3,1.9-0.4,3.8-0.1,5.6c0,0.2,0.3,0.4,0.5,0.3l3.7-1.1l-3.7,1.7c-0.2,0.1-0.2,0.2-0.2,0.4
			c0.9,4.4,3.4,8.3,6.9,11c0.1,0.1,0.4,0.1,0.5,0l3.3-3.1l-2.7,3.3c-0.1,0.2-0.1,0.4,0.1,0.6c2.1,1.4,4.4,2.3,7,2.8
			c0.9,0.2,1.9,0.3,2.8,0.3c0.2,0,0.4-0.2,0.4-0.4l0-0.3c0-0.2-0.1-5,0.1-5.1c0.2,0,0.6,4.8,0.7,5l0,0.3c0,0.2,0.2,0.3,0.4,0.3
			c3.9-0.2,7.6-1.7,10.6-4.1c0.2-0.1,0.2-0.4,0.1-0.5l-1.5-1.8l1.8,1.6c0.1,0.1,0.4,0.1,0.5,0c2-1.8,3.6-4.1,4.7-6.6
			c0.1-0.2,0-0.4-0.2-0.5l-3.1-1.9l3.2,1.4c0.2,0.1,0.4,0,0.5-0.2C260.9,173.4,261.1,172.5,261.2,171.6z"/>
		<path id="XMLID_90_" class="st5" d="M259.6,171.3c0.3-1.9,0.3-3.7,0.1-5.4c0-0.2-0.2-0.3-0.4-0.3l-3.9,0.3l3.8-0.8
			c0.2,0,0.3-0.2,0.3-0.4c-0.6-2.7-1.8-5.1-3.6-7.2c-0.5-0.5-1.3-0.6-1.8-0.2l-0.2,0.1l-2.9,2.4l2.3-2.5l1-1.1
			c0.1-0.1,0.1-0.4,0-0.5c-2.3-2-5.1-3.5-8.3-4.1c-0.2,0-0.4-0.1-0.6-0.1c-0.2,0-0.3,0.1-0.4,0.3l-0.1,0.5l0,0
			c0,0.2-0.4,2.3-0.6,2.3c-0.2,0-0.1-2.1-0.1-2.3l0,0l0-0.5c0-0.2-0.1-0.3-0.3-0.4c-2.8-0.2-5.6,0.4-8,1.5c-0.5,0.2-0.8,0.8-0.6,1.3
			l0.6,2.1l-1.1-2.5c-0.1-0.2-0.3-0.3-0.5-0.2c-2.3,1.4-4.2,3.3-5.7,5.6c-0.1,0.1-0.1,0.3,0.1,0.4l2.4,2.2l-2.6-1.7
			c-0.2-0.1-0.4-0.1-0.5,0.1c-0.8,1.5-1.4,3.2-1.7,5c-0.3,1.7-0.3,3.5-0.1,5.1c0,0.2,0.2,0.3,0.4,0.3l3.3-1l-3.4,1.6
			c-0.1,0.1-0.2,0.2-0.2,0.4c0.8,4,3.1,7.5,6.2,10c0.1,0.1,0.3,0.1,0.4,0l3-2.8l-2.5,3c-0.1,0.2-0.1,0.4,0.1,0.5
			c1.9,1.2,4,2.1,6.4,2.5c0.9,0.2,1.7,0.2,2.5,0.3c0.2,0,0.3-0.1,0.3-0.3l0-0.3c0-0.2-0.1-4.6,0.1-4.6c0.2,0,0.6,4.3,0.6,4.6l0,0.3
			c0,0.2,0.2,0.3,0.4,0.3c3.6-0.2,6.9-1.6,9.6-3.8c0.1-0.1,0.2-0.3,0-0.5l-1.3-1.7l1.6,1.5c0.1,0.1,0.3,0.1,0.5,0
			c1.8-1.6,3.3-3.7,4.2-6c0.1-0.2,0-0.3-0.1-0.4l-2.8-1.7l2.9,1.3c0.2,0.1,0.4,0,0.5-0.2C259.2,172.9,259.4,172.1,259.6,171.3z"/>
		<path id="XMLID_89_" class="st6" d="M258.8,171.1c0.3-1.7,0.1-3.3-0.1-4.9c0-0.2-0.2-0.3-0.3-0.3l-4.2,0.1l4.1-1.3
			c0.2,0,0.3-0.2,0.2-0.4c-0.5-2.4-1.4-4.5-3-6.4c-0.4-0.5-1.1-0.6-1.6-0.2l-0.1,0.1l-3.3,2.2l2-2.8l0.9-1c0.1-0.1,0.1-0.3,0-0.4
			c-2.1-1.8-4.2-3.2-7.1-3.7c-0.2,0-0.4-0.1-0.5-0.1c-0.2,0-0.3,0.1-0.3,0.3l-0.1,0.4l0,0c0,0.2-0.9,3-1,3c-0.1,0-0.5-2.7-0.5-2.9
			l0,0l0-0.4c0-0.2-0.1-0.3-0.3-0.3c-2.5-0.1-4.9,0.2-7.1,1.2c-0.5,0.2-0.7,0.7-0.5,1.2l0.8,2.9l-1.8-2.3c-0.1-0.2-0.6-0.8-0.7-0.7
			c-2.1,1.2-3.5,2.7-4.8,4.8c-0.1,0.1-0.1,0.5,0,0.6l2.8,2.7l-2.9-1.5c-0.2-0.1-0.9-0.2-0.9,0c-0.7,1.4-0.8,2.8-1.1,4.4
			c-0.3,1.6-0.5,2.5-0.3,4c0,0.2,0.5,0.6,1.1,0.4l3.3-0.7l-3.2,1.8c-0.1,0.1-0.2,0.2-0.2,0.3c0.7,3.6,2.8,6.8,5.6,9
			c0.1,0.1,0.3,0.1,0.4,0l2.8-2.4l-2.3,3.3c-0.1,0.1-0.1,0.4,0.1,0.5c1.7,1.1,3.4,1.9,5.5,2.3c0.8,0.1,1.2,0.1,1.9,0.1
			c0.2,0,0.3-0.1,0.3-0.3l0-0.2c0-0.2,0.4-4.7,0.5-4.7c0.2,0,0.7,3.9,0.7,4.1l0,0.3c0,0.2,0.2,0.3,0.3,0.3c3.2-0.2,6-0.7,8.5-2.7
			c0.1-0.1,0.2-0.3,0-0.4l-1.1-2.2l2.1,1.4c0.1,0.1,0.3,0.1,0.4,0c1.6-1.5,2.8-2.9,3.7-5c0.1-0.1,0-0.3-0.1-0.4l-3-2.1l3.7,1.1
			c0.2,0.1,0.4,0,0.4-0.2C258.7,172.4,258.7,171.9,258.8,171.1z"/>
		<path id="XMLID_88_" class="st7" d="M232,169.8c-0.3-0.3-0.4-0.8-0.2-1.2s-1.5-1.4-1-1.9c0.2-0.2,0.6-0.1,0.8-0.4
			c0.3-0.3,0.1-0.8,0-1.3c-0.1-0.4-0.2-0.9-0.1-1.4s0.5-0.8,1-0.9c0.2,0,0.5,0.1,0.7,0.1c0.9,0,1.7-0.9,1.4-1.8
			c-0.1-0.6-0.6-1-0.9-1.6c-0.2-0.5,0-1.4,0.6-1.4c0.3,0,0.5,0.2,0.8,0.3c0.6,0.1,3.1,0.5,3-0.1c-0.1-0.6-0.6-1.1-1.2-1.4
			c0.1-0.5,0.7-0.7,1.3-0.6c0.5,0.1,1.1,0.3,1.6,0.1c0.5-0.2,0.7-0.7,1-1.1c0.3-0.4,0.8-0.8,1.3-0.7c0.4,0.1,0.6,0.6,0.8,0.9
			c0.5,0.7,1.4,1.1,2.2,1.1c0.2,0,0.3,0,0.5,0c0.4,0.2,0.4,0.7,0.2,1.1c-0.1,0.4-0.3,0.8-0.1,1.2c0.2,0.3,0.5,0.4,0.8,0.4
			c0.3,0,0.6-0.1,0.9-0.2c0.2,0,0.4-0.1,0.6,0c0.2,0.1,0.3,0.4,0.3,0.7c0,0.6,0,1.3-0.2,1.9c0.6,0.6,2.5,0.2,3.1-0.5
			c0.3-0.3,0.6-0.9,1.1-0.8c0.5,0,0.7,0.6,0.8,1s0,1,0.4,1.3c0.4,0.5,1.4,0.5,1.4,1.1c0,0.7-1,0.8-1.3,1.5c-0.2,0.5,1,1.9,1.4,2.3
			c0.4,0.4,0.9,1,0.6,1.6c-0.5,1-4.1-0.4-4.6,0.6c-0.3,0.5,0.1,1.1,0.5,1.5c0.4,0.4,0.9,0.9,0.8,1.5c-0.1,0.4-0.4,0.7-0.7,0.9
			c-0.3-0.3-0.6-0.5-1-0.6c-0.4-0.1-0.8,0.1-0.9,0.5c-0.1,0.3,0.1,0.6,0.3,0.8c0.3,0.4,0.7,0.8,1.2,1c0.5,0.2,1.1,0.1,1.4-0.3
			c0.2-0.2,0.3-0.4,0.5-0.4c0.1,0,0.2,0.1,0.2,0.1c0.3,0.3,0.5,0.7,0.5,1.1c0,0.4-0.3,0.8-0.7,0.9c-0.4,0-0.7-0.2-1.1-0.1
			c-0.6,0.2-0.7,1.2-1.3,1.4c-0.6,0.2-1.1-0.4-1.7-0.4c-0.5,0-0.9,0.3-1.2,0.8c-0.2,0.4-0.3,0.9-0.5,1.4c-0.2,0.6-0.4,1.2-0.9,1.6
			c-0.5,0.4-1.2,0.6-1.7,0.3c-0.9-0.5-1-1.8-1.9-2.4c-0.1-0.1-0.3-0.1-0.4-0.1c-0.2,0-0.4,0.2-0.5,0.4c-0.3,0.4-0.8,0.8-1.3,0.9
			c-0.5,0.1-1.1-0.3-1.1-0.9c0-0.2,0.1-0.2-0.2-0.5c-0.3-0.2-0.7,0.2-1.1,0.3c-0.4,0.1-0.9,0.1-1.2-0.3s-0.4-0.8-0.1-1.2
			c0.2-0.3,0.7-0.5,1-0.8c0.5-0.4,0.5-1.2,0.1-1.7c-0.4-0.5-1.8-1-2.2-0.6c-0.3,0.3-0.5,0.7-0.9,0.7c-0.3,0-0.6-0.2-0.8-0.1
			c-0.6,0.1-0.7,0.9-1.3,1c-0.4,0.1-0.8-0.3-1-0.6c-0.3-0.4-0.6-0.9-0.4-1.3c0.2-0.6,0.9-0.9,0.9-1.5c0-0.4-0.3-0.7-0.7-0.9
			c-0.3-0.2,0.2-0.8,0-1.2c-0.2-0.4,0-0.9,0.4-0.9"/>
	</g>
	<g id="Calque_2_-_copie_4_1_">
		<path id="XMLID_152_" class="st4" d="M253.6,168.3c0-1.2-0.2-2.3-0.6-3.4c0-0.1-0.1-0.2-0.3-0.1l-2.4,0.6l2.3-0.9
			c0.1,0,0.2-0.2,0.1-0.3c-0.7-1.6-1.7-3-3-4.1c-0.3-0.3-0.8-0.2-1.1,0.1l-0.1,0.1l-1.5,1.8l1.1-1.8l0.5-0.8c0.1-0.1,0-0.2-0.1-0.3
			c-1.6-1-3.5-1.6-5.6-1.6c-0.1,0-0.3,0-0.4,0c-0.1,0-0.2,0.1-0.2,0.2v0.3v0c0,0.1,0,1.5-0.1,1.5c-0.1,0-0.3-1.3-0.3-1.4l0,0l0-0.3
			c0-0.1-0.1-0.2-0.2-0.2c-1.8,0.2-3.4,0.9-4.8,1.8c-0.3,0.2-0.4,0.6-0.2,0.9l0.6,1.3l-1-1.4c-0.1-0.1-0.2-0.1-0.3,0
			c-1.3,1.1-2.3,2.5-2.9,4.1c0,0.1,0,0.2,0.1,0.3l1.7,1.1l-1.8-0.8c-0.1-0.1-0.3,0-0.3,0.1c-0.3,1-0.5,2.1-0.5,3.3
			c0,1.1,0.2,2.2,0.5,3.2c0,0.1,0.2,0.2,0.3,0.1l2-1l-1.9,1.4c-0.1,0.1-0.1,0.2-0.1,0.3c0.9,2.4,2.7,4.3,5,5.5c0.1,0,0.2,0,0.3-0.1
			l1.5-2l-1.2,2.1c-0.1,0.1,0,0.3,0.1,0.3c1.3,0.6,2.7,0.9,4.2,0.9c0.5,0,1.1,0,1.6-0.1c0.1,0,0.2-0.1,0.2-0.2l0-0.2
			c0-0.1-0.5-2.8-0.5-2.9c0.1,0,0.8,2.6,0.9,2.8l0.1,0.2c0,0.1,0.1,0.2,0.3,0.1c2.2-0.5,4.1-1.7,5.6-3.4c0.1-0.1,0.1-0.2,0-0.3
			l-1-0.9l1.2,0.7c0.1,0.1,0.2,0,0.3,0c0.9-1.2,1.6-2.6,2-4.2c0-0.1,0-0.2-0.1-0.2l-1.9-0.8l1.9,0.5c0.1,0,0.2-0.1,0.3-0.2
			C253.5,169.4,253.6,168.9,253.6,168.3z"/>
		<path id="XMLID_151_" class="st5" d="M252.3,168.3c0-1-0.2-2-0.5-3c0-0.1-0.1-0.1-0.2-0.1l-2.1,0.5l2-0.8c0.1,0,0.1-0.2,0.1-0.2
			c-0.6-1.4-1.5-2.6-2.6-3.6c-0.3-0.2-0.7-0.2-1,0.1l-0.1,0.1l-1.3,1.6l1-1.6l0.4-0.7c0.1-0.1,0-0.2-0.1-0.3
			c-1.4-0.9-3.1-1.4-4.9-1.4c-0.1,0-0.2,0-0.3,0c-0.1,0-0.2,0.1-0.2,0.2v0.3v0c0,0.1,0,1.3-0.1,1.3c-0.1,0-0.3-1.1-0.3-1.3l0,0
			l0-0.3c0-0.1-0.1-0.2-0.2-0.2c-1.5,0.2-3,0.8-4.2,1.6c-0.3,0.2-0.3,0.5-0.2,0.8l0.6,1.1l-0.9-1.2c-0.1-0.1-0.2-0.1-0.3,0
			c-1.1,1-2,2.2-2.6,3.6c0,0.1,0,0.2,0.1,0.2l1.5,1l-1.6-0.7c-0.1,0-0.2,0-0.3,0.1c-0.3,0.9-0.5,1.9-0.5,2.9c0,1,0.2,1.9,0.4,2.8
			c0,0.1,0.2,0.2,0.3,0.1l1.7-0.9l-1.7,1.2c-0.1,0.1-0.1,0.1-0.1,0.2c0.8,2.1,2.4,3.8,4.4,4.8c0.1,0,0.2,0,0.2-0.1l1.4-1.8l-1,1.9
			c-0.1,0.1,0,0.2,0.1,0.3c1.1,0.5,2.4,0.8,3.7,0.8c0.5,0,0.9,0,1.4-0.1c0.1,0,0.2-0.1,0.2-0.2l0-0.1c0-0.1-0.5-2.5-0.4-2.5
			c0.1,0,0.7,2.3,0.8,2.4l0.1,0.2c0,0.1,0.1,0.2,0.2,0.1c1.9-0.5,3.6-1.5,4.9-3c0.1-0.1,0.1-0.2,0-0.3l-0.9-0.8l1,0.7
			c0.1,0.1,0.2,0,0.3,0c0.8-1.1,1.4-2.3,1.7-3.7c0-0.1,0-0.2-0.1-0.2l-1.7-0.7l1.7,0.4c0.1,0,0.2,0,0.2-0.2
			C252.2,169.2,252.3,168.8,252.3,168.3z"/>
		<path id="XMLID_150_" class="st6" d="M251.8,168.3c0-0.9-0.3-1.8-0.5-2.6c0-0.1-0.1-0.1-0.2-0.1l-2.3,0.4l2.1-1.1
			c0.1,0,0.1-0.1,0.1-0.2c-0.5-1.3-1.2-2.3-2.3-3.2c-0.3-0.2-0.7-0.2-0.9,0.1l-0.1,0.1l-1.6,1.5l0.8-1.7l0.4-0.6
			c0-0.1,0-0.2-0.1-0.2c-1.3-0.8-2.6-1.3-4.2-1.3c-0.1,0-0.2,0-0.3,0c-0.1,0-0.2,0.1-0.2,0.2v0.2v0c0,0.1-0.2,1.7-0.3,1.7
			c-0.1,0-0.5-1.4-0.6-1.5v0l0-0.2c0-0.1-0.1-0.2-0.2-0.1c-1.4,0.2-2.6,0.6-3.7,1.3c-0.2,0.2-0.3,0.5-0.2,0.7l0.7,1.5l-1.2-1.1
			c-0.1-0.1-0.4-0.4-0.5-0.3c-1,0.9-1.6,1.8-2.1,3.1c0,0.1,0,0.3,0.1,0.3l1,0.5l-0.9,0.2c-0.1,0-0.5,0-0.5,0.1
			c-0.3,0.8-0.2,1.6-0.2,2.5c0,0.9-0.1,1.4,0.2,2.2c0,0.1,0.3,0.3,0.6,0.1l1.7-0.7l-1.5,1.3c-0.1,0-0.1,0.1-0.1,0.2
			c0.7,1.9,2.2,3.4,3.9,4.4c0.1,0,0.2,0,0.2,0l1.3-1.6l-0.9,2c0,0.1,0,0.2,0.1,0.2c1,0.4,2,0.7,3.2,0.7c0.4,0,0.7-0.1,1.1-0.1
			c0.1,0,0.2-0.1,0.1-0.2l0-0.1c0-0.1-0.2-2.6-0.2-2.6c0.1,0,0.7,2.1,0.8,2.2l0,0.1c0,0.1,0.1,0.1,0.2,0.1c1.7-0.4,3.2-1,4.3-2.3
			c0.1-0.1,0.1-0.2,0-0.2l-0.8-1.1l1.3,0.6c0.1,0,0.2,0,0.2,0c0.7-1,1.2-1.8,1.5-3.1c0-0.1,0-0.2-0.1-0.2l-1.8-0.9l2.1,0.2
			c0.1,0,0.2,0,0.2-0.1C251.9,169,251.8,168.7,251.8,168.3z"/>
		<path id="XMLID_149_" class="st7" d="M246.4,173.8c-0.1,0.2-0.3,0.4-0.5,0.4c-0.2,0-0.5-0.1-0.6-0.3c-0.1-0.1-0.2-0.2-0.4-0.3
			c-0.2-0.1-0.9-0.2-1-0.1c-0.2,0.2-0.4,0.3-0.6,0.3s-0.5-0.1-0.6-0.3c-0.1-0.1-0.1-0.2-0.1-0.4c-0.2-0.4-0.8-0.6-1.2-0.3
			c-0.2,0.2-0.3,0.5-0.6,0.8c-0.2,0.2-0.7,0.3-0.8,0c-0.1-0.1,0-0.3-0.1-0.5c-0.1-0.3-0.5-0.4-0.8-0.2c-0.3,0.2-0.4,0.5-0.4,0.9
			c-0.3,0.1-0.5-0.2-0.6-0.5c-0.1-0.3-0.1-0.6-0.3-0.8c-0.2-0.2-0.5-0.2-0.8-0.3c-0.3,0-0.6-0.2-0.6-0.5c0-0.2,0.1-0.4,0.2-0.6
			c0.2-0.4,0.2-0.9,0-1.3c0-0.1-0.1-0.1-0.1-0.2c0-0.2,0.3-0.3,0.5-0.4s-0.4-0.8-0.2-0.9c0.1-0.1,0.1-0.3,0-0.5s-0.2-0.3-0.3-0.4
			c-0.1-0.1-0.1-0.2-0.1-0.3c0-0.1,0.1-0.2,0.3-0.3c0.3-0.2,0.6-0.3,0.9-0.3c0.1-0.4-0.1-1-0.5-1.1c-0.2-0.1-0.6-0.1-0.7-0.4
			c-0.1-0.2,0.1-0.5,0.3-0.6s0.5-0.2,0.6-0.5c0.1-0.3,0.8-0.1,1.1-0.2c0.3-0.2,0.6-1,0.9-1c0.3,0,0.5-0.4,0.6-0.7
			c0.1-0.3,0.3-0.7,0.6-0.6c0.6,0,0.5,1.3,1.1,1.3c0.3,0,0.5-0.3,0.6-0.6c0.1-0.3,0.2-0.6,0.5-0.7c0.2,0,0.5,1.4,0.7,1.5
			c-0.1,0.2-0.1,0.4-0.1,0.6c0,0.2,0.3,0.4,0.5,0.3c0.2,0,0.2-0.2,0.3-0.3c0.1-0.2,0.2-0.5,0.2-0.8c0-0.3-0.2-0.6-0.5-0.6
			c-0.1,0-0.3-0.1-0.3-0.2c0,0,0-0.1,0-0.1c0.1-0.2,0.2-0.4,0.4-0.5c0.2-0.1,0.5,0,0.6,0.2c0.1,0.2,0.1,0.4,0.2,0.6
			c0.2,0.3,0.7,0.1,1,0.3c0.2,0.2,0.1,0.6,0.2,0.9c0.1,0.2,0.4,0.4,0.6,0.4s0.5-0.1,0.8-0.1c0.3-0.1,0.7-0.1,1,0.1
			c0.3,0.1,0.5,0.4,0.5,0.8c0,0.6-0.7,0.9-0.8,1.5c0,0.1,0,0.2,0,0.2c0.1,0.1,0.2,0.1,0.3,0.1c0.3,0.1,0.6,0.2,0.7,0.4
			c0.1,0.2,0.8,0.5,0.5,0.7c-0.2,0.2-0.6,0.2-0.6,0.5c-0.1,0.2,0.2,0.3,0.3,0.5c0.2,0.2,0.2,0.4,0.2,0.7c-0.1,0.2-0.3,0.4-0.6,0.3
			c-0.2,0-0.4-0.2-0.6-0.3c-0.3-0.1-1.4-0.1-1.5,0.2s0,0.7,0.3,0.8c0.2,0.1,0.4,0.1,0.6,0.3c0.1,0.1,0.5,0.7,0.5,0.8
			c0.2,0.3,0.6,0.2,0.8,0.4c0.1,0.2,0,0.4-0.1,0.6c-0.1,0.2-0.3,0.5-0.5,0.5c-0.3,0-0.6-0.3-0.9-0.1c-0.2,0.1-0.3,0.3-0.3,0.5
			c0,0.2,0,0.4-0.2,0.6c-0.1,0.2-0.4,0.2-0.5,0"/>
	</g>
	<g id="Calque_2_-_copie_4">
		<path id="XMLID_83_" class="st4" d="M249,166.3c-0.2-0.7-0.5-1.3-0.9-1.8c0-0.1-0.1-0.1-0.2,0l-1.3,0.8l1.1-1c0.1,0,0.1-0.1,0-0.2
			c-0.7-0.8-1.5-1.4-2.5-1.8c-0.2-0.1-0.5,0-0.6,0.3l0,0.1l-0.5,1.3l0.3-1.2l0.1-0.5c0-0.1,0-0.1-0.1-0.2c-1.1-0.3-2.3-0.2-3.5,0.1
			c-0.1,0-0.1,0-0.2,0.1c-0.1,0-0.1,0.1-0.1,0.2l0.1,0.2l0,0c0,0.1,0.3,0.8,0.2,0.8c-0.1,0-0.4-0.7-0.5-0.8l0,0l-0.1-0.2
			c0-0.1-0.1-0.1-0.2-0.1c-1,0.5-1.8,1.1-2.4,1.9c-0.1,0.2-0.1,0.4,0,0.6l0.6,0.6l-0.8-0.6c-0.1,0-0.1,0-0.2,0
			c-0.5,0.9-0.8,1.8-0.9,2.9c0,0.1,0,0.1,0.1,0.1l1.2,0.3l-1.2-0.1c-0.1,0-0.1,0.1-0.1,0.1c0,0.7,0.1,1.3,0.3,2
			c0.2,0.6,0.5,1.2,0.9,1.7c0,0.1,0.1,0.1,0.2,0l0.9-0.9l-0.8,1.1c0,0,0,0.1,0,0.2c1,1.2,2.4,2,3.9,2.2c0.1,0,0.1,0,0.1-0.1l0.5-1.5
			l-0.3,1.4c0,0.1,0,0.1,0.1,0.2c0.8,0.1,1.7,0,2.6-0.3c0.3-0.1,0.6-0.2,0.9-0.4c0.1,0,0.1-0.1,0.1-0.2l0-0.1c0-0.1-0.8-1.5-0.8-1.5
			c0.1,0,1,1.3,1,1.4l0.1,0.1c0,0.1,0.1,0.1,0.2,0c1.2-0.7,2-1.8,2.5-3c0-0.1,0-0.1-0.1-0.2l-0.7-0.3l0.8,0.2c0.1,0,0.1,0,0.2-0.1
			c0.3-0.9,0.4-1.8,0.3-2.8c0-0.1-0.1-0.1-0.1-0.1l-1.2-0.1l1.2-0.1c0.1,0,0.1-0.1,0.1-0.1C249.2,166.9,249.1,166.6,249,166.3z"/>
		<path id="XMLID_82_" class="st5" d="M247.9,166.7c-0.2-0.6-0.4-1.1-0.8-1.5c0,0-0.1-0.1-0.1,0l-1,0.7l0.9-0.8c0,0,0.1-0.1,0-0.2
			c-0.6-0.6-1.3-1.1-2-1.4c-0.2-0.1-0.4,0-0.5,0.2l0,0.1l-0.4,1.1l0.3-1l0.1-0.5c0-0.1,0-0.1-0.1-0.1c-0.9-0.2-1.9-0.2-2.9,0.1
			c-0.1,0-0.1,0-0.2,0.1c-0.1,0-0.1,0.1-0.1,0.1l0,0.1l0,0c0,0.1,0.2,0.7,0.2,0.7c0,0-0.3-0.6-0.4-0.6l0,0l-0.1-0.1
			c0-0.1-0.1-0.1-0.1-0.1c-0.8,0.4-1.5,0.9-2,1.6c-0.1,0.1-0.1,0.3,0,0.5l0.5,0.5l-0.7-0.5c-0.1,0-0.1,0-0.2,0
			c-0.4,0.7-0.7,1.5-0.7,2.4c0,0.1,0,0.1,0.1,0.1l1,0.2l-1-0.1c-0.1,0-0.1,0-0.1,0.1c0,0.5,0.1,1.1,0.3,1.6c0.2,0.5,0.4,1,0.7,1.4
			c0,0.1,0.1,0.1,0.2,0l0.8-0.8l-0.7,0.9c0,0,0,0.1,0,0.1c0.8,1,1.9,1.6,3.2,1.8c0.1,0,0.1,0,0.1-0.1l0.4-1.2l-0.2,1.2
			c0,0.1,0,0.1,0.1,0.1c0.7,0.1,1.4,0,2.1-0.2c0.3-0.1,0.5-0.2,0.7-0.3c0.1,0,0.1-0.1,0-0.1l0-0.1c0-0.1-0.7-1.2-0.7-1.3
			c0,0,0.8,1.1,0.8,1.2l0.1,0.1c0,0,0.1,0.1,0.1,0c1-0.6,1.7-1.4,2.1-2.4c0-0.1,0-0.1-0.1-0.1l-0.6-0.3l0.7,0.2c0.1,0,0.1,0,0.1-0.1
			c0.3-0.7,0.4-1.5,0.3-2.3c0-0.1,0-0.1-0.1-0.1l-1-0.1l1-0.1c0.1,0,0.1-0.1,0.1-0.1C248.1,167.2,248,166.9,247.9,166.7z"/>
		<path id="XMLID_81_" class="st6" d="M247.7,166.8c-0.2-0.5-0.4-0.9-0.7-1.3c0,0-0.1-0.1-0.1,0l-1.1,0.6l0.9-0.9c0,0,0-0.1,0-0.1
			c-0.5-0.6-1.1-1-1.8-1.3c-0.2-0.1-0.4,0-0.5,0.2l0,0.1l-0.6,1.1l0.1-1.1l0.1-0.4c0-0.1,0-0.1-0.1-0.1c-0.8-0.2-1.6-0.3-2.5,0
			c-0.1,0-0.1,0-0.2,0.1c0,0-0.1,0.1-0.1,0.1l0,0.1l0,0c0,0.1,0.2,1,0.2,1c0,0-0.5-0.7-0.6-0.7l0,0l-0.1-0.1c0,0-0.1-0.1-0.1,0
			c-0.7,0.3-1.3,0.8-1.8,1.4c-0.1,0.1-0.1,0.3,0,0.4l0.7,0.7l-0.8-0.4c0,0-0.3-0.1-0.3-0.1c-0.4,0.6-0.6,1.2-0.6,2
			c0,0,0.1,0.2,0.1,0.2l1.2,0.3l-1,0c-0.1,0-0.3,0.1-0.3,0.1c0,0.5,0.2,0.9,0.4,1.4c0.2,0.5,0.2,0.8,0.5,1.1c0,0,0.2,0.1,0.4-0.1
			l0.8-0.7l-0.6,1c0,0,0,0.1,0,0.1c0.7,0.9,1.8,1.5,2.9,1.7c0,0,0.1,0,0.1-0.1l0.4-1.1l-0.1,1.2c0,0.1,0,0.1,0.1,0.1
			c0.6,0.1,1.2,0,1.8-0.2c0.2-0.1,0.3-0.1,0.6-0.3c0,0,0.1-0.1,0-0.1l0-0.1c0-0.1-0.6-1.4-0.5-1.4c0,0,0.8,1,0.8,1l0,0.1
			c0,0,0.1,0.1,0.1,0c0.9-0.5,1.6-1.1,1.9-2c0,0,0-0.1-0.1-0.1l-0.6-0.4l0.8,0.1c0,0,0.1,0,0.1-0.1c0.2-0.6,0.3-1.2,0.3-1.9
			c0,0,0-0.1-0.1-0.1l-1.1-0.1l1.2-0.2c0.1,0,0.1-0.1,0.1-0.1C247.8,167.1,247.8,167,247.7,166.8z"/>
		<path id="XMLID_80_" class="st8" d="M242.2,171.2c-0.1,0-0.2,0-0.3-0.1c-0.1-0.1-0.1-0.2-0.1-0.3c0-0.1,0-0.2,0-0.2
			c-0.1-0.1-0.2-0.1-0.3-0.1c-0.1,0-0.2,0-0.3-0.1c-0.1-0.1-0.2-0.2-0.1-0.3c0-0.1,0.1-0.1,0.1-0.2c0.1-0.2-0.1-0.5-0.3-0.5
			c-0.2,0-0.3,0.1-0.5,0.1c-0.2,0-0.3-0.1-0.3-0.3c0-0.1,0.1-0.1,0.1-0.2c0.1-0.1,0-0.3-0.2-0.4c-0.2,0-0.3,0-0.4,0.2
			c-0.1-0.1-0.1-0.3,0-0.4s0.2-0.2,0.2-0.4c0-0.1-0.1-0.2-0.2-0.4c-0.1-0.1-0.1-0.3,0-0.4c0.1-0.1,0.2-0.1,0.3-0.1
			c0.2-0.1,0.4-0.2,0.5-0.4c0,0,0-0.1,0.1-0.1c0.1-0.1,0.2,0,0.3,0c0.1,0.1,0.2,0.2,0.3,0.1c0.1,0,0.1-0.1,0.2-0.2s0-0.2,0-0.3
			c0,0,0-0.1,0.1-0.1c0.1,0,0.1,0,0.2,0c0.2,0.1,0.3,0.1,0.4,0.2c0.2-0.1,0.3-0.4,0.2-0.6c-0.1-0.1-0.2-0.2-0.1-0.4
			c0-0.1,0.2-0.1,0.3-0.1c0.1,0,0.2,0.1,0.4,0c0.2-0.1,0.3-0.3,0.4-0.2c0.2,0.1,0.1,0.3,0.2,0.5c0.1,0.1,0.3,0.1,0.4,0
			s0.3-0.1,0.4,0c0.2,0.2-0.3,0.6-0.1,0.8c0.1,0.1,0.3,0.1,0.4,0c0.1-0.1,0.3-0.1,0.4-0.1c0.1,0.1,0.1,0.2,0.1,0.3
			c-0.1,0-0.2,0.1-0.2,0.2c-0.1,0.1,0,0.2,0,0.3c0.1,0,0.1,0,0.2,0c0.1,0,0.3-0.1,0.3-0.2c0.1-0.1,0.1-0.3,0.1-0.4
			c0-0.1-0.1-0.1,0-0.2c0,0,0,0,0.1,0c0.1-0.1,0.2-0.1,0.3,0c0.1,0,0.2,0.2,0.1,0.3c0,0.1-0.1,0.2-0.1,0.3c0,0.2,0.2,0.3,0.2,0.4
			c0,0.2-0.2,0.2-0.3,0.4c-0.1,0.1,0,0.3,0.1,0.4c0.1,0.1,0.2,0.2,0.3,0.2c0.1,0.1,0.2,0.2,0.3,0.4s0,0.3-0.1,0.5
			c-0.2,0.2-0.5,0.1-0.8,0.2c0,0-0.1,0.1-0.1,0.1c0,0.1,0,0.1,0.1,0.2c0.1,0.1,0.1,0.3,0.1,0.4c0,0.1-0.2,0.2-0.3,0.2
			c-0.1,0-0.2-0.2-0.3-0.1c-0.1,0-0.1,0.2-0.1,0.3c0,0.1-0.1,0.2-0.2,0.3c-0.1,0-0.2,0-0.3-0.1c-0.1-0.1,0-0.2-0.1-0.3
			c-0.1-0.2-0.3-0.2-0.4-0.2s-0.2,0.2-0.2,0.4c0,0.1,0.1,0.2,0.1,0.3c0,0.1-0.1,0.1-0.1,0.2c0,0.1,0.2,0.3,0.1,0.4
			c0,0.1-0.1,0.2-0.2,0.2c-0.1,0-0.3,0.1-0.4,0c-0.1-0.1-0.1-0.3-0.3-0.4c-0.1,0-0.2,0-0.3,0.1s-0.2,0.1-0.3,0.2
			C242.4,171.3,242.2,171.2,242.2,171.2"/>
	</g>
	<path id="XMLID_79_" class="st9" d="M240.4,168.3c0,0,2.6-0.6,2.6-1.8c0,0,0.5,1.8,2.1,1.9c0,0-2.3,0.9-2.4,2.2
		C242.7,170.6,242.7,168.4,240.4,168.3z"/>
	<path id="XMLID_78_" class="st9" d="M241.7,168.4c0,0,1.2-0.3,1.2-0.8c0,0,0.2,0.8,1,0.9c0,0-1,0.4-1.1,1
		C242.7,169.5,242.7,168.5,241.7,168.4z"/>
	<g id="Calque_5_-_copie_4_2_">
		<path id="XMLID_118_" class="st3" d="M242.8,156.8l-0.5,0c-0.6,0-1.2,0.1-1.7,0.2l-2.5,0.7c-0.9,0.2-1.8-0.3-2-1.3
			c0-0.2-0.1-0.4-0.2-0.6l-0.1-0.3c-0.1-0.1-0.1-0.3-0.1-0.4l-0.1-0.5c-0.1-0.5,0-1,0.3-1.4c0.4-0.5,1-0.8,1.6-0.8l0.3,0
			c0.4,0,0.8,0,1.1-0.1l3.3-0.8c1-0.2,1.9,0.4,2.2,1.4c0,0.1,0,0.2,0,0.3l0,0.4c0,0.3,0.1,0.6,0.1,0.9l0.1,0.3
			c0.2,0.9-0.3,1.6-1.2,1.9C243.2,156.8,243,156.8,242.8,156.8z"/>
		<path id="XMLID_117_" class="st17" d="M242.5,156.6l-0.5,0c-0.5,0-1,0.1-1.6,0.2l-2.3,0.6c-0.9,0.2-1.6-0.3-1.8-1.2
			c0-0.2-0.1-0.4-0.2-0.6l-0.1-0.3c0-0.1-0.1-0.2-0.1-0.4l-0.1-0.4c-0.1-0.5,0-0.9,0.3-1.3c0.3-0.5,0.9-0.7,1.4-0.7l0.3,0
			c0.3,0,0.7,0,1-0.1l3-0.7c0.9-0.2,1.7,0.4,2,1.3c0,0.1,0,0.2,0,0.3l0,0.4c0,0.3,0.1,0.6,0.1,0.8l0.1,0.3c0.1,0.8-0.3,1.4-1.1,1.7
			C242.9,156.6,242.7,156.6,242.5,156.6z"/>
		<g id="XMLID_113_" class="st18">
			<g id="XMLID_115_">
				<path id="XMLID_116_" class="st13" d="M240.3,153.3c-0.5,0.5-2.6-0.9-3.3-0.5c-0.8,0.4-0.1,1.2,0.4,2.2c1,1,2.2,3.1,3.7,2.8
					c1.5-0.3,1.5-2.1,1.5-4c-0.5-0.5,0-1.9-0.7-2c-0.8-0.1-1.8,1.8-2.3,1.8l-0.7-0.3C239.2,153.6,240.3,153.3,240.3,153.3z"/>
			</g>
		</g>
		<g id="XMLID_96_" class="st19">
			<g id="XMLID_111_">
				<path id="XMLID_112_" class="st15" d="M240.3,154.3c-0.5,0.5-2.2-0.7-2.4-0.4s0,0.2-0.5,0.7c1.5-0.8,2.2,3.7,3.7,2.4
					c0.5-0.4-0.4-2.3,0.6-3.7c-0.5,0,0-0.7-0.5-0.7s-1,2-1.5,2l-0.7-0.3C239.2,154.6,240.3,154.3,240.3,154.3z"/>
			</g>
		</g>
		
			<ellipse id="XMLID_95_" transform="matrix(-0.3109 0.9504 -0.9504 -0.3109 464.0977 -27.8171)" class="st20" cx="242.1" cy="154.3" rx="0.2" ry="0.2"/>
		
			<ellipse id="XMLID_94_" transform="matrix(0.2386 0.9711 -0.9711 0.2386 332.4235 -116.3024)" class="st20" cx="240.4" cy="153.8" rx="0.2" ry="0.2"/>
		<circle id="XMLID_93_" class="st20" cx="238.5" cy="154.9" r="0.1"/>
	</g>
	<g id="Calque_5_-_copie_4_1_" class="st0">
		<path id="XMLID_53_" class="st10" d="M244.9,179.4l0.5-0.1c0.6-0.1,1.1-0.3,1.7-0.5l2.4-1.1c0.9-0.3,1.8,0,2.2,1
			c0.1,0.2,0.2,0.4,0.3,0.6l0.2,0.3c0.1,0.1,0.1,0.2,0.2,0.4l0.2,0.4c0.2,0.5,0.1,1-0.1,1.5c-0.3,0.6-0.8,1-1.5,1.1l-0.3,0
			c-0.4,0.1-0.8,0.2-1.1,0.3l-3.1,1.3c-0.9,0.3-2-0.1-2.4-1c0-0.1-0.1-0.2-0.1-0.3l-0.1-0.4c-0.1-0.3-0.2-0.6-0.3-0.9l-0.1-0.3
			c-0.3-0.9,0.1-1.7,0.9-2.1C244.5,179.5,244.7,179.5,244.9,179.4z"/>
		<path id="XMLID_52_" class="st11" d="M245.2,179.6l0.5-0.1c0.5-0.1,1-0.2,1.5-0.5l2.2-1c0.8-0.3,1.7,0,2,0.9
			c0.1,0.2,0.2,0.4,0.3,0.5l0.2,0.3c0.1,0.1,0.1,0.2,0.2,0.3l0.1,0.4c0.2,0.5,0.1,0.9-0.1,1.3c-0.2,0.5-0.8,0.9-1.3,1l-0.3,0
			c-0.4,0.1-0.7,0.2-1,0.3l-2.9,1.2c-0.9,0.3-1.8-0.1-2.2-0.9c0-0.1-0.1-0.2-0.1-0.3l-0.1-0.4c-0.1-0.3-0.2-0.5-0.3-0.8l-0.1-0.3
			c-0.3-0.8,0.1-1.5,0.8-1.9C244.8,179.7,245,179.6,245.2,179.6z"/>
		<g id="XMLID_35_" class="st12">
			<g id="XMLID_50_">
				<path id="XMLID_51_" class="st13" d="M248.9,181.8c0.4-0.4,2.1,0.9,2.4,0.7c0.5-0.3-0.7-1.1-0.7-1.7c-0.5-1.1-0.4-2.6-1.3-2.6
					c-0.8,0-1.8,2.2-2.7,2.2c-0.7,0-3.3-1-3.3,0.4c0,0.6,2.1,0.8,3.1,2c0.5,0.5,0.9,1.8,1.7,1.4c0.7-0.4,1-2.8,1.5-2.8l0.7,0.3
					C249.9,181.5,248.9,181.8,248.9,181.8z"/>
			</g>
		</g>
		<g id="XMLID_25_" class="st14">
			<g id="XMLID_27_">
				<path id="XMLID_31_" class="st15" d="M247.6,182.5c0-0.5,2.1-0.6,2.4-1.1s-0.1-0.5-0.1-1c-0.7,0.7-3-2.8-4-1.6
					c-0.4,0.4,1,1.9,0.7,3.6c0.5,0,0,1.1,0.5,1.1s1-2,1.5-2l0,0C248.1,181.5,247.6,182.5,247.6,182.5z"/>
			</g>
		</g>
		
			<ellipse id="XMLID_24_" transform="matrix(0.1449 -0.9894 0.9894 0.1449 30.4482 398.8791)" class="st16" cx="246" cy="181.8" rx="0.2" ry="0.2"/>
		
			<ellipse id="XMLID_23_" transform="matrix(-0.4001 -0.9165 0.9165 -0.4001 180.2207 481.9844)" class="st16" cx="247.9" cy="182" rx="0.2" ry="0.3"/>
		<circle id="XMLID_14_" class="st16" cx="249.6" cy="180.6" r="0.1"/>
	</g>
	<g id="Calque_5_-_copie_4" class="st0">
		<path id="XMLID_57_" class="st10" d="M231.7,164.2l-0.2,0.4c-0.2,0.4-0.3,0.9-0.4,1.3l-0.3,2.1c-0.2,0.8-0.8,1.2-1.6,1.1
			c-0.2,0-0.3-0.1-0.5-0.1l-0.3,0c-0.1,0-0.2,0-0.3,0l-0.4-0.1c-0.4-0.1-0.7-0.3-1-0.7c-0.3-0.4-0.3-1-0.1-1.4l0.1-0.2
			c0.1-0.3,0.2-0.6,0.3-0.9l0.4-2.7c0.2-0.8,0.9-1.3,1.7-1.2c0.1,0,0.2,0,0.2,0.1l0.3,0.1c0.2,0.1,0.5,0.1,0.7,0.2l0.3,0
			c0.7,0.2,1.1,0.7,1,1.4C231.8,163.9,231.7,164.1,231.7,164.2z"/>
		<path id="XMLID_56_" class="st11" d="M231.5,164.4l-0.2,0.4c-0.2,0.4-0.3,0.8-0.3,1.2l-0.2,1.9c-0.2,0.7-0.7,1.1-1.4,1
			c-0.2,0-0.3,0-0.5-0.1l-0.2,0c-0.1,0-0.2,0-0.3,0l-0.3-0.1c-0.4-0.1-0.7-0.3-0.9-0.6c-0.2-0.4-0.3-0.9-0.1-1.3l0.1-0.2
			c0.1-0.3,0.2-0.5,0.2-0.8l0.4-2.4c0.2-0.7,0.8-1.2,1.5-1.1c0.1,0,0.1,0,0.2,0.1l0.3,0.1c0.2,0.1,0.4,0.1,0.7,0.2l0.2,0
			c0.7,0.1,1,0.7,0.9,1.3C231.6,164.1,231.5,164.2,231.5,164.4z"/>
		<g id="XMLID_12_" class="st12">
			<g id="XMLID_54_">
				<path id="XMLID_55_" class="st13" d="M228.6,165.5c0,0.7-2.2,2-1.6,2.7c0.3,0.3,1.1-0.9,2-0.5c0-1,2.2-1,2.6-2.1
					c0.4-1.2-0.7-1.6-2.3-2.1c-0.5,0-1.7-0.9-2-0.3C226.9,163.8,228.6,165.1,228.6,165.5l-1,1C228.1,166.5,228.6,165.5,228.6,165.5z
					"/>
			</g>
		</g>
		<g id="XMLID_8_" class="st14">
			<g id="XMLID_10_">
				<path id="XMLID_11_" class="st15" d="M228.3,164.8c0.4,0.4-0.9,2.1-0.7,2.4c0.3,0.5,1.4-0.7,2-0.7c0.6,0,2.3,0.1,2.1-1
					c-0.1-0.6-1.6-0.3-2.3-1c-0.5,0.5-1.3-0.9-1.5-0.7s0.9,1.9,0.4,2.4l0,0C228.6,165.9,228.3,164.8,228.3,164.8z"/>
			</g>
		</g>
		
			<ellipse id="XMLID_7_" transform="matrix(0.7601 0.6498 -0.6498 0.7601 161.6294 -109.8721)" class="st16" cx="229.6" cy="164" rx="0.2" ry="0.2"/>
		
			<ellipse id="XMLID_6_" transform="matrix(0.9887 0.1496 -0.1496 0.9887 27.2859 -32.3665)" class="st16" cx="228.7" cy="165.1" rx="0.2" ry="0.2"/>
		<circle id="XMLID_5_" class="st16" cx="228.9" cy="166.9" r="0.1"/>
	</g>
</g>
<g id="Calque_7_-_copie_3">
	<path id="XMLID_163_" class="st3" d="M223.7,225c0.3-1.9,0.3-3.9,0.1-5.7c0-0.2-0.2-0.3-0.4-0.3l-4.1,0.3l4-0.9
		c0.2,0,0.3-0.2,0.3-0.4c-0.6-2.8-1.9-5.4-3.8-7.6c-0.5-0.6-1.3-0.6-1.9-0.2l-0.2,0.1l-3,2.5l2.4-2.6l1.1-1.2c0.1-0.1,0.1-0.4,0-0.5
		c-2.4-2.1-5.4-3.6-8.7-4.2c-0.2,0-0.4-0.1-0.6-0.1c-0.2,0-0.4,0.1-0.4,0.3l-0.1,0.5l0,0c0,0.2-0.4,2.4-0.6,2.4
		c-0.2,0-0.1-2.2-0.1-2.4l0,0l0-0.5c0-0.2-0.1-0.4-0.3-0.4c-2.9-0.2-5.8,0.4-8.3,1.6c-0.5,0.2-3.4,3-3.2,3.6l0.7,2.2l-1.2-2.6
		c-0.1-0.2-0.3-0.3-0.5-0.2c-2.5,1.5-5.7,5.9-7.2,8.4c0,0,0,0,0,0l3.8,0.2l-4.1,0.3c0,0,0,0,0,0c-1,1.7-1.6,3.6-2,5.6
		c-0.3,2-0.4,3.9-0.1,5.8c0,0,0,0,0,0l3.9-1.2l-3.8,1.8c0,0,0,0,0,0c0.8,4.4,3.3,8.3,6.8,10.9l3.3-3.1l-2.8,3.5c0,0,0,0,0,0
		c2,1.4,4.4,2.4,7,2.9c1,0.2,2,0.3,3,0.3c0,0,0,0,0,0l0-0.6c0-0.2-0.1-4.8,0.1-4.8c0.2,0,0.6,4.5,0.6,4.8l0.1,0.7c0,0,0,0,0,0
		c4-0.2,7.7-1.7,10.7-4.2c0,0,0,0,0,0l-1.6-2l1.9,1.8c0,0,0,0,0,0c2-1.8,7.2-8.5,8.3-11c0.1-0.2,0-0.3-0.1-0.4l-3-1.8l3,1.3
		c0.2,0.1,0.4,0,0.5-0.2C223.4,226.7,223.6,225.9,223.7,225z"/>
	<g id="Calque_2_-_copie_5_2_">
		<path id="XMLID_162_" class="st4" d="M224.6,225.2c0.4-2,0.4-4,0.1-6c0-0.2-0.2-0.3-0.4-0.3l-4.3,0.3l4.2-0.9
			c0.2,0,0.3-0.2,0.3-0.4c-0.7-2.9-2-5.7-3.9-7.9c-0.5-0.6-1.4-0.7-2-0.2l-0.2,0.1l-3.2,2.7l2.5-2.7l1.1-1.2c0.1-0.2,0.1-0.4,0-0.5
			c-2.5-2.2-5.6-3.8-9.2-4.5c-0.2,0-0.4-0.1-0.7-0.1c-0.2,0-0.4,0.1-0.4,0.3l-0.1,0.5l0,0c0,0.2-0.4,2.5-0.6,2.5
			c-0.2,0-0.1-2.3-0.1-2.6l0,0l0-0.5c0-0.2-0.2-0.4-0.4-0.4c-3.1-0.2-6.1,0.4-8.8,1.7c-0.6,0.3-0.8,0.9-0.7,1.5l0.7,2.4l-1.3-2.7
			c-0.1-0.2-0.3-0.3-0.5-0.2c-2.5,1.5-4.7,3.6-6.2,6.1c-0.1,0.2-0.1,0.4,0.1,0.5l2.7,2.4l-2.8-1.9c-0.2-0.1-0.4-0.1-0.5,0.1
			c-0.9,1.7-1.6,3.5-1.9,5.5c-0.3,1.9-0.4,3.8-0.1,5.6c0,0.2,0.3,0.4,0.5,0.3l3.7-1.1l-3.7,1.7c-0.2,0.1-0.2,0.2-0.2,0.4
			c0.9,4.4,3.4,8.3,6.9,11c0.1,0.1,0.4,0.1,0.5,0l3.3-3.1l-2.7,3.3c-0.1,0.2-0.1,0.4,0.1,0.6c2.1,1.4,4.4,2.3,7,2.8
			c0.9,0.2,1.9,0.3,2.8,0.3c0.2,0,0.4-0.2,0.4-0.4l0-0.3c0-0.2-0.1-5,0.1-5.1c0.2,0,0.6,4.8,0.7,5l0,0.3c0,0.2,0.2,0.3,0.4,0.3
			c3.9-0.2,7.6-1.7,10.6-4.1c0.2-0.1,0.2-0.4,0.1-0.5l-1.5-1.8l1.8,1.6c0.1,0.1,0.4,0.1,0.5,0c2-1.8,3.6-4.1,4.7-6.6
			c0.1-0.2,0-0.4-0.2-0.5l-3.1-1.9l3.2,1.4c0.2,0.1,0.4,0,0.5-0.2C224.2,227,224.5,226.1,224.6,225.2z"/>
		<path id="XMLID_161_" class="st5" d="M223,224.9c0.3-1.9,0.3-3.7,0.1-5.4c0-0.2-0.2-0.3-0.4-0.3l-3.9,0.3l3.8-0.8
			c0.2,0,0.3-0.2,0.3-0.4c-0.6-2.7-1.8-5.1-3.6-7.2c-0.5-0.5-1.3-0.6-1.8-0.2l-0.2,0.1l-2.9,2.4l2.3-2.5l1-1.1
			c0.1-0.1,0.1-0.4,0-0.5c-2.3-2-5.1-3.5-8.3-4.1c-0.2,0-0.4-0.1-0.6-0.1c-0.2,0-0.3,0.1-0.4,0.3l-0.1,0.5l0,0
			c0,0.2-0.4,2.3-0.6,2.3c-0.2,0-0.1-2.1-0.1-2.3l0,0l0-0.5c0-0.2-0.1-0.3-0.3-0.4c-2.8-0.2-5.6,0.4-8,1.5c-0.5,0.2-0.8,0.8-0.6,1.3
			l0.6,2.1l-1.1-2.5c-0.1-0.2-0.3-0.3-0.5-0.2c-2.3,1.4-4.2,3.3-5.7,5.6c-0.1,0.1-0.1,0.3,0.1,0.4l2.4,2.2l-2.6-1.7
			c-0.2-0.1-0.4-0.1-0.5,0.1c-0.8,1.5-1.4,3.2-1.7,5c-0.3,1.7-0.3,3.5-0.1,5.1c0,0.2,0.2,0.3,0.4,0.3l3.3-1l-3.4,1.6
			c-0.1,0.1-0.2,0.2-0.2,0.4c0.8,4,3.1,7.5,6.2,10c0.1,0.1,0.3,0.1,0.4,0l3-2.8l-2.5,3c-0.1,0.2-0.1,0.4,0.1,0.5
			c1.9,1.2,4,2.1,6.4,2.5c0.9,0.2,1.7,0.2,2.5,0.3c0.2,0,0.3-0.1,0.3-0.3l0-0.3c0-0.2-0.1-4.6,0.1-4.6c0.2,0,0.6,4.3,0.6,4.6l0,0.3
			c0,0.2,0.2,0.3,0.4,0.3c3.6-0.2,6.9-1.6,9.6-3.8c0.1-0.1,0.2-0.3,0-0.5l-1.3-1.7l1.6,1.5c0.1,0.1,0.3,0.1,0.5,0
			c1.8-1.6,3.3-3.7,4.2-6c0.1-0.2,0-0.3-0.1-0.4l-2.8-1.7l2.9,1.3c0.2,0.1,0.4,0,0.5-0.2C222.6,226.5,222.8,225.7,223,224.9z"/>
		<path id="XMLID_160_" class="st6" d="M222.2,224.8c0.3-1.7,0.1-3.3-0.1-4.9c0-0.2-0.2-0.3-0.3-0.3l-4.2,0.1l4.1-1.3
			c0.2,0,0.3-0.2,0.2-0.4c-0.5-2.4-1.4-4.5-3-6.4c-0.4-0.5-1.1-0.6-1.6-0.2l-0.1,0.1l-3.3,2.2l2-2.8l0.9-1c0.1-0.1,0.1-0.3,0-0.4
			c-2.1-1.8-4.2-3.2-7.1-3.7c-0.2,0-0.4-0.1-0.5-0.1c-0.2,0-0.3,0.1-0.3,0.3l-0.1,0.4l0,0c0,0.2-0.9,3-1,3c-0.1,0-0.5-2.7-0.5-2.9
			l0,0l0-0.4c0-0.2-0.1-0.3-0.3-0.3c-2.5-0.1-4.9,0.2-7.1,1.2c-0.5,0.2-0.7,0.7-0.5,1.2l0.8,2.9l-1.8-2.3c-0.1-0.2-0.6-0.8-0.7-0.7
			c-2.1,1.2-3.5,2.7-4.8,4.8c-0.1,0.1-0.1,0.5,0,0.6l2.8,2.7l-2.9-1.5c-0.2-0.1-0.9-0.2-0.9,0c-0.7,1.4-0.8,2.8-1.1,4.4
			c-0.3,1.6-0.5,2.5-0.3,4c0,0.2,0.5,0.6,1.1,0.4l3.3-0.7l-3.2,1.8c-0.1,0.1-0.2,0.2-0.2,0.3c0.7,3.6,2.8,6.8,5.6,9
			c0.1,0.1,0.3,0.1,0.4,0l2.8-2.4l-2.3,3.3c-0.1,0.1-0.1,0.4,0.1,0.5c1.7,1.1,3.4,1.9,5.5,2.3c0.8,0.1,1.2,0.1,1.9,0.1
			c0.2,0,0.3-0.1,0.3-0.3l0-0.2c0-0.2,0.4-4.7,0.5-4.7c0.2,0,0.7,3.9,0.7,4.1l0,0.3c0,0.2,0.2,0.3,0.3,0.3c3.2-0.2,6-0.7,8.5-2.7
			c0.1-0.1,0.2-0.3,0-0.4l-1.1-2.2l2.1,1.4c0.1,0.1,0.3,0.1,0.4,0c1.6-1.5,2.8-2.9,3.7-5c0.1-0.1,0-0.3-0.1-0.4l-3-2.1l3.7,1.1
			c0.2,0.1,0.4,0,0.4-0.2C222.1,226,222.1,225.5,222.2,224.8z"/>
		<path id="XMLID_159_" class="st7" d="M195.4,223.4c-0.3-0.3-0.4-0.8-0.2-1.2s-1.5-1.4-1-1.9c0.2-0.2,0.6-0.1,0.8-0.4
			c0.3-0.3,0.1-0.8,0-1.3c-0.1-0.4-0.2-0.9-0.1-1.4s0.5-0.8,1-0.9c0.2,0,0.5,0.1,0.7,0.1c0.9,0,1.7-0.9,1.4-1.8
			c-0.1-0.6-0.6-1-0.9-1.6c-0.2-0.5,0-1.4,0.6-1.4c0.3,0,0.5,0.2,0.8,0.3c0.6,0.1,3.1,0.5,3-0.1c-0.1-0.6-0.6-1.1-1.2-1.4
			c0.1-0.5,0.7-0.7,1.3-0.6c0.5,0.1,1.1,0.3,1.6,0.1c0.5-0.2,0.7-0.7,1-1.1c0.3-0.4,0.8-0.8,1.3-0.7c0.4,0.1,0.6,0.6,0.8,0.9
			c0.5,0.7,1.4,1.1,2.2,1.1c0.2,0,0.3,0,0.5,0c0.4,0.2,0.4,0.7,0.2,1.1c-0.1,0.4-0.3,0.8-0.1,1.2c0.2,0.3,0.5,0.4,0.8,0.4
			c0.3,0,0.6-0.1,0.9-0.2c0.2,0,0.4-0.1,0.6,0c0.2,0.1,0.3,0.4,0.3,0.7c0,0.6,0,1.3-0.2,1.9c0.6,0.6,2.5,0.2,3.1-0.5
			c0.3-0.3,0.6-0.9,1.1-0.8c0.5,0,0.7,0.6,0.8,1s0,1,0.4,1.3c0.4,0.5,1.4,0.5,1.4,1.1c0,0.7-1,0.8-1.3,1.5c-0.2,0.5,1,1.9,1.4,2.3
			c0.4,0.4,0.9,1,0.6,1.6c-0.5,1-4.1-0.4-4.6,0.6c-0.3,0.5,0.1,1.1,0.5,1.5c0.4,0.4,0.9,0.9,0.8,1.5c-0.1,0.4-0.4,0.7-0.7,0.9
			c-0.3-0.3-0.6-0.5-1-0.6c-0.4-0.1-0.8,0.1-0.9,0.5c-0.1,0.3,0.1,0.6,0.3,0.8c0.3,0.4,0.7,0.8,1.2,1c0.5,0.2,1.1,0.1,1.4-0.3
			c0.2-0.2,0.3-0.4,0.5-0.4c0.1,0,0.2,0.1,0.2,0.1c0.3,0.3,0.5,0.7,0.5,1.1c0,0.4-0.3,0.8-0.7,0.9c-0.4,0-0.7-0.2-1.1-0.1
			c-0.6,0.2-0.7,1.2-1.3,1.4c-0.6,0.2-1.1-0.4-1.7-0.4c-0.5,0-0.9,0.3-1.2,0.8c-0.2,0.4-0.3,0.9-0.5,1.4c-0.2,0.6-0.4,1.2-0.9,1.6
			c-0.5,0.4-1.2,0.6-1.7,0.3c-0.9-0.5-1-1.8-1.9-2.4c-0.1-0.1-0.3-0.1-0.4-0.1c-0.2,0-0.4,0.2-0.5,0.4c-0.3,0.4-0.8,0.8-1.3,0.9
			c-0.5,0.1-1.1-0.3-1.1-0.9c0-0.2,0.1-0.2-0.2-0.5c-0.3-0.2-0.7,0.2-1.1,0.3c-0.4,0.1-0.9,0.1-1.2-0.3s-0.4-0.8-0.1-1.2
			c0.2-0.3,0.7-0.5,1-0.8c0.5-0.4,0.5-1.2,0.1-1.7c-0.4-0.5-1.8-1-2.2-0.6c-0.3,0.3-0.5,0.7-0.9,0.7c-0.3,0-0.6-0.2-0.8-0.1
			c-0.6,0.1-0.7,0.9-1.3,1c-0.4,0.1-0.8-0.3-1-0.6c-0.3-0.4-0.6-0.9-0.4-1.3c0.2-0.6,0.9-0.9,0.9-1.5c0-0.4-0.3-0.7-0.7-0.9
			c-0.3-0.2,0.2-0.8,0-1.2c-0.2-0.4,0-0.9,0.4-0.9"/>
	</g>
	<g id="Calque_2_-_copie_5_1_">
		<path id="XMLID_214_" class="st4" d="M216.9,221.9c0-1.2-0.2-2.3-0.6-3.4c0-0.1-0.1-0.2-0.3-0.1l-2.4,0.6l2.3-0.9
			c0.1,0,0.2-0.2,0.1-0.3c-0.7-1.6-1.7-3-3-4.1c-0.3-0.3-0.8-0.2-1.1,0.1l-0.1,0.1l-1.5,1.8l1.1-1.8l0.5-0.8c0.1-0.1,0-0.2-0.1-0.3
			c-1.6-1-3.5-1.6-5.6-1.6c-0.1,0-0.3,0-0.4,0c-0.1,0-0.2,0.1-0.2,0.2v0.3v0c0,0.1,0,1.5-0.1,1.5c-0.1,0-0.3-1.3-0.3-1.4l0,0l0-0.3
			c0-0.1-0.1-0.2-0.2-0.2c-1.8,0.2-3.4,0.9-4.8,1.8c-0.3,0.2-0.4,0.6-0.2,0.9l0.6,1.3l-1-1.4c-0.1-0.1-0.2-0.1-0.3,0
			c-1.3,1.1-2.3,2.5-2.9,4.1c0,0.1,0,0.2,0.1,0.3l1.7,1.1l-1.8-0.8c-0.1-0.1-0.3,0-0.3,0.1c-0.3,1-0.5,2.1-0.5,3.3
			c0,1.1,0.2,2.2,0.5,3.2c0,0.1,0.2,0.2,0.3,0.1l2-1l-1.9,1.4c-0.1,0.1-0.1,0.2-0.1,0.3c0.9,2.4,2.7,4.3,5,5.5c0.1,0,0.2,0,0.3-0.1
			l1.5-2l-1.2,2.1c-0.1,0.1,0,0.3,0.1,0.3c1.3,0.6,2.7,0.9,4.2,0.9c0.5,0,1.1,0,1.6-0.1c0.1,0,0.2-0.1,0.2-0.2l0-0.2
			c0-0.1-0.5-2.8-0.5-2.9c0.1,0,0.8,2.6,0.9,2.8l0.1,0.2c0,0.1,0.1,0.2,0.3,0.1c2.2-0.5,4.1-1.7,5.6-3.4c0.1-0.1,0.1-0.2,0-0.3
			l-1-0.9l1.2,0.7c0.1,0.1,0.2,0,0.3,0c0.9-1.2,1.6-2.6,2-4.2c0-0.1,0-0.2-0.1-0.2l-1.9-0.8l1.9,0.5c0.1,0,0.2-0.1,0.3-0.2
			C216.9,223,216.9,222.5,216.9,221.9z"/>
		<path id="XMLID_213_" class="st5" d="M215.6,221.9c0-1-0.2-2-0.5-3c0-0.1-0.1-0.1-0.2-0.1l-2.1,0.5l2-0.8c0.1,0,0.1-0.2,0.1-0.2
			c-0.6-1.4-1.5-2.6-2.6-3.6c-0.3-0.2-0.7-0.2-1,0.1l-0.1,0.1l-1.3,1.6l1-1.6l0.4-0.7c0.1-0.1,0-0.2-0.1-0.3
			c-1.4-0.9-3.1-1.4-4.9-1.4c-0.1,0-0.2,0-0.3,0c-0.1,0-0.2,0.1-0.2,0.2v0.3v0c0,0.1,0,1.3-0.1,1.3c-0.1,0-0.3-1.1-0.3-1.3l0,0
			l0-0.3c0-0.1-0.1-0.2-0.2-0.2c-1.5,0.2-3,0.8-4.2,1.6c-0.3,0.2-0.3,0.5-0.2,0.8l0.6,1.1l-0.9-1.2c-0.1-0.1-0.2-0.1-0.3,0
			c-1.1,1-2,2.2-2.6,3.6c0,0.1,0,0.2,0.1,0.2l1.5,1l-1.6-0.7c-0.1,0-0.2,0-0.3,0.1c-0.3,0.9-0.5,1.9-0.5,2.9c0,1,0.2,1.9,0.4,2.8
			c0,0.1,0.2,0.2,0.3,0.1l1.7-0.9l-1.7,1.2c-0.1,0.1-0.1,0.1-0.1,0.2c0.8,2.1,2.4,3.8,4.4,4.8c0.1,0,0.2,0,0.2-0.1l1.4-1.8l-1,1.9
			c-0.1,0.1,0,0.2,0.1,0.3c1.1,0.5,2.4,0.8,3.7,0.8c0.5,0,0.9,0,1.4-0.1c0.1,0,0.2-0.1,0.2-0.2l0-0.1c0-0.1-0.5-2.5-0.4-2.5
			c0.1,0,0.7,2.3,0.8,2.4l0.1,0.2c0,0.1,0.1,0.2,0.2,0.1c1.9-0.5,3.6-1.5,4.9-3c0.1-0.1,0.1-0.2,0-0.3l-0.9-0.8l1,0.7
			c0.1,0.1,0.2,0,0.3,0c0.8-1.1,1.4-2.3,1.7-3.7c0-0.1,0-0.2-0.1-0.2l-1.7-0.7l1.7,0.4c0.1,0,0.2,0,0.2-0.2
			C215.6,222.9,215.6,222.4,215.6,221.9z"/>
		<path id="XMLID_212_" class="st6" d="M215.2,221.9c0-0.9-0.3-1.8-0.5-2.6c0-0.1-0.1-0.1-0.2-0.1l-2.3,0.4l2.1-1.1
			c0.1,0,0.1-0.1,0.1-0.2c-0.5-1.3-1.2-2.3-2.3-3.2c-0.3-0.2-0.7-0.2-0.9,0.1l-0.1,0.1l-1.6,1.5l0.8-1.7l0.4-0.6
			c0-0.1,0-0.2-0.1-0.2c-1.3-0.8-2.6-1.3-4.2-1.3c-0.1,0-0.2,0-0.3,0c-0.1,0-0.2,0.1-0.2,0.2v0.2v0c0,0.1-0.2,1.7-0.3,1.7
			c-0.1,0-0.5-1.4-0.6-1.5v0l0-0.2c0-0.1-0.1-0.2-0.2-0.1c-1.4,0.2-2.6,0.6-3.7,1.3c-0.2,0.2-0.3,0.5-0.2,0.7l0.7,1.5l-1.2-1.1
			c-0.1-0.1-0.4-0.4-0.5-0.3c-1,0.9-1.6,1.8-2.1,3.1c0,0.1,0,0.3,0.1,0.3l1,0.5l-0.9,0.2c-0.1,0-0.5,0-0.5,0.1
			c-0.3,0.8-0.2,1.6-0.2,2.5c0,0.9-0.1,1.4,0.2,2.2c0,0.1,0.3,0.3,0.6,0.1l1.7-0.7l-1.5,1.3c-0.1,0-0.1,0.1-0.1,0.2
			c0.7,1.9,2.2,3.4,3.9,4.4c0.1,0,0.2,0,0.2,0l1.3-1.6l-0.9,2c0,0.1,0,0.2,0.1,0.2c1,0.4,2,0.7,3.2,0.7c0.4,0,0.7-0.1,1.1-0.1
			c0.1,0,0.2-0.1,0.1-0.2l0-0.1c0-0.1-0.2-2.6-0.2-2.6c0.1,0,0.7,2.1,0.8,2.2l0,0.1c0,0.1,0.1,0.1,0.2,0.1c1.7-0.4,3.2-1,4.3-2.3
			c0.1-0.1,0.1-0.2,0-0.2l-0.8-1.1l1.3,0.6c0.1,0,0.2,0,0.2,0c0.7-1,1.2-1.8,1.5-3.1c0-0.1,0-0.2-0.1-0.2l-1.8-0.9l2.1,0.2
			c0.1,0,0.2,0,0.2-0.1C215.3,222.6,215.2,222.4,215.2,221.9z"/>
		<path id="XMLID_211_" class="st7" d="M209.7,227.5c-0.1,0.2-0.3,0.4-0.5,0.4c-0.2,0-0.5-0.1-0.6-0.3c-0.1-0.1-0.2-0.2-0.4-0.3
			c-0.2-0.1-0.9-0.2-1-0.1c-0.2,0.2-0.4,0.3-0.6,0.3s-0.5-0.1-0.6-0.3c-0.1-0.1-0.1-0.2-0.1-0.4c-0.2-0.4-0.8-0.6-1.2-0.3
			c-0.2,0.2-0.3,0.5-0.6,0.8c-0.2,0.2-0.7,0.3-0.8,0c-0.1-0.1,0-0.3-0.1-0.5c-0.1-0.3-0.5-0.4-0.8-0.2c-0.3,0.2-0.4,0.5-0.4,0.9
			c-0.3,0.1-0.5-0.2-0.6-0.5c-0.1-0.3-0.1-0.6-0.3-0.8c-0.2-0.2-0.5-0.2-0.8-0.3c-0.3,0-0.6-0.2-0.6-0.5c0-0.2,0.1-0.4,0.2-0.6
			c0.2-0.4,0.2-0.9,0-1.3c0-0.1-0.1-0.1-0.1-0.2c0-0.2,0.3-0.3,0.5-0.4s-0.4-0.8-0.2-0.9c0.1-0.1,0.1-0.3,0-0.5s-0.2-0.3-0.3-0.4
			c-0.1-0.1-0.1-0.2-0.1-0.3c0-0.1,0.1-0.2,0.3-0.3c0.3-0.2,0.6-0.3,0.9-0.3c0.1-0.4-0.1-1-0.5-1.1c-0.2-0.1-0.6-0.1-0.7-0.4
			c-0.1-0.2,0.1-0.5,0.3-0.6s0.5-0.2,0.6-0.5c0.1-0.3,0.8-0.1,1.1-0.2c0.3-0.2,0.6-1,0.9-1c0.3,0,0.5-0.4,0.6-0.7
			c0.1-0.3,0.3-0.7,0.6-0.6c0.6,0,0.5,1.3,1.1,1.3c0.3,0,0.5-0.3,0.6-0.6c0.1-0.3,0.2-0.6,0.5-0.7c0.2,0,0.5,1.4,0.7,1.5
			c-0.1,0.2-0.1,0.4-0.1,0.6c0,0.2,0.3,0.4,0.5,0.3c0.2,0,0.2-0.2,0.3-0.3c0.1-0.2,0.2-0.5,0.2-0.8c0-0.3-0.2-0.6-0.5-0.6
			c-0.1,0-0.3-0.1-0.3-0.2c0,0,0-0.1,0-0.1c0.1-0.2,0.2-0.4,0.4-0.5c0.2-0.1,0.5,0,0.6,0.2c0.1,0.2,0.1,0.4,0.2,0.6
			c0.2,0.3,0.7,0.1,1,0.3c0.2,0.2,0.1,0.6,0.2,0.9c0.1,0.2,0.4,0.4,0.6,0.4s0.5-0.1,0.8-0.1c0.3-0.1,0.7-0.1,1,0.1
			c0.3,0.1,0.5,0.4,0.5,0.8c0,0.6-0.7,0.9-0.8,1.5c0,0.1,0,0.2,0,0.2c0.1,0.1,0.2,0.1,0.3,0.1c0.3,0.1,0.6,0.2,0.7,0.4
			c0.1,0.2,0.8,0.5,0.5,0.7c-0.2,0.2-0.6,0.2-0.6,0.5c-0.1,0.2,0.2,0.3,0.3,0.5c0.2,0.2,0.2,0.4,0.2,0.7c-0.1,0.2-0.3,0.4-0.6,0.3
			c-0.2,0-0.4-0.2-0.6-0.3c-0.3-0.1-1.4-0.1-1.5,0.2s0,0.7,0.3,0.8c0.2,0.1,0.4,0.1,0.6,0.3c0.1,0.1,0.5,0.7,0.5,0.8
			c0.2,0.3,0.6,0.2,0.8,0.4c0.1,0.2,0,0.4-0.1,0.6c-0.1,0.2-0.3,0.5-0.5,0.5c-0.3,0-0.6-0.3-0.9-0.1c-0.2,0.1-0.3,0.3-0.3,0.5
			c0,0.2,0,0.4-0.2,0.6c-0.1,0.2-0.4,0.2-0.5,0"/>
	</g>
	<g id="Calque_2_-_copie_5">
		<path id="XMLID_146_" class="st4" d="M212.4,220c-0.2-0.7-0.5-1.3-0.9-1.8c0-0.1-0.1-0.1-0.2,0l-1.3,0.8l1.1-1
			c0.1,0,0.1-0.1,0-0.2c-0.7-0.8-1.5-1.4-2.5-1.8c-0.2-0.1-0.5,0-0.6,0.3l0,0.1l-0.5,1.3l0.3-1.2l0.1-0.5c0-0.1,0-0.1-0.1-0.2
			c-1.1-0.3-2.3-0.2-3.5,0.1c-0.1,0-0.1,0-0.2,0.1c-0.1,0-0.1,0.1-0.1,0.2l0.1,0.2l0,0c0,0.1,0.3,0.8,0.2,0.8
			c-0.1,0-0.4-0.7-0.5-0.8l0,0l-0.1-0.2c0-0.1-0.1-0.1-0.2-0.1c-1,0.5-1.8,1.1-2.4,1.9c-0.1,0.2-0.1,0.4,0,0.6l0.6,0.6l-0.8-0.6
			c-0.1,0-0.1,0-0.2,0c-0.5,0.9-0.8,1.8-0.9,2.9c0,0.1,0,0.1,0.1,0.1l1.2,0.3l-1.2-0.1c-0.1,0-0.1,0.1-0.1,0.1c0,0.7,0.1,1.3,0.3,2
			c0.2,0.6,0.5,1.2,0.9,1.7c0,0.1,0.1,0.1,0.2,0l0.9-0.9l-0.8,1.1c0,0,0,0.1,0,0.2c1,1.2,2.4,2,3.9,2.2c0.1,0,0.1,0,0.1-0.1l0.5-1.5
			l-0.3,1.4c0,0.1,0,0.1,0.1,0.2c0.8,0.1,1.7,0,2.6-0.3c0.3-0.1,0.6-0.2,0.9-0.4c0.1,0,0.1-0.1,0.1-0.2l0-0.1c0-0.1-0.8-1.5-0.8-1.5
			c0.1,0,1,1.3,1,1.4l0.1,0.1c0,0.1,0.1,0.1,0.2,0c1.2-0.7,2-1.8,2.5-3c0-0.1,0-0.1-0.1-0.2l-0.7-0.3l0.8,0.2c0.1,0,0.1,0,0.2-0.1
			c0.3-0.9,0.4-1.8,0.3-2.8c0-0.1-0.1-0.1-0.1-0.1l-1.2-0.1l1.2-0.1c0.1,0,0.1-0.1,0.1-0.1C212.5,220.6,212.5,220.3,212.4,220z"/>
		<path id="XMLID_145_" class="st5" d="M211.3,220.3c-0.2-0.6-0.4-1.1-0.8-1.5c0,0-0.1-0.1-0.1,0l-1,0.7l0.9-0.8c0,0,0.1-0.1,0-0.2
			c-0.6-0.6-1.3-1.1-2-1.4c-0.2-0.1-0.4,0-0.5,0.2l0,0.1l-0.4,1.1l0.3-1l0.1-0.5c0-0.1,0-0.1-0.1-0.1c-0.9-0.2-1.9-0.2-2.9,0.1
			c-0.1,0-0.1,0-0.2,0.1c-0.1,0-0.1,0.1-0.1,0.1l0,0.1l0,0c0,0.1,0.2,0.7,0.2,0.7c0,0-0.3-0.6-0.4-0.6l0,0l-0.1-0.1
			c0-0.1-0.1-0.1-0.1-0.1c-0.8,0.4-1.5,0.9-2,1.6c-0.1,0.1-0.1,0.3,0,0.5l0.5,0.5l-0.7-0.5c-0.1,0-0.1,0-0.2,0
			c-0.4,0.7-0.7,1.5-0.7,2.4c0,0.1,0,0.1,0.1,0.1l1,0.2l-1-0.1c-0.1,0-0.1,0-0.1,0.1c0,0.5,0.1,1.1,0.3,1.6c0.2,0.5,0.4,1,0.7,1.4
			c0,0.1,0.1,0.1,0.2,0l0.8-0.8l-0.7,0.9c0,0,0,0.1,0,0.1c0.8,1,1.9,1.6,3.2,1.8c0.1,0,0.1,0,0.1-0.1l0.4-1.2l-0.2,1.2
			c0,0.1,0,0.1,0.1,0.1c0.7,0.1,1.4,0,2.1-0.2c0.3-0.1,0.5-0.2,0.7-0.3c0.1,0,0.1-0.1,0-0.1l0-0.1c0-0.1-0.7-1.2-0.7-1.3
			c0,0,0.8,1.1,0.8,1.2l0.1,0.1c0,0,0.1,0.1,0.1,0c1-0.6,1.7-1.4,2.1-2.4c0-0.1,0-0.1-0.1-0.1l-0.6-0.3l0.7,0.2c0.1,0,0.1,0,0.1-0.1
			c0.3-0.7,0.4-1.5,0.3-2.3c0-0.1,0-0.1-0.1-0.1l-1-0.1l1-0.1c0.1,0,0.1-0.1,0.1-0.1C211.4,220.8,211.4,220.6,211.3,220.3z"/>
		<path id="XMLID_144_" class="st6" d="M211.1,220.4c-0.2-0.5-0.4-0.9-0.7-1.3c0,0-0.1-0.1-0.1,0l-1.1,0.6l0.9-0.9c0,0,0-0.1,0-0.1
			c-0.5-0.6-1.1-1-1.8-1.3c-0.2-0.1-0.4,0-0.5,0.2l0,0.1l-0.6,1.1l0.1-1.1l0.1-0.4c0-0.1,0-0.1-0.1-0.1c-0.8-0.2-1.6-0.3-2.5,0
			c-0.1,0-0.1,0-0.2,0.1c0,0-0.1,0.1-0.1,0.1l0,0.1l0,0c0,0.1,0.2,1,0.2,1c0,0-0.5-0.7-0.6-0.7l0,0l-0.1-0.1c0,0-0.1-0.1-0.1,0
			c-0.7,0.3-1.3,0.8-1.8,1.4c-0.1,0.1-0.1,0.3,0,0.4l0.7,0.7l-0.8-0.4c0,0-0.3-0.1-0.3-0.1c-0.4,0.6-0.6,1.2-0.6,2
			c0,0,0.1,0.2,0.1,0.2l1.2,0.3l-1,0c-0.1,0-0.3,0.1-0.3,0.1c0,0.5,0.2,0.9,0.4,1.4c0.2,0.5,0.2,0.8,0.5,1.1c0,0,0.2,0.1,0.4-0.1
			l0.8-0.7l-0.6,1c0,0,0,0.1,0,0.1c0.7,0.9,1.8,1.5,2.9,1.7c0,0,0.1,0,0.1-0.1l0.4-1.1l-0.1,1.2c0,0.1,0,0.1,0.1,0.1
			c0.6,0.1,1.2,0,1.8-0.2c0.2-0.1,0.3-0.1,0.6-0.3c0,0,0.1-0.1,0-0.1l0-0.1c0-0.1-0.6-1.4-0.5-1.4c0,0,0.8,1,0.8,1l0,0.1
			c0,0,0.1,0.1,0.1,0c0.9-0.5,1.6-1.1,1.9-2c0,0,0-0.1-0.1-0.1l-0.6-0.4l0.8,0.1c0,0,0.1,0,0.1-0.1c0.2-0.6,0.3-1.2,0.3-1.9
			c0,0,0-0.1-0.1-0.1l-1.1-0.1l1.2-0.2c0.1,0,0.1-0.1,0.1-0.1C211.2,220.7,211.1,220.6,211.1,220.4z"/>
		<path id="XMLID_143_" class="st8" d="M205.6,224.8c-0.1,0-0.2,0-0.3-0.1c-0.1-0.1-0.1-0.2-0.1-0.3c0-0.1,0-0.2,0-0.2
			c-0.1-0.1-0.2-0.1-0.3-0.1c-0.1,0-0.2,0-0.3-0.1c-0.1-0.1-0.2-0.2-0.1-0.3c0-0.1,0.1-0.1,0.1-0.2c0.1-0.2-0.1-0.5-0.3-0.5
			c-0.2,0-0.3,0.1-0.5,0.1c-0.2,0-0.3-0.1-0.3-0.3c0-0.1,0.1-0.1,0.1-0.2c0.1-0.1,0-0.3-0.2-0.4c-0.2,0-0.3,0-0.4,0.2
			c-0.1-0.1-0.1-0.3,0-0.4s0.2-0.2,0.2-0.4c0-0.1-0.1-0.2-0.2-0.4c-0.1-0.1-0.1-0.3,0-0.4c0.1-0.1,0.2-0.1,0.3-0.1
			c0.2-0.1,0.4-0.2,0.5-0.4c0,0,0-0.1,0.1-0.1c0.1-0.1,0.2,0,0.3,0c0.1,0.1,0.2,0.2,0.3,0.1c0.1,0,0.1-0.1,0.2-0.2s0-0.2,0-0.3
			c0,0,0-0.1,0.1-0.1c0.1,0,0.1,0,0.2,0c0.2,0.1,0.3,0.1,0.4,0.2c0.2-0.1,0.3-0.4,0.2-0.6c-0.1-0.1-0.2-0.2-0.1-0.4
			c0-0.1,0.2-0.1,0.3-0.1c0.1,0,0.2,0.1,0.4,0c0.2-0.1,0.3-0.3,0.4-0.2c0.2,0.1,0.1,0.3,0.2,0.5c0.1,0.1,0.3,0.1,0.4,0
			s0.3-0.1,0.4,0c0.2,0.2-0.3,0.6-0.1,0.8c0.1,0.1,0.3,0.1,0.4,0c0.1-0.1,0.3-0.1,0.4-0.1c0.1,0.1,0.1,0.2,0.1,0.3
			c-0.1,0-0.2,0.1-0.2,0.2c-0.1,0.1,0,0.2,0,0.3c0.1,0,0.1,0,0.2,0c0.1,0,0.3-0.1,0.3-0.2c0.1-0.1,0.1-0.3,0.1-0.4
			c0-0.1-0.1-0.1,0-0.2c0,0,0,0,0.1,0c0.1-0.1,0.2-0.1,0.3,0c0.1,0,0.2,0.2,0.1,0.3c0,0.1-0.1,0.2-0.1,0.3c0,0.2,0.2,0.3,0.2,0.4
			c0,0.2-0.2,0.2-0.3,0.4c-0.1,0.1,0,0.3,0.1,0.4c0.1,0.1,0.2,0.2,0.3,0.2c0.1,0.1,0.2,0.2,0.3,0.4s0,0.3-0.1,0.5
			c-0.2,0.2-0.5,0.1-0.8,0.2c0,0-0.1,0.1-0.1,0.1c0,0.1,0,0.1,0.1,0.2c0.1,0.1,0.1,0.3,0.1,0.4c0,0.1-0.2,0.2-0.3,0.2
			c-0.1,0-0.2-0.2-0.3-0.1c-0.1,0-0.1,0.2-0.1,0.3c0,0.1-0.1,0.2-0.2,0.3c-0.1,0-0.2,0-0.3-0.1c-0.1-0.1,0-0.2-0.1-0.3
			c-0.1-0.2-0.3-0.2-0.4-0.2s-0.2,0.2-0.2,0.4c0,0.1,0.1,0.2,0.1,0.3c0,0.1-0.1,0.1-0.1,0.2c0,0.1,0.2,0.3,0.1,0.4
			c0,0.1-0.1,0.2-0.2,0.2c-0.1,0-0.3,0.1-0.4,0c-0.1-0.1-0.1-0.3-0.3-0.4c-0.1,0-0.2,0-0.3,0.1s-0.2,0.1-0.3,0.2
			C205.7,225,205.6,224.9,205.6,224.8"/>
	</g>
	<path id="XMLID_142_" class="st9" d="M203.8,221.9c0,0,2.6-0.6,2.6-1.8c0,0,0.5,1.8,2.1,1.9c0,0-2.3,0.9-2.4,2.2
		C206.1,224.2,206.1,222,203.8,221.9z"/>
	<path id="XMLID_141_" class="st9" d="M205.1,222.1c0,0,1.2-0.3,1.2-0.8c0,0,0.2,0.8,1,0.9c0,0-1,0.4-1.1,1
		C206.1,223.1,206.1,222.1,205.1,222.1z"/>
	<g id="Calque_5_-_copie_5_2_" class="st0">
		<path id="XMLID_206_" class="st10" d="M206.2,210.4l-0.5,0c-0.6,0-1.2,0.1-1.7,0.2l-2.5,0.7c-0.9,0.2-1.8-0.3-2-1.3
			c0-0.2-0.1-0.4-0.2-0.6l-0.1-0.3c-0.1-0.1-0.1-0.3-0.1-0.4l-0.1-0.5c-0.1-0.5,0-1,0.3-1.4c0.4-0.5,1-0.8,1.6-0.8l0.3,0
			c0.4,0,0.8,0,1.1-0.1l3.3-0.8c1-0.2,1.9,0.4,2.2,1.4c0,0.1,0,0.2,0,0.3l0,0.4c0,0.3,0.1,0.6,0.1,0.9l0.1,0.3
			c0.2,0.9-0.3,1.6-1.2,1.9C206.6,210.4,206.4,210.4,206.2,210.4z"/>
		<path id="XMLID_205_" class="st11" d="M205.9,210.2l-0.5,0c-0.5,0-1,0.1-1.6,0.2l-2.3,0.6c-0.9,0.2-1.6-0.3-1.8-1.2
			c0-0.2-0.1-0.4-0.2-0.6l-0.1-0.3c0-0.1-0.1-0.2-0.1-0.4l-0.1-0.4c-0.1-0.5,0-0.9,0.3-1.3c0.3-0.5,0.9-0.7,1.4-0.7l0.3,0
			c0.3,0,0.7,0,1-0.1l3-0.7c0.9-0.2,1.7,0.4,2,1.3c0,0.1,0,0.2,0,0.3l0,0.4c0,0.3,0.1,0.6,0.1,0.8l0.1,0.3c0.1,0.8-0.3,1.4-1.1,1.7
			C206.3,210.2,206.1,210.2,205.9,210.2z"/>
		<g id="XMLID_201_" class="st12">
			<g id="XMLID_203_">
				<path id="XMLID_204_" class="st13" d="M203.7,206.9c-0.5,0.5-2.6-0.9-3.3-0.5c-0.8,0.4-0.1,1.2,0.4,2.2c1,1,2.2,3.1,3.7,2.8
					c1.5-0.3,1.5-2.1,1.5-4c-0.5-0.5,0-1.9-0.7-2c-0.8-0.1-1.8,1.8-2.3,1.8l-0.7-0.3C202.6,207.2,203.7,206.9,203.7,206.9z"/>
			</g>
		</g>
		<g id="XMLID_197_" class="st14">
			<g id="XMLID_199_">
				<path id="XMLID_200_" class="st15" d="M203.7,207.9c-0.5,0.5-2.2-0.7-2.4-0.4s0,0.2-0.5,0.7c1.5-0.8,2.2,3.7,3.7,2.4
					c0.5-0.4-0.4-2.3,0.6-3.7c-0.5,0,0-0.7-0.5-0.7s-1,2-1.5,2l-0.7-0.3C202.6,208.2,203.7,207.9,203.7,207.9z"/>
			</g>
		</g>
		
			<ellipse id="XMLID_196_" transform="matrix(-0.3109 0.9504 -0.9504 -0.3109 467.0537 77.2897)" class="st16" cx="205.5" cy="208" rx="0.2" ry="0.2"/>
		
			<ellipse id="XMLID_195_" transform="matrix(0.2386 0.9711 -0.9711 0.2386 356.6141 -39.9071)" class="st16" cx="203.8" cy="207.5" rx="0.2" ry="0.2"/>
		<circle id="XMLID_194_" class="st16" cx="201.9" cy="208.5" r="0.1"/>
	</g>
	<g id="Calque_5_-_copie_5_1_">
		<path id="XMLID_105_" class="st3" d="M208.3,233.1l0.5-0.1c0.6-0.1,1.1-0.3,1.7-0.5l2.4-1.1c0.9-0.3,1.8,0,2.2,1
			c0.1,0.2,0.2,0.4,0.3,0.6l0.2,0.3c0.1,0.1,0.1,0.2,0.2,0.4l0.2,0.4c0.2,0.5,0.1,1-0.1,1.5c-0.3,0.6-0.8,1-1.5,1.1l-0.3,0
			c-0.4,0.1-0.8,0.2-1.1,0.3l-3.1,1.3c-0.9,0.3-2-0.1-2.4-1c0-0.1-0.1-0.2-0.1-0.3l-0.1-0.4c-0.1-0.3-0.2-0.6-0.3-0.9l-0.1-0.3
			c-0.3-0.9,0.1-1.7,0.9-2.1C207.9,233.2,208.1,233.1,208.3,233.1z"/>
		<path id="XMLID_104_" class="st17" d="M208.6,233.2l0.5-0.1c0.5-0.1,1-0.2,1.5-0.5l2.2-1c0.8-0.3,1.7,0,2,0.9
			c0.1,0.2,0.2,0.4,0.3,0.5l0.2,0.3c0.1,0.1,0.1,0.2,0.2,0.3l0.1,0.4c0.2,0.5,0.1,0.9-0.1,1.3c-0.2,0.5-0.8,0.9-1.3,1l-0.3,0
			c-0.4,0.1-0.7,0.2-1,0.3L210,238c-0.9,0.3-1.8-0.1-2.2-0.9c0-0.1-0.1-0.2-0.1-0.3l-0.1-0.4c-0.1-0.3-0.2-0.5-0.3-0.8l-0.1-0.3
			c-0.3-0.8,0.1-1.5,0.8-1.9C208.2,233.3,208.4,233.3,208.6,233.2z"/>
		<g id="XMLID_100_" class="st18">
			<g id="XMLID_102_">
				<path id="XMLID_103_" class="st13" d="M212.2,235.5c0.4-0.4,2.1,0.9,2.4,0.7c0.5-0.3-0.7-1.1-0.7-1.7c-0.5-1.1-0.4-2.6-1.3-2.6
					c-0.8,0-1.8,2.2-2.7,2.2c-0.7,0-3.3-1-3.3,0.4c0,0.6,2.1,0.8,3.1,2c0.5,0.5,0.9,1.8,1.7,1.4c0.7-0.4,1-2.8,1.5-2.8l0.7,0.3
					C213.3,235.1,212.2,235.5,212.2,235.5z"/>
			</g>
		</g>
		<g id="XMLID_87_" class="st19">
			<g id="XMLID_98_">
				<path id="XMLID_99_" class="st15" d="M210.9,236.2c0-0.5,2.1-0.6,2.4-1.1s-0.1-0.5-0.1-1c-0.7,0.7-3-2.8-4-1.6
					c-0.4,0.4,1,1.9,0.7,3.6c0.5,0,0,1.1,0.5,1.1s1-2,1.5-2l0,0C211.4,235.2,210.9,236.2,210.9,236.2z"/>
			</g>
		</g>
		
			<ellipse id="XMLID_86_" transform="matrix(0.1449 -0.9894 0.9894 0.1449 -53.9271 408.4934)" class="st20" cx="209.4" cy="235.4" rx="0.2" ry="0.2"/>
		
			<ellipse id="XMLID_85_" transform="matrix(-0.4001 -0.9165 0.9165 -0.4001 79.7961 523.4998)" class="st20" cx="211.2" cy="235.6" rx="0.2" ry="0.3"/>
		<circle id="XMLID_84_" class="st20" cx="213" cy="234.3" r="0.1"/>
	</g>
	<g id="Calque_5_-_copie_5" class="st0">
		<path id="XMLID_180_" class="st10" d="M195.1,217.9l-0.2,0.4c-0.2,0.4-0.3,0.9-0.4,1.3l-0.3,2.1c-0.2,0.8-0.8,1.2-1.6,1.1
			c-0.2,0-0.3-0.1-0.5-0.1l-0.3,0c-0.1,0-0.2,0-0.3,0l-0.4-0.1c-0.4-0.1-0.7-0.3-1-0.7c-0.3-0.4-0.3-1-0.1-1.4l0.1-0.2
			c0.1-0.3,0.2-0.6,0.3-0.9l0.4-2.7c0.2-0.8,0.9-1.3,1.7-1.2c0.1,0,0.2,0,0.2,0.1l0.3,0.1c0.2,0.1,0.5,0.1,0.7,0.2l0.3,0
			c0.7,0.2,1.1,0.7,1,1.4C195.2,217.6,195.1,217.7,195.1,217.9z"/>
		<path id="XMLID_179_" class="st11" d="M194.8,218l-0.2,0.4c-0.2,0.4-0.3,0.8-0.3,1.2l-0.2,1.9c-0.2,0.7-0.7,1.1-1.4,1
			c-0.2,0-0.3,0-0.5-0.1l-0.2,0c-0.1,0-0.2,0-0.3,0l-0.3-0.1c-0.4-0.1-0.7-0.3-0.9-0.6c-0.2-0.4-0.3-0.9-0.1-1.3l0.1-0.2
			c0.1-0.3,0.2-0.5,0.2-0.8l0.4-2.4c0.2-0.7,0.8-1.2,1.5-1.1c0.1,0,0.1,0,0.2,0.1l0.3,0.1c0.2,0.1,0.4,0.1,0.7,0.2l0.2,0
			c0.7,0.1,1,0.7,0.9,1.3C194.9,217.7,194.9,217.9,194.8,218z"/>
		<g id="XMLID_175_" class="st12">
			<g id="XMLID_177_">
				<path id="XMLID_178_" class="st13" d="M191.9,219.2c0,0.7-2.2,2-1.6,2.7c0.3,0.3,1.1-0.9,2-0.5c0-1,2.2-1,2.6-2.1
					c0.4-1.2-0.7-1.6-2.3-2.1c-0.5,0-1.7-0.9-2-0.3C190.3,217.5,191.9,218.7,191.9,219.2l-1,1C191.4,220.2,191.9,219.2,191.9,219.2z
					"/>
			</g>
		</g>
		<g id="XMLID_171_" class="st14">
			<g id="XMLID_173_">
				<path id="XMLID_174_" class="st15" d="M191.7,218.5c0.4,0.4-0.9,2.1-0.7,2.4c0.3,0.5,1.4-0.7,2-0.7c0.6,0,2.3,0.1,2.1-1
					c-0.1-0.6-1.6-0.3-2.3-1c-0.5,0.5-1.3-0.9-1.5-0.7s0.9,1.9,0.4,2.4l0,0C192,219.5,191.7,218.5,191.7,218.5z"/>
			</g>
		</g>
		
			<ellipse id="XMLID_170_" transform="matrix(0.7601 0.6498 -0.6498 0.7601 187.6883 -73.2105)" class="st16" cx="193" cy="217.6" rx="0.2" ry="0.2"/>
		
			<ellipse id="XMLID_169_" transform="matrix(0.9887 0.1496 -0.1496 0.9887 34.898 -26.2822)" class="st16" cx="192.1" cy="218.8" rx="0.2" ry="0.2"/>
		<circle id="XMLID_168_" class="st16" cx="192.3" cy="220.5" r="0.1"/>
	</g>
</g>
</svg>
