<svg version="1.0" xmlns="http://www.w3.org/2000/svg" width="300" height="260" style="enable-background:new 0 0 300 260" xml:space="preserve"><style>.st0{display:none}.st3{opacity:.15;fill:#12100b}.st4{fill:#333e1f}.st5{fill:#4ca276}.st6{fill:#2a7a55}.st7,.st8{opacity:.2;fill:#12100b}.st8{fill:#bcddc1}.st9{opacity:.5;fill:#aed0b1}.st10{opacity:.15;fill:#12100b}.st10,.st11,.st12{display:inline}.st11{fill:#d5edf8}.st12{opacity:.4}.st13{fill:#ecf7fd}.st14{display:inline;opacity:.25}.st15{fill:#f2fafe}.st16{display:inline;opacity:.5;fill:#fff}.st17{fill:#d5edf8}.st18{opacity:.4}.st19{opacity:.25}.st20{opacity:.5;fill:#fff}</style><g id="Calque_7_-_copie"><path id="XMLID_75_" class="st3" d="M240.4 55.9c.3-1.9.3-3.9.1-5.7 0-.2-.2-.3-.4-.3l-4.1.3 4-.9c.2 0 .3-.2.3-.4-.6-2.8-1.9-5.4-3.8-7.6-.5-.6-1.3-.6-1.9-.2l-.2.1-3 2.5 2.4-2.6 1.1-1.2c.1-.1.1-.4 0-.5-2.4-2.1-5.4-3.6-8.7-4.2-.2 0-.4-.1-.6-.1-.2 0-.4.1-.4.3l-.1.5c0 .2-.4 2.4-.6 2.4-.2 0-.1-2.2-.1-2.4v-.5c0-.2-.1-.4-.3-.4-2.9-.2-5.8.4-8.3 1.6-.5.2-3.4 3-3.2 3.6l.7 2.2-1.2-2.6c-.1-.2-.3-.3-.5-.2-2.5 1.5-5.7 5.9-7.2 8.4l3.8.2-4.1.3c-1 1.7-1.6 3.6-2 5.6-.3 2-.4 3.9-.1 5.8l3.9-1.2-3.8 1.8c.8 4.4 3.3 8.3 6.8 10.9l3.3-3.1-2.8 3.5c2 1.4 4.4 2.4 7 2.9 1 .2 2 .3 3 .3v-.6c0-.2-.1-4.8.1-4.8s.6 4.5.6 4.8l.1.7c4-.2 7.7-1.7 10.7-4.2l-1.6-2 1.9 1.8c2-1.8 7.2-8.5 8.3-11 .1-.2 0-.3-.1-.4l-3-1.8 3 1.3c.2.1.4 0 .5-.2.1-1 .3-1.9.5-2.7z"/><g id="Calque_2_-_copie_3_2_"><path id="XMLID_74_" class="st4" d="M241.3 56c.4-2 .4-4 .1-6 0-.2-.2-.3-.4-.3l-4.3.3 4.2-.9c.2 0 .3-.2.3-.4-.7-2.9-2-5.7-3.9-7.9-.5-.6-1.4-.7-2-.2l-.2.1-3.2 2.7 2.5-2.7 1.1-1.2c.1-.2.1-.4 0-.5-2.5-2.2-5.6-3.8-9.2-4.5-.2 0-.4-.1-.7-.1-.2 0-.4.1-.4.3l-.1.5c0 .2-.4 2.5-.6 2.5-.2 0-.1-2.3-.1-2.6v-.5c0-.2-.2-.4-.4-.4-3.1-.2-6.1.4-8.8 1.7-.6.3-.8.9-.7 1.5l.7 2.4-1.3-2.7c-.1-.2-.3-.3-.5-.2-2.5 1.5-4.7 3.6-6.2 6.1-.1.2-.1.4.1.5l2.7 2.4-2.8-1.9c-.2-.1-.4-.1-.5.1-.9 1.7-1.6 3.5-1.9 5.5-.3 1.9-.4 3.8-.1 5.6 0 .2.3.4.5.3l3.7-1.1-3.7 1.7c-.2.1-.2.2-.2.4.9 4.4 3.4 8.3 6.9 11 .1.1.4.1.5 0l3.3-3.1-2.7 3.3c-.1.2-.1.4.1.6 2.1 1.4 4.4 2.3 7 2.8.9.2 1.9.3 2.8.3.2 0 .4-.2.4-.4v-.3c0-.2-.1-5 .1-5.1.2 0 .6 4.8.7 5v.3c0 .2.2.3.4.3 3.9-.2 7.6-1.7 10.6-4.1.2-.1.2-.4.1-.5l-1.5-1.8 1.8 1.6c.1.1.4.1.5 0 2-1.8 3.6-4.1 4.7-6.6.1-.2 0-.4-.2-.5l-3.1-1.9 3.2 1.4c.2.1.4 0 .5-.2-.2-.8 0-1.7.2-2.6z"/><path id="XMLID_73_" class="st5" d="M239.6 55.7c.3-1.9.3-3.7.1-5.4 0-.2-.2-.3-.4-.3l-3.9.3 3.8-.8c.2 0 .3-.2.3-.4-.6-2.7-1.8-5.1-3.6-7.2-.5-.5-1.3-.6-1.8-.2l-.2.1-2.9 2.4 2.3-2.5 1-1.1c.1-.1.1-.4 0-.5-2.3-2-5.1-3.5-8.3-4.1-.2 0-.4-.1-.6-.1-.2 0-.3.1-.4.3l-.1.5c0 .2-.4 2.3-.6 2.3-.2 0-.1-2.1-.1-2.3v-.5c0-.2-.1-.3-.3-.4-2.8-.2-5.6.4-8 1.5-.5.2-.8.8-.6 1.3l.6 2.1-1.1-2.5c-.1-.2-.3-.3-.5-.2-2.3 1.4-4.2 3.3-5.7 5.6-.1.1-.1.3.1.4l2.4 2.2-2.6-1.7c-.2-.1-.4-.1-.5.1-.8 1.5-1.4 3.2-1.7 5-.3 1.7-.3 3.5-.1 5.1 0 .2.2.3.4.3l3.3-1-3.4 1.6c-.1.1-.2.2-.2.4.8 4 3.1 7.5 6.2 10 .1.1.3.1.4 0l3-2.8-2.5 3c-.1.2-.1.4.1.5 1.9 1.2 4 2.1 6.4 2.5.9.2 1.7.2 2.5.3.2 0 .3-.1.3-.3v-.3c0-.2-.1-4.6.1-4.6s.6 4.3.6 4.6v.3c0 .2.2.3.4.3 3.6-.2 6.9-1.6 9.6-3.8.1-.1.2-.3 0-.5l-1.3-1.7 1.6 1.5c.1.1.3.1.5 0 1.8-1.6 3.3-3.7 4.2-6 .1-.2 0-.3-.1-.4l-2.8-1.7 2.9 1.3c.2.1.4 0 .5-.2.4-.6.6-1.4.7-2.3z"/><path id="XMLID_72_" class="st6" d="M238.8 55.6c.3-1.7.1-3.3-.1-4.9 0-.2-.2-.3-.3-.3l-4.2.1 4.1-1.3c.2 0 .3-.2.2-.4-.5-2.4-1.4-4.5-3-6.4-.4-.5-1.1-.6-1.6-.2l-.1.1-3.3 2.2 2-2.8.9-1c.1-.1.1-.3 0-.4-2.1-1.8-4.2-3.2-7.1-3.7-.2 0-.4-.1-.5-.1-.2 0-.3.1-.3.3l-.1.4c0 .2-.9 3-1 3-.1 0-.5-2.7-.5-2.9v-.4c0-.2-.1-.3-.3-.3-2.5-.1-4.9.2-7.1 1.2-.5.2-.7.7-.5 1.2l.8 2.9-1.8-2.3c-.1-.2-.6-.8-.7-.7-2.1 1.2-3.5 2.7-4.8 4.8-.1.1-.1.5 0 .6l2.8 2.7-2.9-1.5c-.2-.1-.9-.2-.9 0-.7 1.4-.8 2.8-1.1 4.4-.3 1.6-.5 2.5-.3 4 0 .2.5.6 1.1.4l3.3-.7-3.2 1.8c-.1.1-.2.2-.2.3.7 3.6 2.8 6.8 5.6 9 .1.1.3.1.4 0l2.8-2.4-2.3 3.3c-.1.1-.1.4.1.5 1.7 1.1 3.4 1.9 5.5 2.3.8.1 1.2.1 1.9.1.2 0 .3-.1.3-.3V68c0-.2.4-4.7.5-4.7.2 0 .7 3.9.7 4.1v.3c0 .2.2.3.3.3 3.2-.2 6-.7 8.5-2.7.1-.1.2-.3 0-.4l-1.1-2.2 2.1 1.4c.1.1.3.1.4 0 1.6-1.5 2.8-2.9 3.7-5 .1-.1 0-.3-.1-.4l-3-2.1 3.7 1.1c.2.1.4 0 .4-.2.2-.7.2-1.2.3-1.9z"/><path id="XMLID_71_" class="st7" d="M212.1 54.3c-.3-.3-.4-.8-.2-1.2.2-.4-1.5-1.4-1-1.9.2-.2.6-.1.8-.4.3-.3.1-.8 0-1.3-.1-.4-.2-.9-.1-1.4s.5-.8 1-.9c.2 0 .5.1.7.1.9 0 1.7-.9 1.4-1.8-.1-.6-.6-1-.9-1.6s0-1.4.6-1.4c.3 0 .5.2.8.3.6.1 3.1.5 3-.1-.1-.6-.6-1.1-1.2-1.4.1-.5.7-.7 1.3-.6.5.1 1.1.3 1.6.1.5-.2.7-.7 1-1.1.3-.4.8-.8 1.3-.7.4.1.6.6.8.9.5.7 1.4 1.1 2.2 1.1h.5c.4.2.4.7.2 1.1s-.3.8-.1 1.2c.2.3.5.4.8.4.3 0 .6-.1.9-.2.2 0 .4-.1.6 0 .2.1.3.4.3.7 0 .6 0 1.3-.2 1.9.6.6 2.5.2 3.1-.5.3-.3.6-.9 1.1-.8.5 0 .7.6.8 1 .1.5 0 1 .4 1.3.4.5 1.4.5 1.4 1.1 0 .7-1 .8-1.3 1.5-.2.5 1 1.9 1.4 2.3.4.4.9 1 .6 1.6-.5 1-4.1-.4-4.6.6-.3.5.1 1.1.5 1.5.4.4.9.9.8 1.5-.1.4-.4.7-.7.9-.3-.3-.6-.5-1-.6-.4-.1-.8.1-.9.5-.1.3.1.6.3.8.3.4.7.8 1.2 1 .5.2 1.1.1 1.4-.3.2-.2.3-.4.5-.4.1 0 .2.1.2.1.3.3.5.7.5 1.1 0 .4-.3.8-.7.9-.4 0-.7-.2-1.1-.1-.6.2-.7 1.2-1.3 1.4-.6.2-1.1-.4-1.7-.4-.5 0-.9.3-1.2.8-.2.4-.3.9-.5 1.4-.2.6-.4 1.2-.9 1.6-.5.4-1.2.6-1.7.3-.9-.5-1-1.8-1.9-2.4-.1-.1-.3-.1-.4-.1-.2 0-.4.2-.5.4-.3.4-.8.8-1.3.9-.5.1-1.1-.3-1.1-.9 0-.2.1-.2-.2-.5-.3-.2-.7.2-1.1.3-.4.1-.9.1-1.2-.3-.3-.3-.4-.8-.1-1.2.2-.3.7-.5 1-.8.5-.4.5-1.2.1-1.7s-1.8-1-2.2-.6c-.3.3-.5.7-.9.7-.3 0-.6-.2-.8-.1-.6.1-.7.9-1.3 1-.4.1-.8-.3-1-.6-.3-.4-.6-.9-.4-1.3.2-.6.9-.9.9-1.5 0-.4-.3-.7-.7-.9s.2-.8 0-1.2c-.2-.4 0-.9.4-.9"/></g><g id="Calque_2_-_copie_3_1_"><path id="XMLID_156_" class="st4" d="M233.6 52.8c0-1.2-.2-2.3-.6-3.4 0-.1-.1-.2-.3-.1l-2.4.6 2.3-.9c.1 0 .2-.2.1-.3-.7-1.6-1.7-3-3-4.1-.3-.3-.8-.2-1.1.1l-.1.1-1.5 1.8 1.1-1.8.5-.8c.1-.1 0-.2-.1-.3-1.6-1-3.5-1.6-5.6-1.6h-.4c-.1 0-.2.1-.2.2v.3c0 .1 0 1.5-.1 1.5s-.3-1.3-.3-1.4v-.3c0-.1-.1-.2-.2-.2-1.8.2-3.4.9-4.8 1.8-.3.2-.4.6-.2.9l.6 1.3-1-1.4c-.1-.1-.2-.1-.3 0-1.3 1.1-2.3 2.5-2.9 4.1 0 .1 0 .2.1.3l1.7 1.1-1.8-.8c-.1-.1-.3 0-.3.1-.3 1-.5 2.1-.5 3.3 0 1.1.2 2.2.5 3.2 0 .1.2.2.3.1l2-1-1.9 1.4c-.1.1-.1.2-.1.3.9 2.4 2.7 4.3 5 5.5.1 0 .2 0 .3-.1l1.5-2-1.2 2.1c-.1.1 0 .3.1.3 1.3.6 2.7.9 4.2.9.5 0 1.1 0 1.6-.1.1 0 .2-.1.2-.2v-.2c0-.1-.5-2.8-.5-2.9.1 0 .8 2.6.9 2.8l.1.2c0 .1.1.2.3.1 2.2-.5 4.1-1.7 5.6-3.4.1-.1.1-.2 0-.3l-1-.9 1.2.7c.1.1.2 0 .3 0 .9-1.2 1.6-2.6 2-4.2 0-.1 0-.2-.1-.2l-1.9-.8 1.9.5c.1 0 .2-.1.3-.2-.4-.7-.3-1.2-.3-1.7z"/><path id="XMLID_155_" class="st5" d="M232.3 52.8c0-1-.2-2-.5-3 0-.1-.1-.1-.2-.1l-2.1.5 2-.8c.1 0 .1-.2.1-.2-.6-1.4-1.5-2.6-2.6-3.6-.3-.2-.7-.2-1 .1l-.1.1-1.3 1.6 1-1.6.4-.7c.1-.1 0-.2-.1-.3-1.4-.9-3.1-1.4-4.9-1.4h-.3c-.1 0-.2.1-.2.2v.3c0 .1 0 1.3-.1 1.3s-.3-1.1-.3-1.3v-.3c0-.1-.1-.2-.2-.2-1.5.2-3 .8-4.2 1.6-.3.2-.3.5-.2.8l.5 1.2-.9-1.2c-.1-.1-.2-.1-.3 0-1.1 1-2 2.2-2.6 3.6 0 .1 0 .2.1.2l1.5 1-1.6-.7c-.1 0-.2 0-.3.1-.3.9-.5 1.9-.5 2.9s.2 1.9.4 2.8c0 .1.2.2.3.1l1.7-.9-1.7 1.2c-.1.1-.1.1-.1.2.8 2.1 2.4 3.8 4.4 4.8.1 0 .2 0 .2-.1l1.4-1.8-1 1.9c-.1.1 0 .2.1.3 1.1.5 2.4.8 3.7.8.5 0 .9 0 1.4-.1.1 0 .2-.1.2-.2v-.1c0-.1-.5-2.5-.4-2.5.1 0 .7 2.3.8 2.4l.1.2c0 .1.1.2.2.1 1.9-.5 3.6-1.5 4.9-3 .1-.1.1-.2 0-.3l-.9-.8 1 .7c.1.1.2 0 .3 0 .8-1.1 1.4-2.3 1.7-3.7 0-.1 0-.2-.1-.2l-1.7-.7 1.7.4c.1 0 .2 0 .2-.2.1-.5.1-1 .1-1.4z"/><path id="XMLID_154_" class="st6" d="M231.9 52.8c0-.9-.3-1.8-.5-2.6 0-.1-.1-.1-.2-.1l-2.3.4 2.1-1.1c.1 0 .1-.1.1-.2-.5-1.3-1.2-2.3-2.3-3.2-.3-.2-.7-.2-.9.1l-.1.1-1.6 1.5.8-1.7.4-.6c0-.1 0-.2-.1-.2-1.3-.8-2.6-1.3-4.2-1.3h-.3c-.1 0-.2.1-.2.2v.2c0 .1-.2 1.7-.3 1.7-.1 0-.5-1.4-.6-1.5v-.2c0-.1-.1-.2-.2-.1-1.4.2-2.6.6-3.7 1.3-.2.2-.3.5-.2.7l.7 1.5-1.2-1.1c-.1-.1-.4-.4-.5-.3-1 .9-1.6 1.8-2.1 3.1 0 .1 0 .3.1.3l1 .5-.9.2c-.1 0-.5 0-.5.1-.3.8-.2 1.6-.2 2.5 0 .9-.1 1.4.2 2.2 0 .1.3.3.6.1l1.7-.7-1.5 1.3c-.1 0-.1.1-.1.2.7 1.9 2.2 3.4 3.9 4.4h.2l1.3-1.6-.9 2c0 .1 0 .2.1.2 1 .4 2 .7 3.2.7.4 0 .7-.1 1.1-.1.1 0 .2-.1.1-.2v-.1c0-.1-.2-2.6-.2-2.6.1 0 .7 2.1.8 2.2v.1c0 .1.1.1.2.1 1.7-.4 3.2-1 4.3-2.3.1-.1.1-.2 0-.2l-.8-1.1 1.3.6h.2c.7-1 1.2-1.8 1.5-3.1 0-.1 0-.2-.1-.2l-1.8-.9 2.1.2c.1 0 .2 0 .2-.1.3-.6.3-.9.3-1.3z"/><path id="XMLID_153_" class="st7" d="M226.4 58.3c-.1.2-.3.4-.5.4s-.5-.1-.6-.3c-.1-.1-.2-.2-.4-.3-.2-.1-.9-.2-1-.1-.2.2-.4.3-.6.3-.2 0-.5-.1-.6-.3-.1-.1-.1-.2-.1-.4-.2-.4-.8-.6-1.2-.3-.2.2-.3.5-.6.8-.2.2-.7.3-.8 0-.1-.1 0-.3-.1-.5-.1-.3-.5-.4-.8-.2-.3.2-.4.5-.4.9-.3.1-.5-.2-.6-.5-.1-.3-.1-.6-.3-.8-.2-.2-.5-.2-.8-.3-.3 0-.6-.2-.6-.5 0-.2.1-.4.2-.6.2-.4.2-.9 0-1.3 0-.1-.1-.1-.1-.2 0-.2.3-.3.5-.4s-.4-.8-.2-.9c.1-.1.1-.3 0-.5s-.2-.3-.3-.4c-.1-.1-.1-.2-.1-.3 0-.1.1-.2.3-.3.3-.2.6-.3.9-.3.1-.4-.1-1-.5-1.1-.2-.1-.6-.1-.7-.4-.1-.2.1-.5.3-.6s.5-.2.6-.5c.1-.3.8-.1 1.1-.2.3-.2.6-1 .9-1 .3 0 .5-.4.6-.7s.3-.7.6-.6c.6 0 .5 1.3 1.1 1.3.3 0 .5-.3.6-.6.1-.3.2-.6.5-.7.2 0 .5 1.4.7 1.5-.1.2-.1.4-.1.6s.3.4.5.3c.2 0 .2-.2.3-.3.1-.2.2-.5.2-.8s-.2-.6-.5-.6c-.1 0-.3-.1-.3-.2v-.1c.1-.2.2-.4.4-.5.2-.1.5 0 .6.2.1.2.1.4.2.6.2.3.7.1 1 .3.2.2.1.6.2.9.1.2.4.4.6.4.3 0 .5-.1.8-.1.3-.1.7-.1 1 .1.3.1.5.4.5.8 0 .6-.7.9-.8 1.5v.2c.1.1.2.1.3.1.3.1.6.2.7.4s.8.5.5.7c-.2.2-.6.2-.6.5-.1.2.2.3.3.5.2.2.2.4.2.7-.1.2-.3.4-.6.3-.2 0-.4-.2-.6-.3-.3-.1-1.4-.1-1.5.2-.1.3 0 .7.3.8.2.1.4.1.6.3.1.1.5.7.5.8.2.3.6.2.8.4.1.2 0 .4-.1.6-.1.2-.3.5-.5.5-.3 0-.6-.3-.9-.1-.2.1-.3.3-.3.5s0 .4-.2.6c-.1.2-.4.2-.5 0"/></g><g id="Calque_2_-_copie_3"><path id="XMLID_64_" class="st4" d="M229 50.8c-.2-.7-.5-1.3-.9-1.8 0-.1-.1-.1-.2 0l-1.3.8 1.1-1c.1 0 .1-.1 0-.2-.7-.8-1.5-1.4-2.5-1.8-.2-.1-.5 0-.6.3v.1l-.5 1.3.3-1.2.1-.5c0-.1 0-.1-.1-.2-1.1-.3-2.3-.2-3.5.1-.1 0-.1 0-.2.1-.1 0-.1.1-.1.2l.1.2c0 .1.3.8.2.8-.1 0-.4-.7-.5-.8l-.1-.2c0-.1-.1-.1-.2-.1-1 .5-1.8 1.1-2.4 1.9-.1.2-.1.4 0 .6l.6.6-.8-.6h-.2c-.5.9-.8 1.8-.9 2.9 0 .1 0 .1.1.1l1.2.3-1.2-.1c-.1 0-.1.1-.1.1 0 .7.1 1.3.3 2 .2.6.5 1.2.9 1.7 0 .1.1.1.2 0l.9-.9-.8 1.1v.2c1 1.2 2.4 2 3.9 2.2.1 0 .1 0 .1-.1l.5-1.5-.3 1.4c0 .1 0 .1.1.2.8.1 1.7 0 2.6-.3.3-.1.6-.2.9-.4.1 0 .1-.1.1-.2V58c0-.1-.8-1.5-.8-1.5.1 0 1 1.3 1 1.4l.1.1c0 .1.1.1.2 0 1.2-.7 2-1.8 2.5-3 0-.1 0-.1-.1-.2l-.7-.3.8.2c.1 0 .1 0 .2-.1.3-.9.4-1.8.3-2.8 0-.1-.1-.1-.1-.1l-1.2-.1 1.2-.1c.1 0 .1-.1.1-.1-.1 0-.2-.3-.3-.6z"/><path id="XMLID_63_" class="st5" d="M227.9 51.1c-.2-.6-.4-1.1-.8-1.5 0 0-.1-.1-.1 0l-1 .7.9-.8s.1-.1 0-.2c-.6-.6-1.3-1.1-2-1.4-.2-.1-.4 0-.5.2v.1l-.4 1.1.3-1 .1-.5c0-.1 0-.1-.1-.1-.9-.2-1.9-.2-2.9.1-.1 0-.1 0-.2.1-.1 0-.1.1-.1.1v.1c0 .1.2.7.2.7s-.3-.6-.4-.6l-.1-.1c0-.1-.1-.1-.1-.1-.8.4-1.5.9-2 1.6-.1.1-.1.3 0 .5l.5.5-.7-.5h-.2c-.4.7-.7 1.5-.7 2.4 0 .1 0 .1.1.1l1 .2-1-.1c-.1 0-.1 0-.1.1 0 .5.1 1.1.3 1.6.2.5.4 1 .7 1.4 0 .1.1.1.2 0l.8-.8-.7.9v.1c.8 1 1.9 1.6 3.2 1.8.1 0 .1 0 .1-.1l.4-1.2-.2 1.2c0 .1 0 .1.1.1.7.1 1.4 0 2.1-.2.3-.1.5-.2.7-.3.1 0 .1-.1 0-.1v-.1c0-.1-.7-1.2-.7-1.3 0 0 .8 1.1.8 1.2l.1.1s.1.1.1 0c1-.6 1.7-1.4 2.1-2.4 0-.1 0-.1-.1-.1l-.6-.3.7.2c.1 0 .1 0 .1-.1.3-.7.4-1.5.3-2.3 0-.1 0-.1-.1-.1l-1-.1 1-.1c.1 0 .1-.1.1-.1 0-.1-.1-.3-.2-.6z"/><path id="XMLID_62_" class="st6" d="M227.7 51.2c-.2-.5-.4-.9-.7-1.3 0 0-.1-.1-.1 0l-1.1.6.9-.9v-.1c-.5-.6-1.1-1-1.8-1.3-.2-.1-.4 0-.5.2v.1l-.6 1.1.1-1.1.1-.5c0-.1 0-.1-.1-.1-.8-.2-1.6-.3-2.5 0-.1 0-.1 0-.2.1l-.1.1v.1c0 .1.2 1 .2 1s-.5-.7-.6-.7l-.1-.1s-.1-.1-.1 0c-.7.3-1.3.8-1.8 1.4-.1.1-.1.3 0 .4l.7.7-.8-.4-.3-.1c-.4.6-.6 1.2-.6 2l.1.2 1.2.3h-1c-.1 0-.3.1-.3.1 0 .5.2.9.4 1.4.2.5.2.8.5 1.1 0 0 .2.1.4-.1l.8-.7-.6 1v.1c.7.9 1.8 1.5 2.9 1.7 0 0 .1 0 .1-.1l.4-1.1-.1 1.2c0 .1 0 .1.1.1.6.1 1.2 0 1.8-.2.2-.1.3-.1.6-.3 0 0 .1-.1 0-.1v-.1c0-.1-.6-1.4-.5-1.4l.8 1v.1s.1.1.1 0c.9-.5 1.6-1.1 1.9-2 0 0 0-.1-.1-.1l-.6-.4.8.1s.1 0 .1-.1c.2-.6.3-1.2.3-1.9 0 0 0-.1-.1-.1l-1.1-.1 1.2-.2c.1 0 .1-.1.1-.1 0-.1-.1-.3-.2-.5z"/><path id="XMLID_61_" class="st8" d="M222.3 55.6c-.1 0-.2 0-.3-.1-.1-.1-.1-.2-.1-.3V55c-.1-.1-.2-.1-.3-.1-.1 0-.2 0-.3-.1-.1-.1-.2-.2-.1-.3 0-.1.1-.1.1-.2.1-.2-.1-.5-.3-.5-.2 0-.3.1-.5.1s-.3-.1-.3-.3c0-.1.1-.1.1-.2.1-.1 0-.3-.2-.4-.2 0-.3 0-.4.2-.1-.1-.1-.3 0-.4.1-.1.2-.2.2-.4 0-.1-.1-.2-.2-.4-.1-.1-.1-.3 0-.4.1-.1.2-.1.3-.1.2-.1.4-.2.5-.4 0 0 0-.1.1-.1.1-.1.2 0 .3 0s.2.2.3.1c.1 0 .1-.1.2-.2v-.3s0-.1.1-.1h.2c.2.1.3.1.4.2.2-.1.3-.4.2-.6-.1-.1-.2-.2-.1-.4 0-.1.2-.1.3-.1.1 0 .2.1.4 0s.3-.3.4-.2c.2.1.1.3.2.5.1.1.3.1.4 0 .1-.1.3-.1.4 0 .2.2-.3.6-.1.8.1.1.3.1.4 0s.3-.1.4-.1c.1.1.1.2.1.3-.1 0-.2.1-.2.2-.1.1 0 .2 0 .3h.2c.1 0 .3-.1.3-.2.1-.1.1-.3.1-.4 0-.1-.1-.1 0-.2h.1c.1-.1.2-.1.3 0 .1 0 .2.2.1.3 0 .1-.1.2-.1.3 0 .2.2.3.2.4 0 .2-.2.2-.3.4-.1.1 0 .3.1.4.1.1.2.2.3.2.1.1.2.2.3.4.1.2 0 .3-.1.5-.2.2-.5.1-.8.2l-.1.1c0 .1 0 .1.1.2s.1.3.1.4-.2.2-.3.2c-.1 0-.2-.2-.3-.1-.1 0-.1.2-.1.3 0 .1-.1.2-.2.3s-.2 0-.3-.1c-.1-.1 0-.2-.1-.3-.1-.2-.3-.2-.4-.2-.2.1-.2.2-.2.4 0 .1.1.2.1.3 0 .1-.1.1-.1.2s.2.3.1.4c0 .1-.1.2-.2.2s-.3.1-.4 0c-.1-.1-.1-.3-.3-.4-.1 0-.2 0-.3.1s-.2.1-.3.2c0-.1-.1-.2-.1-.3"/></g><path id="XMLID_60_" class="st9" d="M220.4 52.8s2.6-.6 2.6-1.8c0 0 .5 1.8 2.1 1.9 0 0-2.3.9-2.4 2.2.1-.1 0-2.2-2.3-2.3z"/><path id="XMLID_59_" class="st9" d="M221.7 52.9s1.2-.3 1.2-.8c0 0 .2.8 1 .9 0 0-1 .4-1.1 1 0-.1-.1-1.1-1.1-1.1z"/><g id="Calque_5_-_copie_3_1_"><path id="XMLID_45_" class="st3" d="m224.9 63.9.5-.1c.6-.1 1.1-.3 1.7-.5l2.4-1.1c.9-.3 1.8 0 2.2 1l.3.6.2.3c.1.1.1.2.2.4l.2.4c.2.5.1 1-.1 1.5-.3.6-.8 1-1.5 1.1h-.3c-.4.1-.8.2-1.1.3l-3.1 1.3c-.9.3-2-.1-2.4-1 0-.1-.1-.2-.1-.3l-.1-.4-.3-.9-.1-.3c-.3-.9.1-1.7.9-2.1.1-.1.3-.2.5-.2z"/><path id="XMLID_44_" class="st17" d="m225.2 64.1.5-.1c.5-.1 1-.2 1.5-.5l2.2-1c.8-.3 1.7 0 2 .9.1.2.2.4.3.5l.2.3c.1.1.1.2.2.3l.1.4c.2.5.1.9-.1 1.3-.2.5-.8.9-1.3 1h-.3c-.4.1-.7.2-1 .3l-2.9 1.2c-.9.3-1.8-.1-2.2-.9 0-.1-.1-.2-.1-.3l-.1-.4c-.1-.3-.2-.5-.3-.8l-.1-.3c-.3-.8.1-1.5.8-1.9h.6z"/><g id="XMLID_40_" class="st18"><g id="XMLID_42_"><path id="XMLID_43_" class="st13" d="M228.9 66.3c.4-.4 2.1.9 2.4.7.5-.3-.7-1.1-.7-1.7-.5-1.1-.4-2.6-1.3-2.6-.8 0-1.8 2.2-2.7 2.2-.7 0-3.3-1-3.3.4 0 .6 2.1.8 3.1 2 .5.5.9 1.8 1.7 1.4.7-.4 1-2.8 1.5-2.8l.7.3c-.4-.3-1.4.1-1.4.1z"/></g></g><g id="XMLID_34_" class="st19"><g id="XMLID_38_"><path id="XMLID_39_" class="st15" d="M227.6 67c0-.5 2.1-.6 2.4-1.1s-.1-.5-.1-1c-.7.7-3-2.8-4-1.6-.4.4 1 1.9.7 3.6.5 0 0 1.1.5 1.1s1-2 1.5-2c-.5 0-1 1-1 1z"/></g></g><circle id="XMLID_33_" transform="rotate(-81.668 226.037 66.28)" class="st20" cx="226" cy="66.3" r=".2"/><ellipse id="XMLID_32_" transform="scale(-1) rotate(66.416 101.525 -348.125)" class="st20" cx="227.9" cy="66.5" rx=".2" ry=".3"/><circle id="XMLID_30_" class="st20" cx="229.6" cy="65.1" r=".1"/></g><g id="Calque_5_-_copie_3"><path id="XMLID_49_" class="st3" d="m211.7 48.7-.2.4c-.2.4-.3.9-.4 1.3l-.3 2.1c-.2.8-.8 1.2-1.6 1.1-.2 0-.3-.1-.5-.1h-.6l-.4-.1c-.4-.1-.7-.3-1-.7-.3-.4-.3-1-.1-1.4l.1-.2.3-.9.4-2.7c.2-.8.9-1.3 1.7-1.2.1 0 .2 0 .2.1l.3.1c.2.1.5.1.7.2h.3c.7.2 1.1.7 1 1.4.2.3.2.4.1.6z"/><path id="XMLID_48_" class="st17" d="m211.5 48.8-.2.4c-.2.4-.3.8-.3 1.2l-.2 1.9c-.2.7-.7 1.1-1.4 1-.2 0-.3 0-.5-.1h-.5l-.3-.1c-.4-.1-.7-.3-.9-.6-.2-.4-.3-.9-.1-1.3l.1-.2c.1-.3.2-.5.2-.8l.4-2.4c.2-.7.8-1.2 1.5-1.1.1 0 .1 0 .2.1l.3.1c.2.1.4.1.7.2h.2c.7.1 1 .7.9 1.3 0 .1-.1.3-.1.4z"/><g id="XMLID_28_" class="st18"><g id="XMLID_46_"><path id="XMLID_47_" class="st13" d="M208.6 50c0 .7-2.2 2-1.6 2.7.3.3 1.1-.9 2-.5 0-1 2.2-1 2.6-2.1.4-1.2-.7-1.6-2.3-2.1-.5 0-1.7-.9-2-.3-.3.6 1.3 1.8 1.3 2.3l-1 1c.5 0 1-1 1-1z"/></g></g><g id="XMLID_19_" class="st19"><g id="XMLID_21_"><path id="XMLID_22_" class="st15" d="M208.3 49.3c.4.4-.9 2.1-.7 2.4.3.5 1.4-.7 2-.7.6 0 2.3.1 2.1-1-.1-.6-1.6-.3-2.3-1-.5.5-1.3-.9-1.5-.7s.9 1.9.4 2.4c.4-.3 0-1.4 0-1.4z"/></g></g><circle id="XMLID_18_" transform="rotate(40.527 209.643 48.42)" class="st20" cx="209.6" cy="48.4" r=".2"/><circle id="XMLID_17_" transform="rotate(8.604 208.8 49.602)" class="st20" cx="208.7" cy="49.6" r=".2"/><circle id="XMLID_16_" class="st20" cx="208.9" cy="51.3" r=".1"/></g></g><g id="Calque_7_-_copie_2"><path id="XMLID_92_" class="st3" d="M260.4 171.4c.3-1.9.3-3.9.1-5.7 0-.2-.2-.3-.4-.3l-4.1.3 4-.9c.2 0 .3-.2.3-.4-.6-2.8-1.9-5.4-3.8-7.6-.5-.6-1.3-.6-1.9-.2l-.2.1-3 2.5 2.4-2.6 1.1-1.2c.1-.1.1-.4 0-.5-2.4-2.1-5.4-3.6-8.7-4.2-.2 0-.4-.1-.6-.1-.2 0-.4.1-.4.3l-.1.5c0 .2-.4 2.4-.6 2.4-.2 0-.1-2.2-.1-2.4v-.5c0-.2-.1-.4-.3-.4-2.9-.2-5.8.4-8.3 1.6-.5.2-3.4 3-3.2 3.6l.7 2.2-1.2-2.6c-.1-.2-.3-.3-.5-.2-2.5 1.5-5.7 5.9-7.2 8.4l3.8.2-4.1.3c-1 1.7-1.6 3.6-2 5.6-.3 2-.4 3.9-.1 5.8l3.9-1.2-3.8 1.8c.8 4.4 3.3 8.3 6.8 10.9l3.3-3.1-2.8 3.5c2 1.4 4.4 2.4 7 2.9 1 .2 2 .3 3 .3v-.6c0-.2-.1-4.8.1-4.8s.6 4.5.6 4.8l.1.7c4-.2 7.7-1.7 10.7-4.2l-1.6-2 1.9 1.8c2-1.8 7.2-8.5 8.3-11 .1-.2 0-.3-.1-.4l-3-1.8 3 1.3c.2.1.4 0 .5-.2.1-1 .3-1.8.5-2.7z"/><g id="Calque_2_-_copie_4_2_"><path id="XMLID_91_" class="st4" d="M261.2 171.6c.4-2 .4-4 .1-6 0-.2-.2-.3-.4-.3l-4.3.3 4.2-.9c.2 0 .3-.2.3-.4-.7-2.9-2-5.7-3.9-7.9-.5-.6-1.4-.7-2-.2l-.2.1-3.2 2.7 2.5-2.7 1.1-1.2c.1-.2.1-.4 0-.5-2.5-2.2-5.6-3.8-9.2-4.5-.2 0-.4-.1-.7-.1-.2 0-.4.1-.4.3l-.1.5c0 .2-.4 2.5-.6 2.5-.2 0-.1-2.3-.1-2.6v-.5c0-.2-.2-.4-.4-.4-3.1-.2-6.1.4-8.8 1.7-.6.3-.8.9-.7 1.5l.7 2.4-1.3-2.7c-.1-.2-.3-.3-.5-.2-2.5 1.5-4.7 3.6-6.2 6.1-.1.2-.1.4.1.5l2.7 2.4-2.8-1.9c-.2-.1-.4-.1-.5.1-.9 1.7-1.6 3.5-1.9 5.5-.3 1.9-.4 3.8-.1 5.6 0 .2.3.4.5.3l3.7-1.1-3.7 1.7c-.2.1-.2.2-.2.4.9 4.4 3.4 8.3 6.9 11 .1.1.4.1.5 0l3.3-3.1-2.7 3.3c-.1.2-.1.4.1.6 2.1 1.4 4.4 2.3 7 2.8.9.2 1.9.3 2.8.3.2 0 .4-.2.4-.4v-.3c0-.2-.1-5 .1-5.1.2 0 .6 4.8.7 5v.3c0 .2.2.3.4.3 3.9-.2 7.6-1.7 10.6-4.1.2-.1.2-.4.1-.5l-1.5-1.8 1.8 1.6c.1.1.4.1.5 0 2-1.8 3.6-4.1 4.7-6.6.1-.2 0-.4-.2-.5l-3.1-1.9 3.2 1.4c.2.1.4 0 .5-.2-.1-.8.1-1.7.2-2.6z"/><path id="XMLID_90_" class="st5" d="M259.6 171.3c.3-1.9.3-3.7.1-5.4 0-.2-.2-.3-.4-.3l-3.9.3 3.8-.8c.2 0 .3-.2.3-.4-.6-2.7-1.8-5.1-3.6-7.2-.5-.5-1.3-.6-1.8-.2l-.2.1-2.9 2.4 2.3-2.5 1-1.1c.1-.1.1-.4 0-.5-2.3-2-5.1-3.5-8.3-4.1-.2 0-.4-.1-.6-.1-.2 0-.3.1-.4.3l-.1.5c0 .2-.4 2.3-.6 2.3-.2 0-.1-2.1-.1-2.3v-.5c0-.2-.1-.3-.3-.4-2.8-.2-5.6.4-8 1.5-.5.2-.8.8-.6 1.3l.6 2.1-1.1-2.5c-.1-.2-.3-.3-.5-.2-2.3 1.4-4.2 3.3-5.7 5.6-.1.1-.1.3.1.4l2.4 2.2-2.6-1.7c-.2-.1-.4-.1-.5.1-.8 1.5-1.4 3.2-1.7 5-.3 1.7-.3 3.5-.1 5.1 0 .2.2.3.4.3l3.3-1-3.4 1.6c-.1.1-.2.2-.2.4.8 4 3.1 7.5 6.2 10 .1.1.3.1.4 0l3-2.8-2.5 3c-.1.2-.1.4.1.5 1.9 1.2 4 2.1 6.4 2.5.9.2 1.7.2 2.5.3.2 0 .3-.1.3-.3v-.3c0-.2-.1-4.6.1-4.6s.6 4.3.6 4.6v.3c0 .2.2.3.4.3 3.6-.2 6.9-1.6 9.6-3.8.1-.1.2-.3 0-.5l-1.3-1.7 1.6 1.5c.1.1.3.1.5 0 1.8-1.6 3.3-3.7 4.2-6 .1-.2 0-.3-.1-.4l-2.8-1.7 2.9 1.3c.2.1.4 0 .5-.2.3-.7.5-1.5.7-2.3z"/><path id="XMLID_89_" class="st6" d="M258.8 171.1c.3-1.7.1-3.3-.1-4.9 0-.2-.2-.3-.3-.3l-4.2.1 4.1-1.3c.2 0 .3-.2.2-.4-.5-2.4-1.4-4.5-3-6.4-.4-.5-1.1-.6-1.6-.2l-.1.1-3.3 2.2 2-2.8.9-1c.1-.1.1-.3 0-.4-2.1-1.8-4.2-3.2-7.1-3.7-.2 0-.4-.1-.5-.1-.2 0-.3.1-.3.3l-.1.4c0 .2-.9 3-1 3-.1 0-.5-2.7-.5-2.9v-.4c0-.2-.1-.3-.3-.3-2.5-.1-4.9.2-7.1 1.2-.5.2-.7.7-.5 1.2l.8 2.9-1.8-2.3c-.1-.2-.6-.8-.7-.7-2.1 1.2-3.5 2.7-4.8 4.8-.1.1-.1.5 0 .6l2.8 2.7-2.9-1.5c-.2-.1-.9-.2-.9 0-.7 1.4-.8 2.8-1.1 4.4-.3 1.6-.5 2.5-.3 4 0 .2.5.6 1.1.4l3.3-.7-3.2 1.8c-.1.1-.2.2-.2.3.7 3.6 2.8 6.8 5.6 9 .1.1.3.1.4 0l2.8-2.4-2.3 3.3c-.1.1-.1.4.1.5 1.7 1.1 3.4 1.9 5.5 2.3.8.1 1.2.1 1.9.1.2 0 .3-.1.3-.3v-.2c0-.2.4-4.7.5-4.7.2 0 .7 3.9.7 4.1v.3c0 .2.2.3.3.3 3.2-.2 6-.7 8.5-2.7.1-.1.2-.3 0-.4l-1.1-2.2 2.1 1.4c.1.1.3.1.4 0 1.6-1.5 2.8-2.9 3.7-5 .1-.1 0-.3-.1-.4l-3-2.1 3.7 1.1c.2.1.4 0 .4-.2.2-.6.2-1.1.3-1.9z"/><path id="XMLID_88_" class="st7" d="M232 169.8c-.3-.3-.4-.8-.2-1.2s-1.5-1.4-1-1.9c.2-.2.6-.1.8-.4.3-.3.1-.8 0-1.3-.1-.4-.2-.9-.1-1.4s.5-.8 1-.9c.2 0 .5.1.7.1.9 0 1.7-.9 1.4-1.8-.1-.6-.6-1-.9-1.6-.2-.5 0-1.4.6-1.4.3 0 .5.2.8.3.6.1 3.1.5 3-.1-.1-.6-.6-1.1-1.2-1.4.1-.5.7-.7 1.3-.6.5.1 1.1.3 1.6.1.5-.2.7-.7 1-1.1.3-.4.8-.8 1.3-.7.4.1.6.6.8.9.5.7 1.4 1.1 2.2 1.1h.5c.4.2.4.7.2 1.1-.1.4-.3.8-.1 1.2.2.3.5.4.8.4.3 0 .6-.1.9-.2.2 0 .4-.1.6 0 .2.1.3.4.3.7 0 .6 0 1.3-.2 1.9.6.6 2.5.2 3.1-.5.3-.3.6-.9 1.1-.8.5 0 .7.6.8 1s0 1 .4 1.3c.4.5 1.4.5 1.4 1.1 0 .7-1 .8-1.3 1.5-.2.5 1 1.9 1.4 2.3.4.4.9 1 .6 1.6-.5 1-4.1-.4-4.6.6-.3.5.1 1.1.5 1.5.4.4.9.9.8 1.5-.1.4-.4.7-.7.9-.3-.3-.6-.5-1-.6-.4-.1-.8.1-.9.5-.1.3.1.6.3.8.3.4.7.8 1.2 1 .5.2 1.1.1 1.4-.3.2-.2.3-.4.5-.4.1 0 .2.1.2.1.3.3.5.7.5 1.1 0 .4-.3.8-.7.9-.4 0-.7-.2-1.1-.1-.6.2-.7 1.2-1.3 1.4-.6.2-1.1-.4-1.7-.4-.5 0-.9.3-1.2.8-.2.4-.3.9-.5 1.4-.2.6-.4 1.2-.9 1.6-.5.4-1.2.6-1.7.3-.9-.5-1-1.8-1.9-2.4-.1-.1-.3-.1-.4-.1-.2 0-.4.2-.5.4-.3.4-.8.8-1.3.9-.5.1-1.1-.3-1.1-.9 0-.2.1-.2-.2-.5-.3-.2-.7.2-1.1.3-.4.1-.9.1-1.2-.3s-.4-.8-.1-1.2c.2-.3.7-.5 1-.8.5-.4.5-1.2.1-1.7s-1.8-1-2.2-.6c-.3.3-.5.7-.9.7-.3 0-.6-.2-.8-.1-.6.1-.7.9-1.3 1-.4.1-.8-.3-1-.6-.3-.4-.6-.9-.4-1.3.2-.6.9-.9.9-1.5 0-.4-.3-.7-.7-.9-.3-.2.2-.8 0-1.2-.2-.4 0-.9.4-.9"/></g><g id="Calque_2_-_copie_4_1_"><path id="XMLID_152_" class="st4" d="M253.6 168.3c0-1.2-.2-2.3-.6-3.4 0-.1-.1-.2-.3-.1l-2.4.6 2.3-.9c.1 0 .2-.2.1-.3-.7-1.6-1.7-3-3-4.1-.3-.3-.8-.2-1.1.1l-.1.1-1.5 1.8 1.1-1.8.5-.8c.1-.1 0-.2-.1-.3-1.6-1-3.5-1.6-5.6-1.6h-.4c-.1 0-.2.1-.2.2v.3c0 .1 0 1.5-.1 1.5s-.3-1.3-.3-1.4v-.3c0-.1-.1-.2-.2-.2-1.8.2-3.4.9-4.8 1.8-.3.2-.4.6-.2.9l.6 1.3-1-1.4c-.1-.1-.2-.1-.3 0-1.3 1.1-2.3 2.5-2.9 4.1 0 .1 0 .2.1.3l1.7 1.1-1.8-.8c-.1-.1-.3 0-.3.1-.3 1-.5 2.1-.5 3.3 0 1.1.2 2.2.5 3.2 0 .1.2.2.3.1l2-1-1.9 1.4c-.1.1-.1.2-.1.3.9 2.4 2.7 4.3 5 5.5.1 0 .2 0 .3-.1l1.5-2-1.2 2.1c-.1.1 0 .3.1.3 1.3.6 2.7.9 4.2.9.5 0 1.1 0 1.6-.1.1 0 .2-.1.2-.2v-.2c0-.1-.5-2.8-.5-2.9.1 0 .8 2.6.9 2.8l.1.2c0 .1.1.2.3.1 2.2-.5 4.1-1.7 5.6-3.4.1-.1.1-.2 0-.3l-1-.9 1.2.7c.1.1.2 0 .3 0 .9-1.2 1.6-2.6 2-4.2 0-.1 0-.2-.1-.2l-1.9-.8 1.9.5c.1 0 .2-.1.3-.2-.4-.6-.3-1.1-.3-1.7z"/><path id="XMLID_151_" class="st5" d="M252.3 168.3c0-1-.2-2-.5-3 0-.1-.1-.1-.2-.1l-2.1.5 2-.8c.1 0 .1-.2.1-.2-.6-1.4-1.5-2.6-2.6-3.6-.3-.2-.7-.2-1 .1l-.1.1-1.3 1.6 1-1.6.4-.7c.1-.1 0-.2-.1-.3-1.4-.9-3.1-1.4-4.9-1.4h-.3c-.1 0-.2.1-.2.2v.3c0 .1 0 1.3-.1 1.3s-.3-1.1-.3-1.3v-.3c0-.1-.1-.2-.2-.2-1.5.2-3 .8-4.2 1.6-.3.2-.3.5-.2.8l.6 1.1-.9-1.2c-.1-.1-.2-.1-.3 0-1.1 1-2 2.2-2.6 3.6 0 .1 0 .2.1.2l1.5 1-1.6-.7c-.1 0-.2 0-.3.1-.3.9-.5 1.9-.5 2.9s.2 1.9.4 2.8c0 .1.2.2.3.1l1.7-.9-1.7 1.2c-.1.1-.1.1-.1.2.8 2.1 2.4 3.8 4.4 4.8.1 0 .2 0 .2-.1l1.4-1.8-1 1.9c-.1.1 0 .2.1.3 1.1.5 2.4.8 3.7.8.5 0 .9 0 1.4-.1.1 0 .2-.1.2-.2v-.1c0-.1-.5-2.5-.4-2.5.1 0 .7 2.3.8 2.4l.1.2c0 .1.1.2.2.1 1.9-.5 3.6-1.5 4.9-3 .1-.1.1-.2 0-.3l-.9-.8 1 .7c.1.1.2 0 .3 0 .8-1.1 1.4-2.3 1.7-3.7 0-.1 0-.2-.1-.2l-1.7-.7 1.7.4c.1 0 .2 0 .2-.2-.1-.4 0-.8 0-1.3z"/><path id="XMLID_150_" class="st6" d="M251.8 168.3c0-.9-.3-1.8-.5-2.6 0-.1-.1-.1-.2-.1l-2.3.4 2.1-1.1c.1 0 .1-.1.1-.2-.5-1.3-1.2-2.3-2.3-3.2-.3-.2-.7-.2-.9.1l-.1.1-1.6 1.5.8-1.7.4-.6c0-.1 0-.2-.1-.2-1.3-.8-2.6-1.3-4.2-1.3h-.3c-.1 0-.2.1-.2.2v.2c0 .1-.2 1.7-.3 1.7-.1 0-.5-1.4-.6-1.5v-.2c0-.1-.1-.2-.2-.1-1.4.2-2.6.6-3.7 1.3-.2.2-.3.5-.2.7l.7 1.5-1.2-1.1c-.1-.1-.4-.4-.5-.3-1 .9-1.6 1.8-2.1 3.1 0 .1 0 .3.1.3l1 .5-.9.2c-.1 0-.5 0-.5.1-.3.8-.2 1.6-.2 2.5 0 .9-.1 1.4.2 2.2 0 .1.3.3.6.1l1.7-.7-1.5 1.3c-.1 0-.1.1-.1.2.7 1.9 2.2 3.4 3.9 4.4h.2l1.3-1.6-.9 2c0 .1 0 .2.1.2 1 .4 2 .7 3.2.7.4 0 .7-.1 1.1-.1.1 0 .2-.1.1-.2v-.1c0-.1-.2-2.6-.2-2.6.1 0 .7 2.1.8 2.2v.1c0 .1.1.1.2.1 1.7-.4 3.2-1 4.3-2.3.1-.1.1-.2 0-.2l-.8-1.1 1.3.6h.2c.7-1 1.2-1.8 1.5-3.1 0-.1 0-.2-.1-.2l-1.8-.9 2.1.2c.1 0 .2 0 .2-.1.4-.6.3-.9.3-1.3z"/><path id="XMLID_149_" class="st7" d="M246.4 173.8c-.1.2-.3.4-.5.4s-.5-.1-.6-.3c-.1-.1-.2-.2-.4-.3-.2-.1-.9-.2-1-.1-.2.2-.4.3-.6.3s-.5-.1-.6-.3c-.1-.1-.1-.2-.1-.4-.2-.4-.8-.6-1.2-.3-.2.2-.3.5-.6.8-.2.2-.7.3-.8 0-.1-.1 0-.3-.1-.5-.1-.3-.5-.4-.8-.2-.3.2-.4.5-.4.9-.3.1-.5-.2-.6-.5-.1-.3-.1-.6-.3-.8-.2-.2-.5-.2-.8-.3-.3 0-.6-.2-.6-.5 0-.2.1-.4.2-.6.2-.4.2-.9 0-1.3 0-.1-.1-.1-.1-.2 0-.2.3-.3.5-.4s-.4-.8-.2-.9c.1-.1.1-.3 0-.5s-.2-.3-.3-.4c-.1-.1-.1-.2-.1-.3 0-.1.1-.2.3-.3.3-.2.6-.3.9-.3.1-.4-.1-1-.5-1.1-.2-.1-.6-.1-.7-.4-.1-.2.1-.5.3-.6s.5-.2.6-.5c.1-.3.8-.1 1.1-.2.3-.2.6-1 .9-1 .3 0 .5-.4.6-.7.1-.3.3-.7.6-.6.6 0 .5 1.3 1.1 1.3.3 0 .5-.3.6-.6.1-.3.2-.6.5-.7.2 0 .5 1.4.7 1.5-.1.2-.1.4-.1.6 0 .2.3.4.5.3.2 0 .2-.2.3-.3.1-.2.2-.5.2-.8 0-.3-.2-.6-.5-.6-.1 0-.3-.1-.3-.2v-.1c.1-.2.2-.4.4-.5.2-.1.5 0 .6.2.1.2.1.4.2.6.2.3.7.1 1 .3.2.2.1.6.2.9.1.2.4.4.6.4s.5-.1.8-.1c.3-.1.7-.1 1 .1.3.1.5.4.5.8 0 .6-.7.9-.8 1.5v.2c.1.1.2.1.3.1.3.1.6.2.7.4.1.2.8.5.5.7-.2.2-.6.2-.6.5-.1.2.2.3.3.5.2.2.2.4.2.7-.1.2-.3.4-.6.3-.2 0-.4-.2-.6-.3-.3-.1-1.4-.1-1.5.2s0 .7.3.8c.2.1.4.1.6.3.1.1.5.7.5.8.2.3.6.2.8.4.1.2 0 .4-.1.6-.1.2-.3.5-.5.5-.3 0-.6-.3-.9-.1-.2.1-.3.3-.3.5s0 .4-.2.6c-.1.2-.4.2-.5 0"/></g><g id="Calque_2_-_copie_4"><path id="XMLID_83_" class="st4" d="M249 166.3c-.2-.7-.5-1.3-.9-1.8 0-.1-.1-.1-.2 0l-1.3.8 1.1-1c.1 0 .1-.1 0-.2-.7-.8-1.5-1.4-2.5-1.8-.2-.1-.5 0-.6.3v.1l-.5 1.3.3-1.2.1-.5c0-.1 0-.1-.1-.2-1.1-.3-2.3-.2-3.5.1-.1 0-.1 0-.2.1-.1 0-.1.1-.1.2l.1.2c0 .1.3.8.2.8-.1 0-.4-.7-.5-.8l-.1-.2c0-.1-.1-.1-.2-.1-1 .5-1.8 1.1-2.4 1.9-.1.2-.1.4 0 .6l.6.6-.8-.6h-.2c-.5.9-.8 1.8-.9 2.9 0 .1 0 .1.1.1l1.2.3-1.2-.1c-.1 0-.1.1-.1.1 0 .7.1 1.3.3 2 .2.6.5 1.2.9 1.7 0 .1.1.1.2 0l.9-.9-.8 1.1v.2c1 1.2 2.4 2 3.9 2.2.1 0 .1 0 .1-.1l.5-1.5-.3 1.4c0 .1 0 .1.1.2.8.1 1.7 0 2.6-.3.3-.1.6-.2.9-.4.1 0 .1-.1.1-.2v-.1c0-.1-.8-1.5-.8-1.5.1 0 1 1.3 1 1.4l.1.1c0 .1.1.1.2 0 1.2-.7 2-1.8 2.5-3 0-.1 0-.1-.1-.2l-.7-.3.8.2c.1 0 .1 0 .2-.1.3-.9.4-1.8.3-2.8 0-.1-.1-.1-.1-.1l-1.2-.1 1.2-.1c.1 0 .1-.1.1-.1-.1 0-.2-.3-.3-.6z"/><path id="XMLID_82_" class="st5" d="M247.9 166.7c-.2-.6-.4-1.1-.8-1.5 0 0-.1-.1-.1 0l-1 .7.9-.8s.1-.1 0-.2c-.6-.6-1.3-1.1-2-1.4-.2-.1-.4 0-.5.2v.1l-.4 1.1.3-1 .1-.5c0-.1 0-.1-.1-.1-.9-.2-1.9-.2-2.9.1-.1 0-.1 0-.2.1-.1 0-.1.1-.1.1v.1c0 .1.2.7.2.7s-.3-.6-.4-.6l-.1-.1c0-.1-.1-.1-.1-.1-.8.4-1.5.9-2 1.6-.1.1-.1.3 0 .5l.5.5-.7-.5h-.2c-.4.7-.7 1.5-.7 2.4 0 .1 0 .1.1.1l1 .2-1-.1c-.1 0-.1 0-.1.1 0 .5.1 1.1.3 1.6.2.5.4 1 .7 1.4 0 .1.1.1.2 0l.8-.8-.7.9v.1c.8 1 1.9 1.6 3.2 1.8.1 0 .1 0 .1-.1l.4-1.2-.2 1.2c0 .1 0 .1.1.1.7.1 1.4 0 2.1-.2.3-.1.5-.2.7-.3.1 0 .1-.1 0-.1v-.1c0-.1-.7-1.2-.7-1.3 0 0 .8 1.1.8 1.2l.1.1s.1.1.1 0c1-.6 1.7-1.4 2.1-2.4 0-.1 0-.1-.1-.1l-.6-.3.7.2c.1 0 .1 0 .1-.1.3-.7.4-1.5.3-2.3 0-.1 0-.1-.1-.1l-1-.1 1-.1c.1 0 .1-.1.1-.1 0-.1-.1-.4-.2-.6z"/><path id="XMLID_81_" class="st6" d="M247.7 166.8c-.2-.5-.4-.9-.7-1.3 0 0-.1-.1-.1 0l-1.1.6.9-.9v-.1c-.5-.6-1.1-1-1.8-1.3-.2-.1-.4 0-.5.2v.1l-.6 1.1.1-1.1.1-.4c0-.1 0-.1-.1-.1-.8-.2-1.6-.3-2.5 0-.1 0-.1 0-.2.1l-.1.1v.1c0 .1.2 1 .2 1s-.5-.7-.6-.7l-.1-.1s-.1-.1-.1 0c-.7.3-1.3.8-1.8 1.4-.1.1-.1.3 0 .4l.7.7-.8-.4-.3-.1c-.4.6-.6 1.2-.6 2l.1.2 1.2.3h-1c-.1 0-.3.1-.3.1 0 .5.2.9.4 1.4.2.5.2.8.5 1.1 0 0 .2.1.4-.1l.8-.7-.6 1v.1c.7.9 1.8 1.5 2.9 1.7 0 0 .1 0 .1-.1l.4-1.1-.1 1.2c0 .1 0 .1.1.1.6.1 1.2 0 1.8-.2.2-.1.3-.1.6-.3 0 0 .1-.1 0-.1v-.1c0-.1-.6-1.4-.5-1.4l.8 1v.1s.1.1.1 0c.9-.5 1.6-1.1 1.9-2 0 0 0-.1-.1-.1l-.6-.4.8.1s.1 0 .1-.1c.2-.6.3-1.2.3-1.9 0 0 0-.1-.1-.1l-1.1-.1 1.2-.2c.1 0 .1-.1.1-.1-.1-.3-.1-.4-.2-.6z"/><path id="XMLID_80_" class="st8" d="M242.2 171.2c-.1 0-.2 0-.3-.1-.1-.1-.1-.2-.1-.3v-.2c-.1-.1-.2-.1-.3-.1-.1 0-.2 0-.3-.1-.1-.1-.2-.2-.1-.3 0-.1.1-.1.1-.2.1-.2-.1-.5-.3-.5-.2 0-.3.1-.5.1s-.3-.1-.3-.3c0-.1.1-.1.1-.2.1-.1 0-.3-.2-.4-.2 0-.3 0-.4.2-.1-.1-.1-.3 0-.4s.2-.2.2-.4c0-.1-.1-.2-.2-.4-.1-.1-.1-.3 0-.4.1-.1.2-.1.3-.1.2-.1.4-.2.5-.4 0 0 0-.1.1-.1.1-.1.2 0 .3 0 .1.1.2.2.3.1.1 0 .1-.1.2-.2s0-.2 0-.3c0 0 0-.1.1-.1h.2c.2.1.3.1.4.2.2-.1.3-.4.2-.6-.1-.1-.2-.2-.1-.4 0-.1.2-.1.3-.1.1 0 .2.1.4 0s.3-.3.4-.2c.2.1.1.3.2.5.1.1.3.1.4 0s.3-.1.4 0c.2.2-.3.6-.1.8.1.1.3.1.4 0 .1-.1.3-.1.4-.1.1.1.1.2.1.3-.1 0-.2.1-.2.2-.1.1 0 .2 0 .3h.2c.1 0 .3-.1.3-.2.1-.1.1-.3.1-.4 0-.1-.1-.1 0-.2h.1c.1-.1.2-.1.3 0 .1 0 .2.2.1.3 0 .1-.1.2-.1.3 0 .2.2.3.2.4 0 .2-.2.2-.3.4-.1.1 0 .3.1.4.1.1.2.2.3.2.1.1.2.2.3.4s0 .3-.1.5c-.2.2-.5.1-.8.2l-.1.1c0 .1 0 .1.1.2s.1.3.1.4c0 .1-.2.2-.3.2-.1 0-.2-.2-.3-.1-.1 0-.1.2-.1.3 0 .1-.1.2-.2.3-.1 0-.2 0-.3-.1-.1-.1 0-.2-.1-.3-.1-.2-.3-.2-.4-.2s-.2.2-.2.4c0 .1.1.2.1.3 0 .1-.1.1-.1.2s.2.3.1.4c0 .1-.1.2-.2.2s-.3.1-.4 0c-.1-.1-.1-.3-.3-.4-.1 0-.2 0-.3.1s-.2.1-.3.2c.1-.2-.1-.3-.1-.3"/></g><path id="XMLID_79_" class="st9" d="M240.4 168.3s2.6-.6 2.6-1.8c0 0 .5 1.8 2.1 1.9 0 0-2.3.9-2.4 2.2 0 0 0-2.2-2.3-2.3z"/><path id="XMLID_78_" class="st9" d="M241.7 168.4s1.2-.3 1.2-.8c0 0 .2.8 1 .9 0 0-1 .4-1.1 1-.1 0-.1-1-1.1-1.1z"/><g id="Calque_5_-_copie_4_2_"><path id="XMLID_118_" class="st3" d="M242.8 156.8h-.5c-.6 0-1.2.1-1.7.2l-2.5.7c-.9.2-1.8-.3-2-1.3 0-.2-.1-.4-.2-.6l-.1-.3c-.1-.1-.1-.3-.1-.4l-.1-.5c-.1-.5 0-1 .3-1.4.4-.5 1-.8 1.6-.8h.3c.4 0 .8 0 1.1-.1l3.3-.8c1-.2 1.9.4 2.2 1.4v.7c0 .3.1.6.1.9l.1.3c.2.9-.3 1.6-1.2 1.9-.2.1-.4.1-.6.1z"/><path id="XMLID_117_" class="st17" d="M242.5 156.6h-.5c-.5 0-1 .1-1.6.2l-2.3.6c-.9.2-1.6-.3-1.8-1.2 0-.2-.1-.4-.2-.6l-.1-.3c0-.1-.1-.2-.1-.4l-.1-.4c-.1-.5 0-.9.3-1.3.3-.5.9-.7 1.4-.7h.3c.3 0 .7 0 1-.1l3-.7c.9-.2 1.7.4 2 1.3v.7c0 .3.1.6.1.8l.1.3c.1.8-.3 1.4-1.1 1.7 0 .1-.2.1-.4.1z"/><g id="XMLID_113_" class="st18"><g id="XMLID_115_"><path id="XMLID_116_" class="st13" d="M240.3 153.3c-.5.5-2.6-.9-3.3-.5-.8.4-.1 1.2.4 2.2 1 1 2.2 3.1 3.7 2.8 1.5-.3 1.5-2.1 1.5-4-.5-.5 0-1.9-.7-2-.8-.1-1.8 1.8-2.3 1.8l-.7-.3c.3.3 1.4 0 1.4 0z"/></g></g><g id="XMLID_96_" class="st19"><g id="XMLID_111_"><path id="XMLID_112_" class="st15" d="M240.3 154.3c-.5.5-2.2-.7-2.4-.4s0 .2-.5.7c1.5-.8 2.2 3.7 3.7 2.4.5-.4-.4-2.3.6-3.7-.5 0 0-.7-.5-.7s-1 2-1.5 2l-.7-.3c.2.3 1.3 0 1.3 0z"/></g></g><circle id="XMLID_95_" transform="scale(-1) rotate(-71.886 -212.874 333.98)" class="st20" cx="242.1" cy="154.3" r=".2"/><circle id="XMLID_94_" transform="rotate(76.196 240.384 153.841)" class="st20" cx="240.4" cy="153.8" r=".2"/><circle id="XMLID_93_" class="st20" cx="238.5" cy="154.9" r=".1"/></g></g><g id="Calque_7_-_copie_3"><path id="XMLID_163_" class="st3" d="M223.7 225c.3-1.9.3-3.9.1-5.7 0-.2-.2-.3-.4-.3l-4.1.3 4-.9c.2 0 .3-.2.3-.4-.6-2.8-1.9-5.4-3.8-7.6-.5-.6-1.3-.6-1.9-.2l-.2.1-3 2.5 2.4-2.6 1.1-1.2c.1-.1.1-.4 0-.5-2.4-2.1-5.4-3.6-8.7-4.2-.2 0-.4-.1-.6-.1-.2 0-.4.1-.4.3l-.1.5c0 .2-.4 2.4-.6 2.4-.2 0-.1-2.2-.1-2.4v-.5c0-.2-.1-.4-.3-.4-2.9-.2-5.8.4-8.3 1.6-.5.2-3.4 3-3.2 3.6l.7 2.2-1.2-2.6c-.1-.2-.3-.3-.5-.2-2.5 1.5-5.7 5.9-7.2 8.4l3.8.2-4.1.3c-1 1.7-1.6 3.6-2 5.6-.3 2-.4 3.9-.1 5.8l3.9-1.2-3.8 1.8c.8 4.4 3.3 8.3 6.8 10.9l3.3-3.1-2.8 3.5c2 1.4 4.4 2.4 7 2.9 1 .2 2 .3 3 .3v-.6c0-.2-.1-4.8.1-4.8s.6 4.5.6 4.8l.1.7c4-.2 7.7-1.7 10.7-4.2l-1.6-2 1.9 1.8c2-1.8 7.2-8.5 8.3-11 .1-.2 0-.3-.1-.4l-3-1.8 3 1.3c.2.1.4 0 .5-.2.2-1 .4-1.8.5-2.7z"/><g id="Calque_2_-_copie_5_2_"><path id="XMLID_162_" class="st4" d="M224.6 225.2c.4-2 .4-4 .1-6 0-.2-.2-.3-.4-.3l-4.3.3 4.2-.9c.2 0 .3-.2.3-.4-.7-2.9-2-5.7-3.9-7.9-.5-.6-1.4-.7-2-.2l-.2.1-3.2 2.7 2.5-2.7 1.1-1.2c.1-.2.1-.4 0-.5-2.5-2.2-5.6-3.8-9.2-4.5-.2 0-.4-.1-.7-.1-.2 0-.4.1-.4.3l-.1.5c0 .2-.4 2.5-.6 2.5-.2 0-.1-2.3-.1-2.6v-.5c0-.2-.2-.4-.4-.4-3.1-.2-6.1.4-8.8 1.7-.6.3-.8.9-.7 1.5l.7 2.4-1.3-2.7c-.1-.2-.3-.3-.5-.2-2.5 1.5-4.7 3.6-6.2 6.1-.1.2-.1.4.1.5l2.7 2.4-2.8-1.9c-.2-.1-.4-.1-.5.1-.9 1.7-1.6 3.5-1.9 5.5-.3 1.9-.4 3.8-.1 5.6 0 .2.3.4.5.3l3.7-1.1-3.7 1.7c-.2.1-.2.2-.2.4.9 4.4 3.4 8.3 6.9 11 .1.1.4.1.5 0l3.3-3.1-2.7 3.3c-.1.2-.1.4.1.6 2.1 1.4 4.4 2.3 7 2.8.9.2 1.9.3 2.8.3.2 0 .4-.2.4-.4v-.3c0-.2-.1-5 .1-5.1.2 0 .6 4.8.7 5v.3c0 .2.2.3.4.3 3.9-.2 7.6-1.7 10.6-4.1.2-.1.2-.4.1-.5L217 234l1.8 1.6c.1.1.4.1.5 0 2-1.8 3.6-4.1 4.7-6.6.1-.2 0-.4-.2-.5l-3.1-1.9 3.2 1.4c.2.1.4 0 .5-.2-.2-.8.1-1.7.2-2.6z"/><path id="XMLID_161_" class="st5" d="M223 224.9c.3-1.9.3-3.7.1-5.4 0-.2-.2-.3-.4-.3l-3.9.3 3.8-.8c.2 0 .3-.2.3-.4-.6-2.7-1.8-5.1-3.6-7.2-.5-.5-1.3-.6-1.8-.2l-.2.1-2.9 2.4 2.3-2.5 1-1.1c.1-.1.1-.4 0-.5-2.3-2-5.1-3.5-8.3-4.1-.2 0-.4-.1-.6-.1-.2 0-.3.1-.4.3l-.1.5c0 .2-.4 2.3-.6 2.3-.2 0-.1-2.1-.1-2.3v-.5c0-.2-.1-.3-.3-.4-2.8-.2-5.6.4-8 1.5-.5.2-.8.8-.6 1.3l.6 2.1-1.1-2.5c-.1-.2-.3-.3-.5-.2-2.3 1.4-4.2 3.3-5.7 5.6-.1.1-.1.3.1.4l2.4 2.2-2.6-1.7c-.2-.1-.4-.1-.5.1-.8 1.5-1.4 3.2-1.7 5-.3 1.7-.3 3.5-.1 5.1 0 .2.2.3.4.3l3.3-1-3.4 1.6c-.1.1-.2.2-.2.4.8 4 3.1 7.5 6.2 10 .1.1.3.1.4 0l3-2.8-2.5 3c-.1.2-.1.4.1.5 1.9 1.2 4 2.1 6.4 2.5.9.2 1.7.2 2.5.3.2 0 .3-.1.3-.3v-.3c0-.2-.1-4.6.1-4.6s.6 4.3.6 4.6v.3c0 .2.2.3.4.3 3.6-.2 6.9-1.6 9.6-3.8.1-.1.2-.3 0-.5l-1.3-1.7 1.6 1.5c.1.1.3.1.5 0 1.8-1.6 3.3-3.7 4.2-6 .1-.2 0-.3-.1-.4l-2.8-1.7 2.9 1.3c.2.1.4 0 .5-.2.3-.7.5-1.5.7-2.3z"/><path id="XMLID_160_" class="st6" d="M222.2 224.8c.3-1.7.1-3.3-.1-4.9 0-.2-.2-.3-.3-.3l-4.2.1 4.1-1.3c.2 0 .3-.2.2-.4-.5-2.4-1.4-4.5-3-6.4-.4-.5-1.1-.6-1.6-.2l-.1.1-3.3 2.2 2-2.8.9-1c.1-.1.1-.3 0-.4-2.1-1.8-4.2-3.2-7.1-3.7-.2 0-.4-.1-.5-.1-.2 0-.3.1-.3.3l-.1.4c0 .2-.9 3-1 3-.1 0-.5-2.7-.5-2.9v-.4c0-.2-.1-.3-.3-.3-2.5-.1-4.9.2-7.1 1.2-.5.2-.7.7-.5 1.2l.8 2.9-1.8-2.3c-.1-.2-.6-.8-.7-.7-2.1 1.2-3.5 2.7-4.8 4.8-.1.1-.1.5 0 .6l2.8 2.7-2.9-1.5c-.2-.1-.9-.2-.9 0-.7 1.4-.8 2.8-1.1 4.4-.3 1.6-.5 2.5-.3 4 0 .2.5.6 1.1.4l3.3-.7-3.2 1.8c-.1.1-.2.2-.2.3.7 3.6 2.8 6.8 5.6 9 .1.1.3.1.4 0l2.8-2.4-2.3 3.3c-.1.1-.1.4.1.5 1.7 1.1 3.4 1.9 5.5 2.3.8.1 1.2.1 1.9.1.2 0 .3-.1.3-.3v-.2c0-.2.4-4.7.5-4.7.2 0 .7 3.9.7 4.1v.3c0 .2.2.3.3.3 3.2-.2 6-.7 8.5-2.7.1-.1.2-.3 0-.4l-1.1-2.2 2.1 1.4c.1.1.3.1.4 0 1.6-1.5 2.8-2.9 3.7-5 .1-.1 0-.3-.1-.4l-3-2.1 3.7 1.1c.2.1.4 0 .4-.2.2-.7.2-1.2.3-1.9z"/><path id="XMLID_159_" class="st7" d="M195.4 223.4c-.3-.3-.4-.8-.2-1.2s-1.5-1.4-1-1.9c.2-.2.6-.1.8-.4.3-.3.1-.8 0-1.3-.1-.4-.2-.9-.1-1.4s.5-.8 1-.9c.2 0 .5.1.7.1.9 0 1.7-.9 1.4-1.8-.1-.6-.6-1-.9-1.6-.2-.5 0-1.4.6-1.4.3 0 .5.2.8.3.6.1 3.1.5 3-.1-.1-.6-.6-1.1-1.2-1.4.1-.5.7-.7 1.3-.6.5.1 1.1.3 1.6.1.5-.2.7-.7 1-1.1.3-.4.8-.8 1.3-.7.4.1.6.6.8.9.5.7 1.4 1.1 2.2 1.1h.5c.4.2.4.7.2 1.1-.1.4-.3.8-.1 1.2.2.3.5.4.8.4.3 0 .6-.1.9-.2.2 0 .4-.1.6 0 .2.1.3.4.3.7 0 .6 0 1.3-.2 1.9.6.6 2.5.2 3.1-.5.3-.3.6-.9 1.1-.8.5 0 .7.6.8 1s0 1 .4 1.3c.4.5 1.4.5 1.4 1.1 0 .7-1 .8-1.3 1.5-.2.5 1 1.9 1.4 2.3.4.4.9 1 .6 1.6-.5 1-4.1-.4-4.6.6-.3.5.1 1.1.5 1.5.4.4.9.9.8 1.5-.1.4-.4.7-.7.9-.3-.3-.6-.5-1-.6-.4-.1-.8.1-.9.5-.1.3.1.6.3.8.3.4.7.8 1.2 1 .5.2 1.1.1 1.4-.3.2-.2.3-.4.5-.4.1 0 .2.1.2.1.3.3.5.7.5 1.1 0 .4-.3.8-.7.9-.4 0-.7-.2-1.1-.1-.6.2-.7 1.2-1.3 1.4-.6.2-1.1-.4-1.7-.4-.5 0-.9.3-1.2.8-.2.4-.3.9-.5 1.4-.2.6-.4 1.2-.9 1.6-.5.4-1.2.6-1.7.3-.9-.5-1-1.8-1.9-2.4-.1-.1-.3-.1-.4-.1-.2 0-.4.2-.5.4-.3.4-.8.8-1.3.9-.5.1-1.1-.3-1.1-.9 0-.2.1-.2-.2-.5-.3-.2-.7.2-1.1.3-.4.1-.9.1-1.2-.3s-.4-.8-.1-1.2c.2-.3.7-.5 1-.8.5-.4.5-1.2.1-1.7s-1.8-1-2.2-.6c-.3.3-.5.7-.9.7-.3 0-.6-.2-.8-.1-.6.1-.7.9-1.3 1-.4.1-.8-.3-1-.6-.3-.4-.6-.9-.4-1.3.2-.6.9-.9.9-1.5 0-.4-.3-.7-.7-.9-.3-.2.2-.8 0-1.2-.2-.4 0-.9.4-.9"/></g><g id="Calque_2_-_copie_5_1_"><path id="XMLID_214_" class="st4" d="M216.9 221.9c0-1.2-.2-2.3-.6-3.4 0-.1-.1-.2-.3-.1l-2.4.6 2.3-.9c.1 0 .2-.2.1-.3-.7-1.6-1.7-3-3-4.1-.3-.3-.8-.2-1.1.1l-.1.1-1.5 1.8 1.1-1.8.5-.8c.1-.1 0-.2-.1-.3-1.6-1-3.5-1.6-5.6-1.6h-.4c-.1 0-.2.1-.2.2v.3c0 .1 0 1.5-.1 1.5s-.3-1.3-.3-1.4v-.3c0-.1-.1-.2-.2-.2-1.8.2-3.4.9-4.8 1.8-.3.2-.4.6-.2.9l.6 1.3-1-1.4c-.1-.1-.2-.1-.3 0-1.3 1.1-2.3 2.5-2.9 4.1 0 .1 0 .2.1.3l1.7 1.1-1.8-.8c-.1-.1-.3 0-.3.1-.3 1-.5 2.1-.5 3.3 0 1.1.2 2.2.5 3.2 0 .1.2.2.3.1l2-1-1.9 1.4c-.1.1-.1.2-.1.3.9 2.4 2.7 4.3 5 5.5.1 0 .2 0 .3-.1l1.5-2-1.2 2.1c-.1.1 0 .3.1.3 1.3.6 2.7.9 4.2.9.5 0 1.1 0 1.6-.1.1 0 .2-.1.2-.2v-.2c0-.1-.5-2.8-.5-2.9.1 0 .8 2.6.9 2.8l.1.2c0 .1.1.2.3.1 2.2-.5 4.1-1.7 5.6-3.4.1-.1.1-.2 0-.3l-1-.9 1.2.7c.1.1.2 0 .3 0 .9-1.2 1.6-2.6 2-4.2 0-.1 0-.2-.1-.2l-1.9-.8 1.9.5c.1 0 .2-.1.3-.2-.3-.6-.3-1.1-.3-1.7z"/><path id="XMLID_213_" class="st5" d="M215.6 221.9c0-1-.2-2-.5-3 0-.1-.1-.1-.2-.1l-2.1.5 2-.8c.1 0 .1-.2.1-.2-.6-1.4-1.5-2.6-2.6-3.6-.3-.2-.7-.2-1 .1l-.1.1-1.3 1.6 1-1.6.4-.7c.1-.1 0-.2-.1-.3-1.4-.9-3.1-1.4-4.9-1.4h-.3c-.1 0-.2.1-.2.2v.3c0 .1 0 1.3-.1 1.3s-.3-1.1-.3-1.3v-.3c0-.1-.1-.2-.2-.2-1.5.2-3 .8-4.2 1.6-.3.2-.3.5-.2.8l.6 1.1-.9-1.2c-.1-.1-.2-.1-.3 0-1.1 1-2 2.2-2.6 3.6 0 .1 0 .2.1.2l1.5 1-1.6-.7c-.1 0-.2 0-.3.1-.3.9-.5 1.9-.5 2.9s.2 1.9.4 2.8c0 .1.2.2.3.1l1.7-.9-1.7 1.2c-.1.1-.1.1-.1.2.8 2.1 2.4 3.8 4.4 4.8.1 0 .2 0 .2-.1l1.4-1.8-1 1.9c-.1.1 0 .2.1.3 1.1.5 2.4.8 3.7.8.5 0 .9 0 1.4-.1.1 0 .2-.1.2-.2v-.1c0-.1-.5-2.5-.4-2.5.1 0 .7 2.3.8 2.4l.1.2c0 .1.1.2.2.1 1.9-.5 3.6-1.5 4.9-3 .1-.1.1-.2 0-.3l-.9-.8 1 .7c.1.1.2 0 .3 0 .8-1.1 1.4-2.3 1.7-3.7 0-.1 0-.2-.1-.2l-1.7-.7 1.7.4c.1 0 .2 0 .2-.2v-1.3z"/><path id="XMLID_212_" class="st6" d="M215.2 221.9c0-.9-.3-1.8-.5-2.6 0-.1-.1-.1-.2-.1l-2.3.4 2.1-1.1c.1 0 .1-.1.1-.2-.5-1.3-1.2-2.3-2.3-3.2-.3-.2-.7-.2-.9.1l-.1.1-1.6 1.5.8-1.7.4-.6c0-.1 0-.2-.1-.2-1.3-.8-2.6-1.3-4.2-1.3h-.3c-.1 0-.2.1-.2.2v.2c0 .1-.2 1.7-.3 1.7-.1 0-.5-1.4-.6-1.5v-.2c0-.1-.1-.2-.2-.1-1.4.2-2.6.6-3.7 1.3-.2.2-.3.5-.2.7l.7 1.5-1.2-1.1c-.1-.1-.4-.4-.5-.3-1 .9-1.6 1.8-2.1 3.1 0 .1 0 .3.1.3l1 .5-.9.2c-.1 0-.5 0-.5.1-.3.8-.2 1.6-.2 2.5 0 .9-.1 1.4.2 2.2 0 .1.3.3.6.1l1.7-.7-1.5 1.3c-.1 0-.1.1-.1.2.7 1.9 2.2 3.4 3.9 4.4h.2l1.3-1.6-.9 2c0 .1 0 .2.1.2 1 .4 2 .7 3.2.7.4 0 .7-.1 1.1-.1.1 0 .2-.1.1-.2v-.1c0-.1-.2-2.6-.2-2.6.1 0 .7 2.1.8 2.2v.1c0 .1.1.1.2.1 1.7-.4 3.2-1 4.3-2.3.1-.1.1-.2 0-.2l-.8-1.1 1.3.6h.2c.7-1 1.2-1.8 1.5-3.1 0-.1 0-.2-.1-.2l-1.8-.9 2.1.2c.1 0 .2 0 .2-.1.4-.6.3-.8.3-1.3z"/><path id="XMLID_211_" class="st7" d="M209.7 227.5c-.1.2-.3.4-.5.4s-.5-.1-.6-.3c-.1-.1-.2-.2-.4-.3-.2-.1-.9-.2-1-.1-.2.2-.4.3-.6.3s-.5-.1-.6-.3c-.1-.1-.1-.2-.1-.4-.2-.4-.8-.6-1.2-.3-.2.2-.3.5-.6.8-.2.2-.7.3-.8 0-.1-.1 0-.3-.1-.5-.1-.3-.5-.4-.8-.2-.3.2-.4.5-.4.9-.3.1-.5-.2-.6-.5-.1-.3-.1-.6-.3-.8-.2-.2-.5-.2-.8-.3-.3 0-.6-.2-.6-.5 0-.2.1-.4.2-.6.2-.4.2-.9 0-1.3 0-.1-.1-.1-.1-.2 0-.2.3-.3.5-.4s-.4-.8-.2-.9c.1-.1.1-.3 0-.5s-.2-.3-.3-.4c-.1-.1-.1-.2-.1-.3 0-.1.1-.2.3-.3.3-.2.6-.3.9-.3.1-.4-.1-1-.5-1.1-.2-.1-.6-.1-.7-.4-.1-.2.1-.5.3-.6s.5-.2.6-.5c.1-.3.8-.1 1.1-.2.3-.2.6-1 .9-1 .3 0 .5-.4.6-.7.1-.3.3-.7.6-.6.6 0 .5 1.3 1.1 1.3.3 0 .5-.3.6-.6.1-.3.2-.6.5-.7.2 0 .5 1.4.7 1.5-.1.2-.1.4-.1.6 0 .2.3.4.5.3.2 0 .2-.2.3-.3.1-.2.2-.5.2-.8 0-.3-.2-.6-.5-.6-.1 0-.3-.1-.3-.2v-.1c.1-.2.2-.4.4-.5.2-.1.5 0 .6.2.1.2.1.4.2.6.2.3.7.1 1 .3.2.2.1.6.2.9.1.2.4.4.6.4s.5-.1.8-.1c.3-.1.7-.1 1 .1.3.1.5.4.5.8 0 .6-.7.9-.8 1.5v.2c.1.1.2.1.3.1.3.1.6.2.7.4.1.2.8.5.5.7-.2.2-.6.2-.6.5-.1.2.2.3.3.5.2.2.2.4.2.7-.1.2-.3.4-.6.3-.2 0-.4-.2-.6-.3-.3-.1-1.4-.1-1.5.2s0 .7.3.8c.2.1.4.1.6.3.1.1.5.7.5.8.2.3.6.2.8.4.1.2 0 .4-.1.6-.1.2-.3.5-.5.5-.3 0-.6-.3-.9-.1-.2.1-.3.3-.3.5s0 .4-.2.6c-.1.2-.4.2-.5 0"/></g><g id="Calque_2_-_copie_5"><path id="XMLID_146_" class="st4" d="M212.4 220c-.2-.7-.5-1.3-.9-1.8 0-.1-.1-.1-.2 0l-1.3.8 1.1-1c.1 0 .1-.1 0-.2-.7-.8-1.5-1.4-2.5-1.8-.2-.1-.5 0-.6.3v.1l-.5 1.3.3-1.2.1-.5c0-.1 0-.1-.1-.2-1.1-.3-2.3-.2-3.5.1-.1 0-.1 0-.2.1-.1 0-.1.1-.1.2l.1.2c0 .1.3.8.2.8-.1 0-.4-.7-.5-.8l-.1-.2c0-.1-.1-.1-.2-.1-1 .5-1.8 1.1-2.4 1.9-.1.2-.1.4 0 .6l.6.6-.8-.6h-.2c-.5.9-.8 1.8-.9 2.9 0 .1 0 .1.1.1l1.2.3-1.2-.1c-.1 0-.1.1-.1.1 0 .7.1 1.3.3 2 .2.6.5 1.2.9 1.7 0 .1.1.1.2 0l.9-.9-.8 1.1v.2c1 1.2 2.4 2 3.9 2.2.1 0 .1 0 .1-.1l.5-1.5-.3 1.4c0 .1 0 .1.1.2.8.1 1.7 0 2.6-.3.3-.1.6-.2.9-.4.1 0 .1-.1.1-.2v-.1c0-.1-.8-1.5-.8-1.5.1 0 1 1.3 1 1.4l.1.1c0 .1.1.1.2 0 1.2-.7 2-1.8 2.5-3 0-.1 0-.1-.1-.2l-.7-.3.8.2c.1 0 .1 0 .2-.1.3-.9.4-1.8.3-2.8 0-.1-.1-.1-.1-.1l-1.2-.1 1.2-.1c.1 0 .1-.1.1-.1-.2 0-.2-.3-.3-.6z"/><path id="XMLID_145_" class="st5" d="M211.3 220.3c-.2-.6-.4-1.1-.8-1.5 0 0-.1-.1-.1 0l-1 .7.9-.8s.1-.1 0-.2c-.6-.6-1.3-1.1-2-1.4-.2-.1-.4 0-.5.2v.1l-.4 1.1.3-1 .1-.5c0-.1 0-.1-.1-.1-.9-.2-1.9-.2-2.9.1-.1 0-.1 0-.2.1-.1 0-.1.1-.1.1v.1c0 .1.2.7.2.7s-.3-.6-.4-.6l-.1-.1c0-.1-.1-.1-.1-.1-.8.4-1.5.9-2 1.6-.1.1-.1.3 0 .5l.5.5-.7-.5h-.2c-.4.7-.7 1.5-.7 2.4 0 .1 0 .1.1.1l1 .2-1-.1c-.1 0-.1 0-.1.1 0 .5.1 1.1.3 1.6.2.5.4 1 .7 1.4 0 .1.1.1.2 0l.8-.8-.7.9v.1c.8 1 1.9 1.6 3.2 1.8.1 0 .1 0 .1-.1l.4-1.2-.2 1.2c0 .1 0 .1.1.1.7.1 1.4 0 2.1-.2.3-.1.5-.2.7-.3.1 0 .1-.1 0-.1v-.1c0-.1-.7-1.2-.7-1.3 0 0 .8 1.1.8 1.2l.1.1s.1.1.1 0c1-.6 1.7-1.4 2.1-2.4 0-.1 0-.1-.1-.1l-.6-.3.7.2c.1 0 .1 0 .1-.1.3-.7.4-1.5.3-2.3 0-.1 0-.1-.1-.1l-1-.1 1-.1c.1 0 .1-.1.1-.1-.1-.1-.1-.3-.2-.6z"/><path id="XMLID_144_" class="st6" d="M211.1 220.4c-.2-.5-.4-.9-.7-1.3 0 0-.1-.1-.1 0l-1.1.6.9-.9v-.1c-.5-.6-1.1-1-1.8-1.3-.2-.1-.4 0-.5.2v.1l-.6 1.1.1-1.1.1-.4c0-.1 0-.1-.1-.1-.8-.2-1.6-.3-2.5 0-.1 0-.1 0-.2.1l-.1.1v.1c0 .1.2 1 .2 1s-.5-.7-.6-.7l-.1-.1s-.1-.1-.1 0c-.7.3-1.3.8-1.8 1.4-.1.1-.1.3 0 .4l.7.7-.8-.4-.3-.1c-.4.6-.6 1.2-.6 2l.1.2 1.2.3h-1c-.1 0-.3.1-.3.1 0 .5.2.9.4 1.4.2.5.2.8.5 1.1 0 0 .2.1.4-.1l.8-.7-.6 1v.1c.7.9 1.8 1.5 2.9 1.7 0 0 .1 0 .1-.1l.4-1.1-.1 1.2c0 .1 0 .1.1.1.6.1 1.2 0 1.8-.2.2-.1.3-.1.6-.3 0 0 .1-.1 0-.1v-.1c0-.1-.6-1.4-.5-1.4l.8 1v.1s.1.1.1 0c.9-.5 1.6-1.1 1.9-2 0 0 0-.1-.1-.1l-.6-.4.8.1s.1 0 .1-.1c.2-.6.3-1.2.3-1.9 0 0 0-.1-.1-.1l-1.1-.1 1.2-.2c.1 0 .1-.1.1-.1-.1-.3-.2-.4-.2-.6z"/><path id="XMLID_143_" class="st8" d="M205.6 224.8c-.1 0-.2 0-.3-.1-.1-.1-.1-.2-.1-.3v-.2c-.1-.1-.2-.1-.3-.1-.1 0-.2 0-.3-.1-.1-.1-.2-.2-.1-.3 0-.1.1-.1.1-.2.1-.2-.1-.5-.3-.5-.2 0-.3.1-.5.1s-.3-.1-.3-.3c0-.1.1-.1.1-.2.1-.1 0-.3-.2-.4-.2 0-.3 0-.4.2-.1-.1-.1-.3 0-.4s.2-.2.2-.4c0-.1-.1-.2-.2-.4-.1-.1-.1-.3 0-.4.1-.1.2-.1.3-.1.2-.1.4-.2.5-.4 0 0 0-.1.1-.1.1-.1.2 0 .3 0 .1.1.2.2.3.1.1 0 .1-.1.2-.2s0-.2 0-.3c0 0 0-.1.1-.1h.2c.2.1.3.1.4.2.2-.1.3-.4.2-.6-.1-.1-.2-.2-.1-.4 0-.1.2-.1.3-.1.1 0 .2.1.4 0s.3-.3.4-.2c.2.1.1.3.2.5.1.1.3.1.4 0s.3-.1.4 0c.2.2-.3.6-.1.8.1.1.3.1.4 0 .1-.1.3-.1.4-.1.1.1.1.2.1.3-.1 0-.2.1-.2.2-.1.1 0 .2 0 .3h.2c.1 0 .3-.1.3-.2.1-.1.1-.3.1-.4 0-.1-.1-.1 0-.2h.1c.1-.1.2-.1.3 0 .1 0 .2.2.1.3 0 .1-.1.2-.1.3 0 .2.2.3.2.4 0 .2-.2.2-.3.4-.1.1 0 .3.1.4.1.1.2.2.3.2.1.1.2.2.3.4s0 .3-.1.5c-.2.2-.5.1-.8.2l-.1.1c0 .1 0 .1.1.2s.1.3.1.4c0 .1-.2.2-.3.2-.1 0-.2-.2-.3-.1-.1 0-.1.2-.1.3 0 .1-.1.2-.2.3-.1 0-.2 0-.3-.1-.1-.1 0-.2-.1-.3-.1-.2-.3-.2-.4-.2s-.2.2-.2.4c0 .1.1.2.1.3 0 .1-.1.1-.1.2s.2.3.1.4c0 .1-.1.2-.2.2s-.3.1-.4 0c-.1-.1-.1-.3-.3-.4-.1 0-.2 0-.3.1s-.2.1-.3.2c0-.1-.1-.2-.1-.3"/></g><path id="XMLID_142_" class="st9" d="M203.8 221.9s2.6-.6 2.6-1.8c0 0 .5 1.8 2.1 1.9 0 0-2.3.9-2.4 2.2 0 0 0-2.2-2.3-2.3z"/><path id="XMLID_141_" class="st9" d="M205.1 222.1s1.2-.3 1.2-.8c0 0 .2.8 1 .9 0 0-1 .4-1.1 1-.1-.1-.1-1.1-1.1-1.1z"/><g id="Calque_5_-_copie_5_1_"><path id="XMLID_105_" class="st3" d="m208.3 233.1.5-.1c.6-.1 1.1-.3 1.7-.5l2.4-1.1c.9-.3 1.8 0 2.2 1l.3.6.2.3c.1.1.1.2.2.4l.2.4c.2.5.1 1-.1 1.5-.3.6-.8 1-1.5 1.1h-.3c-.4.1-.8.2-1.1.3l-3.1 1.3c-.9.3-2-.1-2.4-1 0-.1-.1-.2-.1-.3l-.1-.4-.3-.9-.1-.3c-.3-.9.1-1.7.9-2.1.1-.1.3-.2.5-.2z"/><path id="XMLID_104_" class="st17" d="m208.6 233.2.5-.1c.5-.1 1-.2 1.5-.5l2.2-1c.8-.3 1.7 0 2 .9.1.2.2.4.3.5l.2.3c.1.1.1.2.2.3l.1.4c.2.5.1.9-.1 1.3-.2.5-.8.9-1.3 1h-.3c-.4.1-.7.2-1 .3L210 238c-.9.3-1.8-.1-2.2-.9 0-.1-.1-.2-.1-.3l-.1-.4c-.1-.3-.2-.5-.3-.8l-.1-.3c-.3-.8.1-1.5.8-1.9.2-.1.4-.1.6-.2z"/><g id="XMLID_100_" class="st18"><g id="XMLID_102_"><path id="XMLID_103_" class="st13" d="M212.2 235.5c.4-.4 2.1.9 2.4.7.5-.3-.7-1.1-.7-1.7-.5-1.1-.4-2.6-1.3-2.6-.8 0-1.8 2.2-2.7 2.2-.7 0-3.3-1-3.3.4 0 .6 2.1.8 3.1 2 .5.5.9 1.8 1.7 1.4.7-.4 1-2.8 1.5-2.8l.7.3c-.3-.3-1.4.1-1.4.1z"/></g></g><g id="XMLID_87_" class="st19"><g id="XMLID_98_"><path id="XMLID_99_" class="st15" d="M210.9 236.2c0-.5 2.1-.6 2.4-1.1s-.1-.5-.1-1c-.7.7-3-2.8-4-1.6-.4.4 1 1.9.7 3.6.5 0 0 1.1.5 1.1s1-2 1.5-2c-.5 0-1 1-1 1z"/></g></g><circle id="XMLID_86_" transform="rotate(-81.668 209.384 235.458)" class="st20" cx="209.4" cy="235.4" r=".2"/><ellipse id="XMLID_85_" transform="scale(-1) rotate(66.416 359.965 -322.693)" class="st20" cx="211.2" cy="235.6" rx=".2" ry=".3"/><circle id="XMLID_84_" class="st20" cx="213" cy="234.3" r=".1"/></g></g></svg>