<svg version="1.0" id="Calque_7" xmlns="http://www.w3.org/2000/svg" x="0" y="0" width="300" height="260" viewBox="0 0 300 300" style="enable-background:new 0 0 300 300" xml:space="preserve"><style>.st0{opacity:.15}.st2{fill:#2a3a1d}.st3{fill:#4ca57d}.st4{fill:#2c7c5b}.st5{opacity:.2}.st7{opacity:.5;fill:#a2ccae}.st8{fill:#c9e9f4}.st9{opacity:.4}.st10{fill:#e4f4fa}.st11{opacity:.25}.st12{fill:#ecf8fd}.st13{opacity:.5;fill:#fff}</style><path id="XMLID_12_" class="st0" d="M259 170.9c2-11.3 2-22.6.4-33.4-.2-1.1-1.1-1.9-2.2-1.8l-24.2 1.8 23.4-5.1c1.1-.2 1.9-1.4 1.6-2.5-3.7-16.4-11.4-31.6-22.1-44.3-2.8-3.3-7.7-3.7-10.9-.9l-1 .8-17.8 14.9L220 85.1l6.2-6.8c.8-.9.7-2.2-.1-3C212 63 194.6 54.1 174.8 50.6l-3.6-.6c-1.1-.2-2.2.6-2.4 1.7l-.5 2.9v.2c-.2 1.3-2.4 14-3.4 13.8-.9-.2-.8-13-.7-14.2l.1-3c0-1.1-.8-2.1-2-2.2-17.3-.9-34 2.5-48.9 9.4-3.1 1.5-19.6 17.7-18.6 21l4 13.1-7-15.3c-.5-1.1-1.9-1.6-3-.9-14.5 8.7-33.2 34.4-42.1 49.2l22.5 1-24.2 1.5c-5.6 9.9-9.6 21-11.7 32.8-2 11.5-2.1 22.9-.4 33.8l22.8-7-22.2 10.4c4.8 25.6 19.2 48.5 40 64L93 244l-16.5 20.4c11.9 8.3 25.8 14.2 41 16.8 5.9 1 11.9 1.6 17.7 1.6l.1-3.7c0-1.2-.4-28 .5-28.2 1-.1 3.5 26.6 3.7 27.9l.5 3.8c23.4-1 45.3-9.8 62.6-24.4l-9.6-11.8 11.2 10.4c11.7-10.3 42.4-49.6 48.6-64.5.4-.9 0-2-.9-2.6L234.6 179l17.8 7.8c1.1.5 2.4-.1 2.8-1.2 1.6-4.7 2.9-9.6 3.8-14.7z"/><g id="Calque_2"><path id="XMLID_23_" class="st2" d="M259 170.9c2-11.3 2-22.6.4-33.4-.2-1.1-1.1-1.9-2.2-1.8l-24.2 1.8 23.4-5.1c1.1-.2 1.9-1.4 1.6-2.5-3.7-16.4-11.3-31.5-22-44.1-2.8-3.3-7.7-3.8-11-1l-1 .8-17.8 14.9L220 85.2l6.2-6.8c.8-.9.7-2.2-.1-3C212 63 194.6 54.1 174.8 50.6c-1.2-.2-2.4-.4-3.7-.6-1.1-.2-2.1.6-2.3 1.7l-.5 2.9v.2c-.2 1.3-2.4 14-3.4 13.8-.9-.2-.8-13-.7-14.2l.1-3c0-1.1-.8-2.1-2-2.2-17.3-.9-34 2.5-49 9.4-3.1 1.4-4.6 5-3.7 8.2l4 13.1-7-15.3c-.5-1.1-1.9-1.6-3-.9-14 8.4-26 20-34.8 34.1-.5.9-.4 2 .4 2.7L84 114l-15.8-10.7c-1-.7-2.4-.4-3 .7-5 9.4-8.7 19.7-10.6 30.8-1.9 10.7-2.1 21.2-.7 31.4.2 1.3 1.5 2.1 2.7 1.7l20.5-6.3-20.7 9.7c-.9.4-1.4 1.4-1.2 2.3 5 24.4 18.7 46.2 38.2 61.3.8.6 2 .6 2.7-.1l18.3-17-15.1 18.6c-.8 1-.6 2.4.5 3.1 11.5 7.6 24.7 13 39.1 15.6 5.2.9 10.4 1.4 15.6 1.6 1.2 0 2.1-.9 2.1-2.1V253c0-1.2-.4-28 .5-28.2 1-.1 3.5 26.6 3.7 27.9l.2 1.9c.1 1.1 1.1 1.9 2.2 1.8 22-1.3 42.5-9.6 59.1-23 .9-.7 1-2.1.3-2.9l-8.3-10.2 9.8 9.1c.8.7 2 .8 2.8 0 11.1-10.1 20-22.7 25.9-37 .4-.9 0-2-.8-2.6l-17.3-10.7 17.8 7.8c1.1.5 2.4-.1 2.8-1.2 1.5-4.8 2.8-9.7 3.7-14.8z"/><path id="XMLID_5_" class="st3" d="M254.5 170.1c1.9-10.8 2-21.6.4-31.9-.2-1-1.1-1.8-2.1-1.7l-23.1 1.8 22.4-4.9c1.1-.2 1.8-1.3 1.5-2.4-3.5-15.7-10.8-30.1-21-42.2-2.7-3.2-7.4-3.6-10.5-1l-.9.8-17.2 14.2 13.2-14.6 5.9-6.5c.7-.8.7-2.1-.1-2.8-13.3-11.9-30-20.4-48.9-23.8-1.2-.2-2.3-.4-3.5-.6-1.1-.1-2 .6-2.2 1.6l-.5 2.8v.2c-.2 1.3-2.3 13.4-3.3 13.2-.9-.2-.8-12.4-.7-13.6l.1-2.9c0-1.1-.8-2-1.9-2.1-16.5-.9-32.5 2.4-46.9 9-3 1.4-4.4 4.7-3.5 7.9l3.8 12.5-6.7-14.6c-.5-1.1-1.8-1.5-2.8-.9-13.4 8-24.8 19.2-33.2 32.6-.5.8-.4 1.9.4 2.5l14.2 12.9-15.1-10.3c-1-.7-2.3-.3-2.9.7-4.8 9-8.3 18.9-10.1 29.4-1.8 10.2-2 20.3-.7 30 .2 1.2 1.4 2 2.6 1.6l19.6-6-19.8 9.3c-.8.4-1.3 1.3-1.1 2.2 4.8 23.3 17.9 44.2 36.6 58.6.8.6 1.9.5 2.6-.1l17.5-16.3-14.4 17.8c-.7.9-.5 2.3.4 2.9 11 7.3 23.6 12.4 37.4 14.9 5 .9 10 1.4 14.9 1.5 1.1 0 2-.9 2-2v-1.6c0-1.2-.4-26.8.5-26.9 1-.1 3.4 25.4 3.5 26.7l.2 1.8c.1 1 1.1 1.8 2.1 1.8 21-1.3 40.7-9.2 56.5-22 .9-.7 1-2 .3-2.8l-7.9-9.7 9.4 8.7c.8.7 1.9.7 2.7 0 10.6-9.7 19.1-21.7 24.8-35.4.4-.9 0-2-.8-2.5l-17.1-9.9 17 7.5c1.1.5 2.3-.1 2.7-1.2 1.6-4.6 2.8-9.3 3.7-14.2z"/><path id="XMLID_3_" class="st4" d="M250 169.3c1.7-9.8.7-19.2-.7-28.5-.1-.9-1-1.6-1.9-1.5l-24.7.4 24-7.3c1-.2 1.6-1.2 1.4-2.2-3.2-14.1-8.4-26.4-17.6-37.4-2.4-2.9-6.7-3.3-9.5-.9l-.9.7-19.4 13.1 11.5-16.5 5.3-5.9c.7-.7.6-1.9-.1-2.6-12-10.8-24.7-18.9-41.8-21.9-1.1-.2-2.1-.4-3.2-.5-1-.1-1.8.5-2 1.5l-.4 2.5v.1c-.2 1.2-5.2 17.7-6.1 17.5-.8-.1-3.1-15.9-3.1-16.9l.1-2.6c0-1-.7-1.8-1.7-1.9-14.9-.8-28.4.9-41.4 6.9-2.7 1.2-4 4.3-3.2 7.1l4.9 17.2L109 76.4c-.4-1-3.3-4.7-4.2-4.1-12.1 7.2-20.3 15.8-27.9 28-.5.7-.4 3.1.2 3.7l16.4 16-16.8-9c-.9-.6-5-1-5.5-.1-4.3 8.1-4.5 16.2-6.2 25.7-1.6 9.2-3.1 14.6-2 23.5.1 1.1 2.6 3.7 6.3 2.2l19.2-4.1L70 168.8c-.8.4-1.2 1.2-1 2 4.3 21.1 16.2 39.9 33 53 .7.5 1.7.5 2.3-.1l16.7-14.1-13.2 19.6c-.7.8-.5 2.1.4 2.7 9.9 6.6 19.8 11.3 32.3 13.5 4.5.8 7 .5 11.4.6 1 0 1.8-.8 1.8-1.8v-1.4c0-1.1 2.4-27.7 3.2-27.8.9-.1 3.8 22.8 4 24l.2 1.6c.1.9.9 1.7 1.9 1.6 19-1.1 35.3-4.1 49.6-15.7.8-.6.9-1.8.3-2.5l-6.5-12.8 12.1 8.4c.7.6 1.8.7 2.5 0 9.6-8.7 16.3-16.9 21.4-29.3.3-.8 0-1.8-.7-2.2L224 175.6l21.5 6.3c1 .4 2.1-.1 2.4-1.1 1.4-4.1 1.3-7.1 2.1-11.5z"/><path id="XMLID_4_" class="st5" d="M93.1 161.5c-1.8-1.8-2.2-4.8-1.2-7.1 1-2.4-8.8-8.1-5.9-11.2 1.1-1.2 3.4-.9 4.5-2.2 1.6-2 .5-4.9-.3-7.4-.8-2.6-1.2-5.4-.3-7.9s3.1-4.8 5.8-5c1.4-.1 2.8.3 4.2.4 5.2.2 9.7-5.4 8.4-10.4-.9-3.4-3.7-5.9-5.2-9.1-1.4-3.2-.2-8.2 3.3-8.2 1.7 0 3.2 1.3 4.9 1.6 3.6.7 18.1 2.8 17.6-.8-.5-3.6-3.5-6.4-6.8-8.1.3-3.1 4.4-4.3 7.5-3.8 3.1.5 6.3 1.8 9.2.7 2.8-1.1 4.4-4 6.1-6.4 1.7-2.5 4.6-4.8 7.5-3.9 2.3.7 3.5 3.3 4.9 5.3 2.9 4.1 8 6.6 13 6.5.9 0 1.9-.1 2.7.2 2.2.9 2.2 4.1 1.4 6.3-.8 2.3-1.9 4.8-.8 6.9.9 1.7 3 2.4 4.9 2.3 1.9-.1 3.7-.8 5.6-1.3 1.1-.3 2.3-.5 3.2.1 1.2.7 1.5 2.4 1.6 3.9.1 3.7-.2 7.4-1 11 3.7 3.4 14.6.9 18.2-2.6 2-2 3.7-5.1 6.6-5 2.7.1 4.2 3.3 4.6 6s.2 5.8 2.1 7.8c2.5 2.8 8.1 3 8.4 6.7.3 3.9-5.9 4.9-7.6 8.5-1.4 3.2 5.9 10.9 8.4 13.4s5.2 6 3.5 9.1c-3.1 5.9-23.9-2.6-27 3.3-1.6 3 .8 6.5 3.2 8.8 2.4 2.4 5.2 5.2 4.5 8.5-.5 2.3-2.5 3.9-4.4 5.2-1.7-1.5-3.5-3.1-5.8-3.5-2.2-.4-5 .7-5.4 3-.3 1.7.7 3.3 1.8 4.6 1.9 2.4 4.2 4.6 7 5.6 2.9 1 6.4.7 8.5-1.6.9-1 1.8-2.4 3.1-2.2.5.1 1 .4 1.4.8 1.8 1.6 3.2 3.9 3.2 6.3s-1.8 4.9-4.3 5.2c-2.2.2-4.3-1.3-6.5-.7-3.8 1-3.9 7.1-7.6 8.4-3.2 1.2-6.3-2.2-9.8-2.5-2.9-.2-5.5 1.9-7 4.4s-1.9 5.5-2.7 8.3c-1 3.5-2.6 7-5.4 9.4-2.8 2.4-6.9 3.4-10.2 1.8-5.4-2.7-5.9-10.8-10.9-14.2-.7-.5-1.5-.9-2.4-.7-1.2.2-2.1 1.3-2.8 2.3-1.9 2.5-4.4 4.8-7.5 5.1-3.1.3-6.2-2-6.5-5.1-.1-1.3.6-1.1-1.3-2.8-1.6-1.4-4.2 1-6.2 1.7-2.4.8-5.4.3-7.2-1.5s-2.2-5-.8-7.1c1.4-2 4.2-2.7 6-4.4 2.7-2.5 2.9-7.1.5-9.8-2.4-2.7-10.4-5.9-13.1-3.6-1.8 1.5-3 4-5.3 4.2-1.7.2-3.3-1-5-.8-3.3.4-4.4 5.4-7.7 6.1-2.4.5-4.6-1.6-6.1-3.6-1.7-2.2-3.3-5-2.5-7.7 1-3.3 5.4-5.2 5.6-8.6.1-2.3-1.9-4.2-3.9-5.5-2-1.3 1.1-4.9 0-7-1.1-2.1.1-5.4 2.4-5.3"/></g><g id="Calque_2_-_copie_2"><path id="XMLID_181_" class="st2" d="M221.5 152.8c0-7.2-1.2-14.1-3.4-20.5-.2-.6-.9-1-1.6-.8l-14.6 3.8 13.8-5.7c.7-.3 1-1 .7-1.7-4.1-9.7-10.4-18.1-18.3-24.7-2.1-1.7-5.1-1.5-6.9.6l-.5.6-9.3 11.1 6.8-10.9 3-4.9c.4-.6.2-1.4-.4-1.8-9.9-6.2-21.6-9.7-34.1-9.7h-2.3c-.7 0-1.2.6-1.2 1.3V91.4c0 .9.1 8.8-.6 8.8-.6 0-1.9-7.9-2-8.7l-.3-1.9c-.1-.7-.7-1.2-1.5-1.1-10.7 1.3-20.6 5.2-29.1 11.1-1.7 1.2-2.3 3.6-1.4 5.5l3.9 7.6-6-8.6c-.4-.6-1.3-.8-1.9-.3-7.7 6.7-13.8 15.1-17.7 24.7-.2.6 0 1.3.5 1.6l10.6 6.7L97 132c-.7-.3-1.5 0-1.8.8-2.1 6.3-3.2 13.1-3.2 20.1 0 6.8 1 13.3 3 19.4.2.8 1.1 1.1 1.8.8l11.9-6.1-11.7 8.1c-.5.3-.7 1-.5 1.6 5.7 14.4 16.5 26.3 30.1 33.5.6.3 1.3.1 1.7-.4l9.4-12.4-7.3 13.1c-.4.7-.1 1.5.6 1.8 7.9 3.4 16.6 5.3 25.7 5.3 3.3 0 6.6-.3 9.8-.7.7-.1 1.2-.8 1.1-1.5l-.2-1c-.1-.8-3.3-17.2-2.8-17.4.6-.2 5 16 5.3 16.8l.3 1.1c.2.7.9 1.1 1.6.9a65.06 65.06 0 0 0 33.8-20.5c.5-.5.4-1.4-.1-1.8l-6.2-5.3 7 4.5c.6.4 1.3.2 1.7-.3 5.7-7.4 9.8-16.1 11.9-25.5.1-.6-.2-1.3-.8-1.5l-11.8-4.7 11.8 2.9c.7.2 1.5-.3 1.6-1.1.6-3.3.8-6.4.8-9.7z"/><path id="XMLID_180_" class="st3" d="M218.4 152.8c0-6.8-1.1-13.4-3.2-19.6-.2-.6-.9-1-1.5-.8l-13.9 3.6 13.1-5.4c.6-.3.9-1 .7-1.6-3.9-9.2-9.9-17.3-17.4-23.5-2-1.6-4.9-1.4-6.6.5l-.5.6-8.9 10.6 6.5-10.4 2.9-4.6c.4-.6.2-1.4-.4-1.7-9.4-5.9-20.6-9.3-32.5-9.3h-2.2c-.7 0-1.2.6-1.2 1.2V94.3c0 .8.1 8.4-.6 8.4-.6 0-1.8-7.5-1.9-8.2l-.3-1.8c-.1-.7-.7-1.2-1.4-1.1-10.2 1.2-19.7 5-27.7 10.6-1.7 1.2-2.2 3.4-1.3 5.2l3.7 7.3-5.7-8.2c-.4-.6-1.3-.7-1.8-.2-7.3 6.4-13.1 14.4-16.8 23.5-.2.6 0 1.2.5 1.5l10.1 6.3-10.3-4.6c-.7-.3-1.5 0-1.7.7-2 6-3 12.4-3 19.1 0 6.4 1 12.6 2.8 18.5.2.7 1.1 1.1 1.8.7l11.3-5.8-11.1 7.8c-.5.3-.7.9-.4 1.5 5.5 13.8 15.7 25.1 28.7 31.9.5.3 1.2.1 1.6-.4l8.9-11.8-6.9 12.5c-.4.6-.1 1.5.6 1.7 7.5 3.2 15.8 5.1 24.5 5.1 3.2 0 6.3-.2 9.3-.7.7-.1 1.1-.8 1-1.4l-.2-1c-.1-.7-3.2-16.4-2.6-16.5.6-.2 4.8 15.2 5 16l.3 1.1c.2.6.8 1 1.5.9 12.7-3 23.9-10 32.2-19.6.4-.5.4-1.3-.1-1.8l-5.9-5.1 6.7 4.3c.5.4 1.3.2 1.7-.3 5.4-7.1 9.4-15.3 11.3-24.3.1-.6-.2-1.2-.8-1.4l-11.2-4.5 11.2 2.7c.7.2 1.4-.3 1.5-1 .4-3 .6-6 .6-9.1z"/><path id="XMLID_179_" class="st4" d="M215.6 152.8c0-6.2-1.7-11.8-3.5-17.4-.2-.6-.8-.9-1.3-.7l-15.1 2.9 13.9-7.1c.6-.2.9-.9.6-1.5-3.5-8.3-8-15.3-14.8-21-1.8-1.5-4.4-1.3-5.9.5l-.4.5-10.4 10.1 5.2-11.3 2.6-4.2c.3-.5.2-1.2-.4-1.6-8.5-5.3-17.1-8.9-27.9-8.9h-2c-.6 0-1.1.5-1.1 1.1V95.9c0 .7-1.3 11.4-1.8 11.4s-3.6-9.4-3.7-10l-.2-1.6c-.1-.6-.6-1-1.2-1-9.2 1.1-17.3 3.6-24.6 8.7-1.5 1-2 3.1-1.2 4.7l4.8 10-7.9-7c-.4-.5-2.5-2.5-3-2.1-6.6 5.7-10.7 11.9-14 20.1-.2.5.1 1.9.5 2.2l6.3 3.1-5.8 1.1c-.6-.3-3.2-.1-3.4.6-1.8 5.4-1 10.4-1 16.4 0 5.8-.3 9.3 1.3 14.6.2.7 2 2 4.1.7l11.3-4.6-10.2 8.5c-.4.3-.6.9-.4 1.3 4.9 12.4 14.2 22.7 25.9 28.8.5.3 1.1.1 1.4-.3L141 191l-5.9 13.4c-.3.6-.1 1.3.5 1.6 6.8 2.9 13.4 4.8 21.2 4.8 2.9 0 4.3-.4 7.1-.8.6-.1 1-.7.9-1.3l-.1-.9c-.1-.7-1.5-17.2-1-17.4.5-.2 4.8 13.6 5 14.3l.3 1c.2.6.8.9 1.3.8 11.5-2.7 21.2-6.3 28.7-15 .4-.5.3-1.2-.1-1.6l-5.4-7.1 8.3 3.8c.5.3 1.1.2 1.5-.3 4.9-6.4 8.1-12.1 9.9-20.2.1-.5-.2-1.1-.7-1.3l-12.1-5.7 13.8 1.5c.6.2 1.3-.3 1.4-.9.3-2.3 0-4.1 0-6.9z"/><path id="XMLID_178_" class="st5" d="M179.4 189.2c-.5 1.4-2.1 2.4-3.6 2.5-1.5.1-3-.7-4.1-1.8-.7-.7-1.3-1.6-2.3-1.9-1.5-.4-5.6-1.4-6.8-.4-1.2 1.1-2.6 2-4.3 2.2-1.6.2-3.4-.5-4.2-1.9-.4-.7-.5-1.6-.9-2.4-1.2-2.9-5.4-3.9-7.8-2-1.6 1.3-2.3 3.5-3.6 5.1-1.4 1.6-4.4 2.2-5.3.3-.4-.9-.1-2.1-.4-3.1-.5-2.1-3.6-2.8-5.4-1.6-1.8 1.2-2.6 3.6-2.7 5.8-1.8.6-3.4-1.3-4-3.1-.5-1.8-.6-3.9-1.9-5.2-1.3-1.3-3.3-1.4-5.1-1.7-1.8-.3-3.8-1.3-4-3.1-.2-1.5.9-2.7 1.6-4 1.5-2.6 1.6-6 .2-8.8-.2-.5-.5-1-.6-1.5-.1-1.4 1.7-2.2 3.1-2.4 1.4-.1-2.4-5-1.5-6.1.7-.9.5-2.3 0-3.3s-1.4-1.8-2.1-2.7c-.4-.5-.8-1.1-.8-1.8.1-.9.9-1.4 1.7-1.8 2-1 4.1-1.8 6.3-2.2.9-2.9-.7-6.4-3.6-7.5-1.6-.6-3.7-.7-4.4-2.3-.6-1.5.7-3.1 2.1-4 1.4-.9 3.1-1.6 3.7-3.1.9-2.1 5.1-.4 7.1-1.5 2.1-1.2 3.7-6.8 6.1-6.9 2.1 0 3.3-2.4 4-4.4s2-4.4 4.1-4.2c4 .2 3.4 8.3 7.4 8.6 2 .1 3.3-2.1 4-4 .7-1.9 1.5-4.2 3.5-4.6 1.4-.3 3.3 9.2 4.5 9.9-.4 1.3-.8 2.7-.5 4 .3 1.3 1.7 2.5 3 2.2 1-.3 1.6-1.2 2.1-2.2.8-1.6 1.5-3.5 1.3-5.3-.2-1.8-1.3-3.7-3-4.2-.8-.2-1.8-.4-2-1.1-.1-.3 0-.6.1-.9.4-1.4 1.3-2.8 2.7-3.4s3.2-.2 3.9 1c.7 1.1.4 2.7 1.2 3.7 1.5 1.8 4.9.3 6.5 2 1.5 1.5.4 4 1.1 6 .6 1.6 2.4 2.5 4.2 2.7 1.7.1 3.5-.3 5.2-.6 2.2-.3 4.5-.3 6.5.6 2 .9 3.6 2.9 3.6 5.1-.1 3.7-4.4 6-5 9.6-.1.5-.1 1.1.2 1.5.4.6 1.3.8 2 .9 1.8.4 3.7 1.2 4.7 2.8 1 1.6 5 3 3.6 4.4-1.1 1.1-3.7 1.6-4.1 3.1-.4 1.2 1 2.2 1.9 3.1 1.1 1.1 1.5 2.8 1 4.3s-2.1 2.5-3.7 2.2c-1.5-.3-2.6-1.6-3.9-2.2-2-.8-9.3-.9-10.2 1.1-.9 2 .1 4.6 2.1 5.5 1.3.6 2.9.6 3.7 1.8.5.9 3.1 4.4 3.6 5.3 1 1.7 4 1 5.3 2.6.9 1.2.3 2.9-.4 4.2-.8 1.5-1.9 3.1-3.6 3.3-2.1.3-4.2-1.7-6.1-.8-1.3.6-1.8 2.1-2 3.5-.2 1.4-.2 2.9-1.1 4-.9 1.1-3 1.3-3.5 0"/></g><g id="Calque_2_-_copie"><path id="XMLID_9_" class="st2" d="M197.2 139.6c-1.5-4.5-3.6-8.6-6.3-12.1-.3-.4-.8-.4-1.2-.2l-8.4 5.3 7.5-6.4c.4-.3.4-.9.1-1.2-4.5-5.2-10.2-9.2-16.5-11.7-1.6-.7-3.5.1-4.2 1.8l-.2.5-3.6 8.8 2-8.2.9-3.7c.1-.5-.2-.9-.6-1-7.4-1.8-15.5-1.7-23.3.9-.5.2-1 .3-1.4.5-.4.2-.7.6-.5 1.1l.4 1.1v.1c.2.5 1.8 5.5 1.4 5.6-.4.1-2.8-4.5-3-5l-.5-1.1c-.2-.4-.7-.6-1.1-.4-6.4 3-11.8 7.5-15.9 12.9-.8 1.1-.7 2.7.3 3.7l4 4-5.5-4.2c-.4-.3-1-.2-1.3.2-3.4 5.7-5.5 12.3-6 19 0 .4.3.8.7.9l8 2-7.8-.8c-.5-.1-1 .3-1 .8 0 4.4.7 8.8 2.1 13.2 1.4 4.2 3.4 8.1 5.8 11.5.3.4.9.5 1.3.1l6.2-6.2-5.6 7.5c-.2.3-.2.8 0 1.1 6.5 7.9 15.7 13.1 25.7 14.8.4.1.8-.2 1-.6l3.3-9.7-1.9 9.6c-.1.5.3 1 .8 1 5.6.5 11.4-.1 17.1-1.9 2.1-.7 4.1-1.5 5.9-2.4.4-.2.6-.7.4-1.2l-.3-.6c-.2-.4-5.6-10.1-5.3-10.3.4-.2 6.4 8.9 6.7 9.4l.4.6c.3.4.8.5 1.2.2 7.7-4.7 13.5-11.7 16.9-19.7.2-.4 0-.9-.5-1.1l-4.9-2.1 5.3 1.4c.4.1.9-.1 1-.5 2-5.8 2.9-12.1 2.2-18.4 0-.4-.4-.7-.8-.8l-8.3-.5 7.9-.6c.5 0 .9-.5.8-1-.3-2-.7-4-1.4-6z"/><path id="XMLID_8_" class="st3" d="M194.3 140.5c-1.4-4.2-3.4-7.9-5.8-11.3-.2-.3-.7-.4-1.1-.2l-7.8 4.9 6.9-5.9c.3-.3.4-.8.1-1.1-4.2-4.8-9.4-8.5-15.3-10.9-1.5-.6-3.3.1-3.9 1.6l-.2.5-3.3 8.2 1.9-7.6.8-3.4c.1-.4-.2-.9-.6-1-6.9-1.7-14.4-1.5-21.6.8-.4.1-.9.3-1.3.5-.4.1-.6.6-.5 1l.3 1.1v.1c.2.5 1.7 5.1 1.3 5.2-.3.1-2.6-4.2-2.8-4.6l-.5-1c-.2-.4-.7-.6-1.1-.4-6 2.8-11 6.9-14.7 12-.8 1-.7 2.5.2 3.4l3.7 3.7-5.1-3.9c-.4-.3-.9-.2-1.2.2-3.2 5.3-5.1 11.4-5.5 17.7 0 .4.2.7.6.8l7.4 1.8-7.2-.8c-.5 0-.9.3-.9.8 0 4.1.6 8.2 2 12.2 1.3 3.9 3.1 7.5 5.4 10.7.3.4.9.4 1.2.1l5.7-5.8-5.2 7c-.2.3-.2.7 0 1 6.1 7.3 14.6 12.1 23.8 13.7.4.1.8-.2.9-.5l3.1-9-1.7 9c-.1.5.2.9.7.9 5.2.5 10.6-.1 15.9-1.8 1.9-.6 3.8-1.4 5.5-2.3.4-.2.5-.7.3-1.1l-.3-.6c-.2-.4-5.2-9.3-4.9-9.5.3-.2 5.9 8.3 6.2 8.7l.4.6c.2.3.7.4 1.1.2 7.1-4.4 12.5-10.8 15.7-18.3.2-.4 0-.9-.4-1l-4.6-1.9 4.9 1.3c.4.1.8-.1 1-.5 1.9-5.4 2.7-11.2 2.1-17.1 0-.4-.4-.7-.7-.7l-7.7-.5 7.4-.6c.5 0 .8-.5.7-.9-.3-1.7-.7-3.6-1.3-5.5z"/><path id="XMLID_7_" class="st4" d="M192.5 141.1c-1.2-3.8-3.4-6.9-5.6-9.9-.2-.3-.6-.4-1-.2l-8.6 4.8 7-7.1c.3-.3.3-.7.1-1-3.8-4.4-7.9-7.7-13.2-9.8-1.4-.6-3 .1-3.5 1.5l-.2.4-4.3 8.2.9-7.9.8-3.1c.1-.4-.1-.8-.5-.9-6.2-1.5-12.2-2-18.8.2-.4.1-.8.3-1.2.4-.4.1-.5.5-.4.9l.3 1v.1c.1.4 1.5 7.2 1.2 7.3-.3.1-4.1-5-4.3-5.4l-.5-.9c-.2-.4-.6-.5-1-.3-5.4 2.5-9.8 5.7-13.2 10.2-.7.9-.6 2.3.2 3.1l4.9 5.1-6.2-2.7c-.3-.3-2-1-2.3-.6-2.9 4.8-4.2 9.3-4.5 15 0 .3.4 1.2.8 1.2l8.8 2.5h-7.6c-.4 0-2 .6-2 1 0 3.7 1.4 6.5 2.6 10.2 1.2 3.5 1.6 5.7 3.7 8.6.3.4 1.6.8 2.6-.4l6-5.1-4.5 7.2c-.2.3-.2.6 0 .9 5.5 6.6 13.1 11 21.5 12.4.3.1.7-.1.8-.5l3.2-8.1-.9 9.4c-.1.4.2.8.6.9 4.7.4 9.1.3 13.9-1.3 1.7-.6 2.5-1.1 4.1-1.9.4-.2.5-.6.3-1l-.3-.5c-.2-.4-4.4-10.2-4.1-10.4.3-.2 5.6 7.3 5.9 7.7l.4.5c.2.3.6.4 1 .2 6.4-4 11.6-8.1 14.5-14.8.2-.4 0-.8-.4-.9l-4.7-3.3 5.8.7c.4.1.7-.1.9-.5 1.7-4.9 2.5-9 2-14.3 0-.4-.3-.6-.7-.6l-8.5-1 8.7-1.8c.4 0 .7-.4.7-.8 0-1.9-.6-2.9-1.2-4.6z"/><path id="XMLID_6_" d="M151.6 174.1c-.8.3-1.8.1-2.4-.5s-.9-1.5-.9-2.3c0-.6.1-1.2-.1-1.7-.4-.8-1.5-.8-2.4-.8-.9-.1-1.8-.3-2.5-.8-.7-.6-1.1-1.5-.9-2.4.1-.5.4-.8.6-1.3.7-1.6-.5-3.7-2.2-3.9-1.2-.1-2.3.5-3.5.5-1.2.1-2.6-.9-2.2-2 .2-.5.8-.8 1.1-1.3.6-1-.3-2.5-1.4-2.8-1.2-.3-2.4.3-3.3 1.2-.9-.5-.8-1.9-.3-2.8.5-.9 1.3-1.8 1.3-2.8 0-1-.7-1.8-1.3-2.7-.6-.8-1-2-.3-2.8.5-.6 1.4-.7 2.2-.9 1.6-.4 3-1.7 3.6-3.3.1-.3.2-.6.4-.8.5-.6 1.5-.2 2.1.3.6.5 1.3 1.2 2.1 1.1.6-.1 1.1-.7 1.3-1.3.2-.6.2-1.3.2-1.9 0-.4.1-.8.4-1 .4-.3.9-.2 1.4 0 1.2.4 2.3.9 3.3 1.6 1.5-.8 2.3-2.8 1.6-4.3-.4-.9-1.1-1.8-.8-2.6.4-.8 1.5-.9 2.4-.7.9.2 1.8.6 2.7.3 1.2-.5 1.9-2.2 3.1-1.8 1.3.4.8 2.4 1.8 3.4.8.8 2.2.4 3.3-.1 1.1-.5 2.5-.9 3.3 0 1.5 1.7-2 4.6-.5 6.3.7.8 2.1.5 3.1 0s2.2-1 3.2-.4c.7.4.9 1.2 1.1 2-.7.4-1.4.7-1.8 1.4s-.4 1.6.3 2c.5.3 1.1.2 1.7 0 1-.3 1.9-.8 2.6-1.5s1-1.9.5-2.8c-.2-.4-.6-.9-.3-1.2.1-.2.2-.3.4-.3.7-.4 1.6-.5 2.4-.2.8.3 1.3 1.2 1.1 1.9-.2.7-.9 1.2-1 1.9-.1 1.3 1.7 2.1 1.7 3.4 0 1.1-1.5 1.7-1.9 2.8-.4.9-.1 2 .6 2.7.6.7 1.5 1.3 2.3 1.8 1 .7 1.9 1.7 2.3 2.8.4 1.2.2 2.6-.7 3.4-1.5 1.4-4.1.6-5.7 1.7-.2.2-.5.4-.5.7-.1.4.2.8.4 1.2.6.9 1 2 .7 3-.3 1-1.4 1.8-2.4 1.4-.8-.3-1.5-1.4-2.2-1-.6.3-.5 1.2-.5 1.9 0 .9-.5 1.7-1.3 2.1s-1.8.1-2.3-.6c-.5-.7-.4-1.6-.7-2.4-.5-1.1-1.9-1.8-3-1.3-1.1.4-1.8 1.8-1.4 3 .3.7.9 1.4.7 2.2-.1.5-.7.9-.8 1.5-.3 1.1 1.2 2 1 3.1-.1.8-1 1.2-1.8 1.5-.9.3-2 .4-2.7-.1-.9-.7-1-2.3-2-2.8-.7-.3-1.5.1-2.2.6-.6.5-1.3 1-2 1.1s-1.7-.7-1.4-1.4" style="opacity:.2;fill:#afdbbe"/></g><path id="XMLID_10_" class="st7" d="M142 152.8s15.3-3.5 15.3-10.7c0 0 2.7 10.8 12.4 11.2 0 0-13.6 5.3-14 12.8 0 0-.3-12.7-13.7-13.3z"/><path id="XMLID_2_" class="st7" d="M149.6 153.5s6.9-1.6 6.9-4.8c0 0 1.2 4.9 5.6 5.1 0 0-6.1 2.4-6.3 5.8 0-.1-.2-5.8-6.2-6.1z"/><g id="Calque_5"><path id="XMLID_171_" class="st0" d="m156.1 85.3-3.2-.1c-3.4-.1-6.7.4-10 1.2L128 90.6c-5.6 1-10.4-1.7-11.5-7.8a15 15 0 0 0-1.1-3.6l-.7-1.8c-.3-.7-.5-1.5-.7-2.3l-.5-2.7c-.5-3 .2-5.9 1.8-8.2 2.1-3 5.7-4.6 9.3-4.5h1.6c2.2 0 4.5-.2 6.7-.7l19.1-4.5c5.7-1 11.2 2.6 12.6 8.1.1.6.2 1.1.2 1.7l.2 2.6c.1 1.8.4 3.6.8 5.3l.5 1.9c.9 5.3-2 9.3-6.9 10.9-1 .2-2.2.4-3.3.3z"/><path id="XMLID_170_" class="st8" d="m154.6 84.2-2.9-.1c-3.1-.1-6.1.3-9.1 1.1l-13.5 3.7c-5.1.9-9.5-1.5-10.4-7-.2-1.1-.5-2.2-1-3.3l-.7-1.7c-.3-.7-.5-1.4-.6-2.1l-.4-2.4c-.5-2.7.2-5.4 1.7-7.5 1.9-2.7 5.1-4.2 8.4-4.1h1.5c2 0 4.1-.2 6-.7L151 56c5.2-.9 10.2 2.4 11.5 7.4.1.5.2 1 .2 1.5l.2 2.4c.1 1.6.4 3.2.8 4.8l.4 1.7c.8 4.8-1.9 8.5-6.2 9.9-1.1.4-2.2.5-3.3.5z"/><g id="XMLID_165_" class="st9"><g id="XMLID_167_"><path id="XMLID_169_" class="st10" d="M135.1 63c-4.1.5-8.8.9-11.4 4-2.5 3-2.4 7-1.9 11.4 4 2.5 8.1 5.6 13.2 6 5.1.5 10.1-1.9 14.6-3.4 3.5-1.5 8-2.6 9.8-5.7 1.9-3.1.6-6.9-1.4-10.9-.5-1.1-.6-2.7-1.8-2.8-1.1-.1-2.5 1.9-3.4 1.4-3 0-5.8-2.5-8.8-2.7-3-.2-5.7 1.7-8.7 2.7l-1.3-.8c.1.4 1.1.8 1.1.8z"/></g></g><g id="XMLID_157_" class="st11"><g id="XMLID_159_"><path id="XMLID_160_" class="st12" d="M137.3 64.9c-2.9 1-7.4 1.3-9.7 3.9-2.3 2.6-2 5.8 0 9.4 4.5 1.5 8.6 4.3 13.2 4.2 4.6-.1 8.5-3.1 12.5-6.2 1.4-1.4 4.2-2.3 4.8-4.2.6-2.1-1.2-3.7-2.8-5.2-2.9-2-5.5-4.3-8.7-4.3-3.3 0-6.7 2.5-9.7 2.5l-.9-.7c.2.5 1.3.6 1.3.6z"/></g></g><ellipse id="XMLID_156_" transform="scale(-1) rotate(-71.886 -97.71 209.913)" class="st13" cx="152.2" cy="70.8" rx="1.1" ry="1.2"/><ellipse id="XMLID_155_" transform="rotate(76.196 141.925 67.986)" class="st13" cx="141.9" cy="68" rx="1.1" ry="1.4"/><circle id="XMLID_154_" transform="scale(-1) rotate(-71.886 -102.095 180.463)" class="st13" cx="130.8" cy="74" r=".8"/></g><g id="Calque_5_-_copie"><path id="XMLID_36_" class="st0" d="m168.5 218 3.2-.5c3.4-.5 6.7-1.5 9.9-3l14.3-6.7c5.4-2 10.8-.1 12.9 5.8.4 1.2 1 2.4 1.7 3.5l1.1 1.7c.4.7.8 1.4 1.1 2.2l.9 2.6c1.1 2.9.8 6-.4 8.6-1.6 3.4-4.9 5.6-8.6 6.2l-1.6.3c-2.3.4-4.5 1-6.6 1.9l-18.4 7.9c-5.6 2-11.7-.7-14.1-6-.2-.5-.4-1.1-.5-1.7l-.6-2.6c-.4-1.8-1-3.5-1.8-5.2l-.8-1.8c-1.9-5.2.4-9.7 5-12.2.9-.5 2.1-.8 3.3-1z"/><path id="XMLID_35_" class="st8" d="m170.1 218.9 2.9-.4c3.1-.5 6.1-1.4 9-2.7l13-6.1c4.9-1.8 9.8-.1 11.7 5.3.4 1.1.9 2.2 1.6 3.2l1 1.6c.4.6.7 1.3 1 2l.8 2.4c1 2.7.7 5.5-.4 7.8-1.4 3.1-4.5 5.1-7.8 5.6l-1.5.2c-2.1.3-4.1.9-6 1.7l-16.8 7.2c-5.1 1.8-10.6-.6-12.8-5.4-.2-.5-.4-1-.5-1.5l-.6-2.3c-.4-1.6-.9-3.2-1.6-4.7l-.7-1.7c-1.7-4.7.4-8.8 4.6-11.1 1-.6 2.1-.9 3.1-1.1z"/><g id="XMLID_31_" class="st9"><g id="XMLID_92_"><path id="XMLID_93_" class="st10" d="M193.7 237.1c3-1 6.8-1.4 8.9-3.8 2.2-2.5 1.9-6.3 2.4-9.3 0-1.9 1.4-4.3.5-5.8-1-1.6-3.3-1.1-5.4-1.1-4.1.5-8.7-1.5-13-.9-4.1.5-7.6 3.4-11.5 5.8-3 2-7.2 3.8-8.6 7.2-1.4 3.4.1 6.7 2.6 10.2 4 1 7.9 2.8 12.1 2.3 4.2-.7 8.1-3.7 12-4.6l1.3.6c-.2-.5-1.3-.6-1.3-.6z"/></g></g><g id="XMLID_27_" class="st11"><g id="XMLID_90_"><path id="XMLID_91_" class="st12" d="M190.6 235.1c2.5-1 5.8-1.1 7.6-3.2 1.8-2.1 1.3-5.5 1.8-8 0-1 1.3-2.6.6-3.6-.8-1-2.7-.2-3.7-.2-5.2-.5-11.9-2.2-17-.5-5.6 1.9-8.4 6.6-7.9 13.4 0 4.8 3 6.7 7.7 6.2 4.1-.4 8.4-3.7 11.2-4.2l1.1.6c-.3-.4-1.4-.5-1.4-.5z"/></g></g><ellipse id="XMLID_26_" transform="rotate(-81.668 174.893 231.952)" class="st13" cx="174.9" cy="231.9" rx="1.1" ry="1.2"/><ellipse id="XMLID_25_" transform="scale(-1) rotate(66.416 355.993 -283.73)" class="st13" cx="185.7" cy="233" rx="1.1" ry="1.5"/><circle id="XMLID_24_" transform="rotate(-81.668 195.855 225.04)" class="st13" cx="195.9" cy="225" r=".8"/></g><g id="Calque_5_-_copie_2"><path id="XMLID_134_" class="st0" d="m90.9 128.9-1 2.4c-1.1 2.5-1.8 5.2-2.2 7.9l-1.5 12.4c-1 4.5-4.5 7.3-9.3 6.2-1-.2-2-.3-3.1-.3h-1.6c-.6 0-1.3-.1-1.9-.2l-2.1-.5c-2.4-.5-4.4-2-5.6-3.9-1.6-2.5-1.7-5.6-.5-8.3l.5-1.2c.7-1.7 1.2-3.4 1.5-5.2l2.5-15.7c1-4.6 5.4-7.6 9.9-6.9.5.1.9.2 1.4.3l2 .7c1.4.5 2.8.8 4.2 1l1.6.2c4.2.9 6.3 4.4 6 8.5-.1.8-.4 1.7-.8 2.6z"/><path id="XMLID_133_" class="st8" d="m89.6 129.6-.9 2.1c-1 2.3-1.6 4.7-2 7.1L85.3 150c-.9 4.1-4.1 6.6-8.5 5.6-.9-.2-1.8-.3-2.8-.3h-1.5c-.6 0-1.2-.1-1.8-.2l-1.9-.4c-2.2-.5-4-1.8-5.1-3.6-1.4-2.3-1.5-5.1-.5-7.6l.5-1.1c.6-1.5 1.1-3.1 1.4-4.7l2.3-14.2c.9-4.2 4.9-6.9 9-6.3l1.2.3 1.8.6c1.2.4 2.5.7 3.8.9l1.4.2c3.9.8 5.8 4 5.5 7.7.1 1.1-.2 1.9-.5 2.7z"/><g id="XMLID_129_" class="st9"><g id="XMLID_131_"><path id="XMLID_132_" class="st10" d="M67.9 137.4c-1.5 3-2.8 6.6-1.1 9.6 1.6 3 5 4 8 5 4.1-2.5 8.5-5 10.5-9.4 1.9-4.3.8-9.5-.2-14.4-.5-1.9-.3-5.1-2.1-6.6-1.9-1.6-4.5-.7-6.5.3-2.7 1.1-5.8 2.5-7.2 5.8-1.2 2.9-.3 6.8-1.2 9.6l-1.4.6c.3.2 1.2-.5 1.2-.5z"/></g></g><g id="XMLID_125_" class="st11"><g id="XMLID_127_"><path id="XMLID_128_" class="st12" d="M70 136.2c-.5 3-2.2 5.7-1.2 7.8 1 2.2 3.7 2.5 6.2 4 3.5-1.5 6.7-2.9 8.2-6.2 1.5-3.2.3-7.5.8-10.9 0-1.1 1.3-2.9.4-4.2-.7-1.1-3.1-1-4-1.9-3.8-2.7-6.3-1.7-8.1 1.6-1.6 2.9-1 7.8-2.4 10.1l-1 .5c.4.1 1.1-.8 1.1-.8z"/></g></g><ellipse id="XMLID_124_" transform="rotate(40.527 78.88 127.331)" class="st13" cx="78.9" cy="127.3" rx=".9" ry="1"/><ellipse id="XMLID_123_" transform="rotate(8.604 73.6 134.17)" class="st13" cx="73.6" cy="134.1" rx=".9" ry="1.2"/><circle id="XMLID_121_" transform="rotate(40.527 74.672 144.283)" class="st13" cx="74.7" cy="144.3" r=".6"/></g><g id="Calque_5_-_copie_3"><path id="XMLID_50_" class="st0" d="m112.6 146.3-.4 1.4c-.4 1.5-.5 3-.5 4.6l.3 7c-.1 2.6-1.8 4.5-4.6 4.3-.6 0-1.2 0-1.7.1l-.9.1c-.4.1-.7.1-1.1.1l-1.2-.1c-1.4-.1-2.6-.7-3.5-1.7-1.1-1.2-1.4-3-1.1-4.6l.2-.7c.2-1 .4-2 .4-3l-.1-8.9c.1-2.6 2.3-4.7 4.9-4.8.3 0 .5 0 .8.1l1.2.2c.8.1 1.6.2 2.4.2h.9c2.4.1 3.9 1.9 4.1 4.2.1.4 0 1-.1 1.5z"/><path id="XMLID_49_" class="st8" d="m111.9 146.8-.3 1.3c-.3 1.4-.5 2.8-.4 4.1l.3 6.4c-.1 2.3-1.7 4.1-4.2 3.9-.5 0-1.1 0-1.6.1l-.8.1c-.3.1-.7.1-1 .1l-1.1-.1c-1.3-.1-2.4-.6-3.2-1.5-1-1.1-1.3-2.7-1-4.2l.2-.7c.2-.9.3-1.8.3-2.8l-.1-8.1c.1-2.4 2.1-4.3 4.4-4.3.2 0 .5 0 .7.1l1.1.2c.7.1 1.5.2 2.2.2h.8c2.2.1 3.6 1.7 3.8 3.8.1.5 0 .9-.1 1.4z"/><g id="XMLID_43_" class="st9"><g id="XMLID_80_"><path id="XMLID_82_" class="st10" d="M100.9 152.7c.5 1.5-.8 4.7.1 6.5 1 1.8 2.9 1.5 5.4 0 2.1-1.1 4.6-2.3 4.9-4.9.3-2.2-1.9-4.7-2.4-7-.5-1.5 0-3.8-1.2-4.6-1.3-.8-2.8.7-4.3 1.2-1.1 1.1-2.8 2-3.1 4-.2 1.8 1.3 4.3.4 5.7l-.5.4c.6-.2.7-1.3.7-1.3z"/></g></g><g id="XMLID_39_" class="st11"><g id="XMLID_73_"><path id="XMLID_76_" class="st12" d="M102 152c0 1.4-1.7 3.3-1.1 4.4.6 1.2 2.7.6 4.3.6 2.1.5 3.9.4 4.6-1.6.5-1.7-1.1-4.2-.7-5.6 0-1 1.3-2.7.5-3.8-.7-1.1-2.7-.5-3.7-1-2.1 0-3.8 0-4.5 1.7-.6 1.6 1.1 4.2.6 5.6l-1 .7c.5 0 1-1 1-1z"/></g></g><circle id="XMLID_37_" transform="rotate(31.077 105.742 146.53)" class="st13" cx="105.7" cy="146.5" r=".5"/><ellipse id="XMLID_34_" transform="rotate(-.85 103.413 150.809) scale(1.00001)" class="st13" cx="103.4" cy="150.8" rx=".5" ry=".7"/><ellipse id="XMLID_33_" transform="rotate(31.077 104.972 156.325)" class="st13" cx="105" cy="156.3" rx=".4" ry=".3"/></g><g id="Calque_5_-_copie_4"><path id="XMLID_95_" class="st0" d="m199.7 111.8.5 1.3c.6 1.4 1.3 2.8 2.3 4l4.3 5.6c1.4 2.2 1.1 4.7-1.3 6.2-.5.3-.9.7-1.4 1.1l-.6.6c-.3.3-.5.5-.9.7l-1 .7c-1.2.7-2.5.9-3.8.6-1.6-.4-2.9-1.6-3.5-3.1l-.3-.7c-.4-.9-.9-1.8-1.5-2.7l-5.2-7.3c-1.4-2.2-.8-5.2 1.2-6.7.2-.2.4-.3.7-.4l1.1-.5c.7-.4 1.4-.8 2.1-1.3l.7-.5c2.1-1.3 4.3-.7 5.8 1 .4.4.6.9.8 1.4z"/><path id="XMLID_94_" class="st8" d="m199.5 112.6.5 1.2c.5 1.3 1.2 2.5 2 3.6l3.9 5.1c1.2 2 1 4.3-1.2 5.6-.4.3-.9.6-1.2 1l-.6.6c-.2.2-.5.4-.8.6l-.9.6c-1.1.7-2.3.8-3.4.6-1.5-.3-2.6-1.4-3.2-2.8l-.2-.6c-.3-.9-.8-1.7-1.3-2.4l-4.7-6.6c-1.3-2-.8-4.7 1.1-6.1.2-.1.4-.3.6-.4l1-.5c.7-.3 1.3-.7 1.9-1.2l.7-.5c1.9-1.2 3.9-.7 5.2.9.2.4.4.8.6 1.3z"/><g id="XMLID_86_" class="st9"><g id="XMLID_88_"><path id="XMLID_89_" class="st10" d="M193.6 124.2c1.4.9 2.2 4.3 4 5.2 2 1 3.4 0 4.5-2.7.5-2.1 2.1-4.8 1.1-7.2-.9-2.3-3.8-3.2-5.7-4.6-1-.5-1.6-3-3-3.3-1.4-.3-2.1 1.3-2.6 2.9-1.1 1.6-2.2 3.4-1.4 5.4.7 1.8 3.5 3.3 3.5 5.1l-.2.6c.3-.5-.2-1.4-.2-1.4z"/></g></g><g id="XMLID_78_" class="st11"><g id="XMLID_83_"><path id="XMLID_85_" class="st12" d="M194.9 122.7c.5 1.4.5 3.6 1.8 4 1.6.5 2.8-1 3.3-2.1 1-2.4 2-6.2.4-8.7-1.7-2.6-4.7-2.7-7.7-.2-.6 1.1-1.8 2.2-1.2 3.7.5 1.3 3 1.9 3.4 3.3l-.6 1.3c.5-.2.6-1.3.6-1.3z"/></g></g><circle id="XMLID_75_" transform="rotate(-4.164 194.307 115.925) scale(1.00004)" class="st13" cx="194.3" cy="115.9" r=".5"/><ellipse id="XMLID_74_" transform="rotate(-36.084 194.856 120.728)" class="st13" cx="194.9" cy="120.7" rx=".5" ry=".7"/><ellipse id="XMLID_42_" transform="rotate(-4.164 199.33 124.37) scale(1.00004)" class="st13" cx="199.3" cy="124.4" rx=".4" ry=".3"/></g><g id="Calque_5_-_copie_5"><path id="XMLID_84_" class="st0" d="M166.1 167.5c-.1-.6-.6-3.2-.6-3.9.1-1.5 1.4-2.7 3-2.7l4.7.1h.1c4 .6 11 3.2 12.6 4.8.3.3.7.6 1.1.9l.6.4c.2.2.5.3.7.5l.7.7c.8.8 1.2 1.8 1.2 2.8 0 1.3-.7 2.5-1.8 3.3l-.2.1c-.9.6-1.6 1.3-2.3 2.1l-4.4 5c-1.5 1.5-3.8 1.6-5.3.2-.2-.1-.3-.3-.4-.5l-.4-.5c-.5-.6-1.1-1.2-1.7-1.8l-.3-.3c-1.4-1.4-2.3-1.8-3.8-4.1-1-.9-3.5-7.1-3.5-7.1z"/><path id="XMLID_81_" class="st8" d="M166.6 164.1c-.2-.9.6-1.9 1.5-1.8l4.2.2c2.4.1 11.3 2.8 12.6 4.2.3.3.6.5.9.7l.5.3c.2.1.4.3.6.5l.6.6c.7.7 1 1.6 1 2.4 0 1.1-.6 2.2-1.5 2.8l-.4.3c-.6.4-1.1.9-1.5 1.4l-4 4.6c-1.3 1.3-3.3 1.3-4.6.2l-.4-.4-.5-.6c-.3-.4-.7-.8-1.1-1.2l-.5-.4c-1.2-1.2-4.3-4.9-5.1-6.2-1-1.8-2.1-6.7-2.3-7.6z"/><g id="XMLID_61_" class="st9"><g id="XMLID_58_"><path id="XMLID_59_" class="st10" d="M182.1 174.6c.4-.8 2.7-.9 3-1.7.4-1.1-1.1-1.5-1.7-2.1-2.1-1.5-3.4-5.1-6-6.1-2.4-.9-4.6.3-7.5 1.7 1.5 1.5.4 3.6 1.1 5.9s3.1 3.4 4.6 4.9c1.1.6 2.6 2.2 4.2 1.5 1.3-.5 1.4-3 2.3-4.3l1.3-.3c-.4-.2-1.3.5-1.3.5z"/></g></g><g id="XMLID_53_" class="st11"><g id="XMLID_55_"><path id="XMLID_56_" class="st12" d="M182.1 174.6c1-2.6 1.5-5-.4-6.7-1.7-1.5-5.1-1-7-2-.8 0-1.6-2.1-2.7-2.2-1.4-.1-1.6.9-1 2.1 0 2.1-1.3 4.8-.3 7 .9 1.9 3.7 2.7 5.1 4.6 1.5 1.5 2.8 2.7 4.2 1.8 1.4-.9 1.3-3.9 2.3-4.9l1.1-.2c-.5-.2-1.3.5-1.3.5z"/></g></g><circle id="XMLID_51_" transform="rotate(-35.534 173.576 170.1)" class="st13" cx="173.6" cy="170.1" r=".4"/><path id="XMLID_48_" class="st13" d="M176 172.6c.3.1.4.3.3.5-.1.2-.4.3-.6.2-.3-.1-.4-.3-.3-.5s.3-.3.6-.2z"/><circle id="XMLID_47_" transform="rotate(-35.534 180.125 173.455)" class="st13" cx="180.1" cy="173.5" r=".3"/></g></svg>