<?xml version="1.0" encoding="utf-8"?>
<!-- Generator: Adobe Illustrator 19.0.0, SVG Export Plug-In . SVG Version: 6.00 Build 0)  -->
<svg version="1.0" id="Calque_7" xmlns="http://www.w3.org/2000/svg" xmlns:xlink="http://www.w3.org/1999/xlink" x="0px" y="0px" width="300px" height="260px"
	 viewBox="0 0 300 300" style="enable-background:new 0 0 300 300;" xml:space="preserve">
<style type="text/css">
	.st0{opacity:0.15;}
	.st1{display:none;fill:#FFFFFF;stroke:#000000;stroke-miterlimit:10;}
	.st2{fill:#2A3A1D;}
	.st3{fill:#4CA57D;}
	.st4{fill:#2C7C5B;}
	.st5{opacity:0.2;}
	.st6{opacity:0.2;fill:#AFDBBE;}
	.st7{opacity:0.5;fill:#A2CCAE;}
	.st8{fill:#C9E9F4;}
	.st9{opacity:0.4;}
	.st10{fill:#E4F4FA;}
	.st11{opacity:0.25;}
	.st12{fill:#ECF8FD;}
	.st13{opacity:0.5;fill:#FFFFFF;}
</style>
<path id="XMLID_12_" class="st0" d="M259,170.9c2-11.3,2-22.6,0.4-33.4c-0.2-1.1-1.1-1.9-2.2-1.8l-24.2,1.8l23.4-5.1
	c1.1-0.2,1.9-1.4,1.6-2.5c-3.7-16.4-11.4-31.6-22.1-44.3c-2.8-3.3-7.7-3.7-10.9-0.9l-1,0.8l-17.8,14.9l13.8-15.3l6.2-6.8
	c0.8-0.9,0.7-2.2-0.1-3C212,63,194.6,54.1,174.8,50.6c-1.2-0.2-2.4-0.4-3.6-0.6c-1.1-0.2-2.2,0.6-2.4,1.7l-0.5,2.9l0,0.2
	c-0.2,1.3-2.4,14-3.4,13.8c-0.9-0.2-0.8-13-0.7-14.2l0,0l0.1-3c0-1.1-0.8-2.1-2-2.2c-17.3-0.9-34,2.5-48.9,9.4
	c-3.1,1.5-19.6,17.7-18.6,21l4,13.1l-7-15.3c-0.5-1.1-1.9-1.6-3-0.9c-14.5,8.7-33.2,34.4-42.1,49.2c0,0,0,0,0,0l22.5,1L45,128.2
	c0,0,0,0,0,0c-5.6,9.9-9.6,21-11.7,32.8c-2,11.5-2.1,22.9-0.4,33.8c0,0,0,0,0,0l22.8-7l-22.2,10.4c0,0,0,0,0,0
	c4.8,25.6,19.2,48.5,40,64L93,244l-16.5,20.4c0,0,0,0,0,0c11.9,8.3,25.8,14.2,41,16.8c5.9,1,11.9,1.6,17.7,1.6c0,0,0,0,0,0l0.1-3.7
	c0-1.2-0.4-28,0.5-28.2c1-0.1,3.5,26.6,3.7,27.9l0.5,3.8c0,0,0,0,0,0c23.4-1,45.3-9.8,62.6-24.4c0,0,0,0,0,0l-9.6-11.8l11.2,10.4
	c0,0,0,0,0,0c11.7-10.3,42.4-49.6,48.6-64.5c0.4-0.9,0-2-0.9-2.6l-17.3-10.7l17.8,7.8c1.1,0.5,2.4-0.1,2.8-1.2
	C256.8,180.9,258.1,176,259,170.9z"/>
<path id="XMLID_11_" class="st1" d="M218.4,152.8c0-6.8-1.1-13.4-3.2-19.6c-0.2-0.6-0.9-1-1.5-0.8l-13.9,3.6l13.1-5.4
	c0.6-0.3,0.9-1,0.7-1.6c-3.9-9.2-9.9-17.3-17.4-23.5c-2-1.6-4.9-1.4-6.6,0.5l-0.5,0.6l-8.9,10.6l6.5-10.4l2.9-4.6
	c0.4-0.6,0.2-1.4-0.4-1.7c-9.4-5.9-20.6-9.3-32.5-9.3c-0.7,0-1.5,0-2.2,0c-0.7,0-1.2,0.6-1.2,1.2v1.8v0.1c0,0.8,0.1,8.4-0.6,8.4
	c-0.6,0-1.8-7.5-1.9-8.2l0,0l-0.3-1.8c-0.1-0.7-0.7-1.2-1.4-1.1c-10.2,1.2-19.7,5-27.7,10.6c-1.7,1.2-2.2,3.4-1.3,5.2l3.7,7.3
	l-5.7-8.2c-0.4-0.6-1.3-0.7-1.8-0.2c-7.3,6.4-13.1,14.4-16.8,23.5c-0.2,0.6,0,1.2,0.5,1.5l10.1,6.3L99.8,133c-0.7-0.3-1.5,0-1.7,0.7
	c-2,6-3,12.4-3,19.1c0,6.4,1,12.6,2.8,18.5c0.2,0.7,1.1,1.1,1.8,0.7l11.3-5.8L99.9,174c-0.5,0.3-0.7,0.9-0.4,1.5
	c5.5,13.8,15.7,25.1,28.7,31.9c0.5,0.3,1.2,0.1,1.6-0.4l8.9-11.8l-6.9,12.5c-0.4,0.6-0.1,1.5,0.6,1.7c7.5,3.2,15.8,5.1,24.5,5.1
	c3.2,0,6.3-0.2,9.3-0.7c0.7-0.1,1.1-0.8,1-1.4l-0.2-1c-0.1-0.7-3.2-16.4-2.6-16.5c0.6-0.2,4.8,15.2,5,16l0.3,1.1
	c0.2,0.6,0.8,1,1.5,0.9c12.7-3,23.9-10,32.2-19.6c0.4-0.5,0.4-1.3-0.1-1.8l-5.9-5.1l6.7,4.3c0.5,0.4,1.3,0.2,1.7-0.3
	c5.4-7.1,9.4-15.3,11.3-24.3c0.1-0.6-0.2-1.2-0.8-1.4l-11.2-4.5l11.2,2.7c0.7,0.2,1.4-0.3,1.5-1
	C218.2,158.9,218.4,155.9,218.4,152.8z"/>
<g id="Calque_2">
	<path id="XMLID_23_" class="st2" d="M259,170.9c2-11.3,2-22.6,0.4-33.4c-0.2-1.1-1.1-1.9-2.2-1.8l-24.2,1.8l23.4-5.1
		c1.1-0.2,1.9-1.4,1.6-2.5c-3.7-16.4-11.3-31.5-22-44.1c-2.8-3.3-7.7-3.8-11-1l-1,0.8l-17.8,14.9l13.8-15.3l6.2-6.8
		c0.8-0.9,0.7-2.2-0.1-3C212,63,194.6,54.1,174.8,50.6c-1.2-0.2-2.4-0.4-3.7-0.6c-1.1-0.2-2.1,0.6-2.3,1.7l-0.5,2.9l0,0.2
		c-0.2,1.3-2.4,14-3.4,13.8c-0.9-0.2-0.8-13-0.7-14.2l0,0l0.1-3c0-1.1-0.8-2.1-2-2.2c-17.3-0.9-34,2.5-49,9.4
		c-3.1,1.4-4.6,5-3.7,8.2l4,13.1l-7-15.3c-0.5-1.1-1.9-1.6-3-0.9c-14,8.4-26,20-34.8,34.1c-0.5,0.9-0.4,2,0.4,2.7L84,114l-15.8-10.7
		c-1-0.7-2.4-0.4-3,0.7c-5,9.4-8.7,19.7-10.6,30.8c-1.9,10.7-2.1,21.2-0.7,31.4c0.2,1.3,1.5,2.1,2.7,1.7l20.5-6.3l-20.7,9.7
		c-0.9,0.4-1.4,1.4-1.2,2.3c5,24.4,18.7,46.2,38.2,61.3c0.8,0.6,2,0.6,2.7-0.1l18.3-17l-15.1,18.6c-0.8,1-0.6,2.4,0.5,3.1
		c11.5,7.6,24.7,13,39.1,15.6c5.2,0.9,10.4,1.4,15.6,1.6c1.2,0,2.1-0.9,2.1-2.1l0-1.6c0-1.2-0.4-28,0.5-28.2
		c1-0.1,3.5,26.6,3.7,27.9l0.2,1.9c0.1,1.1,1.1,1.9,2.2,1.8c22-1.3,42.5-9.6,59.1-23c0.9-0.7,1-2.1,0.3-2.9l-8.3-10.2l9.8,9.1
		c0.8,0.7,2,0.8,2.8,0c11.1-10.1,20-22.7,25.9-37c0.4-0.9,0-2-0.8-2.6l-17.3-10.7l17.8,7.8c1.1,0.5,2.4-0.1,2.8-1.2
		C256.8,180.9,258.1,176,259,170.9z"/>
	<path id="XMLID_5_" class="st3" d="M254.5,170.1c1.9-10.8,2-21.6,0.4-31.9c-0.2-1-1.1-1.8-2.1-1.7l-23.1,1.8l22.4-4.9
		c1.1-0.2,1.8-1.3,1.5-2.4c-3.5-15.7-10.8-30.1-21-42.2c-2.7-3.2-7.4-3.6-10.5-1l-0.9,0.8L204,102.8l13.2-14.6l5.9-6.5
		c0.7-0.8,0.7-2.1-0.1-2.8c-13.3-11.9-30-20.4-48.9-23.8c-1.2-0.2-2.3-0.4-3.5-0.6c-1.1-0.1-2,0.6-2.2,1.6l-0.5,2.8l0,0.2
		c-0.2,1.3-2.3,13.4-3.3,13.2c-0.9-0.2-0.8-12.4-0.7-13.6v0l0.1-2.9c0-1.1-0.8-2-1.9-2.1c-16.5-0.9-32.5,2.4-46.9,9
		c-3,1.4-4.4,4.7-3.5,7.9l3.8,12.5l-6.7-14.6c-0.5-1.1-1.8-1.5-2.8-0.9c-13.4,8-24.8,19.2-33.2,32.6c-0.5,0.8-0.4,1.9,0.4,2.5
		l14.2,12.9l-15.1-10.3c-1-0.7-2.3-0.3-2.9,0.7c-4.8,9-8.3,18.9-10.1,29.4c-1.8,10.2-2,20.3-0.7,30c0.2,1.2,1.4,2,2.6,1.6l19.6-6
		l-19.8,9.3c-0.8,0.4-1.3,1.3-1.1,2.2c4.8,23.3,17.9,44.2,36.6,58.6c0.8,0.6,1.9,0.5,2.6-0.1l17.5-16.3l-14.4,17.8
		c-0.7,0.9-0.5,2.3,0.4,2.9c11,7.3,23.6,12.4,37.4,14.9c5,0.9,10,1.4,14.9,1.5c1.1,0,2-0.9,2-2l0-1.6c0-1.2-0.4-26.8,0.5-26.9
		c1-0.1,3.4,25.4,3.5,26.7l0.2,1.8c0.1,1,1.1,1.8,2.1,1.8c21-1.3,40.7-9.2,56.5-22c0.9-0.7,1-2,0.3-2.8l-7.9-9.7l9.4,8.7
		c0.8,0.7,1.9,0.7,2.7,0c10.6-9.7,19.1-21.7,24.8-35.4c0.4-0.9,0-2-0.8-2.5L231.1,178l17,7.5c1.1,0.5,2.3-0.1,2.7-1.2
		C252.4,179.7,253.6,175,254.5,170.1z"/>
	<path id="XMLID_3_" class="st4" d="M250,169.3c1.7-9.8,0.7-19.2-0.7-28.5c-0.1-0.9-1-1.6-1.9-1.5l-24.7,0.4l24-7.3
		c1-0.2,1.6-1.2,1.4-2.2c-3.2-14.1-8.4-26.4-17.6-37.4c-2.4-2.9-6.7-3.3-9.5-0.9l-0.9,0.7l-19.4,13.1l11.5-16.5l5.3-5.9
		c0.7-0.7,0.6-1.9-0.1-2.6c-12-10.8-24.7-18.9-41.8-21.9c-1.1-0.2-2.1-0.4-3.2-0.5c-1-0.1-1.8,0.5-2,1.5l-0.4,2.5l0,0.1
		c-0.2,1.2-5.2,17.7-6.1,17.5c-0.8-0.1-3.1-15.9-3.1-16.9v0l0.1-2.6c0-1-0.7-1.8-1.7-1.9c-14.9-0.8-28.4,0.9-41.4,6.9
		c-2.7,1.2-4,4.3-3.2,7.1l4.9,17.2l-10.5-13.3c-0.4-1-3.3-4.7-4.2-4.1c-12.1,7.2-20.3,15.8-27.9,28c-0.5,0.7-0.4,3.1,0.2,3.7
		L93.5,120l-16.8-9c-0.9-0.6-5-1-5.5-0.1c-4.3,8.1-4.5,16.2-6.2,25.7c-1.6,9.2-3.1,14.6-2,23.5c0.1,1.1,2.6,3.7,6.3,2.2l19.2-4.1
		l-18.5,10.6c-0.8,0.4-1.2,1.2-1,2c4.3,21.1,16.2,39.9,33,53c0.7,0.5,1.7,0.5,2.3-0.1l16.7-14.1l-13.2,19.6
		c-0.7,0.8-0.5,2.1,0.4,2.7c9.9,6.6,19.8,11.3,32.3,13.5c4.5,0.8,7,0.5,11.4,0.6c1,0,1.8-0.8,1.8-1.8l0-1.4c0-1.1,2.4-27.7,3.2-27.8
		c0.9-0.1,3.8,22.8,4,24l0.2,1.6c0.1,0.9,0.9,1.7,1.9,1.6c19-1.1,35.3-4.1,49.6-15.7c0.8-0.6,0.9-1.8,0.3-2.5l-6.5-12.8l12.1,8.4
		c0.7,0.6,1.8,0.7,2.5,0c9.6-8.7,16.3-16.9,21.4-29.3c0.3-0.8,0-1.8-0.7-2.2L224,175.6l21.5,6.3c1,0.4,2.1-0.1,2.4-1.1
		C249.3,176.7,249.2,173.7,250,169.3z"/>
	<path id="XMLID_4_" class="st5" d="M93.1,161.5c-1.8-1.8-2.2-4.8-1.2-7.1c1-2.4-8.8-8.1-5.9-11.2c1.1-1.2,3.4-0.9,4.5-2.2
		c1.6-2,0.5-4.9-0.3-7.4c-0.8-2.6-1.2-5.4-0.3-7.9s3.1-4.8,5.8-5c1.4-0.1,2.8,0.3,4.2,0.4c5.2,0.2,9.7-5.4,8.4-10.4
		c-0.9-3.4-3.7-5.9-5.2-9.1c-1.4-3.2-0.2-8.2,3.3-8.2c1.7,0,3.2,1.3,4.9,1.6c3.6,0.7,18.1,2.8,17.6-0.8c-0.5-3.6-3.5-6.4-6.8-8.1
		c0.3-3.1,4.4-4.3,7.5-3.8c3.1,0.5,6.3,1.8,9.2,0.7c2.8-1.1,4.4-4,6.1-6.4c1.7-2.5,4.6-4.8,7.5-3.9c2.3,0.7,3.5,3.3,4.9,5.3
		c2.9,4.1,8,6.6,13,6.5c0.9,0,1.9-0.1,2.7,0.2c2.2,0.9,2.2,4.1,1.4,6.3c-0.8,2.3-1.9,4.8-0.8,6.9c0.9,1.7,3,2.4,4.9,2.3
		c1.9-0.1,3.7-0.8,5.6-1.3c1.1-0.3,2.3-0.5,3.2,0.1c1.2,0.7,1.5,2.4,1.6,3.9c0.1,3.7-0.2,7.4-1,11c3.7,3.4,14.6,0.9,18.2-2.6
		c2-2,3.7-5.1,6.6-5c2.7,0.1,4.2,3.3,4.6,6s0.2,5.8,2.1,7.8c2.5,2.8,8.1,3,8.4,6.7c0.3,3.9-5.9,4.9-7.6,8.5
		c-1.4,3.2,5.9,10.9,8.4,13.4c2.5,2.5,5.2,6,3.5,9.1c-3.1,5.9-23.9-2.6-27,3.3c-1.6,3,0.8,6.5,3.2,8.8c2.4,2.4,5.2,5.2,4.5,8.5
		c-0.5,2.3-2.5,3.9-4.4,5.2c-1.7-1.5-3.5-3.1-5.8-3.5c-2.2-0.4-5,0.7-5.4,3c-0.3,1.7,0.7,3.3,1.8,4.6c1.9,2.4,4.2,4.6,7,5.6
		c2.9,1,6.4,0.7,8.5-1.6c0.9-1,1.8-2.4,3.1-2.2c0.5,0.1,1,0.4,1.4,0.8c1.8,1.6,3.2,3.9,3.2,6.3s-1.8,4.9-4.3,5.2
		c-2.2,0.2-4.3-1.3-6.5-0.7c-3.8,1-3.9,7.1-7.6,8.4c-3.2,1.2-6.3-2.2-9.8-2.5c-2.9-0.2-5.5,1.9-7,4.4s-1.9,5.5-2.7,8.3
		c-1,3.5-2.6,7-5.4,9.4c-2.8,2.4-6.9,3.4-10.2,1.8c-5.4-2.7-5.9-10.8-10.9-14.2c-0.7-0.5-1.5-0.9-2.4-0.7c-1.2,0.2-2.1,1.3-2.8,2.3
		c-1.9,2.5-4.4,4.8-7.5,5.1c-3.1,0.3-6.2-2-6.5-5.1c-0.1-1.3,0.6-1.1-1.3-2.8c-1.6-1.4-4.2,1-6.2,1.7c-2.4,0.8-5.4,0.3-7.2-1.5
		s-2.2-5-0.8-7.1c1.4-2,4.2-2.7,6-4.4c2.7-2.5,2.9-7.1,0.5-9.8c-2.4-2.7-10.4-5.9-13.1-3.6c-1.8,1.5-3,4-5.3,4.2
		c-1.7,0.2-3.3-1-5-0.8c-3.3,0.4-4.4,5.4-7.7,6.1c-2.4,0.5-4.6-1.6-6.1-3.6c-1.7-2.2-3.3-5-2.5-7.7c1-3.3,5.4-5.2,5.6-8.6
		c0.1-2.3-1.9-4.2-3.9-5.5c-2-1.3,1.1-4.9,0-7c-1.1-2.1,0.1-5.4,2.4-5.3"/>
</g>
<g id="Calque_2_-_copie_2">
	<path id="XMLID_181_" class="st2" d="M221.5,152.8c0-7.2-1.2-14.1-3.4-20.5c-0.2-0.6-0.9-1-1.6-0.8l-14.6,3.8l13.8-5.7
		c0.7-0.3,1-1,0.7-1.7c-4.1-9.7-10.4-18.1-18.3-24.7c-2.1-1.7-5.1-1.5-6.9,0.6l-0.5,0.6l-9.3,11.1l6.8-10.9l3-4.9
		c0.4-0.6,0.2-1.4-0.4-1.8c-9.9-6.2-21.6-9.7-34.1-9.7c-0.8,0-1.5,0-2.3,0c-0.7,0-1.2,0.6-1.2,1.3v1.8v0.1c0,0.9,0.1,8.8-0.6,8.8
		c-0.6,0-1.9-7.9-2-8.7v0l-0.3-1.9c-0.1-0.7-0.7-1.2-1.5-1.1c-10.7,1.3-20.6,5.2-29.1,11.1c-1.7,1.2-2.3,3.6-1.4,5.5l3.9,7.6l-6-8.6
		c-0.4-0.6-1.3-0.8-1.9-0.3c-7.7,6.7-13.8,15.1-17.7,24.7c-0.2,0.6,0,1.3,0.5,1.6l10.6,6.7L97,132c-0.7-0.3-1.5,0-1.8,0.8
		c-2.1,6.3-3.2,13.1-3.2,20.1c0,6.8,1,13.3,3,19.4c0.2,0.8,1.1,1.1,1.8,0.8l11.9-6.1L97,175.1c-0.5,0.3-0.7,1-0.5,1.6
		c5.7,14.4,16.5,26.3,30.1,33.5c0.6,0.3,1.3,0.1,1.7-0.4l9.4-12.4l-7.3,13.1c-0.4,0.7-0.1,1.5,0.6,1.8c7.9,3.4,16.6,5.3,25.7,5.3
		c3.3,0,6.6-0.3,9.8-0.7c0.7-0.1,1.2-0.8,1.1-1.5l-0.2-1c-0.1-0.8-3.3-17.2-2.8-17.4c0.6-0.2,5,16,5.3,16.8l0.3,1.1
		c0.2,0.7,0.9,1.1,1.6,0.9c13.3-3.2,25.1-10.5,33.8-20.5c0.5-0.5,0.4-1.4-0.1-1.8l-6.2-5.3l7,4.5c0.6,0.4,1.3,0.2,1.7-0.3
		c5.7-7.4,9.8-16.1,11.9-25.5c0.1-0.6-0.2-1.3-0.8-1.5l-11.8-4.7l11.8,2.9c0.7,0.2,1.5-0.3,1.6-1.1
		C221.3,159.2,221.5,156.1,221.5,152.8z"/>
	<path id="XMLID_180_" class="st3" d="M218.4,152.8c0-6.8-1.1-13.4-3.2-19.6c-0.2-0.6-0.9-1-1.5-0.8l-13.9,3.6l13.1-5.4
		c0.6-0.3,0.9-1,0.7-1.6c-3.9-9.2-9.9-17.3-17.4-23.5c-2-1.6-4.9-1.4-6.6,0.5l-0.5,0.6l-8.9,10.6l6.5-10.4l2.9-4.6
		c0.4-0.6,0.2-1.4-0.4-1.7c-9.4-5.9-20.6-9.3-32.5-9.3c-0.7,0-1.5,0-2.2,0c-0.7,0-1.2,0.6-1.2,1.2v1.8v0.1c0,0.8,0.1,8.4-0.6,8.4
		c-0.6,0-1.8-7.5-1.9-8.2l0,0l-0.3-1.8c-0.1-0.7-0.7-1.2-1.4-1.1c-10.2,1.2-19.7,5-27.7,10.6c-1.7,1.2-2.2,3.4-1.3,5.2l3.7,7.3
		l-5.7-8.2c-0.4-0.6-1.3-0.7-1.8-0.2c-7.3,6.4-13.1,14.4-16.8,23.5c-0.2,0.6,0,1.2,0.5,1.5l10.1,6.3L99.8,133
		c-0.7-0.3-1.5,0-1.7,0.7c-2,6-3,12.4-3,19.1c0,6.4,1,12.6,2.8,18.5c0.2,0.7,1.1,1.1,1.8,0.7l11.3-5.8L99.9,174
		c-0.5,0.3-0.7,0.9-0.4,1.5c5.5,13.8,15.7,25.1,28.7,31.9c0.5,0.3,1.2,0.1,1.6-0.4l8.9-11.8l-6.9,12.5c-0.4,0.6-0.1,1.5,0.6,1.7
		c7.5,3.2,15.8,5.1,24.5,5.1c3.2,0,6.3-0.2,9.3-0.7c0.7-0.1,1.1-0.8,1-1.4l-0.2-1c-0.1-0.7-3.2-16.4-2.6-16.5c0.6-0.2,4.8,15.2,5,16
		l0.3,1.1c0.2,0.6,0.8,1,1.5,0.9c12.7-3,23.9-10,32.2-19.6c0.4-0.5,0.4-1.3-0.1-1.8l-5.9-5.1l6.7,4.3c0.5,0.4,1.3,0.2,1.7-0.3
		c5.4-7.1,9.4-15.3,11.3-24.3c0.1-0.6-0.2-1.2-0.8-1.4l-11.2-4.5l11.2,2.7c0.7,0.2,1.4-0.3,1.5-1
		C218.2,158.9,218.4,155.9,218.4,152.8z"/>
	<path id="XMLID_179_" class="st4" d="M215.6,152.8c0-6.2-1.7-11.8-3.5-17.4c-0.2-0.6-0.8-0.9-1.3-0.7l-15.1,2.9l13.9-7.1
		c0.6-0.2,0.9-0.9,0.6-1.5c-3.5-8.3-8-15.3-14.8-21c-1.8-1.5-4.4-1.3-5.9,0.5l-0.4,0.5l-10.4,10.1l5.2-11.3l2.6-4.2
		c0.3-0.5,0.2-1.2-0.4-1.6c-8.5-5.3-17.1-8.9-27.9-8.9c-0.7,0-1.3,0-2,0c-0.6,0-1.1,0.5-1.1,1.1v1.6v0.1c0,0.7-1.3,11.4-1.8,11.4
		c-0.5,0-3.6-9.4-3.7-10v0l-0.2-1.6c-0.1-0.6-0.6-1-1.2-1c-9.2,1.1-17.3,3.6-24.6,8.7c-1.5,1-2,3.1-1.2,4.7l4.8,10l-7.9-7
		c-0.4-0.5-2.5-2.5-3-2.1c-6.6,5.7-10.7,11.9-14,20.1c-0.2,0.5,0.1,1.9,0.5,2.2l6.3,3.1l-5.8,1.1c-0.6-0.3-3.2-0.1-3.4,0.6
		c-1.8,5.4-1,10.4-1,16.4c0,5.8-0.3,9.3,1.3,14.6c0.2,0.7,2,2,4.1,0.7l11.3-4.6l-10.2,8.5c-0.4,0.3-0.6,0.9-0.4,1.3
		c4.9,12.4,14.2,22.7,25.9,28.8c0.5,0.3,1.1,0.1,1.4-0.3l8.7-10.5l-5.9,13.4c-0.3,0.6-0.1,1.3,0.5,1.6c6.8,2.9,13.4,4.8,21.2,4.8
		c2.9,0,4.3-0.4,7.1-0.8c0.6-0.1,1-0.7,0.9-1.3l-0.1-0.9c-0.1-0.7-1.5-17.2-1-17.4c0.5-0.2,4.8,13.6,5,14.3l0.3,1
		c0.2,0.6,0.8,0.9,1.3,0.8c11.5-2.7,21.2-6.3,28.7-15c0.4-0.5,0.3-1.2-0.1-1.6l-5.4-7.1l8.3,3.8c0.5,0.3,1.1,0.2,1.5-0.3
		c4.9-6.4,8.1-12.1,9.9-20.2c0.1-0.5-0.2-1.1-0.7-1.3l-12.1-5.7l13.8,1.5c0.6,0.2,1.3-0.3,1.4-0.9
		C215.9,157.4,215.6,155.6,215.6,152.8z"/>
	<path id="XMLID_178_" class="st5" d="M179.4,189.2c-0.5,1.4-2.1,2.4-3.6,2.5c-1.5,0.1-3-0.7-4.1-1.8c-0.7-0.7-1.3-1.6-2.3-1.9
		c-1.5-0.4-5.6-1.4-6.8-0.4c-1.2,1.1-2.6,2-4.3,2.2c-1.6,0.2-3.4-0.5-4.2-1.9c-0.4-0.7-0.5-1.6-0.9-2.4c-1.2-2.9-5.4-3.9-7.8-2
		c-1.6,1.3-2.3,3.5-3.6,5.1c-1.4,1.6-4.4,2.2-5.3,0.3c-0.4-0.9-0.1-2.1-0.4-3.1c-0.5-2.1-3.6-2.8-5.4-1.6c-1.8,1.2-2.6,3.6-2.7,5.8
		c-1.8,0.6-3.4-1.3-4-3.1c-0.5-1.8-0.6-3.9-1.9-5.2c-1.3-1.3-3.3-1.4-5.1-1.7c-1.8-0.3-3.8-1.3-4-3.1c-0.2-1.5,0.9-2.7,1.6-4
		c1.5-2.6,1.6-6,0.2-8.8c-0.2-0.5-0.5-1-0.6-1.5c-0.1-1.4,1.7-2.2,3.1-2.4c1.4-0.1-2.4-5-1.5-6.1c0.7-0.9,0.5-2.3,0-3.3
		c-0.5-1-1.4-1.8-2.1-2.7c-0.4-0.5-0.8-1.1-0.8-1.8c0.1-0.9,0.9-1.4,1.7-1.8c2-1,4.1-1.8,6.3-2.2c0.9-2.9-0.7-6.4-3.6-7.5
		c-1.6-0.6-3.7-0.7-4.4-2.3c-0.6-1.5,0.7-3.1,2.1-4c1.4-0.9,3.1-1.6,3.7-3.1c0.9-2.1,5.1-0.4,7.1-1.5c2.1-1.2,3.7-6.8,6.1-6.9
		c2.1,0,3.3-2.4,4-4.4s2-4.4,4.1-4.2c4,0.2,3.4,8.3,7.4,8.6c2,0.1,3.3-2.1,4-4c0.7-1.9,1.5-4.2,3.5-4.6c1.4-0.3,3.3,9.2,4.5,9.9
		c-0.4,1.3-0.8,2.7-0.5,4c0.3,1.3,1.7,2.5,3,2.2c1-0.3,1.6-1.2,2.1-2.2c0.8-1.6,1.5-3.5,1.3-5.3c-0.2-1.8-1.3-3.7-3-4.2
		c-0.8-0.2-1.8-0.4-2-1.1c-0.1-0.3,0-0.6,0.1-0.9c0.4-1.4,1.3-2.8,2.7-3.4s3.2-0.2,3.9,1c0.7,1.1,0.4,2.7,1.2,3.7
		c1.5,1.8,4.9,0.3,6.5,2c1.5,1.5,0.4,4,1.1,6c0.6,1.6,2.4,2.5,4.2,2.7c1.7,0.1,3.5-0.3,5.2-0.6c2.2-0.3,4.5-0.3,6.5,0.6
		c2,0.9,3.6,2.9,3.6,5.1c-0.1,3.7-4.4,6-5,9.6c-0.1,0.5-0.1,1.1,0.2,1.5c0.4,0.6,1.3,0.8,2,0.9c1.8,0.4,3.7,1.2,4.7,2.8
		c1,1.6,5,3,3.6,4.4c-1.1,1.1-3.7,1.6-4.1,3.1c-0.4,1.2,1,2.2,1.9,3.1c1.1,1.1,1.5,2.8,1,4.3c-0.5,1.5-2.1,2.5-3.7,2.2
		c-1.5-0.3-2.6-1.6-3.9-2.2c-2-0.8-9.3-0.9-10.2,1.1c-0.9,2,0.1,4.6,2.1,5.5c1.3,0.6,2.9,0.6,3.7,1.8c0.5,0.9,3.1,4.4,3.6,5.3
		c1,1.7,4,1,5.3,2.6c0.9,1.2,0.3,2.9-0.4,4.2c-0.8,1.5-1.9,3.1-3.6,3.3c-2.1,0.3-4.2-1.7-6.1-0.8c-1.3,0.6-1.8,2.1-2,3.5
		c-0.2,1.4-0.2,2.9-1.1,4c-0.9,1.1-3,1.3-3.5,0"/>
</g>
<g id="Calque_2_-_copie">
	<path id="XMLID_9_" class="st2" d="M197.2,139.6c-1.5-4.5-3.6-8.6-6.3-12.1c-0.3-0.4-0.8-0.4-1.2-0.2l-8.4,5.3l7.5-6.4
		c0.4-0.3,0.4-0.9,0.1-1.2c-4.5-5.2-10.2-9.2-16.5-11.7c-1.6-0.7-3.5,0.1-4.2,1.8l-0.2,0.5l-3.6,8.8l2-8.2l0.9-3.7
		c0.1-0.5-0.2-0.9-0.6-1c-7.4-1.8-15.5-1.7-23.3,0.9c-0.5,0.2-1,0.3-1.4,0.5c-0.4,0.2-0.7,0.6-0.5,1.1l0.4,1.1l0,0.1
		c0.2,0.5,1.8,5.5,1.4,5.6c-0.4,0.1-2.8-4.5-3-5v0l-0.5-1.1c-0.2-0.4-0.7-0.6-1.1-0.4c-6.4,3-11.8,7.5-15.9,12.9
		c-0.8,1.1-0.7,2.7,0.3,3.7l4,4l-5.5-4.2c-0.4-0.3-1-0.2-1.3,0.2c-3.4,5.7-5.5,12.3-6,19c0,0.4,0.3,0.8,0.7,0.9l8,2l-7.8-0.8
		c-0.5-0.1-1,0.3-1,0.8c0,4.4,0.7,8.8,2.1,13.2c1.4,4.2,3.4,8.1,5.8,11.5c0.3,0.4,0.9,0.5,1.3,0.1l6.2-6.2l-5.6,7.5
		c-0.2,0.3-0.2,0.8,0,1.1c6.5,7.9,15.7,13.1,25.7,14.8c0.4,0.1,0.8-0.2,1-0.6l3.3-9.7l-1.9,9.6c-0.1,0.5,0.3,1,0.8,1
		c5.6,0.5,11.4-0.1,17.1-1.9c2.1-0.7,4.1-1.5,5.9-2.4c0.4-0.2,0.6-0.7,0.4-1.2L176,189c-0.2-0.4-5.6-10.1-5.3-10.3
		c0.4-0.2,6.4,8.9,6.7,9.4l0.4,0.6c0.3,0.4,0.8,0.5,1.2,0.2c7.7-4.7,13.5-11.7,16.9-19.7c0.2-0.4,0-0.9-0.5-1.1l-4.9-2.1l5.3,1.4
		c0.4,0.1,0.9-0.1,1-0.5c2-5.8,2.9-12.1,2.2-18.4c0-0.4-0.4-0.7-0.8-0.8l-8.3-0.5l7.9-0.6c0.5,0,0.9-0.5,0.8-1
		C198.3,143.6,197.9,141.6,197.2,139.6z"/>
	<path id="XMLID_8_" class="st3" d="M194.3,140.5c-1.4-4.2-3.4-7.9-5.8-11.3c-0.2-0.3-0.7-0.4-1.1-0.2l-7.8,4.9l6.9-5.9
		c0.3-0.3,0.4-0.8,0.1-1.1c-4.2-4.8-9.4-8.5-15.3-10.9c-1.5-0.6-3.3,0.1-3.9,1.6l-0.2,0.5l-3.3,8.2l1.9-7.6l0.8-3.4
		c0.1-0.4-0.2-0.9-0.6-1c-6.9-1.7-14.4-1.5-21.6,0.8c-0.4,0.1-0.9,0.3-1.3,0.5c-0.4,0.1-0.6,0.6-0.5,1l0.3,1.1l0,0.1
		c0.2,0.5,1.7,5.1,1.3,5.2c-0.3,0.1-2.6-4.2-2.8-4.6l0,0l-0.5-1c-0.2-0.4-0.7-0.6-1.1-0.4c-6,2.8-11,6.9-14.7,12
		c-0.8,1-0.7,2.5,0.2,3.4l3.7,3.7l-5.1-3.9c-0.4-0.3-0.9-0.2-1.2,0.2c-3.2,5.3-5.1,11.4-5.5,17.7c0,0.4,0.2,0.7,0.6,0.8l7.4,1.8
		l-7.2-0.8c-0.5,0-0.9,0.3-0.9,0.8c0,4.1,0.6,8.2,2,12.2c1.3,3.9,3.1,7.5,5.4,10.7c0.3,0.4,0.9,0.4,1.2,0.1l5.7-5.8l-5.2,7
		c-0.2,0.3-0.2,0.7,0,1c6.1,7.3,14.6,12.1,23.8,13.7c0.4,0.1,0.8-0.2,0.9-0.5l3.1-9l-1.7,9c-0.1,0.5,0.2,0.9,0.7,0.9
		c5.2,0.5,10.6-0.1,15.9-1.8c1.9-0.6,3.8-1.4,5.5-2.3c0.4-0.2,0.5-0.7,0.3-1.1l-0.3-0.6c-0.2-0.4-5.2-9.3-4.9-9.5
		c0.3-0.2,5.9,8.3,6.2,8.7l0.4,0.6c0.2,0.3,0.7,0.4,1.1,0.2c7.1-4.4,12.5-10.8,15.7-18.3c0.2-0.4,0-0.9-0.4-1l-4.6-1.9l4.9,1.3
		c0.4,0.1,0.8-0.1,1-0.5c1.9-5.4,2.7-11.2,2.1-17.1c0-0.4-0.4-0.7-0.7-0.7l-7.7-0.5l7.4-0.6c0.5,0,0.8-0.5,0.7-0.9
		C195.3,144.3,194.9,142.4,194.3,140.5z"/>
	<path id="XMLID_7_" class="st4" d="M192.5,141.1c-1.2-3.8-3.4-6.9-5.6-9.9c-0.2-0.3-0.6-0.4-1-0.2l-8.6,4.8l7-7.1
		c0.3-0.3,0.3-0.7,0.1-1c-3.8-4.4-7.9-7.7-13.2-9.8c-1.4-0.6-3,0.1-3.5,1.5l-0.2,0.4l-4.3,8.2l0.9-7.9l0.8-3.1
		c0.1-0.4-0.1-0.8-0.5-0.9c-6.2-1.5-12.2-2-18.8,0.2c-0.4,0.1-0.8,0.3-1.2,0.4c-0.4,0.1-0.5,0.5-0.4,0.9l0.3,1l0,0.1
		c0.1,0.4,1.5,7.2,1.2,7.3c-0.3,0.1-4.1-5-4.3-5.4l0,0l-0.5-0.9c-0.2-0.4-0.6-0.5-1-0.3c-5.4,2.5-9.8,5.7-13.2,10.2
		c-0.7,0.9-0.6,2.3,0.2,3.1l4.9,5.1l-6.2-2.7c-0.3-0.3-2-1-2.3-0.6c-2.9,4.8-4.2,9.3-4.5,15c0,0.3,0.4,1.2,0.8,1.2l8.8,2.5l-7.6,0
		c-0.4,0-2,0.6-2,1c0,3.7,1.4,6.5,2.6,10.2c1.2,3.5,1.6,5.7,3.7,8.6c0.3,0.4,1.6,0.8,2.6-0.4l6-5.1l-4.5,7.2c-0.2,0.3-0.2,0.6,0,0.9
		c5.5,6.6,13.1,11,21.5,12.4c0.3,0.1,0.7-0.1,0.8-0.5l3.2-8.1l-0.9,9.4c-0.1,0.4,0.2,0.8,0.6,0.9c4.7,0.4,9.1,0.3,13.9-1.3
		c1.7-0.6,2.5-1.1,4.1-1.9c0.4-0.2,0.5-0.6,0.3-1l-0.3-0.5c-0.2-0.4-4.4-10.2-4.1-10.4c0.3-0.2,5.6,7.3,5.9,7.7l0.4,0.5
		c0.2,0.3,0.6,0.4,1,0.2c6.4-4,11.6-8.1,14.5-14.8c0.2-0.4,0-0.8-0.4-0.9l-4.7-3.3l5.8,0.7c0.4,0.1,0.7-0.1,0.9-0.5
		c1.7-4.9,2.5-9,2-14.3c0-0.4-0.3-0.6-0.7-0.6l-8.5-1l8.7-1.8c0.4,0,0.7-0.4,0.7-0.8C193.7,143.8,193.1,142.8,192.5,141.1z"/>
	<path id="XMLID_6_" class="st6" d="M151.6,174.1c-0.8,0.3-1.8,0.1-2.4-0.5s-0.9-1.5-0.9-2.3c0-0.6,0.1-1.2-0.1-1.7
		c-0.4-0.8-1.5-0.8-2.4-0.8c-0.9-0.1-1.8-0.3-2.5-0.8c-0.7-0.6-1.1-1.5-0.9-2.4c0.1-0.5,0.4-0.8,0.6-1.3c0.7-1.6-0.5-3.7-2.2-3.9
		c-1.2-0.1-2.3,0.5-3.5,0.5c-1.2,0.1-2.6-0.9-2.2-2c0.2-0.5,0.8-0.8,1.1-1.3c0.6-1-0.3-2.5-1.4-2.8c-1.2-0.3-2.4,0.3-3.3,1.2
		c-0.9-0.5-0.8-1.9-0.3-2.8c0.5-0.9,1.3-1.8,1.3-2.8c0-1-0.7-1.8-1.3-2.7c-0.6-0.8-1-2-0.3-2.8c0.5-0.6,1.4-0.7,2.2-0.9
		c1.6-0.4,3-1.7,3.6-3.3c0.1-0.3,0.2-0.6,0.4-0.8c0.5-0.6,1.5-0.2,2.1,0.3c0.6,0.5,1.3,1.2,2.1,1.1c0.6-0.1,1.1-0.7,1.3-1.3
		c0.2-0.6,0.2-1.3,0.2-1.9c0-0.4,0.1-0.8,0.4-1c0.4-0.3,0.9-0.2,1.4,0c1.2,0.4,2.3,0.9,3.3,1.6c1.5-0.8,2.3-2.8,1.6-4.3
		c-0.4-0.9-1.1-1.8-0.8-2.6c0.4-0.8,1.5-0.9,2.4-0.7c0.9,0.2,1.8,0.6,2.7,0.3c1.2-0.5,1.9-2.2,3.1-1.8c1.3,0.4,0.8,2.4,1.8,3.4
		c0.8,0.8,2.2,0.4,3.3-0.1c1.1-0.5,2.5-0.9,3.3,0c1.5,1.7-2,4.6-0.5,6.3c0.7,0.8,2.1,0.5,3.1,0c1-0.5,2.2-1,3.2-0.4
		c0.7,0.4,0.9,1.2,1.1,2c-0.7,0.4-1.4,0.7-1.8,1.4s-0.4,1.6,0.3,2c0.5,0.3,1.1,0.2,1.7,0c1-0.3,1.9-0.8,2.6-1.5s1-1.9,0.5-2.8
		c-0.2-0.4-0.6-0.9-0.3-1.2c0.1-0.2,0.2-0.3,0.4-0.3c0.7-0.4,1.6-0.5,2.4-0.2c0.8,0.3,1.3,1.2,1.1,1.9c-0.2,0.7-0.9,1.2-1,1.9
		c-0.1,1.3,1.7,2.1,1.7,3.4c0,1.1-1.5,1.7-1.9,2.8c-0.4,0.9-0.1,2,0.6,2.7c0.6,0.7,1.5,1.3,2.3,1.8c1,0.7,1.9,1.7,2.3,2.8
		c0.4,1.2,0.2,2.6-0.7,3.4c-1.5,1.4-4.1,0.6-5.7,1.7c-0.2,0.2-0.5,0.4-0.5,0.7c-0.1,0.4,0.2,0.8,0.4,1.2c0.6,0.9,1,2,0.7,3
		c-0.3,1-1.4,1.8-2.4,1.4c-0.8-0.3-1.5-1.4-2.2-1c-0.6,0.3-0.5,1.2-0.5,1.9c0,0.9-0.5,1.7-1.3,2.1s-1.8,0.1-2.3-0.6
		c-0.5-0.7-0.4-1.6-0.7-2.4c-0.5-1.1-1.9-1.8-3-1.3c-1.1,0.4-1.8,1.8-1.4,3c0.3,0.7,0.9,1.4,0.7,2.2c-0.1,0.5-0.7,0.9-0.8,1.5
		c-0.3,1.1,1.2,2,1,3.1c-0.1,0.8-1,1.2-1.8,1.5c-0.9,0.3-2,0.4-2.7-0.1c-0.9-0.7-1-2.3-2-2.8c-0.7-0.3-1.5,0.1-2.2,0.6
		c-0.6,0.5-1.3,1-2,1.1s-1.7-0.7-1.4-1.4"/>
</g>
<path id="XMLID_10_" class="st7" d="M142,152.8c0,0,15.3-3.5,15.3-10.7c0,0,2.7,10.8,12.4,11.2c0,0-13.6,5.3-14,12.8
	C155.7,166.1,155.4,153.4,142,152.8z"/>
<path id="XMLID_2_" class="st7" d="M149.6,153.5c0,0,6.9-1.6,6.9-4.8c0,0,1.2,4.9,5.6,5.1c0,0-6.1,2.4-6.3,5.8
	C155.8,159.5,155.6,153.8,149.6,153.5z"/>
<g id="Calque_5">
	<path id="XMLID_171_" class="st0" d="M156.1,85.3l-3.2-0.1c-3.4-0.1-6.7,0.4-10,1.2L128,90.6c-5.6,1-10.4-1.7-11.5-7.8
		c-0.2-1.2-0.6-2.5-1.1-3.6l-0.7-1.8c-0.3-0.7-0.5-1.5-0.7-2.3l-0.5-2.7c-0.5-3,0.2-5.9,1.8-8.2c2.1-3,5.7-4.6,9.3-4.5l1.6,0
		c2.2,0,4.5-0.2,6.7-0.7l19.1-4.5c5.7-1,11.2,2.6,12.6,8.1c0.1,0.6,0.2,1.1,0.2,1.7l0.2,2.6c0.1,1.8,0.4,3.6,0.8,5.3l0.5,1.9
		c0.9,5.3-2,9.3-6.9,10.9C158.4,85.2,157.2,85.4,156.1,85.3z"/>
	<path id="XMLID_170_" class="st8" d="M154.6,84.2l-2.9-0.1c-3.1-0.1-6.1,0.3-9.1,1.1l-13.5,3.7c-5.1,0.9-9.5-1.5-10.4-7
		c-0.2-1.1-0.5-2.2-1-3.3l-0.7-1.7c-0.3-0.7-0.5-1.4-0.6-2.1l-0.4-2.4c-0.5-2.7,0.2-5.4,1.7-7.5c1.9-2.7,5.1-4.2,8.4-4.1l1.5,0
		c2,0,4.1-0.2,6-0.7L151,56c5.2-0.9,10.2,2.4,11.5,7.4c0.1,0.5,0.2,1,0.2,1.5l0.2,2.4c0.1,1.6,0.4,3.2,0.8,4.8l0.4,1.7
		c0.8,4.8-1.9,8.5-6.2,9.9C156.8,84.1,155.7,84.2,154.6,84.2z"/>
	<g id="XMLID_165_" class="st9">
		<g id="XMLID_167_">
			<path id="XMLID_169_" class="st10" d="M135.1,63c-4.1,0.5-8.8,0.9-11.4,4c-2.5,3-2.4,7-1.9,11.4c4,2.5,8.1,5.6,13.2,6
				c5.1,0.5,10.1-1.9,14.6-3.4c3.5-1.5,8-2.6,9.8-5.7c1.9-3.1,0.6-6.9-1.4-10.9c-0.5-1.1-0.6-2.7-1.8-2.8c-1.1-0.1-2.5,1.9-3.4,1.4
				c-3,0-5.8-2.5-8.8-2.7c-3-0.2-5.7,1.7-8.7,2.7l-1.3-0.8C134.1,62.6,135.1,63,135.1,63z"/>
		</g>
	</g>
	<g id="XMLID_157_" class="st11">
		<g id="XMLID_159_">
			<path id="XMLID_160_" class="st12" d="M137.3,64.9c-2.9,1-7.4,1.3-9.7,3.9c-2.3,2.6-2,5.8,0,9.4c4.5,1.5,8.6,4.3,13.2,4.2
				c4.6-0.1,8.5-3.1,12.5-6.2c1.4-1.4,4.2-2.3,4.8-4.2c0.6-2.1-1.2-3.7-2.8-5.2c-2.9-2-5.5-4.3-8.7-4.3c-3.3,0-6.7,2.5-9.7,2.5
				l-0.9-0.7C136.2,64.8,137.3,64.9,137.3,64.9z"/>
		</g>
	</g>
	
		<ellipse id="XMLID_156_" transform="matrix(-0.3109 0.9504 -0.9504 -0.3109 266.8291 -51.7788)" class="st13" cx="152.2" cy="70.8" rx="1.1" ry="1.2"/>
	
		<ellipse id="XMLID_155_" transform="matrix(0.2386 0.9711 -0.9711 0.2386 174.0828 -86.0596)" class="st13" cx="141.9" cy="68" rx="1.1" ry="1.4"/>
	
		<ellipse id="XMLID_154_" transform="matrix(-0.3109 0.9504 -0.9504 -0.3109 241.8621 -27.3189)" class="st13" cx="130.8" cy="74" rx="0.8" ry="0.8"/>
</g>
<g id="Calque_5_-_copie">
	<path id="XMLID_36_" class="st0" d="M168.5,218l3.2-0.5c3.4-0.5,6.7-1.5,9.9-3l14.3-6.7c5.4-2,10.8-0.1,12.9,5.8
		c0.4,1.2,1,2.4,1.7,3.5l1.1,1.7c0.4,0.7,0.8,1.4,1.1,2.2l0.9,2.6c1.1,2.9,0.8,6-0.4,8.6c-1.6,3.4-4.9,5.6-8.6,6.2l-1.6,0.3
		c-2.3,0.4-4.5,1-6.6,1.9l-18.4,7.9c-5.6,2-11.7-0.7-14.1-6c-0.2-0.5-0.4-1.1-0.5-1.7l-0.6-2.6c-0.4-1.8-1-3.5-1.8-5.2l-0.8-1.8
		c-1.9-5.2,0.4-9.7,5-12.2C166.1,218.5,167.3,218.2,168.5,218z"/>
	<path id="XMLID_35_" class="st8" d="M170.1,218.9l2.9-0.4c3.1-0.5,6.1-1.4,9-2.7l13-6.1c4.9-1.8,9.8-0.1,11.7,5.3
		c0.4,1.1,0.9,2.2,1.6,3.2l1,1.6c0.4,0.6,0.7,1.3,1,2l0.8,2.4c1,2.7,0.7,5.5-0.4,7.8c-1.4,3.1-4.5,5.1-7.8,5.6l-1.5,0.2
		c-2.1,0.3-4.1,0.9-6,1.7l-16.8,7.2c-5.1,1.8-10.6-0.6-12.8-5.4c-0.2-0.5-0.4-1-0.5-1.5l-0.6-2.3c-0.4-1.6-0.9-3.2-1.6-4.7l-0.7-1.7
		c-1.7-4.7,0.4-8.8,4.6-11.1C168,219.4,169.1,219.1,170.1,218.9z"/>
	<g id="XMLID_31_" class="st9">
		<g id="XMLID_92_">
			<path id="XMLID_93_" class="st10" d="M193.7,237.1c3-1,6.8-1.4,8.9-3.8c2.2-2.5,1.9-6.3,2.4-9.3c0-1.9,1.4-4.3,0.5-5.8
				c-1-1.6-3.3-1.1-5.4-1.1c-4.1,0.5-8.7-1.5-13-0.9c-4.1,0.5-7.6,3.4-11.5,5.8c-3,2-7.2,3.8-8.6,7.2c-1.4,3.4,0.1,6.7,2.6,10.2
				c4,1,7.9,2.8,12.1,2.3C185.9,241,189.8,238,193.7,237.1l1.3,0.6C194.8,237.2,193.7,237.1,193.7,237.1z"/>
		</g>
	</g>
	<g id="XMLID_27_" class="st11">
		<g id="XMLID_90_">
			<path id="XMLID_91_" class="st12" d="M190.6,235.1c2.5-1,5.8-1.1,7.6-3.2c1.8-2.1,1.3-5.5,1.8-8c0-1,1.3-2.6,0.6-3.6
				c-0.8-1-2.7-0.2-3.7-0.2c-5.2-0.5-11.9-2.2-17-0.5c-5.6,1.9-8.4,6.6-7.9,13.4c0,4.8,3,6.7,7.7,6.2c4.1-0.4,8.4-3.7,11.2-4.2
				l1.1,0.6C191.7,235.2,190.6,235.1,190.6,235.1z"/>
		</g>
	</g>
	
		<ellipse id="XMLID_26_" transform="matrix(0.1449 -0.9894 0.9894 0.1449 -79.9498 371.3708)" class="st13" cx="174.9" cy="231.9" rx="1.1" ry="1.2"/>
	
		<ellipse id="XMLID_25_" transform="matrix(-0.4001 -0.9165 0.9165 -0.4001 46.4698 496.4849)" class="st13" cx="185.7" cy="233" rx="1.1" ry="1.5"/>
	
		<ellipse id="XMLID_24_" transform="matrix(0.1449 -0.9894 0.9894 0.1449 -55.1884 386.2013)" class="st13" cx="195.9" cy="225" rx="0.8" ry="0.8"/>
</g>
<g id="Calque_5_-_copie_2">
	<path id="XMLID_134_" class="st0" d="M90.9,128.9l-1,2.4c-1.1,2.5-1.8,5.2-2.2,7.9l-1.5,12.4c-1,4.5-4.5,7.3-9.3,6.2
		c-1-0.2-2-0.3-3.1-0.3l-1.6,0c-0.6,0-1.3-0.1-1.9-0.2l-2.1-0.5c-2.4-0.5-4.4-2-5.6-3.9c-1.6-2.5-1.7-5.6-0.5-8.3l0.5-1.2
		c0.7-1.7,1.2-3.4,1.5-5.2l2.5-15.7c1-4.6,5.4-7.6,9.9-6.9c0.5,0.1,0.9,0.2,1.4,0.3l2,0.7c1.4,0.5,2.8,0.8,4.2,1l1.6,0.2
		c4.2,0.9,6.3,4.4,6,8.5C91.6,127.1,91.3,128,90.9,128.9z"/>
	<path id="XMLID_133_" class="st8" d="M89.6,129.6l-0.9,2.1c-1,2.3-1.6,4.7-2,7.1l-1.4,11.2c-0.9,4.1-4.1,6.6-8.5,5.6
		c-0.9-0.2-1.8-0.3-2.8-0.3l-1.5,0c-0.6,0-1.2-0.1-1.8-0.2l-1.9-0.4c-2.2-0.5-4-1.8-5.1-3.6c-1.4-2.3-1.5-5.1-0.5-7.6l0.5-1.1
		c0.6-1.5,1.1-3.1,1.4-4.7l2.3-14.2c0.9-4.2,4.9-6.9,9-6.3c0.4,0.1,0.8,0.2,1.2,0.3l1.8,0.6c1.2,0.4,2.5,0.7,3.8,0.9l1.4,0.2
		c3.9,0.8,5.8,4,5.5,7.7C90.2,128,89.9,128.8,89.6,129.6z"/>
	<g id="XMLID_129_" class="st9">
		<g id="XMLID_131_">
			<path id="XMLID_132_" class="st10" d="M67.9,137.4c-1.5,3-2.8,6.6-1.1,9.6c1.6,3,5,4,8,5c4.1-2.5,8.5-5,10.5-9.4
				c1.9-4.3,0.8-9.5-0.2-14.4c-0.5-1.9-0.3-5.1-2.1-6.6c-1.9-1.6-4.5-0.7-6.5,0.3c-2.7,1.1-5.8,2.5-7.2,5.8
				c-1.2,2.9-0.3,6.8-1.2,9.6l-1.4,0.6C67,138.1,67.9,137.4,67.9,137.4z"/>
		</g>
	</g>
	<g id="XMLID_125_" class="st11">
		<g id="XMLID_127_">
			<path id="XMLID_128_" class="st12" d="M70,136.2c-0.5,3-2.2,5.7-1.2,7.8c1,2.2,3.7,2.5,6.2,4c3.5-1.5,6.7-2.9,8.2-6.2
				c1.5-3.2,0.3-7.5,0.8-10.9c0-1.1,1.3-2.9,0.4-4.2c-0.7-1.1-3.1-1-4-1.9c-3.8-2.7-6.3-1.7-8.1,1.6c-1.6,2.9-1,7.8-2.4,10.1l-1,0.5
				C69.3,137.1,70,136.2,70,136.2z"/>
		</g>
	</g>
	
		<ellipse id="XMLID_124_" transform="matrix(0.7601 0.6498 -0.6498 0.7601 101.6632 -20.7093)" class="st13" cx="78.9" cy="127.3" rx="0.9" ry="1"/>
	
		<ellipse id="XMLID_123_" transform="matrix(0.9887 0.1496 -0.1496 0.9887 20.9002 -9.5006)" class="st13" cx="73.6" cy="134.1" rx="0.9" ry="1.2"/>
	
		<ellipse id="XMLID_121_" transform="matrix(0.7601 0.6498 -0.6498 0.7601 111.6685 -13.9082)" class="st13" cx="74.7" cy="144.3" rx="0.6" ry="0.6"/>
</g>
<g id="Calque_5_-_copie_3">
	<path id="XMLID_50_" class="st0" d="M112.6,146.3l-0.4,1.4c-0.4,1.5-0.5,3-0.5,4.6l0.3,7c-0.1,2.6-1.8,4.5-4.6,4.3
		c-0.6,0-1.2,0-1.7,0.1l-0.9,0.1c-0.4,0.1-0.7,0.1-1.1,0.1l-1.2-0.1c-1.4-0.1-2.6-0.7-3.5-1.7c-1.1-1.2-1.4-3-1.1-4.6l0.2-0.7
		c0.2-1,0.4-2,0.4-3l-0.1-8.9c0.1-2.6,2.3-4.7,4.9-4.8c0.3,0,0.5,0,0.8,0.1l1.2,0.2c0.8,0.1,1.6,0.2,2.4,0.2l0.9,0
		c2.4,0.1,3.9,1.9,4.1,4.2C112.8,145.2,112.7,145.8,112.6,146.3z"/>
	<path id="XMLID_49_" class="st8" d="M111.9,146.8l-0.3,1.3c-0.3,1.4-0.5,2.8-0.4,4.1l0.3,6.4c-0.1,2.3-1.7,4.1-4.2,3.9
		c-0.5,0-1.1,0-1.6,0.1l-0.8,0.1c-0.3,0.1-0.7,0.1-1,0.1l-1.1-0.1c-1.3-0.1-2.4-0.6-3.2-1.5c-1-1.1-1.3-2.7-1-4.2l0.2-0.7
		c0.2-0.9,0.3-1.8,0.3-2.8l-0.1-8.1c0.1-2.4,2.1-4.3,4.4-4.3c0.2,0,0.5,0,0.7,0.1l1.1,0.2c0.7,0.1,1.5,0.2,2.2,0.2l0.8,0
		c2.2,0.1,3.6,1.7,3.8,3.8C112.1,145.9,112,146.3,111.9,146.8z"/>
	<g id="XMLID_43_" class="st9">
		<g id="XMLID_80_">
			<path id="XMLID_82_" class="st10" d="M100.9,152.7c0.5,1.5-0.8,4.7,0.1,6.5c1,1.8,2.9,1.5,5.4,0c2.1-1.1,4.6-2.3,4.9-4.9
				c0.3-2.2-1.9-4.7-2.4-7c-0.5-1.5,0-3.8-1.2-4.6c-1.3-0.8-2.8,0.7-4.3,1.2c-1.1,1.1-2.8,2-3.1,4c-0.2,1.8,1.3,4.3,0.4,5.7
				l-0.5,0.4C100.8,153.8,100.9,152.7,100.9,152.7z"/>
		</g>
	</g>
	<g id="XMLID_39_" class="st11">
		<g id="XMLID_73_">
			<path id="XMLID_76_" class="st12" d="M102,152c0,1.4-1.7,3.3-1.1,4.4c0.6,1.2,2.7,0.6,4.3,0.6c2.1,0.5,3.9,0.4,4.6-1.6
				c0.5-1.7-1.1-4.2-0.7-5.6c0-1,1.3-2.7,0.5-3.8c-0.7-1.1-2.7-0.5-3.7-1c-2.1,0-3.8,0-4.5,1.7c-0.6,1.6,1.1,4.2,0.6,5.6L101,153
				C101.5,153,102,152,102,152z"/>
		</g>
	</g>
	
		<ellipse id="XMLID_37_" transform="matrix(0.8565 0.5162 -0.5162 0.8565 90.8157 -33.5531)" class="st13" cx="105.7" cy="146.5" rx="0.5" ry="0.5"/>
	
		<ellipse id="XMLID_34_" transform="matrix(0.9999 -1.470534e-002 1.470534e-002 0.9999 -2.2063 1.5373)" class="st13" cx="103.4" cy="150.8" rx="0.5" ry="0.7"/>
	
		<ellipse id="XMLID_33_" transform="matrix(0.8565 0.5162 -0.5162 0.8565 95.7613 -31.7498)" class="st13" cx="105" cy="156.3" rx="0.4" ry="0.3"/>
</g>
<g id="Calque_5_-_copie_4">
	<path id="XMLID_95_" class="st0" d="M199.7,111.8l0.5,1.3c0.6,1.4,1.3,2.8,2.3,4l4.3,5.6c1.4,2.2,1.1,4.7-1.3,6.2
		c-0.5,0.3-0.9,0.7-1.4,1.1l-0.6,0.6c-0.3,0.3-0.5,0.5-0.9,0.7l-1,0.7c-1.2,0.7-2.5,0.9-3.8,0.6c-1.6-0.4-2.9-1.6-3.5-3.1l-0.3-0.7
		c-0.4-0.9-0.9-1.8-1.5-2.7l-5.2-7.3c-1.4-2.2-0.8-5.2,1.2-6.7c0.2-0.2,0.4-0.3,0.7-0.4l1.1-0.5c0.7-0.4,1.4-0.8,2.1-1.3l0.7-0.5
		c2.1-1.3,4.3-0.7,5.8,1C199.3,110.8,199.5,111.3,199.7,111.8z"/>
	<path id="XMLID_94_" class="st8" d="M199.5,112.6l0.5,1.2c0.5,1.3,1.2,2.5,2,3.6l3.9,5.1c1.2,2,1,4.3-1.2,5.6
		c-0.4,0.3-0.9,0.6-1.2,1l-0.6,0.6c-0.2,0.2-0.5,0.4-0.8,0.6l-0.9,0.6c-1.1,0.7-2.3,0.8-3.4,0.6c-1.5-0.3-2.6-1.4-3.2-2.8l-0.2-0.6
		c-0.3-0.9-0.8-1.7-1.3-2.4l-4.7-6.6c-1.3-2-0.8-4.7,1.1-6.1c0.2-0.1,0.4-0.3,0.6-0.4l1-0.5c0.7-0.3,1.3-0.7,1.9-1.2l0.7-0.5
		c1.9-1.2,3.9-0.7,5.2,0.9C199.1,111.7,199.3,112.1,199.5,112.6z"/>
	<g id="XMLID_86_" class="st9">
		<g id="XMLID_88_">
			<path id="XMLID_89_" class="st10" d="M193.6,124.2c1.4,0.9,2.2,4.3,4,5.2c2,1,3.4,0,4.5-2.7c0.5-2.1,2.1-4.8,1.1-7.2
				c-0.9-2.3-3.8-3.2-5.7-4.6c-1-0.5-1.6-3-3-3.3c-1.4-0.3-2.1,1.3-2.6,2.9c-1.1,1.6-2.2,3.4-1.4,5.4c0.7,1.8,3.5,3.3,3.5,5.1
				l-0.2,0.6C194.1,125.1,193.6,124.2,193.6,124.2z"/>
		</g>
	</g>
	<g id="XMLID_78_" class="st11">
		<g id="XMLID_83_">
			<path id="XMLID_85_" class="st12" d="M194.9,122.7c0.5,1.4,0.5,3.6,1.8,4c1.6,0.5,2.8-1,3.3-2.1c1-2.4,2-6.2,0.4-8.7
				c-1.7-2.6-4.7-2.7-7.7-0.2c-0.6,1.1-1.8,2.2-1.2,3.7C192,120.7,194.5,121.3,194.9,122.7l-0.6,1.3
				C194.8,123.8,194.9,122.7,194.9,122.7z"/>
		</g>
	</g>
	
		<ellipse id="XMLID_75_" transform="matrix(0.9974 -7.262251e-002 7.262251e-002 0.9974 -7.9055 14.4165)" class="st13" cx="194.3" cy="115.9" rx="0.5" ry="0.5"/>
	
		<ellipse id="XMLID_74_" transform="matrix(0.8082 -0.589 0.589 0.8082 -33.725 137.9323)" class="st13" cx="194.9" cy="120.7" rx="0.5" ry="0.7"/>
	
		<ellipse id="XMLID_42_" transform="matrix(0.9974 -7.262251e-002 7.262251e-002 0.9974 -8.5055 14.8036)" class="st13" cx="199.3" cy="124.4" rx="0.4" ry="0.3"/>
</g>
<g id="Calque_5_-_copie_5">
	<path id="XMLID_84_" class="st0" d="M166.1,167.5c-0.1-0.6-0.6-3.2-0.6-3.9c0.1-1.5,1.4-2.7,3-2.7l4.7,0.1c0,0,0.1,0,0.1,0
		c4,0.6,11,3.2,12.6,4.8c0.3,0.3,0.7,0.6,1.1,0.9l0.6,0.4c0.2,0.2,0.5,0.3,0.7,0.5l0.7,0.7c0.8,0.8,1.2,1.8,1.2,2.8
		c0,1.3-0.7,2.5-1.8,3.3l-0.2,0.1c-0.9,0.6-1.6,1.3-2.3,2.1l-4.4,5c-1.5,1.5-3.8,1.6-5.3,0.2c-0.2-0.1-0.3-0.3-0.4-0.5l-0.4-0.5
		c-0.5-0.6-1.1-1.2-1.7-1.8l-0.3-0.3c-1.4-1.4-2.3-1.8-3.8-4.1C168.6,173.7,166.1,167.5,166.1,167.5z"/>
	<path id="XMLID_81_" class="st8" d="M166.6,164.1c-0.2-0.9,0.6-1.9,1.5-1.8l4.2,0.2c2.4,0.1,11.3,2.8,12.6,4.2
		c0.3,0.3,0.6,0.5,0.9,0.7l0.5,0.3c0.2,0.1,0.4,0.3,0.6,0.5l0.6,0.6c0.7,0.7,1,1.6,1,2.4c0,1.1-0.6,2.2-1.5,2.8l-0.4,0.3
		c-0.6,0.4-1.1,0.9-1.5,1.4l-4,4.6c-1.3,1.3-3.3,1.3-4.6,0.2c-0.1-0.1-0.3-0.3-0.4-0.4l-0.5-0.6c-0.3-0.4-0.7-0.8-1.1-1.2l-0.5-0.4
		c-1.2-1.2-4.3-4.9-5.1-6.2C167.9,169.9,166.8,165,166.6,164.1z"/>
	<g id="XMLID_61_" class="st9">
		<g id="XMLID_58_">
			<path id="XMLID_59_" class="st10" d="M182.1,174.6c0.4-0.8,2.7-0.9,3-1.7c0.4-1.1-1.1-1.5-1.7-2.1c-2.1-1.5-3.4-5.1-6-6.1
				c-2.4-0.9-4.6,0.3-7.5,1.7c1.5,1.5,0.4,3.6,1.1,5.9s3.1,3.4,4.6,4.9c1.1,0.6,2.6,2.2,4.2,1.5c1.3-0.5,1.4-3,2.3-4.3l1.3-0.3
				C183,173.9,182.1,174.6,182.1,174.6z"/>
		</g>
	</g>
	<g id="XMLID_53_" class="st11">
		<g id="XMLID_55_">
			<path id="XMLID_56_" class="st12" d="M182.1,174.6c1-2.6,1.5-5-0.4-6.7c-1.7-1.5-5.1-1-7-2c-0.8,0-1.6-2.1-2.7-2.2
				c-1.4-0.1-1.6,0.9-1,2.1c0,2.1-1.3,4.8-0.3,7c0.9,1.9,3.7,2.7,5.1,4.6c1.5,1.5,2.8,2.7,4.2,1.8c1.4-0.9,1.3-3.9,2.3-4.9l1.1-0.2
				C182.9,173.9,182.1,174.6,182.1,174.6z"/>
		</g>
	</g>
	
		<ellipse id="XMLID_51_" transform="matrix(0.8138 -0.5812 0.5812 0.8138 -66.5371 132.5605)" class="st13" cx="173.6" cy="170.1" rx="0.4" ry="0.4"/>
	<path id="XMLID_48_" class="st13" d="M176,172.6c0.3,0.1,0.4,0.3,0.3,0.5c-0.1,0.2-0.4,0.3-0.6,0.2c-0.3-0.1-0.4-0.3-0.3-0.5
		S175.7,172.5,176,172.6z"/>
	
		<ellipse id="XMLID_47_" transform="matrix(0.8138 -0.5812 0.5812 0.8138 -67.2672 136.9918)" class="st13" cx="180.1" cy="173.5" rx="0.3" ry="0.3"/>
</g>
</svg>
