<svg version="1.0" id="圖層_1" xmlns="http://www.w3.org/2000/svg" x="0" y="0" width="300" height="260" style="enable-background:new 0 0 300 260" xml:space="preserve"><style>.st0{opacity:.15}.st1{fill:#2a3a1d}.st2{fill:#5eb446}.st3{opacity:.5;fill:#49873f}.st4{fill:#90cb78}.st5{display:none}.st6{display:inline;fill:#e5df92}</style><g id="Calque_5_-_copie_5"><path id="XMLID_47_" class="st0" d="M234.6 133.7c0 9.5-5.2 17.6-8.2 26-4.4 12.4-20.9 36.5-30.5 45.2-7.4 6.7-18.2 9.7-27.6 13.3-8.9 3.4-16.3 7.6-26.4 7.6-10 0-19.7-1.9-28.5-5.2-6.9-2.6-18.7-12.9-24.5-17.2-10.2-7.6-12.7-21.3-18.4-32.8-5.2-10.6-13.9-18.8-13.9-31.4 0-12.5 2.9-24.4 8-34.9C70.2 92.7 81.8 83.6 92.1 76c13.3-9.9 44.6-22.2 62.5-22.2 7.6 0 13.9 4.3 20.9 6.3 7.5 2.2 15.8 2.1 22.2 6.3 11.5 7.4 14.9 19 21.4 31.1 5.9 11.1 15.5 22.6 15.5 36.2z"/><path id="XMLID_46_" class="st1" d="M237 133.7c0 9.7-5.4 18.1-8.5 26.8-4.6 12.8-8.5 25.1-18.3 34-7.6 6.9-18.7 10-28.5 13.7-9.1 3.5-16.8 7.9-27.1 7.9s-20.2-1.9-29.4-5.4a81.2 81.2 0 0 1-19.8-10.9C94.9 192 92.3 177.9 86.5 166c-5.3-10.9-14.3-19.4-14.3-32.3 0-12.9 3-25.1 8.3-36 5.8-11.9 17.8-21.3 28.3-29.2 13.7-10.2 27.4-17.2 45.8-17.2 7.9 0 14.3 4.4 21.5 6.5 7.8 2.2 16.3 2.2 22.9 6.5 11.9 7.6 15.4 19.6 22 32.1 6.2 11.5 16 23.3 16 37.3z"/><path id="XMLID_45_" class="st2" d="M231.2 133.7c0 9.1-5 16.8-7.9 24.9-4.2 11.9-7.9 23.3-17 31.6-7 6.5-17.4 9.3-26.5 12.8-8.5 3.2-15.6 7.3-25.2 7.3s-18.8-1.8-27.3-5c-6.6-2.5-12.8-6-18.4-10.1-9.8-7.3-12.2-20.4-17.6-31.4-5-10.1-13.3-18-13.3-30.1 0-12 2.8-23.4 7.7-33.5C91 89.1 102.1 80.4 112 73.1c12.8-9.5 25.5-16 42.6-16 7.3 0 13.3 4.1 20 6 7.2 2.1 15.1 2.1 21.3 6 11 7.1 14.3 18.2 20.5 29.8 5.7 10.8 14.8 21.8 14.8 34.8z"/><path id="XMLID_42_" class="st3" d="M216.3 98.9c-6.2-11.6-9.4-22.7-20.5-29.8-6.2-4-14.1-3.9-21.3-6-6.7-1.9-12.7-6-20-6-17.1 0-29.9 6.5-42.6 16-9.8 7.3-20.9 16-26.3 27.1-4.9 10.1-7.7 21.5-7.7 33.5 0 12.1 8.4 19.9 13.3 30.1 5.4 11 7.8 24.1 17.6 31.4 5.6 4.2 11.8 7.6 18.4 10.1 8.5 3.2 17.7 5 27.3 5 9.6 0 16.8-4.1 25.2-7.3 9.1-3.5 19.4-6.3 26.5-12.8 9.1-8.3 12.8-19.8 17-31.6 2.9-8.1 7.9-15.8 7.9-24.9.1-13-9-24-14.8-34.8zm3.4 36.8c-.4 1.6-2 2.7-3.6 2.7-.8 0-1.7-.1-2.4.3-1.8 1.3.9 4 .5 6.2-1.1.7-2.6 1.1-3.9.9-.5-1.9-2.7-3-4.5-2.4-1.8.7-2.7 3-1.9 4.8 1.2-.6 2.8-.2 3.5.8.8 1.1.6 2.7-.4 3.6-.7.6-1.6.9-2.2 1.6-1.4 1.6.9 4.6 2.8 3.6 1.4 2.7-1.5 5.6-4.1 7.3 3.3.4 4.2 5.8 1.2 7.3-1.8.9-4.9 1.1-4.7 3.1 2.5.2 3.6 4.2 1.5 5.6-.7.5-1.6.6-2.5.8-4.6.6-9.3.9-13.9.6-.9 1.4-.2 3.5 1.2 4.2-2.1 2-6.3-.6-5.4-3.3-1.3-.3-2.6-.6-3.9-.3-1.3.3-2.4 1.4-2.3 2.7.1 1.7 2.3 3.3 1.4 4.7-.7 1.1-2.7.7-3.6 1.7-1.1 1.3.5 3.3.1 5-.4 1.8-2.9 2.1-4.6 1.6-1.7-.6-3.3-1.8-5.1-1.7-1.8 0-3.6 2.4-2.2 3.6 0 2.3-3.5 2.7-5.5 1.6-2-1.2-3.8-3.1-6.1-3-2.4.1-4.4 2.6-6.7 2-2.4-.6-3-3.9-5-5.4-1.5-1.1-3.7-1-5.5-1.6-1.8-.6-3.5-2.9-2.2-4.3.9-1 2.6-.8 3.7-1.6 1.1-.9 1-2.6.7-4.1-.3-1.6-.8-3.4-2.1-4.4-1.3-1-3.7-.8-4.1.8-.3.9.1 1.9-.2 2.8-.7 1.7-3.3 1-4.8 0-1.5-1.1-3.6-2.3-4.9-1-.4.4-.7 1-1 1.5-1.2 1.5-3.5 1.5-5.2.8-1.8-.7-3.4-1.8-5.3-2.1-1.9-.3-1.9-1.1-3.2-1.1-2.2-.7-2.5.8-3.2-2.8-.3-1.5-1.5-2.7-1.8-4.2-.8-4.3 6-8 3.9-11.9-.9-1.7-3.2-2.3-4-4-1.5-3 2.2-7 .1-9.5-1.1-1.3-3.3-1.3-4.4-2.6-.7-.8-.8-2-1.1-3-1.4-3.9-7.1-6.2-6.1-10.2.7-2.7 4.2-3.8 5.1-6.4.9-2.6-1.1-5.8.5-8 1.6-2.3 5.8-2.1 6.4-4.8.3-1.4-.7-2.7-1.5-3.9-.8-1.2-1.2-3-.1-4 .5-.4 1.1-.5 1.7-.6 2.8-.3 6.4-.6 7-3.3.6-2.5-1.7-6 .6-7.1.7-.3 1.6-.2 2.2-.7 1-.9.1-2.6-.9-3.4-1-.9-2.3-2.1-1.8-3.3.3-.7 1.2-1.1 1.9-1.4 1.7-.6 3.7-1.2 5.3-.5 2.4 1.1 4 4.9 6.5 3.9 1.6-.7 1.7-2.9 2.9-4.1 2.9-2.9 8.8 2 11.5-1.1 1.6-1.9.4-5.5 2.5-6.8 1.5 1.8 4.5 2.1 6.4.7 1.9-1.4 2.3-4.4.9-6.4 2.7-.1 5.2-2 6.1-4.5 2.4-1.5 5.5.5 7.4 2.7 1.9 2.1 3.7 4.8 6.6 5.1 2 .2 3.9-.8 5.8-.8 2 0 4.1 2.3 2.8 3.8-.5.6-1.4.8-2 1.3-1.3 1-1.1 3.2.2 4.1 2.1 1.3 4.9-.8 7.1.2 1.6.7 2.2 2.6 2.5 4.3 2.2 1.8 4.6-2.6 7.5-2.6 1.2 0 2.3.9 3.4.7 1-.1 1.7-.9 2.5-1.4 1.9-1.2 4.4-1.1 6.2.1 1.8 1.2 2.8 3.6 2.3 5.8-.4 1.8-1.6 3.8-.8 5.4.7 1.3 2.4 1.7 3.8 2.2 1.4.6 2.8 2.1 2.1 3.4-.5.9-1.8 1.1-2.4 2-.8 1.2.1 2.9 1.4 3.6 1.2.7 2.8 1 3.9 1.9 1.1.9 1.6 2.9.4 3.7-1.8.3-3.6.7-4.9 1.9-1.3 1.3-1.5 3.7 0 4.7 1.9 1.2 5.5-.5 6.3 1.6.5 1.5-1.2 2.7-2.7 3.3 2.5 2 6 2.6 9 1.8.9 1.9.4 4.3-1.2 5.8 2-.1 3 1.8 2.6 3.4z"/><path id="XMLID_41_" class="st4" d="M158.9 189.5c-1.6 1.8-5.3 0-6.7-2-1.4-1.9-1.8-4.5-2.9-6.6-.6-1.2-1.5-2.4-1.8-3.7-.8-2.7.4-5.6-.3-8.2-.5-2-2.1-3.8-2.1-5.8 0-1.9 1.4-3.6 1.3-5.5-.1-1.6-1.5-3.1-3.1-3.3s-3.3 1-3.8 2.5c-.2.8-.2 1.7-.6 2.4-1.1 1.7-3.9 1-5.3 2.5-1.6 1.7-.1 4.8-1.5 6.5-1.6 1.9-4.9.5-6.9 1.8-.7.5-1.2 1.2-1.8 1.8-1.6 1.5-4.2 1.8-6.1.7-1.9-1.1-2.8-3.6-2.2-5.7.3-1 .9-2 .9-3-.1-2.1-3-3.9-1.9-5.7.5-.8 1.5-1 2.4-1.3 4-1.3 6.9-5.2 7.2-9.3 2.8.3 5.6-3.1 3.9-5.3-2.2-2.8-7.1.2-10.1-1.7-.8-.5-1.3-1.3-2.1-1.8-1.5-1-3.6-.5-5.2.3-1.6.9-3 2.1-4.8 2.7-2.9 1-6.3-.1-8.1-2.5-.7-1-1.2-2.3-.6-3.4.3-.6 1-1 1.4-1.5 1.2-1.3 1.5-3.3.8-4.8 2-2.8 6.8-.9 9.6-2.9.7-.5 1.3-1.3 2.1-1.8 2.9-1.5 6.5 2.4 9.5.9 1.2-.6 1.8-1.9 2.9-2.7 2.2-1.5 5.1-.2 7.3 1.1.6-2 .9-4.6-.9-5.6-1.1-.7-2.5-.3-3.8-.2s-2.9-.2-3.3-1.4c-.5-1.5 1.2-3.2.6-4.6-.5-1.2-2.2-1.4-3.3-2.1-1.3-.9-1.6-2.7-1.5-4.2s.8-3 1-4.6c.2-1.1.2-2.3.9-3.2 1.2-1.6 3.8-1 5.4.1s3 2.8 5 3.2c2.9.6 6.7-1.6 8.4.9.5.7.6 1.7.8 2.5.4 1.6 1.3 3.2 2.9 3.7s3.6-.3 3.9-1.9c.4-1.9-1.7-3.7-1.2-5.6.5-1.7 2.7-2.3 3.3-4 .9-2.7-3.1-6.1-1-8 .5-.5 1.3-.6 1.6-1.2.9-1.6-2.4-3.2-1.7-5 .2-.4.6-.7 1-1 2.8-1.5 6.6-.5 8.4 2.1 1.1 1.7 1.5 3.8 2.9 5.3 1.6 1.7 4.4 2.4 4.8 4.7.5 2.8-3.6 5.1-2.8 7.9.6 1.9 3.2 2.4 5.2 1.9s3.9-1.5 5.9-1c-.7-1.6 1.7-2.6 3.5-2.5s4.1-.1 4.2-1.8c2.1-1.5 5.1.5 6.3 2.8 1.1 2.4 1.4 5.2 3.2 7.2.5 1.1-.7 2.2-1.9 2.6-1.1.4-2.5 1-2.6 2.2-.1 1.4 1.9 2.3 1.8 3.8-.1 1.9-3.3 1.9-4.4 3.4-.9 1.4.2 3.3 1.7 4s3.2.5 4.9.6c1.7.1 3.5.6 4.3 2.1.3.5.4 1.1.8 1.5.6.6 1.5.6 2.3.5 2.2-.1 4.3-.2 6.5-.3 1.3-.1 2.7-.1 3.9.5 1.2.6 2.1 2 1.6 3.3-.9 2.2-5 1.9-5.3 4.3-.1 1.3 1.2 2.3 1.5 3.6.2 1.3-.7 2.6-1.9 3-1.2.5-2.6.2-3.8-.2-.9-.3-1.7-.8-2.6-.9-.9-.1-2 .4-2.1 1.4-.1.8.5 1.7 0 2.3-.3.4-.8.4-1.3.5-1.3.1-2.7.1-3.9-.3-1.2-.4-2.3-1.2-3.4-1.7s-2.5-.8-3.7-.2c-1.1.6-1.5 2.4-.5 3.1-2.4-.7-5.8-.8-6.6 1.5-.8 2.5 2.4 4.3 5 4.4 2.6.1 5.7-.2 7.3 1.8.9 1.2 1.2 3 2.5 3.8 2.1 1.2 5-1.1 7 .3 1.3.9 1.2 3.1 0 4.3-1.1 1.2-2.8 1.7-4.4 2 .8 1.9 1.5 4.6-.2 5.8-1.2.9-2.9.4-4.4.1-1.5-.2-3.4.1-3.8 1.6-2.1 1-4.2-1.1-5.3-3.1-1.1-2-2.1-4.5-4.3-5-.8-.2-1.7 0-2.5-.3-2.3-.8-2.4-4.3-4.3-5.8-1.2-1-3.1-.9-4.3.1-1.2 1-1.4 2.9-.6 4.2.9 1.5 3.1 2.5 2.7 4.2-.3 1.8-3.1 2-4.1 3.5-1.6 2.5 2.3 5.6 1.3 8.3-.2.5-.6 1-.6 1.6 0 .6.5 1.2.9 1.7 1 1.4 1.1 3.5.1 5-.8 1.2-2.7 2.1-4.4 1.8"/><g id="Calque_2_-_copie_5"><g id="Calque_4_-_copie_5"><path id="XMLID_132_" class="st1" d="m158.6 123.1-1.6-22.4-2.5-34.4v-2.1l-.1 1-.1-.8v1.7l-2.5 34.4-1.6 22.4c-.5 6.9-.5 13.8 0 20.7l1.7 24.4 2.3 32.9v2.1l.1-1.1.1.8V201l2.3-32.9 1.7-24.4c.7-6.8.7-13.7.2-20.6z"/><path id="XMLID_124_" class="st1" d="m164.8 129.1 14.7-16.9L202.1 86l1.5-1.5-.8.7.6-.6-1.2 1.2-26.1 22.6-16.9 14.7c-5.2 4.5-10.1 9.4-14.7 14.7l-16 18.5-21.6 24.9-1.5 1.5.8-.7-.6.6 1.2-1.2 24.9-21.6 18.5-16c5.2-4.6 10.1-9.5 14.6-14.7z"/><path id="XMLID_123_" class="st1" d="m150 123.2-17-14.7-26.1-22.6-1.5-1.5.7.8-.6-.6 1.2 1.2 22.6 26.1 14.7 16.9c4.5 5.2 9.4 10.1 14.7 14.7l18.5 16 24.9 21.6 1.5 1.5-.7-.8.6.6-1.2-1.2-21.6-24.9-16-18.5c-4.6-5.1-9.5-10.1-14.7-14.6z"/><path id="XMLID_122_" class="st1" d="m144 129.4-22.4 1.6-34.4 2.5h-2.1l1 .1-.8.1H87l34.4 2.5 22.4 1.6c6.9.5 13.8.5 20.7 0l24.4-1.7 32.9-2.3h2.1l-1.1-.1.8-.1H222l-32.9-2.3-24.4-1.7c-6.9-.7-13.9-.7-20.7-.2z"/></g></g><g id="XMLID_33_"><path id="XMLID_48_" d="M184.9 133.2c0 5-6.9 8.1-9.2 12.1-2.4 4.1-1.7 11.7-5.9 14.1-4 2.3-10.2-2-15.1-2-5 0-11.1 4.3-15.1 2-4.1-2.4-3.5-9.9-5.9-14.1-2.3-4-9.2-7.1-9.2-12.1s6.9-8.1 9.2-12.1c2.4-4.1 1.7-11.7 5.9-14.1 4-2.3 10.2 2 15.1 2 5 0 11.1-4.3 15.1-2 4.1 2.4 3.5 9.9 5.9 14.1 2.2 4 9.2 7.1 9.2 12.1z" style="fill:#6c295e"/></g><g id="XMLID_8_"><path id="XMLID_49_" d="M181 133.2c0 4.3-6.7 6.8-8.7 10.2-2.1 3.5-.9 10.6-4.5 12.7-3.4 2-8.9-2.5-13.2-2.5-4.3 0-9.8 4.5-13.2 2.5-3.5-2.1-2.4-9.1-4.5-12.7-2-3.4-8.7-5.9-8.7-10.2 0-4.3 6.7-6.8 8.7-10.2 2.1-3.5.9-10.6 4.5-12.7 3.4-2 8.9 2.5 13.2 2.5 4.3 0 9.8-4.5 13.2-2.5 3.5 2.1 2.4 9.1 4.5 12.7 2 3.4 8.7 5.9 8.7 10.2z" style="fill:#d380b5"/></g><g id="XMLID_5_" style="opacity:.5"><path id="XMLID_50_" d="M177.6 133.2c0 3.1-12 3-13.5 5.5-1.5 2.6 4.6 12.9 2 14.4-2.5 1.4-8.4-8.9-11.5-8.9-3.1 0-9 10.4-11.5 8.9-2.6-1.5 3.5-11.8 2-14.4-1.4-2.5-13.5-2.4-13.5-5.5s12-3 13.5-5.5c1.5-2.6-4.6-12.9-2-14.4 2.5-1.4 8.4 8.9 11.5 8.9 3.1 0 9-10.4 11.5-8.9 2.6 1.5-3.5 11.8-2 14.4 1.5 2.5 13.5 2.4 13.5 5.5z" style="fill:#d1b4cb"/></g><g id="XMLID_2_" style="opacity:.75"><path id="XMLID_38_" d="M170.8 133.2c0 1.8-11.7.6-12.5 2-.9 1.5 6 11 4.5 11.9-1.5.9-6.2-9.8-8.1-9.8-1.8 0-6.6 10.7-8.1 9.8-1.5-.9 5.4-10.4 4.5-11.9-.9-1.5-12.5-.2-12.5-2s11.7-.6 12.5-2c.9-1.5-6-11-4.5-11.9 1.5-.9 6.2 9.8 8.1 9.8 1.8 0 6.6-10.7 8.1-9.8 1.5.9-5.4 10.4-4.5 11.9.8 1.4 12.5.1 12.5 2z" style="fill:#fff"/></g></g><g id="Calque_5_-_copie_3"><path id="XMLID_27_" class="st0" d="M228 36.8c0 2.4-1.3 4.5-2.1 6.7-1.1 3.2-5.4 9.4-7.9 11.7-1.9 1.7-4.7 2.5-7.2 3.5-2.3.9-4.2 2-6.8 2-2.6 0-5.1-.5-7.4-1.4-1.8-.7-4.8-3.3-6.4-4.5-2.6-2-3.3-5.5-4.7-8.5-1.3-2.7-3.6-4.9-3.6-8.1 0-3.2.7-6.3 2.1-9 1.5-3 4.5-5.4 7.1-7.3 3.4-2.6 11.5-5.8 16.2-5.8 2 0 3.6 1.1 5.4 1.6 1.9.6 4.1.6 5.8 1.6 3 1.9 3.9 4.9 5.5 8.1 1.5 2.9 4 5.9 4 9.4z"/><path id="XMLID_23_" class="st1" d="M229.3 36.8c0 2.6-1.4 4.8-2.3 7.2-1.2 3.4-2.3 6.7-4.9 9.1-2 1.9-5 2.7-7.6 3.7-2.4.9-4.5 2.1-7.3 2.1s-5.4-.5-7.9-1.4c-1.9-.7-3.7-1.7-5.3-2.9-2.8-2.1-3.5-5.9-5.1-9-1.4-2.9-3.8-5.2-3.8-8.7 0-3.5.8-6.7 2.2-9.6 1.6-3.2 4.8-5.7 7.6-7.8 3.7-2.7 7.3-4.6 12.3-4.6 2.1 0 3.8 1.2 5.8 1.7 2.1.6 4.3.6 6.1 1.7 3.2 2 4.1 5.2 5.9 8.6 1.7 3 4.3 6.1 4.3 9.9z"/><path id="XMLID_21_" class="st2" d="M227.1 36.8c0 2.3-1.3 4.4-2 6.4-1.1 3.1-2.1 6-4.4 8.2-1.8 1.7-4.5 2.4-6.9 3.3-2.2.8-4 1.9-6.5 1.9s-4.9-.5-7.1-1.3c-1.7-.7-3.3-1.5-4.8-2.6-2.5-1.9-3.2-5.3-4.5-8.1-1.3-2.6-3.4-4.7-3.4-7.8 0-3.1.7-6 2-8.7 1.4-2.9 4.3-5.1 6.8-7 3.3-2.5 6.6-4.1 11-4.1 1.9 0 3.4 1.1 5.2 1.6 1.9.5 3.9.5 5.5 1.6 2.9 1.8 3.7 4.7 5.3 7.7 1.5 2.7 3.8 5.5 3.8 8.9z"/><path id="XMLID_17_" class="st3" d="M223.3 27.8c-1.6-3-2.4-5.9-5.3-7.7-1.6-1-3.6-1-5.5-1.6-1.7-.5-3.3-1.6-5.2-1.6-4.4 0-7.7 1.7-11 4.1-2.5 1.9-5.4 4.2-6.8 7-1.3 2.6-2 5.6-2 8.7 0 3.1 2.2 5.2 3.4 7.8 1.4 2.9 2 6.2 4.5 8.1 1.4 1.1 3.1 2 4.8 2.6 2.2.8 4.6 1.3 7.1 1.3s4.3-1.1 6.5-1.9c2.4-.9 5-1.6 6.9-3.3 2.4-2.2 3.3-5.1 4.4-8.2.7-2.1 2-4.1 2-6.4 0-3.3-2.3-6.1-3.8-8.9zm.8 9.5c-.1.4-.5.7-.9.7-.2 0-.4 0-.6.1-.5.3.2 1 .1 1.6-.3.2-.7.3-1 .2-.1-.5-.7-.8-1.2-.6-.5.2-.7.8-.5 1.2.3-.2.7-.1.9.2.2.3.2.7-.1.9-.2.2-.4.2-.6.4-.4.4.2 1.2.7.9.4.7-.4 1.5-1.1 1.9.8.1 1.1 1.5.3 1.9-.5.2-1.3.3-1.2.8.7 0 .9 1.1.4 1.4-.2.1-.4.2-.6.2-1.2.2-2.4.2-3.6.2-.2.4-.1.9.3 1.1-.5.5-1.6-.2-1.4-.9-.3-.1-.7-.2-1-.1s-.6.4-.6.7c0 .4.6.8.4 1.2-.2.3-.7.2-.9.4-.3.3.1.9 0 1.3-.1.5-.7.6-1.2.4-.4-.2-.9-.5-1.3-.4-.5 0-.9.6-.6.9 0 .6-.9.7-1.4.4-.5-.3-1-.8-1.6-.8-.6 0-1.1.7-1.7.5-.6-.2-.8-1-1.3-1.4-.4-.3-.9-.3-1.4-.4-.5-.2-.9-.7-.6-1.1.2-.3.7-.2 1-.4.3-.2.3-.7.2-1.1-.1-.4-.2-.9-.5-1.1-.3-.3-.9-.2-1.1.2-.1.2 0 .5-.1.7-.2.4-.8.3-1.2 0-.4-.3-.9-.6-1.3-.3-.1.1-.2.3-.3.4-.3.4-.9.4-1.4.2-.5-.2-.9-.5-1.4-.6-.5-.1-.5-.3-.8-.3-.6-.2-.6.2-.8-.7-.1-.4-.4-.7-.5-1.1-.2-1.1 1.5-2.1 1-3.1-.2-.4-.8-.6-1-1-.4-.8.6-1.8 0-2.5-.3-.3-.8-.3-1.1-.7-.2-.2-.2-.5-.3-.8-.4-1-1.8-1.6-1.6-2.6.2-.7 1.1-1 1.3-1.7.2-.7-.3-1.5.1-2.1.4-.6 1.5-.5 1.6-1.2.1-.4-.2-.7-.4-1-.2-.3-.3-.8 0-1 .1-.1.3-.1.4-.1.7-.1 1.6-.2 1.8-.9.2-.6-.4-1.6.1-1.8.2-.1.4 0 .6-.2.3-.2 0-.7-.2-.9-.3-.2-.6-.5-.5-.9.1-.2.3-.3.5-.4.4-.2 1-.3 1.4-.1.6.3 1 1.3 1.7 1 .4-.2.4-.8.7-1.1.7-.7 2.3.5 3-.3.4-.5.1-1.4.6-1.8.4.5 1.2.6 1.7.2.5-.4.6-1.1.2-1.6.7 0 1.3-.5 1.6-1.2.6-.4 1.4.1 1.9.7s1 1.2 1.7 1.3c.5.1 1-.2 1.5-.2s1.1.6.7 1c-.1.2-.4.2-.5.3-.3.3-.3.8.1 1.1.5.3 1.3-.2 1.8 0 .4.2.6.7.7 1.1.6.5 1.2-.7 1.9-.7.3 0 .6.2.9.2.3 0 .4-.2.7-.4.5-.3 1.1-.3 1.6 0s.7.9.6 1.5c-.1.5-.4 1-.2 1.4.2.3.6.4 1 .6.4.1.7.5.5.9-.1.2-.5.3-.6.5-.2.3 0 .7.4.9.3.2.7.3 1 .5.3.2.4.7.1 1-.5.1-.9.2-1.3.5-.3.3-.4 1 0 1.2.5.3 1.4-.1 1.6.4.1.4-.3.7-.7.8.6.5 1.5.7 2.3.5.2.5.1 1.1-.3 1.5.8.6 1 1.1.9 1.5z"/><path id="XMLID_16_" class="st4" d="M208.4 51.2c-.4.5-1.4 0-1.7-.5-.4-.5-.5-1.2-.7-1.7-.2-.3-.4-.6-.5-1-.2-.7.1-1.4-.1-2.1-.1-.5-.5-1-.5-1.5s.4-.9.3-1.4c0-.4-.4-.8-.8-.8s-.9.2-1 .7c-.1.2 0 .4-.2.6-.3.4-1 .3-1.4.6-.4.4 0 1.2-.4 1.7s-1.3.1-1.8.5c-.2.1-.3.3-.5.5-.4.4-1.1.5-1.6.2s-.7-.9-.6-1.5c.1-.3.2-.5.2-.8 0-.5-.8-1-.5-1.5.1-.2.4-.3.6-.3 1-.3 1.8-1.3 1.9-2.4.7.1 1.4-.8 1-1.4-.6-.7-1.8.1-2.6-.5-.2-.1-.3-.3-.5-.5-.4-.3-.9-.1-1.3.1s-.8.5-1.2.7c-.7.3-1.6 0-2.1-.6-.2-.3-.3-.6-.2-.9.1-.2.2-.3.4-.4.3-.3.4-.8.2-1.3.5-.7 1.8-.2 2.5-.8.2-.1.3-.3.5-.5.7-.4 1.7.6 2.5.2.3-.2.5-.5.8-.7.6-.4 1.3-.1 1.9.3.2-.5.2-1.2-.2-1.5-.3-.2-.7-.1-1-.1-.3 0-.7 0-.9-.4-.1-.4.3-.8.1-1.2-.1-.3-.6-.4-.9-.6-.3-.2-.4-.7-.4-1.1 0-.4.2-.8.3-1.2 0-.3 0-.6.2-.8.3-.4 1-.3 1.4 0 .4.3.8.7 1.3.8.7.1 1.7-.4 2.2.2.1.2.1.4.2.7.1.4.3.8.7 1 .4.1.9-.1 1-.5.1-.5-.4-1-.3-1.4.1-.4.7-.6.9-1 .2-.7-.8-1.6-.3-2.1.1-.1.3-.2.4-.3.2-.4-.6-.8-.4-1.3 0-.1.2-.2.3-.3.7-.4 1.7-.1 2.2.5.3.4.4 1 .7 1.4.4.4 1.1.6 1.2 1.2.1.7-.9 1.3-.7 2 .2.5.8.6 1.3.5s1-.4 1.5-.3c-.2-.4.5-.7.9-.6.4 0 1.1 0 1.1-.5.5-.4 1.3.1 1.6.7.3.6.4 1.3.8 1.9.1.3-.2.6-.5.7-.3.1-.7.3-.7.6 0 .4.5.6.5 1 0 .5-.8.5-1.1.9-.2.4 0 .9.4 1s.8.1 1.3.2c.4 0 .9.2 1.1.5.1.1.1.3.2.4.1.2.4.2.6.1.6 0 1.1-.1 1.7-.1.3 0 .7 0 1 .1s.5.5.4.8c-.2.6-1.3.5-1.4 1.1 0 .3.3.6.4.9.1.3-.2.7-.5.8s-.7.1-1-.1c-.2-.1-.4-.2-.7-.2-.2 0-.5.1-.5.4 0 .2.1.4 0 .6-.1.1-.2.1-.3.1-.3 0-.7 0-1-.1-.3-.1-.6-.3-.9-.4-.3-.1-.7-.2-.9-.1s-.4.6-.1.8c-.6-.2-1.5-.2-1.7.4-.2.6.6 1.1 1.3 1.2s1.5-.1 1.9.5c.2.3.3.8.6 1 .5.3 1.3-.3 1.8.1.3.2.3.8 0 1.1-.3.3-.7.4-1.1.5.2.5.4 1.2-.1 1.5-.3.2-.7.1-1.1 0s-.9 0-1 .4c-.5.3-1.1-.3-1.4-.8-.3-.5-.5-1.2-1.1-1.3-.2 0-.4 0-.6-.1-.6-.2-.6-1.1-1.1-1.5-.3-.2-.8-.2-1.1 0-.3.3-.4.8-.2 1.1.2.4.8.6.7 1.1-.1.5-.8.5-1 .9-.4.6.6 1.5.3 2.2-.1.1-.2.3-.1.4 0 .2.1.3.2.4.3.4.3.9 0 1.3-.1.8-.5 1-1 .9"/><g id="Calque_2_-_copie_3"><g id="Calque_4_-_copie_3"><path id="XMLID_83_" class="st1" d="m208.3 34-.4-5.8-.6-8.9v-.5.3-.2.4l-.6 8.9-.4 5.8c-.1 1.8-.1 3.6 0 5.4l.4 6.3.6 8.5v.5-.3.2-.4l.6-8.5.4-6.3c.2-1.8.2-3.6 0-5.4z"/><path id="XMLID_82_" class="st1" d="m209.9 35.6 3.8-4.4 5.9-6.8.4-.4-.2.2.1-.2-.3.3-6.8 5.9-4.4 3.8c-1.4 1.2-2.6 2.4-3.8 3.8l-4.1 4.8-5.6 6.4-.4.4.2-.2-.1.2.3-.3 6.4-5.6 4.8-4.1c1.4-1.2 2.7-2.5 3.8-3.8z"/><path id="XMLID_81_" class="st1" d="m206.1 34.1-4.4-3.8-6.8-5.9-.4-.4.2.2-.2-.1.3.3 5.9 6.8 3.8 4.4c1.2 1.4 2.4 2.6 3.8 3.8l4.8 4.1 6.4 5.6.4.4-.2-.2.2.1-.3-.3-5.6-6.4-4.1-4.8c-1.2-1.4-2.5-2.7-3.8-3.8z"/><path id="XMLID_80_" class="st1" d="m204.5 35.7-5.8.4-8.9.6h-.5.3-.2.4l8.9.6 5.8.4c1.8.1 3.6.1 5.4 0l6.3-.4 8.5-.6h.5-.3.2-.4l-8.5-.6-6.3-.4c-1.8-.1-3.6-.1-5.4 0z"/></g></g></g><g id="Calque_5_-_copie_4"><path id="XMLID_15_" class="st0" d="M274.2 87.5c0 2.4-1.3 4.5-2.1 6.7-1.1 3.2-5.4 9.4-7.9 11.7-1.9 1.7-4.7 2.5-7.2 3.5-2.3.9-4.2 2-6.8 2-2.6 0-5.1-.5-7.4-1.4-1.8-.7-4.8-3.3-6.4-4.5-2.6-2-3.3-5.5-4.7-8.5-1.3-2.7-3.6-4.9-3.6-8.1 0-3.2.7-6.3 2.1-9 1.5-3 4.5-5.4 7.1-7.3 3.4-2.6 11.5-5.8 16.2-5.8 2 0 3.6 1.1 5.4 1.6 1.9.6 4.1.6 5.8 1.6 3 1.9 3.9 4.9 5.5 8.1 1.6 2.9 4 5.9 4 9.4z"/><path id="XMLID_14_" class="st1" d="M275.7 87.5c0 2.6-1.4 4.9-2.3 7.2-1.2 3.4-2.3 6.7-4.9 9.2-2 1.9-5 2.7-7.7 3.7-2.5.9-4.5 2.1-7.3 2.1s-5.4-.5-7.9-1.4c-1.9-.7-3.7-1.7-5.3-2.9-2.8-2.1-3.5-5.9-5.1-9.1-1.4-2.9-3.8-5.2-3.8-8.7 0-3.5.8-6.8 2.2-9.7 1.6-3.2 4.8-5.7 7.6-7.8 3.7-2.7 7.4-4.6 12.3-4.6 2.1 0 3.8 1.2 5.8 1.7 2.1.6 4.4.6 6.2 1.7 3.2 2 4.1 5.3 5.9 8.6 1.6 3 4.3 6.2 4.3 10z"/><path id="XMLID_13_" class="st2" d="M273.4 87.5c0 2.3-1.3 4.4-2 6.4-1.1 3.1-2.1 6-4.4 8.2-1.8 1.7-4.5 2.4-6.9 3.3-2.2.8-4 1.9-6.5 1.9s-4.9-.5-7.1-1.3c-1.7-.7-3.3-1.5-4.8-2.6-2.5-1.9-3.2-5.3-4.5-8.1-1.3-2.6-3.4-4.7-3.4-7.8 0-3.1.7-6 2-8.7 1.4-2.9 4.3-5.1 6.8-7 3.3-2.5 6.6-4.1 11-4.1 1.9 0 3.4 1.1 5.2 1.6 1.9.5 3.9.5 5.5 1.6 2.9 1.8 3.7 4.7 5.3 7.7 1.4 2.7 3.8 5.5 3.8 8.9z"/><path id="XMLID_10_" class="st3" d="M269.5 78.5c-1.6-3-2.4-5.9-5.3-7.7-1.6-1-3.6-1-5.5-1.6-1.7-.5-3.3-1.6-5.2-1.6-4.4 0-7.7 1.7-11 4.1-2.5 1.9-5.4 4.2-6.8 7-1.3 2.6-2 5.6-2 8.7 0 3.1 2.2 5.2 3.4 7.8 1.4 2.9 2 6.2 4.5 8.1 1.4 1.1 3.1 2 4.8 2.6 2.2.8 4.6 1.3 7.1 1.3s4.3-1.1 6.5-1.9c2.4-.9 5-1.6 6.9-3.3 2.4-2.2 3.3-5.1 4.4-8.2.7-2.1 2-4.1 2-6.4.1-3.3-2.3-6.1-3.8-8.9zm.9 9.5c-.1.4-.5.7-.9.7-.2 0-.4 0-.6.1-.5.3.2 1 .1 1.6-.3.2-.7.3-1 .2-.1-.5-.7-.8-1.2-.6-.5.2-.7.8-.5 1.2.3-.2.7-.1.9.2.2.3.2.7-.1.9-.2.2-.4.2-.6.4-.4.4.2 1.2.7.9.4.7-.4 1.5-1.1 1.9.8.1 1.1 1.5.3 1.9-.5.2-1.3.3-1.2.8.7 0 .9 1.1.4 1.4-.2.1-.4.2-.6.2-1.2.2-2.4.2-3.6.2-.2.4-.1.9.3 1.1-.5.5-1.6-.2-1.4-.9-.3-.1-.7-.2-1-.1-.3.1-.6.4-.6.7 0 .4.6.8.4 1.2-.2.3-.7.2-.9.4-.3.3.1.9 0 1.3-.1.5-.7.6-1.2.4-.4-.2-.9-.5-1.3-.4-.5 0-.9.6-.6.9 0 .6-.9.7-1.4.4-.5-.3-1-.8-1.6-.8-.6 0-1.1.7-1.7.5-.6-.2-.8-1-1.3-1.4-.4-.3-.9-.3-1.4-.4s-.9-.7-.6-1.1c.2-.3.7-.2 1-.4.3-.2.3-.7.2-1.1-.1-.4-.2-.9-.5-1.1-.3-.3-.9-.2-1.1.2-.1.2 0 .5-.1.7-.2.4-.8.3-1.2 0-.4-.3-.9-.6-1.3-.3-.1.1-.2.3-.3.4-.3.4-.9.4-1.4.2-.5-.2-.9-.5-1.4-.6-.5-.1-.5-.3-.8-.3-.6-.2-.6.2-.8-.7-.1-.4-.4-.7-.5-1.1-.2-1.1 1.5-2.1 1-3.1-.2-.4-.8-.6-1-1-.4-.8.6-1.8 0-2.5-.3-.3-.8-.3-1.1-.7-.2-.2-.2-.5-.3-.8-.4-1-1.8-1.6-1.6-2.6.2-.7 1.1-1 1.3-1.7.2-.7-.3-1.5.1-2.1.4-.6 1.5-.5 1.6-1.2.1-.4-.2-.7-.4-1-.2-.3-.3-.8 0-1 .1-.1.3-.1.4-.1.7-.1 1.6-.2 1.8-.9.2-.6-.4-1.6.1-1.8.2-.1.4 0 .6-.2.3-.2 0-.7-.2-.9-.3-.2-.6-.5-.5-.9.1-.2.3-.3.5-.4.4-.2 1-.3 1.4-.1.6.3 1 1.3 1.7 1 .4-.2.4-.8.7-1.1.7-.7 2.3.5 3-.3.4-.5.1-1.4.6-1.8.4.5 1.2.6 1.7.2.5-.4.6-1.1.2-1.6.7 0 1.3-.5 1.6-1.2.6-.4 1.4.1 1.9.7s1 1.2 1.7 1.3c.5.1 1-.2 1.5-.2s1.1.6.7 1c-.1.2-.4.2-.5.3-.3.3-.3.8.1 1.1.5.3 1.3-.2 1.8 0 .4.2.6.7.7 1.1.6.5 1.2-.7 1.9-.7.3 0 .6.2.9.2.3 0 .4-.2.7-.4.5-.3 1.1-.3 1.6 0s.7.9.6 1.5c-.1.5-.4 1-.2 1.4.2.3.6.4 1 .6.4.1.7.5.5.9-.1.2-.5.3-.6.5-.2.3 0 .7.4.9.3.2.7.3 1 .5.3.2.4.7.1 1-.5.1-.9.2-1.3.5-.3.3-.4 1 0 1.2.5.3 1.4-.1 1.6.4.1.4-.3.7-.7.8.6.5 1.5.7 2.3.5.2.5.1 1.1-.3 1.5.7.6 1 1.1.9 1.5z"/><path id="XMLID_9_" class="st4" d="M254.7 101.9c-.4.5-1.4 0-1.7-.5-.4-.5-.5-1.2-.7-1.7-.2-.3-.4-.6-.5-1-.2-.7.1-1.4-.1-2.1-.1-.5-.5-1-.5-1.5s.4-.9.3-1.4c0-.4-.4-.8-.8-.8s-.9.2-1 .7c-.1.2 0 .4-.2.6-.3.4-1 .3-1.4.6-.4.4 0 1.2-.4 1.7s-1.3.1-1.8.5c-.2.1-.3.3-.5.5-.4.4-1.1.5-1.6.2s-.7-.9-.6-1.5c.1-.3.2-.5.2-.8 0-.5-.8-1-.5-1.5.1-.2.4-.3.6-.3 1-.3 1.8-1.3 1.9-2.4.7.1 1.4-.8 1-1.4-.6-.7-1.8.1-2.6-.5-.2-.1-.3-.3-.5-.5-.4-.3-.9-.1-1.3.1s-.8.5-1.2.7c-.7.3-1.6 0-2.1-.6-.2-.3-.3-.6-.2-.9.1-.2.2-.3.4-.4.3-.3.4-.8.2-1.3.5-.7 1.8-.2 2.5-.8.2-.1.3-.3.5-.5.7-.4 1.7.6 2.5.2.3-.2.5-.5.8-.7.6-.4 1.3-.1 1.9.3.2-.5.2-1.2-.2-1.5-.3-.2-.7-.1-1-.1s-.7 0-.9-.4c-.1-.4.3-.8.1-1.2-.1-.3-.6-.4-.9-.6-.3-.2-.4-.7-.4-1.1s.2-.8.3-1.2c0-.3 0-.6.2-.8.3-.4 1-.3 1.4 0 .4.3.8.7 1.3.8.7.1 1.7-.4 2.2.2.1.2.1.4.2.7.1.4.3.8.7 1s.9-.1 1-.5c.1-.5-.4-1-.3-1.4.1-.4.7-.6.9-1 .2-.7-.8-1.6-.3-2.1.1-.1.3-.2.4-.3.2-.4-.6-.8-.4-1.3 0-.1.2-.2.3-.3.7-.4 1.7-.1 2.2.5.3.4.4 1 .7 1.4.4.4 1.1.6 1.2 1.2.1.7-.9 1.3-.7 2 .2.5.8.6 1.3.5.5-.1 1-.4 1.5-.3-.2-.4.5-.7.9-.6.4 0 1.1 0 1.1-.5.5-.4 1.3.1 1.6.7.3.6.4 1.3.8 1.9.1.3-.2.6-.5.7-.3.1-.7.3-.7.6 0 .4.5.6.5 1 0 .5-.8.5-1.1.9-.2.4 0 .9.4 1 .4.2.8.1 1.3.2.4 0 .9.2 1.1.5.1.1.1.3.2.4.1.2.4.2.6.1.6 0 1.1-.1 1.7-.1.3 0 .7 0 1 .1.3.2.5.5.4.8-.2.6-1.3.5-1.4 1.1 0 .3.3.6.4.9.1.3-.2.7-.5.8-.3.1-.7.1-1-.1-.2-.1-.4-.2-.7-.2s-.5.1-.5.4c0 .2.1.4 0 .6-.1.1-.2.1-.3.1-.3 0-.7 0-1-.1-.3-.1-.6-.3-.9-.4-.3-.1-.7-.2-.9-.1-.3.2-.4.6-.1.8-.6-.2-1.5-.2-1.7.4-.2.6.6 1.1 1.3 1.2.7 0 1.5-.1 1.9.5.2.3.3.8.6 1 .5.3 1.3-.3 1.8.1.3.2.3.8 0 1.1-.3.3-.7.4-1.1.5.2.5.4 1.2-.1 1.5-.3.2-.7.1-1.1 0-.4-.1-.9 0-1 .4-.5.3-1.1-.3-1.4-.8s-.5-1.2-1.1-1.3c-.2 0-.4 0-.6-.1-.6-.2-.6-1.1-1.1-1.5-.3-.2-.8-.2-1.1 0-.3.3-.4.8-.2 1.1.2.4.8.6.7 1.1-.1.5-.8.5-1 .9-.4.6.6 1.5.3 2.2-.1.1-.2.3-.1.4 0 .2.1.3.2.4.3.4.3.9 0 1.3-.1.8-.6 1-1 .9"/><g id="Calque_2_-_copie_4"><g id="Calque_4_-_copie_4"><path id="XMLID_37_" class="st1" d="m254.6 84.7-.4-5.8-.6-8.9v-.5.3-.2.4l-.6 8.9-.4 5.8c-.1 1.8-.1 3.6 0 5.4l.4 6.3.6 8.5v.5-.3.2-.4l.6-8.5.4-6.3c.1-1.8.1-3.6 0-5.4z"/><path id="XMLID_31_" class="st1" d="m256.2 86.3 3.8-4.4 5.9-6.8.4-.4-.2.2.1-.2-.3.3-6.8 5.9-4.4 3.8c-1.4 1.2-2.6 2.4-3.8 3.8l-4.1 4.8-5.6 6.4-.4.4.2-.2-.1.2.3-.3 6.4-5.6 4.8-4.1c1.3-1.2 2.6-2.5 3.8-3.8z"/><path id="XMLID_28_" class="st1" d="M252.3 84.8 248 81l-6.8-5.9-.4-.4.2.3-.2-.1.3.3L247 82l3.8 4.4c1.2 1.4 2.4 2.6 3.8 3.8l4.8 4.1 6.4 5.6.4.4-.2-.3.2.1-.3-.3-5.6-6.4-4.1-4.8c-1.2-1.4-2.5-2.7-3.9-3.8z"/><path id="XMLID_26_" class="st1" d="m250.8 86.4-5.8.4-8.9.6h-.5.3-.2.4l8.9.6 5.8.4c1.8.1 3.6.1 5.4 0l6.3-.4 8.5-.6h.5-.3.2-.4l-8.5-.6-6.3-.4c-1.8-.1-3.6-.1-5.4 0z"/></g></g></g></svg>