<?xml version="1.0" encoding="utf-8"?>
<!-- Generator: Adobe Illustrator 19.0.0, SVG Export Plug-In . SVG Version: 6.00 Build 0)  -->
<svg version="1.0" id="圖層_1" xmlns="http://www.w3.org/2000/svg" xmlns:xlink="http://www.w3.org/1999/xlink" x="0px" y="0px" width="300px" height="260px"
	 viewBox="0 0 300 260" style="enable-background:new 0 0 300 260;" xml:space="preserve">
<style type="text/css">
	.st0{display:none;fill:#FECE63;stroke:#000000;stroke-miterlimit:10;}
	.st1{opacity:0.15;fill:#050606;}
	.st2{display:none;}
	.st3{display:inline;}
	.st4{fill:none;stroke:#333333;stroke-width:7;stroke-miterlimit:10;}
	.st5{fill:none;stroke:#441817;stroke-width:12;stroke-miterlimit:10;}
	.st6{fill:#BC817D;}
	.st7{fill:#A56D66;}
	.st8{fill:url(#XMLID_4_);}
	.st9{fill:#FFFFFF;}
	.st10{opacity:0.18;fill:#FFFFFF;enable-background:new    ;}
	.st11{fill:url(#XMLID_5_);}
	.st12{fill:#D2A191;}
	.st13{fill:url(#XMLID_6_);}
	.st14{opacity:0.52;fill:none;stroke:#492626;stroke-miterlimit:10;}
	.st15{opacity:0.45;}
	.st16{opacity:0.47;fill:#FFFFFF;}
	.st17{fill:url(#XMLID_7_);}
	.st18{opacity:0.61;fill:url(#XMLID_8_);}
	.st19{opacity:0.61;fill:url(#XMLID_9_);}
	.st20{opacity:0.61;fill:url(#XMLID_10_);}
	.st21{opacity:0.8;fill:url(#XMLID_11_);}
	.st22{fill:url(#XMLID_12_);}
</style>
<rect id="background" x="1.1" y="-0.1" class="st0" width="300" height="260"/>
<path id="XMLID_2_" class="st1" d="M71.9,211c0,0-26.6-26.6-26.8-36c-0.2-8.3-9.8-28-7.2-35.3s7.3-34.7,14-40.3
	c6.7-5.7,56-52.5,66.7-59.2s29.3-9.3,39.7-5.7s45,12.7,50,21.7s10.7,17.3,19,22s11.7,16.7,14.7,24s6,37.3,3,44s-9.4,37.9-8.1,41.6
	c1.3,3.7-34.6,36.6-43,39.9c-8.3,3.3-28-3-38-4s-28.7,4-37.7,8s-32-5.7-36.3-9C77.5,219.4,71.9,211,71.9,211z"/>
<g id="normalCell" class="st2">
	<g id="XMLID_3_" class="st3">
		<path id="XMLID_282_" class="st4" d="M210.6,256.7L90,256.5c-9.4,0-18.2-4.9-22.8-12.8L7,142.3c-4.7-8-4.7-17.7,0-25.7L67.4,15.1
			c4.8-8,13.5-12.8,22.9-12.8l120.6,0.2c9.4,0,18.2,4.9,22.8,12.8l60.2,101.4c4.7,8,4.7,17.7,0,25.7l-60.4,101.4
			C228.7,251.8,220,256.7,210.6,256.7z"/>
	</g>
</g>
<g id="Calque_6">
	<path id="XMLID_41_" class="st5" d="M93.2,187c0,0-26.6-26.6-26.8-36c-0.2-8.3-9.8-28-7.2-35.3c2.7-7.3,7.3-34.7,14-40.3
		c6.7-5.7,36.3-32.7,47-39.3s29.3-9.3,39.7-5.7c10.3,3.7,45,12.7,50,21.7s10.7,17.3,19,22c8.3,4.7,11.7,16.7,14.7,24s6,37.3,3,44
		s-12,34.7-10.7,38.3c1.3,3.7-12.3,20-20.7,23.3c-8.3,3.3-28-3-38-4s-28.7,4-37.7,8s-32-5.7-36.3-9C98.8,195.3,93.2,187,93.2,187z"
		/>
	<path id="XMLID_39_" class="st6" d="M93.2,187c0,0-26.6-26.6-26.8-36c-0.2-8.3-9.8-28-7.2-35.3c2.7-7.3,7.3-34.7,14-40.3
		c6.7-5.7,36.3-32.7,47-39.3s29.3-9.3,39.7-5.7c10.3,3.7,45,12.7,50,21.7s10.7,17.3,19,22c8.3,4.7,11.7,16.7,14.7,24s6,37.3,3,44
		s-12,34.7-10.7,38.3c1.3,3.7-12.3,20-20.7,23.3c-8.3,3.3-28-3-38-4s-28.7,4-37.7,8s-32-5.7-36.3-9C98.8,195.3,93.2,187,93.2,187z"
		/>
	<path id="XMLID_38_" class="st7" d="M243.9,97.9c-3-7.3-6.3-19.3-14.7-24c-8.3-4.7-14-13-19-22s-39.7-18-50-21.7
		c-10.3-3.7-29-1-39.7,5.7c-10.7,6.7-40.3,33.7-47,39.3c-2.9,2.5-5.5,9.2-7.7,16.6c1.6,4.1,5.2,7.1,6,10.6
		c4.8,20.8,20.8,29.3,22,44.5c2,24,11,28.5,20,37c8.7,8.2,34.6,2,39.3,19.1c8.5-2.3,18.1-4.1,24.4-3.4c10,1,29.7,7.3,38,4
		c8.3-3.3,22-19.7,20.7-23.3c-1.3-3.7,7.7-31.7,10.7-38.3C249.9,135.3,246.9,105.3,243.9,97.9z"/>
	<linearGradient id="XMLID_4_" gradientUnits="userSpaceOnUse" x1="133.7689" y1="30.1848" x2="142.8572" y2="94.8513">
		<stop  offset="0.1281" style="stop-color:#3C1E0E;stop-opacity:0.12"/>
		<stop  offset="0.1496" style="stop-color:#45281A;stop-opacity:0.117"/>
		<stop  offset="0.2274" style="stop-color:#64493C;stop-opacity:0.1063"/>
		<stop  offset="0.3103" style="stop-color:#856C60;stop-opacity:9.492287e-002"/>
		<stop  offset="0.397" style="stop-color:#A49086;stop-opacity:8.299254e-002"/>
		<stop  offset="0.4885" style="stop-color:#C0B2AA;stop-opacity:7.039566e-002"/>
		<stop  offset="0.5865" style="stop-color:#D8CFCA;stop-opacity:5.690996e-002"/>
		<stop  offset="0.6941" style="stop-color:#EAE5E2;stop-opacity:4.209370e-002"/>
		<stop  offset="0.8188" style="stop-color:#F8F6F5;stop-opacity:2.493922e-002"/>
		<stop  offset="1" style="stop-color:#FFFFFF;stop-opacity:0"/>
	</linearGradient>
	<path id="XMLID_37_" class="st8" d="M214.9,60.4c-1.8-2.7-3.5-5.5-5.1-8.4c-5-9-39.7-18-50-21.7c-10.3-3.7-29-1-39.7,5.7
		c-10.7,6.7-40.3,33.7-47,39.3c-2.9,2.5-5.5,9.2-7.7,16.6c1.6,4.1,5.2,7.1,6,10.6c0.2,0.8,0.4,1.5,0.6,2.3
		c9.5-16.4,21.2-32,32.4-34.4C126.2,65.9,155.1,48.3,214.9,60.4z"/>
	<g id="Calque_5">
		<g id="XMLID_23_">
			<path id="XMLID_42_" class="st9" d="M192.1,131.1"/>
		</g>
		<path id="XMLID_15_" class="st10" d="M117.6,158.3c0,0,0.3-2,2.1-2.3c1.8-0.4,3-0.3,2.3,0.6c-0.7,0.9-2.1,2.9-3.2,2.9
			C117.7,159.4,117.6,158.3,117.6,158.3z"/>
		<path id="XMLID_19_" class="st10" d="M145.3,95.4c0,0,0.3-2,2.1-2.3c1.8-0.4,3-0.3,2.3,0.6c-0.7,0.9-2.1,2.9-3.2,2.9
			C145.4,96.5,145.3,95.4,145.3,95.4z"/>
		<path id="XMLID_21_" class="st10" d="M83.8,95.4c0,0,0.3-2,2.1-2.3c1.8-0.4,3-0.3,2.3,0.6s-2.1,2.9-3.2,2.9
			C83.9,96.5,83.8,95.4,83.8,95.4z"/>
		<path id="XMLID_22_" class="st10" d="M205.7,193.9c0,0,0.3-2,2.1-2.3c1.8-0.4,3-0.3,2.3,0.6c-0.7,0.9-2.1,2.9-3.2,2.9
			C205.8,195,205.7,193.9,205.7,193.9z"/>
	</g>
	<linearGradient id="XMLID_5_" gradientUnits="userSpaceOnUse" x1="151.8793" y1="117.7431" x2="247.7426" y2="117.7431">
		<stop  offset="0" style="stop-color:#A56D67;stop-opacity:0"/>
		<stop  offset="0.2557" style="stop-color:#A46B64;stop-opacity:0.1688"/>
		<stop  offset="0.4335" style="stop-color:#9F665D;stop-opacity:0.2861"/>
		<stop  offset="0.5876" style="stop-color:#975D51;stop-opacity:0.3878"/>
		<stop  offset="0.7283" style="stop-color:#8C5140;stop-opacity:0.4807"/>
		<stop  offset="0.8598" style="stop-color:#7D412B;stop-opacity:0.5675"/>
		<stop  offset="0.9829" style="stop-color:#6B3015;stop-opacity:0.6487"/>
		<stop  offset="1" style="stop-color:#682D11;stop-opacity:0.66"/>
	</linearGradient>
	<path id="XMLID_36_" class="st11" d="M228.8,74c-8.3-4.7-14-13-19-22c-4.8-8.6-36.6-17.2-48.5-21.1c-13.5,6.6-17.5,15.7,21.3,25.5
		c76.7,19.3-2,89.3-2,89.3l6.7,26.7c0,0,1.4,14.1-9.7,27.4c10.1,1.1,29.3,7.2,37.5,3.9c8.3-3.3,22-19.7,20.7-23.3
		c-1.3-3.7,7.7-31.7,10.7-38.3c3-6.7,0-36.7-3-44C240.5,90.7,237.2,78.7,228.8,74z"/>
	<path id="XMLID_35_" class="st6" d="M122.4,85.1c0,0-9.5,16.5-7.5,21.5s17.5,11.5,21,16.5c3.5,5,17.6,8.5,24.1,4.5
		c6.4-4,19.4-6,25.9-9s6.5-17.5,5-28s-5-20.5-8-24.5s-11.5,0-19-3.5c-7.5-3.5-7.4-17-7.4-17s17.4,9.5,29.9,7s27,13.5,28,19.5
		s8.5,12.5,14,20.5s7.5,30,0,39.5s-13.5,26.5-13,32s-7,16.5-19,15s-42.1-5.5-43.3-15.5s-13.2-10.5-20.2-15s-27-4.5-28-11
		s-14-31-7.5-39S122.4,85.1,122.4,85.1z"/>
	<path id="XMLID_34_" class="st12" d="M214.4,72.1c-0.3-1.9-2-4.9-4.6-7.9c5.4,10.9,13.8,30.1,10.2,38.3
		c-5.2,11.8-3.8,13.5-1.9,19.2c1.9,5.8-4.1,14-7.4,15.9s0.9,21.7-10.9,27.7c-7.9,4-23.2,7.1-34.1,7.8c10,3.4,23.5,5.2,30.7,6.1
		c12,1.5,19.5-9.5,19-15s5.5-22.5,13-32s5.5-31.5,0-39.5S215.4,78.1,214.4,72.1z"/>
	<linearGradient id="XMLID_6_" gradientUnits="userSpaceOnUse" x1="195.0845" y1="53.2334" x2="142.0655" y2="161.9385">
		<stop  offset="0" style="stop-color:#FFFFFF;stop-opacity:0"/>
		<stop  offset="0.1473" style="stop-color:#FFFFFC;stop-opacity:3.168605e-002"/>
		<stop  offset="0.2497" style="stop-color:#FEFEF3;stop-opacity:5.371934e-002"/>
		<stop  offset="0.3386" style="stop-color:#FCFCE4;stop-opacity:7.283959e-002"/>
		<stop  offset="0.4198" style="stop-color:#FAF9CE;stop-opacity:9.028987e-002"/>
		<stop  offset="0.4956" style="stop-color:#F7F6B1;stop-opacity:0.1066"/>
		<stop  offset="0.5676" style="stop-color:#F4F28F;stop-opacity:0.1221"/>
		<stop  offset="0.6366" style="stop-color:#F0ED65;stop-opacity:0.1369"/>
		<stop  offset="0.7013" style="stop-color:#EBE837;stop-opacity:0.1509"/>
		<stop  offset="0.7438" style="stop-color:#E8E414;stop-opacity:0.16"/>
	</linearGradient>
	<path id="XMLID_33_" class="st13" d="M122.4,85.1c0,0-9.5,16.5-7.5,21.5s17.5,11.5,21,16.5c3.5,5,17.6,8.5,24.1,4.5
		c6.4-4,19.4-6,25.9-9s6.5-17.5,5-28s-5-20.5-8-24.5s-11.5,0-19-3.5c-7.5-3.5-7.4-17-7.4-17s17.4,9.5,29.9,7s27,13.5,28,19.5
		s8.5,12.5,14,20.5s7.5,30,0,39.5s-13.5,26.5-13,32s-7,16.5-19,15s-42.1-5.5-43.3-15.5s-13.2-10.5-20.2-15s-27-4.5-28-11
		s-14-31-7.5-39S122.4,85.1,122.4,85.1z"/>
	<g id="Calque_2">
		<path id="XMLID_67_" class="st14" d="M156,202.3c-0.4-4.1-2.4-8.1-5.4-10.9c-1.9-1.8-4.2-3.1-5.8-5.2c-3.3-4.1-3.5-10.4-7.8-13.4
			c-2.8-2-6.6-1.9-9.5-3.6"/>
		<path id="XMLID_66_" class="st14" d="M122.1,84.9c-2.9,5.5-5.1,11.4-6.6,17.5c-0.3,1.4-0.6,2.8-0.3,4.2c0.4,1.4,1.5,2.6,2.5,3.6
			c2,2,4.2,4.2,7,4.7c2.5,0.4,5-0.6,7.5-0.7c3.8-0.2,7.4,1.6,11.1,2.8c3.6,1.2,8,1.6,11-0.8"/>
		<path id="XMLID_65_" class="st14" d="M165.4,64c0,0.4,0.6,0.6,1,0.6c2,0,4,0,6,0.1c2.4,0,5.1,0.2,6.7,2c0.8,1,1.1,2.3,1.4,3.6
			c0.1,0.6,0.3,1.2,0.1,1.7c-0.1,0.5-0.5,0.9-0.7,1.4c-0.7,1.2-0.7,2.7-0.2,3.9c0.2,0.5,0.6,1,0.9,1.6c0.9,1.6,1.2,3.5,0.7,5.3"/>
		<path id="XMLID_64_" class="st14" d="M237.8,167.5c-1.3-3.1-2.5-6.2-3.8-9.3c-1.4-3.4-2.8-7.1-1.7-10.5c0.5-1.7,1.6-3.2,2.3-4.9
			c0.7-1.7,0.9-3.7-0.2-5.1"/>
		<path id="XMLID_63_" class="st14" d="M65.6,94.7c1.7,2,3.4,4.1,5,6.3c1.2,1.6,2.4,3.3,3.1,5.2c0.8,2.1,1.1,4.4,1.9,6.6
			c1.3,3.4,4,6.2,6.2,9.1c3.3,4.4,5.8,9.3,8.2,14.3"/>
		<path id="XMLID_62_" class="st14" d="M133.6,32.3c-4.6,0.7-8.7,4-10.4,8.4s-1,9.6,1.9,13.3c0.8,1.1,1.8,2,2.3,3.3
			c0.6,1.7,0,3.7,0.5,5.5c0.6,2.3,2.9,3.8,5.2,4.7c2.3,0.9,4.7,1.5,6.6,2.9"/>
		<path id="XMLID_61_" class="st14" d="M205.7,61.3c1.3,0.1,2.2,1.1,3,2.1c3.6,4.8,6.2,8.2,8,13.9c0.9,2.8,2.3,7.8,2.7,11.1
			c0.3,2.5,0.7,4.7,1.4,7c0.3,0.9,0.6,1.9,0.6,2.9c0.1,3.8-3.8,6.4-5.1,10c-1.3,3.7,0.3,7.7,1.4,11.5s1.3,8.6-1.9,10.9"/>
		<path id="XMLID_60_" class="st14" d="M122.1,48.8c-1,2.3,0.8,5.2-0.4,7.5c-0.3,0.5-0.6,0.9-1,1.4c-1.6,2-2.4,4.6-2.2,7.2
			s1.3,5,3.1,6.8"/>
		<path id="XMLID_59_" class="st14" d="M71.9,102.6c0.3,0.8,0.8,1.4,1.4,2.1c3.2,3.7,6.5,7.5,10.6,10.1c0.5,0.3,1,0.6,1.6,0.9
			c0.5,0.2,0.9,0.4,1.4,0.6c1.6,0.9,2.5,2.7,3.4,4.3"/>
		<path id="XMLID_58_" class="st14" d="M142.8,183.7c-0.9-1.9-3-3-5-3.5c-2-0.5-4.1-0.7-6.2-1.2c-0.4-0.1-0.8-0.3-1.2-0.5
			c-0.6-0.4-1.1-0.9-1.5-1.4c-1.1-1.2-2.4-2.1-3.9-2.8"/>
		<path id="XMLID_57_" class="st14" d="M171.9,64.7c1.6-0.5,3.3-0.6,5-0.4c0.6,0.1,1.2,0.2,1.8,0.2c0.5,0,1-0.1,1.5,0.1
			c0.4,0.1,0.7,0.5,1.1,0.7c0.4,0.2,0.8,0.2,1.1,0.4c0.3,0.2,0.6,0.5,0.8,0.8c0.7,0.9,1.2,1.9,1.6,3c0.2,0.8,0.4,1.6,0.7,2.4
			c0.3,0.8,0.9,1.5,1.2,2.4c0.4,1,0.4,2.2,0.5,3.3s0.4,2.3,1.1,3.1"/>
	</g>
	<g id="Calque_4">
		<g id="Calque_3" class="st2">
		</g>
		<g id="XMLID_17_" class="st15">
			<path id="XMLID_20_" class="st9" d="M176.6,171.8c1.8-0.2,3.6-0.5,5.4-0.9c3.8-0.9,11.2-2.2,14.8-3.7c3.5-1.4,3.9-1.3,6.5-3.9
				l-6.2,2.8c-0.7,0.3-1.3,0.5-2,0.7l-7.4,1.8l-18,3.6c0,0-2.7,0.4-6.3,0c0,0,0.5,0.3,1.3,0.6c1.9,0.8,4.2,1.2,6.2,1.8
				c2.7,0.9,5,0.9,7.6,1.6c3.8,1,6.5,1.6,10,1.9c1.2,0.1,6.5,0.8,7.7,0.9l-27.1-5.8C171.2,173,174.5,172.1,176.6,171.8z"/>
		</g>
		<path id="XMLID_24_" class="st16" d="M135.7,122.8c0,0,3.7,5.2,12.4,5.4s6.3,1.3,15.3-3.1c3.5-1.7,7.7-2.3,11.8-3.4
			c6.4-1.9,12.1-3.9,12.1-3.9s-3.6,2.4-9.9,4.5c-5.5,1.8-13.7,3.1-15.1,4.8c-1.8,2.1-12.6,1.5-2.1,7.6c1.9,1.1,2.6,4,6.5,7.2
			c1.5,1.3,5.8,2.6,7.3,3c8.2,2.5,13.4-1.9,13.4-1.9s-5.9,10.9-21.4-0.6c-6.1-5.7-9-10.6-13.9-11.3S134.6,126.9,135.7,122.8z"/>
	</g>
	<linearGradient id="XMLID_7_" gradientUnits="userSpaceOnUse" x1="155.3241" y1="124.0114" x2="191.3364" y2="137.1187">
		<stop  offset="0.1034" style="stop-color:#FFFFFF;stop-opacity:0.17"/>
		<stop  offset="1" style="stop-color:#FFFFFF;stop-opacity:0"/>
	</linearGradient>
	<path id="XMLID_32_" class="st17" d="M184.6,119.2c0,0-18.3,5.4-20.1,6.3c-1.8,0.8-10.4,4.8-11.3,4.6s6,4.2,8.2,7.3s9,9.8,17.1,9.5
		s12-7.3,12-7.3S181.9,128.2,184.6,119.2z"/>
	<linearGradient id="XMLID_8_" gradientUnits="userSpaceOnUse" x1="78.987" y1="120.3801" x2="87.5365" y2="117.6022">
		<stop  offset="0" style="stop-color:#531A0A;stop-opacity:0.59"/>
		<stop  offset="1" style="stop-color:#000000;stop-opacity:0"/>
	</linearGradient>
	<path id="XMLID_31_" class="st18" d="M75.2,108.3c0,0,7.1,7.3,9.8,8.2s2.9,2.1,2.9,2.1s-1.6,7.3,0.5,12c0,0-7.9-12.5-9.3-13.5
		C76.8,115.3,75.2,108.3,75.2,108.3z"/>
	
		<linearGradient id="XMLID_9_" gradientUnits="userSpaceOnUse" x1="97.8051" y1="153.8896" x2="106.0159" y2="151.2217" gradientTransform="matrix(-0.9184 0.3957 -0.3957 -0.9184 287.2676 275.6665)">
		<stop  offset="0" style="stop-color:#531A0A;stop-opacity:0.59"/>
		<stop  offset="1" style="stop-color:#000000;stop-opacity:0"/>
	</linearGradient>
	<path id="XMLID_30_" class="st19" d="M140.9,180.7c0,0-5.9-2.4-8.7-2.2s-6.6-5-6.6-5s5.2,0.1,1.4-3.4c0,0,7.1,2.4,8.8,2.8
		C138.6,173.6,140.9,180.7,140.9,180.7z"/>
	
		<linearGradient id="XMLID_10_" gradientUnits="userSpaceOnUse" x1="13.588" y1="236.5988" x2="21.33" y2="234.0833" gradientTransform="matrix(-0.7279 0.6856 0.6856 0.7279 33.4242 -109.4109)">
		<stop  offset="0" style="stop-color:#531A0A;stop-opacity:0.59"/>
		<stop  offset="1" style="stop-color:#000000;stop-opacity:0"/>
	</linearGradient>
	<path id="XMLID_29_" class="st20" d="M179.3,65.5c0,0,1.4,5.9,0.1,8.4c-1.3,2.5,2.8,9.5,2.8,9.5s2.6-3.5,5.3-3.2
		c0,0-2.5-10.3-3.8-12.3C182.3,65.5,179.3,65.5,179.3,65.5z"/>
	<linearGradient id="XMLID_11_" gradientUnits="userSpaceOnUse" x1="119.2033" y1="59.6922" x2="130.9156" y2="65.9198">
		<stop  offset="0" style="stop-color:#531A0A;stop-opacity:0.74"/>
		<stop  offset="0.1111" style="stop-color:#4F2819;stop-opacity:0.6578"/>
		<stop  offset="0.2299" style="stop-color:#482E23;stop-opacity:0.5699"/>
		<stop  offset="0.3521" style="stop-color:#402F28;stop-opacity:0.4795"/>
		<stop  offset="0.4755" style="stop-color:#382D2A;stop-opacity:0.3881"/>
		<stop  offset="0.6006" style="stop-color:#282423;stop-opacity:0.2956"/>
		<stop  offset="0.728" style="stop-color:#161515;stop-opacity:0.2013"/>
		<stop  offset="0.8592" style="stop-color:#060606;stop-opacity:0.1042"/>
		<stop  offset="1" style="stop-color:#000000;stop-opacity:0"/>
	</linearGradient>
	<path id="XMLID_28_" class="st21" d="M122.9,52.7c0,0,1.5,2.8-2,6.2c-3.4,3.3-0.6,10.5,0,10.7c0.6,0.3,5.8-5.5,9.2-2.3
		c0,0-4.4-2.9-3.7-7.1S122.9,52.7,122.9,52.7z"/>
	<linearGradient id="XMLID_12_" gradientUnits="userSpaceOnUse" x1="171.7743" y1="165.24" x2="203.3906" y2="176.7473">
		<stop  offset="0.1034" style="stop-color:#FFFFFF;stop-opacity:0.66"/>
		<stop  offset="1" style="stop-color:#FFFFFF;stop-opacity:0"/>
	</linearGradient>
	<path id="XMLID_27_" class="st22" d="M199.1,166.1c0,0-17.9,4.1-19.8,4.5c-2.2,0.4-9.5,3-10.4,2.8s7.4,1.8,12,3.3
		c3.6,1.2,9.6,1.7,12.6,2.1c6.8,0.9,9.1,0.2,9.1,0.2S196.5,175.1,199.1,166.1z"/>
</g>
</svg>
