<?xml version="1.0" encoding="utf-8"?>
<!-- Generator: Adobe Illustrator 19.0.0, SVG Export Plug-In . SVG Version: 6.00 Build 0)  -->
<svg version="1.0" id="圖層_1" xmlns="http://www.w3.org/2000/svg" xmlns:xlink="http://www.w3.org/1999/xlink" x="0px" y="0px" width="300px" height="260px"
	 viewBox="0 0 300 260" style="enable-background:new 0 0 300 260;" xml:space="preserve">
<style type="text/css">
	.st0{display:none;fill:#FECE63;stroke:#000000;stroke-miterlimit:10;}
	.st1{display:none;}
	.st2{display:inline;}
	.st3{fill:none;stroke:#333333;stroke-width:7;stroke-miterlimit:10;}
	.st4{fill:none;stroke:#441817;stroke-width:8;stroke-miterlimit:10;}
	.st5{fill:#A56D67;}
	.st6{opacity:0.52;fill:#825656;}
	.st7{opacity:0.18;fill:#FFFFFF;enable-background:new    ;}
	.st8{opacity:0.36;fill:#773919;}
</style>
<rect id="background" x="1.1" y="-0.1" class="st0" width="300" height="260"/>
<g id="normalCell" class="st1">
	<g id="XMLID_3_" class="st2">
		<path id="XMLID_282_" class="st3" d="M210.6,256.7L90,256.5c-9.4,0-18.2-4.9-22.8-12.8L7,142.3c-4.7-8-4.7-17.7,0-25.7L67.4,15.1
			c4.8-8,13.5-12.8,22.9-12.8l120.6,0.2c9.4,0,18.2,4.9,22.8,12.8l60.2,101.4c4.7,8,4.7,17.7,0,25.7l-60.4,101.4
			C228.7,251.8,220,256.7,210.6,256.7z"/>
	</g>
</g>
<g id="Calque_7">
	<path id="XMLID_36_" class="st4" d="M82.1,237.5c0,0-14.2-4.1-11.5-10.8c3-7.5,1.9-12.9,5.6-15.1s16.6-6.4,23.4,3.1
		s7.4,6.2,5.1,17.6c-1.1,5.7-4.8,5.2-11,7.6C87.7,242.4,82.1,237.5,82.1,237.5z"/>
	<path id="XMLID_33_" class="st5" d="M82.1,237.5c0,0-14.2-4.1-11.5-10.8c3-7.5,1.9-12.9,5.6-15.1s16.6-6.4,23.4,3.1
		s7.4,6.2,5.1,17.6c-1.1,5.7-4.8,5.2-11,7.6C87.7,242.4,82.1,237.5,82.1,237.5z"/>
	<path id="XMLID_39_" class="st6" d="M96.6,231.5c-5.1,1.8-11.9,2.5-16.5-2.9c-2.5-3-5.6-5.3-7.9-6.7c-0.4,1.5-0.8,3.1-1.5,4.9
		c-2.7,6.6,11.5,10.8,11.5,10.8s5.6,4.9,11.6,2.5c6.3-2.4,9.9-1.9,11-7.6c0.7-3.4,1.1-5.5,1.2-7C103.2,227.2,99.9,230.3,96.6,231.5z
		"/>
	<path id="XMLID_45_" class="st7" d="M75.7,218.7c0,0-0.5-3.5,1.8-4.6c2.2-1.3,3.9-1.5,3.3,0.2c-0.6,1.8-1.6,5.6-3,6
		C76.3,220.5,75.7,218.7,75.7,218.7z"/>
	<path id="XMLID_46_" class="st8" d="M84.1,211.9c2.5-0.8,5.4-0.5,7.7,0.8c0.3,0.2,0.6,0.4,0.9,0.5c1.1,0.4,2.4,0.3,3.4,0.8
		c0.7,0.4,1.2,1.1,1.6,1.8c0.9,1.4,1.7,2.9,2.7,4.2c0.6,0.7,1.2,1.3,1.6,2.1c0.6,1,0.8,2.2,1.1,3.3c-1.4-1.4-3-2.5-4.8-3.3
		c-0.3-0.1-0.8-0.2-1,0c-0.3,0.4,0.2,0.8,0.4,1.1c1.1,1.2,0.7,3.2,1.6,4.6c-1.3-0.9-2-2.4-2.9-3.6c-0.9-1.3-2.2-2.4-3.8-2.5
		c-0.7,0-1.4,0.2-2.1-0.1c-0.7-0.3-1.1-1.1-1.4-1.9c-0.3-0.7-0.6-1.5-0.9-2.2c-0.1-0.4-0.3-0.7-0.6-1c-0.6-0.5-1.5-0.3-2.3-0.4
		c-0.4,0-0.7-0.2-1-0.3c-0.7-0.4-1.2-1.2-1.3-2S83.5,212.3,84.1,211.9"/>
</g>
<g id="Calque_7_-_copie">
	<path id="XMLID_11_" class="st4" d="M252.7,83.8c0,0-12.7-7.5-15.7-1c-3.4,7.3-8.1,10.2-7.2,14.5c0.9,4.2,6.7,16.5,18.3,14.9
		s9.6,1.1,16.3-8.3c3.4-4.7,0.5-7-2-13.2C260.1,84.5,252.7,83.8,252.7,83.8z"/>
	<path id="XMLID_15_" class="st5" d="M252.7,83.8c0,0-12.7-7.5-15.7-1c-3.4,7.3-8.1,10.2-7.2,14.5c0.9,4.2,6.7,16.5,18.3,14.9
		s9.6,1.1,16.3-8.3c3.4-4.7,0.5-7-2-13.2C260.1,84.5,252.7,83.8,252.7,83.8z"/>
	<path id="XMLID_13_" class="st6" d="M238.6,103.9c-2.7-2.3-5.3-9-7.2-11.6c-0.1,0.3-1.8,3.5-1.9,3.8c0,0.3,0.5,0.9,0.5,1.2
		c1,6.1,2.5,7.7,7.5,12.1c4.8,4.4,11.8,1.8,11.8,1.8s11.6,0.9,14.1-3.9c0.2-0.7,1.3-3.5,1.4-4.2c-2.3,2.1-7.6,3.6-11.4,4.6
		C245.4,109.6,242.7,107.4,238.6,103.9z"/>
	<path id="XMLID_10_" class="st7" d="M240.4,83.5c0,0,4.7-1.6,7.5,2c2.9,3.5,4.1,6.3,1.3,5.7c-2.8-0.5-8.8-1.3-10-3.7
		C238.1,84.9,240.4,83.5,240.4,83.5z"/>
	<path id="XMLID_9_" class="st8" d="M235.3,95.1c0.7,2.6,2.5,4.8,5,6c0.3,0.2,0.7,0.3,1,0.5c1,0.6,1.6,1.8,2.6,2.4
		c0.7,0.4,1.6,0.3,2.5,0.3c1.8-0.1,3.6-0.4,5.3-0.2c0.9,0.1,1.9,0.2,2.8,0.1c1.2-0.1,2.4-0.6,3.6-1.1c-2-0.3-3.9-1-5.6-2
		c-0.3-0.2-0.7-0.5-0.5-0.8c0.2-0.4,0.8-0.3,1.3-0.3c1.7,0.2,3.3-1.4,5.1-1.5c-1.5-0.5-3.3-0.3-4.9-0.3c-1.7,0-3.4-0.4-4.3-1.7
		c-0.4-0.6-0.6-1.3-1.2-1.7c-0.7-0.4-1.6-0.3-2.5-0.1c-0.8,0.2-1.7,0.4-2.5,0.6c-0.4,0.1-0.8,0.2-1.2,0.1c-0.8-0.2-1.1-1.1-1.6-1.7
		c-0.2-0.3-0.5-0.5-0.9-0.7c-0.8-0.4-1.7-0.3-2.5,0.1c-0.8,0.4-1.3,1.3-1.1,2.2"/>
</g>
</svg>
