<svg version="1.0" id="圖層_1" xmlns="http://www.w3.org/2000/svg" x="0" y="0" width="300" height="260" style="enable-background:new 0 0 300 260" xml:space="preserve"><style>.st5{fill:none;stroke:#372813;stroke-width:2;stroke-miterlimit:10}.st6{fill:#775923}.st9{opacity:.25;fill:#fece63}</style><g id="Calque_4"><path id="XMLID_10_" d="m246.5 35.2-14.7 22.9-10.1-5.4c-.5-.3-1.1-.5-1.6-.8l-10.6-4.3-1.9-8.4c-.2-.9-.5-1.8-.8-2.7l-3.2-8.5 9.7-4.7 10.5-5.1 1-1.2-25 9.5 1.6 5.4-4.6-.6c-1.2-.1-2.3-.4-3.5-.9l-6.6-2.6-13.9-8.7.1 1 13.1 9.1-1.7 5-6.8-2.3 1 1.3 5.1 2.9-3.4 8.1.3 1.1 2.5-5.5c1.4-3 3.2-5.8 5.5-8.3l.8-.9 13.4 5.4 3.4 11.9-9.3 2.4-12.4 3.3-11.6 25.1 1.5-.7 13.6-23 11-1.4c2.9-.4 5.6-1.3 8.1-2.6l6.4 32.2 1.1.1-1.6-10-.3-2.1 13.1 1.2L238 84.6l-10.4-12 12 1.1c-.1-.6-27.3-4.5-27.4-5.1 0-.4-.1-.8-.1-1.2L211 51.2l21.5 9.4 3.5-4.9c.5-.7 1-1.5 1.4-2.3l8.2-16 .9-2.2z" style="opacity:.15;fill:#020202"/><path id="XMLID_9_" class="st5" d="M197.9 65.7 210.6 47l4.6-.8 1.1.8-.5 6.4-4.7 6.3c-.9.8-3.9 4.5-4.6 5.5-1.5 1.8-1.6 1.9-1.2 2.6.6.9-2.7 3.2-4.8 1.7-3.8-3-2.6-3.8-2.6-3.8z"/><path id="XMLID_8_" class="st6" d="M197.9 65.7 210.6 47l4.6-.8 1.1.8-.5 6.4-4.7 6.3c-.9.8-3.9 4.5-4.6 5.5-1.5 1.8-1.6 1.9-1.2 2.6.6.9-2.4 3.3-4.8 1.7-3.9-2.8-2.6-3.8-2.6-3.8z"/><g id="Calque_2"><path id="XMLID_6_" d="M205.4 67.8c-.4-.6 2-3.5 3.4-5.4.4-.5.8-1 1.2-1.4-2.5.1-4.9-1.1-6-4.3l-6.1 8.9s-1.3 1 2.7 3.9c2.4 1.7 5.4-.7 4.8-1.7z" style="opacity:.27;fill:#342512"/></g><g id="Calque_2_-_copie"><path id="XMLID_85_" d="M205.4 67.8c-.4-.6-.3-.7 1.2-2.6.4-.5.8-.9 1.2-1.3-2.5.1-4.8-1.1-5.9-4.2l-4 6s-1.3 1 2.7 3.9c2.5 1.7 5.4-.8 4.8-1.8z" style="opacity:.24;fill:#342512"/></g><path id="XMLID_2_" class="st5" d="m253.5 32.2-14.7 22.9-10.1-5.4c-.5-.3-1.1-.5-1.6-.8l-10.6-4.3-1.9-8.4c-.2-.9-.5-1.8-.8-2.7l-3.2-8.5 9.7-4.7 10.5-5.1 1-1.2-25 9.5 1.6 5.4-4.6-.6c-1.2-.1-2.3-.4-3.5-.9l-6.6-2.6-13.9-8.7.1 1 13.1 9.1-1.7 5-6.8-2.3 1 1.3 5.1 2.9-3.4 8.1.3 1.1 2.5-5.5c1.4-3 3.2-5.8 5.5-8.3l.8-.9 13.4 5.4 3.4 11.9-9.3 2.4-12.4 3.3-11.6 25.1 1.5-.7 13.6-23 11-1.4c2.9-.4 5.6-1.3 8.1-2.6l6.4 32.2 1.1.1-1.6-10-.3-2.1 13.1 1.2L245 81.6l-10.4-12 12 1.1c-.1-.6-27.3-4.5-27.4-5.1 0-.4-.1-.8-.1-1.2L218 48.2l21.5 9.4 3.5-4.9c.5-.7 1-1.5 1.4-2.3l8.2-16 .9-2.2z"/><path id="XMLID_1_" class="st6" d="m253.5 32.2-14.7 22.9-10.1-5.4c-.5-.3-1.1-.5-1.6-.8l-10.6-4.3-1.9-8.4c-.2-.9-.5-1.8-.8-2.7l-3.2-8.5 9.7-4.7 10.5-5.1 1-1.2-25 9.5 1.6 5.4-4.6-.6c-1.2-.1-2.3-.4-3.5-.9l-6.6-2.6-13.9-8.7.1 1 13.1 9.1-1.7 5-6.8-2.3 1 1.3 5.1 2.9-3.4 8.1.3 1.1 2.5-5.5c1.4-3 3.2-5.8 5.5-8.3l.8-.9 13.4 5.4 3.4 11.9-9.3 2.4-12.4 3.3-11.6 25.1 1.5-.7 13.6-23 11-1.4c2.9-.4 5.6-1.3 8.1-2.6l6.4 32.2 1.1.1-1.6-10-.3-2.1 13.1 1.2L245 81.6l-10.4-12 12 1.1c-.1-.6-27.3-4.5-27.4-5.1 0-.4-.1-.8-.1-1.2L218 48.2l21.5 9.4 3.5-4.9c.5-.7 1-1.5 1.4-2.3l8.2-16 .9-2.2z"/><path id="XMLID_3_" class="st6" d="m207.4 53.4 1.6-5.3 6.3-1.8 1.9 8.6L212 56z"/><path id="XMLID_7_" class="st9" d="m208.8 47.5 4.8-1.2-.1-4.8 2.5 4.2 4.5 2.2-4.8.2 1.5 6.8-4-4.8-8.1-1z"/><path id="XMLID_16_" class="st9" d="m210.7 47.8 3.4-.8.1-3.6 1 2.9 3.8 1.4-4.2.1 1.2 4.9-2.4-4.1-5.9.1z"/><path id="XMLID_4_" class="st9" d="m217.6 20.1-9.4 3.7 2.1 8.6-1.1-8.1z"/><path id="XMLID_11_" class="st9" d="m248.5 41.5-8.9 15.4-9.9-5.1 9.4 3.8z"/><path id="XMLID_14_" class="st9" d="m235.6 69.2-17-1.3-1-8.4 1.7 7.2z"/><path id="XMLID_12_" class="st9" d="m186.8 21.1 8.4 5.6-4.3 7.8 3.2-7.6z"/><path id="XMLID_13_" class="st9" d="m184.4 68.2 8.1-17.2 9.4-1.3-8.7 2.1z"/></g></svg>