<svg version="1.0" id="圖層_1" xmlns="http://www.w3.org/2000/svg" x="0" y="0" width="300" height="260" style="enable-background:new 0 0 300 260" xml:space="preserve"><style>.st10,.st9{opacity:.81;fill:#f1f2f2;enable-background:new}.st10{opacity:.34}</style><g id="water5"><path id="XMLID_24_" d="M92.6 231.3c56.5 32.6 128.8 13.3 161.4-43.2s13.3-128.8-43.2-161.4C193.9 17 175.7 11.9 157.5 11c0 0-50.2-2.6-78.1-7.8-7.2-1.4-7.9 9.9-10.9 8.2L6.7 115.2c2.2 1.3-7 6.5-3.7 10.1C21.3 145.1 52.3 193 52.3 193c9.9 15.3 23.5 28.5 40.3 38.3z" style="fill:#ccbc5c"/><path id="XMLID_137_" d="M95.9 224.6c53 30.6 120.7 12.4 151.3-40.5s12.4-120.7-40.5-151.3c-15.8-9.1-32.9-13.9-50-14.7 0 0-47.1-2.4-73.3-7.3-6.7-1.3-7.9-.4-10.7-2l-66 109.4c2.1 1.2 2.1 3.8 5.3 7.1 17.2 18.6 46.2 63.4 46.2 63.4 9.2 14.4 21.9 26.8 37.7 35.9z" style="opacity:.58;fill:#3b2416;enable-background:new"/><path id="XMLID_138_" d="M94.8 227.2c54.3 31.4 123.8 12.7 155.1-41.6s12.7-123.8-41.6-155.1c-16.2-9.4-33.8-14.3-51.2-15.1 0 0-48.3-2.5-75.1-7.5-6.9-1.3-8.1-.4-11-2L3.3 118c2.1 1.3 2.2 3.8 5.4 7.3 17.6 19 47.4 65 47.4 65 9.4 14.8 22.5 27.5 38.7 36.9z" style="opacity:.12;enable-background:new"/><path id="XMLID_136_" d="M96.7 222.4c51.9 29.9 118.2 12.2 148.1-39.7S257 64.5 205.1 34.6c-15.5-8.9-32.2-13.6-48.9-14.4 0 0-72.8-3.7-86.3-11.4L6.7 118.2c13.4 7.8 53 69 53 69 9.1 14.1 21.5 26.2 37 35.2z" style="fill:#1f64af"/><radialGradient id="XMLID_2_" cx="150" cy="130" r="82.364" gradientTransform="matrix(1 0 0 -1 0 260)" gradientUnits="userSpaceOnUse"><stop offset="0" style="stop-color:#1b1a52"/><stop offset=".359" style="stop-color:#1a1950;stop-opacity:.6407"/><stop offset=".634" style="stop-color:#17184b;stop-opacity:.3659"/><stop offset=".88" style="stop-color:#101542;stop-opacity:.1198"/><stop offset="1" style="stop-color:#0b123d;stop-opacity:0"/></radialGradient><path id="XMLID_196_" d="M232.4 127.9c1.2 46.1-35.7 84.4-82.4 84.4S66.4 174 67.6 127.9c1.2-44.8 38-80.2 82.4-80.2s81.3 35.4 82.4 80.2z" style="opacity:.75;fill:url(#XMLID_2_);enable-background:new"/><g id="圖層_2_拷貝_2"><ellipse id="XMLID_134_" class="st10" cx="93.2" cy="86.8" rx="5.9" ry="2.9"/><ellipse id="XMLID_133_" class="st10" cx="121.6" cy="100.5" rx="4" ry="2.2"/><ellipse id="XMLID_131_" class="st10" cx="166.6" cy="91.8" rx="4" ry="2.2"/><ellipse id="XMLID_128_" class="st10" cx="180" cy="125.9" rx="4" ry="2.2"/><ellipse id="XMLID_125_" class="st10" cx="134.2" cy="137.2" rx="4" ry="2.2"/><ellipse id="XMLID_104_" class="st10" cx="110.1" cy="148.5" rx="2.6" ry="1.2"/><ellipse id="XMLID_102_" class="st10" cx="165" cy="160.2" rx="4" ry="2.2"/><ellipse id="XMLID_78_" class="st10" cx="99.1" cy="173.2" rx="4" ry="2.2"/></g></g></svg>