<svg version="1.0" id="圖層_1" xmlns="http://www.w3.org/2000/svg" x="0" y="0" width="300" height="260" style="enable-background:new 0 0 300 260" xml:space="preserve"><style>.st0{fill:#009444;stroke:#414042;stroke-width:2;stroke-miterlimit:10}.st1{opacity:.17;enable-background:new}.st2{fill:#39b54a}</style><g id="圖層_3"><path id="XMLID_44_" class="st0" d="M182.3 46.4c-4.9 0-9.3 2.4-11.9 6.2 3.1 3.8 11.9 8.3 11.9 8.3-3.2 3.4-9.3 5.4-13.3 6.4 2.3 5 7.4 8.5 13.3 8.5 8.1 0 14.7-6.6 14.7-14.7s-6.6-14.7-14.7-14.7z"/><path id="XMLID_48_" class="st1" d="M171.9 68.3c4-1 10.1-3 13.3-6.4 0 0-8.8-4.5-11.9-8.3 2.7-3.7 7-6.2 11.9-6.2 1.4 0 2.7.2 4 .6-2-1.1-4.4-1.7-6.9-1.7-4.9 0-9.3 2.4-11.9 6.2 3.1 3.8 11.9 8.3 11.9 8.3-3.2 3.4-9.3 5.4-13.3 6.4 1.8 3.9 5.2 6.8 9.4 8-2.9-1.6-5.1-4-6.5-6.9z"/><path id="XMLID_14_" class="st2" d="M182.6 62s2.4 4.6 0 11.2c.8-1 3.1-6.1 0-11.2z"/><path id="XMLID_45_" class="st2" d="M182.6 48.1s2.4 4.6 0 11.2c.8-1 3.1-6.1 0-11.2z"/><path id="XMLID_42_" class="st2" d="M184.8 60.7s4.6-1.8 11.2 0c-.9-.6-5.8-2.3-11.2 0z"/></g><g id="圖層_3_拷貝"><path id="XMLID_58_" class="st0" d="M223.3 184.3c3-3.9 3.7-8.8 2.4-13.2-4.9.1-13.8 4.4-13.8 4.4-.7-4.6 1.4-10.6 3-14.4-5.4-1.2-11.3.7-14.9 5.4-4.9 6.4-3.7 15.6 2.7 20.6 6.5 4.8 15.7 3.6 20.6-2.8z"/><path id="XMLID_49_" class="st1" d="M212.3 162.7c-1.7 3.8-3.7 9.8-3 14.4 0 0 8.9-4.3 13.8-4.4 1.3 4.4.6 9.3-2.4 13.2-.8 1.1-1.8 2-2.9 2.8 2.1-1 4-2.4 5.5-4.4 3-3.9 3.7-8.8 2.4-13.2-4.9.1-13.8 4.4-13.8 4.4-.7-4.6 1.4-10.6 3-14.4-4.1-.9-8.6 0-12 2.6 3-1.4 6.3-1.7 9.4-1z"/><path id="XMLID_47_" class="st2" d="M210.8 175s-5.2-.9-8.9-6.8c.3 1.2 2.9 6.1 8.9 6.8z"/><path id="XMLID_46_" class="st2" d="M221.8 183.4s-5.2-.9-8.9-6.8c.4 1.3 3 6.2 8.9 6.8z"/><path id="XMLID_40_" class="st2" d="M210.5 177.5s-1.4 4.8-6.8 8.9c1-.3 5.3-3.2 6.8-8.9z"/></g></svg>