<svg version="1.0" id="圖層_1" xmlns="http://www.w3.org/2000/svg" x="0" y="0" width="300" height="260" style="enable-background:new 0 0 300 260" xml:space="preserve"><style>.st0{fill:#594a42}</style><g id="圖層_20"><g id="圖層_21"><path id="XMLID_108_" class="st0" d="m193.9 123.4-3.7 7.5 1.4.5.5 1.7 2.8.6.5 2 5.6 3.5 3.7-2-1.6-1.5 1.2-1.3.8-2.4 4.7-2.6v-2.9l-2.4-.1-2.3 1h-1.9l-1.3 1z"/><path id="XMLID_7_" class="st0" d="m207.6 133.7 1.8-1.3.4 2.1-1.4.9z"/><path id="XMLID_113_" class="st0" d="m191.1 122-3.7 7.7h-4.3s-1.2-1.6-.6-1.4-2.5-1.8-2.5-1.8l-6.4-.3-.9-.9.7-1.3-1.8.1v1.8h-.9l-.8-6.5 10.6-6.2 10.6 8.5v.3z"/><path id="XMLID_114_" class="st0" d="M190.7 117.5v-1.8l.4-1.3h.9s-.3-1.5-.2-1.5 1.3-.7 1.3-.7l-.4-1.7 1.6-2.3 6.6 3.8 3.8.3.2 1-3.2.4.3 1.7 3.6-.1.4 1.2-3.1.5-.7 1h-1.4l-1.9-1.5-1.3 1.5 3 1.3 2.8-.6.5.3.2 1.6 1 1.5-4.7 2.9-9.7-7.5z"/><path id="XMLID_116_" class="st0" d="m208.9 118.8.5-2.4.6 1.9-.2 2.4h-.4z"/><path id="XMLID_115_" class="st0" d="m206.4 120.7-.5.8.5 1 .8-1.3s-1-.4-.8-.5z"/><path id="XMLID_168_" class="st0" d="m187.6 115.4 3.1-7.1v-2.6l-8.5-7.1-5.2 2.4v1.8s1.2.3 1.3.3c.1.1-.5.6-.5.6l-.8.2.3 1v1.6l-4.4-.1-.5-1.8-.6.4v3.6l4.8.5-1.3.9-1.4.8 1.8.3 2.2-.2 1.1-.1 1.1-.3 7.5 4.9z"/><path id="XMLID_170_" class="st0" d="m191.1 102 .1-2 .7-.9s-.1-.8 0-.8.5-.2.5-.2l.7-1.7h1.6l-.4-1.4s-.3-1.3-.2-1.3 1.4-1 1.4-1l.8 1.6h1.3l4.5 2.7 3.6-.1 1.3 2.7-1.6.5.1.9-.5.7-1.8 1.3-3.9-1.2-.1 1.3 1.8 1.3 1.4-.1-.1.8 1.3.9 1.7 1.2-3.3 2.8h-1.7l-2.8-2.7-1.8-1.1-1.5-1.8-1.1.2-2-2.6z"/><path id="XMLID_173_" class="st0" d="m188.7 100.3.3-1.3 1-1.3V96l-.4-.8 1-1 1.8-1.9-.4-1.7-8.1-7-2.5-.3-1.7 1.2-1 1.4v1.6l-2 .7s-1.5.1-1.4.1-1-.8-1-.8l-1.1-.3-1.3 2.2v3.3l.8 2.5s-1 1-.8 1.3 3.3.3 3.3.3v-1l-.5-1-.8-1.6-.2-3 1-.8 2.3.4.7 1.5-.7.9 1 1.1-.7 1.3.1 1.3h1.8l.8-.9 6.3 4.3 1.3 1.1 1.1-.1z"/><path id="XMLID_171_" class="st0" d="M172.7 74.4s-.3 4 0 4.4 2.1-1.1 2.4-1 .9 1.7.9 1.7 2 .8 2.3 1 3 0 3 0l6.8 4.1 2-.4v-2.1l1.2-1.1s-.3-1.9-.1-2 .8-1.7.8-1.7v-3.8l-16.9-6-2.4 6.9z"/><path id="XMLID_203_" class="st0" d="m191.9 87.1 1.4-3.4v-1.4l.9-1.3-.4-2.1 1.3-2.2 4.8 3.9s4.2 1.3 4.4 1.3 7.4-.6 7.4-.6v7.9l-1.4.4-1.6 1-3.8 2.1-2.6 1.3-1.1-.8-2.2-.1-2-1.3s-1.6-1.9-1.3-1.9 0-2.7 0-2.7l.6-2.3.4-2.4.3-2.2-1.3-.1-.2 3.1-.4 1-.3 1.9-.1 1.6-.9.8-1.9-1.5z"/><path id="XMLID_205_" class="st0" d="M210 96.3s-1.2.9-1 1.3c.3.3.8 2.3.8 2.3l-.4 1.4.6.6.2 1.3.9-1v-2.7l-.8-1.3.5-1.3-.8-.6z"/><path id="XMLID_164_" class="st0" d="m189.2 37-1.2-2.2 1.9-.3-1-1-.3-1.1h.8l1 .2.2-1.1-2-.2-.2-1.8 2.6-.5v-.6l1.8-.2s.6-.8.7-.8 12.6 10 12.6 10l-16.9-.4z"/><path id="XMLID_163_" class="st0" d="m201.9 24.5-.3 1.6h-.7l-.5 2.7-2.7-1-4.8-4.1-1.8-.2-.9-.8-.7-1.3-1-.4 1.3-1.4 2.4-.1V17l-1.5 1.3-3.1.6-2.1 1.2 1.3 4.8-2.4.2-.4-7.4.8-1.3 2.8.2 2.3-.2.3-2.8 1.8-1.2 3.1.2 8.9 6.7z"/><path id="XMLID_165_" class="st0" d="m202.4 31.3.2-2 .8-.9.8-1.4v-1l1.3-.6.8-.2.3-2 3 .2 4.6 2.8 4.4-.8.5 2.8-2.3.6-.3 2.2-3 .3-2.3-.9-.4 1.8s2.9 1.1 3 1.1.7 1.2.7 1.2l2.6 1.2-2.3 2.3-1.6.9-6.8-5-2.2-1.1-1.8-1.5z"/><path id="XMLID_166_" class="st0" d="m221.2 25.9.5 3.2-.5 1 1.2 1.7.7-2.4-.7-4.7z"/></g><g id="water1_拷貝"><path id="XMLID_15_" class="st0" d="M221.9 69.5c-1.1 5.5-4.8 10.6-10 14.3-11.8 7.9-27.6 8.4-38-2.1-8.5-9.9-8.3-24.4 0-34.5 8.9-8.8 20.8-13.6 33.5-10.7 12.4 3.8 19.5 18.4 15.1 30.6-.1.8-.3 1.6-.6 2.4z"/><path id="XMLID_13_" d="M219.8 70.2c-7.5 18.9-33.3 24.7-46.1 8.3-10.9-15.8.7-33.2 16.9-38.8 15-4.9 33.3 3.8 31.1 21 0 3.1-.6 6.3-1.9 9.5z" style="opacity:.58;fill:#3c2415;enable-background:new"/><path id="XMLID_12_" d="M220.5 70.4c-5.4 13.3-20.7 22.2-34.8 16.9-8.3-3.6-15.8-10-17.3-18.8-2-14.2 11-25.9 23.8-30.4 15-4.9 34.7 6.3 30.2 22.5 0 3.2-.7 6.5-1.9 9.8z" style="opacity:.12;fill:#030302;enable-background:new"/><path id="XMLID_11_" d="M219.4 70c-2.7 15.2-21.9 19.8-34.3 16-6.7-2-11.3-7.6-13.4-14.5-6.3-20.7 15.8-34.9 33.9-32.6 9.9 1.9 18.7 10.9 15.8 21.8-.2 3.1-.8 6.3-2 9.3z" style="fill:#3f85c6"/><path id="XMLID_10_" d="M215.1 68.1c-3.1 8.3-11.2 14.3-20.4 13.6-11.1-1.3-21.8-10.8-17.4-22 3.2-10.5 14.4-16.5 25.5-15.3 9.2.7 15.4 7.8 13.7 16.6 0 2.4-.5 4.8-1.4 7.1z" style="opacity:.75;fill:#206fb5;enable-background:new"/></g></g></svg>