<svg version="1.0" id="圖層_1" xmlns="http://www.w3.org/2000/svg" x="0" y="0" width="300" height="260" style="enable-background:new 0 0 300 260" xml:space="preserve"><style>.st5{fill:#fff}.st6{fill:#353535}.st7{fill:#3f403f}.st8{fill:#eaeaea}.st11{fill:#8c8c8c}</style><g id="Calque_4_-_copie"><g id="Calque_2_-_copie_2"><path id="XMLID_33_" d="M109.1 13.5s.2.1.5.4c-.2-.2-.4-.3-.6-.5 0 0 19.3 15.5.7 25.5-2.2-1.1-4.4-1.8-5.9-2.3-4.3-1.4-6.7 3.5-6.7 3.5s-5.3-1.6-7.1 2.6c-.6 1.5-1.5 3.6-2.2 5.9-19.4 6.7-19.1-15.8-19.1-15.8C65 50 71.3 59.5 86.8 54.7c-.1 2.5.2 4.1 1.8 5.7 1.5 1.5 4.1 3.6 6.9 6 .3.2.6.5.8.7l.2.2c.2.2.5.4.7.6.1.1.2.1.2.2.2.2.5.4.7.6.1 0 .1.1.2.1l2.7 2.4c.3.3.6.5.9.8 2.6 2.4 4 5 5 6.7.1.2.3.5.4.7.9 2 .6 3.4 2.2 4.5 2.4 1.7 3.1-1.2 5.8-2.3 2.7-1.3 5.3.1 5.7-2.7.2-1.9-1.1-2.6-2-4.6l-.3-.9v-.1c-1.5-5.6-.7-20.1-.9-25.7-.1-2.3-.6-4-2.5-5.5 10.4-5.9 13.7-16-6.2-28.6z" style="opacity:.5;fill:#303030;stroke:#303030;stroke-width:3;stroke-miterlimit:10"/></g></g><g id="Calque_4"><path id="XMLID_24_" class="st5" d="M103.7 37.8c-3.9-1.3-6.2 3.3-6.2 3.3s-4.9-1.4-6.6 2.4c-1.7 3.8-5.2 12.4-1.2 16.3 4 3.9 16.2 13 18 17.2.8 1.8-.2 3.4 1.2 4.4 2.2 1.5 2.8-1.1 5.4-2.1 2.5-1.2 4.9.1 5.2-2.5.2-1.8-1.6-2.1-2.4-3.9-1.9-4.1-.4-19.3-.6-24.9-.2-5.7-8.9-8.8-12.8-10.2z"/><path id="XMLID_23_" class="st6" d="M96.6 56.9c1.5 2.1 1.3 4 .7 4.4s-2.3-.9-3.8-2.9c-1.5-2.1-2.3-4.1-1.7-4.5.6-.5 3.3 1 4.8 3z"/><path id="XMLID_22_" class="st7" d="M95.3 56.1c.9 1.3.8 2.4.4 2.7-.4.3-1.4-.5-2.3-1.8-.9-1.3-1.4-2.5-1-2.8.3-.2 2 .7 2.9 1.9z"/><path id="XMLID_21_" class="st6" d="M109.5 51.2c.5 2.5 2 3.6 2.8 3.5.7-.1.9-2.3.4-4.8s-1.5-4.4-2.2-4.3c-.8.2-1.5 3.1-1 5.6z"/><path id="XMLID_20_" class="st7" d="M109.8 49.8c.3 1.5 1.2 2.2 1.7 2.1s.6-1.4.3-2.9-.9-2.7-1.3-2.6c-.6 0-1 1.8-.7 3.4z"/><path id="XMLID_19_" class="st8" d="M97.2 63.3 96 65.2c4.5 3.8 9.7 8.3 11.3 11.1-.1-1.5-.6-3.9-2.8-7.6-4-7.3-7.3-5.4-7.3-5.4z"/><path id="XMLID_18_" class="st8" d="m114.1 55.8 2.2.5c-.2 5.9-.4 12.7.5 15.8-1.1-1-2.5-3.1-3.8-7.2-2.5-7.9 1.1-9.1 1.1-9.1z"/><path id="XMLID_17_" class="st6" d="M111.5 76.6c.6 1.3.5 2.5-.1 2.8-.6.3-1.5-.6-2.1-1.8-.6-1.3.3-.7.9-.9.6-.4.7-1.4 1.3-.1z"/><path id="XMLID_16_" class="st6" d="M116.4 74.4c.6 1.3.5 2.5-.1 2.8-.6.3-1.5-.6-2.1-1.8s.3-.7.9-.9c.6-.3.7-1.4 1.3-.1z"/><path id="XMLID_14_" d="M100.3 43.5c-3.2-3.5-.9 1.9-.9 1.9s-2.4-5.3-2-.6c.4 4.7 7 12 7 12s-.9-9.8-4.1-13.3z" style="fill:#cfcece"/><g id="Calque_2"><path id="XMLID_32_" class="st11" d="M68.6 33.3s-3.2 26.4 22.8 15.1c0 0 2.1 3.1-.4 4.2-2.6 1.1-26.6 12.8-22.4-19.3z"/><path id="XMLID_31_" class="st5" d="M68.6 33.1s-2.6 25.8 22.2 15c0 0 2 2.9-.4 4-2.4 1.2-25.8 11.8-21.8-19z"/></g><g id="Calque_2_-_copie"><path id="XMLID_30_" class="st11" d="M110.8 14.7s21.6 15.5-4.2 27c0 0 .8 3.6 3.4 2.6s27.4-11 .8-29.6z"/><path id="XMLID_29_" class="st5" d="M110.7 14.6s20.9 15.5-3.8 26.5c0 0 .8 3.5 3.2 2.4 2.4-1 26-11.1.6-28.9z"/></g></g><g id="Calque_7_-_copie"><path id="XMLID_11_" d="M247.5 106.2s-12.7-7.5-15.7-1c-3.4 7.3-8.1 10.2-7.2 14.5.9 4.2 6.8 16.5 18.3 14.9s9.6 1.1 16.3-8.3c3.4-4.7.5-7-2-13.2-2.3-6.2-9.7-6.9-9.7-6.9z" style="fill:none;stroke:#441817;stroke-width:8;stroke-miterlimit:10"/><path id="XMLID_2_" d="M247.5 106.2s-12.7-7.5-15.7-1c-3.4 7.3-8.1 10.2-7.2 14.5.9 4.2 6.8 16.5 18.3 14.9s9.6 1.1 16.3-8.3c3.4-4.7.5-7-2-13.2-2.3-6.2-9.7-6.9-9.7-6.9z" style="fill:#a56d67"/><path id="XMLID_1_" d="M233.4 126.3c-2.7-2.3-5.3-9-7.2-11.6-.1.3-1.8 3.5-1.9 3.8 0 .3.5.9.5 1.2 1 6.1 2.5 7.7 7.5 12.1 4.8 4.4 11.8 1.8 11.8 1.8s11.6.9 14.1-3.9c.2-.7 1.3-3.5 1.4-4.2-2.3 2.1-7.6 3.6-11.4 4.6-7.9 1.9-10.6-.3-14.8-3.8z" style="opacity:.52;fill:#825656"/><path id="XMLID_10_" d="M235.2 105.9s4.7-1.6 7.5 2c2.9 3.5 4.1 6.3 1.3 5.7s-8.8-1.3-10-3.7c-1.1-2.6 1.2-4 1.2-4z" style="opacity:.18;fill:#fff;enable-background:new"/><path id="XMLID_9_" d="M230.1 117.5c.7 2.6 2.5 4.8 5 6 .3.2.7.3 1 .5 1 .6 1.6 1.8 2.6 2.4.7.4 1.6.3 2.5.3 1.8-.1 3.6-.4 5.3-.2.9.1 1.9.2 2.8.1 1.2-.1 2.4-.6 3.6-1.1-2-.3-3.9-1-5.6-2-.3-.2-.7-.5-.5-.8.2-.4.8-.3 1.3-.3 1.7.2 3.3-1.4 5.1-1.5-1.5-.5-3.3-.3-4.9-.3-1.7 0-3.4-.4-4.3-1.7-.4-.6-.6-1.3-1.2-1.7-.7-.4-1.6-.3-2.5-.1-.8.2-1.7.4-2.5.6-.4.1-.8.2-1.2.1-.8-.2-1.1-1.1-1.6-1.7-.2-.3-.5-.5-.9-.7-.8-.4-1.7-.3-2.5.1s-1.3 1.3-1.1 2.2" style="opacity:.36;fill:#773919"/></g></svg>