<svg version="1.0" id="圖層_1" xmlns="http://www.w3.org/2000/svg" x="0" y="0" width="300" height="260" style="enable-background:new 0 0 300 260" xml:space="preserve"><style>.st0{display:none}.st1{display:inline}.st2{fill:#303030}.st4{opacity:.2;fill:#fff}.st5{fill:#414042}.st11{opacity:.3}.st12{fill:#e2e2e2}.st13{fill:none;stroke:#414042;stroke-miterlimit:10}.st14{opacity:.3;fill:#e2e2e2}.st15,.st16{opacity:.3;fill:#9b9a9a}.st16{fill:#414042}.st20,.st21{opacity:.5}.st21{fill:#e2e2e2}.st22,.st23{opacity:.5;fill:#9b9a9a}.st23{fill:#414042}.st27,.st28{opacity:.75}.st28{fill:#e2e2e2}.st29,.st30{opacity:.75;fill:#9b9a9a}.st30{fill:#414042}.st34{fill:#9b9a9a}</style><g id="turrel1"><g id="cannon_-_copie_4"><g id="long_-_copie_4"><path id="XMLID_38_" class="st2" d="M132.2 58.4H167v40.4h-34.8z"/><radialGradient id="XMLID_52_" cx="149.603" cy="-16188.064" r="25.508" gradientTransform="matrix(1 0 0 -.6177 0 -9920.422)" gradientUnits="userSpaceOnUse"><stop offset="0" style="stop-color:#d6d5d5"/><stop offset=".321" style="stop-color:#d4d3d2"/><stop offset=".542" style="stop-color:#cccaca"/><stop offset=".732" style="stop-color:#bebdbd"/><stop offset=".903" style="stop-color:#acabab"/><stop offset="1" style="stop-color:#9f9e9e"/></radialGradient><path id="XMLID_37_" style="fill:url(#XMLID_52_)" d="M134.4 58.4h30.4v40.4h-30.4z"/><path id="XMLID_36_" class="st4" d="M157.2 63.7h7.6v31.8h-7.6z"/></g><g id="bottom_-_copie_4"><path id="XMLID_35_" class="st5" d="M119.3 93.5H180v12.2h-60.7z"/><radialGradient id="XMLID_54_" cx="149.653" cy="-16221.897" r="20.082" gradientTransform="matrix(1 0 0 -1 0 -16122)" gradientUnits="userSpaceOnUse"><stop offset="0" style="stop-color:#d6d5d5"/><stop offset=".321" style="stop-color:#d4d3d2"/><stop offset=".542" style="stop-color:#cccaca"/><stop offset=".732" style="stop-color:#bebdbd"/><stop offset=".903" style="stop-color:#acabab"/><stop offset="1" style="stop-color:#9f9e9e"/></radialGradient><path id="XMLID_34_" style="fill:url(#XMLID_54_)" d="M121.6 95.4h56.1v8.9h-56.1z"/><path id="XMLID_33_" class="st4" d="M122.6 101.8h54.1v2.4h-54.1z"/></g><g id="top_-_copie_4"><path id="XMLID_32_" class="st2" d="M124.9 54.9h50.6v21.7h-50.6z"/><radialGradient id="XMLID_56_" cx="150.203" cy="-16187.73" r="17.269" gradientTransform="matrix(1 0 0 -1 0 -16122)" gradientUnits="userSpaceOnUse"><stop offset="0" style="stop-color:#d6d5d5"/><stop offset=".321" style="stop-color:#d4d3d2"/><stop offset=".542" style="stop-color:#cccaca"/><stop offset=".732" style="stop-color:#bebdbd"/><stop offset=".903" style="stop-color:#acabab"/><stop offset="1" style="stop-color:#9f9e9e"/></radialGradient><path id="XMLID_31_" style="fill:url(#XMLID_56_)" d="M127.2 57.4h45.9V74h-45.9z"/><path id="XMLID_30_" class="st4" d="M128.3 69.4h43.9V73h-43.9z"/></g></g><g id="圖層_2_拷貝"><g id="XMLID_452_"><path id="XMLID_486_" class="st12" d="M196.1 63.8c-6.4 0-12.6-4.3-17.1-7.4-.7-.5-1.3-.9-1.9-1.3l.4-1.8c3.3-.6 5.1-2.4 6-3.9 1.4-2.1 1.6-4.5 1.3-5.5l.5-1.1c1.1-.6 1.6-8.3-2-15.2l.1-1c5-7-4.6-18.9-4.7-19l.2-1.4c.2-.2 5.3-3.9 11.7-4.3h.7c4.9 0 8.1 3.2 9.3 4.6.4-.1.9-.2 1.6-.2 1.4 0 2.8.4 4.3 1.3 3.2 1.9 3.3 5.3 3.1 7 2.1.9 7.5 3.6 8.3 9 .7 5.1-3.3 10.2-5.2 12.2 1.8 1.4 3.9 4.3 2.9 8.3-1.1 4.3-6.3 7.4-9 8.8.8.7 1.5 1.6 1.6 2.9.1 2.1-1.6 4.2-5 6.3-2.2 1-4.6 1.7-7.1 1.7z"/><path id="XMLID_458_" class="st13" d="M196.1 63.8c-6.4 0-12.6-4.3-17.1-7.4-.7-.5-1.3-.9-1.9-1.3l.4-1.8c3.3-.6 5.1-2.4 6-3.9 1.4-2.1 1.6-4.5 1.3-5.5l.5-1.1c1.1-.6 1.6-8.3-2-15.2l.1-1c5-7-4.6-18.9-4.7-19l.2-1.4c.2-.2 5.3-3.9 11.7-4.3h.7c4.9 0 8.1 3.2 9.3 4.6.4-.1.9-.2 1.6-.2 1.4 0 2.8.4 4.3 1.3 3.2 1.9 3.3 5.3 3.1 7 2.1.9 7.5 3.6 8.3 9 .7 5.1-3.3 10.2-5.2 12.2 1.8 1.4 3.9 4.3 2.9 8.3-1.1 4.3-6.3 7.4-9 8.8.8.7 1.5 1.6 1.6 2.9.1 2.1-1.6 4.2-5 6.3-2.2 1-4.6 1.7-7.1 1.7z"/></g><path id="XMLID_451_" class="st12" d="M179.5 6.8s10.3 12.5 4.8 20.3c3.6 6.9 3.6 15.4 1.6 16.5.6 2.3-.9 9.4-8.1 10.6 6 4 15.9 12.1 24.9 6.8s1.9-8.5 1.9-8.5 8.8-3.5 10.1-8.9-3.5-7.9-3.5-7.9 6.6-6.2 5.8-12.2-8.4-8.5-8.4-8.5 1.1-4.6-2.5-6.8-5.8-.7-5.8-.7-3.5-5.1-9.6-4.8-11.2 4.1-11.2 4.1z"/><path id="XMLID_450_" class="st34" d="M192.1 61c9-5.4 1.9-8.5 1.9-8.5s8.8-3.5 10.1-8.9-3.5-7.9-3.5-7.9 6.6-6.2 5.8-12.2S198 15 198 15s1.1-4.6-2.5-6.8-5.8-.7-5.8-.7-1.5-2.2-4.4-3.6c1.6-.5 3.3-1 5.2-1.1 6.1-.4 9.6 4.8 9.6 4.8s2.1-1.4 5.8.7 2.5 6.8 2.5 6.8 7.5 2.5 8.4 8.5-5.8 12.2-5.8 12.2 4.9 2.5 3.5 7.9-10.1 8.9-10.1 8.9 7.1 3.1-1.9 8.5c-4 2.4-8.1 2.1-12 .8.6-.4 1.1-.6 1.6-.9z"/><path id="XMLID_444_" class="st5" d="M196.7 29.1s4.3-12-9-15.1c5-2.4 16.3 3.8 9 15.1z"/><path id="XMLID_443_" class="st5" d="M188.5 52.2s11.2-6.4 6.6-16.3c4.9 2.5 5.6 14.2-6.6 16.3z"/></g><g id="圖層_2_5_"><g id="XMLID_449_"><path id="XMLID_455_" class="st12" d="M102.5 63.4c-2.5 0-4.8-.6-6.9-1.9-3.5-2.1-5.2-4.2-5-6.3.1-1.3.8-2.3 1.6-2.9-2.7-1.4-7.9-4.5-9-8.8-1-4 1.1-6.9 2.9-8.3-1.9-2-5.9-7.1-5.2-12.2.8-5.4 6.2-8.1 8.3-9-.2-1.6-.1-5.1 3.1-7 1.5-.9 3-1.3 4.3-1.3.7 0 1.2.1 1.6.2 1.2-1.4 4.4-4.6 9.3-4.6h.7c6.4.4 11.5 4.2 11.7 4.3l.2 1.4c-.1.1-9.7 12-4.7 19l.1 1c-3.6 6.9-3.1 14.5-2 15.2l.5 1.1c-.3.9 0 3.3 1.3 5.5.9 1.5 2.7 3.3 6 3.9l.4 1.8c-.6.4-1.2.8-1.9 1.3-4.8 3.3-11 7.6-17.3 7.6z"/><path id="XMLID_454_" class="st13" d="M102.5 63.4c-2.5 0-4.8-.6-6.9-1.9-3.5-2.1-5.2-4.2-5-6.3.1-1.3.8-2.3 1.6-2.9-2.7-1.4-7.9-4.5-9-8.8-1-4 1.1-6.9 2.9-8.3-1.9-2-5.9-7.1-5.2-12.2.8-5.4 6.2-8.1 8.3-9-.2-1.6-.1-5.1 3.1-7 1.5-.9 3-1.3 4.3-1.3.7 0 1.2.1 1.6.2 1.2-1.4 4.4-4.6 9.3-4.6h.7c6.4.4 11.5 4.2 11.7 4.3l.2 1.4c-.1.1-9.7 12-4.7 19l.1 1c-3.6 6.9-3.1 14.5-2 15.2l.5 1.1c-.3.9 0 3.3 1.3 5.5.9 1.5 2.7 3.3 6 3.9l.4 1.8c-.6.4-1.2.8-1.9 1.3-4.8 3.3-11 7.6-17.3 7.6z"/></g><path id="XMLID_448_" class="st12" d="M119.1 6.5s-10.3 12.5-4.8 20.3c-3.6 6.9-3.6 15.4-1.6 16.5-.6 2.3.9 9.4 8.1 10.6-6 4-15.9 12.1-24.9 6.8S94 52.2 94 52.2s-8.8-3.5-10.1-8.9 3.5-7.9 3.5-7.9-6.6-6.3-5.8-12.3 8.4-8.5 8.4-8.5-1-4.6 2.6-6.8 5.8-.8 5.8-.8 3.5-5.1 9.6-4.8 11.1 4.3 11.1 4.3z"/><path id="XMLID_447_" class="st34" d="M106.5 60.6c-9-5.4-1.9-8.5-1.9-8.5s-8.8-3.5-10.1-8.9 3.5-7.9 3.5-7.9S91.4 29 92.2 23s8.4-8.5 8.4-8.5-1.1-4.6 2.5-6.7 5.8-.8 5.8-.8 1.5-2.2 4.4-3.6c-1.6-.5-3.3-1-5.2-1.1-6.1-.4-9.6 4.8-9.6 4.8s-2.1-1.4-5.8.8-2.5 6.7-2.5 6.7-7.5 2.5-8.4 8.5 5.8 12.3 5.8 12.3-4.9 2.5-3.5 7.9 10.1 8.9 10.1 8.9-7.2 3 1.8 8.4c4 2.4 8.1 2.1 12 .8-.5-.3-1-.5-1.5-.8z"/><path id="XMLID_446_" class="st5" d="M101.9 28.7s-4.3-12 9-15.1c-5-2.4-16.3 3.8-9 15.1z"/><path id="XMLID_445_" class="st5" d="M110.1 51.8s-11.2-6.4-6.6-16.3c-4.9 2.5-5.6 14.3 6.6 16.3z"/></g></g></svg>