<svg version="1.0" id="圖層_1" xmlns="http://www.w3.org/2000/svg" x="0" y="0" width="300" height="260" style="enable-background:new 0 0 300 260" xml:space="preserve"><style>.st0{display:none}.st1{display:inline}.st2{fill:#303030}.st4{opacity:.2;fill:#fff}.st5{fill:#414042}.st11{opacity:.3}.st12{fill:#e2e2e2}.st13{fill:none;stroke:#414042;stroke-miterlimit:10}.st14{opacity:.3;fill:#e2e2e2}.st15,.st16{opacity:.3;fill:#9b9a9a}.st16{fill:#414042}.st20,.st21{opacity:.5}.st21{fill:#e2e2e2}.st22,.st23{opacity:.5;fill:#9b9a9a}.st23{fill:#414042}.st27,.st28{opacity:.75}.st28{fill:#e2e2e2}.st29,.st30{opacity:.75;fill:#9b9a9a}.st30{fill:#414042}.st34{fill:#9b9a9a}</style><g id="turrel2"><g id="cannon_-_copie_3"><g id="long_-_copie_3"><path id="XMLID_29_" class="st2" d="M132.2 47.7H167v51.1h-34.8z"/><radialGradient id="XMLID_49_" cx="149.603" cy="-16188.064" r="25.508" gradientTransform="matrix(1 0 0 -.7812 0 -12572.152)" gradientUnits="userSpaceOnUse"><stop offset="0" style="stop-color:#d6d5d5"/><stop offset=".321" style="stop-color:#d4d3d2"/><stop offset=".542" style="stop-color:#cccaca"/><stop offset=".732" style="stop-color:#bebdbd"/><stop offset=".903" style="stop-color:#acabab"/><stop offset="1" style="stop-color:#9f9e9e"/></radialGradient><path id="XMLID_28_" style="fill:url(#XMLID_49_)" d="M134.4 47.7h30.4v51.1h-30.4z"/><path id="XMLID_27_" class="st4" d="M157.2 54.4h7.6v40.3h-7.6z"/></g><g id="bottom_-_copie_3"><path id="XMLID_26_" class="st5" d="M119.3 93.5H180v12.2h-60.7z"/><radialGradient id="XMLID_50_" cx="149.653" cy="-16221.897" r="20.082" gradientTransform="matrix(1 0 0 -1 0 -16122)" gradientUnits="userSpaceOnUse"><stop offset="0" style="stop-color:#d6d5d5"/><stop offset=".321" style="stop-color:#d4d3d2"/><stop offset=".542" style="stop-color:#cccaca"/><stop offset=".732" style="stop-color:#bebdbd"/><stop offset=".903" style="stop-color:#acabab"/><stop offset="1" style="stop-color:#9f9e9e"/></radialGradient><path id="XMLID_25_" style="fill:url(#XMLID_50_)" d="M121.6 95.4h56.1v8.9h-56.1z"/><path id="XMLID_24_" class="st4" d="M122.6 101.8h54.1v2.4h-54.1z"/></g><g id="top_-_copie_3"><path id="XMLID_23_" class="st2" d="M124.9 43.9h50.6v21.7h-50.6z"/><radialGradient id="XMLID_51_" cx="150.203" cy="-16176.73" r="17.269" gradientTransform="matrix(1 0 0 -1 0 -16122)" gradientUnits="userSpaceOnUse"><stop offset="0" style="stop-color:#d6d5d5"/><stop offset=".321" style="stop-color:#d4d3d2"/><stop offset=".542" style="stop-color:#cccaca"/><stop offset=".732" style="stop-color:#bebdbd"/><stop offset=".903" style="stop-color:#acabab"/><stop offset="1" style="stop-color:#9f9e9e"/></radialGradient><path id="XMLID_22_" style="fill:url(#XMLID_51_)" d="M127.2 46.4h45.9V63h-45.9z"/><path id="XMLID_21_" class="st4" d="M128.3 58.4h43.9V62h-43.9z"/></g></g><g id="圖層_3_拷貝"><g id="XMLID_479_" class="st27"><path id="XMLID_482_" class="st12" d="M215.9 51.2c-4.6 0-9-3-12.2-5.2-.5-.3-.9-.6-1.3-.9l.4-1.8c1.8-.3 3.1-1.2 4-2.6.9-1.5 1-3.1.9-3.6l.5-1.1c.6-.6.9-5.6-1.5-10.2l.1-1c3.4-4.8-3.2-12.9-3.3-13l.2-1.4c.2-.1 3.8-2.8 8.3-3.1h.5c3.4 0 5.7 2.1 6.6 3.2.3-.1.6-.1 1-.1 1 0 2.1.3 3.2 1 2.3 1.3 2.4 3.7 2.3 5 1.6.7 5.2 2.7 5.8 6.5.5 3.5-2.1 7-3.5 8.6 1.3 1.1 2.6 3.1 1.9 5.9-.8 2.9-4.1 5.1-6.1 6.2.5.5.9 1.1.9 2 .1 1.6-1.1 3.1-3.7 4.7-1.5.4-3.2.9-5 .9z"/><path id="XMLID_481_" class="st13" d="M215.9 51.2c-4.6 0-9-3-12.2-5.2-.5-.3-.9-.6-1.3-.9l.4-1.8c1.8-.3 3.1-1.2 4-2.6.9-1.5 1-3.1.9-3.6l.5-1.1c.6-.6.9-5.6-1.5-10.2l.1-1c3.4-4.8-3.2-12.9-3.3-13l.2-1.4c.2-.1 3.8-2.8 8.3-3.1h.5c3.4 0 5.7 2.1 6.6 3.2.3-.1.6-.1 1-.1 1 0 2.1.3 3.2 1 2.3 1.3 2.4 3.7 2.3 5 1.6.7 5.2 2.7 5.8 6.5.5 3.5-2.1 7-3.5 8.6 1.3 1.1 2.6 3.1 1.9 5.9-.8 2.9-4.1 5.1-6.1 6.2.5.5.9 1.1.9 2 .1 1.6-1.1 3.1-3.7 4.7-1.5.4-3.2.9-5 .9z"/></g><path id="XMLID_478_" class="st28" d="M204.2 11s7.2 8.8 3.3 14.2C210 30 210 36 208.6 36.8c.4 1.6-.6 6.6-5.7 7.5 4.2 2.8 11.1 8.5 17.4 4.7 6.3-3.8 1.3-6 1.3-6s6.1-2.5 7.1-6.2c1-3.8-2.5-5.5-2.5-5.5s4.6-4.4 4-8.6c-.6-4.2-5.9-6-5.9-6s.8-3.2-1.8-4.7-4-.5-4-.5-2.5-3.6-6.8-3.3-7.5 2.8-7.5 2.8z"/><path id="XMLID_477_" class="st29" d="M213.1 48.9c6.3-3.8 1.3-6 1.3-6s6.1-2.5 7.1-6.2c1-3.8-2.5-5.5-2.5-5.5s4.6-4.4 4-8.6-5.9-6-5.9-6 .8-3.2-1.8-4.7c-2.5-1.5-4-.5-4-.5s-1.1-1.6-3.1-2.6c1.1-.4 2.3-.7 3.7-.8 4.3-.3 6.8 3.3 6.8 3.3s1.5-1 4 .5 1.8 4.7 1.8 4.7 5.3 1.8 5.9 6c.6 4.2-4 8.6-4 8.6s3.4 1.8 2.5 5.5c-1 3.8-7.1 6.2-7.1 6.2s5 2.2-1.3 6c-2.8 1.7-5.7 1.5-8.4.5.3 0 .6-.2 1-.4z"/><path id="XMLID_470_" class="st30" d="M218.5 24.5s3-8.4-6.3-10.6c3.5-1.7 11.5 2.7 6.3 10.6z"/><path id="XMLID_469_" class="st30" d="M212.7 44.9s7.9-4.5 4.6-11.4c3.5 1.7 4.1 9.9-4.6 11.4z"/></g><g id="圖層_3"><g id="XMLID_441_" class="st27"><path id="XMLID_468_" class="st12" d="M82.7 50.8c-1.8 0-3.5-.5-5-1.4-2.6-1.5-3.8-3.1-3.7-4.7.1-.8.5-1.5.9-2-2-1.1-5.4-3.2-6.1-6.2-.7-2.8.6-4.8 1.9-5.9-1.4-1.6-4-5.1-3.5-8.6.5-3.8 4.1-5.7 5.8-6.5-.1-1.3.1-3.6 2.3-5 1.1-.6 2.2-1 3.2-1 .4 0 .7.1 1 .1 1-1.1 3.2-3.2 6.6-3.2h.5c4.5.3 8.2 3 8.3 3.1l.2 1.4c-.1.1-6.7 8.2-3.3 13l.1 1c-2.5 4.7-2.2 9.7-1.5 10.3l.4 1.1c-.1.5 0 2.1.9 3.6.9 1.4 2.2 2.3 4 2.6l.4 1.8c-.4.3-.9.6-1.3.9-3.2 2.6-7.6 5.6-12.1 5.6z"/><path id="XMLID_467_" class="st13" d="M82.7 50.8c-1.8 0-3.5-.5-5-1.4-2.6-1.5-3.8-3.1-3.7-4.7.1-.8.5-1.5.9-2-2-1.1-5.4-3.2-6.1-6.2-.7-2.8.6-4.8 1.9-5.9-1.4-1.6-4-5.1-3.5-8.6.5-3.8 4.1-5.7 5.8-6.5-.1-1.3.1-3.6 2.3-5 1.1-.6 2.2-1 3.2-1 .4 0 .7.1 1 .1 1-1.1 3.2-3.2 6.6-3.2h.5c4.5.3 8.2 3 8.3 3.1l.2 1.4c-.1.1-6.7 8.2-3.3 13l.1 1c-2.5 4.7-2.2 9.7-1.5 10.3l.4 1.1c-.1.5 0 2.1.9 3.6.9 1.4 2.2 2.3 4 2.6l.4 1.8c-.4.3-.9.6-1.3.9-3.2 2.6-7.6 5.6-12.1 5.6z"/></g><path id="XMLID_440_" class="st28" d="M94.4 10.6s-7.2 8.8-3.3 14.2c-2.5 4.8-2.5 10.8-1.1 11.6-.4 1.6.6 6.6 5.7 7.5-4.2 2.8-11.1 8.5-17.4 4.7-6.3-3.8-1.3-6-1.3-6s-6.1-2.5-7.1-6.2c-1-3.8 2.5-5.5 2.5-5.5s-4.6-4.4-4-8.6 5.9-6 5.9-6-.8-3.2 1.8-4.7c2.5-1.5 4-.5 4-.5s2.5-3.6 6.8-3.3c4 .2 7.5 2.8 7.5 2.8z"/><path id="XMLID_439_" class="st29" d="M85.5 48.6c-6.3-3.8-1.3-6-1.3-6s-6.1-2.5-7.1-6.2c-1-3.8 2.5-5.5 2.5-5.5s-4.6-4.4-4-8.6 5.9-6 5.9-6-.8-3.2 1.8-4.7c2.5-1.5 4-.5 4-.5s1.1-1.6 3.1-2.6c-1.1-.4-2.3-.7-3.7-.8-4.3-.3-6.8 3.3-6.8 3.3s-1.5-1-4 .5-1.8 4.7-1.8 4.7-5.3 1.8-5.9 6 4 8.6 4 8.6-3.4 1.8-2.5 5.5c1 3.8 7.1 6.2 7.1 6.2s-5 2.2 1.3 6c2.8 1.7 5.7 1.5 8.4.5-.3-.1-.6-.2-1-.4z"/><path id="XMLID_438_" class="st30" d="M80.1 24.2s-3-8.4 6.3-10.6c-3.5-1.8-11.5 2.6-6.3 10.6z"/><path id="XMLID_437_" class="st30" d="M85.9 44.5S78 40 81.3 33.1c-3.5 1.7-4.1 9.9 4.6 11.4z"/></g></g></svg>