<svg version="1.0" xmlns="http://www.w3.org/2000/svg" width="300" height="260" style="enable-background:new 0 0 300 260" xml:space="preserve"><style>.st5{fill:none;stroke:#fff;stroke-width:4;stroke-miterlimit:10}</style><g id="圖層_1"><path id="XMLID_193_" d="M197.7 128.7c0-26.5-21.5-48-48-48-17.8 0-33.4 9.7-41.7 24.2l-17.8 25.9h11c0 26.5 21.5 48 48 48 17.8 0 33.4-9.7 41.7-24.2l17.8-25.9h-11zm-47.9 24.9c-13.2 0-23.8-10.7-23.8-23.8 0-13.2 10.7-23.8 23.8-23.8s23.8 10.7 23.8 23.8c.1 13.1-10.6 23.8-23.8 23.8z" style="fill:#46a5dc;stroke:#fff;stroke-width:5;stroke-miterlimit:10"/><path id="XMLID_203_" d="m190.8 154.6-20.6-12.5c-4.2 6.9-11.7 11.4-20.4 11.4-13.2 0-23.8-10.7-23.8-23.8 0-4.4 1.2-8.6 3.3-12.2l-21.2-12.8-17.8 25.9h11c0 26.5 21.5 48 48 48 17.7.2 33.2-9.5 41.5-24z" style="fill:#297ca5;stroke:#fff;stroke-width:5;stroke-miterlimit:10"/><path id="XMLID_202_" class="st5" d="m170.3 142.3 20.5 12.3"/><path id="XMLID_189_" class="st5" d="m108 104.9 21.3 12.7"/><path id="XMLID_190_" d="M197.7 128.7c0-26.5-21.5-48-48-48-17.8 0-33.4 9.7-41.7 24.2l-17.8 25.9h11c0 26.5 21.5 48 48 48 17.8 0 33.4-9.7 41.7-24.2l17.8-25.9h-11zm-47.9 24.9c-13.2 0-23.8-10.7-23.8-23.8 0-13.2 10.7-23.8 23.8-23.8s23.8 10.7 23.8 23.8c.1 13.1-10.6 23.8-23.8 23.8z" style="fill:none;stroke:#fff;stroke-width:5;stroke-miterlimit:10"/></g></svg>