<?xml version="1.0" encoding="utf-8"?>
<!-- Generator: Adobe Illustrator 19.0.0, SVG Export Plug-In . SVG Version: 6.00 Build 0)  -->
<svg version="1.0" id="Calque_1" xmlns="http://www.w3.org/2000/svg" xmlns:xlink="http://www.w3.org/1999/xlink" x="0px" y="0px" width="300px" height="260px"
	 viewBox="0 21 300 260" style="enable-background:new 0 21 300 260;" xml:space="preserve">
<style type="text/css">
	.st0{fill:#FFFFFF;stroke:#B4B4B5;stroke-width:12;stroke-miterlimit:10;}
	.st1{fill:#FFFFFF;stroke:#E8E8E8;stroke-width:6;stroke-miterlimit:10;}
	.st2{fill:#FFFFFF;}
	.st3{fill:#B5B5B6;}
</style>
<g id="cloud7">
	<g id="Calque_19">
		<path id="XMLID_109_" class="st0" d="M132.6,72.1l-2.8-4.7c0,0-15.3-3-15.1-14.4s9-13.4,9-13.4s1.8-7,9-6.2
			c7.2,0.8,7.4,5.3,7.4,5.3s7.6,3.2,7.6,7c0,3.8,3.2,3.5,3,7.1c-0.2,3.5-4.2,7.1-4.2,7.1s1.7,6.6-2.5,8.1s-8.7,1.1-8.7,1.1
			L132.6,72.1z"/>
		<path id="XMLID_110_" class="st0" d="M198.1,59.7c0,0-4.8-2.8-5.8-7.6s2.9-6.3,2.9-6.3l-0.1-3.5l1.8-1.3l1.1-2.4
			c0,0,15.7-4.6,16.4,4.1c0,0,2.9,0,3.5,4.2s0,5.3,0,5.3s6.6-1.1,8.4,5.8c1.8,6.9-3.1,7.7-3.1,7.7S221.3,72,209,72
			s-11.3-6.5-11.3-6.5L198.1,59.7z"/>
		<path id="XMLID_111_" class="st0" d="M250.1,103.9c0,0-4.1-8.2,4.5-8.2c8.5,0,10.7,2.3,10.7,2.3s4.8-0.4,3.7,8.7
			c-1.1,9-4.7,7.8-4.7,7.8s-3.5,4.5-11.3,2.6c-7.8-1.8-7.1-8.9-7.1-8.9S252.7,106.5,250.1,103.9z"/>
		<path id="XMLID_51_" class="st0" d="M258.3,157.9c0,0-5.2-1.1-3.4-5.7c1.8-4.6,6.1-3.3,6.1-3.3s0.9-3.9,7.6-4.2
			c6.6-0.3,9.9,9,9.9,9s0.1,6.9-5.7,7.2c-0.3,3,0.1,8.1-5.2,8.3c-5.2,0.2-8.8-1-9.2-5C258,160.1,258.3,157.9,258.3,157.9z"/>
		<path id="XMLID_112_" class="st0" d="M247.4,215.1c0,0,0.3-2.7,5-2.7c4.7,0,5.2,4.4,5.2,4.4s0.7,5.8-4,5.7
			c-0.5,4.6-0.7,9.6-7.1,10.5c-6.4,0.9-6.7-2.1-6.7-2.1s-3.6,0-3.6-3s3-3.4,3-3.4s-5.3,0.6-5.2-4.8c0.1-5.3,0.5-9.6,5.2-9.3
			S247.3,212.2,247.4,215.1z"/>
		<path id="XMLID_114_" class="st0" d="M165.8,241.3c0,0,0.7-9.1,8.1-7.9c7.3,1.2,15,8.1,12.1,13.3c-2.8,5.2-7.5,8.2-7.5,8.2
			s4.9,12.3-10.8,13.6c-15.7,1.3-22.3-7-22.2-11.5c0.1-4.5-1.2-18.1,7.8-18.3C162.3,238.6,164.7,238.7,165.8,241.3z"/>
		<path id="XMLID_115_" class="st0" d="M89,225.4c0,0,1.1-6.7,4.9-7.3c3.9-0.6,3.4-6.1,7.3-5.2c3.9,1,4.8,2,4.4,5
			s-1.5,12.6,0.1,13.6c1.6,1.1,0,5.9,0,5.9s0.8,6.7-9.3,6.2c-10.1-0.4-8.2-5.7-8.2-5.7s-0.2,5.9-6,5.7c-5.8-0.1-7.4-3.7-7.4-3.7
			s-7.7-0.5-8.1-9.6c-0.3-9,9-14.8,9-14.8h8.4C84.1,215.8,88.9,217.3,89,225.4z"/>
		<path id="XMLID_116_" class="st0" d="M32.6,179.5c0.8,0.3,1.8,0.4,2.7,0.2c3.5-0.7,12.5-3,11.9-8c-0.7-6.2-3.4-13.6-8.5-13.9
			c-5.1-0.3-15.9-2.8-16,5.2c-0.1,7.9,4.4,9.3,4.4,12C27,177,30.6,178.7,32.6,179.5z"/>
		<path id="XMLID_113_" class="st0" d="M73.8,120.2c0,0-13.1-0.6-13.9,3.2c-0.8,3.8-14.9-3.5-15.2-13c-0.1-4.6,0.6-7,1.4-8.3
			c0.9-1.5,1.1-3.3,0.6-4.9l-1.1-3.3c-0.1-0.4-0.2-0.7-0.2-1.1c-0.3-2.5-0.7-11.9,8.9-11.9c3.1,0,5.4,0.2,7,0.4
			c2.2,0.3,4.5-0.3,5.9-2c0.6-0.8,1.5-1.2,2.7-0.9c3.4,1,7.1,5.3,7.6,11.4c0.3,4.2,2.3,6.4,3.5,7.4c0.7,0.6,1.3,1.3,1.7,2.1
			c0.9,2,2.2,5.3,0.8,7.3c-2,2.9-10.7,2.3-8.3,4.8C78.1,114.2,79.7,116.6,73.8,120.2z"/>
	</g>
	<g id="Calque_19_-_copie">
		<path id="XMLID_183_" class="st1" d="M132.6,72.1l-2.8-4.7c0,0-15.3-3-15.1-14.4s9-13.4,9-13.4s1.8-7,9-6.2
			c7.2,0.8,7.4,5.3,7.4,5.3s7.6,3.2,7.6,7c0,3.8,3.2,3.5,3,7.1c-0.2,3.5-4.2,7.1-4.2,7.1s1.7,6.6-2.5,8.1s-8.7,1.1-8.7,1.1
			L132.6,72.1z"/>
		<path id="XMLID_182_" class="st1" d="M198.1,59.7c0,0-4.8-2.8-5.8-7.6s2.9-6.3,2.9-6.3l-0.1-3.5l1.8-1.3l1.1-2.4
			c0,0,15.7-4.6,16.4,4.1c0,0,2.9,0,3.5,4.2s0,5.3,0,5.3s6.6-1.1,8.4,5.8c1.8,6.9-3.1,7.7-3.1,7.7S221.3,72,209,72
			s-11.3-6.5-11.3-6.5L198.1,59.7z"/>
		<path id="XMLID_181_" class="st1" d="M250.1,103.9c0,0-4.1-8.2,4.5-8.2c8.5,0,10.7,2.3,10.7,2.3s4.8-0.4,3.7,8.7
			c-1.1,9-4.7,7.8-4.7,7.8s-3.5,4.5-11.3,2.6c-7.8-1.8-7.1-8.9-7.1-8.9S252.7,106.5,250.1,103.9z"/>
		<path id="XMLID_180_" class="st1" d="M258.3,157.9c0,0-5.2-1.1-3.4-5.7c1.8-4.6,6.1-3.3,6.1-3.3s0.9-3.9,7.6-4.2
			c6.6-0.3,9.9,9,9.9,9s0.1,6.9-5.7,7.2c-0.3,3,0.1,8.1-5.2,8.3c-5.2,0.2-8.8-1-9.2-5C258,160.1,258.3,157.9,258.3,157.9z"/>
		<path id="XMLID_179_" class="st1" d="M247.4,215.1c0,0,0.3-2.7,5-2.7c4.7,0,5.2,4.4,5.2,4.4s0.7,5.8-4,5.7
			c-0.5,4.6-0.7,9.6-7.1,10.5c-6.4,0.9-6.7-2.1-6.7-2.1s-3.6,0-3.6-3s3-3.4,3-3.4s-5.3,0.6-5.2-4.8c0.1-5.3,0.5-9.6,5.2-9.3
			S247.3,212.2,247.4,215.1z"/>
		<path id="XMLID_178_" class="st1" d="M165.8,241.3c0,0,0.7-9.1,8.1-7.9c7.3,1.2,15,8.1,12.1,13.3c-2.8,5.2-7.5,8.2-7.5,8.2
			s4.9,12.3-10.8,13.6c-15.7,1.3-22.3-7-22.2-11.5c0.1-4.5-1.2-18.1,7.8-18.3C162.3,238.6,164.7,238.7,165.8,241.3z"/>
		<path id="XMLID_177_" class="st1" d="M89,225.4c0,0,1.1-6.7,4.9-7.3c3.9-0.6,3.4-6.1,7.3-5.2c3.9,1,4.8,2,4.4,5
			s-1.5,12.6,0.1,13.6c1.6,1.1,0,5.9,0,5.9s0.8,6.7-9.3,6.2c-10.1-0.4-8.2-5.7-8.2-5.7s-0.2,5.9-6,5.7c-5.8-0.1-7.4-3.7-7.4-3.7
			s-7.7-0.5-8.1-9.6c-0.3-9,9-14.8,9-14.8h8.4C84.1,215.8,88.9,217.3,89,225.4z"/>
		<path id="XMLID_176_" class="st1" d="M32.6,179.5c0.8,0.3,1.8,0.4,2.7,0.2c3.5-0.7,12.5-3,11.9-8c-0.7-6.2-3.4-13.6-8.5-13.9
			c-5.1-0.3-15.9-2.8-16,5.2c-0.1,7.9,4.4,9.3,4.4,12C27,177,30.6,178.7,32.6,179.5z"/>
		<path id="XMLID_175_" class="st1" d="M73.8,120.2c0,0-13.1-0.6-13.9,3.2c-0.8,3.8-14.9-3.5-15.2-13c-0.1-4.6,0.6-7,1.4-8.3
			c0.9-1.5,1.1-3.3,0.6-4.9l-1.1-3.3c-0.1-0.4-0.2-0.7-0.2-1.1c-0.3-2.5-0.7-11.9,8.9-11.9c3.1,0,5.4,0.2,7,0.4
			c2.2,0.3,4.5-0.3,5.9-2c0.6-0.8,1.5-1.2,2.7-0.9c3.4,1,7.1,5.3,7.6,11.4c0.3,4.2,2.3,6.4,3.5,7.4c0.7,0.6,1.3,1.3,1.7,2.1
			c0.9,2,2.2,5.3,0.8,7.3c-2,2.9-10.7,2.3-8.3,4.8C78.1,114.2,79.7,116.6,73.8,120.2z"/>
	</g>
	<g id="Calque_19_-_copie_3">
		<path id="XMLID_150_" class="st2" d="M132.6,72.1l-2.8-4.7c0,0-15.3-3-15.1-14.4s9-13.4,9-13.4s1.8-7,9-6.2
			c7.2,0.8,7.4,5.3,7.4,5.3s7.6,3.2,7.6,7c0,3.8,3.2,3.5,3,7.1c-0.2,3.5-4.2,7.1-4.2,7.1s1.7,6.6-2.5,8.1s-8.7,1.1-8.7,1.1
			L132.6,72.1z"/>
		<path id="XMLID_149_" class="st2" d="M198.1,59.7c0,0-4.8-2.8-5.8-7.6s2.9-6.3,2.9-6.3l-0.1-3.5l1.8-1.3l1.1-2.4
			c0,0,15.7-4.6,16.4,4.1c0,0,2.9,0,3.5,4.2s0,5.3,0,5.3s6.6-1.1,8.4,5.8c1.8,6.9-3.1,7.7-3.1,7.7S221.3,72,209,72
			s-11.3-6.5-11.3-6.5L198.1,59.7z"/>
		<path id="XMLID_148_" class="st2" d="M250.1,103.9c0,0-4.1-8.2,4.5-8.2c8.5,0,10.7,2.3,10.7,2.3s4.8-0.4,3.7,8.7
			c-1.1,9-4.7,7.8-4.7,7.8s-3.5,4.5-11.3,2.6c-7.8-1.8-7.1-8.9-7.1-8.9S252.7,106.5,250.1,103.9z"/>
		<path id="XMLID_147_" class="st2" d="M258.3,157.9c0,0-5.2-1.1-3.4-5.7c1.8-4.6,6.1-3.3,6.1-3.3s0.9-3.9,7.6-4.2
			c6.6-0.3,9.9,9,9.9,9s0.1,6.9-5.7,7.2c-0.3,3,0.1,8.1-5.2,8.3c-5.2,0.2-8.8-1-9.2-5C258,160.1,258.3,157.9,258.3,157.9z"/>
		<path id="XMLID_146_" class="st2" d="M247.4,215.1c0,0,0.3-2.7,5-2.7c4.7,0,5.2,4.4,5.2,4.4s0.7,5.8-4,5.7
			c-0.5,4.6-0.7,9.6-7.1,10.5c-6.4,0.9-6.7-2.1-6.7-2.1s-3.6,0-3.6-3s3-3.4,3-3.4s-5.3,0.6-5.2-4.8c0.1-5.3,0.5-9.6,5.2-9.3
			S247.3,212.2,247.4,215.1z"/>
		<path id="XMLID_145_" class="st2" d="M165.8,241.3c0,0,0.7-9.1,8.1-7.9c7.3,1.2,15,8.1,12.1,13.3c-2.8,5.2-7.5,8.2-7.5,8.2
			s4.9,12.3-10.8,13.6c-15.7,1.3-22.3-7-22.2-11.5c0.1-4.5-1.2-18.1,7.8-18.3C162.3,238.6,164.7,238.7,165.8,241.3z"/>
		<path id="XMLID_129_" class="st2" d="M89,225.4c0,0,1.1-6.7,4.9-7.3c3.9-0.6,3.4-6.1,7.3-5.2c3.9,1,4.8,2,4.4,5
			s-1.5,12.6,0.1,13.6c1.6,1.1,0,5.9,0,5.9s0.8,6.7-9.3,6.2c-10.1-0.4-8.2-5.7-8.2-5.7s-0.2,5.9-6,5.7c-5.8-0.1-7.4-3.7-7.4-3.7
			s-7.7-0.5-8.1-9.6c-0.3-9,9-14.8,9-14.8h8.4C84.1,215.8,88.9,217.3,89,225.4z"/>
		<path id="XMLID_122_" class="st2" d="M32.6,179.5c0.8,0.3,1.8,0.4,2.7,0.2c3.5-0.7,12.5-3,11.9-8c-0.7-6.2-3.4-13.6-8.5-13.9
			c-5.1-0.3-15.9-2.8-16,5.2c-0.1,7.9,4.4,9.3,4.4,12C27,177,30.6,178.7,32.6,179.5z"/>
		<path id="XMLID_121_" class="st2" d="M73.8,120.2c0,0-13.1-0.6-13.9,3.2c-0.8,3.8-14.9-3.5-15.2-13c-0.1-4.6,0.6-7,1.4-8.3
			c0.9-1.5,1.1-3.3,0.6-4.9l-1.1-3.3c-0.1-0.4-0.2-0.7-0.2-1.1c-0.3-2.5-0.7-11.9,8.9-11.9c3.1,0,5.4,0.2,7,0.4
			c2.2,0.3,4.5-0.3,5.9-2c0.6-0.8,1.5-1.2,2.7-0.9c3.4,1,7.1,5.3,7.6,11.4c0.3,4.2,2.3,6.4,3.5,7.4c0.7,0.6,1.3,1.3,1.7,2.1
			c0.9,2,2.2,5.3,0.8,7.3c-2,2.9-10.7,2.3-8.3,4.8C78.1,114.2,79.7,116.6,73.8,120.2z"/>
	</g>
	<g id="Calque_19_-_copie_2">
		<path id="XMLID_156_" class="st2" d="M132.6,72.1l-2.8-4.7c0,0-15.3-3-15.1-14.4s9-13.4,9-13.4s1.8-7,9-6.2
			c7.2,0.8,7.4,5.3,7.4,5.3s7.6,3.2,7.6,7c0,3.8,3.2,3.5,3,7.1c-0.2,3.5-4.2,7.1-4.2,7.1s1.7,6.6-2.5,8.1s-8.7,1.1-8.7,1.1
			L132.6,72.1z"/>
		<path id="XMLID_153_" class="st2" d="M198.1,59.7c0,0-4.8-2.8-5.8-7.6s2.9-6.3,2.9-6.3l-0.1-3.5l1.8-1.3l1.1-2.4
			c0,0,15.7-4.6,16.4,4.1c0,0,2.9,0,3.5,4.2s0,5.3,0,5.3s6.6-1.1,8.4,5.8c1.8,6.9-3.1,7.7-3.1,7.7S221.3,72,209,72
			s-11.3-6.5-11.3-6.5L198.1,59.7z"/>
		<path id="XMLID_128_" class="st2" d="M250.1,103.9c0,0-4.1-8.2,4.5-8.2c8.5,0,10.7,2.3,10.7,2.3s4.8-0.4,3.7,8.7
			c-1.1,9-4.7,7.8-4.7,7.8s-3.5,4.5-11.3,2.6c-7.8-1.8-7.1-8.9-7.1-8.9S252.7,106.5,250.1,103.9z"/>
		<path id="XMLID_127_" class="st2" d="M258.3,157.9c0,0-5.2-1.1-3.4-5.7c1.8-4.6,6.1-3.3,6.1-3.3s0.9-3.9,7.6-4.2
			c6.6-0.3,9.9,9,9.9,9s0.1,6.9-5.7,7.2c-0.3,3,0.1,8.1-5.2,8.3c-5.2,0.2-8.8-1-9.2-5C258,160.1,258.3,157.9,258.3,157.9z"/>
		<path id="XMLID_126_" class="st2" d="M247.4,215.1c0,0,0.3-2.7,5-2.7c4.7,0,5.2,4.4,5.2,4.4s0.7,5.8-4,5.7
			c-0.5,4.6-0.7,9.6-7.1,10.5c-6.4,0.9-6.7-2.1-6.7-2.1s-3.6,0-3.6-3s3-3.4,3-3.4s-5.3,0.6-5.2-4.8c0.1-5.3,0.5-9.6,5.2-9.3
			S247.3,212.2,247.4,215.1z"/>
		<path id="XMLID_125_" class="st2" d="M165.8,241.3c0,0,0.7-9.1,8.1-7.9c7.3,1.2,15,8.1,12.1,13.3c-2.8,5.2-7.5,8.2-7.5,8.2
			s4.9,12.3-10.8,13.6c-15.7,1.3-22.3-7-22.2-11.5c0.1-4.5-1.2-18.1,7.8-18.3C162.3,238.6,164.7,238.7,165.8,241.3z"/>
		<path id="XMLID_124_" class="st2" d="M89,225.4c0,0,1.1-6.7,4.9-7.3c3.9-0.6,3.4-6.1,7.3-5.2c3.9,1,4.8,2,4.4,5
			s-1.5,12.6,0.1,13.6c1.6,1.1,0,5.9,0,5.9s0.8,6.7-9.3,6.2c-10.1-0.4-8.2-5.7-8.2-5.7s-0.2,5.9-6,5.7c-5.8-0.1-7.4-3.7-7.4-3.7
			s-7.7-0.5-8.1-9.6c-0.3-9,9-14.8,9-14.8h8.4C84.1,215.8,88.9,217.3,89,225.4z"/>
		<path id="XMLID_123_" class="st2" d="M32.6,179.5c0.8,0.3,1.8,0.4,2.7,0.2c3.5-0.7,12.5-3,11.9-8c-0.7-6.2-3.4-13.6-8.5-13.9
			c-5.1-0.3-15.9-2.8-16,5.2c-0.1,7.9,4.4,9.3,4.4,12C27,177,30.6,178.7,32.6,179.5z"/>
		<path id="XMLID_96_" class="st2" d="M73.8,120.2c0,0-13.1-0.6-13.9,3.2c-0.8,3.8-14.9-3.5-15.2-13c-0.1-4.6,0.6-7,1.4-8.3
			c0.9-1.5,1.1-3.3,0.6-4.9l-1.1-3.3c-0.1-0.4-0.2-0.7-0.2-1.1c-0.3-2.5-0.7-11.9,8.9-11.9c3.1,0,5.4,0.2,7,0.4
			c2.2,0.3,4.5-0.3,5.9-2c0.6-0.8,1.5-1.2,2.7-0.9c3.4,1,7.1,5.3,7.6,11.4c0.3,4.2,2.3,6.4,3.5,7.4c0.7,0.6,1.3,1.3,1.7,2.1
			c0.9,2,2.2,5.3,0.8,7.3c-2,2.9-10.7,2.3-8.3,4.8C78.1,114.2,79.7,116.6,73.8,120.2z"/>
		<path id="XMLID_95_" class="st3" d="M63.4,86.9c0,0-6.4-4.7-10.5,0.5S51.1,97,51.1,97s-0.2-6.7,4-9.4C59.4,85,63.4,86.9,63.4,86.9
			z"/>
		<path id="XMLID_50_" class="st3" d="M78.5,220.5c0,0-7,3.8-4.1,9.7c2.8,5.9,7.9,5.9,7.9,5.9s-6.2-2.7-6.7-7.7
			C75.1,223.4,78.5,220.5,78.5,220.5z"/>
		<path id="XMLID_46_" class="st3" d="M219.8,64.9c0,0,3.3-7.2-2.6-10.2c-5.8-2.9-9.9,0.1-9.9,0.1s6.5-1.6,10,2.1
			C220.8,60.5,219.8,64.9,219.8,64.9z"/>
		<path id="XMLID_45_" class="st3" d="M150.3,251.9c0,0-3.7,7,1.9,10.3c5.6,3.3,9.9,0.5,9.9,0.5s-6.6,1.2-9.8-2.7
			S150.3,251.9,150.3,251.9z"/>
	</g>
</g>
</svg>
