<?xml version="1.0" encoding="utf-8"?>
<!-- Generator: Adobe Illustrator 19.0.0, SVG Export Plug-In . SVG Version: 6.00 Build 0)  -->
<svg version="1.0" id="Calque_1" xmlns="http://www.w3.org/2000/svg" xmlns:xlink="http://www.w3.org/1999/xlink" x="0px" y="0px" width="300px" height="260px"
	 viewBox="0 21 300 260" style="enable-background:new 0 21 300 260;" xml:space="preserve">
<style type="text/css">
	.st0{fill:none;stroke:#B4B4B5;stroke-width:5;stroke-miterlimit:10;}
	.st1{fill:#E5E5E5;}
	.st2{display:none;}
	.st3{display:inline;fill:#FFFFFF;}
	.st4{display:none;fill:#FFFFFF;}
	.st5{fill:#FDFDFE;}
	.st6{fill:#B5B5B6;}
</style>
<g id="cloud5">
	<path id="border_1_" class="st0" d="M292.5,131.4c0.3-26.2-29.9-27.1-29.9-27.1s19.6-7.2,0-34s-42.1-5-42.1-5s0.3-22.1-18.1-28.7
		S170,44.4,170,44.4s-4-15.6-32.4-16.2s-36.4,24.3-36.4,24.3s-35.8-3-48.2,10.4c-12.5,13.4-2.8,32.4-2.8,32.4
		c-5.3-0.6-15.9,2.2-20.2,19.6s12.8,23.7,12.8,23.7s-18.1,15.6-17.4,38c0.6,22.4,27.1,18.7,27.1,18.7s-10.9,15.6,2.5,31.5
		s34.6,1.9,34.6,1.9s-9,19,16.5,28.7c25.5,9.7,32.1-9.7,32.1-9.7s7.5,19,29.3,16.2s22.4-25.9,22.4-25.9s12.5,22.1,38,10.9
		c25.5-11.2,19.9-29.3,19.9-29.3s20.6-3.1,29.3-21.8c8.7-18.7-10.9-33.3-10.9-33.3S292.2,157.6,292.5,131.4z M217.4,140.6
		c0,0-4.5,2.6-4.2,10.3s2.6,13.6,6.1,14.2c0,0-19.8,3.1-21.3,12.9s1.4,21.8,1.4,21.8s-3.4-7.6-19.6-5.4c-16.2,2.2-20.9,9.3-20.9,9.3
		s-1.6-7.9-14.3-7.6s-14.8,7.6-14.8,7.6s-2-12.9-10.4-16.2s-21.5,0.2-21.5,0.2s1.6-9.2-4.7-11.1s-19-0.9-19-0.9s14-7.8,15.9-17.4
		c1.9-9.7-7.9-18.1-7.9-18.1s14.8,0.9,21.6-9.7c6.8-10.6-1.6-18.7-1.6-18.7s19.8,1.4,26.9-7.2c7.2-8.6,3.3-28,3.3-28
		s10.1,10.4,19.3,9.3s12.1-10.6,12.1-10.6s1.2,6.5,5.8,7.2c4.5,0.6,13.4,0.3,13.4,0.3s-10.6,9.7-1.9,15.6c8.7,5.9,28.7,3.9,28.7,3.9
		s-0.9,8.6,3.1,9.8c4,1.2,12,3.6,12,3.6s-14.3,2.3-14.6,8.9S210.9,138.1,217.4,140.6z"/>
	<path id="effect_inside" class="st1" d="M292.5,131.4c0.3-26.2-29.9-27.1-29.9-27.1s19.6-7.2,0-34s-42.1-5-42.1-5
		s0.3-22.1-18.1-28.7S170,44.4,170,44.4s-4-15.6-32.4-16.2s-36.4,24.3-36.4,24.3s-35.8-3-48.2,10.4c-12.5,13.4-2.8,32.4-2.8,32.4
		c-5.3-0.6-15.9,2.2-20.2,19.6s12.8,23.7,12.8,23.7s-18.1,15.6-17.4,38c0.6,22.4,27.1,18.7,27.1,18.7s-10.9,15.6,2.5,31.5
		s34.6,1.9,34.6,1.9s-9,19,16.5,28.7c25.5,9.7,32.1-9.7,32.1-9.7s7.5,19,29.3,16.2s22.4-25.9,22.4-25.9s12.5,22.1,38,10.9
		c25.5-11.2,19.9-29.3,19.9-29.3s20.6-3.1,29.3-21.8c8.7-18.7-10.9-33.3-10.9-33.3S292.2,157.6,292.5,131.4z M217.4,140.6
		c0,0-4.5,2.6-4.2,10.3s2.6,13.6,6.1,14.2c0,0-19.8,3.1-21.3,12.9s1.4,21.8,1.4,21.8s-3.4-7.6-19.6-5.4c-16.2,2.2-20.9,9.3-20.9,9.3
		s-1.6-7.9-14.3-7.6s-14.8,7.6-14.8,7.6s-2-12.9-10.4-16.2s-21.5,0.2-21.5,0.2s1.6-9.2-4.7-11.1s-19-0.9-19-0.9s14-7.8,15.9-17.4
		c1.9-9.7-7.9-18.1-7.9-18.1s14.8,0.9,21.6-9.7c6.8-10.6-1.6-18.7-1.6-18.7s19.8,1.4,26.9-7.2c7.2-8.6,3.3-28,3.3-28
		s10.1,10.4,19.3,9.3s12.1-10.6,12.1-10.6s1.2,6.5,5.8,7.2c4.5,0.6,13.4,0.3,13.4,0.3s-10.6,9.7-1.9,15.6c8.7,5.9,28.7,3.9,28.7,3.9
		s-0.9,8.6,3.1,9.8c4,1.2,12,3.6,12,3.6s-14.3,2.3-14.6,8.9S210.9,138.1,217.4,140.6z"/>
	<g id="effect">
		<path id="XMLID_76_" class="st1" d="M218.1,118.8c0,0-0.8-0.2-1.8-0.5c-1.1,0.5-2.2,1.1-3.1,1.8
			C215.8,119.2,218.1,118.8,218.1,118.8z"/>
		<path id="XMLID_77_" class="st1" d="M177.7,92.7c1.3-2,2.8-3.3,2.8-3.3s-0.9,0-2.2,0C177.9,90.4,177.7,91.5,177.7,92.7z"/>
		<path id="XMLID_80_" class="st1" d="M292.5,131.4c0.3-26.2-29.9-27.1-29.9-27.1s19.6-7.2,0-34s-42.1-5-42.1-5s0.3-22.1-18.1-28.7
			S170,44.4,170,44.4s-4-15.6-32.4-16.2s-36.4,24.3-36.4,24.3s-35.8-3-48.2,10.4c-12.5,13.4-2.8,32.4-2.8,32.4
			c-5.3-0.6-15.9,2.2-20.2,19.6s12.8,23.7,12.8,23.7s-18.1,15.6-17.4,38c0.6,22.4,27.1,18.7,27.1,18.7s-10.9,15.6,2.5,31.5
			s34.6,1.9,34.6,1.9s-9,19,16.5,28.7c25.5,9.7,32.1-9.7,32.1-9.7s7.5,19,29.3,16.2s22.4-25.9,22.4-25.9s12.5,22.1,38,10.9
			c25.5-11.2,19.9-29.3,19.9-29.3s20.6-3.1,29.3-21.8c8.7-18.7-10.9-33.3-10.9-33.3S292.2,157.6,292.5,131.4z M255,162.5
			c0,0,17.6,13.1,9.8,29.9c-7.8,16.8-26.3,19.6-26.3,19.6s5,16.2-17.9,26.3s-34.1-9.8-34.1-9.8s-0.6,20.7-20.1,23.2
			c-19.6,2.5-26.3-14.5-26.3-14.5s-5.9,17.3-28.8,8.7s-14.8-25.7-14.8-25.7s-19,12.6-31-1.7c-12-14.2-2.2-28.2-2.2-28.2
			s-23.7,3.4-24.3-16.8c-0.6-20.1,15.6-34.1,15.6-34.1s-15.4-5.6-11.5-21.2s13.4-18.2,18.2-17.6c0,0-8.7-17,2.5-29
			s43.3-9.2,43.3-9.2s7.3-22.4,32.7-21.8C165.3,41,168.9,55,168.9,55s12.6-12.9,29.1-7s16.2,25.7,16.2,25.7s20.1-19.6,37.7,4.5
			s0,30.5,0,30.5s27.1,0.8,26.8,24.3C278.4,156.4,255,162.5,255,162.5z"/>
	</g>
	<g id="cool" class="st2">
		<path id="XMLID_139_" class="st3" d="M336.6,126.5c-88-7.8-108.2-8.4-39.8-36c-68.5,27.6-55.3,22.8,0-45.2
			c-81.6,32.1-96.6,46.7-55.9-6.6c-40.7,53.3-40.5,38.5-24-38.1c-41.1,67.9-50.5,77.5-43.1,10.4c-7.4,67.1-10.1,56.7-43.1-21.5
			c-5,77.4-10.4,94.1-48.5,32.3c38,61.8,14,59.7-64.2,13.7c61.5,64,68,76.7-3.7,43.1c68.2,33.2,61.1,35.1-26.9,26.1
			c82.2,32.3,93.7,36.5,17,31.5c76.7,5,64.6,15.5-23.2,50.5c88.6-5,106.4-7.5,36,24.9c70.3-32.4,63-22,3.3,41.8
			c77.6-42.5,91.8-51.9,46,2.5c45.8-54.4,39.8-41.7,22,38.1c52.1-66.8,56.4-79.8,42.7-12.8c13.8-66.9,18.8-54.2,38.9,21.5
			c9.1-79.5,9.5-94.9,29.8-34.4c-20.4-60.6-12-45.7,50.5,14.5c-28.3-75.3-32.1-87.4,26.5-38.9c-58.6-48.4-44.8-50.5,38.9-29
			c-72.1-46.6-85.2-56.4-14.5-44.3C230.7,158.4,248.2,153.8,336.6,126.5z M239.8,140.9c-44.8-0.7-47.8,1.1-5.6,13.7
			c-41.8-2.4-40.3,1.6,8.1,18.9c-46.1-16.9-59.3-14.8-28.4,17.2c-33-18.8-31-10.8,1.9,28.9c-32.9-39.7-35.2-44.8-26.1-7.2
			c-30.8-34.7-33.9-29.9-27.8,12.4c-6.2-42.4-7.2-47.7-19.1-10.2c-5.3-37.1-6.6-32.2-19.7,10.2c13.1-42.4,11.7-51-13.9-21.5
			c14.3-33.9,5.5-31.6-28.6,0.2c34.1-31.8,35.2-37.9-6.2-14.7c33-25.7,24.5-25.1-25.3-1.2c49.8-23.8,59.1-29.1,21.1-23.2
			c40.5-18.8,33.9-24.4-10.6-24c44.5-0.4,54.4,0.2,28.8-12.8c34.8-1.1,29.2-6.6-2.1-24.9c31.3,18.3,44.5,19.2,35.8-9.5
			c18.3,17.3,15.7,4.2,4.4-37.3c11.3,41.5,18.1,48.5,25.7,12.4c4.7,34.6,6.7,28.3,16.2-14.1c-9.5,42.4-8.6,46.7,7.7,9.5
			c-10.2,38-4.3,37.8,17.8,0.4c-21.9,37.4-29,43.9-2.3,20.7c-15,31.1-1.7,29.7,38.1,5.2c-39.8,24.6-40.4,30.3,4.1,13.1
			c-39.1,18.9-33.8,20.5,16,4.8c-49.8,15.7-59.4,17.3-19.5,11.8C190,133.9,190.6,138.6,239.8,140.9z"/>
	</g>
	<path id="cloud" class="st4" d="M42.7,138.6c0,0-17.1-6.2-12.8-23.7s15-20.2,20.2-19.6c0,0-9.7-19,2.8-32.4s48.3-10.3,48.3-10.3
		s8.1-24.9,36.4-24.3S170,44.5,170,44.5s14-14.3,32.4-7.8s18.1,28.7,18.1,28.7s22.4-21.8,42.1,5s0,34,0,34s30.2,0.9,29.9,27.1
		c-0.3,26.2-26.5,33-26.5,33s19.6,14.6,10.9,33.3s-29.3,21.8-29.3,21.8s5.6,18.1-19.9,29.3s-38-10.9-38-10.9s-0.6,23.1-22.4,25.9
		S138,247.7,138,247.7s-6.5,19.3-32.1,9.7c-25.5-9.7-16.5-28.7-16.5-28.7s-21.2,14-34.6-1.9s-2.5-31.5-2.5-31.5s-26.5,3.7-27.1-18.7
		C24.6,154.1,42.7,138.6,42.7,138.6z"/>
	<path id="hole_1_" class="st4" d="M74.1,175.6c0,0,14-7.8,15.9-17.4c1.9-9.7-7.9-18.1-7.9-18.1s14.8,0.9,21.6-9.7
		c6.8-10.6-1.6-18.7-1.6-18.7s19.8,1.4,26.9-7.2c7.2-8.6,3.3-28,3.3-28s10.1,10.4,19.3,9.3s12.1-10.6,12.1-10.6s1.2,6.5,5.8,7.2
		c4.5,0.6,13.4,0.3,13.4,0.3s-10.6,9.7-1.9,15.6c8.7,5.9,28.7,3.9,28.7,3.9s-0.9,8.6,3.1,9.8c4,1.2,12,3.6,12,3.6
		s-14.3,2.3-14.6,8.9s0.6,13.6,7.2,16c0,0-4.5,2.6-4.2,10.3s2.6,13.6,6.1,14.2c0,0-19.8,3.1-21.3,12.9s1.4,21.8,1.4,21.8
		s-3.4-7.6-19.6-5.4c-16.2,2.2-20.9,9.3-20.9,9.3s-1.6-7.9-14.3-7.6s-14.8,7.6-14.8,7.6s-2-12.9-10.4-16.2s-21.5,0.2-21.5,0.2
		s1.6-9.2-4.7-11.1S74.1,175.6,74.1,175.6z"/>
	<path id="XMLID_81_" class="st5" d="M292.5,131.4c0.3-26.2-29.9-27.1-29.9-27.1s19.6-7.2,0-34s-42.1-5-42.1-5s0.3-22.1-18.1-28.7
		S170,44.4,170,44.4s-4-15.6-32.4-16.2s-36.4,24.3-36.4,24.3s-35.8-3-48.2,10.4c-12.5,13.4-2.8,32.4-2.8,32.4
		c-5.3-0.6-15.9,2.2-20.2,19.6s12.8,23.7,12.8,23.7s-18.1,15.6-17.4,38c0.6,22.4,27.1,18.7,27.1,18.7s-10.9,15.6,2.5,31.5
		s34.6,1.9,34.6,1.9s-9,19,16.5,28.7c25.5,9.7,32.1-9.7,32.1-9.7s7.5,19,29.3,16.2s22.4-25.9,22.4-25.9s12.5,22.1,38,10.9
		c25.5-11.2,19.9-29.3,19.9-29.3s20.6-3.1,29.3-21.8c8.7-18.7-10.9-33.3-10.9-33.3S292.2,157.6,292.5,131.4z M225.3,120.8
		c-0.4,8.2,0.8,16.9,8.9,20c0,0-5.6,3.3-5.2,12.8c0.4,9.5,3.3,16.9,7.6,17.7c0,0-24.7,3.9-26.6,16.1c-1.9,12.2,1.7,27.1,1.7,27.1
		s-4.3-9.5-24.5-6.7c-20.2,2.7-26,11.7-26,11.7s-1.9-9.9-17.9-9.5c-15.9,0.4-18.5,9.5-18.5,9.5s-2.5-16.1-13-20.2
		c-10.5-4.1-26.8,0.2-26.8,0.2s1.9-11.5-5.8-13.8s-23.7-1.2-23.7-1.2s17.5-9.7,19.8-21.8c2.3-12.1-9.9-22.5-9.9-22.5
		s18.5,1.2,27-12.1c8.5-13.3-1.9-23.3-1.9-23.3s24.7,1.7,33.6-8.9s4.1-35,4.1-35s12.6,13,24.1,11.7c11.5-1.4,15.2-13.2,15.2-13.2
		s1.6,8.2,7.2,8.9c5.6,0.8,16.7,0.4,16.7,0.4s-13.2,12.1-2.3,19.4c10.9,7.4,35.8,4.9,35.8,4.9s-1.2,10.7,3.9,12.2
		c5.1,1.6,15,4.5,15,4.5S225.7,112.7,225.3,120.8z"/>
	<path id="XMLID_71_" class="st6" d="M211,66.1c0,0,6.5-11.7-2.9-17.4s-16.6-1.2-16.6-1.2s11.2-1.8,16.4,4.8S211,66.1,211,66.1z"/>
	<path id="XMLID_73_" class="st6" d="M110,243.4c0,0,7,11.3,16.6,6c9.6-5.4,9.1-13.9,9.1-13.9s-3.9,10.6-12.3,12
		S110,243.4,110,243.4z"/>
	<path id="XMLID_82_" class="st6" d="M62.9,105.4c0,0-9.1-9.7-17.4-2.5s-6.1,15.4-6.1,15.4s1.7-11.1,9.6-14.1
		C56.8,101.2,62.9,105.4,62.9,105.4z"/>
	<path id="XMLID_83_" class="st6" d="M277.2,133.2c0,0,7.9-10.7-0.6-17.6s-16.2-3.3-16.2-3.3s11.3-0.3,15.6,6.9
		S277.2,133.2,277.2,133.2z"/>
</g>
</svg>
