<?xml version="1.0" encoding="utf-8"?>
<!-- Generator: Adobe Illustrator 19.0.0, SVG Export Plug-In . SVG Version: 6.00 Build 0)  -->
<svg version="1.0" id="Calque_1" xmlns="http://www.w3.org/2000/svg" xmlns:xlink="http://www.w3.org/1999/xlink" x="0px" y="0px" width="300px" height="260px"
	 viewBox="0 21 300 260" style="enable-background:new 0 21 300 260;" xml:space="preserve">
<style type="text/css">
	.st0{display:none;fill:#EDEDED;}
	.st1{display:none;}
	.st2{display:inline;fill:#EDEDED;}
	.st3{fill:none;stroke:#B5B5B6;stroke-width:5;stroke-miterlimit:10;}
	.st4{fill:#FFFFFF;}
	.st5{fill:#EAEAEA;}
	.st6{fill:#E5E5E5;}
	.st7{display:none;fill:#FFFFFF;}
	.st8{fill:#B5B5B6;}
</style>
<g id="cloud4">
	<path id="XMLID_32_" class="st0" d="M41.5,134.9c0,0-9.4-7.3-9.1-22.1s14.9-16.3,14.9-16.3s-5.9-27.2,12.9-38.1s42.7-2.5,42.7-2.5
		s2.9-24,25.4-25.4s39.2,14.9,39.2,14.9s16.7-15.6,33-8.3s13.8,28.7,13.8,28.7s22.9-20,40.3,0s5.4,37,5.4,37s29,4.7,28.3,28.7
		s-30.9,25.4-30.9,25.4s27.2,13.4,14.2,35.9s-29,17.4-29,17.4s8,21.1-16,32.7s-40.3-5.8-40.3-5.8s-4.4,20-26,20.3
		c-21.6,0.4-27.8-14.5-27.8-14.5s-3.3,21.1-29,10.2c-25.7-10.9-17.4-27.2-17.4-27.2s-15.6,10.5-31.9-4.7s-6.9-26.5-6.9-26.5
		s-21.4,0.4-23.2-18.9C22.2,156.3,24,138.9,41.5,134.9z"/>
	<path id="XMLID_30_" class="st0" d="M120.6,160.7c0,0-30.5,0.7-26.1-18.9s17.4-16.3,17.4-16.3s-7.6-14.5,1.8-18.2
		c9.4-3.6,28.7,0,28.7,0S141.3,95,154.7,95s13.4,11.3,13.4,11.3s13.8-4.7,18.5,1.8s0,10.2,0,10.2s26.9-3.6,24,13.4
		s-14.9,13.4-14.9,13.4s6.2,12.7-3.3,20.3c-9.4,7.6-16.3,0-16.3,0s3.6,16.3-9.1,21.1c-12.7,4.7-21.8-5.4-21.8-5.4s-9.1,6.9-19.6,1.8
		S120.6,160.7,120.6,160.7z"/>
	<g id="XMLID_58_" class="st1">
		<path id="XMLID_59_" class="st2" d="M186.7,118.2c0,0,4.7-3.6,0-10.2c-4.7-6.5-18.5-1.8-18.5-1.8s0-11.3-13.4-11.3
			s-12.3,12.3-12.3,12.3s-19.2-3.6-28.7,0c-9.4,3.6-1.8,18.2-1.8,18.2s-13.1-3.3-17.4,16.3s26.1,18.9,26.1,18.9s-5.4,17.1,5.1,22.1
			s19.6-1.8,19.6-1.8s9.1,10.2,21.8,5.4c12.7-4.7,9.1-21.1,9.1-21.1s6.9,7.6,16.3,0c9.4-7.6,3.3-20.3,3.3-20.3s12,3.6,14.9-13.4
			S186.7,118.2,186.7,118.2z"/>
		<path id="XMLID_62_" class="st2" d="M288.3,131.3c0.7-24-28.3-28.7-28.3-28.7s12-17.1-5.4-37s-40.3,0-40.3,0s2.5-21.4-13.8-28.7
			s-33,8.3-33,8.3s-16.8-16.3-39.3-14.9c-22.5,1.4-25.4,25.4-25.4,25.4s-24-8.3-42.7,2.5c-18.7,11-12.8,38.2-12.8,38.2
			s-14.5,1.5-14.9,16.3s9.1,22.1,9.1,22.1c-17.4,4-19.2,21.4-17.4,40.7c1.8,19.2,23.2,18.9,23.2,18.9s-9.4,11.3,6.9,26.5
			s31.9,4.7,31.9,4.7s-8.3,16.3,17.4,27.2s29-10.2,29-10.2s6.2,14.9,27.8,14.5c21.6-0.4,26-20.3,26-20.3s16.3,17.4,40.3,5.8
			s16-32.7,16-32.7s16,5.1,29-17.4s-14.2-35.9-14.2-35.9S287.6,155.2,288.3,131.3z M241.3,154.6c0,0,22.9,11.3,11.9,30.2
			c-11,18.9-24.4,14.7-24.4,14.7s6.7,17.7-13.4,27.5s-33.9-4.9-33.9-4.9s-3.7,16.8-21.8,17.1c-18.2,0.3-23.4-12.2-23.4-12.2
			s-2.7,17.7-24.4,8.5s-14.7-22.9-14.7-22.9s-13.1,8.9-26.9-4c-13.7-12.8-5.8-22.3-5.8-22.3s-18,0.3-19.5-15.9s0-30.8,14.7-34.2
			c0,0-7.9-6.1-7.6-18.6s12.5-13.7,12.5-13.7s-5-22.9,10.8-32c15.7-9.2,35.9-2.1,35.9-2.1s2.4-20.1,21.4-21.4
			c18.9-1.2,33,12.5,33,12.5s14-13.1,27.8-7C207.1,60,205,78,205,78s19.2-16.8,33.9,0s4.6,31.1,4.6,31.1s24.4,4,23.8,24.1
			C266.6,153.4,241.3,154.6,241.3,154.6z"/>
	</g>
	<path id="border" class="st3" d="M288.3,131.3c0.7-24-28.3-28.7-28.3-28.7s12-17.1-5.4-37s-40.3,0-40.3,0s2.5-21.4-13.8-28.7
		s-33,8.3-33,8.3s-16.8-16.3-39.3-14.9c-22.5,1.4-25.4,25.4-25.4,25.4s-24-8.3-42.7,2.5c-18.7,11-12.8,38.2-12.8,38.2
		s-14.5,1.5-14.9,16.3s9.1,22.1,9.1,22.1c-17.4,4-19.2,21.4-17.4,40.7c1.8,19.2,23.2,18.9,23.2,18.9s-9.4,11.3,6.9,26.5
		s31.9,4.7,31.9,4.7s-8.3,16.3,17.4,27.2s29-10.2,29-10.2s6.2,14.9,27.8,14.5c21.6-0.4,26-20.3,26-20.3s16.3,17.4,40.3,5.8
		s16-32.7,16-32.7s16,5.1,29-17.4s-14.2-35.9-14.2-35.9S287.6,155.2,288.3,131.3z M210.6,131.6c-2.9,17.1-14.9,13.4-14.9,13.4
		s6.2,12.7-3.3,20.3c-9.4,7.6-16.3,0-16.3,0s3.6,16.3-9.1,21.1c-12.7,4.7-21.8-5.4-21.8-5.4s-9.1,6.9-19.6,1.8s-5.1-22.1-5.1-22.1
		s-30.5,0.7-26.1-18.9s17.4-16.3,17.4-16.3s-7.6-14.5,1.8-18.2c9.4-3.6,28.7,0,28.7,0s-1-12.3,12.4-12.3s13.4,11.3,13.4,11.3
		s13.8-4.7,18.5,1.8s0,10.2,0,10.2S213.5,114.6,210.6,131.6z"/>
	<path id="gray" class="st4" d="M288.3,131.3c0.7-24-28.3-28.7-28.3-28.7s12-17.1-5.4-37s-40.3,0-40.3,0s2.5-21.4-13.8-28.7
		s-33,8.3-33,8.3s-16.8-16.3-39.3-14.9c-22.5,1.4-25.4,25.4-25.4,25.4s-24-8.3-42.7,2.5c-18.7,11-12.8,38.2-12.8,38.2
		s-14.5,1.5-14.9,16.3s9.1,22.1,9.1,22.1c-17.4,4-19.2,21.4-17.4,40.7c1.8,19.2,23.2,18.9,23.2,18.9s-9.4,11.3,6.9,26.5
		s31.9,4.7,31.9,4.7s-8.3,16.3,17.4,27.2s29-10.2,29-10.2s6.2,14.9,27.8,14.5c21.6-0.4,26-20.3,26-20.3s16.3,17.4,40.3,5.8
		s16-32.7,16-32.7s16,5.1,29-17.4s-14.2-35.9-14.2-35.9S287.6,155.2,288.3,131.3z M210.6,131.6c-2.9,17.1-14.9,13.4-14.9,13.4
		s6.2,12.7-3.3,20.3c-9.4,7.6-16.3,0-16.3,0s3.6,16.3-9.1,21.1c-12.7,4.7-21.8-5.4-21.8-5.4s-9.1,6.9-19.6,1.8s-5.1-22.1-5.1-22.1
		s-30.5,0.7-26.1-18.9s17.4-16.3,17.4-16.3s-7.6-14.5,1.8-18.2c9.4-3.6,28.7,0,28.7,0s-1-12.3,12.4-12.3s13.4,11.3,13.4,11.3
		s13.8-4.7,18.5,1.8s0,10.2,0,10.2S213.5,114.6,210.6,131.6z"/>
	<path id="XMLID_65_" class="st5" d="M196.6,110c0,0,6.2-4.8,0-13.4s-24.5-2.4-24.5-2.4s0-14.9-17.8-14.9S138,95.6,138,95.6
		s-25.4-4.8-37.9,0s-2.4,24-2.4,24s-17.3-4.3-23,21.6s34.6,25,34.6,25s-7.2,22.6,6.7,29.3s25.9-2.4,25.9-2.4s12,13.4,28.8,7.2
		s12-27.8,12-27.8s9.1,10.1,21.6,0s4.3-26.9,4.3-26.9s15.8,4.8,19.7-17.8C232.1,105.2,196.6,110,196.6,110z M210.6,131.6
		c-2.9,17.1-14.9,13.4-14.9,13.4s6.2,12.7-3.3,20.3c-9.4,7.6-16.3,0-16.3,0s3.6,16.3-9.1,21.1c-12.7,4.7-21.8-5.4-21.8-5.4
		s-9.1,6.9-19.6,1.8s-5.1-22.1-5.1-22.1s-30.5,0.7-26.1-18.9s17.4-16.3,17.4-16.3s-7.6-14.5,1.8-18.2c9.4-3.6,28.7,0,28.7,0
		s-1-12.3,12.4-12.3s13.4,11.3,13.4,11.3s13.8-4.7,18.5,1.8s0,10.2,0,10.2S213.5,114.6,210.6,131.6z"/>
	<path id="border2" class="st6" d="M288.3,131.3c0.7-24-28.3-28.7-28.3-28.7s12-17.1-5.4-37s-40.3,0-40.3,0s2.5-21.4-13.8-28.7
		s-33,8.3-33,8.3s-16.8-16.3-39.3-14.9c-22.5,1.4-25.4,25.4-25.4,25.4s-24-8.3-42.7,2.5c-18.7,11-12.8,38.2-12.8,38.2
		s-14.5,1.5-14.9,16.3s9.1,22.1,9.1,22.1c-17.4,4-19.2,21.4-17.4,40.7c1.8,19.2,23.2,18.9,23.2,18.9s-9.4,11.3,6.9,26.5
		s31.9,4.7,31.9,4.7s-8.3,16.3,17.4,27.2s29-10.2,29-10.2s6.2,14.9,27.8,14.5c21.6-0.4,26-20.3,26-20.3s16.3,17.4,40.3,5.8
		s16-32.7,16-32.7s16,5.1,29-17.4s-14.2-35.9-14.2-35.9S287.6,155.2,288.3,131.3z M245,155.1c0,0,23.9,11.8,12.4,31.5
		C246,206.4,232,201.9,232,201.9s7,18.5-14,28.7s-35.4-5.1-35.4-5.1s-3.8,17.5-22.8,17.8s-24.4-12.7-24.4-12.7s-2.9,18.5-25.5,8.9
		s-15.3-23.9-15.3-23.9s-13.7,9.2-28-4.1s-6.1-23.3-6.1-23.3s-18.8,0.3-20.4-16.6c-1.6-16.9,0-32.2,15.3-35.7c0,0-8.3-6.4-8-19.4
		c0.3-13.1,13.1-14.3,13.1-14.3s-5.2-23.9,11.3-33.4c16.4-9.6,37.5-2.2,37.5-2.2s2.5-21,22.3-22.3c19.8-1.3,34.4,13,34.4,13
		s14.7-13.7,29-7.3s12.1,25.2,12.1,25.2s20.1-17.5,35.4,0s4.8,32.5,4.8,32.5s25.5,4.1,24.8,25.2C271.5,153.8,245,155.1,245,155.1z"
		/>
	<path id="white" class="st7" d="M288.3,131.3c0.7-24-28.3-28.7-28.3-28.7s12-17.1-5.4-37s-40.3,0-40.3,0s2.5-21.4-13.8-28.7
		s-33,8.3-33,8.3s-16.8-16.3-39.3-14.9c-22.5,1.4-25.4,25.4-25.4,25.4s-24-8.3-42.7,2.5c-18.7,11-12.8,38.2-12.8,38.2
		s-14.5,1.5-14.9,16.3s9.1,22.1,9.1,22.1c-17.4,4-19.2,21.4-17.4,40.7c1.8,19.2,23.2,18.9,23.2,18.9s-9.4,11.3,6.9,26.5
		s31.9,4.7,31.9,4.7s-8.3,16.3,17.4,27.2s29-10.2,29-10.2s6.2,14.9,27.8,14.5c21.6-0.4,26-20.3,26-20.3s16.3,17.4,40.3,5.8
		s16-32.7,16-32.7s16,5.1,29-17.4s-14.2-35.9-14.2-35.9S287.6,155.2,288.3,131.3z M227.5,128.8c-3.7,22-19.2,17.3-19.2,17.3
		s8,16.4-4.2,26.2s-21.1,0-21.1,0s4.7,21.1-11.7,27.2c-16.4,6.1-28.1-7-28.1-7s-11.7,8.9-25.3,2.3c-13.6-6.6-6.6-28.6-6.6-28.6
		s-39.3,0.9-33.7-24.3s22.5-21.1,22.5-21.1s-9.8-18.7,2.3-23.4c12.2-4.7,37,0,37,0s-1.4-15.9,15.9-15.9S172.7,96,172.7,96
		s17.8-6.1,23.9,2.3c6.1,8.4,0,13.1,0,13.1S231.2,106.8,227.5,128.8z"/>
	<path id="XMLID_15_" class="st8" d="M193.4,215.6c0,0,12.2,9.6,20.6-0.1s4.4-18.9,4.4-18.9s0,13.2-8.6,18
		C201.2,219.4,193.4,215.6,193.4,215.6z"/>
	<path id="XMLID_41_" class="st8" d="M235.5,100.6c0,0,7.5-13.6-3.4-20.3c-10.9-6.7-19.3-1.4-19.3-1.4s13-2.1,19.1,5.6
		C238,92.3,235.5,100.6,235.5,100.6z"/>
	<path id="XMLID_42_" class="st8" d="M96.9,83.8c0,0-10.9-11-20.4-2.4C67,90,69.8,99.6,69.8,99.6s1.7-13.1,10.8-16.8
		C89.7,79.1,96.9,83.8,96.9,83.8z"/>
	<path id="XMLID_53_" class="st8" d="M68.9,191.7c0,0-2.5,15.3,10,18s18.6-5.2,18.6-5.2s-11.6,6.3-19.9,1.1S68.9,191.7,68.9,191.7z"
		/>
</g>
</svg>
