<?xml version="1.0" encoding="utf-8"?>
<!-- Generator: Adobe Illustrator 19.0.0, SVG Export Plug-In . SVG Version: 6.00 Build 0)  -->
<svg version="1.0" id="Calque_1" xmlns="http://www.w3.org/2000/svg" xmlns:xlink="http://www.w3.org/1999/xlink" x="0px" y="0px" width="300px" height="260px"
	 viewBox="0 21 300 260" style="enable-background:new 0 21 300 260;" xml:space="preserve">
<style type="text/css">
	.st0{fill:#F4F4F4;stroke:#B5B5B6;stroke-width:5;stroke-miterlimit:10;}
	.st1{fill:#F4F4F4;}
	.st2{fill:#EDEDED;}
	.st3{fill:#FFFFFF;}
	.st4{display:none;fill:#B5B5B6;}
	.st5{fill:#B5B5B6;}
</style>
<g id="cloud2">
	<path id="XMLID_22_" class="st0" d="M106.1,200.3c0,0-34,6.5-43.7-15.2s10.5-43,10.5-43S52.4,118.6,68.7,98s48.3-9.2,48.3-9.2
		s8.4-28.6,42.8-24.4S190.1,94,190.1,94s38.6-5.3,47.9,22.9S224.1,156,224.1,156s18.9,21.8-1.3,51.7S177,220,177,220
		s-10.9,16.7-39.9,13.8S106.1,200.3,106.1,200.3z"/>
	<path id="XMLID_23_" class="st1" d="M106.1,200.3c0,0-34,6.5-43.7-15.2s10.5-43,10.5-43S52.4,118.6,68.7,98s48.3-9.2,48.3-9.2
		s8.4-28.6,42.8-24.4S190.1,94,190.1,94s38.6-5.3,47.9,22.9S224.1,156,224.1,156s18.9,21.8-1.3,51.7S177,220,177,220
		s-10.9,16.7-39.9,13.8S106.1,200.3,106.1,200.3z"/>
	<path id="XMLID_27_" class="st2" d="M206.7,185.5c0,0-19.7,18.7-34,16.6c-14.3-2.1-30.4-12.9-30.4-12.9s-27.4,9.2-41.1-1.2
		s-22.7-29.8-8.9-45.7c3.1-3.5,3-3.3,3-3.3s-8.9-14.5-1.8-27c15.8-27.9,37.6-14,38.7-2c3.5-1.7,34.2-26.6,56.7-2
		c7.7,8.5,17.8,34,11.2,37.5C200.1,145.4,221.9,164.4,206.7,185.5z"/>
	<path id="XMLID_21_" class="st3" d="M99.6,157.7c0,0,2.4-20.6,14-27c8.9-4.9,22.2-0.9,22.2-0.9s4.4-15.6,16.5-16
		c15.2-0.5,27,3.1,26.5,17.9c-0.1,3.3,0.1,3.7,0.1,3.7s13.7,2.5,15.3,12.5c3.7,22.3-23.1,29-29.1,21.9c-1.1,2.5-1.7,12.8-18,11.2
		c-8-0.8-17.7-12-16.6-14.7C130.6,166.3,100.6,176,99.6,157.7z"/>
	<path id="XMLID_20_" class="st4" d="M142.4,133.5c0,0-18.5-16.7-33-2s-9.1,29.8-9.1,29.8s0.1-23.1,14.4-29.9
		C129,124.6,142.4,133.5,142.4,133.5z"/>
	<path id="XMLID_19_" class="st4" d="M174.7,119.2c0,0-18.5-16.7-33-2s-3.5,13.5-3.5,13.5s-3.8-5.8,7.2-13.5
		C158.3,108.1,174.7,119.2,174.7,119.2z"/>
	<path id="XMLID_17_" class="st5" d="M168.6,162.7c0,0,4.9,7.6,11.3,3.8s6-9.5,6-9.5s-2.5,7.2-8.1,8.3
		C172.1,166.3,168.6,162.7,168.6,162.7z"/>
	<path id="XMLID_25_" class="st5" d="M115.4,207.4c0,0,6.3,19.3,23.8,19.4c20.5,0.1,29.3-11.9,29.3-11.9s-15.9,10.9-32.5,9.3
		C122.7,223,115.4,207.4,115.4,207.4z"/>
	<path id="XMLID_26_" class="st5" d="M108.4,96.1c0,0-17.8-11.5-27.9,2.8s-3.6,26.2-3.6,26.2s-3-20.2,8-27.8S108.4,96.1,108.4,96.1z
		"/>
	<path id="XMLID_28_" class="st5" d="M218.9,143.8c0,0,15.1-14.9,3.3-27.9c-11.7-13-24.8-9.2-24.8-9.2s19.6,2,24.6,14.4
		S218.9,143.8,218.9,143.8z"/>
	<path id="XMLID_29_" class="st5" d="M172.1,95.6c0,0,2.8-21-14.4-24.1s-25.2,7.9-25.2,7.9s18.2-9.7,29.8-2.9
		C173.9,83.3,172.1,95.6,172.1,95.6z"/>
</g>
</svg>
