<?xml version="1.0" encoding="utf-8"?>
<!-- Generator: Adobe Illustrator 19.0.0, SVG Export Plug-In . SVG Version: 6.00 Build 0)  -->
<svg version="1.0" id="Calque_1" xmlns="http://www.w3.org/2000/svg" xmlns:xlink="http://www.w3.org/1999/xlink" x="0px" y="0px" width="300px" height="260px"
	 viewBox="0 21 300 260" style="enable-background:new 0 21 300 260;" xml:space="preserve">
<style type="text/css">
	.st0{fill:none;stroke:#B4B4B5;stroke-width:5;stroke-miterlimit:10;}
	.st1{fill:#FFFFFF;}
	.st2{fill:#EAEAEA;}
	.st3{fill:#B5B5B6;}
	.st4{fill:#009444;}
	.st5{fill:#E5E5E5;}
	.st6{fill:#E3E5E4;}
</style>
<g id="cloud6">
	<g id="Calque_14">
		<path id="XMLID_44_" class="st0" d="M67.3,138.1c0,0,8.5,12.3,5.7,22.5c-2.7,10.1-8.2,18.6-23.8,19.4s-27.1-17.2-26.8-24.9
			s7.7-18.3,11.2-20c0,0-10.2-12.1-7-24.9s17.6-17,17.6-17s-6.8-38.6,12.2-38.5c19.1,0.1,21.2,4,21.2,4s15.1-12.9,22.8-1.4
			s1.6,22.5,1.6,22.5s19,4.6,12.7,24.1c-6.2,19.7-22.7,12.4-22.7,12.4s12.3,9.2,11.5,20C99.6,134.3,65.8,130.6,67.3,138.1z"/>
		<path id="XMLID_85_" class="st1" d="M67.3,138.1c0,0,8.5,12.3,5.7,22.5c-2.7,10.1-8.2,18.6-23.8,19.4s-27.1-17.2-26.8-24.9
			s7.7-18.3,11.2-20c0,0-10.2-12.1-7-24.9s17.6-17,17.6-17s-6.8-38.6,12.2-38.5c19.1,0.1,21.2,4,21.2,4s15.1-12.9,22.8-1.4
			s1.6,22.5,1.6,22.5s19,4.6,12.7,24.1c-6.2,19.7-22.7,12.4-22.7,12.4s12.3,9.2,11.5,20C99.6,134.3,65.8,130.6,67.3,138.1z"/>
		<g id="XMLID_87_">
			<path id="XMLID_91_" class="st2" d="M110.6,88.1c0,0,1.7,0.4,3.9,1.4c-0.8-1.6-1.7-2.9-2.8-4C111.2,87.1,110.6,88.1,110.6,88.1z"
				/>
			<path id="XMLID_92_" class="st2" d="M29.4,160.7c0.3-7.4,7.8-17.7,11.4-19.3c0,0-10.4-11.7-7.2-24.1c3.3-12.3,18-16.3,18-16.3
				s-7-37.3,12.5-37.2s21.6,3.9,21.6,3.9s9.4-7.5,17.2-5.6c-0.6-1.6-1.4-3.1-2.4-4.7c-7.7-11.5-22.8,1.4-22.8,1.4s-2.1-3.9-21.2-4
				S44.3,93.3,44.3,93.3s-14.4,4.2-17.6,17s7,24.9,7,24.9c-3.6,1.6-11,12.3-11.2,20c-0.2,5.9,6.5,17.8,16.6,22.7
				C32.9,172.3,29.2,164.9,29.4,160.7z"/>
		</g>
		<path id="XMLID_86_" class="st3" d="M88.9,76.5c0,0-7.2-9.2-15.1-3.6s-6.6,13-6.6,13s2.4-9.6,9.6-11.6
			C83.9,72.3,88.9,76.5,88.9,76.5z"/>
		<path id="XMLID_97_" class="st3" d="M58.8,110.3c0,0-11.7-1.1-13,8.5s4.9,13.7,4.9,13.7s-5.4-8.4-1.9-14.9
			C52.3,111,58.8,110.3,58.8,110.3z"/>
		<path id="XMLID_98_" class="st3" d="M51.2,150.9c0,0-11.7-1.1-13,8.5s4.9,13.7,4.9,13.7s-5.4-8.4-1.9-14.9
			C44.7,151.6,51.2,150.9,51.2,150.9z"/>
	</g>
	<g id="Calque_15">
		<path id="XMLID_165_" class="st4" d="M189.2,96.8l2,6.2l29-18.3c0,0,0.5,11.3,10,13.3s25-2.5,28.2-14.5c3.2-12,0.8-39.7-28.8-26.2
			c-2.1-2.2-4.5-4.6-4.5-4.6l-7.8,0.9l0.4-11.9c0,0-8.2-15.1-25.7-12S170.6,39,170.6,39s-20.2-22-35.6-9.1s-1.1,34.3,11.4,36.7
			s14.5,1.6,14.5,1.6s0.2,3.4,3.7,3.8c3.6,0.5,15.6,0.1,15.6,0.1l1.5,24.6L189.2,96.8z"/>
		<path id="XMLID_161_" class="st0" d="M189.2,96.8l2,6.2l29-18.3c0,0,0.5,11.3,10,13.3s25-2.5,28.2-14.5c3.2-12,0.8-39.7-28.8-26.2
			c-2.1-2.2-4.5-4.6-4.5-4.6l-7.8,0.9l0.4-11.9c0,0-8.2-15.1-25.7-12S170.6,39,170.6,39s-20.2-22-35.6-9.1s-1.1,34.3,11.4,36.7
			s14.5,1.6,14.5,1.6s0.2,3.4,3.7,3.8c3.6,0.5,15.6,0.1,15.6,0.1l1.5,24.6L189.2,96.8z"/>
		<path id="XMLID_160_" class="st1" d="M189.2,96.8l2,6.2l29-18.3c0,0,0.5,11.3,10,13.3s25-2.5,28.2-14.5c3.2-12,0.8-39.7-28.8-26.2
			c-2.1-2.2-4.5-4.6-4.5-4.6l-7.8,0.9l0.4-11.9c0,0-8.2-15.1-25.7-12S170.6,39,170.6,39s-20.2-22-35.6-9.1s-1.1,34.3,11.4,36.7
			s14.5,1.6,14.5,1.6s0.2,3.4,3.7,3.8c3.6,0.5,15.6,0.1,15.6,0.1l1.5,24.6L189.2,96.8z"/>
		<path id="XMLID_159_" class="st2" d="M229.6,57.3c-2.1-2.2-4.5-4.6-4.5-4.6l-7.8,0.9l0.4-11.9c0,0-8.2-15.1-25.7-12
			S170.6,39,170.6,39s-20.2-22-35.6-9.1c-4.7,3.9-6.6,8.5-6.7,13.2c0.8-0.9,1.6-1.8,2.7-2.6c15.4-12.9,35.6,9.3,35.6,9.3
			s3.9-6.2,21.4-9.3s25.7,12,25.7,12l-0.4,11.9l7.8-0.9c0,0,2.4,2.4,4.5,4.6c26.5-12.1,31.2,8.7,29.6,21.9c1.5-1.8,2.6-3.9,3.2-6.3
			C261.6,71.5,259.3,43.8,229.6,57.3z"/>
		<path id="XMLID_158_" class="st3" d="M161.1,41.5c0,0-7.2-9.2-15.1-3.6s-6.6,13-6.6,13s2.4-9.6,9.6-11.6
			C156.1,37.2,161.1,41.5,161.1,41.5z"/>
		<path id="XMLID_157_" class="st3" d="M246.6,83.5c0,0,7.7-8.8,0.8-15.5c-7-6.7-14-4.1-14-4.1s9.9,0.6,13.2,7.2
			C249.8,77.8,246.6,83.5,246.6,83.5z"/>
	</g>
	<g id="Calque_16">
		<path id="XMLID_72_" class="st0" d="M105,180l1.5,9.6l5.1,2.2v24.1h17.1l4.9,5.6l2.6,7.8c0,0,5.7-21.5,6.2-21.5s3.8,2.2,3.8,2.2
			l8.5,1.2c0,0,2.3,8.6,7.1,11.2c0,0,8.1-7.1,8.5-10s17.9-0.1,17.9-0.1s17.2,21.2-1.5,30.9c0,0,1.2,20.4-22,20.8
			S135,249.1,135,249.1s-3.3,16-29.3,8.5s-21.2-24.4-21.2-24.4s-42.7,2.3-38.5-25.1s31.1-19,31.1-19l11.2,11.2
			C88.3,200.4,105,187.6,105,180z"/>
		<path id="XMLID_101_" class="st1" d="M105,180l1.5,9.6l5.1,2.2v24.1h17.1l4.9,5.6l2.6,7.8c0,0,5.7-21.5,6.2-21.5s3.8,2.2,3.8,2.2
			l8.5,1.2c0,0,2.3,8.6,7.1,11.2c0,0,8.1-7.1,8.5-10s17.9-0.1,17.9-0.1s17.2,21.2-1.5,30.9c0,0,1.2,20.4-22,20.8
			S135,249.1,135,249.1s-3.3,16-29.3,8.5s-21.2-24.4-21.2-24.4s-42.7,2.3-38.5-25.1s31.1-19,31.1-19l11.2,11.2
			C88.3,200.4,105,187.6,105,180z"/>
		<path id="XMLID_107_" class="st5" d="M186.7,230.9c0,0,1.2,20.4-22,20.8S135,236.8,135,236.8s-3.3,16-29.3,8.5
			s-21.2-24.4-21.2-24.4s-32,1.7-37.8-15.6c-0.2,0.9-0.5,1.8-0.6,2.8c-4.2,27.4,38.5,25.1,38.5,25.1s-4.8,16.8,21.2,24.4
			c26,7.5,29.3-8.5,29.3-8.5s6.4,15.3,29.7,14.9s22-20.8,22-20.8c9.7-5,9.8-13.2,7.5-19.8C193,226.2,190.7,228.9,186.7,230.9z"/>
		<path id="XMLID_104_" class="st3" d="M158.9,238.3c0,0,6,10,14.5,5.4s8.2-12.1,8.2-12.1s-3.6,9.3-10.9,10.4
			S158.9,238.3,158.9,238.3z"/>
		<path id="XMLID_106_" class="st3" d="M101,229.8c0,0,0.8,11.7,10.4,11.5s12.8-7,12.8-7s-7.4,6.6-14.4,4.3S101,229.8,101,229.8z"/>
		<path id="XMLID_108_" class="st3" d="M67.1,192.3c0,0-11.6-1.3-13.1,8.2s4.7,13.8,4.7,13.8s-5.2-8.5-1.6-15
			C60.6,192.9,67.1,192.3,67.1,192.3z"/>
	</g>
	<g id="Calque_17">
		<path id="XMLID_105_" class="st0" d="M239.7,172.9c0,0-18.5-10.5-14.6-22.2c3.8-11.6,7.5-6.3,3.1-14.4c-4.4-8.1,0-22.7,10.4-22.2
			s10.5,4,10.5,4l1.5-11c0,0,28.7-7.9,36.1,7.1s7.8,38.6-14.2,44.5c-4.9,1.6,0.3,7.3,0.3,7.3s17.4,28.3-4.8,37.9
			c-5.7,11.8-4,19-4,19s-2.7,12-19.3,9.6c-16.6-2.5-18.6-18.3-18.6-18.3S213.7,202,215,189.4C216.4,176.9,239.7,172.9,239.7,172.9z"
			/>
		<path id="XMLID_103_" class="st1" d="M239.7,172.9c0,0-18.5-10.5-14.6-22.2c3.8-11.6,7.5-6.3,3.1-14.4c-4.4-8.1,0-22.7,10.4-22.2
			s10.5,4,10.5,4l1.5-11c0,0,28.7-7.9,36.1,7.1s7.8,38.6-14.2,44.5c-4.9,1.6,0.3,7.3,0.3,7.3s17.4,28.3-4.8,37.9
			c-5.7,11.8-4,19-4,19s-2.7,12-19.3,9.6c-16.6-2.5-18.6-18.3-18.6-18.3S213.7,202,215,189.4C216.4,176.9,239.7,172.9,239.7,172.9z"
			/>
		<g id="XMLID_99_">
			<path id="XMLID_102_" class="st6" d="M234.3,114.9c0.6,0.6,0.6,1.1,0.6,1.1l0.2-1.4C234.8,114.7,234.6,114.8,234.3,114.9z"/>
			<path id="XMLID_100_" class="st6" d="M272.5,158.8c22-5.9,21.6-29.4,14.2-44.5c-3.9-7.9-13.7-9.5-22.1-9.2
				c3.3,1.4,6.2,3.6,7.8,7.1c7.4,15.1,7.8,38.6-14.2,44.5c-4.9,1.6,0.3,7.3,0.3,7.3s17.4,28.3-4.8,37.9c-5.7,11.8-4,19-4,19
				s-1.9,8.1-11.7,9.7c1.9,0.9,4.1,1.7,6.7,2c16.6,2.5,19.3-9.6,19.3-9.6s-1.8-7.3,4-19c22.2-9.6,4.8-37.9,4.8-37.9
				S267.6,160.4,272.5,158.8z"/>
		</g>
		<path id="XMLID_93_" class="st3" d="M227.6,200.4c0,0,6,10,14.5,5.4s8.2-12.1,8.2-12.1s-3.6,9.3-10.9,10.4
			S227.6,200.4,227.6,200.4z"/>
		<path id="XMLID_52_" class="st3" d="M264.1,137.5c0,0,10.3-5.6,6-14.3s-11.8-8.6-11.8-8.6s9.1,3.9,9.9,11.3
			S264.1,137.5,264.1,137.5z"/>
	</g>
</g>
</svg>
