<?xml version="1.0" encoding="utf-8"?>
<!-- Generator: Adobe Illustrator 19.0.0, SVG Export Plug-In . SVG Version: 6.00 Build 0)  -->
<svg version="1.0" id="Calque_1" xmlns="http://www.w3.org/2000/svg" xmlns:xlink="http://www.w3.org/1999/xlink" x="0px" y="0px" width="300px" height="260px"
	 viewBox="0 21 300 260" style="enable-background:new 0 21 300 260;" xml:space="preserve">
<style type="text/css">
	.st0{fill:none;stroke:#B5B5B6;stroke-width:5;stroke-miterlimit:10;}
	.st1{fill:#DCDBDB;}
	.st2{fill:#F7F7F7;}
	.st3{fill:#B5B5B6;}
	.st4{fill:#E5E5E5;}
	.st5{display:none;}
	.st6{display:inline;fill:#B5B5B6;}
</style>
<g id="cloud3">
	<g id="Calque_7">
		<path id="XMLID_37_" class="st0" d="M285,137.8c1.2-21.7-28.6-30.1-28.6-30.1s12.2-22.9-5.4-36.9S215,72,215,72
			s3.4-23.9-16.3-30.4S169,54.3,169,54.3s-7.8-17.4-34.4-17.4S96.4,63,96.4,63S73.6,54.8,60,66.4s-6.7,29.9-6.7,29.9
			s-20.6,7.6-21.7,22.3s14.1,26.1,14.1,26.1s-18.3,4.6-16.5,27c1.8,22.3,25,26.8,25,26.8s-3.6,19.4,10.7,28.6
			c14.3,9.2,28-0.6,28-0.6s-4.5,21.4,15.2,28.6c19.7,7.1,29.2-10.1,29.2-10.1s13.4,17.9,27.4,14.3s18.8-18.5,18.8-18.5
			s20.3,14.3,39.6,5.4s16.7-29.2,16.7-29.2s18.2-0.9,28.6-20.3s-8.3-32.2-8.3-32.2S283.8,159.5,285,137.8z M167.9,152.7
			c0,0-13.4-1.9-11.9,9.1c0,0-7.9-1.3-7.6,7.7c0,0-0.6-8.5-8.3-7.7c0,0-0.6-17.9-15.3-15.3c0,0,8-6.7,1.9-10.6c0,0,5.5,5.1,13.4-2.5
			c7.9-7.6,4.8-15.3,4.8-15.3s8,6.9,13.4,0.6c0,0-3.6,4.2,0,6.4c3.6,2.2,6.4,2.2,6.4,2.2s-4.8,2.5-0.9,5.8c3.9,3.3,8.9,1.9,8.9,1.9
			s-3.7,9.1,5.4,12.4C178.1,147.3,168.2,145.4,167.9,152.7z"/>
	</g>
	<g id="Calque_7_-_copie_2">
		<path id="XMLID_162_" class="st1" d="M285,137.8c1.2-21.7-28.6-30.1-28.6-30.1s12.2-22.9-5.4-36.9S215,72,215,72
			s3.4-23.9-16.3-30.4S169,54.3,169,54.3s-7.8-17.4-34.4-17.4S96.4,63,96.4,63S73.6,54.8,60,66.4s-6.7,29.9-6.7,29.9
			s-20.6,7.6-21.7,22.3s14.1,26.1,14.1,26.1s-18.3,4.6-16.5,27c1.8,22.3,25,26.8,25,26.8s-3.6,19.4,10.7,28.6
			c14.3,9.2,28-0.6,28-0.6s-4.5,21.4,15.2,28.6c19.7,7.1,29.2-10.1,29.2-10.1s13.4,17.9,27.4,14.3s18.8-18.5,18.8-18.5
			s20.3,14.3,39.6,5.4s16.7-29.2,16.7-29.2s18.2-0.9,28.6-20.3s-8.3-32.2-8.3-32.2S283.8,159.5,285,137.8z M167.9,152.7
			c0,0-13.4-1.9-11.9,9.1c0,0-7.9-1.3-7.6,7.7c0,0-0.6-8.5-8.3-7.7c0,0-0.6-17.9-15.3-15.3c0,0,8-6.7,1.9-10.6c0,0,5.5,5.1,13.4-2.5
			c7.9-7.6,4.8-15.3,4.8-15.3s8,6.9,13.4,0.6c0,0-3.6,4.2,0,6.4c3.6,2.2,6.4,2.2,6.4,2.2s-4.8,2.5-0.9,5.8c3.9,3.3,8.9,1.9,8.9,1.9
			s-3.7,9.1,5.4,12.4C178.1,147.3,168.2,145.4,167.9,152.7z"/>
	</g>
	<g id="Calque_7_-_copie">
		<path id="XMLID_40_" class="st2" d="M285,137.8c1.2-21.7-28.6-30.1-28.6-30.1s12.2-22.9-5.4-36.9S215,72,215,72
			s3.4-23.9-16.3-30.4S169,54.3,169,54.3s-7.8-17.4-34.4-17.4S96.4,63,96.4,63S73.6,54.8,60,66.4s-6.7,29.9-6.7,29.9
			s-20.6,7.6-21.7,22.3s14.1,26.1,14.1,26.1s-18.3,4.6-16.5,27c1.8,22.3,25,26.8,25,26.8s-3.6,19.4,10.7,28.6
			c14.3,9.2,28-0.6,28-0.6s-4.5,21.4,15.2,28.6c19.7,7.1,29.2-10.1,29.2-10.1s13.4,17.9,27.4,14.3s18.8-18.5,18.8-18.5
			s20.3,14.3,39.6,5.4s16.7-29.2,16.7-29.2s18.2-0.9,28.6-20.3s-8.3-32.2-8.3-32.2S283.8,159.5,285,137.8z M180.4,159.4
			c0,0-23.6-3.4-20.9,16c0,0-13.9-2.4-13.3,13.6c0,0-1-14.9-14.7-13.6c0,0-1-31.4-27-27c0,0,13.4-11.2,4.1-18.1
			c-0.4-0.3-0.7-0.5-0.7-0.5c0.3,0.2,0.4,0.3,0.7,0.5c2.4,1.7,11.1,6.4,22.9-5c13.9-13.3,8.4-27,8.4-27s14.1,12,23.6,1
			c0,0-6.3,7.3,0,11.3c6.3,3.9,11.3,3.9,11.3,3.9s-8.4,4.4-1.6,10.2c6.8,5.8,15.7,3.4,15.7,3.4s-6.5,16,9.4,21.7
			C198.2,150,181,146.6,180.4,159.4z"/>
		<path id="XMLID_24_" class="st3" d="M183.2,212.4c0,0,15,11.8,25.3-0.2s5.4-23.2,5.4-23.2s0,16.2-10.5,22.2
			C192.8,217.1,183.2,212.4,183.2,212.4z"/>
		<path id="XMLID_31_" class="st3" d="M65.3,154c0,0-11.1,15.6,1.3,25.3s23.4,4.4,23.4,4.4s-16.2,0.7-22.6-9.6
			C61,163.7,65.3,154,65.3,154z"/>
		<path id="XMLID_33_" class="st3" d="M160.5,82.5c0,0-7.3-17.7-22.1-12.2s-16.1,17.6-16.1,17.6s8-14.1,20.1-14.2
			C154.5,73.7,160.5,82.5,160.5,82.5z"/>
	</g>
	<path id="XMLID_4_" class="st4" d="M285,137.8c1.2-21.7-28.6-30.1-28.6-30.1s12.2-22.9-5.4-36.9S215,72,215,72s3.4-23.9-16.3-30.4
		S169,54.3,169,54.3s-7.8-17.4-34.4-17.4S96.4,63,96.4,63S73.6,54.8,60,66.4s-6.7,29.9-6.7,29.9s-20.6,7.6-21.7,22.3
		s14.1,26.1,14.1,26.1s-18.3,4.6-16.5,27c1.8,22.3,25,26.8,25,26.8s-3.6,19.4,10.7,28.6c14.3,9.2,28-0.6,28-0.6s-4.5,21.4,15.2,28.6
		c19.7,7.1,29.2-10.1,29.2-10.1s13.4,17.9,27.4,14.3s18.8-18.5,18.8-18.5s20.3,14.3,39.6,5.4s16.7-29.2,16.7-29.2
		s18.2-0.9,28.6-20.3s-8.3-32.2-8.3-32.2S283.8,159.5,285,137.8z M245.3,162.3c0,0,16.1,11,7.2,27.6S228,207.3,228,207.3
		s2.3,17.4-14.3,25c-16.6,7.7-34-4.6-34-4.6s-4.1,12.8-16.1,15.8c-12,3.1-23.5-12.3-23.5-12.3s-8.2,14.8-25,8.7
		c-16.9-6.1-13-24.5-13-24.5s-11.8,8.4-24,0.5c-12.3-7.9-9.2-24.5-9.2-24.5s-19.9-3.8-21.5-23c-1.5-19.2,14.2-23.1,14.2-23.1
		s-13-9.8-12.1-22.4c0.9-12.7,18.5-19.2,18.5-19.2S62.1,88,73.8,78s31.2-2.9,31.2-2.9s10-22.4,32.8-22.4s29.5,14.9,29.5,14.9
		s8.6-16.5,25.5-10.9s14,26.1,14,26.1s15.8-13,30.9-1c15.1,12,4.6,31.7,4.6,31.7s25.5,7.2,24.5,25.8S245.3,162.3,245.3,162.3z"/>
	<g id="Calque_7_-_copie_3" class="st5">
		<path id="XMLID_38_" class="st6" d="M55.1,217.3c0,0-0.1-2.5-2.1-2.1c0,0,1.1-0.9,0.3-1.5c0,0,0.8,0.7,1.9-0.4
			c1.1-1.1,0.7-2.1,0.7-2.1s1.1,1,1.9,0.1c0,0-0.5,0.6,0,0.9s0.9,0.3,0.9,0.3s-0.7,0.4-0.1,0.8c0.5,0.5,1.3,0.3,1.3,0.3
			s-0.5,1.3,0.8,1.7c0,0-1.4-0.3-1.4,0.8c0,0-1.9-0.3-1.7,1.3c0,0-1.1-0.2-1.1,1.1C56.3,218.4,56.2,217.2,55.1,217.3z"/>
	</g>
</g>
</svg>
