<?xml version="1.0" encoding="utf-8"?>
<!-- Generator: Adobe Illustrator 19.0.0, SVG Export Plug-In . SVG Version: 6.00 Build 0)  -->
<svg version="1.0" id="Calque_1" xmlns="http://www.w3.org/2000/svg" xmlns:xlink="http://www.w3.org/1999/xlink" x="0px" y="0px" width="300px" height="260px"
	 viewBox="0 21 300 260" style="enable-background:new 0 21 300 260;" xml:space="preserve">
<style type="text/css">
	.st0{fill:none;stroke:#B4B4B5;stroke-width:5;stroke-miterlimit:10;}
	.st1{fill:#E8E8E8;}
	.st2{fill:#FFFFFF;}
	.st3{fill:#C6C6C5;}
	.st4{fill:#B5B5B6;}
</style>
<g id="cloud1">
	<path id="XMLID_2_" class="st0" d="M182.1,165.8c0,0,7,22.9-6.2,26.8c-13.2,3.9-33.8-6.7-33.8-6.7s-25.6,5.7-34-3.7s0-30.1,0-30.1
		s-19.5-24.5,0.7-38.7s37.2,6.2,37.2,6.2s11.5-17.3,36.1,3.6S182.1,165.8,182.1,165.8z"/>
	<path id="XMLID_6_" class="st1" d="M182.1,165.8c0,0,7,22.9-6.2,26.8c-13.2,3.9-33.8-6.7-33.8-6.7s-25.6,5.7-34-3.7s0-30.1,0-30.1
		s-19.5-24.5,0.7-38.7s37.2,6.2,37.2,6.2s11.5-17.3,36.1,3.6S182.1,165.8,182.1,165.8z"/>
	<path id="XMLID_8_" class="st2" d="M119.5,128.8c0,0,11.8-7.7,18.9-5.3c7.1,2.4,14.3,9.4,14.3,9.4s14.9-2.1,20.9,4.5
		c6,6.6,8.8,17.4,0.3,24.2c-1.9,1.5-1.9,1.4-1.9,1.4s3.2,8.3-1.6,14c-10.7,12.8-20.5,3.6-20-2.6c-1.9,0.6-20,10.4-29.1-4.3
		c-3.1-5-5.9-19-2.2-20.2C119.2,149.9,109.8,138.2,119.5,128.8z"/>
	<g id="XMLID_12_">
		<path id="XMLID_13_" class="st3" d="M178.6,190.2c-13.2,3.9-33.8-6.7-33.8-6.7s-25.6,5.7-34-3.7s0-30.1,0-30.1
			s-16.5-20.8-3.3-35.1c-17.8,14.3,0.7,37.6,0.7,37.6s-8.4,20.7,0,30.1c8.4,9.4,34,3.7,34,3.7s20.6,10.6,33.8,6.7
			c2.3-0.7,3.9-2,5.2-3.6C180.4,189.6,179.6,190,178.6,190.2z"/>
		<path id="XMLID_14_" class="st3" d="M148.5,117c0.1,0.1,0.2,0.2,0.2,0.2s0.3-0.4,0.8-0.9C149.1,116.5,148.8,116.8,148.5,117z"/>
	</g>
	<path id="XMLID_7_" class="st4" d="M182.9,153.5c0,0,8.9-10.5,0.6-18.3c-8.3-7.7-16.6-4.5-16.6-4.5s11.7,0.5,15.7,8.2
		S182.9,153.5,182.9,153.5z"/>
	<path id="XMLID_16_" class="st4" d="M131.4,117.1c0,0-8.4-6.8-14.3-0.2c-5.9,6.7-3.3,13.1-3.3,13.1s0.2-9.2,6.2-12.4
		S131.4,117.1,131.4,117.1z"/>
	<path id="XMLID_9_" class="st4" d="M163.1,184.8c0,0,7.9,6.2,13.3,0c5.4-6.3,2.9-12.2,2.9-12.2s0,8.6-5.6,11.7
		C168.2,187.3,163.1,184.8,163.1,184.8z"/>
	<path id="XMLID_11_" class="st4" d="M124.1,162.9c0,0,4.8,12.9,15.6,9.5c10.8-3.5,5.2-5.7,5.2-5.7s-0.6,2.2-8,3.1
		C128.3,170.9,124.1,162.9,124.1,162.9z"/>
</g>
</svg>
