<svg version="1.0" id="圖層_1" xmlns="http://www.w3.org/2000/svg" x="0" y="0" width="300" height="260" style="enable-background:new 0 0 300 260" xml:space="preserve"><style>.st2{display:none}.st6{fill:#bc817d}.st10,.st9{fill:#fff}.st10{opacity:.18;enable-background:new}.st14{opacity:.52;fill:none;stroke:#492626;stroke-miterlimit:10}</style><path id="XMLID_2_" d="M71.9 211s-26.6-26.6-26.8-36c-.2-8.3-9.8-28-7.2-35.3s7.3-34.7 14-40.3c6.7-5.7 56-52.5 66.7-59.2s29.3-9.3 39.7-5.7 45 12.7 50 21.7 10.7 17.3 19 22 11.7 16.7 14.7 24 6 37.3 3 44-9.4 37.9-8.1 41.6c1.3 3.7-34.6 36.6-43 39.9-8.3 3.3-28-3-38-4s-28.7 4-37.7 8-32-5.7-36.3-9c-4.4-3.3-10-11.7-10-11.7z" style="opacity:.15;fill:#050606"/><g id="Calque_6"><path id="XMLID_41_" d="M93.2 187s-26.6-26.6-26.8-36c-.2-8.3-9.8-28-7.2-35.3 2.7-7.3 7.3-34.7 14-40.3 6.7-5.7 36.3-32.7 47-39.3s29.3-9.3 39.7-5.7c10.3 3.7 45 12.7 50 21.7s10.7 17.3 19 22c8.3 4.7 11.7 16.7 14.7 24s6 37.3 3 44-12 34.7-10.7 38.3c1.3 3.7-12.3 20-20.7 23.3-8.3 3.3-28-3-38-4s-28.7 4-37.7 8-32-5.7-36.3-9c-4.4-3.4-10-11.7-10-11.7z" style="fill:none;stroke:#441817;stroke-width:12;stroke-miterlimit:10"/><path id="XMLID_39_" class="st6" d="M93.2 187s-26.6-26.6-26.8-36c-.2-8.3-9.8-28-7.2-35.3 2.7-7.3 7.3-34.7 14-40.3 6.7-5.7 36.3-32.7 47-39.3s29.3-9.3 39.7-5.7c10.3 3.7 45 12.7 50 21.7s10.7 17.3 19 22c8.3 4.7 11.7 16.7 14.7 24s6 37.3 3 44-12 34.7-10.7 38.3c1.3 3.7-12.3 20-20.7 23.3-8.3 3.3-28-3-38-4s-28.7 4-37.7 8-32-5.7-36.3-9c-4.4-3.4-10-11.7-10-11.7z"/><path id="XMLID_38_" d="M243.9 97.9c-3-7.3-6.3-19.3-14.7-24-8.3-4.7-14-13-19-22s-39.7-18-50-21.7c-10.3-3.7-29-1-39.7 5.7-10.7 6.7-40.3 33.7-47 39.3-2.9 2.5-5.5 9.2-7.7 16.6 1.6 4.1 5.2 7.1 6 10.6 4.8 20.8 20.8 29.3 22 44.5 2 24 11 28.5 20 37 8.7 8.2 34.6 2 39.3 19.1 8.5-2.3 18.1-4.1 24.4-3.4 10 1 29.7 7.3 38 4s22-19.7 20.7-23.3c-1.3-3.7 7.7-31.7 10.7-38.3 3-6.7 0-36.7-3-44.1z" style="fill:#a56d66"/><linearGradient id="XMLID_4_" gradientUnits="userSpaceOnUse" x1="133.769" y1="30.185" x2="142.857" y2="94.851"><stop offset=".128" style="stop-color:#3c1e0e;stop-opacity:.12"/><stop offset=".15" style="stop-color:#45281a;stop-opacity:.117"/><stop offset=".227" style="stop-color:#64493c;stop-opacity:.1063"/><stop offset=".31" style="stop-color:#856c60;stop-opacity:9.492287e-002"/><stop offset=".397" style="stop-color:#a49086;stop-opacity:8.299254e-002"/><stop offset=".488" style="stop-color:#c0b2aa;stop-opacity:7.039566e-002"/><stop offset=".587" style="stop-color:#d8cfca;stop-opacity:5.690996e-002"/><stop offset=".694" style="stop-color:#eae5e2;stop-opacity:4.209370e-002"/><stop offset=".819" style="stop-color:#f8f6f5;stop-opacity:2.493922e-002"/><stop offset="1" style="stop-color:#fff;stop-opacity:0"/></linearGradient><path id="XMLID_37_" d="M214.9 60.4c-1.8-2.7-3.5-5.5-5.1-8.4-5-9-39.7-18-50-21.7-10.3-3.7-29-1-39.7 5.7-10.7 6.7-40.3 33.7-47 39.3-2.9 2.5-5.5 9.2-7.7 16.6 1.6 4.1 5.2 7.1 6 10.6.2.8.4 1.5.6 2.3 9.5-16.4 21.2-32 32.4-34.4 21.8-4.5 50.7-22.1 110.5-10z" style="fill:url(#XMLID_4_)"/><g id="Calque_5"><path id="XMLID_15_" class="st10" d="M117.6 158.3s.3-2 2.1-2.3c1.8-.4 3-.3 2.3.6-.7.9-2.1 2.9-3.2 2.9-1.1-.1-1.2-1.2-1.2-1.2z"/><path id="XMLID_19_" class="st10" d="M145.3 95.4s.3-2 2.1-2.3c1.8-.4 3-.3 2.3.6-.7.9-2.1 2.9-3.2 2.9-1.1-.1-1.2-1.2-1.2-1.2z"/><path id="XMLID_21_" class="st10" d="M83.8 95.4s.3-2 2.1-2.3c1.8-.4 3-.3 2.3.6s-2.1 2.9-3.2 2.9c-1.1-.1-1.2-1.2-1.2-1.2z"/><path id="XMLID_22_" class="st10" d="M205.7 193.9s.3-2 2.1-2.3c1.8-.4 3-.3 2.3.6-.7.9-2.1 2.9-3.2 2.9-1.1-.1-1.2-1.2-1.2-1.2z"/></g><linearGradient id="XMLID_5_" gradientUnits="userSpaceOnUse" x1="151.879" y1="117.743" x2="247.743" y2="117.743"><stop offset="0" style="stop-color:#a56d67;stop-opacity:0"/><stop offset=".256" style="stop-color:#a46b64;stop-opacity:.1688"/><stop offset=".433" style="stop-color:#9f665d;stop-opacity:.2861"/><stop offset=".588" style="stop-color:#975d51;stop-opacity:.3878"/><stop offset=".728" style="stop-color:#8c5140;stop-opacity:.4807"/><stop offset=".86" style="stop-color:#7d412b;stop-opacity:.5675"/><stop offset=".983" style="stop-color:#6b3015;stop-opacity:.6487"/><stop offset="1" style="stop-color:#682d11;stop-opacity:.66"/></linearGradient><path id="XMLID_36_" d="M228.8 74c-8.3-4.7-14-13-19-22-4.8-8.6-36.6-17.2-48.5-21.1-13.5 6.6-17.5 15.7 21.3 25.5 76.7 19.3-2 89.3-2 89.3l6.7 26.7s1.4 14.1-9.7 27.4c10.1 1.1 29.3 7.2 37.5 3.9 8.3-3.3 22-19.7 20.7-23.3-1.3-3.7 7.7-31.7 10.7-38.3 3-6.7 0-36.7-3-44-3-7.4-6.3-19.4-14.7-24.1z" style="fill:url(#XMLID_5_)"/><path id="XMLID_35_" class="st6" d="M122.4 85.1s-9.5 16.5-7.5 21.5 17.5 11.5 21 16.5 17.6 8.5 24.1 4.5c6.4-4 19.4-6 25.9-9s6.5-17.5 5-28-5-20.5-8-24.5-11.5 0-19-3.5-7.4-17-7.4-17 17.4 9.5 29.9 7 27 13.5 28 19.5 8.5 12.5 14 20.5 7.5 30 0 39.5-13.5 26.5-13 32-7 16.5-19 15-42.1-5.5-43.3-15.5-13.2-10.5-20.2-15-27-4.5-28-11-14-31-7.5-39 25-13.5 25-13.5z"/><path id="XMLID_34_" d="M214.4 72.1c-.3-1.9-2-4.9-4.6-7.9 5.4 10.9 13.8 30.1 10.2 38.3-5.2 11.8-3.8 13.5-1.9 19.2 1.9 5.8-4.1 14-7.4 15.9s.9 21.7-10.9 27.7c-7.9 4-23.2 7.1-34.1 7.8 10 3.4 23.5 5.2 30.7 6.1 12 1.5 19.5-9.5 19-15s5.5-22.5 13-32 5.5-31.5 0-39.5-13-14.6-14-20.6z" style="fill:#d2a191"/><linearGradient id="XMLID_6_" gradientUnits="userSpaceOnUse" x1="195.084" y1="53.233" x2="142.065" y2="161.939"><stop offset="0" style="stop-color:#fff;stop-opacity:0"/><stop offset=".147" style="stop-color:#fffffc;stop-opacity:3.168605e-002"/><stop offset=".25" style="stop-color:#fefef3;stop-opacity:5.371934e-002"/><stop offset=".339" style="stop-color:#fcfce4;stop-opacity:7.283959e-002"/><stop offset=".42" style="stop-color:#faf9ce;stop-opacity:9.028987e-002"/><stop offset=".496" style="stop-color:#f7f6b1;stop-opacity:.1066"/><stop offset=".568" style="stop-color:#f4f28f;stop-opacity:.1221"/><stop offset=".637" style="stop-color:#f0ed65;stop-opacity:.1369"/><stop offset=".701" style="stop-color:#ebe837;stop-opacity:.1509"/><stop offset=".744" style="stop-color:#e8e414;stop-opacity:.16"/></linearGradient><path id="XMLID_33_" d="M122.4 85.1s-9.5 16.5-7.5 21.5 17.5 11.5 21 16.5 17.6 8.5 24.1 4.5c6.4-4 19.4-6 25.9-9s6.5-17.5 5-28-5-20.5-8-24.5-11.5 0-19-3.5-7.4-17-7.4-17 17.4 9.5 29.9 7 27 13.5 28 19.5 8.5 12.5 14 20.5 7.5 30 0 39.5-13.5 26.5-13 32-7 16.5-19 15-42.1-5.5-43.3-15.5-13.2-10.5-20.2-15-27-4.5-28-11-14-31-7.5-39 25-13.5 25-13.5z" style="fill:url(#XMLID_6_)"/><g id="Calque_2"><path id="XMLID_67_" class="st14" d="M156 202.3c-.4-4.1-2.4-8.1-5.4-10.9-1.9-1.8-4.2-3.1-5.8-5.2-3.3-4.1-3.5-10.4-7.8-13.4-2.8-2-6.6-1.9-9.5-3.6"/><path id="XMLID_66_" class="st14" d="M122.1 84.9c-2.9 5.5-5.1 11.4-6.6 17.5-.3 1.4-.6 2.8-.3 4.2.4 1.4 1.5 2.6 2.5 3.6 2 2 4.2 4.2 7 4.7 2.5.4 5-.6 7.5-.7 3.8-.2 7.4 1.6 11.1 2.8 3.6 1.2 8 1.6 11-.8"/><path id="XMLID_65_" class="st14" d="M165.4 64c0 .4.6.6 1 .6 2 0 4 0 6 .1 2.4 0 5.1.2 6.7 2 .8 1 1.1 2.3 1.4 3.6.1.6.3 1.2.1 1.7-.1.5-.5.9-.7 1.4-.7 1.2-.7 2.7-.2 3.9.2.5.6 1 .9 1.6.9 1.6 1.2 3.5.7 5.3"/><path id="XMLID_64_" class="st14" d="M237.8 167.5c-1.3-3.1-2.5-6.2-3.8-9.3-1.4-3.4-2.8-7.1-1.7-10.5.5-1.7 1.6-3.2 2.3-4.9.7-1.7.9-3.7-.2-5.1"/><path id="XMLID_63_" class="st14" d="M65.6 94.7c1.7 2 3.4 4.1 5 6.3 1.2 1.6 2.4 3.3 3.1 5.2.8 2.1 1.1 4.4 1.9 6.6 1.3 3.4 4 6.2 6.2 9.1 3.3 4.4 5.8 9.3 8.2 14.3"/><path id="XMLID_62_" class="st14" d="M133.6 32.3c-4.6.7-8.7 4-10.4 8.4s-1 9.6 1.9 13.3c.8 1.1 1.8 2 2.3 3.3.6 1.7 0 3.7.5 5.5.6 2.3 2.9 3.8 5.2 4.7 2.3.9 4.7 1.5 6.6 2.9"/><path id="XMLID_61_" class="st14" d="M205.7 61.3c1.3.1 2.2 1.1 3 2.1 3.6 4.8 6.2 8.2 8 13.9.9 2.8 2.3 7.8 2.7 11.1.3 2.5.7 4.7 1.4 7 .3.9.6 1.9.6 2.9.1 3.8-3.8 6.4-5.1 10-1.3 3.7.3 7.7 1.4 11.5s1.3 8.6-1.9 10.9"/><path id="XMLID_60_" class="st14" d="M122.1 48.8c-1 2.3.8 5.2-.4 7.5-.3.5-.6.9-1 1.4-1.6 2-2.4 4.6-2.2 7.2s1.3 5 3.1 6.8"/><path id="XMLID_59_" class="st14" d="M71.9 102.6c.3.8.8 1.4 1.4 2.1 3.2 3.7 6.5 7.5 10.6 10.1.5.3 1 .6 1.6.9.5.2.9.4 1.4.6 1.6.9 2.5 2.7 3.4 4.3"/><path id="XMLID_58_" class="st14" d="M142.8 183.7c-.9-1.9-3-3-5-3.5s-4.1-.7-6.2-1.2c-.4-.1-.8-.3-1.2-.5-.6-.4-1.1-.9-1.5-1.4-1.1-1.2-2.4-2.1-3.9-2.8"/><path id="XMLID_57_" class="st14" d="M171.9 64.7c1.6-.5 3.3-.6 5-.4.6.1 1.2.2 1.8.2.5 0 1-.1 1.5.1.4.1.7.5 1.1.7.4.2.8.2 1.1.4.3.2.6.5.8.8.7.9 1.2 1.9 1.6 3 .2.8.4 1.6.7 2.4.3.8.9 1.5 1.2 2.4.4 1 .4 2.2.5 3.3s.4 2.3 1.1 3.1"/></g><g id="Calque_4"><g id="XMLID_17_" style="opacity:.45"><path id="XMLID_20_" class="st9" d="M176.6 171.8c1.8-.2 3.6-.5 5.4-.9 3.8-.9 11.2-2.2 14.8-3.7 3.5-1.4 3.9-1.3 6.5-3.9l-6.2 2.8c-.7.3-1.3.5-2 .7l-7.4 1.8-18 3.6s-2.7.4-6.3 0c0 0 .5.3 1.3.6 1.9.8 4.2 1.2 6.2 1.8 2.7.9 5 .9 7.6 1.6 3.8 1 6.5 1.6 10 1.9 1.2.1 6.5.8 7.7.9l-27.1-5.8c2.1-.2 5.4-1.1 7.5-1.4z"/></g><path id="XMLID_24_" d="M135.7 122.8s3.7 5.2 12.4 5.4 6.3 1.3 15.3-3.1c3.5-1.7 7.7-2.3 11.8-3.4 6.4-1.9 12.1-3.9 12.1-3.9s-3.6 2.4-9.9 4.5c-5.5 1.8-13.7 3.1-15.1 4.8-1.8 2.1-12.6 1.5-2.1 7.6 1.9 1.1 2.6 4 6.5 7.2 1.5 1.3 5.8 2.6 7.3 3 8.2 2.5 13.4-1.9 13.4-1.9s-5.9 10.9-21.4-.6c-6.1-5.7-9-10.6-13.9-11.3s-17.5-4.2-16.4-8.3z" style="opacity:.47;fill:#fff"/></g><linearGradient id="XMLID_7_" gradientUnits="userSpaceOnUse" x1="155.324" y1="124.011" x2="191.336" y2="137.119"><stop offset=".103" style="stop-color:#fff;stop-opacity:.17"/><stop offset="1" style="stop-color:#fff;stop-opacity:0"/></linearGradient><path id="XMLID_32_" d="M184.6 119.2s-18.3 5.4-20.1 6.3c-1.8.8-10.4 4.8-11.3 4.6s6 4.2 8.2 7.3 9 9.8 17.1 9.5 12-7.3 12-7.3-8.6-11.4-5.9-20.4z" style="fill:url(#XMLID_7_)"/><linearGradient id="XMLID_8_" gradientUnits="userSpaceOnUse" x1="78.987" y1="120.38" x2="87.537" y2="117.602"><stop offset="0" style="stop-color:#531a0a;stop-opacity:.59"/><stop offset="1" style="stop-color:#000;stop-opacity:0"/></linearGradient><path id="XMLID_31_" d="M75.2 108.3s7.1 7.3 9.8 8.2 2.9 2.1 2.9 2.1-1.6 7.3.5 12c0 0-7.9-12.5-9.3-13.5-2.3-1.8-3.9-8.8-3.9-8.8z" style="opacity:.61;fill:url(#XMLID_8_)"/><linearGradient id="XMLID_9_" gradientUnits="userSpaceOnUse" x1="97.805" y1="153.89" x2="106.016" y2="151.222" gradientTransform="rotate(156.693 115.202 167.458)"><stop offset="0" style="stop-color:#531a0a;stop-opacity:.59"/><stop offset="1" style="stop-color:#000;stop-opacity:0"/></linearGradient><path id="XMLID_30_" d="M140.9 180.7s-5.9-2.4-8.7-2.2-6.6-5-6.6-5 5.2.1 1.4-3.4c0 0 7.1 2.4 8.8 2.8 2.8.7 5.1 7.8 5.1 7.8z" style="opacity:.61;fill:url(#XMLID_9_)"/><linearGradient id="XMLID_10_" gradientUnits="userSpaceOnUse" x1="13.588" y1="236.599" x2="21.33" y2="234.083" gradientTransform="scale(-1 1) rotate(43.286 121.163 -96.829)"><stop offset="0" style="stop-color:#531a0a;stop-opacity:.59"/><stop offset="1" style="stop-color:#000;stop-opacity:0"/></linearGradient><path id="XMLID_29_" d="M179.3 65.5s1.4 5.9.1 8.4c-1.3 2.5 2.8 9.5 2.8 9.5s2.6-3.5 5.3-3.2c0 0-2.5-10.3-3.8-12.3-1.4-2.4-4.4-2.4-4.4-2.4z" style="opacity:.61;fill:url(#XMLID_10_)"/><linearGradient id="XMLID_11_" gradientUnits="userSpaceOnUse" x1="119.203" y1="59.692" x2="130.916" y2="65.92"><stop offset="0" style="stop-color:#531a0a;stop-opacity:.74"/><stop offset=".111" style="stop-color:#4f2819;stop-opacity:.6578"/><stop offset=".23" style="stop-color:#482e23;stop-opacity:.5699"/><stop offset=".352" style="stop-color:#402f28;stop-opacity:.4795"/><stop offset=".475" style="stop-color:#382d2a;stop-opacity:.3881"/><stop offset=".601" style="stop-color:#282423;stop-opacity:.2956"/><stop offset=".728" style="stop-color:#161515;stop-opacity:.2013"/><stop offset=".859" style="stop-color:#060606;stop-opacity:.1042"/><stop offset="1" style="stop-color:#000;stop-opacity:0"/></linearGradient><path id="XMLID_28_" d="M122.9 52.7s1.5 2.8-2 6.2c-3.4 3.3-.6 10.5 0 10.7.6.3 5.8-5.5 9.2-2.3 0 0-4.4-2.9-3.7-7.1s-3.5-7.5-3.5-7.5z" style="opacity:.8;fill:url(#XMLID_11_)"/><linearGradient id="XMLID_12_" gradientUnits="userSpaceOnUse" x1="171.774" y1="165.24" x2="203.391" y2="176.747"><stop offset=".103" style="stop-color:#fff;stop-opacity:.66"/><stop offset="1" style="stop-color:#fff;stop-opacity:0"/></linearGradient><path id="XMLID_27_" d="M199.1 166.1s-17.9 4.1-19.8 4.5c-2.2.4-9.5 3-10.4 2.8s7.4 1.8 12 3.3c3.6 1.2 9.6 1.7 12.6 2.1 6.8.9 9.1.2 9.1.2s-6.1-3.9-3.5-12.9z" style="fill:url(#XMLID_12_)"/></g></svg>