<svg version="1.0" id="圖層_1" xmlns="http://www.w3.org/2000/svg" x="0" y="0" width="300" height="260" style="enable-background:new 0 0 300 260" xml:space="preserve"><style>.st6{font-family:&apos;EvilEmpire&apos;}.st7{font-size:33.4592px}.st10,.st11{fill:none;stroke-miterlimit:10}.st10{stroke:#282828;stroke-width:7}.st11{stroke:#9a1b1f}.st12{fill:#f6c24e}</style><g id="cannon"><g id="tureel"><g id="XMLID_341_"><path id="XMLID_81_" d="M171.3 159.3c-1.5.3-5.4.6-8.7.5l-26.1-.1c-3.3 0-7.2-.3-8.7-.6s-6.2-4.6-8.3-7.1l-10.7-12.6c-2.1-2.5-4.3-5.5-4.9-6.7-.5-1.2 1.2-6.7 2.6-9.7l4.2-8.9c1.4-3 3.6-6.4 4.8-7.7 1.2-1.2 8.6-2.3 11.9-2.3h44.8c3.3 0 7.5.4 9.4.9s5.8 6.2 7.2 9.2l4.1 9c1.4 3 2.6 6.5 2.7 7.7.2 1.2-3 6.1-5.2 8.6L179.6 152c-2.1 2.7-6.8 6.9-8.3 7.3z" style="fill:#414042"/></g><g id="XMLID_6_"><radialGradient id="XMLID_2_" cx="149.778" cy="132.013" r="34.71" gradientUnits="userSpaceOnUse"><stop offset="0" style="stop-color:#6e2d8d"/><stop offset="1" style="stop-color:#a56aac"/></radialGradient><path id="XMLID_148_" d="M169.5 156.9c-1.4.3-5.2.5-8.5.5l-22.8-.1c-3.3 0-7.1-.3-8.5-.5-1.4-.3-5.8-4.3-7.9-6.9l-9.1-10.7c-2.1-2.5-4.3-5.5-4.8-6.5-.5-1.1 1.2-6.4 2.6-9.3l3.4-7.2c1.4-3 3.5-6.3 4.6-7.5 1.1-1.1 8.1-2.1 11.4-2.1h39.9c3.3 0 7.4.4 9.1.8 1.7.5 5.4 5.9 6.8 8.9l3.3 7.3c1.4 3 2.6 6.4 2.7 7.5s-2.9 5.8-5.1 8.3l-9.2 10.7c-2.1 2.5-6.5 6.5-7.9 6.8z" style="fill:url(#XMLID_2_)"/></g><g id="Calque_33"><path id="XMLID_33_" d="M163.6 114.7c2.1-1.6 4.8-2.1 7.2-3.1 2.4-.9 4.9-2.5 5.5-5h-13.2c-.1.2-.3.4-.5.6-3.8 3.4-9.5 3.3-14.6 3.5-5.1.3-11.1 2-12.7 6.9-.7 2.3-.7 5.4-3 6.2-.6.2-1.4.2-2 .3-3.6.7-4.4 5.9-2.2 8.8 2.2 2.9 6 4 9.5 4.8 3.5.9 7.3 1.8 9.6 4.6 2.9 3.5 2.4 8.5 2.5 13.1 0 .6 0 1.3.1 1.9h16.4c3.2-4.2 4.6-9.8 3.3-15-.8-3.3-2.5-7.2-.1-9.7.5-.6 1.2-.9 1.7-1.5 1.7-1.7 1.5-5-.5-6.5-2.5-1.9-6.6-.8-8.6-3.2-1.7-1.8-.5-5.1 1.6-6.7z" style="opacity:.5;fill:#57385e"/></g><radialGradient id="XMLID_3_" cx="149.786" cy="142.447" r="29.324" gradientUnits="userSpaceOnUse"><stop offset="0" style="stop-color:#fff;stop-opacity:0"/><stop offset=".636" style="stop-color:#fff;stop-opacity:.6512"/><stop offset="1" style="stop-color:#fff;stop-opacity:.95"/></radialGradient><path id="XMLID_210_" d="m111.9 133.4 14.7 19c1.9 2.5 5.2 4 8.6 4.1l29 .1c3.5 0 6.7-1.5 8.6-4l14.8-18.9c.5-.6.8-1.3 1-1.9.5-1.7-1-3.4-3.1-3.4l-30 11.8c-3.9 1.5-8.1 1.5-12 0l-29.7-11.7c-2.1 0-3.7 1.8-3 3.5.4.3.7.9 1.1 1.4z" style="opacity:.5;fill:url(#XMLID_3_);fill-opacity:.55"/></g></g><g id="Layer_5_copy"><g id="XMLID_17_"><path id="XMLID_19_" class="st10" d="M141.7 118.4h5.8v23.4h-4.8v-18.5l-3.1 3.4v15.1h-4.8v-15.1l-3.1-3.4v18.5H127v-23.4h5.8l4.5 4.4 4.4-4.4z"/><path id="XMLID_21_" class="st10" d="M164.8 118.4h5.8v23.4h-4.8v-18.5l-3.1 3.4v15.1H158v-15.1l-3.1-3.4v18.5h-4.8v-23.4h5.8l4.5 4.4 4.4-4.4z"/></g><g id="XMLID_11_"><path id="XMLID_12_" class="st11" d="M141.7 118.4h5.8v23.4h-4.8v-18.5l-3.1 3.4v15.1h-4.8v-15.1l-3.1-3.4v18.5H127v-23.4h5.8l4.5 4.4 4.4-4.4z"/><path id="XMLID_14_" class="st11" d="M164.8 118.4h5.8v23.4h-4.8v-18.5l-3.1 3.4v15.1H158v-15.1l-3.1-3.4v18.5h-4.8v-23.4h5.8l4.5 4.4 4.4-4.4z"/></g><g id="XMLID_4_"><path id="XMLID_5_" class="st12" d="M141.7 118.4h5.8v23.4h-4.8v-18.5l-3.1 3.4v15.1h-4.8v-15.1l-3.1-3.4v18.5H127v-23.4h5.8l4.5 4.4 4.4-4.4z"/><path id="XMLID_8_" class="st12" d="M164.8 118.4h5.8v23.4h-4.8v-18.5l-3.1 3.4v15.1H158v-15.1l-3.1-3.4v18.5h-4.8v-23.4h5.8l4.5 4.4 4.4-4.4z"/></g></g></svg>