<?xml version="1.0" encoding="utf-8"?>
<!-- Generator: Adobe Illustrator 19.0.0, SVG Export Plug-In . SVG Version: 6.00 Build 0)  -->
<svg version="1.0" id="圖層_1" xmlns="http://www.w3.org/2000/svg" xmlns:xlink="http://www.w3.org/1999/xlink" x="0px" y="0px" width="300px" height="260px"
	 viewBox="0 21 300 260" style="enable-background:new 0 21 300 260;" xml:space="preserve">
<style type="text/css">
	.st0{fill:#F9F31C;}
	.st1{fill:#595A5C;}
	.st2{fill:url(#XMLID_2_);}
	.st3{fill:url(#XMLID_3_);fill-opacity:0.33;}
	.st4{fill:url(#XMLID_4_);fill-opacity:0.32;}
	.st5{fill:#FFFFFF;fill-opacity:0.78;}
	.st6{fill:#F9F31C;stroke:#414042;stroke-width:3;stroke-miterlimit:10;}
	.st7{fill:#F9F31C;stroke:#414042;stroke-width:2;stroke-miterlimit:10;}
	.st8{opacity:0.68;fill:url(#XMLID_5_);fill-opacity:0.49;enable-background:new    ;}
	.st9{opacity:0.68;fill:url(#XMLID_6_);enable-background:new    ;}
	.st10{fill:#FFFFFF;fill-opacity:0.42;}
	.st11{opacity:0.68;fill:url(#XMLID_7_);fill-opacity:0.49;enable-background:new    ;}
	.st12{opacity:0.68;fill:url(#XMLID_8_);enable-background:new    ;}
	.st13{opacity:0.68;fill:url(#XMLID_9_);fill-opacity:0.49;enable-background:new    ;}
	.st14{opacity:0.68;fill:url(#XMLID_10_);enable-background:new    ;}
	.st15{opacity:0.68;fill:url(#XMLID_11_);fill-opacity:0.49;enable-background:new    ;}
	.st16{opacity:0.68;fill:url(#XMLID_12_);enable-background:new    ;}
	.st17{fill:url(#XMLID_13_);}
	.st18{fill:url(#XMLID_14_);}
	.st19{fill:url(#XMLID_15_);fill-opacity:0.21;}
	.st20{opacity:0.64;fill:url(#XMLID_16_);fill-opacity:0.46;enable-background:new    ;}
	.st21{opacity:0.64;fill:url(#XMLID_17_);fill-opacity:0.46;enable-background:new    ;}
	.st22{opacity:0.64;fill:url(#XMLID_18_);fill-opacity:0.46;enable-background:new    ;}
	.st23{opacity:0.64;fill:url(#XMLID_19_);fill-opacity:0.46;enable-background:new    ;}
	.st24{fill:none;stroke:#414042;stroke-width:3;stroke-miterlimit:10;}
	.st25{fill:#FFFFFF;fill-opacity:0.55;}
	.st26{fill:#1C75BC;stroke:#414042;stroke-width:2;stroke-miterlimit:10;}
	.st27{opacity:0.38;enable-background:new    ;}
	.st28{fill:#414042;}
	.st29{fill:#58595B;}
	.st30{opacity:0.29;enable-background:new    ;}
	.st31{opacity:0.17;enable-background:new    ;}
	.st32{opacity:0.42;fill:url(#XMLID_20_);enable-background:new    ;}
	.st33{opacity:0.42;fill:url(#XMLID_21_);fill-opacity:0.2;enable-background:new    ;}
	.st34{opacity:0.42;fill:url(#XMLID_22_);enable-background:new    ;}
	.st35{opacity:0.42;fill:url(#XMLID_23_);enable-background:new    ;}
	.st36{display:none;opacity:0.35;fill:#F1F2F2;enable-background:new    ;}
	.st37{opacity:0.14;fill:#D1D3D4;enable-background:new    ;}
</style>
<g id="圖層_1_2_">
	<g id="圖層_1_3_">
		<rect id="XMLID_314_" x="80.8" y="81.7" class="st0" width="142.6" height="129.2"/>
		<polygon id="XMLID_313_" class="st1" points="223.4,219.9 205.6,219.9 196.6,219.9 187.7,219.9 187.7,219.9 187.7,215.4 
			169.9,215.4 169.9,215.4 169.9,219.9 134.3,219.9 134.3,215.4 116.4,215.4 116.4,219.9 98.6,219.9 80.8,219.9 80.8,215.4 
			80.8,210.9 223.4,210.9 		"/>
		
			<linearGradient id="XMLID_2_" gradientUnits="userSpaceOnUse" x1="152.1" y1="83.88" x2="152.1" y2="92.7917" gradientTransform="matrix(1 0 0 -1 0 303.78)">
			<stop  offset="0" style="stop-color:#010101;stop-opacity:0"/>
			<stop  offset="0.853" style="stop-color:#010101;stop-opacity:0.6995"/>
			<stop  offset="1" style="stop-color:#010101;stop-opacity:0.82"/>
		</linearGradient>
		<polygon id="XMLID_312_" class="st2" points="223.4,219.9 205.6,219.9 196.6,219.9 187.7,219.9 187.7,219.9 187.7,215.4 
			169.9,215.4 169.9,215.4 169.9,219.9 134.3,219.9 134.3,215.4 116.4,215.4 116.4,219.9 98.6,219.9 80.8,219.9 80.8,215.4 
			80.8,210.9 223.4,210.9 		"/>
		
			<linearGradient id="XMLID_3_" gradientUnits="userSpaceOnUse" x1="152.1" y1="195.2794" x2="152.1" y2="222.0145" gradientTransform="matrix(1 0 0 -1 0 303.78)">
			<stop  offset="0" style="stop-color:#C8C8C8"/>
			<stop  offset="7.597232e-002" style="stop-color:#D9D9D8;stop-opacity:0.924"/>
			<stop  offset="0.1839" style="stop-color:#EAEAEA;stop-opacity:0.8161"/>
			<stop  offset="0.3176" style="stop-color:#F6F6F6;stop-opacity:0.6824"/>
			<stop  offset="0.5034" style="stop-color:#FFFFFF;stop-opacity:0.4966"/>
			<stop  offset="1" style="stop-color:#FFFFFF;stop-opacity:0"/>
		</linearGradient>
		<rect id="XMLID_309_" x="80.8" y="81.7" class="st3" width="142.6" height="26.7"/>
		
			<linearGradient id="XMLID_4_" gradientUnits="userSpaceOnUse" x1="152.1" y1="110.6182" x2="152.1" y2="119.5299" gradientTransform="matrix(1 0 0 -1 0 303.78)">
			<stop  offset="0" style="stop-color:#FFFFFF;stop-opacity:0"/>
			<stop  offset="1" style="stop-color:#C8C8C8"/>
		</linearGradient>
		<rect id="XMLID_255_" x="80.8" y="184.2" class="st4" width="142.6" height="8.9"/>
		<rect id="XMLID_252_" x="99" y="108.4" class="st5" width="101.7" height="0.2"/>
		<path id="XMLID_251_" class="st6" d="M232.8,228.8h-27.9c-2.1,0-3.8-1.7-3.8-3.8V76.7c0-2.1,1.7-3.8,3.8-3.8h27.9
			c2.1,0,3.8,1.7,3.8,3.8V225C236.6,227,234.9,228.8,232.8,228.8z"/>
		<path id="XMLID_250_" class="st7" d="M205,229.9c-1.3,0-2.6-0.6-3.5-1.5s-1.3-2.1-1.3-3.3V76.8c0-2.6,2.2-4.8,4.8-4.8h27.9
			c2.6,0,4.8,2.2,4.8,4.8v148.3c0,2.6-2.2,4.8-4.8,4.8H205z"/>
		
			<linearGradient id="XMLID_5_" gradientUnits="userSpaceOnUse" x1="-1010.7016" y1="119.5331" x2="-1010.7016" y2="128.4447" gradientTransform="matrix(-1 0 0 -1 -791.9016 303.78)">
			<stop  offset="0" style="stop-color:#C8C8C8"/>
			<stop  offset="1" style="stop-color:#FFFFFF;stop-opacity:0"/>
		</linearGradient>
		<rect id="XMLID_247_" x="201" y="175.3" class="st8" width="35.6" height="8.9"/>
		
			<linearGradient id="XMLID_6_" gradientUnits="userSpaceOnUse" x1="218.8" y1="83.8832" x2="218.8" y2="119.5299" gradientTransform="matrix(1 0 0 -1 0 303.78)">
			<stop  offset="1.076729e-007" style="stop-color:#FFFFFF;stop-opacity:0.5"/>
			<stop  offset="7.067007e-002" style="stop-color:#FFFFFF;stop-opacity:0.4293"/>
			<stop  offset="0.5" style="stop-color:#FFFFFF;stop-opacity:0"/>
			<stop  offset="0.9293" style="stop-color:#FFFFFF;stop-opacity:0.4293"/>
			<stop  offset="1" style="stop-color:#FFFFFF;stop-opacity:0.5"/>
		</linearGradient>
		<rect id="XMLID_246_" x="201" y="184.2" class="st9" width="35.6" height="35.6"/>
		<rect id="XMLID_243_" x="201" y="219.7" class="st10" width="35.6" height="0.2"/>
		<rect id="XMLID_240_" x="201" y="219.7" class="st10" width="35.6" height="0.2"/>
		<rect id="XMLID_237_" x="201" y="184.1" class="st10" width="35.6" height="0.2"/>
		
			<linearGradient id="XMLID_7_" gradientUnits="userSpaceOnUse" x1="-39.7394" y1="989.0388" x2="-39.7394" y2="997.9504" gradientTransform="matrix(1 0 0 1 258.5394 -871.6265)">
			<stop  offset="0" style="stop-color:#C8C8C8"/>
			<stop  offset="1" style="stop-color:#FFFFFF;stop-opacity:0"/>
		</linearGradient>
		<rect id="XMLID_234_" x="201" y="117.4" class="st11" width="35.6" height="8.9"/>
		
			<linearGradient id="XMLID_8_" gradientUnits="userSpaceOnUse" x1="-752.1622" y1="953.3734" x2="-752.1622" y2="989.0201" gradientTransform="matrix(-1 0 0 1 -533.3622 -871.6265)">
			<stop  offset="1.076729e-007" style="stop-color:#FFFFFF;stop-opacity:0.5"/>
			<stop  offset="7.067007e-002" style="stop-color:#FFFFFF;stop-opacity:0.4293"/>
			<stop  offset="0.5" style="stop-color:#FFFFFF;stop-opacity:0"/>
			<stop  offset="0.9293" style="stop-color:#FFFFFF;stop-opacity:0.4293"/>
			<stop  offset="1" style="stop-color:#FFFFFF;stop-opacity:0.5"/>
		</linearGradient>
		<rect id="XMLID_233_" x="201" y="81.7" class="st12" width="35.6" height="35.6"/>
		<rect id="XMLID_230_" x="201" y="81.7" class="st10" width="35.6" height="0.2"/>
		<rect id="XMLID_227_" x="201" y="81.7" class="st10" width="35.6" height="0.2"/>
		<rect id="XMLID_224_" x="201" y="117.3" class="st10" width="35.6" height="0.2"/>
		<path id="XMLID_223_" class="st7" d="M67,229.8c-1.3,0-2.6-0.6-3.5-1.5s-1.3-2.1-1.3-3.3V76.7c0-2.6,2.2-4.8,4.8-4.8h27.9
			c2.6,0,4.8,2.2,4.8,4.8V225c0,2.6-2.2,4.8-4.8,4.8H67z"/>
		
			<linearGradient id="XMLID_9_" gradientUnits="userSpaceOnUse" x1="-188.3914" y1="119.5331" x2="-188.3914" y2="128.4447" gradientTransform="matrix(1 0 0 -1 269.2914 303.78)">
			<stop  offset="0" style="stop-color:#C8C8C8"/>
			<stop  offset="1" style="stop-color:#FFFFFF;stop-opacity:0"/>
		</linearGradient>
		<rect id="XMLID_220_" x="63.1" y="175.3" class="st13" width="35.6" height="8.9"/>
		
			<linearGradient id="XMLID_10_" gradientUnits="userSpaceOnUse" x1="-603.5103" y1="83.8832" x2="-603.5103" y2="119.5299" gradientTransform="matrix(-1 0 0 -1 -522.6102 303.78)">
			<stop  offset="1.076729e-007" style="stop-color:#FFFFFF;stop-opacity:0.5"/>
			<stop  offset="7.067007e-002" style="stop-color:#FFFFFF;stop-opacity:0.4293"/>
			<stop  offset="0.5" style="stop-color:#FFFFFF;stop-opacity:0"/>
			<stop  offset="0.9293" style="stop-color:#FFFFFF;stop-opacity:0.4293"/>
			<stop  offset="1" style="stop-color:#FFFFFF;stop-opacity:0.5"/>
		</linearGradient>
		<rect id="XMLID_219_" x="63.1" y="184.2" class="st14" width="35.6" height="35.6"/>
		<rect id="XMLID_216_" x="63.1" y="219.7" class="st10" width="35.6" height="0.2"/>
		<rect id="XMLID_213_" x="63.1" y="219.7" class="st10" width="35.6" height="0.2"/>
		<rect id="XMLID_209_" x="63.1" y="184.1" class="st10" width="35.6" height="0.2"/>
		
			<linearGradient id="XMLID_11_" gradientUnits="userSpaceOnUse" x1="-862.0496" y1="989.0388" x2="-862.0496" y2="997.9504" gradientTransform="matrix(-1 0 0 1 -781.1496 -871.6265)">
			<stop  offset="0" style="stop-color:#C8C8C8"/>
			<stop  offset="1" style="stop-color:#FFFFFF;stop-opacity:0"/>
		</linearGradient>
		<rect id="XMLID_205_" x="63.1" y="117.4" class="st15" width="35.6" height="8.9"/>
		
			<linearGradient id="XMLID_12_" gradientUnits="userSpaceOnUse" x1="70.148" y1="953.3734" x2="70.148" y2="989.0201" gradientTransform="matrix(1 0 0 1 10.752 -871.6265)">
			<stop  offset="1.076729e-007" style="stop-color:#FFFFFF;stop-opacity:0.5"/>
			<stop  offset="7.067007e-002" style="stop-color:#FFFFFF;stop-opacity:0.4293"/>
			<stop  offset="0.5" style="stop-color:#FFFFFF;stop-opacity:0"/>
			<stop  offset="0.9293" style="stop-color:#FFFFFF;stop-opacity:0.4293"/>
			<stop  offset="1" style="stop-color:#FFFFFF;stop-opacity:0.5"/>
		</linearGradient>
		<rect id="XMLID_204_" x="63.1" y="81.7" class="st16" width="35.6" height="35.6"/>
		<rect id="XMLID_201_" x="63.1" y="81.7" class="st10" width="35.6" height="0.2"/>
		<rect id="XMLID_198_" x="63.1" y="81.7" class="st10" width="35.6" height="0.2"/>
		<rect id="XMLID_154_" x="63.1" y="117.3" class="st10" width="35.6" height="0.2"/>
		
			<linearGradient id="XMLID_13_" gradientUnits="userSpaceOnUse" x1="247.1434" y1="153.08" x2="236.6016" y2="153.08" gradientTransform="matrix(1 0 0 -1 0 303.78)">
			<stop  offset="2.153458e-007" style="stop-color:#030303;stop-opacity:0"/>
			<stop  offset="1" style="stop-color:#010101"/>
		</linearGradient>
		<rect id="XMLID_153_" x="236.6" y="81.7" class="st17" width="10.5" height="138"/>
		
			<linearGradient id="XMLID_14_" gradientUnits="userSpaceOnUse" x1="52.5886" y1="152.88" x2="63.1304" y2="152.88" gradientTransform="matrix(1 0 0 -1 0 303.78)">
			<stop  offset="2.153458e-007" style="stop-color:#030303;stop-opacity:0"/>
			<stop  offset="1" style="stop-color:#010101"/>
		</linearGradient>
		<rect id="XMLID_96_" x="52.6" y="81.9" class="st18" width="10.5" height="138"/>
		
			<linearGradient id="XMLID_15_" gradientUnits="userSpaceOnUse" x1="98.6" y1="157.48" x2="201.1" y2="157.48" gradientTransform="matrix(1 0 0 -1 0 303.78)">
			<stop  offset="0" style="stop-color:#010101"/>
			<stop  offset="7.317057e-002" style="stop-color:#010101;stop-opacity:0.8537"/>
			<stop  offset="0.5" style="stop-color:#010101;stop-opacity:0"/>
			<stop  offset="0.9268" style="stop-color:#010101;stop-opacity:0.8537"/>
			<stop  offset="1" style="stop-color:#010101"/>
		</linearGradient>
		<rect id="XMLID_92_" x="98.6" y="81.7" class="st19" width="102.5" height="129.2"/>
		
			<linearGradient id="XMLID_16_" gradientUnits="userSpaceOnUse" x1="80.9" y1="230.9261" x2="80.9" y2="222.0579" gradientTransform="matrix(1 0 0 -1 0 303.78)">
			<stop  offset="3.281460e-007" style="stop-color:#010101;stop-opacity:0.95"/>
			<stop  offset="0.1272" style="stop-color:#010101;stop-opacity:0.8292"/>
			<stop  offset="1" style="stop-color:#010101;stop-opacity:0"/>
		</linearGradient>
		<path id="XMLID_80_" class="st20" d="M63.1,76.7v5h35.6v-5c0-2.1-1.7-3.8-3.8-3.8H67C64.9,72.8,63.1,74.5,63.1,76.7z"/>
		
			<linearGradient id="XMLID_17_" gradientUnits="userSpaceOnUse" x1="218.8" y1="230.9261" x2="218.8" y2="222.0579" gradientTransform="matrix(1 0 0 -1 0 303.78)">
			<stop  offset="3.281460e-007" style="stop-color:#010101;stop-opacity:0.95"/>
			<stop  offset="0.1272" style="stop-color:#010101;stop-opacity:0.8292"/>
			<stop  offset="1" style="stop-color:#010101;stop-opacity:0"/>
		</linearGradient>
		<path id="XMLID_75_" class="st21" d="M201,76.7v5h35.6v-5c0-2.1-1.7-3.8-3.8-3.8h-27.9C202.7,72.8,201,74.5,201,76.7z"/>
		
			<linearGradient id="XMLID_18_" gradientUnits="userSpaceOnUse" x1="218.9" y1="683.5119" x2="218.9" y2="674.6437" gradientTransform="matrix(1 0 0 1 0 -454.7034)">
			<stop  offset="3.281460e-007" style="stop-color:#010101;stop-opacity:0.95"/>
			<stop  offset="0.1272" style="stop-color:#010101;stop-opacity:0.8292"/>
			<stop  offset="1" style="stop-color:#010101;stop-opacity:0"/>
		</linearGradient>
		<path id="XMLID_68_" class="st22" d="M201.1,224.9v-5h35.6v5c0,2.1-1.7,3.8-3.8,3.8H205C202.8,228.8,201.1,227,201.1,224.9z"/>
		
			<linearGradient id="XMLID_19_" gradientUnits="userSpaceOnUse" x1="80.9" y1="683.5119" x2="80.9" y2="674.6437" gradientTransform="matrix(1 0 0 1 0 -454.7034)">
			<stop  offset="3.281460e-007" style="stop-color:#010101;stop-opacity:0.95"/>
			<stop  offset="0.1272" style="stop-color:#010101;stop-opacity:0.8292"/>
			<stop  offset="1" style="stop-color:#010101;stop-opacity:0"/>
		</linearGradient>
		<path id="XMLID_62_" class="st23" d="M63.1,224.9v-5h35.6v5c0,2.1-1.7,3.8-3.8,3.8H67C64.9,228.8,63.1,227,63.1,224.9z"/>
		<line id="XMLID_63_" class="st24" x1="100.6" y1="81.7" x2="199.7" y2="81.7"/>
		<line id="XMLID_64_" class="st24" x1="100.6" y1="210" x2="199.7" y2="210"/>
		<g id="XMLID_70_">
			<path id="XMLID_65_" class="st25" d="M201.1,76.7V225c-0.1,1.7,1.2,3.2,2.8,3.6h1.7l3.1-9V184l-2.2-8.7l0.1-30.9l-0.1-18.5
				l2.2-8.7V81.7l-3-8.8h-0.8C202.8,72.9,201.1,74.6,201.1,76.7z"/>
			<path id="XMLID_67_" class="st25" d="M236.6,225v-1.8l-0.1-78.6l0.1-67v-1c0-2.1-1.7-3.8-3.8-3.8H232l-3.1,9v35.6l2.2,8.7
				l-0.1,18.5l0.1,30.9l-2.2,8.7v35.6l3.1,9h0.8C234.9,228.8,236.6,227.1,236.6,225z"/>
		</g>
		<g id="XMLID_74_">
			<path id="XMLID_71_" class="st25" d="M63.3,76.7V225c-0.1,1.7,1.2,3.2,2.8,3.6h1.7l3.1-9V184l-2.2-8.7l0.1-30.9L68.7,126l2.2-8.7
				V81.8l-3-8.8H67C65,72.9,63.3,74.6,63.3,76.7z"/>
			<path id="XMLID_88_" class="st25" d="M98.8,225v-1.8l-0.1-78.6l0.1-67v-1c0-2.1-1.7-3.8-3.8-3.8h-0.8l-3.1,9v35.6l2.2,8.7
				l-0.1,18.5l0.1,30.9l-2.2,8.7v35.6l3.1,9H95C97,228.8,98.8,227.1,98.8,225z"/>
		</g>
		<path id="XMLID_327_" class="st26" d="M177.2,88.3h-56.7c-3.9,0-7.1-0.6-7.1,5.9l0,0c0,6.5,3.2,11.8,7.1,11.8h56.7
			c3.9,0,7.1-5.3,7.1-11.8l0,0C184.3,87.7,181.1,88.3,177.2,88.3z"/>
		<path id="XMLID_331_" class="st27" d="M177.2,88.3h-56.7c-3.9,0-7.1-0.6-7.1,5.9c0,5.4,2.2,9.9,5.2,11.3c-1-2.1-1.6-4.8-1.6-7.8
			l0,0c0-6.5,2.9-5.9,6.4-5.9h51c3.5,0,6.4-0.6,6.4,5.9c0,3-0.6,5.7-1.6,7.8c3-1.4,5.2-6,5.2-11.3C184.3,87.7,181.1,88.3,177.2,88.3
			z"/>
		<rect id="XMLID_316_" x="100.6" y="113.1" class="st28" width="98.6" height="96.9"/>
		<rect id="XMLID_318_" x="100.6" y="121.2" class="st29" width="3.8" height="90.7"/>
		<rect id="XMLID_323_" x="195.7" y="121.2" class="st29" width="3.5" height="90.7"/>
		<path id="XMLID_320_" class="st30" d="M175.4,199L175.4,199c-4.9,0-8.9-4-8.9-8.9v-54c0-4.9,4-8.9,8.9-8.9l0,0
			c4.9,0,8.9,4,8.9,8.9v54C184.3,195,180.3,199,175.4,199z"/>
		<path id="XMLID_325_" class="st30" d="M125.8,199L125.8,199c-4.9,0-8.9-4-8.9-8.9v-54c0-4.9,4-8.9,8.9-8.9l0,0
			c4.9,0,8.9,4,8.9,8.9v54C134.6,195,130.7,199,125.8,199z"/>
		<path id="XMLID_338_" class="st31" d="M120.5,192.9v-54c0-4.9,4-8.9,8.9-8.9l0,0c1.2,0,2.4,0.2,3.4,0.7c-1.6-2.1-4.1-3.4-7-3.4
			c-4.9,0-8.9,4-8.9,8.9v54c0,3.7,2.3,6.8,5.4,8.2C121.2,196.8,120.5,194.9,120.5,192.9z"/>
		<path id="XMLID_330_" class="st31" d="M170.1,192.9v-54c0-4.9,4-8.9,8.9-8.9l0,0c1.2,0,2.4,0.2,3.4,0.7c-1.6-2.1-4.1-3.4-7-3.4
			c-4.9,0-8.9,4-8.9,8.9v54c0,3.7,2.3,6.8,5.4,8.2C170.8,196.8,170.1,194.9,170.1,192.9z"/>
		
			<linearGradient id="XMLID_20_" gradientUnits="userSpaceOnUse" x1="150.05" y1="176.7" x2="150.05" y2="183.7866" gradientTransform="matrix(1 0 0 -1 0 304)">
			<stop  offset="0" style="stop-color:#000000;stop-opacity:0"/>
			<stop  offset="0.8587" style="stop-color:#000000;stop-opacity:0.8587"/>
			<stop  offset="1" style="stop-color:#000000"/>
		</linearGradient>
		<rect id="XMLID_324_" x="104.4" y="120.2" class="st32" width="91.3" height="7.1"/>
		
			<linearGradient id="XMLID_21_" gradientUnits="userSpaceOnUse" x1="150.1" y1="116.7461" x2="150.1" y2="142.8747" gradientTransform="matrix(1 0 0 1 0 68.5039)">
			<stop  offset="0" style="stop-color:#FFFFFF;stop-opacity:0"/>
			<stop  offset="1" style="stop-color:#FFFFFF"/>
		</linearGradient>
		<rect id="XMLID_334_" x="104.5" y="185.3" class="st33" width="91.2" height="26.1"/>
		
			<linearGradient id="XMLID_22_" gradientUnits="userSpaceOnUse" x1="109.1738" y1="219.0341" x2="109.1738" y2="226.1207" gradientTransform="matrix(4.489700e-011 -1 -1 -4.489700e-011 330.612 275.1238)">
			<stop  offset="0" style="stop-color:#000000;stop-opacity:0"/>
			<stop  offset="0.8587" style="stop-color:#000000;stop-opacity:0.8587"/>
			<stop  offset="1" style="stop-color:#000000"/>
		</linearGradient>
		<rect id="XMLID_315_" x="104.5" y="120.3" class="st34" width="7.1" height="91.3"/>
		
			<linearGradient id="XMLID_23_" gradientUnits="userSpaceOnUse" x1="109.2738" y1="170.0966" x2="109.2738" y2="177.1832" gradientTransform="matrix(0 -1 1 0 18.4571 275.1238)">
			<stop  offset="0" style="stop-color:#000000;stop-opacity:0"/>
			<stop  offset="0.8587" style="stop-color:#000000;stop-opacity:0.8587"/>
			<stop  offset="1" style="stop-color:#000000"/>
		</linearGradient>
		<rect id="XMLID_319_" x="188.6" y="120.2" class="st35" width="7.1" height="91.3"/>
		<rect id="XMLID_326_" x="98.4" y="117.4" class="st36" width="102.6" height="1.8"/>
		<polygon id="XMLID_333_" class="st37" points="149.6,105 162.7,105 176.4,89.4 159.4,89.4 		"/>
	</g>
</g>
</svg>
