<svg version="1.0" id="Calque_16" xmlns="http://www.w3.org/2000/svg" x="0" y="0" width="300" height="260" style="enable-background:new 0 0 300 260" xml:space="preserve"><style>.st2{opacity:.5;fill:#e5e5e5}.st3{fill:#675b47;stroke:#353535;stroke-width:3;stroke-miterlimit:10}.st6{opacity:.5;fill:#fff}</style><g id="Calque_15_-_copie"><radialGradient id="XMLID_3_" cx="85.993" cy="24.5" r="4.966" gradientUnits="userSpaceOnUse"><stop offset="0" style="stop-color:#959698"/><stop offset=".321" style="stop-color:#959697"/><stop offset=".542" style="stop-color:#939494"/><stop offset=".732" style="stop-color:#8f9090"/><stop offset=".903" style="stop-color:#89898a"/><stop offset="1" style="stop-color:#848484"/></radialGradient><circle id="XMLID_20_" cx="86" cy="24.5" r="5" style="fill:url(#XMLID_3_)"/><circle id="XMLID_21_" cx="86" cy="24.5" r="3" style="fill:#ccc"/><path id="XMLID_51_" class="st2" d="M86 21.9c-.9 0-1.7.5-2.2 1.2.4-.2.8-.4 1.3-.4 1.4 0 2.6 1.2 2.6 2.6 0 .5-.2 1.1-.4 1.5.8-.5 1.3-1.3 1.3-2.3 0-1.5-1.1-2.6-2.6-2.6z"/></g><g id="Calque_15"><path id="XMLID_1_" class="st3" d="m18.3 110.5 21.3 10.2-5.6 10.6 4.5 9.4-20.2 10.8-11.6-21.7z"/><radialGradient id="XMLID_4_" cx="23.25" cy="130.423" r="16.053" gradientUnits="userSpaceOnUse"><stop offset="0" style="stop-color:#c5b798"/><stop offset=".343" style="stop-color:#c2b495"/><stop offset=".578" style="stop-color:#bbac8c"/><stop offset=".78" style="stop-color:#b0a07f"/><stop offset=".964" style="stop-color:#a2916e"/><stop offset="1" style="stop-color:#9f8e6a"/></radialGradient><path id="XMLID_7_" style="fill:url(#XMLID_4_)" d="m18.9 112.8-.2 3.4-6.2 13-3.5.6 3 .9 6.5 13.4.4 4 1.5-3.5 11.2-5.5 3.4.5-3.1-2.2-2.4-5.9 2.6-.2-2.5-1.1 4.5-7 3.4-1.7-4.7.4-12.5-5.6z"/><linearGradient id="XMLID_5_" gradientUnits="userSpaceOnUse" x1="15.63" y1="114.723" x2="23.72" y2="128.735"><stop offset="0" style="stop-color:#fff"/><stop offset="1" style="stop-color:#fff;stop-opacity:0"/></linearGradient><path id="XMLID_9_" style="opacity:.5;fill:url(#XMLID_5_)" d="m18.9 112.8.1 3.5-6.5 13.8 9.4-.3 10.4-7-12.8-6.6z"/><path id="XMLID_38_" class="st6" d="m13.9 127.2-1.7 2.7H9.6l2.5.5 1.2 2.4-.8-2.7z"/><path id="XMLID_39_" class="st6" d="m17.7 140.9 1.2 3.2.1 3 .8-2.5 2.6-1.3-2.8.7z"/><path id="XMLID_40_" class="st6" d="m30.4 134.4 1 3.9-2.1 1.8 2.3-1.3 2.3.5L32 138z"/><path id="XMLID_18_" class="st6" d="m29.5 132.9-.3-1.6 2.2-.2-2-.8.9-2.1-1.8 2.6z"/><path id="XMLID_37_" class="st6" d="m36.4 121.8-3.4.6-3.2-.8 2.5 1.2-.5 2.8 1.3-2.8z"/><radialGradient id="XMLID_6_" cx="22.25" cy="130" r="4.966" gradientUnits="userSpaceOnUse"><stop offset="0" style="stop-color:#616263"/><stop offset=".321" style="stop-color:#606162"/><stop offset=".542" style="stop-color:#5c5d5e"/><stop offset=".732" style="stop-color:#565758"/><stop offset=".903" style="stop-color:#4e4f50"/><stop offset="1" style="stop-color:#48494a"/></radialGradient><circle id="XMLID_52_" cx="22.3" cy="130" r="5" style="fill:url(#XMLID_6_)"/><radialGradient id="XMLID_8_" cx="22.25" cy="130" r="2.959" gradientUnits="userSpaceOnUse"><stop offset="0" style="stop-color:#aeafaf"/><stop offset=".321" style="stop-color:#acacad"/><stop offset=".542" style="stop-color:#a5a5a6"/><stop offset=".732" style="stop-color:#999a9a"/><stop offset=".903" style="stop-color:#8a8a8a"/><stop offset="1" style="stop-color:#7e7f7f"/></radialGradient><circle id="XMLID_49_" cx="22.3" cy="130" r="3" style="fill:url(#XMLID_8_)"/><path id="XMLID_31_" class="st2" d="M22.3 127.4c-.9 0-1.7.5-2.2 1.2.4-.2.8-.4 1.3-.4 1.4 0 2.6 1.2 2.6 2.6 0 .5-.2 1.1-.4 1.5.8-.5 1.3-1.3 1.3-2.3 0-1.5-1.2-2.6-2.6-2.6z"/></g><g id="Calque_15_-_copie_3"><path id="XMLID_73_" class="st3" d="m281.1 110.5-21.2 10.2 5.5 10.6-4.5 9.4 20.2 10.8 11.6-21.7z"/><radialGradient id="XMLID_11_" cx="33.548" cy="130.423" r="16.053" gradientTransform="matrix(-1 0 0 1 309.703 0)" gradientUnits="userSpaceOnUse"><stop offset="0" style="stop-color:#c5b798"/><stop offset=".343" style="stop-color:#c2b495"/><stop offset=".578" style="stop-color:#bbac8c"/><stop offset=".78" style="stop-color:#b0a07f"/><stop offset=".964" style="stop-color:#a2916e"/><stop offset="1" style="stop-color:#9f8e6a"/></radialGradient><path id="XMLID_72_" style="fill:url(#XMLID_11_)" d="m280.5 112.8.2 3.4 6.2 13 3.5.6-3 .9-6.5 13.4-.4 4-1.5-3.5-11.2-5.5-3.4.5 3.1-2.2 2.4-5.9-2.5-.2 2.4-1.1-4.5-7-3.4-1.7 4.7.4 12.5-5.6z"/><linearGradient id="XMLID_12_" gradientUnits="userSpaceOnUse" x1="25.928" y1="114.723" x2="34.018" y2="128.735" gradientTransform="matrix(-1 0 0 1 309.703 0)"><stop offset="0" style="stop-color:#fff"/><stop offset="1" style="stop-color:#fff;stop-opacity:0"/></linearGradient><path id="XMLID_71_" style="opacity:.5;fill:url(#XMLID_12_)" d="m280.5 112.8-.1 3.5 6.5 13.8-9.4-.3-10.4-7 12.8-6.6z"/><path id="XMLID_70_" class="st6" d="m285.5 127.2 1.7 2.7h2.6l-2.5.5-1.2 2.4.8-2.7z"/><path id="XMLID_69_" class="st6" d="m281.7 140.9-1.2 3.2-.1 3-.8-2.5-2.6-1.3 2.8.7z"/><path id="XMLID_54_" class="st6" d="m269 134.4-1 3.9 2.1 1.8-2.3-1.3-2.3.5 1.9-1.3z"/><path id="XMLID_53_" class="st6" d="m269.9 132.9.3-1.6-2.2-.2 2-.8-.9-2.1 1.8 2.6z"/><path id="XMLID_50_" class="st6" d="m263 121.8 3.4.6 3.2-.8-2.5 1.2.5 2.8-1.3-2.8z"/><radialGradient id="XMLID_13_" cx="32.548" cy="130" r="4.966" gradientTransform="matrix(-1 0 0 1 309.703 0)" gradientUnits="userSpaceOnUse"><stop offset="0" style="stop-color:#616263"/><stop offset=".321" style="stop-color:#606162"/><stop offset=".542" style="stop-color:#5c5d5e"/><stop offset=".732" style="stop-color:#565758"/><stop offset=".903" style="stop-color:#4e4f50"/><stop offset="1" style="stop-color:#48494a"/></radialGradient><circle id="XMLID_44_" cx="277.2" cy="130" r="5" style="fill:url(#XMLID_13_)"/><radialGradient id="XMLID_14_" cx="32.548" cy="130" r="2.959" gradientTransform="matrix(-1 0 0 1 309.703 0)" gradientUnits="userSpaceOnUse"><stop offset="0" style="stop-color:#aeafaf"/><stop offset=".321" style="stop-color:#acacad"/><stop offset=".542" style="stop-color:#a5a5a6"/><stop offset=".732" style="stop-color:#999a9a"/><stop offset=".903" style="stop-color:#8a8a8a"/><stop offset="1" style="stop-color:#7e7f7f"/></radialGradient><circle id="XMLID_42_" cx="277.2" cy="130" r="3" style="fill:url(#XMLID_14_)"/><path id="XMLID_10_" class="st2" d="M277.1 127.4c.9 0 1.7.5 2.2 1.2-.4-.2-.8-.4-1.3-.4-1.4 0-2.6 1.2-2.6 2.6 0 .5.2 1.1.4 1.5-.8-.5-1.3-1.3-1.3-2.3 0-1.5 1.2-2.6 2.6-2.6z"/></g><g id="Calque_17"><g id="Calque_15_-_copie_4"><path id="XMLID_81_" class="st3" d="M198.2 9.5 196.4 33l12.1.5 5.8 8.5 19.5-12.2L220.7 9z"/><radialGradient id="XMLID_15_" cx="96.691" cy="25.311" r="16.053" gradientTransform="scale(-1 1) rotate(60.243 -56.761 -242.414)" gradientUnits="userSpaceOnUse"><stop offset="0" style="stop-color:#c5b798"/><stop offset=".343" style="stop-color:#c2b495"/><stop offset=".578" style="stop-color:#bbac8c"/><stop offset=".78" style="stop-color:#b0a07f"/><stop offset=".964" style="stop-color:#a2916e"/><stop offset="1" style="stop-color:#9f8e6a"/></radialGradient><path id="XMLID_80_" style="fill:url(#XMLID_15_)" d="m199.8 11.2 3.2 1.4 14.3 1.1 2.2-2.7-.7 3 8.5 12.4 3.2 2.3-3.8-.4-10.3 6.9-1.2 3.2-.4-3.8-4-5-1.4 2.2.3-2.7-8.3.4-3.2 2.1 2.6-3.9 1.5-13.6z"/><linearGradient id="XMLID_16_" gradientUnits="userSpaceOnUse" x1="89.071" y1="9.612" x2="97.161" y2="23.624" gradientTransform="scale(-1 1) rotate(60.243 -56.761 -242.414)"><stop offset="0" style="stop-color:#fff"/><stop offset="1" style="stop-color:#fff;stop-opacity:0"/></linearGradient><path id="XMLID_79_" style="opacity:.5;fill:url(#XMLID_16_)" d="m199.9 11.2 2.9 1.8 15.2 1.2-4.8 8-11.2 5.5.5-14.3z"/><path id="XMLID_78_" class="st6" d="m214.9 14 3.1-.2 1.3-2.2-.8 2.4 1.5 2.2-2-2z"/><path id="XMLID_77_" class="st6" d="m224.9 24 2.1 2.7 2.6 1.6-2.6-.6-2.4 1.6 2-2z"/><path id="XMLID_76_" class="st6" d="m212.9 31.8 2.9 2.8 2.6-.9-2.3 1.3-.7 2.3-.1-2.3z"/><path id="XMLID_75_" class="st6" d="m212 30.4-1.1-1.1-1.4 1.8.3-2.1-2.2-.3 3.1-.2z"/><path id="XMLID_74_" class="st6" d="m199 30.8 2.2-2.7.9-3.1-.1 2.7 2.6 1-3.1-.2z"/><radialGradient id="XMLID_17_" cx="95.691" cy="24.889" r="4.966" gradientTransform="scale(-1 1) rotate(60.243 -56.761 -242.414)" gradientUnits="userSpaceOnUse"><stop offset="0" style="stop-color:#616263"/><stop offset=".321" style="stop-color:#606162"/><stop offset=".542" style="stop-color:#5c5d5e"/><stop offset=".732" style="stop-color:#565758"/><stop offset=".903" style="stop-color:#4e4f50"/><stop offset="1" style="stop-color:#48494a"/></radialGradient><circle id="XMLID_65_" cx="213.1" cy="22.6" r="5" style="fill:url(#XMLID_17_)"/><radialGradient id="XMLID_19_" cx="95.691" cy="24.889" r="2.959" gradientTransform="scale(-1 1) rotate(60.243 -56.761 -242.414)" gradientUnits="userSpaceOnUse"><stop offset="0" style="stop-color:#aeafaf"/><stop offset=".321" style="stop-color:#acacad"/><stop offset=".542" style="stop-color:#a5a5a6"/><stop offset=".732" style="stop-color:#999a9a"/><stop offset=".903" style="stop-color:#8a8a8a"/><stop offset="1" style="stop-color:#7e7f7f"/></radialGradient><circle id="XMLID_64_" cx="213.1" cy="22.6" r="3" style="fill:url(#XMLID_19_)"/><path id="XMLID_63_" class="st2" d="M210.8 21.3c.4-.8 1.2-1.3 2.1-1.3-.4.2-.7.5-.9.9-.7 1.3-.3 2.9 1 3.6.5.3 1 .4 1.5.3-.8.5-1.8.5-2.6 0-1.4-.6-1.8-2.2-1.1-3.5z"/></g><g id="Calque_15_-_copie_5"><path id="XMLID_89_" class="st3" d="m102 9.5 1.8 23.5-12 .5-5.9 8.5-19.5-12.2L79.5 9z"/><radialGradient id="XMLID_22_" cx="32.167" cy="138.168" r="16.053" gradientTransform="rotate(60.243 158.36 128.368)" gradientUnits="userSpaceOnUse"><stop offset="0" style="stop-color:#c5b798"/><stop offset=".343" style="stop-color:#c2b495"/><stop offset=".578" style="stop-color:#bbac8c"/><stop offset=".78" style="stop-color:#b0a07f"/><stop offset=".964" style="stop-color:#a2916e"/><stop offset="1" style="stop-color:#9f8e6a"/></radialGradient><path id="XMLID_88_" style="fill:url(#XMLID_22_)" d="m100.4 11.2-3.1 1.4-14.4 1.1-2.2-2.7.7 3L73 26.4l-3.3 2.3 3.8-.4 10.3 6.9 1.2 3.2.4-3.8 4-5 1.4 2.2-.2-2.7 8.3.4 3.1 2.1-2.6-3.9L98 14.1z"/><linearGradient id="XMLID_23_" gradientUnits="userSpaceOnUse" x1="24.547" y1="122.469" x2="32.637" y2="136.481" gradientTransform="rotate(60.243 158.36 128.368)"><stop offset="0" style="stop-color:#fff"/><stop offset="1" style="stop-color:#fff;stop-opacity:0"/></linearGradient><path id="XMLID_87_" style="opacity:.5;fill:url(#XMLID_23_)" d="m100.4 11.2-3 1.8-15.2 1.2 4.9 8 11.2 5.5-.6-14.3z"/><path id="XMLID_86_" class="st6" d="m85.3 14-3.1-.2-1.3-2.2.8 2.4-1.5 2.2 2-2z"/><path id="XMLID_85_" class="st6" d="m75.3 24-2.1 2.7-2.6 1.6 2.6-.6 2.4 1.6-2-2z"/><path id="XMLID_84_" class="st6" d="m87.3 31.8-2.9 2.8-2.6-.9 2.3 1.3.7 2.3.1-2.3z"/><path id="XMLID_83_" class="st6" d="m88.2 30.4 1.2-1.1 1.3 1.8-.3-2.1 2.2-.3-3.1-.2z"/><path id="XMLID_82_" class="st6" d="M101.2 30.8 99 28.1l-.8-3.1.1 2.7-2.7 1 3.1-.2z"/><radialGradient id="XMLID_24_" cx="31.167" cy="137.745" r="4.966" gradientTransform="rotate(60.243 158.36 128.368)" gradientUnits="userSpaceOnUse"><stop offset="0" style="stop-color:#616263"/><stop offset=".321" style="stop-color:#606162"/><stop offset=".542" style="stop-color:#5c5d5e"/><stop offset=".732" style="stop-color:#565758"/><stop offset=".903" style="stop-color:#4e4f50"/><stop offset="1" style="stop-color:#48494a"/></radialGradient><circle id="XMLID_68_" cx="87.1" cy="22.6" r="5" style="fill:url(#XMLID_24_)"/><radialGradient id="XMLID_25_" cx="31.167" cy="137.745" r="2.959" gradientTransform="rotate(60.243 158.36 128.368)" gradientUnits="userSpaceOnUse"><stop offset="0" style="stop-color:#aeafaf"/><stop offset=".321" style="stop-color:#acacad"/><stop offset=".542" style="stop-color:#a5a5a6"/><stop offset=".732" style="stop-color:#999a9a"/><stop offset=".903" style="stop-color:#8a8a8a"/><stop offset="1" style="stop-color:#7e7f7f"/></radialGradient><circle id="XMLID_67_" cx="87.1" cy="22.6" r="3" style="fill:url(#XMLID_25_)"/><path id="XMLID_66_" class="st2" d="M89.4 21.3c-.4-.8-1.2-1.3-2.1-1.3.4.2.7.5.9.9.7 1.3.3 2.9-1 3.6-.5.3-1 .4-1.5.3.8.5 1.8.5 2.6 0 1.4-.6 1.8-2.2 1.1-3.5z"/></g></g><g id="Calque_17_-_copie"><g id="Calque_15_-_copie_6_1_"><path id="XMLID_111_" class="st3" d="m198.2 250.5-1.8-23.5 12.1-.5 5.8-8.5 19.5 12.2-13.1 20.8z"/><radialGradient id="XMLID_26_" cx="-84.749" cy="-78.423" r="16.053" gradientTransform="scale(-1) rotate(60.243 -12.819 -267.908)" gradientUnits="userSpaceOnUse"><stop offset="0" style="stop-color:#c5b798"/><stop offset=".343" style="stop-color:#c2b495"/><stop offset=".578" style="stop-color:#bbac8c"/><stop offset=".78" style="stop-color:#b0a07f"/><stop offset=".964" style="stop-color:#a2916e"/><stop offset="1" style="stop-color:#9f8e6a"/></radialGradient><path id="XMLID_110_" style="fill:url(#XMLID_26_)" d="m199.8 248.8 3.2-1.5 14.3-1 2.2 2.7-.7-3.1 8.5-12.3 3.2-2.3-3.8.4-10.3-6.9-1.2-3.3-.4 3.8-4 5-1.4-2.1.3 2.7-8.3-.4-3.2-2.1 2.6 3.9 1.5 13.6z"/><linearGradient id="XMLID_27_" gradientUnits="userSpaceOnUse" x1="-92.368" y1="-94.123" x2="-84.278" y2="-80.111" gradientTransform="scale(-1) rotate(60.243 -12.819 -267.908)"><stop offset="0" style="stop-color:#fff"/><stop offset="1" style="stop-color:#fff;stop-opacity:0"/></linearGradient><path id="XMLID_109_" style="opacity:.5;fill:url(#XMLID_27_)" d="m199.9 248.8 2.9-1.8 15.2-1.2-4.8-8-11.2-5.6.5 14.4z"/><path id="XMLID_108_" class="st6" d="m214.9 246 3.1.2 1.3 2.2-.8-2.4 1.5-2.2-2 2z"/><path id="XMLID_107_" class="st6" d="m224.9 236 2.1-2.7 2.6-1.6-2.6.6-2.4-1.7 2 2.1z"/><path id="XMLID_106_" class="st6" d="m212.9 228.1 2.9-2.8 2.6 1-2.3-1.4-.7-2.2-.1 2.2z"/><path id="XMLID_105_" class="st6" d="m212 229.6-1.1 1.1-1.4-1.8.3 2.1-2.2.3 3.1.2z"/><path id="XMLID_104_" class="st6" d="m199 229.2 2.2 2.7.9 3.1-.1-2.8 2.6-.9-3.1.2z"/><radialGradient id="XMLID_28_" cx="-85.749" cy="-78.846" r="4.966" gradientTransform="scale(-1) rotate(60.243 -12.819 -267.908)" gradientUnits="userSpaceOnUse"><stop offset="0" style="stop-color:#616263"/><stop offset=".321" style="stop-color:#606162"/><stop offset=".542" style="stop-color:#5c5d5e"/><stop offset=".732" style="stop-color:#565758"/><stop offset=".903" style="stop-color:#4e4f50"/><stop offset="1" style="stop-color:#48494a"/></radialGradient><circle id="XMLID_103_" cx="213.1" cy="237.4" r="5" style="fill:url(#XMLID_28_)"/><radialGradient id="XMLID_29_" cx="-85.749" cy="-78.846" r="2.959" gradientTransform="scale(-1) rotate(60.243 -12.819 -267.908)" gradientUnits="userSpaceOnUse"><stop offset="0" style="stop-color:#aeafaf"/><stop offset=".321" style="stop-color:#acacad"/><stop offset=".542" style="stop-color:#a5a5a6"/><stop offset=".732" style="stop-color:#999a9a"/><stop offset=".903" style="stop-color:#8a8a8a"/><stop offset="1" style="stop-color:#7e7f7f"/></radialGradient><circle id="XMLID_102_" cx="213.1" cy="237.4" r="3" style="fill:url(#XMLID_29_)"/><path id="XMLID_101_" class="st2" d="M210.8 238.7c.4.8 1.2 1.3 2.1 1.3-.4-.2-.7-.5-.9-.9-.7-1.3-.3-2.9 1-3.6.5-.3 1-.4 1.5-.3-.8-.5-1.8-.5-2.6 0-1.4.6-1.8 2.2-1.1 3.5z"/></g><g id="Calque_15_-_copie_6"><path id="XMLID_112_" class="st3" d="m102 250.5 1.8-23.5-12-.5-5.9-8.5-19.5 12.2L79.5 251z"/><radialGradient id="XMLID_30_" cx="-149.272" cy="34.434" r="16.053" gradientTransform="scale(1 -1) rotate(60.243 202.302 102.873)" gradientUnits="userSpaceOnUse"><stop offset="0" style="stop-color:#c5b798"/><stop offset=".343" style="stop-color:#c2b495"/><stop offset=".578" style="stop-color:#bbac8c"/><stop offset=".78" style="stop-color:#b0a07f"/><stop offset=".964" style="stop-color:#a2916e"/><stop offset="1" style="stop-color:#9f8e6a"/></radialGradient><path id="XMLID_100_" style="fill:url(#XMLID_30_)" d="m100.4 248.8-3.1-1.5-14.4-1-2.2 2.7.7-3.1-8.4-12.3-3.3-2.3 3.8.4 10.3-6.9 1.2-3.3.4 3.8 4 5 1.4-2.1-.2 2.7 8.3-.4 3.1-2.1-2.6 3.9-1.4 13.6z"/><linearGradient id="XMLID_32_" gradientUnits="userSpaceOnUse" x1="-156.892" y1="18.734" x2="-148.802" y2="32.746" gradientTransform="scale(1 -1) rotate(60.243 202.302 102.873)"><stop offset="0" style="stop-color:#fff"/><stop offset="1" style="stop-color:#fff;stop-opacity:0"/></linearGradient><path id="XMLID_99_" style="opacity:.5;fill:url(#XMLID_32_)" d="m100.4 248.8-3-1.8-15.2-1.2 4.9-8 11.2-5.6-.6 14.4z"/><path id="XMLID_98_" class="st6" d="m85.3 246-3.1.2-1.3 2.2.8-2.4-1.5-2.2 2 2z"/><path id="XMLID_97_" class="st6" d="m75.3 236-2.1-2.7-2.6-1.6 2.6.6 2.4-1.7-2 2.1z"/><path id="XMLID_96_" class="st6" d="m87.3 228.1-2.9-2.8-2.6 1 2.3-1.4.7-2.2.1 2.2z"/><path id="XMLID_95_" class="st6" d="m88.2 229.6 1.2 1.1 1.3-1.8-.3 2.1 2.2.3-3.1.2z"/><path id="XMLID_94_" class="st6" d="m101.2 229.2-2.2 2.7-.8 3.1.1-2.8-2.7-.9 3.1.2z"/><radialGradient id="XMLID_33_" cx="-150.272" cy="34.011" r="4.966" gradientTransform="scale(1 -1) rotate(60.243 202.302 102.873)" gradientUnits="userSpaceOnUse"><stop offset="0" style="stop-color:#616263"/><stop offset=".321" style="stop-color:#606162"/><stop offset=".542" style="stop-color:#5c5d5e"/><stop offset=".732" style="stop-color:#565758"/><stop offset=".903" style="stop-color:#4e4f50"/><stop offset="1" style="stop-color:#48494a"/></radialGradient><circle id="XMLID_93_" cx="87.1" cy="237.4" r="5" style="fill:url(#XMLID_33_)"/><radialGradient id="XMLID_34_" cx="-150.272" cy="34.011" r="2.959" gradientTransform="scale(1 -1) rotate(60.243 202.302 102.873)" gradientUnits="userSpaceOnUse"><stop offset="0" style="stop-color:#aeafaf"/><stop offset=".321" style="stop-color:#acacad"/><stop offset=".542" style="stop-color:#a5a5a6"/><stop offset=".732" style="stop-color:#999a9a"/><stop offset=".903" style="stop-color:#8a8a8a"/><stop offset="1" style="stop-color:#7e7f7f"/></radialGradient><circle id="XMLID_92_" cx="87.1" cy="237.4" r="3" style="fill:url(#XMLID_34_)"/><path id="XMLID_91_" class="st2" d="M89.4 238.7c-.4.8-1.2 1.3-2.1 1.3.4-.2.7-.5.9-.9.7-1.3.3-2.9-1-3.6-.5-.3-1-.4-1.5-.3.8-.5 1.8-.5 2.6 0 1.4.6 1.8 2.2 1.1 3.5z"/></g></g></svg>