<svg version="1.0" id="poison" xmlns="http://www.w3.org/2000/svg" x="0" y="0" width="300" height="260" style="enable-background:new 0 0 300 260" xml:space="preserve"><style>.st2{fill:#af69ab}.st3{fill:#c482b8}.st5{fill:none;stroke:#562956;stroke-width:2;stroke-miterlimit:10}.st6{fill:#7f4e80}</style><path id="XMLID_38_" d="M150 75.8c-27.9 0-50.5 22.6-50.5 50.5 0 19.2 12.6 32.2 26.6 40.8v3.8c0 2.5 1.2 4.7 3 6.1 1.2.9 3 .5 3.7-.8.6-1.3 1.3-2.8 1.6-4.4.1-.6.2-1.2.2-1.8 0 0 .8 8.1 3.7 8.1 2.8 0 6.8-1.7 6.8-7.4 0 0 .3 7.1 5.6 7.4 5.3.3 5.1-8.1 5.1-8.1s0 8.1 4.8 8c4.4-.1 3.8-6.4 3.7-7.2v-.1.1c0 .3.2 1.6.7 3.1.3.9.7 1.9 1.2 2.8.7 1.2 2.2 1.7 3.4 1.2 2.6-1.2 4.4-3.8 4.4-6.9v-3.3c10.6-8.9 26.6-22.1 26.6-41.3-.1-28-22.7-50.6-50.6-50.6z" style="fill:#975a96;stroke:#2e112b;stroke-width:16;stroke-miterlimit:10"/><path id="XMLID_35_" d="M150 75.8c-27.9 0-50.5 22.6-50.5 50.5 0 19.2 12.6 32.2 26.6 40.8v3.8c0 2.5 1.2 4.7 3 6.1 1.2.9 3 .5 3.7-.8.6-1.3 1.3-2.8 1.6-4.4.1-.6.2-1.2.2-1.8 0 0 .8 8.1 3.7 8.1 2.8 0 6.8-1.7 6.8-7.4 0 0 .3 7.1 5.6 7.4 5.3.3 5.1-8.1 5.1-8.1s0 8.1 4.8 8c4.4-.1 3.8-6.4 3.7-7.2v-.1.1c0 .3.2 1.6.7 3.1.3.9.7 1.9 1.2 2.8.7 1.2 2.2 1.7 3.4 1.2 2.6-1.2 4.4-3.8 4.4-6.9v-3.3c10.6-8.9 26.6-22.1 26.6-41.3-.1-28-22.7-50.6-50.6-50.6z" style="fill:#975a96;stroke:#fff;stroke-width:3;stroke-miterlimit:10"/><ellipse id="XMLID_34_" class="st2" cx="150" cy="122.5" rx="47.8" ry="43.6"/><ellipse id="XMLID_33_" class="st3" cx="150" cy="117.9" rx="44.1" ry="39"/><ellipse id="XMLID_23_" transform="rotate(59.735 134.314 92.44)" cx="134.3" cy="92.4" rx="6.1" ry="9.5" style="fill:#d091c0"/><path id="XMLID_20_" class="st5" d="m153.5 139.6.3 2.1v.8l-.2 1.6c0 .8.6 1.4 1.4 1.4l1.2-.1c.9-.1 1.7-.1 2.6 0l1.2.1c1.3 0 1.9-1.6 1-2.5l-2-1.5c-.3-.3-.6-.5-.9-.8l-2-2.2c-1.1-.8-2.6-.2-2.6 1.1z"/><path id="XMLID_19_" class="st2" d="m153.5 139.6.3 2.1v.8l-.2 1.6c0 .8.6 1.4 1.4 1.4l1.2-.1c.9-.1 1.7-.1 2.6 0l1.2.1c1.3 0 1.9-1.6 1-2.5l-2-1.5c-.3-.3-.6-.5-.9-.8l-2-2.2c-1.1-.8-2.6-.2-2.6 1.1z"/><path id="XMLID_18_" class="st6" d="m156.1 145.4-1.2.1c-.8 0-1.4-.6-1.4-1.4l.2-1.6v-.8l-.2-1.4c1.1.9 1.2 2.6 2.5 3.3 1.4.9 4 .8 4.9 1.3-.2.4-.7.6-1.2.6l-1.2-.1c-.7-.1-1.5-.1-2.4 0z"/><path id="XMLID_17_" class="st5" d="m146.5 139.6-.3 2.1v.8l.2 1.6c0 .8-.6 1.4-1.4 1.4l-1.2-.1c-.9-.1-1.7-.1-2.6 0l-1.2.1c-1.3 0-1.9-1.6-1-2.5l2-1.5c.3-.3.6-.5.9-.8l2-2.2c1.1-.8 2.6-.2 2.6 1.1z"/><path id="XMLID_16_" class="st2" d="m146.5 139.6-.3 2.1v.8l.2 1.6c0 .8-.6 1.4-1.4 1.4l-1.2-.1c-.9-.1-1.7-.1-2.6 0l-1.2.1c-1.3 0-1.9-1.6-1-2.5l2-1.5c.3-.3.6-.5.9-.8l2-2.2c1.1-.8 2.6-.2 2.6 1.1z"/><path id="XMLID_15_" class="st6" d="m143.9 145.4 1.2.1c.8 0 1.4-.6 1.4-1.4l-.2-1.6v-.8l.2-1.4c-1.1.9-1.2 2.6-2.5 3.3-1.4.9-4 .8-4.9 1.3.2.4.7.6 1.2.6l1.2-.1c.6-.1 1.5-.1 2.4 0z"/><ellipse id="XMLID_14_" class="st3" cx="124.9" cy="120" rx="11.8" ry="13"/><path id="XMLID_13_" class="st2" d="M115.6 123.7c0 2.4 1.2 4.6 2.1 6.6 2 1.7 4.5 2.7 7.2 2.7 6.5 0 11.8-5.8 11.8-13 0-4.7-2.3-8.8-5.7-11.1-.4 0-.8-.1-1.2-.1-3 0-6.2.5-8.5 2.3-2.5 2-4.7 4.4-5.5 7.7-.3 1.3-.2 3.6-.2 4.9z"/><path id="XMLID_12_" class="st6" d="M136.7 120c0-.5 0-1.1-.1-1.6-1.6-2.2-4-3.5-6.8-3.5-2.7 0-5.6 0-7.2 2-1.3 1.6-1.5 5.1-1.5 7.4 0 3.8 2.1 7.1 5.2 8.6 5.9-.8 10.4-6.2 10.4-12.9z"/><ellipse id="XMLID_11_" class="st5" cx="124.9" cy="120" rx="11.8" ry="13"/><ellipse id="XMLID_9_" class="st3" cx="173.9" cy="120" rx="11.8" ry="13"/><path id="XMLID_8_" class="st2" d="M183.2 123.7c0 2.4-1.2 4.6-2.1 6.6-2 1.7-4.5 2.7-7.2 2.7-6.5 0-11.8-5.8-11.8-13 0-4.7 2.3-8.8 5.7-11.1.4 0 .8-.1 1.2-.1 3 0 6.2.5 8.5 2.3 2.5 2 4.7 4.4 5.5 7.7.2 1.3.2 3.6.2 4.9z"/><path id="XMLID_7_" class="st6" d="M162 120c0-.5 0-1.1.1-1.6 1.6-2.2 4-3.5 6.8-3.5 2.7 0 5.6 0 7.2 2 1.3 1.6 1.5 5.1 1.5 7.4 0 3.8-2.1 7.1-5.2 8.6-5.8-.8-10.4-6.2-10.4-12.9z"/><ellipse id="XMLID_6_" class="st5" cx="173.9" cy="120" rx="11.8" ry="13"/></svg>