<svg version="1.0" xmlns="http://www.w3.org/2000/svg" width="300" height="260" style="enable-background:new 0 0 300 260" xml:space="preserve"><path d="M145.1 179.3s-39.8-14.7-24.8-47.6c7.5-14.2 16.1-16 21.2-26.3 5.1-10.3 8.7-15.3 2.9-29.2 0 0 28.1 10.9 16.7 28.5-8.1 12.4-9.4 21-3.3 23s8.7-4.5 7.1-9.5c-2.7-8.6 4.7-12.9 4.7-12.9s.8 15.5 7.1 27.3c9.3 17.5.7 34.4-11.8 40.8 0 0-1.1-6.2-10.5-11.6-8-4.6-14.4-12.9-11.5-21.2-.2.1-18 10.9 2.2 38.7z" style="fill:none;stroke:#353535;stroke-width:13;stroke-miterlimit:10"/><path d="M145.1 179.3s-39.8-14.7-24.8-47.6c7.5-14.2 16.1-16 21.2-26.3 5.1-10.3 8.7-15.3 2.9-29.2 0 0 28.1 10.9 16.7 28.5-8.1 12.4-9.4 21-3.3 23s8.7-4.5 7.1-9.5c-2.7-8.6 4.7-12.9 4.7-12.9s.8 15.5 7.1 27.3c9.3 17.5.7 34.4-11.8 40.8 0 0-1.1-6.2-10.5-11.6-8-4.6-14.4-12.9-11.5-21.2-.2.1-18 10.9 2.2 38.7z" style="fill:none;stroke:#fff;stroke-width:3;stroke-miterlimit:10"/><linearGradient id="a" gradientUnits="userSpaceOnUse" x1="176.29" y1="98.351" x2="124.843" y2="166.624"><stop offset="0" style="stop-color:#e93e3a"/><stop offset=".287" style="stop-color:#ec5c3c"/><stop offset=".474" style="stop-color:#ed683c"/><stop offset=".553" style="stop-color:#f07e3e"/><stop offset=".697" style="stop-color:#f49e41"/><stop offset=".824" style="stop-color:#f8b643"/><stop offset=".93" style="stop-color:#fbc543"/><stop offset="1" style="stop-color:#fccb43"/></linearGradient><path d="M145.1 179.3s-39.8-14.7-24.8-47.6c7.5-14.2 16.1-16 21.2-26.3 5.1-10.3 8.7-15.3 2.9-29.2 0 0 28.1 10.9 16.7 28.5-8.1 12.4-9.4 21-3.3 23s8.7-4.5 7.1-9.5c-2.7-8.6 4.7-12.9 4.7-12.9s.8 15.5 7.1 27.3c9.3 17.5.7 34.4-11.8 40.8 0 0-1.1-6.2-10.5-11.6-8-4.6-14.4-12.9-11.5-21.2-.2.1-18 10.9 2.2 38.7z" style="fill:url(#a)"/><linearGradient id="b" gradientUnits="userSpaceOnUse" x1="120.401" y1="100.167" x2="163.414" y2="143.18"><stop offset="0" style="stop-color:#fff"/><stop offset="1" style="stop-color:#fff;stop-opacity:0"/></linearGradient><path d="M175.7 130.9c-5.5-11.5-6.2-25.6-6.2-25.6s-7.3 4.3-4.7 12.9c1.6 5.1-1 11.6-7.1 9.5s-4.8-10.6 3.3-23c11.4-17.6-16.7-28.5-16.7-28.5 5.8 13.9 2.2 18.9-2.9 29.2s-13.6 12.1-21.2 26.3c-3.1 6.8-3.9 12.8-3.1 18.1 10.8-9.9 29.1-19.9 58.6-18.9z" style="opacity:.73;fill:url(#b)"/></svg>