<svg version="1.0" id="Calque_126" xmlns="http://www.w3.org/2000/svg" x="0" y="0" width="300" height="260" style="enable-background:new 0 0 300 260" xml:space="preserve"><style>.st0{display:none}.st1,.st2{display:inline;fill:#353535}.st2{fill:#fff}.st10{fill:#383838}</style><linearGradient id="XMLID_17_" gradientUnits="userSpaceOnUse" x1="101.782" y1="182.346" x2="196.991" y2="182.346"><stop offset="0" style="stop-color:#4d4d4f;stop-opacity:6.000000e-002"/><stop offset=".003" style="stop-color:#4e4e50;stop-opacity:6.477558e-002"/><stop offset=".062" style="stop-color:#555354;stop-opacity:.1765"/><stop offset=".124" style="stop-color:#585657;stop-opacity:.293"/><stop offset=".188" style="stop-color:#575657;stop-opacity:.4137"/><stop offset=".255" style="stop-color:#535355;stop-opacity:.5397"/><stop offset=".326" style="stop-color:#505051;stop-opacity:.673"/><stop offset=".404" style="stop-color:#4d4d4f;stop-opacity:.8186"/><stop offset=".5" style="stop-color:#4d4d4f"/><stop offset=".597" style="stop-color:#4d4d4f;stop-opacity:.8071"/><stop offset=".674" style="stop-color:#505051;stop-opacity:.6521"/><stop offset=".745" style="stop-color:#535355;stop-opacity:.5103"/><stop offset=".812" style="stop-color:#575657;stop-opacity:.3763"/><stop offset=".876" style="stop-color:#585657;stop-opacity:.2478"/><stop offset=".938" style="stop-color:#555354;stop-opacity:.124"/><stop offset=".998" style="stop-color:#4e4e50;stop-opacity:5.080402e-003"/><stop offset="1" style="stop-color:#4d4d4f;stop-opacity:0"/></linearGradient><g id="factory"><g id="Calque_4_-_copie_3"><path id="XMLID_58_" d="M215.1 137.7c.3-2.5.5-5.1.5-7.7 0-2.6-.2-5.2-.5-7.7h-21.2c-1.2-6.6-3.8-12.8-7.5-18.1l15-15c-1.6-2-3.3-3.9-5.1-5.8s-3.8-3.6-5.8-5.1l-15 15c-5.3-3.7-11.4-6.3-18.1-7.5V64.6c-2.5-.3-5.1-.5-7.7-.5s-5.2.2-7.7.5v21.2c-6.6 1.2-12.8 3.8-18.1 7.5l-15-15c-2 1.6-3.9 3.3-5.8 5.1s-3.6 3.8-5.1 5.8l15 15c-3.7 5.3-6.3 11.4-7.5 18.1H84.2c-.3 2.5-.5 5.1-.5 7.7 0 2.6.2 5.2.5 7.7h21.2c1.2 6.6 3.8 12.8 7.5 18.1l-15 15c1.6 2 3.3 3.9 5.1 5.8 1.9 1.9 3.8 3.6 5.8 5.1l15-15c5.3 3.7 11.4 6.3 18.1 7.5v21.2c2.5.3 5.1.5 7.7.5s5.2-.2 7.7-.5v-21.2c6.6-1.2 12.8-3.8 18.1-7.5l15 15c2-1.6 3.9-3.3 5.8-5.1 1.9-1.9 3.6-3.8 5.1-5.8l-15-15c3.7-5.3 6.3-11.4 7.5-18.1h21.3zM149.7 153c-12.7 0-23-10.3-23-23s10.3-23 23-23 23 10.3 23 23-10.3 23-23 23z" style="fill:#383838;stroke:#383838;stroke-width:4;stroke-miterlimit:10"/><path id="XMLID_55_" class="st10" d="M149.5 75.1c-30.3 0-54.9 24.6-54.9 54.9 0 30.3 24.6 54.9 54.9 54.9s54.9-24.6 54.9-54.9c0-30.3-24.6-54.9-54.9-54.9zm.2 77.9c-12.7 0-23-10.3-23-23s10.3-23 23-23 23 10.3 23 23-10.3 23-23 23z"/></g><g id="Calque_4_-_copie_2"><g id="XMLID_2_"><path id="XMLID_21_" d="M149.7 78.8c-28.2 0-51.2 22.9-51.2 51.2 0 28.2 22.9 51.2 51.2 51.2s51.2-22.9 51.2-51.2c-.1-28.2-23-51.2-51.2-51.2zm0 95.3c-24.4 0-44.1-19.8-44.1-44.1 0-24.4 19.8-44.1 44.1-44.1s44.1 19.8 44.1 44.1c0 24.4-19.8 44.1-44.1 44.1z" style="fill:#939292"/></g><path id="XMLID_29_" d="M215.6 129.9c0-4.2-3.5-7.7-7.8-7.7H200c-3.4 0-6.5-2.2-7.5-5.5-.8-2.7-1.9-5.2-3.2-7.7-1.6-3-1.1-6.8 1.4-9.2l5.5-5.5c3-3 3.1-7.9.1-10.9l-.1-.1-.1-.1c-3-3-7.9-2.9-10.9.1l-5.5 5.5c-2.4 2.4-6.2 3-9.2 1.4-2.4-1.3-5-2.4-7.7-3.2-3.3-1-5.5-4.1-5.5-7.5v-7.7c0-4.2-3.4-7.8-7.7-7.8h-.2c-4.2 0-7.7 3.5-7.7 7.8v7.7c0 3.4-2.2 6.5-5.5 7.5-2.7.8-5.2 1.9-7.7 3.2-3 1.6-6.8 1.1-9.2-1.4l-5.5-5.5c-3-3-7.9-3.1-10.9-.1l-.1.1-.1.1c-3 3-2.9 7.9.1 10.9l5.5 5.5c2.4 2.4 3 6.2 1.4 9.2-1.3 2.4-2.4 5-3.2 7.7-1 3.3-4.1 5.5-7.5 5.5h-7.7c-4.2 0-7.8 3.4-7.8 7.7v.2c0 4.2 3.5 7.7 7.8 7.7H99c3.4 0 6.5 2.2 7.5 5.5.8 2.7 1.9 5.2 3.2 7.7 1.6 3 1.1 6.8-1.4 9.2l-5.5 5.5c-3 3-3.1 7.9-.1 10.9l.1.1.1.1c3 3 7.9 2.9 10.9-.1l5.5-5.5c2.4-2.4 6.2-3 9.2-1.4 2.4 1.3 5 2.4 7.7 3.2 3.3 1 5.5 4.1 5.5 7.5v7.7c0 4.2 3.4 7.8 7.7 7.8h.2c4.2 0 7.7-3.5 7.7-7.8v-7.7c0-3.4 2.2-6.5 5.5-7.5 2.7-.8 5.2-1.9 7.7-3.2 3-1.6 6.8-1.1 9.2 1.4l5.5 5.5c3 3 7.9 3.1 10.9.1l.1-.1.1-.1c3-3 2.9-7.9-.1-10.9l-5.5-5.5c-2.4-2.4-3-6.2-1.4-9.2 1.3-2.4 2.4-5 3.2-7.7 1-3.3 4.1-5.5 7.5-5.5h7.7c4.2 0 7.8-3.4 7.8-7.7.1 0 .1-.1.1-.2 0 .1 0 0 0 0zM149.7 153c-12.7 0-23-10.3-23-23s10.3-23 23-23 23 10.3 23 23-10.3 23-23 23z" style="fill:#dedddd;stroke:#383838;stroke-width:4;stroke-miterlimit:10"/></g></g></svg>