<?xml version="1.0" encoding="utf-8"?>
<!-- Generator: Adobe Illustrator 19.0.0, SVG Export Plug-In . SVG Version: 6.00 Build 0)  -->
<svg version="1.0" xmlns="http://www.w3.org/2000/svg" xmlns:xlink="http://www.w3.org/1999/xlink" x="0px" y="0px" width="300px" height="260px"
	 viewBox="0 0 300 260" style="enable-background:new 0 0 300 260;" xml:space="preserve">
<style type="text/css">
	.st0{fill:url(#XMLID_7_);}
	.st1{opacity:0.15;fill:url(#XMLID_9_);}
	.st2{opacity:0.15;fill:url(#XMLID_10_);}
	.st3{opacity:0.5;fill:url(#XMLID_18_);}
	.st4{fill:url(#XMLID_20_);}
	.st5{opacity:0.5;fill:url(#XMLID_21_);}
	.st6{fill:url(#XMLID_31_);}
	.st7{opacity:0.5;fill:url(#XMLID_37_);}
	.st8{fill:url(#XMLID_38_);}
	.st9{fill:url(#XMLID_39_);}
	.st10{opacity:0.75;}
	.st11{opacity:0.5;fill:url(#XMLID_40_);}
	.st12{opacity:0.5;fill:url(#XMLID_42_);}
	.st13{fill:url(#XMLID_44_);}
	.st14{opacity:0.5;fill:url(#XMLID_49_);}
	.st15{opacity:0.5;fill:url(#XMLID_50_);}
	.st16{opacity:0.3;}
	.st17{fill:#353535;}
	.st18{fill:url(#XMLID_51_);}
	.st19{opacity:0.6;fill:url(#XMLID_52_);}
</style>
<g id="border_-_copie">
	<g id="keepit">
		<g id="XMLID_22_">
			<radialGradient id="XMLID_7_" cx="150" cy="130" r="111.296" gradientUnits="userSpaceOnUse">
				<stop  offset="0" style="stop-color:#D6D5D5"/>
				<stop  offset="0.3213" style="stop-color:#D4D3D2"/>
				<stop  offset="0.5416" style="stop-color:#CCCACA"/>
				<stop  offset="0.7315" style="stop-color:#BEBDBD"/>
				<stop  offset="0.9032" style="stop-color:#ACABAB"/>
				<stop  offset="1" style="stop-color:#9F9E9E"/>
			</radialGradient>
			<path id="XMLID_23_" class="st0" d="M198.7,233l-97.6-0.2c-7.6,0-14.7-4-18.5-10.4l-48.7-82.2c-3.8-6.5-3.8-14.4,0-20.8
				l48.9-82.2C86.6,30.9,93.7,27,101.3,27l97.6,0.2c7.6,0,14.7,4,18.5,10.4l48.7,82.2c3.8,6.5,3.8,14.4,0,20.8l-48.9,82.2
				C213.4,229,206.3,233,198.7,233z"/>
		</g>
		<radialGradient id="XMLID_9_" cx="192.0361" cy="193.3179" r="53.0478" gradientUnits="userSpaceOnUse">
			<stop  offset="0" style="stop-color:#959698"/>
			<stop  offset="0.3213" style="stop-color:#959697"/>
			<stop  offset="0.5416" style="stop-color:#939494"/>
			<stop  offset="0.7315" style="stop-color:#8F9090"/>
			<stop  offset="0.9032" style="stop-color:#89898A"/>
			<stop  offset="1" style="stop-color:#848484"/>
		</radialGradient>
		<path id="XMLID_58_" class="st1" d="M251.1,156.1c-3.5-1.6-7.5-3.2-11.2-2.1c-4.3,1.3-7,5.8-11.4,6.9c-2.3,0.6-4.9,0.2-6.8,1.6
			c-1.2,0.9-1.8,2.3-3,3.1c-2.4,1.7-5.6,0.5-8.2-0.9c-2.9-1.6-5.6-3.3-8.3-5.2c-2-1.5-4-3.1-6.5-3.8c-2.4-0.7-5.4-0.2-6.8,1.9
			c-0.9,1.3-1,3-1.8,4.3c-1.8,3.1-6.1,3.3-9.6,3.2c-1.2,0-2.6-0.1-3.6-0.8c-2.3-1.6-1.9-5.3-3.9-7.3c-2.4-2.4-6.7-0.7-8.9,1.9
			s-3.7,6-6.7,7.6c-3.7,2-8.5,0.9-12,3.2c-5.2,3.5-3.5,12-7.4,16.9c-1.3,1.7-3.2,2.8-4.5,4.5c-2.2,2.7-2.6,6.6-1.8,10
			c0.8,3.4,2.6,6.5,4.5,9.4c1.8,2.7,3.7,6.2,1.9,8.9c-0.6,0.9-1.6,1.6-2.3,2.4c-2,2.5-1.1,6.2-1,9.5c0,0.5,0,1,0,1.5l66.9,0.1
			c7.6,0,14.7-4,18.6-10.4l38.4-64.6C254.2,157.4,252.6,156.7,251.1,156.1z"/>
		<radialGradient id="XMLID_10_" cx="138.4097" cy="116.8781" r="99.0406" gradientUnits="userSpaceOnUse">
			<stop  offset="0" style="stop-color:#959698"/>
			<stop  offset="0.3213" style="stop-color:#959697"/>
			<stop  offset="0.5416" style="stop-color:#939494"/>
			<stop  offset="0.7315" style="stop-color:#8F9090"/>
			<stop  offset="0.9032" style="stop-color:#89898A"/>
			<stop  offset="1" style="stop-color:#848484"/>
		</radialGradient>
		<path id="XMLID_59_" class="st2" d="M217.4,37.5c-3.8-6.4-10.8-10.4-18.5-10.4L101.3,27c-7.6,0-14.7,3.9-18.6,10.4l-48.9,82.2
			c-3.8,6.5-3.8,14.4,0,20.8l39.4,66.4c5.8-0.9,13.8-0.8,14.9-6.6c0.3-1.4,0-3,0.3-4.4c1.6-9.2,19.1-5.2,22.4-13.9
			c2-5.4-3.2-12.4,0.7-16.6c0.9-1,2.1-1.6,2.8-2.6c2.6-3.7-2.6-8.2-7.1-8.4c-4.5-0.2-9.4,1.4-13.2-0.9c-6.7-4.1-3-14.4-4.4-22.1
			c-0.9-4.6-3.8-8.6-5.9-12.8c-2.1-4.2-3.2-9.6-0.5-13.5c1.1-1.5,2.6-2.6,3.7-4.2c3.6-5.4-0.7-12.6-0.1-19.1
			c0.7-7.5,9.4-13.1,16.6-10.6c6.9,2.5,11.2,10.8,18.5,11.4c4,0.4,8.1-1.7,11.8-0.4c2.7,0.9,4.4,3.3,6.5,5.3
			c6.9,6.6,18.3,7.9,26.6,3c1.4-0.8,2.7-1.8,4.2-2c3.5-0.4,6.2,3.1,9.4,4.5c8.7,3.8,17.6-8.1,27-6.5c5.4,0.9,9.6,6.2,15.1,6.1
			c5.3-0.1,9.6-5.3,14.9-5.2c2.6,0,5.7,1.2,7.6-0.6c0.4-0.4,0.6-0.8,0.8-1.3L217.4,37.5z"/>
	</g>
	<g id="Calque_14">
		<g id="Calque_13">
			<linearGradient id="XMLID_18_" gradientUnits="userSpaceOnUse" x1="90.1954" y1="69.0443" x2="106.3151" y2="69.0443">
				<stop  offset="0" style="stop-color:#FFFFFF;stop-opacity:0"/>
				<stop  offset="1" style="stop-color:#FFFFFF"/>
			</linearGradient>
			<path id="XMLID_47_" class="st3" d="M90.3,51.5c0,0-2.3,20.4,16,35C106.3,86.5,106.7,61.3,90.3,51.5z M91.9,55.2
				c11.3,7.8,12.7,27.8,12.7,27.8C91.9,70.9,91.9,55.2,91.9,55.2z"/>
			<radialGradient id="XMLID_20_" cx="98.3013" cy="69.0443" r="10.7908" gradientUnits="userSpaceOnUse">
				<stop  offset="0" style="stop-color:#959698"/>
				<stop  offset="0.3213" style="stop-color:#959697"/>
				<stop  offset="0.5416" style="stop-color:#939494"/>
				<stop  offset="0.7315" style="stop-color:#8F9090"/>
				<stop  offset="0.9032" style="stop-color:#89898A"/>
				<stop  offset="1" style="stop-color:#848484"/>
			</radialGradient>
			<path id="XMLID_41_" class="st4" d="M91.9,55.2c0,0,0,15.8,12.7,27.8C104.7,82.9,103.2,62.9,91.9,55.2z"/>
		</g>
		<g id="Calque_13_-_copie">
			
				<linearGradient id="XMLID_21_" gradientUnits="userSpaceOnUse" x1="113.7057" y1="103.1932" x2="129.8254" y2="103.1932" gradientTransform="matrix(0.7414 -0.6711 0.6711 0.7414 -75.715 173.7476)">
				<stop  offset="0" style="stop-color:#FFFFFF;stop-opacity:0"/>
				<stop  offset="1" style="stop-color:#FFFFFF"/>
			</linearGradient>
			<path id="XMLID_36_" class="st5" d="M66.2,160.9c0,0,12,16.6,35.4,15.2C101.5,176.1,84.8,157.1,66.2,160.9z M69.8,162.5
				c13.6-1.8,28,12,28,12C80.4,174.2,69.8,162.5,69.8,162.5z"/>
			
				<radialGradient id="XMLID_31_" cx="121.8115" cy="103.1932" r="10.7908" gradientTransform="matrix(0.7414 -0.6711 0.6711 0.7414 -75.715 173.7476)" gradientUnits="userSpaceOnUse">
				<stop  offset="0" style="stop-color:#959698"/>
				<stop  offset="0.3213" style="stop-color:#959697"/>
				<stop  offset="0.5416" style="stop-color:#939494"/>
				<stop  offset="0.7315" style="stop-color:#8F9090"/>
				<stop  offset="0.9032" style="stop-color:#89898A"/>
				<stop  offset="1" style="stop-color:#848484"/>
			</radialGradient>
			<path id="XMLID_35_" class="st6" d="M69.8,162.5c0,0,10.5,11.7,28,12C97.9,174.5,83.4,160.6,69.8,162.5z"/>
		</g>
		<g id="Calque_13_-_copie_2">
			
				<linearGradient id="XMLID_37_" gradientUnits="userSpaceOnUse" x1="204.857" y1="176.7179" x2="220.9768" y2="176.7179" gradientTransform="matrix(0.2924 0.9563 -0.9563 0.2924 315.5067 -70.7139)">
				<stop  offset="0" style="stop-color:#FFFFFF;stop-opacity:0"/>
				<stop  offset="1" style="stop-color:#FFFFFF"/>
			</linearGradient>
			<path id="XMLID_6_" class="st7" d="M223.2,171.8c0,0-20.2,3.8-28.8,25.6C194.4,197.4,218.7,190.3,223.2,171.8z M220.2,174.5
				c-4.1,13.1-22.8,20.3-22.8,20.3C205.1,179,220.2,174.5,220.2,174.5z"/>
			
				<radialGradient id="XMLID_38_" cx="212.9629" cy="176.7179" r="10.7908" gradientTransform="matrix(0.2924 0.9563 -0.9563 0.2924 315.5067 -70.7139)" gradientUnits="userSpaceOnUse">
				<stop  offset="0" style="stop-color:#959698"/>
				<stop  offset="0.3213" style="stop-color:#959697"/>
				<stop  offset="0.5416" style="stop-color:#939494"/>
				<stop  offset="0.7315" style="stop-color:#8F9090"/>
				<stop  offset="0.9032" style="stop-color:#89898A"/>
				<stop  offset="1" style="stop-color:#848484"/>
			</radialGradient>
			<path id="XMLID_4_" class="st8" d="M220.2,174.5c0,0-15.1,4.6-22.8,20.3C197.4,194.8,216.1,187.5,220.2,174.5z"/>
		</g>
		<g id="Calque_9">
			<radialGradient id="XMLID_39_" cx="108.6719" cy="219.7581" r="9.9629" gradientUnits="userSpaceOnUse">
				<stop  offset="0" style="stop-color:#959698"/>
				<stop  offset="0.3213" style="stop-color:#959697"/>
				<stop  offset="0.5416" style="stop-color:#939494"/>
				<stop  offset="0.7315" style="stop-color:#8F9090"/>
				<stop  offset="0.9032" style="stop-color:#89898A"/>
				<stop  offset="1" style="stop-color:#848484"/>
			</radialGradient>
			<path id="XMLID_19_" class="st9" d="M103.5,232.8c0,0,7.8-19.9,10.4-26.2c0,0-2.7,22.5-3.2,26.2L103.5,232.8z"/>
			<g id="XMLID_26_" class="st10">
				<linearGradient id="XMLID_40_" gradientUnits="userSpaceOnUse" x1="107.487" y1="232.8578" x2="110.682" y2="232.8578">
					<stop  offset="0" style="stop-color:#FFFFFF"/>
					<stop  offset="1" style="stop-color:#FFFFFF;stop-opacity:0"/>
				</linearGradient>
				<polygon id="XMLID_27_" class="st11" points="110.7,232.9 110.7,232.9 107.5,232.9 				"/>
				<linearGradient id="XMLID_42_" gradientUnits="userSpaceOnUse" x1="100.5101" y1="217.7177" x2="114.7932" y2="217.7177">
					<stop  offset="0" style="stop-color:#FFFFFF;stop-opacity:0"/>
					<stop  offset="1" style="stop-color:#FFFFFF"/>
				</linearGradient>
				<path id="XMLID_28_" class="st12" d="M114.8,202.6c-4,6.3-14.3,30.3-14.3,30.3l7,0l-4,0c0,0,7.8-19.9,10.4-26.2
					c0,0-2.7,22.4-3.2,26.2l2.4,0C113.8,229.1,114.8,202.6,114.8,202.6z"/>
			</g>
		</g>
		<g id="Calque_9_-_copie">
			
				<radialGradient id="XMLID_44_" cx="257.1387" cy="228.5164" r="9.9628" gradientTransform="matrix(-0.6866 -1.1475 1.2049 -0.7209 122.8793 540.6137)" gradientUnits="userSpaceOnUse">
				<stop  offset="0" style="stop-color:#959698"/>
				<stop  offset="0.3213" style="stop-color:#959697"/>
				<stop  offset="0.5416" style="stop-color:#939494"/>
				<stop  offset="0.7315" style="stop-color:#8F9090"/>
				<stop  offset="0.9032" style="stop-color:#89898A"/>
				<stop  offset="1" style="stop-color:#848484"/>
			</radialGradient>
			<path id="XMLID_30_" class="st13" d="M241,77.3c0,0-29.4,5.4-38.7,7c0,0,28.9-13.1,33.8-15.3L241,77.3z"/>
			<g id="XMLID_24_" class="st10">
				
					<linearGradient id="XMLID_49_" gradientUnits="userSpaceOnUse" x1="255.9539" y1="241.616" x2="259.1489" y2="241.616" gradientTransform="matrix(-0.6866 -1.1475 1.2049 -0.7209 122.8793 540.6137)">
					<stop  offset="0" style="stop-color:#FFFFFF"/>
					<stop  offset="1" style="stop-color:#FFFFFF;stop-opacity:0"/>
				</linearGradient>
				<polygon id="XMLID_29_" class="st14" points="236.1,69 236.1,69 238.3,72.7 				"/>
				
					<linearGradient id="XMLID_50_" gradientUnits="userSpaceOnUse" x1="248.9769" y1="226.4759" x2="263.2601" y2="226.4759" gradientTransform="matrix(-0.6866 -1.1475 1.2049 -0.7209 122.8793 540.6137)">
					<stop  offset="0" style="stop-color:#FFFFFF;stop-opacity:0"/>
					<stop  offset="1" style="stop-color:#FFFFFF"/>
				</linearGradient>
				<path id="XMLID_25_" class="st15" d="M196.8,86.2c10.3,0,46.3-5.4,46.3-5.4l-4.8-8l2.7,4.6c0,0-29.4,5.4-38.7,7
					c0,0,28.9-13,33.7-15.3l-1.6-2.7C229.4,68.2,196.8,86.2,196.8,86.2z"/>
			</g>
		</g>
	</g>
	<g id="border_1_">
		<path id="XMLID_32_" class="st16" d="M270.4,119.3l-50.5-85.1c-3.9-6.6-11.2-10.7-19.2-10.7L99.5,23.3c-7.9,0-15.2,4.1-19.2,10.7
			l-50.7,85.1c-3.9,6.7-3.9,14.9,0,21.6l50.5,85.1c3.9,6.6,11.2,10.7,19.2,10.7l101.2,0.2c7.9,0,15.2-4.1,19.2-10.7l50.7-85.1
			C274.3,134.2,274.3,126,270.4,119.3z M257.8,139.7L212.4,216c-3.6,5.9-10.1,9.6-17.2,9.6l-90.6-0.2c-7.1,0-13.6-3.7-17.2-9.6
			l-45.2-76.2c-3.5-6-3.5-13.3,0-19.3L87.6,44c3.6-6,10.1-9.6,17.2-9.6l90.6,0.2c7.1,0,13.6,3.7,17.2,9.6l45.2,76.2
			C261.3,126.4,261.3,133.8,257.8,139.7z"/>
		<path id="XMLID_55_" class="st17" d="M275.8,118.9L223,30.8c-4.1-6.8-11.7-11.1-20-11.1L97.3,19.5c-8.3,0-15.9,4.2-20.1,11.1
			l-52.9,88.1c-4.1,6.9-4.1,15.4,0,22.3L77,229.2c4.1,6.8,11.7,11.1,20,11.1l105.7,0.2c8.3,0,15.9-4.3,20.1-11.1l52.9-88.1
			C279.9,134.3,279.9,125.8,275.8,118.9z M262.7,140.1l-47.4,79c-3.7,6.1-10.6,10-18,10l-94.7-0.2c-7.4,0-14.3-3.8-17.9-10l-47.3-79
			c-3.7-6.2-3.7-13.8,0-20l47.4-79c3.7-6.2,10.6-10,18-10l94.7,0.2c7.4,0,14.3,3.8,17.9,10l47.3,79
			C266.3,126.3,266.3,133.9,262.7,140.1z"/>
		<path id="XMLID_16_" class="st17" d="M284.7,118l-56.5-95.3c-4.4-7.4-12.6-12-21.4-12L93.5,10.5c-8.9,0-17.1,4.5-21.5,12
			l-56.7,95.3c-4.4,7.5-4.4,16.7,0,24.1l56.5,95.3c4.4,7.4,12.6,12,21.4,12l113.2,0.2c8.9,0,17.1-4.6,21.5-12l56.7-95.3
			C289.1,134.7,289.1,125.5,284.7,118z M270.7,140.9l-50.8,85.3c-4,6.6-11.3,10.8-19.3,10.8l-101.4-0.2c-7.9,0-15.3-4.2-19.2-10.8
			l-50.6-85.3c-3.9-6.7-3.9-14.9,0-21.6l50.8-85.3c4-6.7,11.3-10.8,19.3-10.8l101.4,0.2c7.9,0,15.3,4.2,19.2,10.8l50.6,85.3
			C274.6,126,274.6,134.2,270.7,140.9z"/>
		<radialGradient id="XMLID_51_" cx="150" cy="130" r="124.2415" gradientUnits="userSpaceOnUse">
			<stop  offset="0" style="stop-color:#D6D5D5"/>
			<stop  offset="0.3213" style="stop-color:#D4D3D2"/>
			<stop  offset="0.5416" style="stop-color:#CCCACA"/>
			<stop  offset="0.7315" style="stop-color:#BEBDBD"/>
			<stop  offset="0.9032" style="stop-color:#ACABAB"/>
			<stop  offset="1" style="stop-color:#9F9E9E"/>
		</radialGradient>
		<path id="XMLID_11_" class="st18" d="M279.7,118.5l-54.4-91.7c-4.2-7.1-12.1-11.6-20.6-11.6L95.6,15c-8.5,0-16.4,4.4-20.7,11.6
			l-54.6,91.7c-4.2,7.2-4.2,16,0,23.2l54.4,91.7c4.2,7.1,12.1,11.6,20.6,11.6l109,0.2c8.5,0,16.4-4.5,20.7-11.6l54.6-91.7
			C283.9,134.5,283.9,125.7,279.7,118.5z M266.2,140.5l-48.9,82.2c-3.9,6.4-10.9,10.4-18.6,10.4l-97.6-0.2c-7.6,0-14.7-4-18.5-10.4
			l-48.7-82.2c-3.8-6.5-3.8-14.4,0-20.8l48.9-82.2C86.6,30.9,93.7,27,101.3,27l97.6,0.2c7.6,0,14.7,4,18.5,10.4l48.7,82.2
			C269.9,126.1,269.9,134,266.2,140.5z"/>
		<radialGradient id="XMLID_52_" cx="150" cy="130" r="124.2415" gradientUnits="userSpaceOnUse">
			<stop  offset="0.8768" style="stop-color:#FFFFFF;stop-opacity:0"/>
			<stop  offset="1" style="stop-color:#FFFFFF"/>
		</radialGradient>
		<path id="XMLID_2_" class="st19" d="M279.7,118.5l-54.4-91.7c-4.2-7.1-12.1-11.6-20.6-11.6L95.6,15c-8.5,0-16.4,4.4-20.7,11.6
			l-54.6,91.7c-4.2,7.2-4.2,16,0,23.2l54.4,91.7c4.2,7.1,12.1,11.6,20.6,11.6l109,0.2c8.5,0,16.4-4.5,20.7-11.6l54.6-91.7
			C283.9,134.5,283.9,125.7,279.7,118.5z M266.2,140.5l-48.9,82.2c-3.9,6.4-10.9,10.4-18.6,10.4l-97.6-0.2c-7.6,0-14.7-4-18.5-10.4
			l-48.7-82.2c-3.8-6.5-3.8-14.4,0-20.8l48.9-82.2C86.6,30.9,93.7,27,101.3,27l97.6,0.2c7.6,0,14.7,4,18.5,10.4l48.7,82.2
			C269.9,126.1,269.9,134,266.2,140.5z"/>
	</g>
</g>
<g id="圖層_1">
</g>
<g id="Calque_23">
</g>
</svg>
