<svg version="1.0" xmlns="http://www.w3.org/2000/svg" width="300" height="260" style="enable-background:new 0 0 300 260" xml:space="preserve"><style>.st10{opacity:.75}.st17{fill:#353535}.st22{opacity:.5;fill:#e5e5e5}.st23{fill:#675b47;stroke:#353535;stroke-width:3;stroke-miterlimit:10}.st26{opacity:.5;fill:#fff}</style><g id="border_-_copie"><g id="keepit"><g id="XMLID_22_"><radialGradient id="XMLID_61_" cx="150" cy="130" r="111.296" gradientUnits="userSpaceOnUse"><stop offset="0" style="stop-color:#d6d5d5"/><stop offset=".321" style="stop-color:#d4d3d2"/><stop offset=".542" style="stop-color:#cccaca"/><stop offset=".732" style="stop-color:#bebdbd"/><stop offset=".903" style="stop-color:#acabab"/><stop offset="1" style="stop-color:#9f9e9e"/></radialGradient><path id="XMLID_23_" d="m198.7 233-97.6-.2c-7.6 0-14.7-4-18.5-10.4l-48.7-82.2c-3.8-6.5-3.8-14.4 0-20.8l48.9-82.2C86.6 30.9 93.7 27 101.3 27l97.6.2c7.6 0 14.7 4 18.5 10.4l48.7 82.2c3.8 6.5 3.8 14.4 0 20.8l-48.9 82.2c-3.8 6.2-10.9 10.2-18.5 10.2z" style="fill:url(#XMLID_61_)"/></g><radialGradient id="XMLID_62_" cx="192.036" cy="193.318" r="53.048" gradientUnits="userSpaceOnUse"><stop offset="0" style="stop-color:#959698"/><stop offset=".321" style="stop-color:#959697"/><stop offset=".542" style="stop-color:#939494"/><stop offset=".732" style="stop-color:#8f9090"/><stop offset=".903" style="stop-color:#89898a"/><stop offset="1" style="stop-color:#848484"/></radialGradient><path id="XMLID_58_" d="M251.1 156.1c-3.5-1.6-7.5-3.2-11.2-2.1-4.3 1.3-7 5.8-11.4 6.9-2.3.6-4.9.2-6.8 1.6-1.2.9-1.8 2.3-3 3.1-2.4 1.7-5.6.5-8.2-.9-2.9-1.6-5.6-3.3-8.3-5.2-2-1.5-4-3.1-6.5-3.8-2.4-.7-5.4-.2-6.8 1.9-.9 1.3-1 3-1.8 4.3-1.8 3.1-6.1 3.3-9.6 3.2-1.2 0-2.6-.1-3.6-.8-2.3-1.6-1.9-5.3-3.9-7.3-2.4-2.4-6.7-.7-8.9 1.9s-3.7 6-6.7 7.6c-3.7 2-8.5.9-12 3.2-5.2 3.5-3.5 12-7.4 16.9-1.3 1.7-3.2 2.8-4.5 4.5-2.2 2.7-2.6 6.6-1.8 10 .8 3.4 2.6 6.5 4.5 9.4 1.8 2.7 3.7 6.2 1.9 8.9-.6.9-1.6 1.6-2.3 2.4-2 2.5-1.1 6.2-1 9.5v1.5l66.9.1c7.6 0 14.7-4 18.6-10.4l38.4-64.6c-1.5-.5-3.1-1.2-4.6-1.8z" style="opacity:.15;fill:url(#XMLID_62_)"/><radialGradient id="XMLID_90_" cx="138.41" cy="116.878" r="99.041" gradientUnits="userSpaceOnUse"><stop offset="0" style="stop-color:#959698"/><stop offset=".321" style="stop-color:#959697"/><stop offset=".542" style="stop-color:#939494"/><stop offset=".732" style="stop-color:#8f9090"/><stop offset=".903" style="stop-color:#89898a"/><stop offset="1" style="stop-color:#848484"/></radialGradient><path id="XMLID_59_" d="M217.4 37.5c-3.8-6.4-10.8-10.4-18.5-10.4l-97.6-.1c-7.6 0-14.7 3.9-18.6 10.4l-48.9 82.2c-3.8 6.5-3.8 14.4 0 20.8l39.4 66.4c5.8-.9 13.8-.8 14.9-6.6.3-1.4 0-3 .3-4.4 1.6-9.2 19.1-5.2 22.4-13.9 2-5.4-3.2-12.4.7-16.6.9-1 2.1-1.6 2.8-2.6 2.6-3.7-2.6-8.2-7.1-8.4-4.5-.2-9.4 1.4-13.2-.9-6.7-4.1-3-14.4-4.4-22.1-.9-4.6-3.8-8.6-5.9-12.8-2.1-4.2-3.2-9.6-.5-13.5 1.1-1.5 2.6-2.6 3.7-4.2 3.6-5.4-.7-12.6-.1-19.1.7-7.5 9.4-13.1 16.6-10.6 6.9 2.5 11.2 10.8 18.5 11.4 4 .4 8.1-1.7 11.8-.4 2.7.9 4.4 3.3 6.5 5.3 6.9 6.6 18.3 7.9 26.6 3 1.4-.8 2.7-1.8 4.2-2 3.5-.4 6.2 3.1 9.4 4.5 8.7 3.8 17.6-8.1 27-6.5 5.4.9 9.6 6.2 15.1 6.1 5.3-.1 9.6-5.3 14.9-5.2 2.6 0 5.7 1.2 7.6-.6.4-.4.6-.8.8-1.3l-28.4-47.9z" style="opacity:.15;fill:url(#XMLID_90_)"/></g><g id="Calque_14"><g id="Calque_13"><linearGradient id="XMLID_113_" gradientUnits="userSpaceOnUse" x1="90.195" y1="69.044" x2="106.315" y2="69.044"><stop offset="0" style="stop-color:#fff;stop-opacity:0"/><stop offset="1" style="stop-color:#fff"/></linearGradient><path id="XMLID_47_" d="M90.3 51.5s-2.3 20.4 16 35c0 0 .4-25.2-16-35zm1.6 3.7C103.2 63 104.6 83 104.6 83 91.9 70.9 91.9 55.2 91.9 55.2z" style="opacity:.5;fill:url(#XMLID_113_)"/><radialGradient id="XMLID_114_" cx="98.301" cy="69.044" r="10.791" gradientUnits="userSpaceOnUse"><stop offset="0" style="stop-color:#959698"/><stop offset=".321" style="stop-color:#959697"/><stop offset=".542" style="stop-color:#939494"/><stop offset=".732" style="stop-color:#8f9090"/><stop offset=".903" style="stop-color:#89898a"/><stop offset="1" style="stop-color:#848484"/></radialGradient><path id="XMLID_41_" d="M91.9 55.2s0 15.8 12.7 27.8c.1-.1-1.4-20.1-12.7-27.8z" style="fill:url(#XMLID_114_)"/></g><g id="Calque_13_-_copie"><linearGradient id="XMLID_115_" gradientUnits="userSpaceOnUse" x1="113.706" y1="103.193" x2="129.825" y2="103.193" gradientTransform="rotate(-42.149 187.573 185.101)"><stop offset="0" style="stop-color:#fff;stop-opacity:0"/><stop offset="1" style="stop-color:#fff"/></linearGradient><path id="XMLID_36_" d="M66.2 160.9s12 16.6 35.4 15.2c-.1 0-16.8-19-35.4-15.2zm3.6 1.6c13.6-1.8 28 12 28 12-17.4-.3-28-12-28-12z" style="opacity:.5;fill:url(#XMLID_115_)"/><radialGradient id="XMLID_116_" cx="121.811" cy="103.193" r="10.791" gradientTransform="rotate(-42.149 187.573 185.101)" gradientUnits="userSpaceOnUse"><stop offset="0" style="stop-color:#959698"/><stop offset=".321" style="stop-color:#959697"/><stop offset=".542" style="stop-color:#939494"/><stop offset=".732" style="stop-color:#8f9090"/><stop offset=".903" style="stop-color:#89898a"/><stop offset="1" style="stop-color:#848484"/></radialGradient><path id="XMLID_35_" d="M69.8 162.5s10.5 11.7 28 12c.1 0-14.4-13.9-28-12z" style="fill:url(#XMLID_116_)"/></g><g id="Calque_13_-_copie_2"><linearGradient id="XMLID_117_" gradientUnits="userSpaceOnUse" x1="204.857" y1="176.718" x2="220.977" y2="176.718" gradientTransform="rotate(72.998 205.536 177.841)"><stop offset="0" style="stop-color:#fff;stop-opacity:0"/><stop offset="1" style="stop-color:#fff"/></linearGradient><path id="XMLID_6_" d="M223.2 171.8s-20.2 3.8-28.8 25.6c0 0 24.3-7.1 28.8-25.6zm-3 2.7c-4.1 13.1-22.8 20.3-22.8 20.3 7.7-15.8 22.8-20.3 22.8-20.3z" style="opacity:.5;fill:url(#XMLID_117_)"/><radialGradient id="XMLID_118_" cx="212.963" cy="176.718" r="10.791" gradientTransform="rotate(72.998 205.536 177.841)" gradientUnits="userSpaceOnUse"><stop offset="0" style="stop-color:#959698"/><stop offset=".321" style="stop-color:#959697"/><stop offset=".542" style="stop-color:#939494"/><stop offset=".732" style="stop-color:#8f9090"/><stop offset=".903" style="stop-color:#89898a"/><stop offset="1" style="stop-color:#848484"/></radialGradient><path id="XMLID_4_" d="M220.2 174.5s-15.1 4.6-22.8 20.3c0 0 18.7-7.3 22.8-20.3z" style="fill:url(#XMLID_118_)"/></g><g id="Calque_9"><radialGradient id="XMLID_119_" cx="108.672" cy="219.758" r="9.963" gradientUnits="userSpaceOnUse"><stop offset="0" style="stop-color:#959698"/><stop offset=".321" style="stop-color:#959697"/><stop offset=".542" style="stop-color:#939494"/><stop offset=".732" style="stop-color:#8f9090"/><stop offset=".903" style="stop-color:#89898a"/><stop offset="1" style="stop-color:#848484"/></radialGradient><path id="XMLID_19_" d="M103.5 232.8s7.8-19.9 10.4-26.2c0 0-2.7 22.5-3.2 26.2h-7.2z" style="fill:url(#XMLID_119_)"/><g id="XMLID_26_" class="st10"><linearGradient id="XMLID_120_" gradientUnits="userSpaceOnUse" x1="107.487" y1="232.858" x2="110.682" y2="232.858"><stop offset="0" style="stop-color:#fff"/><stop offset="1" style="stop-color:#fff;stop-opacity:0"/></linearGradient><path id="XMLID_27_" style="opacity:.5;fill:url(#XMLID_120_)" d="M110.7 232.9h-3.2z"/><linearGradient id="XMLID_121_" gradientUnits="userSpaceOnUse" x1="100.51" y1="217.718" x2="114.793" y2="217.718"><stop offset="0" style="stop-color:#fff;stop-opacity:0"/><stop offset="1" style="stop-color:#fff"/></linearGradient><path id="XMLID_28_" d="M114.8 202.6c-4 6.3-14.3 30.3-14.3 30.3h7-4s7.8-19.9 10.4-26.2c0 0-2.7 22.4-3.2 26.2h2.4c.7-3.8 1.7-30.3 1.7-30.3z" style="opacity:.5;fill:url(#XMLID_121_)"/></g></g><g id="Calque_9_-_copie"><radialGradient id="XMLID_122_" cx="257.139" cy="228.516" r="9.963" gradientTransform="matrix(-.6866 -1.1475 1.2049 -.7209 122.88 540.614)" gradientUnits="userSpaceOnUse"><stop offset="0" style="stop-color:#959698"/><stop offset=".321" style="stop-color:#959697"/><stop offset=".542" style="stop-color:#939494"/><stop offset=".732" style="stop-color:#8f9090"/><stop offset=".903" style="stop-color:#89898a"/><stop offset="1" style="stop-color:#848484"/></radialGradient><path id="XMLID_30_" d="M241 77.3s-29.4 5.4-38.7 7c0 0 28.9-13.1 33.8-15.3l4.9 8.3z" style="fill:url(#XMLID_122_)"/><g id="XMLID_24_" class="st10"><linearGradient id="XMLID_123_" gradientUnits="userSpaceOnUse" x1="255.954" y1="241.616" x2="259.149" y2="241.616" gradientTransform="matrix(-.6866 -1.1475 1.2049 -.7209 122.88 540.614)"><stop offset="0" style="stop-color:#fff"/><stop offset="1" style="stop-color:#fff;stop-opacity:0"/></linearGradient><path id="XMLID_29_" style="opacity:.5;fill:url(#XMLID_123_)" d="m236.1 69 2.2 3.7z"/><linearGradient id="XMLID_124_" gradientUnits="userSpaceOnUse" x1="248.977" y1="226.476" x2="263.26" y2="226.476" gradientTransform="matrix(-.6866 -1.1475 1.2049 -.7209 122.88 540.614)"><stop offset="0" style="stop-color:#fff;stop-opacity:0"/><stop offset="1" style="stop-color:#fff"/></linearGradient><path id="XMLID_25_" d="M196.8 86.2c10.3 0 46.3-5.4 46.3-5.4l-4.8-8 2.7 4.6s-29.4 5.4-38.7 7c0 0 28.9-13 33.7-15.3l-1.6-2.7c-5 1.8-37.6 19.8-37.6 19.8z" style="opacity:.5;fill:url(#XMLID_124_)"/></g></g></g><g id="border_1_"><path id="XMLID_32_" d="m270.4 119.3-50.5-85.1c-3.9-6.6-11.2-10.7-19.2-10.7l-101.2-.2c-7.9 0-15.2 4.1-19.2 10.7l-50.7 85.1c-3.9 6.7-3.9 14.9 0 21.6l50.5 85.1c3.9 6.6 11.2 10.7 19.2 10.7l101.2.2c7.9 0 15.2-4.1 19.2-10.7l50.7-85.1c3.9-6.7 3.9-14.9 0-21.6zm-12.6 20.4L212.4 216c-3.6 5.9-10.1 9.6-17.2 9.6l-90.6-.2c-7.1 0-13.6-3.7-17.2-9.6l-45.2-76.2c-3.5-6-3.5-13.3 0-19.3L87.6 44c3.6-6 10.1-9.6 17.2-9.6l90.6.2c7.1 0 13.6 3.7 17.2 9.6l45.2 76.2c3.5 6 3.5 13.4 0 19.3z" style="opacity:.3"/><path id="XMLID_55_" class="st17" d="M275.8 118.9 223 30.8c-4.1-6.8-11.7-11.1-20-11.1l-105.7-.2c-8.3 0-15.9 4.2-20.1 11.1l-52.9 88.1c-4.1 6.9-4.1 15.4 0 22.3L77 229.2c4.1 6.8 11.7 11.1 20 11.1l105.7.2c8.3 0 15.9-4.3 20.1-11.1l52.9-88.1c4.2-7 4.2-15.5.1-22.4zm-13.1 21.2-47.4 79c-3.7 6.1-10.6 10-18 10l-94.7-.2c-7.4 0-14.3-3.8-17.9-10l-47.3-79c-3.7-6.2-3.7-13.8 0-20l47.4-79c3.7-6.2 10.6-10 18-10l94.7.2c7.4 0 14.3 3.8 17.9 10l47.3 79c3.6 6.2 3.6 13.8 0 20z"/><path id="XMLID_16_" class="st17" d="m284.7 118-56.5-95.3c-4.4-7.4-12.6-12-21.4-12l-113.3-.2c-8.9 0-17.1 4.5-21.5 12l-56.7 95.3c-4.4 7.5-4.4 16.7 0 24.1l56.5 95.3c4.4 7.4 12.6 12 21.4 12l113.2.2c8.9 0 17.1-4.6 21.5-12l56.7-95.3c4.5-7.4 4.5-16.6.1-24.1zm-14 22.9-50.8 85.3c-4 6.6-11.3 10.8-19.3 10.8l-101.4-.2c-7.9 0-15.3-4.2-19.2-10.8l-50.6-85.3c-3.9-6.7-3.9-14.9 0-21.6l50.8-85.3c4-6.7 11.3-10.8 19.3-10.8l101.4.2c7.9 0 15.3 4.2 19.2 10.8l50.6 85.3c3.9 6.7 3.9 14.9 0 21.6z"/><radialGradient id="XMLID_125_" cx="150" cy="130" r="124.242" gradientUnits="userSpaceOnUse"><stop offset="0" style="stop-color:#d6d5d5"/><stop offset=".321" style="stop-color:#d4d3d2"/><stop offset=".542" style="stop-color:#cccaca"/><stop offset=".732" style="stop-color:#bebdbd"/><stop offset=".903" style="stop-color:#acabab"/><stop offset="1" style="stop-color:#9f9e9e"/></radialGradient><path id="XMLID_11_" d="m279.7 118.5-54.4-91.7c-4.2-7.1-12.1-11.6-20.6-11.6L95.6 15c-8.5 0-16.4 4.4-20.7 11.6l-54.6 91.7c-4.2 7.2-4.2 16 0 23.2l54.4 91.7c4.2 7.1 12.1 11.6 20.6 11.6l109 .2c8.5 0 16.4-4.5 20.7-11.6l54.6-91.7c4.3-7.2 4.3-16 .1-23.2zm-13.5 22-48.9 82.2c-3.9 6.4-10.9 10.4-18.6 10.4l-97.6-.2c-7.6 0-14.7-4-18.5-10.4l-48.7-82.2c-3.8-6.5-3.8-14.4 0-20.8l48.9-82.2C86.6 30.9 93.7 27 101.3 27l97.6.2c7.6 0 14.7 4 18.5 10.4l48.7 82.2c3.8 6.3 3.8 14.2.1 20.7z" style="fill:url(#XMLID_125_)"/><radialGradient id="XMLID_126_" cx="150" cy="130" r="124.242" gradientUnits="userSpaceOnUse"><stop offset=".877" style="stop-color:#fff;stop-opacity:0"/><stop offset="1" style="stop-color:#fff"/></radialGradient><path id="XMLID_2_" d="m279.7 118.5-54.4-91.7c-4.2-7.1-12.1-11.6-20.6-11.6L95.6 15c-8.5 0-16.4 4.4-20.7 11.6l-54.6 91.7c-4.2 7.2-4.2 16 0 23.2l54.4 91.7c4.2 7.1 12.1 11.6 20.6 11.6l109 .2c8.5 0 16.4-4.5 20.7-11.6l54.6-91.7c4.3-7.2 4.3-16 .1-23.2zm-13.5 22-48.9 82.2c-3.9 6.4-10.9 10.4-18.6 10.4l-97.6-.2c-7.6 0-14.7-4-18.5-10.4l-48.7-82.2c-3.8-6.5-3.8-14.4 0-20.8l48.9-82.2C86.6 30.9 93.7 27 101.3 27l97.6.2c7.6 0 14.7 4 18.5 10.4l48.7 82.2c3.8 6.3 3.8 14.2.1 20.7z" style="opacity:.6;fill:url(#XMLID_126_)"/></g></g><g id="Calque_16"><g id="Calque_15_-_copie"><radialGradient id="XMLID_127_" cx="85.993" cy="24.5" r="4.966" gradientUnits="userSpaceOnUse"><stop offset="0" style="stop-color:#959698"/><stop offset=".321" style="stop-color:#959697"/><stop offset=".542" style="stop-color:#939494"/><stop offset=".732" style="stop-color:#8f9090"/><stop offset=".903" style="stop-color:#89898a"/><stop offset="1" style="stop-color:#848484"/></radialGradient><circle id="XMLID_20_" cx="86" cy="24.5" r="5" style="fill:url(#XMLID_127_)"/><circle id="XMLID_21_" cx="86" cy="24.5" r="3" style="fill:#ccc"/><path id="XMLID_51_" class="st22" d="M86 21.9c-.9 0-1.7.5-2.2 1.2.4-.2.8-.4 1.3-.4 1.4 0 2.6 1.2 2.6 2.6 0 .5-.2 1.1-.4 1.5.8-.5 1.3-1.3 1.3-2.3 0-1.5-1.1-2.6-2.6-2.6z"/></g><g id="Calque_15"><path id="XMLID_1_" class="st23" d="m18.3 110.5 21.3 10.2-5.6 10.6 4.5 9.4-20.2 10.8-11.6-21.7z"/><radialGradient id="XMLID_128_" cx="23.25" cy="130.423" r="16.053" gradientUnits="userSpaceOnUse"><stop offset="0" style="stop-color:#c5b798"/><stop offset=".343" style="stop-color:#c2b495"/><stop offset=".578" style="stop-color:#bbac8c"/><stop offset=".78" style="stop-color:#b0a07f"/><stop offset=".964" style="stop-color:#a2916e"/><stop offset="1" style="stop-color:#9f8e6a"/></radialGradient><path id="XMLID_7_" style="fill:url(#XMLID_128_)" d="m18.9 112.8-.2 3.4-6.2 13-3.5.6 3 .9 6.5 13.4.4 4 1.5-3.5 11.2-5.5 3.4.5-3.1-2.2-2.4-5.9 2.6-.2-2.5-1.1 4.5-7 3.4-1.7-4.7.4-12.5-5.6z"/><linearGradient id="XMLID_129_" gradientUnits="userSpaceOnUse" x1="15.63" y1="114.723" x2="23.72" y2="128.735"><stop offset="0" style="stop-color:#fff"/><stop offset="1" style="stop-color:#fff;stop-opacity:0"/></linearGradient><path id="XMLID_9_" style="opacity:.5;fill:url(#XMLID_129_)" d="m18.9 112.8.1 3.5-6.5 13.8 9.4-.3 10.4-7-12.8-6.6z"/><path id="XMLID_38_" class="st26" d="m13.9 127.2-1.7 2.7H9.6l2.5.5 1.2 2.4-.8-2.7z"/><path id="XMLID_39_" class="st26" d="m17.7 140.9 1.2 3.2.1 3 .8-2.5 2.6-1.3-2.8.7z"/><path id="XMLID_40_" class="st26" d="m30.4 134.4 1 3.9-2.1 1.8 2.3-1.3 2.3.5L32 138z"/><path id="XMLID_18_" class="st26" d="m29.5 132.9-.3-1.6 2.2-.2-2-.8.9-2.1-1.8 2.6z"/><path id="XMLID_37_" class="st26" d="m36.4 121.8-3.4.6-3.2-.8 2.5 1.2-.5 2.8 1.3-2.8z"/><radialGradient id="XMLID_130_" cx="22.25" cy="130" r="4.966" gradientUnits="userSpaceOnUse"><stop offset="0" style="stop-color:#616263"/><stop offset=".321" style="stop-color:#606162"/><stop offset=".542" style="stop-color:#5c5d5e"/><stop offset=".732" style="stop-color:#565758"/><stop offset=".903" style="stop-color:#4e4f50"/><stop offset="1" style="stop-color:#48494a"/></radialGradient><circle id="XMLID_52_" cx="22.3" cy="130" r="5" style="fill:url(#XMLID_130_)"/><radialGradient id="XMLID_131_" cx="22.25" cy="130" r="2.959" gradientUnits="userSpaceOnUse"><stop offset="0" style="stop-color:#aeafaf"/><stop offset=".321" style="stop-color:#acacad"/><stop offset=".542" style="stop-color:#a5a5a6"/><stop offset=".732" style="stop-color:#999a9a"/><stop offset=".903" style="stop-color:#8a8a8a"/><stop offset="1" style="stop-color:#7e7f7f"/></radialGradient><circle id="XMLID_49_" cx="22.3" cy="130" r="3" style="fill:url(#XMLID_131_)"/><path id="XMLID_31_" class="st22" d="M22.3 127.4c-.9 0-1.7.5-2.2 1.2.4-.2.8-.4 1.3-.4 1.4 0 2.6 1.2 2.6 2.6 0 .5-.2 1.1-.4 1.5.8-.5 1.3-1.3 1.3-2.3 0-1.5-1.2-2.6-2.6-2.6z"/></g><g id="Calque_15_-_copie_3"><path id="XMLID_73_" class="st23" d="m281.1 110.5-21.2 10.2 5.5 10.6-4.5 9.4 20.2 10.8 11.6-21.7z"/><radialGradient id="XMLID_132_" cx="33.548" cy="130.423" r="16.053" gradientTransform="matrix(-1 0 0 1 309.703 0)" gradientUnits="userSpaceOnUse"><stop offset="0" style="stop-color:#c5b798"/><stop offset=".343" style="stop-color:#c2b495"/><stop offset=".578" style="stop-color:#bbac8c"/><stop offset=".78" style="stop-color:#b0a07f"/><stop offset=".964" style="stop-color:#a2916e"/><stop offset="1" style="stop-color:#9f8e6a"/></radialGradient><path id="XMLID_72_" style="fill:url(#XMLID_132_)" d="m280.5 112.8.2 3.4 6.2 13 3.5.6-3 .9-6.5 13.4-.4 4-1.5-3.5-11.2-5.5-3.4.5 3.1-2.2 2.4-5.9-2.5-.2 2.4-1.1-4.5-7-3.4-1.7 4.7.4 12.5-5.6z"/><linearGradient id="XMLID_133_" gradientUnits="userSpaceOnUse" x1="25.928" y1="114.723" x2="34.018" y2="128.735" gradientTransform="matrix(-1 0 0 1 309.703 0)"><stop offset="0" style="stop-color:#fff"/><stop offset="1" style="stop-color:#fff;stop-opacity:0"/></linearGradient><path id="XMLID_71_" style="opacity:.5;fill:url(#XMLID_133_)" d="m280.5 112.8-.1 3.5 6.5 13.8-9.4-.3-10.4-7 12.8-6.6z"/><path id="XMLID_70_" class="st26" d="m285.5 127.2 1.7 2.7h2.6l-2.5.5-1.2 2.4.8-2.7z"/><path id="XMLID_69_" class="st26" d="m281.7 140.9-1.2 3.2-.1 3-.8-2.5-2.6-1.3 2.8.7z"/><path id="XMLID_54_" class="st26" d="m269 134.4-1 3.9 2.1 1.8-2.3-1.3-2.3.5 1.9-1.3z"/><path id="XMLID_53_" class="st26" d="m269.9 132.9.3-1.6-2.2-.2 2-.8-.9-2.1 1.8 2.6z"/><path id="XMLID_50_" class="st26" d="m263 121.8 3.4.6 3.2-.8-2.5 1.2.5 2.8-1.3-2.8z"/><radialGradient id="XMLID_134_" cx="32.548" cy="130" r="4.966" gradientTransform="matrix(-1 0 0 1 309.703 0)" gradientUnits="userSpaceOnUse"><stop offset="0" style="stop-color:#616263"/><stop offset=".321" style="stop-color:#606162"/><stop offset=".542" style="stop-color:#5c5d5e"/><stop offset=".732" style="stop-color:#565758"/><stop offset=".903" style="stop-color:#4e4f50"/><stop offset="1" style="stop-color:#48494a"/></radialGradient><circle id="XMLID_44_" cx="277.2" cy="130" r="5" style="fill:url(#XMLID_134_)"/><radialGradient id="XMLID_135_" cx="32.548" cy="130" r="2.959" gradientTransform="matrix(-1 0 0 1 309.703 0)" gradientUnits="userSpaceOnUse"><stop offset="0" style="stop-color:#aeafaf"/><stop offset=".321" style="stop-color:#acacad"/><stop offset=".542" style="stop-color:#a5a5a6"/><stop offset=".732" style="stop-color:#999a9a"/><stop offset=".903" style="stop-color:#8a8a8a"/><stop offset="1" style="stop-color:#7e7f7f"/></radialGradient><circle id="XMLID_42_" cx="277.2" cy="130" r="3" style="fill:url(#XMLID_135_)"/><path id="XMLID_10_" class="st22" d="M277.1 127.4c.9 0 1.7.5 2.2 1.2-.4-.2-.8-.4-1.3-.4-1.4 0-2.6 1.2-2.6 2.6 0 .5.2 1.1.4 1.5-.8-.5-1.3-1.3-1.3-2.3 0-1.5 1.2-2.6 2.6-2.6z"/></g><g id="Calque_17"><g id="Calque_15_-_copie_4"><path id="XMLID_81_" class="st23" d="M198.2 9.5 196.4 33l12.1.5 5.8 8.5 19.5-12.2L220.7 9z"/><radialGradient id="XMLID_136_" cx="96.691" cy="25.311" r="16.053" gradientTransform="scale(-1 1) rotate(60.243 -56.761 -242.414)" gradientUnits="userSpaceOnUse"><stop offset="0" style="stop-color:#c5b798"/><stop offset=".343" style="stop-color:#c2b495"/><stop offset=".578" style="stop-color:#bbac8c"/><stop offset=".78" style="stop-color:#b0a07f"/><stop offset=".964" style="stop-color:#a2916e"/><stop offset="1" style="stop-color:#9f8e6a"/></radialGradient><path id="XMLID_80_" style="fill:url(#XMLID_136_)" d="m199.8 11.2 3.2 1.4 14.3 1.1 2.2-2.7-.7 3 8.5 12.4 3.2 2.3-3.8-.4-10.3 6.9-1.2 3.2-.4-3.8-4-5-1.4 2.2.3-2.7-8.3.4-3.2 2.1 2.6-3.9 1.5-13.6z"/><linearGradient id="XMLID_137_" gradientUnits="userSpaceOnUse" x1="89.071" y1="9.612" x2="97.161" y2="23.624" gradientTransform="scale(-1 1) rotate(60.243 -56.761 -242.414)"><stop offset="0" style="stop-color:#fff"/><stop offset="1" style="stop-color:#fff;stop-opacity:0"/></linearGradient><path id="XMLID_79_" style="opacity:.5;fill:url(#XMLID_137_)" d="m199.9 11.2 2.9 1.8 15.2 1.2-4.8 8-11.2 5.5.5-14.3z"/><path id="XMLID_78_" class="st26" d="m214.9 14 3.1-.2 1.3-2.2-.8 2.4 1.5 2.2-2-2z"/><path id="XMLID_77_" class="st26" d="m224.9 24 2.1 2.7 2.6 1.6-2.6-.6-2.4 1.6 2-2z"/><path id="XMLID_76_" class="st26" d="m212.9 31.8 2.9 2.8 2.6-.9-2.3 1.3-.7 2.3-.1-2.3z"/><path id="XMLID_75_" class="st26" d="m212 30.4-1.1-1.1-1.4 1.8.3-2.1-2.2-.3 3.1-.2z"/><path id="XMLID_74_" class="st26" d="m199 30.8 2.2-2.7.9-3.1-.1 2.7 2.6 1-3.1-.2z"/><radialGradient id="XMLID_138_" cx="95.691" cy="24.889" r="4.966" gradientTransform="scale(-1 1) rotate(60.243 -56.761 -242.414)" gradientUnits="userSpaceOnUse"><stop offset="0" style="stop-color:#616263"/><stop offset=".321" style="stop-color:#606162"/><stop offset=".542" style="stop-color:#5c5d5e"/><stop offset=".732" style="stop-color:#565758"/><stop offset=".903" style="stop-color:#4e4f50"/><stop offset="1" style="stop-color:#48494a"/></radialGradient><circle id="XMLID_65_" cx="213.1" cy="22.6" r="5" style="fill:url(#XMLID_138_)"/><radialGradient id="XMLID_139_" cx="95.691" cy="24.889" r="2.959" gradientTransform="scale(-1 1) rotate(60.243 -56.761 -242.414)" gradientUnits="userSpaceOnUse"><stop offset="0" style="stop-color:#aeafaf"/><stop offset=".321" style="stop-color:#acacad"/><stop offset=".542" style="stop-color:#a5a5a6"/><stop offset=".732" style="stop-color:#999a9a"/><stop offset=".903" style="stop-color:#8a8a8a"/><stop offset="1" style="stop-color:#7e7f7f"/></radialGradient><circle id="XMLID_64_" cx="213.1" cy="22.6" r="3" style="fill:url(#XMLID_139_)"/><path id="XMLID_63_" class="st22" d="M210.8 21.3c.4-.8 1.2-1.3 2.1-1.3-.4.2-.7.5-.9.9-.7 1.3-.3 2.9 1 3.6.5.3 1 .4 1.5.3-.8.5-1.8.5-2.6 0-1.4-.6-1.8-2.2-1.1-3.5z"/></g><g id="Calque_15_-_copie_5"><path id="XMLID_89_" class="st23" d="m102 9.5 1.8 23.5-12 .5-5.9 8.5-19.5-12.2L79.5 9z"/><radialGradient id="XMLID_140_" cx="32.167" cy="138.168" r="16.053" gradientTransform="rotate(60.243 158.36 128.368)" gradientUnits="userSpaceOnUse"><stop offset="0" style="stop-color:#c5b798"/><stop offset=".343" style="stop-color:#c2b495"/><stop offset=".578" style="stop-color:#bbac8c"/><stop offset=".78" style="stop-color:#b0a07f"/><stop offset=".964" style="stop-color:#a2916e"/><stop offset="1" style="stop-color:#9f8e6a"/></radialGradient><path id="XMLID_88_" style="fill:url(#XMLID_140_)" d="m100.4 11.2-3.1 1.4-14.4 1.1-2.2-2.7.7 3L73 26.4l-3.3 2.3 3.8-.4 10.3 6.9 1.2 3.2.4-3.8 4-5 1.4 2.2-.2-2.7 8.3.4 3.1 2.1-2.6-3.9L98 14.1z"/><linearGradient id="XMLID_141_" gradientUnits="userSpaceOnUse" x1="24.547" y1="122.469" x2="32.637" y2="136.481" gradientTransform="rotate(60.243 158.36 128.368)"><stop offset="0" style="stop-color:#fff"/><stop offset="1" style="stop-color:#fff;stop-opacity:0"/></linearGradient><path id="XMLID_87_" style="opacity:.5;fill:url(#XMLID_141_)" d="m100.4 11.2-3 1.8-15.2 1.2 4.9 8 11.2 5.5-.6-14.3z"/><path id="XMLID_86_" class="st26" d="m85.3 14-3.1-.2-1.3-2.2.8 2.4-1.5 2.2 2-2z"/><path id="XMLID_85_" class="st26" d="m75.3 24-2.1 2.7-2.6 1.6 2.6-.6 2.4 1.6-2-2z"/><path id="XMLID_84_" class="st26" d="m87.3 31.8-2.9 2.8-2.6-.9 2.3 1.3.7 2.3.1-2.3z"/><path id="XMLID_83_" class="st26" d="m88.2 30.4 1.2-1.1 1.3 1.8-.3-2.1 2.2-.3-3.1-.2z"/><path id="XMLID_82_" class="st26" d="M101.2 30.8 99 28.1l-.8-3.1.1 2.7-2.7 1 3.1-.2z"/><radialGradient id="XMLID_142_" cx="31.167" cy="137.745" r="4.966" gradientTransform="rotate(60.243 158.36 128.368)" gradientUnits="userSpaceOnUse"><stop offset="0" style="stop-color:#616263"/><stop offset=".321" style="stop-color:#606162"/><stop offset=".542" style="stop-color:#5c5d5e"/><stop offset=".732" style="stop-color:#565758"/><stop offset=".903" style="stop-color:#4e4f50"/><stop offset="1" style="stop-color:#48494a"/></radialGradient><circle id="XMLID_68_" cx="87.1" cy="22.6" r="5" style="fill:url(#XMLID_142_)"/><radialGradient id="XMLID_143_" cx="31.167" cy="137.745" r="2.959" gradientTransform="rotate(60.243 158.36 128.368)" gradientUnits="userSpaceOnUse"><stop offset="0" style="stop-color:#aeafaf"/><stop offset=".321" style="stop-color:#acacad"/><stop offset=".542" style="stop-color:#a5a5a6"/><stop offset=".732" style="stop-color:#999a9a"/><stop offset=".903" style="stop-color:#8a8a8a"/><stop offset="1" style="stop-color:#7e7f7f"/></radialGradient><circle id="XMLID_67_" cx="87.1" cy="22.6" r="3" style="fill:url(#XMLID_143_)"/><path id="XMLID_66_" class="st22" d="M89.4 21.3c-.4-.8-1.2-1.3-2.1-1.3.4.2.7.5.9.9.7 1.3.3 2.9-1 3.6-.5.3-1 .4-1.5.3.8.5 1.8.5 2.6 0 1.4-.6 1.8-2.2 1.1-3.5z"/></g></g><g id="Calque_17_-_copie"><g id="Calque_15_-_copie_6_1_"><path id="XMLID_111_" class="st23" d="m198.2 250.5-1.8-23.5 12.1-.5 5.8-8.5 19.5 12.2-13.1 20.8z"/><radialGradient id="XMLID_144_" cx="-84.749" cy="-78.423" r="16.053" gradientTransform="scale(-1) rotate(60.243 -12.819 -267.908)" gradientUnits="userSpaceOnUse"><stop offset="0" style="stop-color:#c5b798"/><stop offset=".343" style="stop-color:#c2b495"/><stop offset=".578" style="stop-color:#bbac8c"/><stop offset=".78" style="stop-color:#b0a07f"/><stop offset=".964" style="stop-color:#a2916e"/><stop offset="1" style="stop-color:#9f8e6a"/></radialGradient><path id="XMLID_110_" style="fill:url(#XMLID_144_)" d="m199.8 248.8 3.2-1.5 14.3-1 2.2 2.7-.7-3.1 8.5-12.3 3.2-2.3-3.8.4-10.3-6.9-1.2-3.3-.4 3.8-4 5-1.4-2.1.3 2.7-8.3-.4-3.2-2.1 2.6 3.9 1.5 13.6z"/><linearGradient id="XMLID_145_" gradientUnits="userSpaceOnUse" x1="-92.368" y1="-94.123" x2="-84.278" y2="-80.111" gradientTransform="scale(-1) rotate(60.243 -12.819 -267.908)"><stop offset="0" style="stop-color:#fff"/><stop offset="1" style="stop-color:#fff;stop-opacity:0"/></linearGradient><path id="XMLID_109_" style="opacity:.5;fill:url(#XMLID_145_)" d="m199.9 248.8 2.9-1.8 15.2-1.2-4.8-8-11.2-5.6.5 14.4z"/><path id="XMLID_108_" class="st26" d="m214.9 246 3.1.2 1.3 2.2-.8-2.4 1.5-2.2-2 2z"/><path id="XMLID_107_" class="st26" d="m224.9 236 2.1-2.7 2.6-1.6-2.6.6-2.4-1.7 2 2.1z"/><path id="XMLID_106_" class="st26" d="m212.9 228.1 2.9-2.8 2.6 1-2.3-1.4-.7-2.2-.1 2.2z"/><path id="XMLID_105_" class="st26" d="m212 229.6-1.1 1.1-1.4-1.8.3 2.1-2.2.3 3.1.2z"/><path id="XMLID_104_" class="st26" d="m199 229.2 2.2 2.7.9 3.1-.1-2.8 2.6-.9-3.1.2z"/><radialGradient id="XMLID_146_" cx="-85.749" cy="-78.846" r="4.966" gradientTransform="scale(-1) rotate(60.243 -12.819 -267.908)" gradientUnits="userSpaceOnUse"><stop offset="0" style="stop-color:#616263"/><stop offset=".321" style="stop-color:#606162"/><stop offset=".542" style="stop-color:#5c5d5e"/><stop offset=".732" style="stop-color:#565758"/><stop offset=".903" style="stop-color:#4e4f50"/><stop offset="1" style="stop-color:#48494a"/></radialGradient><circle id="XMLID_103_" cx="213.1" cy="237.4" r="5" style="fill:url(#XMLID_146_)"/><radialGradient id="XMLID_147_" cx="-85.749" cy="-78.846" r="2.959" gradientTransform="scale(-1) rotate(60.243 -12.819 -267.908)" gradientUnits="userSpaceOnUse"><stop offset="0" style="stop-color:#aeafaf"/><stop offset=".321" style="stop-color:#acacad"/><stop offset=".542" style="stop-color:#a5a5a6"/><stop offset=".732" style="stop-color:#999a9a"/><stop offset=".903" style="stop-color:#8a8a8a"/><stop offset="1" style="stop-color:#7e7f7f"/></radialGradient><circle id="XMLID_102_" cx="213.1" cy="237.4" r="3" style="fill:url(#XMLID_147_)"/><path id="XMLID_101_" class="st22" d="M210.8 238.7c.4.8 1.2 1.3 2.1 1.3-.4-.2-.7-.5-.9-.9-.7-1.3-.3-2.9 1-3.6.5-.3 1-.4 1.5-.3-.8-.5-1.8-.5-2.6 0-1.4.6-1.8 2.2-1.1 3.5z"/></g><g id="Calque_15_-_copie_6"><path id="XMLID_112_" class="st23" d="m102 250.5 1.8-23.5-12-.5-5.9-8.5-19.5 12.2L79.5 251z"/><radialGradient id="XMLID_148_" cx="-149.272" cy="34.434" r="16.053" gradientTransform="scale(1 -1) rotate(60.243 202.302 102.873)" gradientUnits="userSpaceOnUse"><stop offset="0" style="stop-color:#c5b798"/><stop offset=".343" style="stop-color:#c2b495"/><stop offset=".578" style="stop-color:#bbac8c"/><stop offset=".78" style="stop-color:#b0a07f"/><stop offset=".964" style="stop-color:#a2916e"/><stop offset="1" style="stop-color:#9f8e6a"/></radialGradient><path id="XMLID_100_" style="fill:url(#XMLID_148_)" d="m100.4 248.8-3.1-1.5-14.4-1-2.2 2.7.7-3.1-8.4-12.3-3.3-2.3 3.8.4 10.3-6.9 1.2-3.3.4 3.8 4 5 1.4-2.1-.2 2.7 8.3-.4 3.1-2.1-2.6 3.9-1.4 13.6z"/><linearGradient id="XMLID_149_" gradientUnits="userSpaceOnUse" x1="-156.892" y1="18.734" x2="-148.802" y2="32.746" gradientTransform="scale(1 -1) rotate(60.243 202.302 102.873)"><stop offset="0" style="stop-color:#fff"/><stop offset="1" style="stop-color:#fff;stop-opacity:0"/></linearGradient><path id="XMLID_99_" style="opacity:.5;fill:url(#XMLID_149_)" d="m100.4 248.8-3-1.8-15.2-1.2 4.9-8 11.2-5.6-.6 14.4z"/><path id="XMLID_98_" class="st26" d="m85.3 246-3.1.2-1.3 2.2.8-2.4-1.5-2.2 2 2z"/><path id="XMLID_97_" class="st26" d="m75.3 236-2.1-2.7-2.6-1.6 2.6.6 2.4-1.7-2 2.1z"/><path id="XMLID_96_" class="st26" d="m87.3 228.1-2.9-2.8-2.6 1 2.3-1.4.7-2.2.1 2.2z"/><path id="XMLID_95_" class="st26" d="m88.2 229.6 1.2 1.1 1.3-1.8-.3 2.1 2.2.3-3.1.2z"/><path id="XMLID_94_" class="st26" d="m101.2 229.2-2.2 2.7-.8 3.1.1-2.8-2.7-.9 3.1.2z"/><radialGradient id="XMLID_150_" cx="-150.272" cy="34.011" r="4.966" gradientTransform="scale(1 -1) rotate(60.243 202.302 102.873)" gradientUnits="userSpaceOnUse"><stop offset="0" style="stop-color:#616263"/><stop offset=".321" style="stop-color:#606162"/><stop offset=".542" style="stop-color:#5c5d5e"/><stop offset=".732" style="stop-color:#565758"/><stop offset=".903" style="stop-color:#4e4f50"/><stop offset="1" style="stop-color:#48494a"/></radialGradient><circle id="XMLID_93_" cx="87.1" cy="237.4" r="5" style="fill:url(#XMLID_150_)"/><radialGradient id="XMLID_151_" cx="-150.272" cy="34.011" r="2.959" gradientTransform="scale(1 -1) rotate(60.243 202.302 102.873)" gradientUnits="userSpaceOnUse"><stop offset="0" style="stop-color:#aeafaf"/><stop offset=".321" style="stop-color:#acacad"/><stop offset=".542" style="stop-color:#a5a5a6"/><stop offset=".732" style="stop-color:#999a9a"/><stop offset=".903" style="stop-color:#8a8a8a"/><stop offset="1" style="stop-color:#7e7f7f"/></radialGradient><circle id="XMLID_92_" cx="87.1" cy="237.4" r="3" style="fill:url(#XMLID_151_)"/><path id="XMLID_91_" class="st22" d="M89.4 238.7c-.4.8-1.2 1.3-2.1 1.3.4-.2.7-.5.9-.9.7-1.3.3-2.9-1-3.6-.5-.3-1-.4-1.5-.3.8-.5 1.8-.5 2.6 0 1.4.6 1.8 2.2 1.1 3.5z"/></g></g></g></svg>