<?xml version="1.0" encoding="utf-8"?>
<!-- Generator: Adobe Illustrator 19.0.0, SVG Export Plug-In . SVG Version: 6.00 Build 0)  -->
<svg version="1.0" id="diamond_1_" xmlns="http://www.w3.org/2000/svg" xmlns:xlink="http://www.w3.org/1999/xlink" x="0px" y="0px" width="300px" height="260px"
	 viewBox="0 0 300 260" style="enable-background:new 0 0 300 260;" xml:space="preserve">
<style type="text/css">
	.st0{fill:#353535;}
	.st1{fill:#FFFFFF;}
	.st2{display:none;fill:url(#XMLID_4_);}
	.st3{opacity:0.35;fill:url(#XMLID_8_);}
	.st4{opacity:0.5;fill:url(#XMLID_11_);}
	.st5{opacity:0.5;fill:url(#XMLID_12_);}
	.st6{opacity:0.35;fill:url(#XMLID_13_);}
	.st7{opacity:0.35;fill:url(#XMLID_14_);}
	.st8{opacity:0.35;fill:url(#XMLID_15_);}
	.st9{opacity:0.5;fill:url(#XMLID_16_);}
	.st10{opacity:0.5;fill:url(#XMLID_17_);}
</style>
<path id="XMLID_10_" class="st0" d="M202.1,107.2l-12.8-20.5c-0.9-1.4-2.5-2.3-4.2-2.3l-64,0.1c-1.7,0-3.2,0.8-4.1,2.2l-13.5,20.5
	c-1.1,1.7-1,3.8,0.2,5.4l45.1,60.3c1.9,2.6,5.9,2.6,7.8,0l45.2-60.4C203,111,203.1,108.9,202.1,107.2z M152.8,168.3l-41.6-56.8
	l13.6-21.2l56.6-0.1l13,21.3L152.8,168.3z"/>
<path id="XMLID_7_" class="st1" d="M195.6,108.8l-11.2-18.2c-0.8-1.3-2.1-2-3.6-2l-55.7,0.1c-1.4,0-2.8,0.7-3.6,1.9L110,108.8
	c-0.9,1.5-0.9,3.4,0.1,4.8l39.2,53.6c1.7,2.3,5.1,2.3,6.8,0l39.3-53.6C196.5,112.1,196.5,110.3,195.6,108.8z M152.8,168.3
	l-41.6-56.8l13.6-21.2l56.6-0.1l13,21.3L152.8,168.3z"/>
<radialGradient id="XMLID_4_" cx="152.75" cy="129.2917" r="40.3659" gradientUnits="userSpaceOnUse">
	<stop  offset="0" style="stop-color:#8C3293"/>
	<stop  offset="0.665" style="stop-color:#D84F9C"/>
	<stop  offset="1" style="stop-color:#D84698"/>
</radialGradient>
<polygon id="XMLID_2_" class="st2" points="194.4,111.5 152.8,168.3 111.1,111.5 124.7,90.3 181.4,90.3 "/>
<linearGradient id="XMLID_8_" gradientUnits="userSpaceOnUse" x1="153.2651" y1="112.25" x2="153.2651" y2="166.3491">
	<stop  offset="0" style="stop-color:#F6A8CA"/>
	<stop  offset="9.993196e-002" style="stop-color:#F7BAD5;stop-opacity:0.9001"/>
	<stop  offset="0.2547" style="stop-color:#FAD2E4;stop-opacity:0.7453"/>
	<stop  offset="0.417" style="stop-color:#FCE5EF;stop-opacity:0.583"/>
	<stop  offset="0.588" style="stop-color:#FEF2F7;stop-opacity:0.412"/>
	<stop  offset="0.7736" style="stop-color:#FFFBFC;stop-opacity:0.2264"/>
	<stop  offset="1" style="stop-color:#FFFFFF;stop-opacity:0"/>
</linearGradient>
<polygon id="XMLID_189_" class="st3" points="130.7,112.3 175.8,112.3 152,166.3 "/>
<linearGradient id="XMLID_11_" gradientUnits="userSpaceOnUse" x1="132.7906" y1="112.25" x2="132.7906" y2="166.3491">
	<stop  offset="0" style="stop-color:#71294E"/>
	<stop  offset="1" style="stop-color:#72294F;stop-opacity:0"/>
</linearGradient>
<polygon id="XMLID_188_" class="st4" points="128.9,112.3 113.8,112.3 151.8,166.3 "/>
<linearGradient id="XMLID_12_" gradientUnits="userSpaceOnUse" x1="215.7399" y1="112.25" x2="215.7399" y2="166.3491" gradientTransform="matrix(-1 0 0 1 388.796 0)">
	<stop  offset="0" style="stop-color:#71294E"/>
	<stop  offset="1" style="stop-color:#72294F;stop-opacity:0"/>
</linearGradient>
<polygon id="XMLID_194_" class="st5" points="176.9,112.3 192,112.3 154.1,166.3 "/>
<linearGradient id="XMLID_13_" gradientUnits="userSpaceOnUse" x1="153.2465" y1="111.25" x2="153.2465" y2="90.9167">
	<stop  offset="0" style="stop-color:#F6A8CA"/>
	<stop  offset="9.993196e-002" style="stop-color:#F7BAD5;stop-opacity:0.9001"/>
	<stop  offset="0.2547" style="stop-color:#FAD2E4;stop-opacity:0.7453"/>
	<stop  offset="0.417" style="stop-color:#FCE5EF;stop-opacity:0.583"/>
	<stop  offset="0.588" style="stop-color:#FEF2F7;stop-opacity:0.412"/>
	<stop  offset="0.7736" style="stop-color:#FFFBFC;stop-opacity:0.2264"/>
	<stop  offset="1" style="stop-color:#FFFFFF;stop-opacity:0"/>
</linearGradient>
<polygon id="XMLID_192_" class="st6" points="131.9,111.3 153.2,90.9 174.6,111.3 "/>
<linearGradient id="XMLID_14_" gradientUnits="userSpaceOnUse" x1="137.5313" y1="109.6648" x2="137.5313" y2="91.5">
	<stop  offset="0" style="stop-color:#F5A8CA"/>
	<stop  offset="2.340972e-002" style="stop-color:#F6AECD;stop-opacity:0.9766"/>
	<stop  offset="0.1264" style="stop-color:#F9C7DC;stop-opacity:0.8736"/>
	<stop  offset="0.2394" style="stop-color:#FBDBE9;stop-opacity:0.7606"/>
	<stop  offset="0.3644" style="stop-color:#FDEAF2;stop-opacity:0.6356"/>
	<stop  offset="0.5076" style="stop-color:#FEF4F8;stop-opacity:0.4924"/>
	<stop  offset="0.6849" style="stop-color:#FFFCFD;stop-opacity:0.3151"/>
	<stop  offset="1" style="stop-color:#FFFFFF;stop-opacity:0"/>
</linearGradient>
<polygon id="XMLID_193_" class="st7" points="125.1,91.5 131.4,109.7 150,91.5 "/>
<linearGradient id="XMLID_15_" gradientUnits="userSpaceOnUse" x1="180.8958" y1="109.6648" x2="180.8958" y2="91.5" gradientTransform="matrix(-1 0 0 1 349.1667 0)">
	<stop  offset="0" style="stop-color:#F5A8CA"/>
	<stop  offset="2.340972e-002" style="stop-color:#F6AECD;stop-opacity:0.9766"/>
	<stop  offset="0.1264" style="stop-color:#F9C7DC;stop-opacity:0.8736"/>
	<stop  offset="0.2394" style="stop-color:#FBDBE9;stop-opacity:0.7606"/>
	<stop  offset="0.3644" style="stop-color:#FDEAF2;stop-opacity:0.6356"/>
	<stop  offset="0.5076" style="stop-color:#FEF4F8;stop-opacity:0.4924"/>
	<stop  offset="0.6849" style="stop-color:#FFFCFD;stop-opacity:0.3151"/>
	<stop  offset="1" style="stop-color:#FFFFFF;stop-opacity:0"/>
</linearGradient>
<polygon id="XMLID_195_" class="st8" points="180.7,91.5 174.4,109.7 155.8,91.5 "/>
<linearGradient id="XMLID_16_" gradientUnits="userSpaceOnUse" x1="112.3333" y1="101.375" x2="129.8333" y2="101.375">
	<stop  offset="0" style="stop-color:#71294E"/>
	<stop  offset="1" style="stop-color:#72294F;stop-opacity:0"/>
</linearGradient>
<polygon id="XMLID_196_" class="st9" points="124.7,91.5 129.8,111.3 112.3,111.3 "/>
<linearGradient id="XMLID_17_" gradientUnits="userSpaceOnUse" x1="177.4813" y1="101.375" x2="194.9813" y2="101.375" gradientTransform="matrix(-1 0 0 1 371.296 0)">
	<stop  offset="0" style="stop-color:#71294E"/>
	<stop  offset="1" style="stop-color:#72294F;stop-opacity:0"/>
</linearGradient>
<polygon id="XMLID_197_" class="st10" points="181.5,91.5 176.3,111.3 193.8,111.3 "/>
</svg>
