<svg version="1.0" xmlns="http://www.w3.org/2000/svg" width="300" height="260" style="enable-background:new 0 0 300 260" xml:space="preserve"><path d="m202.1 107.2-12.8-20.5c-.9-1.4-2.5-2.3-4.2-2.3l-64 .1c-1.7 0-3.2.8-4.1 2.2l-13.5 20.5c-1.1 1.7-1 3.8.2 5.4l45.1 60.3c1.9 2.6 5.9 2.6 7.8 0l45.2-60.4c1.2-1.5 1.3-3.6.3-5.3zm-49.3 61.1-41.6-56.8 13.6-21.2 56.6-.1 13 21.3-41.6 56.8z" style="fill:#353535"/><path d="m195.6 108.8-11.2-18.2c-.8-1.3-2.1-2-3.6-2l-55.7.1c-1.4 0-2.8.7-3.6 1.9L110 108.8c-.9 1.5-.9 3.4.1 4.8l39.2 53.6c1.7 2.3 5.1 2.3 6.8 0l39.3-53.6c1.1-1.5 1.1-3.3.2-4.8zm-42.8 59.5-41.6-56.8 13.6-21.2 56.6-.1 13 21.3-41.6 56.8z" style="fill:#fff"/><radialGradient id="a" cx="152.75" cy="129.292" r="40.366" gradientUnits="userSpaceOnUse"><stop offset="0" style="stop-color:#8c3293"/><stop offset=".665" style="stop-color:#d84f9c"/><stop offset="1" style="stop-color:#d84698"/></radialGradient><linearGradient id="b" gradientUnits="userSpaceOnUse" x1="153.265" y1="112.25" x2="153.265" y2="166.349"><stop offset="0" style="stop-color:#f6a8ca"/><stop offset=".1" style="stop-color:#f7bad5;stop-opacity:.9001"/><stop offset=".255" style="stop-color:#fad2e4;stop-opacity:.7453"/><stop offset=".417" style="stop-color:#fce5ef;stop-opacity:.583"/><stop offset=".588" style="stop-color:#fef2f7;stop-opacity:.412"/><stop offset=".774" style="stop-color:#fffbfc;stop-opacity:.2264"/><stop offset="1" style="stop-color:#fff;stop-opacity:0"/></linearGradient><path style="opacity:.35;fill:url(#b)" d="M130.7 112.3h45.1l-23.8 54z"/><linearGradient id="c" gradientUnits="userSpaceOnUse" x1="132.791" y1="112.25" x2="132.791" y2="166.349"><stop offset="0" style="stop-color:#71294e"/><stop offset="1" style="stop-color:#72294f;stop-opacity:0"/></linearGradient><path style="opacity:.5;fill:url(#c)" d="M128.9 112.3h-15.1l38 54z"/><linearGradient id="d" gradientUnits="userSpaceOnUse" x1="215.74" y1="112.25" x2="215.74" y2="166.349" gradientTransform="matrix(-1 0 0 1 388.796 0)"><stop offset="0" style="stop-color:#71294e"/><stop offset="1" style="stop-color:#72294f;stop-opacity:0"/></linearGradient><path style="opacity:.5;fill:url(#d)" d="M176.9 112.3H192l-37.9 54z"/><linearGradient id="e" gradientUnits="userSpaceOnUse" x1="153.246" y1="111.25" x2="153.246" y2="90.917"><stop offset="0" style="stop-color:#f6a8ca"/><stop offset=".1" style="stop-color:#f7bad5;stop-opacity:.9001"/><stop offset=".255" style="stop-color:#fad2e4;stop-opacity:.7453"/><stop offset=".417" style="stop-color:#fce5ef;stop-opacity:.583"/><stop offset=".588" style="stop-color:#fef2f7;stop-opacity:.412"/><stop offset=".774" style="stop-color:#fffbfc;stop-opacity:.2264"/><stop offset="1" style="stop-color:#fff;stop-opacity:0"/></linearGradient><path style="opacity:.35;fill:url(#e)" d="m131.9 111.3 21.3-20.4 21.4 20.4z"/><linearGradient id="f" gradientUnits="userSpaceOnUse" x1="137.531" y1="109.665" x2="137.531" y2="91.5"><stop offset="0" style="stop-color:#f5a8ca"/><stop offset=".023" style="stop-color:#f6aecd;stop-opacity:.9766"/><stop offset=".126" style="stop-color:#f9c7dc;stop-opacity:.8736"/><stop offset=".239" style="stop-color:#fbdbe9;stop-opacity:.7606"/><stop offset=".364" style="stop-color:#fdeaf2;stop-opacity:.6356"/><stop offset=".508" style="stop-color:#fef4f8;stop-opacity:.4924"/><stop offset=".685" style="stop-color:#fffcfd;stop-opacity:.3151"/><stop offset="1" style="stop-color:#fff;stop-opacity:0"/></linearGradient><path style="opacity:.35;fill:url(#f)" d="m125.1 91.5 6.3 18.2L150 91.5z"/><linearGradient id="g" gradientUnits="userSpaceOnUse" x1="180.896" y1="109.665" x2="180.896" y2="91.5" gradientTransform="matrix(-1 0 0 1 349.167 0)"><stop offset="0" style="stop-color:#f5a8ca"/><stop offset=".023" style="stop-color:#f6aecd;stop-opacity:.9766"/><stop offset=".126" style="stop-color:#f9c7dc;stop-opacity:.8736"/><stop offset=".239" style="stop-color:#fbdbe9;stop-opacity:.7606"/><stop offset=".364" style="stop-color:#fdeaf2;stop-opacity:.6356"/><stop offset=".508" style="stop-color:#fef4f8;stop-opacity:.4924"/><stop offset=".685" style="stop-color:#fffcfd;stop-opacity:.3151"/><stop offset="1" style="stop-color:#fff;stop-opacity:0"/></linearGradient><path style="opacity:.35;fill:url(#g)" d="m180.7 91.5-6.3 18.2-18.6-18.2z"/><linearGradient id="h" gradientUnits="userSpaceOnUse" x1="112.333" y1="101.375" x2="129.833" y2="101.375"><stop offset="0" style="stop-color:#71294e"/><stop offset="1" style="stop-color:#72294f;stop-opacity:0"/></linearGradient><path style="opacity:.5;fill:url(#h)" d="m124.7 91.5 5.1 19.8h-17.5z"/><linearGradient id="i" gradientUnits="userSpaceOnUse" x1="177.481" y1="101.375" x2="194.981" y2="101.375" gradientTransform="matrix(-1 0 0 1 371.296 0)"><stop offset="0" style="stop-color:#71294e"/><stop offset="1" style="stop-color:#72294f;stop-opacity:0"/></linearGradient><path style="opacity:.5;fill:url(#i)" d="m181.5 91.5-5.2 19.8h17.5z"/></svg>