<svg version="1.0" xmlns="http://www.w3.org/2000/svg" width="300" height="260" style="enable-background:new 0 0 300 260" xml:space="preserve"><style>.st4,.st7{fill:none;stroke:#fff;stroke-width:4;stroke-miterlimit:10}.st7{stroke-width:2}</style><g id="Calque_1_-_copie"><path id="XMLID_8_" d="M199.5 161.8c-1.5-3.8-9.7-24.1-11.3-27.9-.3-.8-.7-1.4-1.3-2-.7-.7-1.9-1.5-3.5-1.6-5-.4-7.4-.4-8.6-1.1-1.2-.7-1.2-2.2-.8-4.1.3-1.7 1.5-13 1.8-15.8v-1.4c-.4-3.7-2.9-19.9-14.6-25.7-4.1-2-18.3-2-22.4 0-11.7 5.8-14.2 22-14.6 25.7-.1.5-.1.9 0 1.4.3 2.8 1.5 14.2 1.8 15.8.4 1.9.4 3.4-.8 4.1-1.2.7-3.5.7-8.6 1.1-1.6.1-2.8.9-3.5 1.6-.6.6-1 1.3-1.3 2-1.5 3.8-9.8 24-11.3 27.9-1.6 4.2-.9 8.2 2.3 11.5 1.6 1.6 5.5 2 8.9 1.9 3.5-.1 6.3-3.1 6.1-6.6-.5-7.9-1.3-20.8-1.4-22.7-.1-1.7 1.2-2.5 2.2-2.8.6-.2 1.2-.3 1.8-.3h59.2c.6 0 1.2.1 1.8.3 1.1.3 2.4 1.1 2.2 2.8-.1 1.9-.9 14.9-1.4 22.7-.2 3.5 2.6 6.6 6.1 6.6 3.5.1 7.3-.3 8.9-1.9 3.2-3.3 3.9-7.3 2.3-11.5zm-41.2-40.1.6 13.3c-.1 0-3.5 1.1-8.6 1.3-5.1.2-7.9-1.3-8-1.3l.5-13c-12.9-5.7-11.2-21.8-11.2-21.9 0 0 3-5.2 18-5.6 15-.4 19.7 6.1 19.7 6.1 2.4 15.7-10.8 21-11 21.1z" style="fill:none;stroke:#333;stroke-width:17;stroke-miterlimit:10"/><path id="XMLID_1_" d="M159.8 135.3h-19.7c-6.6 0-12-5.4-12-12v-19.7c0-6.6 5.4-12 12-12h19.7c6.6 0 12 5.4 12 12v19.7c0 6.6-5.4 12-12 12z" style="fill:#333"/><path id="XMLID_6_" d="m119.7 175.1-1.8-26.3c-.2-2.7 2-4.9 4.8-4.9h54.6c2.8 0 4.9 2.3 4.8 4.9l-1.7 26.3c-.2 2.4-2.2 4.3-4.8 4.3h-51.1c-2.5 0-4.6-1.9-4.8-4.3z" style="fill:none;stroke:#262626;stroke-width:13;stroke-miterlimit:10"/></g><g id="Calque_1_-_copie_2"><path id="XMLID_28_" class="st4" d="M199.5 161.8c-1.5-3.8-9.7-24.1-11.3-27.9-.3-.8-.7-1.4-1.3-2-.7-.7-1.9-1.5-3.5-1.6-5-.4-7.4-.4-8.6-1.1-1.2-.7-1.2-2.2-.8-4.1.3-1.7 1.5-13 1.8-15.8v-1.4c-.4-3.7-2.9-19.9-14.6-25.7-4.1-2-18.3-2-22.4 0-11.7 5.8-14.2 22-14.6 25.7-.1.5-.1.9 0 1.4.3 2.8 1.5 14.2 1.8 15.8.4 1.9.4 3.4-.8 4.1-1.2.7-3.5.7-8.6 1.1-1.6.1-2.8.9-3.5 1.6-.6.6-1 1.3-1.3 2-1.5 3.8-9.8 24-11.3 27.9-1.6 4.2-.9 8.2 2.3 11.5 1.6 1.6 5.5 2 8.9 1.9 3.5-.1 6.3-3.1 6.1-6.6-.5-7.9-1.3-20.8-1.4-22.7-.1-1.7 1.2-2.5 2.2-2.8.6-.2 1.2-.3 1.8-.3h59.2c.6 0 1.2.1 1.8.3 1.1.3 2.4 1.1 2.2 2.8-.1 1.9-.9 14.9-1.4 22.7-.2 3.5 2.6 6.6 6.1 6.6 3.5.1 7.3-.3 8.9-1.9 3.2-3.3 3.9-7.3 2.3-11.5zm-41.2-40.1.6 13.3c-.1 0-3.5 1.1-8.6 1.3-5.1.2-7.9-1.3-8-1.3l.5-13c-12.9-5.7-11.2-21.8-11.2-21.9 0 0 3-5.2 18-5.6 15-.4 19.7 6.1 19.7 6.1 2.4 15.7-10.8 21-11 21.1z"/><path id="XMLID_27_" class="st4" d="m119.7 175.1-1.8-26.3c-.2-2.7 2-4.9 4.8-4.9h54.6c2.8 0 4.9 2.3 4.8 4.9l-1.7 26.3c-.2 2.4-2.2 4.3-4.8 4.3h-51.1c-2.5 0-4.6-1.9-4.8-4.3z"/></g><g id="Calque_1"><radialGradient id="XMLID_4_" cx="150" cy="127.887" r="48.827" gradientUnits="userSpaceOnUse"><stop offset="0" style="stop-color:#005a6a"/><stop offset=".335" style="stop-color:#005869"/><stop offset=".567" style="stop-color:#005367"/><stop offset=".769" style="stop-color:#004a62"/><stop offset=".952" style="stop-color:#003e5c"/><stop offset="1" style="stop-color:#003a5a"/></radialGradient><path id="XMLID_7_" d="M199.5 161.8c-1.5-3.8-9.7-24.1-11.3-27.9-.3-.8-.7-1.4-1.3-2-.7-.7-1.9-1.5-3.5-1.6-5-.4-7.4-.4-8.6-1.1-1.2-.7-1.2-2.2-.8-4.1.3-1.7 1.5-13 1.8-15.8v-1.4c-.4-3.7-2.9-19.9-14.6-25.7-4.1-2-18.3-2-22.4 0-11.7 5.8-14.2 22-14.6 25.7-.1.5-.1.9 0 1.4.3 2.8 1.5 14.2 1.8 15.8.4 1.9.4 3.4-.8 4.1-1.2.7-3.5.7-8.6 1.1-1.6.1-2.8.9-3.5 1.6-.6.6-1 1.3-1.3 2-1.5 3.8-9.8 24-11.3 27.9-1.6 4.2-.9 8.2 2.3 11.5 1.6 1.6 5.5 2 8.9 1.9 3.5-.1 6.3-3.1 6.1-6.6-.5-7.9-1.3-20.8-1.4-22.7-.1-1.7 1.2-2.5 2.2-2.8.6-.2 1.2-.3 1.8-.3h59.2c.6 0 1.2.1 1.8.3 1.1.3 2.4 1.1 2.2 2.8-.1 1.9-.9 14.9-1.4 22.7-.2 3.5 2.6 6.6 6.1 6.6 3.5.1 7.3-.3 8.9-1.9 3.2-3.3 3.9-7.3 2.3-11.5zm-41.2-40.1.6 13.3c-.1 0-3.5 1.1-8.6 1.3-5.1.2-7.9-1.3-8-1.3l.5-13c-12.9-5.7-11.2-21.8-11.2-21.9 0 0 3-5.2 18-5.6 15-.4 19.7 6.1 19.7 6.1 2.4 15.7-10.8 21-11 21.1z" style="fill:url(#XMLID_4_)"/><path id="XMLID_5_" d="m119.7 175.1-1.8-26.3c-.2-2.7 2-4.9 4.8-4.9h54.6c2.8 0 4.9 2.3 4.8 4.9l-1.7 26.3c-.2 2.4-2.2 4.3-4.8 4.3h-51.1c-2.5 0-4.6-1.9-4.8-4.3z" style="fill:#636464"/><g id="Calque_121"><path id="XMLID_583_" class="st7" d="M149.3 155.7c3.2 0 6.2-.9 8.3-2.4-2.1-2.1-5.1-3.4-8.3-3.4s-6.2 1.3-8.3 3.4c2.1 1.5 5 2.4 8.3 2.4z"/><circle id="XMLID_580_" class="st7" cx="149.3" cy="161.6" r="11.7"/><ellipse id="XMLID_579_" class="st7" cx="149.3" cy="161.6" rx="7.5" ry="11.7"/><path id="XMLID_451_" class="st7" d="M137.5 161.6H161"/><path id="XMLID_449_" class="st7" d="M149.3 149.9v23.5"/><path id="XMLID_215_" class="st7" d="M149.3 167.4c-3.3 0-6.2.9-8.4 2.4 2.1 2.2 5.1 3.5 8.4 3.5 3.3 0 6.2-1.3 8.4-3.5-2.2-1.4-5.2-2.4-8.4-2.4z"/></g><linearGradient id="XMLID_12_" gradientUnits="userSpaceOnUse" x1="149.978" y1="146.139" x2="149.978" y2="178.037"><stop offset="0" style="stop-color:#fff"/><stop offset="1" style="stop-color:#000"/></linearGradient><path id="XMLID_3_" d="M175 178h-50c-2.4 0-4.3-2-4.3-4.3v-23.2c0-2.4 2-4.3 4.3-4.3h50c2.4 0 4.3 2 4.3 4.3v23.2c0 2.4-1.9 4.3-4.3 4.3z" style="opacity:.25;fill:url(#XMLID_12_)"/></g></svg>