<?xml version="1.0" encoding="utf-8"?>
<!-- Generator: Adobe Illustrator 19.0.0, SVG Export Plug-In . SVG Version: 6.00 Build 0)  -->
<svg version="1.0" xmlns="http://www.w3.org/2000/svg" xmlns:xlink="http://www.w3.org/1999/xlink" x="0px" y="0px" width="300px" height="260px"
	 viewBox="0 0 300 260" style="enable-background:new 0 0 300 260;" xml:space="preserve">
<style type="text/css">
	.st0{opacity:0;fill:#333333;}
	.st1{fill:none;stroke:#333333;stroke-width:17;stroke-miterlimit:10;}
	.st2{fill:#333333;}
	.st3{fill:none;stroke:#262626;stroke-width:13;stroke-miterlimit:10;}
	.st4{fill:none;stroke:#FFFFFF;stroke-width:4;stroke-miterlimit:10;}
	.st5{fill:url(#XMLID_4_);}
	.st6{fill:#636464;}
	.st7{fill:none;stroke:#FFFFFF;stroke-width:2;stroke-miterlimit:10;}
	.st8{opacity:0.25;fill:url(#XMLID_12_);}
</style>
<g id="Calque_1_-_copie">
	<path id="XMLID_21_" class="st0" d="M159.7,136.3h-18.3c-6.6,0-12-5.4-12-12V102c0-6.6,5.4-12,12-12h18.3c6.6,0,12,5.4,12,12v22.3
		C171.7,130.9,166.3,136.3,159.7,136.3z"/>
	<path id="XMLID_8_" class="st1" d="M199.5,161.8c-1.5-3.8-9.7-24.1-11.3-27.9c-0.3-0.8-0.7-1.4-1.3-2c-0.7-0.7-1.9-1.5-3.5-1.6
		c-5-0.4-7.4-0.4-8.6-1.1c-1.2-0.7-1.2-2.2-0.8-4.1c0.3-1.7,1.5-13,1.8-15.8c0-0.5,0-0.9,0-1.4c-0.4-3.7-2.9-19.9-14.6-25.7
		c-4.1-2-18.3-2-22.4,0c-11.7,5.8-14.2,22-14.6,25.7c-0.1,0.5-0.1,0.9,0,1.4c0.3,2.8,1.5,14.2,1.8,15.8c0.4,1.9,0.4,3.4-0.8,4.1
		c-1.2,0.7-3.5,0.7-8.6,1.1c-1.6,0.1-2.8,0.9-3.5,1.6c-0.6,0.6-1,1.3-1.3,2c-1.5,3.8-9.8,24-11.3,27.9c-1.6,4.2-0.9,8.2,2.3,11.5
		c1.6,1.6,5.5,2,8.9,1.9c3.5-0.1,6.3-3.1,6.1-6.6c-0.5-7.9-1.3-20.8-1.4-22.7c-0.1-1.7,1.2-2.5,2.2-2.8c0.6-0.2,1.2-0.3,1.8-0.3H150
		h0h29.6c0.6,0,1.2,0.1,1.8,0.3c1.1,0.3,2.4,1.1,2.2,2.8c-0.1,1.9-0.9,14.9-1.4,22.7c-0.2,3.5,2.6,6.6,6.1,6.6
		c3.5,0.1,7.3-0.3,8.9-1.9C200.4,170,201.1,166,199.5,161.8z M158.3,121.7l0.6,13.3c0,0,0,0,0,0c-0.1,0-3.5,1.1-8.6,1.3
		c-5.1,0.2-7.9-1.3-8-1.3c0,0,0,0,0,0l0.5-13c0,0,0,0,0,0c-12.9-5.7-11.2-21.8-11.2-21.9c0,0,0,0,0,0c0,0,3-5.2,18-5.6
		c15-0.4,19.7,6.1,19.7,6.1c0,0,0,0,0,0C171.7,116.3,158.5,121.6,158.3,121.7C158.3,121.7,158.3,121.7,158.3,121.7z"/>
	<path id="XMLID_1_" class="st2" d="M159.8,135.3h-19.7c-6.6,0-12-5.4-12-12v-19.7c0-6.6,5.4-12,12-12h19.7c6.6,0,12,5.4,12,12v19.7
		C171.8,129.9,166.4,135.3,159.8,135.3z"/>
	<path id="XMLID_6_" class="st3" d="M119.7,175.1l-1.8-26.3c-0.2-2.7,2-4.9,4.8-4.9h54.6c2.8,0,4.9,2.3,4.8,4.9l-1.7,26.3
		c-0.2,2.4-2.2,4.3-4.8,4.3h-51.1C122,179.4,119.9,177.5,119.7,175.1z"/>
</g>
<g id="Calque_1_-_copie_2">
	<path id="XMLID_28_" class="st4" d="M199.5,161.8c-1.5-3.8-9.7-24.1-11.3-27.9c-0.3-0.8-0.7-1.4-1.3-2c-0.7-0.7-1.9-1.5-3.5-1.6
		c-5-0.4-7.4-0.4-8.6-1.1c-1.2-0.7-1.2-2.2-0.8-4.1c0.3-1.7,1.5-13,1.8-15.8c0-0.5,0-0.9,0-1.4c-0.4-3.7-2.9-19.9-14.6-25.7
		c-4.1-2-18.3-2-22.4,0c-11.7,5.8-14.2,22-14.6,25.7c-0.1,0.5-0.1,0.9,0,1.4c0.3,2.8,1.5,14.2,1.8,15.8c0.4,1.9,0.4,3.4-0.8,4.1
		c-1.2,0.7-3.5,0.7-8.6,1.1c-1.6,0.1-2.8,0.9-3.5,1.6c-0.6,0.6-1,1.3-1.3,2c-1.5,3.8-9.8,24-11.3,27.9c-1.6,4.2-0.9,8.2,2.3,11.5
		c1.6,1.6,5.5,2,8.9,1.9c3.5-0.1,6.3-3.1,6.1-6.6c-0.5-7.9-1.3-20.8-1.4-22.7c-0.1-1.7,1.2-2.5,2.2-2.8c0.6-0.2,1.2-0.3,1.8-0.3H150
		h0h29.6c0.6,0,1.2,0.1,1.8,0.3c1.1,0.3,2.4,1.1,2.2,2.8c-0.1,1.9-0.9,14.9-1.4,22.7c-0.2,3.5,2.6,6.6,6.1,6.6
		c3.5,0.1,7.3-0.3,8.9-1.9C200.4,170,201.1,166,199.5,161.8z M158.3,121.7l0.6,13.3c0,0,0,0,0,0c-0.1,0-3.5,1.1-8.6,1.3
		c-5.1,0.2-7.9-1.3-8-1.3c0,0,0,0,0,0l0.5-13c0,0,0,0,0,0c-12.9-5.7-11.2-21.8-11.2-21.9c0,0,0,0,0,0c0,0,3-5.2,18-5.6
		c15-0.4,19.7,6.1,19.7,6.1c0,0,0,0,0,0C171.7,116.3,158.5,121.6,158.3,121.7C158.3,121.7,158.3,121.7,158.3,121.7z"/>
	<path id="XMLID_27_" class="st4" d="M119.7,175.1l-1.8-26.3c-0.2-2.7,2-4.9,4.8-4.9h54.6c2.8,0,4.9,2.3,4.8,4.9l-1.7,26.3
		c-0.2,2.4-2.2,4.3-4.8,4.3h-51.1C122,179.4,119.9,177.5,119.7,175.1z"/>
</g>
<g id="Calque_1">
	<radialGradient id="XMLID_4_" cx="150" cy="127.8866" r="48.827" gradientUnits="userSpaceOnUse">
		<stop  offset="0" style="stop-color:#005A6A"/>
		<stop  offset="0.3346" style="stop-color:#005869"/>
		<stop  offset="0.5671" style="stop-color:#005367"/>
		<stop  offset="0.7688" style="stop-color:#004A62"/>
		<stop  offset="0.9517" style="stop-color:#003E5C"/>
		<stop  offset="1" style="stop-color:#003A5A"/>
	</radialGradient>
	<path id="XMLID_7_" class="st5" d="M199.5,161.8c-1.5-3.8-9.7-24.1-11.3-27.9c-0.3-0.8-0.7-1.4-1.3-2c-0.7-0.7-1.9-1.5-3.5-1.6
		c-5-0.4-7.4-0.4-8.6-1.1c-1.2-0.7-1.2-2.2-0.8-4.1c0.3-1.7,1.5-13,1.8-15.8c0-0.5,0-0.9,0-1.4c-0.4-3.7-2.9-19.9-14.6-25.7
		c-4.1-2-18.3-2-22.4,0c-11.7,5.8-14.2,22-14.6,25.7c-0.1,0.5-0.1,0.9,0,1.4c0.3,2.8,1.5,14.2,1.8,15.8c0.4,1.9,0.4,3.4-0.8,4.1
		c-1.2,0.7-3.5,0.7-8.6,1.1c-1.6,0.1-2.8,0.9-3.5,1.6c-0.6,0.6-1,1.3-1.3,2c-1.5,3.8-9.8,24-11.3,27.9c-1.6,4.2-0.9,8.2,2.3,11.5
		c1.6,1.6,5.5,2,8.9,1.9c3.5-0.1,6.3-3.1,6.1-6.6c-0.5-7.9-1.3-20.8-1.4-22.7c-0.1-1.7,1.2-2.5,2.2-2.8c0.6-0.2,1.2-0.3,1.8-0.3H150
		h0h29.6c0.6,0,1.2,0.1,1.8,0.3c1.1,0.3,2.4,1.1,2.2,2.8c-0.1,1.9-0.9,14.9-1.4,22.7c-0.2,3.5,2.6,6.6,6.1,6.6
		c3.5,0.1,7.3-0.3,8.9-1.9C200.4,170,201.1,166,199.5,161.8z M158.3,121.7l0.6,13.3c0,0,0,0,0,0c-0.1,0-3.5,1.1-8.6,1.3
		c-5.1,0.2-7.9-1.3-8-1.3c0,0,0,0,0,0l0.5-13c0,0,0,0,0,0c-12.9-5.7-11.2-21.8-11.2-21.9c0,0,0,0,0,0c0,0,3-5.2,18-5.6
		c15-0.4,19.7,6.1,19.7,6.1c0,0,0,0,0,0C171.7,116.3,158.5,121.6,158.3,121.7C158.3,121.7,158.3,121.7,158.3,121.7z"/>
	<path id="XMLID_5_" class="st6" d="M119.7,175.1l-1.8-26.3c-0.2-2.7,2-4.9,4.8-4.9h54.6c2.8,0,4.9,2.3,4.8,4.9l-1.7,26.3
		c-0.2,2.4-2.2,4.3-4.8,4.3h-51.1C122,179.4,119.9,177.5,119.7,175.1z"/>
	<g id="Calque_121">
		<path id="XMLID_583_" class="st7" d="M149.3,155.7c3.2,0,6.2-0.9,8.3-2.4c-2.1-2.1-5.1-3.4-8.3-3.4s-6.2,1.3-8.3,3.4
			C143.1,154.8,146,155.7,149.3,155.7z"/>
		<circle id="XMLID_580_" class="st7" cx="149.3" cy="161.6" r="11.7"/>
		<ellipse id="XMLID_579_" class="st7" cx="149.3" cy="161.6" rx="7.5" ry="11.7"/>
		<line id="XMLID_451_" class="st7" x1="137.5" y1="161.6" x2="161" y2="161.6"/>
		<line id="XMLID_449_" class="st7" x1="149.3" y1="149.9" x2="149.3" y2="173.4"/>
		<path id="XMLID_215_" class="st7" d="M149.3,167.4c-3.3,0-6.2,0.9-8.4,2.4c2.1,2.2,5.1,3.5,8.4,3.5c3.3,0,6.2-1.3,8.4-3.5
			C155.5,168.4,152.5,167.4,149.3,167.4z"/>
	</g>
	<linearGradient id="XMLID_12_" gradientUnits="userSpaceOnUse" x1="149.9779" y1="146.1387" x2="149.9779" y2="178.0369">
		<stop  offset="0" style="stop-color:#FFFFFF"/>
		<stop  offset="1" style="stop-color:#000000"/>
	</linearGradient>
	<path id="XMLID_3_" class="st8" d="M175,178h-50c-2.4,0-4.3-2-4.3-4.3v-23.2c0-2.4,2-4.3,4.3-4.3h50c2.4,0,4.3,2,4.3,4.3v23.2
		C179.3,176.1,177.4,178,175,178z"/>
</g>
</svg>
