<svg version="1.0" id="poison" xmlns="http://www.w3.org/2000/svg" x="0" y="0" width="300" height="260" style="enable-background:new 0 0 300 260" xml:space="preserve"><style>.st0,.st1{fill:none;stroke:#353535;stroke-width:12;stroke-miterlimit:10}.st1{stroke:#feffff;stroke-width:4}</style><g id="Calque_53_1_"><g id="XMLID_350_"><path id="XMLID_363_" class="st0" d="m168.2 164.2-1.2 6.5-1.5-6.1-8 .1-1.6 6-1.8-5.8-10.6-.7-1.6 6.5-1.4-6.2-8.8-.5-2.1 12s30.9 5.4 49 0l-2.7-11.9h-7.7z"/><path id="XMLID_351_" class="st0" d="M197.9 113c-3.4-36.5-24.2-30.7-43-31.2-29.1-.8-51.4 7.3-51.4 26.9 0 7.7 0 19.4 3.7 24.3 8.3 11.1 27.3 14.7 27.3 14.7l-2.7 15.4 8.8-.8 1.7-6.3 1.1 6.1 11.2.1.4-7 2.4 6.8 7.7.2 1.9-7.7 1.1 7.9h7.3l-3.4-15.1c-.1 0 29.4 2.2 25.9-34.3zm-64.8 11.1c-5.7 0-10.4-4.9-10.4-11s4.7-11 10.4-11 10.4 4.9 10.4 11-4.6 11-10.4 11zm18.1 8.4c-.4.7-1.3.7-1.9.2-.6-.6-1.5-1-1.6-1.6-.3-2 0-3.3 0-3.3s4-.9 4.2 1.8c.1 1.2-.2 2.1-.7 2.9zm7.9-1.4c-.1.6-1 1-1.6 1.6-.6.5-1.5.5-1.9-.2-.4-.7-.8-1.7-.7-2.9.2-2.7 4.2-1.8 4.2-1.8s.3 1.3 0 3.3zm15.4-7c-5.7 0-10.4-4.9-10.4-11s4.7-11 10.4-11 10.4 4.9 10.4 11-4.7 11-10.4 11z"/></g><g id="XMLID_422_"><path id="XMLID_429_" class="st1" d="m168.2 164.2-1.2 6.5-1.5-6.1-8 .1-1.6 6-1.8-5.8-10.6-.7-1.6 6.5-1.4-6.2-8.8-.5-2.1 12s30.9 5.4 49 0l-2.7-11.9h-7.7z"/><path id="XMLID_423_" class="st1" d="M197.9 113c-3.4-36.5-24.2-30.7-43-31.2-29.1-.8-51.4 7.3-51.4 26.9 0 7.7 0 19.4 3.7 24.3 8.3 11.1 27.3 14.7 27.3 14.7l-2.7 15.4 8.8-.8 1.7-6.3 1.1 6.1 11.2.1.4-7 2.4 6.8 7.7.2 1.9-7.7 1.1 7.9h7.3l-3.4-15.1c-.1 0 29.4 2.2 25.9-34.3zm-64.8 11.1c-5.7 0-10.4-4.9-10.4-11s4.7-11 10.4-11 10.4 4.9 10.4 11-4.6 11-10.4 11zm18.1 8.4c-.4.7-1.3.7-1.9.2-.6-.6-1.5-1-1.6-1.6-.3-2 0-3.3 0-3.3s4-.9 4.2 1.8c.1 1.2-.2 2.1-.7 2.9zm7.9-1.4c-.1.6-1 1-1.6 1.6-.6.5-1.5.5-1.9-.2-.4-.7-.8-1.7-.7-2.9.2-2.7 4.2-1.8 4.2-1.8s.3 1.3 0 3.3zm15.4-7c-5.7 0-10.4-4.9-10.4-11s4.7-11 10.4-11 10.4 4.9 10.4 11-4.7 11-10.4 11z"/></g><g id="XMLID_368_"><radialGradient id="XMLID_2_" cx="153.941" cy="171.227" r="18.061" gradientUnits="userSpaceOnUse"><stop offset="0" style="stop-color:#5a834c"/><stop offset=".275" style="stop-color:#5c854b"/><stop offset=".496" style="stop-color:#648b48"/><stop offset=".699" style="stop-color:#719543"/><stop offset=".889" style="stop-color:#82a539"/><stop offset="1" style="stop-color:#90b330"/></radialGradient><path id="XMLID_421_" d="m168.2 164.2-1.2 6.5-1.5-6.1-8 .1-1.6 6-1.8-5.8-10.6-.7-1.6 6.5-1.4-6.2-8.8-.5-2.1 12s30.9 5.4 49 0l-2.7-11.9h-7.7z" style="fill:url(#XMLID_2_)"/><radialGradient id="XMLID_3_" cx="150.833" cy="122.347" r="44.136" gradientUnits="userSpaceOnUse"><stop offset="0" style="stop-color:#5a834c"/><stop offset=".275" style="stop-color:#5c854b"/><stop offset=".496" style="stop-color:#648b48"/><stop offset=".699" style="stop-color:#719543"/><stop offset=".889" style="stop-color:#82a539"/><stop offset="1" style="stop-color:#90b330"/></radialGradient><path id="XMLID_399_" d="M197.9 113c-3.4-36.5-24.2-30.7-43-31.2-29.1-.8-51.4 7.3-51.4 26.9 0 7.7 0 19.4 3.7 24.3 8.3 11.1 27.3 14.7 27.3 14.7l-2.7 15.4 8.8-.8 1.7-6.3 1.1 6.1 11.2.1.4-7 2.4 6.8 7.7.2 1.9-7.7 1.1 7.9h7.3l-3.4-15.1c-.1 0 29.4 2.2 25.9-34.3zm-64.8 11.1c-5.7 0-10.4-4.9-10.4-11s4.7-11 10.4-11 10.4 4.9 10.4 11-4.6 11-10.4 11zm18.1 8.4c-.4.7-1.3.7-1.9.2-.6-.6-1.5-1-1.6-1.6-.3-2 0-3.3 0-3.3s4-.9 4.2 1.8c.1 1.2-.2 2.1-.7 2.9zm7.9-1.4c-.1.6-1 1-1.6 1.6-.6.5-1.5.5-1.9-.2-.4-.7-.8-1.7-.7-2.9.2-2.7 4.2-1.8 4.2-1.8s.3 1.3 0 3.3zm15.4-7c-5.7 0-10.4-4.9-10.4-11s4.7-11 10.4-11 10.4 4.9 10.4 11-4.7 11-10.4 11z" style="fill:url(#XMLID_3_)"/></g></g><linearGradient id="XMLID_4_" gradientUnits="userSpaceOnUse" x1="154.203" y1="128.419" x2="139.568" y2="80.549"><stop offset="0" style="stop-color:#fff"/><stop offset="1" style="stop-color:#fff;stop-opacity:0"/></linearGradient><path id="XMLID_535_" d="M154.9 81.7c-29.1-.8-51.4 7.3-51.4 26.9 0 7.7 0 19.4 3.7 24.3 2.2 2.9 5.2 5.4 8.4 7.3 9.2-2.8 20.7-6.9 32.2-12.3v-.1s.1 0 .4-.1c5.9-2.8 11.7-5.9 17.3-9.4-.8-1.6-1.3-3.4-1.3-5.3 0-6.1 4.7-11 10.4-11 3 0 5.7 1.3 7.6 3.5 4.1-3.9 7.6-8.1 10.5-12.6-8.3-13.9-23.6-10.8-37.8-11.2zm-21.8 42.4c-5.7 0-10.4-4.9-10.4-11s4.7-11 10.4-11 10.4 4.9 10.4 11-4.6 11-10.4 11z" style="opacity:.25;fill:url(#XMLID_4_)"/></svg>