<?xml version="1.0" encoding="utf-8"?>
<!-- Generator: Adobe Illustrator 19.0.0, SVG Export Plug-In . SVG Version: 6.00 Build 0)  -->
<svg version="1.0" id="attack" xmlns="http://www.w3.org/2000/svg" xmlns:xlink="http://www.w3.org/1999/xlink" x="0px" y="0px" width="300px" height="260px"
	 viewBox="0 0 300 260" style="enable-background:new 0 0 300 260;" xml:space="preserve">
<style type="text/css">
	.st0{fill:none;stroke:#353535;stroke-width:13;stroke-miterlimit:10;}
	.st1{fill:none;stroke:#FFFFFF;stroke-width:3;stroke-miterlimit:10;}
	.st2{fill:url(#XMLID_2_);}
	.st3{opacity:0.73;fill:url(#XMLID_3_);}
</style>
<path id="XMLID_158_" class="st0" d="M145.1,179.3c0,0-39.8-14.7-24.8-47.6c7.5-14.2,16.1-16,21.2-26.3c5.1-10.3,8.7-15.3,2.9-29.2
	c0,0,28.1,10.9,16.7,28.5c-8.1,12.4-9.4,21-3.3,23s8.7-4.5,7.1-9.5c-2.7-8.6,4.7-12.9,4.7-12.9s0.8,15.5,7.1,27.3
	c9.3,17.5,0.7,34.4-11.8,40.8c0,0-1.1-6.2-10.5-11.6c-8-4.6-14.4-12.9-11.5-21.2C142.7,140.7,124.9,151.5,145.1,179.3z"/>
<path id="XMLID_186_" class="st1" d="M145.1,179.3c0,0-39.8-14.7-24.8-47.6c7.5-14.2,16.1-16,21.2-26.3c5.1-10.3,8.7-15.3,2.9-29.2
	c0,0,28.1,10.9,16.7,28.5c-8.1,12.4-9.4,21-3.3,23s8.7-4.5,7.1-9.5c-2.7-8.6,4.7-12.9,4.7-12.9s0.8,15.5,7.1,27.3
	c9.3,17.5,0.7,34.4-11.8,40.8c0,0-1.1-6.2-10.5-11.6c-8-4.6-14.4-12.9-11.5-21.2C142.7,140.7,124.9,151.5,145.1,179.3z"/>
<linearGradient id="XMLID_2_" gradientUnits="userSpaceOnUse" x1="176.2899" y1="98.3511" x2="124.843" y2="166.6236">
	<stop  offset="0" style="stop-color:#E93E3A"/>
	<stop  offset="0.2866" style="stop-color:#EC5C3C"/>
	<stop  offset="0.4738" style="stop-color:#ED683C"/>
	<stop  offset="0.5532" style="stop-color:#F07E3E"/>
	<stop  offset="0.6967" style="stop-color:#F49E41"/>
	<stop  offset="0.8242" style="stop-color:#F8B643"/>
	<stop  offset="0.9296" style="stop-color:#FBC543"/>
	<stop  offset="1" style="stop-color:#FCCB43"/>
</linearGradient>
<path id="XMLID_185_" class="st2" d="M145.1,179.3c0,0-39.8-14.7-24.8-47.6c7.5-14.2,16.1-16,21.2-26.3c5.1-10.3,8.7-15.3,2.9-29.2
	c0,0,28.1,10.9,16.7,28.5c-8.1,12.4-9.4,21-3.3,23s8.7-4.5,7.1-9.5c-2.7-8.6,4.7-12.9,4.7-12.9s0.8,15.5,7.1,27.3
	c9.3,17.5,0.7,34.4-11.8,40.8c0,0-1.1-6.2-10.5-11.6c-8-4.6-14.4-12.9-11.5-21.2C142.7,140.7,124.9,151.5,145.1,179.3z"/>
<linearGradient id="XMLID_3_" gradientUnits="userSpaceOnUse" x1="120.4008" y1="100.1667" x2="163.4138" y2="143.1798">
	<stop  offset="0" style="stop-color:#FFFFFF"/>
	<stop  offset="1" style="stop-color:#FFFFFF;stop-opacity:0"/>
</linearGradient>
<path id="XMLID_190_" class="st3" d="M175.7,130.9c-5.5-11.5-6.2-25.6-6.2-25.6s-7.3,4.3-4.7,12.9c1.6,5.1-1,11.6-7.1,9.5
	s-4.8-10.6,3.3-23c11.4-17.6-16.7-28.5-16.7-28.5c5.8,13.9,2.2,18.9-2.9,29.2c-5.1,10.3-13.6,12.1-21.2,26.3
	c-3.1,6.8-3.9,12.8-3.1,18.1C127.9,139.9,146.2,129.9,175.7,130.9z"/>
</svg>
