<?xml version="1.0" encoding="utf-8"?>
<!-- Generator: Adobe Illustrator 19.0.0, SVG Export Plug-In . SVG Version: 6.00 Build 0)  -->
<svg version="1.0" id="Calque_126" xmlns="http://www.w3.org/2000/svg" xmlns:xlink="http://www.w3.org/1999/xlink" x="0px" y="0px" width="300px" height="260px"
	 viewBox="0 0 300 260" style="enable-background:new 0 0 300 260;" xml:space="preserve">
<style type="text/css">
	.st0{display:none;}
	.st1{display:inline;fill:#353535;}
	.st2{display:inline;fill:#FFFFFF;}
	.st3{display:inline;fill:url(#XMLID_3_);}
	.st4{display:inline;fill:url(#XMLID_5_);}
	.st5{display:inline;fill:url(#XMLID_7_);}
	.st6{fill:#353535;}
	.st7{fill:#FFFFFF;}
	.st8{fill:url(#XMLID_14_);}
	.st9{display:inline;fill:url(#XMLID_16_);}
	.st10{display:none;opacity:0.75;fill:url(#XMLID_17_);}
	.st11{display:inline;}
	.st12{fill:#383838;stroke:#383838;stroke-width:4;stroke-miterlimit:10;}
	.st13{fill:#383838;}
	.st14{fill:#939292;}
	.st15{fill:#DEDDDD;stroke:#383838;stroke-width:4;stroke-miterlimit:10;}
	.st16{display:inline;fill:#ABABAB;}
	.st17{display:inline;fill:none;stroke:#383838;stroke-width:4;stroke-miterlimit:10;}
</style>
<g id="Calque_133" class="st0">
	<circle id="XMLID_278_" class="st1" cx="150" cy="130" r="76.2"/>
	<circle id="XMLID_8_" class="st2" cx="150" cy="130" r="69.9"/>
	<radialGradient id="XMLID_3_" cx="149.6464" cy="130" r="67.8722" gradientUnits="userSpaceOnUse">
		<stop  offset="0.2069" style="stop-color:#88CDEF"/>
		<stop  offset="0.247" style="stop-color:#77BAE1"/>
		<stop  offset="0.325" style="stop-color:#60A2CF"/>
		<stop  offset="0.41" style="stop-color:#5093C3"/>
		<stop  offset="0.5062" style="stop-color:#478ABC"/>
		<stop  offset="0.6379" style="stop-color:#4487BA"/>
		<stop  offset="0.7156" style="stop-color:#4C8FC0"/>
		<stop  offset="0.8404" style="stop-color:#64A6D2"/>
		<stop  offset="0.996" style="stop-color:#8FD6F6"/>
		<stop  offset="1" style="stop-color:#90D9F8"/>
	</radialGradient>
	<circle id="XMLID_6_" class="st3" cx="149.6" cy="130" r="67.9"/>
</g>
<g id="Calque_133_-_copie_2" class="st0">
	<circle id="XMLID_72_" class="st1" cx="150" cy="130" r="76.2"/>
	<circle id="XMLID_71_" class="st2" cx="150" cy="130" r="69.9"/>
	<radialGradient id="XMLID_5_" cx="149.6464" cy="130" r="67.8722" gradientUnits="userSpaceOnUse">
		<stop  offset="0.2069" style="stop-color:#D7C49F"/>
		<stop  offset="0.2335" style="stop-color:#CDB995"/>
		<stop  offset="0.3142" style="stop-color:#B7A580"/>
		<stop  offset="0.4021" style="stop-color:#A99773"/>
		<stop  offset="0.5017" style="stop-color:#A1906C"/>
		<stop  offset="0.6379" style="stop-color:#9F8E6A"/>
		<stop  offset="0.7267" style="stop-color:#A69570"/>
		<stop  offset="0.8687" style="stop-color:#BAA883"/>
		<stop  offset="1" style="stop-color:#D7C49E"/>
	</radialGradient>
	<circle id="XMLID_70_" class="st4" cx="149.6" cy="130" r="67.9"/>
</g>
<g id="Calque_133_-_copie_3" class="st0">
	<circle id="XMLID_11_" class="st1" cx="150" cy="130" r="76.2"/>
	<circle id="XMLID_10_" class="st2" cx="150" cy="130" r="69.9"/>
	<radialGradient id="XMLID_7_" cx="149.6464" cy="130" r="67.8722" gradientUnits="userSpaceOnUse">
		<stop  offset="0.2069" style="stop-color:#F04E4B"/>
		<stop  offset="0.2654" style="stop-color:#CC3C39"/>
		<stop  offset="0.3397" style="stop-color:#B12D2B"/>
		<stop  offset="0.4207" style="stop-color:#9F2223"/>
		<stop  offset="0.5124" style="stop-color:#951C1E"/>
		<stop  offset="0.6379" style="stop-color:#921A1D"/>
		<stop  offset="0.7133" style="stop-color:#9B2021"/>
		<stop  offset="0.8342" style="stop-color:#B52F2E"/>
		<stop  offset="0.985" style="stop-color:#E64B48"/>
		<stop  offset="1" style="stop-color:#F04F4B"/>
	</radialGradient>
	<circle id="XMLID_9_" class="st5" cx="149.6" cy="130" r="67.9"/>
</g>
<g id="Calque_133_-_copie_4">
	<circle id="XMLID_66_" class="st6" cx="150" cy="130" r="76.2"/>
	<circle id="XMLID_65_" class="st7" cx="150" cy="130" r="69.9"/>
	<radialGradient id="XMLID_14_" cx="149.6464" cy="130" r="67.8722" gradientUnits="userSpaceOnUse">
		<stop  offset="0.2069" style="stop-color:#C5539F"/>
		<stop  offset="0.2231" style="stop-color:#BF4F9C"/>
		<stop  offset="0.2893" style="stop-color:#AB4195"/>
		<stop  offset="0.3602" style="stop-color:#9B3791"/>
		<stop  offset="0.4369" style="stop-color:#91308E"/>
		<stop  offset="0.5239" style="stop-color:#8B2D8C"/>
		<stop  offset="0.6429" style="stop-color:#892B8C"/>
		<stop  offset="0.7089" style="stop-color:#8F2F8D"/>
		<stop  offset="0.8149" style="stop-color:#9E3992"/>
		<stop  offset="0.9471" style="stop-color:#B84A9A"/>
		<stop  offset="1" style="stop-color:#C5539F"/>
	</radialGradient>
	<circle id="XMLID_64_" class="st8" cx="149.6" cy="130" r="67.9"/>
</g>
<g id="Calque_133_-_copie_5" class="st0">
	<circle id="XMLID_35_" class="st1" cx="150" cy="130" r="76.2"/>
	<circle id="XMLID_34_" class="st2" cx="150" cy="130" r="69.9"/>
	<radialGradient id="XMLID_16_" cx="149.6464" cy="130" r="67.8722" gradientUnits="userSpaceOnUse">
		<stop  offset="0.2069" style="stop-color:#7C7C7C"/>
		<stop  offset="0.2374" style="stop-color:#727272"/>
		<stop  offset="0.3183" style="stop-color:#5B5B5B"/>
		<stop  offset="0.4064" style="stop-color:#4B4B4B"/>
		<stop  offset="0.5063" style="stop-color:#424242"/>
		<stop  offset="0.6429" style="stop-color:#3F3F3F"/>
		<stop  offset="0.7287" style="stop-color:#484848"/>
		<stop  offset="0.8662" style="stop-color:#5F5F5F"/>
		<stop  offset="1" style="stop-color:#7C7C7C"/>
	</radialGradient>
	<circle id="XMLID_33_" class="st9" cx="149.6" cy="130" r="67.9"/>
</g>
<linearGradient id="XMLID_17_" gradientUnits="userSpaceOnUse" x1="101.7818" y1="182.3464" x2="196.9907" y2="182.3464">
	<stop  offset="0" style="stop-color:#4D4D4F;stop-opacity:6.000000e-002"/>
	<stop  offset="2.540201e-003" style="stop-color:#4E4E50;stop-opacity:6.477558e-002"/>
	<stop  offset="6.197754e-002" style="stop-color:#555354;stop-opacity:0.1765"/>
	<stop  offset="0.1239" style="stop-color:#585657;stop-opacity:0.293"/>
	<stop  offset="0.1881" style="stop-color:#575657;stop-opacity:0.4137"/>
	<stop  offset="0.2551" style="stop-color:#535355;stop-opacity:0.5397"/>
	<stop  offset="0.326" style="stop-color:#505051;stop-opacity:0.673"/>
	<stop  offset="0.4035" style="stop-color:#4D4D4F;stop-opacity:0.8186"/>
	<stop  offset="0.5" style="stop-color:#4D4D4F"/>
	<stop  offset="0.5965" style="stop-color:#4D4D4F;stop-opacity:0.8071"/>
	<stop  offset="0.674" style="stop-color:#505051;stop-opacity:0.6521"/>
	<stop  offset="0.7449" style="stop-color:#535355;stop-opacity:0.5103"/>
	<stop  offset="0.8119" style="stop-color:#575657;stop-opacity:0.3763"/>
	<stop  offset="0.8761" style="stop-color:#585657;stop-opacity:0.2478"/>
	<stop  offset="0.938" style="stop-color:#555354;stop-opacity:0.124"/>
	<stop  offset="0.9975" style="stop-color:#4E4E50;stop-opacity:5.080402e-003"/>
	<stop  offset="1" style="stop-color:#4D4D4F;stop-opacity:0"/>
</linearGradient>
<path id="XMLID_40_" class="st10" d="M150.2,197.9c18.3,0,34.9-7.5,46.8-19.5l-12.8-11.5l-32.6,16.5l-39-14.3l-10.8,9.1
	C113.8,190.4,131.7,197.9,150.2,197.9z"/>
<g id="factory" class="st0">
	<g id="Calque_4_-_copie_3" class="st11">
		<path id="XMLID_58_" class="st12" d="M215.1,137.7c0.3-2.5,0.5-5.1,0.5-7.7c0-2.6-0.2-5.2-0.5-7.7h-21.2
			c-1.2-6.6-3.8-12.8-7.5-18.1l15-15c-1.6-2-3.3-3.9-5.1-5.8s-3.8-3.6-5.8-5.1l-15,15c-5.3-3.7-11.4-6.3-18.1-7.5V64.6
			c-2.5-0.3-5.1-0.5-7.7-0.5s-5.2,0.2-7.7,0.5v21.2c-6.6,1.2-12.8,3.8-18.1,7.5l-15-15c-2,1.6-3.9,3.3-5.8,5.1s-3.6,3.8-5.1,5.8
			l15,15c-3.7,5.3-6.3,11.4-7.5,18.1H84.2c-0.3,2.5-0.5,5.1-0.5,7.7c0,2.6,0.2,5.2,0.5,7.7h21.2c1.2,6.6,3.8,12.8,7.5,18.1l-15,15
			c1.6,2,3.3,3.9,5.1,5.8c1.9,1.9,3.8,3.6,5.8,5.1l15-15c5.3,3.7,11.4,6.3,18.1,7.5v21.2c2.5,0.3,5.1,0.5,7.7,0.5s5.2-0.2,7.7-0.5
			v-21.2c6.6-1.2,12.8-3.8,18.1-7.5l15,15c2-1.6,3.9-3.3,5.8-5.1c1.9-1.9,3.6-3.8,5.1-5.8l-15-15c3.7-5.3,6.3-11.4,7.5-18.1H215.1z
			 M149.7,153c-12.7,0-23-10.3-23-23c0-12.7,10.3-23,23-23s23,10.3,23,23C172.7,142.7,162.4,153,149.7,153z"/>
		<path id="XMLID_55_" class="st13" d="M149.5,75.1c-30.3,0-54.9,24.6-54.9,54.9c0,30.3,24.6,54.9,54.9,54.9s54.9-24.6,54.9-54.9
			C204.4,99.7,179.8,75.1,149.5,75.1z M149.7,153c-12.7,0-23-10.3-23-23c0-12.7,10.3-23,23-23s23,10.3,23,23
			C172.7,142.7,162.4,153,149.7,153z"/>
	</g>
	<g id="Calque_4_-_copie_2" class="st11">
		<g id="XMLID_2_">
			<path id="XMLID_21_" class="st14" d="M149.7,78.8c-28.2,0-51.2,22.9-51.2,51.2c0,28.2,22.9,51.2,51.2,51.2s51.2-22.9,51.2-51.2
				C200.8,101.8,177.9,78.8,149.7,78.8z M149.7,174.1c-24.4,0-44.1-19.8-44.1-44.1c0-24.4,19.8-44.1,44.1-44.1s44.1,19.8,44.1,44.1
				C193.8,154.4,174,174.1,149.7,174.1z"/>
		</g>
		<path id="XMLID_29_" class="st15" d="M215.6,129.9c0-4.2-3.5-7.7-7.8-7.7H200c-3.4,0-6.5-2.2-7.5-5.5c-0.8-2.7-1.9-5.2-3.2-7.7
			c-1.6-3-1.1-6.8,1.4-9.2l5.5-5.5c3-3,3.1-7.9,0.1-10.9c0,0,0,0-0.1-0.1c0,0,0,0-0.1-0.1c-3-3-7.9-2.9-10.9,0.1l-5.5,5.5
			c-2.4,2.4-6.2,3-9.2,1.4c-2.4-1.3-5-2.4-7.7-3.2c-3.3-1-5.5-4.1-5.5-7.5v-7.7c0-4.2-3.4-7.8-7.7-7.8c0,0-0.1,0-0.1,0s-0.1,0-0.1,0
			c-4.2,0-7.7,3.5-7.7,7.8v7.7c0,3.4-2.2,6.5-5.5,7.5c-2.7,0.8-5.2,1.9-7.7,3.2c-3,1.6-6.8,1.1-9.2-1.4l-5.5-5.5
			c-3-3-7.9-3.1-10.9-0.1c0,0,0,0-0.1,0.1c0,0,0,0-0.1,0.1c-3,3-2.9,7.9,0.1,10.9l5.5,5.5c2.4,2.4,3,6.2,1.4,9.2
			c-1.3,2.4-2.4,5-3.2,7.7c-1,3.3-4.1,5.5-7.5,5.5h-7.7c-4.2,0-7.8,3.4-7.8,7.7c0,0,0,0.1,0,0.1s0,0.1,0,0.1c0,4.2,3.5,7.7,7.8,7.7
			h7.7c3.4,0,6.5,2.2,7.5,5.5c0.8,2.7,1.9,5.2,3.2,7.7c1.6,3,1.1,6.8-1.4,9.2l-5.5,5.5c-3,3-3.1,7.9-0.1,10.9c0,0,0,0,0.1,0.1
			c0,0,0,0,0.1,0.1c3,3,7.9,2.9,10.9-0.1l5.5-5.5c2.4-2.4,6.2-3,9.2-1.4c2.4,1.3,5,2.4,7.7,3.2c3.3,1,5.5,4.1,5.5,7.5v7.7
			c0,4.2,3.4,7.8,7.7,7.8c0,0,0.1,0,0.1,0s0.1,0,0.1,0c4.2,0,7.7-3.5,7.7-7.8v-7.7c0-3.4,2.2-6.5,5.5-7.5c2.7-0.8,5.2-1.9,7.7-3.2
			c3-1.6,6.8-1.1,9.2,1.4l5.5,5.5c3,3,7.9,3.1,10.9,0.1c0,0,0,0,0.1-0.1c0,0,0,0,0.1-0.1c3-3,2.9-7.9-0.1-10.9l-5.5-5.5
			c-2.4-2.4-3-6.2-1.4-9.2c1.3-2.4,2.4-5,3.2-7.7c1-3.3,4.1-5.5,7.5-5.5h7.7c4.2,0,7.8-3.4,7.8-7.7
			C215.6,130.1,215.6,130,215.6,129.9C215.6,130,215.6,129.9,215.6,129.9z M149.7,153c-12.7,0-23-10.3-23-23c0-12.7,10.3-23,23-23
			s23,10.3,23,23C172.7,142.7,162.4,153,149.7,153z"/>
	</g>
</g>
<g id="Calque_12" class="st0">
	<path id="XMLID_30_" class="st16" d="M149.7,96.3c-18.6,0-33.7,15.1-33.7,33.7c0,18.6,15.1,33.7,33.7,33.7s33.7-15.1,33.7-33.7
		C183.4,111.4,168.3,96.3,149.7,96.3z M149.7,153c-12.7,0-23-10.3-23-23c0-12.7,10.3-23,23-23s23,10.3,23,23
		C172.7,142.7,162.4,153,149.7,153z"/>
	<g id="Calque_10_-_copie" class="st11">
		<polygon id="XMLID_47_" class="st13" points="145.7,119.2 153.9,119.2 160.5,110 154.5,107.2 149.2,107 144.2,107.3 138.8,109.9 
					"/>
		<polygon id="XMLID_46_" class="st13" points="143.9,139.2 139,132.7 127.7,132.9 129,139.3 132,143.6 135.3,147.5 140.6,150.3 		
			"/>
		<polygon id="XMLID_45_" class="st13" points="155.1,139.2 159.9,132.7 171.3,132.9 169.9,139.3 166.9,143.6 163.7,147.5 
			158.4,150.3 		"/>
	</g>
	<circle id="XMLID_4_" class="st17" cx="149.5" cy="130" r="23.2"/>
</g>
</svg>
