<svg version="1.0" id="Calque_126" xmlns="http://www.w3.org/2000/svg" x="0" y="0" width="300" height="260" style="enable-background:new 0 0 300 260" xml:space="preserve"><style>.st0{display:none}.st1{display:inline;fill:#353535}.st2{fill:#fff}.st2,.st9{display:inline}.st11{fill:#383838}</style><linearGradient id="XMLID_17_" gradientUnits="userSpaceOnUse" x1="101.782" y1="182.346" x2="196.991" y2="182.346"><stop offset="0" style="stop-color:#4d4d4f;stop-opacity:6.000000e-002"/><stop offset=".003" style="stop-color:#4e4e50;stop-opacity:6.477558e-002"/><stop offset=".062" style="stop-color:#555354;stop-opacity:.1765"/><stop offset=".124" style="stop-color:#585657;stop-opacity:.293"/><stop offset=".188" style="stop-color:#575657;stop-opacity:.4137"/><stop offset=".255" style="stop-color:#535355;stop-opacity:.5397"/><stop offset=".326" style="stop-color:#505051;stop-opacity:.673"/><stop offset=".404" style="stop-color:#4d4d4f;stop-opacity:.8186"/><stop offset=".5" style="stop-color:#4d4d4f"/><stop offset=".597" style="stop-color:#4d4d4f;stop-opacity:.8071"/><stop offset=".674" style="stop-color:#505051;stop-opacity:.6521"/><stop offset=".745" style="stop-color:#535355;stop-opacity:.5103"/><stop offset=".812" style="stop-color:#575657;stop-opacity:.3763"/><stop offset=".876" style="stop-color:#585657;stop-opacity:.2478"/><stop offset=".938" style="stop-color:#555354;stop-opacity:.124"/><stop offset=".998" style="stop-color:#4e4e50;stop-opacity:5.080402e-003"/><stop offset="1" style="stop-color:#4d4d4f;stop-opacity:0"/></linearGradient><g id="Calque_12"><path id="XMLID_30_" d="M149.7 96.3c-18.6 0-33.7 15.1-33.7 33.7s15.1 33.7 33.7 33.7 33.7-15.1 33.7-33.7-15.1-33.7-33.7-33.7zm0 56.7c-12.7 0-23-10.3-23-23s10.3-23 23-23 23 10.3 23 23-10.3 23-23 23z" style="fill:#ababab"/><g id="Calque_10_-_copie"><path id="XMLID_47_" class="st11" d="M145.7 119.2h8.2l6.6-9.2-6-2.8-5.3-.2-5 .3-5.4 2.6z"/><path id="XMLID_46_" class="st11" d="m143.9 139.2-4.9-6.5-11.3.2 1.3 6.4 3 4.3 3.3 3.9 5.3 2.8z"/><path id="XMLID_45_" class="st11" d="m155.1 139.2 4.8-6.5 11.4.2-1.4 6.4-3 4.3-3.2 3.9-5.3 2.8z"/></g><circle id="XMLID_4_" cx="149.5" cy="130" r="23.2" style="fill:none;stroke:#383838;stroke-width:4;stroke-miterlimit:10"/></g></svg>