<svg version="1.0" id="shield_-_copie" xmlns="http://www.w3.org/2000/svg" x="0" y="0" width="300" height="260" style="enable-background:new 0 0 300 260" xml:space="preserve"><style>.st1{fill:#fff}.st4{display:inline;opacity:.25}</style><g id="Calque_42_-_copie"><path id="XMLID_566_" d="M150 46.8c-45.8 0-83 37.2-83 83s37.2 83 83 83 83-37.2 83-83-37.2-83-83-83zm0 159.4c-42.2 0-76.4-34.2-76.4-76.4s34.2-76.4 76.4-76.4 76.4 34.2 76.4 76.4-34.2 76.4-76.4 76.4z" style="fill:#333"/><path id="XMLID_556_" class="st1" d="M150 50.8c-43.6 0-79 35.4-79 79s35.4 79 79 79 79-35.4 79-79-35.4-79-79-79zm0 155.4c-42.2 0-76.4-34.2-76.4-76.4s34.2-76.4 76.4-76.4 76.4 34.2 76.4 76.4-34.2 76.4-76.4 76.4z"/><linearGradient id="XMLID_2_" gradientUnits="userSpaceOnUse" x1="150" y1="59.88" x2="150" y2="162.36"><stop offset="0" style="stop-color:#fff"/><stop offset="1" style="stop-color:#fff;stop-opacity:0"/></linearGradient><ellipse id="XMLID_723_" cx="150" cy="111.1" rx="63.3" ry="51.2" style="opacity:.25;fill:url(#XMLID_2_)"/></g><g id="Calque_82_-_copie_2"><path id="XMLID_769_" d="M219.3 155.1c-4 .4-8 .7-11.9 1-1.9.1-3.6-.7-4.5-2.3-1.8-3.2-3.6-6.4-5.5-9.7-.9-1.6-.9-3.6.1-5.2 2.1-3.4 4.1-6.7 6.2-10 1-1.6 2.8-2.6 4.8-2.5 4 0 8.1.1 12.1.1 2 0 3.8 1 4.8 2.5.5.8 1 1.5 1.5 2.3v-1.5c0-3.7-.3-7.4-.8-11-.5.8-.9 1.5-1.4 2.3-.9 1.5-2.7 2.3-4.7 2.3l-12.1-.3c-2 0-3.8-1-4.8-2.7-2.1-3.3-4.2-6.7-6.4-10.1-1-1.7-1.1-3.7-.3-5.2 1.8-3.2 3.5-6.4 5.2-9.5.8-1.5 2.5-2.3 4.4-2.1 3.9.4 7.8.9 11.7 1.4.3 0 .6.1.9.2-.6-1.2-1.2-2.4-1.9-3.5-3.7-.5-7.4-1-11.1-1.4-1.9-.2-3.7-1.4-4.9-3.1-2.3-3.5-4.6-7.1-6.9-10.6-1.1-1.7-1.4-3.7-.7-5.2.6-1.3 1.1-2.5 1.7-3.7-1.2-.9-2.4-1.7-3.6-2.5-.5 1.1-1 2.3-1.5 3.5-.7 1.5-2.2 2.3-4 2.1-3.7-.4-7.4-.8-11.1-1.1-1.8-.1-3.5-1.3-4.5-3-2.1-3.6-4.1-7.2-6-10.8-.2-.4-.4-.9-.6-1.4-4.3-.7-8.7-1.2-13.2-1.2-3.6 0-7.2.3-10.7.8-.1.5-.3 1-.6 1.4-1.9 3.6-3.9 7.2-5.9 10.8-1 1.7-2.7 2.9-4.5 3-3.7.3-7.4.6-11.1 1-1.8.2-3.4-.6-4.1-2.2-.7-1.4-1.3-2.9-1.9-4.3-1 .6-1.9 1.2-2.9 1.8.6 1.5 1.3 3 2 4.4.7 1.5.5 3.5-.6 5.3-2.3 3.6-4.5 7.1-6.8 10.7-1.1 1.7-3 2.9-4.8 3.1-3.9.4-7.7.9-11.6 1.4-.8.1-1.5 0-2.1-.1-1.4 2.3-2.7 4.7-3.8 7.1.1-.2.3-.4.4-.6 1.2-1.6 3-2.8 4.9-3 3.9-.5 7.8-.9 11.7-1.3 1.9-.2 3.5.6 4.4 2.2 1.7 3.2 3.4 6.4 5.2 9.6.9 1.6.8 3.6-.3 5.3-2.2 3.4-4.3 6.9-6.4 10.2-1 1.6-2.9 2.7-4.8 2.7l-12.1.3c-2 0-3.8-.8-4.7-2.3-1.4-2.2-2.7-4.3-4-6.4-.4 1.9-.7 3.9-1 5.8.5.7.9 1.4 1.4 2.1.9 1.5.9 3.3-.1 4.8-.6 1-1.3 1.9-1.9 2.9v.4c0 2.2.1 4.3.3 6.4 1.7-2.6 3.4-5.3 5.2-8 1-1.5 2.8-2.5 4.8-2.5 4-.1 8.1-.1 12.1-.2 2 0 3.8.9 4.7 2.6 2 3.3 4.1 6.7 6.1 10.1 1 1.6 1.1 3.7.1 5.3-1.9 3.3-3.8 6.6-5.6 9.8-.9 1.6-2.6 2.4-4.5 2.3l-12-.9c-1.9-.2-3.8-1.3-4.9-2.8-1.7-2.4-3.3-4.8-4.9-7.1 1.1 5.7 2.9 11.1 5.1 16.2.2-.4.4-.8.6-1.1.8-1.4 2.5-2.2 4.4-2 4 .4 7.9.7 11.9 1 1.9.1 3.8 1.3 4.9 2.9 2.2 3.5 4.5 7 6.7 10.5 1.1 1.7 1.3 3.7.5 5.3-1.6 3.2-3.1 6.3-4.5 9.3-.6 1.3-1.9 2.1-3.4 2 2.1 1.8 4.3 3.4 6.6 4.9-.6-1.4-.7-2.9-.1-4.1 1.4-3.1 2.9-6.2 4.5-9.4.8-1.6 2.4-2.4 4.3-2.3 3.8.3 7.7.6 11.5.8 1.9.1 3.6 1.2 4.6 3 2.1 3.6 4.1 7.1 6.1 10.7 1 1.7 1 3.8.2 5.5-1.2 2.4-2.3 4.8-3.5 7.2 1.3.3 2.5.5 3.8.7.9-2 1.9-3.9 2.9-5.9.8-1.7 2.4-2.7 4.2-2.7 3.6.1 7.3 0 10.9-.1 1.8 0 3.4.9 4.2 2.6.9 1.9 1.8 3.7 2.7 5.6 1.4-.2 2.7-.5 4-.8-1-2.2-2.1-4.5-3.2-6.8-.8-1.6-.7-3.7.3-5.5 2-3.6 4.1-7.2 6.1-10.7 1-1.7 2.8-2.9 4.7-3 3.8-.2 7.7-.5 11.5-.9 1.9-.2 3.5.7 4.2 2.2 1.5 3.2 3 6.3 4.4 9.3.3.6.4 1.4.3 2.1 1.3-1 2.6-2 3.9-3.1-.3-.3-.5-.6-.7-1-1.4-3-2.8-6.1-4.3-9.2-.7-1.5-.5-3.5.6-5.2 2.3-3.5 4.5-7 6.8-10.5 1.1-1.7 3-2.8 4.9-3 4-.3 7.9-.7 11.9-1.1.8-.1 1.6 0 2.3.3.7-1.7 1.3-3.4 1.9-5.2-1.6.7-3 1.3-4.4 1.5zm-19.4-33.2c1 1.6 1 3.6.1 5.2-2 3.3-4 6.6-6.1 10-1 1.6-2.8 2.7-4.8 2.7-4 .1-8.1.1-12.1.2-2 0-3.8-1-4.7-2.7-2-3.5-4-6.9-6.1-10.4-1-1.7-1-3.8 0-5.5 2-3.5 4-6.9 5.9-10.4.9-1.7 2.7-2.7 4.7-2.6 4 .1 8 .2 12 .4 1.9.1 3.8 1.2 4.8 2.8 2.1 3.6 4.3 7 6.3 10.3zm-58.8 6.7c1-1.7 2.8-2.8 4.8-2.8H158c2 0 3.8 1.1 4.8 2.8 2 3.5 4 7 6 10.4 1 1.7.9 3.8-.1 5.5-2.1 3.5-4.1 7-6.2 10.5-1 1.7-2.8 2.8-4.7 2.8h-11.9c-1.9 0-3.7-1.1-4.7-2.8-2-3.5-4.1-7-6.1-10.5-1-1.7-1-3.8 0-5.5 1.9-3.4 4-6.9 6-10.4zm-.4-9.6c-2-3.5-4-7-5.9-10.4-.9-1.7-.9-3.8.1-5.5 2.1-3.5 4.1-7.1 6.1-10.6 1-1.7 2.7-2.8 4.6-2.8h11.7c1.9 0 3.7 1.1 4.7 2.8 2 3.5 4.1 7.1 6.2 10.6 1 1.7 1.1 3.8.1 5.5-1.9 3.4-3.9 6.9-5.9 10.4-1 1.7-2.8 2.7-4.8 2.7h-12.1c-2 .1-3.9-1-4.8-2.7zm29.6-43.6c.8-1.6 2.4-2.6 4.3-2.4 3.7.3 7.5.6 11.2 1 1.8.2 3.6 1.4 4.7 3.1 2.3 3.6 4.5 7.1 6.8 10.6 1.1 1.7 1.3 3.7.5 5.2-1.7 3.1-3.4 6.3-5.2 9.6-.9 1.6-2.6 2.5-4.6 2.4-4-.2-8-.3-12-.5-1.9-.1-3.8-1.1-4.8-2.9-2.1-3.5-4.2-7.1-6.2-10.6-1-1.7-1-3.8-.2-5.5 2.1-3.3 3.8-6.7 5.5-10zm-34.4-7.6c2-3.6 4-7.1 5.8-10.7.9-1.7 2.5-2.8 4.2-2.9 3.5-.1 7.1 0 10.6.1 1.7 0 3.3 1.2 4.3 2.9 1.9 3.6 3.9 7.2 5.9 10.7 1 1.7 1.1 3.8.3 5.5-1.7 3.4-3.5 6.8-5.3 10.3-.9 1.7-2.6 2.7-4.5 2.7-3.9-.1-7.8-.1-11.6 0-1.9 0-3.6-1-4.5-2.7-1.9-3.5-3.7-6.9-5.4-10.3-.9-1.8-.8-3.9.2-5.6zm-31 24.7c-.8-1.5-.6-3.5.5-5.2 2.3-3.5 4.5-7.1 6.8-10.7 1.1-1.7 2.9-2.9 4.7-3.1 3.7-.4 7.5-.7 11.2-.9 1.8-.1 3.4.8 4.3 2.5 1.7 3.4 3.5 6.8 5.4 10.2.9 1.7.9 3.8-.1 5.5-2 3.5-4.1 7.1-6.2 10.6-1 1.7-2.8 2.8-4.8 2.9-4 .1-8 .2-12 .4-1.9.1-3.7-.9-4.6-2.4-1.8-3.4-3.6-6.6-5.2-9.8zm-1.2 33.9c-1-1.6-.9-3.6.1-5.3 2.1-3.4 4.2-6.8 6.3-10.3 1-1.7 2.9-2.8 4.8-2.8 4-.1 8-.3 12-.4 1.9 0 3.7 1 4.7 2.6 1.9 3.4 3.9 6.9 5.9 10.4 1 1.7 1 3.8 0 5.5-2 3.5-4.1 7-6.1 10.5-1 1.7-2.8 2.7-4.7 2.7-4 0-8.1-.1-12.1-.1-2 0-3.8-1.1-4.8-2.7-2-3.4-4.1-6.8-6.1-10.1zm24.1 48.3c-3.9-.2-7.7-.4-11.6-.7-1.9-.1-3.7-1.3-4.8-3l-6.6-10.5c-1.1-1.7-1.2-3.7-.3-5.3 1.8-3.2 3.7-6.5 5.6-9.8.9-1.6 2.7-2.6 4.7-2.6 4 .1 8.1.1 12.1.2 2 0 3.8 1.1 4.8 2.8 2.1 3.5 4.1 7 6.2 10.6 1 1.7 1 3.8.1 5.5-1.9 3.5-3.8 6.9-5.6 10.3-1.1 1.6-2.8 2.5-4.6 2.5zm40 5.2c-2.1 3.6-4.1 7.1-6.1 10.7-1 1.7-2.7 2.8-4.4 2.9-3.7.1-7.4.1-11.1.1-1.8 0-3.5-1.1-4.4-2.8-1.9-3.5-3.9-7.1-6-10.7-1-1.7-1.1-3.8-.2-5.5 1.8-3.4 3.7-6.9 5.6-10.4.9-1.7 2.7-2.7 4.6-2.7h11.9c1.9 0 3.7 1 4.6 2.7 1.9 3.5 3.8 6.9 5.6 10.3 1 1.6.9 3.7-.1 5.4zm31.1-19.2c-2.2 3.5-4.5 7-6.7 10.5-1.1 1.7-2.9 2.9-4.8 3-3.9.3-7.7.6-11.6.8-1.9.1-3.6-.8-4.4-2.5-1.8-3.4-3.6-6.8-5.5-10.2-.9-1.7-.9-3.8.1-5.5 2.1-3.5 4.1-7 6.2-10.5 1-1.7 2.8-2.8 4.8-2.8 4-.1 8.1-.1 12.1-.2 2 0 3.7.9 4.7 2.5 1.9 3.3 3.8 6.5 5.5 9.7.8 1.5.7 3.5-.4 5.2z" style="opacity:.25;fill:#fff"/></g></svg>