<?xml version="1.0" encoding="utf-8"?>
<!-- Generator: Adobe Illustrator 19.0.0, SVG Export Plug-In . SVG Version: 6.00 Build 0)  -->
<svg version="1.0" xmlns="http://www.w3.org/2000/svg" xmlns:xlink="http://www.w3.org/1999/xlink" x="0px" y="0px" width="300px" height="260px"
	 viewBox="0 0 300 260" style="enable-background:new 0 0 300 260;" xml:space="preserve">
<style type="text/css">
	.st0{display:none;}
	.st1{display:inline;}
	.st2{fill:#484748;}
	.st3{fill:#F79520;}
	.st4{fill:#FECD98;}
	.st5{fill:none;stroke:#333333;stroke-width:13;stroke-miterlimit:10;}
	.st6{fill:url(#XMLID_5_);}
	.st7{fill:none;stroke:#FFFFFF;stroke-width:2.5;stroke-miterlimit:10;}
	.st8{display:inline;opacity:0.75;}
	.st9{opacity:0.25;}
	.st10{fill:#FFFFFF;}
</style>
<g id="speed" class="st0">
	<g id="Calque_22" class="st1">
		<g id="Calque_23">
			<path id="XMLID_134_" class="st2" d="M166.7,63.8l-14.9-19.1c-1-1.3-3-1.3-4,0L133,63.8c-1.3,1.6-0.1,4,2,4h8.8
				c0.7,0,1.4-0.3,1.9-0.9l2.2-2.6c1-1.2,2.8-1.2,3.9,0l2.2,2.6c0.5,0.6,1.2,0.9,1.9,0.9h8.8C166.8,67.8,168,65.4,166.7,63.8z"/>
			<path id="XMLID_128_" class="st3" d="M162.1,63.1l-11.2-15c-0.5-0.7-1.6-0.7-2.2,0l-11.2,15c-0.7,0.9,0,2.2,1.1,2.2h4.4
				c0.4,0,0.7-0.1,1-0.4l4.8-4.8c0.5-0.5,1.4-0.5,1.9,0l4.7,4.8c0.3,0.3,0.6,0.4,1,0.4h4.5C162.2,65.3,162.8,64,162.1,63.1z"/>
			<path id="XMLID_138_" class="st4" d="M138.7,65.3h0.3l9.8-13.2c0.5-0.7,1.6-0.7,2.2,0l9.8,13.2h0.3c1.1,0,1.8-1.3,1.1-2.2
				l-11.2-15c-0.5-0.7-1.6-0.7-2.2,0l-11.2,15C136.9,64,137.6,65.3,138.7,65.3z"/>
		</g>
		<g id="Calque_23_-_copie_2">
			<path id="XMLID_137_" class="st2" d="M166.7,194.8l-14.9,19.1c-1,1.3-3,1.3-4,0L133,194.8c-1.3-1.6-0.1-4,2-4h8.8
				c0.7,0,1.4,0.3,1.9,0.9l2.2,2.6c1,1.2,2.8,1.2,3.9,0l2.2-2.6c0.5-0.6,1.2-0.9,1.9-0.9h8.8C166.8,190.7,168,193.1,166.7,194.8z"/>
			<path id="XMLID_136_" class="st3" d="M162.1,195.4l-11.2,15c-0.5,0.7-1.6,0.7-2.2,0l-11.2-15c-0.7-0.9,0-2.2,1.1-2.2h4.4
				c0.4,0,0.7,0.1,1,0.4l4.8,4.8c0.5,0.5,1.4,0.5,1.9,0l4.7-4.8c0.3-0.3,0.6-0.4,1-0.4h4.5C162.2,193.3,162.8,194.5,162.1,195.4z"/>
			<path id="XMLID_135_" class="st4" d="M138.7,193.3h0.3l9.8,13.2c0.5,0.7,1.6,0.7,2.2,0l9.8-13.2h0.3c1.1,0,1.8,1.3,1.1,2.2
				l-11.2,15c-0.5,0.7-1.6,0.7-2.2,0l-11.2-15C136.9,194.5,137.6,193.3,138.7,193.3z"/>
		</g>
	</g>
	<g id="Calque_22_-_copie" class="st1">
		<g id="Calque_23_-_copie">
			<path id="XMLID_142_" class="st2" d="M101.6,82l-23.9,3.3c-1.6,0.2-2.6,1.9-2,3.4l9.1,22.4c0.8,1.9,3.5,2.1,4.5,0.3l4.4-7.6
				c0.4-0.6,0.4-1.4,0.2-2.1l-1.2-3.2c-0.5-1.5,0.4-3.1,1.9-3.3l3.4-0.6c0.7-0.1,1.4-0.6,1.7-1.2l4.4-7.6
				C105.1,83.9,103.6,81.7,101.6,82z"/>
			<path id="XMLID_141_" class="st3" d="M98.7,85.6l-18.6,2.2c-0.9,0.1-1.4,1-1.1,1.9l7.4,17.2c0.4,1,1.9,1.1,2.4,0.1l2.2-3.9
				c0.2-0.3,0.2-0.7,0.1-1l-1.8-6.6c-0.2-0.7,0.2-1.5,1-1.7l6.5-1.7c0.4-0.1,0.7-0.3,0.8-0.6l2.3-3.9
				C100.6,86.7,99.8,85.5,98.7,85.6z"/>
			<path id="XMLID_140_" class="st4" d="M88.9,107l0.1-0.2l-6.5-15.1c-0.4-0.8,0.2-1.8,1.1-1.9l16.3-1.9l0.1-0.2
				c0.6-1-0.2-2.2-1.3-2l-18.6,2.2c-0.9,0.1-1.4,1-1.1,1.9l7.4,17.2C86.9,107.9,88.3,107.9,88.9,107z"/>
		</g>
		<g id="Calque_23_-_copie_3">
			<path id="XMLID_146_" class="st2" d="M215,147.5l9.1,22.4c0.6,1.5-0.4,3.2-2,3.4l-23.9,3.3c-2.1,0.3-3.6-1.9-2.5-3.7l4.4-7.6
				c0.4-0.6,1-1.1,1.7-1.2l3.4-0.6c1.5-0.3,2.5-1.9,1.9-3.3l-1.2-3.2c-0.3-0.7-0.2-1.5,0.2-2.1l4.4-7.6
				C211.6,145.3,214.2,145.5,215,147.5z"/>
			<path id="XMLID_145_" class="st3" d="M213.3,151.7l7.4,17.2c0.4,0.8-0.2,1.8-1.1,1.9L201,173c-1.1,0.1-1.9-1.1-1.3-2l2.2-3.9
				c0.2-0.3,0.5-0.5,0.8-0.6l6.6-1.7c0.7-0.2,1.2-0.9,1-1.7l-1.8-6.5c-0.1-0.4-0.1-0.7,0.1-1l2.3-3.9
				C211.4,150.6,212.8,150.7,213.3,151.7z"/>
			<path id="XMLID_144_" class="st4" d="M199.7,171l0.1-0.2l16.3-1.9c0.9-0.1,1.4-1,1.1-1.9l-6.5-15.1l0.1-0.2c0.6-1,2-0.9,2.4,0.1
				l7.4,17.2c0.4,0.8-0.2,1.8-1.1,1.9L201,173C199.9,173.1,199.1,171.9,199.7,171z"/>
		</g>
	</g>
	<g id="Calque_22_-_copie_2" class="st1">
		<g id="Calque_23_-_copie_4_1_">
			<path id="XMLID_148_" class="st2" d="M84.7,147.5l-9.1,22.4c-0.6,1.5,0.4,3.2,2,3.4l23.9,3.3c2.1,0.3,3.6-1.9,2.5-3.7l-4.4-7.6
				c-0.4-0.6-1-1.1-1.7-1.2l-3.4-0.6c-1.5-0.3-2.5-1.9-1.9-3.3l1.2-3.2c0.3-0.7,0.2-1.5-0.2-2.1l-4.4-7.6
				C88.2,145.3,85.5,145.5,84.7,147.5z"/>
			<path id="XMLID_147_" class="st3" d="M86.5,151.7L79,168.9c-0.4,0.8,0.2,1.8,1.1,1.9l18.6,2.2c1.1,0.1,1.9-1.1,1.3-2l-2.2-3.9
				c-0.2-0.3-0.5-0.5-0.8-0.6l-6.6-1.7c-0.7-0.2-1.2-0.9-1-1.7l1.8-6.5c0.1-0.4,0.1-0.7-0.1-1l-2.3-3.9
				C88.3,150.6,86.9,150.7,86.5,151.7z"/>
			<path id="XMLID_143_" class="st4" d="M100.1,171l-0.1-0.2l-16.3-1.9c-0.9-0.1-1.4-1-1.1-1.9l6.5-15.1l-0.1-0.2
				c-0.6-1-2-0.9-2.4,0.1L79,168.9c-0.4,0.8,0.2,1.8,1.1,1.9l18.6,2.2C99.8,173.1,100.6,171.9,100.1,171z"/>
		</g>
		<g id="Calque_23_-_copie_4">
			<path id="XMLID_152_" class="st2" d="M198.2,82l23.9,3.3c1.6,0.2,2.6,1.9,2,3.4l-9.1,22.4c-0.8,1.9-3.5,2.1-4.5,0.3l-4.4-7.6
				c-0.4-0.6-0.4-1.4-0.2-2.1l1.2-3.2c0.5-1.5-0.4-3.1-1.9-3.3l-3.4-0.6c-0.7-0.1-1.4-0.6-1.7-1.2l-4.4-7.6
				C194.6,83.9,196.1,81.7,198.2,82z"/>
			<path id="XMLID_151_" class="st3" d="M201,85.6l18.6,2.2c0.9,0.1,1.4,1,1.1,1.9l-7.4,17.2c-0.4,1-1.9,1.1-2.4,0.1l-2.2-3.9
				c-0.2-0.3-0.2-0.7-0.1-1l1.8-6.6c0.2-0.7-0.2-1.5-1-1.7l-6.5-1.7c-0.4-0.1-0.7-0.3-0.8-0.6l-2.3-3.9
				C199.1,86.7,199.9,85.5,201,85.6z"/>
			<path id="XMLID_150_" class="st4" d="M210.9,107l-0.1-0.2l6.5-15.1c0.4-0.8-0.2-1.8-1.1-1.9l-16.3-1.9l-0.1-0.2
				c-0.6-1,0.2-2.2,1.3-2l18.6,2.2c0.9,0.1,1.4,1,1.1,1.9l-7.4,17.2C212.8,107.9,211.4,107.9,210.9,107z"/>
		</g>
	</g>
</g>
<g id="Calque_52_-_copie">
	<path id="XMLID_4_" class="st5" d="M145.9,164.3c4.1,5.1,20.1,20.5,52.6,5.9c0.1,0,0.1-0.1,0.2-0.1c7.4-4.5,4.1-8.3-2.8-11.7
		c-6.9-3.4-17.9-13.2-12.3-25.6c5.6-12.4,1.9-14.9-16.3-20.9c-17.4-5.8-51.8-24.2-61-31.1c-0.6-0.5-1.5-0.2-1.8,0.5
		c-1.8,4.5-5.5,18.7,17.2,26.9c27.1,9.8,35.6,13.5,35.6,13.5s7.9,3,7.3,5.1c-0.4,1.6-0.7,2.4-6.1,1.1c-2.7-0.7-39.1-10.4-52.2-21.2
		c-0.6-0.5-1.5-0.3-1.8,0.4c-1.8,4.1-4.8,15,17.5,24.7c12.1,5.2,23.7,7.1,27.1,7.6c0.6,0.1,1.2,0.1,1.8,0.2
		c2.9,0.1,13.3,0.6,13.2,3.5c-0.1,2.4-2.4,3.3-11.1,2.1c-16.3-2.2-32.5-5.6-38.5-9.6c-0.7-0.4-1.5,0.4-1,1.1
		c4,6.3,14.4,20.5,27.3,22c12.5,1.5,8.5,3.1,5.8,3.9C145.7,162.7,145.4,163.6,145.9,164.3z"/>
	<linearGradient id="XMLID_5_" gradientUnits="userSpaceOnUse" x1="102.9302" y1="128.4217" x2="202.8905" y2="128.4217">
		<stop  offset="0" style="stop-color:#E8E8E8"/>
		<stop  offset="0.5" style="stop-color:#BABBBB"/>
		<stop  offset="1" style="stop-color:#E8E8E8"/>
	</linearGradient>
	<path id="XMLID_3_" class="st6" d="M145.9,164.3c4.1,5.1,20.1,20.5,52.6,5.9c0.1,0,0.1-0.1,0.2-0.1c7.4-4.5,4.1-8.3-2.8-11.7
		c-6.9-3.4-17.9-13.2-12.3-25.6c5.6-12.4,1.9-14.9-16.3-20.9c-17.4-5.8-51.8-24.2-61-31.1c-0.6-0.5-1.5-0.2-1.8,0.5
		c-1.8,4.5-6.2,19.1,16,28.4c27.6,11.5,45.1,13.8,44,17c-0.5,1.5-0.6,1.6-6.1,1.1c-6.1-0.6-34.9-4.5-52.2-21.2
		c-0.6-0.5-1.5-0.3-1.8,0.4c-1.8,4.1-4.4,14.2,17.5,24.7c15.8,7.5,42.1,6.8,42.1,11.3c0,2.9-4.7,3.5-13.5,2.3
		c-16.3-2.2-30.2-5.8-36.2-9.8c-0.7-0.4-1.5,0.4-1,1.1c4,6.3,14.4,20.5,27.3,22c5.9,0.7,11.7-0.1,11.8,2c0.1,1.8-4.6,1.5-6,1.9
		C145.7,162.7,145.4,163.6,145.9,164.3z"/>
	<path id="XMLID_2_" class="st7" d="M145.9,164.3c4.1,5.1,20.1,20.5,52.6,5.9c0.1,0,0.1-0.1,0.2-0.1c7.4-4.5,4.1-8.3-2.8-11.7
		c-6.9-3.4-17.9-13.2-12.3-25.6c5.6-12.4,1.9-14.9-16.3-20.9c-17.4-5.8-51.8-24.2-61-31.1c-0.6-0.5-1.5-0.2-1.8,0.5
		c-1.8,4.5-6.2,19.1,16,28.4c27.6,11.5,45.1,13.8,44,17c-0.5,1.5-0.6,1.6-6.1,1.1c-6.1-0.6-34.9-4.5-52.2-21.2
		c-0.6-0.5-1.5-0.3-1.8,0.4c-1.8,4.1-4.4,14.2,17.5,24.7c15.8,7.5,42.1,6.8,42.1,11.3c0,2.9-4.7,3.5-13.5,2.3
		c-16.3-2.2-30.2-5.8-36.2-9.8c-0.7-0.4-1.5,0.4-1,1.1c4,6.3,14.4,20.5,27.3,22c5.9,0.7,11.7-0.1,11.8,2c0.1,1.8-4.6,1.5-6,1.9
		C145.7,162.7,145.4,163.6,145.9,164.3z"/>
	<g id="Calque_13" class="st0">
		<path id="XMLID_8_" class="st8" d="M122.3,109c18.3,7.6,32.1,11.2,39.1,13.7c-0.7-2.5-2.7-4.6-4.9-6.2
			c-13.1-10.1-30.9-12.2-44.4-21.7c-3.1-2.2-6-5-7.4-8.5C104.1,92.7,106.3,102.3,122.3,109z"/>
		<path id="XMLID_7_" class="st8" d="M123.7,131.1c11.6,5.5,28.9,6.6,37.3,8.6c-1.1-1.9-2.9-3.4-4.8-4.6c-13.9-9-31.8-9.7-46-18.1
			c-1.8-1.1-3.6-2.4-5.1-3.9C105.8,117.9,109.8,124.4,123.7,131.1z"/>
		<path id="XMLID_9_" class="st8" d="M142.7,157.2c2.7,0.3,5.5,0.3,7.6,0.4c-0.4-2.7-2.6-5-4.8-6.8c-8.6-7-18.6-8-28.8-12.5
			C121.1,145,130.3,155.8,142.7,157.2z"/>
	</g>
	<g id="XMLID_6_" class="st9">
		<path id="XMLID_10_" class="st10" d="M114.5,135.4c-0.7-0.4-1.5,0.4-1,1.1c3,4.7,9.4,13.7,17.8,18.6c3.4-3.7,7.2-7.4,11.4-11.2
			C129.9,141.8,119.5,138.7,114.5,135.4z"/>
		<path id="XMLID_11_" class="st10" d="M106.3,80.7c-0.6-0.5-1.5-0.2-1.8,0.5c-1.8,4.5-6.2,19.1,16,28.4c27.6,11.5,45.1,13.8,44,17
			c-0.5,1.5-0.6,1.6-6.1,1.1c-6.1-0.6-34.9-4.5-52.2-21.2c-0.6-0.5-1.5-0.3-1.8,0.4c-1.8,4.1-4.4,14.2,17.5,24.7
			c8,3.8,18.6,5.5,27.2,6.8c9.4-7.6,20.4-14.8,33-20.3c-3-2.1-7.9-3.9-15-6.2C149.9,106.1,115.4,87.7,106.3,80.7z"/>
	</g>
</g>
<g id="energy">
</g>
</svg>
