<svg version="1.0" xmlns="http://www.w3.org/2000/svg" width="300" height="260" style="enable-background:new 0 0 300 260" xml:space="preserve"><style>.st0{display:none}.st1{display:inline}.st2{fill:#484748}.st3{fill:#f79520}.st4{fill:#fecd98}.st8{display:inline;opacity:.75}.st10{fill:#fff}</style><g id="Calque_52_-_copie"><path id="XMLID_4_" d="M145.9 164.3c4.1 5.1 20.1 20.5 52.6 5.9.1 0 .1-.1.2-.1 7.4-4.5 4.1-8.3-2.8-11.7-6.9-3.4-17.9-13.2-12.3-25.6 5.6-12.4 1.9-14.9-16.3-20.9-17.4-5.8-51.8-24.2-61-31.1-.6-.5-1.5-.2-1.8.5-1.8 4.5-5.5 18.7 17.2 26.9 27.1 9.8 35.6 13.5 35.6 13.5s7.9 3 7.3 5.1c-.4 1.6-.7 2.4-6.1 1.1-2.7-.7-39.1-10.4-52.2-21.2-.6-.5-1.5-.3-1.8.4-1.8 4.1-4.8 15 17.5 24.7 12.1 5.2 23.7 7.1 27.1 7.6.6.1 1.2.1 1.8.2 2.9.1 13.3.6 13.2 3.5-.1 2.4-2.4 3.3-11.1 2.1-16.3-2.2-32.5-5.6-38.5-9.6-.7-.4-1.5.4-1 1.1 4 6.3 14.4 20.5 27.3 22 12.5 1.5 8.5 3.1 5.8 3.9-.9.1-1.2 1-.7 1.7z" style="fill:none;stroke:#333;stroke-width:13;stroke-miterlimit:10"/><linearGradient id="XMLID_5_" gradientUnits="userSpaceOnUse" x1="102.93" y1="128.422" x2="202.891" y2="128.422"><stop offset="0" style="stop-color:#e8e8e8"/><stop offset=".5" style="stop-color:#babbbb"/><stop offset="1" style="stop-color:#e8e8e8"/></linearGradient><path id="XMLID_3_" d="M145.9 164.3c4.1 5.1 20.1 20.5 52.6 5.9.1 0 .1-.1.2-.1 7.4-4.5 4.1-8.3-2.8-11.7-6.9-3.4-17.9-13.2-12.3-25.6 5.6-12.4 1.9-14.9-16.3-20.9-17.4-5.8-51.8-24.2-61-31.1-.6-.5-1.5-.2-1.8.5-1.8 4.5-6.2 19.1 16 28.4 27.6 11.5 45.1 13.8 44 17-.5 1.5-.6 1.6-6.1 1.1-6.1-.6-34.9-4.5-52.2-21.2-.6-.5-1.5-.3-1.8.4-1.8 4.1-4.4 14.2 17.5 24.7 15.8 7.5 42.1 6.8 42.1 11.3 0 2.9-4.7 3.5-13.5 2.3-16.3-2.2-30.2-5.8-36.2-9.8-.7-.4-1.5.4-1 1.1 4 6.3 14.4 20.5 27.3 22 5.9.7 11.7-.1 11.8 2 .1 1.8-4.6 1.5-6 1.9-.7.2-1 1.1-.5 1.8z" style="fill:url(#XMLID_5_)"/><path id="XMLID_2_" d="M145.9 164.3c4.1 5.1 20.1 20.5 52.6 5.9.1 0 .1-.1.2-.1 7.4-4.5 4.1-8.3-2.8-11.7-6.9-3.4-17.9-13.2-12.3-25.6 5.6-12.4 1.9-14.9-16.3-20.9-17.4-5.8-51.8-24.2-61-31.1-.6-.5-1.5-.2-1.8.5-1.8 4.5-6.2 19.1 16 28.4 27.6 11.5 45.1 13.8 44 17-.5 1.5-.6 1.6-6.1 1.1-6.1-.6-34.9-4.5-52.2-21.2-.6-.5-1.5-.3-1.8.4-1.8 4.1-4.4 14.2 17.5 24.7 15.8 7.5 42.1 6.8 42.1 11.3 0 2.9-4.7 3.5-13.5 2.3-16.3-2.2-30.2-5.8-36.2-9.8-.7-.4-1.5.4-1 1.1 4 6.3 14.4 20.5 27.3 22 5.9.7 11.7-.1 11.8 2 .1 1.8-4.6 1.5-6 1.9-.7.2-1 1.1-.5 1.8z" style="fill:none;stroke:#fff;stroke-width:2.5;stroke-miterlimit:10"/><g id="XMLID_6_" style="opacity:.25"><path id="XMLID_10_" class="st10" d="M114.5 135.4c-.7-.4-1.5.4-1 1.1 3 4.7 9.4 13.7 17.8 18.6 3.4-3.7 7.2-7.4 11.4-11.2-12.8-2.1-23.2-5.2-28.2-8.5z"/><path id="XMLID_11_" class="st10" d="M106.3 80.7c-.6-.5-1.5-.2-1.8.5-1.8 4.5-6.2 19.1 16 28.4 27.6 11.5 45.1 13.8 44 17-.5 1.5-.6 1.6-6.1 1.1-6.1-.6-34.9-4.5-52.2-21.2-.6-.5-1.5-.3-1.8.4-1.8 4.1-4.4 14.2 17.5 24.7 8 3.8 18.6 5.5 27.2 6.8 9.4-7.6 20.4-14.8 33-20.3-3-2.1-7.9-3.9-15-6.2-17.2-5.8-51.7-24.2-60.8-31.2z"/></g></g></svg>