<svg version="1.0" id="圖層_1" xmlns="http://www.w3.org/2000/svg" x="0" y="0" width="300" height="260" style="enable-background:new 0 0 300 260" xml:space="preserve"><style>.st4{fill:none;stroke:#441817;stroke-width:8;stroke-miterlimit:10}.st5{fill:#a56d67}.st6{opacity:.52;fill:#825656}.st7{opacity:.18;fill:#fff;enable-background:new}.st8{opacity:.36;fill:#773919}</style><g id="Calque_7"><path id="XMLID_36_" class="st4" d="M82.1 237.5s-14.2-4.1-11.5-10.8c3-7.5 1.9-12.9 5.6-15.1s16.6-6.4 23.4 3.1 7.4 6.2 5.1 17.6c-1.1 5.7-4.8 5.2-11 7.6-6 2.5-11.6-2.4-11.6-2.4z"/><path id="XMLID_33_" class="st5" d="M82.1 237.5s-14.2-4.1-11.5-10.8c3-7.5 1.9-12.9 5.6-15.1s16.6-6.4 23.4 3.1 7.4 6.2 5.1 17.6c-1.1 5.7-4.8 5.2-11 7.6-6 2.5-11.6-2.4-11.6-2.4z"/><path id="XMLID_39_" class="st6" d="M96.6 231.5c-5.1 1.8-11.9 2.5-16.5-2.9-2.5-3-5.6-5.3-7.9-6.7-.4 1.5-.8 3.1-1.5 4.9-2.7 6.6 11.5 10.8 11.5 10.8s5.6 4.9 11.6 2.5c6.3-2.4 9.9-1.9 11-7.6.7-3.4 1.1-5.5 1.2-7-2.8 1.7-6.1 4.8-9.4 6z"/><path id="XMLID_45_" class="st7" d="M75.7 218.7s-.5-3.5 1.8-4.6c2.2-1.3 3.9-1.5 3.3.2-.6 1.8-1.6 5.6-3 6-1.5.2-2.1-1.6-2.1-1.6z"/><path id="XMLID_46_" class="st8" d="M84.1 211.9c2.5-.8 5.4-.5 7.7.8.3.2.6.4.9.5 1.1.4 2.4.3 3.4.8.7.4 1.2 1.1 1.6 1.8.9 1.4 1.7 2.9 2.7 4.2.6.7 1.2 1.3 1.6 2.1.6 1 .8 2.2 1.1 3.3-1.4-1.4-3-2.5-4.8-3.3-.3-.1-.8-.2-1 0-.3.4.2.8.4 1.1 1.1 1.2.7 3.2 1.6 4.6-1.3-.9-2-2.4-2.9-3.6-.9-1.3-2.2-2.4-3.8-2.5-.7 0-1.4.2-2.1-.1-.7-.3-1.1-1.1-1.4-1.9-.3-.7-.6-1.5-.9-2.2-.1-.4-.3-.7-.6-1-.6-.5-1.5-.3-2.3-.4-.4 0-.7-.2-1-.3-.7-.4-1.2-1.2-1.3-2s.5-1.5 1.1-1.9"/></g><g id="Calque_7_-_copie"><path id="XMLID_11_" class="st4" d="M252.7 83.8s-12.7-7.5-15.7-1c-3.4 7.3-8.1 10.2-7.2 14.5.9 4.2 6.7 16.5 18.3 14.9s9.6 1.1 16.3-8.3c3.4-4.7.5-7-2-13.2-2.3-6.2-9.7-6.9-9.7-6.9z"/><path id="XMLID_15_" class="st5" d="M252.7 83.8s-12.7-7.5-15.7-1c-3.4 7.3-8.1 10.2-7.2 14.5.9 4.2 6.7 16.5 18.3 14.9s9.6 1.1 16.3-8.3c3.4-4.7.5-7-2-13.2-2.3-6.2-9.7-6.9-9.7-6.9z"/><path id="XMLID_13_" class="st6" d="M238.6 103.9c-2.7-2.3-5.3-9-7.2-11.6-.1.3-1.8 3.5-1.9 3.8 0 .3.5.9.5 1.2 1 6.1 2.5 7.7 7.5 12.1 4.8 4.4 11.8 1.8 11.8 1.8s11.6.9 14.1-3.9c.2-.7 1.3-3.5 1.4-4.2-2.3 2.1-7.6 3.6-11.4 4.6-8 1.9-10.7-.3-14.8-3.8z"/><path id="XMLID_10_" class="st7" d="M240.4 83.5s4.7-1.6 7.5 2c2.9 3.5 4.1 6.3 1.3 5.7-2.8-.5-8.8-1.3-10-3.7-1.1-2.6 1.2-4 1.2-4z"/><path id="XMLID_9_" class="st8" d="M235.3 95.1c.7 2.6 2.5 4.8 5 6 .3.2.7.3 1 .5 1 .6 1.6 1.8 2.6 2.4.7.4 1.6.3 2.5.3 1.8-.1 3.6-.4 5.3-.2.9.1 1.9.2 2.8.1 1.2-.1 2.4-.6 3.6-1.1-2-.3-3.9-1-5.6-2-.3-.2-.7-.5-.5-.8.2-.4.8-.3 1.3-.3 1.7.2 3.3-1.4 5.1-1.5-1.5-.5-3.3-.3-4.9-.3-1.7 0-3.4-.4-4.3-1.7-.4-.6-.6-1.3-1.2-1.7-.7-.4-1.6-.3-2.5-.1-.8.2-1.7.4-2.5.6-.4.1-.8.2-1.2.1-.8-.2-1.1-1.1-1.6-1.7-.2-.3-.5-.5-.9-.7-.8-.4-1.7-.3-2.5.1s-1.3 1.3-1.1 2.2"/></g></svg>