<svg version="1.0" xmlns="http://www.w3.org/2000/svg" width="300" height="260" style="enable-background:new 0 0 300 260" xml:space="preserve"><path d="M150 53.8c-42.1 0-76.2 34.1-76.2 76.2s34.1 76.2 76.2 76.2 76.2-34.1 76.2-76.2-34.1-76.2-76.2-76.2zm-.4 144.1c-37.5 0-67.9-30.4-67.9-67.9 0-37.5 30.4-67.9 67.9-67.9s67.9 30.4 67.9 67.9c0 37.5-30.4 67.9-67.9 67.9z" style="fill:#68c7f1"/><path d="M150 60.1c-38.6 0-69.9 31.3-69.9 69.9 0 38.6 31.3 69.9 69.9 69.9s69.9-31.3 69.9-69.9c0-38.6-31.3-69.9-69.9-69.9zm-.4 137.8c-37.5 0-67.9-30.4-67.9-67.9 0-37.5 30.4-67.9 67.9-67.9s67.9 30.4 67.9 67.9c0 37.5-30.4 67.9-67.9 67.9z" style="fill:#fff"/></svg>