<?xml version="1.0" encoding="utf-8"?>
<!-- Generator: Adobe Illustrator 19.0.0, SVG Export Plug-In . SVG Version: 6.00 Build 0)  -->
<svg version="1.0" xmlns="http://www.w3.org/2000/svg" xmlns:xlink="http://www.w3.org/1999/xlink" x="0px" y="0px" width="180px" height="280px"
	 viewBox="0 0 180 280" style="enable-background:new 0 0 180 280;" xml:space="preserve">
<style type="text/css">
	.st0{fill:none;}
	.st1{opacity:0.5;fill:none;stroke:#000000;stroke-width:9;stroke-miterlimit:10;}
	.st2{fill:none;stroke:#FFFFFF;stroke-width:4;stroke-miterlimit:10;}
	.st3{fill:#282828;}
	.st4{fill:url(#Nouvelle_nuance_de_motif_2);stroke:#282828;stroke-miterlimit:10;}
	.st5{display:none;}
	.st6{display:inline;fill:none;stroke:#282828;stroke-width:8;stroke-miterlimit:10;}
	.st7{display:inline;fill:none;stroke:#FFFFFF;stroke-width:5;stroke-miterlimit:10;}
	.st8{display:inline;}
	.st9{fill:#F4F4F4;stroke:#282828;stroke-miterlimit:10;}
	.st10{fill:none;stroke:#282828;stroke-width:8;stroke-miterlimit:10;}
	.st11{fill:none;stroke:#E94C45;stroke-width:5;stroke-miterlimit:10;}
	.st12{fill:#E94C45;stroke:#282828;stroke-miterlimit:10;}
</style>
<pattern  width="6" height="9" patternUnits="userSpaceOnUse" id="Nouvelle_nuance_de_motif_2" viewBox="1.8 -10.8 6 9" style="overflow:visible;">
	<g id="XMLID_85_">
		<polygon id="XMLID_91_" class="st0" points="1.8,-10.8 7.8,-10.8 7.8,-1.8 1.8,-1.8 		"/>
		<path id="XMLID_90_" d="M9.6-1.8c0,1-0.8,1.8-1.8,1.8S6-0.8,6-1.8s0.8-1.8,1.8-1.8S9.6-2.8,9.6-1.8z"/>
		<path id="XMLID_89_" d="M3.6-1.8c0,1-0.8,1.8-1.8,1.8S0-0.8,0-1.8s0.8-1.8,1.8-1.8S3.6-2.8,3.6-1.8z"/>
		<path id="XMLID_88_" d="M6.6-6.3c0,1-0.8,1.8-1.8,1.8S3-5.3,3-6.3s0.8-1.8,1.8-1.8S6.6-7.3,6.6-6.3z"/>
		<path id="XMLID_87_" d="M9.6-10.8c0,1-0.8,1.8-1.8,1.8S6-9.8,6-10.8s0.8-1.8,1.8-1.8S9.6-11.8,9.6-10.8z"/>
		<path id="XMLID_86_" d="M3.6-10.8c0,1-0.8,1.8-1.8,1.8S0-9.8,0-10.8s0.8-1.8,1.8-1.8S3.6-11.8,3.6-10.8z"/>
	</g>
</pattern>
<g id="Calque_4">
	<path id="XMLID_45_" class="st1" d="M101.2,206.4l33.7-58.4c2.9-5,2.9-11.1,0-16l-33.7-58.4C91.3,68.7,80.2,66,68.5,66
		C43.6,66,21.6,78.3,8.2,97.1c20.2,3.9,35.4,21.6,35.4,42.9s-15.3,39-35.4,42.9C21.6,201.7,43.6,214,68.5,214
		C80.2,214,91.3,211.3,101.2,206.4z"/>
	<path id="XMLID_67_" class="st2" d="M101.2,206.4l33.7-58.4c2.9-5,2.9-11.1,0-16l-33.7-58.4C91.3,68.7,80.2,66,68.5,66
		C43.6,66,21.6,78.3,8.2,97.1c20.2,3.9,35.4,21.6,35.4,42.9s-15.3,39-35.4,42.9C21.6,201.7,43.6,214,68.5,214
		C80.2,214,91.3,211.3,101.2,206.4z"/>
	<path id="XMLID_44_" class="st3" d="M101.2,206.4l33.7-58.4c2.9-5,2.9-11.1,0-16l-33.7-58.4C91.3,68.7,80.2,66,68.5,66
		C43.6,66,21.6,78.3,8.2,97.1c20.2,3.9,35.4,21.6,35.4,42.9s-15.3,39-35.4,42.9C21.6,201.7,43.6,214,68.5,214
		C80.2,214,91.3,211.3,101.2,206.4z"/>
	<path id="XMLID_43_" class="st4" d="M101.2,206.4l33.7-58.4c2.9-5,2.9-11.1,0-16l-33.7-58.4C91.3,68.7,80.2,66,68.5,66
		C43.6,66,21.6,78.3,8.2,97.1c20.2,3.9,35.4,21.6,35.4,42.9s-15.3,39-35.4,42.9C21.6,201.7,43.6,214,68.5,214
		C80.2,214,91.3,211.3,101.2,206.4z"/>
</g>
<g id="Calque_12" class="st5">
	<path id="XMLID_12_" class="st6" d="M91.3,150.6H70.8c-1.5,0-3.1-0.9-4-2.2l-10.1-17.1c-0.9-1.3-0.9-3.1,0-4.4l10.1-17.1
		c0.9-1.3,2.2-2.2,4-2.2h20.4c1.5,0,3.1,0.9,4,2.2l10.1,17.1c0.9,1.3,0.9,3.1,0,4.4l-10.1,17.1C94.4,149.8,92.8,150.6,91.3,150.6z"
		/>
	<path id="XMLID_22_" class="st7" d="M91.3,150.6H70.8c-1.5,0-3.1-0.9-4-2.2l-10.1-17.1c-0.9-1.3-0.9-3.1,0-4.4l10.1-17.1
		c0.9-1.3,2.2-2.2,4-2.2h20.4c1.5,0,3.1,0.9,4,2.2l10.1,17.1c0.9,1.3,0.9,3.1,0,4.4l-10.1,17.1C94.4,149.8,92.8,150.6,91.3,150.6z"
		/>
	<g id="XMLID_1_" class="st8">
		<path id="XMLID_3_" class="st9" d="M65.3,177.9l10-10l-10-10h11.1l4.4,4.4l4.4-4.4h11.1l-10,10l10,10H85.2l-4.4-4.4l-4.4,4.4H65.3
			z"/>
	</g>
</g>
<g id="Calque_12_-_copie_2">
	<path id="XMLID_10_" class="st10" d="M91.3,150.6H70.8c-1.5,0-3.1-0.9-4-2.2l-10.1-17.1c-0.9-1.3-0.9-3.1,0-4.4l10.1-17.1
		c0.9-1.3,2.2-2.2,4-2.2h20.4c1.5,0,3.1,0.9,4,2.2l10.1,17.1c0.9,1.3,0.9,3.1,0,4.4l-10.1,17.1C94.4,149.8,92.8,150.6,91.3,150.6z"
		/>
	<path id="XMLID_9_" class="st11" d="M91.3,150.6H70.8c-1.5,0-3.1-0.9-4-2.2l-10.1-17.1c-0.9-1.3-0.9-3.1,0-4.4l10.1-17.1
		c0.9-1.3,2.2-2.2,4-2.2h20.4c1.5,0,3.1,0.9,4,2.2l10.1,17.1c0.9,1.3,0.9,3.1,0,4.4l-10.1,17.1C94.4,149.8,92.8,150.6,91.3,150.6z"
		/>
	<g id="XMLID_5_">
		<path id="XMLID_6_" class="st12" d="M65.3,177.9l10-10l-10-10h11.1l4.4,4.4l4.4-4.4h11.1l-10,10l10,10H85.2l-4.4-4.4l-4.4,4.4
			H65.3z"/>
	</g>
</g>
</svg>
