<?xml version="1.0" encoding="utf-8"?>
<!-- Generator: Adobe Illustrator 19.0.0, SVG Export Plug-In . SVG Version: 6.00 Build 0)  -->
<svg version="1.0" id="Calque_18_-_copie" xmlns="http://www.w3.org/2000/svg" xmlns:xlink="http://www.w3.org/1999/xlink" x="0px"
	 y="0px" viewBox="0 0 300 300" style="enable-background:new 0 0 300 300;" xml:space="preserve">
<style type="text/css">
	.st0{fill:none;stroke:url(#XMLID_5_);stroke-width:14;stroke-miterlimit:10;}
	.st1{fill:none;stroke:url(#XMLID_6_);stroke-width:14;stroke-miterlimit:10;}
	.st2{fill:none;stroke:#2581C4;stroke-width:14;stroke-miterlimit:10;}
	.st3{fill:#FFFFFF;stroke:#303031;stroke-width:3;stroke-miterlimit:10;}
	.st4{fill:#E94C45;stroke:#303031;stroke-width:3;stroke-miterlimit:10;}
	.st5{display:none;}
	.st6{display:inline;fill:none;stroke:#303032;stroke-width:10;stroke-miterlimit:10;}
</style>
<linearGradient id="XMLID_5_" gradientUnits="userSpaceOnUse" x1="167.6734" y1="137.9978" x2="267.0912" y2="38.5799">
	<stop  offset="0" style="stop-color:#2581C4;stop-opacity:0"/>
	<stop  offset="1" style="stop-color:#2581C4"/>
</linearGradient>
<path id="XMLID_2_" class="st0" d="M73.3,36.7h168c18.6,0,33.7,15.1,33.7,33.7v156"/>
<linearGradient id="XMLID_6_" gradientUnits="userSpaceOnUse" x1="146.6734" y1="157.9978" x2="248.1415" y2="56.5296">
	<stop  offset="0" style="stop-color:#2581C4;stop-opacity:0"/>
	<stop  offset="1" style="stop-color:#2581C4"/>
</linearGradient>
<path id="XMLID_3_" class="st1" d="M52.3,56.7h175c14.7,0,26.7,11.9,26.7,26.7v163"/>
<path id="XMLID_1_" class="st2" d="M220.3,267.3H44c-7,0-12.7-5.7-12.7-12.7V90.3c0-7,5.7-12.7,12.7-12.7h176.3
	c7,0,12.7,5.7,12.7,12.7v164.3C233,261.7,227.3,267.3,220.3,267.3z"/>
<g id="Calque_38_-_copie_2_2_">
	<g id="圖層_22_2_">
		<path id="XMLID_60_" class="st3" d="M198.7,240.1h11.4c1.4,0,2.8-1.4,2.8-2.8V131.1c0-1.4-1.4-2.8-2.8-2.8h-11.4
			c-1.4,0-2.8,1.4-2.8,2.8v106.1C195.9,238.6,197.3,240.1,198.7,240.1z"/>
		<path id="XMLID_59_" class="st3" d="M65.6,240.8H54.2c-1.4,0-2.8-1.4-2.8-2.8V131.8c0-1.4,1.4-2.8,2.8-2.8h11.4
			c1.4,0,2.8,1.4,2.8,2.8v106.1C68.4,239.4,67,240.8,65.6,240.8z"/>
	</g>
	<polygon id="XMLID_58_" class="st3" points="191.6,240.8 177.4,240.8 170.3,240.8 163.1,240.8 163.1,240.8 163.1,236.5 
		148.2,236.5 148.2,236.5 148.2,240.8 119.7,240.8 119.7,236.5 105.5,236.5 105.5,240.8 90.5,240.8 76.3,240.8 76.3,236.5 
		76.3,222.9 191.1,222.9 	"/>
	<rect id="XMLID_57_" x="76.3" y="129" class="st4" width="115.3" height="98.4"/>
	<path id="XMLID_56_" class="st4" d="M199.5,247.9h-22.8c-1.4,0-2.8-1.4-2.8-2.8V124.7c0-1.4,1.4-2.8,2.8-2.8h22.8
		c1.4,0,2.8,1.4,2.8,2.8v120.3C202.3,246.5,200.9,247.9,199.5,247.9z"/>
	<path id="XMLID_55_" class="st4" d="M62,247.2c-0.7-0.7-0.7-1.4-0.7-2.8V124c0-2.1,2.1-3.6,3.6-3.6h22.8c2.1,0,3.6,2.1,3.6,3.6
		v120.3c0,2.1-2.1,3.6-3.6,3.6H64.9C64.9,247.9,62.8,247.9,62,247.2z"/>
	<line id="XMLID_54_" class="st3" x1="92.7" y1="129" x2="172.4" y2="129"/>
	<path id="XMLID_53_" class="st3" d="M172.4,232.2"/>
	<path id="XMLID_52_" class="st3" d="M92.7,232.2"/>
	<g id="upside_2_">
		<path id="XMLID_51_" class="st4" d="M112.9,201.1l-8.8-10.3c-3-3.5-3-9,0-12.5l8.8-10.3c1.6-1.9,3.9-3,6.3-3h25.9
			c2.4,0,4.7,1.1,6.3,3l8.8,10.3c3,3.5,3,9,0,12.5l-8.8,10.3c-1.6,1.9-3.9,3-6.3,3h-25.9C116.8,204,114.6,203,112.9,201.1z"/>
		<rect id="XMLID_50_" x="119" y="106.2" class="st3" width="26.3" height="52.7"/>
		<rect id="XMLID_49_" x="114.3" y="152.1" class="st3" width="34.9" height="12.5"/>
		<rect id="XMLID_48_" x="114" y="99.1" class="st3" width="37" height="13.5"/>
	</g>
</g>
<g id="Calque_12_-_copie_2" class="st5">
	<path id="XMLID_9_" class="st6" d="M161.5,234.3h-58.6c-4.4,0-8.8-2.5-11.3-6.3l-29-49.2c-2.5-3.8-2.5-8.8,0-12.6l29-49.2
		c2.5-3.8,6.3-6.3,11.3-6.3h58.6c4.4,0,8.8,2.5,11.3,6.3l29,49.2c2.5,3.8,2.5,8.8,0,12.6l-29,49.2
		C170.3,231.7,165.9,234.3,161.5,234.3z"/>
</g>
</svg>
