<?xml version="1.0" encoding="utf-8"?>
<!-- Generator: Adobe Illustrator 19.0.0, SVG Export Plug-In . SVG Version: 6.00 Build 0)  -->
<svg version="1.0" id="Calque_18_-_copie" xmlns="http://www.w3.org/2000/svg" xmlns:xlink="http://www.w3.org/1999/xlink" x="0px"
	 y="0px" viewBox="0 0 300 300" style="enable-background:new 0 0 300 300;" xml:space="preserve">
<style type="text/css">
	.st0{display:none;fill:none;stroke:#2581C4;stroke-width:14;stroke-miterlimit:10;}
	.st1{fill:#FFFFFF;stroke:#303032;stroke-width:12;stroke-miterlimit:10;}
	.st2{opacity:0.1;fill:#303032;}
	.st3{display:none;}
	.st4{display:inline;}
	.st5{fill:#FFFFFF;stroke:#303031;stroke-width:4;stroke-miterlimit:10;}
	.st6{display:inline;fill:#FFFFFF;stroke:#303031;stroke-width:4;stroke-miterlimit:10;}
	.st7{display:inline;fill:#E94C45;stroke:#303031;stroke-width:4;stroke-miterlimit:10;}
	.st8{fill:#E94C45;stroke:#303031;stroke-width:4;stroke-miterlimit:10;}
	.st9{fill:none;stroke:#303032;stroke-width:15;stroke-miterlimit:10;}
	.st10{fill:none;stroke:#E94C45;stroke-width:4;stroke-miterlimit:10;}
</style>
<rect id="XMLID_1_" class="st0" width="300" height="300"/>
<g id="Calque_3">
	<path id="XMLID_3_" class="st1" d="M232.6,225H107.5c-22.1,0-40-17.9-40-40V59.9c0-22.1,17.9-40,40-40h125.1c22.1,0,40,17.9,40,40
		V185C272.6,207.1,254.7,225,232.6,225z"/>
	<path id="XMLID_21_" class="st2" d="M211.6,44.9H86.5c-6.3,0-12.2,1.4-17.5,4c-1,3.5-1.5,7.2-1.5,11V185c0,22.1,17.9,40,40,40
		h125.1c6.3,0,12.2-1.4,17.5-4c1-3.5,1.5-7.2,1.5-11V84.9C251.6,62.8,233.7,44.9,211.6,44.9z"/>
	<path id="XMLID_17_" class="st1" d="M186.6,274H61.5c-22.1,0-40-17.9-40-40V108.9c0-22.1,17.9-40,40-40h125.1c22.1,0,40,17.9,40,40
		V234C226.6,256.1,208.7,274,186.6,274z"/>
	<g id="Calque_38_-_copie_2_2_" class="st3">
		<g id="圖層_22_2_" class="st4">
			<path id="XMLID_32_" class="st5" d="M183.7,234H194c1.3,0,2.6-1.3,2.6-2.6v-95.8c0-1.3-1.3-2.6-2.6-2.6h-10.3
				c-1.3,0-2.6,1.3-2.6,2.6v95.8C181.1,232.7,182.4,234,183.7,234z"/>
			<path id="XMLID_31_" class="st5" d="M63.4,234.6H53.1c-1.3,0-2.6-1.3-2.6-2.6v-95.8c0-1.3,1.3-2.6,2.6-2.6h10.3
				c1.3,0,2.6,1.3,2.6,2.6v95.8C66,233.3,64.7,234.6,63.4,234.6z"/>
		</g>
		<polygon id="XMLID_30_" class="st6" points="177.2,234.6 164.4,234.6 157.9,234.6 151.5,234.6 151.5,234.6 151.5,230.8 138,230.8 
			138,230.8 138,234.6 112.3,234.6 112.3,230.8 99.4,230.8 99.4,234.6 85.9,234.6 73.1,234.6 73.1,230.8 73.1,218.4 176.8,218.4 		
			"/>
		<rect id="XMLID_29_" x="73.1" y="133.7" class="st7" width="104.2" height="88.9"/>
		<path id="XMLID_28_" class="st7" d="M184.3,241.1h-20.6c-1.3,0-2.6-1.3-2.6-2.6V129.8c0-1.3,1.3-2.6,2.6-2.6h20.6
			c1.3,0,2.6,1.3,2.6,2.6v108.7C186.9,239.8,185.6,241.1,184.3,241.1z"/>
		<path id="XMLID_27_" class="st7" d="M60.2,240.4c-0.6-0.6-0.6-1.3-0.6-2.6V129.2c0-1.9,1.9-3.2,3.2-3.2h20.6
			c1.9,0,3.2,1.9,3.2,3.2v108.7c0,1.9-1.9,3.2-3.2,3.2H62.8C62.8,241.1,60.8,241.1,60.2,240.4z"/>
		<line id="XMLID_26_" class="st6" x1="87.9" y1="133.7" x2="159.9" y2="133.7"/>
		<path id="XMLID_25_" class="st6" d="M159.9,226.9"/>
		<path id="XMLID_24_" class="st6" d="M87.9,226.9"/>
		<g id="upside_2_" class="st4">
			<path id="XMLID_23_" class="st8" d="M106.2,198.8l-7.9-9.3c-2.7-3.2-2.7-8.1,0-11.3l7.9-9.3c1.5-1.7,3.5-2.7,5.7-2.7h23.4
				c2.2,0,4.2,1,5.7,2.7l7.9,9.3c2.7,3.2,2.7,8.1,0,11.3l-7.9,9.3c-1.5,1.7-3.5,2.7-5.7,2.7h-23.4
				C109.7,201.4,107.6,200.5,106.2,198.8z"/>
			<rect id="XMLID_22_" x="111.6" y="113.1" class="st5" width="23.8" height="47.6"/>
			<rect id="XMLID_20_" x="107.4" y="154.5" class="st5" width="31.6" height="11.3"/>
			<rect id="XMLID_19_" x="107.1" y="106.7" class="st5" width="33.4" height="12.2"/>
		</g>
	</g>
	<g id="Calque_12_-_copie_2">
		<path id="XMLID_2_" class="st9" d="M156.5,239.3H93.5c-4.7,0-9.5-2.7-12.2-6.8l-31.1-52.8c-2.7-4.1-2.7-9.5,0-13.5l31.1-52.8
			c2.7-4.1,6.8-6.8,12.2-6.8h62.9c4.7,0,9.5,2.7,12.2,6.8l31.1,52.8c2.7,4.1,2.7,9.5,0,13.5l-31.1,52.8
			C166,236.6,161.2,239.3,156.5,239.3z"/>
		<path id="XMLID_4_" class="st10" d="M156.5,239.3H93.5c-4.7,0-9.5-2.7-12.2-6.8l-31.1-52.8c-2.7-4.1-2.7-9.5,0-13.5l31.1-52.8
			c2.7-4.1,6.8-6.8,12.2-6.8h62.9c4.7,0,9.5,2.7,12.2,6.8l31.1,52.8c2.7,4.1,2.7,9.5,0,13.5l-31.1,52.8
			C166,236.6,161.2,239.3,156.5,239.3z"/>
	</g>
</g>
</svg>
