<?xml version="1.0" encoding="utf-8"?>
<!-- Generator: Adobe Illustrator 19.0.0, SVG Export Plug-In . SVG Version: 6.00 Build 0)  -->
<svg version="1.0" xmlns="http://www.w3.org/2000/svg" xmlns:xlink="http://www.w3.org/1999/xlink" x="0px" y="0px" width="180px" height="280px"
	 viewBox="0 0 180 280" style="enable-background:new 0 0 180 280;" xml:space="preserve">
<style type="text/css">
	.st0{fill:none;}
	.st1{display:none;fill:#333333;}
	.st2{opacity:0.5;fill:none;stroke:#000000;stroke-width:9;stroke-miterlimit:10;}
	.st3{fill:none;stroke:#FFFFFF;stroke-width:4;stroke-miterlimit:10;}
	.st4{fill:#282828;}
	.st5{fill:url(#Nouvelle_nuance_de_motif_2);stroke:#282828;stroke-miterlimit:10;}
	.st6{display:none;}
	.st7{display:inline;fill:#BCBCBB;}
	.st8{display:inline;opacity:0.5;fill:#BCBCBB;}
	.st9{display:inline;}
	.st10{fill:#FFFFFF;stroke:#303031;stroke-width:1.5;stroke-miterlimit:10;}
	.st11{fill:#E94C45;stroke:#303031;stroke-width:1.5;stroke-miterlimit:10;}
</style>
<pattern  width="6" height="9" patternUnits="userSpaceOnUse" id="Nouvelle_nuance_de_motif_2" viewBox="1.8 -10.8 6 9" style="overflow:visible;">
	<g id="XMLID_85_">
		<polygon id="XMLID_91_" class="st0" points="1.8,-10.8 7.8,-10.8 7.8,-1.8 1.8,-1.8 		"/>
		<path id="XMLID_90_" d="M9.6-1.8c0,1-0.8,1.8-1.8,1.8S6-0.8,6-1.8s0.8-1.8,1.8-1.8S9.6-2.8,9.6-1.8z"/>
		<path id="XMLID_89_" d="M3.6-1.8c0,1-0.8,1.8-1.8,1.8S0-0.8,0-1.8s0.8-1.8,1.8-1.8S3.6-2.8,3.6-1.8z"/>
		<path id="XMLID_88_" d="M6.6-6.3c0,1-0.8,1.8-1.8,1.8S3-5.3,3-6.3s0.8-1.8,1.8-1.8S6.6-7.3,6.6-6.3z"/>
		<path id="XMLID_87_" d="M9.6-10.8c0,1-0.8,1.8-1.8,1.8S6-9.8,6-10.8s0.8-1.8,1.8-1.8S9.6-11.8,9.6-10.8z"/>
		<path id="XMLID_86_" d="M3.6-10.8c0,1-0.8,1.8-1.8,1.8S0-9.8,0-10.8s0.8-1.8,1.8-1.8S3.6-11.8,3.6-10.8z"/>
	</g>
</pattern>
<g id="Calque_10">
</g>
<g id="Calque_1_-_copie">
	<path id="XMLID_1_" class="st1" d="M180,183.7c-24.1,0-43.7-19.6-43.7-43.7c0-24.1,19.6-43.7,43.7-43.7V19.2h-60.5
		c-5.7,0-11,3.1-13.9,8L45.1,132c-2.9,5-2.9,11.1,0,16l60.5,104.8c2.9,5,8.1,8,13.9,8H180V183.7z"/>
	<path id="XMLID_13_" class="st2" d="M78.8,206.4L45.1,148c-2.9-5-2.9-11.1,0-16l33.7-58.4c9.9-4.9,20.9-7.6,32.7-7.6
		c24.9,0,46.9,12.3,60.3,31.1c-20.2,3.9-35.4,21.6-35.4,42.9s15.3,39,35.4,42.9c-13.4,18.8-35.4,31.1-60.3,31.1
		C99.8,214,88.7,211.3,78.8,206.4z"/>
	<path id="XMLID_67_" class="st3" d="M78.8,206.4L45.1,148c-2.9-5-2.9-11.1,0-16l33.7-58.4c9.9-4.9,20.9-7.6,32.7-7.6
		c24.9,0,46.9,12.3,60.3,31.1c-20.2,3.9-35.4,21.6-35.4,42.9s15.3,39,35.4,42.9c-13.4,18.8-35.4,31.1-60.3,31.1
		C99.8,214,88.7,211.3,78.8,206.4z"/>
	<path id="XMLID_5_" class="st4" d="M78.8,206.4L45.1,148c-2.9-5-2.9-11.1,0-16l33.7-58.4c9.9-4.9,20.9-7.6,32.7-7.6
		c24.9,0,46.9,12.3,60.3,31.1c-20.2,3.9-35.4,21.6-35.4,42.9s15.3,39,35.4,42.9c-13.4,18.8-35.4,31.1-60.3,31.1
		C99.8,214,88.7,211.3,78.8,206.4z"/>
	<path id="XMLID_4_" class="st5" d="M78.8,206.4L45.1,148c-2.9-5-2.9-11.1,0-16l33.7-58.4c9.9-4.9,20.9-7.6,32.7-7.6
		c24.9,0,46.9,12.3,60.3,31.1c-20.2,3.9-35.4,21.6-35.4,42.9s15.3,39,35.4,42.9c-13.4,18.8-35.4,31.1-60.3,31.1
		C99.8,214,88.7,211.3,78.8,206.4z"/>
	<g id="XMLID_2_" class="st6">
		<path id="XMLID_3_" class="st7" d="M139.9,122.7C139.9,122.7,139.9,122.6,139.9,122.7C139.9,122.6,139.9,122.7,139.9,122.7z"/>
		<path id="XMLID_6_" class="st7" d="M141.1,120.2c0-0.1,0.1-0.2,0.1-0.3C141.2,120,141.1,120.1,141.1,120.2z"/>
		<path id="XMLID_7_" class="st7" d="M142.5,117.7c0.1-0.1,0.1-0.2,0.2-0.3C142.6,117.5,142.6,117.6,142.5,117.7z"/>
		<path id="XMLID_8_" class="st7" d="M137.9,128.3c0-0.1,0.1-0.2,0.1-0.3C138,128,138,128.1,137.9,128.3z"/>
		<path id="XMLID_9_" class="st7" d="M137.2,131.2c0-0.1,0.1-0.3,0.1-0.4C137.3,130.9,137.3,131.1,137.2,131.2z"/>
		<path id="XMLID_10_" class="st7" d="M138.8,125.4c0-0.1,0-0.1,0.1-0.2C138.9,125.3,138.9,125.3,138.8,125.4z"/>
		<path id="XMLID_11_" class="st7" d="M136.7,134.2c0-0.1,0-0.3,0.1-0.4C136.8,133.9,136.7,134,136.7,134.2z"/>
		<path id="XMLID_12_" class="st7" d="M144.1,115.2c0.1-0.1,0.1-0.2,0.2-0.3C144.2,115,144.1,115.1,144.1,115.2z"/>
		<path id="XMLID_14_" class="st7" d="M154,105c0.1-0.1,0.2-0.1,0.3-0.2C154.1,104.8,154.1,104.9,154,105z"/>
		<path id="XMLID_15_" class="st7" d="M156.4,103.3c0.1-0.1,0.2-0.1,0.2-0.2C156.5,103.2,156.4,103.2,156.4,103.3z"/>
		<path id="XMLID_16_" class="st8" d="M158.9,178.2c-11.3,14.2-28.6,23.3-48.1,23.3c-9.7,0-19-2.3-27.1-6.3l-28-48.5
			c-2.4-4.1-2.4-9.2,0-13.3l28-48.5c8.2-4,17.4-6.3,27.1-6.3c19.5,0,36.9,9.1,48.1,23.3c0,0,0,0,0,0c1.3-0.7,2.7-1.4,4.1-2
			c-12-15.5-30.8-25.5-52-25.5c-10.4,0-20.3,2.4-29,6.7l-30,51.9c-2.5,4.4-2.5,9.8,0,14.2L82,199c8.8,4.3,18.6,6.7,29,6.7
			c21.2,0,40-10,52-25.5C161.6,179.6,160.2,179,158.9,178.2C158.9,178.2,158.9,178.2,158.9,178.2z"/>
		<path id="XMLID_17_" class="st7" d="M145.8,112.8c0-0.1,0.1-0.1,0.1-0.2C145.9,112.7,145.9,112.8,145.8,112.8z"/>
		<path id="XMLID_18_" class="st7" d="M149.7,108.5C149.7,108.6,149.7,108.6,149.7,108.5C149.7,108.6,149.7,108.6,149.7,108.5z"/>
		<path id="XMLID_19_" class="st7" d="M151.7,106.7c0.1-0.1,0.1-0.1,0.2-0.2C151.9,106.6,151.8,106.7,151.7,106.7z"/>
		<path id="XMLID_20_" class="st7" d="M146,167.3c0-0.1-0.1-0.1-0.1-0.2C145.9,167.2,145.9,167.3,146,167.3z"/>
		<path id="XMLID_21_" class="st7" d="M141.2,160.1c0-0.1-0.1-0.2-0.1-0.3C141.1,159.9,141.2,160,141.2,160.1z"/>
		<path id="XMLID_22_" class="st7" d="M142.7,162.6c-0.1-0.1-0.1-0.2-0.2-0.3C142.6,162.4,142.6,162.5,142.7,162.6z"/>
		<path id="XMLID_23_" class="st7" d="M149.7,171.4C149.7,171.4,149.7,171.4,149.7,171.4C149.7,171.4,149.7,171.4,149.7,171.4z"/>
		<path id="XMLID_24_" class="st7" d="M144.3,165.1c-0.1-0.1-0.1-0.2-0.2-0.3C144.1,164.9,144.2,165,144.3,165.1z"/>
		<path id="XMLID_25_" class="st7" d="M156.6,176.9c-0.1-0.1-0.2-0.1-0.2-0.2C156.4,176.8,156.5,176.8,156.6,176.9z"/>
		<path id="XMLID_27_" class="st7" d="M151.9,173.4c-0.1-0.1-0.1-0.1-0.2-0.2C151.8,173.3,151.9,173.4,151.9,173.4z"/>
		<path id="XMLID_28_" class="st7" d="M154.2,175.2c-0.1-0.1-0.2-0.1-0.3-0.2C154.1,175.1,154.1,175.2,154.2,175.2z"/>
		<path id="XMLID_29_" class="st7" d="M136.8,146.2c0-0.1,0-0.3-0.1-0.4C136.7,146,136.8,146.1,136.8,146.2z"/>
		<path id="XMLID_30_" class="st7" d="M136.4,137.1c0-0.1,0-0.2,0-0.3C136.4,136.9,136.4,137,136.4,137.1z"/>
		<path id="XMLID_31_" class="st7" d="M137.3,149.2c0-0.1-0.1-0.3-0.1-0.4C137.3,148.9,137.3,149.1,137.3,149.2z"/>
		<path id="XMLID_32_" class="st7" d="M136.5,143.2c0-0.1,0-0.2,0-0.3C136.4,143,136.4,143.1,136.5,143.2z"/>
		<path id="XMLID_33_" class="st7" d="M139.9,157.4C139.9,157.4,139.9,157.3,139.9,157.4C139.9,157.3,139.9,157.4,139.9,157.4z"/>
		<path id="XMLID_40_" class="st7" d="M138,152.1c0-0.1-0.1-0.2-0.1-0.3C138,151.9,138,152,138,152.1z"/>
		<path id="XMLID_41_" class="st7" d="M138.9,154.8c0-0.1,0-0.1-0.1-0.2C138.9,154.7,138.9,154.7,138.9,154.8z"/>
	</g>
</g>
<g id="Calque_18" class="st6">
	<g id="Calque_1_-_copie_2_1_" class="st9">
		<g id="Calque_38_-_copie_2_4_">
			<g id="圖層_22_4_">
				<path id="XMLID_66_" class="st10" d="M124.8,153.6h4c0.5,0,1-0.5,1-1v-36.9c0-0.5-0.5-1-1-1h-4c-0.5,0-1,0.5-1,1v36.9
					C123.8,153.1,124.3,153.6,124.8,153.6z"/>
				<path id="XMLID_65_" class="st10" d="M78.5,153.8h-4c-0.5,0-1-0.5-1-1v-36.9c0-0.5,0.5-1,1-1h4c0.5,0,1,0.5,1,1v36.9
					C79.5,153.3,79,153.8,78.5,153.8z"/>
			</g>
			<polygon id="XMLID_64_" class="st10" points="122.3,153.8 117.4,153.8 114.9,153.8 112.4,153.8 112.4,153.8 112.4,152.3 
				107.2,152.3 107.2,152.3 107.2,153.8 97.3,153.8 97.3,152.3 92.4,152.3 92.4,153.8 87.1,153.8 82.2,153.8 82.2,152.3 82.2,147.6 
				122.2,147.6 			"/>
			<rect id="XMLID_63_" x="82.2" y="114.9" class="st10" width="40.2" height="34.3"/>
			<path id="XMLID_62_" class="st10" d="M125.1,156.3h-7.9c-0.5,0-1-0.5-1-1v-41.9c0-0.5,0.5-1,1-1h7.9c0.5,0,1,0.5,1,1v41.9
				C126.1,155.8,125.6,156.3,125.1,156.3z"/>
			<path id="XMLID_61_" class="st10" d="M77.2,156.1c-0.2-0.2-0.2-0.5-0.2-1v-41.9c0-0.7,0.7-1.2,1.2-1.2h7.9c0.7,0,1.2,0.7,1.2,1.2
				v41.9c0,0.7-0.7,1.2-1.2,1.2h-7.9C78.2,156.3,77.5,156.3,77.2,156.1z"/>
			<line id="XMLID_44_" class="st10" x1="87.9" y1="114.9" x2="115.7" y2="114.9"/>
			<path id="XMLID_43_" class="st10" d="M115.7,150.9"/>
			<path id="XMLID_42_" class="st10" d="M87.9,150.9"/>
			<g id="upside_4_">
				<path id="XMLID_39_" class="st10" d="M94.9,140l-3.1-3.6c-1.1-1.2-1.1-3.1,0-4.4l3.1-3.6c0.6-0.7,1.4-1,2.2-1h9
					c0.8,0,1.6,0.4,2.2,1l3.1,3.6c1.1,1.2,1.1,3.1,0,4.4l-3.1,3.6c-0.6,0.7-1.4,1-2.2,1h-9C96.3,141,95.5,140.7,94.9,140z"/>
				<rect id="XMLID_38_" x="97.1" y="107" class="st10" width="9.2" height="18.3"/>
				<rect id="XMLID_37_" x="95.4" y="122.9" class="st10" width="12.2" height="4.4"/>
				<rect id="XMLID_36_" x="95.3" y="104.5" class="st10" width="12.9" height="4.7"/>
			</g>
		</g>
		<g id="XMLID_26_">
			<path id="XMLID_34_" class="st10" d="M105.9,180.6l-4.4-4.4l-4.4,4.4H86l10-10l-10-10h11.1l4.4,4.4l4.4-4.4H117l-10,10l10,10
				H105.9z"/>
		</g>
	</g>
</g>
<g id="Calque_18_-_copie">
	<g id="Calque_1_-_copie_3">
		<g id="Calque_38_-_copie_2_2_">
			<g id="圖層_22_2_">
				<path id="XMLID_60_" class="st10" d="M124.8,153.6h4c0.5,0,1-0.5,1-1v-36.9c0-0.5-0.5-1-1-1h-4c-0.5,0-1,0.5-1,1v36.9
					C123.8,153.1,124.3,153.6,124.8,153.6z"/>
				<path id="XMLID_59_" class="st10" d="M78.5,153.8h-4c-0.5,0-1-0.5-1-1v-36.9c0-0.5,0.5-1,1-1h4c0.5,0,1,0.5,1,1v36.9
					C79.5,153.3,79,153.8,78.5,153.8z"/>
			</g>
			<polygon id="XMLID_58_" class="st10" points="122.3,153.8 117.4,153.8 114.9,153.8 112.4,153.8 112.4,153.8 112.4,152.3 
				107.2,152.3 107.2,152.3 107.2,153.8 97.3,153.8 97.3,152.3 92.4,152.3 92.4,153.8 87.2,153.8 82.2,153.8 82.2,152.3 82.2,147.6 
				122.2,147.6 			"/>
			<rect id="XMLID_57_" x="82.2" y="114.9" class="st11" width="40.2" height="34.3"/>
			<path id="XMLID_56_" class="st11" d="M125.1,156.3h-7.9c-0.5,0-1-0.5-1-1v-41.9c0-0.5,0.5-1,1-1h7.9c0.5,0,1,0.5,1,1v41.9
				C126.1,155.8,125.6,156.3,125.1,156.3z"/>
			<path id="XMLID_55_" class="st11" d="M77.2,156.1c-0.2-0.2-0.2-0.5-0.2-1v-41.9c0-0.7,0.7-1.2,1.2-1.2h7.9c0.7,0,1.2,0.7,1.2,1.2
				v41.9c0,0.7-0.7,1.2-1.2,1.2h-7.9C78.2,156.3,77.5,156.3,77.2,156.1z"/>
			<line id="XMLID_54_" class="st10" x1="87.9" y1="114.9" x2="115.7" y2="114.9"/>
			<path id="XMLID_53_" class="st10" d="M115.7,150.9"/>
			<path id="XMLID_52_" class="st10" d="M87.9,150.9"/>
			<g id="upside_2_">
				<path id="XMLID_51_" class="st11" d="M95,140l-3.1-3.6c-1.1-1.2-1.1-3.1,0-4.4l3.1-3.6c0.6-0.7,1.4-1,2.2-1h9
					c0.8,0,1.6,0.4,2.2,1l3.1,3.6c1.1,1.2,1.1,3.1,0,4.4l-3.1,3.6c-0.6,0.7-1.4,1-2.2,1h-9C96.3,141,95.5,140.7,95,140z"/>
				<rect id="XMLID_50_" x="97.1" y="107" class="st10" width="9.2" height="18.3"/>
				<rect id="XMLID_49_" x="95.4" y="122.9" class="st10" width="12.2" height="4.4"/>
				<rect id="XMLID_48_" x="95.3" y="104.5" class="st10" width="12.9" height="4.7"/>
			</g>
		</g>
		<g id="XMLID_45_">
			<path id="XMLID_46_" class="st11" d="M106,180.6l-4.4-4.4l-4.4,4.4H86l10-10l-10-10h11.1l4.4,4.4l4.4-4.4H117l-10,10l10,10H106z"
				/>
		</g>
	</g>
</g>
</svg>
