<?xml version="1.0" encoding="utf-8"?>
<!-- Generator: Adobe Illustrator 19.0.0, SVG Export Plug-In . SVG Version: 6.00 Build 0)  -->
<svg version="1.0" xmlns="http://www.w3.org/2000/svg" xmlns:xlink="http://www.w3.org/1999/xlink" x="0px" y="0px" width="150px" height="300px"
	 viewBox="0 0 150 300" style="enable-background:new 0 0 150 300;" xml:space="preserve">
<style type="text/css">
	.st0{fill:#333333;}
	.st1{fill:#262625;}
	.st2{fill:none;stroke:#5F5E5F;stroke-miterlimit:10;stroke-dasharray:11.75;}
	.st3{fill:none;stroke:#B2B0B2;stroke-miterlimit:10;stroke-dasharray:12;}
	.st4{fill:#5F5D5E;}
	.st5{fill:#B2B0B2;}
	.st6{fill:none;stroke:#006633;stroke-miterlimit:10;stroke-dasharray:11.75;}
	.st7{fill:none;stroke:#009640;stroke-miterlimit:10;stroke-dasharray:12;}
	.st8{fill:#006633;}
	.st9{fill:#009640;}
	.st10{fill:none;stroke:#B2B0B2;stroke-miterlimit:10;}
</style>
<g id="Calque_1">
	<path id="XMLID_2_" class="st0" d="M0,210c33.8,0,61.2-26.9,61.2-60c0-33.1-27.4-60-61.2-60L0,8c79.9,0,144.7,63.6,144.7,142
		S79.9,292,0,292L0,210z"/>
	<path id="XMLID_258_" class="st1" d="M0,210c33.8,0,61.2-26.9,61.2-60c0-33.1-27.4-60-61.2-60L0,8c79.9,0,144.7,63.6,144.7,142
		S79.9,292,0,292L0,210z"/>
</g>
<g id="Calque_67_-_copie_2">
	<g id="Calque_66_-_copie_3">
		<rect id="XMLID_471_" x="76.6" y="125.6" class="st2" width="50.8" height="50.2"/>
		<rect id="XMLID_470_" x="76.3" y="124.9" class="st3" width="51.5" height="51.5"/>
		<polygon id="XMLID_469_" class="st4" points="99.9,188.6 99.2,187 127,175.3 127.8,176.9 116.3,204.5 115.5,202.8 114.2,190.7 		
			"/>
		<polygon id="XMLID_468_" class="st5" points="99.2,187 127,175.3 115.5,202.8 113.4,189 		"/>
	</g>
</g>
<g id="Calque_67_-_copie_3">
	<g id="Calque_66_-_copie_4">
		<rect id="XMLID_6_" x="76.6" y="125.6" class="st6" width="50.8" height="50.2"/>
		<rect id="XMLID_5_" x="76.3" y="124.9" class="st7" width="51.5" height="51.5"/>
		<polygon id="XMLID_4_" class="st8" points="99.9,188.6 99.2,187 127,175.3 127.8,176.9 116.3,204.5 115.5,202.8 114.2,190.7 		"/>
		<polygon id="XMLID_3_" class="st9" points="99.2,187 127,175.3 115.5,202.8 113.4,189 		"/>
	</g>
</g>
<g id="圖層_1">
	<g id="normalCell">
		<g id="XMLID_280_">
			<g id="XMLID_281_">
				<path id="XMLID_282_" class="st10" d="M95.2,173.9l-9.3,0c-0.7,0-1.4-0.4-1.8-1l-4.6-7.8c-0.4-0.6-0.4-1.4,0-2l4.6-7.8
					c0.4-0.6,1-1,1.8-1l9.3,0c0.7,0,1.4,0.4,1.8,1l4.6,7.8c0.4,0.6,0.4,1.4,0,2l-4.6,7.8C96.6,173.5,95.9,173.9,95.2,173.9z"/>
			</g>
		</g>
	</g>
</g>
<g id="圖層_1_-_copie">
	<g id="normalCell_1_">
		<g id="XMLID_16_">
			<g id="XMLID_17_">
				<path id="XMLID_18_" class="st10" d="M117.7,147.5l-9.3,0c-0.7,0-1.4-0.4-1.8-1l-4.6-7.8c-0.4-0.6-0.4-1.4,0-2l4.6-7.8
					c0.4-0.6,1-1,1.8-1l9.3,0c0.7,0,1.4,0.4,1.8,1l4.6,7.8c0.4,0.6,0.4,1.4,0,2l-4.6,7.8C119.1,147.1,118.4,147.5,117.7,147.5z"/>
			</g>
		</g>
	</g>
</g>
</svg>
