<svg version="1.0" id="圖層_1" xmlns="http://www.w3.org/2000/svg" x="0" y="0" width="300" height="260" style="enable-background:new 0 0 300 260" xml:space="preserve"><style>.st4,.st5{fill:none;stroke:#282828;stroke-width:9;stroke-miterlimit:10}.st5{stroke:#9a1b1f;stroke-width:4}.st6{fill:#e8e8e8}.st9{font-family:&apos;EvilEmpire&apos;}.st10{font-size:47.3516px}</style><g id="cannon"><g id="tureel"><g id="XMLID_341_"><path id="XMLID_82_" d="M171.3 159.3c-1.5.3-5.4.6-8.7.5l-26.1-.1c-3.3 0-7.2-.3-8.7-.6s-6.2-4.6-8.3-7.1l-10.7-12.6c-2.1-2.5-4.3-5.5-4.9-6.7-.5-1.2 1.2-6.7 2.6-9.7l4.2-8.9c1.4-3 3.6-6.4 4.8-7.7 1.2-1.2 8.6-2.3 11.9-2.3h44.8c3.3 0 7.5.4 9.4.9s5.8 6.2 7.2 9.2l4.1 9c1.4 3 2.6 6.5 2.7 7.7.2 1.2-3 6.1-5.2 8.6L179.6 152c-2.1 2.7-6.8 6.9-8.3 7.3z" style="fill:#303030"/></g><g id="XMLID_6_"><radialGradient id="XMLID_16_" cx="149.778" cy="132.013" r="34.71" gradientUnits="userSpaceOnUse"><stop offset="0" style="stop-color:#9fa1a4"/><stop offset="1" style="stop-color:#808285"/></radialGradient><path id="XMLID_17_" d="M169.5 156.9c-1.4.3-5.2.5-8.5.5l-22.8-.1c-3.3 0-7.1-.3-8.5-.5-1.4-.3-5.8-4.3-7.9-6.9l-9.1-10.7c-2.1-2.5-4.3-5.5-4.8-6.5-.5-1.1 1.2-6.4 2.6-9.3l3.4-7.2c1.4-3 3.5-6.3 4.6-7.5 1.1-1.1 8.1-2.1 11.4-2.1h39.9c3.3 0 7.4.4 9.1.8 1.7.5 5.4 5.9 6.8 8.9l3.3 7.3c1.4 3 2.6 6.4 2.7 7.5s-2.9 5.8-5.1 8.3l-9.2 10.7c-2.1 2.5-6.5 6.5-7.9 6.8z" style="fill:url(#XMLID_16_)"/></g><g id="Calque_33"><path id="XMLID_33_" d="M163.6 114.7c2.1-1.6 4.8-2.1 7.2-3.1 2.4-.9 4.9-2.5 5.5-5h-13.2c-.1.2-.3.4-.5.6-3.8 3.4-9.5 3.3-14.6 3.5-5.1.3-11.1 2-12.7 6.9-.7 2.3-.7 5.4-3 6.2-.6.2-1.4.2-2 .3-3.6.7-4.4 5.9-2.2 8.8 2.2 2.9 6 4 9.5 4.8 3.5.9 7.3 1.8 9.6 4.6 2.9 3.5 2.4 8.5 2.5 13.1 0 .6 0 1.3.1 1.9h16.4c3.2-4.2 4.6-9.8 3.3-15-.8-3.3-2.5-7.2-.1-9.7.5-.6 1.2-.9 1.7-1.5 1.7-1.7 1.5-5-.5-6.5-2.5-1.9-6.6-.8-8.6-3.2-1.7-1.8-.5-5.1 1.6-6.7z" style="opacity:.5;fill:#171617"/></g><radialGradient id="XMLID_18_" cx="149.786" cy="142.447" r="29.324" gradientUnits="userSpaceOnUse"><stop offset="0" style="stop-color:#fff;stop-opacity:0"/><stop offset=".636" style="stop-color:#fff;stop-opacity:.6512"/><stop offset="1" style="stop-color:#fff;stop-opacity:.95"/></radialGradient><path id="XMLID_210_" d="m111.9 133.4 14.7 19c1.9 2.5 5.2 4 8.6 4.1l29 .1c3.5 0 6.7-1.5 8.6-4l14.8-18.9c.5-.6.8-1.3 1-1.9.5-1.7-1-3.4-3.1-3.4l-30 11.8c-3.9 1.5-8.1 1.5-12 0l-29.7-11.7c-2.1 0-3.7 1.8-3 3.5.4.3.7.9 1.1 1.4z" style="opacity:.5;fill:url(#XMLID_18_);fill-opacity:.55"/></g></g><g id="Layer_5"><g id="XMLID_22_"><path id="XMLID_23_" class="st4" d="M142.5 116.1h6.5v26l-9.2 6.7-9.2-6.7v-20.5l-2.4-5.4h8.8V139l2.7 1.9 2.7-1.9v-22.9z"/><path id="XMLID_25_" class="st4" d="M161.4 116.1c1.6 0 3 .3 4.2 1 1.1.6 2 1.5 2.6 2.6.6 1.1.9 2.3.9 3.6v9.3c-1.5 1.4-3.2 2.8-5.2 4.3s-3.8 2.8-5.4 4v6.7H152v-31.4h9.4zm1.8 13.9v-3.4c0-1.3 0-2.3-.1-3s-.2-1.2-.5-1.6-.8-.5-1.4-.6c-.5-.1-1.3-.1-2.2-.1h-.5v12.4c1.6-.9 3.2-2.1 4.7-3.7z"/></g><g id="XMLID_12_"><path id="XMLID_13_" class="st5" d="M142.5 116.1h6.5v26l-9.2 6.7-9.2-6.7v-20.5l-2.4-5.4h8.8V139l2.7 1.9 2.7-1.9v-22.9z"/><path id="XMLID_19_" class="st5" d="M161.4 116.1c1.6 0 3 .3 4.2 1 1.1.6 2 1.5 2.6 2.6.6 1.1.9 2.3.9 3.6v9.3c-1.5 1.4-3.2 2.8-5.2 4.3s-3.8 2.8-5.4 4v6.7H152v-31.4h9.4zm1.8 13.9v-3.4c0-1.3 0-2.3-.1-3s-.2-1.2-.5-1.6-.8-.5-1.4-.6c-.5-.1-1.3-.1-2.2-.1h-.5v12.4c1.6-.9 3.2-2.1 4.7-3.7z"/></g><g id="XMLID_4_"><path id="XMLID_5_" class="st6" d="M142.5 116.1h6.5v26l-9.2 6.7-9.2-6.7v-20.5l-2.4-5.4h8.8V139l2.7 1.9 2.7-1.9v-22.9z"/><path id="XMLID_8_" class="st6" d="M161.4 116.1c1.6 0 3 .3 4.2 1 1.1.6 2 1.5 2.6 2.6.6 1.1.9 2.3.9 3.6v9.3c-1.5 1.4-3.2 2.8-5.2 4.3s-3.8 2.8-5.4 4v6.7H152v-31.4h9.4zm1.8 13.9v-3.4c0-1.3 0-2.3-.1-3s-.2-1.2-.5-1.6-.8-.5-1.4-.6c-.5-.1-1.3-.1-2.2-.1h-.5v12.4c1.6-.9 3.2-2.1 4.7-3.7z"/></g></g></svg>