<svg version="1.1" id="Calque_4" xmlns="http://www.w3.org/2000/svg" x="0" y="0" viewBox="0 0 300 300" style="enable-background:new 0 0 300 300" xml:space="preserve"><style>.st4{fill:#efc877}.st7{fill:#322714}.st8{fill:#010202}.st9{fill:#43919b}.st10{opacity:.25;fill:#9cd6eb}.st11{fill:#56452a}.st13{fill:#665334}.st15{fill:#5b1314}.st18{fill:#671415}.st19{opacity:.1;fill:#fff}.st20{fill:#c19c5a}.st21{display:none}.st22{display:inline}.st26{fill:#310f0f}.st27{fill:#ddd}.st28{display:none}.st28,.st29{opacity:.85;fill:#310f0f}.st30{fill:#b2302f}.st32{fill:#3c1112}.st34{fill:#cfcece}</style><g id="Calque_24"><g id="Calque_3_-_copie_2"><path id="XMLID_182_" d="m242.8 202.1-10-66.6c-.3-2.1-1.5-3.9-3.3-5L201 113.2l-2.8-1.7c-.9-.5-1.9-.8-2.9-.9L86 105c-2.7-.1-5.3 1.2-6.8 3.4-2.8 4.2-6.8 11.1-8.7 15-.9 1.8-2.5 3.2-4.4 3.9L28 140.8c-6.4 2.3-11.8 6.4-16 11.8-1.6 2.1-3.2 3.7-4.4 5.2-2.2 2.9-2 6.9.3 9.7 1.9 2.2 4.2 5 5.8 6.8 1 1.2 2.3 2.2 3.7 3l90.8 50c1.6 1.1 5.6 1.8 8.3 2.2l34.1 4.7c.5 0 2.4-5.6 2.9-5.7l82-17c4.6-.6 7.9-5 7.3-9.4z" style="opacity:.25;fill:#383838"/></g><g id="Calque_3_-_copie_5"><path id="XMLID_219_" d="m289.9 206-10.7-71c-.3-2.2-1.6-4.1-3.5-5.3l-30.4-18.5-3-1.8c-.7-.4-1.4-.7-2.2-.9L174.6 74l-33.3-20.3c-1.5-.9-3.2-1.3-4.9-1.2L115.7 54l-21.2 1.5c-1.9.1-3.6.8-5.1 1.9l-35.6 27c-2.1 1.6-3.4 3.9-3.7 6.4L42.3 170V171.4c0 .2 0 .5.1.7 0 .1 0 .2.1.3.1.2.1.5.2.7 0 .1.1.2.1.3.1.3.2.5.3.8 0 0 0 .1.1.1.6 1.2 1.6 2.2 2.8 3l.2.1c.1.1.3.1.4.2l100.2 55.2c1.7 1.2 4 1.8 6.5 1.4l67.1-9.5 62-8.7c4.6-.7 8.2-5.4 7.5-10z" style="fill:#18130d"/></g><g id="Calque_3_-_copie_4"><g id="Calque_3_-_copie_3"><path id="XMLID_144_" class="st4" d="m187.4 159.8-10-66.6c-.3-12.1-1.5-13.9-3.3-15l-31.3-19.1c-1.4-.8-3-1.2-4.6-1.1l-19.4 1.4-19.9 1.4c-1.7.1-3.4.8-4.8 1.8L60.7 88c-2 1.5-3.2 3.7-3.5 6l-7.3 74.4c-.5 5 3.8 8.7 9.1 7.9l63-8.9 58.3-8.2c4.4-.6 7.8-5 7.1.6z"/><path id="XMLID_143_" class="st4" d="m147.8 227.3-94.5-52.1 120.8-97 66.4 35z"/><g id="Calque_17"><linearGradient id="XMLID_3_" gradientUnits="userSpaceOnUse" x1="49.854" y1="142.661" x2="240.523" y2="142.661"><stop offset="0" style="stop-color:#c48a5c"/><stop offset="1" style="stop-color:#b69b5d"/></linearGradient><path id="XMLID_179_" d="m147.8 227.3 92.7-114.1-66.4-35-31.3-19.1c-1.4-.8-3-1.2-4.6-1.1l-19.4 1.4-19.9 1.4c-1.7.1-3.4.8-4.8 1.8L60.7 88c-2 1.5-3.2 3.7-3.5 6l-7.3 74.4c-.3 2.9 1.1 5.4 3.4 6.8l.2.1c.1.1.2.1.4.2l93.9 51.8z" style="fill:url(#XMLID_3_)"/></g><linearGradient id="XMLID_4_" gradientUnits="userSpaceOnUse" x1="213.608" y1="228.731" x2="213.608" y2="110.369"><stop offset="0" style="stop-color:#e8a26b"/><stop offset="1" style="stop-color:#efc876"/></linearGradient><path id="XMLID_142_" d="m282.3 202.1-10-66.6c-.3-2.1-1.5-3.9-3.3-5l-31.3-19.1c-1.4-.8-3-1.2-4.6-1.1l-19.4 1.4-19.9 1.4c-1.7.1-3.4.8-4.8 1.8l-33.4 25.3c-2 1.5-3.2 3.7-3.5 6l-7.3 74.4c-.5 5 3.8 8.7 9.1 7.9l63-8.9 58.3-8.2c4.4-.5 7.8-4.9 7.1-9.3z" style="fill:url(#XMLID_4_)"/><g id="windows"><path id="XMLID_216_" class="st7" d="m188.1 155.8-10.2 1.5v-12.6l10.2-1.4z"/><path id="XMLID_215_" class="st8" d="m187.6 155.3-9.2 1.4v-11.5l9.2-1.3z"/><path id="XMLID_214_" class="st9" d="m187.4 155-8.8 1.4v-11l8.8-1.2z"/><path id="XMLID_213_" class="st10" d="m180.6 156.1 4.4-.7.8-11-3.3.5z"/><path id="XMLID_212_" class="st8" d="m187.6 150.7-9.2 1.4v-1.5l9.2-1.3z"/><path id="XMLID_211_" class="st7" d="m202.6 153.8-10.1 1.6v-12.7l10.1-1.4z"/><path id="XMLID_210_" class="st8" d="m202.2 153.3-9.3 1.4v-11.5l9.3-1.3z"/><path id="XMLID_209_" class="st9" d="m202 153.1-8.9 1.3v-10.9l8.9-1.3z"/><path id="XMLID_208_" class="st10" d="m195.1 154.1 4.4-.7.8-10.9-3.2.4z"/><path id="XMLID_207_" class="st8" d="m202.2 148.7-9.3 1.4v-1.5l9.3-1.3z"/><path id="XMLID_206_" class="st7" d="m243.1 148.7-10.2 1.6v-12.7l10.2-1.4z"/><path id="XMLID_205_" class="st8" d="m242.6 148.2-9.2 1.4v-11.4l9.2-1.3z"/><path id="XMLID_204_" class="st9" d="m242.4 148-8.8 1.3v-10.9l8.8-1.2z"/><path id="XMLID_203_" class="st10" d="m235.6 149 4.4-.6.8-11-3.2.4z"/><path id="XMLID_202_" class="st8" d="m242.6 143.6-9.2 1.4v-1.4l9.2-1.3z"/><path id="XMLID_201_" class="st7" d="m259.1 146.4-10.2 1.5v-12.6l10.2-1.5z"/><path id="XMLID_200_" class="st8" d="m258.6 145.9-9.2 1.4v-11.5l9.2-1.3z"/><path id="XMLID_199_" class="st9" d="m258.4 145.6-8.8 1.4v-11l8.8-1.2z"/><path id="XMLID_198_" class="st10" d="m251.6 146.7 4.4-.7.7-11-3.2.5z"/><path id="XMLID_197_" class="st8" d="m258.6 141.3-9.2 1.4v-1.5l9.2-1.3z"/></g><g id="Calque_26"><path id="XMLID_150_" class="st11" d="m201.9 221.9 15-2.1 20.8-2.9c0-20.4-8-37.7-17.9-37.7-9.9-.1-17.9 22.3-17.9 42.7z"/><path id="XMLID_149_" class="st9" d="m203.2 221.7 13.9-2 19.5-2.7c0-19-7.6-36.4-16.8-36.4-9.2 0-16.6 22.1-16.6 41.1z"/></g><g id="Calque_26_-_copie"><path id="XMLID_174_" class="st11" d="m208.2 221.6 10.2-1.4 14.2-2c0-14-5.5-25.8-12.2-25.8-6.7 0-12.2 15.3-12.2 29.2z"/><path id="XMLID_173_" d="m209.6 220.8 9-1.3 12.7-1.8c0-12.3-4.9-23.7-10.9-23.7-5.9.1-10.8 14.5-10.8 26.8z" style="fill:#141414"/></g><path id="XMLID_141_" class="st13" d="m219 180.7.1 38.8 1.6-.2-.1-38.6c-.3 0-.6-.1-.9-.1-.2 0-.4 0-.7.1z"/><path id="XMLID_140_" class="st13" d="M203.6 213.8c0 .4-.1.8-.1 1.2l32.8-4.6c0-.4-.1-.7-.1-1.1l-32.6 4.5z"/><path id="XMLID_139_" class="st13" d="m234.7 201-29.8 4.2c-.1.4-.2.8-.2 1.2l30.3-4.3c-.1-.3-.2-.7-.3-1.1z"/><path id="XMLID_138_" class="st13" d="m231.4 191.3-23.6 3.3c-.1.4-.3.8-.4 1.2l24.5-3.4c-.2-.4-.3-.8-.5-1.1z"/><path id="XMLID_137_" class="st13" d="m227.6 185-16.3 2.3c-.2.4-.5.8-.7 1.2l17.8-2.5c-.3-.3-.6-.6-.8-1z"/></g></g><g id="Calque_5"><g id="Calque_15"><path id="XMLID_115_" d="M156.3 148.6c.7-2.4 3.5-5.4 5.6-6.8l28.4-20.4c3.2-2.8 5.3-2.8 7.1-3l47.3-2.8-6.1-4-41.9-18.4-22.6-11.9-31.3-19.1c-1.4-.8-3-1.2-4.6-1.1l-19.4 1.4L98.9 64c-1.7.1-3.4.8-4.8 1.8L60.7 91.1c-2 1.5-3.5 3.6-3.8 5.9l-1.2 12.2c14.5 8.9 75.1 40 99.4 52.7l1.2-13.3z" style="opacity:.5;fill:#310f0f"/><g id="Calque_21"><path id="XMLID_162_" class="st15" d="M154.6 149.6c.2-2.4 1.1-4.9 3.2-6.4l33.6-26c2-1.5 6.6-1.7 6.6-1.7l42.2-2.8-63.7-34.3-32.6-19.9c-1.4-.9-3.1-1.3-4.8-1.1l-20.2 1.4-20.7 1.5c-1.8.1-3.6.8-5 1.9L58.4 88.5c-2.1 1.6-3.4 3.8-3.6 6.2l-.9 8.6c15.2 9.3 74.2 42.3 99.6 55.5l1.1-9.2z"/><path id="XMLID_161_" class="st15" d="m240.7 112-64.1-33.7L144 58.4c-1.4-.9-3.1-1.3-4.8-1.1L119 58.7l-20.7 1.5c-.2 0-1.3.2-1.5.2 6.4 4.8 80.9 46.7 98.2 54.8 0 0 2-.3 7.2-.8 5.4-.5 12.3-.9 20.8-1.5 9.9-.6 18-.8 17.7-.9z"/></g><g id="Calque_21_-_copie"><radialGradient id="XMLID_5_" cx="126.565" cy="106.565" r="60.32" gradientUnits="userSpaceOnUse"><stop offset="0" style="stop-color:#eb5758"/><stop offset="1" style="stop-color:#951917"/></radialGradient><path id="XMLID_124_" d="M152.2 146.3c.2-2.3 1.5-4.5 3.5-6L189 115c1.4-1.1 3.1-1.7 4.8-1.8l.8-.1 2-23L174 78.2l-31.3-19.1c-1.4-.8-3-1.2-4.6-1.1l-19.4 1.4-19.9 1.4c-1.7.1-3.4.8-4.8 1.8L60.7 88c-2 1.5-3.2 3.7-3.5 6l-.8 8.3c14.5 8.9 70.5 40.2 94.9 52.9l.9-8.9z" style="fill:url(#XMLID_5_)"/><radialGradient id="XMLID_9_" cx="166.537" cy="85.818" r="52.669" gradientUnits="userSpaceOnUse"><stop offset="0" style="stop-color:#eb5758"/><stop offset="1" style="stop-color:#951917"/></radialGradient><path id="XMLID_123_" d="m235.6 110.6-61.5-32.4-31.3-19.1c-1.4-.8-3-1.2-4.6-1.1l-19.4 1.4-19.9 1.4c-.2 0-1.2.2-1.5.2 6.1 4.6 77.6 44.9 94.2 52.6 0 0 1.9-.3 6.9-.8 5.2-.5 11.8-.9 20-1.4 9.6-.6 17.5-.7 17.1-.8z" style="fill:url(#XMLID_9_)"/></g><g id="XMLID_105_"><path id="XMLID_114_" class="st18" d="M62.5 98.9c.2-2.3 1.5-4.5 3.5-6l33.4-25.3c1-.8 2.1-1.3 3.4-1.6h.1c.2-.1.5-.1.7-.1.3 0 .6-.1.7-.1l19.9-1.4 19.4-1.4c1.1-.1 4.5-.4 7-.3l-1-.7c-1.4-.8-5.6-.4-7.2-.3L123 63.1l-19.9 1.4c-.1 0-.4.1-.7.1-.2 0-.5.1-.7.1h-.1c-1.2.3-2.4.8-3.4 1.6L64.7 91.7c-2 1.5-3.2 3.7-3.5 6l-.8 8.3c.4.2.8.5 1.3.8l.8-7.9z"/><path id="XMLID_107_" class="st18" d="M68.7 102.4c.2-2.3 1.5-4.5 3.5-6L105.5 71c1-.8 2.1-1.3 3.4-1.6h.1c.2-.1.5-.1.7-.1.3 0 .6-.1.7-.1l19.9-1.4 19.4-1.4c1.1-.1 4.5-.4 7-.3l-1-.7c-1.4-.8-5.6-.4-7.2-.3L129 66.5 109.1 68c-.1 0-.4.1-.7.1-.2 0-.5.1-.7.1h-.1c-1.2.3-2.4.8-3.4 1.6L70.9 95.1c-2 1.5-3.2 3.7-3.5 6l-.8 8.3c.4.2.8.5 1.3.8l.8-7.8z"/><path id="XMLID_106_" class="st18" d="M75.2 106.6c.2-2.3 1.5-4.5 3.5-6l33.4-25.3c1-.8 2.1-1.3 3.4-1.6h.1c.2-.1.5-.1.7-.1.3 0 .6-.1.7-.1l19.9-1.4 19.4-1.4c1.1-.1 4.5-.4 7-.3l-1-.7c-1.4-.8-5.6-.4-7.2-.3l-19.4 1.4-19.9 1.4c-.1 0-.4.1-.7.1-.2 0-.5.1-.7.1h-.1c-1.2.3-2.4.8-3.4 1.6L77.4 99.4c-2 1.5-3.2 3.7-3.5 6l-.8 8.3c.4.2.8.5 1.3.8l.8-7.9z"/></g><g id="XMLID_98_"><path id="XMLID_103_" class="st18" d="M82 110c.2-2.3 1.5-4.5 3.5-6l33.4-25.3c1-.8 2.1-1.3 3.4-1.6h.1c.2-.1.5-.1.7-.1.3 0 .6-.1.7-.1l19.9-1.4 19.4-1.4c1.1-.1 4.5-.4 7-.3l-1-.7c-1.4-.8-5.6-.4-7.2-.3l-19.4 1.4-19.9 1.4c-.1 0-.4.1-.7.1-.2 0-.5.1-.7.1h-.1c-1.2.3-2.4.8-3.4 1.6l-33.4 25.3c-2 1.5-3.2 3.7-3.5 6L80 117c.4.2.8.5 1.3.8l.7-7.8z"/><path id="XMLID_102_" class="st18" d="M88.3 113.5c.2-2.3 1.5-4.5 3.5-6l33.4-25.3c1-.8 2.1-1.3 3.4-1.6h.1c.2-.1.5-.1.7-.1.3 0 .6-.1.7-.1L150 79l19.4-1.4c1.1-.1 4.5-.4 7-.3l-1-.7c-1.4-.8-5.6-.4-7.2-.3l-19.4 1.4-19.9 1.4c-.1 0-.4.1-.7.1-.2 0-.5.1-.7.1h-.1c-1.2.3-2.4.8-3.4 1.6l-33.4 25.3c-2 1.5-3.2 3.7-3.5 6l-.8 8.3c.4.2.8.5 1.3.8l.7-7.8z"/><path id="XMLID_101_" class="st18" d="M94.8 117.7c.2-2.3 1.5-4.5 3.5-6l33.4-25.3c1-.8 2.1-1.3 3.4-1.6h.1c.2-.1.5-.1.7-.1.3 0 .6-.1.7-.1l19.9-1.4 19.4-1.4c1.1-.1 4.5-.4 7-.3l-1-.7c-1.4-.8-5.6-.4-7.2-.3l-19.4 1.4-19.9 1.4c-.1 0-.4.1-.7.1-.2 0-.5.1-.7.1h-.1c-1.2.3-2.4.8-3.4 1.6L97 110.5c-2 1.5-3.2 3.7-3.5 6l-.8 8.3c.4.2.8.5 1.3.8l.8-7.9z"/></g><g id="XMLID_75_"><path id="XMLID_96_" class="st18" d="M100.9 121.3c.2-2.3 1.5-4.5 3.5-6L137.8 90c1-.8 2.1-1.3 3.4-1.6h.1c.2-.1.5-.1.7-.1.3 0 .6-.1.7-.1l19.9-1.4 19.4-1.4c1.1-.1 4.5-.4 7-.3l-1-.7c-1.4-.8-5.6-.4-7.2-.3l-19.4 1.4-19.9 1.4c-.1 0-.4.1-.7.1-.2 0-.5.1-.7.1h-.1c-1.2.3-2.4.8-3.4 1.6L103.2 114c-2 1.5-3.2 3.7-3.5 6l-.8 8.3c.4.2.8.5 1.3.8l.7-7.8z"/><path id="XMLID_81_" class="st18" d="M107.2 124.7c.2-2.3 1.5-4.5 3.5-6L144 93.4c1-.8 2.1-1.3 3.4-1.6h.1c.2-.1.5-.1.7-.1.3 0 .6-.1.7-.1l19.9-1.4 19.4-1.4c1.1-.1 4.5-.4 7-.3l-1-.7c-1.4-.8-5.6-.4-7.2-.3l-19.4 1.4-19.9 1.4c-.1 0-.4.1-.7.1-.2 0-.5.1-.7.1h-.1c-1.2.3-2.4.8-3.4 1.6l-33.4 25.3c-2 1.5-3.2 3.7-3.5 6l-.8 8.3c.4.2.8.5 1.3.8l.8-7.8z"/><path id="XMLID_80_" class="st18" d="M113.7 129c.2-2.3 1.5-4.5 3.5-6l33.4-25.3c1-.8 2.1-1.3 3.4-1.6h.1c.2-.1.5-.1.7-.1.3 0 .6-.1.7-.1l19.9-1.4 19.4-1.4c1.1-.1 4.5-.4 7-.3l-1-.7c-1.4-.8-5.6-.4-7.2-.3L174 93.2l-19.9 1.4c-.1 0-.4.1-.7.1-.2 0-.5.1-.7.1h-.1c-1.2.3-2.4.8-3.4 1.6l-33.4 25.3c-2 1.5-3.2 3.7-3.5 6l-.8 8.3c.4.2.8.5 1.3.8l.9-7.8z"/></g><g id="XMLID_68_"><path id="XMLID_73_" class="st18" d="M121.8 132.2c.2-2.3 1.5-4.5 3.5-6l33.4-25.3c1-.8 2.1-1.3 3.4-1.6h.1c.2-.1.5-.1.7-.1.3 0 .6-.1.7-.1l19.9-1.4 19.4-1.4c1.1-.1 4.5-.4 7-.3l-1-.7c-1.4-.8-5.6-.4-7.2-.3l-19.4 1.4-19.9 1.4c-.1 0-.4.1-.7.1-.2 0-.5.1-.7.1h-.1c-1.2.3-2.4.8-3.4 1.6L124 125c-2 1.5-3.2 3.7-3.5 6l-.8 8.3c.4.2.8.5 1.3.8l.8-7.9z"/><path id="XMLID_70_" class="st18" d="M128 135.7c.2-2.3 1.5-4.5 3.5-6l33.4-25.3c1-.8 2.1-1.3 3.4-1.6h.1c.2-.1.5-.1.7-.1.3 0 .6-.1.7-.1l19.9-1.4 19.4-1.4c1.1-.1 4.5-.4 7-.3l-1-.7c-1.4-.8-5.6-.4-7.2-.3l-19.4 1.4-19.9 1.4c-.1 0-.4.1-.7.1-.2 0-.5.1-.7.1h-.1c-1.2.3-2.4.8-3.4 1.6l-33.4 25.3c-2 1.5-3.2 3.7-3.5 6l-.8 8.3c.4.2.8.5 1.3.8l.7-7.8z"/><path id="XMLID_69_" class="st18" d="M134.5 139.9c.2-2.3 1.5-4.5 3.5-6l33.4-25.3c1-.8 2.1-1.3 3.4-1.6h.1c.2-.1.5-.1.7-.1.3 0 .6-.1.7-.1l19.9-1.4 19.4-1.4c1.1-.1 4.5-.4 7-.3l-1-.7c-1.4-.8-5.6-.4-7.2-.3l-19.4 1.4-19.9 1.4c-.1 0-.4.1-.7.1-.2 0-.5.1-.7.1h-.1c-1.2.3-2.4.8-3.4 1.6l-33.4 25.3c-2 1.5-3.2 3.7-3.5 6l-.8 8.3c.4.2.8.5 1.3.8l.7-7.8z"/></g><g id="XMLID_64_"><path id="XMLID_67_" class="st18" d="M142.8 143.5c.2-2.3 1.5-4.5 3.5-6l33.4-25.3c1-.8 2.1-1.3 3.4-1.6h.1c.2-.1.5-.1.7-.1.3 0 .6-.1.7-.1l19.9-1.4 19.4-1.4c1.1-.1 4.5-.4 7-.3l-1-.7c-1.4-.8-5.6-.4-7.2-.3l-19.4 1.4-19.9 1.4c-.1 0-.4.1-.7.1-.2 0-.5.1-.7.1h-.1c-1.2.3-2.4.8-3.4 1.6L145 136.2c-2 1.5-3.2 3.7-3.5 6l-.8 8.3c.4.2.8.5 1.3.8l.8-7.8z"/></g><g id="Calque_5_-_copie"><path id="XMLID_156_" class="st19" d="M148.3 134.8 68.5 92c-3.2-1.7-2.3-5.6 1.9-8.6L89 69.9c4.3-3.1 10.3-4.2 13.4-2.4l78.6 45c2.7 1.5 1.5 5.1-2.6 7.9l-17.8 12.2c-4 2.6-9.5 3.6-12.3 2.2z"/><path id="XMLID_155_" class="st19" d="m143.5 149-83-45.3c-2.5-1.4-2.2-3.4-2.2-3.4l.8-7.2s1.3-2.6 4.2-1l82.3 45c3.2 1.7 5.4 4.6 5 6.2l-1.8 6.2c-.3 1.2-2.7 1-5.3-.5z"/><path id="XMLID_154_" class="st19" d="M183.4 110.4 107 65.3c-2.4-1.4-.7-3 3-3.4l24.3-2.1c4.8-.2 6.5.8 9.1 2.2l79.2 43.8c3.4 1.9 2.9 3.6-2.8 3.8l-24.6 1.8c-5.6.2-8.6.8-11.8-1z"/></g></g><g id="Calque_34"><g id="Calque_7"><path id="XMLID_129_" class="st20" d="m177.9 225.4-7.6.9v-57.7l7.1-1z"/><path id="XMLID_128_" class="st13" d="m175.2 225.7-2.1.3-.2-57.7 2.1-.3z"/></g><g id="Calque_7_-_copie"><path id="XMLID_57_" class="st20" d="m198.3 222.4-7.6 1v-57.7l7.1-.9z"/><path id="XMLID_56_" class="st13" d="m195.6 222.8-2.1.2-.3-57.6 2.3-.3z"/></g><g id="Calque_7_-_copie_2"><path id="XMLID_121_" class="st20" d="m247 215.5-7.6 1.1v-57.8l7.1-.9z"/><path id="XMLID_120_" class="st13" d="m244.3 215.9-2.2.3-.1-57.7 2.1-.3z"/></g><g id="Calque_7_-_copie_3"><path id="XMLID_51_" class="st20" d="m266.6 212.7-7.5 1.1V156l7-.9z"/><path id="XMLID_50_" class="st13" d="m263.9 213.1-2.1.3-.2-57.7 2.2-.3z"/></g></g><g id="Calque_33_-_copie"><g id="Calque_7_-_copie_9_4_"><path id="XMLID_95_" class="st20" d="m80.2 188.3-6-2.7 6.5-49.2 5.6 2.5z"/><path id="XMLID_82_" class="st13" d="m78 187.3-1.6-.7 6.3-49.3 1.7.7z"/></g><g id="Calque_7_-_copie_9_3_"><path id="XMLID_29_" class="st20" d="m95.9 196.6-6-2.6 6.5-49.3 5.6 2.5z"/><path id="XMLID_27_" class="st13" d="m93.7 195.7-1.6-.8 6.3-49.3 1.7.7z"/></g><g id="Calque_7_-_copie_9_2_"><path id="XMLID_72_" class="st20" d="m111.6 205.2-6.1-2.7 6.5-49.2 5.6 2.4z"/><path id="XMLID_71_" class="st13" d="m109.4 204.2-1.7-.8 6.3-49.3 1.8.8z"/></g><g id="Calque_7_-_copie_9_1_"><path id="XMLID_21_" class="st20" d="m127 213.3-6.1-2.7 6.5-49.2 5.7 2.4z"/><path id="XMLID_19_" class="st13" d="m124.8 212.3-1.7-.7 6.3-49.3 1.8.7z"/></g><g id="Calque_7_-_copie_9"><path id="XMLID_66_" class="st20" d="m64.9 180.5-6-2.6 6.5-49.3 5.6 2.5z"/><path id="XMLID_65_" class="st13" d="m62.7 179.6-1.6-.8 6.3-49.3 1.7.8z"/></g></g><g id="Calque_32"><path id="XMLID_58_" d="M275.1 211.5c4.5-.6 7.8-5 7.2-9.4l-2.4-15.9c-1 15-22.9 18.3-22.9 18.3s-48 6.7-75.4 9c-32.4 2.7-35.1-10.2-35.1-10.2-4.9 9.5-13.8 5.2-16 4.4-9.4-3.7-57.9-27.8-71.7-38.2-5.9-4.4-8-7.7-7.4-16.8l-1.5 15.6c-.3 2.9 1.1 5.4 3.4 6.8l.2.1c.1.1.2.1.4.2l94 51.8c1.6 1.1 3.7 1.7 6.1 1.3l63-8.9 58.1-8.1z" style="opacity:.1;fill:#010202"/><g id="Calque_12_-_copie_2"><path id="XMLID_14_" class="st11" d="m274.5 149.8-125.2 17.4L55 116.5l-.5 5.3 94.2 50.6 126.5-17.9z"/></g><g id="Calque_12_-_copie_3"><path id="XMLID_61_" style="fill:#fbc786" d="m274 146.8-124.7 17.3-94-50-.4 4.8 93.8 50.4 126-17.8z"/></g><g id="Calque_12_-_copie"><path id="XMLID_11_" style="fill:#e8ba70" d="m274.3 149-124.4 17.3-94.8-51-.5 5.1 94.7 50.8L275 153.5z"/></g></g></g></g><g id="Calque_6_3_"><path id="XMLID_8_" class="st32" d="m216.4 134.5-16.6-2 6.4 4.4s4.3 2 6.3 2.7c2.4.9 4.2 5.5 4.2 5.5s1.3-5.1 3.5-6.7c1.7-1.3 5.1-4.2 5.1-4.2l4.2-4.6-13.1 4.9z"/><radialGradient id="XMLID_16_" cx="215.112" cy="137.515" r="9.881" gradientUnits="userSpaceOnUse"><stop offset="0" style="stop-color:#d6d5d5"/><stop offset=".321" style="stop-color:#d5d3d2"/><stop offset=".542" style="stop-color:#cccaca"/><stop offset=".732" style="stop-color:#bebdbc"/><stop offset=".903" style="stop-color:#acaaab"/><stop offset="1" style="stop-color:#a09e9e"/></radialGradient><path id="XMLID_7_" d="m216.4 135.6-13.7-1.9 7.6 3.6s2.8 1 4 1.5c1.5.6 2.3 5.1 2.3 5.1s.6-4.8 2-5.8c1.1-.8 3.4-2.5 3.4-2.5l5.4-4.6-11 4.6z" style="fill:url(#XMLID_16_)"/><path id="XMLID_6_" class="st34" d="m216.5 137.2-4.7-1 2.6 1.3s.9.4 1.3.5c.5.2.8 3.5.8 3.5s.2-3.3.7-3.7l1.2-.9 2.3-1.9-4.2 2.2z"/></g></svg>