<svg version="1.0" id="圖層_1" xmlns="http://www.w3.org/2000/svg" x="0" y="0" width="300" height="260" style="enable-background:new 0 0 300 260" xml:space="preserve"><style>.st0{fill:#303030}</style><g id="Calque_29"><path id="XMLID_197_" class="st0" d="M68.6 200.4H52c-2.2 0-4-1.6-4-3.6v-134c0-1.9 1.8-3.6 4-3.6h16.4c2.2 0 4 1.6 4 3.6v133.9c.2 2.1-1.6 3.7-3.8 3.7z"/><radialGradient id="XMLID_2_" cx="60.255" cy="-16251.847" r="49.438" gradientTransform="matrix(1 0 0 -1 0 -16122)" gradientUnits="userSpaceOnUse"><stop offset="0" style="stop-color:#d6d5d5"/><stop offset=".321" style="stop-color:#d4d3d2"/><stop offset=".542" style="stop-color:#cccaca"/><stop offset=".732" style="stop-color:#bebdbd"/><stop offset=".903" style="stop-color:#acabab"/><stop offset="1" style="stop-color:#9f9e9e"/></radialGradient><path id="XMLID_28_" d="M67.5 198.9H53.1c-1.9 0-3.5-1.6-3.5-3.5V64.2c0-1.9 1.6-3.5 3.5-3.5h14.3c1.9 0 3.5 1.6 3.5 3.5v131.1c.1 2-1.5 3.6-3.4 3.6z" style="fill:url(#XMLID_2_)"/></g><g id="Calque_29_-_copie"><path id="XMLID_54_" class="st0" d="M247.9 200.3h-16.6c-2.2 0-4-1.6-4-3.6v-134c0-1.9 1.8-3.6 4-3.6h16.4c2.2 0 4 1.6 4 3.6v133.9c.2 2.1-1.6 3.7-3.8 3.7z"/><radialGradient id="XMLID_3_" cx="239.553" cy="-16251.747" r="49.438" gradientTransform="matrix(1 0 0 -1 0 -16122)" gradientUnits="userSpaceOnUse"><stop offset="0" style="stop-color:#d6d5d5"/><stop offset=".321" style="stop-color:#d4d3d2"/><stop offset=".542" style="stop-color:#cccaca"/><stop offset=".732" style="stop-color:#bebdbd"/><stop offset=".903" style="stop-color:#acabab"/><stop offset="1" style="stop-color:#9f9e9e"/></radialGradient><path id="XMLID_47_" d="M246.8 198.8h-14.4c-1.9 0-3.5-1.6-3.5-3.5V64.1c0-1.9 1.6-3.5 3.5-3.5h14.3c1.9 0 3.5 1.6 3.5 3.5v131.1c.1 2-1.5 3.6-3.4 3.6z" style="fill:url(#XMLID_3_)"/></g></svg>