<svg version="1.0" id="Calque_1" xmlns="http://www.w3.org/2000/svg" x="0" y="0" width="300" height="260" style="enable-background:new 0 0 300 260" xml:space="preserve"><style>.st0{display:none}.st1,.st2,.st3{display:inline;fill:#adadad}.st2,.st3{fill:#d1d1d1}.st3{fill:none;stroke:#3a3a3a;stroke-width:16;stroke-miterlimit:10}.st4{fill:#3a3a3a}.st4,.st5{display:inline}.st6{fill:#adadad}.st7{fill:#d1d1d1}</style><g id="dust3"><path id="XMLID_12_" class="st6" d="M103.9 139.7s-20.3-6.8-6-35.4 32.4-29 43.3-18.5c0 0 13.9-16.6 36.5.8s28.6 30.5 16.2 36.9c0 0 19.6 26.7-4.9 41.1 0 0 8.3 11.3-6.8 23.3-15.1 12.1-28.2-6.8-28.2-6.8s-13.6 15.8-31.3 4.5-30.8-34.6-18.8-45.9z"/><path id="XMLID_13_" class="st7" d="M119.4 138.2s-13-4.3-3.9-22.7 20.8-18.6 27.8-11.8c0 0 8.9-10.6 23.4.5s18.4 19.6 10.4 23.7c0 0 12.6 17.1-3.1 26.3 0 0 5.3 7.2-4.3 15-9.7 7.7-18.1-4.3-18.1-4.3s-8.7 10.1-20 2.9c-11.5-7.4-19.9-22.4-12.2-29.6z"/><path id="XMLID_11_" d="M103.9 139.7s-20.3-6.8-6-35.4 32.4-29 43.3-18.5c0 0 13.9-16.6 36.5.8s28.6 30.5 16.2 36.9c0 0 19.6 26.7-4.9 41.1 0 0 8.3 11.3-6.8 23.3-15.1 12.1-28.2-6.8-28.2-6.8s-13.6 15.8-31.3 4.5-30.8-34.6-18.8-45.9z" style="fill:none;stroke:#3a3a3a;stroke-width:16;stroke-miterlimit:10"/><path id="XMLID_14_" d="M141 119.4s4.8-13.2 15.8-8.3c10.5 4.6 10.7 14.6 10.7 14.6s-2.4-10-14.3-10.6c-10.2-.6-12.2 4.3-12.2 4.3z" style="fill:#3a3a3a"/></g></svg>