<svg version="1.0" id="圖層_1" xmlns="http://www.w3.org/2000/svg" x="0" y="0" width="300" height="260" style="enable-background:new 0 0 300 260" xml:space="preserve"><style>.st4{fill:none;stroke:#58595b;stroke-width:3;stroke-miterlimit:10}.st5{fill:#6d6e71}.st6{opacity:.61;fill:#e6e7e8}.st7,.st8{opacity:.3}.st8{fill:#fff}.st9{opacity:.21}.st12{opacity:.18;fill:#fff}.st13,.st16{fill:none;stroke:#58595b;stroke-width:4;stroke-miterlimit:10}.st16{fill:#019547;stroke:#046938;stroke-width:.5}.st17{opacity:.16;fill:#010101;enable-background:new}.st18{fill:#046938}.st19{display:none}.st20{display:inline}</style><g id="圖層_7"><g id="圖層_11"><g id="圖層_8_拷貝"><path id="XMLID_47_" d="M226.2 240.7c-6.2-.9-11.9-4.1-16.8-9-5.7-7.3-13.8-18.7-5.7-26 6.5-7.3 12.2-12.2 17.8-19.5 8.1-8.1 19.5-8.9 29.6-6.5 2.3.5 4.3 1.1 6.1 1.8 3.7 1.5 7 3.7 9.3 6.9 1.3 1.8 2.4 4 2.1 6.2-.4 3.1-3.5 4.5-6.9 4.4-4.5-.6-11.8.2-10.2 6.7.8 7.3 6.5 13 5.7 21.1-2.4 14.7-19.4 13.9-31 13.9" style="fill:#966d48;stroke:#594a42;stroke-width:3;stroke-miterlimit:10"/></g><g id="圖層_8_拷貝_3"><path id="XMLID_53_" d="M226.2 240.7c-6.2-.9-11.9-4.1-16.8-9-5.7-7.3-13.8-18.7-5.7-26 6.5-7.3 12.2-12.2 17.8-19.5 8.1-8.1 19.5-8.9 29.6-6.5 2.3.5 4.3 1.1 6.1 1.8 3.7 1.5 7 3.7 9.3 6.9 1.3 1.8 2.4 4 2.1 6.2-.4 3.1-3.5 4.5-6.9 4.4-4.5-.6-11.8.2-10.2 6.7.8 7.3 6.5 13 5.7 21.1-2.4 14.7-19.4 13.9-31 13.9" style="fill:#966d48"/></g><g id="圖層_8_拷貝_2"><path id="XMLID_45_" d="M228.3 232.8c-4.6-.6-8.9-3.1-12.5-6.7-4.2-5.4-10.3-13.9-4.2-19.4 4.8-5.4 9.1-9.1 13.3-14.5 6-6 14.5-6.7 22.1-4.8 1.7.4 3.2.8 4.5 1.4 2.7 1.1 5.2 2.8 6.9 5.2 1 1.3 1.8 3 1.6 4.6-.3 2.3-2.6 3.4-5.2 3.3-3.4-.5-8.8.1-7.6 5 .6 5.4 4.8 9.7 4.2 15.7-1.7 10.8-14.4 10.2-23.1 10.2" style="fill:#a97c50"/></g></g><g id="圖層_2_拷貝_2"><path id="XMLID_66_" class="st4" d="M273.1 209.4s1.4 3.1-2.5 6.3c-3.8 3.2-12.7 8.7-13.9 9.5-.1.1-.2.1-.2.2-.4.4-2.2 1.8-6.6.2-3.3-1.2-6.5-2.1-8.1-2.5-1-.3-2-1-2.5-1.9-.1-.1-.2-.3-.3-.5-1-1.9-6.5-14-8-17.1-.2-.3-.4-.7-.5-.9-.5-1-2-3.3 0-6 2.9-3.9 7-8 7-8s1.8-2.3 4.3-1.9c2.5.4 21.4 11.6 23.8 13.1.1.1.3.2.4.2.9.1 4.5 1.9 7.1 9.3z"/><path id="XMLID_65_" class="st5" d="M273.1 209.4s1.4 3.1-2.5 6.3c-3.8 3.2-12.7 8.7-13.9 9.5-.1.1-.2.1-.2.2-.4.4-2.2 1.8-6.6.2-3.3-1.2-6.5-2.1-8.1-2.5-1-.3-2-1-2.5-1.9-.1-.1-.2-.3-.3-.5-1-1.9-6.5-14-8-17.1-.2-.3-.4-.7-.5-.9-.5-1-2-3.3 0-6 2.9-3.9 7-8 7-8s1.8-2.3 4.3-1.9c2.5.4 21.4 11.6 23.8 13.1.1.1.3.2.4.2.9.1 4.5 1.9 7.1 9.3z"/><path id="XMLID_64_" class="st6" d="m250.5 205.5-1.9 4.7s-.4.7-1.2.5c-.8-.3-7.2-3.6-7.2-3.6l7.5 4.5s.6.4 1.7 2.5c1.1 2 2.2 3.9 2.2 3.9s-3.1-5.5-2.8-6.6c.3-1.1 1.7-5.9 1.7-5.9z"/><path id="XMLID_63_" class="st7" d="M241.9 222.9c1.6.4 4.7 1.3 8.1 2.5 4.4 1.6 6.2.2 6.6-.2.1-.1.2-.1.2-.2 1.2-.7 10.1-6.3 13.9-9.5 3.8-3.2 2.5-6.3 2.5-6.3l-1.5 1.3s-7.7 8.9-17.5 9.8c-7.7.7-13.6-.7-15.7-1.6 0 .1-.1.2-.1.3.1.3.3.6.4.8v.1c0 .1.1.1.1.2v.1c0 .1.1.2.1.2.1.2.2.3.3.5.6 1 1.6 1.8 2.6 2z"/><path id="XMLID_62_" class="st8" d="M264.2 198.7c-1.8-1.1-4.8-2.9-8.1-4.7-.3-.2-.6-.3-.9-.5l-.6.6-6.2 17.7 7.3 14.1c.1 0 .2-.1.3-.2.1 0 .2-.1.2-.1.1 0 .1-.1.1-.1l.1-.1c.1-.1.2-.1.2-.2 1.2-.7 10.1-6.3 13.9-9.5 3.8-3.2 2.5-6.3 2.5-6.3-2.6-7.4-6.2-9.2-7-9.6-.2-.1-.3-.1-.4-.2-.3-.1-.7-.4-1.3-.8 0 0-.1 0-.1-.1z"/><path id="XMLID_61_" class="st9" d="m236.3 200.7 2.2-13.1c-.6.5-.9.9-.9.9s-4.1 4.1-7 8c-.6.8-.8 1.5-1 2.2l6.7 2z"/><linearGradient id="XMLID_67_" gradientUnits="userSpaceOnUse" x1="28.492" y1="-.302" x2="28.492" y2="24.683" gradientTransform="rotate(148.76 110.79 135.445)"><stop offset="0" style="stop-color:#fff"/><stop offset=".033" style="stop-color:#fff;stop-opacity:.9674"/><stop offset="1" style="stop-color:#fff;stop-opacity:0"/></linearGradient><path id="XMLID_60_" d="m249.1 209.8.7-2s3.9-11 4.8-13c.3-.8.3-1.3.1-1.6-5.6-3.2-11.4-6.4-12.7-6.6-1.4-.2-2.6.4-3.4 1 0 0-1.6 9.7-2.2 13.1-.5 3.1.5 4.6.5 4.6s7.9 4.4 9.8 5.3c2 1 2.4-.8 2.4-.8z" style="opacity:.52;fill:url(#XMLID_67_)"/><linearGradient id="XMLID_68_" gradientUnits="userSpaceOnUse" x1="37.3" y1="14.551" x2="43.761" y2="14.551" gradientTransform="rotate(148.76 110.79 135.445)"><stop offset="0" style="stop-color:#000"/><stop offset="1" style="stop-color:#000;stop-opacity:0"/></linearGradient><path id="XMLID_59_" d="m236.3 200.7-6.7-2c-.3 1.7.6 3.1 1 3.8.1.3.3.6.5.9.3.7 1.5 3.2 2.2 4.6 1.1.2 2-.4 2.6-1.8.3-.7.6-1.7.4-2.8-.2-1.1 0-2.7 0-2.7z" style="opacity:.46;fill:url(#XMLID_68_)"/><path id="XMLID_58_" class="st12" d="M234.3 206.6s0 .4-.3.4-.5 0-.4-.2c.1-.2.3-.5.4-.5.2 0 .3.3.3.3z"/><path id="XMLID_57_" class="st12" d="M235 199.5s-.3.2-.6-.2-.5-.7-.2-.6c.2 0 .7.1.8.4.1.2 0 .4 0 .4z"/><path id="XMLID_56_" class="st12" d="M243.2 220.8s.1.3-.2.3c-.2.1-.4.1-.3-.1 0-.1.1-.4.3-.4.2.1.2.2.2.2z"/><path id="XMLID_55_" class="st12" d="M248.3 213.1s0 .2-.1.2-.2 0-.1-.1c0-.1 0-.2.1-.2l.1.1z"/><path id="XMLID_52_" class="st13" d="M227.6 240.1s.2 1.8-1.6 2.9c-2.2 1.3-8.6 3.8-9.6 4.2-.1 0-.2.1-.2.1-.4.3-2.4 1.2-5.2-1.2-2.2-1.9-4.6-3.6-5.8-4.4-.8-.5-1.2-1.5-1.1-2.5 0-.2 0-.3.1-.5.3-1.8 3-11 3.4-12.9 0-.2.1-.4.1-.6.1-.6.2-2 2.7-2.1 3.1-.1 6.3.2 6.3.2s1.3 0 2.3.9c.9.8 6.4 9.2 7.1 10.2 0 .1.1.1.1.2.1.4 1.2 1.8 1.4 5.5z"/><path id="XMLID_51_" class="st5" d="M227.6 240.1s.2 1.8-1.6 2.9c-2.2 1.3-8.6 3.8-9.6 4.2-.1 0-.2.1-.2.1-.4.3-2.4 1.2-5.2-1.2-2.2-1.9-4.6-3.6-5.8-4.4-.8-.5-1.2-1.5-1.1-2.5 0-.2 0-.3.1-.5.3-1.8 3-11 3.4-12.9 0-.2.1-.4.1-.6.1-.6.2-2 2.7-2.1 3.1-.1 6.3.2 6.3.2s1.3 0 2.3.9c.9.8 6.4 9.2 7.1 10.2 0 .1.1.1.1.2.1.4 1.2 1.8 1.4 5.5z"/><path id="XMLID_50_" class="st6" d="m218.6 233.3-2.3 1.7s-.5.3-.9-.1-3.2-4.1-3.2-4.1l3.1 4.7s.2.4.2 1.9.1 3.1.1 3.1 0-4.2.5-4.8c.4-.5 2.5-2.4 2.5-2.4z"/><path id="XMLID_49_" class="st7" d="M205.1 241.7c1.2.8 3.6 2.5 5.8 4.4 2.8 2.4 4.7 1.5 5.2 1.2.1 0 .2-.1.2-.1 1.1-.4 7.5-2.9 9.6-4.2 1.9-1.1 1.6-2.9 1.6-2.9l-.7.4s-4.7 3.7-10.7 2.4c-6-1.4-10.3-4.2-11.6-5.6-.1.1-.2.1-.3.2-.1.3-.1.5-.2.7V238.8c0 .2-.1.3-.1.5 0 .9.4 1.9 1.2 2.4z"/><path id="XMLID_48_" class="st8" d="M225.5 233.9c-.5-.8-1.4-2.1-2.3-3.5-.1-.1-.2-.3-.3-.4l-.3.1-7 5.8-.3 11.8c.1 0 .2-.1.3-.1.1 0 .2-.1.2-.1.1 0 .1 0 .1-.1 0 0 .1 0 .1-.1.1 0 .2-.1.2-.1 1.1-.4 7.5-2.9 9.6-4.2 1.9-1.1 1.6-2.9 1.6-2.9-.2-3.7-1.3-5.1-1.5-5.4 0-.1-.1-.1-.1-.2.1-.1 0-.3-.3-.6.1 0 0 0 0 0z"/><path id="XMLID_46_" class="st9" d="m212.2 226.8 5-3.3c-.4-.1-.6-.1-.6-.1s-3.2-.3-6.3-.2c-.7 0-1.2.1-1.5.3l3.4 3.3z"/><linearGradient id="XMLID_69_" gradientUnits="userSpaceOnUse" x1="86.089" y1="276.596" x2="86.089" y2="288.234" gradientTransform="rotate(176.477 152.232 257.903) scale(.99999)"><stop offset="0" style="stop-color:#fff"/><stop offset=".033" style="stop-color:#fff;stop-opacity:.9674"/><stop offset="1" style="stop-color:#fff;stop-opacity:0"/></linearGradient><path id="XMLID_44_" d="m216.7 234.9 1-.8s4.2-3.5 4.9-3.9c.3-.2.3-.4.3-.5-1.6-2.4-3.4-5-3.9-5.4-.6-.5-1.2-.7-1.7-.8 0 0-3.5 2.3-5 3.3s-1.5 2-1.5 2 3.4 4.7 4.2 5.8c.8 1.2 1.7.3 1.7.3z" style="opacity:.52;fill:url(#XMLID_69_)"/><linearGradient id="XMLID_70_" gradientUnits="userSpaceOnUse" x1="90.474" y1="285.932" x2="96.028" y2="285.932" gradientTransform="rotate(176.477 152.232 257.903) scale(.99999)"><stop offset="0" style="stop-color:#000"/><stop offset="1" style="stop-color:#000;stop-opacity:0"/></linearGradient><path id="XMLID_43_" d="m212.2 226.8-3.4-3.3c-1 .5-1.1 1.3-1.1 1.8 0 .1-.1.4-.1.6-.1.4-.5 2-.8 2.9.8.6 1.7.6 2.8.2.5-.2 1.2-.5 1.5-1.1.3-.6 1.1-1.1 1.1-1.1z" style="opacity:.46;fill:url(#XMLID_70_)"/><path id="XMLID_42_" class="st12" d="M208.3 228.5s-.2.2-.4.1-.3-.2-.2-.2c.1 0 .5-.1.6 0s0 .1 0 .1z"/><path id="XMLID_41_" class="st12" d="M211.8 225.9s-.3-.1-.3-.3c0-.2 0-.4.1-.3.1.1.4.3.4.4 0 .2-.2.2-.2.2z"/><path id="XMLID_32_" class="st12" d="M207.8 240.3s-.1.2-.4.2c-.2 0-.4-.1-.3-.2.1-.1.4-.3.5-.2.2.1.2.2.2.2z"/><path id="XMLID_31_" class="st12" d="M215.1 236.5s0 .1-.1.1-.1 0 0-.1c-.1 0 0-.1.1 0z"/></g><g id="圖層_13"><g id="圖層_4_拷貝_45_14_"><g id="圖層_1_拷貝_47_38_"><path id="XMLID_200_" class="st16" d="M235.8 168.6s3.5-2.3 5.6-1.1 5.5 4 5.5 4-4.1 2-6.4 1.2c-2.3-.9-4.7-4.1-4.7-4.1z"/><path id="XMLID_199_" class="st17" d="M240.5 168.5c1.6.9 3.9 2.8 4.9 3.6.8-.3 1.3-.6 1.3-.6s-3.4-2.8-5.5-4-5.6 1.1-5.6 1.1.1.1.3.4c1.4-.6 3.3-1.3 4.6-.5z"/><path id="XMLID_198_" class="st18" d="M242.8 171s-1.7-1.9-3.2-2.3c-1.5-.3-3.5-.1-3.5-.1s2.8.3 3.6.7c.6.3 3.1 1.7 3.1 1.7z"/></g><g id="圖層_1_拷貝_47_37_"><path id="XMLID_197_" class="st16" d="M208.8 145.4s2.1 3.6.8 5.6c-1.4 2-4.3 5.3-4.3 5.3s-1.8-4.2-.8-6.4 4.3-4.5 4.3-4.5z"/><path id="XMLID_196_" class="st17" d="M208.7 150.2c-1 1.5-3 3.8-3.9 4.8.3.8.5 1.4.5 1.4s3-3.3 4.3-5.3c1.4-2-.8-5.6-.8-5.6s-.1.1-.4.3c.5 1.1 1.1 3.1.3 4.4z"/><path id="XMLID_195_" class="st18" d="M206 152.3s2-1.6 2.5-3.1c.4-1.5.3-3.5.3-3.5s-.5 2.7-.8 3.5c-.5.7-2 3.1-2 3.1z"/></g><g id="圖層_1_拷貝_47_36_"><path id="XMLID_194_" class="st16" d="M195.8 218.6s.9 4.1-1.1 5.6c-1.9 1.5-5.8 3.6-5.8 3.6s-.4-4.6 1.3-6.3c1.7-1.9 5.6-2.9 5.6-2.9z"/><path id="XMLID_193_" class="st17" d="M194.1 223.1c-1.5 1.1-4.1 2.6-5.2 3.2v1.5s3.9-2.1 5.8-3.6 1.1-5.6 1.1-5.6-.2.1-.5.1c.2 1.4.1 3.4-1.2 4.4z"/><path id="XMLID_192_" class="st18" d="M191 224.2s2.4-.9 3.3-2.1c.9-1.3 1.4-3.3 1.4-3.3s-1.3 2.4-1.9 3l-2.8 2.4z"/></g></g></g></g></svg>