<svg version="1.0" id="圖層_1" xmlns="http://www.w3.org/2000/svg" x="0" y="0" width="300" height="260" style="enable-background:new 0 0 300 260" xml:space="preserve"><style>.st5{fill:#019547;stroke:#046938;stroke-miterlimit:10}.st6{opacity:.16;fill:#010101;enable-background:new}.st7{fill:#046938}</style><g id="XMLID_1_"><g id="XMLID_262_"><path id="XMLID_268_" d="M49.9 88.9s-5-4.1-3-6c2.1-1.8 6.2-2.1 6.2-2.1s-1.8-3.9 0-3.9h4.1s-.9-3.9 1.6-3.4l5.5 1.1s2.1-1.5 4.1-1.2 6.7-2.5 8.7-1.8 6.2 1.6 6.2 1.6-2.1-3.7 0-4.1c0-1.8-2.1-6 2.8-7.3 4.8-1.4 1.8-9.2 1.8-9.2s-3.2-4.1-3-8.7 3.9-5 3.9-5-1.6-5.7 0-8 4.8-1.1 4.8-1.1-.9-2.5 1.1-3.2 4.8.9 4.8.9-.5-5.5 4.1-5.5 4.6 2.5 4.6 2.5.7-1.4 4.8-2.5 5.5 1.4 5.5 1.4 1.4-2.4 3.7-1.7 3.7 3.7 3.7 3.7-1.6-1.6 2.5-.9c4.1.7 3.9 3.2 3.9 3.2s3.9-1.8 4.6-3.7c.7-1.8 1.6-4.1 3.7-4.1s4.1 1.6 4.1 1.6 2.8-1.1 4.4-.2c1.6.9 3 3.2 3 3.2s-1.1-3 1.1-4.6 6.2 1.6 6.2 1.6-1.6-4.6 0-4.8c1.6-.2 3.9 0 3.9 0s3.4-1.4 4.1-.1c.7 1.2-.5-3.8 2.1-3.6 2.5.2 5.3 3.4 5.3 3.4s-.1-4.5 2.3-3.4 3 3.7 3 3.7 1.8-1.3 3.6.7c1.7 1.9 1.4 3.2 1.4 3.2s3.4-2.2 5 .1.9 4.5.9 4.5 1.7.1 3.1 1.4c1.4 1.3.8 2.2.8 2.2s1-2.2 3-1.3c1.9.9 2.2 2.1 2.2 2.1s3 .1 3.6 1.3c.6 1.1.5 3.9.5 3.9s2.6.7 2.3 3-2.3 3.7-2.3 3.7 1.8 3.3 1 5.5 6.4-4 6.4-4 1.6-2.8 3.1-2.1 0 4.5 0 4.5 1.8 0 1.5 1.5.7-3.4 2.8-2.1c2.1 1.4 4.1 2.8 3.2 4.4-.9 1.6 2.2 2.8 2.2 2.8s1.8-3.9 4.5-.9c2.6 3.1.5 4.4.5 4.4s3.9 1.7 4.2 3.7c.3 1.9-1.4 3.1-1.4 3.1s2.6 2.6 2.8 4.4c2.6 1.3 4.4 3.1 4.2 4.6-.1 1.5-1.3 4.8-1.3 4.8l.1 5.7s6.7 2.3 7.7 4.2 6.1 3.4 5.3 5.2c-.8 1.7-.6 3.6-.6 3.6s1.7 0 2.1 1.8c.3 1.8-1.6 3.1-1.6 3.1s1.5.2 1.6 2.1-2.4 4.6-2.4 4.6 1.4 3.2 1.1 4.2c-.2 1-2.8 2.2-2.8 2.2l-.2 4.4s2.5.9 2.1 2.6c-.5 1.7-1.8 3.8-1.8 3.8s1.6 2.1 1.1 3.4c-.5 1.3 1.9 2.3 1.5 3.6-.5 1.3-2.2 4.1-4 4.2s-1.7 3.2-1.7 3.2 3.9 1.9 3.4 3.4 3.2 2.4 3.2 4.1c0 1.7.2 8.1-1.1 7.6s1.4 4.2 1.7 4.5c.3.2 5.6 5.4 3 7.8-2.5 2.4-1.6 5.8-1.6 5.8s-2.4 2.2-3.8 1.1-1.3 5.4-1.3 5.4 4.5-.3 4.5 1.5-1.9 4.9-1.9 4.9 4.2 2.9 3.1 3.9-4.2 1.1-4.4 1.8c-.1.7-1.5 2.3-1.5 2.3s3.3 3.1 1.7 4.2c-1.6 1.1-4.1 7.1-4.1 7.1s-2.5 2.8-4.7 2.5c-2.2-.2-1.1 3.2-3.7 3-2.5-.2-6-.3-5.7 1.3.2 1.6 2.9 4.8.3 4.8-2.5 0-6.1 2.6-6.1 2.6s-1.4 3.9-4.7 2.6-6.5-4.5-6.5-4.5-4.7.7-4.7 3.1-3 3.8-7.2 4.5-2.6 2.9-2.6 2.9 1.7 5.5-.1 5.6-4 1.8-4.7.5c-.7-1.4-3-1.4-3 0s-.8 2.8-1.7 2.9c-.9.1.5 4.1-2.4 3.3s-3.8-2.1-3.8-2.1 1.6 2.1-1.4 1.5-2.5 1.6-5.6 1.1-1.6-3.9-3.6-4c-1.9-.1-2.1-3.1-3.2-2.6s-1.6 3.3-3.6 2.5-3.6-3.2-3.6-3.2-4 1.4-4.4-.3c-.3-1.7-.5-4.5-.8-4.5s-5.4-1.3-5.4-1.3-1.5-2.4-1-4-.8-4.2-2.1-4.1c-1.3.1-2.6 1.5-3.7.5s-.8-3.8-.8-3.8-3.1-1.9-3.9-1.3c-.8.7.8 4.2-2.1 5.8-2.9 1.6-7.2-3.7-7.2-3.7s-3.4 2.2-4.1 1.3c-.7-.9 4.5 5.4 1.8 6.4-2.6 1 2.4 5.6-1.7 5-4.1-.6-3.9 2.3-3.9 2.3s-2.9 1.8-3.8.2-1.3 2.9-3.1 3.7c-1.8.8-7.6-.1-8.4-2.5-2.8 0-6.3.5-6.8-2.2-.5-2.6.1-6.4.1-6.4s-4.5 1-4.2-.2 1 2.9-1.5 3.2-3.7-1.1-3.7-1.1-.1 1.8-2.2 1.9c-2.1.1-3-1.9-3-1.9s-.9 2.5-2.5 2.5-2.8-3.2-2.8-3.2-8-.7-8.5-2.8-.3-3.4-.3-3.4-7.3 1.4-7.8-1.8-.3-4.9-.3-4.9-4.5-.3-4.4-2.4c.1-2.1 1.7-4.2 1.7-4.2s-1.2-.5-1.2-1.9 3-3.4 3-3.4.3-2.4-1.6-2.4-5.5-3.7-5.4-4-.5-4.5-4.1-3.3c-3.7 1.1-3.6-4.4-3.6-4.4s-3.2-2.8-2.9-4.4c.3-1.6 1.8-2.5 1.8-2.5s-3.7-1.4-2.9-2.8c.8-1.4 3.9-3.4 3.9-3.4s-4.2-3.7-4.1-5.2-2-.8-2.4-1.6-.7-3.3-.7-3.3-2.6-1.8-1.5-3.1 3-2.9 3-2.9-6.2-1.3-6.2-3.1 2.1-3.9 2.1-3.9 1.4-1.5.1-3.4c-1.3-1.9-1.4-4.9-1.4-4.9s-3-1.8-2.5-4.4c.5-2.5 5-2.9 5-2.9s1.3-1.8.6-3.3-2.9-3.8-2.3-5.3c.6-1.5 1.1-2.6 1.1-2.6s-2.8-3-2.1-5 6-2.4 6-2.4 4.9-.9 3.2-3.1-1.7-4.1 0-5.5-2.1-3.9-2.1-3.9.7-2.8-.6-3.8 1-3.2 1-3.2-1.4-1.4-1-2.3 4.5-4 4.5-4z" style="fill:#009444"/><path id="XMLID_267_" d="M49.9 88.9s-5-4.1-3-6c2.1-1.8 6.2-2.1 6.2-2.1s-1.8-3.9 0-3.9h4.1s-.9-3.9 1.6-3.4l5.5 1.1s2.1-1.5 4.1-1.2 6.7-2.5 8.7-1.8 6.2 1.6 6.2 1.6-2.1-3.7 0-4.1c0-1.8-2.1-6 2.8-7.3 4.8-1.4 1.8-9.2 1.8-9.2s-3.2-4.1-3-8.7 3.9-5 3.9-5-1.6-5.7 0-8 4.8-1.1 4.8-1.1-.9-2.5 1.1-3.2 4.8.9 4.8.9-.5-5.5 4.1-5.5 4.6 2.5 4.6 2.5.7-1.4 4.8-2.5 5.5 1.4 5.5 1.4 1.4-2.4 3.7-1.7 3.7 3.7 3.7 3.7-1.6-1.6 2.5-.9c4.1.7 3.9 3.2 3.9 3.2s3.9-1.8 4.6-3.7c.7-1.8 1.6-4.1 3.7-4.1s4.1 1.6 4.1 1.6 2.8-1.1 4.4-.2c1.6.9 3 3.2 3 3.2s-1.1-3 1.1-4.6 6.2 1.6 6.2 1.6-1.6-4.6 0-4.8c1.6-.2 3.9 0 3.9 0s3.4-1.4 4.1-.1c.7 1.2-.5-3.8 2.1-3.6 2.5.2 5.3 3.4 5.3 3.4s-.1-4.5 2.3-3.4 3 3.7 3 3.7 1.8-1.3 3.6.7c1.7 1.9 1.4 3.2 1.4 3.2s3.4-2.2 5 .1.9 4.5.9 4.5 1.7.1 3.1 1.4c1.4 1.3.8 2.2.8 2.2s1-2.2 3-1.3c1.9.9 2.2 2.1 2.2 2.1s3 .1 3.6 1.3c.6 1.1.5 3.9.5 3.9s2.6.7 2.3 3-2.3 3.7-2.3 3.7 1.8 3.3 1 5.5 6.4-4 6.4-4 1.6-2.8 3.1-2.1 0 4.5 0 4.5 1.8 0 1.5 1.5.7-3.4 2.8-2.1c2.1 1.4 4.1 2.8 3.2 4.4-.9 1.6 2.2 2.8 2.2 2.8s1.8-3.9 4.5-.9c2.6 3.1.5 4.4.5 4.4s3.9 1.7 4.2 3.7c.3 1.9-1.4 3.1-1.4 3.1s2.6 2.6 2.8 4.4c2.6 1.3 4.4 3.1 4.2 4.6-.1 1.5-1.3 4.8-1.3 4.8l.1 5.7s6.7 2.3 7.7 4.2 6.1 3.4 5.3 5.2c-.8 1.7-.6 3.6-.6 3.6s1.7 0 2.1 1.8c.3 1.8-1.6 3.1-1.6 3.1s1.5.2 1.6 2.1-2.4 4.6-2.4 4.6 1.4 3.2 1.1 4.2c-.2 1-2.8 2.2-2.8 2.2l-.2 4.4s2.5.9 2.1 2.6c-.5 1.7-1.8 3.8-1.8 3.8s1.6 2.1 1.1 3.4c-.5 1.3 1.9 2.3 1.5 3.6-.5 1.3-2.2 4.1-4 4.2s-1.7 3.2-1.7 3.2 3.9 1.9 3.4 3.4 3.2 2.4 3.2 4.1c0 1.7.2 8.1-1.1 7.6s1.4 4.2 1.7 4.5c.3.2 5.6 5.4 3 7.8-2.5 2.4-1.6 5.8-1.6 5.8s-2.4 2.2-3.8 1.1-1.3 5.4-1.3 5.4 4.5-.3 4.5 1.5-1.9 4.9-1.9 4.9 4.2 2.9 3.1 3.9-4.2 1.1-4.4 1.8c-.1.7-1.5 2.3-1.5 2.3s3.3 3.1 1.7 4.2c-1.6 1.1-4.1 7.1-4.1 7.1s-2.5 2.8-4.7 2.5c-2.2-.2-1.1 3.2-3.7 3-2.5-.2-6-.3-5.7 1.3.2 1.6 2.9 4.8.3 4.8-2.5 0-6.1 2.6-6.1 2.6s-1.4 3.9-4.7 2.6-6.5-4.5-6.5-4.5-4.7.7-4.7 3.1-3 3.8-7.2 4.5-2.6 2.9-2.6 2.9 1.7 5.5-.1 5.6-4 1.8-4.7.5c-.7-1.4-3-1.4-3 0s-.8 2.8-1.7 2.9c-.9.1.5 4.1-2.4 3.3s-3.8-2.1-3.8-2.1 1.6 2.1-1.4 1.5-2.5 1.6-5.6 1.1-1.6-3.9-3.6-4c-1.9-.1-2.1-3.1-3.2-2.6s-1.6 3.3-3.6 2.5-3.6-3.2-3.6-3.2-4 1.4-4.4-.3c-.3-1.7-.5-4.5-.8-4.5s-5.4-1.3-5.4-1.3-1.5-2.4-1-4-.8-4.2-2.1-4.1c-1.3.1-2.6 1.5-3.7.5s-.8-3.8-.8-3.8-3.1-1.9-3.9-1.3c-.8.7.8 4.2-2.1 5.8-2.9 1.6-7.2-3.7-7.2-3.7s-3.4 2.2-4.1 1.3c-.7-.9 4.5 5.4 1.8 6.4-2.6 1 2.4 5.6-1.7 5-4.1-.6-3.9 2.3-3.9 2.3s-2.9 1.8-3.8.2-1.3 2.9-3.1 3.7c-1.8.8-7.6-.1-8.4-2.5-2.8 0-6.3.5-6.8-2.2-.5-2.6.1-6.4.1-6.4s-4.5 1-4.2-.2 1 2.9-1.5 3.2-3.7-1.1-3.7-1.1-.1 1.8-2.2 1.9c-2.1.1-3-1.9-3-1.9s-.9 2.5-2.5 2.5-2.8-3.2-2.8-3.2-8-.7-8.5-2.8-.3-3.4-.3-3.4-7.3 1.4-7.8-1.8-.3-4.9-.3-4.9-4.5-.3-4.4-2.4c.1-2.1 1.7-4.2 1.7-4.2s-1.2-.5-1.2-1.9 3-3.4 3-3.4.3-2.4-1.6-2.4-5.5-3.7-5.4-4-.5-4.5-4.1-3.3c-3.7 1.1-3.6-4.4-3.6-4.4s-3.2-2.8-2.9-4.4c.3-1.6 1.8-2.5 1.8-2.5s-3.7-1.4-2.9-2.8c.8-1.4 3.9-3.4 3.9-3.4s-4.2-3.7-4.1-5.2-2-.8-2.4-1.6-.7-3.3-.7-3.3-2.6-1.8-1.5-3.1 3-2.9 3-2.9-6.2-1.3-6.2-3.1 2.1-3.9 2.1-3.9 1.4-1.5.1-3.4c-1.3-1.9-1.4-4.9-1.4-4.9s-3-1.8-2.5-4.4c.5-2.5 5-2.9 5-2.9s1.3-1.8.6-3.3-2.9-3.8-2.3-5.3c.6-1.5 1.1-2.6 1.1-2.6s-2.8-3-2.1-5 6-2.4 6-2.4 4.9-.9 3.2-3.1-1.7-4.1 0-5.5-2.1-3.9-2.1-3.9.7-2.8-.6-3.8 1-3.2 1-3.2-1.4-1.4-1-2.3 4.5-4 4.5-4z" style="fill:none;stroke:#414042;stroke-width:3;stroke-miterlimit:10"/></g></g><radialGradient id="XMLID_3_" cx="146.381" cy="125.923" r="95.289" gradientUnits="userSpaceOnUse"><stop offset="0" style="stop-color:#006838"/><stop offset=".198" style="stop-color:#006d3a"/><stop offset=".485" style="stop-color:#007b41"/><stop offset=".824" style="stop-color:#00944a"/><stop offset="1" style="stop-color:#00a651"/></radialGradient><path id="XMLID_5_" d="M63.8 94.3s-4.3-3.5-2.6-5.1 5.3-1.8 5.3-1.8-1.6-3.3 0-3.3H70s-.8-3.3 1.4-2.9 4.7 1 4.7 1 1.8-1.2 3.5-1 5.7-2.1 7.5-1.5 5.3 1.4 5.3 1.4-1.8-3.1 0-3.5c0-1.6-1.8-5.1 2.4-6.3s1.6-7.9 1.6-7.9-2.7-3.5-2.6-7.5 3.3-4.3 3.3-4.3-1.4-4.9 0-6.9 4.1-1 4.1-1-.8-2.2 1-2.7 4.1.8 4.1.8-.3-4.8 3.6-4.8 3.9 2.2 3.9 2.2.6-1.2 4.1-2.2 4.7 1.2 4.7 1.2 1.2-2.1 3.1-1.4c2 .6 3.1 3.2 3.1 3.2s-1.4-1.4 2.2-.8c3.6.6 3.3 2.7 3.3 2.7s3.3-1.6 3.9-3.1 1.4-3.5 3.1-3.5 3.5 1.4 3.5 1.4 2.4-1 3.7-.2 2.6 2.7 2.6 2.7-1-2.6 1-3.9 5.3 1.4 5.3 1.4-1.4-3.9 0-4.1 3.3 0 3.3 0 2.9-1.2 3.5-.1c.6 1.1-.4-3.2 1.8-3.1s4.5 2.9 4.5 2.9-.1-3.8 2-3c2.1.9 2.6 3.1 2.6 3.1s1.6-1.1 3 .6c1.5 1.7 1.2 2.7 1.2 2.7s2.9-1.9 4.3.1.8 3.8.8 3.8 1.5.1 2.7 1.2.7 1.9.7 1.9.9-1.9 2.6-1.1c1.7.8 1.9 1.8 1.9 1.8s2.6.1 3 1.1c.5 1 .4 3.3.4 3.3s2.3.6 2 2.6-2 3.1-2 3.1 1.6 2.8.9 4.7c-.7 1.9 5.5-3.4 5.5-3.4s1.4-2.4 2.7-1.8c1.3.6 0 3.8 0 3.8s1.6 0 1.3 1.3.6-2.9 2.4-1.8 3.5 2.4 2.7 3.7 1.9 2.4 1.9 2.4 1.6-3.4 3.8-.8.4 3.8.4 3.8 3.3 1.5 3.6 3.1c.3 1.7-1.2 2.7-1.2 2.7s2.3 2.3 2.4 3.7c2.3 1.1 3.7 2.7 3.6 3.9-.1 1.3-1.1 4.1-1.1 4.1l.1 4.9s5.7 2 6.6 3.6c.9 1.7 5.2 2.9 4.5 4.4s-.5 3-.5 3 1.5 0 1.8 1.6-1.4 2.7-1.4 2.7 1.2.2 1.4 1.8c.2 1.6-2.1 3.9-2.1 3.9s1.2 2.7 1 3.6-2.4 1.9-2.4 1.9l-.2 3.7s2.2.8 1.8 2.3-1.6 3.2-1.6 3.2 1.4 1.8 1 2.9 1.7 2 1.3 3c-.4 1.1-1.9 3.5-3.4 3.6-1.6.1-1.5 2.7-1.5 2.7s3.3 1.7 2.9 2.9c-.4 1.3 2.7 2.1 2.7 3.5 0 1.5.2 7-1 6.5s1.2 3.6 1.4 3.8c.3.2 4.8 4.6 2.6 6.7-2.2 2.1-1.4 5-1.4 5s-2.1 1.9-3.2 1-1.1 4.6-1.1 4.6 3.8-.3 3.8 1.3-1.7 4.2-1.7 4.2 3.6 2.5 2.7 3.3c-1 .9-3.6 1-3.7 1.6-.1.6-1.3 2-1.3 2s2.8 2.7 1.5 3.6-3.5 6.1-3.5 6.1-2.2 2.4-4 2.2c-1.9-.2-1 2.7-3.1 2.6s-5.1-.3-4.9 1.1 2.5 4.1.3 4.1-5.2 2.3-5.2 2.3-1.2 3.3-4 2.3c-2.8-1.1-5.6-3.8-5.6-3.8s-4 .6-4 2.7-2.6 3.2-6.2 3.8c-3.6.6-2.3 2.5-2.3 2.5s1.5 4.7-.1 4.8-3.4 1.6-4 .4-2.6-1.2-2.6 0-.7 2.4-1.5 2.5.4 3.5-2.1 2.8-3.2-1.8-3.2-1.8 1.4 1.8-1.2 1.3c-2.6-.5-2.2 1.4-4.8 1-2.7-.4-1.4-3.3-3-3.4-1.7-.1-1.8-2.7-2.7-2.3s-1.4 2.8-3 2.2c-1.7-.7-3-2.7-3-2.7s-3.4 1.2-3.7-.3-.4-3.8-.7-3.8-4.6-1.1-4.6-1.1-1.3-2.1-.9-3.4-.7-3.6-1.8-3.5-2.3 1.3-3.1.4c-.9-.9-.7-3.2-.7-3.2s-2.7-1.7-3.3-1.1c-.7.6.7 3.6-1.8 5s-6.2-3.1-6.2-3.1-2.9 1.9-3.5 1.1 3.8 4.6 1.6 5.5c-2.3.9 2.1 4.8-1.5 4.3-3.5-.5-3.3 2-3.3 2s-2.5 1.6-3.2.2-1.1 2.5-2.7 3.1c-1.6.7-6.5-.1-7.2-2.2-2.4 0-5.4.4-5.8-1.9-.4-2.3.1-5.5.1-5.5s-3.8.9-3.6-.2c.2-1.1.9 2.5-1.3 2.7-2.2.3-3.1-1-3.1-1s-.1 1.6-1.9 1.7c-1.8.1-2.6-1.7-2.6-1.7s-.8 2.2-2.2 2.2-2.4-2.7-2.4-2.7-6.9-.6-7.3-2.4c-.4-1.8-.3-2.9-.3-2.9s-6.3 1.2-6.7-1.6-.3-4.2-.3-4.2-3.8-.3-3.7-2.1 1.5-3.6 1.5-3.6-1.2-.4-1.2-1.6 2.6-2.9 2.6-2.9.3-2.1-1.4-2.1-4.7-3.1-4.6-3.4c.1-.3-.4-3.8-3.5-2.8s-3-3.7-3-3.7-2.7-2.4-2.5-3.7 1.6-2.2 1.6-2.2-3.2-1.2-2.5-2.4 3.4-2.9 3.4-2.9-3.6-3.1-3.5-4.4c.1-1.3-1.7-.7-2-1.4s-.6-2.8-.6-2.8-2.3-1.6-1.3-2.7c1-1.1 2.6-2.5 2.6-2.5s-5.3-1.1-5.3-2.7 1.8-3.3 1.8-3.3 1.2-1.3.1-2.9c-1.1-1.7-1.2-4.2-1.2-4.2s-2.6-1.6-2.2-3.7 4.3-2.5 4.3-2.5 1.1-1.6.5-2.8c-.6-1.3-2.5-3.2-2-4.5s1-2.3 1-2.3-2.4-2.6-1.8-4.3 5.1-2.1 5.1-2.1 4.2-.8 2.7-2.7-1.5-3.5 0-4.7-1.8-3.3-1.8-3.3.6-2.4-.5-3.2.9-2.7.9-2.7-1.2-1.2-.9-2 3.7-3.4 3.7-3.4z" style="fill:url(#XMLID_3_)"/><path id="XMLID_114_" d="M104.7 165.3s-3.3 1.5-3.7.1c-.4-1.5.5-3.6.5-3.6s-2.4 0-1.9-.9c.4-.9 1-2.1 1-2.1s-2.2-.5-1.3-1.6c.8-1.1 1.9-2.5 1.9-2.5s-.2-1.4.4-2.3c.6-1 .4-3.9 1.2-4.8.8-.9 2.3-2.7 2.3-2.7s-2.3.1-2.1-1c-.9-.4-3.5-.4-3-3.1s-4.1-3.1-4.1-3.1-2.8.6-5.1-.6c-2.2-1.2-1.6-3.2-1.6-3.2s-3.3-.6-4-1.9.6-2.7.6-2.7-1.5-.2-1.3-1.3c.2-1.2 1.6-2.2 1.6-2.2s-2.9-1.1-1.8-3.4 2.4-1.7 2.4-1.7-.5-.7-.1-3 2-2.4 2-2.4-.9-1.3 0-2.2c.9-1 2.8-.9 2.8-.9s-1.2.4.2-1.5 2.5-1.2 2.5-1.2 0-2.4-.7-3.2c-.8-.8-1.7-1.8-1.2-2.8s1.8-1.7 1.8-1.7.1-1.7.9-2.2c.8-.6 2.3-.7 2.3-.7s-1.8-.1-2-1.7c-.2-1.5 2.3-2.7 2.3-2.7s-2.7-.5-2.5-1.4c.3-.9.9-1.9.9-1.9s.2-2 .9-2.1c.8 0-2-.7-1.3-1.9s3-1.8 3-1.8-2.3-1-1.2-2c1.1-1 2.6-.6 2.6-.6s-.2-1.2 1.2-1.6c1.4-.4 1.9.1 1.9.1s-.3-2.2 1.3-2.5c1.5-.2 2.5.6 2.5.6s.5-.8 1.4-1.2c1-.4 1.3.1 1.3.1s-.8-1 .1-1.8 1.6-.6 1.6-.6.8-1.5 1.5-1.5 2.1.7 2.1.7 1-1.2 2-.4 1.3 2 1.3 2 2.1-.1 3 .8-.5-4.2-.5-4.2-1-1.5-.3-2c.7-.6 2.2 1.1 2.2 1.1s.4-.9 1.1-.4-1.6-1.2-.4-1.9c1.2-.7 2.4-1.4 3-.6s1.9-.4 1.9-.4-1.5-1.9.6-2.4c2.2-.6 2.3.8 2.3.8s1.8-1.5 2.9-1.2c1.1.3 1.2 1.4 1.2 1.4s2-.7 2.8-.3c1.3-1 2.6-1.4 3.3-1s2.1 1.8 2.1 1.8l2.9 1.3s2.7-2.8 4-2.8 3.2-2.2 3.8-1.4c.7.8 1.6 1.1 1.6 1.1s.4-.9 1.4-.6 1.2 1.5 1.2 1.5.5-.7 1.4-.3c1 .3 1.7 2.3 1.7 2.3s1.9.1 2.4.5.4 1.9.4 1.9l2.1 1.2s1.1-1 1.8-.4 1.4 1.8 1.4 1.8 1.4-.3 2 .3c.6.6 1.6-.4 2.1.1s1.5 2.1 1.2 3c-.4.9 1.2 1.6 1.2 1.6s1.9-1.5 2.5-.9 2-1 2.8-.6c.9.4 4.1 1.8 3.5 2.4s2.4.3 2.6.3c.2-.1 4-1.5 4.6.4.6 1.8 2.5 2.2 2.5 2.2s.5 1.7-.3 2.2c-.8.4 2.4 1.9 2.4 1.9s.9-2.3 1.8-1.9c.9.4 2 2.2 2 2.2s2.5-1.4 2.7-.6-.5 2.4-.1 2.6.8 1.3.8 1.3 2.3-.9 2.5.2 2.6 3.8 2.6 3.8.8 1.9.1 3c-.6 1 1.3 1.3.6 2.6-.7 1.2-1.6 2.9-.8 3.2.9.3 3.1-.3 2.5 1s-.1 3.7-.1 3.7 1.6 1.6.2 3-3.8 2.2-3.8 2.2-.8 2.5.4 3.1 1.2 2.4.5 4.7c-.7 2.3.8 2 .8 2s3.2.5 2.8 1.4-.1 2.4-.9 2.5c-.9 0-1.4 1.2-.7 1.5s1.2 1.1 1 1.6 2.2.8 1.1 2-1.9 1.4-1.9 1.4 1.4-.3.4 1c-1 1.4.2 1.6-.8 3.1-1 1.4-2.3-.1-2.9.8-.5.9-2 .3-2.1 1 0 .7 1.3 1.6.4 2.4-.9.8-2.5 1-2.5 1s-.3 2.3-1.2 2.1-2.3-.8-2.4-.7c-.1.2-1.9 2.4-1.9 2.4s-1.6.2-2.3-.5c-.7-.6-2.3-.6-2.6 0-.2.7.1 1.7-.7 1.9-.8.3-2.1-.5-2.1-.5s-1.7 1.1-1.6 1.6c.2.6 2.3.6 2.4 2.4.1 1.8-3.6 2.7-3.6 2.7s.3 2.2-.4 2.4c-.6.1 3.8-.9 3.7.6-.1 1.6 3.4.2 2.1 2.1-1.3 1.9.2 2.5.2 2.5s.2 1.9-.8 1.9c-1 .1 1.1 1.3 1.1 2.4 0 1.1-1.9 3.8-3.3 3.6-.7 1.4-1.3 3.3-2.7 2.9-1.4-.4-3.2-1.6-3.2-1.6s-.6 2.5-1.1 2.1 1.7.2 1.2 1.5c-.4 1.3-1.5 1.6-1.5 1.6s.9.5.4 1.6c-.4 1.1-1.7 1-1.7 1s1 1.1.7 1.9-2.3.6-2.3.6-2.3 3.8-3.4 3.6c-1.1-.3-1.8-.7-1.8-.7s-1.1 4-2.8 3.5-2.5-1-2.5-1-1.3 2.2-2.3 1.6c-1-.6-1.7-1.9-1.7-1.9s-.6.6-1.2.2c-.7-.3-1-2.3-1-2.3s-1.1-.8-1.6.2-3.2 1.9-3.3 1.7c-.1-.1-2.3-.8-2.7 1.3s-3 .7-3 .7-2.1.9-2.9.4c-.7-.6-.8-1.5-.8-1.5s-1.6 1.5-2.1.8c-.5-.8-.8-2.8-.8-2.8s-2.9 1.2-3.6.8-.9.8-1.4.8-1.8-.5-1.8-.5-1.6.9-1.9 0c-.4-.9-.7-2.2-.7-2.2s-2.1 2.8-3 2.3c-.9-.4-1.4-2-1.4-2s-.4-1-1.7-.9c-1.3.2-2.8-.5-2.8-.5s-1.6 1-2.8.2c-1.1-.8-.2-3.2-.2-3.2s-.6-1.1-1.5-1.1-2.6.5-3.2-.1-1-1.2-1-1.2-2.2.7-3-.2c-.9-.8.2-3.6.2-3.6s.7-2.7-.8-2.4-2.5-.1-2.7-1.3-2.4.1-2.4.1-1.2-1-2-.6-1.4-1.3-1.4-1.3-1 .4-1.4 0c.2-.5-.4-3.1-.4-3.1z" style="opacity:.15;enable-background:new"/><path id="XMLID_201_" d="M105.2 122.6s-1.9-.3-1.6-1.1 1.3-1.4 1.3-1.4-1-.7-.6-1 1-.6 1-.6-.8-.8-.1-1.1c.7-.2 1.5-.5 1.5-.5s.3-.7.9-.9c.6-.2 1.3-1.6 1.9-1.7s1.8-.5 1.8-.5-1-.6-.6-1c-.3-.5-1.4-1.2-.4-2.2s-.9-2.6-.9-2.6-1.4-.6-2-1.8.3-1.8.3-1.8-1.2-1.2-1.2-2 1-1 1-1-.6-.5-.2-1 1.3-.5 1.3-.5-.9-1.3.2-2c1.2-.7 1.5 0 1.5 0s0-.4.8-1.3c.9-.9 1.6-.4 1.6-.4s0-.8.7-.9 1.5.4 1.5.4-.6-.2.5-.6 1.4.2 1.4.2.7-1 .6-1.6-.2-1.3.3-1.6 1.3-.2 1.3-.2.5-.7 1.1-.7c.5 0 1.2.4 1.2.4s-.7-.6-.4-1.3c.3-.7 1.8-.5 1.8-.5s-1.1-.9-.7-1.2c.4-.3 1-.6 1-.6s.7-.8 1-.6c.4.2-.7-.9 0-1.2.7-.3 1.8.1 1.8.1s-.7-1.1.1-1.2c.8-.1 1.3.5 1.3.5s.3-.6 1-.3c.7.2.8.6.8.6s.6-1 1.3-.7.9 1 .9 1 .4-.2 1-.1c.5.1.5.4.5.4s-.1-.7.6-.7c.6 0 .8.2.8.2s.8-.4 1.1-.2.7.9.7.9.8-.2 1 .4 0 1.3 0 1.3.9.6 1 1.2 1-1.9 1-1.9 0-.9.5-1 .6 1.1.6 1.1.5-.3.6.2c.1.4-.3-1 .4-.9.7 0 1.4.1 1.4.6s.9.4.9.4-.1-1.3 1-.9.8 1 .8 1 1.2-.1 1.6.3.1 1 .1 1 1 .3 1.3.7c.8-.1 1.5.2 1.7.5.2.4.4 1.4.4 1.4l.9 1.4s2-.4 2.5 0c.5.3 2 0 2.1.5 0 .5.4 1 .4 1s.4-.2.8.2c.3.4 0 1 0 1s.4-.2.7.3c.3.4 0 1.5 0 1.5s.8.6.9.9c.1.3-.4.9-.4.9l.6 1.1s.8-.1.9.4c.1.5.1 1.2.1 1.2s.7.3.8.7c.1.4.8.3.9.7.1.4 0 1.3-.4 1.6-.4.3 0 1.1 0 1.1s1.3-.1 1.4.4 1.2.1 1.4.6c.2.4 1.2 2 .8 2.1s1 .9 1.1.9 2.2.6 1.9 1.5c-.3 1 .4 1.7.4 1.7s-.3.9-.8.8.5 1.5.5 1.5 1.1-.7 1.3-.3.2 1.5.2 1.5 1.5.1 1.3.5c-.1.4-.9.9-.8 1.1.1.2 0 .8 0 .8s1.3.3 1 .8c-.2.5 0 2.4 0 2.4s-.2 1.1-.8 1.3c-.6.3.2 1-.5 1.3s-1.5.8-1.3 1.1 1.4.8.8 1.2c-.6.4-1.1 1.5-1.1 1.5s.2 1.2-.8 1.3c-1 .2-2.3-.2-2.3-.2s-1.1.8-.7 1.5c.3.6-.2 1.4-1.2 2.2s-.3 1.1-.3 1.1 1.2 1.1.8 1.4c-.4.3-.7 1-1.1.8-.4-.2-.9.1-.7.4s.2.8 0 1 .7 1-.1 1.2-1.2 0-1.2 0 .7.3-.1.6-.4.8-1.2 1.1-1-.7-1.5-.5-1-.5-1.2-.2.1 1.1-.5 1.1c-.6.1-1.4-.3-1.4-.3s-.8.9-1.1.5-.8-1.1-.8-1-1.5.5-1.5.5-.7-.4-.8-.9-.8-1-1.1-.7c-.3.2-.4.8-.9.6-.4-.1-.7-.8-.7-.8s-1.1 0-1.2.2c-.1.3.8 1 .3 1.8s-2.3.1-2.3.1-.6 1-.9.9c-.3-.1 1.9.7 1.4 1.4-.5.6 1.4 1.1.3 1.5-1.1.4-.7 1.1-.7 1.1s-.5.9-.9.6c-.5-.3.1.9-.3 1.4s-1.9 1.1-2.5.6c-.7.4-1.5 1-2 .4s-.9-1.6-.9-1.6-1 .9-1.1.6c-.1-.3.7.6.1 1s-1.1.2-1.1.2.2.5-.3.8-1-.1-1-.1.1.8-.3 1c-.4.2-1.2-.4-1.2-.4s-2.1 1-2.5.5-.6-.8-.6-.8-1.6 1.4-2.2.7-.8-1.2-.8-1.2-1.2.6-1.4 0c-.3-.5-.2-1.3-.2-1.3s-.4.1-.6-.3c-.2-.3.3-1.3.3-1.3s-.3-.7-.7-.4c-.5.3-1.9-.1-1.9-.2s-.8-1.1-1.5-.2c-.8.8-1.5-.6-1.5-.6s-1.2-.2-1.3-.7c-.1-.5.1-.9.1-.9s-1.1.2-1.1-.3.5-1.4.5-1.4-1.6-.3-1.8-.7c-.2-.4-.6.1-.8-.1l-.7-.7s-.9-.1-.8-.6.3-1.1.3-1.1-1.7.6-2 .1 0-1.3 0-1.3.1-.6-.5-.9c-.6-.3-1.1-1-1.1-1s-1 0-1.3-.7c-.2-.7.9-1.4.9-1.4s.1-.6-.3-.9c-.4-.3-1.3-.5-1.3-1-.1-.5-.1-.8-.1-.8s-1.1-.4-1.2-1 1.2-1.5 1.2-1.5 1.1-.9.4-1.2-1-.8-.8-1.4-1.1-.7-1.1-.7-.2-.8-.7-.9-.2-1-.2-1-.5-.1-.6-.4c-.2 0 .3-1.3.3-1.3z" style="opacity:.35;fill:#009444;enable-background:new"/><g id="圖層_4_拷貝_45"><g id="圖層_1_拷貝_47_2_"><path id="XMLID_1248_" class="st5" d="M107.8 66.2s-.2 6.3-3.5 7.9c-3.4 1.7-9.6 3.9-9.6 3.9s1.1-6.8 4.2-9c3-2.1 8.9-2.8 8.9-2.8z"/><path id="XMLID_1247_" class="st6" d="M103.8 72.4c-2.5 1.3-6.8 2.9-8.7 3.6-.3 1.2-.4 2.1-.4 2.1s6.3-2.2 9.6-3.9c3.3-1.7 3.5-7.9 3.5-7.9s-.2 0-.7.1c-.4 1.9-1.2 4.9-3.3 6z"/><path id="XMLID_1246_" class="st7" d="M98.8 73.4s3.8-.7 5.6-2.4c1.7-1.7 3.2-4.5 3.2-4.5s-2.8 3.3-3.9 4c-1.2.7-4.9 2.9-4.9 2.9z"/><path id="XMLID_1245_" class="st5" d="M107.3 63.4s-2.6 5.8-6.2 5.9-10.1-.5-10.1-.5 3.6-5.9 7.2-6.6c3.5-.8 9.1 1.2 9.1 1.2z"/><path id="XMLID_1244_" class="st6" d="M101.3 67.4c-2.7.1-7.2-.2-9.1-.4-.8 1-1.3 1.8-1.3 1.8s6.5.6 10.1.5 6.2-5.9 6.2-5.9-.2-.1-.7-.2c-.9 1.7-2.9 4.1-5.2 4.2z"/><path id="XMLID_1243_" class="st7" d="M96.5 66.1s3.7 1 5.9.2 4.6-2.8 4.6-2.8-3.7 1.9-5 2.1-5.5.5-5.5.5z"/><path id="XMLID_1242_" class="st5" d="M109.1 59.6s-3.7 5.1-7.2 4.4c-3.5-.7-9.7-2.7-9.7-2.7s4.6-5 8.3-4.9c3.5-.1 8.6 3.2 8.6 3.2z"/><path id="XMLID_1241_" class="st6" d="M102.5 62.2c-2.7-.5-6.9-1.8-8.8-2.4-1 .8-1.6 1.5-1.6 1.5s6.2 2.1 9.7 2.7c3.5.6 7.2-4.4 7.2-4.4s-.2-.1-.6-.4c-1.3 1.4-3.6 3.4-5.9 3z"/><path id="XMLID_1231_" class="st7" d="M98 59.8s3.4 1.8 5.7 1.5 5-1.7 5-1.7-4 1-5.3.9c-1.3-.1-5.4-.7-5.4-.7z"/></g><g id="圖層_1_拷貝_47_1_"><path id="XMLID_1285_" class="st5" d="M111.6 55.1s-4.6 4.3-8.1 3.1-9.6-4.1-9.6-4.1 5.6-4 9.3-3.4c3.8.7 8.4 4.4 8.4 4.4z"/><path id="XMLID_1284_" class="st6" d="M104.4 56.6c-2.7-.9-6.8-2.7-8.7-3.6-1.1.6-1.8 1.2-1.8 1.2s6 2.9 9.6 4.1 8.1-3.1 8.1-3.1-.2-.1-.5-.4c-1.7 1.1-4.4 2.6-6.7 1.8z"/><path id="XMLID_1283_" class="st7" d="M100.3 53.7s3.2 2.2 5.6 2.3 5.4-.9 5.4-.9-4.3.4-5.6.1c-1.4-.3-5.4-1.5-5.4-1.5z"/><path id="XMLID_1282_" class="st5" d="M113.2 52.8s-5.9 2.2-8.5-.2-6.8-7.5-6.8-7.5 6.7-1.6 9.7.4c3.1 1.9 5.6 7.3 5.6 7.3z"/><path id="XMLID_1281_" class="st6" d="M106.2 51.4c-2-1.9-4.9-5.2-6.1-6.8-1.3.2-2.2.4-2.2.4s4.1 5.1 6.8 7.5c2.6 2.4 8.5.2 8.5.2s-.1-.3-.3-.6c-1.9.5-5 .9-6.7-.7z"/><path id="XMLID_1280_" class="st7" d="M103.7 47.1s1.9 3.3 4 4.3 5.2 1.3 5.2 1.3-4-1.4-5-2.1c-1-.8-4.2-3.5-4.2-3.5z"/><path id="XMLID_1279_" class="st5" d="M117.2 51.3s-6.2 1-8.2-2-4.9-8.8-4.9-8.8 6.8-.2 9.3 2.4c2.6 2.6 3.8 8.4 3.8 8.4z"/><path id="XMLID_1278_" class="st6" d="M110.7 48.5c-1.5-2.2-3.6-6.2-4.4-7.9-1.3-.1-2.2 0-2.2 0s2.9 5.9 4.9 8.8 8.2 2 8.2 2-.1-.3-.2-.7c-1.9 0-5-.3-6.3-2.2z"/><path id="XMLID_1277_" class="st7" d="M109.3 43.7s1.1 3.6 2.9 5.1c1.8 1.4 4.7 2.3 4.7 2.3s-3.5-2.1-4.4-3.1c-.8-1-3.2-4.3-3.2-4.3z"/></g><g id="圖層_1_拷貝_47"><path id="XMLID_1212_" class="st5" d="M121.6 50.4s-6.2-.9-7.5-4.4-2.8-10-2.8-10 6.7 1.8 8.5 5.1c1.9 3.3 1.8 9.3 1.8 9.3z"/><path id="XMLID_1211_" class="st6" d="M116 45.7c-1-2.7-2.1-7-2.6-9-1.2-.5-2.1-.7-2.1-.7s1.5 6.5 2.8 10 7.5 4.4 7.5 4.4v-.7c-1.9-.6-4.8-1.7-5.6-4z"/><path id="XMLID_1210_" class="st7" d="M115.6 40.6s.3 3.9 1.7 5.8c1.5 1.9 4.1 3.7 4.1 3.7s-3-3.2-3.6-4.3c-.6-1.2-2.2-5.2-2.2-5.2z"/><path id="XMLID_1209_" class="st5" d="M124.5 50.2s-5.4-3.2-5.2-6.8c.3-3.6 1.6-10 1.6-10s5.4 4.2 5.8 7.9c.4 3.6-2.2 8.9-2.2 8.9z"/><path id="XMLID_1208_" class="st6" d="M121.2 43.8c.2-2.7 1-7.1 1.4-9-.9-.9-1.6-1.4-1.6-1.4s-1.4 6.4-1.6 10 5.2 6.8 5.2 6.8l.3-.6c-1.7-1.3-3.9-3.4-3.7-5.8z"/><path id="XMLID_1207_" class="st7" d="M123 39.2s-1.4 3.6-.9 5.8c.6 2.2 2.2 4.9 2.2 4.9s-1.4-3.9-1.5-5.3c.1-1.3.2-5.4.2-5.4z"/><path id="XMLID_1206_" class="st5" d="M128.2 52.4s-4.7-4.2-3.6-7.6c1-3.4 3.8-9.4 3.8-9.4s4.4 5.2 4 8.8c-.5 3.5-4.2 8.2-4.2 8.2z"/><path id="XMLID_1205_" class="st6" d="M126.3 45.5c.8-2.6 2.6-6.6 3.4-8.5-.7-1.1-1.3-1.7-1.3-1.7s-2.7 5.9-3.8 9.4c-1 3.4 3.6 7.6 3.6 7.6s.1-.2.4-.5c-1.3-1.5-3-4-2.3-6.3z"/><path id="XMLID_1195_" class="st7" d="M129.1 41.4s-2.2 3.2-2.1 5.5 1.2 5.2 1.2 5.2-.6-4.1-.3-5.4c.2-1.3 1.2-5.3 1.2-5.3z"/></g></g><g id="圖層_4_拷貝_45_1_"><g id="圖層_1_拷貝_47_5_"><path id="XMLID_32_" class="st5" d="M125.3 197.1s2.8-5.6 6.6-5.7 10.4.6 10.4.6-3.9 5.7-7.6 6.4c-3.8.7-9.4-1.3-9.4-1.3z"/><path id="XMLID_31_" class="st6" d="M131.6 193.2c2.8-.1 7.4.3 9.4.5.8-1 1.3-1.7 1.3-1.7s-6.7-.7-10.4-.6c-3.7.1-6.6 5.7-6.6 5.7s.2.1.7.2c1.1-1.7 3.2-4 5.6-4.1z"/><path id="XMLID_30_" class="st7" d="M136.5 194.5s-3.8-1-6-.2c-2.3.8-4.8 2.7-4.8 2.7s3.9-1.8 5.2-2 5.6-.5 5.6-.5z"/><path id="XMLID_29_" class="st5" d="M124.5 199.9s4.8-4.1 8.1-2.6 9 4.8 9 4.8-5.8 3.8-9.3 2.9c-3.6-.9-7.8-5.1-7.8-5.1z"/><path id="XMLID_28_" class="st6" d="M131.6 198.8c2.5 1.1 6.4 3.3 8.1 4.2 1.2-.6 1.9-1.1 1.9-1.1s-5.6-3.4-9-4.8c-3.4-1.4-8.1 2.6-8.1 2.6l.5.5c1.7-.9 4.5-2.3 6.6-1.4z"/><path id="XMLID_27_" class="st7" d="M135.5 202s-2.9-2.5-5.2-2.7-5.3.6-5.3.6 4.2-.1 5.4.3c1.2.3 5.1 1.8 5.1 1.8z"/><path id="XMLID_26_" class="st5" d="M121.3 202.6s5.5-3 8.4-.9 7.6 6.6 7.6 6.6-6.3 2.5-9.6.9c-3.2-1.5-6.4-6.6-6.4-6.6z"/><path id="XMLID_25_" class="st6" d="M128.4 203.1c2.2 1.6 5.5 4.6 6.9 5.9l2.1-.7s-4.7-4.5-7.6-6.6c-2.9-2.1-8.4.9-8.4.9s.1.2.4.6c1.8-.7 4.7-1.5 6.6-.1z"/><path id="XMLID_24_" class="st7" d="M131.4 207.1s-2.3-3.1-4.5-3.8-5.2-.6-5.2-.6 4 .8 5.2 1.4c1 .7 4.5 3 4.5 3z"/></g><g id="圖層_1_拷貝_47_4_"><path id="XMLID_23_" class="st5" d="M117.1 205.5s6-1.9 8.7.7c2.7 2.6 6.9 7.7 6.9 7.7s-6.8 1.2-9.9-.9c-3.1-2.1-5.7-7.5-5.7-7.5z"/><path id="XMLID_22_" class="st6" d="M124.2 207.2c2 1.9 5 5.4 6.3 7 1.3-.1 2.2-.3 2.2-.3s-4.2-5.2-6.9-7.7c-2.7-2.6-8.7-.7-8.7-.7l.3.6c2-.3 5.1-.5 6.8 1.1z"/><path id="XMLID_21_" class="st7" d="M126.8 211.6s-1.9-3.3-4.1-4.4-5.3-1.5-5.3-1.5 4.1 1.5 5.1 2.3c1.1.8 4.3 3.6 4.3 3.6z"/><path id="XMLID_20_" class="st5" d="M114.6 206.9s6.3.5 7.6 3.9 3 9.7 3 9.7-6.7-1.4-8.6-4.5c-2-3.1-2-9.1-2-9.1z"/><path id="XMLID_19_" class="st6" d="M120.4 211.2c1 2.6 2.2 6.8 2.7 8.7 1.3.4 2.1.6 2.1.6s-1.6-6.3-3-9.7c-1.4-3.3-7.6-3.9-7.6-3.9v.7c2 .5 4.9 1.5 5.8 3.6z"/><path id="XMLID_18_" class="st7" d="M120.8 216.2s-.3-3.8-1.8-5.6-4.1-3.4-4.1-3.4 3 2.9 3.6 4.1c.6 1.1 2.3 4.9 2.3 4.9z"/><path id="XMLID_17_" class="st5" d="M110.4 206.6s6 1.7 6.6 5.3.7 10.1.7 10.1-6.2-2.7-7.4-6.1c-1.3-3.5.1-9.3.1-9.3z"/><path id="XMLID_16_" class="st6" d="M115.1 211.9c.4 2.7.6 7.1.6 9.1 1.1.6 1.9 1 1.9 1s-.1-6.5-.7-10.1-6.6-5.3-6.6-5.3 0 .3-.2.7c2 .8 4.6 2.3 5 4.6z"/><path id="XMLID_15_" class="st7" d="M114.4 216.9s.5-3.8-.5-5.8c-1.1-2-3.3-4.1-3.3-4.1s2.3 3.4 2.6 4.7c.3 1.1 1.2 5.2 1.2 5.2z"/></g><g id="圖層_1_拷貝_47_3_"><path id="XMLID_14_" class="st5" d="M106 205.5s5.2 3.5 4.9 7.2c-.3 3.7-1.7 10.3-1.7 10.3s-5.3-4.5-5.5-8.3c-.3-3.7 2.3-9.2 2.3-9.2z"/><path id="XMLID_13_" class="st6" d="M109.2 212.2c-.2 2.8-1.1 7.3-1.5 9.2.9.9 1.6 1.5 1.6 1.5s1.4-6.6 1.7-10.3c.3-3.7-4.9-7.2-4.9-7.2s-.1.2-.3.7c1.4 1.4 3.5 3.7 3.4 6.1z"/><path id="XMLID_12_" class="st7" d="M107.3 216.9s1.4-3.7.9-6-2.1-5.1-2.1-5.1 1.4 4.1 1.4 5.4c0 1.5-.2 5.7-.2 5.7z"/><path id="XMLID_11_" class="st5" d="M103.3 204.5s3.6 5.2 1.8 8.4-5.7 8.4-5.7 8.4-3.1-6.1-1.9-9.6c1.2-3.5 5.8-7.2 5.8-7.2z"/><path id="XMLID_10_" class="st6" d="M103.6 211.7c-1.4 2.4-3.9 6-5.1 7.6.4 1.2.9 2 .9 2s4-5.2 5.7-8.4-1.8-8.4-1.8-8.4-.2.2-.6.4c1 1.8 2.1 4.7.9 6.8z"/><path id="XMLID_9_" class="st7" d="M100 215.1s2.8-2.6 3.3-4.9.1-5.4.1-5.4-.4 4.2-.9 5.4c-.6 1.2-2.5 4.9-2.5 4.9z"/><path id="XMLID_8_" class="st5" d="M101 201s2.4 5.8 0 8.4c-2.4 2.7-7.4 6.9-7.4 6.9s-1.8-6.5.2-9.6c1.8-3.1 7.2-5.7 7.2-5.7z"/><path id="XMLID_7_" class="st6" d="M99.7 208c-1.9 2-5.2 4.9-6.6 6.2.2 1.3.4 2.1.4 2.1s5-4.2 7.4-6.9 0-8.4 0-8.4l-.6.3c.5 1.9 1 4.9-.6 6.7z"/><path id="XMLID_6_" class="st7" d="M95.5 210.5s3.3-2 4.3-4c.9-2.1 1.2-5.2 1.2-5.2s-1.2 4-2 5c-.9 1-3.5 4.2-3.5 4.2z"/></g></g><g id="圖層_4_拷貝_45_2_"><g id="圖層_1_拷貝_47_8_"><path id="XMLID_59_" class="st5" d="M197.3 200.8s2.8-5.6 6.6-5.7c3.8-.1 10.4.6 10.4.6s-3.9 5.7-7.6 6.4c-3.7.7-9.4-1.3-9.4-1.3z"/><path id="XMLID_58_" class="st6" d="M203.6 196.9c2.8-.1 7.4.3 9.4.5.8-1 1.3-1.7 1.3-1.7s-6.7-.7-10.4-.6c-3.7.1-6.6 5.7-6.6 5.7s.2.1.7.2c1.2-1.7 3.2-4 5.6-4.1z"/><path id="XMLID_57_" class="st7" d="M208.5 198.2s-3.8-1-6-.2-4.8 2.7-4.8 2.7 3.9-1.8 5.2-2c1.4-.2 5.6-.5 5.6-.5z"/><path id="XMLID_56_" class="st5" d="M196.6 203.6s4.8-4.1 8.1-2.6 9 4.8 9 4.8-5.8 3.8-9.3 2.9c-3.6-.9-7.8-5.1-7.8-5.1z"/><path id="XMLID_55_" class="st6" d="M203.7 202.5c2.5 1.1 6.4 3.3 8.1 4.2 1.2-.6 1.9-1.1 1.9-1.1s-5.6-3.4-9-4.8c-3.4-1.4-8.1 2.6-8.1 2.6l.5.5c1.7-.9 4.5-2.3 6.6-1.4z"/><path id="XMLID_54_" class="st7" d="M207.6 205.7s-2.9-2.5-5.2-2.7-5.3.6-5.3.6 4.2-.1 5.4.3c1.1.3 5.1 1.8 5.1 1.8z"/><path id="XMLID_53_" class="st5" d="M193.4 206.3s5.5-3 8.4-.9 7.6 6.6 7.6 6.6-6.3 2.5-9.6.9c-3.3-1.5-6.4-6.6-6.4-6.6z"/><path id="XMLID_52_" class="st6" d="M200.5 206.7c2.2 1.6 5.5 4.6 6.9 5.9l2.1-.7s-4.7-4.5-7.6-6.6c-2.9-2.1-8.4.9-8.4.9s.1.2.4.6c1.7-.6 4.6-1.4 6.6-.1z"/><path id="XMLID_51_" class="st7" d="M203.4 210.8s-2.3-3.1-4.5-3.8-5.2-.6-5.2-.6 4 .8 5.2 1.4c1.1.7 4.5 3 4.5 3z"/></g><g id="圖層_1_拷貝_47_7_"><path id="XMLID_50_" class="st5" d="M189.2 209.2s6-1.9 8.7.7c2.7 2.6 6.9 7.7 6.9 7.7s-6.8 1.2-9.9-.9-5.7-7.5-5.7-7.5z"/><path id="XMLID_49_" class="st6" d="M196.3 210.9c2 1.9 5 5.4 6.3 7 1.3-.1 2.2-.3 2.2-.3s-4.2-5.2-6.9-7.7-8.7-.7-8.7-.7l.3.6c2-.3 5.1-.5 6.8 1.1z"/><path id="XMLID_48_" class="st7" d="M198.8 215.3s-1.9-3.3-4.1-4.4c-2.2-1.1-5.3-1.5-5.3-1.5s4.1 1.5 5.1 2.3c1.2.8 4.3 3.6 4.3 3.6z"/><path id="XMLID_47_" class="st5" d="M186.7 210.6s6.3.5 7.6 3.9c1.4 3.3 3 9.7 3 9.7s-6.7-1.4-8.6-4.5c-2-3.1-2-9.1-2-9.1z"/><path id="XMLID_46_" class="st6" d="M192.4 214.9c1 2.6 2.2 6.8 2.7 8.7 1.3.4 2.1.6 2.1.6s-1.6-6.3-3-9.7c-1.4-3.3-7.6-3.9-7.6-3.9v.7c2 .5 5 1.5 5.8 3.6z"/><path id="XMLID_45_" class="st7" d="M192.9 219.9s-.3-3.8-1.8-5.6-4.1-3.4-4.1-3.4 3 2.9 3.6 4.1c.6 1.1 2.3 4.9 2.3 4.9z"/><path id="XMLID_44_" class="st5" d="M182.4 210.3s6 1.7 6.6 5.3.7 10.1.7 10.1-6.2-2.7-7.4-6.1c-1.2-3.5.1-9.3.1-9.3z"/><path id="XMLID_43_" class="st6" d="M187.2 215.6c.4 2.7.6 7.1.6 9.1 1.1.6 1.9 1 1.9 1s-.1-6.5-.7-10.1c-.6-3.6-6.6-5.3-6.6-5.3s0 .3-.2.7c1.9.8 4.6 2.3 5 4.6z"/><path id="XMLID_42_" class="st7" d="M186.4 220.6s.5-3.8-.5-5.8c-1.1-2-3.3-4.1-3.3-4.1s2.3 3.4 2.6 4.7c.4 1.1 1.2 5.2 1.2 5.2z"/></g><g id="圖層_1_拷貝_47_6_"><path id="XMLID_41_" class="st5" d="M178.1 209.2s5.2 3.5 4.9 7.2-1.7 10.3-1.7 10.3-5.3-4.5-5.5-8.3c-.3-3.7 2.3-9.2 2.3-9.2z"/><path id="XMLID_40_" class="st6" d="M181.2 215.9c-.2 2.8-1.1 7.3-1.5 9.2.9.9 1.6 1.5 1.6 1.5s1.4-6.6 1.7-10.3-4.9-7.2-4.9-7.2-.1.2-.3.7c1.5 1.4 3.6 3.7 3.4 6.1z"/><path id="XMLID_39_" class="st7" d="M179.4 220.6s1.4-3.7.9-6-2.1-5.1-2.1-5.1 1.4 4.1 1.4 5.4c0 1.4-.2 5.7-.2 5.7z"/><path id="XMLID_38_" class="st5" d="M175.4 208.2s3.6 5.2 1.8 8.4-5.7 8.4-5.7 8.4-3.1-6.1-1.9-9.6c1.2-3.5 5.8-7.2 5.8-7.2z"/><path id="XMLID_37_" class="st6" d="M175.6 215.4c-1.4 2.4-3.9 6-5.1 7.6.4 1.2.9 2 .9 2s4-5.2 5.7-8.4-1.8-8.4-1.8-8.4-.2.2-.6.4c1.1 1.8 2.1 4.7.9 6.8z"/><path id="XMLID_36_" class="st7" d="M172.1 218.8s2.8-2.6 3.3-4.9c.4-2.3.1-5.4.1-5.4s-.4 4.2-.9 5.4c-.7 1.2-2.5 4.9-2.5 4.9z"/><path id="XMLID_35_" class="st5" d="M173 204.7s2.4 5.8 0 8.4c-2.4 2.7-7.4 6.9-7.4 6.9s-1.8-6.5.2-9.6c1.9-3.1 7.2-5.7 7.2-5.7z"/><path id="XMLID_34_" class="st6" d="M171.8 211.7c-1.9 2-5.2 4.9-6.6 6.2.2 1.3.4 2.1.4 2.1s5-4.2 7.4-6.9 0-8.4 0-8.4l-.6.3c.5 1.9 1 4.9-.6 6.7z"/><path id="XMLID_33_" class="st7" d="M167.5 214.2s3.3-2 4.3-4c.9-2.1 1.2-5.2 1.2-5.2s-1.2 4-2 5c-.9 1-3.5 4.2-3.5 4.2z"/></g></g><g id="圖層_4_拷貝_45_3_"><g id="圖層_1_拷貝_47_11_"><path id="XMLID_86_" class="st5" d="M222.1 97.9s-3.4-5.3-1.5-8.6c1.8-3.3 5.7-8.7 5.7-8.7s2.9 6.2 1.6 9.8c-1.2 3.6-5.8 7.5-5.8 7.5z"/><path id="XMLID_85_" class="st6" d="M222 90.5c1.4-2.5 4-6.2 5.2-7.8-.4-1.2-.8-2-.8-2s-4 5.4-5.7 8.7c-1.8 3.3 1.5 8.6 1.5 8.6s.2-.2.6-.5c-1-2-2-4.9-.8-7z"/><path id="XMLID_84_" class="st7" d="M225.5 86.9s-2.8 2.8-3.3 5.1-.1 5.5-.1 5.5.4-4.3.9-5.5c.7-1.3 2.5-5.1 2.5-5.1z"/><path id="XMLID_83_" class="st5" d="M224.1 99.9s-1.1-6.2 1.9-8.4c3-2.1 8.7-5.3 8.7-5.3s.4 6.9-2.2 9.5c-2.6 2.7-8.4 4.2-8.4 4.2z"/><path id="XMLID_82_" class="st6" d="M226.8 93.2c2.2-1.6 6.1-3.8 7.8-4.8.1-1.3 0-2.2 0-2.2s-5.7 3.1-8.7 5.3c-2.9 2.2-1.9 8.4-1.9 8.4s.2-.1.7-.2c0-2 .3-5.1 2.1-6.5z"/><path id="XMLID_81_" class="st7" d="M231.5 91.6s-3.6 1.2-5 3.2c-1.4 1.9-2.2 4.9-2.2 4.9s2-3.7 3-4.6c.9-.9 4.2-3.5 4.2-3.5z"/><path id="XMLID_80_" class="st5" d="M224.8 104.1s.2-6.3 3.5-7.7c3.3-1.4 9.6-3.2 9.6-3.2s-1 6.7-4.1 8.7c-3 2-9 2.2-9 2.2z"/><path id="XMLID_79_" class="st6" d="M228.8 98.2c2.5-1.1 6.7-2.4 8.6-2.9.3-1.2.5-2.1.5-2.1s-6.3 1.8-9.6 3.2c-3.3 1.4-3.5 7.7-3.5 7.7h.7c.4-2 1.2-4.9 3.3-5.9z"/><path id="XMLID_78_" class="st7" d="M233.8 97.7s-3.8.4-5.5 2c-1.7 1.5-3.2 4.2-3.2 4.2s2.7-3.1 3.9-3.7c1.1-.7 4.8-2.5 4.8-2.5z"/></g><g id="圖層_1_拷貝_47_10_"><path id="XMLID_77_" class="st5" d="M225.2 109.2s1.4-6.1 5-7.1 10.2-2 10.2-2-2.4 6.5-5.8 8.1c-3.4 1.5-9.4 1-9.4 1z"/><path id="XMLID_76_" class="st6" d="M230.3 103.9c2.7-.8 7.1-1.6 9.2-1.9.6-1.2.9-2 .9-2s-6.6 1-10.2 2-5 7.1-5 7.1h.7c.7-1.8 2.1-4.6 4.4-5.2z"/><path id="XMLID_75_" class="st7" d="M235.4 103.9s-3.9 0-5.9 1.3-4 3.8-4 3.8 3.4-2.7 4.6-3.2c1.2-.5 5.3-1.9 5.3-1.9z"/><path id="XMLID_74_" class="st5" d="M225.2 112s3.6-5.1 7.2-4.6 9.9 2.4 9.9 2.4-4.6 5.1-8.3 5.2c-3.7.1-8.8-3-8.8-3z"/><path id="XMLID_73_" class="st6" d="M231.8 109.3c2.7.4 7 1.5 8.9 2.1 1-.9 1.6-1.5 1.6-1.5s-6.3-1.8-9.9-2.4c-3.6-.5-7.2 4.6-7.2 4.6s.2.2.6.3c1.4-1.5 3.7-3.5 6-3.1z"/><path id="XMLID_72_" class="st7" d="M236.3 111.4s-3.4-1.7-5.7-1.3c-2.3.4-5 1.8-5 1.8s4.1-1.1 5.4-1.1c1.2.2 5.3.6 5.3.6z"/><path id="XMLID_71_" class="st5" d="M222.7 115.5s4.5-4.3 7.9-3 9 4.5 9 4.5-5.5 4-9 3.3c-3.6-.7-7.9-4.8-7.9-4.8z"/><path id="XMLID_70_" class="st6" d="M229.7 114.2c2.5 1 6.4 3.1 8.1 4.1 1.1-.6 1.8-1.2 1.8-1.2s-5.7-3.2-9-4.5-7.9 3-7.9 3l.5.5c1.7-1.3 4.3-2.8 6.5-1.9z"/><path id="XMLID_69_" class="st7" d="M233.6 117.3s-3-2.4-5.3-2.6c-2.3-.1-5.2.7-5.2.7s4.1-.2 5.4.1c1.2.4 5.1 1.8 5.1 1.8z"/></g><g id="圖層_1_拷貝_47_9_"><path id="XMLID_68_" class="st5" d="M219.6 118.7s5.7-2.8 8.7-.6c3 2.1 8 6.7 8 6.7s-6.5 2.3-9.9.6c-3.4-1.7-6.8-6.7-6.8-6.7z"/><path id="XMLID_67_" class="st6" d="M226.9 119.4c2.3 1.6 5.7 4.6 7.2 5.9 1.3-.3 2.1-.6 2.1-.6s-4.9-4.5-8-6.7c-3-2.1-8.7.6-8.7.6s.2.2.4.6c2-.5 5-1.2 7 .2z"/><path id="XMLID_66_" class="st7" d="M230.1 123.4s-2.4-3.1-4.7-3.8-5.4-.8-5.4-.8 4.2.9 5.4 1.6c1.1.7 4.7 3 4.7 3z"/><path id="XMLID_65_" class="st5" d="M217.3 120.5s6.3-.4 8.1 2.7c1.8 3.2 4.3 9.2 4.3 9.2s-6.9-.4-9.2-3.2c-2.3-2.8-3.2-8.7-3.2-8.7z"/><path id="XMLID_64_" class="st6" d="M223.7 124c1.4 2.4 3.1 6.4 3.9 8.2 1.3.2 2.1.2 2.1.2s-2.5-6.1-4.3-9.2-8.1-2.7-8.1-2.7.1.2.1.7c2 .2 5.1.7 6.3 2.8z"/><path id="XMLID_63_" class="st7" d="M224.8 128.8s-.8-3.7-2.6-5.3c-1.7-1.5-4.6-2.8-4.6-2.8s3.4 2.4 4.2 3.5c.7 1.1 3 4.6 3 4.6z"/><path id="XMLID_62_" class="st5" d="M213.1 120.8s6.2.9 7.2 4.3c1.1 3.4 2.1 9.9 2.1 9.9s-6.6-1.8-8.2-5c-1.6-3.3-1.1-9.2-1.1-9.2z"/><path id="XMLID_61_" class="st6" d="M218.5 125.4c.8 2.6 1.6 6.9 2 8.9 1.2.5 2 .7 2 .7s-1.1-6.4-2.1-9.9c-1.1-3.4-7.2-4.3-7.2-4.3v.7c1.8.5 4.6 1.6 5.3 3.9z"/><path id="XMLID_60_" class="st7" d="M218.5 130.4s0-3.8-1.3-5.7c-1.4-1.9-3.9-3.6-3.9-3.6s2.8 3.1 3.3 4.3c.5 1.1 1.9 5 1.9 5z"/></g></g><g id="圖層_4_拷貝_45_4_"><g id="圖層_1_拷貝_47_14_"><path id="XMLID_113_" class="st5" d="M116.2 160.9s5.6 2.8 5.8 6.5c.1 3.8-.4 10.4-.4 10.4s-5.7-3.8-6.5-7.5c-.8-3.8 1.1-9.4 1.1-9.4z"/><path id="XMLID_112_" class="st6" d="M120.1 167.1c.1 2.8-.2 7.4-.4 9.4 1 .8 1.7 1.3 1.7 1.3s.6-6.7.4-10.4-5.8-6.5-5.8-6.5-.1.2-.2.7c1.8 1.1 4.2 3.1 4.3 5.5z"/><path id="XMLID_111_" class="st7" d="M118.9 172s.9-3.8.1-6c-.8-2.3-2.7-4.8-2.7-4.8s1.9 3.9 2.1 5.2c.1 1.3.5 5.6.5 5.6z"/><path id="XMLID_110_" class="st5" d="M113.4 160.1s4.2 4.8 2.7 8.1-4.7 9-4.7 9-3.9-5.7-3.1-9.3c1-3.5 5.1-7.8 5.1-7.8z"/><path id="XMLID_109_" class="st6" d="M114.5 167.3c-1.1 2.5-3.2 6.4-4.1 8.2.6 1.2 1.1 1.9 1.1 1.9s3.3-5.7 4.7-9c1.4-3.4-2.7-8.1-2.7-8.1l-.5.5c1 1.5 2.4 4.3 1.5 6.5z"/><path id="XMLID_108_" class="st7" d="M111.4 171.1s2.4-2.9 2.6-5.3c.2-2.4-.7-5.3-.7-5.3s.2 4.2-.2 5.4c-.3 1.3-1.7 5.2-1.7 5.2z"/><path id="XMLID_107_" class="st5" d="M110.6 156.9s3.1 5.4 1 8.4c-2.1 2.9-6.5 7.7-6.5 7.7s-2.6-6.3-1.1-9.6c1.6-3.2 6.6-6.5 6.6-6.5z"/><path id="XMLID_106_" class="st6" d="M110.3 164c-1.6 2.2-4.5 5.5-5.8 7l.7 2.1s4.4-4.8 6.5-7.7-1-8.4-1-8.4-.2.1-.6.4c.7 1.8 1.5 4.7.2 6.6z"/><path id="XMLID_105_" class="st7" d="M106.3 167.1s3.1-2.3 3.7-4.5c.7-2.2.5-5.3.5-5.3s-.7 4.1-1.4 5.2c-.6 1.1-2.8 4.6-2.8 4.6z"/></g><g id="圖層_1_拷貝_47_13_"><path id="XMLID_104_" class="st5" d="M107.6 152.8s2 5.9-.6 8.7c-2.5 2.7-7.7 7-7.7 7s-1.3-6.7.7-9.9c2.3-3.1 7.6-5.8 7.6-5.8z"/><path id="XMLID_103_" class="st6" d="M106 160c-1.9 2.1-5.3 5-6.9 6.4.1 1.3.3 2.2.3 2.2s5.1-4.3 7.7-7c2.5-2.7.6-8.7.6-8.7l-.6.3c.3 1.9.6 5-1.1 6.8z"/><path id="XMLID_102_" class="st7" d="M101.7 162.5s3.3-2 4.4-4.1 1.4-5.3 1.4-5.3-1.5 4.1-2.3 5.2-3.5 4.2-3.5 4.2z"/><path id="XMLID_101_" class="st5" d="M106.2 150.3s-.4 6.3-3.8 7.7c-3.3 1.4-9.7 3.1-9.7 3.1s1.3-6.7 4.4-8.7c3.1-2 9.1-2.1 9.1-2.1z"/><path id="XMLID_100_" class="st6" d="M102 156.1c-2.5 1-6.8 2.3-8.7 2.8-.4 1.3-.5 2.1-.5 2.1s6.3-1.7 9.7-3.1c3.3-1.4 3.8-7.7 3.8-7.7h-.7c-.6 2.1-1.5 5.1-3.6 5.9z"/><path id="XMLID_99_" class="st7" d="M97 156.6s3.8-.3 5.6-1.8 3.4-4.2 3.4-4.2-2.9 3.1-4 3.7c-1.2.6-5 2.3-5 2.3z"/><path id="XMLID_98_" class="st5" d="M106.5 146.1s-1.7 6-5.2 6.6c-3.6.6-10.1.8-10.1.8s2.6-6.3 6-7.5c3.4-1.2 9.3.1 9.3.1z"/><path id="XMLID_97_" class="st6" d="M101.2 150.9c-2.7.5-7.1.7-9.1.8-.6 1.1-.9 2-.9 2s6.5-.2 10.1-.8 5.2-6.6 5.2-6.6-.3 0-.7-.1c-.8 1.6-2.3 4.2-4.6 4.7z"/><path id="XMLID_96_" class="st7" d="M96.3 150.2s3.8.5 5.8-.6 4.1-3.3 4.1-3.3-3.4 2.3-4.6 2.7c-1.3.3-5.3 1.2-5.3 1.2z"/></g><g id="圖層_1_拷貝_47_12_"><path id="XMLID_95_" class="st5" d="M107.5 141.7s-3.4 5.3-7.1 5-10.3-1.6-10.3-1.6 4.4-5.3 8.2-5.6c3.7-.3 9.2 2.2 9.2 2.2z"/><path id="XMLID_94_" class="st6" d="M100.8 144.9c-2.8-.2-7.3-1-9.2-1.3-.9.9-1.5 1.6-1.5 1.6s6.6 1.3 10.3 1.6c3.7.3 7.1-5 7.1-5s-.2-.1-.7-.3c-1.3 1.5-3.5 3.6-6 3.4z"/><path id="XMLID_93_" class="st7" d="M96.1 143.2s3.7 1.4 6 .8c2.3-.5 5.1-2.2 5.1-2.2s-4.1 1.4-5.4 1.5c-1.4 0-5.7-.1-5.7-.1z"/><path id="XMLID_92_" class="st5" d="M108.5 139s-5.2 3.6-8.3 1.9c-3.2-1.8-8.5-5.6-8.5-5.6s6.1-3.2 9.5-2c3.5 1.1 7.3 5.7 7.3 5.7z"/><path id="XMLID_91_" class="st6" d="M101.3 139.3c-2.4-1.3-6-3.8-7.6-5-1.2.5-2 .9-2 .9s5.3 3.9 8.5 5.6 8.3-1.9 8.3-1.9-.2-.2-.4-.6c-1.9 1.1-4.7 2.2-6.8 1z"/><path id="XMLID_90_" class="st7" d="M97.8 135.8s2.7 2.8 4.9 3.2c2.3.4 5.4 0 5.4 0s-4.2-.3-5.4-.8c-1.1-.6-4.9-2.4-4.9-2.4z"/><path id="XMLID_89_" class="st5" d="M112 136.6s-5.8 2.5-8.4.1c-2.7-2.4-7-7.3-7-7.3s6.5-1.9 9.6 0c3.1 1.9 5.8 7.2 5.8 7.2z"/><path id="XMLID_88_" class="st6" d="M105 135.4c-2-1.8-5-5.1-6.3-6.6-1.3.2-2.1.5-2.1.5s4.3 5 7 7.3c2.7 2.4 8.4-.1 8.4-.1l-.3-.6c-2 .6-5 1.1-6.7-.5z"/><path id="XMLID_87_" class="st7" d="M102.3 131.2s2 3.3 4.1 4.2 5.2 1.1 5.2 1.1-4-1.2-5-2c-1-.7-4.3-3.3-4.3-3.3z"/></g></g><g id="圖層_4_拷貝_45_8_"><g id="圖層_1_拷貝_47_26_"><path id="XMLID_228_" class="st5" d="M65.6 129.9s2.4 5.8 0 8.7-7.2 7.5-7.2 7.5-1.7-6.7.2-9.9c1.8-3.4 7-6.3 7-6.3z"/><path id="XMLID_227_" class="st6" d="M64.4 137.2c-1.8 2.2-5 5.4-6.5 6.8.2 1.3.4 2.1.4 2.1s4.9-4.6 7.2-7.5c2.3-2.9 0-8.7 0-8.7s-.2.1-.6.4c.6 1.9 1 5-.5 6.9z"/><path id="XMLID_226_" class="st7" d="M60.2 140s3.2-2.2 4.1-4.4 1.1-5.4 1.1-5.4-1.2 4.2-1.9 5.3c-.7 1.1-3.3 4.5-3.3 4.5z"/><path id="XMLID_225_" class="st5" d="M64 127.5s-.1 6.3-3.3 7.9c-3.3 1.5-9.5 3.6-9.5 3.6s.9-6.8 3.9-9c3-2.1 8.9-2.5 8.9-2.5z"/><path id="XMLID_224_" class="st6" d="M60.1 133.6c-2.5 1.2-6.6 2.7-8.5 3.3-.3 1.3-.4 2.1-.4 2.1s6.2-2 9.5-3.6 3.3-7.9 3.3-7.9-.2 0-.7.1c-.3 1.9-1.1 5-3.2 6z"/><path id="XMLID_223_" class="st7" d="M55.2 134.3s3.8-.6 5.5-2.2c1.7-1.6 3.1-4.4 3.1-4.4s-2.7 3.2-3.8 3.9c-1.1.8-4.8 2.7-4.8 2.7z"/><path id="XMLID_222_" class="st5" d="M64 123.3s-1.3 6.1-4.8 6.9c-3.5.8-10 1.4-10 1.4s2.2-6.4 5.6-7.9c3.3-1.4 9.2-.4 9.2-.4z"/><path id="XMLID_221_" class="st6" d="M59.1 128.3c-2.6.6-7 1.1-9 1.3-.5 1.2-.8 2-.8 2s6.5-.6 10-1.4c3.5-.8 4.8-6.9 4.8-6.9s-.3 0-.7-.1c-.8 1.8-2.1 4.6-4.3 5.1z"/><path id="XMLID_220_" class="st7" d="M54.1 127.9s3.8.3 5.8-.9 3.9-3.6 3.9-3.6-3.2 2.5-4.5 3c-1.2.5-5.2 1.5-5.2 1.5z"/></g><g id="圖層_1_拷貝_47_25_"><path id="XMLID_219_" class="st5" d="M64.6 118.2s-2.5 5.7-6.2 6.1-10.4.2-10.4.2 3.5-5.9 7.1-6.9c3.7-1 9.5.6 9.5.6z"/><path id="XMLID_218_" class="st6" d="M58.6 122.4c-2.8.3-7.3.2-9.4.2-.8 1-1.2 1.8-1.2 1.8s6.7.2 10.4-.2 6.2-6.1 6.2-6.1-.3 0-.7-.2c-1 1.8-2.9 4.3-5.3 4.5z"/><path id="XMLID_217_" class="st7" d="M53.6 121.5s3.8.7 6-.2c2.2-.9 4.6-3 4.6-3s-3.8 2.1-5.1 2.3c-1.3.3-5.5.9-5.5.9z"/><path id="XMLID_216_" class="st5" d="M65.1 115.4s-4.5 4.4-7.9 3.2c-3.4-1.2-9.3-4.1-9.3-4.1s5.5-4.1 9.1-3.6c3.7.6 8.1 4.5 8.1 4.5z"/><path id="XMLID_215_" class="st6" d="M58.1 116.9c-2.6-.9-6.6-2.8-8.4-3.7-1.1.7-1.8 1.2-1.8 1.2s5.8 3 9.3 4.1c3.4 1.2 7.9-3.2 7.9-3.2s-.2-.2-.6-.5c-1.5 1.3-4.2 2.9-6.4 2.1z"/><path id="XMLID_214_" class="st7" d="M54.1 114s3.1 2.3 5.4 2.3c2.3.1 5.3-.9 5.3-.9s-4.2.4-5.5.1c-1.2-.3-5.2-1.5-5.2-1.5z"/><path id="XMLID_213_" class="st5" d="M68.2 112.4s-5.2 3.4-8.3 1.5-8.1-6.1-8.1-6.1 6.1-3 9.5-1.6c3.4 1.4 6.9 6.2 6.9 6.2z"/><path id="XMLID_212_" class="st6" d="M61.1 112.4c-2.3-1.4-5.8-4.2-7.3-5.5-1.2.4-2 .8-2 .8s5 4.2 8.1 6.1c3.1 1.9 8.3-1.5 8.3-1.5s-.2-.2-.4-.6c-1.8 1-4.7 2-6.7.7z"/><path id="XMLID_211_" class="st7" d="M57.8 108.7s2.5 2.9 4.7 3.5c2.2.5 5.3.2 5.3.2s-4.1-.5-5.3-1.1c-1.1-.6-4.7-2.6-4.7-2.6z"/></g><g id="圖層_1_拷貝_47_24_"><path id="XMLID_210_" class="st5" d="M71.9 109.8s-6.1 1.7-8.7-1-6.6-8-6.6-8 6.8-1 9.9 1.2c2.9 2.3 5.4 7.8 5.4 7.8z"/><path id="XMLID_209_" class="st6" d="M64.7 107.8c-2-2-4.8-5.6-6-7.1-1.3.1-2.2.2-2.2.2s4 5.4 6.6 8c2.6 2.7 8.7 1 8.7 1s-.1-.2-.3-.7c-1.9.2-5 .3-6.8-1.4z"/><path id="XMLID_208_" class="st7" d="M62.4 103.3s1.8 3.5 3.9 4.6 5.2 1.8 5.2 1.8-4-1.7-5-2.5c-1-.9-4.1-3.9-4.1-3.9z"/><path id="XMLID_207_" class="st5" d="M74.4 108.4s-6.3-.8-7.5-4.1c-1.2-3.5-2.6-9.8-2.6-9.8s6.7 1.6 8.5 4.9c1.8 3.1 1.6 9 1.6 9z"/><path id="XMLID_206_" class="st6" d="M68.8 103.9c-.9-2.6-1.9-6.9-2.4-8.8-1.2-.5-2.1-.6-2.1-.6s1.4 6.4 2.6 9.8c1.3 3.4 7.5 4.1 7.5 4.1v-.7c-1.9-.5-4.8-1.5-5.6-3.8z"/><path id="XMLID_205_" class="st7" d="M68.6 99s.1 3.8 1.6 5.7c1.4 1.8 4 3.6 4 3.6s-2.9-3-3.5-4.2c-.6-1.3-2.1-5.1-2.1-5.1z"/><path id="XMLID_204_" class="st5" d="M78.6 109s-6-2-6.3-5.5c-.4-3.6-.3-10.1-.3-10.1s6.1 2.9 7.2 6.4c.9 3.4-.6 9.2-.6 9.2z"/><path id="XMLID_203_" class="st6" d="M74.1 103.4c-.3-2.7-.3-7.1-.3-9.1-1.1-.7-1.9-1.1-1.9-1.1s-.1 6.5.3 10.1 6.3 5.5 6.3 5.5 0-.3.2-.7c-1.7-.7-4.3-2.3-4.6-4.7z"/><path id="XMLID_202_" class="st7" d="M75 98.5s-.7 3.8.2 5.9c1 2.1 3.1 4.3 3.1 4.3s-2.2-3.5-2.4-4.8c-.2-1.3-.9-5.4-.9-5.4z"/></g></g><g id="圖層_4_拷貝_45_5_"><g id="圖層_1_拷貝_47_17_"><path id="XMLID_145_" class="st5" d="M156.8 77.5s5.6 2.8 5.8 6.5c.1 3.8-.4 10.4-.4 10.4s-5.7-3.8-6.5-7.5c-.8-3.7 1.1-9.4 1.1-9.4z"/><path id="XMLID_144_" class="st6" d="M160.8 83.8c.1 2.8-.2 7.4-.4 9.4 1 .8 1.7 1.3 1.7 1.3s.6-6.7.4-10.4c-.2-3.7-5.8-6.5-5.8-6.5s-.1.2-.2.7c1.8 1.1 4.1 3.1 4.3 5.5z"/><path id="XMLID_143_" class="st7" d="M159.6 88.7s.9-3.8.1-6c-.8-2.3-2.7-4.8-2.7-4.8s1.9 3.9 2.1 5.2c.1 1.3.5 5.6.5 5.6z"/><path id="XMLID_142_" class="st5" d="M154 76.8s4.2 4.8 2.7 8.1c-1.4 3.3-4.7 9-4.7 9s-3.9-5.7-3.1-9.3c1-3.5 5.1-7.8 5.1-7.8z"/><path id="XMLID_141_" class="st6" d="M155.2 83.9c-1.1 2.5-3.2 6.4-4.1 8.2.6 1.2 1.1 1.9 1.1 1.9s3.3-5.7 4.7-9-2.7-8.1-2.7-8.1l-.5.5c.9 1.6 2.4 4.4 1.5 6.5z"/><path id="XMLID_140_" class="st7" d="M152 87.8s2.4-2.9 2.6-5.3c.2-2.4-.7-5.3-.7-5.3s.2 4.2-.2 5.4c-.2 1.3-1.7 5.2-1.7 5.2z"/><path id="XMLID_139_" class="st5" d="M151.3 73.6s3.1 5.4 1 8.4c-2.1 2.9-6.5 7.7-6.5 7.7s-2.6-6.3-1.1-9.6c1.5-3.2 6.6-6.5 6.6-6.5z"/><path id="XMLID_138_" class="st6" d="M150.9 80.7c-1.6 2.2-4.5 5.5-5.8 7l.7 2.1s4.4-4.8 6.5-7.7c2.1-2.9-1-8.4-1-8.4s-.2.1-.6.4c.7 1.8 1.5 4.7.2 6.6z"/><path id="XMLID_137_" class="st7" d="M146.9 83.8s3.1-2.3 3.7-4.5c.7-2.2.5-5.3.5-5.3s-.7 4.1-1.4 5.2c-.5 1.1-2.8 4.6-2.8 4.6z"/></g><g id="圖層_1_拷貝_47_16_"><path id="XMLID_136_" class="st5" d="M153.6 76.7s-4.7 4.1-8.2 2.8c-3.5-1.3-9.4-4.4-9.4-4.4s5.7-3.8 9.4-3.1c3.6.8 8.2 4.7 8.2 4.7z"/><path id="XMLID_135_" class="st6" d="M146.3 77.9c-2.6-1-6.7-3-8.5-3.9-1.1.6-1.9 1.1-1.9 1.1s5.9 3.1 9.4 4.4 8.2-2.8 8.2-2.8l-.5-.5c-1.7 1.1-4.4 2.6-6.7 1.7z"/><path id="XMLID_134_" class="st7" d="M142.3 74.9s3.1 2.3 5.5 2.5c2.4.1 5.5-.7 5.5-.7s-4.3.2-5.6-.1-5.4-1.7-5.4-1.7z"/><path id="XMLID_133_" class="st5" d="M155.3 74.4s-6 2-8.5-.5c-2.6-2.5-6.6-7.7-6.6-7.7s6.7-1.3 9.7.7 5.4 7.5 5.4 7.5z"/><path id="XMLID_130_" class="st6" d="M148.3 72.7c-1.9-2-4.7-5.4-5.9-7-1.3.2-2.2.3-2.2.3s4 5.2 6.6 7.7 8.5.5 8.5.5-.1-.3-.3-.7c-2 .6-5.1.9-6.7-.8z"/><path id="XMLID_129_" class="st7" d="M145.9 68.3s1.8 3.4 3.8 4.4c2.1 1.1 5.2 1.5 5.2 1.5s-3.9-1.5-5-2.3c-.9-.8-4-3.6-4-3.6z"/><path id="XMLID_128_" class="st5" d="M159.3 73s-6.2.8-8.1-2.3c-1.9-3-4.6-9-4.6-9s6.8 0 9.2 2.7c2.5 2.8 3.5 8.6 3.5 8.6z"/><path id="XMLID_127_" class="st6" d="M152.9 70c-1.5-2.3-3.4-6.3-4.2-8.1-1.3-.1-2.2-.1-2.2-.1s2.7 6 4.6 9 8.1 2.3 8.1 2.3-.1-.3-.1-.7c-1.9-.1-4.9-.4-6.2-2.4z"/><path id="XMLID_126_" class="st7" d="M151.6 65.2s1 3.7 2.7 5.2c1.8 1.4 4.6 2.5 4.6 2.5s-3.5-2.3-4.3-3.2c-.6-1.1-3-4.5-3-4.5z"/></g><g id="圖層_1_拷貝_47_15_"><path id="XMLID_124_" class="st5" d="M157 71.1s3.4-5.3 7.1-5c3.7.3 10.3 1.6 10.3 1.6s-4.4 5.3-8.2 5.6c-3.8.3-9.2-2.2-9.2-2.2z"/><path id="XMLID_122_" class="st6" d="M163.6 67.9c2.8.2 7.3 1 9.2 1.4.9-.9 1.5-1.6 1.5-1.6s-6.6-1.3-10.3-1.6c-3.7-.3-7.1 5-7.1 5s.2.1.7.3c1.3-1.6 3.6-3.7 6-3.5z"/><path id="XMLID_121_" class="st7" d="M168.4 69.6s-3.7-1.4-6-.8c-2.3.5-5.1 2.1-5.1 2.1s4.1-1.4 5.4-1.4c1.4 0 5.7.1 5.7.1z"/><path id="XMLID_120_" class="st5" d="M156 73.8s5.2-3.6 8.4-1.9c3.2 1.8 8.4 5.6 8.4 5.6s-6.1 3.2-9.5 2c-3.6-1.1-7.3-5.7-7.3-5.7z"/><path id="XMLID_119_" class="st6" d="M163.2 73.5c2.4 1.4 6 3.9 7.6 5 1.2-.5 2-.9 2-.9s-5.3-3.9-8.4-5.6c-3.2-1.7-8.4 1.9-8.4 1.9s.2.2.4.6c1.8-1.1 4.7-2.2 6.8-1z"/><path id="XMLID_118_" class="st7" d="M166.6 77s-2.7-2.8-4.9-3.2c-2.3-.4-5.4 0-5.4 0s4.2.3 5.4.8c1.2.6 4.9 2.4 4.9 2.4z"/><path id="XMLID_117_" class="st5" d="M152.5 76.2s5.8-2.5 8.4-.1c2.7 2.4 6.9 7.3 6.9 7.3s-6.5 1.9-9.6 0c-3-1.9-5.7-7.2-5.7-7.2z"/><path id="XMLID_116_" class="st6" d="M159.5 77.4c2 1.8 4.9 5.1 6.3 6.6 1.3-.2 2.1-.5 2.1-.5s-4.3-5-6.9-7.3c-2.7-2.4-8.4.1-8.4.1l.3.6c1.8-.6 4.8-1.1 6.6.5z"/><path id="XMLID_115_" class="st7" d="M162.1 81.6s-2-3.3-4.1-4.2c-2.1-.9-5.2-1.1-5.2-1.1s4 1.2 5 2c1 .7 4.3 3.3 4.3 3.3z"/></g></g><g id="圖層_4_拷貝_45_6_"><g id="圖層_1_拷貝_47_20_"><path id="XMLID_172_" class="st5" d="M187.7 164.4s5.6 2.8 5.8 6.5c.1 3.8-.4 10.4-.4 10.4s-5.7-3.8-6.5-7.5c-.8-3.7 1.1-9.4 1.1-9.4z"/><path id="XMLID_171_" class="st6" d="M191.6 170.7c.1 2.8-.2 7.4-.4 9.4 1 .8 1.7 1.3 1.7 1.3s.6-6.7.4-10.4c-.2-3.7-5.8-6.5-5.8-6.5s-.1.2-.2.7c1.8 1.1 4.2 3.1 4.3 5.5z"/><path id="XMLID_170_" class="st7" d="M190.4 175.6s.9-3.8.1-6-2.7-4.8-2.7-4.8 1.9 3.9 2.1 5.2c.1 1.3.5 5.6.5 5.6z"/><path id="XMLID_169_" class="st5" d="M184.9 163.7s4.2 4.8 2.7 8.1c-1.4 3.3-4.7 9-4.7 9s-3.9-5.7-3.1-9.3c1-3.5 5.1-7.8 5.1-7.8z"/><path id="XMLID_168_" class="st6" d="M186 170.8c-1.1 2.5-3.2 6.4-4.1 8.2.6 1.2 1.1 1.9 1.1 1.9s3.3-5.7 4.7-9c1.4-3.4-2.7-8.1-2.7-8.1l-.5.5c1 1.6 2.4 4.4 1.5 6.5z"/><path id="XMLID_167_" class="st7" d="M182.9 174.7s2.4-2.9 2.6-5.3c.2-2.4-.7-5.3-.7-5.3s.2 4.2-.2 5.4c-.3 1.3-1.7 5.2-1.7 5.2z"/><path id="XMLID_166_" class="st5" d="M182.1 160.5s3.1 5.4 1 8.4c-2.1 2.9-6.5 7.7-6.5 7.7s-2.6-6.3-1.1-9.6c1.6-3.2 6.6-6.5 6.6-6.5z"/><path id="XMLID_165_" class="st6" d="M181.8 167.6c-1.6 2.2-4.5 5.5-5.8 7l.7 2.1s4.4-4.8 6.5-7.7-1-8.4-1-8.4-.2.1-.6.4c.7 1.8 1.5 4.7.2 6.6z"/><path id="XMLID_164_" class="st7" d="M177.8 170.7s3.1-2.3 3.7-4.5c.7-2.2.5-5.3.5-5.3s-.7 4.1-1.4 5.2c-.6 1.1-2.8 4.6-2.8 4.6z"/></g><g id="圖層_1_拷貝_47_19_"><path id="XMLID_163_" class="st5" d="M184.4 163.6s-4.7 4.1-8.2 2.8-9.4-4.4-9.4-4.4 5.7-3.8 9.4-3.1c3.7.8 8.2 4.7 8.2 4.7z"/><path id="XMLID_162_" class="st6" d="M177.2 164.8c-2.6-1-6.7-3-8.5-3.9-1.1.6-1.9 1.1-1.9 1.1s5.9 3.1 9.4 4.4c3.5 1.3 8.2-2.8 8.2-2.8l-.5-.5c-1.7 1.1-4.5 2.6-6.7 1.7z"/><path id="XMLID_161_" class="st7" d="M173.1 161.8s3.1 2.3 5.5 2.5c2.4.1 5.5-.7 5.5-.7s-4.3.2-5.6-.1c-1.3-.4-5.4-1.7-5.4-1.7z"/><path id="XMLID_160_" class="st5" d="M186.1 161.3s-6 2-8.5-.5-6.6-7.8-6.6-7.8 6.7-1.3 9.7.7c3.1 2.1 5.4 7.6 5.4 7.6z"/><path id="XMLID_159_" class="st6" d="M179.2 159.6c-1.9-2-4.7-5.4-5.9-7-1.3.2-2.2.3-2.2.3s4 5.2 6.6 7.7 8.5.5 8.5.5-.1-.3-.3-.7c-2 .6-5.1.9-6.7-.8z"/><path id="XMLID_158_" class="st7" d="M176.8 155.2s1.8 3.4 3.8 4.4c2.1 1.1 5.2 1.5 5.2 1.5s-3.9-1.5-5-2.3c-.9-.8-4-3.6-4-3.6z"/><path id="XMLID_157_" class="st5" d="M190.2 159.9s-6.2.8-8.1-2.3-4.6-9-4.6-9 6.8 0 9.2 2.7c2.4 2.8 3.5 8.6 3.5 8.6z"/><path id="XMLID_156_" class="st6" d="M183.8 156.9c-1.5-2.3-3.4-6.3-4.2-8.1-1.3-.1-2.2-.1-2.2-.1s2.7 6 4.6 9c1.9 3 8.1 2.3 8.1 2.3s-.1-.3-.1-.7c-1.9-.1-5-.4-6.2-2.4z"/><path id="XMLID_155_" class="st7" d="M182.5 152.1s1 3.7 2.7 5.2c1.8 1.4 4.6 2.5 4.6 2.5s-3.5-2.3-4.3-3.2c-.7-1.1-3-4.5-3-4.5z"/></g><g id="圖層_1_拷貝_47_18_"><path id="XMLID_154_" class="st5" d="M187.8 158s3.4-5.3 7.1-5c3.7.3 10.3 1.6 10.3 1.6s-4.4 5.3-8.2 5.6c-3.7.3-9.2-2.2-9.2-2.2z"/><path id="XMLID_153_" class="st6" d="M194.5 154.8c2.8.2 7.3 1 9.2 1.4.9-.9 1.5-1.6 1.5-1.6s-6.6-1.3-10.3-1.6-7.1 5-7.1 5 .2.1.7.3c1.3-1.6 3.6-3.7 6-3.5z"/><path id="XMLID_152_" class="st7" d="M199.2 156.5s-3.7-1.4-6-.8-5.1 2.1-5.1 2.1 4.1-1.4 5.4-1.4c1.5 0 5.7.1 5.7.1z"/><path id="XMLID_151_" class="st5" d="M186.9 160.7s5.2-3.6 8.4-1.9c3.2 1.8 8.4 5.6 8.4 5.6s-6.1 3.2-9.5 2c-3.6-1.1-7.3-5.7-7.3-5.7z"/><path id="XMLID_150_" class="st6" d="M194.1 160.4c2.4 1.4 6 3.9 7.6 5 1.2-.5 2-.9 2-.9s-5.3-3.9-8.4-5.6c-3.2-1.7-8.4 1.9-8.4 1.9s.2.2.4.6c1.8-1.1 4.7-2.2 6.8-1z"/><path id="XMLID_149_" class="st7" d="M197.5 163.9s-2.7-2.8-4.9-3.2c-2.3-.4-5.4 0-5.4 0s4.2.3 5.4.8c1.2.6 4.9 2.4 4.9 2.4z"/><path id="XMLID_148_" class="st5" d="M183.3 163.1s5.8-2.5 8.4-.1c2.7 2.4 6.9 7.3 6.9 7.3s-6.5 1.9-9.6 0c-3-1.9-5.7-7.2-5.7-7.2z"/><path id="XMLID_147_" class="st6" d="M190.4 164.3c2 1.8 4.9 5.1 6.3 6.6 1.3-.2 2.1-.5 2.1-.5s-4.3-5-6.9-7.3c-2.7-2.4-8.4.1-8.4.1l.3.6c1.8-.6 4.8-1.1 6.6.5z"/><path id="XMLID_146_" class="st7" d="M193 168.5s-2-3.3-4.1-4.2-5.2-1.1-5.2-1.1 4 1.2 5 2c1 .7 4.3 3.3 4.3 3.3z"/></g></g><g id="圖層_4_拷貝_45_7_"><g id="圖層_1_拷貝_47_23_"><path id="XMLID_200_" class="st5" d="M128.7 110.4s5.6 2.8 5.8 6.5c.1 3.8-.4 10.4-.4 10.4s-5.7-3.8-6.5-7.5c-.8-3.7 1.1-9.4 1.1-9.4z"/><path id="XMLID_199_" class="st6" d="M132.7 116.7c.1 2.8-.2 7.4-.4 9.4 1 .8 1.7 1.3 1.7 1.3s.6-6.7.4-10.4c-.2-3.7-5.8-6.5-5.8-6.5s-.1.2-.2.7c1.8 1.1 4.1 3.1 4.3 5.5z"/><path id="XMLID_198_" class="st7" d="M131.5 121.6s.9-3.8.1-6c-.8-2.3-2.7-4.8-2.7-4.8s1.9 3.9 2.1 5.2c.1 1.3.5 5.6.5 5.6z"/><path id="XMLID_197_" class="st5" d="M125.9 109.7s4.2 4.8 2.7 8.1c-1.4 3.3-4.7 9-4.7 9s-3.9-5.7-3.1-9.3c1-3.5 5.1-7.8 5.1-7.8z"/><path id="XMLID_196_" class="st6" d="M127.1 116.8c-1.1 2.5-3.2 6.4-4.1 8.2.6 1.2 1.1 1.9 1.1 1.9s3.3-5.7 4.7-9c1.4-3.4-2.7-8.1-2.7-8.1l-.5.5c.9 1.6 2.4 4.4 1.5 6.5z"/><path id="XMLID_195_" class="st7" d="M123.9 120.7s2.4-2.9 2.6-5.3-.7-5.3-.7-5.3.2 4.2-.2 5.4c-.2 1.2-1.7 5.2-1.7 5.2z"/><path id="XMLID_194_" class="st5" d="M123.2 106.5s3.1 5.4 1 8.4c-2.1 2.9-6.5 7.7-6.5 7.7s-2.6-6.3-1.1-9.6c1.5-3.2 6.6-6.5 6.6-6.5z"/><path id="XMLID_193_" class="st6" d="M122.8 113.6c-1.6 2.2-4.5 5.5-5.8 7l.7 2.1s4.4-4.8 6.5-7.7c2.1-2.9-1-8.4-1-8.4s-.2.1-.6.4c.7 1.8 1.5 4.7.2 6.6z"/><path id="XMLID_192_" class="st7" d="M118.8 116.6s3.1-2.3 3.7-4.5c.7-2.2.5-5.3.5-5.3s-.7 4.1-1.4 5.2c-.5 1.2-2.8 4.6-2.8 4.6z"/></g><g id="圖層_1_拷貝_47_22_"><path id="XMLID_191_" class="st5" d="M125.5 109.6s-4.7 4.1-8.2 2.8-9.4-4.4-9.4-4.4 5.7-3.8 9.4-3.1c3.6.8 8.2 4.7 8.2 4.7z"/><path id="XMLID_190_" class="st6" d="M118.2 110.8c-2.6-1-6.7-3-8.5-3.9-1.1.6-1.9 1.1-1.9 1.1s5.9 3.1 9.4 4.4 8.2-2.8 8.2-2.8l-.5-.5c-1.7 1.1-4.4 2.6-6.7 1.7z"/><path id="XMLID_189_" class="st7" d="M114.2 107.8s3.1 2.3 5.5 2.5c2.4.1 5.5-.7 5.5-.7s-4.3.2-5.6-.1-5.4-1.7-5.4-1.7z"/><path id="XMLID_188_" class="st5" d="M127.2 107.3s-6 2-8.5-.5c-2.6-2.5-6.6-7.7-6.6-7.7s6.7-1.3 9.7.7c3 2 5.4 7.5 5.4 7.5z"/><path id="XMLID_184_" class="st6" d="M120.2 105.6c-1.9-2-4.7-5.4-5.9-7-1.3.2-2.2.3-2.2.3s4 5.2 6.6 7.7 8.5.5 8.5.5-.1-.3-.3-.7c-2 .6-5.1.9-6.7-.8z"/><path id="XMLID_183_" class="st7" d="M117.8 101.2s1.8 3.4 3.8 4.4c2.1 1.1 5.2 1.5 5.2 1.5s-3.9-1.5-5-2.3c-.9-.8-4-3.6-4-3.6z"/><path id="XMLID_182_" class="st5" d="M131.2 105.9s-6.2.8-8.1-2.3-4.6-9-4.6-9 6.8 0 9.2 2.7c2.5 2.7 3.5 8.6 3.5 8.6z"/><path id="XMLID_181_" class="st6" d="M124.8 102.9c-1.5-2.3-3.4-6.3-4.2-8.1-1.3-.1-2.2-.1-2.2-.1s2.7 6 4.6 9 8.1 2.3 8.1 2.3-.1-.3-.1-.7c-1.9-.1-4.9-.5-6.2-2.4z"/><path id="XMLID_179_" class="st7" d="M123.5 98.1s1 3.7 2.7 5.2c1.8 1.4 4.6 2.5 4.6 2.5s-3.5-2.3-4.3-3.2c-.6-1.1-3-4.5-3-4.5z"/></g><g id="圖層_1_拷貝_47_21_"><path id="XMLID_177_" class="st5" d="M128.9 104s3.4-5.3 7.1-5c3.7.3 10.3 1.6 10.3 1.6s-4.4 5.3-8.2 5.6c-3.8.3-9.2-2.2-9.2-2.2z"/><path id="XMLID_176_" class="st6" d="M135.5 100.8c2.8.2 7.3 1 9.2 1.4.9-.9 1.5-1.6 1.5-1.6s-6.6-1.3-10.3-1.6c-3.7-.3-7.1 5-7.1 5s.2.1.7.3c1.3-1.6 3.6-3.7 6-3.5z"/><path id="XMLID_175_" class="st7" d="M140.3 102.5s-3.7-1.4-6-.8c-2.3.5-5.1 2.1-5.1 2.1s4.1-1.4 5.4-1.4c1.4 0 5.7.1 5.7.1z"/><path id="XMLID_174_" class="st5" d="M127.9 106.7s5.2-3.6 8.4-1.9c3.2 1.8 8.4 5.6 8.4 5.6s-6.1 3.2-9.5 2c-3.6-1.2-7.3-5.7-7.3-5.7z"/><path id="XMLID_173_" class="st6" d="M135.1 106.3c2.4 1.4 6 3.9 7.6 5 1.2-.5 2-.9 2-.9s-5.3-3.9-8.4-5.6c-3.2-1.7-8.4 1.9-8.4 1.9s.2.2.4.6c1.8-1 4.7-2.1 6.8-1z"/><path id="XMLID_132_" class="st7" d="M138.5 109.9s-2.7-2.8-4.9-3.2c-2.3-.4-5.4 0-5.4 0s4.2.3 5.4.8c1.2.6 4.9 2.4 4.9 2.4z"/><path id="XMLID_131_" class="st5" d="M124.4 109.1s5.8-2.5 8.4-.1c2.7 2.4 6.9 7.3 6.9 7.3s-6.5 1.9-9.6 0c-3-1.9-5.7-7.2-5.7-7.2z"/><path id="XMLID_125_" class="st6" d="M131.4 110.2c2 1.8 4.9 5.1 6.3 6.6 1.3-.2 2.1-.5 2.1-.5s-4.3-5-6.9-7.3c-2.7-2.4-8.4.1-8.4.1l.3.6c1.8-.5 4.8-1 6.6.5z"/><path id="XMLID_123_" class="st7" d="M134 114.5s-2-3.3-4.1-4.2c-2.1-.9-5.2-1.1-5.2-1.1s4 1.2 5 2c1 .7 4.3 3.3 4.3 3.3z"/></g></g><g id="圖層_4_拷貝_45_9_"><g id="圖層_1_拷貝_47_27_"><path id="XMLID_237_" class="st5" d="M230.1 167.7s3.4-5.3 7.1-5c3.7.3 10.3 1.6 10.3 1.6s-4.4 5.3-8.2 5.6c-3.8.4-9.2-2.2-9.2-2.2z"/><path id="XMLID_236_" class="st6" d="M236.7 164.5c2.8.2 7.3 1 9.2 1.4.9-.9 1.5-1.6 1.5-1.6s-6.6-1.3-10.3-1.6-7.1 5-7.1 5 .2.1.7.3c1.3-1.5 3.6-3.7 6-3.5z"/><path id="XMLID_235_" class="st7" d="M241.5 166.3s-3.7-1.4-6-.8c-2.3.5-5.1 2.1-5.1 2.1s4.1-1.4 5.4-1.4c1.4-.1 5.7.1 5.7.1z"/><path id="XMLID_234_" class="st5" d="M229.1 170.4s5.2-3.6 8.4-1.9c3.2 1.8 8.4 5.6 8.4 5.6s-6.1 3.2-9.5 2c-3.6-1.1-7.3-5.7-7.3-5.7z"/><path id="XMLID_233_" class="st6" d="M236.3 170.1c2.4 1.4 6 3.9 7.6 5 1.2-.5 2-.9 2-.9s-5.3-3.9-8.4-5.6c-3.2-1.7-8.4 1.9-8.4 1.9s.2.2.4.6c1.8-1.1 4.7-2.2 6.8-1z"/><path id="XMLID_232_" class="st7" d="M239.7 173.6s-2.7-2.8-4.9-3.2-5.4 0-5.4 0 4.2.3 5.4.8c1.2.6 4.9 2.4 4.9 2.4z"/><path id="XMLID_231_" class="st5" d="M225.6 172.8s5.8-2.5 8.4-.1c2.7 2.4 6.9 7.3 6.9 7.3s-6.5 1.9-9.6 0c-3-1.9-5.7-7.2-5.7-7.2z"/><path id="XMLID_230_" class="st6" d="M232.6 174c2 1.8 4.9 5.1 6.3 6.6 1.3-.2 2.1-.5 2.1-.5s-4.3-5-6.9-7.3c-2.7-2.4-8.4.1-8.4.1l.3.6c1.8-.6 4.8-1.1 6.6.5z"/><path id="XMLID_229_" class="st7" d="M235.2 178.2s-2-3.3-4.1-4.2-5.2-1.1-5.2-1.1 4 1.2 5 2 4.3 3.3 4.3 3.3z"/></g></g><g id="圖層_4_拷貝_45_11_"><g id="圖層_1_拷貝_47_29_"><path id="XMLID_255_" class="st5" d="M191 62.6s-5.2-3.5-4.9-7.2 1.8-10.3 1.8-10.3 5.2 4.5 5.5 8.3c.2 3.8-2.4 9.2-2.4 9.2z"/><path id="XMLID_254_" class="st6" d="M187.9 55.9c.3-2.8 1.1-7.3 1.5-9.2-.9-.9-1.6-1.5-1.6-1.5s-1.5 6.6-1.8 10.3 4.9 7.2 4.9 7.2.1-.2.3-.7c-1.4-1.4-3.5-3.7-3.3-6.1z"/><path id="XMLID_253_" class="st7" d="M189.7 51.2s-1.4 3.6-.9 6c.5 2.3 2 5.1 2 5.1s-1.3-4.1-1.3-5.4c0-1.4.2-5.7.2-5.7z"/><path id="XMLID_252_" class="st5" d="M193.6 63.6s-3.5-5.3-1.7-8.4c1.8-3.2 5.8-8.3 5.8-8.3s3.1 6.1 1.8 9.6c-1.2 3.5-5.9 7.1-5.9 7.1z"/><path id="XMLID_251_" class="st6" d="M193.5 56.4c1.4-2.4 4-5.9 5.2-7.5-.4-1.2-.9-2-.9-2s-4 5.2-5.8 8.3 1.7 8.4 1.7 8.4.2-.2.6-.4c-1-1.8-2-4.7-.8-6.8z"/><path id="XMLID_250_" class="st7" d="M197.1 53.1s-2.8 2.6-3.3 4.9c-.5 2.3-.1 5.4-.1 5.4s.4-4.2.9-5.4c.6-1.2 2.5-4.9 2.5-4.9z"/><path id="XMLID_249_" class="st5" d="M196 67.2s-2.4-5.8.1-8.4c2.4-2.6 7.5-6.8 7.5-6.8s1.8 6.6-.2 9.6-7.4 5.6-7.4 5.6z"/><path id="XMLID_248_" class="st6" d="M197.3 60.2c1.9-2 5.2-4.8 6.7-6.2-.2-1.3-.4-2.1-.4-2.1s-5 4.2-7.5 6.8c-2.4 2.6-.1 8.4-.1 8.4l.6-.3c-.5-1.8-.9-4.8.7-6.6z"/><path id="XMLID_247_" class="st7" d="M201.6 57.7s-3.3 1.9-4.3 4c-.9 2.1-1.2 5.2-1.2 5.2s1.3-4 2.1-4.9c.7-1.1 3.4-4.3 3.4-4.3z"/></g></g><g id="圖層_4_拷貝_45_10_"><g id="圖層_1_拷貝_47_28_"><path id="XMLID_246_" class="st5" d="M79.5 179.8s1.7 6.1-.9 8.7c-2.6 2.6-8 6.7-8 6.7s-1.1-6.8 1.2-9.9c2.1-3.1 7.7-5.5 7.7-5.5z"/><path id="XMLID_245_" class="st6" d="M77.5 186.9c-2 2-5.5 4.8-7.1 6 .1 1.3.2 2.2.2 2.2s5.3-4.1 8-6.7.9-8.7.9-8.7-.2.1-.7.3c.3 2.1.4 5.2-1.3 6.9z"/><path id="XMLID_244_" class="st7" d="M73 189.3s3.4-1.9 4.6-4 1.7-5.2 1.7-5.2-1.7 4-2.5 5c-.8 1.1-3.8 4.2-3.8 4.2z"/><path id="XMLID_243_" class="st5" d="M78.1 177.3s-.7 6.3-4.1 7.5-9.8 2.7-9.8 2.7 1.6-6.7 4.8-8.5c3.2-1.9 9.1-1.7 9.1-1.7z"/><path id="XMLID_242_" class="st6" d="M73.6 182.9c-2.6.9-6.9 2-8.8 2.4-.4 1.2-.6 2.1-.6 2.1s6.4-1.4 9.8-2.7 4.1-7.5 4.1-7.5h-.7c-.5 2-1.6 4.9-3.8 5.7z"/><path id="XMLID_241_" class="st7" d="M68.6 183.2s3.8-.2 5.7-1.6c1.8-1.4 3.5-4 3.5-4s-3 2.9-4.2 3.5c-1.1.5-5 2.1-5 2.1z"/><path id="XMLID_240_" class="st5" d="M78.6 173.1s-1.9 6-5.5 6.4c-3.6.5-10.1.4-10.1.4s2.9-6.1 6.4-7.2c3.4-1.1 9.2.4 9.2.4z"/><path id="XMLID_239_" class="st6" d="M73.1 177.6c-2.7.3-7.1.3-9.1.4-.7 1.1-1.1 1.9-1.1 1.9s6.5.1 10.1-.4 5.5-6.4 5.5-6.4-.3 0-.7-.2c-.8 1.8-2.4 4.4-4.7 4.7z"/><path id="XMLID_238_" class="st7" d="M68.2 176.7s3.8.7 5.9-.3 4.2-3.2 4.2-3.2-3.5 2.2-4.8 2.5c-1.2.3-5.3 1-5.3 1z"/></g></g></svg>