<svg version="1.0" id="圖層_1" xmlns="http://www.w3.org/2000/svg" x="0" y="0" width="300" height="260" style="enable-background:new 0 0 300 260" xml:space="preserve"><style>.st10,.st9{opacity:.81;fill:#f1f2f2;enable-background:new}.st10{opacity:.34}.st11{fill:none;stroke:#414042;stroke-width:3;stroke-miterlimit:10}.st12{fill:#6d6e71}.st13,.st14,.st16{opacity:.61;fill:#e6e7e8;enable-background:new}.st14,.st16{opacity:.3;fill:#fff}.st16{opacity:.18}</style><g id="water1"><path id="XMLID_8_" d="M270.9 123.9c1.6 22.6-5.3 43.4-14.8 62.9-1.6 3.3-3.2 6.5-4.9 9.6C236 230 199 248 163.1 248.5c-3.7.4-7.5.6-11.4.7-3.4.1-6.8 0-10.2-.2s-6.7-.6-10-1c-10.9-1.2-21.7-3.6-31.8-7.4-3.4-1.2-6.7-2.6-9.9-4.2C57 226 36 194 31.9 161.3c-.7-2.6-1.3-5.2-1.8-7.8-2.1-10.5-3.1-21.3-2.7-32 .1-3.1.3-6.1.6-9.1C34 79 49 44 78.4 25.1c2.7-1.6 5.6-2.9 8.6-4.1 5.9-2.4 12.3-4.1 19.1-4.8 3.1-.8 6.2-1.5 9.3-2.1 3.9-1 7.8-1.8 11.8-2.5 4-.6 8-1.1 12.1-1.3 22.4-1.4 43.9 3.3 62.8 12.6 3.1 1.6 6.2 3.2 9.2 5 30.2 13.6 51.1 41.7 56.6 73.9.6 3.6 1 7.2 1.3 10.9.8 3.6 1.3 7.4 1.7 11.2z" style="fill:#ccbc5d"/><circle id="XMLID_75_" cx="150" cy="130" r="111" style="opacity:.58;fill:#3c2415;enable-background:new"/><circle id="XMLID_26_" cx="150" cy="130" r="115" style="opacity:.12;fill:#030302;enable-background:new"/><circle id="XMLID_22_" cx="150" cy="130" r="108.4" style="fill:#1e63af"/><radialGradient id="XMLID_2_" cx="150" cy="130" r="82.364" gradientTransform="matrix(1 0 0 -1 0 260)" gradientUnits="userSpaceOnUse"><stop offset="0" style="stop-color:#1b1a52"/><stop offset=".359" style="stop-color:#1a1950;stop-opacity:.6407"/><stop offset=".634" style="stop-color:#17184b;stop-opacity:.3659"/><stop offset=".88" style="stop-color:#101542;stop-opacity:.1198"/><stop offset="1" style="stop-color:#0b123d;stop-opacity:0"/></radialGradient><path id="XMLID_21_" d="M232.4 127.9c1.2 46.1-35.7 84.4-82.4 84.4S66.4 174 67.6 127.9c1.2-44.8 38-80.2 82.4-80.2s81.3 35.4 82.4 80.2z" style="opacity:.75;fill:url(#XMLID_2_);enable-background:new"/><g id="圖層_2_拷貝"><ellipse id="XMLID_73_" class="st10" cx="93.2" cy="86.8" rx="5.9" ry="2.9"/><ellipse id="XMLID_71_" class="st10" cx="121.6" cy="100.5" rx="4" ry="2.2"/><ellipse id="XMLID_68_" class="st10" cx="166.6" cy="91.8" rx="4" ry="2.2"/><ellipse id="XMLID_56_" class="st10" cx="180" cy="125.9" rx="4" ry="2.2"/><ellipse id="XMLID_54_" class="st10" cx="134.2" cy="137.2" rx="4" ry="2.2"/><ellipse id="XMLID_51_" class="st10" cx="110.1" cy="148.5" rx="2.6" ry="1.2"/><ellipse id="XMLID_43_" class="st10" cx="165" cy="160.2" rx="4" ry="2.2"/><ellipse id="XMLID_30_" class="st10" cx="99.1" cy="173.2" rx="4" ry="2.2"/></g><g id="圖層_13"><path id="XMLID_119_" class="st11" d="M48.6 200.3s-1.1-.7-.8-2.3c.3-1.8 2-6.6 2.3-7.4v-.2c.1-.4.5-1.9 3.2-2.3 2.1-.3 4.2-.8 5.3-1.1.7-.2 1.4 0 1.9.6.1.1.2.2.2.3.8 1.1 4.7 7 5.5 8.2l.3.3c.3.3 1 1.1-.1 2.5-1.4 1.7-3.2 3.4-3.2 3.4s-.6.7-1.6.9c-.9.1-8.2-.9-9.1-1h-.2c-.2-.1-1.5-.3-3.7-1.9z"/><path id="XMLID_124_" class="st12" d="M48.6 200.3s-1.1-.7-.8-2.3c.3-1.8 2-6.6 2.3-7.4v-.2c.1-.4.5-1.9 3.2-2.3 2.1-.3 4.2-.8 5.3-1.1.7-.2 1.4 0 1.9.6.1.1.2.2.2.3.8 1.1 4.7 7 5.5 8.2l.3.3c.3.3 1 1.1-.1 2.5-1.4 1.7-3.2 3.4-3.2 3.4s-.6.7-1.6.9c-.9.1-8.2-.9-9.1-1h-.2c-.2-.1-1.5-.3-3.7-1.9z"/><path id="XMLID_112_" class="st13" d="m56.8 198.5.2-2.1s.1-.4.5-.4 3.8.2 3.8.2l-4.1-.5s-.3-.1-1.2-.8c-.8-.7-1.7-1.4-1.7-1.4s2.4 2 2.4 2.6.1 2.4.1 2.4z"/><path id="XMLID_107_" class="st14" d="M53.1 202.1c.7.1 1.9.2 3.1.4h.3l.1-.2.2-6.7-6.4-5.9c0 .1-.1.1-.1.2s0 .1-.1.2v.4c-.3.8-2 5.6-2.3 7.4-.3 1.6.8 2.3.8 2.3 2.2 1.7 3.5 1.8 3.8 1.8h.2c0 .1.1.1.4.1z"/><linearGradient id="XMLID_3_" gradientUnits="userSpaceOnUse" x1="100.458" y1="74.234" x2="100.458" y2="65.651" gradientTransform="scale(1 -1) rotate(52.496 353.26 -105.8)"><stop offset="0" style="stop-color:#fff"/><stop offset=".033" style="stop-color:#fff;stop-opacity:.9674"/><stop offset="1" style="stop-color:#fff;stop-opacity:0"/></linearGradient><path id="XMLID_93_" d="M56.8 196.7v.9s-.1 4-.2 4.6c0 .2 0 .3.2.4 2.2.3 4.4.5 4.9.4s1-.3 1.3-.6c0 0 .4-3 .6-4.4.2-1.3-.4-1.8-.4-1.8s-4.3-.4-5.3-.5c-1.2.1-1.1 1-1.1 1z" style="opacity:.52;fill:url(#XMLID_3_);enable-background:new"/><path id="XMLID_88_" class="st16" d="M64.5 195.2s0-.2.2-.3.3-.1.2 0c0 .1-.1.3-.2.3-.2.1-.2 0-.2 0z"/><path id="XMLID_77_" class="st16" d="M64.2 198.4s.2-.1.3 0c.2.1.2.2.1.2s-.3.1-.4 0c-.1-.1 0-.2 0-.2z"/><path id="XMLID_70_" class="st16" d="M58.1 189.1s-.1-.2.1-.3c.1-.1.2-.2.2-.1s0 .3-.1.4c-.1.1-.2 0-.2 0z"/><path id="XMLID_60_" class="st16" d="M56.7 195v-.1h.1s0 .1-.1.1c0 .1 0 0 0 0z"/></g><g id="圖層_13_拷貝"><path id="XMLID_103_" class="st11" d="M81.3 210.4s1.1.7.9 2.3c-.2 1.8-1.7 6.7-1.9 7.5v.2c0 .4-.4 1.9-3 2.5-2.1.4-4.1 1-5.2 1.4-.7.2-1.4 0-1.9-.5-.1-.1-.2-.2-.2-.3-.9-1-5-6.7-6-7.9l-.3-.3c-.3-.3-1.1-1 0-2.5 1.4-1.8 3-3.5 3-3.5s.6-.8 1.5-1 8.2.4 9.1.5h.2c.2 0 1.5.1 3.8 1.6z"/><path id="XMLID_111_" class="st12" d="M81.3 210.4s1.1.7.9 2.3c-.2 1.8-1.7 6.7-1.9 7.5v.2c0 .4-.4 1.9-3 2.5-2.1.4-4.1 1-5.2 1.4-.7.2-1.4 0-1.9-.5-.1-.1-.2-.2-.2-.3-.9-1-5-6.7-6-7.9l-.3-.3c-.3-.3-1.1-1 0-2.5 1.4-1.8 3-3.5 3-3.5s.6-.8 1.5-1 8.2.4 9.1.5h.2c.2 0 1.5.1 3.8 1.6z"/><path id="XMLID_91_" class="st13" d="m73.2 212.6-.1 2.1s0 .4-.5.5c-.4.1-3.8 0-3.8 0l4.1.3s.3.1 1.2.8l1.8 1.4s-2.5-1.9-2.5-2.4c0-.7-.2-2.7-.2-2.7z"/><path id="XMLID_66_" class="st14" d="M76.7 208.8c-.7-.1-1.9-.2-3.1-.2h-.3l-.1.2.2 6.7L80 221c0-.1.1-.1.1-.2s0-.1.1-.2v-.4c.2-.8 1.7-5.6 1.9-7.5.2-1.6-.9-2.3-.9-2.3-2.3-1.6-3.6-1.6-3.9-1.6H76.7c.1 0 0 0 0 0z"/><linearGradient id="XMLID_4_" gradientUnits="userSpaceOnUse" x1="107.141" y1="-40.003" x2="107.141" y2="-48.583" gradientTransform="scale(-1 1) rotate(55.495 -224.927 -84.664)"><stop offset="0" style="stop-color:#fff"/><stop offset=".033" style="stop-color:#fff;stop-opacity:.9674"/><stop offset="1" style="stop-color:#fff;stop-opacity:0"/></linearGradient><path id="XMLID_65_" d="M73.3 214.4v-.9s-.1-4-.1-4.6c0-.2-.1-.3-.2-.4-2.2-.2-4.4-.3-4.9-.2s-1 .4-1.2.6c0 0-.2 3.1-.4 4.4-.1 1.3.5 1.8.5 1.8s4.3.2 5.3.2c1.1 0 1-.9 1-.9z" style="opacity:.52;fill:url(#XMLID_4_);enable-background:new"/><path id="XMLID_64_" class="st16" d="M65.8 216.3s0 .2-.1.3c-.2.1-.3.1-.2 0 0-.1.1-.3.3-.3-.1-.1 0 0 0 0z"/><path id="XMLID_62_" class="st16" d="M65.8 213.1s-.1.1-.3 0c-.2-.1-.2-.2-.1-.2s.3-.1.4 0 0 .2 0 .2z"/><path id="XMLID_61_" class="st16" d="M72.4 222s.1.2 0 .3-.2.2-.2.1 0-.3.2-.4c-.1-.1 0 0 0 0z"/><path id="XMLID_59_" class="st16" d="M73.5 216.1v.1h-.1c0-.1 0-.1.1-.1 0-.1 0 0 0 0z"/></g></g></svg>