<?xml version="1.0" encoding="utf-8"?>
<!-- Generator: Adobe Illustrator 19.0.0, SVG Export Plug-In . SVG Version: 6.00 Build 0)  -->
<svg version="1.0" xmlns="http://www.w3.org/2000/svg" xmlns:xlink="http://www.w3.org/1999/xlink" x="0px" y="0px" width="100px" height="150px"
	 viewBox="0 0 100 150" style="enable-background:new 0 0 100 150;" xml:space="preserve">
<style type="text/css">
	.st0{display:none;}
	.st1{display:inline;fill:#333333;}
	.st2{display:inline;fill:#9E1F63;}
	.st3{display:inline;fill:#AB218E;}
	.st4{display:inline;fill:#59595B;}
	.st5{display:inline;}
	.st6{fill:#2E3192;}
	.st7{fill:#27AAE1;}
	.st8{fill:#1C75BC;}
	.st9{fill:none;stroke:#2B3990;stroke-width:4;stroke-miterlimit:10;}
	.st10{fill:#00AEEF;stroke:#2B3990;stroke-width:4;stroke-miterlimit:10;}
	.st11{fill:none;stroke:#5CA1D8;stroke-width:4;stroke-miterlimit:10;}
	.st12{fill:#00AEEF;stroke:#5CA1D8;stroke-width:4;stroke-miterlimit:10;}
	.st13{fill:none;stroke:#BE1E2D;stroke-width:8;stroke-miterlimit:10;}
	.st14{fill:none;stroke:#ED1C24;stroke-width:8;stroke-miterlimit:10;}
	.st15{fill:none;stroke:#FFFFFF;stroke-width:4;stroke-miterlimit:10;}
	.st16{fill:#FFFFFF;}
	.st17{fill:none;stroke:#FFFFFF;stroke-width:5;stroke-miterlimit:10;}
	.st18{fill:none;stroke:#FFFFFF;stroke-width:7;stroke-miterlimit:10;}
	.st19{opacity:0.46;fill:#FFFFFF;enable-background:new    ;}
</style>
<g id="normal" class="st0">
	<rect id="XMLID_6_" class="st1" width="100" height="150"/>
</g>
<g id="圖層_23" class="st0">
	<rect id="XMLID_7_" class="st2" width="100" height="75"/>
</g>
<g id="圖層_24" class="st0">
	<rect id="XMLID_8_" class="st3" width="50" height="150"/>
</g>
<g id="hover" class="st0">
	<rect id="XMLID_32_" class="st4" width="100" height="150"/>
</g>
<g id="bottom" class="st0">
	<path id="XMLID_37_" class="st1" d="M100,143.3c0-3.7-3-6.8-6.8-6.8H75H6.8H0V150h6.8H75h14.3h3.9h6.8V143.3L100,143.3
		C100,143.3,100,143.3,100,143.3z"/>
</g>
<g id="top" class="st0">
	<path id="XMLID_20_" class="st1" d="M100,6.8c0,3.7-3,6.8-6.8,6.8H75H6.8H0V0h6.8H75h14.3h3.9h6.8V6.8L100,6.8
		C100,6.7,100,6.7,100,6.8z"/>
</g>
<g id="patrol_2_" class="st0">
	<g id="圖層_2_拷貝" class="st5">
		<g id="patrol">
			<path id="XMLID_23_" class="st6" d="M81.4,87.3l-5.7-4.5c-2.6,10.7-12.2,18.6-23.7,18.6c-13.5,0-24.4-10.9-24.4-24.4H17.6
				c0,19.1,15.4,34.5,34.5,34.5c16.8,0,30.7-12,33.8-27.8L81.4,87.3z"/>
			<path id="XMLID_22_" class="st6" d="M85.9,83.7l8.4-6.7h-7.9c0-19.1-15.4-34.5-34.5-34.5c-16.8,0-30.7,12-33.8,27.8l4.5-3.6
				l5.7,4.5c2.6-10.7,12.2-18.6,23.7-18.6c13.5,0,24.4,10.9,24.4,24.4h-7.7l7.2,5.7l5.7,4.5L85.9,83.7z"/>
			<polygon id="XMLID_21_" class="st6" points="18.1,70.3 9.7,77 17.4,77 27.5,77 35.4,77 28.2,71.3 22.6,66.7 			"/>
		</g>
		<polyline id="XMLID_31_" class="st6" points="7.7,75 9.7,77 12.2,75 7.7,75 7.7,75 		"/>
		<polygon id="XMLID_33_" class="st6" points="35.4,77 33.4,75 32.9,75 		"/>
		<polygon id="XMLID_34_" class="st6" points="68.6,77 66.6,75 69.1,77 		"/>
		<polygon id="XMLID_35_" class="st6" points="94.3,77 92.3,75 89.8,77 		"/>
	</g>
	<g id="圖層_2_拷貝_2" class="st5">
		<g id="patrol_3_">
			<path id="XMLID_114_" class="st7" d="M79.4,85.3l-5.7-4.5c-2.6,10.7-12.2,18.6-23.7,18.6c-13.5,0-24.4-10.9-24.4-24.4H15.6
				c0,19.1,15.4,34.5,34.5,34.5c16.8,0,30.7-12,33.8-27.8L79.4,85.3z"/>
			<path id="XMLID_113_" class="st8" d="M83.9,81.7l8.4-6.7h-7.9c0-19.1-15.4-34.5-34.5-34.5c-16.8,0-30.7,12-33.8,27.8l4.5-3.6
				l5.7,4.5c2.6-10.7,12.2-18.6,23.7-18.6c13.5,0,24.4,10.9,24.4,24.4h-7.7l7.2,5.7l5.7,4.5L83.9,81.7z"/>
			<polygon id="XMLID_112_" class="st7" points="16.1,68.3 7.7,75 15.4,75 25.5,75 33.4,75 26.2,69.3 20.6,64.7 			"/>
		</g>
	</g>
</g>
<g id="target" class="st0">
	<g id="targetShadow" class="st5">
		<polygon id="XMLID_13_" class="st6" points="10,77 12.5,77 12.5,79.5 		"/>
		<circle id="XMLID_1_" class="st9" cx="52.5" cy="77.5" r="28.3"/>
		<line id="XMLID_2_" class="st9" x1="12.5" y1="77.5" x2="32.5" y2="77.5"/>
		<line id="XMLID_3_" class="st9" x1="52.5" y1="57.5" x2="52.5" y2="37.5"/>
		<line id="XMLID_4_" class="st9" x1="52.5" y1="97.5" x2="52.5" y2="117.5"/>
		<line id="XMLID_5_" class="st10" x1="72.5" y1="77.5" x2="92.5" y2="77.5"/>
		<polygon id="XMLID_12_" class="st6" points="48,115 50.5,115 50.5,117.5 		"/>
		<polygon id="XMLID_14_" class="st6" points="48,55 50.5,55 50.5,57.5 		"/>
		<polygon id="XMLID_15_" class="st6" points="70,77 72.5,77 72.5,79.5 		"/>
		<polygon id="XMLID_16_" class="st6" points="92.5,75.5 90,75.5 90,73 		"/>
		<polygon id="XMLID_17_" class="st6" points="54.5,97.5 52,97.5 52,95 		"/>
		<polygon id="XMLID_18_" class="st6" points="32.5,75.5 30,75.5 30,73 		"/>
		<polygon id="XMLID_19_" class="st6" points="54.5,37.5 52,37.5 52,35 		"/>
	</g>
	<g id="target_1_" class="st5">
		<circle id="XMLID_96_" class="st11" cx="50" cy="75" r="28.3"/>
		<line id="XMLID_95_" class="st11" x1="10" y1="75" x2="30" y2="75"/>
		<line id="XMLID_94_" class="st11" x1="50" y1="55" x2="50" y2="35"/>
		<line id="XMLID_93_" class="st11" x1="50" y1="95" x2="50" y2="115"/>
		<line id="XMLID_92_" class="st12" x1="70" y1="75" x2="90" y2="75"/>
	</g>
</g>
<g id="cancel" class="st0">
	<g id="圖層_8" class="st5">
		<g id="圖層_6">
			<line id="XMLID_24_" class="st13" x1="32" y1="57" x2="72" y2="97"/>
		</g>
		<g id="圖層_6_拷貝">
			<line id="XMLID_85_" class="st13" x1="32" y1="97" x2="72" y2="57"/>
		</g>
	</g>
	<g id="圖層_8_拷貝" class="st5">
		<g id="圖層_6_拷貝_2_1_">
			<line id="XMLID_26_" class="st14" x1="30" y1="55" x2="70" y2="95"/>
		</g>
		<g id="圖層_6_拷貝_2">
			<line id="XMLID_82_" class="st14" x1="30" y1="95" x2="70" y2="55"/>
		</g>
	</g>
</g>
<g id="camouflage">
	<g id="圖層_3">
		<g id="圖層_23_1_">
			<g id="XMLID_42_">
				<path id="XMLID_43_" class="st15" d="M64.4,104.5l-27.9-0.1c-2.2,0-4.2-1.2-5.3-3L17.3,78c-1.1-1.8-1.1-4.1,0-5.9l14-23.5
					c1.1-1.8,3.1-3,5.3-3l27.9,0.1c2.2,0,4.2,1.2,5.3,3l13.9,23.5c1.1,1.8,1.1,4.1,0,5.9l-14,23.5C68.6,103.4,66.6,104.5,64.4,104.5
					z"/>
			</g>
		</g>
	</g>
	<g id="圖層_10">
		<path id="XMLID_41_" class="st16" d="M47.2,58.2l4.6-0.4c0,0-0.5,1.7,0.5,1.8c1.1,0.1,4,0.8,3.6,2.4c-0.5,1.6-1.8,1.4-2.4,1.2
			c-0.6-0.3-2.6-1.7-3.2-0.6c-0.5,1.1-0.4,2.4,0,3.7c0.4,1.3-0.7,2.7-1.7,3.3c-1,0.6-2.2,0.2-2.9-0.4s-1.3-1.4-0.8-2.8
			c0.2-0.6,0.4-1.3-0.4-1.3c-0.8,0-1.5,0.5-1.8,2c-0.3,1.6-1,2.8-2.4,3c-1.5,0.2-4.6-1.6-4.7-3.7c-0.1-2.2,3.9-6.2,6.4-6.2
			C44.4,60.2,46.3,60.2,47.2,58.2z"/>
		<circle id="XMLID_40_" class="st17" cx="50.2" cy="75" r="17.4"/>
		<path id="XMLID_39_" class="st16" d="M61.5,62.3c0,0-2,1-2.3,2c-0.3,1-0.9,2,0.5,4.3c1.4,2.2-0.6,2.8-1.2,2.3
			c-0.6-0.5-2-3.8-4.2-2.1s-0.8,4.9,1.3,5.4c2.1,0.5,5.6,1,5.8,2.9s-0.5,6.9,2.2,8.4c2.7,1.5,3.4-7.1,3.4-7.1s-2.3-1.3-2.1-2.4
			s0.5-2.1,2.6-1.9c0.4,0,0.7,0.1,0.8-0.2c0.3-0.9-1.4-3.9-1.3-3.9c0,0-2.5,0.4-2.6-1c-0.1-1.4,1-2.6,1-2.6s-3.4-4.2-3.4-4"/>
		<path id="XMLID_38_" class="st16" d="M33.5,71.2c0,0,1.7,0.7,1.5,1.8c-0.2,1-1.5,4.6,0,4.7c1.6,0.1,2.1-0.7,3.6-3.2
			c1.5-2.4,5.4-4,6.1-3.4c0.7,0.6,1.8,2.1-1.4,3.8c-3.2,1.7-2.4,3.3-2.4,3.3s1.1,2.7,5.5,0.4c4.4-2.3,7,0.3,7.5,1.1
			c0.5,0.8,2.1,4.1-1.1,4.5c-3.2,0.4-5.4-3.9-8.9-2.1c-3.5,1.8-6,4.5-7,3.9C36,85.4,31.6,79.1,33.5,71.2z"/>
		<path id="XMLID_36_" class="st16" d="M39.8,88.6c0,0,0.7-1.2,2.2-1.4c1.5-0.2,2.7,1.1,2.7,1.1s0.7,2.4,2.6,1.9
			c1.8-0.5,2.2-0.7,1.3-1.7c-0.9-1.1-1.5-2.5,0.7-3.2c2.3-0.7,2.8,0.9,2.8,2c0,1.1,0.8,2.6,2.6,1.2c1.8-1.4,1.5-3.4,4-3.2
			c2.5,0.2,2.7,3.2,2.7,3.2s-5.4,4-9.5,3.9S40.3,90.4,39.8,88.6z"/>
	</g>
</g>
<g id="health" class="st0">
	<g id="圖層_3_7_" class="st5">
		<g id="圖層_23_8_">
			<g id="XMLID_72_">
				<path id="XMLID_73_" class="st15" d="M64.4,104.5l-27.9-0.1c-2.2,0-4.2-1.2-5.3-3L17.3,78c-1.1-1.8-1.1-4.1,0-5.9l14-23.5
					c1.1-1.8,3.1-3,5.3-3l27.9,0.1c2.2,0,4.2,1.2,5.3,3l13.9,23.5c1.1,1.8,1.1,4.1,0,5.9l-14,23.5C68.6,103.4,66.6,104.5,64.4,104.5
					z"/>
			</g>
		</g>
	</g>
	<g id="圖層_5_2_" class="st5">
		<rect id="XMLID_71_" x="46.7" y="55.1" class="st16" width="7.5" height="38.9"/>
		<rect id="XMLID_70_" x="31" y="70.8" class="st16" width="38.9" height="7.5"/>
	</g>
</g>
<g id="power" class="st0">
	<g id="圖層_3_2_" class="st5">
		<g id="圖層_23_3_">
			<g id="XMLID_50_">
				<path id="XMLID_51_" class="st15" d="M64.5,104.5l-27.9-0.1c-2.2,0-4.2-1.2-5.3-3L17.3,77.9c-1.1-1.8-1.1-4.1,0-5.9l14-23.5
					c1.1-1.8,3.1-3,5.3-3l27.9,0.1c2.2,0,4.2,1.2,5.3,3l13.9,23.5c1.1,1.8,1.1,4.1,0,5.9l-14,23.5C68.7,103.3,66.6,104.5,64.5,104.5
					z"/>
			</g>
		</g>
	</g>
	<g id="圖層_8_拷貝_1_" class="st5">
		<path id="XMLID_49_" class="st16" d="M40.9,81.7l9.4,5.5l-3.6,6.3c0,0-1.9,3.2-6.5,0.4c-4.7-2.8-2.9-5.9-2.9-5.9L40.9,81.7z"/>
		<path id="XMLID_48_" class="st16" d="M54.1,84.1c0,0,10.7-18.3,10.9-18.9c0.2-0.6-2.7-9.9-2.7-9.9L52.4,58L41.6,76.8L38.4,75
			l-1.8,3.2l18.9,10.9l1.8-3.2L54.1,84.1z M51,82.3c0.1-0.1-6.3-3.6-6.3-3.6l10.9-18.9l5-1.3l1.3,5C61.9,63.4,51,82.4,51,82.3z"/>
	</g>
</g>
<g id="speed" class="st0">
	<g id="圖層_3_3_" class="st5">
		<g id="圖層_23_4_">
			<g id="XMLID_46_">
				<path id="XMLID_47_" class="st15" d="M64.5,104.5l-27.9-0.1c-2.2,0-4.2-1.2-5.3-3L17.3,77.9c-1.1-1.8-1.1-4.1,0-5.9l14-23.5
					c1.1-1.8,3.1-3,5.3-3l27.9,0.1c2.2,0,4.2,1.2,5.3,3l13.9,23.5c1.1,1.8,1.1,4.1,0,5.9l-14,23.5C68.7,103.3,66.6,104.5,64.5,104.5
					z"/>
			</g>
		</g>
	</g>
	<g id="圖層_6_1_" class="st5">
		<path id="XMLID_45_" class="st16" d="M64.6,82.6c0,0-1-0.5-1.2-4.2c-0.3-3.7-1.8-8.1-6-9.9c-4-1.6-11.7-2.5-18.8-8.3
			c-0.6,1-1.9,5.4,4.9,9.4s7.2,4,6.8,4.9c-0.3,0.6-3.1,2.4-15-5.8c0.5,2.4,6.2,10.7,10.6,11.5c4.1,0.7,6.1-1.6,6.9-0.5
			c0.8,1.2-0.6,2.8-4.5,2.7c-4.3-0.2-8.5-2.8-8.3-3c0,0,1.9,7.2,7.8,8.3C53.7,89,63.9,84.8,64.6,82.6z"/>
	</g>
</g>
<g id="vision" class="st0">
	<g id="圖層_3_4_" class="st5">
		<g id="圖層_23_5_">
			<g id="XMLID_59_">
				<path id="XMLID_60_" class="st15" d="M64.5,104.5l-27.9-0.1c-2.2,0-4.2-1.2-5.3-3L17.3,77.9c-1.1-1.8-1.1-4.1,0-5.9l14-23.5
					c1.1-1.8,3.1-3,5.3-3l27.9,0.1c2.2,0,4.2,1.2,5.3,3l13.9,23.5c1.1,1.8,1.1,4.1,0,5.9l-14,23.5C68.7,103.3,66.6,104.5,64.5,104.5
					z"/>
			</g>
		</g>
	</g>
	<g id="圖層_4" class="st5">
		<ellipse id="XMLID_58_" class="st18" cx="50.5" cy="75" rx="24.2" ry="12.4"/>
		<circle id="XMLID_57_" class="st18" cx="50.5" cy="75" r="11.2"/>
		<path id="XMLID_56_" class="st19" d="M50.5,81.6c-3.7,0-6.6-3-6.6-6.6h13.2C57.2,78.7,54.2,81.6,50.5,81.6z"/>
		<circle id="XMLID_55_" class="st18" cx="50.5" cy="75" r="6.6"/>
	</g>
</g>
</svg>
