<?xml version="1.0" encoding="utf-8"?>
<!-- Generator: Adobe Illustrator 19.0.0, SVG Export Plug-In . SVG Version: 6.00 Build 0)  -->
<svg version="1.0" id="Calque_52" xmlns="http://www.w3.org/2000/svg" xmlns:xlink="http://www.w3.org/1999/xlink" x="0px" y="0px"
	 viewBox="0 0 100 150" style="enable-background:new 0 0 100 150;" xml:space="preserve">
<style type="text/css">
	.st0{fill:none;stroke:#FFFFFF;stroke-width:4;stroke-miterlimit:10;}
	.st1{fill:#FFFFFF;}
</style>
<g id="power">
	<g id="圖層_3_2_">
		<g id="圖層_23_3_">
			<g id="XMLID_50_">
				<path id="XMLID_51_" class="st0" d="M64.5,104.5l-27.9-0.1c-2.2,0-4.2-1.2-5.3-3L17.3,77.9c-1.1-1.8-1.1-4.1,0-5.9l14-23.5
					c1.1-1.8,3.1-3,5.3-3l27.9,0.1c2.2,0,4.2,1.2,5.3,3l13.9,23.5c1.1,1.8,1.1,4.1,0,5.9l-14,23.5C68.7,103.3,66.6,104.5,64.5,104.5
					z"/>
			</g>
		</g>
	</g>
	<g id="圖層_8_拷貝_1_">
		<path id="XMLID_49_" class="st1" d="M40.9,81.7l9.4,5.5l-3.6,6.3c0,0-1.9,3.2-6.5,0.4c-4.7-2.8-2.9-5.9-2.9-5.9L40.9,81.7z"/>
		<path id="XMLID_48_" class="st1" d="M54.1,84.1c0,0,10.7-18.3,10.9-18.9c0.2-0.6-2.7-9.9-2.7-9.9L52.4,58L41.6,76.8L38.4,75
			l-1.8,3.2l18.9,10.9l1.8-3.2L54.1,84.1z M51,82.3c0.1-0.1-6.3-3.6-6.3-3.6l10.9-18.9l5-1.3l1.3,5C61.9,63.4,51,82.4,51,82.3z"/>
	</g>
</g>
</svg>
