<?xml version="1.0" encoding="utf-8"?>
<!-- Generator: Adobe Illustrator 19.0.0, SVG Export Plug-In . SVG Version: 6.00 Build 0)  -->
<svg version="1.0" id="Calque_52" xmlns="http://www.w3.org/2000/svg" xmlns:xlink="http://www.w3.org/1999/xlink" x="0px" y="0px" width="150px" height="100px"
	 viewBox="0 0 100 150" style="enable-background:new 0 0 100 150;" xml:space="preserve">
<style type="text/css">
	.st0{display:none;}
	.st1{display:inline;}
	.st2{fill:none;stroke:#FFFFFF;stroke-width:4;stroke-miterlimit:10;}
	.st3{display:inline;fill:#FFFFFF;}
	.st4{font-family:'FranklinGothic-Medium';}
	.st5{font-size:47.6478px;}
	.st6{fill:#F68B31;}
	.st7{fill:#FFC714;}
</style>
<g id="money" class="st0">
	<g id="圖層_3_1_" class="st1">
		<g id="圖層_23_2_">
			<g id="XMLID_225_">
				<path id="XMLID_227_" class="st2" d="M64.5,104.5l-27.9-0.1c-2.2,0-4.2-1.2-5.3-3L17.3,77.9c-1.1-1.8-1.1-4.1,0-5.9l14-23.5
					c1.1-1.8,3.1-3,5.3-3l27.9,0.1c2.2,0,4.2,1.2,5.3,3l13.9,23.5c1.1,1.8,1.1,4.1,0,5.9l-14,23.5C68.7,103.3,66.6,104.5,64.5,104.5
					z"/>
			</g>
		</g>
	</g>
	<text id="XMLID_214_" transform="matrix(1 0 0 1 36.8738 91.1697)" class="st3 st4 st5">S</text>
	<path id="XMLID_213_" class="st3" d="M50.2,55L50.2,55c-1.2,0-2.2,1-2.2,2.2v35.5c0,1.2,1,2.2,2.2,2.2h0c1.2,0,2.2-1,2.2-2.2V57.2
		C52.4,56,51.4,55,50.2,55z"/>
</g>
<g id="money_-_copie">
	<g id="XMLID_4_">
		<path id="XMLID_10_" class="st6" d="M33.4,86.8l7.1-1.5c0.8,4,4.1,6,9.8,6c2.6,0,4.6-0.5,6-1.5s2.1-2.3,2.1-3.8
			c0-1.1-0.3-2.1-0.9-3.1c-0.6-0.9-2-1.7-4-2.2l-7.7-2c-2.6-0.7-4.6-1.5-5.9-2.3c-1.3-0.9-2.3-2.1-3-3.7c-0.8-1.6-1.1-3.3-1.1-5.1
			c0-3.6,1.3-6.5,4-8.7c2.7-2.2,6.1-3.3,10.3-3.3c3.5,0,6.6,0.8,9.3,2.3c2.7,1.5,4.5,3.7,5.2,6.4L57.4,66c-1.1-3.1-3.5-4.6-7.4-4.6
			c-2.3,0-4,0.5-5.2,1.4C43.6,63.8,43,65,43,66.5c0,2.3,1.9,3.9,5.6,4.8l6.9,1.7c4.2,1,6.9,2.6,8.4,4.6c1.4,2,2.1,4.3,2.1,6.8
			c0,4-1.5,7.1-4.5,9.4c-3,2.3-6.9,3.4-11.6,3.4c-4,0-7.5-0.8-10.5-2.5C36.4,93,34.4,90.4,33.4,86.8z"/>
	</g>
	<path id="XMLID_1_" class="st6" d="M50.7,50.6h-1.2c-1.2,0-2.2,1-2.2,2.2v46.3c0,1.2,1,2.2,2.2,2.2h1.2c1.2,0,2.2-1,2.2-2.2V52.9
		C52.9,51.6,51.9,50.6,50.7,50.6z"/>
	<polyline id="XMLID_5_" class="st6" points="33.4,84.8 33.4,86.8 34,86.9 34.6,86.5 33.4,84.8 	"/>
	<polygon id="XMLID_7_" class="st6" points="64.3,62.3 64.3,64.3 62.8,62.2 	"/>
</g>
<g id="money_-_copie_2">
	<g id="XMLID_6_">
		<path id="XMLID_8_" class="st7" d="M33.4,84.8l7.1-1.5c0.8,4,4.1,6,9.8,6c2.6,0,4.6-0.5,6-1.5s2.1-2.3,2.1-3.8
			c0-1.1-0.3-2.1-0.9-3.1c-0.6-0.9-2-1.7-4-2.2l-7.7-2c-2.6-0.7-4.6-1.5-5.9-2.3c-1.3-0.9-2.3-2.1-3-3.7c-0.8-1.6-1.1-3.3-1.1-5.1
			c0-3.6,1.3-6.5,4-8.7c2.7-2.2,6.1-3.3,10.3-3.3c3.5,0,6.6,0.8,9.3,2.3c2.7,1.5,4.5,3.7,5.2,6.4L57.4,64c-1.1-3.1-3.5-4.6-7.4-4.6
			c-2.3,0-4,0.5-5.2,1.4C43.6,61.8,43,63,43,64.5c0,2.3,1.9,3.9,5.6,4.8l6.9,1.7c4.2,1,6.9,2.6,8.4,4.6c1.4,2,2.1,4.3,2.1,6.8
			c0,4-1.5,7.1-4.5,9.4c-3,2.3-6.9,3.4-11.6,3.4c-4,0-7.5-0.8-10.5-2.5C36.4,91,34.4,88.4,33.4,84.8z"/>
	</g>
	<path id="XMLID_3_" class="st7" d="M50.7,48.6h-1.2c-1.2,0-2.2,1-2.2,2.2v46.3c0,1.2,1,2.2,2.2,2.2h1.2c1.2,0,2.2-1,2.2-2.2V50.9
		C52.9,49.6,51.9,48.6,50.7,48.6z"/>
</g>
</svg>
