<?xml version="1.0" encoding="utf-8"?>
<!-- Generator: Adobe Illustrator 19.0.0, SVG Export Plug-In . SVG Version: 6.00 Build 0)  -->
<svg version="1.0" id="Calque_52" xmlns="http://www.w3.org/2000/svg" xmlns:xlink="http://www.w3.org/1999/xlink" x="0px" y="0px" width="150px" height="100px"
	 viewBox="0 0 100 150" style="enable-background:new 0 0 100 150;" xml:space="preserve">
<style type="text/css">
	.st0{fill:none;stroke:#90C963;stroke-width:4;stroke-miterlimit:10;}
	.st1{fill:#90C964;}
</style>
<g id="slow">
	<g id="圖層_3_6_">
		<g id="圖層_23_7_">
			<g id="XMLID_31_">
				<path id="XMLID_35_" class="st0" d="M64.5,104.5l-27.9-0.1c-2.2,0-4.2-1.2-5.3-3L17.3,77.9c-1.1-1.8-1.1-4.1,0-5.9l14-23.5
					c1.1-1.8,3.1-3,5.3-3l27.9,0.1c2.2,0,4.2,1.2,5.3,3l13.9,23.5c1.1,1.8,1.1,4.1,0,5.9l-14,23.5C68.7,103.3,66.6,104.5,64.5,104.5
					z"/>
			</g>
		</g>
	</g>
	<path id="XMLID_23_" class="st1" d="M33.2,78.1c0,0-0.2-4.5,2.7-9.3l3.8,4.3c0,0-1.2,3-1.1,4.9L33.2,78.1z"/>
	<path id="XMLID_113_" class="st1" d="M46.9,77.6L36.2,65.5l1.6-1.7l1.5,1.2c0,0,7.9-6.4,16.5-3.5c8.7,2.9,11.5,8.4,12,16.7h-5.5
		c0,0-0.1-11.5-11.1-11.8c-4.2-0.1-7.6,2.2-7.6,2.2l6.6,6.3c0,0,3.8-0.6,3.8,3.6c0,3-3.6,4-6,2.4C46.3,79.6,46.9,77.6,46.9,77.6z"/>
	<circle id="XMLID_500_" class="st1" cx="50.6" cy="78.3" r="4.1"/>
</g>
</svg>
