<?xml version="1.0" encoding="utf-8"?>
<!-- Generator: Adobe Illustrator 19.0.0, SVG Export Plug-In . SVG Version: 6.00 Build 0)  -->
<svg version="1.0" id="Calque_1" xmlns="http://www.w3.org/2000/svg" xmlns:xlink="http://www.w3.org/1999/xlink" x="0px" y="0px" width="100px" height="150px"
	 viewBox="0 0 100 150" style="enable-background:new 0 0 100 150;" xml:space="preserve">
<style type="text/css">
	.st0{fill:none;stroke:#3F7193;stroke-width:3;stroke-miterlimit:10;}
	.st1{fill:none;stroke:#599ED6;stroke-width:3;stroke-miterlimit:10;}
	.st2{fill:#3F7193;}
	.st3{fill:#599ED6;}
</style>
<g id="Calque_4">
	<circle id="XMLID_1_" class="st0" cx="52.1" cy="77.3" r="19.6"/>
	<circle id="XMLID_2_" class="st1" cx="52.7" cy="76.7" r="19.6"/>
	<g id="Calque_2">
		<polygon id="XMLID_3_" class="st2" points="28.9,99.3 28.9,97.5 39,97.8 40.5,106 40.5,107.8 36.2,104.6 30.9,111.9 28,109.7 
			28,107.9 28.8,108.5 33.3,102.5 		"/>
		<polygon id="XMLID_4_" class="st3" points="28.9,97.5 39,96 40.5,106 36.2,102.8 30.9,110.1 28,107.9 33.3,100.7 		"/>
	</g>
	<g id="Calque_2_-_copie">
		<polygon id="XMLID_6_" class="st2" points="67.4,48.5 65.7,49.1 68.9,58.5 77.3,57.5 79,57 74.6,53.8 79.9,46.6 77,44.4 75.3,45 
			76.1,45.6 71.7,51.7 		"/>
		<polygon id="XMLID_5_" class="st3" points="65.7,49.1 67.2,59.1 77.3,57.5 72.9,54.3 78.2,47.1 75.3,45 70,52.2 		"/>
	</g>
</g>
</svg>
