<?xml version="1.0" encoding="utf-8"?>
<!-- Generator: Adobe Illustrator 19.0.0, SVG Export Plug-In . SVG Version: 6.00 Build 0)  -->
<svg version="1.0" xmlns="http://www.w3.org/2000/svg" xmlns:xlink="http://www.w3.org/1999/xlink" x="0px" y="0px" width="300px" height="260px"
	 viewBox="0 0 300 260" style="enable-background:new 0 0 300 260;" xml:space="preserve">
<style type="text/css">
	.st0{fill:none;stroke:#345226;stroke-width:8;stroke-miterlimit:10;}
	.st1{fill:#355226;}
</style>
<g id="border_-_copie_2">
	<g id="圖層_23_4_">
		<g id="XMLID_143_">
			<path id="XMLID_147_" class="st0" d="M204.4,245l-109-0.2c-8.5,0-16.4-4.5-20.6-11.6l-54.4-91.7c-4.2-7.2-4.2-16,0-23.2
				l54.6-91.7C79.2,19.4,87.1,15,95.6,15l109,0.2c8.5,0,16.4,4.5,20.6,11.6l54.4,91.7c4.2,7.2,4.2,16,0,23.2l-54.6,91.7
				C220.8,240.5,212.9,245,204.4,245z"/>
		</g>
	</g>
</g>
<g id="Calque_46">
	<path id="XMLID_149_" class="st1" d="M95.8,152.6c0,0-0.7-15.3,9.3-31.8l13.1,14.6c0,0-4.2,10.2-3.7,16.6L95.8,152.6z"/>
	<path id="XMLID_141_" class="st1" d="M142.9,150.7l-36.7-41.5l5.6-5.8l5,4.1c0,0,27-22,56.6-12s39.5,28.9,41.1,57.1h-18.8
		c0,0-0.3-39.3-38.1-40.4c-14.4-0.4-26,7.5-26,7.5l22.7,21.4c0,0,13.2-1.9,13.1,12.2c0,10.1-12.2,13.8-20.6,8.3
		C140.6,157.5,142.9,150.7,142.9,150.7z"/>
	<circle id="XMLID_500_" class="st1" cx="155.5" cy="153.2" r="13.9"/>
</g>
</svg>
