<svg version="1.0" id="圖層_1" xmlns="http://www.w3.org/2000/svg" x="0" y="0" width="300" height="260" style="enable-background:new 0 0 300 260" xml:space="preserve"><style>.st0{display:none}.st1{display:inline}.st2{fill:#303030}.st4{opacity:.2;fill:#fff}.st5{fill:#414042}.st11{opacity:.3}.st12{fill:#e2e2e2}.st13{fill:none;stroke:#414042;stroke-miterlimit:10}.st14{opacity:.3;fill:#e2e2e2}.st15,.st16{opacity:.3;fill:#9b9a9a}.st16{fill:#414042}.st20,.st21{opacity:.5}.st21{fill:#e2e2e2}.st22,.st23{opacity:.5;fill:#9b9a9a}.st23{fill:#414042}.st27,.st28{opacity:.75}.st28{fill:#e2e2e2}.st29,.st30{opacity:.75;fill:#9b9a9a}.st30{fill:#414042}.st34{fill:#9b9a9a}</style><g id="turrel3"><g id="cannon_-_copie_2"><g id="long_-_copie_2"><path id="XMLID_20_" class="st2" d="M132.2 37.4H167v61.3h-34.8z"/><radialGradient id="XMLID_46_" cx="149.603" cy="-16188.064" r="25.508" gradientTransform="matrix(1 0 0 -.9373 0 -15105.617)" gradientUnits="userSpaceOnUse"><stop offset="0" style="stop-color:#d6d5d5"/><stop offset=".321" style="stop-color:#d4d3d2"/><stop offset=".542" style="stop-color:#cccaca"/><stop offset=".732" style="stop-color:#bebdbd"/><stop offset=".903" style="stop-color:#acabab"/><stop offset="1" style="stop-color:#9f9e9e"/></radialGradient><path id="XMLID_19_" style="fill:url(#XMLID_46_)" d="M134.4 37.4h30.4v61.3h-30.4z"/><path id="XMLID_18_" class="st4" d="M157.2 45.5h7.6v48.3h-7.6z"/></g><g id="bottom_-_copie_2"><path id="XMLID_17_" class="st5" d="M119.3 93.5H180v12.2h-60.7z"/><radialGradient id="XMLID_47_" cx="149.653" cy="-16221.897" r="20.082" gradientTransform="matrix(1 0 0 -1 0 -16122)" gradientUnits="userSpaceOnUse"><stop offset="0" style="stop-color:#d6d5d5"/><stop offset=".321" style="stop-color:#d4d3d2"/><stop offset=".542" style="stop-color:#cccaca"/><stop offset=".732" style="stop-color:#bebdbd"/><stop offset=".903" style="stop-color:#acabab"/><stop offset="1" style="stop-color:#9f9e9e"/></radialGradient><path id="XMLID_16_" style="fill:url(#XMLID_47_)" d="M121.6 95.4h56.1v8.9h-56.1z"/><path id="XMLID_15_" class="st4" d="M122.6 101.8h54.1v2.4h-54.1z"/></g><g id="top_-_copie_2"><path id="XMLID_14_" class="st2" d="M124.9 34.9h50.6v21.7h-50.6z"/><radialGradient id="XMLID_48_" cx="150.203" cy="-16167.73" r="17.269" gradientTransform="matrix(1 0 0 -1 0 -16122)" gradientUnits="userSpaceOnUse"><stop offset="0" style="stop-color:#d6d5d5"/><stop offset=".321" style="stop-color:#d4d3d2"/><stop offset=".542" style="stop-color:#cccaca"/><stop offset=".732" style="stop-color:#bebdbd"/><stop offset=".903" style="stop-color:#acabab"/><stop offset="1" style="stop-color:#9f9e9e"/></radialGradient><path id="XMLID_13_" style="fill:url(#XMLID_48_)" d="M127.2 37.4h45.9V54h-45.9z"/><path id="XMLID_8_" class="st4" d="M128.3 49.4h43.9V53h-43.9z"/></g></g><g id="圖層_4_1_"><g id="XMLID_503_" class="st20"><path id="XMLID_506_" class="st12" d="M70.9 46.2c-3 0-5.5-.9-7-2.4-.7-.8-1.2-1.8-1.3-2.8-.4-.1-.8-.2-1.2-.2-1.6-.3-3.6-.6-4.9-3-1.3-2.6.1-5.4 1-6.6-.9-1.1-2.5-3.4-2.7-6.3-.2-3.4 3-5.3 4.5-6 .1-1.2.5-3.7 3-5.1 1-.6 2-.9 2.9-.9.6 0 1.1.1 1.5.3.7-1.3 2.3-3.4 4.9-3.4 1 0 2.1.3 3.2.9 5.3 3 5.3 7.1 5.3 7.8.1 1.8-.3 4.6-2.2 5.8 1 1.5 1.5 3.9 1.4 6.3 1.8 1.9 1.9 5 1.9 5.2 0 1.2-.6 2.8-2.3 3.3.1 1.1 0 2.5-.8 3.8-.8 1.5-2.2 2.5-3.9 2.9-1.1.3-2.2.4-3.3.4z"/><path id="XMLID_505_" class="st13" d="M70.9 46.2c-3 0-5.5-.9-7-2.4-.7-.8-1.2-1.8-1.3-2.8-.4-.1-.8-.2-1.2-.2-1.6-.3-3.6-.6-4.9-3-1.3-2.6.1-5.4 1-6.6-.9-1.1-2.5-3.4-2.7-6.3-.2-3.4 3-5.3 4.5-6 .1-1.2.5-3.7 3-5.1 1-.6 2-.9 2.9-.9.6 0 1.1.1 1.5.3.7-1.3 2.3-3.4 4.9-3.4 1 0 2.1.3 3.2.9 5.3 3 5.3 7.1 5.3 7.8.1 1.8-.3 4.6-2.2 5.8 1 1.5 1.5 3.9 1.4 6.3 1.8 1.9 1.9 5 1.9 5.2 0 1.2-.6 2.8-2.3 3.3.1 1.1 0 2.5-.8 3.8-.8 1.5-2.2 2.5-3.9 2.9-1.1.3-2.2.4-3.3.4z"/></g><path id="XMLID_502_" class="st21" d="M58.7 31s-2.8-2.6-3-6.3 4.5-5.3 4.5-5.3-.3-3.3 2.5-4.9c2.9-1.6 4.4 0 4.4 0s2-5.9 7.1-3 4.8 6.9 4.8 6.9.3 5-2.9 5.4c1.3.9 2.4 3.8 2.1 7.1 1.9 1.6 1.9 4.8 1.9 4.8s0 2.5-2.5 2.5c.5 1.4.4 5.6-3.8 6.6s-10.5-.1-10.3-4.6c-2.1-.9-4.8-.1-6.3-3s1.5-6.2 1.5-6.2z"/><path id="XMLID_501_" class="st22" d="M70.6 40.2c-2.1-.9-4.8-.1-6.3-3s1.4-6.3 1.4-6.3-2.8-2.6-3-6.3 4.5-5.3 4.5-5.3-.3-3.3 2.5-4.9c2.9-1.6 4.4 0 4.4 0s.4-1.2 1.3-2.2c-.4-.3-.7-.5-1.2-.8-5.1-2.9-7.1 3-7.1 3s-1.5-1.6-4.4 0c-2.9 1.6-2.5 4.9-2.5 4.9s-4.6 1.6-4.5 5.3 3 6.3 3 6.3-2.9 3.4-1.4 6.3 4.1 2.1 6.3 3c-.3 4.5 6.1 5.6 10.3 4.6.2 0 .4-.1.5-.2-2.2-.6-3.9-2-3.8-4.4z"/><path id="XMLID_500_" class="st23" d="M68.8 31.5s-4.7-4.1-1.8-8.3 7.3-3.7 7.3-3.7-8.6 3.8-5.5 12z"/></g><g id="圖層_4_拷貝"><g id="XMLID_513_" class="st20"><path id="XMLID_520_" class="st12" d="M227.7 46.6c-1.1 0-2.2-.1-3.2-.4-1.8-.4-3.1-1.4-3.9-2.9-.7-1.3-.9-2.7-.8-3.8-1.7-.5-2.3-2.2-2.3-3.3 0-.1 0-3.2 1.9-5.2-.1-2.4.5-4.8 1.4-6.3-1.8-1.2-2.2-4-2.2-5.8 0-.7 0-4.8 5.3-7.8 1.1-.6 2.2-.9 3.2-.9 2.6 0 4.2 2 4.9 3.4.4-.2.9-.3 1.5-.3.9 0 1.9.3 2.9.9 2.5 1.4 3 3.8 3 5.1 1.4.7 4.6 2.5 4.5 6-.1 2.9-1.8 5.2-2.7 6.3.9 1.3 2.3 4.1 1 6.6-1.3 2.4-3.3 2.8-4.9 3-.4.1-.9.1-1.2.2-.1 1.1-.5 2.1-1.3 2.9-1.6 1.4-4.1 2.3-7.1 2.3z"/><path id="XMLID_519_" class="st13" d="M227.7 46.6c-1.1 0-2.2-.1-3.2-.4-1.8-.4-3.1-1.4-3.9-2.9-.7-1.3-.9-2.7-.8-3.8-1.7-.5-2.3-2.2-2.3-3.3 0-.1 0-3.2 1.9-5.2-.1-2.4.5-4.8 1.4-6.3-1.8-1.2-2.2-4-2.2-5.8 0-.7 0-4.8 5.3-7.8 1.1-.6 2.2-.9 3.2-.9 2.6 0 4.2 2 4.9 3.4.4-.2.9-.3 1.5-.3.9 0 1.9.3 2.9.9 2.5 1.4 3 3.8 3 5.1 1.4.7 4.6 2.5 4.5 6-.1 2.9-1.8 5.2-2.7 6.3.9 1.3 2.3 4.1 1 6.6-1.3 2.4-3.3 2.8-4.9 3-.4.1-.9.1-1.2.2-.1 1.1-.5 2.1-1.3 2.9-1.6 1.4-4.1 2.3-7.1 2.3z"/></g><path id="XMLID_512_" class="st21" d="M239.9 31.4s2.8-2.6 3-6.3-4.5-5.3-4.5-5.3.3-3.3-2.5-4.9-4.4 0-4.4 0-2-5.9-7.1-3-4.8 6.9-4.8 6.9-.3 5 2.9 5.4c-1.3.9-2.4 3.8-2.1 7.1-1.9 1.6-1.9 4.7-1.9 4.7s0 2.5 2.5 2.5c-.5 1.4-.4 5.6 3.8 6.6s10.5-.1 10.3-4.6c2.1-.9 4.8-.1 6.3-3s-1.5-6.1-1.5-6.1z"/><path id="XMLID_511_" class="st22" d="M228 40.6c2.1-.9 4.8-.1 6.3-3s-1.4-6.2-1.4-6.2 2.8-2.6 3-6.3-4.5-5.3-4.5-5.3.3-3.3-2.5-4.9c-2.9-1.6-4.4 0-4.4 0s-.4-1.2-1.3-2.2c.4-.3.7-.5 1.2-.8 5.1-2.9 7.1 3 7.1 3s1.5-1.6 4.4 0c2.9 1.6 2.5 4.9 2.5 4.9s4.6 1.6 4.5 5.3-3 6.3-3 6.3 2.9 3.4 1.4 6.2-4.1 2.1-6.3 3c.3 4.5-6.1 5.6-10.3 4.6-.2 0-.4-.1-.5-.2 2.2-.6 3.9-2 3.8-4.4z"/><path id="XMLID_510_" class="st23" d="M229.8 31.9s4.7-4.1 1.8-8.3-7.3-3.7-7.3-3.7 8.6 3.8 5.5 12z"/></g></g></svg>