<svg version="1.0" xmlns="http://www.w3.org/2000/svg" width="300" height="260" style="enable-background:new 0 0 300 260" xml:space="preserve"><style>.st0{display:none}.st2,.st6{display:inline}.st6{fill:#fff}.st10,.st13,.st15{fill:none;stroke:#fff;stroke-miterlimit:10}.st10{display:inline;stroke-width:7}.st13,.st15{stroke-width:17}.st15{opacity:.67;stroke:#262262;stroke-width:11}.st17{opacity:.92}.st18{opacity:.44;fill:#020202}.st23{display:inline;fill:#414042;stroke:#282828;stroke-miterlimit:10}.st31{fill:#58595b}.st33,.st35{fill:none;stroke:#414042;stroke-width:.5;stroke-miterlimit:10}.st35{fill:#6d6e71}.st36{opacity:.81}.st37{opacity:.28;fill:#fff}.st44{fill:#515151;stroke:#262626;stroke-miterlimit:10}.st45{opacity:.25;fill:#232323}</style><g id="crash"><g id="Calque_25_-_copie"><g id="Calque_18_-_copie_5"><g id="XMLID_98_" style="opacity:.47"><path id="XMLID_103_" class="st18" d="M133.4 162.1c1.8-1.7 1.3-1.6 0 0z"/><path id="XMLID_99_" class="st18" d="M213.3 138.8c-2.1-2.2-2.9-4.2-2.7-5.9.3-1.7 1.7-3.1 4.1-4-4.9-4-6.3-7.2-.8-9.9-6.4-2.8-8-5.2-2.3-9.4-4.1-1.6-7.6-3.7-7.9-6.4-2.3-2.6-2.2-6-.8-10.4-4.5.3-11.7.1-8.1-4-7-.1-8.3-2.9-5.1-9.2-3.6 1.7-6.6 2.8-8.3 2.6s-1.9-2 .1-6.1c-4 2.7-7 3.9-8 3-1.6-.6-1.5-3.4-.5-8.1-3.2 3.9-6.5 6.8-6.9 5.6-2.5.7-2.5-2.5-2.5-7.9-2.3 5-5.6 9.4-5.2 6.8-3.2 2.2-3.7-1.6-4.7-7.6-1.3 3-3.3 6.9-4.4 7.1-1.8 2.5-3.1 2.7-3.4-.6-2.4 3.4-4.5 5.6-5.8 2-2.1 2.3-3.6-2.1-5.6-5.4-.3 4-.8 10.5-2 7.3-.7 5.2-2.3 3.6-4.6-1.4-.1 5.8-.6 9.7-3.5 4.8.1 5.5-2.9 2.1-6.6-1.9 2.3 8.1 1.1 10.8-6.6 6.3 2.1 3.9 2.6 6.2 1.5 7.2-1.1 1.1-3.8.8-8-.4 4.3 4.9 5.7 7.7-.7 5.9 4.3 4.7.6 5.1-5.7 5 4.8 3.2 5.9 5.9-.6 5.8 4.9 3.6 2.6 5.7-3.4 6.3 5.2 2.9 6.2 5.9-.5 6.2 6.1 3.4 6.1 6.3-.9 6.8 7 4.1 8.9 7.7.8 9.9 9 2.8 11.7 5.4 2.3 9.4 10.8.4 13.4 2.1 3.7 8.7 11.7-2.9 13.8-1.4 5 8 5.6-3 9.4-4.3 9.9-3.2 1.6.9-.1 4.2-3.4 9.9 3.7-4.1 8.1-7.1 7.3-6.9 3-.7 1.3 1.8-1.1 7.3 3.1-4.9 5.9-6.2 3.3-3.8 2.3.6-1.4 5.4-2.8 9.9 2.4-3.8 7.3-8 5.2-7.2 4.1-2 3.5-.1 1.1 5.7.9-1.4 1.7-2.6 2.5-3.5 4.2-.8 1.1 4.3-.3 9 3.8-7.5 7.5-10.9 5.3-1.4 4.2-8.1 4-.3 3 6.1 3.4-4.9 7.1-8.5 4.8-3 4.9-4.6 5.6-2.1 4.7 4.6 4.5-7.7 7.9-6.3 9.8 1.6 3.3-8.1 6.5-8.3 9.9-1.1 1.6-8.2 4.4-8.6 9.4-2-.3-8.1 1.4-11.2 8.3-4.7-2.9-8.9.7-8.8 8.4-3.9-3.9-7.7-3.4-11.5 5.8-7.5-5.9-7.4.1-7 7.4-5.7-4.3-5.4-3.7-8.7 3.5-8.6-4.5-4.7.1-6.8 5.2-8.1-3.6-4.3-4-8.3 1.4-9.6zm-86.4 34c1.7-2.1 2.4-2.3 0 0zm72-36.4c-4.1 1-3.8 4.1-1.3 7.1-3.9 1-7.3 2.6-3.9 6.1-5.4-.1-5.8 2.4-2.6 6.5-5.5-1-10.1-1.3-5.6 4.3-7-3-7.3-.2-4.4 5.6-5.8-3.7-8.5-3.8-6.4 3-5.2-4.9-6.5-2.5-6.3 3.6-3.8-4.9-5.9-4.7-7.1 1.6-2.6-5.5-5-5.4-7.5.8-1.5-6-4-7-7.4-1.2.7-5.1.2-7-3.5-3.5 1.8-4.2-1.1-1.4-3.6 2.3.7-4.8.9-10.7-2.3-4.6 1.7-7.2-1.1-4.6-4 1.1 1.1-3.6 3.4-7.5.3-6.9-.5.7-1.2 1.5-1.9 2.6 1.8-4.4 2.2-5.8-.9-4.3 1.5-.6-2.2 2.6-4 5.5 1.1-3.4 3.9-7 2.2-7.5 2-1.8-.2-.8-2.5 2.9 1.8-4.2 3.1-6.1.9-5.5.7-.2-2.7 2.1-5.5 5.2 2.5-4.3 3.8-6.8 2.5-7.5-.4-.8-3.3.1-7.5 2.4 6.7-7.1 5.1-8.2-3.8-6 7.4-5.1 5.4-6.3-2.8-6.6 7.1-3 5-5-1.7-7.1 6.2-1.7 4.7-4.4-.6-7.5 5.3-.4 5.3-2.6.7-5.2 5.1-.2 4.3-2.5.4-4.7 4.5-.5 6.3-2.1 2.6-4.8 4.9.1 4.1-1.9.5-4.4 4.7.1 7.5-.2 4.3-3.8 4.8 1.4 3.8-.7.5-4.4 3.2.9 5.3 1.1 6.1.3s.5-2.5-1.1-5.5c5.9 3.5 6.8 1.4 5-4.8 2.8 3 5 5.6 5 1.5 2.2 3.7 2.6.8 2.7-3.6 1.8 3.8 3 5.1 3.5 1.1.9 2.4 1.3-2.4 1.5-5.5 1.5 2.5 2.7 5.8 4.2 4.1 1 2.7 2.6 1 4.4-1.5.2 2.5 1.2 2.3 2.6.5.8-.2 2.3-3.1 3.3-5.4.7 4.6 1.1 7.4 3.5 5.8-.3 1.9 2.2-1.4 3.9-5.2 0 4.1 0 6.5 1.9 6 .3.9 2.8-1.3 5.2-4.3-.7 3.5-.9 5.7.4 6.1.8.7 3-.2 6.1-2.2-1.5 3.1-1.3 4.4-.1 4.6 1.3.2 3.6-.7 6.3-1.9-2.4 4.7-1.4 6.9 3.9 6.9-2.8 3.2 2.7 3.3 6.1 3.1-1.1 3.3-1.1 5.8.6 7.8.2 2 2.9 3.6 6 4.8-4.3 3.1-3.1 5 1.7 7.1-4.2 2-3.1 4.4.6 7.5-1.9.7-2.9 1.7-3.1 3-.3 1.4.4 2.9 2 4.6z"/></g></g><g id="Calque_18_-_copie"><g id="XMLID_79_"><path id="XMLID_80_" class="st17" d="M126.9 172.8c2.4-2.3 1.7-2.1 0 0z"/><path id="XMLID_83_" class="st17" d="M240.9 138.6c-5.9 2-9.8 2.6-12.3 2.3-4.1-16.7 4.9-23.1 29.4-8.2-29.3-28-41.3-32.1-12.3-70.1-28.4 22-36.6 25.1-42.3 12 .9-5.3 8.1-11.4 20-15.4-29-.2-46.8 4.6-23.2-29.9-35.8 31.1-42.2 30.2-63.8-2.2 11.6 32.4 8.3 32.6-12 15.7 13.9 17.8 10.8 18.5-5.5 11C129.1 63 126.1 64 115 62c5.4 4.4 2.7 5.8-3.1 6.7.4 2.2-2.2 4-4.6 4.5s-4.7-.3-6.9-3.7c-4.4 15.5-8.2 20.4-23 3.9 8.5 27.3 6 33.1-25 26.8 27.7 18.5 26.8 24.9 4 39.9 22.7-5 23-1.8 9.6 11.8 14.3-7.2 14.9-4 9 7 7.6-4.9 8.7-2 6.6 4.5 2.7-1.3 2.3.8.1 2.5 5.3 3.7 8.9 6.9 8.8 9.8-.1 3-3.7 5.7-13 8.6 27.2 2.8 32.1 6.6 13.2 35 29.5-22.2 35.3-19.8 47.4 11.4.1-27.8 6.5-26.9 23.5-16.5-7.1-10.3-3.8-10.6 4.9-6.7-2.6-4 .2-3.8 3.2-2.7 3.1-2.8 6.4-4.6 9.1-3.9 2.8.7 5 3.9 6.6 11.5 7.5-21.5 12.4-25.3 33.5 4.8-12.3-38.8-8.5-43.7 36.2-42.2-38.4-12.3-35.9-18.1-14.2-36.4zm-27.6.2c-5.4 1.3-5 5.4-1.7 9.4-5.1 1.3-9.6 3.4-5.2 8.1-7.1-.1-7.7 3.2-3.5 8.6-7.3-1.3-13.3-1.7-7.4 5.7-9.2-4-9.7-.2-5.8 7.5-7.7-4.9-11.3-5-8.4 3.9-6.9-6.4-8.6-3.3-8.3 4.7-5-6.5-7.8-6.2-9.4 2-3.4-7.3-6.6-7.1-9.9 1.1-1.9-7.9-5.3-9.3-9.8-1.6.9-6.7.2-9.2-4.7-4.6 2.3-5.5-1.4-1.8-4.8 3 1-6.4 1.2-14.2-3-6.1 2.3-9.5-1.5-6.1-5.3 1.4 1.5-4.7 4.5-9.9.3-9-.7.9-1.6 2-2.5 3.5 2.4-5.8 2.9-7.6-1.1-5.7 2-.8-2.9 3.5-5.2 7.2 1.5-4.4 5.1-9.2 2.8-9.9 2.6-2.4-.2-1-3.3 3.8 2.4-5.5 4.1-8 1.1-7.3.9-.3-3.6 2.8-7.3 6.9 3.3-5.7 5-9 3.4-9.9-.5-1.1-4.4.2-9.9 3.2 8.8-9.3 6.7-10.9-5-8 9.7-6.7 7.1-8.4-3.7-8.7 9.3-4 6.7-6.6-2.3-9.4 8.1-2.2 6.2-5.8-.8-9.9 7-.6 7-3.4.9-6.8 6.8-.3 5.7-3.3.5-6.2 6-.7 8.3-2.8 3.4-6.3 6.5.2 5.5-2.5.6-5.8 6.2.1 10-.2 5.7-5 6.4 1.9 5-1 .7-5.9 4.2 1.2 6.9 1.4 8 .4 1.1-1.1.6-3.4-1.5-7.2 7.8 4.6 9 1.9 6.6-6.3 3.7 4 6.6 7.4 6.6 1.9 3 4.9 3.4 1 3.5-4.8 2.4 5.1 3.9 6.7 4.6 1.4 1.2 3.2 1.7-3.2 2-7.3 2 3.3 3.5 7.7 5.6 5.4 1.3 3.6 3.4 1.4 5.8-2 .3 3.4 1.6 3.1 3.4.6 1.1-.3 3.1-4.1 4.4-7.1 1 6.1 1.4 9.8 4.7 7.6-.4 2.5 2.9-1.8 5.2-6.8 0 5.4 0 8.6 2.5 7.9.4 1.2 3.7-1.7 6.9-5.6-1 4.7-1.2 7.5.5 8.1 1 1 4-.3 8-3-2 4.1-1.7 5.8-.1 6.1s4.7-.9 8.3-2.6c-3.2 6.3-1.8 9.1 5.1 9.2-3.7 4.2 3.6 4.3 8.1 4-1.4 4.4-1.5 7.7.8 10.4.3 2.6 3.8 4.7 7.9 6.4-5.6 4.1-4.1 6.6 2.3 9.4-5.5 2.6-4.1 5.8.8 9.9-2.5.9-3.9 2.3-4.1 4 .1 1.9.9 3.9 3 6.1z"/></g></g></g></g></svg>