<?xml version="1.0" encoding="utf-8"?>
<!-- Generator: Adobe Illustrator 19.0.0, SVG Export Plug-In . SVG Version: 6.00 Build 0)  -->
<svg version="1.0" id="圖層_1" xmlns="http://www.w3.org/2000/svg" xmlns:xlink="http://www.w3.org/1999/xlink" x="0px" y="0px" width="300px" height="260px"
	 viewBox="0 0 300 260" style="enable-background:new 0 0 300 260;" xml:space="preserve">
<style type="text/css">
	.st0{fill:#303030;}
	.st1{fill:url(#XMLID_2_);}
	.st2{fill:url(#XMLID_3_);}
</style>
<g id="Calque_29">
	<path id="XMLID_197_" class="st0" d="M68.6,200.4H52c-2.2,0-4-1.6-4-3.6v-134c0-1.9,1.8-3.6,4-3.6h16.4c2.2,0,4,1.6,4,3.6v133.9
		C72.6,198.8,70.8,200.4,68.6,200.4z"/>
	
		<radialGradient id="XMLID_2_" cx="60.2554" cy="-16251.8467" r="49.4382" gradientTransform="matrix(1 0 0 -1 0 -16122)" gradientUnits="userSpaceOnUse">
		<stop  offset="0" style="stop-color:#D6D5D5"/>
		<stop  offset="0.3213" style="stop-color:#D4D3D2"/>
		<stop  offset="0.5416" style="stop-color:#CCCACA"/>
		<stop  offset="0.7315" style="stop-color:#BEBDBD"/>
		<stop  offset="0.9032" style="stop-color:#ACABAB"/>
		<stop  offset="1" style="stop-color:#9F9E9E"/>
	</radialGradient>
	<path id="XMLID_28_" class="st1" d="M67.5,198.9H53.1c-1.9,0-3.5-1.6-3.5-3.5V64.2c0-1.9,1.6-3.5,3.5-3.5h14.3
		c1.9,0,3.5,1.6,3.5,3.5v131.1C71,197.3,69.4,198.9,67.5,198.9z"/>
</g>
<g id="Calque_29_-_copie">
	<path id="XMLID_54_" class="st0" d="M247.9,200.3h-16.6c-2.2,0-4-1.6-4-3.6v-134c0-1.9,1.8-3.6,4-3.6h16.4c2.2,0,4,1.6,4,3.6v133.9
		C251.9,198.7,250.1,200.3,247.9,200.3z"/>
	
		<radialGradient id="XMLID_3_" cx="239.5531" cy="-16251.7471" r="49.4382" gradientTransform="matrix(1 0 0 -1 0 -16122)" gradientUnits="userSpaceOnUse">
		<stop  offset="0" style="stop-color:#D6D5D5"/>
		<stop  offset="0.3213" style="stop-color:#D4D3D2"/>
		<stop  offset="0.5416" style="stop-color:#CCCACA"/>
		<stop  offset="0.7315" style="stop-color:#BEBDBD"/>
		<stop  offset="0.9032" style="stop-color:#ACABAB"/>
		<stop  offset="1" style="stop-color:#9F9E9E"/>
	</radialGradient>
	<path id="XMLID_47_" class="st2" d="M246.8,198.8h-14.4c-1.9,0-3.5-1.6-3.5-3.5V64.1c0-1.9,1.6-3.5,3.5-3.5h14.3
		c1.9,0,3.5,1.6,3.5,3.5v131.1C250.3,197.2,248.7,198.8,246.8,198.8z"/>
</g>
</svg>
