<?xml version="1.0" encoding="utf-8"?>
<!-- Generator: Adobe Illustrator 19.0.0, SVG Export Plug-In . SVG Version: 6.00 Build 0)  -->
<svg version="1.0" xmlns="http://www.w3.org/2000/svg" xmlns:xlink="http://www.w3.org/1999/xlink" x="0px" y="0px"
	 viewBox="0 0 300 200" style="enable-background:new 0 0 300 200;" xml:space="preserve">
<style type="text/css">
	.st0{display:none;}
	.st1{display:inline;}
	.st2{opacity:0.25;fill:#030405;enable-background:new    ;}
	.st3{fill:url(#XMLID_65_);stroke:#3B1913;stroke-width:3;stroke-miterlimit:10;}
	.st4{fill:url(#XMLID_66_);stroke:#3B1913;stroke-width:3;stroke-miterlimit:10;}
	.st5{opacity:0.25;}
	.st6{fill:#030405;}
	.st7{fill:url(#XMLID_67_);}
	.st8{fill:none;stroke:#3C1912;stroke-width:3;stroke-miterlimit:10;}
	.st9{fill:#FFFFFF;}
	.st10{fill:#F8EAD3;stroke:#371B0F;stroke-width:3;stroke-miterlimit:10;}
	.st11{fill:#FCF3DE;}
	.st12{fill:#FFFAEB;}
	.st13{fill:none;stroke:#371B0F;stroke-width:2;stroke-miterlimit:10;}
	.st14{fill:#AE5E36;}
	.st15{fill:#893D14;}
	.st16{fill:#7C2C11;}
	.st17{fill:#E23F15;}
</style>
<g id="Calque_1" class="st0">
	<g id="Calque_39" class="st1">
		<path id="XMLID_263_" class="st2" d="M228.9,190.4l25.2,7.3c2.7,0.8,11.9,2.4,13.7,0.3c1.1-1.3-6.5-7.3-7.9-8.1l-8-6.3
			c-2.1-2.2-3.5-4.2,0.9-6.3l8.1-1.1c6.1-0.7,13.4-0.3,13.2-2c-0.4-2.8-8.9-4.3-11.7-5.1l-25.2-7.3c-5.1-1.5-10.5,1.7-12,7l-2.7,9.3
			c-0.8,2.8-2.4,6.6-1.1,8.9C222.6,189,226.6,189.7,228.9,190.4z"/>
		
			<linearGradient id="XMLID_65_" gradientUnits="userSpaceOnUse" x1="270.2985" y1="17098.7852" x2="217.1029" y2="17098.7852" gradientTransform="matrix(1 0 0 1 0 -16923.8906)">
			<stop  offset="0" style="stop-color:#EB5959"/>
			<stop  offset="8.947212e-002" style="stop-color:#D74746"/>
			<stop  offset="0.2307" style="stop-color:#BE3532"/>
			<stop  offset="0.3825" style="stop-color:#AC2A23"/>
			<stop  offset="0.5477" style="stop-color:#9F211D"/>
			<stop  offset="0.7363" style="stop-color:#981C1A"/>
			<stop  offset="1" style="stop-color:#951919"/>
		</linearGradient>
		<path id="XMLID_262_" class="st3" d="M225.1,185.1l25.2,7.3c2.7,0.8,11.9,2.4,13.7,0.3c1.1-1.3-6.5-7.3-7.9-8.1l-8-6.3
			c-2.1-2.2-3.5-4.2,0.9-6.3l8.1-1.1c6.1-0.7,13.4-0.3,13.2-2c-0.4-2.8-8.9-4.3-11.7-5.1l-25.2-7.3c-5.1-1.5-10.5,1.7-12,7l-2.7,9.3
			c-0.8,2.8-2.4,6.6-1.1,8.9C218.8,183.7,222.8,184.4,225.1,185.1z"/>
		<path id="XMLID_261_" class="st2" d="M70.9,189.5l-25.1,7.3c-2.7,0.8-11.9,2.4-13.7,0.3c-1.1-1.3,6.5-7.3,7.9-8.1l8-6.3
			c2.1-2.2,3.5-4.2-0.9-6.3l-8.1-1.1c-6.1-0.7-13.4-0.3-13.2-2c0.4-2.8,8.9-4.3,11.7-5.1l25.2-7.3c5.1-1.5,10.5,1.7,12,7l2.7,9.3
			c0.8,2.8,2.4,6.6,1.1,8.9C77.3,188.2,73.4,188.8,70.9,189.5z"/>
		
			<linearGradient id="XMLID_66_" gradientUnits="userSpaceOnUse" x1="239.139" y1="26.115" x2="185.9434" y2="26.115" gradientTransform="matrix(-1 0 0 -1 268.7847 200.11)">
			<stop  offset="0" style="stop-color:#EB5959"/>
			<stop  offset="8.947212e-002" style="stop-color:#D74746"/>
			<stop  offset="0.2307" style="stop-color:#BE3532"/>
			<stop  offset="0.3825" style="stop-color:#AC2A23"/>
			<stop  offset="0.5477" style="stop-color:#9F211D"/>
			<stop  offset="0.7363" style="stop-color:#981C1A"/>
			<stop  offset="1" style="stop-color:#951919"/>
		</linearGradient>
		<path id="XMLID_260_" class="st4" d="M74.8,184.2l-25.2,7.3c-2.7,0.8-11.9,2.4-13.7,0.3c-1.1-1.3,6.5-7.3,7.9-8.1l8-6.3
			c2.1-2.2,3.5-4.2-0.9-6.3l-8.1-1.1c-6.1-0.7-13.4-0.3-13.2-2c0.4-2.8,8.9-4.3,11.7-5.1l25.2-7.3c5.1-1.5,10.5,1.7,12,7l2.7,9.3
			c0.8,2.8,2.4,6.6,1.1,8.9C81.1,182.8,77.3,183.5,74.8,184.2z"/>
		<g id="XMLID_257_" class="st5">
			<path id="XMLID_271_" class="st6" d="M224.6,181.6c-48.7-22.7-100.1-22.7-148.8,0c-6.4,3-13.4-2.7-15.5-13.3
				c-1-5.2-2-10.2-3-15.5c-2.1-10.6,2.1-22.3,9.5-25.9c54.5-25.4,112.2-25.4,166.7,0c7.3,3.4,11.6,15.3,9.5,25.9
				c-1,5.2-2,10.2-3,15.5C238.1,178.7,231.1,184.4,224.6,181.6z"/>
		</g>
		<g id="XMLID_34_">
			
				<radialGradient id="XMLID_67_" cx="150.3" cy="76.1047" r="67.8625" gradientTransform="matrix(1 0 0 -1.6795 0 266.5517)" gradientUnits="userSpaceOnUse">
				<stop  offset="0" style="stop-color:#EB5959"/>
				<stop  offset="1" style="stop-color:#951919"/>
			</radialGradient>
			<path id="XMLID_51_" class="st7" d="M225.3,174c-49-22.8-100.8-22.8-149.8,0c-6.4,3-13.4-2.7-15.5-13.3
				c-0.9-4.5-1.7-8.9-2.6-13.4c-2.1-10.6,2.1-22.3,9.4-25.9c54.7-25.5,112.4-25.5,167.1,0c7.3,3.4,11.5,15.3,9.4,25.9
				c-0.9,4.5-1.7,8.9-2.6,13.4C238.6,171.3,231.6,177.1,225.3,174z"/>
			<path id="XMLID_50_" class="st8" d="M225.3,174c-49-22.8-100.8-22.8-149.8,0c-6.4,3-13.4-2.7-15.5-13.3
				c-0.9-4.5-1.7-8.9-2.6-13.4c-2.1-10.6,2.1-22.3,9.4-25.9c54.7-25.5,112.4-25.5,167.1,0c7.3,3.4,11.5,15.3,9.4,25.9
				c-0.9,4.5-1.7,8.9-2.6,13.4C238.6,171.3,231.6,177.1,225.3,174z"/>
		</g>
		<g id="XMLID_7_">
			<g id="XMLID_19_">
				<path id="XMLID_89_" class="st9" d="M117.3,148.6c-6,0.5-9,0.8-15,1.6c1-6.2,1.5-9.3,2.6-15.5c4-0.5,6-0.7,10-1
					C115.9,139.7,116.3,142.7,117.3,148.6z M111.1,138.4c-1,0.1-1.5,0.2-2.6,0.3c-0.5,2.6-0.7,4-1.2,6.6c1.9-0.2,2.9-0.3,4.8-0.5
					C111.7,142.2,111.5,140.9,111.1,138.4z"/>
				<path id="XMLID_87_" class="st9" d="M132.8,132.6c0.1,1.7,0.1,2.6,0.2,4.3c-3.2,0.1-4.7,0.2-7.9,0.4c-0.1,0.4-0.2,0.7-0.3,1.1
					c3.3-0.2,4.9-0.3,8.2-0.4c0.1,1.7,0.1,2.6,0.2,4.3c-3.7,0.2-5.6,0.3-9.3,0.5c-0.1,0.4-0.1,0.7-0.2,1.1c3.9-0.3,5.8-0.4,9.6-0.5
					c0.1,1.7,0.1,2.6,0.2,4.3c-6,0.2-9,0.4-15,0.9c1.2-6.1,1.9-9.2,3.2-15.3C126.1,132.9,128.3,132.8,132.8,132.6z"/>
				<path id="XMLID_85_" class="st9" d="M149.6,132.3c0,1.7,0,2.6,0,4.3c-3.2,0-4.7,0-7.9,0.1c-0.1,0.4-0.2,0.6-0.3,1.1
					c3.3-0.1,4.9-0.1,8.2-0.1c0,1.7,0,2.6,0,4.3c-3.7,0-5.6,0-9.4,0.1c-0.6,2.2-0.9,3.2-1.4,5.4c-1.7,0-2.6,0.1-4.3,0.1
					c1.5-6.1,2.3-9.1,3.9-15.2C142.9,132.3,145.1,132.2,149.6,132.3z"/>
				<path id="XMLID_83_" class="st9" d="M166.4,132.7c-0.1,1.7-0.1,2.6-0.2,4.3c-3.2-0.1-4.7-0.2-7.9-0.3c-0.1,0.4-0.2,0.6-0.3,1.1
					c3.3,0.1,4.9,0.1,8.2,0.3c-0.1,1.7-0.1,2.6-0.2,4.3c-3.7-0.2-5.6-0.2-9.4-0.3c-0.1,0.4-0.2,0.6-0.3,1.1c3.9,0.1,5.8,0.1,9.6,0.3
					c-0.1,1.7-0.1,2.6-0.2,4.3c-6-0.3-9-0.4-15.1-0.4c1.8-6,2.7-9,4.6-15C159.7,132.4,161.9,132.5,166.4,132.7z"/>
				<path id="XMLID_80_" class="st9" d="M183.1,133.8c-0.5,6-0.8,9-1.4,15c-1.7-0.2-2.6-0.2-4.3-0.4c0.1-1.3,0.1-1.9,0.2-3.2
					c-2.2-0.2-3.3-0.3-5.6-0.4c-0.5,1.3-0.7,1.9-1.1,3.2c-1.7-0.1-2.6-0.2-4.3-0.2c2-5.9,3-8.9,5.2-14.8
					C176.4,133.2,178.7,133.4,183.1,133.8z M178.1,140.9c0.1-1.3,0.2-1.9,0.3-3.2c-1.4-0.1-2.1-0.2-3.5-0.3
					c-0.5,1.3-0.7,1.9-1.2,3.2C175.4,140.7,176.3,140.8,178.1,140.9z"/>
				<path id="XMLID_78_" class="st9" d="M196.5,135.3c-0.2,1.7-0.3,2.6-0.5,4.3c-1.3-0.2-2-0.2-3.3-0.4c-1.4,4.2-2.1,6.2-3.4,10.4
					c-1.7-0.2-2.6-0.3-4.3-0.5c1.3-4.2,1.9-6.3,3.3-10.5c-1.8-0.2-2.6-0.3-4.4-0.4c1-1.6,1.6-2.4,2.6-4.1
					C190.5,134.5,192.5,134.8,196.5,135.3z"/>
			</g>
		</g>
	</g>
	<g id="Calque_3_-_copie" class="st1">
		<path id="XMLID_76_" class="st10" d="M231.7,39.9c-31.3-7.5-75.4,20.5-63,57.4c6.5,19.3,38.5,30.4,50.9,32.6l1.6,1.1
			c1.9,1.5,4.5,4.9,5.9,5.2c0.9,0.2,2-0.5,2.3-1.5c0.3-0.9,0.6-2,0.6-3.1c0-0.4,0-0.8,0-1.2c0,0,1.3,4.8,3,4
			c1.7-0.7,3.9-2.7,3.6-6.2c0,0,0.6,4.2,3.6,3.1c2.9-1.1,2.5-5.9,2.5-5.9s0.4,4.7,2.8,3.6c2.2-1,1.7-4.4,1.7-4.9c0,0,0-0.1,0-0.1
			s0,0,0,0.1c0,0.2,0.2,0.9,0.4,1.6c0.2,0.4,0.4,0.9,0.7,1.3c0.4,0.5,1.1,0.5,1.7-0.1c1.2-1.2,2-3,2-4.7l0-1.9
			c4.9-7,12.1-17,12.7-29.6C265.6,69.3,253.4,45.1,231.7,39.9z"/>
		<path id="XMLID_75_" class="st11" d="M263.5,88.2c-0.7,16-10.4,30.8-24.3,36c-17.4,6.5-60.9-7.6-68.6-31.7
			c-10.2-31.9,32.8-54.3,61.4-48.3C252.4,48.4,264.3,69.2,263.5,88.2z"/>
		<path id="XMLID_42_" class="st12" d="M261.9,85c-0.5,15.1-9.9,28.9-23.2,33.2c-16.6,5.4-58.5-9.1-65.1-31.6
			C165,57.7,206,38.7,232,44.2C251.1,48.2,262.5,67.3,261.9,85z"/>
		<path id="XMLID_74_" class="st9" d="M216.4,62.7c-3.9,3-9,2.6-11.5-1.2c-2.6-4-1.2-10.1,3.2-13.2c4.3-3,9.5-1.9,11.6,2.2
			C221.7,54.4,220.2,59.7,216.4,62.7z"/>
		<g id="Calque_7_-_copie_2_1_">
			<path id="XMLID_48_" class="st13" d="M239.8,105.3l0.3,1.6c0,0.2,0,0.4,0,0.6l-0.1,1.2c0,0.6,0.5,0.9,1,0.8l0.7-0.3
				c0.5-0.2,1-0.4,1.6-0.4l0.7-0.1c0.8-0.2,1.1-1.4,0.5-1.9l-1.2-0.8c-0.2-0.1-0.4-0.3-0.6-0.5l-1.4-1.3
				C240.6,103.6,239.7,104.4,239.8,105.3z"/>
			<path id="XMLID_46_" class="st14" d="M239.8,105.3l0.3,1.6c0,0.2,0,0.4,0,0.6l-0.1,1.2c0,0.6,0.5,0.9,1,0.8l0.7-0.3
				c0.5-0.2,1-0.4,1.6-0.4l0.7-0.1c0.8-0.2,1.1-1.4,0.5-1.9l-1.2-0.8c-0.2-0.1-0.4-0.3-0.6-0.5l-1.4-1.3
				C240.6,103.6,239.7,104.4,239.8,105.3z"/>
			<path id="XMLID_45_" class="st15" d="M241.7,109.2l-0.7,0.3c-0.5,0.1-0.9-0.2-1-0.8l0.1-1.2c0-0.2,0-0.4,0-0.6l-0.2-1
				c0.7,0.5,0.9,1.7,1.8,2.1c0.9,0.4,2.4,0,3,0.2c-0.1,0.3-0.4,0.5-0.7,0.6l-0.7,0.1C242.8,108.8,242.2,109,241.7,109.2z"/>
		</g>
		<g id="Calque_7_-_copie_2">
			<path id="XMLID_54_" class="st13" d="M235.2,106.4l0,1.7c0,0.2,0,0.4,0.1,0.6l0.3,1.2c0.1,0.6-0.3,1.2-0.8,1.3l-0.8,0.1
				c-0.6,0.1-1.2,0.2-1.8,0.5l-0.8,0.3c-0.9,0.2-1.5-0.9-0.9-1.7l1.3-1.6c0.2-0.3,0.4-0.5,0.6-0.8l1.2-2
				C234,105.1,235.1,105.4,235.2,106.4z"/>
			<path id="XMLID_53_" class="st14" d="M235.2,106.4l0,1.7c0,0.2,0,0.4,0.1,0.6l0.3,1.2c0.1,0.6-0.3,1.2-0.8,1.3l-0.8,0.1
				c-0.6,0.1-1.2,0.2-1.8,0.5l-0.8,0.3c-0.9,0.2-1.5-0.9-0.9-1.7l1.3-1.6c0.2-0.3,0.4-0.5,0.6-0.8l1.2-2
				C234,105.1,235.1,105.4,235.2,106.4z"/>
			<path id="XMLID_52_" class="st15" d="M233.9,111.3l0.8-0.1c0.5-0.1,0.9-0.7,0.8-1.3l-0.3-1.2c0-0.2-0.1-0.4-0.1-0.6l0-1.1
				c-0.6,0.9-0.6,2.2-1.5,3c-0.9,0.9-2.7,1.3-3.3,1.9c0.2,0.2,0.5,0.3,0.9,0.3l0.8-0.3C232.7,111.5,233.3,111.4,233.9,111.3z"/>
		</g>
		<g id="Calque_5_-_copie_2_1_">
			<path id="XMLID_41_" class="st14" d="M225.9,90.7c0.9,6.7-2.5,12.7-8.1,13.7c-5.9,1.2-12.6-3.6-14.5-11.2
				c-2.1-8.2,2.3-15.5,9.3-15.7C219.1,77.4,224.9,83.5,225.9,90.7z"/>
			<path id="XMLID_40_" class="st15" d="M206.9,96.8c0.6,2.5,2.3,4.5,3.7,6.3c2.3,1.3,4.8,1.8,7.2,1.3c5.5-1.1,9-7,8.1-13.7
				c-0.7-4.7-3.3-8.8-6.8-11.2c-0.4,0-0.7,0-1.1,0c-3,0.1-6.1,0.8-8,3c-2.1,2.4-3.9,5.4-3.9,9.2C206,93.1,206.6,95.4,206.9,96.8z"/>
			<path id="XMLID_39_" class="st16" d="M225.9,90.7c-0.1-0.5-0.2-1-0.3-1.5c-1.7-2-4-3.3-6.5-3.1c-2.5,0.2-5.4,0.4-6.5,2.8
				c-0.9,1.9-0.4,5.5,0.1,7.8c0.8,3.8,3.4,6.6,6.4,7.4C223.8,102.4,226.7,96.9,225.9,90.7z"/>
			<path id="XMLID_38_" class="st13" d="M225.9,90.7c0.9,6.7-2.5,12.7-8.1,13.7c-5.9,1.2-12.6-3.6-14.5-11.2
				c-2.1-8.2,2.3-15.5,9.3-15.7C219.1,77.4,224.9,83.5,225.9,90.7z"/>
		</g>
		<g id="Calque_5_-_copie_2">
			<path id="XMLID_14_" class="st14" d="M244.2,88.6c0.3,6,3.6,9.9,7.3,9.2c3.4-0.7,6.1-5.4,6.2-10.8c0.1-5.7-2.7-10.5-6.5-10.4
				C247.1,76.8,243.9,82.3,244.2,88.6z"/>
			<path id="XMLID_13_" class="st15" d="M256.4,90.1c0,1.8-0.6,3.5-1.1,5.1c-1,1.4-2.3,2.4-3.8,2.7c-3.6,0.7-7-3.3-7.3-9.2
				c-0.2-4.1,1.1-7.9,3.2-10.1c0.2,0,0.5-0.1,0.7-0.1c1.9-0.1,3.8,0.3,5.1,1.8c1.4,1.6,2.6,3.5,3,6.1
				C256.4,87.3,256.4,89,256.4,90.1z"/>
			<path id="XMLID_12_" class="st16" d="M244.2,88.6c0-0.5,0-0.9,0-1.4c0.9-2,2.4-3.3,4.1-3.4c1.6-0.1,3.3-0.3,4.2,1.4
				c0.7,1.3,0.8,4,0.9,5.8c0,2.9-1.1,5.6-2.7,7C247.4,98,244.5,94.1,244.2,88.6z"/>
			<path id="XMLID_11_" class="st13" d="M244.2,88.6c0.3,6,3.6,9.9,7.3,9.2c3.4-0.7,6.1-5.4,6.2-10.8c0.1-5.7-2.7-10.5-6.5-10.4
				C247.1,76.8,243.9,82.3,244.2,88.6z"/>
		</g>
	</g>
	<g id="Calque_3_-_copie_2" class="st1">
		<path id="XMLID_59_" class="st10" d="M62.5,39.9c31.3-7.5,75.4,20.5,63,57.4c-6.5,19.3-38.5,30.4-50.9,32.6L73,131
			c-1.9,1.5-4.5,4.9-5.9,5.2c-0.9,0.2-2-0.5-2.3-1.5c-0.3-0.9-0.6-2-0.6-3.1c0-0.4,0-0.8,0-1.2c0,0-1.3,4.8-3,4
			c-1.7-0.7-3.9-2.7-3.6-6.2c0,0-0.6,4.2-3.6,3.1c-2.9-1.1-2.5-5.9-2.5-5.9s-0.4,4.7-2.8,3.6c-2.2-1-1.7-4.4-1.7-4.9
			c0,0,0-0.1,0-0.1s0,0,0,0.1c0,0.2-0.2,0.9-0.4,1.6c-0.2,0.4-0.4,0.9-0.7,1.3c-0.4,0.5-1.1,0.5-1.7-0.1c-1.2-1.2-2-3-2-4.7l0-1.9
			c-4.9-7-12.1-17-12.7-29.6C28.5,69.3,40.8,45.1,62.5,39.9z"/>
		<path id="XMLID_58_" class="st11" d="M30.7,88.2c0.7,16,10.4,30.8,24.3,36c17.4,6.5,60.9-7.6,68.6-31.7
			c10.2-31.9-32.8-54.3-61.4-48.3C41.7,48.4,29.9,69.2,30.7,88.2z"/>
		<path id="XMLID_57_" class="st12" d="M32.2,85c0.5,15.1,9.9,28.9,23.2,33.2c16.6,5.4,58.5-9.1,65.1-31.6
			c8.6-28.9-32.5-47.9-58.5-42.5C43.1,48.2,31.6,67.3,32.2,85z"/>
		<path id="XMLID_56_" class="st9" d="M77.7,62.7c3.9,3,9,2.6,11.5-1.2c2.6-4,1.2-10.1-3.2-13.2c-4.3-3-9.5-1.9-11.6,2.2
			C72.5,54.4,73.9,59.7,77.7,62.7z"/>
		<g id="Calque_7_-_copie_3_1_">
			<path id="XMLID_55_" class="st13" d="M54.3,105.3l-0.3,1.6c0,0.2,0,0.4,0,0.6l0.1,1.2c0,0.6-0.5,0.9-1,0.8l-0.7-0.3
				c-0.5-0.2-1-0.4-1.6-0.4l-0.7-0.1c-0.8-0.2-1.1-1.4-0.5-1.9l1.2-0.8c0.2-0.1,0.4-0.3,0.6-0.5l1.4-1.3
				C53.5,103.6,54.4,104.4,54.3,105.3z"/>
			<path id="XMLID_49_" class="st14" d="M54.3,105.3l-0.3,1.6c0,0.2,0,0.4,0,0.6l0.1,1.2c0,0.6-0.5,0.9-1,0.8l-0.7-0.3
				c-0.5-0.2-1-0.4-1.6-0.4l-0.7-0.1c-0.8-0.2-1.1-1.4-0.5-1.9l1.2-0.8c0.2-0.1,0.4-0.3,0.6-0.5l1.4-1.3
				C53.5,103.6,54.4,104.4,54.3,105.3z"/>
			<path id="XMLID_44_" class="st15" d="M52.4,109.2l0.7,0.3c0.5,0.1,0.9-0.2,1-0.8l-0.1-1.2c0-0.2,0-0.4,0-0.6l0.2-1
				c-0.7,0.5-0.9,1.7-1.8,2.1c-0.9,0.4-2.4,0-3,0.2c0.1,0.3,0.4,0.5,0.7,0.6l0.7,0.1C51.4,108.8,51.9,109,52.4,109.2z"/>
		</g>
		<g id="Calque_7_-_copie_3">
			<path id="XMLID_98_" class="st13" d="M58.9,106.4l0,1.7c0,0.2,0,0.4-0.1,0.6l-0.3,1.2c-0.1,0.6,0.3,1.2,0.8,1.3l0.8,0.1
				c0.6,0.1,1.2,0.2,1.8,0.5l0.8,0.3c0.9,0.2,1.5-0.9,0.9-1.7l-1.3-1.6c-0.2-0.3-0.4-0.5-0.6-0.8l-1.2-2
				C60.1,105.1,59,105.4,58.9,106.4z"/>
			<path id="XMLID_97_" class="st14" d="M58.9,106.4l0,1.7c0,0.2,0,0.4-0.1,0.6l-0.3,1.2c-0.1,0.6,0.3,1.2,0.8,1.3l0.8,0.1
				c0.6,0.1,1.2,0.2,1.8,0.5l0.8,0.3c0.9,0.2,1.5-0.9,0.9-1.7l-1.3-1.6c-0.2-0.3-0.4-0.5-0.6-0.8l-1.2-2
				C60.1,105.1,59,105.4,58.9,106.4z"/>
			<path id="XMLID_96_" class="st15" d="M60.2,111.3l-0.8-0.1c-0.5-0.1-0.9-0.7-0.8-1.3l0.3-1.2c0-0.2,0.1-0.4,0.1-0.6l0-1.1
				c0.6,0.9,0.6,2.2,1.5,3c0.9,0.9,2.7,1.3,3.3,1.9c-0.2,0.2-0.5,0.3-0.9,0.3l-0.8-0.3C61.4,111.5,60.8,111.4,60.2,111.3z"/>
		</g>
		<g id="Calque_5_-_copie_3_1_">
			<path id="XMLID_23_" class="st14" d="M68.3,90.7c-0.9,6.7,2.5,12.7,8.1,13.7c5.9,1.2,12.6-3.6,14.5-11.2
				c2.1-8.2-2.3-15.5-9.3-15.7C75,77.4,69.3,83.5,68.3,90.7z"/>
			<path id="XMLID_20_" class="st15" d="M87.2,96.8c-0.6,2.5-2.3,4.5-3.7,6.3c-2.3,1.3-4.8,1.8-7.2,1.3c-5.5-1.1-9-7-8.1-13.7
				c0.7-4.7,3.3-8.8,6.8-11.2c0.4,0,0.7,0,1.1,0c3,0.1,6.1,0.8,8,3c2.1,2.4,3.9,5.4,3.9,9.2C88.2,93.1,87.5,95.4,87.2,96.8z"/>
			<path id="XMLID_16_" class="st16" d="M68.3,90.7c0.1-0.5,0.2-1,0.3-1.5c1.7-2,4-3.3,6.5-3.1c2.5,0.2,5.4,0.4,6.5,2.8
				c0.9,1.9,0.4,5.5-0.1,7.8c-0.8,3.8-3.4,6.6-6.4,7.4C70.3,102.4,67.4,96.9,68.3,90.7z"/>
			<path id="XMLID_15_" class="st13" d="M68.3,90.7c-0.9,6.7,2.5,12.7,8.1,13.7c5.9,1.2,12.6-3.6,14.5-11.2
				c2.1-8.2-2.3-15.5-9.3-15.7C75,77.4,69.3,83.5,68.3,90.7z"/>
		</g>
		<g id="Calque_5_-_copie_3">
			<path id="XMLID_61_" class="st14" d="M49.9,88.6c-0.3,6-3.6,9.9-7.3,9.2c-3.4-0.7-6.1-5.4-6.2-10.8c-0.1-5.7,2.7-10.5,6.5-10.4
				C47,76.8,50.2,82.3,49.9,88.6z"/>
			<path id="XMLID_60_" class="st15" d="M37.8,90.1c0,1.8,0.6,3.5,1.1,5.1c1,1.4,2.3,2.4,3.8,2.7c3.6,0.7,7-3.3,7.3-9.2
				c0.2-4.1-1.1-7.9-3.2-10.1c-0.2,0-0.5-0.1-0.7-0.1c-1.9-0.1-3.8,0.3-5.1,1.8c-1.4,1.6-2.6,3.5-3,6.1C37.7,87.3,37.8,89,37.8,90.1
				z"/>
			<path id="XMLID_43_" class="st16" d="M49.9,88.6c0-0.5,0-0.9,0-1.4c-0.9-2-2.4-3.3-4.1-3.4c-1.6-0.1-3.3-0.3-4.2,1.4
				c-0.7,1.3-0.8,4-0.9,5.8c0,2.9,1.1,5.6,2.7,7C46.7,98,49.6,94.1,49.9,88.6z"/>
			<path id="XMLID_35_" class="st13" d="M49.9,88.6c-0.3,6-3.6,9.9-7.3,9.2c-3.4-0.7-6.1-5.4-6.2-10.8c-0.1-5.7,2.7-10.5,6.5-10.4
				C47,76.8,50.2,82.3,49.9,88.6z"/>
		</g>
	</g>
	<g id="Calque_3" class="st1">
		<path id="XMLID_24_" class="st10" d="M147.2,10.4c-31.9,0-57.8,25.9-57.8,57.8c0,22,14.4,36.8,30.4,46.7v4.3
			c0,2.8,1.4,5.4,3.5,6.9c1.4,1.1,3.4,0.6,4.2-1c0.7-1.4,1.4-3.2,1.8-5c0.1-0.7,0.2-1.4,0.2-2.1c0,0,1,9.3,4.2,9.3s7.8-1.9,7.8-8.5
			c0,0,0.4,8.2,6.4,8.5c6,0.3,5.9-9.3,5.9-9.3s0.1,9.2,5.5,9.1c5.1-0.1,4.3-7.3,4.2-8.2c0-0.1,0-0.1,0-0.1s0,0,0,0.1
			c0.1,0.4,0.3,1.8,0.8,3.6c0.3,1,0.8,2.2,1.4,3.2c0.8,1.4,2.5,2,3.9,1.3c3-1.4,5.1-4.4,5.1-7.9v-3.8c12.1-10.2,30.4-25.2,30.4-47.2
			C204.9,36.3,179.1,10.4,147.2,10.4z"/>
		<ellipse id="XMLID_4_" class="st11" cx="147.2" cy="63.8" rx="54.7" ry="49.8"/>
		<ellipse id="XMLID_21_" class="st12" cx="147.2" cy="58.6" rx="50.5" ry="44.6"/>
		
			<ellipse id="XMLID_22_" transform="matrix(0.504 0.8637 -0.8637 0.504 89.5487 -96.9849)" class="st9" cx="129.2" cy="29.5" rx="7" ry="10.9"/>
		<g id="Calque_7">
			<path id="XMLID_10_" class="st13" d="M151.2,83.4l0.3,2.4c0,0.3,0,0.6,0,0.9l-0.3,1.8c0,0.9,0.7,1.6,1.6,1.6l1.3-0.2
				c1-0.1,2-0.1,3,0l1.3,0.2c1.5,0,2.2-1.8,1.1-2.9l-2.3-1.8c-0.4-0.3-0.7-0.6-1.1-1l-2.3-2.5C152.9,81.2,151.2,82,151.2,83.4z"/>
			<path id="XMLID_5_" class="st14" d="M151.2,83.4l0.3,2.4c0,0.3,0,0.6,0,0.9l-0.3,1.8c0,0.9,0.7,1.6,1.6,1.6l1.3-0.2
				c1-0.1,2-0.1,3,0l1.3,0.2c1.5,0,2.2-1.8,1.1-2.9l-2.3-1.8c-0.4-0.3-0.7-0.6-1.1-1l-2.3-2.5C152.9,81.2,151.2,82,151.2,83.4z"/>
			<path id="XMLID_25_" class="st15" d="M154.1,90.1l-1.3,0.2c-0.9,0-1.6-0.7-1.6-1.6l0.3-1.8c0-0.3,0.1-0.6,0-0.9l-0.2-1.6
				c1.2,1,1.4,2.9,2.9,3.8c1.6,1,4.5,0.9,5.6,1.5c-0.3,0.4-0.7,0.7-1.3,0.7l-1.3-0.2C156.1,89.9,155.1,89.9,154.1,90.1z"/>
		</g>
		<g id="Calque_7_-_copie">
			<path id="XMLID_37_" class="st13" d="M143.1,83.4l-0.3,2.4c0,0.3,0,0.6,0,0.9l0.3,1.8c0,0.9-0.7,1.6-1.6,1.6l-1.3-0.2
				c-1-0.1-2-0.1-3,0l-1.3,0.2c-1.5,0-2.2-1.8-1.1-2.9l2.3-1.8c0.4-0.3,0.7-0.6,1.1-1l2.3-2.5C141.4,81.2,143.1,82,143.1,83.4z"/>
			<path id="XMLID_36_" class="st14" d="M143.1,83.4l-0.3,2.4c0,0.3,0,0.6,0,0.9l0.3,1.8c0,0.9-0.7,1.6-1.6,1.6l-1.3-0.2
				c-1-0.1-2-0.1-3,0l-1.3,0.2c-1.5,0-2.2-1.8-1.1-2.9l2.3-1.8c0.4-0.3,0.7-0.6,1.1-1l2.3-2.5C141.4,81.2,143.1,82,143.1,83.4z"/>
			<path id="XMLID_27_" class="st15" d="M140.1,90.1l1.3,0.2c0.9,0,1.6-0.7,1.6-1.6l-0.3-1.8c0-0.3-0.1-0.6,0-0.9l0.2-1.6
				c-1.2,1-1.4,2.9-2.9,3.8c-1.6,1-4.5,0.9-5.6,1.5c0.3,0.4,0.7,0.7,1.3,0.7l1.3-0.2C138.1,89.9,139.1,89.9,140.1,90.1z"/>
		</g>
		<g id="Calque_5">
			<ellipse id="XMLID_2_" class="st14" cx="118.4" cy="61" rx="13.5" ry="14.9"/>
			<path id="XMLID_29_" class="st15" d="M107.8,65.2c0,2.7,1.3,5.3,2.4,7.6c2.3,1.9,5.1,3.1,8.3,3.1c7.5,0,13.5-6.7,13.5-14.9
				c0-5.4-2.6-10.1-6.5-12.7c-0.4,0-0.9-0.1-1.3-0.1c-3.5,0-7.1,0.6-9.7,2.7c-2.8,2.2-5.4,5.1-6.3,8.8
				C107.7,61.1,107.8,63.7,107.8,65.2z"/>
			<path id="XMLID_31_" class="st16" d="M132,61c0-0.6,0-1.2-0.1-1.8c-1.8-2.5-4.6-4-7.7-4c-3,0-6.4,0-8.2,2.3
				c-1.5,1.9-1.7,5.8-1.7,8.4c0,4.4,2.4,8.2,5.9,9.8C126.8,74.9,132,68.6,132,61z"/>
			<ellipse id="XMLID_1_" class="st13" cx="118.4" cy="61" rx="13.5" ry="14.9"/>
		</g>
		<g id="Calque_5_-_copie">
			<ellipse id="XMLID_32_" class="st14" cx="174.4" cy="61" rx="13.5" ry="14.9"/>
			<path id="XMLID_30_" class="st15" d="M185.1,65.2c0,2.7-1.3,5.3-2.4,7.6c-2.3,1.9-5.1,3.1-8.3,3.1c-7.5,0-13.5-6.7-13.5-14.9
				c0-5.4,2.6-10.1,6.5-12.7c0.4,0,0.9-0.1,1.3-0.1c3.5,0,7.1,0.6,9.7,2.7c2.8,2.2,5.4,5.1,6.3,8.8
				C185.2,61.1,185.1,63.7,185.1,65.2z"/>
			<path id="XMLID_28_" class="st16" d="M160.9,61c0-0.6,0-1.2,0.1-1.8c1.8-2.5,4.6-4,7.7-4c3,0,6.4,0,8.2,2.3
				c1.5,1.9,1.7,5.8,1.7,8.4c0,4.4-2.4,8.2-5.9,9.8C166.1,74.9,160.9,68.6,160.9,61z"/>
			<ellipse id="XMLID_26_" class="st13" cx="174.4" cy="61" rx="13.5" ry="14.9"/>
		</g>
	</g>
</g>
<g id="Layer_17">
	<path id="XMLID_8_" class="st17" d="M174.1,67c0,2.8-1.8,5.1-4.1,5.1s-5.9-3.7-5.9-6.6s3.6-3.7,5.9-3.7S174.1,64.2,174.1,67z"/>
	<path id="XMLID_18_" class="st17" d="M119.1,67c0,2.8,1.8,5.1,4.1,5.1c2.3,0,5.9-3.7,5.9-6.6s-3.6-3.7-5.9-3.7
		C120.9,61.9,119.1,64.2,119.1,67z"/>
</g>
<g id="Layer_18">
	<path id="XMLID_62_" class="st17" d="M75.8,95.4c0.2,2.8-0.8,5.1-2.2,5.3c-1.4,0.2-3.8-3.1-4-5.9c-0.2-2.8,2-3.9,3.4-4.1
		C74.4,90.6,75.7,92.7,75.8,95.4z"/>
	<path id="XMLID_47_" class="st17" d="M43.3,91.8c-0.4,2.1,0.1,3.9,1.2,4s3.3-2.4,3.7-4.5c0.4-2.1-1.2-2.9-2.2-3.1
		C44.9,88.2,43.7,89.7,43.3,91.8z"/>
</g>
<g id="Layer_18_copy">
	<path id="XMLID_63_" class="st17" d="M218.2,95.4c-0.2,2.8,0.8,5.1,2.2,5.3c1.4,0.2,3.8-3.1,4-5.9c0.2-2.8-2-3.9-3.4-4.1
		S218.4,92.7,218.2,95.4z"/>
	<path id="XMLID_17_" class="st17" d="M250.7,91.8c0.4,2.1-0.1,3.9-1.2,4s-3.3-2.4-3.7-4.5c-0.4-2.1,1.2-2.9,2.2-3.1
		C249.2,88.2,250.3,89.7,250.7,91.8z"/>
</g>
</svg>
