<svg version="1.0" id="Calque_51" xmlns="http://www.w3.org/2000/svg" x="0" y="0" viewBox="0 0 100 150" style="enable-background:new 0 0 100 150" xml:space="preserve"><style>.st1,.st2,.st3{fill:none;stroke:#377eba;stroke-width:10;stroke-miterlimit:10}.st2,.st3{stroke:#337ebc}.st3{stroke:#73a5d8;stroke-width:8}.st4{fill:#71a4d8}</style><g id="Calque_5"><g id="Calque_6"><path id="XMLID_15_" class="st1" d="m59.9 64-5.7-9.8c-1.5-2.5-4.1-4.1-7.1-4.1H35.8c-2.9 0-5.6 1.6-7.1 4.1L23.1 64c-1.5 2.5-1.5 5.6 0 8.1l5.7 9.8c1.5 2.5 4.1 4.1 7.1 4.1h3.5c.4-.4.8-.8 1.3-1.1l.6-.3c-.3-1.2 10-16.5 11.4-17.4 1-.6 2.8-.3 3.8-.2 1.4-.4 2.9-.6 4.4-.5-.3-.9-.6-1.7-1-2.5z"/><path id="XMLID_14_" class="st2" d="m59.9 62.2-5.7-9.8c-1.5-2.5-4.1-4.1-7.1-4.1H35.8c-2.9 0-5.6 1.6-7.1 4.1L23 62.2c-1.5 2.5-1.5 5.6 0 8.1l5.7 9.8c1.5 2.5 4.1 4.1 7.1 4.1h5.3c-.2-1 9.6-16.7 11-17.6 1-.6 3.3.3 4.2.3 1.5-.4 3-.6 4.6-.5.1-1.4-.3-2.9-1-4.2z"/><path id="XMLID_16_" class="st3" d="m59.9 62.2-5.7-9.8c-1.5-2.5-4.1-4.1-7.1-4.1H35.8c-2.9 0-5.6 1.6-7.1 4.1L23 62.2c-1.5 2.5-1.5 5.6 0 8.1l5.7 9.8c1.5 2.5 4.1 4.1 7.1 4.1h5.3c-.2-1 9.8-16.3 11.2-17.2 1-.6 3.1-.2 4-.1 1.5-.4 3-.6 4.6-.5.1-1.4-.3-2.9-1-4.2z"/></g><path id="XMLID_12_" class="st4" d="M36.8 45.9h9.3v4.8h-9.3z"/></g><g id="Calque_5_-_copie"><g id="Calque_6_-_copie"><path id="XMLID_10_" class="st1" d="m48.4 100-5.7-9.8c-1.5-2.5-1.5-5.6 0-8.1l5.7-9.8c1.5-2.5 4.1-4.1 7.1-4.1h11.3c2.9 0 5.6 1.6 7.1 4.1l5.7 9.8c1.5 2.5 1.5 5.6 0 8.1l-5.7 9.8c-1.5 2.5-4.1 4.1-7.1 4.1H55.4c-2.9 0-5.6-1.6-7-4.1z"/><path id="XMLID_9_" class="st2" d="m48.4 98.2-5.7-9.8c-1.5-2.5-1.5-5.6 0-8.1l5.7-9.8c1.5-2.5 4.1-4.1 7.1-4.1h11.3c2.9 0 5.6 1.6 7.1 4.1l5.7 9.8c1.5 2.5 1.5 5.6 0 8.1l-5.7 9.8c-1.5 2.5-4.1 4.1-7.1 4.1H55.4c-2.9 0-5.6-1.5-7-4.1z"/><path id="XMLID_8_" class="st3" d="m48.4 98.2-5.7-9.8c-1.5-2.5-1.5-5.6 0-8.1l5.7-9.8c1.5-2.5 4.1-4.1 7.1-4.1h11.3c2.9 0 5.6 1.6 7.1 4.1l5.7 9.8c1.5 2.5 1.5 5.6 0 8.1l-5.7 9.8c-1.5 2.5-4.1 4.1-7.1 4.1H55.4c-2.9 0-5.6-1.5-7-4.1z"/></g><path id="XMLID_4_" class="st4" d="M56.4 64h9.3v4.8h-9.3z"/></g></svg>