<svg version="1.0" xmlns="http://www.w3.org/2000/svg" viewBox="0 0 24 24" style="enable-background:new 0 0 24 24" xml:space="preserve"><style>.st1{fill:#e2e2e2}.st7{fill:#675b47;stroke:#353535;stroke-width:.5;stroke-miterlimit:10}.st10,.st13{opacity:.5;fill:#fff}.st13{fill:#e5e5e5}</style><g id="Layer_1"><path id="XMLID_14_" d="M12 .3C5.5.3.3 5.5.3 12S5.5 23.7 12 23.7 23.7 18.5 23.7 12 18.5.3 12 .3zm0 20.6c-4.9 0-8.9-4-8.9-8.9s4-8.9 8.9-8.9 8.9 4 8.9 8.9-4 8.9-8.9 8.9z" style="fill:#353535"/><path id="XMLID_12_" class="st1" d="M12 1C5.9 1 1 5.9 1 12s4.9 11 11 11 11-4.9 11-11S18.1 1 12 1zm0 19.9c-4.9 0-8.9-4-8.9-8.9s4-8.9 8.9-8.9 8.9 4 8.9 8.9-4 8.9-8.9 8.9z"/><path id="XMLID_23_" class="st1" d="M12 2C6.5 2 2 6.5 2 12s4.5 10 10 10 10-4.5 10-10S17.5 2 12 2zm0 18.1c-4.5 0-8.1-3.6-8.1-8.1S7.5 3.9 12 3.9s8.1 3.6 8.1 8.1-3.6 8.1-8.1 8.1z"/><path id="XMLID_7_" d="M3.1 12c0-4.9 4-8.9 8.9-8.9 2.5 0 4.7 1 6.3 2.6L18 2.8C16.3 1.7 14.2 1 12 1 5.9 1 1 5.9 1 12c0 1.2.2 2.4.6 3.6l2.3.2c-.5-1.2-.8-2.5-.8-3.8z" style="fill:#f7f7f7"/><path id="XMLID_9_" d="M12 2.3c-5.4 0-9.8 4.4-9.8 9.8s4.4 9.8 9.8 9.8 9.8-4.4 9.8-9.8c0-5.5-4.4-9.8-9.8-9.8zm0 18.3c-4.8 0-8.6-3.9-8.6-8.6 0-4.8 3.9-8.6 8.6-8.6s8.6 3.9 8.6 8.6c0 4.8-3.8 8.6-8.6 8.6z" style="fill:#414042"/></g><g id="Layer_4"><g id="Layer_2"><path id="XMLID_112_" class="st7" d="m5.5 21.4 1.1-2.6-1.4-.5-.3-1.2-2.7.7.7 2.9z"/><radialGradient id="XMLID_27_" cx="-173.982" cy="-82.35" r="1.946" gradientTransform="scale(1 -1) rotate(42.431 -166.083 178.901)" gradientUnits="userSpaceOnUse"><stop offset="0" style="stop-color:#c5b798"/><stop offset=".343" style="stop-color:#c2b495"/><stop offset=".578" style="stop-color:#bbac8c"/><stop offset=".78" style="stop-color:#b0a07f"/><stop offset=".964" style="stop-color:#a2916e"/><stop offset="1" style="stop-color:#9f8e6a"/></radialGradient><path id="XMLID_100_" style="fill:url(#XMLID_27_)" d="m5.4 21.2-.3-.3-1.6-.7-.4.3.2-.4-.5-1.7-.3-.4.4.2 1.5-.4.2-.3-.1.4.3.7.3-.1-.2.2 1 .3.5-.1-.5.3-.7 1.6z"/><linearGradient id="XMLID_28_" gradientUnits="userSpaceOnUse" x1="-174.906" y1="-84.253" x2="-173.925" y2="-82.555" gradientTransform="scale(1 -1) rotate(42.431 -166.083 178.901)"><stop offset="0" style="stop-color:#fff"/><stop offset="1" style="stop-color:#fff;stop-opacity:0"/></linearGradient><path id="XMLID_99_" style="opacity:.5;fill:url(#XMLID_28_)" d="m5.4 21.2-.3-.3-1.7-.7.9-.8 1.5-.2-.6 1.6z"/><path id="XMLID_98_" class="st10" d="m3.8 20.3-.4-.1-.2.2.1-.2v-.3l.1.3z"/><path id="XMLID_97_" class="st10" d="m3 18.8-.2-.4-.2-.3.3.2.3-.1-.3.1z"/><path id="XMLID_96_" class="st10" d="m4.7 18.3-.3-.4h-.3l.3-.1.2-.2-.1.3z"/><path id="XMLID_95_" class="st10" d="m4.7 18.5.1.2.2-.2-.1.3.3.1-.4-.1z"/><path id="XMLID_94_" class="st10" d="m6.2 19-.3.2-.2.3.1-.3-.3-.2.4.1z"/><radialGradient id="XMLID_29_" cx="-174.103" cy="-82.401" r=".602" gradientTransform="scale(1 -1) rotate(42.431 -166.083 178.901)" gradientUnits="userSpaceOnUse"><stop offset="0" style="stop-color:#616263"/><stop offset=".321" style="stop-color:#606162"/><stop offset=".542" style="stop-color:#5c5d5e"/><stop offset=".732" style="stop-color:#565758"/><stop offset=".903" style="stop-color:#4e4f50"/><stop offset="1" style="stop-color:#48494a"/></radialGradient><circle id="XMLID_93_" cx="4.3" cy="19.4" r=".6" style="fill:url(#XMLID_29_)"/><radialGradient id="XMLID_30_" cx="-174.103" cy="-82.401" r=".359" gradientTransform="scale(1 -1) rotate(42.431 -166.083 178.901)" gradientUnits="userSpaceOnUse"><stop offset="0" style="stop-color:#aeafaf"/><stop offset=".321" style="stop-color:#acacad"/><stop offset=".542" style="stop-color:#a5a5a6"/><stop offset=".732" style="stop-color:#999a9a"/><stop offset=".903" style="stop-color:#8a8a8a"/><stop offset="1" style="stop-color:#7e7f7f"/></radialGradient><circle id="XMLID_92_" cx="4.3" cy="19.4" r=".4" style="fill:url(#XMLID_30_)"/><path id="XMLID_91_" class="st13" d="M4.5 19.6c-.1.1-.2.1-.3.1.1 0 .1 0 .1-.1.1-.1.1-.3 0-.4 0 0-.1-.1-.2-.1.1 0 .2 0 .3.1.2.1.2.3.1.4z"/></g><g id="Layer_2_copy"><path id="XMLID_22_" class="st7" d="m18.6 21.4-1.1-2.6 1.4-.5.4-1.2 2.7.7-.8 2.9z"/><radialGradient id="XMLID_31_" cx="-185.024" cy="-72.257" r="1.946" gradientTransform="rotate(-137.57 -64.858 -66.252)" gradientUnits="userSpaceOnUse"><stop offset="0" style="stop-color:#c5b798"/><stop offset=".343" style="stop-color:#c2b495"/><stop offset=".578" style="stop-color:#bbac8c"/><stop offset=".78" style="stop-color:#b0a07f"/><stop offset=".964" style="stop-color:#a2916e"/><stop offset="1" style="stop-color:#9f8e6a"/></radialGradient><path id="XMLID_21_" style="fill:url(#XMLID_31_)" d="m18.7 21.2.3-.3 1.7-.7.3.3-.2-.4.5-1.7.3-.4-.4.2-1.4-.4-.3-.3.1.4-.3.7-.2-.1.1.2-1 .3-.4-.1.4.3.7 1.6z"/><linearGradient id="XMLID_32_" gradientUnits="userSpaceOnUse" x1="-185.947" y1="-74.161" x2="-184.966" y2="-72.462" gradientTransform="rotate(-137.57 -64.858 -66.252)"><stop offset="0" style="stop-color:#fff"/><stop offset="1" style="stop-color:#fff;stop-opacity:0"/></linearGradient><path id="XMLID_20_" style="opacity:.5;fill:url(#XMLID_32_)" d="m18.7 21.2.3-.3 1.7-.7-.8-.8-1.5-.2.6 1.6z"/><path id="XMLID_19_" class="st10" d="m20.4 20.3.3-.1.3.2-.2-.2.1-.3-.2.3z"/><path id="XMLID_18_" class="st10" d="m21.1 18.8.2-.4.2-.3-.2.2-.4-.1.3.1z"/><path id="XMLID_17_" class="st10" d="m19.5 18.3.2-.4h.3l-.3-.1-.1-.2v.3z"/><path id="XMLID_16_" class="st10" d="m19.4 18.5-.1.2-.2-.2.1.3-.2.1.3-.1z"/><path id="XMLID_15_" class="st10" d="m17.9 19 .4.2.2.3-.1-.3.2-.2-.3.1z"/><radialGradient id="XMLID_33_" cx="-185.145" cy="-72.309" r=".602" gradientTransform="rotate(-137.57 -64.858 -66.252)" gradientUnits="userSpaceOnUse"><stop offset="0" style="stop-color:#616263"/><stop offset=".321" style="stop-color:#606162"/><stop offset=".542" style="stop-color:#5c5d5e"/><stop offset=".732" style="stop-color:#565758"/><stop offset=".903" style="stop-color:#4e4f50"/><stop offset="1" style="stop-color:#48494a"/></radialGradient><circle id="XMLID_10_" cx="19.8" cy="19.4" r=".6" style="fill:url(#XMLID_33_)"/><radialGradient id="XMLID_41_" cx="-185.145" cy="-72.309" r=".359" gradientTransform="rotate(-137.57 -64.858 -66.252)" gradientUnits="userSpaceOnUse"><stop offset="0" style="stop-color:#aeafaf"/><stop offset=".321" style="stop-color:#acacad"/><stop offset=".542" style="stop-color:#a5a5a6"/><stop offset=".732" style="stop-color:#999a9a"/><stop offset=".903" style="stop-color:#8a8a8a"/><stop offset="1" style="stop-color:#7e7f7f"/></radialGradient><circle id="XMLID_3_" cx="19.8" cy="19.4" r=".4" style="fill:url(#XMLID_41_)"/><path id="XMLID_1_" class="st13" d="M19.6 19.6c.1.1.2.1.3.1-.1 0-.1 0-.1-.1-.1-.1-.1-.3 0-.4 0 0 .1-.1.2-.1-.1 0-.2 0-.3.1-.2.1-.2.3-.1.4z"/></g></g><g id="Layer_4_copy"><g id="Layer_2_copy_2_1_"><path id="XMLID_45_" class="st7" d="m5.5 3.1 1.1 2.6-1.4.5-.3 1.2-2.7-.6.7-2.9z"/><radialGradient id="XMLID_46_" cx="-183.427" cy="-92.684" r="1.946" gradientTransform="rotate(42.43 -215.715 198.166)" gradientUnits="userSpaceOnUse"><stop offset="0" style="stop-color:#c5b798"/><stop offset=".343" style="stop-color:#c2b495"/><stop offset=".578" style="stop-color:#bbac8c"/><stop offset=".78" style="stop-color:#b0a07f"/><stop offset=".964" style="stop-color:#a2916e"/><stop offset="1" style="stop-color:#9f8e6a"/></radialGradient><path id="XMLID_44_" style="fill:url(#XMLID_46_)" d="m5.4 3.3-.3.3-1.6.7-.4-.2.2.3-.5 1.7-.3.4.4-.2 1.5.4.2.4-.1-.5.3-.7.3.2-.2-.3 1-.3.5.1-.5-.3-.7-1.5z"/><linearGradient id="XMLID_58_" gradientUnits="userSpaceOnUse" x1="-184.351" y1="-94.587" x2="-183.37" y2="-92.888" gradientTransform="rotate(42.43 -215.715 198.166)"><stop offset="0" style="stop-color:#fff"/><stop offset="1" style="stop-color:#fff;stop-opacity:0"/></linearGradient><path id="XMLID_43_" style="opacity:.5;fill:url(#XMLID_58_)" d="m5.4 3.3-.3.4-1.7.7.9.7 1.5.2-.6-1.6z"/><path id="XMLID_42_" class="st10" d="m3.8 4.2-.4.1-.2-.2.1.3v.3l.1-.3z"/><path id="XMLID_40_" class="st10" d="m3 5.8-.2.3-.2.3.3-.1.3.1-.3-.2z"/><path id="XMLID_39_" class="st10" d="m4.7 6.2-.3.4h-.3l.3.1.2.2-.1-.2z"/><path id="XMLID_38_" class="st10" d="m4.7 6 .1-.2.2.2-.1-.2.3-.1h-.4z"/><path id="XMLID_37_" class="st10" d="m6.2 5.6-.3-.2-.2-.4.1.3-.3.2.4-.1z"/><radialGradient id="XMLID_59_" cx="-183.549" cy="-92.735" r=".602" gradientTransform="rotate(42.43 -215.715 198.166)" gradientUnits="userSpaceOnUse"><stop offset="0" style="stop-color:#616263"/><stop offset=".321" style="stop-color:#606162"/><stop offset=".542" style="stop-color:#5c5d5e"/><stop offset=".732" style="stop-color:#565758"/><stop offset=".903" style="stop-color:#4e4f50"/><stop offset="1" style="stop-color:#48494a"/></radialGradient><circle id="XMLID_36_" cx="4.3" cy="5.2" r=".6" style="fill:url(#XMLID_59_)"/><radialGradient id="XMLID_60_" cx="-183.549" cy="-92.735" r=".359" gradientTransform="rotate(42.43 -215.715 198.166)" gradientUnits="userSpaceOnUse"><stop offset="0" style="stop-color:#aeafaf"/><stop offset=".321" style="stop-color:#acacad"/><stop offset=".542" style="stop-color:#a5a5a6"/><stop offset=".732" style="stop-color:#999a9a"/><stop offset=".903" style="stop-color:#8a8a8a"/><stop offset="1" style="stop-color:#7e7f7f"/></radialGradient><circle id="XMLID_35_" cx="4.3" cy="5.2" r=".4" style="fill:url(#XMLID_60_)"/><path id="XMLID_34_" class="st13" d="M4.5 4.9c-.1-.1-.2-.1-.3-.1.1 0 .1 0 .1.1.1.1.1.3 0 .4 0 0-.1.1-.2.1.1 0 .2 0 .3-.1.2-.1.2-.3.1-.4z"/></g><g id="Layer_2_copy_2"><path id="XMLID_57_" class="st7" d="m18.6 3.1-1.1 2.6 1.4.5.4 1.2 2.7-.6-.8-2.9z"/><radialGradient id="XMLID_61_" cx="-194.469" cy="-82.591" r="1.946" gradientTransform="scale(-1 1) rotate(42.431 -220.302 186.346)" gradientUnits="userSpaceOnUse"><stop offset="0" style="stop-color:#c5b798"/><stop offset=".343" style="stop-color:#c2b495"/><stop offset=".578" style="stop-color:#bbac8c"/><stop offset=".78" style="stop-color:#b0a07f"/><stop offset=".964" style="stop-color:#a2916e"/><stop offset="1" style="stop-color:#9f8e6a"/></radialGradient><path id="XMLID_56_" style="fill:url(#XMLID_61_)" d="m18.7 3.3.3.3 1.7.7.3-.2-.2.3.5 1.7.3.4-.4-.2-1.4.4-.3.4.1-.5-.3-.7-.2.2.1-.3-1-.3-.4.1.4-.3.7-1.5z"/><linearGradient id="XMLID_62_" gradientUnits="userSpaceOnUse" x1="-195.393" y1="-84.494" x2="-194.412" y2="-82.796" gradientTransform="scale(-1 1) rotate(42.431 -220.302 186.346)"><stop offset="0" style="stop-color:#fff"/><stop offset="1" style="stop-color:#fff;stop-opacity:0"/></linearGradient><path id="XMLID_55_" style="opacity:.5;fill:url(#XMLID_62_)" d="m18.7 3.3.3.4 1.7.7-.8.7-1.5.2.6-1.6z"/><path id="XMLID_54_" class="st10" d="m20.4 4.2.3.1.3-.2-.2.3.1.3-.2-.3z"/><path id="XMLID_53_" class="st10" d="m21.1 5.8.2.3.2.3-.2-.1-.4.1.3-.2z"/><path id="XMLID_52_" class="st10" d="m19.5 6.2.2.4h.3l-.3.1-.1.2v-.2z"/><path id="XMLID_51_" class="st10" d="m19.4 6-.1-.2-.2.2.1-.2-.2-.1h.3z"/><path id="XMLID_50_" class="st10" d="m17.9 5.6.4-.2.2-.4-.1.3.2.2-.3-.1z"/><radialGradient id="XMLID_63_" cx="-194.59" cy="-82.642" r=".602" gradientTransform="scale(-1 1) rotate(42.431 -220.302 186.346)" gradientUnits="userSpaceOnUse"><stop offset="0" style="stop-color:#616263"/><stop offset=".321" style="stop-color:#606162"/><stop offset=".542" style="stop-color:#5c5d5e"/><stop offset=".732" style="stop-color:#565758"/><stop offset=".903" style="stop-color:#4e4f50"/><stop offset="1" style="stop-color:#48494a"/></radialGradient><circle id="XMLID_49_" cx="19.8" cy="5.2" r=".6" style="fill:url(#XMLID_63_)"/><radialGradient id="XMLID_64_" cx="-194.59" cy="-82.642" r=".359" gradientTransform="scale(-1 1) rotate(42.431 -220.302 186.346)" gradientUnits="userSpaceOnUse"><stop offset="0" style="stop-color:#aeafaf"/><stop offset=".321" style="stop-color:#acacad"/><stop offset=".542" style="stop-color:#a5a5a6"/><stop offset=".732" style="stop-color:#999a9a"/><stop offset=".903" style="stop-color:#8a8a8a"/><stop offset="1" style="stop-color:#7e7f7f"/></radialGradient><circle id="XMLID_48_" cx="19.8" cy="5.2" r=".4" style="fill:url(#XMLID_64_)"/><path id="XMLID_47_" class="st13" d="M19.6 4.9c.1-.1.2-.1.3-.1-.1 0-.1 0-.1.1-.1.1-.1.3 0 .4 0 0 .1.1.2.1-.1 0-.2 0-.3-.1-.2-.1-.2-.3-.1-.4z"/></g></g></svg>