<svg version="1.0" id="Calque_1" xmlns="http://www.w3.org/2000/svg" x="0" y="0" width="100" height="100" style="enable-background:new 0 0 100 100" xml:space="preserve"><style>.st1{display:inline;fill:#fff;stroke:#000;stroke-miterlimit:10}</style><g id="Calque_2_-_copie"><path id="XMLID_3_" d="M83.4 46.5c-.7-6.6-3.3-12.7-7.3-17.6l4.6-4.6-5-5-4.6 4.6c-4.9-4-10.9-6.6-17.6-7.3v-6.5h-7.1v6.5c-6.6.7-12.7 3.3-17.6 7.3l-4.6-4.6-5 5 4.6 4.6c-4 4.9-6.6 10.9-7.3 17.6H10v7.1h6.5c.7 6.6 3.3 12.7 7.3 17.6l-4.6 4.6 5 5 4.6-4.6c4.9 4 10.9 6.6 17.6 7.3V90h7.1v-6.5c6.6-.7 12.7-3.3 17.6-7.3l4.6 4.6 5-5-4.6-4.6c4-4.9 6.6-10.9 7.3-17.6h6.5v-7.1h-6.5zM50 70c-11 0-20-9-20-20s9-20 20-20 20 9 20 20-9 20-20 20z" style="fill:#646671;stroke:#000;stroke-width:2;stroke-miterlimit:10"/><path id="XMLID_13_" d="M50 21.7c-15.6 0-28.3 12.7-28.3 28.3 0 15.6 12.7 28.3 28.3 28.3S78.3 65.6 78.3 50c0-15.6-12.7-28.3-28.3-28.3zM50 71c-11.6 0-21-9.4-21-21s9.4-21 21-21 21 9.4 21 21-9.4 21-21 21z" style="opacity:.42;fill:#fff"/></g></svg>