<svg version="1.0" id="Calque_52" xmlns="http://www.w3.org/2000/svg" x="0" y="0" width="150" height="100" viewBox="0 0 100 150" style="enable-background:new 0 0 100 150" xml:space="preserve"><style>.st3{display:inline;fill:#fff}.st6{fill:#f68b31}.st7{fill:#ffc714}</style><g id="money_-_copie"><g id="XMLID_4_"><path id="XMLID_10_" class="st6" d="m33.4 86.8 7.1-1.5c.8 4 4.1 6 9.8 6 2.6 0 4.6-.5 6-1.5s2.1-2.3 2.1-3.8c0-1.1-.3-2.1-.9-3.1-.6-.9-2-1.7-4-2.2l-7.7-2c-2.6-.7-4.6-1.5-5.9-2.3-1.3-.9-2.3-2.1-3-3.7-.8-1.6-1.1-3.3-1.1-5.1 0-3.6 1.3-6.5 4-8.7 2.7-2.2 6.1-3.3 10.3-3.3 3.5 0 6.6.8 9.3 2.3 2.7 1.5 4.5 3.7 5.2 6.4L57.4 66c-1.1-3.1-3.5-4.6-7.4-4.6-2.3 0-4 .5-5.2 1.4-1.2 1-1.8 2.2-1.8 3.7 0 2.3 1.9 3.9 5.6 4.8l6.9 1.7c4.2 1 6.9 2.6 8.4 4.6 1.4 2 2.1 4.3 2.1 6.8 0 4-1.5 7.1-4.5 9.4-3 2.3-6.9 3.4-11.6 3.4-4 0-7.5-.8-10.5-2.5s-5-4.3-6-7.9z"/></g><path id="XMLID_1_" class="st6" d="M50.7 50.6h-1.2c-1.2 0-2.2 1-2.2 2.2v46.3c0 1.2 1 2.2 2.2 2.2h1.2c1.2 0 2.2-1 2.2-2.2V52.9c0-1.3-1-2.3-2.2-2.3z"/><path id="XMLID_5_" class="st6" d="M33.4 84.8v2l.6.1.6-.4-1.2-1.7"/><path id="XMLID_7_" class="st6" d="M64.3 62.3v2l-1.5-2.1z"/></g><g id="money_-_copie_2"><g id="XMLID_6_"><path id="XMLID_8_" class="st7" d="m33.4 84.8 7.1-1.5c.8 4 4.1 6 9.8 6 2.6 0 4.6-.5 6-1.5s2.1-2.3 2.1-3.8c0-1.1-.3-2.1-.9-3.1-.6-.9-2-1.7-4-2.2l-7.7-2c-2.6-.7-4.6-1.5-5.9-2.3-1.3-.9-2.3-2.1-3-3.7-.8-1.6-1.1-3.3-1.1-5.1 0-3.6 1.3-6.5 4-8.7 2.7-2.2 6.1-3.3 10.3-3.3 3.5 0 6.6.8 9.3 2.3 2.7 1.5 4.5 3.7 5.2 6.4L57.4 64c-1.1-3.1-3.5-4.6-7.4-4.6-2.3 0-4 .5-5.2 1.4-1.2 1-1.8 2.2-1.8 3.7 0 2.3 1.9 3.9 5.6 4.8l6.9 1.7c4.2 1 6.9 2.6 8.4 4.6 1.4 2 2.1 4.3 2.1 6.8 0 4-1.5 7.1-4.5 9.4-3 2.3-6.9 3.4-11.6 3.4-4 0-7.5-.8-10.5-2.5s-5-4.3-6-7.9z"/></g><path id="XMLID_3_" class="st7" d="M50.7 48.6h-1.2c-1.2 0-2.2 1-2.2 2.2v46.3c0 1.2 1 2.2 2.2 2.2h1.2c1.2 0 2.2-1 2.2-2.2V50.9c0-1.3-1-2.3-2.2-2.3z"/></g></svg>