<svg version="1.0" xmlns="http://www.w3.org/2000/svg" width="100" height="150" style="enable-background:new 0 0 100 150" xml:space="preserve"><style>.st0{display:none}.st1{fill:#333}.st1,.st5{display:inline}.st6{fill:#2e3192}.st7{fill:#27aae1}.st11,.st13,.st14,.st15,.st9{fill:none;stroke:#2b3990;stroke-width:4;stroke-miterlimit:10}.st11,.st13,.st14,.st15{stroke:#5ca1d8}.st13,.st14,.st15{stroke:#be1e2d;stroke-width:8}.st14,.st15{stroke:#ed1c24}.st15{stroke:#fff;stroke-width:4}.st16{fill:#fff}.st18{fill:none;stroke:#fff;stroke-width:7;stroke-miterlimit:10}</style><g id="target"><g id="targetShadow"><path id="XMLID_13_" class="st6" d="M10 77h2.5v2.5z"/><circle id="XMLID_1_" class="st9" cx="52.5" cy="77.5" r="28.3"/><path id="XMLID_2_" class="st9" d="M12.5 77.5h20"/><path id="XMLID_3_" class="st9" d="M52.5 57.5v-20"/><path id="XMLID_4_" class="st9" d="M52.5 97.5v20"/><path id="XMLID_5_" style="fill:#00aeef;stroke:#2b3990;stroke-width:4;stroke-miterlimit:10" d="M72.5 77.5h20"/><path id="XMLID_12_" class="st6" d="M48 115h2.5v2.5z"/><path id="XMLID_14_" class="st6" d="M48 55h2.5v2.5z"/><path id="XMLID_15_" class="st6" d="M70 77h2.5v2.5z"/><path id="XMLID_16_" class="st6" d="M92.5 75.5H90V73z"/><path id="XMLID_17_" class="st6" d="M54.5 97.5H52V95z"/><path id="XMLID_18_" class="st6" d="M32.5 75.5H30V73z"/><path id="XMLID_19_" class="st6" d="M54.5 37.5H52V35z"/></g><g id="target_1_"><circle id="XMLID_96_" class="st11" cx="50" cy="75" r="28.3"/><path id="XMLID_95_" class="st11" d="M10 75h20"/><path id="XMLID_94_" class="st11" d="M50 55V35"/><path id="XMLID_93_" class="st11" d="M50 95v20"/><path id="XMLID_92_" style="fill:#00aeef;stroke:#5ca1d8;stroke-width:4;stroke-miterlimit:10" d="M70 75h20"/></g></g></svg>