<?xml version="1.0" encoding="utf-8"?>
<!-- Generator: Adobe Illustrator 19.0.0, SVG Export Plug-In . SVG Version: 6.00 Build 0)  -->
<svg version="1.0" xmlns="http://www.w3.org/2000/svg" xmlns:xlink="http://www.w3.org/1999/xlink" x="0px" y="0px"
	 viewBox="0 0 30 30" style="enable-background:new 0 0 30 30;" xml:space="preserve">
<style type="text/css">
	.st0{fill:#FFFFFF;}
</style>
<g id="Calque_1">
</g>
<g id="power_-_copie">
	<g id="power">
		<path id="XMLID_471_" class="st0" d="M6.9,18.4l3.7,3.7l-2.4,2.4c0,0-1.2,1.2-3-0.6c-1.8-1.8-0.6-3-0.6-3L6.9,18.4z"/>
	</g>
	<g id="圖層_8_拷貝_1_">
		<path id="XMLID_15_" class="st0" d="M19.7,22.1l3.7-3.7l2.4,2.4c0,0,1.2,1.2-0.6,3c-1.8,1.8-3,0.6-3,0.6L19.7,22.1z"/>
		<path id="XMLID_12_" class="st0" d="M22.4,16.3c0,0-10.9-11-11.1-11.1c-0.3-0.2-4.9,0-4.9,0l0,4.9l11.1,11.1l-1.2,1.2l1.2,1.2
			l7.3-7.3l-1.2-1.2L22.4,16.3z M21.2,17.5c0,0-2.4,2.4-2.4,2.4L7.6,8.8l0-2.4l2.4,0C10,6.4,21.2,17.5,21.2,17.5z"/>
	</g>
	<g id="XMLID_9_">
		<path id="XMLID_11_" class="st0" d="M23.8,5.1l-4.9,0l-4.5,4.5l1.2,1.2l4.5-4.5l2.4,0l0,2.4c0,0-2.1,2.1-4.4,4.4l1.3,1.2
			c2.3-2.3,4.3-4.3,4.4-4.4C23.9,9.7,23.8,5.1,23.8,5.1z"/>
		<path id="XMLID_10_" class="st0" d="M15.8,18l-1.2-1.2c-1.8,1.8-3.1,3.1-3.1,3.1c0,0-2.4-2.4-2.4-2.4l3.1-3.1l-1.2-1.2l-3.1,3.1
			L6.5,15l-1.2,1.2l7.3,7.3l1.2-1.2l-1.2-1.2C12.6,21.1,14,19.8,15.8,18z"/>
	</g>
</g>
</svg>
