<?xml version="1.0" encoding="utf-8"?>
<!-- Generator: Adobe Illustrator 19.0.0, SVG Export Plug-In . SVG Version: 6.00 Build 0)  -->
<svg version="1.0" xmlns="http://www.w3.org/2000/svg" xmlns:xlink="http://www.w3.org/1999/xlink" x="0px" y="0px"
	 viewBox="0 0 300 300" style="enable-background:new 0 0 300 300;" xml:space="preserve">
<style type="text/css">
	.st0{opacity:0.1;fill:#FFFFFF;}
	.st1{fill:url(#XMLID_37_);}
	.st2{fill:#2A5594;}
	.st3{fill:#020304;}
	.st4{fill:#333333;}
	.st5{fill:#A5A3A3;}
	.st6{fill:#848480;}
	.st7{fill:#CECECE;}
	.st8{fill:none;stroke:#040506;stroke-width:8;stroke-miterlimit:10;}
	.st9{fill:#CEA98A;}
	.st10{fill:#FBCFA5;}
	.st11{fill:#010202;}
	.st12{fill:#66471E;}
	.st13{fill:#8E6425;}
	.st14{opacity:0.25;fill:#FFFFFF;}
	.st15{fill:none;stroke:#020304;stroke-width:5;stroke-miterlimit:10;}
	.st16{opacity:0.5;}
	.st17{fill:#4F3819;}
	.st18{opacity:0.4;fill:#503717;}
	.st19{fill:none;stroke:#010202;stroke-width:5;stroke-miterlimit:10;}
	.st20{fill:url(#XMLID_40_);}
	.st21{opacity:0.2;fill:#FFFFFF;}
	.st22{fill:#828282;}
	.st23{opacity:0.5;fill:url(#XMLID_45_);}
	.st24{fill:#FBCFA5;stroke:#000000;stroke-width:2;stroke-miterlimit:10;}
	.st25{fill:#FDE2CB;}
	.st26{fill:#CEA98A;stroke:#000000;stroke-width:3;stroke-miterlimit:10;}
	.st27{fill:#18100B;}
	.st28{fill:#FFFFFF;stroke:#14283F;stroke-width:3;stroke-miterlimit:10;}
	.st29{display:none;}
	.st30{display:inline;}
	.st31{fill:#FFFFFF;stroke:#000000;stroke-width:2;stroke-miterlimit:10;}
	.st32{fill:none;stroke:#000000;stroke-width:2;stroke-miterlimit:10;}
	.st33{fill:#86BCE7;}
	.st34{fill:#8E6425;stroke:#000000;stroke-width:2;stroke-miterlimit:10;}
	.st35{opacity:0.25;}
	.st36{fill:#FFFFFF;}
	.st37{fill:none;}
	.st38{fill:none;stroke:#010202;stroke-width:2;stroke-miterlimit:10;}
	.st39{display:inline;fill:#FDE2CB;}
	.st40{display:inline;fill:none;stroke:#010202;stroke-width:2;stroke-miterlimit:10;}
	.st41{fill:none;stroke:#0B0B0C;stroke-width:19;stroke-miterlimit:10;}
	.st42{fill:none;stroke:#DDDDDD;stroke-width:6;stroke-miterlimit:10;}
	.st43{opacity:0.25;fill:#020304;}
	.st44{fill:url(#XMLID_46_);stroke:#164383;stroke-width:3;stroke-miterlimit:10;}
	.st45{fill:url(#XMLID_47_);stroke:#164383;stroke-width:3;stroke-miterlimit:10;}
	.st46{fill:url(#XMLID_48_);}
	.st47{fill:none;stroke:#164383;stroke-width:3;stroke-miterlimit:10;}
</style>
<g id="Calque_1">
	<g id="Calque_12">
		<circle id="XMLID_86_" cx="152" cy="147.8" r="114.3"/>
		<g id="Calque_5_1_">
			<g id="Calque_13">
			</g>
			<g id="Calque_12_1_">
			</g>
			<g id="Calque_12_-_copie">
			</g>
			<g id="Calque_9">
				<g id="圖層_1">
				</g>
			</g>
			<g id="Calque_8">
			</g>
			<g id="Calque_10">
				<g id="Calque_11">
				</g>
				<g id="Calque_11_-_copie">
				</g>
			</g>
			<path id="XMLID_130_" class="st0" d="M217.4,178.1c3.2-4.6,5.5-10.7,5.5-19.1c0-1.1,0-2.1-0.1-3.2c0.5,0,1,0,1.5,0
				c2.1,0,4.4-0.2,6.1-1.4c2.4-1.8,2.8-5,2.2-7.8c-0.7-3.3-2.6-6.4-5.2-8.7c-1.5-1.3-3.5-2.4-5.5-2.1c-1.6,0.2-2.8,1.2-4,2.2
				c-0.5-1-0.9-1.9-1.4-2.8c0.1-0.1,0.1-0.2,0.2-0.3c0.2-0.5,0.4-1,0.3-1.6c-0.1-0.7-0.6-1.2-1.1-1.7c-3.3-3.5-5.1-7-7.4-10.1
				c0.5-0.6,1-1.3,1.4-2c3.5-6.5,5.4-13.8,5.4-21.4c0-28.5-26.9-51.7-60.2-51.7S94.9,69.5,94.9,98.1c0,7.6,1.9,14.9,5.4,21.4
				c0.5,0.9,1.1,1.7,1.9,2.5c-0.1,0.2-0.2,0.3-0.4,0.5c-2,2.8-3.8,5.9-6.7,9.1c-0.1,0.1-0.2,0.2-0.3,0.4c-0.3,0.4-0.6,0.8-0.7,1.3
				c-0.1,0.5,0,1.1,0.3,1.6c0.2,0.3,0.3,0.6,0.6,0.9c0,0,0,0,0,0c0.2,0.2,0.3,0.4,0.5,0.6c-0.3,0.6-0.6,1.1-0.8,1.7
				c-1.3-1.2-2.6-2.2-4.3-2.5c-2-0.3-4,0.8-5.5,2.1c-2.7,2.3-4.5,5.4-5.2,8.7c-0.6,2.8-0.2,6.1,2.2,7.8c1.7,1.3,4,1.4,6.1,1.4
				c0.6,0,1.2,0,1.8,0c-0.1,1.1-0.1,2.3-0.1,3.5c0,7.5,1.8,13.1,4.5,17.5c-15.3,7.6-29.3,18-41.3,30.6c-19.4,20.3,75.3,55,75.3,55
				l14.5,3.4l29.2-4.1c0,0,102.6-35.2,82.5-55.7C243.3,194.6,231,185.2,217.4,178.1z"/>
		</g>
		<g id="Calque_4_-_copie">
			<g id="Calque_14_-_copie">
				<path id="XMLID_175_" d="M99.2,251l58.4,11.1c11.9-4.5,107.2-32.7,92.9-50.7c-24.1-30.3-58.3-49.2-96.3-49.2
					c-38.8,0-73.7,19.7-97.8,51C42.8,230.9,89.7,242.5,99.2,251z"/>
				
					<radialGradient id="XMLID_37_" cx="152.8294" cy="215.516" r="65.0262" gradientTransform="matrix(1.1726 0 0 1 -25.5346 0)" gradientUnits="userSpaceOnUse">
					<stop  offset="0" style="stop-color:#3864AE"/>
					<stop  offset="1" style="stop-color:#77BDE9"/>
				</radialGradient>
				<path id="XMLID_174_" class="st1" d="M152,262.1L207,251c11-13,49.9-18.2,37-35c-22.3-29-54.3-47.1-89.9-47.1
					c-36.8,0-69.8,19.4-92.2,50.2C50.2,235.3,125.8,262.7,152,262.1z"/>
				<g id="圖層_1_-_copie_1_">
					<path id="XMLID_186_" class="st2" d="M226.9,197.7c-2.2,2.4-3.9,4.3-4.3,4.9c-2.4-0.5-4.9-1-7.3-0.2s-4.2,3.3-3.4,5.6
						c0.4,1.1,1.2,1.9,1.9,2.8c2,2.8,1.9,6.8-0.1,9.6c-2.4,3.2-6.7,4.3-9.1,7.5c-1.6,2.2-2,5.1-2.2,7.9c-0.1,1.2-0.2,2.5,0.3,3.7
						s1.6,2.1,2.8,1.9c1.6-0.2,2.3-2,3.2-3.3c1.4-1.9,4.4-3,6.2-1.4c2.9,2.7-1.3,7.5-0.1,11.3c0.8,2.4,30.2-30.5,29.1-31.9
						C238.8,209.3,233.1,203.1,226.9,197.7z"/>
					<path id="XMLID_185_" class="st2" d="M74,242.1c3-0.3,5.5,3.9,8.2,2.7c1.9-0.9,1.8-3.6,1.5-5.7c-0.4-2.1-0.2-4.9,1.9-5.5
						c0.7-0.2,1.4,0,2.2,0c2.4,0,4.8-2,4.8-4.4s-2.8-4.5-5-3.5c-0.7,0.3-1.4,0.9-2.1,0.6c-0.4-0.2-0.6-0.5-0.8-0.9
						c-1.6-2.8-2.9-6.9-0.3-8.8c2-1.5,5.1-0.4,7-2c1.8-1.5,1.3-4.5-0.1-6.3s-3.5-3-5.1-4.7c-1.5-1.7-2.5-3.8-2.8-6.1
						c-0.1-0.5-0.1-1,0-1.4c-8.1,6.9-15.5,14.9-21.9,23.9C54.2,229.8,71.9,242.3,74,242.1z"/>
					<path id="XMLID_184_" class="st2" d="M200.4,257.1c-0.8-0.8-1.4-1.7-1.7-2.8c-0.6-2.2,0.5-5-1.1-6.6c-2-2-5.7,0-8.1-1.4
						c-2.2-1.3-2.6-4.8-5-5.5c-2-0.6-3.8,1.1-5.8,1.7c-3,0.9-6.3-0.8-8.2-3.4c-1-1.3-1.8-2.9-3.3-3.5c-3.4-1.3-6.7,3.5-10.3,2.9
						c-2.5-0.4-4.4-3.3-7-2.9c-2.3,0.4-3.2,3.3-3.5,5.6c-0.3,2.3-9.3-8.1-11.7-7.9c-3.2,0.3-5.6-4.5-8.7-3.6
						c-2.7,0.8-2.5,4.8-4.5,6.7c-1.4,1.4-3.6,1.5-5.3,2.6c-3.7,2.3-4,8.3-8,9.9c-1.2,0.5-2.6,0.4-3.8,0.9c-1.4,0.5-2.3,1.5-3,2.8
						c-0.9,1.5-1.4,3.4-1.7,5.2l-0.4,0.5C99.6,259.4,202.6,259.4,200.4,257.1z"/>
				</g>
				<path id="XMLID_173_" class="st3" d="M181.7,260c-15.6-16.4-25.4-33.9-25.4-33.9s-10.1,18.1-26.3,34.7
					C124.7,266.2,187.1,265.7,181.7,260z"/>
				<path id="XMLID_172_" class="st4" d="M178.8,259.8c-13.9-15.9-22.6-32.7-22.6-32.7s-9.4,18.2-24.3,34.6
					C127.2,266.8,183.9,265.6,178.8,259.8z"/>
				<path id="XMLID_171_" class="st5" d="M171.7,261.4c-9.5-16.4-15.5-34.3-15.5-34.3s-6.2,18.5-16,35
					C137.3,267.1,174.8,266.6,171.7,261.4z"/>
				<g id="Calque_6_-_copie">
					<path id="XMLID_120_" class="st3" d="M156,221.1l-42.4-9.7l14,12.3c0,0,10.9,6.9,16.6,9.9c7.1,3.7,12.1,18.9,12.1,18.9
						s4.3-14.9,11.4-18.6c5.6-3,16.9-10.2,16.9-10.2l14-11.8L156,221.1z"/>
					<path id="XMLID_119_" class="st6" d="M156,224.2l-36.1-9.1l18.4,11.6c0,0,7.6,3.9,11.1,5.8c4.4,2.3,6.7,16.4,6.7,16.4
						s2.1-14.1,6.5-16.4c3.5-1.8,11.1-5.8,11.1-5.8l18-11.3L156,224.2z"/>
					<path id="XMLID_118_" class="st7" d="M156,228.5l-13.5-4.5l7.2,4.5c0,0,2.7,1.4,3.9,2.1c1.6,0.8,2.3,10.6,2.3,10.6
						s0.8-9.7,2.3-10.6c1.2-0.7,3.9-2.1,3.9-2.1l7.2-4.5L156,228.5z"/>
				</g>
			</g>
			<g id="Calque_5_-_copie">
				<path id="XMLID_88_" class="st8" d="M156.3,97.1c-0.1,0-0.5,0-0.6,0c-21.8,0-59.2,29.5-59.2,62c0,23.2,17.3,26.9,22,36
					c10.3,19.9,10.2,22.6,37.5,22.6c27.3,0,27.2-2.7,37.5-22.6c4.7-9.1,22-12.8,22-36C215.5,126.6,178.1,97.1,156.3,97.1z"/>
				<path id="XMLID_87_" class="st9" d="M156.3,97.1c-0.1,0-0.5,0-0.6,0c-21.8,0-59.2,29.5-59.2,62c0,23.2,17.3,26.9,22,36
					c10.3,19.9,10.2,22.6,37.5,22.6c27.3,0,27.2-2.7,37.5-22.6c4.7-9.1,22-12.8,22-36C215.5,126.6,178.1,97.1,156.3,97.1z"/>
				<path id="XMLID_80_" class="st10" d="M155.7,97c-0.1,0-0.4,0-0.5,0c-18.1,0-49.3,29.5-49.3,62c0,23.2,14.4,26.9,18.4,36
					c8.6,19.9,8.5,22.6,31.2,22.6c22.7,0,22.6-2.7,31.2-22.6c3.9-9.1,18.4-12.8,18.4-36C205,126.5,173.8,97,155.7,97z"/>
				<g id="Calque_13_-_copie">
					<path id="XMLID_114_" class="st11" d="M157.7,248.4L157.7,248.4c-13,0-24-8.8-27.8-20.8c-1.2-3.9-1.5-8-1.1-12.1l1.5-15.4
						c0.2-2.2,0.2-4.5-0.1-6.7c-0.9-7.8-3.5-17.1,0.9-21.6c5.3-5.4,18.5-4.8,26.6-4.8h0c8,0,20.8-0.3,26.1,5.2
						c3.7,3.8,2.9,7.7,2.1,12.5c-0.6,3.3-0.7,6.6-0.5,9.9l1.6,23.9C186.9,235,173.7,248.4,157.7,248.4z"/>
					<path id="XMLID_113_" class="st12" d="M157.7,245.3L157.7,245.3c-13.6,0-24.9-10.5-26.8-24.1c-0.3-2.2-0.2-4.4,0.2-6.6v0
						c1.6-9.3,1.7-18.9,0.4-28.3c-0.7-5.3-0.9-10.4,1.6-13c4.9-5.1,17.2-4.5,24.6-4.5h0c7.4,0,19.3-0.3,24.2,4.8
						c4.7,4.9,1.5,10.6,1.2,17.9c0,0.7,0,1.4,0.1,2.2l1.6,22.3c0.1,0.7,0.1,1.4,0.1,2.1C184.2,233.2,172.2,245.3,157.7,245.3z"/>
					<path id="XMLID_112_" class="st13" d="M157.7,242.5L157.7,242.5c-13.6,0-24.9-10.1-26.8-23.2c-0.3-2.1-0.2-4.3,0.2-6.4v0
						c1.6-9,1.7-18.2,0.4-27.2c-0.7-5.1-0.9-10,1.6-12.5c4.9-4.9,17.2-4.3,24.6-4.3h0c7.4,0,19.3-0.2,24.2,4.7
						c4.7,4.7,1.5,10.3,1.2,17.2c0,0.7,0,1.4,0.1,2.1l1.6,21.5c0.1,0.7,0.1,1.4,0.1,2.1C184.2,230.9,172.2,242.5,157.7,242.5z"/>
					<path id="XMLID_111_" class="st14" d="M157.9,217.5c-3.4-3.8-7.9-6.5-11.6-10c-5.9-5.6-9-13.8-8.1-21.9c0.6-5.5,2.9-10.7,3-16
						c-1.9,0.4-3.7,0.9-5.2,1.6c-1.2,9.1-1.5,18.4-0.7,27.6c0.7,7.6,2,15.2,1.3,22.8c-0.3,3-0.9,5.9-1.5,8.8c3,4.4,7.2,8,12.3,10
						c0.5-0.7,0.9-1.4,1.3-2.2c2.1-4.8,1.4-10.7-1.6-14.9c3.4,1,5,4.9,5.9,8.3c0.5,2.2,1,4.5,1.1,6.8c0.1,1.3,0.2,2.6,0.5,3.8
						c1,0.1,2,0.2,3,0.2h0c3.2,0,6.2-0.6,9.1-1.6C165.4,232.5,163.5,223.9,157.9,217.5z"/>
				</g>
				<g id="Calque_12_-_copie_2_1_">
					<path id="XMLID_161_" class="st15" d="M188.5,126.9c1.4,0,2.5,0.9,3.5,1.9c1.8,1.9,3.2,4.1,5,6.1c1.7,2,3.8,3.7,6.4,4.3
						s5.5-0.5,6.6-2.9c0.2-0.5,0.3-1,0.2-1.5c-0.1-0.6-0.5-1.1-1-1.6c-5.2-5.9-6.4-11.7-13.2-15.6"/>
					<path id="XMLID_160_" class="st13" d="M188.5,126.9c1.4,0,2.5,0.9,3.5,1.9c1.8,1.9,3.2,4.1,5,6.1c1.7,2,3.8,3.7,6.4,4.3
						s5.5-0.5,6.6-2.9c0.2-0.5,0.3-1,0.2-1.5c-0.1-0.6-0.5-1.1-1-1.6c-5.2-5.9-6.4-11.7-13.2-15.6"/>
					<g id="XMLID_157_" class="st16">
						<path id="XMLID_159_" class="st17" d="M192.8,122.2c0.2-0.1,0.5-0.2,0.7-0.3c-0.1,0-0.1-0.1-0.2-0.1L192.8,122.2z"/>
						<path id="XMLID_158_" class="st17" d="M210.1,134.7c-0.1-0.6-0.5-1.1-1-1.6c-5.2-5.9-6.4-11.7-13.2-15.6l-1.3,1.6
							c-0.2,0.9-0.3,1.8-0.9,2.4c-0.1,0.1-0.2,0.2-0.4,0.3c2.4,1.9,4.9,3.7,6.9,6c0.6,0.7,1.1,1.4,1.7,2.1c0.7,0.9,1.3,1.7,2,2.6
							c0.9,1.1,1.7,2.2,2.7,3.3c0.6,0.7,1.3,1.4,2,2c0.5-0.4,0.9-0.9,1.2-1.6C210.1,135.8,210.2,135.3,210.1,134.7z"/>
					</g>
				</g>
				<g id="Calque_12_-_copie_2">
					<path id="XMLID_105_" class="st15" d="M122.2,126.9c-1.4,0-2.5,0.9-3.5,1.9c-1.8,1.9-3.2,4.1-5,6.1c-1.7,2-3.8,3.7-6.4,4.3
						s-5.5-0.5-6.6-2.9c-0.2-0.5-0.3-1-0.2-1.5c0.1-0.6,0.5-1.1,1-1.6c5.2-5.9,6.4-11.7,13.2-15.6"/>
					<path id="XMLID_104_" class="st13" d="M122.2,126.9c-1.4,0-2.5,0.9-3.5,1.9c-1.8,1.9-3.2,4.1-5,6.1c-1.7,2-3.8,3.7-6.4,4.3
						s-5.5-0.5-6.6-2.9c-0.2-0.5-0.3-1-0.2-1.5c0.1-0.6,0.5-1.1,1-1.6c5.2-5.9,6.4-11.7,13.2-15.6"/>
					<g id="XMLID_101_" class="st16">
						<path id="XMLID_103_" class="st17" d="M117.9,122.2c-0.2-0.1-0.5-0.2-0.7-0.3c0.1,0,0.1-0.1,0.2-0.1L117.9,122.2z"/>
						<path id="XMLID_102_" class="st17" d="M100.5,134.7c0.1-0.6,0.5-1.1,1-1.6c5.2-5.9,6.4-11.7,13.2-15.6l1.3,1.6
							c0.2,0.9,0.3,1.8,0.9,2.4c0.1,0.1,0.2,0.2,0.4,0.3c-2.4,1.9-4.9,3.7-6.9,6c-0.6,0.7-1.1,1.4-1.7,2.1c-0.7,0.9-1.3,1.7-2,2.6
							c-0.9,1.1-1.7,2.2-2.7,3.3c-0.6,0.7-1.3,1.4-2,2c-0.5-0.4-0.9-0.9-1.2-1.6C100.5,135.8,100.4,135.3,100.5,134.7z"/>
					</g>
				</g>
				<path id="XMLID_79_" class="st18" d="M147.4,167c-1.4,0.7-2.9,0.9-3.5,2.7c-0.4,1.1-0.5,3-0.4,4.3c0,0.4,0.1,0.8,0.3,1.1
					c0.2,0.3,0.4,0.4,0.7,0.5c1.3,0.5,2.6,0.7,3.8,1.1c3.1,1,6.1,3,9.2,2.5c2.8-0.5,5.3-3,8.1-3.7c0.4-0.1,0.8-0.2,1.2-0.5
					c0.6-0.5,0.8-1.5,0.7-2.4c-0.1-0.9,0-2.7-0.4-3.5c-0.3-0.6-1.1-0.1-1.6-0.5c-0.9-0.8-2.1-0.8-3.2-0.9c-4.8-0.1-9.7-0.3-14.5-0.4
					"/>
				<path id="XMLID_78_" class="st19" d="M171.2,192.4c0,3.7-6.5,4.9-14.1,4.9c-7.5,0-13.2-1.1-13.2-4.9c0-2.1,3.2-3.3,6.5-3.8
					c3.2-0.5,4.5-1.9,7.8-1.9c2.6,0,3.8,1.7,7.6,2.1C169.8,189.3,171.2,190,171.2,192.4z"/>
				<path id="XMLID_77_" class="st10" d="M171.2,192.4c0,3.7-6.5,4.9-14.1,4.9c-7.5,0-13.2-1.1-13.2-4.9c0-2.1,3.2-3.3,6.5-3.8
					c3.2-0.5,4.5-1.9,7.8-1.9c2.6,0,3.8,1.7,7.6,2.1C169.8,189.3,171.2,190,171.2,192.4z"/>
				<g id="Calque_9_-_copie">
					<path id="XMLID_97_" class="st11" d="M195.3,127c3.6,0,6.9-2,8.5-5.2c3.1-6.1,4.8-13,4.8-20.2c0-26.9-24-48.7-53.6-48.7
						s-53.6,21.8-53.6,48.7c0,7.2,1.7,14,4.8,20.2c1.6,3.2,4.9,5.2,8.5,5.2H195.3z"/>
					
						<radialGradient id="XMLID_40_" cx="154.9508" cy="-16171.9932" r="43.4658" gradientTransform="matrix(1 0 0 -1 0 -16082)" gradientUnits="userSpaceOnUse">
						<stop  offset="0" style="stop-color:#3864AE"/>
						<stop  offset="1" style="stop-color:#77BDE9"/>
					</radialGradient>
					<path id="XMLID_96_" class="st20" d="M193,124.9c3.4,0,6.5-1.9,8-4.9c2.9-5.8,4.5-12.2,4.5-19c0-25.4-22.6-45.9-50.6-45.9
						s-50.6,20.6-50.6,45.9c0,6.8,1.6,13.2,4.5,19c1.5,3,4.6,4.9,8,4.9H193z"/>
					<g id="圖層_1_-_copie">
						<path id="XMLID_147_" class="st2" d="M110.2,79.7c0,0.3,0.2,0.6-0.1,0.9c-0.1,0.1-0.3,0.2-0.4,0.2c0,0-0.1,0-0.1,0
							c-3.3,6.1-5.2,13-5.2,20.3c0,5.3,1,10.3,2.8,15c0.7,0.1,1.4,0.1,2-0.2c0.9-0.5,1.2-1.7,1.1-2.8c-0.1-1.5-0.5-3-1.2-4.3
							c-0.2-0.3-0.4-0.7-0.5-1.1c-0.1-0.9,0.7-1.6,1.6-1.9c0.8-0.3,1.8-0.3,2.6-0.7c0.8-0.4,1.5-1.3,1.1-2.1
							c-0.1-0.3-0.4-0.5-0.5-0.8c-0.4-0.9,0.5-1.8,1.4-2.2c0.8-0.5,1.9-1.1,1.7-2.1c-0.1-0.9-1.1-1.3-1.5-2c-0.8-1.1-0.1-2.8,1-3.6
							c0.3-0.2,0.8-0.5,1-0.8c0.4-0.8-0.2-1.7-0.9-2.3c-0.7-0.6-1.4-1.4-1.2-2.2c0.3-1.2,2.2-1.6,2.1-2.8c-0.1-0.9-1.2-1.2-2-1.3
							c-0.9-0.1-1.9-0.6-1.9-1.4c0-0.3,0.2-0.6,0.3-0.8c0.3-0.9-0.1-2.1-1.1-2.4c-0.4-0.1-0.8-0.1-1.2,0.1
							C110.7,78.8,110.4,79.2,110.2,79.7C110.2,79.7,110.2,79.7,110.2,79.7z"/>
						<path id="XMLID_146_" class="st2" d="M123.2,65.5c-0.1,0.5-0.3,1-0.4,1.5c-0.1,0.8,0.3,1.7,0.9,2.1c0.7,0.4,1.6,0.4,2.3-0.1
							c0.4-0.3,0.7-0.7,1.1-1c1-0.6,2.2-0.1,3.2,0.3c0,1,0,2.1,0.4,2.9c0.5,0.9,1.6,1.5,2.5,1c0.4-0.2,0.7-0.6,1-1
							c1-1,2.6-1.3,3.8-0.7c1.4,0.7,2.2,2.4,3.7,3.1c1,0.5,2.2,0.4,3.3,0.3c0.5-0.1,1-0.1,1.5-0.4c0.4-0.3,0.7-0.8,0.6-1.3
							c-0.2-0.6-1-0.8-1.6-1.1c-0.9-0.4-1.5-1.6-1-2.4c0.9-1.3,3.1,0,4.5-0.8c0.9-0.5,1.2-1.7,1.1-2.8c-0.1-1.5-0.5-3-1.2-4.3
							c-0.2-0.3-0.4-0.7-0.5-1.1c-0.1-0.9,0.7-1.6,1.6-1.9c0.8-0.3,1.8-0.3,2.6-0.7c0.8-0.4,1.5-1.3,1.1-2.1c0-0.1-0.1-0.2-0.2-0.3
							c-11.5,0.3-22.1,4-30.4,10.2C123.2,65.3,123.2,65.4,123.2,65.5z"/>
						<path id="XMLID_145_" class="st2" d="M167,56.4c0,0.1,0,0.2,0,0.3c0.2,1.1,1.8,1.3,2.4,2.2c0.5,0.6,0.4,1.6,0.7,2.3
							c0.7,1.6,3.1,2.1,3.5,3.8c0.1,0.5,0,1.1,0.1,1.6c0.3,1.3,1.7,1.9,2.9,2.4l0.2,0.2c0.5,0,0.8,0.6,0.7,1.1
							c-0.1,0.5-0.3,1-0.4,1.5c-0.1,0.8,0.3,1.7,0.9,2.1c0.7,0.4,1.6,0.4,2.3-0.1c0.4-0.3,0.7-0.7,1.1-1c1-0.6,2.2-0.1,3.2,0.3
							c0,1,0,2.1,0.4,2.9c0.5,0.9,1.6,1.5,2.5,1c0.4-0.2,0.7-0.6,1-1c1-1,2.6-1.3,3.8-0.7c1.4,0.7,2.2,2.4,3.7,3.1
							c0.9,0.4,2,0.4,3.1,0.3C192.5,67.7,180.9,59.4,167,56.4z"/>
						<path id="XMLID_144_" class="st2" d="M203,86.6c-0.1,0.1-0.1,0.2-0.2,0.2c-0.8,0.7-2.2,0.4-2.8,1.2c-0.5,0.7-0.1,1.6-0.1,2.5
							c0,1.3-1.2,2.3-2.4,2.7c-0.6,0.2-1.4,0.3-1.8,0.8c-1,1.1,0.5,3-0.2,4.4c-0.5,0.9-1.9,1.3-2,2.3c-0.2,1,0.8,1.7,1.7,2.1
							c0.9,0.4,1.9,1.1,1.8,2c-0.1,1.3-2.2,2-2,3.3c0.2,1.1,1.8,1.3,2.4,2.2c0.5,0.6,0.4,1.6,0.7,2.3c0.7,1.6,3.1,2.1,3.5,3.8
							c0.1,0.5,0,1.1,0.1,1.6c0,0.1,0.1,0.2,0.1,0.3c2.4-5.3,3.7-11.2,3.7-17.3C205.5,96,204.6,91.1,203,86.6z"/>
					</g>
					<path id="XMLID_91_" class="st0" d="M177.1,71.8c24,13.5,32.1,31.9,20.6,53.7c11.6-22,10.4-47.4-16.6-62.6
						c-24.3-13.7-52.3-6.1-68.8,13.2C128.8,56.9,152.8,58.1,177.1,71.8z"/>
					<path id="XMLID_90_" class="st21" d="M180.5,67.6c24,13.5,28.7,36.1,17.3,57.8c11.6-22,10.4-47.4-16.6-62.6
						c-24.3-13.7-52.3-6.1-68.8,13.2C128.8,56.9,156.1,54,180.5,67.6z"/>
				</g>
				<g id="Calque_8_-_copie">
					<path id="XMLID_136_" class="st11" d="M108.8,124.5c6.9,3.5,22.3,12.7,45.6,12.7c23,0,38-8.9,45.1-12.5
						c-10.6-6.3-24.8-1.6-45-1.6C134.1,123,119.5,117.7,108.8,124.5z"/>
					<path id="XMLID_135_" class="st22" d="M114.7,124.5c5.5,2.8,21.2,9.9,39.8,9.9c18.3,0,33.9-6.9,39.5-9.8
						c-9.1-4.1-23.4,0.1-39.5,0.1C138.2,124.7,123.7,120.1,114.7,124.5z"/>
					
						<linearGradient id="XMLID_45_" gradientUnits="userSpaceOnUse" x1="154.3359" y1="-16206.5537" x2="154.3359" y2="-16213.4521" gradientTransform="matrix(1 0 0 -1 0 -16082)">
						<stop  offset="0" style="stop-color:#FFFFFF;stop-opacity:0"/>
						<stop  offset="1" style="stop-color:#FFFFFF"/>
					</linearGradient>
					<path id="XMLID_134_" class="st23" d="M124.3,126c4.2,2.1,16.3,5.4,30.4,5.4c13.9,0,25.4-3.2,29.7-5.4c-6.9-3.1-17.7,0-30,0
						C142.1,126.1,131.1,122.7,124.3,126z"/>
				</g>
				<g id="Calque_10_-_copie">
					<g id="Calque_11_-_copie_2_1_">
					</g>
					<g id="Calque_11_-_copie_2">
					</g>
					<path id="XMLID_75_" class="st24" d="M149.8,156.5c-0.1,1.8-0.3,3.6-0.6,5.4c0,0.2-0.1,0.5-0.2,0.7c-0.2,0.7-0.8,1.1-1.4,1.6
						c-1.3,1.1-2.5,2.3-3,3.9c-0.5,1.6,0,3.6,1.4,4.4c0.5,0.3,1.2,0.5,1.8,0.6c1.1,0.2,2.3,0.4,3.5,0.4c0.3,0,0.6,0,0.8,0.1
						c0.5,0.1,0.9,0.3,1.3,0.5c1.8,0.9,4,1.1,5.9,0.2c0.6-0.3,1.2-0.7,1.8-1c0.9-0.4,1.9-0.6,2.8-0.9c0.9-0.3,1.8-0.9,2.2-1.9
						c0.2-0.4,0.2-0.9,0.2-1.3c0-0.6,0-1.3-0.4-1.8c-0.3-0.4-0.7-0.7-1.1-0.9c-0.6-0.4-1.2-0.8-1.8-1.2c-0.5-0.3-0.9-0.6-1.3-1
						c-0.9-0.9-1.3-2.1-1.5-3.3c-0.2-1.2-0.1-2.5,0-3.7c0.1-1.3,0.2-2.5,0.3-3.8"/>
					
						<ellipse id="XMLID_74_" transform="matrix(0.7954 0.6061 -0.6061 0.7954 122.9389 -40.9116)" class="st25" cx="122.1" cy="161.6" rx="5.9" ry="3.7"/>
					
						<ellipse id="XMLID_73_" transform="matrix(-0.7954 0.6061 -0.6061 -0.7954 433.5154 175.1259)" class="st25" cx="187.2" cy="160.7" rx="5.9" ry="3.7"/>
					
						<ellipse id="XMLID_72_" transform="matrix(-0.7954 0.6061 -0.6061 -0.7954 370.7495 210.7719)" class="st25" cx="149.8" cy="168" rx="3.6" ry="2.2"/>
				</g>
				<g id="Calque_30">
					<path id="XMLID_68_" class="st26" d="M101.7,155.3c-2.2,0.4-4.4,0.6-6.7,0.6c-1.9,0-4-0.2-5.5-1.4c-2.1-1.7-2.5-4.8-1.9-7.4
						c0.6-3.1,2.3-6.1,4.7-8.2c1.3-1.2,3.1-2.2,4.9-2c3,0.4,4.6,4.1,7.5,5.1"/>
					<path id="XMLID_67_" class="st26" d="M210,155.5c2.2,0.4,4.4,0.6,6.7,0.6c1.9,0,4-0.2,5.5-1.4c2.1-1.7,2.5-4.8,1.9-7.4
						c-0.6-3.1-2.3-6.1-4.7-8.2c-1.3-1.2-3.1-2.2-4.9-2c-3,0.4-4.6,4.1-7.5,5.1"/>
					<path id="XMLID_66_" class="st27" d="M94.9,150.5c0.3,0.4-0.3,1-0.7,0.6c-1.2-0.9-2.1-2.4-1.2-4.8c1.4-3.5,3.8-4,5.6-3.5
						c0.6,0.1,0.9,0.8,0,1c-1.3,0.4-3,1.1-3.5,2c-0.1,0.1,0.2,0.5,0.6,0.8c0.3,0.3,0.3,0.7-0.2,0.8c-0.4,0.1-0.9,0.2-0.9,0.3
						C94.3,148.1,93.9,149.1,94.9,150.5z"/>
					<path id="XMLID_65_" class="st27" d="M217.5,151.2c-0.3,0.4,0.3,1,0.7,0.6c1.2-0.9,2.1-2.4,1.2-4.8c-1.4-3.5-3.8-4-5.6-3.5
						c-0.6,0.1-0.9,0.8,0,1c1.3,0.4,3,1.1,3.5,2c0.1,0.1-0.2,0.5-0.6,0.8c-0.3,0.3-0.3,0.7,0.2,0.8c0.4,0.1,0.9,0.2,0.9,0.3
						C218.1,148.8,218.5,149.7,217.5,151.2z"/>
				</g>
				<polygon id="XMLID_69_" class="st28" points="153.9,80.6 158.1,93.5 171.7,93.5 160.7,101.5 164.9,114.4 153.9,106.4 
					142.9,114.4 147.1,101.5 136.1,93.5 149.7,93.5 				"/>
				<g id="Calque_31" class="st29">
					<g id="Calque_28" class="st30">
						<path id="XMLID_1_" class="st31" d="M124.5,145.2c0,0-0.3,8.1,4.8,8.2c5.1,0.1,8.7,0,8.7,0s5.1-0.7,4.8-8.2H124.5z"/>
						<circle id="XMLID_6_" class="st32" cx="135.6" cy="148.3" r="2.7"/>
						<circle id="XMLID_8_" class="st33" cx="135.6" cy="148.3" r="2.7"/>
						<path id="XMLID_10_" class="st34" d="M142.8,140.7H125c-1.9,0-3.4,1.5-3.4,3.3v2.5c0,0.4,0.3,0.8,0.8,0.8h2.6h17.8h2.6
							c0.4,0,0.8-0.3,0.8-0.8V144C146.2,142.2,144.7,140.7,142.8,140.7z"/>
						<g id="XMLID_9_" class="st35">
							<path id="XMLID_11_" class="st36" d="M137.3,140.7c0,0.1,0,0.2,0.1,0.3c0.1,0.4,0.1,0.8,0.2,1.2c0,0.3,0.1,0.5,0,0.8
								c-0.1,0.4-0.4,0.6-0.7,0.9c-1,0.9-1.7,2.1-2,3.4h4.9c0-0.2,0-0.3,0-0.5c0-0.6-0.2-1.2,0.1-1.8c0.1-0.3,0.4-0.5,0.6-0.7
								c1-1,1.6-2.2,1.8-3.6H137.3z"/>
							<path id="XMLID_22_" class="st36" d="M129.7,147.3c0-0.1,0-0.2,0-0.3c0-0.3,0-0.5,0.1-0.8c0.1-0.3,0.3-0.6,0.6-0.8
								c1.1-1.2,2-2.6,2.7-4.1c0.1-0.2,0.1-0.3,0.2-0.5h-5.6c-0.1,0.2-0.1,0.5-0.2,0.7c-0.2,1.1-0.3,2.3-0.8,3.4
								c-0.2,0.5-0.6,0.9-0.9,1.4c-0.2,0.3-0.3,0.7-0.5,1H129.7z"/>
						</g>
						<path id="XMLID_2_" class="st32" d="M142.8,140.7H125c-1.9,0-3.4,1.5-3.4,3.3v2.4c0,0.5,0.4,0.9,0.9,0.9h2.5h17.8h2.5
							c0.5,0,0.9-0.4,0.9-0.9V144C146.2,142.2,144.7,140.7,142.8,140.7z"/>
					</g>
					<g id="Calque_28_-_copie_2" class="st30">
						<path id="XMLID_29_" class="st31" d="M186.3,145.2c0,0,0.3,8.1-4.8,8.2c-5.1,0.1-8.7,0-8.7,0s-5.1-0.7-4.8-8.2H186.3z"/>
						<circle id="XMLID_28_" class="st32" cx="175.3" cy="148.3" r="2.7"/>
						<circle id="XMLID_27_" class="st33" cx="175.3" cy="148.3" r="2.7"/>
						<path id="XMLID_26_" class="st34" d="M168,140.7h17.8c1.9,0,3.4,1.5,3.4,3.3v2.5c0,0.4-0.3,0.8-0.8,0.8h-2.6H168h-2.6
							c-0.4,0-0.8-0.3-0.8-0.8V144C164.6,142.2,166.1,140.7,168,140.7z"/>
						<g id="XMLID_23_" class="st35">
							<path id="XMLID_25_" class="st36" d="M173.5,140.7c0,0.1,0,0.2-0.1,0.3c-0.1,0.4-0.1,0.8-0.2,1.2c0,0.3-0.1,0.5,0,0.8
								c0.1,0.4,0.4,0.6,0.7,0.9c1,0.9,1.7,2.1,2,3.4h-4.9c0-0.2,0-0.3,0-0.5c0-0.6,0.2-1.2-0.1-1.8c-0.1-0.3-0.4-0.5-0.6-0.7
								c-1-1-1.6-2.2-1.8-3.6H173.5z"/>
							<path id="XMLID_24_" class="st36" d="M181.2,147.3c0-0.1,0-0.2,0-0.3c0-0.3,0-0.5-0.1-0.8c-0.1-0.3-0.3-0.6-0.6-0.8
								c-1.1-1.2-2-2.6-2.7-4.1c-0.1-0.2-0.1-0.3-0.2-0.5h5.6c0.1,0.2,0.1,0.5,0.2,0.7c0.2,1.1,0.3,2.3,0.8,3.4
								c0.2,0.5,0.6,0.9,0.9,1.4c0.2,0.3,0.3,0.7,0.5,1H181.2z"/>
						</g>
						<path id="XMLID_7_" class="st32" d="M168,140.7h17.8c1.9,0,3.4,1.5,3.4,3.3v2.4c0,0.5-0.4,0.9-0.9,0.9h-2.5H168h-2.5
							c-0.5,0-0.9-0.4-0.9-0.9V144C164.6,142.2,166.1,140.7,168,140.7z"/>
					</g>
				</g>
				<g id="Calque_31_-_copie" class="st29">
					<g id="Calque_28_-_copie" class="st30">
						<path id="XMLID_21_" class="st9" d="M140.7,145.3c0.4,0.7,0.8,1.4,1.2,2c0.2,0.4,0.5,0.8,0.6,1.2c0.1,0.5,0.1,0.9,0.1,1.4
							c0,0.2,0,0.5-0.3,0.6c-0.1,0.1-0.3,0.1-0.5,0c-1.1-0.1-2.2-0.3-3.3-0.3c-2.3,0-4.7,0.5-6.8,1.4c-0.5,0.2-1.1,0.5-1.7,0.7
							c-0.2,0-0.3,0.1-0.5,0c-0.4-0.1-0.7-0.5-1-0.9c-0.3-0.4-0.5-1-0.2-1.4c0.2-0.2,0.5-0.3,0.7-0.5c0.4-0.4,0.3-1,0.4-1.5
							c0.1-0.6,0.5-1.1,1-1.4s1-0.6,1.6-0.7c1.3-0.4,2.6-0.5,3.9-0.7c1.7-0.2,3.5-0.4,5,0.4"/>
						<path id="XMLID_19_" d="M129.2,152.6c0.9-0.9,2.1-1.4,3.4-1.7c2.8-0.7,5.8-0.9,8.7-0.6c-1.2-1,1.7-0.6,2.7,0.8
							c0.1,0.1,0.2,0.3,0.1,0.4c-0.1,0.1-0.2,0.1-0.3,0.1c-0.8,0-1.5-0.1-2.3-0.1c-3.1-0.3-6.3-0.4-9.2,0.7
							c-1.2,0.5-2.5,1.2-3.7,0.8"/>
						<path id="XMLID_34_" class="st13" d="M142.8,140.7H125c-1.9,0-3.4,1.6-3.4,3.6v2.8c0,0.5,0.3,0.8,0.8,0.8h2.6l16.5,0.1
							c0.9,0,1.8,0.1,2.6,0.4l1.3,0.3c0.4,0.1,0.8-0.2,0.9-0.6l0.7-2.7C147.6,143.5,144.7,140.7,142.8,140.7z"/>
						<g id="XMLID_31_" class="st35">
							<path id="XMLID_33_" class="st36" d="M137.3,140.7c0,0.1,0,0.2,0.1,0.4c0.1,0.4,0.1,0.8,0.2,1.3c0,0.3,0.1,0.6,0,0.9
								c-0.1,0.4-0.4,0.7-0.7,1c-1,1-1.7,2.4-2,3.8l4.9,0c0-0.2,0-0.5,0-0.7c0-0.6-0.2-1.3,0.1-1.9c0.1-0.3,0.4-0.5,0.6-0.8
								c1-1,1.6-2.4,1.8-3.9H137.3z"/>
							<path id="XMLID_32_" class="st36" d="M129.7,147.8c0-0.1,0-0.2,0-0.4c0-0.3,0-0.6,0.1-0.8c0.1-0.3,0.3-0.6,0.6-0.9
								c1.1-1.3,2-2.8,2.7-4.5c0.1-0.2,0.1-0.4,0.2-0.6h-5.6c-0.1,0.3-0.1,0.5-0.2,0.8c-0.2,1.2-0.3,2.5-0.8,3.7
								c-0.2,0.5-0.6,1-0.9,1.5c-0.2,0.4-0.3,0.7-0.5,1.1H129.7z"/>
						</g>
						<path id="XMLID_20_" class="st37" d="M119.7,151.3C119.7,151.3,119.6,151.3,119.7,151.3"/>
						<path id="XMLID_5_" class="st32" d="M142.8,140.7H125c-1.9,0-3.4,1.6-3.4,3.6v2.8c0,0.5,0.3,0.8,0.8,0.8h2.6l16.5,0.1
							c0.9,0,1.8,0.1,2.6,0.4l1.3,0.3c0.4,0.1,0.8-0.2,0.9-0.6l0.7-2.7C147.6,143.5,144.7,140.7,142.8,140.7z"/>
					</g>
					<g id="Calque_28_-_copie_3" class="st30">
						<path id="XMLID_36_" class="st9" d="M170.9,145.1c-0.4,0.7-0.8,1.4-1.2,2c-0.2,0.4-0.5,0.8-0.6,1.2c-0.1,0.5-0.1,0.9-0.1,1.4
							c0,0.2,0,0.5,0.3,0.6c0.1,0.1,0.3,0.1,0.5,0c1.1-0.1,2.2-0.3,3.3-0.3c2.3,0,4.7,0.5,6.8,1.4c0.5,0.2,1.1,0.5,1.7,0.7
							c0.2,0,0.3,0.1,0.5,0c0.4-0.1,0.7-0.5,1-0.9c0.3-0.4,0.5-1,0.2-1.4c-0.2-0.2-0.5-0.3-0.7-0.5c-0.4-0.4-0.3-1-0.4-1.5
							c-0.1-0.6-0.5-1.1-1-1.4c-0.5-0.3-1-0.6-1.6-0.7c-1.3-0.4-2.6-0.5-3.9-0.7c-1.7-0.2-3.5-0.4-5,0.4"/>
						<path id="XMLID_42_" d="M181.5,152.6c-0.9-0.9-2.1-1.4-3.4-1.7c-2.8-0.7-5.8-0.9-8.7-0.6c1.2-1-1.7-0.6-2.7,0.8
							c-0.1,0.1-0.2,0.3-0.1,0.4c0.1,0.1,0.2,0.1,0.3,0.1c0.8,0,1.5-0.1,2.3-0.1c3.1-0.3,6.3-0.4,9.2,0.7c1.2,0.5,2.5,1.2,3.7,0.8"
							/>
						<path id="XMLID_41_" class="st13" d="M167.9,140.7h17.8c1.9,0,3.4,1.6,3.4,3.6v2.8c0,0.5-0.3,0.8-0.8,0.8h-2.6l-16.5,0.1
							c-0.9,0-1.8,0.1-2.6,0.4l-1.3,0.3c-0.4,0.1-0.8-0.2-0.9-0.6l-0.7-2.7C163.2,143.5,166,140.7,167.9,140.7z"/>
						<g id="XMLID_17_" class="st35">
							<path id="XMLID_30_" class="st36" d="M173.4,140.7c0,0.1,0,0.2-0.1,0.4c-0.1,0.4-0.1,0.8-0.2,1.3c0,0.3-0.1,0.6,0,0.9
								c0.1,0.4,0.4,0.7,0.7,1c1,1,1.7,2.4,2,3.8l-4.9,0c0-0.2,0-0.5,0-0.7c0-0.6,0.2-1.3-0.1-1.9c-0.1-0.3-0.4-0.5-0.6-0.8
								c-1-1-1.6-2.4-1.8-3.9H173.4z"/>
							<path id="XMLID_18_" class="st36" d="M181.1,147.8c0-0.1,0-0.2,0-0.4c0-0.3,0-0.6-0.1-0.8c-0.1-0.3-0.3-0.6-0.6-0.9
								c-1.1-1.3-2-2.8-2.7-4.5c-0.1-0.2-0.1-0.4-0.2-0.6h5.6c0.1,0.3,0.1,0.5,0.2,0.8c0.2,1.2,0.3,2.5,0.8,3.7
								c0.2,0.5,0.6,1,0.9,1.5c0.2,0.4,0.3,0.7,0.5,1.1H181.1z"/>
						</g>
						<path id="XMLID_16_" class="st37" d="M191.1,151.3C191.1,151.3,191.1,151.3,191.1,151.3"/>
						<path id="XMLID_12_" class="st32" d="M167.9,140.7h17.8c1.9,0,3.4,1.6,3.4,3.6v2.8c0,0.5-0.3,0.8-0.8,0.8h-2.6l-16.5,0.1
							c-0.9,0-1.8,0.1-2.6,0.4l-1.3,0.3c-0.4,0.1-0.8-0.2-0.9-0.6l-0.7-2.7C163.2,143.5,166,140.7,167.9,140.7z"/>
					</g>
				</g>
				<g id="Calque_36" class="st29">
					<g id="Calque_7" class="st30">
						<path id="XMLID_38_" class="st25" d="M161.4,195.8l-6,0.3c-1,0.1-1.8-0.7-1.9-1.7l0,0c-0.1-1,0.7-1.8,1.7-1.9l6-0.3
							c1-0.1,1.8,0.7,1.9,1.7l0,0C163.1,194.9,162.3,195.8,161.4,195.8z"/>
						<path id="XMLID_39_" class="st38" d="M149.5,194.9c1.7-2.1,4.5-3,7.2-3.2s5.4,0,8-0.4"/>
					</g>
					<g id="Calque_7_-_copie">
						<path id="XMLID_43_" class="st39" d="M161.4,195.8l-6,0.3c-1,0.1-1.8-0.7-1.9-1.7l0,0c-0.1-1,0.7-1.8,1.7-1.9l6-0.3
							c1-0.1,1.8,0.7,1.9,1.7l0,0C163.1,194.9,162.3,195.8,161.4,195.8z"/>
						<path id="XMLID_44_" class="st40" d="M148.5,193.3c3.3,0,5.5-1.3,8.2-1.6s5.4,0,8-0.4"/>
					</g>
					<g id="Calque_7_-_copie_2">
						<path id="XMLID_53_" class="st39" d="M161.4,195.8l-6,0.3c-1,0.1-1.8-0.7-1.9-1.7l0,0c-0.1-1,0.7-1.8,1.7-1.9l6-0.3
							c1-0.1,1.8,0.7,1.9,1.7l0,0C163.1,194.9,162.3,195.8,161.4,195.8z"/>
						<path id="XMLID_54_" class="st40" d="M149.1,191.5c3.3,0,4.9,0.4,7.6,0.2s6.4,0,9.1,1.1"/>
					</g>
				</g>
			</g>
		</g>
		<circle id="XMLID_4_" class="st41" cx="152" cy="147.8" r="114.3"/>
		<circle id="XMLID_195_" class="st42" cx="152" cy="147.8" r="114.3"/>
	</g>
</g>
<g id="Calque_5">
	<path id="XMLID_59_" class="st43" d="M239.3,68l28.5,8.3c3.1,0.9,13.5,2.7,15.5,0.3c1.2-1.4-7.4-8.2-8.9-9.1l-9.1-7.1
		c-2.4-2.5-4-4.8,1-7.1l9.2-1.3c6.9-0.8,15.2-0.4,14.9-2.2c-0.4-3.1-10.1-4.8-13.2-5.7l-28.5-8.3c-5.7-1.7-11.8,1.9-13.6,7.9
		l-3,10.5c-0.9,3.1-2.7,7.4-1.3,10C232.1,66.4,236.6,67.2,239.3,68z"/>
	
		<radialGradient id="XMLID_46_" cx="255.9904" cy="-16132.5332" r="26.0126" gradientTransform="matrix(1 0 0 -1 0 -16082)" gradientUnits="userSpaceOnUse">
		<stop  offset="0" style="stop-color:#77BDE9"/>
		<stop  offset="1" style="stop-color:#3864AE"/>
	</radialGradient>
	<path id="XMLID_60_" class="st44" d="M235,62l28.5,8.3c3.1,0.9,13.5,2.7,15.5,0.3c1.2-1.4-7.4-8.2-8.9-9.1l-9.1-7.1
		c-2.4-2.5-4-4.8,1-7.1l9.2-1.3c6.9-0.8,15.2-0.4,14.9-2.2c-0.4-3.1-10.1-4.8-13.2-5.7l-28.5-8.3c-5.7-1.7-11.8,1.9-13.6,7.9
		l-3,10.5c-0.9,3.1-2.7,7.4-1.3,10C227.8,60.4,232.3,61.2,235,62z"/>
	<path id="XMLID_62_" class="st43" d="M60.7,67l-28.5,8.3c-3.1,0.9-13.5,2.7-15.5,0.3c-1.2-1.4,7.4-8.2,8.9-9.1l9.1-7.1
		c2.4-2.5,4-4.8-1-7.1L24.6,51c-6.9-0.8-15.2-0.4-14.9-2.2c0.4-3.1,10.1-4.8,13.2-5.7l28.5-8.3c5.7-1.7,11.8,1.9,13.6,7.9l3,10.5
		c0.9,3.1,2.7,7.4,1.3,10C67.9,65.5,63.4,66.2,60.7,67z"/>
	
		<radialGradient id="XMLID_47_" cx="518.7751" cy="49.5615" r="26.0126" gradientTransform="matrix(-1 0 0 1 562.7847 0)" gradientUnits="userSpaceOnUse">
		<stop  offset="0" style="stop-color:#77BDE9"/>
		<stop  offset="1" style="stop-color:#3864AE"/>
	</radialGradient>
	<path id="XMLID_61_" class="st45" d="M65,61l-28.5,8.3C33.4,70.2,23.1,72,21,69.6c-1.2-1.4,7.4-8.2,8.9-9.1l9.1-7.1
		c2.4-2.5,4-4.8-1-7.1L28.9,45C22,44.2,13.7,44.6,14,42.7c0.4-3.1,10.1-4.8,13.2-5.7l28.5-8.3c5.7-1.7,11.8,1.9,13.6,7.9l3,10.5
		c0.9,3.1,2.7,7.4,1.3,10C72.2,59.5,67.7,60.2,65,61z"/>
	<g id="XMLID_58_" class="st35">
		<path id="XMLID_52_" class="st3" d="M236,56.5c-56-15.8-115.3-15.8-171.3,0c-6.4,1.8-13.4-1.6-15.5-7.8c-1.4-4.4-2.9-8.9-4.3-13.3
			c-2.1-6.3,2.1-13.3,9.5-15.4c62.8-17.7,129.2-17.7,192,0c7.3,2.1,11.5,9.2,9.5,15.4c-1.4,4.4-2.9,8.9-4.3,13.3
			C249.4,54.9,242.5,58.3,236,56.5z"/>
	</g>
	<g id="XMLID_55_">
		<radialGradient id="XMLID_48_" cx="150.3696" cy="27.4743" r="77.0222" gradientUnits="userSpaceOnUse">
			<stop  offset="0" style="stop-color:#77BDE9"/>
			<stop  offset="1" style="stop-color:#3864AE"/>
		</radialGradient>
		<path id="XMLID_15_" class="st46" d="M236.6,51.5c-56.4-15.9-116.1-15.9-172.5,0c-6.4,1.8-13.4-1.6-15.5-7.8c-1.3-4-2.6-8-3.9-12
			c-2.1-6.3,2.1-13.3,9.4-15.4c62.9-17.8,129.5-17.8,192.4,0c7.3,2.1,11.5,9.1,9.4,15.4c-1.3,4-2.6,8-3.9,12
			C250,49.9,243.1,53.3,236.6,51.5z"/>
		<path id="XMLID_14_" class="st47" d="M236.6,51.5c-56.4-15.9-116.1-15.9-172.5,0c-6.4,1.8-13.4-1.6-15.5-7.8c-1.3-4-2.6-8-3.9-12
			c-2.1-6.3,2.1-13.3,9.4-15.4c62.9-17.8,129.5-17.8,192.4,0c7.3,2.1,11.5,9.1,9.4,15.4c-1.3,4-2.6,8-3.9,12
			C250,49.9,243.1,53.3,236.6,51.5z"/>
	</g>
	<g id="XMLID_3_">
		<g id="XMLID_336_">
			<path id="XMLID_379_" class="st36" d="M68.9,25.2c0.6,4.5,1.3,9,2,13.6c-1.8,0.5-3.5,1.1-5.3,1.6c-2-4.1-4.1-8.2-6.2-12.3
				c1.3-0.4,2.6-0.8,3.8-1.2c1.6,3.4,2.8,6.4,3.7,8.8c-0.6-2.6-1.1-4.8-1.4-6.8c-0.2-0.8-0.3-1.7-0.5-2.5
				C66.3,25.9,67.6,25.6,68.9,25.2z"/>
			<path id="XMLID_376_" class="st36" d="M75.8,23.3c1.8,4.2,3.7,8.4,5.4,12.6c-1.2,0.3-2.4,0.6-3.6,0.9c-0.3-0.8-0.5-1.5-0.8-2.3
				c-0.4,0.1-0.8,0.2-1.3,0.3c0.1,0.8,0.3,1.6,0.4,2.4c-1.2,0.3-2.4,0.7-3.6,1c-0.7-4.5-1.3-9-1.9-13.6C72.3,24.2,74,23.7,75.8,23.3
				z M76.1,32.2c-0.6-1.4-1.3-3.2-2-5.4c0.3,2.6,0.6,4.5,0.8,5.7C75.3,32.4,75.7,32.3,76.1,32.2z"/>
			<path id="XMLID_374_" class="st36" d="M86.8,20.6c1,4.4,2,8.8,2.9,13.2c-1,0.2-2.1,0.5-3.1,0.7c-1.1-1.9-2.2-3.7-3.3-5.6
				c0.5,2,1,4,1.4,6c-1,0.2-2,0.5-2.9,0.7c-1.1-4.4-2.2-8.8-3.3-13.2c1-0.3,2.1-0.5,3.1-0.8c1.2,1.8,2.3,3.6,3.5,5.5
				c-0.5-2-0.9-4-1.4-5.9C84.7,21.1,85.7,20.9,86.8,20.6z"/>
			<path id="XMLID_371_" class="st36" d="M99.2,31.9c0.1,0.5,0.2,1.1,0.3,1.6c-0.9,0.2-1.8,0.3-2.7,0.5c-0.6,0.1-1.1,0.2-1.4,0.1
				c-0.3,0-0.5-0.2-0.6-0.3c-0.1-0.2-0.2-0.5-0.3-1c-0.8,0.1-1.5,0.1-2.2-0.2c-0.7-0.3-1.1-0.7-1.5-1.2c-0.3-0.6-0.6-1.4-0.9-2.6
				c-0.3-1.4-0.6-2.7-0.9-4.1c-0.2-0.9-0.3-1.6-0.3-2.1c0-0.5,0.1-1,0.4-1.5c0.3-0.5,0.7-0.9,1.2-1.2c0.5-0.3,1.1-0.6,1.8-0.7
				c0.8-0.2,1.6-0.2,2.3,0c0.7,0.1,1.2,0.4,1.6,0.7c0.4,0.3,0.7,0.7,0.9,1.1c0.2,0.4,0.3,1.1,0.5,1.9c0.3,1.4,0.5,2.9,0.8,4.3
				c0.2,1.2,0.3,2,0.3,2.4c0,0.4-0.2,0.8-0.5,1.1c-0.3,0.3-0.7,0.6-1.2,0.8c0.1,0.3,0.2,0.5,0.3,0.5c0.1,0.1,0.4,0,0.8,0
				C98.4,32.1,98.8,32,99.2,31.9z M93.7,22.7c-0.1-0.6-0.2-1-0.3-1.2c-0.1-0.2-0.3-0.2-0.5-0.2c-0.2,0-0.3,0.1-0.4,0.3
				c-0.1,0.2,0,0.6,0.1,1.3c0.4,2.1,0.8,4.1,1.3,6.2c0.2,0.8,0.3,1.2,0.4,1.4c0.1,0.2,0.3,0.2,0.5,0.2c0.2,0,0.4-0.2,0.4-0.4
				c0-0.2,0-0.7-0.2-1.5C94.5,26.8,94.1,24.8,93.7,22.7z"/>
			<path id="XMLID_369_" class="st36" d="M106.6,16.9c0.5,3,0.9,6,1.4,9c0.2,1,0.2,1.7,0.2,2.2c0,0.4-0.1,0.9-0.4,1.4
				c-0.3,0.5-0.7,0.9-1.2,1.2c-0.5,0.3-1.1,0.5-1.9,0.6c-0.8,0.1-1.6,0.1-2.2,0c-0.7-0.2-1.2-0.4-1.6-0.8c-0.4-0.4-0.7-0.8-0.8-1.2
				c-0.1-0.5-0.3-1.4-0.6-2.9c-0.5-2.6-1-5.3-1.4-7.9c1.2-0.2,2.5-0.4,3.7-0.7c0.6,3.3,1.1,6.7,1.7,10c0.1,0.6,0.2,1,0.3,1.1
				c0.1,0.2,0.2,0.2,0.4,0.2c0.2,0,0.4-0.2,0.4-0.3c0-0.2,0-0.6-0.1-1.3c-0.5-3.3-1.1-6.6-1.6-9.9C104.1,17.3,105.3,17.1,106.6,16.9
				z"/>
			<path id="XMLID_367_" class="st36" d="M111.8,16.2c0.6,4.5,1.2,9,1.8,13.4c-1.2,0.2-2.4,0.3-3.6,0.5c-0.7-4.5-1.3-8.9-2-13.4
				C109.3,16.5,110.5,16.4,111.8,16.2z"/>
			<path id="XMLID_365_" class="st36" d="M121.6,19.2c-1.1,0.1-2.3,0.2-3.4,0.4c0-0.3-0.1-0.7-0.1-1c-0.1-0.5-0.1-0.8-0.2-0.9
				c-0.1-0.1-0.3-0.2-0.5-0.1c-0.2,0-0.4,0.1-0.5,0.3c-0.1,0.2-0.1,0.5-0.1,0.8c0.1,0.4,0.2,0.8,0.3,1c0.1,0.2,0.5,0.4,1.1,0.7
				c1.7,0.7,2.8,1.4,3.3,1.9c0.5,0.6,0.8,1.5,0.9,2.8c0.1,1,0.1,1.7-0.1,2.2c-0.2,0.5-0.6,0.9-1.2,1.3c-0.6,0.4-1.4,0.6-2.2,0.7
				c-1,0.1-1.8,0-2.5-0.2c-0.7-0.3-1.2-0.7-1.5-1.2c-0.3-0.5-0.5-1.3-0.6-2.3c0-0.3-0.1-0.6-0.1-0.9c1.1-0.1,2.2-0.3,3.4-0.4
				c0.1,0.5,0.1,1.1,0.2,1.6c0.1,0.5,0.1,0.8,0.3,1c0.1,0.1,0.3,0.2,0.5,0.2c0.2,0,0.4-0.1,0.5-0.3c0.1-0.2,0.1-0.5,0.1-0.8
				c-0.1-0.8-0.3-1.3-0.5-1.5c-0.3-0.2-0.9-0.6-1.8-1c-1-0.5-1.6-0.8-2-1c-0.3-0.2-0.6-0.6-0.9-1c-0.3-0.4-0.4-1-0.5-1.7
				c-0.1-1-0.1-1.8,0.1-2.3c0.2-0.5,0.6-0.9,1.2-1.3c0.6-0.3,1.3-0.6,2.2-0.7c1-0.1,1.8-0.1,2.5,0.2c0.7,0.2,1.2,0.5,1.5,1
				c0.3,0.4,0.5,1.2,0.6,2.2C121.6,18.8,121.6,19,121.6,19.2z"/>
			<path id="XMLID_363_" class="st36" d="M131.3,14.2c0.3,4.5,0.6,9,0.9,13.5c-1.2,0.1-2.4,0.2-3.6,0.3c-0.2-1.9-0.3-3.8-0.5-5.7
				c-0.4,0-0.7,0.1-1.1,0.1c0.2,1.9,0.3,3.8,0.5,5.7c-1.2,0.1-2.4,0.2-3.6,0.3c-0.4-4.5-0.9-9-1.3-13.5c1.3-0.1,2.5-0.2,3.8-0.3
				c0.1,1.6,0.3,3.2,0.4,4.8c0.4,0,0.7-0.1,1.1-0.1c-0.1-1.6-0.3-3.2-0.4-4.8C128.8,14.4,130.1,14.3,131.3,14.2z"/>
			<path id="XMLID_361_" class="st36" d="M143.6,13.7c0,0.9,0,1.8,0.1,2.7c-0.7,0-1.5,0-2.2,0.1c0.1,3.6,0.2,7.2,0.4,10.8
				c-1.2,0-2.4,0.1-3.6,0.1c-0.2-3.6-0.3-7.2-0.5-10.8c-0.7,0-1.5,0.1-2.2,0.1c0-0.9-0.1-1.8-0.1-2.7
				C138.1,13.9,140.9,13.8,143.6,13.7z"/>
			<path id="XMLID_359_" class="st36" d="M153.1,13.6c0,4.5-0.1,9-0.1,13.6c-1.2,0-2.4,0-3.6,0c0-1.9,0-3.8,0-5.7
				c-0.4,0-0.7,0-1.1,0c0,1.9,0,3.8,0.1,5.7c-1.2,0-2.4,0-3.6,0.1c-0.1-4.5-0.2-9-0.3-13.6c1.3,0,2.5,0,3.8-0.1c0,1.6,0,3.2,0,4.9
				c0.4,0,0.7,0,1.1,0c0-1.6,0-3.2,0-4.9C150.6,13.6,151.9,13.6,153.1,13.6z"/>
			<path id="XMLID_357_" class="st36" d="M154.6,13.6c2.1,0,4.2,0.1,6.3,0.1c0,0.9-0.1,1.8-0.1,2.7c-0.8,0-1.7-0.1-2.5-0.1
				c0,0.9,0,1.7-0.1,2.6c0.8,0,1.5,0,2.3,0.1c0,0.9-0.1,1.7-0.1,2.6c-0.8,0-1.5,0-2.3-0.1c0,1,0,2-0.1,3c0.9,0,1.8,0,2.7,0.1
				c0,0.9-0.1,1.8-0.1,2.7c-2.1-0.1-4.2-0.1-6.2-0.1C154.5,22.7,154.6,18.1,154.6,13.6z"/>
			<path id="XMLID_353_" class="st36" d="M165.5,13.9c1.3,0.1,2.5,0.1,3.8,0.2c1.2,0.1,2.1,0.2,2.7,0.4c0.6,0.2,1.1,0.6,1.4,1.2
				c0.3,0.6,0.5,1.4,0.4,2.6c-0.1,0.8-0.2,1.3-0.5,1.6c-0.3,0.3-0.8,0.5-1.6,0.6c0.8,0.2,1.4,0.6,1.7,1c0.3,0.4,0.4,1.1,0.3,2
				c0,0.4-0.1,0.8-0.1,1.3c-0.1,0.9-0.2,1.6-0.5,2c-0.2,0.4-0.6,0.7-1.1,0.8c-0.5,0.1-1.4,0.1-2.9,0c-1.4-0.1-2.8-0.2-4.2-0.2
				C165,23,165.3,18.5,165.5,13.9z M169.1,16.5c-0.1,1-0.1,2-0.2,3c0.2,0,0.3,0,0.4,0c0.4,0,0.6,0,0.7-0.2c0.1-0.2,0.2-0.6,0.2-1.4
				c0-0.4,0-0.7-0.1-0.9c-0.1-0.2-0.2-0.3-0.3-0.3C169.7,16.5,169.5,16.5,169.1,16.5z M168.8,21.6c-0.1,1.3-0.2,2.5-0.2,3.8
				c0.5,0,0.8,0,1-0.2c0.1-0.1,0.2-0.5,0.3-1c0-0.4,0.1-0.8,0.1-1.3c0-0.6,0-0.9-0.1-1.1C169.7,21.7,169.3,21.6,168.8,21.6z"/>
			<path id="XMLID_351_" class="st36" d="M179.3,15c-0.3,3.6-0.7,7.2-1,10.8c0.7,0.1,1.5,0.1,2.2,0.2c-0.1,0.9-0.2,1.8-0.3,2.7
				c-1.9-0.2-3.8-0.4-5.8-0.5c0.4-4.5,0.8-9,1.1-13.5C176.8,14.7,178.1,14.8,179.3,15z"/>
			<path id="XMLID_349_" class="st36" d="M191,16.3c-0.4,3-0.8,6-1.2,9c-0.1,1-0.3,1.7-0.4,2.1c-0.1,0.4-0.4,0.8-0.8,1.2
				c-0.4,0.4-0.9,0.7-1.5,0.8c-0.6,0.2-1.2,0.2-2,0.1c-0.8-0.1-1.5-0.3-2.1-0.7c-0.6-0.3-1-0.7-1.3-1.2c-0.3-0.5-0.4-0.9-0.4-1.4
				c0-0.5,0.1-1.5,0.2-3c0.3-2.7,0.6-5.3,0.9-8c1.2,0.1,2.5,0.3,3.7,0.4c-0.4,3.4-0.8,6.7-1.2,10.1c-0.1,0.6-0.1,1,0,1.1
				c0,0.2,0.2,0.3,0.4,0.3c0.2,0,0.4,0,0.5-0.2c0.1-0.2,0.2-0.6,0.3-1.3c0.4-3.3,0.8-6.6,1.2-9.9C188.5,16,189.8,16.1,191,16.3z"/>
			<path id="XMLID_347_" class="st36" d="M192.5,16.5c2.1,0.3,4.2,0.6,6.2,0.9c-0.1,0.9-0.3,1.8-0.4,2.7c-0.8-0.1-1.6-0.3-2.5-0.4
				c-0.1,0.8-0.3,1.7-0.4,2.5c0.8,0.1,1.5,0.2,2.3,0.4c-0.1,0.8-0.3,1.7-0.4,2.5c-0.8-0.1-1.5-0.2-2.3-0.4c-0.2,1-0.3,2-0.5,2.9
				c0.9,0.1,1.8,0.3,2.6,0.4c-0.1,0.9-0.3,1.8-0.4,2.7c-2.1-0.3-4.1-0.7-6.2-0.9C191.2,25.5,191.8,21,192.5,16.5z"/>
			<path id="XMLID_344_" class="st36" d="M209.6,19.5c-0.2,4.6-0.4,9.1-0.7,13.7c-1.2-0.3-2.4-0.5-3.6-0.7c0.1-0.8,0.2-1.6,0.3-2.4
				c-0.4-0.1-0.9-0.2-1.3-0.2c-0.2,0.8-0.4,1.6-0.7,2.4c-1.2-0.2-2.4-0.5-3.7-0.7c1.4-4.3,2.8-8.7,4.2-13
				C206.1,18.8,207.8,19.1,209.6,19.5z M206,27.6c0.1-1.5,0.3-3.4,0.5-5.7c-0.9,2.5-1.5,4.3-1.8,5.5C205.2,27.5,205.6,27.5,206,27.6
				z"/>
			<path id="XMLID_341_" class="st36" d="M212.4,20c0.9,0.2,1.7,0.4,2.6,0.6c1.7,0.4,2.9,0.7,3.5,1c0.6,0.3,1,0.7,1.3,1.3
				c0.3,0.6,0.3,1.5,0,2.6c-0.2,1-0.5,1.7-0.9,2c-0.4,0.3-0.9,0.4-1.7,0.3c0.7,0.3,1.1,0.7,1.3,1c0.2,0.3,0.3,0.6,0.3,0.9
				c0,0.3-0.1,0.9-0.4,2c-0.3,1.2-0.6,2.3-0.8,3.5c-1.1-0.3-2.2-0.5-3.3-0.8c0.3-1.5,0.7-2.9,1-4.4c0.2-0.7,0.2-1.2,0.1-1.4
				c-0.1-0.2-0.4-0.4-0.9-0.5c-0.4,2-0.9,4-1.3,6c-1.2-0.3-2.4-0.5-3.5-0.8C210.5,28.9,211.4,24.4,212.4,20z M215.6,23.1
				c-0.2,1-0.4,2-0.7,2.9c0.4,0.1,0.7,0.1,0.9,0c0.2-0.1,0.3-0.4,0.5-1c0.1-0.2,0.1-0.5,0.2-0.7c0.1-0.4,0.1-0.7-0.1-0.9
				C216.3,23.3,216,23.2,215.6,23.1z"/>
			<path id="XMLID_339_" class="st36" d="M233.4,25.3c-1.3,4.3-2.5,8.7-3.8,13c-1-0.3-2-0.6-3-0.9c0.8-2.9,1.6-5.9,2.4-8.8
				c-1.2,2.8-2.5,5.7-3.7,8.5c-0.7-0.2-1.4-0.4-2.2-0.6c0.3-3,0.7-6,1-9c-0.7,2.9-1.5,5.8-2.2,8.7c-1-0.3-2-0.5-3.1-0.8
				c1.1-4.4,2.2-8.8,3.3-13.2c1.6,0.4,3.2,0.8,4.8,1.2c-0.1,0.8-0.2,1.8-0.3,2.9c-0.1,1.2-0.2,2.3-0.4,3.5c0.8-2,1.6-3.9,2.5-5.9
				C230.2,24.4,231.8,24.8,233.4,25.3z"/>
			<path id="XMLID_337_" class="st36" d="M242.6,28.1c-1.8,2.5-3.5,4.9-5.2,7.4c-0.5,1.6-1,3.1-1.5,4.7c-1.1-0.3-2.1-0.7-3.2-1
				c0.5-1.6,0.9-3.1,1.4-4.7c0-3,0-6-0.1-9c1.1,0.3,2.2,0.7,3.3,1c-0.2,2.7-0.5,4.5-0.7,5.4c0.6-1.3,1.5-2.9,2.6-4.8
				C240.4,27.4,241.5,27.7,242.6,28.1z"/>
		</g>
	</g>
</g>
</svg>
