<?xml version="1.0" encoding="utf-8"?>
<!-- Generator: Adobe Illustrator 19.0.0, SVG Export Plug-In . SVG Version: 6.00 Build 0)  -->
<svg version="1.0" xmlns="http://www.w3.org/2000/svg" xmlns:xlink="http://www.w3.org/1999/xlink" x="0px" y="0px"
	 viewBox="0 0 500 500" style="enable-background:new 0 0 500 500;" xml:space="preserve">
<style type="text/css">
	.st0{opacity:0.25;fill:#7D5E35;}
	.st1{opacity:0.25;fill:#674B2D;}
	.st2{opacity:0.25;fill:#8F6A40;}
	.st3{opacity:0.25;fill:#442E1B;}
	.st4{display:none;}
	.st5{display:inline;opacity:0.25;fill:#205830;}
	.st6{display:inline;opacity:0;fill:#BA8663;}
	.st7{display:inline;opacity:0;fill:#8C6038;}
	.st8{display:inline;opacity:0;fill:#A48A7B;}
	.st9{display:inline;opacity:0;fill:#B17F4A;}
</style>
<g id="Calque_1">
</g>
<g id="Calque_18">
	<g id="Calque_7">
		<g id="Calque_4">
			<path id="XMLID_5_" class="st0" d="M154.7,269.1c-3.7-1.4-6.7,3.5-6.9,7.5s0.4,8.7-2.8,11.2c-0.8,0.6-1.7,1-2.4,1.7
				c-1.7,1.7-1.1,4.7,0.3,6.6s3.6,3.1,5.4,4.7c5.1,4.5,7.2,12.1,5.2,18.7c-0.5,1.6-1.3,3.3-1.1,5c0.3,3,3.4,4.8,6.3,5.9
				c4.2,1.7,8.8,2.8,13.3,1.8c4.4-1,8.5-4.7,8.7-9.2c0.2-5.4-4.8-10.7-2.7-15.7c1.5-3.6,6-4.8,9.2-7.1c5-3.6,6.5-11.9,1.9-15.9
				c-5-4.3-13.5-1.7-18.3-6.1c-3.3-3-3.6-8.3-1.7-12.3c1.9-4,5.6-6.9,9.4-9.3c1.7-1.1,3.6-2.1,4.9-3.6c3.8-4.3,2.4-11.7-2.1-15.2
				c-4.5-3.5-11.1-3.5-16.3-0.9c-1.7,0.8-3.3,1.9-4.4,3.5c-3,4.2-1.3,9.9-0.1,14.9c1.2,5,1.2,11.5-3.4,13.8"/>
			<path id="XMLID_6_" class="st0" d="M115.2,254.4c-0.8,3.4,3,7.3,6,9.2s6.9,2,10.2,0.7c3.6-1.4,6.7-4.5,10.6-4.4
				c3.5,0,7.7,2.3,9.8-0.4c0.6-0.8,0.8-1.9,0.8-2.9c-0.2-6.1-7.3-11.2-5.6-17c0.8-2.7,3.2-4.5,4.9-6.7c2.6-3.3,3.6-7.9,2.3-11.9
				c-1.4-4-5.3-7.1-9.5-7.1c-1.7,0-3.4,0.5-5-0.2c-3.2-1.3-3.2-5.8-4.5-9c-1.8-4.4-7.4-6.7-11.8-5c-4.4,1.7-6.9,7.2-5.3,11.7
				c2.2,6.1,10.6,9.1,11.3,15.6c0.3,3.3-1.5,6.3-3.6,8.8s-4.7,4.6-6.4,7.4C117.4,246.5,115.4,250.4,115.2,254.4"/>
			<path id="XMLID_8_" class="st1" d="M76.8,246.1c-1.7-0.3-0.9-2.9,0.5-3.9c4.2-2.9,9.8-1.9,14.9-1.4c5.1,0.5,11.3-0.4,13.5-5
				c1.1-2.2,1.5-5.3,3.8-5.7c0.7-0.1,1.4,0,2.1,0c3.6-0.2,5.2-5.2,3.5-8.4s-5.3-4.8-8.7-6.2c-3.4-1.4-7-2.9-8.9-6
				c-2.3-3.9-1.2-8.8-0.5-13.3c0.2-1.6,0.4-3.3-0.2-4.8c-1.6-4.1-7.4-4.4-11.4-2.6c-6.4,3-10.6,10.4-9.8,17.5
				c0.3,3.4,1.4,7.5-1.3,9.6c-0.6,0.5-1.3,0.8-1.9,1.2c-2,1.5-2.2,4.7-0.5,6.5c2.2,2.2,6.4,1.7,8,4.4c1.4,2.3-0.3,5.3-2.6,6.6
				c-2.3,1.3-5,1.4-7.6,2c-2.6,0.6-5.3,1.8-6.2,4.3c-0.6,1.6-0.3,3.3,0.4,4.8C66.4,250.5,85.1,248.6,76.8,246.1"/>
			<path id="XMLID_9_" class="st2" d="M55.8,310.1c-1.9,0.9-3.9-0.8-4.9-2.6c-3.4-6.2-0.4-15,6-17.8c1.2-0.5,2.5-0.9,3.5-1.8
				c2.9-2.8,0-7.4-2.2-10.8c-5.7-8.6-6.7-19.4-7.6-29.6c-0.2-2.8-0.5-5.6,0.3-8.3c0.5-2,1.6-3.9,1.4-5.9c-0.3-3.2-3.7-5.4-6.9-5.8
				c-8-1-15.7,7.1-14.4,15c0.9,5.2,4.9,10.4,3,15.3c-2.2,5.7-10.2,6.1-16,4.3c-1.9-0.6-3.9-1.3-5.9-1.1c-5.2,0.6-7.3,8.9-2.9,11.8
				c4.3,2.8,10.1-0.1,15.1,0.8c6.8,1.3,9.9,11.4,4.9,16.3c-1.7,1.7-4,2.7-5.5,4.4c-2.6,2.9-2.8,7.7-0.4,10.8
				c2.2,2.8,6.3,4.2,7.5,7.6c1.5,4.2-1.5,10.4,2.4,12.5c0.8,0.5,1.8,0.6,2.8,0.6c3.7,0.3,7.5,0.3,11.2,0.2c3.5-0.2,7.2-0.6,10.2-2.4
				c3-1.8,5.2-5.4,4.4-8.9c-0.8-3.4-5.4-5.7-8.2-3.5"/>
			<path id="XMLID_4_" class="st0" d="M115,271.5c-1.2,1-5.5-1.8-5.6-3.4c-0.4-3.7-0.2-7.5-1.3-11c-1.2-3.5-4.4-6.7-8.1-6.3
				c-3.3,0.4-5.5,3.5-8.1,5.7c-4.9,4.2-12.4,5.2-18.2,2.4c-3.6,1.8-6,5.8-5.9,9.8c0.1,4,2.7,7.9,6.4,9.5c2.5,1.1,5.8,1.4,7.1,3.9
				c1.7,3.2-1.5,6.9-4.8,8.4s-7.3,2.4-9.2,5.5c-1.7,2.8-1.1,6.4,0.4,9.4c2.1,4.4,6,8,10.8,9.2c4.7,1.2,10.2-0.3,13.2-4.2
				c0.8-1,1.4-2.2,2.5-2.8c0.8-0.4,1.7-0.5,2.6-0.5c4.1,0.1,8.2,2.1,10.7,5.4c1.7,2.2,2.9,5.2,5.5,6.3c4.2,1.9,8.8-2.1,11-6.2
				c3.2-5.9,4.2-14.2-1-18.4c-3.2-2.5-8.5-3.7-8.7-7.8c-0.1-2.9,2.7-4.8,5-6.5s4.6-4.6,3.2-7.1C121.2,270.6,116.2,270.1,115,271.5"
				/>
		</g>
		<g id="Calque_4_-_copie">
			<path id="XMLID_49_" class="st1" d="M178.4,433.4c-4,0.5-4.3,6.3-2.6,9.9s4.4,7.5,2.8,11.2c-0.4,0.9-1,1.7-1.3,2.6
				c-0.6,2.3,1.2,4.7,3.4,5.7c2.2,1,4.7,1.1,7,1.6c6.6,1.6,12.1,7.3,13.3,14c0.3,1.7,0.4,3.5,1.4,4.9c1.7,2.5,5.3,2.7,8.3,2.3
				c4.5-0.5,9.1-1.7,12.6-4.6s5.3-8.1,3.3-12.2c-2.3-4.9-9.3-7.2-9.7-12.6c-0.3-3.9,3-7.1,4.8-10.6c2.7-5.5,0.2-13.6-5.8-14.9
				c-6.4-1.4-12.7,4.8-19,3.3c-4.3-1.1-7.1-5.6-7.3-10.1c-0.2-4.4,1.7-8.7,3.9-12.6c1-1.8,2.2-3.5,2.6-5.5c1.4-5.6-3.3-11.4-9-12.4
				c-5.6-1-11.5,2.2-14.8,6.8c-1.1,1.5-2,3.3-2.3,5.1c-0.7,5.1,3.5,9.3,6.9,13.2s6.4,9.6,3.5,13.8"/>
			<path id="XMLID_48_" class="st0" d="M105.8,428.4c-3.5,0.5-5.8,5.3-6.6,8.8c-0.7,3.4,0.5,7.2,2.9,9.8c2.6,2.9,6.5,4.8,7.8,8.4
				c1.1,3.3,0.5,8,3.8,9.1c1,0.3,2,0.1,3-0.2c5.7-2.2,8-10.7,14.1-11.1c2.8-0.2,5.3,1.5,8,2.4c4,1.3,8.7,0.7,12-1.9
				c3.3-2.7,4.8-7.4,3.4-11.4c-0.6-1.6-1.6-3.1-1.6-4.7c0.1-3.5,4.4-5,6.9-7.4c3.5-3.2,3.8-9.2,0.7-12.8c-3.1-3.5-9.1-4-12.7-1
				c-5,4.2-4.9,13.1-10.8,15.9c-2.9,1.4-6.5,0.8-9.5-0.4c-3.1-1.2-5.9-2.8-9.1-3.5C113.9,427.7,109.6,427.2,105.8,428.4"/>
			<path id="XMLID_47_" class="st2" d="M45.8,428c-1.1-1.3,1.2-2.8,2.9-2.6c5.1,0.5,8.7,4.9,12.3,8.5c3.6,3.6,8.9,7,13.5,4.9
				c2.2-1,4.5-3.1,6.6-1.9c0.6,0.3,1,0.9,1.6,1.3c2.9,2.2,7.4-0.6,8.1-4.2c0.7-3.6-1-7.1-2.7-10.3c-1.7-3.2-3.5-6.7-2.9-10.3
				c0.7-4.5,4.7-7.5,8.1-10.5c1.2-1.1,2.4-2.3,2.9-3.8c1.4-4.1-2.8-8.2-7-9.3c-6.9-1.8-14.8,1.1-18.8,7c-1.9,2.8-3.8,6.7-7.2,6.6
				c-0.8,0-1.5-0.3-2.3-0.3c-2.4-0.1-4.7,2.2-4.5,4.7c0.3,3.1,3.8,5.5,3.3,8.5c-0.4,2.6-3.6,3.9-6.2,3.4c-2.6-0.5-4.8-2.1-7.1-3.4
				s-5.2-2-7.5-0.7c-1.4,0.8-2.4,2.3-2.8,4C35,424.7,50.5,435.2,45.8,428"/>
			<path id="XMLID_45_" class="st1" d="M64.6,384.5c-1.5-1.4-0.6-4,0.8-5.5c4.6-5.3,13.9-5.5,18.8-0.4c0.9,0.9,1.7,2.1,2.9,2.6
				c3.6,1.7,7-2.5,9.4-5.7c6.1-8.3,15.9-12.9,25.3-17.3c2.5-1.2,5.1-2.4,7.9-2.6c2-0.2,4.2,0.2,6-0.7c2.9-1.4,3.8-5.3,3-8.4
				c-1.8-7.8-12-12.3-19-8.4c-4.6,2.6-8.1,8.1-13.4,8c-6.1-0.1-9.2-7.5-9.5-13.6c-0.1-2-0.1-4.1-1-6c-2.3-4.7-10.8-3.8-12,1.3
				c-1.2,5,3.6,9.4,4.4,14.5c1.1,6.9-7.3,13.2-13.6,10.2c-2.1-1-3.9-2.8-6-3.7c-3.6-1.5-8.2,0-10.2,3.3c-1.9,3.1-1.8,7.3-4.5,9.6
				c-3.4,2.9-10.3,2.1-11,6.5c-0.1,0.9,0.1,1.9,0.4,2.8c1,3.6,2.2,7.2,3.7,10.6c1.4,3.3,3,6.5,5.8,8.8c2.7,2.2,6.9,3.1,9.8,1.1
				c3-1.9,3.5-7,0.5-8.9"/>
			<path id="XMLID_43_" class="st0" d="M160.8,399.1c-1.4-0.7-0.2-5.7,1.2-6.4c3.3-1.6,7-2.7,9.8-5s4.8-6.4,3.1-9.7
				c-1.5-3-5.2-4-8.1-5.7c-5.6-3.2-9.1-9.9-8.5-16.3c-2.9-2.8-7.5-3.6-11.2-2.1c-3.7,1.5-6.5,5.3-6.7,9.3c-0.2,2.8,0.6,6-1.2,8
				c-2.4,2.7-7,1-9.5-1.6c-2.5-2.6-4.7-6-8.3-6.7c-3.2-0.7-6.4,1.2-8.7,3.5c-3.4,3.5-5.5,8.4-5,13.3c0.5,4.8,3.8,9.5,8.4,10.9
				c1.2,0.4,2.5,0.6,3.5,1.4c0.7,0.6,1,1.4,1.3,2.2c1.3,3.9,0.8,8.4-1.4,11.9c-1.5,2.4-3.9,4.5-4.1,7.3c-0.4,4.6,5,7.5,9.6,8.2
				c6.6,1,14.8-0.9,16.9-7.2c1.3-3.8,0.6-9.3,4.3-10.8c2.7-1.1,5.4,0.9,7.8,2.5c2.4,1.6,5.9,2.7,7.8,0.6
				C163.7,404.6,162.4,399.7,160.8,399.1"/>
		</g>
		<g id="Calque_4_-_copie_2">
			<path id="XMLID_19_" class="st2" d="M260.4,293.6c-1.6,3.7,3.2,6.9,7.2,7.3c4,0.4,8.7,0.1,11.1,3.3c0.6,0.8,0.9,1.7,1.6,2.4
				c1.7,1.7,4.6,1.4,6.6,0c2-1.4,3.3-3.4,5-5.2c4.8-4.9,12.5-6.6,18.9-4.2c1.6,0.6,3.2,1.5,4.9,1.3c3-0.2,5-3.2,6.3-5.9
				c1.9-4.1,3.3-8.7,2.5-13.2c-0.8-4.5-4.2-8.7-8.7-9.1c-5.4-0.5-10.9,4.2-15.8,1.9c-3.6-1.7-4.5-6.2-6.6-9.6
				c-3.3-5.2-11.6-7.1-15.8-2.7c-4.5,4.7-2.4,13.4-7,18c-3.1,3.2-8.5,3.2-12.4,1.1c-3.9-2.1-6.6-5.9-8.8-9.8c-1-1.8-1.9-3.7-3.3-5.1
				c-4.1-4-11.5-3-15.3,1.3c-3.7,4.3-4,10.9-1.8,16.2c0.7,1.7,1.8,3.4,3.3,4.6c4,3.2,9.8,1.8,14.9,0.8c5-0.9,11.5-0.6,13.6,4.1"/>
			<path id="XMLID_18_" class="st1" d="M243.6,332.3c3.4,0.9,7.5-2.6,9.5-5.5c2-2.9,2.3-6.8,1.2-10.1c-1.3-3.7-4.1-6.9-3.9-10.8
				c0.2-3.4,2.7-7.6,0.1-9.8c-0.8-0.7-1.8-0.9-2.8-0.9c-6.1-0.2-11.5,6.7-17.3,4.7c-2.6-0.9-4.3-3.4-6.4-5.3
				c-3.2-2.8-7.7-4-11.8-2.9s-7.3,4.9-7.5,9.2c-0.1,1.7,0.3,3.4-0.4,5c-1.5,3.2-6,2.9-9.2,4.1c-4.4,1.6-7.1,7-5.6,11.5
				s6.9,7.2,11.4,5.8c6.2-1.9,9.6-10.1,16.1-10.5c3.3-0.2,6.3,1.8,8.6,4.1c2.4,2.3,4.4,4.9,7.1,6.8
				C235.9,329.7,239.6,331.9,243.6,332.3"/>
			<path id="XMLID_17_" class="st0" d="M233.4,370.2c-0.4,1.6-3,0.7-3.8-0.7c-2.6-4.4-1.4-9.9-0.6-15c0.7-5.1,0.2-11.3-4.3-13.8
				c-2.1-1.2-5.2-1.7-5.5-4.1c-0.1-0.7,0.1-1.4,0.1-2.1c0-3.6-5-5.5-8.2-3.9c-3.3,1.6-5.1,5.1-6.6,8.4s-3.2,6.8-6.4,8.5
				c-4,2.1-8.8,0.7-13.3-0.1c-1.6-0.3-3.3-0.6-4.8,0c-4.1,1.4-4.8,7.2-3.1,11.2c2.7,6.6,9.8,11.1,16.9,10.7c3.4-0.2,7.6-1,9.5,1.7
				c0.4,0.6,0.7,1.4,1.1,2c1.4,2,4.6,2.4,6.4,0.8c2.3-2.1,2.1-6.3,4.8-7.8c2.3-1.2,5.3,0.5,6.4,2.9c1.2,2.4,1.2,5.1,1.6,7.7
				c0.4,2.6,1.5,5.4,4,6.4c1.5,0.7,3.3,0.5,4.8-0.2C237.3,380.9,236.3,362.1,233.4,370.2"/>
			<path id="XMLID_16_" class="st0" d="M296.3,394.5c0.8,1.9-1,3.9-2.9,4.8c-6.3,3.1-15-0.3-17.5-6.9c-0.5-1.2-0.8-2.6-1.6-3.5
				c-2.7-3-7.4-0.4-10.9,1.6c-8.9,5.2-19.7,5.7-30,6.1c-2.8,0.1-5.6,0.2-8.3-0.7c-1.9-0.6-3.8-1.8-5.8-1.7c-3.2,0.1-5.5,3.4-6.1,6.6
				c-1.4,7.9,6.3,16,14.3,15.2c5.3-0.6,10.6-4.3,15.5-2.2c5.6,2.5,5.6,10.5,3.5,16.2c-0.7,1.9-1.5,3.8-1.4,5.9
				c0.3,5.2,8.5,7.7,11.6,3.5c3.1-4.1,0.4-10.1,1.6-15c1.7-6.7,11.9-9.3,16.5-4.1c1.6,1.8,2.5,4.1,4.1,5.8c2.8,2.8,7.6,3.2,10.7,0.9
				c2.9-2.1,4.5-6,7.9-7.1c4.3-1.3,10.3,2.1,12.6-1.7c0.5-0.8,0.7-1.8,0.8-2.7c0.5-3.7,0.7-7.5,0.7-11.2c0-3.5-0.2-7.2-1.9-10.3
				s-5.1-5.5-8.6-4.9c-3.5,0.6-6,5.1-3.9,8"/>
			<path id="XMLID_15_" class="st0" d="M260.7,333.3c1,1.2-2.1,5.4-3.6,5.4c-3.7,0.2-7.5-0.2-11,0.8c-3.6,1-6.9,4.1-6.7,7.7
				c0.2,3.3,3.2,5.7,5.3,8.4c3.9,5.1,4.5,12.6,1.5,18.3c1.6,3.7,5.5,6.3,9.5,6.4c4,0.1,8-2.3,9.8-5.9c1.2-2.5,1.7-5.7,4.2-6.9
				c3.3-1.6,6.8,1.8,8.1,5.2c1.3,3.4,2,7.4,5,9.4c2.7,1.9,6.4,1.4,9.4,0.1c4.5-1.9,8.3-5.6,9.7-10.3s0.2-10.2-3.5-13.4
				c-1-0.8-2.1-1.5-2.6-2.7c-0.4-0.8-0.4-1.7-0.3-2.6c0.3-4.1,2.5-8,5.9-10.4c2.3-1.6,5.3-2.6,6.6-5.2c2.1-4.1-1.7-8.8-5.6-11.3
				c-5.7-3.5-14-4.9-18.4,0.1c-2.7,3-4.1,8.3-8.2,8.3c-2.9-0.1-4.6-3-6.2-5.4c-1.6-2.4-4.4-4.8-6.9-3.6
				C260.2,327.2,259.4,332.2,260.7,333.3"/>
		</g>
	</g>
	<g id="Calque_7_-_copie">
		<g id="Calque_4_-_copie_3_2_">
			<path id="XMLID_34_" class="st1" d="M360.2,242.5c3.9,0.8,6.2-4.5,5.8-8.5c-0.4-4-1.6-8.6,1.1-11.5c0.7-0.7,1.5-1.2,2.1-2
				c1.4-2,0.4-4.8-1.3-6.5c-1.7-1.7-4-2.6-6-3.9c-5.7-3.7-8.9-11-7.8-17.7c0.3-1.7,0.8-3.4,0.4-5.1c-0.8-2.9-4.1-4.3-7-5
				c-4.4-1-9.2-1.5-13.4,0.1c-4.2,1.6-7.7,5.8-7.3,10.4c0.5,5.4,6.3,9.9,4.9,15.1c-1,3.8-5.3,5.6-8.1,8.4c-4.4,4.3-4.7,12.7,0.4,16
				c5.5,3.5,13.6-0.3,19,3.3c3.7,2.5,4.8,7.7,3.5,11.9c-1.3,4.2-4.5,7.6-7.9,10.5c-1.6,1.3-3.2,2.6-4.3,4.3
				c-3.2,4.8-0.7,11.9,4.3,14.7c5,2.8,11.5,1.8,16.3-1.4c1.6-1.1,3-2.4,3.9-4.1c2.3-4.6-0.2-10-2.1-14.7c-1.9-4.8-2.8-11.2,1.4-14.2
				"/>
			<path id="XMLID_33_" class="st3" d="M401.4,251.4c0.3-3.5-4-6.8-7.3-8.2c-3.2-1.4-7.1-0.9-10.2,0.8c-3.3,1.9-6,5.4-9.8,5.9
				c-3.4,0.5-8-1.2-9.7,1.8c-0.5,0.9-0.5,2-0.4,3c1,6,8.8,10,8,16.1c-0.4,2.8-2.5,4.9-3.9,7.3c-2.1,3.7-2.5,8.4-0.5,12.1
				c1.9,3.7,6.3,6.2,10.4,5.6c1.7-0.2,3.3-0.9,5-0.6c3.4,0.8,4,5.3,5.8,8.3c2.4,4,8.3,5.6,12.4,3.2c4.1-2.3,5.8-8.1,3.5-12.3
				c-3.1-5.8-11.8-7.5-13.4-13.8c-0.8-3.2,0.5-6.5,2.3-9.2s4-5.2,5.3-8.3C400.4,259.6,401.8,255.4,401.4,251.4"/>
			<path id="XMLID_32_" class="st0" d="M440.6,254.1c1.7,0,1.3,2.8,0.1,3.9c-3.8,3.4-9.5,3.3-14.6,3.5c-5.1,0.3-11.1,2-12.7,6.9
				c-0.7,2.3-0.7,5.4-3,6.2c-0.6,0.2-1.4,0.2-2,0.3c-3.6,0.7-4.4,5.9-2.2,8.8s6,4,9.5,4.8c3.5,0.9,7.3,1.8,9.6,4.6
				c2.9,3.5,2.4,8.5,2.5,13.1c0,1.6,0.1,3.3,0.9,4.8c2.2,3.8,8,3.3,11.6,0.9c5.9-3.9,9-11.8,7.2-18.7c-0.8-3.3-2.5-7.2-0.1-9.7
				c0.5-0.6,1.2-0.9,1.7-1.5c1.7-1.7,1.5-5-0.5-6.5c-2.5-1.9-6.6-0.8-8.6-3.2c-1.7-2-0.5-5.3,1.6-6.9c2.1-1.6,4.8-2.1,7.2-3.1
				c2.5-0.9,5-2.6,5.5-5.1c0.4-1.6-0.2-3.3-1.1-4.7C450.3,248.2,432.1,252.8,440.6,254.1"/>
			<path id="XMLID_31_" class="st3" d="M452.2,187.7c1.7-1.1,4,0.2,5.3,1.9c4.3,5.6,2.6,14.8-3.4,18.5c-1.1,0.7-2.4,1.2-3.2,2.3
				c-2.4,3.2,1,7.4,3.7,10.4c6.9,7.7,9.4,18.2,11.8,28.2c0.6,2.7,1.3,5.5,0.9,8.3c-0.3,2-1,4.1-0.6,6c0.7,3.2,4.4,4.8,7.7,4.7
				c8-0.2,14.5-9.3,12.1-16.9c-1.6-5.1-6.3-9.6-5.2-14.7c1.3-6,9.2-7.5,15.3-6.6c2,0.3,4.1,0.8,6,0.3c5.1-1.3,5.9-9.8,1.1-12.1
				c-4.6-2.2-9.9,1.6-15.1,1.4c-6.9-0.3-11.4-9.9-7.2-15.4c1.4-1.9,3.5-3.2,4.9-5.2c2.2-3.2,1.6-8-1.2-10.7
				c-2.6-2.5-6.8-3.2-8.5-6.4c-2.1-3.9,0-10.5-4.1-12.1c-0.9-0.3-1.9-0.3-2.8-0.2c-3.7,0.3-7.5,0.7-11.2,1.5c-3.5,0.7-7,1.6-9.7,3.9
				c-2.7,2.2-4.4,6.1-3.1,9.4s6.2,4.8,8.6,2.3"/>
			<path id="XMLID_30_" class="st0" d="M399.1,234.5c1-1.2,5.7,1,6,2.5c0.9,3.6,1.2,7.4,2.9,10.7c1.7,3.3,5.3,6,8.9,5
				c3.2-0.9,5-4.3,7.2-6.8c4.3-4.9,11.5-6.9,17.7-5c3.3-2.3,5.1-6.6,4.4-10.6c-0.7-4-3.8-7.4-7.7-8.5c-2.7-0.7-6-0.6-7.6-2.8
				c-2.2-2.9,0.5-7,3.5-9s6.8-3.4,8.3-6.7c1.3-3,0.1-6.5-1.7-9.2c-2.7-4-7.1-7.1-12-7.6c-4.8-0.5-10,1.8-12.4,6
				c-0.6,1.1-1.1,2.3-2.1,3.1c-0.7,0.5-1.6,0.7-2.5,0.8c-4.1,0.5-8.4-0.9-11.3-3.8c-2-2-3.6-4.7-6.3-5.5c-4.5-1.3-8.4,3.4-10,7.7
				c-2.3,6.3-2.1,14.7,3.6,18c3.5,2,9,2.4,9.7,6.4c0.5,2.8-2,5.1-4.1,7.1c-2,2-3.9,5.2-2.1,7.5C393.2,236.2,398.2,236,399.1,234.5"
				/>
		</g>
		<g id="Calque_4_-_copie_3_1_">
			<path id="XMLID_35_" class="st0" d="M313.1,83.4c3.8-1.1,3.3-6.9,1.1-10.2s-5.5-6.8-4.4-10.7c0.3-0.9,0.8-1.8,0.9-2.8
				c0.3-2.4-1.9-4.4-4.2-5.1c-2.3-0.7-4.8-0.4-7.2-0.6c-6.8-0.6-13-5.5-15.2-12c-0.5-1.6-0.9-3.4-2.1-4.7c-2.1-2.2-5.6-1.9-8.6-1.1
				c-4.4,1.2-8.8,3-11.8,6.4c-3,3.4-4.1,8.8-1.5,12.5c3,4.5,10.2,5.8,11.4,11c0.9,3.8-2,7.4-3.2,11.2c-1.9,5.9,1.8,13.5,7.9,13.9
				c6.5,0.5,11.8-6.6,18.4-6c4.4,0.4,7.8,4.6,8.7,8.9c0.8,4.4-0.4,8.9-2.1,13c-0.8,1.9-1.6,3.8-1.8,5.8c-0.5,5.7,5,10.8,10.7,11
				c5.7,0.1,11-3.8,13.7-8.9c0.9-1.7,1.5-3.5,1.5-5.4c-0.1-5.1-4.8-8.7-8.7-12c-3.9-3.3-7.7-8.6-5.4-13.2"/>
			<path id="XMLID_29_" class="st1" d="M385.7,77.9c3.4-1,5-6.1,5.2-9.6c0.2-3.5-1.5-7-4.2-9.3c-3-2.5-7.1-3.8-8.9-7.2
				c-1.6-3.1-1.6-7.9-5-8.5c-1-0.2-2,0.2-2.9,0.7c-5.3,3-6.4,11.7-12.4,13c-2.7,0.6-5.5-0.7-8.2-1.2c-4.2-0.7-8.7,0.6-11.6,3.7
				c-2.9,3.1-3.7,8-1.7,11.7c0.8,1.5,2,2.8,2.2,4.5c0.4,3.5-3.6,5.6-5.8,8.3c-3,3.7-2.4,9.7,1.2,12.7c3.6,3.1,9.6,2.6,12.7-0.9
				c4.3-4.9,3-13.6,8.4-17.3c2.7-1.8,6.3-1.7,9.5-1s6.3,2,9.6,2.1C377.7,79.7,382,79.6,385.7,77.9"/>
			<path id="XMLID_28_" class="st0" d="M322.7,168.1c-0.4,1.6-3,0.7-3.8-0.7c-2.6-4.4-1.3-9.9-0.6-15c0.7-5.1,0.3-11.3-4.2-13.8
				c-2.1-1.2-5.2-1.8-5.5-4.1c-0.1-0.7,0.1-1.4,0.1-2c0-3.6-4.9-5.5-8.2-4c-3.3,1.6-5.1,5.1-6.6,8.3c-1.5,3.3-3.3,6.8-6.5,8.5
				c-4,2.1-8.8,0.7-13.3-0.2c-1.6-0.3-3.3-0.6-4.8-0.1c-4.1,1.4-4.8,7.2-3.2,11.2c2.7,6.6,9.8,11.1,16.9,10.8c3.4-0.2,7.6-1,9.5,1.8
				c0.4,0.6,0.7,1.4,1.1,2c1.4,2,4.6,2.4,6.4,0.8c2.3-2.1,2.1-6.3,4.9-7.8c2.3-1.2,5.3,0.6,6.4,2.9s1.1,5.1,1.6,7.7s1.5,5.4,3.9,6.5
				c1.5,0.7,3.3,0.5,4.8-0.1C326.5,178.8,325.7,160.1,322.7,168.1"/>
			<path id="XMLID_27_" class="st0" d="M432.7,115.4c1.7,1.2,1.1,3.9,0,5.6c-3.8,5.9-13,7.5-18.6,3.1c-1-0.8-2-1.8-3.2-2.2
				c-3.8-1.2-6.6,3.5-8.5,7c-4.9,9.1-13.9,15.1-22.5,20.7c-2.3,1.5-4.7,3.1-7.4,3.7c-2,0.4-4.2,0.4-5.9,1.5c-2.7,1.8-3,5.8-1.8,8.8
				c2.9,7.5,13.7,10.5,20.1,5.6c4.2-3.2,6.8-9.2,12.1-9.9c6.1-0.8,10.2,6.1,11.4,12.1c0.4,2,0.7,4.1,1.8,5.8c3,4.3,11.2,2.2,11.7-3
				c0.5-5.1-4.9-8.8-6.4-13.7c-2.1-6.6,5.4-14.1,12-12c2.3,0.7,4.2,2.2,6.5,2.8c3.8,0.9,8.1-1.2,9.6-4.8c1.4-3.3,0.7-7.5,3.1-10.2
				c3-3.3,9.9-3.6,9.9-8c0-1-0.4-1.9-0.8-2.7c-1.5-3.4-3.3-6.8-5.2-10c-1.8-3-3.9-6-7-7.8c-3-1.8-7.3-2-9.9,0.3
				c-2.6,2.3-2.4,7.5,0.8,8.8"/>
			<path id="XMLID_26_" class="st0" d="M335.5,114.7c1.5,0.5,1,5.7-0.3,6.5c-3,2.1-6.5,3.7-9,6.4c-2.5,2.7-3.8,7.1-1.7,10.1
				c1.9,2.7,5.7,3.2,8.8,4.4c6,2.4,10.4,8.5,10.8,14.9c3.3,2.3,7.9,2.5,11.4,0.5c3.5-2,5.6-6.1,5.3-10.1c-0.2-2.8-1.5-5.8,0-8.1
				c2-3,6.8-2,9.7,0.2c2.9,2.2,5.5,5.3,9.2,5.5c3.3,0.2,6.2-2.1,8.1-4.8c2.8-4,4.2-9.1,3-13.8c-1.2-4.7-5.1-8.8-9.9-9.6
				c-1.2-0.2-2.6-0.2-3.6-0.9c-0.7-0.5-1.2-1.2-1.6-2c-1.9-3.7-2-8.2-0.3-11.9c1.2-2.6,3.2-5,3-7.8c-0.3-4.6-6-6.7-10.7-6.7
				c-6.7,0-14.5,3-15.7,9.6c-0.7,4,0.8,9.3-2.7,11.3c-2.5,1.4-5.5-0.1-8.1-1.4c-2.6-1.2-6.3-1.9-7.8,0.5
				C331.8,109.8,333.7,114.4,335.5,114.7"/>
		</g>
		<g id="Calque_4_-_copie_3">
			<path id="XMLID_24_" class="st1" d="M133.6,159.4c-3.5,1.8-1.9,7.4,0.9,10.2c2.8,2.8,6.7,5.6,6.4,9.6c-0.1,1-0.4,1.9-0.3,2.9
				c0.2,2.4,2.7,4,5.1,4.2c2.4,0.2,4.8-0.5,7.1-0.8c6.8-0.8,13.9,2.8,17.3,8.8c0.9,1.5,1.5,3.2,2.9,4.2c2.5,1.8,5.9,0.7,8.6-0.6
				c4.1-2,8-4.6,10.3-8.6c2.2-3.9,2.3-9.4-0.9-12.6c-3.8-3.8-11.1-3.7-13.4-8.6c-1.6-3.6,0.5-7.7,0.9-11.6
				c0.7-6.1-4.4-12.9-10.5-12.1c-6.5,0.8-10.3,8.8-16.8,9.5c-4.4,0.5-8.6-2.9-10.2-7.1c-1.7-4.1-1.3-8.8-0.5-13.1
				c0.4-2,0.9-4,0.6-6.1c-0.6-5.7-7-9.7-12.6-8.7c-5.6,1-10.1,5.9-11.7,11.4c-0.5,1.8-0.8,3.8-0.4,5.6c1.1,5,6.4,7.6,10.9,10.1
				s9.3,6.9,7.9,11.8"/>
			<path id="XMLID_23_" class="st0" d="M204.2,217.5c-3.5-0.4-7,3.7-8.6,6.8c-1.6,3.2-1.3,7,0.3,10.2c1.8,3.4,5.1,6.3,5.4,10.1
				c0.3,3.4-1.6,7.9,1.3,9.7c0.9,0.5,1.9,0.6,2.9,0.5c6.1-0.7,10.4-8.3,16.4-7.1c2.7,0.5,4.8,2.8,7.1,4.3c3.5,2.3,8.2,2.9,12.1,1.1
				c3.8-1.7,6.5-5.9,6.1-10.1c-0.2-1.7-0.8-3.4-0.3-5c1-3.3,5.5-3.7,8.6-5.4c4.2-2.2,6-8,3.9-12.2c-2.1-4.2-7.8-6.2-12.1-4.1
				c-5.9,2.8-8.1,11.4-14.5,12.7c-3.2,0.6-6.5-0.9-9.1-2.8s-5-4.3-8-5.7C212.2,218.9,208.2,217.3,204.2,217.5"/>
			<path id="XMLID_22_" class="st3" d="M264,200.2c0.1-1.7,2.8-1.2,3.9,0.1c3.2,4,2.8,9.6,2.8,14.7c0,5.1,1.4,11.2,6.2,13
				c2.2,0.9,5.4,1,6.1,3.3c0.2,0.7,0.1,1.4,0.2,2c0.5,3.6,5.7,4.7,8.7,2.7c3-2,4.3-5.8,5.3-9.2c1-3.5,2.2-7.2,5.1-9.4
				c3.6-2.7,8.6-2,13.2-1.8c1.6,0.1,3.3,0.1,4.8-0.7c3.9-2,3.7-7.8,1.5-11.6c-3.6-6.1-11.3-9.6-18.3-8.2c-3.3,0.7-7.3,2.1-9.7-0.3
				c-0.5-0.5-0.9-1.2-1.4-1.8c-1.6-1.8-4.9-1.7-6.5,0.2c-2,2.4-1.1,6.6-3.6,8.4c-2.1,1.6-5.3,0.2-6.8-1.9c-1.5-2.2-1.9-4.9-2.7-7.4
				s-2.3-5.1-4.8-5.8c-1.6-0.4-3.3,0-4.8,0.9C258.6,190.3,262.3,208.7,264,200.2"/>
			<path id="XMLID_21_" class="st0" d="M202,138.8c-1.1-1.8,0.5-4,2.2-5.2c5.8-4,14.9-1.8,18.3,4.3c0.6,1.1,1.1,2.4,2.1,3.3
				c3.1,2.6,7.4-0.7,10.5-3.2c8-6.5,18.7-8.5,28.8-10.3c2.7-0.5,5.6-1,8.3-0.5c2,0.4,4,1.2,6,0.9c3.2-0.6,5-4.2,5.1-7.4
				c0.2-8-8.5-15-16.3-12.9c-5.1,1.3-9.9,5.8-15,4.4c-5.9-1.6-7-9.6-5.8-15.6c0.4-2,1-4,0.6-6c-1-5.2-9.5-6.4-12-1.8
				c-2.4,4.5,1.1,10,0.6,15.1c-0.7,6.9-10.4,10.9-15.7,6.4c-1.8-1.5-3-3.7-4.9-5.1c-3.1-2.3-7.9-2.1-10.8,0.7
				c-2.6,2.5-3.6,6.6-6.8,8.2c-4,1.9-10.5-0.6-12.3,3.5c-0.4,0.9-0.4,1.9-0.4,2.8c0.1,3.8,0.4,7.5,0.9,11.2c0.5,3.5,1.2,7.1,3.3,9.9
				c2.1,2.8,5.9,4.7,9.2,3.6c3.3-1.1,5.2-5.9,2.7-8.5"/>
			<path id="XMLID_20_" class="st0" d="M246,194.2c-1.1-1.1,1.3-5.6,2.8-5.9c3.6-0.7,7.4-0.9,10.8-2.4c3.4-1.5,6.3-5,5.5-8.6
				c-0.7-3.3-4-5.2-6.4-7.5c-4.6-4.5-6.3-11.8-4.1-17.9c-2.1-3.4-6.3-5.4-10.3-4.9c-4,0.5-7.6,3.4-8.8,7.3c-0.9,2.6-0.9,5.9-3.2,7.5
				c-3,2-7-0.8-8.8-4c-1.8-3.1-3-7-6.3-8.6c-2.9-1.4-6.5-0.5-9.3,1.2c-4.2,2.5-7.4,6.8-8.2,11.6s1.3,10.1,5.4,12.7
				c1.1,0.7,2.3,1.2,3,2.3c0.5,0.7,0.6,1.6,0.7,2.5c0.3,4.1-1.3,8.3-4.3,11.1c-2.1,1.9-4.9,3.4-5.8,6.1c-1.5,4.4,2.9,8.5,7.2,10.3
				c6.1,2.6,14.5,2.9,18.2-2.7c2.2-3.4,2.9-8.9,6.9-9.3c2.8-0.3,5,2.3,6.9,4.4s5,4.2,7.4,2.5C247.5,200.3,247.5,195.2,246,194.2"/>
		</g>
	</g>
	<g id="Calque_7_-_copie_2">
		<g id="Calque_4_-_copie_4_2_">
			<path id="XMLID_54_" class="st3" d="M292.4,499c-2.2,3.3,2,7.4,5.8,8.4c3.8,1.1,8.6,1.6,10.3,5.1c0.4,0.9,0.6,1.9,1.2,2.7
				c1.3,2,4.3,2.1,6.5,1.1c2.2-1,3.9-2.8,5.8-4.2c5.5-4,13.4-4.4,19.3-1c1.5,0.9,2.9,2,4.6,2.2c3,0.3,5.5-2.3,7.2-4.8
				c2.5-3.7,4.7-8,4.7-12.5s-2.7-9.3-7.1-10.5c-5.2-1.4-11.5,2.3-15.9-0.8c-3.2-2.3-3.4-6.9-4.9-10.6c-2.4-5.7-10.2-9-15.1-5.3
				c-5.2,3.9-4.6,12.8-9.9,16.6c-3.6,2.6-8.9,1.7-12.4-1c-3.5-2.8-5.5-7-7-11.2c-0.7-1.9-1.3-3.9-2.4-5.6
				c-3.3-4.7-10.9-4.9-15.3-1.3c-4.4,3.6-5.8,10.1-4.5,15.7c0.4,1.8,1.2,3.7,2.4,5.1c3.4,3.8,9.4,3.4,14.5,3.3
				c5.1-0.1,11.5,1.4,12.7,6.4"/>
			<path id="XMLID_52_" class="st0" d="M269.4,534.3c3.2,1.5,7.8-1.3,10.3-3.8s3.4-6.3,2.9-9.8c-0.6-3.8-2.9-7.5-2-11.3
				c0.8-3.4,4-7,1.8-9.7c-0.6-0.8-1.6-1.2-2.6-1.4c-6-1.2-12.5,4.7-17.8,1.7c-2.4-1.3-3.7-4.1-5.4-6.3c-2.7-3.3-6.9-5.3-11.1-4.8
				c-4.2,0.5-8.1,3.6-9,7.7c-0.4,1.6-0.3,3.4-1.3,4.8c-2,2.9-6.4,1.8-9.8,2.4c-4.6,0.8-8.2,5.7-7.4,10.4c0.7,4.7,5.5,8.3,10.2,7.7
				c6.5-0.8,11.2-8.4,17.7-7.6c3.2,0.4,5.9,2.8,7.8,5.5c1.9,2.6,3.5,5.6,5.8,7.9C262.2,530.5,265.5,533.2,269.4,534.3"/>
			<path id="XMLID_51_" class="st2" d="M308,459.9c-0.4,1.2-2.4,0.3-2.9-0.8c-1.7-3.6-0.3-7.9,0.7-11.7s1.1-8.8-2.2-11.1
				c-1.5-1.1-3.9-1.8-4-3.6c0-0.5,0.2-1.1,0.2-1.6c0.3-2.8-3.4-4.7-6.1-3.7c-2.7,1-4.4,3.6-5.8,6c-1.5,2.4-3.1,5.1-5.7,6.1
				c-3.3,1.4-7-0.1-10.3-1.2c-1.2-0.4-2.5-0.7-3.8-0.4c-3.3,0.8-4.3,5.2-3.3,8.5c1.6,5.4,6.8,9.4,12.4,9.7c2.7,0.1,6-0.2,7.3,2.1
				c0.3,0.5,0.4,1.1,0.7,1.6c0.9,1.7,3.4,2.3,5,1.1c2-1.4,2.1-4.8,4.4-5.7c1.9-0.8,4.1,0.8,4.8,2.8c0.7,1.9,0.5,4.1,0.6,6.1
				c0.1,2.1,0.8,4.3,2.6,5.3c1.1,0.6,2.5,0.6,3.8,0.3C310.1,468.5,310.9,453.8,308,459.9"/>
			<path id="XMLID_50_" class="st0" d="M90.3,452c0.5,2-1.7,3.7-3.7,4.2c-6.8,2-14.7-2.9-16.1-9.8c-0.3-1.3-0.3-2.7-1-3.8
				c-2.1-3.4-7.3-1.7-11-0.3c-9.6,3.7-20.4,2.3-30.6,0.9c-2.8-0.4-5.6-0.8-8-2.1c-1.8-1-3.4-2.4-5.4-2.7c-3.2-0.4-6,2.4-7.1,5.5
				c-2.7,7.6,3.5,16.9,11.5,17.4c5.3,0.3,11.2-2.5,15.6,0.5c5.1,3.4,3.7,11.3,0.7,16.6c-1,1.8-2.2,3.5-2.4,5.6
				c-0.6,5.2,7.1,9,10.9,5.4c3.7-3.5,2.1-9.9,4.1-14.6c2.8-6.4,13.3-7.1,16.9-1.2c1.2,2,1.7,4.4,3.1,6.4c2.2,3.2,6.9,4.4,10.4,2.7
				c3.2-1.6,5.5-5.2,9-5.7c4.4-0.6,9.8,3.8,12.7,0.5c0.6-0.7,0.9-1.7,1.2-2.6c1.1-3.6,2-7.2,2.6-10.9c0.6-3.5,1-7.1-0.1-10.5
				c-1.1-3.3-4.1-6.3-7.7-6.3c-3.5,0-6.7,4-5.2,7.2"/>
			<path id="XMLID_41_" class="st0" d="M139.3,470.9c0.8,1.4-3,4.9-4.5,4.7c-3.7-0.4-7.3-1.5-11-1.1c-3.7,0.4-7.5,2.8-7.9,6.5
				c-0.3,3.3,2.2,6.2,3.8,9.1c3,5.7,2.3,13.2-1.7,18.3c1,3.9,4.4,7.1,8.3,7.9c4,0.8,8.3-0.9,10.7-4.2c1.6-2.2,2.7-5.4,5.4-6.1
				c3.5-1,6.4,2.9,7.2,6.5c0.8,3.5,0.7,7.6,3.3,10.1c2.3,2.3,6,2.5,9.2,1.7c4.7-1.1,9.1-4.1,11.3-8.5c2.2-4.3,1.9-10-1.2-13.8
				c-0.8-1-1.8-1.9-2.1-3.1c-0.2-0.8-0.1-1.7,0.1-2.6c1-4,3.8-7.5,7.6-9.2c2.6-1.2,5.7-1.7,7.4-4c2.8-3.7-0.2-9-3.6-12.1
				c-5-4.4-12.9-7.2-18.1-3.1c-3.2,2.5-5.5,7.5-9.5,6.7c-2.8-0.5-4.1-3.7-5.2-6.3c-1.1-2.6-3.5-5.5-6.2-4.7
				C139.8,464.7,138.2,469.5,139.3,470.9"/>
		</g>
		<g id="Calque_4_-_copie_4_1_">
			<path id="XMLID_65_" class="st0" d="M457.9,512c-0.3,4,5.2,5.6,9.1,4.7c3.9-0.9,8.3-2.7,11.5-0.3c0.8,0.6,1.4,1.4,2.3,1.8
				c2.1,1.1,4.8-0.2,6.3-2.1c1.5-1.9,2.1-4.3,3.1-6.5c3-6.1,9.8-10.2,16.6-9.9c1.7,0.1,3.5,0.4,5.1-0.3c2.8-1.1,3.8-4.6,4.1-7.6
				c0.5-4.5,0.4-9.3-1.8-13.3c-2.1-4-6.7-6.9-11.2-5.9c-5.3,1.2-9,7.4-14.4,6.7c-3.9-0.5-6.2-4.5-9.3-7c-4.8-3.9-13.2-3.1-15.9,2.4
				c-2.8,5.9,1.9,13.4-1,19.3c-2,4-7.1,5.7-11.4,4.9s-8.1-3.5-11.4-6.6c-1.5-1.4-2.9-2.9-4.8-3.8c-5.1-2.5-11.9,0.7-14.1,6
				c-2.2,5.3-0.4,11.7,3.4,16c1.3,1.4,2.7,2.7,4.5,3.3c4.8,1.8,9.9-1.4,14.4-3.9c4.5-2.5,10.8-4.2,14.2-0.4"/>
			<path id="XMLID_56_" class="st0" d="M58,151.1c-3.3,2.2-1.1,7.5,1.9,10c3.1,2.5,7.2,4.9,7.4,8.9c0,1-0.2,2,0,2.9
				c0.4,2.4,3.1,3.7,5.5,3.7c2.4,0,4.7-1,7-1.5c6.7-1.4,14.1,1.4,18.1,6.9c1,1.4,1.9,3,3.3,3.8c2.6,1.5,5.9,0.1,8.5-1.5
				c3.8-2.4,7.5-5.4,9.3-9.6c1.8-4.1,1.3-9.6-2.2-12.4c-4.2-3.4-11.4-2.5-14.2-7.2c-2-3.4-0.3-7.7-0.3-11.6
				c0.1-6.2-5.7-12.3-11.7-11c-6.4,1.5-9.4,9.8-15.8,11.2c-4.4,0.9-8.8-2-10.9-6c-2.1-3.9-2.2-8.6-1.9-13c0.2-2,0.4-4.1,0-6.1
				c-1.2-5.6-7.9-8.9-13.5-7.3c-5.5,1.6-9.4,6.9-10.4,12.5c-0.3,1.9-0.4,3.8,0.2,5.6c1.6,4.9,7.2,6.9,11.9,8.9s9.9,5.9,9.1,11"/>
			<path id="XMLID_64_" class="st0" d="M369.2,340.9c3.3,1.2,7.6-2,9.9-4.7s2.9-6.6,2-10c-0.9-3.7-3.5-7.3-3-11.1
				c0.5-3.4,3.3-7.3,0.9-9.8c-0.7-0.7-1.7-1.1-2.7-1.2c-6.1-0.7-12,5.7-17.6,3.3c-2.6-1.1-4-3.8-6-5.8c-2.9-3-7.4-4.7-11.5-3.8
				s-7.7,4.3-8.3,8.5c-0.2,1.7,0,3.5-0.8,4.9c-1.7,3-6.2,2.4-9.5,3.3c-4.6,1.2-7.6,6.4-6.5,11c1.1,4.6,6.2,7.8,10.8,6.8
				c6.4-1.4,10.4-9.3,17-9.1c3.3,0.1,6.1,2.3,8.3,4.8c2.2,2.5,3.9,5.3,6.5,7.3C361.7,337.7,365.2,340.2,369.2,340.9"/>
			<path id="XMLID_63_" class="st0" d="M375.3,490.6c-1.4-0.9,0.4-3,2-3.3c5-0.9,9.7,2.3,14.2,4.8c4.5,2.5,10.4,4.3,14.4,1
				c1.8-1.5,3.5-4.2,5.8-3.7c0.7,0.2,1.2,0.6,1.9,0.8c3.4,1.3,6.9-2.6,6.6-6.2c-0.3-3.6-2.9-6.6-5.4-9.2c-2.5-2.6-5.2-5.5-5.6-9.1
				c-0.6-4.5,2.5-8.5,4.9-12.3c0.9-1.4,1.7-2.9,1.8-4.5c0.2-4.4-5-7.1-9.3-7c-7.1,0.1-13.9,5.1-16.1,11.9c-1.1,3.2-1.8,7.4-5.1,8.3
				c-0.7,0.2-1.5,0.2-2.2,0.3c-2.4,0.5-3.9,3.4-3.1,5.7c1.1,2.9,5.1,4.2,5.5,7.3c0.3,2.6-2.4,4.7-5,5c-2.6,0.2-5.2-0.8-7.7-1.3
				c-2.6-0.5-5.6-0.5-7.4,1.4c-1.2,1.2-1.7,2.9-1.6,4.6C364,490.4,381.8,496.3,375.3,490.6"/>
			<path id="XMLID_59_" class="st3" d="M9,161c-1.5,0.7-2.3-2-1.7-3.5c2-4.7,7.2-7,11.7-9.4c4.5-2.4,9.2-6.5,8.6-11.6
				c-0.3-2.4-1.7-5.2,0.1-6.9c0.5-0.5,1.1-0.7,1.7-1.1c2.9-2.1,1.5-7.2-1.7-9c-3.2-1.7-7.1-1.1-10.6-0.4c-3.6,0.7-7.4,1.4-10.7-0.1
				c-4.1-2-5.8-6.7-7.7-10.8c-0.7-1.5-1.5-3-2.8-3.9c-3.6-2.5-8.6,0.4-10.9,4.1c-3.7,6.1-3.1,14.5,1.3,20c2.1,2.6,5.3,5.5,4.2,8.7
				c-0.2,0.7-0.7,1.4-0.9,2.1c-0.8,2.3,0.8,5.2,3.2,5.7c3,0.6,6.3-2.1,9.1-0.7c2.4,1.1,2.7,4.6,1.5,6.9c-1.2,2.3-3.4,3.9-5.3,5.8
				c-1.8,1.9-3.4,4.4-2.9,7c0.4,1.6,1.6,3,3,3.8C2.7,170.4,17.3,158.5,9,161"/>
			<path id="XMLID_62_" class="st3" d="M16.8,417.9c-2.1,0.2-3.4-2.1-3.8-4.1c-1.1-7,4.6-14.2,11.7-14.7c1.3-0.1,2.7,0,3.9-0.5
				c3.6-1.7,2.5-7,1.6-10.9c-2.5-10,0.2-20.5,2.8-30.5c0.7-2.7,1.5-5.5,3.1-7.7c1.2-1.7,2.8-3.1,3.3-5.1c0.8-3.1-1.7-6.3-4.6-7.7
				c-7.2-3.6-17.2,1.4-18.6,9.3c-1,5.2,1.1,11.4-2.4,15.4c-4,4.7-11.7,2.3-16.6-1.3c-1.6-1.2-3.2-2.6-5.2-3.1
				c-5.1-1.2-9.8,5.9-6.7,10.1c3.1,4.1,9.5,3.2,13.9,5.9c6,3.5,5.4,14-0.9,17c-2.1,1-4.6,1.2-6.7,2.3c-3.4,1.8-5.2,6.3-4,10
				c1.2,3.4,4.5,6,4.5,9.6c0,4.5-5,9.3-2,12.6c0.6,0.7,1.5,1.1,2.4,1.5c3.4,1.5,6.9,2.8,10.5,3.9c3.4,1,7,1.9,10.4,1.2
				c3.5-0.7,6.8-3.3,7.2-6.8s-3.2-7.2-6.5-6"/>
			<path id="XMLID_61_" class="st0" d="M55.4,172.1c-1,1.2-5.6-1.1-6-2.6c-0.9-3.6-1.1-7.4-2.7-10.7c-1.6-3.3-5.2-6.1-8.8-5.2
				c-3.3,0.8-5.1,4.2-7.3,6.7c-4.4,4.8-11.6,6.7-17.8,4.7c-3.3,2.3-5.2,6.5-4.6,10.5c0.6,4,3.7,7.5,7.6,8.6c2.7,0.8,6,0.7,7.6,2.9
				c2.1,2.9-0.6,7-3.7,8.9s-6.9,3.3-8.4,6.6c-1.3,3-0.2,6.5,1.6,9.2c2.7,4.1,7,7.2,11.9,7.8c4.8,0.6,10.1-1.6,12.5-5.8
				c0.6-1.1,1.1-2.3,2.1-3.1c0.7-0.5,1.6-0.7,2.5-0.8c4.1-0.5,8.4,1,11.3,4c2,2,3.5,4.8,6.2,5.6c4.4,1.4,8.4-3.2,10.1-7.6
				c2.4-6.2,2.4-14.6-3.3-18.1c-3.5-2.1-8.9-2.6-9.6-6.6c-0.4-2.8,2.1-5.1,4.2-7.1c2.1-2,4-5.2,2.3-7.5
				C61.4,170.4,56.3,170.5,55.4,172.1"/>
		</g>
		<g id="Calque_4_-_copie_4">
			<path id="XMLID_14_" class="st0" d="M451.1,317.1c-0.4-4-6.2-4.4-9.8-2.8c-3.6,1.6-7.6,4.2-11.3,2.6c-0.9-0.4-1.7-1.1-2.6-1.3
				c-2.3-0.7-4.7,1.1-5.8,3.3c-1.1,2.2-1.2,4.6-1.8,7c-1.7,6.6-7.6,11.9-14.4,13c-1.7,0.3-3.5,0.3-4.9,1.2c-2.5,1.7-2.8,5.2-2.5,8.3
				c0.4,4.5,1.5,9.2,4.3,12.7s8,5.5,12.1,3.6c4.9-2.2,7.4-9.1,12.8-9.4c3.9-0.3,7,3.2,10.5,5c5.5,2.8,13.6,0.5,15.1-5.5
				c1.6-6.3-4.5-12.8-2.8-19.1c1.2-4.3,5.8-7,10.3-7c4.4-0.1,8.7,1.9,12.5,4.2c1.7,1.1,3.5,2.2,5.4,2.8c5.5,1.5,11.5-3.1,12.6-8.7
				c1.1-5.6-1.9-11.5-6.5-15c-1.5-1.1-3.2-2.1-5.1-2.4c-5.1-0.8-9.4,3.3-13.3,6.6c-3.9,3.3-9.7,6.2-13.9,3.2"/>
			<path id="XMLID_13_" class="st1" d="M371.6,362.3c1.7-3.1-0.9-7.9-3.3-10.5c-2.4-2.6-6.1-3.7-9.6-3.4c-3.8,0.4-7.7,2.5-11.4,1.4
				c-3.3-1-6.8-4.3-9.6-2.2c-0.8,0.6-1.3,1.6-1.5,2.6c-1.5,5.9,4,12.7,0.8,17.9c-1.5,2.4-4.3,3.5-6.5,5.1c-3.4,2.5-5.6,6.7-5.4,10.9
				c0.3,4.2,3.2,8.2,7.3,9.4c1.6,0.4,3.4,0.5,4.8,1.5c2.8,2.1,1.5,6.4,1.9,9.9c0.6,4.7,5.3,8.4,10,8c4.7-0.5,8.6-5.1,8.2-9.8
				c-0.5-6.5-7.8-11.6-6.7-18c0.5-3.2,3.1-5.7,5.8-7.5s5.8-3.2,8.1-5.4C367.4,369.3,370.4,366.1,371.6,362.3"/>
			<path id="XMLID_12_" class="st0" d="M366.3,424.3c1.5,0.7,0.1,3.1-1.5,3.6c-4.9,1.6-10-0.9-14.8-2.7c-4.8-1.8-10.9-2.7-14.4,1.1
				c-1.6,1.8-2.8,4.7-5.2,4.5c-0.7-0.1-1.3-0.4-2-0.5c-3.5-0.8-6.4,3.6-5.6,7.2c0.8,3.5,3.8,6.1,6.7,8.3c2.9,2.2,6,4.6,6.9,8.1
				c1.2,4.4-1.2,8.8-3,12.9c-0.7,1.5-1.3,3.1-1.1,4.7c0.4,4.3,6,6.3,10.3,5.5c7-1.2,13-7.2,14.2-14.2c0.6-3.3,0.7-7.6,3.8-8.9
				c0.7-0.3,1.5-0.4,2.2-0.7c2.3-0.9,3.4-4,2.2-6.1c-1.5-2.7-5.7-3.4-6.5-6.4c-0.7-2.5,1.7-5,4.2-5.7c2.6-0.6,5.2,0,7.8,0.1
				c2.6,0.2,5.6-0.3,7.1-2.4c1-1.3,1.2-3.1,0.9-4.8C377.6,422.8,359.1,419.7,366.3,424.3"/>
			<path id="XMLID_60_" class="st0" d="M29.4-24.4c1.6-0.3,1.9,2.4,0.9,3.8c-3,4.2-8.6,5.2-13.5,6.6S6.4-9.7,5.9-4.6
				C5.7-2.2,6.4,0.8,4.3,2.1C3.8,2.5,3.1,2.6,2.4,2.9C-0.9,4.3-0.6,9.6,2.1,12s6.7,2.6,10.3,2.7s7.5,0.2,10.4,2.5
				C26.4,19.9,27,25,28,29.4c0.4,1.6,0.8,3.2,1.9,4.5c2.9,3.2,8.5,1.5,11.5-1.6c5-5.1,6.2-13.4,3.1-19.8c-1.5-3-4-6.5-2.2-9.4
				c0.4-0.6,1-1.2,1.4-1.8C45-0.9,44.1-4,41.8-5.1c-2.8-1.3-6.6,0.6-9.1-1.3c-2.1-1.6-1.6-5,0.1-7.1c1.7-2,4.2-3.1,6.4-4.5
				c2.2-1.4,4.3-3.6,4.3-6.2c0-1.7-0.9-3.2-2.1-4.4C37.6-32.1,20.8-23.8,29.4-24.4"/>
			<path id="XMLID_11_" class="st0" d="M445.8,388.4c2-0.4,3.6,1.9,4.1,3.9c1.6,6.9-3.6,14.5-10.6,15.5c-1.3,0.2-2.7,0.2-3.8,0.8
				c-3.5,1.9-2,7.2-0.8,11c3.2,9.8,1.3,20.5-0.7,30.6c-0.5,2.7-1.1,5.5-2.5,7.9c-1.1,1.7-2.6,3.3-3,5.3c-0.6,3.2,2.1,6.2,5.1,7.4
				c7.4,3.1,17-2.6,17.9-10.6c0.6-5.3-1.9-11.3,1.3-15.6c3.6-4.9,11.5-3.1,16.6,0.2c1.7,1.1,3.4,2.3,5.4,2.7
				c5.2,0.9,9.4-6.6,5.9-10.6c-3.4-3.9-9.7-2.6-14.3-4.9c-6.2-3.1-6.4-13.6-0.3-17c2.1-1.1,4.5-1.5,6.5-2.8
				c3.3-2.1,4.8-6.7,3.2-10.3c-1.4-3.3-4.9-5.7-5.2-9.3c-0.4-4.4,4.3-9.6,1.1-12.7c-0.7-0.7-1.6-1-2.5-1.4
				c-3.5-1.3-7.1-2.3-10.8-3.2c-3.4-0.8-7.1-1.4-10.5-0.4c-3.4,0.9-6.5,3.8-6.7,7.3s3.7,6.9,6.9,5.6"/>
			<path id="XMLID_88_" class="st2" d="M349.9-1.1c0.9,1.9-0.9,3.9-2.7,4.9c-6.2,3.3-15,0.2-17.7-6.4c-0.5-1.2-0.8-2.5-1.7-3.5
				c-2.8-2.9-7.4-0.2-10.8,2c-8.7,5.5-19.5,6.4-29.8,7.1c-2.8,0.2-5.6,0.4-8.3-0.4C276.9,1.9,275,0.8,273,1
				c-3.2,0.2-5.4,3.6-5.9,6.8c-1.1,8,6.8,15.8,14.8,14.7c5.3-0.8,10.5-4.7,15.4-2.7c5.7,2.3,5.9,10.3,4,16.1
				c-0.6,1.9-1.4,3.9-1.2,5.9c0.5,5.2,8.7,7.4,11.7,3.1c2.9-4.2,0-10.1,1.1-15.1c1.5-6.8,11.6-9.6,16.4-4.6c1.6,1.7,2.6,4,4.3,5.6
				c2.8,2.7,7.7,2.9,10.8,0.5c2.9-2.2,4.3-6.2,7.7-7.4c4.2-1.5,10.4,1.7,12.6-2.1c0.5-0.8,0.6-1.8,0.7-2.8c0.4-3.7,0.5-7.5,0.4-11.2
				c-0.1-3.5-0.5-7.2-2.2-10.2s-5.3-5.3-8.8-4.6c-3.5,0.7-5.8,5.3-3.6,8.1"/>
			<path id="XMLID_89_" class="st0" d="M479,148.1c1.1-1.8,3.8-1.4,5.6-0.5c6.2,3.4,8.4,12.4,4.5,18.3c-0.7,1.1-1.6,2.1-1.9,3.4
				c-0.9,3.9,4,6.3,7.7,7.9c9.4,4.2,16.1,12.7,22.4,20.8c1.7,2.2,3.4,4.5,4.2,7.1c0.6,1.9,0.7,4.1,2,5.7c2,2.6,6,2.5,8.9,1.1
				c7.2-3.5,9.4-14.4,4-20.4c-3.5-4-9.7-6.1-10.8-11.3c-1.3-6,5.3-10.7,11.2-12.3c2-0.5,4-1,5.6-2.3c4.1-3.3,1.3-11.4-3.9-11.5
				c-5.1-0.1-8.4,5.6-13.2,7.5c-6.5,2.6-14.4-4.3-12.9-11c0.5-2.3,1.9-4.4,2.3-6.7c0.6-3.9-1.8-8-5.5-9.3c-3.4-1.2-7.5-0.1-10.4-2.3
				c-3.6-2.7-4.3-9.6-8.8-9.3c-1,0.1-1.8,0.5-2.7,1c-3.3,1.8-6.5,3.8-9.6,5.9c-2.9,2-5.7,4.4-7.3,7.5c-1.6,3.2-1.5,7.4,1,9.9
				c2.5,2.5,7.6,1.9,8.8-1.5"/>
			<path id="XMLID_57_" class="st1" d="M205.1,10.6c1.4-1.5,4-0.7,5.6,0.6c5.5,4.4,6.1,13.7,1.2,18.8c-0.9,0.9-2,1.8-2.5,3
				c-1.6,3.7,2.8,6.9,6.1,9.2c8.5,5.8,13.5,15.4,18.2,24.6c1.3,2.5,2.6,5,2.9,7.8c0.2,2,0,4.2,0.9,6c1.5,2.9,5.4,3.6,8.6,2.7
				c7.8-2.1,11.9-12.5,7.7-19.4c-2.8-4.5-8.4-7.8-8.6-13.1c-0.2-6.1,7.1-9.5,13.2-10.1c2-0.2,4.1-0.2,5.9-1.2
				c4.6-2.5,3.4-10.9-1.8-12c-5-1-9.3,3.9-14.3,4.9c-6.8,1.4-13.4-6.8-10.7-13.2c0.9-2.2,2.7-4,3.5-6.2c1.3-3.7-0.3-8.2-3.7-10.1
				c-3.1-1.8-7.4-1.5-9.8-4.2c-3-3.3-2.5-10.2-6.9-10.7c-1-0.1-1.9,0.2-2.8,0.5c-3.6,1.2-7.1,2.5-10.5,4.1c-3.2,1.5-6.4,3.3-8.5,6.1
				c-2.1,2.8-2.8,7-0.8,9.9c2,2.9,7.2,3.2,8.9,0.1"/>
			<path id="XMLID_10_" class="st2" d="M378.4,409.7c1.4-0.7,4.8,3.2,4.5,4.7c-0.6,3.6-1.9,7.2-1.7,10.9c0.2,3.7,2.4,7.7,6.1,8.2
				c3.3,0.5,6.3-1.9,9.3-3.3c5.9-2.7,13.3-1.7,18.2,2.6c4-0.8,7.3-4,8.3-7.9c1-3.9-0.5-8.3-3.6-10.9c-2.2-1.7-5.2-3-5.8-5.7
				c-0.8-3.5,3.3-6.2,6.8-6.8c3.6-0.6,7.6-0.3,10.3-2.8c2.4-2.2,2.8-5.9,2.2-9.1c-0.9-4.8-3.7-9.3-7.9-11.8
				c-4.2-2.4-9.9-2.4-13.8,0.5c-1,0.8-1.9,1.7-3.2,2c-0.9,0.2-1.8,0-2.6-0.2c-4-1.2-7.3-4.2-8.8-8c-1.1-2.6-1.4-5.8-3.6-7.6
				c-3.5-3-9-0.3-12.2,3c-4.7,4.8-7.9,12.6-4,18c2.4,3.3,7.2,5.9,6.3,9.8c-0.7,2.8-3.9,3.9-6.6,4.9c-2.7,1-5.7,3.2-5,6
				C372.2,408.9,376.9,410.7,378.4,409.7"/>
			<path id="XMLID_58_" class="st2" d="M10.3,84.2c1.4-0.7,4.8,3.2,4.5,4.7c-0.6,3.6-1.9,7.2-1.7,10.9s2.4,7.7,6.1,8.2
				c3.3,0.5,6.3-1.9,9.3-3.3c5.9-2.7,13.3-1.7,18.2,2.6c4-0.8,7.3-4,8.3-7.9c1-3.9-0.5-8.3-3.6-10.9c-2.2-1.7-5.2-3-5.8-5.7
				c-0.8-3.5,3.3-6.2,6.8-6.8s7.6-0.3,10.3-2.8c2.4-2.2,2.8-5.9,2.2-9.1c-0.9-4.8-3.7-9.3-7.9-11.8s-9.9-2.4-13.8,0.5
				c-1,0.8-1.9,1.7-3.2,2c-0.9,0.2-1.8,0-2.6-0.2c-4-1.2-7.3-4.2-8.8-8c-1.1-2.6-1.4-5.8-3.6-7.6c-3.5-3-9-0.3-12.2,3
				c-4.7,4.8-7.9,12.6-4,18c2.4,3.3,7.2,5.9,6.3,9.8c-0.7,2.8-3.9,3.9-6.6,4.9c-2.7,1-5.7,3.2-5,6C4.2,83.4,8.9,85.3,10.3,84.2"/>
		</g>
		<g id="Calque_4_-_copie_5">
			<path id="XMLID_40_" class="st0" d="M183.2-32.9c-0.4-4-6.2-4.4-9.8-2.8s-7.6,4.2-11.3,2.6c-0.9-0.4-1.7-1.1-2.6-1.3
				c-2.3-0.7-4.7,1.1-5.8,3.3c-1.1,2.2-1.2,4.6-1.8,7c-1.7,6.6-7.6,11.9-14.4,13c-1.7,0.3-3.5,0.3-4.9,1.2c-2.5,1.7-2.8,5.2-2.5,8.3
				c0.4,4.5,1.5,9.2,4.3,12.7c2.9,3.5,8,5.5,12.1,3.6c4.9-2.2,7.4-9.1,12.8-9.4c3.9-0.3,7,3.2,10.5,5c5.5,2.8,13.6,0.5,15.1-5.5
				c1.6-6.3-4.5-12.8-2.8-19.1c1.2-4.3,5.8-7,10.3-7c4.4-0.1,8.7,1.9,12.5,4.2c1.7,1.1,3.5,2.2,5.4,2.8c5.5,1.5,11.5-3.1,12.6-8.7
				s-1.9-11.5-6.5-15c-1.5-1.1-3.2-2.1-5.1-2.4c-5.1-0.8-9.4,3.3-13.3,6.6s-9.7,6.2-13.9,3.2"/>
			<path id="XMLID_39_" class="st3" d="M103.7,12.2c1.7-3.1-0.9-7.9-3.3-10.5S94.3-2,90.8-1.6c-3.8,0.4-7.7,2.5-11.4,1.4
				c-3.3-1-6.8-4.3-9.6-2.2c-0.8,0.6-1.3,1.6-1.5,2.6c-1.5,5.9,4,12.7,0.8,17.9c-1.5,2.4-4.3,3.5-6.5,5.1c-3.4,2.5-5.6,6.7-5.4,10.9
				s3.2,8.2,7.3,9.4c1.6,0.4,3.4,0.5,4.8,1.5c2.8,2.1,1.5,6.4,1.9,9.9c0.6,4.7,5.3,8.4,10,8c4.7-0.5,8.6-5.1,8.2-9.8
				c-0.5-6.5-7.8-11.6-6.7-18c0.5-3.2,3.1-5.7,5.8-7.5s5.8-3.2,8.1-5.4C99.5,19.2,102.4,16,103.7,12.2"/>
			<path id="XMLID_38_" class="st0" d="M70.2,82.2c0.9-1.4,3,0.3,3.4,1.9c1.1,5-1.9,9.8-4.3,14.4c-2.3,4.6-3.9,10.6-0.4,14.4
				c1.6,1.8,4.3,3.3,3.9,5.7c-0.1,0.7-0.5,1.3-0.7,1.9c-1.2,3.4,2.9,6.8,6.5,6.4c3.6-0.4,6.4-3.2,9-5.8c2.5-2.6,5.3-5.4,8.8-6
				c4.5-0.7,8.6,2.2,12.5,4.4c1.4,0.8,2.9,1.6,4.6,1.6c4.4,0,6.9-5.2,6.6-9.6c-0.4-7.1-5.7-13.7-12.5-15.6c-3.3-0.9-7.5-1.5-8.5-4.7
				c-0.2-0.7-0.2-1.5-0.4-2.2c-0.6-2.4-3.6-3.8-5.8-2.8c-2.9,1.2-4,5.3-7.1,5.8c-2.6,0.4-4.8-2.2-5.2-4.8s0.5-5.2,1-7.8
				c0.4-2.6,0.3-5.6-1.7-7.4c-1.2-1.1-3-1.5-4.6-1.4C70,70.9,64.9,88.9,70.2,82.2"/>
			<path id="XMLID_37_" class="st0" d="M177.9,38.3c2-0.4,3.6,1.9,4.1,3.9c1.6,6.9-3.6,14.5-10.6,15.5c-1.3,0.2-2.7,0.2-3.8,0.8
				c-3.5,1.9-2,7.2-0.8,11c3.2,9.8,1.3,20.5-0.7,30.6c-0.5,2.7-1.1,5.5-2.5,7.9c-1.1,1.7-2.6,3.3-3,5.3c-0.6,3.2,2.1,6.2,5.1,7.4
				c7.4,3.1,17-2.6,17.9-10.6c0.6-5.3-1.9-11.3,1.3-15.6c3.6-4.9,11.5-3.1,16.6,0.2c1.7,1.1,3.4,2.3,5.4,2.7
				c5.2,0.9,9.4-6.6,5.9-10.6c-3.4-3.9-9.7-2.6-14.3-4.9c-6.2-3.1-6.4-13.6-0.3-17c2.1-1.1,4.5-1.5,6.5-2.8
				c3.3-2.1,4.8-6.7,3.2-10.3c-1.4-3.3-4.9-5.7-5.2-9.3c-0.4-4.4,4.3-9.6,1.1-12.7c-0.7-0.7-1.6-1-2.5-1.4
				c-3.5-1.3-7.1-2.3-10.8-3.2c-3.4-0.8-7.1-1.4-10.5-0.4c-3.4,0.9-6.5,3.8-6.7,7.3s3.7,6.9,6.9,5.6"/>
			<path id="XMLID_25_" class="st0" d="M110.4,59.6c1.4-0.7,4.8,3.2,4.5,4.7c-0.6,3.6-1.9,7.2-1.7,10.9s2.4,7.7,6.1,8.2
				c3.3,0.5,6.3-1.9,9.3-3.3c5.9-2.7,13.3-1.7,18.2,2.6c4-0.8,7.3-4,8.3-7.9c1-3.9-0.5-8.3-3.6-10.9c-2.2-1.7-5.2-3-5.8-5.7
				c-0.8-3.5,3.3-6.2,6.8-6.8c3.6-0.6,7.6-0.3,10.3-2.8c2.4-2.2,2.8-5.9,2.2-9.1c-0.9-4.8-3.7-9.3-7.9-11.8
				c-4.2-2.4-9.9-2.4-13.8,0.5c-1,0.8-1.9,1.7-3.2,2c-0.9,0.2-1.8,0-2.6-0.2c-4-1.2-7.3-4.2-8.8-8c-1.1-2.6-1.4-5.8-3.6-7.6
				c-3.5-3-9-0.3-12.2,3c-4.7,4.8-7.9,12.6-4,18c2.4,3.3,7.2,5.9,6.3,9.8c-0.7,2.8-3.9,3.9-6.6,4.9c-2.7,1-5.7,3.2-5,6
				C104.3,58.8,108.9,60.7,110.4,59.6"/>
		</g>
		<g id="Calque_4_-_copie_6">
			<path id="XMLID_74_" class="st0" d="M510.9-53.5c-0.4-4-6.2-4.4-9.8-2.8c-3.6,1.6-7.6,4.2-11.3,2.6c-0.9-0.4-1.7-1.1-2.6-1.3
				c-2.3-0.7-4.7,1.1-5.8,3.3c-1.1,2.2-1.2,4.6-1.8,7c-1.7,6.6-7.6,11.9-14.4,13c-1.7,0.3-3.5,0.3-4.9,1.2c-2.5,1.7-2.8,5.2-2.5,8.3
				c0.4,4.5,1.5,9.2,4.3,12.7s8,5.5,12.1,3.6c4.9-2.2,7.4-9.1,12.8-9.4c3.9-0.3,7,3.2,10.5,5c5.5,2.8,13.6,0.5,15.1-5.5
				c1.6-6.3-4.5-12.8-2.8-19.1c1.2-4.3,5.8-7,10.3-7s8.7,1.9,12.5,4.2c1.7,1.1,3.5,2.2,5.4,2.8c5.5,1.5,11.5-3.1,12.6-8.7
				c1.1-5.6-1.9-11.5-6.5-15c-1.5-1.1-3.2-2.1-5.1-2.4c-5.1-0.8-9.4,3.3-13.3,6.6c-3.9,3.3-9.7,6.2-13.9,3.2"/>
			<path id="XMLID_68_" class="st3" d="M431.5-8.4c1.7-3.1-0.9-7.9-3.3-10.5s-6.1-3.7-9.6-3.4c-3.8,0.4-7.7,2.5-11.4,1.4
				c-3.3-1-6.8-4.3-9.6-2.2c-0.8,0.6-1.3,1.6-1.5,2.6c-1.5,5.9,4,12.7,0.8,17.9c-1.5,2.4-4.3,3.5-6.5,5.1c-3.4,2.5-5.6,6.7-5.4,10.9
				s3.2,8.2,7.3,9.4c1.6,0.4,3.4,0.5,4.8,1.5c2.8,2.1,1.5,6.4,1.9,9.9c0.6,4.7,5.3,8.4,10,8s8.6-5.1,8.2-9.8
				c-0.5-6.5-7.8-11.6-6.7-18c0.5-3.2,3.1-5.7,5.8-7.5s5.8-3.2,8.1-5.4C427.3-1.4,430.2-4.6,431.5-8.4"/>
			<path id="XMLID_67_" class="st0" d="M398,61.6c0.9-1.4,3,0.3,3.4,1.9c1.1,5-1.9,9.8-4.3,14.4c-2.3,4.6-3.9,10.6-0.4,14.4
				c1.6,1.8,4.3,3.3,3.9,5.7c-0.1,0.7-0.5,1.3-0.7,1.9c-1.2,3.4,2.9,6.8,6.5,6.4c3.6-0.4,6.4-3.2,9-5.8c2.5-2.6,5.3-5.4,8.8-6
				c4.5-0.7,8.6,2.2,12.5,4.4c1.4,0.8,2.9,1.6,4.6,1.6c4.4,0,6.9-5.2,6.6-9.6c-0.4-7.1-5.7-13.7-12.5-15.6c-3.3-0.9-7.5-1.5-8.5-4.7
				c-0.2-0.7-0.2-1.5-0.4-2.2c-0.6-2.4-3.6-3.8-5.8-2.8c-2.9,1.2-4,5.3-7.1,5.8c-2.6,0.4-4.8-2.2-5.2-4.8c-0.3-2.6,0.5-5.2,1-7.8
				c0.4-2.6,0.3-5.6-1.7-7.4c-1.2-1.1-3-1.5-4.6-1.4C397.8,50.3,392.6,68.3,398,61.6"/>
			<path id="XMLID_66_" class="st0" d="M505.6,17.7c2-0.4,3.6,1.9,4.1,3.9c1.6,6.9-3.6,14.5-10.6,15.5c-1.3,0.2-2.7,0.2-3.8,0.8
				c-3.5,1.9-2,7.2-0.8,11c3.2,9.8,1.3,20.5-0.7,30.6c-0.5,2.7-1.1,5.5-2.5,7.9c-1.1,1.7-2.6,3.3-3,5.3c-0.6,3.2,2.1,6.2,5.1,7.4
				c7.4,3.1,17-2.6,17.9-10.6c0.6-5.3-1.9-11.3,1.3-15.6c3.6-4.9,11.5-3.1,16.6,0.2c1.7,1.1,3.4,2.3,5.4,2.7
				c5.2,0.9,9.4-6.6,5.9-10.6c-3.4-3.9-9.7-2.6-14.3-4.9c-6.2-3.1-6.4-13.6-0.3-17c2.1-1.1,4.5-1.5,6.5-2.8
				c3.3-2.1,4.8-6.7,3.2-10.3c-1.4-3.3-4.9-5.7-5.2-9.3c-0.4-4.4,4.3-9.6,1.1-12.7c-0.7-0.7-1.6-1-2.5-1.4
				c-3.5-1.3-7.1-2.3-10.8-3.2c-3.4-0.8-7.1-1.4-10.5-0.4c-3.4,0.9-6.5,3.8-6.7,7.3s3.7,6.9,6.9,5.6"/>
			<path id="XMLID_55_" class="st0" d="M438.2,39c1.4-0.7,4.8,3.2,4.5,4.7c-0.6,3.6-1.9,7.2-1.7,10.9c0.2,3.7,2.4,7.7,6.1,8.2
				c3.3,0.5,6.3-1.9,9.3-3.3c5.9-2.7,13.3-1.7,18.2,2.6c4-0.8,7.3-4,8.3-7.9c1-3.9-0.5-8.3-3.6-10.9c-2.2-1.7-5.2-3-5.8-5.7
				c-0.8-3.5,3.3-6.2,6.8-6.8c3.6-0.6,7.6-0.3,10.3-2.8c2.4-2.2,2.8-5.9,2.2-9.1c-0.9-4.8-3.7-9.3-7.9-11.8
				c-4.2-2.4-9.9-2.4-13.8,0.5c-1,0.8-1.9,1.7-3.2,2c-0.9,0.2-1.8,0-2.6-0.2c-4-1.2-7.3-4.2-8.8-8c-1.1-2.6-1.4-5.8-3.6-7.6
				c-3.5-3-9-0.3-12.2,3c-4.7,4.8-7.9,12.6-4,18c2.4,3.3,7.2,5.9,6.3,9.8c-0.7,2.8-3.9,3.9-6.6,4.9c-2.7,1-5.7,3.2-5,6
				C432,38.2,436.7,40.1,438.2,39"/>
		</g>
	</g>
</g>
<g id="Calque_21" class="st4">
	<path id="XMLID_73_" class="st5" d="M483.7,259.7c1.6-3.9,4.4-7.3,5.6-11.3c5-16.5-17.8-30.3-16.5-47.6c0.4-4.9,2.7-9.5,3.3-14.4
		c0.7-6.1-1.3-12.1-3.3-17.8c-6.7-19.2-13.3-38.5-20-57.7c-2.6-7.6-5.6-15.7-11.9-20.6c-7.4-5.8-17.5-6-26.7-7.7
		c-9.2-1.8-19.4-7-20.6-16.3c-0.5-3.7,0.6-7.4-0.2-11c-2.2-10.2-15.9-12.1-23.8-19c-7.7-6.7-10.3-18.9-19.7-23.1
		c-8.3-3.8-18.1,0.7-24.8,6.8c-6.7,6.1-11.9,14-19.5,19.1c-7.6,5.1-19,6.3-24.9-0.7c-4.3-5.1-4.4-13.3-9.7-17.3
		c-2.3-1.7-5.2-2.4-8-2.7c-8.5-0.8-17.3,1.8-24.1,7C231.6,30.9,227,39,220,44.6c-7,5.6-18.5,7.6-24.2,0.7c-2.1-2.6-3-6-5-8.7
		c-6.9-9-21.3-4.2-30.6,2.3s-20.9,14.3-30.9,9c-9-4.8-11.2-18.1-20.6-22.2c-7.6-3.3-16.2,1.1-22.6,6.3c-6.3,5.3-12.2,11.8-20.2,13.9
		c-13.2,3.4-27.3-6.9-40.4-3.1c-8.4,2.4-14.3,10.1-16.9,18.4S6.1,78.4,6.3,87.1c0.3,13.9,0.7,27.8,1,41.7c0.2,6.4,0.3,12.9,2,19.1
		c2,7.4,6.1,14.4,6,22.1c-0.1,11.2-9.2,21.7-6.3,32.5c2.9,10.9,16.5,16.4,19,27.3c1.1,4.9-0.2,9.9-0.6,14.9
		c-0.8,11,3.4,22.3,11.2,30c3.1,3,7,6.5,6.1,10.7c-0.7,3.1-3.8,4.9-5.7,7.4c-5.8,7.5-0.2,18.4,6.6,25s15.4,13,16.3,22.4l-5.4,7.7
		c6.1,7.7,8,18.5,4.7,27.8c-2.1,5.9-6.1,11.3-6.4,17.6c-0.6,12.9,15.5,21.2,28.1,18.2c6-1.4,12.1-4.5,18.1-2.9
		c13.4,3.5,12,24.5,22.8,33.1c7.7,6.1,19.1,3.9,27.8-0.7c8.7-4.6,16.5-11.2,25.9-13.8c9.5-2.6,21.9,1.1,24.1,10.7
		c1,4.2-0.2,8.6,0.5,12.9c1.8,11,15.1,16.6,26.2,15.1c11.1-1.4,20.9-7.5,31.6-10.9c10.6-3.4,23.9-3.5,31.2,5c4.3,5,5.6,12,9.2,17.5
		c4.9,7.5,14.3,11.7,23.1,10.4c8.8-1.3,16.7-7.9,19.3-16.5c2.3-7.4,1.5-16.8,7.9-21.2c2.8-1.9,6.4-2.3,9.8-2.3
		c17.1,0,38,6.8,48.8-6.5c10.1-12.5,1.7-34,12.9-45.6c9.2-9.6,27.4-7.6,34-19c7.2-12.4-5.2-31.2,4.8-41.4c5.3-5.4,14.3-5,20.5-9.2
		c9.7-6.6,9.1-21.1,5.8-32.3S479.1,270.5,483.7,259.7z M450.6,290.1c-8.1,2.8-19.5,0.8-23.3,8.5c-4.8,9.9,10.7,20.6,7,30.9
		c-2.5,7.1-12.2,8.3-19.7,6.8c-7.4-1.5-15.4-4.4-22.2-1.1c-5.7,2.8-8.7,10.1-6.7,16.1c1.6,4.7,5.8,8.7,5.5,13.7
		c-0.3,6.5-7.9,9.9-14.3,11s-13.9,2-17.4,7.5c-5.3,8.7,2.8,23.5-6,28.6c-1.8,1-3.9,1.3-5.9,1.3c-19.2-0.3-33.8-24.4-52.5-20.2
		c-9.4,2.1-17.1,11.4-26.7,10.1c-5.9-0.7-10.4-5.3-15.5-8.2c-11.3-6.5-26.8-4.8-36.5,4c-2.8,2.6-5.3,5.8-8.7,7.4
		c-9.7,4.5-19.8-5.2-26-14c-6.2-8.7-15.8-18.7-25.8-14.7c-5.8,2.3-9.2,8.9-15.2,10.6c-7.8,2.1-15-5-18.7-12.2
		c-3.7-7.2-6.3-15.7-13.1-19.9c-8.7-5.4-22.6-2.9-27.3-12c-6.3-12.1,13.2-27.5,5.4-38.6c-1.4-2-3.6-3.5-5.2-5.4
		c-4.2-5-3.8-12.6-0.8-18.4c3-5.8,8.1-10.1,13.2-14.3l2.4-3.6c-1.9-10.2-15.8-11.5-26.1-10.6c-10.3,0.9-24.4-1.3-25.3-11.6
		c-0.9-9.6,11.3-15.4,13.6-24.8c4-16.1-21.6-24.7-24.7-41.1c-2-10.4,6-20.3,6.6-30.9c0.6-9.1-4.3-17.6-7.1-26.3
		c-2.8-8.7-2.7-19.9,4.9-25c11.3-7.5,30.2,4.2,38.7-6.3c2.4-3,3.1-7,5-10.4c4.8-8.6,16.5-11,26.2-9.1c9.7,1.8,18.6,6.8,28.2,9.1
		c9.6,2.3,21.2,1.4,27.3-6.4c1.6-2,2.8-4.5,4.8-6.1c7.2-5.9,17,2.1,24.6,7.4c10.8,7.4,27.2,8.8,36.1-0.9c2.5-2.7,4.2-6.1,6.6-8.8
		c7.2-8.2,21-9.4,29.5-2.8c3.8,3,6.5,7.1,10,10.5c15.8,15.3,42.3,10.4,61.5-0.4c4.6-2.6,9.4-5.5,14.7-5.5c9,0.1,15.6,8.6,19.2,16.9
		c3.6,8.3,5.9,17.7,12.7,23.6c7.7,6.8,19,7.3,29.1,9.5c10.1,2.2,21.3,8.6,21.6,18.9c0.1,4-1.5,7.9-2.6,11.8
		c-3.6,13.1-0.4,27.9,8.3,38.4c4.2,5.1,9.8,9.5,11.7,15.9c4.3,14.5-12.9,29.2-8.1,43.6c3,9,13.4,13.4,17.7,21.8
		C465.7,273.8,460.4,286.7,450.6,290.1z"/>
	<path id="XMLID_44_" class="st5" d="M112.5,102.3c5-2.8-7.6-14.5-13.6-16s-13.4,2.1-14.1,8.2c-0.6,5.3,3.6,11,0.8,15.5
		c-2.4,3.9-8.3,3.5-12.5,1.7c-4.3-1.8-8.6-4.4-13.1-3.5c-6.3,1.3-8.8,10.8-4,15c-6.2,0.5-10.7,8-8.3,13.7c2.4,5.6,9.8,9.2,9.1,15.2
		c-0.2,2.3-1.7,4.4-2.2,6.7c-1.2,5.9,5.4,11.2,11.4,10.6c6-0.6,10.8-5.3,13.9-10.5c2-3.3,3.6-6.9,6.6-9.3c3.3-2.6,7.7-3.2,11.5-5.1
		c8-3.9,12.7-13.2,21.1-16.2c3.7-1.3,8-1.4,10.8-4.1c4.2-3.9,2.3-11.8-2.9-14.3c-5.2-2.5-11.8-0.1-15.2,4.5c-2.7,3.6-5.1,9-9.6,8.4
		c-1.8-0.2-3.2-1.5-4.6-2.7c-3.4-3-7.1-7.9-4.4-11.6c1.2-1.6,3.3-2.2,5.2-2.7C103.2,104.8,107.8,103.5,112.5,102.3"/>
	<path id="XMLID_78_" class="st6" d="M460.9,264.5c-4.3-8.4-14.7-12.9-17.7-21.8c-4.8-14.4,12.5-29.1,8.1-43.6
		c-1.9-6.4-7.5-10.8-11.7-15.9c-8.7-10.5-11.9-25.3-8.3-38.4c1.1-3.9,2.7-7.7,2.6-11.8c-0.3-10.3-11.5-16.7-21.6-18.9
		c-10.1-2.2-21.3-2.6-29.1-9.5c-6.8-6-9.1-15.3-12.7-23.6c-3.6-8.3-10.1-16.9-19.2-16.9c-5.3,0-10.1,2.9-14.7,5.5
		c-19.2,10.7-45.7,15.6-61.5,0.4c-3.5-3.4-6.2-7.5-10-10.5c-8.6-6.7-22.3-5.4-29.5,2.8c-2.4,2.8-4.2,6.1-6.6,8.8
		c-8.9,9.7-25.3,8.4-36.1,0.9c-7.6-5.2-17.4-13.2-24.6-7.4c-2,1.6-3.2,4.1-4.8,6.1c-6.1,7.8-17.7,8.7-27.3,6.4
		c-9.6-2.3-18.5-7.3-28.2-9.1c-9.7-1.8-21.4,0.5-26.2,9.1c-1.9,3.4-2.5,7.4-5,10.4c-8.5,10.6-27.4-1.2-38.7,6.3
		c-7.6,5.1-7.7,16.3-4.9,25c2.8,8.7,7.6,17.1,7.1,26.3c-0.6,10.6-8.6,20.4-6.6,30.9c3.1,16.3,28.7,24.9,24.7,41.1
		c-2.3,9.4-14.4,15.2-13.6,24.8c0.9,10.3,15,12.5,25.3,11.6c10.3-0.9,24.2,0.4,26.1,10.6l-2.4,3.6c-5,4.2-10.1,8.5-13.2,14.3
		c-3,5.8-3.4,13.4,0.8,18.4c1.6,1.9,3.8,3.3,5.2,5.4c7.9,11.1-11.7,26.5-5.4,38.6c4.7,9.1,18.6,6.6,27.3,12
		c6.9,4.3,9.5,12.7,13.1,19.9c3.7,7.2,10.9,14.4,18.7,12.2c6-1.7,9.5-8.3,15.2-10.6c10-4,19.6,6,25.8,14.7c6.2,8.7,16.3,18.5,26,14
		c3.5-1.6,5.9-4.8,8.7-7.4c9.6-8.9,25.1-10.6,36.5-4c5.1,2.9,9.7,7.5,15.5,8.2c9.6,1.2,17.3-8,26.7-10.1c19.2-4.3,34,21.1,53.9,20.2
		c1.4-0.1,2.8-0.4,4-1c9.5-4.8,1-20,6.5-28.8c3.4-5.5,10.9-6.4,17.4-7.5s14-4.5,14.3-11c0.3-5-4-8.9-5.5-13.7c-2-6,1-13.3,6.7-16.1
		c6.8-3.4,14.8-0.5,22.2,1.1c7.4,1.5,17.1,0.4,19.7-6.8c3.7-10.4-11.9-21.1-7-30.9c3.8-7.7,15.2-5.7,23.3-8.5
		C460.4,286.7,465.7,273.8,460.9,264.5z M79.9,159c-3.1,5.2-7.9,9.9-13.9,10.5c-6,0.6-12.6-4.7-11.4-10.6c0.5-2.3,2-4.3,2.2-6.7
		c0.6-6-6.8-9.6-9.1-15.2c-2.4-5.7,2.1-13.2,8.3-13.7c-4.8-4.2-2.3-13.7,4-15c4.5-0.9,8.8,1.7,13.1,3.5c4.3,1.8,10.1,2.2,12.5-1.7
		c2.8-4.5-1.4-10.3-0.8-15.5c0.7-6.1,8.1-9.7,14.1-8.2c5.3,1.3,10,7.3,13.3,12.3c0.7,1.1,1.9,3.1,0.3,3.7l0,0
		c-5.2,1.4-10.4,2.8-15.6,4.2c-1,0.3-2,0.7-2.8,1.4c-5.1,4.5,1.9,11.6,5.8,14.2c0.6,0.4,1.3,0.7,2,0.8c4.7,0.9,7.2-4.7,9.9-8.4
		c3.9-5.3,12.1-7.6,17.4-3.1c3.6,3.1,4.5,8.4,1.5,12.1c-2.8,3.5-7.6,3.5-11.6,4.9c-8.4,3-13.1,12.3-21.1,16.2
		c-3.8,1.8-8.2,2.4-11.5,5.1C83.4,152.1,81.8,155.7,79.9,159z M417.5,227.7c-4.2,3.8-10.7,5.2-13.2,10.3c-4.1,8.4,6.7,18.9,2.1,27.1
		c-1.4,2.5-3.9,4-5.8,6.2c-6.3,7.3-3.6,20.1-11,26.2c-5.9,4.9-17.2,4.6-18.4,12.1c-0.7,4.4,3,8.5,2.5,12.8
		c-1.2,10-19.6,7.7-22.9,17.2c-0.8,2.3-0.4,4.8-0.5,7.2c-0.1,9.3-6.8,18.2-15.7,21c-8.2,2.5-17.3,0.1-25.7,2c-8.2,1.8-15.6,7.7-24,7
		c-8.2-0.6-14.5-7.2-22-10.4c-18.9-7.9-42.2,6.5-60.3-3c-6-3.2-10.7-8.7-17-11.3c-11.8-4.8-26.8,1.8-37.5-5.1
		c-3.6-2.3-6.2-5.8-9.7-8.1c-11.6-7.7-31.3-1.8-38.1-14c-2.9-7.2,9.5-14.1,6.4-21.2c-1.2-2.8-4.5-4.2-6.6-6.4
		c-5.7-5.9-1.8-16.2,4.5-21.5c6.2-5.3,14.4-8.3,19.8-14.5c-1-14.5-17.5-22.8-29.4-29.7c-2.8-1.6-4.8-4.3-5.3-7.5
		c-1.8-11.6,18.9-12.8,18.3-23.3c-0.4-5.5-6.7-8.3-9.9-12.8c-4.7-6.5-2.2-15.6,1.6-22.6c8.2-15.3,22-27.4,38.1-33.8l3-1.6
		c4.1-1.6,6.7-6.5,5.6-10.8c-0.4-1.7-1.3-3.4-0.9-5.1c0.3-1.2,1.4-2.1,2.4-2.8c10.9-7.4,26.2,0.1,38.9-3.6
		c6.1-1.8,11.1-6.1,16.7-9.2c13.3-7.3,31.1-6.9,42.9,2.7c3.1,2.6,5.8,5.7,9.1,8.1c11.2,8,26.5,5.3,40.2,3.5
		c13.7-1.8,30.3-0.8,37.5,11c0.9,1.5,1.8,3.3,3.4,4c1.3,0.6,2.9,0.3,4.3,0c10.6-1.9,21.6-1.4,31.9,1.4c1.5,0.4,3,0.9,4,2
		c1.2,1.3,1.5,3.1,1.9,4.9c2,9,7.7,17.1,15.4,22.2c4.1,2.7,8.7,4.5,12.6,7.5c3.9,3,7.1,7.5,6.5,12.4c-1,9-14.3,16.5-4.1,24.8
		c1.2,1,2.6,1.6,4,2C422.4,208,424.3,221.4,417.5,227.7z"/>
	<path id="XMLID_76_" class="st5" d="M417.5,227.7c6-5.5,5.2-16.7-1.5-21.3c-3.4-2.4-8.1-3.4-10-7.1c-3.5-6.9,6.3-13.5,7.2-21.2
		c0.6-4.9-2.6-9.4-6.5-12.4c-3.9-3-8.5-4.8-12.6-7.5c-7.7-5-13.4-13.2-15.4-22.2c-0.4-1.7-0.7-3.6-1.9-4.9c-1-1.1-2.6-1.6-4-2
		c-10.4-2.8-21.4-3.3-31.9-1.4c-1.4,0.3-3,0.5-4.3,0c-1.6-0.7-2.5-2.5-3.4-4c-7.2-11.8-23.8-12.7-37.5-11c-13.7,1.8-29,4.6-40.2-3.5
		c-3.3-2.4-5.9-5.5-9.1-8.1c-11.7-9.7-29.5-10-42.9-2.7c-5.6,3.1-10.6,7.4-16.7,9.2c-12.7,3.7-27.9-3.8-38.9,3.6
		c-1.1,0.7-2.1,1.6-2.4,2.8c-0.5,1.7,0.4,3.4,0.9,5.1c1.1,4.3-1.4,9.2-5.6,10.8l-3,1.6c-16.1,6.3-29.9,18.5-38.1,33.8
		c-3.8,7-6.2,16.1-1.6,22.6c3.2,4.5,9.5,7.3,9.9,12.8c0.6,9.8-17.7,11.5-18.4,21.3c-0.4,5.3,4.8,9.1,9.3,11.7
		c11.3,6.5,24.6,14.4,25.5,27.4c-5.4,6.2-13.5,9.2-19.8,14.5c-6.2,5.3-10.1,15.6-4.5,21.5c2.1,2.2,5.4,3.6,6.6,6.4
		c3.1,7.1-9.3,14-6.4,21.2c6.8,12.2,26.4,6.3,38.1,14c3.5,2.3,6.1,5.8,9.7,8.1c10.8,6.9,25.7,0.3,37.5,5.1c6.3,2.6,11,8.1,17,11.3
		c18.1,9.5,41.5-4.9,60.3,3c7.6,3.2,13.9,9.8,22,10.4c8.4,0.7,15.8-5.2,24-7c8.4-1.9,17.4,0.5,25.7-2c8.9-2.7,15.6-11.6,15.7-21
		c0-2.4-0.3-4.9,0.5-7.2c3.3-9.5,21.7-7.2,22.9-17.2c0.5-4.4-3.2-8.5-2.5-12.8c1.2-7.6,12.4-7.3,18.4-12.1c7.4-6.1,4.8-18.8,11-26.2
		c1.8-2.1,4.4-3.7,5.8-6.2c4.6-8.1-6.2-18.6-2.1-27.1C406.7,232.9,413.3,231.5,417.5,227.7z M373.6,221.3c3.1,2.1,6.8,3.9,8.5,7.3
		c2.1,4.4-0.3,9.7-3.7,13.2c-3.3,3.5-7.6,6.2-10.4,10.1c-4.3,6-4.3,14.8,0,20.8c-5.6-0.7-11.4,2.4-14,7.3c-2.6,5-1.7,11.5,2,15.6
		c1.5,1.6,3.4,3.1,3.6,5.3c0.2,3.4-4,5-7.3,5.7c-5.7,1.1-11.4,2.2-17,3.3c-2.6,0.5-5.3,1.1-7.3,2.8c-2,1.7-3,5-1.3,7.1
		c1.7,2.1,5.2,2.1,6.5,4.4c2,3.4-2.6,6.8-6.4,7.8c-3.8,1-8.7,3.1-8,7c3.6,1.5,7.7,3.6,8.2,7.4c0.4,3.1-1.9,6-4.7,7.3
		c-2.8,1.3-6,1.4-9.1,1.5c-5.2,0.1-12.1-1.3-12.3-6.4c-0.1-1.5,0.5-3,0.6-4.5c0.1-3-2.1-5.6-3.3-8.3c-1.3-2.8-1.2-6.9,1.7-7.9
		c-6.1-3-14.1-1.3-18.5,3.8c-2.6,3.1-4.1,7.2-7.5,9.4c-6.9,4.6-15.8-1.6-24.1-1.4c-9.5,0.3-18.1,9.2-27.4,6.8
		c-6.6-1.7-10.8-8.9-17.5-10.3c-5-1.1-10.1,1.4-15.1,2.4c-5.1,0.9-11.7-0.8-12.5-5.9c-0.6-4.1,2.8-9.1-0.1-12c-1-1-2.5-1.3-3.9-1.5
		c-7-1-14.2-0.3-20.9,2.2c-3.4,1.3-6.8,3-10.4,3c-3.6,0-7.6-2.6-7.6-6.2c0-1.9,1.1-3.7,0.9-5.6c-0.4-3.4-4.4-4.9-7.7-6.1
		c-3.2-1.2-6.8-4.5-5.1-7.5c0.7-1.3,2.2-1.9,3.5-2.4c7.8-2.6,13.9-1.8,16.5-9.6c-2.6,0.4-2.3-5.2-0.8-6.9c2.2-3.9,6.9-5.4,10.9-7.3
		c4-2,8.1-5.9,6.9-10.2c-1.1-4-5.8-5.4-9.6-7.1c-3.8-1.7-7.6-5.9-5.4-9.4c1.3-2,4.1-2.6,5.5-4.5c2.9-4.1-2.6-8.9-7.3-10.5
		c-4.7-1.6-10.8-4.5-9.9-9.4c0.8-3.8,5.5-5.3,7.9-8.5c3.2-4.3,1.1-10.6-2.7-14.3c-3.8-3.7-8.9-5.8-13.1-9c-4.3-3.2-7.9-8.3-6.7-13.5
		c1-4.2,4.8-7.1,8.4-9.6c13.8-9.5,27.6-19.1,41.4-28.6c4.9-3.4,10.1-6.8,16-7.1c4.8-0.2,9.3,1.7,14.1,2.2c10.3,1.2,20-4.2,29.8-7.7
		c9.8-3.5,22.2-4.5,29,3.3c1.3,1.5,2.4,3.3,3.9,4.7c1.5,1.4,3.5,2.2,5.4,2.8c17.1,5.1,34.5-7.5,52.3-7.2c3.1,0,6.9,1.2,7.3,4.3
		c0.3,3.2-3.5,5.2-4.8,8.1c-1.9,4,1.3,8.7,5.2,10.8c5.8,3,12.8,2.3,19.3,1c6.4-1.3,13-3,19.5-1.9c6.5,1.2,12.8,6.4,12.6,13
		c-0.1,2.2-0.8,4.3-1.8,6.2c-2.9,5.7-7.7,11.3-6.5,17.6c1.2,6.5,8.1,10,14.2,12.5c-0.4,6.3-11.9,5.1-14.3,11
		C367.6,215.4,370.5,219.2,373.6,221.3z"/>
	<path id="XMLID_81_" class="st7" d="M373.6,221.3c-3.1-2.1-6-5.9-4.6-9.4c2.3-5.9,13.9-4.7,14.3-11c-6.1-2.5-13-6-14.2-12.5
		c-1.2-6.3,3.7-11.9,6.5-17.6c1-1.9,1.7-4,1.8-6.2c0.2-6.6-6.1-11.8-12.6-13c-6.5-1.2-13,0.6-19.5,1.9c-6.4,1.3-13.4,2-19.3-1
		c-3.9-2-7.1-6.8-5.2-10.8c1.4-2.9,5.2-4.9,4.8-8.1c-0.3-3.1-4.2-4.2-7.3-4.3c-17.8-0.3-35.2,12.3-52.3,7.2c-2-0.6-3.9-1.4-5.4-2.8
		c-1.5-1.4-2.6-3.1-3.9-4.7c-6.8-7.8-19.3-6.8-29-3.3c-9.8,3.5-19.5,8.8-29.8,7.7c-4.7-0.5-9.3-2.4-14.1-2.2
		c-5.9,0.3-11.1,3.7-16,7.1c-13.8,9.5-27.6,19.1-41.4,28.6c-3.6,2.5-7.4,5.3-8.4,9.6c-1.2,5.2,2.5,10.3,6.7,13.5
		c4.3,3.2,9.3,5.3,13.1,9c3.8,3.7,5.9,10.1,2.7,14.3c-2.3,3.1-7.1,4.6-7.9,8.5c-1,4.9,5.1,7.8,9.9,9.4c4.7,1.6,10.2,6.4,7.3,10.5
		c-1.4,2-4.2,2.5-5.5,4.5c-2.2,3.5,1.6,7.7,5.4,9.4c3.8,1.7,8.5,3.1,9.6,7.1c1.2,4.3-2.9,8.2-6.9,10.2c-4,2-8.7,3.4-10.9,7.3
		c-1.5,1.7-1.9,7.3,0.8,6.9c-2.6,7.8-8.6,7.1-16.5,9.6c-1.4,0.5-2.8,1.1-3.5,2.4c-1.7,3,1.9,6.3,5.1,7.5c3.2,1.2,7.3,2.7,7.7,6.1
		c0.2,1.9-0.9,3.7-0.9,5.6c0,3.6,3.9,6.2,7.6,6.2c3.6,0,7-1.7,10.4-3c6.6-2.4,13.9-3.2,20.9-2.2c1.4,0.2,2.9,0.5,3.9,1.5
		c2.9,2.9-0.5,7.9,0.1,12c0.8,5.1,7.4,6.9,12.5,5.9c5.1-0.9,10.1-3.4,15.1-2.4c6.7,1.4,10.9,8.6,17.5,10.3
		c9.2,2.4,17.8-6.5,27.4-6.8c8.2-0.2,17.2,5.9,24.1,1.4c3.3-2.2,4.8-6.3,7.5-9.4c4.4-5.1,12.4-6.8,18.5-3.8c-2.9,1-3,5.1-1.7,7.9
		c1.3,2.8,3.4,5.3,3.3,8.3c0,1.5-0.6,3-0.6,4.5c0.2,5.2,7.2,6.6,12.3,6.4c3.1-0.1,6.3-0.2,9.1-1.5c2.8-1.3,5.1-4.3,4.7-7.3
		c-0.5-3.8-4.6-5.9-8.2-7.4c-0.7-3.9,4.2-5.9,8-7c3.8-1,8.3-4.4,6.4-7.8c-1.3-2.3-4.8-2.4-6.5-4.4c-1.7-2.1-0.7-5.3,1.3-7.1
		c2-1.7,4.7-2.3,7.3-2.8c5.7-1.1,11.4-2.2,17-3.3c3.3-0.7,7.5-2.3,7.3-5.7c-0.1-2.2-2.1-3.7-3.6-5.3c-3.8-4.1-4.6-10.7-2-15.6
		c2.6-5,8.4-8,14-7.3c-4.3-6-4.3-14.7,0-20.8c2.8-4,7.1-6.6,10.4-10.1c3.3-3.5,5.8-8.8,3.7-13.2
		C380.5,225.2,376.7,223.5,373.6,221.3z M366.3,176.3c-0.5,1-1.6,1.5-2.6,2c-3.4,1.6-6.8,3.3-9.2,6.2c-2.4,2.9-3.3,7.2-1.4,10.4
		c1.2,2,3.4,3.4,4.1,5.6c1.8,6.3-9.3,8.7-10.9,15.1c-1.2,5,3.9,9.1,8.6,11.2c4.6,2.2,10.2,5,10.6,10.1c0.6,7.4-9.7,10.4-13.5,16.7
		c-2.1,3.5-2.1,7.9-4.1,11.4c-4.7,8.2-18.2,8.7-21.5,17.6c-1.5,4.2-0.1,9-1.7,13.2c-2.1,5.8-9,8.2-15.1,8.8
		c-6.1,0.6-12.6,0.2-18,3.1c-9.5,5.1-12.6,19-22.9,22.1c-7.9,2.4-15.9-2.8-23.5-6.1c-11-4.9-23.6-6.3-35.4-3.8
		c-4.7,1-9.3,2.6-14.1,2.2c-4.8-0.4-9.7-3.5-10.3-8.2c-0.2-1.8,0.2-3.7-0.6-5.3c-0.8-1.5-2.4-2.2-4-2.8c-5.8-2.1-12-3.1-18.2-2.8
		c-4,0.2-8.1,0.9-12,0.1c-3.9-0.8-7.9-3.7-8.2-7.7c-0.5-5.9,6.2-9.4,11.7-11.7c5.5-2.2,11.8-7,9.9-12.6c-0.4-1.2-1.3-2.3-1.3-3.6
		c-0.1-1.3,1.8-2.3,2.3-3c3.1-4.1,8.8-5.1,13.5-7.2c4.7-2.1,9.4-7.3,7-11.9c-1.3-2.5-4.1-3.7-6.7-4.8c-7.2-2.9-14.5-6.4-19.4-12.5
		c-4.9-6.1-6.4-15.4-1.6-21.5c0.9-1.1,2-2.2,2.5-3.6c1.2-3.7-2.6-6.8-5.6-9.2c-4.7-3.7-9-8.8-9.1-14.8c-0.3-8.3,7.4-15,15.3-17.5
		c8-2.5,16.5-2.1,24.7-3.7c18.5-3.7,35.5-17.5,54.1-14.2c13.1,2.3,24.3,13.1,37.6,12.7c5.2-0.2,10.1-2.1,15.1-3.2
		c5-1.1,10.6-1.5,15.1,1.2c4.4,2.7,6.6,9.3,3.3,13.2c8.5,4.7,18.8,1.3,28.2-0.9c9.4-2.2,21.3-2.3,26.4,5.9
		C366.3,173.5,366.9,175,366.3,176.3z"/>
	<path id="XMLID_36_" class="st8" d="M190.9,217.3c7.6-1.7,11.1-10.3,17.4-14.1c3.8-2.3,8.5-4.5,9.3-8.9c0.5-2.6-0.7-5.5,0.3-8
		c1.1-2.8,4.4-4,7.3-4.9c5.7-1.7,11.3-3.4,17-5.1c3-0.9,6.3-1.8,9.3-0.7c3.1,1.1,5.2,4.2,8.4,5.1c3.9,1.2,8-1.2,11.4-3.5
		c2.7-1.8,5.7-5.3,3.6-7.8c-0.7-0.8-1.7-1.2-2.8-1.5c-7.5-2.1-15.5-0.4-23.2-1.2c-11.3-1.2-21.8-7.8-33.2-7.4
		c-2.3,0.1-4.8,0.5-6.4,2.2c-1.2,1.2-1.7,2.9-2.6,4.4c-2.7,4.4-8.5,5.7-13.7,5.4c-5.1-0.4-10.1-2-15.3-2.1c-4-0.1-8.6,1.5-9.7,5.3
		c-1.4,5,4.4,9.1,9.5,9.7s10.6-0.7,15.3,1.5c1.7,0.8,3.3,2.3,3.1,4.2c-0.1,1.2-1,2.1-1.9,2.9c-3.5,3-8.2,4.3-12.2,6.6
		c-4,2.4-7.6,6.9-6.3,11.3C177.1,216.5,184.9,217.5,190.9,217.3"/>
	<path id="XMLID_86_" class="st5" d="M365.6,172.3c-5.1-8.2-17-8.1-26.4-5.9c-9.4,2.2-19.8,5.6-28.2,0.9c3.3-3.9,1.1-10.5-3.3-13.2
		c-4.4-2.7-10-2.4-15.1-1.2c-5,1.1-10,3-15.1,3.2c-13.3,0.5-24.5-10.3-37.6-12.7c-18.6-3.3-35.6,10.5-54.1,14.2
		c-8.2,1.6-16.8,1.3-24.7,3.7c-8,2.5-15.6,9.2-15.3,17.5c0.2,6,4.4,11.1,9.1,14.8c3,2.4,6.8,5.5,5.6,9.2c-0.5,1.4-1.6,2.4-2.5,3.6
		c-4.8,6.1-3.2,15.4,1.6,21.5c4.9,6.1,12.2,9.5,19.4,12.5c2.6,1.1,5.5,2.3,6.7,4.8c2.3,4.6-2.3,9.8-7,11.9c-4.7,2.1-10.4,3-13.5,7.2
		c-0.4,0.7-2.4,1.7-2.3,3c0.1,1.3,0.9,2.4,1.3,3.6c2,5.6-4.4,10.4-9.9,12.6c-5.5,2.2-12.2,5.8-11.7,11.7c0.3,4,4.2,6.9,8.2,7.7
		c3.9,0.8,8,0.1,12-0.1c6.2-0.3,12.4,0.6,18.2,2.8c1.6,0.6,3.2,1.3,4,2.8c0.8,1.6,0.4,3.5,0.6,5.3c0.6,4.7,5.6,7.9,10.3,8.2
		c4.8,0.4,9.4-1.2,14.1-2.2c11.8-2.5,24.4-1.1,35.4,3.8c7.6,3.4,15.5,8.6,23.5,6.1c10.3-3.1,13.4-17,22.9-22.1
		c5.4-2.9,11.9-2.5,18-3.1c6.1-0.6,13-3,15.1-8.8c1.5-4.2,0.1-9,1.7-13.2c3.2-8.9,16.8-9.4,21.5-17.6c2-3.5,2-7.9,4.1-11.4
		c3.8-6.4,14-9.3,13.5-16.7c-0.4-5.1-6-7.9-10.6-10.1c-4.6-2.2-9.8-6.3-8.6-11.2c1.6-6.4,12.8-8.8,10.9-15.1
		c-0.7-2.2-2.9-3.6-4.1-5.6c-2-3.2-1-7.5,1.4-10.4c2.4-2.9,5.8-4.6,9.2-6.2c1-0.5,2.1-1,2.6-2C366.9,175,366.3,173.5,365.6,172.3z
		 M175.5,210.7c-1.3-4.5,2.3-9,6.3-11.3c4-2.4,8.7-3.6,12.2-6.6c0.9-0.8,1.7-1.7,1.9-2.9c0.2-1.8-1.4-3.4-3.1-4.2
		c-4.7-2.2-10.2-1-15.3-1.5c-5.1-0.6-10.9-4.7-9.5-9.7c1.1-3.8,5.7-5.3,9.7-5.3c5.2,0.1,10.2,1.7,15.3,2.1c5.1,0.4,10.9-1,13.7-5.4
		c0.9-1.4,1.4-3.1,2.6-4.4c1.6-1.7,4.1-2.1,6.4-2.2c11.4-0.4,21.9,6.2,33.2,7.4c7.7,0.8,15.7-0.9,23.2,1.2c1,0.3,2.1,0.7,2.8,1.5
		c2.1,2.5-0.9,6-3.6,7.8c-3.4,2.3-7.5,4.7-11.4,3.5c-3.1-1-5.3-4-8.4-5.1c-3-1.1-6.3-0.2-9.3,0.7c-5.7,1.7-11.3,3.4-17,5.1
		c-2.9,0.9-6.2,2.1-7.3,4.9c-1,2.5,0.2,5.4-0.3,8c-0.8,4.4-5.5,6.7-9.3,8.9c-6.4,3.8-9.9,12.4-17.4,14.1
		C184.9,217.5,177.1,216.5,175.5,210.7z M342,204.2c-2,3.8-6.8,5.3-9.7,8.5c-3.4,3.9-3.3,10.5,0.2,14.3c-2.3,3.8-7.8,3.5-12.3,3.1
		c-4.4-0.4-10.2,0.4-11.3,4.8c7-1,14.5-1.9,21.1,0.8c6.6,2.7,11.7,10.4,8.9,17c-4.1,9.8-21.5,10.3-22.6,20.9
		c-0.4,3.6,1.5,7.7-0.5,10.7c-1.2,1.9-3.5,2.7-5.6,3.2c-7,1.8-14.5,1.8-21.5,0.1c-5-1.2-12-2.4-13.9,2.4c-0.9,2.3,0.1,5-0.6,7.4
		c-1.4,5-8.5,5.6-13.2,3.5c-4.7-2.2-8.8-6.1-13.9-6.7c-4.8-0.6-9.5,1.8-13.6,4.3c-4.1,2.5-8.4,5.3-13.3,5.6
		c-4.8,0.3-10.3-3-10.3-7.9c0-2.2,1-4.6-0.4-6.3c-0.7-0.9-1.7-1.3-2.8-1.6c-9.2-2.9-19.4-2.8-28-7.2c-1.4-0.8-2.9-1.7-3.8-3.1
		c-3.3-5.3,3.6-11.1,9.5-12.9c6-1.7,13.7-4.1,14-10.3c0.1-2.3-0.9-4.6-0.4-6.8c0.9-3.5,5-4.8,8.4-6s8.4-3.5,7.5-7
		c-2.1-7.3-3.6-16.5,2.3-21.2c3.1-2.4,7.6-2.8,10.4-5.6c4.2-4.2,2.9-11.7,6.9-16.1c3.5-3.8,9.6-3.7,14.6-2.3c5,1.4,10,3.7,15.1,3.1
		c5.3-0.6,9.7-4,13.9-7.3c4.2-3.3,8.8-6.6,14.1-6.7c5.3-0.2,11,4.5,9.9,9.7c5.2,2.6,11.3,1.9,17,1c5.7-0.8,11.8-1.7,17.1,0.5
		C340.8,192.5,344.7,199.1,342,204.2z"/>
	<path id="XMLID_83_" class="st9" d="M335.4,190.3c-5.3-2.2-11.4-1.3-17.1-0.5c-5.7,0.8-11.8,1.5-17-1c1.1-5.2-4.6-9.8-9.9-9.7
		c-5.3,0.2-9.9,3.5-14.1,6.7c-4.2,3.3-8.6,6.7-13.9,7.3c-5.2,0.6-10.1-1.8-15.1-3.1c-5-1.4-11.1-1.6-14.6,2.3
		c-4,4.4-2.7,12-6.9,16.1c-2.8,2.8-7.3,3.2-10.4,5.6c-6,4.7-4.4,13.9-2.3,21.2c0.9,3.5-4.1,5.8-7.5,7s-7.5,2.5-8.4,6
		c-0.6,2.2,0.5,4.5,0.4,6.8c-0.3,6.2-8,8.6-14,10.3c-6,1.7-12.8,7.6-9.5,12.9c0.9,1.4,2.3,2.3,3.8,3.1c8.6,4.5,18.8,4.4,28,7.2
		c1,0.3,2.1,0.7,2.8,1.6c1.3,1.7,0.3,4.2,0.4,6.3c0,4.9,5.5,8.2,10.3,7.9c4.8-0.3,9.1-3.1,13.3-5.6c4.1-2.5,8.8-4.9,13.6-4.3
		c5.1,0.6,9.2,4.5,13.9,6.7c4.7,2.2,11.8,1.5,13.2-3.5c0.7-2.4-0.3-5.1,0.6-7.4c1.9-4.8,8.9-3.6,13.9-2.4c7,1.7,14.5,1.7,21.5-0.1
		c2.1-0.5,4.4-1.4,5.6-3.2c2-3.1,0.2-7.1,0.5-10.7c1.1-10.6,18.5-11.1,22.6-20.9c2.7-6.6-2.4-14.3-8.9-17c-6.6-2.7-14-1.8-21.1-0.8
		c1.1-4.3,6.8-5.2,11.3-4.8c4.4,0.4,9.9,0.7,12.3-3.1c-3.6-3.8-3.7-10.4-0.2-14.3c2.9-3.2,7.6-4.7,9.7-8.5
		C344.7,199.1,340.8,192.5,335.4,190.3z M318.7,213.4c-0.7,1.5-2.5,2.2-4.1,2.8c-5.2,1.8-10.2,3.9-15.1,6.3
		c-1.7,0.9-3.5,1.8-4.6,3.4c-2.4,3.5-0.3,8.5,3,11c3.4,2.5,7.7,3.2,11.7,4.3c4,1.1,8.3,3,10.3,6.7c2.1,4,0.9,9.1-2.1,12.6
		c-2.9,3.4-7.2,5.5-11.5,6.8c-10.4,3.3-21.7,3.6-32.3,0.7c-6.4-1.8-14.6-4.2-18.8,1c-1.9,2.4-2.2,5.7-4.3,8c-1.5,1.7-3.8,2.5-6,3
		c-8.4,2-17.6,0.6-25.1-3.7c-1.4-0.8-2.7-1.7-3.5-3.1c-1.9-3.5,1.1-7.8,4.5-10c9.5-6.2,22.2-5.1,31.8-11.1c3.2-2,6.1-6,4.3-9.2
		c-1-1.8-3-2.6-4.9-3.3c-4.5-1.6-3.4-7.8-7.9-9.5c-5.8,0-9-8-6.1-13.1c2.8-5.1,9.2-7.2,15-7.3c11-0.2,22,5.1,32.7,2.8
		c5.3-1.1,10.1-4,15.2-5.8c5.1-1.8,11.3-2.2,15.6,1.1C318.3,209.2,319.6,211.5,318.7,213.4z"/>
	<path id="XMLID_7_" class="st5" d="M244.1,230.2c-5.8,0-9-8-6.1-13.1s9.2-7.2,15-7.3c11-0.2,22,5.1,32.7,2.8
		c5.3-1.1,10.1-4,15.2-5.8c5.1-1.8,11.3-2.2,15.6,1.1c1.7,1.3,3,3.6,2.1,5.5c-0.7,1.5-2.5,2.2-4.1,2.8c-5.2,1.8-10.2,3.9-15.1,6.3
		c-1.7,0.9-3.5,1.8-4.6,3.4c-2.4,3.5-0.3,8.5,3,11c3.4,2.5,7.7,3.2,11.7,4.3c4,1.1,8.3,3,10.3,6.7c2.1,4,0.9,9.1-2.1,12.6
		c-2.9,3.4-7.2,5.5-11.5,6.8c-10.4,3.3-21.7,3.6-32.3,0.7c-6.4-1.8-14.6-4.2-18.8,1c-1.9,2.4-2.2,5.7-4.3,8c-1.5,1.7-3.8,2.5-6,3
		c-8.4,2-17.6,0.6-25.1-3.7c-1.4-0.8-2.7-1.7-3.5-3.1c-1.9-3.5,1.1-7.8,4.5-10c9.5-6.2,22.2-5.1,31.8-11.1c3.2-2,6.1-6,4.3-9.2
		c-1-1.8-3-2.6-4.9-3.3C247.5,238,248.6,231.8,244.1,230.2"/>
	<path id="XMLID_1_" class="st5" d="M-17.7,400.8c6.5,1.5,9.9-13.5,15.1-17.8s9.8-9.6,16-12c6.3-2.4,14.9-0.6,17.1,5.7
		c1.2,3.5,0.3,7.6,2,10.8c1.2,2.2,3.5,3.7,5,5.7c7.2,9.4-3.8,25.6,4.5,34c4.9,5,13.1,3.5,20,2.8s16.1,1.7,16.7,8.7
		c0.4,5.1-4.4,10.3-2.1,14.8c2.9,5.9,13.3,2.7,17.3,7.9c1.8,2.3,1.7,5.4,1.6,8.3c-0.3,6-0.5,12.1-0.8,18.1
		c-0.4,9.3-1.8,20.3-9.9,24.9c-9.5,5.4-21.3-1.8-28.5-10c-4.3-4.9-8.2-10.4-9.7-16.7c-1-4.1-1.1-8.5-3.1-12.2
		c-2.1-3.7-7.4-6-10.5-3.2c-1.6,1.4-2.2,3.7-3.8,5c-1.6,1.2-3.7,1.3-5.7,1C10.8,474.9,2.2,462.4-1,450s-2.7-25.5-6-37.9
		C-8.4,406.6-12.1,400.4-17.7,400.8"/>
	<path id="XMLID_2_" class="st5" d="M410.9,21.9c-3.2,1.4-6.8-0.1-10.3-0.7c-3.4-0.6-7.9,0.2-8.8,3.6c-0.9,3.4,2.5,6.1,5.3,8.2
		c5.6,4.1,11.2,11.1,8.2,17.3c-0.7,1.4-1.8,2.9-1.3,4.4c0.3,1,1.2,1.7,2.1,2.2c12.4,7.3,29.8-4.5,42.2,2.7c3,1.8,5.4,4.5,8.4,6.2
		c3,1.7,7.3,2.2,9.7-0.4c4.8-5.3-4.2-14.4-0.5-20.5c2.3-3.8,8-3.6,11.5-6.3c4.4-3.4,4.1-9.9,3.5-15.4c-0.1-1.2-0.3-2.4-1-3.4
		c-1.2-1.7-3.4-2.2-5.4-2.5c-6.6-1-14.8-1.4-18.4,4.3c-0.9,1.4-1.4,3.1-2.3,4.5c-2.9,4-9.3,3.8-13.5,1.3c-4.3-2.6-7.3-6.8-10.9-10.2
		c-1.3-1.2-3-2.4-4.8-2.1c-1.3,0.3-2.2,1.3-3.2,2.2c-3.1,2.8-7.2,4.5-11.4,4.7"/>
	<path id="XMLID_3_" class="st5" d="M451.7,403.3c-4.4,0-6.2-5.9-9.7-3.3c-3.5,2.6-3.9,7.8-2.7,12s3.4,8.1,3.9,12.5
		c0.6,5.4-1.8,11.1-6.1,14.4c-3.8,2.9-9.2,4.6-10.5,9.2c-0.5,1.7-0.2,3.6-0.4,5.4c-0.8,5.7-7.1,9.2-12.8,9.6
		c-5.8,0.5-11.5-1.1-17.2-1.2c-1.7,0-3.5,0.1-5,0.9c-4,2.2-4.3,7.7-4.1,12.3c0.1,1.8,0.2,3.8,1.5,5.1c1,1,2.4,1.3,3.8,1.6
		c9.1,1.9,18.6,3.8,27.7,1.6c6.4-1.5,13-5.1,19.2-2.7c2.2,0.8,4,2.3,6.1,3.4c4.4,2.2,10.1,2,14.2-0.8s6.2-8.4,4.6-13.1
		c-1.7-5.3-7.6-9.6-6.2-15c1-3.6,4.8-5.5,7.8-7.8c7.1-5.5,10.4-15.6,7.7-24.1c-0.3-0.8-0.6-1.7-1.3-2.1c-0.8-0.5-1.9-0.2-2.8,0
		c-6.3,1.2-14.2-2.7-14.1-9.2c0-1-0.4-1.9-0.2-2.9C455.3,407.3,454.4,402.9,451.7,403.3"/>
</g>
<g id="Calque_3">
</g>
</svg>
