<?xml version="1.0" encoding="utf-8"?>
<!-- Generator: Adobe Illustrator 19.0.0, SVG Export Plug-In . SVG Version: 6.00 Build 0)  -->
<svg version="1.0" xmlns="http://www.w3.org/2000/svg" xmlns:xlink="http://www.w3.org/1999/xlink" x="0px" y="0px"
	 viewBox="0 0 600 300" style="enable-background:new 0 0 600 300;" xml:space="preserve">
<style type="text/css">
	.st0{opacity:0.1;fill:#010202;}
	.st1{fill:#C67E7F;}
	.st2{fill:#BC6868;}
	.st3{fill:#B35656;}
	.st4{fill:#562120;}
	.st5{fill:#020304;}
	.st6{fill:#333333;}
	.st7{fill:#A5A3A3;}
	.st8{fill:#848480;}
	.st9{fill:#CECECE;}
	.st10{opacity:0.1;fill:#FFFFFF;}
	.st11{opacity:0.2;fill:#FFFFFF;}
	.st12{fill:none;stroke:#010202;stroke-width:4;stroke-miterlimit:10;}
	.st13{fill:#ADA387;}
	.st14{fill:#F8EABF;}
	.st15{fill:#010202;}
	.st16{fill:#828282;}
	.st17{opacity:0.5;fill:url(#XMLID_18_);}
	.st18{opacity:0.4;fill:#FFFFFF;}
	.st19{opacity:0.25;fill:#FFFFFF;stroke:#000000;stroke-width:3;stroke-miterlimit:10;}
	.st20{fill:#FFFFFF;stroke:#000000;stroke-width:3;stroke-miterlimit:10;}
	.st21{fill:#C15756;}
	.st22{fill:none;stroke:#000000;stroke-width:3;stroke-miterlimit:10;}
</style>
<g id="Calque_4_-_copie">
	<g id="Calque_5_-_copie">
		<g id="Calque_9_-_copie">
			<g id="圖層_1_-_copie">
			</g>
		</g>
		<g id="Calque_8_-_copie">
		</g>
		<g id="Calque_3_-_copie_2_1_">
		</g>
		<g id="Calque_3_-_copie_2">
		</g>
		<path id="XMLID_86_" class="st0" d="M360.1,199.5c7.3-8.5,8.1-12.5,11.5-23.8h6.7c4.9,0,9.4-1.9,12.8-5.2c-0.9,2.1-2,4.2-3.1,6.3
			c1.1-2.1,2.2-4.3,3.2-6.4c1.4-1.4,2.6-3,3.5-4.8c0.6-1.2,1.2-2.4,1.7-3.6c0,0,0,0,0,0c0-0.1,0.1-0.1,0.1-0.2
			c0.2-0.5,0.5-1.1,0.7-1.6c0.1-0.2,0.1-0.3,0.2-0.5c0.2-0.5,0.4-1.1,0.7-1.6c0.1-0.2,0.1-0.3,0.2-0.5c0.2-0.6,0.4-1.1,0.6-1.7
			c0.1-0.2,0.1-0.3,0.2-0.5c0.2-0.6,0.4-1.2,0.6-1.7c0-0.1,0.1-0.2,0.1-0.3c0.8-2.6,1.6-16.3,2.2-19c0.1-0.3,0.1-0.5,0.2-0.8
			c0.1-0.5,0.2-0.9,0.3-1.4c0.1-0.3,0.1-0.7,0.2-1c0.1-0.4,0.2-0.9,0.2-1.3c0.1-0.4,0.1-0.7,0.2-1.1c0.1-0.4,0.1-0.8,0.2-1.2
			c0.1-0.4,0.1-0.8,0.2-1.2c0-0.4,0.1-0.8,0.1-1.2c0-0.4,0.1-0.9,0.1-1.3c0-0.4,0.1-0.7,0.1-1.1c0-0.5,0.1-0.9,0.1-1.4
			c0-0.3,0-0.7,0.1-1c0-0.5,0.1-1.1,0.1-1.6c0-0.3,0-0.6,0-0.8c0-0.8,0-1.7,0-2.5c0-1.2,0-2.3-0.1-3.5c0-0.2,0-0.5,0-0.7
			c-0.1-1.1-0.1-2.3-0.2-3.4c0-0.1,0-0.3,0-0.4c-0.1-1.1-0.2-2.2-0.4-3.2c0-0.1,0-0.3-0.1-0.4c-0.2-1.2-0.3-2.3-0.5-3.4
			c0-0.1,0-0.2-0.1-0.4c-0.4-2.4-0.9-4.7-1.6-7c0-0.1,0-0.1-0.1-0.2c-0.6-2.4-1.4-4.7-2.2-7c0,0,0,0,0,0l0,0
			c-2.3-6.3-5.3-12.4-9-18.1c0,0,0-0.1-0.1-0.1c-0.4-0.7-0.9-1.3-1.3-1.9c0-0.1-0.1-0.1-0.1-0.2c-0.4-0.6-0.9-1.2-1.3-1.9
			c0-0.1-0.1-0.1-0.1-0.2c-0.4-0.6-0.9-1.2-1.4-1.8c0-0.1-0.1-0.1-0.1-0.2c-0.5-0.6-0.9-1.2-1.4-1.8c0,0-0.1-0.1-0.1-0.1
			c-0.5-0.6-1-1.2-1.5-1.9c0,0,0,0,0-0.1c-5.4-6.4-11.8-12.1-18.8-17.1c0,0,0,0-0.1,0c-0.7-0.5-1.4-0.9-2.1-1.4c0,0-0.1,0-0.1-0.1
			c-0.7-0.5-1.4-0.9-2.1-1.4c0,0-0.1,0-0.1,0c-0.7-0.5-1.4-0.9-2.2-1.3c0,0,0,0,0,0C340.5,26.5,321,20.9,300,20.9
			c-2.2,0-4.5,0.1-6.7,0.2c-0.2,0-0.5,0-0.7,0c-1.3,0.1-2.6,0.2-3.8,0.3c-0.2,0-0.4,0-0.6,0.1c-1.3,0.1-2.6,0.3-3.9,0.5c0,0,0,0,0,0
			c-1.3,0.2-2.6,0.4-3.9,0.6c-0.2,0-0.4,0.1-0.6,0.1c-1.3,0.2-2.5,0.5-3.8,0.7c-0.2,0-0.3,0.1-0.5,0.1c-2.6,0.6-5.1,1.2-7.7,2
			c-0.1,0-0.3,0.1-0.4,0.1c-1.3,0.4-2.5,0.8-3.7,1.2c-0.1,0-0.2,0.1-0.2,0.1c-2.5,0.9-5,1.8-7.5,2.9c-0.1,0-0.2,0.1-0.2,0.1
			c-3.7,1.6-7.4,3.4-10.8,5.4c0,0,0,0-0.1,0c-3.5,2-6.9,4.2-10.1,6.5c0,0,0,0,0,0l0,0c-8.6,6.3-16.1,13.9-22.2,22.4c0,0,0,0,0,0
			c0,0,0,0,0,0c-1,1.5-2.1,3-3,4.5l0,0c0,0,0,0,0,0c-3.4,5.4-6.2,11.1-8.4,17.1c0,0.1-0.1,0.2-0.1,0.3c-0.3,0.7-0.5,1.4-0.7,2.2
			c0,0.1-0.1,0.3-0.1,0.4c-0.2,0.7-0.4,1.4-0.7,2.1c0,0.1-0.1,0.3-0.1,0.4c-0.2,0.8-0.4,1.5-0.6,2.3c0,0.1,0,0.2-0.1,0.2
			c-0.4,1.7-0.8,3.4-1.2,5.2c0,0.1,0,0.2-0.1,0.3c-0.1,0.7-0.3,1.5-0.4,2.2c0,0.2-0.1,0.5-0.1,0.7c-0.1,0.6-0.2,1.2-0.3,1.8
			c0,0.3-0.1,11.7-0.1,12c-0.1,0.6-0.1,1.1-0.2,1.7c0,0.3-0.1,0.6-0.1,1c-0.1,0.6-0.1,1.1-0.1,1.7c0,0.3,0,0.6-0.1,1
			c0,0.6-0.1,1.2-0.1,1.8c0,0.3,0,0.6,0,0.8c0,0.9,0,1.8,0,2.6c0,1.2,0,2.4,0.1,3.6c0,0.3,0,0.5,0,0.8c0.1,1.2,0.1,2.4,0.2,3.5
			c0,0.1,0,0.2,0,0.3c0.1,1.1,0.2,2.2,0.4,3.3c0,0.2,0.1,0.4,0.1,0.6c0.2,1.2,0.4,2.4,0.6,3.5c0,0.1,0,0.2,0.1,0.4
			c0.2,1.1,0.4,2.2,0.7,3.3c0,0.1,0.1,0.2,0.1,0.4c0.3,1.2,0.6,2.4,0.9,3.5c0,0.1,0.1,0.2,0.1,0.4c0.3,1.2,0.7,2.3,1.1,3.5
			c0,0,0,0,0,0c0.4,1.2,0.8,2.3,1.2,3.5c0,0.1,0,0.1,0.1,0.2c0,0,0,0,0,0c1.1,2.8,2.3,5.6,3.6,8.2c3.1,6.2,9.5,10.1,16.4,10.1h6.7
			c3.2,10.6,4.5,13.4,11.1,21.6c-33.2,18.5-64.1,60.3-74,102.8h14.7h7.2h10.2h36.1h22.7h4.1h14.1h51.3h14.1h4.1h7.4h47.2h10.2h7.2
			h12.8C418.9,258.8,392,218.4,360.1,199.5z"/>
	</g>
</g>
<g id="Calque_4">
	<path id="XMLID_41_" d="M174.8,300H421c-14.9-63.6-64.3-110.3-123.1-110.3S189.7,236.4,174.8,300z"/>
	<path id="XMLID_21_" class="st1" d="M180.2,300h235.5c-14.2-61.7-61.5-107-117.7-107S194.4,238.3,180.2,300z"/>
	<path id="XMLID_38_" class="st2" d="M187.3,300h221.2c-13.4-61.7-57.8-107-110.6-107S200.7,238.3,187.3,300z"/>
	<path id="XMLID_39_" class="st3" d="M197.5,300h200.8c-12.1-61.7-52.5-107-100.4-107S209.6,238.3,197.5,300z"/>
	<g id="圖層_1_1_">
		<path id="XMLID_30_" class="st4" d="M370.7,221.7c-2.2,2.4-3.9,4.3-4.3,4.9c-2.4-0.5-4.9-1-7.3-0.2s-4.2,3.3-3.4,5.6
			c0.4,1.1,1.2,1.9,1.9,2.8c2,2.8,1.9,6.8-0.1,9.6c-2.4,3.2-6.7,4.3-9.1,7.5c-1.6,2.2-2,5.1-2.2,7.9c-0.1,1.2-0.2,2.5,0.3,3.7
			s1.6,2.1,2.8,1.9c1.6-0.2,2.3-2,3.2-3.3c1.4-1.9,4.4-3,6.2-1.4c2.9,2.7-1.3,7.5-0.1,11.3c0.8,2.4,3.6,3.6,6.1,4
			c3.7,0.5,7.4,0.2,10.9-1.1c0.9-0.3,1.8-0.7,2.7-0.6c2.2,0.1,3.6,2.5,3.9,4.6s-0.1,4.4,0.4,6.5s2.6,4.1,4.6,3.5
			c0.7-0.2,1.3-0.7,2-0.9c2.3-0.6,4,2,4.8,4.3c0.8,2.2,13.9-5.1,16.3-4.9c0.4,0,1,0.2,1.8,0.3C404,261.2,389.4,238.4,370.7,221.7z"
			/>
		<path id="XMLID_31_" class="st4" d="M197.2,273.5c2.1-2.7,6.4-2.5,9.1-0.5c0.8,0.6,1.6,1.4,2.7,1.6c2.1,0.4,3.7-1.9,4.6-3.8
			c0.9-2,2-4.3,4.2-4.5c3-0.3,5.5,3.9,8.2,2.7c1.9-0.9,1.8-3.6,1.5-5.7c-0.4-2.1-0.2-4.9,1.9-5.5c0.7-0.2,1.4,0,2.2,0
			c2.4,0,4.8-2,4.8-4.4s-2.8-4.5-5-3.5c-0.7,0.3-1.4,0.9-2.1,0.6c-0.4-0.2-0.6-0.5-0.8-0.9c-1.6-2.8-2.9-6.9-0.3-8.8
			c2-1.5,5.1-0.4,7-2c1.8-1.5,1.3-4.5-0.1-6.3s-3.5-3-5.1-4.7c-1.5-1.7-2.5-3.8-2.8-6.1c-0.1-0.5-0.1-1,0-1.4
			c-17,14.5-30.8,34.1-39.8,57C191.1,276,196.3,274.7,197.2,273.5z"/>
		<path id="XMLID_32_" class="st4" d="M349.2,293.6c0.2-1.8,1.2-3.5,1-5.4c-0.4-4.3-6.7-5.7-7.7-9.9c-0.6-2.2,0.5-5-1.1-6.6
			c-2-2-5.7,0-8.1-1.4c-2.2-1.3-2.6-4.8-5-5.5c-2-0.6-3.8,1.1-5.8,1.7c-3,0.9-6.3-0.8-8.2-3.4c-1-1.3-1.8-2.9-3.3-3.5
			c-3.4-1.3-6.7,3.5-10.3,2.9c-2.5-0.4-4.4-3.3-7-2.9c-2.3,0.4-3.2,3.3-3.5,5.6c-0.3,2.3-9.3-8.1-11.7-7.9c-3.2,0.3-5.6-4.5-8.7-3.6
			c-2.7,0.8-2.5,4.8-4.5,6.7c-1.4,1.4-3.6,1.5-5.3,2.6c-3.7,2.3-4,8.3-8,9.9c-1.2,0.5-2.6,0.4-3.8,0.9c-3,1.2-4.1,4.8-4.7,8
			l-0.4,0.5c0.2,1.2-1.2,2.2-2.5,2.2c-1.2,0.1-2.5-0.4-3.7-0.4c-2,0-3.9,1.2-4.7,3.1c-0.4,1,0.3,7.4,1.3,12.9h117.6
			C349.9,298,348.9,295.9,349.2,293.6z"/>
	</g>
	<path id="XMLID_27_" class="st5" d="M256.3,300h87.5c-25.9-18-43.8-49.8-43.8-49.8S282.2,282,256.3,300z"/>
	<path id="XMLID_43_" class="st6" d="M260.3,300h79.4c-23.5-17.6-39.7-48.8-39.7-48.8S283.8,282.4,260.3,300z"/>
	<path id="XMLID_42_" class="st7" d="M274.4,300h51.3c-15.2-17.6-25.6-48.8-25.6-48.8S289.6,282.4,274.4,300z"/>
	<g id="Calque_6">
		<path id="XMLID_19_" class="st5" d="M299.8,245.2l-42.4-9.7l14,12.3c0,0,10.9,6.9,16.6,9.9c7.1,3.7,12.1,18.9,12.1,18.9
			s4.3-14.9,11.4-18.6c5.6-3,16.9-10.2,16.9-10.2l14-11.8L299.8,245.2z"/>
		<path id="XMLID_23_" class="st8" d="M299.8,248.2l-36.1-9.1l18.4,11.6c0,0,7.6,3.9,11.1,5.8c4.4,2.3,6.7,16.4,6.7,16.4
			s2.1-14.1,6.5-16.4c3.5-1.8,11.1-5.8,11.1-5.8l18-11.3L299.8,248.2z"/>
		<path id="XMLID_20_" class="st9" d="M299.8,252.6l-13.5-4.5l7.2,4.5c0,0,2.7,1.4,3.9,2.1c1.6,0.8,2.3,10.6,2.3,10.6
			s0.8-9.7,2.3-10.6c1.2-0.7,3.9-2.1,3.9-2.1l7.2-4.5L299.8,252.6z"/>
	</g>
	<g id="Calque_5">
		<g id="Calque_9">
			<path id="XMLID_45_" class="st3" d="M378.3,175.7c6.9,0,13.3-3.9,16.4-10.1c6-11.9,9.3-25.1,9.3-39.1C404,74.3,357.4,32,300,32
				s-104,42.3-104,94.5c0,13.9,3.3,27.2,9.3,39.1c3.1,6.2,9.5,10.1,16.4,10.1H378.3z"/>
			<g id="圖層_1">
				<path id="XMLID_11_" class="st4" d="M207.9,82.6c0.1,0.6,0.3,1.3-0.1,1.8c-0.2,0.2-0.6,0.3-0.9,0.4c-0.1,0-0.2,0-0.2,0
					c-6.8,12.6-10.7,26.7-10.7,41.7c0,10.8,2,21.2,5.7,30.9c1.5,0.1,2.9,0.2,4.1-0.4c1.9-1,2.4-3.5,2.3-5.7c-0.1-3.1-1-6.2-2.5-8.9
					c-0.4-0.7-0.8-1.4-0.9-2.2c-0.2-1.8,1.5-3.3,3.2-3.9c1.7-0.6,3.6-0.6,5.3-1.4s3-2.7,2.2-4.4c-0.3-0.6-0.8-1-1-1.6
					c-0.8-1.8,1.1-3.6,2.8-4.6c1.7-1,3.8-2.3,3.6-4.3c-0.2-1.8-2.2-2.7-3.1-4.2c-1.6-2.4-0.2-5.7,2.1-7.4c0.7-0.5,1.6-0.9,2-1.7
					c0.9-1.6-0.5-3.5-1.8-4.7c-1.3-1.2-2.9-2.8-2.5-4.5c0.6-2.4,4.6-3.3,4.3-5.8c-0.2-1.8-2.4-2.4-4.2-2.7c-1.8-0.3-4-1.2-3.9-3
					c0-0.6,0.4-1.1,0.6-1.7c0.7-1.9-0.3-4.4-2.2-5c-0.8-0.3-1.7-0.1-2.5,0.3C209,80.7,208.4,81.6,207.9,82.6
					C207.9,82.6,207.9,82.6,207.9,82.6z"/>
				<path id="XMLID_10_" class="st4" d="M234.8,53.5c-0.1,1-0.7,2-0.8,3c-0.3,1.6,0.5,3.4,1.9,4.3c1.4,0.9,3.3,0.8,4.7-0.1
					c0.8-0.6,1.5-1.5,2.4-2c2-1.2,4.5-0.3,6.7,0.7c-0.1,2.1-0.1,4.2,0.9,6c1,1.8,3.4,3,5.2,2c0.8-0.5,1.4-1.3,2-2
					c2-2.1,5.3-2.6,7.9-1.4c3,1.5,4.6,4.9,7.6,6.3c2.1,1,4.5,0.9,6.9,0.6c1-0.1,2.1-0.2,3-0.8c0.9-0.6,1.5-1.7,1.2-2.6
					c-0.4-1.3-2-1.6-3.3-2.2c-1.8-0.8-3.2-3.2-2.1-4.9c1.8-2.8,6.4-0.1,9.3-1.6c1.9-1,2.4-3.5,2.3-5.7c-0.1-3.1-1-6.2-2.5-8.9
					c-0.4-0.7-0.8-1.4-0.9-2.2c-0.2-1.8,1.5-3.3,3.2-3.9c1.7-0.6,3.6-0.6,5.3-1.4s3-2.7,2.2-4.4c-0.1-0.2-0.2-0.4-0.3-0.5
					c-23.7,0.5-45.4,8.3-62.6,20.9C234.8,53.1,234.8,53.3,234.8,53.5z"/>
				<path id="XMLID_8_" class="st4" d="M324.7,34.7c0,0.2,0,0.4,0,0.6c0.3,2.3,3.6,2.7,5,4.6c1,1.3,0.8,3.2,1.4,4.7
					c1.4,3.3,6.4,4.3,7.2,7.9c0.2,1.1,0,2.2,0.3,3.2c0.6,2.7,3.5,4,6,5l0.4,0.4c1,0,1.6,1.3,1.5,2.3c-0.1,1-0.7,2-0.8,3
					c-0.3,1.6,0.5,3.4,1.9,4.3c1.4,0.9,3.3,0.8,4.7-0.1c0.8-0.6,1.5-1.5,2.4-2c2-1.2,4.5-0.3,6.7,0.7c-0.1,2.1-0.1,4.2,0.9,6
					c1,1.8,3.4,3,5.2,2c0.8-0.5,1.4-1.3,2-2c2-2.1,5.3-2.6,7.9-1.4c3,1.5,4.6,4.9,7.6,6.3c1.9,0.9,4.2,0.9,6.3,0.7
					C377.3,58.1,353.3,41,324.7,34.7z"/>
				<path id="XMLID_9_" class="st4" d="M398.8,96.9c-0.1,0.2-0.3,0.3-0.4,0.5c-1.6,1.4-4.5,0.8-5.7,2.5c-1,1.4-0.2,3.3-0.2,5
					c-0.1,2.6-2.4,4.8-4.9,5.6c-1.3,0.4-2.8,0.6-3.7,1.7c-2,2.3,0.9,6.2-0.5,9c-1,1.9-3.8,2.6-4.2,4.7c-0.3,2,1.7,3.4,3.5,4.3
					s3.9,2.2,3.8,4.1c-0.2,2.7-4.4,4-4.1,6.7c0.3,2.3,3.6,2.7,5,4.6c1,1.3,0.8,3.2,1.4,4.7c1.4,3.3,6.4,4.3,7.2,7.9
					c0.2,1.1,0,2.2,0.3,3.2c0,0.2,0.1,0.4,0.2,0.6c4.9-11,7.6-22.9,7.6-35.5C404,116.1,402.2,106.2,398.8,96.9z"/>
			</g>
			<path id="XMLID_37_" class="st10" d="M345.6,66.4c49.3,27.7,66,65.6,42.5,110.4c23.8-45.2,21.3-97.4-34.1-128.7
				c-50-28.2-107.6-12.5-141.4,27.2C246.3,35.8,295.5,38.3,345.6,66.4z"/>
			<path id="XMLID_24_" class="st11" d="M352.5,57.9c49.3,27.7,59.1,74.2,35.6,118.9c23.8-45.2,21.3-97.4-34.1-128.7
				c-50-28.2-107.6-12.5-141.4,27.2C246.3,35.8,302.4,29.7,352.5,57.9z"/>
			<path id="XMLID_3_" class="st12" d="M378.3,175.7c6.9,0,13.3-3.9,16.4-10.1c6-11.9,9.3-25.1,9.3-39.1C404,74.3,357.4,32,300,32
				s-104,42.3-104,94.5c0,13.9,3.3,27.2,9.3,39.1c3.1,6.2,9.5,10.1,16.4,10.1H378.3z"/>
		</g>
		<path id="XMLID_2_" d="M375.4,150c0,45.3-33.8,82-75.4,82s-75.4-36.7-75.4-82c0-9.6,1.5-18.8,4.3-27.3
			c10.4-31.9,38.3-15.3,71.1-15.3c33.3,0,61.6-15.9,71.6,16.7C374.1,132.2,375.4,140.9,375.4,150z"/>
		<path id="XMLID_15_" class="st13" d="M372.3,150.7c0,43.4-32.4,78.7-72.3,78.7s-72.3-35.2-72.3-78.7c0-9.2,1.4-18,4.1-26.2
			c9.9-30.6,36.7-14.7,68.2-14.7c31.9,0,59-15.2,68.6,16C371,133.6,372.3,142,372.3,150.7z"/>
		<path id="XMLID_5_" class="st14" d="M363.8,150.8c0,41.9-30.3,78.4-65.6,78.4s-62.1-36.4-62.1-78.4c0-8.9,1.3-17.4,3.6-25.3
			c8.8-29.5,32.4-11.1,60.2-11.1c28.2,0,52.1-17.8,60.6,12.4C362.7,134.3,363.8,142.3,363.8,150.8z"/>
		<g id="Calque_8">
			<path id="XMLID_48_" class="st15" d="M235.2,107.5c9.8,6.8,31.7,24.3,64.7,24.3c32.6,0,53.9-17,64-23.9
				c-15-12.2-35.1-3.1-63.8-3.1C271,104.8,250.4,94.5,235.2,107.5z"/>
			<path id="XMLID_4_" class="st16" d="M239.5,107c8.4,5.8,32.3,20.4,60.5,20.4c27.9,0,51.5-14.3,60.2-20.2
				c-13.8-8.5-35.6,0.1-60.1,0.1C275.2,107.3,253.2,97.9,239.5,107z"/>
			
				<linearGradient id="XMLID_18_" gradientUnits="userSpaceOnUse" x1="299.8188" y1="-16189.0039" x2="299.8188" y2="-16203.1875" gradientTransform="matrix(1 0 0 -1 0 -16082)">
				<stop  offset="0" style="stop-color:#FFFFFF;stop-opacity:0"/>
				<stop  offset="1" style="stop-color:#FFFFFF"/>
			</linearGradient>
			<path id="XMLID_12_" class="st17" d="M254.1,110c6.3,4.4,24.8,11.2,46.2,11.2c21.1,0,38.7-6.5,45.2-11c-10.4-6.5-27,0.1-45.6,0.1
				C281.2,110.2,264.5,103.1,254.1,110z"/>
		</g>
		<path id="XMLID_17_" class="st0" d="M306.7,186.9h-13.6c-0.8,0-1.5-0.7-1.5-1.5v-1.7c0-0.5,0.2-0.9,0.6-1.2l23.5-16.6
			c0.3-0.2,0.6-0.3,0.9-0.3h1.7c1.2,0,1.9,1.3,1.3,2.3l-11.5,18.3C307.7,186.7,307.2,186.9,306.7,186.9z"/>
		<path id="XMLID_13_" class="st15" d="M306,182.9h-12.8c-1,0-1.9-0.5-2.3-1.4l-6.8-11.9c-1-1.8,0.3-4,2.3-4h3.4l10.4,3.3l10.2-3.3
			h3.2c2.1,0,3.4,2.3,2.3,4.1l-7.5,11.9C307.8,182.4,306.9,182.9,306,182.9z"/>
		<path id="XMLID_14_" class="st14" d="M304.4,180.3h-9.5c-1,0-1.9-0.6-2.4-1.4l-5-9.1c-1-1.8,0.3-4,2.4-4h19.8
			c2.1,0,3.4,2.3,2.4,4.1l-5.4,9.1C306.3,179.8,305.4,180.3,304.4,180.3z"/>
		<path id="XMLID_26_" class="st18" d="M300,169.1v8.1c0,1.3,1.1,2.4,2.4,2.4h0.7c0.8,0,1.6-0.4,2.1-1.2l4.8-8.1
			c1-1.6-0.2-3.6-2.1-3.6l-5.5,0C301.1,166.7,300,167.8,300,169.1z"/>
		<g id="Calque_3">
			<path id="XMLID_6_" class="st19" d="M271.7,162.7h-7.5c-1.6,0-3-0.9-3.7-2.4l-4.2-9.2c-1.2-2.7,0.7-5.8,3.7-5.8h16.3
				c3,0,5,3.2,3.6,5.9l-4.6,9.2C274.7,161.8,273.2,162.7,271.7,162.7z"/>
			<path id="XMLID_28_" class="st20" d="M272.4,159.7h-8.9c-1.2,0-2.3-0.6-2.8-1.7l-4.5-8.2c-1.2-2.1,0.4-4.7,2.8-4.7h18.3
				c2.5,0,4,2.7,2.8,4.8l-4.9,8.2C274.6,159.1,273.5,159.7,272.4,159.7z"/>
			<ellipse id="XMLID_7_" class="st21" cx="268.3" cy="152.4" rx="2.6" ry="4.4"/>
		</g>
		<g id="Calque_3_-_copie">
			<path id="XMLID_47_" class="st19" d="M331.8,162.7h-7.5c-1.6,0-3-0.9-3.7-2.4l-4.2-9.2c-1.2-2.7,0.7-5.8,3.7-5.8h16.3
				c3,0,5,3.2,3.6,5.9l-4.6,9.2C334.8,161.8,333.4,162.7,331.8,162.7z"/>
			<path id="XMLID_46_" class="st20" d="M332.5,159.7h-8.9c-1.2,0-2.3-0.6-2.8-1.7l-4.5-8.2c-1.2-2.1,0.4-4.7,2.8-4.7h18.3
				c2.5,0,4,2.7,2.8,4.8l-4.9,8.2C334.7,159.1,333.6,159.7,332.5,159.7z"/>
			<ellipse id="XMLID_22_" class="st21" cx="328.4" cy="152.4" rx="2.6" ry="4.4"/>
		</g>
		<path id="XMLID_29_" class="st18" d="M337.9,137.9h-12.8c-2.7,0-5.4,0.4-7.9,1.2l-11.1,3.6c-4.2,1.4-9,1.4-13.2,0.1l-13.5-4.2
			c-1.6-0.5-3.4-0.8-5.1-0.8H258c-2.3,0-4.1-1.4-4.1-3.1l0,0c0-1.7,1.9-3.1,4.1-3.1h16.6c1.8,0,3.6,0.3,5.2,0.8l13,4.1
			c4.3,1.3,9.1,1.3,13.4-0.1l10.4-3.4c2.7-0.9,5.7-1.4,8.7-1.4h12.6c2.3,0,4.1,1.4,4.1,3.1l0,0C342,136.5,340.1,137.9,337.9,137.9z"
			/>
		<path id="XMLID_25_" class="st18" d="M266.4,176h-13c-1.7,0-3-1.4-3-3l0,0c0-1.7,1.4-3,3-3h13c1.7,0,3,1.4,3,3l0,0
			C269.4,174.6,268,176,266.4,176z"/>
		<path id="XMLID_40_" class="st18" d="M346.9,175.1h-13c-1.7,0-3-1.4-3-3l0,0c0-1.7,1.4-3,3-3h13c1.7,0,3,1.4,3,3l0,0
			C349.9,173.8,348.5,175.1,346.9,175.1z"/>
		<path id="XMLID_16_" class="st22" d="M287.7,207.5c2.3-2.8,6.1-4,9.7-4.3s7.3,0,10.8-0.6"/>
		<path id="XMLID_33_" class="st0" d="M303.7,210.1l-8,0.4c-1.3,0.1-2.4-0.9-2.5-2.3l0,0c-0.1-1.3,0.9-2.4,2.3-2.5l8-0.4
			c1.3-0.1,2.4,0.9,2.5,2.3l0,0C306,208.9,305,210,303.7,210.1z"/>
	</g>
</g>
</svg>
