<?xml version="1.0" encoding="utf-8"?>
<!-- Generator: Adobe Illustrator 19.0.0, SVG Export Plug-In . SVG Version: 6.00 Build 0)  -->
<svg version="1.1" xmlns="http://www.w3.org/2000/svg" xmlns:xlink="http://www.w3.org/1999/xlink" x="0px" y="0px"
	 viewBox="0 0 300 300" style="enable-background:new 0 0 300 300;" xml:space="preserve">
<style type="text/css">
	.st0{opacity:0.5;}
	.st1{fill:#1E1E1E;}
	.st2{fill:url(#XMLID_2_);}
	.st3{fill:#EE7627;}
	.st4{fill:#F0A724;}
	.st5{fill:#FDF28E;}
	.st6{display:none;}
	.st7{display:inline;}
	.st8{fill:#3C3C3B;}
	.st9{fill:url(#XMLID_3_);}
	.st10{opacity:0.25;fill:#FFFFFF;}
	.st11{opacity:0.25;fill:#222223;}
	.st12{opacity:0.25;fill:#5C1A1A;enable-background:new    ;}
	.st13{fill:#ABA9AA;}
	.st14{fill:#E5E5E4;}
	.st15{fill:#D7D6D6;}
	.st16{fill:url(#XMLID_4_);}
	.st17{fill:#6E6E6D;}
	.st18{fill:#1C1C1C;}
	.st19{fill:url(#XMLID_5_);}
	.st20{opacity:0.13;fill:#3C3C3B;}
	.st21{fill:url(#XMLID_6_);}
	.st22{fill:none;stroke:#3C3C3B;stroke-width:2;stroke-miterlimit:10;}
	.st23{fill:#3C3C3B;stroke:#3C3C3B;stroke-width:2;stroke-miterlimit:10;}
	.st24{opacity:0.75;}
	.st25{fill:url(#XMLID_7_);}
	.st26{display:inline;opacity:0.25;fill:#020304;}
	.st27{display:inline;fill:url(#XMLID_8_);stroke:#3C1811;stroke-width:3;stroke-miterlimit:10;}
	.st28{display:inline;fill:url(#XMLID_9_);stroke:#3C1811;stroke-width:3;stroke-miterlimit:10;}
	.st29{display:inline;opacity:0.25;}
	.st30{fill:#020304;}
	.st31{fill:url(#XMLID_10_);}
	.st32{fill:none;stroke:#3D1810;stroke-width:3;stroke-miterlimit:10;}
	.st33{fill:#FFFFFF;}
</style>
<g id="Calque_50">
	<g id="fireDust">
		<g id="explosion">
			<g id="Calque_29_-_copie" class="st0">
				<g id="cool_5_">
					<g id="XMLID_378_">
						<path id="XMLID_379_" class="st1" d="M262.5,145.1c-53.5-7.7-65.8-8.8-23.1-23.4c-42.7,14.6-34.6,12.1,1.5-27.5
							c-50.9,16.9-60.6,25.2-34-6c-26.6,31.2-26.1,22.2-13.3-24.1c-27.4,40-33.5,45.6-26.7,4.9c-6.8,40.7-8.1,34.3-25.6-14.6
							c-5.7,47.1-9.6,57.1-30.7,18.1c21.1,39,6.6,36.9-39.7,6.2c35.4,41.2,38.9,49.1-3.7,26.1c40.5,22.6,36.1,23.5-17.3,15
							c49.1,22.6,56,25.4,9.3,19.8c46.7,5.7,38.9,11.6-15.9,30.1c54.3-0.1,65.2-1,21.2,16.4c44-17.4,39.2-11.3,0.6,25.7
							c48.8-23.3,57.8-28.6,28,3.1c29.8-31.6,25.7-24.1,12.1,24c34-39.1,37.2-46.8,26.5-6.4c10.6-40.4,13.3-32.5,23,14.4
							c8.2-48.2,9-57.6,19.3-20c-10.4-37.7-5.8-28.3,30.4,10.5c-14.7-46.9-16.7-54.4,17.5-22.9c-34.1-31.6-25.7-32.4,24.8-16.4
							c-42.4-30.9-50.2-37.3-7.3-27.6C196.8,161,207.6,158.8,262.5,145.1z M202.9,150.7c-27.4-2-29.2-0.9-3.9,8.2
							c-25.5-2.9-24.7-0.4,4.3,11.8c-27.6-11.8-35.7-11.1-17.9,9.5c-19.5-12.6-18.6-7.7,0.2,17.7c-18.7-25.4-20-28.6-15.7-5.3
							c-17.6-22.2-19.7-19.4-17.4,6.7c-2.3-26.1-2.8-29.4-11.3-6.8c-2-22.8-3-19.9-12.3,5.5c9.4-25.4,8.9-30.8-7.7-13.6
							c9.9-20.2,4.5-19.1-17.4-0.8c21.9-18.2,22.8-22-3.3-9.2c21-14.6,15.8-14.5-15.4-1.6c31.2-12.9,37.1-15.7,13.7-13.5
							c25.4-10.1,21.6-13.8-5.6-15c27.2,1.3,33.2,2,18-6.9c21.3,0.5,18-3-0.4-15.2c18.5,12.2,26.5,13.3,22.2-4.6
							c10.6,11.2,9.4,3.1,3.9-22.6c5.5,25.7,9.4,30.3,15.3,8.5c1.7,21.3,3.1,17.5,10.4-8.1c-7.2,25.6-6.9,28.2,4.4,6.1
							c-7.6,22.9-3.9,22.9,10.9,0.8c-14.8,22.1-19.3,25.8-2.2,12.6c-10.3,18.5-2,18.1,23.1,4.5c-25.1,13.7-25.7,17.1,2.1,8.1
							c-24.6,10.2-21.4,11.4,9.6,3.5c-30.9,7.9-36.8,8.6-12.3,6.6C172.8,144.6,173,147.5,202.9,150.7z"/>
					</g>
				</g>
			</g>
			<g id="Calque_29_-_copie_1_">
				<g id="cool_1_">
					<g id="XMLID_22_">
						
							<radialGradient id="XMLID_2_" cx="158.0034" cy="150.4466" r="80.5558" gradientTransform="matrix(0.9985 5.542433e-002 -5.542433e-002 0.9985 3.8365 -7.9572)" gradientUnits="userSpaceOnUse">
							<stop  offset="0.6568" style="stop-color:#EE7627"/>
							<stop  offset="1" style="stop-color:#EB5C2D"/>
						</radialGradient>
						<path id="XMLID_23_" class="st2" d="M239.2,146.4c-42-6.1-51.7-6.9-18.1-18.4c-33.6,11.5-27.2,9.5,1.2-21.7
							c-40,13.3-47.6,19.9-26.7-4.7c-20.9,24.5-20.5,17.4-10.5-18.9c-21.6,31.5-26.3,35.9-21,3.8c-5.3,32-6.4,27-20.1-11.5
							c-4.5,37-7.5,44.9-24.1,14.3c16.6,30.7,5.2,29-31.2,4.9c27.8,32.4,30.6,38.6-2.9,20.5c31.9,17.8,28.4,18.5-13.6,11.8
							c38.6,17.7,44,20,7.3,15.6c36.7,4.5,30.6,9.1-12.5,23.6c42.7-0.1,51.3-0.8,16.7,12.9c34.6-13.7,30.8-8.9,0.5,20.2
							c38.4-18.3,45.5-22.5,22,2.4c23.5-24.9,20.2-18.9,9.5,18.9c26.8-30.7,29.2-36.8,20.8-5c8.4-31.8,10.5-25.5,18.1,11.4
							c6.4-37.9,7.1-45.3,15.2-15.7c-8.2-29.6-4.5-22.3,23.9,8.3c-11.6-36.9-13.1-42.8,13.8-18c-26.8-24.8-20.2-25.5,19.5-12.9
							c-33.3-24.3-39.4-29.3-5.8-21.7C187.5,158.9,196,157.1,239.2,146.4z M192.3,150.7c-21.5-1.6-23-0.7-3,6.4
							c-20-2.2-19.4-0.3,3.4,9.3c-21.7-9.3-28.1-8.7-14.1,7.5c-15.3-9.9-14.6-6,0.1,13.9c-14.7-20-15.7-22.5-12.3-4.1
							c-13.8-17.5-15.5-15.3-13.7,5.3c-1.8-20.5-2.2-23.1-8.9-5.4c-1.6-17.9-2.3-15.7-9.7,4.3c7.4-20,7-24.2-6.1-10.7
							c7.8-15.9,3.5-15-13.7-0.6c17.2-14.3,17.9-17.3-2.6-7.2c16.5-11.5,12.4-11.4-12.1-1.3c24.5-10.1,29.2-12.4,10.8-10.6
							c20-7.9,17-10.8-4.4-11.8c21.4,1,26.1,1.6,14.2-5.4c16.8,0.4,14.2-2.4-0.3-12c14.5,9.6,20.8,10.4,17.5-3.6
							c8.3,8.8,7.4,2.4,3.1-17.8c4.4,20.2,7.4,23.8,12,6.7c1.3,16.7,2.4,13.8,8.1-6.3c-5.7,20.1-5.4,22.2,3.4,4.8
							c-5.9,18-3.1,18,8.5,0.7c-11.6,17.4-15.2,20.3-1.7,9.9c-8.1,14.5-1.6,14.3,18.1,3.5c-19.8,10.7-20.2,13.5,1.7,6.4
							c-19.3,8-16.8,8.9,7.5,2.7c-24.3,6.2-28.9,6.7-9.7,5.2C168.6,146,168.8,148.2,192.3,150.7z"/>
					</g>
				</g>
				<polygon id="XMLID_19_" class="st3" points="108.1,169.9 99.2,161.4 116.7,124.9 142.2,104.3 172.4,113.1 194,128.2 
					199.4,150.4 185.5,177.7 172,188.2 152.4,190.5 128.9,187 				"/>
			</g>
			<g id="Calque_22_-_copie_3_1_">
				<g id="cool_4_">
					<g id="XMLID_375_">
						<path id="XMLID_376_" class="st4" d="M218.1,147.5c-31.8-4.6-39-5.2-13.7-13.9c-25.4,8.6-20.5,7.2,0.9-16.4
							c-30.2,10-35.9,15-20.2-3.5c-15.8,18.5-15.4,13.1-8-14.3c-16.3,23.8-19.8,27-15.8,2.9c-4,24.2-4.8,20.3-15.2-8.7
							c-3.4,28-5.7,33.9-18.2,10.7c12.5,23.1,3.9,21.9-23.5,3.7c21,24.4,23.1,29.1-2.2,15.5c24.1,13.4,21.4,13.9-10.3,8.9
							c29.1,13.4,33.2,15.1,5.5,11.7c27.7,3.4,23.1,6.9-9.4,17.9c32.2-0.1,38.7-0.6,12.6,9.7c26.1-10.3,23.3-6.7,0.3,15.3
							c29-13.9,34.3-17,16.6,1.8c17.7-18.8,15.3-14.3,7.2,14.3c20.2-23.2,22.1-27.8,15.7-3.8c6.3-24,7.9-19.3,13.7,8.6
							c4.9-28.7,5.4-34.2,11.5-11.9c-6.1-22.4-3.4-16.8,18,6.3c-8.7-27.9-9.9-32.3,10.4-13.6c-20.3-18.7-15.2-19.2,14.7-9.7
							c-25.2-18.3-29.8-22.1-4.4-16.4C179.1,157,185.6,155.7,218.1,147.5z M182.8,150.8c-16.2-1.1-17.3-0.6-2.3,4.9
							c-15.1-1.7-14.6-0.2,2.5,7c-16.3-7-21.2-6.5-10.6,5.7c-11.6-7.5-11.1-4.5,0.1,10.5c-11.1-15.1-11.9-17-9.3-3.1
							c-10.5-13.2-11.7-11.5-10.3,3.9c-1.4-15.5-1.7-17.4-6.7-4.1c-1.2-13.6-1.7-11.8-7.3,3.3c5.6-15.1,5.2-18.3-4.6-8.1
							c5.8-12,2.7-11.3-10.4-0.5c13-10.8,13.5-13.1-2-5.5c12.5-8.6,9.4-8.6-9.1-1c18.5-7.7,22-9.4,8.1-8c15.1-6,12.8-8.2-3.4-8.9
							c16.1,0.7,19.7,1.2,10.7-4c12.7,0.3,10.7-1.8-0.3-9.1c11,7.3,15.7,7.9,13.2-2.7c6.3,6.7,5.6,1.9,2.4-13.4
							c3.3,15.3,5.6,17.9,9.1,5c1,12.7,1.9,10.4,6.2-4.8c-4.3,15.2-4.1,16.7,2.6,3.6c-4.5,13.6-2.3,13.6,6.5,0.5
							c-8.8,13.1-11.4,15.3-1.3,7.5c-6.1,11-1.2,10.8,13.7,2.7c-14.9,8.1-15.3,10.2,1.2,4.8c-14.6,6.1-12.6,6.7,5.7,2
							c-18.4,4.7-21.9,5.1-7.3,3.9C164.8,147.3,165,148.9,182.8,150.8z"/>
					</g>
				</g>
				<polygon id="XMLID_374_" class="st4" points="119.2,165.3 112.5,158.9 125.7,131.3 145,115.7 167.7,122.4 184,133.9 
					188.1,150.6 177.6,171.2 167.4,179.1 152.7,180.8 134.9,178.1 				"/>
			</g>
			<g id="Calque_22_-_copie_3">
				<g id="cool_3_">
					<g id="XMLID_358_">
						<path id="XMLID_359_" class="st5" d="M206,148.2c-25.8-3.8-31.8-4.3-11.2-11.3c-20.6,7-16.7,5.9,0.7-13.3
							c-24.6,8.2-29.2,12.2-16.4-2.9c-12.9,15.1-12.6,10.7-6.4-11.6c-13.2,19.3-16.2,22-12.9,2.3c-3.3,19.7-3.9,16.6-12.3-7.1
							c-2.8,22.8-4.6,27.6-14.8,8.8c10.2,18.8,3.2,17.9-19.1,3c17.1,19.9,18.8,23.7-1.8,12.6c19.6,10.9,17.5,11.3-8.4,7.3
							c23.7,10.9,27.1,12.3,4.5,9.6c22.5,2.7,18.8,5.6-7.6,14.5c26.2,0,31.5-0.5,10.2,7.9c21.2-8.4,18.9-5.4,0.3,12.4
							c23.6-11.2,27.9-13.8,13.5,1.5c14.4-15.3,12.4-11.6,5.8,11.6c16.5-18.8,18-22.6,12.8-3.1c5.1-19.5,6.4-15.7,11.2,7
							c4-23.3,4.3-27.8,9.3-9.7c-5-18.2-2.8-13.7,14.7,5.1c-7.1-22.7-8-26.3,8.5-11.1c-16.5-15.3-12.4-15.6,12-7.9
							c-20.5-14.9-24.2-18-3.5-13.3C174.3,155.9,179.5,154.8,206,148.2z M177.2,150.9c-13.2-1-14.1-0.5-1.9,3.9
							c-12.3-1.4-11.9-0.2,2.1,5.7c-13.3-5.7-17.3-5.3-8.6,4.6c-9.4-6.1-9-3.7,0.1,8.6c-9.1-12.3-9.6-13.8-7.6-2.6
							c-8.5-10.8-9.5-9.4-8.4,3.2c-1.1-12.6-1.4-14.2-5.5-3.3c-0.9-11-1.4-9.6-6,2.6c4.6-12.3,4.3-14.9-3.7-6.6
							c4.8-9.7,2.2-9.2-8.4-0.4c10.6-8.8,11-10.6-1.6-4.4c10.2-7.1,7.6-7-7.5-0.8c15-6.2,17.9-7.6,6.6-6.5
							c12.2-4.9,10.4-6.6-2.8-7.2c13.1,0.6,16.1,1,8.7-3.3c10.3,0.2,8.7-1.5-0.2-7.4c8.9,5.9,12.8,6.4,10.7-2.2
							c5.1,5.4,4.6,1.5,1.9-10.9c2.6,12.4,4.5,14.6,7.4,4.1c0.8,10.3,1.5,8.5,5-3.9c-3.5,12.4-3.3,13.6,2.1,2.9
							c-3.6,11-1.9,11.1,5.3,0.4c-7.1,10.7-9.3,12.5-1.1,6.1c-5,8.9-1,8.8,11.1,2.2c-12.1,6.6-12.4,8.3,1,3.9
							c-11.8,4.9-10.3,5.5,4.6,1.7c-14.9,3.8-17.8,4.1-5.9,3.2C162.7,148,162.8,149.3,177.2,150.9z"/>
					</g>
				</g>
				<polygon id="XMLID_348_" class="st5" points="125.5,162.6 120.1,157.4 130.8,135 146.5,122.3 165,127.7 178.3,137.1 
					181.6,150.7 173.1,167.5 164.8,173.9 152.8,175.3 138.3,173.1 				"/>
			</g>
		</g>
	</g>
</g>
<g id="Calque_40_-_copie" class="st6">
	<g id="Calque_47_-_copie" class="st7">
		<path id="XMLID_424_" class="st8" d="M112,136.8l-2.2-1.5c-3.2-2.2-5.1-5.9-5.1-9.7v-5.4c0-2.8,1-5.4,2.7-7.5l0.7-0.8
			c1.4-1.7,3.3-3,5.5-3.7l18.3-6c1.2-0.4,2.4-0.6,3.7-0.6h14.6c1,0,2,0.1,2.9,0.4l23.6,6c4,1,7.1,4,8.4,7.9v0
			c1.7,5.5-0.7,11.5-4.6,13.3l-16,8.3c-2.9,1.7-4.8,2.2-6.7,2.2h-37.2C117.5,139.5,114.5,138.5,112,136.8z"/>
		<radialGradient id="XMLID_3_" cx="145.1668" cy="120.4828" r="29.2359" gradientUnits="userSpaceOnUse">
			<stop  offset="0" style="stop-color:#A89367"/>
			<stop  offset="1" style="stop-color:#CDBE9C"/>
		</radialGradient>
		<path id="XMLID_423_" class="st9" d="M114.5,135.5l-2.1-1.4c-2.9-2.1-4.7-5.4-4.7-9v-5c0-2.5,0.9-5,2.5-7l0.6-0.8
			c1.3-1.6,3.1-2.8,5.1-3.5l16.9-5.5c1.1-0.4,2.2-0.5,3.4-0.5h13.5c0.9,0,1.8,0.1,2.7,0.3l21.8,5.6c3.7,0.9,6.6,3.7,7.7,7.3v0
			c1.6,5.1-0.7,10.6-4.3,12.3L163,136c-2.7,1.6-4.4,2-6.2,2h-34.4C119.6,138.1,116.8,137.2,114.5,135.5z"/>
		<path id="XMLID_414_" class="st10" d="M182.1,116.1L182.1,116.1c-1.1-3.6-4.1-6.4-7.7-7.3l-21.8-5.6c-0.9-0.2-1.8-0.3-2.7-0.3
			l15.6,7c3.7,0.9,6.6,3.7,7.7,7.3c1.6,5.1-0.7,10.6-4.3,12.3l-14.8,7.7c-0.6,0.4-1.2,0.7-1.7,0.9h4.4c1.8,0,3.5-0.4,6.2-2l14.8-7.7
			C181.4,126.7,183.7,121.2,182.1,116.1z"/>
		<path id="XMLID_413_" class="st11" d="M154.1,116.9c0.4-6.1-5.7-11.7-9.4-13.9h-8.5c-1.2,0-2.3,0.2-3.4,0.5L116,109
			c-2,0.6-3.7,1.8-5.1,3.5l-0.6,0.8c-1.6,2-2.5,4.4-2.5,7v5c0,3.6,1.8,6.9,4.7,9l2.1,1.4c2.3,1.6,5.1,2.5,8,2.5h19.9
			C149.6,134.4,153.7,124.1,154.1,116.9z"/>
		<path id="XMLID_412_" class="st12" d="M179.9,117.8c-0.1-1.7-2-3.1-1.7-4.8c0.1-0.6,0.5-1.1,1.1-1.4c-1.4-1.3-3.1-2.3-5-2.8
			l-12.8-3.3c0.3,1,0.7,1.9,1.2,2.8c0.9,1.8,1.8,3.8,1.5,5.8c-0.5,2.5-2.8,4.1-4.7,5.7c-0.7,0.6-1.4,1.2-1.7,2.1
			c-0.8,2.3,1.4,4.6,3.8,5.3c3.8,1.1,8.2-0.3,10.5-3.5c1.1-1.5,2.2-3.6,4.1-3.5c0.4,0,0.8,0.2,1.2,0.2
			C178.7,120.5,180,119.2,179.9,117.8z"/>
		<path id="XMLID_409_" class="st12" d="M124.2,132.2c2.1,2.1,6.4-0.1,6-3c-0.3-2.8-3.7-4.2-5.1-6.7c-1.9-3.4,1.3-8.3,5.1-7.9
			c1.3,0.1,2.5,0.7,3.8,0.8c2.1,0.1,4.3-1.5,4.7-3.7c0.4-2-0.5-4.1,0.5-5.9c0.7-1.2,2.1-2,3.2-2.9h-6.2c-1.2,0-2.3,0.2-3.4,0.5
			L116,109c-1,0.3-2,0.8-2.9,1.4c-1.3,2.4-3,4.6-4.9,6.7c-0.3,1-0.5,2-0.5,3.1v5c0,2.1,0.6,4.1,1.7,5.8c0,0,0.1-0.1,0.1-0.1
			c1.9-2.2,2.7-5.8,5.4-6.8c3.2-1.1,6.2,2.2,7.6,5.3C123,130.3,123.4,131.4,124.2,132.2z"/>
	</g>
	<g id="Calque_45_-_copie" class="st7">
		<path id="XMLID_373_" class="st8" d="M143.2,121.2c0.3,4.9-5.5,8.8-13,8.6c-2.3-0.1-9.1-0.5-9.7-5.5c-0.5-4.5-3.8-0.5-3.7-3.9
			c0.1-3.2,3.1,1,4.5-2.9c1.6-4.2,6.3-5.3,8.6-5.2C137,112.5,142.9,116.4,143.2,121.2z"/>
		<path id="XMLID_265_" class="st8" d="M140.9,121c0.2,4.1-4.6,7.4-10.9,7.3c-2,0-10.5-0.6-12.1-1.2c-3.6-1.4,0.8-3.8,0.8-6.7
			c0.1-2.7-1.9-6.7,1.4-7.8c1.6-0.5,7.7,0.9,9.7,0.9C135.7,113.7,140.6,117,140.9,121z"/>
		<path id="XMLID_372_" class="st13" d="M139.6,121c0.2,3.7-4.2,6.6-9.8,6.5c-1.8,0-9.4-0.5-10.9-1.1c-3.2-1.3,0.7-3.4,0.7-6
			c0.1-2.4-1.7-6,1.3-7c1.4-0.5,6.9,0.8,8.6,0.8C134.9,114.4,139.4,117.4,139.6,121z"/>
		<path id="XMLID_371_" class="st14" d="M133,115.1l-7-1.3c-0.3-0.1-0.6,0.2-0.7,0.6l0,0c-0.2,0.7,0.1,1.5,0.6,1.6l9.8,1.5
			c0.2,0,1.6,0.3,1.5-0.2C137.1,116.9,134.3,115.5,133,115.1z"/>
		<path id="XMLID_370_" class="st8" d="M133,120.2c0.1,4.2-5,7.6-11.5,7.4c-6.5-0.2-11.6-3.8-11.4-8.1c0.2-4.1,5.5-7.2,11.6-7
			C127.9,112.7,132.9,116.1,133,120.2z"/>
		<path id="XMLID_369_" class="st15" d="M131.6,120.1c0.1,3.7-4.4,6.6-10.1,6.5c-5.7-0.1-10.2-3.4-10-7.1c0.2-3.6,4.8-6.3,10.2-6.1
			C127.1,113.6,131.5,116.6,131.6,120.1z"/>
		<path id="XMLID_368_" class="st8" d="M123.1,116.5l-48.6-7c-1.5-0.2-2.9,0.8-3.5,2.5v0c-1,2.8,0.5,6,2.8,6.3l47.5,6
			c1,0.1,2.9-0.2,3.6-1.1c0.8-1,1.6-2.5,0.7-4.6C125.2,117.4,124.2,116.6,123.1,116.5z"/>
		<path id="XMLID_367_" class="st13" d="M122.1,117.1l-46.3-6.3c-1.4-0.2-2.8,0.5-3.4,1.8v0c-1,2,0.3,4.4,2.5,4.7l46.4,5.6
			c0.9,0.1,1.9-0.1,2.5-0.8c0.8-0.7,1.4-1.9,0.6-3.5C124,117.9,123.1,117.3,122.1,117.1z"/>
		<path id="XMLID_366_" class="st14" d="M121.3,117.5l-45.9-6.1c-1.4-0.2-2.8-0.1-3.4,0.3l0,0c-1.1,0.6,0.2,1.5,2.4,1.8l46.1,5.9
			c0.9,0.1,3.6,0.4,3.1-0.5C123.3,118.5,122.3,117.6,121.3,117.5z"/>
		<path id="XMLID_365_" class="st8" d="M88.1,114.8c0.2,4.4-4.9,7.9-11.6,7.7c-2.1-0.1-11.2-0.6-12.9-1.3c-3.8-1.5,0.8-4.1,0.9-7.1
			c0.1-2.9-2-7.1,1.5-8.3c1.7-0.6,8.2,0.9,10.3,1C82.6,107.1,87.9,110.6,88.1,114.8z"/>
		<path id="XMLID_364_" class="st13" d="M86.6,114.7c0.2,3.9-4.4,7-10.3,6.8c-1.9,0-9.9-0.6-11.4-1.2c-3.4-1.3,0.7-3.6,0.8-6.3
			c0.1-2.6-1.8-6.3,1.4-7.3c1.5-0.5,7.2,0.8,9.1,0.9C81.7,107.9,86.4,111,86.6,114.7z"/>
		<path id="XMLID_363_" class="st14" d="M79.7,108.6l-7-1.3c-0.3-0.1-0.6,0.2-0.7,0.6v0c-0.2,0.7,0.1,1.5,0.6,1.6l9.8,1.5
			c0.2,0,1.6,0.3,1.5-0.2C83.9,110.4,81,109,79.7,108.6z"/>
		<path id="XMLID_362_" class="st8" d="M79.6,113.9c0.1,4.4-5.3,7.9-12,7.7c-6.8-0.2-12.2-4-11.9-8.5c0.2-4.3,5.7-7.5,12.2-7.3
			C74.3,106.1,79.5,109.6,79.6,113.9z"/>
		<path id="XMLID_361_" class="st15" d="M78.2,113.9c0.1,3.9-4.6,7-10.6,6.8c-6-0.2-10.8-3.6-10.5-7.5c0.2-3.8,5.1-6.7,10.8-6.5
			C73.5,107,78.1,110.1,78.2,113.9z"/>
		<path id="XMLID_360_" class="st8" d="M73.8,113.8c0.1,2.2-2.7,4-6.1,3.9c-3.5-0.1-6.2-2.1-6.1-4.3c0.1-2.2,2.9-3.8,6.2-3.7
			C71,109.8,73.7,111.7,73.8,113.8z"/>
	</g>
	<g id="Calque_43_-_copie_2" class="st7">
		<path id="XMLID_344_" class="st8" d="M126.4,163.8l14-11c0.3-0.3,0.7-0.5,1.1-0.6l64-16.4c0.5-0.1,1.4,0.6,1.9,0.7l29-1
			c1.2,0.2,2.3,1,2.8,2.2l5.6,14.5c0.1,0.1,0.1,0.3,0.1,0.4c1.5,5.5,0.3,11.9-4.3,15.8c-0.4,0.3-1.6,1.3-3.2,2.4
			c-1.8,1.2-3.9,2.1-6.1,2.4l-13.9,2.5l-41.8,0.3c5.4-5.5-33.1-4.5-47.4-5.7C124.9,170.1,123.8,165.8,126.4,163.8z"/>
		<radialGradient id="XMLID_4_" cx="185.1801" cy="153.2551" r="42.9487" gradientUnits="userSpaceOnUse">
			<stop  offset="0" style="stop-color:#D6D5D5"/>
			<stop  offset="0.3213" style="stop-color:#D5D3D2"/>
			<stop  offset="0.5416" style="stop-color:#CCCACA"/>
			<stop  offset="0.7315" style="stop-color:#BEBDBC"/>
			<stop  offset="0.9032" style="stop-color:#ACAAAB"/>
		</radialGradient>
		<path id="XMLID_343_" class="st16" d="M128,162.6l13.6-10c0.3-0.2,0.7-0.4,1.1-0.5l62.2-14.7c0.4-0.1,1.4,0.6,1.8,0.6l28.2-0.7
			c1.2,0.2,2.2,0.9,2.7,2.1l5.5,13.3c0.1,0.1,0.1,0.3,0.1,0.4c1.5,5.1-0.4,10.3-4.8,13.8c-0.6,0.5-1.3,0.7-2.1,0.7l-55.2,1.6
			c-0.1,0-37.5,0.7-51.4-0.4C126.6,168.4,125.5,164.4,128,162.6z"/>
		<path id="XMLID_342_" class="st17" d="M230.8,163.3c-11.7,0.2-13.2-4.7-13.2-4.7l-5.4,4l-2.4,5.8l27.6-0.6c0.8,0,2.4-1.8,2.9-2.3
			c2-1.7,2.3-3.8,3.1-6C240.6,161.2,237.2,163.2,230.8,163.3z"/>
		<path id="XMLID_341_" class="st8" d="M192.5,142.6c-2.3,0-4.1,2-3.7,4.3l2.5,17.2l0.4,2c0.3,1.8,1.9,3.1,3.7,3l21.7-0.4
			c1.7,0,3.2-1.2,3.6-2.9l0.6-2.8c0.1-0.4,0.1-0.8,0.1-1.2l-0.6-5.9c0-0.4-0.2-0.8-0.3-1.2l-4.5-9.7c-0.6-1.3-1.9-2.1-3.3-2.1
			L192.5,142.6z"/>
		<path id="XMLID_340_" class="st18" d="M189.8,141.1c-2.3,0-4.1,2-3.7,4.3l2.5,17.2l0.4,2c0.3,1.8,1.9,3.1,3.7,3l21.7-0.4
			c1.7,0,3.2-1.2,3.6-2.9l0.6-2.8c0.1-0.4,0.1-0.8,0.1-1.2l-0.6-5.9c0-0.4-0.2-0.8-0.3-1.2l-4.5-9.7c-0.6-1.3-1.9-2.1-3.3-2.1
			L189.8,141.1z"/>
		<polygon id="XMLID_339_" class="st17" points="218.4,146.5 240.5,146.1 238.9,142.4 219.1,142.2 218,146.6 		"/>
		<path id="XMLID_338_" class="st8" d="M243.4,137.6l-0.7-2.1c-0.3-1.1-2.3-1.8-3.4-1.9l-26-2.3c-1.3-0.1-2.4,0.7-2.9,1.8
			c0,0.1-0.1,0.2-0.2,0.2L194,133c-4.2-0.1-7.5,3.7-6.9,8l2.4,16.4v0c0.6,3.3,3.5,5.7,6.9,5.7l20-0.4c3.2-0.1,6.7-2.1,7.4-5.2
			c0,0,0.3-1.6,0.1-2.8l-0.6-6c-0.1-0.8-0.1-1.8-0.3-2.2c0,0,0,0,0,0l-1-2.4c-0.1-0.2,0-0.3,0.2-0.3l18.4-0.1
			C242.5,143.4,243.9,139.4,243.4,137.6z"/>
		<radialGradient id="XMLID_5_" cx="215.7799" cy="147.1022" r="20.6419" gradientUnits="userSpaceOnUse">
			<stop  offset="0" style="stop-color:#A89367"/>
			<stop  offset="1" style="stop-color:#CDBE9C"/>
		</radialGradient>
		<path id="XMLID_337_" class="st19" d="M241.3,138.8l-0.5-1.8c-0.3-1-1.2-1.7-2.2-1.8l-25-2.1c-1.2-0.1-2.3,0.7-2.6,1.7l-14.6-0.2
			c-3.8,0-6.7,3.3-6.1,7l2.1,14.4v0c0.6,2.9,3.2,5,6.1,5l17.8-0.4c2.8-0.1,5.2-2,5.9-4.8l0.1-0.6c0.1-0.6,0.2-1.3,0.1-1.9l-0.5-5.1
			c-0.1-0.7-0.3-1.4-0.6-2l-2.1-4.5l19.7,0.1C240.6,142,241.8,140.4,241.3,138.8z"/>
		<path id="XMLID_336_" class="st10" d="M237.7,140.7l-21.2-0.1c-0.9,0-1.7-0.4-2-1.1l-1.4-2.6c-0.7-1.2,0.6-2.6,2.2-2.5l22.1,1.5
			c0.9,0.1,1.7,0.6,1.9,1.3l0.5,1.3C240.3,139.6,239.2,140.7,237.7,140.7z"/>
		<path id="XMLID_335_" class="st20" d="M209.7,156.5c-1.8,0.4-4.5-5.2-6.8-8.9c-1.5-2.3-1.1-11.2-3.4-12.8l-3.1,0
			c-1.1,0-2.1,0.3-2.9,0.7c0,1.5,0.6,4.6,0.1,5c-1.2,0.8-1.7,2.3-1.6,3.7c0.1,1.4,0.6,2.7,1.1,4l-0.2,0.4c0,1.5,0.5,3,1.1,4.4
			c0.6,1.4,1.2,2.9,2.3,4c0.4,0.4,0.9,0.7,1.4,1.1c1,0.8,1.7,1.7,2.7,2.5c0.3,0.2,0.5,0.4,0.8,0.6l15.5-0.3c2.6-0.1,4.8-1.8,5.3-4.4
			l0.2-1c0.1-0.6,0.2-1.3,0.1-1.9c0,0-1.7,2.6-3.4,2.8L209.7,156.5z"/>
		<path id="XMLID_334_" class="st12" d="M222.7,133.9l-4.6-0.4c-1.3,0.5-2.4,1.6-2.9,2.9c-1.2,3.4,1.2,7.7-0.8,10.7
			c-1,1.5-2.9,2.2-4.7,2.4c-1.8,0.3-3.7,0.2-5.4,0.9c-2,0.7-4.2,1.7-5.7,3.3c-1.5,1.2-1.3,4.2-0.8,6c0.2,0.5,0.4,1,0.7,1.4l17.3-0.3
			c0.3-0.8,0.8-1.5,1.5-2c1.1-0.8,2.6-0.8,4-1c0.3-0.6,0.6-1.2,0.7-1.8l0.1-0.6c0.1-0.6,0.2-1.3,0.1-1.9l-0.5-5.1
			c-0.1-0.7-0.3-1.4-0.6-2l-2.1-4.5l4.6,0c0.3-0.7,0.7-1.5,0.9-2.2C225.5,137.6,224.5,135.1,222.7,133.9z"/>
	</g>
	<g id="Calque_41_-_copie_2" class="st7">
		<path id="XMLID_328_" class="st8" d="M86.9,168.2l13.3-10.8c0.3-0.3,0.7-0.5,1.1-0.6l62.9-21.2c0.4-0.1,0.9-0.2,1.4-0.2l28.4,2.3
			c1.2,0.1,2.3,0.8,2.8,2l6.2,13.2c0.1,0.1,0.1,0.3,0.2,0.4c1.7,5.1,0.1,10.4-4.3,14.2c-0.6,0.5-2.2,2.3-3,2.4l-54.9,2.5
			C140.9,172.4,84.5,170.2,86.9,168.2z"/>
		<radialGradient id="XMLID_6_" cx="145.3294" cy="153.9109" r="42.8259" gradientUnits="userSpaceOnUse">
			<stop  offset="0" style="stop-color:#D6D5D5"/>
			<stop  offset="0.3213" style="stop-color:#D5D3D2"/>
			<stop  offset="0.5416" style="stop-color:#CCCACA"/>
			<stop  offset="0.7315" style="stop-color:#BEBDBC"/>
			<stop  offset="0.9032" style="stop-color:#ACAAAB"/>
		</radialGradient>
		<path id="XMLID_327_" class="st21" d="M87.7,168l13.1-10.6c0.3-0.3,0.7-0.4,1-0.6l62.1-21c0.4-0.1,0.9-0.2,1.4-0.2l28.1,2.3
			c1.2,0.1,2.3,0.8,2.8,1.9l6.1,13c0.1,0.1,0.1,0.3,0.2,0.4c1.7,5,0.1,10.3-4.2,14c-0.6,0.5-2.2,2.3-2.9,2.3l-54.2,2.5
			C141,172.2,85.2,170,87.7,168z"/>
		<path id="XMLID_326_" class="st17" d="M191.9,158.9c-11.7,0.2-14.2-3.1-14.2-3.1l-7.6,8.6l-11.8,6.9l37-1.7c0.8,0,2.4-1.8,2.9-2.3
			c2-1.7,4.1-8.7,4.9-10.8C200.3,158.2,198.3,158.8,191.9,158.9z"/>
		<polygon id="XMLID_322_" class="st17" points="176.1,146.3 198.6,146.5 197,142.6 177.1,141.4 175.9,145.7 		"/>
		<path id="XMLID_309_" class="st22" d="M87.7,168l13.1-10.6c0.3-0.3,0.7-0.4,1-0.6l62.1-21c0.4-0.1,0.9-0.2,1.4-0.2l28.1,2.3
			c1.2,0.1,2.3,0.8,2.8,1.9l6.1,13c0.1,0.1,0.1,0.3,0.2,0.4c1.7,5,0.1,10.3-4.2,14c-0.6,0.5-2.2,2.3-2.9,2.3l-54.2,2.5
			C141,172.2,85.2,170,87.7,168z"/>
		<path id="XMLID_305_" class="st23" d="M83,167.1l-6.9-12.2l97.4-14.4l3.7,10.5c0.6,1.8,0.8,3.8,0.5,5.8
			c-0.9,5.9-5.3,10.5-11.1,12.1c-4.1,1.1-10.4,2.6-17.3,3.4l-52.8,3.6C90.5,174.8,85.5,171.5,83,167.1z"/>
		<path id="XMLID_284_" class="st24" d="M177.1,151l-3.7-10.5l-73.6,10.9l-18.7,6c-1.1,0.3-2,0.9-2.7,1.7l4.6,8.1
			c0.6,1.1,1.4,2.2,2.4,3.1l84.1-9.4c2.3-0.3,4.3-1.7,5.3-3.8l2.6-5.4C177.3,151.4,177.2,151.2,177.1,151z"/>
		<path id="XMLID_101_" class="st8" d="M201.2,138.1l-0.7-2c-0.3-1.1-3-2.6-4.1-2.7l-22.7-3.2c-0.2,0-0.3,0-0.5,0
			c-0.5-0.2-1-0.4-1.5-0.5l-13.8-2.5c-1.1-0.2-2.3-0.1-3.3,0.3l-80.1,25.9c-3.9,1.3-5.9,7.3-4.2,11.3c1.2,3,4.2,4.9,7.3,4.5
			l90.1-10.7c2.4-0.3,4.5-1.9,5.6-4.2l4.8-10.7c0.3-0.7,0.3-0.9,0.3-0.9l18.9,1C199.2,143.8,201.7,139.9,201.2,138.1z"/>
		<radialGradient id="XMLID_7_" cx="136.2655" cy="148.2" r="46.5925" gradientUnits="userSpaceOnUse">
			<stop  offset="0" style="stop-color:#A89367"/>
			<stop  offset="1" style="stop-color:#CDBE9C"/>
		</radialGradient>
		<path id="XMLID_100_" class="st25" d="M199.3,139l-0.5-1.8c-0.3-1-1.1-1.7-2.1-1.9l-24.9-3.3c-0.2,0-0.3,0-0.5,0
			c-0.4-0.2-0.9-0.3-1.4-0.4l-13.1-2.2c-1.1-0.2-2.1-0.1-3.2,0.2L77.8,154c-3.7,1.2-5.7,5.4-4.1,9c1.2,2.7,4,4.4,6.9,4l85.5-9.6
			c2.3-0.3,4.3-1.7,5.3-3.8l4.6-9.6c0.5-1,0.7-2,0.6-3l20.1,1.1C198.4,142.2,199.7,140.7,199.3,139z"/>
		<path id="XMLID_96_" class="st10" d="M195.9,141.1l-18.5-1c-0.8,0-1.4-0.5-1.7-1.1l-1.1-2.6c-0.5-1.2,0.6-2.5,2.1-2.3l19.2,2.4
			c0.8,0.1,1.4,0.6,1.6,1.3l0.4,1.2C198.2,140.1,197.2,141.2,195.9,141.1z"/>
		<path id="XMLID_59_" class="st11" d="M169.4,134.3c-0.4-0.1-0.9-0.2-1.3-0.3l-12.5-1.6c-1-0.1-2,0-3,0.2l-72.7,22
			c-3.5,1-5.3,4.5-3.8,7.4c1.1,2.2,3.8,3.5,6.6,3.2l80.9-9.3c2.2-0.2,4.1-1.4,5-3.2l4.2-7.9c0.4-0.8,0.6-1.6,0.6-2.5
			C173.4,142.3,169.5,134.3,169.4,134.3z"/>
		<g id="Calque_4_-_copie_3_2_">
			<path id="XMLID_57_" class="st12" d="M80.6,167.1l50.4-5.6c0-0.7-0.1-1.4-0.3-2.1c-0.6-2.4-2.7-4.6-5.3-4.6c-3,0-5.8,2.9-8.6,1.8
				c-2-0.8-2.8-3.2-4.2-4.9c-2.1-2.7-6.8-3.4-8.9-0.7c-2.3,2.8-0.6,7.5-2.9,10.3c-1.5,1.9-4.5,2.2-6.8,1.2c-2.3-1-3.9-3-5.3-5
				c-0.6-0.9-1.2-1.9-2.1-2.6c-2.5-2-6.5-1.1-8.4,1.5c-1.8,2.6-1.7,6.3-0.2,9.1c0.4,0.7,0.8,1.3,1.4,1.8
				C79.8,167.1,80.2,167.1,80.6,167.1z"/>
			<path id="XMLID_55_" class="st12" d="M177.2,134.5c-2.5-0.8-5.5,0.6-6.4,3.1c-1.2,3.4,1.2,7.7-0.8,10.7c-1,1.5-2.9,2.2-4.7,2.4
				c-1.8,0.3-3.7,0.2-5.4,0.9c-2,0.7-4.2,1.7-5.7,3.3c-1.1,0.8-1.3,2.6-1.1,4.1l13-1.5c2.3-0.3,4.3-1.7,5.3-3.8l4.6-9.6
				c0.5-1,0.7-2,0.6-3l3.6,0.2c0.1-0.1,0.1-0.3,0.1-0.4C181.2,138.3,179.7,135.3,177.2,134.5z"/>
			<path id="XMLID_42_" class="st12" d="M149.3,152.8c-0.5-2.2-2.3-4.6-0.9-6.4c1-1.2,2.9-1,4.4-0.9c1.6,0.1,3.6-0.3,3.9-1.9
				c0.2-1.5-1.7-3.5-2.7-3.3c-0.9,0-1.7-2.7-1.2-3.4c1.2-1.7,2.6-3.2,3.3-5.2c0.3-0.7,0.4-1.5,0.4-2.3c-1-0.1-1.9,0-2.8,0.3
				L121.6,140c-0.1,2,0.5,4,1.6,5.6c1.6,2.2,4.4,3.5,7.1,2.9c0.7-0.2,1.4-0.4,2.1-0.3c0.5,0.1,0.9,0.4,1.2,0.7
				c1.7,1.5,2.7,3.8,2.6,6.1c-0.1,1.6-0.6,3.3,0.1,4.7c0.2,0.4,0.5,0.8,0.9,1.1l8.1-0.9C147.8,158.2,149.8,155.6,149.3,152.8z"/>
		</g>
	</g>
</g>
<g id="Calque_39" class="st6">
	<path id="XMLID_263_" class="st26" d="M229.5,217.6l25.2,7.3c2.7,0.8,11.9,2.4,13.7,0.3c1.1-1.3-6.5-7.3-7.9-8.1l-8-6.3
		c-2.1-2.2-3.5-4.2,0.9-6.3l8.1-1.1c6.1-0.7,13.4-0.3,13.2-2c-0.4-2.8-8.9-4.3-11.7-5.1l-25.2-7.3c-5.1-1.5-10.5,1.7-12,7l-2.7,9.3
		c-0.8,2.8-2.4,6.6-1.1,8.9C223.1,216.2,227.1,216.9,229.5,217.6z"/>
	
		<linearGradient id="XMLID_8_" gradientUnits="userSpaceOnUse" x1="270.8485" y1="-16284.1475" x2="217.6862" y2="-16284.1475" gradientTransform="matrix(1 0 0 -1 0 -16082)">
		<stop  offset="0" style="stop-color:#EB5758"/>
		<stop  offset="8.947212e-002" style="stop-color:#D64645"/>
		<stop  offset="0.2307" style="stop-color:#BD3431"/>
		<stop  offset="0.3825" style="stop-color:#AB2823"/>
		<stop  offset="0.5477" style="stop-color:#9E201C"/>
		<stop  offset="0.7363" style="stop-color:#971B18"/>
		<stop  offset="1" style="stop-color:#951917"/>
	</linearGradient>
	<path id="XMLID_262_" class="st27" d="M225.7,212.3l25.2,7.3c2.7,0.8,11.9,2.4,13.7,0.3c1.1-1.3-6.5-7.3-7.9-8.1l-8-6.3
		c-2.1-2.2-3.5-4.2,0.9-6.3l8.1-1.1c6.1-0.7,13.4-0.3,13.2-2c-0.4-2.8-8.9-4.3-11.7-5.1l-25.2-7.3c-5.1-1.5-10.5,1.7-12,7l-2.7,9.3
		c-0.8,2.8-2.4,6.6-1.1,8.9C219.3,210.9,223.3,211.6,225.7,212.3z"/>
	<path id="XMLID_261_" class="st26" d="M71.5,216.7L46.4,224c-2.7,0.8-11.9,2.4-13.7,0.3c-1.1-1.3,6.5-7.3,7.9-8.1l8-6.3
		c2.1-2.2,3.5-4.2-0.9-6.3l-8.1-1.1c-6.1-0.7-13.4-0.3-13.2-2c0.4-2.8,8.9-4.3,11.7-5.1l25.2-7.3c5.1-1.5,10.5,1.7,12,7l2.7,9.3
		c0.8,2.8,2.4,6.6,1.1,8.9C77.9,215.4,74,216,71.5,216.7z"/>
	
		<linearGradient id="XMLID_9_" gradientUnits="userSpaceOnUse" x1="532.589" y1="201.2877" x2="479.4266" y2="201.2877" gradientTransform="matrix(-1 0 0 1 562.7847 0)">
		<stop  offset="0" style="stop-color:#EB5758"/>
		<stop  offset="8.947212e-002" style="stop-color:#D64645"/>
		<stop  offset="0.2307" style="stop-color:#BD3431"/>
		<stop  offset="0.3825" style="stop-color:#AB2823"/>
		<stop  offset="0.5477" style="stop-color:#9E201C"/>
		<stop  offset="0.7363" style="stop-color:#971B18"/>
		<stop  offset="1" style="stop-color:#951917"/>
	</linearGradient>
	<path id="XMLID_260_" class="st28" d="M75.3,211.4l-25.2,7.3c-2.7,0.8-11.9,2.4-13.7,0.3c-1.1-1.3,6.5-7.3,7.9-8.1l8-6.3
		c2.1-2.2,3.5-4.2-0.9-6.3l-8.1-1.1c-6.1-0.7-13.4-0.3-13.2-2c0.4-2.8,8.9-4.3,11.7-5.1l25.2-7.3c5.1-1.5,10.5,1.7,12,7l2.7,9.3
		c0.8,2.8,2.4,6.6,1.1,8.9C81.7,210,77.8,210.7,75.3,211.4z"/>
	<g id="XMLID_257_" class="st29">
		<path id="XMLID_271_" class="st30" d="M225.2,207.1c-48.7-13.5-100.1-13.5-148.8,0c-6.4,1.8-13.4-1.6-15.5-7.9c-1-3.1-2-6.1-3-9.2
			c-2.1-6.3,2.1-13.3,9.5-15.4c54.5-15.1,112.2-15.1,166.7,0c7.3,2,11.6,9.1,9.5,15.4c-1,3.1-2,6.1-3,9.2
			C238.6,205.4,231.7,208.8,225.2,207.1z"/>
	</g>
	<g id="XMLID_34_" class="st7">
		<radialGradient id="XMLID_10_" cx="150.8491" cy="181.5817" r="67.8458" gradientUnits="userSpaceOnUse">
			<stop  offset="0" style="stop-color:#EB5758"/>
			<stop  offset="1" style="stop-color:#951917"/>
		</radialGradient>
		<path id="XMLID_51_" class="st31" d="M225.8,202.6c-49-13.6-100.8-13.6-149.8,0c-6.4,1.8-13.4-1.6-15.5-7.9
			c-0.9-2.7-1.7-5.3-2.6-8c-2.1-6.3,2.1-13.3,9.4-15.4c54.7-15.2,112.4-15.2,167.1,0c7.3,2,11.5,9.1,9.4,15.4
			c-0.9,2.7-1.7,5.3-2.6,8C239.1,201,232.2,204.4,225.8,202.6z"/>
		<path id="XMLID_50_" class="st32" d="M225.8,202.6c-49-13.6-100.8-13.6-149.8,0c-6.4,1.8-13.4-1.6-15.5-7.9
			c-0.9-2.7-1.7-5.3-2.6-8c-2.1-6.3,2.1-13.3,9.4-15.4c54.7-15.2,112.4-15.2,167.1,0c7.3,2,11.5,9.1,9.4,15.4
			c-0.9,2.7-1.7,5.3-2.6,8C239.1,201,232.2,204.4,225.8,202.6z"/>
	</g>
	<g id="XMLID_26_" class="st7">
		<g id="XMLID_138_">
			<path id="XMLID_158_" class="st33" d="M103.1,172.4c1.5-0.3,2.9-0.5,4.4-0.7c1.2-0.2,2.1-0.2,2.8-0.2c0.7,0.1,1.2,0.3,1.5,0.5
				c0.4,0.3,0.6,0.7,0.8,1.1c0.2,0.5,0.3,1.2,0.5,2.1c0.1,0.5,0.1,0.9,0.2,1.4c0.1,1,0.1,1.7,0,2.2c-0.1,0.5-0.5,0.9-1,1.2
				c-0.5,0.3-1.3,0.6-2.2,0.7c-0.4,0.1-0.8,0.1-1.1,0.2c0.3,2.1,0.7,4.2,1,6.3c-1.4,0.2-2.7,0.4-4.1,0.7
				C104.9,182.8,104,177.6,103.1,172.4z M107.9,174.4c0.2,1.3,0.4,2.6,0.6,4c0.1,0,0.2,0,0.3,0c0.4-0.1,0.6-0.2,0.8-0.4
				c0.1-0.2,0.1-0.6,0.1-1.2c-0.1-0.4-0.1-0.9-0.2-1.3c-0.1-0.5-0.2-0.9-0.4-1C108.8,174.3,108.4,174.3,107.9,174.4z"/>
			<path id="XMLID_155_" class="st33" d="M113.7,170.8c1-0.1,2.1-0.3,3.1-0.4c2.1-0.3,3.5-0.3,4.2-0.3c0.7,0.1,1.4,0.4,1.9,1
				c0.5,0.6,0.8,1.5,1,2.9c0.1,1.2,0,2.1-0.2,2.5c-0.3,0.5-0.9,0.8-1.8,1c0.9,0.1,1.5,0.3,1.8,0.6c0.3,0.3,0.5,0.6,0.6,0.9
				c0.1,0.3,0.2,1,0.3,2.3c0.1,1.4,0.3,2.8,0.4,4.1c-1.3,0.1-2.5,0.3-3.8,0.4c-0.2-1.7-0.4-3.5-0.6-5.2c-0.1-0.8-0.2-1.4-0.4-1.5
				c-0.2-0.2-0.5-0.2-1.1-0.2c0.3,2.4,0.6,4.7,0.8,7.1c-1.4,0.2-2.7,0.3-4.1,0.5C115.1,181.2,114.4,176,113.7,170.8z M118.4,172.9
				c0.1,1.2,0.3,2.3,0.4,3.5c0.5-0.1,0.8-0.2,1-0.3c0.2-0.1,0.2-0.6,0.1-1.3c0-0.3-0.1-0.6-0.1-0.9c-0.1-0.5-0.2-0.8-0.4-0.9
				C119.2,172.9,118.9,172.8,118.4,172.9z"/>
			<path id="XMLID_152_" class="st33" d="M135.7,177.9c0.1,1.6,0.1,2.7,0.1,3.4c0,0.7-0.2,1.3-0.6,1.9c-0.4,0.6-0.9,1-1.5,1.4
				c-0.7,0.3-1.4,0.5-2.3,0.6c-0.8,0.1-1.6,0-2.3-0.2c-0.7-0.2-1.3-0.6-1.7-1.1c-0.5-0.5-0.8-1.1-0.9-1.7c-0.1-0.6-0.3-1.8-0.4-3.4
				c-0.1-0.9-0.2-1.8-0.3-2.7c-0.1-1.6-0.2-2.7-0.2-3.4c0-0.7,0.2-1.3,0.6-1.9c0.4-0.6,0.9-1.1,1.6-1.4c0.7-0.4,1.5-0.6,2.5-0.6
				c0.9-0.1,1.7,0,2.5,0.2c0.7,0.2,1.3,0.6,1.8,1.1c0.5,0.5,0.8,1.1,0.9,1.8c0.1,0.6,0.2,1.8,0.3,3.4
				C135.5,176.1,135.6,177,135.7,177.9z M131,173c-0.1-0.7-0.1-1.2-0.2-1.4c-0.1-0.2-0.3-0.3-0.6-0.3c-0.2,0-0.4,0.1-0.5,0.3
				c-0.1,0.2-0.1,0.7-0.1,1.5c0.2,2.5,0.4,4.9,0.6,7.4c0.1,0.9,0.2,1.5,0.2,1.7c0.1,0.2,0.3,0.3,0.6,0.3c0.3,0,0.5-0.2,0.5-0.4
				c0.1-0.3,0.1-0.8,0-1.8C131.4,177.9,131.2,175.5,131,173z"/>
			<path id="XMLID_150_" class="st33" d="M146.9,174.1c-1.4,0-2.9,0.1-4.3,0.1c0-0.5,0-1,0-1.4c0-0.9-0.1-1.5-0.2-1.7
				c-0.1-0.2-0.3-0.3-0.6-0.3c-0.3,0-0.4,0.1-0.5,0.3c-0.1,0.2-0.1,0.7-0.1,1.5c0.1,2.5,0.2,5.1,0.3,7.6c0,0.7,0.1,1.2,0.2,1.4
				c0.1,0.2,0.3,0.3,0.6,0.3c0.3,0,0.5-0.1,0.6-0.4c0.1-0.3,0.1-0.8,0.1-1.5c0-0.6,0-1.2-0.1-1.9c-0.3,0-0.6,0-0.9,0
				c0-0.8-0.1-1.6-0.1-2.4c1.7-0.1,3.3-0.1,5-0.1c0,2.8,0.1,5.7,0.1,8.5c-0.9,0-1.7,0-2.6,0.1c-0.1-0.4-0.3-0.7-0.4-1.1
				c-0.3,0.5-0.6,0.9-1,1.1c-0.4,0.3-0.9,0.4-1.5,0.4c-0.7,0-1.3-0.1-2-0.4c-0.6-0.3-1.1-0.7-1.4-1.2c-0.3-0.5-0.6-1-0.7-1.5
				c-0.1-0.5-0.2-1.4-0.2-2.4c-0.1-1.6-0.2-3.1-0.2-4.7c-0.1-1.5-0.1-2.6,0.1-3.3c0.1-0.7,0.6-1.3,1.4-2c0.8-0.6,1.8-0.9,3.2-1
				c1.3,0,2.4,0.2,3.2,0.6c0.9,0.5,1.4,1.1,1.7,1.7c0.3,0.7,0.4,1.7,0.4,3C146.9,173.6,146.9,173.9,146.9,174.1z"/>
			<path id="XMLID_147_" class="st33" d="M148.5,168.2c1,0,2.1,0,3.1,0c2.1,0,3.5,0.1,4.2,0.3c0.7,0.2,1.3,0.6,1.8,1.2
				c0.4,0.6,0.6,1.6,0.6,3c0,1.2-0.2,2.1-0.5,2.5c-0.3,0.4-1,0.7-1.9,0.7c0.8,0.2,1.4,0.5,1.7,0.8c0.3,0.3,0.5,0.7,0.5,0.9
				c0.1,0.3,0.1,1.1,0,2.3c0,1.4-0.1,2.8-0.1,4.2c-1.3,0-2.6-0.1-3.8-0.1c0-1.8,0-3.5,0.1-5.3c0-0.8-0.1-1.4-0.2-1.6
				c-0.1-0.2-0.5-0.3-1.1-0.3c0,2.4,0,4.8,0,7.1c-1.4,0-2.8,0-4.1,0C148.6,178.8,148.5,173.5,148.5,168.2z M152.8,170.9
				c0,1.2,0,2.3,0,3.5c0.5,0,0.8-0.1,1-0.2c0.2-0.1,0.3-0.5,0.3-1.2c0-0.3,0-0.6,0-0.9c0-0.5-0.1-0.8-0.3-1
				C153.7,171,153.3,170.9,152.8,170.9z"/>
			<path id="XMLID_144_" class="st33" d="M167.5,168.7c0.5,5.3,1,10.6,1.4,15.9c-1.4-0.1-2.8-0.2-4.2-0.2c0-0.9-0.1-1.9-0.1-2.8
				c-0.5,0-1,0-1.5-0.1c-0.1,0.9-0.3,1.9-0.4,2.8c-1.4-0.1-2.8-0.1-4.3-0.2c0.8-5.2,1.7-10.5,2.7-15.7
				C163.3,168.5,165.4,168.6,167.5,168.7z M164.7,178.7c-0.1-1.8-0.2-4-0.3-6.7c-0.6,3-0.9,5.2-1.1,6.6
				C163.7,178.7,164.2,178.7,164.7,178.7z"/>
			<path id="XMLID_142_" class="st33" d="M184.2,170.2c-0.6,5.2-1.2,10.5-1.9,15.7c-1.2-0.1-2.4-0.3-3.6-0.4
				c0.4-3.5,0.7-7.1,1.1-10.6c-0.9,3.5-1.7,7-2.5,10.5c-0.9-0.1-1.7-0.2-2.6-0.2c-0.2-3.5-0.4-7-0.6-10.5c-0.3,3.5-0.6,6.9-0.9,10.4
				c-1.2-0.1-2.4-0.2-3.6-0.3c0.4-5.3,0.7-10.5,1.1-15.8c1.9,0.1,3.8,0.3,5.7,0.4c0.1,1,0.2,2.1,0.2,3.4c0.1,1.4,0.2,2.7,0.2,4.1
				c0.6-2.4,1.1-4.8,1.7-7.3C180.4,169.7,182.3,169.9,184.2,170.2z"/>
			<path id="XMLID_139_" class="st33" d="M198.9,176.5c-1.4-0.2-2.7-0.5-4.1-0.7c0.1-0.7,0.2-1.2,0.2-1.4c0-0.2,0-0.4-0.2-0.5
				c-0.1-0.2-0.3-0.2-0.6-0.3c-0.2,0-0.4,0-0.5,0.1c-0.2,0.1-0.3,0.2-0.3,0.4c-0.1,0.2-0.1,0.6-0.2,1.2c-0.1,0.8-0.3,1.7-0.4,2.5
				c0.3-0.4,0.6-0.7,1.1-0.8c0.4-0.1,1-0.2,1.5-0.1c0.7,0.1,1.4,0.4,1.9,0.9c0.5,0.5,0.8,1,0.8,1.6c0.1,0.6,0,1.3-0.2,2.2
				c-0.1,0.4-0.1,0.8-0.2,1.2c-0.2,1.1-0.4,1.9-0.6,2.4c-0.2,0.5-0.5,1-0.9,1.4c-0.4,0.4-1,0.7-1.7,0.8c-0.7,0.1-1.4,0.1-2.3,0
				c-1.1-0.2-1.9-0.4-2.5-0.8c-0.6-0.4-1.1-0.9-1.4-1.5c-0.3-0.6-0.4-1.2-0.4-1.8c0-0.6,0.1-1.8,0.4-3.5c0.1-0.7,0.2-1.4,0.3-2.2
				c0.3-1.9,0.5-3.1,0.6-3.7c0.1-0.6,0.5-1.2,1-1.7c0.5-0.5,1.1-0.8,1.9-1c0.8-0.2,1.6-0.2,2.6,0c1.2,0.2,2.1,0.5,2.8,1
				c0.7,0.5,1.1,1.1,1.3,1.8C199,174.7,199,175.6,198.9,176.5z M194,180.7c0.1-0.6,0.1-0.9,0-1.2c-0.1-0.2-0.3-0.4-0.6-0.4
				c-0.3,0-0.5,0-0.7,0.2c-0.2,0.2-0.3,0.6-0.4,1.1c-0.1,0.9-0.3,1.9-0.4,2.8c-0.1,0.7-0.1,1.1,0,1.4c0.1,0.2,0.3,0.4,0.6,0.4
				c0.2,0,0.4,0,0.6-0.2c0.2-0.1,0.4-0.6,0.5-1.3C193.7,182.7,193.8,181.7,194,180.7z"/>
		</g>
	</g>
</g>
</svg>
