<?xml version="1.0" encoding="utf-8"?>
<!-- Generator: Adobe Illustrator 19.0.0, SVG Export Plug-In . SVG Version: 6.00 Build 0)  -->
<svg version="1.0" id="Calque_1" xmlns="http://www.w3.org/2000/svg" xmlns:xlink="http://www.w3.org/1999/xlink" x="0px" y="0px"
	 viewBox="0 0 300 195.2" style="enable-background:new 0 0 300 195.2;" xml:space="preserve">
<style type="text/css">
	.st0{display:none;}
	.st1{display:inline;}
	.st2{opacity:0.5;}
	.st3{fill:#1F1F1F;}
	.st4{fill:url(#XMLID_2_);}
	.st5{fill:#EE7728;}
	.st6{fill:#F1A823;}
	.st7{fill:#FCF18F;}
	.st8{fill:#3D3D3B;}
	.st9{fill:url(#XMLID_3_);}
	.st10{opacity:0.25;fill:#FFFFFF;enable-background:new    ;}
	.st11{opacity:0.25;fill:#222223;enable-background:new    ;}
	.st12{opacity:0.25;fill:#5D1B1B;enable-background:new    ;}
	.st13{fill:#ABA9AA;}
	.st14{fill:#E5E5E4;}
	.st15{fill:#D7D6D6;}
	.st16{fill:url(#XMLID_4_);}
	.st17{fill:#6F6F6E;}
	.st18{fill:#1D1D1D;}
	.st19{fill:url(#XMLID_5_);}
	.st20{opacity:0.13;fill:#3D3D3B;enable-background:new    ;}
	.st21{fill:url(#XMLID_6_);}
	.st22{fill:none;stroke:#3D3D3B;stroke-width:2;stroke-miterlimit:10;}
	.st23{fill:#3D3D3B;stroke:#3D3D3B;stroke-width:2;stroke-miterlimit:10;}
	.st24{opacity:0.75;fill:#010202;enable-background:new    ;}
	.st25{fill:url(#XMLID_7_);}
	.st26{opacity:0.25;fill:#030405;enable-background:new    ;}
	.st27{fill:url(#XMLID_8_);stroke:#3B1913;stroke-width:3;stroke-miterlimit:10;}
	.st28{fill:url(#XMLID_9_);stroke:#3B1913;stroke-width:3;stroke-miterlimit:10;}
	.st29{opacity:0.25;}
	.st30{fill:#030405;}
	.st31{fill:url(#XMLID_10_);}
	.st32{fill:none;stroke:#3C1912;stroke-width:3;stroke-miterlimit:10;}
	.st33{fill:#FFFFFF;}
</style>
<g id="Calque_2">
	<g id="Calque_50" class="st0">
		<g id="fireDust" class="st1">
			<g id="explosion">
				<g id="Calque_29_-_copie" class="st2">
					<g id="cool_5_">
						<g id="XMLID_378_">
							<path id="XMLID_379_" class="st3" d="M261.9,92.1c-53.5-7.7-65.8-8.8-23.1-23.4c-42.7,14.6-34.6,12.1,1.5-27.5
								c-50.9,16.9-60.6,25.2-34-6c-26.6,31.2-26.1,22.2-13.3-24.1c-27.4,40-33.5,45.6-26.7,4.9c-6.8,40.7-8.1,34.3-25.6-14.6
								c-5.7,47.1-9.6,57.1-30.7,18.1c21.1,39,6.6,36.9-39.7,6.2c35.4,41.2,38.9,49.1-3.7,26.1c40.5,22.6,36.1,23.5-17.3,15
								c49.1,22.6,56,25.4,9.3,19.8c46.7,5.7,38.9,11.6-15.9,30.1c54.3-0.1,65.2-1,21.2,16.4c44-17.4,39.2-11.3,0.6,25.7
								c48.8-23.3,57.8-28.6,28,3.1c29.8-31.6,25.7-24.1,12.1,24c34-39.1,37.2-46.8,26.5-6.4c10.6-40.4,13.3-32.5,23,14.4
								c8.2-48.2,9-57.6,19.3-20c-10.4-37.7-5.8-28.3,30.4,10.5c-14.7-46.9-16.7-54.4,17.5-22.9c-34.1-31.6-25.7-32.4,24.8-16.4
								c-42.4-30.9-50.2-37.3-7.3-27.6C196.2,108,207,105.8,261.9,92.1z M202.3,97.7c-27.4-2-29.2-0.9-3.9,8.2
								c-25.5-2.9-24.7-0.4,4.3,11.8c-27.6-11.8-35.7-11.1-17.9,9.5c-19.5-12.6-18.6-7.7,0.2,17.7c-18.7-25.4-20-28.6-15.7-5.3
								c-17.6-22.2-19.7-19.4-17.4,6.7c-2.3-26.1-2.8-29.4-11.3-6.8c-2-22.8-3-19.9-12.3,5.5c9.4-25.4,8.9-30.8-7.7-13.6
								c9.9-20.2,4.5-19.1-17.4-0.8c21.9-18.2,22.8-22-3.3-9.2c21-14.6,15.8-14.5-15.4-1.6c31.2-12.9,37.1-15.7,13.7-13.5
								c25.4-10.1,21.6-13.8-5.6-15c27.2,1.3,33.2,2,18-6.9c21.3,0.5,18-3-0.4-15.2c18.5,12.2,26.5,13.3,22.2-4.6
								c10.6,11.2,9.4,3.1,3.9-22.6c5.5,25.7,9.4,30.3,15.3,8.5c1.7,21.3,3.1,17.5,10.4-8.1c-7.2,25.6-6.9,28.2,4.4,6.1
								c-7.6,22.9-3.9,22.9,10.9,0.8c-14.8,22.1-19.3,25.8-2.2,12.6c-10.3,18.5-2,18.1,23.1,4.5c-25.1,13.7-25.7,17.1,2.1,8.1
								c-24.6,10.2-21.4,11.4,9.6,3.5c-30.9,7.9-36.8,8.6-12.3,6.6C172.2,91.6,172.4,94.5,202.3,97.7z"/>
						</g>
					</g>
				</g>
				<g id="Calque_29_-_copie_1_">
					<g id="cool_1_">
						<g id="XMLID_22_">
							
								<radialGradient id="XMLID_2_" cx="172.2875" cy="107.295" r="80.5416" gradientTransform="matrix(0.9985 5.542433e-002 5.542433e-002 -0.9985 -25.1492 195.5217)" gradientUnits="userSpaceOnUse">
								<stop  offset="0.6568" style="stop-color:#EE7728"/>
								<stop  offset="1" style="stop-color:#EB5D2F"/>
							</radialGradient>
							<path id="XMLID_23_" class="st4" d="M238.6,93.4c-42-6.1-51.7-6.9-18.1-18.4c-33.6,11.5-27.2,9.5,1.2-21.7
								c-40,13.3-47.6,19.9-26.7-4.7c-20.9,24.5-20.5,17.4-10.5-18.9c-21.6,31.5-26.3,35.9-21,3.8c-5.3,32-6.4,27-20.1-11.5
								c-4.5,37-7.5,44.9-24.1,14.3c16.6,30.7,5.2,29-31.2,4.9c27.8,32.4,30.6,38.6-2.9,20.5c31.9,17.8,28.4,18.5-13.6,11.8
								c38.6,17.7,44,20,7.3,15.6c36.7,4.5,30.6,9.1-12.5,23.6c42.7-0.1,51.3-0.8,16.7,12.9c34.6-13.7,30.8-8.9,0.5,20.2
								c38.4-18.3,45.5-22.5,22,2.4c23.5-24.9,20.2-18.9,9.5,18.9c26.8-30.7,29.2-36.8,20.8-5c8.4-31.8,10.5-25.5,18.1,11.4
								c6.4-37.9,7.1-45.3,15.2-15.7c-8.2-29.6-4.5-22.3,23.9,8.3c-11.6-36.9-13.1-42.8,13.8-18c-26.8-24.8-20.2-25.5,19.5-12.9
								c-33.3-24.3-39.4-29.3-5.8-21.7C186.9,105.9,195.4,104.1,238.6,93.4z M191.7,97.7c-21.5-1.6-23-0.7-3,6.4
								c-20-2.2-19.4-0.3,3.4,9.3c-21.7-9.3-28.1-8.7-14.1,7.5c-15.3-9.9-14.6-6,0.1,13.9c-14.7-20-15.7-22.5-12.3-4.1
								c-13.8-17.5-15.5-15.3-13.7,5.3c-1.8-20.5-2.2-23.1-8.9-5.4c-1.6-17.9-2.3-15.7-9.7,4.3c7.4-20,7-24.2-6.1-10.7
								c7.8-15.9,3.5-15-13.7-0.6c17.2-14.3,17.9-17.3-2.6-7.2c16.5-11.5,12.4-11.4-12.1-1.3c24.5-10.1,29.2-12.4,10.8-10.6
								c20-7.9,17-10.8-4.4-11.8c21.4,1,26.1,1.6,14.2-5.4c16.8,0.4,14.2-2.4-0.3-12c14.5,9.6,20.8,10.4,17.5-3.6
								c8.3,8.8,7.4,2.4,3.1-17.8c4.4,20.2,7.4,23.8,12,6.7c1.3,16.7,2.4,13.8,8.1-6.3c-5.7,20.1-5.4,22.2,3.4,4.8
								c-5.9,18-3.1,18,8.5,0.7c-11.6,17.4-15.2,20.3-1.7,9.9c-8.1,14.5-1.6,14.3,18.1,3.5c-19.8,10.7-20.2,13.5,1.7,6.4
								c-19.3,8-16.8,8.9,7.5,2.7c-24.3,6.2-28.9,6.7-9.7,5.2C168,93,168.2,95.2,191.7,97.7z"/>
						</g>
					</g>
					<polygon id="XMLID_19_" class="st5" points="107.5,116.9 98.6,108.4 116.1,71.9 141.6,51.3 171.8,60.1 193.4,75.2 198.8,97.4 
						184.9,124.7 171.4,135.2 151.8,137.5 128.3,134 					"/>
				</g>
				<g id="Calque_22_-_copie_3_1_">
					<g id="cool_4_">
						<g id="XMLID_375_">
							<path id="XMLID_376_" class="st6" d="M217.5,94.5c-31.8-4.6-39-5.2-13.7-13.9c-25.4,8.6-20.5,7.2,0.9-16.4
								c-30.2,10-35.9,15-20.2-3.5c-15.8,18.5-15.4,13.1-8-14.3c-16.3,23.8-19.8,27-15.8,2.9c-4,24.2-4.8,20.3-15.2-8.7
								c-3.4,28-5.7,33.9-18.2,10.7c12.5,23.1,3.9,21.9-23.5,3.7c21,24.4,23.1,29.1-2.2,15.5c24.1,13.4,21.4,13.9-10.3,8.9
								c29.1,13.4,33.2,15.1,5.5,11.7c27.7,3.4,23.1,6.9-9.4,17.9c32.2-0.1,38.7-0.6,12.6,9.7c26.1-10.3,23.3-6.7,0.3,15.3
								c29-13.9,34.3-17,16.6,1.8c17.7-18.8,15.3-14.3,7.2,14.3c20.2-23.2,22.1-27.8,15.7-3.8c6.3-24,7.9-19.3,13.7,8.6
								c4.9-28.7,5.4-34.2,11.5-11.9c-6.1-22.4-3.4-16.8,18,6.3c-8.7-27.9-9.9-32.3,10.4-13.6c-20.3-18.7-15.2-19.2,14.7-9.7
								c-25.2-18.3-29.8-22.1-4.4-16.4C178.5,104,185,102.7,217.5,94.5z M182.2,97.8c-16.2-1.1-17.3-0.6-2.3,4.9
								c-15.1-1.7-14.6-0.2,2.5,7c-16.3-7-21.2-6.5-10.6,5.7c-11.6-7.5-11.1-4.5,0.1,10.5c-11.1-15.1-11.9-17-9.3-3.1
								c-10.5-13.2-11.7-11.5-10.3,3.9c-1.4-15.5-1.7-17.4-6.7-4.1c-1.2-13.6-1.7-11.8-7.3,3.3c5.6-15.1,5.2-18.3-4.6-8.1
								c5.8-12,2.7-11.3-10.4-0.5c13-10.8,13.5-13.1-2-5.5c12.5-8.6,9.4-8.6-9.1-1c18.5-7.7,22-9.4,8.1-8c15.1-6,12.8-8.2-3.4-8.9
								c16.1,0.7,19.7,1.2,10.7-4c12.7,0.3,10.7-1.8-0.3-9.1c11,7.3,15.7,7.9,13.2-2.7c6.3,6.7,5.6,1.9,2.4-13.4
								c3.3,15.3,5.6,17.9,9.1,5c1,12.7,1.9,10.4,6.2-4.8c-4.3,15.2-4.1,16.7,2.6,3.6c-4.5,13.6-2.3,13.6,6.5,0.5
								c-8.8,13.1-11.4,15.3-1.3,7.5c-6.1,11-1.2,10.8,13.7,2.7c-14.9,8.1-15.3,10.2,1.2,4.8c-14.6,6.1-12.6,6.7,5.7,2
								c-18.4,4.7-21.9,5.1-7.3,3.9C164.2,94.3,164.4,95.9,182.2,97.8z"/>
						</g>
					</g>
					<polygon id="XMLID_374_" class="st6" points="118.6,112.3 111.9,105.9 125.1,78.3 144.4,62.7 167.1,69.4 183.4,80.9 
						187.5,97.6 177,118.2 166.8,126.1 152.1,127.8 134.3,125.1 					"/>
				</g>
				<g id="Calque_22_-_copie_3">
					<g id="cool_3_">
						<g id="XMLID_358_">
							<path id="XMLID_359_" class="st7" d="M205.4,95.2c-25.8-3.8-31.8-4.3-11.2-11.3c-20.6,7-16.7,5.9,0.7-13.3
								c-24.6,8.2-29.2,12.2-16.4-2.9c-12.9,15.1-12.6,10.7-6.4-11.6c-13.2,19.3-16.2,22-12.9,2.3c-3.3,19.7-3.9,16.6-12.3-7.1
								c-2.8,22.8-4.6,27.6-14.8,8.8c10.2,18.8,3.2,17.9-19.1,3c17.1,19.9,18.8,23.7-1.8,12.6c19.6,10.9,17.5,11.3-8.4,7.3
								c23.7,10.9,27.1,12.3,4.5,9.6c22.5,2.7,18.8,5.6-7.6,14.5c26.2,0,31.5-0.5,10.2,7.9c21.2-8.4,18.9-5.4,0.3,12.4
								c23.6-11.2,27.9-13.8,13.5,1.5c14.4-15.3,12.4-11.6,5.8,11.6c16.5-18.8,18-22.6,12.8-3.1c5.1-19.5,6.4-15.7,11.2,7
								c4-23.3,4.3-27.8,9.3-9.7c-5-18.2-2.8-13.7,14.7,5.1c-7.1-22.7-8-26.3,8.5-11.1c-16.5-15.3-12.4-15.6,12-7.9
								c-20.5-14.9-24.2-18-3.5-13.3C173.7,102.9,178.9,101.8,205.4,95.2z M176.6,97.9c-13.2-1-14.1-0.5-1.9,3.9
								c-12.3-1.4-11.9-0.2,2.1,5.7c-13.3-5.7-17.3-5.3-8.6,4.6c-9.4-6.1-9-3.7,0.1,8.6c-9.1-12.3-9.6-13.8-7.6-2.6
								c-8.5-10.8-9.5-9.4-8.4,3.2c-1.1-12.6-1.4-14.2-5.5-3.3c-0.9-11-1.4-9.6-6,2.6c4.6-12.3,4.3-14.9-3.7-6.6
								c4.8-9.7,2.2-9.2-8.4-0.4c10.6-8.8,11-10.6-1.6-4.4c10.2-7.1,7.6-7-7.5-0.8c15-6.2,17.9-7.6,6.6-6.5
								c12.2-4.9,10.4-6.6-2.8-7.2c13.1,0.6,16.1,1,8.7-3.3c10.3,0.2,8.7-1.5-0.2-7.4c8.9,5.9,12.8,6.4,10.7-2.2
								c5.1,5.4,4.6,1.5,1.9-10.9c2.6,12.4,4.5,14.6,7.4,4.1c0.8,10.3,1.5,8.5,5-3.9c-3.5,12.4-3.3,13.6,2.1,2.9
								c-3.6,11-1.9,11.1,5.3,0.4c-7.1,10.7-9.3,12.5-1.1,6.1c-5,8.9-1,8.8,11.1,2.2c-12.1,6.6-12.4,8.3,1,3.9
								c-11.8,4.9-10.3,5.5,4.6,1.7c-14.9,3.8-17.8,4.1-5.9,3.2C162.1,95,162.2,96.3,176.6,97.9z"/>
						</g>
					</g>
					<polygon id="XMLID_348_" class="st7" points="124.9,109.6 119.5,104.4 130.2,82 145.9,69.3 164.4,74.7 177.7,84.1 181,97.7 
						172.5,114.5 164.2,120.9 152.2,122.3 137.7,120.1 					"/>
				</g>
			</g>
		</g>
	</g>
	<g id="Calque_40_-_copie">
		<g id="Calque_47_-_copie">
			<path id="XMLID_424_" class="st8" d="M111.4,83.8l-2.2-1.5c-3.2-2.2-5.1-5.9-5.1-9.7v-5.4c0-2.8,1-5.4,2.7-7.5l0.7-0.8
				c1.4-1.7,3.3-3,5.5-3.7l18.3-6c1.2-0.4,2.4-0.6,3.7-0.6h14.6c1,0,2,0.1,2.9,0.4l23.6,6c4,1,7.1,4,8.4,7.9l0,0
				c1.7,5.5-0.7,11.5-4.6,13.3l-16,8.3c-2.9,1.7-4.8,2.2-6.7,2.2H120C116.9,86.5,113.9,85.5,111.4,83.8z"/>
			
				<radialGradient id="XMLID_3_" cx="144.6118" cy="128.6672" r="29.2359" gradientTransform="matrix(1 0 0 -1 0 196.11)" gradientUnits="userSpaceOnUse">
				<stop  offset="0" style="stop-color:#A99468"/>
				<stop  offset="1" style="stop-color:#CDBE9C"/>
			</radialGradient>
			<path id="XMLID_423_" class="st9" d="M113.9,82.5l-2.1-1.4c-2.9-2.1-4.7-5.4-4.7-9v-5c0-2.5,0.9-5,2.5-7l0.6-0.8
				c1.3-1.6,3.1-2.8,5.1-3.5l16.9-5.5c1.1-0.4,2.2-0.5,3.4-0.5h13.5c0.9,0,1.8,0.1,2.7,0.3l21.8,5.6c3.7,0.9,6.6,3.7,7.7,7.3l0,0
				c1.6,5.1-0.7,10.6-4.3,12.3L162.4,83c-2.7,1.6-4.4,2-6.2,2h-34.4C119,85.1,116.2,84.2,113.9,82.5z"/>
			<path id="XMLID_414_" class="st10" d="M181.5,63.1L181.5,63.1c-1.1-3.6-4.1-6.4-7.7-7.3L152,50.2c-0.9-0.2-1.8-0.3-2.7-0.3
				l15.6,7c3.7,0.9,6.6,3.7,7.7,7.3c1.6,5.1-0.7,10.6-4.3,12.3l-14.8,7.7c-0.6,0.4-1.2,0.7-1.7,0.9h4.4c1.8,0,3.5-0.4,6.2-2
				l14.8-7.7C180.8,73.7,183.1,68.2,181.5,63.1z"/>
			<path id="XMLID_413_" class="st11" d="M153.5,63.9c0.4-6.1-5.7-11.7-9.4-13.9h-8.5c-1.2,0-2.3,0.2-3.4,0.5L115.4,56
				c-2,0.6-3.7,1.8-5.1,3.5l-0.6,0.8c-1.6,2-2.5,4.4-2.5,7v5c0,3.6,1.8,6.9,4.7,9l2.1,1.4c2.3,1.6,5.1,2.5,8,2.5h19.9
				C149,81.4,153.1,71.1,153.5,63.9z"/>
			<path id="XMLID_412_" class="st12" d="M179.3,64.8c-0.1-1.7-2-3.1-1.7-4.8c0.1-0.6,0.5-1.1,1.1-1.4c-1.4-1.3-3.1-2.3-5-2.8
				l-12.8-3.3c0.3,1,0.7,1.9,1.2,2.8c0.9,1.8,1.8,3.8,1.5,5.8c-0.5,2.5-2.8,4.1-4.7,5.7c-0.7,0.6-1.4,1.2-1.7,2.1
				c-0.8,2.3,1.4,4.6,3.8,5.3c3.8,1.1,8.2-0.3,10.5-3.5c1.1-1.5,2.2-3.6,4.1-3.5c0.4,0,0.8,0.2,1.2,0.2
				C178.1,67.5,179.4,66.2,179.3,64.8z"/>
			<path id="XMLID_409_" class="st12" d="M123.6,79.2c2.1,2.1,6.4-0.1,6-3c-0.3-2.8-3.7-4.2-5.1-6.7c-1.9-3.4,1.3-8.3,5.1-7.9
				c1.3,0.1,2.5,0.7,3.8,0.8c2.1,0.1,4.3-1.5,4.7-3.7c0.4-2-0.5-4.1,0.5-5.9c0.7-1.2,2.1-2,3.2-2.9h-6.2c-1.2,0-2.3,0.2-3.4,0.5
				L115.4,56c-1,0.3-2,0.8-2.9,1.4c-1.3,2.4-3,4.6-4.9,6.7c-0.3,1-0.5,2-0.5,3.1v5c0,2.1,0.6,4.1,1.7,5.8l0.1-0.1
				c1.9-2.2,2.7-5.8,5.4-6.8c3.2-1.1,6.2,2.2,7.6,5.3C122.4,77.3,122.8,78.4,123.6,79.2z"/>
		</g>
		<g id="Calque_45_-_copie">
			<path id="XMLID_373_" class="st8" d="M142.6,68.2c0.3,4.9-5.5,8.8-13,8.6c-2.3-0.1-9.1-0.5-9.7-5.5c-0.5-4.5-3.8-0.5-3.7-3.9
				c0.1-3.2,3.1,1,4.5-2.9c1.6-4.2,6.3-5.3,8.6-5.2C136.4,59.5,142.3,63.4,142.6,68.2z"/>
			<path id="XMLID_265_" class="st8" d="M140.3,68c0.2,4.1-4.6,7.4-10.9,7.3c-2,0-10.5-0.6-12.1-1.2c-3.6-1.4,0.8-3.8,0.8-6.7
				c0.1-2.7-1.9-6.7,1.4-7.8c1.6-0.5,7.7,0.9,9.7,0.9C135.1,60.7,140,64,140.3,68z"/>
			<path id="XMLID_372_" class="st13" d="M139,68c0.2,3.7-4.2,6.6-9.8,6.5c-1.8,0-9.4-0.5-10.9-1.1c-3.2-1.3,0.7-3.4,0.7-6
				c0.1-2.4-1.7-6,1.3-7c1.4-0.5,6.9,0.8,8.6,0.8C134.3,61.4,138.8,64.4,139,68z"/>
			<path id="XMLID_371_" class="st14" d="M132.4,62.1l-7-1.3c-0.3-0.1-0.6,0.2-0.7,0.6l0,0c-0.2,0.7,0.1,1.5,0.6,1.6l9.8,1.5
				c0.2,0,1.6,0.3,1.5-0.2C136.5,63.9,133.7,62.5,132.4,62.1z"/>
			<path id="XMLID_370_" class="st8" d="M132.4,67.2c0.1,4.2-5,7.6-11.5,7.4s-11.6-3.8-11.4-8.1c0.2-4.1,5.5-7.2,11.6-7
				C127.3,59.7,132.3,63.1,132.4,67.2z"/>
			<path id="XMLID_369_" class="st15" d="M131,67.1c0.1,3.7-4.4,6.6-10.1,6.5s-10.2-3.4-10-7.1c0.2-3.6,4.8-6.3,10.2-6.1
				C126.5,60.6,130.9,63.6,131,67.1z"/>
			<path id="XMLID_368_" class="st8" d="M122.5,63.5l-48.6-7c-1.5-0.2-2.9,0.8-3.5,2.5l0,0c-1,2.8,0.5,6,2.8,6.3l47.5,6
				c1,0.1,2.9-0.2,3.6-1.1c0.8-1,1.6-2.5,0.7-4.6C124.6,64.4,123.6,63.6,122.5,63.5z"/>
			<path id="XMLID_367_" class="st13" d="M121.5,64.1l-46.3-6.3c-1.4-0.2-2.8,0.5-3.4,1.8l0,0c-1,2,0.3,4.4,2.5,4.7l46.4,5.6
				c0.9,0.1,1.9-0.1,2.5-0.8c0.8-0.7,1.4-1.9,0.6-3.5C123.4,64.9,122.5,64.3,121.5,64.1z"/>
			<path id="XMLID_366_" class="st14" d="M120.7,64.5l-45.9-6.1c-1.4-0.2-2.8-0.1-3.4,0.3l0,0c-1.1,0.6,0.2,1.5,2.4,1.8l46.1,5.9
				c0.9,0.1,3.6,0.4,3.1-0.5C122.7,65.5,121.7,64.6,120.7,64.5z"/>
			<path id="XMLID_365_" class="st8" d="M87.5,61.8c0.2,4.4-4.9,7.9-11.6,7.7c-2.1-0.1-11.2-0.6-12.9-1.3c-3.8-1.5,0.8-4.1,0.9-7.1
				c0.1-2.9-2-7.1,1.5-8.3c1.7-0.6,8.2,0.9,10.3,1C82,54.1,87.3,57.6,87.5,61.8z"/>
			<path id="XMLID_364_" class="st13" d="M86,61.7c0.2,3.9-4.4,7-10.3,6.8c-1.9,0-9.9-0.6-11.4-1.2C60.9,66,65,63.7,65.1,61
				c0.1-2.6-1.8-6.3,1.4-7.3c1.5-0.5,7.2,0.8,9.1,0.9C81.1,54.9,85.8,58,86,61.7z"/>
			<path id="XMLID_363_" class="st14" d="M79.1,55.6l-7-1.3c-0.3-0.1-0.6,0.2-0.7,0.6l0,0c-0.2,0.7,0.1,1.5,0.6,1.6l9.8,1.5
				c0.2,0,1.6,0.3,1.5-0.2C83.3,57.4,80.4,56,79.1,55.6z"/>
			<path id="XMLID_362_" class="st8" d="M79,60.9c0.1,4.4-5.3,7.9-12,7.7c-6.8-0.2-12.2-4-11.9-8.5c0.2-4.3,5.7-7.5,12.2-7.3
				C73.7,53.1,78.9,56.6,79,60.9z"/>
			<path id="XMLID_361_" class="st15" d="M77.6,60.9c0.1,3.9-4.6,7-10.6,6.8s-10.8-3.6-10.5-7.5c0.2-3.8,5.1-6.7,10.8-6.5
				C72.9,54,77.5,57.1,77.6,60.9z"/>
			<path id="XMLID_360_" class="st8" d="M73.2,60.8c0.1,2.2-2.7,4-6.1,3.9c-3.5-0.1-6.2-2.1-6.1-4.3c0.1-2.2,2.9-3.8,6.2-3.7
				C70.4,56.8,73.1,58.7,73.2,60.8z"/>
		</g>
		<g id="Calque_43_-_copie_2">
			<path id="XMLID_344_" class="st8" d="M125.8,110.8l14-11c0.3-0.3,0.7-0.5,1.1-0.6l64-16.4c0.5-0.1,1.4,0.6,1.9,0.7l29-1
				c1.2,0.2,2.3,1,2.8,2.2l5.6,14.5c0.1,0.1,0.1,0.3,0.1,0.4c1.5,5.5,0.3,11.9-4.3,15.8c-0.4,0.3-1.6,1.3-3.2,2.4
				c-1.8,1.2-3.9,2.1-6.1,2.4l-13.9,2.5L175,123c5.4-5.5-33.1-4.5-47.4-5.7C124.3,117.1,123.2,112.8,125.8,110.8z"/>
			
				<radialGradient id="XMLID_4_" cx="184.6091" cy="95.8949" r="42.9596" gradientTransform="matrix(1 0 0 -1 0 196.11)" gradientUnits="userSpaceOnUse">
				<stop  offset="0" style="stop-color:#D6D5D5"/>
				<stop  offset="0.3213" style="stop-color:#D6D3D3"/>
				<stop  offset="0.5416" style="stop-color:#CCCACA"/>
				<stop  offset="0.7315" style="stop-color:#BEBCBC"/>
				<stop  offset="0.9032" style="stop-color:#ACAAAB"/>
			</radialGradient>
			<path id="XMLID_343_" class="st16" d="M127.4,109.6l13.6-10c0.3-0.2,0.7-0.4,1.1-0.5l62.2-14.7c0.4-0.1,1.4,0.6,1.8,0.6l28.2-0.7
				c1.2,0.2,2.2,0.9,2.7,2.1l5.5,13.3c0.1,0.1,0.1,0.3,0.1,0.4c1.5,5.1-0.4,10.3-4.8,13.8c-0.6,0.5-1.3,0.7-2.1,0.7l-55.2,1.6
				c-0.1,0-37.5,0.7-51.4-0.4C126,115.4,124.9,111.4,127.4,109.6z"/>
			<path id="XMLID_342_" class="st17" d="M230.2,110.3c-11.7,0.2-13.2-4.7-13.2-4.7l-5.4,4l-2.4,5.8l27.6-0.6c0.8,0,2.4-1.8,2.9-2.3
				c2-1.7,2.3-3.8,3.1-6C240,108.2,236.6,110.2,230.2,110.3z"/>
			<path id="XMLID_341_" class="st8" d="M191.9,89.6c-2.3,0-4.1,2-3.7,4.3l2.5,17.2l0.4,2c0.3,1.8,1.9,3.1,3.7,3l21.7-0.4
				c1.7,0,3.2-1.2,3.6-2.9l0.6-2.8c0.1-0.4,0.1-0.8,0.1-1.2l-0.6-5.9c0-0.4-0.2-0.8-0.3-1.2l-4.5-9.7c-0.6-1.3-1.9-2.1-3.3-2.1
				L191.9,89.6z"/>
			<path id="XMLID_340_" class="st18" d="M189.2,88.1c-2.3,0-4.1,2-3.7,4.3l2.5,17.2l0.4,2c0.3,1.8,1.9,3.1,3.7,3l21.7-0.4
				c1.7,0,3.2-1.2,3.6-2.9l0.6-2.8c0.1-0.4,0.1-0.8,0.1-1.2l-0.6-5.9c0-0.4-0.2-0.8-0.3-1.2l-4.5-9.7c-0.6-1.3-1.9-2.1-3.3-2.1
				L189.2,88.1z"/>
			<polygon id="XMLID_339_" class="st17" points="217.8,93.5 239.9,93.1 238.3,89.4 218.5,89.2 217.4,93.6 			"/>
			<path id="XMLID_338_" class="st8" d="M242.8,84.6l-0.7-2.1c-0.3-1.1-2.3-1.8-3.4-1.9l-26-2.3c-1.3-0.1-2.4,0.7-2.9,1.8
				c0,0.1-0.1,0.2-0.2,0.2L193.4,80c-4.2-0.1-7.5,3.7-6.9,8l2.4,16.4l0,0c0.6,3.3,3.5,5.7,6.9,5.7l20-0.4c3.2-0.1,6.7-2.1,7.4-5.2
				c0,0,0.3-1.6,0.1-2.8l-0.6-6c-0.1-0.8-0.1-1.8-0.3-2.2l0,0l-1-2.4c-0.1-0.2,0-0.3,0.2-0.3l18.4-0.1
				C241.9,90.4,243.3,86.4,242.8,84.6z"/>
			
				<radialGradient id="XMLID_5_" cx="215.2628" cy="102.0478" r="20.6336" gradientTransform="matrix(1 0 0 -1 0 196.11)" gradientUnits="userSpaceOnUse">
				<stop  offset="0" style="stop-color:#A99468"/>
				<stop  offset="1" style="stop-color:#CDBE9C"/>
			</radialGradient>
			<path id="XMLID_337_" class="st19" d="M240.7,85.8l-0.5-1.8c-0.3-1-1.2-1.7-2.2-1.8l-25-2.1c-1.2-0.1-2.3,0.7-2.6,1.7l-14.6-0.2
				c-3.8,0-6.7,3.3-6.1,7l2.1,14.4l0,0c0.6,2.9,3.2,5,6.1,5l17.8-0.4c2.8-0.1,5.2-2,5.9-4.8l0.1-0.6c0.1-0.6,0.2-1.3,0.1-1.9
				l-0.5-5.1c-0.1-0.7-0.3-1.4-0.6-2l-2.1-4.5l19.7,0.1C240,89,241.2,87.4,240.7,85.8z"/>
			<path id="XMLID_336_" class="st10" d="M237.1,87.7l-21.2-0.1c-0.9,0-1.7-0.4-2-1.1l-1.4-2.6c-0.7-1.2,0.6-2.6,2.2-2.5l22.1,1.5
				c0.9,0.1,1.7,0.6,1.9,1.3l0.5,1.3C239.7,86.6,238.6,87.7,237.1,87.7z"/>
			<path id="XMLID_335_" class="st20" d="M209.1,103.5c-1.8,0.4-4.5-5.2-6.8-8.9c-1.5-2.3-1.1-11.2-3.4-12.8h-3.1
				c-1.1,0-2.1,0.3-2.9,0.7c0,1.5,0.6,4.6,0.1,5c-1.2,0.8-1.7,2.3-1.6,3.7c0.1,1.4,0.6,2.7,1.1,4l-0.2,0.4c0,1.5,0.5,3,1.1,4.4
				s1.2,2.9,2.3,4c0.4,0.4,0.9,0.7,1.4,1.1c1,0.8,1.7,1.7,2.7,2.5c0.3,0.2,0.5,0.4,0.8,0.6l15.5-0.3c2.6-0.1,4.8-1.8,5.3-4.4l0.2-1
				c0.1-0.6,0.2-1.3,0.1-1.9c0,0-1.7,2.6-3.4,2.8L209.1,103.5z"/>
			<path id="XMLID_334_" class="st12" d="M222.1,80.9l-4.6-0.4c-1.3,0.5-2.4,1.6-2.9,2.9c-1.2,3.4,1.2,7.7-0.8,10.7
				c-1,1.5-2.9,2.2-4.7,2.4c-1.8,0.3-3.7,0.2-5.4,0.9c-2,0.7-4.2,1.7-5.7,3.3c-1.5,1.2-1.3,4.2-0.8,6c0.2,0.5,0.4,1,0.7,1.4
				l17.3-0.3c0.3-0.8,0.8-1.5,1.5-2c1.1-0.8,2.6-0.8,4-1c0.3-0.6,0.6-1.2,0.7-1.8l0.1-0.6c0.1-0.6,0.2-1.3,0.1-1.9l-0.5-5.1
				c-0.1-0.7-0.3-1.4-0.6-2l-2.1-4.5h4.6c0.3-0.7,0.7-1.5,0.9-2.2C224.9,84.6,223.9,82.1,222.1,80.9z"/>
		</g>
		<g id="Calque_41_-_copie_2">
			<path id="XMLID_328_" class="st8" d="M86.3,115.2l13.3-10.8c0.3-0.3,0.7-0.5,1.1-0.6l62.9-21.2c0.4-0.1,0.9-0.2,1.4-0.2l28.4,2.3
				c1.2,0.1,2.3,0.8,2.8,2l6.2,13.2c0.1,0.1,0.1,0.3,0.2,0.4c1.7,5.1,0.1,10.4-4.3,14.2c-0.6,0.5-2.2,2.3-3,2.4l-54.9,2.5
				C140.3,119.4,83.9,117.2,86.3,115.2z"/>
			
				<radialGradient id="XMLID_6_" cx="144.8379" cy="95.2391" r="42.7831" gradientTransform="matrix(1 0 0 -1 0 196.11)" gradientUnits="userSpaceOnUse">
				<stop  offset="0" style="stop-color:#D6D5D5"/>
				<stop  offset="0.3213" style="stop-color:#D6D3D3"/>
				<stop  offset="0.5416" style="stop-color:#CCCACA"/>
				<stop  offset="0.7315" style="stop-color:#BEBCBC"/>
				<stop  offset="0.9032" style="stop-color:#ACAAAB"/>
			</radialGradient>
			<path id="XMLID_327_" class="st21" d="M87.1,115l13.1-10.6c0.3-0.3,0.7-0.4,1-0.6l62.1-21c0.4-0.1,0.9-0.2,1.4-0.2l28.1,2.3
				c1.2,0.1,2.3,0.8,2.8,1.9l6.1,13c0.1,0.1,0.1,0.3,0.2,0.4c1.7,5,0.1,10.3-4.2,14c-0.6,0.5-2.2,2.3-2.9,2.3l-54.2,2.5
				C140.4,119.2,84.6,117,87.1,115z"/>
			<path id="XMLID_326_" class="st17" d="M191.3,105.9c-11.7,0.2-14.2-3.1-14.2-3.1l-7.6,8.6l-11.8,6.9l37-1.7
				c0.8,0,2.4-1.8,2.9-2.3c2-1.7,4.1-8.7,4.9-10.8C199.7,105.2,197.7,105.8,191.3,105.9z"/>
			<polygon id="XMLID_322_" class="st17" points="175.5,93.3 198,93.5 196.4,89.6 176.5,88.4 175.3,92.7 			"/>
			<path id="XMLID_309_" class="st22" d="M87.1,115l13.1-10.6c0.3-0.3,0.7-0.4,1-0.6l62.1-21c0.4-0.1,0.9-0.2,1.4-0.2l28.1,2.3
				c1.2,0.1,2.3,0.8,2.8,1.9l6.1,13c0.1,0.1,0.1,0.3,0.2,0.4c1.7,5,0.1,10.3-4.2,14c-0.6,0.5-2.2,2.3-2.9,2.3l-54.2,2.5
				C140.4,119.2,84.6,117,87.1,115z"/>
			<path id="XMLID_305_" class="st23" d="M82.4,114.1l-6.9-12.2l97.4-14.4l3.7,10.5c0.6,1.8,0.8,3.8,0.5,5.8
				c-0.9,5.9-5.3,10.5-11.1,12.1c-4.1,1.1-10.4,2.6-17.3,3.4l-52.8,3.6C89.9,121.8,84.9,118.5,82.4,114.1z"/>
			<path id="XMLID_284_" class="st24" d="M176.5,98l-3.7-10.5L99.2,98.4l-18.7,6c-1.1,0.3-2,0.9-2.7,1.7l4.6,8.1
				c0.6,1.1,1.4,2.2,2.4,3.1l84.1-9.4c2.3-0.3,4.3-1.7,5.3-3.8l2.6-5.4C176.7,98.4,176.6,98.2,176.5,98z"/>
			<path id="XMLID_101_" class="st8" d="M200.6,85.1l-0.7-2c-0.3-1.1-3-2.6-4.1-2.7l-22.7-3.2c-0.2,0-0.3,0-0.5,0
				c-0.5-0.2-1-0.4-1.5-0.5l-13.8-2.5c-1.1-0.2-2.3-0.1-3.3,0.3l-80.1,25.9c-3.9,1.3-5.9,7.3-4.2,11.3c1.2,3,4.2,4.9,7.3,4.5
				l90.1-10.7c2.4-0.3,4.5-1.9,5.6-4.2l4.8-10.7c0.3-0.7,0.3-0.9,0.3-0.9l18.9,1C198.6,90.8,201.1,86.9,200.6,85.1z"/>
			
				<radialGradient id="XMLID_7_" cx="135.7033" cy="100.973" r="46.583" gradientTransform="matrix(1 0 0 -1 0 196.11)" gradientUnits="userSpaceOnUse">
				<stop  offset="0" style="stop-color:#A99468"/>
				<stop  offset="1" style="stop-color:#CDBE9C"/>
			</radialGradient>
			<path id="XMLID_100_" class="st25" d="M198.7,86l-0.5-1.8c-0.3-1-1.1-1.7-2.1-1.9L171.2,79c-0.2,0-0.3,0-0.5,0
				c-0.4-0.2-0.9-0.3-1.4-0.4l-13.1-2.2c-1.1-0.2-2.1-0.1-3.2,0.2L77.2,101c-3.7,1.2-5.7,5.4-4.1,9c1.2,2.7,4,4.4,6.9,4l85.5-9.6
				c2.3-0.3,4.3-1.7,5.3-3.8l4.6-9.6c0.5-1,0.7-2,0.6-3l20.1,1.1C197.8,89.2,199.1,87.7,198.7,86z"/>
			<path id="XMLID_96_" class="st10" d="M195.3,88.1l-18.5-1c-0.8,0-1.4-0.5-1.7-1.1l-1.1-2.6c-0.5-1.2,0.6-2.5,2.1-2.3l19.2,2.4
				c0.8,0.1,1.4,0.6,1.6,1.3l0.4,1.2C197.6,87.1,196.6,88.2,195.3,88.1z"/>
			<path id="XMLID_59_" class="st11" d="M168.8,81.3c-0.4-0.1-0.9-0.2-1.3-0.3L155,79.4c-1-0.1-2,0-3,0.2l-72.7,22
				c-3.5,1-5.3,4.5-3.8,7.4c1.1,2.2,3.8,3.5,6.6,3.2l80.9-9.3c2.2-0.2,4.1-1.4,5-3.2l4.2-7.9c0.4-0.8,0.6-1.6,0.6-2.5
				C172.8,89.3,168.9,81.3,168.8,81.3z"/>
			<g id="Calque_4_-_copie_3_2_">
				<path id="XMLID_57_" class="st12" d="M80,114.1l50.4-5.6c0-0.7-0.1-1.4-0.3-2.1c-0.6-2.4-2.7-4.6-5.3-4.6c-3,0-5.8,2.9-8.6,1.8
					c-2-0.8-2.8-3.2-4.2-4.9c-2.1-2.7-6.8-3.4-8.9-0.7c-2.3,2.8-0.6,7.5-2.9,10.3c-1.5,1.9-4.5,2.2-6.8,1.2s-3.9-3-5.3-5
					c-0.6-0.9-1.2-1.9-2.1-2.6c-2.5-2-6.5-1.1-8.4,1.5c-1.8,2.6-1.7,6.3-0.2,9.1c0.4,0.7,0.8,1.3,1.4,1.8
					C79.2,114.1,79.6,114.1,80,114.1z"/>
				<path id="XMLID_55_" class="st12" d="M176.6,81.5c-2.5-0.8-5.5,0.6-6.4,3.1c-1.2,3.4,1.2,7.7-0.8,10.7c-1,1.5-2.9,2.2-4.7,2.4
					c-1.8,0.3-3.7,0.2-5.4,0.9c-2,0.7-4.2,1.7-5.7,3.3c-1.1,0.8-1.3,2.6-1.1,4.1l13-1.5c2.3-0.3,4.3-1.7,5.3-3.8l4.6-9.6
					c0.5-1,0.7-2,0.6-3l3.6,0.2c0.1-0.1,0.1-0.3,0.1-0.4C180.6,85.3,179.1,82.3,176.6,81.5z"/>
				<path id="XMLID_42_" class="st12" d="M148.7,99.8c-0.5-2.2-2.3-4.6-0.9-6.4c1-1.2,2.9-1,4.4-0.9c1.6,0.1,3.6-0.3,3.9-1.9
					c0.2-1.5-1.7-3.5-2.7-3.3c-0.9,0-1.7-2.7-1.2-3.4c1.2-1.7,2.6-3.2,3.3-5.2c0.3-0.7,0.4-1.5,0.4-2.3c-1-0.1-1.9,0-2.8,0.3L121,87
					c-0.1,2,0.5,4,1.6,5.6c1.6,2.2,4.4,3.5,7.1,2.9c0.7-0.2,1.4-0.4,2.1-0.3c0.5,0.1,0.9,0.4,1.2,0.7c1.7,1.5,2.7,3.8,2.6,6.1
					c-0.1,1.6-0.6,3.3,0.1,4.7c0.2,0.4,0.5,0.8,0.9,1.1l8.1-0.9C147.2,105.2,149.2,102.6,148.7,99.8z"/>
			</g>
		</g>
	</g>
	<g id="Calque_39">
		<path id="XMLID_263_" class="st26" d="M228.9,164.6l25.2,7.3c2.7,0.8,11.9,2.4,13.7,0.3c1.1-1.3-6.5-7.3-7.9-8.1l-8-6.3
			c-2.1-2.2-3.5-4.2,0.9-6.3l8.1-1.1c6.1-0.7,13.4-0.3,13.2-2c-0.4-2.8-8.9-4.3-11.7-5.1l-25.2-7.3c-5.1-1.5-10.5,1.7-12,7l-2.7,9.3
			c-0.8,2.8-2.4,6.6-1.1,8.9C222.5,163.2,226.5,163.9,228.9,164.6z"/>
		
			<linearGradient id="XMLID_8_" gradientUnits="userSpaceOnUse" x1="270.2935" y1="17072.9844" x2="217.0979" y2="17072.9844" gradientTransform="matrix(1 0 0 1 0 -16923.8906)">
			<stop  offset="0" style="stop-color:#EB5959"/>
			<stop  offset="8.947212e-002" style="stop-color:#D74746"/>
			<stop  offset="0.2307" style="stop-color:#BE3532"/>
			<stop  offset="0.3825" style="stop-color:#AC2A23"/>
			<stop  offset="0.5477" style="stop-color:#9F211D"/>
			<stop  offset="0.7363" style="stop-color:#981C1A"/>
			<stop  offset="1" style="stop-color:#951919"/>
		</linearGradient>
		<path id="XMLID_262_" class="st27" d="M225.1,159.3l25.2,7.3c2.7,0.8,11.9,2.4,13.7,0.3c1.1-1.3-6.5-7.3-7.9-8.1l-8-6.3
			c-2.1-2.2-3.5-4.2,0.9-6.3l8.1-1.1c6.1-0.7,13.4-0.3,13.2-2c-0.4-2.8-8.9-4.3-11.7-5.1l-25.2-7.3c-5.1-1.5-10.5,1.7-12,7l-2.7,9.3
			c-0.8,2.8-2.4,6.6-1.1,8.9C218.7,157.9,222.7,158.6,225.1,159.3z"/>
		<path id="XMLID_261_" class="st26" d="M70.9,163.7L45.8,171c-2.7,0.8-11.9,2.4-13.7,0.3c-1.1-1.3,6.5-7.3,7.9-8.1l8-6.3
			c2.1-2.2,3.5-4.2-0.9-6.3l-8.1-1.1c-6.1-0.7-13.4-0.3-13.2-2c0.4-2.8,8.9-4.3,11.7-5.1l25.2-7.3c5.1-1.5,10.5,1.7,12,7l2.7,9.3
			c0.8,2.8,2.4,6.6,1.1,8.9C77.3,162.4,73.4,163,70.9,163.7z"/>
		
			<linearGradient id="XMLID_9_" gradientUnits="userSpaceOnUse" x1="239.144" y1="47.9154" x2="185.9484" y2="47.9154" gradientTransform="matrix(-1 0 0 -1 268.7847 196.11)">
			<stop  offset="0" style="stop-color:#EB5959"/>
			<stop  offset="8.947212e-002" style="stop-color:#D74746"/>
			<stop  offset="0.2307" style="stop-color:#BE3532"/>
			<stop  offset="0.3825" style="stop-color:#AC2A23"/>
			<stop  offset="0.5477" style="stop-color:#9F211D"/>
			<stop  offset="0.7363" style="stop-color:#981C1A"/>
			<stop  offset="1" style="stop-color:#951919"/>
		</linearGradient>
		<path id="XMLID_260_" class="st28" d="M74.7,158.4l-25.2,7.3c-2.7,0.8-11.9,2.4-13.7,0.3c-1.1-1.3,6.5-7.3,7.9-8.1l8-6.3
			c2.1-2.2,3.5-4.2-0.9-6.3l-8.1-1.1c-6.1-0.7-13.4-0.3-13.2-2c0.4-2.8,8.9-4.3,11.7-5.1l25.2-7.3c5.1-1.5,10.5,1.7,12,7l2.7,9.3
			c0.8,2.8,2.4,6.6,1.1,8.9C81.1,157,77.2,157.7,74.7,158.4z"/>
		<g id="XMLID_257_" class="st29">
			<path id="XMLID_271_" class="st30" d="M224.6,154.1c-48.7-13.5-100.1-13.5-148.8,0c-6.4,1.8-13.4-1.6-15.5-7.9
				c-1-3.1-2-6.1-3-9.2c-2.1-6.3,2.1-13.3,9.5-15.4c54.5-15.1,112.2-15.1,166.7,0c7.3,2,11.6,9.1,9.5,15.4c-1,3.1-2,6.1-3,9.2
				C238,152.4,231.1,155.8,224.6,154.1z"/>
		</g>
		<g id="XMLID_34_">
			
				<radialGradient id="XMLID_10_" cx="150.295" cy="67.5683" r="67.8625" gradientTransform="matrix(1 0 0 -1 0 196.11)" gradientUnits="userSpaceOnUse">
				<stop  offset="0" style="stop-color:#EB5959"/>
				<stop  offset="1" style="stop-color:#951919"/>
			</radialGradient>
			<path id="XMLID_51_" class="st31" d="M225.2,149.6c-49-13.6-100.8-13.6-149.8,0c-6.4,1.8-13.4-1.6-15.5-7.9
				c-0.9-2.7-1.7-5.3-2.6-8c-2.1-6.3,2.1-13.3,9.4-15.4c54.7-15.2,112.4-15.2,167.1,0c7.3,2,11.5,9.1,9.4,15.4
				c-0.9,2.7-1.7,5.3-2.6,8C238.5,148,231.6,151.4,225.2,149.6z"/>
			<path id="XMLID_50_" class="st32" d="M225.2,149.6c-49-13.6-100.8-13.6-149.8,0c-6.4,1.8-13.4-1.6-15.5-7.9
				c-0.9-2.7-1.7-5.3-2.6-8c-2.1-6.3,2.1-13.3,9.4-15.4c54.7-15.2,112.4-15.2,167.1,0c7.3,2,11.5,9.1,9.4,15.4
				c-0.9,2.7-1.7,5.3-2.6,8C238.5,148,231.6,151.4,225.2,149.6z"/>
		</g>
		<g id="XMLID_26_">
			<g id="XMLID_138_">
				<path id="XMLID_158_" class="st33" d="M102.5,119.4c1.5-0.3,2.9-0.5,4.4-0.7c1.2-0.2,2.1-0.2,2.8-0.2c0.7,0.1,1.2,0.3,1.5,0.5
					c0.4,0.3,0.6,0.7,0.8,1.1c0.2,0.5,0.3,1.2,0.5,2.1c0.1,0.5,0.1,0.9,0.2,1.4c0.1,1,0.1,1.7,0,2.2s-0.5,0.9-1,1.2
					s-1.3,0.6-2.2,0.7c-0.4,0.1-0.8,0.1-1.1,0.2c0.3,2.1,0.7,4.2,1,6.3c-1.4,0.2-2.7,0.4-4.1,0.7
					C104.3,129.8,103.4,124.6,102.5,119.4z M107.3,121.4c0.2,1.3,0.4,2.6,0.6,4c0.1,0,0.2,0,0.3,0c0.4-0.1,0.6-0.2,0.8-0.4
					c0.1-0.2,0.1-0.6,0.1-1.2c-0.1-0.4-0.1-0.9-0.2-1.3c-0.1-0.5-0.2-0.9-0.4-1C108.2,121.3,107.8,121.3,107.3,121.4z"/>
				<path id="XMLID_155_" class="st33" d="M113.1,117.8c1-0.1,2.1-0.3,3.1-0.4c2.1-0.3,3.5-0.3,4.2-0.3c0.7,0.1,1.4,0.4,1.9,1
					s0.8,1.5,1,2.9c0.1,1.2,0,2.1-0.2,2.5c-0.3,0.5-0.9,0.8-1.8,1c0.9,0.1,1.5,0.3,1.8,0.6s0.5,0.6,0.6,0.9c0.1,0.3,0.2,1,0.3,2.3
					c0.1,1.4,0.3,2.8,0.4,4.1c-1.3,0.1-2.5,0.3-3.8,0.4c-0.2-1.7-0.4-3.5-0.6-5.2c-0.1-0.8-0.2-1.4-0.4-1.5
					c-0.2-0.2-0.5-0.2-1.1-0.2c0.3,2.4,0.6,4.7,0.8,7.1c-1.4,0.2-2.7,0.3-4.1,0.5C114.5,128.2,113.8,123,113.1,117.8z M117.8,119.9
					c0.1,1.2,0.3,2.3,0.4,3.5c0.5-0.1,0.8-0.2,1-0.3s0.2-0.6,0.1-1.3c0-0.3-0.1-0.6-0.1-0.9c-0.1-0.5-0.2-0.8-0.4-0.9
					C118.6,119.9,118.3,119.8,117.8,119.9z"/>
				<path id="XMLID_152_" class="st33" d="M135.1,124.9c0.1,1.6,0.1,2.7,0.1,3.4s-0.2,1.3-0.6,1.9c-0.4,0.6-0.9,1-1.5,1.4
					c-0.7,0.3-1.4,0.5-2.3,0.6c-0.8,0.1-1.6,0-2.3-0.2s-1.3-0.6-1.7-1.1c-0.5-0.5-0.8-1.1-0.9-1.7c-0.1-0.6-0.3-1.8-0.4-3.4
					c-0.1-0.9-0.2-1.8-0.3-2.7c-0.1-1.6-0.2-2.7-0.2-3.4s0.2-1.3,0.6-1.9c0.4-0.6,0.9-1.1,1.6-1.4c0.7-0.4,1.5-0.6,2.5-0.6
					c0.9-0.1,1.7,0,2.5,0.2c0.7,0.2,1.3,0.6,1.8,1.1s0.8,1.1,0.9,1.8c0.1,0.6,0.2,1.8,0.3,3.4C134.9,123.1,135,124,135.1,124.9z
					 M130.4,120c-0.1-0.7-0.1-1.2-0.2-1.4c-0.1-0.2-0.3-0.3-0.6-0.3c-0.2,0-0.4,0.1-0.5,0.3s-0.1,0.7-0.1,1.5
					c0.2,2.5,0.4,4.9,0.6,7.4c0.1,0.9,0.2,1.5,0.2,1.7c0.1,0.2,0.3,0.3,0.6,0.3s0.5-0.2,0.5-0.4c0.1-0.3,0.1-0.8,0-1.8
					C130.8,124.9,130.6,122.5,130.4,120z"/>
				<path id="XMLID_150_" class="st33" d="M146.3,121.1c-1.4,0-2.9,0.1-4.3,0.1c0-0.5,0-1,0-1.4c0-0.9-0.1-1.5-0.2-1.7
					c-0.1-0.2-0.3-0.3-0.6-0.3s-0.4,0.1-0.5,0.3s-0.1,0.7-0.1,1.5c0.1,2.5,0.2,5.1,0.3,7.6c0,0.7,0.1,1.2,0.2,1.4
					c0.1,0.2,0.3,0.3,0.6,0.3s0.5-0.1,0.6-0.4c0.1-0.3,0.1-0.8,0.1-1.5c0-0.6,0-1.2-0.1-1.9c-0.3,0-0.6,0-0.9,0
					c0-0.8-0.1-1.6-0.1-2.4c1.7-0.1,3.3-0.1,5-0.1c0,2.8,0.1,5.7,0.1,8.5c-0.9,0-1.7,0-2.6,0.1c-0.1-0.4-0.3-0.7-0.4-1.1
					c-0.3,0.5-0.6,0.9-1,1.1c-0.4,0.3-0.9,0.4-1.5,0.4c-0.7,0-1.3-0.1-2-0.4c-0.6-0.3-1.1-0.7-1.4-1.2c-0.3-0.5-0.6-1-0.7-1.5
					c-0.1-0.5-0.2-1.4-0.2-2.4c-0.1-1.6-0.2-3.1-0.2-4.7c-0.1-1.5-0.1-2.6,0.1-3.3c0.1-0.7,0.6-1.3,1.4-2c0.8-0.6,1.8-0.9,3.2-1
					c1.3,0,2.4,0.2,3.2,0.6c0.9,0.5,1.4,1.1,1.7,1.7c0.3,0.7,0.4,1.7,0.4,3C146.3,120.6,146.3,120.9,146.3,121.1z"/>
				<path id="XMLID_147_" class="st33" d="M147.9,115.2c1,0,2.1,0,3.1,0c2.1,0,3.5,0.1,4.2,0.3s1.3,0.6,1.8,1.2
					c0.4,0.6,0.6,1.6,0.6,3c0,1.2-0.2,2.1-0.5,2.5s-1,0.7-1.9,0.7c0.8,0.2,1.4,0.5,1.7,0.8s0.5,0.7,0.5,0.9c0.1,0.3,0.1,1.1,0,2.3
					c0,1.4-0.1,2.8-0.1,4.2c-1.3,0-2.6-0.1-3.8-0.1c0-1.8,0-3.5,0.1-5.3c0-0.8-0.1-1.4-0.2-1.6c-0.1-0.2-0.5-0.3-1.1-0.3
					c0,2.4,0,4.8,0,7.1c-1.4,0-2.8,0-4.1,0C148,125.8,147.9,120.5,147.9,115.2z M152.2,117.9c0,1.2,0,2.3,0,3.5c0.5,0,0.8-0.1,1-0.2
					c0.2-0.1,0.3-0.5,0.3-1.2c0-0.3,0-0.6,0-0.9c0-0.5-0.1-0.8-0.3-1C153.1,118,152.7,117.9,152.2,117.9z"/>
				<path id="XMLID_144_" class="st33" d="M166.9,115.7c0.5,5.3,1,10.6,1.4,15.9c-1.4-0.1-2.8-0.2-4.2-0.2c0-0.9-0.1-1.9-0.1-2.8
					c-0.5,0-1,0-1.5-0.1c-0.1,0.9-0.3,1.9-0.4,2.8c-1.4-0.1-2.8-0.1-4.3-0.2c0.8-5.2,1.7-10.5,2.7-15.7
					C162.7,115.5,164.8,115.6,166.9,115.7z M164.1,125.7c-0.1-1.8-0.2-4-0.3-6.7c-0.6,3-0.9,5.2-1.1,6.6
					C163.1,125.7,163.6,125.7,164.1,125.7z"/>
				<path id="XMLID_142_" class="st33" d="M183.6,117.2c-0.6,5.2-1.2,10.5-1.9,15.7c-1.2-0.1-2.4-0.3-3.6-0.4
					c0.4-3.5,0.7-7.1,1.1-10.6c-0.9,3.5-1.7,7-2.5,10.5c-0.9-0.1-1.7-0.2-2.6-0.2c-0.2-3.5-0.4-7-0.6-10.5
					c-0.3,3.5-0.6,6.9-0.9,10.4c-1.2-0.1-2.4-0.2-3.6-0.3c0.4-5.3,0.7-10.5,1.1-15.8c1.9,0.1,3.8,0.3,5.7,0.4c0.1,1,0.2,2.1,0.2,3.4
					c0.1,1.4,0.2,2.7,0.2,4.1c0.6-2.4,1.1-4.8,1.7-7.3C179.8,116.7,181.7,116.9,183.6,117.2z"/>
				<path id="XMLID_139_" class="st33" d="M198.3,123.5c-1.4-0.2-2.7-0.5-4.1-0.7c0.1-0.7,0.2-1.2,0.2-1.4s0-0.4-0.2-0.5
					c-0.1-0.2-0.3-0.2-0.6-0.3c-0.2,0-0.4,0-0.5,0.1c-0.2,0.1-0.3,0.2-0.3,0.4c-0.1,0.2-0.1,0.6-0.2,1.2c-0.1,0.8-0.3,1.7-0.4,2.5
					c0.3-0.4,0.6-0.7,1.1-0.8c0.4-0.1,1-0.2,1.5-0.1c0.7,0.1,1.4,0.4,1.9,0.9s0.8,1,0.8,1.6c0.1,0.6,0,1.3-0.2,2.2
					c-0.1,0.4-0.1,0.8-0.2,1.2c-0.2,1.1-0.4,1.9-0.6,2.4c-0.2,0.5-0.5,1-0.9,1.4s-1,0.7-1.7,0.8s-1.4,0.1-2.3,0
					c-1.1-0.2-1.9-0.4-2.5-0.8c-0.6-0.4-1.1-0.9-1.4-1.5c-0.3-0.6-0.4-1.2-0.4-1.8s0.1-1.8,0.4-3.5c0.1-0.7,0.2-1.4,0.3-2.2
					c0.3-1.9,0.5-3.1,0.6-3.7c0.1-0.6,0.5-1.2,1-1.7s1.1-0.8,1.9-1c0.8-0.2,1.6-0.2,2.6,0c1.2,0.2,2.1,0.5,2.8,1s1.1,1.1,1.3,1.8
					C198.4,121.7,198.4,122.6,198.3,123.5z M193.4,127.7c0.1-0.6,0.1-0.9,0-1.2c-0.1-0.2-0.3-0.4-0.6-0.4s-0.5,0-0.7,0.2
					s-0.3,0.6-0.4,1.1c-0.1,0.9-0.3,1.9-0.4,2.8c-0.1,0.7-0.1,1.1,0,1.4c0.1,0.2,0.3,0.4,0.6,0.4c0.2,0,0.4,0,0.6-0.2
					c0.2-0.1,0.4-0.6,0.5-1.3C193.1,129.7,193.2,128.7,193.4,127.7z"/>
			</g>
		</g>
	</g>
</g>
</svg>
