<?xml version="1.0" encoding="utf-8"?>
<!-- Generator: Adobe Illustrator 19.0.0, SVG Export Plug-In . SVG Version: 6.00 Build 0)  -->
<svg version="1.1" id="Calque_1" xmlns="http://www.w3.org/2000/svg" xmlns:xlink="http://www.w3.org/1999/xlink" x="0px" y="0px"
	 viewBox="0 0 300 300" style="enable-background:new 0 0 300 300;" xml:space="preserve">
<style type="text/css">
	.st0{display:none;}
	.st1{display:inline;fill:none;stroke:#010202;stroke-width:3;stroke-miterlimit:10;}
	.st2{display:inline;opacity:0.1;fill:#020304;enable-background:new    ;}
	.st3{fill:none;stroke:#010202;stroke-width:3;stroke-miterlimit:10;}
	.st4{opacity:0.1;fill:#020304;enable-background:new    ;}
	.st5{display:inline;}
	.st6{opacity:0.25;fill:#FFFFFF;stroke:#010202;stroke-width:3;stroke-miterlimit:10;enable-background:new    ;}
	.st7{fill:#FFFFFF;stroke:#010202;stroke-width:3;stroke-miterlimit:10;}
	.st8{fill:#C15857;}
	.st9{fill:#010202;}
	.st10{opacity:0.25;fill:#010202;enable-background:new    ;}
</style>
<g id="Calque_12">
	<g id="expression">
		<g id="Calque_7" class="st0">
			<path id="XMLID_8_" class="st1" d="M144.2,186.3c1.7-2.1,4.5-3,7.2-3.2s5.4,0,8-0.4"/>
			<path id="XMLID_7_" class="st2" d="M156.1,188.3l-6,0.3c-1,0.1-1.8-0.7-1.9-1.7l0,0c-0.1-1,0.7-1.8,1.7-1.9l6-0.3
				c1-0.1,1.8,0.7,1.9,1.7l0,0C157.8,187.4,157.1,188.2,156.1,188.3z"/>
		</g>
		<g id="Calque_7_-_copie">
			<path id="XMLID_52_" class="st3" d="M143.3,184.7c3.3,0,5.5-1.3,8.2-1.6s5.4,0,8-0.4"/>
			<path id="XMLID_2_" class="st4" d="M156.1,188.3l-6,0.3c-1,0.1-1.8-0.7-1.9-1.7l0,0c-0.1-1,0.7-1.8,1.7-1.9l6-0.3
				c1-0.1,1.8,0.7,1.9,1.7l0,0C157.8,187.4,157.1,188.2,156.1,188.3z"/>
		</g>
		<g id="Calque_7_-_copie_2" class="st0">
			<path id="XMLID_54_" class="st1" d="M143.8,182.9c3.3,0,4.9,0.4,7.6,0.2s6.4,0,9.1,1.1"/>
			<path id="XMLID_53_" class="st2" d="M156.1,188.3l-6,0.3c-1,0.1-1.8-0.7-1.9-1.7l0,0c-0.1-1,0.7-1.8,1.7-1.9l6-0.3
				c1-0.1,1.8,0.7,1.9,1.7l0,0C157.8,187.4,157.1,188.2,156.1,188.3z"/>
		</g>
		<g id="Calque_18_2_" class="st0">
			<g id="Calque_3_2_" class="st5">
				<path id="XMLID_21_" class="st6" d="M132.3,153h-5.6c-1.2,0-2.2-0.7-2.8-1.8l-3.1-6.8c-0.9-2,0.5-4.3,2.8-4.3h12.1
					c2.2,0,3.7,2.4,2.7,4.4l-3.4,6.8C134.5,152.3,133.4,153,132.3,153z"/>
				<path id="XMLID_20_" class="st7" d="M132.8,150.8h-6.6c-0.9,0-1.7-0.4-2.1-1.3l-3.3-6.1c-0.9-1.6,0.3-3.5,2.1-3.5h13.6
					c1.9,0,3,2,2.1,3.6l-3.6,6.1C134.4,150.3,133.6,150.8,132.8,150.8z"/>
				<ellipse id="XMLID_19_" class="st8" cx="129.8" cy="145.3" rx="1.9" ry="3.3"/>
			</g>
			<g id="Calque_3_-_copie_2_" class="st5">
				<path id="XMLID_18_" class="st6" d="M177,153h-5.6c-1.2,0-2.2-0.7-2.8-1.8l-3.1-6.8c-0.9-2,0.5-4.3,2.8-4.3h12.1
					c2.2,0,3.7,2.4,2.7,4.4l-3.4,6.8C179.2,152.3,178.2,153,177,153z"/>
				<path id="XMLID_17_" class="st7" d="M177.5,150.8h-6.6c-0.9,0-1.7-0.4-2.1-1.3l-3.3-6.1c-0.9-1.6,0.3-3.5,2.1-3.5h13.6
					c1.9,0,3,2,2.1,3.6l-3.6,6.1C179.2,150.3,178.3,150.8,177.5,150.8z"/>
				<ellipse id="XMLID_16_" class="st8" cx="174.5" cy="145.3" rx="1.9" ry="3.3"/>
			</g>
		</g>
		<g id="Calque_4" class="st0">
			<g id="Calque_5" class="st5">
				<path id="XMLID_1_" class="st9" d="M138.4,147.3l-5.6-1.3c-2-0.5-4.1-0.5-6.1,0l-5.7,1.3c-1,0.2-1.9-0.5-1.9-1.5v-0.2
					c0-0.8,0.5-1.4,1.3-1.6l9.1-1.9c0.2,0,0.4,0,0.7,0l9,1.9c0.7,0.2,1.3,0.8,1.3,1.6v0.2C140.3,146.8,139.4,147.6,138.4,147.3z"/>
				<path id="XMLID_3_" class="st10" d="M136,149.4l-4-1.3c-1.4-0.5-3-0.5-4.4,0l-4.1,1.3c-0.7,0.2-1.4-0.5-1.4-1.6v-0.2
					c0-0.8,0.4-1.4,0.9-1.6l6.6-1.9c0.2,0,0.3,0,0.5,0l6.5,1.9c0.5,0.2,0.9,0.8,0.9,1.6v0.2C137.4,148.8,136.7,149.6,136,149.4z"/>
			</g>
			<g id="Calque_5_-_copie" class="st5">
				<path id="XMLID_50_" class="st9" d="M183.1,147.3l-5.6-1.3c-2-0.5-4.1-0.5-6.1,0l-5.7,1.3c-1,0.2-1.9-0.5-1.9-1.5v-0.2
					c0-0.8,0.5-1.4,1.3-1.6l9.1-1.9c0.2,0,0.4,0,0.7,0l9,1.9c0.7,0.2,1.3,0.8,1.3,1.6v0.2C185,146.8,184.1,147.6,183.1,147.3z"/>
				<path id="XMLID_5_" class="st10" d="M180.7,149.4l-4-1.3c-1.4-0.5-3-0.5-4.4,0l-4.1,1.3c-0.7,0.2-1.4-0.5-1.4-1.6v-0.2
					c0-0.8,0.4-1.4,0.9-1.6l6.6-1.9c0.2,0,0.3,0,0.5,0l6.5,1.9c0.5,0.2,0.9,0.8,0.9,1.6v0.2C182.1,148.8,181.4,149.6,180.7,149.4z"
					/>
			</g>
		</g>
	</g>
</g>
</svg>
