<?xml version="1.0" encoding="utf-8"?>
<!-- Generator: Adobe Illustrator 19.0.0, SVG Export Plug-In . SVG Version: 6.00 Build 0)  -->
<svg version="1.1" xmlns="http://www.w3.org/2000/svg" xmlns:xlink="http://www.w3.org/1999/xlink" x="0px" y="0px"
	 viewBox="0 0 300 300" style="enable-background:new 0 0 300 300;" xml:space="preserve">
<style type="text/css">
	.st0{display:none;}
	.st1{display:inline;fill:#616160;}
	.st2{display:inline;fill:#E2E2E1;}
	.st3{display:none;fill:#98C33F;}
	.st4{display:none;opacity:0.5;fill:#D7DE69;}
	.st5{display:none;opacity:0.25;fill:#36491E;}
	.st6{opacity:0.25;fill:#353535;}
	.st7{fill:#141414;}
	.st8{fill:url(#XMLID_22_);}
	.st9{opacity:0.1;fill:#020304;}
	.st10{display:none;opacity:0.5;fill:url(#XMLID_23_);}
	.st11{opacity:0.33;fill:#2D0E0F;}
	.st12{fill:url(#XMLID_26_);}
	.st13{fill:url(#XMLID_32_);}
	.st14{display:none;fill:#C7C6C6;}
	.st15{display:none;fill:#DDDDDD;}
	.st16{display:inline;}
	.st17{opacity:0.25;fill:#FFFFFF;}
	.st18{display:inline;opacity:0.25;fill:#141414;}
	.st19{fill:#661718;}
	.st20{fill:url(#XMLID_35_);}
	.st21{display:none;opacity:0.5;fill:url(#XMLID_45_);}
	.st22{fill:#581213;}
	.st23{fill:url(#XMLID_47_);}
	.st24{fill:url(#XMLID_48_);}
	.st25{opacity:0.25;fill:#EFEFEF;}
	.st26{display:none;fill:#661718;}
	.st27{display:none;fill:#D3D3D1;}
	.st28{fill:url(#XMLID_50_);}
	.st29{fill:#D8D8D8;}
	.st30{fill:url(#XMLID_51_);}
	.st31{fill:#222223;}
	.st32{fill:url(#XMLID_52_);}
	.st33{fill:#310F0F;}
	.st34{fill:#DDDDDD;}
	.st35{display:none;opacity:0.85;fill:#310F0F;}
	.st36{fill:#B2302F;}
	.st37{fill:url(#XMLID_53_);}
	.st38{fill:#3C1112;}
	.st39{fill:url(#XMLID_54_);}
	.st40{fill:#CFCECE;}
</style>
<g id="Calque_1" class="st0">
	<polygon id="XMLID_1_" class="st1" points="104.4,225 58.8,146 104.4,67 195.6,67 241.2,146 195.6,225 	"/>
	<polygon id="XMLID_2_" class="st2" points="117.7,202 85.4,146 117.7,90 182.3,90 214.6,146 182.3,202 	"/>
</g>
<g id="Calque_1_-_copie">
	<polygon id="XMLID_14_" class="st3" points="158.2,257.7 29.4,162.5 158.2,116.6 281.6,156 	"/>
	<polygon id="XMLID_20_" class="st3" points="158.7,271.1 73.1,207.9 5.3,157.8 158.7,103.1 305.7,150.1 242.8,201.9 	"/>
	<path id="XMLID_6_" class="st4" d="M156.2,245.8c-0.9-4.8-5.8-5.9-9.6-5.6c-3.8,0.3-8.4,0.7-10.7-3.4c-1.8-3.3-1.1-8.1-3-11.2
		c-4.1-6.6-13.6,1.6-18.6-4c-3.4-3.8-2.5-12.1-6.5-14.7c-4.8-3.1-10,6-15.2,4.1c-2.4-0.8-4-4.2-3.6-7.2c0.2-1.6,0.9-3.1,0.9-4.7
		c0-4.3-4.3-6.3-7.7-6.5c-3.4-0.2-7.6-0.8-8.8-4.9c-0.8-2.7,0.3-6.1-1-8.5c-1.6-3.1-5.3-1.9-8-0.9c-3.4,1.3-7.9,1.6-10-2.3
		c-0.9-1.7-1.2-4-2.5-5.3c-1.4-1.4-3.4-1.1-4.8-2.2c-2.8-2.2-1.8-8.3,1-10.4s6.4-1.6,9.6-1.3c3.3,0.3,7,0.2,9.3-2.8
		c2.1-2.8,2.7-7.6,5.6-8.9c2.2-0.9,4.4,0.8,6.4,2.3c2.4,1.8,5.1,3.3,7.7,2.9c3.5-0.6,6.1-4.4,8.5-7.7c2.4-3.3,5.8-6.5,9.3-5.2
		c2.2,0.8,3.9,3.3,5.7,5.2c6.2,6.6,16.1,6.4,22-0.3c3.4-3.9,7-10.2,11.4-8.1c1.6,0.8,2.7,2.5,4,3.9c4.6,4.9,12,4.5,16.1-0.8
		c1.7-2.2,2.8-4.9,4.5-7c3.4-4.2,9.2-5,13.3-1.7c2.7,2.1,4.6,5.6,7,8.1s6.3,3.9,8.6,1.3c1.9-2.1,2.3-6.2,4.6-7.5
		c2.6-1.5,5.4,1.6,7.2,4.5s3.9,6.4,6.8,6c1.7-0.2,3.1-1.9,4.5-3.3c2.3-2.4,5.1-4.4,8.1-4.4c3-0.1,6.2,2.2,7.2,5.9
		c0.6,2.3,0.3,5.1,1.6,6.8c2.6,3.4,6.6-1.7,10.3-2.1c3.7-0.5,7,5.4,5.4,9.7c-0.3,0.9-0.8,1.7-0.9,2.7c-0.3,2.6,2.1,4.3,4.1,5.2
		c1.9,1,4.3,3.1,3.6,5.6c-0.3,1.1-1.2,1.8-2,2.3c-3.1,1.9-6.8,2.2-10.1,1.1c-3.4-1.2-8-3.3-9.6,0.7c-1.7,4.3,2.8,11.3-0.5,13.5
		c-1.1,0.7-2.4,0.2-3.7,0.2c-3.5,0.1-5.9,5.8-4.1,9.7c0.8,1.7,2.2,3,2.7,4.9c0.7,3-1.5,6-3.9,6.8c-2.4,0.8-4.9,0.3-7.3,0.7
		c-2.4,0.4-5.1,2.1-5.5,5.2c-0.2,1.4,0.1,2.8,0,4.2c-0.4,5.5-6.2,6.9-10.5,6.2c-4.3-0.8-9.6-1.8-12.2,2.6c-2,3.3-1.7,9.1-4.7,10.6
		c-2.7,1.3-5.3-1.8-7.5-4.3c-3.1-3.6-7.2-6.4-11.3-5.9c-4.1,0.5-7.9,5.5-7,10.8c0.6,3.4,2.9,6.1,3.5,9.5c0.6,3.8-1.5,7.8-4.5,8.4
		S154.7,249.7,156.2,245.8"/>
	<path id="XMLID_12_" class="st5" d="M151.5,231.4c-0.4-3.7-4.1-4.9-7.1-4.9c-3,0-6.6,0-8.1-3.2c-1.2-2.6-0.3-6.2-1.6-8.7
		c-2.7-5.3-10.7,0.3-14.2-4.2c-2.4-3.1-1.1-9.3-4.1-11.6c-3.6-2.7-8.1,3.9-12.1,2.1c-1.8-0.8-2.9-3.4-2.3-5.7c0.3-1.2,0.9-2.3,1-3.5
		c0.3-3.3-2.9-5-5.6-5.4s-5.9-1.1-6.5-4.3c-0.4-2.1,0.6-4.6-0.2-6.5c-1.1-2.4-4-1.8-6.2-1.2c-2.8,0.8-6.2,0.7-7.6-2.4
		c-0.6-1.4-0.7-3.1-1.6-4.2c-1-1.1-2.5-1-3.6-2c-2.1-1.9-0.9-6.4,1.5-7.8s5-0.8,7.6-0.3c2.5,0.5,5.4,0.6,7.4-1.5
		c1.8-2,2.6-5.6,4.9-6.3c1.7-0.5,3.4,0.9,4.9,2.1c1.7,1.5,3.7,2.9,5.8,2.7c2.8-0.2,5-3,7.1-5.3c2.1-2.3,5-4.5,7.6-3.3
		c1.7,0.8,2.8,2.7,4.1,4.3c4.4,5.4,12.1,5.9,17.1,1.2c2.9-2.7,6.1-7.3,9.4-5.3c1.2,0.7,1.9,2.1,2.9,3.2c3.2,4,9,4.2,12.5,0.4
		c1.4-1.5,2.5-3.6,4-5c2.9-3,7.5-3.2,10.5-0.4c1.9,1.8,3.2,4.5,4.9,6.6s4.6,3.3,6.6,1.6c1.6-1.4,2.2-4.5,4.1-5.4
		c2.1-0.9,4.1,1.5,5.3,3.9c1.2,2.3,2.6,5.1,4.9,5c1.4-0.1,2.5-1.2,3.7-2.2c2-1.7,4.2-3,6.6-2.8c2.4,0.2,4.7,2.1,5.2,4.9
		c0.3,1.8-0.1,3.9,0.8,5.2c1.8,2.8,5.3-0.8,8.2-0.9c2.9-0.1,5.1,4.6,3.6,7.7c-0.3,0.7-0.8,1.2-0.9,2c-0.4,2,1.4,3.4,2.8,4.2
		c1.5,0.9,3.1,2.6,2.4,4.5c-0.3,0.8-1,1.3-1.7,1.6c-2.5,1.2-5.4,1.2-7.9,0.1c-2.6-1.1-6-3-7.5-0.1c-1.6,3.1,1.5,8.8-1.3,10.2
		c-0.9,0.5-1.9,0-2.9-0.1c-2.7-0.2-5,4-3.9,7.1c0.5,1.4,1.5,2.4,1.7,3.9c0.3,2.3-1.6,4.4-3.5,4.9c-1.9,0.5-3.8-0.1-5.8,0
		s-4.1,1.2-4.6,3.5c-0.2,1-0.1,2.1-0.3,3.2c-0.7,4.1-5.3,4.8-8.6,4s-7.3-2-9.6,1.2c-1.7,2.4-1.9,6.7-4.4,7.7c-2.2,0.8-4-1.7-5.5-3.8
		c-2.2-2.9-5.1-5.3-8.4-5.2c-3.2,0.1-6.5,3.7-6.2,7.7c0.2,2.6,1.9,4.8,2.1,7.4c0.2,2.9-1.7,5.8-4,6.1
		C152.5,238.2,150.1,234.3,151.5,231.4"/>
	<path id="XMLID_15_" class="st6" d="M46.6,229.1l19.1-21.3c1-1.2,2.5-1.9,4.1-2.1l61.8-5.9c0.8-0.1,1.6,0,2.4,0.2l54.1,16.7
		c2.6,0.8,4.4,3.3,4.4,6l-0.2,25.2c0,3.1-2.3,5.7-5.4,6.1L105,265.5c-1.2,0.2-2.5,0-3.6-0.6l-52.8-26
		C44.8,237.1,43.9,232.2,46.6,229.1z"/>
	<g id="bottom">
		<g id="Calque_1_-_copie_2">
			<path id="XMLID_17_" class="st7" d="M230.2,179.2l0-2.1c0-0.4,0-0.8-0.1-1.2l0.1-13.7c0-2.8-1.8-5.2-4.4-6l-54.4-16.8
				c-0.8-0.2-1.6-0.3-2.4-0.3l-62.1,5.9c-1.6,0.1-3,0.9-4.1,2.1l-19.2,21.4c-1.1,1.2-1.6,2.7-1.6,4.2l0,0l0,5.3l0,5.4
				c0,0.3,0,0.6,0,1l0,40.6c0,3.1-0.2,8.3,3.5,10.2l53,26.1c1.1,0.6,2.4,0.8,3.6,0.6l82.4-11.4c3.1-0.4,5.4-3,5.4-6.2l0.2-65
				C230.2,179.3,230.2,179.3,230.2,179.2z"/>
		</g>
		<radialGradient id="XMLID_22_" cx="156.1739" cy="208.7571" r="61.054" gradientUnits="userSpaceOnUse">
			<stop  offset="0" style="stop-color:#D6D5D5"/>
			<stop  offset="0.3213" style="stop-color:#D5D3D2"/>
			<stop  offset="0.5416" style="stop-color:#CCCACA"/>
			<stop  offset="0.7315" style="stop-color:#BEBDBC"/>
			<stop  offset="0.9032" style="stop-color:#ACAAAB"/>
			<stop  offset="1" style="stop-color:#A09E9E"/>
		</radialGradient>
		<path id="XMLID_76_" class="st8" d="M85.9,223.9l0-47.5l19.7-10.2c1-1.1,2.4-1.8,3.9-2l58.9-5.6c0.8-0.1,1.6,0,2.3,0.2l51.6,15.9
			c2.5,0.8,4.2,3.1,4.2,5.7l-0.2,61.7c0,3-2.2,5.4-5.1,5.8L143,258.9c-1.2,0.2-2.4,0-3.4-0.6l-50.3-24.8
			C85.7,231.8,85.9,226.8,85.9,223.9z"/>
		<path id="XMLID_19_" class="st9" d="M85.9,223.9c0,0.1,0,0.3,0,0.4v0.9c0,2.9,0.3,6.8,3.3,8.3l50.3,24.8c0.4,0.2,0.7,0.3,1.1,0.4
			v-49.9l-54.7-26.5L85.9,223.9z"/>
		
			<linearGradient id="XMLID_23_" gradientUnits="userSpaceOnUse" x1="95.5975" y1="-16241.4287" x2="215.4217" y2="-16241.4287" gradientTransform="matrix(1 0 0 -1 0 -16082)">
			<stop  offset="0" style="stop-color:#CECDCD;stop-opacity:0"/>
			<stop  offset="0.1394" style="stop-color:#CDCBCB;stop-opacity:0.3627"/>
			<stop  offset="0.1945" style="stop-color:#C7C6C6;stop-opacity:0.5062"/>
			<stop  offset="0.2348" style="stop-color:#BEBDBD;stop-opacity:0.611"/>
			<stop  offset="0.2678" style="stop-color:#B1B0B0;stop-opacity:0.6969"/>
			<stop  offset="0.2963" style="stop-color:#A1A0A0;stop-opacity:0.7712"/>
			<stop  offset="0.3218" style="stop-color:#8C8C8C;stop-opacity:0.8375"/>
			<stop  offset="0.345" style="stop-color:#737373;stop-opacity:0.898"/>
			<stop  offset="0.3658" style="stop-color:#585958;stop-opacity:0.952"/>
			<stop  offset="0.3842" style="stop-color:#3A3A39"/>
			<stop  offset="0.4145" style="stop-color:#575857;stop-opacity:0.9508"/>
			<stop  offset="0.4512" style="stop-color:#747474;stop-opacity:0.8912"/>
			<stop  offset="0.4919" style="stop-color:#8E8E8E;stop-opacity:0.8252"/>
			<stop  offset="0.5362" style="stop-color:#A5A4A4;stop-opacity:0.7533"/>
			<stop  offset="0.5853" style="stop-color:#B7B6B6;stop-opacity:0.6734"/>
			<stop  offset="0.6414" style="stop-color:#C5C4C4;stop-opacity:0.5823"/>
			<stop  offset="0.7086" style="stop-color:#CFCECE;stop-opacity:0.4733"/>
			<stop  offset="0.7979" style="stop-color:#D5D4D4;stop-opacity:0.3282"/>
			<stop  offset="1" style="stop-color:#D6D5D5;stop-opacity:0"/>
		</linearGradient>
		<path id="XMLID_3_" class="st10" d="M95.6,172.3l0-40.5l16.8-8.7c0.9-1,2-1.5,3.3-1.7l50.2-4.8c0.7-0.1,1.3,0,2,0.2l44,13.6
			c2.1,0.7,3.6,2.6,3.6,4.9l-0.2,52.6c0,2.5-1.9,4.6-4.4,5l-66.6,9.2c-1,0.1-2,0-2.9-0.5l-42.9-21.1C95.4,179,95.6,174.8,95.6,172.3
			z"/>
		<path id="XMLID_77_" class="st11" d="M85.9,187.5l0-9.8l19.7-10.2c1-1.1,2.4-1.8,3.9-2l58.9-5.6c0.8-0.1,1.6,0,2.3,0.2l51.6,15.9
			c2.5,0.8,4.2,3.1,4.2,5.7l-0.1,29.1c0,0-3.6,0.5-5.2,0.7L143,222.5c-1.2,0.2-2.4,0-3.4-0.6l-53.6-24.7
			C85.9,197.3,85.9,189.4,85.9,187.5z"/>
		<g id="Calque_19_-_copie">
			<path id="XMLID_139_" class="st7" d="M235.8,160.8c0-2.8-1.9-5.3-4.7-6.1l-58.3-17c-0.8-0.2-1.7-0.3-2.6-0.3l-66.6,6
				c-1.7,0.2-3.2,0.9-4.4,2.1l-20.6,21.8c-0.8,0.9-1.3,1.9-1.6,2.9l-0.2,0.1l0,10.5c0,2,0,8.4,0,8.4s2.4,1.3,3.8,1.9l56.9,26.5
				c1.2,0.6,2.6,0.8,3.9,0.6l88.4-11.6c1.9-0.2,5.9-0.8,5.9-0.8l0.1-31.1c0-0.4,0-0.8-0.1-1.2L235.8,160.8z"/>
		</g>
		<g id="Calque_19">
			
				<radialGradient id="XMLID_26_" cx="156.1285" cy="-16266.2061" r="54.4026" gradientTransform="matrix(1.0723 0 0 -1 -11.2478 -16082)" gradientUnits="userSpaceOnUse">
				<stop  offset="0" style="stop-color:#EB5758"/>
				<stop  offset="1" style="stop-color:#951917"/>
			</radialGradient>
			<path id="XMLID_57_" class="st12" d="M80.8,180.5l0-9.8l21.1-10.2c1.1-1.1,2.6-1.8,4.2-2l63.1-5.6c0.8-0.1,1.7,0,2.5,0.2
				l55.3,15.9c2.7,0.8,4.5,3.1,4.5,5.7l-0.1,29.1c0,0-3.8,0.5-5.6,0.7L142,215.5c-1.3,0.2-2.6,0-3.7-0.6l-53.9-24.8
				c-1.3-0.6-3.6-1.8-3.6-1.8S80.8,182.4,80.8,180.5z"/>
			
				<radialGradient id="XMLID_32_" cx="156.1297" cy="-16253.3027" r="54.4019" gradientTransform="matrix(1.0723 0 0 -1 -11.2478 -16082)" gradientUnits="userSpaceOnUse">
				<stop  offset="0" style="stop-color:#EB5758"/>
				<stop  offset="1" style="stop-color:#951917"/>
			</radialGradient>
			<path id="XMLID_40_" class="st13" d="M82.4,167.9l19.5-20.3c1.1-1.1,2.6-1.8,4.2-2l63.1-5.6c0.8-0.1,1.7,0,2.5,0.2l55.3,15.9
				c2.7,0.8,4.5,3.1,4.5,5.7l-0.2,24c0,3-2.4,5.4-5.5,5.8L142,202.6c-1.3,0.2-2.6,0-3.7-0.6l-53.9-24.8
				C80.6,175.5,79.6,170.8,82.4,167.9z"/>
		</g>
		<polygon id="XMLID_4_" class="st7" points="102,173.1 120.1,152.8 165.4,148.6 206.7,161.3 206.5,185.6 144.8,194.2 		"/>
		<polygon id="XMLID_9_" class="st14" points="112.7,130.9 127,115 162.6,111.6 195.2,121.6 195,140.8 146.4,147.5 		"/>
		<path id="XMLID_10_" class="st15" d="M128.9,123.4l-5.4,6.3c-0.9,1-3.8,4.7-3.8,4.7s3.7,1.8,5.3,2.6l20.1,9.9
			c0.4,0.2,1.3,0.6,1.3,0.6s1-0.1,1.4-0.2l47.2-6.5l0.1-7.9c0-2-1.2-3.8-3.1-4.5l-28.5-10c-0.7-0.2-1.4-0.3-2.1-0.2l-29.4,3.6
			C130.7,121.9,129.6,122.5,128.9,123.4z"/>
		<g id="Calque_16" class="st0">
			<g id="Calque_20" class="st16">
				<path id="XMLID_46_" class="st17" d="M215.3,187.9l0.1-16.8c0,9.2-4.8,14.2-6.3,15.6c-0.3,0.3-0.7,0.4-1.1,0.5
					c-5.1,0.6-43.2,5.1-53.4,6.2c-4.6,0.5-8.7-4.3-10.4-8.4c-0.3-0.8-1.9-4.4-1.9-4.4s-0.6,2.2-1.5,4.2c-1.6,4-5.2,6.6-8,6.9
					c-1.8,0.2-3.7-1-3.7-1s-18.4-9-26.9-12.6c-6.5-2.8-6.5-16.2-6.5-16.2l0,0l0,10.5c0,2.5-0.2,6.7,2.8,8.2l42.3,20.9
					c1.3,0.6,2.7,0.8,4.1,0.7l66.1-9.1C213.4,192.6,215.2,190.5,215.3,187.9z"/>
			</g>
			<polygon id="XMLID_62_" class="st18" points="102.1,182.5 105.7,184.1 105.7,150 102.1,148.3 			"/>
			<polygon id="XMLID_64_" class="st18" points="109.3,186.1 113,187.7 113,153.6 109.3,151.9 			"/>
			<polygon id="XMLID_65_" class="st18" points="117.1,189.7 120.7,191.3 120.7,157.2 117.1,155.5 			"/>
		</g>
		<g id="Calque_21">
			<polygon id="XMLID_126_" class="st19" points="109.2,200.6 109.2,188.7 120.3,183.6 121.6,184.2 110.4,189.4 110.3,201.2 			"/>
			<polygon id="XMLID_125_" class="st19" points="117.2,204.1 117.2,192.3 128.2,187.1 129.5,187.7 118.3,192.9 118.2,204.7 			"/>
			<polygon id="XMLID_124_" class="st19" points="166.3,210.9 166.3,199.4 155.2,193.9 154,194.4 165.1,199.6 165.3,211 			"/>
			<polygon id="XMLID_123_" class="st19" points="177.4,209.1 177.4,197.6 166.2,192.1 165.1,192.6 176.2,197.8 176.3,209.2 			"/>
			<polygon id="XMLID_122_" class="st19" points="190.4,208.2 190.4,196.8 179.3,191.2 178.1,191.8 189.2,197 189.4,208.3 			"/>
			<polygon id="XMLID_121_" class="st19" points="201.5,206 201.5,194.5 190.3,189 189.2,189.5 200.3,194.7 200.4,206.1 			"/>
			<polygon id="XMLID_120_" class="st19" points="212.8,204.3 212.8,192.9 201.6,187.4 200.5,187.9 211.6,193.1 211.7,204.4 			"/>
			<polygon id="XMLID_119_" class="st19" points="101.5,197 101.5,185.1 112.5,179.9 113.8,180.6 102.6,185.7 102.5,197.5 			"/>
			<polygon id="XMLID_118_" class="st19" points="93,193 93,181.1 104.1,175.9 105.3,176.5 94.2,181.7 94.1,193.5 			"/>
			<polygon id="XMLID_117_" class="st19" points="86.3,163.9 97.8,168.6 97.1,169.5 85.4,164.9 			"/>
			<polygon id="XMLID_116_" class="st19" points="217.1,182.2 231.5,182.7 231.5,184 217.1,183.6 			"/>
			<polygon id="XMLID_115_" class="st19" points="217.1,176.1 231.5,176.5 231.5,177.9 217.1,177.5 			"/>
			<polygon id="XMLID_114_" class="st19" points="217.1,169.1 231.5,169.6 231.5,170.9 217.1,170.5 			"/>
			<polygon id="XMLID_113_" class="st19" points="217.1,162.9 231.5,163.4 231.5,164.7 217.1,164.3 			"/>
			<polygon id="XMLID_112_" class="st19" points="205.7,156.6 209.4,151 210.7,151.5 207.1,157 			"/>
			<polygon id="XMLID_111_" class="st19" points="197.3,154.1 201,148.6 202.3,149 198.5,154.8 			"/>
			<polygon id="XMLID_110_" class="st19" points="91,158.9 102.5,163.6 101.8,164.5 90.1,159.9 			"/>
			<polygon id="XMLID_109_" class="st19" points="95.8,154 107.3,158.7 106.7,159.7 94.9,154.9 			"/>
			<polygon id="XMLID_108_" class="st19" points="100.1,149.2 111.6,153.9 110.9,154.8 99.2,150.2 			"/>
		</g>
	</g>
	<path id="XMLID_13_" class="st6" d="M95.8,175.8l10.2-11.4c0.6-0.6,1.3-1,2.2-1.1l33.1-3.1c0.4,0,0.9,0,1.3,0.1l29,8.9
		c1.4,0.4,2.4,1.7,2.4,3.2l-0.1,13.5c0,1.7-1.2,3.1-2.9,3.3l-43.9,6.1c-0.7,0.1-1.3,0-1.9-0.3l-28.2-13.9
		C94.8,180.1,94.3,177.5,95.8,175.8z"/>
	<g id="top">
		<g id="Calque_1_-_copie_4">
			<path id="XMLID_93_" class="st7" d="M202.3,142.4l0-1.2c0-0.2,0-0.5-0.1-0.7l0.1-8.2c0-1.7-1.1-3.1-2.6-3.6l-32.5-10
				c-0.5-0.1-1-0.2-1.5-0.2l-37.1,3.5c-0.9,0.1-1.8,0.5-2.4,1.2l-11.5,12.8c-0.7,0.7-1,1.6-1,2.5l0,0l0,3.2l0,3.2c0,0.2,0,0.4,0,0.6
				l0,24.3c0,1.8-0.1,5,2.1,6.1l31.7,15.6c0.7,0.3,1.4,0.5,2.2,0.4l49.3-6.8c1.8-0.3,3.2-1.8,3.2-3.7l0.1-38.9
				C202.3,142.5,202.3,142.5,202.3,142.4z"/>
		</g>
		
			<radialGradient id="XMLID_35_" cx="157.9929" cy="-16242.0938" r="36.4311" gradientTransform="matrix(1 0 0 -1 0 -16082)" gradientUnits="userSpaceOnUse">
			<stop  offset="0" style="stop-color:#D6D5D5"/>
			<stop  offset="0.3213" style="stop-color:#D5D3D2"/>
			<stop  offset="0.5416" style="stop-color:#CCCACA"/>
			<stop  offset="0.7315" style="stop-color:#BEBDBC"/>
			<stop  offset="0.9032" style="stop-color:#ACAAAB"/>
			<stop  offset="1" style="stop-color:#A09E9E"/>
		</radialGradient>
		<path id="XMLID_73_" class="st20" d="M116.1,169.1l0-28.3l11.8-6.1c0.6-0.7,1.4-1.1,2.3-1.2l35.1-3.3c0.5,0,0.9,0,1.4,0.1
			l30.8,9.5c1.5,0.5,2.5,1.9,2.5,3.4l-0.1,36.8c0,1.8-1.3,3.2-3.1,3.5l-46.6,6.5c-0.7,0.1-1.4,0-2.1-0.3l-30-14.8
			C115.9,173.8,116.1,170.9,116.1,169.1z"/>
		
			<linearGradient id="XMLID_45_" gradientUnits="userSpaceOnUse" x1="116.0571" y1="-16242.0938" x2="199.9287" y2="-16242.0938" gradientTransform="matrix(1 0 0 -1 0 -16082)">
			<stop  offset="0" style="stop-color:#CECDCD;stop-opacity:0"/>
			<stop  offset="0.1394" style="stop-color:#CDCBCB;stop-opacity:0.3627"/>
			<stop  offset="0.1945" style="stop-color:#C7C6C6;stop-opacity:0.5062"/>
			<stop  offset="0.2348" style="stop-color:#BEBDBD;stop-opacity:0.611"/>
			<stop  offset="0.2678" style="stop-color:#B1B0B0;stop-opacity:0.6969"/>
			<stop  offset="0.2963" style="stop-color:#A1A0A0;stop-opacity:0.7712"/>
			<stop  offset="0.3218" style="stop-color:#8C8C8C;stop-opacity:0.8375"/>
			<stop  offset="0.345" style="stop-color:#737373;stop-opacity:0.898"/>
			<stop  offset="0.3658" style="stop-color:#585958;stop-opacity:0.952"/>
			<stop  offset="0.3842" style="stop-color:#3A3A39"/>
			<stop  offset="0.4145" style="stop-color:#575857;stop-opacity:0.9508"/>
			<stop  offset="0.4512" style="stop-color:#747474;stop-opacity:0.8912"/>
			<stop  offset="0.4919" style="stop-color:#8E8E8E;stop-opacity:0.8252"/>
			<stop  offset="0.5362" style="stop-color:#A5A4A4;stop-opacity:0.7533"/>
			<stop  offset="0.5853" style="stop-color:#B7B6B6;stop-opacity:0.6734"/>
			<stop  offset="0.6414" style="stop-color:#C5C4C4;stop-opacity:0.5823"/>
			<stop  offset="0.7086" style="stop-color:#CFCECE;stop-opacity:0.4733"/>
			<stop  offset="0.7979" style="stop-color:#D5D4D4;stop-opacity:0.3282"/>
			<stop  offset="1" style="stop-color:#D6D5D5;stop-opacity:0"/>
		</linearGradient>
		<path id="XMLID_72_" class="st21" d="M116.1,169.1l0-28.3l11.8-6.1c0.6-0.7,1.4-1.1,2.3-1.2l35.1-3.3c0.5,0,0.9,0,1.4,0.1
			l30.8,9.5c1.5,0.5,2.5,1.9,2.5,3.4l-0.1,36.8c0,1.8-1.3,3.2-3.1,3.5l-46.6,6.5c-0.7,0.1-1.4,0-2.1-0.3l-30-14.8
			C115.9,173.8,116.1,170.9,116.1,169.1z"/>
		<path id="XMLID_71_" class="st22" d="M116.1,146l0-5.8l11.8-6.1c0.6-0.7,1.4-1.1,2.3-1.2l35.1-3.3c0.5,0,0.9,0,1.4,0.1l30.8,9.5
			c1.5,0.5,2.5,1.9,2.5,3.4l-0.1,17.4c0,0-2.1,0.3-3.1,0.4l-46.6,6.5c-0.7,0.1-1.4,0-2.1-0.3l-30-14.8c-0.7-0.4-2-1.1-2-1.1
			S116.1,147.2,116.1,146z"/>
		<g id="Calque_23">
			<path id="XMLID_37_" class="st9" d="M116,169.3c0,0.1,0,0.2,0,0.2v0.5c0,1.7,0.2,3.9,1.9,4.8l29,14.3c0.2,0.1,0.4,0.2,0.6,0.2
				v-28.8L116,145.2L116,169.3z"/>
			<path id="XMLID_36_" class="st7" d="M204.3,132.6c0-1.7-1.1-3.3-2.8-3.8l-34-10.5c-0.5-0.2-1-0.2-1.5-0.2l-38.8,3.7
				c-1,0.1-1.9,0.6-2.6,1.3l-12,13.4c-0.5,0.5-0.8,1.2-0.9,1.8l-0.1,0.1l0,6.4c0,1.3,0,5.2,0,5.2s1.4,0.8,2.2,1.2l33.1,16.3
				c0.7,0.3,1.5,0.5,2.3,0.4l51.5-7.1c1.1-0.2,3.5-0.5,3.5-0.5l0.1-19.2c0-0.2,0-0.5-0.1-0.7L204.3,132.6z"/>
		</g>
		<g id="Calque_23_-_copie">
			
				<radialGradient id="XMLID_47_" cx="157.9925" cy="-16228.8447" r="32.4622" gradientTransform="matrix(1 0 0 -1 0 -16082)" gradientUnits="userSpaceOnUse">
				<stop  offset="0" style="stop-color:#EB5758"/>
				<stop  offset="1" style="stop-color:#951917"/>
			</radialGradient>
			<path id="XMLID_88_" class="st23" d="M116.1,144.6l0-5.8l11.8-6.1c0.6-0.7,1.4-1.1,2.3-1.2l35.1-3.3c0.5,0,0.9,0,1.4,0.1
				l30.8,9.5c1.5,0.5,2.5,1.9,2.5,3.4l-0.1,17.4c0,0-2.1,0.3-3.1,0.4l-46.6,6.5c-0.7,0.1-1.4,0-2.1-0.3l-30-14.8
				c-0.7-0.4-2-1.1-2-1.1S116.1,145.8,116.1,144.6z"/>
			
				<radialGradient id="XMLID_48_" cx="157.9932" cy="-16221.1445" r="32.4618" gradientTransform="matrix(1 0 0 -1 0 -16082)" gradientUnits="userSpaceOnUse">
				<stop  offset="0" style="stop-color:#EB5758"/>
				<stop  offset="1" style="stop-color:#951917"/>
			</radialGradient>
			<path id="XMLID_87_" class="st24" d="M117,137.1l10.9-12.1c0.6-0.7,1.4-1.1,2.3-1.2l35.1-3.3c0.5,0,0.9,0,1.4,0.1l30.8,9.5
				c1.5,0.5,2.5,1.9,2.5,3.4l-0.1,14.3c0,1.8-1.3,3.2-3.1,3.5l-46.6,6.5c-0.7,0.1-1.4,0-2.1-0.3l-30-14.8
				C115.9,141.6,115.4,138.9,117,137.1z"/>
		</g>
		<path id="XMLID_70_" class="st25" d="M130.2,135.1l4.9-5.5c0.9-1,2.1-1.6,3.4-1.7l24-2.3c0.7-0.1,1.4,0,2,0.2l20,6.2
			c2.2,0.7,3.7,2.7,3.6,5l-0.1,6.2c0,2.6-1.9,4.7-4.4,5.1l-30.8,4.3c-1,0.1-2.1,0-3-0.5l-18-8.9
			C128.7,141.7,127.9,137.7,130.2,135.1z"/>
		<polygon id="XMLID_69_" class="st14" points="128,140.1 138,129 163,126.6 185.8,133.6 185.6,147 151.6,151.8 		"/>
		<path id="XMLID_68_" class="st15" d="M139.3,134.9l-3.8,4.4c-0.6,0.7-2.6,3.3-2.6,3.3s2.6,1.3,3.7,1.8l14.1,6.9
			c0.3,0.1,0.9,0.4,0.9,0.4s0.7-0.1,1-0.1l33-4.6l0-5.6c0-1.4-0.9-2.7-2.2-3.1l-20-7c-0.5-0.2-1-0.2-1.5-0.2l-20.6,2.5
			C140.6,133.9,139.9,134.3,139.3,134.9z"/>
		<g id="Calque_24">
			<polygon id="XMLID_18_" class="st26" points="150.8,156.4 119.4,140.3 131.8,125.3 165.5,121.6 198.6,131.3 198.9,150.6 			"/>
			<path id="XMLID_5_" class="st19" d="M197.9,143.5L197.9,143.5c-0.7,1-2,1.5-3.2,1.2L129,129.6l0.7-0.4c0.7-0.4,1.5-0.6,2.3-0.4
				L197.9,143.5z"/>
			<path id="XMLID_11_" class="st19" d="M191.6,131.3c0.6-0.1,1.2,0.1,1.6,0.4l1.2,0.9l-67.5,7.7c-1,0.1-2-0.5-2.4-1.4v0
				L191.6,131.3z"/>
			<path id="XMLID_16_" class="st19" d="M171.9,124.1L171.9,124.1c1,0.2,1.4,1.5,0.6,2.2l-28.3,24.6c-0.3,0.3-0.8,0.4-1.2,0.3
				l-0.8-0.2c-1-0.3-1.2-1.5-0.4-2.2l29.1-24.3C171.2,124.1,171.6,124,171.9,124.1z"/>
			<path id="XMLID_8_" class="st19" d="M174.8,153.5l-1.2,0.1c-0.4,0.1-0.8-0.1-1.1-0.4l-23.7-27.8c-0.7-0.8-0.2-2,0.8-2.1l0,0
				c0.4,0,0.8,0.1,1.1,0.4l24.9,27.6C176.3,152.2,175.8,153.4,174.8,153.5z"/>
		</g>
	</g>
	<path id="XMLID_7_" class="st27" d="M134.2,193l-34.7-17.1c-1.3-0.7-2.2-2-2.2-3.5l0-16.8c0-2.9,3.1-4.8,5.7-3.5l34.7,17.2
		c1.3,0.7,2.2,2,2.2,3.5v16.7C139.9,192.4,136.8,194.3,134.2,193z"/>
	<g id="door">
		<path id="XMLID_44_" class="st6" d="M175.2,260.8l-10.2,1.7c-2.8,0.4-5.2-0.5-5.8-2.2v0c-0.5-1.5,3.4-13.3,4.5-15.3l0.3,2.8
			c1.1,1.1,2.5,5.8,4.4,7.2l6.1,4.6c1.1,0.8,9.2-0.7,9,0C183.4,259.5,176.7,260.6,175.2,260.8z"/>
		<g id="Calque_6_-_copie">
			<path id="XMLID_49_" class="st7" d="M208.3,244l-13.1-18.3c-0.5-0.7-1.2-1.4-1.9-1.9l0,0l-0.2-0.1c-0.2-0.1-0.4-0.3-0.7-0.4
				l-3.1-1.9c-6.2-4.2-11.2-4.4-14,1L164,244.1c-3.1,5.9,6.7,17.3,13.3,16.4l0,0c0.3,0,0.7,0,1-0.1l24.3-3.4
				C208.8,256.1,211.9,249.1,208.3,244z"/>
		</g>
		<radialGradient id="XMLID_50_" cx="183.8829" cy="239.3838" r="19.1865" gradientUnits="userSpaceOnUse">
			<stop  offset="0" style="stop-color:#EB5758"/>
			<stop  offset="1" style="stop-color:#951917"/>
		</radialGradient>
		<path id="XMLID_43_" class="st28" d="M165.6,243.7l10.4-20.1c2.6-5.1,7.2-4.9,13-0.9l3.7,2.3l8.4,14.7c3.4,4.7,0.5,11.3-5.2,12
			l-18.1,7.2C171.8,259.8,162.8,249.2,165.6,243.7z"/>
		<path id="XMLID_42_" class="st7" d="M170,248.1l11-21.3c2.8-5.4,10.3-5.9,13.8-1l12.9,18c3.6,5,0.6,12-5.5,12.8l-24,3.3
			C171.8,260.8,167,254,170,248.1z"/>
		<path id="XMLID_41_" class="st29" d="M172.1,247.4l9.8-18.9c2.5-4.8,9.1-5.3,12.3-0.9l11.5,16c3.2,4.4,0.5,10.6-4.9,11.4
			l-21.3,2.9C173.7,258.7,169.4,252.6,172.1,247.4z"/>
		<path id="XMLID_39_" class="st7" d="M178.1,251.3l7.3-14.2c1.9-3.6,6.8-3.9,9.2-0.7l8.6,12c2.4,3.3,0.4,8-3.6,8.5l-15.9,2.2
			C179.3,259.7,176.1,255.1,178.1,251.3z"/>
		<radialGradient id="XMLID_51_" cx="190.9175" cy="247.2392" r="11.1414" gradientUnits="userSpaceOnUse">
			<stop  offset="0" style="stop-color:#D6D5D5"/>
			<stop  offset="0.3213" style="stop-color:#D5D3D2"/>
			<stop  offset="0.5416" style="stop-color:#CCCACA"/>
			<stop  offset="0.7315" style="stop-color:#BEBDBC"/>
			<stop  offset="0.9032" style="stop-color:#ACAAAB"/>
			<stop  offset="1" style="stop-color:#A09E9E"/>
		</radialGradient>
		<path id="XMLID_38_" class="st30" d="M179.9,251.2l6.3-12.2c1.6-3.1,5.9-3.4,7.9-0.6l7.4,10.3c2,2.8,0.3,6.8-3.1,7.3l-13.7,1.9
			C181,258.5,178.2,254.5,179.9,251.2z"/>
		<g id="Calque_9">
			<path id="XMLID_61_" class="st31" d="M196,247.2c0.8,2.4-0.4,5.3-3.1,6.4c-3.3,1.3-6.9-0.6-7.3-4.1c-0.3-3.1,2.2-5.6,5.1-5.8
				C193.1,243.4,195.4,245,196,247.2z"/>
			<radialGradient id="XMLID_52_" cx="191.1399" cy="248.5565" r="3.9279" gradientUnits="userSpaceOnUse">
				<stop  offset="0" style="stop-color:#D6D5D5"/>
				<stop  offset="0.3213" style="stop-color:#D5D3D2"/>
				<stop  offset="0.5416" style="stop-color:#CCCACA"/>
				<stop  offset="0.7315" style="stop-color:#BEBDBC"/>
				<stop  offset="0.9032" style="stop-color:#ACAAAB"/>
				<stop  offset="1" style="stop-color:#A09E9E"/>
			</radialGradient>
			<path id="XMLID_60_" class="st32" d="M195,247.4c0.6,1.8-0.4,4-2.5,4.7c-2.4,0.9-5-0.5-5.3-3.1c-0.3-2.3,1.5-4.2,3.7-4.4
				C192.7,244.5,194.5,245.7,195,247.4z"/>
		</g>
	</g>
	<g id="Calque_11">
	</g>
	<g id="Calque_22">
		<path id="XMLID_34_" class="st33" d="M161,137.3h-2.3c-1.1,0-2-0.7-2-1.5v-64c0-0.2-0.1-1.6,0.1-1.8c0.6-0.4,2-0.8,2.8-0.8
			c0,0,2.9,0.2,2.9,1.1l0.4,65.6C163,136.7,162.1,137.3,161,137.3z"/>
		<path id="XMLID_33_" class="st34" d="M159.8,135.1L159.8,135.1c-0.9,0-1.7-0.7-1.7-1.5V69.1c0-0.6,0.7-0.7,1.7-0.7
			c0,0,1.7,0,1.7,0.6v64.6C161.5,134.5,160.8,135.1,159.8,135.1z"/>
		<path id="XMLID_31_" class="st35" d="M159.5,22.9l-16-1.3c-2.5-0.2-4.6,2-4.2,4.5c2,14.2,7.9,54.7,8.9,57.2l8.1,20.4
			c0.6,1.6,2.1,8.5,3.4,8.4l0,0c1.3,0,2.6-6.8,3.3-8.4l8.1-20.4c1-2.4,6.9-43,8.9-57.2c0.4-2.5-1.7-4.7-4.2-4.5l-15.7,1.3
			C159.9,22.9,159.7,22.9,159.5,22.9z"/>
		<path id="XMLID_30_" class="st33" d="M159.6,26.4l-16-1.3c-2.5-0.2-4.6,2-4.2,4.5c2,14.2,7.7,51.2,8.7,53.7l8.1,20.4
			c0.6,1.6,2.1,8.5,3.4,8.4l0,0c1.3,0,2.6-6.8,3.3-8.4l8.1-20.4c1-2.4,7-39.4,9.1-53.6c0.4-2.5-1.7-4.7-4.2-4.5l-15.7,1.3
			C160.1,26.4,159.9,26.4,159.6,26.4z"/>
		<path id="XMLID_29_" class="st36" d="M159.8,26.4L143.9,25c0,0,6.3,50.8,7.2,53l6.1,15.2c0.5,1.2,1.6,6.3,2.6,6.3l0,0
			c1,0,2-5.1,2.4-6.3l6.1-15.2c0.9-2.2,7.2-53,7.2-53L159.8,26.4z"/>
		<radialGradient id="XMLID_53_" cx="159.6975" cy="57.0436" r="24.26" gradientUnits="userSpaceOnUse">
			<stop  offset="0" style="stop-color:#EB5758"/>
			<stop  offset="1" style="stop-color:#951917"/>
		</radialGradient>
		<path id="XMLID_28_" class="st37" d="M159.8,26.6l-13.5-1.1c0,0,5.3,43,6.1,45l5.2,12.9c0.4,1,1.4,5.4,2.2,5.3l0,0
			c0.8,0,1.7-4.3,2.1-5.3l5.2-12.9c0.7-1.9,6.1-45,6.1-45L159.8,26.6z"/>
		<g id="Calque_6_1_">
			<path id="XMLID_27_" class="st38" d="M159.8,39.6l-26.7-6.1l8.8,7.7c0,0,6.9,4.3,10.4,6.2c4.5,2.3,7.6,11.9,7.6,11.9
				s2.7-9.4,7.2-11.7c3.5-1.9,10.6-6.4,10.6-6.4l8.8-7.4L159.8,39.6z"/>
			<radialGradient id="XMLID_54_" cx="159.6498" cy="46.4213" r="17.6351" gradientUnits="userSpaceOnUse">
				<stop  offset="0" style="stop-color:#D6D5D5"/>
				<stop  offset="0.3213" style="stop-color:#D5D3D2"/>
				<stop  offset="0.5416" style="stop-color:#CCCACA"/>
				<stop  offset="0.7315" style="stop-color:#BEBDBC"/>
				<stop  offset="0.9032" style="stop-color:#ACAAAB"/>
				<stop  offset="1" style="stop-color:#A09E9E"/>
			</radialGradient>
			<path id="XMLID_25_" class="st39" d="M159.8,41.5l-22.7-5.7l11.6,7.3c0,0,4.8,2.5,7,3.6c2.8,1.4,4.2,10.3,4.2,10.3
				s1.3-8.9,4.1-10.3c2.2-1.1,7-3.6,7-3.6l11.3-7.1L159.8,41.5z"/>
			<path id="XMLID_24_" class="st40" d="M159.8,44.3l-8.5-2.8l4.5,2.8c0,0,1.7,0.9,2.5,1.3c1,0.5,1.4,6.7,1.4,6.7s0.5-6.1,1.4-6.7
				c0.8-0.4,2.5-1.3,2.5-1.3l4.5-2.8L159.8,44.3z"/>
		</g>
	</g>
</g>
</svg>
