<?xml version="1.0" encoding="utf-8"?>
<!-- Generator: Adobe Illustrator 19.0.0, SVG Export Plug-In . SVG Version: 6.00 Build 0)  -->
<svg version="1.0" id="Calque_1" xmlns="http://www.w3.org/2000/svg" xmlns:xlink="http://www.w3.org/1999/xlink" x="0px" y="0px"
	 viewBox="240 -240 500 500" style="enable-background:new 240 -240 500 500;" xml:space="preserve">
<style type="text/css">
	.st0{opacity:0.25;fill:#5B1919;enable-background:new    ;}
</style>
<g id="Calque_1_1_">
</g>
<g id="Calque_18">
	<g id="Calque_7">
		<g id="Calque_4">
			<path id="XMLID_5_" class="st0" d="M391.1,29.5c-3.7-1.4-6.7,3.5-6.9,7.5c-0.2,4,0.4,8.7-2.8,11.2c-0.8,0.6-1.7,1-2.4,1.7
				c-1.7,1.7-1.1,4.7,0.3,6.6c1.4,1.9,3.6,3.1,5.4,4.7c5.1,4.5,7.2,12.1,5.2,18.7c-0.5,1.6-1.3,3.3-1.1,5c0.3,3,3.4,4.8,6.3,5.9
				c4.2,1.7,8.8,2.8,13.3,1.8c4.4-1,8.5-4.7,8.7-9.2c0.2-5.4-4.8-10.7-2.7-15.7c1.5-3.6,6-4.8,9.2-7.1c5-3.6,6.5-11.9,1.9-15.9
				c-5-4.3-13.5-1.7-18.3-6.1c-3.3-3-3.6-8.3-1.7-12.3s5.6-6.9,9.4-9.3c1.7-1.1,3.6-2.1,4.9-3.6c3.8-4.3,2.4-11.7-2.1-15.2
				s-11.1-3.5-16.3-0.9c-1.7,0.8-3.3,1.9-4.4,3.5c-3,4.2-1.3,9.9-0.1,14.9c1.2,5,1.2,11.5-3.4,13.8"/>
			<path id="XMLID_6_" class="st0" d="M351.6,14.8c-0.8,3.4,3,7.3,6,9.2s6.9,2,10.2,0.7c3.6-1.4,6.7-4.5,10.6-4.4
				c3.5,0,7.7,2.3,9.8-0.4c0.6-0.8,0.8-1.9,0.8-2.9c-0.2-6.1-7.3-11.2-5.6-17c0.8-2.7,3.2-4.5,4.9-6.7c2.6-3.3,3.6-7.9,2.3-11.9
				c-1.4-4-5.3-7.1-9.5-7.1c-1.7,0-3.4,0.5-5-0.2c-3.2-1.3-3.2-5.8-4.5-9c-1.8-4.4-7.4-6.7-11.8-5s-6.9,7.2-5.3,11.7
				c2.2,6.1,10.6,9.1,11.3,15.6c0.3,3.3-1.5,6.3-3.6,8.8s-4.7,4.6-6.4,7.4C353.8,6.9,351.8,10.8,351.6,14.8"/>
			<path id="XMLID_8_" class="st0" d="M313.2,6.5c-1.7-0.3-0.9-2.9,0.5-3.9c4.2-2.9,9.8-1.9,14.9-1.4s11.3-0.4,13.5-5
				c1.1-2.2,1.5-5.3,3.8-5.7c0.7-0.1,1.4,0,2.1,0c3.6-0.2,5.2-5.2,3.5-8.4s-5.3-4.8-8.7-6.2c-3.4-1.4-7-2.9-8.9-6
				c-2.3-3.9-1.2-8.8-0.5-13.3c0.2-1.6,0.4-3.3-0.2-4.8c-1.6-4.1-7.4-4.4-11.4-2.6c-6.4,3-10.6,10.4-9.8,17.5
				c0.3,3.4,1.4,7.5-1.3,9.6c-0.6,0.5-1.3,0.8-1.9,1.2c-2,1.5-2.2,4.7-0.5,6.5c2.2,2.2,6.4,1.7,8,4.4c1.4,2.3-0.3,5.3-2.6,6.6
				c-2.3,1.3-5,1.4-7.6,2s-5.3,1.8-6.2,4.3c-0.6,1.6-0.3,3.3,0.4,4.8C302.8,10.9,321.5,9,313.2,6.5"/>
			<path id="XMLID_9_" class="st0" d="M292.2,70.5c-1.9,0.9-3.9-0.8-4.9-2.6c-3.4-6.2-0.4-15,6-17.8c1.2-0.5,2.5-0.9,3.5-1.8
				c2.9-2.8,0-7.4-2.2-10.8c-5.7-8.6-6.7-19.4-7.6-29.6c-0.2-2.8-0.5-5.6,0.3-8.3c0.5-2,1.6-3.9,1.4-5.9c-0.3-3.2-3.7-5.4-6.9-5.8
				c-8-1-15.7,7.1-14.4,15c0.9,5.2,4.9,10.4,3,15.3c-2.2,5.7-10.2,6.1-16,4.3c-1.9-0.6-3.9-1.3-5.9-1.1c-5.2,0.6-7.3,8.9-2.9,11.8
				c4.3,2.8,10.1-0.1,15.1,0.8c6.8,1.3,9.9,11.4,4.9,16.3c-1.7,1.7-4,2.7-5.5,4.4c-2.6,2.9-2.8,7.7-0.4,10.8
				c2.2,2.8,6.3,4.2,7.5,7.6c1.5,4.2-1.5,10.4,2.4,12.5c0.8,0.5,1.8,0.6,2.8,0.6c3.7,0.3,7.5,0.3,11.2,0.2c3.5-0.2,7.2-0.6,10.2-2.4
				s5.2-5.4,4.4-8.9c-0.8-3.4-5.4-5.7-8.2-3.5"/>
			<path id="XMLID_4_" class="st0" d="M351.4,31.9c-1.2,1-5.5-1.8-5.6-3.4c-0.4-3.7-0.2-7.5-1.3-11c-1.2-3.5-4.4-6.7-8.1-6.3
				c-3.3,0.4-5.5,3.5-8.1,5.7c-4.9,4.2-12.4,5.2-18.2,2.4c-3.6,1.8-6,5.8-5.9,9.8s2.7,7.9,6.4,9.5c2.5,1.1,5.8,1.4,7.1,3.9
				c1.7,3.2-1.5,6.9-4.8,8.4c-3.3,1.5-7.3,2.4-9.2,5.5c-1.7,2.8-1.1,6.4,0.4,9.4c2.1,4.4,6,8,10.8,9.2c4.7,1.2,10.2-0.3,13.2-4.2
				c0.8-1,1.4-2.2,2.5-2.8c0.8-0.4,1.7-0.5,2.6-0.5c4.1,0.1,8.2,2.1,10.7,5.4c1.7,2.2,2.9,5.2,5.5,6.3c4.2,1.9,8.8-2.1,11-6.2
				c3.2-5.9,4.2-14.2-1-18.4c-3.2-2.5-8.5-3.7-8.7-7.8c-0.1-2.9,2.7-4.8,5-6.5s4.6-4.6,3.2-7.1C357.6,31,352.6,30.5,351.4,31.9"/>
		</g>
		<g id="Calque_4_-_copie">
			<path id="XMLID_49_" class="st0" d="M414.8,193.8c-4,0.5-4.3,6.3-2.6,9.9s4.4,7.5,2.8,11.2c-0.4,0.9-1,1.7-1.3,2.6
				c-0.6,2.3,1.2,4.7,3.4,5.7s4.7,1.1,7,1.6c6.6,1.6,12.1,7.3,13.3,14c0.3,1.7,0.4,3.5,1.4,4.9c1.7,2.5,5.3,2.7,8.3,2.3
				c4.5-0.5,9.1-1.7,12.6-4.6s5.3-8.1,3.3-12.2c-2.3-4.9-9.3-7.2-9.7-12.6c-0.3-3.9,3-7.1,4.8-10.6c2.7-5.5,0.2-13.6-5.8-14.9
				c-6.4-1.4-12.7,4.8-19,3.3c-4.3-1.1-7.1-5.6-7.3-10.1c-0.2-4.4,1.7-8.7,3.9-12.6c1-1.8,2.2-3.5,2.6-5.5c1.4-5.6-3.3-11.4-9-12.4
				c-5.6-1-11.5,2.2-14.8,6.8c-1.1,1.5-2,3.3-2.3,5.1c-0.7,5.1,3.5,9.3,6.9,13.2s6.4,9.6,3.5,13.8"/>
			<path id="XMLID_48_" class="st0" d="M342.2,188.8c-3.5,0.5-5.8,5.3-6.6,8.8c-0.7,3.4,0.5,7.2,2.9,9.8c2.6,2.9,6.5,4.8,7.8,8.4
				c1.1,3.3,0.5,8,3.8,9.1c1,0.3,2,0.1,3-0.2c5.7-2.2,8-10.7,14.1-11.1c2.8-0.2,5.3,1.5,8,2.4c4,1.3,8.7,0.7,12-1.9
				c3.3-2.7,4.8-7.4,3.4-11.4c-0.6-1.6-1.6-3.1-1.6-4.7c0.1-3.5,4.4-5,6.9-7.4c3.5-3.2,3.8-9.2,0.7-12.8c-3.1-3.5-9.1-4-12.7-1
				c-5,4.2-4.9,13.1-10.8,15.9c-2.9,1.4-6.5,0.8-9.5-0.4c-3.1-1.2-5.9-2.8-9.1-3.5C350.3,188.1,346,187.6,342.2,188.8"/>
			<path id="XMLID_47_" class="st0" d="M282.2,188.4c-1.1-1.3,1.2-2.8,2.9-2.6c5.1,0.5,8.7,4.9,12.3,8.5s8.9,7,13.5,4.9
				c2.2-1,4.5-3.1,6.6-1.9c0.6,0.3,1,0.9,1.6,1.3c2.9,2.2,7.4-0.6,8.1-4.2c0.7-3.6-1-7.1-2.7-10.3s-3.5-6.7-2.9-10.3
				c0.7-4.5,4.7-7.5,8.1-10.5c1.2-1.1,2.4-2.3,2.9-3.8c1.4-4.1-2.8-8.2-7-9.3c-6.9-1.8-14.8,1.1-18.8,7c-1.9,2.8-3.8,6.7-7.2,6.6
				c-0.8,0-1.5-0.3-2.3-0.3c-2.4-0.1-4.7,2.2-4.5,4.7c0.3,3.1,3.8,5.5,3.3,8.5c-0.4,2.6-3.6,3.9-6.2,3.4s-4.8-2.1-7.1-3.4
				s-5.2-2-7.5-0.7c-1.4,0.8-2.4,2.3-2.8,4C271.4,185.1,286.9,195.6,282.2,188.4"/>
			<path id="XMLID_45_" class="st0" d="M301,144.9c-1.5-1.4-0.6-4,0.8-5.5c4.6-5.3,13.9-5.5,18.8-0.4c0.9,0.9,1.7,2.1,2.9,2.6
				c3.6,1.7,7-2.5,9.4-5.7c6.1-8.3,15.9-12.9,25.3-17.3c2.5-1.2,5.1-2.4,7.9-2.6c2-0.2,4.2,0.2,6-0.7c2.9-1.4,3.8-5.3,3-8.4
				c-1.8-7.8-12-12.3-19-8.4c-4.6,2.6-8.1,8.1-13.4,8c-6.1-0.1-9.2-7.5-9.5-13.6c-0.1-2-0.1-4.1-1-6c-2.3-4.7-10.8-3.8-12,1.3
				c-1.2,5,3.6,9.4,4.4,14.5c1.1,6.9-7.3,13.2-13.6,10.2c-2.1-1-3.9-2.8-6-3.7c-3.6-1.5-8.2,0-10.2,3.3c-1.9,3.1-1.8,7.3-4.5,9.6
				c-3.4,2.9-10.3,2.1-11,6.5c-0.1,0.9,0.1,1.9,0.4,2.8c1,3.6,2.2,7.2,3.7,10.6c1.4,3.3,3,6.5,5.8,8.8c2.7,2.2,6.9,3.1,9.8,1.1
				c3-1.9,3.5-7,0.5-8.9"/>
			<path id="XMLID_43_" class="st0" d="M397.2,159.5c-1.4-0.7-0.2-5.7,1.2-6.4c3.3-1.6,7-2.7,9.8-5s4.8-6.4,3.1-9.7
				c-1.5-3-5.2-4-8.1-5.7c-5.6-3.2-9.1-9.9-8.5-16.3c-2.9-2.8-7.5-3.6-11.2-2.1s-6.5,5.3-6.7,9.3c-0.2,2.8,0.6,6-1.2,8
				c-2.4,2.7-7,1-9.5-1.6s-4.7-6-8.3-6.7c-3.2-0.7-6.4,1.2-8.7,3.5c-3.4,3.5-5.5,8.4-5,13.3c0.5,4.8,3.8,9.5,8.4,10.9
				c1.2,0.4,2.5,0.6,3.5,1.4c0.7,0.6,1,1.4,1.3,2.2c1.3,3.9,0.8,8.4-1.4,11.9c-1.5,2.4-3.9,4.5-4.1,7.3c-0.4,4.6,5,7.5,9.6,8.2
				c6.6,1,14.8-0.9,16.9-7.2c1.3-3.8,0.6-9.3,4.3-10.8c2.7-1.1,5.4,0.9,7.8,2.5s5.9,2.7,7.8,0.6C400.1,165,398.8,160.1,397.2,159.5"
				/>
		</g>
		<g id="Calque_4_-_copie_2">
			<path id="XMLID_19_" class="st0" d="M496.8,54c-1.6,3.7,3.2,6.9,7.2,7.3s8.7,0.1,11.1,3.3c0.6,0.8,0.9,1.7,1.6,2.4
				c1.7,1.7,4.6,1.4,6.6,0s3.3-3.4,5-5.2c4.8-4.9,12.5-6.6,18.9-4.2c1.6,0.6,3.2,1.5,4.9,1.3c3-0.2,5-3.2,6.3-5.9
				c1.9-4.1,3.3-8.7,2.5-13.2s-4.2-8.7-8.7-9.1c-5.4-0.5-10.9,4.2-15.8,1.9c-3.6-1.7-4.5-6.2-6.6-9.6c-3.3-5.2-11.6-7.1-15.8-2.7
				c-4.5,4.7-2.4,13.4-7,18c-3.1,3.2-8.5,3.2-12.4,1.1s-6.6-5.9-8.8-9.8c-1-1.8-1.9-3.7-3.3-5.1c-4.1-4-11.5-3-15.3,1.3
				c-3.7,4.3-4,10.9-1.8,16.2c0.7,1.7,1.8,3.4,3.3,4.6c4,3.2,9.8,1.8,14.9,0.8c5-0.9,11.5-0.6,13.6,4.1"/>
			<path id="XMLID_18_" class="st0" d="M480,92.7c3.4,0.9,7.5-2.6,9.5-5.5s2.3-6.8,1.2-10.1c-1.3-3.7-4.1-6.9-3.9-10.8
				c0.2-3.4,2.7-7.6,0.1-9.8c-0.8-0.7-1.8-0.9-2.8-0.9c-6.1-0.2-11.5,6.7-17.3,4.7c-2.6-0.9-4.3-3.4-6.4-5.3
				c-3.2-2.8-7.7-4-11.8-2.9s-7.3,4.9-7.5,9.2c-0.1,1.7,0.3,3.4-0.4,5c-1.5,3.2-6,2.9-9.2,4.1c-4.4,1.6-7.1,7-5.6,11.5
				s6.9,7.2,11.4,5.8c6.2-1.9,9.6-10.1,16.1-10.5c3.3-0.2,6.3,1.8,8.6,4.1c2.4,2.3,4.4,4.9,7.1,6.8C472.3,90.1,476,92.3,480,92.7"/>
			<path id="XMLID_17_" class="st0" d="M469.8,130.6c-0.4,1.6-3,0.7-3.8-0.7c-2.6-4.4-1.4-9.9-0.6-15c0.7-5.1,0.2-11.3-4.3-13.8
				c-2.1-1.2-5.2-1.7-5.5-4.1c-0.1-0.7,0.1-1.4,0.1-2.1c0-3.6-5-5.5-8.2-3.9c-3.3,1.6-5.1,5.1-6.6,8.4s-3.2,6.8-6.4,8.5
				c-4,2.1-8.8,0.7-13.3-0.1c-1.6-0.3-3.3-0.6-4.8,0c-4.1,1.4-4.8,7.2-3.1,11.2c2.7,6.6,9.8,11.1,16.9,10.7c3.4-0.2,7.6-1,9.5,1.7
				c0.4,0.6,0.7,1.4,1.1,2c1.4,2,4.6,2.4,6.4,0.8c2.3-2.1,2.1-6.3,4.8-7.8c2.3-1.2,5.3,0.5,6.4,2.9c1.2,2.4,1.2,5.1,1.6,7.7
				c0.4,2.6,1.5,5.4,4,6.4c1.5,0.7,3.3,0.5,4.8-0.2C473.7,141.3,472.7,122.5,469.8,130.6"/>
			<path id="XMLID_16_" class="st0" d="M532.7,154.9c0.8,1.9-1,3.9-2.9,4.8c-6.3,3.1-15-0.3-17.5-6.9c-0.5-1.2-0.8-2.6-1.6-3.5
				c-2.7-3-7.4-0.4-10.9,1.6c-8.9,5.2-19.7,5.7-30,6.1c-2.8,0.1-5.6,0.2-8.3-0.7c-1.9-0.6-3.8-1.8-5.8-1.7c-3.2,0.1-5.5,3.4-6.1,6.6
				c-1.4,7.9,6.3,16,14.3,15.2c5.3-0.6,10.6-4.3,15.5-2.2c5.6,2.5,5.6,10.5,3.5,16.2c-0.7,1.9-1.5,3.8-1.4,5.9
				c0.3,5.2,8.5,7.7,11.6,3.5c3.1-4.1,0.4-10.1,1.6-15c1.7-6.7,11.9-9.3,16.5-4.1c1.6,1.8,2.5,4.1,4.1,5.8c2.8,2.8,7.6,3.2,10.7,0.9
				c2.9-2.1,4.5-6,7.9-7.1c4.3-1.3,10.3,2.1,12.6-1.7c0.5-0.8,0.7-1.8,0.8-2.7c0.5-3.7,0.7-7.5,0.7-11.2c0-3.5-0.2-7.2-1.9-10.3
				s-5.1-5.5-8.6-4.9s-6,5.1-3.9,8"/>
			<path id="XMLID_15_" class="st0" d="M497.1,93.7c1,1.2-2.1,5.4-3.6,5.4c-3.7,0.2-7.5-0.2-11,0.8c-3.6,1-6.9,4.1-6.7,7.7
				c0.2,3.3,3.2,5.7,5.3,8.4c3.9,5.1,4.5,12.6,1.5,18.3c1.6,3.7,5.5,6.3,9.5,6.4s8-2.3,9.8-5.9c1.2-2.5,1.7-5.7,4.2-6.9
				c3.3-1.6,6.8,1.8,8.1,5.2c1.3,3.4,2,7.4,5,9.4c2.7,1.9,6.4,1.4,9.4,0.1c4.5-1.9,8.3-5.6,9.7-10.3s0.2-10.2-3.5-13.4
				c-1-0.8-2.1-1.5-2.6-2.7c-0.4-0.8-0.4-1.7-0.3-2.6c0.3-4.1,2.5-8,5.9-10.4c2.3-1.6,5.3-2.6,6.6-5.2c2.1-4.1-1.7-8.8-5.6-11.3
				c-5.7-3.5-14-4.9-18.4,0.1c-2.7,3-4.1,8.3-8.2,8.3c-2.9-0.1-4.6-3-6.2-5.4s-4.4-4.8-6.9-3.6C496.6,87.6,495.8,92.6,497.1,93.7"/>
		</g>
	</g>
	<g id="Calque_7_-_copie">
		<g id="Calque_4_-_copie_3_2_">
			<path id="XMLID_34_" class="st0" d="M596.6,2.9c3.9,0.8,6.2-4.5,5.8-8.5s-1.6-8.6,1.1-11.5c0.7-0.7,1.5-1.2,2.1-2
				c1.4-2,0.4-4.8-1.3-6.5s-4-2.6-6-3.9c-5.7-3.7-8.9-11-7.8-17.7c0.3-1.7,0.8-3.4,0.4-5.1c-0.8-2.9-4.1-4.3-7-5
				c-4.4-1-9.2-1.5-13.4,0.1s-7.7,5.8-7.3,10.4c0.5,5.4,6.3,9.9,4.9,15.1c-1,3.8-5.3,5.6-8.1,8.4c-4.4,4.3-4.7,12.7,0.4,16
				c5.5,3.5,13.6-0.3,19,3.3c3.7,2.5,4.8,7.7,3.5,11.9s-4.5,7.6-7.9,10.5c-1.6,1.3-3.2,2.6-4.3,4.3c-3.2,4.8-0.7,11.9,4.3,14.7
				c5,2.8,11.5,1.8,16.3-1.4c1.6-1.1,3-2.4,3.9-4.1c2.3-4.6-0.2-10-2.1-14.7c-1.9-4.8-2.8-11.2,1.4-14.2"/>
			<path id="XMLID_33_" class="st0" d="M637.8,11.8c0.3-3.5-4-6.8-7.3-8.2c-3.2-1.4-7.1-0.9-10.2,0.8c-3.3,1.9-6,5.4-9.8,5.9
				c-3.4,0.5-8-1.2-9.7,1.8c-0.5,0.9-0.5,2-0.4,3c1,6,8.8,10,8,16.1c-0.4,2.8-2.5,4.9-3.9,7.3c-2.1,3.7-2.5,8.4-0.5,12.1
				c1.9,3.7,6.3,6.2,10.4,5.6c1.7-0.2,3.3-0.9,5-0.6c3.4,0.8,4,5.3,5.8,8.3c2.4,4,8.3,5.6,12.4,3.2c4.1-2.3,5.8-8.1,3.5-12.3
				C638,49,629.3,47.3,627.7,41c-0.8-3.2,0.5-6.5,2.3-9.2s4-5.2,5.3-8.3C636.8,20,638.2,15.8,637.8,11.8"/>
			<path id="XMLID_32_" class="st0" d="M677,14.5c1.7,0,1.3,2.8,0.1,3.9c-3.8,3.4-9.5,3.3-14.6,3.5c-5.1,0.3-11.1,2-12.7,6.9
				c-0.7,2.3-0.7,5.4-3,6.2c-0.6,0.2-1.4,0.2-2,0.3c-3.6,0.7-4.4,5.9-2.2,8.8c2.2,2.9,6,4,9.5,4.8c3.5,0.9,7.3,1.8,9.6,4.6
				c2.9,3.5,2.4,8.5,2.5,13.1c0,1.6,0.1,3.3,0.9,4.8c2.2,3.8,8,3.3,11.6,0.9c5.9-3.9,9-11.8,7.2-18.7c-0.8-3.3-2.5-7.2-0.1-9.7
				c0.5-0.6,1.2-0.9,1.7-1.5c1.7-1.7,1.5-5-0.5-6.5c-2.5-1.9-6.6-0.8-8.6-3.2c-1.7-2-0.5-5.3,1.6-6.9s4.8-2.1,7.2-3.1
				c2.5-0.9,5-2.6,5.5-5.1c0.4-1.6-0.2-3.3-1.1-4.7C686.7,8.6,668.5,13.2,677,14.5"/>
			<path id="XMLID_31_" class="st0" d="M688.6-51.9c1.7-1.1,4,0.2,5.3,1.9c4.3,5.6,2.6,14.8-3.4,18.5c-1.1,0.7-2.4,1.2-3.2,2.3
				c-2.4,3.2,1,7.4,3.7,10.4c6.9,7.7,9.4,18.2,11.8,28.2c0.6,2.7,1.3,5.5,0.9,8.3c-0.3,2-1,4.1-0.6,6c0.7,3.2,4.4,4.8,7.7,4.7
				c8-0.2,14.5-9.3,12.1-16.9c-1.6-5.1-6.3-9.6-5.2-14.7c1.3-6,9.2-7.5,15.3-6.6c2,0.3,4.1,0.8,6,0.3c5.1-1.3,5.9-9.8,1.1-12.1
				c-4.6-2.2-9.9,1.6-15.1,1.4c-6.9-0.3-11.4-9.9-7.2-15.4c1.4-1.9,3.5-3.2,4.9-5.2c2.2-3.2,1.6-8-1.2-10.7
				c-2.6-2.5-6.8-3.2-8.5-6.4c-2.1-3.9,0-10.5-4.1-12.1c-0.9-0.3-1.9-0.3-2.8-0.2c-3.7,0.3-7.5,0.7-11.2,1.5c-3.5,0.7-7,1.6-9.7,3.9
				c-2.7,2.2-4.4,6.1-3.1,9.4c1.3,3.3,6.2,4.8,8.6,2.3"/>
			<path id="XMLID_30_" class="st0" d="M635.5-5.1c1-1.2,5.7,1,6,2.5c0.9,3.6,1.2,7.4,2.9,10.7s5.3,6,8.9,5c3.2-0.9,5-4.3,7.2-6.8
				c4.3-4.9,11.5-6.9,17.7-5c3.3-2.3,5.1-6.6,4.4-10.6s-3.8-7.4-7.7-8.5c-2.7-0.7-6-0.6-7.6-2.8c-2.2-2.9,0.5-7,3.5-9
				s6.8-3.4,8.3-6.7c1.3-3,0.1-6.5-1.7-9.2c-2.7-4-7.1-7.1-12-7.6c-4.8-0.5-10,1.8-12.4,6c-0.6,1.1-1.1,2.3-2.1,3.1
				c-0.7,0.5-1.6,0.7-2.5,0.8c-4.1,0.5-8.4-0.9-11.3-3.8c-2-2-3.6-4.7-6.3-5.5c-4.5-1.3-8.4,3.4-10,7.7c-2.3,6.3-2.1,14.7,3.6,18
				c3.5,2,9,2.4,9.7,6.4c0.5,2.8-2,5.1-4.1,7.1c-2,2-3.9,5.2-2.1,7.5C629.6-3.4,634.6-3.6,635.5-5.1"/>
		</g>
		<g id="Calque_4_-_copie_3_1_">
			<path id="XMLID_35_" class="st0" d="M549.5-156.2c3.8-1.1,3.3-6.9,1.1-10.2s-5.5-6.8-4.4-10.7c0.3-0.9,0.8-1.8,0.9-2.8
				c0.3-2.4-1.9-4.4-4.2-5.1c-2.3-0.7-4.8-0.4-7.2-0.6c-6.8-0.6-13-5.5-15.2-12c-0.5-1.6-0.9-3.4-2.1-4.7c-2.1-2.2-5.6-1.9-8.6-1.1
				c-4.4,1.2-8.8,3-11.8,6.4s-4.1,8.8-1.5,12.5c3,4.5,10.2,5.8,11.4,11c0.9,3.8-2,7.4-3.2,11.2c-1.9,5.9,1.8,13.5,7.9,13.9
				c6.5,0.5,11.8-6.6,18.4-6c4.4,0.4,7.8,4.6,8.7,8.9c0.8,4.4-0.4,8.9-2.1,13c-0.8,1.9-1.6,3.8-1.8,5.8c-0.5,5.7,5,10.8,10.7,11
				c5.7,0.1,11-3.8,13.7-8.9c0.9-1.7,1.5-3.5,1.5-5.4c-0.1-5.1-4.8-8.7-8.7-12s-7.7-8.6-5.4-13.2"/>
			<path id="XMLID_29_" class="st0" d="M622.1-161.7c3.4-1,5-6.1,5.2-9.6s-1.5-7-4.2-9.3c-3-2.5-7.1-3.8-8.9-7.2
				c-1.6-3.1-1.6-7.9-5-8.5c-1-0.2-2,0.2-2.9,0.7c-5.3,3-6.4,11.7-12.4,13c-2.7,0.6-5.5-0.7-8.2-1.2c-4.2-0.7-8.7,0.6-11.6,3.7
				s-3.7,8-1.7,11.7c0.8,1.5,2,2.8,2.2,4.5c0.4,3.5-3.6,5.6-5.8,8.3c-3,3.7-2.4,9.7,1.2,12.7c3.6,3.1,9.6,2.6,12.7-0.9
				c4.3-4.9,3-13.6,8.4-17.3c2.7-1.8,6.3-1.7,9.5-1s6.3,2,9.6,2.1C614.1-159.9,618.4-160,622.1-161.7"/>
			<path id="XMLID_28_" class="st0" d="M559.1-71.5c-0.4,1.6-3,0.7-3.8-0.7c-2.6-4.4-1.3-9.9-0.6-15s0.3-11.3-4.2-13.8
				c-2.1-1.2-5.2-1.8-5.5-4.1c-0.1-0.7,0.1-1.4,0.1-2c0-3.6-4.9-5.5-8.2-4c-3.3,1.6-5.1,5.1-6.6,8.3c-1.5,3.3-3.3,6.8-6.5,8.5
				c-4,2.1-8.8,0.7-13.3-0.2c-1.6-0.3-3.3-0.6-4.8-0.1c-4.1,1.4-4.8,7.2-3.2,11.2c2.7,6.6,9.8,11.1,16.9,10.8c3.4-0.2,7.6-1,9.5,1.8
				c0.4,0.6,0.7,1.4,1.1,2c1.4,2,4.6,2.4,6.4,0.8c2.3-2.1,2.1-6.3,4.9-7.8c2.3-1.2,5.3,0.6,6.4,2.9s1.1,5.1,1.6,7.7s1.5,5.4,3.9,6.5
				c1.5,0.7,3.3,0.5,4.8-0.1C562.9-60.8,562.1-79.5,559.1-71.5"/>
			<path id="XMLID_27_" class="st0" d="M669.1-124.2c1.7,1.2,1.1,3.9,0,5.6c-3.8,5.9-13,7.5-18.6,3.1c-1-0.8-2-1.8-3.2-2.2
				c-3.8-1.2-6.6,3.5-8.5,7c-4.9,9.1-13.9,15.1-22.5,20.7c-2.3,1.5-4.7,3.1-7.4,3.7c-2,0.4-4.2,0.4-5.9,1.5c-2.7,1.8-3,5.8-1.8,8.8
				c2.9,7.5,13.7,10.5,20.1,5.6c4.2-3.2,6.8-9.2,12.1-9.9c6.1-0.8,10.2,6.1,11.4,12.1c0.4,2,0.7,4.1,1.8,5.8c3,4.3,11.2,2.2,11.7-3
				c0.5-5.1-4.9-8.8-6.4-13.7c-2.1-6.6,5.4-14.1,12-12c2.3,0.7,4.2,2.2,6.5,2.8c3.8,0.9,8.1-1.2,9.6-4.8c1.4-3.3,0.7-7.5,3.1-10.2
				c3-3.3,9.9-3.6,9.9-8c0-1-0.4-1.9-0.8-2.7c-1.5-3.4-3.3-6.8-5.2-10c-1.8-3-3.9-6-7-7.8c-3-1.8-7.3-2-9.9,0.3
				c-2.6,2.3-2.4,7.5,0.8,8.8"/>
			<path id="XMLID_26_" class="st0" d="M571.9-124.9c1.5,0.5,1,5.7-0.3,6.5c-3,2.1-6.5,3.7-9,6.4s-3.8,7.1-1.7,10.1
				c1.9,2.7,5.7,3.2,8.8,4.4c6,2.4,10.4,8.5,10.8,14.9c3.3,2.3,7.9,2.5,11.4,0.5s5.6-6.1,5.3-10.1c-0.2-2.8-1.5-5.8,0-8.1
				c2-3,6.8-2,9.7,0.2s5.5,5.3,9.2,5.5c3.3,0.2,6.2-2.1,8.1-4.8c2.8-4,4.2-9.1,3-13.8s-5.1-8.8-9.9-9.6c-1.2-0.2-2.6-0.2-3.6-0.9
				c-0.7-0.5-1.2-1.2-1.6-2c-1.9-3.7-2-8.2-0.3-11.9c1.2-2.6,3.2-5,3-7.8c-0.3-4.6-6-6.7-10.7-6.7c-6.7,0-14.5,3-15.7,9.6
				c-0.7,4,0.8,9.3-2.7,11.3c-2.5,1.4-5.5-0.1-8.1-1.4c-2.6-1.2-6.3-1.9-7.8,0.5C568.2-129.8,570.1-125.2,571.9-124.9"/>
		</g>
		<g id="Calque_4_-_copie_3">
			<path id="XMLID_24_" class="st0" d="M370-80.2c-3.5,1.8-1.9,7.4,0.9,10.2s6.7,5.6,6.4,9.6c-0.1,1-0.4,1.9-0.3,2.9
				c0.2,2.4,2.7,4,5.1,4.2s4.8-0.5,7.1-0.8c6.8-0.8,13.9,2.8,17.3,8.8c0.9,1.5,1.5,3.2,2.9,4.2c2.5,1.8,5.9,0.7,8.6-0.6
				c4.1-2,8-4.6,10.3-8.6c2.2-3.9,2.3-9.4-0.9-12.6c-3.8-3.8-11.1-3.7-13.4-8.6c-1.6-3.6,0.5-7.7,0.9-11.6
				c0.7-6.1-4.4-12.9-10.5-12.1c-6.5,0.8-10.3,8.8-16.8,9.5c-4.4,0.5-8.6-2.9-10.2-7.1c-1.7-4.1-1.3-8.8-0.5-13.1
				c0.4-2,0.9-4,0.6-6.1c-0.6-5.7-7-9.7-12.6-8.7s-10.1,5.9-11.7,11.4c-0.5,1.8-0.8,3.8-0.4,5.6c1.1,5,6.4,7.6,10.9,10.1
				s9.3,6.9,7.9,11.8"/>
			<path id="XMLID_23_" class="st0" d="M440.6-22.1c-3.5-0.4-7,3.7-8.6,6.8c-1.6,3.2-1.3,7,0.3,10.2c1.8,3.4,5.1,6.3,5.4,10.1
				c0.3,3.4-1.6,7.9,1.3,9.7c0.9,0.5,1.9,0.6,2.9,0.5c6.1-0.7,10.4-8.3,16.4-7.1c2.7,0.5,4.8,2.8,7.1,4.3c3.5,2.3,8.2,2.9,12.1,1.1
				c3.8-1.7,6.5-5.9,6.1-10.1c-0.2-1.7-0.8-3.4-0.3-5c1-3.3,5.5-3.7,8.6-5.4c4.2-2.2,6-8,3.9-12.2s-7.8-6.2-12.1-4.1
				c-5.9,2.8-8.1,11.4-14.5,12.7c-3.2,0.6-6.5-0.9-9.1-2.8s-5-4.3-8-5.7C448.6-20.7,444.6-22.3,440.6-22.1"/>
			<path id="XMLID_22_" class="st0" d="M500.4-39.4c0.1-1.7,2.8-1.2,3.9,0.1c3.2,4,2.8,9.6,2.8,14.7s1.4,11.2,6.2,13
				c2.2,0.9,5.4,1,6.1,3.3c0.2,0.7,0.1,1.4,0.2,2c0.5,3.6,5.7,4.7,8.7,2.7s4.3-5.8,5.3-9.2c1-3.5,2.2-7.2,5.1-9.4
				c3.6-2.7,8.6-2,13.2-1.8c1.6,0.1,3.3,0.1,4.8-0.7c3.9-2,3.7-7.8,1.5-11.6c-3.6-6.1-11.3-9.6-18.3-8.2c-3.3,0.7-7.3,2.1-9.7-0.3
				c-0.5-0.5-0.9-1.2-1.4-1.8c-1.6-1.8-4.9-1.7-6.5,0.2c-2,2.4-1.1,6.6-3.6,8.4c-2.1,1.6-5.3,0.2-6.8-1.9c-1.5-2.2-1.9-4.9-2.7-7.4
				s-2.3-5.1-4.8-5.8c-1.6-0.4-3.3,0-4.8,0.9C495-49.3,498.7-30.9,500.4-39.4"/>
			<path id="XMLID_21_" class="st0" d="M438.4-100.8c-1.1-1.8,0.5-4,2.2-5.2c5.8-4,14.9-1.8,18.3,4.3c0.6,1.1,1.1,2.4,2.1,3.3
				c3.1,2.6,7.4-0.7,10.5-3.2c8-6.5,18.7-8.5,28.8-10.3c2.7-0.5,5.6-1,8.3-0.5c2,0.4,4,1.2,6,0.9c3.2-0.6,5-4.2,5.1-7.4
				c0.2-8-8.5-15-16.3-12.9c-5.1,1.3-9.9,5.8-15,4.4c-5.9-1.6-7-9.6-5.8-15.6c0.4-2,1-4,0.6-6c-1-5.2-9.5-6.4-12-1.8
				c-2.4,4.5,1.1,10,0.6,15.1c-0.7,6.9-10.4,10.9-15.7,6.4c-1.8-1.5-3-3.7-4.9-5.1c-3.1-2.3-7.9-2.1-10.8,0.7
				c-2.6,2.5-3.6,6.6-6.8,8.2c-4,1.9-10.5-0.6-12.3,3.5c-0.4,0.9-0.4,1.9-0.4,2.8c0.1,3.8,0.4,7.5,0.9,11.2c0.5,3.5,1.2,7.1,3.3,9.9
				c2.1,2.8,5.9,4.7,9.2,3.6c3.3-1.1,5.2-5.9,2.7-8.5"/>
			<path id="XMLID_20_" class="st0" d="M482.4-45.4c-1.1-1.1,1.3-5.6,2.8-5.9c3.6-0.7,7.4-0.9,10.8-2.4s6.3-5,5.5-8.6
				c-0.7-3.3-4-5.2-6.4-7.5c-4.6-4.5-6.3-11.8-4.1-17.9c-2.1-3.4-6.3-5.4-10.3-4.9s-7.6,3.4-8.8,7.3c-0.9,2.6-0.9,5.9-3.2,7.5
				c-3,2-7-0.8-8.8-4c-1.8-3.1-3-7-6.3-8.6c-2.9-1.4-6.5-0.5-9.3,1.2c-4.2,2.5-7.4,6.8-8.2,11.6c-0.8,4.8,1.3,10.1,5.4,12.7
				c1.1,0.7,2.3,1.2,3,2.3c0.5,0.7,0.6,1.6,0.7,2.5c0.3,4.1-1.3,8.3-4.3,11.1c-2.1,1.9-4.9,3.4-5.8,6.1c-1.5,4.4,2.9,8.5,7.2,10.3
				c6.1,2.6,14.5,2.9,18.2-2.7c2.2-3.4,2.9-8.9,6.9-9.3c2.8-0.3,5,2.3,6.9,4.4s5,4.2,7.4,2.5C483.9-39.3,483.9-44.4,482.4-45.4"/>
		</g>
	</g>
	<g id="Calque_7_-_copie_2">
		<g id="Calque_4_-_copie_4_2_">
			<path id="XMLID_54_" class="st0" d="M528.8,259.4c-2.2,3.3,2,7.4,5.8,8.4c3.8,1.1,8.6,1.6,10.3,5.1c0.4,0.9,0.6,1.9,1.2,2.7
				c1.3,2,4.3,2.1,6.5,1.1s3.9-2.8,5.8-4.2c5.5-4,13.4-4.4,19.3-1c1.5,0.9,2.9,2,4.6,2.2c3,0.3,5.5-2.3,7.2-4.8
				c2.5-3.7,4.7-8,4.7-12.5c0-4.5-2.7-9.3-7.1-10.5c-5.2-1.4-11.5,2.3-15.9-0.8c-3.2-2.3-3.4-6.9-4.9-10.6c-2.4-5.7-10.2-9-15.1-5.3
				c-5.2,3.9-4.6,12.8-9.9,16.6c-3.6,2.6-8.9,1.7-12.4-1c-3.5-2.8-5.5-7-7-11.2c-0.7-1.9-1.3-3.9-2.4-5.6
				c-3.3-4.7-10.9-4.9-15.3-1.3s-5.8,10.1-4.5,15.7c0.4,1.8,1.2,3.7,2.4,5.1c3.4,3.8,9.4,3.4,14.5,3.3s11.5,1.4,12.7,6.4"/>
			<path id="XMLID_52_" class="st0" d="M505.8,294.7c3.2,1.5,7.8-1.3,10.3-3.8s3.4-6.3,2.9-9.8c-0.6-3.8-2.9-7.5-2-11.3
				c0.8-3.4,4-7,1.8-9.7c-0.6-0.8-1.6-1.2-2.6-1.4c-6-1.2-12.5,4.7-17.8,1.7c-2.4-1.3-3.7-4.1-5.4-6.3c-2.7-3.3-6.9-5.3-11.1-4.8
				s-8.1,3.6-9,7.7c-0.4,1.6-0.3,3.4-1.3,4.8c-2,2.9-6.4,1.8-9.8,2.4c-4.6,0.8-8.2,5.7-7.4,10.4c0.7,4.7,5.5,8.3,10.2,7.7
				c6.5-0.8,11.2-8.4,17.7-7.6c3.2,0.4,5.9,2.8,7.8,5.5c1.9,2.6,3.5,5.6,5.8,7.9C498.6,290.9,501.9,293.6,505.8,294.7"/>
			<path id="XMLID_51_" class="st0" d="M544.4,220.3c-0.4,1.2-2.4,0.3-2.9-0.8c-1.7-3.6-0.3-7.9,0.7-11.7s1.1-8.8-2.2-11.1
				c-1.5-1.1-3.9-1.8-4-3.6c0-0.5,0.2-1.1,0.2-1.6c0.3-2.8-3.4-4.7-6.1-3.7s-4.4,3.6-5.8,6c-1.5,2.4-3.1,5.1-5.7,6.1
				c-3.3,1.4-7-0.1-10.3-1.2c-1.2-0.4-2.5-0.7-3.8-0.4c-3.3,0.8-4.3,5.2-3.3,8.5c1.6,5.4,6.8,9.4,12.4,9.7c2.7,0.1,6-0.2,7.3,2.1
				c0.3,0.5,0.4,1.1,0.7,1.6c0.9,1.7,3.4,2.3,5,1.1c2-1.4,2.1-4.8,4.4-5.7c1.9-0.8,4.1,0.8,4.8,2.8c0.7,1.9,0.5,4.1,0.6,6.1
				c0.1,2.1,0.8,4.3,2.6,5.3c1.1,0.6,2.5,0.6,3.8,0.3C546.5,228.9,547.3,214.2,544.4,220.3"/>
			<path id="XMLID_50_" class="st0" d="M326.7,212.4c0.5,2-1.7,3.7-3.7,4.2c-6.8,2-14.7-2.9-16.1-9.8c-0.3-1.3-0.3-2.7-1-3.8
				c-2.1-3.4-7.3-1.7-11-0.3c-9.6,3.7-20.4,2.3-30.6,0.9c-2.8-0.4-5.6-0.8-8-2.1c-1.8-1-3.4-2.4-5.4-2.7c-3.2-0.4-6,2.4-7.1,5.5
				c-2.7,7.6,3.5,16.9,11.5,17.4c5.3,0.3,11.2-2.5,15.6,0.5c5.1,3.4,3.7,11.3,0.7,16.6c-1,1.8-2.2,3.5-2.4,5.6
				c-0.6,5.2,7.1,9,10.9,5.4c3.7-3.5,2.1-9.9,4.1-14.6c2.8-6.4,13.3-7.1,16.9-1.2c1.2,2,1.7,4.4,3.1,6.4c2.2,3.2,6.9,4.4,10.4,2.7
				c3.2-1.6,5.5-5.2,9-5.7c4.4-0.6,9.8,3.8,12.7,0.5c0.6-0.7,0.9-1.7,1.2-2.6c1.1-3.6,2-7.2,2.6-10.9c0.6-3.5,1-7.1-0.1-10.5
				c-1.1-3.3-4.1-6.3-7.7-6.3c-3.5,0-6.7,4-5.2,7.2"/>
			<path id="XMLID_41_" class="st0" d="M375.7,231.3c0.8,1.4-3,4.9-4.5,4.7c-3.7-0.4-7.3-1.5-11-1.1s-7.5,2.8-7.9,6.5
				c-0.3,3.3,2.2,6.2,3.8,9.1c3,5.7,2.3,13.2-1.7,18.3c1,3.9,4.4,7.1,8.3,7.9c4,0.8,8.3-0.9,10.7-4.2c1.6-2.2,2.7-5.4,5.4-6.1
				c3.5-1,6.4,2.9,7.2,6.5c0.8,3.5,0.7,7.6,3.3,10.1c2.3,2.3,6,2.5,9.2,1.7c4.7-1.1,9.1-4.1,11.3-8.5c2.2-4.3,1.9-10-1.2-13.8
				c-0.8-1-1.8-1.9-2.1-3.1c-0.2-0.8-0.1-1.7,0.1-2.6c1-4,3.8-7.5,7.6-9.2c2.6-1.2,5.7-1.7,7.4-4c2.8-3.7-0.2-9-3.6-12.1
				c-5-4.4-12.9-7.2-18.1-3.1c-3.2,2.5-5.5,7.5-9.5,6.7c-2.8-0.5-4.1-3.7-5.2-6.3s-3.5-5.5-6.2-4.7
				C376.2,225.1,374.6,229.9,375.7,231.3"/>
		</g>
		<g id="Calque_4_-_copie_4_1_">
			<path id="XMLID_65_" class="st0" d="M694.3,272.4c-0.3,4,5.2,5.6,9.1,4.7c3.9-0.9,8.3-2.7,11.5-0.3c0.8,0.6,1.4,1.4,2.3,1.8
				c2.1,1.1,4.8-0.2,6.3-2.1c1.5-1.9,2.1-4.3,3.1-6.5c3-6.1,9.8-10.2,16.6-9.9c1.7,0.1,3.5,0.4,5.1-0.3c2.8-1.1,3.8-4.6,4.1-7.6
				c0.5-4.5,0.4-9.3-1.8-13.3c-2.1-4-6.7-6.9-11.2-5.9c-5.3,1.2-9,7.4-14.4,6.7c-3.9-0.5-6.2-4.5-9.3-7c-4.8-3.9-13.2-3.1-15.9,2.4
				c-2.8,5.9,1.9,13.4-1,19.3c-2,4-7.1,5.7-11.4,4.9c-4.3-0.8-8.1-3.5-11.4-6.6c-1.5-1.4-2.9-2.9-4.8-3.8c-5.1-2.5-11.9,0.7-14.1,6
				c-2.2,5.3-0.4,11.7,3.4,16c1.3,1.4,2.7,2.7,4.5,3.3c4.8,1.8,9.9-1.4,14.4-3.9s10.8-4.2,14.2-0.4"/>
			<path id="XMLID_56_" class="st0" d="M294.4-88.5c-3.3,2.2-1.1,7.5,1.9,10c3.1,2.5,7.2,4.9,7.4,8.9c0,1-0.2,2,0,2.9
				c0.4,2.4,3.1,3.7,5.5,3.7s4.7-1,7-1.5c6.7-1.4,14.1,1.4,18.1,6.9c1,1.4,1.9,3,3.3,3.8c2.6,1.5,5.9,0.1,8.5-1.5
				c3.8-2.4,7.5-5.4,9.3-9.6c1.8-4.1,1.3-9.6-2.2-12.4c-4.2-3.4-11.4-2.5-14.2-7.2c-2-3.4-0.3-7.7-0.3-11.6
				c0.1-6.2-5.7-12.3-11.7-11c-6.4,1.5-9.4,9.8-15.8,11.2c-4.4,0.9-8.8-2-10.9-6c-2.1-3.9-2.2-8.6-1.9-13c0.2-2,0.4-4.1,0-6.1
				c-1.2-5.6-7.9-8.9-13.5-7.3c-5.5,1.6-9.4,6.9-10.4,12.5c-0.3,1.9-0.4,3.8,0.2,5.6c1.6,4.9,7.2,6.9,11.9,8.9c4.7,2,9.9,5.9,9.1,11
				"/>
			<path id="XMLID_64_" class="st0" d="M605.6,101.3c3.3,1.2,7.6-2,9.9-4.7c2.3-2.7,2.9-6.6,2-10c-0.9-3.7-3.5-7.3-3-11.1
				c0.5-3.4,3.3-7.3,0.9-9.8c-0.7-0.7-1.7-1.1-2.7-1.2c-6.1-0.7-12,5.7-17.6,3.3c-2.6-1.1-4-3.8-6-5.8c-2.9-3-7.4-4.7-11.5-3.8
				s-7.7,4.3-8.3,8.5c-0.2,1.7,0,3.5-0.8,4.9c-1.7,3-6.2,2.4-9.5,3.3c-4.6,1.2-7.6,6.4-6.5,11s6.2,7.8,10.8,6.8
				c6.4-1.4,10.4-9.3,17-9.1c3.3,0.1,6.1,2.3,8.3,4.8s3.9,5.3,6.5,7.3C598.1,98.1,601.6,100.6,605.6,101.3"/>
			<path id="XMLID_63_" class="st0" d="M611.7,251c-1.4-0.9,0.4-3,2-3.3c5-0.9,9.7,2.3,14.2,4.8s10.4,4.3,14.4,1
				c1.8-1.5,3.5-4.2,5.8-3.7c0.7,0.2,1.2,0.6,1.9,0.8c3.4,1.3,6.9-2.6,6.6-6.2c-0.3-3.6-2.9-6.6-5.4-9.2s-5.2-5.5-5.6-9.1
				c-0.6-4.5,2.5-8.5,4.9-12.3c0.9-1.4,1.7-2.9,1.8-4.5c0.2-4.4-5-7.1-9.3-7c-7.1,0.1-13.9,5.1-16.1,11.9c-1.1,3.2-1.8,7.4-5.1,8.3
				c-0.7,0.2-1.5,0.2-2.2,0.3c-2.4,0.5-3.9,3.4-3.1,5.7c1.1,2.9,5.1,4.2,5.5,7.3c0.3,2.6-2.4,4.7-5,5c-2.6,0.2-5.2-0.8-7.7-1.3
				c-2.6-0.5-5.6-0.5-7.4,1.4c-1.2,1.2-1.7,2.9-1.6,4.6C600.4,250.8,618.2,256.7,611.7,251"/>
			<path id="XMLID_59_" class="st0" d="M245.4-78.6c-1.5,0.7-2.3-2-1.7-3.5c2-4.7,7.2-7,11.7-9.4s9.2-6.5,8.6-11.6
				c-0.3-2.4-1.7-5.2,0.1-6.9c0.5-0.5,1.1-0.7,1.7-1.1c2.9-2.1,1.5-7.2-1.7-9c-3.2-1.7-7.1-1.1-10.6-0.4c-3.6,0.7-7.4,1.4-10.7-0.1
				c-4.1-2-5.8-6.7-7.7-10.8c-0.7-1.5-1.5-3-2.8-3.9c-3.6-2.5-8.6,0.4-10.9,4.1c-3.7,6.1-3.1,14.5,1.3,20c2.1,2.6,5.3,5.5,4.2,8.7
				c-0.2,0.7-0.7,1.4-0.9,2.1c-0.8,2.3,0.8,5.2,3.2,5.7c3,0.6,6.3-2.1,9.1-0.7c2.4,1.1,2.7,4.6,1.5,6.9s-3.4,3.9-5.3,5.8
				c-1.8,1.9-3.4,4.4-2.9,7c0.4,1.6,1.6,3,3,3.8C239.1-69.2,253.7-81.1,245.4-78.6"/>
			<path id="XMLID_62_" class="st0" d="M253.2,178.3c-2.1,0.2-3.4-2.1-3.8-4.1c-1.1-7,4.6-14.2,11.7-14.7c1.3-0.1,2.7,0,3.9-0.5
				c3.6-1.7,2.5-7,1.6-10.9c-2.5-10,0.2-20.5,2.8-30.5c0.7-2.7,1.5-5.5,3.1-7.7c1.2-1.7,2.8-3.1,3.3-5.1c0.8-3.1-1.7-6.3-4.6-7.7
				c-7.2-3.6-17.2,1.4-18.6,9.3c-1,5.2,1.1,11.4-2.4,15.4c-4,4.7-11.7,2.3-16.6-1.3c-1.6-1.2-3.2-2.6-5.2-3.1
				c-5.1-1.2-9.8,5.9-6.7,10.1c3.1,4.1,9.5,3.2,13.9,5.9c6,3.5,5.4,14-0.9,17c-2.1,1-4.6,1.2-6.7,2.3c-3.4,1.8-5.2,6.3-4,10
				c1.2,3.4,4.5,6,4.5,9.6c0,4.5-5,9.3-2,12.6c0.6,0.7,1.5,1.1,2.4,1.5c3.4,1.5,6.9,2.8,10.5,3.9c3.4,1,7,1.9,10.4,1.2
				c3.5-0.7,6.8-3.3,7.2-6.8s-3.2-7.2-6.5-6"/>
			<path id="XMLID_61_" class="st0" d="M291.8-67.5c-1,1.2-5.6-1.1-6-2.6c-0.9-3.6-1.1-7.4-2.7-10.7c-1.6-3.3-5.2-6.1-8.8-5.2
				c-3.3,0.8-5.1,4.2-7.3,6.7c-4.4,4.8-11.6,6.7-17.8,4.7c-3.3,2.3-5.2,6.5-4.6,10.5c0.6,4,3.7,7.5,7.6,8.6c2.7,0.8,6,0.7,7.6,2.9
				c2.1,2.9-0.6,7-3.7,8.9s-6.9,3.3-8.4,6.6c-1.3,3-0.2,6.5,1.6,9.2c2.7,4.1,7,7.2,11.9,7.8c4.8,0.6,10.1-1.6,12.5-5.8
				c0.6-1.1,1.1-2.3,2.1-3.1c0.7-0.5,1.6-0.7,2.5-0.8c4.1-0.5,8.4,1,11.3,4c2,2,3.5,4.8,6.2,5.6c4.4,1.4,8.4-3.2,10.1-7.6
				c2.4-6.2,2.4-14.6-3.3-18.1c-3.5-2.1-8.9-2.6-9.6-6.6c-0.4-2.8,2.1-5.1,4.2-7.1s4-5.2,2.3-7.5C297.8-69.2,292.7-69.1,291.8-67.5"
				/>
		</g>
		<g id="Calque_4_-_copie_4">
			<path id="XMLID_14_" class="st0" d="M687.5,77.5c-0.4-4-6.2-4.4-9.8-2.8s-7.6,4.2-11.3,2.6c-0.9-0.4-1.7-1.1-2.6-1.3
				c-2.3-0.7-4.7,1.1-5.8,3.3c-1.1,2.2-1.2,4.6-1.8,7c-1.7,6.6-7.6,11.9-14.4,13c-1.7,0.3-3.5,0.3-4.9,1.2c-2.5,1.7-2.8,5.2-2.5,8.3
				c0.4,4.5,1.5,9.2,4.3,12.7s8,5.5,12.1,3.6c4.9-2.2,7.4-9.1,12.8-9.4c3.9-0.3,7,3.2,10.5,5c5.5,2.8,13.6,0.5,15.1-5.5
				c1.6-6.3-4.5-12.8-2.8-19.1c1.2-4.3,5.8-7,10.3-7c4.4-0.1,8.7,1.9,12.5,4.2c1.7,1.1,3.5,2.2,5.4,2.8c5.5,1.5,11.5-3.1,12.6-8.7
				s-1.9-11.5-6.5-15c-1.5-1.1-3.2-2.1-5.1-2.4c-5.1-0.8-9.4,3.3-13.3,6.6c-3.9,3.3-9.7,6.2-13.9,3.2"/>
			<path id="XMLID_13_" class="st0" d="M608,122.7c1.7-3.1-0.9-7.9-3.3-10.5c-2.4-2.6-6.1-3.7-9.6-3.4c-3.8,0.4-7.7,2.5-11.4,1.4
				c-3.3-1-6.8-4.3-9.6-2.2c-0.8,0.6-1.3,1.6-1.5,2.6c-1.5,5.9,4,12.7,0.8,17.9c-1.5,2.4-4.3,3.5-6.5,5.1c-3.4,2.5-5.6,6.7-5.4,10.9
				c0.3,4.2,3.2,8.2,7.3,9.4c1.6,0.4,3.4,0.5,4.8,1.5c2.8,2.1,1.5,6.4,1.9,9.9c0.6,4.7,5.3,8.4,10,8c4.7-0.5,8.6-5.1,8.2-9.8
				c-0.5-6.5-7.8-11.6-6.7-18c0.5-3.2,3.1-5.7,5.8-7.5s5.8-3.2,8.1-5.4C603.8,129.7,606.8,126.5,608,122.7"/>
			<path id="XMLID_12_" class="st0" d="M602.7,184.7c1.5,0.7,0.1,3.1-1.5,3.6c-4.9,1.6-10-0.9-14.8-2.7s-10.9-2.7-14.4,1.1
				c-1.6,1.8-2.8,4.7-5.2,4.5c-0.7-0.1-1.3-0.4-2-0.5c-3.5-0.8-6.4,3.6-5.6,7.2c0.8,3.5,3.8,6.1,6.7,8.3s6,4.6,6.9,8.1
				c1.2,4.4-1.2,8.8-3,12.9c-0.7,1.5-1.3,3.1-1.1,4.7c0.4,4.3,6,6.3,10.3,5.5c7-1.2,13-7.2,14.2-14.2c0.6-3.3,0.7-7.6,3.8-8.9
				c0.7-0.3,1.5-0.4,2.2-0.7c2.3-0.9,3.4-4,2.2-6.1c-1.5-2.7-5.7-3.4-6.5-6.4c-0.7-2.5,1.7-5,4.2-5.7c2.6-0.6,5.2,0,7.8,0.1
				c2.6,0.2,5.6-0.3,7.1-2.4c1-1.3,1.2-3.1,0.9-4.8C614,183.2,595.5,180.1,602.7,184.7"/>
			<path id="XMLID_60_" class="st0" d="M265.8-264c1.6-0.3,1.9,2.4,0.9,3.8c-3,4.2-8.6,5.2-13.5,6.6c-4.9,1.4-10.4,4.3-10.9,9.4
				c-0.2,2.4,0.5,5.4-1.6,6.7c-0.5,0.4-1.2,0.5-1.9,0.8c-3.3,1.4-3,6.7-0.3,9.1c2.7,2.4,6.7,2.6,10.3,2.7c3.6,0.1,7.5,0.2,10.4,2.5
				c3.6,2.7,4.2,7.8,5.2,12.2c0.4,1.6,0.8,3.2,1.9,4.5c2.9,3.2,8.5,1.5,11.5-1.6c5-5.1,6.2-13.4,3.1-19.8c-1.5-3-4-6.5-2.2-9.4
				c0.4-0.6,1-1.2,1.4-1.8c1.3-2.2,0.4-5.3-1.9-6.4c-2.8-1.3-6.6,0.6-9.1-1.3c-2.1-1.6-1.6-5,0.1-7.1c1.7-2,4.2-3.1,6.4-4.5
				c2.2-1.4,4.3-3.6,4.3-6.2c0-1.7-0.9-3.2-2.1-4.4C274-271.7,257.2-263.4,265.8-264"/>
			<path id="XMLID_11_" class="st0" d="M682.2,148.8c2-0.4,3.6,1.9,4.1,3.9c1.6,6.9-3.6,14.5-10.6,15.5c-1.3,0.2-2.7,0.2-3.8,0.8
				c-3.5,1.9-2,7.2-0.8,11c3.2,9.8,1.3,20.5-0.7,30.6c-0.5,2.7-1.1,5.5-2.5,7.9c-1.1,1.7-2.6,3.3-3,5.3c-0.6,3.2,2.1,6.2,5.1,7.4
				c7.4,3.1,17-2.6,17.9-10.6c0.6-5.3-1.9-11.3,1.3-15.6c3.6-4.9,11.5-3.1,16.6,0.2c1.7,1.1,3.4,2.3,5.4,2.7
				c5.2,0.9,9.4-6.6,5.9-10.6c-3.4-3.9-9.7-2.6-14.3-4.9c-6.2-3.1-6.4-13.6-0.3-17c2.1-1.1,4.5-1.5,6.5-2.8
				c3.3-2.1,4.8-6.7,3.2-10.3c-1.4-3.3-4.9-5.7-5.2-9.3c-0.4-4.4,4.3-9.6,1.1-12.7c-0.7-0.7-1.6-1-2.5-1.4
				c-3.5-1.3-7.1-2.3-10.8-3.2c-3.4-0.8-7.1-1.4-10.5-0.4c-3.4,0.9-6.5,3.8-6.7,7.3s3.7,6.9,6.9,5.6"/>
			<path id="XMLID_88_" class="st0" d="M586.3-240.7c0.9,1.9-0.9,3.9-2.7,4.9c-6.2,3.3-15,0.2-17.7-6.4c-0.5-1.2-0.8-2.5-1.7-3.5
				c-2.8-2.9-7.4-0.2-10.8,2c-8.7,5.5-19.5,6.4-29.8,7.1c-2.8,0.2-5.6,0.4-8.3-0.4c-2-0.7-3.9-1.8-5.9-1.6c-3.2,0.2-5.4,3.6-5.9,6.8
				c-1.1,8,6.8,15.8,14.8,14.7c5.3-0.8,10.5-4.7,15.4-2.7c5.7,2.3,5.9,10.3,4,16.1c-0.6,1.9-1.4,3.9-1.2,5.9
				c0.5,5.2,8.7,7.4,11.7,3.1c2.9-4.2,0-10.1,1.1-15.1c1.5-6.8,11.6-9.6,16.4-4.6c1.6,1.7,2.6,4,4.3,5.6c2.8,2.7,7.7,2.9,10.8,0.5
				c2.9-2.2,4.3-6.2,7.7-7.4c4.2-1.5,10.4,1.7,12.6-2.1c0.5-0.8,0.6-1.8,0.7-2.8c0.4-3.7,0.5-7.5,0.4-11.2
				c-0.1-3.5-0.5-7.2-2.2-10.2s-5.3-5.3-8.8-4.6s-5.8,5.3-3.6,8.1"/>
			<path id="XMLID_89_" class="st0" d="M715.4-91.5c1.1-1.8,3.8-1.4,5.6-0.5c6.2,3.4,8.4,12.4,4.5,18.3c-0.7,1.1-1.6,2.1-1.9,3.4
				c-0.9,3.9,4,6.3,7.7,7.9c9.4,4.2,16.1,12.7,22.4,20.8c1.7,2.2,3.4,4.5,4.2,7.1c0.6,1.9,0.7,4.1,2,5.7c2,2.6,6,2.5,8.9,1.1
				c7.2-3.5,9.4-14.4,4-20.4c-3.5-4-9.7-6.1-10.8-11.3c-1.3-6,5.3-10.7,11.2-12.3c2-0.5,4-1,5.6-2.3c4.1-3.3,1.3-11.4-3.9-11.5
				c-5.1-0.1-8.4,5.6-13.2,7.5c-6.5,2.6-14.4-4.3-12.9-11c0.5-2.3,1.9-4.4,2.3-6.7c0.6-3.9-1.8-8-5.5-9.3c-3.4-1.2-7.5-0.1-10.4-2.3
				c-3.6-2.7-4.3-9.6-8.8-9.3c-1,0.1-1.8,0.5-2.7,1c-3.3,1.8-6.5,3.8-9.6,5.9c-2.9,2-5.7,4.4-7.3,7.5c-1.6,3.2-1.5,7.4,1,9.9
				s7.6,1.9,8.8-1.5"/>
			<path id="XMLID_57_" class="st0" d="M441.5-229c1.4-1.5,4-0.7,5.6,0.6c5.5,4.4,6.1,13.7,1.2,18.8c-0.9,0.9-2,1.8-2.5,3
				c-1.6,3.7,2.8,6.9,6.1,9.2c8.5,5.8,13.5,15.4,18.2,24.6c1.3,2.5,2.6,5,2.9,7.8c0.2,2,0,4.2,0.9,6c1.5,2.9,5.4,3.6,8.6,2.7
				c7.8-2.1,11.9-12.5,7.7-19.4c-2.8-4.5-8.4-7.8-8.6-13.1c-0.2-6.1,7.1-9.5,13.2-10.1c2-0.2,4.1-0.2,5.9-1.2
				c4.6-2.5,3.4-10.9-1.8-12c-5-1-9.3,3.9-14.3,4.9c-6.8,1.4-13.4-6.8-10.7-13.2c0.9-2.2,2.7-4,3.5-6.2c1.3-3.7-0.3-8.2-3.7-10.1
				c-3.1-1.8-7.4-1.5-9.8-4.2c-3-3.3-2.5-10.2-6.9-10.7c-1-0.1-1.9,0.2-2.8,0.5c-3.6,1.2-7.1,2.5-10.5,4.1c-3.2,1.5-6.4,3.3-8.5,6.1
				s-2.8,7-0.8,9.9s7.2,3.2,8.9,0.1"/>
			<path id="XMLID_10_" class="st0" d="M614.8,170.1c1.4-0.7,4.8,3.2,4.5,4.7c-0.6,3.6-1.9,7.2-1.7,10.9s2.4,7.7,6.1,8.2
				c3.3,0.5,6.3-1.9,9.3-3.3c5.9-2.7,13.3-1.7,18.2,2.6c4-0.8,7.3-4,8.3-7.9s-0.5-8.3-3.6-10.9c-2.2-1.7-5.2-3-5.8-5.7
				c-0.8-3.5,3.3-6.2,6.8-6.8c3.6-0.6,7.6-0.3,10.3-2.8c2.4-2.2,2.8-5.9,2.2-9.1c-0.9-4.8-3.7-9.3-7.9-11.8
				c-4.2-2.4-9.9-2.4-13.8,0.5c-1,0.8-1.9,1.7-3.2,2c-0.9,0.2-1.8,0-2.6-0.2c-4-1.2-7.3-4.2-8.8-8c-1.1-2.6-1.4-5.8-3.6-7.6
				c-3.5-3-9-0.3-12.2,3c-4.7,4.8-7.9,12.6-4,18c2.4,3.3,7.2,5.9,6.3,9.8c-0.7,2.8-3.9,3.9-6.6,4.9c-2.7,1-5.7,3.2-5,6
				C608.6,169.3,613.3,171.1,614.8,170.1"/>
			<path id="XMLID_58_" class="st0" d="M246.7-155.4c1.4-0.7,4.8,3.2,4.5,4.7c-0.6,3.6-1.9,7.2-1.7,10.9s2.4,7.7,6.1,8.2
				c3.3,0.5,6.3-1.9,9.3-3.3c5.9-2.7,13.3-1.7,18.2,2.6c4-0.8,7.3-4,8.3-7.9s-0.5-8.3-3.6-10.9c-2.2-1.7-5.2-3-5.8-5.7
				c-0.8-3.5,3.3-6.2,6.8-6.8s7.6-0.3,10.3-2.8c2.4-2.2,2.8-5.9,2.2-9.1c-0.9-4.8-3.7-9.3-7.9-11.8s-9.9-2.4-13.8,0.5
				c-1,0.8-1.9,1.7-3.2,2c-0.9,0.2-1.8,0-2.6-0.2c-4-1.2-7.3-4.2-8.8-8c-1.1-2.6-1.4-5.8-3.6-7.6c-3.5-3-9-0.3-12.2,3
				c-4.7,4.8-7.9,12.6-4,18c2.4,3.3,7.2,5.9,6.3,9.8c-0.7,2.8-3.9,3.9-6.6,4.9s-5.7,3.2-5,6C240.6-156.2,245.3-154.3,246.7-155.4"/>
		</g>
		<g id="Calque_4_-_copie_5">
			<path id="XMLID_40_" class="st0" d="M419.6-272.5c-0.4-4-6.2-4.4-9.8-2.8c-3.6,1.6-7.6,4.2-11.3,2.6c-0.9-0.4-1.7-1.1-2.6-1.3
				c-2.3-0.7-4.7,1.1-5.8,3.3c-1.1,2.2-1.2,4.6-1.8,7c-1.7,6.6-7.6,11.9-14.4,13c-1.7,0.3-3.5,0.3-4.9,1.2c-2.5,1.7-2.8,5.2-2.5,8.3
				c0.4,4.5,1.5,9.2,4.3,12.7c2.9,3.5,8,5.5,12.1,3.6c4.9-2.2,7.4-9.1,12.8-9.4c3.9-0.3,7,3.2,10.5,5c5.5,2.8,13.6,0.5,15.1-5.5
				c1.6-6.3-4.5-12.8-2.8-19.1c1.2-4.3,5.8-7,10.3-7c4.4-0.1,8.7,1.9,12.5,4.2c1.7,1.1,3.5,2.2,5.4,2.8c5.5,1.5,11.5-3.1,12.6-8.7
				c1.1-5.6-1.9-11.5-6.5-15c-1.5-1.1-3.2-2.1-5.1-2.4c-5.1-0.8-9.4,3.3-13.3,6.6s-9.7,6.2-13.9,3.2"/>
			<path id="XMLID_39_" class="st0" d="M340.1-227.4c1.7-3.1-0.9-7.9-3.3-10.5s-6.1-3.7-9.6-3.3c-3.8,0.4-7.7,2.5-11.4,1.4
				c-3.3-1-6.8-4.3-9.6-2.2c-0.8,0.6-1.3,1.6-1.5,2.6c-1.5,5.9,4,12.7,0.8,17.9c-1.5,2.4-4.3,3.5-6.5,5.1c-3.4,2.5-5.6,6.7-5.4,10.9
				s3.2,8.2,7.3,9.4c1.6,0.4,3.4,0.5,4.8,1.5c2.8,2.1,1.5,6.4,1.9,9.9c0.6,4.7,5.3,8.4,10,8c4.7-0.5,8.6-5.1,8.2-9.8
				c-0.5-6.5-7.8-11.6-6.7-18c0.5-3.2,3.1-5.7,5.8-7.5c2.7-1.8,5.8-3.2,8.1-5.4C335.9-220.4,338.8-223.6,340.1-227.4"/>
			<path id="XMLID_38_" class="st0" d="M306.6-157.4c0.9-1.4,3,0.3,3.4,1.9c1.1,5-1.9,9.8-4.3,14.4c-2.3,4.6-3.9,10.6-0.4,14.4
				c1.6,1.8,4.3,3.3,3.9,5.7c-0.1,0.7-0.5,1.3-0.7,1.9c-1.2,3.4,2.9,6.8,6.5,6.4s6.4-3.2,9-5.8c2.5-2.6,5.3-5.4,8.8-6
				c4.5-0.7,8.6,2.2,12.5,4.4c1.4,0.8,2.9,1.6,4.6,1.6c4.4,0,6.9-5.2,6.6-9.6c-0.4-7.1-5.7-13.7-12.5-15.6c-3.3-0.9-7.5-1.5-8.5-4.7
				c-0.2-0.7-0.2-1.5-0.4-2.2c-0.6-2.4-3.6-3.8-5.8-2.8c-2.9,1.2-4,5.3-7.1,5.8c-2.6,0.4-4.8-2.2-5.2-4.8s0.5-5.2,1-7.8
				c0.4-2.6,0.3-5.6-1.7-7.4c-1.2-1.1-3-1.5-4.6-1.4C306.4-168.7,301.3-150.7,306.6-157.4"/>
			<path id="XMLID_37_" class="st0" d="M414.3-201.3c2-0.4,3.6,1.9,4.1,3.9c1.6,6.9-3.6,14.5-10.6,15.5c-1.3,0.2-2.7,0.2-3.8,0.8
				c-3.5,1.9-2,7.2-0.8,11c3.2,9.8,1.3,20.5-0.7,30.6c-0.5,2.7-1.1,5.5-2.5,7.9c-1.1,1.7-2.6,3.3-3,5.3c-0.6,3.2,2.1,6.2,5.1,7.4
				c7.4,3.1,17-2.6,17.9-10.6c0.6-5.3-1.9-11.3,1.3-15.6c3.6-4.9,11.5-3.1,16.6,0.2c1.7,1.1,3.4,2.3,5.4,2.7
				c5.2,0.9,9.4-6.6,5.9-10.6c-3.4-3.9-9.7-2.6-14.3-4.9c-6.2-3.1-6.4-13.6-0.3-17c2.1-1.1,4.5-1.5,6.5-2.8
				c3.3-2.1,4.8-6.7,3.2-10.3c-1.4-3.3-4.9-5.7-5.2-9.3c-0.4-4.4,4.3-9.6,1.1-12.7c-0.7-0.7-1.6-1-2.5-1.4
				c-3.5-1.3-7.1-2.3-10.8-3.2c-3.4-0.8-7.1-1.4-10.5-0.4c-3.4,0.9-6.5,3.8-6.7,7.3s3.7,6.9,6.9,5.6"/>
			<path id="XMLID_25_" class="st0" d="M346.8-180c1.4-0.7,4.8,3.2,4.5,4.7c-0.6,3.6-1.9,7.2-1.7,10.9s2.4,7.7,6.1,8.2
				c3.3,0.5,6.3-1.9,9.3-3.3c5.9-2.7,13.3-1.7,18.2,2.6c4-0.8,7.3-4,8.3-7.9s-0.5-8.3-3.6-10.9c-2.2-1.7-5.2-3-5.8-5.7
				c-0.8-3.5,3.3-6.2,6.8-6.8c3.6-0.6,7.6-0.3,10.3-2.8c2.4-2.2,2.8-5.9,2.2-9.1c-0.9-4.8-3.7-9.3-7.9-11.8
				c-4.2-2.4-9.9-2.4-13.8,0.5c-1,0.8-1.9,1.7-3.2,2c-0.9,0.2-1.8,0-2.6-0.2c-4-1.2-7.3-4.2-8.8-8c-1.1-2.6-1.4-5.8-3.6-7.6
				c-3.5-3-9-0.3-12.2,3c-4.7,4.8-7.9,12.6-4,18c2.4,3.3,7.2,5.9,6.3,9.8c-0.7,2.8-3.9,3.9-6.6,4.9s-5.7,3.2-5,6
				C340.7-180.8,345.3-178.9,346.8-180"/>
		</g>
		<g id="Calque_4_-_copie_6">
			<path id="XMLID_74_" class="st0" d="M747.3-293.1c-0.4-4-6.2-4.4-9.8-2.8c-3.6,1.6-7.6,4.2-11.3,2.6c-0.9-0.4-1.7-1.1-2.6-1.3
				c-2.3-0.7-4.7,1.1-5.8,3.3c-1.1,2.2-1.2,4.6-1.8,7c-1.7,6.6-7.6,11.9-14.4,13c-1.7,0.3-3.5,0.3-4.9,1.2c-2.5,1.7-2.8,5.2-2.5,8.3
				c0.4,4.5,1.5,9.2,4.3,12.7s8,5.5,12.1,3.6c4.9-2.2,7.4-9.1,12.8-9.4c3.9-0.3,7,3.2,10.5,5c5.5,2.8,13.6,0.5,15.1-5.5
				c1.6-6.3-4.5-12.8-2.8-19.1c1.2-4.3,5.8-7,10.3-7s8.7,1.9,12.5,4.2c1.7,1.1,3.5,2.2,5.4,2.8c5.5,1.5,11.5-3.1,12.6-8.7
				c1.1-5.6-1.9-11.5-6.5-15c-1.5-1.1-3.2-2.1-5.1-2.4c-5.1-0.8-9.4,3.3-13.3,6.6c-3.9,3.3-9.7,6.2-13.9,3.2"/>
			<path id="XMLID_68_" class="st0" d="M667.9-248c1.7-3.1-0.9-7.9-3.3-10.5c-2.4-2.6-6.1-3.7-9.6-3.4c-3.8,0.4-7.7,2.5-11.4,1.4
				c-3.3-1-6.8-4.3-9.6-2.2c-0.8,0.6-1.3,1.6-1.5,2.6c-1.5,5.9,4,12.7,0.8,17.9c-1.5,2.4-4.3,3.5-6.5,5.1c-3.4,2.5-5.6,6.7-5.4,10.9
				c0.2,4.2,3.2,8.2,7.3,9.4c1.6,0.4,3.4,0.5,4.8,1.5c2.8,2.1,1.5,6.4,1.9,9.9c0.6,4.7,5.3,8.4,10,8s8.6-5.1,8.2-9.8
				c-0.5-6.5-7.8-11.6-6.7-18c0.5-3.2,3.1-5.7,5.8-7.5s5.8-3.2,8.1-5.4C663.7-241,666.6-244.2,667.9-248"/>
			<path id="XMLID_67_" class="st0" d="M634.4-178c0.9-1.4,3,0.3,3.4,1.9c1.1,5-1.9,9.8-4.3,14.4c-2.3,4.6-3.9,10.6-0.4,14.4
				c1.6,1.8,4.3,3.3,3.9,5.7c-0.1,0.7-0.5,1.3-0.7,1.9c-1.2,3.4,2.9,6.8,6.5,6.4c3.6-0.4,6.4-3.2,9-5.8c2.5-2.6,5.3-5.4,8.8-6
				c4.5-0.7,8.6,2.2,12.5,4.4c1.4,0.8,2.9,1.6,4.6,1.6c4.4,0,6.9-5.2,6.6-9.6c-0.4-7.1-5.7-13.7-12.5-15.6c-3.3-0.9-7.5-1.5-8.5-4.7
				c-0.2-0.7-0.2-1.5-0.4-2.2c-0.6-2.4-3.6-3.8-5.8-2.8c-2.9,1.2-4,5.3-7.1,5.8c-2.6,0.4-4.8-2.2-5.2-4.8c-0.3-2.6,0.5-5.2,1-7.8
				c0.4-2.6,0.3-5.6-1.7-7.4c-1.2-1.1-3-1.5-4.6-1.4C634.2-189.3,629-171.3,634.4-178"/>
			<path id="XMLID_66_" class="st0" d="M742-221.9c2-0.4,3.6,1.9,4.1,3.9c1.6,6.9-3.6,14.5-10.6,15.5c-1.3,0.2-2.7,0.2-3.8,0.8
				c-3.5,1.9-2,7.2-0.8,11c3.2,9.8,1.3,20.5-0.7,30.6c-0.5,2.7-1.1,5.5-2.5,7.9c-1.1,1.7-2.6,3.3-3,5.3c-0.6,3.2,2.1,6.2,5.1,7.4
				c7.4,3.1,17-2.6,17.9-10.6c0.6-5.3-1.9-11.3,1.3-15.6c3.6-4.9,11.5-3.1,16.6,0.2c1.7,1.1,3.4,2.3,5.4,2.7
				c5.2,0.9,9.4-6.6,5.9-10.6c-3.4-3.9-9.7-2.6-14.3-4.9c-6.2-3.1-6.4-13.6-0.3-17c2.1-1.1,4.5-1.5,6.5-2.8
				c3.3-2.1,4.8-6.7,3.2-10.3c-1.4-3.3-4.9-5.7-5.2-9.3c-0.4-4.4,4.3-9.6,1.1-12.7c-0.7-0.7-1.6-1-2.5-1.4
				c-3.5-1.3-7.1-2.3-10.8-3.2c-3.4-0.8-7.1-1.4-10.5-0.4c-3.4,0.9-6.5,3.8-6.7,7.3s3.7,6.9,6.9,5.6"/>
			<path id="XMLID_55_" class="st0" d="M674.6-200.6c1.4-0.7,4.8,3.2,4.5,4.7c-0.6,3.6-1.9,7.2-1.7,10.9s2.4,7.7,6.1,8.2
				c3.3,0.5,6.3-1.9,9.3-3.3c5.9-2.7,13.3-1.7,18.2,2.6c4-0.8,7.3-4,8.3-7.9s-0.5-8.3-3.6-10.9c-2.2-1.7-5.2-3-5.8-5.7
				c-0.8-3.5,3.3-6.2,6.8-6.8c3.6-0.6,7.6-0.3,10.3-2.8c2.4-2.2,2.8-5.9,2.2-9.1c-0.9-4.8-3.7-9.3-7.9-11.8
				c-4.2-2.4-9.9-2.4-13.8,0.5c-1,0.8-1.9,1.7-3.2,2c-0.9,0.2-1.8,0-2.6-0.2c-4-1.2-7.3-4.2-8.8-8c-1.1-2.6-1.4-5.8-3.6-7.6
				c-3.5-3-9-0.3-12.2,3c-4.7,4.8-7.9,12.6-4,18c2.4,3.3,7.2,5.9,6.3,9.8c-0.7,2.8-3.9,3.9-6.6,4.9s-5.7,3.2-5,6
				C668.4-201.4,673.1-199.5,674.6-200.6"/>
		</g>
	</g>
</g>
</svg>
