<?xml version="1.0" encoding="utf-8"?>
<!-- Generator: Adobe Illustrator 19.0.0, SVG Export Plug-In . SVG Version: 6.00 Build 0)  -->
<svg version="1.0" id="Calque_25" xmlns="http://www.w3.org/2000/svg" xmlns:xlink="http://www.w3.org/1999/xlink" x="0px" y="0px"
	 viewBox="0 0 300 300" style="enable-background:new 0 0 300 300;" xml:space="preserve">
<style type="text/css">
	.st0{display:none;}
	.st1{display:inline;fill:#BC1825;stroke:#59111D;stroke-width:2;stroke-miterlimit:10;}
	.st2{fill:#BC1825;stroke:#59111D;stroke-width:2;stroke-miterlimit:10;}
</style>
<g id="Calque_24" class="st0">
	<path id="XMLID_7_" class="st1" d="M160.6,80.4c0,0,11.1-4.8,23.5,6.2c12.3,11,26.9,6.1,26.9,6.1s3.8,18.3-14.9,20.9
		c-18.7,2.7-15.3-7.5-26.8-5.9c-6.9,1-8.5,3.7-8.5,3.7L160.6,80.4z"/>
</g>
<g id="Calque_24_-_copie" class="st0">
	<path id="XMLID_10_" class="st1" d="M160.6,80.4c0,0,10.1-2.4,22.4,8.6s30,1.6,30,1.6s1.8,20.3-16.9,23
		c-18.7,2.7-14.1-9.9-25.6-8.3c-6.9,1-9.7,6.1-9.7,6.1L160.6,80.4z"/>
</g>
<g id="Calque_24_-_copie_2" class="st0">
	<path id="XMLID_23_" class="st1" d="M160.6,80.4c0,0,4.4-2.7,16.7,8.3s35.7,1.9,35.7,1.9s3.2,17.6-15.5,20.3s-13.5-5.4-25.1-3.8
		c-6.9,1-11.7,4.3-11.7,4.3L160.6,80.4z"/>
</g>
<g id="Calque_24_-_copie_3">
	<path id="XMLID_24_" class="st2" d="M160.6,80.4c0,0,10.1-2.4,22.4,8.6s31.4-1,31.4-1s2.1,22.6-16.5,25.3
		c-18.7,2.7-12.3-9.6-23.8-8c-6.9,1-13.3,6.1-13.3,6.1L160.6,80.4z"/>
</g>
</svg>
