<?xml version="1.0" encoding="utf-8"?>
<!-- Generator: Adobe Illustrator 19.0.0, SVG Export Plug-In . SVG Version: 6.00 Build 0)  -->
<svg version="1.0" xmlns="http://www.w3.org/2000/svg" xmlns:xlink="http://www.w3.org/1999/xlink" x="0px" y="0px"
	 viewBox="0 0 300 300" style="enable-background:new 0 0 300 300;" xml:space="preserve">
<style type="text/css">
	.st0{fill:url(#XMLID_10_);stroke:url(#XMLID_23_);stroke-width:3;stroke-miterlimit:10;}
	.st1{opacity:0.1;fill:#FFFFFF;}
	.st2{fill:url(#XMLID_24_);stroke:#395122;stroke-width:3;stroke-miterlimit:10;}
	.st3{fill:#878787;stroke:#000000;stroke-width:3;stroke-miterlimit:10;}
	.st4{fill:#B2B2B2;}
	.st5{fill:none;stroke:#000000;stroke-width:3;stroke-miterlimit:10;}
	.st6{fill:#878787;}
	.st7{fill:none;stroke:#0B0B0C;stroke-width:19;stroke-miterlimit:10;}
	.st8{fill:none;stroke:#DDDDDD;stroke-width:6;stroke-miterlimit:10;}
	.st9{opacity:0.25;fill:#020304;}
	.st10{fill:url(#XMLID_26_);stroke:#395122;stroke-width:3;stroke-miterlimit:10;}
	.st11{fill:url(#XMLID_27_);stroke:#395122;stroke-width:3;stroke-miterlimit:10;}
	.st12{opacity:0.25;}
	.st13{fill:#020304;}
	.st14{fill:url(#XMLID_28_);}
	.st15{fill:none;stroke:#395122;stroke-width:3;stroke-miterlimit:10;}
	.st16{fill:#FFFFFF;}
</style>
<g id="Calque_1">
	<g id="Calque_12">
		<radialGradient id="XMLID_10_" cx="151.9567" cy="147.7905" r="114.323" gradientUnits="userSpaceOnUse">
			<stop  offset="2.153458e-007" style="stop-color:#77BDE9"/>
			<stop  offset="1" style="stop-color:#3864AE"/>
		</radialGradient>
		<radialGradient id="XMLID_23_" cx="151.9567" cy="147.7905" r="115.823" gradientUnits="userSpaceOnUse">
			<stop  offset="2.153458e-007" style="stop-color:#89AF27"/>
			<stop  offset="1" style="stop-color:#476135"/>
		</radialGradient>
		<circle id="XMLID_86_" class="st0" cx="152" cy="147.8" r="114.3"/>
		<g id="Calque_5_1_">
			<g id="Calque_13">
			</g>
			<g id="Calque_12_1_">
			</g>
			<g id="Calque_12_-_copie">
			</g>
			<g id="Calque_9">
				<g id="圖層_1">
				</g>
			</g>
			<g id="Calque_8">
			</g>
			<g id="Calque_10">
				<g id="Calque_11">
				</g>
				<g id="Calque_11_-_copie">
				</g>
			</g>
			<path id="XMLID_9_" class="st1" d="M153.7,9"/>
			<path id="XMLID_8_" class="st1" d="M152.5,128.6C92,126.2,56.1,169.3,43,183c-21,22,83.8,52.1,83.8,52.1l15.7,3.7l100.7-27
				c11.4-3.2,12.4-28,15.9-30.7c0.4-0.3,0.4-1,0.1-1.4C246,165.8,209.9,127.3,152.5,128.6"/>
		</g>
		<g id="Calque_18">
			<g id="Calque_4_-_copie">
				<g id="Calque_14_-_copie">
					<path id="XMLID_14_" d="M97.9,250.1l63.1,12c12.9-4.9,107.7-40.3,92.3-59.8c-26-32.8-57.3-41-98.4-41
						c-41.9,0-74.9,7.4-100.9,41.3C39.3,221.8,87.6,240.9,97.9,250.1z"/>
					
						<radialGradient id="XMLID_24_" cx="156.4096" cy="219.1905" r="61.4027" gradientTransform="matrix(1.2674 0 0 1.0825 -44.0707 -21.8911)" gradientUnits="userSpaceOnUse">
						<stop  offset="2.153458e-007" style="stop-color:#89AF27"/>
						<stop  offset="1" style="stop-color:#476135"/>
					</radialGradient>
					<path id="XMLID_11_" class="st2" d="M154.9,262.1l59.5-12c11.9-14.1,45.8-24.5,31.9-42.7c-24.1-31.4-53-38.7-91.4-38.7
						c-39.8,0-70.7,7.1-94.9,40.4C47.3,226.5,126.7,262.7,154.9,262.1z"/>
					<g id="圖層_1_-_copie_1_">
					</g>
				</g>
			</g>
			<g id="Calque_22">
				<path id="XMLID_20_" class="st3" d="M171.3,173.6c0,4.8-8.7,8.8-19.4,8.8c-10.7,0-19.4-3.9-19.4-8.8c0-0.8-0.2-12.7,0.2-13.5
					c2.3-3.7,10.3,4.7,19.2,4.7c8.6,0,17-8.1,19.5-4.6C172.1,161.1,171.3,172.7,171.3,173.6z"/>
				<path id="XMLID_13_" class="st4" d="M152,182.4c-10.7,0-19.4-3.9-19.4-8.8c0-0.8-0.2-12.7,0.2-13.5c2.3-3.7,10.3,4.7,19.2,4.7
					C160.5,164.9,162.7,182.4,152,182.4z"/>
				<path id="XMLID_16_" class="st5" d="M171.3,173.6c0,4.8-8.7,8.8-19.4,8.8c-10.7,0-19.4-3.9-19.4-8.8c0-0.8-0.2-12.7,0.2-13.5
					c2.3-3.7,10.3,4.7,19.2,4.7c8.6,0,17-8.1,19.5-4.6C172.1,161.1,171.3,172.7,171.3,173.6z"/>
				<ellipse id="XMLID_15_" class="st3" cx="152.1" cy="161" rx="19.4" ry="8.8"/>
			</g>
			<g id="Calque_23">
				<g id="Calque_17">
					<path id="XMLID_25_" d="M150.4,165.7h3.1c4.7,0,8.5-3.8,8.5-8.5V83c0-4.7-3.8-8.5-8.5-8.5h-3.1c-4.7,0-8.5,3.8-8.5,8.5v74.2
						C141.9,161.9,145.7,165.7,150.4,165.7z"/>
				</g>
				<g id="Calque_17_-_copie">
					<path id="XMLID_21_" class="st6" d="M151.7,163.4h0.4c3.9,0,7.1-3.2,7.1-7.1V83.9c0-3.9-3.2-7.1-7.1-7.1h-0.4
						c-3.9,0-7.1,3.2-7.1,7.1v72.4C144.6,160.2,147.8,163.4,151.7,163.4z"/>
				</g>
				<g id="Calque_17_-_copie_2">
					<path id="XMLID_22_" class="st4" d="M148.5,159.9L148.5,159.9c-1.1,0-2-0.9-2-2v-74c0-1.1,0.9-2,2-2h0c1.1,0,2,0.9,2,2v74
						C150.6,158.9,149.7,159.9,148.5,159.9z"/>
				</g>
			</g>
		</g>
		<circle id="XMLID_4_" class="st7" cx="152" cy="147.8" r="114.3"/>
		<circle id="XMLID_195_" class="st8" cx="152" cy="147.8" r="114.3"/>
		<g id="Calque_20">
		</g>
	</g>
</g>
<g id="Calque_5">
	<path id="XMLID_59_" class="st9" d="M239.3,68l28.5,8.3c3.1,0.9,13.5,2.7,15.5,0.3c1.2-1.4-7.4-8.2-8.9-9.1l-9.1-7.1
		c-2.4-2.5-4-4.8,1-7.1l9.2-1.3c6.9-0.8,15.2-0.4,14.9-2.2c-0.4-3.1-10.1-4.8-13.2-5.7l-28.5-8.3c-5.7-1.7-11.8,1.9-13.6,7.9
		l-3,10.5c-0.9,3.1-2.7,7.4-1.3,10C232.1,66.4,236.6,67.2,239.3,68z"/>
	
		<radialGradient id="XMLID_26_" cx="255.9904" cy="-16132.5332" r="26.0126" gradientTransform="matrix(1 0 0 -1 0 -16082)" gradientUnits="userSpaceOnUse">
		<stop  offset="2.153458e-007" style="stop-color:#89AF27"/>
		<stop  offset="1" style="stop-color:#476135"/>
	</radialGradient>
	<path id="XMLID_60_" class="st10" d="M235,62l28.5,8.3c3.1,0.9,13.5,2.7,15.5,0.3c1.2-1.4-7.4-8.2-8.9-9.1l-9.1-7.1
		c-2.4-2.5-4-4.8,1-7.1l9.2-1.3c6.9-0.8,15.2-0.4,14.9-2.2c-0.4-3.1-10.1-4.8-13.2-5.7l-28.5-8.3c-5.7-1.7-11.8,1.9-13.6,7.9
		l-3,10.5c-0.9,3.1-2.7,7.4-1.3,10C227.8,60.4,232.3,61.2,235,62z"/>
	<path id="XMLID_62_" class="st9" d="M60.7,67l-28.5,8.3c-3.1,0.9-13.5,2.7-15.5,0.3c-1.2-1.4,7.4-8.2,8.9-9.1l9.1-7.1
		c2.4-2.5,4-4.8-1-7.1L24.6,51c-6.9-0.8-15.2-0.4-14.9-2.2c0.4-3.1,10.1-4.8,13.2-5.7l28.5-8.3c5.7-1.7,11.8,1.9,13.6,7.9l3,10.5
		c0.9,3.1,2.7,7.4,1.3,10C67.9,65.5,63.4,66.2,60.7,67z"/>
	
		<radialGradient id="XMLID_27_" cx="518.7751" cy="49.5615" r="26.0126" gradientTransform="matrix(-1 0 0 1 562.7847 0)" gradientUnits="userSpaceOnUse">
		<stop  offset="2.153458e-007" style="stop-color:#89AF27"/>
		<stop  offset="1" style="stop-color:#476135"/>
	</radialGradient>
	<path id="XMLID_61_" class="st11" d="M65,61l-28.5,8.3C33.4,70.2,23.1,72,21,69.6c-1.2-1.4,7.4-8.2,8.9-9.1l9.1-7.1
		c2.4-2.5,4-4.8-1-7.1L28.9,45C22,44.2,13.7,44.6,14,42.7c0.4-3.1,10.1-4.8,13.2-5.7l28.5-8.3c5.7-1.7,11.8,1.9,13.6,7.9l3,10.5
		c0.9,3.1,2.7,7.4,1.3,10C72.2,59.5,67.7,60.2,65,61z"/>
	<g id="XMLID_58_" class="st12">
		<path id="XMLID_52_" class="st13" d="M236,56.5c-56-15.8-115.3-15.8-171.3,0c-6.4,1.8-13.4-1.6-15.5-7.8
			c-1.4-4.4-2.9-8.9-4.3-13.3c-2.1-6.3,2.1-13.3,9.5-15.4c62.8-17.7,129.2-17.7,192,0c7.3,2.1,11.5,9.2,9.5,15.4
			c-1.4,4.4-2.9,8.9-4.3,13.3C249.4,54.9,242.5,58.3,236,56.5z"/>
	</g>
	<g id="XMLID_55_">
		<radialGradient id="XMLID_28_" cx="150.3696" cy="27.4743" r="77.0222" gradientUnits="userSpaceOnUse">
			<stop  offset="2.153458e-007" style="stop-color:#89AF27"/>
			<stop  offset="1" style="stop-color:#476135"/>
		</radialGradient>
		<path id="XMLID_19_" class="st14" d="M236.6,51.5c-56.4-15.9-116.1-15.9-172.5,0c-6.4,1.8-13.4-1.6-15.5-7.8c-1.3-4-2.6-8-3.9-12
			c-2.1-6.3,2.1-13.3,9.4-15.4c62.9-17.8,129.5-17.8,192.4,0c7.3,2.1,11.5,9.1,9.4,15.4c-1.3,4-2.6,8-3.9,12
			C250,49.9,243.1,53.3,236.6,51.5z"/>
		<path id="XMLID_18_" class="st15" d="M236.6,51.5c-56.4-15.9-116.1-15.9-172.5,0c-6.4,1.8-13.4-1.6-15.5-7.8c-1.3-4-2.6-8-3.9-12
			c-2.1-6.3,2.1-13.3,9.4-15.4c62.9-17.8,129.5-17.8,192.4,0c7.3,2.1,11.5,9.1,9.4,15.4c-1.3,4-2.6,8-3.9,12
			C250,49.9,243.1,53.3,236.6,51.5z"/>
	</g>
	<g id="XMLID_2_">
		<g id="XMLID_63_">
			<path id="XMLID_80_" class="st16" d="M120.6,15.8c0.2,1,0.4,2,0.6,3c-0.8,0.2-1.5,0.3-2.3,0.5c0.9,4,1.8,8,2.7,12.2
				c-1.2,0.1-2.3,0.2-3.5,0.3c-1-4.1-2-8-3-11.7c-0.8,0.2-1.5,0.3-2.2,0.4c-0.3-0.9-0.6-1.8-0.8-2.7
				C114.8,17.1,117.7,16.4,120.6,15.8z"/>
			<path id="XMLID_77_" class="st16" d="M121.5,15.6c0.9-0.2,1.9-0.4,2.8-0.6c1.9-0.4,3.2-0.6,3.9-0.6c0.7,0,1.3,0.3,1.8,0.9
				c0.5,0.6,0.8,1.6,1,3c0.1,1.3,0.1,2.2-0.1,2.7c-0.2,0.5-0.8,0.8-1.6,1c0.8,0.1,1.3,0.3,1.6,0.7c0.3,0.3,0.5,0.6,0.6,0.9
				c0.1,0.3,0.2,1.1,0.4,2.5c0.2,1.5,0.3,3,0.5,4.5c-1.1,0.1-2.2,0.2-3.3,0.3c-0.3-1.8-0.5-3.7-0.8-5.5c-0.1-0.9-0.3-1.4-0.4-1.6
				c-0.2-0.2-0.5-0.3-1-0.2c0.4,2.4,0.7,4.9,1.1,7.4c-1.2,0.1-2.4,0.2-3.5,0.3C123.5,25.8,122.5,20.6,121.5,15.6z M125.9,17.4
				c0.2,1.2,0.4,2.4,0.6,3.6c0.4-0.1,0.7-0.2,0.9-0.3c0.2-0.2,0.2-0.6,0.1-1.3c0-0.3-0.1-0.6-0.1-0.9c-0.1-0.5-0.2-0.8-0.4-1
				C126.7,17.3,126.4,17.3,125.9,17.4z"/>
			<path id="XMLID_74_" class="st16" d="M139,12.5c1.1,5.7,2.1,11.5,3,17.3c-1.2,0-2.5,0.1-3.7,0.2c-0.1-1-0.3-2.1-0.4-3.1
				c-0.4,0-0.9,0.1-1.3,0.1c0,1,0,2.1,0,3.1c-1.2,0.1-2.5,0.2-3.7,0.3c0-5.7,0.1-11.4,0.2-17.2C135.1,13,137,12.7,139,12.5z
				 M137.6,23.9c-0.3-1.9-0.7-4.4-1.1-7.2c-0.2,3.3-0.2,5.8-0.2,7.3C136.7,23.9,137.2,23.9,137.6,23.9z"/>
			<path id="XMLID_72_" class="st16" d="M146,12.1c0.1,5.9,0.1,11.8,0.2,17.6c-1.2,0-2.4,0-3.6,0.1c-0.2-5.9-0.4-11.7-0.6-17.6
				C143.3,12.2,144.7,12.2,146,12.1z"/>
			<path id="XMLID_70_" class="st16" d="M156.7,12.6c-0.3,5.8-0.6,11.6-1,17.4c-1.1,0-2.1-0.1-3.2-0.1c-0.5-2.7-1.1-5.4-1.7-8
				c-0.1,2.7-0.1,5.3-0.2,8c-1,0-2,0-3,0c0-5.9,0-11.8,0-17.7c1.1,0,2.3,0,3.4,0.1c0.7,2.7,1.4,5.3,2,8c0.1-2.6,0.2-5.3,0.3-7.9
				C154.5,12.4,155.6,12.4,156.7,12.6z"/>
			<path id="XMLID_68_" class="st16" d="M162.4,13.3c-0.5,5.6-1.1,11.2-1.6,16.9c-1.2-0.1-2.4-0.2-3.6-0.2
				c0.4-5.8,0.8-11.5,1.2-17.3C159.7,12.9,161,13.1,162.4,13.3z"/>
			<path id="XMLID_66_" class="st16" d="M173,15.3c-0.9,5.1-1.9,10.3-2.8,15.7c-1-0.1-2.1-0.2-3.1-0.3c-0.2-2.5-0.5-5.1-0.9-7.7
				c-0.3,2.5-0.7,5-1,7.5c-1-0.1-2-0.2-3-0.2c0.6-5.7,1.2-11.3,1.8-16.8c1.1,0.2,2.2,0.4,3.4,0.6c0.4,2.6,0.8,5.1,1.2,7.6
				c0.4-2.4,0.7-4.8,1.1-7.2C170.7,14.8,171.8,15,173,15.3z"/>
			<path id="XMLID_64_" class="st16" d="M182,22.6c-1.2-0.2-2.5-0.4-3.7-0.6c0.1-0.4,0.2-0.9,0.3-1.3c0.2-0.8,0.3-1.3,0.3-1.6
				c0-0.2-0.2-0.4-0.4-0.4c-0.2,0-0.4,0-0.6,0.2c-0.1,0.2-0.3,0.6-0.5,1.4c-0.6,2.3-1.1,4.7-1.7,7.1c-0.2,0.7-0.2,1.1-0.2,1.4
				c0,0.2,0.2,0.3,0.4,0.4c0.3,0,0.5-0.1,0.6-0.3c0.1-0.2,0.3-0.7,0.5-1.4c0.1-0.6,0.3-1.2,0.4-1.8c-0.2,0-0.5-0.1-0.7-0.1
				c0.2-0.8,0.4-1.5,0.5-2.3c1.4,0.2,2.9,0.4,4.3,0.6c-0.7,2.5-1.5,5.1-2.2,7.7c-0.7,0-1.4-0.1-2.1-0.1c0-0.4,0-0.7,0-1.1
				c-0.4,0.4-0.7,0.8-1.1,1c-0.4,0.2-0.9,0.3-1.3,0.3c-0.6,0-1.1-0.3-1.5-0.6c-0.4-0.4-0.8-0.8-0.9-1.3c-0.2-0.5-0.2-1.1-0.2-1.6
				c0-0.5,0.2-1.4,0.4-2.4c0.3-1.5,0.6-3.1,0.9-4.6c0.3-1.5,0.6-2.5,0.9-3.1c0.3-0.6,0.9-1.1,1.7-1.5c0.9-0.4,1.9-0.4,3.1-0.1
				c1.2,0.3,2.1,0.7,2.7,1.3c0.6,0.6,1,1.2,1,1.8c0,0.6-0.1,1.5-0.4,2.6C182.2,22.2,182.1,22.4,182,22.6z"/>
		</g>
	</g>
</g>
</svg>
