<?xml version="1.0" encoding="utf-8"?>
<!-- Generator: Adobe Illustrator 19.0.0, SVG Export Plug-In . SVG Version: 6.00 Build 0)  -->
<svg version="1.0" id="Calque_1" xmlns="http://www.w3.org/2000/svg" xmlns:xlink="http://www.w3.org/1999/xlink" x="0px" y="0px"
	 viewBox="0 0 300 200" style="enable-background:new 0 0 300 200;" xml:space="preserve">
<style type="text/css">
	.st0{opacity:0.25;fill:#030405;enable-background:new    ;}
	.st1{fill:url(#XMLID_18_);stroke:#3B1913;stroke-width:3;stroke-miterlimit:10;}
	.st2{fill:url(#XMLID_20_);stroke:#3B1913;stroke-width:3;stroke-miterlimit:10;}
	.st3{opacity:0.25;}
	.st4{fill:#030405;}
	.st5{fill:url(#XMLID_21_);}
	.st6{fill:none;stroke:#3C1912;stroke-width:3;stroke-miterlimit:10;}
	.st7{fill:#FFFFFF;}
	.st8{fill:none;stroke:#503614;stroke-width:3;stroke-miterlimit:10;}
	.st9{fill:#D29710;}
	.st10{fill:#F3D414;}
	.st11{opacity:0.61;fill:#FCF39E;}
	.st12{opacity:0.5;fill:none;stroke:#9B4F16;stroke-width:2;stroke-miterlimit:10;}
</style>
<g id="Calque_39">
	<path id="XMLID_263_" class="st0" d="M228.9,190.4l25.2,7.3c2.7,0.8,11.9,2.4,13.7,0.3c1.1-1.3-6.5-7.3-7.9-8.1l-8-6.3
		c-2.1-2.2-3.5-4.2,0.9-6.3l8.1-1.1c6.1-0.7,13.4-0.3,13.2-2c-0.4-2.8-8.9-4.3-11.7-5.1l-25.2-7.3c-5.1-1.5-10.5,1.7-12,7l-2.7,9.3
		c-0.8,2.8-2.4,6.6-1.1,8.9C222.6,189,226.6,189.7,228.9,190.4z"/>
	
		<linearGradient id="XMLID_18_" gradientUnits="userSpaceOnUse" x1="270.2985" y1="17098.7852" x2="217.1029" y2="17098.7852" gradientTransform="matrix(1 0 0 1 0 -16923.8906)">
		<stop  offset="0" style="stop-color:#EB5959"/>
		<stop  offset="8.947212e-002" style="stop-color:#D74746"/>
		<stop  offset="0.2307" style="stop-color:#BE3532"/>
		<stop  offset="0.3825" style="stop-color:#AC2A23"/>
		<stop  offset="0.5477" style="stop-color:#9F211D"/>
		<stop  offset="0.7363" style="stop-color:#981C1A"/>
		<stop  offset="1" style="stop-color:#951919"/>
	</linearGradient>
	<path id="XMLID_262_" class="st1" d="M225.1,185.1l25.2,7.3c2.7,0.8,11.9,2.4,13.7,0.3c1.1-1.3-6.5-7.3-7.9-8.1l-8-6.3
		c-2.1-2.2-3.5-4.2,0.9-6.3l8.1-1.1c6.1-0.7,13.4-0.3,13.2-2c-0.4-2.8-8.9-4.3-11.7-5.1l-25.2-7.3c-5.1-1.5-10.5,1.7-12,7l-2.7,9.3
		c-0.8,2.8-2.4,6.6-1.1,8.9C218.8,183.7,222.8,184.4,225.1,185.1z"/>
	<path id="XMLID_261_" class="st0" d="M70.9,189.5l-25.1,7.3c-2.7,0.8-11.9,2.4-13.7,0.3c-1.1-1.3,6.5-7.3,7.9-8.1l8-6.3
		c2.1-2.2,3.5-4.2-0.9-6.3l-8.1-1.1c-6.1-0.7-13.4-0.3-13.2-2c0.4-2.8,8.9-4.3,11.7-5.1l25.2-7.3c5.1-1.5,10.5,1.7,12,7l2.7,9.3
		c0.8,2.8,2.4,6.6,1.1,8.9C77.3,188.2,73.4,188.8,70.9,189.5z"/>
	
		<linearGradient id="XMLID_20_" gradientUnits="userSpaceOnUse" x1="239.139" y1="26.115" x2="185.9434" y2="26.115" gradientTransform="matrix(-1 0 0 -1 268.7847 200.11)">
		<stop  offset="0" style="stop-color:#EB5959"/>
		<stop  offset="8.947212e-002" style="stop-color:#D74746"/>
		<stop  offset="0.2307" style="stop-color:#BE3532"/>
		<stop  offset="0.3825" style="stop-color:#AC2A23"/>
		<stop  offset="0.5477" style="stop-color:#9F211D"/>
		<stop  offset="0.7363" style="stop-color:#981C1A"/>
		<stop  offset="1" style="stop-color:#951919"/>
	</linearGradient>
	<path id="XMLID_260_" class="st2" d="M74.8,184.2l-25.2,7.3c-2.7,0.8-11.9,2.4-13.7,0.3c-1.1-1.3,6.5-7.3,7.9-8.1l8-6.3
		c2.1-2.2,3.5-4.2-0.9-6.3l-8.1-1.1c-6.1-0.7-13.4-0.3-13.2-2c0.4-2.8,8.9-4.3,11.7-5.1l25.2-7.3c5.1-1.5,10.5,1.7,12,7l2.7,9.3
		c0.8,2.8,2.4,6.6,1.1,8.9C81.1,182.8,77.3,183.5,74.8,184.2z"/>
	<g id="XMLID_257_" class="st3">
		<path id="XMLID_271_" class="st4" d="M224.6,181.6c-48.7-22.7-100.1-22.7-148.8,0c-6.4,3-13.4-2.7-15.5-13.3c-1-5.2-2-10.2-3-15.5
			c-2.1-10.6,2.1-22.3,9.5-25.9c54.5-25.4,112.2-25.4,166.7,0c7.3,3.4,11.6,15.3,9.5,25.9c-1,5.2-2,10.2-3,15.5
			C238.1,178.7,231.1,184.4,224.6,181.6z"/>
	</g>
	<g id="XMLID_34_">
		
			<radialGradient id="XMLID_21_" cx="150.3" cy="76.1047" r="67.8625" gradientTransform="matrix(1 0 0 -1.6795 0 266.5517)" gradientUnits="userSpaceOnUse">
			<stop  offset="0" style="stop-color:#EB5959"/>
			<stop  offset="1" style="stop-color:#951919"/>
		</radialGradient>
		<path id="XMLID_51_" class="st5" d="M225.3,174c-49-22.8-100.8-22.8-149.8,0c-6.4,3-13.4-2.7-15.5-13.3c-0.9-4.5-1.7-8.9-2.6-13.4
			c-2.1-10.6,2.1-22.3,9.4-25.9c54.7-25.5,112.4-25.5,167.1,0c7.3,3.4,11.5,15.3,9.4,25.9c-0.9,4.5-1.7,8.9-2.6,13.4
			C238.6,171.3,231.6,177.1,225.3,174z"/>
		<path id="XMLID_50_" class="st6" d="M225.3,174c-49-22.8-100.8-22.8-149.8,0c-6.4,3-13.4-2.7-15.5-13.3c-0.9-4.5-1.7-8.9-2.6-13.4
			c-2.1-10.6,2.1-22.3,9.4-25.9c54.7-25.5,112.4-25.5,167.1,0c7.3,3.4,11.5,15.3,9.4,25.9c-0.9,4.5-1.7,8.9-2.6,13.4
			C238.6,171.3,231.6,177.1,225.3,174z"/>
	</g>
</g>
<g id="XMLID_3_">
	<g id="XMLID_15_">
		<path id="XMLID_124_" class="st7" d="M89.4,129.7C89.4,129.7,89.4,129.7,89.4,129.7c0,0.1,0,0.1-0.1,0.1c0,0,0,0,0,0c0,0,0,0,0,0
			c0.1,0,0.1,0,0.2-0.1c0.1,0,0.1,0,0.2,0c0,0,0,0,0,0c0.1,0,0.1,0,0.2,0c0.5-0.1,0.8-0.1,1.4-0.2c0.1,0,0.4,0,0.9,0.2
			c0.3-0.1,0.7,0.2,1.2,0.9c0.1,0.2,0.1,0.4,0.2,0.5c0,0,0,0,0,0.1c0,0,0,0.1,0.1,0.1c0,0.1,0,0.1,0,0.2c0,0,0,0,0,0c0,0,0,0,0,0
			c0,0,0,0,0,0c0.1,0.8,0.1,1.2,0.2,2c0,0,0,0,0,0.1c0,0,0,0,0,0.1c0.1,0.2,0.1,0.6,0.2,1c0,0.1,0,0.2,0.1,0.3c0,0,0,0.1,0,0.1
			c-0.4,0.1-0.6,0.1-1,0.2c-0.7,0.1-1,0.2-1.7,0.3c0,0,0,0,0,0c0,0,0,0,0,0c-0.3,0.1-0.5,0.1-0.9,0.1c-0.1,0-0.1,0-0.2,0
			c-0.1,0-0.3,0-0.4,0c-0.1,0-0.1,0-0.1,0c0-0.1,0-0.1,0-0.1c0,0,0,0,0,0c0,0,0,0,0,0c0-0.4-0.1-0.5-0.1-0.9c0-0.1,0-0.1-0.1-0.2
			c0,0,0-0.1,0-0.1c0,0,0.1,0,0.1,0c0,0,0,0,0-0.1c-0.1,0-0.1,0-0.1,0c0,0,0-0.1,0-0.1c0,0,0-0.1,0.1-0.1c0,0,0,0,0,0
			c0,0,0,0-0.1-0.1c0,0,0,0,0,0c0,0,0,0,0,0c0,0,0,0,0-0.1c0,0,0,0-0.1,0c-0.1,0-0.1,0-0.2,0c-0.1,0-0.1,0-0.2,0
			c-0.1,0-0.1,0-0.1,0.1c0,0,0,0,0,0c0,0,0,0,0,0c0,0,0,0,0,0c-0.1,0-0.2,0-0.3,0c0,0,0,0,0,0c0,0,0,0.1-0.1,0.1c0,0,0,0,0,0
			c0,0,0,0,0,0c0,0,0,0,0,0c0,0,0,0,0,0c0,0-0.1,0-0.1,0c-0.1,0-0.1,0-0.1,0c0,0,0,0,0,0c0,0,0,0,0,0c0,0,0,0,0,0c0,0,0,0,0,0
			c-0.1,0-0.1,0-0.2,0c0,0,0,0,0,0c0,0,0-0.1-0.1-0.1c0,0,0,0,0,0c0,0,0,0,0.1,0.1c0,0,0,0,0,0c0,0-0.1,0-0.1,0c0,0,0,0,0-0.1
			c-0.1,0-0.1,0-0.2,0c0,0,0,0,0,0.1c0,0,0,0-0.1,0c0,0,0,0,0-0.1c-0.4,0.1-0.6,0.1-1,0.2c-0.4,0.1-0.6,0.1-1,0.2c0,0,0,0-0.1,0
			c0,0,0,0,0-0.1c0,0,0,0,0.1,0c0,0,0,0,0,0c0,0,0,0-0.1,0c-0.1,0-0.1,0-0.2,0.1c0,0,0,0,0,0c0,0,0.1,0.1,0.1,0.1c0,0,0,0,0,0
			c0,0.2,0,0.3,0,0.3c0,0,0,0,0,0c0.1,0.4,0.1,0.7,0.2,1.1c0,0,0,0,0,0c0,0,0,0,0,0c0,0.2,0,0.3,0.1,0.5c0.1,0.3,0.1,0.4,0.1,0.7
			c0.1,0.4,0.1,0.6,0.2,1c0,0,0,0,0,0.1c0,0,0,0.1,0,0.1c0,0.1,0,0.1,0,0.1c0,0.1,0,0.2,0,0.3c0,0.2,0.1,0.3,0.1,0.5
			c0,0.1,0,0.2,0,0.3c0,0,0,0,0,0c0,0.1,0,0.2,0,0.3c0,0.2,0.1,0.4,0.1,0.6c0,0.1,0,0.1,0.1,0.2c0,0.1,0,0.1,0,0.1c0,0,0,0,0,0
			c0,0.2,0,0.2,0.1,0.4c0.1,0.6,0.2,0.8,0.3,1.4c0,0,0,0,0,0c0,0,0,0,0,0c0.1,0,0.1-0.1,0.2-0.1c0.1,0,0.1,0,0.1,0
			c0,0.1,0,0.1,0.1,0.2c0,0,0,0,0,0c0-0.1,0-0.2,0-0.2c0.6-0.1,0.9-0.2,1.4-0.3c0,0,0,0,0,0c0,0,0,0,0,0c0,0,0,0,0,0
			c0.3,0,0.4-0.1,0.7-0.1c0.5-0.1,0.7-0.1,1.2-0.2c0,0,0.1,0,0.1,0.1c0,0,0,0,0,0c0,0,0,0,0,0c0,0,0,0,0.1,0c0,0,0,0,0,0
			c0,0,0-0.1,0-0.1c0.1,0,0.1,0,0.2,0c0-0.1,0-0.1,0-0.1c0,0,0,0,0,0c-0.1,0-0.2,0-0.2-0.1c0-0.1,0-0.1,0-0.2c0.1,0,0.1,0,0.2,0
			c0,0,0.1,0,0.1,0c0,0,0,0,0,0c0,0-0.1,0-0.1,0c0,0-0.1,0-0.1,0c0,0,0,0-0.1,0c-0.1-0.4-0.1-0.5-0.2-0.9c-0.1-0.4-0.1-0.6,0.1-0.6
			c0.2,0,0.3,0,0.4-0.1c1.4-0.2,2.1-0.3,3.5-0.6c0,0,0,0,0,0c0,0.3,0.1,0.5,0.1,0.8c0.1,0.5,0.1,0.8,0.2,1.3c0,0.1,0,0.2,0,0.3
			c0,0.1,0.1,0.2,0.1,0.3c0.1,0.4,0.1,0.6,0.2,0.9c0.1,0.8,0,1.4-0.2,1.7c-0.3,0.4-0.7,0.8-1.2,0.8c-0.1,0-0.1,0-0.1,0c0,0,0,0,0,0
			c0,0,0,0,0,0c0,0-0.1,0-0.1,0c-0.1,0-0.2,0-0.3,0.1c-0.1,0-0.2,0-0.3,0c-0.9,0.2-1.3,0.2-2.2,0.4c-0.2,0-0.4,0.1-0.6,0.1
			c0,0,0,0,0,0c0,0,0,0,0,0c-0.1,0-0.1,0-0.2,0c-0.2,0-0.2,0-0.4,0.1c0,0-0.1,0-0.1,0c-0.1,0-0.3,0-0.7,0.1
			c-0.8,0.1-1.2,0.2-1.9,0.4c-0.1,0-0.1,0-0.1,0c0,0,0,0,0,0c-0.2,0-0.3,0.1-0.5,0.1c0,0-0.1,0-0.1,0c-0.1,0-0.1,0-0.1,0.1
			c-0.2,0-0.3,0.1-0.5,0.1c-0.2,0-0.4,0-0.7-0.1c-0.1-0.1-0.2-0.1-0.4-0.1c-0.4-0.3-0.7-0.5-0.7-0.7c-0.1-0.1-0.2-0.3-0.3-0.5
			c0,0,0-0.1,0-0.1c0-0.1,0-0.1-0.1-0.2c0-0.2-0.1-0.3-0.1-0.5c0,0,0,0,0-0.1c0-0.1,0-0.1,0-0.2c0-0.2-0.1-0.3-0.1-0.5
			c0-0.1,0-0.2,0-0.3c0,0,0,0,0,0c0-0.2,0-0.2-0.1-0.4c-0.1-0.3-0.1-0.5-0.2-0.8c0-0.2,0-0.3-0.1-0.5c0,0,0,0,0.1,0
			c-0.1-0.3-0.1-0.4-0.2-0.6c0,0,0,0,0,0c0,0,0,0,0,0c0-0.1-0.1-0.1-0.1-0.2c0,0,0,0,0-0.1c-0.1-0.3-0.1-0.4-0.2-0.7
			c-0.1-0.4-0.1-0.5-0.2-0.9c0-0.2-0.1-0.2-0.1-0.4c0,0,0,0,0,0c0-0.1,0-0.2-0.1-0.3c-0.3-1.5-0.5-2.3-0.8-3.9c0-0.1,0-0.1,0-0.1
			c0,0,0,0,0,0c0,0,0,0,0,0c0-0.2,0-0.2-0.1-0.4c-0.1-0.3-0.1-0.4-0.2-0.7c0,0,0,0,0-0.1c0,0,0-0.1,0-0.1c0,0,0,0,0,0
			c0-0.4,0-0.8,0.1-1.1c0.2-0.4,0.4-0.6,0.7-0.7c0,0,0,0,0,0c0,0,0,0,0-0.1c0,0,0,0,0,0c0,0,0,0,0,0c0.2-0.1,0.4-0.3,0.7-0.3
			c0.2,0,0.2,0,0.4-0.1c0.1,0,0.1,0,0.2,0c0,0,0,0,0,0c0,0,0,0,0,0c0.4,0,0.7-0.1,1.1-0.1c0,0,0,0,0,0c0,0,0,0,0,0c0,0,0,0,0-0.1
			c0.8-0.2,1.2-0.2,2-0.4c0.1,0,0.1,0,0.1,0c0,0,0,0,0,0c0,0,0,0,0,0c0.5-0.1,0.7-0.1,1.2-0.2c0.3-0.1,0.4-0.1,0.7-0.1
			c0.1,0,0.2,0,0.3-0.1c0.2,0,0.3,0,0.6-0.1c0.1,0,0.1,0,0.1,0c0.1,0,0.2,0,0.3-0.1c0,0,0,0,0,0c0,0-0.1,0-0.1,0c0,0,0,0,0,0
			C89.3,129.8,89.3,129.7,89.4,129.7z M85.8,134.4C85.8,134.4,85.8,134.4,85.8,134.4c0.1,0,0.2,0,0.3-0.1c0,0,0,0,0,0
			C86,134.3,85.9,134.3,85.8,134.4C85.8,134.3,85.8,134.3,85.8,134.4z M86.3,134.2C86.2,134.2,86.2,134.2,86.3,134.2
			C86.2,134.2,86.2,134.3,86.3,134.2c0,0,0.1,0,0.1,0C86.4,134.2,86.4,134.2,86.3,134.2C86.3,134.2,86.3,134.2,86.3,134.2z
			 M86.9,134.1C86.9,134.1,86.9,134.1,86.9,134.1c0.1,0,0.1,0,0.1,0c0,0,0,0,0.1,0c0,0,0,0-0.1,0C87,134.1,87,134.1,86.9,134.1z
			 M87.4,134C87.4,134.1,87.4,134.1,87.4,134c0.1,0,0.1,0,0.2,0c0,0,0,0,0,0C87.5,134,87.4,134,87.4,134z M87.7,134
			C87.7,134,87.7,134,87.7,134c0.1,0,0.1,0,0.1,0c0,0,0,0,0,0C87.7,134,87.7,134,87.7,134z M88.2,133.9
			C88.2,133.9,88.2,134,88.2,133.9c0.1,0,0.1,0,0.1,0C88.3,133.9,88.3,133.9,88.2,133.9C88.2,133.9,88.2,133.9,88.2,133.9z
			 M88.4,133.9C88.4,133.9,88.4,133.9,88.4,133.9c0.1,0,0.1,0,0.1,0c0,0,0,0,0,0C88.5,133.9,88.5,133.9,88.4,133.9z"/>
		<path id="XMLID_113_" class="st7" d="M104.3,127.4c0,0,0.1,0,0.1,0c0,0,0,0,0,0c0,0,0,0,0,0c0.2,0,0.4,0,0.6-0.1
			c0.1,0,0.2,0,0.4,0c0.1,0,0.2-0.1,0.3-0.1c0,0,0,0,0,0c0.1,0,0.1,0,0.2-0.1c0.1,0,0.1,0,0.1,0.1c0.1,0,0.5,0,0.9,0.1
			c0.2,0,0.3,0.2,0.3,0.3c0.2,0.2,0.3,0.4,0.4,0.4c0,0,0,0,0.1,0c0,0,0,0,0,0c0.1,0,0.2,0.2,0.2,0.6c0,0,0,0,0,0
			c0,0.1,0.1,0.1,0.1,0.1c0,0,0,0.1,0,0.1c0,0,0,0,0,0c0,0,0,0,0,0c0,0,0,0,0,0c0,0.1,0,0.2,0.1,0.3c0,0.3,0,0.5,0.1,0.8
			c0.1,0.7,0.1,1.1,0.2,1.8c0,0.1,0,0.1,0,0.2c0,0.1,0,0.1,0,0.2c0,0.3,0,0.4,0.1,0.6c0,0.1,0,0.1,0,0.2c0,0.1,0,0.1,0.1,0.2
			c0,0.1,0,0.2,0,0.3c0,0.1,0,0.1,0,0.1c0,0.3,0,0.4,0.1,0.6c0,0.1,0,0.1,0,0.2c0,0.2,0,0.2,0,0.4c0,0.3,0.1,0.4,0.1,0.7
			c0.3,2.1,0.4,3.2,0.7,5.3c0,0.1,0,0.2,0.1,0.3c0,0.5-0.2,1-0.4,1.3c-0.3,0.4-0.8,0.6-1.5,0.7c-0.3,0-0.4,0.1-0.7,0.1
			c-0.8,0.1-1.2,0.1-2,0.2c-0.5,0.1-0.8,0.1-1.3,0.2c-0.3,0.1-0.4,0.1-0.7,0.1c0,0,0,0,0,0c-0.1,0-0.1,0-0.2,0.1
			c-2.2,0.3-3.3,0.5-3.3,0.5c0,0,0,0,0,0c0,0-0.1,0-0.1,0c-0.4,0.1-0.9-0.1-1.5-0.5c-0.3-0.3-0.5-0.7-0.6-1.3
			c-0.1-0.3-0.1-0.4-0.1-0.7c0-0.1,0-0.1,0-0.2c-0.1-0.1-0.2-0.9-0.5-2.4c-0.4-2.6-0.6-3.9-1-6.4c-0.1-0.3-0.1-0.5-0.2-0.8
			c0,0,0,0,0,0c0,0,0,0,0,0c0,0,0-0.1,0-0.1c-0.1-0.3-0.1-0.5-0.2-0.8c0-0.1,0-0.2,0-0.3c-0.1-0.9,0.2-1.6,0.9-2c0,0,0,0,0,0
			c0,0,0.1,0,0.1,0c0.1,0,0.2,0,0.3-0.1c0,0,0,0,0,0c-0.1,0-0.1,0-0.2,0c0,0,0,0,0,0c0.2-0.1,0.4-0.2,0.7-0.2c0.1,0,0.1,0,0.2,0
			c0,0,0,0,0,0c0,0,0,0,0,0c0,0,0,0,0,0c0,0,0,0,0,0c0,0,0.1,0,0.1,0c0,0,0.1,0,0.1,0c0.2-0.1,0.4-0.1,0.7-0.2
			c1-0.1,1.5-0.2,2.4-0.4c0.1,0,0.2,0,0.3-0.1c0,0,0,0,0,0c0,0,0,0,0,0c0.1,0,0.2,0,0.3,0c0,0,0,0,0,0c0,0,0,0,0,0
			c0.3,0,0.4-0.1,0.7-0.1c0,0,0,0,0,0c0,0,0,0,0,0c0.8-0.1,1.2-0.2,2-0.3C104.2,127.4,104.2,127.4,104.3,127.4z M96.8,128.7
			C96.8,128.7,96.8,128.7,96.8,128.7C96.8,128.7,96.8,128.7,96.8,128.7c0.1,0,0.2,0,0.2,0c0,0,0,0,0,0c0,0,0,0,0,0
			C96.9,128.6,96.8,128.6,96.8,128.7z M97,128.6C97,128.6,97,128.6,97,128.6c0,0,0.1,0,0.1,0c0,0,0,0,0,0
			C97.1,128.6,97.1,128.6,97,128.6C97.1,128.6,97.1,128.6,97,128.6z M101.4,131.9c0,0-0.1,0-0.1,0c0,0,0,0-0.1,0c-0.1,0-0.1,0-0.1,0
			c0,0,0,0,0,0c0,0,0,0,0,0c0,0,0,0,0,0c0,0,0,0,0,0c0,0,0,0,0,0c-0.1,0-0.1,0-0.2,0c-0.1,0-0.1,0-0.1,0c-0.1,0-0.2,0-0.3,0.1
			c0,0,0,0,0,0c0,0,0,0-0.1,0c-0.2,0-0.2,0-0.4,0c0,0.1,0,0.2,0,0.3c0,0,0,0.1,0,0.1c0,0,0,0.1,0.1,0.1c0,0.2,0,0.4,0.1,0.6
			c0.1,0.4,0.1,0.6,0.2,1c0,0,0,0,0,0c0,0,0,0,0,0c0.1,0.4,0.1,0.6,0.1,1c0,0,0,0,0,0c0,0,0,0,0,0c0,0.5,0,0.9,0.1,1.2
			c0,0.1,0,0.2,0.1,0.4c0.2,0.8,0.2,1.2,0.4,2c0,0,0,0,0,0c0,0,0,0,0,0c0,0.1,0,0.1,0,0.1c0,0.1,0,0.2,0.1,0.4c0,0,0,0,0,0
			c0,0,0,0,0,0c0,0,0,0,0,0c0,0.1,0,0.1,0,0.2c0,0.1,0,0.1,0.1,0.2c0,0.1,0,0.2,0,0.2c0,0,0,0,0,0c0,0,0,0.1,0,0.1
			c0,0.1,0,0.1,0,0.2c0.2-0.1,0.3-0.1,0.5-0.1c0,0,0,0,0.1,0c0,0,0,0,0,0c0,0,0,0,0.1,0c0,0.1,0.1,0.2,0.1,0.3c0,0,0,0,0,0
			c0-0.1,0-0.2-0.1-0.4c0.8-0.1,1.2-0.2,1.9-0.3c0,0,0.1,0,0.1,0c0,0,0.1,0,0.1,0c0.3,0,0.4-0.1,0.6-0.1c0.1,0,0.1,0,0.1,0
			c0.1,0,0.1,0,0.2-0.1c0.1,0,0.1,0,0.2,0c0,0,0.1,0,0.1,0.1c0,0,0,0,0,0c0,0,0,0,0-0.1c0-0.1-0.1-0.2-0.1-0.3c0-0.1,0-0.1,0-0.2
			c0-0.2-0.1-0.3-0.1-0.5c0,0,0,0,0,0c0,0,0,0,0,0c0,0.1,0,0.2,0.1,0.3c0,0,0,0,0,0c0,0,0-0.1,0-0.1c-0.2-0.7-0.3-1.3-0.3-1.6
			c-0.1-0.5-0.1-0.8-0.2-1.3c0,0,0,0,0,0c0,0,0,0,0,0c0-0.1,0-0.1,0-0.1c0-0.2-0.1-0.3-0.1-0.6c0-0.2-0.1-0.4-0.1-0.6
			c0,0,0-0.1,0-0.1c0,0,0,0,0,0c0-0.2,0-0.3,0-0.5c-0.1-0.5-0.1-0.7-0.2-1.2c0,0,0,0,0,0c0.1,0.2,0.1,0.3,0.1,0.5c0,0,0,0,0,0
			c0,0,0,0,0-0.1c-0.1-0.5-0.2-0.8-0.3-0.7c0-0.2,0-0.2,0-0.4c0-0.1,0-0.2,0-0.3c0,0,0-0.1,0.1-0.1c0,0,0,0,0,0c0,0,0,0,0,0
			c0,0,0,0,0-0.1c0,0,0-0.1,0.2-0.1c0,0,0,0,0,0c-0.1,0-0.2,0-0.3,0c0,0.1-0.1,0.1-0.3,0.1c-0.3,0-0.4,0.1-0.7,0.1
			c0-0.1,0-0.1-0.1-0.1C102.4,131.6,102,131.7,101.4,131.9z M105.3,138.9C105.3,138.9,105.3,139,105.3,138.9
			C105.3,139,105.3,139,105.3,138.9C105.3,139,105.3,138.9,105.3,138.9C105.3,138.9,105.3,138.9,105.3,138.9z M104.6,133.2
			C104.6,133.2,104.6,133.3,104.6,133.2C104.6,133.3,104.6,133.3,104.6,133.2C104.6,133.3,104.6,133.2,104.6,133.2
			C104.6,133.2,104.6,133.2,104.6,133.2z M104.6,133.4C104.6,133.4,104.6,133.4,104.6,133.4c0,0.2,0.1,0.3,0.1,0.4c0,0,0,0,0,0
			c0-0.1,0-0.1,0-0.2C104.7,133.5,104.7,133.5,104.6,133.4C104.6,133.4,104.6,133.4,104.6,133.4z M104.8,133.9c0,0,0,0.1,0,0.1
			c0,0,0,0,0,0C104.8,133.9,104.8,133.9,104.8,133.9C104.8,133.9,104.8,133.9,104.8,133.9z M104.8,134c0,0,0,0.1,0,0.1
			c0,0,0,0,0,0.1c0,0,0,0,0,0c0,0,0,0,0,0C104.8,134.1,104.8,134.1,104.8,134C104.8,134,104.8,134,104.8,134z M104.9,134.4
			C104.9,134.4,104.9,134.4,104.9,134.4C104.9,134.5,104.9,134.5,104.9,134.4C104.9,134.5,104.9,134.5,104.9,134.4
			C104.9,134.5,104.9,134.4,104.9,134.4C104.9,134.4,104.9,134.4,104.9,134.4z"/>
		<path id="XMLID_102_" class="st7" d="M110.4,126.6C110.4,126.6,110.4,126.6,110.4,126.6C110.4,126.6,110.4,126.7,110.4,126.6
			C110.4,126.7,110.4,126.7,110.4,126.6c0.3,0,0.4,0,0.5,0c1.5-0.2,2.3-0.2,3.8-0.4c0.2,0,0.2-0.1,0.4-0.1c0.3,0,0.4,0,0.7-0.1
			c0.7-0.1,1-0.1,1.7-0.1c0.7-0.1,1-0.1,1.6-0.2c0.3,0,0.5,0,0.9-0.1c0,0,0,0,0.1,0c0.1,0,0.2,0,0.3,0c0,0,0,0,0,0
			c0.1,0,0.2,0,0.3,0c0,0,0,0,0,0c0,0,0,0,0,0c0.2,0,0.2,0,0.4-0.1c0.1,0,0.2,0,0.3,0c0.8-0.1,1.1-0.1,1.9-0.2c0,0,0,0,0,0
			c0,0,0,0,0,0c0,0,0,0,0,0c0.1,0,0.2,0,0.3,0c1.8-0.1,2.6-0.2,4.4-0.3c0.1,0,0.2,0,0.3,0c0,0,0,0,0,0c0,0,0,0,0,0c0,0,0,0,0,0
			c0.8,0,1.2,0,2,0c0,0,0-0.1,0.1-0.1c0.6,0.2,0.9,0.3,0.9,0.5c0.3,0.3,0.4,0.5,0.4,0.6c0,0.1,0,0.2,0,0.3c0,0,0,0,0,0
			c0-0.1,0-0.1,0-0.2c0,0,0,0,0.1,0c0.1,0.2,0.1,0.4,0.1,0.6c0,0.3,0,0.4,0,0.7c0,0.9,0.1,1.3,0.1,2.2c0,0,0,0,0,0c0,0,0,0,0,0
			c0,0,0,0,0,0.1c0,0.5,0,0.7,0,1.2c0,0.1,0,0.1,0,0.2c0.1,1.2,0.1,1.8,0.2,2.9c0,0.5,0,0.8,0.1,1.3c0.1,1.7,0.1,2.5,0.2,4.2
			c0,0.1,0,0.2,0,0.3c0,0.2,0,0.4,0.1,0.4c0.1,1.9,0.2,2.9,0.3,4.8c0,0,0,0,0,0c-1.1-1-1.6-1.5-2.7-2.5c-0.4-0.4-0.7-0.6-1.1-1
			c-0.2-0.2-0.3-0.2-0.4-0.4c-0.1-0.4-0.2-1-0.3-1.8c0,0,0,0,0,0c0,0,0,0,0,0c0-0.1,0-0.1-0.1-0.2c0-0.2,0-0.4,0-0.6
			c0-0.1,0-0.1,0-0.1c0,0,0,0,0,0c0,0,0,0,0,0c0-0.3,0-0.4-0.1-0.7c0-0.2,0-0.4,0-0.6c0,0,0,0,0,0c0,0,0,0,0,0c0-0.2,0-0.2,0-0.4
			c0-0.1,0-0.1,0-0.2c0-0.1,0-0.2-0.1-0.3c0-0.2,0-0.2,0-0.4c0-0.1,0-0.2,0-0.3c0-0.1,0-0.2,0-0.4c0-0.6-0.1-0.9-0.1-1.6
			c0-0.2,0-0.2,0-0.4c0,0,0-0.1,0-0.1c0-0.1,0-0.1,0-0.2c0-0.1,0-0.1,0-0.2c0,0,0-0.1,0-0.1c0,0,0-0.1,0-0.1c0-0.1,0-0.1,0-0.1
			c0-0.1,0-0.1,0-0.2c0-0.1,0-0.2,0-0.3c0,0,0,0,0-0.1c0-0.1,0-0.1,0-0.1c0,0,0,0,0-0.1c0,0,0-0.1,0-0.1c0-0.8-0.1-1.2-0.1-2
			c0,0,0.1,0,0.1,0c0,0-0.1,0-0.1-0.1c-0.1,0-0.1,0-0.2,0.1c-0.1,0-0.1,0-0.2,0c-0.1,0-0.2,0-0.3,0c-0.1,0-0.2,0-0.2-0.2
			c0,0,0,0,0,0c0,0,0,0,0,0c0,0.1,0,0.1,0,0.2c-0.4,0-0.5,0-0.9,0c-0.4,0-0.6,0.1-0.9,0.1c-0.5,0-0.7,0-1.1,0.1c-0.1,0-0.2,0-0.3,0
			c0,0,0,0.1,0,0.1c-0.1,0-0.2,0-0.3,0c0,0,0,0,0,0c0,0.2,0,0.2,0,0.4c-0.1,0.1-0.1,0.2-0.1,0.3c0,0,0,0,0,0.1c0,0.2,0.1,0.5,0.2,1
			c0,0.2,0,0.4,0,0.6c0.1,1.7,0.2,2.5,0.3,4.2c0.2,2.1,0.3,3.2,0.5,5.3c-0.3,0-0.4,0-0.7,0.1c-0.1,0-0.2,0-0.3,0c-0.1,0-0.1,0-0.2,0
			c0,0,0,0-0.1,0c-0.1,0-0.1,0-0.1,0c-0.1,0-0.1,0-0.2,0c-0.3,0-0.4,0-0.7,0c0,0,0,0,0,0c-0.1,0-0.1,0-0.1,0
			c-0.5,0.1-0.7,0.1-1.2,0.1c0,0-0.1,0-0.1,0c0,0-0.1,0-0.1,0c-0.1,0-0.1,0-0.1,0c-0.1,0-0.1,0-0.2-0.1c0-0.4-0.1-0.6-0.1-0.9
			c0-0.5-0.1-0.8-0.1-1.3c0-0.2,0-0.4-0.1-0.6c0,0,0,0,0,0c0,0,0,0,0,0c0,0,0-0.1,0-0.1c0,0,0-0.1,0-0.1c0,0,0,0,0.1,0
			c0,0.1,0,0.1,0,0.2c0,0,0,0,0,0c0-0.1,0-0.2,0-0.3c0,0,0,0,0,0c0-0.4-0.1-0.6-0.1-0.8c0,0,0-0.1,0-0.1c0,0,0,0,0,0c0,0,0,0,0,0
			c-0.1-0.5-0.2-1.3-0.4-2.4c0,0,0,0,0,0c0,0,0,0,0,0c0-0.3,0-0.5-0.1-0.8c0,0,0,0,0,0c0,0,0,0,0,0c0-0.2,0-0.2,0-0.4
			c0-0.3,0-0.5,0-0.8c0,0,0,0,0.1,0c0.1,0.5,0.1,0.8,0.2,1.3c0,0,0,0,0,0c0,0,0-0.1,0-0.1c-0.1-0.9-0.3-2.1-0.4-3.4
			c0-0.1,0-0.1,0-0.2c0,0,0,0,0,0c0,0.2,0.1,0.3,0.1,0.6c0,0,0,0,0.1,0c0-0.3-0.1-0.4-0.1-0.7c0,0,0,0,0.1,0c0,0,0,0,0-0.1
			c-0.1,0-0.2-0.1-0.2-0.4c0,0,0,0,0,0c0,0,0,0,0-0.1c-0.1,0-0.2,0-0.3,0.1c-0.8,0.1-1.1,0.1-1.9,0.1c-0.5,0.1-0.8,0.1-1.3,0.1
			c0,0-0.1,0-0.1,0c0,0-0.1,0-0.1,0c0,0,0,0,0,0c-0.1,0-0.1,0-0.2,0c-0.1,0-0.2,0-0.3,0c-0.1,0-0.1,0-0.1,0c0,0,0,0,0,0c0,0,0,0,0,0
			c0,0,0,0,0,0c0,0,0,0,0,0c0,0-0.1,0.1-0.1,0.2c0,0-0.1,0.1-0.1,0.1c0,0,0,0,0,0c0,0,0.1,0,0.1,0.1c0,0,0,0,0,0c0,0-0.1,0-0.1,0
			c0,0,0,0,0.1,0c0,0.1,0,0.1,0,0.2c0,0,0,0,0,0c0,0.1,0,0.3,0,0.6c0.1,0.8,0.1,1.2,0.2,2c0.1,0.9,0.1,1.3,0.2,2.1c0,0,0,0,0,0
			c0,0,0,0,0,0c0,0.3,0,0.4,0.1,0.7c0,0,0,0,0,0c0,0,0,0,0,0c0,0,0,0,0,0c0.1,0.6,0.1,0.9,0.1,1.5c0,0.1,0,0.2,0.1,0.3
			c0,0.2,0,0.4,0,0.6c0,0.4,0.1,0.6,0.1,1c0,0,0,0,0,0c0,0,0,0,0,0c0,0,0,0,0,0.1c0,0,0,0,0,0c0,0,0,0,0,0c0,0.1,0,0.2,0,0.3
			c0.1,0.5,0.1,0.7,0.2,1.2c0,0,0,0,0,0c0,0,0,0,0,0c0,0,0,0.1,0,0.1c0,0.2,0,0.2,0,0.4c0,0,0,0,0,0c0,0,0,0,0,0c0,0,0,0,0,0
			c0,0,0,0.1-0.1,0.1c-1.2,0.1-1.7,0.2-2.9,0.3c0,0,0,0-0.1,0c-0.1,0-0.2,0-0.3,0c-0.2,0-0.2,0-0.4,0c-0.1,0-0.1,0-0.1,0
			c-0.1,0-0.1,0-0.1,0c-0.1,0-0.1-0.1-0.2-0.2c0-0.2,0-0.2,0-0.4c0,0,0,0,0-0.1c0-0.1,0-0.1-0.1-0.1c-0.2-2-0.3-3-0.5-5
			c0-0.1,0-0.1,0-0.2c0-0.2,0-0.2,0-0.4c0,0,0,0,0-0.1c0-0.2,0-0.2-0.1-0.4c0-0.2,0-0.3,0-0.5c0-0.2,0-0.4-0.1-0.6
			c0-0.2,0-0.2-0.1-0.4c0,0,0,0,0,0c0,0,0,0,0,0c-0.1-0.5-0.2-1.2-0.3-2.1c0-0.1,0-0.1,0-0.1c0,0,0,0,0,0c0-0.1,0-0.1,0-0.2
			c0,0,0,0,0,0c0-0.3,0-0.4,0-0.6c-0.1-0.7-0.2-1.4-0.3-2c0-0.2,0-0.3-0.1-0.4c0,0,0-0.1,0-0.1c0,0,0-0.1,0-0.1
			c-0.1-0.5-0.1-0.7-0.1-1.1c0-0.1,0-0.1,0-0.1c0,0,0-0.1,0-0.1c0-0.2,0-0.3-0.1-0.6c0,0,0.1-0.1,0.2-0.1c0.1,0,0.1,0,0.2,0
			C110.2,126.6,110.3,126.6,110.4,126.6z M115.6,130.1C115.6,130.2,115.6,130.2,115.6,130.1C115.6,130.2,115.6,130.2,115.6,130.1
			C115.7,130.2,115.7,130.2,115.6,130.1C115.6,130.1,115.6,130.1,115.6,130.1z M119.5,134.5c0,0.1,0,0.1,0,0.1c0,0,0,0.1,0,0.1
			c0,0,0,0,0,0c0,0,0,0,0,0C119.5,134.7,119.5,134.6,119.5,134.5C119.5,134.5,119.5,134.5,119.5,134.5z M119.5,134.8
			c0,0.1,0,0.1,0,0.1c0,0,0,0,0.1,0c0,0,0,0,0,0C119.6,134.9,119.6,134.9,119.5,134.8C119.5,134.8,119.5,134.8,119.5,134.8z
			 M119.6,135.1C119.6,135.2,119.6,135.2,119.6,135.1C119.6,135.2,119.6,135.2,119.6,135.1C119.6,135.2,119.6,135.2,119.6,135.1
			C119.6,135.1,119.6,135.1,119.6,135.1z M119.6,135.3C119.6,135.3,119.6,135.4,119.6,135.3C119.6,135.4,119.6,135.4,119.6,135.3
			C119.7,135.4,119.7,135.4,119.6,135.3C119.6,135.4,119.6,135.4,119.6,135.3z M119.7,135.5C119.7,135.5,119.7,135.6,119.7,135.5
			C119.7,135.6,119.7,135.6,119.7,135.5C119.7,135.6,119.7,135.6,119.7,135.5C119.7,135.5,119.7,135.5,119.7,135.5z M119.7,135.9
			c0,0,0,0.1,0,0.1C119.8,136,119.8,136,119.7,135.9C119.8,135.9,119.8,135.9,119.7,135.9C119.7,135.9,119.7,135.9,119.7,135.9z
			 M119.8,136C119.8,136,119.8,136,119.8,136C119.8,136,119.8,136,119.8,136C119.8,136,119.8,136,119.8,136z M131.8,126.5
			C131.8,126.5,131.8,126.5,131.8,126.5c0,0.1,0,0.1,0,0.2c0,0,0,0,0,0C131.9,126.6,131.9,126.6,131.8,126.5
			C131.9,126.5,131.9,126.5,131.8,126.5z"/>
		<path id="XMLID_97_" class="st7" d="M135.9,124.6c0.1,0,0.1,0,0.2,0c0,0,0,0,0,0c0,0,0,0,0,0c0.2,0,0.3,0,0.5,0c0.1,0,0.2,0,0.3,0
			c0.1,0,0.2,0,0.3,0c0,0,0.1,0,0.1,0c0.1,0,0.1,0,0.1,0c0.1,0,0.1,0,0.2,0c0,0,0.1,0,0.1,0c0,0,0,0,0.1,0c0.1,0,0.2,0,0.3,0
			c0,0,0,0,0.1,0c0.1,0,0.1,0,0.1,0c0,0,0,0,0,0c0,0,0.1,0,0.1,0c0,0,0.1,0,0.1,0c0,0,0.1,0,0.1,0c0.1,0,0.2,0,0.3,0
			c0,0,0.1,0,0.1,0c0,0,0.1,0,0.1,0c0,0,0,0,0,0c0,0,0.1,0,0.1,0c0,0,0.1,0,0.1,0c0,0,0,0,0,0c0,0,0,0,0,0c0.1,0,0.1,0,0.1,0
			c0.1,0,0.1,0,0.2,0c0.6,0,0.9,0,1.5,0c1.1,0,1.8,0,2.2,0c0,0,0,0,0,0c0,0,0,0,0,0c0.2,0,0.3,0,0.5,0c0,0,0,0,0,0c0,0,0,0,0,0
			c0.2,0,0.2,0.1,0.4,0.1c0,0,0,0,0,0c0,0,0,0,0,0c0,0-0.1,0-0.1,0c0,0,0,0,0-0.1c0.2,0,0.3,0,0.5-0.1c0.2,0,0.5,0.1,0.7,0.3
			c0.1,0,0.1,0.1,0.2,0.1c0,0,0,0,0,0c0.2,0,0.5,0.2,0.8,0.7c0.1,0.3,0.2,0.5,0.2,0.7c0,0,0,0.1,0,0.1c0,0,0,0.1,0,0.1
			c0,0.7,0,1-0.1,1.7c0,0,0,0,0,0.1c0,0.1,0,0.2-0.1,0.3c0,0,0,0,0,0c0,0.2,0,0.3,0,0.5c0,0.1,0,0.1,0,0.2c0,0.2,0,0.3,0.1,0.5
			c0,0.1,0,0.1,0,0.1c0,0.2,0,0.3,0,0.5c0,0.9,0,1.4,0,2.3c0,0.9-0.5,1.6-1.5,1.9c-0.1,0-0.1,0-0.2,0c-0.1,0-0.2,0-0.3,0
			c-1.6,0-2.3,0.1-3.9,0.1c0,0-0.1,0-0.1,0c0,0,0,0,0,0c0,0,0,0,0,0c-0.3,0-0.4,0-0.7,0c-0.4,0-0.6,0-1,0c0,0,0,0,0,0
			c-0.1,0-0.1,0-0.1,0c0-0.1,0-0.1,0-0.2c0,0,0,0,0,0c0,0-0.1,0.1-0.1,0.2c0,0-0.1,0-0.1,0c0,0,0,0-0.1,0c0,0,0-0.1,0-0.1
			c-0.1,0.1-0.2,0.2-0.4,0.2c0.1,1.5,0.1,2.2,0.1,3.7c0,0.1,0,0.2,0,0.3c0,0.1,0,0.2,0,0.3c0.1,2.3,0.1,3.4,0.2,5.7
			c0,0.1,0,0.1,0,0.2c0,0,0,0,0,0c-0.2-0.2-1.1-1-2.6-2.4c-1-0.9-1.5-1.3-1.6-1.4c0,0-0.1,0-0.1-0.1c0,0,0,0,0-0.1
			c0-0.1,0-0.2,0-0.3c-0.1-1.5-0.1-2.2-0.1-3.6c0-0.3,0-0.4,0-0.6c0,0,0,0,0-0.1c0,0,0,0,0,0c0,0,0,0,0-0.1c0,0,0,0,0,0
			c0-0.1,0-0.1,0-0.2c0-0.1,0-0.1,0-0.2c0-0.2,0-0.3,0-0.5c0-0.1,0-0.2,0-0.3c-0.1-0.7-0.1-1.1-0.1-1.8c0-0.7,0-1,0-1.7
			c0,0,0-0.1,0-0.1c0,0,0,0,0,0c0-0.1,0-0.1,0-0.2c0-0.4,0-0.6-0.1-1.1c0,0,0,0,0,0c0-0.2-0.1-0.4-0.1-0.7c0-0.4,0-0.5,0-0.9
			c0-0.3,0-0.4,0-0.7c0,0,0,0,0-0.1c0-0.1,0-0.1,0-0.2c0-0.1,0-0.1,0-0.1c0-0.1,0-0.2,0-0.3c0-0.1,0-0.2,0-0.3c0-0.1,0-0.2,0-0.3
			c0-0.7,0-1,0-1.7C134.7,124.6,135.1,124.6,135.9,124.6z M137.8,128.7C137.8,128.7,137.8,128.7,137.8,128.7
			C137.9,128.8,137.9,128.8,137.8,128.7C137.9,128.7,137.9,128.7,137.8,128.7C137.9,128.7,137.9,128.7,137.8,128.7
			C137.8,128.7,137.8,128.7,137.8,128.7z M142.6,128.1c0,0.2,0,0.3-0.1,0.3c-1,0-1.5,0-2.5,0.1c0,0,0,0,0,0c0,0,0,0,0,0
			c-0.1,0-0.2,0-0.4,0c0,0,0,0,0,0c0,0,0,0,0,0c0,0,0,0-0.1,0c-0.4,0-0.6,0-0.6-0.1c0,0,0,0,0,0c0,0,0,0,0,0c0,0,0,0,0,0
			c0,0,0,0,0,0c0,0,0,0,0,0c0,0,0,0,0,0c0,0,0,0,0,0c0,0,0,0,0,0c0,0-0.1,0-0.1,0.1c0,0,0,0,0,0c0,0-0.1,0-0.1-0.2c0,0,0,0,0-0.1
			c0,0-0.1,0.1-0.1,0.2c-0.1,0-0.1,0-0.2-0.1c0,0,0,0,0,0c0,0,0,0,0,0c0,0,0,0,0.1,0c0,0.1,0,0.1,0,0.2c-0.1,0-0.1,0-0.2,0
			c0,0,0,0,0,0c0.1,0,0.1,0,0.2,0c0,0.7,0,1,0.1,1.7c0,0.1,0,0.2,0,0.3c0,0,0.1,0,0.1-0.1c0,0,0,0,0.1,0c0.1,0,0.1,0,0.2,0
			c0.1,0,0.1,0,0.2,0c1.2,0,1.9-0.1,3.1-0.1c0,0.2,0.1,0.3,0.1,0.3c0-0.1,0-0.2-0.1-0.3c0.1,0,0.2,0,0.3,0c0,0,0,0.1,0,0.1
			c0,0,0,0,0,0c0,0,0,0,0,0c0,0,0,0,0,0c0,0,0,0,0-0.1c0.1,0,0.1,0,0.2,0c0,0,0,0.1,0,0.1c0-0.1,0.1-0.1,0.1-0.1c0,0,0-0.1,0-0.1
			c0-0.2,0-0.3,0-0.6c0-0.6,0-0.8,0-1.4c0,0,0,0,0,0C142.7,128.3,142.7,128.3,142.6,128.1C142.6,128.2,142.6,128.2,142.6,128.1z
			 M144.8,124.6C144.8,124.6,144.8,124.6,144.8,124.6C144.9,124.7,144.9,124.7,144.8,124.6C144.9,124.7,144.9,124.7,144.8,124.6
			C144.9,124.6,144.9,124.6,144.8,124.6C144.9,124.6,144.9,124.6,144.8,124.6z"/>
		<path id="XMLID_95_" class="st7" d="M149.2,124.3c1.6,0,2.4,0,4,0c0,0.1,0,0.2,0,0.4c0,0.4,0,0.6,0,1c0,0,0,0,0,0c0,0,0,0,0,0
			c0,0,0,0,0,0c0,2.7,0,4,0,6.7c0,0.5,0,0.8,0,1.3c0,0,0,0.1,0,0.1c0,0,0,0.1,0,0.1c0,0,0,0.1,0,0.1c0,0,0,0.1,0,0.1c0,0,0,0,0,0
			c0,0,0,0,0,0c0,0.3,0,0.5,0,0.9c0,0.3,0,0.4,0,0.6c0,0,0,0.1,0,0.1c0,0,0,0.1,0,0.1c0,0,0,0,0,0.1c0,0.1,0,0.2,0,0.3c0,0,0,0,0,0
			c0.1,0,0.2,0,0.4,0c0,0,0,0,0,0c0,0.1,0,0.1,0.1,0.2c0,0,0.1-0.1,0.1-0.2c0.2,0,0.2,0,0.4,0c0.1,0,0.1,0,0.2,0
			c0.1,0,0.1,0,0.2-0.1c0,0,0,0,0.1,0c0,0,0,0,0.1,0c0,0,0,0,0,0c0.1,0,0.1,0,0.2,0c0.1,0,0.1,0,0.2,0c0,0,0,0,0.1,0
			c0.1,0,0.2,0,0.4,0c0.1,0,0.2,0,0.3,0c0.1,0,0.1,0,0.1,0c0,0,0,0,0,0c0,0,0,0,0,0c0,0,0.1,0,0.1,0c0.7,0,1,0,1.7,0
			c0.2,0,0.3,0,0.5,0c0.1,0,0.2,0,0.3,0c0.1,0,0.1,0,0.2,0c0,0,0,0,0.1,0c0.1,0,0.1,0,0.1,0c0,0,0.1,0,0.1,0c0.1,0,0.1,0,0.2,0
			c0,0,0,0,0.1,0c0.1,0,0.1,0,0.2,0c0.1,0,0.2,0,0.3,0c0.1,0,0.1,0,0.1,0c0,0,0,0,0,0c0,0,0,0,0,0c0,0,0,0,0,0c0,0,0.1,0,0.1,0
			c0.1,0,0.2,0,0.4,0c0,0,0.1,0,0.1,0c0,0,0,0,0.1,0c0.1,0,0.1,0,0.2,0c0,0,0,0,0.1,0c0.2,0,0.2,0,0.4,0c0.3,0,0.5,0,0.8,0
			c0.1,0,0.1,0,0.2,0c0,0.2,0,0.3,0,0.5c0,0.5,0,0.8-0.1,1.3c0,0.6,0,0.9,0,1.6c0,0,0,0,0,0c0,0,0,0,0,0c0,0,0,0.1,0,0.1
			c0,0,0,0,0,0c0,0,0,0,0,0c0,0,0,0,0,0.1c0,0.1,0,0.1,0,0.1c0,0,0,0,0,0.1c0,0,0,0,0,0c0,0,0,0,0,0c0,0,0,0.1,0,0.1
			c0,0,0,0.1,0,0.1c0,0,0,0.1,0,0.1c0,0,0,0,0,0c-1.4,0-2-0.1-3.4-0.1c0,0-0.1,0-0.1,0c0,0-0.1,0-0.1,0c-0.5,0-0.8,0-1.4,0
			c0,0-0.1,0-0.1,0c0,0-0.1,0-0.1,0c-0.1,0-0.1,0-0.2,0c-0.4,0-0.7,0-1.1,0c-0.4-0.1-0.8-0.1-1.2-0.1c-0.2,0-0.2,0-0.4,0
			c0,0,0,0,0,0c0,0,0,0,0,0c-0.1,0-0.1,0-0.2,0c-0.2,0-0.3,0-0.5,0c-0.2,0-0.3,0-0.5,0c-0.1,0-0.1,0-0.2,0c-0.1,0-0.1,0-0.1,0
			c0,0,0,0,0,0c-0.7,0-1.3,0.1-1.8,0.1c-0.3,0-0.4,0-0.7,0c-0.4,0-0.7,0-1.1,0c0-0.2,0-0.3,0-0.5c0-0.2,0-0.3,0-0.5
			c0-0.2,0-0.4,0-0.6c0-0.2,0-0.2,0-0.4c0,0,0-0.1,0-0.1c0,0,0-0.1,0-0.1c0-0.1,0-0.2,0-0.3c0,0,0-0.1,0-0.1c0,0,0,0,0,0
			c0-0.2,0-0.2,0-0.4c0-0.3,0-0.4,0-0.7c0-0.8,0-1.2,0-2c0-0.3,0-0.4,0-0.6c0-0.1,0-0.1,0-0.1c0,0,0,0,0,0c0,0,0,0,0,0
			c0-0.1,0-0.1,0-0.1c0,0,0,0,0,0c0,0,0,0,0,0c0,0,0,0,0,0c0-0.4,0-0.7,0-1.1c0-1.2,0-2.2-0.1-2.9c0,0,0,0,0,0c0-0.1,0-0.1,0-0.1
			c0-0.6,0-0.9,0-1.4c0,0,0-0.1,0-0.1c0,0,0,0,0-0.1c0,0,0,0,0,0c0,0,0,0,0,0c0-0.1,0-0.1,0-0.2c0-1.3,0-1.9,0-3.2
			C148.7,124.3,148.9,124.3,149.2,124.3z"/>
		<path id="XMLID_90_" class="st7" d="M164.3,124.7c0.7,0,1,0,1.7,0.1c0,0,0.1,0,0.1,0c0,0,0,0,0.1,0c0.1,0,0.1,0,0.2,0
			c0.1,0,0.1,0,0.2,0c0,0,0,0,0,0c0,0,0,0,0,0c0.1,0,0.2,0,0.4,0c0.2,0,0.3,0,0.5,0c0,0,0.1,0,0.1,0c0,0,0.1,0,0.1,0c0,0,0,0,0,0
			c0,0,0,0,0,0c0,0,0,0,0.1,0c0,0,0.1,0,0.1,0c0.1,0,0.1,0,0.2,0c0.6,0,0.9,0,1.5,0.1c0,0,0,0,0,0c0,0,0,0,0,0c0,0,0,0,0,0
			c1.1,0.1,1.7,0.1,2.8,0.1c0.1,0,0.1,0,0.2,0c0.1,0,0.2,0,0.3,0c0.1,0,0.2,0,0.3,0c0,0,0.1,0,0.1,0c0,0,0.1,0,0.1,0
			c0.1,0,0.1,0,0.1,0c0.1,0,0.2,0,0.3,0c0,0,0,0,0,0c0,0,0.1,0,0.1,0c0,0,0,0,0,0c0,0,0,0,0.1,0c0,0,0,0,0,0c0.1,0,0.2,0,0.3,0
			c0.1,0,0.2,0,0.3,0c0,0,0,0,0,0c0.1,0,0.2,0,0.3,0c0,0,0,0,0.1,0c0.1,0,0.1,0,0.2,0c0.2,0,0.3,0,0.5,0.1c0.5,0,0.8,0.1,1.3,0.1
			c0,0.2,0,0.3,0,0.4c-0.1,0.3-0.2,0.8-0.3,1.4c-0.1,0.9-0.1,1.3-0.2,2.1c-0.1,0-0.1,0-0.2,0c-0.3,0-0.4,0-0.7-0.1
			c-0.4,0-0.6,0-1-0.1c0,0,0,0,0,0c0,0,0,0,0,0c0,0,0,0,0,0c-0.2,0-0.2,0-0.2-0.1c0,0,0,0-0.1,0c-0.1,0-0.1,0-0.1,0
			c-0.1,0-0.1,0-0.2,0c-0.1,0-0.2,0-0.2-0.1c-0.1,0-0.1,0-0.2,0c0,0-0.1,0-0.1-0.1c0,0,0,0,0,0c-0.2,0-0.4,0-0.6,0c0,0,0,0,0,0
			c0,0,0,0,0,0c-0.1,0-0.2,0-0.3,0c0,0,0,0,0,0c0,0,0,0,0,0c-0.2,0-0.3,0-0.4,0c-0.1,0-0.1,0-0.1,0c-0.1,0-0.1,0-0.1,0
			c-0.1,0-0.1,0-0.1,0c0,0,0,0,0,0c0,0,0,0,0,0c-0.2,0-0.3,0-0.4,0c0,0,0,0,0,0c0,0,0,0,0,0c0,0-0.1,0-0.1,0c0,0,0,0,0,0
			c0,0,0,0,0,0c-0.1,0-0.1,0-0.2,0c0,0,0,0,0,0c0,0,0,0,0,0c-0.1,0-0.1,0-0.2,0c0,0,0,0,0,0c0,0,0,0,0,0c0,0,0,0,0,0
			c-0.2,0-0.4,0-0.6-0.1c-0.2,0-0.3,0-0.5,0c-0.4,0-0.5,0-0.9,0c0-0.1,0-0.1,0-0.1s0,0-0.1,0.1c0,0,0,0,0,0c-0.2,0-0.2,0-0.4,0
			c0,0-0.1,0.1-0.1,0.1c0.1,0,0.2,0,0.4,0c0,0,0,0,0.1,0c0,0.1,0,0.1,0,0.2c0,0,0,0-0.1,0c0,0,0,0,0,0c0,0,0,0,0,0c0,0,0,0,0,0
			c0,0,0,0-0.1,0c0,0,0,0,0,0c0.1,0,0.1,0,0.1,0.1c0,0,0,0,0,0.1c0,0,0,0,0,0c0,0,0,0,0,0c0,0.4,0,0.6-0.1,1c0,0.2,0,0.3,0,0.5
			c0,0,0,0.1,0,0.1c0,0,0,0,0,0c0,0,0,0,0.1,0c0,0,0,0,0,0c0.1,0,0.2,0,0.2,0.1c0.2,0,0.6,0,1,0c0,0,0,0,0,0c0,0,0,0,0,0
			c1.7,0.1,2.5,0.2,4.2,0.3c0.3,0,0.5,0,0.8,0.1c0,0,0,0,0,0c0,0.3,0,0.4-0.1,0.7c-0.1,0.2-0.1,0.4-0.1,0.6c0,0.1,0,0.2,0,0.3
			c0,0.1,0,0.2,0,0.4c0,0.3,0,0.7,0,1.1c0,0.3-0.1,0.5-0.1,0.8c0,0,0,0-0.1,0c0,0,0,0,0,0c-0.3,0-0.5-0.1-0.8-0.1
			c-0.1,0-0.2,0-0.3,0c-0.1,0-0.1,0-0.2,0c-0.1,0-0.2,0-0.3,0c-0.7,0-1.1-0.1-1.8-0.1c-0.1,0-0.1,0-0.2,0c-0.1,0-0.1,0-0.2,0
			c-0.3,0-0.4,0-0.6,0c-0.1,0-0.1,0-0.2,0c0,0,0,0-0.1,0c0,0,0,0,0,0c-0.1,0-0.1,0-0.1,0c-0.1,0-0.2,0-0.3,0c-0.1,0-0.1,0-0.2,0
			c-0.1,0-0.1,0-0.2-0.1c0,0,0,0,0,0c0,0,0,0,0,0c0,0-0.1,0-0.1,0c-0.1,0-0.1,0-0.2,0c-0.1,0-0.1-0.1-0.1-0.3
			c-0.2,0.2-0.3,0.5-0.3,0.7c0,0,0,0,0,0c-0.1,0-0.2,0-0.2,0.1c0.1,0,0.1,0,0.2,0c0,0,0,0.1,0,0.1c0,0.1,0,0.1,0,0.1
			c0,0,0,0.1,0,0.1c0,0.1,0,0.2,0,0.4c0,0-0.1,0.1-0.2,0.1c0,0,0,0,0,0c0.1,0.1,0.1,0.1,0.2,0.1c0,0.1,0,0.2,0,0.3
			c-0.1,0-0.1,0-0.2,0c0,0,0,0,0,0c0.1,0,0.1,0,0.2,0c0,0.1,0,0.1,0,0.2c0,0,0.1,0.1,0.2,0.1c0,0,0,0,0,0c0,0,0,0,0,0c0,0,0,0,0-0.1
			c0.8,0,1.2,0.1,1.9,0.1c0,0,0,0,0,0.1c0,0,0,0,0.1-0.1c0.1,0,0.2,0,0.3,0c0,0,0,0,0,0c0,0,0,0,0,0c0,0,0.1,0,0.1,0
			c0.1,0,0.1,0,0.2,0c0.1,0,0.1,0,0.1,0c0,0,0,0,0.1,0c0.1,0,0.1,0,0.2,0c0,0,0,0,0,0c0,0,0,0,0,0c0,0,0,0,0,0c0,0,0,0,0,0
			c0,0,0.1,0,0.1,0c0.2,0,0.3,0,0.5,0.1c0.9,0.1,1.4,0.1,2.3,0.2c0.1,0,0.1,0,0.2,0c0,0,0.1,0,0.1,0c0.2,0,0.3,0,0.5,0
			c0.2,0,0.2,0,0.4,0.1c0,0,0,0,0,0c0,0,0,0,0,0c0.1,0,0.2,0,0.3,0c0.1,0,0.1,0,0.2,0c0.1,0,0.2,0,0.2,0c0.1,0,0.1,0.1,0.1,0.1
			c0,0.1,0,0.2,0,0.3c0,0.1,0,0.2,0,0.3c0,0,0,0.1,0,0.1c0,0,0,0,0,0c0,0,0,0,0,0c0,0,0,0,0,0c0,0.1,0,0.1,0,0.2c0,0,0,0.1,0,0.1
			c0,0,0,0,0,0c0,0,0,0,0,0.1c0,0.2,0,0.3-0.1,0.5c0,0.2,0,0.4,0,0.6c0,0,0,0.1,0,0.1c0,0,0,0.1,0,0.1c0,0,0,0,0,0c0,0,0,0,0,0.1
			c0,0,0,0,0,0c0,0,0,0,0,0.1c0,0.2,0,0.3-0.1,0.5c0,0.1,0,0.2,0,0.3c0,0,0,0,0,0c0,0,0,0,0,0c0,0,0,0,0,0.1c0,0.1,0,0.2,0,0.3
			c-0.2,0-0.3,0-0.6,0c-0.1,0-0.1,0-0.1,0c0,0,0,0,0,0c-0.1,0-0.2,0-0.3,0c-0.3,0-0.4,0-0.7-0.1c-0.3,0-0.4-0.1-0.7-0.1
			c-0.6,0-0.8,0-1.4-0.1c0,0-0.1,0-0.1,0c0,0-0.1,0-0.1-0.1c-0.1,0-0.2,0-0.3,0c-0.2,0-0.4,0-0.6,0c0,0-0.1,0-0.1,0
			c-0.1,0-0.1,0-0.1,0c-0.6,0-0.9-0.1-1.5-0.1c-0.1,0-0.2,0-0.3,0c0,0-0.1,0-0.1,0c0,0,0,0,0,0c0,0-0.1,0-0.1,0c-0.1,0-0.1,0-0.1,0
			c0,0,0,0,0,0c0,0,0,0,0,0c-0.1,0-0.2,0-0.3,0c-0.1,0-0.2,0-0.3,0c-0.1,0-0.2,0-0.3,0c-0.1,0-0.2,0-0.3,0c-0.1,0-0.1,0-0.2,0
			c-0.1,0-0.1,0-0.2,0c0,0-0.1,0-0.1,0c-0.3,0-0.5,0-0.8-0.1c-0.1,0-0.1,0-0.1,0c-0.1,0-0.1,0-0.2,0c-0.1,0-0.1,0-0.1,0
			c-0.1,0-0.1,0-0.2,0c-0.1,0-0.1,0-0.1,0c-0.2,0-0.3,0-0.6,0c0,0-0.1,0-0.1,0c0,0,0-0.1,0-0.1c0,0,0,0-0.1,0c0,0.1-0.1,0.2-0.4,0.2
			c-0.2,0-0.3,0-0.5,0c0,0,0,0,0,0c0-0.1,0-0.2,0-0.3c0-0.1,0-0.2,0.1-0.4c0,0,0,0,0,0c0,0,0-0.1,0-0.1c0-0.2,0-0.2,0-0.4
			c0-0.1,0-0.2,0-0.3c0,0,0-0.1,0-0.1c0,0,0,0,0,0c0,0,0,0,0-0.1c0-0.3,0-0.4,0.1-0.7c0-0.1,0-0.1,0-0.2c0-0.1,0-0.2,0.1-0.2
			c0-0.2,0-0.6,0-1.1c0.1-2.5,0.2-3.7,0.3-6.2c0.1-0.4,0.1-0.9,0.2-1.7c0,0,0-0.1,0-0.1c0,0,0,0,0-0.1c0,0,0-0.1,0-0.1c0,0,0,0,0,0
			c-0.1-0.2-0.1-0.3-0.1-0.4c0-0.1,0-0.1,0-0.1c0,0,0,0,0,0c0,0,0,0,0,0c0,0,0,0,0,0c0,0,0-0.1,0-0.1c0-0.1,0-0.1-0.1-0.1
			c0,0,0-0.1,0-0.1c0,0,0,0,0,0c0,0,0,0,0,0c0,0,0-0.1,0-0.1c0,0,0,0,0.1,0c0-0.1,0-0.1,0-0.1c0-0.1,0-0.1,0-0.2c0-0.4,0-0.5,0-0.9
			c0-0.3,0-0.4,0.1-0.6c0,0,0,0,0,0c0,0,0,0,0,0c0,0.1,0,0.1,0,0.2c0,0,0,0,0,0c0-0.3,0-0.5,0-0.8
			C164.3,124.9,164.3,124.8,164.3,124.7z M164.4,125.6C164.4,125.6,164.4,125.6,164.4,125.6C164.4,125.7,164.4,125.7,164.4,125.6
			c0.1-0.5,0.2-0.7,0.2-0.7c0.1,0,0.1,0.2,0.2,0.7c0,0,0,0,0,0c0,0,0,0,0,0c0,0,0,0,0,0c-0.1-0.5-0.2-0.7-0.2-0.8c0,0,0,0,0,0
			C164.5,124.8,164.4,125.1,164.4,125.6z M164.9,125.8C164.9,125.8,164.9,125.8,164.9,125.8C164.9,125.9,164.9,125.9,164.9,125.8
			C164.9,125.8,164.9,125.8,164.9,125.8C164.9,125.8,164.9,125.8,164.9,125.8z M164.9,125.9C164.9,125.9,164.9,125.9,164.9,125.9
			c0,0.1,0,0.1,0,0.2c0,0,0,0,0,0c0,0,0,0,0,0C164.9,126,164.9,126,164.9,125.9C164.9,125.9,164.9,125.9,164.9,125.9z"/>
		<path id="XMLID_88_" class="st7" d="M179.8,125.6C179.8,125.6,179.8,125.6,179.8,125.6C179.8,125.6,179.8,125.6,179.8,125.6
			c0.1,0,0.1,0,0.1,0.1c0.1,0,0.2,0,0.4,0c1.7,0.2,2.6,0.2,4.3,0.4c0.6,0.1,1,0.1,1.6,0.2c0.2,0,0.2,0,0.4,0.1c0,0,0,0,0,0
			c0,0,0,0,0,0c0.1,0,0.2,0,0.3,0c0.2,0,0.3,0,0.6,0.1c0.2,0,0.3,0,0.4,0c0,0,0,0,0,0.1c0,0,0,0,0,0c-0.3,0-0.5,0-0.5,0.1
			c0.1,0,0.2,0.1,0.4,0.1c2,0.1,3.2,0.1,3.8,0.2c0,0.1,0,0.1,0,0.2c0,0.2-0.1,0.3-0.1,0.6c0,0.4-0.1,0.6-0.1,1c0,0.1,0,0.2-0.1,0.4
			c0,0,0,0,0,0c0,0,0,0,0,0c0,0.2-0.1,0.4-0.1,0.6c-0.1,0.5-0.1,0.7-0.1,1.2c0,0,0,0.1-0.1,0.1c0,0,0,0-0.1,0c0,0,0,0,0,0
			c-0.1,0-0.1,0-0.2,0c-0.1,0-0.1,0-0.2,0c-0.2,0-0.3-0.1-0.5-0.1c-0.3,0-0.5,0-0.8-0.1c0,0,0,0-0.1,0c0,0,0,0,0,0c0,0,0,0,0,0
			c-0.2,0-0.4,0-0.6-0.1c-0.1,0-0.2,0-0.3-0.1c0,0,0,0-0.1,0c-0.1,0-0.2,0-0.4-0.1c0,0,0,0,0,0c0,0,0,0,0,0c-0.1,0-0.1-0.1-0.2-0.1
			c-0.1,0-0.1,0-0.1,0.1c-0.1,0-0.1,0-0.1,0c0,0-0.1,0-0.1,0c-0.1,0-0.1,0-0.1-0.1c0,0,0,0,0,0c0,0,0,0-0.1,0c0,0,0,0,0,0
			c0,0,0,0.1,0,0.1c0,0-0.1,0-0.1,0c0,0,0,0,0,0c0,0,0,0,0.1,0.1c0,0,0,0.1,0,0.1c0,0,0,0-0.1,0.1c0,0,0,0,0,0c0,0,0,0,0,0
			c0,0.1,0,0.1-0.1,0.2c0,0,0,0,0,0c0,0.1,0,0.1,0,0.2c0,0.3-0.1,0.5-0.1,0.8c0,0,0,0,0,0.1c0,0,0,0,0,0c0,0.1,0,0.1,0,0.2
			c0,0.4-0.1,0.6-0.1,1c0,0.1,0,0.1,0,0.1c0,0,0,0,0,0c0,0.2-0.1,0.4-0.1,0.6c-0.2,2.1-0.3,3.1-0.5,5.1c-0.2,1.6-0.2,2.4-0.4,4
			c0,0.1,0,0.2,0,0.3c0,0,0,0,0,0c0,0,0,0,0,0c0,0,0,0.1,0,0.1c0,0,0,0,0,0c0,0,0,0,0,0c-0.1,0.8-0.1,1.2-0.2,2c0,0.1,0,0.1,0,0.1
			c0,0.1,0,0.1,0,0.1c0,0.1,0,0.1,0,0.1c0,0,0,0,0,0c-0.3-0.3-0.9-1-1.8-2.1c-0.1,0-0.5-0.6-1.4-1.7c-0.2-0.2-0.3-0.4-0.3-0.4
			c0,0,0,0,0-0.1c0,0,0,0,0,0c-0.1,0-0.1-0.1-0.1-0.3c0,0,0-0.1,0-0.1c0-0.1,0-0.1,0-0.2c0,0,0,0,0,0c0-0.1,0.1-0.1,0.1-0.1
			c0-0.4,0-0.6,0.1-1c0-0.2,0-0.3,0-0.5c0-0.1,0-0.1,0.1-0.2c0-0.1,0-0.1,0-0.2c0-0.2,0-0.2,0-0.4c0-0.2,0-0.2,0.1-0.4
			c0,0,0,0,0-0.1c0,0,0,0,0,0c0,0,0-0.1,0-0.1c0-0.1,0-0.1,0-0.1c0-0.1,0-0.1,0-0.2c0-0.2,0-0.3,0.1-0.5c0-0.3,0-0.4,0-0.7
			c0,0,0,0,0,0c0-0.1,0-0.1,0-0.1c0,0,0,0,0,0c0,0,0,0,0,0c0,0,0-0.1,0-0.1c0-0.1,0-0.2,0-0.3c0.1-0.7,0.2-1.1,0.2-1.2c0,0,0,0,0,0
			c0-0.1,0-0.1,0-0.2c0-0.1,0-0.1,0-0.1c0,0,0-0.1-0.1-0.1c0-0.1,0-0.1,0-0.2c0-0.3,0.1-0.5,0.1-0.5c0,0,0-0.2,0-0.5c0,0,0,0,0,0
			c0-0.1,0.1-0.2,0.1-0.4c0-0.4,0.1-0.6,0.1-1c0-0.1,0-0.2,0.1-0.4c0,0,0,0,0,0c0,0,0,0,0,0c0,0,0,0,0-0.1c0-0.1,0-0.1,0-0.2
			c0-0.1,0-0.1,0.1-0.2c0,0,0,0,0,0c0,0,0,0,0,0c0,0,0,0,0,0c0,0,0,0,0,0c0,0,0,0,0-0.1c0.1-0.2,0.1-0.4,0.1-0.6c0-0.1,0-0.1,0-0.1
			c0.1,0,0.1,0,0.1,0c0,0,0,0,0,0c-0.1,0-0.1,0-0.1-0.1c0,0,0,0,0,0c0,0,0,0-0.1,0c-0.1,0-0.1,0-0.1,0.1c-0.1,0-0.2,0-0.3,0
			c0,0,0,0,0,0c0,0,0,0,0,0c-0.2,0-0.2,0-0.4-0.1c-0.1,0-0.1,0-0.2,0c-0.3,0-0.5,0-0.8-0.1c-0.3,0-0.5-0.1-0.8-0.1
			c-0.1,0-0.1,0-0.1,0c-0.1,0-0.1,0-0.2,0c0,0,0,0,0,0c-0.1,0-0.1,0-0.2,0c-0.2,0-0.3,0-0.5,0c-0.1,0-0.2,0-0.4-0.1c0,0,0,0,0,0
			c0-0.7,0.1-1,0.1-1.7c0.1-0.8,0.1-1.2,0.2-2c0-0.1,0-0.2,0.1-0.2c0.3,0,0.4,0,0.6,0.1C179.6,125.6,179.7,125.6,179.8,125.6z"/>
		<path id="XMLID_83_" class="st7" d="M193.4,127.1c0.7,0.1,1,0.1,1.7,0.2c0,0,0.1,0,0.1,0c0,0,0,0,0.1,0c0.1,0,0.1,0,0.2,0
			c0.1,0,0.1,0,0.2,0c0,0,0,0,0,0c0,0,0,0,0,0c0.1,0,0.2,0,0.4,0.1c0.2,0,0.3,0,0.5,0.1c0,0,0.1,0,0.1,0c0,0,0.1,0,0.1,0
			c0,0,0,0,0,0c0,0,0,0,0,0c0,0,0,0,0.1,0c0,0,0.1,0,0.1,0c0.1,0,0.1,0,0.2,0c0.6,0.1,0.9,0.1,1.5,0.2c0,0,0,0,0,0c0,0,0,0,0,0
			c0,0,0,0,0,0c1.1,0.1,1.7,0.2,2.8,0.4c0.1,0,0.1,0,0.2,0c0.1,0,0.2,0,0.3,0.1c0.1,0,0.2,0,0.3,0c0,0,0.1,0,0.1,0c0,0,0.1,0,0.1,0
			c0.1,0,0.1,0,0.1,0c0.1,0,0.2,0,0.3,0c0,0,0,0,0,0c0,0,0.1,0,0.1,0c0,0,0,0,0,0c0,0,0,0,0.1,0c0,0,0,0,0,0c0.1,0,0.2,0,0.3,0
			c0.1,0,0.2,0,0.3,0c0,0,0,0,0,0c0.1,0,0.2,0,0.3,0c0,0,0,0,0.1,0c0.1,0,0.1,0,0.2,0c0.2,0,0.3,0.1,0.5,0.1
			c0.5,0.1,0.8,0.1,1.3,0.2c0,0.2,0,0.3-0.1,0.4c-0.2,0.3-0.3,0.8-0.4,1.3c-0.1,0.8-0.2,1.3-0.3,2.1c-0.1,0-0.1,0-0.2,0
			c-0.3,0-0.4-0.1-0.7-0.1c-0.4-0.1-0.6-0.1-1-0.1c0,0,0,0,0,0c0,0,0,0,0,0c0,0,0,0,0,0c-0.2,0-0.2-0.1-0.2-0.1c0,0,0,0-0.1,0
			c-0.1,0-0.1,0-0.1,0c-0.1,0-0.1,0-0.2,0c-0.1,0-0.2-0.1-0.2-0.1c-0.1,0-0.1,0-0.2,0c0,0-0.1,0-0.1-0.1c0,0,0,0,0,0
			c-0.2,0-0.4-0.1-0.6-0.1c0,0,0,0,0,0c0,0,0,0,0,0c-0.1,0-0.2,0-0.3,0c0,0,0,0,0,0c0,0,0,0,0,0c-0.2,0-0.3,0-0.4-0.1
			c-0.1,0-0.1,0-0.1,0c-0.1,0-0.1,0-0.1,0c-0.1,0-0.1,0-0.1,0c0,0,0,0,0,0c0,0,0,0,0,0c-0.2,0-0.3,0-0.4-0.1c0,0,0,0,0,0
			c0,0,0,0,0,0c0,0-0.1,0-0.1,0c0,0,0,0,0,0c0,0,0,0,0,0c-0.1,0-0.1,0-0.2,0c0,0,0,0,0,0c0,0,0,0,0,0c-0.1,0-0.1,0-0.2,0
			c0,0,0,0,0,0c0,0,0,0,0,0c0,0,0,0,0,0c-0.2-0.1-0.3-0.1-0.6-0.1c-0.2,0-0.3,0-0.4,0c-0.4-0.1-0.5-0.1-0.9-0.1c0-0.1,0-0.1,0-0.1
			c0,0-0.1,0-0.1,0.1c0,0,0,0,0,0c-0.2,0-0.2,0-0.4-0.1c0,0-0.1,0-0.1,0.1c0.1,0,0.2,0,0.4,0c0,0,0,0,0.1,0c0,0.1,0,0.1,0,0.2
			c0,0,0,0-0.1,0c0,0,0,0,0,0c0,0,0,0,0,0c0,0,0,0,0,0c0,0,0,0-0.1,0c0,0,0,0,0,0c0.1,0,0.1,0,0.1,0.1c0,0,0,0,0,0.1c0,0,0,0,0,0
			c0,0,0,0,0,0c-0.1,0.4-0.1,0.6-0.2,1c0,0.2,0,0.3-0.1,0.5c0,0,0,0.1,0,0.1c0,0,0,0,0,0c0,0,0,0,0.1,0c0,0,0,0,0,0
			c0.1,0,0.2,0,0.2,0.1c0.2,0,0.6,0,1,0.1c0,0,0,0,0,0c0,0,0,0,0,0c1.7,0.2,2.5,0.4,4.1,0.6c0.3,0,0.5,0.1,0.8,0.1c0,0,0,0,0,0.1
			c0,0.3-0.1,0.4-0.1,0.7c-0.1,0.2-0.1,0.4-0.2,0.6c0,0.1,0,0.2,0,0.3c0,0.1,0,0.2-0.1,0.4c0,0.3-0.1,0.7-0.1,1.1
			c-0.1,0.3-0.1,0.5-0.2,0.8c0,0,0,0-0.1,0c0,0,0,0,0,0c-0.3-0.1-0.5-0.1-0.8-0.2c-0.1,0-0.2,0-0.3,0c-0.1,0-0.1,0-0.2-0.1
			c-0.1,0-0.2,0-0.3,0c-0.7-0.1-1.1-0.2-1.8-0.3c-0.1,0-0.1,0-0.2,0c-0.1,0-0.1,0-0.2,0c-0.2,0-0.4-0.1-0.6-0.1
			c-0.1,0-0.1,0-0.2-0.1c0,0,0,0-0.1,0c0,0,0,0,0,0c-0.1,0-0.1,0-0.1,0c-0.1,0-0.2,0-0.3-0.1c-0.1,0-0.1,0-0.2,0
			c-0.1,0-0.1-0.1-0.2-0.1c0,0,0,0,0,0c0,0,0,0,0,0c0,0-0.1,0-0.1,0c-0.1,0-0.1,0-0.2,0c0,0-0.1-0.1,0-0.3c-0.2,0.2-0.3,0.4-0.3,0.7
			c0,0,0,0,0,0c-0.1,0-0.2,0-0.2,0.1c0.1,0,0.1,0,0.1,0c0,0,0,0.1,0,0.1c0,0.1,0,0.1,0,0.1c0,0,0,0.1,0,0.1c0,0.1,0,0.2-0.1,0.4
			c0,0-0.1,0.1-0.2,0c0,0,0,0,0,0c0.1,0.1,0.1,0.1,0.2,0.2c0,0.1,0,0.2,0,0.3c-0.1,0-0.1,0-0.2,0c0,0,0,0,0,0c0.1,0,0.1,0,0.2,0
			c0,0.1,0,0.1,0,0.2c0,0,0.1,0.1,0.2,0.1c0,0,0,0,0,0c0,0,0,0,0,0c0,0,0,0,0-0.1c0.8,0.1,1.2,0.2,1.9,0.3c0,0,0,0,0,0.1
			c0,0,0,0,0.1-0.1c0.1,0,0.2,0,0.3,0.1c0,0,0,0,0,0c0,0,0,0,0,0c0,0,0.1,0,0.1,0c0.1,0,0.1,0,0.2,0c0.1,0,0.1,0,0.1,0
			c0,0,0,0,0.1,0c0.1,0,0.1,0,0.2,0c0,0,0,0,0,0c0,0,0,0,0,0c0,0,0,0,0,0c0,0,0,0,0,0c0,0,0.1,0,0.1,0c0.2,0,0.3,0.1,0.5,0.1
			c0.9,0.1,1.4,0.2,2.3,0.4c0.1,0,0.1,0,0.2,0c0,0,0.1,0,0.1,0c0.2,0,0.3,0,0.5,0.1c0.1,0,0.2,0,0.4,0.1c0,0,0,0,0,0c0,0,0,0,0,0
			c0.1,0,0.2,0,0.3,0.1c0.1,0,0.1,0,0.2,0c0.1,0,0.2,0,0.2,0c0.1,0,0.1,0.1,0.1,0.1c0,0.1,0,0.2,0,0.3c0,0.1,0,0.2-0.1,0.3
			c0,0,0,0.1,0,0.1c0,0,0,0,0,0c0,0,0,0,0,0c0,0,0,0,0,0c0,0.1,0,0.1-0.1,0.2c0,0,0,0.1,0,0.1c0,0,0,0,0,0c0,0,0,0,0,0.1
			c0,0.2-0.1,0.3-0.1,0.5c0,0.2,0,0.4-0.1,0.6c0,0,0,0.1,0,0.1c0,0,0,0.1,0,0.1c0,0,0,0,0,0c0,0,0,0,0,0.1c0,0,0,0,0,0
			c0,0,0,0,0,0.1c0,0.2-0.1,0.3-0.1,0.5c0,0.1,0,0.2,0,0.3c0,0,0,0,0,0c0,0,0,0,0,0c0,0,0,0,0,0.1c0,0.1,0,0.2-0.1,0.3
			c-0.2,0-0.3-0.1-0.6-0.1c-0.1,0-0.1,0-0.1,0c0,0,0,0,0,0c-0.1,0-0.2,0-0.3-0.1c-0.3,0-0.4-0.1-0.7-0.1c-0.3-0.1-0.4-0.1-0.7-0.2
			c-0.6-0.1-0.8-0.1-1.4-0.2c0,0-0.1,0-0.1,0c0,0-0.1,0-0.1-0.1c-0.1,0-0.2,0-0.3,0c-0.2,0-0.4-0.1-0.6-0.1c0,0-0.1,0-0.1,0
			c-0.1,0-0.1,0-0.1,0c-0.6-0.1-0.9-0.1-1.4-0.2c-0.1,0-0.2,0-0.3,0c0,0-0.1,0-0.1,0c0,0,0,0,0,0c0,0-0.1,0-0.1,0
			c-0.1,0-0.1,0-0.1,0c0,0,0,0,0,0c0,0,0,0,0,0c-0.1,0-0.2,0-0.3,0c-0.1,0-0.2,0-0.3,0c-0.1,0-0.2,0-0.3-0.1c-0.1,0-0.2,0-0.3,0
			c-0.1,0-0.1,0-0.2,0c-0.1,0-0.1,0-0.2-0.1c0,0-0.1,0-0.1,0c-0.3,0-0.5-0.1-0.8-0.1c-0.1,0-0.1,0-0.1,0c-0.1,0-0.1,0-0.2,0
			c-0.1,0-0.1,0-0.1,0c-0.1,0-0.1,0-0.2-0.1c-0.1,0-0.1,0-0.1,0c-0.2,0-0.3,0-0.6-0.1c0,0-0.1,0-0.1-0.1c0,0,0-0.1,0-0.1
			c0,0,0,0-0.1,0c0,0.1-0.1,0.2-0.4,0.1c-0.2,0-0.3,0-0.5-0.1c0,0,0,0,0,0c0-0.1,0-0.2,0-0.3c0-0.1,0.1-0.2,0.1-0.4c0,0,0,0,0,0
			c0,0,0-0.1,0-0.1c0-0.2,0-0.2,0-0.4c0-0.1,0-0.2,0.1-0.3c0,0,0-0.1,0-0.1c0,0,0,0,0,0c0,0,0,0,0-0.1c0-0.3,0.1-0.4,0.1-0.7
			c0-0.1,0-0.1,0-0.2c0-0.1,0.1-0.2,0.1-0.2c0-0.2,0-0.6,0.1-1.1c0.3-2.5,0.5-3.7,0.8-6.2c0.1-0.4,0.2-0.9,0.3-1.7
			c0-0.1,0-0.1,0-0.1c0,0,0,0,0-0.1c0,0,0-0.1,0-0.1c0,0,0,0,0,0c-0.1-0.2-0.1-0.3-0.1-0.4c0-0.1,0-0.1,0-0.1c0,0,0,0,0,0
			c0,0,0,0,0,0c0,0,0,0,0,0c0,0,0-0.1,0-0.1c0-0.1,0-0.1-0.1-0.1c0,0,0-0.1,0-0.1c0,0,0,0,0,0c0,0,0,0,0,0c0,0,0-0.1,0-0.1
			c0,0,0,0,0.1,0c0-0.1,0-0.1,0-0.1c0-0.1,0-0.1,0.1-0.2c0-0.4,0-0.5,0.1-0.9c0.1-0.2,0.1-0.4,0.1-0.6c0,0,0,0,0,0c0,0,0,0,0,0
			c0,0.1,0,0.1,0,0.2c0,0,0,0,0,0c0-0.3,0.1-0.5,0.1-0.8C193.3,127.3,193.3,127.2,193.4,127.1z M193.3,128
			C193.3,128,193.3,128,193.3,128C193.3,128.1,193.3,128.1,193.3,128c0.1-0.5,0.2-0.7,0.3-0.7c0.1,0,0.1,0.2,0.2,0.7c0,0,0,0,0,0
			c0,0,0,0,0,0c0,0,0,0,0,0c0-0.5-0.1-0.8-0.2-0.8c0,0,0,0,0,0C193.5,127.2,193.4,127.5,193.3,128z M193.8,128.2
			C193.8,128.2,193.8,128.3,193.8,128.2C193.8,128.3,193.8,128.3,193.8,128.2C193.8,128.3,193.8,128.3,193.8,128.2
			C193.8,128.2,193.8,128.2,193.8,128.2z M193.8,128.3C193.8,128.4,193.8,128.4,193.8,128.3c0,0.1,0,0.1,0,0.2c0,0,0,0,0,0
			c0,0,0,0,0,0C193.8,128.4,193.8,128.4,193.8,128.3C193.8,128.3,193.8,128.3,193.8,128.3z"/>
		<path id="XMLID_80_" class="st7" d="M210.1,129.6c0,0,0.1,0,0.1,0c0,0,0,0,0,0c0,0,0.1,0,0.1,0c0,0,0,0,0,0c0,0,0,0,0.1,0
			c0.1,0,0.1,0,0.1,0c0.9,0.2,1.3,0.2,2.1,0.4c0,0,0.1,0,0.1,0c0,0,0.1,0,0.1,0c0,0,0,0,0,0c0,0,0,0,0,0c0.2,0,0.3,0.1,0.6,0.1
			c0,0,0.1,0,0.1,0c0,0,0.1,0,0.1,0c0,0,0,0,0,0c0.2,0,0.2,0.1,0.4,0.1c0,0,0.1,0,0.1,0c0,0,0,0,0,0c0.3,0,0.4,0.1,0.6,0.1
			c0,0,0,0,0.1,0c0.1,0,0.1,0,0.1,0c1.3,0.2,1.9,0.3,3.2,0.6c0,0,0,0.1,0,0.1c0,0,0,0,0,0c0,0,0.1,0,0.1-0.1c0,0,0.1,0,0.1,0
			c0.7,0.1,1.2,0.5,1.6,1.2c0.1,0.3,0.1,0.6,0.1,0.9c0,0,0,0,0,0c0,0.2,0,0.2,0,0.4c0,0,0,0.1,0,0.1c-0.1,0.5-0.2,0.9-0.3,1.4
			c0,0.1,0,0.2,0,0.3c-0.2,0.9-0.3,1.4-0.5,2.3c0,0.1,0,0.1-0.1,0.2c0,0,0,0,0,0c0,0.2-0.1,0.3-0.1,0.5c-0.5,2.4-0.7,3.6-1.2,6
			c-0.1,0.3-0.1,0.4-0.1,0.7c-0.1,0.7-0.4,1.1-0.6,1.3c-0.3,0.3-0.6,0.5-0.8,0.4c-0.7,0.1-1.2,0.1-1.5,0c-0.5-0.1-0.8-0.1-1.4-0.2
			c-0.1,0-0.1,0-0.2-0.1c0,0-0.1,0-0.1,0c0,0,0,0,0-0.1c0.2,0,0.3,0,0.5,0c0,0,0,0,0,0c0,0,0,0,0,0c-0.7-0.1-1-0.1-1.7-0.2
			c-1-0.2-1.6-0.3-2.6-0.5c-0.1,0-0.1,0-0.2-0.1c0,0-0.1,0-0.1,0c0,0,0,0,0,0c0,0,0,0,0,0c-0.1,0-0.1,0-0.2-0.1
			c-0.3,0-0.4-0.1-0.7-0.1c-0.4-0.1-0.5-0.1-0.9-0.2c-0.1,0-0.2,0-0.3,0c-0.1,0-0.1,0-0.2-0.1c0,0,0,0-0.1,0c0,0,0,0,0,0
			c-0.1,0-0.1,0-0.2,0c-0.2,0-0.3-0.1-0.5-0.1c-0.3-0.1-0.5-0.1-0.9-0.2c0,0,0,0,0,0c0-0.1,0-0.2,0-0.3c0,0,0.1,0,0.1-0.2
			c0,0,0,0,0,0c0-0.1,0-0.2,0-0.3c0,0,0-0.1,0-0.1c0,0,0,0,0,0c0,0,0,0,0,0c0-0.1,0-0.2,0.1-0.3c0-0.5,0.1-0.7,0.1-1.1
			c0.2-0.9,0.3-1.4,0.5-2.3c0,0,0,0,0,0c0,0,0,0,0-0.1c0,0,0,0,0-0.1c0,0,0.1-0.1,0.1-0.1c0,0,0-0.1,0-0.1c0,0,0,0,0.1-0.1
			c0,0,0,0,0,0c0.1-0.4,0.1-0.6,0.2-1.1c0,0,0,0,0-0.1c0-0.1,0-0.1,0-0.1c0-0.1,0-0.1,0-0.2c0-0.1,0-0.1,0-0.1
			c0-0.1,0.1-0.2,0.1-0.3c0-0.1,0-0.1,0-0.1c0,0,0,0,0,0c-0.1,0.4-0.2,0.6-0.3,0.8c0,0,0,0,0,0c0-0.1,0-0.2,0.1-0.4c0,0,0,0,0,0
			c0,0,0,0,0,0c0-0.1,0-0.1,0-0.2c0.1-0.5,0.2-1,0.3-1.3c0-0.1,0-0.3,0-0.6c0,0,0,0,0,0c0,0,0,0,0.1,0c0,0,0-0.1,0-0.1c0,0,0,0,0,0
			c0,0,0,0,0,0c0-0.3,0-0.4,0.1-0.6c0.1-0.3,0.1-0.4,0.2-0.7c0,0,0,0,0,0c0,0,0,0.1-0.1,0.1c0,0,0,0,0,0c0,0,0,0,0,0
			c0-0.2,0-0.4,0.1-0.6c0,0,0,0,0,0c0,0,0,0,0,0c0.2-0.9,0.4-1.9,0.6-3c0-0.2,0-0.2,0.1-0.4c0-0.2,0-0.3,0-0.5
			c0.1-0.5,0.2-0.8,0.2-0.9c0.3,0,0.4,0.1,0.6,0.1c0.1,0,0.2,0,0.3,0C209.3,129.5,209.5,129.5,210.1,129.6
			C210,129.6,210,129.6,210.1,129.6z M215.2,134.2c-0.1,0.1-0.1,0.2-0.1,0.3c-1.4-0.3-2.2-0.4-3.6-0.6c0,0,0,0-0.1-0.1
			c-0.1,0-0.1,0-0.1,0c0,0.1,0,0.1,0,0.2c0,0,0,0,0,0c0,0,0,0,0,0.1c0,0,0,0,0,0c0,0,0,0.1,0,0.1c0,0.2-0.1,0.2-0.1,0.4
			c-0.2,1.2-0.3,1.8-0.5,2.9c0,0,0,0,0,0c0,0,0,0,0,0c0,0.3-0.1,0.5-0.1,0.8c0,0.1,0,0.2-0.1,0.3c0,0,0,0,0,0.1c0,0,0,0.1,0,0.1
			c0,0,0,0,0,0c0,0,0,0.1,0,0.1c-0.1,0.5-0.1,0.7-0.2,1.2c0,0.1,0,0.2,0,0.3c0,0.1,0,0.2-0.1,0.3c0,0,0,0,0,0.1c0,0,0,0.1,0,0.1
			c0,0,0,0.1,0,0.1c0,0,0,0.1,0,0.1c0,0,0,0,0,0.1c0,0,0,0,0,0c0,0,0,0,0,0c0,0.2,0,0.2-0.1,0.4c0,0.1,0,0.1-0.1,0.2c0,0,0,0,0,0
			c0,0,0,0,0,0c0,0,0,0,0,0c0,0,0,0,0,0c-0.1,0-0.1,0-0.2-0.1c0,0,0,0,0,0c0,0,0,0,0,0c0,0,0,0,0,0c0,0-0.1,0-0.1,0
			c-0.1,0-0.1,0-0.2,0c0,0,0.1,0.1,0.4,0.2c0,0,0,0.1-0.1,0.1c0.2,0.1,0.3,0.1,0.5,0.2c0,0,0,0,0.1,0c0.2,0,0.3,0.1,0.5,0.1
			c0.5,0.1,0.8,0.1,1.3,0.2c0,0,0,0,0,0c0,0,0,0,0,0c0.2,0.1,0.4,0.1,0.6,0.1c0.3,0.1,0.5,0.1,0.8,0.1c0,0.1,0,0.2-0.1,0.4
			c0,0,0,0,0,0c0-0.1,0-0.2,0-0.3c0,0,0-0.1,0-0.1c0,0,0.1,0,0.1,0c0,0,0,0,0,0.1c0,0,0,0,0.1,0c0-0.1,0.1-0.1,0.2-0.1c0,0,0,0,0,0
			c0,0,0,0,0,0c0,0,0,0,0-0.1c0,0,0,0-0.1,0c0-0.1,0-0.2,0.1-0.4c0-0.1,0-0.1,0-0.2c0-0.1,0-0.1,0.1-0.2c0-0.1,0-0.1,0-0.2
			c0-0.1,0-0.2,0-0.3c0-0.1,0-0.2,0.1-0.3c0-0.1,0-0.2,0-0.3c0-0.1,0.1-0.1,0.1-0.1c0,0,0,0,0,0c0,0,0,0,0,0c0,0,0,0,0,0
			c0,0,0,0,0-0.1c0-0.1,0-0.2,0-0.3c0.1-0.5,0.1-0.7,0.2-1.2c0-0.1,0-0.1,0-0.2c0,0,0,0,0,0c0,0,0,0,0,0c0,0,0,0,0,0
			c0-0.2,0.1-0.3,0.1-0.4c0.1-0.5,0.1-0.7,0.2-1.2c0,0,0,0,0,0c0,0,0,0,0,0c0,0,0-0.1,0-0.1c0,0,0,0,0,0c0,0,0,0,0,0
			c0-0.1,0-0.2,0.1-0.3c0.1-0.5,0.1-0.7,0.2-1.2c0-0.1,0-0.1,0-0.2c0,0,0,0,0,0c0,0,0,0,0,0c0,0,0-0.1,0-0.1c0,0,0,0,0.1,0
			c0,0,0,0,0,0c0,0,0,0-0.1-0.1c0-0.1,0-0.1,0-0.2c0,0,0.1,0,0.1,0c0,0,0,0-0.1,0c0,0,0,0,0,0c0,0,0,0,0,0c0,0,0,0,0,0
			c0-0.1,0-0.1,0-0.1c-0.1,0-0.1,0-0.2,0c-0.1,0-0.1,0-0.2,0C215.2,134.4,215.2,134.3,215.2,134.2
			C215.2,134.2,215.2,134.2,215.2,134.2z"/>
	</g>
</g>
<g id="Calque_2_-_copie">
	<path id="XMLID_25_" class="st8" d="M107.4,59.3C107.4,59.2,107.4,59.2,107.4,59.3c-1.8-3.7-6.3-6-10.7-3.9l-14.2,6.7
		c-3.1,1.5-6.9,0.8-9.2-1.8L62.5,48.9c-5.3-5.7-14.8-1.2-13.8,6.5l2,15.6c0.4,3.4-1.4,6.8-4.5,8.3L32,85.9c-3.8,1.8-5.2,5.7-4.4,9.1
		c0.1,0.4,0.2,0.7,0.3,1.1c0.9,2.3,4.7,8,7.7,8.5l15.4,2.9c1.9,0.4,3.5,1.4,4.6,2.8c0,0.2,0.1,0.3,0.1,0.5l2,15.6
		c0.1,1,0.4,1.8,0.8,2.6c2,6.5,12.4,10.2,15.9,3.8l7.5-13.8c1.7-3,5.1-4.7,8.5-4l15.4,2.9c7.3,1.4,11.4-8.7,7.3-14.3c0,0,0,0,0,0
		c-0.4-0.9-0.9-1.8-1.7-2.6l-10.8-11.4c-0.1-0.1-0.2-0.3-0.3-0.4c-0.3-1.8-0.1-3.7,0.8-5.3l7.5-13.8
		C110.3,67.5,108.6,61.4,107.4,59.3z"/>
	<path id="XMLID_24_" class="st9" d="M64.2,52.5L75,63.9c2.4,2.5,6.1,3.2,9.2,1.8L98.4,59c4.3-2.1,7.2-3.3,9,0.3
		c1.1,2.2,2.9,8.2,1.4,10.8l-7.5,13.8c-1.7,3-1.2,6.8,1.2,9.3l10.8,11.4c0.3,0.3-0.2-1.3,0-1c4.1,5.7-0.1,15.7-7.3,14.3L90.5,115
		c-3.4-0.6-6.8,1-8.5,4l-7.5,13.8c-3.5,6.4-13.9,2.7-15.9-3.8c-0.1-0.4,1,1.5,0.9,1l-2-15.6c-0.4-3.4-3-6.2-6.5-6.9l-15.4-2.9
		c-3-0.6-6.8-6.2-7.7-8.5c-1.5-3.6,1.5-4.6,5.8-6.6l14.2-6.7c3.1-1.5,5-4.8,4.5-8.3l-2-15.6C49.5,51.3,58.9,46.8,64.2,52.5z"/>
	<path id="XMLID_23_" class="st10" d="M62.5,48.9l10.8,11.4c2.4,2.5,6.1,3.2,9.2,1.8l14.2-6.7c7-3.3,14.2,4.3,10.4,11.1l-7.5,13.8
		c-1.7,3-1.2,6.8,1.2,9.3l10.8,11.4c5.3,5.7,0.3,14.8-7.3,13.4l-15.4-2.9c-3.4-0.6-6.8,1-8.5,4l-7.5,13.8c-3.7,6.8-14,4.9-15-2.8
		l-2-15.6c-0.4-3.4-3-6.2-6.5-6.9L33.9,101C26.3,99.6,25,89.2,32,85.9l14.2-6.7c3.1-1.5,5-4.8,4.5-8.3l-2-15.6
		C47.8,47.7,57.2,43.2,62.5,48.9z"/>
	<path id="XMLID_22_" class="st11" d="M85.9,60.5l-3.3,1.6c-3.1,1.5-6.9,0.8-9.2-1.8L62.5,48.9c-5.3-5.7-14.8-1.2-13.8,6.5l2,15.6
		c0.4,3.4-1.4,6.8-4.5,8.3L32,85.9c-7,3.3-5.7,13.7,1.9,15.1l15.4,2.9c2.8,0.5,5,2.5,6,5.1C68.3,101,84.1,86.1,85.9,60.5z"/>
	<path id="XMLID_19_" class="st12" d="M64.3,56.1l8.6,9.1c1.9,2,4.9,2.6,7.4,1.4l11.4-5.4c5.6-2.6,11.3,3.4,8.3,8.9l-6,11
		c-1.3,2.4-1,5.4,1,7.5l8.6,9.1c4.3,4.5,0.2,11.8-5.9,10.7l-12.3-2.3c-2.7-0.5-5.5,0.8-6.8,3.2l-6,11c-3,5.4-11.2,3.9-12-2.3
		l-1.6-12.5c-0.4-2.8-2.4-5-5.2-5.5l-12.3-2.3c-6.1-1.2-7.2-9.4-1.5-12.1l11.4-5.4c2.5-1.2,4-3.8,3.6-6.6l-1.6-12.5
		C52.5,55.2,60,51.6,64.3,56.1z"/>
</g>
<g id="Calque_2_-_copie_2">
	<path id="XMLID_17_" class="st8" d="M188.9,59.3C188.9,59.2,188.9,59.2,188.9,59.3c1.8-3.7,6.3-6,10.7-3.9l14.2,6.7
		c3.1,1.5,6.9,0.8,9.2-1.8l10.8-11.4c5.3-5.7,14.8-1.2,13.8,6.5l-2,15.6c-0.4,3.4,1.4,6.8,4.5,8.3l14.2,6.7c3.8,1.8,5.2,5.7,4.4,9.1
		c-0.1,0.4-0.2,0.7-0.3,1.1c-0.9,2.3-4.7,8-7.7,8.5l-15.4,2.9c-1.9,0.4-3.5,1.4-4.6,2.8c0,0.2-0.1,0.3-0.1,0.5l-2,15.6
		c-0.1,1-0.4,1.8-0.8,2.6c-2,6.5-12.4,10.2-15.9,3.8l-7.5-13.8c-1.7-3-5.1-4.7-8.5-4l-15.4,2.9c-7.3,1.4-11.4-8.7-7.3-14.3
		c0,0,0,0,0,0c0.4-0.9,0.9-1.8,1.7-2.6l10.8-11.4c0.1-0.1,0.2-0.3,0.3-0.4c0.3-1.8,0.1-3.7-0.8-5.3l-7.5-13.8
		C186,67.5,187.7,61.4,188.9,59.3z"/>
	<path id="XMLID_16_" class="st9" d="M232.1,52.5l-10.8,11.4c-2.4,2.5-6.1,3.2-9.2,1.8L197.9,59c-4.3-2.1-7.2-3.3-9,0.3
		c-1.1,2.2-2.9,8.2-1.4,10.8l7.5,13.8c1.7,3,1.2,6.8-1.2,9.3L183,104.6c-0.3,0.3,0.2-1.3,0-1c-4.1,5.7,0.1,15.7,7.3,14.3l15.4-2.9
		c3.4-0.6,6.8,1,8.5,4l7.5,13.8c3.5,6.4,13.9,2.7,15.9-3.8c0.1-0.4-1,1.5-0.9,1l2-15.6c0.4-3.4,3-6.2,6.5-6.9l15.4-2.9
		c3-0.6,6.8-6.2,7.7-8.5c1.5-3.6-1.5-4.6-5.8-6.6l-14.2-6.7c-3.1-1.5-5-4.8-4.5-8.3l2-15.6C246.8,51.3,237.4,46.8,232.1,52.5z"/>
	<path id="XMLID_13_" class="st10" d="M233.8,48.9L223,60.3c-2.4,2.5-6.1,3.2-9.2,1.8l-14.2-6.7c-7-3.3-14.2,4.3-10.4,11.1l7.5,13.8
		c1.7,3,1.2,6.8-1.2,9.3L184.7,101c-5.3,5.7-0.3,14.8,7.3,13.4l15.4-2.9c3.4-0.6,6.8,1,8.5,4l7.5,13.8c3.7,6.8,14,4.9,15-2.8l2-15.6
		c0.4-3.4,3-6.2,6.5-6.9l15.4-2.9c7.6-1.4,8.9-11.8,1.9-15.1l-14.2-6.7c-3.1-1.5-5-4.8-4.5-8.3l2-15.6
		C248.5,47.7,239.1,43.2,233.8,48.9z"/>
	<path id="XMLID_9_" class="st11" d="M210.4,60.5l3.3,1.6c3.1,1.5,6.9,0.8,9.2-1.8l10.8-11.4c5.3-5.7,14.8-1.2,13.8,6.5l-2,15.6
		c-0.4,3.4,1.4,6.8,4.5,8.3l14.2,6.7c7,3.3,5.7,13.7-1.9,15.1l-15.4,2.9c-2.8,0.5-5,2.5-6,5.1C227.9,101,212.2,86.1,210.4,60.5z"/>
	<path id="XMLID_7_" class="st12" d="M232,56.1l-8.6,9.1c-1.9,2-4.9,2.6-7.4,1.4l-11.4-5.4c-5.6-2.6-11.3,3.4-8.3,8.9l6,11
		c1.3,2.4,1,5.4-1,7.5l-8.6,9.1c-4.3,4.5-0.2,11.8,5.9,10.7l12.3-2.3c2.7-0.5,5.5,0.8,6.8,3.2l6,11c3,5.4,11.2,3.9,12-2.3l1.6-12.5
		c0.4-2.8,2.4-5,5.2-5.5l12.3-2.3c6.1-1.2,7.2-9.4,1.5-12.1l-11.4-5.4c-2.5-1.2-4-3.8-3.6-6.6l1.6-12.5
		C243.8,55.2,236.3,51.6,232,56.1z"/>
</g>
<g id="Calque_2">
	<path id="XMLID_14_" class="st8" d="M201.7,46.8C201.7,46.8,201.7,46.7,201.7,46.8c0-5.1-3.8-9.9-9.8-9.9h-19.2
		c-4.3,0-8-2.7-9.3-6.8l-5.9-18.3c-2.9-9-15.7-9-18.7,0l-5.9,18.3c-1.3,4-5.1,6.8-9.3,6.8h-19.2c-5.2,0-8.7,3.6-9.6,7.8
		c-0.1,0.4-0.2,0.9-0.2,1.4c-0.2,3.1,1.1,11.3,4.1,13.5l15.6,11.3c1.9,1.4,3.1,3.3,3.7,5.5c-0.1,0.2-0.1,0.4-0.1,0.6l-5.9,18.3
		c-0.4,1.1-0.5,2.2-0.5,3.3c-1.2,8.2,8.4,17.8,15.6,12.6l15.6-11.3c3.4-2.5,8.1-2.5,11.5,0l15.6,11.3c7.3,5.3,17.2-3.6,15.6-12.1
		c0,0,0,0,0,0c0.1-1.2-0.1-2.5-0.5-3.8l-5.9-18.3c-0.1-0.2-0.1-0.4-0.1-0.6c0.6-2.2,1.8-4.1,3.7-5.5l15.6-11.3
		C200.6,57.4,201.8,49.8,201.7,46.8z"/>
	<path id="XMLID_12_" class="st9" d="M157.4,16.7l5.9,18.3c1.3,4,5.1,6.8,9.3,6.8h19.2c5.9,0,9.7,0.1,9.8,5c0.1,3-1.1,10.6-4.1,12.7
		l-15.6,11.3c-3.4,2.5-4.9,6.9-3.6,11l5.9,18.3c0.1,0.4,0.4-1.5,0.5-1.1c1.6,8.4-8.3,17.4-15.6,12.1l-15.6-11.3
		c-3.4-2.5-8.1-2.5-11.5,0l-15.6,11.3c-7.2,5.2-16.9-4.3-15.6-12.6c0.1-0.6,0.3,2.2,0.5,1.6l5.9-18.3c1.3-4-0.1-8.5-3.6-11
		L98.4,59.5c-3-2.2-4.3-10.4-4.1-13.5c0.3-4.8,4-4.3,9.8-4.3h19.2c4.3,0,8-2.7,9.3-6.8l5.9-18.3C141.6,7.6,154.4,7.6,157.4,16.7z"/>
	<path id="XMLID_10_" class="st10" d="M157.4,11.8l5.9,18.3c1.3,4,5.1,6.8,9.3,6.8h19.2c9.5,0,13.5,12.2,5.8,17.8l-15.6,11.3
		c-3.4,2.5-4.9,6.9-3.6,11l5.9,18.3c2.9,9-7.4,16.6-15.1,11l-15.6-11.3c-3.4-2.5-8.1-2.5-11.5,0l-15.6,11.3c-7.7,5.6-18-1.9-15.1-11
		l5.9-18.3c1.3-4-0.1-8.5-3.6-11L98.4,54.6c-7.7-5.6-3.7-17.8,5.8-17.8h19.2c4.3,0,8-2.7,9.3-6.8l5.9-18.3
		C141.6,2.7,154.4,2.7,157.4,11.8z"/>
	<path id="XMLID_11_" class="st11" d="M177.2,36.9h-4.5c-4.3,0-8-2.7-9.3-6.8l-5.9-18.3c-2.9-9-15.7-9-18.7,0l-5.9,18.3
		c-1.3,4-5.1,6.8-9.3,6.8h-19.2c-9.5,0-13.5,12.2-5.8,17.8l15.6,11.3c2.8,2.1,4.3,5.4,4,8.8C136.5,72.7,161.8,64.4,177.2,36.9z"/>
	<path id="XMLID_8_" class="st12" d="M155.5,20.7l4.8,14.6c1.1,3.2,4.1,5.4,7.5,5.4h15.4c7.6,0,10.8,9.7,4.6,14.2l-12.5,9
		c-2.8,2-3.9,5.5-2.9,8.8l4.8,14.6c2.4,7.2-5.9,13.3-12.1,8.8l-12.5-9c-2.8-2-6.5-2-9.2,0l-12.5,9c-6.2,4.5-14.4-1.5-12.1-8.8
		l4.8-14.6c1.1-3.2-0.1-6.8-2.9-8.8l-12.5-9c-6.2-4.5-3-14.2,4.6-14.2h15.4c3.4,0,6.4-2.2,7.5-5.4l4.8-14.6
		C142.9,13.5,153.1,13.5,155.5,20.7z"/>
</g>
</svg>
