<svg version="1.0" xmlns="http://www.w3.org/2000/svg" width="300" height="260" style="enable-background:new 0 0 300 260" xml:space="preserve"><style>.st0{display:none}.st2{display:inline}.st4,.st5{stroke-miterlimit:10}.st4{fill:#fff;stroke:#b4b4b5;stroke-width:12}.st5{stroke:#e8e8e8;stroke-width:6}.st5,.st6{fill:#fff}.st7{fill:#b5b5b6}.st8{fill:none;stroke:#b4b4b5;stroke-width:5;stroke-miterlimit:10}.st9{fill:#eaeaea}.st11{fill:#e5e5e5}.st12{fill:#e3e5e4}.st14,.st15,.st17{display:inline;fill:#e5e5e5}.st15,.st17{fill:#fff}.st17{fill:#b5b5b6}.st21,.st22{fill:#ededed}.st22{display:inline}.st28{fill:#c6c6c5}</style><g id="cloud1"><path id="XMLID_2_" class="st8" d="M182.1 144.8s7 22.9-6.2 26.8c-13.2 3.9-33.8-6.7-33.8-6.7s-25.6 5.7-34-3.7 0-30.1 0-30.1-19.5-24.5.7-38.7 37.2 6.2 37.2 6.2 11.5-17.3 36.1 3.6 0 42.6 0 42.6z"/><path id="XMLID_6_" d="M182.1 144.8s7 22.9-6.2 26.8c-13.2 3.9-33.8-6.7-33.8-6.7s-25.6 5.7-34-3.7 0-30.1 0-30.1-19.5-24.5.7-38.7 37.2 6.2 37.2 6.2 11.5-17.3 36.1 3.6 0 42.6 0 42.6z" style="fill:#e8e8e8"/><path id="XMLID_8_" class="st6" d="M119.5 107.8s11.8-7.7 18.9-5.3c7.1 2.4 14.3 9.4 14.3 9.4s14.9-2.1 20.9 4.5 8.8 17.4.3 24.2c-1.9 1.5-1.9 1.4-1.9 1.4s3.2 8.3-1.6 14c-10.7 12.8-20.5 3.6-20-2.6-1.9.6-20 10.4-29.1-4.3-3.1-5-5.9-19-2.2-20.2.1 0-9.3-11.7.4-21.1z"/><g id="XMLID_12_"><path id="XMLID_13_" class="st28" d="M178.6 169.2c-13.2 3.9-33.8-6.7-33.8-6.7s-25.6 5.7-34-3.7c-8.4-9.4 0-30.1 0-30.1s-16.5-20.8-3.3-35.1c-17.8 14.3.7 37.6.7 37.6s-8.4 20.7 0 30.1c8.4 9.4 34 3.7 34 3.7s20.6 10.6 33.8 6.7c2.3-.7 3.9-2 5.2-3.6-.8.5-1.6.9-2.6 1.1z"/><path id="XMLID_14_" class="st28" d="m148.5 96 .2.2s.3-.4.8-.9c-.4.2-.7.5-1 .7z"/></g><path id="XMLID_7_" class="st7" d="M182.9 132.5s8.9-10.5.6-18.3c-8.3-7.7-16.6-4.5-16.6-4.5s11.7.5 15.7 8.2.3 14.6.3 14.6z"/><path id="XMLID_16_" class="st7" d="M131.4 96.1s-8.4-6.8-14.3-.2c-5.9 6.7-3.3 13.1-3.3 13.1s.2-9.2 6.2-12.4 11.4-.5 11.4-.5z"/><path id="XMLID_9_" class="st7" d="M163.1 163.8s7.9 6.2 13.3 0c5.4-6.3 2.9-12.2 2.9-12.2s0 8.6-5.6 11.7c-5.5 3-10.6.5-10.6.5z"/><path id="XMLID_11_" class="st7" d="M124.1 141.9s4.8 12.9 15.6 9.5c10.8-3.5 5.2-5.7 5.2-5.7s-.6 2.2-8 3.1c-8.6 1.1-12.8-6.9-12.8-6.9z"/></g></svg>