<svg version="1.0" xmlns="http://www.w3.org/2000/svg" width="300" height="260" style="enable-background:new 0 0 300 260" xml:space="preserve"><style>.st0{display:none}.st2{display:inline}.st4,.st5{stroke-miterlimit:10}.st4{fill:#fff;stroke:#b4b4b5;stroke-width:12}.st5{stroke:#e8e8e8;stroke-width:6}.st5,.st6{fill:#fff}.st7{fill:#b5b5b6}.st8{fill:none;stroke:#b4b4b5;stroke-width:5;stroke-miterlimit:10}.st9{fill:#eaeaea}.st11{fill:#e5e5e5}.st12{fill:#e3e5e4}.st13{display:inline;fill:none;stroke:#b4b4b5;stroke-width:5;stroke-miterlimit:10}.st14,.st15,.st17{display:inline;fill:#e5e5e5}.st15,.st17{fill:#fff}.st17{fill:#b5b5b6}.st18{fill:none;stroke:#b5b5b6;stroke-width:5;stroke-miterlimit:10}.st21,.st22{display:none;fill:#ededed}.st22{display:inline}.st27{fill:#c6c6c5}</style><g id="cloud4"><path id="border" class="st18" d="M288.3 110.3c.7-24-28.3-28.7-28.3-28.7s12-17.1-5.4-37-40.3 0-40.3 0 2.5-21.4-13.8-28.7-33 8.3-33 8.3-16.8-16.3-39.3-14.9-25.4 25.4-25.4 25.4-24-8.3-42.7 2.5c-18.7 11-12.8 38.2-12.8 38.2s-14.5 1.5-14.9 16.3 9.1 22.1 9.1 22.1c-17.4 4-19.2 21.4-17.4 40.7 1.8 19.2 23.2 18.9 23.2 18.9s-9.4 11.3 6.9 26.5 31.9 4.7 31.9 4.7-8.3 16.3 17.4 27.2 29-10.2 29-10.2 6.2 14.9 27.8 14.5c21.6-.4 26-20.3 26-20.3s16.3 17.4 40.3 5.8 16-32.7 16-32.7 16 5.1 29-17.4-14.2-35.9-14.2-35.9 30.2-1.4 30.9-25.3zm-77.7.3c-2.9 17.1-14.9 13.4-14.9 13.4s6.2 12.7-3.3 20.3c-9.4 7.6-16.3 0-16.3 0s3.6 16.3-9.1 21.1c-12.7 4.7-21.8-5.4-21.8-5.4s-9.1 6.9-19.6 1.8-5.1-22.1-5.1-22.1-30.5.7-26.1-18.9 17.4-16.3 17.4-16.3-7.6-14.5 1.8-18.2c9.4-3.6 28.7 0 28.7 0s-1-12.3 12.4-12.3 13.4 11.3 13.4 11.3 13.8-4.7 18.5 1.8c4.7 6.5 0 10.2 0 10.2s26.9-3.7 24 13.3z"/><path id="gray" class="st6" d="M288.3 110.3c.7-24-28.3-28.7-28.3-28.7s12-17.1-5.4-37-40.3 0-40.3 0 2.5-21.4-13.8-28.7-33 8.3-33 8.3-16.8-16.3-39.3-14.9-25.4 25.4-25.4 25.4-24-8.3-42.7 2.5c-18.7 11-12.8 38.2-12.8 38.2s-14.5 1.5-14.9 16.3 9.1 22.1 9.1 22.1c-17.4 4-19.2 21.4-17.4 40.7 1.8 19.2 23.2 18.9 23.2 18.9s-9.4 11.3 6.9 26.5 31.9 4.7 31.9 4.7-8.3 16.3 17.4 27.2 29-10.2 29-10.2 6.2 14.9 27.8 14.5c21.6-.4 26-20.3 26-20.3s16.3 17.4 40.3 5.8 16-32.7 16-32.7 16 5.1 29-17.4-14.2-35.9-14.2-35.9 30.2-1.4 30.9-25.3zm-77.7.3c-2.9 17.1-14.9 13.4-14.9 13.4s6.2 12.7-3.3 20.3c-9.4 7.6-16.3 0-16.3 0s3.6 16.3-9.1 21.1c-12.7 4.7-21.8-5.4-21.8-5.4s-9.1 6.9-19.6 1.8-5.1-22.1-5.1-22.1-30.5.7-26.1-18.9 17.4-16.3 17.4-16.3-7.6-14.5 1.8-18.2c9.4-3.6 28.7 0 28.7 0s-1-12.3 12.4-12.3 13.4 11.3 13.4 11.3 13.8-4.7 18.5 1.8c4.7 6.5 0 10.2 0 10.2s26.9-3.7 24 13.3z"/><path id="XMLID_65_" class="st9" d="M196.6 89s6.2-4.8 0-13.4c-6.2-8.6-24.5-2.4-24.5-2.4s0-14.9-17.8-14.9S138 74.6 138 74.6s-25.4-4.8-37.9 0-2.4 24-2.4 24-17.3-4.3-23 21.6 34.6 25 34.6 25-7.2 22.6 6.7 29.3 25.9-2.4 25.9-2.4 12 13.4 28.8 7.2 12-27.8 12-27.8 9.1 10.1 21.6 0 4.3-26.9 4.3-26.9 15.8 4.8 19.7-17.8c3.8-22.6-31.7-17.8-31.7-17.8zm14 21.6c-2.9 17.1-14.9 13.4-14.9 13.4s6.2 12.7-3.3 20.3c-9.4 7.6-16.3 0-16.3 0s3.6 16.3-9.1 21.1c-12.7 4.7-21.8-5.4-21.8-5.4s-9.1 6.9-19.6 1.8-5.1-22.1-5.1-22.1-30.5.7-26.1-18.9 17.4-16.3 17.4-16.3-7.6-14.5 1.8-18.2c9.4-3.6 28.7 0 28.7 0s-1-12.3 12.4-12.3 13.4 11.3 13.4 11.3 13.8-4.7 18.5 1.8c4.7 6.5 0 10.2 0 10.2s26.9-3.7 24 13.3z"/><path id="border2" class="st11" d="M288.3 110.3c.7-24-28.3-28.7-28.3-28.7s12-17.1-5.4-37-40.3 0-40.3 0 2.5-21.4-13.8-28.7-33 8.3-33 8.3-16.8-16.3-39.3-14.9-25.4 25.4-25.4 25.4-24-8.3-42.7 2.5c-18.7 11-12.8 38.2-12.8 38.2s-14.5 1.5-14.9 16.3 9.1 22.1 9.1 22.1c-17.4 4-19.2 21.4-17.4 40.7 1.8 19.2 23.2 18.9 23.2 18.9s-9.4 11.3 6.9 26.5 31.9 4.7 31.9 4.7-8.3 16.3 17.4 27.2 29-10.2 29-10.2 6.2 14.9 27.8 14.5c21.6-.4 26-20.3 26-20.3s16.3 17.4 40.3 5.8 16-32.7 16-32.7 16 5.1 29-17.4-14.2-35.9-14.2-35.9 30.2-1.4 30.9-25.3zM245 134.1s23.9 11.8 12.4 31.5C246 185.4 232 180.9 232 180.9s7 18.5-14 28.7-35.4-5.1-35.4-5.1-3.8 17.5-22.8 17.8c-19 .3-24.4-12.7-24.4-12.7s-2.9 18.5-25.5 8.9-15.3-23.9-15.3-23.9-13.7 9.2-28-4.1-6.1-23.3-6.1-23.3-18.8.3-20.4-16.6c-1.6-16.9 0-32.2 15.3-35.7 0 0-8.3-6.4-8-19.4.3-13.1 13.1-14.3 13.1-14.3s-5.2-23.9 11.3-33.4c16.4-9.6 37.5-2.2 37.5-2.2s2.5-21 22.3-22.3c19.8-1.3 34.4 13 34.4 13s14.7-13.7 29-7.3 12.1 25.2 12.1 25.2 20.1-17.5 35.4 0c15.3 17.5 4.8 32.5 4.8 32.5s25.5 4.1 24.8 25.2c-.6 20.9-27.1 22.2-27.1 22.2z"/><path id="XMLID_15_" class="st7" d="M193.4 194.6s12.2 9.6 20.6-.1 4.4-18.9 4.4-18.9 0 13.2-8.6 18c-8.6 4.8-16.4 1-16.4 1z"/><path id="XMLID_41_" class="st7" d="M235.5 79.6s7.5-13.6-3.4-20.3c-10.9-6.7-19.3-1.4-19.3-1.4s13-2.1 19.1 5.6c6.1 7.8 3.6 16.1 3.6 16.1z"/><path id="XMLID_42_" class="st7" d="M96.9 62.8s-10.9-11-20.4-2.4-6.7 18.2-6.7 18.2 1.7-13.1 10.8-16.8 16.3 1 16.3 1z"/><path id="XMLID_53_" class="st7" d="M68.9 170.7s-2.5 15.3 10 18 18.6-5.2 18.6-5.2-11.6 6.3-19.9 1.1-8.7-13.9-8.7-13.9z"/></g></svg>