<svg version="1.0" xmlns="http://www.w3.org/2000/svg" width="300" height="260" style="enable-background:new 0 0 300 260" xml:space="preserve"><style>.st0{display:none}.st2{display:inline}.st4,.st5{stroke-miterlimit:10}.st4{fill:#fff;stroke:#b4b4b5;stroke-width:12}.st5{stroke:#e8e8e8;stroke-width:6}.st5,.st6{fill:#fff}.st7{fill:#b5b5b6}.st8{fill:none;stroke:#b4b4b5;stroke-width:5;stroke-miterlimit:10}.st9{fill:#eaeaea}.st11{fill:#e5e5e5}.st12{fill:#e3e5e4}.st13,.st14{display:inline;fill:#fff}.st14{display:none}.st19,.st20{display:inline;fill:#e5e5e5}.st20{fill:#b5b5b6}.st21,.st22{fill:#ededed}.st22{display:inline}.st29{fill:#c6c6c5}</style><g id="cloud5"><path id="border_1_" class="st8" d="M292.5 110.4c.3-26.2-29.9-27.1-29.9-27.1s19.6-7.2 0-34-42.1-5-42.1-5 .3-22.1-18.1-28.7-32.4 7.8-32.4 7.8-4-15.6-32.4-16.2-36.4 24.3-36.4 24.3-35.8-3-48.2 10.4c-12.5 13.4-2.8 32.4-2.8 32.4-5.3-.6-15.9 2.2-20.2 19.6s12.8 23.7 12.8 23.7-18.1 15.6-17.4 38c.6 22.4 27.1 18.7 27.1 18.7s-10.9 15.6 2.5 31.5 34.6 1.9 34.6 1.9-9 19 16.5 28.7 32.1-9.7 32.1-9.7 7.5 19 29.3 16.2c21.8-2.8 22.4-25.9 22.4-25.9s12.5 22.1 38 10.9c25.5-11.2 19.9-29.3 19.9-29.3s20.6-3.1 29.3-21.8-10.9-33.3-10.9-33.3 26-6.9 26.3-33.1zm-75.1 9.2s-4.5 2.6-4.2 10.3 2.6 13.6 6.1 14.2c0 0-19.8 3.1-21.3 12.9s1.4 21.8 1.4 21.8-3.4-7.6-19.6-5.4c-16.2 2.2-20.9 9.3-20.9 9.3s-1.6-7.9-14.3-7.6-14.8 7.6-14.8 7.6-2-12.9-10.4-16.2-21.5.2-21.5.2 1.6-9.2-4.7-11.1-19-.9-19-.9 14-7.8 15.9-17.4c1.9-9.7-7.9-18.1-7.9-18.1s14.8.9 21.6-9.7-1.6-18.7-1.6-18.7 19.8 1.4 26.9-7.2c7.2-8.6 3.3-28 3.3-28s10.1 10.4 19.3 9.3c9.2-1.1 12.1-10.6 12.1-10.6s1.2 6.5 5.8 7.2c4.5.6 13.4.3 13.4.3s-10.6 9.7-1.9 15.6 28.7 3.9 28.7 3.9-.9 8.6 3.1 9.8l12 3.6s-14.3 2.3-14.6 8.9.6 13.5 7.1 16z"/><path id="effect_inside" class="st11" d="M292.5 110.4c.3-26.2-29.9-27.1-29.9-27.1s19.6-7.2 0-34-42.1-5-42.1-5 .3-22.1-18.1-28.7-32.4 7.8-32.4 7.8-4-15.6-32.4-16.2-36.4 24.3-36.4 24.3-35.8-3-48.2 10.4c-12.5 13.4-2.8 32.4-2.8 32.4-5.3-.6-15.9 2.2-20.2 19.6s12.8 23.7 12.8 23.7-18.1 15.6-17.4 38c.6 22.4 27.1 18.7 27.1 18.7s-10.9 15.6 2.5 31.5 34.6 1.9 34.6 1.9-9 19 16.5 28.7 32.1-9.7 32.1-9.7 7.5 19 29.3 16.2c21.8-2.8 22.4-25.9 22.4-25.9s12.5 22.1 38 10.9c25.5-11.2 19.9-29.3 19.9-29.3s20.6-3.1 29.3-21.8-10.9-33.3-10.9-33.3 26-6.9 26.3-33.1zm-75.1 9.2s-4.5 2.6-4.2 10.3 2.6 13.6 6.1 14.2c0 0-19.8 3.1-21.3 12.9s1.4 21.8 1.4 21.8-3.4-7.6-19.6-5.4c-16.2 2.2-20.9 9.3-20.9 9.3s-1.6-7.9-14.3-7.6-14.8 7.6-14.8 7.6-2-12.9-10.4-16.2-21.5.2-21.5.2 1.6-9.2-4.7-11.1-19-.9-19-.9 14-7.8 15.9-17.4c1.9-9.7-7.9-18.1-7.9-18.1s14.8.9 21.6-9.7-1.6-18.7-1.6-18.7 19.8 1.4 26.9-7.2c7.2-8.6 3.3-28 3.3-28s10.1 10.4 19.3 9.3c9.2-1.1 12.1-10.6 12.1-10.6s1.2 6.5 5.8 7.2c4.5.6 13.4.3 13.4.3s-10.6 9.7-1.9 15.6 28.7 3.9 28.7 3.9-.9 8.6 3.1 9.8l12 3.6s-14.3 2.3-14.6 8.9.6 13.5 7.1 16z"/><g id="effect"><path id="XMLID_76_" class="st11" d="M218.1 97.8s-.8-.2-1.8-.5c-1.1.5-2.2 1.1-3.1 1.8 2.6-.9 4.9-1.3 4.9-1.3z"/><path id="XMLID_77_" class="st11" d="M177.7 71.7c1.3-2 2.8-3.3 2.8-3.3h-2.2c-.4 1-.6 2.1-.6 3.3z"/><path id="XMLID_80_" class="st11" d="M292.5 110.4c.3-26.2-29.9-27.1-29.9-27.1s19.6-7.2 0-34-42.1-5-42.1-5 .3-22.1-18.1-28.7-32.4 7.8-32.4 7.8-4-15.6-32.4-16.2-36.4 24.3-36.4 24.3-35.8-3-48.2 10.4c-12.5 13.4-2.8 32.4-2.8 32.4-5.3-.6-15.9 2.2-20.2 19.6s12.8 23.7 12.8 23.7-18.1 15.6-17.4 38c.6 22.4 27.1 18.7 27.1 18.7s-10.9 15.6 2.5 31.5 34.6 1.9 34.6 1.9-9 19 16.5 28.7 32.1-9.7 32.1-9.7 7.5 19 29.3 16.2c21.8-2.8 22.4-25.9 22.4-25.9s12.5 22.1 38 10.9c25.5-11.2 19.9-29.3 19.9-29.3s20.6-3.1 29.3-21.8-10.9-33.3-10.9-33.3 26-6.9 26.3-33.1zM255 141.5s17.6 13.1 9.8 29.9c-7.8 16.8-26.3 19.6-26.3 19.6s5 16.2-17.9 26.3c-22.9 10.1-34.1-9.8-34.1-9.8s-.6 20.7-20.1 23.2c-19.6 2.5-26.3-14.5-26.3-14.5s-5.9 17.3-28.8 8.7-14.8-25.7-14.8-25.7-19 12.6-31-1.7c-12-14.2-2.2-28.2-2.2-28.2s-23.7 3.4-24.3-16.8c-.6-20.1 15.6-34.1 15.6-34.1s-15.4-5.6-11.5-21.2C47 81.6 56.5 79 61.3 79.6c0 0-8.7-17 2.5-29s43.3-9.2 43.3-9.2 7.3-22.4 32.7-21.8c25.5.4 29.1 14.4 29.1 14.4s12.6-12.9 29.1-7 16.2 25.7 16.2 25.7 20.1-19.6 37.7 4.5 0 30.5 0 30.5 27.1.8 26.8 24.3c-.3 23.4-23.7 29.5-23.7 29.5z"/></g><path id="cloud" class="st14" d="M42.7 117.6s-17.1-6.2-12.8-23.7 15-20.2 20.2-19.6c0 0-9.7-19 2.8-32.4s48.3-10.3 48.3-10.3 8.1-24.9 36.4-24.3S170 23.5 170 23.5s14-14.3 32.4-7.8 18.1 28.7 18.1 28.7 22.4-21.8 42.1 5 0 34 0 34 30.2.9 29.9 27.1c-.3 26.2-26.5 33-26.5 33s19.6 14.6 10.9 33.3c-8.7 18.7-29.3 21.8-29.3 21.8s5.6 18.1-19.9 29.3-38-10.9-38-10.9-.6 23.1-22.4 25.9c-21.8 2.8-29.3-16.2-29.3-16.2s-6.5 19.3-32.1 9.7c-25.5-9.7-16.5-28.7-16.5-28.7s-21.2 14-34.6-1.9-2.5-31.5-2.5-31.5-26.5 3.7-27.1-18.7c-.6-22.5 17.5-38 17.5-38z"/><path id="hole_1_" class="st14" d="M74.1 154.6s14-7.8 15.9-17.4c1.9-9.7-7.9-18.1-7.9-18.1s14.8.9 21.6-9.7-1.6-18.7-1.6-18.7 19.8 1.4 26.9-7.2c7.2-8.6 3.3-28 3.3-28s10.1 10.4 19.3 9.3c9.2-1.1 12.1-10.6 12.1-10.6s1.2 6.5 5.8 7.2c4.5.6 13.4.3 13.4.3s-10.6 9.7-1.9 15.6 28.7 3.9 28.7 3.9-.9 8.6 3.1 9.8l12 3.6s-14.3 2.3-14.6 8.9.6 13.6 7.2 16c0 0-4.5 2.6-4.2 10.3s2.6 13.6 6.1 14.2c0 0-19.8 3.1-21.3 12.9s1.4 21.8 1.4 21.8-3.4-7.6-19.6-5.4c-16.2 2.2-20.9 9.3-20.9 9.3s-1.6-7.9-14.3-7.6-14.8 7.6-14.8 7.6-2-12.9-10.4-16.2-21.5.2-21.5.2 1.6-9.2-4.7-11.1-19.1-.9-19.1-.9z"/><path id="XMLID_81_" d="M292.5 110.4c.3-26.2-29.9-27.1-29.9-27.1s19.6-7.2 0-34-42.1-5-42.1-5 .3-22.1-18.1-28.7-32.4 7.8-32.4 7.8-4-15.6-32.4-16.2-36.4 24.3-36.4 24.3-35.8-3-48.2 10.4c-12.5 13.4-2.8 32.4-2.8 32.4-5.3-.6-15.9 2.2-20.2 19.6s12.8 23.7 12.8 23.7-18.1 15.6-17.4 38c.6 22.4 27.1 18.7 27.1 18.7s-10.9 15.6 2.5 31.5 34.6 1.9 34.6 1.9-9 19 16.5 28.7 32.1-9.7 32.1-9.7 7.5 19 29.3 16.2c21.8-2.8 22.4-25.9 22.4-25.9s12.5 22.1 38 10.9c25.5-11.2 19.9-29.3 19.9-29.3s20.6-3.1 29.3-21.8-10.9-33.3-10.9-33.3 26-6.9 26.3-33.1zm-67.2-10.6c-.4 8.2.8 16.9 8.9 20 0 0-5.6 3.3-5.2 12.8.4 9.5 3.3 16.9 7.6 17.7 0 0-24.7 3.9-26.6 16.1-1.9 12.2 1.7 27.1 1.7 27.1s-4.3-9.5-24.5-6.7c-20.2 2.7-26 11.7-26 11.7s-1.9-9.9-17.9-9.5c-15.9.4-18.5 9.5-18.5 9.5s-2.5-16.1-13-20.2c-10.5-4.1-26.8.2-26.8.2s1.9-11.5-5.8-13.8-23.7-1.2-23.7-1.2 17.5-9.7 19.8-21.8c2.3-12.1-9.9-22.5-9.9-22.5s18.5 1.2 27-12.1-1.9-23.3-1.9-23.3 24.7 1.7 33.6-8.9 4.1-35 4.1-35 12.6 13 24.1 11.7c11.5-1.4 15.2-13.2 15.2-13.2s1.6 8.2 7.2 8.9c5.6.8 16.7.4 16.7.4s-13.2 12.1-2.3 19.4c10.9 7.4 35.8 4.9 35.8 4.9s-1.2 10.7 3.9 12.2c5.1 1.6 15 4.5 15 4.5s-18.1 3-18.5 11.1z" style="fill:#fdfdfe"/><path id="XMLID_71_" class="st7" d="M211 45.1s6.5-11.7-2.9-17.4c-9.4-5.7-16.6-1.2-16.6-1.2s11.2-1.8 16.4 4.8 3.1 13.8 3.1 13.8z"/><path id="XMLID_73_" class="st7" d="M110 222.4s7 11.3 16.6 6c9.6-5.4 9.1-13.9 9.1-13.9s-3.9 10.6-12.3 12-13.4-4.1-13.4-4.1z"/><path id="XMLID_82_" class="st7" d="M62.9 84.4s-9.1-9.7-17.4-2.5-6.1 15.4-6.1 15.4 1.7-11.1 9.6-14.1c7.8-3 13.9 1.2 13.9 1.2z"/><path id="XMLID_83_" class="st7" d="M277.2 112.2s7.9-10.7-.6-17.6c-8.5-6.9-16.2-3.3-16.2-3.3s11.3-.3 15.6 6.9 1.2 14 1.2 14z"/></g></svg>