<svg version="1.0" xmlns="http://www.w3.org/2000/svg" width="300" height="260" style="enable-background:new 0 0 300 260" xml:space="preserve"><style>.st0{display:none}.st2{display:inline}.st4,.st5{stroke-miterlimit:10}.st4{fill:#fff;stroke:#b4b4b5;stroke-width:12}.st5{stroke:#e8e8e8;stroke-width:6}.st5,.st6{fill:#fff}.st7{fill:#b5b5b6}.st8{fill:none;stroke:#b4b4b5;stroke-width:5;stroke-miterlimit:10}.st9{fill:#eaeaea}.st11{fill:#e5e5e5}.st12{fill:#e3e5e4}.st13{display:inline;fill:none;stroke:#b4b4b5;stroke-width:5;stroke-miterlimit:10}.st14,.st15,.st17{display:inline;fill:#e5e5e5}.st15,.st17{fill:#fff}.st17{fill:#b5b5b6}.st21,.st22{fill:#ededed}.st22{display:inline}.st28{fill:#c6c6c5}</style><g id="cloud6"><g id="Calque_14"><path id="XMLID_44_" class="st8" d="M67.3 117.1s8.5 12.3 5.7 22.5c-2.7 10.1-8.2 18.6-23.8 19.4s-27.1-17.2-26.8-24.9 7.7-18.3 11.2-20c0 0-10.2-12.1-7-24.9s17.6-17 17.6-17-6.8-38.6 12.2-38.5c19.1.1 21.2 4 21.2 4s15.1-12.9 22.8-1.4 1.6 22.5 1.6 22.5 19 4.6 12.7 24.1C108.5 102.6 92 95.3 92 95.3s12.3 9.2 11.5 20c-3.9-2-37.7-5.7-36.2 1.8z"/><path id="XMLID_85_" class="st6" d="M67.3 117.1s8.5 12.3 5.7 22.5c-2.7 10.1-8.2 18.6-23.8 19.4s-27.1-17.2-26.8-24.9 7.7-18.3 11.2-20c0 0-10.2-12.1-7-24.9s17.6-17 17.6-17-6.8-38.6 12.2-38.5c19.1.1 21.2 4 21.2 4s15.1-12.9 22.8-1.4 1.6 22.5 1.6 22.5 19 4.6 12.7 24.1C108.5 102.6 92 95.3 92 95.3s12.3 9.2 11.5 20c-3.9-2-37.7-5.7-36.2 1.8z"/><g id="XMLID_87_"><path id="XMLID_91_" class="st9" d="M110.6 67.1s1.7.4 3.9 1.4c-.8-1.6-1.7-2.9-2.8-4-.5 1.6-1.1 2.6-1.1 2.6z"/><path id="XMLID_92_" class="st9" d="M29.4 139.7c.3-7.4 7.8-17.7 11.4-19.3 0 0-10.4-11.7-7.2-24.1C36.9 84 51.6 80 51.6 80s-7-37.3 12.5-37.2c19.5.1 21.6 3.9 21.6 3.9s9.4-7.5 17.2-5.6c-.6-1.6-1.4-3.1-2.4-4.7-7.7-11.5-22.8 1.4-22.8 1.4s-2.1-3.9-21.2-4c-19.1-.1-12.2 38.5-12.2 38.5s-14.4 4.2-17.6 17c-3.2 12.8 7 24.9 7 24.9-3.6 1.6-11 12.3-11.2 20-.2 5.9 6.5 17.8 16.6 22.7-6.2-5.6-9.9-13-9.7-17.2z"/></g><path id="XMLID_86_" class="st7" d="M88.9 55.5s-7.2-9.2-15.1-3.6-6.6 13-6.6 13 2.4-9.6 9.6-11.6c7.1-2 12.1 2.2 12.1 2.2z"/><path id="XMLID_97_" class="st7" d="M58.8 89.3s-11.7-1.1-13 8.5c-1.3 9.6 4.9 13.7 4.9 13.7s-5.4-8.4-1.9-14.9c3.5-6.6 10-7.3 10-7.3z"/><path id="XMLID_98_" class="st7" d="M51.2 129.9s-11.7-1.1-13 8.5c-1.3 9.6 4.9 13.7 4.9 13.7s-5.4-8.4-1.9-14.9c3.5-6.6 10-7.3 10-7.3z"/></g><g id="Calque_15"><path id="XMLID_165_" d="m189.2 75.8 2 6.2 29-18.3s.5 11.3 10 13.3 25-2.5 28.2-14.5.8-39.7-28.8-26.2c-2.1-2.2-4.5-4.6-4.5-4.6l-7.8.9.4-11.9s-8.2-15.1-25.7-12-21.4 9.3-21.4 9.3S150.4-4 135 8.9s-1.1 34.3 11.4 36.7 14.5 1.6 14.5 1.6.2 3.4 3.7 3.8c3.6.5 15.6.1 15.6.1l1.5 24.6 7.5.1z" style="fill:#009444"/><path id="XMLID_161_" class="st8" d="m189.2 75.8 2 6.2 29-18.3s.5 11.3 10 13.3 25-2.5 28.2-14.5.8-39.7-28.8-26.2c-2.1-2.2-4.5-4.6-4.5-4.6l-7.8.9.4-11.9s-8.2-15.1-25.7-12-21.4 9.3-21.4 9.3S150.4-4 135 8.9s-1.1 34.3 11.4 36.7 14.5 1.6 14.5 1.6.2 3.4 3.7 3.8c3.6.5 15.6.1 15.6.1l1.5 24.6 7.5.1z"/><path id="XMLID_160_" class="st6" d="m189.2 75.8 2 6.2 29-18.3s.5 11.3 10 13.3 25-2.5 28.2-14.5.8-39.7-28.8-26.2c-2.1-2.2-4.5-4.6-4.5-4.6l-7.8.9.4-11.9s-8.2-15.1-25.7-12-21.4 9.3-21.4 9.3S150.4-4 135 8.9s-1.1 34.3 11.4 36.7 14.5 1.6 14.5 1.6.2 3.4 3.7 3.8c3.6.5 15.6.1 15.6.1l1.5 24.6 7.5.1z"/><path id="XMLID_159_" class="st9" d="M229.6 36.3c-2.1-2.2-4.5-4.6-4.5-4.6l-7.8.9.4-11.9s-8.2-15.1-25.7-12c-17.5 3.1-21.4 9.3-21.4 9.3S150.4-4 135 8.9c-4.7 3.9-6.6 8.5-6.7 13.2.8-.9 1.6-1.8 2.7-2.6 15.4-12.9 35.6 9.3 35.6 9.3s3.9-6.2 21.4-9.3 25.7 12 25.7 12l-.4 11.9 7.8-.9s2.4 2.4 4.5 4.6c26.5-12.1 31.2 8.7 29.6 21.9 1.5-1.8 2.6-3.9 3.2-6.3 3.2-12.2.9-39.9-28.8-26.4z"/><path id="XMLID_158_" class="st7" d="M161.1 20.5s-7.2-9.2-15.1-3.6-6.6 13-6.6 13 2.4-9.6 9.6-11.6c7.1-2.1 12.1 2.2 12.1 2.2z"/><path id="XMLID_157_" class="st7" d="M246.6 62.5s7.7-8.8.8-15.5c-7-6.7-14-4.1-14-4.1s9.9.6 13.2 7.2c3.2 6.7 0 12.4 0 12.4z"/></g><g id="Calque_16"><path id="XMLID_72_" class="st8" d="m105 159 1.5 9.6 5.1 2.2v24.1h17.1l4.9 5.6 2.6 7.8s5.7-21.5 6.2-21.5 3.8 2.2 3.8 2.2l8.5 1.2s2.3 8.6 7.1 11.2c0 0 8.1-7.1 8.5-10s17.9-.1 17.9-.1 17.2 21.2-1.5 30.9c0 0 1.2 20.4-22 20.8S135 228.1 135 228.1s-3.3 16-29.3 8.5-21.2-24.4-21.2-24.4-42.7 2.3-38.5-25.1 31.1-19 31.1-19l11.2 11.2c0 .1 16.7-12.7 16.7-20.3z"/><path id="XMLID_101_" class="st6" d="m105 159 1.5 9.6 5.1 2.2v24.1h17.1l4.9 5.6 2.6 7.8s5.7-21.5 6.2-21.5 3.8 2.2 3.8 2.2l8.5 1.2s2.3 8.6 7.1 11.2c0 0 8.1-7.1 8.5-10s17.9-.1 17.9-.1 17.2 21.2-1.5 30.9c0 0 1.2 20.4-22 20.8S135 228.1 135 228.1s-3.3 16-29.3 8.5-21.2-24.4-21.2-24.4-42.7 2.3-38.5-25.1 31.1-19 31.1-19l11.2 11.2c0 .1 16.7-12.7 16.7-20.3z"/><path id="XMLID_107_" class="st11" d="M186.7 209.9s1.2 20.4-22 20.8-29.7-14.9-29.7-14.9-3.3 16-29.3 8.5-21.2-24.4-21.2-24.4-32 1.7-37.8-15.6c-.2.9-.5 1.8-.6 2.8-4.2 27.4 38.5 25.1 38.5 25.1s-4.8 16.8 21.2 24.4c26 7.5 29.3-8.5 29.3-8.5s6.4 15.3 29.7 14.9 22-20.8 22-20.8c9.7-5 9.8-13.2 7.5-19.8-1.3 2.8-3.6 5.5-7.6 7.5z"/><path id="XMLID_104_" class="st7" d="M158.9 217.3s6 10 14.5 5.4 8.2-12.1 8.2-12.1-3.6 9.3-10.9 10.4-11.8-3.7-11.8-3.7z"/><path id="XMLID_106_" class="st7" d="M101 208.8s.8 11.7 10.4 11.5 12.8-7 12.8-7-7.4 6.6-14.4 4.3-8.8-8.8-8.8-8.8z"/><path id="XMLID_108_" class="st7" d="M67.1 171.3S55.5 170 54 179.5s4.7 13.8 4.7 13.8-5.2-8.5-1.6-15c3.5-6.4 10-7 10-7z"/></g><g id="Calque_17"><path id="XMLID_105_" class="st8" d="M239.7 151.9s-18.5-10.5-14.6-22.2c3.8-11.6 7.5-6.3 3.1-14.4-4.4-8.1 0-22.7 10.4-22.2s10.5 4 10.5 4l1.5-11s28.7-7.9 36.1 7.1 7.8 38.6-14.2 44.5c-4.9 1.6.3 7.3.3 7.3s17.4 28.3-4.8 37.9c-5.7 11.8-4 19-4 19s-2.7 12-19.3 9.6c-16.6-2.5-18.6-18.3-18.6-18.3S213.7 181 215 168.4c1.4-12.5 24.7-16.5 24.7-16.5z"/><path id="XMLID_103_" class="st6" d="M239.7 151.9s-18.5-10.5-14.6-22.2c3.8-11.6 7.5-6.3 3.1-14.4-4.4-8.1 0-22.7 10.4-22.2s10.5 4 10.5 4l1.5-11s28.7-7.9 36.1 7.1 7.8 38.6-14.2 44.5c-4.9 1.6.3 7.3.3 7.3s17.4 28.3-4.8 37.9c-5.7 11.8-4 19-4 19s-2.7 12-19.3 9.6c-16.6-2.5-18.6-18.3-18.6-18.3S213.7 181 215 168.4c1.4-12.5 24.7-16.5 24.7-16.5z"/><g id="XMLID_99_"><path id="XMLID_102_" class="st12" d="M234.3 93.9c.6.6.6 1.1.6 1.1l.2-1.4c-.3.1-.5.2-.8.3z"/><path id="XMLID_100_" class="st12" d="M272.5 137.8c22-5.9 21.6-29.4 14.2-44.5-3.9-7.9-13.7-9.5-22.1-9.2 3.3 1.4 6.2 3.6 7.8 7.1 7.4 15.1 7.8 38.6-14.2 44.5-4.9 1.6.3 7.3.3 7.3s17.4 28.3-4.8 37.9c-5.7 11.8-4 19-4 19s-1.9 8.1-11.7 9.7c1.9.9 4.1 1.7 6.7 2 16.6 2.5 19.3-9.6 19.3-9.6s-1.8-7.3 4-19c22.2-9.6 4.8-37.9 4.8-37.9s-5.2-5.7-.3-7.3z"/></g><path id="XMLID_93_" class="st7" d="M227.6 179.4s6 10 14.5 5.4 8.2-12.1 8.2-12.1-3.6 9.3-10.9 10.4-11.8-3.7-11.8-3.7z"/><path id="XMLID_52_" class="st7" d="M264.1 116.5s10.3-5.6 6-14.3c-4.3-8.7-11.8-8.6-11.8-8.6s9.1 3.9 9.9 11.3c.8 7.4-4.1 11.6-4.1 11.6z"/></g></g></svg>