<svg version="1.0" xmlns="http://www.w3.org/2000/svg" width="300" height="260" style="enable-background:new 0 0 300 260" xml:space="preserve"><style>.st4{fill:#6d6e71;stroke:#000;stroke-miterlimit:10}.st8{opacity:.5;fill:#939599}</style><g id="Calque_3_-_copie"><path id="XMLID_23_" d="M236 216.3c-3.6 3.6-9.6 3.6-13.2 0L83.2 76.8c-3.6-3.6-3.6-9.6 0-13.2 3.6-3.6 9.6-3.6 13.2 0L236 203.1c3.6 3.7 3.6 9.6 0 13.2z" style="fill:#a97c50;stroke:#000;stroke-miterlimit:10"/><path id="XMLID_13_" d="M229.2 215.9c-.9.9-2.3.9-3.2 0L83.2 73.2c-.9-.9-.9-2.3 0-3.2.9-.9 2.3-.9 3.2 0l142.8 142.8c.9.8.9 2.3 0 3.1z" style="opacity:.25;fill:#c3976f"/><g id="Layer_3"><path id="XMLID_1_" class="st4" d="M114.4 94.7c31.2-31.2 64.4-51.8 85-54.3-19.8-10.3-62.6 5.7-98.1 41.2S49.7 159.9 60 179.7c2.6-20.6 23.1-53.7 54.4-85z"/><path id="XMLID_9_" d="M190.1 42.5c-21.8.4-53.7 17.5-82.1 45.9s-45.5 60.3-45.9 82.1c6.4-20.5 25.3-48.8 52.2-75.7s55.3-45.9 75.8-52.3z" style="opacity:.5;fill:#333435"/><path id="XMLID_8_" d="M114.4 94.7c31.2-31.2 64.4-51.8 85-54.3-19.8-10.3-62.6 5.7-98.1 41.2S49.7 159.9 60 179.7c2.6-20.6 23.1-53.7 54.4-85z" style="fill:none;stroke:#000;stroke-miterlimit:10"/></g><path id="XMLID_12_" class="st4" d="m102.8 99.1 14.9 14.9c1.6 1.6 6.4-.7 10.8-5.1 4.4-4.4 6.7-9.2 5.1-10.8l-14.9-14.9-6.5 9.2-9.4 6.7z"/><path id="XMLID_11_" class="st4" d="m88.4 87.7 17.7 17.7c1.9 1.9 7.6-.9 12.8-6.1 5.2-5.2 7.9-10.9 6.1-12.8l-17.7-17.7-7.7 11-11.2 7.9z"/><path id="XMLID_7_" class="st4" d="M102 69.2c1.4 2 1.1 4.9-.6 6.7l-5.9 5.9c-1.8 1.8-4.7 2.1-6.7.6-1.2 2.4-1.4 4.3-.4 5.3 1.9 1.9 7.6-.9 12.8-6.1 5.2-5.2 7.9-10.9 6.1-12.8-1-1-2.9-.8-5.3.4z"/><path id="XMLID_6_" class="st8" d="M101.7 96.5c-.8.8-2.2.8-3.1 0l-4.8-4.8c-.8-.8-.8-2.2 0-3.1.8-.8 2.2-.8 3.1 0l4.8 4.8c.9.9.9 2.3 0 3.1z"/><path id="XMLID_5_" class="st8" d="M117.6 109.4c-.8.8-2.2.8-3.1 0l-1.4-1.4c-.8-.8-.8-2.2 0-3.1.8-.8 2.2-.8 3.1 0l1.4 1.4c.9.8.9 2.2 0 3.1z"/><path id="XMLID_4_" d="M64.2 146.6s-.3-19.7 17.3-35.5-11.6 15.5-17.3 35.5z" style="fill:#939599"/></g></svg>