<svg version="1.0" xmlns="http://www.w3.org/2000/svg" width="300" height="260" style="enable-background:new 0 0 300 260" xml:space="preserve"><style>.st0{display:none}.st1{display:inline}.st2{fill:#a9a8a8}.st3{fill:#c6c6c5}.st5{fill:none;stroke:#aaa8a8;stroke-width:3;stroke-miterlimit:10}</style><g id="Calque_36_-_copie_3"><g id="Calque_2_-_copie_9_1_"><path id="XMLID_94_" class="st2" d="M274.9 197.5c-3-4.6-7.2-8.1-12-10.2l1.7-5.2-5.6-1.8-1.7 5.2c-5.1-1.1-10.6-.7-15.7 1.2l-2.5-4.8-5.2 2.7 2.5 4.8c-4.6 3-8.1 7.2-10.2 12l-5.2-1.7-1.8 5.6 5.2 1.7c-1.1 5.1-.7 10.6 1.2 15.7l-4.8 2.5 2.7 5.2 4.8-2.5c3 4.6 7.2 8.1 12 10.2l-1.7 5.2 5.6 1.8 1.7-5.2c5.1 1.1 10.6.7 15.7-1.2l2.5 4.8 5.2-2.7-2.5-4.8c4.6-3 8.1-7.2 10.2-12l5.2 1.7 1.8-5.6-5.2-1.7c1.1-5.1.7-10.6-1.2-15.7l4.8-2.5-2.7-5.2-4.8 2.5zm-12.7 36.2c-11.6 5.9-25.7 1.3-31.6-10.3-5.9-11.6-1.3-25.7 10.3-31.6 11.6-5.9 25.7-1.3 31.6 10.3 5.9 11.5 1.3 25.7-10.3 31.6z"/><path id="XMLID_91_" class="st3" d="M240.9 191.8c-11.6 5.9-16.2 20.1-10.3 31.6 5.9 11.6 20.1 16.2 31.6 10.3 11.6-5.9 16.2-20.1 10.3-31.6-5.9-11.6-20-16.2-31.6-10.3zm17.9 35.2c-7.9 4-17.6.9-21.6-7s-.9-17.6 7-21.6 17.6-.9 21.6 7c4.1 7.9 1 17.6-7 21.6z"/><radialGradient id="XMLID_128_" cx="251.554" cy="212.718" r="39.949" gradientTransform="rotate(-27 251.547 212.715)" gradientUnits="userSpaceOnUse"><stop offset="0" style="stop-color:#d6d5d5"/><stop offset=".321" style="stop-color:#d4d3d2"/><stop offset=".542" style="stop-color:#cccaca"/><stop offset=".732" style="stop-color:#bebdbd"/><stop offset=".903" style="stop-color:#acabab"/><stop offset="1" style="stop-color:#9f9e9e"/></radialGradient><path id="XMLID_88_" d="m289.9 200-5.5-10.9-8.6 4.4c-2.5-3.2-5.6-5.8-9.1-7.7l3-9.2-11.6-3.8-3 9.2c-3.9-.5-7.9-.2-11.9.9l-4.4-8.6-10.9 5.5 4.4 8.6c-3.2 2.5-5.8 5.6-7.7 9.1l-9.2-3-3.8 11.6 9.2 3c-.5 3.9-.2 7.9.9 11.9l-8.6 4.4 5.5 10.9 8.6-4.4c2.5 3.2 5.6 5.8 9.1 7.7l-3 9.2 11.6 3.8 3-9.2c3.9.5 7.9.2 11.9-.9l4.4 8.6 10.9-5.5-4.4-8.6c3.2-2.5 5.8-5.6 7.7-9.1l9.2 3 3.8-11.6-9.2-3c.5-3.9.2-7.9-.9-11.9l8.6-4.4zm-31.3 26.5c-7.6 3.9-16.9.8-20.7-6.7-3.9-7.6-.8-16.9 6.7-20.7 7.6-3.9 16.9-.8 20.7 6.7 3.9 7.5.8 16.8-6.7 20.7z" style="fill:url(#XMLID_128_);stroke:#414042;stroke-width:3;stroke-miterlimit:10"/><path id="XMLID_85_" class="st5" d="M242.1 194.2c-10.2 5.2-14.3 17.7-9.1 28 5.2 10.2 17.7 14.3 28 9.1 10.2-5.2 14.3-17.7 9.1-28-5.2-10.3-17.8-14.3-28-9.1zm17.6 34.4c-8.8 4.5-19.5 1-24-7.8s-1-19.5 7.8-24 19.5-1 24 7.8c4.4 8.8.9 19.5-7.8 24z"/></g><g id="Calque_2_-_copie_9"><path id="XMLID_70_" class="st2" d="M68.5 30.9c-3-4.6-7.2-8.1-12-10.2l1.7-5.2-5.6-1.8-1.7 5.2c-5.1-1.1-10.6-.7-15.7 1.2l-2.5-4.8-5.2 2.7 2.5 4.8c-4.6 3-8.1 7.2-10.2 12l-5.2-1.7-1.8 5.6 5.2 1.7c-1.1 5.1-.7 10.6 1.2 15.7l-4.8 2.5 2.7 5.2 4.8-2.5c3 4.6 7.2 8.1 12 10.2l-1.7 5.2 5.6 1.8 1.7-5.2c5.1 1.1 10.6.7 15.7-1.2l2.5 4.8 5.2-2.7-2.5-4.8c4.6-3 8.1-7.2 10.2-12l5.2 1.7 1.8-5.6-5.2-1.7c1.1-5.1.7-10.6-1.2-15.7l4.8-2.5-2.7-5.2-4.8 2.5zM55.8 67.1C44.2 73 30.1 68.4 24.2 56.8c-5.9-11.6-1.3-25.7 10.3-31.6s25.7-1.3 31.6 10.3C72 47 67.4 61.2 55.8 67.1z"/><path id="XMLID_67_" class="st3" d="M34.5 25.2c-11.6 5.9-16.2 20.1-10.3 31.6 5.9 11.6 20 16.2 31.6 10.3C67.4 61.2 72 47 66.1 35.5 60.2 23.9 46 19.3 34.5 25.2zm17.9 35.2c-7.9 4-17.6.9-21.6-7s-.9-17.6 7-21.6 17.6-.9 21.6 7c4.1 7.9.9 17.6-7 21.6z"/><radialGradient id="XMLID_129_" cx="45.127" cy="46.126" r="39.949" gradientTransform="rotate(-27 45.125 46.125)" gradientUnits="userSpaceOnUse"><stop offset="0" style="stop-color:#d6d5d5"/><stop offset=".321" style="stop-color:#d4d3d2"/><stop offset=".542" style="stop-color:#cccaca"/><stop offset=".732" style="stop-color:#bebdbd"/><stop offset=".903" style="stop-color:#acabab"/><stop offset="1" style="stop-color:#9f9e9e"/></radialGradient><path id="XMLID_64_" d="M83.5 33.4 78 22.5l-8.6 4.4c-2.5-3.2-5.6-5.8-9.1-7.7l3-9.2-11.6-3.8-3 9.2c-3.9-.5-7.9-.2-11.9.9l-4.4-8.6-10.9 5.5 4.4 8.6c-3.2 2.5-5.8 5.6-7.7 9.1L9 28 5.2 39.6l9.2 3c-.5 3.9-.2 7.9.9 11.9l-8.6 4.4 5.5 10.9 8.6-4.4c2.5 3.2 5.6 5.8 9.1 7.7l-3 9.2L38.6 86l3-9.2c3.9.5 7.9.2 11.9-.9l4.4 8.6L68.8 79l-4.4-8.6c3.2-2.5 5.8-5.6 7.7-9.1l9.2 3L85 52.7l-9.2-3c.5-3.9.2-7.9-.9-11.9l8.6-4.4zM52.1 59.9c-7.6 3.9-16.9.8-20.7-6.7s-.8-16.9 6.7-20.7c7.6-3.9 16.9-.8 20.7 6.7s.9 16.8-6.7 20.7z" style="fill:url(#XMLID_129_);stroke:#414042;stroke-width:3;stroke-miterlimit:10"/><path id="XMLID_61_" class="st5" d="M35.7 27.6c-10.2 5.2-14.3 17.7-9.1 28 5.2 10.2 17.7 14.3 28 9.1 10.2-5.2 14.3-17.7 9.1-28-5.3-10.3-17.8-14.3-28-9.1zM53.2 62c-8.8 4.5-19.5 1-24-7.8s-1-19.5 7.8-24 19.5-1 24 7.8 1 19.6-7.8 24z"/></g></g></svg>