<?xml version="1.0" encoding="utf-8"?>
<!-- Generator: Adobe Illustrator 19.0.0, SVG Export Plug-In . SVG Version: 6.00 Build 0)  -->
<svg version="1.0" id="圖層_1" xmlns="http://www.w3.org/2000/svg" xmlns:xlink="http://www.w3.org/1999/xlink" x="0px" y="0px" width="300px" height="260px"
	 viewBox="0 21 300 260" style="enable-background:new 0 21 300 260;" xml:space="preserve">
<style type="text/css">
	.st0{fill:#6D6E71;stroke:#414042;stroke-width:2;stroke-miterlimit:10;}
	.st1{fill:#808285;stroke:#414042;stroke-width:2;stroke-miterlimit:10;}
	.st2{opacity:0.26;fill:url(#XMLID_3_);enable-background:new    ;}
	.st3{opacity:0.64;fill-opacity:0.51;enable-background:new    ;}
	.st4{opacity:0.2;fill:#FFFFFF;enable-background:new    ;}
	.st5{opacity:0.5;}
	.st6{fill:#E2E2E2;}
	.st7{fill:none;stroke:#414042;stroke-miterlimit:10;}
	.st8{opacity:0.5;fill:#E2E2E2;enable-background:new    ;}
	.st9{opacity:0.5;fill:#9B9A9A;enable-background:new    ;}
	.st10{opacity:0.5;fill:#414042;enable-background:new    ;}
</style>
<g id="圖層_12_2_">
	<g id="圖層_2_2_">
		<rect id="XMLID_390_" x="133.4" y="83" class="st0" width="32.4" height="57.8"/>
		<rect id="XMLID_389_" x="121.6" y="138.4" class="st1" width="56.1" height="8.9"/>
		
			<radialGradient id="XMLID_3_" cx="149.6278" cy="174.3051" r="23.1461" gradientTransform="matrix(1.2887 0 0 1.1371 -43.0372 -13.8397)" gradientUnits="userSpaceOnUse">
			<stop  offset="1.076729e-007" style="stop-color:#FFFFFF;stop-opacity:0"/>
			<stop  offset="0.6364" style="stop-color:#FFFFFF;stop-opacity:0.6512"/>
			<stop  offset="1" style="stop-color:#FFFFFF;stop-opacity:0.95"/>
		</radialGradient>
		<path id="XMLID_374_" class="st2" d="M111.9,175.4l14.7,19c1.9,2.5,5.2,4,8.6,4.1l29,0.1c3.5,0,6.7-1.5,8.6-4l14.8-18.9
			c0.5-0.6,0.8-1.3,1-1.9c0.5-1.7-1-3.4-3.1-3.4l-30,11.8c-3.9,1.5-8.1,1.5-12,0l-29.7-11.7c-2.1,0-3.7,1.8-3,3.5
			C111.2,174.3,111.5,174.9,111.9,175.4z"/>
		<rect id="XMLID_371_" x="157.2" y="83" class="st3" width="7.6" height="55.8"/>
		<rect id="XMLID_369_" x="122.6" y="143.8" class="st4" width="54.1" height="2.4"/>
		<rect id="XMLID_370_" x="127.2" y="81.4" class="st0" width="45.9" height="16.6"/>
		<rect id="XMLID_368_" x="128.3" y="93.4" class="st4" width="43.9" height="3.6"/>
	</g>
	<g id="圖層_4_1_">
		<g id="XMLID_503_" class="st5">
			<path id="XMLID_506_" class="st6" d="M70.9,88.2c-3,0-5.5-0.9-7-2.4C63.2,85,62.7,84,62.6,83c-0.4-0.1-0.8-0.2-1.2-0.2
				c-1.6-0.3-3.6-0.6-4.9-3c-1.3-2.6,0.1-5.4,1-6.6c-0.9-1.1-2.5-3.4-2.7-6.3c-0.2-3.4,3-5.3,4.5-6c0.1-1.2,0.5-3.7,3-5.1
				c1-0.6,2-0.9,2.9-0.9c0.6,0,1.1,0.1,1.5,0.3c0.7-1.3,2.3-3.4,4.9-3.4c1,0,2.1,0.3,3.2,0.9c5.3,3,5.3,7.1,5.3,7.8
				c0.1,1.8-0.3,4.6-2.2,5.8c1,1.5,1.5,3.9,1.4,6.3c1.8,1.9,1.9,5,1.9,5.2c0,1.2-0.6,2.8-2.3,3.3c0.1,1.1,0,2.5-0.8,3.8
				c-0.8,1.5-2.2,2.5-3.9,2.9C73.1,88.1,72,88.2,70.9,88.2z"/>
			<path id="XMLID_505_" class="st7" d="M70.9,88.2c-3,0-5.5-0.9-7-2.4C63.2,85,62.7,84,62.6,83c-0.4-0.1-0.8-0.2-1.2-0.2
				c-1.6-0.3-3.6-0.6-4.9-3c-1.3-2.6,0.1-5.4,1-6.6c-0.9-1.1-2.5-3.4-2.7-6.3c-0.2-3.4,3-5.3,4.5-6c0.1-1.2,0.5-3.7,3-5.1
				c1-0.6,2-0.9,2.9-0.9c0.6,0,1.1,0.1,1.5,0.3c0.7-1.3,2.3-3.4,4.9-3.4c1,0,2.1,0.3,3.2,0.9c5.3,3,5.3,7.1,5.3,7.8
				c0.1,1.8-0.3,4.6-2.2,5.8c1,1.5,1.5,3.9,1.4,6.3c1.8,1.9,1.9,5,1.9,5.2c0,1.2-0.6,2.8-2.3,3.3c0.1,1.1,0,2.5-0.8,3.8
				c-0.8,1.5-2.2,2.5-3.9,2.9C73.1,88.1,72,88.2,70.9,88.2z"/>
		</g>
		<path id="XMLID_502_" class="st8" d="M58.7,73c0,0-2.8-2.6-3-6.3c-0.2-3.7,4.5-5.3,4.5-5.3s-0.3-3.3,2.5-4.9c2.9-1.6,4.4,0,4.4,0
			s2-5.9,7.1-3s4.8,6.9,4.8,6.9s0.3,5-2.9,5.4c1.3,0.9,2.4,3.8,2.1,7.1c1.9,1.6,1.9,4.8,1.9,4.8s0,2.5-2.5,2.5
			c0.5,1.4,0.4,5.6-3.8,6.6s-10.5-0.1-10.3-4.6c-2.1-0.9-4.8-0.1-6.3-3S58.7,73,58.7,73z"/>
		<path id="XMLID_501_" class="st9" d="M70.6,82.2c-2.1-0.9-4.8-0.1-6.3-3c-1.5-2.9,1.4-6.3,1.4-6.3s-2.8-2.6-3-6.3
			c-0.2-3.7,4.5-5.3,4.5-5.3s-0.3-3.3,2.5-4.9c2.9-1.6,4.4,0,4.4,0s0.4-1.2,1.3-2.2c-0.4-0.3-0.7-0.5-1.2-0.8c-5.1-2.9-7.1,3-7.1,3
			s-1.5-1.6-4.4,0s-2.5,4.9-2.5,4.9s-4.6,1.6-4.5,5.3c0.1,3.7,3,6.3,3,6.3s-2.9,3.4-1.4,6.3c1.5,2.9,4.1,2.1,6.3,3
			c-0.3,4.5,6.1,5.6,10.3,4.6c0.2,0,0.4-0.1,0.5-0.2C72.2,86,70.5,84.6,70.6,82.2z"/>
		<path id="XMLID_500_" class="st10" d="M68.8,73.5c0,0-4.7-4.1-1.8-8.3c2.9-4.2,7.3-3.7,7.3-3.7S65.7,65.3,68.8,73.5z"/>
	</g>
	<g id="圖層_4_拷貝">
		<g id="XMLID_513_" class="st5">
			<path id="XMLID_520_" class="st6" d="M227.7,88.6c-1.1,0-2.2-0.1-3.2-0.4c-1.8-0.4-3.1-1.4-3.9-2.9c-0.7-1.3-0.9-2.7-0.8-3.8
				c-1.7-0.5-2.3-2.2-2.3-3.3c0-0.1,0-3.2,1.9-5.2c-0.1-2.4,0.5-4.8,1.4-6.3c-1.8-1.2-2.2-4-2.2-5.8c0-0.7,0-4.8,5.3-7.8
				c1.1-0.6,2.2-0.9,3.2-0.9c2.6,0,4.2,2,4.9,3.4c0.4-0.2,0.9-0.3,1.5-0.3c0.9,0,1.9,0.3,2.9,0.9c2.5,1.4,3,3.8,3,5.1
				c1.4,0.7,4.6,2.5,4.5,6c-0.1,2.9-1.8,5.2-2.7,6.3c0.9,1.3,2.3,4.1,1,6.6c-1.3,2.4-3.3,2.8-4.9,3c-0.4,0.1-0.9,0.1-1.2,0.2
				c-0.1,1.1-0.5,2.1-1.3,2.9C233.2,87.7,230.7,88.6,227.7,88.6L227.7,88.6z"/>
			<path id="XMLID_519_" class="st7" d="M227.7,88.6c-1.1,0-2.2-0.1-3.2-0.4c-1.8-0.4-3.1-1.4-3.9-2.9c-0.7-1.3-0.9-2.7-0.8-3.8
				c-1.7-0.5-2.3-2.2-2.3-3.3c0-0.1,0-3.2,1.9-5.2c-0.1-2.4,0.5-4.8,1.4-6.3c-1.8-1.2-2.2-4-2.2-5.8c0-0.7,0-4.8,5.3-7.8
				c1.1-0.6,2.2-0.9,3.2-0.9c2.6,0,4.2,2,4.9,3.4c0.4-0.2,0.9-0.3,1.5-0.3c0.9,0,1.9,0.3,2.9,0.9c2.5,1.4,3,3.8,3,5.1
				c1.4,0.7,4.6,2.5,4.5,6c-0.1,2.9-1.8,5.2-2.7,6.3c0.9,1.3,2.3,4.1,1,6.6c-1.3,2.4-3.3,2.8-4.9,3c-0.4,0.1-0.9,0.1-1.2,0.2
				c-0.1,1.1-0.5,2.1-1.3,2.9C233.2,87.7,230.7,88.6,227.7,88.6L227.7,88.6z"/>
		</g>
		<path id="XMLID_512_" class="st8" d="M239.9,73.4c0,0,2.8-2.6,3-6.3c0.2-3.7-4.5-5.3-4.5-5.3s0.3-3.3-2.5-4.9
			c-2.8-1.6-4.4,0-4.4,0s-2-5.9-7.1-3s-4.8,6.9-4.8,6.9s-0.3,5,2.9,5.4c-1.3,0.9-2.4,3.8-2.1,7.1c-1.9,1.6-1.9,4.7-1.9,4.7
			s0,2.5,2.5,2.5c-0.5,1.4-0.4,5.6,3.8,6.6s10.5-0.1,10.3-4.6c2.1-0.9,4.8-0.1,6.3-3S239.9,73.4,239.9,73.4z"/>
		<path id="XMLID_511_" class="st9" d="M228,82.6c2.1-0.9,4.8-0.1,6.3-3s-1.4-6.2-1.4-6.2s2.8-2.6,3-6.3c0.2-3.7-4.5-5.3-4.5-5.3
			s0.3-3.3-2.5-4.9c-2.9-1.6-4.4,0-4.4,0s-0.4-1.2-1.3-2.2c0.4-0.3,0.7-0.5,1.2-0.8c5.1-2.9,7.1,3,7.1,3s1.5-1.6,4.4,0
			s2.5,4.9,2.5,4.9s4.6,1.6,4.5,5.3c-0.1,3.7-3,6.3-3,6.3s2.9,3.4,1.4,6.2s-4.1,2.1-6.3,3c0.3,4.5-6.1,5.6-10.3,4.6
			c-0.2,0-0.4-0.1-0.5-0.2C226.4,86.4,228.1,85,228,82.6z"/>
		<path id="XMLID_510_" class="st10" d="M229.8,73.9c0,0,4.7-4.1,1.8-8.3c-2.9-4.2-7.3-3.7-7.3-3.7S232.9,65.7,229.8,73.9z"/>
	</g>
</g>
</svg>
