<?xml version="1.0" encoding="utf-8"?>
<!-- Generator: Adobe Illustrator 19.0.0, SVG Export Plug-In . SVG Version: 6.00 Build 0)  -->
<svg version="1.0" id="圖層_1" xmlns="http://www.w3.org/2000/svg" xmlns:xlink="http://www.w3.org/1999/xlink" x="0px" y="0px" width="300px" height="260px"
	 viewBox="0 21 300 260" style="enable-background:new 0 21 300 260;" xml:space="preserve">
<style type="text/css">
	.st0{fill:#6D6E71;stroke:#414042;stroke-width:2;stroke-miterlimit:10;}
	.st1{fill:#808285;stroke:#414042;stroke-width:2;stroke-miterlimit:10;}
	.st2{opacity:0.26;fill:url(#XMLID_3_);enable-background:new    ;}
	.st3{opacity:0.64;fill-opacity:0.51;enable-background:new    ;}
	.st4{opacity:0.2;fill:#FFFFFF;enable-background:new    ;}
	.st5{opacity:0.3;}
	.st6{fill:#E2E2E2;}
	.st7{fill:none;stroke:#414042;stroke-miterlimit:10;}
	.st8{opacity:0.3;fill:#E2E2E2;enable-background:new    ;}
	.st9{opacity:0.3;fill:#9B9A9A;enable-background:new    ;}
	.st10{opacity:0.3;fill:#414042;enable-background:new    ;}
</style>
<g id="圖層_13">
	<g id="圖層_2_1_">
		<rect id="XMLID_367_" x="133.4" y="78.2" class="st0" width="32.4" height="62.6"/>
		<rect id="XMLID_366_" x="121.6" y="138.4" class="st1" width="56.1" height="8.9"/>
		
			<radialGradient id="XMLID_3_" cx="149.6278" cy="174.3051" r="23.1461" gradientTransform="matrix(1.2887 0 0 1.1371 -43.0372 -13.8397)" gradientUnits="userSpaceOnUse">
			<stop  offset="1.076729e-007" style="stop-color:#FFFFFF;stop-opacity:0"/>
			<stop  offset="0.6364" style="stop-color:#FFFFFF;stop-opacity:0.6512"/>
			<stop  offset="1" style="stop-color:#FFFFFF;stop-opacity:0.95"/>
		</radialGradient>
		<path id="XMLID_343_" class="st2" d="M111.9,175.4l14.7,19c1.9,2.5,5.2,4,8.6,4.1l29,0.1c3.5,0,6.7-1.5,8.6-4l14.8-18.9
			c0.5-0.6,0.8-1.3,1-1.9c0.5-1.7-1-3.4-3.1-3.4l-30,11.8c-3.9,1.5-8.1,1.5-12,0l-29.7-11.7c-2.1,0-3.7,1.8-3,3.5
			C111.2,174.3,111.5,174.9,111.9,175.4z"/>
		<rect id="XMLID_317_" x="157.2" y="78.2" class="st3" width="7.6" height="60.4"/>
		<rect id="XMLID_76_" x="122.6" y="143.8" class="st4" width="54.1" height="2.4"/>
		<rect id="XMLID_112_" x="127.2" y="73.4" class="st0" width="45.9" height="16.6"/>
		<rect id="XMLID_113_" x="128.3" y="85.4" class="st4" width="43.9" height="3.6"/>
	</g>
	<g id="圖層_5">
		<g id="XMLID_463_" class="st5">
			<path id="XMLID_476_" class="st6" d="M50.5,78c-0.6,0-1.3-0.2-1.9-0.5c-1.7-0.9-3.8-2.7-4.2-4.8c-0.2-0.8,0-1.6,0.4-2.3
				c-0.1-0.1-0.2-0.2-0.3-0.4c-0.7-0.8-1.6-1.9-1.2-3.7c0.4-1.8,2-2.6,3.1-3c0-1,0.3-2.6,1.3-4c0.7-0.9,1.8-1.4,3.2-1.4
				c0.6,0,1.1,0.1,1.5,0.2c0.5-0.5,1.5-1.2,2.9-1.2c0.2,0,0.5,0,0.7,0.1c1.2,0.2,2,0.8,2.4,1.4c0.4-0.1,0.9-0.3,1.5-0.3
				c0.9,0,2.6,0.3,3.4,2.6c1.4,3.6-0.3,5.7-0.6,6.1c-0.3,0.3-1.6,2-3.3,2c-0.2,1.1-0.8,2.3-1.7,3.3c0,1.7-1.1,3.1-1.2,3.3
				c-0.1,0.1-0.8,0.9-2,0.9c-0.2,0-0.4,0-0.6-0.1C53.1,77.2,51.9,78,50.5,78z"/>
			<path id="XMLID_475_" class="st7" d="M50.5,78c-0.6,0-1.3-0.2-1.9-0.5c-1.7-0.9-3.8-2.7-4.2-4.8c-0.2-0.8,0-1.6,0.4-2.3
				c-0.1-0.1-0.2-0.2-0.3-0.4c-0.7-0.8-1.6-1.9-1.2-3.7c0.4-1.8,2-2.6,3.1-3c0-1,0.3-2.6,1.3-4c0.7-0.9,1.8-1.4,3.2-1.4
				c0.6,0,1.1,0.1,1.5,0.2c0.5-0.5,1.5-1.2,2.9-1.2c0.2,0,0.5,0,0.7,0.1c1.2,0.2,2,0.8,2.4,1.4c0.4-0.1,0.9-0.3,1.5-0.3
				c0.9,0,2.6,0.3,3.4,2.6c1.4,3.6-0.3,5.7-0.6,6.1c-0.3,0.3-1.6,2-3.3,2c-0.2,1.1-0.8,2.3-1.7,3.3c0,1.7-1.1,3.1-1.2,3.3
				c-0.1,0.1-0.8,0.9-2,0.9c-0.2,0-0.4,0-0.6-0.1C53.1,77.2,51.9,78,50.5,78z"/>
		</g>
		<path id="XMLID_462_" class="st8" d="M47.4,64.2c0,0-0.3-2.3,1.1-4.1c1.3-1.8,4.2-0.7,4.2-0.7s1.1-1.7,3.1-1.3s2.1,1.7,2.1,1.7
			s3.2-2,4.5,1.4s-0.5,5.1-0.5,5.1s-1.8,2.5-3.5,1.4c0.2,0.9-0.4,2.7-1.8,4.2c0.2,1.5-1,3-1,3s-1,1.2-2.2,0.2
			c-0.3,0.8-2,2.8-4.4,1.6c-2.3-1.2-4.9-4.2-3-6.2c-0.7-1.2-2.2-1.9-1.8-3.9C44.7,64.6,47.4,64.2,47.4,64.2z"/>
		<path id="XMLID_461_" class="st9" d="M49.3,73.2c-0.7-1.2-2.2-1.9-1.8-3.9c0.4-1.9,3.1-2.4,3.1-2.4s-0.3-2.3,1.1-4.1
			c1.4-1.8,4.2-0.7,4.2-0.7s1.1-1.7,3.1-1.3s2.1,1.7,2.1,1.7s0.7-0.4,1.5-0.5c-0.1-0.3-0.1-0.5-0.3-0.8c-1.3-3.4-4.5-1.4-4.5-1.4
			s-0.1-1.4-2.1-1.7c-2-0.4-3.1,1.3-3.1,1.3s-2.8-1.1-4.2,0.7s-1.1,4.1-1.1,4.1s-2.7,0.5-3.1,2.4c-0.4,1.9,1.1,2.6,1.8,3.9
			c-1.9,2,0.7,5.1,3,6.2c0.1,0.1,0.2,0.1,0.3,0.1C48.6,75.6,48.3,74.3,49.3,73.2z"/>
		<path id="XMLID_460_" class="st10" d="M51.9,68.4c0,0-0.6-3.8,2.4-4.6c3-0.8,4.9,1.1,4.9,1.1S53.7,63.3,51.9,68.4z"/>
	</g>
	<g id="圖層_5_拷貝">
		<g id="XMLID_493_" class="st5">
			<path id="XMLID_496_" class="st6" d="M248.1,78.4c-1.4,0-2.6-0.8-3.3-1.7c-0.2,0.1-0.4,0.1-0.6,0.1c-1.1,0-1.9-0.8-2-0.9
				c-0.1-0.2-1.3-1.6-1.3-3.3c-0.9-1-1.5-2.2-1.7-3.3c-1.7-0.1-3-1.7-3.3-2c-0.4-0.4-2-2.5-0.6-6.1c0.9-2.3,2.5-2.6,3.4-2.6
				c0.6,0,1.1,0.1,1.5,0.3c0.4-0.6,1.2-1.2,2.4-1.4c0.3,0,0.5-0.1,0.7-0.1c1.4,0,2.3,0.7,2.9,1.2c0.4-0.1,0.9-0.2,1.5-0.2
				c1.4,0,2.4,0.5,3.2,1.4c1,1.4,1.3,3,1.3,4c1,0.4,2.7,1.2,3.1,3c0.4,1.8-0.5,2.9-1.2,3.7c-0.1,0.1-0.2,0.2-0.3,0.4
				c0.4,0.7,0.5,1.5,0.4,2.3c-0.4,2.1-2.4,4-4.2,4.8C249.4,78.3,248.7,78.4,248.1,78.4L248.1,78.4z"/>
			<path id="XMLID_495_" class="st7" d="M248.1,78.4c-1.4,0-2.6-0.8-3.3-1.7c-0.2,0.1-0.4,0.1-0.6,0.1c-1.1,0-1.9-0.8-2-0.9
				c-0.1-0.2-1.3-1.6-1.3-3.3c-0.9-1-1.5-2.2-1.7-3.3c-1.7-0.1-3-1.7-3.3-2c-0.4-0.4-2-2.5-0.6-6.1c0.9-2.3,2.5-2.6,3.4-2.6
				c0.6,0,1.1,0.1,1.5,0.3c0.4-0.6,1.2-1.2,2.4-1.4c0.3,0,0.5-0.1,0.7-0.1c1.4,0,2.3,0.7,2.9,1.2c0.4-0.1,0.9-0.2,1.5-0.2
				c1.4,0,2.4,0.5,3.2,1.4c1,1.4,1.3,3,1.3,4c1,0.4,2.7,1.2,3.1,3c0.4,1.8-0.5,2.9-1.2,3.7c-0.1,0.1-0.2,0.2-0.3,0.4
				c0.4,0.7,0.5,1.5,0.4,2.3c-0.4,2.1-2.4,4-4.2,4.8C249.4,78.3,248.7,78.4,248.1,78.4L248.1,78.4z"/>
		</g>
		<path id="XMLID_492_" class="st8" d="M251.2,64.6c0,0,0.3-2.3-1.1-4.1c-1.3-1.8-4.2-0.7-4.2-0.7s-1.1-1.7-3.1-1.3
			s-2.1,1.7-2.1,1.7s-3.3-2-4.5,1.4c-1.2,3.4,0.5,5.1,0.5,5.1s1.8,2.5,3.5,1.4c-0.2,0.9,0.4,2.7,1.8,4.2c-0.2,1.5,1,3,1,3
			s1,1.2,2.2,0.2c0.3,0.8,2,2.8,4.4,1.6c2.3-1.2,4.9-4.2,3-6.2c0.7-1.2,2.2-1.9,1.8-3.9C253.9,65,251.2,64.6,251.2,64.6z"/>
		<path id="XMLID_491_" class="st9" d="M249.3,73.6c0.7-1.2,2.2-1.9,1.8-3.9s-3.1-2.4-3.1-2.4s0.3-2.3-1.1-4.1
			c-1.3-1.8-4.2-0.7-4.2-0.7s-1.1-1.7-3.1-1.3s-2.1,1.7-2.1,1.7s-0.7-0.4-1.5-0.5c0.1-0.3,0.1-0.5,0.3-0.8c1.3-3.4,4.5-1.4,4.5-1.4
			s0.1-1.4,2.1-1.7c2-0.4,3.1,1.3,3.1,1.3s2.8-1.1,4.2,0.7s1.1,4.1,1.1,4.1s2.7,0.5,3.1,2.4c0.4,1.9-1.1,2.6-1.8,3.9
			c1.9,2-0.7,5.1-3,6.2c-0.1,0.1-0.2,0.1-0.3,0.1C250,76,250.3,74.6,249.3,73.6z"/>
		<path id="XMLID_490_" class="st10" d="M246.7,68.7c0,0,0.6-3.8-2.4-4.6c-3-0.8-4.9,1.1-4.9,1.1S244.9,63.7,246.7,68.7z"/>
	</g>
</g>
</svg>
