<?xml version="1.0" encoding="utf-8"?>
<!-- Generator: Adobe Illustrator 19.0.0, SVG Export Plug-In . SVG Version: 6.00 Build 0)  -->
<svg version="1.0" id="圖層_1" xmlns="http://www.w3.org/2000/svg" xmlns:xlink="http://www.w3.org/1999/xlink" x="0px" y="0px" width="300px" height="260px"
	 viewBox="0 21 300 260" style="enable-background:new 0 21 300 260;" xml:space="preserve">
<style type="text/css">
	.st0{fill:#6D6E71;stroke:#414042;stroke-width:2;stroke-miterlimit:10;}
	.st1{fill:#808285;stroke:#414042;stroke-width:2;stroke-miterlimit:10;}
	.st2{opacity:0.26;fill:url(#XMLID_3_);enable-background:new    ;}
	.st3{opacity:0.64;fill-opacity:0.51;enable-background:new    ;}
	.st4{opacity:0.2;fill:#FFFFFF;enable-background:new    ;}
	.st5{opacity:0.75;}
	.st6{fill:#E2E2E2;}
	.st7{fill:none;stroke:#414042;stroke-miterlimit:10;}
	.st8{opacity:0.75;fill:#E2E2E2;enable-background:new    ;}
	.st9{opacity:0.75;fill:#9B9A9A;enable-background:new    ;}
	.st10{opacity:0.75;fill:#414042;enable-background:new    ;}
</style>
<g id="圖層_11">
	<g id="圖層_2_3_">
		<rect id="XMLID_413_" x="133.4" y="91.1" class="st0" width="32.4" height="49.6"/>
		<rect id="XMLID_412_" x="121.6" y="138.4" class="st1" width="56.1" height="8.9"/>
		
			<radialGradient id="XMLID_3_" cx="149.6278" cy="174.3051" r="23.1461" gradientTransform="matrix(1.2887 0 0 1.1371 -43.0372 -13.8397)" gradientUnits="userSpaceOnUse">
			<stop  offset="1.076729e-007" style="stop-color:#FFFFFF;stop-opacity:0"/>
			<stop  offset="0.6364" style="stop-color:#FFFFFF;stop-opacity:0.6512"/>
			<stop  offset="1" style="stop-color:#FFFFFF;stop-opacity:0.95"/>
		</radialGradient>
		<path id="XMLID_397_" class="st2" d="M111.9,175.4l14.7,19c1.9,2.5,5.2,4,8.6,4.1l29,0.1c3.5,0,6.7-1.5,8.6-4l14.8-18.9
			c0.5-0.6,0.8-1.3,1-1.9c0.5-1.7-1-3.4-3.1-3.4l-30,11.8c-3.9,1.5-8.1,1.5-12,0l-29.7-11.7c-2.1,0-3.7,1.8-3,3.5
			C111.2,174.3,111.5,174.9,111.9,175.4z"/>
		<rect id="XMLID_394_" x="157.2" y="91.2" class="st3" width="7.6" height="47.9"/>
		<rect id="XMLID_392_" x="122.6" y="143.8" class="st4" width="54.1" height="2.4"/>
		<rect id="XMLID_393_" x="127.2" y="89.9" class="st0" width="45.9" height="16.6"/>
		<rect id="XMLID_391_" x="128.3" y="101.8" class="st4" width="43.9" height="3.6"/>
	</g>
	<g id="圖層_3_拷貝">
		<g id="XMLID_479_" class="st5">
			<path id="XMLID_482_" class="st6" d="M215.9,93.2c-4.6,0-9-3-12.2-5.2c-0.5-0.3-0.9-0.6-1.3-0.9l0.4-1.8c1.8-0.3,3.1-1.2,4-2.6
				c0.9-1.5,1-3.1,0.9-3.6l0.5-1.1c0.6-0.6,0.9-5.6-1.5-10.2l0.1-1c3.4-4.8-3.2-12.9-3.3-13l0.2-1.4c0.2-0.1,3.8-2.8,8.3-3.1
				c0.2,0,0.3,0,0.5,0c3.4,0,5.7,2.1,6.6,3.2c0.3-0.1,0.6-0.1,1-0.1c1,0,2.1,0.3,3.2,1c2.3,1.3,2.4,3.7,2.3,5
				c1.6,0.7,5.2,2.7,5.8,6.5c0.5,3.5-2.1,7-3.5,8.6c1.3,1.1,2.6,3.1,1.9,5.9c-0.8,2.9-4.1,5.1-6.1,6.2c0.5,0.5,0.9,1.1,0.9,2
				c0.1,1.6-1.1,3.1-3.7,4.7C219.4,92.7,217.7,93.2,215.9,93.2L215.9,93.2z"/>
			<path id="XMLID_481_" class="st7" d="M215.9,93.2c-4.6,0-9-3-12.2-5.2c-0.5-0.3-0.9-0.6-1.3-0.9l0.4-1.8c1.8-0.3,3.1-1.2,4-2.6
				c0.9-1.5,1-3.1,0.9-3.6l0.5-1.1c0.6-0.6,0.9-5.6-1.5-10.2l0.1-1c3.4-4.8-3.2-12.9-3.3-13l0.2-1.4c0.2-0.1,3.8-2.8,8.3-3.1
				c0.2,0,0.3,0,0.5,0c3.4,0,5.7,2.1,6.6,3.2c0.3-0.1,0.6-0.1,1-0.1c1,0,2.1,0.3,3.2,1c2.3,1.3,2.4,3.7,2.3,5
				c1.6,0.7,5.2,2.7,5.8,6.5c0.5,3.5-2.1,7-3.5,8.6c1.3,1.1,2.6,3.1,1.9,5.9c-0.8,2.9-4.1,5.1-6.1,6.2c0.5,0.5,0.9,1.1,0.9,2
				c0.1,1.6-1.1,3.1-3.7,4.7C219.4,92.7,217.7,93.2,215.9,93.2L215.9,93.2z"/>
		</g>
		<path id="XMLID_478_" class="st8" d="M204.2,53c0,0,7.2,8.8,3.3,14.2C210,72,210,78,208.6,78.8c0.4,1.6-0.6,6.6-5.7,7.5
			c4.2,2.8,11.1,8.5,17.4,4.7c6.3-3.8,1.3-6,1.3-6s6.1-2.5,7.1-6.2c1-3.8-2.5-5.5-2.5-5.5s4.6-4.4,4-8.6s-5.9-6-5.9-6
			s0.8-3.2-1.8-4.7s-4-0.5-4-0.5s-2.5-3.6-6.8-3.3S204.2,53,204.2,53z"/>
		<path id="XMLID_477_" class="st9" d="M213.1,90.9c6.3-3.8,1.3-6,1.3-6s6.1-2.5,7.1-6.2c1-3.8-2.5-5.5-2.5-5.5s4.6-4.4,4-8.6
			s-5.9-6-5.9-6s0.8-3.2-1.8-4.7c-2.5-1.5-4-0.5-4-0.5s-1.1-1.6-3.1-2.6c1.1-0.4,2.3-0.7,3.7-0.8c4.3-0.3,6.8,3.3,6.8,3.3
			s1.5-1,4,0.5s1.8,4.7,1.8,4.7s5.3,1.8,5.9,6c0.6,4.2-4,8.6-4,8.6s3.4,1.8,2.5,5.5c-1,3.8-7.1,6.2-7.1,6.2s5,2.2-1.3,6
			c-2.8,1.7-5.7,1.5-8.4,0.5C212.4,91.3,212.7,91.1,213.1,90.9z"/>
		<path id="XMLID_470_" class="st10" d="M218.5,66.5c0,0,3-8.4-6.3-10.6C215.7,54.2,223.7,58.6,218.5,66.5z"/>
		<path id="XMLID_469_" class="st10" d="M212.7,86.9c0,0,7.9-4.5,4.6-11.4C220.8,77.2,221.4,85.4,212.7,86.9z"/>
	</g>
	<g id="圖層_3">
		<g id="XMLID_441_" class="st5">
			<path id="XMLID_468_" class="st6" d="M82.7,92.8c-1.8,0-3.5-0.5-5-1.4c-2.6-1.5-3.8-3.1-3.7-4.7c0.1-0.8,0.5-1.5,0.9-2
				c-2-1.1-5.4-3.2-6.1-6.2c-0.7-2.8,0.6-4.8,1.9-5.9c-1.4-1.6-4-5.1-3.5-8.6c0.5-3.8,4.1-5.7,5.8-6.5c-0.1-1.3,0.1-3.6,2.3-5
				c1.1-0.6,2.2-1,3.2-1c0.4,0,0.7,0.1,1,0.1c1-1.1,3.2-3.2,6.6-3.2c0.2,0,0.3,0,0.5,0c4.5,0.3,8.2,3,8.3,3.1l0.2,1.4
				c-0.1,0.1-6.7,8.2-3.3,13l0.1,1c-2.5,4.7-2.2,9.7-1.5,10.3l0.4,1.1c-0.1,0.5,0,2.1,0.9,3.6c0.9,1.4,2.2,2.3,4,2.6l0.4,1.8
				c-0.4,0.3-0.9,0.6-1.3,0.9C91.6,89.8,87.2,92.8,82.7,92.8z"/>
			<path id="XMLID_467_" class="st7" d="M82.7,92.8c-1.8,0-3.5-0.5-5-1.4c-2.6-1.5-3.8-3.1-3.7-4.7c0.1-0.8,0.5-1.5,0.9-2
				c-2-1.1-5.4-3.2-6.1-6.2c-0.7-2.8,0.6-4.8,1.9-5.9c-1.4-1.6-4-5.1-3.5-8.6c0.5-3.8,4.1-5.7,5.8-6.5c-0.1-1.3,0.1-3.6,2.3-5
				c1.1-0.6,2.2-1,3.2-1c0.4,0,0.7,0.1,1,0.1c1-1.1,3.2-3.2,6.6-3.2c0.2,0,0.3,0,0.5,0c4.5,0.3,8.2,3,8.3,3.1l0.2,1.4
				c-0.1,0.1-6.7,8.2-3.3,13l0.1,1c-2.5,4.7-2.2,9.7-1.5,10.3l0.4,1.1c-0.1,0.5,0,2.1,0.9,3.6c0.9,1.4,2.2,2.3,4,2.6l0.4,1.8
				c-0.4,0.3-0.9,0.6-1.3,0.9C91.6,89.8,87.2,92.8,82.7,92.8z"/>
		</g>
		<path id="XMLID_440_" class="st8" d="M94.4,52.6c0,0-7.2,8.8-3.3,14.2c-2.5,4.8-2.5,10.8-1.1,11.6c-0.4,1.6,0.6,6.6,5.7,7.5
			c-4.2,2.8-11.1,8.5-17.4,4.7s-1.3-6-1.3-6s-6.1-2.5-7.1-6.2c-1-3.8,2.5-5.5,2.5-5.5s-4.6-4.4-4-8.6s5.9-6,5.9-6s-0.8-3.2,1.8-4.7
			c2.5-1.5,4-0.5,4-0.5s2.5-3.6,6.8-3.3C90.9,50,94.4,52.6,94.4,52.6z"/>
		<path id="XMLID_439_" class="st9" d="M85.5,90.6c-6.3-3.8-1.3-6-1.3-6s-6.1-2.5-7.1-6.2c-1-3.8,2.5-5.5,2.5-5.5s-4.6-4.4-4-8.6
			s5.9-6,5.9-6s-0.8-3.2,1.8-4.7c2.5-1.5,4-0.5,4-0.5s1.1-1.6,3.1-2.6c-1.1-0.4-2.3-0.7-3.7-0.8c-4.3-0.3-6.8,3.3-6.8,3.3
			s-1.5-1-4,0.5s-1.8,4.7-1.8,4.7s-5.3,1.8-5.9,6c-0.6,4.2,4,8.6,4,8.6s-3.4,1.8-2.5,5.5c1,3.8,7.1,6.2,7.1,6.2s-5,2.2,1.3,6
			c2.8,1.7,5.7,1.5,8.4,0.5C86.2,90.9,85.9,90.8,85.5,90.6z"/>
		<path id="XMLID_438_" class="st10" d="M80.1,66.2c0,0-3-8.4,6.3-10.6C82.9,53.8,74.9,58.2,80.1,66.2z"/>
		<path id="XMLID_437_" class="st10" d="M85.9,86.5c0,0-7.9-4.5-4.6-11.4C77.8,76.8,77.2,85,85.9,86.5z"/>
	</g>
</g>
</svg>
