<?xml version="1.0" encoding="utf-8"?>
<!-- Generator: Adobe Illustrator 19.0.0, SVG Export Plug-In . SVG Version: 6.00 Build 0)  -->
<svg version="1.0" id="Calque_1" xmlns="http://www.w3.org/2000/svg" xmlns:xlink="http://www.w3.org/1999/xlink" x="0px" y="0px" width="300px" height="260px"
	 viewBox="0 21 300 260" style="enable-background:new 0 21 300 260;" xml:space="preserve">
<style type="text/css">
	.st0{fill:#6D6E71;stroke:#414042;stroke-width:0.5;stroke-miterlimit:10;}
	.st1{opacity:0.81;enable-background:new    ;}
	.st2{opacity:0.28;fill:#FFFFFF;enable-background:new    ;}
	.st3{opacity:0.26;fill:url(#XMLID_2_);enable-background:new    ;}
	.st4{opacity:0.33;fill:url(#XMLID_3_);enable-background:new    ;}
	.st5{opacity:0.26;fill:url(#XMLID_4_);enable-background:new    ;}
	.st6{opacity:0.33;fill:url(#XMLID_5_);enable-background:new    ;}
	.st7{opacity:0.26;fill:url(#XMLID_6_);enable-background:new    ;}
	.st8{opacity:0.33;fill:url(#XMLID_7_);enable-background:new    ;}
	.st9{fill:#515151;stroke:#262626;stroke-miterlimit:10;}
	.st10{opacity:0.25;fill:#232323;enable-background:new    ;}
	.st11{opacity:0.64;fill:url(#XMLID_8_);enable-background:new    ;}
	.st12{opacity:0.64;fill:url(#XMLID_9_);enable-background:new    ;}
	.st13{opacity:0.64;fill:url(#XMLID_10_);enable-background:new    ;}
	.st14{opacity:0.64;fill:url(#XMLID_11_);enable-background:new    ;}
	.st15{opacity:0.64;fill:url(#XMLID_12_);enable-background:new    ;}
	.st16{opacity:0.64;fill:url(#XMLID_13_);enable-background:new    ;}
</style>
<g id="crash">
	<g id="debris">
		<g id="Calque_21">
			<circle id="XMLID_52_" class="st0" cx="87.3" cy="83" r="11.3"/>
			<circle id="XMLID_108_" class="st1" cx="87.3" cy="83" r="9.3"/>
			<rect id="XMLID_53_" x="86" y="69.7" class="st0" width="2.7" height="26.5"/>
			
				<rect id="XMLID_56_" x="85.9" y="69.7" transform="matrix(0.7071 -0.7071 0.7071 0.7071 -33.1141 86.024)" class="st0" width="2.7" height="26.5"/>
			<rect id="XMLID_54_" x="74.1" y="81.7" class="st0" width="26.5" height="2.7"/>
			
				<rect id="XMLID_55_" x="85.9" y="69.8" transform="matrix(-0.7071 -0.7071 0.7071 -0.7071 90.2311 203.4064)" class="st0" width="2.7" height="26.5"/>
			<circle id="XMLID_57_" class="st0" cx="87.3" cy="83" r="8.2"/>
			<path id="XMLID_58_" class="st2" d="M84.6,88.4c0,0,1.4-4.6,1.5-4.7c0.1-0.1-0.7-3.6-0.7-3.6s1.2,3.3,1.3,3.4
				c0.1,0.1,5.4,1.8,5.4,1.8l-5.7-1.4L84.6,88.4z"/>
			
				<linearGradient id="XMLID_2_" gradientUnits="userSpaceOnUse" x1="89.4875" y1="82.1" x2="89.4875" y2="71.2595" gradientTransform="matrix(1 0 0 1 0 4)">
				<stop  offset="0" style="stop-color:#FFFFFF"/>
				<stop  offset="1" style="stop-color:#FFFFFF;stop-opacity:0"/>
			</linearGradient>
			<path id="XMLID_105_" class="st3" d="M86.7,83.5L83.9,76c0,0,3.5-1.8,7.1,0.1c2.5,1.3,3.8,3.3,4,6c0.1,0.6,0.1,1.3,0,2
				c-0.1,0.6-0.4,1.3-0.5,2L86.7,83.5z"/>
			
				<linearGradient id="XMLID_3_" gradientUnits="userSpaceOnUse" x1="79.664" y1="79.0866" x2="85.8125" y2="79.0866" gradientTransform="matrix(1 0 0 1 0 4)">
				<stop  offset="0" style="stop-color:#FFFFFF"/>
				<stop  offset="1" style="stop-color:#FFFFFF;stop-opacity:0"/>
			</linearGradient>
			<path id="XMLID_106_" class="st4" d="M85.8,84l-1.6,5.8c0,0-3.1-0.7-4.1-4.6c-0.7-2.7-0.4-4.3,0.8-6.5c0.3-0.6,1.8-1.9,2.4-2.3
				c0.5-0.4,2.2,3.8,2.2,3.8L85.8,84z"/>
		</g>
		<g id="Calque_21_-_copie">
			<circle id="XMLID_68_" class="st0" cx="254.7" cy="142.7" r="11.3"/>
			<circle id="XMLID_67_" class="st1" cx="254.7" cy="142.7" r="9.3"/>
			
				<rect id="XMLID_65_" x="253.3" y="129.4" transform="matrix(0.8428 0.5382 -0.5382 0.8428 116.8015 -114.6569)" class="st0" width="2.7" height="26.5"/>
			
				<rect id="XMLID_64_" x="253.3" y="129.4" transform="matrix(0.9765 -0.2154 0.2154 0.9765 -24.7456 58.199)" class="st0" width="2.7" height="26.5"/>
			
				<rect id="XMLID_63_" x="253.3" y="129.4" transform="matrix(0.5382 -0.8428 0.8428 0.5382 -2.6648 280.5077)" class="st0" width="2.7" height="26.5"/>
			
				<rect id="XMLID_62_" x="253.3" y="129.4" transform="matrix(-0.2154 -0.9765 0.9765 -0.2154 170.2055 422.1259)" class="st0" width="2.7" height="26.5"/>
			<circle id="XMLID_61_" class="st0" cx="254.7" cy="142.7" r="8.2"/>
			<path id="XMLID_60_" class="st2" d="M249.5,145.7c0,0,3.7-3.1,3.8-3.1s1.4-3.4,1.4-3.4s-0.8,3.4-0.7,3.5c0,0.2,3.6,4.5,3.6,4.5
				l-4.1-4.3L249.5,145.7z"/>
			
				<linearGradient id="XMLID_4_" gradientUnits="userSpaceOnUse" x1="277.3763" y1="135.7942" x2="277.3763" y2="124.9538" gradientTransform="matrix(0.8428 0.5382 -0.5382 0.8428 94.218 -117.2458)">
				<stop  offset="0" style="stop-color:#FFFFFF"/>
				<stop  offset="1" style="stop-color:#FFFFFF;stop-opacity:0"/>
			</linearGradient>
			<path id="XMLID_59_" class="st5" d="M253.9,142.8l1.7-7.8c0,0,3.9,0.3,5.9,3.9c1.4,2.4,1.4,4.9,0.2,7.2c-0.3,0.6-0.6,1.2-1.1,1.7
				c-0.4,0.5-1.1,0.8-1.5,1.4L253.9,142.8z"/>
			
				<linearGradient id="XMLID_5_" gradientUnits="userSpaceOnUse" x1="267.4495" y1="132.8692" x2="273.598" y2="132.8692" gradientTransform="matrix(0.8428 0.5382 -0.5382 0.8428 94.218 -117.2458)">
				<stop  offset="0" style="stop-color:#FFFFFF"/>
				<stop  offset="1" style="stop-color:#FFFFFF;stop-opacity:0"/>
			</linearGradient>
			<path id="XMLID_48_" class="st6" d="M252.9,142.7l-4.5,4.1c0,0-2.2-2.2-1-6.1c0.8-2.6,2-3.8,4.2-5c0.6-0.3,2.6-0.6,3.3-0.6
				s-0.2,4.3-0.2,4.3L252.9,142.7z"/>
		</g>
		<g id="Calque_21_-_copie_2">
			<circle id="XMLID_117_" class="st0" cx="233.6" cy="239" r="11.3"/>
			<circle id="XMLID_116_" class="st1" cx="233.6" cy="239" r="9.3"/>
			
				<rect id="XMLID_115_" x="232.2" y="225.8" transform="matrix(0.5882 0.8087 -0.8087 0.5882 289.4828 -90.4873)" class="st0" width="2.7" height="26.5"/>
			
				<rect id="XMLID_114_" x="232.3" y="225.7" transform="matrix(0.9878 0.1559 -0.1559 0.9878 40.1109 -33.5054)" class="st0" width="2.7" height="26.5"/>
			
				<rect id="XMLID_113_" x="232.3" y="225.7" transform="matrix(0.8087 -0.5882 0.5882 0.8087 -95.8468 183.108)" class="st0" width="2.7" height="26.5"/>
			
				<rect id="XMLID_73_" x="232.2" y="225.6" transform="matrix(0.1559 -0.9878 0.9878 0.1559 -38.7906 432.3095)" class="st0" width="2.7" height="26.5"/>
			<circle id="XMLID_72_" class="st0" cx="233.6" cy="239" r="8.2"/>
			<path id="XMLID_71_" class="st2" d="M227.6,239.9c0,0,4.5-1.5,4.7-1.5s2.5-2.6,2.5-2.6s-2,2.9-2,3c0,0.2,1.7,5.5,1.7,5.5
				l-2.2-5.5L227.6,239.9z"/>
			
				<linearGradient id="XMLID_6_" gradientUnits="userSpaceOnUse" x1="321.65" y1="218.6157" x2="321.65" y2="207.7752" gradientTransform="matrix(0.5882 0.8087 -0.8087 0.5882 219.97 -146.1654)">
				<stop  offset="0" style="stop-color:#FFFFFF"/>
				<stop  offset="1" style="stop-color:#FFFFFF;stop-opacity:0"/>
			</linearGradient>
			<path id="XMLID_70_" class="st7" d="M232.8,238.8l4.4-6.7c0,0,3.5,1.7,4.1,5.8c0.4,2.8-0.5,5-2.5,6.8c-0.5,0.4-1,0.9-1.6,1.2
				s-1.3,0.4-1.9,0.7L232.8,238.8z"/>
			
				<linearGradient id="XMLID_7_" gradientUnits="userSpaceOnUse" x1="311.8029" y1="215.6395" x2="317.9514" y2="215.6395" gradientTransform="matrix(0.5882 0.8087 -0.8087 0.5882 219.97 -146.1654)">
				<stop  offset="0" style="stop-color:#FFFFFF"/>
				<stop  offset="1" style="stop-color:#FFFFFF;stop-opacity:0"/>
			</linearGradient>
			<path id="XMLID_69_" class="st8" d="M231.9,238.3l-5.7,2.1c0,0-1.3-2.9,1.3-6.1c1.7-2.2,3.2-2.9,5.7-3.1c0.6-0.1,2.6,0.4,3.3,0.6
				c0.6,0.2-1.8,4-1.8,4L231.9,238.3z"/>
		</g>
		<g id="Calque_24">
			<path id="XMLID_66_" class="st9" d="M122.5,231.9c0,0-1.9-1-5-2.6c-1.6-0.8-3.5-1.8-5.6-2.8c-8.6-3.2-16.9-2.4-25.7-3.2
				c-13.4-1.7-16.8-16.3-26.7-23.5c-2.9-2-5.7-13.5-5.7-13.5l6.5-0.8c0,0-0.4,5.5,2.6,7.4c3.3,1.8,5.6,4.4,7.9,7
				c5.4,7.7,11.7,16.6,21.7,16.6c7.7,0.3,15.7,0,22.7,3.4c2.2,1,4,2,5.6,2.8c3.1,1.6,5,2.6,5,2.6L122.5,231.9z"/>
			<path id="XMLID_77_" class="st10" d="M115.2,219.9c-7-3.4-15-3.2-22.7-3.4c-10,0-16.3-8.9-21.7-16.6c-2.3-2.6-4.6-5.1-7.9-7
				c-3-1.8-2.6-7.4-2.6-7.4l-3.8,0.4c1,3.6,4.6,7.9,6.5,9.2c9.9,7.2,13.4,22.2,26.8,23.9c8.8,0.9,15.1,1.4,23.7,4.6
				c2.2,1,3.3,2.2,4.9,3c3.1,1.6,5.1,3.2,5.1,3.2l2.3-4.7c0,0-1.9-1-5-2.6C119.2,221.9,117.3,221,115.2,219.9z"/>
			
				<linearGradient id="XMLID_8_" gradientUnits="userSpaceOnUse" x1="56.6118" y1="191.3563" x2="64.125" y2="191.3563" gradientTransform="matrix(1 0 0 1 0 4)">
				<stop  offset="0" style="stop-color:#FFFFFF"/>
				<stop  offset="1" style="stop-color:#FFFFFF;stop-opacity:0"/>
			</linearGradient>
			<path id="XMLID_119_" class="st11" d="M60.9,191.5c-0.4,0.3-0.9,0.8-1.6,1.1c-1.1,0.5-2.1,0.6-2.7,0.7c0.2,1,0.5,2.5,1.5,4.1
				c0.7,1.2,1,1.7,1.6,1.8c1.9,0.3,4.4-4.9,4.4-4.9l0,0C64.1,194.2,61.6,193.4,60.9,191.5z"/>
			
				<linearGradient id="XMLID_9_" gradientUnits="userSpaceOnUse" x1="67.2767" y1="214.0593" x2="77.8024" y2="214.0593" gradientTransform="matrix(0.9558 -0.294 0.294 0.9558 -48.0004 36.0478)">
				<stop  offset="0" style="stop-color:#FFFFFF"/>
				<stop  offset="1" style="stop-color:#FFFFFF;stop-opacity:0"/>
			</linearGradient>
			<path id="XMLID_121_" class="st12" d="M84.3,215c-0.4,0.7-1.1,1.8-2.2,2.9c-1.2,1.1-2.4,1.7-3.2,2c0.7,0.5,1.8,1.2,3.2,1.8
				c2.2,0.9,4.2,1.7,5.5,0.8c1.4-0.9,1.9-3.2,1.3-5.7C89,216.7,86.1,216.2,84.3,215z"/>
			
				<linearGradient id="XMLID_10_" gradientUnits="userSpaceOnUse" x1="118.5519" y1="154.4574" x2="128.9633" y2="154.4574" gradientTransform="matrix(-0.8678 0.4969 -0.4969 -0.8678 290.6377 294.5685)">
				<stop  offset="0" style="stop-color:#FFFFFF"/>
				<stop  offset="1" style="stop-color:#FFFFFF;stop-opacity:0"/>
			</linearGradient>
			<path id="XMLID_122_" class="st13" d="M109.9,225.3c0-0.9,0-2,0.2-3.3c0.1-1.2,0.4-2.2,0.6-3.1c-4.5-1.7-6.4-1.1-7.2-0.3
				c-1.1,0.9-2,5.1-2,5.1S107.7,224.5,109.9,225.3z"/>
		</g>
		<g id="Calque_24_-_copie">
			<path id="XMLID_124_" class="st9" d="M181.7,56.5c0,0,1.2,1.7,3.3,4.6c1,1.4,2.3,3.1,3.8,5c6.2,6.7,14,9.7,21.5,14.4
				c11.2,7.6,7.7,22.1,13.3,33c1.7,3.1-1,14.6-1,14.6l-6.1-2.3c0,0,2.9-4.8,1-7.8c-2.1-3.1-3-6.4-3.9-9.7c-1.4-9.3-3-20-11.9-24.5
				c-6.7-3.7-14-7.1-18.8-13.3c-1.5-1.9-2.7-3.6-3.7-5c-2.1-2.9-3.3-4.6-3.3-4.6L181.7,56.5z"/>
			<path id="XMLID_123_" class="st10" d="M182.9,70.5c4.7,6.2,12,9.6,18.8,13.3c8.9,4.5,10.5,15.2,11.9,24.5
				c0.9,3.3,1.8,6.6,3.9,9.7c1.9,3-1,7.8-1,7.8l3.6,1.3c0.7-3.7-0.5-9.1-1.6-11.2c-5.6-10.9-2-25.8-13.2-33.4
				c-7.5-4.7-12.9-8-19.1-14.8c-1.5-1.9-1.9-3.5-3-4.9c-2.1-2.9-3.1-5.2-3.1-5.2l-4.2,3.1c0,0,1.2,1.7,3.3,4.6
				C180.1,66.9,181.4,68.6,182.9,70.5z"/>
			
				<linearGradient id="XMLID_11_" gradientUnits="userSpaceOnUse" x1="168.1233" y1="19.1248" x2="175.6365" y2="19.1248" gradientTransform="matrix(-0.893 -0.45 0.45 -0.893 365.6297 211.5176)">
				<stop  offset="0" style="stop-color:#FFFFFF"/>
				<stop  offset="1" style="stop-color:#FFFFFF;stop-opacity:0"/>
			</linearGradient>
			<path id="XMLID_120_" class="st14" d="M218.5,120.3c0.5-0.1,1.1-0.3,1.9-0.3c1.2,0,2.2,0.4,2.7,0.6c0.3-0.9,0.6-2.4,0.5-4.3
				c-0.1-1.3-0.1-2-0.6-2.4c-1.6-1.1-6.2,2.4-6.2,2.4l0,0C216.9,116.5,218.7,118.3,218.5,120.3z"/>
			
				<linearGradient id="XMLID_12_" gradientUnits="userSpaceOnUse" x1="224.5045" y1="82.1959" x2="235.0278" y2="82.1959" gradientTransform="matrix(-0.9859 -0.1676 0.1676 -0.9859 422.9172 204.5005)">
				<stop  offset="0" style="stop-color:#FFFFFF"/>
				<stop  offset="1" style="stop-color:#FFFFFF;stop-opacity:0"/>
			</linearGradient>
			<path id="XMLID_76_" class="st15" d="M208.2,88.8c0.7-0.5,1.8-1.1,3.3-1.6c1.6-0.4,2.9-0.4,3.8-0.4c-0.4-0.8-1.1-1.9-2.1-3
				c-1.5-1.7-3-3.4-4.6-3.2c-1.6,0.2-3.1,2.1-3.7,4.6C204.8,85.2,207.1,87,208.2,88.8z"/>
			
				<linearGradient id="XMLID_13_" gradientUnits="userSpaceOnUse" x1="-63.8126" y1="248.5096" x2="-53.4011" y2="248.5096" gradientTransform="matrix(0.9986 -5.314531e-002 5.314531e-002 0.9986 236.8534 -178.7605)">
				<stop  offset="0" style="stop-color:#FFFFFF"/>
				<stop  offset="1" style="stop-color:#FFFFFF;stop-opacity:0"/>
			</linearGradient>
			<path id="XMLID_75_" class="st16" d="M189.9,68.1c-0.4,0.9-0.9,1.8-1.6,2.8c-0.7,1-1.3,1.8-2,2.5c3.3,3.6,5.2,3.8,6.3,3.5
				c1.4-0.4,4.1-3.7,4.1-3.7S191.6,69.8,189.9,68.1z"/>
		</g>
	</g>
</g>
</svg>
