<?xml version="1.0" encoding="utf-8"?>
<!-- Generator: Adobe Illustrator 19.0.0, SVG Export Plug-In . SVG Version: 6.00 Build 0)  -->
<svg version="1.0" id="圖層_1" xmlns="http://www.w3.org/2000/svg" xmlns:xlink="http://www.w3.org/1999/xlink" x="0px" y="0px" width="300px" height="260px"
	 viewBox="0 21 300 260" style="enable-background:new 0 21 300 260;" xml:space="preserve">
<style type="text/css">
	.st0{fill:#555555;stroke:#424143;stroke-width:2;stroke-miterlimit:10;}
</style>
<g id="圖層_1_2_">
	<g id="圖層_22">
		<path id="XMLID_336_" class="st0" d="M232.4,219.2h14.3c1.9,0,3.5-1.6,3.5-3.5V84.6c0-1.9-1.6-3.5-3.5-3.5h-14.3
			c-1.9,0-3.5,1.6-3.5,3.5v131.1C228.9,217.6,230.5,219.2,232.4,219.2z"/>
		<path id="XMLID_293_" class="st0" d="M67.5,219.9H53.2c-1.9,0-3.5-1.6-3.5-3.5V85.2c0-1.9,1.6-3.5,3.5-3.5h14.3
			c1.9,0,3.5,1.6,3.5,3.5v131.1C71,218.3,69.4,219.9,67.5,219.9z"/>
	</g>
</g>
</svg>
