<?xml version="1.0" encoding="utf-8"?>
<!-- Generator: Adobe Illustrator 19.0.0, SVG Export Plug-In . SVG Version: 6.00 Build 0)  -->
<svg version="1.0" id="圖層_1" xmlns="http://www.w3.org/2000/svg" xmlns:xlink="http://www.w3.org/1999/xlink" x="0px" y="0px" width="300px" height="260px"
	 viewBox="0 21 300 260" style="enable-background:new 0 21 300 260;" xml:space="preserve">
<style type="text/css">
	.st0{display:none;}
	.st1{display:inline;fill:#010101;}
	.st2{fill:#010101;}
</style>
<g id="圖層_1_2_">
	<g id="圖層_12">
		<g id="圖層_4" class="st0">
			<rect id="XMLID_850_" x="49.6" y="205.2" class="st1" width="17.8" height="14.2"/>
			<rect id="XMLID_21_" x="49.5" y="176.9" class="st1" width="17.8" height="14.2"/>
			<rect id="XMLID_22_" x="49.6" y="148.5" class="st1" width="17.8" height="14.2"/>
			<rect id="XMLID_23_" x="49.5" y="120.2" class="st1" width="17.8" height="14.2"/>
			<rect id="XMLID_26_" x="49.5" y="91.9" class="st1" width="17.8" height="14.2"/>
		</g>
		<g id="圖層_4_2_">
			<rect id="XMLID_160_" x="49.6" y="201.7" class="st2" width="17.8" height="14.2"/>
			<rect id="XMLID_159_" x="49.5" y="173.3" class="st2" width="17.8" height="14.2"/>
			<rect id="XMLID_157_" x="49.6" y="145" class="st2" width="17.8" height="14.2"/>
			<rect id="XMLID_27_" x="49.5" y="116.6" class="st2" width="17.8" height="14.2"/>
			<rect id="XMLID_20_" x="49.5" y="88.3" class="st2" width="17.8" height="14.2"/>
		</g>
		<g id="圖層_4_3_" class="st0">
			<rect id="XMLID_167_" x="49.6" y="198.1" class="st1" width="17.8" height="14.2"/>
			<rect id="XMLID_166_" x="49.5" y="169.8" class="st1" width="17.8" height="14.2"/>
			<rect id="XMLID_165_" x="49.6" y="141.4" class="st1" width="17.8" height="14.2"/>
			<rect id="XMLID_162_" x="49.5" y="113.1" class="st1" width="17.8" height="14.2"/>
			<rect id="XMLID_161_" x="49.5" y="84.8" class="st1" width="17.8" height="14.2"/>
		</g>
		<g id="圖層_4_4_" class="st0">
			<rect id="XMLID_173_" x="49.6" y="194.6" class="st1" width="17.8" height="14.2"/>
			<rect id="XMLID_171_" x="49.5" y="166.2" class="st1" width="17.8" height="14.2"/>
			<rect id="XMLID_170_" x="49.6" y="137.9" class="st1" width="17.8" height="14.2"/>
			<rect id="XMLID_169_" x="49.5" y="109.5" class="st1" width="17.8" height="14.2"/>
			<rect id="XMLID_168_" x="49.5" y="81.2" class="st1" width="17.8" height="14.2"/>
		</g>
		<g id="圖層_4_5_" class="st0">
			<rect id="XMLID_178_" x="49.6" y="191" class="st1" width="17.8" height="14.2"/>
			<rect id="XMLID_177_" x="49.5" y="162.7" class="st1" width="17.8" height="14.2"/>
			<rect id="XMLID_176_" x="49.6" y="134.3" class="st1" width="17.8" height="14.2"/>
			<rect id="XMLID_175_" x="49.5" y="106" class="st1" width="17.8" height="14.2"/>
			<rect id="XMLID_174_" x="49.5" y="81.2" class="st1" width="17.8" height="10.7"/>
		</g>
		<g id="圖層_4_6_" class="st0">
			<rect id="XMLID_184_" x="49.6" y="215.8" class="st1" width="17.8" height="3.6"/>
			<rect id="XMLID_195_" x="49.6" y="187.5" class="st1" width="17.8" height="14.2"/>
			<rect id="XMLID_183_" x="49.5" y="159.2" class="st1" width="17.8" height="14.2"/>
			<rect id="XMLID_182_" x="49.6" y="130.8" class="st1" width="17.8" height="14.2"/>
			<rect id="XMLID_180_" x="49.5" y="102.5" class="st1" width="17.8" height="14.2"/>
			<rect id="XMLID_179_" x="49.5" y="81.2" class="st1" width="17.8" height="7.1"/>
		</g>
		<g id="圖層_4_7_" class="st0">
			<rect id="XMLID_189_" x="49.6" y="184" class="st1" width="17.8" height="14.2"/>
			<rect id="XMLID_196_" x="49.5" y="212.3" class="st1" width="17.8" height="7.1"/>
			<rect id="XMLID_188_" x="49.5" y="155.6" class="st1" width="17.8" height="14.2"/>
			<rect id="XMLID_187_" x="49.6" y="127.3" class="st1" width="17.8" height="14.2"/>
			<rect id="XMLID_186_" x="49.5" y="98.9" class="st1" width="17.8" height="14.2"/>
			<rect id="XMLID_185_" x="49.5" y="81.2" class="st1" width="17.8" height="3.6"/>
		</g>
		<g id="圖層_4_8_" class="st0">
			<rect id="XMLID_194_" x="49.6" y="180.4" class="st1" width="17.8" height="14.2"/>
			<rect id="XMLID_193_" x="49.5" y="152.1" class="st1" width="17.8" height="14.2"/>
			<rect id="XMLID_192_" x="49.6" y="123.7" class="st1" width="17.8" height="14.2"/>
			<rect id="XMLID_191_" x="49.5" y="95.4" class="st1" width="17.8" height="14.2"/>
			<rect id="XMLID_190_" x="49.5" y="205.3" class="st1" width="17.8" height="14.2"/>
		</g>
	</g>
	<g id="圖層_12_1_">
		<g id="圖層_4_16_" class="st0">
			<rect id="XMLID_306_" x="232.4" y="205.1" class="st1" width="17.8" height="14.2"/>
			<rect id="XMLID_304_" x="232.4" y="176.8" class="st1" width="17.8" height="14.2"/>
			<rect id="XMLID_303_" x="232.4" y="148.4" class="st1" width="17.8" height="14.2"/>
			<rect id="XMLID_301_" x="232.4" y="120.1" class="st1" width="17.8" height="14.2"/>
			<rect id="XMLID_300_" x="232.4" y="91.8" class="st1" width="17.8" height="14.2"/>
		</g>
		<g id="圖層_4_15_">
			<rect id="XMLID_299_" x="232.4" y="201.6" class="st2" width="17.8" height="14.2"/>
			<rect id="XMLID_296_" x="232.4" y="173.3" class="st2" width="17.8" height="14.2"/>
			<rect id="XMLID_295_" x="232.4" y="144.9" class="st2" width="17.8" height="14.2"/>
			<rect id="XMLID_293_" x="232.4" y="116.6" class="st2" width="17.8" height="14.2"/>
			<rect id="XMLID_292_" x="232.4" y="88.2" class="st2" width="17.8" height="14.2"/>
		</g>
		<g id="圖層_4_14_" class="st0">
			<rect id="XMLID_291_" x="232.4" y="198.1" class="st1" width="17.8" height="14.2"/>
			<rect id="XMLID_290_" x="232.4" y="169.7" class="st1" width="17.8" height="14.2"/>
			<rect id="XMLID_289_" x="232.4" y="141.4" class="st1" width="17.8" height="14.2"/>
			<rect id="XMLID_288_" x="232.4" y="113" class="st1" width="17.8" height="14.2"/>
			<rect id="XMLID_287_" x="232.4" y="84.7" class="st1" width="17.8" height="14.2"/>
		</g>
		<g id="圖層_4_13_" class="st0">
			<rect id="XMLID_286_" x="232.4" y="194.5" class="st1" width="17.8" height="14.2"/>
			<rect id="XMLID_285_" x="232.4" y="166.2" class="st1" width="17.8" height="14.2"/>
			<rect id="XMLID_284_" x="232.4" y="137.8" class="st1" width="17.8" height="14.2"/>
			<rect id="XMLID_283_" x="232.4" y="109.5" class="st1" width="17.8" height="14.2"/>
			<rect id="XMLID_282_" x="232.4" y="81.2" class="st1" width="17.8" height="14.2"/>
		</g>
		<g id="圖層_4_12_" class="st0">
			<rect id="XMLID_281_" x="232.4" y="191" class="st1" width="17.8" height="14.2"/>
			<rect id="XMLID_280_" x="232.4" y="162.6" class="st1" width="17.8" height="14.2"/>
			<rect id="XMLID_279_" x="232.4" y="134.3" class="st1" width="17.8" height="14.2"/>
			<rect id="XMLID_278_" x="232.4" y="105.9" class="st1" width="17.8" height="14.2"/>
			<rect id="XMLID_277_" x="232.4" y="81.2" class="st1" width="17.8" height="10.7"/>
		</g>
		<g id="圖層_4_11_" class="st0">
			<rect id="XMLID_276_" x="232.4" y="215.8" class="st1" width="17.8" height="3.6"/>
			<rect id="XMLID_274_" x="232.4" y="187.4" class="st1" width="17.8" height="14.2"/>
			<rect id="XMLID_273_" x="232.4" y="159.1" class="st1" width="17.8" height="14.2"/>
			<rect id="XMLID_272_" x="232.4" y="130.7" class="st1" width="17.8" height="14.2"/>
			<rect id="XMLID_271_" x="232.4" y="102.4" class="st1" width="17.8" height="14.2"/>
			<rect id="XMLID_270_" x="232.4" y="81.2" class="st1" width="17.8" height="7.1"/>
		</g>
		<g id="圖層_4_10_" class="st0">
			<rect id="XMLID_268_" x="232.4" y="183.9" class="st1" width="17.8" height="14.2"/>
			<rect id="XMLID_267_" x="232.4" y="212.3" class="st1" width="17.8" height="7.1"/>
			<rect id="XMLID_266_" x="232.4" y="155.5" class="st1" width="17.8" height="14.2"/>
			<rect id="XMLID_265_" x="232.4" y="127.2" class="st1" width="17.8" height="14.2"/>
			<rect id="XMLID_263_" x="232.4" y="98.8" class="st1" width="17.8" height="14.2"/>
			<rect id="XMLID_262_" x="232.4" y="81.2" class="st1" width="17.8" height="3.6"/>
		</g>
		<g id="圖層_4_9_" class="st0">
			<rect id="XMLID_261_" x="232.4" y="180.3" class="st1" width="17.8" height="14.2"/>
			<rect id="XMLID_260_" x="232.4" y="152" class="st1" width="17.8" height="14.2"/>
			<rect id="XMLID_259_" x="232.4" y="123.6" class="st1" width="17.8" height="14.2"/>
			<rect id="XMLID_258_" x="232.4" y="95.3" class="st1" width="17.8" height="14.2"/>
			<rect id="XMLID_257_" x="232.4" y="205.2" class="st1" width="17.8" height="14.2"/>
		</g>
	</g>
</g>
</svg>
