<svg version="1.0" id="圖層_1" xmlns="http://www.w3.org/2000/svg" x="0" y="0" width="300" height="260" style="enable-background:new 0 0 300 260" xml:space="preserve"><style>.st3{display:none}.st5{display:inline;fill:#febc12}.st13{fill:#f1f2f2}.st14{fill:#939598}.st15,.st20{fill:none;stroke:#414042;stroke-miterlimit:10}.st20{stroke-width:.5}.st21{fill:#ed1c24}.st23{fill:#58595b}</style><g id="fire"><linearGradient id="XMLID_2_" gradientUnits="userSpaceOnUse" x1="150.7" y1="170.334" x2="150.7" y2="197.616" gradientTransform="translate(0 -16.508)"><stop offset=".493" style="stop-color:#ed683c"/><stop offset="1" style="stop-color:#e93e3a"/></linearGradient><path id="XMLID_378_" d="M152.9 154.1c-2.9-.8-6 0-8.2 2-1.2 1.1-2.5 2.7-3.6 4.9 0 0 .7-1 1.3-1 0 0-2.1 5.4 1.2 9.2 1.6 1.8.4 5.8.4 5.8s2.3-1.2 2.1-4.1c-.1-1.2-1.2-2.9.1-4.5 0 0 .1 3 1.5 5.4.9 1.6-.1 3 .5 4.7s1.5 4 2.4 4.5c0 0 .1-4 2.3-5.9s1-7.2-.2-8.2c0 0 2.1 0 3.4 4.9 0 0 1.8-2 .7-5.3 0 0 1.4 1.1 3.5 1.1 0 0-3.5-2-3.3-5.2s.4-7-2.6-8c-.5 0-1-.1-1.5-.3z" style="fill:url(#XMLID_2_)"/><path id="XMLID_377_" d="M154.5 156.1c-1.6-1.5-3.9-1.9-6-1.3-2 .6-4.5 1.9-5.1 4.6-.4 1.6-.6 3.9 0 4.7.2-.4.3-3.7 2-3.9s1 5.9 1.5 7.2c.4 1 .6 1.4 1.3 1.7.4.2.8 0 1-.3.3-.6-1-2.9-.6-3.8.3-.8 1.2-1.5 2.1-1.2.9.3 1.7 2.3 4 3.6 1.1.6-2.6-5-.7-4.7.9.1 2.1 2.4 2.1 2.4s1.9-5.8-1.6-9z" style="fill:#febc12"/><linearGradient id="XMLID_3_" gradientUnits="userSpaceOnUse" x1="149.772" y1="171.643" x2="149.772" y2="179.545" gradientTransform="translate(0 -16.508)"><stop offset="0" style="stop-color:#fff579"/><stop offset="1" style="stop-color:#fff9ba"/></linearGradient><path id="XMLID_375_" d="M153.3 156c-1.1-1-3.2-1-4.6-.8-1.5.2-2.5.8-3.7 2.1-.8 1-1.6 2.6-1.1 3.1.4-.4.6-1.2 1.9-1.3 1.2-.1 1.3 2.6 1.6 3.5.3.7 1.1-2.1 1.6-2.2 1.2-.1 1.1 1.5 2.7 2.5.8.4.3-3.5 1.6-3.3.6.1 2.5 2.2 2.5 2.2s0-3.5-2.5-5.8z" style="fill:url(#XMLID_3_)"/></g><g id="missile"><path id="XMLID_350_" class="st13" d="M137.8 151.8v-10.6l7.1-7.1 3.5 3.6-7.1 14.1z"/><path id="XMLID_372_" class="st14" d="m140.2 142.2 6.4-6.4-1.7-1.7-7.1 7.1v10.6h2.4z"/><path id="XMLID_339_" class="st15" d="M137.8 151.8v-10.6l7.1-7.1 3.5 3.6-7.1 14.1z"/><path id="XMLID_399_" class="st13" d="M162.6 151.8v-10.6l-7.1-7.1-3.5 3.6 7.1 14.1z"/><path id="XMLID_398_" class="st14" d="m160.2 142.2-6.4-6.4 1.7-1.7 7.1 7.1v10.6h-2.4z"/><path id="XMLID_397_" class="st15" d="M162.6 151.8v-10.6l-7.1-7.1-3.5 3.6 7.1 14.1z"/><path id="XMLID_376_" style="fill:#58595b;stroke:#414042;stroke-miterlimit:10" d="M145 155v-5h10v5z"/><path id="XMLID_111_" style="fill:#414042" d="M144.7 149.5h10.6v3h-10.6z"/><path id="XMLID_357_" style="opacity:.32;enable-background:new" d="M145.5 149.5h5.3v3h-5.3z"/><path id="XMLID_112_" class="st13" d="M142.5 112.5h15V150h-15z"/><path id="XMLID_424_" style="opacity:.39;fill:#58595b;enable-background:new" d="M142.5 112.5h3V150h-3z"/><path id="XMLID_113_" class="st15" d="M142.5 112.5h15V150h-15z"/><path id="XMLID_358_" class="st20" d="M142.3 117.4h15"/><path id="XMLID_354_" class="st20" d="M142.5 120h15"/><path id="XMLID_374_" class="st20" d="M157.5 122.6H156c-1.2 0-2.2 1-2.2 2.2v14.4c0 1.2 1 2.2 2.2 2.2h1.5v-18.8z"/><path id="XMLID_411_" class="st21" d="M152.5 102.8h-5c-.7 0-1.3-.6-1.3-1.3 0-.7.6-1.3 1.3-1.3h5c.7 0 1.3.6 1.3 1.3 0 .7-.6 1.3-1.3 1.3z"/><path id="XMLID_418_" class="st15" d="M152.5 102.8h-5c-.7 0-1.3-.6-1.3-1.3 0-.7.6-1.3 1.3-1.3h5c.7 0 1.3.6 1.3 1.3 0 .7-.6 1.3-1.3 1.3z"/><path id="XMLID_359_" class="st21" d="m142.5 112.1 2.5-10h10l2.5 10z"/><path id="XMLID_423_" style="opacity:.25;fill:#fff;enable-background:new" d="m146 102.1-2.5 10h3l2.5-10z"/><path id="XMLID_373_" class="st15" d="m142.5 112.1 2.5-10h10l2.5 10z"/><circle id="XMLID_420_" class="st23" cx="155.7" cy="124.7" r=".8"/><circle id="XMLID_422_" class="st23" cx="155.7" cy="139.2" r=".8"/></g></svg>