<svg version="1.0" id="圖層_1" xmlns="http://www.w3.org/2000/svg" x="0" y="0" width="300" height="260" style="enable-background:new 0 0 300 260" xml:space="preserve"><style>.st0{display:none}.st2{display:inline;fill:#febc12}.st13{fill:#f1f2f2}.st14{fill:#939598}.st15,.st20{fill:none;stroke:#414042;stroke-miterlimit:10}.st20{stroke-width:.5}.st21{fill:#ed1c24}.st23{fill:#58595b}</style><g id="fire4"><linearGradient id="XMLID_9_" gradientUnits="userSpaceOnUse" x1="150.35" y1="135.108" x2="150.35" y2="160.791" gradientTransform="translate(0 18.59)"><stop offset=".493" style="stop-color:#ed683c"/><stop offset="1" style="stop-color:#e93e3a"/></linearGradient><path id="XMLID_388_" d="M153.1 154c-3.1-.9-6.5 0-8.9 2.2-1.3 1.2-2.7 2.9-3.9 5.3 0 0 .7-1.1 1.4-1.1 0 0-2.1 4.7 1.5 8.9 1.8 2 .1-2.2 2.2-3.5 0 0-.3 5.1 1.3 7.7 1 1.7 2.4-6.1 4.8-5.9 1.1.1 3.5 2.9 3.6 5.5.1 2.8-1.6 6.2-1.6 6.2.1-.6 4.6-3.9 3.7-5.7-2.1-4 .3-4.7-1.7-8.1 0 0 2.6 1.9 4.9 1.9 0 0-3-.9-2.8-4.4.2-3.2-.8-7.9-4.5-9z" style="fill:url(#XMLID_9_)"/><path id="XMLID_387_" d="M154.4 156.3c-1.8-1.6-3.8-2.3-6.1-1.6-2.2.7-4.9 2.1-5.5 5-.4 1.8-.1 5.6.6 6.5.2-.4-.1-4.7 1.8-4.9 1.9-.2 2 5.8 1.7 7.2-.2 1.2 1.5-.6 1.5-1.7 0-1 .6-2.3 1.7-2 .9.3 2.5 2 4.9 3.4 1.2.7-3.2-5.4-1.1-5.1 1 .1 2.7 2 2.7 2s1.7-5.2-2.2-8.8z" style="fill:#febc12"/><linearGradient id="XMLID_10_" gradientUnits="userSpaceOnUse" x1="149.623" y1="136.909" x2="149.623" y2="144.867" gradientTransform="translate(0 18.59)"><stop offset="0" style="stop-color:#fff579"/><stop offset="1" style="stop-color:#fff9ba"/></linearGradient><path id="XMLID_382_" d="M153.4 156.5c-1.2-1.1-3.1-1.1-4.5-.8-1.6.3-3 .5-4.3 1.9-.9 1.1-1.7 2.8-1.2 3.4.4-.4.7-1.5 2.1-1.7 1.3-.1 1.3 2.7 1.6 3.7.3.7 1.3-2.3 1.8-2.3 1.3-.1.9 1.8 2.7 2.8.9.5.7-3.8 2.2-3.6.7.1 2.2 2.6 2.2 2.6s.1-3.5-2.6-6z" style="fill:url(#XMLID_10_)"/><linearGradient id="XMLID_11_" gradientUnits="userSpaceOnUse" x1="149.184" y1="150.444" x2="149.184" y2="158.415" gradientTransform="rotate(-2.278 640.033 96.143) scale(.99999)"><stop offset=".493" style="stop-color:#ed683c"/><stop offset="1" style="stop-color:#e93e3a"/></linearGradient><path id="XMLID_381_" d="M151.5 169.9s-1.9 1.7-.9 3.7 2 3.1 1.7 4.3c0 0 1.7-1.8 1-3.3-.6-1.4-2.3-2.8-1.8-4.7z" style="fill:url(#XMLID_11_)"/></g><g id="missile"><path id="XMLID_350_" class="st13" d="M137.8 151.8v-10.6l7.1-7.1 3.5 3.6-7.1 14.1z"/><path id="XMLID_372_" class="st14" d="m140.2 142.2 6.4-6.4-1.7-1.7-7.1 7.1v10.6h2.4z"/><path id="XMLID_339_" class="st15" d="M137.8 151.8v-10.6l7.1-7.1 3.5 3.6-7.1 14.1z"/><path id="XMLID_399_" class="st13" d="M162.6 151.8v-10.6l-7.1-7.1-3.5 3.6 7.1 14.1z"/><path id="XMLID_398_" class="st14" d="m160.2 142.2-6.4-6.4 1.7-1.7 7.1 7.1v10.6h-2.4z"/><path id="XMLID_397_" class="st15" d="M162.6 151.8v-10.6l-7.1-7.1-3.5 3.6 7.1 14.1z"/><path id="XMLID_376_" style="fill:#58595b;stroke:#414042;stroke-miterlimit:10" d="M145 155v-5h10v5z"/><path id="XMLID_111_" style="fill:#414042" d="M144.7 149.5h10.6v3h-10.6z"/><path id="XMLID_357_" style="opacity:.32;enable-background:new" d="M145.5 149.5h5.3v3h-5.3z"/><path id="XMLID_112_" class="st13" d="M142.5 112.5h15V150h-15z"/><path id="XMLID_424_" style="opacity:.39;fill:#58595b;enable-background:new" d="M142.5 112.5h3V150h-3z"/><path id="XMLID_113_" class="st15" d="M142.5 112.5h15V150h-15z"/><path id="XMLID_358_" class="st20" d="M142.3 117.4h15"/><path id="XMLID_354_" class="st20" d="M142.5 120h15"/><path id="XMLID_374_" class="st20" d="M157.5 122.6H156c-1.2 0-2.2 1-2.2 2.2v14.4c0 1.2 1 2.2 2.2 2.2h1.5v-18.8z"/><path id="XMLID_411_" class="st21" d="M152.5 102.8h-5c-.7 0-1.3-.6-1.3-1.3 0-.7.6-1.3 1.3-1.3h5c.7 0 1.3.6 1.3 1.3 0 .7-.6 1.3-1.3 1.3z"/><path id="XMLID_418_" class="st15" d="M152.5 102.8h-5c-.7 0-1.3-.6-1.3-1.3 0-.7.6-1.3 1.3-1.3h5c.7 0 1.3.6 1.3 1.3 0 .7-.6 1.3-1.3 1.3z"/><path id="XMLID_359_" class="st21" d="m142.5 112.1 2.5-10h10l2.5 10z"/><path id="XMLID_423_" style="opacity:.25;fill:#fff;enable-background:new" d="m146 102.1-2.5 10h3l2.5-10z"/><path id="XMLID_373_" class="st15" d="m142.5 112.1 2.5-10h10l2.5 10z"/><circle id="XMLID_420_" class="st23" cx="155.7" cy="124.7" r=".8"/><circle id="XMLID_422_" class="st23" cx="155.7" cy="139.2" r=".8"/></g></svg>