<svg version="1.0" id="Calque_1" xmlns="http://www.w3.org/2000/svg" x="0" y="0" viewBox="0 0 300 200" style="enable-background:new 0 0 300 200" xml:space="preserve"><style>.st0{opacity:.25;fill:#030405;enable-background:new}.st7{fill:#fff}.st8{fill:#f8ead3;stroke:#371b0f;stroke-width:3;stroke-miterlimit:10}.st9{fill:#fcf3de}.st10{fill:#fffaeb}.st11{fill:none;stroke:#371b0f;stroke-width:2;stroke-miterlimit:10}.st12{fill:#ae5e36}.st13{fill:#893d14}.st14{fill:#7c2c11}</style><g id="Calque_39"><path id="XMLID_263_" class="st0" d="m228.9 190.4 25.2 7.3c2.7.8 11.9 2.4 13.7.3 1.1-1.3-6.5-7.3-7.9-8.1l-8-6.3c-2.1-2.2-3.5-4.2.9-6.3l8.1-1.1c6.1-.7 13.4-.3 13.2-2-.4-2.8-8.9-4.3-11.7-5.1l-25.2-7.3c-5.1-1.5-10.5 1.7-12 7l-2.7 9.3c-.8 2.8-2.4 6.6-1.1 8.9 1.2 2 5.2 2.7 7.5 3.4z"/><linearGradient id="XMLID_6_" gradientUnits="userSpaceOnUse" x1="270.298" y1="17098.785" x2="217.103" y2="17098.785" gradientTransform="translate(0 -16923.89)"><stop offset="0" style="stop-color:#eb5959"/><stop offset=".089" style="stop-color:#d74746"/><stop offset=".231" style="stop-color:#be3532"/><stop offset=".383" style="stop-color:#ac2a23"/><stop offset=".548" style="stop-color:#9f211d"/><stop offset=".736" style="stop-color:#981c1a"/><stop offset="1" style="stop-color:#951919"/></linearGradient><path id="XMLID_262_" d="m225.1 185.1 25.2 7.3c2.7.8 11.9 2.4 13.7.3 1.1-1.3-6.5-7.3-7.9-8.1l-8-6.3c-2.1-2.2-3.5-4.2.9-6.3l8.1-1.1c6.1-.7 13.4-.3 13.2-2-.4-2.8-8.9-4.3-11.7-5.1l-25.2-7.3c-5.1-1.5-10.5 1.7-12 7l-2.7 9.3c-.8 2.8-2.4 6.6-1.1 8.9 1.2 2 5.2 2.7 7.5 3.4z" style="fill:url(#XMLID_6_);stroke:#3b1913;stroke-width:3;stroke-miterlimit:10"/><path id="XMLID_261_" class="st0" d="m70.9 189.5-25.1 7.3c-2.7.8-11.9 2.4-13.7.3-1.1-1.3 6.5-7.3 7.9-8.1l8-6.3c2.1-2.2 3.5-4.2-.9-6.3l-8.1-1.1c-6.1-.7-13.4-.3-13.2-2 .4-2.8 8.9-4.3 11.7-5.1l25.2-7.3c5.1-1.5 10.5 1.7 12 7l2.7 9.3c.8 2.8 2.4 6.6 1.1 8.9-1.2 2.1-5.1 2.7-7.6 3.4z"/><linearGradient id="XMLID_7_" gradientUnits="userSpaceOnUse" x1="239.139" y1="26.115" x2="185.943" y2="26.115" gradientTransform="rotate(180 134.392 100.055)"><stop offset="0" style="stop-color:#eb5959"/><stop offset=".089" style="stop-color:#d74746"/><stop offset=".231" style="stop-color:#be3532"/><stop offset=".383" style="stop-color:#ac2a23"/><stop offset=".548" style="stop-color:#9f211d"/><stop offset=".736" style="stop-color:#981c1a"/><stop offset="1" style="stop-color:#951919"/></linearGradient><path id="XMLID_260_" d="m74.8 184.2-25.2 7.3c-2.7.8-11.9 2.4-13.7.3-1.1-1.3 6.5-7.3 7.9-8.1l8-6.3c2.1-2.2 3.5-4.2-.9-6.3l-8.1-1.1c-6.1-.7-13.4-.3-13.2-2 .4-2.8 8.9-4.3 11.7-5.1l25.2-7.3c5.1-1.5 10.5 1.7 12 7l2.7 9.3c.8 2.8 2.4 6.6 1.1 8.9-1.2 2-5 2.7-7.5 3.4z" style="fill:url(#XMLID_7_);stroke:#3b1913;stroke-width:3;stroke-miterlimit:10"/><g id="XMLID_257_" style="opacity:.25"><path id="XMLID_271_" d="M224.6 181.6c-48.7-22.7-100.1-22.7-148.8 0-6.4 3-13.4-2.7-15.5-13.3-1-5.2-2-10.2-3-15.5-2.1-10.6 2.1-22.3 9.5-25.9 54.5-25.4 112.2-25.4 166.7 0 7.3 3.4 11.6 15.3 9.5 25.9-1 5.2-2 10.2-3 15.5-1.9 10.4-8.9 16.1-15.4 13.3z" style="fill:#030405"/></g><g id="XMLID_34_"><radialGradient id="XMLID_9_" cx="150.3" cy="76.105" r="67.862" gradientTransform="matrix(1 0 0 -1.6795 0 266.552)" gradientUnits="userSpaceOnUse"><stop offset="0" style="stop-color:#eb5959"/><stop offset="1" style="stop-color:#951919"/></radialGradient><path id="XMLID_51_" d="M225.3 174c-49-22.8-100.8-22.8-149.8 0-6.4 3-13.4-2.7-15.5-13.3-.9-4.5-1.7-8.9-2.6-13.4-2.1-10.6 2.1-22.3 9.4-25.9 54.7-25.5 112.4-25.5 167.1 0 7.3 3.4 11.5 15.3 9.4 25.9-.9 4.5-1.7 8.9-2.6 13.4-2.1 10.6-9.1 16.4-15.4 13.3z" style="fill:url(#XMLID_9_)"/><path id="XMLID_50_" d="M225.3 174c-49-22.8-100.8-22.8-149.8 0-6.4 3-13.4-2.7-15.5-13.3-.9-4.5-1.7-8.9-2.6-13.4-2.1-10.6 2.1-22.3 9.4-25.9 54.7-25.5 112.4-25.5 167.1 0 7.3 3.4 11.5 15.3 9.4 25.9-.9 4.5-1.7 8.9-2.6 13.4-2.1 10.6-9.1 16.4-15.4 13.3z" style="fill:none;stroke:#3c1912;stroke-width:3;stroke-miterlimit:10"/></g><g id="XMLID_17_"><g id="XMLID_8_"><path id="XMLID_109_" class="st7" d="M106.5 127.5H106.8l.1-.1h.1c1-.1 1.4-.1 2.4-.2h.2c.3 0 .4 0 .6-.1h.7s.1 0 .1-.1c.3 0 .4 0 .7-.1h.2c1.5-.2 2.2-.2 3.6-.4v.2s.1 0 0-.1h.1c.8-.1 1.4.3 2 1.1.2.4.3.8.3 1.2 0 .2 0 .3.1.5v.1c0 .7.1 1.3.1 1.9v.4c.1 1.3.1 2 .2 3.3v1c.2 3.3.3 5 .5 8.4 0 .4 0 .6.1.9.1.9-.1 1.6-.2 1.9-.2.5-.5.8-.7.8-.7.4-1.2.6-1.6.6-.6.1-.9.1-1.5.2h-.2c-.1 0-.1 0-.1.1v-.1c.2-.1.3-.1.6-.1-.7.1-1.1.2-1.9.4-1.2.1-1.8.2-3 .3H109.7c-.3 0-.5.1-.8.1-.4 0-.6 0-1 .1-.1 0-.2.1-.3.1h-.5c-.2 0-.4 0-.6.1-.4 0-.6.1-1 .1 0-.2 0-.2-.1-.4 0 0 .1-.1.1-.2v-.9c-.1-.6-.1-.9-.2-1.6-.1-1.3-.1-2-.2-3.3h.1v-.1s0-.1-.1-.1c0-.1 0-.1.1-.2V142.9c0-.6 0-.9-.1-1.5v-1.3h-.1c0 .5 0 .9-.1 1.1v-.8c-.1-.7-.1-1.4 0-1.9-.1-.1-.1-.4-.2-.8h.1s0-.1-.1-.1c0-.3-.1-.5-.1-.9v-1h-.1v.1c0-.3-.1-.5-.1-.8-.1-1.3-.2-2.7-.2-4.2v-.5c-.1-.3-.1-.4-.2-.7v-1.3c.3 0 .4-.1.7-.1.1 0 .2-.1.4-.1.5-.1.8-.1 1.4-.2-.1-.4-.1-.4 0-.4zm6.8 4.3c0 .2 0 .3-.1.5-1.6.2-2.4.3-4.1.5 0 0-.1 0-.1-.1-.1 0-.1.1-.1.1v.3h-.1v.1h.1v.6c.1 1.6.2 2.4.3 4.1 0 .4.1.6.1 1v.7c0 .7.1 1 .1 1.6 0 .2 0 .2.1.4V142.5c0 .2 0 .3.1.6v.2h.1v.1H109.1c0 .1.2.1.5.1v.2c.3 0 .4 0 .6.1l.1-.1h.6c.6-.1.9-.1 1.4-.2h.7c.4 0 .5-.1.9-.1v.5h.1V143.3h.1s.1.1.1.2h.1c0-.1.1-.2.2-.2v-.1h-.1v-.5c0-.1 0-.2-.1-.3v-1.3c0-.2 0-.3-.1-.4 0-.1.1-.1.1-.2v-.1c0-.2 0-.3-.1-.4 0-.6-.1-1-.1-1.6 0-.1 0-.2-.1-.3v-.6c-.1-.7-.1-1-.1-1.7V135.2c-.1-.7-.1-1-.1-1.7V133.2s0-.1.1-.1c0 0 0-.1-.1-.1v-.3c.1 0 .1 0 .1-.1h-.1V132.3h-.4c0-.2 0-.3-.1-.5z"/><path id="XMLID_104_" class="st7" d="M120.4 126.2c.7-.1 1.1-.1 1.9-.1H124.5c.7 0 1-.1 1.7-.1 1.2-.1 1.8-.1 3.1-.2H131.7v.1h.5c.1 0 .2 0 .3-.1h.6c.6 0 .9 0 1.5-.1v.6c-.1.5-.1 1.1-.1 1.9 0 1.2 0 1.8.1 2.9h-1.1c-.5 0-.7 0-1.1.1h-.3l-.1.1H131.7c-.1 0-.2 0-.2-.1-.1 0-.1 0-.2.1 0 0-.1 0-.1-.1h-3.8c-.2 0-.3 0-.5.1-.4 0-.6 0-1 .1 0-.1 0-.1-.1-.1 0 0-.1 0 0 .1h-.5c0 .1-.1.1-.1.1.2 0 .2 0 .4-.1h.1v.2h-.1v.1h.1v.1s0 .1-.1.1c.1 0 .1 0 .1.1v2.1c0 .1 0 .1.1.2l.1-.1h.2c.3-.1.6-.1 1.1-.1 1.9-.1 2.8-.1 4.6-.2h.9l.1.1v1c0 .3 0 .5-.1.8v.9c0 .4.1.9.1 1.5v1.2h-1.9c-.8 0-1.2.1-2.1.1h-2.1c-.1 0-.1 0-.2-.1v.1h-.1c-.1 0-.1 0-.2.1-.1 0-.1-.2-.1-.4-.2.3-.2.7-.2 1-.1 0-.2.1-.2.1h.2V140.6s0 .1.1.1v.5c0 .1-.1.1-.2.1l.2.2v.4h-.2v.1h.2v.3c0 .1.1.1.2.1v-.1c.9-.1 1.3-.1 2.2-.1v.1s0-.1.1-.1h1.9c1-.1 1.6-.1 2.6-.1h1.8c.1 0 .2 0 .2-.1.1 0 .2.1.2.1V147.3H133.3c-.3 0-.5 0-.8-.1-.6 0-.9.1-1.6.1h-.1c-.1 0-.1 0-.1-.1-.1 0-.2.1-.3.1h-1c-.7 0-1 .1-1.6.1h-1.7c-.1 0-.2 0-.3.1H123.2c-.3 0-.4 0-.6.1-.1 0-.1 0-.1-.1v-.2h-.1c0 .2-.1.2-.4.3h-.5V144c0-.1 0-.2.1-.2-.1-.2-.1-.8-.2-1.6-.2-3.4-.3-5.1-.4-8.5V131c-.1-.2-.1-.4-.1-.5v-.2h.1v.1-.1c0-.1 0-.2-.1-.2v-.2l.1-.1c0-.1 0-.1-.1-.2v-.3c0-.5-.1-.7-.1-1.2v-1 .2h-.1c0-.4 0-.6-.1-1-.2.3-.2.2-.2-.1zm.1 1.3s0 .1 0 0c0 .1 0 .1 0 0 .1-.6.1-1 .2-1s.2.3.3.9v-.1c-.1-.7-.3-1-.3-1-.1.1-.2.5-.2 1.2zm.5.2v.1c.1 0 .1-.1 0-.1.1 0 .1 0 0 0zm.1.1c0 .1 0 .1 0 0v.2-.2z"/><path id="XMLID_99_" class="st7" d="M147.7 125H149.1c.1 0 .2 0 .3.1.1 0 .1 0 .2-.1 0 0 .1 0 .1.1h1.2s.1.1.1.2c0 .7 0 1.1-.1 1.9v3.3h.1v.1s-.3.1-1 .1c-.5 0-.7 0-1.2-.1-.2 0-.4 0-.6.1h-.8c-.3 0-.4 0-.7.1h-1.5c-.1 0-.2 0-.4.1h-2.4c-.1 0-.2.1-.3.1h-.2c-.1 0-.1-.1-.1-.2 0 .1-.1.2-.1.2h-.3c0 .1 0 .1.1.2-.1 0-.1.1-.2.1.1 0 .2 0 .2.1s0 .1-.1.2c0 .3 0 .5.1.8v1.2s0 .1-.1.1v.1c.1 0 .1 0 .1.1s0 .1-.1.2h1.8c.1 0 .2 0 .3-.1h5c0 .3 0 .5.1.8v3c0 .4 0 .7.1.8v.8c-.5 0-.7 0-1.2-.1h-.1c.2 0 .3 0 .5.1v.1h-2s0-.1.1-.1c-.5 0-.8.1-1 .2h-2.3c-.2 0-.2.1-.4.1H142c-.1-.1-.1-.1-.2-.1h-.1l-.1.1V140.3s0 .1.1.1c0 .3 0 .4-.1.4V153.4c-.1 0-.4-.4-1-1.1-.6-.7-.9-1-1.5-1.7s-1.2-1.4-1.6-1.9h.1c.1 0-.1-.3-.5-.9V143c0 .2 0 .3.1.4v-.1c-.1-.7-.1-1-.1-1.7 0-.6 0-.9.1-.9v-.3c0-.3 0-.7.1-1.3h-.1v-.4h-.1V137.3c.1 0 .1 0 .1-.1v-.6c-.1 0-.1-.2-.1-.7v-.5c0-.6 0-.9-.1-1.4V133.1v.1h.1c0-.3.1-.5.1-.7V129h-.1v-.9c0-.1 0-.1-.1-.2 0 0 .1 0 .1-.1l.2.2-.3-.3v-1.8c0-.1.1-.1.2-.1h.1c.1 0 .1 0 .2-.1h.6c.1 0 .1 0 .2.1l.1-.1h.4c.1 0 .2 0 .3-.1h.7c.1 0 .1 0 .2-.1H141.7c.3 0 .4 0 .7-.1h4.5c.2 0 .3 0 .5-.1h.1c-.2-.3-.1-.3.2-.3zm-7.1 25.9c0 .1 0 .1 0 0 0 .1 0 .1 0 0 0 .1 0 .1 0 0zM146 139s.1 0 0 0c.1.1.1.1 0 0 .1 0 .1 0 0 0 .1 0 .1 0 0 0zm.3 0h1.1-1.1z"/><path id="XMLID_91_" class="st7" d="M153 125h11.3v.1h.5c.1 0 .2 0 .3-.1h.6c.6 0 .9 0 1.5.1v.6c-.1.4-.2 1.1-.2 1.9 0 1.2 0 1.8-.1 2.9h-2.2c-.2 0-.3 0-.3-.1l-.1.1H164c-.1 0-.2 0-.2-.1-.1 0-.1 0-.2.1 0 0-.1 0-.1-.1h-3.1c-.3 0-.4 0-.7-.1h-1.5c0-.1 0-.1-.1-.1s-.1 0-.1.1h-.5l-.1.1h.5v.2h-.1v.1h.1v.1s0 .1-.1.1c.1 0 .1 0 .1.1v2.1c0 .1 0 .1.1.2l.1-.1c.1 0 .2 0 .2.1.3 0 .6-.1 1.1 0 1.9 0 2.8.1 4.6.1h.9l.1.1v1c0 .3-.1.5-.1.8v2.4c0 .5 0 .7-.1 1.2h-.1c-.4 0-.5-.1-.9-.1H158.7c-.1 0-.1-.1-.2-.1v.1h-.1c-.1 0-.1 0-.2.1-.1 0-.1-.2-.1-.4-.2.3-.3.6-.3 1-.1 0-.2.1-.2.1h.2V139.9s0 .1.1.1v.5c0 .1-.1.1-.2.1l.2.2v.4h-.2v.1h.2v.3c0 .1.1.1.2.1v-.1h2.2v.1s0-.1.1-.1h1.9c1 0 1.6 0 2.6.1h1.8c.1 0 .2 0 .2-.1.1 0 .2.1.2.1V146.9H165.2c-.3 0-.5-.1-.8-.1H162.7c-.1 0-.1 0-.1-.1-.1 0-.2.1-.3.1h-7.8c-.1 0-.1 0-.1-.1v-.2h-.1c0 .2-.1.2-.4.2h-.5v-.5c0-.2 0-.3.1-.5v-2.6c0-.1 0-.2.1-.2-.1-.2-.1-.8-.1-1.6v-8.5c.1-.5.1-1.3.1-2.3v-.4c-.1-.2-.1-.4-.1-.5v-.2h.1v.1-.1c0-.1 0-.2-.1-.2v-.2h.1c0-.1 0-.1-.1-.2v-.3c0-.5 0-.7-.1-1.2 0-.3 0-.5.1-.9v-.1.2h-.1v-1c-.4-.1-.4-.2-.4-.5zm0 1.4c.1 0 .1 0 0 0 .1-.6.2-1 .2-1 .1 0 .2.3.3 1v-.1c-.1-.7-.2-1-.3-1 0 0-.1.3-.2 1.1zm.6.2v.1-.1zm0 .1c0 .1 0 .1 0 0v.2c.1-.1.1-.1 0-.2z"/><path id="XMLID_88_" class="st7" d="M175.3 125.6h.6c.4 0 .6.1 1 .1.2 0 .3 0 .5.1.3 0 .5 0 .9.1v.2H180.6c.1 0 .2 0 .3.1h.7c.4 0 .8.2 1 .4.3.2.6.7.8 1.4V129.6c0 1-.1 1.5-.1 2.4v1c-.1 1.9-.1 2.8-.2 4.6v1.7c0 .6 0 .8-.1 1.4 0 .1 0 .1-.1.2-.1 1.5-.1 2.3-.2 3.8v.6c0 .5 0 .8-.1 1.3v1.2c-.1.9-.1 1.3-.2 2.2v1.3c0 .2 0 .3-.1.5v1.1h-.1c-.8-.9-1.7-2.1-2.8-3.6-.2-.1-.6-.5-1.2-1.4v-.1h.1c-.1-.1-.1-.1-.1-.2 0-.6 0-.9.1-1.5V145.5c0-.6 0-1 .1-1.6 0-.6 0-.9.1-1.5V142.1c0-.2.1-.3.1-.4l-.1-.1v-.8c0-.1 0-.1.1-.2V140.3h.1c-.1-.1-.1-.1-.1-.2.1 0 .1 0 .1-.1v-.1h.4l.1-.1h-.6v-.1h-.1l-.1.1h-.1v-.1c-.1 0-.1 0-.1.1H175.3c-.1 0-.1 0-.2-.1h-.8v-.2s-.1.1-.1.2h-.2c-.1 0-.2 0-.3-.1V139.9c-.2 0-.2 0-.2.1h.2c-.1.9-.1 1.3-.2 2.2v1.5c.1.3.1.9 0 1.7 0 1-.1 1.4-.1 2.4l-.1.1h-.1c-.1 0-.1 0-.2-.1-1.1 0-1.6-.1-2.7-.1-.1 0-.1 0-.2.1-.3 0-.4 0-.7-.1h-.4c-.1-.1-.2-.5-.2-1.2v-2.8c0-1.1 0-1.7.1-2.8 0-.6.1-.9.1-1.5 0-.1 0-.2-.1-.3v-10.6c0-.7 0-1.1.1-1.9V125.9c.3 0 .4.1.7.1h.1v-.1h-.1v-.1c2.1.1 3.1.1 5.2.3.1-.5.2-.5.4-.5zm2.8 5.8c-.4-.1-.6-.1-1-.1-1 0-1.5-.1-2.5-.1H174.3s-.1 0-.1-.1h-.5v-.1c-.1.1-.1.1-.2.1 0 .9-.1 1.4-.1 2.4 0 0 0 .1-.1.1.1 0 .1 0 .1.1v.3h.5v.1s.1 0 .1-.1h.5c.4 0 .5 0 .9.1H177.4v-.1l.1.1h.5v.2-.2h.2v-.1c-.1 0-.1-.1-.1-.1l.1-.1h-.2v-1.5l.2-.2c-.1 0-.1.1-.1.1v-.5h.2l.1-.1H178.1v-.1c0-.1.1-.1.1-.1l-.1-.1v.1h-.1v-.2c.2 0 .1 0 .1.2z"/><path id="XMLID_86_" class="st7" d="M186.6 126.4c0 .1 0 0 0 0 .1 0 .1.1.2.1h.4c1.9.2 2.9.3 4.8.5.7.1 1.1.1 1.8.2.2 0 .3 0 .5.1h.3c.3 0 .4.1.6.1h.5v.1c-.4 0-.6.1-.6.1.2 0 .2.1.4.1 2.2 0 3.6.1 4.2.1v.2c0 .3-.1.5-.1.8 0 .5-.1.8-.1 1.3 0 .2 0 .3-.1.5 0 .3-.1.5-.1.8-.1.7-.1 1-.1 1.6 0 .1-.1.1-.1.1H198.5c-.2-.1-.4-.1-.6-.1-.4 0-.5 0-.9-.1h-.1c-.3 0-.4 0-.7-.1-.1 0-.2 0-.3-.1h-.1c-.2 0-.2 0-.4-.1-.1 0-.1-.1-.2-.1s-.1 0-.1.1h-.2c-.1 0-.1 0-.2-.1 0 0-.1 0-.1.1v.1s-.1.1-.2 0c0 0 0 .1.2.1v.2s0 .1-.1.1h.1v.1c0 .1 0 .2-.1.3v.4c0 .4-.1.7-.1 1.1v.4c0 .6-.1.9-.1 1.4v.2c0 .3-.1.5-.1.9-.2 2.8-.3 4.2-.5 7.1-.1 2.2-.2 3.3-.4 5.5v.6c-.1 1.1-.1 1.7-.2 2.8V154.5c-.4-.4-1.1-1.4-2.1-2.9-.1 0-.6-.8-1.6-2.2-.2-.3-.4-.5-.4-.6v-.1c-.1 0-.1-.2-.1-.4v-.4c0-.1.1-.2.1-.2 0-.6 0-.9.1-1.4v-.6c0-.1 0-.2.1-.3v-.8c0-.2 0-.3.1-.5V143.8c0-.1 0-.1.1-.2v-.3c0-.3 0-.4.1-.7v-.9c0-.1 0-.1.1-.2v-.6c.1-1 .2-1.6.2-1.6v-.5c0-.1 0-.1-.1-.1v-.3c0-.5.1-.7.1-.7s-.1-.3 0-.7c0-.1.1-.3.1-.6 0-.6.1-.8.1-1.4 0-.2 0-.3.1-.5V134.2c0-.1 0-.2.1-.3v-.1c.1-.3.1-.5.1-.8v-.2h.2v-.1c-.1 0-.1 0-.1-.1v-.1h-.1c-.1 0-.1.1-.1.1-.1 0-.2 0-.3-.1-.2 0-.3-.1-.5-.1h-1.1c-.4 0-.5-.1-.9-.1H186.2c-.2 0-.2 0-.4-.1 0-.9 0-1.4.1-2.4.1-1.1.1-1.7.2-2.8 0-.2 0-.2.1-.3.3 0 .4 0 .7.1-.5-.4-.4-.4-.3-.4z"/></g></g></g><g id="Calque_3_-_copie"><path id="XMLID_76_" class="st8" d="M231.7 39.9c-31.3-7.5-75.4 20.5-63 57.4 6.5 19.3 38.5 30.4 50.9 32.6l1.6 1.1c1.9 1.5 4.5 4.9 5.9 5.2.9.2 2-.5 2.3-1.5.3-.9.6-2 .6-3.1v-1.2s1.3 4.8 3 4c1.7-.7 3.9-2.7 3.6-6.2 0 0 .6 4.2 3.6 3.1 2.9-1.1 2.5-5.9 2.5-5.9s.4 4.7 2.8 3.6c2.2-1 1.7-4.4 1.7-4.9v-.1.1c0 .2.2.9.4 1.6.2.4.4.9.7 1.3.4.5 1.1.5 1.7-.1 1.2-1.2 2-3 2-4.7v-1.9c4.9-7 12.1-17 12.7-29.6.9-21.4-11.3-45.6-33-50.8z"/><path id="XMLID_75_" class="st9" d="M263.5 88.2c-.7 16-10.4 30.8-24.3 36-17.4 6.5-60.9-7.6-68.6-31.7-10.2-31.9 32.8-54.3 61.4-48.3 20.4 4.2 32.3 25 31.5 44z"/><path id="XMLID_42_" class="st10" d="M261.9 85c-.5 15.1-9.9 28.9-23.2 33.2-16.6 5.4-58.5-9.1-65.1-31.6C165 57.7 206 38.7 232 44.2c19.1 4 30.5 23.1 29.9 40.8z"/><path id="XMLID_74_" class="st7" d="M216.4 62.7c-3.9 3-9 2.6-11.5-1.2-2.6-4-1.2-10.1 3.2-13.2 4.3-3 9.5-1.9 11.6 2.2 2 3.9.5 9.2-3.3 12.2z"/><g id="Calque_7_-_copie_2_1_"><path id="XMLID_48_" class="st11" d="m239.8 105.3.3 1.6v.6l-.1 1.2c0 .6.5.9 1 .8l.7-.3c.5-.2 1-.4 1.6-.4l.7-.1c.8-.2 1.1-1.4.5-1.9l-1.2-.8c-.2-.1-.4-.3-.6-.5l-1.4-1.3c-.7-.6-1.6.2-1.5 1.1z"/><path id="XMLID_46_" class="st12" d="m239.8 105.3.3 1.6v.6l-.1 1.2c0 .6.5.9 1 .8l.7-.3c.5-.2 1-.4 1.6-.4l.7-.1c.8-.2 1.1-1.4.5-1.9l-1.2-.8c-.2-.1-.4-.3-.6-.5l-1.4-1.3c-.7-.6-1.6.2-1.5 1.1z"/><path id="XMLID_45_" class="st13" d="m241.7 109.2-.7.3c-.5.1-.9-.2-1-.8l.1-1.2v-.6l-.2-1c.7.5.9 1.7 1.8 2.1.9.4 2.4 0 3 .2-.1.3-.4.5-.7.6l-.7.1c-.5-.1-1.1.1-1.6.3z"/></g><g id="Calque_7_-_copie_2"><path id="XMLID_54_" class="st11" d="M235.2 106.4v1.7c0 .2 0 .4.1.6l.3 1.2c.1.6-.3 1.2-.8 1.3l-.8.1c-.6.1-1.2.2-1.8.5l-.8.3c-.9.2-1.5-.9-.9-1.7l1.3-1.6c.2-.3.4-.5.6-.8l1.2-2c.4-.9 1.5-.6 1.6.4z"/><path id="XMLID_53_" class="st12" d="M235.2 106.4v1.7c0 .2 0 .4.1.6l.3 1.2c.1.6-.3 1.2-.8 1.3l-.8.1c-.6.1-1.2.2-1.8.5l-.8.3c-.9.2-1.5-.9-.9-1.7l1.3-1.6c.2-.3.4-.5.6-.8l1.2-2c.4-.9 1.5-.6 1.6.4z"/><path id="XMLID_52_" class="st13" d="m233.9 111.3.8-.1c.5-.1.9-.7.8-1.3l-.3-1.2c0-.2-.1-.4-.1-.6V107c-.6.9-.6 2.2-1.5 3-.9.9-2.7 1.3-3.3 1.9.2.2.5.3.9.3l.8-.3c.7-.4 1.3-.5 1.9-.6z"/></g><g id="Calque_5_-_copie_2_1_"><path id="XMLID_41_" class="st12" d="M225.9 90.7c.9 6.7-2.5 12.7-8.1 13.7-5.9 1.2-12.6-3.6-14.5-11.2-2.1-8.2 2.3-15.5 9.3-15.7 6.5-.1 12.3 6 13.3 13.2z"/><path id="XMLID_40_" class="st13" d="M206.9 96.8c.6 2.5 2.3 4.5 3.7 6.3 2.3 1.3 4.8 1.8 7.2 1.3 5.5-1.1 9-7 8.1-13.7-.7-4.7-3.3-8.8-6.8-11.2H218c-3 .1-6.1.8-8 3-2.1 2.4-3.9 5.4-3.9 9.2-.1 1.4.5 3.7.8 5.1z"/><path id="XMLID_39_" class="st14" d="m225.9 90.7-.3-1.5c-1.7-2-4-3.3-6.5-3.1-2.5.2-5.4.4-6.5 2.8-.9 1.9-.4 5.5.1 7.8.8 3.8 3.4 6.6 6.4 7.4 4.7-1.7 7.6-7.2 6.8-13.4z"/><path id="XMLID_38_" class="st11" d="M225.9 90.7c.9 6.7-2.5 12.7-8.1 13.7-5.9 1.2-12.6-3.6-14.5-11.2-2.1-8.2 2.3-15.5 9.3-15.7 6.5-.1 12.3 6 13.3 13.2z"/></g><g id="Calque_5_-_copie_2"><path id="XMLID_14_" class="st12" d="M244.2 88.6c.3 6 3.6 9.9 7.3 9.2 3.4-.7 6.1-5.4 6.2-10.8.1-5.7-2.7-10.5-6.5-10.4-4.1.2-7.3 5.7-7 12z"/><path id="XMLID_13_" class="st13" d="M256.4 90.1c0 1.8-.6 3.5-1.1 5.1-1 1.4-2.3 2.4-3.8 2.7-3.6.7-7-3.3-7.3-9.2-.2-4.1 1.1-7.9 3.2-10.1.2 0 .5-.1.7-.1 1.9-.1 3.8.3 5.1 1.8 1.4 1.6 2.6 3.5 3 6.1.2.9.2 2.6.2 3.7z"/><path id="XMLID_12_" class="st14" d="M244.2 88.6v-1.4c.9-2 2.4-3.3 4.1-3.4 1.6-.1 3.3-.3 4.2 1.4.7 1.3.8 4 .9 5.8 0 2.9-1.1 5.6-2.7 7-3.3 0-6.2-3.9-6.5-9.4z"/><path id="XMLID_11_" class="st11" d="M244.2 88.6c.3 6 3.6 9.9 7.3 9.2 3.4-.7 6.1-5.4 6.2-10.8.1-5.7-2.7-10.5-6.5-10.4-4.1.2-7.3 5.7-7 12z"/></g></g><g id="Calque_3_-_copie_2"><path id="XMLID_59_" class="st8" d="M62.5 39.9c31.3-7.5 75.4 20.5 63 57.4-6.5 19.3-38.5 30.4-50.9 32.6L73 131c-1.9 1.5-4.5 4.9-5.9 5.2-.9.2-2-.5-2.3-1.5-.3-.9-.6-2-.6-3.1v-1.2s-1.3 4.8-3 4c-1.7-.7-3.9-2.7-3.6-6.2 0 0-.6 4.2-3.6 3.1-2.9-1.1-2.5-5.9-2.5-5.9s-.4 4.7-2.8 3.6c-2.2-1-1.7-4.4-1.7-4.9v-.1.1c0 .2-.2.9-.4 1.6-.2.4-.4.9-.7 1.3-.4.5-1.1.5-1.7-.1-1.2-1.2-2-3-2-4.7v-1.9c-4.9-7-12.1-17-12.7-29.6-1-21.4 11.3-45.6 33-50.8z"/><path id="XMLID_58_" class="st9" d="M30.7 88.2c.7 16 10.4 30.8 24.3 36 17.4 6.5 60.9-7.6 68.6-31.7 10.2-31.9-32.8-54.3-61.4-48.3-20.5 4.2-32.3 25-31.5 44z"/><path id="XMLID_57_" class="st10" d="M32.2 85c.5 15.1 9.9 28.9 23.2 33.2 16.6 5.4 58.5-9.1 65.1-31.6C129.1 57.7 88 38.7 62 44.1 43.1 48.2 31.6 67.3 32.2 85z"/><path id="XMLID_56_" class="st7" d="M77.7 62.7c3.9 3 9 2.6 11.5-1.2 2.6-4 1.2-10.1-3.2-13.2-4.3-3-9.5-1.9-11.6 2.2-1.9 3.9-.5 9.2 3.3 12.2z"/><g id="Calque_7_-_copie_3_1_"><path id="XMLID_55_" class="st11" d="m54.3 105.3-.3 1.6v.6l.1 1.2c0 .6-.5.9-1 .8l-.7-.3c-.5-.2-1-.4-1.6-.4l-.7-.1c-.8-.2-1.1-1.4-.5-1.9l1.2-.8c.2-.1.4-.3.6-.5l1.4-1.3c.7-.6 1.6.2 1.5 1.1z"/><path id="XMLID_49_" class="st12" d="m54.3 105.3-.3 1.6v.6l.1 1.2c0 .6-.5.9-1 .8l-.7-.3c-.5-.2-1-.4-1.6-.4l-.7-.1c-.8-.2-1.1-1.4-.5-1.9l1.2-.8c.2-.1.4-.3.6-.5l1.4-1.3c.7-.6 1.6.2 1.5 1.1z"/><path id="XMLID_44_" class="st13" d="m52.4 109.2.7.3c.5.1.9-.2 1-.8l-.1-1.2v-.6l.2-1c-.7.5-.9 1.7-1.8 2.1-.9.4-2.4 0-3 .2.1.3.4.5.7.6l.7.1c.6-.1 1.1.1 1.6.3z"/></g><g id="Calque_7_-_copie_3"><path id="XMLID_98_" class="st11" d="M58.9 106.4v1.7c0 .2 0 .4-.1.6l-.3 1.2c-.1.6.3 1.2.8 1.3l.8.1c.6.1 1.2.2 1.8.5l.8.3c.9.2 1.5-.9.9-1.7l-1.3-1.6c-.2-.3-.4-.5-.6-.8l-1.2-2c-.4-.9-1.5-.6-1.6.4z"/><path id="XMLID_97_" class="st12" d="M58.9 106.4v1.7c0 .2 0 .4-.1.6l-.3 1.2c-.1.6.3 1.2.8 1.3l.8.1c.6.1 1.2.2 1.8.5l.8.3c.9.2 1.5-.9.9-1.7l-1.3-1.6c-.2-.3-.4-.5-.6-.8l-1.2-2c-.4-.9-1.5-.6-1.6.4z"/><path id="XMLID_96_" class="st13" d="m60.2 111.3-.8-.1c-.5-.1-.9-.7-.8-1.3l.3-1.2c0-.2.1-.4.1-.6V107c.6.9.6 2.2 1.5 3 .9.9 2.7 1.3 3.3 1.9-.2.2-.5.3-.9.3l-.8-.3c-.7-.4-1.3-.5-1.9-.6z"/></g><g id="Calque_5_-_copie_3_1_"><path id="XMLID_23_" class="st12" d="M68.3 90.7c-.9 6.7 2.5 12.7 8.1 13.7 5.9 1.2 12.6-3.6 14.5-11.2 2.1-8.2-2.3-15.5-9.3-15.7-6.6-.1-12.3 6-13.3 13.2z"/><path id="XMLID_20_" class="st13" d="M87.2 96.8c-.6 2.5-2.3 4.5-3.7 6.3-2.3 1.3-4.8 1.8-7.2 1.3-5.5-1.1-9-7-8.1-13.7.7-4.7 3.3-8.8 6.8-11.2h1.1c3 .1 6.1.8 8 3 2.1 2.4 3.9 5.4 3.9 9.2.2 1.4-.5 3.7-.8 5.1z"/><path id="XMLID_16_" class="st14" d="m68.3 90.7.3-1.5c1.7-2 4-3.3 6.5-3.1 2.5.2 5.4.4 6.5 2.8.9 1.9.4 5.5-.1 7.8-.8 3.8-3.4 6.6-6.4 7.4-4.8-1.7-7.7-7.2-6.8-13.4z"/><path id="XMLID_15_" class="st11" d="M68.3 90.7c-.9 6.7 2.5 12.7 8.1 13.7 5.9 1.2 12.6-3.6 14.5-11.2 2.1-8.2-2.3-15.5-9.3-15.7-6.6-.1-12.3 6-13.3 13.2z"/></g><g id="Calque_5_-_copie_3"><path id="XMLID_61_" class="st12" d="M49.9 88.6c-.3 6-3.6 9.9-7.3 9.2-3.4-.7-6.1-5.4-6.2-10.8-.1-5.7 2.7-10.5 6.5-10.4 4.1.2 7.3 5.7 7 12z"/><path id="XMLID_60_" class="st13" d="M37.8 90.1c0 1.8.6 3.5 1.1 5.1 1 1.4 2.3 2.4 3.8 2.7 3.6.7 7-3.3 7.3-9.2.2-4.1-1.1-7.9-3.2-10.1-.2 0-.5-.1-.7-.1-1.9-.1-3.8.3-5.1 1.8-1.4 1.6-2.6 3.5-3 6.1-.3.9-.2 2.6-.2 3.7z"/><path id="XMLID_43_" class="st14" d="M49.9 88.6v-1.4c-.9-2-2.4-3.3-4.1-3.4-1.6-.1-3.3-.3-4.2 1.4-.7 1.3-.8 4-.9 5.8 0 2.9 1.1 5.6 2.7 7 3.3 0 6.2-3.9 6.5-9.4z"/><path id="XMLID_35_" class="st11" d="M49.9 88.6c-.3 6-3.6 9.9-7.3 9.2-3.4-.7-6.1-5.4-6.2-10.8-.1-5.7 2.7-10.5 6.5-10.4 4.1.2 7.3 5.7 7 12z"/></g></g><g id="Calque_3"><path id="XMLID_24_" class="st8" d="M147.2 10.4c-31.9 0-57.8 25.9-57.8 57.8 0 22 14.4 36.8 30.4 46.7v4.3c0 2.8 1.4 5.4 3.5 6.9 1.4 1.1 3.4.6 4.2-1 .7-1.4 1.4-3.2 1.8-5 .1-.7.2-1.4.2-2.1 0 0 1 9.3 4.2 9.3s7.8-1.9 7.8-8.5c0 0 .4 8.2 6.4 8.5 6 .3 5.9-9.3 5.9-9.3s.1 9.2 5.5 9.1c5.1-.1 4.3-7.3 4.2-8.2v-.1.1c.1.4.3 1.8.8 3.6.3 1 .8 2.2 1.4 3.2.8 1.4 2.5 2 3.9 1.3 3-1.4 5.1-4.4 5.1-7.9v-3.8c12.1-10.2 30.4-25.2 30.4-47.2-.2-31.8-26-57.7-57.9-57.7z"/><ellipse id="XMLID_4_" class="st9" cx="147.2" cy="63.8" rx="54.7" ry="49.8"/><ellipse id="XMLID_21_" class="st10" cx="147.2" cy="58.6" rx="50.5" ry="44.6"/><ellipse id="XMLID_22_" transform="rotate(59.735 129.217 29.475)" class="st7" cx="129.2" cy="29.5" rx="7" ry="10.9"/><g id="Calque_7"><path id="XMLID_10_" class="st11" d="m151.2 83.4.3 2.4v.9l-.3 1.8c0 .9.7 1.6 1.6 1.6l1.3-.2c1-.1 2-.1 3 0l1.3.2c1.5 0 2.2-1.8 1.1-2.9l-2.3-1.8c-.4-.3-.7-.6-1.1-1l-2.3-2.5c-.9-.7-2.6.1-2.6 1.5z"/><path id="XMLID_5_" class="st12" d="m151.2 83.4.3 2.4v.9l-.3 1.8c0 .9.7 1.6 1.6 1.6l1.3-.2c1-.1 2-.1 3 0l1.3.2c1.5 0 2.2-1.8 1.1-2.9l-2.3-1.8c-.4-.3-.7-.6-1.1-1l-2.3-2.5c-.9-.7-2.6.1-2.6 1.5z"/><path id="XMLID_25_" class="st13" d="m154.1 90.1-1.3.2c-.9 0-1.6-.7-1.6-1.6l.3-1.8c0-.3.1-.6 0-.9l-.2-1.6c1.2 1 1.4 2.9 2.9 3.8 1.6 1 4.5.9 5.6 1.5-.3.4-.7.7-1.3.7l-1.3-.2c-1.1-.3-2.1-.3-3.1-.1z"/></g><g id="Calque_7_-_copie"><path id="XMLID_37_" class="st11" d="m143.1 83.4-.3 2.4v.9l.3 1.8c0 .9-.7 1.6-1.6 1.6l-1.3-.2c-1-.1-2-.1-3 0l-1.3.2c-1.5 0-2.2-1.8-1.1-2.9l2.3-1.8c.4-.3.7-.6 1.1-1l2.3-2.5c.9-.7 2.6.1 2.6 1.5z"/><path id="XMLID_36_" class="st12" d="m143.1 83.4-.3 2.4v.9l.3 1.8c0 .9-.7 1.6-1.6 1.6l-1.3-.2c-1-.1-2-.1-3 0l-1.3.2c-1.5 0-2.2-1.8-1.1-2.9l2.3-1.8c.4-.3.7-.6 1.1-1l2.3-2.5c.9-.7 2.6.1 2.6 1.5z"/><path id="XMLID_27_" class="st13" d="m140.1 90.1 1.3.2c.9 0 1.6-.7 1.6-1.6l-.3-1.8c0-.3-.1-.6 0-.9l.2-1.6c-1.2 1-1.4 2.9-2.9 3.8-1.6 1-4.5.9-5.6 1.5.3.4.7.7 1.3.7l1.3-.2c1.1-.3 2.1-.3 3.1-.1z"/></g><g id="Calque_5"><ellipse id="XMLID_2_" class="st12" cx="118.4" cy="61" rx="13.5" ry="14.9"/><path id="XMLID_29_" class="st13" d="M107.8 65.2c0 2.7 1.3 5.3 2.4 7.6 2.3 1.9 5.1 3.1 8.3 3.1 7.5 0 13.5-6.7 13.5-14.9 0-5.4-2.6-10.1-6.5-12.7-.4 0-.9-.1-1.3-.1-3.5 0-7.1.6-9.7 2.7-2.8 2.2-5.4 5.1-6.3 8.8-.5 1.4-.4 4-.4 5.5z"/><path id="XMLID_31_" class="st14" d="M132 61c0-.6 0-1.2-.1-1.8-1.8-2.5-4.6-4-7.7-4-3 0-6.4 0-8.2 2.3-1.5 1.9-1.7 5.8-1.7 8.4 0 4.4 2.4 8.2 5.9 9.8 6.6-.8 11.8-7.1 11.8-14.7z"/><ellipse id="XMLID_1_" class="st11" cx="118.4" cy="61" rx="13.5" ry="14.9"/></g><g id="Calque_5_-_copie"><ellipse id="XMLID_32_" class="st12" cx="174.4" cy="61" rx="13.5" ry="14.9"/><path id="XMLID_30_" class="st13" d="M185.1 65.2c0 2.7-1.3 5.3-2.4 7.6-2.3 1.9-5.1 3.1-8.3 3.1-7.5 0-13.5-6.7-13.5-14.9 0-5.4 2.6-10.1 6.5-12.7.4 0 .9-.1 1.3-.1 3.5 0 7.1.6 9.7 2.7 2.8 2.2 5.4 5.1 6.3 8.8.5 1.4.4 4 .4 5.5z"/><path id="XMLID_28_" class="st14" d="M160.9 61c0-.6 0-1.2.1-1.8 1.8-2.5 4.6-4 7.7-4 3 0 6.4 0 8.2 2.3 1.5 1.9 1.7 5.8 1.7 8.4 0 4.4-2.4 8.2-5.9 9.8-6.6-.8-11.8-7.1-11.8-14.7z"/><ellipse id="XMLID_26_" class="st11" cx="174.4" cy="61" rx="13.5" ry="14.9"/></g></g></svg>