<?xml version="1.0" encoding="utf-8"?>
<!-- Generator: Adobe Illustrator 19.0.0, SVG Export Plug-In . SVG Version: 6.00 Build 0)  -->
<svg version="1.0" id="圖層_1" xmlns="http://www.w3.org/2000/svg" xmlns:xlink="http://www.w3.org/1999/xlink" x="0px" y="0px" width="300px" height="260px"
	 viewBox="0 0 300 260" style="enable-background:new 0 0 300 260;" xml:space="preserve">
<style type="text/css">
	.st0{fill:#CCBC5C;}
	.st1{opacity:0.58;fill:#3B2416;enable-background:new    ;}
	.st2{opacity:0.12;enable-background:new    ;}
	.st3{fill:#1F64AF;}
	.st4{opacity:0.75;fill:url(#XMLID_2_);enable-background:new    ;}
	.st5{opacity:0.34;fill:#F1F2F2;enable-background:new    ;}
	.st6{fill:none;stroke:#414042;stroke-width:3;stroke-miterlimit:10;}
	.st7{fill:#6D6E71;}
	.st8{opacity:0.61;fill:#E6E7E8;enable-background:new    ;}
	.st9{opacity:0.3;fill:#FFFFFF;enable-background:new    ;}
	.st10{opacity:0.52;fill:url(#XMLID_3_);enable-background:new    ;}
	.st11{opacity:0.18;fill:#FFFFFF;enable-background:new    ;}
</style>
<g id="water6">
	<path id="XMLID_312_" class="st0" d="M208.5,22.8C152-9.8,79.7,9.6,47.1,66.1S33.8,194.9,90.3,227.5c16.9,9.7,35.1,14.8,53.3,15.7
		l0,0c0,0,50.2,2.6,78.1,7.8c7.2,1.4,7.9-9.9,10.9-8.2l61.7-103.9c-2.2-1.3,7-6.5,3.7-10.1c-18.3-19.8-49.3-67.7-49.3-67.7l0,0
		C238.9,45.8,225.3,32.6,208.5,22.8z"/>
	<path id="XMLID_311_" class="st1" d="M205.2,29.5C152.2-1.1,84.4,17,53.9,70S41.4,190.7,94.4,221.3c15.8,9.1,32.9,13.9,50,14.7l0,0
		c0,0,47.1,2.4,73.3,7.3c6.7,1.3,7.9,0.4,10.7,2l66-109.4c-2.1-1.2-2.1-3.8-5.3-7.1c-17.2-18.6-46.2-63.4-46.2-63.4l0,0
		C233.7,51,221,38.6,205.2,29.5z"/>
	<path id="XMLID_310_" class="st2" d="M206.3,26.9C152-4.4,82.6,14.2,51.2,68.5S38.5,192.2,92.8,223.6c16.2,9.4,33.8,14.3,51.2,15.1
		l0,0c0,0,48.3,2.5,75.1,7.5c6.9,1.3,8.1,0.4,11,2L297.8,136c-2.1-1.3-2.2-3.8-5.4-7.3c-17.6-19-47.4-65-47.4-65l0,0
		C235.6,49,222.5,36.3,206.3,26.9z"/>
	<path id="XMLID_309_" class="st3" d="M204.4,31.7C152.6,1.8,86.3,19.6,56.3,71.4S44.2,189.6,96,219.5c15.5,8.9,32.2,13.6,48.9,14.4
		l0,0c0,0,72.8,3.7,86.3,11.4l63.2-109.4c-13.4-7.8-53-69-53-69l0,0C232.3,52.9,219.9,40.7,204.4,31.7z"/>
	
		<radialGradient id="XMLID_2_" cx="121.1018" cy="133.9987" r="82.3643" gradientTransform="matrix(-1 0 0 1 272.2018 -9.8987)" gradientUnits="userSpaceOnUse">
		<stop  offset="0" style="stop-color:#1B1A52"/>
		<stop  offset="0.3593" style="stop-color:#1A1950;stop-opacity:0.6407"/>
		<stop  offset="0.6341" style="stop-color:#17184B;stop-opacity:0.3659"/>
		<stop  offset="0.8802" style="stop-color:#101542;stop-opacity:0.1198"/>
		<stop  offset="1" style="stop-color:#0B123D;stop-opacity:0"/>
	</radialGradient>
	<path id="XMLID_308_" class="st4" d="M68.7,126.2c-1.2-46.1,35.7-84.4,82.4-84.4s83.6,38.3,82.4,84.4c-1.2,44.8-38,80.2-82.4,80.2
		S69.8,171,68.7,126.2z"/>
	<g id="圖層_2_拷貝_3">
		<ellipse id="XMLID_153_" class="st5" cx="207.9" cy="167.4" rx="5.9" ry="2.9"/>
		<ellipse id="XMLID_152_" class="st5" cx="179.5" cy="153.6" rx="4" ry="2.2"/>
		<ellipse id="XMLID_151_" class="st5" cx="134.5" cy="162.3" rx="4" ry="2.2"/>
		<ellipse id="XMLID_150_" class="st5" cx="121.1" cy="128.2" rx="4" ry="2.2"/>
		<ellipse id="XMLID_149_" class="st5" cx="166.9" cy="117" rx="4" ry="2.2"/>
		<ellipse id="XMLID_148_" class="st5" cx="191" cy="105.6" rx="2.6" ry="1.2"/>
		<ellipse id="XMLID_147_" class="st5" cx="136.1" cy="94" rx="4" ry="2.2"/>
		<ellipse id="XMLID_145_" class="st5" cx="202" cy="81" rx="4" ry="2.2"/>
	</g>
	<g id="圖層_13_拷貝_2">
		<path id="XMLID_185_" class="st6" d="M223.4,17c0,0,1.1,0.7,0.9,2.3c-0.2,1.8-1.7,6.7-1.9,7.5c0,0.1,0,0.1,0,0.2
			c0,0.4-0.4,1.9-3,2.5c-2.1,0.4-4.1,1-5.2,1.4c-0.7,0.2-1.4,0-1.9-0.5c-0.1-0.1-0.2-0.2-0.2-0.3c-0.9-1-5-6.7-6-7.9
			c-0.1-0.1-0.2-0.2-0.3-0.3c-0.3-0.3-1.1-1,0-2.5c1.4-1.8,3-3.5,3-3.5s0.6-0.8,1.5-1s8.2,0.4,9.1,0.5c0.1,0,0.1,0,0.2,0
			C219.8,15.4,221.1,15.4,223.4,17z"/>
		<path id="XMLID_182_" class="st7" d="M223.4,17c0,0,1.1,0.7,0.9,2.3c-0.2,1.8-1.7,6.7-1.9,7.5c0,0.1,0,0.1,0,0.2
			c0,0.4-0.4,1.9-3,2.5c-2.1,0.4-4.1,1-5.2,1.4c-0.7,0.2-1.4,0-1.9-0.5c-0.1-0.1-0.2-0.2-0.2-0.3c-0.9-1-5-6.7-6-7.9
			c-0.1-0.1-0.2-0.2-0.3-0.3c-0.3-0.3-1.1-1,0-2.5c1.4-1.8,3-3.5,3-3.5s0.6-0.8,1.5-1s8.2,0.4,9.1,0.5c0.1,0,0.1,0,0.2,0
			C219.8,15.4,221.1,15.4,223.4,17z"/>
		<path id="XMLID_176_" class="st8" d="M215.3,19.1l-0.1,2.1c0,0,0,0.4-0.5,0.5c-0.4,0.1-3.8,0-3.8,0L215,22c0,0,0.3,0.1,1.2,0.8
			c0.9,0.7,1.8,1.4,1.8,1.4s-2.5-1.9-2.5-2.4C215.5,21.2,215.3,19.1,215.3,19.1z"/>
		<path id="XMLID_162_" class="st9" d="M218.8,15.3c-0.7-0.1-1.9-0.2-3.1-0.2l0,0c-0.1,0-0.2,0-0.3,0l0,0l-0.1,0.2l0.2,6.7l6.7,5.6
			c0-0.1,0.1-0.1,0.1-0.2l0,0c0-0.1,0-0.1,0.1-0.2l0,0v-0.1l0,0V27c0-0.1,0-0.1,0-0.2c0.2-0.8,1.7-5.6,1.9-7.5
			c0.2-1.6-0.9-2.3-0.9-2.3c-2.3-1.6-3.6-1.6-3.9-1.6c-0.1,0-0.1,0-0.2,0C219.2,15.4,219.1,15.3,218.8,15.3L218.8,15.3z"/>
		
			<linearGradient id="XMLID_3_" gradientUnits="userSpaceOnUse" x1="-132.7249" y1="-32.5276" x2="-132.7249" y2="-41.1107" gradientTransform="matrix(-0.5665 0.8241 0.8241 0.5665 167.2847 148.6577)">
			<stop  offset="0" style="stop-color:#FFFFFF"/>
			<stop  offset="3.264958e-002" style="stop-color:#FFFFFF;stop-opacity:0.9674"/>
			<stop  offset="1" style="stop-color:#FFFFFF;stop-opacity:0"/>
		</linearGradient>
		<path id="XMLID_161_" class="st10" d="M215.4,21v-0.9c0,0-0.1-4-0.1-4.6c0-0.2-0.1-0.3-0.2-0.4c-2.2-0.2-4.4-0.3-4.9-0.2
			s-1,0.4-1.2,0.6l0,0c0,0-0.2,3.1-0.4,4.4c-0.1,1.3,0.5,1.8,0.5,1.8s4.3,0.2,5.3,0.2S215.4,21,215.4,21z"/>
		<path id="XMLID_160_" class="st11" d="M207.8,22.9c0,0,0,0.2-0.1,0.3c-0.2,0.1-0.3,0.1-0.2,0c0-0.1,0.1-0.3,0.2-0.4
			C207.8,22.8,207.8,22.9,207.8,22.9z"/>
		<path id="XMLID_157_" class="st11" d="M207.9,19.7c0,0-0.1,0.1-0.3,0s-0.2-0.2-0.1-0.2c0.1,0,0.3-0.1,0.4,0
			C208,19.6,207.9,19.7,207.9,19.7z"/>
		<path id="XMLID_155_" class="st11" d="M214.5,28.6c0,0,0.1,0.2,0,0.3c-0.1,0.1-0.2,0.2-0.2,0.1S214.3,28.7,214.5,28.6
			C214.5,28.5,214.5,28.6,214.5,28.6z"/>
		<path id="XMLID_154_" class="st11" d="M215.6,22.6v0.1h-0.1C215.5,22.7,215.5,22.6,215.6,22.6C215.5,22.6,215.6,22.6,215.6,22.6z"
			/>
	</g>
</g>
</svg>
