<?xml version="1.0" encoding="utf-8"?>
<!-- Generator: Adobe Illustrator 19.0.0, SVG Export Plug-In . SVG Version: 6.00 Build 0)  -->
<svg version="1.1" xmlns="http://www.w3.org/2000/svg" xmlns:xlink="http://www.w3.org/1999/xlink" x="0px" y="0px" width="1000px" height="1000px"
	 viewBox="0 0 1000 1000" style="enable-background:new 0 0 1000 1000;" xml:space="preserve">
<style type="text/css">
	.st0{fill:url(#XMLID_2_);}
	.st1{fill:url(#XMLID_3_);}
	.st2{fill:url(#XMLID_4_);}
	.st3{fill:url(#XMLID_5_);}
	.st4{fill:url(#XMLID_6_);}
	.st5{fill:url(#XMLID_7_);}
	.st6{fill:url(#XMLID_8_);}
	.st7{fill:url(#XMLID_9_);}
	.st8{fill:url(#XMLID_10_);}
	.st9{fill:url(#XMLID_11_);}
	.st10{fill:url(#XMLID_12_);}
	.st11{fill:url(#XMLID_13_);}
	.st12{fill:url(#XMLID_14_);}
	.st13{fill:url(#XMLID_15_);}
	.st14{fill:url(#XMLID_16_);}
	.st15{fill:url(#XMLID_17_);}
	.st16{fill:url(#XMLID_18_);}
	.st17{fill:url(#XMLID_19_);}
	.st18{fill:url(#XMLID_20_);}
	.st19{fill:url(#XMLID_21_);}
</style>
<g id="Calque_9">
	<g id="圖層_10_拷貝_3_3_">
		
			<linearGradient id="XMLID_2_" gradientUnits="userSpaceOnUse" x1="197.7457" y1="577.485" x2="197.7457" y2="532.31" gradientTransform="matrix(1 0 0 -1 0 1000.11)">
			<stop  offset="0" style="stop-color:#8FC044"/>
			<stop  offset="0.1447" style="stop-color:#89BF45"/>
			<stop  offset="0.3381" style="stop-color:#7ABA48"/>
			<stop  offset="0.559" style="stop-color:#59B24B"/>
			<stop  offset="0.7984" style="stop-color:#25A94F"/>
			<stop  offset="1" style="stop-color:#08A651"/>
		</linearGradient>
		<path id="XMLID_44_" class="st0" d="M197.7,422.6c2.9,2,3.1,8.6,4.1,15.8c1.8,10.6-7.3,27.6-8.3,29.4c0.7-5.1,4.9-13.2,3.2-22
			C194.8,435.7,200.6,427.3,197.7,422.6z"/>
		
			<linearGradient id="XMLID_3_" gradientUnits="userSpaceOnUse" x1="210.6782" y1="581.2975" x2="210.6782" y2="532.31" gradientTransform="matrix(1 0 0 -1 0 1000.11)">
			<stop  offset="0" style="stop-color:#8FC044"/>
			<stop  offset="0.1447" style="stop-color:#89BF45"/>
			<stop  offset="0.3381" style="stop-color:#7ABA48"/>
			<stop  offset="0.559" style="stop-color:#59B24B"/>
			<stop  offset="0.7984" style="stop-color:#25A94F"/>
			<stop  offset="1" style="stop-color:#08A651"/>
		</linearGradient>
		<path id="XMLID_43_" class="st1" d="M198.1,467.8c0,0,19.7-42.3,25.1-49c0.3,15.3-10,25.6-12.6,32.3S198.1,467.8,198.1,467.8z"/>
		
			<linearGradient id="XMLID_4_" gradientUnits="userSpaceOnUse" x1="222.7312" y1="557.3799" x2="222.7312" y2="527.897" gradientTransform="matrix(1 0 0 -1 0 1000.11)">
			<stop  offset="0" style="stop-color:#8FC044"/>
			<stop  offset="0.1447" style="stop-color:#89BF45"/>
			<stop  offset="0.3381" style="stop-color:#7ABA48"/>
			<stop  offset="0.559" style="stop-color:#59B24B"/>
			<stop  offset="0.7984" style="stop-color:#25A94F"/>
			<stop  offset="1" style="stop-color:#08A651"/>
		</linearGradient>
		<path id="XMLID_42_" class="st2" d="M204.4,472.2c0,0,8-20.2,17.2-25.3c8.3-5.9,19.4-3.9,19.4-3.9s-9.7,0.9-17.8,7.6
			C216.4,456.2,209.1,461.4,204.4,472.2z"/>
		
			<linearGradient id="XMLID_5_" gradientUnits="userSpaceOnUse" x1="225.1937" y1="542.6598" x2="225.1937" y2="523.7073" gradientTransform="matrix(1 0 0 -1 0 1000.11)">
			<stop  offset="0" style="stop-color:#8FC044"/>
			<stop  offset="0.1447" style="stop-color:#89BF45"/>
			<stop  offset="0.3381" style="stop-color:#7ABA48"/>
			<stop  offset="0.559" style="stop-color:#59B24B"/>
			<stop  offset="0.7984" style="stop-color:#25A94F"/>
			<stop  offset="1" style="stop-color:#08A651"/>
		</linearGradient>
		<path id="XMLID_41_" class="st3" d="M209.7,476.4c0,0,4.7-15,11.3-18s19.7,1.6,19.7,1.6s-16-2.5-19.7,2.4
			C217.6,467.1,209.7,476.4,209.7,476.4z"/>
	</g>
</g>
<g id="Calque_9_-_copie">
	<g id="圖層_10_拷貝_3_5_">
		
			<linearGradient id="XMLID_6_" gradientUnits="userSpaceOnUse" x1="394.9457" y1="790.985" x2="394.9457" y2="745.81" gradientTransform="matrix(1 0 0 -1 0 1000.11)">
			<stop  offset="0" style="stop-color:#8FC044"/>
			<stop  offset="0.1447" style="stop-color:#89BF45"/>
			<stop  offset="0.3381" style="stop-color:#7ABA48"/>
			<stop  offset="0.559" style="stop-color:#59B24B"/>
			<stop  offset="0.7984" style="stop-color:#25A94F"/>
			<stop  offset="1" style="stop-color:#08A651"/>
		</linearGradient>
		<path id="XMLID_68_" class="st4" d="M394.9,209.1c2.9,2,3.1,8.6,4.1,15.8c1.8,10.6-7.3,27.6-8.3,29.4c0.7-5.1,4.9-13.2,3.2-21.9
			C392,222.2,397.8,213.8,394.9,209.1z"/>
		
			<linearGradient id="XMLID_7_" gradientUnits="userSpaceOnUse" x1="407.8782" y1="794.7975" x2="407.8782" y2="745.81" gradientTransform="matrix(1 0 0 -1 0 1000.11)">
			<stop  offset="0" style="stop-color:#8FC044"/>
			<stop  offset="0.1447" style="stop-color:#89BF45"/>
			<stop  offset="0.3381" style="stop-color:#7ABA48"/>
			<stop  offset="0.559" style="stop-color:#59B24B"/>
			<stop  offset="0.7984" style="stop-color:#25A94F"/>
			<stop  offset="1" style="stop-color:#08A651"/>
		</linearGradient>
		<path id="XMLID_67_" class="st5" d="M395.3,254.3c0,0,19.7-42.3,25.2-49c0.3,15.3-10,25.6-12.6,32.3
			C405.3,244.3,395.3,254.3,395.3,254.3z"/>
		
			<linearGradient id="XMLID_8_" gradientUnits="userSpaceOnUse" x1="419.9312" y1="770.8799" x2="419.9312" y2="741.397" gradientTransform="matrix(1 0 0 -1 0 1000.11)">
			<stop  offset="0" style="stop-color:#8FC044"/>
			<stop  offset="0.1447" style="stop-color:#89BF45"/>
			<stop  offset="0.3381" style="stop-color:#7ABA48"/>
			<stop  offset="0.559" style="stop-color:#59B24B"/>
			<stop  offset="0.7984" style="stop-color:#25A94F"/>
			<stop  offset="1" style="stop-color:#08A651"/>
		</linearGradient>
		<path id="XMLID_66_" class="st6" d="M401.6,258.7c0,0,8-20.2,17.2-25.3c8.3-5.9,19.4-3.9,19.4-3.9s-9.7,0.9-17.8,7.6
			C413.6,242.7,406.3,247.9,401.6,258.7z"/>
		
			<linearGradient id="XMLID_9_" gradientUnits="userSpaceOnUse" x1="422.3937" y1="756.1598" x2="422.3937" y2="737.2073" gradientTransform="matrix(1 0 0 -1 0 1000.11)">
			<stop  offset="0" style="stop-color:#8FC044"/>
			<stop  offset="0.1447" style="stop-color:#89BF45"/>
			<stop  offset="0.3381" style="stop-color:#7ABA48"/>
			<stop  offset="0.559" style="stop-color:#59B24B"/>
			<stop  offset="0.7984" style="stop-color:#25A94F"/>
			<stop  offset="1" style="stop-color:#08A651"/>
		</linearGradient>
		<path id="XMLID_65_" class="st7" d="M406.9,262.9c0,0,4.6-15,11.3-18s19.7,1.6,19.7,1.6s-16-2.5-19.7,2.4
			C414.8,253.6,406.9,262.9,406.9,262.9z"/>
	</g>
</g>
<g id="Calque_9_-_copie_2">
	<g id="圖層_10_拷貝_3_9_">
		
			<linearGradient id="XMLID_10_" gradientUnits="userSpaceOnUse" x1="553.7457" y1="443.585" x2="553.7457" y2="398.41" gradientTransform="matrix(1 0 0 -1 0 1000.11)">
			<stop  offset="0" style="stop-color:#8FC044"/>
			<stop  offset="0.1447" style="stop-color:#89BF45"/>
			<stop  offset="0.3381" style="stop-color:#7ABA48"/>
			<stop  offset="0.559" style="stop-color:#59B24B"/>
			<stop  offset="0.7984" style="stop-color:#25A94F"/>
			<stop  offset="1" style="stop-color:#08A651"/>
		</linearGradient>
		<path id="XMLID_84_" class="st8" d="M553.7,556.5c2.9,2,3.1,8.6,4.1,15.8c1.8,10.6-7.3,27.6-8.3,29.4c0.7-5.1,4.9-13.2,3.2-22
			C550.8,569.6,556.6,561.2,553.7,556.5z"/>
		
			<linearGradient id="XMLID_11_" gradientUnits="userSpaceOnUse" x1="566.6782" y1="447.3975" x2="566.6782" y2="398.41" gradientTransform="matrix(1 0 0 -1 0 1000.11)">
			<stop  offset="0" style="stop-color:#8FC044"/>
			<stop  offset="0.1447" style="stop-color:#89BF45"/>
			<stop  offset="0.3381" style="stop-color:#7ABA48"/>
			<stop  offset="0.559" style="stop-color:#59B24B"/>
			<stop  offset="0.7984" style="stop-color:#25A94F"/>
			<stop  offset="1" style="stop-color:#08A651"/>
		</linearGradient>
		<path id="XMLID_83_" class="st9" d="M554.1,601.7c0,0,19.7-42.3,25.2-49c0.3,15.3-10,25.5-12.6,32.3
			C564.1,591.7,554.1,601.7,554.1,601.7z"/>
		
			<linearGradient id="XMLID_12_" gradientUnits="userSpaceOnUse" x1="578.7312" y1="423.4799" x2="578.7313" y2="393.9969" gradientTransform="matrix(1 0 0 -1 0 1000.11)">
			<stop  offset="0" style="stop-color:#8FC044"/>
			<stop  offset="0.1447" style="stop-color:#89BF45"/>
			<stop  offset="0.3381" style="stop-color:#7ABA48"/>
			<stop  offset="0.559" style="stop-color:#59B24B"/>
			<stop  offset="0.7984" style="stop-color:#25A94F"/>
			<stop  offset="1" style="stop-color:#08A651"/>
		</linearGradient>
		<path id="XMLID_82_" class="st10" d="M560.4,606.1c0,0,8-20.2,17.2-25.3c8.3-5.9,19.4-3.9,19.4-3.9s-9.7,0.9-17.8,7.6
			C572.4,590.1,565.1,595.3,560.4,606.1z"/>
		
			<linearGradient id="XMLID_13_" gradientUnits="userSpaceOnUse" x1="581.1937" y1="408.7598" x2="581.1937" y2="389.8073" gradientTransform="matrix(1 0 0 -1 0 1000.11)">
			<stop  offset="0" style="stop-color:#8FC044"/>
			<stop  offset="0.1447" style="stop-color:#89BF45"/>
			<stop  offset="0.3381" style="stop-color:#7ABA48"/>
			<stop  offset="0.559" style="stop-color:#59B24B"/>
			<stop  offset="0.7984" style="stop-color:#25A94F"/>
			<stop  offset="1" style="stop-color:#08A651"/>
		</linearGradient>
		<path id="XMLID_81_" class="st11" d="M565.7,610.3c0,0,4.7-15,11.3-18c6.6-3,19.7,1.6,19.7,1.6s-16-2.5-19.7,2.4
			C573.5,601,565.7,610.3,565.7,610.3z"/>
	</g>
</g>
<g id="Calque_9_-_copie_3">
	<g id="圖層_10_拷貝_3_13_">
		
			<linearGradient id="XMLID_14_" gradientUnits="userSpaceOnUse" x1="438.2457" y1="345.785" x2="438.2457" y2="300.61" gradientTransform="matrix(1 0 0 -1 0 1000.11)">
			<stop  offset="0" style="stop-color:#8FC044"/>
			<stop  offset="0.1447" style="stop-color:#89BF45"/>
			<stop  offset="0.3381" style="stop-color:#7ABA48"/>
			<stop  offset="0.559" style="stop-color:#59B24B"/>
			<stop  offset="0.7984" style="stop-color:#25A94F"/>
			<stop  offset="1" style="stop-color:#08A651"/>
		</linearGradient>
		<path id="XMLID_100_" class="st12" d="M438.2,654.3c2.9,2,3.1,8.6,4.1,15.8c1.8,10.6-7.3,27.6-8.3,29.4c0.7-5.1,4.9-13.2,3.2-22
			C435.3,667.5,441.1,659,438.2,654.3z"/>
		
			<linearGradient id="XMLID_15_" gradientUnits="userSpaceOnUse" x1="451.1782" y1="349.5974" x2="451.1782" y2="300.61" gradientTransform="matrix(1 0 0 -1 0 1000.11)">
			<stop  offset="0" style="stop-color:#8FC044"/>
			<stop  offset="0.1447" style="stop-color:#89BF45"/>
			<stop  offset="0.3381" style="stop-color:#7ABA48"/>
			<stop  offset="0.559" style="stop-color:#59B24B"/>
			<stop  offset="0.7984" style="stop-color:#25A94F"/>
			<stop  offset="1" style="stop-color:#08A651"/>
		</linearGradient>
		<path id="XMLID_99_" class="st13" d="M438.6,699.5c0,0,19.7-42.3,25.2-49c0.3,15.3-10,25.6-12.6,32.3
			C448.6,689.5,438.6,699.5,438.6,699.5z"/>
		
			<linearGradient id="XMLID_16_" gradientUnits="userSpaceOnUse" x1="463.2312" y1="325.6799" x2="463.2312" y2="296.1969" gradientTransform="matrix(1 0 0 -1 0 1000.11)">
			<stop  offset="0" style="stop-color:#8FC044"/>
			<stop  offset="0.1447" style="stop-color:#89BF45"/>
			<stop  offset="0.3381" style="stop-color:#7ABA48"/>
			<stop  offset="0.559" style="stop-color:#59B24B"/>
			<stop  offset="0.7984" style="stop-color:#25A94F"/>
			<stop  offset="1" style="stop-color:#08A651"/>
		</linearGradient>
		<path id="XMLID_98_" class="st14" d="M444.9,703.9c0,0,8-20.2,17.2-25.3c8.3-5.9,19.4-3.9,19.4-3.9s-9.7,0.9-17.8,7.6
			C456.9,687.9,449.6,693.1,444.9,703.9z"/>
		
			<linearGradient id="XMLID_17_" gradientUnits="userSpaceOnUse" x1="465.6937" y1="310.9598" x2="465.6937" y2="292.0072" gradientTransform="matrix(1 0 0 -1 0 1000.11)">
			<stop  offset="0" style="stop-color:#8FC044"/>
			<stop  offset="0.1447" style="stop-color:#89BF45"/>
			<stop  offset="0.3381" style="stop-color:#7ABA48"/>
			<stop  offset="0.559" style="stop-color:#59B24B"/>
			<stop  offset="0.7984" style="stop-color:#25A94F"/>
			<stop  offset="1" style="stop-color:#08A651"/>
		</linearGradient>
		<path id="XMLID_97_" class="st15" d="M450.2,708.1c0,0,4.6-15,11.3-18s19.7,1.6,19.7,1.6s-16-2.5-19.7,2.4
			C458,698.8,450.2,708.1,450.2,708.1z"/>
	</g>
</g>
<g id="Calque_9_-_copie_4">
	<g id="圖層_10_拷貝_3_17_">
		
			<linearGradient id="XMLID_18_" gradientUnits="userSpaceOnUse" x1="760.6457" y1="314.085" x2="760.6457" y2="268.91" gradientTransform="matrix(1 0 0 -1 0 1000.11)">
			<stop  offset="0" style="stop-color:#8FC044"/>
			<stop  offset="0.1447" style="stop-color:#89BF45"/>
			<stop  offset="0.3381" style="stop-color:#7ABA48"/>
			<stop  offset="0.559" style="stop-color:#59B24B"/>
			<stop  offset="0.7984" style="stop-color:#25A94F"/>
			<stop  offset="1" style="stop-color:#08A651"/>
		</linearGradient>
		<path id="XMLID_116_" class="st16" d="M760.6,686c2.9,2,3.1,8.6,4.1,15.8c1.8,10.6-7.3,27.6-8.3,29.4c0.7-5.1,4.9-13.1,3.2-21.9
			C757.7,699.1,763.5,690.7,760.6,686z"/>
		
			<linearGradient id="XMLID_19_" gradientUnits="userSpaceOnUse" x1="773.5782" y1="317.8975" x2="773.5782" y2="268.91" gradientTransform="matrix(1 0 0 -1 0 1000.11)">
			<stop  offset="0" style="stop-color:#8FC044"/>
			<stop  offset="0.1447" style="stop-color:#89BF45"/>
			<stop  offset="0.3381" style="stop-color:#7ABA48"/>
			<stop  offset="0.559" style="stop-color:#59B24B"/>
			<stop  offset="0.7984" style="stop-color:#25A94F"/>
			<stop  offset="1" style="stop-color:#08A651"/>
		</linearGradient>
		<path id="XMLID_115_" class="st17" d="M761,731.2c0,0,19.7-42.3,25.2-49c0.3,15.3-10,25.5-12.6,32.3
			C771,721.2,761,731.2,761,731.2z"/>
		
			<linearGradient id="XMLID_20_" gradientUnits="userSpaceOnUse" x1="785.6312" y1="293.9799" x2="785.6313" y2="264.4969" gradientTransform="matrix(1 0 0 -1 0 1000.11)">
			<stop  offset="0" style="stop-color:#8FC044"/>
			<stop  offset="0.1447" style="stop-color:#89BF45"/>
			<stop  offset="0.3381" style="stop-color:#7ABA48"/>
			<stop  offset="0.559" style="stop-color:#59B24B"/>
			<stop  offset="0.7984" style="stop-color:#25A94F"/>
			<stop  offset="1" style="stop-color:#08A651"/>
		</linearGradient>
		<path id="XMLID_114_" class="st18" d="M767.3,735.6c0,0,8-20.2,17.2-25.3c8.3-5.9,19.4-3.9,19.4-3.9s-9.7,0.9-17.8,7.6
			C779.3,719.6,772,724.8,767.3,735.6z"/>
		
			<linearGradient id="XMLID_21_" gradientUnits="userSpaceOnUse" x1="788.0938" y1="279.2598" x2="788.0938" y2="260.3073" gradientTransform="matrix(1 0 0 -1 0 1000.11)">
			<stop  offset="0" style="stop-color:#8FC044"/>
			<stop  offset="0.1447" style="stop-color:#89BF45"/>
			<stop  offset="0.3381" style="stop-color:#7ABA48"/>
			<stop  offset="0.559" style="stop-color:#59B24B"/>
			<stop  offset="0.7984" style="stop-color:#25A94F"/>
			<stop  offset="1" style="stop-color:#08A651"/>
		</linearGradient>
		<path id="XMLID_113_" class="st19" d="M772.6,739.8c0,0,4.7-15,11.3-18c6.6-3,19.7,1.6,19.7,1.6s-16-2.5-19.7,2.4
			C780.5,730.5,772.6,739.8,772.6,739.8z"/>
	</g>
</g>
</svg>
