<?xml version="1.0" encoding="utf-8"?>
<!-- Generator: Adobe Illustrator 19.0.0, SVG Export Plug-In . SVG Version: 6.00 Build 0)  -->
<svg version="1.0" id="Calque_7" xmlns="http://www.w3.org/2000/svg" xmlns:xlink="http://www.w3.org/1999/xlink" x="0px" y="0px" width="300px" height="260px"
	 viewBox="0 0 300 300" style="enable-background:new 0 0 300 300;" xml:space="preserve">
<style type="text/css">
	.st0{opacity:0.4;fill:#353535;}
	.st1{fill:#59452A;}
	.st2{opacity:0.75;fill:#8A6940;}
</style>
<g id="Calque_5">
	<path id="XMLID_27_" class="st0" d="M54.1,77c0,0,2.4-2.7,4-9.1s4.7-11.2,4.7-11.2l0.7-3c0,0,3.7-3.8,5.3-5.9
		c0.1-0.2,0.6,0.1,0.7-0.1c0,0,1.5,1.9-3.7,6.4l-2.8,6.5l5.5-1.8l3.4-4.5c0,0,2.9-2.4,4-3.7c0.1-0.1,0.6,0.1,0.6,0
		c0,0,1.9,0.6-3.5,4.7L69.2,60l-6.7,2.8l-1.8,4c0,0,0.7,4.2-2,7.7l8.6-2.3l16.6-12l0.3-7l2.4-12.1l2.8-6.5l5.6-5.9l0.7-0.1L91,35.2
		l-1.2,4.1c0,0,1.2-0.1,4-1.4c2-0.9,4-5.5,5.1-7.5c0.4-0.8,0.8-0.4,0.8-0.4s-0.2,5.2-4.6,8.5l-4.7,2.1l-2.8,6.6L85.9,58l2.5-1.6
		L98.2,41l2.3-3l8.7-7.4h0.6l-0.2,2.4l-8,6.1l-0.8,2.1l4.5,0.5l7.2-2.4l5.3-6h0.6l-4.4,5.9l2.8,0.9l-3.6,0.3l-7.4,2.6l-5.3-0.9
		l-9.9,16.1L70.2,74.7l-13.9,3.8l-13.8,8.1l2.4-4.5L54.1,77z"/>
	<path id="XMLID_26_" class="st1" d="M53.4,77c0,0,2.4-2.7,4-9.1c1.6-6.4,4.7-11.2,4.7-11.2l0.7-3c0,0,4.7-3.9,5.9-6
		c0,0,1.5,1.9-3.7,6.4l-2.8,6.5l5.5-1.8l3.4-4.5c0,0,4-2.5,4.7-3.7c0,0,1.9,0.6-3.5,4.7L68.6,60l-6.7,2.8l-1.8,4c0,0,0.7,4.2-2,7.7
		l8.6-2.3l16.6-12l0.3-7l2.4-12.1l2.8-6.5l6.3-6l-4.9,6.6l-1.2,4.1c0,0,1.2-0.1,4-1.4s5.9-7.9,5.9-7.9s-0.2,5.2-4.6,8.5l-4.7,2.1
		l-2.8,6.6L85.2,58l2.5-1.6L97.5,41l2.3-3l9.3-7.4l-0.2,2.4l-8,6.1l-0.8,2.1l4.5,0.5l7.2-2.4l5.9-6l-4.4,5.9l2.8,0.9l-3.6,0.3
		l-7.4,2.6l-5.3-0.9L90,58.2L69.6,74.7l-13.9,3.8l-13.8,8.1l2.4-4.5L53.4,77z"/>
	<g id="Calque_3">
		<path id="XMLID_4_" class="st2" d="M55.5,74.8c0,0,2.8-5.8,2.8-7.3c-0.1-2.1,3.5-9.8,3.5-9.8s0.1,0.7-0.5,2.1
			c-0.9,2.2-2.5,5.6-2.4,7c0.1,1.7-1.3,4.9-1.7,5.5C56.8,73.1,55.5,74.8,55.5,74.8z"/>
		<path id="XMLID_5_" class="st2" d="M57.9,77.2c0,0,12.2-4.2,12.9-5.5c1.9-3.2,7-6,7-6s0.1,0.6-1.1,1.4c-2,1.3-4.8,4.5-5.5,5.6
			c-0.9,1.4-5.4,2.3-6.2,2.5S57.9,77.2,57.9,77.2z"/>
		<path id="XMLID_1_" class="st2" d="M91.9,32.3c0,0-5.8,4.3-6.5,16.6C85.3,48.9,87.7,37,91.9,32.3z"/>
		<path id="XMLID_8_" class="st2" d="M95.5,45.9c0,0-0.5,7.1-10.4,14.7C85.1,60.6,93.8,52,95.5,45.9z"/>
		<path id="XMLID_7_" class="st2" d="M88.4,40.3c0,0,5.6-1,7.7-3.8C96.1,36.5,92.8,38.8,88.4,40.3z"/>
		<path id="XMLID_9_" class="st2" d="M100.6,42c0,0,5.6,1.2,8.6-0.7C109.2,41.3,105.3,42.3,100.6,42z"/>
		<path id="XMLID_10_" class="st2" d="M108.4,32c0,0-5.1,2.6-6.3,5.9C102.1,37.9,104.6,34.7,108.4,32z"/>
	</g>
</g>
<g id="Calque_4">
	<path id="XMLID_12_" class="st0" d="M80.1,88.8c0,0,9.9-4.2,11.1-4.1s5.7,0.3,5.7,0.3s4.2-2.9,7.1-2.8c2.9,0,7.2-0.5,7.2-0.5
		s4.2-1.2,5.5-0.7c0.8,0.3,3.3,1.5,4.5,2.3c0.8,0.6,0.6,0.9,0.6,0.9l-5.3-1.4c0,0-3.4-0.5-4.3,0.3c-0.9,0.8-3.3,0.1-3.3,0.1
		l-3.2,0.4c0,0,6.3,3,7.8,4.5c1.6,1.4,6.1,2.6,6.1,2.6s5,1.5,6.1,3.3s1.6,3.9,1.6,3.9s-1.7-2.8-3.6-3.6s-7.2-1.8-7.2-1.8
		s-3.8-2.6-6-3.7c-2.2-1-8.9-4.2-9.7-3.7c-0.8,0.5-3.8,1.3-3.8,1.3s-5.8,0.2-7.1,1c-1.3,0.8-7.8,2.7-7.8,2.7s6.7,3.9,10.9,4.8
		c3,0.6,6.5-0.1,8,0c0.7,0,0.7,0.9,0.7,0.9s-1.8,4.1-12.1,0.5c-10.4-3.6-21.7-11.1-21.7-11.1s0.1-0.3,0.4-0.3c1-0.1,3.2-0.1,5,0.4
		C75.5,86,80.1,88.8,80.1,88.8z"/>
	<path id="XMLID_11_" class="st1" d="M79.5,87.9c0,0,9.9-4.2,11.1-4.1c1.2,0.1,5.7,0.3,5.7,0.3s4.2-2.9,7.1-2.8
		c2.9,0,7.2-0.5,7.2-0.5s4.2-1.2,5.5-0.7c1.3,0.4,5.1,3.2,5.1,3.2l-5.3-1.4c0,0-3.4-0.5-4.3,0.3c-0.9,0.8-3.3,0.1-3.3,0.1l-3.2,0.4
		c0,0,6.3,3,7.8,4.5c1.6,1.4,6.1,2.6,6.1,2.6s5,1.5,6.1,3.3c1,1.8,1.6,3.9,1.6,3.9s-1.7-2.8-3.6-3.6c-1.9-0.7-7.2-1.8-7.2-1.8
		s-3.8-2.6-6-3.7c-2.2-1-8.9-4.2-9.7-3.7c-0.8,0.5-3.8,1.3-3.8,1.3s-5.8,0.2-7.1,1c-1.3,0.8-7.8,2.7-7.8,2.7s6.7,3.9,10.9,4.8
		s8.7,0.9,8.7,0.9s-1.8,4.1-12.1,0.5S68.1,85,68.1,85s2.1-1.1,4.5-0.5C74.9,85.1,79.5,87.9,79.5,87.9z"/>
	<path id="XMLID_14_" class="st2" d="M77.9,88.9c0,0,5.4-1,6.3-1.8c1.2-1.2,8.2-2.6,8.2-2.6s-0.4,0.4-1.6,0.8c-1.9,0.5-5,1.2-5.8,2
		c-1,1-3.8,1.7-4.5,1.7C79.8,88.9,77.9,88.9,77.9,88.9z"/>
	<path id="XMLID_15_" class="st2" d="M99.4,83.3c0,0,7.1-0.9,16.4,7.4C115.8,90.8,105.7,83.8,99.4,83.3z"/>
	<path id="XMLID_16_" class="st2" d="M98.6,96c0,0-6.9,1.8-17.3-5.2C81.4,90.8,92.3,96.4,98.6,96z"/>
</g>
<g id="Calque_4_-_copie">
	<path id="XMLID_17_" class="st0" d="M215.6,230.2c0,0-3.2-8.6-3.9-9.3s-3.5-3.4-3.5-3.4s-0.7-4.3-2.4-6.1c-1.7-1.8-3.9-4.8-3.9-4.8
		s-1.7-3.3-2.7-3.9c-0.6-0.3-2.9-1.2-4.1-1.5c-0.9-0.2-0.9,0.2-0.9,0.2l3.9,2.5c0,0,2.3,1.8,2.3,2.9s1.9,2.2,1.9,2.2l1.6,2.2
		c0,0-5.6-2.2-7.4-2.3c-1.8-0.1-5.2-2.3-5.2-2.3s-3.9-2.3-5.6-1.9c-1.7,0.4-3.4,1.3-3.4,1.3s2.8-0.6,4.4,0.2
		c1.6,0.8,5.3,3.5,5.3,3.5s3.9,0.9,5.8,1.7c2,0.8,7.9,3.1,8,3.9c0.2,0.8,1.4,3.1,1.4,3.1s3.3,3.8,3.5,5c0.3,1.3,2.8,6.5,2.8,6.5
		s-6.3-1.9-9.4-4c-2.1-1.5-3.7-4.1-4.7-5.1c-0.4-0.4-1,0.1-1,0.1s-1.5,3.5,6.8,7.9s19.7,7.2,19.7,7.2s0.1-0.2-0.1-0.5
		c-0.5-0.7-1.9-2.1-3.2-2.9C220.1,231.4,215.6,230.2,215.6,230.2z"/>
	<path id="XMLID_13_" class="st1" d="M216.5,230c0,0-3.2-8.6-3.9-9.3s-3.5-3.4-3.5-3.4s-0.7-4.3-2.4-6.1c-1.7-1.8-3.9-4.8-3.9-4.8
		s-1.7-3.3-2.7-3.9c-1-0.6-5-1.3-5-1.3l3.9,2.5c0,0,2.3,1.8,2.3,2.9c0,1,1.9,2.2,1.9,2.2l1.6,2.2c0,0-5.6-2.2-7.4-2.3
		c-1.8-0.1-5.2-2.3-5.2-2.3s-3.9-2.3-5.6-1.9c-1.7,0.4-3.4,1.3-3.4,1.3s2.8-0.6,4.4,0.2c1.6,0.8,5.3,3.5,5.3,3.5s3.9,0.9,5.8,1.7
		c2,0.8,7.9,3.1,8,3.9c0.2,0.8,1.4,3.1,1.4,3.1s3.3,3.8,3.5,5s2.8,6.5,2.8,6.5s-6.3-1.9-9.4-4c-3-2.1-5.7-5-5.7-5s-1.5,3.5,6.8,7.9
		s18.7,6.9,18.7,6.9s-0.5-2-2.3-3.1C221,231.2,216.5,230,216.5,230z"/>
	<path id="XMLID_6_" class="st2" d="M216.9,231.6c0,0-2.5-4-2.5-5c0-1.4-3.2-6.7-3.2-6.7s0,0.5,0.4,1.5c0.8,1.5,2.2,3.9,2.2,4.8
		c-0.1,1.2,1.2,3.4,1.6,3.8C215.8,230.4,216.9,231.6,216.9,231.6z"/>
	<path id="XMLID_3_" class="st2" d="M207.8,214.8c0,0-3.6-4.9-14.3-6C193.5,208.9,203.7,211.2,207.8,214.8z"/>
	<path id="XMLID_2_" class="st2" d="M200.2,222.7c0,0,2.9,5.4,13.4,7.8C213.6,230.5,203.7,226.9,200.2,222.7z"/>
</g>
</svg>
