<?xml version="1.0" encoding="utf-8"?>
<!-- Generator: Adobe Illustrator 19.0.0, SVG Export Plug-In . SVG Version: 6.00 Build 0)  -->
<svg version="1.0" id="Calque_7" xmlns="http://www.w3.org/2000/svg" xmlns:xlink="http://www.w3.org/1999/xlink" x="0px" y="0px" width="300px" height="300px"
	 viewBox="0 0 300 300" style="enable-background:new 0 0 300 300;" xml:space="preserve">
<style type="text/css">
	.st0{opacity:0.4;}
	.st1{fill:#98A9AF;}
	.st2{opacity:0.75;}
	.st3{fill:#9B9176;}
	.st4{fill:url(#XMLID_5_);stroke:#424142;stroke-width:2;stroke-miterlimit:10;}
	.st5{fill:url(#XMLID_6_);stroke:#424142;stroke-width:2;stroke-miterlimit:10;}
	.st6{fill:url(#XMLID_8_);stroke:#424142;stroke-width:2;stroke-miterlimit:10;}
	.st7{opacity:0.25;fill:#424142;}
	.st8{fill:none;stroke:#333333;stroke-width:3;stroke-miterlimit:10;}
	.st9{fill:#C9E9F4;}
	.st10{fill:#E4F4FA;}
	.st11{fill:#ECF8FD;}
	.st12{opacity:0.5;fill:#FFFFFF;}
	.st13{fill:url(#XMLID_9_);stroke:#424142;stroke-width:2;stroke-miterlimit:10;}
	.st14{fill:#E5F5FA;}
	.st15{fill:url(#XMLID_15_);stroke:#424142;stroke-width:2;stroke-miterlimit:10;}
	.st16{opacity:0.25;}
	.st17{fill:#424142;}
</style>
<g id="XMLID_17_" class="st0">
	<g id="XMLID_65_">
		<path id="XMLID_66_" class="st1" d="M135.9,163.4c3,6.4,5.8,14,11.4,18.8c5.7,4.9,13,6.2,20.6,5.7c2-0.5,4.3,1.2,6.2,0.7
			c1.9-0.5,2.7-2.9,4.2-4.4c4.4-4.4,11.2-6.7,16-10.9c4.8-4.3,7.3-10.1,8.8-16.6c3.5-12.9,2.3-27.1-4.8-38.1
			c-7.2-11.1-19.7-17.6-33.3-18.6c-8.2-1-15.8,0.1-21.8,5c-5.7,4.7-8.8,12.5-12.2,19.4c-2,4.5-4.4,8.8-4.2,13.6
			c0.2,4.8,3.2,9.3,4.2,13.8c0,0.5-1.2,1.9-0.7,2.4s2.7,0,2.7,0.5c0.5,1.5-1.2,3.6-0.8,5.1c0.4,1.5,2.7,2.1,3.6,3.6l-0.4,1.5
			C135.8,164.5,135.9,163.4,135.9,163.4z"/>
	</g>
</g>
<g id="XMLID_20_" class="st2">
	<g id="XMLID_67_">
		<path id="XMLID_77_" class="st3" d="M152.7,156.1c2.5,3,5,8,9.1,10c4.1,2,8.5,0.9,12.5-2.1c3.5-3,8.5-5.2,10.8-9.2
			c2.4-4,1.8-8.8,0.8-13.8c-1.5-5.5-3-11.9-7.4-15.9c-4.4-4.1-10.5-4.9-16.5-4.4c-1.9,0.5-4.3-1-6-0.3c-1.9,0.8-2.2,3.2-3.3,4.8
			c-1,1.9-3.9,2.6-5,4.3c-1.2,1.8-0.4,4.4-0.9,6.4c-1,4-2.1,7.7-0.7,11.1c1.4,3.4,5.2,5.8,6.7,9.3l-0.3,1.2
			C153,157.2,152.7,156.1,152.7,156.1z"/>
	</g>
</g>
<linearGradient id="XMLID_5_" gradientUnits="userSpaceOnUse" x1="134.1958" y1="143.4804" x2="177.8542" y2="143.4804">
	<stop  offset="0" style="stop-color:#59411F"/>
	<stop  offset="0.173" style="stop-color:#563F1D"/>
	<stop  offset="0.4231" style="stop-color:#4D3915"/>
	<stop  offset="0.7184" style="stop-color:#3D2E04"/>
	<stop  offset="1" style="stop-color:#261B00"/>
</linearGradient>
<path id="XMLID_19_" class="st4" d="M134.6,138.3c0,0-1.6-14.7,1.2-10.1c4.5,7.4,5.7,10.4,13,11.7c5.5,1,12.4-4.5,15-6.2
	c1.2-0.7,2.5-1.1,3.9-1c2.2,0.1,5.3,0.8,7,3.2c2.8,3.9,6.3,14.8-2.8,16.3c-9.2,1.5-12.3-1.8-13.7,3.3c-1.3,5.2-11.7,4.2-11.7,4.2
	l-9-11.2L134.6,138.3z"/>
<radialGradient id="XMLID_6_" cx="148.8474" cy="159.6216" r="42.7629" gradientUnits="userSpaceOnUse">
	<stop  offset="0" style="stop-color:#71532D"/>
	<stop  offset="0.3543" style="stop-color:#61492C"/>
	<stop  offset="0.7483" style="stop-color:#54412A"/>
	<stop  offset="1" style="stop-color:#4F3D2A"/>
</radialGradient>
<path id="XMLID_12_" class="st5" d="M108.6,157.5c0,0,22-2.3,23.3-8.3c1.3-6-9.5-34.7-9.5-34.7h20.4c0,0-9.4,25.7,6.1,35
	c15.4,9.3,40.2,3.7,40.2,3.7l-12.8,21.9c0,0-18.7-11.7-25-9.7c-6.3,2-12.3,39.3-12.3,39.3l-5.4-17.1c0,0,8.8-9.6,6.4-12.5
	c-2.8-3.4-7.6,0.9-8.8,0.5c-3.5-1.1-3.5-5.1-3.5-5.1s11.2-10.1,4.6-10.9c-6.7-0.8-12,2.2-12,2.2L108.6,157.5z"/>
<g id="Calque_5">
	<radialGradient id="XMLID_8_" cx="211.1768" cy="187.6773" r="61.5658" gradientUnits="userSpaceOnUse">
		<stop  offset="0" style="stop-color:#006838"/>
		<stop  offset="0.1984" style="stop-color:#006D3A"/>
		<stop  offset="0.4851" style="stop-color:#007B41"/>
		<stop  offset="0.8239" style="stop-color:#00944A"/>
		<stop  offset="1" style="stop-color:#00A651"/>
	</radialGradient>
	<path id="XMLID_16_" class="st6" d="M200.3,125.6c-2.1,0.2-3.2,2.7-3.4,4.8s0,4.4-1.3,6.1c-0.6,0.8-1.5,1.4-2.4,1.9
		c-4.2,2.5-9.4,5.8-8.9,10.8c0.1,0.8,0.3,1.6,0.1,2.3c-0.3,1.6-2.2,2.4-3.7,3c-2.1,0.9-4.2,2.1-5,4.2c-1.1,2.9,0.6,6.5-1.2,9.1
		c-1.5,2.2-4.7,2.2-7.3,1.6s-5.3-1.7-7.8-0.9c-2,0.6-3.6,2.3-4.1,4.3c-0.4,1.6-0.1,3.2,0.2,4.8c1,5.8,2.1,11.7,3.1,17.5
		c0.4,2.5,0.8,5.3-0.8,7.2c-0.4,0.5-0.9,0.9-1.2,1.5c-0.7,1.8,1.6,3.2,2.8,4.7c2.5,3,0.9,8,3.1,11.2c1,1.4,2.7,2.8,2,4.3
		c-0.3,0.7-0.9,1.1-1.3,1.7c-0.6,0.9-0.5,2-0.3,3c1.2,7.8,7,14.7,14.5,17.3c0.5,4.4,5.7,6.3,10,7c8.5,1.4,17.2,1.7,25.8,0.7
		c0.9-0.1,1.8-0.2,2.5-0.8c1-0.8,1.2-2.3,1.6-3.5c0.9-2.8,3.4-5,6.2-5.6c-0.7-1.9-1.3-3.9-0.7-5.8c0.3-0.9,1-1.7,1.6-2.4
		c3.8-4.7,7.7-9.4,12.8-12.6c2.8-1.7,6-3.2,7.3-6.2c0.4-1,0.5-2.1,1-3c0.9-1.6,2.7-2.5,4.3-3.4c4.1-2.2,7.8-4.9,11.2-8.1
		c1.8-1.7,3.7-3.8,3.7-6.4c0-1.9-1.1-3.7-0.9-5.6c0.1-1.1,0.6-2.1,1-3.2c1.7-4.2,1.8-8.8,1.9-13.3c0-1.1,0.1-2.3-0.2-3.4
		c-0.3-1-0.8-2-1.4-2.9c-3-4.8-6.6-9.4-7.3-15c-0.2-1.8-0.1-3.8-0.8-5.5c-1.7-4.1-7.2-5.3-9.2-9.2c-0.6-1.2-0.8-2.5-1.5-3.6
		c-3.1-5.3-12.6-2.2-16.6-6.8c-1-1.2-1.6-2.7-2.8-3.7c-1.1-0.8-2.5-1-3.8-1.2c-5.6-0.7-11.3-1.1-16.9-1.6c-1.4-0.1-2.8-0.2-4.1,0.4
		c-1.2,0.6-2.2,2.1-1.7,3.3"/>
	<path id="XMLID_35_" class="st7" d="M266.9,170.5c-0.3-1-0.8-2-1.4-2.9c-3-4.8-6.6-9.4-7.3-15c-0.2-1.8-0.1-3.8-0.8-5.5
		c-1.7-4.1-7.2-5.3-9.2-9.2c-0.6-1.2-0.8-2.5-1.5-3.6c-3.1-5.3-12.6-2.2-16.6-6.8c-1-1.2-1.6-2.7-2.8-3.7c-1.1-0.8-2.5-1-3.8-1.2
		c-5.6-0.7-11.3-1.1-16.9-1.6c-1.4-0.1-2.8-0.2-4.1,0.4c-0.2,0.1-0.3,0.2-0.4,0.3c0.5,0.2,1,0.4,1.4,0.7c1.2,0.9,1.8,2.5,2.8,3.7
		c4.1,4.7,13.5,1.5,16.6,6.8c0.7,1.1,0.9,2.4,1.5,3.6c2,3.9,7.5,5.2,9.2,9.2c0.7,1.7,0.6,3.6,0.8,5.5c0.7,5.6,4.3,10.2,7.3,15
		c0.6,0.9,1.1,1.9,1.4,2.9c0.3,1.1,0.3,2.3,0.2,3.4c-0.1,4.5-0.2,9.1-1.9,13.3c-0.4,1-0.9,2-1,3.2c-0.2,1.9,0.9,3.7,0.9,5.6
		c0,2.5-1.8,4.7-3.7,6.4c-3.4,3.1-7.1,5.9-11.2,8.1c-1.6,0.9-3.4,1.8-4.3,3.4c-0.5,0.9-0.6,2-1,3c-1.2,3-4.5,4.5-7.3,6.2
		c-5.1,3.2-9,8-12.8,12.6c-0.6,0.8-1.2,1.5-1.6,2.4c-0.7,1.9,0,3.9,0.7,5.8c-2.9,0.6-5.4,2.8-6.2,5.6c-0.4,1.2-0.6,2.7-1.6,3.5
		c-0.7,0.6-1.6,0.7-2.5,0.8c-1.3,0.1-2.5,0.2-3.8,0.3c0.6,0.1,1.2,0.3,1.8,0.4c8.5,1.4,17.2,1.7,25.8,0.7c0.9-0.1,1.8-0.2,2.5-0.8
		c1-0.8,1.2-2.3,1.6-3.5c0.9-2.8,3.4-5,6.2-5.6c-0.7-1.9-1.3-3.9-0.7-5.8c0.3-0.9,1-1.7,1.6-2.4c3.8-4.7,7.7-9.4,12.8-12.6
		c2.8-1.7,6-3.2,7.3-6.2c0.4-1,0.5-2.1,1-3c0.9-1.6,2.7-2.5,4.3-3.4c4.1-2.2,7.8-4.9,11.2-8.1c1.8-1.7,3.7-3.8,3.7-6.4
		c0-1.9-1.1-3.7-0.9-5.6c0.1-1.1,0.6-2.1,1-3.2c1.7-4.2,1.8-8.8,1.9-13.3C267.2,172.8,267.2,171.6,266.9,170.5z"/>
	<g id="XMLID_26_" class="st0">
		<g id="XMLID_98_">
			<path id="XMLID_101_" class="st8" d="M174,195.9c-0.5,6.4-2,12.8-0.6,18.7c1.4,6.1,5.5,11.2,8.5,16.7c1.4,2.3,1.5,5.5,3.2,7
				c2,1.8,5.2,1.5,7.4,2.6c1,0.5,2.1,2.3,3.2,2s0.9-2.4,1.4-3.4c0.5-1.8,2.9-2.6,3.7-4c0.9-1.7,0.4-4.3,1.5-5.3c1-1,3.5-0.2,4.7-0.9
				s1.5-3.2,2.5-4.2c8.3-3.9,18.5-6.2,25.9-11.5c7.7-5.5,12.1-13.6,13.6-23.7c1-8.1,2.2-15.8-0.1-23c-2.3-7.1-7.7-12.8-12.7-19.3
				c-0.9-1.4-0.7-3.8-1.9-4.6c-1.3-0.9-3.9-0.1-4.9-1.2c-2.9-2.4-5.9-7.4-10-9.2c-4.4-1.9-8.4-0.6-11.5,4c-0.5,1-2.5,0.9-2.8,1.6
				s1.3,2.4,0.8,3.4c-6.4,8.9-15.2,15.9-21.1,24.5C178.5,174.7,175.5,184.8,174,195.9l-1.1,0.9C173.4,196.8,174,195.9,174,195.9z"/>
		</g>
	</g>
	<g id="XMLID_27_">
		<g id="XMLID_102_">
			<path id="XMLID_103_" class="st9" d="M174,195.9c-0.5,6.4-2,12.8-0.6,18.7c1.4,6.1,5.5,11.2,8.5,16.7c1.4,2.3,1.5,5.5,3.2,7
				c2,1.8,5.2,1.5,7.4,2.6c1,0.5,2.1,2.3,3.2,2s0.9-2.4,1.4-3.4c0.5-1.8,2.9-2.6,3.7-4c0.9-1.7,0.4-4.3,1.5-5.3c1-1,3.5-0.2,4.7-0.9
				s1.5-3.2,2.5-4.2c8.3-3.9,18.5-6.2,25.9-11.5c7.7-5.5,12.1-13.6,13.6-23.7c1-8.1,2.2-15.8-0.1-23c-2.3-7.1-7.7-12.8-12.7-19.3
				c-0.9-1.4-0.7-3.8-1.9-4.6c-1.3-0.9-3.9-0.1-4.9-1.2c-2.9-2.4-5.9-7.4-10-9.2c-4.4-1.9-8.4-0.6-11.5,4c-0.5,1-2.5,0.9-2.8,1.6
				s1.3,2.4,0.8,3.4c-6.4,8.9-15.2,15.9-21.1,24.5C178.5,174.7,175.5,184.8,174,195.9l-1.1,0.9C173.4,196.8,174,195.9,174,195.9z"/>
		</g>
	</g>
	<g id="XMLID_28_" class="st0">
		<g id="XMLID_99_">
			<path id="XMLID_100_" class="st10" d="M181.9,186c-1.5,6.9-4.5,14.5-3.6,21.7c0.9,7.3,5.2,13.2,11.2,18.2c0.5,0,0.6,1.8,1.4,1.8
				s0.7-1.6,1.2-1.6c2.9-4.4,7.8-5.6,11.8-7.5c4.2-2,8.1-4.9,12.7-5.9c4-1.5,8.8-1.7,12.5-4.2c3.6-2.5,5.5-6.8,8-10.3
				c5-9.5,7.6-21.2,4.5-31.8c-3.1-10.7-11.4-18.8-21.9-22.8c-0.5-0.2-0.6-1.4-1.1-1.1c-0.3,0.2,0.1,2.1-0.3,2.1
				c-1.1,0.5-2.8,0.3-3.4,1.5c-0.5,1.1,0.6,3.3-0.3,4.3c-5.9,5.4-13.9,9.2-19.9,14.8c-6.1,5.8-9.8,13.2-12.9,20.8l-1.1,0.6
				C181.2,186.9,181.9,186,181.9,186z"/>
		</g>
	</g>
	<g id="XMLID_29_" class="st0">
		<g id="XMLID_105_">
			<path id="XMLID_106_" class="st11" d="M191.9,187.2c-2,4.5-4.6,10.3-3.5,15.7c1.1,5.4,5.2,8.9,10.7,10.9c0.5-1.4,2-0.9,3-1.8
				c1.2-1.1,1.4-3.5,2.5-4.1c4.5-2,10.6-1.4,15.3-3.4c4.8-2,7.7-6.1,10.2-11.1c3-6.5,4.8-14.4,2.4-21.4c-2.5-7-8.8-11.8-15.8-14.3
				c-0.7,0-0.9-0.7-1.6,0.2c-0.3,0.4,0.4,2.4-0.6,2.7c-0.5,0.5-2.2,0.1-2.4,0.8s1,2.6,0.5,3.1c-4.5,3-10,4.7-13.6,8.4
				C195.3,176.8,193.9,182.1,191.9,187.2l-1.3,0.5C191,187.9,191.9,187.2,191.9,187.2z"/>
		</g>
	</g>
	
		<ellipse id="XMLID_30_" transform="matrix(0.9999 1.505481e-002 -1.505481e-002 0.9999 3.0384 -2.9902)" class="st12" cx="200.1" cy="200.3" rx="2.3" ry="2.5"/>
	
		<ellipse id="XMLID_32_" transform="matrix(0.9999 1.505472e-002 -1.505472e-002 0.9999 2.7068 -3.1009)" class="st12" cx="207.3" cy="178.2" rx="1.9" ry="2.3"/>
	
		<ellipse id="XMLID_36_" transform="matrix(0.9999 1.505494e-002 -1.505494e-002 0.9999 2.9289 -3.3383)" class="st12" cx="223.2" cy="192.9" rx="1.8" ry="1.5"/>
</g>
<g id="Calque_6">
	<radialGradient id="XMLID_9_" cx="133.5772" cy="88.3294" r="50.6667" gradientUnits="userSpaceOnUse">
		<stop  offset="0" style="stop-color:#006838"/>
		<stop  offset="0.1984" style="stop-color:#006D3A"/>
		<stop  offset="0.4851" style="stop-color:#007B41"/>
		<stop  offset="0.8239" style="stop-color:#00944A"/>
		<stop  offset="1" style="stop-color:#00A651"/>
	</radialGradient>
	<path id="XMLID_129_" class="st13" d="M71.5,96.5c2.3,3.6,6.3,6.1,10.5,6.6c1,0.1,2.1,0.1,3,0.7c0.8,0.5,1.2,1.4,1.7,2.3
		c1.4,2.3,3.5,4,6,4.8c1.7,0.5,3.4,0.7,5,1.5c2.3,1.2,3.7,3.6,5.9,5c3.7,2.3,8.6,0.9,12.9,1.9c4.7,1.1,8.8,5.1,13.6,4.2
		c1.6-0.3,3-1.1,4.5-1.3c2.1-0.2,4.1,0.6,6.1,0.9c5.3,0.7,10.5-2.5,15.9-2.6c4.3-0.1,8.8,1.9,12.7,0.1c2.3-1.1,3.9-3.3,6-4.5
		c2.4-1.4,5.5-1.7,7.6-3.6c3.4-3.1,2.4-9.1,5.6-12.4c1.7-1.8,4.4-2.5,5.8-4.5c0.8-1.1,1.2-2.6,1.4-4c0.9-5.7-0.2-11.6-1.2-17.3
		c-0.6-3.6-1.3-7.2-1.9-10.8c-0.2-1.1-0.4-2.2-1-3.2c-0.9-1.4-2.5-2.1-4.1-2.6c-6.8-2-14.4-0.1-21.1-2.5c-3.2-1.2-7-3.2-9.6-1.1
		c-6.6-1.2-13.5-0.9-20,0.8c-3.3,0.9-6.5,2.1-9.8,3.3c-2.5,1-5.1,1.9-7.6,2.9c-4.7,1.8-9.6,3.7-13.2,7.2c-0.8,0.8-1.5,1.6-2.5,2.2
		c-4,2.5-10-0.6-13.7,2.4c-2.1,1.8-2.5,5-4.7,6.7c-3.5,2.7-9.5,0.1-12.3,3.5c-0.7,0.9-1.1,2.1-1.3,3.3c-0.6,3.2-0.8,6.6-0.4,9.8"/>
	<path id="XMLID_128_" class="st7" d="M79.6,94.6c0.2-1.2,0.5-2.3,1.3-3.3c2.8-3.4,8.8-0.9,12.3-3.5c2.2-1.7,2.6-4.9,4.7-6.7
		c3.6-3,9.7,0.1,13.7-2.4c0.9-0.6,1.7-1.4,2.5-2.2c3.6-3.5,8.5-5.4,13.2-7.2c2.5-1,5.1-1.9,7.6-2.9c3.2-1.2,6.4-2.4,9.8-3.3
		c6.5-1.7,13.4-1.9,20-0.8c2.6-2.1,6.4-0.1,9.6,1.1c5.9,2.2,12.5,0.9,18.7,2c-0.1-0.7-0.2-1.3-0.4-2c-0.2-1.1-0.4-2.2-1-3.2
		c-0.9-1.4-2.5-2.1-4.1-2.6c-6.8-2-14.4-0.1-21.1-2.5c-3.2-1.2-7-3.2-9.6-1.1c-6.6-1.2-13.5-0.9-20,0.8c-3.3,0.9-6.5,2.1-9.8,3.3
		c-2.5,1-5.1,1.9-7.6,2.9c-4.7,1.8-9.6,3.7-13.2,7.2c-0.8,0.8-1.5,1.6-2.5,2.2c-4,2.5-10-0.6-13.7,2.4c-2.1,1.8-2.5,5-4.7,6.7
		c-3.5,2.7-9.5,0.1-12.3,3.5c-0.7,0.9-1.1,2.1-1.3,3.3c-0.6,3.2-0.8,6.6-0.4,9.8l0.1,0.4c1.7,2.8,4.5,4.9,7.6,5.9
		C79,99.8,79.1,97.2,79.6,94.6z"/>
	<g id="XMLID_124_" class="st0">
		<g id="XMLID_126_">
			<path id="XMLID_127_" class="st8" d="M140.1,61.8c-8.5,1.5-17.6,4.6-23.3,11.1c-5.8,6.6-7.4,15.6-5.9,24.7
				c2,8.6,7.1,14.2,14.7,16.5c7.5,2.2,16.4,0.2,23.3-0.3c5,0,10.1,1.2,14.6-0.3s7.8-5.5,11.8-8.5c4.5-3.5,9.5-6.7,11.6-11.7
				c2.2-5,1-10.8,0-16.4c-0.5-2.6,0.2-5.7-1.4-7.8c-1.5-1.9-4.7-2.1-7.1-3.5c-6-3-12-6.4-18.6-6.9C153.3,58.3,146.6,60.8,140.1,61.8
				L139,61C139.1,61.5,140.1,61.8,140.1,61.8z"/>
		</g>
	</g>
	<g id="XMLID_120_">
		<g id="XMLID_122_">
			<path id="XMLID_123_" class="st9" d="M140.1,61.8c-8.5,1.5-17.6,4.6-23.3,11.1c-5.8,6.6-7.4,15.6-5.9,24.7
				c2,8.6,7.1,14.2,14.7,16.5c7.5,2.2,16.4,0.2,23.3-0.3c5,0,10.1,1.2,14.6-0.3s7.8-5.5,11.8-8.5c4.5-3.5,9.5-6.7,11.6-11.7
				c2.2-5,1-10.8,0-16.4c-0.5-2.6,0.2-5.7-1.4-7.8c-1.5-1.9-4.7-2.1-7.1-3.5c-6-3-12-6.4-18.6-6.9C153.3,58.3,146.6,60.8,140.1,61.8
				L139,61C139.1,61.5,140.1,61.8,140.1,61.8z"/>
		</g>
	</g>
	<g id="XMLID_116_" class="st0">
		<g id="XMLID_118_">
			<path id="XMLID_119_" class="st14" d="M142.1,67.8c-4.1,0.5-8.5-0.1-11.9,2c-3.3,2-4.9,6.1-7.4,9.6c-2.4,3.9-6,7.9-6.2,12.3
				c-0.2,4.6,2.8,8.2,6.9,11.3c8.5,5.5,18.2,9.6,27.7,8.3c9.4-1.3,17.4-7.6,23.9-16.1c3-4,6.3-8.5,5.9-13.2
				c-0.4-4.7-4.1-8.3-8.6-11.3c-4.9-2.5-9.5-5.6-14.6-6C152.5,64.3,147.2,66.8,142.1,67.8l-1.1-0.9C141,67.4,142.1,67.8,142.1,67.8z
				"/>
		</g>
	</g>
	<g id="XMLID_112_" class="st0">
		<g id="XMLID_114_">
			<path id="XMLID_115_" class="st14" d="M143,74.8c-3.5,0-7.4-0.9-10.4,0.8c-3.1,1.8-4.2,5.6-5.7,8.7c-1.3,2.2-4,4.2-4,6.4
				c-0.1,2.7,2.4,4.1,4.6,5.2c5,2.5,9.7,6.1,15.1,6.9c5.4,0.7,10.7-1.5,16.2-3c4.5-1.5,10-2.9,12.8-6.7c2.8-3.9,2.1-8.8-0.4-13.8
				c-0.5-0.5-0.4-2.5-1.6-3c-1-0.5-2.8,1-3.7,0.5c-4-0.5-7.4-3.5-11.1-4.1c-3.8-0.6-7.5,1.1-11.5,2.1l-1.2-1
				C142,74.3,143,74.8,143,74.8z"/>
		</g>
	</g>
</g>
<g id="Calque_4">
	
		<radialGradient id="XMLID_15_" cx="101.0365" cy="194.2805" r="57.5043" gradientTransform="matrix(0.9989 -4.729654e-002 4.729654e-002 0.9989 -9.0228 4.3365)" gradientUnits="userSpaceOnUse">
		<stop  offset="0" style="stop-color:#006838"/>
		<stop  offset="0.1984" style="stop-color:#006D3A"/>
		<stop  offset="0.4851" style="stop-color:#007B41"/>
		<stop  offset="0.8239" style="stop-color:#00944A"/>
		<stop  offset="1" style="stop-color:#00A651"/>
	</radialGradient>
	<path id="XMLID_42_" class="st15" d="M70.5,219.3c-2.4-2-4.8-3.9-7.2-5.9c-0.6-0.5-1.3-1.1-1.7-1.8c-0.7-1.4-0.3-3-0.5-4.6
		c-0.4-2.5-2.5-4.3-3.5-6.6c-1.2-2.9-0.3-6.5-1.9-9.3c-0.7-1.3-1.9-2.3-2.7-3.6c-1-1.6-1.3-3.5-1.6-5.4c-1.2-7.6-2.4-15.2-3.6-22.9
		c-0.2-1.1-0.3-2.3,0-3.3c0.3-0.8,0.8-1.4,1.3-2c2.7-3.2,5.4-6.5,8-9.7c1-1.2,2-2.4,3.5-3c2-0.9,4.4-0.3,6.5-1
		c2.4-0.8,3.9-3.1,5.5-5c1.6-1.9,3.8-3.8,6.3-3.4c1.1,0.2,2.1,0.8,3.1,1.3c3.6,1.7,7.8,1.4,11.7,1.6c4,0.2,8.3,1.2,10.5,4.5
		c0.4,0.7,0.8,1.4,1.4,2c1.1,1.1,2.9,1.2,4.4,1.6c8,2.1,10.9,11.9,17.3,17.2c0.7,0.5,1.4,1.1,1.8,1.8c0.5,0.8,0.4,1.9,0.6,2.8
		c0.6,2.6,2.9,4.5,4.1,6.9c0.6,1.3,0.9,2.7,1.2,4.1c0.5,2.7,1.1,5.5,1.6,8.2c0.3,1.7,0.7,3.4,1.5,5c0.8,1.5,2,2.7,2.8,4.1
		c1.4,2.4,1.7,5.2,2.2,7.8c1.3,6.7,4.1,13,8.1,18.5c1.9,2.6,4.1,6,2.4,8.8c-0.8,1.3-2.2,1.9-3.3,3c-1.6,1.5-2.4,3.7-2.2,5.8
		c0.1,0.9,0.3,2.1-0.4,2.7c-0.4,0.4-1,0.4-1.6,0.4c-3.8,0.2-8.4,1.8-8.6,5.6c-0.1,1.2,0.4,2.5,0,3.6c-0.7,1.9-3.2,2.1-5.2,2.2
		c-4.2,0.2-8.4,1.3-12.2,3.2c-1.2,0.6-2.5,1.3-3.8,1c-1.1-0.3-1.9-1.2-2.8-2c-3.5-3.3-9-4.3-13.4-2.5c-1.1,0.5-2.2,1.1-3.4,1.2
		c-2.3,0.3-4.5-1.2-6.1-2.9c-1.6-1.7-2.9-3.7-4.8-5.1c-3-2.2-7.2-2.5-9.5-5.5c-1.1-1.4-1.5-3.2-1.9-4.9c-1.2-5-2.4-9.9-3.6-14.9"/>
	<g id="XMLID_39_" class="st16">
		<path id="XMLID_41_" class="st17" d="M103.9,248.5c-3-2.2-7.2-2.5-9.5-5.5c-1.1-1.4-1.5-3.2-1.9-4.9c-1.2-5-2.4-9.9-3.6-14.9
			l-0.5,0c-2.4-2-4.8-3.9-7.2-5.9c-0.6-0.5-1.3-1.1-1.7-1.8c-0.7-1.4-0.3-3-0.5-4.6c-0.4-2.5-2.5-4.3-3.5-6.6
			c-1.2-2.9-0.3-6.5-1.9-9.3c-0.7-1.3-1.9-2.3-2.7-3.6c-1-1.6-1.3-3.5-1.6-5.4c-1.2-7.6-2.4-15.2-3.6-22.9c-0.2-1.1-0.3-2.3,0-3.3
			c0.3-0.8,0.8-1.4,1.3-2c2.7-3.2,5.4-6.5,8-9.7c1-1.2,2-2.4,3.5-3c2-0.9,4.4-0.3,6.5-1c2.4-0.8,3.9-3.1,5.5-5
			c1.6-1.9,3.8-3.8,6.3-3.4c1.1,0.2,2.1,0.8,3.1,1.3c1.1,0.5,2.3,0.8,3.5,1.1c-2.4-2.5-6.2-3.3-9.7-3.5c-4-0.2-8.1,0.1-11.7-1.6
			c-1-0.5-2-1.1-3.1-1.3c-2.5-0.4-4.7,1.5-6.3,3.4c-1.6,1.9-3.1,4.2-5.5,5c-2.1,0.7-4.5,0.1-6.5,1c-1.4,0.6-2.5,1.8-3.5,3
			c-2.7,3.2-5.4,6.5-8,9.7c-0.5,0.6-1,1.2-1.3,2c-0.4,1.1-0.2,2.2,0,3.3c1.2,7.6,2.4,15.2,3.6,22.9c0.3,1.9,0.6,3.8,1.6,5.4
			c0.8,1.3,2,2.3,2.7,3.6c1.5,2.8,0.7,6.3,1.9,9.3c0.9,2.3,3,4.1,3.5,6.6c0.3,1.5-0.2,3.2,0.5,4.6c0.4,0.7,1,1.3,1.7,1.8
			c2.4,2,4.8,3.9,7.2,5.9l0.5,0c1.2,5,2.4,9.9,3.6,14.9c0.4,1.7,0.9,3.5,1.9,4.9c2.3,2.9,6.5,3.3,9.5,5.5c1.9,1.4,3.2,3.4,4.8,5.1
			c1.6,1.7,3.8,3.2,6.1,2.9c1.2-0.2,2.3-0.8,3.4-1.2c1.8-0.7,3.7-1,5.6-0.9C105.3,249.7,104.6,249,103.9,248.5z"/>
		<path id="XMLID_40_" class="st17" d="M118.1,255.2c-0.4,0.2-0.7,0.3-1.1,0.5c1.1,0,2.2-0.6,3.3-1.1c0.1,0,0.1,0,0.2-0.1
			C119.6,254.7,118.9,254.9,118.1,255.2z"/>
	</g>
	<g id="Calque_8">
		<g id="XMLID_3_" class="st0">
			<g id="XMLID_48_">
				<path id="XMLID_49_" class="st8" d="M73.8,213.3c4,7.5,8.9,15.6,16.5,20.3c7.5,4.6,16.6,5.2,25.5,4.2c3.4-0.5,7.7-0.5,10.3-2.9
					c2.7-2.5,2.8-6.6,2.8-10.1c0-7.6,0.9-15.4-0.7-23.1c-1.6-7.4-5.8-14.2-8.2-21.6c-1-3-0.4-6.6-2-9.2c-1.5-2.6-4.8-3.9-6.8-6.4
					c-1.4-0.9-1.2-3.5-2.2-4.7c-1.2-1.3-3.6-1.2-4.7-2.2c-5.5-4-10.9-9.3-17.4-10.8c-6.5-1.5-12.9,0.8-19.4,4.8
					c-4.1,3-7.1,6-7.4,10.2c-0.3,4.1,2.4,8.5,2.9,12.9c0,1-1.3,2.4-0.8,3.1s2.8,0.9,2.8,1.9c0.5,4.6-0.7,9.4,0.3,14
					c1,4.4,4.1,8.3,5.6,12.8c0.5,1.1-0.5,2.9,0.2,4.1c0.6,1.1,2.9,1.8,2.9,3.2l-0.5,0.9C73.9,214.4,73.8,213.3,73.8,213.3z"/>
			</g>
		</g>
		<g id="XMLID_22_">
			<g id="XMLID_70_">
				<path id="XMLID_71_" class="st9" d="M73.8,213.3c4,7.5,8.9,15.6,16.5,20.3c7.5,4.6,16.6,5.2,25.5,4.2c3.4-0.5,7.7-0.5,10.3-2.9
					c2.7-2.5,2.8-6.6,2.8-10.1c0-7.6,0.9-15.4-0.7-23.1c-1.6-7.4-5.8-14.2-8.2-21.6c-1-3-0.4-6.6-2-9.2c-1.5-2.6-4.8-3.9-6.8-6.4
					c-1.4-0.9-1.2-3.5-2.2-4.7c-1.2-1.3-3.6-1.2-4.7-2.2c-5.5-4-10.9-9.3-17.4-10.8c-6.5-1.5-12.9,0.8-19.4,4.8
					c-4.1,3-7.1,6-7.4,10.2c-0.3,4.1,2.4,8.5,2.9,12.9c0,1-1.3,2.4-0.8,3.1s2.8,0.9,2.8,1.9c0.5,4.6-0.7,9.4,0.3,14
					c1,4.4,4.1,8.3,5.6,12.8c0.5,1.1-0.5,2.9,0.2,4.1c0.6,1.1,2.9,1.8,2.9,3.2l-0.5,0.9C73.9,214.4,73.8,213.3,73.8,213.3z"/>
			</g>
		</g>
		<g id="XMLID_1_" class="st0">
			<g id="XMLID_72_">
				<path id="XMLID_74_" class="st10" d="M78.5,211.5c3.5,7,8.6,15.3,16.3,19.3c7.6,4,16.3,3.3,24.3-1.7c2-1.5,4.8-2.8,5.4-5.3
					c0.6-2.5-1.4-5.1-1.9-7.6c-0.5-1.5,0.9-3.8,0.4-5.5c-0.5-1.7-2.9-3.1-3.4-4.6c-1-8-0.6-16.8-3.6-24.3c-3-7.5-9-13.1-16-18.1
					c-4.4-2.9-8.8-7.2-14-8.1c-5.3-0.9-10.2,1.5-14.8,5.1c-1.4,1.4-3.9,1.9-4.5,3.5c-0.6,1.9,1.3,4,1.8,5.6c0.5,7-0.5,14.6,1.2,21.8
					C71.4,198.8,75.5,205.1,78.5,211.5l-0.4,1.3C78.5,212.7,78.5,211.5,78.5,211.5z"/>
			</g>
		</g>
		<g id="XMLID_4_" class="st16">
			<g id="XMLID_75_">
				<path id="XMLID_76_" class="st11" d="M81.4,206.5c3,5,5.6,10.6,10.3,13.5c4.8,2.9,10.7,2.5,16.7,2c1.8-0.5,4.3,0.5,5.8-0.6
					c1.7-1.3,1.3-3.8,1.3-5.5c1-9,2.2-19.3-1-28.3c-3.1-9-10.1-15.8-18.6-20.8c-2.5-1.5-4.8-4.1-7.7-4.4c-2.8-0.2-5.6,2-8.5,2.5
					c-2.6,1-5.8,1.4-7,3.8c-1.2,2.2,0.2,5.1,0.7,8c1.5,5,0.6,10.5,1.7,15.6c1.1,5,4.3,9.3,6.3,14.3l-0.4,1.2
					C81.5,207.6,81.4,206.5,81.4,206.5z"/>
			</g>
		</g>
		
			<ellipse id="XMLID_7_" transform="matrix(0.9999 1.505481e-002 -1.505481e-002 0.9999 2.6108 -1.2648)" class="st12" cx="85.3" cy="172.8" rx="2.3" ry="2.5"/>
		
			<ellipse id="XMLID_10_" transform="matrix(0.8567 -0.5159 0.5159 0.8567 -88.2506 72.3007)" class="st12" cx="86" cy="195" rx="2.3" ry="3"/>
		
			<ellipse id="XMLID_14_" transform="matrix(0.9999 1.505481e-002 -1.505481e-002 0.9999 3.2231 -1.5541)" class="st12" cx="104.8" cy="213.3" rx="1.6" ry="1.6"/>
		
			<ellipse id="XMLID_18_" transform="matrix(0.9999 1.505481e-002 -1.505481e-002 0.9999 1.2075 -2.3273)" class="st12" cx="155.2" cy="79" rx="2.3" ry="2.5"/>
		
			<ellipse id="XMLID_13_" transform="matrix(0.8567 -0.5159 0.5159 0.8567 -28.2806 82.0878)" class="st12" cx="133.6" cy="91.9" rx="2.3" ry="3"/>
		
			<ellipse id="XMLID_11_" transform="matrix(0.9999 1.505481e-002 -1.505481e-002 0.9999 1.3601 -2.4938)" class="st12" cx="166.3" cy="89.1" rx="1.6" ry="1.6"/>
	</g>
</g>
</svg>
