<?xml version="1.0" encoding="utf-8"?>
<!-- Generator: Adobe Illustrator 19.0.0, SVG Export Plug-In . SVG Version: 6.00 Build 0)  -->
<svg version="1.0" id="圖層_1" xmlns="http://www.w3.org/2000/svg" xmlns:xlink="http://www.w3.org/1999/xlink" x="0px" y="0px" width="300px" height="260px"
	 viewBox="0 0 300 260" style="enable-background:new 0 0 300 260;" xml:space="preserve">
<style type="text/css">
	.st0{opacity:0.15;}
	.st1{fill:#2A3A1D;}
	.st2{fill:#5EB446;}
	.st3{opacity:0.5;fill:#49873F;}
	.st4{fill:#90CB78;}
	.st5{display:none;}
	.st6{display:inline;fill:#E5DF92;}
	.st7{fill:#6C295E;}
	.st8{fill:#D380B5;}
	.st9{opacity:0.5;}
	.st10{fill:#D1B4CB;}
	.st11{opacity:0.75;}
	.st12{fill:#FFFFFF;}
</style>
<g id="Calque_5_-_copie_5">
	<path id="XMLID_47_" class="st0" d="M234.6,133.7c0,9.5-5.2,17.6-8.2,26c-4.4,12.4-20.9,36.5-30.5,45.2
		c-7.4,6.7-18.2,9.7-27.6,13.3c-8.9,3.4-16.3,7.6-26.4,7.6c-10,0-19.7-1.9-28.5-5.2c-6.9-2.6-18.7-12.9-24.5-17.2
		c-10.2-7.6-12.7-21.3-18.4-32.8c-5.2-10.6-13.9-18.8-13.9-31.4c0-12.5,2.9-24.4,8-34.9c5.6-11.6,17.2-20.7,27.5-28.3
		c13.3-9.9,44.6-22.2,62.5-22.2c7.6,0,13.9,4.3,20.9,6.3c7.5,2.2,15.8,2.1,22.2,6.3c11.5,7.4,14.9,19,21.4,31.1
		C225,108.6,234.6,120.1,234.6,133.7z"/>
	<path id="XMLID_46_" class="st1" d="M237,133.7c0,9.7-5.4,18.1-8.5,26.8c-4.6,12.8-8.5,25.1-18.3,34c-7.6,6.9-18.7,10-28.5,13.7
		c-9.1,3.5-16.8,7.9-27.1,7.9c-10.3,0-20.2-1.9-29.4-5.4c-7.1-2.7-13.8-6.4-19.8-10.9C94.9,192,92.3,177.9,86.5,166
		c-5.3-10.9-14.3-19.4-14.3-32.3c0-12.9,3-25.1,8.3-36c5.8-11.9,17.8-21.3,28.3-29.2c13.7-10.2,27.4-17.2,45.8-17.2
		c7.9,0,14.3,4.4,21.5,6.5c7.8,2.2,16.3,2.2,22.9,6.5c11.9,7.6,15.4,19.6,22,32.1C227.2,107.9,237,119.7,237,133.7z"/>
	<path id="XMLID_45_" class="st2" d="M231.2,133.7c0,9.1-5,16.8-7.9,24.9c-4.2,11.9-7.9,23.3-17,31.6c-7,6.5-17.4,9.3-26.5,12.8
		c-8.5,3.2-15.6,7.3-25.2,7.3c-9.6,0-18.8-1.8-27.3-5c-6.6-2.5-12.8-6-18.4-10.1c-9.8-7.3-12.2-20.4-17.6-31.4
		c-5-10.1-13.3-18-13.3-30.1c0-12,2.8-23.4,7.7-33.5C91,89.1,102.1,80.4,112,73.1c12.8-9.5,25.5-16,42.6-16c7.3,0,13.3,4.1,20,6
		c7.2,2.1,15.1,2.1,21.3,6c11,7.1,14.3,18.2,20.5,29.8C222.1,109.7,231.2,120.7,231.2,133.7z"/>
	<path id="XMLID_42_" class="st3" d="M216.3,98.9c-6.2-11.6-9.4-22.7-20.5-29.8c-6.2-4-14.1-3.9-21.3-6c-6.7-1.9-12.7-6-20-6
		c-17.1,0-29.9,6.5-42.6,16c-9.8,7.3-20.9,16-26.3,27.1c-4.9,10.1-7.7,21.5-7.7,33.5c0,12.1,8.4,19.9,13.3,30.1
		c5.4,11,7.8,24.1,17.6,31.4c5.6,4.2,11.8,7.6,18.4,10.1c8.5,3.2,17.7,5,27.3,5c9.6,0,16.8-4.1,25.2-7.3c9.1-3.5,19.4-6.3,26.5-12.8
		c9.1-8.3,12.8-19.8,17-31.6c2.9-8.1,7.9-15.8,7.9-24.9C231.2,120.7,222.1,109.7,216.3,98.9z M219.7,135.7c-0.4,1.6-2,2.7-3.6,2.7
		c-0.8,0-1.7-0.1-2.4,0.3c-1.8,1.3,0.9,4,0.5,6.2c-1.1,0.7-2.6,1.1-3.9,0.9c-0.5-1.9-2.7-3-4.5-2.4c-1.8,0.7-2.7,3-1.9,4.8
		c1.2-0.6,2.8-0.2,3.5,0.8c0.8,1.1,0.6,2.7-0.4,3.6c-0.7,0.6-1.6,0.9-2.2,1.6c-1.4,1.6,0.9,4.6,2.8,3.6c1.4,2.7-1.5,5.6-4.1,7.3
		c3.3,0.4,4.2,5.8,1.2,7.3c-1.8,0.9-4.9,1.1-4.7,3.1c2.5,0.2,3.6,4.2,1.5,5.6c-0.7,0.5-1.6,0.6-2.5,0.8c-4.6,0.6-9.3,0.9-13.9,0.6
		c-0.9,1.4-0.2,3.5,1.2,4.2c-2.1,2-6.3-0.6-5.4-3.3c-1.3-0.3-2.6-0.6-3.9-0.3c-1.3,0.3-2.4,1.4-2.3,2.7c0.1,1.7,2.3,3.3,1.4,4.7
		c-0.7,1.1-2.7,0.7-3.6,1.7c-1.1,1.3,0.5,3.3,0.1,5c-0.4,1.8-2.9,2.1-4.6,1.6c-1.7-0.6-3.3-1.8-5.1-1.7c-1.8,0-3.6,2.4-2.2,3.6
		c0,2.3-3.5,2.7-5.5,1.6c-2-1.2-3.8-3.1-6.1-3c-2.4,0.1-4.4,2.6-6.7,2c-2.4-0.6-3-3.9-5-5.4c-1.5-1.1-3.7-1-5.5-1.6
		c-1.8-0.6-3.5-2.9-2.2-4.3c0.9-1,2.6-0.8,3.7-1.6c1.1-0.9,1-2.6,0.7-4.1c-0.3-1.6-0.8-3.4-2.1-4.4c-1.3-1-3.7-0.8-4.1,0.8
		c-0.3,0.9,0.1,1.9-0.2,2.8c-0.7,1.7-3.3,1-4.8,0c-1.5-1.1-3.6-2.3-4.9-1c-0.4,0.4-0.7,1-1,1.5c-1.2,1.5-3.5,1.5-5.2,0.8
		c-1.8-0.7-3.4-1.8-5.3-2.1c-1.9-0.3-1.9-1.1-3.2-1.1c-2.2-0.7-2.5,0.8-3.2-2.8c-0.3-1.5-1.5-2.7-1.8-4.2c-0.8-4.3,6-8,3.9-11.9
		c-0.9-1.7-3.2-2.3-4-4c-1.5-3,2.2-7,0.1-9.5c-1.1-1.3-3.3-1.3-4.4-2.6c-0.7-0.8-0.8-2-1.1-3c-1.4-3.9-7.1-6.2-6.1-10.2
		c0.7-2.7,4.2-3.8,5.1-6.4c0.9-2.6-1.1-5.8,0.5-8c1.6-2.3,5.8-2.1,6.4-4.8c0.3-1.4-0.7-2.7-1.5-3.9c-0.8-1.2-1.2-3-0.1-4
		c0.5-0.4,1.1-0.5,1.7-0.6c2.8-0.3,6.4-0.6,7-3.3c0.6-2.5-1.7-6,0.6-7.1c0.7-0.3,1.6-0.2,2.2-0.7c1-0.9,0.1-2.6-0.9-3.4
		c-1-0.9-2.3-2.1-1.8-3.3c0.3-0.7,1.2-1.1,1.9-1.4c1.7-0.6,3.7-1.2,5.3-0.5c2.4,1.1,4,4.9,6.5,3.9c1.6-0.7,1.7-2.9,2.9-4.1
		c2.9-2.9,8.8,2,11.5-1.1c1.6-1.9,0.4-5.5,2.5-6.8c1.5,1.8,4.5,2.1,6.4,0.7c1.9-1.4,2.3-4.4,0.9-6.4c2.7-0.1,5.2-2,6.1-4.5
		c2.4-1.5,5.5,0.5,7.4,2.7c1.9,2.1,3.7,4.8,6.6,5.1c2,0.2,3.9-0.8,5.8-0.8c2,0,4.1,2.3,2.8,3.8c-0.5,0.6-1.4,0.8-2,1.3
		c-1.3,1-1.1,3.2,0.2,4.1c2.1,1.3,4.9-0.8,7.1,0.2c1.6,0.7,2.2,2.6,2.5,4.3c2.2,1.8,4.6-2.6,7.5-2.6c1.2,0,2.3,0.9,3.4,0.7
		c1-0.1,1.7-0.9,2.5-1.4c1.9-1.2,4.4-1.1,6.2,0.1c1.8,1.2,2.8,3.6,2.3,5.8c-0.4,1.8-1.6,3.8-0.8,5.4c0.7,1.3,2.4,1.7,3.8,2.2
		c1.4,0.6,2.8,2.1,2.1,3.4c-0.5,0.9-1.8,1.1-2.4,2c-0.8,1.2,0.1,2.9,1.4,3.6c1.2,0.7,2.8,1,3.9,1.9c1.1,0.9,1.6,2.9,0.4,3.7
		c-1.8,0.3-3.6,0.7-4.9,1.9c-1.3,1.3-1.5,3.7,0,4.7c1.9,1.2,5.5-0.5,6.3,1.6c0.5,1.5-1.2,2.7-2.7,3.3c2.5,2,6,2.6,9,1.8
		c0.9,1.9,0.4,4.3-1.2,5.8C219.1,132.2,220.1,134.1,219.7,135.7z"/>
	<path id="XMLID_41_" class="st4" d="M158.9,189.5c-1.6,1.8-5.3,0-6.7-2c-1.4-1.9-1.8-4.5-2.9-6.6c-0.6-1.2-1.5-2.4-1.8-3.7
		c-0.8-2.7,0.4-5.6-0.3-8.2c-0.5-2-2.1-3.8-2.1-5.8c0-1.9,1.4-3.6,1.3-5.5c-0.1-1.6-1.5-3.1-3.1-3.3s-3.3,1-3.8,2.5
		c-0.2,0.8-0.2,1.7-0.6,2.4c-1.1,1.7-3.9,1-5.3,2.5c-1.6,1.7-0.1,4.8-1.5,6.5c-1.6,1.9-4.9,0.5-6.9,1.8c-0.7,0.5-1.2,1.2-1.8,1.8
		c-1.6,1.5-4.2,1.8-6.1,0.7c-1.9-1.1-2.8-3.6-2.2-5.7c0.3-1,0.9-2,0.9-3c-0.1-2.1-3-3.9-1.9-5.7c0.5-0.8,1.5-1,2.4-1.3
		c4-1.3,6.9-5.2,7.2-9.3c2.8,0.3,5.6-3.1,3.9-5.3c-2.2-2.8-7.1,0.2-10.1-1.7c-0.8-0.5-1.3-1.3-2.1-1.8c-1.5-1-3.6-0.5-5.2,0.3
		c-1.6,0.9-3,2.1-4.8,2.7c-2.9,1-6.3-0.1-8.1-2.5c-0.7-1-1.2-2.3-0.6-3.4c0.3-0.6,1-1,1.4-1.5c1.2-1.3,1.5-3.3,0.8-4.8
		c2-2.8,6.8-0.9,9.6-2.9c0.7-0.5,1.3-1.3,2.1-1.8c2.9-1.5,6.5,2.4,9.5,0.9c1.2-0.6,1.8-1.9,2.9-2.7c2.2-1.5,5.1-0.2,7.3,1.1
		c0.6-2,0.9-4.6-0.9-5.6c-1.1-0.7-2.5-0.3-3.8-0.2s-2.9-0.2-3.3-1.4c-0.5-1.5,1.2-3.2,0.6-4.6c-0.5-1.2-2.2-1.4-3.3-2.1
		c-1.3-0.9-1.6-2.7-1.5-4.2s0.8-3,1-4.6c0.2-1.1,0.2-2.3,0.9-3.2c1.2-1.6,3.8-1,5.4,0.1s3,2.8,5,3.2c2.9,0.6,6.7-1.6,8.4,0.9
		c0.5,0.7,0.6,1.7,0.8,2.5c0.4,1.6,1.3,3.2,2.9,3.7s3.6-0.3,3.9-1.9c0.4-1.9-1.7-3.7-1.2-5.6c0.5-1.7,2.7-2.3,3.3-4
		c0.9-2.7-3.1-6.1-1-8c0.5-0.5,1.3-0.6,1.6-1.2c0.9-1.6-2.4-3.2-1.7-5c0.2-0.4,0.6-0.7,1-1c2.8-1.5,6.6-0.5,8.4,2.1
		c1.1,1.7,1.5,3.8,2.9,5.3c1.6,1.7,4.4,2.4,4.8,4.7c0.5,2.8-3.6,5.1-2.8,7.9c0.6,1.9,3.2,2.4,5.2,1.9c2-0.5,3.9-1.5,5.9-1
		c-0.7-1.6,1.7-2.6,3.5-2.5s4.1-0.1,4.2-1.8c2.1-1.5,5.1,0.5,6.3,2.8c1.1,2.4,1.4,5.2,3.2,7.2c0.5,1.1-0.7,2.2-1.9,2.6
		c-1.1,0.4-2.5,1-2.6,2.2c-0.1,1.4,1.9,2.3,1.8,3.8c-0.1,1.9-3.3,1.9-4.4,3.4c-0.9,1.4,0.2,3.3,1.7,4s3.2,0.5,4.9,0.6
		c1.7,0.1,3.5,0.6,4.3,2.1c0.3,0.5,0.4,1.1,0.8,1.5c0.6,0.6,1.5,0.6,2.3,0.5c2.2-0.1,4.3-0.2,6.5-0.3c1.3-0.1,2.7-0.1,3.9,0.5
		c1.2,0.6,2.1,2,1.6,3.3c-0.9,2.2-5,1.9-5.3,4.3c-0.1,1.3,1.2,2.3,1.5,3.6c0.2,1.3-0.7,2.6-1.9,3c-1.2,0.5-2.6,0.2-3.8-0.2
		c-0.9-0.3-1.7-0.8-2.6-0.9c-0.9-0.1-2,0.4-2.1,1.4c-0.1,0.8,0.5,1.7,0,2.3c-0.3,0.4-0.8,0.4-1.3,0.5c-1.3,0.1-2.7,0.1-3.9-0.3
		c-1.2-0.4-2.3-1.2-3.4-1.7c-1.1-0.5-2.5-0.8-3.7-0.2c-1.1,0.6-1.5,2.4-0.5,3.1c-2.4-0.7-5.8-0.8-6.6,1.5c-0.8,2.5,2.4,4.3,5,4.4
		c2.6,0.1,5.7-0.2,7.3,1.8c0.9,1.2,1.2,3,2.5,3.8c2.1,1.2,5-1.1,7,0.3c1.3,0.9,1.2,3.1,0,4.3c-1.1,1.2-2.8,1.7-4.4,2
		c0.8,1.9,1.5,4.6-0.2,5.8c-1.2,0.9-2.9,0.4-4.4,0.1c-1.5-0.2-3.4,0.1-3.8,1.6c-2.1,1-4.2-1.1-5.3-3.1c-1.1-2-2.1-4.5-4.3-5
		c-0.8-0.2-1.7,0-2.5-0.3c-2.3-0.8-2.4-4.3-4.3-5.8c-1.2-1-3.1-0.9-4.3,0.1c-1.2,1-1.4,2.9-0.6,4.2c0.9,1.5,3.1,2.5,2.7,4.2
		c-0.3,1.8-3.1,2-4.1,3.5c-1.6,2.5,2.3,5.6,1.3,8.3c-0.2,0.5-0.6,1-0.6,1.6c0,0.6,0.5,1.2,0.9,1.7c1,1.4,1.1,3.5,0.1,5
		C162.5,188.9,160.6,189.8,158.9,189.5"/>
	<g id="Calque_2_-_copie_5">
		<g id="Calque_4_-_copie_5">
			<path id="XMLID_132_" class="st1" d="M158.6,123.1l-1.6-22.4l-2.5-34.4v-2.1l-0.1,1l-0.1-0.8v1.7l-2.5,34.4l-1.6,22.4
				c-0.5,6.9-0.5,13.8,0,20.7l1.7,24.4l2.3,32.9v2.1l0.1-1.1l0.1,0.8v-1.7l2.3-32.9l1.7-24.4C159.1,136.9,159.1,130,158.6,123.1z"/>
			<path id="XMLID_124_" class="st1" d="M164.8,129.1l14.7-16.9L202.1,86l1.5-1.5l-0.8,0.7l0.6-0.6l-1.2,1.2l-26.1,22.6l-16.9,14.7
				c-5.2,4.5-10.1,9.4-14.7,14.7l-16,18.5l-21.6,24.9l-1.5,1.5l0.8-0.7l-0.6,0.6l1.2-1.2l24.9-21.6l18.5-16
				C155.4,139.2,160.3,134.3,164.8,129.1z"/>
			<path id="XMLID_123_" class="st1" d="M150,123.2L133,108.5l-26.1-22.6l-1.5-1.5l0.7,0.8l-0.6-0.6l1.2,1.2l22.6,26.1l14.7,16.9
				c4.5,5.2,9.4,10.1,14.7,14.7l18.5,16l24.9,21.6l1.5,1.5l-0.7-0.8l0.6,0.6l-1.2-1.2l-21.6-24.9l-16-18.5
				C160.1,132.7,155.2,127.7,150,123.2z"/>
			<path id="XMLID_122_" class="st1" d="M144,129.4l-22.4,1.6l-34.4,2.5h-2.1l1,0.1l-0.8,0.1H87l34.4,2.5l22.4,1.6
				c6.9,0.5,13.8,0.5,20.7,0l24.4-1.7l32.9-2.3h2.1l-1.1-0.1l0.8-0.1H222l-32.9-2.3l-24.4-1.7C157.8,128.9,150.8,128.9,144,129.4z"
				/>
		</g>
		<g id="Calque_3_-_copie_5" class="st5">
			<path id="XMLID_121_" class="st6" d="M152.1,120.8l-0.7-19.4l-1.1-29.8v-1.8l0,0.9l0-0.7v1.5l-1.1,29.8l-0.7,19.4
				c-0.2,6-0.2,12,0,18l0.8,21.1l1,28.5v1.8l0-0.9l0,0.7v-1.5l1-28.5l0.8-21.1C152.3,132.8,152.3,126.8,152.1,120.8z"/>
			<path id="XMLID_120_" class="st6" d="M158,124.8l13.2-14.2l20.3-21.9l1.3-1.3l-0.7,0.6l0.5-0.5l-1,1l-21.9,20.3l-14.2,13.2
				c-4.4,4.1-8.6,8.3-12.7,12.7l-14.4,15.5L109,171.1l-1.3,1.3l0.7-0.6l-0.5,0.5l1-1l20.9-19.4l15.5-14.4
				C149.6,133.4,153.9,129.2,158,124.8z"/>
			<path id="XMLID_119_" class="st6" d="M159.3,131.8l19.4-0.7l29.8-1.1h1.8l-0.9,0l0.7,0h-1.5l-29.8-1.1l-19.4-0.7
				c-6-0.2-12-0.2-18,0l-21.1,0.8l-28.5,1h-1.8l0.9,0l-0.7,0h1.5l28.5,1l21.1,0.8C147.3,132,153.4,132,159.3,131.8z"/>
			<path id="XMLID_118_" class="st6" d="M155.4,137.7l14.2,13.2l21.9,20.3l1.3,1.3l-0.6-0.7l0.5,0.5l-1-1l-20.3-21.9l-13.2-14.2
				c-4.1-4.4-8.3-8.6-12.7-12.7l-15.5-14.4L109,88.7l-1.3-1.3l0.6,0.7l-0.5-0.5l1,1l19.4,20.9l14.4,15.5
				C146.7,129.3,151,133.6,155.4,137.7z"/>
		</g>
	</g>
	<g id="XMLID_33_">
		<path id="XMLID_48_" class="st7" d="M184.9,133.2c0,5-6.9,8.1-9.2,12.1c-2.4,4.1-1.7,11.7-5.9,14.1c-4,2.3-10.2-2-15.1-2
			c-5,0-11.1,4.3-15.1,2c-4.1-2.4-3.5-9.9-5.9-14.1c-2.3-4-9.2-7.1-9.2-12.1c0-5,6.9-8.1,9.2-12.1c2.4-4.1,1.7-11.7,5.9-14.1
			c4-2.3,10.2,2,15.1,2c5,0,11.1-4.3,15.1-2c4.1,2.4,3.5,9.9,5.9,14.1C177.9,125.1,184.9,128.2,184.9,133.2z"/>
	</g>
	<g id="XMLID_8_">
		<path id="XMLID_49_" class="st8" d="M181,133.2c0,4.3-6.7,6.8-8.7,10.2c-2.1,3.5-0.9,10.6-4.5,12.7c-3.4,2-8.9-2.5-13.2-2.5
			c-4.3,0-9.8,4.5-13.2,2.5c-3.5-2.1-2.4-9.1-4.5-12.7c-2-3.4-8.7-5.9-8.7-10.2c0-4.3,6.7-6.8,8.7-10.2c2.1-3.5,0.9-10.6,4.5-12.7
			c3.4-2,8.9,2.5,13.2,2.5c4.3,0,9.8-4.5,13.2-2.5c3.5,2.1,2.4,9.1,4.5,12.7C174.3,126.4,181,128.9,181,133.2z"/>
	</g>
	<g id="XMLID_5_" class="st9">
		<path id="XMLID_50_" class="st10" d="M177.6,133.2c0,3.1-12,3-13.5,5.5c-1.5,2.6,4.6,12.9,2,14.4c-2.5,1.4-8.4-8.9-11.5-8.9
			c-3.1,0-9,10.4-11.5,8.9c-2.6-1.5,3.5-11.8,2-14.4c-1.4-2.5-13.5-2.4-13.5-5.5c0-3.1,12-3,13.5-5.5c1.5-2.6-4.6-12.9-2-14.4
			c2.5-1.4,8.4,8.9,11.5,8.9c3.1,0,9-10.4,11.5-8.9c2.6,1.5-3.5,11.8-2,14.4C165.6,130.2,177.6,130.1,177.6,133.2z"/>
	</g>
	<g id="XMLID_2_" class="st11">
		<path id="XMLID_38_" class="st12" d="M170.8,133.2c0,1.8-11.7,0.6-12.5,2c-0.9,1.5,6,11,4.5,11.9c-1.5,0.9-6.2-9.8-8.1-9.8
			c-1.8,0-6.6,10.7-8.1,9.8c-1.5-0.9,5.4-10.4,4.5-11.9c-0.9-1.5-12.5-0.2-12.5-2c0-1.8,11.7-0.6,12.5-2c0.9-1.5-6-11-4.5-11.9
			c1.5-0.9,6.2,9.8,8.1,9.8c1.8,0,6.6-10.7,8.1-9.8c1.5,0.9-5.4,10.4-4.5,11.9C159.1,132.6,170.8,131.3,170.8,133.2z"/>
	</g>
</g>
<g id="Calque_5_-_copie_3">
	<path id="XMLID_27_" class="st0" d="M228,36.8c0,2.4-1.3,4.5-2.1,6.7c-1.1,3.2-5.4,9.4-7.9,11.7c-1.9,1.7-4.7,2.5-7.2,3.5
		c-2.3,0.9-4.2,2-6.8,2c-2.6,0-5.1-0.5-7.4-1.4c-1.8-0.7-4.8-3.3-6.4-4.5c-2.6-2-3.3-5.5-4.7-8.5c-1.3-2.7-3.6-4.9-3.6-8.1
		c0-3.2,0.7-6.3,2.1-9c1.5-3,4.5-5.4,7.1-7.3c3.4-2.6,11.5-5.8,16.2-5.8c2,0,3.6,1.1,5.4,1.6c1.9,0.6,4.1,0.6,5.8,1.6
		c3,1.9,3.9,4.9,5.5,8.1C225.5,30.3,228,33.3,228,36.8z"/>
	<path id="XMLID_23_" class="st1" d="M229.3,36.8c0,2.6-1.4,4.8-2.3,7.2c-1.2,3.4-2.3,6.7-4.9,9.1c-2,1.9-5,2.7-7.6,3.7
		c-2.4,0.9-4.5,2.1-7.3,2.1c-2.8,0-5.4-0.5-7.9-1.4c-1.9-0.7-3.7-1.7-5.3-2.9c-2.8-2.1-3.5-5.9-5.1-9c-1.4-2.9-3.8-5.2-3.8-8.7
		c0-3.5,0.8-6.7,2.2-9.6c1.6-3.2,4.8-5.7,7.6-7.8c3.7-2.7,7.3-4.6,12.3-4.6c2.1,0,3.8,1.2,5.8,1.7c2.1,0.6,4.3,0.6,6.1,1.7
		c3.2,2,4.1,5.2,5.9,8.6C226.7,29.9,229.3,33,229.3,36.8z"/>
	<path id="XMLID_21_" class="st2" d="M227.1,36.8c0,2.3-1.3,4.4-2,6.4c-1.1,3.1-2.1,6-4.4,8.2c-1.8,1.7-4.5,2.4-6.9,3.3
		c-2.2,0.8-4,1.9-6.5,1.9c-2.5,0-4.9-0.5-7.1-1.3c-1.7-0.7-3.3-1.5-4.8-2.6c-2.5-1.9-3.2-5.3-4.5-8.1c-1.3-2.6-3.4-4.7-3.4-7.8
		c0-3.1,0.7-6,2-8.7c1.4-2.9,4.3-5.1,6.8-7c3.3-2.5,6.6-4.1,11-4.1c1.9,0,3.4,1.1,5.2,1.6c1.9,0.5,3.9,0.5,5.5,1.6
		c2.9,1.8,3.7,4.7,5.3,7.7C224.8,30.6,227.1,33.4,227.1,36.8z"/>
	<path id="XMLID_17_" class="st3" d="M223.3,27.8c-1.6-3-2.4-5.9-5.3-7.7c-1.6-1-3.6-1-5.5-1.6c-1.7-0.5-3.3-1.6-5.2-1.6
		c-4.4,0-7.7,1.7-11,4.1c-2.5,1.9-5.4,4.2-6.8,7c-1.3,2.6-2,5.6-2,8.7c0,3.1,2.2,5.2,3.4,7.8c1.4,2.9,2,6.2,4.5,8.1
		c1.4,1.1,3.1,2,4.8,2.6c2.2,0.8,4.6,1.3,7.1,1.3c2.5,0,4.3-1.1,6.5-1.9c2.4-0.9,5-1.6,6.9-3.3c2.4-2.2,3.3-5.1,4.4-8.2
		c0.7-2.1,2-4.1,2-6.4C227.1,33.4,224.8,30.6,223.3,27.8z M224.1,37.3c-0.1,0.4-0.5,0.7-0.9,0.7c-0.2,0-0.4,0-0.6,0.1
		c-0.5,0.3,0.2,1,0.1,1.6c-0.3,0.2-0.7,0.3-1,0.2c-0.1-0.5-0.7-0.8-1.2-0.6c-0.5,0.2-0.7,0.8-0.5,1.2c0.3-0.2,0.7-0.1,0.9,0.2
		c0.2,0.3,0.2,0.7-0.1,0.9c-0.2,0.2-0.4,0.2-0.6,0.4c-0.4,0.4,0.2,1.2,0.7,0.9c0.4,0.7-0.4,1.5-1.1,1.9c0.8,0.1,1.1,1.5,0.3,1.9
		c-0.5,0.2-1.3,0.3-1.2,0.8c0.7,0,0.9,1.1,0.4,1.4c-0.2,0.1-0.4,0.2-0.6,0.2c-1.2,0.2-2.4,0.2-3.6,0.2c-0.2,0.4-0.1,0.9,0.3,1.1
		c-0.5,0.5-1.6-0.2-1.4-0.9c-0.3-0.1-0.7-0.2-1-0.1s-0.6,0.4-0.6,0.7c0,0.4,0.6,0.8,0.4,1.2c-0.2,0.3-0.7,0.2-0.9,0.4
		c-0.3,0.3,0.1,0.9,0,1.3c-0.1,0.5-0.7,0.6-1.2,0.4c-0.4-0.2-0.9-0.5-1.3-0.4c-0.5,0-0.9,0.6-0.6,0.9c0,0.6-0.9,0.7-1.4,0.4
		c-0.5-0.3-1-0.8-1.6-0.8c-0.6,0-1.1,0.7-1.7,0.5c-0.6-0.2-0.8-1-1.3-1.4c-0.4-0.3-0.9-0.3-1.4-0.4c-0.5-0.2-0.9-0.7-0.6-1.1
		c0.2-0.3,0.7-0.2,1-0.4c0.3-0.2,0.3-0.7,0.2-1.1c-0.1-0.4-0.2-0.9-0.5-1.1c-0.3-0.3-0.9-0.2-1.1,0.2c-0.1,0.2,0,0.5-0.1,0.7
		c-0.2,0.4-0.8,0.3-1.2,0c-0.4-0.3-0.9-0.6-1.3-0.3c-0.1,0.1-0.2,0.3-0.3,0.4c-0.3,0.4-0.9,0.4-1.4,0.2c-0.5-0.2-0.9-0.5-1.4-0.6
		c-0.5-0.1-0.5-0.3-0.8-0.3c-0.6-0.2-0.6,0.2-0.8-0.7c-0.1-0.4-0.4-0.7-0.5-1.1c-0.2-1.1,1.5-2.1,1-3.1c-0.2-0.4-0.8-0.6-1-1
		c-0.4-0.8,0.6-1.8,0-2.5c-0.3-0.3-0.8-0.3-1.1-0.7c-0.2-0.2-0.2-0.5-0.3-0.8c-0.4-1-1.8-1.6-1.6-2.6c0.2-0.7,1.1-1,1.3-1.7
		c0.2-0.7-0.3-1.5,0.1-2.1c0.4-0.6,1.5-0.5,1.6-1.2c0.1-0.4-0.2-0.7-0.4-1c-0.2-0.3-0.3-0.8,0-1c0.1-0.1,0.3-0.1,0.4-0.1
		c0.7-0.1,1.6-0.2,1.8-0.9c0.2-0.6-0.4-1.6,0.1-1.8c0.2-0.1,0.4,0,0.6-0.2c0.3-0.2,0-0.7-0.2-0.9c-0.3-0.2-0.6-0.5-0.5-0.9
		c0.1-0.2,0.3-0.3,0.5-0.4c0.4-0.2,1-0.3,1.4-0.1c0.6,0.3,1,1.3,1.7,1c0.4-0.2,0.4-0.8,0.7-1.1c0.7-0.7,2.3,0.5,3-0.3
		c0.4-0.5,0.1-1.4,0.6-1.8c0.4,0.5,1.2,0.6,1.7,0.2c0.5-0.4,0.6-1.1,0.2-1.6c0.7,0,1.3-0.5,1.6-1.2c0.6-0.4,1.4,0.1,1.9,0.7
		c0.5,0.6,1,1.2,1.7,1.3c0.5,0.1,1-0.2,1.5-0.2c0.5,0,1.1,0.6,0.7,1c-0.1,0.2-0.4,0.2-0.5,0.3c-0.3,0.3-0.3,0.8,0.1,1.1
		c0.5,0.3,1.3-0.2,1.8,0c0.4,0.2,0.6,0.7,0.7,1.1c0.6,0.5,1.2-0.7,1.9-0.7c0.3,0,0.6,0.2,0.9,0.2c0.3,0,0.4-0.2,0.7-0.4
		c0.5-0.3,1.1-0.3,1.6,0c0.5,0.3,0.7,0.9,0.6,1.5c-0.1,0.5-0.4,1-0.2,1.4c0.2,0.3,0.6,0.4,1,0.6c0.4,0.1,0.7,0.5,0.5,0.9
		c-0.1,0.2-0.5,0.3-0.6,0.5c-0.2,0.3,0,0.7,0.4,0.9c0.3,0.2,0.7,0.3,1,0.5c0.3,0.2,0.4,0.7,0.1,1c-0.5,0.1-0.9,0.2-1.3,0.5
		c-0.3,0.3-0.4,1,0,1.2c0.5,0.3,1.4-0.1,1.6,0.4c0.1,0.4-0.3,0.7-0.7,0.8c0.6,0.5,1.5,0.7,2.3,0.5c0.2,0.5,0.1,1.1-0.3,1.5
		C224,36.4,224.2,36.9,224.1,37.3z"/>
	<path id="XMLID_16_" class="st4" d="M208.4,51.2c-0.4,0.5-1.4,0-1.7-0.5c-0.4-0.5-0.5-1.2-0.7-1.7c-0.2-0.3-0.4-0.6-0.5-1
		c-0.2-0.7,0.1-1.4-0.1-2.1c-0.1-0.5-0.5-1-0.5-1.5c0-0.5,0.4-0.9,0.3-1.4c0-0.4-0.4-0.8-0.8-0.8c-0.4,0-0.9,0.2-1,0.7
		c-0.1,0.2,0,0.4-0.2,0.6c-0.3,0.4-1,0.3-1.4,0.6c-0.4,0.4,0,1.2-0.4,1.7c-0.4,0.5-1.3,0.1-1.8,0.5c-0.2,0.1-0.3,0.3-0.5,0.5
		c-0.4,0.4-1.1,0.5-1.6,0.2c-0.5-0.3-0.7-0.9-0.6-1.5c0.1-0.3,0.2-0.5,0.2-0.8c0-0.5-0.8-1-0.5-1.5c0.1-0.2,0.4-0.3,0.6-0.3
		c1-0.3,1.8-1.3,1.9-2.4c0.7,0.1,1.4-0.8,1-1.4c-0.6-0.7-1.8,0.1-2.6-0.5c-0.2-0.1-0.3-0.3-0.5-0.5c-0.4-0.3-0.9-0.1-1.3,0.1
		c-0.4,0.2-0.8,0.5-1.2,0.7c-0.7,0.3-1.6,0-2.1-0.6c-0.2-0.3-0.3-0.6-0.2-0.9c0.1-0.2,0.2-0.3,0.4-0.4c0.3-0.3,0.4-0.8,0.2-1.3
		c0.5-0.7,1.8-0.2,2.5-0.8c0.2-0.1,0.3-0.3,0.5-0.5c0.7-0.4,1.7,0.6,2.5,0.2c0.3-0.2,0.5-0.5,0.8-0.7c0.6-0.4,1.3-0.1,1.9,0.3
		c0.2-0.5,0.2-1.2-0.2-1.5c-0.3-0.2-0.7-0.1-1-0.1c-0.3,0-0.7,0-0.9-0.4c-0.1-0.4,0.3-0.8,0.1-1.2c-0.1-0.3-0.6-0.4-0.9-0.6
		c-0.3-0.2-0.4-0.7-0.4-1.1c0-0.4,0.2-0.8,0.3-1.2c0-0.3,0-0.6,0.2-0.8c0.3-0.4,1-0.3,1.4,0c0.4,0.3,0.8,0.7,1.3,0.8
		c0.7,0.1,1.7-0.4,2.2,0.2c0.1,0.2,0.1,0.4,0.2,0.7c0.1,0.4,0.3,0.8,0.7,1c0.4,0.1,0.9-0.1,1-0.5c0.1-0.5-0.4-1-0.3-1.4
		c0.1-0.4,0.7-0.6,0.9-1c0.2-0.7-0.8-1.6-0.3-2.1c0.1-0.1,0.3-0.2,0.4-0.3c0.2-0.4-0.6-0.8-0.4-1.3c0-0.1,0.2-0.2,0.3-0.3
		c0.7-0.4,1.7-0.1,2.2,0.5c0.3,0.4,0.4,1,0.7,1.4c0.4,0.4,1.1,0.6,1.2,1.2c0.1,0.7-0.9,1.3-0.7,2c0.2,0.5,0.8,0.6,1.3,0.5
		s1-0.4,1.5-0.3c-0.2-0.4,0.5-0.7,0.9-0.6c0.4,0,1.1,0,1.1-0.5c0.5-0.4,1.3,0.1,1.6,0.7c0.3,0.6,0.4,1.3,0.8,1.9
		c0.1,0.3-0.2,0.6-0.5,0.7c-0.3,0.1-0.7,0.3-0.7,0.6c0,0.4,0.5,0.6,0.5,1c0,0.5-0.8,0.5-1.1,0.9c-0.2,0.4,0,0.9,0.4,1
		s0.8,0.1,1.3,0.2c0.4,0,0.9,0.2,1.1,0.5c0.1,0.1,0.1,0.3,0.2,0.4c0.1,0.2,0.4,0.2,0.6,0.1c0.6,0,1.1-0.1,1.7-0.1c0.3,0,0.7,0,1,0.1
		s0.5,0.5,0.4,0.8c-0.2,0.6-1.3,0.5-1.4,1.1c0,0.3,0.3,0.6,0.4,0.9c0.1,0.3-0.2,0.7-0.5,0.8s-0.7,0.1-1-0.1
		c-0.2-0.1-0.4-0.2-0.7-0.2c-0.2,0-0.5,0.1-0.5,0.4c0,0.2,0.1,0.4,0,0.6c-0.1,0.1-0.2,0.1-0.3,0.1c-0.3,0-0.7,0-1-0.1
		c-0.3-0.1-0.6-0.3-0.9-0.4c-0.3-0.1-0.7-0.2-0.9-0.1s-0.4,0.6-0.1,0.8c-0.6-0.2-1.5-0.2-1.7,0.4c-0.2,0.6,0.6,1.1,1.3,1.2
		s1.5-0.1,1.9,0.5c0.2,0.3,0.3,0.8,0.6,1c0.5,0.3,1.3-0.3,1.8,0.1c0.3,0.2,0.3,0.8,0,1.1c-0.3,0.3-0.7,0.4-1.1,0.5
		c0.2,0.5,0.4,1.2-0.1,1.5c-0.3,0.2-0.7,0.1-1.1,0s-0.9,0-1,0.4c-0.5,0.3-1.1-0.3-1.4-0.8c-0.3-0.5-0.5-1.2-1.1-1.3
		c-0.2,0-0.4,0-0.6-0.1c-0.6-0.2-0.6-1.1-1.1-1.5c-0.3-0.2-0.8-0.2-1.1,0c-0.3,0.3-0.4,0.8-0.2,1.1c0.2,0.4,0.8,0.6,0.7,1.1
		c-0.1,0.5-0.8,0.5-1,0.9c-0.4,0.6,0.6,1.5,0.3,2.2c-0.1,0.1-0.2,0.3-0.1,0.4c0,0.2,0.1,0.3,0.2,0.4c0.3,0.4,0.3,0.9,0,1.3
		C209.3,51.1,208.9,51.3,208.4,51.2"/>
	<g id="Calque_2_-_copie_3">
		<g id="Calque_4_-_copie_3">
			<path id="XMLID_83_" class="st1" d="M208.3,34l-0.4-5.8l-0.6-8.9v-0.5l0,0.3l0-0.2v0.4l-0.6,8.9l-0.4,5.8c-0.1,1.8-0.1,3.6,0,5.4
				l0.4,6.3l0.6,8.5v0.5l0-0.3l0,0.2v-0.4l0.6-8.5l0.4-6.3C208.5,37.6,208.5,35.8,208.3,34z"/>
			<path id="XMLID_82_" class="st1" d="M209.9,35.6l3.8-4.4l5.9-6.8l0.4-0.4l-0.2,0.2l0.1-0.2l-0.3,0.3l-6.8,5.9l-4.4,3.8
				c-1.4,1.2-2.6,2.4-3.8,3.8l-4.1,4.8l-5.6,6.4l-0.4,0.4l0.2-0.2l-0.1,0.2l0.3-0.3l6.4-5.6l4.8-4.1
				C207.5,38.2,208.8,36.9,209.9,35.6z"/>
			<path id="XMLID_81_" class="st1" d="M206.1,34.1l-4.4-3.8l-6.8-5.9l-0.4-0.4l0.2,0.2l-0.2-0.1l0.3,0.3l5.9,6.8l3.8,4.4
				c1.2,1.4,2.4,2.6,3.8,3.8l4.8,4.1l6.4,5.6l0.4,0.4l-0.2-0.2l0.2,0.1l-0.3-0.3l-5.6-6.4l-4.1-4.8
				C208.7,36.5,207.4,35.2,206.1,34.1z"/>
			<path id="XMLID_80_" class="st1" d="M204.5,35.7l-5.8,0.4l-8.9,0.6h-0.5l0.3,0l-0.2,0h0.4l8.9,0.6l5.8,0.4c1.8,0.1,3.6,0.1,5.4,0
				l6.3-0.4l8.5-0.6h0.5l-0.3,0l0.2,0h-0.4l-8.5-0.6l-6.3-0.4C208.1,35.6,206.3,35.6,204.5,35.7z"/>
		</g>
		<g id="Calque_3_-_copie_3" class="st5">
			<path id="XMLID_79_" class="st6" d="M152.1,120.8l-0.7-19.4l-1.1-29.8v-1.8l0,0.9l0-0.7v1.5l-1.1,29.8l-0.7,19.4
				c-0.2,6-0.2,12,0,18l0.8,21.1l1,28.5v1.8l0-0.9l0,0.7v-1.5l1-28.5l0.8-21.1C152.3,132.8,152.3,126.8,152.1,120.8z"/>
			<path id="XMLID_78_" class="st6" d="M158,124.8l13.2-14.2l20.3-21.9l1.3-1.3l-0.7,0.6l0.5-0.5l-1,1l-21.9,20.3l-14.2,13.2
				c-4.4,4.1-8.6,8.3-12.7,12.7l-14.4,15.5L109,171.1l-1.3,1.3l0.7-0.6l-0.5,0.5l1-1l20.9-19.4l15.5-14.4
				C149.6,133.4,153.9,129.2,158,124.8z"/>
			<path id="XMLID_77_" class="st6" d="M159.3,131.8l19.4-0.7l29.8-1.1h1.8l-0.9,0l0.7,0h-1.5l-29.8-1.1l-19.4-0.7
				c-6-0.2-12-0.2-18,0l-21.1,0.8l-28.5,1h-1.8l0.9,0l-0.7,0h1.5l28.5,1l21.1,0.8C147.3,132,153.4,132,159.3,131.8z"/>
			<path id="XMLID_76_" class="st6" d="M155.4,137.7l14.2,13.2l21.9,20.3l1.3,1.3l-0.6-0.7l0.5,0.5l-1-1l-20.3-21.9l-13.2-14.2
				c-4.1-4.4-8.3-8.6-12.7-12.7l-15.5-14.4L109,88.7l-1.3-1.3l0.6,0.7l-0.5-0.5l1,1l19.4,20.9l14.4,15.5
				C146.7,129.3,151,133.6,155.4,137.7z"/>
		</g>
	</g>
</g>
<g id="Calque_5_-_copie_4">
	<path id="XMLID_15_" class="st0" d="M274.2,87.5c0,2.4-1.3,4.5-2.1,6.7c-1.1,3.2-5.4,9.4-7.9,11.7c-1.9,1.7-4.7,2.5-7.2,3.5
		c-2.3,0.9-4.2,2-6.8,2c-2.6,0-5.1-0.5-7.4-1.4c-1.8-0.7-4.8-3.3-6.4-4.5c-2.6-2-3.3-5.5-4.7-8.5c-1.3-2.7-3.6-4.9-3.6-8.1
		c0-3.2,0.7-6.3,2.1-9c1.5-3,4.5-5.4,7.1-7.3c3.4-2.6,11.5-5.8,16.2-5.8c2,0,3.6,1.1,5.4,1.6c1.9,0.6,4.1,0.6,5.8,1.6
		c3,1.9,3.9,4.9,5.5,8.1C271.8,81,274.2,84,274.2,87.5z"/>
	<path id="XMLID_14_" class="st1" d="M275.7,87.5c0,2.6-1.4,4.9-2.3,7.2c-1.2,3.4-2.3,6.7-4.9,9.2c-2,1.9-5,2.7-7.7,3.7
		c-2.5,0.9-4.5,2.1-7.3,2.1c-2.8,0-5.4-0.5-7.9-1.4c-1.9-0.7-3.7-1.7-5.3-2.9c-2.8-2.1-3.5-5.9-5.1-9.1c-1.4-2.9-3.8-5.2-3.8-8.7
		c0-3.5,0.8-6.8,2.2-9.7c1.6-3.2,4.8-5.7,7.6-7.8c3.7-2.7,7.4-4.6,12.3-4.6c2.1,0,3.8,1.2,5.8,1.7c2.1,0.6,4.4,0.6,6.2,1.7
		c3.2,2,4.1,5.3,5.9,8.6C273,80.5,275.7,83.7,275.7,87.5z"/>
	<path id="XMLID_13_" class="st2" d="M273.4,87.5c0,2.3-1.3,4.4-2,6.4c-1.1,3.1-2.1,6-4.4,8.2c-1.8,1.7-4.5,2.4-6.9,3.3
		c-2.2,0.8-4,1.9-6.5,1.9c-2.5,0-4.9-0.5-7.1-1.3c-1.7-0.7-3.3-1.5-4.8-2.6c-2.5-1.9-3.2-5.3-4.5-8.1c-1.3-2.6-3.4-4.7-3.4-7.8
		c0-3.1,0.7-6,2-8.7c1.4-2.9,4.3-5.1,6.8-7c3.3-2.5,6.6-4.1,11-4.1c1.9,0,3.4,1.1,5.2,1.6c1.9,0.5,3.9,0.5,5.5,1.6
		c2.9,1.8,3.7,4.7,5.3,7.7C271,81.3,273.4,84.1,273.4,87.5z"/>
	<path id="XMLID_10_" class="st3" d="M269.5,78.5c-1.6-3-2.4-5.9-5.3-7.7c-1.6-1-3.6-1-5.5-1.6c-1.7-0.5-3.3-1.6-5.2-1.6
		c-4.4,0-7.7,1.7-11,4.1c-2.5,1.9-5.4,4.2-6.8,7c-1.3,2.6-2,5.6-2,8.7c0,3.1,2.2,5.2,3.4,7.8c1.4,2.9,2,6.2,4.5,8.1
		c1.4,1.1,3.1,2,4.8,2.6c2.2,0.8,4.6,1.3,7.1,1.3c2.5,0,4.3-1.1,6.5-1.9c2.4-0.9,5-1.6,6.9-3.3c2.4-2.2,3.3-5.1,4.4-8.2
		c0.7-2.1,2-4.1,2-6.4C273.4,84.1,271,81.3,269.5,78.5z M270.4,88c-0.1,0.4-0.5,0.7-0.9,0.7c-0.2,0-0.4,0-0.6,0.1
		c-0.5,0.3,0.2,1,0.1,1.6c-0.3,0.2-0.7,0.3-1,0.2c-0.1-0.5-0.7-0.8-1.2-0.6c-0.5,0.2-0.7,0.8-0.5,1.2c0.3-0.2,0.7-0.1,0.9,0.2
		c0.2,0.3,0.2,0.7-0.1,0.9c-0.2,0.2-0.4,0.2-0.6,0.4c-0.4,0.4,0.2,1.2,0.7,0.9c0.4,0.7-0.4,1.5-1.1,1.9c0.8,0.1,1.1,1.5,0.3,1.9
		c-0.5,0.2-1.3,0.3-1.2,0.8c0.7,0,0.9,1.1,0.4,1.4c-0.2,0.1-0.4,0.2-0.6,0.2c-1.2,0.2-2.4,0.2-3.6,0.2c-0.2,0.4-0.1,0.9,0.3,1.1
		c-0.5,0.5-1.6-0.2-1.4-0.9c-0.3-0.1-0.7-0.2-1-0.1c-0.3,0.1-0.6,0.4-0.6,0.7c0,0.4,0.6,0.8,0.4,1.2c-0.2,0.3-0.7,0.2-0.9,0.4
		c-0.3,0.3,0.1,0.9,0,1.3c-0.1,0.5-0.7,0.6-1.2,0.4c-0.4-0.2-0.9-0.5-1.3-0.4c-0.5,0-0.9,0.6-0.6,0.9c0,0.6-0.9,0.7-1.4,0.4
		c-0.5-0.3-1-0.8-1.6-0.8c-0.6,0-1.1,0.7-1.7,0.5c-0.6-0.2-0.8-1-1.3-1.4c-0.4-0.3-0.9-0.3-1.4-0.4s-0.9-0.7-0.6-1.1
		c0.2-0.3,0.7-0.2,1-0.4c0.3-0.2,0.3-0.7,0.2-1.1c-0.1-0.4-0.2-0.9-0.5-1.1c-0.3-0.3-0.9-0.2-1.1,0.2c-0.1,0.2,0,0.5-0.1,0.7
		c-0.2,0.4-0.8,0.3-1.2,0c-0.4-0.3-0.9-0.6-1.3-0.3c-0.1,0.1-0.2,0.3-0.3,0.4c-0.3,0.4-0.9,0.4-1.4,0.2c-0.5-0.2-0.9-0.5-1.4-0.6
		c-0.5-0.1-0.5-0.3-0.8-0.3c-0.6-0.2-0.6,0.2-0.8-0.7c-0.1-0.4-0.4-0.7-0.5-1.1c-0.2-1.1,1.5-2.1,1-3.1c-0.2-0.4-0.8-0.6-1-1
		c-0.4-0.8,0.6-1.8,0-2.5c-0.3-0.3-0.8-0.3-1.1-0.7c-0.2-0.2-0.2-0.5-0.3-0.8c-0.4-1-1.8-1.6-1.6-2.6c0.2-0.7,1.1-1,1.3-1.7
		c0.2-0.7-0.3-1.5,0.1-2.1c0.4-0.6,1.5-0.5,1.6-1.2c0.1-0.4-0.2-0.7-0.4-1c-0.2-0.3-0.3-0.8,0-1c0.1-0.1,0.3-0.1,0.4-0.1
		c0.7-0.1,1.6-0.2,1.8-0.9c0.2-0.6-0.4-1.6,0.1-1.8c0.2-0.1,0.4,0,0.6-0.2c0.3-0.2,0-0.7-0.2-0.9c-0.3-0.2-0.6-0.5-0.5-0.9
		c0.1-0.2,0.3-0.3,0.5-0.4c0.4-0.2,1-0.3,1.4-0.1c0.6,0.3,1,1.3,1.7,1c0.4-0.2,0.4-0.8,0.7-1.1c0.7-0.7,2.3,0.5,3-0.3
		c0.4-0.5,0.1-1.4,0.6-1.8c0.4,0.5,1.2,0.6,1.7,0.2c0.5-0.4,0.6-1.1,0.2-1.6c0.7,0,1.3-0.5,1.6-1.2c0.6-0.4,1.4,0.1,1.9,0.7
		c0.5,0.6,1,1.2,1.7,1.3c0.5,0.1,1-0.2,1.5-0.2c0.5,0,1.1,0.6,0.7,1c-0.1,0.2-0.4,0.2-0.5,0.3c-0.3,0.3-0.3,0.8,0.1,1.1
		c0.5,0.3,1.3-0.2,1.8,0c0.4,0.2,0.6,0.7,0.7,1.1c0.6,0.5,1.2-0.7,1.9-0.7c0.3,0,0.6,0.2,0.9,0.2c0.3,0,0.4-0.2,0.7-0.4
		c0.5-0.3,1.1-0.3,1.6,0c0.5,0.3,0.7,0.9,0.6,1.5c-0.1,0.5-0.4,1-0.2,1.4c0.2,0.3,0.6,0.4,1,0.6c0.4,0.1,0.7,0.5,0.5,0.9
		c-0.1,0.2-0.5,0.3-0.6,0.5c-0.2,0.3,0,0.7,0.4,0.9c0.3,0.2,0.7,0.3,1,0.5c0.3,0.2,0.4,0.7,0.1,1c-0.5,0.1-0.9,0.2-1.3,0.5
		c-0.3,0.3-0.4,1,0,1.2c0.5,0.3,1.4-0.1,1.6,0.4c0.1,0.4-0.3,0.7-0.7,0.8c0.6,0.5,1.5,0.7,2.3,0.5c0.2,0.5,0.1,1.1-0.3,1.5
		C270.2,87.1,270.5,87.6,270.4,88z"/>
	<path id="XMLID_9_" class="st4" d="M254.7,101.9c-0.4,0.5-1.4,0-1.7-0.5c-0.4-0.5-0.5-1.2-0.7-1.7c-0.2-0.3-0.4-0.6-0.5-1
		c-0.2-0.7,0.1-1.4-0.1-2.1c-0.1-0.5-0.5-1-0.5-1.5c0-0.5,0.4-0.9,0.3-1.4c0-0.4-0.4-0.8-0.8-0.8c-0.4,0-0.9,0.2-1,0.7
		c-0.1,0.2,0,0.4-0.2,0.6c-0.3,0.4-1,0.3-1.4,0.6c-0.4,0.4,0,1.2-0.4,1.7c-0.4,0.5-1.3,0.1-1.8,0.5c-0.2,0.1-0.3,0.3-0.5,0.5
		c-0.4,0.4-1.1,0.5-1.6,0.2c-0.5-0.3-0.7-0.9-0.6-1.5c0.1-0.3,0.2-0.5,0.2-0.8c0-0.5-0.8-1-0.5-1.5c0.1-0.2,0.4-0.3,0.6-0.3
		c1-0.3,1.8-1.3,1.9-2.4c0.7,0.1,1.4-0.8,1-1.4c-0.6-0.7-1.8,0.1-2.6-0.5c-0.2-0.1-0.3-0.3-0.5-0.5c-0.4-0.3-0.9-0.1-1.3,0.1
		s-0.8,0.5-1.2,0.7c-0.7,0.3-1.6,0-2.1-0.6c-0.2-0.3-0.3-0.6-0.2-0.9c0.1-0.2,0.2-0.3,0.4-0.4c0.3-0.3,0.4-0.8,0.2-1.3
		c0.5-0.7,1.8-0.2,2.5-0.8c0.2-0.1,0.3-0.3,0.5-0.5c0.7-0.4,1.7,0.6,2.5,0.2c0.3-0.2,0.5-0.5,0.8-0.7c0.6-0.4,1.3-0.1,1.9,0.3
		c0.2-0.5,0.2-1.2-0.2-1.5c-0.3-0.2-0.7-0.1-1-0.1s-0.7,0-0.9-0.4c-0.1-0.4,0.3-0.8,0.1-1.2c-0.1-0.3-0.6-0.4-0.9-0.6
		c-0.3-0.2-0.4-0.7-0.4-1.1s0.2-0.8,0.3-1.2c0-0.3,0-0.6,0.2-0.8c0.3-0.4,1-0.3,1.4,0c0.4,0.3,0.8,0.7,1.3,0.8
		c0.7,0.1,1.7-0.4,2.2,0.2c0.1,0.2,0.1,0.4,0.2,0.7c0.1,0.4,0.3,0.8,0.7,1s0.9-0.1,1-0.5c0.1-0.5-0.4-1-0.3-1.4
		c0.1-0.4,0.7-0.6,0.9-1c0.2-0.7-0.8-1.6-0.3-2.1c0.1-0.1,0.3-0.2,0.4-0.3c0.2-0.4-0.6-0.8-0.4-1.3c0-0.1,0.2-0.2,0.3-0.3
		c0.7-0.4,1.7-0.1,2.2,0.5c0.3,0.4,0.4,1,0.7,1.4c0.4,0.4,1.1,0.6,1.2,1.2c0.1,0.7-0.9,1.3-0.7,2c0.2,0.5,0.8,0.6,1.3,0.5
		c0.5-0.1,1-0.4,1.5-0.3c-0.2-0.4,0.5-0.7,0.9-0.6c0.4,0,1.1,0,1.1-0.5c0.5-0.4,1.3,0.1,1.6,0.7c0.3,0.6,0.4,1.3,0.8,1.9
		c0.1,0.3-0.2,0.6-0.5,0.7c-0.3,0.1-0.7,0.3-0.7,0.6c0,0.4,0.5,0.6,0.5,1c0,0.5-0.8,0.5-1.1,0.9c-0.2,0.4,0,0.9,0.4,1
		c0.4,0.2,0.8,0.1,1.3,0.2c0.4,0,0.9,0.2,1.1,0.5c0.1,0.1,0.1,0.3,0.2,0.4c0.1,0.2,0.4,0.2,0.6,0.1c0.6,0,1.1-0.1,1.7-0.1
		c0.3,0,0.7,0,1,0.1c0.3,0.2,0.5,0.5,0.4,0.8c-0.2,0.6-1.3,0.5-1.4,1.1c0,0.3,0.3,0.6,0.4,0.9c0.1,0.3-0.2,0.7-0.5,0.8
		c-0.3,0.1-0.7,0.1-1-0.1c-0.2-0.1-0.4-0.2-0.7-0.2s-0.5,0.1-0.5,0.4c0,0.2,0.1,0.4,0,0.6c-0.1,0.1-0.2,0.1-0.3,0.1
		c-0.3,0-0.7,0-1-0.1c-0.3-0.1-0.6-0.3-0.9-0.4c-0.3-0.1-0.7-0.2-0.9-0.1c-0.3,0.2-0.4,0.6-0.1,0.8c-0.6-0.2-1.5-0.2-1.7,0.4
		c-0.2,0.6,0.6,1.1,1.3,1.2c0.7,0,1.5-0.1,1.9,0.5c0.2,0.3,0.3,0.8,0.6,1c0.5,0.3,1.3-0.3,1.8,0.1c0.3,0.2,0.3,0.8,0,1.1
		c-0.3,0.3-0.7,0.4-1.1,0.5c0.2,0.5,0.4,1.2-0.1,1.5c-0.3,0.2-0.7,0.1-1.1,0c-0.4-0.1-0.9,0-1,0.4c-0.5,0.3-1.1-0.3-1.4-0.8
		s-0.5-1.2-1.1-1.3c-0.2,0-0.4,0-0.6-0.1c-0.6-0.2-0.6-1.1-1.1-1.5c-0.3-0.2-0.8-0.2-1.1,0c-0.3,0.3-0.4,0.8-0.2,1.1
		c0.2,0.4,0.8,0.6,0.7,1.1c-0.1,0.5-0.8,0.5-1,0.9c-0.4,0.6,0.6,1.5,0.3,2.2c-0.1,0.1-0.2,0.3-0.1,0.4c0,0.2,0.1,0.3,0.2,0.4
		c0.3,0.4,0.3,0.9,0,1.3C255.6,101.8,255.1,102,254.7,101.9"/>
	<g id="Calque_2_-_copie_4">
		<g id="Calque_4_-_copie_4">
			<path id="XMLID_37_" class="st1" d="M254.6,84.7l-0.4-5.8l-0.6-8.9v-0.5l0,0.3l0-0.2V70l-0.6,8.9l-0.4,5.8
				c-0.1,1.8-0.1,3.6,0,5.4l0.4,6.3l0.6,8.5v0.5l0-0.3l0,0.2v-0.4l0.6-8.5l0.4-6.3C254.7,88.3,254.7,86.5,254.6,84.7z"/>
			<path id="XMLID_31_" class="st1" d="M256.2,86.3l3.8-4.4l5.9-6.8l0.4-0.4l-0.2,0.2l0.1-0.2l-0.3,0.3l-6.8,5.9l-4.4,3.8
				c-1.4,1.2-2.6,2.4-3.8,3.8l-4.1,4.8l-5.6,6.4l-0.4,0.4l0.2-0.2l-0.1,0.2l0.3-0.3l6.4-5.6l4.8-4.1C253.7,88.9,255,87.6,256.2,86.3
				z"/>
			<path id="XMLID_28_" class="st1" d="M252.3,84.8L248,81l-6.8-5.9l-0.4-0.4L241,75l-0.2-0.1l0.3,0.3l5.9,6.8l3.8,4.4
				c1.2,1.4,2.4,2.6,3.8,3.8l4.8,4.1l6.4,5.6l0.4,0.4L266,100l0.2,0.1l-0.3-0.3l-5.6-6.4l-4.1-4.8C255,87.2,253.7,85.9,252.3,84.8z"
				/>
			<path id="XMLID_26_" class="st1" d="M250.8,86.4l-5.8,0.4l-8.9,0.6h-0.5l0.3,0l-0.2,0h0.4l8.9,0.6l5.8,0.4c1.8,0.1,3.6,0.1,5.4,0
				l6.3-0.4l8.5-0.6h0.5l-0.3,0l0.2,0H271l-8.5-0.6l-6.3-0.4C254.4,86.3,252.6,86.3,250.8,86.4z"/>
		</g>
		<g id="Calque_3_-_copie_4" class="st5">
			<path id="XMLID_25_" class="st6" d="M152.1,120.8l-0.7-19.4l-1.1-29.8v-1.8l0,0.9l0-0.7v1.5l-1.1,29.8l-0.7,19.4
				c-0.2,6-0.2,12,0,18l0.8,21.1l1,28.5v1.8l0-0.9l0,0.7v-1.5l1-28.5l0.8-21.1C152.3,132.8,152.3,126.8,152.1,120.8z"/>
			<path id="XMLID_24_" class="st6" d="M158,124.8l13.2-14.2l20.3-21.9l1.3-1.3l-0.7,0.6l0.5-0.5l-1,1l-21.9,20.3l-14.2,13.2
				c-4.4,4.1-8.6,8.3-12.7,12.7l-14.4,15.5L109,171.1l-1.3,1.3l0.7-0.6l-0.5,0.5l1-1l20.9-19.4l15.5-14.4
				C149.6,133.4,153.9,129.2,158,124.8z"/>
			<path id="XMLID_22_" class="st6" d="M159.3,131.8l19.4-0.7l29.8-1.1h1.8l-0.9,0l0.7,0h-1.5l-29.8-1.1l-19.4-0.7
				c-6-0.2-12-0.2-18,0l-21.1,0.8l-28.5,1h-1.8l0.9,0l-0.7,0h1.5l28.5,1l21.1,0.8C147.3,132,153.4,132,159.3,131.8z"/>
			<path id="XMLID_19_" class="st6" d="M155.4,137.7l14.2,13.2l21.9,20.3l1.3,1.3l-0.6-0.7l0.5,0.5l-1-1l-20.3-21.9l-13.2-14.2
				c-4.1-4.4-8.3-8.6-12.7-12.7l-15.5-14.4L109,88.7l-1.3-1.3l0.6,0.7l-0.5-0.5l1,1l19.4,20.9l14.4,15.5
				C146.7,129.3,151,133.6,155.4,137.7z"/>
		</g>
	</g>
</g>
</svg>
