<?xml version="1.0" encoding="utf-8"?>
<!-- Generator: Adobe Illustrator 19.0.0, SVG Export Plug-In . SVG Version: 6.00 Build 0)  -->
<svg version="1.1" id="Calque_1" xmlns="http://www.w3.org/2000/svg" xmlns:xlink="http://www.w3.org/1999/xlink" x="0px" y="0px" width="1000px" height="1000px"
	 viewBox="0 0 1000 1000" style="enable-background:new 0 0 1000 1000;" xml:space="preserve">
<style type="text/css">
	.st0{fill:url(#XMLID_3_);}
	.st1{fill:url(#XMLID_19_);}
	.st2{opacity:0.36;fill:#997A4A;enable-background:new    ;}
	.st3{display:none;}
	.st4{display:inline;fill:url(#XMLID_20_);}
	.st5{display:inline;fill:url(#XMLID_21_);}
	.st6{display:inline;fill:url(#XMLID_22_);}
	.st7{display:inline;fill:url(#XMLID_23_);}
	.st8{display:inline;fill:url(#XMLID_24_);}
	.st9{display:inline;fill:url(#XMLID_25_);}
	.st10{display:inline;fill:url(#XMLID_26_);}
	.st11{display:inline;fill:url(#XMLID_27_);}
	.st12{display:inline;fill:url(#XMLID_28_);}
	.st13{display:inline;fill:url(#XMLID_29_);}
	.st14{display:inline;fill:url(#XMLID_30_);}
	.st15{display:inline;fill:url(#XMLID_31_);}
	.st16{display:inline;fill:url(#XMLID_32_);}
	.st17{display:inline;fill:url(#XMLID_33_);}
	.st18{display:inline;fill:url(#XMLID_34_);}
	.st19{display:inline;fill:url(#XMLID_35_);}
	.st20{display:inline;fill:url(#XMLID_36_);}
	.st21{display:inline;fill:url(#XMLID_37_);}
	.st22{display:inline;fill:url(#XMLID_38_);}
	.st23{display:inline;fill:url(#XMLID_39_);}
	.st24{display:inline;}
	.st25{fill:none;stroke:#343434;stroke-width:7;stroke-miterlimit:10;}
</style>
<radialGradient id="XMLID_3_" cx="501" cy="489.11" r="329.9" gradientTransform="matrix(1 0 0 -1 0 1000.11)" gradientUnits="userSpaceOnUse">
	<stop  offset="0" style="stop-color:#FECE62"/>
	<stop  offset="0.381" style="stop-color:#F5D96D"/>
	<stop  offset="1" style="stop-color:#F4DA6E"/>
</radialGradient>
<path id="XMLID_58_" class="st0" d="M501,181.1c-182.2,0-329.9,147.7-329.9,329.9S318.8,840.9,501,840.9S830.9,693.2,830.9,511
	S683.2,181.1,501,181.1z M501,742.3c-127.8,0-231.3-103.6-231.3-231.3S373.2,279.7,501,279.7S732.3,383.2,732.3,511
	S628.8,742.3,501,742.3z"/>
<radialGradient id="XMLID_19_" cx="501" cy="489.11" r="231.3" gradientTransform="matrix(1 0 0 -1 0 1000.11)" gradientUnits="userSpaceOnUse">
	<stop  offset="0.2786" style="stop-color:#ECB433"/>
	<stop  offset="0.7748" style="stop-color:#FECE62"/>
	<stop  offset="1" style="stop-color:#F4DA6E"/>
</radialGradient>
<circle id="XMLID_54_" class="st1" cx="501" cy="511" r="231.3"/>
<g id="圖層_3">
	<circle id="XMLID_15_" class="st2" cx="309.5" cy="463.1" r="7.1"/>
	<ellipse id="XMLID_55_" class="st2" cx="327" cy="432" rx="4.4" ry="4.1"/>
	<ellipse id="XMLID_16_" class="st2" cx="285.1" cy="369.9" rx="5.3" ry="5.1"/>
	<ellipse id="XMLID_59_" class="st2" cx="291.5" cy="438.9" rx="3" ry="2.8"/>
</g>
<g id="圖層_3_拷貝_2">
	<circle id="XMLID_67_" class="st2" cx="346.2" cy="620" r="7.1"/>
	<ellipse id="XMLID_66_" class="st2" cx="363.8" cy="589" rx="4.4" ry="4.1"/>
	<ellipse id="XMLID_65_" class="st2" cx="321.8" cy="526.8" rx="5.3" ry="5.1"/>
	<ellipse id="XMLID_64_" class="st2" cx="328.3" cy="595.9" rx="3" ry="2.8"/>
</g>
<g id="圖層_3_拷貝">
	<circle id="XMLID_63_" class="st2" cx="544.2" cy="681.8" r="7.1"/>
	<ellipse id="XMLID_62_" class="st2" cx="561.7" cy="650.8" rx="4.4" ry="4.1"/>
	<ellipse id="XMLID_61_" class="st2" cx="519.8" cy="588.6" rx="5.3" ry="5.1"/>
	<ellipse id="XMLID_60_" class="st2" cx="526.2" cy="657.7" rx="3" ry="2.8"/>
</g>
<g id="圖層_3_拷貝_5">
	<circle id="XMLID_99_" class="st2" cx="478" cy="384.9" r="7.1"/>
	<ellipse id="XMLID_98_" class="st2" cx="495.5" cy="353.9" rx="4.4" ry="4.1"/>
	<ellipse id="XMLID_90_" class="st2" cx="453.6" cy="291.7" rx="5.3" ry="5.1"/>
	<ellipse id="XMLID_76_" class="st2" cx="460" cy="360.8" rx="3" ry="2.8"/>
</g>
<g id="圖層_3_拷貝_4">
	<circle id="XMLID_108_" class="st2" cx="514.7" cy="541.9" r="7.1"/>
	<ellipse id="XMLID_107_" class="st2" cx="532.2" cy="510.8" rx="4.4" ry="4.1"/>
	<ellipse id="XMLID_106_" class="st2" cx="490.3" cy="448.7" rx="5.3" ry="5.1"/>
	<ellipse id="XMLID_105_" class="st2" cx="496.7" cy="517.7" rx="3" ry="2.8"/>
</g>
<g id="圖層_3_拷貝_3">
	<circle id="XMLID_71_" class="st2" cx="712.7" cy="603.7" r="7.1"/>
	<ellipse id="XMLID_70_" class="st2" cx="730.2" cy="572.6" rx="4.4" ry="4.1"/>
	<ellipse id="XMLID_69_" class="st2" cx="688.3" cy="510.5" rx="5.3" ry="5.1"/>
	<ellipse id="XMLID_68_" class="st2" cx="694.7" cy="579.6" rx="3" ry="2.8"/>
</g>
<g id="圖層_3_拷貝_8">
	<circle id="XMLID_111_" class="st2" cx="441.3" cy="513.6" r="7.1"/>
	
		<ellipse id="XMLID_110_" transform="matrix(-0.9962 8.753471e-002 -8.753471e-002 -0.9962 859.8281 960.0722)" class="st2" cx="408.9" cy="498.9" rx="4.1" ry="4.4"/>
	
		<ellipse id="XMLID_109_" transform="matrix(-0.9962 8.753471e-002 -8.753471e-002 -0.9962 747.615 1059.3252)" class="st2" cx="350.6" cy="546.1" rx="5.1" ry="5.3"/>
	
		<ellipse id="XMLID_104_" transform="matrix(-0.9962 8.753471e-002 -8.753471e-002 -0.9962 882.7294 1028.5986)" class="st2" cx="418.8" cy="533.7" rx="2.8" ry="3"/>
</g>
<g id="圖層_3_拷貝_7">
	<circle id="XMLID_120_" class="st2" cx="594.4" cy="463.3" r="7.1"/>
	
		<ellipse id="XMLID_119_" transform="matrix(-0.9962 8.753471e-002 -8.753471e-002 -0.9962 1160.9536 846.2022)" class="st2" cx="561.9" cy="448.6" rx="4.1" ry="4.4"/>
	
		<ellipse id="XMLID_117_" transform="matrix(-0.9962 8.753471e-002 -8.753471e-002 -0.9962 1048.9386 945.4293)" class="st2" cx="503.7" cy="495.7" rx="5.1" ry="5.3"/>
	
		<ellipse id="XMLID_116_" transform="matrix(-0.9962 8.753471e-002 -8.753471e-002 -0.9962 1184.053 914.7026)" class="st2" cx="572" cy="483.3" rx="2.8" ry="3"/>
</g>
<g id="圖層_3_拷貝_6">
	<circle id="XMLID_75_" class="st2" cx="638.6" cy="260.7" r="7.1"/>
	
		<ellipse id="XMLID_74_" transform="matrix(-0.9962 8.753471e-002 -8.753471e-002 -0.9962 1231.5151 437.7786)" class="st2" cx="606.2" cy="245.9" rx="4.1" ry="4.4"/>
	
		<ellipse id="XMLID_73_" transform="matrix(-0.9962 8.753471e-002 -8.753471e-002 -0.9962 1119.5264 537.2037)" class="st2" cx="548" cy="293.1" rx="5.1" ry="5.3"/>
	
		<ellipse id="XMLID_72_" transform="matrix(-0.9962 8.753471e-002 -8.753471e-002 -0.9962 1254.6145 506.279)" class="st2" cx="616.2" cy="280.6" rx="2.8" ry="3"/>
</g>
<g id="圖層_10" class="st3">
	
		<linearGradient id="XMLID_20_" gradientUnits="userSpaceOnUse" x1="754.1217" y1="312.81" x2="754.1217" y2="268.91" gradientTransform="matrix(1 0 0 -1 0 1000.11)">
		<stop  offset="0" style="stop-color:#8FC044"/>
		<stop  offset="0.1447" style="stop-color:#89BF45"/>
		<stop  offset="0.3381" style="stop-color:#7ABA48"/>
		<stop  offset="0.559" style="stop-color:#59B24B"/>
		<stop  offset="0.7984" style="stop-color:#25A94F"/>
		<stop  offset="1" style="stop-color:#08A651"/>
	</linearGradient>
	<path id="XMLID_139_" class="st4" d="M747.2,687.3c2.9,2,7.8,6,11,12.8c6.9,14.7-0.8,29.3-1.8,31.1c0.7-5.1,1.1-12.6-0.6-21.4
		C753.9,699.7,750.1,692,747.2,687.3z"/>
	
		<linearGradient id="XMLID_21_" gradientUnits="userSpaceOnUse" x1="766.7641" y1="323.71" x2="766.7641" y2="268.91" gradientTransform="matrix(1 0 0 -1 0 1000.11)">
		<stop  offset="0" style="stop-color:#8FC044"/>
		<stop  offset="0.1447" style="stop-color:#89BF45"/>
		<stop  offset="0.3381" style="stop-color:#7ABA48"/>
		<stop  offset="0.559" style="stop-color:#59B24B"/>
		<stop  offset="0.7984" style="stop-color:#25A94F"/>
		<stop  offset="1" style="stop-color:#08A651"/>
	</linearGradient>
	<path id="XMLID_141_" class="st5" d="M761,731.2c0,0,12.3-34,2.4-54.8c8.5,6.5,10.7,28.6,8.1,35.3C768.9,718.5,761,731.2,761,731.2
		z"/>
	
		<linearGradient id="XMLID_22_" gradientUnits="userSpaceOnUse" x1="782.8" y1="301.0694" x2="782.8" y2="264.5069" gradientTransform="matrix(1 0 0 -1 0 1000.11)">
		<stop  offset="0" style="stop-color:#8FC044"/>
		<stop  offset="0.1447" style="stop-color:#89BF45"/>
		<stop  offset="0.3381" style="stop-color:#7ABA48"/>
		<stop  offset="0.559" style="stop-color:#59B24B"/>
		<stop  offset="0.7984" style="stop-color:#25A94F"/>
		<stop  offset="1" style="stop-color:#08A651"/>
	</linearGradient>
	<path id="XMLID_142_" class="st6" d="M767.3,735.6c0,0,7.6-25.9,13.1-29.8c8.3-5.9,17.9-6.8,17.9-6.8S774.6,711.9,767.3,735.6z"/>
	
		<linearGradient id="XMLID_23_" gradientUnits="userSpaceOnUse" x1="786.85" y1="285.8194" x2="786.85" y2="260.3194" gradientTransform="matrix(1 0 0 -1 0 1000.11)">
		<stop  offset="0" style="stop-color:#8FC044"/>
		<stop  offset="0.1447" style="stop-color:#89BF45"/>
		<stop  offset="0.3381" style="stop-color:#7ABA48"/>
		<stop  offset="0.559" style="stop-color:#59B24B"/>
		<stop  offset="0.7984" style="stop-color:#25A94F"/>
		<stop  offset="1" style="stop-color:#08A651"/>
	</linearGradient>
	<path id="XMLID_140_" class="st7" d="M772.6,739.8c0,0,3.3-18.3,9.9-21.3s18.6-4.3,18.6-4.3s-17.6,5.5-21.3,10.4
		C776.4,729.3,772.6,739.8,772.6,739.8z"/>
</g>
<g id="圖層_10_拷貝" class="st3">
	
		<linearGradient id="XMLID_24_" gradientUnits="userSpaceOnUse" x1="547.2217" y1="442.21" x2="547.2217" y2="398.31" gradientTransform="matrix(1 0 0 -1 0 1000.11)">
		<stop  offset="0" style="stop-color:#8FC044"/>
		<stop  offset="0.1447" style="stop-color:#89BF45"/>
		<stop  offset="0.3381" style="stop-color:#7ABA48"/>
		<stop  offset="0.559" style="stop-color:#59B24B"/>
		<stop  offset="0.7984" style="stop-color:#25A94F"/>
		<stop  offset="1" style="stop-color:#08A651"/>
	</linearGradient>
	<path id="XMLID_146_" class="st8" d="M540.3,557.9c2.9,2,7.8,6,11,12.8c6.9,14.7-0.8,29.3-1.8,31.1c0.7-5.1,1.1-12.6-0.6-21.4
		C547,570.2,543.2,562.6,540.3,557.9z"/>
	
		<linearGradient id="XMLID_25_" gradientUnits="userSpaceOnUse" x1="559.8641" y1="453.1438" x2="559.8641" y2="398.3438" gradientTransform="matrix(1 0 0 -1 0 1000.11)">
		<stop  offset="0" style="stop-color:#8FC044"/>
		<stop  offset="0.1447" style="stop-color:#89BF45"/>
		<stop  offset="0.3381" style="stop-color:#7ABA48"/>
		<stop  offset="0.559" style="stop-color:#59B24B"/>
		<stop  offset="0.7984" style="stop-color:#25A94F"/>
		<stop  offset="1" style="stop-color:#08A651"/>
	</linearGradient>
	<path id="XMLID_145_" class="st9" d="M554.1,601.7c0,0,12.3-34,2.4-54.8c8.5,6.5,10.7,28.6,8.1,35.3
		C562,589.1,554.1,601.7,554.1,601.7z"/>
	
		<linearGradient id="XMLID_26_" gradientUnits="userSpaceOnUse" x1="575.9" y1="430.5099" x2="575.9001" y2="393.9474" gradientTransform="matrix(1 0 0 -1 0 1000.11)">
		<stop  offset="0" style="stop-color:#8FC044"/>
		<stop  offset="0.1447" style="stop-color:#89BF45"/>
		<stop  offset="0.3381" style="stop-color:#7ABA48"/>
		<stop  offset="0.559" style="stop-color:#59B24B"/>
		<stop  offset="0.7984" style="stop-color:#25A94F"/>
		<stop  offset="1" style="stop-color:#08A651"/>
	</linearGradient>
	<path id="XMLID_144_" class="st10" d="M560.4,606.2c0,0,7.6-25.9,13.1-29.8c8.3-5.9,17.9-6.8,17.9-6.8S567.7,582.4,560.4,606.2z"/>
	
		<linearGradient id="XMLID_27_" gradientUnits="userSpaceOnUse" x1="579.95" y1="415.2688" x2="579.95" y2="389.7688" gradientTransform="matrix(1 0 0 -1 0 1000.11)">
		<stop  offset="0" style="stop-color:#8FC044"/>
		<stop  offset="0.1447" style="stop-color:#89BF45"/>
		<stop  offset="0.3381" style="stop-color:#7ABA48"/>
		<stop  offset="0.559" style="stop-color:#59B24B"/>
		<stop  offset="0.7984" style="stop-color:#25A94F"/>
		<stop  offset="1" style="stop-color:#08A651"/>
	</linearGradient>
	<path id="XMLID_143_" class="st11" d="M565.7,610.3c0,0,3.3-18.3,9.9-21.3s18.6-4.3,18.6-4.3s-17.6,5.5-21.3,10.4
		C569.5,599.9,565.7,610.3,565.7,610.3z"/>
</g>
<g id="圖層_10_拷貝_3" class="st3">
	
		<linearGradient id="XMLID_28_" gradientUnits="userSpaceOnUse" x1="191.2217" y1="576.21" x2="191.2217" y2="532.31" gradientTransform="matrix(1 0 0 -1 0 1000.11)">
		<stop  offset="0" style="stop-color:#8FC044"/>
		<stop  offset="0.1447" style="stop-color:#89BF45"/>
		<stop  offset="0.3381" style="stop-color:#7ABA48"/>
		<stop  offset="0.559" style="stop-color:#59B24B"/>
		<stop  offset="0.7984" style="stop-color:#25A94F"/>
		<stop  offset="1" style="stop-color:#08A651"/>
	</linearGradient>
	<path id="XMLID_199_" class="st12" d="M184.3,423.9c2.9,2,7.8,6,11,12.8c6.9,14.7-0.8,29.3-1.8,31.1c0.7-5.1,1.1-12.6-0.6-21.4
		C191,436.3,187.2,428.6,184.3,423.9z"/>
	
		<linearGradient id="XMLID_29_" gradientUnits="userSpaceOnUse" x1="203.8641" y1="587.11" x2="203.8641" y2="532.31" gradientTransform="matrix(1 0 0 -1 0 1000.11)">
		<stop  offset="0" style="stop-color:#8FC044"/>
		<stop  offset="0.1447" style="stop-color:#89BF45"/>
		<stop  offset="0.3381" style="stop-color:#7ABA48"/>
		<stop  offset="0.559" style="stop-color:#59B24B"/>
		<stop  offset="0.7984" style="stop-color:#25A94F"/>
		<stop  offset="1" style="stop-color:#08A651"/>
	</linearGradient>
	<path id="XMLID_198_" class="st13" d="M198.1,467.8c0,0,12.3-34,2.4-54.8c8.5,6.5,10.7,28.6,8.1,35.3S198.1,467.8,198.1,467.8z"/>
	
		<linearGradient id="XMLID_30_" gradientUnits="userSpaceOnUse" x1="219.9" y1="564.4563" x2="219.9" y2="527.8938" gradientTransform="matrix(1 0 0 -1 0 1000.11)">
		<stop  offset="0" style="stop-color:#8FC044"/>
		<stop  offset="0.1447" style="stop-color:#89BF45"/>
		<stop  offset="0.3381" style="stop-color:#7ABA48"/>
		<stop  offset="0.559" style="stop-color:#59B24B"/>
		<stop  offset="0.7984" style="stop-color:#25A94F"/>
		<stop  offset="1" style="stop-color:#08A651"/>
	</linearGradient>
	<path id="XMLID_197_" class="st14" d="M204.4,472.2c0,0,7.6-25.9,13.1-29.8c8.3-5.9,17.9-6.8,17.9-6.8S211.7,448.5,204.4,472.2z"/>
	
		<linearGradient id="XMLID_31_" gradientUnits="userSpaceOnUse" x1="223.95" y1="549.2063" x2="223.95" y2="523.7063" gradientTransform="matrix(1 0 0 -1 0 1000.11)">
		<stop  offset="0" style="stop-color:#8FC044"/>
		<stop  offset="0.1447" style="stop-color:#89BF45"/>
		<stop  offset="0.3381" style="stop-color:#7ABA48"/>
		<stop  offset="0.559" style="stop-color:#59B24B"/>
		<stop  offset="0.7984" style="stop-color:#25A94F"/>
		<stop  offset="1" style="stop-color:#08A651"/>
	</linearGradient>
	<path id="XMLID_192_" class="st15" d="M209.7,476.4c0,0,3.3-18.3,9.9-21.3s18.6-4.3,18.6-4.3s-17.6,5.5-21.3,10.4
		C213.5,465.9,209.7,476.4,209.7,476.4z"/>
</g>
<g id="圖層_10_拷貝_2" class="st3">
	
		<linearGradient id="XMLID_32_" gradientUnits="userSpaceOnUse" x1="388.4217" y1="789.61" x2="388.4217" y2="745.71" gradientTransform="matrix(1 0 0 -1 0 1000.11)">
		<stop  offset="0" style="stop-color:#8FC044"/>
		<stop  offset="0.1447" style="stop-color:#89BF45"/>
		<stop  offset="0.3381" style="stop-color:#7ABA48"/>
		<stop  offset="0.559" style="stop-color:#59B24B"/>
		<stop  offset="0.7984" style="stop-color:#25A94F"/>
		<stop  offset="1" style="stop-color:#08A651"/>
	</linearGradient>
	<path id="XMLID_191_" class="st16" d="M381.5,210.5c2.9,2,7.8,6,11,12.8c6.9,14.7-0.8,29.3-1.8,31.1c0.7-5.1,1.1-12.6-0.6-21.4
		C388.2,222.8,384.3,215.2,381.5,210.5z"/>
	
		<linearGradient id="XMLID_33_" gradientUnits="userSpaceOnUse" x1="401.0641" y1="800.5397" x2="401.0641" y2="745.7397" gradientTransform="matrix(1 0 0 -1 0 1000.11)">
		<stop  offset="0" style="stop-color:#8FC044"/>
		<stop  offset="0.1447" style="stop-color:#89BF45"/>
		<stop  offset="0.3381" style="stop-color:#7ABA48"/>
		<stop  offset="0.559" style="stop-color:#59B24B"/>
		<stop  offset="0.7984" style="stop-color:#25A94F"/>
		<stop  offset="1" style="stop-color:#08A651"/>
	</linearGradient>
	<path id="XMLID_189_" class="st17" d="M395.3,254.3c0,0,12.3-34,2.4-54.8c8.5,6.5,10.7,28.6,8.1,35.3S395.3,254.3,395.3,254.3z"/>
	
		<linearGradient id="XMLID_34_" gradientUnits="userSpaceOnUse" x1="417.1" y1="777.91" x2="417.1" y2="741.3475" gradientTransform="matrix(1 0 0 -1 0 1000.11)">
		<stop  offset="0" style="stop-color:#8FC044"/>
		<stop  offset="0.1447" style="stop-color:#89BF45"/>
		<stop  offset="0.3381" style="stop-color:#7ABA48"/>
		<stop  offset="0.559" style="stop-color:#59B24B"/>
		<stop  offset="0.7984" style="stop-color:#25A94F"/>
		<stop  offset="1" style="stop-color:#08A651"/>
	</linearGradient>
	<path id="XMLID_148_" class="st18" d="M401.6,258.8c0,0,7.6-25.9,13.1-29.8c8.3-5.9,17.9-6.8,17.9-6.8S408.8,235,401.6,258.8z"/>
	
		<linearGradient id="XMLID_35_" gradientUnits="userSpaceOnUse" x1="421.15" y1="762.6647" x2="421.15" y2="737.1647" gradientTransform="matrix(1 0 0 -1 0 1000.11)">
		<stop  offset="0" style="stop-color:#8FC044"/>
		<stop  offset="0.1447" style="stop-color:#89BF45"/>
		<stop  offset="0.3381" style="stop-color:#7ABA48"/>
		<stop  offset="0.559" style="stop-color:#59B24B"/>
		<stop  offset="0.7984" style="stop-color:#25A94F"/>
		<stop  offset="1" style="stop-color:#08A651"/>
	</linearGradient>
	<path id="XMLID_147_" class="st19" d="M406.9,262.9c0,0,3.3-18.3,9.9-21.3s18.6-4.3,18.6-4.3s-17.6,5.5-21.3,10.4
		C410.7,252.5,406.9,262.9,406.9,262.9z"/>
	
		<linearGradient id="XMLID_36_" gradientUnits="userSpaceOnUse" x1="431.7217" y1="344.51" x2="431.7217" y2="300.61" gradientTransform="matrix(1 0 0 -1 0 1000.11)">
		<stop  offset="0" style="stop-color:#8FC044"/>
		<stop  offset="0.1447" style="stop-color:#89BF45"/>
		<stop  offset="0.3381" style="stop-color:#7ABA48"/>
		<stop  offset="0.559" style="stop-color:#59B24B"/>
		<stop  offset="0.7984" style="stop-color:#25A94F"/>
		<stop  offset="1" style="stop-color:#08A651"/>
	</linearGradient>
	<path id="XMLID_196_" class="st20" d="M424.8,655.6c2.9,2,7.8,6,11,12.8c6.9,14.7-0.8,29.3-1.8,31.1c0.7-5.1,1.1-12.6-0.6-21.4
		C431.5,668,427.7,660.3,424.8,655.6z"/>
	
		<linearGradient id="XMLID_37_" gradientUnits="userSpaceOnUse" x1="444.3641" y1="355.41" x2="444.3641" y2="300.61" gradientTransform="matrix(1 0 0 -1 0 1000.11)">
		<stop  offset="0" style="stop-color:#8FC044"/>
		<stop  offset="0.1447" style="stop-color:#89BF45"/>
		<stop  offset="0.3381" style="stop-color:#7ABA48"/>
		<stop  offset="0.559" style="stop-color:#59B24B"/>
		<stop  offset="0.7984" style="stop-color:#25A94F"/>
		<stop  offset="1" style="stop-color:#08A651"/>
	</linearGradient>
	<path id="XMLID_195_" class="st21" d="M438.6,699.5c0,0,12.3-34,2.4-54.8c8.5,6.5,10.7,28.6,8.1,35.3S438.6,699.5,438.6,699.5z"/>
	
		<linearGradient id="XMLID_38_" gradientUnits="userSpaceOnUse" x1="460.4" y1="332.7569" x2="460.4" y2="296.1944" gradientTransform="matrix(1 0 0 -1 0 1000.11)">
		<stop  offset="0" style="stop-color:#8FC044"/>
		<stop  offset="0.1447" style="stop-color:#89BF45"/>
		<stop  offset="0.3381" style="stop-color:#7ABA48"/>
		<stop  offset="0.559" style="stop-color:#59B24B"/>
		<stop  offset="0.7984" style="stop-color:#25A94F"/>
		<stop  offset="1" style="stop-color:#08A651"/>
	</linearGradient>
	<path id="XMLID_194_" class="st22" d="M444.9,703.9c0,0,7.6-25.9,13.1-29.8c8.3-5.9,17.9-6.8,17.9-6.8S452.2,680.2,444.9,703.9z"/>
	
		<linearGradient id="XMLID_39_" gradientUnits="userSpaceOnUse" x1="464.45" y1="317.5069" x2="464.45" y2="292.0069" gradientTransform="matrix(1 0 0 -1 0 1000.11)">
		<stop  offset="0" style="stop-color:#8FC044"/>
		<stop  offset="0.1447" style="stop-color:#89BF45"/>
		<stop  offset="0.3381" style="stop-color:#7ABA48"/>
		<stop  offset="0.559" style="stop-color:#59B24B"/>
		<stop  offset="0.7984" style="stop-color:#25A94F"/>
		<stop  offset="1" style="stop-color:#08A651"/>
	</linearGradient>
	<path id="XMLID_193_" class="st23" d="M450.2,708.1c0,0,3.3-18.3,9.9-21.3s18.6-4.3,18.6-4.3s-17.6,5.5-21.3,10.4
		C454,697.6,450.2,708.1,450.2,708.1z"/>
</g>
<g id="圖層_1" class="st3">
	<g id="圖層_23_2_" class="st24">
		<g id="XMLID_118_">
			<path id="XMLID_10_" class="st25" d="M561.1,627.5l-120.6-0.2c-9.4,0-18.2-4.9-22.8-12.8L357.6,513c-4.7-8-4.7-17.7,0-25.7
				L418,385.9c4.8-8,13.5-12.8,22.9-12.8l120.6,0.2c9.4,0,18.2,4.9,22.8,12.8l60.2,101.4c4.7,8,4.7,17.7,0,25.7l-60.4,101.4
				C579.3,622.5,570.6,627.5,561.1,627.5z"/>
		</g>
	</g>
	<g id="圖層_23_1_" class="st24">
		<g id="XMLID_4_">
			<path id="XMLID_5_" class="st25" d="M561.1,368.8l-120.6-0.2c-9.4,0-18.2-4.9-22.8-12.8l-60.2-101.4c-4.7-8-4.7-17.7,0-25.7
				l60.4-101.4c4.8-8,13.5-12.8,22.9-12.8l120.6,0.2c9.4,0,18.2,4.9,22.8,12.8l60.2,101.4c4.7,8,4.7,17.7,0,25.7L584.1,356
				C579.3,363.8,570.6,368.8,561.1,368.8z"/>
		</g>
	</g>
	<g id="圖層_23_3_" class="st24">
		<g id="XMLID_6_">
			<path id="XMLID_7_" class="st25" d="M561.1,886.9l-120.6-0.2c-9.4,0-18.2-4.9-22.8-12.8l-60.2-101.4c-4.7-8-4.7-17.7,0-25.7
				l60.4-101.4c4.8-8,13.5-12.8,22.9-12.8l120.6,0.2c9.4,0,18.2,4.9,22.8,12.8L644.4,747c4.7,8,4.7,17.7,0,25.7L584,874.1
				C579.3,881.9,570.6,886.9,561.1,886.9z"/>
		</g>
	</g>
	<g id="圖層_23_4_" class="st24">
		<g id="XMLID_8_">
			<path id="XMLID_9_" class="st25" d="M791.7,754.7l-120.6-0.2c-9.4,0-18.2-4.9-22.8-12.8l-60.2-101.4c-4.7-8-4.7-17.7,0-25.7
				l60.4-101.4c4.8-8,13.5-12.8,22.9-12.8l120.6,0.2c9.4,0,18.2,4.9,22.8,12.8L875,614.7c4.7,8,4.7,17.7,0,25.7l-60.4,101.4
				C809.8,749.7,801.1,754.7,791.7,754.7z"/>
		</g>
	</g>
	<g id="圖層_23_5_" class="st24">
		<g id="XMLID_11_">
			<path id="XMLID_12_" class="st25" d="M791.7,500.2L671.1,500c-9.4,0-18.2-4.9-22.8-12.8l-60.2-101.4c-4.7-8-4.7-17.7,0-25.7
				l60.4-101.4c4.8-8,13.5-12.8,22.9-12.8L792,246c9.4,0,18.2,4.9,22.8,12.8L875,360.3c4.7,8,4.7,17.7,0,25.7l-60.4,101.4
				C809.8,495.3,801.1,500.2,791.7,500.2z"/>
		</g>
	</g>
	<g id="圖層_23_7_" class="st24">
		<g id="XMLID_13_">
			<path id="XMLID_14_" class="st25" d="M329.7,754.7l-120.6-0.2c-9.4,0-18.2-4.9-22.8-12.8l-60.2-101.4c-4.7-8-4.7-17.7,0-25.7
				l60.4-101.4c4.8-8,13.5-12.8,22.9-12.8l120.6,0.2c9.4,0,18.2,4.9,22.8,12.8L413,614.7c4.7,8,4.7,17.7,0,25.7l-60.4,101.4
				C347.8,749.7,339.1,754.7,329.7,754.7z"/>
		</g>
	</g>
	<g id="圖層_23_6_" class="st24">
		<g id="XMLID_17_">
			<path id="XMLID_18_" class="st25" d="M329.7,500.2L209.1,500c-9.4,0-18.2-4.9-22.8-12.8l-60.2-101.4c-4.7-8-4.7-17.7,0-25.7
				l60.4-101.4c4.8-8,13.5-12.8,22.9-12.8L330,246c9.4,0,18.2,4.9,22.8,12.8L413,360.3c4.7,8,4.7,17.7,0,25.7l-60.4,101.4
				C347.8,495.3,339.1,500.2,329.7,500.2z"/>
		</g>
	</g>
</g>
</svg>
