<svg version="1.0" xmlns="http://www.w3.org/2000/svg" width="300" height="260" style="enable-background:new 0 0 300 260" xml:space="preserve"><style>.st0{display:none}.st1{display:inline;fill:#2d142a}.st2{fill:none;stroke:#fff;stroke-width:.8;stroke-miterlimit:10}.st2,.st3,.st4{display:inline}.st3{fill:#c482b8;stroke:#fff;stroke-width:.5;stroke-miterlimit:10}.st4{fill:#af69ab}.st5{fill:#2d142a}.st6,.st7{fill:none;stroke:#fff;stroke-width:.8;stroke-miterlimit:10}.st7{fill:#c482b8;stroke-width:.5}.st8{fill:#af69ab}.st10,.st9{fill:#975a96;stroke-miterlimit:10}.st9{stroke:#2e112b;stroke-width:6}.st10{stroke:#fff}.st11{fill:#c482b8}.st12{fill:#d091c0}.st13{fill:none;stroke:#562956;stroke-width:2;stroke-miterlimit:10}.st14{fill:#7f4e80}</style><g id="Layer_3"><g id="Layer_6_copy_3"><path id="XMLID_47_" class="st5" d="m89.4 56.8.2.5c-.9-.8-1.9-.3-2.6.5l-.9 1c-.5.5-.8 1.3-.5 2l.4.9-.6-.2c-.7-.3-1.6.1-2.1.6L81 64.2c-.8.7 0 3 0 3-.8-.5-1.7-.5-2.4.1 0 0-2.8 2.6-1.7 5l2.4 3.6c.7.8 2.4 1.3 3.2.7 3.6-2.8 13.1-10.5 16.8-18.5.4-.9-.2-2.4-1.1-3L94 52.5c-.7-.5-4.9 1.4-4.6 4.3z"/><path id="XMLID_46_" class="st6" d="M91.6 56.1c-.7.8-.8 1.9-.3 2.6l.7 1.1-1.1-.5c-.8-.4-1.8-.1-2.4.7l-.5.4c-.6.7-.8 1.7-.4 2.4l.6 1.1-1.2-.5c-.7-.3-1.6 0-2.2.6l-1.5 1.5c-.7.7-1 1.8-.5 2.6l.7 1.1-1.2-.6c-.7-.4-1.7-.1-2.4.6l-.6.6c-.8.8-.9 1.9-.4 2.7l1 1.4c.6.8 1.9.8 2.8 0 3.1-2.8 9.9-9.2 13.7-15.2.7-1 .5-2.3-.5-2.7l-1.7-.9c-.8-.4-1.8-.1-2.4.7l-.2.3z"/><path id="XMLID_45_" class="st7" d="M91.6 56.1c-.7.8-.8 1.9-.3 2.6l.7 1.1-1.1-.5c-.8-.4-1.8-.1-2.4.7l-.5.4c-.6.7-.8 1.7-.4 2.4l.6 1.1-1.2-.5c-.7-.3-1.6 0-2.2.6l-1.5 1.5c-.7.7-1 1.8-.5 2.6l.7 1.1-1.2-.6c-.7-.4-1.7-.1-2.4.6l-.6.6c-.8.8-.9 1.9-.4 2.7l1 1.4c.6.8 1.9.8 2.8 0 3.1-2.8 9.9-9.2 13.7-15.2.7-1 .5-2.3-.5-2.7l-1.7-.9c-.8-.4-1.8-.1-2.4.7l-.2.3z"/><path id="XMLID_33_" class="st8" d="m95.9 56.2-1.7-.8c-.1 0-.1-.1-.2-.1 4 4-7.7 14.5-14 18.2l.2.2c.6.8 1.8.8 2.7 0 3.1-2.8 9.7-9 13.5-14.8.6-1 .4-2.2-.5-2.7z"/></g><g id="Layer_4"><path id="XMLID_63_" class="st9" d="M42.9 22.3c-8.9 8.9-8.9 23.2 0 32.1 6.1 6.1 14.2 6.2 21.4 4.5l1.2 1.2c.8.8 1.9 1.1 2.9 1 .7-.1 1.1-.8.9-1.4-.2-.6-.5-1.3-.9-1.9-.2-.2-.3-.4-.5-.6 0 0 2.8 2.3 3.7 1.4s1.6-2.7-.2-4.5c0 0 2.4 2.2 4.1.6 1.8-1.6-.9-4.2-.9-4.2s2.6 2.5 4.1 1c1.4-1.4-.8-3.2-1.1-3.4.1.1.6.4 1.2.8.4.2.8.4 1.3.5.6.2 1.2-.1 1.5-.7.4-1.2.2-2.6-.8-3.6l-1-1c.5-6.2 1.4-15.5-4.7-21.6-9-9-23.3-9-32.2-.2z"/><path id="XMLID_62_" class="st10" d="M42.9 22.3c-8.9 8.9-8.9 23.2 0 32.1 6.1 6.1 14.2 6.2 21.4 4.5l1.2 1.2c.8.8 1.9 1.1 2.9 1 .7-.1 1.1-.8.9-1.4-.2-.6-.5-1.3-.9-1.9-.2-.2-.3-.4-.5-.6 0 0 2.8 2.3 3.7 1.4s1.6-2.7-.2-4.5c0 0 2.4 2.2 4.1.6 1.8-1.6-.9-4.2-.9-4.2s2.6 2.5 4.1 1c1.4-1.4-.8-3.2-1.1-3.4.1.1.6.4 1.2.8.4.2.8.4 1.3.5.6.2 1.2-.1 1.5-.7.4-1.2.2-2.6-.8-3.6l-1-1c.5-6.2 1.4-15.5-4.7-21.6-9-9-23.3-9-32.2-.2z"/><ellipse id="XMLID_61_" transform="rotate(-45.001 57.736 37.159)" class="st8" cx="57.7" cy="37.2" rx="21.5" ry="19.6"/><ellipse id="XMLID_60_" transform="rotate(-45.001 56.279 35.701)" class="st11" cx="56.3" cy="35.7" rx="19.8" ry="17.5"/><ellipse id="XMLID_59_" transform="rotate(14.738 43.221 32.598)" class="st12" cx="43.2" cy="32.6" rx="2.8" ry="4.3"/><path id="XMLID_58_" class="st13" d="m64.3 41.5.8.6c.1.1.2.2.2.3l.4.6c.3.3.7.3.9 0l.3-.4c.2-.3.5-.6.8-.8l.4-.3c.4-.4.1-1.1-.5-1.1l-1.1.1h-1.9c-.5-.1-.7.6-.3 1z"/><path id="XMLID_57_" class="st8" d="m64.3 41.5.8.6c.1.1.2.2.2.3l.4.6c.3.3.7.3.9 0l.3-.4c.2-.3.5-.6.8-.8l.4-.3c.4-.4.1-1.1-.5-1.1l-1.1.1h-1.9c-.5-.1-.7.6-.3 1z"/><path id="XMLID_56_" class="st14" d="m67 42.5-.3.4c-.3.3-.7.3-.9 0l-.4-.6c-.1-.1-.2-.2-.2-.3l-.5-.4c.6-.1 1.2.4 1.9.2s1.5-1 2-1.2c0 .2 0 .4-.2.6l-.4.3c-.5.4-.8.7-1 1z"/><path id="XMLID_55_" class="st13" d="m62 43.7.6.8c.1.1.2.2.3.2l.6.4c.3.3.3.7 0 .9l-.4.3c-.3.2-.6.5-.8.8l-.3.4c-.4.4-1.1.1-1.1-.5l.1-1v-1.9c0-.5.6-.8 1-.4z"/><path id="XMLID_54_" class="st8" d="m62 43.7.6.8c.1.1.2.2.3.2l.6.4c.3.3.3.7 0 .9l-.4.3c-.3.2-.6.5-.8.8l-.3.4c-.4.4-1.1.1-1.1-.5l.1-1v-1.9c0-.5.6-.8 1-.4z"/><path id="XMLID_53_" class="st14" d="m63.1 46.4.4-.3c.3-.3.3-.7 0-.9l-.6-.4c-.1-.1-.2-.2-.3-.2l-.3-.6c-.1.6.4 1.2.2 1.9s-1 1.5-1.2 2c.2 0 .4 0 .6-.2l.3-.4c.3-.4.6-.7.9-.9z"/><ellipse id="XMLID_52_" transform="rotate(-45.001 48.985 44.352)" class="st11" cx="49" cy="44.4" rx="5.3" ry="5.8"/><path id="XMLID_51_" class="st8" d="M47.2 48.5c.8.8 1.8 1.1 2.8 1.4 1.2-.1 2.3-.6 3.2-1.4 2.1-2.1 1.9-5.6-.4-7.9-1.5-1.5-3.5-2.1-5.3-1.7-.1.1-.3.2-.4.3-1 1-1.8 2.1-2 3.4-.2 1.4-.1 2.9.7 4.2.2.6 1 1.3 1.4 1.7z"/><path id="XMLID_36_" class="st14" d="M52.7 40.6c-.2-.2-.4-.3-.5-.5-1.2-.2-2.4.2-3.3 1-.8.8-1.8 1.8-1.6 2.9.1.9 1.1 2.1 1.9 2.8 1.2 1.2 2.9 1.6 4.4 1.1 1.5-2 1.2-5.2-.9-7.3z"/><ellipse id="XMLID_35_" transform="rotate(-45.001 48.985 44.352)" class="st13" cx="49" cy="44.4" rx="5.3" ry="5.8"/><ellipse id="XMLID_34_" transform="rotate(134.999 64.532 28.804)" class="st11" cx="64.5" cy="28.8" rx="5.3" ry="5.8"/><path id="XMLID_30_" class="st8" d="M68.7 27c.8.8 1.1 1.8 1.4 2.8-.1 1.2-.6 2.3-1.4 3.2-2.1 2.1-5.6 1.9-7.9-.4-1.5-1.5-2.1-3.5-1.7-5.3.1-.1.2-.3.3-.4 1-1 2.1-1.8 3.4-2 1.4-.2 2.9-.1 4.2.7.5.3 1.2 1 1.7 1.4z"/><path id="XMLID_28_" class="st14" d="M60.8 32.6c-.2-.2-.3-.4-.5-.5-.2-1.2.2-2.4 1-3.3.8-.8 1.8-1.8 2.9-1.6.9.1 2.1 1.1 2.8 1.9 1.2 1.2 1.6 2.9 1.1 4.4-2 1.5-5.2 1.2-7.3-.9z"/><ellipse id="XMLID_24_" transform="rotate(134.999 64.532 28.804)" class="st13" cx="64.5" cy="28.8" rx="5.3" ry="5.8"/></g></g><g id="Layer_3_copy_2"><g id="Layer_6_copy_4"><path id="XMLID_111_" class="st5" d="m210 201.8-.2-.5c.9.8 1.9.3 2.6-.5l.9-1c.5-.5.8-1.3.5-2l-.4-.9.6.2c.7.3 1.6-.1 2.1-.6l2.3-2.1c.8-.7 0-3 0-3 .8.5 1.7.5 2.4-.1 0 0 2.8-2.6 1.7-5l-2.4-3.6c-.7-.8-2.4-1.3-3.2-.7-3.6 2.8-13.1 10.5-16.8 18.5-.4.9.2 2.4 1.1 3l4.2 2.6c.8.6 4.9-1.3 4.6-4.3z"/><path id="XMLID_110_" class="st6" d="M207.8 202.6c.7-.8.8-1.9.3-2.6l-.7-1.1 1.1.5c.8.4 1.8.1 2.4-.7l.5-.5c.6-.7.8-1.7.4-2.4l-.6-1.1 1.2.5c.7.3 1.6 0 2.2-.6l1.5-1.5c.7-.7 1-1.8.5-2.6l-.7-1.1 1.2.6c.7.4 1.7.1 2.4-.6l.6-.6c.8-.8.9-1.9.4-2.7l-1-1.4c-.6-.8-1.9-.8-2.8 0-3.1 2.8-9.9 9.2-13.7 15.2-.7 1-.5 2.3.5 2.7l1.7.9c.8.4 1.8.1 2.4-.7l.2-.2z"/><path id="XMLID_109_" class="st7" d="M207.8 202.6c.7-.8.8-1.9.3-2.6l-.7-1.1 1.1.5c.8.4 1.8.1 2.4-.7l.5-.5c.6-.7.8-1.7.4-2.4l-.6-1.1 1.2.5c.7.3 1.6 0 2.2-.6l1.5-1.5c.7-.7 1-1.8.5-2.6l-.7-1.1 1.2.6c.7.4 1.7.1 2.4-.6l.6-.6c.8-.8.9-1.9.4-2.7l-1-1.4c-.6-.8-1.9-.8-2.8 0-3.1 2.8-9.9 9.2-13.7 15.2-.7 1-.5 2.3.5 2.7l1.7.9c.8.4 1.8.1 2.4-.7l.2-.2z"/><path id="XMLID_108_" class="st8" d="m203.5 202.4 1.7.8c.1 0 .1.1.2.1-4-4 7.7-14.5 14-18.2l-.2-.2c-.6-.8-1.8-.8-2.7 0-3.1 2.8-9.7 9-13.5 14.8-.6 1.1-.4 2.3.5 2.7z"/></g><g id="Layer_4_copy_2"><path id="XMLID_79_" class="st9" d="M256.5 236.3c8.9-8.9 8.9-23.2 0-32.1-6.1-6.1-14.2-6.2-21.4-4.5l-1.2-1.2c-.8-.8-1.9-1.1-2.9-1-.7.1-1.1.8-.9 1.4.2.6.5 1.3.9 1.9.2.2.3.4.5.6 0 0-2.8-2.3-3.7-1.4-.9.9-1.6 2.7.2 4.5 0 0-2.4-2.2-4.1-.6-1.8 1.6.9 4.2.9 4.2s-2.6-2.5-4.1-1c-1.4 1.4.8 3.2 1.1 3.4-.1-.1-.6-.4-1.2-.8-.4-.2-.8-.4-1.3-.5-.6-.2-1.2.1-1.5.7-.4 1.2-.2 2.6.8 3.6l1 1c-.5 6.2-1.4 15.5 4.7 21.6 9 9.1 23.3 9.1 32.2.2z"/><path id="XMLID_78_" class="st10" d="M256.5 236.3c8.9-8.9 8.9-23.2 0-32.1-6.1-6.1-14.2-6.2-21.4-4.5l-1.2-1.2c-.8-.8-1.9-1.1-2.9-1-.7.1-1.1.8-.9 1.4.2.6.5 1.3.9 1.9.2.2.3.4.5.6 0 0-2.8-2.3-3.7-1.4-.9.9-1.6 2.7.2 4.5 0 0-2.4-2.2-4.1-.6-1.8 1.6.9 4.2.9 4.2s-2.6-2.5-4.1-1c-1.4 1.4.8 3.2 1.1 3.4-.1-.1-.6-.4-1.2-.8-.4-.2-.8-.4-1.3-.5-.6-.2-1.2.1-1.5.7-.4 1.2-.2 2.6.8 3.6l1 1c-.5 6.2-1.4 15.5 4.7 21.6 9 9.1 23.3 9.1 32.2.2z"/><ellipse id="XMLID_77_" transform="rotate(134.999 241.673 221.516)" class="st8" cx="241.7" cy="221.5" rx="21.5" ry="19.6"/><ellipse id="XMLID_76_" transform="rotate(134.999 243.13 222.973)" class="st11" cx="243.1" cy="223" rx="19.8" ry="17.5"/><ellipse id="XMLID_75_" transform="rotate(-165.262 256.192 226.075)" class="st12" cx="256.2" cy="226.1" rx="2.8" ry="4.3"/><path id="XMLID_74_" class="st13" d="m235.1 217.2-.8-.6c-.1-.1-.2-.2-.2-.3l-.4-.6c-.3-.3-.7-.3-.9 0l-.3.4c-.2.3-.5.6-.8.8l-.4.3c-.4.4-.1 1.1.5 1.1l1.1-.1h1.9c.5.1.7-.6.3-1z"/><path id="XMLID_73_" class="st8" d="m235.1 217.2-.8-.6c-.1-.1-.2-.2-.2-.3l-.4-.6c-.3-.3-.7-.3-.9 0l-.3.4c-.2.3-.5.6-.8.8l-.4.3c-.4.4-.1 1.1.5 1.1l1.1-.1h1.9c.5.1.7-.6.3-1z"/><path id="XMLID_72_" class="st14" d="m232.5 216.2.3-.4c.3-.3.7-.3.9 0l.4.6c.1.1.2.2.2.3l.5.4c-.6.1-1.2-.4-1.9-.2s-1.5 1-2 1.2c0-.2 0-.4.2-.6l.4-.3 1-1z"/><path id="XMLID_71_" class="st13" d="m237.4 215-.6-.8c-.1-.1-.2-.2-.3-.2l-.6-.4c-.3-.3-.3-.7 0-.9l.4-.3c.3-.2.6-.5.8-.8l.3-.4c.4-.4 1.1-.1 1.1.5l-.1 1.1v1.9c0 .4-.6.7-1 .3z"/><path id="XMLID_70_" class="st8" d="m237.4 215-.6-.8c-.1-.1-.2-.2-.3-.2l-.6-.4c-.3-.3-.3-.7 0-.9l.4-.3c.3-.2.6-.5.8-.8l.3-.4c.4-.4 1.1-.1 1.1.5l-.1 1.1v1.9c0 .4-.6.7-1 .3z"/><path id="XMLID_69_" class="st14" d="m236.3 212.3-.4.3c-.3.3-.3.7 0 .9l.6.4c.1.1.2.2.3.2l.4.5c.1-.6-.4-1.2-.2-1.9s1-1.5 1.2-2c-.2 0-.4 0-.6.2l-.3.4c-.4.5-.7.7-1 1z"/><ellipse id="XMLID_68_" transform="rotate(134.999 250.424 214.322)" class="st11" cx="250.4" cy="214.3" rx="5.3" ry="5.8"/><path id="XMLID_67_" class="st8" d="M252.2 210.2c-.8-.8-1.8-1.1-2.8-1.4-1.2.1-2.3.6-3.2 1.4-2.1 2.1-1.9 5.6.4 7.9 1.5 1.5 3.5 2.1 5.3 1.7.1-.1.3-.2.4-.3 1-1 1.8-2.1 2-3.4.2-1.4.1-2.9-.7-4.2-.2-.6-1-1.3-1.4-1.7z"/><path id="XMLID_66_" class="st14" d="M246.7 218.1c.2.2.4.3.5.5 1.2.2 2.4-.2 3.3-1 .8-.8 1.8-1.8 1.6-2.9-.1-.9-1.1-2.1-1.9-2.8-1.2-1.2-2.9-1.6-4.4-1.1-1.5 2-1.2 5.2.9 7.3z"/><ellipse id="XMLID_65_" transform="rotate(134.999 250.424 214.322)" class="st13" cx="250.4" cy="214.3" rx="5.3" ry="5.8"/><ellipse id="XMLID_64_" transform="rotate(-45.001 234.874 229.873)" class="st11" cx="234.9" cy="229.9" rx="5.3" ry="5.8"/><path id="XMLID_50_" class="st8" d="M230.8 231.7c-.8-.8-1.1-1.8-1.4-2.8.1-1.2.6-2.3 1.4-3.2 2.1-2.1 5.6-1.9 7.9.4 1.5 1.5 2.1 3.5 1.7 5.3-.1.1-.2.3-.3.4-1 1-2.1 1.8-3.4 2-1.4.2-2.9.1-4.2-.7-.6-.3-1.3-1-1.7-1.4z"/><path id="XMLID_49_" class="st14" d="M238.6 226.1c.2.2.3.4.5.5.2 1.2-.2 2.4-1 3.3-.8.8-1.8 1.8-2.9 1.6-.9-.1-2.1-1.1-2.8-1.9-1.2-1.2-1.6-2.9-1.1-4.4 2.1-1.5 5.2-1.2 7.3.9z"/><ellipse id="XMLID_48_" transform="rotate(-45.001 234.874 229.873)" class="st13" cx="234.9" cy="229.9" rx="5.3" ry="5.8"/></g></g></svg>