<?xml version="1.0" encoding="utf-8"?>
<!-- Generator: Adobe Illustrator 19.0.0, SVG Export Plug-In . SVG Version: 6.00 Build 0)  -->
<svg version="1.0" id="圖層_1" xmlns="http://www.w3.org/2000/svg" xmlns:xlink="http://www.w3.org/1999/xlink" x="0px" y="0px" width="300px" height="260px"
	 viewBox="0 21 300 260" style="enable-background:new 0 21 300 260;" xml:space="preserve">
<style type="text/css">
	.st0{fill:#808285;}
	.st1{fill:#58595B;}
</style>
<g id="圖層_1_2_">
	<path id="XMLID_2_" class="st0" d="M149.3,215.9c-37.2,0-67.3-30.1-67.3-67.3H54.1c0,52.6,42.6,95.2,95.2,95.2s95.2-42.6,95.2-95.2
		h-27.9C216.6,185.7,186.5,215.9,149.3,215.9z"/>
	<polygon id="XMLID_7_" class="st1" points="265.7,148.6 230.3,176.9 194.9,148.6 	"/>
	<path id="XMLID_15_" class="st1" d="M148.8,81.2c37.2,0,67.3,30.1,67.3,67.3H244c0-52.6-42.6-95.2-95.2-95.2S53.6,96,53.6,148.6
		h27.9C81.5,111.4,111.6,81.2,148.8,81.2z"/>
	<polygon id="XMLID_8_" class="st0" points="32.4,148.6 67.8,120.2 103.2,148.6 	"/>
</g>
</svg>
