<svg xmlns="http://www.w3.org/2000/svg" width="1000" height="1000" style="enable-background:new 0 0 1000 1000" xml:space="preserve"><linearGradient id="a" gradientUnits="userSpaceOnUse" x1="195.986" y1="577.485" x2="195.986" y2="532.31" gradientTransform="matrix(1 0 0 -1 0 1000.11)"><stop offset="0" style="stop-color:#8fc044"/><stop offset=".145" style="stop-color:#89bf45"/><stop offset=".338" style="stop-color:#7aba48"/><stop offset=".559" style="stop-color:#59b24b"/><stop offset=".798" style="stop-color:#25a94f"/><stop offset="1" style="stop-color:#08a651"/></linearGradient><path d="M193.8 422.6c2.9 2 3.4 7.1 4.4 14.3 1.8 10.6-3.6 29-4.6 30.8.7-5.1 2.8-12.8 1.1-21.6-2-10 1.9-18.8-.9-23.5z" style="fill:url(#a)"/><linearGradient id="b" gradientUnits="userSpaceOnUse" x1="208.119" y1="584.61" x2="208.119" y2="532.31" gradientTransform="matrix(1 0 0 -1 0 1000.11)"><stop offset="0" style="stop-color:#8fc044"/><stop offset=".145" style="stop-color:#89bf45"/><stop offset=".338" style="stop-color:#7aba48"/><stop offset=".559" style="stop-color:#59b24b"/><stop offset=".798" style="stop-color:#25a94f"/><stop offset="1" style="stop-color:#08a651"/></linearGradient><path d="M198.1 467.8s18.4-31.8 17.1-52.3c7.6 10.5-2 28.9-4.6 35.6s-12.5 16.7-12.5 16.7z" style="fill:url(#b)"/><linearGradient id="c" gradientUnits="userSpaceOnUse" x1="221.637" y1="560.84" x2="221.637" y2="527.895" gradientTransform="matrix(1 0 0 -1 0 1000.11)"><stop offset="0" style="stop-color:#8fc044"/><stop offset=".145" style="stop-color:#89bf45"/><stop offset=".338" style="stop-color:#7aba48"/><stop offset=".559" style="stop-color:#59b24b"/><stop offset=".798" style="stop-color:#25a94f"/><stop offset="1" style="stop-color:#08a651"/></linearGradient><path d="M204.4 472.2s7.1-23.1 16.3-28.1c8.3-5.9 18.2-4.8 18.2-4.8s-8.2 3.1-16.3 9.8c-6.9 5.7-13.5 12.3-18.2 23.1z" style="fill:url(#c)"/><linearGradient id="d" gradientUnits="userSpaceOnUse" x1="225.194" y1="545.69" x2="225.194" y2="523.707" gradientTransform="matrix(1 0 0 -1 0 1000.11)"><stop offset="0" style="stop-color:#8fc044"/><stop offset=".145" style="stop-color:#89bf45"/><stop offset=".338" style="stop-color:#7aba48"/><stop offset=".559" style="stop-color:#59b24b"/><stop offset=".798" style="stop-color:#25a94f"/><stop offset="1" style="stop-color:#08a651"/></linearGradient><path d="M209.7 476.4s3.6-17 10.2-20 20.8-1.8 20.8-1.8-18.8 2.4-22.5 7.3c-3.5 4.6-8.5 14.5-8.5 14.5z" style="fill:url(#d)"/><g><linearGradient id="e" gradientUnits="userSpaceOnUse" x1="393.186" y1="790.985" x2="393.186" y2="745.81" gradientTransform="matrix(1 0 0 -1 0 1000.11)"><stop offset="0" style="stop-color:#8fc044"/><stop offset=".145" style="stop-color:#89bf45"/><stop offset=".338" style="stop-color:#7aba48"/><stop offset=".559" style="stop-color:#59b24b"/><stop offset=".798" style="stop-color:#25a94f"/><stop offset="1" style="stop-color:#08a651"/></linearGradient><path d="M391 209.1c2.9 2 3.4 7.1 4.3 14.3 1.8 10.6-3.6 29-4.6 30.8.7-5.1 2.8-12.8 1.1-21.6-1.9-10 2-18.8-.8-23.5z" style="fill:url(#e)"/><linearGradient id="f" gradientUnits="userSpaceOnUse" x1="405.319" y1="798.11" x2="405.319" y2="745.81" gradientTransform="matrix(1 0 0 -1 0 1000.11)"><stop offset="0" style="stop-color:#8fc044"/><stop offset=".145" style="stop-color:#89bf45"/><stop offset=".338" style="stop-color:#7aba48"/><stop offset=".559" style="stop-color:#59b24b"/><stop offset=".798" style="stop-color:#25a94f"/><stop offset="1" style="stop-color:#08a651"/></linearGradient><path d="M395.3 254.3s18.4-31.8 17.2-52.3c7.6 10.5-2 28.9-4.6 35.6-2.6 6.7-12.6 16.7-12.6 16.7z" style="fill:url(#f)"/><linearGradient id="g" gradientUnits="userSpaceOnUse" x1="418.837" y1="774.34" x2="418.837" y2="741.395" gradientTransform="matrix(1 0 0 -1 0 1000.11)"><stop offset="0" style="stop-color:#8fc044"/><stop offset=".145" style="stop-color:#89bf45"/><stop offset=".338" style="stop-color:#7aba48"/><stop offset=".559" style="stop-color:#59b24b"/><stop offset=".798" style="stop-color:#25a94f"/><stop offset="1" style="stop-color:#08a651"/></linearGradient><path d="M401.6 258.7s7.1-23.1 16.3-28.1c8.3-5.9 18.2-4.8 18.2-4.8s-8.2 3.1-16.3 9.8c-6.9 5.7-13.5 12.3-18.2 23.1z" style="fill:url(#g)"/><linearGradient id="h" gradientUnits="userSpaceOnUse" x1="422.394" y1="759.19" x2="422.394" y2="737.207" gradientTransform="matrix(1 0 0 -1 0 1000.11)"><stop offset="0" style="stop-color:#8fc044"/><stop offset=".145" style="stop-color:#89bf45"/><stop offset=".338" style="stop-color:#7aba48"/><stop offset=".559" style="stop-color:#59b24b"/><stop offset=".798" style="stop-color:#25a94f"/><stop offset="1" style="stop-color:#08a651"/></linearGradient><path d="M406.9 262.9s3.6-17 10.2-20 20.8-1.8 20.8-1.8-18.8 2.4-22.5 7.3c-3.5 4.6-8.5 14.5-8.5 14.5z" style="fill:url(#h)"/></g><g><linearGradient id="i" gradientUnits="userSpaceOnUse" x1="551.986" y1="443.585" x2="551.986" y2="398.41" gradientTransform="matrix(1 0 0 -1 0 1000.11)"><stop offset="0" style="stop-color:#8fc044"/><stop offset=".145" style="stop-color:#89bf45"/><stop offset=".338" style="stop-color:#7aba48"/><stop offset=".559" style="stop-color:#59b24b"/><stop offset=".798" style="stop-color:#25a94f"/><stop offset="1" style="stop-color:#08a651"/></linearGradient><path d="M549.8 556.5c2.9 2 3.4 7.1 4.3 14.3 1.8 10.6-3.6 29-4.6 30.8.7-5.1 2.8-12.8 1.1-21.6-1.9-10 2-18.8-.8-23.5z" style="fill:url(#i)"/><linearGradient id="j" gradientUnits="userSpaceOnUse" x1="564.119" y1="450.71" x2="564.119" y2="398.41" gradientTransform="matrix(1 0 0 -1 0 1000.11)"><stop offset="0" style="stop-color:#8fc044"/><stop offset=".145" style="stop-color:#89bf45"/><stop offset=".338" style="stop-color:#7aba48"/><stop offset=".559" style="stop-color:#59b24b"/><stop offset=".798" style="stop-color:#25a94f"/><stop offset="1" style="stop-color:#08a651"/></linearGradient><path d="M554.1 601.7s18.4-31.8 17.2-52.3c7.6 10.5-2 28.9-4.6 35.6-2.6 6.7-12.6 16.7-12.6 16.7z" style="fill:url(#j)"/><linearGradient id="k" gradientUnits="userSpaceOnUse" x1="577.638" y1="426.94" x2="577.638" y2="393.995" gradientTransform="matrix(1 0 0 -1 0 1000.11)"><stop offset="0" style="stop-color:#8fc044"/><stop offset=".145" style="stop-color:#89bf45"/><stop offset=".338" style="stop-color:#7aba48"/><stop offset=".559" style="stop-color:#59b24b"/><stop offset=".798" style="stop-color:#25a94f"/><stop offset="1" style="stop-color:#08a651"/></linearGradient><path d="M560.4 606.1s7.1-23.1 16.3-28.1c8.3-5.9 18.2-4.8 18.2-4.8s-8.2 3.1-16.3 9.8c-6.9 5.7-13.5 12.3-18.2 23.1z" style="fill:url(#k)"/><linearGradient id="l" gradientUnits="userSpaceOnUse" x1="581.194" y1="411.79" x2="581.194" y2="389.807" gradientTransform="matrix(1 0 0 -1 0 1000.11)"><stop offset="0" style="stop-color:#8fc044"/><stop offset=".145" style="stop-color:#89bf45"/><stop offset=".338" style="stop-color:#7aba48"/><stop offset=".559" style="stop-color:#59b24b"/><stop offset=".798" style="stop-color:#25a94f"/><stop offset="1" style="stop-color:#08a651"/></linearGradient><path d="M565.7 610.3s3.6-17 10.2-20 20.8-1.8 20.8-1.8-18.8 2.3-22.5 7.3c-3.5 4.6-8.5 14.5-8.5 14.5z" style="fill:url(#l)"/></g><g><linearGradient id="m" gradientUnits="userSpaceOnUse" x1="436.486" y1="345.785" x2="436.486" y2="300.61" gradientTransform="matrix(1 0 0 -1 0 1000.11)"><stop offset="0" style="stop-color:#8fc044"/><stop offset=".145" style="stop-color:#89bf45"/><stop offset=".338" style="stop-color:#7aba48"/><stop offset=".559" style="stop-color:#59b24b"/><stop offset=".798" style="stop-color:#25a94f"/><stop offset="1" style="stop-color:#08a651"/></linearGradient><path d="M434.3 654.3c2.9 2 3.4 7.1 4.3 14.3 1.8 10.6-3.6 29-4.6 30.8.7-5.1 2.8-12.8 1.1-21.6-1.9-10 2-18.8-.8-23.5z" style="fill:url(#m)"/><linearGradient id="n" gradientUnits="userSpaceOnUse" x1="448.619" y1="352.91" x2="448.619" y2="300.61" gradientTransform="matrix(1 0 0 -1 0 1000.11)"><stop offset="0" style="stop-color:#8fc044"/><stop offset=".145" style="stop-color:#89bf45"/><stop offset=".338" style="stop-color:#7aba48"/><stop offset=".559" style="stop-color:#59b24b"/><stop offset=".798" style="stop-color:#25a94f"/><stop offset="1" style="stop-color:#08a651"/></linearGradient><path d="M438.6 699.5s18.4-31.8 17.2-52.3c7.6 10.5-2 28.9-4.6 35.6-2.6 6.7-12.6 16.7-12.6 16.7z" style="fill:url(#n)"/><linearGradient id="o" gradientUnits="userSpaceOnUse" x1="462.137" y1="329.14" x2="462.137" y2="296.195" gradientTransform="matrix(1 0 0 -1 0 1000.11)"><stop offset="0" style="stop-color:#8fc044"/><stop offset=".145" style="stop-color:#89bf45"/><stop offset=".338" style="stop-color:#7aba48"/><stop offset=".559" style="stop-color:#59b24b"/><stop offset=".798" style="stop-color:#25a94f"/><stop offset="1" style="stop-color:#08a651"/></linearGradient><path d="M444.9 703.9s7.1-23.1 16.3-28.1c8.3-5.9 18.2-4.8 18.2-4.8s-8.2 3.1-16.3 9.8c-6.9 5.7-13.5 12.3-18.2 23.1z" style="fill:url(#o)"/><linearGradient id="p" gradientUnits="userSpaceOnUse" x1="465.694" y1="313.99" x2="465.694" y2="292.007" gradientTransform="matrix(1 0 0 -1 0 1000.11)"><stop offset="0" style="stop-color:#8fc044"/><stop offset=".145" style="stop-color:#89bf45"/><stop offset=".338" style="stop-color:#7aba48"/><stop offset=".559" style="stop-color:#59b24b"/><stop offset=".798" style="stop-color:#25a94f"/><stop offset="1" style="stop-color:#08a651"/></linearGradient><path d="M450.2 708.1s3.6-17 10.2-20 20.8-1.8 20.8-1.8-18.8 2.4-22.5 7.3c-3.5 4.6-8.5 14.5-8.5 14.5z" style="fill:url(#p)"/></g><g><linearGradient id="q" gradientUnits="userSpaceOnUse" x1="758.886" y1="314.085" x2="758.886" y2="268.91" gradientTransform="matrix(1 0 0 -1 0 1000.11)"><stop offset="0" style="stop-color:#8fc044"/><stop offset=".145" style="stop-color:#89bf45"/><stop offset=".338" style="stop-color:#7aba48"/><stop offset=".559" style="stop-color:#59b24b"/><stop offset=".798" style="stop-color:#25a94f"/><stop offset="1" style="stop-color:#08a651"/></linearGradient><path d="M756.7 686c2.9 2 3.4 7.1 4.3 14.3 1.8 10.6-3.6 29-4.6 30.8.7-5.1 2.8-12.8 1.1-21.6-1.9-10 2-18.8-.8-23.5z" style="fill:url(#q)"/><linearGradient id="r" gradientUnits="userSpaceOnUse" x1="771.019" y1="321.21" x2="771.019" y2="268.91" gradientTransform="matrix(1 0 0 -1 0 1000.11)"><stop offset="0" style="stop-color:#8fc044"/><stop offset=".145" style="stop-color:#89bf45"/><stop offset=".338" style="stop-color:#7aba48"/><stop offset=".559" style="stop-color:#59b24b"/><stop offset=".798" style="stop-color:#25a94f"/><stop offset="1" style="stop-color:#08a651"/></linearGradient><path d="M761 731.2s18.4-31.8 17.2-52.3c7.6 10.5-2 28.9-4.6 35.6-2.6 6.7-12.6 16.7-12.6 16.7z" style="fill:url(#r)"/><linearGradient id="s" gradientUnits="userSpaceOnUse" x1="784.538" y1="297.44" x2="784.538" y2="264.495" gradientTransform="matrix(1 0 0 -1 0 1000.11)"><stop offset="0" style="stop-color:#8fc044"/><stop offset=".145" style="stop-color:#89bf45"/><stop offset=".338" style="stop-color:#7aba48"/><stop offset=".559" style="stop-color:#59b24b"/><stop offset=".798" style="stop-color:#25a94f"/><stop offset="1" style="stop-color:#08a651"/></linearGradient><path d="M767.3 735.6s7.1-23.1 16.3-28.1c8.3-5.9 18.2-4.8 18.2-4.8s-8.2 3.1-16.3 9.8c-6.9 5.7-13.5 12.3-18.2 23.1z" style="fill:url(#s)"/><linearGradient id="t" gradientUnits="userSpaceOnUse" x1="788.094" y1="282.29" x2="788.094" y2="260.307" gradientTransform="matrix(1 0 0 -1 0 1000.11)"><stop offset="0" style="stop-color:#8fc044"/><stop offset=".145" style="stop-color:#89bf45"/><stop offset=".338" style="stop-color:#7aba48"/><stop offset=".559" style="stop-color:#59b24b"/><stop offset=".798" style="stop-color:#25a94f"/><stop offset="1" style="stop-color:#08a651"/></linearGradient><path d="M772.6 739.8s3.6-17 10.2-20 20.8-1.8 20.8-1.8-18.8 2.3-22.5 7.3c-3.5 4.6-8.5 14.5-8.5 14.5z" style="fill:url(#t)"/></g></svg>