<svg xmlns="http://www.w3.org/2000/svg" width="1000" height="1000" style="enable-background:new 0 0 1000 1000" xml:space="preserve"><linearGradient id="a" gradientUnits="userSpaceOnUse" x1="197.746" y1="577.485" x2="197.746" y2="532.31" gradientTransform="matrix(1 0 0 -1 0 1000.11)"><stop offset="0" style="stop-color:#8fc044"/><stop offset=".145" style="stop-color:#89bf45"/><stop offset=".338" style="stop-color:#7aba48"/><stop offset=".559" style="stop-color:#59b24b"/><stop offset=".798" style="stop-color:#25a94f"/><stop offset="1" style="stop-color:#08a651"/></linearGradient><path d="M197.7 422.6c2.9 2 3.1 8.6 4.1 15.8 1.8 10.6-7.3 27.6-8.3 29.4.7-5.1 4.9-13.2 3.2-22-1.9-10.1 3.9-18.5 1-23.2z" style="fill:url(#a)"/><linearGradient id="b" gradientUnits="userSpaceOnUse" x1="210.678" y1="581.298" x2="210.678" y2="532.31" gradientTransform="matrix(1 0 0 -1 0 1000.11)"><stop offset="0" style="stop-color:#8fc044"/><stop offset=".145" style="stop-color:#89bf45"/><stop offset=".338" style="stop-color:#7aba48"/><stop offset=".559" style="stop-color:#59b24b"/><stop offset=".798" style="stop-color:#25a94f"/><stop offset="1" style="stop-color:#08a651"/></linearGradient><path d="M198.1 467.8s19.7-42.3 25.1-49c.3 15.3-10 25.6-12.6 32.3s-12.5 16.7-12.5 16.7z" style="fill:url(#b)"/><linearGradient id="c" gradientUnits="userSpaceOnUse" x1="222.731" y1="557.38" x2="222.731" y2="527.897" gradientTransform="matrix(1 0 0 -1 0 1000.11)"><stop offset="0" style="stop-color:#8fc044"/><stop offset=".145" style="stop-color:#89bf45"/><stop offset=".338" style="stop-color:#7aba48"/><stop offset=".559" style="stop-color:#59b24b"/><stop offset=".798" style="stop-color:#25a94f"/><stop offset="1" style="stop-color:#08a651"/></linearGradient><path d="M204.4 472.2s8-20.2 17.2-25.3c8.3-5.9 19.4-3.9 19.4-3.9s-9.7.9-17.8 7.6c-6.8 5.6-14.1 10.8-18.8 21.6z" style="fill:url(#c)"/><linearGradient id="d" gradientUnits="userSpaceOnUse" x1="225.194" y1="542.66" x2="225.194" y2="523.707" gradientTransform="matrix(1 0 0 -1 0 1000.11)"><stop offset="0" style="stop-color:#8fc044"/><stop offset=".145" style="stop-color:#89bf45"/><stop offset=".338" style="stop-color:#7aba48"/><stop offset=".559" style="stop-color:#59b24b"/><stop offset=".798" style="stop-color:#25a94f"/><stop offset="1" style="stop-color:#08a651"/></linearGradient><path d="M209.7 476.4s4.7-15 11.3-18 19.7 1.6 19.7 1.6-16-2.5-19.7 2.4c-3.4 4.7-11.3 14-11.3 14z" style="fill:url(#d)"/><g><linearGradient id="e" gradientUnits="userSpaceOnUse" x1="394.946" y1="790.985" x2="394.946" y2="745.81" gradientTransform="matrix(1 0 0 -1 0 1000.11)"><stop offset="0" style="stop-color:#8fc044"/><stop offset=".145" style="stop-color:#89bf45"/><stop offset=".338" style="stop-color:#7aba48"/><stop offset=".559" style="stop-color:#59b24b"/><stop offset=".798" style="stop-color:#25a94f"/><stop offset="1" style="stop-color:#08a651"/></linearGradient><path d="M394.9 209.1c2.9 2 3.1 8.6 4.1 15.8 1.8 10.6-7.3 27.6-8.3 29.4.7-5.1 4.9-13.2 3.2-21.9-1.9-10.2 3.9-18.6 1-23.3z" style="fill:url(#e)"/><linearGradient id="f" gradientUnits="userSpaceOnUse" x1="407.878" y1="794.798" x2="407.878" y2="745.81" gradientTransform="matrix(1 0 0 -1 0 1000.11)"><stop offset="0" style="stop-color:#8fc044"/><stop offset=".145" style="stop-color:#89bf45"/><stop offset=".338" style="stop-color:#7aba48"/><stop offset=".559" style="stop-color:#59b24b"/><stop offset=".798" style="stop-color:#25a94f"/><stop offset="1" style="stop-color:#08a651"/></linearGradient><path d="M395.3 254.3s19.7-42.3 25.2-49c.3 15.3-10 25.6-12.6 32.3-2.6 6.7-12.6 16.7-12.6 16.7z" style="fill:url(#f)"/><linearGradient id="g" gradientUnits="userSpaceOnUse" x1="419.931" y1="770.88" x2="419.931" y2="741.397" gradientTransform="matrix(1 0 0 -1 0 1000.11)"><stop offset="0" style="stop-color:#8fc044"/><stop offset=".145" style="stop-color:#89bf45"/><stop offset=".338" style="stop-color:#7aba48"/><stop offset=".559" style="stop-color:#59b24b"/><stop offset=".798" style="stop-color:#25a94f"/><stop offset="1" style="stop-color:#08a651"/></linearGradient><path d="M401.6 258.7s8-20.2 17.2-25.3c8.3-5.9 19.4-3.9 19.4-3.9s-9.7.9-17.8 7.6c-6.8 5.6-14.1 10.8-18.8 21.6z" style="fill:url(#g)"/><linearGradient id="h" gradientUnits="userSpaceOnUse" x1="422.394" y1="756.16" x2="422.394" y2="737.207" gradientTransform="matrix(1 0 0 -1 0 1000.11)"><stop offset="0" style="stop-color:#8fc044"/><stop offset=".145" style="stop-color:#89bf45"/><stop offset=".338" style="stop-color:#7aba48"/><stop offset=".559" style="stop-color:#59b24b"/><stop offset=".798" style="stop-color:#25a94f"/><stop offset="1" style="stop-color:#08a651"/></linearGradient><path d="M406.9 262.9s4.6-15 11.3-18 19.7 1.6 19.7 1.6-16-2.5-19.7 2.4c-3.4 4.7-11.3 14-11.3 14z" style="fill:url(#h)"/></g><g><linearGradient id="i" gradientUnits="userSpaceOnUse" x1="553.746" y1="443.585" x2="553.746" y2="398.41" gradientTransform="matrix(1 0 0 -1 0 1000.11)"><stop offset="0" style="stop-color:#8fc044"/><stop offset=".145" style="stop-color:#89bf45"/><stop offset=".338" style="stop-color:#7aba48"/><stop offset=".559" style="stop-color:#59b24b"/><stop offset=".798" style="stop-color:#25a94f"/><stop offset="1" style="stop-color:#08a651"/></linearGradient><path d="M553.7 556.5c2.9 2 3.1 8.6 4.1 15.8 1.8 10.6-7.3 27.6-8.3 29.4.7-5.1 4.9-13.2 3.2-22-1.9-10.1 3.9-18.5 1-23.2z" style="fill:url(#i)"/><linearGradient id="j" gradientUnits="userSpaceOnUse" x1="566.678" y1="447.397" x2="566.678" y2="398.41" gradientTransform="matrix(1 0 0 -1 0 1000.11)"><stop offset="0" style="stop-color:#8fc044"/><stop offset=".145" style="stop-color:#89bf45"/><stop offset=".338" style="stop-color:#7aba48"/><stop offset=".559" style="stop-color:#59b24b"/><stop offset=".798" style="stop-color:#25a94f"/><stop offset="1" style="stop-color:#08a651"/></linearGradient><path d="M554.1 601.7s19.7-42.3 25.2-49c.3 15.3-10 25.5-12.6 32.3-2.6 6.7-12.6 16.7-12.6 16.7z" style="fill:url(#j)"/><linearGradient id="k" gradientUnits="userSpaceOnUse" x1="578.731" y1="423.48" x2="578.731" y2="393.997" gradientTransform="matrix(1 0 0 -1 0 1000.11)"><stop offset="0" style="stop-color:#8fc044"/><stop offset=".145" style="stop-color:#89bf45"/><stop offset=".338" style="stop-color:#7aba48"/><stop offset=".559" style="stop-color:#59b24b"/><stop offset=".798" style="stop-color:#25a94f"/><stop offset="1" style="stop-color:#08a651"/></linearGradient><path d="M560.4 606.1s8-20.2 17.2-25.3c8.3-5.9 19.4-3.9 19.4-3.9s-9.7.9-17.8 7.6c-6.8 5.6-14.1 10.8-18.8 21.6z" style="fill:url(#k)"/><linearGradient id="l" gradientUnits="userSpaceOnUse" x1="581.194" y1="408.76" x2="581.194" y2="389.807" gradientTransform="matrix(1 0 0 -1 0 1000.11)"><stop offset="0" style="stop-color:#8fc044"/><stop offset=".145" style="stop-color:#89bf45"/><stop offset=".338" style="stop-color:#7aba48"/><stop offset=".559" style="stop-color:#59b24b"/><stop offset=".798" style="stop-color:#25a94f"/><stop offset="1" style="stop-color:#08a651"/></linearGradient><path d="M565.7 610.3s4.7-15 11.3-18c6.6-3 19.7 1.6 19.7 1.6s-16-2.5-19.7 2.4c-3.5 4.7-11.3 14-11.3 14z" style="fill:url(#l)"/></g><g><linearGradient id="m" gradientUnits="userSpaceOnUse" x1="438.246" y1="345.785" x2="438.246" y2="300.61" gradientTransform="matrix(1 0 0 -1 0 1000.11)"><stop offset="0" style="stop-color:#8fc044"/><stop offset=".145" style="stop-color:#89bf45"/><stop offset=".338" style="stop-color:#7aba48"/><stop offset=".559" style="stop-color:#59b24b"/><stop offset=".798" style="stop-color:#25a94f"/><stop offset="1" style="stop-color:#08a651"/></linearGradient><path d="M438.2 654.3c2.9 2 3.1 8.6 4.1 15.8 1.8 10.6-7.3 27.6-8.3 29.4.7-5.1 4.9-13.2 3.2-22-1.9-10 3.9-18.5 1-23.2z" style="fill:url(#m)"/><linearGradient id="n" gradientUnits="userSpaceOnUse" x1="451.178" y1="349.597" x2="451.178" y2="300.61" gradientTransform="matrix(1 0 0 -1 0 1000.11)"><stop offset="0" style="stop-color:#8fc044"/><stop offset=".145" style="stop-color:#89bf45"/><stop offset=".338" style="stop-color:#7aba48"/><stop offset=".559" style="stop-color:#59b24b"/><stop offset=".798" style="stop-color:#25a94f"/><stop offset="1" style="stop-color:#08a651"/></linearGradient><path d="M438.6 699.5s19.7-42.3 25.2-49c.3 15.3-10 25.6-12.6 32.3-2.6 6.7-12.6 16.7-12.6 16.7z" style="fill:url(#n)"/><linearGradient id="o" gradientUnits="userSpaceOnUse" x1="463.231" y1="325.68" x2="463.231" y2="296.197" gradientTransform="matrix(1 0 0 -1 0 1000.11)"><stop offset="0" style="stop-color:#8fc044"/><stop offset=".145" style="stop-color:#89bf45"/><stop offset=".338" style="stop-color:#7aba48"/><stop offset=".559" style="stop-color:#59b24b"/><stop offset=".798" style="stop-color:#25a94f"/><stop offset="1" style="stop-color:#08a651"/></linearGradient><path d="M444.9 703.9s8-20.2 17.2-25.3c8.3-5.9 19.4-3.9 19.4-3.9s-9.7.9-17.8 7.6c-6.8 5.6-14.1 10.8-18.8 21.6z" style="fill:url(#o)"/><linearGradient id="p" gradientUnits="userSpaceOnUse" x1="465.694" y1="310.96" x2="465.694" y2="292.007" gradientTransform="matrix(1 0 0 -1 0 1000.11)"><stop offset="0" style="stop-color:#8fc044"/><stop offset=".145" style="stop-color:#89bf45"/><stop offset=".338" style="stop-color:#7aba48"/><stop offset=".559" style="stop-color:#59b24b"/><stop offset=".798" style="stop-color:#25a94f"/><stop offset="1" style="stop-color:#08a651"/></linearGradient><path d="M450.2 708.1s4.6-15 11.3-18 19.7 1.6 19.7 1.6-16-2.5-19.7 2.4c-3.5 4.7-11.3 14-11.3 14z" style="fill:url(#p)"/></g><g><linearGradient id="q" gradientUnits="userSpaceOnUse" x1="760.646" y1="314.085" x2="760.646" y2="268.91" gradientTransform="matrix(1 0 0 -1 0 1000.11)"><stop offset="0" style="stop-color:#8fc044"/><stop offset=".145" style="stop-color:#89bf45"/><stop offset=".338" style="stop-color:#7aba48"/><stop offset=".559" style="stop-color:#59b24b"/><stop offset=".798" style="stop-color:#25a94f"/><stop offset="1" style="stop-color:#08a651"/></linearGradient><path d="M760.6 686c2.9 2 3.1 8.6 4.1 15.8 1.8 10.6-7.3 27.6-8.3 29.4.7-5.1 4.9-13.1 3.2-21.9-1.9-10.2 3.9-18.6 1-23.3z" style="fill:url(#q)"/><linearGradient id="r" gradientUnits="userSpaceOnUse" x1="773.578" y1="317.897" x2="773.578" y2="268.91" gradientTransform="matrix(1 0 0 -1 0 1000.11)"><stop offset="0" style="stop-color:#8fc044"/><stop offset=".145" style="stop-color:#89bf45"/><stop offset=".338" style="stop-color:#7aba48"/><stop offset=".559" style="stop-color:#59b24b"/><stop offset=".798" style="stop-color:#25a94f"/><stop offset="1" style="stop-color:#08a651"/></linearGradient><path d="M761 731.2s19.7-42.3 25.2-49c.3 15.3-10 25.5-12.6 32.3-2.6 6.7-12.6 16.7-12.6 16.7z" style="fill:url(#r)"/><linearGradient id="s" gradientUnits="userSpaceOnUse" x1="785.631" y1="293.98" x2="785.631" y2="264.497" gradientTransform="matrix(1 0 0 -1 0 1000.11)"><stop offset="0" style="stop-color:#8fc044"/><stop offset=".145" style="stop-color:#89bf45"/><stop offset=".338" style="stop-color:#7aba48"/><stop offset=".559" style="stop-color:#59b24b"/><stop offset=".798" style="stop-color:#25a94f"/><stop offset="1" style="stop-color:#08a651"/></linearGradient><path d="M767.3 735.6s8-20.2 17.2-25.3c8.3-5.9 19.4-3.9 19.4-3.9s-9.7.9-17.8 7.6c-6.8 5.6-14.1 10.8-18.8 21.6z" style="fill:url(#s)"/><linearGradient id="t" gradientUnits="userSpaceOnUse" x1="788.094" y1="279.26" x2="788.094" y2="260.307" gradientTransform="matrix(1 0 0 -1 0 1000.11)"><stop offset="0" style="stop-color:#8fc044"/><stop offset=".145" style="stop-color:#89bf45"/><stop offset=".338" style="stop-color:#7aba48"/><stop offset=".559" style="stop-color:#59b24b"/><stop offset=".798" style="stop-color:#25a94f"/><stop offset="1" style="stop-color:#08a651"/></linearGradient><path d="M772.6 739.8s4.7-15 11.3-18c6.6-3 19.7 1.6 19.7 1.6s-16-2.5-19.7 2.4c-3.4 4.7-11.3 14-11.3 14z" style="fill:url(#t)"/></g></svg>