<svg version="1.0" xmlns="http://www.w3.org/2000/svg" width="300" height="260" style="enable-background:new 0 0 300 260" xml:space="preserve"><style>.st0{display:none}.st2{display:inline}.st4,.st5{stroke-miterlimit:10}.st4{fill:#fff;stroke:#b4b4b5;stroke-width:12}.st5{stroke:#e8e8e8;stroke-width:6}.st5,.st6{fill:#fff}.st7{fill:#b5b5b6}.st8{fill:none;stroke:#b4b4b5;stroke-width:5;stroke-miterlimit:10}.st9{fill:#eaeaea}.st11{fill:#e5e5e5}.st12{fill:#e3e5e4}.st14,.st15,.st17{display:inline;fill:#e5e5e5}.st15,.st17{fill:#fff}.st17{fill:#b5b5b6}.st21,.st22{fill:#ededed}.st22{display:inline}.st29{fill:#c6c6c5}</style><g id="cloud3"><g id="Calque_7"><path id="XMLID_37_" d="M285 116.8c1.2-21.7-28.6-30.1-28.6-30.1s12.2-22.9-5.4-36.9-36 1.2-36 1.2 3.4-23.9-16.3-30.4S169 33.3 169 33.3s-7.8-17.4-34.4-17.4S96.4 42 96.4 42 73.6 33.8 60 45.4s-6.7 29.9-6.7 29.9-20.6 7.6-21.7 22.3 14.1 26.1 14.1 26.1-18.3 4.6-16.5 27c1.8 22.3 25 26.8 25 26.8s-3.6 19.4 10.7 28.6c14.3 9.2 28-.6 28-.6s-4.5 21.4 15.2 28.6c19.7 7.1 29.2-10.1 29.2-10.1s13.4 17.9 27.4 14.3c14-3.6 18.8-18.5 18.8-18.5s20.3 14.3 39.6 5.4 16.7-29.2 16.7-29.2 18.2-.9 28.6-20.3c10.4-19.4-8.3-32.2-8.3-32.2s23.7-5 24.9-26.7zm-117.1 14.9s-13.4-1.9-11.9 9.1c0 0-7.9-1.3-7.6 7.7 0 0-.6-8.5-8.3-7.7 0 0-.6-17.9-15.3-15.3 0 0 8-6.7 1.9-10.6 0 0 5.5 5.1 13.4-2.5s4.8-15.3 4.8-15.3 8 6.9 13.4.6c0 0-3.6 4.2 0 6.4s6.4 2.2 6.4 2.2-4.8 2.5-.9 5.8 8.9 1.9 8.9 1.9-3.7 9.1 5.4 12.4c0-.1-9.9-2-10.2 5.3z" style="fill:none;stroke:#b5b5b6;stroke-width:5;stroke-miterlimit:10"/></g><g id="Calque_7_-_copie_2"><path id="XMLID_162_" d="M285 116.8c1.2-21.7-28.6-30.1-28.6-30.1s12.2-22.9-5.4-36.9-36 1.2-36 1.2 3.4-23.9-16.3-30.4S169 33.3 169 33.3s-7.8-17.4-34.4-17.4S96.4 42 96.4 42 73.6 33.8 60 45.4s-6.7 29.9-6.7 29.9-20.6 7.6-21.7 22.3 14.1 26.1 14.1 26.1-18.3 4.6-16.5 27c1.8 22.3 25 26.8 25 26.8s-3.6 19.4 10.7 28.6c14.3 9.2 28-.6 28-.6s-4.5 21.4 15.2 28.6c19.7 7.1 29.2-10.1 29.2-10.1s13.4 17.9 27.4 14.3c14-3.6 18.8-18.5 18.8-18.5s20.3 14.3 39.6 5.4 16.7-29.2 16.7-29.2 18.2-.9 28.6-20.3c10.4-19.4-8.3-32.2-8.3-32.2s23.7-5 24.9-26.7zm-117.1 14.9s-13.4-1.9-11.9 9.1c0 0-7.9-1.3-7.6 7.7 0 0-.6-8.5-8.3-7.7 0 0-.6-17.9-15.3-15.3 0 0 8-6.7 1.9-10.6 0 0 5.5 5.1 13.4-2.5s4.8-15.3 4.8-15.3 8 6.9 13.4.6c0 0-3.6 4.2 0 6.4s6.4 2.2 6.4 2.2-4.8 2.5-.9 5.8 8.9 1.9 8.9 1.9-3.7 9.1 5.4 12.4c0-.1-9.9-2-10.2 5.3z" style="fill:#dcdbdb"/></g><g id="Calque_7_-_copie"><path id="XMLID_40_" d="M285 116.8c1.2-21.7-28.6-30.1-28.6-30.1s12.2-22.9-5.4-36.9-36 1.2-36 1.2 3.4-23.9-16.3-30.4S169 33.3 169 33.3s-7.8-17.4-34.4-17.4S96.4 42 96.4 42 73.6 33.8 60 45.4s-6.7 29.9-6.7 29.9-20.6 7.6-21.7 22.3 14.1 26.1 14.1 26.1-18.3 4.6-16.5 27c1.8 22.3 25 26.8 25 26.8s-3.6 19.4 10.7 28.6c14.3 9.2 28-.6 28-.6s-4.5 21.4 15.2 28.6c19.7 7.1 29.2-10.1 29.2-10.1s13.4 17.9 27.4 14.3c14-3.6 18.8-18.5 18.8-18.5s20.3 14.3 39.6 5.4 16.7-29.2 16.7-29.2 18.2-.9 28.6-20.3c10.4-19.4-8.3-32.2-8.3-32.2s23.7-5 24.9-26.7zm-104.6 21.6s-23.6-3.4-20.9 16c0 0-13.9-2.4-13.3 13.6 0 0-1-14.9-14.7-13.6 0 0-1-31.4-27-27 0 0 13.4-11.2 4.1-18.1-.4-.3-.7-.5-.7-.5.3.2.4.3.7.5 2.4 1.7 11.1 6.4 22.9-5 13.9-13.3 8.4-27 8.4-27s14.1 12 23.6 1c0 0-6.3 7.3 0 11.3 6.3 3.9 11.3 3.9 11.3 3.9s-8.4 4.4-1.6 10.2c6.8 5.8 15.7 3.4 15.7 3.4s-6.5 16 9.4 21.7c-.1.2-17.3-3.2-17.9 9.6z" style="fill:#f7f7f7"/><path id="XMLID_24_" class="st7" d="M183.2 191.4s15 11.8 25.3-.2 5.4-23.2 5.4-23.2 0 16.2-10.5 22.2c-10.6 5.9-20.2 1.2-20.2 1.2z"/><path id="XMLID_31_" class="st7" d="M65.3 133s-11.1 15.6 1.3 25.3C79 168 90 162.7 90 162.7s-16.2.7-22.6-9.6C61 142.7 65.3 133 65.3 133z"/><path id="XMLID_33_" class="st7" d="M160.5 61.5s-7.3-17.7-22.1-12.2-16.1 17.6-16.1 17.6 8-14.1 20.1-14.2c12.1 0 18.1 8.8 18.1 8.8z"/></g><path id="XMLID_4_" class="st11" d="M285 116.8c1.2-21.7-28.6-30.1-28.6-30.1s12.2-22.9-5.4-36.9-36 1.2-36 1.2 3.4-23.9-16.3-30.4S169 33.3 169 33.3s-7.8-17.4-34.4-17.4S96.4 42 96.4 42 73.6 33.8 60 45.4s-6.7 29.9-6.7 29.9-20.6 7.6-21.7 22.3 14.1 26.1 14.1 26.1-18.3 4.6-16.5 27c1.8 22.3 25 26.8 25 26.8s-3.6 19.4 10.7 28.6c14.3 9.2 28-.6 28-.6s-4.5 21.4 15.2 28.6c19.7 7.1 29.2-10.1 29.2-10.1s13.4 17.9 27.4 14.3c14-3.6 18.8-18.5 18.8-18.5s20.3 14.3 39.6 5.4 16.7-29.2 16.7-29.2 18.2-.9 28.6-20.3c10.4-19.4-8.3-32.2-8.3-32.2s23.7-5 24.9-26.7zm-39.7 24.5s16.1 11 7.2 27.6c-8.9 16.6-24.5 17.4-24.5 17.4s2.3 17.4-14.3 25c-16.6 7.7-34-4.6-34-4.6s-4.1 12.8-16.1 15.8c-12 3.1-23.5-12.3-23.5-12.3s-8.2 14.8-25 8.7c-16.9-6.1-13-24.5-13-24.5s-11.8 8.4-24 .5c-12.3-7.9-9.2-24.5-9.2-24.5s-19.9-3.8-21.5-23c-1.5-19.2 14.2-23.1 14.2-23.1s-13-9.8-12.1-22.4C50.4 89.2 68 82.7 68 82.7S62.1 67 73.8 57s31.2-2.9 31.2-2.9 10-22.4 32.8-22.4c22.8 0 29.5 14.9 29.5 14.9s8.6-16.5 25.5-10.9 14 26.1 14 26.1 15.8-13 30.9-1c15.1 12 4.6 31.7 4.6 31.7s25.5 7.2 24.5 25.8-21.5 23-21.5 23z"/></g></svg>