<svg version="1.0" id="圖層_1" xmlns="http://www.w3.org/2000/svg" x="0" y="0" width="300" height="260" style="enable-background:new 0 0 300 260" xml:space="preserve"><style>.st0{display:none}.st1,.st4{display:inline}.st4{fill:#27aae1}.st8{fill:#555;stroke:#424143;stroke-width:2;stroke-miterlimit:10}.st8,.st9{display:inline}.st10,.st9{fill:#010101}.st16{display:inline;fill:#fff;fill-opacity:.78}.st18{fill:#1c95f9;stroke:#414042;stroke-width:2;stroke-miterlimit:10}.st18,.st21,.st35{display:inline}.st21{fill:#fff;fill-opacity:.42}.st35{fill:none;stroke:#414042;stroke-width:3;stroke-miterlimit:10}.st36{fill:#fff;fill-opacity:.55}.st37{display:inline;fill:#6d6e71;stroke:#414042;stroke-width:2;stroke-miterlimit:10}.st39{fill:#1c95f9}.st43{display:inline;opacity:.2;fill:#fff}.st50{fill:#1c95f9;stroke:#414042;stroke-width:2;stroke-miterlimit:10}.st53{fill:#fff;fill-opacity:.42}.st67{fill:none;stroke:#414042;stroke-width:3;stroke-miterlimit:10}.st71{fill:#58595b}.st72{opacity:.29}.st73{opacity:.17}</style><g id="圖層_1_2_"><g id="圖層_1_3_"><path id="XMLID_314_" class="st39" d="M80.8 60.7h142.6v129.2H80.8z"/><path id="XMLID_313_" style="fill:#595a5c" d="M223.4 198.9h-35.7v-4.5h-17.8v4.5h-35.6v-4.5h-17.9v4.5H80.8v-9h142.6z"/><linearGradient id="XMLID_365_" gradientUnits="userSpaceOnUse" x1="152.103" y1="199.117" x2="152.103" y2="190.205" gradientTransform="translate(0 -.22)"><stop offset="0" style="stop-color:#010101;stop-opacity:0"/><stop offset=".853" style="stop-color:#010101;stop-opacity:.6995"/><stop offset="1" style="stop-color:#010101;stop-opacity:.82"/></linearGradient><path id="XMLID_312_" style="fill:url(#XMLID_365_)" d="M223.4 198.9h-35.7v-4.5h-17.8v4.5h-35.6v-4.5h-17.9v4.5H80.8v-9h142.6z"/><linearGradient id="XMLID_366_" gradientUnits="userSpaceOnUse" x1="152.103" y1="87.721" x2="152.103" y2="60.986" gradientTransform="translate(0 -.22)"><stop offset="0" style="stop-color:#c8c8c8"/><stop offset=".076" style="stop-color:#d9d9d8;stop-opacity:.924"/><stop offset=".184" style="stop-color:#eaeaea;stop-opacity:.8161"/><stop offset=".318" style="stop-color:#f6f6f6;stop-opacity:.6824"/><stop offset=".503" style="stop-color:#fff;stop-opacity:.4966"/><stop offset="1" style="stop-color:#fff;stop-opacity:0"/></linearGradient><path id="XMLID_309_" style="fill:url(#XMLID_366_);fill-opacity:.33" d="M80.8 60.7h142.6v26.7H80.8z"/><linearGradient id="XMLID_367_" gradientUnits="userSpaceOnUse" x1="152.103" y1="172.382" x2="152.103" y2="163.47" gradientTransform="translate(0 -.22)"><stop offset="0" style="stop-color:#fff;stop-opacity:0"/><stop offset="1" style="stop-color:#c8c8c8"/></linearGradient><path id="XMLID_255_" style="fill:url(#XMLID_367_);fill-opacity:.32" d="M80.8 163.2h142.6v8.9H80.8z"/><path id="XMLID_252_" style="fill:#fff;fill-opacity:.78" d="M99 87.4h101.7v.2H99z"/><path id="XMLID_251_" d="M232.8 207.8h-27.9c-2.1 0-3.8-1.7-3.8-3.8V55.7c0-2.1 1.7-3.8 3.8-3.8h27.9c2.1 0 3.8 1.7 3.8 3.8V204c0 2-1.7 3.8-3.8 3.8z" style="fill:#1c95f9;stroke:#414042;stroke-width:3;stroke-miterlimit:10"/><path id="XMLID_250_" class="st50" d="M205 208.9c-1.3 0-2.6-.6-3.5-1.5-.9-.9-1.3-2.1-1.3-3.3V55.8c0-2.6 2.2-4.8 4.8-4.8h27.9c2.6 0 4.8 2.2 4.8 4.8v148.3c0 2.6-2.2 4.8-4.8 4.8H205z"/><linearGradient id="XMLID_368_" gradientUnits="userSpaceOnUse" x1="-1010.705" y1="163.467" x2="-1010.705" y2="154.555" gradientTransform="matrix(-1 0 0 1 -791.902 -.22)"><stop offset="0" style="stop-color:#c8c8c8"/><stop offset="1" style="stop-color:#fff;stop-opacity:0"/></linearGradient><path id="XMLID_247_" style="opacity:.68;fill:url(#XMLID_368_);fill-opacity:.49;enable-background:new" d="M201 154.3h35.6v8.9H201z"/><linearGradient id="XMLID_369_" gradientUnits="userSpaceOnUse" x1="218.803" y1="199.117" x2="218.803" y2="163.47" gradientTransform="translate(0 -.22)"><stop offset="0" style="stop-color:#fff;stop-opacity:.5"/><stop offset=".071" style="stop-color:#fff;stop-opacity:.4293"/><stop offset=".5" style="stop-color:#fff;stop-opacity:0"/><stop offset=".929" style="stop-color:#fff;stop-opacity:.4293"/><stop offset="1" style="stop-color:#fff;stop-opacity:.5"/></linearGradient><path id="XMLID_246_" style="opacity:.68;fill:url(#XMLID_369_);enable-background:new" d="M201 163.2h35.6v35.6H201z"/><path id="XMLID_243_" class="st53" d="M201 198.7h35.6v.2H201z"/><path id="XMLID_240_" class="st53" d="M201 198.7h35.6v.2H201z"/><path id="XMLID_237_" class="st53" d="M201 163.1h35.6v.2H201z"/><linearGradient id="XMLID_370_" gradientUnits="userSpaceOnUse" x1="-39.736" y1="-668.039" x2="-39.736" y2="-676.95" gradientTransform="matrix(1 0 0 -1 258.54 -571.626)"><stop offset="0" style="stop-color:#c8c8c8"/><stop offset="1" style="stop-color:#fff;stop-opacity:0"/></linearGradient><path id="XMLID_234_" style="opacity:.68;fill:url(#XMLID_370_);fill-opacity:.49;enable-background:new" d="M201 96.4h35.6v8.9H201z"/><linearGradient id="XMLID_371_" gradientUnits="userSpaceOnUse" x1="-752.165" y1="-632.373" x2="-752.165" y2="-668.02" gradientTransform="rotate(180 -266.681 -285.813)"><stop offset="0" style="stop-color:#fff;stop-opacity:.5"/><stop offset=".071" style="stop-color:#fff;stop-opacity:.4293"/><stop offset=".5" style="stop-color:#fff;stop-opacity:0"/><stop offset=".929" style="stop-color:#fff;stop-opacity:.4293"/><stop offset="1" style="stop-color:#fff;stop-opacity:.5"/></linearGradient><path id="XMLID_233_" style="opacity:.68;fill:url(#XMLID_371_);enable-background:new" d="M201 60.7h35.6v35.6H201z"/><path id="XMLID_230_" class="st53" d="M201 60.7h35.6v.2H201z"/><path id="XMLID_227_" class="st53" d="M201 60.7h35.6v.2H201z"/><path id="XMLID_224_" class="st53" d="M201 96.3h35.6v.2H201z"/><path id="XMLID_223_" class="st50" d="M67 208.8c-1.3 0-2.6-.6-3.5-1.5-.9-.9-1.3-2.1-1.3-3.3V55.7c0-2.6 2.2-4.8 4.8-4.8h27.9c2.6 0 4.8 2.2 4.8 4.8V204c0 2.6-2.2 4.8-4.8 4.8H67z"/><linearGradient id="XMLID_372_" gradientUnits="userSpaceOnUse" x1="-188.388" y1="163.467" x2="-188.388" y2="154.555" gradientTransform="translate(269.291 -.22)"><stop offset="0" style="stop-color:#c8c8c8"/><stop offset="1" style="stop-color:#fff;stop-opacity:0"/></linearGradient><path id="XMLID_220_" style="opacity:.68;fill:url(#XMLID_372_);fill-opacity:.49;enable-background:new" d="M63.1 154.3h35.6v8.9H63.1z"/><linearGradient id="XMLID_373_" gradientUnits="userSpaceOnUse" x1="-603.513" y1="199.117" x2="-603.513" y2="163.47" gradientTransform="matrix(-1 0 0 1 -522.61 -.22)"><stop offset="0" style="stop-color:#fff;stop-opacity:.5"/><stop offset=".071" style="stop-color:#fff;stop-opacity:.4293"/><stop offset=".5" style="stop-color:#fff;stop-opacity:0"/><stop offset=".929" style="stop-color:#fff;stop-opacity:.4293"/><stop offset="1" style="stop-color:#fff;stop-opacity:.5"/></linearGradient><path id="XMLID_219_" style="opacity:.68;fill:url(#XMLID_373_);enable-background:new" d="M63.1 163.2h35.6v35.6H63.1z"/><path id="XMLID_216_" class="st53" d="M63.1 198.7h35.6v.2H63.1z"/><path id="XMLID_213_" class="st53" d="M63.1 198.7h35.6v.2H63.1z"/><path id="XMLID_209_" class="st53" d="M63.1 163.1h35.6v.2H63.1z"/><linearGradient id="XMLID_374_" gradientUnits="userSpaceOnUse" x1="-862.053" y1="-668.039" x2="-862.053" y2="-676.95" gradientTransform="rotate(180 -390.575 -285.813)"><stop offset="0" style="stop-color:#c8c8c8"/><stop offset="1" style="stop-color:#fff;stop-opacity:0"/></linearGradient><path id="XMLID_205_" style="opacity:.68;fill:url(#XMLID_374_);fill-opacity:.49;enable-background:new" d="M63.1 96.4h35.6v8.9H63.1z"/><linearGradient id="XMLID_375_" gradientUnits="userSpaceOnUse" x1="70.151" y1="-632.373" x2="70.151" y2="-668.02" gradientTransform="matrix(1 0 0 -1 10.752 -571.626)"><stop offset="0" style="stop-color:#fff;stop-opacity:.5"/><stop offset=".071" style="stop-color:#fff;stop-opacity:.4293"/><stop offset=".5" style="stop-color:#fff;stop-opacity:0"/><stop offset=".929" style="stop-color:#fff;stop-opacity:.4293"/><stop offset="1" style="stop-color:#fff;stop-opacity:.5"/></linearGradient><path id="XMLID_204_" style="opacity:.68;fill:url(#XMLID_375_);enable-background:new" d="M63.1 60.7h35.6v35.6H63.1z"/><path id="XMLID_201_" class="st53" d="M63.1 60.7h35.6v.2H63.1z"/><path id="XMLID_198_" class="st53" d="M63.1 60.7h35.6v.2H63.1z"/><path id="XMLID_154_" class="st53" d="M63.1 96.3h35.6v.2H63.1z"/><linearGradient id="XMLID_376_" gradientUnits="userSpaceOnUse" x1="247.143" y1="129.967" x2="236.602" y2="129.967" gradientTransform="translate(0 -.22)"><stop offset="0" style="stop-color:#030303;stop-opacity:0"/><stop offset="1" style="stop-color:#010101"/></linearGradient><path id="XMLID_153_" style="fill:url(#XMLID_376_)" d="M236.6 60.7h10.5v138h-10.5z"/><linearGradient id="XMLID_377_" gradientUnits="userSpaceOnUse" x1="52.589" y1="130.167" x2="63.13" y2="130.167" gradientTransform="translate(0 -.22)"><stop offset="0" style="stop-color:#030303;stop-opacity:0"/><stop offset="1" style="stop-color:#010101"/></linearGradient><path id="XMLID_96_" style="fill:url(#XMLID_377_)" d="M52.6 60.9h10.5v138H52.6z"/><linearGradient id="XMLID_378_" gradientUnits="userSpaceOnUse" x1="98.603" y1="125.567" x2="201.103" y2="125.567" gradientTransform="translate(0 -.22)"><stop offset="0" style="stop-color:#010101"/><stop offset=".073" style="stop-color:#010101;stop-opacity:.8537"/><stop offset=".5" style="stop-color:#010101;stop-opacity:0"/><stop offset=".927" style="stop-color:#010101;stop-opacity:.8537"/><stop offset="1" style="stop-color:#010101"/></linearGradient><path id="XMLID_92_" style="fill:url(#XMLID_378_);fill-opacity:.21" d="M98.6 60.7h102.5v129.2H98.6z"/><linearGradient id="XMLID_379_" gradientUnits="userSpaceOnUse" x1="80.903" y1="52.074" x2="80.903" y2="60.942" gradientTransform="translate(0 -.22)"><stop offset="0" style="stop-color:#010101;stop-opacity:.95"/><stop offset=".127" style="stop-color:#010101;stop-opacity:.8292"/><stop offset="1" style="stop-color:#010101;stop-opacity:0"/></linearGradient><path id="XMLID_80_" d="M63.1 55.7v5h35.6v-5c0-2.1-1.7-3.8-3.8-3.8H67c-2.1-.1-3.9 1.6-3.9 3.8z" style="opacity:.64;fill:url(#XMLID_379_);fill-opacity:.46;enable-background:new"/><linearGradient id="XMLID_380_" gradientUnits="userSpaceOnUse" x1="218.803" y1="52.074" x2="218.803" y2="60.942" gradientTransform="translate(0 -.22)"><stop offset="0" style="stop-color:#010101;stop-opacity:.95"/><stop offset=".127" style="stop-color:#010101;stop-opacity:.8292"/><stop offset="1" style="stop-color:#010101;stop-opacity:0"/></linearGradient><path id="XMLID_75_" d="M201 55.7v5h35.6v-5c0-2.1-1.7-3.8-3.8-3.8h-27.9c-2.2-.1-3.9 1.6-3.9 3.8z" style="opacity:.64;fill:url(#XMLID_380_);fill-opacity:.46;enable-background:new"/><linearGradient id="XMLID_381_" gradientUnits="userSpaceOnUse" x1="218.903" y1="-362.512" x2="218.903" y2="-353.644" gradientTransform="matrix(1 0 0 -1 0 -154.703)"><stop offset="0" style="stop-color:#010101;stop-opacity:.95"/><stop offset=".127" style="stop-color:#010101;stop-opacity:.8292"/><stop offset="1" style="stop-color:#010101;stop-opacity:0"/></linearGradient><path id="XMLID_68_" d="M201.1 203.9v-5h35.6v5c0 2.1-1.7 3.8-3.8 3.8H205c-2.2.1-3.9-1.7-3.9-3.8z" style="opacity:.64;fill:url(#XMLID_381_);fill-opacity:.46;enable-background:new"/><linearGradient id="XMLID_382_" gradientUnits="userSpaceOnUse" x1="80.903" y1="-362.512" x2="80.903" y2="-353.644" gradientTransform="matrix(1 0 0 -1 0 -154.703)"><stop offset="0" style="stop-color:#010101;stop-opacity:.95"/><stop offset=".127" style="stop-color:#010101;stop-opacity:.8292"/><stop offset="1" style="stop-color:#010101;stop-opacity:0"/></linearGradient><path id="XMLID_61_" d="M63.1 203.9v-5h35.6v5c0 2.1-1.7 3.8-3.8 3.8H67c-2.1.1-3.9-1.7-3.9-3.8z" style="opacity:.64;fill:url(#XMLID_382_);fill-opacity:.46;enable-background:new"/><path id="XMLID_55_" class="st67" d="M100.6 60.7h99.1"/><path id="XMLID_54_" class="st67" d="M100.6 189h99.1"/><g id="XMLID_30_"><path id="XMLID_34_" class="st36" d="M201.1 55.7V204c-.1 1.7 1.2 3.2 2.8 3.6h1.7l3.1-9V163l-2.2-8.7.1-30.9-.1-18.5 2.2-8.7V60.7l-3-8.8h-.8c-2.1 0-3.8 1.7-3.8 3.8z"/><path id="XMLID_31_" class="st36" d="M236.6 204v-1.8l-.1-78.6.1-67v-1c0-2.1-1.7-3.8-3.8-3.8h-.8l-3.1 9v35.6l2.2 8.7-.1 18.5.1 30.9-2.2 8.7v35.6l3.1 9h.8c2.1 0 3.8-1.7 3.8-3.8z"/></g><g id="XMLID_8_"><path id="XMLID_17_" class="st36" d="M63.3 55.7V204c-.1 1.7 1.2 3.2 2.8 3.6h1.7l3.1-9V163l-2.2-8.7.1-30.9-.1-18.4 2.2-8.7V60.8l-3-8.8H67c-2-.1-3.7 1.6-3.7 3.7z"/><path id="XMLID_88_" class="st36" d="M98.8 204v-1.8l-.1-78.6.1-67v-1c0-2.1-1.7-3.8-3.8-3.8h-.8l-3.1 9v35.6l2.2 8.7-.1 18.5.1 30.9-2.2 8.7v35.6l3.1 9h.8c2 0 3.8-1.7 3.8-3.8z"/></g><path id="XMLID_327_" d="M177.2 67.3h-56.7c-3.9 0-7.1-.6-7.1 5.9s3.2 11.8 7.1 11.8h56.7c3.9 0 7.1-5.3 7.1-11.8 0-6.5-3.2-5.9-7.1-5.9z" style="fill:#1c75bc;stroke:#414042;stroke-width:2;stroke-miterlimit:10"/><path id="XMLID_331_" d="M177.2 67.3h-56.7c-3.9 0-7.1-.6-7.1 5.9 0 5.4 2.2 9.9 5.2 11.3-1-2.1-1.6-4.8-1.6-7.8 0-6.5 2.9-5.9 6.4-5.9h51c3.5 0 6.4-.6 6.4 5.9 0 3-.6 5.7-1.6 7.8 3-1.4 5.2-6 5.2-11.3-.1-6.5-3.3-5.9-7.2-5.9z" style="opacity:.38"/><path id="XMLID_316_" style="fill:#414042" d="M100.6 92.1h98.6V189h-98.6z"/><path id="XMLID_318_" class="st71" d="M100.6 100.2h3.8v90.7h-3.8z"/><path id="XMLID_323_" class="st71" d="M195.7 100.2h3.5v90.7h-3.5z"/><path id="XMLID_320_" class="st72" d="M175.4 178c-4.9 0-8.9-4-8.9-8.9v-54c0-4.9 4-8.9 8.9-8.9s8.9 4 8.9 8.9v54c0 4.9-4 8.9-8.9 8.9z"/><path id="XMLID_325_" class="st72" d="M125.8 178c-4.9 0-8.9-4-8.9-8.9v-54c0-4.9 4-8.9 8.9-8.9s8.9 4 8.9 8.9v54c-.1 4.9-4 8.9-8.9 8.9z"/><path id="XMLID_338_" class="st73" d="M120.5 171.9v-54c0-4.9 4-8.9 8.9-8.9 1.2 0 2.4.2 3.4.7-1.6-2.1-4.1-3.4-7-3.4-4.9 0-8.9 4-8.9 8.9v54c0 3.7 2.3 6.8 5.4 8.2-1.1-1.6-1.8-3.5-1.8-5.5z"/><path id="XMLID_330_" class="st73" d="M170.1 171.9v-54c0-4.9 4-8.9 8.9-8.9 1.2 0 2.4.2 3.4.7-1.6-2.1-4.1-3.4-7-3.4-4.9 0-8.9 4-8.9 8.9v54c0 3.7 2.3 6.8 5.4 8.2-1.1-1.6-1.8-3.5-1.8-5.5z"/><linearGradient id="XMLID_383_" gradientUnits="userSpaceOnUse" x1="150.035" y1="106.299" x2="150.035" y2="99.213"><stop offset="0" style="stop-color:#000;stop-opacity:0"/><stop offset=".859" style="stop-color:#000;stop-opacity:.8587"/><stop offset="1" style="stop-color:#000"/></linearGradient><path id="XMLID_324_" style="opacity:.42;fill:url(#XMLID_383_)" d="M104.4 99.2h91.3v7.1h-91.3z"/><linearGradient id="XMLID_384_" gradientUnits="userSpaceOnUse" x1="150.045" y1="204.254" x2="150.045" y2="178.125" gradientTransform="matrix(1 0 0 -1 0 368.504)"><stop offset="0" style="stop-color:#fff;stop-opacity:0"/><stop offset="1" style="stop-color:#fff"/></linearGradient><path id="XMLID_334_" style="opacity:.42;fill:url(#XMLID_384_);fill-opacity:.2" d="M104.5 164.3h91.2v26.1h-91.2z"/><linearGradient id="XMLID_385_" gradientUnits="userSpaceOnUse" x1="128.201" y1="82.966" x2="128.201" y2="75.879" gradientTransform="rotate(-90 150.868 122.256)"><stop offset="0" style="stop-color:#000;stop-opacity:0"/><stop offset=".859" style="stop-color:#000;stop-opacity:.8587"/><stop offset="1" style="stop-color:#000"/></linearGradient><path id="XMLID_315_" style="opacity:.42;fill:url(#XMLID_385_)" d="M104.5 99.3h7.1v91.3h-7.1z"/><linearGradient id="XMLID_386_" gradientUnits="userSpaceOnUse" x1="128.222" y1="131.903" x2="128.222" y2="124.817" gradientTransform="matrix(0 -1 -1 0 320.457 273.124)"><stop offset="0" style="stop-color:#000;stop-opacity:0"/><stop offset=".859" style="stop-color:#000;stop-opacity:.8587"/><stop offset="1" style="stop-color:#000"/></linearGradient><path id="XMLID_319_" style="opacity:.42;fill:url(#XMLID_386_)" d="M188.6 99.2h7.1v91.3h-7.1z"/><path id="XMLID_333_" style="opacity:.14;fill:#d1d3d4" d="M149.6 84h13.1l13.7-15.6h-17z"/></g></g></svg>