<svg version="1.0" xmlns="http://www.w3.org/2000/svg" width="300" height="260" style="enable-background:new 0 0 300 260" xml:space="preserve"><style>.st0{display:none}.st2,.st8,.st9{display:inline}.st8,.st9{fill:#515250}.st9{fill:#262626}.st10{fill:#fbf7cb}.st11{fill:#f3eab1}.st14{fill:#efa624}.st15{fill:#fff48b}.st16{fill:#e0c17d}.st17{fill:#cbb577}.st18{fill:#fffad9}.st19{fill:#f7f0d0}.st20{fill:#fffada}.st23,.st27{opacity:.43;fill:#f7f0d0}.st27{opacity:.37}</style><g id="dust7"><g id="one"><g id="base_-_copie_6"><path id="XMLID_166_" class="st10" d="M135.5 146.8s-.4 3.5-4.7 4.1c-1.3.2-3.4-1.3-3.4-2 0 0-.5.7-1.4.6-.9-.1-1.3-.8-1.3-1.2 0 0-1.5 1.9-2.5.6-1-1.3-.5-3.7 1.1-3.3 0 0-.9-.5-.9-2.1 0 0-.4 2.1-2.3 1.3s-1.3-4.1-1.3-4.1-1.9-.7-1.7-2.4c.1-1.3 1.3-1.5 1.3-1.5s-.3-1.2.7-1.2c0 0-.6-1.5-.2-2.5.4-1 2.3-1.5 2.3-1.5s-1.1-2.5 2.3-3 5.6-.5 5.8.9c0 0 1.3-.9 1.8 1.1 0 0 2.2-2.5 4.4-1.1s2.5 2.5 1.4 4.2c0 0 .5.1.4.9-.1.8-.7.8-.7.8s.5 0 .5.7-.6.9-.6.9.5 0 .7.5c.2.4.2.9.2.9s1.7.8 1.8 2.7c0 1.9-2 2.9-2 2.9s.3.6-.3 1.8c-.6 1.2-1.4 1-1.4 1z"/></g><g id="Calque_26_-_copie_6"><g id="XMLID_126_"><path id="XMLID_128_" class="st11" d="M126.7 130.2c.8-.8 1.8.5 1.9.5 1.4-.2 1.5 1.4 1.5 1.4.2-.6 1.1-.5 1.1-.5 1.4.3.9 2.5.9 2.5-1.5 2-3.9.3-3.9.3-.1.3-.3.3-.4.3.3.1.3 1 .3 1 0-.5.5-.4.5-.4s2.6-.1 3.4 1.5c.8 1.6-1.2 3.3-1.2 3.3s.7 0 1.2.7-.1 1.4-.1 1.4.5.1.5 1.3-1.2 1.7-1.2 1.7.4.5 0 1.8-2 0-2 0c-.9-.1-1.7.9-1.7.9.1.5 0 .8 0 1.1.1.7 2.1 2.1 3.4 1.9 4.2-.6 4.7-4.1 4.7-4.1s.8.3 1.4-1c.6-1.3.3-1.8.3-1.8s2.1-1 2-2.9c0-1.9-1.8-2.7-1.8-2.7s0-.5-.2-.9-.7-.5-.7-.5.6-.2.6-.9-.5-.7-.5-.7.6 0 .7-.8c.1-.8-.4-.9-.4-.9 1.1-1.8.8-2.8-1.4-4.2s-4.4 1.1-4.4 1.1c-.6-1.9-1.8-1.1-1.8-1.1-.2-1.4-2.3-1.4-5.7-.9 1.3.2 3 1.6 3 1.6z"/><path id="XMLID_127_" class="st11" d="M127.7 134.7s0-.1 0 0z"/></g></g><g id="details_-_copie_6"><g id="XMLID_123_" style="opacity:.43"><path id="XMLID_125_" class="st16" d="M136.7 139s1.4 1.1 1.6 2.6c.1 1.5-1.9 1.9-1.9 1.9s.2.5-.2 1.7-3.2.1-3.2.1c-.1 1.6 1.6 1.7 1.6 1.8-.9 3.1-4.1 3.3-5.4 3.3.6.3 1.2.5 1.7.4 4.2-.6 4.7-4.1 4.7-4.1s.8.3 1.4-1c.6-1.3.3-1.8.3-1.8s2.1-1 2-2.9c0-1.9-1.8-2.7-1.8-2.7v-.4l-.2.4c0 .1-.1.2-.2.3l-.4.4z"/><path id="XMLID_124_" class="st16" d="M137.3 133c-.7 1.9-3.3 2.5-3.3 2.5.7.6 2.4 0 2.4 0 .2.9 0 1.5 0 1.5h.1s.6-.2.6-.9-.5-.7-.5-.7.6 0 .7-.8c.1-.8-.4-.9-.4-.9.2-.4.4-.7.5-1.1 0 .1 0 .2-.1.4z"/></g><path id="XMLID_115_" d="M126.8 140.5s1.4-.7.9-1.9-1.6-1.2-1.6-1.2-.5-.8-1-.3c-.5.6.1 2.5.1 2.5s-.6 2.8.9 2.7c1.5-.1.7-1.8.7-1.8z" style="opacity:.43;fill:#fffad9"/><path id="XMLID_114_" class="st23" d="M136.3 141.3s.4 1.1-.6 1.5c-1 .3-.8-.8-.8-.8s-.6-.1-.4-1.1c.2-1 .6-1.1.6-1.1s.3-.7.9-.4.6 1 .6 1 .3.2.2.6c-.2.4-.5.3-.5.3z"/><path id="XMLID_113_" d="M121.3 142.5s-.1.9-.9.7c-.8-.2-.4-1.4-.4-1.4s-.4-.9 0-1.3c.4-.3.9.1.9.1s.6-.4.8.1.2 1.7-.4 1.8z" style="opacity:.43;fill:#fffada"/><path id="XMLID_112_" class="st23" d="M135.3 131.3s.7 0 .6.8-1 .6-1 .6-.3.3-.9-.1-.3-1-.3-1-.4-.4 0-.7c.4-.3.6-.1.6-.1s.5-.1.7.1c.3.2.3.4.3.4z"/></g></g><g id="two"><g id="base_-_copie_7"><path id="XMLID_168_" class="st10" d="M160.5 114.7s-2.5-2.4-.5-6.2c.6-1.1 3.1-1.9 3.6-1.5 0 0-.3-.8.4-1.5s1.4-.6 1.8-.3c0 0-.6-2.3 1.1-2.4 1.6 0 3.2 1.8 1.9 2.9 0 0 .9-.4 2.2.5 0 0-1.4-1.6.3-2.6 1.8-1.1 4 1.4 4 1.4s1.7-1.1 3 .1c.9.9.4 1.9.4 1.9s1.1.5.6 1.3c0 0 1.6.4 2.1 1.3s-.2 2.8-.2 2.8 2.7.6 1 3.7c-1.7 3.1-3 4.8-4.2 4.1 0 0-.1 1.5-2 .8 0 0 .7 3.3-1.8 4.1-2.5.9-3.5.5-4.2-1.4 0 0-.4.4-.9-.2-.6-.6-.2-1.1-.2-1.1s-.3.4-.8 0-.3-1-.3-1-.3.4-.8.3-.8-.4-.8-.4-1.7.9-3.2-.2c-1.6-1.1-1.1-3.4-1.1-3.4s-.7-.1-1.3-1.3c-.8-1.2-.1-1.7-.1-1.7z"/></g><g id="Calque_26_-_copie_7"><g id="XMLID_150_"><path id="XMLID_153_" class="st11" d="M179 117.7c.2 1.1-1.4 1.1-1.5 1.2-.7 1.3-2 .4-2 .4.4.5-.3 1.2-.3 1.2-1.1.9-2.5-.8-2.5-.8-.7-2.4 2.1-3.2 2.1-3.2-.2-.2-.1-.4 0-.5-.3.2-1-.4-1-.4.3.3 0 .7 0 .7s-1.5 2.1-3.2 1.8c-1.8-.3-1.9-2.9-1.9-2.9s-.4.5-1.3.5c-.8 0-1.1-.9-1.1-.9s-.3.3-1.4-.4c-1-.7-.6-2-.6-2s-.6 0-1.4-1.1c-.8-1.1 1.2-1.6 1.2-1.6.6-.6.3-1.9.3-1.9-.4-.2-.7-.5-.8-.7-.7-.4-2.9.4-3.6 1.5-2.1 3.8.5 6.2.5 6.2s-.7.4 0 1.7c.6 1.2 1.3 1.3 1.3 1.3s-.5 2.2 1.1 3.4c1.6 1.1 3.2.2 3.2.2s.4.3.8.4c.5.1.8-.3.8-.3s-.2.6.3 1 .8 0 .8 0-.3.5.2 1.1c.6.6.9.2.9.2.7 1.9 1.7 2.3 4.2 1.4 2.5-.9 1.8-4.1 1.8-4.1 1.9.7 2-.8 2-.8 1.2.7 2.5-1 4.2-4-1 .9-3.1 1.4-3.1 1.4z"/><path id="XMLID_152_" class="st11" d="M174.9 115.8c-.1 0 0 0 0 0z"/></g></g><g id="details_-_copie_7"><g id="XMLID_161_" style="opacity:.37"><path id="XMLID_163_" class="st16" d="M166 120.4s-1.8.5-3-.4c-1.3-.8-.3-2.7-.3-2.7s-.5-.1-1.3-1.2c-.8-1 1.9-2.6 1.9-2.6-1.2-1-2.3.2-2.4.1-1.9-2.6-.2-5.3.6-6.3-.6.3-1.1.7-1.3 1.1-2.1 3.8.5 6.2.5 6.2s-.7.4 0 1.7c.6 1.2 1.3 1.3 1.3 1.3s-.5 2.2 1.1 3.4c1.6 1.1 3.2.2 3.2.2s.1.1.3.2l-.2-.4c-.1-.1-.1-.2-.1-.3l-.3-.3z"/><path id="XMLID_162_" class="st16" d="M170.4 124.5c-1.1-1.7 0-4.1 0-4.1-.9.2-1.5 1.9-1.5 1.9-.8-.4-1.2-.9-1.2-.9l-.1.1s-.2.6.3 1 .8 0 .8 0-.3.5.2 1.1c.6.6.9.2.9.2.2.4.3.8.5 1.1.3-.2.2-.3.1-.4z"/></g><path id="XMLID_160_" d="M170.7 111.5s-.2 1.5 1 1.9c1.2.3 1.9-.6 1.9-.6s.9.1.8-.7-2-1.4-2-1.4-1.9-2.1-2.7-.9c-.7 1.4 1 1.7 1 1.7z" style="opacity:.37;fill:#fffad9"/><path id="XMLID_159_" class="st27" d="M164.3 118.6s-1.1-.4-.8-1.4c.3-1 1.1-.2 1.1-.2s.4-.4 1.1.3c.7.7.5 1.1.5 1.1s.4.7-.2.9c-.6.3-1.1-.1-1.1-.1s-.3.1-.6-.2c-.1-.2 0-.4 0-.4z"/><path id="XMLID_158_" d="M172.5 106s-.7-.6 0-1.1c.7-.5 1.4.5 1.4.5s1 .3 1 .8-.6.6-.6.6-.1.7-.6.5c-.5-.2-1.5-.8-1.2-1.3z" style="opacity:.37;fill:#fffada"/><path id="XMLID_157_" class="st27" d="M172.9 123.9s-.5.6-1 0 .1-1.2.1-1.2-.1-.4.6-.6c.7-.2 1 .4 1 .4s.6 0 .6.5-.2.5-.2.5-.2.4-.5.5c-.3 0-.6-.1-.6-.1z"/></g></g></g></svg>