<svg version="1.0" xmlns="http://www.w3.org/2000/svg" width="300" height="260" style="enable-background:new 0 0 300 260" xml:space="preserve"><style>.st0{display:none}.st2{display:inline}.st4{fill:#cbb577}.st8{fill:#515250}.st9{fill:#262626}.st10{fill:#fbf7cb}.st11{fill:#f3eab1}.st14{fill:#efa624}.st15{fill:#fff48b}.st16{fill:#e0c17d}.st17{fill:#fffad9}.st18{fill:#f7f0d0}.st19{fill:#fffada}.st22,.st26{opacity:.43;fill:#f7f0d0}.st26{opacity:.37}</style><g id="Calque_53"><path id="XMLID_15_" class="st4" d="M136.9 160s18.5 3.2 29.2 0l-3.9-17.2s17.6 1.3 15.5-20.5-14.5-18.3-25.7-18.6c-17.4-.5-30.7 4.4-30.7 16.1 0 4.6 0 11.6 2.2 14.5 5 6.6 16.3 8.8 16.3 8.8l-2.9 16.9z"/><path id="XMLID_44_" d="M136.9 160s18.5 3.2 29.2 0l-3.9-17.2s17.6 1.3 15.5-20.5-14.5-18.3-25.7-18.6c-17.4-.5-30.7 4.4-30.7 16.1 0 4.6 0 11.6 2.2 14.5 5 6.6 16.3 8.8 16.3 8.8l-2.9 16.9z" style="fill:#e0e0e0;stroke:#000;stroke-width:2;stroke-miterlimit:10"/><path id="XMLID_51_" d="M136.9 160s18.5 3.2 29.2 0l-3.9-17.2s17.6 1.3 15.5-20.5-14.5-18.3-25.7-18.6c-17.4-.5-30.7 4.4-30.7 16.1 0 4.6 0 11.6 2.2 14.5 5 6.6 16.3 8.8 16.3 8.8l-1.6 9.2-1.3 7.7z" style="fill:#c6c6c5"/><path id="XMLID_55_" d="M137.7 160.1s17.5 3 26.7.3l-4-19.4s16.9-.5 15.2-19.1c-1.8-18.6-14.4-14.7-24-15-14.8-.4-28.7 3.6-28.7 13.5 0 3.9 1.8 11.2 3.7 13.7 4.3 5.6 15.3 7.5 15.3 7.5l-2.1 9-2.1 9.5z" style="fill:#e0e0e0"/><path id="XMLID_54_" d="m143.8 152.2.7-4.2.4 4.2h7.2v-4.7l1 4.7h5.4l.8-5.1.6 4.7h4.4l.2.9h-4.6l-.6 4.1-.5-4-5.6.1-.6 3.9-.2-3.7-7.2-.2-1 3.9-.1-4h-6l.2-.6z"/><path id="XMLID_80_" d="M148.7 134.1c.3.3.9.3 1.1-.1.3-.4.5-1 .4-1.7-.1-1.6-2.5-1.1-2.5-1.1s-.2.7 0 2c.1.3.7.6 1 .9z"/><path id="XMLID_81_" d="M153.7 134.1c-.3.3-.9.3-1.1-.1-.3-.4-.5-1-.4-1.7.1-1.6 2.5-1.1 2.5-1.1s.2.7 0 2c-.2.3-.7.6-1 .9z"/><ellipse id="XMLID_75_" cx="139.1" cy="122.4" rx="6.2" ry="6.6"/><ellipse id="XMLID_143_" cx="163.8" cy="122.4" rx="6.2" ry="6.6"/><path id="XMLID_146_" class="st8" d="M163.6 116.1c-1.6 0-3 .7-4 1.7.8-.5 1.8-.7 2.7-.7 3.3 0 5.9 2.9 5.9 6.5 0 1.9-.7 3.6-1.9 4.7 1.9-1.1 3.2-3.2 3.2-5.7 0-3.6-2.6-6.5-5.9-6.5z"/><path id="XMLID_82_" class="st8" d="M138.9 116.1c1.5 0 2.9.6 3.9 1.7-.8-.5-1.7-.7-2.7-.7-3.2 0-5.8 2.8-5.8 6.3 0 1.8.7 3.4 1.9 4.6-1.9-1-3.1-3.1-3.1-5.5 0-3.6 2.6-6.4 5.8-6.4z"/><path id="XMLID_145_" class="st9" d="M153.2 134.2s-.9-.4-.8-.9.8-.2.8-.2.9.7 0 1.1z"/><path id="XMLID_147_" class="st9" d="M149.1 134s.9-.4.8-.9-.8-.2-.8-.2-.9.7 0 1.1z"/></g></svg>