<?xml version="1.0" encoding="utf-8"?>
<!-- Generator: Adobe Illustrator 19.0.0, SVG Export Plug-In . SVG Version: 6.00 Build 0)  -->
<svg version="1.0" id="Calque_1" xmlns="http://www.w3.org/2000/svg" xmlns:xlink="http://www.w3.org/1999/xlink" x="0px" y="0px" width="300px" height="260px"
	 viewBox="0 0 300 260" style="enable-background:new 0 0 300 260;" xml:space="preserve">
<style type="text/css">
	.st0{opacity:0.18;fill:#FFFFFF;}
	.st1{fill:none;stroke:#575756;stroke-width:13;stroke-miterlimit:10;}
	.st2{fill:#CD1C83;}
	.st3{opacity:0.61;fill:#EDEDED;}
	.st4{opacity:0.3;}
	.st5{opacity:0.3;fill:#FFFFFF;}
	.st6{opacity:0.21;}
	.st7{opacity:0.52;fill:url(#XMLID_2_);}
	.st8{opacity:0.46;fill:url(#XMLID_3_);}
</style>
<path id="XMLID_212_" class="st0" d="M149.2,139c0,0,0.2,1-0.6,1.3c-0.8,0.4-0.9,0.1-0.8-0.4c0.2-0.5,0-1.3,0.5-1.4
	C149,138.5,149.2,139,149.2,139z"/>
<path id="XMLID_211_" class="st1" d="M259,102.4c0,0,10.4,11.9,2.3,29.2c-9.4,20.2-43.8,70.5-49.5,78.8c-0.5,0.7-0.8,1.3-1.2,2.1
	c-1.8,4.2-11.3,21-43.8,17.3c-25.7-2.9-51.3-3.2-64.6-3.1c-8.7,0.1-16.6-4.8-20.5-12.5c-0.6-1.2-1.2-2.5-1.9-4
	c-6.6-15-33.2-95.3-39.8-111.8c-0.7-1.7-1.5-3.3-2-4.6C35.8,89,29.6,78,47.4,65.3c22.1-15.8,47.2-29.7,47.2-29.7s9.5-6.7,21.2-5.3
	c10.9,1.4,92.7,35,103,39.3c0.6,0.2,1.2,0.4,1.8,0.6C223.9,71.1,238.8,76.4,259,102.4z"/>
<path id="XMLID_210_" class="st2" d="M259,102.4c0,0,10.4,11.9,2.3,29.2c-9.4,20.2-43.8,70.5-49.5,78.8c-0.5,0.7-0.8,1.3-1.2,2.1
	c-1.8,4.2-11.3,21-43.8,17.3c-25.7-2.9-51.3-3.2-64.6-3.1c-8.7,0.1-16.6-4.8-20.5-12.5c-0.6-1.2-1.2-2.5-1.9-4
	c-6.6-15-33.2-95.3-39.8-111.8c-0.7-1.7-1.5-3.3-2-4.6C35.8,89,29.6,78,47.4,65.3c22.1-15.8,47.2-29.7,47.2-29.7s9.5-6.7,21.2-5.3
	c10.9,1.4,92.7,35,103,39.3c0.6,0.2,1.2,0.4,1.8,0.6C223.9,71.1,238.8,76.4,259,102.4z"/>
<path id="XMLID_209_" class="st3" d="M158.5,97.7l-8.4,24.4c0,0-1.9,4.4-7,3.5s-43.9-13.7-43.9-13.7l45.9,18.7
	c0,0,3.8,1.9,11.3,13.1c7.5,11.2,15.8,22.1,15.8,22.1S150.8,135,152,128.6C153.2,122.2,158.5,97.7,158.5,97.7z"/>
<path id="XMLID_208_" class="st4" d="M102.2,226.6c13.3-0.1,38.9,0.2,64.6,3.1c32.5,3.7,42-13.1,43.8-17.3c0.3-0.7,0.7-1.4,1.2-2.1
	c5.7-8.2,40.1-58.6,49.5-78.8c8.1-17.2-2.3-29.2-2.3-29.2c0,0,0,0,0-0.1l-3.1,6c0,0-15.9,51-66.4,71s-96.5,20.6-113,16.9
	c-0.4,0.8-0.7,1.6-1,2.5c0.9,2.4,1.7,4.5,2.4,6.3c0.1,0.2,0.2,0.5,0.3,0.7c0.2,0.6,0.5,1.2,0.7,1.8c0.1,0.2,0.2,0.5,0.3,0.7
	c0.3,0.7,0.6,1.3,0.8,1.9c0.6,1.4,1.3,2.8,1.9,4C85.7,221.9,93.6,226.7,102.2,226.6z"/>
<path id="XMLID_115_" class="st5" d="M212.3,67c-7.8-3.2-20.8-8.5-34.9-14.1l0,0c-1.3-0.5-2.6-1-3.9-1.5c0,0,0,0-0.1,0l-1.9,2.1
	l-22.2,77.8l56.6,88.1c0.7-0.7,1.2-1.4,1.8-2.1c0,0,0,0,0,0c0.5-0.6,0.9-1.2,1.2-1.8c0.1-0.1,0.1-0.2,0.2-0.3
	c0.3-0.4,0.5-0.9,0.7-1.2c0.1-0.1,0.1-0.2,0.2-0.3c0.2-0.4,0.4-0.8,0.5-1.1c0.3-0.7,0.7-1.4,1.2-2.1c5.7-8.2,40.1-58.6,49.5-78.8
	c8.1-17.2-2.3-29.2-2.3-29.2c-20.3-26.1-35.1-31.3-38.5-32.2c-0.6-0.2-1.2-0.4-1.8-0.6c-1.1-0.4-3-1.2-5.5-2.2
	C213,67.3,212.7,67.1,212.3,67z"/>
<path id="XMLID_110_" class="st6" d="M79.5,82.2L99.5,33c-3.1,1.3-5,2.7-5,2.7S69.5,49.5,47.4,65.3c-4.8,3.4-7.9,6.8-9.7,9.9
	L79.5,82.2z"/>
<linearGradient id="XMLID_2_" gradientUnits="userSpaceOnUse" x1="260.6951" y1="367.5726" x2="260.6951" y2="470.8279" gradientTransform="matrix(-0.7893 0.614 -0.614 -0.7893 588.7417 248.9177)">
	<stop  offset="0" style="stop-color:#FFFFFF"/>
	<stop  offset="3.264958e-002" style="stop-color:#FFFFFF;stop-opacity:0.9674"/>
	<stop  offset="1" style="stop-color:#FFFFFF;stop-opacity:0"/>
</linearGradient>
<path id="XMLID_108_" class="st7" d="M152.8,119.4l3-10.6c0,0,13.3-46.6,16-53.2c1-2.5,0.5-4.1-0.6-5.2c-24.2-9.6-49.6-19.3-55.4-20
	c-6.5-0.8-12.4,0.9-16.3,2.6l0,0c0,0-13.9,34.2-20.1,49.2c-6.1,15-0.6,22.3-0.6,22.3s48.4,17.7,60.3,21.5
	C151,129.7,152.8,119.4,152.8,119.4z"/>
<linearGradient id="XMLID_3_" gradientUnits="userSpaceOnUse" x1="299.5978" y1="450.4061" x2="348.876" y2="450.4061" gradientTransform="matrix(-0.7893 0.614 -0.614 -0.7893 588.7417 248.9177)">
	<stop  offset="1.065275e-007" style="stop-color:#000000"/>
	<stop  offset="1" style="stop-color:#000000;stop-opacity:0"/>
</linearGradient>
<path id="XMLID_106_" class="st8" d="M79.5,82.2l-41.8-6.9l0,0c-4.9,8.3-1.2,15,0.5,18.5c0.4,1.3,1.3,2.9,2,4.6
	c1.4,3.5,6.2,17,9,25.1c8.5,0.2,15.7-4.2,21.8-12.8c2.9-4.1,5.8-9.7,5.7-15.2C76.4,89.8,79.5,82.2,79.5,82.2z"/>
<path id="XMLID_104_" class="st0" d="M59.3,113.5c0,0-0.5,2.3-2.7,2.6c-2.2,0.3-3.5,0.2-2.6-0.8c0.9-1,2.6-3.3,3.9-3.2
	S59.3,113.5,59.3,113.5z"/>
<path id="XMLID_102_" class="st0" d="M72,77.3c0,0-2.2,0.9-3.7-0.7c-1.5-1.6-2.2-2.7-0.8-2.6c1.3,0.1,4.2,0.3,4.9,1.4
	S72,77.3,72,77.3z"/>
<path id="XMLID_9_" class="st0" d="M114.8,203.1c0,0,0.3,2.3-1.6,3.4s-3.2,1.4-2.8,0.2c0.4-1.3,1.3-4,2.5-4.4
	C114.2,201.9,114.8,203.1,114.8,203.1z"/>
</svg>
