<?xml version="1.0" encoding="utf-8"?>
<!-- Generator: Adobe Illustrator 19.0.0, SVG Export Plug-In . SVG Version: 6.00 Build 0)  -->
<svg version="1.0" id="圖層_1" xmlns="http://www.w3.org/2000/svg" xmlns:xlink="http://www.w3.org/1999/xlink" x="0px" y="0px" width="300px" height="260px"
	 viewBox="0 21 300 260" style="enable-background:new 0 21 300 260;" xml:space="preserve">
<style type="text/css">
	.st0{opacity:0.8;}
	.st1{opacity:0.81;}
	.st2{fill:#F1F2F2;}
	.st3{opacity:0.81;fill:#F1F2F2;enable-background:new    ;}
</style>
<g id="water6">
	<g id="XMLID_183_" class="st0">
		<g id="XMLID_398_">
			<g id="XMLID_481_">
				<g id="XMLID_492_">
					<g id="XMLID_493_" class="st1">
						<path id="XMLID_494_" class="st2" d="M117.6,126.3L117.6,126.3c-3.7,0.6-6.5,0.8-7.9,0.9c-14.4,1.7-61-18-61-18l-0.7,2.3
							c0.9,0.9,42.4,20.8,62.6,21.1c13.7,0.2,23.9-6.5,46.7-5.1c26.7,1.7,25.9,15.8,25.6,17.6c0,0.1-0.1,0.2-0.1,0.3
							c-1,2.1-12.4,25.4-25.3,13.8c-11.3-10.2-24.4-7.1-28.9-5.9c-2.4,0.6-5.3,3.1-5.3,3.1l0,0c-16.7-1.9-27.9,3-38.2,4.6
							c-0.8,0.1-40.3,6.4-40,7.1l0.5,2.2c0.3,0.7,34.4-5.4,40.4-6.7c3.7-0.8,14.5-4.7,37.2-3.3c26.7,1.7,25,16.6,24.6,18.5
							c0,0.1-0.1,0.2-0.1,0.3c-1,2.1-12.4,25.4-25.3,13.8c-11.3-10.2-25.2-9.9-29.5-8.2c-2.5,1-39.4,7-39.3,7.8l1,1.9
							c0.1,0.9,36.3-5.9,37.2-6.2c14.3-5.4,23.1,7.2,34.6,10.4c11.9,3.4,17.9-16.8,31.7-13.2s8.7,11.3,3.9,13.6
							c-4.4,2.2-17.8,23.3-21.3,29.7c-1.2,2.3-9,22.8-8.1,23l1.9,0.4c0.6,0.1,9.4-21.9,9.6-22.4c2.4-4.9,13-25,20.1-27
							c7.5-2.1,17.9-7,30.5-1.8c10.7,4.4-4.2,50.5-6.7,57.2l1.8,0.2c0,0,8.2-22.1,8.4-22.6c1-2.4,3.7-9.4,5.8-24.2
							c2.5-17.5-16.7-16.3-18.8-16.1c-0.9,0.1-3.4,0.6-6.2,0.7c2.4-4.9,13-25.1,20.1-27.1c7.5-2.1,17.9-7,30.5-1.8
							c10.7,4.4,4.7,34.3-0.7,39.3c-4.8,4.5-26.9,10.9-25.9,10.9l-0.5,2.8c0,0,25.5-8.3,28.9-12.3c1.5-1.7,5.4-15.2,7.5-30.1
							c2.5-17.5-16.7-16.3-18.8-16.1s-13.7,2.8-14.6-3c-0.4-2.3-1.7-4.4-3.6-6.3l0,0l-2.7-2.3c-2.7-1.9-5.7-3.2-8.5-3.9
							c-4.4-1.2-4-3.4-4.6-7.2l-1.3-4.3c-0.1-0.1-0.2-0.3-0.3-0.4c-6.9-6.9-16.8-9.9-27.2-10.9l-2.5-0.2
							c-12.1-0.8-24.6,0.9-33.6,2.3l0,0L117.6,126.3z M176.6,196.2h1C177.3,196.3,177,196.2,176.6,196.2z M193.1,151.8
							c13.8,3.6,8.7,11.3,3.9,13.6c-4.4,2.2-18.5,24.2-22.1,30.6c-2.1-0.4-3.9-1.4-4.2-3.5c-1-6.2-8.8-10.9-14.8-12.4
							c-5.9-1.5-3.2-5.1-5.8-11.4c-0.1-0.2-0.2-0.3-0.3-0.5c-6.5-6.6-14.8-9.9-23.3-11.3l0,0c14.3-5.4,23.4,4.9,34.9,8.1
							C173.3,168.4,179.2,148.2,193.1,151.8z"/>
					</g>
				</g>
				<g id="XMLID_490_">
					<path id="XMLID_491_" class="st3" d="M202.1,152.5c0,0,0-1.1,1.4-1.7c4.6-2.2,15.3-7.8,18-12c3.5-5.4,48.1-10.3,48.1-10.3
						l-1.5-2c0,0-28.9,2.6-35.1,3.4c-5.4,0.6-13.2,4-15.5,8.2c-1.8,3.1-10.7,8.7-15.1,11.2c-1.4,0.8-3,0.8-3,0.8l0.1,0.1
						L202.1,152.5L202.1,152.5z"/>
				</g>
				<g id="XMLID_488_">
					<path id="XMLID_489_" class="st3" d="M186.2,139.2c0,0,0.2-1.2,1-1.6c5.2-2.3,25.5-11.7,27.6-14.4c2.3-3.1,1.1-9.1,1.4-17.4
						c0.2-7.8,26.3-19.2,26.3-19.2l-1.6-2.4c0,0-20.5,9.3-25.2,14.4c-5.8,6.2-1.8,20.1-3.9,22.8c-2.4,3.1-19,10.8-24.6,13.3
						c-1.2,0.5-2.2,0-2.2,0l0,0L186.2,139.2L186.2,139.2z"/>
				</g>
				<g id="XMLID_486_">
					<path id="XMLID_487_" class="st3" d="M157.6,123.6c0,0,6.5-11.6,2.6-30.5s47.8-37.8,48.9-37.6l-1.8-1.2c0,0-25.6,8.5-35.9,17
						c-7.3,6-13.4,14.1-13.4,14.1s-8.1,3.1-15.6,0.7c-4.8-1.6-10.3-10.3-16.7-16.3C115.4,60.2,94,53.1,94,53.1s0,0.7-2.8,1.4
						c21,8.8,35.9,21.1,43.3,29.9c7.2,8.6,22.1,4.6,22.1,4.6s0.9,12.2,1.9,18.2c1.1,6-3.9,16.2-3.9,16.2h0.1l2.5,0.2L157.6,123.6z"
						/>
				</g>
				<g id="XMLID_484_">
					<path id="XMLID_485_" class="st3" d="M122.2,104.8c0.6,3.4-4.6,21.5-4.6,21.5l0,0l3.8-0.6l0,0c0.2,0,0.4-0.2,0.5-0.4
						c0.7-2.6,4.8-18.5,3.8-21.4c-1.1-3.1-6.8-16.4-13.5-20.3c-4.3-2.4-36-16.8-36-16.8l-1.9,1.6c0,0,30,15.5,32.5,17.1
						C112.8,89.2,121.3,99.8,122.2,104.8z"/>
				</g>
				<g id="XMLID_482_">
					<path id="XMLID_483_" class="st3" d="M125.8,69.8c-10.3-9.6-31.7-16.7-31.7-16.7l-2.8,1.4"/>
				</g>
			</g>
		</g>
	</g>
</g>
</svg>
