<?xml version="1.0" encoding="utf-8"?>
<!-- Generator: Adobe Illustrator 19.0.0, SVG Export Plug-In . SVG Version: 6.00 Build 0)  -->
<svg version="1.0" id="Calque_5" xmlns="http://www.w3.org/2000/svg" xmlns:xlink="http://www.w3.org/1999/xlink" x="0px" y="0px" width="300px" height="260px"
	 viewBox="0 0 300 260" style="enable-background:new 0 0 300 260;" xml:space="preserve">
<style type="text/css">
	.st0{fill:#195632;}
	.st1{fill:#388E52;}
	.st2{fill:#3A9E47;}
	.st3{opacity:0.1;fill:#D1E282;}
	.st4{opacity:0.1;fill:#383838;}
	.st5{opacity:0.15;fill:#16231B;}
	.st6{fill:#5DB446;}
	.st7{opacity:0.2;fill:#FFFFFF;}
</style>
<g id="secondLayout">
	<g id="Calque_4">
		<path id="XMLID_27_" class="st0" d="M216.1,126c0,0,3.3,10-0.2,15.4c0,0,11.3-3.5,12.3-2.4c0,0,4,10.1-6.5,17.3
			c0,0,9.1,7,9.4,10.6c0,0-8.9,2.5-12.8,1.5c0,0,4.8,14.2,1.2,19.1c0,0-15-12.7-18.4-12c0,0-5.2,9.4-14.5,11.9
			c0,0,5.6-13.1,1.5-14.3c0,0-8.6,3.7-18.6,2c0,0,9.4-13.9,7.5-15.8c0,0-16.1-5.7-16.8-16.5c0,0,14.6,5.4,18.1,3.4
			c0,0-7.8-9.5-2.2-16.3c0,0,12.6,0.1,13.7,6.9c0,0,1.9-11.2-2.6-18.2c0,0,17.5,4.5,16.1,15.6C203.3,134.1,211.4,126.2,216.1,126z"
			/>
	</g>
	<g id="Calque_4_-_copie">
		<path id="XMLID_19_" class="st1" d="M212.9,130.6c0,0,2.7,8.4-0.3,13.1c0,0,9.9-2.6,10.7-1.7c0,0,2.4,7.9-6.7,14
			c0,0,8.5,5.7,8.8,8.8c0,0-7.6,1.9-11,1.1c0,0,4.8,11.9,1.7,16.1c0,0-13.3-10.9-16.2-10.3c0,0-1.8,9-9.8,11.1
			c0,0,2.8-12.3-0.7-13.3c0,0-6.1,3.6-14.8,2.2c0,0,7.8-12.1,6.2-13.7c0,0-14.2-2.2-14.7-11.4c0,0,12.8,2.9,15.7,1.1
			c0,0-7.8-8.6-3-14.5c0,0,10.8,1.4,11.8,7.2c0,0,5.5-9.5,1.6-15.6c0,0,10.8,3.5,9.6,13.1C201.8,137.9,208.8,130.8,212.9,130.6z"/>
	</g>
	<g id="Calque_4_-_copie_2">
		<path id="XMLID_22_" class="st2" d="M212,131.9c0,0,3.7,7.1,0.7,11.7c0,0,8.9-1.8,9.8-0.9c0,0,3.3,7.1-5.7,13.3c0,0,6.5,4.9,6.8,8
			c0,0-5.6,2.7-9,1.8c0,0,4,10.5,0.9,14.7c0,0-12.5-9.5-15.4-8.9c0,0-0.9,7.4-8.9,9.5c0,0,1.8-10.7-1.7-11.6c0,0-4.4,2.8-13,1.4
			c0,0,6.1-11.3,4.5-12.9c0,0-11.9-2.1-13.2-10.3c0,0,11.3,1.8,14.2,0c0,0-7.2-7.5-2.3-13.3c0,0,10.1,0.3,11.1,6.1
			c0,0,6.7-8.1,2.8-14.2c0,0,8.3,3.5,8.4,11.7C201.8,137.9,207.9,132.1,212,131.9z"/>
	</g>
	<g id="Calque_9">
		<path id="XMLID_17_" class="st3" d="M184,158.6c-0.4-0.1-0.7,0.3-0.8,0.6c-0.2,0.9,0.4,1.8,1.1,2.5c1,1.1,2.4,2.3,3.9,2
			c-0.2,0.6,0.3,1.1,0.9,1.3c0.6,0.2,1.2,0.1,1.8,0c0.2,0,0.3,0,0.5,0.1c0.2,0.1,0.3,0.3,0.3,0.5c0.2,0.5,0.5,1.1,1,1.4
			c0.5,0.3,1.3,0.3,1.7-0.2c0.6,0.4,1,1,1.3,1.6c2.1-0.5,4.3-0.9,6.5-1c0-0.3,0.1-0.5,0.1-0.8c1,0,1.9,0.1,2.9,0.2
			c0-0.4,0.5-0.7,1-0.7c0.5,0.1,0.8,0.3,1.3,0.6c1.1,0.6,2.6,0.6,3.7,0c0.5-0.3,1-0.7,1.1-1.2c0.2-0.9-0.7-1.9-0.6-2.8
			c0.6,0,1.2-0.1,1.5-0.5c0.2-0.3,0.2-0.6,0.1-1c-0.1-1.2-0.3-2.3-0.5-3.5c-0.1-0.3-0.1-0.7-0.2-1c0-0.3-0.1-0.6-0.2-0.8
			c-0.3-0.5-0.9-0.9-1-1.4c-0.1-0.7,0.5-1.3,0.9-2c0.7-1.2,0.2-2.7,0.9-3.9c0.4-0.6,1.1-1.3,0.7-2c-0.5-0.8-2-0.2-2.8-0.8
			c-0.5-0.4-0.6-1.2-1.2-1.5c-0.2-0.1-0.6-0.2-0.7-0.4c-0.2-0.2-0.2-0.4-0.2-0.7c-0.1-1.2-0.2-2.3-0.3-3.5c0-0.3-0.1-0.5-0.2-0.7
			c-0.2-0.2-0.4-0.2-0.6-0.3c-1.2-0.2-2.4-0.4-3.5,0.1c-0.8,0.4-1.4,1.1-2.1,1.5c-0.8,0.4-2,0.4-2.3-0.4c-0.1-0.2-0.1-0.5-0.3-0.8
			c-0.3-0.5-1-0.6-1.3-1.1c-0.4-0.7,0.4-1.7-0.3-2.2c-0.1-0.1-0.3-0.1-0.5-0.1c-0.6-0.1-1.4,0-1.3,0.6c0,0.2,0.1,0.3,0.2,0.5
			c0.3,0.7,0,1.4-0.5,2c-0.5,0.5-1.2,0.9-1.7,1.4c-0.6,0.5-1.1,1.2-1.7,1.8c-0.6,0.6-1.5,1-2.3,0.7c-1.4-0.4-1.9-2.5-3.4-2.5
			c-0.8,0-1.5,0.8-1.3,1.6c0.1,0.2,0.2,0.5,0.1,0.7c-0.1,0.4-0.8,0.4-0.8,0.8c-0.1,0.3,0.2,0.5,0.4,0.7c0.5,0.8-0.5,1.8-0.4,2.8
			c0,0.3,0.2,0.6,0,0.9c-0.1,0.2-0.4,0.2-0.6,0.4c-0.5,0.4-0.3,1.2-0.7,1.6c-0.6,0.6-1.9,0.1-2.3,0.8c-0.2,0.3,0,0.8-0.3,1
			c-0.3,0.3-0.7,0.1-1.1,0.1s-0.9,0.1-0.9,0.5c0,0.2,0.2,0.3,0.3,0.4c1.1,0.8,2.4,1.5,3.8,1.9c-0.3,1.1,0,2.3,0.7,3.1
			c0.2,0.2,0.4,0.4,0.5,0.6c0.1,0.2,0,0.5-0.2,0.6"/>
		<path id="XMLID_16_" class="st4" d="M187.2,154.7c-0.2-0.1-0.6,0-0.7,0.3c-0.4,0.6-0.1,1.3,0.2,2c0.4,1,1.1,2.2,2.3,2.3
			c-0.3,0.3,0,0.9,0.3,1.1c0.4,0.3,0.8,0.3,1.3,0.4c0.1,0,0.2,0.1,0.3,0.2c0.1,0.1,0.1,0.3,0.1,0.4c0,0.4,0.1,0.9,0.4,1.2
			c0.3,0.3,0.8,0.5,1.2,0.3c0.3,0.4,0.5,0.9,0.5,1.5c1.6,0.1,3.2,0.4,4.8,0.8c0.1-0.2,0.2-0.3,0.2-0.5c0.7,0.2,1.3,0.5,2,0.8
			c0.1-0.3,0.5-0.4,0.9-0.2c0.3,0.2,0.5,0.4,0.7,0.7c0.7,0.7,1.7,1,2.6,0.9c0.4-0.1,0.8-0.2,1.1-0.6c0.4-0.6,0-1.5,0.3-2.1
			c0.4,0.1,0.9,0.2,1.2,0c0.2-0.2,0.3-0.4,0.3-0.6c0.2-0.8,0.3-1.7,0.5-2.5c0-0.2,0.1-0.5,0.1-0.7c0-0.2,0.1-0.4,0-0.6
			c-0.1-0.4-0.4-0.8-0.4-1.2c0.1-0.5,0.7-0.8,1.1-1.2c0.7-0.7,0.8-1.9,1.5-2.5c0.4-0.4,1.1-0.7,1-1.2c-0.1-0.7-1.3-0.6-1.7-1.2
			c-0.3-0.4-0.1-1-0.5-1.3c-0.1-0.2-0.3-0.3-0.4-0.4c-0.1-0.2,0-0.4,0-0.5c0.2-0.8,0.4-1.7,0.6-2.5c0-0.2,0.1-0.4,0-0.6
			c-0.1-0.1-0.2-0.2-0.4-0.3c-0.8-0.4-1.6-0.9-2.5-0.8c-0.6,0.1-1.2,0.4-1.8,0.5s-1.5-0.2-1.5-0.8c0-0.2,0-0.4,0-0.6
			c-0.1-0.4-0.6-0.6-0.6-1.1c-0.1-0.6,0.7-1.1,0.3-1.6c-0.1-0.1-0.2-0.2-0.3-0.2c-0.4-0.2-1-0.3-1.1,0.1c0,0.1,0,0.3,0,0.4
			c0.1,0.5-0.4,1-0.8,1.2s-1,0.3-1.5,0.6c-0.6,0.2-1,0.6-1.6,0.9s-1.2,0.3-1.8,0c-0.9-0.6-0.8-2.2-1.8-2.6c-0.6-0.2-1.3,0.2-1.3,0.8
			c0,0.2,0,0.4-0.1,0.5c-0.2,0.2-0.6,0.1-0.8,0.4c-0.1,0.2,0,0.4,0.1,0.6c0.2,0.7-0.8,1.2-0.9,1.9c0,0.2,0,0.5-0.2,0.6
			c-0.1,0.1-0.4,0.1-0.5,0.1c-0.4,0.1-0.5,0.8-0.9,1c-0.5,0.3-1.3-0.4-1.8,0c-0.2,0.2-0.2,0.5-0.5,0.6c-0.3,0.1-0.5-0.1-0.8-0.2
			c-0.3-0.1-0.7-0.1-0.7,0.1c0,0.1,0.1,0.2,0.1,0.3c0.6,0.8,1.3,1.6,2.2,2.2c-0.5,0.7-0.6,1.6-0.2,2.4c0.1,0.2,0.2,0.3,0.2,0.5
			s-0.1,0.4-0.3,0.4"/>
		<path id="XMLID_14_" class="st5" d="M191.7,142.2c1.2-0.9,2.5-1.9,3.7-2.8c0.5-0.4,1-0.9,0.9-1.4c0-0.3-0.2-0.5-0.2-0.7
			c-0.1-0.6,0.3-1.3,0.9-1.3c0.6-0.1,1.2,0.5,1.2,1.1c0,0.3-0.2,0.6-0.1,0.9c0.2,0.7,1.2,0.7,1.6,1.3c0.3,0.4,0.3,1.1,0.7,1.2
			c0.2,0.1,0.4,0,0.6,0c1.9-0.5,3.8-1.2,5.1-2.6c0.3-0.3,0.7-0.8,1.1-0.7c0.4,0.1,0.6,0.6,0.9,0.8c0.4,0.3,0.9,0.1,1.4,0
			c0.5-0.1,1.1,0.1,1.2,0.5c0.1,0.8-1.3,0.9-1.5,1.7c-0.2,0.7,0.6,1.3,0.7,2c0,0.6-0.4,1.1-0.4,1.7c0,0.3,0.2,0.6,0.4,0.9
			c0.7,0.9,1.6,1.9,2.7,1.6c0.7-0.2,1.3-1,2-0.9c0.5,0,1,0.5,1.5,0.5c0.7,0,1.1-0.8,1.7-1.3c0.7-0.5,2-0.1,2,0.8
			c0,0.7-0.8,1.1-1.4,1.5c-0.6,0.4-1.3,1-0.9,1.7c0.2,0.4,0.6,0.5,1,0.8c0.4,0.2,0.7,0.7,0.5,1c-0.2,0.3-0.5,0.3-0.9,0.3
			c-0.6,0-1.2,0-1.8,0.2s-1,0.9-0.7,1.5c0.1,0.2,0.3,0.4,0.3,0.6c0.2,0.9-1.6,1-1.6,1.9c0,0.4,0.4,0.7,0.4,1.1
			c0,0.3-0.4,0.6-0.5,0.9c-0.2,0.7,0.6,1.1,1.3,1.3s1.5,0.8,1.2,1.4c-0.1,0.3-0.4,0.4-0.5,0.7c-0.2,0.6,0.6,0.9,1.1,1.3
			c0.5,0.4,0.5,1.3,0,1.7c-0.5,0.4-1.4,0.1-1.6-0.5c-0.2,0.7-0.8,1.2-1.4,1.4c-0.4,0.1-0.9,0.1-1.3,0.2s-0.8,0.5-0.7,0.9
			c0.1,0.6,1,1,0.7,1.5c-0.2,0.3-0.7,0.3-0.8,0.6c0,0.2,0.1,0.3,0.2,0.4c0.5,0.6,0.9,1.1,1.4,1.7c0.1,0.1,0.2,0.3,0.2,0.5
			c0,0.4-0.6,0.4-1,0.5c-0.5,0.2-0.9,0.8-0.7,1.3c-0.8,0.5-1.9-0.3-2.3-1.1c-0.5-0.8-0.9-1.9-1.9-2.1c-1.3-0.3-2.4,1.1-3.7,1
			c-1.2-0.1-2.5-1.4-3.5-0.7c-0.4,0.3-0.6,0.8-1,1c-0.6,0.3-1.3-0.1-1.8,0.2c-0.4,0.3-0.5,0.8-0.4,1.3s0.3,0.9,0.2,1.4
			c-0.1,0.5-0.6,0.9-1,0.7c-0.3-0.2-0.4-0.6-0.7-0.9c-0.4-0.5-1.1-0.5-1.5-0.1c-0.4,0.4-0.3,1.2,0.1,1.5c0.2,0.1,0.4,0.2,0.5,0.3
			c0.6,0.5-0.1,1.7-0.9,1.6s-1.3-1-1.4-1.8s0.2-1.6,0.4-2.4c0.1-0.8,0.1-1.7-0.5-2.3c-0.7-0.7-2-0.7-2.7-1.5c-0.2-0.3-0.4-0.7-0.7-1
			c-0.6-0.4-1.4,0.2-2,0.7c-0.5,0.5-1.4,1.1-2,0.5c-0.4-0.4-0.3-1-0.7-1.4c-0.4-0.4-1.1-0.1-1.5,0.3c-0.4,0.4-0.6,1-1.1,1.4
			c-0.6,0.4-1.4,0.5-2,0c-0.6-0.4-0.8-1.2-0.6-1.9c0.3-1,1.6-1.6,1.9-2.7c0.1-0.6-0.1-1.4,0.2-1.9c0.3-0.5,1.1-0.6,1.6-0.9
			c0.6-0.4,1-1.2,0.9-1.9c-0.1-0.7-0.7-1.4-1.4-1.5c-0.3-0.1-0.7-0.1-0.9-0.3c-0.3-0.3-0.1-0.8,0-1.2c0.2-1.3-1.1-2.5-2.3-2.3
			c-0.6,0.1-1.1,0.5-1.7,0.6c-0.6,0.2-1.4,0-1.6-0.5c-0.2-0.5,0.1-1,0.2-1.6c0-0.5-0.1-1-0.1-1.4c0-0.5,0.4-1,0.9-1
			c0.6,0.1,0.7,0.9,1.1,1.3c0.5,0.5,1.4,0.2,1.9-0.4s0.9-1.2,1.5-1.5c0.5-0.3,1.1-0.3,1.6-0.6c0.7-0.4,0.9-1.4,0.7-2.1
			s-0.9-1.3-1.7-1.7c-0.5-0.2-1.1-0.4-1.2-0.9c0-0.2,0.1-0.5,0.1-0.7c0.2-0.6,0.5-1.2,0.9-1.6c0.4-0.4,1.1-0.7,1.7-0.5
			c1.2,0.4,1.2,2.4,2.4,2.9c1,0.4,2-0.6,3-0.9c0.5-0.1,1.1-0.1,1.7-0.3c0.5-0.2,1-0.8,0.7-1.3"/>
	</g>
</g>
<g id="firstLayout">
	<path id="XMLID_7_" class="st0" d="M201.1,164.1l8.4,5.3l-1.9-7.8l6-1.1l-5.6-5.4c0,0,5.7-3.6,5.6-6.4c0,0-5.3,0.4-6.7,0.5
		c0,0,3.3-0.9,0.2-11c0,0-3.6,5.5-7.7,6.6c0,0-3-2.5-2.8-6.1c0,0-5.8,5.1-3.7,7.5c0,0-7.8-0.3-9.2,1.5c0,0,5.4,2,6,3.5
		c0,0-6.5,0.9-7.5,3.6c0,0,7.7,1.5,8,3c0,0-4.7,2.7-4.9,5.6c0,0,6.1,2.2,9.8-0.1c0,0,1.5,3.1,2.1,5.5
		C197.1,169,202.6,167.6,201.1,164.1z"/>
	<path id="XMLID_6_" class="st1" d="M200.4,162.5l8.1,5.6l-2.2-7.4l6-0.7l-6-4.8c0,0,6-4.1,6-6c0,0-6.7,1.2-7.6,1
		c0,0,4.5-1.4,1.6-10.6c0,0-3.4,6-7.5,6.4c0,0-2.9-2.5-2.8-5.8c0,0-3.9,5-2,7.2c0,0-7.1-0.9-8.4,0.7c0,0,5.8,2.3,5.2,3.7
		c0,0-6.5,0.5-7.4,3c0,0,8.4,1.3,8.3,2.8c0,0-5.3,2.4-5.4,5.1c0,0,5.5,1.4,8.9-0.7c0,0,2.3,3.5,2.3,5.7
		C197.5,167.8,201.7,165.7,200.4,162.5z"/>
	<path id="XMLID_5_" class="st6" d="M199.3,161.1l8.3,5.8l-2.1-6.8l4.9-0.6l-4.8-4.4c0,0,5.7-3.5,5.7-5.3c0,0-6.4,0.9-7.2,0.7
		c0,0,4.6-1.1,2-9.5c0,0-3.6,5.3-7.3,5.7c0,0-3.1-2-3-5c0,0-2.2,4.3-0.4,6.3c0,0-6.7-1.3-7.9,0.1c0,0,4.5,2.6,4,3.9
		c0,0-5.9,0.4-6.8,2.8c0,0,8.4,1.4,8.4,2.7c0,0-5.6,2-5.7,4.5c0,0,5.1,1.3,8.1-0.6c0,0,2.5,3.3,2.5,5.3
		C198,166.6,200.6,164,199.3,161.1z"/>
	<path id="XMLID_10_" class="st7" d="M196.4,157.2l1.6,4.7l1.2-3.3l2.1,1.2l-0.6-3.2c0,0,3.3,0.3,3.8-0.5c0,0-2.8-1.5-3.1-1.8
		c0,0,2.1,0.9,3.6-3.2c0,0-3,1.1-4.6,0.1c0,0-0.7-1.7,0.3-2.9c0,0-2.1,1.1-2,2.4c0,0-2.3-2.5-3.2-2.3c0,0,1.1,2.4,0.5,2.7
		c0,0-2.5-1.5-3.5-0.9c0,0,3,3,2.6,3.5c0,0-2.8-0.8-3.6,0.2c0,0,1.6,2,3.4,2.1c0,0,0.1,2.1-0.5,2.9
		C194.3,159,196.1,158.7,196.4,157.2z"/>
</g>
</svg>
