<?xml version="1.0" encoding="utf-8"?>
<!-- Generator: Adobe Illustrator 19.0.0, SVG Export Plug-In . SVG Version: 6.00 Build 0)  -->
<svg version="1.0" id="圖層_1" xmlns="http://www.w3.org/2000/svg" xmlns:xlink="http://www.w3.org/1999/xlink" x="0px" y="0px" width="300px" height="260px"
	 viewBox="0 0 300 260" style="enable-background:new 0 0 300 260;" xml:space="preserve">
<style type="text/css">
	.st0{display:none;opacity:0.7;}
	.st1{display:inline;opacity:0.2;}
	.st2{fill:#3A9E47;stroke:#414042;stroke-width:3;stroke-miterlimit:10;}
	.st3{fill:#5FB446;}
	.st4{fill:#80C460;}
	.st5{opacity:0.23;fill:#FFFFFF;}
	.st6{opacity:0.75;}
	.st7{fill:#019547;stroke:#046938;stroke-miterlimit:10;}
	.st8{opacity:0.16;fill:#010101;enable-background:new    ;}
	.st9{fill:#046938;}
</style>
<g id="tree">
	<g id="XMLID_1_" class="st0">
		<path id="XMLID_262_" class="st1" d="M39,83.8c-3.2-1.8-4-4.3-3.1-6.4c0.8-2.1,3.2-3.9,6.2-4.4C37,69,44,66,46,65
			c2-1.3,4-2.4,6-3.4c2-1,4.1-1.8,6.1-2.3C62,59,67,59,71,61c-1-2-2-4-1-6c6-8,4-14,5-22c0.5-3,1.4-5.7,2.7-8s3-4.4,4.9-6.2
			c13.6-10.7,31.9-7.6,48.6-5.7c3.3,0.4,6.6,0.7,9.8,0.9c2-3,5.3-5.5,8.6-6.3S156.5,8,159,12c0-2,0-4,1-5c3-1,4,1,6,3c-1-2-1-4-1-6
			c3,2,9,2,9-3c2,2,4,4,6,5c0-1,0-3,0-4c4.3,3.7,10,7.1,15.4,10.8c2.7,1.8,5.3,3.7,7.7,5.8c5.9,4.1,10.2,10.8,11.1,17.6
			c0.3,2.3,0.2,4.6-0.3,6.8c5-2,8-6,12-9c-2,4,3,5,3,8c1,0,2-1,3-1c5,4,8,7,15,8c2,1,3,2,4,4c1.1,2.9,2.3,5.8,3.5,8.6
			c2.9,5.8,5.3,12.1,7.1,18.6c1.8,6.5,3.1,13.2,3.7,19.9c0.9,4.6,0.9,9.3,0.3,13.9c-0.3,2.3-0.6,4.7-1,7c-1.3,5.5-2.4,11-2.2,16.4
			c-0.7,3.8,1.2,7.7,2.7,11.2C265,152,269,154,265,158c5,3,7,9,6,14s-2,9-2.1,13c-0.1,2,0.1,4,0.6,6.1c0.5,1.9,1.5,4.9,2.5,6.9
			c-8,1-3,7-6,12c-7,10-18,13-25,18c-13,7-27,9-41,20c-3,1-6,3-9,2c0,1,1,2,1,3c-2-2-4-3-7.1-3.1c-2.5-0.8-5.2-1.4-7.9-1.9
			s-5.4-1.1-8-1.8c-2.6-0.7-5.1-1.5-7.3-2.6C156,238,151,232,143,229c0,10-12,5-17,4c5,2,4,8,1,11c-6,6-14,8-23,7c-6-1-14-6-12-13
			c-11,1-23-1-30.2-11.2c-0.4-1.9-2.9-3.1-4.7-4.4c-1.9-1.3-3.1-2.8-1.1-5.3c-1,0-2,0-3,0c1.3-4.3,0.9-8.4-0.5-12.4
			c-1.4-4-3.7-7.8-6-11.5C44,188,35,179,45,177c-3-2-6.3-5-8.2-8.4C34,162,33,156,29,149c-3-7-6-17,1-21c-4-4-2-9-4-14
			c12,0,11-17,8.4-25.4C34.8,87.6,39,83.8,39,83.8z"/>
	</g>
	<path id="XMLID_180_" class="st2" d="M49.9,88.9c0,0-5-4.1-3-6c2.1-1.8,6.2-2.1,6.2-2.1s-1.8-3.9,0-3.9s4.1,0,4.1,0
		s-0.9-3.9,1.6-3.4c2.5,0.5,5.5,1.1,5.5,1.1s2.1-1.5,4.1-1.2s6.7-2.5,8.7-1.8s6.2,1.6,6.2,1.6s-2.1-3.7,0-4.1c0-1.8-2.1-6,2.8-7.3
		c4.8-1.4,1.8-9.2,1.8-9.2s-3.2-4.1-3-8.7s3.9-5,3.9-5s-1.6-5.7,0-8c1.6-2.3,4.8-1.1,4.8-1.1s-0.9-2.5,1.1-3.2s4.8,0.9,4.8,0.9
		s-0.5-5.5,4.1-5.5c4.6,0,4.6,2.5,4.6,2.5s0.7-1.4,4.8-2.5c4.1-1.1,5.5,1.4,5.5,1.4s1.4-2.4,3.7-1.7s3.7,3.7,3.7,3.7
		s-1.6-1.6,2.5-0.9c4.1,0.7,3.9,3.2,3.9,3.2s3.9-1.8,4.6-3.7c0.7-1.8,1.6-4.1,3.7-4.1s4.1,1.6,4.1,1.6s2.8-1.1,4.4-0.2
		c1.6,0.9,3,3.2,3,3.2s-1.1-3,1.1-4.6s6.2,1.6,6.2,1.6s-1.6-4.6,0-4.8c1.6-0.2,3.9,0,3.9,0s3.4-1.4,4.1-0.1c0.7,1.2-0.5-3.8,2.1-3.6
		c2.5,0.2,5.3,3.4,5.3,3.4s-0.1-4.5,2.3-3.4s3,3.7,3,3.7s1.8-1.3,3.6,0.7c1.7,1.9,1.4,3.2,1.4,3.2s3.4-2.2,5,0.1
		c1.6,2.3,0.9,4.5,0.9,4.5s1.7,0.1,3.1,1.4c1.4,1.3,0.8,2.2,0.8,2.2s1-2.2,3-1.3c1.9,0.9,2.2,2.1,2.2,2.1s3,0.1,3.6,1.3
		c0.6,1.1,0.5,3.9,0.5,3.9s2.6,0.7,2.3,3c-0.3,2.3-2.3,3.7-2.3,3.7s1.8,3.3,1,5.5c-0.8,2.2,6.4-4,6.4-4s1.6-2.8,3.1-2.1
		c1.5,0.7,0,4.5,0,4.5s1.8,0,1.5,1.5c-0.3,1.5,0.7-3.4,2.8-2.1c2.1,1.4,4.1,2.8,3.2,4.4c-0.9,1.6,2.2,2.8,2.2,2.8s1.8-3.9,4.5-0.9
		c2.6,3.1,0.5,4.4,0.5,4.4s3.9,1.7,4.2,3.7c0.3,1.9-1.4,3.1-1.4,3.1s2.6,2.6,2.8,4.4c2.6,1.3,4.4,3.1,4.2,4.6
		c-0.1,1.5-1.3,4.8-1.3,4.8l0.1,5.7c0,0,6.7,2.3,7.7,4.2s6.1,3.4,5.3,5.2c-0.8,1.7-0.6,3.6-0.6,3.6s1.7,0,2.1,1.8
		c0.3,1.8-1.6,3.1-1.6,3.1s1.5,0.2,1.6,2.1s-2.4,4.6-2.4,4.6s1.4,3.2,1.1,4.2c-0.2,1-2.8,2.2-2.8,2.2l-0.2,4.4c0,0,2.5,0.9,2.1,2.6
		c-0.5,1.7-1.8,3.8-1.8,3.8s1.6,2.1,1.1,3.4s1.9,2.3,1.5,3.6c-0.5,1.3-2.2,4.1-4,4.2s-1.7,3.2-1.7,3.2s3.9,1.9,3.4,3.4
		s3.2,2.4,3.2,4.1c0,1.7,0.2,8.1-1.1,7.6s1.4,4.2,1.7,4.5c0.3,0.2,5.6,5.4,3,7.8c-2.5,2.4-1.6,5.8-1.6,5.8s-2.4,2.2-3.8,1.1
		s-1.3,5.4-1.3,5.4s4.5-0.3,4.5,1.5s-1.9,4.9-1.9,4.9s4.2,2.9,3.1,3.9s-4.2,1.1-4.4,1.8c-0.1,0.7-1.5,2.3-1.5,2.3s3.3,3.1,1.7,4.2
		c-1.6,1.1-4.1,7.1-4.1,7.1s-2.5,2.8-4.7,2.5c-2.2-0.2-1.1,3.2-3.7,3c-2.5-0.2-6-0.3-5.7,1.3c0.2,1.6,2.9,4.8,0.3,4.8
		c-2.5,0-6.1,2.6-6.1,2.6s-1.4,3.9-4.7,2.6s-6.5-4.5-6.5-4.5s-4.7,0.7-4.7,3.1s-3,3.8-7.2,4.5c-4.2,0.7-2.6,2.9-2.6,2.9
		s1.7,5.5-0.1,5.6c-1.8,0.1-4,1.8-4.7,0.5c-0.7-1.4-3-1.4-3,0c0,1.4-0.8,2.8-1.7,2.9c-0.9,0.1,0.5,4.1-2.4,3.3
		c-2.9-0.8-3.8-2.1-3.8-2.1s1.6,2.1-1.4,1.5c-3-0.6-2.5,1.6-5.6,1.1c-3.1-0.5-1.6-3.9-3.6-4c-1.9-0.1-2.1-3.1-3.2-2.6
		c-1.1,0.5-1.6,3.3-3.6,2.5s-3.6-3.2-3.6-3.2s-4,1.4-4.4-0.3c-0.3-1.7-0.5-4.5-0.8-4.5c-0.3,0-5.4-1.3-5.4-1.3s-1.5-2.4-1-4
		c0.5-1.6-0.8-4.2-2.1-4.1c-1.3,0.1-2.6,1.5-3.7,0.5s-0.8-3.8-0.8-3.8s-3.1-1.9-3.9-1.3c-0.8,0.7,0.8,4.2-2.1,5.8
		c-2.9,1.6-7.2-3.7-7.2-3.7s-3.4,2.2-4.1,1.3c-0.7-0.9,4.5,5.4,1.8,6.4c-2.6,1,2.4,5.6-1.7,5c-4.1-0.6-3.9,2.3-3.9,2.3
		s-2.9,1.8-3.8,0.2c-0.9-1.6-1.3,2.9-3.1,3.7c-1.8,0.8-7.6-0.1-8.4-2.5c-2.8,0-6.3,0.5-6.8-2.2c-0.5-2.6,0.1-6.4,0.1-6.4
		s-4.5,1-4.2-0.2s1,2.9-1.5,3.2s-3.7-1.1-3.7-1.1s-0.1,1.8-2.2,1.9c-2.1,0.1-3-1.9-3-1.9s-0.9,2.5-2.5,2.5c-1.6,0-2.8-3.2-2.8-3.2
		s-8-0.7-8.5-2.8c-0.5-2.1-0.3-3.4-0.3-3.4s-7.3,1.4-7.8-1.8s-0.3-4.9-0.3-4.9s-4.5-0.3-4.4-2.4c0.1-2.1,1.7-4.2,1.7-4.2
		S62,204,62,202.6s3-3.4,3-3.4s0.3-2.4-1.6-2.4s-5.5-3.7-5.4-4c0.1-0.3-0.5-4.5-4.1-3.3c-3.7,1.1-3.6-4.4-3.6-4.4s-3.2-2.8-2.9-4.4
		c0.3-1.6,1.8-2.5,1.8-2.5s-3.7-1.4-2.9-2.8c0.8-1.4,3.9-3.4,3.9-3.4s-4.2-3.7-4.1-5.2s-2-0.8-2.4-1.6s-0.7-3.3-0.7-3.3
		s-2.6-1.8-1.5-3.1c1.1-1.3,3-2.9,3-2.9s-6.2-1.3-6.2-3.1c0-1.8,2.1-3.9,2.1-3.9s1.4-1.5,0.1-3.4c-1.3-1.9-1.4-4.9-1.4-4.9
		s-3-1.8-2.5-4.4c0.5-2.5,5-2.9,5-2.9s1.3-1.8,0.6-3.3s-2.9-3.8-2.3-5.3c0.6-1.5,1.1-2.6,1.1-2.6s-2.8-3-2.1-5s6-2.4,6-2.4
		s4.9-0.9,3.2-3.1c-1.7-2.2-1.7-4.1,0-5.5s-2.1-3.9-2.1-3.9s0.7-2.8-0.6-3.8c-1.3-1,1-3.2,1-3.2s-1.4-1.4-1-2.3S49.9,88.9,49.9,88.9
		z"/>
	<path id="XMLID_5_" class="st3" d="M63.8,94.3c0,0-4.3-3.5-2.6-5.1s5.3-1.8,5.3-1.8s-1.6-3.3,0-3.3s3.5,0,3.5,0s-0.8-3.3,1.4-2.9
		s4.7,1,4.7,1s1.8-1.2,3.5-1s5.7-2.1,7.5-1.5s5.3,1.4,5.3,1.4s-1.8-3.1,0-3.5c0-1.6-1.8-5.1,2.4-6.3s1.6-7.9,1.6-7.9
		s-2.7-3.5-2.6-7.5s3.3-4.3,3.3-4.3s-1.4-4.9,0-6.9c1.4-2,4.1-1,4.1-1s-0.8-2.2,1-2.7s4.1,0.8,4.1,0.8S106,37,109.9,37
		s3.9,2.2,3.9,2.2s0.6-1.2,4.1-2.2s4.7,1.2,4.7,1.2s1.2-2.1,3.1-1.4c2,0.6,3.1,3.2,3.1,3.2s-1.4-1.4,2.2-0.8s3.3,2.7,3.3,2.7
		s3.3-1.6,3.9-3.1s1.4-3.5,3.1-3.5s3.5,1.4,3.5,1.4s2.4-1,3.7-0.2s2.6,2.7,2.6,2.7s-1-2.6,1-3.9s5.3,1.4,5.3,1.4s-1.4-3.9,0-4.1
		s3.3,0,3.3,0s2.9-1.2,3.5-0.1c0.6,1.1-0.4-3.2,1.8-3.1s4.5,2.9,4.5,2.9s-0.1-3.8,2-3c2.1,0.9,2.6,3.1,2.6,3.1s1.6-1.1,3,0.6
		c1.5,1.7,1.2,2.7,1.2,2.7s2.9-1.9,4.3,0.1s0.8,3.8,0.8,3.8s1.5,0.1,2.7,1.2s0.7,1.9,0.7,1.9s0.9-1.9,2.6-1.1
		c1.7,0.8,1.9,1.8,1.9,1.8s2.6,0.1,3,1.1c0.5,1,0.4,3.3,0.4,3.3s2.3,0.6,2,2.6c-0.3,2-2,3.1-2,3.1s1.6,2.8,0.9,4.7
		c-0.7,1.9,5.5-3.4,5.5-3.4s1.4-2.4,2.7-1.8c1.3,0.6,0,3.8,0,3.8s1.6,0,1.3,1.3c-0.3,1.3,0.6-2.9,2.4-1.8s3.5,2.4,2.7,3.7
		s1.9,2.4,1.9,2.4s1.6-3.4,3.8-0.8s0.4,3.8,0.4,3.8s3.3,1.5,3.6,3.1c0.3,1.7-1.2,2.7-1.2,2.7s2.3,2.3,2.4,3.7
		c2.3,1.1,3.7,2.7,3.6,3.9c-0.1,1.3-1.1,4.1-1.1,4.1l0.1,4.9c0,0,5.7,2,6.6,3.6c0.9,1.7,5.2,2.9,4.5,4.4c-0.7,1.5-0.5,3-0.5,3
		s1.5,0,1.8,1.6c0.3,1.6-1.4,2.7-1.4,2.7s1.2,0.2,1.4,1.8c0.2,1.6-2.1,3.9-2.1,3.9s1.2,2.7,1,3.6s-2.4,1.9-2.4,1.9l-0.2,3.7
		c0,0,2.2,0.8,1.8,2.3s-1.6,3.2-1.6,3.2s1.4,1.8,1,2.9s1.7,2,1.3,3c-0.4,1.1-1.9,3.5-3.4,3.6c-1.6,0.1-1.5,2.7-1.5,2.7
		s3.3,1.7,2.9,2.9c-0.4,1.3,2.7,2.1,2.7,3.5c0,1.5,0.2,7-1,6.5c-1.2-0.5,1.2,3.6,1.4,3.8c0.3,0.2,4.8,4.6,2.6,6.7
		c-2.2,2.1-1.4,5-1.4,5s-2.1,1.9-3.2,1s-1.1,4.6-1.1,4.6s3.8-0.3,3.8,1.3s-1.7,4.2-1.7,4.2s3.6,2.5,2.7,3.3c-1,0.9-3.6,1-3.7,1.6
		c-0.1,0.6-1.3,2-1.3,2s2.8,2.7,1.5,3.6s-3.5,6.1-3.5,6.1s-2.2,2.4-4,2.2c-1.9-0.2-1,2.7-3.1,2.6s-5.1-0.3-4.9,1.1s2.5,4.1,0.3,4.1
		s-5.2,2.3-5.2,2.3s-1.2,3.3-4,2.3c-2.8-1.1-5.6-3.8-5.6-3.8s-4,0.6-4,2.7c0,2.1-2.6,3.2-6.2,3.8c-3.6,0.6-2.3,2.5-2.3,2.5
		s1.5,4.7-0.1,4.8c-1.6,0.1-3.4,1.6-4,0.4s-2.6-1.2-2.6,0s-0.7,2.4-1.5,2.5c-0.8,0.1,0.4,3.5-2.1,2.8c-2.5-0.7-3.2-1.8-3.2-1.8
		s1.4,1.8-1.2,1.3c-2.6-0.5-2.2,1.4-4.8,1c-2.7-0.4-1.4-3.3-3-3.4c-1.7-0.1-1.8-2.7-2.7-2.3s-1.4,2.8-3,2.2c-1.7-0.7-3-2.7-3-2.7
		s-3.4,1.2-3.7-0.3c-0.3-1.5-0.4-3.8-0.7-3.8c-0.3,0-4.6-1.1-4.6-1.1s-1.3-2.1-0.9-3.4s-0.7-3.6-1.8-3.5c-1.1,0.1-2.3,1.3-3.1,0.4
		c-0.9-0.9-0.7-3.2-0.7-3.2s-2.7-1.7-3.3-1.1c-0.7,0.6,0.7,3.6-1.8,5c-2.5,1.4-6.2-3.1-6.2-3.1s-2.9,1.9-3.5,1.1s3.8,4.6,1.6,5.5
		c-2.3,0.9,2.1,4.8-1.5,4.3c-3.5-0.5-3.3,2-3.3,2s-2.5,1.6-3.2,0.2s-1.1,2.5-2.7,3.1c-1.6,0.7-6.5-0.1-7.2-2.2
		c-2.4,0-5.4,0.4-5.8-1.9c-0.4-2.3,0.1-5.5,0.1-5.5s-3.8,0.9-3.6-0.2c0.2-1.1,0.9,2.5-1.3,2.7c-2.2,0.3-3.1-1-3.1-1
		s-0.1,1.6-1.9,1.7c-1.8,0.1-2.6-1.7-2.6-1.7s-0.8,2.2-2.2,2.2s-2.4-2.7-2.4-2.7s-6.9-0.6-7.3-2.4c-0.4-1.8-0.3-2.9-0.3-2.9
		s-6.3,1.2-6.7-1.6s-0.3-4.2-0.3-4.2s-3.8-0.3-3.7-2.1s1.5-3.6,1.5-3.6s-1.2-0.4-1.2-1.6s2.6-2.9,2.6-2.9s0.3-2.1-1.4-2.1
		s-4.7-3.1-4.6-3.4c0.1-0.3-0.4-3.8-3.5-2.8s-3-3.7-3-3.7s-2.7-2.4-2.5-3.7s1.6-2.2,1.6-2.2s-3.2-1.2-2.5-2.4s3.4-2.9,3.4-2.9
		s-3.6-3.1-3.5-4.4c0.1-1.3-1.7-0.7-2-1.4c-0.3-0.7-0.6-2.8-0.6-2.8s-2.3-1.6-1.3-2.7c1-1.1,2.6-2.5,2.6-2.5s-5.3-1.1-5.3-2.7
		s1.8-3.3,1.8-3.3s1.2-1.3,0.1-2.9c-1.1-1.7-1.2-4.2-1.2-4.2s-2.6-1.6-2.2-3.7s4.3-2.5,4.3-2.5s1.1-1.6,0.5-2.8
		c-0.6-1.3-2.5-3.2-2-4.5s1-2.3,1-2.3s-2.4-2.6-1.8-4.3s5.1-2.1,5.1-2.1s4.2-0.8,2.7-2.7s-1.5-3.5,0-4.7s-1.8-3.3-1.8-3.3
		s0.6-2.4-0.5-3.2s0.9-2.7,0.9-2.7s-1.2-1.2-0.9-2S63.8,94.3,63.8,94.3z"/>
	<path id="XMLID_114_" class="st4" d="M104.7,165.3c0,0-3.3,1.5-3.7,0.1c-0.4-1.5,0.5-3.6,0.5-3.6s-2.4,0-1.9-0.9
		c0.4-0.9,1-2.1,1-2.1s-2.2-0.5-1.3-1.6c0.8-1.1,1.9-2.5,1.9-2.5s-0.2-1.4,0.4-2.3c0.6-1,0.4-3.9,1.2-4.8c0.8-0.9,2.3-2.7,2.3-2.7
		s-2.3,0.1-2.1-1c-0.9-0.4-3.5-0.4-3-3.1s-4.1-3.1-4.1-3.1s-2.8,0.6-5.1-0.6c-2.2-1.2-1.6-3.2-1.6-3.2s-3.3-0.6-4-1.9
		s0.6-2.7,0.6-2.7s-1.5-0.2-1.3-1.3c0.2-1.2,1.6-2.2,1.6-2.2s-2.9-1.1-1.8-3.4c1.1-2.3,2.4-1.7,2.4-1.7s-0.5-0.7-0.1-3
		c0.4-2.3,2-2.4,2-2.4s-0.9-1.3,0-2.2c0.9-1,2.8-0.9,2.8-0.9s-1.2,0.4,0.2-1.5s2.5-1.2,2.5-1.2s0-2.4-0.7-3.2
		c-0.8-0.8-1.7-1.8-1.2-2.8c0.5-1,1.8-1.7,1.8-1.7s0.1-1.7,0.9-2.2c0.8-0.6,2.3-0.7,2.3-0.7s-1.8-0.1-2-1.7
		c-0.2-1.5,2.3-2.7,2.3-2.7S94.8,94,95,93.1c0.3-0.9,0.9-1.9,0.9-1.9s0.2-2,0.9-2.1c0.8,0-2-0.7-1.3-1.9c0.7-1.2,3-1.8,3-1.8
		s-2.3-1-1.2-2c1.1-1,2.6-0.6,2.6-0.6s-0.2-1.2,1.2-1.6c1.4-0.4,1.9,0.1,1.9,0.1s-0.3-2.2,1.3-2.5c1.5-0.2,2.5,0.6,2.5,0.6
		s0.5-0.8,1.4-1.2c1-0.4,1.3,0.1,1.3,0.1s-0.8-1,0.1-1.8c0.9-0.8,1.6-0.6,1.6-0.6s0.8-1.5,1.5-1.5c0.7,0,2.1,0.7,2.1,0.7
		s1-1.2,2-0.4s1.3,2,1.3,2s2.1-0.1,3,0.8c0.9,0.9-0.5-4.2-0.5-4.2s-1-1.5-0.3-2c0.7-0.6,2.2,1.1,2.2,1.1s0.4-0.9,1.1-0.4
		c0.7,0.5-1.6-1.2-0.4-1.9c1.2-0.7,2.4-1.4,3-0.6s1.9-0.4,1.9-0.4s-1.5-1.9,0.6-2.4c2.2-0.6,2.3,0.8,2.3,0.8s1.8-1.5,2.9-1.2
		c1.1,0.3,1.2,1.4,1.2,1.4s2-0.7,2.8-0.3c1.3-1,2.6-1.4,3.3-1c0.7,0.4,2.1,1.8,2.1,1.8l2.9,1.3c0,0,2.7-2.8,4-2.8s3.2-2.2,3.8-1.4
		c0.7,0.8,1.6,1.1,1.6,1.1s0.4-0.9,1.4-0.6c1,0.3,1.2,1.5,1.2,1.5s0.5-0.7,1.4-0.3c1,0.3,1.7,2.3,1.7,2.3s1.9,0.1,2.4,0.5
		s0.4,1.9,0.4,1.9l2.1,1.2c0,0,1.1-1,1.8-0.4c0.7,0.6,1.4,1.8,1.4,1.8s1.4-0.3,2,0.3c0.6,0.6,1.6-0.4,2.1,0.1c0.5,0.5,1.5,2.1,1.2,3
		c-0.4,0.9,1.2,1.6,1.2,1.6s1.9-1.5,2.5-0.9c0.6,0.6,2-1,2.8-0.6c0.9,0.4,4.1,1.8,3.5,2.4s2.4,0.3,2.6,0.3c0.2-0.1,4-1.5,4.6,0.4
		c0.6,1.8,2.5,2.2,2.5,2.2s0.5,1.7-0.3,2.2c-0.8,0.4,2.4,1.9,2.4,1.9s0.9-2.3,1.8-1.9c0.9,0.4,2,2.2,2,2.2s2.5-1.4,2.7-0.6
		c0.2,0.8-0.5,2.4-0.1,2.6s0.8,1.3,0.8,1.3s2.3-0.9,2.5,0.2c0.2,1.1,2.6,3.8,2.6,3.8s0.8,1.9,0.1,3c-0.6,1,1.3,1.3,0.6,2.6
		c-0.7,1.2-1.6,2.9-0.8,3.2c0.9,0.3,3.1-0.3,2.5,1c-0.6,1.3-0.1,3.7-0.1,3.7s1.6,1.6,0.2,3s-3.8,2.2-3.8,2.2s-0.8,2.5,0.4,3.1
		c1.2,0.6,1.2,2.4,0.5,4.7c-0.7,2.3,0.8,2,0.8,2s3.2,0.5,2.8,1.4c-0.4,0.9-0.1,2.4-0.9,2.5c-0.9,0-1.4,1.2-0.7,1.5
		c0.7,0.3,1.2,1.1,1,1.6c-0.2,0.5,2.2,0.8,1.1,2c-1.1,1.2-1.9,1.4-1.9,1.4s1.4-0.3,0.4,1c-1,1.4,0.2,1.6-0.8,3.1
		c-1,1.4-2.3-0.1-2.9,0.8c-0.5,0.9-2,0.3-2.1,1c0,0.7,1.3,1.6,0.4,2.4c-0.9,0.8-2.5,1-2.5,1s-0.3,2.3-1.2,2.1
		c-0.9-0.2-2.3-0.8-2.4-0.7c-0.1,0.2-1.9,2.4-1.9,2.4s-1.6,0.2-2.3-0.5c-0.7-0.6-2.3-0.6-2.6,0c-0.2,0.7,0.1,1.7-0.7,1.9
		c-0.8,0.3-2.1-0.5-2.1-0.5s-1.7,1.1-1.6,1.6c0.2,0.6,2.3,0.6,2.4,2.4c0.1,1.8-3.6,2.7-3.6,2.7s0.3,2.2-0.4,2.4
		c-0.6,0.1,3.8-0.9,3.7,0.6c-0.1,1.6,3.4,0.2,2.1,2.1c-1.3,1.9,0.2,2.5,0.2,2.5s0.2,1.9-0.8,1.9c-1,0.1,1.1,1.3,1.1,2.4
		c0,1.1-1.9,3.8-3.3,3.6c-0.7,1.4-1.3,3.3-2.7,2.9c-1.4-0.4-3.2-1.6-3.2-1.6s-0.6,2.5-1.1,2.1s1.7,0.2,1.2,1.5
		c-0.4,1.3-1.5,1.6-1.5,1.6s0.9,0.5,0.4,1.6c-0.4,1.1-1.7,1-1.7,1s1,1.1,0.7,1.9s-2.3,0.6-2.3,0.6s-2.3,3.8-3.4,3.6
		c-1.1-0.3-1.8-0.7-1.8-0.7s-1.1,4-2.8,3.5c-1.7-0.5-2.5-1-2.5-1s-1.3,2.2-2.3,1.6c-1-0.6-1.7-1.9-1.7-1.9s-0.6,0.6-1.2,0.2
		c-0.7-0.3-1-2.3-1-2.3s-1.1-0.8-1.6,0.2c-0.5,1-3.2,1.9-3.3,1.7c-0.1-0.1-2.3-0.8-2.7,1.3s-3,0.7-3,0.7s-2.1,0.9-2.9,0.4
		c-0.7-0.6-0.8-1.5-0.8-1.5s-1.6,1.5-2.1,0.8c-0.5-0.8-0.8-2.8-0.8-2.8s-2.9,1.2-3.6,0.8s-0.9,0.8-1.4,0.8c-0.5,0-1.8-0.5-1.8-0.5
		s-1.6,0.9-1.9,0c-0.4-0.9-0.7-2.2-0.7-2.2s-2.1,2.8-3,2.3c-0.9-0.4-1.4-2-1.4-2s-0.4-1-1.7-0.9c-1.3,0.2-2.8-0.5-2.8-0.5
		s-1.6,1-2.8,0.2c-1.1-0.8-0.2-3.2-0.2-3.2s-0.6-1.1-1.5-1.1c-0.9,0-2.6,0.5-3.2-0.1s-1-1.2-1-1.2s-2.2,0.7-3-0.2
		c-0.9-0.8,0.2-3.6,0.2-3.6s0.7-2.7-0.8-2.4s-2.5-0.1-2.7-1.3s-2.4,0.1-2.4,0.1s-1.2-1-2-0.6c-0.8,0.4-1.4-1.3-1.4-1.3s-1,0.4-1.4,0
		C105.3,167.9,104.7,165.3,104.7,165.3z"/>
	<path id="XMLID_201_" class="st5" d="M105.2,122.6c0,0-1.9-0.3-1.6-1.1s1.3-1.4,1.3-1.4s-1-0.7-0.6-1s1-0.6,1-0.6s-0.8-0.8-0.1-1.1
		c0.7-0.2,1.5-0.5,1.5-0.5s0.3-0.7,0.9-0.9c0.6-0.2,1.3-1.6,1.9-1.7c0.6-0.1,1.8-0.5,1.8-0.5s-1-0.6-0.6-1c-0.3-0.5-1.4-1.2-0.4-2.2
		c1-1-0.9-2.6-0.9-2.6s-1.4-0.6-2-1.8s0.3-1.8,0.3-1.8s-1.2-1.2-1.2-2s1-1,1-1s-0.6-0.5-0.2-1c0.4-0.5,1.3-0.5,1.3-0.5
		s-0.9-1.3,0.2-2c1.2-0.7,1.5,0,1.5,0s0-0.4,0.8-1.3c0.9-0.9,1.6-0.4,1.6-0.4s0-0.8,0.7-0.9c0.7-0.1,1.5,0.4,1.5,0.4
		s-0.6-0.2,0.5-0.6c1.1-0.4,1.4,0.2,1.4,0.2s0.7-1,0.6-1.6c-0.1-0.6-0.2-1.3,0.3-1.6s1.3-0.2,1.3-0.2s0.5-0.7,1.1-0.7
		c0.5,0,1.2,0.4,1.2,0.4s-0.7-0.6-0.4-1.3c0.3-0.7,1.8-0.5,1.8-0.5s-1.1-0.9-0.7-1.2c0.4-0.3,1-0.6,1-0.6s0.7-0.8,1-0.6
		c0.4,0.2-0.7-0.9,0-1.2c0.7-0.3,1.8,0.1,1.8,0.1s-0.7-1.1,0.1-1.2c0.8-0.1,1.3,0.5,1.3,0.5s0.3-0.6,1-0.3c0.7,0.2,0.8,0.6,0.8,0.6
		s0.6-1,1.3-0.7s0.9,1,0.9,1s0.4-0.2,1-0.1c0.5,0.1,0.5,0.4,0.5,0.4s-0.1-0.7,0.6-0.7c0.6,0,0.8,0.2,0.8,0.2s0.8-0.4,1.1-0.2
		s0.7,0.9,0.7,0.9s0.8-0.2,1,0.4c0.2,0.6,0,1.3,0,1.3s0.9,0.6,1,1.2s1-1.9,1-1.9s0-0.9,0.5-1s0.6,1.1,0.6,1.1s0.5-0.3,0.6,0.2
		c0.1,0.4-0.3-1,0.4-0.9c0.7,0,1.4,0.1,1.4,0.6c0,0.5,0.9,0.4,0.9,0.4s-0.1-1.3,1-0.9c1.1,0.4,0.8,1,0.8,1s1.2-0.1,1.6,0.3
		s0.1,1,0.1,1s1,0.3,1.3,0.7c0.8-0.1,1.5,0.2,1.7,0.5c0.2,0.4,0.4,1.4,0.4,1.4l0.9,1.4c0,0,2-0.4,2.5,0c0.5,0.3,2,0,2.1,0.5
		c0,0.5,0.4,1,0.4,1s0.4-0.2,0.8,0.2c0.3,0.4,0,1,0,1s0.4-0.2,0.7,0.3c0.3,0.4,0,1.5,0,1.5s0.8,0.6,0.9,0.9c0.1,0.3-0.4,0.9-0.4,0.9
		l0.6,1.1c0,0,0.8-0.1,0.9,0.4c0.1,0.5,0.1,1.2,0.1,1.2s0.7,0.3,0.8,0.7c0.1,0.4,0.8,0.3,0.9,0.7c0.1,0.4,0,1.3-0.4,1.6
		c-0.4,0.3,0,1.1,0,1.1s1.3-0.1,1.4,0.4s1.2,0.1,1.4,0.6c0.2,0.4,1.2,2,0.8,2.1c-0.4,0.1,1,0.9,1.1,0.9c0.1,0,2.2,0.6,1.9,1.5
		c-0.3,1,0.4,1.7,0.4,1.7s-0.3,0.9-0.8,0.8c-0.5-0.1,0.5,1.5,0.5,1.5s1.1-0.7,1.3-0.3s0.2,1.5,0.2,1.5s1.5,0.1,1.3,0.5
		c-0.1,0.4-0.9,0.9-0.8,1.1c0.1,0.2,0,0.8,0,0.8s1.3,0.3,1,0.8c-0.2,0.5,0,2.4,0,2.4s-0.2,1.1-0.8,1.3c-0.6,0.3,0.2,1-0.5,1.3
		c-0.7,0.3-1.5,0.8-1.3,1.1s1.4,0.8,0.8,1.2c-0.6,0.4-1.1,1.5-1.1,1.5s0.2,1.2-0.8,1.3c-1,0.2-2.3-0.2-2.3-0.2s-1.1,0.8-0.7,1.5
		c0.3,0.6-0.2,1.4-1.2,2.2c-1,0.8-0.3,1.1-0.3,1.1s1.2,1.1,0.8,1.4c-0.4,0.3-0.7,1-1.1,0.8c-0.4-0.2-0.9,0.1-0.7,0.4s0.2,0.8,0,1
		c-0.2,0.2,0.7,1-0.1,1.2c-0.8,0.2-1.2,0-1.2,0s0.7,0.3-0.1,0.6c-0.8,0.3-0.4,0.8-1.2,1.1c-0.8,0.3-1-0.7-1.5-0.5s-1-0.5-1.2-0.2
		c-0.2,0.3,0.1,1.1-0.5,1.1c-0.6,0.1-1.4-0.3-1.4-0.3s-0.8,0.9-1.1,0.5c-0.3-0.4-0.8-1.1-0.8-1s-1.5,0.5-1.5,0.5s-0.7-0.4-0.8-0.9
		c-0.1-0.5-0.8-1-1.1-0.7c-0.3,0.2-0.4,0.8-0.9,0.6c-0.4-0.1-0.7-0.8-0.7-0.8s-1.1,0-1.2,0.2c-0.1,0.3,0.8,1,0.3,1.8
		s-2.3,0.1-2.3,0.1s-0.6,1-0.9,0.9c-0.3-0.1,1.9,0.7,1.4,1.4c-0.5,0.6,1.4,1.1,0.3,1.5c-1.1,0.4-0.7,1.1-0.7,1.1s-0.5,0.9-0.9,0.6
		c-0.5-0.3,0.1,0.9-0.3,1.4s-1.9,1.1-2.5,0.6c-0.7,0.4-1.5,1-2,0.4c-0.5-0.6-0.9-1.6-0.9-1.6s-1,0.9-1.1,0.6c-0.1-0.3,0.7,0.6,0.1,1
		c-0.6,0.4-1.1,0.2-1.1,0.2s0.2,0.5-0.3,0.8s-1-0.1-1-0.1s0.1,0.8-0.3,1c-0.4,0.2-1.2-0.4-1.2-0.4s-2.1,1-2.5,0.5
		c-0.4-0.5-0.6-0.8-0.6-0.8s-1.6,1.4-2.2,0.7s-0.8-1.2-0.8-1.2s-1.2,0.6-1.4,0c-0.3-0.5-0.2-1.3-0.2-1.3s-0.4,0.1-0.6-0.3
		c-0.2-0.3,0.3-1.3,0.3-1.3s-0.3-0.7-0.7-0.4c-0.5,0.3-1.9-0.1-1.9-0.2s-0.8-1.1-1.5-0.2c-0.8,0.8-1.5-0.6-1.5-0.6s-1.2-0.2-1.3-0.7
		c-0.1-0.5,0.1-0.9,0.1-0.9s-1.1,0.2-1.1-0.3c0-0.5,0.5-1.4,0.5-1.4s-1.6-0.3-1.8-0.7c-0.2-0.4-0.6,0.1-0.8-0.1
		c-0.2-0.2-0.7-0.7-0.7-0.7s-0.9-0.1-0.8-0.6c0.1-0.5,0.3-1.1,0.3-1.1s-1.7,0.6-2,0.1c-0.3-0.5,0-1.3,0-1.3s0.1-0.6-0.5-0.9
		c-0.6-0.3-1.1-1-1.1-1s-1,0-1.3-0.7c-0.2-0.7,0.9-1.4,0.9-1.4s0.1-0.6-0.3-0.9c-0.4-0.3-1.3-0.5-1.3-1c-0.1-0.5-0.1-0.8-0.1-0.8
		s-1.1-0.4-1.2-1c-0.1-0.6,1.2-1.5,1.2-1.5s1.1-0.9,0.4-1.2c-0.7-0.3-1-0.8-0.8-1.4c0.2-0.6-1.1-0.7-1.1-0.7s-0.2-0.8-0.7-0.9
		c-0.5-0.1-0.2-1-0.2-1s-0.5-0.1-0.6-0.4C104.7,123.9,105.2,122.6,105.2,122.6z"/>
	<g id="Calque_4">
		<g id="圖層_4_拷貝_45" class="st6">
			<g id="圖層_1_拷貝_47_2_">
				<path id="XMLID_1248_" class="st7" d="M107.8,66.2c0,0-0.2,6.3-3.5,7.9c-3.4,1.7-9.6,3.9-9.6,3.9s1.1-6.8,4.2-9
					C101.9,66.9,107.8,66.2,107.8,66.2z"/>
				<path id="XMLID_1247_" class="st8" d="M103.8,72.4c-2.5,1.3-6.8,2.9-8.7,3.6c-0.3,1.2-0.4,2.1-0.4,2.1s6.3-2.2,9.6-3.9
					c3.3-1.7,3.5-7.9,3.5-7.9s-0.2,0-0.7,0.1C106.7,68.3,105.9,71.3,103.8,72.4z"/>
				<path id="XMLID_1246_" class="st9" d="M98.8,73.4c0,0,3.8-0.7,5.6-2.4c1.7-1.7,3.2-4.5,3.2-4.5s-2.8,3.3-3.9,4
					C102.5,71.2,98.8,73.4,98.8,73.4z"/>
				<path id="XMLID_1245_" class="st7" d="M107.3,63.4c0,0-2.6,5.8-6.2,5.9c-3.6,0.1-10.1-0.5-10.1-0.5s3.6-5.9,7.2-6.6
					C101.7,61.4,107.3,63.4,107.3,63.4z"/>
				<path id="XMLID_1244_" class="st8" d="M101.3,67.4c-2.7,0.1-7.2-0.2-9.1-0.4c-0.8,1-1.3,1.8-1.3,1.8s6.5,0.6,10.1,0.5
					c3.6-0.1,6.2-5.9,6.2-5.9s-0.2-0.1-0.7-0.2C105.6,64.9,103.6,67.3,101.3,67.4z"/>
				<path id="XMLID_1243_" class="st9" d="M96.5,66.1c0,0,3.7,1,5.9,0.2c2.2-0.8,4.6-2.8,4.6-2.8s-3.7,1.9-5,2.1
					C100.7,65.8,96.5,66.1,96.5,66.1z"/>
				<path id="XMLID_1242_" class="st7" d="M109.1,59.6c0,0-3.7,5.1-7.2,4.4c-3.5-0.7-9.7-2.7-9.7-2.7s4.6-5,8.3-4.9
					C104,56.3,109.1,59.6,109.1,59.6z"/>
				<path id="XMLID_1241_" class="st8" d="M102.5,62.2c-2.7-0.5-6.9-1.8-8.8-2.4c-1,0.8-1.6,1.5-1.6,1.5s6.2,2.1,9.7,2.7
					s7.2-4.4,7.2-4.4s-0.2-0.1-0.6-0.4C107.1,60.6,104.8,62.6,102.5,62.2z"/>
				<path id="XMLID_1231_" class="st9" d="M98,59.8c0,0,3.4,1.8,5.7,1.5s5-1.7,5-1.7s-4,1-5.3,0.9C102.1,60.4,98,59.8,98,59.8z"/>
			</g>
			<g id="圖層_1_拷貝_47_1_">
				<path id="XMLID_1285_" class="st7" d="M111.6,55.1c0,0-4.6,4.3-8.1,3.1c-3.5-1.2-9.6-4.1-9.6-4.1s5.6-4,9.3-3.4
					C107,51.4,111.6,55.1,111.6,55.1z"/>
				<path id="XMLID_1284_" class="st8" d="M104.4,56.6c-2.7-0.9-6.8-2.7-8.7-3.6c-1.1,0.6-1.8,1.2-1.8,1.2s6,2.9,9.6,4.1
					s8.1-3.1,8.1-3.1s-0.2-0.1-0.5-0.4C109.4,55.9,106.7,57.4,104.4,56.6z"/>
				<path id="XMLID_1283_" class="st9" d="M100.3,53.7c0,0,3.2,2.2,5.6,2.3c2.4,0.1,5.4-0.9,5.4-0.9s-4.3,0.4-5.6,0.1
					C104.3,54.9,100.3,53.7,100.3,53.7z"/>
				<path id="XMLID_1282_" class="st7" d="M113.2,52.8c0,0-5.9,2.2-8.5-0.2c-2.6-2.4-6.8-7.5-6.8-7.5s6.7-1.6,9.7,0.4
					C110.7,47.4,113.2,52.8,113.2,52.8z"/>
				<path id="XMLID_1281_" class="st8" d="M106.2,51.4c-2-1.9-4.9-5.2-6.1-6.8c-1.3,0.2-2.2,0.4-2.2,0.4s4.1,5.1,6.8,7.5
					c2.6,2.4,8.5,0.2,8.5,0.2s-0.1-0.3-0.3-0.6C111,52.6,107.9,53,106.2,51.4z"/>
				<path id="XMLID_1280_" class="st9" d="M103.7,47.1c0,0,1.9,3.3,4,4.3s5.2,1.3,5.2,1.3s-4-1.4-5-2.1
					C106.9,49.8,103.7,47.1,103.7,47.1z"/>
				<path id="XMLID_1279_" class="st7" d="M117.2,51.3c0,0-6.2,1-8.2-2c-2-3-4.9-8.8-4.9-8.8s6.8-0.2,9.3,2.4
					C116,45.5,117.2,51.3,117.2,51.3z"/>
				<path id="XMLID_1278_" class="st8" d="M110.7,48.5c-1.5-2.2-3.6-6.2-4.4-7.9c-1.3-0.1-2.2,0-2.2,0s2.9,5.9,4.9,8.8s8.2,2,8.2,2
					s-0.1-0.3-0.2-0.7C115.1,50.7,112,50.4,110.7,48.5z"/>
				<path id="XMLID_1277_" class="st9" d="M109.3,43.7c0,0,1.1,3.6,2.9,5.1c1.8,1.4,4.7,2.3,4.7,2.3s-3.5-2.1-4.4-3.1
					C111.7,47,109.3,43.7,109.3,43.7z"/>
			</g>
			<g id="圖層_1_拷貝_47">
				<path id="XMLID_1212_" class="st7" d="M121.6,50.4c0,0-6.2-0.9-7.5-4.4s-2.8-10-2.8-10s6.7,1.8,8.5,5.1
					C121.7,44.4,121.6,50.4,121.6,50.4z"/>
				<path id="XMLID_1211_" class="st8" d="M116,45.7c-1-2.7-2.1-7-2.6-9c-1.2-0.5-2.1-0.7-2.1-0.7s1.5,6.5,2.8,10
					c1.3,3.5,7.5,4.4,7.5,4.4s0-0.2,0-0.7C119.7,49.1,116.8,48,116,45.7z"/>
				<path id="XMLID_1210_" class="st9" d="M115.6,40.6c0,0,0.3,3.9,1.7,5.8c1.5,1.9,4.1,3.7,4.1,3.7s-3-3.2-3.6-4.3
					C117.2,44.6,115.6,40.6,115.6,40.6z"/>
				<path id="XMLID_1209_" class="st7" d="M124.5,50.2c0,0-5.4-3.2-5.2-6.8c0.3-3.6,1.6-10,1.6-10s5.4,4.2,5.8,7.9
					C127.1,44.9,124.5,50.2,124.5,50.2z"/>
				<path id="XMLID_1208_" class="st8" d="M121.2,43.8c0.2-2.7,1-7.1,1.4-9c-0.9-0.9-1.6-1.4-1.6-1.4s-1.4,6.4-1.6,10
					c-0.2,3.6,5.2,6.8,5.2,6.8s0.1-0.2,0.3-0.6C123.2,48.3,121,46.2,121.2,43.8z"/>
				<path id="XMLID_1207_" class="st9" d="M123,39.2c0,0-1.4,3.6-0.9,5.8c0.6,2.2,2.2,4.9,2.2,4.9s-1.4-3.9-1.5-5.3
					C122.9,43.3,123,39.2,123,39.2z"/>
				<path id="XMLID_1206_" class="st7" d="M128.2,52.4c0,0-4.7-4.2-3.6-7.6c1-3.4,3.8-9.4,3.8-9.4s4.4,5.2,4,8.8
					C131.9,47.7,128.2,52.4,128.2,52.4z"/>
				<path id="XMLID_1205_" class="st8" d="M126.3,45.5c0.8-2.6,2.6-6.6,3.4-8.5c-0.7-1.1-1.3-1.7-1.3-1.7s-2.7,5.9-3.8,9.4
					c-1,3.4,3.6,7.6,3.6,7.6s0.1-0.2,0.4-0.5C127.3,50.3,125.6,47.8,126.3,45.5z"/>
				<path id="XMLID_1195_" class="st9" d="M129.1,41.4c0,0-2.2,3.2-2.1,5.5c0.1,2.3,1.2,5.2,1.2,5.2s-0.6-4.1-0.3-5.4
					C128.1,45.4,129.1,41.4,129.1,41.4z"/>
			</g>
		</g>
		<g id="圖層_4_拷貝_45_1_" class="st6">
			<g id="圖層_1_拷貝_47_5_">
				<path id="XMLID_32_" class="st7" d="M125.3,197.1c0,0,2.8-5.6,6.6-5.7s10.4,0.6,10.4,0.6s-3.9,5.7-7.6,6.4
					C130.9,199.1,125.3,197.1,125.3,197.1z"/>
				<path id="XMLID_31_" class="st8" d="M131.6,193.2c2.8-0.1,7.4,0.3,9.4,0.5c0.8-1,1.3-1.7,1.3-1.7s-6.7-0.7-10.4-0.6
					c-3.7,0.1-6.6,5.7-6.6,5.7s0.2,0.1,0.7,0.2C127.1,195.6,129.2,193.3,131.6,193.2z"/>
				<path id="XMLID_30_" class="st9" d="M136.5,194.5c0,0-3.8-1-6-0.2c-2.3,0.8-4.8,2.7-4.8,2.7s3.9-1.8,5.2-2
					C132.2,194.8,136.5,194.5,136.5,194.5z"/>
				<path id="XMLID_29_" class="st7" d="M124.5,199.9c0,0,4.8-4.1,8.1-2.6s9,4.8,9,4.8s-5.8,3.8-9.3,2.9
					C128.7,204.1,124.5,199.9,124.5,199.9z"/>
				<path id="XMLID_28_" class="st8" d="M131.6,198.8c2.5,1.1,6.4,3.3,8.1,4.2c1.2-0.6,1.9-1.1,1.9-1.1s-5.6-3.4-9-4.8
					c-3.4-1.4-8.1,2.6-8.1,2.6s0.2,0.2,0.5,0.5C126.7,199.3,129.5,197.9,131.6,198.8z"/>
				<path id="XMLID_27_" class="st9" d="M135.5,202c0,0-2.9-2.5-5.2-2.7c-2.3-0.2-5.3,0.6-5.3,0.6s4.2-0.1,5.4,0.3
					C131.6,200.5,135.5,202,135.5,202z"/>
				<path id="XMLID_26_" class="st7" d="M121.3,202.6c0,0,5.5-3,8.4-0.9c2.9,2.1,7.6,6.6,7.6,6.6s-6.3,2.5-9.6,0.9
					C124.5,207.7,121.3,202.6,121.3,202.6z"/>
				<path id="XMLID_25_" class="st8" d="M128.4,203.1c2.2,1.6,5.5,4.6,6.9,5.9c1.2-0.4,2.1-0.7,2.1-0.7s-4.7-4.5-7.6-6.6
					c-2.9-2.1-8.4,0.9-8.4,0.9s0.1,0.2,0.4,0.6C123.6,202.5,126.5,201.7,128.4,203.1z"/>
				<path id="XMLID_24_" class="st9" d="M131.4,207.1c0,0-2.3-3.1-4.5-3.8c-2.2-0.7-5.2-0.6-5.2-0.6s4,0.8,5.2,1.4
					C127.9,204.8,131.4,207.1,131.4,207.1z"/>
			</g>
			<g id="圖層_1_拷貝_47_4_">
				<path id="XMLID_23_" class="st7" d="M117.1,205.5c0,0,6-1.9,8.7,0.7c2.7,2.6,6.9,7.7,6.9,7.7s-6.8,1.2-9.9-0.9
					C119.7,210.9,117.1,205.5,117.1,205.5z"/>
				<path id="XMLID_22_" class="st8" d="M124.2,207.2c2,1.9,5,5.4,6.3,7c1.3-0.1,2.2-0.3,2.2-0.3s-4.2-5.2-6.9-7.7
					c-2.7-2.6-8.7-0.7-8.7-0.7s0.1,0.2,0.3,0.6C119.4,205.8,122.5,205.6,124.2,207.2z"/>
				<path id="XMLID_21_" class="st9" d="M126.8,211.6c0,0-1.9-3.3-4.1-4.4s-5.3-1.5-5.3-1.5s4.1,1.5,5.1,2.3
					C123.6,208.8,126.8,211.6,126.8,211.6z"/>
				<path id="XMLID_20_" class="st7" d="M114.6,206.9c0,0,6.3,0.5,7.6,3.9s3,9.7,3,9.7s-6.7-1.4-8.6-4.5
					C114.6,212.9,114.6,206.9,114.6,206.9z"/>
				<path id="XMLID_19_" class="st8" d="M120.4,211.2c1,2.6,2.2,6.8,2.7,8.7c1.3,0.4,2.1,0.6,2.1,0.6s-1.6-6.3-3-9.7
					c-1.4-3.3-7.6-3.9-7.6-3.9s0,0.3,0,0.7C116.6,208.1,119.5,209.1,120.4,211.2z"/>
				<path id="XMLID_18_" class="st9" d="M120.8,216.2c0,0-0.3-3.8-1.8-5.6c-1.5-1.8-4.1-3.4-4.1-3.4s3,2.9,3.6,4.1
					C119.1,212.4,120.8,216.2,120.8,216.2z"/>
				<path id="XMLID_17_" class="st7" d="M110.4,206.6c0,0,6,1.7,6.6,5.3s0.7,10.1,0.7,10.1s-6.2-2.7-7.4-6.1
					C109,212.4,110.4,206.6,110.4,206.6z"/>
				<path id="XMLID_16_" class="st8" d="M115.1,211.9c0.4,2.7,0.6,7.1,0.6,9.1c1.1,0.6,1.9,1,1.9,1s-0.1-6.5-0.7-10.1
					c-0.6-3.6-6.6-5.3-6.6-5.3s0,0.3-0.2,0.7C112.1,208.1,114.7,209.6,115.1,211.9z"/>
				<path id="XMLID_15_" class="st9" d="M114.4,216.9c0,0,0.5-3.8-0.5-5.8c-1.1-2-3.3-4.1-3.3-4.1s2.3,3.4,2.6,4.7
					C113.5,212.8,114.4,216.9,114.4,216.9z"/>
			</g>
			<g id="圖層_1_拷貝_47_3_">
				<path id="XMLID_14_" class="st7" d="M106,205.5c0,0,5.2,3.5,4.9,7.2c-0.3,3.7-1.7,10.3-1.7,10.3s-5.3-4.5-5.5-8.3
					C103.4,211,106,205.5,106,205.5z"/>
				<path id="XMLID_13_" class="st8" d="M109.2,212.2c-0.2,2.8-1.1,7.3-1.5,9.2c0.9,0.9,1.6,1.5,1.6,1.5s1.4-6.6,1.7-10.3
					c0.3-3.7-4.9-7.2-4.9-7.2s-0.1,0.2-0.3,0.7C107.2,207.5,109.3,209.8,109.2,212.2z"/>
				<path id="XMLID_12_" class="st9" d="M107.3,216.9c0,0,1.4-3.7,0.9-6c-0.5-2.3-2.1-5.1-2.1-5.1s1.4,4.1,1.4,5.4
					C107.5,212.7,107.3,216.9,107.3,216.9z"/>
				<path id="XMLID_11_" class="st7" d="M103.3,204.5c0,0,3.6,5.2,1.8,8.4c-1.8,3.2-5.7,8.4-5.7,8.4s-3.1-6.1-1.9-9.6
					C98.7,208.2,103.3,204.5,103.3,204.5z"/>
				<path id="XMLID_10_" class="st8" d="M103.6,211.7c-1.4,2.4-3.9,6-5.1,7.6c0.4,1.2,0.9,2,0.9,2s4-5.2,5.7-8.4s-1.8-8.4-1.8-8.4
					s-0.2,0.2-0.6,0.4C103.7,206.7,104.8,209.6,103.6,211.7z"/>
				<path id="XMLID_9_" class="st9" d="M100,215.1c0,0,2.8-2.6,3.3-4.9s0.1-5.4,0.1-5.4s-0.4,4.2-0.9,5.4
					C101.9,211.4,100,215.1,100,215.1z"/>
				<path id="XMLID_8_" class="st7" d="M101,201c0,0,2.4,5.8,0,8.4c-2.4,2.7-7.4,6.9-7.4,6.9s-1.8-6.5,0.2-9.6
					C95.6,203.6,101,201,101,201z"/>
				<path id="XMLID_7_" class="st8" d="M99.7,208c-1.9,2-5.2,4.9-6.6,6.2c0.2,1.3,0.4,2.1,0.4,2.1s5-4.2,7.4-6.9
					c2.4-2.7,0-8.4,0-8.4s-0.2,0.1-0.6,0.3C100.8,203.2,101.3,206.2,99.7,208z"/>
				<path id="XMLID_6_" class="st9" d="M95.5,210.5c0,0,3.3-2,4.3-4c0.9-2.1,1.2-5.2,1.2-5.2s-1.2,4-2,5
					C98.1,207.3,95.5,210.5,95.5,210.5z"/>
			</g>
		</g>
		<g id="圖層_4_拷貝_45_2_" class="st6">
			<g id="圖層_1_拷貝_47_8_">
				<path id="XMLID_59_" class="st7" d="M197.3,200.8c0,0,2.8-5.6,6.6-5.7c3.8-0.1,10.4,0.6,10.4,0.6s-3.9,5.7-7.6,6.4
					C203,202.8,197.3,200.8,197.3,200.8z"/>
				<path id="XMLID_58_" class="st8" d="M203.6,196.9c2.8-0.1,7.4,0.3,9.4,0.5c0.8-1,1.3-1.7,1.3-1.7s-6.7-0.7-10.4-0.6
					c-3.7,0.1-6.6,5.7-6.6,5.7s0.2,0.1,0.7,0.2C199.2,199.3,201.2,197,203.6,196.9z"/>
				<path id="XMLID_57_" class="st9" d="M208.5,198.2c0,0-3.8-1-6-0.2s-4.8,2.7-4.8,2.7s3.9-1.8,5.2-2
					C204.3,198.5,208.5,198.2,208.5,198.2z"/>
				<path id="XMLID_56_" class="st7" d="M196.6,203.6c0,0,4.8-4.1,8.1-2.6c3.3,1.5,9,4.8,9,4.8s-5.8,3.8-9.3,2.9
					C200.8,207.8,196.6,203.6,196.6,203.6z"/>
				<path id="XMLID_55_" class="st8" d="M203.7,202.5c2.5,1.1,6.4,3.3,8.1,4.2c1.2-0.6,1.9-1.1,1.9-1.1s-5.6-3.4-9-4.8
					c-3.4-1.4-8.1,2.6-8.1,2.6s0.2,0.2,0.5,0.5C198.8,203,201.6,201.6,203.7,202.5z"/>
				<path id="XMLID_54_" class="st9" d="M207.6,205.7c0,0-2.9-2.5-5.2-2.7c-2.3-0.2-5.3,0.6-5.3,0.6s4.2-0.1,5.4,0.3
					C203.6,204.2,207.6,205.7,207.6,205.7z"/>
				<path id="XMLID_53_" class="st7" d="M193.4,206.3c0,0,5.5-3,8.4-0.9s7.6,6.6,7.6,6.6s-6.3,2.5-9.6,0.9
					C196.5,211.4,193.4,206.3,193.4,206.3z"/>
				<path id="XMLID_52_" class="st8" d="M200.5,206.7c2.2,1.6,5.5,4.6,6.9,5.9c1.2-0.4,2.1-0.7,2.1-0.7s-4.7-4.5-7.6-6.6
					c-2.9-2.1-8.4,0.9-8.4,0.9s0.1,0.2,0.4,0.6C195.6,206.2,198.5,205.4,200.5,206.7z"/>
				<path id="XMLID_51_" class="st9" d="M203.4,210.8c0,0-2.3-3.1-4.5-3.8c-2.2-0.7-5.2-0.6-5.2-0.6s4,0.8,5.2,1.4
					C200,208.5,203.4,210.8,203.4,210.8z"/>
			</g>
			<g id="圖層_1_拷貝_47_7_">
				<path id="XMLID_50_" class="st7" d="M189.2,209.2c0,0,6-1.9,8.7,0.7c2.7,2.6,6.9,7.7,6.9,7.7s-6.8,1.2-9.9-0.9
					C191.8,214.6,189.2,209.2,189.2,209.2z"/>
				<path id="XMLID_49_" class="st8" d="M196.3,210.9c2,1.9,5,5.4,6.3,7c1.3-0.1,2.2-0.3,2.2-0.3s-4.2-5.2-6.9-7.7s-8.7-0.7-8.7-0.7
					s0.1,0.2,0.3,0.6C191.5,209.5,194.6,209.3,196.3,210.9z"/>
				<path id="XMLID_48_" class="st9" d="M198.8,215.3c0,0-1.9-3.3-4.1-4.4c-2.2-1.1-5.3-1.5-5.3-1.5s4.1,1.5,5.1,2.3
					C195.7,212.5,198.8,215.3,198.8,215.3z"/>
				<path id="XMLID_47_" class="st7" d="M186.7,210.6c0,0,6.3,0.5,7.6,3.9c1.4,3.3,3,9.7,3,9.7s-6.7-1.4-8.6-4.5
					C186.7,216.6,186.7,210.6,186.7,210.6z"/>
				<path id="XMLID_46_" class="st8" d="M192.4,214.9c1,2.6,2.2,6.8,2.7,8.7c1.3,0.4,2.1,0.6,2.1,0.6s-1.6-6.3-3-9.7
					c-1.4-3.3-7.6-3.9-7.6-3.9s0,0.3,0,0.7C188.6,211.8,191.6,212.8,192.4,214.9z"/>
				<path id="XMLID_45_" class="st9" d="M192.9,219.9c0,0-0.3-3.8-1.8-5.6c-1.5-1.8-4.1-3.4-4.1-3.4s3,2.9,3.6,4.1
					C191.2,216.1,192.9,219.9,192.9,219.9z"/>
				<path id="XMLID_44_" class="st7" d="M182.4,210.3c0,0,6,1.7,6.6,5.3c0.6,3.6,0.7,10.1,0.7,10.1s-6.2-2.7-7.4-6.1
					C181.1,216.1,182.4,210.3,182.4,210.3z"/>
				<path id="XMLID_43_" class="st8" d="M187.2,215.6c0.4,2.7,0.6,7.1,0.6,9.1c1.1,0.6,1.9,1,1.9,1s-0.1-6.5-0.7-10.1
					c-0.6-3.6-6.6-5.3-6.6-5.3s0,0.3-0.2,0.7C184.1,211.8,186.8,213.3,187.2,215.6z"/>
				<path id="XMLID_42_" class="st9" d="M186.4,220.6c0,0,0.5-3.8-0.5-5.8c-1.1-2-3.3-4.1-3.3-4.1s2.3,3.4,2.6,4.7
					C185.6,216.5,186.4,220.6,186.4,220.6z"/>
			</g>
			<g id="圖層_1_拷貝_47_6_">
				<path id="XMLID_41_" class="st7" d="M178.1,209.2c0,0,5.2,3.5,4.9,7.2c-0.3,3.7-1.7,10.3-1.7,10.3s-5.3-4.5-5.5-8.3
					C175.5,214.7,178.1,209.2,178.1,209.2z"/>
				<path id="XMLID_40_" class="st8" d="M181.2,215.9c-0.2,2.8-1.1,7.3-1.5,9.2c0.9,0.9,1.6,1.5,1.6,1.5s1.4-6.6,1.7-10.3
					c0.3-3.7-4.9-7.2-4.9-7.2s-0.1,0.2-0.3,0.7C179.3,211.2,181.4,213.5,181.2,215.9z"/>
				<path id="XMLID_39_" class="st9" d="M179.4,220.6c0,0,1.4-3.7,0.9-6s-2.1-5.1-2.1-5.1s1.4,4.1,1.4,5.4
					C179.6,216.3,179.4,220.6,179.4,220.6z"/>
				<path id="XMLID_38_" class="st7" d="M175.4,208.2c0,0,3.6,5.2,1.8,8.4c-1.8,3.2-5.7,8.4-5.7,8.4s-3.1-6.1-1.9-9.6
					C170.8,211.9,175.4,208.2,175.4,208.2z"/>
				<path id="XMLID_37_" class="st8" d="M175.6,215.4c-1.4,2.4-3.9,6-5.1,7.6c0.4,1.2,0.9,2,0.9,2s4-5.2,5.7-8.4s-1.8-8.4-1.8-8.4
					s-0.2,0.2-0.6,0.4C175.8,210.4,176.8,213.3,175.6,215.4z"/>
				<path id="XMLID_36_" class="st9" d="M172.1,218.8c0,0,2.8-2.6,3.3-4.9c0.4-2.3,0.1-5.4,0.1-5.4s-0.4,4.2-0.9,5.4
					C173.9,215.1,172.1,218.8,172.1,218.8z"/>
				<path id="XMLID_35_" class="st7" d="M173,204.7c0,0,2.4,5.8,0,8.4c-2.4,2.7-7.4,6.9-7.4,6.9s-1.8-6.5,0.2-9.6
					C167.7,207.3,173,204.7,173,204.7z"/>
				<path id="XMLID_34_" class="st8" d="M171.8,211.7c-1.9,2-5.2,4.9-6.6,6.2c0.2,1.3,0.4,2.1,0.4,2.1s5-4.2,7.4-6.9
					c2.4-2.7,0-8.4,0-8.4s-0.2,0.1-0.6,0.3C172.9,206.9,173.4,209.9,171.8,211.7z"/>
				<path id="XMLID_33_" class="st9" d="M167.5,214.2c0,0,3.3-2,4.3-4c0.9-2.1,1.2-5.2,1.2-5.2s-1.2,4-2,5
					C170.1,211,167.5,214.2,167.5,214.2z"/>
			</g>
		</g>
		<g id="圖層_4_拷貝_45_3_" class="st6">
			<g id="圖層_1_拷貝_47_11_">
				<path id="XMLID_86_" class="st7" d="M222.1,97.9c0,0-3.4-5.3-1.5-8.6c1.8-3.3,5.7-8.7,5.7-8.7s2.9,6.2,1.6,9.8
					C226.7,94,222.1,97.9,222.1,97.9z"/>
				<path id="XMLID_85_" class="st8" d="M222,90.5c1.4-2.5,4-6.2,5.2-7.8c-0.4-1.2-0.8-2-0.8-2s-4,5.4-5.7,8.7
					c-1.8,3.3,1.5,8.6,1.5,8.6s0.2-0.2,0.6-0.5C221.8,95.5,220.8,92.6,222,90.5z"/>
				<path id="XMLID_84_" class="st9" d="M225.5,86.9c0,0-2.8,2.8-3.3,5.1c-0.5,2.3-0.1,5.5-0.1,5.5s0.4-4.3,0.9-5.5
					C223.7,90.7,225.5,86.9,225.5,86.9z"/>
				<path id="XMLID_83_" class="st7" d="M224.1,99.9c0,0-1.1-6.2,1.9-8.4c3-2.1,8.7-5.3,8.7-5.3s0.4,6.9-2.2,9.5
					C229.9,98.4,224.1,99.9,224.1,99.9z"/>
				<path id="XMLID_82_" class="st8" d="M226.8,93.2c2.2-1.6,6.1-3.8,7.8-4.8c0.1-1.3,0-2.2,0-2.2s-5.7,3.1-8.7,5.3
					c-2.9,2.2-1.9,8.4-1.9,8.4s0.2-0.1,0.7-0.2C224.7,97.7,225,94.6,226.8,93.2z"/>
				<path id="XMLID_81_" class="st9" d="M231.5,91.6c0,0-3.6,1.2-5,3.2c-1.4,1.9-2.2,4.9-2.2,4.9s2-3.7,3-4.6
					C228.2,94.2,231.5,91.6,231.5,91.6z"/>
				<path id="XMLID_80_" class="st7" d="M224.8,104.1c0,0,0.2-6.3,3.5-7.7c3.3-1.4,9.6-3.2,9.6-3.2s-1,6.7-4.1,8.7
					C230.8,103.9,224.8,104.1,224.8,104.1z"/>
				<path id="XMLID_79_" class="st8" d="M228.8,98.2c2.5-1.1,6.7-2.4,8.6-2.9c0.3-1.2,0.5-2.1,0.5-2.1s-6.3,1.8-9.6,3.2
					c-3.3,1.4-3.5,7.7-3.5,7.7s0.3,0,0.7,0C225.9,102.1,226.7,99.2,228.8,98.2z"/>
				<path id="XMLID_78_" class="st9" d="M233.8,97.7c0,0-3.8,0.4-5.5,2c-1.7,1.5-3.2,4.2-3.2,4.2s2.7-3.1,3.9-3.7
					C230.1,99.5,233.8,97.7,233.8,97.7z"/>
			</g>
			<g id="圖層_1_拷貝_47_10_">
				<path id="XMLID_77_" class="st7" d="M225.2,109.2c0,0,1.4-6.1,5-7.1s10.2-2,10.2-2s-2.4,6.5-5.8,8.1
					C231.2,109.7,225.2,109.2,225.2,109.2z"/>
				<path id="XMLID_76_" class="st8" d="M230.3,103.9c2.7-0.8,7.1-1.6,9.2-1.9c0.6-1.2,0.9-2,0.9-2s-6.6,1-10.2,2s-5,7.1-5,7.1
					s0.3,0,0.7,0C226.6,107.3,228,104.5,230.3,103.9z"/>
				<path id="XMLID_75_" class="st9" d="M235.4,103.9c0,0-3.9,0-5.9,1.3c-2,1.3-4,3.8-4,3.8s3.4-2.7,4.6-3.2
					C231.3,105.3,235.4,103.9,235.4,103.9z"/>
				<path id="XMLID_74_" class="st7" d="M225.2,112c0,0,3.6-5.1,7.2-4.6c3.6,0.5,9.9,2.4,9.9,2.4s-4.6,5.1-8.3,5.2
					C230.3,115.1,225.2,112,225.2,112z"/>
				<path id="XMLID_73_" class="st8" d="M231.8,109.3c2.7,0.4,7,1.5,8.9,2.1c1-0.9,1.6-1.5,1.6-1.5s-6.3-1.8-9.9-2.4
					c-3.6-0.5-7.2,4.6-7.2,4.6s0.2,0.2,0.6,0.3C227.2,110.9,229.5,108.9,231.8,109.3z"/>
				<path id="XMLID_72_" class="st9" d="M236.3,111.4c0,0-3.4-1.7-5.7-1.3c-2.3,0.4-5,1.8-5,1.8s4.1-1.1,5.4-1.1
					C232.2,111,236.3,111.4,236.3,111.4z"/>
				<path id="XMLID_71_" class="st7" d="M222.7,115.5c0,0,4.5-4.3,7.9-3s9,4.5,9,4.5s-5.5,4-9,3.3
					C227,119.6,222.7,115.5,222.7,115.5z"/>
				<path id="XMLID_70_" class="st8" d="M229.7,114.2c2.5,1,6.4,3.1,8.1,4.1c1.1-0.6,1.8-1.2,1.8-1.2s-5.7-3.2-9-4.5s-7.9,3-7.9,3
					s0.2,0.2,0.5,0.5C224.9,114.8,227.5,113.3,229.7,114.2z"/>
				<path id="XMLID_69_" class="st9" d="M233.6,117.3c0,0-3-2.4-5.3-2.6c-2.3-0.1-5.2,0.7-5.2,0.7s4.1-0.2,5.4,0.1
					C229.7,115.9,233.6,117.3,233.6,117.3z"/>
			</g>
			<g id="圖層_1_拷貝_47_9_">
				<path id="XMLID_68_" class="st7" d="M219.6,118.7c0,0,5.7-2.8,8.7-0.6c3,2.1,8,6.7,8,6.7s-6.5,2.3-9.9,0.6
					C223,123.7,219.6,118.7,219.6,118.7z"/>
				<path id="XMLID_67_" class="st8" d="M226.9,119.4c2.3,1.6,5.7,4.6,7.2,5.9c1.3-0.3,2.1-0.6,2.1-0.6s-4.9-4.5-8-6.7
					c-3-2.1-8.7,0.6-8.7,0.6s0.2,0.2,0.4,0.6C221.9,118.7,224.9,118,226.9,119.4z"/>
				<path id="XMLID_66_" class="st9" d="M230.1,123.4c0,0-2.4-3.1-4.7-3.8s-5.4-0.8-5.4-0.8s4.2,0.9,5.4,1.6
					C226.5,121.1,230.1,123.4,230.1,123.4z"/>
				<path id="XMLID_65_" class="st7" d="M217.3,120.5c0,0,6.3-0.4,8.1,2.7c1.8,3.2,4.3,9.2,4.3,9.2s-6.9-0.4-9.2-3.2
					C218.2,126.4,217.3,120.5,217.3,120.5z"/>
				<path id="XMLID_64_" class="st8" d="M223.7,124c1.4,2.4,3.1,6.4,3.9,8.2c1.3,0.2,2.1,0.2,2.1,0.2s-2.5-6.1-4.3-9.2
					c-1.8-3.1-8.1-2.7-8.1-2.7s0.1,0.2,0.1,0.7C219.4,121.4,222.5,121.9,223.7,124z"/>
				<path id="XMLID_63_" class="st9" d="M224.8,128.8c0,0-0.8-3.7-2.6-5.3c-1.7-1.5-4.6-2.8-4.6-2.8s3.4,2.4,4.2,3.5
					C222.5,125.3,224.8,128.8,224.8,128.8z"/>
				<path id="XMLID_62_" class="st7" d="M213.1,120.8c0,0,6.2,0.9,7.2,4.3c1.1,3.4,2.1,9.9,2.1,9.9s-6.6-1.8-8.2-5
					C212.6,126.7,213.1,120.8,213.1,120.8z"/>
				<path id="XMLID_61_" class="st8" d="M218.5,125.4c0.8,2.6,1.6,6.9,2,8.9c1.2,0.5,2,0.7,2,0.7s-1.1-6.4-2.1-9.9
					c-1.1-3.4-7.2-4.3-7.2-4.3s0,0.3,0,0.7C215,122,217.8,123.1,218.5,125.4z"/>
				<path id="XMLID_60_" class="st9" d="M218.5,130.4c0,0,0-3.8-1.3-5.7c-1.4-1.9-3.9-3.6-3.9-3.6s2.8,3.1,3.3,4.3
					C217.1,126.5,218.5,130.4,218.5,130.4z"/>
			</g>
		</g>
		<g id="圖層_4_拷貝_45_4_" class="st6">
			<g id="圖層_1_拷貝_47_14_">
				<path id="XMLID_113_" class="st7" d="M116.2,160.9c0,0,5.6,2.8,5.8,6.5c0.1,3.8-0.4,10.4-0.4,10.4s-5.7-3.8-6.5-7.5
					C114.3,166.5,116.2,160.9,116.2,160.9z"/>
				<path id="XMLID_112_" class="st8" d="M120.1,167.1c0.1,2.8-0.2,7.4-0.4,9.4c1,0.8,1.7,1.3,1.7,1.3s0.6-6.7,0.4-10.4
					s-5.8-6.5-5.8-6.5s-0.1,0.2-0.2,0.7C117.6,162.7,120,164.7,120.1,167.1z"/>
				<path id="XMLID_111_" class="st9" d="M118.9,172c0,0,0.9-3.8,0.1-6c-0.8-2.3-2.7-4.8-2.7-4.8s1.9,3.9,2.1,5.2
					C118.5,167.7,118.9,172,118.9,172z"/>
				<path id="XMLID_110_" class="st7" d="M113.4,160.1c0,0,4.2,4.8,2.7,8.1s-4.7,9-4.7,9s-3.9-5.7-3.1-9.3
					C109.3,164.4,113.4,160.1,113.4,160.1z"/>
				<path id="XMLID_109_" class="st8" d="M114.5,167.3c-1.1,2.5-3.2,6.4-4.1,8.2c0.6,1.2,1.1,1.9,1.1,1.9s3.3-5.7,4.7-9
					c1.4-3.4-2.7-8.1-2.7-8.1s-0.2,0.2-0.5,0.5C114,162.3,115.4,165.1,114.5,167.3z"/>
				<path id="XMLID_108_" class="st9" d="M111.4,171.1c0,0,2.4-2.9,2.6-5.3c0.2-2.4-0.7-5.3-0.7-5.3s0.2,4.2-0.2,5.4
					C112.8,167.2,111.4,171.1,111.4,171.1z"/>
				<path id="XMLID_107_" class="st7" d="M110.6,156.9c0,0,3.1,5.4,1,8.4c-2.1,2.9-6.5,7.7-6.5,7.7s-2.6-6.3-1.1-9.6
					C105.6,160.2,110.6,156.9,110.6,156.9z"/>
				<path id="XMLID_106_" class="st8" d="M110.3,164c-1.6,2.2-4.5,5.5-5.8,7c0.4,1.2,0.7,2.1,0.7,2.1s4.4-4.8,6.5-7.7s-1-8.4-1-8.4
					s-0.2,0.1-0.6,0.4C110.8,159.2,111.6,162.1,110.3,164z"/>
				<path id="XMLID_105_" class="st9" d="M106.3,167.1c0,0,3.1-2.3,3.7-4.5c0.7-2.2,0.5-5.3,0.5-5.3s-0.7,4.1-1.4,5.2
					C108.5,163.6,106.3,167.1,106.3,167.1z"/>
			</g>
			<g id="圖層_1_拷貝_47_13_">
				<path id="XMLID_104_" class="st7" d="M107.6,152.8c0,0,2,5.9-0.6,8.7c-2.5,2.7-7.7,7-7.7,7s-1.3-6.7,0.7-9.9
					C102.3,155.5,107.6,152.8,107.6,152.8z"/>
				<path id="XMLID_103_" class="st8" d="M106,160c-1.9,2.1-5.3,5-6.9,6.4c0.1,1.3,0.3,2.2,0.3,2.2s5.1-4.3,7.7-7
					c2.5-2.7,0.6-8.7,0.6-8.7s-0.2,0.1-0.6,0.3C107.4,155.1,107.7,158.2,106,160z"/>
				<path id="XMLID_102_" class="st9" d="M101.7,162.5c0,0,3.3-2,4.4-4.1s1.4-5.3,1.4-5.3s-1.5,4.1-2.3,5.2S101.7,162.5,101.7,162.5
					z"/>
				<path id="XMLID_101_" class="st7" d="M106.2,150.3c0,0-0.4,6.3-3.8,7.7c-3.3,1.4-9.7,3.1-9.7,3.1s1.3-6.7,4.4-8.7
					C100.2,150.4,106.2,150.3,106.2,150.3z"/>
				<path id="XMLID_100_" class="st8" d="M102,156.1c-2.5,1-6.8,2.3-8.7,2.8c-0.4,1.3-0.5,2.1-0.5,2.1s6.3-1.7,9.7-3.1
					c3.3-1.4,3.8-7.7,3.8-7.7s-0.3,0-0.7,0C105,152.3,104.1,155.3,102,156.1z"/>
				<path id="XMLID_99_" class="st9" d="M97,156.6c0,0,3.8-0.3,5.6-1.8s3.4-4.2,3.4-4.2s-2.9,3.1-4,3.7
					C100.8,154.9,97,156.6,97,156.6z"/>
				<path id="XMLID_98_" class="st7" d="M106.5,146.1c0,0-1.7,6-5.2,6.6c-3.6,0.6-10.1,0.8-10.1,0.8s2.6-6.3,6-7.5
					C100.6,144.8,106.5,146.1,106.5,146.1z"/>
				<path id="XMLID_97_" class="st8" d="M101.2,150.9c-2.7,0.5-7.1,0.7-9.1,0.8c-0.6,1.1-0.9,2-0.9,2s6.5-0.2,10.1-0.8
					c3.6-0.6,5.2-6.6,5.2-6.6s-0.3,0-0.7-0.1C105,147.8,103.5,150.4,101.2,150.9z"/>
				<path id="XMLID_96_" class="st9" d="M96.3,150.2c0,0,3.8,0.5,5.8-0.6c2-1.1,4.1-3.3,4.1-3.3s-3.4,2.3-4.6,2.7
					C100.3,149.3,96.3,150.2,96.3,150.2z"/>
			</g>
			<g id="圖層_1_拷貝_47_12_">
				<path id="XMLID_95_" class="st7" d="M107.5,141.7c0,0-3.4,5.3-7.1,5c-3.7-0.3-10.3-1.6-10.3-1.6s4.4-5.3,8.2-5.6
					C102,139.2,107.5,141.7,107.5,141.7z"/>
				<path id="XMLID_94_" class="st8" d="M100.8,144.9c-2.8-0.2-7.3-1-9.2-1.3c-0.9,0.9-1.5,1.6-1.5,1.6s6.6,1.3,10.3,1.6
					c3.7,0.3,7.1-5,7.1-5s-0.2-0.1-0.7-0.3C105.5,143,103.3,145.1,100.8,144.9z"/>
				<path id="XMLID_93_" class="st9" d="M96.1,143.2c0,0,3.7,1.4,6,0.8c2.3-0.5,5.1-2.2,5.1-2.2s-4.1,1.4-5.4,1.5
					C100.4,143.3,96.1,143.2,96.1,143.2z"/>
				<path id="XMLID_92_" class="st7" d="M108.5,139c0,0-5.2,3.6-8.3,1.9c-3.2-1.8-8.5-5.6-8.5-5.6s6.1-3.2,9.5-2
					C104.7,134.4,108.5,139,108.5,139z"/>
				<path id="XMLID_91_" class="st8" d="M101.3,139.3c-2.4-1.3-6-3.8-7.6-5c-1.2,0.5-2,0.9-2,0.9s5.3,3.9,8.5,5.6s8.3-1.9,8.3-1.9
					s-0.2-0.2-0.4-0.6C106.2,139.4,103.4,140.5,101.3,139.3z"/>
				<path id="XMLID_90_" class="st9" d="M97.8,135.8c0,0,2.7,2.8,4.9,3.2c2.3,0.4,5.4,0,5.4,0s-4.2-0.3-5.4-0.8
					C101.6,137.6,97.8,135.8,97.8,135.8z"/>
				<path id="XMLID_89_" class="st7" d="M112,136.6c0,0-5.8,2.5-8.4,0.1c-2.7-2.4-7-7.3-7-7.3s6.5-1.9,9.6,0
					C109.3,131.3,112,136.6,112,136.6z"/>
				<path id="XMLID_88_" class="st8" d="M105,135.4c-2-1.8-5-5.1-6.3-6.6c-1.3,0.2-2.1,0.5-2.1,0.5s4.3,5,7,7.3
					c2.7,2.4,8.4-0.1,8.4-0.1s-0.1-0.2-0.3-0.6C109.7,136.5,106.7,137,105,135.4z"/>
				<path id="XMLID_87_" class="st9" d="M102.3,131.2c0,0,2,3.3,4.1,4.2c2.1,0.9,5.2,1.1,5.2,1.1s-4-1.2-5-2
					C105.6,133.8,102.3,131.2,102.3,131.2z"/>
			</g>
		</g>
		<g id="圖層_4_拷貝_45_8_" class="st6">
			<g id="圖層_1_拷貝_47_26_">
				<path id="XMLID_228_" class="st7" d="M65.6,129.9c0,0,2.4,5.8,0,8.7c-2.4,2.9-7.2,7.5-7.2,7.5s-1.7-6.7,0.2-9.9
					C60.4,132.8,65.6,129.9,65.6,129.9z"/>
				<path id="XMLID_227_" class="st8" d="M64.4,137.2c-1.8,2.2-5,5.4-6.5,6.8c0.2,1.3,0.4,2.1,0.4,2.1s4.9-4.6,7.2-7.5
					c2.3-2.9,0-8.7,0-8.7s-0.2,0.1-0.6,0.4C65.5,132.2,65.9,135.3,64.4,137.2z"/>
				<path id="XMLID_226_" class="st9" d="M60.2,140c0,0,3.2-2.2,4.1-4.4c0.9-2.2,1.1-5.4,1.1-5.4s-1.2,4.2-1.9,5.3
					C62.8,136.6,60.2,140,60.2,140z"/>
				<path id="XMLID_225_" class="st7" d="M64,127.5c0,0-0.1,6.3-3.3,7.9c-3.3,1.5-9.5,3.6-9.5,3.6s0.9-6.8,3.9-9
					C58.1,127.9,64,127.5,64,127.5z"/>
				<path id="XMLID_224_" class="st8" d="M60.1,133.6c-2.5,1.2-6.6,2.7-8.5,3.3c-0.3,1.3-0.4,2.1-0.4,2.1s6.2-2,9.5-3.6
					c3.3-1.6,3.3-7.9,3.3-7.9s-0.2,0-0.7,0.1C63,129.5,62.2,132.6,60.1,133.6z"/>
				<path id="XMLID_223_" class="st9" d="M55.2,134.3c0,0,3.8-0.6,5.5-2.2c1.7-1.6,3.1-4.4,3.1-4.4s-2.7,3.2-3.8,3.9
					C58.9,132.4,55.2,134.3,55.2,134.3z"/>
				<path id="XMLID_222_" class="st7" d="M64,123.3c0,0-1.3,6.1-4.8,6.9c-3.5,0.8-10,1.4-10,1.4s2.2-6.4,5.6-7.9
					C58.1,122.3,64,123.3,64,123.3z"/>
				<path id="XMLID_221_" class="st8" d="M59.1,128.3c-2.6,0.6-7,1.1-9,1.3c-0.5,1.2-0.8,2-0.8,2s6.5-0.6,10-1.4
					c3.5-0.8,4.8-6.9,4.8-6.9s-0.3,0-0.7-0.1C62.6,125,61.3,127.8,59.1,128.3z"/>
				<path id="XMLID_220_" class="st9" d="M54.1,127.9c0,0,3.8,0.3,5.8-0.9c2-1.2,3.9-3.6,3.9-3.6s-3.2,2.5-4.5,3
					C58.1,126.9,54.1,127.9,54.1,127.9z"/>
			</g>
			<g id="圖層_1_拷貝_47_25_">
				<path id="XMLID_219_" class="st7" d="M64.6,118.2c0,0-2.5,5.7-6.2,6.1c-3.7,0.4-10.4,0.2-10.4,0.2s3.5-5.9,7.1-6.9
					C58.8,116.6,64.6,118.2,64.6,118.2z"/>
				<path id="XMLID_218_" class="st8" d="M58.6,122.4c-2.8,0.3-7.3,0.2-9.4,0.2c-0.8,1-1.2,1.8-1.2,1.8s6.7,0.2,10.4-0.2
					c3.7-0.4,6.2-6.1,6.2-6.1s-0.3,0-0.7-0.2C62.9,119.7,61,122.2,58.6,122.4z"/>
				<path id="XMLID_217_" class="st9" d="M53.6,121.5c0,0,3.8,0.7,6-0.2c2.2-0.9,4.6-3,4.6-3s-3.8,2.1-5.1,2.3
					C57.8,120.9,53.6,121.5,53.6,121.5z"/>
				<path id="XMLID_216_" class="st7" d="M65.1,115.4c0,0-4.5,4.4-7.9,3.2c-3.4-1.2-9.3-4.1-9.3-4.1s5.5-4.1,9.1-3.6
					C60.7,111.5,65.1,115.4,65.1,115.4z"/>
				<path id="XMLID_215_" class="st8" d="M58.1,116.9c-2.6-0.9-6.6-2.8-8.4-3.7c-1.1,0.7-1.8,1.2-1.8,1.2s5.8,3,9.3,4.1
					c3.4,1.2,7.9-3.2,7.9-3.2s-0.2-0.2-0.6-0.5C63,116.1,60.3,117.7,58.1,116.9z"/>
				<path id="XMLID_214_" class="st9" d="M54.1,114c0,0,3.1,2.3,5.4,2.3c2.3,0.1,5.3-0.9,5.3-0.9s-4.2,0.4-5.5,0.1
					C58.1,115.2,54.1,114,54.1,114z"/>
				<path id="XMLID_213_" class="st7" d="M68.2,112.4c0,0-5.2,3.4-8.3,1.5c-3.1-1.9-8.1-6.1-8.1-6.1s6.1-3,9.5-1.6
					C64.7,107.6,68.2,112.4,68.2,112.4z"/>
				<path id="XMLID_212_" class="st8" d="M61.1,112.4c-2.3-1.4-5.8-4.2-7.3-5.5c-1.2,0.4-2,0.8-2,0.8s5,4.2,8.1,6.1
					c3.1,1.9,8.3-1.5,8.3-1.5s-0.2-0.2-0.4-0.6C66,112.7,63.1,113.7,61.1,112.4z"/>
				<path id="XMLID_211_" class="st9" d="M57.8,108.7c0,0,2.5,2.9,4.7,3.5c2.2,0.5,5.3,0.2,5.3,0.2s-4.1-0.5-5.3-1.1
					C61.4,110.7,57.8,108.7,57.8,108.7z"/>
			</g>
			<g id="圖層_1_拷貝_47_24_">
				<path id="XMLID_210_" class="st7" d="M71.9,109.8c0,0-6.1,1.7-8.7-1s-6.6-8-6.6-8s6.8-1,9.9,1.2
					C69.4,104.3,71.9,109.8,71.9,109.8z"/>
				<path id="XMLID_209_" class="st8" d="M64.7,107.8c-2-2-4.8-5.6-6-7.1c-1.3,0.1-2.2,0.2-2.2,0.2s4,5.4,6.6,8c2.6,2.7,8.7,1,8.7,1
					s-0.1-0.2-0.3-0.7C69.6,109.4,66.5,109.5,64.7,107.8z"/>
				<path id="XMLID_208_" class="st9" d="M62.4,103.3c0,0,1.8,3.5,3.9,4.6c2.1,1.1,5.2,1.8,5.2,1.8s-4-1.7-5-2.5
					C65.5,106.3,62.4,103.3,62.4,103.3z"/>
				<path id="XMLID_207_" class="st7" d="M74.4,108.4c0,0-6.3-0.8-7.5-4.1c-1.2-3.5-2.6-9.8-2.6-9.8s6.7,1.6,8.5,4.9
					C74.6,102.5,74.4,108.4,74.4,108.4z"/>
				<path id="XMLID_206_" class="st8" d="M68.8,103.9c-0.9-2.6-1.9-6.9-2.4-8.8c-1.2-0.5-2.1-0.6-2.1-0.6s1.4,6.4,2.6,9.8
					c1.3,3.4,7.5,4.1,7.5,4.1s0-0.2,0-0.7C72.5,107.2,69.6,106.2,68.8,103.9z"/>
				<path id="XMLID_205_" class="st9" d="M68.6,99c0,0,0.1,3.8,1.6,5.7c1.4,1.8,4,3.6,4,3.6s-2.9-3-3.5-4.2
					C70.1,102.8,68.6,99,68.6,99z"/>
				<path id="XMLID_204_" class="st7" d="M78.6,109c0,0-6-2-6.3-5.5c-0.4-3.6-0.3-10.1-0.3-10.1s6.1,2.9,7.2,6.4
					C80.1,103.2,78.6,109,78.6,109z"/>
				<path id="XMLID_203_" class="st8" d="M74.1,103.4c-0.3-2.7-0.3-7.1-0.3-9.1c-1.1-0.7-1.9-1.1-1.9-1.1s-0.1,6.5,0.3,10.1
					c0.4,3.6,6.3,5.5,6.3,5.5s0-0.3,0.2-0.7C77,107.4,74.4,105.8,74.1,103.4z"/>
				<path id="XMLID_202_" class="st9" d="M75,98.5c0,0-0.7,3.8,0.2,5.9c1,2.1,3.1,4.3,3.1,4.3s-2.2-3.5-2.4-4.8
					C75.7,102.6,75,98.5,75,98.5z"/>
			</g>
		</g>
		<g id="圖層_4_拷貝_45_5_" class="st6">
			<g id="圖層_1_拷貝_47_17_">
				<path id="XMLID_145_" class="st7" d="M156.8,77.5c0,0,5.6,2.8,5.8,6.5c0.1,3.8-0.4,10.4-0.4,10.4s-5.7-3.8-6.5-7.5
					C154.9,83.2,156.8,77.5,156.8,77.5z"/>
				<path id="XMLID_144_" class="st8" d="M160.8,83.8c0.1,2.8-0.2,7.4-0.4,9.4c1,0.8,1.7,1.3,1.7,1.3s0.6-6.7,0.4-10.4
					c-0.2-3.7-5.8-6.5-5.8-6.5s-0.1,0.2-0.2,0.7C158.3,79.4,160.6,81.4,160.8,83.8z"/>
				<path id="XMLID_143_" class="st9" d="M159.6,88.7c0,0,0.9-3.8,0.1-6c-0.8-2.3-2.7-4.8-2.7-4.8s1.9,3.9,2.1,5.2
					C159.2,84.4,159.6,88.7,159.6,88.7z"/>
				<path id="XMLID_142_" class="st7" d="M154,76.8c0,0,4.2,4.8,2.7,8.1c-1.4,3.3-4.7,9-4.7,9s-3.9-5.7-3.1-9.3
					C149.9,81.1,154,76.8,154,76.8z"/>
				<path id="XMLID_141_" class="st8" d="M155.2,83.9c-1.1,2.5-3.2,6.4-4.1,8.2c0.6,1.2,1.1,1.9,1.1,1.9s3.3-5.7,4.7-9
					s-2.7-8.1-2.7-8.1s-0.2,0.2-0.5,0.5C154.6,79,156.1,81.8,155.2,83.9z"/>
				<path id="XMLID_140_" class="st9" d="M152,87.8c0,0,2.4-2.9,2.6-5.3c0.2-2.4-0.7-5.3-0.7-5.3s0.2,4.2-0.2,5.4
					C153.5,83.9,152,87.8,152,87.8z"/>
				<path id="XMLID_139_" class="st7" d="M151.3,73.6c0,0,3.1,5.4,1,8.4c-2.1,2.9-6.5,7.7-6.5,7.7s-2.6-6.3-1.1-9.6
					C146.2,76.9,151.3,73.6,151.3,73.6z"/>
				<path id="XMLID_138_" class="st8" d="M150.9,80.7c-1.6,2.2-4.5,5.5-5.8,7c0.4,1.2,0.7,2.1,0.7,2.1s4.4-4.8,6.5-7.7
					c2.1-2.9-1-8.4-1-8.4s-0.2,0.1-0.6,0.4C151.4,75.9,152.2,78.8,150.9,80.7z"/>
				<path id="XMLID_137_" class="st9" d="M146.9,83.8c0,0,3.1-2.3,3.7-4.5c0.7-2.2,0.5-5.3,0.5-5.3s-0.7,4.1-1.4,5.2
					C149.2,80.3,146.9,83.8,146.9,83.8z"/>
			</g>
			<g id="圖層_1_拷貝_47_16_">
				<path id="XMLID_136_" class="st7" d="M153.6,76.7c0,0-4.7,4.1-8.2,2.8c-3.5-1.3-9.4-4.4-9.4-4.4s5.7-3.8,9.4-3.1
					C149,72.8,153.6,76.7,153.6,76.7z"/>
				<path id="XMLID_135_" class="st8" d="M146.3,77.9c-2.6-1-6.7-3-8.5-3.9c-1.1,0.6-1.9,1.1-1.9,1.1s5.9,3.1,9.4,4.4
					c3.5,1.3,8.2-2.8,8.2-2.8s-0.2-0.2-0.5-0.5C151.3,77.3,148.6,78.8,146.3,77.9z"/>
				<path id="XMLID_134_" class="st9" d="M142.3,74.9c0,0,3.1,2.3,5.5,2.5c2.4,0.1,5.5-0.7,5.5-0.7s-4.3,0.2-5.6-0.1
					S142.3,74.9,142.3,74.9z"/>
				<path id="XMLID_133_" class="st7" d="M155.3,74.4c0,0-6,2-8.5-0.5c-2.6-2.5-6.6-7.7-6.6-7.7s6.7-1.3,9.7,0.7
					C152.9,68.9,155.3,74.4,155.3,74.4z"/>
				<path id="XMLID_130_" class="st8" d="M148.3,72.7c-1.9-2-4.7-5.4-5.9-7c-1.3,0.2-2.2,0.3-2.2,0.3s4,5.2,6.6,7.7
					c2.6,2.5,8.5,0.5,8.5,0.5s-0.1-0.3-0.3-0.7C153,74.1,149.9,74.4,148.3,72.7z"/>
				<path id="XMLID_129_" class="st9" d="M145.9,68.3c0,0,1.8,3.4,3.8,4.4c2.1,1.1,5.2,1.5,5.2,1.5s-3.9-1.5-5-2.3
					C149,71.1,145.9,68.3,145.9,68.3z"/>
				<path id="XMLID_128_" class="st7" d="M159.3,73c0,0-6.2,0.8-8.1-2.3c-1.9-3-4.6-9-4.6-9s6.8,0,9.2,2.7
					C158.3,67.2,159.3,73,159.3,73z"/>
				<path id="XMLID_127_" class="st8" d="M152.9,70c-1.5-2.3-3.4-6.3-4.2-8.1c-1.3-0.1-2.2-0.1-2.2-0.1s2.7,6,4.6,9s8.1,2.3,8.1,2.3
					s-0.1-0.3-0.1-0.7C157.2,72.3,154.2,72,152.9,70z"/>
				<path id="XMLID_126_" class="st9" d="M151.6,65.2c0,0,1,3.7,2.7,5.2c1.8,1.4,4.6,2.5,4.6,2.5s-3.5-2.3-4.3-3.2
					C154,68.6,151.6,65.2,151.6,65.2z"/>
			</g>
			<g id="圖層_1_拷貝_47_15_">
				<path id="XMLID_124_" class="st7" d="M157,71.1c0,0,3.4-5.3,7.1-5c3.7,0.3,10.3,1.6,10.3,1.6s-4.4,5.3-8.2,5.6
					C162.4,73.6,157,71.1,157,71.1z"/>
				<path id="XMLID_122_" class="st8" d="M163.6,67.9c2.8,0.2,7.3,1,9.2,1.4c0.9-0.9,1.5-1.6,1.5-1.6s-6.6-1.3-10.3-1.6
					c-3.7-0.3-7.1,5-7.1,5s0.2,0.1,0.7,0.3C158.9,69.8,161.2,67.7,163.6,67.9z"/>
				<path id="XMLID_121_" class="st9" d="M168.4,69.6c0,0-3.7-1.4-6-0.8c-2.3,0.5-5.1,2.1-5.1,2.1s4.1-1.4,5.4-1.4
					C164.1,69.5,168.4,69.6,168.4,69.6z"/>
				<path id="XMLID_120_" class="st7" d="M156,73.8c0,0,5.2-3.6,8.4-1.9c3.2,1.8,8.4,5.6,8.4,5.6s-6.1,3.2-9.5,2
					C159.7,78.4,156,73.8,156,73.8z"/>
				<path id="XMLID_119_" class="st8" d="M163.2,73.5c2.4,1.4,6,3.9,7.6,5c1.2-0.5,2-0.9,2-0.9s-5.3-3.9-8.4-5.6
					c-3.2-1.7-8.4,1.9-8.4,1.9s0.2,0.2,0.4,0.6C158.2,73.4,161.1,72.3,163.2,73.5z"/>
				<path id="XMLID_118_" class="st9" d="M166.6,77c0,0-2.7-2.8-4.9-3.2c-2.3-0.4-5.4,0-5.4,0s4.2,0.3,5.4,0.8
					C162.9,75.2,166.6,77,166.6,77z"/>
				<path id="XMLID_117_" class="st7" d="M152.5,76.2c0,0,5.8-2.5,8.4-0.1c2.7,2.4,6.9,7.3,6.9,7.3s-6.5,1.9-9.6,0
					C155.2,81.5,152.5,76.2,152.5,76.2z"/>
				<path id="XMLID_116_" class="st8" d="M159.5,77.4c2,1.8,4.9,5.1,6.3,6.6c1.3-0.2,2.1-0.5,2.1-0.5s-4.3-5-6.9-7.3
					c-2.7-2.4-8.4,0.1-8.4,0.1s0.1,0.2,0.3,0.6C154.7,76.3,157.7,75.8,159.5,77.4z"/>
				<path id="XMLID_115_" class="st9" d="M162.1,81.6c0,0-2-3.3-4.1-4.2c-2.1-0.9-5.2-1.1-5.2-1.1s4,1.2,5,2
					C158.8,79,162.1,81.6,162.1,81.6z"/>
			</g>
		</g>
		<g id="圖層_4_拷貝_45_6_" class="st6">
			<g id="圖層_1_拷貝_47_20_">
				<path id="XMLID_172_" class="st7" d="M187.7,164.4c0,0,5.6,2.8,5.8,6.5c0.1,3.8-0.4,10.4-0.4,10.4s-5.7-3.8-6.5-7.5
					C185.8,170.1,187.7,164.4,187.7,164.4z"/>
				<path id="XMLID_171_" class="st8" d="M191.6,170.7c0.1,2.8-0.2,7.4-0.4,9.4c1,0.8,1.7,1.3,1.7,1.3s0.6-6.7,0.4-10.4
					c-0.2-3.7-5.8-6.5-5.8-6.5s-0.1,0.2-0.2,0.7C189.1,166.3,191.5,168.3,191.6,170.7z"/>
				<path id="XMLID_170_" class="st9" d="M190.4,175.6c0,0,0.9-3.8,0.1-6s-2.7-4.8-2.7-4.8s1.9,3.9,2.1,5.2
					C190,171.3,190.4,175.6,190.4,175.6z"/>
				<path id="XMLID_169_" class="st7" d="M184.9,163.7c0,0,4.2,4.8,2.7,8.1c-1.4,3.3-4.7,9-4.7,9s-3.9-5.7-3.1-9.3
					C180.8,168,184.9,163.7,184.9,163.7z"/>
				<path id="XMLID_168_" class="st8" d="M186,170.8c-1.1,2.5-3.2,6.4-4.1,8.2c0.6,1.2,1.1,1.9,1.1,1.9s3.3-5.7,4.7-9
					c1.4-3.4-2.7-8.1-2.7-8.1s-0.2,0.2-0.5,0.5C185.5,165.9,186.9,168.7,186,170.8z"/>
				<path id="XMLID_167_" class="st9" d="M182.9,174.7c0,0,2.4-2.9,2.6-5.3c0.2-2.4-0.7-5.3-0.7-5.3s0.2,4.2-0.2,5.4
					C184.3,170.8,182.9,174.7,182.9,174.7z"/>
				<path id="XMLID_166_" class="st7" d="M182.1,160.5c0,0,3.1,5.4,1,8.4c-2.1,2.9-6.5,7.7-6.5,7.7s-2.6-6.3-1.1-9.6
					C177.1,163.8,182.1,160.5,182.1,160.5z"/>
				<path id="XMLID_165_" class="st8" d="M181.8,167.6c-1.6,2.2-4.5,5.5-5.8,7c0.4,1.2,0.7,2.1,0.7,2.1s4.4-4.8,6.5-7.7
					c2.1-2.9-1-8.4-1-8.4s-0.2,0.1-0.6,0.4C182.3,162.8,183.1,165.7,181.8,167.6z"/>
				<path id="XMLID_164_" class="st9" d="M177.8,170.7c0,0,3.1-2.3,3.7-4.5c0.7-2.2,0.5-5.3,0.5-5.3s-0.7,4.1-1.4,5.2
					C180,167.2,177.8,170.7,177.8,170.7z"/>
			</g>
			<g id="圖層_1_拷貝_47_19_">
				<path id="XMLID_163_" class="st7" d="M184.4,163.6c0,0-4.7,4.1-8.2,2.8c-3.5-1.3-9.4-4.4-9.4-4.4s5.7-3.8,9.4-3.1
					C179.9,159.7,184.4,163.6,184.4,163.6z"/>
				<path id="XMLID_162_" class="st8" d="M177.2,164.8c-2.6-1-6.7-3-8.5-3.9c-1.1,0.6-1.9,1.1-1.9,1.1s5.9,3.1,9.4,4.4
					c3.5,1.3,8.2-2.8,8.2-2.8s-0.2-0.2-0.5-0.5C182.2,164.2,179.4,165.7,177.2,164.8z"/>
				<path id="XMLID_161_" class="st9" d="M173.1,161.8c0,0,3.1,2.3,5.5,2.5c2.4,0.1,5.5-0.7,5.5-0.7s-4.3,0.2-5.6-0.1
					C177.2,163.1,173.1,161.8,173.1,161.8z"/>
				<path id="XMLID_160_" class="st7" d="M186.1,161.3c0,0-6,2-8.5-0.5S171,153,171,153s6.7-1.3,9.7,0.7
					C183.8,155.8,186.1,161.3,186.1,161.3z"/>
				<path id="XMLID_159_" class="st8" d="M179.2,159.6c-1.9-2-4.7-5.4-5.9-7c-1.3,0.2-2.2,0.3-2.2,0.3s4,5.2,6.6,7.7
					c2.6,2.5,8.5,0.5,8.5,0.5s-0.1-0.3-0.3-0.7C183.9,161,180.8,161.3,179.2,159.6z"/>
				<path id="XMLID_158_" class="st9" d="M176.8,155.2c0,0,1.8,3.4,3.8,4.4c2.1,1.1,5.2,1.5,5.2,1.5s-3.9-1.5-5-2.3
					C179.9,158,176.8,155.2,176.8,155.2z"/>
				<path id="XMLID_157_" class="st7" d="M190.2,159.9c0,0-6.2,0.8-8.1-2.3s-4.6-9-4.6-9s6.8,0,9.2,2.7
					C189.1,154.1,190.2,159.9,190.2,159.9z"/>
				<path id="XMLID_156_" class="st8" d="M183.8,156.9c-1.5-2.3-3.4-6.3-4.2-8.1c-1.3-0.1-2.2-0.1-2.2-0.1s2.7,6,4.6,9
					c1.9,3,8.1,2.3,8.1,2.3s-0.1-0.3-0.1-0.7C188.1,159.2,185,158.9,183.8,156.9z"/>
				<path id="XMLID_155_" class="st9" d="M182.5,152.1c0,0,1,3.7,2.7,5.2c1.8,1.4,4.6,2.5,4.6,2.5s-3.5-2.3-4.3-3.2
					C184.8,155.5,182.5,152.1,182.5,152.1z"/>
			</g>
			<g id="圖層_1_拷貝_47_18_">
				<path id="XMLID_154_" class="st7" d="M187.8,158c0,0,3.4-5.3,7.1-5c3.7,0.3,10.3,1.6,10.3,1.6s-4.4,5.3-8.2,5.6
					C193.3,160.5,187.8,158,187.8,158z"/>
				<path id="XMLID_153_" class="st8" d="M194.5,154.8c2.8,0.2,7.3,1,9.2,1.4c0.9-0.9,1.5-1.6,1.5-1.6s-6.6-1.3-10.3-1.6
					c-3.7-0.3-7.1,5-7.1,5s0.2,0.1,0.7,0.3C189.8,156.7,192.1,154.6,194.5,154.8z"/>
				<path id="XMLID_152_" class="st9" d="M199.2,156.5c0,0-3.7-1.4-6-0.8s-5.1,2.1-5.1,2.1s4.1-1.4,5.4-1.4
					C195,156.4,199.2,156.5,199.2,156.5z"/>
				<path id="XMLID_151_" class="st7" d="M186.9,160.7c0,0,5.2-3.6,8.4-1.9c3.2,1.8,8.4,5.6,8.4,5.6s-6.1,3.2-9.5,2
					C190.6,165.3,186.9,160.7,186.9,160.7z"/>
				<path id="XMLID_150_" class="st8" d="M194.1,160.4c2.4,1.4,6,3.9,7.6,5c1.2-0.5,2-0.9,2-0.9s-5.3-3.9-8.4-5.6
					c-3.2-1.7-8.4,1.9-8.4,1.9s0.2,0.2,0.4,0.6C189.1,160.3,192,159.2,194.1,160.4z"/>
				<path id="XMLID_149_" class="st9" d="M197.5,163.9c0,0-2.7-2.8-4.9-3.2c-2.3-0.4-5.4,0-5.4,0s4.2,0.3,5.4,0.8
					C193.8,162.1,197.5,163.9,197.5,163.9z"/>
				<path id="XMLID_148_" class="st7" d="M183.3,163.1c0,0,5.8-2.5,8.4-0.1c2.7,2.4,6.9,7.3,6.9,7.3s-6.5,1.9-9.6,0
					C186,168.4,183.3,163.1,183.3,163.1z"/>
				<path id="XMLID_147_" class="st8" d="M190.4,164.3c2,1.8,4.9,5.1,6.3,6.6c1.3-0.2,2.1-0.5,2.1-0.5s-4.3-5-6.9-7.3
					c-2.7-2.4-8.4,0.1-8.4,0.1s0.1,0.2,0.3,0.6C185.6,163.2,188.6,162.7,190.4,164.3z"/>
				<path id="XMLID_146_" class="st9" d="M193,168.5c0,0-2-3.3-4.1-4.2c-2.1-0.9-5.2-1.1-5.2-1.1s4,1.2,5,2
					C189.7,165.9,193,168.5,193,168.5z"/>
			</g>
		</g>
		<g id="圖層_4_拷貝_45_12_" class="st6">
			<g id="圖層_1_拷貝_47_32_">
				<path id="XMLID_281_" class="st7" d="M187.7,164.4c0,0,5.6,2.8,5.8,6.5c0.1,3.8-0.4,10.4-0.4,10.4s-5.7-3.8-6.5-7.5
					C185.8,170.1,187.7,164.4,187.7,164.4z"/>
				<path id="XMLID_280_" class="st8" d="M191.6,170.7c0.1,2.8-0.2,7.4-0.4,9.4c1,0.8,1.7,1.3,1.7,1.3s0.6-6.7,0.4-10.4
					c-0.2-3.7-5.8-6.5-5.8-6.5s-0.1,0.2-0.2,0.7C189.1,166.3,191.5,168.3,191.6,170.7z"/>
				<path id="XMLID_279_" class="st9" d="M190.4,175.6c0,0,0.9-3.8,0.1-6s-2.7-4.8-2.7-4.8s1.9,3.9,2.1,5.2
					C190,171.3,190.4,175.6,190.4,175.6z"/>
				<path id="XMLID_278_" class="st7" d="M184.9,163.7c0,0,4.2,4.8,2.7,8.1c-1.4,3.3-4.7,9-4.7,9s-3.9-5.7-3.1-9.3
					C180.8,168,184.9,163.7,184.9,163.7z"/>
				<path id="XMLID_277_" class="st8" d="M186,170.8c-1.1,2.5-3.2,6.4-4.1,8.2c0.6,1.2,1.1,1.9,1.1,1.9s3.3-5.7,4.7-9
					c1.4-3.4-2.7-8.1-2.7-8.1s-0.2,0.2-0.5,0.5C185.5,165.9,186.9,168.7,186,170.8z"/>
				<path id="XMLID_276_" class="st9" d="M182.9,174.7c0,0,2.4-2.9,2.6-5.3c0.2-2.4-0.7-5.3-0.7-5.3s0.2,4.2-0.2,5.4
					C184.3,170.8,182.9,174.7,182.9,174.7z"/>
				<path id="XMLID_275_" class="st7" d="M182.1,160.5c0,0,3.1,5.4,1,8.4c-2.1,2.9-6.5,7.7-6.5,7.7s-2.6-6.3-1.1-9.6
					C177.1,163.8,182.1,160.5,182.1,160.5z"/>
				<path id="XMLID_274_" class="st8" d="M181.8,167.6c-1.6,2.2-4.5,5.5-5.8,7c0.4,1.2,0.7,2.1,0.7,2.1s4.4-4.8,6.5-7.7
					c2.1-2.9-1-8.4-1-8.4s-0.2,0.1-0.6,0.4C182.3,162.8,183.1,165.7,181.8,167.6z"/>
				<path id="XMLID_273_" class="st9" d="M177.8,170.7c0,0,3.1-2.3,3.7-4.5c0.7-2.2,0.5-5.3,0.5-5.3s-0.7,4.1-1.4,5.2
					C180,167.2,177.8,170.7,177.8,170.7z"/>
			</g>
			<g id="圖層_1_拷貝_47_31_">
				<path id="XMLID_272_" class="st7" d="M184.4,163.6c0,0-4.7,4.1-8.2,2.8c-3.5-1.3-9.4-4.4-9.4-4.4s5.7-3.8,9.4-3.1
					C179.9,159.7,184.4,163.6,184.4,163.6z"/>
				<path id="XMLID_271_" class="st8" d="M177.2,164.8c-2.6-1-6.7-3-8.5-3.9c-1.1,0.6-1.9,1.1-1.9,1.1s5.9,3.1,9.4,4.4
					c3.5,1.3,8.2-2.8,8.2-2.8s-0.2-0.2-0.5-0.5C182.2,164.2,179.4,165.7,177.2,164.8z"/>
				<path id="XMLID_270_" class="st9" d="M173.1,161.8c0,0,3.1,2.3,5.5,2.5c2.4,0.1,5.5-0.7,5.5-0.7s-4.3,0.2-5.6-0.1
					C177.2,163.1,173.1,161.8,173.1,161.8z"/>
				<path id="XMLID_269_" class="st7" d="M186.1,161.3c0,0-6,2-8.5-0.5S171,153,171,153s6.7-1.3,9.7,0.7
					C183.8,155.8,186.1,161.3,186.1,161.3z"/>
				<path id="XMLID_268_" class="st8" d="M179.2,159.6c-1.9-2-4.7-5.4-5.9-7c-1.3,0.2-2.2,0.3-2.2,0.3s4,5.2,6.6,7.7
					c2.6,2.5,8.5,0.5,8.5,0.5s-0.1-0.3-0.3-0.7C183.9,161,180.8,161.3,179.2,159.6z"/>
				<path id="XMLID_267_" class="st9" d="M176.8,155.2c0,0,1.8,3.4,3.8,4.4c2.1,1.1,5.2,1.5,5.2,1.5s-3.9-1.5-5-2.3
					C179.9,158,176.8,155.2,176.8,155.2z"/>
				<path id="XMLID_266_" class="st7" d="M190.2,159.9c0,0-6.2,0.8-8.1-2.3s-4.6-9-4.6-9s6.8,0,9.2,2.7
					C189.1,154.1,190.2,159.9,190.2,159.9z"/>
				<path id="XMLID_265_" class="st8" d="M183.8,156.9c-1.5-2.3-3.4-6.3-4.2-8.1c-1.3-0.1-2.2-0.1-2.2-0.1s2.7,6,4.6,9
					c1.9,3,8.1,2.3,8.1,2.3s-0.1-0.3-0.1-0.7C188.1,159.2,185,158.9,183.8,156.9z"/>
				<path id="XMLID_264_" class="st9" d="M182.5,152.1c0,0,1,3.7,2.7,5.2c1.8,1.4,4.6,2.5,4.6,2.5s-3.5-2.3-4.3-3.2
					C184.8,155.5,182.5,152.1,182.5,152.1z"/>
			</g>
			<g id="圖層_1_拷貝_47_30_">
				<path id="XMLID_263_" class="st7" d="M187.8,158c0,0,3.4-5.3,7.1-5c3.7,0.3,10.3,1.6,10.3,1.6s-4.4,5.3-8.2,5.6
					C193.3,160.5,187.8,158,187.8,158z"/>
				<path id="XMLID_259_" class="st8" d="M194.5,154.8c2.8,0.2,7.3,1,9.2,1.4c0.9-0.9,1.5-1.6,1.5-1.6s-6.6-1.3-10.3-1.6
					c-3.7-0.3-7.1,5-7.1,5s0.2,0.1,0.7,0.3C189.8,156.7,192.1,154.6,194.5,154.8z"/>
				<path id="XMLID_257_" class="st9" d="M199.2,156.5c0,0-3.7-1.4-6-0.8s-5.1,2.1-5.1,2.1s4.1-1.4,5.4-1.4
					C195,156.4,199.2,156.5,199.2,156.5z"/>
				<path id="XMLID_256_" class="st7" d="M186.9,160.7c0,0,5.2-3.6,8.4-1.9c3.2,1.8,8.4,5.6,8.4,5.6s-6.1,3.2-9.5,2
					C190.6,165.3,186.9,160.7,186.9,160.7z"/>
				<path id="XMLID_187_" class="st8" d="M194.1,160.4c2.4,1.4,6,3.9,7.6,5c1.2-0.5,2-0.9,2-0.9s-5.3-3.9-8.4-5.6
					c-3.2-1.7-8.4,1.9-8.4,1.9s0.2,0.2,0.4,0.6C189.1,160.3,192,159.2,194.1,160.4z"/>
				<path id="XMLID_186_" class="st9" d="M197.5,163.9c0,0-2.7-2.8-4.9-3.2c-2.3-0.4-5.4,0-5.4,0s4.2,0.3,5.4,0.8
					C193.8,162.1,197.5,163.9,197.5,163.9z"/>
				<path id="XMLID_185_" class="st7" d="M183.3,163.1c0,0,5.8-2.5,8.4-0.1c2.7,2.4,6.9,7.3,6.9,7.3s-6.5,1.9-9.6,0
					C186,168.4,183.3,163.1,183.3,163.1z"/>
				<path id="XMLID_4_" class="st8" d="M190.4,164.3c2,1.8,4.9,5.1,6.3,6.6c1.3-0.2,2.1-0.5,2.1-0.5s-4.3-5-6.9-7.3
					c-2.7-2.4-8.4,0.1-8.4,0.1s0.1,0.2,0.3,0.6C185.6,163.2,188.6,162.7,190.4,164.3z"/>
				<path id="XMLID_123_" class="st9" d="M193,168.5c0,0-2-3.3-4.1-4.2c-2.1-0.9-5.2-1.1-5.2-1.1s4,1.2,5,2
					C189.7,165.9,193,168.5,193,168.5z"/>
			</g>
		</g>
		<g id="圖層_4_拷貝_45_9_" class="st6">
			<g id="圖層_1_拷貝_47_27_">
				<path id="XMLID_237_" class="st7" d="M230.1,167.7c0,0,3.4-5.3,7.1-5c3.7,0.3,10.3,1.6,10.3,1.6s-4.4,5.3-8.2,5.6
					C235.5,170.3,230.1,167.7,230.1,167.7z"/>
				<path id="XMLID_236_" class="st8" d="M236.7,164.5c2.8,0.2,7.3,1,9.2,1.4c0.9-0.9,1.5-1.6,1.5-1.6s-6.6-1.3-10.3-1.6
					c-3.7-0.3-7.1,5-7.1,5s0.2,0.1,0.7,0.3C232,166.5,234.3,164.3,236.7,164.5z"/>
				<path id="XMLID_235_" class="st9" d="M241.5,166.3c0,0-3.7-1.4-6-0.8c-2.3,0.5-5.1,2.1-5.1,2.1s4.1-1.4,5.4-1.4
					C237.2,166.1,241.5,166.3,241.5,166.3z"/>
				<path id="XMLID_234_" class="st7" d="M229.1,170.4c0,0,5.2-3.6,8.4-1.9c3.2,1.8,8.4,5.6,8.4,5.6s-6.1,3.2-9.5,2
					C232.8,175,229.1,170.4,229.1,170.4z"/>
				<path id="XMLID_233_" class="st8" d="M236.3,170.1c2.4,1.4,6,3.9,7.6,5c1.2-0.5,2-0.9,2-0.9s-5.3-3.9-8.4-5.6
					c-3.2-1.7-8.4,1.9-8.4,1.9s0.2,0.2,0.4,0.6C231.3,170,234.2,168.9,236.3,170.1z"/>
				<path id="XMLID_232_" class="st9" d="M239.7,173.6c0,0-2.7-2.8-4.9-3.2s-5.4,0-5.4,0s4.2,0.3,5.4,0.8
					C236,171.8,239.7,173.6,239.7,173.6z"/>
				<path id="XMLID_231_" class="st7" d="M225.6,172.8c0,0,5.8-2.5,8.4-0.1c2.7,2.4,6.9,7.3,6.9,7.3s-6.5,1.9-9.6,0
					C228.3,178.1,225.6,172.8,225.6,172.8z"/>
				<path id="XMLID_230_" class="st8" d="M232.6,174c2,1.8,4.9,5.1,6.3,6.6c1.3-0.2,2.1-0.5,2.1-0.5s-4.3-5-6.9-7.3
					c-2.7-2.4-8.4,0.1-8.4,0.1s0.1,0.2,0.3,0.6C227.8,172.9,230.8,172.4,232.6,174z"/>
				<path id="XMLID_229_" class="st9" d="M235.2,178.2c0,0-2-3.3-4.1-4.2c-2.1-0.9-5.2-1.1-5.2-1.1s4,1.2,5,2
					S235.2,178.2,235.2,178.2z"/>
			</g>
		</g>
		<g id="圖層_4_拷貝_45_11_" class="st6">
			<g id="圖層_1_拷貝_47_29_">
				<path id="XMLID_255_" class="st7" d="M191,62.6c0,0-5.2-3.5-4.9-7.2s1.8-10.3,1.8-10.3s5.2,4.5,5.5,8.3
					C193.6,57.2,191,62.6,191,62.6z"/>
				<path id="XMLID_254_" class="st8" d="M187.9,55.9c0.3-2.8,1.1-7.3,1.5-9.2c-0.9-0.9-1.6-1.5-1.6-1.5s-1.5,6.6-1.8,10.3
					c-0.3,3.7,4.9,7.2,4.9,7.2s0.1-0.2,0.3-0.7C189.8,60.6,187.7,58.3,187.9,55.9z"/>
				<path id="XMLID_253_" class="st9" d="M189.7,51.2c0,0-1.4,3.6-0.9,6c0.5,2.3,2,5.1,2,5.1s-1.3-4.1-1.3-5.4
					C189.5,55.5,189.7,51.2,189.7,51.2z"/>
				<path id="XMLID_252_" class="st7" d="M193.6,63.6c0,0-3.5-5.3-1.7-8.4c1.8-3.2,5.8-8.3,5.8-8.3s3.1,6.1,1.8,9.6
					C198.3,60,193.6,63.6,193.6,63.6z"/>
				<path id="XMLID_251_" class="st8" d="M193.5,56.4c1.4-2.4,4-5.9,5.2-7.5c-0.4-1.2-0.9-2-0.9-2s-4,5.2-5.8,8.3
					c-1.8,3.1,1.7,8.4,1.7,8.4s0.2-0.2,0.6-0.4C193.3,61.4,192.3,58.5,193.5,56.4z"/>
				<path id="XMLID_250_" class="st9" d="M197.1,53.1c0,0-2.8,2.6-3.3,4.9c-0.5,2.3-0.1,5.4-0.1,5.4s0.4-4.2,0.9-5.4
					C195.2,56.8,197.1,53.1,197.1,53.1z"/>
				<path id="XMLID_249_" class="st7" d="M196,67.2c0,0-2.4-5.8,0.1-8.4c2.4-2.6,7.5-6.8,7.5-6.8s1.8,6.6-0.2,9.6
					C201.4,64.6,196,67.2,196,67.2z"/>
				<path id="XMLID_248_" class="st8" d="M197.3,60.2c1.9-2,5.2-4.8,6.7-6.2c-0.2-1.3-0.4-2.1-0.4-2.1s-5,4.2-7.5,6.8
					c-2.4,2.6-0.1,8.4-0.1,8.4s0.2-0.1,0.6-0.3C196.1,65,195.7,62,197.3,60.2z"/>
				<path id="XMLID_247_" class="st9" d="M201.6,57.7c0,0-3.3,1.9-4.3,4c-0.9,2.1-1.2,5.2-1.2,5.2s1.3-4,2.1-4.9
					C198.9,60.9,201.6,57.7,201.6,57.7z"/>
			</g>
		</g>
		<g id="圖層_4_拷貝_45_10_" class="st6">
			<g id="圖層_1_拷貝_47_28_">
				<path id="XMLID_246_" class="st7" d="M79.5,179.8c0,0,1.7,6.1-0.9,8.7c-2.6,2.6-8,6.7-8,6.7s-1.1-6.8,1.2-9.9
					C73.9,182.2,79.5,179.8,79.5,179.8z"/>
				<path id="XMLID_245_" class="st8" d="M77.5,186.9c-2,2-5.5,4.8-7.1,6c0.1,1.3,0.2,2.2,0.2,2.2s5.3-4.1,8-6.7s0.9-8.7,0.9-8.7
					s-0.2,0.1-0.7,0.3C79.1,182.1,79.2,185.2,77.5,186.9z"/>
				<path id="XMLID_244_" class="st9" d="M73,189.3c0,0,3.4-1.9,4.6-4s1.7-5.2,1.7-5.2s-1.7,4-2.5,5C76,186.2,73,189.3,73,189.3z"/>
				<path id="XMLID_243_" class="st7" d="M78.1,177.3c0,0-0.7,6.3-4.1,7.5c-3.4,1.2-9.8,2.7-9.8,2.7s1.6-6.7,4.8-8.5
					C72.2,177.1,78.1,177.3,78.1,177.3z"/>
				<path id="XMLID_242_" class="st8" d="M73.6,182.9c-2.6,0.9-6.9,2-8.8,2.4c-0.4,1.2-0.6,2.1-0.6,2.1s6.4-1.4,9.8-2.7
					c3.4-1.3,4.1-7.5,4.1-7.5s-0.2,0-0.7,0C76.9,179.2,75.8,182.1,73.6,182.9z"/>
				<path id="XMLID_241_" class="st9" d="M68.6,183.2c0,0,3.8-0.2,5.7-1.6c1.8-1.4,3.5-4,3.5-4s-3,2.9-4.2,3.5
					C72.5,181.6,68.6,183.2,68.6,183.2z"/>
				<path id="XMLID_240_" class="st7" d="M78.6,173.1c0,0-1.9,6-5.5,6.4c-3.6,0.5-10.1,0.4-10.1,0.4s2.9-6.1,6.4-7.2
					C72.8,171.6,78.6,173.1,78.6,173.1z"/>
				<path id="XMLID_239_" class="st8" d="M73.1,177.6c-2.7,0.3-7.1,0.3-9.1,0.4c-0.7,1.1-1.1,1.9-1.1,1.9s6.5,0.1,10.1-0.4
					c3.6-0.5,5.5-6.4,5.5-6.4s-0.3,0-0.7-0.2C77,174.7,75.4,177.3,73.1,177.6z"/>
				<path id="XMLID_238_" class="st9" d="M68.2,176.7c0,0,3.8,0.7,5.9-0.3c2.1-1,4.2-3.2,4.2-3.2s-3.5,2.2-4.8,2.5
					C72.3,176,68.2,176.7,68.2,176.7z"/>
			</g>
		</g>
	</g>
</g>
</svg>
