<?xml version="1.0" encoding="utf-8"?>
<!-- Generator: Adobe Illustrator 19.0.0, SVG Export Plug-In . SVG Version: 6.00 Build 0)  -->
<svg version="1.0" id="Calque_1" xmlns="http://www.w3.org/2000/svg" xmlns:xlink="http://www.w3.org/1999/xlink" x="0px" y="0px" width="1000px" height="1000px"
	 viewBox="350 -350 1000 1000" style="enable-background:new 350 -350 1000 1000;" xml:space="preserve">
<style type="text/css">
	.st0{display:none;fill:#00A651;stroke:#333333;stroke-width:7;stroke-miterlimit:10;}
	.st1{fill:url(#XMLID_2_);}
	.st2{fill:url(#XMLID_3_);}
	.st3{opacity:0.36;fill:#006838;enable-background:new    ;}
	.st4{fill:url(#XMLID_4_);}
	.st5{fill:url(#XMLID_5_);}
	.st6{fill:url(#XMLID_6_);}
	.st7{fill:url(#XMLID_7_);}
	.st8{fill:url(#XMLID_8_);}
	.st9{fill:url(#XMLID_9_);}
	.st10{fill:url(#XMLID_10_);}
	.st11{fill:url(#XMLID_11_);}
	.st12{fill:url(#XMLID_12_);}
	.st13{fill:url(#XMLID_13_);}
	.st14{fill:url(#XMLID_17_);}
	.st15{fill:url(#XMLID_18_);}
	.st16{fill:url(#XMLID_19_);}
	.st17{fill:url(#XMLID_20_);}
	.st18{fill:url(#XMLID_21_);}
	.st19{fill:url(#XMLID_22_);}
	.st20{fill:url(#XMLID_23_);}
	.st21{fill:url(#XMLID_24_);}
	.st22{fill:url(#XMLID_25_);}
	.st23{fill:url(#XMLID_26_);}
</style>
<g id="圖層_2">
	<rect id="XMLID_14_" x="350" y="-350" class="st0" width="1000" height="1000"/>
	
		<radialGradient id="XMLID_2_" cx="850" cy="150" r="329.9" gradientTransform="matrix(1 0 0 -1 0 300)" gradientUnits="userSpaceOnUse">
		<stop  offset="0" style="stop-color:#009444"/>
		<stop  offset="0.5121" style="stop-color:#009545"/>
		<stop  offset="0.722" style="stop-color:#009747"/>
		<stop  offset="0.8759" style="stop-color:#009C4B"/>
		<stop  offset="1" style="stop-color:#00A651"/>
	</radialGradient>
	<path id="XMLID_58_" class="st1" d="M850-179.9c-182.2,0-329.9,147.7-329.9,329.9S667.8,479.9,850,479.9s329.9-147.7,329.9-329.9
		S1032.2-179.9,850-179.9z M850,381.3c-127.8,0-231.3-103.6-231.3-231.3S722.2-81.3,850-81.3S1081.3,22.2,1081.3,150
		S977.8,381.3,850,381.3z"/>
	
		<radialGradient id="XMLID_3_" cx="850" cy="150" r="231.3" gradientTransform="matrix(1 0 0 -1 0 300)" gradientUnits="userSpaceOnUse">
		<stop  offset="0" style="stop-color:#8DC63F"/>
		<stop  offset="3.964734e-002" style="stop-color:#86C13F"/>
		<stop  offset="0.3194" style="stop-color:#5CAB43"/>
		<stop  offset="0.5812" style="stop-color:#379E44"/>
		<stop  offset="0.8158" style="stop-color:#109644"/>
		<stop  offset="1" style="stop-color:#009444"/>
	</radialGradient>
	<circle id="XMLID_54_" class="st2" cx="850" cy="150" r="231.3"/>
	<g id="圖層_3">
		<circle id="XMLID_15_" class="st3" cx="658.5" cy="102.1" r="7.1"/>
		<ellipse id="XMLID_55_" class="st3" cx="676" cy="71" rx="4.4" ry="4.1"/>
		<ellipse id="XMLID_16_" class="st3" cx="634.1" cy="8.9" rx="5.3" ry="5.1"/>
		<ellipse id="XMLID_59_" class="st3" cx="640.5" cy="77.9" rx="3" ry="2.8"/>
	</g>
	<g id="圖層_3_拷貝_2">
		<circle id="XMLID_67_" class="st3" cx="695.2" cy="259" r="7.1"/>
		<ellipse id="XMLID_66_" class="st3" cx="712.8" cy="228" rx="4.4" ry="4.1"/>
		<ellipse id="XMLID_65_" class="st3" cx="670.8" cy="165.8" rx="5.3" ry="5.1"/>
		<ellipse id="XMLID_64_" class="st3" cx="677.3" cy="234.9" rx="3" ry="2.8"/>
	</g>
	<g id="圖層_3_拷貝">
		<circle id="XMLID_63_" class="st3" cx="893.2" cy="320.8" r="7.1"/>
		<ellipse id="XMLID_62_" class="st3" cx="910.7" cy="289.8" rx="4.4" ry="4.1"/>
		<ellipse id="XMLID_61_" class="st3" cx="868.8" cy="227.6" rx="5.3" ry="5.1"/>
		<ellipse id="XMLID_60_" class="st3" cx="875.2" cy="296.7" rx="3" ry="2.8"/>
	</g>
	<g id="圖層_3_拷貝_5">
		<circle id="XMLID_99_" class="st3" cx="827" cy="23.9" r="7.1"/>
		<ellipse id="XMLID_98_" class="st3" cx="844.5" cy="-7.1" rx="4.4" ry="4.1"/>
		<ellipse id="XMLID_90_" class="st3" cx="802.6" cy="-69.3" rx="5.3" ry="5.1"/>
		<ellipse id="XMLID_76_" class="st3" cx="809" cy="-0.2" rx="3" ry="2.8"/>
	</g>
	<g id="圖層_3_拷貝_4">
		<circle id="XMLID_108_" class="st3" cx="863.7" cy="180.9" r="7.1"/>
		<ellipse id="XMLID_107_" class="st3" cx="881.2" cy="149.8" rx="4.4" ry="4.1"/>
		<ellipse id="XMLID_106_" class="st3" cx="839.3" cy="87.7" rx="5.3" ry="5.1"/>
		<ellipse id="XMLID_105_" class="st3" cx="845.7" cy="156.7" rx="3" ry="2.8"/>
	</g>
	<g id="圖層_3_拷貝_3">
		<circle id="XMLID_71_" class="st3" cx="1061.7" cy="242.7" r="7.1"/>
		<ellipse id="XMLID_70_" class="st3" cx="1079.2" cy="211.6" rx="4.4" ry="4.1"/>
		<ellipse id="XMLID_69_" class="st3" cx="1037.3" cy="149.5" rx="5.3" ry="5.1"/>
		<ellipse id="XMLID_68_" class="st3" cx="1043.7" cy="218.6" rx="3" ry="2.8"/>
	</g>
	<g id="圖層_3_拷貝_8">
		<circle id="XMLID_111_" class="st3" cx="790.3" cy="152.6" r="7.1"/>
		
			<ellipse id="XMLID_110_" transform="matrix(-0.9962 8.753471e-002 -8.753471e-002 -0.9962 1524.8884 208.9083)" class="st3" cx="757.9" cy="137.9" rx="4.1" ry="4.4"/>
		
			<ellipse id="XMLID_109_" transform="matrix(-0.9962 8.753471e-002 -8.753471e-002 -0.9962 1412.6753 308.1613)" class="st3" cx="699.6" cy="185.1" rx="5.1" ry="5.3"/>
		
			<ellipse id="XMLID_104_" transform="matrix(-0.9962 8.753471e-002 -8.753471e-002 -0.9962 1547.7897 277.4347)" class="st3" cx="767.8" cy="172.7" rx="2.8" ry="3"/>
	</g>
	<g id="圖層_3_拷貝_7">
		<circle id="XMLID_120_" class="st3" cx="943.4" cy="102.3" r="7.1"/>
		
			<ellipse id="XMLID_119_" transform="matrix(-0.9962 8.753471e-002 -8.753471e-002 -0.9962 1826.0139 95.0383)" class="st3" cx="910.9" cy="87.6" rx="4.1" ry="4.4"/>
		
			<ellipse id="XMLID_117_" transform="matrix(-0.9962 8.753471e-002 -8.753471e-002 -0.9962 1713.9989 194.2654)" class="st3" cx="852.7" cy="134.7" rx="5.1" ry="5.3"/>
		
			<ellipse id="XMLID_116_" transform="matrix(-0.9962 8.753471e-002 -8.753471e-002 -0.9962 1849.1133 163.5387)" class="st3" cx="921" cy="122.3" rx="2.8" ry="3"/>
	</g>
	<g id="圖層_3_拷貝_6">
		<circle id="XMLID_75_" class="st3" cx="987.6" cy="-100.3" r="7.1"/>
		
			<ellipse id="XMLID_74_" transform="matrix(-0.9962 8.753471e-002 -8.753471e-002 -0.9962 1896.5754 -313.3853)" class="st3" cx="955.2" cy="-115.1" rx="4.1" ry="4.4"/>
		
			<ellipse id="XMLID_73_" transform="matrix(-0.9962 8.753471e-002 -8.753471e-002 -0.9962 1784.5867 -213.9602)" class="st3" cx="897" cy="-67.9" rx="5.1" ry="5.3"/>
		
			<ellipse id="XMLID_72_" transform="matrix(-0.9962 8.753471e-002 -8.753471e-002 -0.9962 1919.6749 -244.8848)" class="st3" cx="965.2" cy="-80.4" rx="2.8" ry="3"/>
	</g>
	<g id="圖層_10">
		
			<linearGradient id="XMLID_4_" gradientUnits="userSpaceOnUse" x1="1103.1217" y1="-26.3" x2="1103.1217" y2="-70.2" gradientTransform="matrix(1 0 0 -1 0 300)">
			<stop  offset="0" style="stop-color:#8DC63F"/>
			<stop  offset="0.1447" style="stop-color:#87C540"/>
			<stop  offset="0.3381" style="stop-color:#75C044"/>
			<stop  offset="0.559" style="stop-color:#51B848"/>
			<stop  offset="0.7984" style="stop-color:#00AE4D"/>
			<stop  offset="1" style="stop-color:#00A651"/>
		</linearGradient>
		<path id="XMLID_139_" class="st4" d="M1096.2,326.3c2.9,2,7.8,6,11,12.8c6.9,14.7-0.8,29.3-1.8,31.1c0.7-5.1,1.1-12.6-0.6-21.4
			C1102.9,338.7,1099.1,331,1096.2,326.3z"/>
		
			<linearGradient id="XMLID_5_" gradientUnits="userSpaceOnUse" x1="1115.7642" y1="-15.4" x2="1115.7642" y2="-70.2" gradientTransform="matrix(1 0 0 -1 0 300)">
			<stop  offset="0" style="stop-color:#8DC63F"/>
			<stop  offset="0.1447" style="stop-color:#87C540"/>
			<stop  offset="0.3381" style="stop-color:#75C044"/>
			<stop  offset="0.559" style="stop-color:#51B848"/>
			<stop  offset="0.7984" style="stop-color:#00AE4D"/>
			<stop  offset="1" style="stop-color:#00A651"/>
		</linearGradient>
		<path id="XMLID_141_" class="st5" d="M1110,370.2c0,0,12.3-34,2.4-54.8c8.5,6.5,10.7,28.6,8.1,35.3
			C1117.9,357.5,1110,370.2,1110,370.2z"/>
		
			<linearGradient id="XMLID_6_" gradientUnits="userSpaceOnUse" x1="1131.7999" y1="-38.0406" x2="1131.8" y2="-74.6031" gradientTransform="matrix(1 0 0 -1 0 300)">
			<stop  offset="0" style="stop-color:#8DC63F"/>
			<stop  offset="0.1447" style="stop-color:#87C540"/>
			<stop  offset="0.3381" style="stop-color:#75C044"/>
			<stop  offset="0.559" style="stop-color:#51B848"/>
			<stop  offset="0.7984" style="stop-color:#00AE4D"/>
			<stop  offset="1" style="stop-color:#00A651"/>
		</linearGradient>
		<path id="XMLID_142_" class="st6" d="M1116.3,374.6c0,0,7.6-25.9,13.1-29.8c8.3-5.9,17.9-6.8,17.9-6.8S1123.6,350.9,1116.3,374.6z
			"/>
		
			<linearGradient id="XMLID_7_" gradientUnits="userSpaceOnUse" x1="1135.85" y1="-53.2906" x2="1135.85" y2="-78.7906" gradientTransform="matrix(1 0 0 -1 0 300)">
			<stop  offset="0" style="stop-color:#8DC63F"/>
			<stop  offset="0.1447" style="stop-color:#87C540"/>
			<stop  offset="0.3381" style="stop-color:#75C044"/>
			<stop  offset="0.559" style="stop-color:#51B848"/>
			<stop  offset="0.7984" style="stop-color:#00AE4D"/>
			<stop  offset="1" style="stop-color:#00A651"/>
		</linearGradient>
		<path id="XMLID_140_" class="st7" d="M1121.6,378.8c0,0,3.3-18.3,9.9-21.3s18.6-4.3,18.6-4.3s-17.6,5.5-21.3,10.4
			C1125.4,368.3,1121.6,378.8,1121.6,378.8z"/>
	</g>
	<g id="圖層_10_拷貝">
		
			<linearGradient id="XMLID_8_" gradientUnits="userSpaceOnUse" x1="896.2217" y1="103.1" x2="896.2217" y2="59.2" gradientTransform="matrix(1 0 0 -1 0 300)">
			<stop  offset="0" style="stop-color:#8DC63F"/>
			<stop  offset="0.1447" style="stop-color:#87C540"/>
			<stop  offset="0.3381" style="stop-color:#75C044"/>
			<stop  offset="0.559" style="stop-color:#51B848"/>
			<stop  offset="0.7984" style="stop-color:#00AE4D"/>
			<stop  offset="1" style="stop-color:#00A651"/>
		</linearGradient>
		<path id="XMLID_146_" class="st8" d="M889.3,196.9c2.9,2,7.8,6,11,12.8c6.9,14.7-0.8,29.3-1.8,31.1c0.7-5.1,1.1-12.6-0.6-21.4
			C896,209.2,892.2,201.6,889.3,196.9z"/>
		
			<linearGradient id="XMLID_9_" gradientUnits="userSpaceOnUse" x1="908.8641" y1="114.0338" x2="908.8641" y2="59.2338" gradientTransform="matrix(1 0 0 -1 0 300)">
			<stop  offset="0" style="stop-color:#8DC63F"/>
			<stop  offset="0.1447" style="stop-color:#87C540"/>
			<stop  offset="0.3381" style="stop-color:#75C044"/>
			<stop  offset="0.559" style="stop-color:#51B848"/>
			<stop  offset="0.7984" style="stop-color:#00AE4D"/>
			<stop  offset="1" style="stop-color:#00A651"/>
		</linearGradient>
		<path id="XMLID_145_" class="st9" d="M903.1,240.7c0,0,12.3-34,2.4-54.8c8.5,6.5,10.7,28.6,8.1,35.3
			C911,228.1,903.1,240.7,903.1,240.7z"/>
		
			<linearGradient id="XMLID_10_" gradientUnits="userSpaceOnUse" x1="924.9" y1="91.3999" x2="924.9001" y2="54.8374" gradientTransform="matrix(1 0 0 -1 0 300)">
			<stop  offset="0" style="stop-color:#8DC63F"/>
			<stop  offset="0.1447" style="stop-color:#87C540"/>
			<stop  offset="0.3381" style="stop-color:#75C044"/>
			<stop  offset="0.559" style="stop-color:#51B848"/>
			<stop  offset="0.7984" style="stop-color:#00AE4D"/>
			<stop  offset="1" style="stop-color:#00A651"/>
		</linearGradient>
		<path id="XMLID_144_" class="st10" d="M909.4,245.2c0,0,7.6-25.9,13.1-29.8c8.3-5.9,17.9-6.8,17.9-6.8S916.7,221.4,909.4,245.2z"
			/>
		
			<linearGradient id="XMLID_11_" gradientUnits="userSpaceOnUse" x1="928.95" y1="76.1588" x2="928.95" y2="50.6588" gradientTransform="matrix(1 0 0 -1 0 300)">
			<stop  offset="0" style="stop-color:#8DC63F"/>
			<stop  offset="0.1447" style="stop-color:#87C540"/>
			<stop  offset="0.3381" style="stop-color:#75C044"/>
			<stop  offset="0.559" style="stop-color:#51B848"/>
			<stop  offset="0.7984" style="stop-color:#00AE4D"/>
			<stop  offset="1" style="stop-color:#00A651"/>
		</linearGradient>
		<path id="XMLID_143_" class="st11" d="M914.7,249.3c0,0,3.3-18.3,9.9-21.3s18.6-4.3,18.6-4.3s-17.6,5.5-21.3,10.4
			C918.5,238.9,914.7,249.3,914.7,249.3z"/>
	</g>
	<g id="圖層_10_拷貝_3">
		
			<linearGradient id="XMLID_12_" gradientUnits="userSpaceOnUse" x1="540.2217" y1="237.1" x2="540.2217" y2="193.2" gradientTransform="matrix(1 0 0 -1 0 300)">
			<stop  offset="0" style="stop-color:#8DC63F"/>
			<stop  offset="0.1447" style="stop-color:#87C540"/>
			<stop  offset="0.3381" style="stop-color:#75C044"/>
			<stop  offset="0.559" style="stop-color:#51B848"/>
			<stop  offset="0.7984" style="stop-color:#00AE4D"/>
			<stop  offset="1" style="stop-color:#00A651"/>
		</linearGradient>
		<path id="XMLID_199_" class="st12" d="M533.3,62.9c2.9,2,7.8,6,11,12.8c6.9,14.7-0.8,29.3-1.8,31.1c0.7-5.1,1.1-12.6-0.6-21.4
			C540,75.3,536.2,67.6,533.3,62.9z"/>
		
			<linearGradient id="XMLID_13_" gradientUnits="userSpaceOnUse" x1="552.8641" y1="248" x2="552.8641" y2="193.2" gradientTransform="matrix(1 0 0 -1 0 300)">
			<stop  offset="0" style="stop-color:#8DC63F"/>
			<stop  offset="0.1447" style="stop-color:#87C540"/>
			<stop  offset="0.3381" style="stop-color:#75C044"/>
			<stop  offset="0.559" style="stop-color:#51B848"/>
			<stop  offset="0.7984" style="stop-color:#00AE4D"/>
			<stop  offset="1" style="stop-color:#00A651"/>
		</linearGradient>
		<path id="XMLID_198_" class="st13" d="M547.1,106.8c0,0,12.3-34,2.4-54.8c8.5,6.5,10.7,28.6,8.1,35.3
			C555,94,547.1,106.8,547.1,106.8z"/>
		
			<linearGradient id="XMLID_17_" gradientUnits="userSpaceOnUse" x1="568.9" y1="225.3463" x2="568.9" y2="188.7838" gradientTransform="matrix(1 0 0 -1 0 300)">
			<stop  offset="0" style="stop-color:#8DC63F"/>
			<stop  offset="0.1447" style="stop-color:#87C540"/>
			<stop  offset="0.3381" style="stop-color:#75C044"/>
			<stop  offset="0.559" style="stop-color:#51B848"/>
			<stop  offset="0.7984" style="stop-color:#00AE4D"/>
			<stop  offset="1" style="stop-color:#00A651"/>
		</linearGradient>
		<path id="XMLID_197_" class="st14" d="M553.4,111.2c0,0,7.6-25.9,13.1-29.8c8.3-5.9,17.9-6.8,17.9-6.8S560.7,87.5,553.4,111.2z"/>
		
			<linearGradient id="XMLID_18_" gradientUnits="userSpaceOnUse" x1="572.95" y1="210.0963" x2="572.95" y2="184.5963" gradientTransform="matrix(1 0 0 -1 0 300)">
			<stop  offset="0" style="stop-color:#8DC63F"/>
			<stop  offset="0.1447" style="stop-color:#87C540"/>
			<stop  offset="0.3381" style="stop-color:#75C044"/>
			<stop  offset="0.559" style="stop-color:#51B848"/>
			<stop  offset="0.7984" style="stop-color:#00AE4D"/>
			<stop  offset="1" style="stop-color:#00A651"/>
		</linearGradient>
		<path id="XMLID_192_" class="st15" d="M558.7,115.4c0,0,3.3-18.3,9.9-21.3s18.6-4.3,18.6-4.3s-17.6,5.5-21.3,10.4
			C562.5,104.9,558.7,115.4,558.7,115.4z"/>
	</g>
	<g id="圖層_10_拷貝_2">
		
			<linearGradient id="XMLID_19_" gradientUnits="userSpaceOnUse" x1="737.4217" y1="450.5" x2="737.4217" y2="406.6" gradientTransform="matrix(1 0 0 -1 0 300)">
			<stop  offset="0" style="stop-color:#8DC63F"/>
			<stop  offset="0.1447" style="stop-color:#87C540"/>
			<stop  offset="0.3381" style="stop-color:#75C044"/>
			<stop  offset="0.559" style="stop-color:#51B848"/>
			<stop  offset="0.7984" style="stop-color:#00AE4D"/>
			<stop  offset="1" style="stop-color:#00A651"/>
		</linearGradient>
		<path id="XMLID_191_" class="st16" d="M730.5-150.5c2.9,2,7.8,6,11,12.8c6.9,14.7-0.8,29.3-1.8,31.1c0.7-5.1,1.1-12.6-0.6-21.4
			C737.2-138.2,733.3-145.8,730.5-150.5z"/>
		
			<linearGradient id="XMLID_20_" gradientUnits="userSpaceOnUse" x1="750.0641" y1="461.4297" x2="750.0641" y2="406.6297" gradientTransform="matrix(1 0 0 -1 0 300)">
			<stop  offset="0" style="stop-color:#8DC63F"/>
			<stop  offset="0.1447" style="stop-color:#87C540"/>
			<stop  offset="0.3381" style="stop-color:#75C044"/>
			<stop  offset="0.559" style="stop-color:#51B848"/>
			<stop  offset="0.7984" style="stop-color:#00AE4D"/>
			<stop  offset="1" style="stop-color:#00A651"/>
		</linearGradient>
		<path id="XMLID_189_" class="st17" d="M744.3-106.7c0,0,12.3-34,2.4-54.8c8.5,6.5,10.7,28.6,8.1,35.3S744.3-106.7,744.3-106.7z"/>
		
			<linearGradient id="XMLID_21_" gradientUnits="userSpaceOnUse" x1="766.1" y1="438.8" x2="766.1" y2="402.2375" gradientTransform="matrix(1 0 0 -1 0 300)">
			<stop  offset="0" style="stop-color:#8DC63F"/>
			<stop  offset="0.1447" style="stop-color:#87C540"/>
			<stop  offset="0.3381" style="stop-color:#75C044"/>
			<stop  offset="0.559" style="stop-color:#51B848"/>
			<stop  offset="0.7984" style="stop-color:#00AE4D"/>
			<stop  offset="1" style="stop-color:#00A651"/>
		</linearGradient>
		<path id="XMLID_148_" class="st18" d="M750.6-102.2c0,0,7.6-25.9,13.1-29.8c8.3-5.9,17.9-6.8,17.9-6.8S757.8-126,750.6-102.2z"/>
		
			<linearGradient id="XMLID_22_" gradientUnits="userSpaceOnUse" x1="770.15" y1="423.5547" x2="770.15" y2="398.0547" gradientTransform="matrix(1 0 0 -1 0 300)">
			<stop  offset="0" style="stop-color:#8DC63F"/>
			<stop  offset="0.1447" style="stop-color:#87C540"/>
			<stop  offset="0.3381" style="stop-color:#75C044"/>
			<stop  offset="0.559" style="stop-color:#51B848"/>
			<stop  offset="0.7984" style="stop-color:#00AE4D"/>
			<stop  offset="1" style="stop-color:#00A651"/>
		</linearGradient>
		<path id="XMLID_147_" class="st19" d="M755.9-98.1c0,0,3.3-18.3,9.9-21.3s18.6-4.3,18.6-4.3s-17.6,5.5-21.3,10.4
			C759.7-108.5,755.9-98.1,755.9-98.1z"/>
		
			<linearGradient id="XMLID_23_" gradientUnits="userSpaceOnUse" x1="780.7217" y1="5.4" x2="780.7217" y2="-38.4999" gradientTransform="matrix(1 0 0 -1 0 300)">
			<stop  offset="0" style="stop-color:#8DC63F"/>
			<stop  offset="0.1447" style="stop-color:#87C540"/>
			<stop  offset="0.3381" style="stop-color:#75C044"/>
			<stop  offset="0.559" style="stop-color:#51B848"/>
			<stop  offset="0.7984" style="stop-color:#00AE4D"/>
			<stop  offset="1" style="stop-color:#00A651"/>
		</linearGradient>
		<path id="XMLID_196_" class="st20" d="M773.8,294.6c2.9,2,7.8,6,11,12.8c6.9,14.7-0.8,29.3-1.8,31.1c0.7-5.1,1.1-12.6-0.6-21.4
			C780.5,307,776.7,299.3,773.8,294.6z"/>
		
			<linearGradient id="XMLID_24_" gradientUnits="userSpaceOnUse" x1="793.3641" y1="16.3" x2="793.3641" y2="-38.5" gradientTransform="matrix(1 0 0 -1 0 300)">
			<stop  offset="0" style="stop-color:#8DC63F"/>
			<stop  offset="0.1447" style="stop-color:#87C540"/>
			<stop  offset="0.3381" style="stop-color:#75C044"/>
			<stop  offset="0.559" style="stop-color:#51B848"/>
			<stop  offset="0.7984" style="stop-color:#00AE4D"/>
			<stop  offset="1" style="stop-color:#00A651"/>
		</linearGradient>
		<path id="XMLID_195_" class="st21" d="M787.6,338.5c0,0,12.3-34,2.4-54.8c8.5,6.5,10.7,28.6,8.1,35.3
			C795.5,325.7,787.6,338.5,787.6,338.5z"/>
		
			<linearGradient id="XMLID_25_" gradientUnits="userSpaceOnUse" x1="809.4" y1="-6.3531" x2="809.4" y2="-42.9156" gradientTransform="matrix(1 0 0 -1 0 300)">
			<stop  offset="0" style="stop-color:#8DC63F"/>
			<stop  offset="0.1447" style="stop-color:#87C540"/>
			<stop  offset="0.3381" style="stop-color:#75C044"/>
			<stop  offset="0.559" style="stop-color:#51B848"/>
			<stop  offset="0.7984" style="stop-color:#00AE4D"/>
			<stop  offset="1" style="stop-color:#00A651"/>
		</linearGradient>
		<path id="XMLID_194_" class="st22" d="M793.9,342.9c0,0,7.6-25.9,13.1-29.8c8.3-5.9,17.9-6.8,17.9-6.8S801.2,319.2,793.9,342.9z"
			/>
		
			<linearGradient id="XMLID_26_" gradientUnits="userSpaceOnUse" x1="813.45" y1="-21.6031" x2="813.45" y2="-47.1031" gradientTransform="matrix(1 0 0 -1 0 300)">
			<stop  offset="0" style="stop-color:#8DC63F"/>
			<stop  offset="0.1447" style="stop-color:#87C540"/>
			<stop  offset="0.3381" style="stop-color:#75C044"/>
			<stop  offset="0.559" style="stop-color:#51B848"/>
			<stop  offset="0.7984" style="stop-color:#00AE4D"/>
			<stop  offset="1" style="stop-color:#00A651"/>
		</linearGradient>
		<path id="XMLID_193_" class="st23" d="M799.2,347.1c0,0,3.3-18.3,9.9-21.3c6.6-3,18.6-4.3,18.6-4.3s-17.6,5.5-21.3,10.4
			C803,336.6,799.2,347.1,799.2,347.1z"/>
	</g>
</g>
</svg>
