<?xml version="1.0" encoding="utf-8"?>
<!-- Generator: Adobe Illustrator 19.0.0, SVG Export Plug-In . SVG Version: 6.00 Build 0)  -->
<svg version="1.1" xmlns="http://www.w3.org/2000/svg" xmlns:xlink="http://www.w3.org/1999/xlink" x="0px" y="0px" width="1000px" height="1000px"
	 viewBox="0 0 1000 1000" style="enable-background:new 0 0 1000 1000;" xml:space="preserve">
<style type="text/css">
	.st0{fill:url(#XMLID_2_);}
	.st1{fill:url(#XMLID_3_);}
	.st2{fill:url(#XMLID_4_);}
	.st3{fill:url(#XMLID_5_);}
	.st4{fill:url(#XMLID_6_);}
	.st5{fill:url(#XMLID_7_);}
	.st6{fill:url(#XMLID_8_);}
	.st7{fill:url(#XMLID_9_);}
	.st8{fill:url(#XMLID_10_);}
	.st9{fill:url(#XMLID_11_);}
	.st10{fill:url(#XMLID_12_);}
	.st11{fill:url(#XMLID_13_);}
	.st12{fill:url(#XMLID_14_);}
	.st13{fill:url(#XMLID_15_);}
	.st14{fill:url(#XMLID_16_);}
	.st15{fill:url(#XMLID_17_);}
	.st16{fill:url(#XMLID_18_);}
	.st17{fill:url(#XMLID_19_);}
	.st18{fill:url(#XMLID_20_);}
	.st19{fill:url(#XMLID_25_);}
</style>
<g id="Calque_9">
	<g id="圖層_10_拷貝_3_2_">
		
			<linearGradient id="XMLID_2_" gradientUnits="userSpaceOnUse" x1="195.9859" y1="577.485" x2="195.9859" y2="532.31" gradientTransform="matrix(1 0 0 -1 0 1000.11)">
			<stop  offset="0" style="stop-color:#8FC044"/>
			<stop  offset="0.1447" style="stop-color:#89BF45"/>
			<stop  offset="0.3381" style="stop-color:#7ABA48"/>
			<stop  offset="0.559" style="stop-color:#59B24B"/>
			<stop  offset="0.7984" style="stop-color:#25A94F"/>
			<stop  offset="1" style="stop-color:#08A651"/>
		</linearGradient>
		<path id="XMLID_24_" class="st0" d="M193.8,422.6c2.9,2,3.4,7.1,4.4,14.3c1.8,10.6-3.6,29-4.6,30.8c0.7-5.1,2.8-12.8,1.1-21.6
			C192.7,436.1,196.6,427.3,193.8,422.6z"/>
		
			<linearGradient id="XMLID_3_" gradientUnits="userSpaceOnUse" x1="208.1194" y1="584.61" x2="208.1194" y2="532.31" gradientTransform="matrix(1 0 0 -1 0 1000.11)">
			<stop  offset="0" style="stop-color:#8FC044"/>
			<stop  offset="0.1447" style="stop-color:#89BF45"/>
			<stop  offset="0.3381" style="stop-color:#7ABA48"/>
			<stop  offset="0.559" style="stop-color:#59B24B"/>
			<stop  offset="0.7984" style="stop-color:#25A94F"/>
			<stop  offset="1" style="stop-color:#08A651"/>
		</linearGradient>
		<path id="XMLID_23_" class="st1" d="M198.1,467.8c0,0,18.4-31.8,17.1-52.3c7.6,10.5-2,28.9-4.6,35.6S198.1,467.8,198.1,467.8z"/>
		
			<linearGradient id="XMLID_4_" gradientUnits="userSpaceOnUse" x1="221.6375" y1="560.8396" x2="221.6375" y2="527.8954" gradientTransform="matrix(1 0 0 -1 0 1000.11)">
			<stop  offset="0" style="stop-color:#8FC044"/>
			<stop  offset="0.1447" style="stop-color:#89BF45"/>
			<stop  offset="0.3381" style="stop-color:#7ABA48"/>
			<stop  offset="0.559" style="stop-color:#59B24B"/>
			<stop  offset="0.7984" style="stop-color:#25A94F"/>
			<stop  offset="1" style="stop-color:#08A651"/>
		</linearGradient>
		<path id="XMLID_22_" class="st2" d="M204.4,472.2c0,0,7.1-23.1,16.3-28.1c8.3-5.9,18.2-4.8,18.2-4.8s-8.2,3.1-16.3,9.8
			C215.7,454.8,209.1,461.4,204.4,472.2z"/>
		
			<linearGradient id="XMLID_5_" gradientUnits="userSpaceOnUse" x1="225.1937" y1="545.6899" x2="225.1937" y2="523.7068" gradientTransform="matrix(1 0 0 -1 0 1000.11)">
			<stop  offset="0" style="stop-color:#8FC044"/>
			<stop  offset="0.1447" style="stop-color:#89BF45"/>
			<stop  offset="0.3381" style="stop-color:#7ABA48"/>
			<stop  offset="0.559" style="stop-color:#59B24B"/>
			<stop  offset="0.7984" style="stop-color:#25A94F"/>
			<stop  offset="1" style="stop-color:#08A651"/>
		</linearGradient>
		<path id="XMLID_21_" class="st3" d="M209.7,476.4c0,0,3.6-17,10.2-20s20.8-1.8,20.8-1.8s-18.8,2.4-22.5,7.3
			C214.7,466.5,209.7,476.4,209.7,476.4z"/>
	</g>
</g>
<g id="Calque_9_-_copie">
	<g id="圖層_10_拷貝_3_6_">
		
			<linearGradient id="XMLID_6_" gradientUnits="userSpaceOnUse" x1="393.1859" y1="790.985" x2="393.1859" y2="745.81" gradientTransform="matrix(1 0 0 -1 0 1000.11)">
			<stop  offset="0" style="stop-color:#8FC044"/>
			<stop  offset="0.1447" style="stop-color:#89BF45"/>
			<stop  offset="0.3381" style="stop-color:#7ABA48"/>
			<stop  offset="0.559" style="stop-color:#59B24B"/>
			<stop  offset="0.7984" style="stop-color:#25A94F"/>
			<stop  offset="1" style="stop-color:#08A651"/>
		</linearGradient>
		<path id="XMLID_72_" class="st4" d="M391,209.1c2.9,2,3.4,7.1,4.3,14.3c1.8,10.6-3.6,29-4.6,30.8c0.7-5.1,2.8-12.8,1.1-21.6
			C389.9,222.6,393.8,213.8,391,209.1z"/>
		
			<linearGradient id="XMLID_7_" gradientUnits="userSpaceOnUse" x1="405.3194" y1="798.11" x2="405.3194" y2="745.81" gradientTransform="matrix(1 0 0 -1 0 1000.11)">
			<stop  offset="0" style="stop-color:#8FC044"/>
			<stop  offset="0.1447" style="stop-color:#89BF45"/>
			<stop  offset="0.3381" style="stop-color:#7ABA48"/>
			<stop  offset="0.559" style="stop-color:#59B24B"/>
			<stop  offset="0.7984" style="stop-color:#25A94F"/>
			<stop  offset="1" style="stop-color:#08A651"/>
		</linearGradient>
		<path id="XMLID_71_" class="st5" d="M395.3,254.3c0,0,18.4-31.8,17.2-52.3c7.6,10.5-2,28.9-4.6,35.6
			C405.3,244.3,395.3,254.3,395.3,254.3z"/>
		
			<linearGradient id="XMLID_8_" gradientUnits="userSpaceOnUse" x1="418.8375" y1="774.3396" x2="418.8375" y2="741.3954" gradientTransform="matrix(1 0 0 -1 0 1000.11)">
			<stop  offset="0" style="stop-color:#8FC044"/>
			<stop  offset="0.1447" style="stop-color:#89BF45"/>
			<stop  offset="0.3381" style="stop-color:#7ABA48"/>
			<stop  offset="0.559" style="stop-color:#59B24B"/>
			<stop  offset="0.7984" style="stop-color:#25A94F"/>
			<stop  offset="1" style="stop-color:#08A651"/>
		</linearGradient>
		<path id="XMLID_70_" class="st6" d="M401.6,258.7c0,0,7.1-23.1,16.3-28.1c8.3-5.9,18.2-4.8,18.2-4.8s-8.2,3.1-16.3,9.8
			C412.9,241.3,406.3,247.9,401.6,258.7z"/>
		
			<linearGradient id="XMLID_9_" gradientUnits="userSpaceOnUse" x1="422.3937" y1="759.1899" x2="422.3937" y2="737.2068" gradientTransform="matrix(1 0 0 -1 0 1000.11)">
			<stop  offset="0" style="stop-color:#8FC044"/>
			<stop  offset="0.1447" style="stop-color:#89BF45"/>
			<stop  offset="0.3381" style="stop-color:#7ABA48"/>
			<stop  offset="0.559" style="stop-color:#59B24B"/>
			<stop  offset="0.7984" style="stop-color:#25A94F"/>
			<stop  offset="1" style="stop-color:#08A651"/>
		</linearGradient>
		<path id="XMLID_69_" class="st7" d="M406.9,262.9c0,0,3.6-17,10.2-20c6.6-3,20.8-1.8,20.8-1.8s-18.8,2.4-22.5,7.3
			C411.9,253,406.9,262.9,406.9,262.9z"/>
	</g>
</g>
<g id="Calque_9_-_copie_2">
	<g id="圖層_10_拷貝_3_10_">
		
			<linearGradient id="XMLID_10_" gradientUnits="userSpaceOnUse" x1="551.9859" y1="443.585" x2="551.9859" y2="398.41" gradientTransform="matrix(1 0 0 -1 0 1000.11)">
			<stop  offset="0" style="stop-color:#8FC044"/>
			<stop  offset="0.1447" style="stop-color:#89BF45"/>
			<stop  offset="0.3381" style="stop-color:#7ABA48"/>
			<stop  offset="0.559" style="stop-color:#59B24B"/>
			<stop  offset="0.7984" style="stop-color:#25A94F"/>
			<stop  offset="1" style="stop-color:#08A651"/>
		</linearGradient>
		<path id="XMLID_88_" class="st8" d="M549.8,556.5c2.9,2,3.4,7.1,4.3,14.3c1.8,10.6-3.6,29-4.6,30.8c0.7-5.1,2.8-12.8,1.1-21.6
			C548.7,570,552.6,561.2,549.8,556.5z"/>
		
			<linearGradient id="XMLID_11_" gradientUnits="userSpaceOnUse" x1="564.1194" y1="450.71" x2="564.1194" y2="398.41" gradientTransform="matrix(1 0 0 -1 0 1000.11)">
			<stop  offset="0" style="stop-color:#8FC044"/>
			<stop  offset="0.1447" style="stop-color:#89BF45"/>
			<stop  offset="0.3381" style="stop-color:#7ABA48"/>
			<stop  offset="0.559" style="stop-color:#59B24B"/>
			<stop  offset="0.7984" style="stop-color:#25A94F"/>
			<stop  offset="1" style="stop-color:#08A651"/>
		</linearGradient>
		<path id="XMLID_87_" class="st9" d="M554.1,601.7c0,0,18.4-31.8,17.2-52.3c7.6,10.5-2,28.9-4.6,35.6
			C564.1,591.7,554.1,601.7,554.1,601.7z"/>
		
			<linearGradient id="XMLID_12_" gradientUnits="userSpaceOnUse" x1="577.6375" y1="426.9396" x2="577.6375" y2="393.9954" gradientTransform="matrix(1 0 0 -1 0 1000.11)">
			<stop  offset="0" style="stop-color:#8FC044"/>
			<stop  offset="0.1447" style="stop-color:#89BF45"/>
			<stop  offset="0.3381" style="stop-color:#7ABA48"/>
			<stop  offset="0.559" style="stop-color:#59B24B"/>
			<stop  offset="0.7984" style="stop-color:#25A94F"/>
			<stop  offset="1" style="stop-color:#08A651"/>
		</linearGradient>
		<path id="XMLID_86_" class="st10" d="M560.4,606.1c0,0,7.1-23.1,16.3-28.1c8.3-5.9,18.2-4.8,18.2-4.8s-8.2,3.1-16.3,9.8
			C571.7,588.7,565.1,595.3,560.4,606.1z"/>
		
			<linearGradient id="XMLID_13_" gradientUnits="userSpaceOnUse" x1="581.1937" y1="411.7899" x2="581.1937" y2="389.8068" gradientTransform="matrix(1 0 0 -1 0 1000.11)">
			<stop  offset="0" style="stop-color:#8FC044"/>
			<stop  offset="0.1447" style="stop-color:#89BF45"/>
			<stop  offset="0.3381" style="stop-color:#7ABA48"/>
			<stop  offset="0.559" style="stop-color:#59B24B"/>
			<stop  offset="0.7984" style="stop-color:#25A94F"/>
			<stop  offset="1" style="stop-color:#08A651"/>
		</linearGradient>
		<path id="XMLID_85_" class="st11" d="M565.7,610.3c0,0,3.6-17,10.2-20c6.6-3,20.8-1.8,20.8-1.8s-18.8,2.3-22.5,7.3
			C570.7,600.4,565.7,610.3,565.7,610.3z"/>
	</g>
</g>
<g id="Calque_9_-_copie_3">
	<g id="圖層_10_拷貝_3_14_">
		
			<linearGradient id="XMLID_14_" gradientUnits="userSpaceOnUse" x1="436.4859" y1="345.785" x2="436.4859" y2="300.61" gradientTransform="matrix(1 0 0 -1 0 1000.11)">
			<stop  offset="0" style="stop-color:#8FC044"/>
			<stop  offset="0.1447" style="stop-color:#89BF45"/>
			<stop  offset="0.3381" style="stop-color:#7ABA48"/>
			<stop  offset="0.559" style="stop-color:#59B24B"/>
			<stop  offset="0.7984" style="stop-color:#25A94F"/>
			<stop  offset="1" style="stop-color:#08A651"/>
		</linearGradient>
		<path id="XMLID_104_" class="st12" d="M434.3,654.3c2.9,2,3.4,7.1,4.3,14.3c1.8,10.6-3.6,29-4.6,30.8c0.7-5.1,2.8-12.8,1.1-21.6
			C433.2,667.8,437.1,659,434.3,654.3z"/>
		
			<linearGradient id="XMLID_15_" gradientUnits="userSpaceOnUse" x1="448.6194" y1="352.9099" x2="448.6194" y2="300.61" gradientTransform="matrix(1 0 0 -1 0 1000.11)">
			<stop  offset="0" style="stop-color:#8FC044"/>
			<stop  offset="0.1447" style="stop-color:#89BF45"/>
			<stop  offset="0.3381" style="stop-color:#7ABA48"/>
			<stop  offset="0.559" style="stop-color:#59B24B"/>
			<stop  offset="0.7984" style="stop-color:#25A94F"/>
			<stop  offset="1" style="stop-color:#08A651"/>
		</linearGradient>
		<path id="XMLID_103_" class="st13" d="M438.6,699.5c0,0,18.4-31.8,17.2-52.3c7.6,10.5-2,28.9-4.6,35.6
			C448.6,689.5,438.6,699.5,438.6,699.5z"/>
		
			<linearGradient id="XMLID_16_" gradientUnits="userSpaceOnUse" x1="462.1375" y1="329.1396" x2="462.1375" y2="296.1954" gradientTransform="matrix(1 0 0 -1 0 1000.11)">
			<stop  offset="0" style="stop-color:#8FC044"/>
			<stop  offset="0.1447" style="stop-color:#89BF45"/>
			<stop  offset="0.3381" style="stop-color:#7ABA48"/>
			<stop  offset="0.559" style="stop-color:#59B24B"/>
			<stop  offset="0.7984" style="stop-color:#25A94F"/>
			<stop  offset="1" style="stop-color:#08A651"/>
		</linearGradient>
		<path id="XMLID_102_" class="st14" d="M444.9,703.9c0,0,7.1-23.1,16.3-28.1c8.3-5.9,18.2-4.8,18.2-4.8s-8.2,3.1-16.3,9.8
			C456.2,686.5,449.6,693.1,444.9,703.9z"/>
		
			<linearGradient id="XMLID_17_" gradientUnits="userSpaceOnUse" x1="465.6937" y1="313.9899" x2="465.6937" y2="292.0068" gradientTransform="matrix(1 0 0 -1 0 1000.11)">
			<stop  offset="0" style="stop-color:#8FC044"/>
			<stop  offset="0.1447" style="stop-color:#89BF45"/>
			<stop  offset="0.3381" style="stop-color:#7ABA48"/>
			<stop  offset="0.559" style="stop-color:#59B24B"/>
			<stop  offset="0.7984" style="stop-color:#25A94F"/>
			<stop  offset="1" style="stop-color:#08A651"/>
		</linearGradient>
		<path id="XMLID_101_" class="st15" d="M450.2,708.1c0,0,3.6-17,10.2-20c6.6-3,20.8-1.8,20.8-1.8s-18.8,2.4-22.5,7.3
			C455.2,698.2,450.2,708.1,450.2,708.1z"/>
	</g>
</g>
<g id="Calque_9_-_copie_4">
	<g id="圖層_10_拷貝_3_18_">
		
			<linearGradient id="XMLID_18_" gradientUnits="userSpaceOnUse" x1="758.8859" y1="314.085" x2="758.8859" y2="268.91" gradientTransform="matrix(1 0 0 -1 0 1000.11)">
			<stop  offset="0" style="stop-color:#8FC044"/>
			<stop  offset="0.1447" style="stop-color:#89BF45"/>
			<stop  offset="0.3381" style="stop-color:#7ABA48"/>
			<stop  offset="0.559" style="stop-color:#59B24B"/>
			<stop  offset="0.7984" style="stop-color:#25A94F"/>
			<stop  offset="1" style="stop-color:#08A651"/>
		</linearGradient>
		<path id="XMLID_120_" class="st16" d="M756.7,686c2.9,2,3.4,7.1,4.3,14.3c1.8,10.6-3.6,29-4.6,30.8c0.7-5.1,2.8-12.8,1.1-21.6
			C755.6,699.5,759.5,690.7,756.7,686z"/>
		
			<linearGradient id="XMLID_19_" gradientUnits="userSpaceOnUse" x1="771.0194" y1="321.21" x2="771.0194" y2="268.91" gradientTransform="matrix(1 0 0 -1 0 1000.11)">
			<stop  offset="0" style="stop-color:#8FC044"/>
			<stop  offset="0.1447" style="stop-color:#89BF45"/>
			<stop  offset="0.3381" style="stop-color:#7ABA48"/>
			<stop  offset="0.559" style="stop-color:#59B24B"/>
			<stop  offset="0.7984" style="stop-color:#25A94F"/>
			<stop  offset="1" style="stop-color:#08A651"/>
		</linearGradient>
		<path id="XMLID_119_" class="st17" d="M761,731.2c0,0,18.4-31.8,17.2-52.3c7.6,10.5-2,28.9-4.6,35.6
			C771,721.2,761,731.2,761,731.2z"/>
		
			<linearGradient id="XMLID_20_" gradientUnits="userSpaceOnUse" x1="784.5375" y1="297.4396" x2="784.5375" y2="264.4954" gradientTransform="matrix(1 0 0 -1 0 1000.11)">
			<stop  offset="0" style="stop-color:#8FC044"/>
			<stop  offset="0.1447" style="stop-color:#89BF45"/>
			<stop  offset="0.3381" style="stop-color:#7ABA48"/>
			<stop  offset="0.559" style="stop-color:#59B24B"/>
			<stop  offset="0.7984" style="stop-color:#25A94F"/>
			<stop  offset="1" style="stop-color:#08A651"/>
		</linearGradient>
		<path id="XMLID_118_" class="st18" d="M767.3,735.6c0,0,7.1-23.1,16.3-28.1c8.3-5.9,18.2-4.8,18.2-4.8s-8.2,3.1-16.3,9.8
			C778.6,718.2,772,724.8,767.3,735.6z"/>
		
			<linearGradient id="XMLID_25_" gradientUnits="userSpaceOnUse" x1="788.0938" y1="282.2899" x2="788.0938" y2="260.3068" gradientTransform="matrix(1 0 0 -1 0 1000.11)">
			<stop  offset="0" style="stop-color:#8FC044"/>
			<stop  offset="0.1447" style="stop-color:#89BF45"/>
			<stop  offset="0.3381" style="stop-color:#7ABA48"/>
			<stop  offset="0.559" style="stop-color:#59B24B"/>
			<stop  offset="0.7984" style="stop-color:#25A94F"/>
			<stop  offset="1" style="stop-color:#08A651"/>
		</linearGradient>
		<path id="XMLID_117_" class="st19" d="M772.6,739.8c0,0,3.6-17,10.2-20c6.6-3,20.8-1.8,20.8-1.8s-18.8,2.3-22.5,7.3
			C777.6,729.9,772.6,739.8,772.6,739.8z"/>
	</g>
</g>
</svg>
