<?xml version="1.0" encoding="utf-8"?>
<!-- Generator: Adobe Illustrator 19.0.0, SVG Export Plug-In . SVG Version: 6.00 Build 0)  -->
<svg version="1.0" id="圖層_1" xmlns="http://www.w3.org/2000/svg" xmlns:xlink="http://www.w3.org/1999/xlink" x="0px" y="0px" width="300px" height="260px"
	 viewBox="0 0 300 260" style="enable-background:new 0 0 300 260;" xml:space="preserve">
<style type="text/css">
	.st0{display:none;fill:#FECE63;stroke:#000000;stroke-miterlimit:10;}
	.st1{display:none;}
	.st2{display:inline;}
	.st3{fill:none;stroke:#333333;stroke-width:7;stroke-miterlimit:10;}
	.st4{opacity:0.7;}
	.st5{fill:#966E49;stroke:#000000;stroke-width:2;stroke-miterlimit:10;}
	.st6{fill:#A97D51;}
	.st7{fill:none;stroke:#595A5C;stroke-width:2;stroke-miterlimit:10;}
	.st8{fill:#6E6F72;}
	.st9{opacity:0.61;fill:#E7E7E7;enable-background:new    ;}
	.st10{opacity:0.3;fill:#010101;enable-background:new    ;}
	.st11{opacity:0.3;fill:#FFFFFF;enable-background:new    ;}
	.st12{opacity:0.21;fill:#010101;enable-background:new    ;}
	.st13{opacity:0.52;fill:url(#XMLID_36_);enable-background:new    ;}
	.st14{opacity:0.46;fill:url(#XMLID_37_);enable-background:new    ;}
	.st15{opacity:0.18;fill:#FFFFFF;enable-background:new    ;}
	.st16{fill:#DD8C3B;stroke:#000000;stroke-miterlimit:10;}
	.st17{opacity:0.11;fill:#FFFFFF;}
	.st18{opacity:0.32;fill:#303030;}
	.st19{fill:none;stroke:#4C2E15;stroke-width:0.5;stroke-miterlimit:10;}
	.st20{fill:none;stroke:#4C2F17;stroke-miterlimit:10;}
	.st21{opacity:0.34;fill:#293A1A;}
	.st22{fill:url(#XMLID_38_);stroke:#000000;stroke-width:1.5;stroke-miterlimit:10;}
	.st23{opacity:0.67;fill:#009447;}
	.st24{opacity:0.82;fill:none;stroke:#245429;stroke-width:1.5;stroke-miterlimit:10;}
	.st25{fill:none;stroke:#293A1A;stroke-width:1.5;stroke-miterlimit:10;}
	.st26{fill:url(#XMLID_39_);stroke:#000000;stroke-width:1.5;stroke-miterlimit:10;}
	.st27{fill:url(#XMLID_40_);stroke:#000000;stroke-width:1.5;stroke-miterlimit:10;}
	.st28{fill:url(#XMLID_53_);stroke:#000000;stroke-width:1.5;stroke-miterlimit:10;}
	.st29{fill:url(#XMLID_54_);stroke:#000000;stroke-width:1.5;stroke-miterlimit:10;}
</style>
<rect id="background" x="1.1" y="-0.1" class="st0" width="300" height="260"/>
<g id="normalCell" class="st1">
	<g id="XMLID_3_" class="st2">
		<path id="XMLID_282_" class="st3" d="M210.6,256.7L90,256.5c-9.4,0-18.2-4.9-22.8-12.8L7,142.3c-4.7-8-4.7-17.7,0-25.7L67.4,15.1
			c4.8-8,13.5-12.8,22.9-12.8l120.6,0.2c9.4,0,18.2,4.9,22.8,12.8l60.2,101.4c4.7,8,4.7,17.7,0,25.7l-60.4,101.4
			C228.7,251.8,220,256.7,210.6,256.7z"/>
	</g>
</g>
<g id="Calque_7">
	<g id="圖層_7">
		<g id="圖層_11" class="st4">
			<g id="圖層_8_拷貝">
				<path id="XMLID_47_" class="st5" d="M90.3,151.4c-3.7,1.8-8,2.2-12.5,1.4c-5.8-1.8-14.4-5-12.8-12c0.8-6.4,2.1-11.2,2.4-17.2
					c1.4-7.4,7.3-12.1,13.6-14.5c1.4-0.6,2.7-1,4-1.3c2.6-0.6,5.2-0.6,7.6,0.3c1.4,0.5,2.8,1.3,3.4,2.6c0.9,1.8-0.2,3.7-2.1,5
					c-2.7,1.3-6.3,4.5-3,7.4c3.2,3.7,8.4,4.6,10.9,9.3C106.2,141.1,96.6,147,90.3,151.4"/>
			</g>
			<g id="圖層_8_拷貝_2">
				<path id="XMLID_23_" class="st6" d="M89.4,148.7c-3.2,1.6-6.9,1.9-10.8,1.2c-5-1.6-12.5-4.3-11.1-10.4c0.7-5.5,1.8-9.7,2.1-14.9
					c1.2-6.4,6.3-10.5,11.8-12.7c1.2-0.5,2.3-0.9,3.5-1.1c2.2-0.5,4.5-0.4,6.6,0.2c1.2,0.4,2.4,1.1,3,2.3c0.8,1.6-0.2,3.3-1.8,4.3
					c-2.3,1.1-5.6,3.9-2.6,6.4c2.7,3.2,7.2,4,9.5,8.1C103.2,139.8,94.9,145,89.4,148.7"/>
			</g>
		</g>
		<g id="圖層_2_拷貝_2">
			<path id="XMLID_52_" class="st7" d="M73,155.8c0,0,0.8,0.9,0.2,2.2c-0.7,1.5-3.3,5.3-3.6,5.9c-0.1,0-0.1,0.1-0.1,0.1
				c-0.1,0.3-0.9,1.5-3.3,1.3c-1.9-0.2-3.8-0.2-4.8-0.2c-0.6,0-1.2-0.4-1.5-0.9c-0.1-0.1-0.1-0.2-0.1-0.3c-0.5-1.1-2.5-7.1-3-8.3
				c-0.1-0.1-0.1-0.3-0.2-0.4c-0.2-0.4-0.6-1.2,0.7-2.1c1.6-1.2,3.5-2.2,3.5-2.2s0.7-0.5,1.6-0.4c0.8,0.1,6.9,2.6,7.6,2.9
				c0,0.1,0.1,0,0.1,0.1C70.4,153.5,71.5,153.8,73,155.8z"/>
			<path id="XMLID_51_" class="st8" d="M73,155.8c0,0,0.8,0.9,0.2,2.2c-0.7,1.5-3.3,5.3-3.6,5.9c-0.1,0-0.1,0.1-0.1,0.1
				c-0.1,0.3-0.9,1.5-3.3,1.3c-1.9-0.2-3.8-0.2-4.8-0.2c-0.6,0-1.2-0.4-1.5-0.9c-0.1-0.1-0.1-0.2-0.1-0.3c-0.5-1.1-2.5-7.1-3-8.3
				c-0.1-0.1-0.1-0.3-0.2-0.4c-0.2-0.4-0.6-1.2,0.7-2.1c1.6-1.2,3.5-2.2,3.5-2.2s0.7-0.5,1.6-0.4c0.8,0.1,6.9,2.6,7.6,2.9
				c0,0.1,0.1,0,0.1,0.1C70.4,153.5,71.5,153.8,73,155.8z"/>
			<path id="XMLID_50_" class="st9" d="M65.6,155.4l-0.6,1.8c0,0-0.2,0.3-0.5,0.3c-0.4-0.1-3.3-1-3.3-1l3.4,1.4c0,0,0.3,0.1,0.8,1
				c0.6,0.8,1.2,1.6,1.2,1.6s-1.6-2.3-1.5-2.8C65.1,157.3,65.6,155.4,65.6,155.4z"/>
			<path id="XMLID_49_" class="st10" d="M61.4,165c0.9,0,2.9,0,4.8,0.2c2.4,0.3,3.1-0.9,3.3-1.3c0.1,0,0.1-0.1,0.1-0.1
				c0.4-0.6,3-4.4,3.6-5.9c0.6-1.3-0.2-2.2-0.2-2.2l0,0l-0.2,0.5c0,0-1.2,3.8-4.9,5.3c-3.8,1.5-7.2,1.6-8.4,1.3
				c0,0.1-0.1,0.1-0.1,0.2c0.1,0.2,0.1,0.3,0.2,0.5l0,0.1c0,0.1,0,0.1,0.1,0.1l0,0.1c0,0.1,0.1,0.1,0.1,0.1c0.1,0.1,0.1,0.2,0.1,0.3
				C60.1,164.7,60.7,165,61.4,165z"/>
			<path id="XMLID_48_" class="st11" d="M69.5,153.2c-0.6-0.2-1.5-0.6-2.6-1l0,0c-0.1,0-0.2-0.1-0.3-0.1l0,0l-0.1,0.2l-1.6,5.8
				l4.2,6.5c0.1,0,0.1-0.1,0.1-0.2l0,0c0.1,0,0.1-0.1,0.1-0.1l0,0c0.1,0,0.1,0,0-0.1l0,0c0,0,0.1,0,0-0.1c0.1,0,0.1-0.1,0.1-0.1
				c0.4-0.6,3-4.4,3.6-5.9c0.6-1.3-0.2-2.2-0.2-2.2c-1.5-1.9-2.6-2.3-2.8-2.4c0-0.1-0.1,0-0.1-0.1C69.9,153.3,69.8,153.2,69.5,153.2
				C69.6,153.2,69.5,153.2,69.5,153.2z"/>
			<path id="XMLID_13_" class="st12" d="M59.7,154.3l1.5-3.7c-0.3,0.1-0.4,0.2-0.4,0.2s-1.8,1-3.5,2.2c-0.4,0.3-0.6,0.5-0.7,0.7
				L59.7,154.3z"/>
			
				<linearGradient id="XMLID_36_" gradientUnits="userSpaceOnUse" x1="-439.4302" y1="637.8343" x2="-439.4302" y2="630.1759" gradientTransform="matrix(-0.7883 0.6153 0.6153 0.7883 -673.3558 -75.4262)">
				<stop  offset="0" style="stop-color:#FFFFFF"/>
				<stop  offset="3.264958e-002" style="stop-color:#FFFFFF;stop-opacity:0.9674"/>
				<stop  offset="1" style="stop-color:#FFFFFF;stop-opacity:0"/>
			</linearGradient>
			<path id="XMLID_12_" class="st13" d="M65.1,157l0.2-0.8c0,0,1-3.5,1.2-3.9c0.1-0.2,0-0.3,0-0.4c-1.8-0.7-3.7-1.4-4.1-1.5
				c-0.5,0-0.9,0.1-1.2,0.2l0,0c0,0-1,2.6-1.5,3.7c-0.4,1.1-0.1,1.6-0.1,1.6s3.6,1.3,4.4,1.6C65,157.8,65.1,157,65.1,157z"/>
			
				<linearGradient id="XMLID_37_" gradientUnits="userSpaceOnUse" x1="-436.4712" y1="631.712" x2="-432.8162" y2="631.712" gradientTransform="matrix(-0.7883 0.6153 0.6153 0.7883 -673.3558 -75.4262)">
				<stop  offset="1.065275e-007" style="stop-color:#010101"/>
				<stop  offset="1" style="stop-color:#010101;stop-opacity:0"/>
			</linearGradient>
			<path id="XMLID_43_" class="st14" d="M59.7,154.3l-3.1-0.5l0,0c-0.4,0.6-0.1,1.1,0.1,1.4c0,0.1,0.1,0.3,0.2,0.4
				c0.1,0.3,0.5,1.3,0.6,1.9c0.7,0,1.1-0.3,1.6-0.9c0.2-0.3,0.5-0.7,0.4-1.2C59.4,154.9,59.7,154.3,59.7,154.3z"/>
			<path id="XMLID_42_" class="st15" d="M58.2,156.7c0,0,0,0.2-0.2,0.2c-0.1,0-0.2,0-0.2,0C57.9,156.8,58,156.6,58.2,156.7
				C58.2,156.6,58.2,156.7,58.2,156.7z"/>
			<path id="XMLID_41_" class="st15" d="M59.1,154c0,0-0.2,0.1-0.3-0.1s-0.1-0.2-0.1-0.2c0.1,0,0.3,0,0.4,0.1
				C59.2,153.9,59.1,154,59.1,154z"/>
			<path id="XMLID_32_" class="st15" d="M62.3,163.3c0,0,0,0.1-0.1,0.3c-0.1,0.1-0.3,0.1-0.2,0c0-0.1,0.1-0.3,0.2-0.3
				C62.3,163.2,62.3,163.3,62.3,163.3z"/>
			<path id="XMLID_11_" class="st15" d="M64.8,158.5C64.8,158.5,64.9,158.5,64.8,158.5C64.8,158.6,64.8,158.6,64.8,158.5
				C64.7,158.6,64.8,158.5,64.8,158.5L64.8,158.5z"/>
		</g>
	</g>
	<g id="Calque_14">
		<path id="XMLID_30_" class="st16" d="M78,139.1c0,0-9-19.9,5.7-24.3s30.6-4,39.9-0.2s33.6,2,34,9.9c0.3,7.9-14.7,19.2-26,17.7
			c-11.3-1.5-20.1,1.6-30.9,1.9C90.9,144.4,80.6,145.4,78,139.1z"/>
		<path id="XMLID_29_" class="st17" d="M83.7,114.8C69,119.2,78,139.1,78,139.1c1.6,3.8,5.8,4.9,11,5.2c-5.4-11.1-3.1-22.7,0-30.9
			C87.2,113.8,85.4,114.2,83.7,114.8z"/>
		<path id="XMLID_10_" class="st18" d="M125.7,113.7c-7.1-2.9-17.4-4-28.4-1.8c5.9,7,12.6,14.9,16.8,15.8c0,0-11.2,8.1-19.5,16.2
			c2.5,0,5.4-0.5,8.2-0.6c10.8-0.3,19.5-3.4,30.9-1.9c11.3,1.5,26.3-9.8,26-17.7S135,117.5,125.7,113.7z"/>
		<path id="XMLID_9_" class="st18" d="M130.2,113.7c-7.1-2.9-17.4-4-28.4-1.8c5.9,7,12.6,14.9,16.8,15.8c0,0-11.1,7.6-19.4,15.8
			c2.5,0,5.3-0.1,8.1-0.2c10.8-0.3,19.5-3.4,30.9-1.9c11.3,1.5,26.3-9.8,26-17.7S139.6,117.5,130.2,113.7z"/>
		<g id="Calque_10">
			<path id="XMLID_15_" class="st19" d="M89.4,144c-0.2-2.4,0.4-6.4,1.1-6.8"/>
			<path id="XMLID_16_" class="st19" d="M85.6,113.9c0,2.7,0.9,4.9,2,4.9"/>
			<path id="XMLID_17_" class="st19" d="M92.2,112.5c0,3.7,1.1,6.6,2.4,6.6"/>
			<path id="XMLID_19_" class="st19" d="M102,143.8c0-4.3,1-7.8,2.3-7.8"/>
			<path id="XMLID_20_" class="st19" d="M110.7,143.3c0-3,0.3-5.3,0.7-5.3"/>
			<path id="XMLID_21_" class="st19" d="M100.9,111.9c0,2.6,0.5,4.7,1.1,4.7"/>
			<path id="XMLID_22_" class="st19" d="M93.6,123.4c-1.5,2.9-0.6,7.4,0.7,9"/>
			<path id="XMLID_18_" class="st19" d="M80.3,121.6c-1.5,2.9-0.5,7.9,0.6,9.8"/>
			<path id="XMLID_24_" class="st19" d="M84,129.9c-1.5,2.9-0.5,7.9,0.6,9.8"/>
			<path id="XMLID_25_" class="st19" d="M99.4,118.8c-1.5,2.9-0.5,7.9,0.6,9.8"/>
			<path id="XMLID_26_" class="st19" d="M108.3,127.1c-1.5,2.9-0.5,7.9,0.6,9.8"/>
			<path id="XMLID_27_" class="st19" d="M111.1,114.7c-1.5,2.9-0.5,7.9,0.6,9.8"/>
			<path id="XMLID_28_" class="st19" d="M117.2,129.5c-1.5,2.9-0.5,7.9,0.6,9.8"/>
			<path id="XMLID_33_" class="st19" d="M119,115.9c-1.5,2.9-0.5,7.9,0.6,9.8"/>
			<path id="XMLID_34_" class="st19" d="M123.9,127.1c-1.5,2.9-0.5,7.9,0.6,9.8"/>
			<path id="XMLID_35_" class="st19" d="M129.5,119.1c-1.5,2.9-0.5,7.9,0.6,9.8"/>
		</g>
		<path id="XMLID_8_" class="st20" d="M78,139.1c0,0-9-19.9,5.7-24.3s30.6-4,39.9-0.2s33.6,2,34,9.9c0.3,7.9-14.7,19.2-26,17.7
			c-11.3-1.5-20.1,1.6-30.9,1.9C90.9,144.4,80.6,145.4,78,139.1z"/>
	</g>
	<g id="Calque_15">
		<g id="Calque_2">
			<g id="Calque_8">
			</g>
		</g>
		<g id="Calque_2_-_copie_4">
			<g id="Calque_8_-_copie_3">
			</g>
		</g>
		<g id="Calque_2_-_copie_5">
			<g id="Calque_8_-_copie_4">
			</g>
		</g>
		<g id="Calque_2_-_copie_3">
			<g id="Calque_8_-_copie_2">
			</g>
		</g>
		<g id="Calque_2_-_copie_2">
			<g id="Calque_8_-_copie">
			</g>
			<path id="XMLID_147_" class="st21" d="M270.6,152c0,0-5.6-23.3-19.7-32.7l0,0c0,0,0,0,0,0c-3.4-2.3-7.3-3.8-11.8-3.9
				c0,0-0.6,7.4,1.3,15.5c0,0-5.6-9.3-4.6-17.2c0,0-16.7-7.2-36.8-6.5c0.1-0.1,0.2-0.1,0.3-0.2c0.1,0,0.1,0,0.1-0.1l0,0
				c6.2-3.7,11.3-8.2,14-13.5c0,0-15.3-1.9-21.7-12.6c0,0,20.3,11,26.2,8.4c0,0,1.6-2.5,3.8-6.5c0,0,0,0,0,0l0,0
				c2.7-5,6.4-12.2,9-19.7c0.1-0.1,0.1-0.2,0.2-0.3l-0.1,0c2.7-8.1,4.2-16.6,1.8-22.8c0,0-23.1-6.3-38.2,1.5l0,0c0,0,0,0,0,0
				c-3.6,1.9-6.8,4.6-9.1,8.5c0,0,6.2,4.1,14.2,6.3c0,0-10.8,0.5-17.3-4.2c0,0-17.9,14-26.2,35.7c-0.8-5.6-2-11.2-3.8-16.3
				c0-0.1,0-0.1,0-0.1l0,0c-2.3-6.9-5.6-12.8-10.3-16.5c0,0-5,14.6-16.9,18.6c0,0,15-17.5,13.8-23.9c0,0-2.1-2.1-5.5-5.1
				c0,0,0,0,0,0l0,0c-4.3-3.7-10.6-8.8-17.4-12.9c-0.1-0.1-0.2-0.2-0.3-0.2l0,0.1c-7.4-4.4-15.3-7.5-21.9-6.5c0,0-11,21.3-6.5,37.6
				l0,0c0,0,0,0,0,0c1.1,4,3.1,7.6,6.4,10.6c0,0,5.3-5.2,9.1-12.6c0,0-1.8,10.7-7.7,16c0,0,11.5,23.6,33.9,35.9l-0.1,0.2
				c0,0,0.1-0.1,0.2-0.1c6.4,3.5,13.8,6.1,22,6.9c-8.5,2.5-27,8.7-40,18c0,0-0.1,0-0.1,0.1l0,0c-5.9,4.2-10.6,9.1-12.8,14.6
				c0,0,15.5,0.5,22.7,10.7c0,0-21.1-9.3-26.8-6.2c0,0-1.4,2.6-3.3,6.8c0,0,0,0,0,0h0c-2.3,5.2-5.3,12.7-7.2,20.4
				c-0.1,0.1-0.1,0.2-0.1,0.3l0.1,0c-2,8.3-2.7,16.9,0.2,22.8c0,0,23.6,4.3,37.9-4.8l0,0c0,0,0,0,0,0c3.5-2.2,6.4-5.2,8.3-9.2
				c0,0-6.5-3.5-14.7-5c0,0,10.7-1.4,17.6,2.7c0,0,10.4-9.7,18-24.8c0.1,1.4,0.3,2.7,0.4,4c0,0,0,0.1,0,0.1l0,0
				c1,7.2,3.2,13.6,7,18.1c0,0,7.7-13.4,20.1-15.2c0,0-18,14.4-18,20.9c0,0,1.7,2.5,4.5,6c0,0,0,0,0,0l0,0c3.5,4.5,8.8,10.7,14.8,16
				c0,0.1,0.1,0.2,0.1,0.2l0-0.1c6.4,5.7,13.7,10.3,20.3,10.5c0,0,14.8-18.9,13.4-35.8l0,0c0,0,0,0,0,0c-0.3-4.1-1.6-8.1-4.3-11.6
				c0,0-6.2,4.1-11.3,10.7c0,0,3.8-10.2,10.6-14.3c0,0-2.2-7.9-7.5-17.8c4.7,2.1,9.3,3.4,13.7,3.2c0,0-5.7-14.4,0.6-25.1
				c0,0,0.1,23.1,5.2,27.1c0,0,3,0.2,7.5,0.2c0,0,0,0,0,0l0,0c5.7,0,13.8-0.3,21.6-1.6c0.1,0,0.2,0,0.3,0l0-0.1
				C258.2,159.9,266.3,157.1,270.6,152z M156.6,121.9c1.4-0.3,3.1-0.6,5.2-1.1c-0.5,0.5-1.1,0.9-1.6,1.4c0,0,0.2,0.3,0.6,0.7
				C159.5,122.5,158.1,122.2,156.6,121.9z"/>
		</g>
	</g>
	<g id="Calque_15_-_copie">
		<g id="Calque_2_-_copie">
			
				<linearGradient id="XMLID_38_" gradientUnits="userSpaceOnUse" x1="137.8647" y1="24.6424" x2="219.8015" y2="24.6424" gradientTransform="matrix(0.2095 -0.9778 0.9778 0.2095 55.9976 249.8905)">
				<stop  offset="0" style="stop-color:#009444"/>
				<stop  offset="1" style="stop-color:#8DC63F"/>
			</linearGradient>
			<path id="XMLID_143_" class="st22" d="M150.8,127.6c0,0,2.5-50.3-15.8-64.8c0,0-5,14.6-16.9,18.6c0,0,15-17.5,13.8-23.9
				c0,0-27.5-27.4-45.1-24.7c0,0-17,32.9-0.1,48.3c0,0,5.3-5.2,9.1-12.6c0,0-1.8,10.7-7.7,16C88,84.6,109.4,128.6,150.8,127.6z"/>
			<path id="XMLID_142_" class="st23" d="M86.8,79.8c0,0,7.2-9.8,11-17.2c0,0-2.5,17-8.5,22.3c0,0,18.8,41.1,60,41.7
				c-14.6-9.6-48.7-45.4-62.7-91.6C84.9,40.5,71.8,64.9,86.8,79.8z"/>
			<g id="Calque_8_-_copie_5_4_">
				<path id="XMLID_141_" class="st24" d="M150.6,127.5c-22.7-17.9-27.6-25.9-33.5-35.1"/>
				<path id="XMLID_140_" class="st24" d="M95.8,57.5c-3.7-6.7-6.8-13-9-24.6"/>
				<path id="XMLID_136_" class="st24" d="M80.3,70.6c1.7,0.9,4.5-1.1,6.3-4.5"/>
				<path id="XMLID_135_" class="st24" d="M94,94.5c0.9,0.5,3.3-2,5.3-5.6"/>
				<path id="XMLID_134_" class="st24" d="M121.8,120.6c0.8-0.4,2.9-2.9,3.9-6.9"/>
				<path id="XMLID_133_" class="st24" d="M105.8,108.4c0.3,0.2,1.3-1,2.2-2.6"/>
				<path id="XMLID_132_" class="st24" d="M126.3,52.5c0.6,0.3-0.5,3.6-2.5,7.3"/>
				<path id="XMLID_131_" class="st24" d="M145.3,79.3c0.3,0.6-2.4,2.7-6.1,4.7"/>
				<path id="XMLID_130_" class="st24" d="M150,103.5c0.3,0.6-2.4,2.7-6.1,4.7"/>
				<path id="XMLID_129_" class="st24" d="M108.7,39.4c1.2,0.6,0.7,3.9-1.2,7.2"/>
			</g>
			<path id="XMLID_128_" class="st25" d="M150.8,127.6c0,0,2.5-50.3-15.8-64.8c0,0-5,14.6-16.9,18.6c0,0,15-17.5,13.8-23.9
				c0,0-27.5-27.4-45.1-24.7c0,0-17,32.9-0.1,48.3c0,0,5.3-5.2,9.1-12.6c0,0-1.8,10.7-7.7,16C88,84.6,109.4,128.6,150.8,127.6z"/>
		</g>
		<g id="Calque_2_-_copie_6_3_">
			
				<linearGradient id="XMLID_39_" gradientUnits="userSpaceOnUse" x1="139.0906" y1="187.861" x2="221.0274" y2="187.861" gradientTransform="matrix(-0.3879 0.9217 -0.9217 -0.3879 414.5229 89.2407)">
				<stop  offset="0" style="stop-color:#009444"/>
				<stop  offset="1" style="stop-color:#8DC63F"/>
			</linearGradient>
			<path id="XMLID_127_" class="st26" d="M147.7,129.5c0,0-11.9,49,3.4,66.6c0,0,7.7-13.4,20.1-15.2c0,0-18,14.4-18,20.9
				c0,0,21.9,32.1,39.7,32.6c0,0,22.8-29.1,9.1-47.4c0,0-6.2,4.1-11.3,10.7c0,0,3.8-10.2,10.6-14.3
				C201.4,183.5,188.6,136.3,147.7,129.5z"/>
			<path id="XMLID_123_" class="st23" d="M201.7,188.5c0,0-8.9,8.3-14,14.8c0,0,5.6-16.2,12.5-20.3c0,0-10.8-43.9-51.2-52.1
				c12.6,12.1,39.4,53.7,44.6,101.7C196.2,227.4,213.7,205.9,201.7,188.5z"/>
			<g id="Calque_8_-_copie_5_3_">
				<path id="XMLID_122_" class="st24" d="M147.9,129.7c18.9,21.8,22.3,30.6,26.4,40.7"/>
				<path id="XMLID_121_" class="st24" d="M188.7,208.6c2.4,7.3,4.2,14.1,4.3,25.8"/>
				<path id="XMLID_120_" class="st24" d="M206.4,198.7c-1.5-1.2-4.6,0.2-7,3.2"/>
				<path id="XMLID_119_" class="st24" d="M197.3,172.7c-0.8-0.7-3.6,1.4-6.2,4.6"/>
				<path id="XMLID_118_" class="st24" d="M174.9,141.8c-0.9,0.2-3.4,2.3-5.1,6.1"/>
				<path id="XMLID_117_" class="st24" d="M188.3,156.8c-0.3-0.2-1.4,0.7-2.6,2.1"/>
				<path id="XMLID_116_" class="st24" d="M157.8,207.9c-0.6-0.5,1.1-3.5,3.8-6.7"/>
				<path id="XMLID_115_" class="st24" d="M144.1,178c-0.2-0.7,2.9-2.2,6.9-3.4"/>
				<path id="XMLID_114_" class="st24" d="M144,153.4c-0.2-0.7,2.9-2.2,6.9-3.4"/>
				<path id="XMLID_110_" class="st24" d="M172.7,224.1c-1-0.8,0.1-3.9,2.5-6.9"/>
			</g>
			<path id="XMLID_109_" class="st25" d="M147.7,129.5c0,0-11.9,49,3.4,66.6c0,0,7.7-13.4,20.1-15.2c0,0-18,14.4-18,20.9
				c0,0,21.9,32.1,39.7,32.6c0,0,22.8-29.1,9.1-47.4c0,0-6.2,4.1-11.3,10.7c0,0,3.8-10.2,10.6-14.3
				C201.4,183.5,188.6,136.3,147.7,129.5z"/>
		</g>
		<g id="Calque_2_-_copie_6_2_">
			
				<linearGradient id="XMLID_40_" gradientUnits="userSpaceOnUse" x1="167.4405" y1="241.0376" x2="249.3773" y2="241.0376" gradientTransform="matrix(-0.9963 8.550185e-002 -8.550185e-002 -0.9963 341.0805 394.0729)">
				<stop  offset="0" style="stop-color:#009444"/>
				<stop  offset="1" style="stop-color:#8DC63F"/>
			</linearGradient>
			<path id="XMLID_108_" class="st27" d="M148.5,126.1c0,0-48.9,12.3-57.4,34c0,0,15.5,0.5,22.7,10.7c0,0-21.1-9.3-26.8-6.2
				c0,0-18.2,34.3-10.4,50.4c0,0,36.4,6.6,46.2-14c0,0-6.5-3.5-14.7-5c0,0,10.7-1.4,17.6,2.7C125.7,198.7,161.5,165.4,148.5,126.1z"
				/>
			<path id="XMLID_107_" class="st23" d="M121.4,201.3c0,0-11.4-4-19.6-5.5c0,0,17-2.5,23.8,1.6c0,0,33.8-30,22.3-69.6
				c-4.9,16.8-29.2,59.8-69.3,86.8C84.4,214.5,111.6,220,121.4,201.3z"/>
			<g id="Calque_8_-_copie_5_2_">
				<path id="XMLID_106_" class="st24" d="M148.5,126.3c-10.5,26.9-16.7,34-23.8,42.3"/>
				<path id="XMLID_105_" class="st24" d="M97.5,199.2c-5.3,5.5-10.5,10.3-20.9,15.8"/>
				<path id="XMLID_104_" class="st24" d="M114.5,210.2c0.4-1.9-2.4-4-6.1-4.7"/>
				<path id="XMLID_103_" class="st24" d="M133.4,190.1c0.2-1.1-2.9-2.6-6.9-3.4"/>
				<path id="XMLID_102_" class="st24" d="M150.3,155.8c-0.6-0.7-3.7-2-7.8-1.7"/>
				<path id="XMLID_101_" class="st24" d="M143.3,174.7c0.1-0.4-1.3-1-3.1-1.3"/>
				<path id="XMLID_99_" class="st24" d="M83.8,171.5c0.1-0.7,3.6-0.6,7.7,0.2"/>
				<path id="XMLID_98_" class="st24" d="M103.9,145.5c0.5-0.5,3.3,1.5,6.2,4.5"/>
				<path id="XMLID_97_" class="st24" d="M125.6,133.9c0.5-0.5,3.3,1.5,6.2,4.5"/>
				<path id="XMLID_96_" class="st24" d="M76.4,192.2c0.3-1.3,3.5-1.8,7.2-1"/>
			</g>
			<path id="XMLID_95_" class="st25" d="M148.5,126.1c0,0-48.9,12.3-57.4,34c0,0,15.5,0.5,22.7,10.7c0,0-21.1-9.3-26.8-6.2
				c0,0-18.2,34.3-10.4,50.4c0,0,36.4,6.6,46.2-14c0,0-6.5-3.5-14.7-5c0,0,10.7-1.4,17.6,2.7C125.7,198.7,161.5,165.4,148.5,126.1z"
				/>
		</g>
		<g id="Calque_2_-_copie_6_1_">
			
				<linearGradient id="XMLID_53_" gradientUnits="userSpaceOnUse" x1="112.9801" y1="140.4253" x2="194.917" y2="140.4253" gradientTransform="matrix(0.4806 0.8769 -0.8769 0.4806 258.537 -58.1273)">
				<stop  offset="0" style="stop-color:#009444"/>
				<stop  offset="1" style="stop-color:#8DC63F"/>
			</linearGradient>
			<path id="XMLID_94_" class="st28" d="M153.2,130.2c0,0,31,39.7,54.3,38.7c0,0-5.7-14.4,0.6-25.1c0,0,0.1,23.1,5.2,27.1
				c0,0,38.7,2.8,50.3-10.8c0,0-8.6-36-31.5-36.6c0,0-0.6,7.4,1.3,15.5c0,0-5.6-9.3-4.6-17.2C228.8,121.7,183.9,102.4,153.2,130.2z"
				/>
			<path id="XMLID_93_" class="st23" d="M233,124.6c0,0,1,12.1,2.9,20.2c0,0-9.2-14.5-8.2-22.4c0,0-41.1-18.8-72.6,7.7
				c17.3-2.3,66.5,2.6,107.4,28.3C260,153.1,254,126,233,124.6z"/>
			<g id="Calque_8_-_copie_5_1_">
				<path id="XMLID_92_" class="st24" d="M153.4,130.1c28.9-1.3,37.8,1.6,48.3,4.7"/>
				<path id="XMLID_91_" class="st24" d="M240.7,147.3c7.2,2.6,13.7,5.4,22.9,12.7"/>
				<path id="XMLID_90_" class="st24" d="M243.9,127.3c-1.9,0.4-2.7,3.8-1.9,7.5"/>
				<path id="XMLID_89_" class="st24" d="M217.9,118.2c-1,0.2-1.2,3.7-0.3,7.7"/>
				<path id="XMLID_88_" class="st24" d="M179.7,116.6c-0.4,0.9-0.3,4.1,1.6,7.8"/>
				<path id="XMLID_87_" class="st24" d="M199.8,115.3c-0.4,0.1-0.3,1.6,0,3.3"/>
				<path id="XMLID_84_" class="st24" d="M220.9,171.1c-0.7,0.2-2-3-2.9-7.1"/>
				<path id="XMLID_83_" class="st24" d="M189,163.2c-0.7-0.3,0-3.6,1.6-7.5"/>
				<path id="XMLID_82_" class="st24" d="M169.6,148c-0.7-0.3,0-3.6,1.6-7.5"/>
				<path id="XMLID_81_" class="st24" d="M242.8,169.4c-1.3,0.3-3-2.5-3.8-6.2"/>
			</g>
			<path id="XMLID_80_" class="st25" d="M153.2,130.2c0,0,31,39.7,54.3,38.7c0,0-5.7-14.4,0.6-25.1c0,0,0.1,23.1,5.2,27.1
				c0,0,38.7,2.8,50.3-10.8c0,0-8.6-36-31.5-36.6c0,0-0.6,7.4,1.3,15.5c0,0-5.6-9.3-4.6-17.2C228.8,121.7,183.9,102.4,153.2,130.2z"
				/>
		</g>
		<g id="Calque_2_-_copie_6">
			<linearGradient id="XMLID_54_" gradientUnits="userSpaceOnUse" x1="144.8978" y1="88.0578" x2="226.8347" y2="88.0578">
				<stop  offset="0" style="stop-color:#009444"/>
				<stop  offset="1" style="stop-color:#8DC63F"/>
			</linearGradient>
			<path id="XMLID_67_" class="st29" d="M146.4,130.5c0,0,49.7-8.1,60.1-29c0,0-15.3-1.9-21.7-12.6c0,0,20.3,11,26.2,8.4
				c0,0,21.1-32.6,14.7-49.3c0,0-35.7-9.7-47.2,10c0,0,6.2,4.1,14.2,6.3c0,0-10.8,0.5-17.3-4.2C175.3,60.1,136.8,90.2,146.4,130.5z"
				/>
			<path id="XMLID_63_" class="st23" d="M179.8,57.9c0,0,11.1,5,19.1,7.2c0,0-17.1,1.1-23.6-3.6c0,0-36.3,27-28.2,67.4
				c6.3-16.3,34.2-57.1,76.4-80.5C217.8,47.8,191.2,40.1,179.8,57.9z"/>
			<g id="Calque_8_-_copie_5">
				<path id="XMLID_60_" class="st24" d="M146.5,130.3c12.8-25.9,19.6-32.4,27.3-40.1"/>
				<path id="XMLID_46_" class="st24" d="M203.5,62c5.8-5.1,11.3-9.4,22.2-14"/>
				<path id="XMLID_45_" class="st24" d="M187.5,49.6c-0.5,1.8,2,4.2,5.7,5.3"/>
				<path id="XMLID_44_" class="st24" d="M167,68c-0.3,1,2.7,2.8,6.6,4"/>
				<path id="XMLID_31_" class="st24" d="M147.2,100.7c0.6,0.7,3.5,2.3,7.6,2.3"/>
				<path id="XMLID_7_" class="st24" d="M155.8,82.5c-0.1,0.4,1.2,1.1,2.9,1.6"/>
				<path id="XMLID_6_" class="st24" d="M214.8,90.8c-0.2,0.7-3.6,0.3-7.7-0.9"/>
				<path id="XMLID_5_" class="st24" d="M192.5,115c-0.6,0.5-3.2-1.8-5.8-5"/>
				<path id="XMLID_4_" class="st24" d="M169.9,124.7c-0.6,0.5-3.2-1.8-5.8-5"/>
				<path id="XMLID_2_" class="st24" d="M223.9,70.8c-0.4,1.3-3.6,1.4-7.3,0.4"/>
			</g>
			<path id="XMLID_1_" class="st25" d="M146.4,130.5c0,0,49.7-8.1,60.1-29c0,0-15.3-1.9-21.7-12.6c0,0,20.3,11,26.2,8.4
				c0,0,21.1-32.6,14.7-49.3c0,0-35.7-9.7-47.2,10c0,0,6.2,4.1,14.2,6.3c0,0-10.8,0.5-17.3-4.2C175.3,60.1,136.8,90.2,146.4,130.5z"
				/>
		</g>
	</g>
</g>
</svg>
