<?xml version="1.0" encoding="utf-8"?>
<!-- Generator: Adobe Illustrator 19.0.0, SVG Export Plug-In . SVG Version: 6.00 Build 0)  -->
<svg version="1.0" id="圖層_1" xmlns="http://www.w3.org/2000/svg" xmlns:xlink="http://www.w3.org/1999/xlink" x="0px" y="0px" width="300px" height="260px"
	 viewBox="0 0 300 260" style="enable-background:new 0 0 300 260;" xml:space="preserve">
<style type="text/css">
	.st0{display:none;fill:#FECE63;stroke:#F3BA45;stroke-miterlimit:10;}
	.st1{fill:#FDC272;}
	.st2{fill:#FCC981;}
	.st3{opacity:0.35;fill:#F8D3A5;}
	.st4{opacity:0.15;fill:#245429;}
	.st5{fill:#543116;}
	.st6{fill:#DD8C3B;}
	.st7{fill:#DD8C39;stroke:#54331A;stroke-miterlimit:10;}
	.st8{fill:#DD8C3A;stroke:#54331A;stroke-miterlimit:10;}
	.st9{fill:#DD8C3A;stroke:#543218;stroke-miterlimit:10;}
	.st10{opacity:0.25;}
	.st11{opacity:0.3;}
	.st12{opacity:0.4;fill:#FFE1A4;}
	.st13{fill:#293A1A;}
	.st14{fill:#BED731;}
	.st15{fill:#009447;}
	.st16{display:none;opacity:0.1;}
	.st17{opacity:0.35;}
	.st18{fill:#D9E136;}
	.st19{opacity:0.5;fill:none;stroke:#245429;stroke-width:1.5;stroke-miterlimit:10;}
	.st20{display:none;opacity:0.5;fill:none;stroke:#245429;stroke-width:1.5;stroke-miterlimit:10;}
	.st21{opacity:0.1;}
	.st22{display:none;}
	.st23{display:inline;}
	.st24{fill:none;stroke:#333333;stroke-width:7;stroke-miterlimit:10;}
</style>
<rect id="background" x="1.1" y="-0.1" class="st0" width="300" height="260"/>
<g id="Calque_7">
	<g id="圖層_7">
		<path id="XMLID_47_" class="st1" d="M96.4,165.3c-5.7,2.7-12.6,2.9-19.8,1.1c-9.5-3.6-23.5-9.7-21.5-21.2
			c0.7-10.6,2.3-18.4,2.3-28.5c1.5-12.2,10.5-19.5,20.5-23c2.2-0.8,4.3-1.4,6.2-1.8c4-0.7,8.2-0.5,12.2,1.2c2.2,0.9,4.6,2.4,5.7,4.6
			c1.7,3.1,0,6.2-2.9,8.1c-4.1,2-9.7,6.9-4.2,12.1c5.4,6.4,13.8,8.5,18.3,16.6C120.7,149.7,106.1,158.7,96.4,165.3"/>
		<path id="XMLID_23_" class="st2" d="M92.1,154.2c-3.8,1.9-8.4,1.9-13.3,0.8c-6.3-2.4-15.8-6.5-14.4-14.3
			c0.5-7.1,1.5-12.4,1.6-19.1c1-8.2,7-13.1,13.7-15.5c1.5-0.6,2.8-1,4.2-1.2c2.7-0.5,5.5-0.3,8.2,0.8c1.6,0.6,3.1,1.6,3.9,3.1
			c1.2,2.1-0.1,4.2-2,5.4c-2.8,1.3-6.6,4.6-2.8,8.1c3.6,4.3,9.2,5.7,12.3,11.1C108.5,143.7,98.6,149.7,92.1,154.2"/>
		<path id="XMLID_8_" class="st3" d="M89.8,148.2c-2.8,1.4-6.2,1.4-9.8,0.6c-4.7-1.8-11.7-4.8-10.7-10.5c0.3-5.2,1.1-9.2,1.2-14.1
			c0.8-6,5.2-9.7,10.1-11.5c1.1-0.4,2.1-0.7,3.1-0.9c2-0.3,4.1-0.2,6.1,0.6c1.2,0.5,2.3,1.2,2.8,2.3c0.9,1.5,0,3.1-1.5,4
			c-2.1,1-4.9,3.4-2.1,6c2.7,3.2,6.8,4.2,9.1,8.2C101.9,140.5,94.6,144.9,89.8,148.2"/>
	</g>
	<g id="Calque_15_-_copie_6">
		<g id="Calque_2_-_copie_11">
			<g id="Calque_8_-_copie_10">
				<path id="XMLID_99_" class="st4" d="M225.5,127.6c0,0-2.2,5.7-0.4,14.7c0,0-3-8.3-1.5-17c0,0-16.1-6.7-36.4-7.2
					c8.8-4.8,16.1-10.6,19.5-17.4c0,0-18.4-1.4-26.5-11c0,0,22.4,12.2,29.1,9.4c0,0,22.3-37.8,15.2-56.3c0,0-41.6-10.3-54.3,11.6
					c0,0,4.1,4.5,13,6.9c0,0-8.7-1-15.9-6.2c0,0-20.9,18.2-29.2,44.8c-2-16.4-6.4-34.1-15.8-42c0,0-5.7,17.5-17,23.2
					c0,0,17.2-18.9,16-26c0,0-31.5-30.6-51.1-28.1c0,0-19.8,37.9-1.6,55.5c0,0,5.3-2.9,9.8-11c0,0-3.1,8.3-9.8,14
					c0,0,21.4,41.3,60.5,48.1c-38,1-65.5,35.2-65.5,35.2c5.5,6.9,6.8,15.6,6.8,15.6c-2.8-8.8-7.4-12.7-7.4-12.7
					c-21.3,13.6-9.4,54.8-9.4,54.8C72.1,232.8,109,209,109,209c2.6-6.7-10.5-28.7-10.5-28.7c10,7.8,12.1,26.1,12.1,26.1
					c5.9-3.2,10.9-9.6,15.1-17.2c0.4,8.8,2.1,16.8,6.1,22.3c0,0,9.9-15.6,22.2-18.2c0,0-21.4,14-21.9,21.2c0,0,22.9,37.5,42.5,39.9
					c0,0,28.6-31.8,15.4-53.4c0,0-5.9,1.5-12.2,8.2c0,0,5-7.2,13-11.1c0,0-2.4-10.5-9-23.3c6.4,3.7,12.8,6.2,18.7,6.1
					c0,0-6.9-17.1-1.9-28.7c0,0-1,25.5,4.6,30.2c0,0,43.8,3.1,57.1-11.5C260.1,171.1,250.8,129.3,225.5,127.6z"/>
			</g>
		</g>
	</g>
	<g id="Calque_14">
		<path id="XMLID_30_" class="st5" d="M76.6,140c0,0-9.8-21.6,6.2-26.4s33.3-4.4,43.5-0.2s36.6,2.2,37,10.8s-16,20.9-28.3,19.3
			c-12.3-1.6-21.9,1.8-33.6,2.1C90.6,145.8,79.5,147,76.6,140z"/>
		<path id="XMLID_9_" class="st6" d="M78,139.1c0,0-9-19.9,5.7-24.3s30.6-4,39.9-0.2s33.6,2,34,9.9c0.3,7.9-14.7,19.2-26,17.7
			c-11.3-1.5-20.1,1.6-30.9,1.9C90.9,144.4,80.6,145.4,78,139.1z"/>
		<path id="XMLID_37_" class="st7" d="M139.2,117.4c-5.9-0.7-12-1.3-15.6-2.8c-9.3-3.8-25.2-4.2-39.9,0.2S78,139.1,78,139.1
			c2.6,6.4,12.9,5.3,22.7,5c6.4-0.2,12.2-1.4,18.1-2C116,131.6,134.3,120.2,139.2,117.4z"/>
		<path id="XMLID_36_" class="st7" d="M126.3,141.8c-13.4-10.1-21.5-22.5-25.7-30.1c-5.6,0.4-11.4,1.3-17,3
			C69,119.2,78,139.1,78,139.1c2.6,6.4,12.9,5.3,22.7,5C109.8,143.8,117.4,141.6,126.3,141.8z"/>
		<path id="XMLID_32_" class="st7" d="M122.2,114c-9.5-3.3-24.5-3.5-38.5,0.7C69,119.2,78,139.1,78,139.1c2.5,5.9,11.5,5.4,20.7,5.1
			C103.1,136.8,112.3,122.5,122.2,114z"/>
		<path id="XMLID_13_" class="st8" d="M86.4,114c-0.9,0.2-1.8,0.5-2.7,0.8C69,119.2,78,139.1,78,139.1c2.6,6.4,12.9,5.3,22.7,5
			c2.9-0.1,5.7-0.4,8.5-0.7C102,139,89.8,129.6,86.4,114z"/>
		<path id="XMLID_14_" class="st7" d="M83.7,114.8C69,119.2,78,139.1,78,139.1c1.4,3.3,4.8,4.6,9.1,5.1c1.5-9.2,16.7-26.7,21.9-32.4
			C101.1,111.3,92.2,112.2,83.7,114.8z"/>
		<path id="XMLID_29_" class="st7" d="M96,144.3c-7.4-7.3-12-22.5-13.7-29c-12.6,5.2-4.3,23.8-4.3,23.8
			C80.2,144.4,87.8,144.5,96,144.3z"/>
		<path id="XMLID_12_" class="st9" d="M93.7,112.5c-3.4,0.5-6.8,1.3-10.1,2.3C69,119.2,78,139.1,78,139.1c0.3,0.7,0.7,1.2,1.1,1.7
			C81.1,135.1,86.9,119.6,93.7,112.5z"/>
		<path id="XMLID_38_" class="st10" d="M157.6,124.5c-0.3-7.9-24.7-6.1-34-9.9c-4.3-1.8-10.1-2.8-16.5-2.9c3,5.9,7.9,13.7,13.4,15
			c0,0-15.4,10.3-21.1,17.5c0.5,0,0.9,0,1.4,0c10.8-0.3,19.5-3.4,30.9-1.9C142.9,143.6,157.9,132.3,157.6,124.5z"/>
		<path id="XMLID_10_" class="st11" d="M164.5,124.8c-0.3-7-21.8-5.4-30.1-8.8c-3.8-1.6-9-2.5-14.6-2.6c2.7,5.2,7,12.1,11.9,13.3
			c0,0-13.6,9.1-18.7,15.5c0.4,0,0.8,0,1.2,0c9.5-0.3,17.3-3,27.3-1.7C151.6,141.7,164.8,131.7,164.5,124.8z"/>
		<path id="XMLID_16_" class="st12" d="M83.7,114.8C69,119.2,78,139.1,78,139.1c1.6,4,6.2,5,11.8,5.2c-1.6-5.7-5.9-4.9-6.7-15.6
			c-0.8-10.5,5.8-12.3,6.9-15.6C87.9,113.6,85.8,114.1,83.7,114.8z"/>
		<path id="XMLID_11_" class="st12" d="M81.2,116.3c-9.5,4-3.7,22.3-3.7,22.3c1.1,3.6,4,4.6,7.6,4.8c-1-5.3-3.8-4.5-4.3-14.3
			c-0.5-9.6,3.7-11.3,4.4-14.3C83.9,115.2,82.5,115.7,81.2,116.3z"/>
	</g>
	<g id="Calque_15">
		<g id="Calque_2">
			<g id="Calque_8">
			</g>
		</g>
		<g id="Calque_2_-_copie_4">
			<g id="Calque_8_-_copie_3">
			</g>
		</g>
		<g id="Calque_2_-_copie_5">
			<g id="Calque_8_-_copie_4">
			</g>
		</g>
		<g id="Calque_2_-_copie_3">
			<g id="Calque_8_-_copie_2">
			</g>
		</g>
	</g>
	<g id="Calque_31_-_copie">
	</g>
	<g id="Calque_31">
		<g id="Calque_15_-_copie_5">
			<g id="Calque_2_-_copie_10">
				<path id="XMLID_233_" class="st13" d="M156.9,124.4c0,0-17,56.7-2.2,77.4c0,0,9.7-15.3,21.9-17.9c0,0-21,13.8-21.6,20.9
					c0,0,22.6,36.9,41.9,39.3c0,0,28.2-31.4,15.1-52.6c0,0-5.8,1.5-12,8.1c0,0,5-7.1,12.8-10.9C212.8,188.7,200.6,135.9,156.9,124.4
					z"/>
				<path id="XMLID_232_" class="st14" d="M159.9,129.9c0,0-16.3,47.7-2.7,66.6c0,0,8.9-12.7,21.4-13.2c0,0-19.3,12.7-19.8,19.2
					c0,0,18.9,33.9,36.6,36.1c0,0,25.4-26.9,13.4-46.4c0,0-6.5,3.5-12.2,9.6c0,0,4.7-9.8,11.8-13.2
					C208.4,188.6,200,140.4,159.9,129.9z"/>
				<path id="XMLID_231_" class="st15" d="M159.9,129.9c0,0-16.2,45.7-2.5,64.7c0,0,8.7-10.7,21.2-11.3c0,0-17.9,13-18.4,19.5
					c0,0,16.8,31.7,34.5,33.9c0,0,25.6-23.6,13.7-43.1c0,0-6,2.2-11.8,8.2c0,0,3.3-10.4,10.4-13.9C207,187.9,200,140.4,159.9,129.9z
					"/>
				<path id="XMLID_230_" class="st16" d="M162.1,137.4c1.2-1,3-0.3,4.1,0.8c1.1,1.1,1.8,2.6,3.1,3.4c1.5,1,3.8,1.3,4.5,3
					c0.3,0.8,0.1,1.6,0.3,2.4c0.2,1.2,1.2,2.3,2.4,2.6c1.8,0.5,4-0.5,5.3,0.8c1.6,1.5,0.4,4.8,2.2,5.9c1.3,0.8,3.4-0.2,4.4,1
					c0.3,0.3,0.4,0.7,0.5,1.2c0.4,1.9-0.4,3.8-0.8,5.7c-0.4,1.9-0.3,4.2,1.2,5.3c0.6,0.5,1.4,0.7,1.8,1.3c1.4,1.7-0.9,4.4,0,6.4
					c0.7,1.6,3,1.7,4.2,3c1,1.1,1.1,2.8,0.8,4.3c-0.4,2-1.3,3.9-2.6,5.5c-1.3,1.6-3,3.2-2.8,5.2c0.1,0.8,0.5,1.6,0.7,2.5
					c0.3,1.4-0.2,2.8-0.7,4.1c-0.5,1.3-1.1,2.7-1.1,4.1c0.1,1.4,1,2.9,2.4,3.1c1.2,0.1,2.2-0.7,3.2-1.2c1-0.6,2.4-0.9,3.2-0.1
					c1.1,1,0.2,3.1,1.1,4.3c0.4,0.5,0.9,0.7,1.3,1.2c0.7,0.9,0.4,2.2-0.3,3.1c-0.7,0.9-1.8,1.5-2.9,1.6c-0.7,0.1-1.5,0-2.2,0.1
					c-1.5,0.3-2.4,1.7-3.5,2.7c-1.1,1-3.1,1.6-4,0.4c-0.9-1.1-0.1-3.1-1.2-4.2c-1.4-1.5-4,0.5-5.8-0.3c-1.3-0.6-1.6-2.3-1.3-3.7
					c0.3-1.4,1.1-2.6,1.3-4s-0.4-3.1-1.8-3.4c-0.8-0.1-1.6,0.3-2.4,0.5c-0.8,0.2-1.9,0.1-2.2-0.6c-0.2-0.3-0.2-0.7-0.1-1
					c0.4-2.7,3.8-4.5,3.6-7.3c-0.1-1.2-0.9-2.4-0.7-3.6c0.2-1.3,1.5-2,2.5-2.8c2.5-2.1,3.5-5.4,4.3-8.5c0.1-0.5,0.3-0.9,0.2-1.4
					c-0.2-1.4-2-1.9-3.4-1.8s-3,0.3-4.1-0.6c-1.1-0.9-1.2-2.8-2.4-3.6c-1.4-0.9-3.2,0.1-4.3,1.3s-2.3,2.6-3.9,2.8
					c-1.5,0.1-3-1.3-3-2.8c0.1-1.7,1.5-3.7,0.2-4.8c-0.8-0.7-2.4-0.5-2.7-1.5c-0.1-0.4,0-0.8,0.2-1.2c0.7-1.9,1.7-3.7,2.8-5.3
					c0.8-1.2,1.7-2.3,2.2-3.7c0.5-1.4,0.4-3-0.6-4c-0.8-0.8-2.2-1.1-2.9-2.1c-1.1-1.5,0.1-3.7,1.1-5.2c1.1-1.6,2-3.9,0.6-5.2
					c-0.8-0.7-2-0.8-2.7-1.6c-0.6-0.7-0.6-1.9-0.5-2.8"/>
				<g id="XMLID_222_" class="st17">
					<path id="XMLID_229_" class="st18" d="M154.8,168c1.7-1.5,3.2-3.6,2.7-5.8c-0.2-0.8-0.5-1.5-0.5-2.3c0.1-1.1,1.1-1.9,1.3-2.9
						c0.2-1.5-1.4-2.7-1.7-4.2c-0.3-1.6,0.9-3.1,1-4.8c0.1-1.5-0.6-2.8-1.7-3.8c-1.8,7.5-3.6,17-4,26.3
						C152.8,169.6,153.8,168.8,154.8,168z"/>
					<path id="XMLID_228_" class="st18" d="M174.9,141.5c4.3,3.1,8.8,5.9,13.5,8.4c1,0.5,2,1,3.1,1.4c-5.3-6.8-12.2-13.1-21-17.4
						C169.7,136.7,172.4,139.6,174.9,141.5z"/>
					<path id="XMLID_227_" class="st18" d="M202.4,196.5c-0.6,1.6-2.1,3.2-0.9,4.3c0.6,0.6,1.7,0.4,2.5,0.2c1.8-0.5,3.6-0.9,5.4-1.4
						c0.7-0.2,1.4-0.4,2.1-0.5c-0.5-2.4-1.3-4.7-2.7-6.9C208.8,192.2,205.9,193.8,202.4,196.5z"/>
					<path id="XMLID_226_" class="st18" d="M194.6,171.3c-0.1,0.7-0.3,1.5,0.2,2c0.7,0.7,1.9,0.2,2.9,0.6c1.7,0.6,1.1,3.2,1.7,5
						c0.5,1.4,1.8,2.4,2.1,3.9c0.3,1.7-1,3.1-2.1,4.4c-1.1,1.3-2,3.2-1.1,4.6c0.8,1.2,2.6,1.4,3.6,2.3c1.8-2.1,4-4.1,6.6-5.3
						c0,0-2.4-13.7-10.7-28.1C196.4,164,195.4,167.6,194.6,171.3z"/>
					<path id="XMLID_225_" class="st18" d="M210.2,214.2c-1.2,0.4-2.4,0.7-3.6,0.8c-0.8,0-1.7,0-2.4,0.5c-0.7,0.4-1,1.2-1.3,2
						c-0.8,2.2-1.6,4.3-2.4,6.5c-0.3,0.7-0.6,1.5-1.3,1.9c-0.6,0.3-1.3,0.3-2,0.5c-2.3,0.7-3.1,4.3-5.5,4.4c-2,0.1-3.1-2.5-5-3.1
						c-1.4-0.5-2.9,0.1-4.3-0.2c-3.4-0.7-4.7-5.9-8.2-6.1c-0.7,0-1.4,0.2-2.1,0.4c6.7,8.1,15.1,15.9,23.3,16.9
						C195.3,238.6,205.9,227.4,210.2,214.2z"/>
					<path id="XMLID_224_" class="st18" d="M169.2,210.6c1.9-3.7,2.9-7.9,2.8-12.1c-0.1-3-0.9-6.1-3-8.1c-4.9,4-9.9,8.8-10.2,12.1
						c0,0,3.2,5.7,8.1,12.6C167.5,213.5,168.4,212.1,169.2,210.6z"/>
					<path id="XMLID_223_" class="st18" d="M157.2,196.6c0,0,3.5-5,9.2-8.9c-0.2-1.1,0.3-2.2-0.1-3.2c-1.1-2.4-5.5,0-7.4-1.9
						c-1-1-0.8-2.8-1.9-3.7c-1.3-1.2-3.4,0-5.2-0.4C152.3,185.4,153.8,191.9,157.2,196.6z"/>
				</g>
				<g id="Calque_8_-_copie_9">
					<path id="XMLID_97_" class="st19" d="M160.1,130.1c16.9,23.5,19.4,32.5,22.5,43"/>
					<path id="XMLID_96_" class="st19" d="M193.4,212.5c1.7,7.5,2.9,14.4,1.9,26.1"/>
					<path id="XMLID_95_" class="st19" d="M212,204.2c-1.4-1.3-4.6-0.2-7.3,2.5"/>
					<path id="XMLID_94_" class="st19" d="M205.3,177.5c-0.8-0.8-3.7,1-6.6,4"/>
					<path id="XMLID_93_" class="st19" d="M193.5,153.7c-0.9,0.2-3.6,2-5.7,5.6"/>
					<path id="XMLID_92_" class="st20" d="M197.8,160.8c-0.3-0.3-1.5,0.6-2.8,1.9"/>
					<path id="XMLID_79_" class="st19" d="M168.4,218.2c-0.5-0.5,1.4-3.3,4.4-6.3"/>
					<path id="XMLID_78_" class="st20" d="M151.9,177.9c-0.1-0.7,3.1-2,7.2-2.8"/>
					<path id="XMLID_77_" class="st19" d="M151.3,170.3c-0.1-0.7,3.1-2,7.2-2.8"/>
					<path id="XMLID_1_" class="st20" d="M176,226.4c-1-0.9,0.4-3.9,3.1-6.6"/>
				</g>
			</g>
		</g>
		<g id="Calque_15_-_copie_4">
			<g id="Calque_2_-_copie_9">
				<path id="XMLID_199_" class="st13" d="M168.5,127.5c0,0-9.3,57.8-31.4,69.8c0,0-2.1-17.8-11.7-25.4c0,0,12.8,21.4,10.2,27.9
					c0,0-36,23.1-54.2,16.9c0,0-11.6-40.1,9.2-53.3c0,0,4.5,3.8,7.2,12.4c0,0-1.3-8.5-6.7-15.2C91.1,160.6,124.7,118.9,168.5,127.5z
					"/>
				<path id="XMLID_198_" class="st14" d="M163.9,130.6c0,0-6.1,50-26.6,61.2c0,0-2.5-15.3-13.5-21.2c0,0,11.8,19.8,9.5,25.9
					c0,0-31.8,22.3-48.7,16.6c0,0-11.1-35.3,8.1-47.6c0,0,4.3,6,6.8,14c0,0,0-10.8-4.9-17.1C94.8,162.3,123.3,122.6,163.9,130.6z"/>
				<path id="XMLID_197_" class="st15" d="M163.9,130.6c0,0-5.4,48.2-25.9,59.3c0,0-3.2-13.4-14.2-19.4c0,0,10.4,19.5,8.1,25.5
					c0,0-28.9,21.2-45.8,15.5c0,0-12.8-32.4,6.5-44.7c0,0,4.5,4.6,7,12.5c0,0,1.6-10.8-3.4-17.1C96.3,162.3,123.3,122.6,163.9,130.6
					z"/>
				<path id="XMLID_196_" class="st16" d="M158.7,136.4c-0.6-1.4-2.6-1.6-4-1.1c-1.4,0.5-2.7,1.5-4.2,1.7c-1.8,0.3-4-0.5-5.3,0.7
					c-0.6,0.6-0.8,1.4-1.3,2c-0.7,1-2.1,1.5-3.3,1.3c-1.8-0.4-3.4-2.2-5.1-1.6c-2.1,0.6-2.4,4.2-4.6,4.4c-1.5,0.1-3-1.6-4.4-1
					c-0.4,0.2-0.7,0.5-1,0.8c-1.1,1.5-1.3,3.6-1.8,5.4c-0.5,1.9-1.5,3.9-3.4,4.2c-0.7,0.1-1.5,0-2.2,0.3c-2,0.9-1.1,4.4-2.8,5.8
					c-1.4,1.1-3.5,0.3-5.1,0.9c-1.4,0.5-2.2,2.1-2.6,3.5c-0.5,2-0.5,4.1-0.1,6.1c0.4,2,1.3,4.2,0.3,5.9c-0.4,0.7-1.2,1.2-1.7,1.9
					c-0.9,1.1-1,2.6-1.1,4c-0.1,1.4-0.1,2.9-0.8,4.1c-0.7,1.3-2.2,2.2-3.5,1.7c-1.1-0.4-1.7-1.5-2.3-2.5c-0.7-1-1.8-1.9-2.9-1.5
					c-1.4,0.5-1.5,2.7-2.9,3.3c-0.5,0.3-1.2,0.2-1.7,0.5c-1,0.5-1.3,1.8-1,2.9c0.3,1.1,1,2.1,2,2.7c0.6,0.4,1.3,0.6,1.9,1
					c1.2,0.9,1.4,2.6,2,4c0.6,1.4,2.1,2.8,3.4,2.1c1.3-0.6,1.5-2.7,2.9-3.3c1.9-0.7,3.3,2.2,5.4,2.2c1.4,0,2.5-1.4,2.8-2.8
					c0.3-1.4,0.2-2.9,0.6-4.2c0.4-1.4,1.8-2.6,3.1-2.2c0.8,0.2,1.3,1,2,1.5c0.6,0.6,1.6,0.9,2.3,0.4c0.3-0.2,0.4-0.5,0.5-0.9
					c0.8-2.6-1.4-5.7-0.1-8.1c0.6-1.1,1.8-1.7,2.1-2.9c0.3-1.2-0.5-2.4-1-3.6c-1.3-3-0.7-6.4-0.2-9.6c0.1-0.5,0.2-0.9,0.4-1.3
					c0.8-1.2,2.6-0.8,3.9-0.2c1.2,0.7,2.6,1.6,3.9,1.3c1.4-0.4,2.3-2,3.7-2.2c1.6-0.2,2.8,1.5,3.3,3.1s0.9,3.4,2.3,4.2
					c1.3,0.8,3.3,0.1,3.9-1.3c0.7-1.6,0.2-4,1.9-4.4c1-0.3,2.4,0.6,3.1-0.2c0.3-0.3,0.4-0.8,0.4-1.2c0.1-2,0.1-4-0.2-6
					c-0.2-1.4-0.5-2.9-0.4-4.3c0.2-1.4,1-2.9,2.3-3.4c1.1-0.4,2.5,0,3.5-0.6c1.7-0.9,1.5-3.3,1.3-5.2c-0.3-1.9-0.1-4.4,1.7-4.9
					c1-0.3,2.2,0.2,3.1-0.3c0.9-0.4,1.3-1.4,1.7-2.3"/>
				<g id="XMLID_186_" class="st17">
					<path id="XMLID_195_" class="st18" d="M152,167.1c-0.9-2.1-1.3-4.6,0.1-6.4c0.5-0.6,1.1-1.1,1.4-1.8c0.4-1-0.2-2.2,0.1-3.2
						c0.5-1.5,2.4-1.8,3.4-3c1-1.3,0.6-3.2,1.2-4.7c0.5-1.4,1.8-2.3,3.2-2.7c-1.7,7.5-4.2,16.9-7.8,25.4
						C153,169.5,152.4,168.3,152,167.1z"/>
					<path id="XMLID_194_" class="st18" d="M145.4,134.5c-5.2,1-10.5,1.5-15.8,1.7c-1.1,0-2.2,0-3.3-0.1c7.7-3.8,16.7-6.5,26.5-6.5
						C152.2,132.4,148.5,133.9,145.4,134.5z"/>
					<path id="XMLID_193_" class="st18" d="M96.7,172.1c-0.2,1.7,0.5,3.8-1.1,4.3c-0.8,0.3-1.7-0.3-2.3-0.9
						c-1.4-1.2-2.8-2.4-4.2-3.6c-0.5-0.5-1.1-0.9-1.7-1.3c1.5-1.9,3.3-3.6,5.5-5.1C92.8,165.4,94.7,168,96.7,172.1z"/>
					<path id="XMLID_192_" class="st18" d="M114.7,152.7c-0.2,0.7-0.4,1.4-1,1.7c-0.9,0.4-1.8-0.7-2.8-0.8c-1.8-0.2-2.4,2.4-3.7,3.8
						c-1,1.1-2.7,1.4-3.5,2.6c-1,1.4-0.4,3.3,0,4.9c0.4,1.6,0.4,3.7-1,4.6c-1.2,0.7-3,0.2-4.3,0.5c-0.7-2.7-1.8-5.5-3.6-7.7
						c0,0,8.1-11.3,21.9-20.6C116.2,145.4,115.6,149.1,114.7,152.7z"/>
					<path id="XMLID_191_" class="st18" d="M82,184.6c0.9,0.9,1.8,1.7,2.9,2.3c0.7,0.4,1.6,0.8,2,1.5c0.4,0.7,0.3,1.5,0.3,2.3
						c-0.2,2.3-0.4,4.6-0.6,6.9c-0.1,0.8-0.1,1.6,0.3,2.2c0.4,0.6,1.1,0.8,1.6,1.3c1.8,1.6,0.9,5.2,3,6.3c1.8,0.9,3.9-0.9,5.9-0.6
						c1.4,0.2,2.6,1.4,4,1.7c3.4,0.9,6.8-3.3,10-1.9c0.7,0.3,1.2,0.8,1.8,1.3c-9.6,4.4-20.5,7.7-28.3,5.1
						C84.7,213,80.1,198.3,82,184.6z"/>
					<path id="XMLID_190_" class="st18" d="M120.5,199.2c-0.1-4.2,0.8-8.4,2.8-12.1c1.4-2.6,3.5-5.1,6.3-6
						c2.7,5.7,5.1,12.2,3.9,15.3c0,0-5.3,3.8-12.8,7.8C120.7,202.6,120.5,200.9,120.5,199.2z"/>
					<path id="XMLID_187_" class="st18" d="M137.3,191.8c0,0-1-6-4.4-12c0.6-0.9,0.7-2.2,1.5-2.9c2.1-1.7,4.9,2.4,7.5,1.5
						c1.3-0.5,2-2.2,3.3-2.5c1.7-0.5,3.1,1.5,4.8,1.9C146.6,183.9,142.4,189,137.3,191.8z"/>
				</g>
				<g id="Calque_8_-_copie_8">
					<path id="XMLID_89_" class="st19" d="M163.7,130.7c-25.4,13.8-31.6,20.8-39,28.9"/>
					<path id="XMLID_88_" class="st19" d="M97.8,190.3c-4.8,6-8.9,11.7-13.1,22.7"/>
					<path id="XMLID_87_" class="st19" d="M84.7,174.8c1.8-0.6,4.2,1.8,5.5,5.5"/>
					<path id="XMLID_86_" class="st19" d="M102.4,153.6c1-0.3,2.9,2.5,4.2,6.5"/>
					<path id="XMLID_85_" class="st19" d="M123.3,137.4c0.7,0.5,2.4,3.4,2.6,7.5"/>
					<path id="XMLID_84_" class="st20" d="M116.4,141.9c0.4-0.1,1.1,1.2,1.7,2.9"/>
					<path id="XMLID_83_" class="st19" d="M117.8,206.4c0.7-0.2,0.2-3.6-1.2-7.6"/>
					<path id="XMLID_82_" class="st20" d="M150.3,177.3c0.4-0.6-1.9-3.1-5.2-5.6"/>
					<path id="XMLID_81_" class="st19" d="M154.1,170.8c0.4-0.6-1.9-3.1-5.2-5.6"/>
					<path id="XMLID_80_" class="st20" d="M107.4,210.4c1.3-0.4,1.3-3.7,0.1-7.3"/>
				</g>
			</g>
		</g>
		<g id="Calque_15_-_copie_3">
			<g id="Calque_2_-_copie_8">
				<path id="XMLID_165_" class="st13" d="M157.9,127.6c0,0,36.3,46.8,61.9,46.7c0,0-6.8-16.8-1.9-28.3c0,0-0.9,25.2,4.5,29.8
					c0,0,43.2,3,56.3-11.3c0,0-9.2-41.2-34.1-42.9c0,0-2.1,5.6-0.4,14.5c0,0-2.9-8.2-1.5-16.8C242.8,119.4,192.7,98.6,157.9,127.6z"
					/>
				<path id="XMLID_164_" class="st14" d="M164.2,128.3c0,0,29.4,40.9,52.7,40.9c0,0-5.2-14.6,1.6-25.1c0,0-0.9,23,4.1,27.2
					c0,0,38.6,4.3,50.7-8.8c0,0-7.2-36.3-30-37.8c0,0-0.9,7.3,0.7,15.5c0,0-5.2-9.5-3.9-17.3C240.1,122.9,196,101.8,164.2,128.3z"/>
				<path id="XMLID_163_" class="st15" d="M164.2,128.3c0,0,27.9,39.7,51.2,39.6c0,0-3.7-13.3,3.1-23.8c0,0,0.2,22.1,5.2,26.3
					c0,0,35.6,4.7,47.6-8.4c0,0-4.4-34.6-27.2-36.1c0,0-1.7,6.2-0.1,14.4c0,0-6.6-8.7-5.3-16.6C238.7,123.6,196,101.8,164.2,128.3z"
					/>
				<path id="XMLID_162_" class="st21" d="M171.6,130.9c-0.1-1.5,1.5-2.6,3-2.9c1.5-0.2,3.1,0,4.6-0.5c1.7-0.6,3.3-2.4,5-1.9
					c0.8,0.2,1.4,0.8,2.1,1.1c1.1,0.5,2.6,0.3,3.5-0.5c1.4-1.2,1.9-3.5,3.7-3.9c2.1-0.4,4.1,2.5,6.1,1.6c1.4-0.6,1.8-2.8,3.4-3
					c0.4-0.1,0.9,0.1,1.3,0.3c1.7,0.8,2.9,2.5,4.2,3.9s3.2,2.7,5.1,2.1c0.7-0.2,1.4-0.7,2.1-0.8c2.2-0.1,3,3.3,5.2,3.7
					c1.7,0.3,3.2-1.4,4.9-1.7c1.5-0.2,2.9,0.8,3.9,1.9c1.4,1.5,2.4,3.3,3,5.3c0.6,1.9,0.8,4.3,2.6,5.3c0.7,0.4,1.6,0.5,2.4,0.9
					c1.3,0.6,2.2,1.8,2.9,3c0.8,1.2,1.5,2.5,2.7,3.2c1.2,0.8,3,0.9,3.9-0.2c0.8-0.9,0.7-2.2,0.8-3.3s0.6-2.5,1.8-2.7
					c1.5-0.3,2.6,1.6,4.1,1.5c0.6,0,1.1-0.3,1.7-0.4c1.1,0,2,1,2.3,2.1c0.3,1.1,0.1,2.3-0.4,3.3c-0.4,0.6-0.9,1.2-1.2,1.8
					c-0.6,1.4,0,3,0.1,4.5c0.2,1.5-0.5,3.4-2,3.5c-1.5,0.1-2.6-1.7-4.1-1.5c-2,0.3-1.9,3.5-3.6,4.5c-1.2,0.7-2.8,0-3.8-1.1
					s-1.5-2.4-2.5-3.4c-1-1-2.8-1.5-3.8-0.5c-0.6,0.6-0.7,1.5-1,2.3s-1,1.6-1.8,1.5c-0.3-0.1-0.6-0.3-0.9-0.5
					c-2-1.9-1.5-5.7-3.8-7.1c-1-0.6-2.4-0.6-3.3-1.5c-0.9-0.9-0.8-2.4-0.9-3.6c-0.3-3.2-2.4-5.9-4.4-8.5c-0.3-0.4-0.6-0.7-1-1
					c-1.3-0.6-2.7,0.5-3.5,1.7c-0.8,1.2-1.5,2.6-2.9,3c-1.4,0.4-3-0.7-4.3-0.1c-1.5,0.6-1.7,2.7-1.4,4.3c0.3,1.6,0.8,3.4,0,4.8
					c-0.8,1.3-2.8,1.7-4,0.8c-1.4-1-2.1-3.4-3.8-3c-1.1,0.3-1.8,1.7-2.8,1.3c-0.4-0.1-0.7-0.5-0.9-0.9c-1.1-1.7-2-3.5-2.7-5.4
					c-0.5-1.4-0.9-2.8-1.7-3.9c-0.8-1.2-2.2-2.1-3.7-1.8c-1.2,0.2-2.2,1.1-3.4,1.2c-1.9,0-2.9-2.2-3.6-4c-0.7-1.8-2-3.9-3.9-3.5
					c-1,0.2-1.8,1.2-2.9,1.3c-1,0.1-1.9-0.6-2.6-1.3"/>
				<g id="XMLID_152_" class="st17">
					<path id="XMLID_161_" class="st18" d="M192.2,154.6c-0.2-2.2-1.1-4.7-3.1-5.6c-0.7-0.3-1.5-0.4-2.1-0.9c-0.8-0.7-0.9-2-1.7-2.7
						c-1.1-1-3-0.4-4.4-1c-1.5-0.7-2-2.5-3.3-3.6c-1.1-0.9-2.7-1.1-4.1-0.9c5.1,5.8,11.8,12.8,19.1,18.5
						C192.4,157.2,192.4,155.9,192.2,154.6z"/>
					<path id="XMLID_160_" class="st18" d="M182.3,122.8c5-1.7,9.9-3.7,14.6-6.1c1-0.5,2-1,2.9-1.7c-8.6,0.4-17.7,2.3-26.4,7
						C175.3,124.3,179.3,123.8,182.3,122.8z"/>
					<path id="XMLID_159_" class="st18" d="M243.1,132.4c1,1.4,1.4,3.6,3,3.2c0.9-0.2,1.3-1.1,1.6-1.9c0.7-1.7,1.3-3.5,2-5.2
						c0.3-0.7,0.5-1.3,0.8-2c-2.2-1-4.6-1.6-7.2-1.8C243.3,124.7,242.9,127.9,243.1,132.4z"/>
					<path id="XMLID_158_" class="st18" d="M218,124.1c0.5,0.5,1,1.1,1.7,1c1-0.1,1.3-1.5,2.1-2c1.5-1,3.3,1,5,1.6
						c1.4,0.4,3-0.1,4.4,0.6c1.5,0.8,1.9,2.7,2.4,4.3c0.4,1.6,1.4,3.5,3.1,3.6c1.4,0,2.7-1.3,4-1.6c-0.7-2.7-1-5.7-0.5-8.5
						c0,0-12.5-6-29.1-7.6C213.1,118.4,215.5,121.3,218,124.1z"/>
					<path id="XMLID_157_" class="st18" d="M262,136.3c-0.3,1.2-0.8,2.3-1.5,3.4c-0.5,0.7-1,1.4-1,2.3c0,0.8,0.4,1.5,0.9,2.2
						c1.3,1.9,2.6,3.8,3.9,5.8c0.4,0.6,0.9,1.3,0.8,2.1c-0.1,0.7-0.6,1.3-0.8,1.9c-0.8,2.3,1.8,5,0.4,7c-1.1,1.7-3.8,1.1-5.4,2.3
						c-1.2,0.8-1.6,2.4-2.6,3.4c-2.5,2.4-7.6,0.4-9.7,3.1c-0.4,0.6-0.7,1.3-0.9,2c10.5-0.8,21.7-3.1,27.3-9.2
						C273.3,162.5,270.3,147.4,262,136.3z"/>
					<path id="XMLID_156_" class="st18" d="M235.3,167.6c-1.9-3.7-4.8-6.9-8.2-9.3c-2.5-1.7-5.5-2.9-8.4-2.3
						c0.4,6.3,1.4,13.2,3.9,15.3c0,0,6.5,0.7,15,0.7C236.7,170.7,236,169.1,235.3,167.6z"/>
					<path id="XMLID_153_" class="st18" d="M216.9,169.2c0,0-2-5.8-1.9-12.6c-1-0.4-1.6-1.6-2.7-1.8c-2.6-0.5-3.2,4.5-5.8,4.9
						c-1.4,0.2-2.8-1-4.1-0.6c-1.7,0.4-2,2.8-3.3,4C205,166.7,211.1,169.2,216.9,169.2z"/>
				</g>
				<g id="Calque_8_-_copie_7">
					<path id="XMLID_76_" class="st19" d="M164.4,128.3c28.9-0.1,37.7,3.1,48,6.6"/>
					<path id="XMLID_75_" class="st19" d="M250.9,148.9c7.1,2.9,13.4,6,22.4,13.6"/>
					<path id="XMLID_74_" class="st19" d="M254.9,129c-1.9,0.3-2.8,3.7-2.2,7.4"/>
					<path id="XMLID_73_" class="st19" d="M229.2,118.9c-1.1,0.2-1.3,3.6-0.6,7.7"/>
					<path id="XMLID_72_" class="st19" d="M203.1,114.8c-0.4,0.8-0.5,4.1,1.3,7.8"/>
					<path id="XMLID_71_" class="st20" d="M211.3,115.4c-0.4,0.1-0.4,1.6-0.1,3.3"/>
					<path id="XMLID_70_" class="st19" d="M241,172.6c-0.7,0.1-1.9-3.1-2.6-7.2"/>
					<path id="XMLID_69_" class="st20" d="M198.6,162.7c-0.7-0.3,0.2-3.6,1.9-7.5"/>
					<path id="XMLID_68_" class="st19" d="M192.1,158.8c-0.7-0.3,0.2-3.6,1.9-7.5"/>
					<path id="XMLID_66_" class="st20" d="M252.1,171.1c-1.3,0.2-2.9-2.6-3.6-6.4"/>
				</g>
			</g>
		</g>
		<g id="Calque_15_-_copie_2">
			<g id="Calque_2_-_copie_7">
				<path id="XMLID_131_" class="st13" d="M164.6,131.3c0,0,2.3-57.8-16.8-73.8c0,0-5.5,16.9-16.4,22.3c0,0,16.6-18.2,15.4-25
					c0,0-30.3-29.4-49.2-27c0,0-19.1,36.5-1.5,53.5c0,0,5.1-2.8,9.4-10.6c0,0-3,7.9-9.4,13.4C96.1,84,120.4,131,164.6,131.3z"/>
				<path id="XMLID_130_" class="st14" d="M161.1,127.9c0,0,4-50.2-13.9-65.2c0,0-5.4,14.5-17.4,18.1c0,0,15.5-17.1,14.4-23.5
					c0,0-26.7-28.2-44.4-25.9c0,0-17.9,32.4-1.5,48.3c0,0,5.4-5,9.5-12.3c0,0-2.1,10.6-8.2,15.8C99.6,83.1,119.7,127.7,161.1,127.9z
					"/>
				<path id="XMLID_129_" class="st15" d="M161.1,127.9c0,0,4.3-48.3-13.6-63.3c0,0-5.8,12.5-17.7,16.2c0,0,14.1-17,13-23.4
					c0,0-24.1-26.6-41.8-24.3c0,0-18.9,29.3-2.5,45.1c0,0,5.3-3.6,9.3-10.9c0,0-0.6,10.9-6.7,16.1
					C101.1,83.4,119.7,127.7,161.1,127.9z"/>
				<path id="XMLID_128_" class="st16" d="M157.1,121.2c-0.9,1.3-2.9,1-4.2,0.2c-1.3-0.8-2.4-2-3.8-2.5c-1.7-0.6-4-0.3-5.1-1.8
					c-0.5-0.7-0.5-1.5-0.9-2.2c-0.5-1.1-1.7-1.9-3-1.9c-1.8,0-3.7,1.5-5.4,0.6c-1.9-1-1.6-4.6-3.6-5.2c-1.5-0.5-3.2,1-4.5,0.1
					c-0.4-0.2-0.6-0.6-0.8-1c-0.8-1.7-0.6-3.8-0.6-5.7c-0.1-1.9-0.7-4.1-2.5-4.8c-0.7-0.3-1.5-0.3-2.1-0.8c-1.8-1.3-0.2-4.5-1.6-6.2
					c-1.1-1.4-3.3-0.9-4.8-1.9c-1.3-0.8-1.7-2.5-1.8-4c-0.1-2,0.3-4.1,1.1-6c0.8-1.8,2.1-3.8,1.4-5.7c-0.3-0.8-0.9-1.4-1.3-2.2
					c-0.6-1.3-0.5-2.8-0.3-4.2c0.2-1.4,0.4-2.9,0-4.2c-0.4-1.4-1.7-2.6-3.1-2.4c-1.1,0.2-1.9,1.2-2.8,2c-0.8,0.8-2.1,1.5-3.1,0.9
					c-1.3-0.7-1-2.9-2.2-3.8c-0.5-0.4-1.1-0.5-1.6-0.8c-0.9-0.7-0.9-2.1-0.4-3.1c0.5-1,1.4-1.9,2.5-2.2c0.7-0.2,1.4-0.3,2.1-0.6
					c1.3-0.7,1.9-2.3,2.8-3.5c0.8-1.2,2.6-2.3,3.8-1.4c1.2,0.9,0.9,3,2.2,3.8c1.7,1.1,3.7-1.5,5.7-1.1c1.4,0.2,2.1,1.9,2.2,3.3
					s-0.4,2.8-0.3,4.2c0.1,1.4,1.2,2.9,2.6,2.8c0.8-0.1,1.5-0.7,2.2-1.1c0.7-0.4,1.8-0.6,2.3,0c0.2,0.3,0.3,0.6,0.3,1
					c0.3,2.7-2.5,5.3-1.7,7.9c0.4,1.2,1.4,2.1,1.5,3.3c0.1,1.3-0.9,2.3-1.7,3.4c-1.9,2.7-2,6.1-2.1,9.3c0,0.5,0,1,0.2,1.4
					c0.6,1.3,2.4,1.4,3.8,0.9c1.4-0.4,2.8-1.1,4.1-0.4c1.3,0.6,1.8,2.4,3.2,2.9c1.5,0.5,3-0.9,3.9-2.3c0.8-1.4,1.6-3.1,3.1-3.6
					c1.5-0.5,3.2,0.5,3.6,2c0.4,1.7-0.6,4,1,4.7c1,0.5,2.4-0.1,3,0.8c0.2,0.4,0.2,0.8,0.1,1.3c-0.3,2-0.7,4-1.4,5.9
					c-0.5,1.4-1.1,2.7-1.2,4.1s0.4,3,1.6,3.8c1,0.6,2.4,0.5,3.3,1.3c1.5,1.2,0.9,3.5,0.2,5.3c-0.7,1.8-1,4.3,0.7,5.2
					c0.9,0.5,2.2,0.3,3,0.9c0.8,0.6,1,1.7,1.2,2.6"/>
				<g id="XMLID_120_" class="st17">
					<path id="XMLID_127_" class="st18" d="M156.6,89.7c-1.2,1.9-2.2,4.3-1.2,6.3c0.3,0.7,0.9,1.3,1,2.1c0.2,1.1-0.6,2.1-0.5,3.2
						c0.2,1.5,2,2.3,2.7,3.7c0.7,1.5-0.1,3.2,0.2,4.9c0.2,1.4,1.3,2.6,2.6,3.3c-0.1-7.7-0.7-17.4-2.6-26.5
						C158.1,87.7,157.3,88.7,156.6,89.7z"/>
					<path id="XMLID_126_" class="st18" d="M143.7,120.4c-4.9-2-10-3.6-15.1-4.8c-1.1-0.3-2.2-0.5-3.3-0.6
						c6.8,5.2,15.1,9.6,24.7,11.6C149.9,123.8,146.6,121.6,143.7,120.4z"/>
					<path id="XMLID_125_" class="st18" d="M103.4,73.9c0.2-1.7,1.2-3.6-0.2-4.4c-0.8-0.4-1.7,0-2.5,0.4c-1.6,0.9-3.2,1.8-4.9,2.7
						c-0.6,0.3-1.3,0.7-1.9,1c1.1,2.2,2.5,4.2,4.4,6C98.3,79.7,100.6,77.5,103.4,73.9z"/>
					<path id="XMLID_124_" class="st18" d="M117.2,96.5c0-0.7-0.1-1.5-0.7-1.8c-0.8-0.5-1.9,0.3-2.9,0.2c-1.8-0.2-1.9-2.9-2.9-4.4
						c-0.8-1.2-2.4-1.9-3-3.3c-0.7-1.6,0.2-3.3,1-4.8c0.7-1.5,1.2-3.6-0.1-4.7c-1.1-0.9-2.9-0.8-4.1-1.3c-1.2,2.5-2.9,5-5,6.8
						c0,0,5.7,12.7,17.3,24.5C117.2,103.9,117.3,100.2,117.2,96.5z"/>
					<path id="XMLID_123_" class="st18" d="M91.4,58.8c1-0.7,2.1-1.3,3.3-1.6c0.8-0.2,1.7-0.4,2.2-1.1c0.5-0.6,0.6-1.4,0.7-2.2
						c0.3-2.3,0.5-4.6,0.8-6.9c0.1-0.8,0.2-1.6,0.8-2.1c0.5-0.5,1.2-0.6,1.8-1c2.1-1.3,1.9-5,4.2-5.6c1.9-0.6,3.6,1.6,5.6,1.8
						c1.5,0.1,2.8-0.8,4.2-0.9c3.5-0.2,6,4.6,9.5,3.9c0.7-0.1,1.3-0.5,2-0.9c-8.5-6.2-18.6-11.6-26.8-10.6
						C99.7,31.4,92.3,44.9,91.4,58.8z"/>
					<path id="XMLID_122_" class="st18" d="M132.1,52c-0.9,4.1-0.8,8.4,0.3,12.4c0.8,2.9,2.4,5.7,4.9,7.1c3.8-5.1,7.4-11,6.8-14.2
						c0,0-4.5-4.7-11-10.2C133,48.8,132.4,50.4,132.1,52z"/>
					<path id="XMLID_121_" class="st18" d="M147.1,62.7c0,0-2.2,5.7-6.7,10.9c0.5,1,0.2,2.3,0.9,3.1c1.7,2.1,5.3-1.4,7.6,0
						c1.2,0.7,1.5,2.5,2.7,3.1c1.6,0.8,3.3-0.8,5.1-0.9C154.6,72.2,151.6,66.4,147.1,62.7z"/>
				</g>
				<g id="Calque_8_-_copie_6">
					<path id="XMLID_65_" class="st19" d="M160.9,127.8c-22.2-18.6-26.8-26.7-32.5-36"/>
					<path id="XMLID_64_" class="st19" d="M108.1,56.3c-3.6-6.8-6.4-13.2-8.3-24.8"/>
					<path id="XMLID_63_" class="st19" d="M92.2,68.9c1.6,1,4.5-1,6.5-4.3"/>
					<path id="XMLID_62_" class="st19" d="M105.3,93.1c0.9,0.5,3.4-1.9,5.4-5.5"/>
					<path id="XMLID_61_" class="st19" d="M122.6,113.2c0.8-0.4,3-2.8,4.1-6.8"/>
					<path id="XMLID_59_" class="st20" d="M116.7,107.4c0.3,0.2,1.3-0.9,2.2-2.5"/>
					<path id="XMLID_58_" class="st19" d="M130.9,44.5c0.6,0.4-0.6,3.6-2.7,7.2"/>
					<path id="XMLID_57_" class="st20" d="M156.9,79.4c0.3,0.7-2.5,2.7-6.3,4.5"/>
					<path id="XMLID_56_" class="st19" d="M159.4,86.6c0.3,0.7-2.5,2.7-6.3,4.5"/>
					<path id="XMLID_42_" class="st20" d="M121.5,38.5c1.2,0.7,0.5,3.9-1.4,7.2"/>
				</g>
			</g>
		</g>
		<g id="Calque_15_-_copie">
			<g id="Calque_2_-_copie_6">
				<path id="XMLID_98_" class="st13" d="M158.9,132.2c0,0,56.6-11.4,67.6-33.7c0,0-17.7-1.3-25.5-10.6c0,0,21.6,11.8,27.9,9
					c0,0,21.4-36.4,14.6-54.1c0,0-39.9-9.9-52.2,11.1c0,0,4,4.3,12.5,6.6c0,0-8.4-1-15.3-6C188.5,54.6,148.7,89.3,158.9,132.2z"/>
				<path id="XMLID_90_" class="st14" d="M161.3,128.1c0,0,49.7-8.1,60.1-29c0,0-15.3-1.9-21.7-12.6c0,0,20.3,11,26.2,8.4
					c0,0,21.1-32.6,14.7-49.3c0,0-35.7-9.7-47.2,10c0,0,6.2,4.1,14.2,6.3c0,0-10.8,0.5-17.3-4.2C190.2,57.7,151.7,87.8,161.3,128.1z
					"/>
				<path id="XMLID_67_" class="st15" d="M161.3,128.1c0,0,47.9-7.3,58.3-28.2c0,0-13.6-2.6-19.9-13.4c0,0,19.9,9.6,25.8,7.1
					c0,0,20.1-29.7,13.7-46.4c0,0-32.9-11.5-44.4,8.2c0,0,4.8,4.3,12.8,6.5c0,0-10.7,2-17.2-2.7C190.3,59.2,151.7,87.8,161.3,128.1z
					"/>
				<path id="XMLID_55_" class="st16" d="M166.9,122.6c-1.4-0.6-1.7-2.5-1.2-4c0.5-1.5,1.4-2.8,1.6-4.3c0.2-1.8-0.7-4,0.5-5.4
					c0.5-0.6,1.3-0.9,2-1.4c1-0.8,1.4-2.1,1.1-3.3c-0.4-1.8-2.3-3.3-1.8-5.1c0.6-2.1,4.1-2.6,4.2-4.8c0.1-1.5-1.7-2.9-1.2-4.4
					c0.1-0.4,0.5-0.7,0.8-1c1.5-1.2,3.5-1.4,5.4-2s3.8-1.7,4.1-3.6c0.1-0.7,0-1.5,0.3-2.2c0.9-2,4.3-1.2,5.7-3
					c1.1-1.4,0.1-3.5,0.7-5.1c0.5-1.4,2-2.3,3.4-2.7c2-0.6,4.1-0.7,6.1-0.3c2,0.4,4.2,1.2,5.9,0c0.7-0.5,1.2-1.2,1.8-1.8
					c1.1-0.9,2.6-1.1,4-1.3c1.4-0.1,2.9-0.2,4.1-1c1.2-0.7,2.1-2.2,1.6-3.6c-0.4-1.1-1.6-1.6-2.6-2.2c-1-0.6-2-1.7-1.6-2.8
					c0.4-1.4,2.6-1.7,3.2-3c0.2-0.5,0.2-1.2,0.4-1.7c0.5-1,1.8-1.4,2.9-1.1c1.1,0.2,2.1,0.9,2.8,1.8c0.4,0.6,0.6,1.3,1.1,1.8
					c1,1.1,2.6,1.3,4.1,1.9c1.4,0.5,2.8,2,2.3,3.3c-0.6,1.4-2.7,1.6-3.2,3c-0.6,1.9,2.3,3.3,2.5,5.3c0.1,1.4-1.3,2.5-2.7,2.9
					c-1.4,0.4-2.8,0.3-4.2,0.8c-1.3,0.5-2.6,1.9-2.1,3.2c0.3,0.8,1,1.3,1.6,1.9c0.6,0.6,1,1.6,0.5,2.3c-0.2,0.3-0.5,0.5-0.9,0.6
					c-2.6,0.9-5.8-1.2-8.1,0.2c-1,0.6-1.7,1.9-2.8,2.3c-1.2,0.4-2.5-0.4-3.7-0.8c-3-1.2-6.4-0.5-9.6,0.2c-0.5,0.1-0.9,0.2-1.3,0.5
					c-1.1,0.8-0.7,2.6,0,3.9c0.7,1.2,1.7,2.5,1.4,3.9c-0.3,1.4-1.9,2.4-2,3.8c-0.1,1.6,1.6,2.7,3.2,3.2c1.6,0.5,3.4,0.8,4.3,2.1
					c0.8,1.3,0.3,3.3-1.1,4c-1.5,0.8-4,0.4-4.4,2.1c-0.2,1.1,0.7,2.4-0.1,3.1c-0.3,0.3-0.8,0.4-1.2,0.4c-2,0.2-4,0.2-6,0
					c-1.4-0.2-2.9-0.4-4.3-0.2c-1.4,0.2-2.9,1.1-3.3,2.5c-0.3,1.1,0.1,2.5-0.5,3.5c-0.8,1.7-3.2,1.7-5.1,1.5c-1.9-0.2-4.4,0-4.9,1.9
					c-0.3,1,0.2,2.2-0.1,3.2c-0.4,0.9-1.4,1.4-2.3,1.8"/>
				<g id="XMLID_40_" class="st17">
					<path id="XMLID_54_" class="st18" d="M197.3,114.6c-2.1-0.8-4.7-1.1-6.4,0.3c-0.6,0.5-1.1,1.2-1.8,1.5c-1,0.4-2.2-0.1-3.2,0.3
						c-1.4,0.5-1.7,2.5-2.9,3.5c-1.3,1-3.2,0.7-4.7,1.4c-1.3,0.6-2.2,1.9-2.6,3.3c7.5-1.9,16.7-4.8,25.1-8.8
						C199.6,115.6,198.5,115.1,197.3,114.6z"/>
					<path id="XMLID_53_" class="st18" d="M164.4,109.4c0.8-5.2,1.1-10.5,1.1-15.8c0-1.1,0-2.2-0.2-3.3c-3.5,7.9-5.8,16.9-5.5,26.7
						C162.6,116.3,164,112.5,164.4,109.4z"/>
					<path id="XMLID_52_" class="st18" d="M200,59.2c1.7-0.3,3.8,0.3,4.2-1.2c0.2-0.8-0.4-1.7-1-2.3c-1.3-1.4-2.5-2.7-3.8-4.1
						c-0.5-0.5-1-1.1-1.4-1.6c-1.9,1.5-3.5,3.4-4.8,5.7C193.2,55.6,195.9,57.4,200,59.2z"/>
					<path id="XMLID_51_" class="st18" d="M181.4,78c0.7-0.2,1.4-0.5,1.6-1.1c0.3-0.9-0.7-1.8-0.9-2.8c-0.3-1.8,2.3-2.5,3.6-3.8
						c1-1.1,1.3-2.8,2.5-3.6c1.3-1,3.2-0.5,4.9-0.2c1.7,0.3,3.8,0.3,4.6-1.2c0.7-1.3,0.1-3,0.3-4.3c-2.7-0.6-5.5-1.6-7.8-3.3
						c0,0-11,8.6-19.7,22.7C174.2,79.8,177.8,79,181.4,78z"/>
					<path id="XMLID_50_" class="st18" d="M211.9,44c0.9,0.8,1.7,1.8,2.4,2.8c0.4,0.7,0.8,1.5,1.6,1.9c0.7,0.4,1.6,0.3,2.3,0.2
						c2.3-0.3,4.6-0.6,6.9-0.9c0.8-0.1,1.6-0.2,2.3,0.2c0.6,0.4,0.9,1.1,1.4,1.5c1.7,1.7,5.3,0.7,6.5,2.7c1,1.7-0.7,3.9-0.4,5.9
						c0.2,1.4,1.5,2.5,1.9,3.9c1,3.4-3,6.9-1.5,10.1c0.3,0.7,0.8,1.2,1.3,1.7c4-9.7,6.9-20.8,3.9-28.5
						C240.5,45.6,225.6,41.6,211.9,44z"/>
					<path id="XMLID_49_" class="st18" d="M228.1,81.9c-4.2,0-8.3,1.2-11.9,3.2c-2.6,1.5-5,3.7-5.8,6.5c5.8,2.4,12.4,4.6,15.4,3.3
						c0,0,3.5-5.5,7.3-13.1C231.5,82,229.8,81.9,228.1,81.9z"/>
					<path id="XMLID_48_" class="st18" d="M221.3,99.1c0,0-6.1-0.7-12.1-3.9c-0.8,0.7-2.1,0.8-2.8,1.6c-1.6,2.1,2.6,4.8,1.8,7.4
						c-0.4,1.3-2.1,2-2.4,3.4c-0.4,1.7,1.6,3.1,2.1,4.8C213.8,108.6,218.8,104.2,221.3,99.1z"/>
				</g>
				<g id="Calque_8_-_copie_5">
					<path id="XMLID_60_" class="st19" d="M161.3,127.9c12.8-25.9,19.6-32.4,27.3-40.1"/>
					<path id="XMLID_46_" class="st19" d="M218.3,59.6c5.8-5.1,11.3-9.4,22.2-14"/>
					<path id="XMLID_45_" class="st19" d="M202.3,47.2c-0.5,1.8,2,4.2,5.7,5.3"/>
					<path id="XMLID_44_" class="st19" d="M181.8,65.6c-0.3,1,2.7,2.8,6.6,4"/>
					<path id="XMLID_31_" class="st19" d="M166.5,87.2c0.6,0.7,3.5,2.3,7.6,2.3"/>
					<path id="XMLID_7_" class="st20" d="M170.7,80.1c-0.1,0.4,1.2,1.1,2.9,1.6"/>
					<path id="XMLID_6_" class="st19" d="M235.2,79c-0.2,0.7-3.6,0.3-7.7-0.9"/>
					<path id="XMLID_5_" class="st20" d="M207.4,112.6c-0.6,0.5-3.2-1.8-5.8-5"/>
					<path id="XMLID_4_" class="st19" d="M201,116.6c-0.6,0.5-3.2-1.8-5.8-5"/>
					<path id="XMLID_2_" class="st20" d="M238.8,68.4c-0.4,1.3-3.6,1.4-7.3,0.4"/>
				</g>
			</g>
		</g>
	</g>
</g>
<g id="normalCell" class="st22">
	<g id="XMLID_3_" class="st23">
		<path id="XMLID_282_" class="st24" d="M210.6,256.7L90,256.5c-9.4,0-18.2-4.9-22.8-12.8L7,142.3c-4.7-8-4.7-17.7,0-25.7L67.4,15.1
			c4.8-8,13.5-12.8,22.9-12.8l120.6,0.2c9.4,0,18.2,4.9,22.8,12.8l60.2,101.4c4.7,8,4.7,17.7,0,25.7l-60.4,101.4
			C228.7,251.8,220,256.7,210.6,256.7z"/>
	</g>
</g>
</svg>
