<?xml version="1.0" encoding="utf-8"?>
<!-- Generator: Adobe Illustrator 19.0.0, SVG Export Plug-In . SVG Version: 6.00 Build 0)  -->
<svg version="1.0" id="圖層_1" xmlns="http://www.w3.org/2000/svg" xmlns:xlink="http://www.w3.org/1999/xlink" x="0px" y="0px" width="300px" height="260px"
	 viewBox="0 21 300 260" style="enable-background:new 0 21 300 260;" xml:space="preserve">
<style type="text/css">
	.st0{fill:#CCBC5C;}
	.st1{opacity:0.58;fill:#3B2416;enable-background:new    ;}
	.st2{opacity:0.12;enable-background:new    ;}
	.st3{fill:#1F64AF;}
	.st4{opacity:0.75;fill:url(#XMLID_2_);enable-background:new    ;}
	.st5{opacity:0.34;fill:#F1F2F2;enable-background:new    ;}
</style>
<g id="water5">
	<path id="XMLID_24_" class="st0" d="M92.6,252.3c56.5,32.6,128.8,13.3,161.4-43.2s13.3-128.8-43.2-161.4
		C193.9,38,175.7,32.9,157.5,32l0,0c0,0-50.2-2.6-78.1-7.8c-7.2-1.4-7.9,9.9-10.9,8.2L6.7,136.2c2.2,1.3-7,6.5-3.7,10.1
		C21.3,166.1,52.3,214,52.3,214l0,0C62.2,229.3,75.8,242.5,92.6,252.3z"/>
	<path id="XMLID_137_" class="st1" d="M95.9,245.6c53,30.6,120.7,12.4,151.3-40.5s12.4-120.7-40.5-151.3
		c-15.8-9.1-32.9-13.9-50-14.7l0,0c0,0-47.1-2.4-73.3-7.3c-6.7-1.3-7.9-0.4-10.7-2l-66,109.4c2.1,1.2,2.1,3.8,5.3,7.1
		c17.2,18.6,46.2,63.4,46.2,63.4l0,0C67.4,224.1,80.1,236.5,95.9,245.6z"/>
	<path id="XMLID_138_" class="st2" d="M94.8,248.2c54.3,31.4,123.8,12.7,155.1-41.6s12.7-123.8-41.6-155.1
		c-16.2-9.4-33.8-14.3-51.2-15.1l0,0c0,0-48.3-2.5-75.1-7.5c-6.9-1.3-8.1-0.4-11-2L3.3,139c2.1,1.3,2.2,3.8,5.4,7.3
		c17.6,19,47.4,65,47.4,65l0,0C65.5,226.1,78.6,238.8,94.8,248.2z"/>
	<path id="XMLID_136_" class="st3" d="M96.7,243.4c51.9,29.9,118.2,12.2,148.1-39.7S257,85.5,205.1,55.6
		c-15.5-8.9-32.2-13.6-48.9-14.4l0,0c0,0-72.8-3.7-86.3-11.4L6.7,139.2c13.4,7.8,53,69,53,69l0,0C68.8,222.3,81.2,234.4,96.7,243.4z
		"/>
	
		<radialGradient id="XMLID_2_" cx="150" cy="191" r="82.3643" gradientTransform="matrix(1 0 0 1 0 -40)" gradientUnits="userSpaceOnUse">
		<stop  offset="0" style="stop-color:#1B1A52"/>
		<stop  offset="0.3593" style="stop-color:#1A1950;stop-opacity:0.6407"/>
		<stop  offset="0.6341" style="stop-color:#17184B;stop-opacity:0.3659"/>
		<stop  offset="0.8802" style="stop-color:#101542;stop-opacity:0.1198"/>
		<stop  offset="1" style="stop-color:#0B123D;stop-opacity:0"/>
	</radialGradient>
	<path id="XMLID_196_" class="st4" d="M232.4,148.9c1.2,46.1-35.7,84.4-82.4,84.4S66.4,195,67.6,148.9c1.2-44.8,38-80.2,82.4-80.2
		S231.3,104.1,232.4,148.9z"/>
	<g id="圖層_2_拷貝_2">
		<ellipse id="XMLID_134_" class="st5" cx="93.2" cy="107.8" rx="5.9" ry="2.9"/>
		<ellipse id="XMLID_133_" class="st5" cx="121.6" cy="121.5" rx="4" ry="2.2"/>
		<ellipse id="XMLID_131_" class="st5" cx="166.6" cy="112.8" rx="4" ry="2.2"/>
		<ellipse id="XMLID_128_" class="st5" cx="180" cy="146.9" rx="4" ry="2.2"/>
		<ellipse id="XMLID_125_" class="st5" cx="134.2" cy="158.2" rx="4" ry="2.2"/>
		<ellipse id="XMLID_104_" class="st5" cx="110.1" cy="169.5" rx="2.6" ry="1.2"/>
		<ellipse id="XMLID_102_" class="st5" cx="165" cy="181.2" rx="4" ry="2.2"/>
		<ellipse id="XMLID_78_" class="st5" cx="99.1" cy="194.2" rx="4" ry="2.2"/>
	</g>
</g>
</svg>
