<?xml version="1.0" encoding="utf-8"?>
<!-- Generator: Adobe Illustrator 19.0.0, SVG Export Plug-In . SVG Version: 6.00 Build 0)  -->
<svg version="1.0" id="圖層_1" xmlns="http://www.w3.org/2000/svg" xmlns:xlink="http://www.w3.org/1999/xlink" x="0px" y="0px" width="300px" height="260px"
	 viewBox="0 0 300 260" style="enable-background:new 0 0 300 260;" xml:space="preserve">
<style type="text/css">
	.st0{fill:url(#XMLID_2_);stroke:#3A2C2C;stroke-width:3;stroke-miterlimit:10;}
	.st1{opacity:0.34;fill:#F1F2F2;}
</style>
<g id="Calque_12">
	<radialGradient id="XMLID_2_" cx="160.3938" cy="128.9001" r="30.9463" gradientUnits="userSpaceOnUse">
		<stop  offset="0" style="stop-color:#E93E3A"/>
		<stop  offset="0.6413" style="stop-color:#ED683C"/>
		<stop  offset="1" style="stop-color:#F3903F"/>
	</radialGradient>
	<path id="XMLID_54_" class="st0" d="M150.9,151.3c-4.4,1.1-8.1-5.4-12.7-6c-2.9-0.4-6.3,0.7-8.5-1.1c-1-0.8-1.5-2.1-2-3.3
		c-1-2.8-1.8-5.9-1.2-8.8c0.6-3.4,2.9-6.3,3.7-9.7c0.6-2.3,0.4-4.8,0.7-7.2c0.3-2.4,1.1-4.9,3-6.3c1.2-0.9,2.7-1.3,4.1-1.5
		c7.4-1.3,15.4-0.3,22-3.8c1.9-1,3.9-2.4,5.9-1.7c0.7,0.3,1.4,0.8,1.9,1.3c3.6,3.1,7.2,6.1,10.8,9.2c1.3,1.1,2.7,2.3,3.5,3.9
		c0.6,1.2,0.9,2.5,1.7,3.6c1.7,2.3,5.1,2.7,7.1,4.8c0.8,0.8,1.3,1.9,1.7,2.9c1.3,3.1,1.9,6.5,1.9,9.9c0,0.7,0,1.4-0.4,2.1
		c-0.4,0.8-1.2,1.2-2,1.6c-3.4,1.7-7.3,2-11,2.7c-3.7,0.7-7.6,1.9-10,4.9c-2.3,2.8-3.6,7.3-7.2,7.7c-2.4,0.3-4.4-1.4-6.3-2.9
		C155.8,151.8,153,150.5,150.9,151.3"/>
</g>
<g id="top">
	<ellipse id="XMLID_254_" class="st1" cx="152.2" cy="118.5" rx="4" ry="2"/>
	<ellipse id="XMLID_253_" class="st1" cx="170.7" cy="137.6" rx="2.6" ry="1.5"/>
	<ellipse id="XMLID_252_" class="st1" cx="144.2" cy="128.5" rx="2.6" ry="1.5"/>
	<ellipse id="XMLID_251_" class="st1" cx="171.1" cy="125" rx="3.4" ry="1.7"/>
	<ellipse id="XMLID_250_" class="st1" cx="150.1" cy="136.7" rx="4" ry="2"/>
</g>
</svg>
