<?xml version="1.0" encoding="utf-8"?>
<!-- Generator: Adobe Illustrator 19.0.0, SVG Export Plug-In . SVG Version: 6.00 Build 0)  -->
<svg version="1.0" id="圖層_1" xmlns="http://www.w3.org/2000/svg" xmlns:xlink="http://www.w3.org/1999/xlink" x="0px" y="0px" width="300px" height="260px"
	 viewBox="0 21 300 260" style="enable-background:new 0 21 300 260;" xml:space="preserve">
<style type="text/css">
	.st0{fill:#CCBC5D;}
	.st1{opacity:0.58;fill:#3C2415;enable-background:new    ;}
	.st2{opacity:0.12;fill:#030302;enable-background:new    ;}
	.st3{fill:#1E63AF;}
	.st4{opacity:0.75;fill:url(#XMLID_2_);enable-background:new    ;}
	.st5{opacity:0.34;fill:#F1F2F2;enable-background:new    ;}
	.st6{fill:none;stroke:#414042;stroke-width:3;stroke-miterlimit:10;}
	.st7{fill:#6D6E71;}
	.st8{opacity:0.61;fill:#E6E7E8;enable-background:new    ;}
	.st9{opacity:0.3;fill:#FFFFFF;enable-background:new    ;}
	.st10{opacity:0.52;fill:url(#XMLID_3_);enable-background:new    ;}
	.st11{opacity:0.18;fill:#FFFFFF;enable-background:new    ;}
	.st12{opacity:0.52;fill:url(#XMLID_4_);enable-background:new    ;}
</style>
<g id="water1">
	<path id="XMLID_8_" class="st0" d="M270.9,144.9c1.6,22.6-5.3,43.4-14.8,62.9c-1.6,3.3-3.2,6.5-4.9,9.6
		C236,251,199,269,163.1,269.5c-3.7,0.4-7.5,0.6-11.4,0.7c-3.4,0.1-6.8,0-10.2-0.2s-6.7-0.6-10-1c-10.9-1.2-21.7-3.6-31.8-7.4
		c-3.4-1.2-6.7-2.6-9.9-4.2C57,247,36,215,31.9,182.3c-0.7-2.6-1.3-5.2-1.8-7.8c-2.1-10.5-3.1-21.3-2.7-32c0.1-3.1,0.3-6.1,0.6-9.1
		C34,100,49,65,78.4,46.1c2.7-1.6,5.6-2.9,8.6-4.1c5.9-2.4,12.3-4.1,19.1-4.8c3.1-0.8,6.2-1.5,9.3-2.1c3.9-1,7.8-1.8,11.8-2.5
		c4-0.6,8-1.1,12.1-1.3c22.4-1.4,43.9,3.3,62.8,12.6c3.1,1.6,6.2,3.2,9.2,5c30.2,13.6,51.1,41.7,56.6,73.9c0.6,3.6,1,7.2,1.3,10.9
		C270,137.3,270.5,141.1,270.9,144.9z"/>
	<circle id="XMLID_75_" class="st1" cx="150" cy="151" r="111"/>
	<circle id="XMLID_26_" class="st2" cx="150" cy="151" r="115"/>
	<circle id="XMLID_22_" class="st3" cx="150" cy="151" r="108.4"/>
	
		<radialGradient id="XMLID_2_" cx="150" cy="191" r="82.3643" gradientTransform="matrix(1 0 0 1 0 -40)" gradientUnits="userSpaceOnUse">
		<stop  offset="0" style="stop-color:#1B1A52"/>
		<stop  offset="0.3593" style="stop-color:#1A1950;stop-opacity:0.6407"/>
		<stop  offset="0.6341" style="stop-color:#17184B;stop-opacity:0.3659"/>
		<stop  offset="0.8802" style="stop-color:#101542;stop-opacity:0.1198"/>
		<stop  offset="1" style="stop-color:#0B123D;stop-opacity:0"/>
	</radialGradient>
	<path id="XMLID_21_" class="st4" d="M232.4,148.9c1.2,46.1-35.7,84.4-82.4,84.4S66.4,195,67.6,148.9c1.2-44.8,38-80.2,82.4-80.2
		S231.3,104.1,232.4,148.9z"/>
	<g id="圖層_2_拷貝">
		<ellipse id="XMLID_73_" class="st5" cx="93.2" cy="107.8" rx="5.9" ry="2.9"/>
		<ellipse id="XMLID_71_" class="st5" cx="121.6" cy="121.5" rx="4" ry="2.2"/>
		<ellipse id="XMLID_68_" class="st5" cx="166.6" cy="112.8" rx="4" ry="2.2"/>
		<ellipse id="XMLID_56_" class="st5" cx="180" cy="146.9" rx="4" ry="2.2"/>
		<ellipse id="XMLID_54_" class="st5" cx="134.2" cy="158.2" rx="4" ry="2.2"/>
		<ellipse id="XMLID_51_" class="st5" cx="110.1" cy="169.5" rx="2.6" ry="1.2"/>
		<ellipse id="XMLID_43_" class="st5" cx="165" cy="181.2" rx="4" ry="2.2"/>
		<ellipse id="XMLID_30_" class="st5" cx="99.1" cy="194.2" rx="4" ry="2.2"/>
	</g>
	<g id="圖層_13">
		<path id="XMLID_119_" class="st6" d="M48.6,221.3c0,0-1.1-0.7-0.8-2.3c0.3-1.8,2-6.6,2.3-7.4c0-0.1,0-0.1,0-0.2
			c0.1-0.4,0.5-1.9,3.2-2.3c2.1-0.3,4.2-0.8,5.3-1.1c0.7-0.2,1.4,0,1.9,0.6c0.1,0.1,0.2,0.2,0.2,0.3c0.8,1.1,4.7,7,5.5,8.2
			c0.1,0.1,0.2,0.2,0.3,0.3c0.3,0.3,1,1.1-0.1,2.5c-1.4,1.7-3.2,3.4-3.2,3.4s-0.6,0.7-1.6,0.9c-0.9,0.1-8.2-0.9-9.1-1
			c-0.1,0-0.1,0-0.2,0C52.1,223.1,50.8,222.9,48.6,221.3z"/>
		<path id="XMLID_124_" class="st7" d="M48.6,221.3c0,0-1.1-0.7-0.8-2.3c0.3-1.8,2-6.6,2.3-7.4c0-0.1,0-0.1,0-0.2
			c0.1-0.4,0.5-1.9,3.2-2.3c2.1-0.3,4.2-0.8,5.3-1.1c0.7-0.2,1.4,0,1.9,0.6c0.1,0.1,0.2,0.2,0.2,0.3c0.8,1.1,4.7,7,5.5,8.2
			c0.1,0.1,0.2,0.2,0.3,0.3c0.3,0.3,1,1.1-0.1,2.5c-1.4,1.7-3.2,3.4-3.2,3.4s-0.6,0.7-1.6,0.9c-0.9,0.1-8.2-0.9-9.1-1
			c-0.1,0-0.1,0-0.2,0C52.1,223.1,50.8,222.9,48.6,221.3z"/>
		<path id="XMLID_112_" class="st8" d="M56.8,219.5l0.2-2.1c0,0,0.1-0.4,0.5-0.4s3.8,0.2,3.8,0.2l-4.1-0.5c0,0-0.3-0.1-1.2-0.8
			c-0.8-0.7-1.7-1.4-1.7-1.4s2.4,2,2.4,2.6S56.8,219.5,56.8,219.5z"/>
		<path id="XMLID_107_" class="st9" d="M53.1,223.1c0.7,0.1,1.9,0.2,3.1,0.4l0,0c0.1,0,0.2,0,0.3,0l0,0l0.1-0.2l0.2-6.7l-6.4-5.9
			c0,0.1-0.1,0.1-0.1,0.2l0,0c0,0.1,0,0.1-0.1,0.2l0,0v0.1l0,0v0.1c0,0.1,0,0.1,0,0.2c-0.3,0.8-2,5.6-2.3,7.4
			c-0.3,1.6,0.8,2.3,0.8,2.3c2.2,1.7,3.5,1.8,3.8,1.8c0.1,0,0.1,0,0.2,0C52.7,223.1,52.8,223.1,53.1,223.1L53.1,223.1z"/>
		
			<linearGradient id="XMLID_3_" gradientUnits="userSpaceOnUse" x1="85.3843" y1="239.3337" x2="85.3843" y2="247.9167" gradientTransform="matrix(0.6088 -0.7933 0.7933 0.6088 -185.3187 139.7706)">
			<stop  offset="0" style="stop-color:#FFFFFF"/>
			<stop  offset="3.264958e-002" style="stop-color:#FFFFFF;stop-opacity:0.9674"/>
			<stop  offset="1" style="stop-color:#FFFFFF;stop-opacity:0"/>
		</linearGradient>
		<path id="XMLID_93_" class="st10" d="M56.8,217.7v0.9c0,0-0.1,4-0.2,4.6c0,0.2,0,0.3,0.2,0.4c2.2,0.3,4.4,0.5,4.9,0.4
			s1-0.3,1.3-0.6l0,0c0,0,0.4-3,0.6-4.4c0.2-1.3-0.4-1.8-0.4-1.8s-4.3-0.4-5.3-0.5C56.7,216.8,56.8,217.7,56.8,217.7z"/>
		<path id="XMLID_88_" class="st11" d="M64.5,216.2c0,0,0-0.2,0.2-0.3s0.3-0.1,0.2,0c0,0.1-0.1,0.3-0.2,0.3
			C64.5,216.3,64.5,216.2,64.5,216.2z"/>
		<path id="XMLID_77_" class="st11" d="M64.2,219.4c0,0,0.2-0.1,0.3,0c0.2,0.1,0.2,0.2,0.1,0.2s-0.3,0.1-0.4,0
			C64.1,219.5,64.2,219.4,64.2,219.4z"/>
		<path id="XMLID_70_" class="st11" d="M58.1,210.1c0,0-0.1-0.2,0.1-0.3c0.1-0.1,0.2-0.2,0.2-0.1c0,0.1,0,0.3-0.1,0.4
			C58.2,210.2,58.1,210.1,58.1,210.1z"/>
		<path id="XMLID_60_" class="st11" d="M56.7,216v-0.1c0.1,0,0.1,0,0.1,0S56.8,216,56.7,216C56.7,216.1,56.7,216,56.7,216z"/>
	</g>
	<g id="圖層_13_拷貝">
		<path id="XMLID_103_" class="st6" d="M81.3,231.4c0,0,1.1,0.7,0.9,2.3c-0.2,1.8-1.7,6.7-1.9,7.5c0,0.1,0,0.1,0,0.2
			c0,0.4-0.4,1.9-3,2.5c-2.1,0.4-4.1,1-5.2,1.4c-0.7,0.2-1.4,0-1.9-0.5c-0.1-0.1-0.2-0.2-0.2-0.3c-0.9-1-5-6.7-6-7.9
			c-0.1-0.1-0.2-0.2-0.3-0.3c-0.3-0.3-1.1-1,0-2.5c1.4-1.8,3-3.5,3-3.5s0.6-0.8,1.5-1s8.2,0.4,9.1,0.5c0.1,0,0.1,0,0.2,0
			C77.7,229.8,79,229.9,81.3,231.4z"/>
		<path id="XMLID_111_" class="st7" d="M81.3,231.4c0,0,1.1,0.7,0.9,2.3c-0.2,1.8-1.7,6.7-1.9,7.5c0,0.1,0,0.1,0,0.2
			c0,0.4-0.4,1.9-3,2.5c-2.1,0.4-4.1,1-5.2,1.4c-0.7,0.2-1.4,0-1.9-0.5c-0.1-0.1-0.2-0.2-0.2-0.3c-0.9-1-5-6.7-6-7.9
			c-0.1-0.1-0.2-0.2-0.3-0.3c-0.3-0.3-1.1-1,0-2.5c1.4-1.8,3-3.5,3-3.5s0.6-0.8,1.5-1s8.2,0.4,9.1,0.5c0.1,0,0.1,0,0.2,0
			C77.7,229.8,79,229.9,81.3,231.4z"/>
		<path id="XMLID_91_" class="st8" d="M73.2,233.6l-0.1,2.1c0,0,0,0.4-0.5,0.5c-0.4,0.1-3.8,0-3.8,0l4.1,0.3c0,0,0.3,0.1,1.2,0.8
			s1.8,1.4,1.8,1.4s-2.5-1.9-2.5-2.4C73.4,235.6,73.2,233.6,73.2,233.6z"/>
		<path id="XMLID_66_" class="st9" d="M76.7,229.8c-0.7-0.1-1.9-0.2-3.1-0.2l0,0c-0.1,0-0.2,0-0.3,0l0,0l-0.1,0.2l0.2,6.7L80,242
			c0-0.1,0.1-0.1,0.1-0.2l0,0c0-0.1,0-0.1,0.1-0.2l0,0v-0.1l0,0v-0.1c0-0.1,0-0.1,0-0.2c0.2-0.8,1.7-5.6,1.9-7.5
			c0.2-1.6-0.9-2.3-0.9-2.3c-2.3-1.6-3.6-1.6-3.9-1.6c-0.1,0-0.1,0-0.2,0C77.2,229.8,77,229.8,76.7,229.8
			C76.8,229.8,76.7,229.8,76.7,229.8z"/>
		
			<linearGradient id="XMLID_4_" gradientUnits="userSpaceOnUse" x1="122.7975" y1="331.2405" x2="122.7975" y2="339.82" gradientTransform="matrix(-0.5665 0.8241 -0.8241 -0.5665 416.1629 321.7407)">
			<stop  offset="0" style="stop-color:#FFFFFF"/>
			<stop  offset="3.264958e-002" style="stop-color:#FFFFFF;stop-opacity:0.9674"/>
			<stop  offset="1" style="stop-color:#FFFFFF;stop-opacity:0"/>
		</linearGradient>
		<path id="XMLID_65_" class="st12" d="M73.3,235.4v-0.9c0,0-0.1-4-0.1-4.6c0-0.2-0.1-0.3-0.2-0.4c-2.2-0.2-4.4-0.3-4.9-0.2
			s-1,0.4-1.2,0.6l0,0c0,0-0.2,3.1-0.4,4.4c-0.1,1.3,0.5,1.8,0.5,1.8s4.3,0.2,5.3,0.2C73.4,236.3,73.3,235.4,73.3,235.4z"/>
		<path id="XMLID_64_" class="st11" d="M65.8,237.3c0,0,0,0.2-0.1,0.3c-0.2,0.1-0.3,0.1-0.2,0C65.5,237.5,65.6,237.3,65.8,237.3
			C65.7,237.2,65.8,237.3,65.8,237.3z"/>
		<path id="XMLID_62_" class="st11" d="M65.8,234.1c0,0-0.1,0.1-0.3,0c-0.2-0.1-0.2-0.2-0.1-0.2s0.3-0.1,0.4,0
			S65.8,234.1,65.8,234.1z"/>
		<path id="XMLID_61_" class="st11" d="M72.4,243c0,0,0.1,0.2,0,0.3s-0.2,0.2-0.2,0.1C72.2,243.3,72.2,243.1,72.4,243
			C72.3,242.9,72.4,243,72.4,243z"/>
		<path id="XMLID_59_" class="st11" d="M73.5,237.1v0.1h-0.1C73.4,237.1,73.4,237.1,73.5,237.1C73.5,237,73.5,237.1,73.5,237.1z"/>
	</g>
</g>
</svg>
