<?xml version="1.0" encoding="utf-8"?>
<!-- Generator: Adobe Illustrator 19.0.0, SVG Export Plug-In . SVG Version: 6.00 Build 0)  -->
<svg version="1.0" id="圖層_1" xmlns="http://www.w3.org/2000/svg" xmlns:xlink="http://www.w3.org/1999/xlink" x="0px" y="0px" width="300px" height="260px"
	 viewBox="0 21 300 260" style="enable-background:new 0 21 300 260;" xml:space="preserve">
<style type="text/css">
	.st0{opacity:0.8;}
	.st1{opacity:0.81;}
	.st2{fill:#F1F2F2;}
	.st3{opacity:0.81;fill:#F1F2F2;enable-background:new    ;}
</style>
<g id="water1">
	<g id="XMLID_74_" class="st0">
		<g id="XMLID_324_">
			<g id="XMLID_381_">
				<g id="XMLID_409_">
					<g id="XMLID_410_" class="st1">
						<path id="XMLID_411_" class="st2" d="M183.5,169.8L183.5,169.8c3.7-0.6,6.5-0.8,7.9-0.9c14.4-1.7,61,18,61,18l0.6-2.3
							c-0.9-0.9-42.4-20.8-62.6-21.1c-13.7-0.2-23.9,6.5-46.7,5.1c-26.7-1.7-25.9-15.8-25.6-17.6c0-0.1,0.1-0.2,0.1-0.3
							c1-2.1,12.4-25.4,25.3-13.8c11.3,10.2,24.4,7.1,28.9,5.9c2.4-0.6,5.3-3.1,5.3-3.1l0,0c16.7,1.9,27.9-3,38.2-4.6
							c0.8-0.1,40.3-6.4,40-7.1l-0.5-2.2c-0.3-0.7-34.4,5.4-40.4,6.7c-3.7,0.8-14.5,4.7-37.2,3.3c-26.7-1.7-25-16.6-24.6-18.5
							c0-0.1,0.1-0.2,0.1-0.3c1-2.1,12.4-25.4,25.3-13.8c11.3,10.2,25.2,9.9,29.5,8.2c2.5-1,39.4-7,39.3-7.8l-1-1.9
							c-0.1-0.9-36.3,5.9-37.2,6.2c-14.3,5.4-23.1-7.2-34.6-10.4c-11.8-3.5-17.7,16.7-31.6,13.1c-13.8-3.6-8.7-11.3-3.9-13.6
							c4.4-2.2,17.8-23.3,21.3-29.7c1.2-2.3,9-22.8,8.1-23l-1.9-0.4c-0.6-0.1-9.4,21.9-9.6,22.4c-2.4,4.9-13,25-20.1,27
							c-7.5,2.1-17.9,7-30.5,1.8c-10.7-4.4-0.7-37.5,1.8-44.1l-2.1,0.9c0,0-3,8-3.2,8.5c-1,2.4-3.7,9.4-5.8,24.2
							c-2.5,17.5,16.7,16.3,18.8,16.1c0.9-0.1,3.4-0.6,6.2-0.7c-2.4,4.9-13,25.1-20.1,27.1c-7.5,2.1-17.9,7-30.5,1.8
							c-10.7-4.4-4.7-28.5-4.4-35.6c0.1-3-2.4-7.7-3.4-7.7L62.5,87c0,0,1,2,1.4,5.4c0.3,2.4,0.2,11-1.9,25.8
							c-2.5,17.5,16.7,16.3,18.8,16.1c2.1-0.2,13.7-2.8,14.6,3c0.4,2.3,1.7,4.4,3.6,6.3l0,0l2.7,2.3c2.7,1.9,5.7,3.2,8.5,3.9
							c4.4,1.2,4,3.4,4.6,7.2l1.3,4.3c0.1,0.1,0.2,0.3,0.3,0.4c6.9,6.9,16.8,9.9,27.2,10.9l2.5,0.2c12.1,0.8,24.6-0.9,33.6-2.3l0,0
							L183.5,169.8z M124.5,99.9h-1C123.8,99.8,124.1,99.9,124.5,99.9z M108,144.3c-13.8-3.6-8.7-11.3-3.9-13.6
							c4.4-2.2,18.5-24.2,22.1-30.6c2.1,0.4,3.9,1.4,4.2,3.5c1,6.2,8.8,10.9,14.8,12.4c5.9,1.5,3.2,5.1,5.8,11.4
							c0.1,0.2,0.2,0.3,0.3,0.5c6.5,6.6,14.8,9.9,23.3,11.3l0,0c-14.3,5.4-23.4-4.9-34.9-8.1C127.8,127.7,121.9,147.9,108,144.3z"/>
					</g>
				</g>
				<g id="XMLID_407_">
					<path id="XMLID_408_" class="st3" d="M99,143.6c0,0,0,1.1-1.4,1.7c-4.6,2.2-15.3,7.8-18,12c-3.5,5.4-36.9,9.1-36.9,9.1l0.1,1.9
						c0,0,19-1.4,25.3-2.2c5.4-0.6,13.2-4,15.5-8.2c1.8-3.1,10.7-8.7,15.1-11.2c1.4-0.8,3-0.8,3-0.8l-0.1-0.1L99,143.6L99,143.6z"/>
				</g>
				<g id="XMLID_388_">
					<path id="XMLID_406_" class="st3" d="M114.9,156.9c0,0-0.2,1.2-1,1.6c-5.2,2.3-25.5,11.7-27.6,14.4c-2.3,3.1-1.1,9.1-1.4,17.4
						c-0.2,7.8-26.3,19.2-26.3,19.2l1.6,2.4c0,0,20.5-9.3,25.2-14.4c5.8-6.2,1.8-20.1,3.9-22.8c2.4-3.1,19-10.8,24.6-13.3
						c1.2-0.5,2.2,0,2.2,0l0,0L114.9,156.9L114.9,156.9z"/>
				</g>
				<g id="XMLID_386_">
					<path id="XMLID_387_" class="st3" d="M143.5,172.5c0,0-6.5,11.6-2.6,30.5s-49.4,38.3-50.5,38l1.5,1.4c0,0,27.5-9.2,37.8-17.7
						c7.3-6,13.4-14.1,13.4-14.1s8.1-3.1,15.6-0.7c4.8,1.6,10.3,10.3,16.7,16.3C185.6,235.9,207,243,207,243s0-0.7,2.8-1.4
						c-21-8.8-35.9-21.1-43.3-29.9c-7.2-8.6-22.1-4.6-22.1-4.6s-0.9-12.2-1.9-18.2c-1.1-6,3.9-16.2,3.9-16.2h-0.1l-2.5-0.2
						L143.5,172.5z"/>
				</g>
				<g id="XMLID_384_">
					<path id="XMLID_385_" class="st3" d="M178.9,191.3c-0.6-3.4,4.6-21.5,4.6-21.5l0,0l-3.8,0.6l0,0c-0.2,0-0.4,0.2-0.5,0.4
						c-0.7,2.6-4.8,18.5-3.8,21.4c1.1,3.1,6.8,16.4,13.5,20.3c4.3,2.4,36,16.8,36,16.8l1.9-1.6c0,0-30-15.5-32.5-17.1
						C188.3,206.9,179.8,196.3,178.9,191.3z"/>
				</g>
				<g id="XMLID_382_">
					<path id="XMLID_383_" class="st3" d="M175.3,226.3C185.6,235.9,207,243,207,243l2.8-1.4"/>
				</g>
			</g>
		</g>
	</g>
</g>
</svg>
