<svg version="1.0" xmlns="http://www.w3.org/2000/svg" width="300" height="260" style="enable-background:new 0 0 300 260" xml:space="preserve"><style>.st0{display:none}.st2,.st8,.st9{display:inline}.st8,.st9{fill:#515250}.st9{fill:#262626}.st10{fill:#fbf7cb}.st11{fill:#f3eab1}.st14{fill:#efa624}.st15{fill:#fff48b}.st16{fill:#e0c17d}.st17{fill:#cbb577}.st18{fill:#fffad9}.st19{fill:#f7f0d0}.st20{fill:#fffada}</style><g id="fireDust2"><g id="base_-_copie"><path id="XMLID_17_" class="st10" d="M125.1 72.8c10-8.3 23.6-2.4 23.6-2.4s9.6-11.1 20.1-7.9c7.5 2.3 7.4 9.6 7.4 9.6s10 1 8.8 6.8c0 0 8-2.7 13.4 1 5.3 3.7 7.1 18.2 7.1 18.2s15.6-5.8 14.4 16.2c-1.2 22-4 35-12.9 34.3 0 0 3.7 8.8-8.9 9.9 0 0 12.6 16.5.9 28-11.8 11.5-18.4 12.2-27.7 3.2 0 0-1 3-5.8 1.3s-4.2-5.3-4.2-5.3-.6 2.9-4.8 2-4.6-4.7-4.6-4.7-.8 3.2-3.8 3.9c-3 .7-5.9-.2-5.9-.2s-6.9 9.7-18.8 7.4c-11.9-2.2-15.1-16.3-15.1-16.3s-3.9 1.3-10.9-4-4.3-9.7-4.3-9.7-20.7-7.1-19.2-34c.7-7.9 12.1-19.1 16.5-18.1 0 0-3.8-4-1.8-9.2 2-5.2 6.4-7.2 9.4-6.5 0 0 2.3-23.4 26.5-23.1"/></g><g id="Calque_26_-_copie"><g id="XMLID_14_"><path id="XMLID_16_" class="st11" d="M205 130.5c3.9 5.9-4.3 11-4.6 11.5-.5 9-10.6 7.4-10.6 7.4 3.6 1.8 1.7 7.5 1.7 7.5-3.9 8.3-16.4 2.4-16.4 2.4-6.3-8.5-5.3-14.4-5.3-14.4s-1.4 7.5-11 10.6c-10.6 3.4-18.6-11.4-18.6-11.4s-1.1 4.2-5.7 6.3-8.5-2.3-8.5-2.3-1 2.8-8.6 1.5c-7.7-1.3-8.9-9.3-8.9-9.3s-3.5 1.7-11.1-2.5c-7.6-4.3 2.5-12.6 2.5-12.6 1.9-5.2-3.4-11.5-3.4-11.5-2.9-.2-5-.8-6.5-1.5-4.7-.2-15.4 10.4-16.1 18.1-1.5 26.8 19.2 34 19.2 34s-2.6 4.4 4.3 9.7c7 5.3 10.9 4 10.9 4s3.1 14 15.1 16.3c11.9 2.2 18.8-7.4 18.8-7.4s2.9.9 5.9.2c3-.7 3.8-3.9 3.8-3.9s.4 3.7 4.6 4.7c4.2 1 4.8-2 4.8-2s-.6 3.6 4.2 5.3c4.8 1.7 5.8-1.3 5.8-1.3 9.3 9.1 13 6.3 24.8-5.2s.8-27.4.8-27.4c12.5-1 10.1-8.4 10.1-8.4 8.7.7 10.3-11.2 11.5-32.9-3.5 8.2-13.5 14.5-13.5 14.5z"/></g></g><g id="details_-_copie"><g id="XMLID_11_"><path id="XMLID_13_" class="st16" d="M139.2 181.7s-2.7 12.9-19.6 7.6c-9-2.8-7.7-15.9-7.7-15.9s-5.1 3.9-13-2.1c-8.9-6.7 6.3-21 6.3-21-9.5-2.4-11.6 10.1-12.3 10-17.6-9.3-16.1-32.2-14.4-39.9-2.5 3.1-4.4 6.7-4.6 9.8-1.5 26.8 19.2 34 19.2 34s-2.6 4.4 4.3 9.7c7 5.3 10.9 4 10.9 4s3.1 14 15.1 16.3c11.9 2.2 18.8-7.4 18.8-7.4s.9.3 2.2.4l-2.3-1.8c-.6-.4-1-.9-1.4-1.5l-1.5-2.2z"/><path id="XMLID_12_" class="st16" d="M164.4 169.6c-4.7 3.7-3.4 14.8-3.4 14.8-3.7 4.4-9.1-2.1-9.1-2.1v.7s.4 3.7 4.6 4.7c4.2 1 4.8-2 4.8-2s-.6 3.6 4.2 5.3c4.8 1.7 5.8-1.3 5.8-1.3-10.1-.7-6.9-20.1-6.9-20.1z"/></g><path id="XMLID_9_" class="st17" d="M138.7 95.6s9.4-6.6 23.6 2.2c0 0 6.2-14.5 18.4-10.3 0 0-14.7-.1-18.4 13.4 0 0-4.5-9.8-23.6-5.3z"/><path id="XMLID_8_" class="st17" d="M214 105.2s-4.9 5.5-9.4 5c0 0 2.5 13.4-7.6 13.5 0 0 5.5 1.9 7.5-3.4s1.1-9.3 1.1-9.3 7.2-1.4 8.4-5.8z"/><path id="XMLID_7_" class="st17" d="M108.8 122.5s-4.7 8.6 6.3 10.6c0 0-1.4 3.8 4.4 5.7s7.7.7 7.7.7-4.4 3.2-9.8-.2c-5.5-3.4-3.6-5.4-3.6-5.4s-4.6-.7-6.7-4c-2.1-3.4 1.7-7.4 1.7-7.4z"/><path id="XMLID_6_" class="st18" d="M130.1 120.5s3.6 12.4 13.9 10.6c10.2-1.8 12.6-11.1 12.6-11.1s7.4-2.5 3.8-7.8c-3.6-5.3-20.1-3.6-20.1-3.6s-21.6-9.3-23.2 3 13 8.9 13 8.9z"/><path id="XMLID_5_" class="st19" d="M123.7 172.7s-7.5.7-8.2-5.7c-.7-6.5 4.9-6 4.9-6s1.7-5.5 7.6-3.3c4.2 1.6 7.5 4 9 5.3.6.5 1 1.2 1 2 .1 1.9 0 5.4-2 7.7-2.8 3.1-6.8 2.2-6.8 2.2s-1.4 1.5-3.6.4c-2.3-1.1-1.9-2.6-1.9-2.6z"/><path id="XMLID_4_" class="st20" d="M137.5 83s-5.4-1.5-3.1-6.2c2.3-4.7 9-.8 9-.8s6.2-1.1 7.8 1.7c1.6 2.8-1.7 5.1-1.7 5.1s1.4 4.3-1.8 4.5c-3.2.1-10.3-.9-10.2-4.3z"/><path id="XMLID_3_" class="st19" d="M188.4 184.7s-1.5 6.1-7.8 3.8-4.4-9.6-4.4-9.6-2.9-3.8 1.9-8.2c4.7-4.4 11.2 0 11.2 0s4.5-2.6 6.1 1.5c1.6 4 .1 5.2.1 5.2s-.4 4.1-2.4 5.7c-2.1 1.5-4.7 1.6-4.7 1.6z"/><path id="XMLID_2_" class="st17" d="M115.4 178.3s3.6 5.8 10.3 6.5c6.3.7 11.7-3.2 11.7-3.2s-5.2 5.7-11.9 4.7c-9.3-1.4-10.1-8-10.1-8z"/></g></g></svg>