<svg version="1.0" xmlns="http://www.w3.org/2000/svg" width="300" height="260" style="enable-background:new 0 0 300 260" xml:space="preserve"><style>.st0{display:none}.st2,.st8,.st9{display:inline}.st8,.st9{fill:#515250}.st9{fill:#262626}.st10{fill:#fbf7cb}.st11{fill:#f3eab1}.st14{fill:#efa624}.st15{fill:#fff48b}.st16{fill:#e0c17d}.st17{fill:#cbb577}.st18{fill:#fffad9}.st19{fill:#f7f0d0}.st20{fill:#fffada}</style><g id="fireDust3"><g id="base_-_copie_2"><path id="XMLID_43_" class="st10" d="M114.5 158s-14.3-4.9-13.2-23.3c.5-5.5 8.4-13.1 11.4-12.4 0 0-2.6-2.8-1.2-6.4 1.4-3.6 4.4-5 6.4-4.5 0 0-6.4-8.1-.2-11.2 6.3-3.1 15.9 1 12.9 7.7 0 0 2.7-3.3 9.4-1.9 0 0-8.4-3.4-3.5-10.9 4.9-7.4 18.2-2 18.2-2s4.6-7.2 11.8-5c5.2 1.6 5.1 6.6 5.1 6.6s5.4 0 4.6 4.1c0 0 6.9-1.2 10.6 1.3 3.7 2.6 4.2 11.2 4.2 11.2s11.4-2.6 10.6 12.5-2.8 24.1-8.8 23.6c0 0 2.5 6.1-6.1 6.8 0 0 8.7 11.4.6 19.3s-12.6 8.4-19 2.2c0 0-.7 2.1-4 .9-3.3-1.2-2.9-3.7-2.9-3.7s-.4 2-3.3 1.3-3.2-3.2-3.2-3.2-.5 2.2-2.6 2.7-4.1-.1-4.1-.1-4.7 6.7-12.9 5.1-10.3-11.4-10.3-11.4-2.7.9-7.5-2.7-3-6.6-3-6.6z"/></g><g id="Calque_26_-_copie_2"><g id="XMLID_40_"><path id="XMLID_42_" class="st11" d="M187.4 130.5c2.7 4.1-3.6 7-3.7 7.4-.3 6.2-7.3 5.1-7.3 5.1 2.5 1.2 1.2 5.2 1.2 5.2-2.7 5.7-11.3 1.6-11.3 1.6-3.7-4.2-6.9-4.4-11.2-2.7-7.1 2.9-12.8-7.8-12.8-7.8s-.7 2.9-3.9 4.3-5.9-1.6-5.9-1.6-.7 1.9-5.9 1c-5.3-.9-6.1-6.4-6.1-6.4s-2.4 1.2-7.6-1.7c-5.2-2.9 1.7-8.6 1.7-8.6 1.3-3.6-2.3-7.9-2.3-7.9-2-.2-3.4-.6-4.4-1.1-3.2-.2-10.6 7.1-11 12.4-1.1 18.4 13.2 23.3 13.2 23.3s-1.8 3 3 6.6c4.8 3.6 7.5 2.7 7.5 2.7s2.1 9.6 10.4 11.2c8.2 1.5 12.9-5.1 12.9-5.1s2 .6 4.1.1 2.6-2.7 2.6-2.7.3 2.6 3.2 3.2c2.9.7 3.3-1.3 3.3-1.3s-.4 2.5 2.9 3.7c3.3 1.2 4-.9 4-.9 6.4 6.2 10.9 5.7 19-2.2s-.6-19.3-.6-19.3c8.6-.7 6.1-6.8 6.1-6.8 5.7.8-1.1-11.7-1.1-11.7z"/></g></g><g id="details_-_copie_2"><g id="XMLID_35_"><path id="XMLID_39_" class="st16" d="M141.6 165.2s-.6 8.8-10.5 7.2c-8.5-1.3-9.8-11.3-9.8-11.3s-2.5 2-8.5-2.4c-8.5-6.2 5.4-12.9 5.4-12.9-4.5-.7-7.8 6.2-8.3 6.1-12.1-6.4-14.3-20.3-10.1-28.9-1.7 2.2-3 4.6-3.2 6.7-1.1 18.4 13 22.9 13 22.9s-1.6 3.4 3.2 7c4.8 3.6 7.5 2.7 7.5 2.7s2.1 9.6 10.4 11.2c8.2 1.5 12.9-5.1 12.9-5.1s.6.2 1.5.3l-1.6-1.2c-.4-.3-.7-.6-1-1l-.9-1.3z"/><path id="XMLID_36_" class="st16" d="M163.4 170.2c-10.8 4.7-4.5-13.4-4.5-13.4-3.2 2.5-2.3 10.2-2.3 10.2-1.9 4.3-6.3-1.4-6.3-1.4v.5s.3 2.6 3.2 3.2c2.9.7 3.3-1.3 3.3-1.3s-.4 2.5 2.9 3.7c3.3 1.2 4-.9 4-.9 1.4 1.4 2.7 2.4 4 3.1-.2-.3-3.6-4-4.3-3.7z"/></g><path id="XMLID_27_" class="st18" d="M144.1 132.8s2.5 8.5 9.5 7.2c7-1.3 8.6-7.6 8.6-7.6s5.1-1.7 2.6-5.3c-2.4-3.6-13.7-2.5-13.7-2.5s-14.8-6.3-15.9 2.1c-1.2 8.4 8.9 6.1 8.9 6.1z"/><path id="XMLID_24_" class="st19" d="M131.9 161.4s-5.2.5-5.7-3.9c-.5-4.5 4.1-2.7 4.1-2.7s1-2.3 5-.8c4 1.5 4.1 3.3 4.1 3.3s2.9 1.9.9 4.1c-1.9 2.2-4.7 1.5-4.7 1.5s-.9 1-2.5.3c-1.5-.8-1.2-1.8-1.2-1.8z"/><path id="XMLID_23_" class="st20" d="M167.3 109.5s-3.7-1.1-2.1-4.3c1.6-3.2 6.2-.5 6.2-.5s4.3-.8 5.4 1.2c1.1 1.9-1.2 3.5-1.2 3.5s.9 3-1.2 3.1c-2.3.1-7.2-.6-7.1-3z"/><path id="XMLID_22_" class="st19" d="M174.9 166.1s-.7 3.1-3.9 1.9c-3.1-1.1-1.6-4.8-1.6-4.8s-1.1-1.4 1.3-3.6 4.7-.5 4.7-.5 2.2-1.3 3 .7c.8 2 0 2.6 0 2.6s-.2 2-1.2 2.8c-1.1.8-2.3.9-2.3.9z"/></g></g></svg>