<svg xmlns="http://www.w3.org/2000/svg" viewBox="0 0 300 300" style="enable-background:new 0 0 300 300" xml:space="preserve"><style>.st3{display:none;fill:#98c33f}.st6{opacity:.25;fill:#353535}.st7{fill:#141414}.st15{fill:#661718}.st23{fill:#310f0f}</style><g id="Calque_1_-_copie"><path id="XMLID_15_" class="st6" d="m43 228.5 18.5-20.7c1-1.1 2.4-1.8 3.9-2l59.9-5.7c.8-.1 1.6 0 2.4.2l52.5 16.2c2.6.8 4.3 3.2 4.3 5.8l-.2 24.4c0 3-2.2 5.5-5.2 5.9l-79.6 11c-1.2.2-2.4 0-3.5-.6l-51.2-25c-3.6-1.8-4.5-6.5-1.8-9.5z"/><g id="bottom"><g id="Calque_1_-_copie_2"><path id="XMLID_17_" class="st7" d="M221 180.1v-2c0-.4 0-.8-.1-1.1l.1-13.2c0-2.7-1.7-5.1-4.3-5.9L164 141.5c-.8-.2-1.6-.3-2.4-.2l-60.2 5.7c-1.5.1-2.9.9-4 2l-18.6 20.8c-1.1 1.2-1.5 2.6-1.5 4.1v50.8c0 3-.2 8.1 3.4 9.8l51.4 25.3c1.1.5 2.3.7 3.5.6l79.9-11.1c3-.4 5.2-3 5.2-6l.2-63.1c.1 0 .1-.1.1-.1z"/></g><radialGradient id="XMLID_8_" cx="149.175" cy="208.736" r="59.21" gradientUnits="userSpaceOnUse"><stop offset="0" style="stop-color:#d6d5d5"/><stop offset=".321" style="stop-color:#d5d3d2"/><stop offset=".542" style="stop-color:#cccaca"/><stop offset=".732" style="stop-color:#bebdbc"/><stop offset=".903" style="stop-color:#acaaab"/><stop offset="1" style="stop-color:#a09e9e"/></radialGradient><path id="XMLID_76_" d="M81 223.4v-46l19.1-9.9c1-1.1 2.3-1.8 3.8-1.9l57.1-5.4c.8-.1 1.5 0 2.2.2l50 15.4c2.4.8 4.1 3 4.1 5.6l-.2 59.8c0 2.9-2.1 5.3-5 5.7l-75.8 10.5c-1.1.2-2.3 0-3.3-.5l-48.8-24c-3.4-1.9-3.2-6.7-3.2-9.5z" style="fill:url(#XMLID_8_)"/><path id="XMLID_19_" d="M81 223.4v1.3c0 2.8.3 6.6 3.2 8.1l48.8 24c.3.2.7.3 1.1.4v-48.4L81 183v40.4z" style="opacity:.1;fill:#020304"/><linearGradient id="XMLID_9_" gradientUnits="userSpaceOnUse" x1="78.353" y1="-16254.665" x2="214.666" y2="-16254.665" gradientTransform="matrix(1 0 0 -1 0 -16082)"><stop offset="0" style="stop-color:#cecdcd;stop-opacity:0"/><stop offset=".139" style="stop-color:#cdcbcb;stop-opacity:.3627"/><stop offset=".195" style="stop-color:#c7c6c6;stop-opacity:.5062"/><stop offset=".235" style="stop-color:#bebdbd;stop-opacity:.611"/><stop offset=".268" style="stop-color:#b1b0b0;stop-opacity:.6969"/><stop offset=".296" style="stop-color:#a1a0a0;stop-opacity:.7712"/><stop offset=".322" style="stop-color:#8c8c8c;stop-opacity:.8375"/><stop offset=".345" style="stop-color:#737373;stop-opacity:.898"/><stop offset=".366" style="stop-color:#585958;stop-opacity:.952"/><stop offset=".384" style="stop-color:#3a3a39"/><stop offset=".414" style="stop-color:#575857;stop-opacity:.9508"/><stop offset=".451" style="stop-color:#747474;stop-opacity:.8912"/><stop offset=".492" style="stop-color:#8e8e8e;stop-opacity:.8252"/><stop offset=".536" style="stop-color:#a5a4a4;stop-opacity:.7533"/><stop offset=".585" style="stop-color:#b7b6b6;stop-opacity:.6734"/><stop offset=".641" style="stop-color:#c5c4c4;stop-opacity:.5823"/><stop offset=".709" style="stop-color:#cfcece;stop-opacity:.4733"/><stop offset=".798" style="stop-color:#d5d4d4;stop-opacity:.3282"/><stop offset="1" style="stop-color:#d6d5d5;stop-opacity:0"/></linearGradient><path id="XMLID_77_" d="M81 188.1v-9.5l19.1-9.9c1-1.1 2.3-1.8 3.8-1.9l57.1-5.4c.8-.1 1.5 0 2.2.2l50 15.4c2.4.8 4.1 3 4.1 5.6l-.1 28.2s-3.5.5-5.1.7L136.3 222c-1.1.2-2.3 0-3.3-.5l-52-23.9v-9.5z" style="opacity:.33;fill:#2d0e0f"/><g id="Calque_19_-_copie"><path id="XMLID_115_" class="st7" d="M226.4 162.2c0-2.7-1.8-5.1-4.6-6l-56.6-16.5c-.8-.2-1.7-.3-2.5-.2l-64.6 5.8c-1.6.1-3.2.9-4.2 2l-20 21.1c-.8.8-1.3 1.8-1.5 2.8l-.2.1v18.2s2.3 1.2 3.6 1.9l55.2 25.7c1.2.5 2.5.7 3.8.6l85.7-11.2c1.8-.2 5.8-.8 5.8-.8l.1-30.2c0-.4 0-.8-.1-1.1l.1-12.2z"/></g><g id="Calque_19"><radialGradient id="XMLID_10_" cx="149.602" cy="-16266.926" r="52.76" gradientTransform="matrix(1.0723 0 0 -1 -11.248 -16082)" gradientUnits="userSpaceOnUse"><stop offset="0" style="stop-color:#eb5758"/><stop offset="1" style="stop-color:#951917"/></radialGradient><path id="XMLID_57_" d="M76.1 181.3v-9.5l20.5-9.9c1-1.1 2.5-1.8 4-1.9l61.2-5.4c.8-.1 1.6 0 2.4.2l53.6 15.4c2.6.8 4.4 3 4.4 5.6l-.1 28.2s-3.7.5-5.5.7l-81.3 10.5c-1.2.2-2.5 0-3.6-.5l-52.3-24c-1.3-.6-3.5-1.7-3.5-1.7s.2-5.9.2-7.7z" style="fill:url(#XMLID_10_)"/><radialGradient id="XMLID_11_" cx="149.603" cy="-16254.412" r="52.759" gradientTransform="matrix(1.0723 0 0 -1 -11.248 -16082)" gradientUnits="userSpaceOnUse"><stop offset="0" style="stop-color:#eb5758"/><stop offset="1" style="stop-color:#951917"/></radialGradient><path id="XMLID_40_" d="m77.7 169.1 18.9-19.7c1-1.1 2.5-1.8 4-1.9l61.2-5.4c.8-.1 1.6 0 2.4.2l53.6 15.4c2.6.8 4.4 3 4.4 5.6l-.2 23.3c0 2.9-2.3 5.3-5.3 5.7l-81.3 10.5c-1.2.2-2.5 0-3.6-.5l-52.3-24c-3.6-1.9-4.6-6.3-1.8-9.2z" style="fill:url(#XMLID_11_)"/></g><path id="XMLID_4_" d="m107.4 167.9 8.6-9.6c1-1.2 2.5-1.9 4-2l35.4-3.4c.8-.1 1.6 0 2.4.2l30.1 9.3c2.6.8 4.4 3.2 4.4 5.9l-.1 11.1c0 3.1-2.3 5.6-5.3 6.1l-46.1 6.4c-1.2.2-2.5 0-3.6-.6l-27.9-13.8c-3.7-1.7-4.7-6.6-1.9-9.6z" style="opacity:.15;fill:#fff"/><g id="Calque_21"><path id="XMLID_93_" class="st15" d="M103.7 200.9v-11.6l10.7-5 1.2.6-10.8 5.1-.1 11.4z"/><path id="XMLID_92_" class="st15" d="M111.3 204.3v-11.6l10.7-5 1.3.6-10.9 5.1v11.4z"/><path id="XMLID_91_" class="st15" d="M159 210.8v-11.1l-10.8-5.4-1.1.5 10.8 5.1.1 11z"/><path id="XMLID_90_" class="st15" d="M169.8 209v-11.1l-10.9-5.3-1.1.5 10.8 5 .1 11z"/><path id="XMLID_89_" class="st15" d="M182.4 208.2v-11.1l-10.8-5.3-1.1.5 10.7 5 .2 11z"/><path id="XMLID_88_" class="st15" d="M193.1 206v-11.1l-10.8-5.3-1.1.5 10.8 5 .1 11z"/><path id="XMLID_87_" class="st15" d="M204.1 204.4v-11l-10.8-5.4-1.1.5 10.7 5.1.2 11z"/><path id="XMLID_86_" class="st15" d="M96.1 197.3v-11.5l10.7-5 1.3.6-10.9 5v11.4z"/><path id="XMLID_85_" class="st15" d="M87.9 193.4v-11.5l10.7-5 1.3.6-10.9 5v11.4z"/><path id="XMLID_84_" class="st15" d="m81.4 165.2 11.2 4.6-.7.9-11.4-4.5z"/><path id="XMLID_83_" class="st15" d="m208.3 183 13.9.5.1 1.3-14-.4z"/><path id="XMLID_82_" class="st15" d="m208.3 177 13.9.5.1 1.3-14-.4z"/><path id="XMLID_81_" class="st15" d="m208.3 170.3 13.9.5.1 1.3-14-.4z"/><path id="XMLID_80_" class="st15" d="m208.3 164.3 13.9.4.1 1.3-14-.4z"/><path id="XMLID_79_" class="st15" d="m197.2 158.1 3.6-5.4 1.2.5-3.5 5.4z"/><path id="XMLID_78_" class="st15" d="m189.1 155.7 3.5-5.3 1.3.4-3.7 5.6z"/><path id="XMLID_75_" class="st15" d="m86 160.4 11.1 4.6-.7.9-11.3-4.5z"/><path id="XMLID_74_" class="st15" d="m90.7 155.6 11.1 4.6-.6.9-11.4-4.5z"/><path id="XMLID_73_" class="st15" d="m94.8 151 11.2 4.6-.7.8-11.4-4.4z"/></g></g><g id="Calque_24"><path id="XMLID_66_" class="st15" d="M189 176.5c-.7 1-1.9 1.4-3.1 1.2l-63.8-14.6.7-.4c.7-.4 1.5-.6 2.2-.4l64 14.2z"/><path id="XMLID_65_" class="st15" d="M182.8 164.7c.6-.1 1.1.1 1.6.4l1.2.9-65.4 7.4c-1 .1-1.9-.4-2.3-1.4l64.9-7.3z"/><path id="XMLID_64_" class="st15" d="M163.8 157.7c1 .2 1.4 1.5.6 2.1L137 183.7c-.3.3-.8.4-1.2.2l-.8-.2c-.9-.3-1.2-1.5-.4-2.1l28.2-23.6c.3-.2.6-.3 1-.3z"/><path id="XMLID_63_" class="st15" d="m166.6 186.2-1.2.1c-.4 0-.8-.1-1.1-.4l-23-26.9c-.6-.8-.2-1.9.8-2 .4 0 .8.1 1 .4l24.1 26.8c.8.7.4 1.9-.6 2z"/></g><g id="door"><path id="XMLID_44_" class="st6" d="m167.6 259.2-9.9 1.6c-2.8.4-5.1-.5-5.6-2.2-.5-1.5 3.3-12.9 4.4-14.9l.3 2.7c1.1 1 2.4 5.6 4.2 7l5.9 4.5c1.1.8 8.9-.7 8.7 0 0 0-6.5 1.1-8 1.3z"/><g id="Calque_6_-_copie"><path id="XMLID_49_" class="st7" d="M199.7 242.9 187 225.2c-.5-.7-1.1-1.3-1.8-1.8l-.2-.1c-.2-.1-.4-.3-.6-.4l-3.1-1.9c-6.1-4.1-10.8-4.3-13.6 1l-10.9 21c-3 5.8 6.5 16.8 12.9 15.9.3 0 .7 0 1-.1l23.6-3.3c6-.8 8.9-7.7 5.4-12.6z"/></g><radialGradient id="XMLID_13_" cx="176.047" cy="238.437" r="18.607" gradientUnits="userSpaceOnUse"><stop offset="0" style="stop-color:#eb5758"/><stop offset="1" style="stop-color:#951917"/></radialGradient><path id="XMLID_43_" d="m158.4 242.6 10.1-19.5c2.5-4.9 7-4.7 12.6-.9l3.6 2.2 8.2 14.2c3.3 4.5.5 10.9-5 11.7l-17.5 7c-6 .9-14.8-9.3-12-14.7z" style="fill:url(#XMLID_13_)"/><path id="XMLID_42_" class="st7" d="m162.6 246.9 10.7-20.7c2.7-5.2 10-5.7 13.4-1l12.5 17.4c3.5 4.8.6 11.6-5.3 12.4l-23.3 3.2c-6.3 1-11-5.6-8-11.3z"/><path id="XMLID_41_" d="m164.6 246.2 9.5-18.4c2.4-4.6 8.9-5.1 11.9-.9l11.1 15.5c3.1 4.3.5 10.3-4.7 11l-20.7 2.9c-5.5.8-9.7-5.1-7.1-10.1z" style="fill:#d8d8d8"/><path id="XMLID_39_" class="st7" d="m170.5 249.9 7.1-13.7c1.8-3.5 6.6-3.8 8.9-.6l8.3 11.6c2.3 3.2.4 7.7-3.5 8.3l-15.5 2.1c-4.2.5-7.3-3.9-5.3-7.7z"/><radialGradient id="XMLID_16_" cx="182.869" cy="246.055" r="10.805" gradientUnits="userSpaceOnUse"><stop offset="0" style="stop-color:#d6d5d5"/><stop offset=".321" style="stop-color:#d5d3d2"/><stop offset=".542" style="stop-color:#cccaca"/><stop offset=".732" style="stop-color:#bebdbc"/><stop offset=".903" style="stop-color:#acaaab"/><stop offset="1" style="stop-color:#a09e9e"/></radialGradient><path id="XMLID_38_" d="m172.2 249.9 6.1-11.8c1.5-3 5.7-3.3 7.7-.6l7.2 10c2 2.8.3 6.6-3 7.1l-13.3 1.8c-3.7.5-6.4-3.3-4.7-6.5z" style="fill:url(#XMLID_16_)"/><g id="Calque_9"><path id="XMLID_55_" d="M187.8 246c.7 2.3-.4 5.1-3 6.2-3.2 1.3-6.7-.6-7.1-4-.3-3.1 2.1-5.4 4.9-5.6 2.4-.3 4.6 1.2 5.2 3.4z" style="fill:#222223"/><radialGradient id="XMLID_18_" cx="183.085" cy="247.333" r="3.809" gradientUnits="userSpaceOnUse"><stop offset="0" style="stop-color:#d6d5d5"/><stop offset=".321" style="stop-color:#d5d3d2"/><stop offset=".542" style="stop-color:#cccaca"/><stop offset=".732" style="stop-color:#bebdbc"/><stop offset=".903" style="stop-color:#acaaab"/><stop offset="1" style="stop-color:#a09e9e"/></radialGradient><path id="XMLID_54_" d="M186.8 246.2c.5 1.8-.4 3.9-2.4 4.6-2.3.9-4.9-.5-5.2-3-.3-2.2 1.4-4.1 3.5-4.2 1.9-.2 3.6 1 4.1 2.6z" style="fill:url(#XMLID_18_)"/></g></g><g id="Calque_22"><path id="XMLID_37_" class="st23" d="M153.2 170.6h-2.3c-1.1 0-1.9-.7-1.9-1.5V107c0-.2-.1-1.6.1-1.7.6-.4 1.9-.8 2.8-.8 0 0 2.8.2 2.8 1.1l.4 63.6c0 .7-.8 1.4-1.9 1.4z"/><path id="XMLID_36_" d="M152.1 168.4c-.9 0-1.6-.7-1.6-1.5v-62.6c0-.6.7-.6 1.6-.6 0 0 1.6 0 1.6.6v62.6c0 .9-.8 1.5-1.6 1.5z" style="fill:#ddd"/><path id="XMLID_34_" class="st23" d="m151.9 63-15.5-1.3c-2.4-.2-4.4 1.9-4.1 4.3 2 13.8 7.5 49.6 8.5 52l7.9 19.7c.6 1.6 2.1 8.2 3.3 8.2 1.3 0 2.5-6.6 3.2-8.2L163 118c.9-2.4 6.8-38.2 8.8-52 .3-2.4-1.6-4.5-4.1-4.3L152.5 63h-.6z"/><path id="XMLID_33_" d="m152 62.9-15.4-1.3s6.1 49.2 7 51.4l5.9 14.8c.5 1.2 1.5 6.1 2.5 6.1.9 0 1.9-4.9 2.4-6.1l5.9-14.8c.9-2.1 7-51.4 7-51.4L152 62.9z" style="fill:#b2302f"/><radialGradient id="XMLID_21_" cx="151.916" cy="92.708" r="23.527" gradientUnits="userSpaceOnUse"><stop offset="0" style="stop-color:#eb5758"/><stop offset="1" style="stop-color:#951917"/></radialGradient><path id="XMLID_32_" d="m152 63.2-13-1.1s5.2 41.7 5.9 43.6l5 12.5c.4 1 1.3 5.2 2.1 5.2s1.6-4.2 2-5.2l5-12.5c.7-1.8 5.9-43.6 5.9-43.6L152 63.2z" style="fill:url(#XMLID_21_)"/><g id="Calque_6_2_"><path id="XMLID_27_" d="m152 75.8-25.8-5.9 8.5 7.5s6.6 4.2 10.1 6c4.3 2.3 7.4 11.5 7.4 11.5s2.6-9.1 6.9-11.3c3.4-1.8 10.3-6.2 10.3-6.2l8.5-7.2-25.9 5.6z" style="fill:#3c1112"/><radialGradient id="XMLID_22_" cx="151.87" cy="82.406" r="17.102" gradientUnits="userSpaceOnUse"><stop offset="0" style="stop-color:#d6d5d5"/><stop offset=".321" style="stop-color:#d5d3d2"/><stop offset=".542" style="stop-color:#cccaca"/><stop offset=".732" style="stop-color:#bebdbc"/><stop offset=".903" style="stop-color:#acaaab"/><stop offset="1" style="stop-color:#a09e9e"/></radialGradient><path id="XMLID_26_" d="m152 77.7-22-5.5 11.2 7.1s4.6 2.4 6.8 3.5c2.7 1.4 4.1 10 4.1 10s1.3-8.6 4-10c2.1-1.1 6.8-3.5 6.8-3.5l11-6.9-21.9 5.3z" style="fill:url(#XMLID_22_)"/><path id="XMLID_25_" d="m152 80.3-8.2-2.7 4.4 2.7s1.6.9 2.4 1.3c1 .5 1.4 6.5 1.4 6.5s.5-5.9 1.4-6.5c.7-.4 2.4-1.3 2.4-1.3l4.4-2.7-8.2 2.7z" style="fill:#cfcece"/></g></g></g></svg>