<svg version="1.0" xmlns="http://www.w3.org/2000/svg" width="300" height="260" style="enable-background:new 0 0 300 260" xml:space="preserve"><style>.st0{display:none}.st5,.st6{display:inline;fill:#fff}.st6{fill:none;stroke:#fff;stroke-width:7;stroke-miterlimit:10}.st8{fill:#fff}</style><g id="圖層_3"><g id="圖層_23_1_"><g id="XMLID_3_"><path id="XMLID_4_" d="m204.4 245-109-.2c-8.5 0-16.4-4.5-20.6-11.6l-54.4-91.7c-4.2-7.2-4.2-16 0-23.2L75 26.6C79.2 19.4 87.1 15 95.6 15l109 .2c8.5 0 16.4 4.5 20.6 11.6l54.4 91.7c4.2 7.2 4.2 16 0 23.2L225 233.4c-4.2 7.1-12.1 11.6-20.6 11.6z" style="fill:none;stroke:#fff;stroke-width:8;stroke-miterlimit:10"/></g></g></g><g id="圖層_10"><path id="XMLID_25_" class="st8" d="m137.1 64.1 18-1.4s-2.1 6.8 2.1 7 15.8 3.3 13.9 9.5-7.1 5.6-9.5 4.5-10.1-6.6-12.3-2.2c-2.1 4.4-1.5 9.5.1 14.4s-2.6 10.4-6.6 12.8c-3.8 2.2-8.6.9-11.3-1.5s-5-5.5-3.3-10.8c.8-2.3 1.6-5-1.5-5.1s-6 1.8-7.1 8-3.8 10.9-9.5 11.8-18.1-6.2-18.3-14.6 15.1-24.2 24.8-24.3 17.2-.3 20.5-8.1z"/><circle id="XMLID_23_" cx="148.9" cy="130" r="67.9" style="fill:none;stroke:#fff;stroke-width:5;stroke-miterlimit:10"/><path id="XMLID_26_" class="st8" d="M192.8 80.3s-7.9 4-8.9 7.8-3.4 7.9 2.1 16.6-2.2 10.9-4.7 8.8-7.8-15-16.5-8.1-3.2 19.1 4.9 21.1 21.7 3.8 22.5 11.2-2.1 26.8 8.5 32.6 13.4-27.6 13.4-27.6-8.8-5-8.3-9.4 1.8-8.2 10.2-7.6c1.4.1 2.8.3 3-.6 1-3.7-5.3-15.2-5.1-15.2 0 0-9.6 1.7-10-3.9s3.9-10 3.9-10-13.4-16.3-13.4-15.7"/><path id="XMLID_27_" class="st8" d="M83.8 115s6.6 2.9 5.8 6.9-6 17.9.1 18.4 8.3-2.9 14.2-12.3 20.9-15.5 23.7-13.1 7 8.3-5.3 15-9.4 12.9-9.4 12.9 4.2 10.5 21.3 1.6 27.5 1.2 29.4 4.3 8.2 16-4.3 17.4c-12.5 1.4-21-15.4-34.8-8.3-13.8 7.1-23.5 17.4-27.3 15.1-3.6-2.3-20.9-27.1-13.4-57.9z"/><path id="XMLID_29_" class="st8" d="M108.2 182.8s2.8-4.5 8.5-5.4c5.8-.9 10.4 4.3 10.4 4.3s2.9 9.5 10 7.5 8.7-2.6 5.1-6.8c-3.6-4.3-6-9.8 2.8-12.4 8.8-2.7 10.8 3.5 10.8 7.8.1 4.3 3.1 10.1 10.3 4.6s5.7-13.2 15.5-12.3 10.4 12.5 10.4 12.5-21 15.6-36.9 15.2-45-7.9-46.9-15z"/></g></svg>