<svg version="1.0" xmlns="http://www.w3.org/2000/svg" width="300" height="260" style="enable-background:new 0 0 300 260" xml:space="preserve"><style>.st10{opacity:.75}.st17{fill:#353535}</style><g id="border_-_copie"><g id="keepit"><g id="XMLID_22_"><radialGradient id="XMLID_7_" cx="150" cy="130" r="111.296" gradientUnits="userSpaceOnUse"><stop offset="0" style="stop-color:#d6d5d5"/><stop offset=".321" style="stop-color:#d4d3d2"/><stop offset=".542" style="stop-color:#cccaca"/><stop offset=".732" style="stop-color:#bebdbd"/><stop offset=".903" style="stop-color:#acabab"/><stop offset="1" style="stop-color:#9f9e9e"/></radialGradient><path id="XMLID_23_" d="m198.7 233-97.6-.2c-7.6 0-14.7-4-18.5-10.4l-48.7-82.2c-3.8-6.5-3.8-14.4 0-20.8l48.9-82.2C86.6 30.9 93.7 27 101.3 27l97.6.2c7.6 0 14.7 4 18.5 10.4l48.7 82.2c3.8 6.5 3.8 14.4 0 20.8l-48.9 82.2c-3.8 6.2-10.9 10.2-18.5 10.2z" style="fill:url(#XMLID_7_)"/></g><radialGradient id="XMLID_9_" cx="192.036" cy="193.318" r="53.048" gradientUnits="userSpaceOnUse"><stop offset="0" style="stop-color:#959698"/><stop offset=".321" style="stop-color:#959697"/><stop offset=".542" style="stop-color:#939494"/><stop offset=".732" style="stop-color:#8f9090"/><stop offset=".903" style="stop-color:#89898a"/><stop offset="1" style="stop-color:#848484"/></radialGradient><path id="XMLID_58_" d="M251.1 156.1c-3.5-1.6-7.5-3.2-11.2-2.1-4.3 1.3-7 5.8-11.4 6.9-2.3.6-4.9.2-6.8 1.6-1.2.9-1.8 2.3-3 3.1-2.4 1.7-5.6.5-8.2-.9-2.9-1.6-5.6-3.3-8.3-5.2-2-1.5-4-3.1-6.5-3.8-2.4-.7-5.4-.2-6.8 1.9-.9 1.3-1 3-1.8 4.3-1.8 3.1-6.1 3.3-9.6 3.2-1.2 0-2.6-.1-3.6-.8-2.3-1.6-1.9-5.3-3.9-7.3-2.4-2.4-6.7-.7-8.9 1.9s-3.7 6-6.7 7.6c-3.7 2-8.5.9-12 3.2-5.2 3.5-3.5 12-7.4 16.9-1.3 1.7-3.2 2.8-4.5 4.5-2.2 2.7-2.6 6.6-1.8 10 .8 3.4 2.6 6.5 4.5 9.4 1.8 2.7 3.7 6.2 1.9 8.9-.6.9-1.6 1.6-2.3 2.4-2 2.5-1.1 6.2-1 9.5v1.5l66.9.1c7.6 0 14.7-4 18.6-10.4l38.4-64.6c-1.5-.5-3.1-1.2-4.6-1.8z" style="opacity:.15;fill:url(#XMLID_9_)"/><radialGradient id="XMLID_10_" cx="138.41" cy="116.878" r="99.041" gradientUnits="userSpaceOnUse"><stop offset="0" style="stop-color:#959698"/><stop offset=".321" style="stop-color:#959697"/><stop offset=".542" style="stop-color:#939494"/><stop offset=".732" style="stop-color:#8f9090"/><stop offset=".903" style="stop-color:#89898a"/><stop offset="1" style="stop-color:#848484"/></radialGradient><path id="XMLID_59_" d="M217.4 37.5c-3.8-6.4-10.8-10.4-18.5-10.4l-97.6-.1c-7.6 0-14.7 3.9-18.6 10.4l-48.9 82.2c-3.8 6.5-3.8 14.4 0 20.8l39.4 66.4c5.8-.9 13.8-.8 14.9-6.6.3-1.4 0-3 .3-4.4 1.6-9.2 19.1-5.2 22.4-13.9 2-5.4-3.2-12.4.7-16.6.9-1 2.1-1.6 2.8-2.6 2.6-3.7-2.6-8.2-7.1-8.4-4.5-.2-9.4 1.4-13.2-.9-6.7-4.1-3-14.4-4.4-22.1-.9-4.6-3.8-8.6-5.9-12.8-2.1-4.2-3.2-9.6-.5-13.5 1.1-1.5 2.6-2.6 3.7-4.2 3.6-5.4-.7-12.6-.1-19.1.7-7.5 9.4-13.1 16.6-10.6 6.9 2.5 11.2 10.8 18.5 11.4 4 .4 8.1-1.7 11.8-.4 2.7.9 4.4 3.3 6.5 5.3 6.9 6.6 18.3 7.9 26.6 3 1.4-.8 2.7-1.8 4.2-2 3.5-.4 6.2 3.1 9.4 4.5 8.7 3.8 17.6-8.1 27-6.5 5.4.9 9.6 6.2 15.1 6.1 5.3-.1 9.6-5.3 14.9-5.2 2.6 0 5.7 1.2 7.6-.6.4-.4.6-.8.8-1.3l-28.4-47.9z" style="opacity:.15;fill:url(#XMLID_10_)"/></g><g id="Calque_14"><g id="Calque_13"><linearGradient id="XMLID_18_" gradientUnits="userSpaceOnUse" x1="90.195" y1="69.044" x2="106.315" y2="69.044"><stop offset="0" style="stop-color:#fff;stop-opacity:0"/><stop offset="1" style="stop-color:#fff"/></linearGradient><path id="XMLID_47_" d="M90.3 51.5s-2.3 20.4 16 35c0 0 .4-25.2-16-35zm1.6 3.7C103.2 63 104.6 83 104.6 83 91.9 70.9 91.9 55.2 91.9 55.2z" style="opacity:.5;fill:url(#XMLID_18_)"/><radialGradient id="XMLID_20_" cx="98.301" cy="69.044" r="10.791" gradientUnits="userSpaceOnUse"><stop offset="0" style="stop-color:#959698"/><stop offset=".321" style="stop-color:#959697"/><stop offset=".542" style="stop-color:#939494"/><stop offset=".732" style="stop-color:#8f9090"/><stop offset=".903" style="stop-color:#89898a"/><stop offset="1" style="stop-color:#848484"/></radialGradient><path id="XMLID_41_" d="M91.9 55.2s0 15.8 12.7 27.8c.1-.1-1.4-20.1-12.7-27.8z" style="fill:url(#XMLID_20_)"/></g><g id="Calque_13_-_copie"><linearGradient id="XMLID_21_" gradientUnits="userSpaceOnUse" x1="113.706" y1="103.193" x2="129.825" y2="103.193" gradientTransform="rotate(-42.149 187.573 185.101)"><stop offset="0" style="stop-color:#fff;stop-opacity:0"/><stop offset="1" style="stop-color:#fff"/></linearGradient><path id="XMLID_36_" d="M66.2 160.9s12 16.6 35.4 15.2c-.1 0-16.8-19-35.4-15.2zm3.6 1.6c13.6-1.8 28 12 28 12-17.4-.3-28-12-28-12z" style="opacity:.5;fill:url(#XMLID_21_)"/><radialGradient id="XMLID_31_" cx="121.811" cy="103.193" r="10.791" gradientTransform="rotate(-42.149 187.573 185.101)" gradientUnits="userSpaceOnUse"><stop offset="0" style="stop-color:#959698"/><stop offset=".321" style="stop-color:#959697"/><stop offset=".542" style="stop-color:#939494"/><stop offset=".732" style="stop-color:#8f9090"/><stop offset=".903" style="stop-color:#89898a"/><stop offset="1" style="stop-color:#848484"/></radialGradient><path id="XMLID_35_" d="M69.8 162.5s10.5 11.7 28 12c.1 0-14.4-13.9-28-12z" style="fill:url(#XMLID_31_)"/></g><g id="Calque_13_-_copie_2"><linearGradient id="XMLID_37_" gradientUnits="userSpaceOnUse" x1="204.857" y1="176.718" x2="220.977" y2="176.718" gradientTransform="rotate(72.998 205.536 177.841)"><stop offset="0" style="stop-color:#fff;stop-opacity:0"/><stop offset="1" style="stop-color:#fff"/></linearGradient><path id="XMLID_6_" d="M223.2 171.8s-20.2 3.8-28.8 25.6c0 0 24.3-7.1 28.8-25.6zm-3 2.7c-4.1 13.1-22.8 20.3-22.8 20.3 7.7-15.8 22.8-20.3 22.8-20.3z" style="opacity:.5;fill:url(#XMLID_37_)"/><radialGradient id="XMLID_38_" cx="212.963" cy="176.718" r="10.791" gradientTransform="rotate(72.998 205.536 177.841)" gradientUnits="userSpaceOnUse"><stop offset="0" style="stop-color:#959698"/><stop offset=".321" style="stop-color:#959697"/><stop offset=".542" style="stop-color:#939494"/><stop offset=".732" style="stop-color:#8f9090"/><stop offset=".903" style="stop-color:#89898a"/><stop offset="1" style="stop-color:#848484"/></radialGradient><path id="XMLID_4_" d="M220.2 174.5s-15.1 4.6-22.8 20.3c0 0 18.7-7.3 22.8-20.3z" style="fill:url(#XMLID_38_)"/></g><g id="Calque_9"><radialGradient id="XMLID_39_" cx="108.672" cy="219.758" r="9.963" gradientUnits="userSpaceOnUse"><stop offset="0" style="stop-color:#959698"/><stop offset=".321" style="stop-color:#959697"/><stop offset=".542" style="stop-color:#939494"/><stop offset=".732" style="stop-color:#8f9090"/><stop offset=".903" style="stop-color:#89898a"/><stop offset="1" style="stop-color:#848484"/></radialGradient><path id="XMLID_19_" d="M103.5 232.8s7.8-19.9 10.4-26.2c0 0-2.7 22.5-3.2 26.2h-7.2z" style="fill:url(#XMLID_39_)"/><g id="XMLID_26_" class="st10"><linearGradient id="XMLID_40_" gradientUnits="userSpaceOnUse" x1="107.487" y1="232.858" x2="110.682" y2="232.858"><stop offset="0" style="stop-color:#fff"/><stop offset="1" style="stop-color:#fff;stop-opacity:0"/></linearGradient><path id="XMLID_27_" style="opacity:.5;fill:url(#XMLID_40_)" d="M110.7 232.9h-3.2z"/><linearGradient id="XMLID_42_" gradientUnits="userSpaceOnUse" x1="100.51" y1="217.718" x2="114.793" y2="217.718"><stop offset="0" style="stop-color:#fff;stop-opacity:0"/><stop offset="1" style="stop-color:#fff"/></linearGradient><path id="XMLID_28_" d="M114.8 202.6c-4 6.3-14.3 30.3-14.3 30.3h7-4s7.8-19.9 10.4-26.2c0 0-2.7 22.4-3.2 26.2h2.4c.7-3.8 1.7-30.3 1.7-30.3z" style="opacity:.5;fill:url(#XMLID_42_)"/></g></g><g id="Calque_9_-_copie"><radialGradient id="XMLID_44_" cx="257.139" cy="228.516" r="9.963" gradientTransform="matrix(-.6866 -1.1475 1.2049 -.7209 122.88 540.614)" gradientUnits="userSpaceOnUse"><stop offset="0" style="stop-color:#959698"/><stop offset=".321" style="stop-color:#959697"/><stop offset=".542" style="stop-color:#939494"/><stop offset=".732" style="stop-color:#8f9090"/><stop offset=".903" style="stop-color:#89898a"/><stop offset="1" style="stop-color:#848484"/></radialGradient><path id="XMLID_30_" d="M241 77.3s-29.4 5.4-38.7 7c0 0 28.9-13.1 33.8-15.3l4.9 8.3z" style="fill:url(#XMLID_44_)"/><g id="XMLID_24_" class="st10"><linearGradient id="XMLID_49_" gradientUnits="userSpaceOnUse" x1="255.954" y1="241.616" x2="259.149" y2="241.616" gradientTransform="matrix(-.6866 -1.1475 1.2049 -.7209 122.88 540.614)"><stop offset="0" style="stop-color:#fff"/><stop offset="1" style="stop-color:#fff;stop-opacity:0"/></linearGradient><path id="XMLID_29_" style="opacity:.5;fill:url(#XMLID_49_)" d="m236.1 69 2.2 3.7z"/><linearGradient id="XMLID_50_" gradientUnits="userSpaceOnUse" x1="248.977" y1="226.476" x2="263.26" y2="226.476" gradientTransform="matrix(-.6866 -1.1475 1.2049 -.7209 122.88 540.614)"><stop offset="0" style="stop-color:#fff;stop-opacity:0"/><stop offset="1" style="stop-color:#fff"/></linearGradient><path id="XMLID_25_" d="M196.8 86.2c10.3 0 46.3-5.4 46.3-5.4l-4.8-8 2.7 4.6s-29.4 5.4-38.7 7c0 0 28.9-13 33.7-15.3l-1.6-2.7c-5 1.8-37.6 19.8-37.6 19.8z" style="opacity:.5;fill:url(#XMLID_50_)"/></g></g></g><g id="border_1_"><path id="XMLID_32_" d="m270.4 119.3-50.5-85.1c-3.9-6.6-11.2-10.7-19.2-10.7l-101.2-.2c-7.9 0-15.2 4.1-19.2 10.7l-50.7 85.1c-3.9 6.7-3.9 14.9 0 21.6l50.5 85.1c3.9 6.6 11.2 10.7 19.2 10.7l101.2.2c7.9 0 15.2-4.1 19.2-10.7l50.7-85.1c3.9-6.7 3.9-14.9 0-21.6zm-12.6 20.4L212.4 216c-3.6 5.9-10.1 9.6-17.2 9.6l-90.6-.2c-7.1 0-13.6-3.7-17.2-9.6l-45.2-76.2c-3.5-6-3.5-13.3 0-19.3L87.6 44c3.6-6 10.1-9.6 17.2-9.6l90.6.2c7.1 0 13.6 3.7 17.2 9.6l45.2 76.2c3.5 6 3.5 13.4 0 19.3z" style="opacity:.3"/><path id="XMLID_55_" class="st17" d="M275.8 118.9 223 30.8c-4.1-6.8-11.7-11.1-20-11.1l-105.7-.2c-8.3 0-15.9 4.2-20.1 11.1l-52.9 88.1c-4.1 6.9-4.1 15.4 0 22.3L77 229.2c4.1 6.8 11.7 11.1 20 11.1l105.7.2c8.3 0 15.9-4.3 20.1-11.1l52.9-88.1c4.2-7 4.2-15.5.1-22.4zm-13.1 21.2-47.4 79c-3.7 6.1-10.6 10-18 10l-94.7-.2c-7.4 0-14.3-3.8-17.9-10l-47.3-79c-3.7-6.2-3.7-13.8 0-20l47.4-79c3.7-6.2 10.6-10 18-10l94.7.2c7.4 0 14.3 3.8 17.9 10l47.3 79c3.6 6.2 3.6 13.8 0 20z"/><path id="XMLID_16_" class="st17" d="m284.7 118-56.5-95.3c-4.4-7.4-12.6-12-21.4-12l-113.3-.2c-8.9 0-17.1 4.5-21.5 12l-56.7 95.3c-4.4 7.5-4.4 16.7 0 24.1l56.5 95.3c4.4 7.4 12.6 12 21.4 12l113.2.2c8.9 0 17.1-4.6 21.5-12l56.7-95.3c4.5-7.4 4.5-16.6.1-24.1zm-14 22.9-50.8 85.3c-4 6.6-11.3 10.8-19.3 10.8l-101.4-.2c-7.9 0-15.3-4.2-19.2-10.8l-50.6-85.3c-3.9-6.7-3.9-14.9 0-21.6l50.8-85.3c4-6.7 11.3-10.8 19.3-10.8l101.4.2c7.9 0 15.3 4.2 19.2 10.8l50.6 85.3c3.9 6.7 3.9 14.9 0 21.6z"/><radialGradient id="XMLID_51_" cx="150" cy="130" r="124.242" gradientUnits="userSpaceOnUse"><stop offset="0" style="stop-color:#d6d5d5"/><stop offset=".321" style="stop-color:#d4d3d2"/><stop offset=".542" style="stop-color:#cccaca"/><stop offset=".732" style="stop-color:#bebdbd"/><stop offset=".903" style="stop-color:#acabab"/><stop offset="1" style="stop-color:#9f9e9e"/></radialGradient><path id="XMLID_11_" d="m279.7 118.5-54.4-91.7c-4.2-7.1-12.1-11.6-20.6-11.6L95.6 15c-8.5 0-16.4 4.4-20.7 11.6l-54.6 91.7c-4.2 7.2-4.2 16 0 23.2l54.4 91.7c4.2 7.1 12.1 11.6 20.6 11.6l109 .2c8.5 0 16.4-4.5 20.7-11.6l54.6-91.7c4.3-7.2 4.3-16 .1-23.2zm-13.5 22-48.9 82.2c-3.9 6.4-10.9 10.4-18.6 10.4l-97.6-.2c-7.6 0-14.7-4-18.5-10.4l-48.7-82.2c-3.8-6.5-3.8-14.4 0-20.8l48.9-82.2C86.6 30.9 93.7 27 101.3 27l97.6.2c7.6 0 14.7 4 18.5 10.4l48.7 82.2c3.8 6.3 3.8 14.2.1 20.7z" style="fill:url(#XMLID_51_)"/><radialGradient id="XMLID_52_" cx="150" cy="130" r="124.242" gradientUnits="userSpaceOnUse"><stop offset=".877" style="stop-color:#fff;stop-opacity:0"/><stop offset="1" style="stop-color:#fff"/></radialGradient><path id="XMLID_2_" d="m279.7 118.5-54.4-91.7c-4.2-7.1-12.1-11.6-20.6-11.6L95.6 15c-8.5 0-16.4 4.4-20.7 11.6l-54.6 91.7c-4.2 7.2-4.2 16 0 23.2l54.4 91.7c4.2 7.1 12.1 11.6 20.6 11.6l109 .2c8.5 0 16.4-4.5 20.7-11.6l54.6-91.7c4.3-7.2 4.3-16 .1-23.2zm-13.5 22-48.9 82.2c-3.9 6.4-10.9 10.4-18.6 10.4l-97.6-.2c-7.6 0-14.7-4-18.5-10.4l-48.7-82.2c-3.8-6.5-3.8-14.4 0-20.8l48.9-82.2C86.6 30.9 93.7 27 101.3 27l97.6.2c7.6 0 14.7 4 18.5 10.4l48.7 82.2c3.8 6.3 3.8 14.2.1 20.7z" style="opacity:.6;fill:url(#XMLID_52_)"/></g></g></svg>