<svg version="1.0" xmlns="http://www.w3.org/2000/svg" width="300" height="260" style="enable-background:new 0 0 300 260" xml:space="preserve"><path d="M130.7 110.8c-10.6 10.6-10.5 27.8.1 38.4 10.6 10.6 27.8 10.5 38.4-.1 10.6-10.6 10.5-27.8-.1-38.4-10.6-10.6-27.8-10.5-38.4.1zm33.5 33.3c-7.8 7.8-20.5 7.9-28.3.1-7.8-7.8-7.9-20.5-.1-28.3 7.8-7.8 20.5-7.9 28.3-.1 7.9 7.7 7.9 20.4.1 28.3z" style="fill:none;stroke:#3d3937;stroke-width:5;stroke-miterlimit:10"/><linearGradient id="a" gradientUnits="userSpaceOnUse" x1="125.011" y1="130.382" x2="179.321" y2="130.382" gradientTransform="rotate(-45.179 150.538 132.76)"><stop offset="0" style="stop-color:#a4dbf8"/><stop offset=".5" style="stop-color:#4c8bbe"/><stop offset="1" style="stop-color:#a4dbf8"/></linearGradient><path d="M130.7 110.8c-10.6 10.6-10.5 27.8.1 38.4 10.6 10.6 27.8 10.5 38.4-.1 10.6-10.6 10.5-27.8-.1-38.4-10.6-10.6-27.8-10.5-38.4.1zm33.5 33.3c-7.8 7.8-20.5 7.9-28.3.1-7.8-7.8-7.9-20.5-.1-28.3 7.8-7.8 20.5-7.9 28.3-.1 7.9 7.7 7.9 20.4.1 28.3z" style="fill:url(#a)"/><radialGradient id="b" cx="152.166" cy="130.382" r="27.155" gradientTransform="rotate(-45.179 150.538 132.76)" gradientUnits="userSpaceOnUse"><stop offset=".729" style="stop-color:#fff;stop-opacity:3.416718e-002"/><stop offset=".78" style="stop-color:#b6e1f5;stop-opacity:.3961"/><stop offset=".83" style="stop-color:#55c3e9;stop-opacity:.7412"/><stop offset=".852" style="stop-color:#00b7e4;stop-opacity:.9"/><stop offset=".871" style="stop-color:#00b9e5;stop-opacity:.7591"/><stop offset=".888" style="stop-color:#36bde7;stop-opacity:.6268"/><stop offset=".905" style="stop-color:#5fc5ea;stop-opacity:.4978"/><stop offset=".922" style="stop-color:#87d0ef;stop-opacity:.371"/><stop offset=".938" style="stop-color:#aedef4;stop-opacity:.2457"/><stop offset=".954" style="stop-color:#d6edfa;stop-opacity:.1232"/><stop offset=".97" style="stop-color:#fff;stop-opacity:1.985490e-003"/><stop offset=".97" style="stop-color:#fff;stop-opacity:9.124206e-004"/></radialGradient><path d="M130.7 110.8c-10.6 10.6-10.5 27.8.1 38.4 10.6 10.6 27.8 10.5 38.4-.1 10.6-10.6 10.5-27.8-.1-38.4-10.6-10.6-27.8-10.5-38.4.1zm33.5 33.3c-7.8 7.8-20.5 7.9-28.3.1-7.8-7.8-7.9-20.5-.1-28.3 7.8-7.8 20.5-7.9 28.3-.1 7.9 7.7 7.9 20.4.1 28.3z" style="fill:url(#b)"/><path d="M170 148.4s-.1 0 0 0c-3.3-2.2-7.5-2.3-11-.5-5.6 2.9-12.4 2.9-18 0-3.5-1.8-7.7-1.7-10.9.5h-.1c.3.3.5.6.8.8 10.6 10.6 27.8 10.5 38.4-.1.3-.2.5-.4.8-.7z" style="opacity:.5;fill:#15192f"/></svg>