<svg version="1.0" xmlns="http://www.w3.org/2000/svg" width="300" height="260" style="enable-background:new 0 0 300 260" xml:space="preserve"><style>.st0{display:none}.st5{display:inline;fill:#fff}.st6{fill:none;stroke:#fff;stroke-width:7;stroke-miterlimit:10}</style><g id="圖層_3"><g id="圖層_23_1_"><g id="XMLID_3_"><path id="XMLID_4_" d="m204.4 245-109-.2c-8.5 0-16.4-4.5-20.6-11.6l-54.4-91.7c-4.2-7.2-4.2-16 0-23.2L75 26.6C79.2 19.4 87.1 15 95.6 15l109 .2c8.5 0 16.4 4.5 20.6 11.6l54.4 91.7c4.2 7.2 4.2 16 0 23.2L225 233.4c-4.2 7.1-12.1 11.6-20.6 11.6z" style="fill:none;stroke:#fff;stroke-width:8;stroke-miterlimit:10"/></g></g></g><g id="圖層_4"><ellipse id="XMLID_2_" class="st6" cx="150" cy="130" rx="94.3" ry="48.6"/><circle id="XMLID_5_" class="st6" cx="150" cy="130" r="43.8"/><path id="XMLID_9_" d="M150 155.9c-14.3 0-25.9-11.6-25.9-25.9h51.7c.1 14.3-11.5 25.9-25.8 25.9z" style="opacity:.46;fill:#fff"/><circle id="XMLID_6_" class="st6" cx="150" cy="130" r="25.7"/></g></svg>