<?xml version="1.0" encoding="utf-8"?>
<!-- Generator: Adobe Illustrator 19.0.0, SVG Export Plug-In . SVG Version: 6.00 Build 0)  -->
<svg version="1.0" xmlns="http://www.w3.org/2000/svg" xmlns:xlink="http://www.w3.org/1999/xlink" x="0px" y="0px" width="300px" height="260px"
	 viewBox="0 0 300 260" style="enable-background:new 0 0 300 260;" xml:space="preserve">
<style type="text/css">
	.st0{display:none;}
	.st1{display:inline;}
	.st2{fill:#E5E5E5;}
	.st3{fill:#9A9999;}
	.st4{fill:#262525;}
	.st5{fill:#E9E8E8;}
	.st6{fill:#8E8E8E;}
	.st7{fill:#313131;}
	.st8{display:inline;fill:#E5E5E5;}
	.st9{display:inline;fill:#9A9999;}
</style>
<g id="cloud1" class="st0">
	<g id="Calque_1" class="st1">
		<path id="XMLID_195_" class="st2" d="M86.4,136.8c-8.6,5.1-19.2,7.1-28.6,5.1c-4.3-0.8-8.6-2.7-11-6.3l-0.8-1.2
			c6.7,0.4,12.9-2.4,18.4-6.3c5.1-3.9,9.4-9.4,13.7-14.5c2-2.7,4.3-5.5,7.1-7.4c2.7-2.4,5.9-3.9,9-3.9c3.5-0.4,7.1,1.2,9,3.9l0,0
			c2-5.1,5.5-8.2,10.2-11.4c2.7-1.6,5.1-3.1,8.2-3.9c3.1-0.8,6.3-0.4,9,1.2l0,0c0.8-1.6,2.7-2.4,3.9-3.9c5.1-5.5,12.5-9,20.4-9
			c4.3,0,8.6,0.8,11,3.9c1.2,1.6,2,3.1,2.4,5.1c0.4,1.2,0.8,2.7,0.8,4.3c0,3.9-2.4,7.8-5.1,11l2.4,0.4c2.7,0.4,5.5,0.4,8.2,0.8
			c1.6,0,3.5,0.4,5.1,1.2c1.2,0.8,2.4,2,3.1,3.1c3.1,3.5,5.9,7.4,7.4,11.8c1.6,4.3,2.4,9.4,0.8,13.7c-0.8,2.7-2.7,5.5-4.3,8.2
			c-1.6,2.4-2.7,4.3-4.7,6.3c-3.5,3.9-9,6.7-14.1,7.8c-5.5,1.2-11,0.4-16.1-1.2c-1.2-0.4-2.4-0.8-3.5-1.6c-1.2-0.4-2-1.2-2.7-2
			c-2.4-2.4-3.9-5.1-5.1-7.8v0.4c-5.1,1.6-10.2,2.7-15.3,3.5c-2,0.4-3.9,0.4-6.3,0.4c-3.1-0.4-6.3-2-9-4.3c-2.4-2.4-4.3-5.1-5.9-7.8
			h0.4c-1.6,1.2-3.1,2.4-5.1,2.7c-1.2,0.4-2.7,0.4-3.9,0.4C92.3,138.4,89.6,139.1,86.4,136.8"/>
		<path id="XMLID_194_" class="st3" d="M190.3,120.3c-1.6-4.3-4.3-8.2-7.4-11.8c-0.8-1.2-2-2.4-3.1-3.1c-1.6-0.8-3.5-1.2-5.1-1.2
			c-2.7-0.4-5.5-0.4-8.2-0.8l-2.4-0.4c2.4-3.1,5.1-6.7,5.1-11c0-1.6-0.4-2.7-0.8-4.3c-0.8-1.6-1.2-3.5-2.4-5.1
			c-2.4-3.1-7.1-4.3-11-3.9c-7.4,0.4-14.9,3.5-20.4,9c-1.2,1.6-3.1,2-3.9,3.9c-2.7-1.6-5.9-2-9-1.2c-3.1,0.8-5.9,2-8.2,3.9
			c-4.7,2.7-8.2,6.3-10.2,11.4c-2-2.7-5.5-4.3-9-3.9c-3.5,0.4-6.7,2-9,3.9c-2.7,2.4-4.7,5.1-7.1,7.4c-3.9,5.1-8.2,10.2-13.7,14.5
			c-5.1,3.9-11.8,6.7-18.4,6.3l0.8,1.2c2.4,3.5,6.7,5.5,11,6.3c0.4,0,0.8,0,1.2,0.4c1.6-0.4,3.1-0.8,4.3-1.2
			c7.1-2.7,13.3-8.2,16.5-15.3c1.2-2.7,2-5.9,3.5-8.6c1.6-2.7,3.1-5.5,5.9-6.7c4.3-2,10.6,0,12.5,4.7l0.4,0.4
			c1.2-3.9,3.9-7.1,7.1-9.4c3.1-2.4,7.1-3.9,11-5.1c2.4-0.8,5.1-1.2,7.4-0.4c2.4,0.8,4.3,3.5,3.5,5.9l1.6,2.7
			c0-6.3,5.1-11.8,10.6-14.1c1.6-0.8,3.5-1.2,5.5-1.2s3.9,0.8,5.1,2c1.6,1.6,2,4.3,1.6,7.1s-1.2,5.5-2.4,7.8l0.8-0.8
			c3.5,0.4,6.7,2.4,9.4,4.7c4.7,3.9,9,8.6,11.4,14.1c2.4,5.5,2.7,12.5,0,18c-2.7,5.1-7.8,8.2-13.3,10.6c2.4,0,4.7,0,7.4-0.4
			c5.5-1.2,10.6-3.5,14.1-7.8c1.6-2,3.1-3.9,4.7-6.3c1.6-2.7,3.1-5.1,4.3-8.2C192.6,129.7,192.2,124.6,190.3,120.3z"/>
		<g id="XMLID_187_">
			<g id="XMLID_189_">
				<path id="XMLID_193_" class="st4" d="M85.6,135.2c-9.4,5.5-30.6,10.2-38-2c-0.4,1.2-1.2,2-1.6,3.1c8.6,0,16.1-3.5,22.3-9
					c7.1-6.3,21.6-32.5,33.3-20c0.8,0.8,2.4,0.8,3.1-0.4c3.9-8.2,14.9-17.2,24.7-12.9c0.8,0.4,1.6,0.4,2.4-0.4
					c4.7-5.1,10.6-9.8,17.6-11.8c14.5-3.5,21.6,8.6,12.9,20.4c-0.8,1.2,0,2.7,1.2,2.7c5.1,1.2,9.8,0.8,14.5,3.1
					c10.6,5.5,14.5,20.4,8.6,30.6c-3.9,6.7-9,12.5-16.5,14.9c-11.4,3.5-22.7,0-27.8-11c-1.2-2.4-4.3-0.4-3.5,2c0,0,0,0,0,0.4
					c0.4-0.8,0.8-2,1.2-2.7c-5.1,1.6-9.8,2.7-15.3,3.1c-9,0.8-14.5-3.1-19.2-11c-0.4,1.2-1.2,2-1.6,3.1h0.4
					c-0.4-1.2-0.8-2.4-1.2-3.5c-4.3,2.7-11.4,4.3-16.5,1.2c-2.4-1.2-4.3,2-2,3.5c6.3,3.5,14.5,2.4,20.4-1.2c1.6-1.2,0.8-3.5-1.2-3.5
					h-0.4c-1.6,0-2.4,2-1.6,3.1c9.8,15.7,22.3,14.1,38.4,9.4c1.2-0.4,1.6-1.6,1.2-2.7c0,0,0,0,0-0.4c-1.2,0.8-2.4,1.2-3.5,2
					c10.2,21.6,38.4,16.1,49.4-1.6c6.7-10.6,6.7-20.8-0.4-31.4c-6.7-10.2-12.5-8.6-23.5-10.6c0.4,0.8,0.8,2,1.2,2.7
					c5.1-6.7,7.8-15.3,1.6-22.3c-5.5-6.3-15.7-5.1-22.7-2.4c-4.7,2-7.4,4.7-11.4,7.4c-4.7,3.1-6.3,0.8-11.4,2
					c-8.6,1.6-16.5,8.2-20,16.1c1.2,0,2-0.4,3.1-0.4c-5.9-6.3-14.1-5.1-20.4,0c-13.3,10.6-18,27.8-38,28.2c-1.6,0-2.4,1.6-1.6,3.1
					c8.2,14.5,31.4,9.8,43.1,3.1C90,137.2,88,134,85.6,135.2L85.6,135.2z"/>
			</g>
		</g>
		<g id="XMLID_180_">
			<g id="XMLID_182_">
				<path id="XMLID_186_" class="st4" d="M143.3,143.8c-7.4-16.5,14.9-37.2,27.4-20.4c4.7,6.7,3.9,17.6-3.9,21.6
					c-5.1,2.4-10.6,0.4-12.5-4.7c-2.4-7.8,5.9-11.8,12.1-9.8c2.4,0.8,3.5-3.1,1.2-3.9c-5.9-2-13.3,0.4-16.9,5.9
					c-2.7,4.3,0,9.8,2.7,13.3c7.8,9,21.2,2,23.5-8.6c2.7-13.3-7.8-25.9-21.6-23.5c-14.5,2.4-21.9,19.2-16.1,31.7
					C140.9,147.8,144.4,145.8,143.3,143.8L143.3,143.8z"/>
			</g>
		</g>
		<g id="XMLID_166_">
			<g id="XMLID_168_">
				<path id="XMLID_172_" class="st4" d="M106.8,135.2c-2.4-4.7-1.6-11,3.1-14.1c5.1-3.5,12.1-5.9,15.7,1.2
					c2.7,5.1,2.4,12.1-4.3,13.7c-3.5,0.8-11.4-1.2-10.2-6.7c0.8-3.5,4.7-5.5,7.8-4.7c2.4,0.8,3.5-3.1,1.2-3.9
					c-7.8-2-17.2,7.4-11,14.5c6.3,7.4,20.4,5.1,22.3-5.1c0.8-4.3-1.2-9.8-3.9-13.3c-3.5-4.3-9-4.3-13.7-2.4c-4.3,1.6-9,4.3-11,8.6
					c-2,4.3-1.2,9.4,0.8,13.3C104.5,139.5,108,137.2,106.8,135.2L106.8,135.2z"/>
			</g>
		</g>
		<g id="XMLID_159_">
			<g id="XMLID_161_">
				<path id="XMLID_165_" class="st4" d="M128.8,91.3c-4.7,4.3-2,13.7,2,17.6c5.1,5.5,13.7,3.1,18.8-1.6c4.7-3.9,7.4-13.3,0-16.1
					c-7.1-2.7-12.1,4.3-11.8,10.6c0,2.4,3.9,2.4,3.9,0c0-1.6,0-3.5,1.2-5.1c2.7-3.5,7.8-2.4,7.8,2c0,3.9-4.7,7.1-7.8,8.2
					c-4.3,1.6-8.2,0.4-10.2-3.9c-1.2-2.4-2.7-7.4-0.4-9.4C133.5,92.1,130.7,89.4,128.8,91.3L128.8,91.3z"/>
			</g>
		</g>
		<g id="cloud2_-_copie">
			<path id="XMLID_205_" class="st5" d="M150.3,145.4c-7.1,0-14.5,1.6-20,5.9c-5.9,4.3-9.4,11.4-8.6,18.4c0.8,5.1,3.9,9.4,8.2,12.1
				c4.3,2.7,9.4,3.9,14.5,3.9c4.3,0,8.6-2,11.8-4.7l0,0c7.8,4.7,18,5.1,26.3,0.8l1.6-1.6c3.9,6.3,8.6,12.5,15.3,15.3
				c3.1,1.2,6.7,1.6,10.2,1.2c6.7-0.8,12.9-3.5,17.6-7.8c4.3-3.9,7.8-9.8,6.3-15.3l0,0c7.1-0.4,14.1-3.5,18-9.4
				c1.2-2,2.4-4.3,2.7-7.1c0-2.4-0.4-4.7-1.2-6.7c-2-5.1-5.5-10.6-11.4-11.8l0,0c0.4-3.9,1.6-9.4,0.4-13.3c-1.2-3.9-3.5-7.8-7.1-9.8
				c-3.1-2-7.4-2.4-11-2c-7.4,0.4-14.5,2.7-20.8,6.7c-2,1.2-3.9,2.7-4.7,5.1l0,0c-0.8-1.2-1.6-2-2.7-1.6c-3.1,0.4-5.9,1.2-8.6,2.4
				c-2.7,1.2-5.1,3.1-6.7,5.5c-0.4,1.2-1.2,2.4-0.4,3.1l0,0c-3.1-1.6-5.1-3.1-8.6-3.1c-3.5,0-7.4,0.4-11,2c-2,1.2-3.9,2.4-5.5,3.9
				C151.9,140.3,149.9,141.5,150.3,145.4"/>
			<path id="XMLID_204_" class="st6" d="M253,150.9c-2-5.5-5.9-10.6-11.4-11.8c0.4-3.9,1.6-9.4,0.4-13.3c-1.2-3.9-3.5-7.8-7.1-9.8
				s-7.4-2.4-11-2c-7.4,0.4-14.5,2.7-20.8,6.7c-2,1.2-3.9,2.7-4.7,5.1c-0.8-1.2-1.6-2-2.7-1.6c-3.1,0.4-5.9,1.2-8.6,2
				c-2.7,1.2-5.1,3.1-6.7,5.5c-0.8,1.2-1.2,2.4-0.4,3.1c-3.1-1.6-5.1-3.1-8.6-3.1c-3.9,0-7.4,0.4-11,2c-2,1.2-3.5,2.4-5.5,3.9
				c-3.1,2.7-5.5,3.5-5.1,7.8c-7.1,0-14.5,1.6-20,5.9c-5.9,4.3-9.4,11.4-8.6,18.4c0.4,3.5,2.4,6.3,4.3,9c0.4-1.2,1.2-2.4,1.6-3.5
				c1.2-2.4,2.7-4.7,4.7-6.3c3.9-3.9,10.2-5.1,15.3-3.5v0.4c5.5-9.4,16.5-15.7,27.4-15.3h1.2c0.4-1.6,1.2-2.4,2.4-3.5
				c7.1-6.7,16.1-11,25.9-11.8v0.4c0-2,2-3.1,3.9-3.9c2-0.4,3.9-0.8,5.9-1.2c2.4,0,5.1,0,6.7,1.6c2,1.6,2.4,4.3,2.4,7.1
				c0,5.5-3.1,10.6-7.4,13.7l5.1-3.1c3.9,0,7.8,3.1,9.8,6.7s2.7,7.8,3.5,11.8c0.4,1.6,0.4,3.5,0.4,5.5c6.7-0.4,13.3-3.9,16.9-9.4
				c1.6-2,2.4-4.3,2.7-7.1C254.2,155.2,253.8,152.9,253,150.9z"/>
			<g id="XMLID_197_">
				<g id="XMLID_199_">
					<path id="XMLID_203_" class="st7" d="M150.3,143.5c-11.4,0.4-23.5,3.9-28.6,14.9c-4.3,9-1.6,18.8,6.3,24.3
						c4.7,3.5,10.6,5.1,16.5,5.1c4.7-0.4,8.2-3.5,12.1-3.9c2.4-0.4,5.1,1.6,7.4,2c3.1,0.8,6.3,0.8,9.8,0.4c4.3-0.4,8.2-2,11.8-4.7
						c-1.2,0-2-0.4-3.1-0.4c7.4,11.4,16.5,20,31,16.9c11.8-2.4,23.9-11.8,21.9-24.7c-0.8,0.8-1.2,1.6-2,2.4
						c9-0.8,19.6-5.5,22.3-15.3c2.4-9.4-4.3-20.4-13.3-23.1c0.4,0.8,0.8,1.6,1.2,2.4c1.6-11,0.8-23.9-11.8-27
						c-10.2-2.7-29.4,1.6-34.5,12.1c1.2,0,2-0.4,3.1-0.4c-6.3-6.3-23.1,2.4-21.9,11c0.8-0.8,2-1.6,2.7-2.4
						c-10.2-5.9-32.5-2.7-32.5,12.1c0,2.4,3.9,2.4,3.9,0c0-5.1,7.4-9.8,11.4-11c5.5-1.6,10.6-0.8,15.3,2c1.6,0.8,3.1-0.8,2.7-2.4
						c-0.8-4.7,12.1-11,15.3-7.4c0.8,0.8,2.4,0.8,3.1-0.4c3.5-7.4,17.6-11,25.1-10.6c14.5,0.4,16.1,11.4,14.5,22.7
						c0,1.2,0.4,2,1.2,2.4c9.8,3.1,14.5,16.5,7.4,24.3c-3.9,4.3-9.4,6.3-15.3,6.7c-1.6,0-2,1.2-2,2.4c2,12.5-14.5,21.9-25.5,20.4
						c-10.2-1.2-15.3-7.8-20.4-15.3c-0.8-1.2-2-1.2-3.1-0.4c-6.7,5.9-18.4,3.9-25.5,0.4c-0.8-0.4-1.6-0.4-2.4,0.4
						c-10.6,9-31.4,2.7-31.4-12.5c0-14.1,15.3-19.2,26.6-19.6C153.1,147.4,153.1,143.5,150.3,143.5L150.3,143.5z"/>
				</g>
			</g>
			<g id="Calque_5_-_copie">
				<g id="XMLID_143_">
					<g id="XMLID_145_">
						<path id="XMLID_149_" class="st7" d="M163.2,181.9c-15.3-5.1-11-27,3.9-29c6.7-0.8,15.7,7.1,11.8,14.5
							c-1.2,2.4-4.7,4.7-7.8,5.1c-2.7,0.8-4.7,0.4-6.7-1.6c-2.4-3.1-1.2-6.3,3.1-9c2.4,0.8,3.5-3.1,1.2-3.9
							c-11-3.1-12.1,13.7-4.3,17.6c11,5.5,23.1-8.2,17.2-18.4c-2.7-5.1-6.7-8.6-12.5-8.6c-6.3,0-11,2.4-14.9,7.4
							c-8.2,10.2-5.5,25.1,7.8,29.4C164.8,186.6,165.6,182.6,163.2,181.9L163.2,181.9z"/>
					</g>
				</g>
				<g id="XMLID_136_">
					<g id="XMLID_138_">
						<path id="XMLID_142_" class="st7" d="M154.6,159.1c-4.7-2.7-12.9-3.1-18-0.4c-5.1,2.7-8.6,9-6.3,14.5c2,4.7,7.8,7.4,12.5,5.5
							c5.5-2.4,4.3-9.8,2-13.7c-1.2-2.4-4.7-0.4-3.5,2c2,3.5,2,9.4-3.5,8.6c-5.5-1.2-5.9-6.7-2.7-10.2c3.5-4.3,12.1-5.5,16.9-2.7
							C154.6,163.8,156.6,160.7,154.6,159.1L154.6,159.1z"/>
					</g>
				</g>
				<g id="XMLID_99_">
					<g id="XMLID_101_">
						<path id="XMLID_105_" class="st7" d="M227.9,191.3c2.4-2.4,3.5-4.7,4.3-7.8s2.7-6.7,2.4-10.2c-0.4-5.1-5.1-9.8-9.4-12.1
							c-11.8-5.9-25.5,1.2-26.3,14.5c-0.8,12.1,14.5,16.5,21.6,7.8c3.1-3.5,4.3-9.8,1.2-13.7c-4.7-5.9-9.8-0.4-14.5,2
							c-2.4,1.2-0.4,4.3,2,3.5c0.8-0.4,1.6-0.4,2-1.2c2.4-2.7,5.1-2,8.2,3.1c-0.4,4.7-6.7,8.2-11,7.1c-10.6-2.4-5.1-16.9,1.6-20
							c6.3-2.7,14.5-0.8,18.4,5.1c3.1,4.7,0,15.3-3.9,19.2C223.2,190.5,225.9,193.2,227.9,191.3L227.9,191.3z"/>
					</g>
				</g>
				<g id="XMLID_92_">
					<g id="XMLID_94_">
						<path id="XMLID_98_" class="st7" d="M206.7,165.4c4.3-7.4,5.5-16.9-3.1-21.9c-7.8-4.7-16.5-1.2-18.8,7.8
							c-2,6.7,3.9,15.3,11,11c2.7-1.6,5.1-5.5,5.1-8.6c0-2-1.2-5.5-3.9-4.7c-2.4,0.8-1.2,4.7,1.2,3.9c-1.6,0.4-2,4.7-3.9,5.9
							c-3.9,2.4-6.3-0.8-6.3-3.9c0.4-4.7,4.3-9,9-8.6c4.3,0.4,8.2,3.1,9,7.4c1.2,3.9-0.8,7.4-2.7,10.6
							C202.4,165.8,205.6,167.7,206.7,165.4L206.7,165.4z"/>
					</g>
				</g>
				<g id="XMLID_29_">
					<g id="XMLID_45_">
						<path id="XMLID_91_" class="st7" d="M240,140.3c3.9,11.8-18.8,12.5-22.3,2c-1.6-5.5,1.6-11.4,7.1-12.9
							c3.5-0.8,6.7,0.8,7.4,4.3c1.6,3.1-0.4,5.1-5.5,5.9c-0.8-0.8-1.6-1.6-2-2.4c-1.6-2-4.3,0.8-2.7,2.7c2.7,3.1,6.7,6.3,11.4,3.9
							c4.3-2.4,4.3-7.4,3.1-11.4c-1.6-4.3-3.9-7.8-8.6-7.8s-9.8,3.1-12.1,7.1c-5.1,9,0.8,19.6,10.6,21.6c9,2,21.9-3.1,18-14.5
							C243.2,136.8,239.3,138,240,140.3L240,140.3z"/>
					</g>
				</g>
			</g>
		</g>
	</g>
</g>
<g id="cloud2_1_" class="st0">
	<g id="cloud2" class="st1">
		<path id="XMLID_17_" class="st5" d="M107.7,126.2c-8.9,0-18.2,2-25.1,7.4c-7.4,5.4-11.8,14.3-10.3,23.1c1,6.4,4.9,11.8,10.3,15.3
			c5.4,3.4,11.8,4.9,18.2,4.9c5.4,0,10.8-2.5,14.8-5.9l0,0c9.8,5.9,22.7,6.4,33,1l2-2c4.9,7.9,10.8,15.8,19.2,19.2
			c3.9,1.5,8.4,2,12.8,1.5c8.4-1,16.2-4.4,22.2-9.8c5.4-4.9,9.8-12.3,7.9-19.2l0,0c8.9-0.5,17.7-4.4,22.7-11.8c2-2.5,3-5.4,3.4-8.9
			c0-3-0.5-5.9-1.5-8.4c-2.5-6.4-6.9-13.3-14.3-14.8l0,0c0.5-4.9,2-11.8,0.5-16.7c-1.5-4.9-4.4-9.8-8.9-12.3
			c-4.4-2.5-9.4-3-13.8-2.5c-9.4,0.5-18.2,3.4-26.1,8.4c-2.5,1.5-4.9,3.4-5.9,6.4l0,0c-1-1.5-2-2.5-3.4-2c-3.9,0.5-7.4,1.5-10.8,3
			s-6.4,3.9-8.4,6.9c-0.5,1.5-1.5,3-0.5,3.9l0,0c-3.9-2.5-6.4-3.9-10.8-3.9c-4.9,0-9.4,0.5-13.8,2.5c-2.5,1.5-4.4,3-6.9,4.9
			C109.7,119.8,107.2,120.8,107.7,126.2"/>
		<path id="XMLID_31_" class="st6" d="M236.7,133.1c-2.5-6.9-7.4-13.3-14.3-14.8c0.5-4.9,2-11.8,0.5-16.7c-1.5-4.9-4.4-9.8-8.9-12.3
			c-4.4-2.5-9.4-3-13.8-2.5c-9.4,0.5-18.2,3.4-26.1,8.4c-2.5,1.5-4.9,3.4-5.9,6.4c-1-1.5-2-2.5-3.4-2c-3.9,0.5-7.4,1.5-10.8,2.5
			c-3.4,1.5-6.4,3.9-8.4,6.9c-1,1.5-1.5,3-0.5,3.9c-3.9-2-6.4-3.9-10.8-3.9c-4.9,0-9.4,0.5-13.8,2.5c-2.5,1.5-4.4,3-6.9,4.9
			c-3.9,3.4-6.9,4.4-6.4,9.8c-8.9,0-18.2,2-25.1,7.4c-7.4,5.4-11.8,14.3-10.8,23.1c0.5,4.4,3,7.9,5.4,11.3c0.5-1.5,1.5-3,2-4.4
			c1.5-3,3.4-5.9,5.9-7.9c4.9-4.9,12.8-6.4,19.2-4.4v0.5c6.9-11.8,20.7-19.7,34.5-19.2h1.5c0.5-2,1.5-3,3-4.4
			c8.9-8.4,20.2-13.8,32.5-14.8v0.5c0-2.5,2.5-3.9,4.9-4.9c2.5-0.5,4.9-1,7.4-1.5c3,0,6.4,0,8.4,2c2.5,2,3,5.4,3,8.9
			c0,6.9-3.9,13.3-9.4,17.2l6.4-3.9c4.9,0,9.8,3.9,12.3,8.4c2.5,4.4,3.4,9.8,4.4,14.8c0.5,2,0.5,4.4,0.5,6.9
			c8.4-0.5,16.7-4.9,21.2-11.8c2-2.5,3-5.4,3.4-8.9C238.2,138.5,237.7,135.5,236.7,133.1z"/>
		<g id="XMLID_57_">
			<g id="XMLID_83_">
				<path id="XMLID_87_" class="st7" d="M107.7,123.7c-14.3,0.5-29.5,4.9-35.9,18.7c-5.4,11.3-2,23.6,7.9,30.5
					c5.9,4.4,13.3,6.4,20.7,6.4c5.9-0.5,10.3-4.4,15.3-4.9c3-0.5,6.4,2,9.4,2.5c3.9,1,7.9,1,12.3,0.5c5.4-0.5,10.3-2.5,14.8-5.9
					c-1.5,0-2.5-0.5-3.9-0.5c9.4,14.3,20.7,25.1,38.9,21.2c14.8-3,30-14.8,27.6-31c-1,1-1.5,2-2.5,3c11.3-1,24.6-6.9,28.1-19.2
					c3-11.8-5.4-25.6-16.7-29.1c0.5,1,1,2,1.5,3c2-13.8,1-30-14.8-34c-12.8-3.4-36.9,2-43.3,15.3c1.5,0,2.5-0.5,3.9-0.5
					c-7.9-7.9-29.1,3-27.6,13.8c1-1,2.5-2,3.4-3c-12.8-7.4-40.9-3.4-40.9,15.3c0,3,4.9,3,4.9,0c0-6.4,9.4-12.3,14.3-13.8
					c6.9-2,13.3-1,19.2,2.5c2,1,3.9-1,3.4-3c-1-5.9,15.3-13.8,19.2-9.4c1,1,3,1,3.9-0.5c4.4-9.4,22.2-13.8,31.5-13.3
					c18.2,0.5,20.2,14.3,18.2,28.6c0,1.5,0.5,2.5,1.5,3c12.3,3.9,18.2,20.7,9.4,30.5c-4.9,5.4-11.8,7.9-19.2,8.4c-2,0-2.5,1.5-2.5,3
					c2.5,15.8-18.2,27.6-32,25.6c-12.8-1.5-19.2-9.8-25.6-19.2c-1-1.5-2.5-1.5-3.9-0.5c-8.4,7.4-23.1,4.9-32,0.5c-1-0.5-2-0.5-3,0.5
					c-13.3,11.3-39.4,3.4-39.4-15.8c0-17.7,19.2-24.1,33.5-24.6C110.7,128.6,110.7,123.7,107.7,123.7L107.7,123.7z"/>
			</g>
		</g>
		<g id="Calque_5">
			<g id="XMLID_69_">
				<g id="XMLID_131_">
					<path id="XMLID_135_" class="st7" d="M124,172c-19.2-6.4-13.8-34,4.9-36.4c8.4-1,19.7,8.9,14.8,18.2c-1.5,3-5.9,5.9-9.8,6.4
						c-3.4,1-5.9,0.5-8.4-2c-3-3.9-1.5-7.9,3.9-11.3c3,1,4.4-3.9,1.5-4.9c-13.8-3.9-15.3,17.2-5.4,22.2
						c13.8,6.9,29.1-10.3,21.7-23.1c-3.4-6.4-8.4-10.8-15.8-10.8c-7.9,0-13.8,3-18.7,9.4c-10.3,12.8-6.9,31.5,9.8,36.9
						C125.5,177.4,126.9,172.9,124,172L124,172z"/>
				</g>
			</g>
			<g id="XMLID_81_">
				<g id="XMLID_125_">
					<path id="XMLID_129_" class="st7" d="M113.1,143.4c-5.9-3.4-16.2-3.9-22.7-0.5s-10.8,11.3-7.9,18.2c2.5,5.9,9.8,9.4,15.8,6.9
						c6.9-3,5.4-12.3,2.5-17.2c-1.5-3-5.9-0.5-4.4,2.5c2.5,4.4,2.5,11.8-4.4,10.8c-6.9-1.5-7.4-8.4-3.4-12.8
						c4.4-5.4,15.3-6.9,21.2-3.4C113.1,149.3,115.6,144.9,113.1,143.4L113.1,143.4z"/>
				</g>
			</g>
			<g id="XMLID_82_">
				<g id="XMLID_119_">
					<path id="XMLID_123_" class="st7" d="M204.7,183.8c3-3,4.4-5.9,5.4-9.8c1-3.9,3.4-8.4,3-12.8c-0.5-6.4-6.4-12.3-11.8-15.3
						c-14.8-7.4-32,1.5-33,18.2c-1,15.3,18.2,20.7,27.1,9.8c3.9-4.4,5.4-12.3,1.5-17.2c-5.9-7.4-12.3-0.5-18.2,2.5
						c-3,1.5-0.5,5.4,2.5,4.4c1-0.5,2-0.5,2.5-1.5c3-3.4,6.4-2.5,10.3,3.9c-0.5,5.9-8.4,10.3-13.8,8.9c-13.3-3-6.4-21.2,2-25.1
						c7.9-3.4,18.2-1,23.1,6.4c3.9,5.9,0,19.2-4.9,24.1C199.3,182.8,202.8,186.2,204.7,183.8L204.7,183.8z"/>
				</g>
			</g>
			<g id="XMLID_88_">
				<g id="XMLID_113_">
					<path id="XMLID_117_" class="st7" d="M178.6,151.3c5.4-9.4,6.9-21.2-3.9-27.6c-9.8-5.9-20.7-1.5-23.6,9.8
						c-2.5,8.4,4.9,19.2,13.8,13.8c3.4-2,6.4-6.9,6.4-10.8c0-2.5-1.5-6.9-4.9-5.9c-3,1-1.5,5.9,1.5,4.9c-2,0.5-2.5,5.9-4.9,7.4
						c-4.9,3-7.9-1-7.9-4.9c0.5-5.9,5.4-11.3,11.3-10.8c5.4,0.5,10.3,3.9,11.3,9.4c1.5,4.9-1,9.4-3.4,13.3
						C172.7,151.8,177.2,154.2,178.6,151.3L178.6,151.3z"/>
				</g>
			</g>
			<g id="XMLID_89_">
				<g id="XMLID_107_">
					<path id="XMLID_111_" class="st7" d="M220.5,119.8c4.9,14.8-23.6,15.8-28.1,2.5c-2-6.9,2-14.3,8.9-16.2c4.4-1,8.4,1,9.4,5.4
						c2,3.9-0.5,6.4-6.9,7.4c-1-1-2-2-2.5-3c-2-2.5-5.4,1-3.4,3.4c3.4,3.9,8.4,7.9,14.3,4.9c5.4-3,5.4-9.4,3.9-14.3
						c-2-5.4-4.9-9.8-10.8-9.8s-12.3,3.9-15.3,8.9c-6.4,11.3,1,24.6,13.3,27.1c11.3,2.5,27.6-3.9,22.7-18.2
						C224.4,115.3,219.5,116.3,220.5,119.8L220.5,119.8z"/>
				</g>
			</g>
		</g>
	</g>
</g>
<g id="cloud3">
	<path id="XMLID_2_" class="st2" d="M114.3,162.3c-11.1,6.6-24.7,9.1-36.8,6.6c-5.5-1-11.1-3.5-14.1-8.1l-1-1.5
		c8.6,0.5,16.6-3,23.7-8.1c6.6-5,12.1-12.1,17.6-18.6c2.5-3.5,5.5-7.1,9.1-9.6c3.5-3,7.6-5,11.6-5c4.5-0.5,9.1,1.5,11.6,5l0,0
		c2.5-6.6,7.1-10.6,13.1-14.6c3.5-2,7.1-4,10.6-5c4-1,8.1-0.5,11.6,1.5l0,0c1-2,3.5-3,5-5c6.6-7.1,16.1-11.6,25.7-11.6
		c5.5,0,11.1,1,14.6,5c1.5,2,2,4,3,6.6c0.5,1.5,1,3.5,1,5.5c0,5-3,10.1-6.6,14.1l3,0.5c3.5,0.5,7.1,0.5,10.6,1c2,0,4.5,0.5,6.6,1.5
		c1.5,1,3,2.5,4,4c4,4.5,7.6,9.6,9.6,15.1s3,12.1,1,17.6c-1,3.5-3.5,7.1-5.5,10.6c-2,3-3.5,5.5-6,8.1c-4.5,5-11.6,8.6-18.1,10.1
		c-7.1,1.5-14.1,0.5-20.7-1.5c-1.5-0.5-3-1-4.5-2c-1.5-0.5-2.5-1.5-3.5-2.5c-3-3-5-6.6-6.6-10.1v0.5c-6.6,2-13.1,3.5-19.7,4.5
		c-2.5,0.5-5.5,0.5-8.1,0.5c-4-0.5-8.1-2.5-11.6-5.5c-3-3-5.5-6.6-7.6-10.1h0.5c-2,1.5-4,3-6.6,3.5c-1.5,0.5-3.5,0.5-5,0.5
		C121.9,164.3,117.8,165.3,114.3,162.3"/>
	<path id="XMLID_28_" class="st3" d="M247.9,141.1c-2-5.5-5.5-10.6-9.6-15.1c-1-1.5-2.5-3-4-4c-2-1-4.5-1.5-6.6-1.5
		c-3.5-0.5-7.1-0.5-10.6-1l-3-0.5c3-4,6.6-8.6,6.6-14.1c0-2-0.5-3.5-1-5.5c-1-2-1.5-4.5-3-6.6c-3-4-9.1-5.5-14.1-5
		c-9.6,0.5-19.2,4.5-26.2,11.6c-1.5,2-4,2.5-5,5c-3.5-2-7.6-2.5-11.6-1.5c-4,1-7.6,2.5-10.6,5c-6,3.5-10.6,8.1-13.1,14.6
		c-2.5-3.5-7.1-5.5-11.6-5c-4.5,0.5-8.6,2.5-11.6,5c-3.5,3-6,6.6-9.1,9.6c-5,6.6-10.6,13.1-17.6,18.6c-6.6,5-15.1,8.6-23.7,8.1
		l1,1.5c3,4.5,8.6,7.1,14.1,8.1c0.5,0,1,0,1.5,0.5c2-0.5,4-1,5.5-1.5c9.1-3.5,17.1-10.6,21.2-19.7c1.5-3.5,2.5-7.6,4.5-11.1
		c2-3.5,4-7.1,7.6-8.6c5.5-2.5,13.6,0,16.1,6l0.5,0.5c1.5-5,5-9.1,9.1-12.1c4-3,9.1-5,14.1-6.6c3-1,6.6-1.5,9.6-0.5
		c3,1,5.5,4.5,4.5,7.6l2,3.5c0-8.1,6.6-15.1,13.6-18.1c2-1,4.5-1.5,7.1-1.5s5,1,6.6,2.5c2,2,2.5,5.5,2,9.1c-0.5,3.5-1.5,7.1-3,10.1
		l1-1c4.5,0.5,8.6,3,12.1,6c6,5,11.6,11.1,14.6,18.1c3,7.1,3.5,16.1,0,23.2c-3.5,6.6-10.1,10.6-17.1,13.6c3,0,6,0,9.6-0.5
		c7.1-1.5,13.6-4.5,18.1-10.1c2-2.5,4-5,6-8.1c2-3.5,4-6.6,5.5-10.6C250.4,153.2,249.9,146.6,247.9,141.1z"/>
	<g id="XMLID_36_">
		<g id="XMLID_76_">
			<path id="XMLID_80_" class="st4" d="M112.8,160.2c-12.1,7.1-39.3,13.1-48.9-2.5c-0.5,1.5-1.5,2.5-2,4c11.1,0,20.7-4.5,28.7-11.6
				c9.1-8.1,27.7-41.8,42.8-25.7c1,1,3,1,4-0.5c5-10.6,19.2-22.2,31.8-16.6c1,0.5,2,0.5,3-0.5c6-6.6,13.6-12.6,22.7-15.1
				c18.6-4.5,27.7,11.1,16.6,26.2c-1,1.5,0,3.5,1.5,3.5c6.6,1.5,12.6,1,18.6,4c13.6,7.1,18.6,26.2,11.1,39.3
				c-5,8.6-11.6,16.1-21.2,19.2c-14.6,4.5-29.2,0-35.8-14.1c-1.5-3-5.5-0.5-4.5,2.5c0,0,0,0,0,0.5c0.5-1,1-2.5,1.5-3.5
				c-6.6,2-12.6,3.5-19.7,4c-11.6,1-18.6-4-24.7-14.1c-0.5,1.5-1.5,2.5-2,4h0.5c-0.5-1.5-1-3-1.5-4.5c-5.5,3.5-14.6,5.5-21.2,1.5
				c-3-1.5-5.5,2.5-2.5,4.5c8.1,4.5,18.6,3,26.2-1.5c2-1.5,1-4.5-1.5-4.5H136c-2,0-3,2.5-2,4c12.6,20.2,28.7,18.1,49.4,12.1
				c1.5-0.5,2-2,1.5-3.5c0,0,0,0,0-0.5c-1.5,1-3,1.5-4.5,2.5c13.1,27.7,49.4,20.7,63.5-2c8.6-13.6,8.6-26.7-0.5-40.3
				c-8.6-13.1-16.1-11.1-30.2-13.6c0.5,1,1,2.5,1.5,3.5c6.6-8.6,10.1-19.7,2-28.7c-7.1-8.1-20.2-6.6-29.2-3c-6,2.5-9.6,6-14.6,9.6
				c-6,4-8.1,1-14.6,2.5c-11.1,2-21.2,10.6-25.7,20.7c1.5,0,2.5-0.5,4-0.5c-7.6-8.1-18.1-6.6-26.2,0c-17.1,13.6-23.2,35.8-48.9,36.3
				c-2,0-3,2-2,4c10.6,18.6,40.3,12.6,55.4,4C118.3,162.8,115.8,158.7,112.8,160.2L112.8,160.2z"/>
		</g>
	</g>
	<g id="XMLID_37_">
		<g id="XMLID_70_">
			<path id="XMLID_74_" class="st4" d="M187.4,171.3c-9.6-21.2,19.2-47.9,35.3-26.2c6,8.6,5,22.7-5,27.7c-6.6,3-13.6,0.5-16.1-6
				c-3-10.1,7.6-15.1,15.6-12.6c3,1,4.5-4,1.5-5c-7.6-2.5-17.1,0.5-21.7,7.6c-3.5,5.5,0,12.6,3.5,17.1c10.1,11.6,27.2,2.5,30.2-11.1
				c3.5-17.1-10.1-33.3-27.7-30.2c-18.6,3-28.2,24.7-20.7,40.8C184.4,176.9,188.4,173.9,187.4,171.3L187.4,171.3z"/>
		</g>
	</g>
	<g id="XMLID_30_">
		<g id="XMLID_58_">
			<path id="XMLID_62_" class="st4" d="M140,160.2c-3-6-2-14.1,4-18.1c6.6-4.5,15.6-7.6,20.2,1.5c3.5,6.6,3,15.6-5.5,17.6
				c-4.5,1-14.6-1.5-13.1-8.6c1-4.5,6-7.1,10.1-6c3,1,4.5-4,1.5-5c-10.1-2.5-22.2,9.6-14.1,18.6c8.1,9.6,26.2,6.6,28.7-6.6
				c1-5.5-1.5-12.6-5-17.1c-4.5-5.5-11.6-5.5-17.6-3c-5.5,2-11.6,5.5-14.1,11.1c-2.5,5.5-1.5,12.1,1,17.1
				C137,165.8,141.5,163.3,140,160.2L140,160.2z"/>
		</g>
	</g>
	<g id="XMLID_3_">
		<g id="XMLID_52_">
			<path id="XMLID_56_" class="st4" d="M168.2,103.8c-6,5.5-2.5,17.6,2.5,22.7c6.6,7.1,17.6,4,24.2-2c6-5,9.6-17.1,0-20.7
				c-9.1-3.5-15.6,5.5-15.1,13.6c0,3,5,3,5,0c0-2,0-4.5,1.5-6.6c3.5-4.5,10.1-3,10.1,2.5c0,5-6,9.1-10.1,10.6
				c-5.5,2-10.6,0.5-13.1-5c-1.5-3-3.5-9.6-0.5-12.1C174.3,105.3,170.8,101.3,168.2,103.8L168.2,103.8z"/>
		</g>
	</g>
</g>
<g id="cloud4" class="st0">
	<g id="cloud4_-_copie" class="st1">
		<path id="XMLID_157_" class="st2" d="M185.1,145.5c0,2.9-1.3,5.5-2.9,7.6c-1.7,2.1-3.8,3.4-5.9,4.6c-2.1,0.8-4.2,2.1-6.3,1.7
			c-0.8,0-2.1-0.4-3.4-0.4c-3.8-1.3-7.6-3.4-10.9-5.9l-1.7,0.4c-6.7,11.4-18.1,18.1-29.4,18.5c-11.4,0-22.7-6.7-29.4-18.1v-0.8
			c-7.2,3.4-15.6,3.4-22.7,0.4c-3.4-1.3-6.7-3.8-9.3-7.2l0.4-1.3c-3.4,2.9-7.2,5.5-11.4,4.6c-2.9-0.8-5.5-3.4-7.6-6.3
			c-1.3-2.1-2.9-4.2-3.4-6.7c-0.8-3.4-0.4-7.2,0-10.9c0.4-2.1,0.8-4.2,1.7-5.9c2.1-3.8,5.5-17.2,9.3-17.7c3.4-0.4,7.2,0,10.5,0.8
			l-0.4,1.3c0.8-3.4,2.5-5.9,5-8c1.7-1.3,3.8-2.1,5.5-2.9c5-2.1,10.5-4.6,16-4.6c1.3,0,2.9,0,4.2,1.3c1.3,0.8,2.1,2.9,1.7,4.6
			l-1.3,0.8c2.9-7.6,9.7-11.4,16-15.1c7.2-3.8,14.3-7.6,21.9-5.9c8.8,1.7,15.1,10.5,21,18.5v1.7c2.1-1.7,4.6-2.9,7.2-3.4
			c2.1-0.8,4.2-1.3,6.3-1.7c8.4-0.8,16.8,4.6,20.6,13.9l-0.4,2.1c5-0.8,10.9-1.7,15.6,1.3c1.3,0.8,2.5,1.7,3.4,3.4
			c1.3,1.7,1.7,4.2,1.7,6.3c0.4,8.4-5,27.8-11.8,30.7c-2.5,1.3-5.5,1.3-8,0"/>
		<path id="XMLID_155_" class="st3" d="M42.5,137.1c0.4-1.7,0.8-2.9,1.3-4.2c2.1-3.8,5.5-5.9,9.3-6.3c3.4-0.4,7.2,0,10.5,0.8
			l-0.4,1.3c0.8-3.4,2.5-17.2,5-19.3c1.7-1.3,3.8-2.1,5.5-2.9c5-2.1,10.5-4.6,16-4.6c1.3,0,2.9,0,4.2,1.3c0.8,0.8,1.7,1.7,1.7,2.9
			c3.4-5.9,9.3-9.3,14.7-12.6c7.2-3.8,14.3-7.6,21.9-5.9c8.8,1.7,15.1,10.5,21,18.5v1.7c2.1-1.7,4.6-2.9,7.2-3.4
			c2.1-0.8,4.2-1.3,6.3-1.7c8.4-0.8,16.8,4.6,20.6,13.9l-0.4,2.1c5-0.8,10.9-1.7,15.6,1.3c1.3,0.8,2.5,13,3.4,14.7v0.4
			c0.8-2.5,1.7-16.4,1.3-19.3c0-2.1-0.4-4.6-1.7-6.3c-0.8-1.3-2.1-2.5-3.4-3.4c-4.6-2.9-10.5-2.1-15.6-1.3l0.4-2.1
			c-3.8-8.8-12.2-14.7-20.6-13.9c-2.1,0.4-4.2,0.8-6.3,1.7c-2.5,0.8-5,1.7-7.2,3.4v-1.7c-5.9-8-12.2-16.8-21-18.5
			c-7.6-1.7-15.1,2.1-21.9,5.9c-5.5,2.9-11.4,6.3-14.7,12.6c0-1.3-0.8-2.5-1.7-2.9c-1.3-0.8-2.9-1.3-4.2-1.3c-5.5,0-10.9,2.1-16,4.6
			c-2.1,0.8-3.8,1.7-5.5,2.9c-2.5,1.7-4.2,4.6-5,8l0.4-1.3c-3.4-0.8-7.2-1.3-10.5-0.8c-3.8,0.8-7.2,13.9-9.3,17.7
			c-0.8,1.7-1.3,3.8-1.7,5.9c-0.4,3.8-0.8,7.6,0,10.9C42.1,136.3,42.5,136.7,42.5,137.1z"/>
		<g id="Calque_12_-_copie">
			<g id="XMLID_245_">
				<g id="XMLID_247_">
					<path id="XMLID_251_" class="st4" d="M183,145.1c-1.3,7.2-7.6,13-15.6,11.8c-3.4-0.4-8-5.9-10.9-5.9c-2.9,0-2.9,0.8-5,2.5
						c-4.2,3.8-6.3,8-11.4,11.4c-4.6,2.9-10.1,4.6-15.6,4.6c-11.8,0-21.5-7.6-27.8-16.8c-0.4-0.8-1.7-1.3-2.5-0.8
						c-10.5,3.8-22.3,1.7-29.9-7.2c-0.4-0.8-1.7-0.8-2.5-0.4c-8.4,5.9-16.4-0.4-18.9-8.8c-1.7-5.9,0.4-11.8,2.5-16.8
						c3.8-9.3,4.2-16.4,16.8-14.3c1.3,0.4,2.1-0.4,2.5-1.3c2.5-6.3,9.3-8.8,15.1-10.5c3.4-0.8,12.6-4.6,12.6,1.7
						c0,2.1,2.9,2.9,3.8,1.3c3.8-8.4,12.2-12.6,20.2-16.4c16-7.2,25.2,2.5,34.1,14.7c0.8,0.8,1.7,1.3,2.9,0.8
						c11.8-6.3,24.8-2.5,30.7,9.7c0.4,0.4,1.3,1.3,1.7,0.8c15.6-1.7,19.8,9.7,16.4,22.7c-2.1,8.4-6.3,21.5-17.7,16.8
						c-2.5-0.8-3.8,2.9-1.3,4.2c8.4,3.4,15.1-0.8,18.9-8c4.2-8,9.3-23.1,4.2-31.5c-2.1-3.8-6.3-5.9-10.5-7.2
						c-3.4-0.8-6.7-0.4-9.7-2.5c-1.7-1.3-3.4-4.6-5-6.3c-8.4-7.2-20.6-7.2-29.9-1.7c0.8,0.4,2.1,0.4,2.9,0.8
						c-7.2-10.1-16-21.5-29.9-19.8C112.8,74.4,98,82.8,93,93.8c1.3,0.4,2.5,0.8,3.8,1.3c-0.4-17.7-32-2.1-36.2,8
						c0.8-0.4,1.7-0.8,2.5-1.3c-10.5-2.1-14.3-1.7-18.5,8.4c-3.8,9.7-8.8,20.2-4.6,30.7c3.4,8.4,9.7,13.5,18.5,11.8
						c5-0.8,2.5-1.7,7.2,0.8c1.7,0.8,3.4,2.1,5.5,2.9c5.5,2.5,11.4,2.9,17.2,2.5c8-0.4,6.7,1.7,13,7.2c3.4,2.9,7.2,5,10.9,6.7
						c10.9,4.2,22.7,2.1,32-4.6c3.4-2.5,5.9-7.6,9.3-9.7c0.8-2.5,1.7-2.5,2.9-0.4c1.7,1.3,3.4,2.1,5.5,2.9s4.2,1.7,6.7,1.7
						c8.8,0.4,16-7.2,17.7-15.1C187.6,143.4,183.4,142.1,183,145.1L183,145.1z"/>
				</g>
			</g>
			<g id="XMLID_214_">
				<g id="XMLID_256_">
					<path id="XMLID_294_" class="st4" d="M83.7,119.4c5-0.4,6.3,10.5,2.9,12.6c-4.6,2.9-12.6-2.1-14.3-5.9
						c-7.2-14.7,12.6-28.6,24.4-16c5,5.5,5,12.6,5,19.8c0.4,9.3-3.8,15.1-8.8,22.3c-1.7,2.1,2.1,4.2,3.8,2.1
						c5.5-7.2,9.7-13.5,9.7-22.7c0-6.3,0-13.9-2.9-19.8C95.9,98,72.8,95,68.6,112.7c-3.4,13,3.8,27.8,19.3,23.1
						c9.7-2.9,5.5-21.9-3.8-21C81.2,115.6,81.2,119.8,83.7,119.4L83.7,119.4z"/>
				</g>
			</g>
			<g id="XMLID_196_">
				<g id="XMLID_296_">
					<path id="XMLID_300_" class="st4" d="M125.4,122c6.7,1.7,13.9,0.8,18.5-5c4.6-5.9,4.6-14.7-0.8-19.8c-5-4.6-14.7-6.3-20.6-2.9
						c-7.6,4.2-11.4,16.8-10.1,24.8c2.1,17.7,23.6,30.3,38.7,18.5c13-10.5,18.9-36.2,3.8-47.5c-2.1-1.7-4.2,2.1-2.1,3.8
						c19.8,14.7-5.5,59.3-28.6,39.1c-9.7-8.4-11.4-29.4,2.1-35.8c6.3-2.9,15.6,2.9,17.2,9.3c0.8,4.2-3.8,9.7-7.2,11.4
						c-2.9,1.3-6.3,0.8-9.3,0C124.1,117.3,122.8,121.1,125.4,122L125.4,122z"/>
				</g>
			</g>
			<g id="XMLID_15_">
				<g id="XMLID_302_">
					<path id="XMLID_306_" class="st4" d="M163.6,108.5c1.3-1.7,5.5-1.3,7.2-1.3c3.4,0.4,5.9,2.5,7.6,5c2.1,3.4,4.2,10.5,1.7,13.9
						c-2.1,2.9-5,5.5-8.4,3.8c-2.1-0.8-2.9-2.1-3.8-4.2c-0.4-1.3-0.8-2.1-0.8-3.4c-0.4-2.9,1.7-5,5.5-5.5c2.1,1.7,5-1.3,2.9-2.9
						c-7.2-5.9-13.9,4.2-12.2,10.9s8.8,13,15.6,8.4c2.9-2.1,6.3-5.5,6.7-9.3c0.4-4.6-0.8-10.1-3.4-13.9c-4.2-6.7-16.8-11.4-22.3-4.2
						C158.6,108.5,162,110.6,163.6,108.5L163.6,108.5z"/>
				</g>
			</g>
		</g>
	</g>
	<path id="XMLID_290_" class="st8" d="M159,179.2c-9.3,5.5-20.6,7.6-31.1,5.5c-4.6-0.8-9.3-2.9-11.8-6.7l-0.8-1.3
		c7.2,0.4,13.9-2.5,19.8-6.7c5.9-4.2,10.1-10.1,14.7-15.6c2.1-2.9,4.6-5.9,7.6-8c2.9-2.5,6.3-4.2,9.7-4.2c3.8-0.4,7.6,1.3,9.7,4.2
		l0,0c2.1-5.5,5.9-8.8,10.9-12.2c2.9-1.7,5.5-3.4,8.8-4.2c3.4-0.8,6.7-0.4,9.7,1.3l0,0c0.8-1.7,2.9-2.5,4.2-4.2
		c5.5-5.9,13.5-9.7,21.9-9.7c4.6,0,9.3,0.8,11.8,4.2c1.3,1.7,2.1,3.4,2.5,5.5c0.4,1.3,0.8,2.9,0.8,4.6c0,4.2-2.5,8.4-5.5,11.8
		l2.5,0.4c2.9,0.4,5.9,0.4,8.8,0.8c1.7,0,3.8,0.4,5.5,1.3c1.3,0.8,2.5,2.1,3.4,3.4c3.4,3.8,6.3,8,8,12.6c1.7,4.6,2.5,10.1,0.8,14.7
		c-0.8,2.9-2.9,5.9-4.6,8.8c-1.7,2.5-2.9,4.6-5,6.7c-3.8,4.2-9.7,7.2-15.1,8.4c-5.9,1.3-11.8,0.4-17.2-1.3c-1.3-0.4-2.5-0.8-3.8-1.7
		c-1.3-0.4-2.1-1.3-2.9-2.1c-2.5-2.5-4.2-5.5-5.5-8.4v0.4c-5.5,1.7-10.9,2.9-16.4,3.8c-2.1,0.4-4.2,0.4-6.7,0.4
		c-3.4-0.4-6.7-2.1-9.7-4.6c-2.5-2.5-4.6-5.5-6.3-8.4h0.4c-1.7,1.3-3.4,2.5-5.5,2.9c-1.3,0.4-2.9,0.4-4.2,0.4
		C164.9,180.8,162,181.7,159,179.2"/>
	<path id="XMLID_289_" class="st9" d="M270.5,161.5c-1.7-4.6-4.6-8.8-8-12.6c-0.8-1.3-2.1-2.5-3.4-3.4c-1.7-0.8-3.8-1.3-5.5-1.3
		c-2.9-0.4-5.9-0.4-8.8-0.8l-2.5-0.4c2.5-3.4,5.5-7.2,5.5-11.8c0-1.7-0.4-2.9-0.8-4.6c-0.8-1.7-1.3-3.8-2.5-5.5
		c-2.5-3.4-7.6-4.6-11.8-4.2c-8,0.4-16,3.8-21.9,9.7c-1.3,1.7-3.4,2.1-4.2,4.2c-2.9-1.7-6.3-2.1-9.7-1.3s-6.3,2.1-8.8,4.2
		c-5,2.9-8.8,6.7-10.9,12.2c-2.1-2.9-5.9-4.6-9.7-4.2c-3.8,0.4-7.2,2.1-9.7,4.2c-2.9,2.5-5,5.5-7.6,8c-4.2,5.5-8.8,10.9-14.7,15.6
		c-5.5,4.2-12.6,7.2-19.8,6.7l0.8,1.3c2.5,3.8,7.2,5.9,11.8,6.7c0.4,0,0.8,0,1.3,0.4c1.7-0.4,3.4-0.8,4.6-1.3
		c7.6-2.9,14.3-8.8,17.7-16.4c1.3-2.9,2.1-6.3,3.8-9.3c1.7-2.9,3.4-5.9,6.3-7.2c4.6-2.1,11.4,0,13.5,5l0.4,0.4
		c1.3-4.2,4.2-7.6,7.6-10.1c3.4-2.5,7.6-4.2,11.8-5.5c2.5-0.8,5.5-1.3,8-0.4s4.6,3.8,3.8,6.3l1.7,2.9c0-6.7,5.5-12.6,11.4-15.1
		c1.7-0.8,3.8-1.3,5.9-1.3s4.2,0.8,5.5,2.1c1.7,1.7,2.1,4.6,1.7,7.6c-0.4,2.9-1.3,5.9-2.5,8.4l0.8-0.8c3.8,0.4,7.2,2.5,10.1,5
		c5,4.2,9.7,9.3,12.2,15.1c2.5,5.9,2.9,13.5,0,19.3c-2.9,5.5-8.4,8.8-14.3,11.4c2.5,0,5,0,8-0.4c5.9-1.3,11.4-3.8,15.1-8.4
		c1.7-2.1,3.4-4.2,5-6.7c1.7-2.9,3.4-5.5,4.6-8.8C272.6,171.6,272.2,166.1,270.5,161.5z"/>
	<g id="XMLID_282_" class="st1">
		<g id="XMLID_284_">
			<path id="XMLID_288_" class="st4" d="M157.8,177.5c-10.1,5.9-32.8,10.9-40.8-2.1c-0.4,1.3-1.3,2.1-1.7,3.4c9.3,0,17.2-3.8,24-9.7
				c7.6-6.7,23.1-34.9,35.8-21.5c0.8,0.8,2.5,0.8,3.4-0.4c4.2-8.8,16-18.5,26.5-13.9c0.8,0.4,1.7,0.4,2.5-0.4
				c5-5.5,11.4-10.5,18.9-12.6c15.6-3.8,23.1,9.3,13.9,21.9c-0.8,1.3,0,2.9,1.3,2.9c5.5,1.3,10.5,0.8,15.6,3.4
				c11.4,5.9,15.6,21.9,9.3,32.8c-4.2,7.2-9.7,13.5-17.7,16c-12.2,3.8-24.4,0-29.9-11.8c-1.3-2.5-4.6-0.4-3.8,2.1c0,0,0,0,0,0.4
				c0.4-0.8,0.8-2.1,1.3-2.9c-5.5,1.7-10.5,2.9-16.4,3.4c-9.7,0.8-15.6-3.4-20.6-11.8c-0.4,1.3-1.3,2.1-1.7,3.4h0.4
				c-0.4-1.3-0.8-2.5-1.3-3.8c-4.6,2.9-12.2,4.6-17.7,1.3c-2.5-1.3-4.6,2.1-2.1,3.8c6.7,3.8,15.6,2.5,21.9-1.3
				c1.7-1.3,0.8-3.8-1.3-3.8h-0.4c-1.7,0-2.5,2.1-1.7,3.4c10.5,16.8,24,15.1,41.2,10.1c1.3-0.4,1.7-1.7,1.3-2.9c0,0,0,0,0-0.4
				c-1.3,0.8-2.5,1.3-3.8,2.1c10.9,23.1,41.2,17.2,53-1.7c7.2-11.4,7.2-22.3-0.4-33.6c-7.2-10.9-13.5-9.3-25.2-11.4
				c0.4,0.8,0.8,2.1,1.3,2.9c5.5-7.2,8.4-16.4,1.7-24c-5.9-6.7-16.8-5.5-24.4-2.5c-5,2.1-8,5-12.2,8c-5,3.4-6.7,0.8-12.2,2.1
				c-9.3,1.7-17.7,8.8-21.5,17.2c1.3,0,2.1-0.4,3.4-0.4c-6.3-6.7-15.1-5.5-21.9,0c-14.3,11.4-19.3,29.9-40.8,30.3
				c-1.7,0-2.5,1.7-1.7,3.4c8.8,15.6,33.6,10.5,46.3,3.4C162.4,179.6,160.3,176.2,157.8,177.5L157.8,177.5z"/>
		</g>
	</g>
	<g id="XMLID_275_" class="st1">
		<g id="XMLID_277_">
			<path id="XMLID_281_" class="st4" d="M220,186.3c-8-17.7,16-40,29.4-21.9c5,7.2,4.2,18.9-4.2,23.1c-5.5,2.5-11.4,0.4-13.5-5
				c-2.5-8.4,6.3-12.6,13-10.5c2.5,0.8,3.8-3.4,1.3-4.2c-6.3-2.1-14.3,0.4-18.1,6.3c-2.9,4.6,0,10.5,2.9,14.3
				c8.4,9.7,22.7,2.1,25.2-9.3c2.9-14.3-8.4-27.8-23.1-25.2c-15.6,2.5-23.6,20.6-17.2,34.1C217.5,190.9,220.8,188.8,220,186.3
				L220,186.3z"/>
		</g>
	</g>
	<g id="XMLID_261_" class="st1">
		<g id="XMLID_263_">
			<path id="XMLID_267_" class="st4" d="M180.5,177.5c-2.5-5-1.7-11.8,3.4-15.1c5.5-3.8,13-6.3,16.8,1.3c2.9,5.5,2.5,13-4.6,14.7
				c-3.8,0.8-12.2-1.3-10.9-7.2c0.8-3.8,5-5.9,8.4-5c2.5,0.8,3.8-3.4,1.3-4.2c-8.4-2.1-18.5,8-11.8,15.6c6.7,8,21.9,5.5,24-5.5
				c0.8-4.6-1.3-10.5-4.2-14.3c-3.8-4.6-9.7-4.6-14.7-2.5c-4.6,1.7-9.7,4.6-11.8,9.3c-2.1,4.6-1.3,10.1,0.8,14.3
				C177.9,181.7,181.7,179.6,180.5,177.5L180.5,177.5z"/>
		</g>
	</g>
	<g id="XMLID_252_" class="st1">
		<g id="XMLID_254_">
			<path id="XMLID_260_" class="st4" d="M204,130.4c-5,4.6-2.1,14.7,2.1,18.9c5.5,5.9,14.7,3.4,20.2-1.7c5-4.2,8-14.3,0-17.2
				c-7.6-2.9-13,4.6-12.6,11.4c0,2.5,4.2,2.5,4.2,0c0-1.7,0-3.8,1.3-5.5c2.9-3.8,8.4-2.5,8.4,2.1c0,4.2-5,7.6-8.4,8.8
				c-4.6,1.7-8.8,0.4-10.9-4.2c-1.3-2.5-2.9-8-0.4-10.1C209.1,131.2,206.1,128.3,204,130.4L204,130.4z"/>
		</g>
	</g>
</g>
<g id="Calque_1_1_" class="st0">
	<g id="cloud4_1_" class="st1">
		<path id="XMLID_152_" class="st2" d="M226,155.8c0,2.8-1.7,5.1-3.4,7.4c-1.7,1.7-4.5,3.4-6.8,4.5c-2.3,1.1-5.1,1.7-7.4,1.7
			c-1.1,0-2.3,0-4-0.6c-4.5-1.1-9.1-3.4-13-5.7l-1.7,0.6c-7.9,10.8-21.5,18.1-35.2,18.1s-27.2-6.8-35.2-17.6v-1.1
			c-8.5,3.4-18.7,3.4-27.2,0.6c-4-1.7-7.9-3.4-10.8-6.8l0.6-1.1c-4,2.8-9.1,5.7-13.6,4.5c-3.4-0.6-6.8-3.4-9.1-6.2
			c-1.7-2.3-3.4-4.5-4-6.8c-1.1-3.4-0.6-7.4,0-10.8c0.6-2.3,1.1-4,2.3-5.7c2.3-4,6.8-5.7,10.8-6.2c4.5-0.6,8.5,0,13,0.6l-0.6,1.1
			c1.1-3.4,3.4-6.2,6.2-7.9c1.7-1.1,4.5-2.3,6.8-2.8c6.2-2.3,12.5-4.5,19.3-4.5c1.7,0,3.4,0,5.1,1.1c1.7,1.1,2.3,2.8,1.7,4.5
			l-1.1,1.1c3.4-7.4,11.9-11.3,19.3-14.7c8.5-4,17.6-7.4,26.1-6.2c10.2,1.7,18.1,10.2,25.5,18.1v1.7c2.3-1.7,5.7-2.8,8.5-3.4
			c2.3-0.6,5.1-1.1,7.4-1.7c9.6-1.1,19.8,4.5,24.4,13.6l-0.6,2.3c6.2-1.1,13-1.7,18.7,1.1c1.7,0.6,2.8,1.7,4,3.4
			c1.1,1.7,1.7,4,1.7,6.2c0.6,8.5-6.2,16.4-14.2,19.3c-3.4,1.1-6.8,1.7-9.6,0"/>
		<path id="XMLID_16_" class="st3" d="M55.4,147.3c0.6-1.7,1.1-2.8,1.7-4c2.3-4,6.8-5.7,10.8-6.2c4.5-0.6,8.5,0,13,0.6l-0.6,1.1
			c1.1-3.4,3.4-6.2,6.2-7.9c1.7-1.1,4.5-2.3,6.8-2.8c6.2-2.3,12.5-4.5,19.3-4.5c1.7,0,3.4,0,5.1,1.1c1.1,0.6,1.7,1.7,1.7,2.8
			c4-5.7,11.3-9.1,17.6-12.5c8.5-4,17-7.4,26.1-6.2c10.2,1.7,18.1,10.2,25.5,18.1v1.7c2.3-1.7,5.7-2.8,8.5-3.4
			c2.3-0.6,5.1-1.1,7.4-1.7c9.6-1.1,19.8,4.5,24.4,13.6l-0.6,2.3c6.2-1.1,13-1.7,18.7,1.1c1.7,0.6,2.8,1.7,4,3.4v0.6
			c1.1-2.3,1.7-5.1,1.7-7.9c0-2.3-0.6-4.5-1.7-6.2c-1.1-1.1-2.3-2.3-4-3.4c-5.7-2.8-12.5-2.3-18.7-1.1l0.6-2.3
			c-4.5-8.5-14.7-14.2-24.4-13.6c-2.8,0-5.1,1.1-7.4,1.7c-2.8,0.6-5.7,1.7-8.5,3.4v-1.7c-6.8-7.9-14.7-16.4-25.5-18.1
			c-9.1-1.7-18.1,2.3-26.1,6.2c-6.8,2.8-13.6,6.2-17.6,12.5c0-1.1-1.1-2.3-1.7-2.8c-1.7-1.1-3.4-1.1-5.1-1.1c-6.8,0-13,2.3-19.3,4.5
			c-2.3,0.6-4.5,1.7-6.8,2.8c-2.8,1.7-5.1,4.5-6.2,7.9l0.6-1.1c-4.5-0.6-8.5-1.1-13-0.6c-4.5,0.6-8.5,2.8-10.8,6.2
			c-1.1,1.7-1.7,4-2.3,5.7c-0.6,3.4-1.1,7.4,0,10.8C54.8,146.8,55.4,147.3,55.4,147.3z"/>
		<g id="Calque_12">
			<g id="XMLID_156_">
				<g id="XMLID_235_">
					<path id="XMLID_239_" class="st4" d="M223.8,155.3c-4,14.7-17.6,12.5-26.6,7.9c-1.1-0.6-3.4-2.8-5.7-2.8c-4,0-5.1,2.8-7.9,5.7
						c-18.1,18.7-46.5,15.3-62.4-4.5c-0.6-0.6-1.7-1.1-2.8-0.6c-11.9,3.4-25.5,2.3-35.2-6.8c-1.1-1.1-2.3-1.1-3.4-0.6
						c-22.1,12.5-34.6-32.3,0.6-27.2c1.1,0,2.8,0,3.4-1.1c2.3-5.1,32.3-19.3,32.9-9.6c0,2.8,4,4,5.1,1.7
						c6.2-10.2,22.1-16.4,32.9-18.1c14.2-1.7,23.2,7.4,31.7,17c0.6,0.6,1.7,1.1,2.8,0.6c13.6-5.1,28.3-5.1,36.9,8.5
						c0.6,0.6,1.7,1.7,2.3,1.1c9.6-0.6,27.2,1.7,18.7,18.7c-3.4,6.8-13.6,9.6-20.4,7.4c-3.4-1.1-5.1,4.5-1.7,5.7
						c14.2,4,31.2-6.2,30-22.1c-0.6-7.4-5.1-11.3-11.9-13.6c-4.5-1.7-10.8-1.1-14.7-3.4c-3.4-2.3-5.7-6.2-9.1-8.5
						c-8.5-4.5-15.3-2.8-23.8-1.7c-10.8,1.1-15.3-9.6-24.4-13.6c-17-7.9-45.4,2.8-55,18.7c1.7,0.6,3.4,1.1,5.1,1.7
						c-0.6-13-17-7.9-24.9-5.7c-7.4,2.3-10.8,6.2-17,9.1c-5.1,2.8-11.3,0-17,2.3c-9.6,4-13.6,15.9-10.8,25.5
						c1.7,5.1,6.2,10.8,10.8,13.6c6.2,3.4,9.1,0.6,15.3,0.6c7.4,0,14.2,6.2,21.5,7.4c7.4,1.1,14.7-1.7,21,2.3
						c12.5,8.5,22.1,15.3,38,13.6c8.5-1.1,16.4-4.5,23.2-9.6c2.3-1.7,5.1-6.2,7.9-7.4s5.1,1.7,9.1,2.8c12.5,4.5,26.1-0.6,29.5-13.6
						C230,153,224.3,151.9,223.8,155.3L223.8,155.3z"/>
				</g>
			</g>
			<g id="XMLID_154_">
				<g id="XMLID_229_">
					<path id="XMLID_233_" class="st4" d="M105.8,137.1c4.5-0.6,9.1,5.1,9.1,9.1c0.6,7.9-9.1,10.2-14.7,6.8c-9.6-5.1-13-21-0.6-24.4
						c8.5-2.3,18.1,0,23.2,7.4c7.4,10.2,0,18.1-6.8,25.5c-2.3,2.8,1.7,6.8,4,4c5.7-6.2,12.5-12.5,11.9-21.5c0-6.8-4.5-13-9.6-17
						c-10.8-7.9-34.6-7.4-36.3,9.1c-1.7,14.2,14.2,30,28.3,22.1c5.1-2.8,8.5-9.6,6.8-15.3s-9.1-12.5-15.3-11.9
						C101.9,131.5,101.9,137.1,105.8,137.1L105.8,137.1z"/>
				</g>
			</g>
			<g id="XMLID_206_">
				<g id="XMLID_223_">
					<path id="XMLID_227_" class="st4" d="M154.6,144.5c15.3,3.4,34.6-8.5,22.7-25.5c-12.5-17.6-36.3-1.1-38.6,15.9
						c-4,24.9,27.8,28.3,44.2,21c17-7.9,26.1-32.3,7.4-43.7c-2.8-1.7-6.2,2.8-2.8,5.1c27.2,17-20.4,54.4-39.1,30.6
						c-7.9-9.6-1.1-26.6,11.3-29.5c6.8-1.7,14.7,1.7,15.9,8.5c2.3,12.5-10.2,14.2-18.7,12.5C152.9,138.3,151.2,143.9,154.6,144.5
						L154.6,144.5z"/>
				</g>
			</g>
			<g id="XMLID_207_">
				<g id="XMLID_217_">
					<path id="XMLID_221_" class="st4" d="M200.5,131.5c2.3-2.3,9.1-1.7,11.9-0.6c4,1.1,7.9,5.7,8.5,10.2c0.6,5.1-3.4,8.5-8.5,8.5
						c-2.8,0-5.7-0.6-6.8-4c-1.1-3.4,2.8-7.9,6.2-5.7c2.8,2.3,5.7-2.8,2.8-5.1c-7.4-5.7-16.4,3.4-14.7,11.3
						c2.3,9.6,14.7,11.3,21.5,5.7c7.4-5.7,5.7-16.4,0-22.1c-3.4-3.4-7.9-5.1-12.5-5.7c-4,0-9.1-0.6-11.9,2.8
						C193.7,130.3,197.7,134.3,200.5,131.5L200.5,131.5z"/>
				</g>
			</g>
		</g>
	</g>
</g>
</svg>
