<?xml version="1.0" encoding="utf-8"?>
<!-- Generator: Adobe Illustrator 19.0.0, SVG Export Plug-In . SVG Version: 6.00 Build 0)  -->
<svg version="1.0" xmlns="http://www.w3.org/2000/svg" xmlns:xlink="http://www.w3.org/1999/xlink" x="0px" y="0px" width="300px" height="260px"
	 viewBox="0 0 300 260" style="enable-background:new 0 0 300 260;" xml:space="preserve">
<style type="text/css">
	.st0{fill:none;stroke:#30332F;stroke-width:3;stroke-miterlimit:10;}
	.st1{opacity:0.6;}
	.st2{fill:#3F6E34;}
	.st3{fill:#60B446;}
	.st4{fill:#80C460;}
	.st5{opacity:0.15;}
	.st6{fill:#FFFFFF;}
	.st7{opacity:0.15;fill:#FFFFFF;}
	.st8{fill:none;stroke:#30332F;stroke-miterlimit:10;}
</style>
<g id="Calque_14">
</g>
<g id="圖層_1">
	<g id="Calque_4">
		<g id="XMLID_1_">
			<path id="XMLID_27_" class="st0" d="M235.1,140c-1.2-1.3,0.2-2.4-1-3.8c-0.7-0.9-3.2-0.8-3.6-1.8c-0.6-1.2,1-2.3,1.6-3.2
				c0.5-0.7,0.4-2.8,2-3.2c1.3-0.3,2.8,0.3,2.9-0.4c0.1-0.6-2-1.8-1.8-2.8c0.1-0.7,2.2-0.6,2.8-1.3c0.4-0.5-0.4-2.5,0.4-3.1
				c0.8-0.6,2.9-0.3,3.2-1.3c0.4-0.9-1.1-2.8-0.7-3.7c0.5-0.8,2.4-0.3,3.4-0.8c0.7-0.4,1.1-2.6,2.3-2.7c0.9-0.1,2.4,1.5,3.5,1.1
				c0.9-0.4,1.2-2.6,2.2-3.1c1-0.4,2.6,1.1,3.6,0.8c1-0.3,1.8-2.5,2.8-2.5c1.3,0,2.1,2.2,3.3,2.6c1.2,0.4,3.2-0.7,4.2,0
				c1,0.8,0.5,3,1.2,4c0.7,1,3.1,1.3,3.4,2.4c0.5,1.7-0.3,4,0.7,5.1c1.2,1.2,3.9,0.7,5,1.5c1.4,1.1,1,3.1,1.3,4.7
				c0.2,1.2,1.9,2.9,1,4.8c-0.2,0.5-2.3,0.2-2.5,0.6c-0.2,0.5,1.3,1.9,1.1,2.3c-0.3,0.5-2.3,0.1-2.5,0.5c-0.3,0.5,1.2,1.9,1,2.4
				c-0.4,0.7-2.4,0.9-2.4,1.6c0.1,0.7,2.2,1,2.5,1.6c0.2,0.7-1.5,1.5-1.6,2.3c-0.1,0.6,1.5,1.9,1,2.6c-0.4,0.5-2.4-0.6-3.4-0.2
				c-0.8,0.3-1,2.4-1.9,2.7c-0.9,0.2-2.3-1.4-3.1-1.1c-1,0.3-0.8,2.4-1.4,2.9c-0.7,0.6-2.7-0.4-3.4,0c-0.9,0.5-1.1,2.7-2,2.8
				c-0.9,0.2-1.6-1.8-2.6-2.2c-0.8-0.3-2.6,0.8-3.4,0c-1.2-1.3-1.5-3.3-2.2-3.2c-0.9,0.2-0.6,2.8-1.4,3.8c-0.7,0.9-2.5,0.3-3.5,0.5
				c-0.8,0.2-2.1,1.9-3.4,1c-0.7-0.4-0.4-2.6-1.1-3.1c-0.7-0.5-2.6,0.7-3.3,0.2c-0.7-0.5-0.1-2.6-0.7-3.2c-0.7-0.7-2.8-0.3-3.1-1.1
				c-0.3-0.7,1.7-1.6,1.7-2.2c0.1-0.7-1.8-1.5-1.7-2.1c0.1-0.6,2-1.4,1.7-2.2C237.5,140.3,235.5,140.7,235.1,140z"/>
		</g>
		<g id="XMLID_5_" class="st1">
			<path id="XMLID_40_" class="st2" d="M235.1,140c-1.2-1.3,0.2-2.4-1-3.8c-0.7-0.9-3.2-0.8-3.6-1.8c-0.6-1.2,1-2.3,1.6-3.2
				c0.5-0.7,0.4-2.8,2-3.2c1.3-0.3,2.8,0.3,2.9-0.4c0.1-0.6-2-1.8-1.8-2.8c0.1-0.7,2.2-0.6,2.8-1.3c0.4-0.5-0.4-2.5,0.4-3.1
				c0.8-0.6,2.9-0.3,3.2-1.3c0.4-0.9-1.1-2.8-0.7-3.7c0.5-0.8,2.4-0.3,3.4-0.8c0.7-0.4,1.1-2.6,2.3-2.7c0.9-0.1,2.4,1.5,3.5,1.1
				c0.9-0.4,1.2-2.6,2.2-3.1c1-0.4,2.6,1.1,3.6,0.8c1-0.3,1.8-2.5,2.8-2.5c1.3,0,2.1,2.2,3.3,2.6c1.2,0.4,3.2-0.7,4.2,0
				c1,0.8,0.5,3,1.2,4c0.7,1,3.1,1.3,3.4,2.4c0.5,1.7-0.3,4,0.7,5.1c1.2,1.2,3.9,0.7,5,1.5c1.4,1.1,1,3.1,1.3,4.7
				c0.2,1.2,1.9,2.9,1,4.8c-0.2,0.5-2.3,0.2-2.5,0.6c-0.2,0.5,1.3,1.9,1.1,2.3c-0.3,0.5-2.3,0.1-2.5,0.5c-0.3,0.5,1.2,1.9,1,2.4
				c-0.4,0.7-2.4,0.9-2.4,1.6c0.1,0.7,2.2,1,2.5,1.6c0.2,0.7-1.5,1.5-1.6,2.3c-0.1,0.6,1.5,1.9,1,2.6c-0.4,0.5-2.4-0.6-3.4-0.2
				c-0.8,0.3-1,2.4-1.9,2.7c-0.9,0.2-2.3-1.4-3.1-1.1c-1,0.3-0.8,2.4-1.4,2.9c-0.7,0.6-2.7-0.4-3.4,0c-0.9,0.5-1.1,2.7-2,2.8
				c-0.9,0.2-1.6-1.8-2.6-2.2c-0.8-0.3-2.6,0.8-3.4,0c-1.2-1.3-1.5-3.3-2.2-3.2c-0.9,0.2-0.6,2.8-1.4,3.8c-0.7,0.9-2.5,0.3-3.5,0.5
				c-0.8,0.2-2.1,1.9-3.4,1c-0.7-0.4-0.4-2.6-1.1-3.1c-0.7-0.5-2.6,0.7-3.3,0.2c-0.7-0.5-0.1-2.6-0.7-3.2c-0.7-0.7-2.8-0.3-3.1-1.1
				c-0.3-0.7,1.7-1.6,1.7-2.2c0.1-0.7-1.8-1.5-1.7-2.1c0.1-0.6,2-1.4,1.7-2.2C237.5,140.3,235.5,140.7,235.1,140z"/>
		</g>
		<g id="XMLID_4_">
			<path id="XMLID_43_" class="st3" d="M237,139.7c-1.4-1.5,1.5-3.9,0.3-5.5c-0.9-1.2-5.2-1.5-5.1-2.6c0.1-1.1,3.3,0.2,5.3-0.2
				c1.5-0.3-0.9-2.9-0.9-3.9c0-0.7,3.7-0.6,4.3-1.7c0.4-0.6-1.9-3.9-1-4.7c1-0.7,4.5,0.5,4.9-0.6c0.4-1.1-2.4-4.4-1.4-5.2
				c0.7-0.6,3.2,2.5,4.7,2.3c1.1-0.1,1.3-4.4,2.5-4.9c1.1-0.4,3.6,2.8,4.8,2.4c1.2-0.4,1.7-4.6,2.9-4.6c1.5,0,2,4.2,3.2,4.8
				c1.3,0.6,4.8-1.6,5.7-0.6c1,1.1-1.7,4.3-1.3,5.6c0.6,2.1,5,1.3,6.3,2.4c1.6,1.3,0.3,4.9,1.2,6.2c0.8,1.2,4.4,2.5,3.3,5
				c-0.3,0.6-4.2-0.5-4.4,0c-0.3,0.6,3,2.9,2.8,3.4c-0.3,0.6-4.1-0.8-4.4-0.3c-0.5,0.9,3.2,2.1,3.4,2.8c0.2,0.8-3.4,2.2-3.3,3
				c0.1,0.7,3.5,2.4,2.9,3.2c-0.4,0.6-3.6-2.1-4.8-1.7c-0.9,0.3-0.7,4.4-1.7,4.7c-1.1,0.4-4-2.7-4.6-2.2c-0.9,0.7,0.3,4.7-0.6,5.1
				c-1,0.5-2.5-3.1-3.6-3.3c-0.9-0.2-3.7,2.6-4.6,1.7c-1.5-1.6-2.3-4.4-3.1-3.7c-0.8,0.7,1,5.2,0,6c-0.8,0.6-2-2.5-3.6-3.5
				c-0.8-0.5-3.8,2.3-4.7,1.8c-0.9-0.6,0.7-4.3,0-4.9c-0.8-0.7-4.7,0.7-5-0.2c-0.3-0.9,3.6-1.9,3.8-2.6c0.1-0.7-3.7-1.4-3.8-2.2
				C237.3,140.1,237.5,140.5,237,139.7z"/>
		</g>
		<g id="XMLID_3_">
			<path id="XMLID_31_" class="st4" d="M241.6,139.8c-0.7-0.7,0.8-1.9,0.1-2.8c-0.4-0.5-2.5,0.2-2.8-0.4c-0.4-0.6,1.1-2,1-2.6
				c-0.1-0.7-1.7-1.9-1.1-2.4c0.4-0.4,1.9,1.1,2.7,0.9c0.7-0.2-0.2-1.7,0-2.1c0.1-0.4,2-0.5,2-1c0-0.4-1.8-1.3-1.6-1.8
				c0.2-0.4,2.1,0.3,2.4-0.1c0.3-0.3-0.8-2.1-0.3-2.4c0.5-0.4,2.3,0.4,2.6-0.2c0.2-0.5-1.4-1.9-1.2-2.4c0.2-0.5,2.2-0.1,2.5-0.6
				c0.3-0.4-0.4-2.3,0.2-2.6c0.5-0.2,1.5,1.6,2.2,1.5c0.5-0.1,0.7-2.1,1.3-2.4c0.5-0.2,1.8,1.4,2.4,1.2c0.5-0.2,0.3-2.3,0.9-2.5
				c0.6-0.2,1.7,1.5,2.3,1.3c0.6-0.2,0.9-2.2,1.5-2.2c0.7,0,1.1,2.1,1.8,2.3c0.7,0.2,2.1-1.3,2.7-0.9c0.6,0.4-0.1,2.4,0.4,2.9
				c0.5,0.5,2.5-0.2,2.9,0.4c0.4,0.6-1.1,2.1-1,2.7c0.2,0.8,2.3,0.6,2.6,1.1c0.5,0.7-0.4,2.5,0.1,2.9c0.7,0.5,2.7-0.8,3.1-0.3
				c0.3,0.4-1.3,1.3-1.6,2.4c-0.1,0.5,1.5,1.8,1.1,2.6c-0.1,0.3-2.1-0.2-2.2,0c-0.1,0.3,1.6,1.4,1.4,1.7c-0.1,0.3-2.1-0.3-2.2,0
				c-0.1,0.3,1.5,1.5,1.4,1.7c-0.2,0.3-2.1-0.4-2.2-0.1c-0.2,0.4,1.5,1.3,1.5,1.7c0,0.4-1.9,1.1-1.8,1.4c0.1,0.4,2.2,0.3,2.3,0.6
				c0.1,0.4-1.8,0.8-1.9,1.2c-0.1,0.3,1.5,1.5,1.3,1.9c-0.2,0.3-1.9-0.9-2.4-0.7c-0.4,0.2-0.2,2.2-0.7,2.4c-0.5,0.1-1.5-1.6-2-1.5
				c-0.5,0.2-0.3,2.2-0.7,2.4c-0.5,0.2-2-1.2-2.3-1c-0.4,0.4,0.4,2.3-0.1,2.6c-0.5,0.3-1.8-1.2-2.3-1c-0.5,0.2-0.8,2.2-1.3,2.2
				c-0.5,0-0.5-2-1-2.3c-0.4-0.2-2.1,1-2.5,0.5c-0.6-0.7-0.1-2.6-0.5-2.7c-0.6-0.1-0.6,1.9-1,2.4c-0.4,0.5-2.2-0.2-2.7,0.2
				c-0.4,0.5-0.2,2.5-0.8,2.5c-0.5,0-0.5-2-1.2-2.5c-0.3-0.2-1.5,1.4-1.7,1.3c-0.3-0.1,0.2-2.1,0-2.1c-0.3-0.1-1.1,1.8-1.3,1.7
				c-0.3-0.1,0.7-1.7,0.5-2c-0.1-0.2-2,0.5-2.1,0.1c-0.1-0.4,1.8-1.1,1.8-1.4c0-0.4-1.9-1-1.8-1.3c0.1-0.4,2.1-0.6,2.1-1
				c0-0.3-2-0.3-2.2-0.7C241.8,140.2,241.9,140.2,241.6,139.8z"/>
		</g>
		<g id="XMLID_6_" class="st5">
			<path id="XMLID_30_" class="st6" d="M246.5,131.7c0-0.2,1.9-0.7,1.9-0.8c0-0.2-2-0.3-2-0.5c0-0.2,2-0.2,2-0.3
				c0-0.2-1.9-0.8-1.8-0.9c0-0.2,2,0.4,2.1,0.2c0.2-0.5-1.2-2-0.9-2.6c0.3-0.5,2.2,0.4,2.7-0.1c0.4-0.4-0.4-2.3,0.2-2.7
				c0.5-0.3,1.9,1.2,2.5,1c0.5-0.2,0.6-2.3,1.2-2.4c0.9-0.2,2.1,1.6,2.8,1.5c0.9-0.2,1.5-2.3,2.2-2.3c1-0.1,1.6,1.9,2.3,2.1
				c0.8,0.2,2.6-0.6,3,0.2c0.3,0.6-1.4,1.9-1.3,2.9c0.1,0.8,2.1,1.3,2.1,1.9c0,0.8-2,1.2-2.2,1.8c-0.2,0.8,0.8,2.4,0.2,2.7
				c-0.5,0.2-1.6-1.5-2.4-1.5c-0.6,0-1.4,2-2.1,1.9c-0.7-0.1-1.2-2.1-1.7-2c-0.7,0.1-0.7,2.1-1.2,2.3c-0.6,0.2-2-1.2-2.4-1
				c-0.5,0.3-0.2,2.4-0.8,2.6c-0.5,0.1-1-1.8-1.7-2c-0.3-0.1-1.3,1.7-1.6,1.6c-0.3-0.1,0.3-2.1,0-2.2c-0.3-0.2-1.8,1.1-2,0.9
				c-0.2-0.3,1.3-1.6,1.1-1.9C248.5,131.8,246.5,132.1,246.5,131.7z"/>
		</g>
		<path id="XMLID_7_" class="st7" d="M252.6,129.3c-0.1-0.4-0.1-0.8,0.1-1.2c0.4-0.8,1.2-2.2,3.2-2.5c2.9-0.5,4.4-1,4.6,1.6
			c0.2,2.5-0.2,3-2.5,2.7s-2.4,1.3-3.9,0.9C253.1,130.4,252.8,130,252.6,129.3z"/>
	</g>
	<g id="Calque_4_-_copie">
		<g id="XMLID_33_">
			<path id="XMLID_37_" class="st8" d="M71.2,32.9c-0.8-0.8,0.7-2-0.1-3c-0.5-0.6-2.6-0.1-2.9-0.8c-0.4-0.8,1.2-1.4,1.7-2
				c0.3-0.5-0.1-2.4,0.9-2.6c0.8-0.2,2.2,0.6,2.3,0.1c0-0.4-2-1.3-1.9-1.9c0.1-0.4,2-0.1,2.4-0.6c0.3-0.3-0.7-2.1-0.2-2.5
				c0.5-0.4,2.4,0.2,2.6-0.4c0.2-0.6-1.4-2.1-1.1-2.7c0.3-0.5,2,0.3,2.7,0c0.5-0.3,0.5-2.3,1.3-2.4c0.6-0.1,1.7,1.7,2.4,1.4
				c0.6-0.2,0.5-2.4,1.1-2.6c0.6-0.3,1.9,1.4,2.6,1.2c0.7-0.2,1.1-2.3,1.7-2.3c0.8,0,1.2,2.1,2,2.4c0.8,0.3,2.4-1.1,3-0.6
				c0.6,0.5-0.2,2.4,0.3,3.1c0.5,0.7,2.6,0.5,2.8,1.2c0.3,1.1-0.8,2.9-0.1,3.6c0.8,0.8,3-0.1,3.7,0.5c0.9,0.7,0.1,2.4,0.3,3.4
				c0.2,0.8,1.9,1.9,1.3,3.2c-0.2,0.3-2.1-0.2-2.2,0.1c-0.2,0.3,1.5,1.5,1.4,1.8c-0.2,0.3-2.1-0.3-2.2,0c-0.2,0.3,1.4,1.6,1.3,1.9
				c-0.3,0.5-2.2,0.5-2.2,0.9c0,0.5,2.1,0.5,2.3,0.9c0.1,0.4-1.7,1.1-1.7,1.5c0,0.4,1.6,1.5,1.3,1.9c-0.2,0.3-1.9-0.9-2.6-0.7
				c-0.5,0.2-0.4,2.2-1,2.4c-0.6,0.2-1.7-1.6-2.2-1.4c-0.6,0.2-0.2,2.2-0.5,2.4c-0.5,0.4-2.1-0.9-2.6-0.6c-0.6,0.3-0.5,2.4-1,2.5
				c-0.6,0.1-1-1.9-1.6-2.1c-0.5-0.2-2.1,1.1-2.6,0.5c-0.8-0.8-0.8-2.7-1.2-2.6c-0.6,0.1,0,2.3-0.5,3c-0.4,0.6-2-0.4-2.6-0.2
				c-0.5,0.1-1.4,1.8-2.3,1.3c-0.4-0.3,0.2-2.3-0.3-2.6c-0.5-0.3-2.1,1.1-2.5,0.7c-0.5-0.3,0.4-2.2,0-2.6c-0.4-0.4-2.4,0.2-2.6-0.3
				c-0.2-0.5,1.8-1.1,1.8-1.5c0-0.4-1.8-1-1.8-1.4c0-0.4,2-1,1.8-1.5C73.3,32.7,71.4,33.3,71.2,32.9z"/>
		</g>
		<g id="XMLID_29_" class="st1">
			<path id="XMLID_45_" class="st2" d="M71.2,32.9c-0.8-0.8,0.7-2-0.1-3c-0.5-0.6-2.6-0.1-2.9-0.8c-0.4-0.8,1.2-1.4,1.7-2
				c0.3-0.5-0.1-2.4,0.9-2.6c0.8-0.2,2.2,0.6,2.3,0.1c0-0.4-2-1.3-1.9-1.9c0.1-0.4,2-0.1,2.4-0.6c0.3-0.3-0.7-2.1-0.2-2.5
				c0.5-0.4,2.4,0.2,2.6-0.4c0.2-0.6-1.4-2.1-1.1-2.7c0.3-0.5,2,0.3,2.7,0c0.5-0.3,0.5-2.3,1.3-2.4c0.6-0.1,1.7,1.7,2.4,1.4
				c0.6-0.2,0.5-2.4,1.1-2.6c0.6-0.3,1.9,1.4,2.6,1.2c0.7-0.2,1.1-2.3,1.7-2.3c0.8,0,1.2,2.1,2,2.4c0.8,0.3,2.4-1.1,3-0.6
				c0.6,0.5-0.2,2.4,0.3,3.1c0.5,0.7,2.6,0.5,2.8,1.2c0.3,1.1-0.8,2.9-0.1,3.6c0.8,0.8,3-0.1,3.7,0.5c0.9,0.7,0.1,2.4,0.3,3.4
				c0.2,0.8,1.9,1.9,1.3,3.2c-0.2,0.3-2.1-0.2-2.2,0.1c-0.2,0.3,1.5,1.5,1.4,1.8c-0.2,0.3-2.1-0.3-2.2,0c-0.2,0.3,1.4,1.6,1.3,1.9
				c-0.3,0.5-2.2,0.5-2.2,0.9c0,0.5,2.1,0.5,2.3,0.9c0.1,0.4-1.7,1.1-1.7,1.5c0,0.4,1.6,1.5,1.3,1.9c-0.2,0.3-1.9-0.9-2.6-0.7
				c-0.5,0.2-0.4,2.2-1,2.4c-0.6,0.2-1.7-1.6-2.2-1.4c-0.6,0.2-0.2,2.2-0.5,2.4c-0.5,0.4-2.1-0.9-2.6-0.6c-0.6,0.3-0.5,2.4-1,2.5
				c-0.6,0.1-1-1.9-1.6-2.1c-0.5-0.2-2.1,1.1-2.6,0.5c-0.8-0.8-0.8-2.7-1.2-2.6c-0.6,0.1,0,2.3-0.5,3c-0.4,0.6-2-0.4-2.6-0.2
				c-0.5,0.1-1.4,1.8-2.3,1.3c-0.4-0.3,0.2-2.3-0.3-2.6c-0.5-0.3-2.1,1.1-2.5,0.7c-0.5-0.3,0.4-2.2,0-2.6c-0.4-0.4-2.4,0.2-2.6-0.3
				c-0.2-0.5,1.8-1.1,1.8-1.5c0-0.4-1.8-1-1.8-1.4c0-0.4,2-1,1.8-1.5C73.3,32.7,71.4,33.3,71.2,32.9z"/>
		</g>
		<g id="XMLID_19_">
			<path id="XMLID_46_" class="st3" d="M72.1,32.9c-1.4-1.4,1.5-3.8,0.8-5.3c-0.6-1.2-2.7-3.4-0.6-3.9c1.4-0.3,3.2,1.3,3.4,0.2
				c0.1-0.6-2.7-3.3-1.6-4.2c0.9-0.7,4,0.6,4.6-0.4c0.4-0.8-0.8-4.4,0.8-4.6c1-0.1,3.1,3.2,4.3,2.7c1.1-0.5,1.5-4.7,2.6-4.7
				c1.4,0,1.5,4.1,2.6,4.9c1.1,0.9,5.1-0.2,5.5,1.1c0.6,2.1-0.9,5.2,0.3,6.1c1.4,1,5.3,1.3,4.1,3.8c-0.3,0.6-4.1-0.6-4.4-0.1
				c-0.3,0.6,2.9,3,2.7,3.4c-0.5,0.9-3.8,1.2-3.6,1.9c0.2,0.7,3.9,1.9,3.2,2.7c-0.4,0.5-3.6-2.3-4.8-2c-1.1,0.3-0.3,4.1-0.8,4.5
				c-0.9,0.7-3.4-2.2-4.4-2c-1,0.2-3.1,3.2-3.9,2.3c-1.5-1.6-2.2-3.2-3-2.2c-0.7,0.9-0.9,4.7-2.6,3.6c-0.8-0.5,0.6-4.3-0.1-4.9
				c-0.9-0.6-4.7,1-4.9,0.2c-0.3-0.9,3.9-1.9,3.9-2.6C76.2,33.2,72.7,33.8,72.1,32.9z"/>
		</g>
		<g id="XMLID_14_">
			<path id="XMLID_39_" class="st4" d="M75.4,32.8c-0.7-0.8,0.7-2,0.1-2.9c-0.5-0.6-2.6-0.9-2.6-1.5c0-0.6,1.7,0,2.8-0.3
				c0.8-0.2-0.4-1.5-0.4-2c0-0.4,1.9-0.4,2.2-1c0.2-0.3-1-2-0.5-2.4c0.5-0.4,2.3,0.1,2.5-0.5c0.2-0.6-1.2-2.3-0.7-2.7
				c0.4-0.3,1.7,1.1,2.5,1.1c0.6-0.1,0.7-2.2,1.3-2.5c0.6-0.2,1.9,1.3,2.5,1.1c0.6-0.2,0.9-2.3,1.5-2.3c0.8,0,1.1,2.1,1.7,2.4
				c0.7,0.3,2.5-0.7,3-0.1c0.5,0.6-0.8,2.2-0.6,2.9c0.3,1,2.3,0.5,2.7,0.9c0.8,0.7-0.1,1.6,0,2.3c0.1,0.4,1.8,1.3,1.3,2.4
				c-0.1,0.3-2.1-0.2-2.2,0.1c-0.2,0.3,1.5,1.5,1.4,1.8c-0.2,0.3-2.1-0.3-2.2,0c-0.3,0.5,1.6,1.1,1.7,1.5c0.1,0.4-1.7,1.1-1.6,1.6
				c0,0.4,1.8,1.2,1.4,1.7c-0.2,0.3-1.9-1-2.5-0.8c-0.5,0.2-0.4,2.2-0.9,2.4c-0.6,0.2-2.1-1.3-2.4-1c-0.5,0.4,0.2,2.4-0.3,2.6
				c-0.6,0.3-1.3-1.5-1.9-1.6c-0.5-0.1-1.9,1.3-2.4,0.7c-0.8-0.9-1.2-2.2-1.6-1.9c-0.4,0.4,0.5,2.7,0,3.1c-0.4,0.3-1.1-1.2-1.9-1.7
				c-0.3-0.2-1.5,1.4-1.7,1.4c-0.4-0.1,0.2-2,0-2.1c-0.2-0.1-1.7,0.9-1.9,0.5c-0.2-0.5,1.8-1,1.9-1.4c0.1-0.4-1.8-0.8-1.9-1.2
				C75.5,33.1,75.6,33.2,75.4,32.8z"/>
		</g>
		<g id="XMLID_9_" class="st5">
			<path id="XMLID_44_" class="st6" d="M78.4,27.4c0-0.1,1.9-0.5,1.9-0.6c0-0.1-2-0.2-2-0.3c0-0.1,2,0,2-0.2c0-0.1-1.9-0.7-1.9-0.8
				c0-0.1,1.9,0.5,2,0.4c0.1-0.3-1.4-1.6-1.2-2c0.2-0.3,2,0.7,2.3,0.4c0.3-0.3-0.7-2.1-0.3-2.3c0.3-0.2,1.5,1.4,1.9,1.3
				c0.3-0.1,0.2-2.2,0.6-2.2c0.6-0.1,1.5,1.8,1.9,1.7c0.6-0.1,0.9-2.2,1.3-2.2c0.6-0.1,0.9,1.9,1.4,2c0.5,0.2,2.1-0.9,2.4-0.4
				c0.2,0.4-1.6,1.4-1.5,2.1c0,0.5,2.1,0.8,2.1,1.2c0,0.5-2,0.7-2.1,1c-0.1,0.5,1,2,0.6,2.2c-0.3,0.2-1.2-1.7-1.7-1.7
				c-0.4,0-0.9,2-1.4,1.9c-0.4,0-0.8-2-1.1-2c-0.4,0-0.3,2.1-0.6,2.2c-0.4,0.2-1.6-1.4-1.9-1.3c-0.3,0.2,0.1,2.2-0.2,2.3
				c-0.3,0.1-0.6-1.8-1.1-2c-0.2-0.1-1.1,1.8-1.3,1.7c-0.2-0.1,0.5-2,0.3-2.1c-0.2-0.1-1.6,1.3-1.8,1.1c-0.1-0.2,1.4-1.4,1.3-1.6
				C80.4,27.2,78.4,27.6,78.4,27.4z"/>
		</g>
		<path id="XMLID_8_" class="st7" d="M82.7,25.7c-0.1-0.3,0-0.5,0.1-0.8c0.2-0.5,0.8-1.4,2.1-1.6c1.8-0.3,2.8-0.6,3,1
			c0.2,1.6-0.1,1.9-1.6,1.8s-1.6,0.8-2.5,0.6C83,26.5,82.8,26.2,82.7,25.7z"/>
	</g>
</g>
</svg>
