<?xml version="1.0" encoding="utf-8"?>
<!-- Generator: Adobe Illustrator 19.0.0, SVG Export Plug-In . SVG Version: 6.00 Build 0)  -->
<svg version="1.0" id="Calque_8" xmlns="http://www.w3.org/2000/svg" xmlns:xlink="http://www.w3.org/1999/xlink" x="0px" y="0px" width="300px" height="260px"
	 viewBox="0 0 300 260" style="enable-background:new 0 0 300 260;" xml:space="preserve">
<style type="text/css">
	.st0{fill:none;stroke:#1C5632;stroke-width:2;stroke-miterlimit:10;}
	.st1{fill:#3A9E47;}
	.st2{opacity:0.4;fill:#1B5632;}
	.st3{fill:none;stroke:#1C5632;stroke-miterlimit:10;}
	.st4{fill:#5EB446;}
	.st5{opacity:0.2;fill:#1B5632;}
	.st6{fill:#1C5632;}
	.st7{opacity:0.4;fill:#1A5632;}
	.st8{fill:none;stroke:#1B5632;stroke-width:2;stroke-miterlimit:10;}
</style>
<g id="Calque_6">
	<g id="layout_-_copie">
		<path id="XMLID_6_" class="st0" d="M209.3,205.3c0,0,0.3-0.8,0.6-0.6s0.5,0.7,0.5,0.7s0.4-0.4,0.5-0.2c0.1,0.2,0.2,0.5,0.2,0.5
			s0.5-0.3,0.5,0.1c0,0.3,0.1,0.7,0.1,0.7s0.3,0.2,0.3,0.5c0,0.3,0.6,0.7,0.6,1s0,0.8,0,0.8s0.4-0.4,0.5-0.2c0.2-0.1,0.7-0.5,1,0.1
			s1.2-0.1,1.2-0.1s0.4-0.6,1-0.7c0.6-0.1,0.8,0.3,0.8,0.3s0.7-0.4,1-0.3c0.4,0.1,0.3,0.6,0.3,0.6s0.3-0.2,0.5,0s0.1,0.6,0.1,0.6
			s0.7-0.3,0.9,0.3s-0.1,0.7-0.1,0.7s0.2,0,0.5,0.5c0.3,0.5,0,0.7,0,0.7s0.4,0.1,0.4,0.4s-0.3,0.6-0.3,0.6s0.1-0.3,0.2,0.3
			c0.1,0.5-0.3,0.6-0.3,0.6s0.4,0.4,0.6,0.4c0.3,0,0.6,0,0.7,0.3c0.1,0.3,0,0.6,0,0.6s0.3,0.3,0.2,0.5s-0.3,0.5-0.3,0.5
			s0.3-0.3,0.6,0c0.3,0.2,0,0.8,0,0.8s0.5-0.4,0.6-0.2c0.1,0.2,0.2,0.5,0.2,0.5s0.3,0.4,0.2,0.5c-0.1,0.1,0.5-0.2,0.5,0.1
			c0.1,0.3-0.2,0.8-0.2,0.8s0.6-0.2,0.5,0.2s-0.3,0.5-0.3,0.5s0.2,0.2,0.1,0.5s-0.4,0.3-0.4,0.3s0.4,0.3,0.2,0.6
			c-0.2,0.3-0.5,0.3-0.5,0.3s0.1,0.2-0.1,0.4c-0.1,0.2-0.2,0.2-0.2,0.2s0.3,0,0.3,0.3s-0.2,0.4-0.2,0.4s0.1,0.4,0,0.5
			c-0.1,0.1-0.5,0.2-0.5,0.2s0,0.4-0.3,0.4c-0.3,0-0.6-0.1-0.6-0.1s-0.3,0.4-0.7,0.3c-0.3,0,0.8,0.7,0.8,0.7s0.4,0.1,0.4,0.3
			c0,0.2-0.6,0.2-0.6,0.2s0.1,0.2-0.1,0.2c-0.2,0,0.5,0,0.4,0.3c-0.1,0.3-0.2,0.6-0.4,0.6c-0.2-0.1-0.3,0.4-0.3,0.4s0.6,0.1,0.3,0.5
			s-0.5,0.2-0.5,0.2s-0.1,0.6-0.3,0.7s-0.4-0.1-0.4-0.1s-0.2,0.4-0.4,0.5c-0.1,0.4-0.2,0.7-0.4,0.7c-0.2,0-0.7,0-0.7,0l-0.7,0.2
			c0,0,0,0.9-0.2,1.1c-0.2,0.2-0.2,0.9-0.4,0.9s-0.5,0.1-0.5,0.1s0.1,0.2-0.2,0.3c-0.2,0.1-0.5-0.1-0.5-0.1s0,0.2-0.2,0.3
			c-0.2,0.1-0.7-0.1-0.7-0.1s-0.4,0.3-0.5,0.3c-0.1,0-0.4-0.3-0.4-0.3l-0.6,0.1c0,0,0,0.4-0.3,0.4c-0.2,0-0.5-0.1-0.5-0.1
			s-0.2,0.3-0.4,0.3c-0.2,0-0.2,0.3-0.4,0.3c-0.2,0-0.6-0.1-0.7-0.3c-0.1-0.2-0.5-0.1-0.5-0.1s-0.1,0.6-0.3,0.6
			c-0.2,0-0.2,0.5-0.4,0.6s-1,0.3-1,0.2s-0.5,0.3-0.5,0.4s-0.5,0.9-0.9,0.7s-0.8,0-0.8,0s-0.4-0.2-0.3-0.4c0.1-0.2-0.7,0.1-0.7,0.1
			s0.2,0.6,0,0.6s-0.7-0.1-0.7-0.1s-0.2,0.6-0.4,0.5c-0.2-0.1-0.3-0.5-0.4-0.5c-0.1,0-0.3-0.1-0.3-0.1s-0.3,0.5-0.5,0.4
			c-0.2-0.2-1.1-0.2-1.1-0.2s-0.4-0.2-0.5-0.5s-0.5,0-0.5-0.3c-0.1-0.3-0.2-0.8-0.4-0.7s-0.5,0.6-0.6,0.2c-0.1-0.3-0.6-0.7-0.6-0.7
			s-0.5,0-0.5-0.5c0-0.5,0.3-1,0.3-1s-0.3-0.6-0.6-0.5c-0.3,0.1-0.6-0.2-0.8-0.7c-0.3-0.5-0.5-0.2-0.5-0.2s-0.6,0.4-0.7,0.2
			c-0.1-0.2-0.4-0.4-0.2-0.6c0.1-0.1,0.1-0.4-0.1-0.4c-0.2,0.1-0.4,0-0.4-0.1c-0.1-0.1-0.5,0.2-0.5-0.2c0-0.4,0.1-0.6,0.1-0.6
			s-0.2,0.3-0.2-0.1s-0.3-0.3-0.4-0.7c-0.1-0.4,0.4-0.4,0.4-0.6c-0.1-0.3,0.3-0.4,0.2-0.5s-0.5-0.1-0.5-0.4c0-0.3,0.3-0.6,0.3-0.6
			s-0.3-0.5-0.1-0.6s0.5-0.2,0.5-0.3c0,0-0.1-0.7-0.1-0.7s0.2-0.3,0.5-0.3s0.5-0.3,0.4-0.4c-0.1-0.2-0.3-0.3-0.2-0.4
			c0.1-0.2,0.4-0.2,0.4-0.2s0.1-0.5,0-0.5s-0.5,0.3-0.8,0c-0.3-0.3,0.2-1.1,0.2-1.1s-0.4-0.3-0.3-0.5c0.1-0.1-0.5,0.8-0.7,0.5
			s-0.6,0.5-0.7,0s-0.4-0.4-0.4-0.4s-0.3-0.3-0.2-0.5c0.2-0.2-0.4,0-0.6-0.2c-0.2-0.2-0.3-1,0-1.2c-0.1-0.3-0.3-0.8,0-0.9
			c0.3-0.2,0.8-0.2,0.8-0.2s-0.3-0.5-0.1-0.5c0.2,0-0.3,0.2-0.5-0.1c-0.1-0.3,0-0.5,0-0.5s-0.2,0.1-0.3-0.2s0.1-0.5,0.1-0.5
			s-0.4,0-0.4-0.2s0.3-0.5,0.3-0.5s-0.2-1,0-1.2c0.2-0.1,0.4-0.2,0.4-0.2s-0.5-0.9-0.1-1.1c0.4-0.2,0.6-0.2,0.6-0.2
			s-0.1-0.6,0.1-0.6c0.3-0.1,0.6,0.1,0.6,0.1s0-0.2,0.2-0.2c0.2-0.1,0.6,0.2,0.6,0.2s0.3-0.1,0.2-0.3c-0.1-0.2,0.2-0.8,0.3-0.8
			c0,0,0.5-0.2,0.3-0.7c-0.3-0.4,0.4-0.6,0.4-0.6s0.2-0.5,0.4-0.5c0.2,0,0.4,0.1,0.4,0.1s0-0.5,0.2-0.5c0.2,0.1,0.6,0.4,0.6,0.4
			s0.3-0.7,0.5-0.7c0.2,0,0-0.3,0.1-0.4c0.1-0.1,0.4-0.2,0.4-0.2s0.1-0.4,0.3-0.3c0.2,0.1,0.5,0.3,0.5,0.3s-0.1-0.8,0.1-0.9
			c0.2-0.1,0.6,0.1,0.6,0.1s0.2,0.1,0.4-0.1c0.2-0.2,0.6-0.4,0.6-0.4s0.1-0.4,0.5-0.5c0.3,0,0.6,0.5,0.6,0.5s0.3,0.1,0.4-0.1
			c0.2-0.1,0.4-0.5,0.6-0.5c0.2,0,0.4,0,0.4,0s0.3-0.5,0.6-0.5c0.3,0,0.5,0.7,0.5,0.7s0.3,0.6,0.5,0.3c0.2-0.3,0.5-0.4,0.7-0.2
			c0.2,0.2,0.4-0.4,0.4-0.4s0.4,0,0.5-0.2s0.4,0,0.4,0s0.1-0.2,0.2-0.2C208.7,205,209.3,205.3,209.3,205.3z"/>
		<path id="XMLID_5_" class="st1" d="M209.3,205.5c0,0,0.3-0.8,0.6-0.6c0.3,0.2,0.5,0.7,0.5,0.7s0.4-0.4,0.5-0.2
			c0.1,0.2,0.2,0.5,0.2,0.5s0.5-0.3,0.5,0.1c0,0.3,0.1,0.7,0.1,0.7s0.3,0.2,0.3,0.5c0,0.3,0.6,0.7,0.6,1c0,0.3,0,0.8,0,0.8
			s0.4-0.4,0.5-0.2c0.2-0.1,0.7-0.5,1,0.1s1.2-0.1,1.2-0.1s0.4-0.6,1-0.7c0.6-0.1,0.8,0.3,0.8,0.3s0.7-0.4,1-0.3
			c0.3,0.1,0.3,0.6,0.3,0.6s0.3-0.2,0.4,0c0.2,0.2,0.1,0.6,0.1,0.6s0.7-0.3,0.8,0.3c0.2,0.6-0.1,0.7-0.1,0.7s0.2,0,0.5,0.5
			c0.3,0.5,0,0.7,0,0.7s0.4,0.1,0.4,0.4s-0.3,0.6-0.3,0.6s0.1-0.3,0.2,0.3c0.1,0.5-0.3,0.6-0.3,0.6s0.4,0.4,0.6,0.4
			c0.3,0,0.6,0,0.7,0.3c0.1,0.3,0,0.6,0,0.6s0.2,0.3,0.2,0.5c-0.1,0.2-0.3,0.5-0.3,0.5s0.3-0.3,0.6,0s0,0.8,0,0.8s0.5-0.4,0.6-0.2
			s0.2,0.5,0.2,0.5s0.3,0.4,0.2,0.5c-0.1,0.1,0.5-0.2,0.5,0.1s-0.2,0.8-0.2,0.8s0.6-0.2,0.5,0.2s-0.3,0.5-0.3,0.5s0.2,0.2,0.1,0.5
			s-0.3,0.3-0.3,0.3s0.4,0.3,0.2,0.6s-0.5,0.3-0.5,0.3s0.1,0.2-0.1,0.4c-0.1,0.2-0.2,0.2-0.2,0.2s0.3,0,0.3,0.3
			c0,0.3-0.2,0.4-0.2,0.4s0.1,0.4,0,0.5s-0.5,0.2-0.5,0.2s0,0.4-0.3,0.4c-0.3,0-0.5-0.1-0.5-0.1s-0.3,0.4-0.6,0.3
			c-0.3,0,0.7,0.6,0.7,0.6s0.4,0.1,0.4,0.3c0,0.2-0.6,0.2-0.6,0.2s0.1,0.2-0.1,0.2s0.5,0,0.4,0.3s-0.2,0.6-0.4,0.6
			c-0.2-0.1-0.3,0.4-0.3,0.4s0.6,0.1,0.3,0.5s-0.5,0.2-0.5,0.2s-0.1,0.6-0.3,0.7c-0.2,0.1-0.4-0.1-0.4-0.1s-0.2,0.4-0.4,0.5
			c-0.1,0.4-0.2,0.7-0.4,0.7s-0.7,0-0.7,0l-0.7,0.2c0,0,0,0.9-0.2,1.1c-0.2,0.2-0.2,0.9-0.4,0.9c-0.2,0-0.5,0.1-0.5,0.1
			s0.1,0.2-0.1,0.3c-0.2,0.1-0.4-0.1-0.4-0.1s0,0.2-0.2,0.3c-0.2,0.1-0.7-0.1-0.7-0.1s-0.3,0.3-0.5,0.3c-0.1,0-0.4-0.3-0.4-0.3
			l-0.6,0.1c0,0,0,0.4-0.3,0.4c-0.2,0-0.5-0.1-0.5-0.1s-0.2,0.3-0.4,0.3c-0.2,0-0.2,0.3-0.4,0.3c-0.2,0-0.6-0.1-0.7-0.3
			c-0.1-0.2-0.5-0.1-0.5-0.1s-0.1,0.6-0.3,0.6c-0.2,0-0.2,0.5-0.4,0.6c-0.2,0.1-1,0.3-1,0.1s-0.5,0.3-0.5,0.4c0,0-0.5,0.9-0.9,0.7
			c-0.4-0.2-0.8,0-0.8,0s-0.4-0.2-0.3-0.4s-0.7,0.1-0.7,0.1s0.2,0.5,0,0.6c-0.2,0.1-0.7-0.1-0.7-0.1s-0.2,0.6-0.4,0.5
			s-0.3-0.5-0.4-0.5s-0.3-0.1-0.3-0.1s-0.3,0.5-0.5,0.4c-0.2-0.2-1-0.2-1-0.2s-0.4-0.2-0.5-0.5s-0.4,0-0.5-0.3
			c-0.1-0.3-0.2-0.8-0.4-0.7s-0.5,0.5-0.6,0.2c-0.1-0.3-0.6-0.7-0.6-0.7s-0.5,0-0.5-0.5c0-0.5,0.3-1,0.3-1s-0.3-0.6-0.6-0.5
			c-0.3,0.1-0.6-0.2-0.8-0.7s-0.5-0.2-0.5-0.2s-0.6,0.4-0.7,0.2s-0.4-0.4-0.2-0.6c0.1-0.1,0.1-0.4-0.1-0.4c-0.2,0.1-0.4,0-0.4-0.1
			c0-0.1-0.5,0.2-0.5-0.2c0-0.4,0.1-0.6,0.1-0.6s-0.2,0.3-0.2-0.1c0-0.4-0.3-0.3-0.4-0.7c-0.1-0.4,0.4-0.4,0.4-0.6s0.3-0.4,0.2-0.5
			c-0.1-0.1-0.5-0.1-0.5-0.3c0-0.3,0.3-0.6,0.3-0.6s-0.3-0.4-0.1-0.6c0.2-0.1,0.5-0.2,0.5-0.3s-0.1-0.7-0.1-0.7s0.2-0.3,0.5-0.3
			c0.2,0,0.5-0.3,0.4-0.4c-0.1-0.2-0.3-0.3-0.2-0.4c0.1-0.2,0.4-0.2,0.4-0.2s0.1-0.5,0-0.5s-0.5,0.3-0.8,0s0.2-1,0.2-1
			s-0.4-0.3-0.3-0.5s-0.5,0.8-0.7,0.5c-0.2-0.3-0.6,0.5-0.7,0c-0.1-0.5-0.4-0.4-0.4-0.4s-0.3-0.3-0.2-0.5c0.2-0.2-0.4,0-0.6-0.2
			c-0.2-0.2-0.3-1,0-1.1c-0.1-0.3-0.3-0.8,0-0.9c0.3-0.2,0.8-0.2,0.8-0.2s-0.3-0.5-0.1-0.5c0.2,0-0.3,0.2-0.5-0.1s0-0.5,0-0.5
			s-0.2,0.1-0.3-0.2c-0.1-0.3,0.1-0.4,0.1-0.4s-0.4,0-0.4-0.2c-0.1-0.2,0.3-0.5,0.3-0.5s-0.2-1,0-1.2s0.4-0.2,0.4-0.2
			s-0.5-0.9-0.1-1c0.4-0.2,0.6-0.2,0.6-0.2s-0.1-0.6,0.1-0.6s0.6,0.1,0.6,0.1s0-0.2,0.2-0.2c0.2-0.1,0.5,0.2,0.5,0.2s0.3,0,0.2-0.3
			c-0.1-0.2,0.2-0.8,0.3-0.8s0.5-0.2,0.3-0.6c-0.3-0.4,0.4-0.6,0.4-0.6s0.2-0.5,0.4-0.5c0.2,0,0.4,0.1,0.4,0.1s0-0.5,0.2-0.5
			c0.2,0.1,0.6,0.4,0.6,0.4s0.3-0.7,0.5-0.7c0.2,0,0-0.3,0.1-0.4c0.1-0.1,0.4-0.2,0.4-0.2s0.1-0.4,0.3-0.3c0.2,0.1,0.5,0.3,0.5,0.3
			s-0.1-0.8,0.1-0.9c0.2-0.1,0.6,0.1,0.6,0.1s0.2,0.1,0.4-0.1c0.2-0.2,0.6-0.4,0.6-0.4s0.1-0.4,0.4-0.5c0.3,0,0.6,0.5,0.6,0.5
			s0.3,0.1,0.4-0.1c0.2-0.1,0.4-0.5,0.6-0.5c0.2,0,0.4,0,0.4,0s0.3-0.5,0.6-0.5c0.3,0,0.5,0.7,0.5,0.7s0.3,0.6,0.5,0.3
			c0.2-0.3,0.4-0.4,0.7-0.2c0.2,0.2,0.4-0.4,0.4-0.4s0.4,0,0.5-0.2c0.1-0.2,0.4,0,0.4,0s0.1-0.2,0.2-0.2
			C208.7,205.1,209.3,205.5,209.3,205.5z"/>
		<path id="XMLID_1_" class="st2" d="M201,215.7c0-0.3,0.2-0.6,0.5-0.8c0.3-0.2,0.6-0.3,0.8-0.5c0.4-0.3,0.6-0.9,1-1.1
			c0.3-0.1,0.6-0.1,0.8-0.2c0.4-0.2,0.5-0.7,0.7-0.9c0.3-0.4,1-0.4,1.3,0c0.1,0.1,0.2,0.3,0.4,0.4c0.5,0.5,1.3,0.5,1.8,0.1
			c0.3-0.2,0.5-0.4,0.9-0.4c0.6,0.1,0.6,1.1,1.1,1.3c0.3,0.1,0.6,0,0.9-0.1c0.3-0.2,0.5-0.4,0.8-0.6c0.7-0.4,1.7-0.2,2.2,0.5
			c0.3,0.5,0.4,1.1,0.9,1.5c0.5,0.4,1.2,0.3,1.6,0.8c0.3,0.4,0.2,0.9,0.3,1.4c0.1,0.4,0.4,0.7,0.6,1.1c0.2,0.4,0.2,0.9-0.1,1.2
			c-0.2,0.2-0.5,0.2-0.7,0.3c-0.8,0.2-1.5,0.8-1.7,1.6c-0.2,0.4-0.2,0.9-0.4,1.3c-0.2,0.4-0.5,0.8-1,0.8c-0.5,0-1-0.5-1.5-0.4
			c-0.2,0-0.3,0.1-0.5,0.3c-0.3,0.4-0.5,0.9-0.6,1.4c-0.1,0.5-0.3,1-0.6,1.4c-0.4,0.3-1.1,0.4-1.3-0.1c-0.1-0.2-0.1-0.4-0.2-0.6
			c-0.3-0.7-1.2-0.9-1.9-0.5c-0.7,0.3-1.1,1-1.5,1.6c-0.3,0.5-0.7,1-1.3,1c-0.9-0.1-1.3-1.5-2.2-1.5c-0.3,0-0.6,0.1-0.8-0.1
			c-0.1-0.1-0.1-0.2-0.1-0.3c-0.1-0.5,0.1-0.9,0.2-1.4s-0.1-1-0.5-1.2c-0.2-0.1-0.5,0-0.7-0.2c-0.2-0.1-0.2-0.3-0.2-0.5
			c0-0.4,0.2-0.9,0.4-1.2s0.4-0.8,0.4-1.2s-0.4-0.9-0.9-0.8c-0.1,0-0.3,0.1-0.4,0.2c-0.5,0.2-1.1-0.4-1-1c0-0.6,0.5-1,0.9-1.4
			s1-0.6,1.3-1.1"/>
	</g>
	<g id="layout_-_copie_2">
		<path id="XMLID_19_" class="st3" d="M201.8,210.6c0,0-0.2-0.3-0.1-0.4c0.1-0.1,0.4,0,0.4,0s0-0.2,0.1-0.2c0.1,0,0.2,0.1,0.2,0.1
			s0-0.2,0.1-0.2c0.1,0.1,0.3,0.2,0.3,0.2s0.1,0,0.2,0s0.4,0,0.5,0c0.1,0.1,0.3,0.2,0.3,0.2s0-0.2,0.1-0.2c0-0.1,0-0.4,0.3-0.3
			s0.2-0.5,0.2-0.5s-0.1-0.3,0-0.5c0.1-0.2,0.3-0.2,0.3-0.2s0-0.3,0.1-0.4c0.1-0.1,0.3,0,0.3,0s0-0.1,0.1-0.2c0.1,0,0.2,0.1,0.2,0.1
			s0.1-0.3,0.3-0.2c0.2,0.1,0.2,0.2,0.2,0.2s0.1-0.1,0.3-0.1c0.2,0,0.3,0.2,0.3,0.2s0.1-0.1,0.2,0c0.1,0.1,0.1,0.3,0.1,0.3
			s-0.1-0.1,0.1,0s0.2,0.2,0.2,0.2s0.2,0,0.3-0.1c0.1-0.1,0.2-0.2,0.3-0.2c0.1,0,0.2,0.2,0.2,0.2s0.2,0,0.2,0.1
			c0.1,0.1,0.1,0.2,0.1,0.2s0-0.2,0.1-0.2c0.1,0,0.3,0.2,0.3,0.2s0-0.3,0.1-0.3s0.2,0.1,0.2,0.1s0.2,0,0.2,0.1s0-0.2,0.2-0.2
			s0.2,0.3,0.2,0.3s0.1-0.2,0.2-0.1s0.1,0.2,0.1,0.2s0.1,0,0.2,0.1s0,0.2,0,0.2s0.2-0.1,0.3,0.1c0,0.1,0,0.3,0,0.3s0.1,0,0.1,0.1
			c0.1,0.1,0,0.1,0,0.1s0.1-0.1,0.2,0s0.1,0.1,0.1,0.1s0.2,0.1,0.2,0.1c0,0.1,0,0.2,0,0.2s0.1,0.1,0.1,0.2s-0.2,0.2-0.2,0.2
			s0,0.2,0,0.3c-0.1,0.1,0.4-0.1,0.4-0.1s0.1-0.1,0.2-0.1c0.1,0.1-0.1,0.2-0.1,0.2s0.1,0,0.1,0.1c0,0.1,0.1-0.2,0.2-0.1
			s0.2,0.2,0.1,0.3c-0.1,0.1,0.1,0.2,0.1,0.2s0.2-0.2,0.3,0c0.1,0.2,0,0.2,0,0.2s0.2,0.2,0.2,0.3c0,0.1-0.1,0.1-0.1,0.1
			s0.1,0.2,0.1,0.3c0.1,0.1,0.2,0.2,0.1,0.3S212,213,212,213l-0.1,0.3c0,0,0.3,0.2,0.3,0.4c0,0.1,0.3,0.3,0.2,0.4
			c-0.1,0.1-0.1,0.2-0.1,0.2s0.1,0,0.1,0.1c0,0.1-0.1,0.1-0.1,0.1s0.1,0,0.1,0.1c0,0.1-0.2,0.2-0.2,0.2s0,0.2,0,0.2
			c0,0.1-0.2,0.1-0.2,0.1l-0.1,0.2c0,0,0.1,0.1,0.1,0.2c-0.1,0.1-0.2,0.2-0.2,0.2s0.1,0.1,0,0.2c0,0.1,0.1,0.2,0,0.2
			c0,0.1-0.2,0.2-0.3,0.2c-0.1,0-0.1,0.1-0.1,0.1s0.2,0.2,0.1,0.2c0,0.1,0.1,0.2,0.1,0.3c0,0.1-0.1,0.4-0.2,0.4
			c-0.1-0.1,0,0.2,0,0.3c0,0,0.2,0.4,0,0.5c-0.2,0.1-0.2,0.3-0.2,0.3s-0.2,0.1-0.2,0s-0.2,0.3-0.2,0.3s0.2,0.1,0.2,0.2
			c0,0.1-0.2,0.2-0.2,0.2s0.2,0.2,0.1,0.3s-0.2,0-0.3,0c0,0-0.1,0.1-0.1,0.1s0.1,0.2,0,0.3c-0.1,0-0.3,0.3-0.3,0.3s-0.2,0.1-0.3,0.1
			c-0.1,0-0.1,0.2-0.2,0.1c-0.1-0.1-0.3-0.1-0.3,0c0,0.1,0.1,0.3-0.1,0.3s-0.4,0-0.4,0s-0.1,0.2-0.3,0.1c-0.2-0.1-0.3-0.3-0.3-0.3
			s-0.3,0-0.3,0.1s-0.2,0.2-0.5,0.1c-0.2,0-0.2,0.1-0.2,0.1s0,0.3-0.1,0.3c-0.1,0-0.2,0-0.3-0.1c0-0.1-0.1-0.1-0.2,0
			c0,0.1-0.1,0.1-0.1,0.1s0,0.2-0.2,0.1c-0.1-0.1-0.2-0.2-0.2-0.2s0.1,0.1-0.1,0.1c-0.1-0.1-0.2,0-0.3,0s0-0.2-0.1-0.3
			c-0.1,0-0.1-0.2-0.1-0.2s-0.1,0.2-0.2,0.1s-0.1-0.2-0.1-0.2s-0.2,0-0.2-0.1c0-0.1,0-0.2,0-0.3s-0.3-0.2-0.3-0.2s0-0.2,0-0.2
			c0.1-0.1,0-0.2,0-0.3c-0.1,0-0.2,0-0.2,0c0-0.1,0-0.2,0-0.2s-0.1-0.2-0.2-0.1c-0.1,0,0,0.2-0.2,0.3c-0.2,0-0.3-0.3-0.3-0.3
			s-0.2,0.1-0.2,0c0-0.1,0.1,0.4,0,0.4c-0.2,0,0,0.3-0.2,0.2c-0.2-0.1-0.2,0.1-0.2,0.1s-0.2,0.1-0.2-0.1c0-0.1-0.1,0.1-0.2,0.1
			s-0.4-0.1-0.4-0.3c-0.1,0-0.3-0.1-0.3-0.2c0-0.1,0.1-0.3,0.1-0.3s-0.3,0-0.2-0.1s0,0.2-0.1,0.1s-0.2-0.1-0.2-0.1s0,0.1-0.1,0.1
			c-0.1,0-0.1-0.2-0.1-0.2s-0.1,0.1-0.2,0.1c-0.1,0-0.1-0.2-0.1-0.2s-0.4-0.2-0.4-0.3c0-0.1,0-0.2,0-0.2s-0.4,0-0.4-0.2
			c0-0.2,0.1-0.3,0.1-0.3s-0.2-0.1-0.2-0.2c0-0.1,0.2-0.2,0.2-0.2s-0.1,0,0-0.1c0-0.1,0.2-0.1,0.2-0.1s0.1-0.1,0-0.2
			c-0.1,0-0.2-0.3-0.2-0.3c0,0,0-0.2-0.2-0.2c-0.2,0-0.1-0.3-0.1-0.3s-0.1-0.2-0.1-0.3c0-0.1,0.1-0.1,0.1-0.1s-0.2-0.1-0.1-0.2
			c0.1-0.1,0.3-0.1,0.3-0.1s-0.2-0.3-0.1-0.3c0-0.1-0.1-0.1-0.1-0.1c0,0,0-0.2,0-0.2s-0.1-0.1,0-0.2c0.1,0,0.2-0.1,0.2-0.1
			s-0.3-0.2-0.3-0.3c0-0.1,0.2-0.2,0.2-0.2s0.1-0.1,0.1-0.2c0-0.1,0-0.3,0-0.3s-0.1-0.1-0.1-0.3c0.1-0.1,0.3-0.1,0.3-0.1
			s0.1-0.1,0.1-0.2s-0.1-0.2,0-0.3c0.1-0.1,0.1-0.1,0.1-0.1s-0.1-0.2,0-0.3c0.1-0.1,0.4,0,0.4,0s0.3,0,0.2-0.1
			c-0.1-0.1,0-0.2,0.1-0.3c0.1,0,0-0.2,0-0.2s0.1-0.1,0-0.2c-0.1-0.1,0.1-0.2,0.1-0.2s-0.1-0.1,0-0.1
			C201.6,210.7,201.8,210.6,201.8,210.6z"/>
		<path id="XMLID_18_" class="st4" d="M201.9,210.7c0,0-0.2-0.3-0.1-0.4c0.1-0.1,0.4,0,0.4,0s0-0.2,0.1-0.2s0.2,0.1,0.2,0.1
			s0-0.2,0.1-0.2s0.3,0.1,0.3,0.1s0.1,0,0.2,0c0.1,0,0.4,0,0.5,0c0.1,0.1,0.3,0.2,0.3,0.2s0-0.2,0.1-0.2c0-0.1,0-0.3,0.3-0.3
			s0.2-0.5,0.2-0.5s-0.1-0.3,0-0.5c0.1-0.2,0.3-0.2,0.3-0.2s0-0.3,0.1-0.4c0.1-0.1,0.3,0,0.3,0s0-0.1,0.1-0.2c0.1,0,0.2,0.1,0.2,0.1
			s0.1-0.3,0.3-0.2c0.2,0.1,0.2,0.2,0.2,0.2s0.1-0.1,0.3-0.1c0.2,0,0.3,0.2,0.3,0.2s0.1-0.1,0.2,0c0.1,0.1,0.1,0.3,0.1,0.3
			s-0.1-0.1,0.1,0s0.2,0.2,0.2,0.2s0.2,0,0.3-0.1c0.1-0.1,0.2-0.2,0.3-0.2c0.1,0,0.2,0.2,0.2,0.2s0.2,0,0.2,0.1
			c0.1,0.1,0.1,0.2,0.1,0.2s0-0.2,0.1-0.2s0.3,0.2,0.3,0.2s0-0.3,0.1-0.3s0.2,0.1,0.2,0.1s0.2,0,0.2,0.1s0-0.2,0.2-0.2
			s0.2,0.3,0.2,0.3s0.1-0.2,0.2-0.1c0.1,0.1,0.1,0.2,0.1,0.2s0.1,0,0.2,0.1c0.1,0.1,0,0.2,0,0.2s0.2-0.1,0.3,0.1c0,0.1,0,0.2,0,0.2
			s0.1,0,0.1,0.1c0.1,0.1,0,0.1,0,0.1s0.1-0.1,0.2,0s0.1,0.1,0.1,0.1s0.2,0.1,0.2,0.1c0,0.1,0,0.2,0,0.2s0.1,0.1,0.1,0.2
			c-0.1,0.1-0.2,0.2-0.2,0.2s0,0.2,0,0.3c-0.1,0.1,0.4-0.1,0.4-0.1s0.1-0.1,0.2-0.1s-0.1,0.2-0.1,0.2s0.1,0,0.1,0.1
			c0,0.1,0.1-0.2,0.2-0.1c0.1,0.1,0.2,0.2,0.1,0.3s0.1,0.2,0.1,0.2s0.2-0.2,0.2,0s0,0.2,0,0.2s0.2,0.2,0.2,0.3
			c0,0.1-0.1,0.1-0.1,0.1s0.1,0.2,0.1,0.3c0.1,0.1,0.2,0.2,0.1,0.3c0,0.1-0.1,0.2-0.1,0.2l-0.1,0.3c0,0,0.3,0.2,0.3,0.3
			c0,0.1,0.3,0.3,0.2,0.4c-0.1,0.1-0.1,0.2-0.1,0.2s0.1,0,0.1,0.1c0,0.1-0.1,0.1-0.1,0.1s0.1,0,0.1,0.1c0,0.1-0.2,0.2-0.2,0.2
			s0,0.2,0,0.2c0,0.1-0.2,0.1-0.2,0.1l-0.1,0.2c0,0,0.1,0.1,0.1,0.2c-0.1,0.1-0.2,0.2-0.2,0.2s0.1,0.1,0,0.2c0,0.1,0.1,0.2,0,0.2
			c0,0.1-0.2,0.2-0.3,0.2c-0.1,0-0.1,0.1-0.1,0.1s0.2,0.2,0.1,0.2c0,0.1,0.1,0.2,0.1,0.3s-0.1,0.4-0.2,0.4s0,0.2,0,0.3
			s0.2,0.4,0,0.5c-0.2,0.1-0.2,0.3-0.2,0.3s-0.2,0.1-0.2,0c-0.1-0.1-0.2,0.3-0.2,0.3s0.2,0.1,0.2,0.2c0,0.1-0.2,0.2-0.2,0.2
			s0.2,0.2,0.1,0.3s-0.2,0-0.3,0c0,0-0.1,0.1-0.1,0.1s0.1,0.2,0,0.3c-0.1,0-0.3,0.3-0.3,0.3s-0.2,0.1-0.3,0.1
			c-0.1,0-0.1,0.2-0.2,0.1c-0.1-0.1-0.3-0.1-0.3,0s0.1,0.3-0.1,0.3c-0.1,0-0.4,0-0.4,0s-0.1,0.2-0.3,0.1s-0.3-0.3-0.3-0.3
			s-0.3,0-0.3,0.1s-0.2,0.2-0.5,0.1s-0.2,0.1-0.2,0.1s0,0.3-0.1,0.3s-0.2,0-0.3-0.1c0-0.1-0.1-0.1-0.2,0c0,0.1-0.1,0.1-0.1,0.1
			s0,0.2-0.2,0.1c-0.1-0.1-0.2-0.2-0.2-0.2s0.1,0.1-0.1,0.1c-0.1-0.1-0.2,0-0.3,0c-0.2-0.1,0-0.2-0.1-0.3c-0.1,0-0.1-0.2-0.1-0.2
			c-0.1,0-0.1,0.1-0.2,0.1c-0.1-0.1-0.1-0.2-0.1-0.2s-0.2,0-0.2-0.1c0-0.1,0-0.2,0-0.2c0,0-0.3-0.2-0.3-0.2s0-0.2,0-0.2
			c0.1-0.1,0-0.2,0-0.3c-0.1,0-0.2,0-0.2,0c0-0.1,0-0.2,0-0.2s-0.1-0.2-0.2-0.1c-0.1,0,0,0.2-0.2,0.3c-0.2,0-0.3-0.3-0.3-0.3
			s-0.2,0.1-0.2,0c0-0.1,0.1,0.4,0,0.4s0,0.3-0.2,0.2c-0.2-0.1-0.2,0.1-0.2,0.1s-0.2,0-0.2,0s-0.1,0.1-0.2,0.1
			c-0.1,0-0.4-0.1-0.4-0.3c-0.1,0-0.3-0.1-0.3-0.2s0.1-0.3,0.1-0.3s-0.3,0-0.2-0.1s0,0.2-0.1,0.1c-0.1,0-0.2-0.1-0.2-0.1
			s0,0.1-0.1,0.1s-0.1-0.2-0.1-0.2s-0.1,0.1-0.2,0.1c-0.1,0-0.1-0.2-0.1-0.2s-0.4-0.2-0.4-0.3c0-0.1,0-0.2,0-0.2s-0.4,0-0.4-0.2
			c0-0.2,0.1-0.3,0.1-0.3s-0.2-0.1-0.2-0.2c0-0.1,0.2-0.2,0.2-0.2s-0.1,0,0-0.1c0-0.1,0.2-0.1,0.2-0.1s0.1-0.1,0-0.2
			c-0.1,0-0.2-0.3-0.2-0.3c0,0,0-0.2-0.2-0.2s-0.1-0.3-0.1-0.3s-0.1-0.2-0.1-0.3c0-0.1,0.1-0.1,0.1-0.1s-0.2-0.1-0.1-0.2
			c0.1-0.1,0.3-0.1,0.3-0.1s-0.2-0.3-0.1-0.3c0-0.1-0.1-0.1-0.1-0.1c0,0,0-0.2,0-0.2s-0.1-0.1,0-0.2c0.1,0,0.2-0.1,0.2-0.1
			s-0.3-0.2-0.3-0.3s0.2-0.2,0.2-0.2s0.1-0.1,0.1-0.2c0-0.1,0-0.3,0-0.3s-0.1-0.1-0.1-0.3c0.1-0.1,0.3-0.1,0.3-0.1s0.1-0.1,0.1-0.2
			c0-0.1-0.1-0.2,0-0.3c0.1-0.1,0.1-0.1,0.1-0.1s-0.1-0.2,0-0.3c0.1-0.1,0.4,0,0.4,0s0.3,0,0.2-0.1s0-0.2,0.1-0.3c0.1,0,0-0.2,0-0.2
			s0.1-0.1,0-0.2s0.1-0.2,0.1-0.2s0-0.1,0-0.1C201.6,210.8,201.9,210.7,201.9,210.7z"/>
		<path id="XMLID_17_" class="st5" d="M203.5,215.9c-0.1-0.1-0.2-0.2-0.2-0.3c0-0.1,0-0.3,0-0.4c0-0.2-0.2-0.4-0.1-0.6
			c0-0.1,0.1-0.2,0.1-0.3c0-0.2-0.1-0.3-0.2-0.5c0-0.2,0.1-0.4,0.3-0.5c0.1,0,0.2,0,0.2,0c0.3,0,0.5-0.3,0.5-0.6
			c0-0.1,0-0.3,0.1-0.4c0.2-0.2,0.5,0,0.7-0.1c0.1-0.1,0.2-0.2,0.2-0.3s0-0.3,0-0.4c0-0.3,0.3-0.6,0.7-0.7c0.2,0,0.5,0.1,0.7,0
			c0.2-0.1,0.4-0.3,0.7-0.3c0.2,0,0.4,0.1,0.6,0.2c0.2,0.1,0.4,0,0.5,0.1c0.2,0,0.4,0.1,0.4,0.3c0,0.1,0,0.2-0.1,0.3
			c-0.1,0.3-0.1,0.7,0.1,1c0.1,0.2,0.3,0.3,0.4,0.4c0.1,0.2,0.2,0.4,0.1,0.5c-0.1,0.2-0.4,0.2-0.5,0.4c0,0.1,0,0.2,0,0.2
			c0,0.2,0.2,0.4,0.3,0.5c0.1,0.2,0.3,0.3,0.3,0.5c0,0.2-0.1,0.5-0.3,0.4c-0.1,0-0.2-0.1-0.3-0.1c-0.3-0.1-0.6,0.2-0.6,0.5
			s0.1,0.6,0.2,0.9c0.1,0.2,0.2,0.5,0,0.7c-0.2,0.3-0.8,0.1-1,0.4c-0.1,0.1-0.1,0.2-0.2,0.3c0,0-0.1,0-0.1,0
			c-0.2-0.1-0.3-0.3-0.4-0.4c-0.1-0.1-0.4-0.2-0.5-0.1c-0.1,0.1-0.1,0.2-0.2,0.2c-0.1,0-0.2,0-0.2,0c-0.2-0.1-0.3-0.3-0.3-0.4
			s-0.2-0.3-0.3-0.4c-0.2-0.1-0.4-0.1-0.5,0.1c0,0.1,0,0.1,0,0.2c-0.1,0.2-0.4,0.3-0.6,0.1c-0.2-0.1-0.2-0.4-0.3-0.6
			C203.5,216.5,203.5,216.3,203.5,215.9"/>
	</g>
</g>
<g id="圖層_1">
	<g id="layout2">
		<path id="XMLID_3_" class="st6" d="M222.9,155.5c0,0-0.4-1.7,0.4-1.8c0.8,0,1.7,0.6,1.7,0.6s0.3-1.1,0.7-0.8
			c0.4,0.3,0.8-0.9,0.8-0.9s0.5-1,0.9-0.5c0.5,0.5,1,1.2,1,1.2s0.7,0,1.1,0.4c0.4,0.4,1.8,0.6,2.2,1.1s1.1,1.4,1.1,1.4
			s0.2-1.1,0.7-0.9c0.3-0.4,0.6-1.6,1.8-1.1c1.3,0.5,1.7-2.3,1.7-2.3s0.3,0.8,1.1-0.2c0.8-0.9,1.2-1.3,1.2-1.3s0.6-1.5,1.4-1.7
			s1.2,0.6,1.2,0.6s0.2-0.7,0.8-0.5c0.6,0.2,0.9,1,0.9,1s0.8-1.3,1.8-0.5c1,0.8,1.1,2.2,1.1,2.2s0.4-0.2,1.5,0.3
			c1.1,0.5,0.9,1.2,0.9,1.2s0.7-0.3,1.1,0.3s0.2,1.4,0.2,1.4s-0.1-0.6,0.7,0.2c0.8,0.8,0.3,1.3,0.3,1.3s1.1,0.3,1.6,0s1-0.6,1.5-0.3
			c0.4,0.4,0.6,1,0.6,1s0.8,0.2,1,0.7c0.2,0.5,0.1,1.2,0.1,1.2s0.3-0.8,1-0.8s1.1,1.4,1.1,1.4s0.4-1.3,0.8-1s0.8,0.7,0.8,0.7
			s1,0.3,0.9,0.7s0.5-0.9,1-0.4s0.5,1.6,0.5,1.6s0.7-1,1.1-0.4c0.3,0.6,0,1.3,0,1.3s0.6,0,0.6,0.8c0,0.7-0.2,0.9-0.2,0.9
			s1.1,0.1,1.1,0.9s-0.6,1.1-0.6,1.1s0.3,0.3,0.4,0.8c0.1,0.5-0.2,0.6-0.2,0.6s0.6-0.3,0.9,0.2c0.3,0.5,0.1,0.8,0.1,0.8
			s0.6,0.5,0.5,0.9s-0.6,0.9-0.6,0.9s0.4,0.6,0,1c-0.5,0.4-1.1,0.4-1.1,0.4s0.5,0.8-0.1,1.2c-0.5,0.3,1.4,0.4,1.4,0.4s0.8-0.3,1,0.1
			c0.2,0.4-0.8,1-0.8,1s0.4,0.3,0.1,0.6c-0.3,0.3,0.7-0.6,0.9,0c0.2,0.6,0.4,1.3-0.1,1.5c-0.5,0.2,0,1,0,1s1.1-0.5,1.1,0.6
			s-0.7,1-0.7,1s0.5,1,0.3,1.5c-0.3,0.5-0.8,0.4-0.8,0.4s0.1,1-0.1,1.4c0.4,0.7,0.4,1.4,0.1,1.7c-0.3,0.3-1.1,0.8-1.1,0.8l-0.9,1.2
			c0,0,1,1.6,0.9,2.2c-0.1,0.6,0.7,1.8,0.3,2c-0.5,0.2-0.7,0.7-0.7,0.7s0.4,0.3,0.1,0.7s-0.9,0.4-0.9,0.4s0.3,0.3,0,0.7
			s-1.3,0.6-1.3,0.6s-0.2,0.9-0.5,1.1c-0.2,0.2-1,0-1,0l-0.8,0.9c0,0,0.4,0.6,0,0.9s-1,0.5-1,0.5s0,0.7-0.3,0.9
			c-0.3,0.2,0,0.8-0.3,1s-1.2,0.5-1.6,0.2c-0.4-0.3-0.9,0.4-0.9,0.4s0.5,1.1,0.2,1.3c-0.4,0.2,0.3,1.1,0,1.4
			c-0.3,0.4-1.3,1.8-1.5,1.4c-0.2-0.4-0.4,1.1-0.4,1.2c0,0.1,0.3,2.1-0.7,2.2c-0.9,0.1-1.3,1-1.3,1s-0.9,0.1-1-0.4s-1.2,0.9-1.2,0.9
			s1,0.7,0.7,1.1c-0.3,0.4-1.3,0.7-1.3,0.7s0.4,1.3,0,1.4c-0.4,0-1.1-0.5-1.2-0.3c-0.1,0.1-0.7,0.2-0.7,0.2s0.2,1.2-0.4,1.2
			c-0.5,0-2.1,0.8-2.1,0.8s-1,0.2-1.4-0.3s-0.8,0.5-1.3,0c-0.5-0.5-1.2-1.1-1.4-0.7c-0.2,0.4-0.2,1.5-0.7,1.1s-1.8-0.5-1.8-0.5
			s-1,0.6-1.5-0.2c-0.5-0.8-0.6-2.1-0.6-2.1s-1.1-0.6-1.5-0.1c-0.4,0.5-1.3,0.3-2.3-0.3c-1-0.6-1.1,0.2-1.1,0.2s-0.6,1.5-1,1.2
			c-0.4-0.3-1.2-0.3-1.1-0.7s-0.4-0.8-0.6-0.5c-0.2,0.3-0.6,0.5-0.9,0.3c-0.2-0.1-0.6,1-1.1,0.3s-0.5-1.1-0.5-1.1s0,0.7-0.5,0.1
			s-0.8-0.1-1.4-0.7c-0.6-0.6,0.3-1.1-0.1-1.5c-0.4-0.4,0.1-1-0.2-1.1c-0.3-0.1-0.9,0.4-1.2-0.1s-0.6,0.9-0.6,0.9s-1.1-0.4-0.9-0.8
			c0.2-0.4,0.7-1,0.6-1.1c-0.1-0.1-0.9-1.2-0.9-1.2s0.1-0.8,0.5-1c0.4-0.3,0.5-1,0.3-1.2c-0.3-0.2-0.8-0.1-0.9-0.5
			c0-0.4,0.5-0.9,0.5-0.9s-0.3-0.9-0.6-0.9c-0.3,0-0.5,1-1.4,0.9c-0.9-0.1-0.9-2-0.9-2s-1.1-0.1-1.1-0.4s0,1.9-0.7,1.7
			c-0.7-0.2-0.4,1.6-1.2,0.8c-0.8-0.8-1.2-0.2-1.2-0.2s-0.7-0.9-0.6-1.4c0.1-0.5-0.6-1-1.1-1.1c-0.5-0.1-1.6-1.3-1.4-2
			c-0.6-0.5-1.4-1-1.1-1.6c0.3-0.6,1.1-1.4,1.1-1.4s-1.1-0.5-0.9-0.8c0.3-0.2-0.3,0.8-0.9,0.4c-0.6-0.4-0.6-0.9-0.6-0.9
			s-0.3,0.4-0.8,0c-0.5-0.3-0.3-0.9-0.3-0.9s-0.6,0.4-1,0.1c-0.3-0.3,0-1.2,0-1.2s-1.6-1.5-1.4-2s0.5-0.8,0.5-0.8s-1.8-0.9-1.4-1.7
			c0.4-0.8,0.8-1.1,0.8-1.1s-0.9-0.8-0.5-1.3c0.4-0.4,1.1-0.6,1.1-0.6s-0.2-0.3,0-0.6c0.2-0.3,1.2-0.2,1.2-0.2s0.5-0.5,0.1-0.8
			c-0.4-0.3-0.6-1.7-0.5-1.8c0.1-0.1,0.7-1-0.3-1.4c-1-0.4,0-1.5,0-1.5s-0.2-1.1,0.1-1.4c0.3-0.3,0.8-0.2,0.8-0.2s-0.6-0.9-0.2-1.1
			c0.4-0.2,1.4-0.1,1.4-0.1s-0.3-1.5,0-1.8c0.3-0.3-0.3-0.5-0.2-0.7c0.1-0.2,0.4-0.8,0.4-0.8s-0.3-0.8,0.2-0.9
			c0.5-0.1,1.1-0.1,1.1-0.1s-1.1-1.3-0.8-1.7c0.3-0.4,1.1-0.5,1.1-0.5s0.5-0.1,0.6-0.7c0.1-0.6,0.5-1.3,0.5-1.3s-0.3-0.9,0.2-1.4
			c0.5-0.5,1.6,0.2,1.6,0.2s0.6-0.2,0.7-0.6s0-1.3,0.4-1.5c0.4-0.2,0.7-0.4,0.7-0.4s-0.1-1.1,0.4-1.4s1.7,0.5,1.7,0.5
			s1.2,0.6,1.2-0.1s0.3-1.2,0.9-1.2c0.6,0,0.2-1.2,0.2-1.2s0.6-0.5,0.5-0.9c-0.1-0.4,0.8-0.5,0.8-0.5s-0.1-0.5,0.2-0.7
			C221.6,155.5,222.9,155.5,222.9,155.5z"/>
		<path id="XMLID_114_" class="st1" d="M224,157.3c0,0-0.4-1.6,0.3-1.7c0.7,0,1.6,0.6,1.6,0.6s0.2-1.1,0.6-0.8
			c0.4,0.3,0.8,0.6,0.8,0.6s0.4-0.9,0.9-0.4s0.9,1.1,0.9,1.1s0.6,0,1,0.4c0.4,0.4,1.7,0.6,2,1c0.3,0.5,1,1.3,1,1.3s0.2-1.1,0.6-0.8
			c0.3-0.4,0.5-1.5,1.7-1s1.8-1.5,1.8-1.5s0-1.3,0.8-2.2c0.8-0.9,1.6-0.4,1.6-0.4s0.6-1.4,1.3-1.6c0.7-0.2,1.1,0.5,1.1,0.5
			s0.2-0.6,0.7-0.5c0.5,0.2,0.8,0.9,0.8,0.9s0.8-1.2,1.7-0.4s0.5,1.2,0.5,1.2s0.4-0.2,1.4,0.3c1,0.4,0.9,1.1,0.9,1.1s0.7-0.3,1,0.2
			c0.3,0.5,0.1,1.3,0.1,1.3s-0.1-0.6,0.6,0.2c0.7,0.8,0.3,1.3,0.3,1.3s1.1,0.2,1.5,0c0.4-0.3,1-0.6,1.4-0.2s0.6,1,0.6,1
			s0.7,0.2,0.9,0.6c0.2,0.4,0.1,1.1,0.1,1.1s0.2-0.8,0.9-0.7c0.7,0,1,1.3,1,1.3s0.4-1.2,0.8-1c0.4,0.2,0.8,0.6,0.8,0.6
			s0.9,0.3,0.8,0.6c-0.1,0.4,0.5-0.8,1-0.4c0.5,0.4,0.5,1.5,0.5,1.5s0.7-0.9,1-0.3c0.3,0.6,0,1.2,0,1.2s0.6,0,0.6,0.7
			c0,0.7-0.2,0.9-0.2,0.9s1,0.1,1,0.8c0,0.7-0.5,1-0.5,1s0.3,0.3,0.4,0.8c0.1,0.5-0.2,0.6-0.2,0.6s0.5-0.3,0.8,0.2
			c0.2,0.5,0.1,0.8,0.1,0.8s0.6,0.5,0.5,0.8c-0.1,0.3-0.5,0.8-0.5,0.8s0.4,0.6,0,1s-1,0.4-1,0.4s-0.2,0.9-0.7,1.3
			c-0.5,0.3,1.9,0.2,1.9,0.2s0.8-0.3,0.9,0.1c0.2,0.4-0.7,0.9-0.7,0.9s0.4,0.3,0.1,0.5c-0.3,0.2,0.7-0.6,0.9,0
			c0.2,0.6,0.4,1.2,0,1.4c-0.4,0.2,0,0.9,0,0.9s1-0.5,1,0.5c0,1-0.6,1-0.6,1s0.5,1,0.3,1.4c-0.2,0.4-0.8,0.4-0.8,0.4
			s0.1,0.9-0.1,1.3c0.3,0.7,0.4,1.3,0.1,1.6s-1,0.8-1,0.8l-0.9,1.2c0,0,1,1.5,0.9,2.1s0.7,1.6,0.2,1.9c-0.4,0.2-0.7,0.6-0.7,0.6
			s0.3,0.3,0.1,0.7s-0.8,0.4-0.8,0.4s0.3,0.3,0,0.7c-0.3,0.4-1.2,0.5-1.2,0.5s-0.2,0.9-0.4,1c-0.2,0.2-0.9,0-0.9,0L259,194
			c0,0,0.4,0.6,0,0.8s-1,0.5-1,0.5s0,0.7-0.3,0.9c-0.3,0.2,0,0.8-0.3,0.9c-0.3,0.2-1.1,0.5-1.5,0.2c-0.4-0.3-0.8,0.4-0.8,0.4
			s0.5,1,0.1,1.2c-0.3,0.2,0.3,1,0,1.3c-0.3,0.3-1.2,1.7-1.4,1.3c-0.2-0.3-0.4,1.1-0.4,1.1c0,0.1,0.3,1.9-0.6,2
			c-0.9,0.1-1.2,0.9-1.2,0.9s-0.8,0.1-0.9-0.4c-0.1-0.4-1.1,0.9-1.1,0.9s0.9,0.6,0.7,1c-0.3,0.4-1.2,0.7-1.2,0.7s0.4,1.2,0,1.3
			s-1-0.4-1.2-0.3c-0.1,0.1-0.7,0.2-0.7,0.2s0.2,1.1-0.3,1.1c-0.5,0-1.9,0.8-1.9,0.8s-0.9,0.2-1.3-0.2s-0.7,0.5-1.2,0
			c-0.5-0.4-1.1-1-1.3-0.7s-0.2,1.4-0.7,1s-1.6-0.4-1.6-0.4s-0.9,0.6-1.3-0.2s-0.6-1.9-0.6-1.9s-1-0.6-1.4-0.1
			c-0.4,0.5-1.2,0.3-2.1-0.2c-1-0.5-1,0.2-1,0.2s-0.5,1.4-0.9,1.1c-0.4-0.3-1.1-0.3-1-0.6c0.1-0.4-0.4-0.7-0.6-0.5
			c-0.2,0.3-0.6,0.4-0.8,0.3c-0.2-0.1-0.6,0.9-1,0.3s-0.4-1-0.4-1s0,0.7-0.5,0.1c-0.5-0.6-0.8-0.1-1.3-0.7c-0.5-0.6,0.3-1-0.1-1.4
			c-0.4-0.3,0.1-0.9-0.2-1c-0.3-0.1-0.8,0.4-1.1-0.1s-0.2-1.2-0.2-1.2s-1-0.4-0.8-0.8c0.2-0.4,0.6-1,0.5-1c-0.1-0.1-0.9-1.1-0.9-1.1
			s0.1-0.7,0.4-1c0.3-0.2,0.5-1,0.2-1.1c-0.3-0.2-0.8-0.1-0.8-0.5c0-0.4,0.4-0.9,0.4-0.9s-0.3-0.9-0.6-0.9c-0.3,0-0.5,1-1.3,0.8
			c-0.8-0.1-0.9-1.9-0.9-1.9s-1-0.1-1-0.4c0-0.3,0,1.8-0.6,1.6c-0.7-0.2-0.4,1.5-1.1,0.7c-0.7-0.8-1.1-0.2-1.1-0.2s-0.9-0.1-0.8-0.5
			c0.1-0.5-0.7,0.4-1.2,0.2c-0.5-0.1-1.5-1.2-1.3-1.8c-0.5-0.4-1.3-0.9-1-1.5c0.3-0.6,1-1.3,1-1.3s-1.1-0.5-0.8-0.7
			c0.2-0.2-0.2,0.7-0.8,0.4c-0.6-0.3-0.5-0.8-0.5-0.8s-0.3,0.3-0.7,0c-0.4-0.3-0.3-0.9-0.3-0.9s-0.6,0.4-0.9,0.1
			c-0.3-0.3,0-1.1,0-1.1s-1.5-1.4-1.3-1.9c0.2-0.5,0.5-0.7,0.5-0.7s-1.7-0.9-1.3-1.6s0.7-1,0.7-1s-0.8-0.8-0.5-1.2
			c0.3-0.4,1-0.6,1-0.6s-0.2-0.3,0-0.6c0.2-0.3,1.1-0.2,1.1-0.2s0.4-0.4,0.1-0.7c-0.4-0.3-0.5-1.6-0.4-1.6s0.6-1-0.3-1.3
			c-0.9-0.3,0-1.4,0-1.4s-0.2-1.1,0.1-1.3c0.3-0.3,0.8-0.2,0.8-0.2s-0.5-0.9-0.1-1s1.3-0.1,1.3-0.1s-0.3-1.4,0-1.7
			c0.3-0.3-0.3-0.5-0.2-0.7c0.1-0.2,0.4-0.8,0.4-0.8s-0.2-0.8,0.2-0.8c0.4-0.1,1-0.1,1-0.1s-1-1.2-0.7-1.6s1-0.5,1-0.5
			s0.5-0.1,0.6-0.7c0.1-0.6,0.5-1.2,0.5-1.2s-0.3-0.8,0.2-1.3s1.5,0.2,1.5,0.2s0.5-0.2,0.6-0.6c0.1-0.4,0-1.2,0.4-1.4
			c0.3-0.2,0.6-0.3,0.6-0.3s-0.1-1,0.4-1.3c0.5-0.3,1.6,0.5,1.6,0.5s1.1,0.6,1.1-0.1c0-0.7,0.3-1.1,0.9-1.1c0.6,0,0.2-1.1,0.2-1.1
			s0.6-0.4,0.5-0.8c-0.1-0.4,0.7-0.5,0.7-0.5s-0.1-0.5,0.2-0.6C222.7,157.3,224,157.3,224,157.3z"/>
		<path id="XMLID_9_" class="st7" d="M226.2,166c0.7-1,1.6-2.2,2.8-2.2c0.5,0,1,0.2,1.5,0.2c1.7,0,2.6-2.1,4.2-2.4
			c0.7-0.1,1.6,0.1,2.2-0.2c1-0.4,1.5-1.9,2.5-1.8c1.2,0.1,1.4,2.1,2.6,2.5c0.9,0.3,1.7-0.6,2.2-1.3s1.4-1.5,2.3-1.1
			c0.9,0.4,0.9,1.7,1.7,2.3c1.1,0.9,3.1,0,3.9,1.1c0.4,0.5,0.3,1.2,0.4,1.8c0.1,1.2,0.8,2.4,2,2.7c0.8,0.2,1.7,0,2.2,0.6
			c0.7,0.7,0.1,2,0.5,2.8c0.5,0.9,2.1,1,2.4,2.1c0.2,0.9-0.7,1.6-1,2.4c-0.5,1.6,1.3,3.3,0.5,4.8c-0.3,0.6-1,1-1.4,1.5
			c-0.9,1.2-0.5,2.8-0.6,4.2c0,0.3-0.1,0.7-0.4,0.9c-0.4,0.3-1.1-0.1-1.6,0c-0.5,0.1-0.8,0.5-1,1c-0.4,0.8-0.5,1.7-0.3,2.6
			c0.2,0.9,0.6,1.7,0.7,2.6c0.1,0.9-0.3,2-1.2,2.1c-0.9,0.2-1.8-0.8-2.7-0.7c-1.2,0.1-1.6,1.7-1.7,2.9c0,0.2,0,0.3,0.1,0.4
			c0.2,0.2,0.5,0.2,0.8,0.2c0.9,0.1,1.4,1.3,1,2.1s-1.7,1-2.5,0.5c-0.2-0.1-0.4-0.3-0.7-0.4c-0.8-0.2-1.4,0.7-1.7,1.4
			c-0.3,0.8-0.8,1.7-1.6,1.6c-1.1-0.1-1.1-2-2.1-2.5c-0.7-0.4-1.6,0.2-2.3,0.7c-0.7,0.5-1.7,0.9-2.3,0.3c-0.3-0.3-0.4-0.7-0.6-1.1
			c-0.5-1.2-1.9-2.1-3.1-1.7c-0.8,0.3-1.4,1.1-2.2,1c-0.9-0.1-1.3-1.2-1.5-2c-0.3-0.9-0.9-1.9-1.8-1.7c-0.3,0.1-0.5,0.2-0.8,0.3
			c-0.8,0.2-1.6-0.6-1.7-1.4c-0.2-0.8,0-1.7-0.1-2.5c-0.1-0.8-0.6-1.7-1.4-1.8c-0.4,0-0.7,0.1-1.1,0.2c-1.4,0.4-2.8,0.5-4.2,0.3
			c-1-0.2-2-0.7-2.3-1.6c-0.4-1.4,1.3-3.2,0.2-4.3c-0.6-0.7-1.8-0.3-2.4,0.4c-0.4,0.5-0.7,1.2-1.3,1.2c-0.5,0.1-0.9-0.3-1.1-0.8
			s-0.1-0.9-0.1-1.4c0.1-1.1,0.3-2.2,1-3c0.9-1.2,2.6-1.6,3.6-2.7c0.8-1,0.9-2.6,0.2-3.7c-0.2-0.4-0.6-0.7-0.7-1.1
			c-0.3-0.9,0.5-1.8,1.4-2.1c0.9-0.3,1.9,0,2.8,0.2c0.6-0.8,1.3-1.9,1-2.9c-0.2-0.4-0.5-0.8-0.7-1.3c-0.3-0.7-0.1-1.6,0.4-2.1
			c0.5-0.5,1.4-0.7,2.1-0.4c0.4,0.2,0.8,0.5,1.3,0.7c0.5,0.2,1.1,0,1.2-0.4"/>
	</g>
	<g id="layout">
		<path id="XMLID_12_" class="st8" d="M241.3,164.9c0,0,0.3-0.8,0.6-0.6s0.5,0.7,0.5,0.7s0.4-0.4,0.5-0.2c0.1,0.2,0.2,0.5,0.2,0.5
			s0.5-0.3,0.5,0.1c0,0.3,0.1,0.7,0.1,0.7s0.3,0.2,0.3,0.5c0,0.3,0.6,0.7,0.6,1c0,0.3,0,0.8,0,0.8s0.4-0.4,0.5-0.2
			c0.2-0.1,0.7-0.5,1,0.1c0.4,0.6,1.2-0.1,1.2-0.1s0.4-0.6,1-0.7c0.6-0.1,0.8,0.3,0.8,0.3s0.7-0.4,1-0.3c0.4,0.1,0.3,0.6,0.3,0.6
			s0.3-0.2,0.5,0c0.2,0.2,0.1,0.6,0.1,0.6s0.7-0.3,0.9,0.3s-0.1,0.7-0.1,0.7s0.2,0,0.5,0.5s0,0.7,0,0.7s0.4,0.1,0.4,0.4
			c0,0.3-0.3,0.6-0.3,0.6s0.1-0.3,0.2,0.3c0.1,0.5-0.3,0.6-0.3,0.6s0.4,0.4,0.6,0.4c0.3,0,0.6,0,0.7,0.3c0.1,0.3,0,0.6,0,0.6
			s0.3,0.3,0.2,0.5c-0.1,0.2-0.3,0.5-0.3,0.5s0.3-0.3,0.6,0c0.3,0.2,0,0.8,0,0.8s0.5-0.4,0.6-0.2s0.2,0.5,0.2,0.5s0.3,0.4,0.2,0.5
			c-0.1,0.1,0.5-0.2,0.5,0.1c0.1,0.3-0.2,0.8-0.2,0.8s0.6-0.2,0.5,0.2c0,0.3-0.3,0.5-0.3,0.5s0.2,0.2,0.1,0.5
			c-0.2,0.3-0.4,0.3-0.4,0.3s0.4,0.3,0.2,0.6c-0.2,0.3-0.5,0.3-0.5,0.3s0.1,0.2-0.1,0.4c-0.1,0.2-0.2,0.2-0.2,0.2s0.3,0,0.3,0.3
			c0,0.3-0.2,0.4-0.2,0.4s0.1,0.4,0,0.5c-0.1,0.1-0.5,0.2-0.5,0.2s0,0.4-0.3,0.4c-0.3,0-0.6-0.1-0.6-0.1s-0.3,0.4-0.7,0.3
			s0.8,0.7,0.8,0.7s0.4,0.1,0.4,0.3s-0.6,0.2-0.6,0.2s0.1,0.2-0.1,0.2c-0.2,0,0.5,0,0.4,0.3c-0.1,0.3-0.2,0.6-0.4,0.6
			s-0.3,0.4-0.3,0.4s0.6,0.1,0.3,0.5c-0.3,0.5-0.5,0.2-0.5,0.2s-0.1,0.6-0.3,0.7c-0.2,0.1-0.4-0.1-0.4-0.1s-0.2,0.4-0.4,0.5
			c-0.1,0.4-0.2,0.7-0.4,0.7s-0.7,0-0.7,0l-0.7,0.2c0,0,0,0.9-0.2,1.1c-0.2,0.2-0.2,0.9-0.4,0.9c-0.2,0-0.5,0.1-0.5,0.1
			s0.1,0.2-0.2,0.3c-0.2,0.1-0.5-0.1-0.5-0.1s0,0.2-0.2,0.3s-0.7-0.1-0.7-0.1s-0.4,0.3-0.5,0.3c-0.1,0-0.4-0.3-0.4-0.3l-0.6,0.1
			c0,0,0,0.4-0.3,0.4s-0.5-0.1-0.5-0.1s-0.2,0.3-0.4,0.3c-0.2,0-0.2,0.3-0.4,0.3c-0.2,0-0.6-0.1-0.7-0.3c-0.1-0.2-0.5-0.1-0.5-0.1
			s-0.1,0.6-0.3,0.6c-0.2,0-0.2,0.5-0.4,0.6s-1,0.3-1,0.2c0-0.2-0.5,0.3-0.5,0.4c0,0-0.5,0.9-0.9,0.7c-0.4-0.2-0.8,0-0.8,0
			s-0.4-0.2-0.3-0.4c0.1-0.2-0.7,0.1-0.7,0.1s0.2,0.6,0,0.6c-0.2,0.1-0.7-0.1-0.7-0.1s-0.2,0.6-0.4,0.5c-0.2-0.1-0.3-0.5-0.4-0.5
			S236,194,236,194s-0.3,0.5-0.5,0.4c-0.2-0.2-1.1-0.2-1.1-0.2s-0.4-0.2-0.5-0.5c-0.1-0.3-0.5,0-0.5-0.3c-0.1-0.3-0.2-0.8-0.4-0.7
			c-0.2,0.1-0.5,0.6-0.6,0.2c-0.1-0.3-0.6-0.7-0.6-0.7s-0.5,0-0.5-0.5c0-0.5,0.3-1,0.3-1s-0.3-0.6-0.6-0.5c-0.3,0.1-0.6-0.2-0.8-0.7
			s-0.5-0.2-0.5-0.2s-0.6,0.4-0.7,0.2s-0.4-0.4-0.2-0.6s0.1-0.4-0.1-0.4c-0.2,0.1-0.4,0-0.4-0.1c-0.1-0.1-0.5,0.2-0.5-0.2
			s0.1-0.6,0.1-0.6s-0.2,0.3-0.2-0.1s-0.3-0.3-0.4-0.7c-0.1-0.4,0.4-0.4,0.4-0.6c-0.1-0.3,0.3-0.4,0.2-0.5c-0.1-0.1-0.5-0.1-0.5-0.4
			s0.3-0.6,0.3-0.6s-0.3-0.5-0.1-0.6c0.2-0.1,0.5-0.2,0.5-0.3c0,0-0.1-0.7-0.1-0.7s0.2-0.3,0.5-0.3c0.2,0,0.5-0.3,0.4-0.4
			s-0.3-0.3-0.2-0.4c0.1-0.2,0.4-0.2,0.4-0.2s0.1-0.5,0-0.5c-0.1-0.1-0.5,0.3-0.8,0c-0.3-0.3,0.2-1.1,0.2-1.1s-0.4-0.3-0.3-0.5
			c0.1-0.1-0.5,0.8-0.7,0.5c-0.2-0.3-0.6,0.5-0.7,0c-0.1-0.5-0.4-0.4-0.4-0.4s-0.3-0.3-0.2-0.5c0.2-0.2-0.4,0-0.6-0.2
			c-0.2-0.2-0.3-1,0-1.2c-0.1-0.3-0.3-0.8,0-0.9c0.3-0.2,0.8-0.2,0.8-0.2s-0.3-0.5-0.1-0.5c0.2,0-0.3,0.2-0.5-0.1s0-0.5,0-0.5
			s-0.2,0.1-0.3-0.2s0.1-0.5,0.1-0.5s-0.4,0-0.4-0.2c-0.1-0.2,0.3-0.5,0.3-0.5s-0.2-1,0-1.2c0.2-0.1,0.4-0.2,0.4-0.2
			s-0.5-0.9-0.1-1.1s0.6-0.2,0.6-0.2s-0.1-0.6,0.1-0.6c0.3-0.1,0.6,0.1,0.6,0.1s0-0.2,0.2-0.2c0.2-0.1,0.6,0.2,0.6,0.2
			s0.3-0.1,0.2-0.3c-0.1-0.2,0.2-0.8,0.3-0.8c0,0,0.5-0.2,0.3-0.7c-0.3-0.4,0.4-0.6,0.4-0.6s0.2-0.5,0.4-0.5c0.2,0,0.4,0.1,0.4,0.1
			s0-0.5,0.2-0.5c0.2,0.1,0.6,0.4,0.6,0.4s0.3-0.7,0.5-0.7c0.2,0,0-0.3,0.1-0.4c0.1-0.1,0.4-0.2,0.4-0.2s0.1-0.4,0.3-0.3
			c0.2,0.1,0.5,0.3,0.5,0.3s-0.1-0.8,0.1-0.9c0.2-0.1,0.6,0.1,0.6,0.1s0.2,0.1,0.4-0.1c0.2-0.2,0.6-0.4,0.6-0.4s0.1-0.4,0.5-0.5
			c0.3,0,0.6,0.5,0.6,0.5s0.3,0.1,0.4-0.1c0.2-0.1,0.4-0.5,0.6-0.5c0.2,0,0.4,0,0.4,0s0.3-0.5,0.6-0.5c0.3,0,0.5,0.7,0.5,0.7
			s0.3,0.6,0.5,0.3c0.2-0.3,0.5-0.4,0.7-0.2c0.2,0.2,0.4-0.4,0.4-0.4s0.4,0,0.5-0.2c0.1-0.2,0.4,0,0.4,0s0.1-0.2,0.2-0.2
			C240.7,164.5,241.3,164.9,241.3,164.9z"/>
		<path id="XMLID_11_" class="st4" d="M241.3,165c0,0,0.3-0.8,0.6-0.6c0.3,0.2,0.5,0.7,0.5,0.7s0.4-0.4,0.5-0.2s0.2,0.5,0.2,0.5
			s0.5-0.3,0.5,0.1c0,0.3,0.1,0.7,0.1,0.7s0.3,0.2,0.3,0.5c0,0.3,0.6,0.7,0.6,1c0,0.3,0,0.8,0,0.8s0.4-0.4,0.5-0.2
			c0.2-0.1,0.7-0.5,1,0.1c0.4,0.5,1.2-0.1,1.2-0.1s0.4-0.6,1-0.7c0.6-0.1,0.8,0.3,0.8,0.3s0.7-0.4,1-0.3c0.3,0.1,0.3,0.6,0.3,0.6
			s0.3-0.2,0.4,0s0.1,0.6,0.1,0.6s0.7-0.3,0.8,0.3c0.2,0.6-0.1,0.7-0.1,0.7s0.2,0,0.5,0.5s0,0.7,0,0.7s0.4,0.1,0.4,0.4
			c0,0.3-0.3,0.6-0.3,0.6s0.1-0.3,0.2,0.3c0.1,0.5-0.3,0.6-0.3,0.6s0.4,0.4,0.6,0.4c0.3,0,0.6,0,0.7,0.3c0.1,0.3,0,0.6,0,0.6
			s0.2,0.3,0.2,0.5c-0.1,0.2-0.3,0.5-0.3,0.5s0.3-0.3,0.6,0c0.3,0.2,0,0.8,0,0.8s0.5-0.4,0.6-0.2c0.1,0.2,0.2,0.5,0.2,0.5
			s0.3,0.4,0.2,0.5c-0.1,0.1,0.5-0.2,0.5,0.1c0.1,0.3-0.2,0.8-0.2,0.8s0.6-0.2,0.5,0.2c0,0.3-0.3,0.5-0.3,0.5s0.2,0.2,0.1,0.5
			s-0.3,0.3-0.3,0.3s0.4,0.3,0.2,0.6c-0.2,0.3-0.5,0.3-0.5,0.3s0.1,0.2-0.1,0.4s-0.2,0.2-0.2,0.2s0.3,0,0.3,0.3
			c0,0.3-0.2,0.4-0.2,0.4s0.1,0.4,0,0.5c-0.1,0.1-0.5,0.2-0.5,0.2s0,0.4-0.3,0.4c-0.3,0-0.5-0.1-0.5-0.1s-0.3,0.4-0.6,0.3
			c-0.3,0,0.7,0.6,0.7,0.6s0.4,0.1,0.4,0.3s-0.6,0.2-0.6,0.2s0.1,0.2-0.1,0.2s0.5,0,0.4,0.3c-0.1,0.3-0.2,0.6-0.4,0.6
			s-0.3,0.4-0.3,0.4s0.6,0.1,0.3,0.5s-0.5,0.2-0.5,0.2s-0.1,0.6-0.3,0.7c-0.2,0.1-0.4-0.1-0.4-0.1s-0.2,0.4-0.4,0.5
			c-0.1,0.4-0.2,0.7-0.4,0.7c-0.2,0-0.7,0-0.7,0l-0.7,0.2c0,0,0,0.9-0.2,1.1c-0.2,0.2-0.2,0.9-0.4,0.9s-0.5,0.1-0.5,0.1
			s0.1,0.2-0.1,0.3c-0.2,0.1-0.4-0.1-0.4-0.1s0,0.2-0.2,0.3c-0.2,0.1-0.7-0.1-0.7-0.1s-0.3,0.3-0.5,0.3c-0.1,0-0.4-0.3-0.4-0.3
			l-0.6,0.1c0,0,0,0.4-0.3,0.4c-0.2,0-0.5-0.1-0.5-0.1s-0.2,0.3-0.4,0.3s-0.2,0.3-0.4,0.3c-0.2,0-0.6-0.1-0.7-0.3
			c-0.1-0.2-0.5-0.1-0.5-0.1s-0.1,0.6-0.3,0.6c-0.2,0-0.2,0.5-0.4,0.6c-0.2,0.1-1,0.3-1,0.1c0-0.2-0.5,0.3-0.5,0.4
			c0,0-0.5,0.9-0.9,0.7c-0.4-0.2-0.8,0-0.8,0s-0.4-0.2-0.3-0.4c0.1-0.2-0.7,0.1-0.7,0.1s0.2,0.5,0,0.6s-0.7-0.1-0.7-0.1
			s-0.2,0.6-0.4,0.5s-0.3-0.5-0.4-0.5c-0.1,0-0.3-0.1-0.3-0.1s-0.3,0.5-0.5,0.4c-0.2-0.2-1-0.2-1-0.2s-0.4-0.2-0.5-0.5
			s-0.4,0-0.5-0.3c-0.1-0.3-0.2-0.8-0.4-0.7s-0.5,0.5-0.6,0.2s-0.6-0.7-0.6-0.7s-0.5,0-0.5-0.5c0-0.5,0.3-1,0.3-1s-0.3-0.6-0.6-0.5
			c-0.3,0.1-0.6-0.2-0.8-0.7c-0.2-0.5-0.5-0.2-0.5-0.2s-0.6,0.4-0.7,0.2c-0.1-0.2-0.4-0.4-0.2-0.6c0.1-0.1,0.1-0.4-0.1-0.4
			c-0.2,0.1-0.4,0-0.4-0.1s-0.5,0.2-0.5-0.2c0-0.4,0.1-0.6,0.1-0.6s-0.2,0.3-0.2-0.1c0-0.4-0.3-0.3-0.4-0.7s0.4-0.4,0.4-0.6
			c-0.1-0.2,0.3-0.4,0.2-0.5c-0.1-0.1-0.5-0.1-0.5-0.3s0.3-0.6,0.3-0.6s-0.3-0.4-0.1-0.6c0.2-0.1,0.5-0.2,0.5-0.3
			c0,0-0.1-0.7-0.1-0.7s0.2-0.3,0.5-0.3c0.2,0,0.5-0.3,0.4-0.4s-0.3-0.3-0.2-0.4c0.1-0.2,0.4-0.2,0.4-0.2s0.1-0.5,0-0.5
			c-0.1-0.1-0.5,0.3-0.8,0s0.2-1,0.2-1s-0.4-0.3-0.3-0.5c0.1-0.1-0.5,0.8-0.7,0.5c-0.2-0.3-0.6,0.5-0.7,0c-0.1-0.5-0.4-0.4-0.4-0.4
			s-0.3-0.3-0.2-0.5c0.2-0.2-0.4,0-0.6-0.2c-0.2-0.2-0.3-1,0-1.1c-0.1-0.3-0.3-0.8,0-0.9c0.3-0.2,0.8-0.2,0.8-0.2s-0.3-0.5-0.1-0.5
			s-0.3,0.2-0.5-0.1c-0.1-0.3,0-0.5,0-0.5s-0.2,0.1-0.3-0.2c-0.1-0.3,0.1-0.4,0.1-0.4s-0.4,0-0.4-0.2s0.3-0.5,0.3-0.5s-0.2-1,0-1.2
			c0.2-0.1,0.4-0.2,0.4-0.2s-0.5-0.9-0.1-1s0.6-0.2,0.6-0.2s-0.1-0.6,0.1-0.6c0.3-0.1,0.6,0.1,0.6,0.1s0-0.2,0.2-0.2
			s0.5,0.2,0.5,0.2s0.3,0,0.2-0.3c-0.1-0.2,0.2-0.8,0.3-0.8c0,0,0.5-0.2,0.3-0.6c-0.3-0.4,0.4-0.6,0.4-0.6s0.2-0.5,0.4-0.5
			c0.2,0,0.4,0.1,0.4,0.1s0-0.5,0.2-0.5c0.2,0.1,0.6,0.4,0.6,0.4s0.3-0.7,0.5-0.7c0.2,0,0-0.3,0.1-0.4c0.1-0.1,0.4-0.2,0.4-0.2
			s0.1-0.4,0.3-0.3s0.5,0.3,0.5,0.3s-0.1-0.8,0.1-0.9c0.2-0.1,0.6,0.1,0.6,0.1s0.2,0.1,0.4-0.1c0.2-0.2,0.6-0.4,0.6-0.4
			s0.1-0.4,0.4-0.5c0.3,0,0.6,0.5,0.6,0.5s0.3,0.1,0.4-0.1c0.2-0.1,0.4-0.5,0.6-0.5c0.2,0,0.4,0,0.4,0s0.3-0.5,0.6-0.5
			c0.3,0,0.5,0.7,0.5,0.7s0.3,0.6,0.5,0.3c0.2-0.3,0.4-0.4,0.7-0.2c0.2,0.2,0.4-0.4,0.4-0.4s0.4,0,0.5-0.2c0.1-0.2,0.4,0,0.4,0
			s0.1-0.2,0.2-0.2C240.7,164.7,241.3,165,241.3,165z"/>
		<path id="XMLID_10_" class="st5" d="M233,175.2c0-0.3,0.2-0.6,0.5-0.8c0.3-0.2,0.6-0.3,0.8-0.5c0.4-0.3,0.6-0.9,1-1.1
			c0.3-0.1,0.6-0.1,0.8-0.2c0.4-0.2,0.5-0.7,0.7-0.9c0.3-0.4,1-0.4,1.3,0c0.1,0.1,0.2,0.3,0.4,0.4c0.5,0.5,1.3,0.5,1.8,0.1
			c0.3-0.2,0.5-0.4,0.9-0.4c0.6,0.1,0.6,1.1,1.1,1.3c0.3,0.1,0.6,0,0.9-0.1c0.3-0.2,0.5-0.4,0.8-0.6c0.7-0.4,1.7-0.2,2.2,0.5
			c0.3,0.5,0.4,1.1,0.9,1.5c0.5,0.4,1.2,0.3,1.6,0.8c0.3,0.4,0.2,0.9,0.3,1.4c0.1,0.4,0.4,0.7,0.6,1.1c0.2,0.4,0.2,0.9-0.1,1.2
			c-0.2,0.2-0.5,0.2-0.7,0.3c-0.8,0.2-1.5,0.8-1.7,1.6c-0.2,0.4-0.2,0.9-0.4,1.3s-0.5,0.8-1,0.8c-0.5,0-1-0.5-1.5-0.4
			c-0.2,0-0.3,0.1-0.5,0.3c-0.3,0.4-0.5,0.9-0.6,1.4s-0.3,1-0.6,1.4c-0.4,0.3-1.1,0.4-1.3-0.1c-0.1-0.2-0.1-0.4-0.2-0.6
			c-0.3-0.7-1.2-0.9-1.9-0.5c-0.7,0.3-1.1,1-1.5,1.6c-0.3,0.5-0.7,1-1.3,1c-0.9-0.1-1.3-1.5-2.2-1.5c-0.3,0-0.6,0.1-0.8-0.1
			c-0.1-0.1-0.1-0.2-0.1-0.3c-0.1-0.5,0.1-0.9,0.2-1.4c0.1-0.5-0.1-1-0.5-1.2c-0.2-0.1-0.5,0-0.7-0.2c-0.2-0.1-0.2-0.3-0.2-0.5
			c0-0.4,0.2-0.9,0.4-1.2c0.2-0.4,0.4-0.8,0.4-1.2c0-0.4-0.4-0.9-0.9-0.8c-0.1,0-0.3,0.1-0.4,0.2c-0.5,0.2-1.1-0.4-1-1
			c0-0.6,0.5-1,0.9-1.4s1-0.6,1.3-1.1"/>
	</g>
</g>
</svg>
