<?xml version="1.0" encoding="utf-8"?>
<!-- Generator: Adobe Illustrator 19.0.0, SVG Export Plug-In . SVG Version: 6.00 Build 0)  -->
<svg version="1.1" xmlns="http://www.w3.org/2000/svg" xmlns:xlink="http://www.w3.org/1999/xlink" x="0px" y="0px" width="1000px" height="1000px"
	 viewBox="0 0 1000 1000" style="enable-background:new 0 0 1000 1000;" xml:space="preserve">
<style type="text/css">
	.st0{fill:url(#XMLID_2_);}
	.st1{fill:url(#XMLID_3_);}
	.st2{fill:url(#XMLID_4_);}
	.st3{fill:url(#XMLID_5_);}
	.st4{fill:url(#XMLID_6_);}
	.st5{fill:url(#XMLID_7_);}
	.st6{fill:url(#XMLID_8_);}
	.st7{fill:url(#XMLID_9_);}
	.st8{fill:url(#XMLID_10_);}
	.st9{fill:url(#XMLID_11_);}
	.st10{fill:url(#XMLID_12_);}
	.st11{fill:url(#XMLID_13_);}
	.st12{fill:url(#XMLID_14_);}
	.st13{fill:url(#XMLID_15_);}
	.st14{fill:url(#XMLID_16_);}
	.st15{fill:url(#XMLID_17_);}
	.st16{fill:url(#XMLID_18_);}
	.st17{fill:url(#XMLID_19_);}
	.st18{fill:url(#XMLID_20_);}
	.st19{fill:url(#XMLID_21_);}
</style>
<g id="Calque_9">
	<g id="圖層_10_拷貝_3">
		
			<linearGradient id="XMLID_2_" gradientUnits="userSpaceOnUse" x1="191.2217" y1="576.21" x2="191.2217" y2="532.31" gradientTransform="matrix(1 0 0 -1 0 1000.11)">
			<stop  offset="0" style="stop-color:#8FC044"/>
			<stop  offset="0.1447" style="stop-color:#89BF45"/>
			<stop  offset="0.3381" style="stop-color:#7ABA48"/>
			<stop  offset="0.559" style="stop-color:#59B24B"/>
			<stop  offset="0.7984" style="stop-color:#25A94F"/>
			<stop  offset="1" style="stop-color:#08A651"/>
		</linearGradient>
		<path id="XMLID_199_" class="st0" d="M184.3,423.9c2.9,2,7.8,6,11,12.8c6.9,14.7-0.8,29.3-1.8,31.1c0.7-5.1,1.1-12.6-0.6-21.4
			C191,436.3,187.2,428.6,184.3,423.9z"/>
		
			<linearGradient id="XMLID_3_" gradientUnits="userSpaceOnUse" x1="203.8641" y1="587.11" x2="203.8641" y2="532.31" gradientTransform="matrix(1 0 0 -1 0 1000.11)">
			<stop  offset="0" style="stop-color:#8FC044"/>
			<stop  offset="0.1447" style="stop-color:#89BF45"/>
			<stop  offset="0.3381" style="stop-color:#7ABA48"/>
			<stop  offset="0.559" style="stop-color:#59B24B"/>
			<stop  offset="0.7984" style="stop-color:#25A94F"/>
			<stop  offset="1" style="stop-color:#08A651"/>
		</linearGradient>
		<path id="XMLID_198_" class="st1" d="M198.1,467.8c0,0,12.3-34,2.4-54.8c8.5,6.5,10.7,28.6,8.1,35.3S198.1,467.8,198.1,467.8z"/>
		
			<linearGradient id="XMLID_4_" gradientUnits="userSpaceOnUse" x1="219.9" y1="564.4563" x2="219.9" y2="527.8938" gradientTransform="matrix(1 0 0 -1 0 1000.11)">
			<stop  offset="0" style="stop-color:#8FC044"/>
			<stop  offset="0.1447" style="stop-color:#89BF45"/>
			<stop  offset="0.3381" style="stop-color:#7ABA48"/>
			<stop  offset="0.559" style="stop-color:#59B24B"/>
			<stop  offset="0.7984" style="stop-color:#25A94F"/>
			<stop  offset="1" style="stop-color:#08A651"/>
		</linearGradient>
		<path id="XMLID_197_" class="st2" d="M204.4,472.2c0,0,7.6-25.9,13.1-29.8c8.3-5.9,17.9-6.8,17.9-6.8S211.7,448.5,204.4,472.2z"/>
		
			<linearGradient id="XMLID_5_" gradientUnits="userSpaceOnUse" x1="223.95" y1="549.2063" x2="223.95" y2="523.7063" gradientTransform="matrix(1 0 0 -1 0 1000.11)">
			<stop  offset="0" style="stop-color:#8FC044"/>
			<stop  offset="0.1447" style="stop-color:#89BF45"/>
			<stop  offset="0.3381" style="stop-color:#7ABA48"/>
			<stop  offset="0.559" style="stop-color:#59B24B"/>
			<stop  offset="0.7984" style="stop-color:#25A94F"/>
			<stop  offset="1" style="stop-color:#08A651"/>
		</linearGradient>
		<path id="XMLID_192_" class="st3" d="M209.7,476.4c0,0,3.3-18.3,9.9-21.3s18.6-4.3,18.6-4.3s-17.6,5.5-21.3,10.4
			C213.5,465.9,209.7,476.4,209.7,476.4z"/>
	</g>
</g>
<g id="Calque_9_-_copie">
	<g id="圖層_10_拷貝_3_8_">
		
			<linearGradient id="XMLID_6_" gradientUnits="userSpaceOnUse" x1="388.4217" y1="789.71" x2="388.4217" y2="745.81" gradientTransform="matrix(1 0 0 -1 0 1000.11)">
			<stop  offset="0" style="stop-color:#8FC044"/>
			<stop  offset="0.1447" style="stop-color:#89BF45"/>
			<stop  offset="0.3381" style="stop-color:#7ABA48"/>
			<stop  offset="0.559" style="stop-color:#59B24B"/>
			<stop  offset="0.7984" style="stop-color:#25A94F"/>
			<stop  offset="1" style="stop-color:#08A651"/>
		</linearGradient>
		<path id="XMLID_80_" class="st4" d="M381.5,210.4c2.9,2,7.8,6,11,12.8c6.9,14.7-0.8,29.3-1.8,31.1c0.7-5.1,1.1-12.6-0.6-21.4
			C388.2,222.8,384.4,215.1,381.5,210.4z"/>
		
			<linearGradient id="XMLID_7_" gradientUnits="userSpaceOnUse" x1="401.0641" y1="800.61" x2="401.0641" y2="745.81" gradientTransform="matrix(1 0 0 -1 0 1000.11)">
			<stop  offset="0" style="stop-color:#8FC044"/>
			<stop  offset="0.1447" style="stop-color:#89BF45"/>
			<stop  offset="0.3381" style="stop-color:#7ABA48"/>
			<stop  offset="0.559" style="stop-color:#59B24B"/>
			<stop  offset="0.7984" style="stop-color:#25A94F"/>
			<stop  offset="1" style="stop-color:#08A651"/>
		</linearGradient>
		<path id="XMLID_79_" class="st5" d="M395.3,254.3c0,0,12.3-34,2.4-54.8c8.5,6.5,10.7,28.6,8.1,35.3
			C403.2,241.5,395.3,254.3,395.3,254.3z"/>
		
			<linearGradient id="XMLID_8_" gradientUnits="userSpaceOnUse" x1="417.1" y1="777.9563" x2="417.1" y2="741.3938" gradientTransform="matrix(1 0 0 -1 0 1000.11)">
			<stop  offset="0" style="stop-color:#8FC044"/>
			<stop  offset="0.1447" style="stop-color:#89BF45"/>
			<stop  offset="0.3381" style="stop-color:#7ABA48"/>
			<stop  offset="0.559" style="stop-color:#59B24B"/>
			<stop  offset="0.7984" style="stop-color:#25A94F"/>
			<stop  offset="1" style="stop-color:#08A651"/>
		</linearGradient>
		<path id="XMLID_78_" class="st6" d="M401.6,258.7c0,0,7.6-25.9,13.1-29.8c8.3-5.9,17.9-6.8,17.9-6.8S408.9,235,401.6,258.7z"/>
		
			<linearGradient id="XMLID_9_" gradientUnits="userSpaceOnUse" x1="421.15" y1="762.7063" x2="421.15" y2="737.2063" gradientTransform="matrix(1 0 0 -1 0 1000.11)">
			<stop  offset="0" style="stop-color:#8FC044"/>
			<stop  offset="0.1447" style="stop-color:#89BF45"/>
			<stop  offset="0.3381" style="stop-color:#7ABA48"/>
			<stop  offset="0.559" style="stop-color:#59B24B"/>
			<stop  offset="0.7984" style="stop-color:#25A94F"/>
			<stop  offset="1" style="stop-color:#08A651"/>
		</linearGradient>
		<path id="XMLID_77_" class="st7" d="M406.9,262.9c0,0,3.3-18.3,9.9-21.3s18.6-4.3,18.6-4.3s-17.6,5.5-21.3,10.4
			C410.7,252.4,406.9,262.9,406.9,262.9z"/>
	</g>
</g>
<g id="Calque_9_-_copie_2">
	<g id="圖層_10_拷貝_3_12_">
		
			<linearGradient id="XMLID_10_" gradientUnits="userSpaceOnUse" x1="547.2217" y1="442.31" x2="547.2217" y2="398.41" gradientTransform="matrix(1 0 0 -1 0 1000.11)">
			<stop  offset="0" style="stop-color:#8FC044"/>
			<stop  offset="0.1447" style="stop-color:#89BF45"/>
			<stop  offset="0.3381" style="stop-color:#7ABA48"/>
			<stop  offset="0.559" style="stop-color:#59B24B"/>
			<stop  offset="0.7984" style="stop-color:#25A94F"/>
			<stop  offset="1" style="stop-color:#08A651"/>
		</linearGradient>
		<path id="XMLID_96_" class="st8" d="M540.3,557.8c2.9,2,7.8,6,11,12.8c6.9,14.7-0.8,29.3-1.8,31.1c0.7-5.1,1.1-12.6-0.6-21.4
			C547,570.2,543.2,562.5,540.3,557.8z"/>
		
			<linearGradient id="XMLID_11_" gradientUnits="userSpaceOnUse" x1="559.8641" y1="453.21" x2="559.8641" y2="398.41" gradientTransform="matrix(1 0 0 -1 0 1000.11)">
			<stop  offset="0" style="stop-color:#8FC044"/>
			<stop  offset="0.1447" style="stop-color:#89BF45"/>
			<stop  offset="0.3381" style="stop-color:#7ABA48"/>
			<stop  offset="0.559" style="stop-color:#59B24B"/>
			<stop  offset="0.7984" style="stop-color:#25A94F"/>
			<stop  offset="1" style="stop-color:#08A651"/>
		</linearGradient>
		<path id="XMLID_95_" class="st9" d="M554.1,601.7c0,0,12.3-34,2.4-54.8c8.5,6.5,10.7,28.6,8.1,35.3
			C562,588.9,554.1,601.7,554.1,601.7z"/>
		
			<linearGradient id="XMLID_12_" gradientUnits="userSpaceOnUse" x1="575.9" y1="430.5563" x2="575.9" y2="393.9938" gradientTransform="matrix(1 0 0 -1 0 1000.11)">
			<stop  offset="0" style="stop-color:#8FC044"/>
			<stop  offset="0.1447" style="stop-color:#89BF45"/>
			<stop  offset="0.3381" style="stop-color:#7ABA48"/>
			<stop  offset="0.559" style="stop-color:#59B24B"/>
			<stop  offset="0.7984" style="stop-color:#25A94F"/>
			<stop  offset="1" style="stop-color:#08A651"/>
		</linearGradient>
		<path id="XMLID_94_" class="st10" d="M560.4,606.1c0,0,7.6-25.9,13.1-29.8c8.3-5.9,17.9-6.8,17.9-6.8S567.7,582.4,560.4,606.1z"/>
		
			<linearGradient id="XMLID_13_" gradientUnits="userSpaceOnUse" x1="579.95" y1="415.3063" x2="579.95" y2="389.8063" gradientTransform="matrix(1 0 0 -1 0 1000.11)">
			<stop  offset="0" style="stop-color:#8FC044"/>
			<stop  offset="0.1447" style="stop-color:#89BF45"/>
			<stop  offset="0.3381" style="stop-color:#7ABA48"/>
			<stop  offset="0.559" style="stop-color:#59B24B"/>
			<stop  offset="0.7984" style="stop-color:#25A94F"/>
			<stop  offset="1" style="stop-color:#08A651"/>
		</linearGradient>
		<path id="XMLID_93_" class="st11" d="M565.7,610.3c0,0,3.3-18.3,9.9-21.3s18.6-4.3,18.6-4.3s-17.6,5.5-21.3,10.4
			C569.5,599.8,565.7,610.3,565.7,610.3z"/>
	</g>
</g>
<g id="Calque_9_-_copie_3">
	<g id="圖層_10_拷貝_3_16_">
		
			<linearGradient id="XMLID_14_" gradientUnits="userSpaceOnUse" x1="431.7217" y1="344.51" x2="431.7217" y2="300.61" gradientTransform="matrix(1 0 0 -1 0 1000.11)">
			<stop  offset="0" style="stop-color:#8FC044"/>
			<stop  offset="0.1447" style="stop-color:#89BF45"/>
			<stop  offset="0.3381" style="stop-color:#7ABA48"/>
			<stop  offset="0.559" style="stop-color:#59B24B"/>
			<stop  offset="0.7984" style="stop-color:#25A94F"/>
			<stop  offset="1" style="stop-color:#08A651"/>
		</linearGradient>
		<path id="XMLID_112_" class="st12" d="M424.8,655.6c2.9,2,7.8,6,11,12.8c6.9,14.7-0.8,29.3-1.8,31.1c0.7-5.1,1.1-12.6-0.6-21.4
			C431.5,668,427.7,660.3,424.8,655.6z"/>
		
			<linearGradient id="XMLID_15_" gradientUnits="userSpaceOnUse" x1="444.3641" y1="355.41" x2="444.3641" y2="300.61" gradientTransform="matrix(1 0 0 -1 0 1000.11)">
			<stop  offset="0" style="stop-color:#8FC044"/>
			<stop  offset="0.1447" style="stop-color:#89BF45"/>
			<stop  offset="0.3381" style="stop-color:#7ABA48"/>
			<stop  offset="0.559" style="stop-color:#59B24B"/>
			<stop  offset="0.7984" style="stop-color:#25A94F"/>
			<stop  offset="1" style="stop-color:#08A651"/>
		</linearGradient>
		<path id="XMLID_111_" class="st13" d="M438.6,699.5c0,0,12.3-34,2.4-54.8c8.5,6.5,10.7,28.6,8.1,35.3
			C446.5,686.7,438.6,699.5,438.6,699.5z"/>
		
			<linearGradient id="XMLID_16_" gradientUnits="userSpaceOnUse" x1="460.4" y1="332.7563" x2="460.4" y2="296.1938" gradientTransform="matrix(1 0 0 -1 0 1000.11)">
			<stop  offset="0" style="stop-color:#8FC044"/>
			<stop  offset="0.1447" style="stop-color:#89BF45"/>
			<stop  offset="0.3381" style="stop-color:#7ABA48"/>
			<stop  offset="0.559" style="stop-color:#59B24B"/>
			<stop  offset="0.7984" style="stop-color:#25A94F"/>
			<stop  offset="1" style="stop-color:#08A651"/>
		</linearGradient>
		<path id="XMLID_110_" class="st14" d="M444.9,703.9c0,0,7.6-25.9,13.1-29.8c8.3-5.9,17.9-6.8,17.9-6.8S452.2,680.2,444.9,703.9z"
			/>
		
			<linearGradient id="XMLID_17_" gradientUnits="userSpaceOnUse" x1="464.45" y1="317.5063" x2="464.45" y2="292.0063" gradientTransform="matrix(1 0 0 -1 0 1000.11)">
			<stop  offset="0" style="stop-color:#8FC044"/>
			<stop  offset="0.1447" style="stop-color:#89BF45"/>
			<stop  offset="0.3381" style="stop-color:#7ABA48"/>
			<stop  offset="0.559" style="stop-color:#59B24B"/>
			<stop  offset="0.7984" style="stop-color:#25A94F"/>
			<stop  offset="1" style="stop-color:#08A651"/>
		</linearGradient>
		<path id="XMLID_109_" class="st15" d="M450.2,708.1c0,0,3.3-18.3,9.9-21.3s18.6-4.3,18.6-4.3s-17.6,5.5-21.3,10.4
			C454,697.6,450.2,708.1,450.2,708.1z"/>
	</g>
</g>
<g id="Calque_9_-_copie_4">
	<g id="圖層_10_拷貝_3_20_">
		
			<linearGradient id="XMLID_18_" gradientUnits="userSpaceOnUse" x1="754.1217" y1="312.81" x2="754.1217" y2="268.91" gradientTransform="matrix(1 0 0 -1 0 1000.11)">
			<stop  offset="0" style="stop-color:#8FC044"/>
			<stop  offset="0.1447" style="stop-color:#89BF45"/>
			<stop  offset="0.3381" style="stop-color:#7ABA48"/>
			<stop  offset="0.559" style="stop-color:#59B24B"/>
			<stop  offset="0.7984" style="stop-color:#25A94F"/>
			<stop  offset="1" style="stop-color:#08A651"/>
		</linearGradient>
		<path id="XMLID_128_" class="st16" d="M747.2,687.3c2.9,2,7.8,6,11,12.8c6.9,14.7-0.8,29.3-1.8,31.1c0.7-5.1,1.1-12.6-0.6-21.4
			C753.9,699.7,750.1,692,747.2,687.3z"/>
		
			<linearGradient id="XMLID_19_" gradientUnits="userSpaceOnUse" x1="766.7641" y1="323.71" x2="766.7641" y2="268.91" gradientTransform="matrix(1 0 0 -1 0 1000.11)">
			<stop  offset="0" style="stop-color:#8FC044"/>
			<stop  offset="0.1447" style="stop-color:#89BF45"/>
			<stop  offset="0.3381" style="stop-color:#7ABA48"/>
			<stop  offset="0.559" style="stop-color:#59B24B"/>
			<stop  offset="0.7984" style="stop-color:#25A94F"/>
			<stop  offset="1" style="stop-color:#08A651"/>
		</linearGradient>
		<path id="XMLID_127_" class="st17" d="M761,731.2c0,0,12.3-34,2.4-54.8c8.5,6.5,10.7,28.6,8.1,35.3
			C768.9,718.4,761,731.2,761,731.2z"/>
		
			<linearGradient id="XMLID_20_" gradientUnits="userSpaceOnUse" x1="782.8" y1="301.0563" x2="782.8" y2="264.4938" gradientTransform="matrix(1 0 0 -1 0 1000.11)">
			<stop  offset="0" style="stop-color:#8FC044"/>
			<stop  offset="0.1447" style="stop-color:#89BF45"/>
			<stop  offset="0.3381" style="stop-color:#7ABA48"/>
			<stop  offset="0.559" style="stop-color:#59B24B"/>
			<stop  offset="0.7984" style="stop-color:#25A94F"/>
			<stop  offset="1" style="stop-color:#08A651"/>
		</linearGradient>
		<path id="XMLID_126_" class="st18" d="M767.3,735.6c0,0,7.6-25.9,13.1-29.8c8.3-5.9,17.9-6.8,17.9-6.8S774.6,711.9,767.3,735.6z"
			/>
		
			<linearGradient id="XMLID_21_" gradientUnits="userSpaceOnUse" x1="786.85" y1="285.8063" x2="786.85" y2="260.3063" gradientTransform="matrix(1 0 0 -1 0 1000.11)">
			<stop  offset="0" style="stop-color:#8FC044"/>
			<stop  offset="0.1447" style="stop-color:#89BF45"/>
			<stop  offset="0.3381" style="stop-color:#7ABA48"/>
			<stop  offset="0.559" style="stop-color:#59B24B"/>
			<stop  offset="0.7984" style="stop-color:#25A94F"/>
			<stop  offset="1" style="stop-color:#08A651"/>
		</linearGradient>
		<path id="XMLID_125_" class="st19" d="M772.6,739.8c0,0,3.3-18.3,9.9-21.3s18.6-4.3,18.6-4.3s-17.6,5.5-21.3,10.4
			C776.4,729.3,772.6,739.8,772.6,739.8z"/>
	</g>
</g>
</svg>
