<?xml version="1.0" encoding="utf-8"?>
<!-- Generator: Adobe Illustrator 19.0.0, SVG Export Plug-In . SVG Version: 6.00 Build 0)  -->
<svg version="1.1" xmlns="http://www.w3.org/2000/svg" xmlns:xlink="http://www.w3.org/1999/xlink" x="0px" y="0px" width="1000px" height="1000px"
	 viewBox="0 0 1000 1000" style="enable-background:new 0 0 1000 1000;" xml:space="preserve">
<style type="text/css">
	.st0{fill:url(#XMLID_4_);}
	.st1{fill:url(#XMLID_20_);}
	.st2{display:none;}
	.st3{display:inline;fill:url(#XMLID_21_);}
	.st4{display:inline;fill:url(#XMLID_22_);}
	.st5{display:inline;fill:url(#XMLID_23_);}
	.st6{display:inline;fill:url(#XMLID_24_);}
	.st7{display:inline;fill:url(#XMLID_25_);}
	.st8{display:inline;fill:url(#XMLID_52_);}
	.st9{display:inline;fill:url(#XMLID_57_);}
	.st10{display:inline;fill:url(#XMLID_77_);}
	.st11{display:inline;fill:url(#XMLID_79_);}
	.st12{display:inline;fill:url(#XMLID_80_);}
	.st13{display:inline;fill:url(#XMLID_82_);}
	.st14{display:inline;fill:url(#XMLID_83_);}
	.st15{display:inline;fill:url(#XMLID_85_);}
	.st16{display:inline;fill:url(#XMLID_86_);}
	.st17{display:inline;fill:url(#XMLID_87_);}
	.st18{display:inline;fill:url(#XMLID_88_);}
	.st19{display:inline;fill:url(#XMLID_91_);}
	.st20{display:inline;fill:url(#XMLID_92_);}
	.st21{display:inline;fill:url(#XMLID_93_);}
	.st22{display:inline;fill:url(#XMLID_94_);}
	.st23{display:inline;}
	.st24{fill:none;stroke:#343434;stroke-width:7;stroke-miterlimit:10;}
	.st25{opacity:0.36;fill:#FFFFFF;enable-background:new    ;}
	.st26{opacity:0.1;}
	.st27{opacity:0.19;}
	.st28{fill:#FFFFFF;}
	.st29{opacity:0.81;}
</style>
<g id="Calque_1">
	
		<radialGradient id="XMLID_4_" cx="501" cy="489.11" r="329.9" gradientTransform="matrix(1 0 0 -1 0 1000.11)" gradientUnits="userSpaceOnUse">
		<stop  offset="0" style="stop-color:#C4E5F1"/>
		<stop  offset="0.381" style="stop-color:#C4E5F1"/>
		<stop  offset="1" style="stop-color:#ACDDF3"/>
	</radialGradient>
	<path id="XMLID_58_" class="st0" d="M501,181.1c-182.2,0-329.9,147.7-329.9,329.9S318.8,840.9,501,840.9S830.9,693.2,830.9,511
		S683.2,181.1,501,181.1z M501,742.3c-127.8,0-231.3-103.6-231.3-231.3S373.2,279.7,501,279.7S732.3,383.2,732.3,511
		S628.8,742.3,501,742.3z"/>
	
		<radialGradient id="XMLID_20_" cx="501" cy="489.11" r="231.3" gradientTransform="matrix(1 0 0 -1 0 1000.11)" gradientUnits="userSpaceOnUse">
		<stop  offset="0.2786" style="stop-color:#70C8E0"/>
		<stop  offset="0.7748" style="stop-color:#ACDDF3"/>
		<stop  offset="1" style="stop-color:#BDE2ED"/>
	</radialGradient>
	<circle id="XMLID_54_" class="st1" cx="501" cy="511" r="231.3"/>
	<g id="圖層_10" class="st2">
		
			<linearGradient id="XMLID_21_" gradientUnits="userSpaceOnUse" x1="754.1217" y1="312.81" x2="754.1217" y2="268.91" gradientTransform="matrix(1 0 0 -1 0 1000.11)">
			<stop  offset="0" style="stop-color:#8FC044"/>
			<stop  offset="0.1447" style="stop-color:#89BF45"/>
			<stop  offset="0.3381" style="stop-color:#7ABA48"/>
			<stop  offset="0.559" style="stop-color:#59B24B"/>
			<stop  offset="0.7984" style="stop-color:#25A94F"/>
			<stop  offset="1" style="stop-color:#08A651"/>
		</linearGradient>
		<path id="XMLID_139_" class="st3" d="M747.2,687.3c2.9,2,7.8,6,11,12.8c6.9,14.7-0.8,29.3-1.8,31.1c0.7-5.1,1.1-12.6-0.6-21.4
			C753.9,699.7,750.1,692,747.2,687.3z"/>
		
			<linearGradient id="XMLID_22_" gradientUnits="userSpaceOnUse" x1="766.7641" y1="323.71" x2="766.7641" y2="268.91" gradientTransform="matrix(1 0 0 -1 0 1000.11)">
			<stop  offset="0" style="stop-color:#8FC044"/>
			<stop  offset="0.1447" style="stop-color:#89BF45"/>
			<stop  offset="0.3381" style="stop-color:#7ABA48"/>
			<stop  offset="0.559" style="stop-color:#59B24B"/>
			<stop  offset="0.7984" style="stop-color:#25A94F"/>
			<stop  offset="1" style="stop-color:#08A651"/>
		</linearGradient>
		<path id="XMLID_141_" class="st4" d="M761,731.2c0,0,12.3-34,2.4-54.8c8.5,6.5,10.7,28.6,8.1,35.3
			C768.9,718.5,761,731.2,761,731.2z"/>
		
			<linearGradient id="XMLID_23_" gradientUnits="userSpaceOnUse" x1="782.8" y1="301.0694" x2="782.8" y2="264.5069" gradientTransform="matrix(1 0 0 -1 0 1000.11)">
			<stop  offset="0" style="stop-color:#8FC044"/>
			<stop  offset="0.1447" style="stop-color:#89BF45"/>
			<stop  offset="0.3381" style="stop-color:#7ABA48"/>
			<stop  offset="0.559" style="stop-color:#59B24B"/>
			<stop  offset="0.7984" style="stop-color:#25A94F"/>
			<stop  offset="1" style="stop-color:#08A651"/>
		</linearGradient>
		<path id="XMLID_142_" class="st5" d="M767.3,735.6c0,0,7.6-25.9,13.1-29.8c8.3-5.9,17.9-6.8,17.9-6.8S774.6,711.9,767.3,735.6z"/>
		
			<linearGradient id="XMLID_24_" gradientUnits="userSpaceOnUse" x1="786.85" y1="285.8194" x2="786.85" y2="260.3194" gradientTransform="matrix(1 0 0 -1 0 1000.11)">
			<stop  offset="0" style="stop-color:#8FC044"/>
			<stop  offset="0.1447" style="stop-color:#89BF45"/>
			<stop  offset="0.3381" style="stop-color:#7ABA48"/>
			<stop  offset="0.559" style="stop-color:#59B24B"/>
			<stop  offset="0.7984" style="stop-color:#25A94F"/>
			<stop  offset="1" style="stop-color:#08A651"/>
		</linearGradient>
		<path id="XMLID_140_" class="st6" d="M772.6,739.8c0,0,3.3-18.3,9.9-21.3s18.6-4.3,18.6-4.3s-17.6,5.5-21.3,10.4
			C776.4,729.3,772.6,739.8,772.6,739.8z"/>
	</g>
	<g id="圖層_10_拷貝" class="st2">
		
			<linearGradient id="XMLID_25_" gradientUnits="userSpaceOnUse" x1="547.2217" y1="442.21" x2="547.2217" y2="398.31" gradientTransform="matrix(1 0 0 -1 0 1000.11)">
			<stop  offset="0" style="stop-color:#8FC044"/>
			<stop  offset="0.1447" style="stop-color:#89BF45"/>
			<stop  offset="0.3381" style="stop-color:#7ABA48"/>
			<stop  offset="0.559" style="stop-color:#59B24B"/>
			<stop  offset="0.7984" style="stop-color:#25A94F"/>
			<stop  offset="1" style="stop-color:#08A651"/>
		</linearGradient>
		<path id="XMLID_146_" class="st7" d="M540.3,557.9c2.9,2,7.8,6,11,12.8c6.9,14.7-0.8,29.3-1.8,31.1c0.7-5.1,1.1-12.6-0.6-21.4
			C547,570.2,543.2,562.6,540.3,557.9z"/>
		
			<linearGradient id="XMLID_52_" gradientUnits="userSpaceOnUse" x1="559.8641" y1="453.1438" x2="559.8641" y2="398.3438" gradientTransform="matrix(1 0 0 -1 0 1000.11)">
			<stop  offset="0" style="stop-color:#8FC044"/>
			<stop  offset="0.1447" style="stop-color:#89BF45"/>
			<stop  offset="0.3381" style="stop-color:#7ABA48"/>
			<stop  offset="0.559" style="stop-color:#59B24B"/>
			<stop  offset="0.7984" style="stop-color:#25A94F"/>
			<stop  offset="1" style="stop-color:#08A651"/>
		</linearGradient>
		<path id="XMLID_145_" class="st8" d="M554.1,601.7c0,0,12.3-34,2.4-54.8c8.5,6.5,10.7,28.6,8.1,35.3
			C562,589.1,554.1,601.7,554.1,601.7z"/>
		
			<linearGradient id="XMLID_57_" gradientUnits="userSpaceOnUse" x1="575.9" y1="430.5099" x2="575.9001" y2="393.9474" gradientTransform="matrix(1 0 0 -1 0 1000.11)">
			<stop  offset="0" style="stop-color:#8FC044"/>
			<stop  offset="0.1447" style="stop-color:#89BF45"/>
			<stop  offset="0.3381" style="stop-color:#7ABA48"/>
			<stop  offset="0.559" style="stop-color:#59B24B"/>
			<stop  offset="0.7984" style="stop-color:#25A94F"/>
			<stop  offset="1" style="stop-color:#08A651"/>
		</linearGradient>
		<path id="XMLID_144_" class="st9" d="M560.4,606.2c0,0,7.6-25.9,13.1-29.8c8.3-5.9,17.9-6.8,17.9-6.8S567.7,582.4,560.4,606.2z"/>
		
			<linearGradient id="XMLID_77_" gradientUnits="userSpaceOnUse" x1="579.95" y1="415.2688" x2="579.95" y2="389.7688" gradientTransform="matrix(1 0 0 -1 0 1000.11)">
			<stop  offset="0" style="stop-color:#8FC044"/>
			<stop  offset="0.1447" style="stop-color:#89BF45"/>
			<stop  offset="0.3381" style="stop-color:#7ABA48"/>
			<stop  offset="0.559" style="stop-color:#59B24B"/>
			<stop  offset="0.7984" style="stop-color:#25A94F"/>
			<stop  offset="1" style="stop-color:#08A651"/>
		</linearGradient>
		<path id="XMLID_143_" class="st10" d="M565.7,610.3c0,0,3.3-18.3,9.9-21.3s18.6-4.3,18.6-4.3s-17.6,5.5-21.3,10.4
			C569.5,599.9,565.7,610.3,565.7,610.3z"/>
	</g>
	<g id="圖層_10_拷貝_3" class="st2">
		
			<linearGradient id="XMLID_79_" gradientUnits="userSpaceOnUse" x1="191.2217" y1="576.21" x2="191.2217" y2="532.31" gradientTransform="matrix(1 0 0 -1 0 1000.11)">
			<stop  offset="0" style="stop-color:#8FC044"/>
			<stop  offset="0.1447" style="stop-color:#89BF45"/>
			<stop  offset="0.3381" style="stop-color:#7ABA48"/>
			<stop  offset="0.559" style="stop-color:#59B24B"/>
			<stop  offset="0.7984" style="stop-color:#25A94F"/>
			<stop  offset="1" style="stop-color:#08A651"/>
		</linearGradient>
		<path id="XMLID_199_" class="st11" d="M184.3,423.9c2.9,2,7.8,6,11,12.8c6.9,14.7-0.8,29.3-1.8,31.1c0.7-5.1,1.1-12.6-0.6-21.4
			C191,436.3,187.2,428.6,184.3,423.9z"/>
		
			<linearGradient id="XMLID_80_" gradientUnits="userSpaceOnUse" x1="203.8641" y1="587.11" x2="203.8641" y2="532.31" gradientTransform="matrix(1 0 0 -1 0 1000.11)">
			<stop  offset="0" style="stop-color:#8FC044"/>
			<stop  offset="0.1447" style="stop-color:#89BF45"/>
			<stop  offset="0.3381" style="stop-color:#7ABA48"/>
			<stop  offset="0.559" style="stop-color:#59B24B"/>
			<stop  offset="0.7984" style="stop-color:#25A94F"/>
			<stop  offset="1" style="stop-color:#08A651"/>
		</linearGradient>
		<path id="XMLID_198_" class="st12" d="M198.1,467.8c0,0,12.3-34,2.4-54.8c8.5,6.5,10.7,28.6,8.1,35.3S198.1,467.8,198.1,467.8z"/>
		
			<linearGradient id="XMLID_82_" gradientUnits="userSpaceOnUse" x1="219.9" y1="564.4563" x2="219.9" y2="527.8938" gradientTransform="matrix(1 0 0 -1 0 1000.11)">
			<stop  offset="0" style="stop-color:#8FC044"/>
			<stop  offset="0.1447" style="stop-color:#89BF45"/>
			<stop  offset="0.3381" style="stop-color:#7ABA48"/>
			<stop  offset="0.559" style="stop-color:#59B24B"/>
			<stop  offset="0.7984" style="stop-color:#25A94F"/>
			<stop  offset="1" style="stop-color:#08A651"/>
		</linearGradient>
		<path id="XMLID_197_" class="st13" d="M204.4,472.2c0,0,7.6-25.9,13.1-29.8c8.3-5.9,17.9-6.8,17.9-6.8S211.7,448.5,204.4,472.2z"
			/>
		
			<linearGradient id="XMLID_83_" gradientUnits="userSpaceOnUse" x1="223.95" y1="549.2063" x2="223.95" y2="523.7063" gradientTransform="matrix(1 0 0 -1 0 1000.11)">
			<stop  offset="0" style="stop-color:#8FC044"/>
			<stop  offset="0.1447" style="stop-color:#89BF45"/>
			<stop  offset="0.3381" style="stop-color:#7ABA48"/>
			<stop  offset="0.559" style="stop-color:#59B24B"/>
			<stop  offset="0.7984" style="stop-color:#25A94F"/>
			<stop  offset="1" style="stop-color:#08A651"/>
		</linearGradient>
		<path id="XMLID_192_" class="st14" d="M209.7,476.4c0,0,3.3-18.3,9.9-21.3s18.6-4.3,18.6-4.3s-17.6,5.5-21.3,10.4
			C213.5,465.9,209.7,476.4,209.7,476.4z"/>
	</g>
	<g id="圖層_10_拷貝_2" class="st2">
		
			<linearGradient id="XMLID_85_" gradientUnits="userSpaceOnUse" x1="388.4217" y1="789.61" x2="388.4217" y2="745.71" gradientTransform="matrix(1 0 0 -1 0 1000.11)">
			<stop  offset="0" style="stop-color:#8FC044"/>
			<stop  offset="0.1447" style="stop-color:#89BF45"/>
			<stop  offset="0.3381" style="stop-color:#7ABA48"/>
			<stop  offset="0.559" style="stop-color:#59B24B"/>
			<stop  offset="0.7984" style="stop-color:#25A94F"/>
			<stop  offset="1" style="stop-color:#08A651"/>
		</linearGradient>
		<path id="XMLID_191_" class="st15" d="M381.5,210.5c2.9,2,7.8,6,11,12.8c6.9,14.7-0.8,29.3-1.8,31.1c0.7-5.1,1.1-12.6-0.6-21.4
			C388.2,222.8,384.3,215.2,381.5,210.5z"/>
		
			<linearGradient id="XMLID_86_" gradientUnits="userSpaceOnUse" x1="401.0641" y1="800.5397" x2="401.0641" y2="745.7397" gradientTransform="matrix(1 0 0 -1 0 1000.11)">
			<stop  offset="0" style="stop-color:#8FC044"/>
			<stop  offset="0.1447" style="stop-color:#89BF45"/>
			<stop  offset="0.3381" style="stop-color:#7ABA48"/>
			<stop  offset="0.559" style="stop-color:#59B24B"/>
			<stop  offset="0.7984" style="stop-color:#25A94F"/>
			<stop  offset="1" style="stop-color:#08A651"/>
		</linearGradient>
		<path id="XMLID_189_" class="st16" d="M395.3,254.3c0,0,12.3-34,2.4-54.8c8.5,6.5,10.7,28.6,8.1,35.3S395.3,254.3,395.3,254.3z"/>
		
			<linearGradient id="XMLID_87_" gradientUnits="userSpaceOnUse" x1="417.1" y1="777.91" x2="417.1" y2="741.3475" gradientTransform="matrix(1 0 0 -1 0 1000.11)">
			<stop  offset="0" style="stop-color:#8FC044"/>
			<stop  offset="0.1447" style="stop-color:#89BF45"/>
			<stop  offset="0.3381" style="stop-color:#7ABA48"/>
			<stop  offset="0.559" style="stop-color:#59B24B"/>
			<stop  offset="0.7984" style="stop-color:#25A94F"/>
			<stop  offset="1" style="stop-color:#08A651"/>
		</linearGradient>
		<path id="XMLID_148_" class="st17" d="M401.6,258.8c0,0,7.6-25.9,13.1-29.8c8.3-5.9,17.9-6.8,17.9-6.8S408.8,235,401.6,258.8z"/>
		
			<linearGradient id="XMLID_88_" gradientUnits="userSpaceOnUse" x1="421.15" y1="762.6647" x2="421.15" y2="737.1647" gradientTransform="matrix(1 0 0 -1 0 1000.11)">
			<stop  offset="0" style="stop-color:#8FC044"/>
			<stop  offset="0.1447" style="stop-color:#89BF45"/>
			<stop  offset="0.3381" style="stop-color:#7ABA48"/>
			<stop  offset="0.559" style="stop-color:#59B24B"/>
			<stop  offset="0.7984" style="stop-color:#25A94F"/>
			<stop  offset="1" style="stop-color:#08A651"/>
		</linearGradient>
		<path id="XMLID_147_" class="st18" d="M406.9,262.9c0,0,3.3-18.3,9.9-21.3s18.6-4.3,18.6-4.3s-17.6,5.5-21.3,10.4
			C410.7,252.5,406.9,262.9,406.9,262.9z"/>
		
			<linearGradient id="XMLID_91_" gradientUnits="userSpaceOnUse" x1="431.7217" y1="344.51" x2="431.7217" y2="300.61" gradientTransform="matrix(1 0 0 -1 0 1000.11)">
			<stop  offset="0" style="stop-color:#8FC044"/>
			<stop  offset="0.1447" style="stop-color:#89BF45"/>
			<stop  offset="0.3381" style="stop-color:#7ABA48"/>
			<stop  offset="0.559" style="stop-color:#59B24B"/>
			<stop  offset="0.7984" style="stop-color:#25A94F"/>
			<stop  offset="1" style="stop-color:#08A651"/>
		</linearGradient>
		<path id="XMLID_196_" class="st19" d="M424.8,655.6c2.9,2,7.8,6,11,12.8c6.9,14.7-0.8,29.3-1.8,31.1c0.7-5.1,1.1-12.6-0.6-21.4
			C431.5,668,427.7,660.3,424.8,655.6z"/>
		
			<linearGradient id="XMLID_92_" gradientUnits="userSpaceOnUse" x1="444.3641" y1="355.41" x2="444.3641" y2="300.61" gradientTransform="matrix(1 0 0 -1 0 1000.11)">
			<stop  offset="0" style="stop-color:#8FC044"/>
			<stop  offset="0.1447" style="stop-color:#89BF45"/>
			<stop  offset="0.3381" style="stop-color:#7ABA48"/>
			<stop  offset="0.559" style="stop-color:#59B24B"/>
			<stop  offset="0.7984" style="stop-color:#25A94F"/>
			<stop  offset="1" style="stop-color:#08A651"/>
		</linearGradient>
		<path id="XMLID_195_" class="st20" d="M438.6,699.5c0,0,12.3-34,2.4-54.8c8.5,6.5,10.7,28.6,8.1,35.3S438.6,699.5,438.6,699.5z"/>
		
			<linearGradient id="XMLID_93_" gradientUnits="userSpaceOnUse" x1="460.4" y1="332.7569" x2="460.4" y2="296.1944" gradientTransform="matrix(1 0 0 -1 0 1000.11)">
			<stop  offset="0" style="stop-color:#8FC044"/>
			<stop  offset="0.1447" style="stop-color:#89BF45"/>
			<stop  offset="0.3381" style="stop-color:#7ABA48"/>
			<stop  offset="0.559" style="stop-color:#59B24B"/>
			<stop  offset="0.7984" style="stop-color:#25A94F"/>
			<stop  offset="1" style="stop-color:#08A651"/>
		</linearGradient>
		<path id="XMLID_194_" class="st21" d="M444.9,703.9c0,0,7.6-25.9,13.1-29.8c8.3-5.9,17.9-6.8,17.9-6.8S452.2,680.2,444.9,703.9z"
			/>
		
			<linearGradient id="XMLID_94_" gradientUnits="userSpaceOnUse" x1="464.45" y1="317.5069" x2="464.45" y2="292.0069" gradientTransform="matrix(1 0 0 -1 0 1000.11)">
			<stop  offset="0" style="stop-color:#8FC044"/>
			<stop  offset="0.1447" style="stop-color:#89BF45"/>
			<stop  offset="0.3381" style="stop-color:#7ABA48"/>
			<stop  offset="0.559" style="stop-color:#59B24B"/>
			<stop  offset="0.7984" style="stop-color:#25A94F"/>
			<stop  offset="1" style="stop-color:#08A651"/>
		</linearGradient>
		<path id="XMLID_193_" class="st22" d="M450.2,708.1c0,0,3.3-18.3,9.9-21.3s18.6-4.3,18.6-4.3s-17.6,5.5-21.3,10.4
			C454,697.6,450.2,708.1,450.2,708.1z"/>
	</g>
	<g id="圖層_1" class="st2">
		<g id="圖層_23_2_" class="st23">
			<g id="XMLID_118_">
				<path id="XMLID_10_" class="st24" d="M561.1,627.5l-120.6-0.2c-9.4,0-18.2-4.9-22.8-12.8L357.6,513c-4.7-8-4.7-17.7,0-25.7
					L418,385.9c4.8-8,13.5-12.8,22.9-12.8l120.6,0.2c9.4,0,18.2,4.9,22.8,12.8l60.2,101.4c4.7,8,4.7,17.7,0,25.7l-60.4,101.4
					C579.3,622.5,570.6,627.5,561.1,627.5z"/>
			</g>
		</g>
		<g id="圖層_23_1_" class="st23">
			<g id="XMLID_5_">
				<path id="XMLID_6_" class="st24" d="M561.1,368.8l-120.6-0.2c-9.4,0-18.2-4.9-22.8-12.8l-60.2-101.4c-4.7-8-4.7-17.7,0-25.7
					l60.4-101.4c4.8-8,13.5-12.8,22.9-12.8l120.6,0.2c9.4,0,18.2,4.9,22.8,12.8l60.2,101.4c4.7,8,4.7,17.7,0,25.7L584.1,356
					C579.3,363.8,570.6,368.8,561.1,368.8z"/>
			</g>
		</g>
		<g id="圖層_23_3_" class="st23">
			<g id="XMLID_7_">
				<path id="XMLID_8_" class="st24" d="M561.1,886.9l-120.6-0.2c-9.4,0-18.2-4.9-22.8-12.8l-60.2-101.4c-4.7-8-4.7-17.7,0-25.7
					l60.4-101.4c4.8-8,13.5-12.8,22.9-12.8l120.6,0.2c9.4,0,18.2,4.9,22.8,12.8L644.4,747c4.7,8,4.7,17.7,0,25.7L584,874.1
					C579.3,881.9,570.6,886.9,561.1,886.9z"/>
			</g>
		</g>
		<g id="圖層_23_4_" class="st23">
			<g id="XMLID_9_">
				<path id="XMLID_11_" class="st24" d="M791.7,754.7l-120.6-0.2c-9.4,0-18.2-4.9-22.8-12.8l-60.2-101.4c-4.7-8-4.7-17.7,0-25.7
					l60.4-101.4c4.8-8,13.5-12.8,22.9-12.8l120.6,0.2c9.4,0,18.2,4.9,22.8,12.8L875,614.7c4.7,8,4.7,17.7,0,25.7l-60.4,101.4
					C809.8,749.7,801.1,754.7,791.7,754.7z"/>
			</g>
		</g>
		<g id="圖層_23_5_" class="st23">
			<g id="XMLID_12_">
				<path id="XMLID_13_" class="st24" d="M791.7,500.2L671.1,500c-9.4,0-18.2-4.9-22.8-12.8l-60.2-101.4c-4.7-8-4.7-17.7,0-25.7
					l60.4-101.4c4.8-8,13.5-12.8,22.9-12.8L792,246c9.4,0,18.2,4.9,22.8,12.8L875,360.3c4.7,8,4.7,17.7,0,25.7l-60.4,101.4
					C809.8,495.3,801.1,500.2,791.7,500.2z"/>
			</g>
		</g>
		<g id="圖層_23_7_" class="st23">
			<g id="XMLID_14_">
				<path id="XMLID_17_" class="st24" d="M329.7,754.7l-120.6-0.2c-9.4,0-18.2-4.9-22.8-12.8l-60.2-101.4c-4.7-8-4.7-17.7,0-25.7
					l60.4-101.4c4.8-8,13.5-12.8,22.9-12.8l120.6,0.2c9.4,0,18.2,4.9,22.8,12.8L413,614.7c4.7,8,4.7,17.7,0,25.7l-60.4,101.4
					C347.8,749.7,339.1,754.7,329.7,754.7z"/>
			</g>
		</g>
		<g id="圖層_23_6_" class="st23">
			<g id="XMLID_18_">
				<path id="XMLID_19_" class="st24" d="M329.7,500.2L209.1,500c-9.4,0-18.2-4.9-22.8-12.8l-60.2-101.4c-4.7-8-4.7-17.7,0-25.7
					l60.4-101.4c4.8-8,13.5-12.8,22.9-12.8L330,246c9.4,0,18.2,4.9,22.8,12.8L413,360.3c4.7,8,4.7,17.7,0,25.7l-60.4,101.4
					C347.8,495.3,339.1,500.2,329.7,500.2z"/>
			</g>
		</g>
	</g>
	<g id="Calque_2">
		<g id="圖層_3">
			<circle id="XMLID_15_" class="st25" cx="309.5" cy="463.1" r="7.1"/>
			<ellipse id="XMLID_55_" class="st25" cx="327" cy="432" rx="4.4" ry="4.1"/>
			<ellipse id="XMLID_16_" class="st25" cx="285.1" cy="369.9" rx="5.3" ry="5.1"/>
			<ellipse id="XMLID_59_" class="st25" cx="291.5" cy="438.9" rx="3" ry="2.8"/>
		</g>
		<g id="圖層_3_拷貝_2">
			<circle id="XMLID_67_" class="st25" cx="346.2" cy="620" r="7.1"/>
			<ellipse id="XMLID_66_" class="st25" cx="363.8" cy="589" rx="4.4" ry="4.1"/>
			<ellipse id="XMLID_65_" class="st25" cx="321.8" cy="526.8" rx="5.3" ry="5.1"/>
			<ellipse id="XMLID_64_" class="st25" cx="328.3" cy="595.9" rx="3" ry="2.8"/>
		</g>
		<g id="圖層_3_拷貝">
			<circle id="XMLID_63_" class="st25" cx="544.2" cy="681.8" r="7.1"/>
			<ellipse id="XMLID_62_" class="st25" cx="561.7" cy="650.8" rx="4.4" ry="4.1"/>
			<ellipse id="XMLID_61_" class="st25" cx="519.8" cy="588.6" rx="5.3" ry="5.1"/>
			<ellipse id="XMLID_60_" class="st25" cx="526.2" cy="657.7" rx="3" ry="2.8"/>
		</g>
		<g id="圖層_3_拷貝_5">
			<circle id="XMLID_99_" class="st25" cx="478" cy="384.9" r="7.1"/>
			<ellipse id="XMLID_98_" class="st25" cx="495.5" cy="353.9" rx="4.4" ry="4.1"/>
			<ellipse id="XMLID_90_" class="st25" cx="453.6" cy="291.7" rx="5.3" ry="5.1"/>
			<ellipse id="XMLID_76_" class="st25" cx="460" cy="360.8" rx="3" ry="2.8"/>
		</g>
		<g id="圖層_3_拷貝_4">
			<circle id="XMLID_108_" class="st25" cx="514.7" cy="541.9" r="7.1"/>
			<ellipse id="XMLID_107_" class="st25" cx="532.2" cy="510.8" rx="4.4" ry="4.1"/>
			<ellipse id="XMLID_106_" class="st25" cx="490.3" cy="448.7" rx="5.3" ry="5.1"/>
			<ellipse id="XMLID_105_" class="st25" cx="496.7" cy="517.7" rx="3" ry="2.8"/>
		</g>
		<g id="圖層_3_拷貝_3">
			<circle id="XMLID_71_" class="st25" cx="712.7" cy="603.7" r="7.1"/>
			<ellipse id="XMLID_70_" class="st25" cx="730.2" cy="572.6" rx="4.4" ry="4.1"/>
			<ellipse id="XMLID_69_" class="st25" cx="688.3" cy="510.5" rx="5.3" ry="5.1"/>
			<ellipse id="XMLID_68_" class="st25" cx="694.7" cy="579.6" rx="3" ry="2.8"/>
		</g>
		<g id="圖層_3_拷貝_8">
			<circle id="XMLID_111_" class="st25" cx="441.3" cy="513.6" r="7.1"/>
			
				<ellipse id="XMLID_110_" transform="matrix(-0.9962 8.753471e-002 -8.753471e-002 -0.9962 859.8281 960.0722)" class="st25" cx="408.9" cy="498.9" rx="4.1" ry="4.4"/>
			
				<ellipse id="XMLID_109_" transform="matrix(-0.9962 8.753471e-002 -8.753471e-002 -0.9962 747.615 1059.3252)" class="st25" cx="350.6" cy="546.1" rx="5.1" ry="5.3"/>
			
				<ellipse id="XMLID_104_" transform="matrix(-0.9962 8.753471e-002 -8.753471e-002 -0.9962 882.7294 1028.5986)" class="st25" cx="418.8" cy="533.7" rx="2.8" ry="3"/>
		</g>
		<g id="圖層_3_拷貝_7">
			<circle id="XMLID_120_" class="st25" cx="594.4" cy="463.3" r="7.1"/>
			
				<ellipse id="XMLID_119_" transform="matrix(-0.9962 8.753471e-002 -8.753471e-002 -0.9962 1160.9536 846.2022)" class="st25" cx="561.9" cy="448.6" rx="4.1" ry="4.4"/>
			
				<ellipse id="XMLID_117_" transform="matrix(-0.9962 8.753471e-002 -8.753471e-002 -0.9962 1048.9386 945.4293)" class="st25" cx="503.7" cy="495.7" rx="5.1" ry="5.3"/>
			
				<ellipse id="XMLID_116_" transform="matrix(-0.9962 8.753471e-002 -8.753471e-002 -0.9962 1184.053 914.7026)" class="st25" cx="572" cy="483.3" rx="2.8" ry="3"/>
		</g>
		<g id="圖層_3_拷貝_6">
			<circle id="XMLID_75_" class="st25" cx="638.6" cy="260.7" r="7.1"/>
			
				<ellipse id="XMLID_74_" transform="matrix(-0.9962 8.753471e-002 -8.753471e-002 -0.9962 1231.5151 437.7786)" class="st25" cx="606.2" cy="245.9" rx="4.1" ry="4.4"/>
			
				<ellipse id="XMLID_73_" transform="matrix(-0.9962 8.753471e-002 -8.753471e-002 -0.9962 1119.5264 537.2037)" class="st25" cx="548" cy="293.1" rx="5.1" ry="5.3"/>
			
				<ellipse id="XMLID_72_" transform="matrix(-0.9962 8.753471e-002 -8.753471e-002 -0.9962 1254.6145 506.279)" class="st25" cx="616.2" cy="280.6" rx="2.8" ry="3"/>
		</g>
	</g>
	<g id="Calque_3_-_copie">
		<g id="XMLID_36_" class="st26">
			
				<image style="overflow:visible;" width="897" height="1138" id="XMLID_137_" xlink:href="21E0A27D.png"  transform="matrix(0.24 0 0 0.24 324.2594 264.0579)">
			</image>
		</g>
		<g id="XMLID_35_" class="st26">
			
				<image style="overflow:visible;" width="1045" height="1001" id="XMLID_135_" xlink:href="21E0A27F.png"  transform="matrix(0.24 0 0 0.24 478.1547 263.3575)">
			</image>
		</g>
		<g id="XMLID_34_" class="st26">
			
				<image style="overflow:visible;" width="1312" height="1173" id="XMLID_131_" xlink:href="21E0A27A.png"  transform="matrix(0.24 0 0 0.24 489.8635 299.248)">
			</image>
		</g>
		<g id="XMLID_33_" class="st26">
			
				<image style="overflow:visible;" width="869" height="1317" id="XMLID_129_" xlink:href="21E0A27B.png"  transform="matrix(0.24 0 0 0.24 235.0598 286.07)">
			</image>
		</g>
		<g id="XMLID_32_" class="st26">
			
				<image style="overflow:visible;" width="1202" height="1190" id="XMLID_127_" xlink:href="21E0A285.png"  transform="matrix(0.24 0 0 0.24 212.6553 455.8749)">
			</image>
		</g>
		<g id="XMLID_31_" class="st26">
			
				<image style="overflow:visible;" width="1007" height="1287" id="XMLID_123_" xlink:href="21E0A287.png"  transform="matrix(0.24 0 0 0.24 353.4755 487.8739)">
			</image>
		</g>
		<g id="XMLID_30_" class="st26">
			
				<image style="overflow:visible;" width="1138" height="917" id="XMLID_121_" xlink:href="21E0A28A.png"  transform="matrix(0.24 0 0 0.24 504.4167 466.9235)">
			</image>
		</g>
		<g id="XMLID_28_" class="st26">
			
				<image style="overflow:visible;" width="1216" height="907" id="XMLID_114_" xlink:href="21E0A28B.png"  transform="matrix(0.24 0 0 0.24 438.7381 576.2932)">
			</image>
		</g>
	</g>
	<g id="Calque_3_-_copie_2">
		<g id="XMLID_89_" class="st27">
			<path id="XMLID_53_" class="st28" d="M499.2,499.9c-11.5,6-11.1-10.1-22.3-16.6c-11.2-6.6-13.2-3.1-24.5-9.7
				c-11.2-6.6-9.2-10-20.4-16.6c-11.2-6.6-19.4,1.1-25.2-10.5c-4.4-8.8,7-9.5,10.2-18.8c3.3-9.3-0.5-10.6,2.8-19.9
				c3.3-9.3,7.1-7.9,10.3-17.2c3.3-9.3,5.8-9.2,2.8-18.6c-3.7-11.6-5.6-10.3-14.5-18.6c-8.9-8.3-11.6-5.3-20.5-13.6
				c-8.9-8.3-6.2-11.2-15-19.5c-8.9-8.3-29.4-8.3-20.5-16.5c11.8-11,17.2,5.1,33.2,6.7c16,1.6,16.4-2.3,32.4-0.7
				c16,1.6,15.6,5.6,31.6,7.3c16,1.6,21.2-10.6,33.5-0.2c8.5,7.1-4.3,12.4-5.2,23.4c-1,11,3,11.4,2,22.4c-1,11-5,10.7-5.9,21.7
				c-1,11,1.6,11.1,2,22.1c0.4,11.6-2.2,11.8-0.4,23.3c1.8,11.4,5.7,10.8,7.5,22.3c1.8,11.4-4.9,13.4-0.3,24
				C498.5,488.9,509.5,494.5,499.2,499.9z"/>
		</g>
		<g id="XMLID_84_" class="st27">
			<path id="XMLID_50_" class="st28" d="M519.7,465c-9.4-6.6,2.7-13.2,2.2-24.7c-0.5-11.5-4.5-11.3-5-22.8
				c-0.5-11.5,3.5-11.7,3-23.1c-0.5-11.5-8.4-12.6-4.9-23.5c3.4-10.6,10.5-6.8,17.5-15.4c7-8.6,3.9-11.2,10.9-19.8
				c7-8.6,10.1-6.1,17.1-14.8s1.2-17.2,11.9-20.5c14.1-4.3,14.9,5.9,29.6,7.9c14.6,2,15.2-1.9,29.8,0.1c14.6,2,14.1,6,28.7,8
				s20.6-9.9,30.9,0.7c6.4,6.5-10.1,4.9-17.7,10c-7.6,5.1-5.3,8.5-12.9,13.6c-7.6,5.2-9.8,1.8-17.4,7c-7.6,5.2-7.5,5.2-12.3,13
				c-5.4,8.8-5.4,8.7-7.2,18.9c-1.8,10.1,2.2,10.8,0.4,20.9c-1.8,10.1-5.7,9.4-7.5,19.6c-1.8,10.1,7.2,14.9-0.2,22
				c-8.8,8.4-13.7-0.6-25.5,2.3c-11.8,2.8-10.9,6.7-22.7,9.6c-11.8,2.8-14.2-3.6-25,2C531.2,462.3,529.6,472,519.7,465z"/>
		</g>
		<g id="XMLID_81_" class="st27">
			<path id="XMLID_47_" class="st28" d="M532.2,483.5c12.9-6.1,15.3,0.7,29.2-2.4c14-3.1,13.1-7,27.1-10.1c14-3.1,14.8,0.8,28.8-2.3
				c14-3.1,15.8,0.3,26.1-9.6c8.1-7.7,4.3-9.5,5.2-20.7c0.9-11.1-3.1-11.5-2.2-22.6c0.9-11.1,4.9-10.8,5.8-22
				c0.9-11.1-7.7-13.9-1.9-23.5c4.8-8,11-1.4,19.4-5.6c8.4-4.2,6.6-7.8,14.9-12c8.4-4.2,10.2-0.7,18.6-4.9
				c8.4-4.2,7.7-15.2,16.5-12.1c10.4,3.6,3.6,12.2,9.6,21.4c6,9.2,9.3,7.1,15.3,16.3c6,9.2,2.6,11.4,8.6,20.6
				c6,9.2,17.4,6.8,15.6,17.7c-1.9,11.7-12.1,6.1-20.9,14c-8.8,7.9-6.1,10.9-14.9,18.8c-8.8,7.9-11.5,4.9-20.3,12.8
				c-8.8,7.9-5.6,11.8-15,18.9c-12.3,9.3-15.2,5.2-28.1,13.7c-12.9,8.5-10.7,11.8-23.6,20.3c-12.9,8.5-15.1,5.1-28,13.6
				c-12.9,8.5-9.2,16.9-24.2,20.6c-8.5,2.1-7.9-7.1-16-10.3c-8.2-3.3-9.6,0.4-17.8-2.8c-8.2-3.3-6.7-7-14.8-10.3s-12.1,2.8-18.4-3.2
				c-2.8-2.7,4-5,4.6-8.8c0.6-3.9-3.3-4.5-2.7-8.4c0.6-3.9,5.7-3.7,5.2-7.6C533.1,487.6,528.6,485.2,532.2,483.5z"/>
		</g>
		<g id="XMLID_78_" class="st27">
			<path id="XMLID_45_" class="st28" d="M344.5,322.1c-11.6-0.6-10.1,3.9-19,11.4c-8.9,7.4-6.4,10.5-15.3,18
				c-8.9,7.4-11.5,4.4-20.4,11.8c-8.9,7.4-10.1,6.6-14.7,17.2c-5.2,12.1-3.8,12.3-3.8,25.5c0,13.1,4,13.1,4,26.3
				c0,13.1-4,13.1-4,26.3c0,13.1,0.6,13.1,3.9,25.8c3.1,11.7,2.5,11.9,8.7,22.3c6.2,10.4,9.6,8.3,15.8,18.7
				c6.2,10.4,2.8,12.4,8.9,22.8c6.2,10.4,2.4,16.2,14.3,17.7c13.4,1.7,11.7-4.6,22.4-12.9c10.7-8.2,8.3-11.4,19-19.6
				c10.7-8.2,13.2-5,23.9-13.3c10.7-8.2,13.4-6.2,18.4-18.8c2.7-6.9-2.4-5.6-8-10.4c-5.6-4.8-8.2-1.8-13.8-6.6
				c-5.6-4.8-3-7.9-8.6-12.7c-5.6-4.8-14.5-0.7-14.5-8.1c0-11.1,9.3-8.6,14.9-18.2c5.6-9.6,2.1-11.6,7.7-21.2
				c5.6-9.6,9.1-7.6,14.6-17.2s9-8.9,7.5-20c-1.5-11.4-4.6-9.9-12.6-18.2c-8-8.3-10.9-5.5-18.9-13.8c-8-8.3-6.5-9.5-12.9-19.1
				C355.9,326,356,322.7,344.5,322.1z"/>
		</g>
		<g id="XMLID_56_" class="st27">
			<path id="XMLID_43_" class="st28" d="M431.4,493.6c-14.2,9.1-14,9.2-25.5,21.5c-11.5,12.3-8.6,15-20,27.3
				c-11.5,12.3-14.4,9.6-25.9,21.8c-11.5,12.3-4.9,22.5-20.9,27.8c-10.3,3.5-9.2-8.9-18.8-14.1c-9.5-5.2-11.5-1.7-21-6.9
				c-9.5-5.2-7.6-8.7-17.2-13.9c-9.5-5.2-9-8.7-19.7-6.7c-7.3,1.3-4,4.8-5.7,12.1c-1.7,7.3,2.2,8.2,0.5,15.4
				c-1.7,7.3-5.6,6.4-7.3,13.6c-1.7,7.3-2.2,7.3,0.4,14.3c5.6,14.6,5.8,14.5,15,27.1c9.3,12.6,12.5,10.2,21.7,22.8
				c9.3,12.6,6,15,15.3,27.5s4.5,22.2,20.1,22c19-0.3,15.4-9.4,29.4-22.3c14-12.9,11.3-15.8,25.3-28.7c14-12.9,16.7-10,30.7-22.9
				c14-12.9,13.9-13,25.1-28.4c7.4-10.3,7.5-10.2,11.5-22.2c4-12,0.2-13.3,4.2-25.3c4-12,7.8-10.7,11.8-22.8c4-12,4.6-11.9,4.1-24.6
				c-0.2-5-1.8-3.9-6.3-5.9c-4.6-2-6.2,1.6-10.7-0.4c-4.6-2-3.1-4.6-7.2-7.5C436.8,491.6,435.6,490.9,431.4,493.6z"/>
		</g>
		<g id="XMLID_51_" class="st27">
			<path id="XMLID_41_" class="st28" d="M493.1,526.6c-9.5,6.7-6.2,9.1-9.4,20.3c-3.1,11.2,0.7,12.3-2.4,23.5
				c-3.1,11.2-7,10.2-10.1,21.4c-3.1,11.2,3.3,14-2.6,24c-7.4,12.4-13,8.2-22.8,18.7c-9.8,10.6-6.9,13.3-16.7,23.8
				c-9.8,10.6-12.8,7.8-22.6,18.4c-9.8,10.6-12.7,9-16.3,23c-2.3,9,1.5,8.4,6.6,16.2c5.1,7.8,8.5,5.6,13.6,13.4
				c5.1,7.8,1.8,10,6.9,17.8c5.1,7.8,4.2,8.8,12.7,12.6c5.5,2.5,5.4,0.3,10.5-2.9c5.1-3.2,3-6.6,8.1-9.8c5.1-3.2,7.2,0.2,12.4-3
				c5.1-3.2,5.6-2.8,7.3-8.6c1.7-6.1,1.1-6-1.6-11.8c-2.6-5.7-6.3-4-8.9-9.8c-2.7-5.7,1-7.4-1.7-13.1c-2.7-5.7-11.3-5.4-9-11.3
				c4-10.3,11.1-5.6,19-13.4c7.9-7.8,5-10.6,12.9-18.4c7.9-7.8,10.7-4.9,18.5-12.7c7.9-7.8,5.9-9.5,12.7-18.2
				c7.2-9.1,9.4-7.6,15.4-17.6c6.1-9.9,2.7-12,8.7-21.9c6.1-9.9,9.5-7.8,15.6-17.8c6.1-9.9,10.7-9.1,8.5-20.5
				c-1.7-8.9-6-5.2-14.5-8.1c-8.6-2.9-9.9,0.8-18.4-2.1c-8.6-2.9-7.7-4.8-15.5-9.5C502.3,524.5,500.5,521.4,493.1,526.6z"/>
		</g>
		<g id="XMLID_48_" class="st27">
			<path id="XMLID_39_" class="st28" d="M540.4,615.3c0.5-8.4,8.2-5.9,12.8-13.1c4.6-7.1,1.2-9.3,5.7-16.4c4.6-7.1,7.9-5,12.5-12.1
				c4.6-7.1-0.6-12,6.3-17c3.7-2.6,5.4,4.3,9.8,4.9c4.5,0.7,5.1-3.3,9.5-2.6c4.5,0.7,3.9,4.6,8.4,5.3c4.5,0.7,4.3-0.7,8.5-2.5
				c12-5.2,12.8-3.8,23.6-11.2c10.8-7.3,8.6-10.6,19.5-18c10.9-7.3,13.1-4,23.9-11.3c10.9-7.3,7.3-16.1,20.2-18.3
				c6.5-1.1,3.6,8,8.3,12.7c4.7,4.6,7.5,1.8,12.2,6.5c4.7,4.6,1.9,7.5,6.6,12.1s15.8,3.1,12.5,8.9c-6.7,11.7-14.3,4.5-25.7,11.7
				c-11.5,7.2-9.4,10.6-20.8,17.7c-11.5,7.2-13.6,3.8-25.1,11c-11.5,7.2-8.5,13.3-21.2,17.9c-5.6,2-6.2-4.8-12-5.7
				c-5.8-0.9-6.5,3-12.3,2.1c-5.8-0.9-5.2-4.9-11-5.8c-5.8-0.9-6-1.5-10.9,1.7c-6.5,4.4-6.3,4.6-9.6,11.7c-3.4,7.1,0.3,8.8-3.1,15.9
				c-3.4,7.1-7,5.4-10.3,12.5c-3.4,7.1,3.1,14-4.2,16.9c-5.3,2.1-3.2-7.4-7.1-11.6c-3.9-4.2-6.8-1.4-10.7-5.6
				c-3.9-4.2-0.4-8.4-5.3-11.4C545.4,618.4,540.1,621,540.4,615.3z"/>
		</g>
		<g id="XMLID_38_" class="st27">
			<path id="XMLID_29_" class="st28" d="M517.1,650.8c-6.8,0.6-6.9,0.6-12.3,4.8c-5.5,4.2-3,7.4-8.5,11.5c-5.5,4.2-7.9,1-13.4,5.2
				c-5.5,4.2-6.9,3.4-7.7,10.2c-1.2,10-0.1,9.9,3.7,19.3c3.8,9.4,7.5,7.9,11.3,17.3c3.8,9.4,0.1,10.9,3.9,20.3
				c3.8,9.4,1,12.1,10.2,16.2c10.5,4.7,10.9,1.1,22.1-1.6c11.2-2.7,10.3-6.6,21.5-9.2c11.2-2.7,12.1,1.2,23.3-1.5
				c11.2-2.7,10.8-3.7,21-9.1c14.4-7.5,15-6.5,27.9-16.4c12.9-9.9,10.4-13.1,23.3-23c12.9-9.9,15.3-6.7,28.2-16.6
				c12.9-9.9,19.7-5.7,22.6-21.7c2-11.5-7.2-7.1-17.3-12.9c-10.1-5.7-12.1-2.3-22.2-8c-10.1-5.8-8.1-9.2-18.3-15
				c-10.1-5.8-9.4-9.3-21-7.8c-8.9,1.2-6.5,4.7-11,12.5c-4.5,7.7-1,9.7-5.5,17.5c-4.5,7.7-8,5.7-12.4,13.4
				c-4.5,7.7,1.8,15.1-6.5,18.3c-7.8,3-7.8-6.7-15.6-9.7c-7.8-3-9.2,0.8-17-2.2c-7.8-3-6.5-6.1-14-9.6
				C526.1,649.5,525.5,650,517.1,650.8z"/>
		</g>
	</g>
</g>
<g id="圖層_1_1_">
	<g id="XMLID_101_" class="st29">
		
			<image style="overflow:visible;" width="148" height="67" id="XMLID_133_" xlink:href="21E0A28D.png"  transform="matrix(0.24 0 0 0.24 561.7511 365.3502)">
		</image>
		<g id="XMLID_126_">
			<path id="XMLID_132_" class="st28" d="M591.2,374.6c-8.5-0.2-15.5-1.2-23.5-3.2c6,5,13,3,20.1,3.9L591.2,374.6z"/>
		</g>
	</g>
</g>
</svg>
