<?xml version="1.0" encoding="utf-8"?>
<!-- Generator: Adobe Illustrator 19.0.0, SVG Export Plug-In . SVG Version: 6.00 Build 0)  -->
<svg version="1.0" id="圖層_1" xmlns="http://www.w3.org/2000/svg" xmlns:xlink="http://www.w3.org/1999/xlink" x="0px" y="0px" width="300px" height="260px"
	 viewBox="0 0 300 260" style="enable-background:new 0 0 300 260;" xml:space="preserve">
<style type="text/css">
	.st0{display:none;fill:#FECE63;stroke:#000000;stroke-miterlimit:10;}
	.st1{display:none;}
	.st2{display:inline;}
	.st3{fill:none;stroke:#333333;stroke-width:7;stroke-miterlimit:10;}
	.st4{fill:#A56D67;}
	.st5{opacity:0.52;fill:#825656;}
	.st6{opacity:0.47;fill:#FFFFFF;}
	.st7{fill:url(#XMLID_2_);}
	.st8{fill:none;stroke:#441817;stroke-width:2;stroke-miterlimit:10;}
	.st9{opacity:0.79;fill:none;stroke:#441817;stroke-width:0.5;stroke-miterlimit:10;}
	.st10{opacity:0.18;fill:#FFFFFF;enable-background:new    ;}
	.st11{opacity:0.36;fill:#773919;}
</style>
<rect id="background" x="1.1" y="-0.1" class="st0" width="300" height="260"/>
<g id="normalCell" class="st1">
	<g id="XMLID_3_" class="st2">
		<path id="XMLID_282_" class="st3" d="M210.6,256.7L90,256.5c-9.4,0-18.2-4.9-22.8-12.8L7,142.3c-4.7-8-4.7-17.7,0-25.7L67.4,15.1
			c4.8-8,13.5-12.8,22.9-12.8l120.6,0.2c9.4,0,18.2,4.9,22.8,12.8l60.2,101.4c4.7,8,4.7,17.7,0,25.7l-60.4,101.4
			C228.7,251.8,220,256.7,210.6,256.7z"/>
	</g>
</g>
<g id="Calque_7">
	<path id="XMLID_33_" class="st4" d="M82.1,237.5c0,0-14.2-4.1-11.5-10.8c3-7.5,1.9-12.9,5.6-15.1s16.6-6.4,23.4,3.1
		s7.4,6.2,5.1,17.6c-1.1,5.7-4.8,5.2-11,7.6C87.7,242.4,82.1,237.5,82.1,237.5z"/>
	<path id="XMLID_39_" class="st5" d="M96.6,231.5c-5.1,1.8-11.9,2.5-16.5-2.9c-2.5-3-5.6-5.3-7.9-6.7c-0.4,1.5-0.8,3.1-1.5,4.9
		c-2.7,6.6,11.5,10.8,11.5,10.8s5.6,4.9,11.6,2.5c6.3-2.4,9.9-1.9,11-7.6c0.7-3.4,1.1-5.5,1.2-7C103.2,227.2,99.9,230.3,96.6,231.5z
		"/>
	<path id="XMLID_37_" class="st6" d="M72.7,221.9c0,0,0.4,0.7,1.4,1.3c0.3,0.2,2.1,1.4,2.5,1.5c3,0.7,2.1,0.9,5.5,0
		c1.3-0.3,2.9-0.2,4.3-0.3c2.4-0.2,4.5-0.5,4.5-0.5s-1.4,0.6-3.8,0.8c-2.1,0.2-5,0.1-5.6,0.5c-0.8,0.6-4.6-0.3-1.5,2.6
		c0.6,0.5,0.8,1.8,2.7,3c0.6,0.4,2.1,0.8,2.6,1c2.7,1.5,5.6-0.5,5.6-0.5s-1.6,4.3-8.9-0.7c-1.8-1.4-3.1-3.6-4.5-4.7
		C76.2,225,72,223.2,72.7,221.9z"/>
	<linearGradient id="XMLID_2_" gradientUnits="userSpaceOnUse" x1="78.7251" y1="224.8688" x2="92.0532" y2="229.7199">
		<stop  offset="0.1034" style="stop-color:#FFFFFF;stop-opacity:0.17"/>
		<stop  offset="1" style="stop-color:#FFFFFF;stop-opacity:0"/>
	</linearGradient>
	<path id="XMLID_38_" class="st7" d="M90.7,224c0,0-7.7,0.6-8.4,0.9c-0.7,0.3-3.5,0.9-3.9,0.8c-0.3-0.1,1.7,2.7,2.5,3.8
		c0.8,1.1,4,3.6,6.9,3.5s4.1-2.7,4.1-2.7S89.7,227.2,90.7,224z"/>
	<path id="XMLID_36_" class="st8" d="M82.1,237.5c0,0-14.2-4.1-11.5-10.8c3-7.5,1.9-12.9,5.6-15.1s16.6-6.4,23.4,3.1
		s7.4,6.2,5.1,17.6c-1.1,5.7-4.8,5.2-11,7.6C87.7,242.4,82.1,237.5,82.1,237.5z"/>
	<g id="Calque_8">
		<path id="XMLID_41_" class="st9" d="M72.8,232.6c0,0.1,0.1,0.2,0.1,0.3c0.9,0.7,2.1,0.6,3.3,0.5c1.1-0.2,2.3-0.4,3.3,0
			c0.3,0.1,0.6,0.3,0.9,0.5c0.8,0.3,1.6,0.5,2.4,0.3"/>
		<path id="XMLID_43_" class="st9" d="M83.9,239c2.3-0.1,4.7-0.3,7-0.4c0.3,0,0.7,0,1-0.2c0.9-0.3,1.5-1.3,2.4-1.5"/>
		<path id="XMLID_44_" class="st9" d="M104.8,230.2c-0.7,0.5-0.6,1.8-1.4,2.2c-0.2,0.1-0.4,0.1-0.6,0.1c-0.3,0.1-0.5,0.2-0.7,0.3
			c-0.5,0.3-1,0.6-1.5,0.8c-0.2,0.1-0.4,0.2-0.5,0.4c-0.5,0.5-0.6,1.3-1.2,1.6"/>
	</g>
	<path id="XMLID_45_" class="st10" d="M76.8,215.4c0,0,0.3-2,2.1-2.3c1.8-0.4,3-0.3,2.3,0.6c-0.7,0.9-2.1,2.9-3.2,2.9
		C76.9,216.5,76.8,215.4,76.8,215.4z"/>
	<path id="XMLID_46_" class="st11" d="M84.9,212.6c2.3-0.7,4.9-0.5,7,0.7c0.3,0.2,0.6,0.3,0.9,0.5c1,0.4,2.2,0.2,3.1,0.8
		c0.6,0.4,1.1,1,1.5,1.6c0.8,1.3,1.5,2.7,2.5,3.8c0.5,0.6,1.1,1.2,1.5,1.9c0.5,0.9,0.8,2,1,3c-1.2-1.3-2.7-2.3-4.3-3
		c-0.3-0.1-0.7-0.2-0.9,0c-0.2,0.3,0.1,0.7,0.4,1c1,1.1,0.6,3,1.4,4.2c-1.1-0.9-1.8-2.2-2.7-3.3c-0.8-1.1-2-2.2-3.4-2.3
		c-0.6,0-1.3,0.2-1.9-0.1c-0.7-0.3-1-1-1.3-1.7c-0.3-0.7-0.6-1.4-0.8-2c-0.1-0.3-0.3-0.7-0.5-0.9c-0.6-0.5-1.4-0.3-2.1-0.4
		c-0.3,0-0.6-0.1-0.9-0.3c-0.7-0.4-1.1-1.1-1.2-1.8C83.9,213.7,84.3,213,84.9,212.6"/>
</g>
<g id="Calque_7_-_copie">
	<path id="XMLID_15_" class="st4" d="M268.4,96.1c0,0-12.7-7.5-15.7-1c-3.4,7.3-8.1,10.2-7.2,14.5c0.9,4.2,6.7,16.5,18.3,14.9
		c11.5-1.6,9.6,1.1,16.3-8.3c3.4-4.7,0.5-7-2-13.2C275.7,96.8,268.4,96.1,268.4,96.1z"/>
	<path id="XMLID_13_" class="st5" d="M277,106.5c1.4,3.2,1.4,7.8,2,11c0.2-0.2,0.4-0.4,0.6-0.7c0.2-0.2,0.4-0.5,0.5-0.7
		c3.4-4.7,0.5-7-2-13.2c-2.4-6-9.8-6.8-9.8-6.8s-10-5.9-14.3-2.7c-0.5,0.6-1,1.1-1.4,1.7c2.6,0.7,6.7,1.6,10.5,2.4
		C271.1,99.1,274.8,101.5,277,106.5z"/>
	<path id="XMLID_11_" class="st8" d="M268.4,96.1c0,0-12.7-7.5-15.7-1c-3.4,7.3-8.1,10.2-7.2,14.5c0.9,4.2,6.7,16.5,18.3,14.9
		c11.5-1.6,9.6,1.1,16.3-8.3c3.4-4.7,0.5-7-2-13.2C275.7,96.8,268.4,96.1,268.4,96.1z"/>
	<g id="Calque_8_-_copie">
		<path id="XMLID_6_" class="st9" d="M249,102.4c0-0.1,0.2-0.1,0.3-0.1c1.1,0.2,1.9,1.1,2.6,2c0.6,0.9,1.3,1.9,2.3,2.4
			c0.3,0.1,0.6,0.2,1,0.4c0.8,0.3,1.4,0.9,1.9,1.6"/>
		<path id="XMLID_5_" class="st9" d="M272.2,109.6c1.5,1.8,3,3.6,4.5,5.4c0.2,0.3,0.4,0.5,0.6,0.9c0.4,0.9,0.1,2,0.6,2.8"/>
		<path id="XMLID_4_" class="st9" d="M273.2,123.8c-0.1-0.9,0.9-1.7,0.6-2.5c-0.1-0.2-0.2-0.4-0.3-0.6c-0.1-0.2-0.2-0.5-0.3-0.8
			c-0.2-0.6-0.3-1.1-0.4-1.7c-0.1-0.2-0.1-0.4-0.1-0.6c0-0.7,0.6-1.4,0.3-2"/>
	</g>
	<path id="XMLID_10_" class="st10" d="M258,99.9c0,0-1.3,1.6-0.2,3.1c0.9,1.6,1.8,2.4,2,1.3c0.2-1.1,0.7-3.5-0.1-4.3
		C258.9,99.2,258,99.9,258,99.9z"/>
	<path id="XMLID_9_" class="st11" d="M248.4,111.2c0.7,2.3,2.3,4.3,4.4,5.4c0.3,0.2,0.6,0.3,0.9,0.5c0.9,0.6,1.4,1.7,2.4,2.2
		c0.7,0.3,1.4,0.3,2.2,0.3c1.5,0,3.1-0.2,4.6-0.1c0.8,0.1,1.6,0.2,2.4,0.2c1.1-0.1,2.1-0.5,3-0.9c-1.7-0.3-3.4-1-4.9-2
		c-0.3-0.2-0.6-0.5-0.5-0.8c0.1-0.4,0.7-0.3,1.1-0.2c1.5,0.2,2.8-1.1,4.3-1.2c-1.3-0.5-2.8-0.3-4.2-0.4c-1.4-0.1-3-0.4-3.8-1.6
		c-0.4-0.5-0.6-1.2-1.1-1.6c-0.6-0.4-1.4-0.3-2.1-0.1c-0.7,0.1-1.4,0.3-2.2,0.4c-0.3,0.1-0.7,0.1-1,0c-0.7-0.2-1-1-1.5-1.6
		c-0.2-0.3-0.5-0.5-0.8-0.6c-0.7-0.3-1.5-0.4-2.2,0s-1.1,1.2-0.9,1.9"/>
</g>
</svg>
