<?xml version="1.0" encoding="utf-8"?>
<!-- Generator: Adobe Illustrator 19.0.0, SVG Export Plug-In . SVG Version: 6.00 Build 0)  -->
<svg version="1.0" id="圖層_1" xmlns="http://www.w3.org/2000/svg" xmlns:xlink="http://www.w3.org/1999/xlink" x="0px" y="0px" width="300px" height="260px"
	 viewBox="0 0 300 260" style="enable-background:new 0 0 300 260;" xml:space="preserve">
<style type="text/css">
	.st0{fill:#594A42;}
	.st1{opacity:0.58;fill:#3C2415;enable-background:new    ;}
	.st2{opacity:0.12;fill:#030302;enable-background:new    ;}
	.st3{fill:#3F85C6;}
	.st4{opacity:0.75;fill:#206FB5;enable-background:new    ;}
</style>
<g id="圖層_20">
	<g id="圖層_21">
		<polygon id="XMLID_108_" class="st0" points="193.9,123.4 190.2,130.9 191.6,131.4 192.1,133.1 194.9,133.7 195.4,135.7 
			201,139.2 204.7,137.2 203.1,135.7 204.3,134.4 205.1,132 209.8,129.4 209.8,126.5 207.4,126.4 205.1,127.4 203.2,127.4 
			201.9,128.4 		"/>
		<polygon id="XMLID_7_" class="st0" points="207.6,133.7 209.4,132.4 209.8,134.5 208.4,135.4 		"/>
		<path id="XMLID_113_" class="st0" d="M191.1,122l-3.7,7.7h-4.3c0,0-1.2-1.6-0.6-1.4s-2.5-1.8-2.5-1.8l-6.4-0.3l-0.9-0.9l0.7-1.3
			l-1.8,0.1v1.8h-0.9l-0.8-6.5l10.6-6.2l10.6,8.5L191.1,122L191.1,122z"/>
		<path id="XMLID_114_" class="st0" d="M190.7,117.5v-1.8l0.4-1.3h0.9c0,0-0.3-1.5-0.2-1.5s1.3-0.7,1.3-0.7l-0.4-1.7l1.6-2.3
			l6.6,3.8l3.8,0.3l0.2,1l-3.2,0.4l0.3,1.7l3.6-0.1l0.4,1.2l-3.1,0.5l-0.7,1h-1.4l-1.9-1.5l-1.3,1.5l3,1.3l2.8-0.6l0.5,0.3l0.2,1.6
			l1,1.5l-4.7,2.9L190.7,117.5z"/>
		<polygon id="XMLID_116_" class="st0" points="208.9,118.8 209.4,116.4 210,118.3 209.8,120.7 209.4,120.7 		"/>
		<path id="XMLID_115_" class="st0" d="M206.4,120.7l-0.5,0.8l0.5,1l0.8-1.3C207.2,121.2,206.2,120.8,206.4,120.7z"/>
		<path id="XMLID_168_" class="st0" d="M187.6,115.4l3.1-7.1v-2.6l-8.5-7.1L177,101v1.8c0,0,1.2,0.3,1.3,0.3
			c0.1,0.1-0.5,0.6-0.5,0.6l-0.8,0.2l0.3,1v1.6l-4.4-0.1l-0.5-1.8l-0.6,0.4v3.6l4.8,0.5l-1.3,0.9l-1.4,0.8l1.8,0.3l2.2-0.2l1.1-0.1
			l1.1-0.3L187.6,115.4z"/>
		<path id="XMLID_170_" class="st0" d="M191.1,102l0.1-2l0.7-0.9c0,0-0.1-0.8,0-0.8s0.5-0.2,0.5-0.2l0.7-1.7h1.6l-0.4-1.4
			c0,0-0.3-1.3-0.2-1.3s1.4-1,1.4-1l0.8,1.6h1.3l4.5,2.7l3.6-0.1l1.3,2.7l-1.6,0.5l0.1,0.9l-0.5,0.7l-1.8,1.3l-3.9-1.2l-0.1,1.3
			l1.8,1.3l1.4-0.1l-0.1,0.8l1.3,0.9l1.7,1.2L202,110h-1.7l-2.8-2.7l-1.8-1.1l-1.5-1.8l-1.1,0.2L191.1,102z"/>
		<path id="XMLID_173_" class="st0" d="M188.7,100.3L189,99l1-1.3V96l-0.4-0.8l1-1l1.8-1.9l-0.4-1.7l-8.1-7l-2.5-0.3l-1.7,1.2
			l-1,1.4v1.6l-2,0.7c0,0-1.5,0.1-1.4,0.1s-1-0.8-1-0.8l-1.1-0.3l-1.3,2.2v3.3l0.8,2.5c0,0-1,1-0.8,1.3s3.3,0.3,3.3,0.3v-1l-0.5-1
			l-0.8-1.6l-0.2-3l1-0.8l2.3,0.4l0.7,1.5l-0.7,0.9l1,1.1l-0.7,1.3l0.1,1.3h1.8L180,95l6.3,4.3l1.3,1.1L188.7,100.3L188.7,100.3z"/>
		<path id="XMLID_171_" class="st0" d="M172.7,74.4c0,0-0.3,4,0,4.4s2.1-1.1,2.4-1s0.9,1.7,0.9,1.7s2,0.8,2.3,1s3,0,3,0l6.8,4.1
			l2-0.4v-2.1l1.2-1.1c0,0-0.3-1.9-0.1-2s0.8-1.7,0.8-1.7v-3.8l-16.9-6L172.7,74.4z"/>
		<path id="XMLID_203_" class="st0" d="M191.9,87.1l1.4-3.4v-1.4l0.9-1.3l-0.4-2.1l1.3-2.2l4.8,3.9c0,0,4.2,1.3,4.4,1.3
			s7.4-0.6,7.4-0.6v7.9l-1.4,0.4l-1.6,1l-3.8,2.1l-2.6,1.3l-1.1-0.8l-2.2-0.1l-2-1.3c0,0-1.6-1.9-1.3-1.9s0-2.7,0-2.7l0.6-2.3
			l0.4-2.4l0.3-2.2l-1.3-0.1l-0.2,3.1l-0.4,1l-0.3,1.9l-0.1,1.6l-0.9,0.8L191.9,87.1z"/>
		<path id="XMLID_205_" class="st0" d="M210,96.3c0,0-1.2,0.9-1,1.3c0.3,0.3,0.8,2.3,0.8,2.3l-0.4,1.4l0.6,0.6l0.2,1.3l0.9-1v-2.7
			l-0.8-1.3l0.5-1.3L210,96.3z"/>
		<path id="XMLID_164_" class="st0" d="M189.2,37l-1.2-2.2l1.9-0.3l-1-1l-0.3-1.1h0.8l1,0.2l0.2-1.1l-2-0.2l-0.2-1.8L191,29v-0.6
			l1.8-0.2c0,0,0.6-0.8,0.7-0.8s12.6,10,12.6,10L189.2,37z"/>
		<polygon id="XMLID_163_" class="st0" points="201.9,24.5 201.6,26.1 200.9,26.1 200.4,28.8 197.7,27.8 192.9,23.7 191.1,23.5 
			190.2,22.7 189.5,21.4 188.5,21 189.8,19.6 192.2,19.5 192.2,17 190.7,18.3 187.6,18.9 185.5,20.1 186.8,24.9 184.4,25.1 
			184,17.7 184.8,16.4 187.6,16.6 189.9,16.4 190.2,13.6 192,12.4 195.1,12.6 204,19.3 		"/>
		<path id="XMLID_165_" class="st0" d="M202.4,31.3l0.2-2l0.8-0.9l0.8-1.4v-1l1.3-0.6l0.8-0.2l0.3-2l3,0.2l4.6,2.8l4.4-0.8l0.5,2.8
			l-2.3,0.6l-0.3,2.2l-3,0.3l-2.3-0.9l-0.4,1.8c0,0,2.9,1.1,3,1.1s0.7,1.2,0.7,1.2l2.6,1.2l-2.3,2.3l-1.6,0.9l-6.8-5l-2.2-1.1
			L202.4,31.3z"/>
		<polygon id="XMLID_166_" class="st0" points="221.2,25.9 221.7,29.1 221.2,30.1 222.4,31.8 223.1,29.4 222.4,24.7 		"/>
	</g>
	<g id="water1_拷貝">
		<path id="XMLID_15_" class="st0" d="M221.9,69.5c-1.1,5.5-4.8,10.6-10,14.3c-11.8,7.9-27.6,8.4-38-2.1c-8.5-9.9-8.3-24.4,0-34.5
			c8.9-8.8,20.8-13.6,33.5-10.7c12.4,3.8,19.5,18.4,15.1,30.6C222.4,67.9,222.2,68.7,221.9,69.5z"/>
		<path id="XMLID_13_" class="st1" d="M219.8,70.2c-7.5,18.9-33.3,24.7-46.1,8.3c-10.9-15.8,0.7-33.2,16.9-38.8
			c15-4.9,33.3,3.8,31.1,21C221.7,63.8,221.1,67,219.8,70.2z"/>
		<path id="XMLID_12_" class="st2" d="M220.5,70.4c-5.4,13.3-20.7,22.2-34.8,16.9c-8.3-3.6-15.8-10-17.3-18.8
			c-2-14.2,11-25.9,23.8-30.4c15-4.9,34.7,6.3,30.2,22.5C222.4,63.8,221.7,67.1,220.5,70.4z"/>
		<path id="XMLID_11_" class="st3" d="M219.4,70c-2.7,15.2-21.9,19.8-34.3,16c-6.7-2-11.3-7.6-13.4-14.5
			c-6.3-20.7,15.8-34.9,33.9-32.6c9.9,1.9,18.7,10.9,15.8,21.8C221.2,63.8,220.6,67,219.4,70z"/>
		<path id="XMLID_10_" class="st4" d="M215.1,68.1c-3.1,8.3-11.2,14.3-20.4,13.6c-11.1-1.3-21.8-10.8-17.4-22
			c3.2-10.5,14.4-16.5,25.5-15.3c9.2,0.7,15.4,7.8,13.7,16.6C216.5,63.4,216,65.8,215.1,68.1z"/>
	</g>
</g>
</svg>
