<?xml version="1.0" encoding="utf-8"?>
<!-- Generator: Adobe Illustrator 19.0.0, SVG Export Plug-In . SVG Version: 6.00 Build 0)  -->
<svg version="1.0" id="圖層_1" xmlns="http://www.w3.org/2000/svg" xmlns:xlink="http://www.w3.org/1999/xlink" x="0px" y="0px" width="300px" height="260px"
	 viewBox="0 0 300 260" style="enable-background:new 0 0 300 260;" xml:space="preserve">
<style type="text/css">
	.st0{fill:#009444;stroke:#414042;stroke-width:2;stroke-miterlimit:10;}
	.st1{opacity:0.17;enable-background:new    ;}
	.st2{fill:#39B54A;}
</style>
<g id="圖層_3">
	<path id="XMLID_44_" class="st0" d="M182.3,46.4c-4.9,0-9.3,2.4-11.9,6.2c3.1,3.8,11.9,8.3,11.9,8.3c-3.2,3.4-9.3,5.4-13.3,6.4
		c2.3,5,7.4,8.5,13.3,8.5c8.1,0,14.7-6.6,14.7-14.7S190.4,46.4,182.3,46.4z"/>
	<path id="XMLID_48_" class="st1" d="M171.9,68.3c4-1,10.1-3,13.3-6.4c0,0-8.8-4.5-11.9-8.3c2.7-3.7,7-6.2,11.9-6.2
		c1.4,0,2.7,0.2,4,0.6c-2-1.1-4.4-1.7-6.9-1.7c-4.9,0-9.3,2.4-11.9,6.2c3.1,3.8,11.9,8.3,11.9,8.3c-3.2,3.4-9.3,5.4-13.3,6.4
		c1.8,3.9,5.2,6.8,9.4,8C175.5,73.6,173.3,71.2,171.9,68.3z"/>
	<path id="XMLID_14_" class="st2" d="M182.6,62c0,0,2.4,4.6,0,11.2C183.4,72.2,185.7,67.1,182.6,62z"/>
	<path id="XMLID_45_" class="st2" d="M182.6,48.1c0,0,2.4,4.6,0,11.2C183.4,58.3,185.7,53.2,182.6,48.1z"/>
	<path id="XMLID_42_" class="st2" d="M184.8,60.7c0,0,4.6-1.8,11.2,0C195.1,60.1,190.2,58.4,184.8,60.7z"/>
</g>
<g id="圖層_3_拷貝">
	<path id="XMLID_58_" class="st0" d="M223.3,184.3c3-3.9,3.7-8.8,2.4-13.2c-4.9,0.1-13.8,4.4-13.8,4.4c-0.7-4.6,1.4-10.6,3-14.4
		c-5.4-1.2-11.3,0.7-14.9,5.4c-4.9,6.4-3.7,15.6,2.7,20.6C209.2,191.9,218.4,190.7,223.3,184.3z"/>
	<path id="XMLID_49_" class="st1" d="M212.3,162.7c-1.7,3.8-3.7,9.8-3,14.4c0,0,8.9-4.3,13.8-4.4c1.3,4.4,0.6,9.3-2.4,13.2
		c-0.8,1.1-1.8,2-2.9,2.8c2.1-1,4-2.4,5.5-4.4c3-3.9,3.7-8.8,2.4-13.2c-4.9,0.1-13.8,4.4-13.8,4.4c-0.7-4.6,1.4-10.6,3-14.4
		c-4.1-0.9-8.6,0-12,2.6C205.9,162.3,209.2,162,212.3,162.7z"/>
	<path id="XMLID_47_" class="st2" d="M210.8,175c0,0-5.2-0.9-8.9-6.8C202.2,169.4,204.8,174.3,210.8,175z"/>
	<path id="XMLID_46_" class="st2" d="M221.8,183.4c0,0-5.2-0.9-8.9-6.8C213.3,177.9,215.9,182.8,221.8,183.4z"/>
	<path id="XMLID_40_" class="st2" d="M210.5,177.5c0,0-1.4,4.8-6.8,8.9C204.7,186.1,209,183.2,210.5,177.5z"/>
</g>
</svg>
