<?xml version="1.0" encoding="utf-8"?>
<!-- Generator: Adobe Illustrator 19.0.0, SVG Export Plug-In . SVG Version: 6.00 Build 0)  -->
<svg version="1.0" id="圖層_1" xmlns="http://www.w3.org/2000/svg" xmlns:xlink="http://www.w3.org/1999/xlink" x="0px" y="0px" width="300px" height="260px"
	 viewBox="0 0 300 260" style="enable-background:new 0 0 300 260;" xml:space="preserve">
<style type="text/css">
	.st0{display:none;fill:#FECE63;stroke:#F3BA45;stroke-miterlimit:10;}
	.st1{display:none;}
	.st2{display:inline;}
	.st3{fill:none;stroke:#333333;stroke-width:7;stroke-miterlimit:10;}
	.st4{opacity:0.5;fill:#303030;stroke:#303030;stroke-width:3;stroke-miterlimit:10;}
	.st5{fill:#FFFFFF;}
	.st6{fill:#353535;}
	.st7{fill:#3F403F;}
	.st8{fill:#EAEAEA;}
	.st9{fill:#CFCECE;}
	.st10{display:none;opacity:0.5;fill:#A09F9F;}
	.st11{fill:#8C8C8C;}
	.st12{fill:#A56D67;}
	.st13{opacity:0.52;fill:#825656;}
	.st14{fill:none;stroke:#441817;stroke-width:2;stroke-miterlimit:10;}
	.st15{opacity:0.79;fill:none;stroke:#441817;stroke-width:0.5;stroke-miterlimit:10;}
	.st16{opacity:0.18;fill:#FFFFFF;enable-background:new    ;}
	.st17{opacity:0.36;fill:#773919;}
</style>
<rect id="background" x="0.4" y="0" class="st0" width="300" height="260"/>
<g id="normalCell" class="st1">
	<g id="XMLID_15_" class="st2">
		<path id="XMLID_282_" class="st3" d="M210.6,256.7L90,256.5c-9.4,0-18.2-4.9-22.8-12.8L7,142.3c-4.7-8-4.7-17.7,0-25.7L67.4,15.1
			c4.8-8,13.5-12.8,22.9-12.8l120.6,0.2c9.4,0,18.2,4.9,22.8,12.8l60.2,101.4c4.7,8,4.7,17.7,0,25.7l-60.4,101.4
			C228.7,251.8,220,256.7,210.6,256.7z"/>
	</g>
</g>
<g id="Calque_4_-_copie">
	<g id="Calque_2_-_copie_2_1_">
	</g>
	<g id="Calque_2_-_copie_2">
		<path id="XMLID_33_" class="st4" d="M109.1,13.5c0,0,0.2,0.1,0.5,0.4c-0.2-0.2-0.4-0.3-0.6-0.5c0,0,19.3,15.5,0.7,25.5
			c-2.2-1.1-4.4-1.8-5.9-2.3c-4.3-1.4-6.7,3.5-6.7,3.5s-5.3-1.6-7.1,2.6c-0.6,1.5-1.5,3.6-2.2,5.9c-19.4,6.7-19.1-15.8-19.1-15.8
			C65,50,71.3,59.5,86.8,54.7c-0.1,2.5,0.2,4.1,1.8,5.7c1.5,1.5,4.1,3.6,6.9,6c0.3,0.2,0.6,0.5,0.8,0.7c0.1,0.1,0.1,0.1,0.2,0.2
			c0.2,0.2,0.5,0.4,0.7,0.6c0.1,0.1,0.2,0.1,0.2,0.2c0.2,0.2,0.5,0.4,0.7,0.6c0.1,0,0.1,0.1,0.2,0.1c0.9,0.8,1.8,1.6,2.7,2.4
			c0,0,0,0,0,0c0.3,0.3,0.6,0.5,0.9,0.8c0,0,0,0,0,0c2.6,2.4,4,5,5,6.7c0.1,0.2,0.3,0.5,0.4,0.7c0.9,2,0.6,3.4,2.2,4.5
			c2.4,1.7,3.1-1.2,5.8-2.3c2.7-1.3,5.3,0.1,5.7-2.7c0.2-1.9-1.1-2.6-2-4.6c-0.1-0.3-0.2-0.6-0.3-0.9c0,0,0-0.1,0-0.1
			c-1.5-5.6-0.7-20.1-0.9-25.7c-0.1-2.3-0.6-4-2.5-5.5C125.7,36.2,129,26.1,109.1,13.5z"/>
	</g>
</g>
<g id="Calque_4">
	<path id="XMLID_24_" class="st5" d="M103.7,37.8c-3.9-1.3-6.2,3.3-6.2,3.3s-4.9-1.4-6.6,2.4c-1.7,3.8-5.2,12.4-1.2,16.3
		c4,3.9,16.2,13,18,17.2c0.8,1.8-0.2,3.4,1.2,4.4c2.2,1.5,2.8-1.1,5.4-2.1c2.5-1.2,4.9,0.1,5.2-2.5c0.2-1.8-1.6-2.1-2.4-3.9
		c-1.9-4.1-0.4-19.3-0.6-24.9C116.3,42.3,107.6,39.2,103.7,37.8z"/>
	<path id="XMLID_23_" class="st6" d="M96.6,56.9c1.5,2.1,1.3,4,0.7,4.4s-2.3-0.9-3.8-2.9c-1.5-2.1-2.3-4.1-1.7-4.5
		C92.4,53.4,95.1,54.9,96.6,56.9z"/>
	<path id="XMLID_22_" class="st7" d="M95.3,56.1c0.9,1.3,0.8,2.4,0.4,2.7c-0.4,0.3-1.4-0.5-2.3-1.8c-0.9-1.3-1.4-2.5-1-2.8
		C92.7,54,94.4,54.9,95.3,56.1z"/>
	<path id="XMLID_21_" class="st6" d="M109.5,51.2c0.5,2.5,2,3.6,2.8,3.5c0.7-0.1,0.9-2.3,0.4-4.8c-0.5-2.5-1.5-4.4-2.2-4.3
		C109.7,45.8,109,48.7,109.5,51.2z"/>
	<path id="XMLID_20_" class="st7" d="M109.8,49.8c0.3,1.5,1.2,2.2,1.7,2.1s0.6-1.4,0.3-2.9s-0.9-2.7-1.3-2.6
		C109.9,46.4,109.5,48.2,109.8,49.8z"/>
	<path id="XMLID_19_" class="st8" d="M97.2,63.3L96,65.2c4.5,3.8,9.7,8.3,11.3,11.1c-0.1-1.5-0.6-3.9-2.8-7.6
		C100.5,61.4,97.2,63.3,97.2,63.3z"/>
	<path id="XMLID_18_" class="st8" d="M114.1,55.8l2.2,0.5c-0.2,5.9-0.4,12.7,0.5,15.8c-1.1-1-2.5-3.1-3.8-7.2
		C110.5,57,114.1,55.8,114.1,55.8z"/>
	<path id="XMLID_17_" class="st6" d="M111.5,76.6c0.6,1.3,0.5,2.5-0.1,2.8c-0.6,0.3-1.5-0.6-2.1-1.8c-0.6-1.3,0.3-0.7,0.9-0.9
		C110.8,76.3,110.9,75.3,111.5,76.6z"/>
	<path id="XMLID_16_" class="st6" d="M116.4,74.4c0.6,1.3,0.5,2.5-0.1,2.8c-0.6,0.3-1.5-0.6-2.1-1.8s0.3-0.7,0.9-0.9
		C115.7,74.2,115.8,73.1,116.4,74.4z"/>
	<path id="XMLID_14_" class="st9" d="M100.3,43.5c-3.2-3.5-0.9,1.9-0.9,1.9s-2.4-5.3-2-0.6c0.4,4.7,7,12,7,12S103.5,47,100.3,43.5z"
		/>
	<path id="XMLID_13_" class="st10" d="M100.1,45.3c-1.8-2.6-0.2,1.1-0.2,1.1s-1.7-3.7-1-0.6c0.7,3.1,4.5,8.5,4.5,8.5
		S101.9,47.9,100.1,45.3z"/>
	<g id="Calque_2">
		<path id="XMLID_32_" class="st11" d="M68.6,33.3c0,0-3.2,26.4,22.8,15.1c0,0,2.1,3.1-0.4,4.2C88.4,53.7,64.4,65.4,68.6,33.3z"/>
		<path id="XMLID_31_" class="st5" d="M68.6,33.1c0,0-2.6,25.8,22.2,15c0,0,2,2.9-0.4,4C88,53.3,64.6,63.9,68.6,33.1z"/>
	</g>
	<g id="Calque_2_-_copie">
		<path id="XMLID_30_" class="st11" d="M110.8,14.7c0,0,21.6,15.5-4.2,27c0,0,0.8,3.6,3.4,2.6S137.4,33.3,110.8,14.7z"/>
		<path id="XMLID_29_" class="st5" d="M110.7,14.6c0,0,20.9,15.5-3.8,26.5c0,0,0.8,3.5,3.2,2.4C112.5,42.5,136.1,32.4,110.7,14.6z"
			/>
	</g>
</g>
<g id="Calque_7_-_copie">
	<path id="XMLID_11_" class="st12" d="M237.6,86.7c0,0-12.7-7.5-15.7-1c-3.4,7.3-8.1,10.2-7.2,14.5c0.9,4.2,6.8,16.5,18.3,14.9
		c11.5-1.6,9.6,1.1,16.3-8.3c3.4-4.7,0.5-7-2-13.2C244.9,87.4,237.6,86.7,237.6,86.7z"/>
	<path id="XMLID_10_" class="st13" d="M246.2,97.2c1.4,3.2,1.4,7.8,2,11c0.2-0.2,0.4-0.4,0.6-0.7c0.2-0.2,0.4-0.5,0.5-0.7
		c3.4-4.7,0.5-7-2-13.2c-2.4-6-9.8-6.8-9.8-6.8s-10-5.9-14.3-2.7c-0.5,0.6-1,1.1-1.4,1.7c2.6,0.7,6.7,1.6,10.5,2.4
		C240.3,89.8,244,92.2,246.2,97.2z"/>
	<path id="XMLID_9_" class="st14" d="M237.6,86.7c0,0-12.7-7.5-15.7-1c-3.4,7.3-8.1,10.2-7.2,14.5c0.9,4.2,6.8,16.5,18.3,14.9
		c11.5-1.6,9.6,1.1,16.3-8.3c3.4-4.7,0.5-7-2-13.2C244.9,87.4,237.6,86.7,237.6,86.7z"/>
	<g id="Calque_8_-_copie">
		<path id="XMLID_6_" class="st15" d="M218.2,93.1c0-0.1,0.2-0.1,0.3-0.1c1.1,0.2,1.9,1.1,2.6,2c0.6,0.9,1.3,1.9,2.3,2.4
			c0.3,0.1,0.6,0.2,1,0.4c0.8,0.3,1.4,0.9,1.9,1.6"/>
		<path id="XMLID_5_" class="st15" d="M241.4,100.3c1.5,1.8,3,3.6,4.5,5.4c0.2,0.3,0.4,0.5,0.6,0.9c0.4,0.9,0.1,2,0.6,2.8"/>
		<path id="XMLID_4_" class="st15" d="M242.4,114.5c-0.1-0.9,0.9-1.7,0.6-2.5c-0.1-0.2-0.2-0.4-0.3-0.6c-0.1-0.2-0.2-0.5-0.3-0.8
			c-0.2-0.6-0.3-1.1-0.4-1.7c-0.1-0.2-0.1-0.4-0.1-0.6c0-0.7,0.6-1.4,0.3-2"/>
	</g>
	<path id="XMLID_3_" class="st16" d="M227.2,90.6c0,0-1.3,1.6-0.2,3.1c0.9,1.6,1.8,2.4,2,1.3c0.2-1.1,0.7-3.5-0.1-4.3
		C228.1,89.9,227.2,90.6,227.2,90.6z"/>
	<path id="XMLID_2_" class="st17" d="M217.6,101.9c0.7,2.3,2.3,4.3,4.4,5.4c0.3,0.2,0.6,0.3,0.9,0.5c0.9,0.6,1.4,1.7,2.4,2.2
		c0.7,0.3,1.4,0.3,2.2,0.3c1.5,0,3.1-0.2,4.6-0.1c0.8,0.1,1.6,0.2,2.4,0.2c1.1-0.1,2.1-0.5,3-0.9c-1.7-0.3-3.4-1-4.9-2
		c-0.3-0.2-0.6-0.5-0.5-0.8c0.1-0.4,0.7-0.3,1.1-0.2c1.5,0.2,2.8-1.1,4.3-1.2c-1.3-0.5-2.8-0.3-4.2-0.4c-1.4-0.1-3-0.4-3.8-1.6
		c-0.4-0.5-0.6-1.2-1.1-1.6c-0.6-0.4-1.4-0.3-2.1-0.1c-0.7,0.1-1.4,0.3-2.2,0.4c-0.3,0.1-0.7,0.1-1,0c-0.7-0.2-1-1-1.5-1.6
		c-0.2-0.3-0.5-0.5-0.8-0.6c-0.7-0.3-1.5-0.4-2.2,0s-1.1,1.2-0.9,1.9"/>
</g>
</svg>
