<svg version="1.0" id="Calque_32" xmlns="http://www.w3.org/2000/svg" x="0" y="0" viewBox="0 0 300 300" style="enable-background:new 0 0 300 300" xml:space="preserve"><style>.st0{opacity:.1}.st1,.st2,.st3{fill:#563d1e;stroke:#000;stroke-width:2;stroke-miterlimit:10}.st2,.st3{fill:#fff}.st3{fill:#009fe3}.st5{display:inline}.st6{fill:none;stroke:#000;stroke-width:2;stroke-miterlimit:10}</style><g id="Calque_24"><g id="Calque_23"><g id="Calque_22"><path id="XMLID_29_" class="st0" d="M128.2 140.5c.7.2 1.4.3 2.2.4 1.9.2 3.7-.1 5.6-.2 1.9-.1 3.8 0 5.4 1s2.8 2.9 2.3 4.7c-.2.9-.8 1.6-1.4 2.3-.8.9-1.6 1.9-2.6 2.6-.8.5-1.8.8-2.7 1.1-1.8.5-3.9 1-5.6 0-1.6-.9-2.3-2.8-2.8-4.5-.5-1.9-1-3.9-1.2-5.9"/><path id="XMLID_34_" class="st1" d="M127.7 133c2.4 2.8 6.3 3.8 10 3.8 1.1 0 2.2 0 3.3.3 1 .3 2 .9 2.6 1.7.3.4.6.8 1.1.8.2-1.4.3-2.9-.5-4.1-.6-.9-1.6-1.4-2.6-1.7-1-.3-2.1-.5-3-.9-1.5-.7-2.8-1.9-4-3-1.3-1.1-2.8-2.1-4.5-2.1-.3 0-.6 0-.8.2-.2.1-.4.4-.6.6-.4.6-.9 1.2-1.3 1.8-.4.6-.8 1.3-.4 1.9"/></g><path id="XMLID_26_" class="st2" d="M119.6 139c1.5.2 3 .2 4.5.1.9-.1 2.7-.1 3.5-.1.8.1 2.4 1.2 4.8 1.7 1.1.2 5.4-.6 6.2.1 1.7 1.3 2.4 5 .6 7.1-3 2.3-7.6 2.7-11.1 1.1-1.5-.7-2.9-1.8-3.4-3.2-.6-1.4-2-5.7-.8-6.8"/><ellipse id="XMLID_28_" class="st3" cx="133.2" cy="144.9" rx="2.7" ry="3.6"/></g><g id="Calque_23_-_copie_2"><g id="Calque_22_-_copie"><path id="XMLID_57_" class="st0" d="M175.7 140.5c-.7.2-1.4.3-2.2.4-1.9.2-3.7-.1-5.6-.2-1.9-.1-3.8 0-5.4 1s-2.8 2.9-2.3 4.7c.2.9.8 1.6 1.4 2.3.8.9 1.6 1.9 2.6 2.6.8.5 1.8.8 2.7 1.1 1.8.5 3.9 1 5.6 0 1.6-.9 2.3-2.8 2.8-4.5.5-1.9 1-3.9 1.2-5.9"/><path id="XMLID_56_" class="st1" d="M176.1 133c-2.4 2.8-6.3 3.8-10 3.8-1.1 0-2.2 0-3.3.3-1 .3-2 .9-2.6 1.7-.3.4-.6.8-1.1.8-.2-1.4-.3-2.9.5-4.1.6-.9 1.6-1.4 2.6-1.7 1-.3 2.1-.5 3-.9 1.5-.7 2.8-1.9 4-3 1.3-1.1 2.8-2.1 4.5-2.1.3 0 .6 0 .8.2.2.1.4.4.6.6.4.6.9 1.2 1.3 1.8.4.6.8 1.3.4 1.9"/></g><path id="XMLID_66_" class="st2" d="M184.3 139c-1.5.2-3 .2-4.5.1-.9-.1-2.7-.1-3.5-.1-.8.1-2.4 1.2-4.8 1.7-1.1.2-5.4-.6-6.2.1-1.7 1.3-2.4 5-.6 7.1 3 2.3 7.6 2.7 11.1 1.1 1.5-.7 2.9-1.8 3.4-3.2.6-1.4 2-5.7.8-6.8"/><ellipse id="XMLID_53_" class="st3" cx="170.7" cy="144.9" rx="2.7" ry="3.6"/></g></g></svg>