<svg version="1.0" id="Calque_32" xmlns="http://www.w3.org/2000/svg" x="0" y="0" viewBox="0 0 300 300" style="enable-background:new 0 0 300 300" xml:space="preserve"><style>.st1{display:inline}.st2{opacity:.1}.st3,.st4,.st5,.st6{fill:#563d1e;stroke:#000;stroke-width:2;stroke-miterlimit:10}.st4,.st5,.st6{fill:#fff}.st5,.st6{fill:#009fe3}.st6{fill:none}</style><g id="Calque_34"><g id="Calque_23_-_copie_3"><g id="Calque_22_-_copie_2"><path id="XMLID_37_" class="st2" d="M175.7 140.5c-.7.2-1.4.3-2.2.4-1.9.2-3.7-.1-5.6-.2-1.9-.1-3.8 0-5.4 1s-2.8 2.9-2.3 4.7c.2.9.8 1.6 1.4 2.3.8.9 1.6 1.9 2.6 2.6.8.5 1.8.8 2.7 1.1 1.8.5 3.9 1 5.6 0 1.6-.9 2.3-2.8 2.8-4.5.5-1.9 1-3.9 1.2-5.9"/><path id="XMLID_36_" class="st3" d="M176.9 136.3c-1.7 2.9-7.1 4.5-10.8 4.5-1.1 0-2.2 0-3.3.3-1 .3-2 .9-2.6 1.7-.3.4-.6.8-1.1.8-.2-1.4-.3-2.9.5-4.1.6-.9 1.6-1.4 2.6-1.7 1-.3 2.1-.5 3-.9 1.5-.7 2.8-1.9 4-3 1.3-1.1 2.8-2.1 4.5-2.1.3 0 .6 0 .8.2.2.1.4.4.6.6.4.6.9 1.2 1.3 1.8.4.6.9 1.3.5 1.9"/><path id="XMLID_13_" class="st6" d="M163.7 146.3c-1.2 1.4 1.7 2.5 2.3 2.6 1.9.3 7.7-1.2 8.5-1.5s1.9-1.8.5-2.9"/></g></g><g id="Calque_23_-_copie_4"><g id="Calque_22_-_copie_3"><path id="XMLID_71_" class="st2" d="M128.3 140.5c.7.2 1.4.3 2.2.4 1.9.2 3.7-.1 5.6-.2 1.9-.1 3.8 0 5.4 1s2.8 2.9 2.3 4.7c-.2.9-.8 1.6-1.4 2.3-.8.9-1.6 1.9-2.6 2.6-.8.5-1.8.8-2.7 1.1-1.8.5-3.9 1-5.6 0-1.6-.9-2.3-2.8-2.8-4.5-.5-1.9-1-3.9-1.2-5.9"/><path id="XMLID_70_" class="st3" d="M127.1 136.3c1.7 2.9 7.1 4.5 10.8 4.5 1.1 0 2.2 0 3.3.3 1 .3 2 .9 2.6 1.7.3.4.6.8 1.1.8.2-1.4.3-2.9-.5-4.1-.6-.9-1.6-1.4-2.6-1.7-1-.3-2.1-.5-3-.9-1.5-.7-2.8-1.9-4-3-1.3-1.1-2.8-2.1-4.5-2.1-.3 0-.6 0-.8.2-.2.1-.4.4-.6.6-.4.6-.9 1.2-1.3 1.8-.5.6-.9 1.3-.5 1.9"/><path id="XMLID_25_" class="st6" d="M140.2 146.3c1.2 1.4-1.7 2.5-2.3 2.6-1.9.3-7.7-1.2-8.5-1.5s-1.9-1.8-.5-2.9"/></g></g></g></svg>