<svg version="1.0" xmlns="http://www.w3.org/2000/svg" width="300" height="260" style="enable-background:new 0 0 300 260" xml:space="preserve"><style>.st0{display:none}.st2{display:inline}.st4,.st5{stroke-miterlimit:10}.st4{fill:#fff;stroke:#b4b4b5;stroke-width:12}.st5{stroke:#e8e8e8;stroke-width:6}.st5,.st6{fill:#fff}.st7{fill:#b5b5b6}.st8{fill:none;stroke:#b4b4b5;stroke-width:5;stroke-miterlimit:10}.st9{fill:#eaeaea}.st11{fill:#e5e5e5}.st12{fill:#e3e5e4}.st13{display:inline;fill:none;stroke:#b4b4b5;stroke-width:5;stroke-miterlimit:10}.st14,.st15,.st17{display:inline;fill:#e5e5e5}.st15,.st17{fill:#fff}.st17{fill:#b5b5b6}.st21,.st22{fill:#ededed}.st22{display:inline}.st28{fill:#c6c6c5}</style><g id="cloud7"><g id="Calque_19"><path id="XMLID_109_" class="st4" d="m132.6 51.1-2.8-4.7s-15.3-3-15.1-14.4 9-13.4 9-13.4 1.8-7 9-6.2c7.2.8 7.4 5.3 7.4 5.3s7.6 3.2 7.6 7 3.2 3.5 3 7.1c-.2 3.5-4.2 7.1-4.2 7.1s1.7 6.6-2.5 8.1-8.7 1.1-8.7 1.1l-2.7 3z"/><path id="XMLID_110_" class="st4" d="M198.1 38.7s-4.8-2.8-5.8-7.6 2.9-6.3 2.9-6.3l-.1-3.5 1.8-1.3 1.1-2.4s15.7-4.6 16.4 4.1c0 0 2.9 0 3.5 4.2.6 4.2 0 5.3 0 5.3s6.6-1.1 8.4 5.8c1.8 6.9-3.1 7.7-3.1 7.7S221.3 51 209 51c-12.3 0-11.3-6.5-11.3-6.5l.4-5.8z"/><path id="XMLID_111_" class="st4" d="M250.1 82.9s-4.1-8.2 4.5-8.2c8.5 0 10.7 2.3 10.7 2.3s4.8-.4 3.7 8.7c-1.1 9-4.7 7.8-4.7 7.8s-3.5 4.5-11.3 2.6c-7.8-1.8-7.1-8.9-7.1-8.9s6.8-1.7 4.2-4.3z"/><path id="XMLID_51_" class="st4" d="M258.3 136.9s-5.2-1.1-3.4-5.7c1.8-4.6 6.1-3.3 6.1-3.3s.9-3.9 7.6-4.2c6.6-.3 9.9 9 9.9 9s.1 6.9-5.7 7.2c-.3 3 .1 8.1-5.2 8.3-5.2.2-8.8-1-9.2-5-.4-4.1-.1-6.3-.1-6.3z"/><path id="XMLID_112_" class="st4" d="M247.4 194.1s.3-2.7 5-2.7 5.2 4.4 5.2 4.4.7 5.8-4 5.7c-.5 4.6-.7 9.6-7.1 10.5-6.4.9-6.7-2.1-6.7-2.1s-3.6 0-3.6-3 3-3.4 3-3.4-5.3.6-5.2-4.8c.1-5.3.5-9.6 5.2-9.3 4.7.3 8.1 1.8 8.2 4.7z"/><path id="XMLID_114_" class="st4" d="M165.8 220.3s.7-9.1 8.1-7.9c7.3 1.2 15 8.1 12.1 13.3-2.8 5.2-7.5 8.2-7.5 8.2s4.9 12.3-10.8 13.6c-15.7 1.3-22.3-7-22.2-11.5.1-4.5-1.2-18.1 7.8-18.3 9-.1 11.4 0 12.5 2.6z"/><path id="XMLID_115_" class="st4" d="M89 204.4s1.1-6.7 4.9-7.3c3.9-.6 3.4-6.1 7.3-5.2 3.9 1 4.8 2 4.4 5-.4 3-1.5 12.6.1 13.6 1.6 1.1 0 5.9 0 5.9s.8 6.7-9.3 6.2c-10.1-.4-8.2-5.7-8.2-5.7s-.2 5.9-6 5.7c-5.8-.1-7.4-3.7-7.4-3.7s-7.7-.5-8.1-9.6c-.3-9 9-14.8 9-14.8h8.4c0 .3 4.8 1.8 4.9 9.9z"/><path id="XMLID_116_" class="st4" d="M32.6 158.5c.8.3 1.8.4 2.7.2 3.5-.7 12.5-3 11.9-8-.7-6.2-3.4-13.6-8.5-13.9-5.1-.3-15.9-2.8-16 5.2-.1 7.9 4.4 9.3 4.4 12-.1 2 3.5 3.7 5.5 4.5z"/><path id="XMLID_113_" class="st4" d="M73.8 99.2s-13.1-.6-13.9 3.2c-.8 3.8-14.9-3.5-15.2-13-.1-4.6.6-7 1.4-8.3.9-1.5 1.1-3.3.6-4.9l-1.1-3.3c-.1-.4-.2-.7-.2-1.1-.3-2.5-.7-11.9 8.9-11.9 3.1 0 5.4.2 7 .4 2.2.3 4.5-.3 5.9-2 .6-.8 1.5-1.2 2.7-.9 3.4 1 7.1 5.3 7.6 11.4.3 4.2 2.3 6.4 3.5 7.4.7.6 1.3 1.3 1.7 2.1.9 2 2.2 5.3.8 7.3-2 2.9-10.7 2.3-8.3 4.8 2.9 2.8 4.5 5.2-1.4 8.8z"/></g><g id="Calque_19_-_copie"><path id="XMLID_183_" class="st5" d="m132.6 51.1-2.8-4.7s-15.3-3-15.1-14.4 9-13.4 9-13.4 1.8-7 9-6.2c7.2.8 7.4 5.3 7.4 5.3s7.6 3.2 7.6 7 3.2 3.5 3 7.1c-.2 3.5-4.2 7.1-4.2 7.1s1.7 6.6-2.5 8.1-8.7 1.1-8.7 1.1l-2.7 3z"/><path id="XMLID_182_" class="st5" d="M198.1 38.7s-4.8-2.8-5.8-7.6 2.9-6.3 2.9-6.3l-.1-3.5 1.8-1.3 1.1-2.4s15.7-4.6 16.4 4.1c0 0 2.9 0 3.5 4.2.6 4.2 0 5.3 0 5.3s6.6-1.1 8.4 5.8c1.8 6.9-3.1 7.7-3.1 7.7S221.3 51 209 51c-12.3 0-11.3-6.5-11.3-6.5l.4-5.8z"/><path id="XMLID_181_" class="st5" d="M250.1 82.9s-4.1-8.2 4.5-8.2c8.5 0 10.7 2.3 10.7 2.3s4.8-.4 3.7 8.7c-1.1 9-4.7 7.8-4.7 7.8s-3.5 4.5-11.3 2.6c-7.8-1.8-7.1-8.9-7.1-8.9s6.8-1.7 4.2-4.3z"/><path id="XMLID_180_" class="st5" d="M258.3 136.9s-5.2-1.1-3.4-5.7c1.8-4.6 6.1-3.3 6.1-3.3s.9-3.9 7.6-4.2c6.6-.3 9.9 9 9.9 9s.1 6.9-5.7 7.2c-.3 3 .1 8.1-5.2 8.3-5.2.2-8.8-1-9.2-5-.4-4.1-.1-6.3-.1-6.3z"/><path id="XMLID_179_" class="st5" d="M247.4 194.1s.3-2.7 5-2.7 5.2 4.4 5.2 4.4.7 5.8-4 5.7c-.5 4.6-.7 9.6-7.1 10.5-6.4.9-6.7-2.1-6.7-2.1s-3.6 0-3.6-3 3-3.4 3-3.4-5.3.6-5.2-4.8c.1-5.3.5-9.6 5.2-9.3 4.7.3 8.1 1.8 8.2 4.7z"/><path id="XMLID_178_" class="st5" d="M165.8 220.3s.7-9.1 8.1-7.9c7.3 1.2 15 8.1 12.1 13.3-2.8 5.2-7.5 8.2-7.5 8.2s4.9 12.3-10.8 13.6c-15.7 1.3-22.3-7-22.2-11.5.1-4.5-1.2-18.1 7.8-18.3 9-.1 11.4 0 12.5 2.6z"/><path id="XMLID_177_" class="st5" d="M89 204.4s1.1-6.7 4.9-7.3c3.9-.6 3.4-6.1 7.3-5.2 3.9 1 4.8 2 4.4 5-.4 3-1.5 12.6.1 13.6 1.6 1.1 0 5.9 0 5.9s.8 6.7-9.3 6.2c-10.1-.4-8.2-5.7-8.2-5.7s-.2 5.9-6 5.7c-5.8-.1-7.4-3.7-7.4-3.7s-7.7-.5-8.1-9.6c-.3-9 9-14.8 9-14.8h8.4c0 .3 4.8 1.8 4.9 9.9z"/><path id="XMLID_176_" class="st5" d="M32.6 158.5c.8.3 1.8.4 2.7.2 3.5-.7 12.5-3 11.9-8-.7-6.2-3.4-13.6-8.5-13.9-5.1-.3-15.9-2.8-16 5.2-.1 7.9 4.4 9.3 4.4 12-.1 2 3.5 3.7 5.5 4.5z"/><path id="XMLID_175_" class="st5" d="M73.8 99.2s-13.1-.6-13.9 3.2c-.8 3.8-14.9-3.5-15.2-13-.1-4.6.6-7 1.4-8.3.9-1.5 1.1-3.3.6-4.9l-1.1-3.3c-.1-.4-.2-.7-.2-1.1-.3-2.5-.7-11.9 8.9-11.9 3.1 0 5.4.2 7 .4 2.2.3 4.5-.3 5.9-2 .6-.8 1.5-1.2 2.7-.9 3.4 1 7.1 5.3 7.6 11.4.3 4.2 2.3 6.4 3.5 7.4.7.6 1.3 1.3 1.7 2.1.9 2 2.2 5.3.8 7.3-2 2.9-10.7 2.3-8.3 4.8 2.9 2.8 4.5 5.2-1.4 8.8z"/></g><g id="Calque_19_-_copie_3"><path id="XMLID_150_" class="st6" d="m132.6 51.1-2.8-4.7s-15.3-3-15.1-14.4 9-13.4 9-13.4 1.8-7 9-6.2c7.2.8 7.4 5.3 7.4 5.3s7.6 3.2 7.6 7 3.2 3.5 3 7.1c-.2 3.5-4.2 7.1-4.2 7.1s1.7 6.6-2.5 8.1-8.7 1.1-8.7 1.1l-2.7 3z"/><path id="XMLID_149_" class="st6" d="M198.1 38.7s-4.8-2.8-5.8-7.6 2.9-6.3 2.9-6.3l-.1-3.5 1.8-1.3 1.1-2.4s15.7-4.6 16.4 4.1c0 0 2.9 0 3.5 4.2.6 4.2 0 5.3 0 5.3s6.6-1.1 8.4 5.8c1.8 6.9-3.1 7.7-3.1 7.7S221.3 51 209 51c-12.3 0-11.3-6.5-11.3-6.5l.4-5.8z"/><path id="XMLID_148_" class="st6" d="M250.1 82.9s-4.1-8.2 4.5-8.2c8.5 0 10.7 2.3 10.7 2.3s4.8-.4 3.7 8.7c-1.1 9-4.7 7.8-4.7 7.8s-3.5 4.5-11.3 2.6c-7.8-1.8-7.1-8.9-7.1-8.9s6.8-1.7 4.2-4.3z"/><path id="XMLID_147_" class="st6" d="M258.3 136.9s-5.2-1.1-3.4-5.7c1.8-4.6 6.1-3.3 6.1-3.3s.9-3.9 7.6-4.2c6.6-.3 9.9 9 9.9 9s.1 6.9-5.7 7.2c-.3 3 .1 8.1-5.2 8.3-5.2.2-8.8-1-9.2-5-.4-4.1-.1-6.3-.1-6.3z"/><path id="XMLID_146_" class="st6" d="M247.4 194.1s.3-2.7 5-2.7 5.2 4.4 5.2 4.4.7 5.8-4 5.7c-.5 4.6-.7 9.6-7.1 10.5-6.4.9-6.7-2.1-6.7-2.1s-3.6 0-3.6-3 3-3.4 3-3.4-5.3.6-5.2-4.8c.1-5.3.5-9.6 5.2-9.3 4.7.3 8.1 1.8 8.2 4.7z"/><path id="XMLID_145_" class="st6" d="M165.8 220.3s.7-9.1 8.1-7.9c7.3 1.2 15 8.1 12.1 13.3-2.8 5.2-7.5 8.2-7.5 8.2s4.9 12.3-10.8 13.6c-15.7 1.3-22.3-7-22.2-11.5.1-4.5-1.2-18.1 7.8-18.3 9-.1 11.4 0 12.5 2.6z"/><path id="XMLID_129_" class="st6" d="M89 204.4s1.1-6.7 4.9-7.3c3.9-.6 3.4-6.1 7.3-5.2 3.9 1 4.8 2 4.4 5-.4 3-1.5 12.6.1 13.6 1.6 1.1 0 5.9 0 5.9s.8 6.7-9.3 6.2c-10.1-.4-8.2-5.7-8.2-5.7s-.2 5.9-6 5.7c-5.8-.1-7.4-3.7-7.4-3.7s-7.7-.5-8.1-9.6c-.3-9 9-14.8 9-14.8h8.4c0 .3 4.8 1.8 4.9 9.9z"/><path id="XMLID_122_" class="st6" d="M32.6 158.5c.8.3 1.8.4 2.7.2 3.5-.7 12.5-3 11.9-8-.7-6.2-3.4-13.6-8.5-13.9-5.1-.3-15.9-2.8-16 5.2-.1 7.9 4.4 9.3 4.4 12-.1 2 3.5 3.7 5.5 4.5z"/><path id="XMLID_121_" class="st6" d="M73.8 99.2s-13.1-.6-13.9 3.2c-.8 3.8-14.9-3.5-15.2-13-.1-4.6.6-7 1.4-8.3.9-1.5 1.1-3.3.6-4.9l-1.1-3.3c-.1-.4-.2-.7-.2-1.1-.3-2.5-.7-11.9 8.9-11.9 3.1 0 5.4.2 7 .4 2.2.3 4.5-.3 5.9-2 .6-.8 1.5-1.2 2.7-.9 3.4 1 7.1 5.3 7.6 11.4.3 4.2 2.3 6.4 3.5 7.4.7.6 1.3 1.3 1.7 2.1.9 2 2.2 5.3.8 7.3-2 2.9-10.7 2.3-8.3 4.8 2.9 2.8 4.5 5.2-1.4 8.8z"/></g><g id="Calque_19_-_copie_2"><path id="XMLID_156_" class="st6" d="m132.6 51.1-2.8-4.7s-15.3-3-15.1-14.4 9-13.4 9-13.4 1.8-7 9-6.2c7.2.8 7.4 5.3 7.4 5.3s7.6 3.2 7.6 7 3.2 3.5 3 7.1c-.2 3.5-4.2 7.1-4.2 7.1s1.7 6.6-2.5 8.1-8.7 1.1-8.7 1.1l-2.7 3z"/><path id="XMLID_153_" class="st6" d="M198.1 38.7s-4.8-2.8-5.8-7.6 2.9-6.3 2.9-6.3l-.1-3.5 1.8-1.3 1.1-2.4s15.7-4.6 16.4 4.1c0 0 2.9 0 3.5 4.2.6 4.2 0 5.3 0 5.3s6.6-1.1 8.4 5.8c1.8 6.9-3.1 7.7-3.1 7.7S221.3 51 209 51c-12.3 0-11.3-6.5-11.3-6.5l.4-5.8z"/><path id="XMLID_128_" class="st6" d="M250.1 82.9s-4.1-8.2 4.5-8.2c8.5 0 10.7 2.3 10.7 2.3s4.8-.4 3.7 8.7c-1.1 9-4.7 7.8-4.7 7.8s-3.5 4.5-11.3 2.6c-7.8-1.8-7.1-8.9-7.1-8.9s6.8-1.7 4.2-4.3z"/><path id="XMLID_127_" class="st6" d="M258.3 136.9s-5.2-1.1-3.4-5.7c1.8-4.6 6.1-3.3 6.1-3.3s.9-3.9 7.6-4.2c6.6-.3 9.9 9 9.9 9s.1 6.9-5.7 7.2c-.3 3 .1 8.1-5.2 8.3-5.2.2-8.8-1-9.2-5-.4-4.1-.1-6.3-.1-6.3z"/><path id="XMLID_126_" class="st6" d="M247.4 194.1s.3-2.7 5-2.7 5.2 4.4 5.2 4.4.7 5.8-4 5.7c-.5 4.6-.7 9.6-7.1 10.5-6.4.9-6.7-2.1-6.7-2.1s-3.6 0-3.6-3 3-3.4 3-3.4-5.3.6-5.2-4.8c.1-5.3.5-9.6 5.2-9.3 4.7.3 8.1 1.8 8.2 4.7z"/><path id="XMLID_125_" class="st6" d="M165.8 220.3s.7-9.1 8.1-7.9c7.3 1.2 15 8.1 12.1 13.3-2.8 5.2-7.5 8.2-7.5 8.2s4.9 12.3-10.8 13.6c-15.7 1.3-22.3-7-22.2-11.5.1-4.5-1.2-18.1 7.8-18.3 9-.1 11.4 0 12.5 2.6z"/><path id="XMLID_124_" class="st6" d="M89 204.4s1.1-6.7 4.9-7.3c3.9-.6 3.4-6.1 7.3-5.2 3.9 1 4.8 2 4.4 5-.4 3-1.5 12.6.1 13.6 1.6 1.1 0 5.9 0 5.9s.8 6.7-9.3 6.2c-10.1-.4-8.2-5.7-8.2-5.7s-.2 5.9-6 5.7c-5.8-.1-7.4-3.7-7.4-3.7s-7.7-.5-8.1-9.6c-.3-9 9-14.8 9-14.8h8.4c0 .3 4.8 1.8 4.9 9.9z"/><path id="XMLID_123_" class="st6" d="M32.6 158.5c.8.3 1.8.4 2.7.2 3.5-.7 12.5-3 11.9-8-.7-6.2-3.4-13.6-8.5-13.9-5.1-.3-15.9-2.8-16 5.2-.1 7.9 4.4 9.3 4.4 12-.1 2 3.5 3.7 5.5 4.5z"/><path id="XMLID_96_" class="st6" d="M73.8 99.2s-13.1-.6-13.9 3.2c-.8 3.8-14.9-3.5-15.2-13-.1-4.6.6-7 1.4-8.3.9-1.5 1.1-3.3.6-4.9l-1.1-3.3c-.1-.4-.2-.7-.2-1.1-.3-2.5-.7-11.9 8.9-11.9 3.1 0 5.4.2 7 .4 2.2.3 4.5-.3 5.9-2 .6-.8 1.5-1.2 2.7-.9 3.4 1 7.1 5.3 7.6 11.4.3 4.2 2.3 6.4 3.5 7.4.7.6 1.3 1.3 1.7 2.1.9 2 2.2 5.3.8 7.3-2 2.9-10.7 2.3-8.3 4.8 2.9 2.8 4.5 5.2-1.4 8.8z"/><path id="XMLID_95_" class="st7" d="M63.4 65.9s-6.4-4.7-10.5.5-1.8 9.6-1.8 9.6-.2-6.7 4-9.4c4.3-2.6 8.3-.7 8.3-.7z"/><path id="XMLID_50_" class="st7" d="M78.5 199.5s-7 3.8-4.1 9.7c2.8 5.9 7.9 5.9 7.9 5.9s-6.2-2.7-6.7-7.7 2.9-7.9 2.9-7.9z"/><path id="XMLID_46_" class="st7" d="M219.8 43.9s3.3-7.2-2.6-10.2c-5.8-2.9-9.9.1-9.9.1s6.5-1.6 10 2.1c3.5 3.6 2.5 8 2.5 8z"/><path id="XMLID_45_" class="st7" d="M150.3 230.9s-3.7 7 1.9 10.3c5.6 3.3 9.9.5 9.9.5s-6.6 1.2-9.8-2.7-2-8.1-2-8.1z"/></g></g></svg>