<?xml version="1.0" encoding="utf-8"?>
<!-- Generator: Adobe Illustrator 19.0.0, SVG Export Plug-In . SVG Version: 6.00 Build 0)  -->
<svg version="1.0" xmlns="http://www.w3.org/2000/svg" xmlns:xlink="http://www.w3.org/1999/xlink" x="0px" y="0px" width="300px" height="260px"
	 viewBox="0 0 300 260" style="enable-background:new 0 0 300 260;" xml:space="preserve">
<style type="text/css">
	.st0{display:none;}
	.st1{display:inline;fill:#009444;}
	.st2{display:inline;}
	.st3{fill:none;stroke:#333333;stroke-width:7;stroke-miterlimit:10;}
	.st4{fill:#FFFFFF;stroke:#B4B4B5;stroke-width:12;stroke-miterlimit:10;}
	.st5{fill:#FFFFFF;stroke:#E8E8E8;stroke-width:6;stroke-miterlimit:10;}
	.st6{fill:#FFFFFF;}
	.st7{fill:#B5B5B6;}
	.st8{fill:none;stroke:#B4B4B5;stroke-width:5;stroke-miterlimit:10;}
	.st9{fill:#EAEAEA;}
	.st10{fill:#009444;}
	.st11{fill:#E5E5E5;}
	.st12{fill:#E3E5E4;}
	.st13{display:inline;fill:none;stroke:#D3D3D3;stroke-miterlimit:10;}
	.st14{display:inline;fill:#E5E5E5;}
	.st15{display:inline;fill:#FFFFFF;}
	.st16{display:inline;fill:#FDFDFE;}
	.st17{display:inline;fill:#B5B5B6;}
	.st18{fill:none;stroke:#B5B5B6;stroke-width:5;stroke-miterlimit:10;}
	.st19{fill:#DCDBDB;}
	.st20{fill:#F7F7F7;}
	.st21{fill:#EDEDED;}
	.st22{display:inline;fill:#EDEDED;}
	.st23{display:inline;fill:none;stroke:#B5B5B6;stroke-width:5;stroke-miterlimit:10;}
	.st24{display:inline;fill:#EAEAEA;}
	.st25{fill:#F4F4F4;stroke:#B5B5B6;stroke-width:5;stroke-miterlimit:10;}
	.st26{fill:#F4F4F4;}
	.st27{display:none;fill:#B5B5B6;}
	.st28{display:inline;fill:none;stroke:#B4B4B5;stroke-width:5;stroke-miterlimit:10;}
	.st29{display:inline;fill:#E8E8E8;}
	.st30{fill:#C6C6C5;}
</style>
<g id="圖層_2" class="st0">
	<rect id="XMLID_1_" class="st1" width="300" height="260"/>
</g>
<g id="ceil" class="st0">
	<g id="圖層_23_2_" class="st2">
		<g id="XMLID_118_">
			<path id="XMLID_10_" class="st3" d="M210.1,257.2L89.6,257c-9.4,0-18.2-4.9-22.8-12.8L6.6,142.8c-4.7-8-4.7-17.7,0-25.7
				L66.9,15.6c4.8-8,13.5-12.8,22.9-12.8L210.4,3c9.4,0,18.2,4.9,22.8,12.8l60.2,101.4c4.7,8,4.7,17.7,0,25.7l-60.4,101.4
				C228.3,252.3,219.6,257.2,210.1,257.2z"/>
		</g>
	</g>
</g>
<g id="cloud7" class="st0">
	<g id="Calque_19" class="st2">
		<path id="XMLID_109_" class="st4" d="M131.2,44.7l-3.1-5.1c0,0-16.5-3.3-16.3-15.5c0.2-12.3,9.7-14.5,9.7-14.5s1.9-7.6,9.7-6.7
			c7.8,0.8,8,5.7,8,5.7s8.2,3.5,8.2,7.6s3.5,3.8,3.3,7.6s-4.5,7.7-4.5,7.7s1.8,7.2-2.7,8.8c-4.5,1.6-9.4,1.2-9.4,1.2L131.2,44.7z"/>
		<path id="XMLID_110_" class="st4" d="M202,31.3c0,0-5.2-3-6.2-8.2c-1.1-5.2,3.1-6.8,3.1-6.8l-0.1-3.8l2-1.4l1.2-2.6
			c0,0,17-5,17.7,4.4c0,0,3.2,0,3.8,4.5s0,5.8,0,5.8s7.1-1.2,9.1,6.2c2,7.4-3.3,8.3-3.3,8.3s-2,6.8-15.4,6.8s-12.2-7-12.2-7
			L202,31.3z"/>
		<path id="XMLID_111_" class="st4" d="M258.1,79c0,0-4.4-8.8,4.8-8.8c9.2,0,11.6,2.5,11.6,2.5s5.2-0.4,4,9.4s-5.1,8.5-5.1,8.5
			s-3.8,4.8-12.2,2.9c-8.5-2-7.7-9.6-7.7-9.6S261,81.9,258.1,79z"/>
		<path id="XMLID_51_" class="st4" d="M267.1,137.5c0,0-5.6-1.2-3.7-6.1c1.9-4.9,6.6-3.6,6.6-3.6s1-4.3,8.2-4.5
			c7.2-0.3,10.7,9.7,10.7,9.7s0.1,7.5-6.1,7.8c-0.4,3.2,0.1,8.7-5.6,8.9c-5.7,0.2-9.5-1.1-10-5.4
			C266.7,139.9,267.1,137.5,267.1,137.5z"/>
		<path id="XMLID_112_" class="st4" d="M255.3,199.3c0,0,0.3-2.9,5.4-2.9c5.1,0,5.6,4.8,5.6,4.8s0.8,6.3-4.3,6.2
			c-0.5,5-0.7,10.3-7.6,11.3c-6.9,1-7.2-2.3-7.2-2.3s-3.8,0-3.8-3.3s3.3-3.7,3.3-3.7s-5.8,0.6-5.7-5.2c0.1-5.8,0.5-10.3,5.6-10
			C251.5,194.5,255.2,196.2,255.3,199.3z"/>
		<path id="XMLID_114_" class="st4" d="M167,227.6c0,0,0.8-9.9,8.7-8.6s16.2,8.7,13.1,14.4c-3.1,5.7-8.1,8.9-8.1,8.9
			s5.3,13.3-11.7,14.7c-17,1.5-24.1-7.6-24-12.5s-1.3-19.6,8.4-19.8C163.3,224.7,165.9,224.8,167,227.6z"/>
		<path id="XMLID_115_" class="st4" d="M84,210.5c0,0,1.2-7.2,5.3-7.9c4.2-0.7,3.7-6.6,7.9-5.6s5.2,2.2,4.8,5.5
			c-0.5,3.3-1.7,13.6,0.1,14.7c1.8,1.2,0,6.4,0,6.4s0.8,7.2-10.1,6.8c-10.9-0.5-8.8-6.2-8.8-6.2s-0.2,6.4-6.5,6.2s-8-4-8-4
			s-8.4-0.6-8.7-10.3s9.8-16,9.8-16h9.1C78.7,200,83.8,201.7,84,210.5z"/>
		<path id="XMLID_116_" class="st4" d="M23,160.8c0.9,0.4,1.9,0.4,2.9,0.2c3.8-0.8,13.5-3.3,12.8-8.7c-0.8-6.7-3.6-14.8-9.2-15
			c-5.5-0.3-17.2-3.1-17.3,5.7c-0.1,8.6,4.8,10,4.8,13C17,158.2,20.9,160,23,160.8z"/>
		<path id="XMLID_113_" class="st4" d="M67.5,96.7c0,0-14.2-0.7-15,3.4c-0.8,4.1-16.1-3.8-16.4-14.1c-0.1-5,0.7-7.6,1.6-9
			c1-1.6,1.2-3.5,0.6-5.3l-1.2-3.6c-0.1-0.4-0.2-0.8-0.3-1.2c-0.3-2.7-0.7-12.8,9.6-12.8c3.4,0,5.8,0.2,7.6,0.4
			c2.4,0.3,4.9-0.3,6.4-2.2c0.7-0.8,1.6-1.3,2.9-0.9c3.7,1.1,7.6,5.7,8.2,12.3c0.4,4.5,2.5,6.9,3.8,7.9c0.8,0.6,1.4,1.4,1.8,2.3
			c1,2.1,2.4,5.8,0.9,7.9c-2.2,3.1-11.5,2.5-9,5.2C72.2,90.3,74,92.9,67.5,96.7z"/>
	</g>
	<g id="Calque_19_-_copie" class="st2">
		<path id="XMLID_183_" class="st5" d="M131.2,44.7l-3.1-5.1c0,0-16.5-3.3-16.3-15.5c0.2-12.3,9.7-14.5,9.7-14.5s1.9-7.6,9.7-6.7
			c7.8,0.8,8,5.7,8,5.7s8.2,3.5,8.2,7.6s3.5,3.8,3.3,7.6s-4.5,7.7-4.5,7.7s1.8,7.2-2.7,8.8c-4.5,1.6-9.4,1.2-9.4,1.2L131.2,44.7z"/>
		<path id="XMLID_182_" class="st5" d="M202,31.3c0,0-5.2-3-6.2-8.2c-1.1-5.2,3.1-6.8,3.1-6.8l-0.1-3.8l2-1.4l1.2-2.6
			c0,0,17-5,17.7,4.4c0,0,3.2,0,3.8,4.5s0,5.8,0,5.8s7.1-1.2,9.1,6.2c2,7.4-3.3,8.3-3.3,8.3s-2,6.8-15.4,6.8s-12.2-7-12.2-7
			L202,31.3z"/>
		<path id="XMLID_181_" class="st5" d="M258.1,79c0,0-4.4-8.8,4.8-8.8c9.2,0,11.6,2.5,11.6,2.5s5.2-0.4,4,9.4s-5.1,8.5-5.1,8.5
			s-3.8,4.8-12.2,2.9c-8.5-2-7.7-9.6-7.7-9.6S261,81.9,258.1,79z"/>
		<path id="XMLID_180_" class="st5" d="M267.1,137.5c0,0-5.6-1.2-3.7-6.1c1.9-4.9,6.6-3.6,6.6-3.6s1-4.3,8.2-4.5
			c7.2-0.3,10.7,9.7,10.7,9.7s0.1,7.5-6.1,7.8c-0.4,3.2,0.1,8.7-5.6,8.9c-5.7,0.2-9.5-1.1-10-5.4
			C266.7,139.9,267.1,137.5,267.1,137.5z"/>
		<path id="XMLID_179_" class="st5" d="M255.3,199.3c0,0,0.3-2.9,5.4-2.9c5.1,0,5.6,4.8,5.6,4.8s0.8,6.3-4.3,6.2
			c-0.5,5-0.7,10.3-7.6,11.3c-6.9,1-7.2-2.3-7.2-2.3s-3.8,0-3.8-3.3s3.3-3.7,3.3-3.7s-5.8,0.6-5.7-5.2c0.1-5.8,0.5-10.3,5.6-10
			C251.5,194.5,255.2,196.2,255.3,199.3z"/>
		<path id="XMLID_178_" class="st5" d="M167,227.6c0,0,0.8-9.9,8.7-8.6s16.2,8.7,13.1,14.4c-3.1,5.7-8.1,8.9-8.1,8.9
			s5.3,13.3-11.7,14.7c-17,1.5-24.1-7.6-24-12.5s-1.3-19.6,8.4-19.8C163.3,224.7,165.9,224.8,167,227.6z"/>
		<path id="XMLID_177_" class="st5" d="M84,210.5c0,0,1.2-7.2,5.3-7.9c4.2-0.7,3.7-6.6,7.9-5.6s5.2,2.2,4.8,5.5
			c-0.5,3.3-1.7,13.6,0.1,14.7c1.8,1.2,0,6.4,0,6.4s0.8,7.2-10.1,6.8c-10.9-0.5-8.8-6.2-8.8-6.2s-0.2,6.4-6.5,6.2s-8-4-8-4
			s-8.4-0.6-8.7-10.3s9.8-16,9.8-16h9.1C78.7,200,83.8,201.7,84,210.5z"/>
		<path id="XMLID_176_" class="st5" d="M23,160.8c0.9,0.4,1.9,0.4,2.9,0.2c3.8-0.8,13.5-3.3,12.8-8.7c-0.8-6.7-3.6-14.8-9.2-15
			c-5.5-0.3-17.2-3.1-17.3,5.7c-0.1,8.6,4.8,10,4.8,13C17,158.2,20.9,160,23,160.8z"/>
		<path id="XMLID_175_" class="st5" d="M67.5,96.7c0,0-14.2-0.7-15,3.4c-0.8,4.1-16.1-3.8-16.4-14.1c-0.1-5,0.7-7.6,1.6-9
			c1-1.6,1.2-3.5,0.6-5.3l-1.2-3.6c-0.1-0.4-0.2-0.8-0.3-1.2c-0.3-2.7-0.7-12.8,9.6-12.8c3.4,0,5.8,0.2,7.6,0.4
			c2.4,0.3,4.9-0.3,6.4-2.2c0.7-0.8,1.6-1.3,2.9-0.9c3.7,1.1,7.6,5.7,8.2,12.3c0.4,4.5,2.5,6.9,3.8,7.9c0.8,0.6,1.4,1.4,1.8,2.3
			c1,2.1,2.4,5.8,0.9,7.9c-2.2,3.1-11.5,2.5-9,5.2C72.2,90.3,74,92.9,67.5,96.7z"/>
	</g>
	<g id="Calque_19_-_copie_3" class="st2">
		<path id="XMLID_150_" class="st6" d="M131.2,44.7l-3.1-5.1c0,0-16.5-3.3-16.3-15.5c0.2-12.3,9.7-14.5,9.7-14.5s1.9-7.6,9.7-6.7
			c7.8,0.8,8,5.7,8,5.7s8.2,3.5,8.2,7.6s3.5,3.8,3.3,7.6s-4.5,7.7-4.5,7.7s1.8,7.2-2.7,8.8c-4.5,1.6-9.4,1.2-9.4,1.2L131.2,44.7z"/>
		<path id="XMLID_149_" class="st6" d="M202,31.3c0,0-5.2-3-6.2-8.2c-1.1-5.2,3.1-6.8,3.1-6.8l-0.1-3.8l2-1.4l1.2-2.6
			c0,0,17-5,17.7,4.4c0,0,3.2,0,3.8,4.5s0,5.8,0,5.8s7.1-1.2,9.1,6.2c2,7.4-3.3,8.3-3.3,8.3s-2,6.8-15.4,6.8s-12.2-7-12.2-7
			L202,31.3z"/>
		<path id="XMLID_148_" class="st6" d="M258.1,79c0,0-4.4-8.8,4.8-8.8c9.2,0,11.6,2.5,11.6,2.5s5.2-0.4,4,9.4s-5.1,8.5-5.1,8.5
			s-3.8,4.8-12.2,2.9c-8.5-2-7.7-9.6-7.7-9.6S261,81.9,258.1,79z"/>
		<path id="XMLID_147_" class="st6" d="M267.1,137.5c0,0-5.6-1.2-3.7-6.1c1.9-4.9,6.6-3.6,6.6-3.6s1-4.3,8.2-4.5
			c7.2-0.3,10.7,9.7,10.7,9.7s0.1,7.5-6.1,7.8c-0.4,3.2,0.1,8.7-5.6,8.9c-5.7,0.2-9.5-1.1-10-5.4
			C266.7,139.9,267.1,137.5,267.1,137.5z"/>
		<path id="XMLID_146_" class="st6" d="M255.3,199.3c0,0,0.3-2.9,5.4-2.9c5.1,0,5.6,4.8,5.6,4.8s0.8,6.3-4.3,6.2
			c-0.5,5-0.7,10.3-7.6,11.3c-6.9,1-7.2-2.3-7.2-2.3s-3.8,0-3.8-3.3s3.3-3.7,3.3-3.7s-5.8,0.6-5.7-5.2c0.1-5.8,0.5-10.3,5.6-10
			C251.5,194.5,255.2,196.2,255.3,199.3z"/>
		<path id="XMLID_145_" class="st6" d="M167,227.6c0,0,0.8-9.9,8.7-8.6s16.2,8.7,13.1,14.4c-3.1,5.7-8.1,8.9-8.1,8.9
			s5.3,13.3-11.7,14.7c-17,1.5-24.1-7.6-24-12.5s-1.3-19.6,8.4-19.8C163.3,224.7,165.9,224.8,167,227.6z"/>
		<path id="XMLID_129_" class="st6" d="M84,210.5c0,0,1.2-7.2,5.3-7.9c4.2-0.7,3.7-6.6,7.9-5.6s5.2,2.2,4.8,5.5
			c-0.5,3.3-1.7,13.6,0.1,14.7c1.8,1.2,0,6.4,0,6.4s0.8,7.2-10.1,6.8c-10.9-0.5-8.8-6.2-8.8-6.2s-0.2,6.4-6.5,6.2s-8-4-8-4
			s-8.4-0.6-8.7-10.3s9.8-16,9.8-16h9.1C78.7,200,83.8,201.7,84,210.5z"/>
		<path id="XMLID_122_" class="st6" d="M23,160.8c0.9,0.4,1.9,0.4,2.9,0.2c3.8-0.8,13.5-3.3,12.8-8.7c-0.8-6.7-3.6-14.8-9.2-15
			s-17.2-3.1-17.3,5.7c-0.1,8.6,4.8,10,4.8,13C17,158.2,20.9,160,23,160.8z"/>
		<path id="XMLID_121_" class="st6" d="M67.5,96.7c0,0-14.2-0.7-15,3.4c-0.8,4.1-16.1-3.8-16.4-14.1c-0.1-5,0.7-7.6,1.6-9
			c1-1.6,1.2-3.5,0.6-5.3l-1.2-3.6c-0.1-0.4-0.2-0.8-0.3-1.2c-0.3-2.7-0.7-12.8,9.6-12.8c3.4,0,5.8,0.2,7.6,0.4
			c2.4,0.3,4.9-0.3,6.4-2.2c0.7-0.8,1.6-1.3,2.9-0.9c3.7,1.1,7.6,5.7,8.2,12.3c0.4,4.5,2.5,6.9,3.8,7.9c0.8,0.6,1.4,1.4,1.8,2.3
			c1,2.1,2.4,5.8,0.9,7.9c-2.2,3.1-11.5,2.5-9,5.2C72.2,90.3,74,92.9,67.5,96.7z"/>
	</g>
	<g id="Calque_19_-_copie_2" class="st2">
		<path id="XMLID_156_" class="st6" d="M131.2,44.7l-3.1-5.1c0,0-16.5-3.3-16.3-15.5c0.2-12.3,9.7-14.5,9.7-14.5s1.9-7.6,9.7-6.7
			c7.8,0.8,8,5.7,8,5.7s8.2,3.5,8.2,7.6s3.5,3.8,3.3,7.6s-4.5,7.7-4.5,7.7s1.8,7.2-2.7,8.8c-4.5,1.6-9.4,1.2-9.4,1.2L131.2,44.7z"/>
		<path id="XMLID_153_" class="st6" d="M202,31.3c0,0-5.2-3-6.2-8.2c-1.1-5.2,3.1-6.8,3.1-6.8l-0.1-3.8l2-1.4l1.2-2.6
			c0,0,17-5,17.7,4.4c0,0,3.2,0,3.8,4.5s0,5.8,0,5.8s7.1-1.2,9.1,6.2c2,7.4-3.3,8.3-3.3,8.3s-2,6.8-15.4,6.8s-12.2-7-12.2-7
			L202,31.3z"/>
		<path id="XMLID_128_" class="st6" d="M258.1,79c0,0-4.4-8.8,4.8-8.8c9.2,0,11.6,2.5,11.6,2.5s5.2-0.4,4,9.4s-5.1,8.5-5.1,8.5
			s-3.8,4.8-12.2,2.9c-8.5-2-7.7-9.6-7.7-9.6S261,81.9,258.1,79z"/>
		<path id="XMLID_127_" class="st6" d="M267.1,137.5c0,0-5.6-1.2-3.7-6.1c1.9-4.9,6.6-3.6,6.6-3.6s1-4.3,8.2-4.5
			c7.2-0.3,10.7,9.7,10.7,9.7s0.1,7.5-6.1,7.8c-0.4,3.2,0.1,8.7-5.6,8.9c-5.7,0.2-9.5-1.1-10-5.4
			C266.7,139.9,267.1,137.5,267.1,137.5z"/>
		<path id="XMLID_126_" class="st6" d="M255.3,199.3c0,0,0.3-2.9,5.4-2.9c5.1,0,5.6,4.8,5.6,4.8s0.8,6.3-4.3,6.2
			c-0.5,5-0.7,10.3-7.6,11.3c-6.9,1-7.2-2.3-7.2-2.3s-3.8,0-3.8-3.3s3.3-3.7,3.3-3.7s-5.8,0.6-5.7-5.2c0.1-5.8,0.5-10.3,5.6-10
			C251.5,194.5,255.2,196.2,255.3,199.3z"/>
		<path id="XMLID_125_" class="st6" d="M167,227.6c0,0,0.8-9.9,8.7-8.6s16.2,8.7,13.1,14.4c-3.1,5.7-8.1,8.9-8.1,8.9
			s5.3,13.3-11.7,14.7c-17,1.5-24.1-7.6-24-12.5s-1.3-19.6,8.4-19.8C163.3,224.7,165.9,224.8,167,227.6z"/>
		<path id="XMLID_124_" class="st6" d="M84,210.5c0,0,1.2-7.2,5.3-7.9c4.2-0.7,3.7-6.6,7.9-5.6s5.2,2.2,4.8,5.5
			c-0.5,3.3-1.7,13.6,0.1,14.7c1.8,1.2,0,6.4,0,6.4s0.8,7.2-10.1,6.8c-10.9-0.5-8.8-6.2-8.8-6.2s-0.2,6.4-6.5,6.2s-8-4-8-4
			s-8.4-0.6-8.7-10.3s9.8-16,9.8-16h9.1C78.7,200,83.8,201.7,84,210.5z"/>
		<path id="XMLID_123_" class="st6" d="M23,160.8c0.9,0.4,1.9,0.4,2.9,0.2c3.8-0.8,13.5-3.3,12.8-8.7c-0.8-6.7-3.6-14.8-9.2-15
			s-17.2-3.1-17.3,5.7c-0.1,8.6,4.8,10,4.8,13C17,158.2,20.9,160,23,160.8z"/>
		<path id="XMLID_96_" class="st6" d="M67.5,96.7c0,0-14.2-0.7-15,3.4c-0.8,4.1-16.1-3.8-16.4-14.1c-0.1-5,0.7-7.6,1.6-9
			c1-1.6,1.2-3.5,0.6-5.3l-1.2-3.6c-0.1-0.4-0.2-0.8-0.3-1.2c-0.3-2.7-0.7-12.8,9.6-12.8c3.4,0,5.8,0.2,7.6,0.4
			c2.4,0.3,4.9-0.3,6.4-2.2c0.7-0.8,1.6-1.3,2.9-0.9c3.7,1.1,7.6,5.7,8.2,12.3c0.4,4.5,2.5,6.9,3.8,7.9c0.8,0.6,1.4,1.4,1.8,2.3
			c1,2.1,2.4,5.8,0.9,7.9c-2.2,3.1-11.5,2.5-9,5.2C72.2,90.3,74,92.9,67.5,96.7z"/>
		<path id="XMLID_95_" class="st7" d="M56.4,60.7c0,0-6.9-5-11.3,0.5s-2,10.5-2,10.5s-0.3-7.3,4.4-10.1S56.4,60.7,56.4,60.7z"/>
		<path id="XMLID_50_" class="st7" d="M72.7,205.2c0,0-7.6,4.1-4.5,10.4c3.1,6.4,8.6,6.4,8.6,6.4s-6.7-2.9-7.2-8.3
			C69,208.2,72.7,205.2,72.7,205.2z"/>
		<path id="XMLID_46_" class="st7" d="M225.5,36.9c0,0,3.5-7.8-2.8-11S212,26,212,26s7.1-1.7,10.8,2.2
			C226.5,32.2,225.5,36.9,225.5,36.9z"/>
		<path id="XMLID_45_" class="st7" d="M150.2,239c0,0-4.1,7.6,2,11.2s10.7,0.6,10.7,0.6s-7.2,1.2-10.6-3S150.2,239,150.2,239z"/>
	</g>
</g>
<g id="cloud6" class="st0">
	<g id="Calque_14" class="st2">
		<path id="XMLID_44_" class="st8" d="M67.3,117.1c0,0,8.5,12.3,5.7,22.5c-2.7,10.1-8.2,18.6-23.8,19.4s-27.1-17.2-26.8-24.9
			s7.7-18.3,11.2-20c0,0-10.2-12.1-7-24.9s17.6-17,17.6-17s-6.8-38.6,12.2-38.5c19.1,0.1,21.2,4,21.2,4s15.1-12.9,22.8-1.4
			s1.6,22.5,1.6,22.5s19,4.6,12.7,24.1C108.5,102.6,92,95.3,92,95.3s12.3,9.2,11.5,20C99.6,113.3,65.8,109.6,67.3,117.1z"/>
		<path id="XMLID_85_" class="st6" d="M67.3,117.1c0,0,8.5,12.3,5.7,22.5c-2.7,10.1-8.2,18.6-23.8,19.4s-27.1-17.2-26.8-24.9
			s7.7-18.3,11.2-20c0,0-10.2-12.1-7-24.9s17.6-17,17.6-17s-6.8-38.6,12.2-38.5c19.1,0.1,21.2,4,21.2,4s15.1-12.9,22.8-1.4
			s1.6,22.5,1.6,22.5s19,4.6,12.7,24.1C108.5,102.6,92,95.3,92,95.3s12.3,9.2,11.5,20C99.6,113.3,65.8,109.6,67.3,117.1z"/>
		<g id="XMLID_87_">
			<path id="XMLID_91_" class="st9" d="M110.6,67.1c0,0,1.7,0.4,3.9,1.4c-0.8-1.6-1.7-2.9-2.8-4C111.2,66.1,110.6,67.1,110.6,67.1z"
				/>
			<path id="XMLID_92_" class="st9" d="M29.4,139.7c0.3-7.4,7.8-17.7,11.4-19.3c0,0-10.4-11.7-7.2-24.1C36.9,84,51.6,80,51.6,80
				s-7-37.3,12.5-37.2c19.5,0.1,21.6,3.9,21.6,3.9s9.4-7.5,17.2-5.6c-0.6-1.6-1.4-3.1-2.4-4.7c-7.7-11.5-22.8,1.4-22.8,1.4
				s-2.1-3.9-21.2-4c-19.1-0.1-12.2,38.5-12.2,38.5s-14.4,4.2-17.6,17c-3.2,12.8,7,24.9,7,24.9c-3.6,1.6-11,12.3-11.2,20
				c-0.2,5.9,6.5,17.8,16.6,22.7C32.9,151.3,29.2,143.9,29.4,139.7z"/>
		</g>
		<path id="XMLID_86_" class="st7" d="M88.9,55.5c0,0-7.2-9.2-15.1-3.6s-6.6,13-6.6,13s2.4-9.6,9.6-11.6
			C83.9,51.3,88.9,55.5,88.9,55.5z"/>
		<path id="XMLID_97_" class="st7" d="M58.8,89.3c0,0-11.7-1.1-13,8.5c-1.3,9.6,4.9,13.7,4.9,13.7s-5.4-8.4-1.9-14.9
			C52.3,90,58.8,89.3,58.8,89.3z"/>
		<path id="XMLID_98_" class="st7" d="M51.2,129.9c0,0-11.7-1.1-13,8.5c-1.3,9.6,4.9,13.7,4.9,13.7s-5.4-8.4-1.9-14.9
			C44.7,130.6,51.2,129.9,51.2,129.9z"/>
	</g>
	<g id="Calque_15" class="st2">
		<path id="XMLID_165_" class="st10" d="M189.2,75.8l2,6.2l29-18.3c0,0,0.5,11.3,10,13.3c9.5,2,25-2.5,28.2-14.5s0.8-39.7-28.8-26.2
			c-2.1-2.2-4.5-4.6-4.5-4.6l-7.8,0.9l0.4-11.9c0,0-8.2-15.1-25.7-12s-21.4,9.3-21.4,9.3S150.4-4,135,8.9s-1.1,34.3,11.4,36.7
			s14.5,1.6,14.5,1.6s0.2,3.4,3.7,3.8c3.6,0.5,15.6,0.1,15.6,0.1l1.5,24.6L189.2,75.8z"/>
		<path id="XMLID_161_" class="st8" d="M189.2,75.8l2,6.2l29-18.3c0,0,0.5,11.3,10,13.3c9.5,2,25-2.5,28.2-14.5s0.8-39.7-28.8-26.2
			c-2.1-2.2-4.5-4.6-4.5-4.6l-7.8,0.9l0.4-11.9c0,0-8.2-15.1-25.7-12s-21.4,9.3-21.4,9.3S150.4-4,135,8.9s-1.1,34.3,11.4,36.7
			s14.5,1.6,14.5,1.6s0.2,3.4,3.7,3.8c3.6,0.5,15.6,0.1,15.6,0.1l1.5,24.6L189.2,75.8z"/>
		<path id="XMLID_160_" class="st6" d="M189.2,75.8l2,6.2l29-18.3c0,0,0.5,11.3,10,13.3c9.5,2,25-2.5,28.2-14.5s0.8-39.7-28.8-26.2
			c-2.1-2.2-4.5-4.6-4.5-4.6l-7.8,0.9l0.4-11.9c0,0-8.2-15.1-25.7-12s-21.4,9.3-21.4,9.3S150.4-4,135,8.9s-1.1,34.3,11.4,36.7
			s14.5,1.6,14.5,1.6s0.2,3.4,3.7,3.8c3.6,0.5,15.6,0.1,15.6,0.1l1.5,24.6L189.2,75.8z"/>
		<path id="XMLID_159_" class="st9" d="M229.6,36.3c-2.1-2.2-4.5-4.6-4.5-4.6l-7.8,0.9l0.4-11.9c0,0-8.2-15.1-25.7-12
			c-17.5,3.1-21.4,9.3-21.4,9.3S150.4-4,135,8.9c-4.7,3.9-6.6,8.5-6.7,13.2c0.8-0.9,1.6-1.8,2.7-2.6c15.4-12.9,35.6,9.3,35.6,9.3
			s3.9-6.2,21.4-9.3s25.7,12,25.7,12l-0.4,11.9l7.8-0.9c0,0,2.4,2.4,4.5,4.6c26.5-12.1,31.2,8.7,29.6,21.9c1.5-1.8,2.6-3.9,3.2-6.3
			C261.6,50.5,259.3,22.8,229.6,36.3z"/>
		<path id="XMLID_158_" class="st7" d="M161.1,20.5c0,0-7.2-9.2-15.1-3.6s-6.6,13-6.6,13s2.4-9.6,9.6-11.6
			C156.1,16.2,161.1,20.5,161.1,20.5z"/>
		<path id="XMLID_157_" class="st7" d="M246.6,62.5c0,0,7.7-8.8,0.8-15.5c-7-6.7-14-4.1-14-4.1s9.9,0.6,13.2,7.2
			C249.8,56.8,246.6,62.5,246.6,62.5z"/>
	</g>
	<g id="Calque_16" class="st2">
		<path id="XMLID_72_" class="st8" d="M105,159l1.5,9.6l5.1,2.2v24.1h17.1l4.9,5.6l2.6,7.8c0,0,5.7-21.5,6.2-21.5s3.8,2.2,3.8,2.2
			l8.5,1.2c0,0,2.3,8.6,7.1,11.2c0,0,8.1-7.1,8.5-10s17.9-0.1,17.9-0.1s17.2,21.2-1.5,30.9c0,0,1.2,20.4-22,20.8
			S135,228.1,135,228.1s-3.3,16-29.3,8.5c-26-7.5-21.2-24.4-21.2-24.4s-42.7,2.3-38.5-25.1s31.1-19,31.1-19l11.2,11.2
			C88.3,179.4,105,166.6,105,159z"/>
		<path id="XMLID_101_" class="st6" d="M105,159l1.5,9.6l5.1,2.2v24.1h17.1l4.9,5.6l2.6,7.8c0,0,5.7-21.5,6.2-21.5s3.8,2.2,3.8,2.2
			l8.5,1.2c0,0,2.3,8.6,7.1,11.2c0,0,8.1-7.1,8.5-10s17.9-0.1,17.9-0.1s17.2,21.2-1.5,30.9c0,0,1.2,20.4-22,20.8
			S135,228.1,135,228.1s-3.3,16-29.3,8.5c-26-7.5-21.2-24.4-21.2-24.4s-42.7,2.3-38.5-25.1s31.1-19,31.1-19l11.2,11.2
			C88.3,179.4,105,166.6,105,159z"/>
		<path id="XMLID_107_" class="st11" d="M186.7,209.9c0,0,1.2,20.4-22,20.8S135,215.8,135,215.8s-3.3,16-29.3,8.5
			c-26-7.5-21.2-24.4-21.2-24.4s-32,1.7-37.8-15.6c-0.2,0.9-0.5,1.8-0.6,2.8c-4.2,27.4,38.5,25.1,38.5,25.1s-4.8,16.8,21.2,24.4
			c26,7.5,29.3-8.5,29.3-8.5s6.4,15.3,29.7,14.9s22-20.8,22-20.8c9.7-5,9.8-13.2,7.5-19.8C193,205.2,190.7,207.9,186.7,209.9z"/>
		<path id="XMLID_104_" class="st7" d="M158.9,217.3c0,0,6,10,14.5,5.4c8.5-4.6,8.2-12.1,8.2-12.1s-3.6,9.3-10.9,10.4
			S158.9,217.3,158.9,217.3z"/>
		<path id="XMLID_106_" class="st7" d="M101,208.8c0,0,0.8,11.7,10.4,11.5s12.8-7,12.8-7s-7.4,6.6-14.4,4.3S101,208.8,101,208.8z"/>
		<path id="XMLID_108_" class="st7" d="M67.1,171.3c0,0-11.6-1.3-13.1,8.2c-1.5,9.5,4.7,13.8,4.7,13.8s-5.2-8.5-1.6-15
			C60.6,171.9,67.1,171.3,67.1,171.3z"/>
	</g>
	<g id="Calque_17" class="st2">
		<path id="XMLID_105_" class="st8" d="M239.7,151.9c0,0-18.5-10.5-14.6-22.2c3.8-11.6,7.5-6.3,3.1-14.4c-4.4-8.1,0-22.7,10.4-22.2
			c10.4,0.5,10.5,4,10.5,4l1.5-11c0,0,28.7-7.9,36.1,7.1s7.8,38.6-14.2,44.5c-4.9,1.6,0.3,7.3,0.3,7.3s17.4,28.3-4.8,37.9
			c-5.7,11.8-4,19-4,19s-2.7,12-19.3,9.6c-16.6-2.5-18.6-18.3-18.6-18.3S213.7,181,215,168.4C216.4,155.9,239.7,151.9,239.7,151.9z"
			/>
		<path id="XMLID_103_" class="st6" d="M239.7,151.9c0,0-18.5-10.5-14.6-22.2c3.8-11.6,7.5-6.3,3.1-14.4c-4.4-8.1,0-22.7,10.4-22.2
			c10.4,0.5,10.5,4,10.5,4l1.5-11c0,0,28.7-7.9,36.1,7.1s7.8,38.6-14.2,44.5c-4.9,1.6,0.3,7.3,0.3,7.3s17.4,28.3-4.8,37.9
			c-5.7,11.8-4,19-4,19s-2.7,12-19.3,9.6c-16.6-2.5-18.6-18.3-18.6-18.3S213.7,181,215,168.4C216.4,155.9,239.7,151.9,239.7,151.9z"
			/>
		<g id="XMLID_99_">
			<path id="XMLID_102_" class="st12" d="M234.3,93.9c0.6,0.6,0.6,1.1,0.6,1.1l0.2-1.4C234.8,93.7,234.6,93.8,234.3,93.9z"/>
			<path id="XMLID_100_" class="st12" d="M272.5,137.8c22-5.9,21.6-29.4,14.2-44.5c-3.9-7.9-13.7-9.5-22.1-9.2
				c3.3,1.4,6.2,3.6,7.8,7.1c7.4,15.1,7.8,38.6-14.2,44.5c-4.9,1.6,0.3,7.3,0.3,7.3s17.4,28.3-4.8,37.9c-5.7,11.8-4,19-4,19
				s-1.9,8.1-11.7,9.7c1.9,0.9,4.1,1.7,6.7,2c16.6,2.5,19.3-9.6,19.3-9.6s-1.8-7.3,4-19c22.2-9.6,4.8-37.9,4.8-37.9
				S267.6,139.4,272.5,137.8z"/>
		</g>
		<path id="XMLID_93_" class="st7" d="M227.6,179.4c0,0,6,10,14.5,5.4c8.5-4.6,8.2-12.1,8.2-12.1s-3.6,9.3-10.9,10.4
			S227.6,179.4,227.6,179.4z"/>
		<path id="XMLID_52_" class="st7" d="M264.1,116.5c0,0,10.3-5.6,6-14.3c-4.3-8.7-11.8-8.6-11.8-8.6s9.1,3.9,9.9,11.3
			C269,112.3,264.1,116.5,264.1,116.5z"/>
	</g>
</g>
<g id="cloud5" class="st0">
	<path id="border_1_" class="st13" d="M156.3,61.6c0.1-5.3-6-5.4-6-5.4s3.9-1.4,0-6.8s-8.4-1-8.4-1s0.1-4.4-3.6-5.8
		s-6.5,1.6-6.5,1.6s-0.8-3.1-6.5-3.3s-7.3,4.9-7.3,4.9s-7.2-0.6-9.7,2.1c-2.5,2.7-0.6,6.5-0.6,6.5c-1.1-0.1-3.2,0.4-4.1,3.9
		s2.6,4.8,2.6,4.8s-3.6,3.1-3.5,7.6s5.4,3.8,5.4,3.8s-2.2,3.1,0.5,6.3s6.9,0.4,6.9,0.4s-1.8,3.8,3.3,5.8s6.4-1.9,6.4-1.9
		s1.5,3.8,5.9,3.3s4.5-5.2,4.5-5.2s2.5,4.4,7.6,2.2s4-5.9,4-5.9s4.1-0.6,5.9-4.4s-2.2-6.7-2.2-6.7S156.2,66.8,156.3,61.6z
		 M141.2,63.4c0,0-0.9,0.5-0.8,2.1s0.5,2.7,1.2,2.8c0,0-4,0.6-4.3,2.6s0.3,4.4,0.3,4.4s-0.7-1.5-3.9-1.1s-4.2,1.9-4.2,1.9
		s-0.3-1.6-2.9-1.5s-3,1.5-3,1.5s-0.4-2.6-2.1-3.3s-4.3,0-4.3,0s0.3-1.8-0.9-2.2s-3.8-0.2-3.8-0.2s2.8-1.6,3.2-3.5s-1.6-3.6-1.6-3.6
		s3,0.2,4.3-1.9s-0.3-3.8-0.3-3.8s4,0.3,5.4-1.4s0.7-5.6,0.7-5.6s2,2.1,3.9,1.9s2.4-2.1,2.4-2.1s0.3,1.3,1.2,1.4s2.7,0.1,2.7,0.1
		s-2.1,1.9-0.4,3.1s5.8,0.8,5.8,0.8s-0.2,1.7,0.6,2s2.4,0.7,2.4,0.7s-2.9,0.5-2.9,1.8S139.9,62.9,141.2,63.4z"/>
	<path id="effect_inside" class="st14" d="M156.3,61.6c0.1-5.3-6-5.4-6-5.4s3.9-1.4,0-6.8s-8.4-1-8.4-1s0.1-4.4-3.6-5.8
		s-6.5,1.6-6.5,1.6s-0.8-3.1-6.5-3.3s-7.3,4.9-7.3,4.9s-7.2-0.6-9.7,2.1c-2.5,2.7-0.6,6.5-0.6,6.5c-1.1-0.1-3.2,0.4-4.1,3.9
		s2.6,4.8,2.6,4.8s-3.6,3.1-3.5,7.6s5.4,3.8,5.4,3.8s-2.2,3.1,0.5,6.3s6.9,0.4,6.9,0.4s-1.8,3.8,3.3,5.8s6.4-1.9,6.4-1.9
		s1.5,3.8,5.9,3.3s4.5-5.2,4.5-5.2s2.5,4.4,7.6,2.2s4-5.9,4-5.9s4.1-0.6,5.9-4.4s-2.2-6.7-2.2-6.7S156.2,66.8,156.3,61.6z
		 M141.2,63.4c0,0-0.9,0.5-0.8,2.1s0.5,2.7,1.2,2.8c0,0-4,0.6-4.3,2.6s0.3,4.4,0.3,4.4s-0.7-1.5-3.9-1.1s-4.2,1.9-4.2,1.9
		s-0.3-1.6-2.9-1.5s-3,1.5-3,1.5s-0.4-2.6-2.1-3.3s-4.3,0-4.3,0s0.3-1.8-0.9-2.2s-3.8-0.2-3.8-0.2s2.8-1.6,3.2-3.5s-1.6-3.6-1.6-3.6
		s3,0.2,4.3-1.9s-0.3-3.8-0.3-3.8s4,0.3,5.4-1.4s0.7-5.6,0.7-5.6s2,2.1,3.9,1.9s2.4-2.1,2.4-2.1s0.3,1.3,1.2,1.4s2.7,0.1,2.7,0.1
		s-2.1,1.9-0.4,3.1s5.8,0.8,5.8,0.8s-0.2,1.7,0.6,2s2.4,0.7,2.4,0.7s-2.9,0.5-2.9,1.8S139.9,62.9,141.2,63.4z"/>
	<g id="effect" class="st2">
		<path id="XMLID_76_" class="st11" d="M141.3,59c0,0-0.2,0-0.4-0.1c-0.2,0.1-0.4,0.2-0.6,0.4C140.9,59.1,141.3,59,141.3,59z"/>
		<path id="XMLID_77_" class="st11" d="M133.2,53.8c0.3-0.4,0.6-0.7,0.6-0.7s-0.2,0-0.4,0C133.3,53.3,133.2,53.6,133.2,53.8z"/>
		<path id="XMLID_80_" class="st11" d="M156.3,61.6c0.1-5.3-6-5.4-6-5.4s3.9-1.4,0-6.8s-8.4-1-8.4-1s0.1-4.4-3.6-5.8
			s-6.5,1.6-6.5,1.6s-0.8-3.1-6.5-3.3s-7.3,4.9-7.3,4.9s-7.2-0.6-9.7,2.1c-2.5,2.7-0.6,6.5-0.6,6.5c-1.1-0.1-3.2,0.4-4.1,3.9
			s2.6,4.8,2.6,4.8s-3.6,3.1-3.5,7.6s5.4,3.8,5.4,3.8s-2.2,3.1,0.5,6.3s6.9,0.4,6.9,0.4s-1.8,3.8,3.3,5.8s6.4-1.9,6.4-1.9
			s1.5,3.8,5.9,3.3s4.5-5.2,4.5-5.2s2.5,4.4,7.6,2.2s4-5.9,4-5.9s4.1-0.6,5.9-4.4s-2.2-6.7-2.2-6.7S156.2,66.8,156.3,61.6z
			 M148.7,67.8c0,0,3.5,2.6,2,6s-5.3,3.9-5.3,3.9s1,3.3-3.6,5.3c-4.6,2-6.8-2-6.8-2s-0.1,4.1-4,4.7c-3.9,0.5-5.3-2.9-5.3-2.9
			s-1.2,3.5-5.8,1.7s-3-5.2-3-5.2s-3.8,2.5-6.2-0.3c-2.4-2.9-0.4-5.7-0.4-5.7s-4.8,0.7-4.9-3.4c-0.1-4,3.1-6.8,3.1-6.8
			s-3.1-1.1-2.3-4.3c0.8-3.1,2.7-3.6,3.6-3.5c0,0-1.7-3.4,0.5-5.8c2.2-2.4,8.7-1.9,8.7-1.9s1.5-4.5,6.6-4.4c5.1,0.1,5.8,2.9,5.8,2.9
			s2.5-2.6,5.8-1.4c3.3,1.2,3.3,5.2,3.3,5.2s4-3.9,7.6,0.9s0,6.1,0,6.1s5.4,0.2,5.4,4.9C153.4,66.6,148.7,67.8,148.7,67.8z"/>
	</g>
	<g id="cool">
		<path id="XMLID_88_" class="st15" d="M165.1,60.6c-17.7-1.6-21.7-1.7-8-7.2c-13.7,5.5-11.1,4.6,0-9.1c-16.4,6.4-19.4,9.4-11.2-1.3
			c-8.2,10.7-8.1,7.7-4.8-7.6c-8.2,13.6-10.1,15.5-8.6,2.1c-1.5,13.5-2,11.4-8.6-4.3c-1,15.5-2.1,18.9-9.7,6.5
			c7.6,12.4,2.8,12-12.9,2.7c12.3,12.8,13.6,15.4-0.7,8.6c13.7,6.7,12.3,7-5.4,5.2c16.5,6.5,18.8,7.3,3.4,6.3
			c15.4,1,13,3.1-4.7,10.1c17.8-1,21.3-1.5,7.2,5c14.1-6.5,12.6-4.4,0.7,8.4c15.6-8.5,18.4-10.4,9.2,0.5c9.2-10.9,8-8.4,4.4,7.6
			c10.4-13.4,11.3-16,8.6-2.6c2.8-13.4,3.8-10.9,7.8,4.3c1.8-16,1.9-19.1,6-6.9c-4.1-12.2-2.4-9.2,10.1,2.9
			c-5.7-15.1-6.4-17.5,5.3-7.8c-11.8-9.7-9-10.1,7.8-5.8c-14.5-9.3-17.1-11.3-2.9-8.9C143.8,67,147.4,66.1,165.1,60.6z M145.7,63.5
			c-9-0.1-9.6,0.2-1.1,2.7c-8.4-0.5-8.1,0.3,1.6,3.8c-9.2-3.4-11.9-3-5.7,3.4c-6.6-3.8-6.2-2.2,0.4,5.8c-6.6-8-7.1-9-5.2-1.4
			c-6.2-7-6.8-6-5.6,2.5c-1.2-8.5-1.4-9.6-3.8-2c-1.1-7.4-1.3-6.5-3.9,2c2.6-8.5,2.3-10.2-2.8-4.3c2.9-6.8,1.1-6.3-5.7,0
			c6.8-6.4,7.1-7.6-1.2-3c6.6-5.2,4.9-5-5.1-0.2c10-4.8,11.9-5.8,4.2-4.7c8.1-3.8,6.8-4.9-2.1-4.8c8.9-0.1,10.9,0,5.8-2.6
			c7-0.2,5.9-1.3-0.4-5c6.3,3.7,8.9,3.9,7.2-1.9c3.7,3.5,3.1,0.9,0.9-7.5c2.3,8.3,3.6,9.7,5.2,2.5c0.9,6.9,1.3,5.7,3.2-2.8
			c-1.9,8.5-1.7,9.4,1.5,1.9c-2.1,7.6-0.9,7.6,3.6,0.1c-4.4,7.5-5.9,8.8-0.5,4.2c-3,6.2-0.3,6,7.6,1c-8,4.9-8.1,6.1,0.8,2.6
			c-7.9,3.8-6.8,4.1,3.2,1c-10,3.2-11.9,3.5-3.9,2.4C135.7,62.1,135.8,63,145.7,63.5z"/>
	</g>
	<path id="cloud" class="st6" d="M106.1,63c0,0-3.4-1.3-2.6-4.8s3-4.1,4.1-3.9c0,0-1.9-3.8,0.6-6.5c2.5-2.7,9.7-2.1,9.7-2.1
		s1.6-5,7.3-4.9s6.5,3.3,6.5,3.3s2.8-2.9,6.5-1.6s3.6,5.8,3.6,5.8s4.5-4.4,8.4,1s0,6.8,0,6.8s6.1,0.2,6,5.4s-5.3,6.6-5.3,6.6
		s3.9,2.9,2.2,6.7s-5.9,4.4-5.9,4.4s1.1,3.6-4,5.9s-7.6-2.2-7.6-2.2s-0.1,4.6-4.5,5.2s-5.9-3.3-5.9-3.3s-1.3,3.9-6.4,1.9
		s-3.3-5.8-3.3-5.8s-4.3,2.8-6.9-0.4s-0.5-6.3-0.5-6.3s-5.3,0.8-5.4-3.8S106.1,63,106.1,63z"/>
	<path id="hole_1_" class="st6" d="M112.4,70.4c0,0,2.8-1.6,3.2-3.5s-1.6-3.6-1.6-3.6s3,0.2,4.3-1.9s-0.3-3.8-0.3-3.8s4,0.3,5.4-1.4
		s0.7-5.6,0.7-5.6s2,2.1,3.9,1.9s2.4-2.1,2.4-2.1s0.3,1.3,1.2,1.4s2.7,0.1,2.7,0.1s-2.1,1.9-0.4,3.1s5.8,0.8,5.8,0.8s-0.2,1.7,0.6,2
		s2.4,0.7,2.4,0.7s-2.9,0.5-2.9,1.8s0.1,2.7,1.4,3.2c0,0-0.9,0.5-0.8,2.1s0.5,2.7,1.2,2.8c0,0-4,0.6-4.3,2.6s0.3,4.4,0.3,4.4
		s-0.7-1.5-3.9-1.1s-4.2,1.9-4.2,1.9s-0.3-1.6-2.9-1.5s-3,1.5-3,1.5s-0.4-2.6-2.1-3.3s-4.3,0-4.3,0s0.3-1.8-0.9-2.2
		S112.4,70.4,112.4,70.4z"/>
	<path id="XMLID_81_" class="st16" d="M156.3,61.6c0.1-5.3-6-5.4-6-5.4s3.9-1.4,0-6.8s-8.4-1-8.4-1s0.1-4.4-3.6-5.8
		s-6.5,1.6-6.5,1.6s-0.8-3.1-6.5-3.3s-7.3,4.9-7.3,4.9s-7.2-0.6-9.7,2.1c-2.5,2.7-0.6,6.5-0.6,6.5c-1.1-0.1-3.2,0.4-4.1,3.9
		s2.6,4.8,2.6,4.8s-3.6,3.1-3.5,7.6s5.4,3.8,5.4,3.8s-2.2,3.1,0.5,6.3s6.9,0.4,6.9,0.4s-1.8,3.8,3.3,5.8s6.4-1.9,6.4-1.9
		s1.5,3.8,5.9,3.3s4.5-5.2,4.5-5.2s2.5,4.4,7.6,2.2s4-5.9,4-5.9s4.1-0.6,5.9-4.4s-2.2-6.7-2.2-6.7S156.2,66.8,156.3,61.6z
		 M142.8,59.4c-0.1,1.6,0.2,3.4,1.8,4c0,0-1.1,0.7-1.1,2.6s0.7,3.4,1.5,3.5c0,0-5,0.8-5.3,3.2s0.4,5.4,0.4,5.4s-0.9-1.9-4.9-1.4
		s-5.2,2.3-5.2,2.3s-0.4-2-3.6-1.9c-3.2,0.1-3.7,1.9-3.7,1.9s-0.5-3.2-2.6-4.1c-2.1-0.8-5.4,0-5.4,0s0.4-2.3-1.2-2.8
		s-4.8-0.2-4.8-0.2s3.5-2,4-4.4c0.5-2.4-2-4.5-2-4.5s3.7,0.2,5.4-2.4s-0.4-4.7-0.4-4.7s5,0.4,6.7-1.8s0.8-7,0.8-7s2.5,2.6,4.8,2.3
		c2.3-0.3,3-2.7,3-2.7s0.3,1.6,1.4,1.8c1.1,0.2,3.4,0.1,3.4,0.1s-2.7,2.4-0.5,3.9s7.2,1,7.2,1s-0.2,2.1,0.8,2.5c1,0.3,3,0.9,3,0.9
		S142.9,57.8,142.8,59.4z"/>
	<path id="XMLID_71_" class="st17" d="M139.9,48.5c0,0,1.3-2.3-0.6-3.5c-1.9-1.2-3.3-0.2-3.3-0.2s2.2-0.4,3.3,1
		C140.3,47,139.9,48.5,139.9,48.5z"/>
	<path id="XMLID_73_" class="st17" d="M119.6,84c0,0,1.4,2.3,3.3,1.2c1.9-1.1,1.8-2.8,1.8-2.8s-0.8,2.1-2.5,2.4
		C120.7,85.1,119.6,84,119.6,84z"/>
	<path id="XMLID_82_" class="st17" d="M110.2,56.4c0,0-1.8-1.9-3.5-0.5c-1.7,1.4-1.2,3.1-1.2,3.1s0.3-2.2,1.9-2.8
		C109,55.5,110.2,56.4,110.2,56.4z"/>
	<path id="XMLID_83_" class="st17" d="M153.2,61.9c0,0,1.6-2.1-0.1-3.5c-1.7-1.4-3.3-0.7-3.3-0.7s2.3-0.1,3.1,1.4
		C153.8,60.6,153.2,61.9,153.2,61.9z"/>
</g>
<g id="cloud3" class="st0">
	<g id="Calque_7" class="st2">
		<path id="XMLID_37_" class="st18" d="M285,116.8c1.2-21.7-28.6-30.1-28.6-30.1s12.2-22.9-5.4-36.9c-17.6-14-36,1.2-36,1.2
			s3.4-23.9-16.3-30.4S169,33.3,169,33.3s-7.8-17.4-34.4-17.4S96.4,42,96.4,42S73.6,33.8,60,45.4s-6.7,29.9-6.7,29.9
			s-20.6,7.6-21.7,22.3s14.1,26.1,14.1,26.1s-18.3,4.6-16.5,27c1.8,22.3,25,26.8,25,26.8s-3.6,19.4,10.7,28.6
			c14.3,9.2,28-0.6,28-0.6s-4.5,21.4,15.2,28.6c19.7,7.1,29.2-10.1,29.2-10.1s13.4,17.9,27.4,14.3c14-3.6,18.8-18.5,18.8-18.5
			s20.3,14.3,39.6,5.4s16.7-29.2,16.7-29.2s18.2-0.9,28.6-20.3c10.4-19.4-8.3-32.2-8.3-32.2S283.8,138.5,285,116.8z M167.9,131.7
			c0,0-13.4-1.9-11.9,9.1c0,0-7.9-1.3-7.6,7.7c0,0-0.6-8.5-8.3-7.7c0,0-0.6-17.9-15.3-15.3c0,0,8-6.7,1.9-10.6c0,0,5.5,5.1,13.4-2.5
			c7.9-7.6,4.8-15.3,4.8-15.3s8,6.9,13.4,0.6c0,0-3.6,4.2,0,6.4c3.6,2.2,6.4,2.2,6.4,2.2s-4.8,2.5-0.9,5.8c3.9,3.3,8.9,1.9,8.9,1.9
			s-3.7,9.1,5.4,12.4C178.1,126.3,168.2,124.4,167.9,131.7z"/>
	</g>
	<g id="Calque_7_-_copie_2" class="st2">
		<path id="XMLID_162_" class="st19" d="M285,116.8c1.2-21.7-28.6-30.1-28.6-30.1s12.2-22.9-5.4-36.9c-17.6-14-36,1.2-36,1.2
			s3.4-23.9-16.3-30.4S169,33.3,169,33.3s-7.8-17.4-34.4-17.4S96.4,42,96.4,42S73.6,33.8,60,45.4s-6.7,29.9-6.7,29.9
			s-20.6,7.6-21.7,22.3s14.1,26.1,14.1,26.1s-18.3,4.6-16.5,27c1.8,22.3,25,26.8,25,26.8s-3.6,19.4,10.7,28.6
			c14.3,9.2,28-0.6,28-0.6s-4.5,21.4,15.2,28.6c19.7,7.1,29.2-10.1,29.2-10.1s13.4,17.9,27.4,14.3c14-3.6,18.8-18.5,18.8-18.5
			s20.3,14.3,39.6,5.4s16.7-29.2,16.7-29.2s18.2-0.9,28.6-20.3c10.4-19.4-8.3-32.2-8.3-32.2S283.8,138.5,285,116.8z M167.9,131.7
			c0,0-13.4-1.9-11.9,9.1c0,0-7.9-1.3-7.6,7.7c0,0-0.6-8.5-8.3-7.7c0,0-0.6-17.9-15.3-15.3c0,0,8-6.7,1.9-10.6c0,0,5.5,5.1,13.4-2.5
			c7.9-7.6,4.8-15.3,4.8-15.3s8,6.9,13.4,0.6c0,0-3.6,4.2,0,6.4c3.6,2.2,6.4,2.2,6.4,2.2s-4.8,2.5-0.9,5.8c3.9,3.3,8.9,1.9,8.9,1.9
			s-3.7,9.1,5.4,12.4C178.1,126.3,168.2,124.4,167.9,131.7z"/>
	</g>
	<g id="Calque_7_-_copie" class="st2">
		<path id="XMLID_40_" class="st20" d="M285,116.8c1.2-21.7-28.6-30.1-28.6-30.1s12.2-22.9-5.4-36.9c-17.6-14-36,1.2-36,1.2
			s3.4-23.9-16.3-30.4S169,33.3,169,33.3s-7.8-17.4-34.4-17.4S96.4,42,96.4,42S73.6,33.8,60,45.4s-6.7,29.9-6.7,29.9
			s-20.6,7.6-21.7,22.3s14.1,26.1,14.1,26.1s-18.3,4.6-16.5,27c1.8,22.3,25,26.8,25,26.8s-3.6,19.4,10.7,28.6
			c14.3,9.2,28-0.6,28-0.6s-4.5,21.4,15.2,28.6c19.7,7.1,29.2-10.1,29.2-10.1s13.4,17.9,27.4,14.3c14-3.6,18.8-18.5,18.8-18.5
			s20.3,14.3,39.6,5.4s16.7-29.2,16.7-29.2s18.2-0.9,28.6-20.3c10.4-19.4-8.3-32.2-8.3-32.2S283.8,138.5,285,116.8z M180.4,138.4
			c0,0-23.6-3.4-20.9,16c0,0-13.9-2.4-13.3,13.6c0,0-1-14.9-14.7-13.6c0,0-1-31.4-27-27c0,0,13.4-11.2,4.1-18.1
			c-0.4-0.3-0.7-0.5-0.7-0.5c0.3,0.2,0.4,0.3,0.7,0.5c2.4,1.7,11.1,6.4,22.9-5c13.9-13.3,8.4-27,8.4-27s14.1,12,23.6,1
			c0,0-6.3,7.3,0,11.3c6.3,3.9,11.3,3.9,11.3,3.9s-8.4,4.4-1.6,10.2c6.8,5.8,15.7,3.4,15.7,3.4s-6.5,16,9.4,21.7
			C198.2,129,181,125.6,180.4,138.4z"/>
		<path id="XMLID_24_" class="st7" d="M183.2,191.4c0,0,15,11.8,25.3-0.2c10.3-12,5.4-23.2,5.4-23.2s0,16.2-10.5,22.2
			C192.8,196.1,183.2,191.4,183.2,191.4z"/>
		<path id="XMLID_31_" class="st7" d="M65.3,133c0,0-11.1,15.6,1.3,25.3c12.4,9.7,23.4,4.4,23.4,4.4s-16.2,0.7-22.6-9.6
			C61,142.7,65.3,133,65.3,133z"/>
		<path id="XMLID_33_" class="st7" d="M160.5,61.5c0,0-7.3-17.7-22.1-12.2s-16.1,17.6-16.1,17.6s8-14.1,20.1-14.2
			C154.5,52.7,160.5,61.5,160.5,61.5z"/>
	</g>
	<path id="XMLID_4_" class="st14" d="M285,116.8c1.2-21.7-28.6-30.1-28.6-30.1s12.2-22.9-5.4-36.9c-17.6-14-36,1.2-36,1.2
		s3.4-23.9-16.3-30.4S169,33.3,169,33.3s-7.8-17.4-34.4-17.4S96.4,42,96.4,42S73.6,33.8,60,45.4s-6.7,29.9-6.7,29.9
		s-20.6,7.6-21.7,22.3s14.1,26.1,14.1,26.1s-18.3,4.6-16.5,27c1.8,22.3,25,26.8,25,26.8s-3.6,19.4,10.7,28.6c14.3,9.2,28-0.6,28-0.6
		s-4.5,21.4,15.2,28.6c19.7,7.1,29.2-10.1,29.2-10.1s13.4,17.9,27.4,14.3c14-3.6,18.8-18.5,18.8-18.5s20.3,14.3,39.6,5.4
		s16.7-29.2,16.7-29.2s18.2-0.9,28.6-20.3c10.4-19.4-8.3-32.2-8.3-32.2S283.8,138.5,285,116.8z M245.3,141.3c0,0,16.1,11,7.2,27.6
		c-8.9,16.6-24.5,17.4-24.5,17.4s2.3,17.4-14.3,25c-16.6,7.7-34-4.6-34-4.6s-4.1,12.8-16.1,15.8c-12,3.1-23.5-12.3-23.5-12.3
		s-8.2,14.8-25,8.7c-16.9-6.1-13-24.5-13-24.5s-11.8,8.4-24,0.5c-12.3-7.9-9.2-24.5-9.2-24.5s-19.9-3.8-21.5-23
		c-1.5-19.2,14.2-23.1,14.2-23.1s-13-9.8-12.1-22.4C50.4,89.2,68,82.7,68,82.7S62.1,67,73.8,57c11.7-10,31.2-2.9,31.2-2.9
		s10-22.4,32.8-22.4c22.8,0,29.5,14.9,29.5,14.9s8.6-16.5,25.5-10.9c16.9,5.6,14,26.1,14,26.1s15.8-13,30.9-1
		c15.1,12,4.6,31.7,4.6,31.7s25.5,7.2,24.5,25.8C265.8,136.9,245.3,141.3,245.3,141.3z"/>
	<g id="Calque_7_-_copie_3">
		<path id="XMLID_38_" class="st17" d="M55.1,196.3c0,0-0.1-2.5-2.1-2.1c0,0,1.1-0.9,0.3-1.5c0,0,0.8,0.7,1.9-0.4
			c1.1-1.1,0.7-2.1,0.7-2.1s1.1,1,1.9,0.1c0,0-0.5,0.6,0,0.9s0.9,0.3,0.9,0.3s-0.7,0.4-0.1,0.8c0.5,0.5,1.3,0.3,1.3,0.3
			s-0.5,1.3,0.8,1.7c0,0-1.4-0.3-1.4,0.8c0,0-1.9-0.3-1.7,1.3c0,0-1.1-0.2-1.1,1.1C56.3,197.4,56.2,196.2,55.1,196.3z"/>
	</g>
</g>
<g id="cloud4" class="st0">
	<path id="XMLID_32_" class="st21" d="M41.5,113.9c0,0-9.4-7.3-9.1-22.1s14.9-16.3,14.9-16.3s-5.9-27.2,12.9-38.1s42.7-2.5,42.7-2.5
		s2.9-24,25.4-25.4s39.2,14.9,39.2,14.9s16.7-15.6,33-8.3s13.8,28.7,13.8,28.7s22.9-20,40.3,0s5.4,37,5.4,37s29,4.7,28.3,28.7
		s-30.9,25.4-30.9,25.4s27.2,13.4,14.2,35.9s-29,17.4-29,17.4s8,21.1-16,32.7s-40.3-5.8-40.3-5.8s-4.4,20-26,20.3
		c-21.6,0.4-27.8-14.5-27.8-14.5s-3.3,21.1-29,10.2s-17.4-27.2-17.4-27.2s-15.6,10.5-31.9-4.7c-16.3-15.2-6.9-26.5-6.9-26.5
		s-21.4,0.4-23.2-18.9C22.2,135.3,24,117.9,41.5,113.9z"/>
	<path id="XMLID_30_" class="st21" d="M120.6,139.7c0,0-30.5,0.7-26.1-18.9s17.4-16.3,17.4-16.3s-7.6-14.5,1.8-18.2
		c9.4-3.6,28.7,0,28.7,0S141.3,74,154.7,74c13.4,0,13.4,11.3,13.4,11.3s13.8-4.7,18.5,1.8c4.7,6.5,0,10.2,0,10.2s26.9-3.6,24,13.4
		s-14.9,13.4-14.9,13.4s6.2,12.7-3.3,20.3c-9.4,7.6-16.3,0-16.3,0s3.6,16.3-9.1,21.1c-12.7,4.7-21.8-5.4-21.8-5.4s-9.1,6.9-19.6,1.8
		S120.6,139.7,120.6,139.7z"/>
	<g id="XMLID_58_">
		<path id="XMLID_59_" class="st22" d="M186.7,97.2c0,0,4.7-3.6,0-10.2c-4.7-6.5-18.5-1.8-18.5-1.8s0-11.3-13.4-11.3
			c-13.4,0-12.3,12.3-12.3,12.3s-19.2-3.6-28.7,0c-9.4,3.6-1.8,18.2-1.8,18.2s-13.1-3.3-17.4,16.3s26.1,18.9,26.1,18.9
			s-5.4,17.1,5.1,22.1s19.6-1.8,19.6-1.8s9.1,10.2,21.8,5.4c12.7-4.7,9.1-21.1,9.1-21.1s6.9,7.6,16.3,0c9.4-7.6,3.3-20.3,3.3-20.3
			s12,3.6,14.9-13.4S186.7,97.2,186.7,97.2z"/>
		<path id="XMLID_62_" class="st22" d="M288.3,110.3c0.7-24-28.3-28.7-28.3-28.7s12-17.1-5.4-37s-40.3,0-40.3,0s2.5-21.4-13.8-28.7
			s-33,8.3-33,8.3S150.7,7.9,128.2,9.3s-25.4,25.4-25.4,25.4s-24-8.3-42.7,2.5C41.4,48.2,47.3,75.4,47.3,75.4s-14.5,1.5-14.9,16.3
			s9.1,22.1,9.1,22.1c-17.4,4-19.2,21.4-17.4,40.7c1.8,19.2,23.2,18.9,23.2,18.9s-9.4,11.3,6.9,26.5c16.3,15.2,31.9,4.7,31.9,4.7
			s-8.3,16.3,17.4,27.2s29-10.2,29-10.2s6.2,14.9,27.8,14.5c21.6-0.4,26-20.3,26-20.3s16.3,17.4,40.3,5.8s16-32.7,16-32.7
			s16,5.1,29-17.4s-14.2-35.9-14.2-35.9S287.6,134.2,288.3,110.3z M241.3,133.6c0,0,22.9,11.3,11.9,30.2
			c-11,18.9-24.4,14.7-24.4,14.7s6.7,17.7-13.4,27.5c-20.1,9.8-33.9-4.9-33.9-4.9s-3.7,16.8-21.8,17.1
			c-18.2,0.3-23.4-12.2-23.4-12.2s-2.7,17.7-24.4,8.5c-21.7-9.2-14.7-22.9-14.7-22.9s-13.1,8.9-26.9-4c-13.7-12.8-5.8-22.3-5.8-22.3
			s-18,0.3-19.5-15.9c-1.5-16.2,0-30.8,14.7-34.2c0,0-7.9-6.1-7.6-18.6s12.5-13.7,12.5-13.7S59.6,60,75.4,50.9
			c15.7-9.2,35.9-2.1,35.9-2.1s2.4-20.1,21.4-21.4c18.9-1.2,33,12.5,33,12.5s14-13.1,27.8-7C207.1,39,205,57,205,57
			s19.2-16.8,33.9,0c14.7,16.8,4.6,31.1,4.6,31.1s24.4,4,23.8,24.1C266.6,132.4,241.3,133.6,241.3,133.6z"/>
	</g>
	<path id="border" class="st23" d="M288.3,110.3c0.7-24-28.3-28.7-28.3-28.7s12-17.1-5.4-37s-40.3,0-40.3,0s2.5-21.4-13.8-28.7
		s-33,8.3-33,8.3S150.7,7.9,128.2,9.3s-25.4,25.4-25.4,25.4s-24-8.3-42.7,2.5C41.4,48.2,47.3,75.4,47.3,75.4s-14.5,1.5-14.9,16.3
		s9.1,22.1,9.1,22.1c-17.4,4-19.2,21.4-17.4,40.7c1.8,19.2,23.2,18.9,23.2,18.9s-9.4,11.3,6.9,26.5c16.3,15.2,31.9,4.7,31.9,4.7
		s-8.3,16.3,17.4,27.2s29-10.2,29-10.2s6.2,14.9,27.8,14.5c21.6-0.4,26-20.3,26-20.3s16.3,17.4,40.3,5.8s16-32.7,16-32.7
		s16,5.1,29-17.4s-14.2-35.9-14.2-35.9S287.6,134.2,288.3,110.3z M210.6,110.6c-2.9,17.1-14.9,13.4-14.9,13.4s6.2,12.7-3.3,20.3
		c-9.4,7.6-16.3,0-16.3,0s3.6,16.3-9.1,21.1c-12.7,4.7-21.8-5.4-21.8-5.4s-9.1,6.9-19.6,1.8s-5.1-22.1-5.1-22.1s-30.5,0.7-26.1-18.9
		s17.4-16.3,17.4-16.3s-7.6-14.5,1.8-18.2c9.4-3.6,28.7,0,28.7,0S141.3,74,154.7,74c13.4,0,13.4,11.3,13.4,11.3s13.8-4.7,18.5,1.8
		c4.7,6.5,0,10.2,0,10.2S213.5,93.6,210.6,110.6z"/>
	<path id="gray" class="st15" d="M288.3,110.3c0.7-24-28.3-28.7-28.3-28.7s12-17.1-5.4-37s-40.3,0-40.3,0s2.5-21.4-13.8-28.7
		s-33,8.3-33,8.3S150.7,7.9,128.2,9.3s-25.4,25.4-25.4,25.4s-24-8.3-42.7,2.5C41.4,48.2,47.3,75.4,47.3,75.4s-14.5,1.5-14.9,16.3
		s9.1,22.1,9.1,22.1c-17.4,4-19.2,21.4-17.4,40.7c1.8,19.2,23.2,18.9,23.2,18.9s-9.4,11.3,6.9,26.5c16.3,15.2,31.9,4.7,31.9,4.7
		s-8.3,16.3,17.4,27.2s29-10.2,29-10.2s6.2,14.9,27.8,14.5c21.6-0.4,26-20.3,26-20.3s16.3,17.4,40.3,5.8s16-32.7,16-32.7
		s16,5.1,29-17.4s-14.2-35.9-14.2-35.9S287.6,134.2,288.3,110.3z M210.6,110.6c-2.9,17.1-14.9,13.4-14.9,13.4s6.2,12.7-3.3,20.3
		c-9.4,7.6-16.3,0-16.3,0s3.6,16.3-9.1,21.1c-12.7,4.7-21.8-5.4-21.8-5.4s-9.1,6.9-19.6,1.8s-5.1-22.1-5.1-22.1s-30.5,0.7-26.1-18.9
		s17.4-16.3,17.4-16.3s-7.6-14.5,1.8-18.2c9.4-3.6,28.7,0,28.7,0S141.3,74,154.7,74c13.4,0,13.4,11.3,13.4,11.3s13.8-4.7,18.5,1.8
		c4.7,6.5,0,10.2,0,10.2S213.5,93.6,210.6,110.6z"/>
	<path id="XMLID_65_" class="st24" d="M196.6,89c0,0,6.2-4.8,0-13.4c-6.2-8.6-24.5-2.4-24.5-2.4s0-14.9-17.8-14.9
		c-17.8,0-16.3,16.3-16.3,16.3s-25.4-4.8-37.9,0c-12.5,4.8-2.4,24-2.4,24s-17.3-4.3-23,21.6s34.6,25,34.6,25s-7.2,22.6,6.7,29.3
		s25.9-2.4,25.9-2.4s12,13.4,28.8,7.2c16.8-6.2,12-27.8,12-27.8s9.1,10.1,21.6,0s4.3-26.9,4.3-26.9s15.8,4.8,19.7-17.8
		C232.1,84.2,196.6,89,196.6,89z M210.6,110.6c-2.9,17.1-14.9,13.4-14.9,13.4s6.2,12.7-3.3,20.3c-9.4,7.6-16.3,0-16.3,0
		s3.6,16.3-9.1,21.1c-12.7,4.7-21.8-5.4-21.8-5.4s-9.1,6.9-19.6,1.8s-5.1-22.1-5.1-22.1s-30.5,0.7-26.1-18.9s17.4-16.3,17.4-16.3
		s-7.6-14.5,1.8-18.2c9.4-3.6,28.7,0,28.7,0S141.3,74,154.7,74c13.4,0,13.4,11.3,13.4,11.3s13.8-4.7,18.5,1.8c4.7,6.5,0,10.2,0,10.2
		S213.5,93.6,210.6,110.6z"/>
	<path id="border2" class="st14" d="M288.3,110.3c0.7-24-28.3-28.7-28.3-28.7s12-17.1-5.4-37s-40.3,0-40.3,0s2.5-21.4-13.8-28.7
		s-33,8.3-33,8.3S150.7,7.9,128.2,9.3s-25.4,25.4-25.4,25.4s-24-8.3-42.7,2.5C41.4,48.2,47.3,75.4,47.3,75.4s-14.5,1.5-14.9,16.3
		s9.1,22.1,9.1,22.1c-17.4,4-19.2,21.4-17.4,40.7c1.8,19.2,23.2,18.9,23.2,18.9s-9.4,11.3,6.9,26.5c16.3,15.2,31.9,4.7,31.9,4.7
		s-8.3,16.3,17.4,27.2s29-10.2,29-10.2s6.2,14.9,27.8,14.5c21.6-0.4,26-20.3,26-20.3s16.3,17.4,40.3,5.8s16-32.7,16-32.7
		s16,5.1,29-17.4s-14.2-35.9-14.2-35.9S287.6,134.2,288.3,110.3z M245,134.1c0,0,23.9,11.8,12.4,31.5C246,185.4,232,180.9,232,180.9
		s7,18.5-14,28.7c-21,10.2-35.4-5.1-35.4-5.1s-3.8,17.5-22.8,17.8c-19,0.3-24.4-12.7-24.4-12.7s-2.9,18.5-25.5,8.9
		c-22.6-9.6-15.3-23.9-15.3-23.9s-13.7,9.2-28-4.1s-6.1-23.3-6.1-23.3s-18.8,0.3-20.4-16.6c-1.6-16.9,0-32.2,15.3-35.7
		c0,0-8.3-6.4-8-19.4c0.3-13.1,13.1-14.3,13.1-14.3s-5.2-23.9,11.3-33.4c16.4-9.6,37.5-2.2,37.5-2.2s2.5-21,22.3-22.3
		C151.4,22,166,36.3,166,36.3s14.7-13.7,29-7.3s12.1,25.2,12.1,25.2s20.1-17.5,35.4,0c15.3,17.5,4.8,32.5,4.8,32.5
		s25.5,4.1,24.8,25.2C271.5,132.8,245,134.1,245,134.1z"/>
	<path id="white" class="st6" d="M288.3,110.3c0.7-24-28.3-28.7-28.3-28.7s12-17.1-5.4-37s-40.3,0-40.3,0s2.5-21.4-13.8-28.7
		s-33,8.3-33,8.3S150.7,7.9,128.2,9.3s-25.4,25.4-25.4,25.4s-24-8.3-42.7,2.5C41.4,48.2,47.3,75.4,47.3,75.4s-14.5,1.5-14.9,16.3
		s9.1,22.1,9.1,22.1c-17.4,4-19.2,21.4-17.4,40.7c1.8,19.2,23.2,18.9,23.2,18.9s-9.4,11.3,6.9,26.5c16.3,15.2,31.9,4.7,31.9,4.7
		s-8.3,16.3,17.4,27.2s29-10.2,29-10.2s6.2,14.9,27.8,14.5c21.6-0.4,26-20.3,26-20.3s16.3,17.4,40.3,5.8s16-32.7,16-32.7
		s16,5.1,29-17.4s-14.2-35.9-14.2-35.9S287.6,134.2,288.3,110.3z M227.5,107.8c-3.7,22-19.2,17.3-19.2,17.3s8,16.4-4.2,26.2
		c-12.2,9.8-21.1,0-21.1,0s4.7,21.1-11.7,27.2c-16.4,6.1-28.1-7-28.1-7s-11.7,8.9-25.3,2.3c-13.6-6.6-6.6-28.6-6.6-28.6
		s-39.3,0.9-33.7-24.3s22.5-21.1,22.5-21.1s-9.8-18.7,2.3-23.4c12.2-4.7,37,0,37,0s-1.4-15.9,15.9-15.9S172.7,75,172.7,75
		s17.8-6.1,23.9,2.3c6.1,8.4,0,13.1,0,13.1S231.2,85.8,227.5,107.8z"/>
	<path id="XMLID_15_" class="st17" d="M193.4,194.6c0,0,12.2,9.6,20.6-0.1s4.4-18.9,4.4-18.9s0,13.2-8.6,18
		C201.2,198.4,193.4,194.6,193.4,194.6z"/>
	<path id="XMLID_41_" class="st17" d="M235.5,79.6c0,0,7.5-13.6-3.4-20.3c-10.9-6.7-19.3-1.4-19.3-1.4s13-2.1,19.1,5.6
		C238,71.3,235.5,79.6,235.5,79.6z"/>
	<path id="XMLID_42_" class="st17" d="M96.9,62.8c0,0-10.9-11-20.4-2.4s-6.7,18.2-6.7,18.2s1.7-13.1,10.8-16.8S96.9,62.8,96.9,62.8z
		"/>
	<path id="XMLID_53_" class="st17" d="M68.9,170.7c0,0-2.5,15.3,10,18s18.6-5.2,18.6-5.2s-11.6,6.3-19.9,1.1S68.9,170.7,68.9,170.7z
		"/>
</g>
<g id="cloud2">
	<path id="XMLID_22_" class="st25" d="M106.1,179.3c0,0-34,6.5-43.7-15.2s10.5-43,10.5-43S52.4,97.6,68.7,77s48.3-9.2,48.3-9.2
		s8.4-28.6,42.8-24.4S190.1,73,190.1,73s38.6-5.3,47.9,22.9s-13.9,39.1-13.9,39.1s18.9,21.8-1.3,51.7s-45.8,12.3-45.8,12.3
		s-10.9,16.7-39.9,13.8S106.1,179.3,106.1,179.3z"/>
	<path id="XMLID_23_" class="st26" d="M106.1,179.3c0,0-34,6.5-43.7-15.2s10.5-43,10.5-43S52.4,97.6,68.7,77s48.3-9.2,48.3-9.2
		s8.4-28.6,42.8-24.4S190.1,73,190.1,73s38.6-5.3,47.9,22.9s-13.9,39.1-13.9,39.1s18.9,21.8-1.3,51.7s-45.8,12.3-45.8,12.3
		s-10.9,16.7-39.9,13.8S106.1,179.3,106.1,179.3z"/>
	<path id="XMLID_27_" class="st21" d="M206.7,164.5c0,0-19.7,18.7-34,16.6c-14.3-2.1-30.4-12.9-30.4-12.9s-27.4,9.2-41.1-1.2
		c-13.7-10.4-22.7-29.8-8.9-45.7c3.1-3.5,3-3.3,3-3.3s-8.9-14.5-1.8-27c15.8-27.9,37.6-14,38.7-2c3.5-1.7,34.2-26.6,56.7-2
		c7.7,8.5,17.8,34,11.2,37.5C200.1,124.4,221.9,143.4,206.7,164.5z"/>
	<path id="XMLID_21_" class="st6" d="M99.6,136.7c0,0,2.4-20.6,14-27c8.9-4.9,22.2-0.9,22.2-0.9s4.4-15.6,16.5-16
		c15.2-0.5,27,3.1,26.5,17.9c-0.1,3.3,0.1,3.7,0.1,3.7s13.7,2.5,15.3,12.5c3.7,22.3-23.1,29-29.1,21.9c-1.1,2.5-1.7,12.8-18,11.2
		c-8-0.8-17.7-12-16.6-14.7C130.6,145.3,100.6,155,99.6,136.7z"/>
	<path id="XMLID_20_" class="st27" d="M142.4,112.5c0,0-18.5-16.7-33-2s-9.1,29.8-9.1,29.8s0.1-23.1,14.4-29.9
		C129,103.6,142.4,112.5,142.4,112.5z"/>
	<path id="XMLID_19_" class="st27" d="M174.7,98.2c0,0-18.5-16.7-33-2s-3.5,13.5-3.5,13.5s-3.8-5.8,7.2-13.5
		C158.3,87.1,174.7,98.2,174.7,98.2z"/>
	<path id="XMLID_17_" class="st7" d="M168.6,141.7c0,0,4.9,7.6,11.3,3.8s6-9.5,6-9.5s-2.5,7.2-8.1,8.3
		C172.1,145.3,168.6,141.7,168.6,141.7z"/>
	<path id="XMLID_25_" class="st7" d="M115.4,186.4c0,0,6.3,19.3,23.8,19.4c20.5,0.1,29.3-11.9,29.3-11.9s-15.9,10.9-32.5,9.3
		C122.7,202,115.4,186.4,115.4,186.4z"/>
	<path id="XMLID_26_" class="st7" d="M108.4,75.1c0,0-17.8-11.5-27.9,2.8s-3.6,26.2-3.6,26.2s-3-20.2,8-27.8S108.4,75.1,108.4,75.1z
		"/>
	<path id="XMLID_28_" class="st7" d="M218.9,122.8c0,0,15.1-14.9,3.3-27.9c-11.7-13-24.8-9.2-24.8-9.2s19.6,2,24.6,14.4
		S218.9,122.8,218.9,122.8z"/>
	<path id="XMLID_29_" class="st7" d="M172.1,74.6c0,0,2.8-21-14.4-24.1s-25.2,7.9-25.2,7.9s18.2-9.7,29.8-2.9
		C173.9,62.3,172.1,74.6,172.1,74.6z"/>
</g>
<g id="cloud1" class="st0">
	<path id="XMLID_2_" class="st28" d="M182.1,144.8c0,0,7,22.9-6.2,26.8c-13.2,3.9-33.8-6.7-33.8-6.7s-25.6,5.7-34-3.7s0-30.1,0-30.1
		s-19.5-24.5,0.7-38.7s37.2,6.2,37.2,6.2s11.5-17.3,36.1,3.6S182.1,144.8,182.1,144.8z"/>
	<path id="XMLID_6_" class="st29" d="M182.1,144.8c0,0,7,22.9-6.2,26.8c-13.2,3.9-33.8-6.7-33.8-6.7s-25.6,5.7-34-3.7s0-30.1,0-30.1
		s-19.5-24.5,0.7-38.7s37.2,6.2,37.2,6.2s11.5-17.3,36.1,3.6S182.1,144.8,182.1,144.8z"/>
	<path id="XMLID_8_" class="st15" d="M119.5,107.8c0,0,11.8-7.7,18.9-5.3c7.1,2.4,14.3,9.4,14.3,9.4s14.9-2.1,20.9,4.5
		s8.8,17.4,0.3,24.2c-1.9,1.5-1.9,1.4-1.9,1.4s3.2,8.3-1.6,14c-10.7,12.8-20.5,3.6-20-2.6c-1.9,0.6-20,10.4-29.1-4.3
		c-3.1-5-5.9-19-2.2-20.2C119.2,128.9,109.8,117.2,119.5,107.8z"/>
	<g id="XMLID_12_" class="st2">
		<path id="XMLID_13_" class="st30" d="M178.6,169.2c-13.2,3.9-33.8-6.7-33.8-6.7s-25.6,5.7-34-3.7c-8.4-9.4,0-30.1,0-30.1
			s-16.5-20.8-3.3-35.1c-17.8,14.3,0.7,37.6,0.7,37.6s-8.4,20.7,0,30.1c8.4,9.4,34,3.7,34,3.7s20.6,10.6,33.8,6.7
			c2.3-0.7,3.9-2,5.2-3.6C180.4,168.6,179.6,169,178.6,169.2z"/>
		<path id="XMLID_14_" class="st30" d="M148.5,96c0.1,0.1,0.2,0.2,0.2,0.2s0.3-0.4,0.8-0.9C149.1,95.5,148.8,95.8,148.5,96z"/>
	</g>
	<path id="XMLID_7_" class="st17" d="M182.9,132.5c0,0,8.9-10.5,0.6-18.3c-8.3-7.7-16.6-4.5-16.6-4.5s11.7,0.5,15.7,8.2
		S182.9,132.5,182.9,132.5z"/>
	<path id="XMLID_16_" class="st17" d="M131.4,96.1c0,0-8.4-6.8-14.3-0.2c-5.9,6.7-3.3,13.1-3.3,13.1s0.2-9.2,6.2-12.4
		S131.4,96.1,131.4,96.1z"/>
	<path id="XMLID_9_" class="st17" d="M163.1,163.8c0,0,7.9,6.2,13.3,0c5.4-6.3,2.9-12.2,2.9-12.2s0,8.6-5.6,11.7
		C168.2,166.3,163.1,163.8,163.1,163.8z"/>
	<path id="XMLID_11_" class="st17" d="M124.1,141.9c0,0,4.8,12.9,15.6,9.5c10.8-3.5,5.2-5.7,5.2-5.7s-0.6,2.2-8,3.1
		C128.3,149.9,124.1,141.9,124.1,141.9z"/>
</g>
</svg>
