<svg version="1.0" id="Calque_1" xmlns="http://www.w3.org/2000/svg" x="0" y="0" width="300" height="260" style="enable-background:new 0 0 300 260" xml:space="preserve"><style>.st0{display:none}.st1,.st2,.st3{display:inline;fill:#adadad}.st2,.st3{fill:#d1d1d1}.st3{fill:none;stroke:#3a3a3a;stroke-width:16;stroke-miterlimit:10}.st4{fill:#3a3a3a}.st4,.st5{display:inline}.st6{fill:#adadad}.st7{fill:#d1d1d1}</style><g id="dust4"><path id="XMLID_25_" class="st6" d="M126.9 156s-37.7-7.5-24.9-27.9c0 0-.8-17.7 9.4-25.6s19.6-2.3 19.6-2.3 1.5-15.4 21.5-13.6c20 1.9 21.1 22.6 21.1 22.6s23 0 21.1 24.1c-1.9 24.1-5.3 42.6-30.5 36.2 0 0 2.6 15.8-20.7 7.9S126.9 156 126.9 156z"/><path id="XMLID_24_" class="st7" d="M135.4 146.4s-21.8-4.4-14.4-16.1c0 0-.4-10.2 5.4-14.8s11.3-1.3 11.3-1.3.9-8.9 12.4-7.8c11.6 1.1 12.2 13.1 12.2 13.1s13.3 0 12.2 13.9-3.1 24.6-17.7 20.9c0 0 1.5 9.2-12 4.6-13.3-4.7-9.4-12.5-9.4-12.5z"/><path id="XMLID_19_" d="M126.9 156s-37.7-7.5-24.9-27.9c0 0-.8-17.7 9.4-25.6s19.6-2.3 19.6-2.3 1.5-15.4 21.5-13.6c20 1.9 21.1 22.6 21.1 22.6s23 0 21.1 24.1c-1.9 24.1-5.3 42.6-30.5 36.2 0 0 2.6 15.8-20.7 7.9S126.9 156 126.9 156z" style="fill:none;stroke:#3a3a3a;stroke-width:16;stroke-miterlimit:10"/><path id="XMLID_18_" d="M144.8 124.3s11.6-8 17.7 2.4c5.8 9.8.2 18.1.2 18.1s3.8-9.5-5.4-16.9c-8-6.4-12.5-3.6-12.5-3.6z" style="fill:#3a3a3a"/></g></svg>