<?xml version="1.0" encoding="utf-8"?>
<!-- Generator: Adobe Illustrator 19.0.0, SVG Export Plug-In . SVG Version: 6.00 Build 0)  -->
<svg version="1.0" id="Calque_1" xmlns="http://www.w3.org/2000/svg" xmlns:xlink="http://www.w3.org/1999/xlink" x="0px" y="0px" width="300px" height="260px"
	 viewBox="0 0 300 260" style="enable-background:new 0 0 300 260;" xml:space="preserve">
<style type="text/css">
	.st0{display:none;}
	.st1{display:inline;fill:#ADADAD;}
	.st2{display:inline;fill:#D1D1D1;}
	.st3{display:inline;fill:none;stroke:#3A3A3A;stroke-width:16;stroke-miterlimit:10;}
	.st4{display:inline;fill:#3A3A3A;}
	.st5{fill:#ADADAD;}
	.st6{fill:#D1D1D1;}
	.st7{fill:none;stroke:#3A3A3A;stroke-width:16;stroke-miterlimit:10;}
	.st8{fill:#3A3A3A;}
	.st9{display:inline;fill:none;stroke:#3A3A3A;stroke-width:16;stroke-miterlimit:10;}
</style>
<g id="dust1" class="st0">
	<path id="XMLID_9_" class="st1" d="M71.7,152.3c0,0-30.1-24.1-10.2-62.5s30.9-29.8,43.7-20.3c0,0,6.8-20,32-22.6
		c25.2-2.6,25.6,7.2,25.6,7.2s34.3-18.8,52,3.4s3.8,34.6,3.8,34.6s43.3,17.3,24.9,47.5s-31.3,56.1-54.6,42.9c0,0,0.8,38.8-56.5,26.4
		S70.2,189.6,71.7,152.3z"/>
	<path id="XMLID_15_" class="st2" d="M88.2,147.5c0,0-23.9-19.1-8.1-49.5s24.5-23.6,34.6-16.1c0,0,5.4-15.8,25.4-17.9
		s20.3,5.7,20.3,5.7s27.1-14.9,41.2,2.7s3,27.4,3,27.4s34.3,13.7,19.7,37.6c-14.6,23.9-24.8,44.4-43.2,34c0,0,0.6,30.7-44.7,20.9
		C90.9,182.4,87.1,177,88.2,147.5z"/>
	<path id="XMLID_2_" class="st3" d="M71.7,152.3c0,0-30.1-24.1-10.2-62.5s30.9-29.8,43.7-20.3c0,0,6.8-20,32-22.6
		c25.2-2.6,25.6,7.2,25.6,7.2s34.3-18.8,52,3.4s3.8,34.6,3.8,34.6s43.3,17.3,24.9,47.5s-31.3,56.1-54.6,42.9c0,0,0.8,38.8-56.5,26.4
		S70.2,189.6,71.7,152.3z"/>
	<path id="XMLID_8_" class="st4" d="M109.9,133.1c0,0-13.1-37.3,23-45.2c34.3-7.5,53.7,14.1,53.7,14.1s-27.3-22.5-57.5-3.9
		C102.9,114.2,109.9,133.1,109.9,133.1z"/>
</g>
<g id="dust2">
	<g id="Calque_4">
		<path id="XMLID_37_" class="st5" d="M93.1,96.4c0,0-10.5-30.5,34.3-38.8S170.3,77,170.3,77s38.4-0.9,33.9,30.3
			c0,0,27.5,8.7,22.2,32c-5.3,23.3-21.8,23-21.8,23s8.3,37.3-28.2,39.2s-49.7-6-49.3-20c0,0-31.6,21.5-45.6-8.7
			S53.2,106.9,93.1,96.4z"/>
	</g>
	<g id="Calque_4_-_copie_2">
		<path id="XMLID_5_" class="st6" d="M109.9,106.5c0,0-7.3-21,23.6-26.7c30.9-5.7,29.6,13.4,29.6,13.4s26.5-0.6,23.4,20.9
			c0,0,18.9,6,15.3,22.1s-15.1,15.8-15.1,15.8s5.7,25.7-19.5,27c-25.2,1.3-34.3-4.2-34-13.8c0,0-21.8,14.8-31.4-6
			S82.3,113.7,109.9,106.5z"/>
	</g>
	<path id="XMLID_34_" class="st7" d="M93.1,96.4c0,0-10.5-30.5,34.3-38.8S170.3,77,170.3,77s38.4-0.9,33.9,30.3
		c0,0,27.5,8.7,22.2,32c-5.3,23.3-21.8,23-21.8,23s8.3,37.3-28.2,39.2s-49.7-6-49.3-20c0,0-31.6,21.5-45.6-8.7S53.2,106.9,93.1,96.4
		z"/>
	<path id="XMLID_33_" class="st8" d="M126.4,157.1c0,0-20.4-4.1-14.1-22.8c6-17.7,21.1-20.8,21.1-20.8s-14.9,6.4-14.7,25.3
		C118.8,155.2,126.4,157.1,126.4,157.1z"/>
</g>
<g id="dust3" class="st0">
	<path id="XMLID_12_" class="st1" d="M103.9,139.7c0,0-20.3-6.8-6-35.4s32.4-29,43.3-18.5c0,0,13.9-16.6,36.5,0.8
		s28.6,30.5,16.2,36.9c0,0,19.6,26.7-4.9,41.1c0,0,8.3,11.3-6.8,23.3c-15.1,12.1-28.2-6.8-28.2-6.8s-13.6,15.8-31.3,4.5
		S91.9,151,103.9,139.7z"/>
	<path id="XMLID_13_" class="st2" d="M119.4,138.2c0,0-13-4.3-3.9-22.7s20.8-18.6,27.8-11.8c0,0,8.9-10.6,23.4,0.5
		s18.4,19.6,10.4,23.7c0,0,12.6,17.1-3.1,26.3c0,0,5.3,7.2-4.3,15c-9.7,7.7-18.1-4.3-18.1-4.3s-8.7,10.1-20,2.9
		C120.1,160.4,111.7,145.4,119.4,138.2z"/>
	<path id="XMLID_11_" class="st3" d="M103.9,139.7c0,0-20.3-6.8-6-35.4s32.4-29,43.3-18.5c0,0,13.9-16.6,36.5,0.8
		s28.6,30.5,16.2,36.9c0,0,19.6,26.7-4.9,41.1c0,0,8.3,11.3-6.8,23.3c-15.1,12.1-28.2-6.8-28.2-6.8s-13.6,15.8-31.3,4.5
		S91.9,151,103.9,139.7z"/>
	<path id="XMLID_14_" class="st4" d="M141,119.4c0,0,4.8-13.2,15.8-8.3c10.5,4.6,10.7,14.6,10.7,14.6s-2.4-10-14.3-10.6
		C143,114.5,141,119.4,141,119.4z"/>
</g>
<g id="dust4" class="st0">
	<path id="XMLID_25_" class="st1" d="M126.9,156c0,0-37.7-7.5-24.9-27.9c0,0-0.8-17.7,9.4-25.6s19.6-2.3,19.6-2.3
		s1.5-15.4,21.5-13.6c20,1.9,21.1,22.6,21.1,22.6s23,0,21.1,24.1c-1.9,24.1-5.3,42.6-30.5,36.2c0,0,2.6,15.8-20.7,7.9
		S126.9,156,126.9,156z"/>
	<path id="XMLID_24_" class="st2" d="M135.4,146.4c0,0-21.8-4.4-14.4-16.1c0,0-0.4-10.2,5.4-14.8s11.3-1.3,11.3-1.3
		s0.9-8.9,12.4-7.8c11.6,1.1,12.2,13.1,12.2,13.1s13.3,0,12.2,13.9s-3.1,24.6-17.7,20.9c0,0,1.5,9.2-12,4.6
		C131.5,154.2,135.4,146.4,135.4,146.4z"/>
	<path id="XMLID_19_" class="st9" d="M126.9,156c0,0-37.7-7.5-24.9-27.9c0,0-0.8-17.7,9.4-25.6s19.6-2.3,19.6-2.3
		s1.5-15.4,21.5-13.6c20,1.9,21.1,22.6,21.1,22.6s23,0,21.1,24.1c-1.9,24.1-5.3,42.6-30.5,36.2c0,0,2.6,15.8-20.7,7.9
		S126.9,156,126.9,156z"/>
	<path id="XMLID_18_" class="st4" d="M144.8,124.3c0,0,11.6-8,17.7,2.4c5.8,9.8,0.2,18.1,0.2,18.1s3.8-9.5-5.4-16.9
		C149.3,121.5,144.8,124.3,144.8,124.3z"/>
</g>
<g id="dust5" class="st0">
	<path id="XMLID_20_" class="st1" d="M121.8,130.8c0,0-19.6-16.1,4-26.9s26.4-1.8,26.4-1.8s21.6-4,23.1,7.5c1.5,11.5-5,21.1-5,21.1
		s17.8,9.8,5.2,20.3c-12.5,10.5-28.6,25.9-36.9,8.8c0,0-5,6.5-16.1-6C111.5,141.4,121.8,130.8,121.8,130.8z"/>
	<path id="XMLID_22_" class="st2" d="M133.4,131.9c0,0-10.6-8.7,2.2-14.5c12.8-5.8,14.2-0.9,14.2-0.9s11.7-2.2,12.5,4.1
		c0.8,6.2-2.7,11.4-2.7,11.4s9.6,5.3,2.8,11c-6.8,5.7-15.5,14-19.9,4.7c0,0-2.7,3.5-8.7-3.3S133.4,131.9,133.4,131.9z"/>
	<path id="XMLID_21_" class="st3" d="M121.8,130.8c0,0-19.6-16.1,4-26.9s26.4-1.8,26.4-1.8s21.6-4,23.1,7.5c1.5,11.5-5,21.1-5,21.1
		s17.8,9.8,5.2,20.3c-12.5,10.5-28.6,25.9-36.9,8.8c0,0-5,6.5-16.1-6C111.5,141.4,121.8,130.8,121.8,130.8z"/>
	<path id="XMLID_23_" class="st4" d="M139.4,129.5c0,0-3.6-7,2.9-9.6c6.1-2.5,10.3,1.3,10.3,1.3s-5.1-2.9-10.1,1.7
		C138.2,126.8,139.4,129.5,139.4,129.5z"/>
</g>
</svg>
