<svg version="1.0" id="Calque_1" xmlns="http://www.w3.org/2000/svg" x="0" y="0" width="300" height="260" style="enable-background:new 0 0 300 260" xml:space="preserve"><style>.st0{display:none}.st1{display:inline;fill:#adadad}.st2{fill:#d1d1d1}.st2,.st3,.st4{display:inline}.st3{fill:none;stroke:#3a3a3a;stroke-width:16;stroke-miterlimit:10}.st4{fill:#3a3a3a}</style><g id="dust2"><g id="Calque_4"><path id="XMLID_37_" d="M93.1 96.4s-10.5-30.5 34.3-38.8S170.3 77 170.3 77s38.4-.9 33.9 30.3c0 0 27.5 8.7 22.2 32-5.3 23.3-21.8 23-21.8 23s8.3 37.3-28.2 39.2-49.7-6-49.3-20c0 0-31.6 21.5-45.6-8.7s-28.3-65.9 11.6-76.4z" style="fill:#adadad"/></g><g id="Calque_4_-_copie_2"><path id="XMLID_5_" d="M109.9 106.5s-7.3-21 23.6-26.7c30.9-5.7 29.6 13.4 29.6 13.4s26.5-.6 23.4 20.9c0 0 18.9 6 15.3 22.1S186.7 152 186.7 152s5.7 25.7-19.5 27c-25.2 1.3-34.3-4.2-34-13.8 0 0-21.8 14.8-31.4-6s-19.5-45.5 8.1-52.7z" style="fill:#d1d1d1"/></g><path id="XMLID_34_" d="M93.1 96.4s-10.5-30.5 34.3-38.8S170.3 77 170.3 77s38.4-.9 33.9 30.3c0 0 27.5 8.7 22.2 32-5.3 23.3-21.8 23-21.8 23s8.3 37.3-28.2 39.2-49.7-6-49.3-20c0 0-31.6 21.5-45.6-8.7s-28.3-65.9 11.6-76.4z" style="fill:none;stroke:#3a3a3a;stroke-width:16;stroke-miterlimit:10"/><path id="XMLID_33_" d="M126.4 157.1s-20.4-4.1-14.1-22.8c6-17.7 21.1-20.8 21.1-20.8s-14.9 6.4-14.7 25.3c.1 16.4 7.7 18.3 7.7 18.3z" style="fill:#3a3a3a"/></g></svg>