<svg version="1.0" xmlns="http://www.w3.org/2000/svg" width="300" height="260" style="enable-background:new 0 0 300 260" xml:space="preserve"><style>.st0{display:none}.st2,.st8,.st9{display:inline}.st8,.st9{fill:#515250}.st9{fill:#262626}.st10{fill:#fbf7cb}.st11{fill:#f3eab1}.st14{fill:#efa624}.st15{fill:#fff48b}.st16{fill:#e0c17d}.st17{fill:#cbb577}.st18{fill:#fffad9}.st19{fill:#f7f0d0}.st20{fill:#fffada}</style><g id="fireDust4"><g id="base_-_copie_3"><path id="XMLID_70_" class="st10" d="M120.9 146s-10-3.4-9.3-16.4c.3-3.8 5.9-9.2 8-8.7 0 0-1.8-1.9-.9-4.5s3.1-3.5 4.5-3.2c0 0-4.5-5.7-.1-7.9s11.2.7 9 5.4c0 0 1.9-2.3 6.6-1.3 0 0-5.9-2.4-2.4-7.6 3.5-5.2 12.8-1.4 12.8-1.4s3.2-5 8.2-3.5c3.6 1.1 3.6 4.6 3.6 4.6s3.8 0 3.2 2.9c0 0 4.9-.9 7.4.9s3 7.8 3 7.8 8-1.8 7.4 8.8c-.6 10.6-1.9 16.9-6.2 16.5 0 0 1.8 4.3-4.3 4.8 0 0 6.1 8 .4 13.5-5.7 5.5-8.9 5.9-13.3 1.5 0 0-.5 1.5-2.8.6-2.3-.8-2-2.6-2-2.6s-.3 1.4-2.3.9-2.2-2.3-2.2-2.3-.4 1.5-1.8 1.9-2.8-.1-2.8-.1-3.3 4.7-9.1 3.6-7.3-7.8-7.3-7.8-1.9.6-5.3-1.9c-3.2-2.4-2-4.5-2-4.5z"/></g><g id="Calque_26_-_copie_3"><g id="XMLID_67_"><path id="XMLID_69_" class="st11" d="M175.3 130.1c1.9 2.9-2.5 4.9-2.6 5.2-.2 4.3-5.1 3.6-5.1 3.6 1.7.9.8 3.6.8 3.6-1.9 4-7.9 1.1-7.9 1.1-4.9-5.7 1.6-11.6 1.6-11.6-.8-.3-.7-1.1-.7-1.4-.5.9-3.1.3-3.1.3 1.4.4.8 1.8.8 1.8s-1.4 7.6-6.5 9.1c-5.2 1.5-9-5.5-9-5.5s-.5 2-2.8 3-4.1-1.1-4.1-1.1-.5 1.4-4.2.7c-3.7-.6-4.3-4.5-4.3-4.5s-1.7.8-5.3-1.2c-3.7-2.1 1.2-6.1 1.2-6.1.9-2.5-1.6-5.5-1.6-5.5-1.4-.1-2.4-.4-3.1-.7-2.2-.1-7.4 5-7.7 8.7-.7 12.9 9.3 16.4 9.3 16.4s-1.3 2.1 2.1 4.7c3.4 2.6 5.3 1.9 5.3 1.9s1.5 6.8 7.3 7.8c5.8 1.1 9.1-3.6 9.1-3.6s1.4.4 2.8.1 1.8-1.9 1.8-1.9.2 1.8 2.2 2.3c2 .5 2.3-.9 2.3-.9s-.3 1.7 2 2.6c2.3.8 2.8-.6 2.8-.6 4.5 4.4 7.7 4 13.3-1.5 5.7-5.5-.4-13.5-.4-13.5 6-.5 4.3-4.8 4.3-4.8 4.2.4 5.6-5.8 6.2-16.3-1.8 3.9-6.8 7.8-6.8 7.8z"/><path id="XMLID_68_" class="st11" d="M161.5 130.3s0 .1-.1.3c.1-.1.1-.2.1-.3z"/></g></g><g id="details_-_copie_3"><g id="XMLID_56_"><path id="XMLID_66_" class="st16" d="M143.2 154.4s-4.2 3.5-8.7 3c-4.5-.6-4.4-6.9-4.4-6.9s-1.6.2-5-1.6 1.7-9.5 1.7-9.5c-4.6-1.1-6.1 3.6-6.4 3.5-8.5-4.5-7.3-14.2-6.5-17.9-1.2 1.5-2.1 3.2-2.2 4.7-.7 12.9 9.3 16.4 9.3 16.4s-1.3 2.1 2.1 4.7c3.4 2.6 5.3 1.9 5.3 1.9s1.5 6.8 7.3 7.8c5.8 1.1 9.1-3.6 9.1-3.6s.4.1 1.1.2l-1.1-.9c-.3-.2-.5-.5-.7-.7l-.9-1.1z"/><path id="XMLID_57_" class="st16" d="M160.5 159.8c-5.3-3.3-5.2-11.2-5.2-11.2-2.3 1.8-1.6 7.2-1.6 7.2-2.8.1-4.4-1-4.4-1v.4s.2 1.8 2.2 2.3c2 .5 2.3-.9 2.3-.9s-.3 1.7 2 2.6c2.3.8 2.8-.6 2.8-.6 1 1 1.9 1.7 2.8 2.2-.1-.5-.4-.7-.9-1z"/></g><path id="XMLID_50_" class="st18" d="M144.8 124.1s1.3 4.5 5.1 3.9c3.7-.7 4.6-4.1 4.6-4.1s2.7-.9 1.4-2.8-7.3-1.3-7.3-1.3-7.9-3.4-8.5 1.1c-.7 4.5 4.7 3.2 4.7 3.2z"/><path id="XMLID_49_" class="st19" d="M136.4 151.7s-3.6.4-4-2.8c-.4-3.1 2.9-1.9 2.9-1.9s.7-1.6 3.5-.6 2.9 2.3 2.9 2.3 2 1.3.7 2.8c-1.4 1.5-3.3 1.1-3.3 1.1s-.7.7-1.8.2-.9-1.1-.9-1.1z"/><path id="XMLID_46_" class="st20" d="M142.3 106.8s-2.6-.7-1.5-3 4.3-.4 4.3-.4 3-.5 3.8.8c.8 1.4-.8 2.5-.8 2.5s.7 2.1-.9 2.2c-1.5 0-4.9-.4-4.9-2.1z"/><path id="XMLID_45_" class="st19" d="M166.5 155s-.5 2.1-2.7 1.3-1.2-3.4-1.2-3.4-.8-1 .9-2.5 3.3-.3 3.3-.3 1.6-.9 2.1.5c.6 1.4 0 1.8 0 1.8s-.1 1.4-.8 2c-.7.6-1.6.6-1.6.6z"/></g></g></svg>