<?xml version="1.0" encoding="utf-8"?>
<!-- Generator: Adobe Illustrator 19.0.0, SVG Export Plug-In . SVG Version: 6.00 Build 0)  -->
<svg version="1.0" id="Calque_1" xmlns="http://www.w3.org/2000/svg" xmlns:xlink="http://www.w3.org/1999/xlink" x="0px" y="0px" width="100px" height="150px"
	 viewBox="0 0 100 150" style="enable-background:new 0 0 100 150;" xml:space="preserve">
<style type="text/css">
	.st0{fill:none;stroke:#3F7193;stroke-width:3;stroke-miterlimit:10;}
	.st1{fill:none;stroke:#599ED6;stroke-width:3;stroke-miterlimit:10;}
	.st2{fill:#3F7193;}
	.st3{fill:#599ED6;}
</style>
<g id="Calque_4">
	<circle id="XMLID_1_" class="st0" cx="52" cy="77.4" r="27.6"/>
	<circle id="XMLID_2_" class="st1" cx="52.8" cy="76.6" r="27.6"/>
	<g id="Calque_2">
		<polygon id="XMLID_3_" class="st2" points="58.8,60.3 58.8,58.5 68.9,58.8 70.4,67 70.4,68.8 66.1,65.6 60.8,72.9 57.9,70.7 
			57.9,69 58.7,69.6 63.2,63.5 		"/>
		<polygon id="XMLID_4_" class="st3" points="58.8,58.5 68.9,57 70.4,67 66.1,63.8 60.8,71.1 57.9,69 63.2,61.7 		"/>
	</g>
	<g id="Calque_2_-_copie">
		<polygon id="XMLID_6_" class="st2" points="38.6,87.1 36.9,87.7 40.2,97.1 48.5,96.1 50.2,95.6 45.9,92.4 51.1,85.2 48.2,83 
			46.5,83.6 47.4,84.2 43,90.3 		"/>
		<polygon id="XMLID_5_" class="st3" points="36.9,87.7 38.5,97.7 48.5,96.1 44.2,92.9 49.4,85.7 46.5,83.6 41.3,90.8 		"/>
	</g>
</g>
</svg>
