<?xml version="1.0" encoding="utf-8"?>
<!-- Generator: Adobe Illustrator 19.0.0, SVG Export Plug-In . SVG Version: 6.00 Build 0)  -->
<svg version="1.0" id="Calque_52" xmlns="http://www.w3.org/2000/svg" xmlns:xlink="http://www.w3.org/1999/xlink" x="0px" y="0px"
	 viewBox="0 0 100 150" style="enable-background:new 0 0 100 150;" xml:space="preserve">
<style type="text/css">
	.st0{fill:#E8AF27;}
	.st1{fill:#E7C01F;}
</style>
<g id="speed">
	<g id="圖層_6_1_">
		<path id="XMLID_45_" class="st0" d="M82.3,92.5c0,0-1.9-1-2.5-8.3c-0.5-7.3-3.6-16.3-12-19.7c-8-3.3-27.3-7-41.6-18.5
			C25,48,26.3,58.7,40,66.8s14.4,8.1,13.6,9.8C53,77.9,43.5,79.4,19.7,63c1.1,4.8,16.4,23.4,25.2,25c8.2,1.5,12.2-3.2,13.7-0.9
			c1.5,2.3-1.2,5.6-9,5.4c-8.6-0.3-21-7.5-20.6-8c0,0,7.8,16.5,19.6,18.6S80.7,96.9,82.3,92.5z"/>
	</g>
	<g id="圖層_6_2_">
		<path id="XMLID_1_" class="st1" d="M78.3,90.5c0,0-1.9-1-2.5-8.3c-0.5-7.3-3.6-16.3-12-19.7c-8-3.3-23.3-5-37.6-16.5
			c-1.2,2-3.8,10.7,9.9,18.8s14.4,8.1,13.6,9.8C49,75.9,43.5,79.4,19.7,63c1.1,4.8,12.4,21.4,21.2,23c8.2,1.5,12.2-3.2,13.7-0.9
			c1.5,2.3-1.2,5.6-9,5.4c-8.6-0.3-17-5.5-16.6-6c0,0,3.8,14.5,15.6,16.6C56.4,103.2,76.7,94.9,78.3,90.5z"/>
	</g>
</g>
</svg>
