<?xml version="1.0" encoding="utf-8"?>
<!-- Generator: Adobe Illustrator 19.0.0, SVG Export Plug-In . SVG Version: 6.00 Build 0)  -->
<svg version="1.0" id="Calque_52" xmlns="http://www.w3.org/2000/svg" xmlns:xlink="http://www.w3.org/1999/xlink" x="0px" y="0px" width="150px" height="100px"
	 viewBox="0 0 100 150" style="enable-background:new 0 0 100 150;" xml:space="preserve">
<style type="text/css">
	.st0{fill:none;stroke:#FFFFFF;stroke-width:4;stroke-miterlimit:10;}
	.st1{fill:#FFFFFF;}
</style>
<g id="health">
	<g id="圖層_3_7_">
		<g id="圖層_23_8_">
			<g id="XMLID_72_">
				<path id="XMLID_73_" class="st0" d="M64.4,104.5l-27.9-0.1c-2.2,0-4.2-1.2-5.3-3L17.3,78c-1.1-1.8-1.1-4.1,0-5.9l14-23.5
					c1.1-1.8,3.1-3,5.3-3l27.9,0.1c2.2,0,4.2,1.2,5.3,3l13.9,23.5c1.1,1.8,1.1,4.1,0,5.9l-14,23.5C68.6,103.4,66.6,104.5,64.4,104.5
					z"/>
			</g>
		</g>
	</g>
	<g id="圖層_5_2_">
		<rect id="XMLID_71_" x="46.7" y="55.1" class="st1" width="7.5" height="38.9"/>
		<rect id="XMLID_70_" x="31" y="70.8" class="st1" width="38.9" height="7.5"/>
	</g>
</g>
</svg>
