<?xml version="1.0" encoding="utf-8"?>
<!-- Generator: Adobe Illustrator 19.0.0, SVG Export Plug-In . SVG Version: 6.00 Build 0)  -->
<svg version="1.0" xmlns="http://www.w3.org/2000/svg" xmlns:xlink="http://www.w3.org/1999/xlink" x="0px" y="0px" width="100px" height="150px"
	 viewBox="0 0 100 150" style="enable-background:new 0 0 100 150;" xml:space="preserve">
<style type="text/css">
	.st0{fill:none;stroke:#FFFFFF;stroke-width:4;stroke-miterlimit:10;}
	.st1{fill:#FFFFFF;}
</style>
<g id="Calque_52">
	<g id="speed">
		<g id="圖層_3_3_">
			<g id="圖層_23_4_">
				<g id="XMLID_46_">
					<path id="XMLID_47_" class="st0" d="M64.5,104.5l-27.9-0.1c-2.2,0-4.2-1.2-5.3-3L17.3,77.9c-1.1-1.8-1.1-4.1,0-5.9l14-23.5
						c1.1-1.8,3.1-3,5.3-3l27.9,0.1c2.2,0,4.2,1.2,5.3,3l13.9,23.5c1.1,1.8,1.1,4.1,0,5.9l-14,23.5
						C68.7,103.3,66.6,104.5,64.5,104.5z"/>
				</g>
			</g>
		</g>
		<g id="Calque_4">
			<path id="XMLID_11_" class="st1" d="M50.6,70.3c-3.2,0-5.8,2.6-5.8,5.8c0,3.2,2.6,5.8,5.8,5.8s5.8-2.6,5.8-5.8
				C56.4,72.9,53.8,70.3,50.6,70.3z M50.6,78.5c-1.3,0-2.4-1.1-2.4-2.4c0-1.3,1.1-2.4,2.4-2.4s2.4,1.1,2.4,2.4
				C53.1,77.5,52,78.5,50.6,78.5z"/>
			<path id="XMLID_3_" class="st1" d="M50.6,67.9L50.6,67.9c-1.3,0-2.4-1.1-2.4-2.4V54.8c0-1.3,1.1-2.4,2.4-2.4h0
				c1.3,0,2.4,1.1,2.4,2.4v10.6C53.1,66.8,52,67.9,50.6,67.9z"/>
			<path id="XMLID_5_" class="st1" d="M57.8,80.2L57.8,80.2c0.7-1.2,2.2-1.6,3.3-0.9l9.2,5.3c1.2,0.7,1.6,2.2,0.9,3.3l0,0
				c-0.7,1.2-2.2,1.6-3.3,0.9l-9.2-5.3C57.5,82.9,57.1,81.4,57.8,80.2z"/>
			<path id="XMLID_4_" class="st1" d="M43.7,80.5L43.7,80.5c0.7,1.1,0.4,2.6-0.8,3.4l-9,5.6c-1.1,0.7-2.6,0.4-3.4-0.8h0
				c-0.7-1.1-0.4-2.6,0.8-3.4l9-5.6C41.4,79,43,79.3,43.7,80.5z"/>
		</g>
	</g>
</g>
<g id="border_-_copie_2">
</g>
</svg>
