<?xml version="1.0" encoding="utf-8"?>
<!-- Generator: Adobe Illustrator 19.0.0, SVG Export Plug-In . SVG Version: 6.00 Build 0)  -->
<svg version="1.0" xmlns="http://www.w3.org/2000/svg" xmlns:xlink="http://www.w3.org/1999/xlink" x="0px" y="0px"
	 viewBox="0 0 100 150" style="enable-background:new 0 0 100 150;" xml:space="preserve">
<style type="text/css">
	.st0{display:none;fill:#484748;}
	.st1{fill:#50A5DB;}
	.st2{fill:#FFFFFF;}
</style>
<g id="Calque_52">
	<g id="speed">
		<rect id="XMLID_1_" class="st0" width="100" height="150"/>
		<g id="Calque_4">
			<path id="XMLID_11_" class="st1" d="M52.5,71.9c-5,0-9,4-9,9c0,5,4,9,9,9s9-4,9-9C61.5,75.9,57.5,71.9,52.5,71.9z M52.5,84.7
				c-2.1,0-3.8-1.7-3.8-3.8c0-2.1,1.7-3.8,3.8-3.8s3.8,1.7,3.8,3.8C56.3,83,54.6,84.7,52.5,84.7z"/>
			<path id="XMLID_3_" class="st1" d="M53.9,68.1h-3c-1.3,0-4.2-2.9-4.2-4.3l2-17.3c0-1.3,1.1-2.4,2.4-2.4l0.7-2
				c1.3,0,4.4,1.6,4.4,2.9v20.7C56.3,67,55.2,68.1,53.9,68.1z"/>
			<path id="XMLID_5_" class="st1" d="M60.7,87.2l3.6-1.1c0.7-1.2,2.2-1.6,3.3-0.9l14.4,7.5L84,94c1.2,0.7,1.8,3.1,1.1,4.2l-1.4,2.4
				c-0.7,1.2-2.2,1.6-3.3,0.9l-16.6-9.6C62.7,91.1,60.1,89.9,60.7,87.2z"/>
			<path id="XMLID_4_" class="st1" d="M41,86.5l1.4,2.3c0.7,1.1,0.4,2.6-0.8,3.4l-16.3,10.2c-1.7,1.2-4.4-1.3-5.1-2.5l-0.9-1.3
				c-0.7-1.1,0.8-1.9,2-2.6l15.5-12.3C38,82.9,40.2,85.4,41,86.5z"/>
		</g>
		<g id="Calque_4_-_copie">
			<path id="XMLID_10_" class="st2" d="M50.5,69.9c-5,0-9,4-9,9c0,5,4,9,9,9s9-4,9-9C59.5,73.9,55.5,69.9,50.5,69.9z M50.5,82.7
				c-2.1,0-3.8-1.7-3.8-3.8c0-2.1,1.7-3.8,3.8-3.8s3.8,1.7,3.8,3.8C54.3,81,52.6,82.7,50.5,82.7z"/>
			<path id="XMLID_7_" class="st2" d="M51.9,66.1h-2.7c-1.3,0-2.4-1.1-2.4-2.4V44.4c0-1.3,1.1-2.4,2.4-2.4h2.7
				c1.3,0,2.4,1.1,2.4,2.4v19.2C54.3,65,53.2,66.1,51.9,66.1z"/>
			<path id="XMLID_6_" class="st2" d="M60.9,86.5l1.4-2.4c0.7-1.2,2.2-1.6,3.3-0.9l16.6,9.6c1.2,0.7,1.6,2.2,0.9,3.3l-1.4,2.4
				c-0.7,1.2-2.2,1.6-3.3,0.9l-16.6-9.6C60.7,89.1,60.3,87.6,60.9,86.5z"/>
			<path id="XMLID_2_" class="st2" d="M39,84.5l1.4,2.3c0.7,1.1,0.4,2.6-0.8,3.4l-16.3,10.2c-1.1,0.7-2.6,0.4-3.4-0.8l-1.4-2.3
				c-0.7-1.1-0.4-2.6,0.8-3.4l16.3-10.2C36.7,83,38.2,83.4,39,84.5z"/>
		</g>
	</g>
</g>
<g id="border_-_copie_2">
</g>
</svg>
