<?xml version="1.0" encoding="utf-8"?>
<!-- Generator: Adobe Illustrator 19.0.0, SVG Export Plug-In . SVG Version: 6.00 Build 0)  -->
<svg version="1.0" id="Calque_1" xmlns="http://www.w3.org/2000/svg" xmlns:xlink="http://www.w3.org/1999/xlink" x="0px" y="0px" width="150px" height="100px"
	 viewBox="0 0 100 150" style="enable-background:new 0 0 100 150;" xml:space="preserve">
<style type="text/css">
	.st0{fill:#E8AF29;}
	.st1{fill:#E9C01E;}
</style>
<g id="zoomOut_-_copie">
	<g id="Calque_28_-_copie_3_1_">
		<path id="XMLID_437_" class="st0" d="M24.8,84.9V74c0-0.9,0.7-1.6,1.6-1.6h47.3c0.9,0,1.6,0.7,1.6,1.6v10.9c0,0.9-0.7,1.6-1.6,1.6
			H26.4C25.5,86.5,24.8,85.8,24.8,84.9z"/>
		<polyline id="XMLID_436_" class="st0" points="28.3,69.9 25.3,72.9 27.7,72.9 28.3,69.9 		"/>
		<polyline id="XMLID_435_" class="st0" points="77.8,83 74.9,85.9 74.9,82.7 77.8,83 		"/>
	</g>
	<g id="Calque_28_-_copie_3">
		<path id="XMLID_438_" class="st1" d="M27.7,82V71.1c0-0.9,0.7-1.6,1.6-1.6h47.3c0.9,0,1.6,0.7,1.6,1.6V82c0,0.9-0.7,1.6-1.6,1.6
			H29.3C28.4,83.6,27.7,82.9,27.7,82z"/>
	</g>
</g>
</svg>
