<?xml version="1.0" encoding="utf-8"?>
<!-- Generator: Adobe Illustrator 19.0.0, SVG Export Plug-In . SVG Version: 6.00 Build 0)  -->
<svg version="1.0" id="Calque_52" xmlns="http://www.w3.org/2000/svg" xmlns:xlink="http://www.w3.org/1999/xlink" x="0px" y="0px" width="150px" height="100px"
	 viewBox="0 0 100 150" style="enable-background:new 0 0 100 150;" xml:space="preserve">
<style type="text/css">
	.st0{fill:none;stroke:#FFFFFF;stroke-width:4;stroke-miterlimit:10;}
	.st1{fill:#FFFFFF;}
	.st2{font-family:'FranklinGothic-Medium';}
	.st3{font-size:47.6478px;}
</style>
<g id="money">
	<g id="圖層_3_1_">
		<g id="圖層_23_2_">
			<g id="XMLID_225_">
				<path id="XMLID_227_" class="st0" d="M64.5,104.5l-27.9-0.1c-2.2,0-4.2-1.2-5.3-3L17.3,77.9c-1.1-1.8-1.1-4.1,0-5.9l14-23.5
					c1.1-1.8,3.1-3,5.3-3l27.9,0.1c2.2,0,4.2,1.2,5.3,3l13.9,23.5c1.1,1.8,1.1,4.1,0,5.9l-14,23.5C68.7,103.3,66.6,104.5,64.5,104.5
					z"/>
			</g>
		</g>
	</g>
	<text id="XMLID_214_" transform="matrix(1 0 0 1 36.8738 91.1697)" class="st1 st2 st3">S</text>
	<path id="XMLID_213_" class="st1" d="M50.2,55L50.2,55c-1.2,0-2.2,1-2.2,2.2v35.5c0,1.2,1,2.2,2.2,2.2h0c1.2,0,2.2-1,2.2-2.2V57.2
		C52.4,56,51.4,55,50.2,55z"/>
</g>
</svg>
