<?xml version="1.0" encoding="utf-8"?>
<!-- Generator: Adobe Illustrator 19.0.0, SVG Export Plug-In . SVG Version: 6.00 Build 0)  -->
<svg version="1.0" id="Calque_1" xmlns="http://www.w3.org/2000/svg" xmlns:xlink="http://www.w3.org/1999/xlink" x="0px" y="0px"
	 viewBox="0 0 100 150" style="enable-background:new 0 0 100 150;" xml:space="preserve">
<style type="text/css">
	.st0{fill:none;stroke:#96D5DF;stroke-width:8;stroke-miterlimit:10;}
	.st1{fill:url(#XMLID_7_);}
	.st2{fill:#636464;}
	.st3{opacity:0.25;fill:url(#XMLID_9_);}
</style>
<path id="XMLID_8_" class="st0" d="M83.9,94c-1-2.5-6.3-15.6-7.3-18c-0.2-0.5-0.5-0.9-0.9-1.3c-0.5-0.5-1.2-1-2.3-1.1
	c-3.2-0.2-4.7-0.3-5.5-0.7c-0.8-0.5-0.8-1.4-0.5-2.6c0.2-1.1,1-8.4,1.2-10.2c0-0.3,0-0.6,0-0.9c-0.3-2.4-1.9-12.9-9.4-16.6
	c-2.6-1.3-11.8-1.3-14.4,0c-7.5,3.7-9.2,14.2-9.4,16.6c0,0.3,0,0.6,0,0.9c0.2,1.8,1,9.1,1.2,10.2c0.2,1.2,0.2,2.2-0.5,2.6
	c-0.8,0.5-2.3,0.5-5.5,0.7c-1,0.1-1.8,0.6-2.3,1.1c-0.4,0.4-0.7,0.8-0.9,1.3c-1,2.4-6.3,15.5-7.3,18c-1,2.7-0.6,5.3,1.5,7.4
	c1,1.1,3.5,1.3,5.8,1.2c2.3,0,4.1-2,3.9-4.3c-0.3-5.1-0.8-13.4-0.9-14.7c-0.1-1.1,0.8-1.6,1.4-1.8c0.4-0.1,0.7-0.2,1.1-0.2H52h0
	h19.1c0.4,0,0.8,0,1.1,0.2c0.7,0.2,1.5,0.7,1.4,1.8c-0.1,1.3-0.6,9.6-0.9,14.7c-0.1,2.3,1.6,4.2,3.9,4.3c2.2,0,4.7-0.2,5.8-1.2
	C84.5,99.3,84.9,96.7,83.9,94z M57.4,68.1l0.4,8.6c0,0,0,0,0,0c-0.1,0-2.2,0.7-5.5,0.8c-3.3,0.1-5.1-0.8-5.2-0.8c0,0,0,0,0,0
	l0.3-8.4c0,0,0,0,0,0c-8.3-3.7-7.2-14-7.2-14.1c0,0,0,0,0,0c0,0,1.9-3.3,11.6-3.6c9.7-0.2,12.7,3.9,12.7,3.9c0,0,0,0,0,0
	C66,64.7,57.5,68.1,57.4,68.1C57.4,68.1,57.4,68.1,57.4,68.1z"/>
<radialGradient id="XMLID_7_" cx="51.9969" cy="72.1377" r="31.473" gradientUnits="userSpaceOnUse">
	<stop  offset="0" style="stop-color:#005A6A"/>
	<stop  offset="0.3346" style="stop-color:#005869"/>
	<stop  offset="0.5671" style="stop-color:#005367"/>
	<stop  offset="0.7688" style="stop-color:#004A62"/>
	<stop  offset="0.9517" style="stop-color:#003E5C"/>
	<stop  offset="1" style="stop-color:#003A5A"/>
</radialGradient>
<path id="XMLID_1_" class="st1" d="M83.9,94c-1-2.5-6.3-15.6-7.3-18c-0.2-0.5-0.5-0.9-0.9-1.3c-0.5-0.5-1.2-1-2.3-1.1
	c-3.2-0.2-4.7-0.3-5.5-0.7c-0.8-0.5-0.8-1.4-0.5-2.6c0.2-1.1,1-8.4,1.2-10.2c0-0.3,0-0.6,0-0.9c-0.3-2.4-1.9-12.9-9.4-16.6
	c-2.6-1.3-11.8-1.3-14.4,0c-7.5,3.7-9.2,14.2-9.4,16.6c0,0.3,0,0.6,0,0.9c0.2,1.8,1,9.1,1.2,10.2c0.2,1.2,0.2,2.2-0.5,2.6
	c-0.8,0.5-2.3,0.5-5.5,0.7c-1,0.1-1.8,0.6-2.3,1.1c-0.4,0.4-0.7,0.8-0.9,1.3c-1,2.4-6.3,15.5-7.3,18c-1,2.7-0.6,5.3,1.5,7.4
	c1,1.1,3.5,1.3,5.8,1.2c2.3,0,4.1-2,3.9-4.3c-0.3-5.1-0.8-13.4-0.9-14.7c-0.1-1.1,0.8-1.6,1.4-1.8c0.4-0.1,0.7-0.2,1.1-0.2H52h0
	h19.1c0.4,0,0.8,0,1.1,0.2c0.7,0.2,1.5,0.7,1.4,1.8c-0.1,1.3-0.6,9.6-0.9,14.7c-0.1,2.3,1.6,4.2,3.9,4.3c2.2,0,4.7-0.2,5.8-1.2
	C84.5,99.3,84.9,96.7,83.9,94z M57.4,68.1l0.4,8.6c0,0,0,0,0,0c-0.1,0-2.2,0.7-5.5,0.8c-3.3,0.1-5.1-0.8-5.2-0.8c0,0,0,0,0,0
	l0.3-8.4c0,0,0,0,0,0c-8.3-3.7-7.2-14-7.2-14.1c0,0,0,0,0,0c0,0,1.9-3.3,11.6-3.6c9.7-0.2,12.7,3.9,12.7,3.9c0,0,0,0,0,0
	C66,64.7,57.5,68.1,57.4,68.1C57.4,68.1,57.4,68.1,57.4,68.1z"/>
<path id="XMLID_6_" class="st2" d="M32.5,102.6l-1.2-16.9c-0.1-1.7,1.3-3.2,3.1-3.2h35.2c1.8,0,3.2,1.5,3.1,3.2l-1.1,16.9
	c-0.1,1.6-1.4,2.8-3.1,2.8H35.5C33.9,105.3,32.6,104.1,32.5,102.6z"/>
<linearGradient id="XMLID_9_" gradientUnits="userSpaceOnUse" x1="51.9826" y1="83.9027" x2="51.9826" y2="104.4637">
	<stop  offset="0" style="stop-color:#FFFFFF"/>
	<stop  offset="1" style="stop-color:#000000"/>
</linearGradient>
<path id="XMLID_4_" class="st3" d="M66.6,104.5H37.4c-2.4,0-4.3-2-4.3-4.3V88.2c0-2.4,2-4.3,4.3-4.3h29.2c2.4,0,4.3,2,4.3,4.3v11.9
	C70.9,102.5,69,104.5,66.6,104.5z"/>
</svg>
