<?xml version="1.0" encoding="utf-8"?>
<!-- Generator: Adobe Illustrator 19.0.0, SVG Export Plug-In . SVG Version: 6.00 Build 0)  -->
<svg version="1.0" xmlns="http://www.w3.org/2000/svg" xmlns:xlink="http://www.w3.org/1999/xlink" x="0px" y="0px"
	 viewBox="0 0 100 150" style="enable-background:new 0 0 100 150;" xml:space="preserve">
<style type="text/css">
	.st0{display:none;}
	.st1{display:inline;stroke:#FFFFFF;stroke-miterlimit:10;}
	.st2{fill:none;stroke:#FFFFFF;stroke-width:4;stroke-miterlimit:10;}
	.st3{opacity:0.7;fill:none;stroke:#FFFFFF;stroke-width:2;stroke-miterlimit:10;}
</style>
<g id="Calque_4" class="st0">
	<rect id="XMLID_1_" class="st1" width="100" height="150"/>
</g>
<g id="Calque_52">
	<g id="圖層_3_2_">
		<g id="圖層_23_2_">
			<g id="XMLID_11_">
				<path id="XMLID_12_" class="st2" d="M64.4,103.1l-27.9-0.1c-2.2,0-4.2-1.2-5.3-3L17.3,76.6c-1.1-1.8-1.1-4.1,0-5.9l14-23.5
					c1.1-1.8,3.1-3,5.3-3l27.9,0.1c2.2,0,4.2,1.2,5.3,3l13.9,23.5c1.1,1.8,1.1,4.1,0,5.9l-14,23.5C68.6,102,66.6,103.1,64.4,103.1z"
					/>
			</g>
		</g>
	</g>
	<path id="XMLID_10_" class="st3" d="M50,65.6c4.9,0,9.3-1.4,12.5-3.6c-3.2-3.2-7.6-5.2-12.5-5.2s-9.3,2-12.5,5.2
		C40.7,64.2,45.1,65.6,50,65.6z"/>
	<circle id="XMLID_2_" class="st3" cx="50" cy="74.5" r="17.7"/>
	<ellipse id="XMLID_3_" class="st3" cx="50" cy="74.5" rx="11.4" ry="17.7"/>
	<line id="XMLID_4_" class="st3" x1="32.3" y1="74.5" x2="67.7" y2="74.5"/>
	<line id="XMLID_5_" class="st3" x1="50" y1="56.8" x2="50" y2="92.2"/>
	<path id="XMLID_9_" class="st3" d="M50,83.2c-4.9,0-9.4,1.4-12.6,3.7c3.2,3.3,7.7,5.3,12.6,5.3s9.4-2,12.6-5.3
		C59.4,84.6,54.9,83.2,50,83.2z"/>
</g>
</svg>
