<?xml version="1.0" encoding="utf-8"?>
<!-- Generator: Adobe Illustrator 19.0.0, SVG Export Plug-In . SVG Version: 6.00 Build 0)  -->
<svg version="1.0" xmlns="http://www.w3.org/2000/svg" xmlns:xlink="http://www.w3.org/1999/xlink" x="0px" y="0px"
	 viewBox="0 0 100 150" style="enable-background:new 0 0 100 150;" xml:space="preserve">
<style type="text/css">
	.st0{opacity:0.25;fill:#C6C6C5;}
	.st1{fill:#FFFFFF;}
	.st2{fill:none;stroke:#FFFFFF;stroke-width:4;stroke-miterlimit:10;}
</style>
<g id="Calque_4">
</g>
<g id="shield">
	<path id="XMLID_50_" class="st0" d="M49.7,66.5l-6.3-3.6c-0.6-0.3-1.2-0.2-1.7,0.3c-2.5,2.7-4,6.5-4,10.8c0,8.2,5.6,18.2,12.7,18.2
		l0-25.4C50.2,66.7,49.9,66.6,49.7,66.5z"/>
	<path id="XMLID_36_" class="st1" d="M61.3,60.8c-0.7-0.8-1.9-1.1-2.9-0.5l-6.9,4c-0.7,0.4-1.6,0.4-2.3,0l-6.9-4
		c-1-0.5-2.2-0.3-2.9,0.5c-2.8,3.2-4.4,7.7-4.4,12.6c0,7.8,4.3,15.7,10.3,18.6c1.6,0.8,5.1,5,5.1,5s3.4-4.2,5-5
		c6-2.9,10.4-10.8,10.4-18.7C65.8,68.5,64.1,64.1,61.3,60.8z M50.4,92.1c-7,0-12.7-10-12.7-18.2c0-4.2,1.5-8.1,4-10.8
		c0.4-0.5,1.1-0.6,1.7-0.3l6.3,3.6c0.4,0.2,0.9,0.2,1.4,0l6.3-3.6c0.6-0.3,1.2-0.2,1.7,0.3c2.5,2.7,4,6.5,4,10.8
		C63.1,82,57.4,92.1,50.4,92.1z"/>
	<path id="XMLID_49_" class="st1" d="M50.4,75.6c4.7,0,9.1-1.4,12.6-2.6c0-0.9-0.2-1.9-0.4-2.7c-3.4,1.2-7.7,2.5-12.3,2.5
		c-4.6,0-8.8-1.3-12.3-2.5c-0.2,0.9-0.3,1.8-0.4,2.8C41.3,74.2,45.7,75.6,50.4,75.6z"/>
	<path id="XMLID_23_" class="st1" d="M49.3,75.6c0,1.6,0.7,3.5,1.1,5.3c0.3-1.4,1.1-3.4,1.1-5.3l-1.1,0L49.3,75.6z"/>
</g>
<g id="Calque_52">
	<g id="圖層_3_2_">
		<g id="圖層_23_2_">
			<g id="XMLID_5_">
				<path id="XMLID_6_" class="st2" d="M64.4,106.4l-27.9-0.1c-2.2,0-4.2-1.2-5.3-3L17.2,79.9c-1.1-1.8-1.1-4.1,0-5.9l14-23.5
					c1.1-1.8,3.1-3,5.3-3l27.9,0.1c2.2,0,4.2,1.2,5.3,3L83.6,74c1.1,1.8,1.1,4.1,0,5.9l-14,23.5C68.6,105.3,66.5,106.4,64.4,106.4z"
					/>
			</g>
		</g>
	</g>
</g>
</svg>
