<?xml version="1.0" encoding="utf-8"?>
<!-- Generator: Adobe Illustrator 19.0.0, SVG Export Plug-In . SVG Version: 6.00 Build 0)  -->
<svg version="1.0" id="Calque_52" xmlns="http://www.w3.org/2000/svg" xmlns:xlink="http://www.w3.org/1999/xlink" x="0px" y="0px"
	 viewBox="0 0 100 150" style="enable-background:new 0 0 100 150;" xml:space="preserve">
<style type="text/css">
	.st0{display:none;fill:#484748;}
	.st1{fill:#FFFFFF;}
	.st2{fill:#E0E0E0;}
</style>
<rect id="XMLID_5_" x="0" class="st0" width="100" height="150"/>
<g id="speed">
	<g id="圖層_6_3_">
		<path id="XMLID_1_" class="st1" d="M83.3,90.4c0,0-1.9-1-2.5-8.3c-0.5-7.3-3.6-16.3-12-19.7c-8-3.3-27.3-7-41.6-18.5
			c-1.2,2,0.2,12.7,13.9,20.8s14.4,8.1,13.6,9.8c-0.6,1.3-10.1,2.8-33.9-13.6c1.1,4.8,16.4,23.4,25.2,25c8.2,1.5,12.2-3.2,13.7-0.9
			c1.5,2.3-1.2,5.6-9,5.4c-8.6-0.3-21-7.5-20.6-8c0,0,7.8,16.5,19.6,18.6C61.4,103,81.7,94.7,83.3,90.4z"/>
	</g>
	<g id="圖層_6_2_">
		<path id="XMLID_2_" class="st2" d="M79.3,88.4c0,0-1.9-1-2.5-8.3c-0.5-7.3-3.6-16.3-12-19.7c-8-3.3-23.3-5-37.6-16.5
			c-1.2,2-3.8,10.7,9.9,18.8s14.4,8.1,13.6,9.8c-0.6,1.3-6.1,4.8-29.9-11.6c1.1,4.8,12.4,21.4,21.2,23c8.2,1.5,12.2-3.2,13.7-0.9
			c1.5,2.3-1.2,5.6-9,5.4c-8.6-0.3-17-5.5-16.6-6c0,0,3.8,14.5,15.6,16.6C57.4,101,77.8,92.7,79.3,88.4z"/>
	</g>
</g>
</svg>
