<?xml version="1.0" encoding="utf-8"?>
<!-- Generator: Adobe Illustrator 19.0.0, SVG Export Plug-In . SVG Version: 6.00 Build 0)  -->
<svg version="1.0" id="Calque_52" xmlns="http://www.w3.org/2000/svg" xmlns:xlink="http://www.w3.org/1999/xlink" x="0px" y="0px" width="150px" height="100px"
	 viewBox="0 0 100 150" style="enable-background:new 0 0 100 150;" xml:space="preserve">
<style type="text/css">
	.st0{fill:none;stroke:#FFFFFF;stroke-width:4;stroke-miterlimit:10;}
	.st1{fill:#FFFFFF;}
</style>
<g id="speed">
	<g id="圖層_3_3_">
		<g id="圖層_23_4_">
			<g id="XMLID_46_">
				<path id="XMLID_47_" class="st0" d="M64.5,104.5l-27.9-0.1c-2.2,0-4.2-1.2-5.3-3L17.3,77.9c-1.1-1.8-1.1-4.1,0-5.9l14-23.5
					c1.1-1.8,3.1-3,5.3-3l27.9,0.1c2.2,0,4.2,1.2,5.3,3l13.9,23.5c1.1,1.8,1.1,4.1,0,5.9l-14,23.5C68.7,103.3,66.6,104.5,64.5,104.5
					z"/>
			</g>
		</g>
	</g>
	<g id="圖層_6_1_">
		<path id="XMLID_45_" class="st1" d="M64.6,82.6c0,0-1-0.5-1.2-4.2c-0.3-3.7-1.8-8.1-6-9.9c-4-1.6-11.7-2.5-18.8-8.3
			c-0.6,1-1.9,5.4,4.9,9.4s7.2,4,6.8,4.9c-0.3,0.6-3.1,2.4-15-5.8c0.5,2.4,6.2,10.7,10.6,11.5c4.1,0.7,6.1-1.6,6.9-0.5
			c0.8,1.2-0.6,2.8-4.5,2.7c-4.3-0.2-8.5-2.8-8.3-3c0,0,1.9,7.2,7.8,8.3C53.7,89,63.9,84.8,64.6,82.6z"/>
	</g>
</g>
</svg>
