<?xml version="1.0" encoding="utf-8"?>
<!-- Generator: Adobe Illustrator 19.0.0, SVG Export Plug-In . SVG Version: 6.00 Build 0)  -->
<svg version="1.0" xmlns="http://www.w3.org/2000/svg" xmlns:xlink="http://www.w3.org/1999/xlink" x="0px" y="0px"
	 viewBox="0 0 100 150" style="enable-background:new 0 0 100 150;" xml:space="preserve">
<style type="text/css">
	.st0{display:none;}
	.st1{display:inline;stroke:#FFFFFF;stroke-miterlimit:10;}
	.st2{fill:#FFFFFF;}
	.st3{fill:none;stroke:#FFFFFF;stroke-width:4;stroke-miterlimit:10;}
</style>
<g id="Calque_4" class="st0">
	<rect id="XMLID_2_" class="st1" width="100" height="150"/>
</g>
<g id="Calque_3">
	<polygon id="XMLID_1_" class="st2" points="55.5,58.5 38.8,77.5 51,77.5 48,91.5 65.3,72.7 52.5,72.7 	"/>
</g>
<g id="Calque_52">
	<g id="圖層_3_2_">
		<g id="圖層_23_2_">
			<g id="XMLID_11_">
				<path id="XMLID_12_" class="st3" d="M63.9,104.5L36,104.4c-2.2,0-4.2-1.2-5.3-3L16.8,77.9c-1.1-1.8-1.1-4.1,0-5.9l14-23.5
					c1.1-1.8,3.1-3,5.3-3L64,45.6c2.2,0,4.2,1.2,5.3,3l13.9,23.5c1.1,1.8,1.1,4.1,0,5.9l-14,23.5C68.1,103.3,66.1,104.5,63.9,104.5z
					"/>
			</g>
		</g>
	</g>
</g>
</svg>
