<?xml version="1.0" encoding="utf-8"?>
<!-- Generator: Adobe Illustrator 19.0.0, SVG Export Plug-In . SVG Version: 6.00 Build 0)  -->
<svg version="1.0" xmlns="http://www.w3.org/2000/svg" xmlns:xlink="http://www.w3.org/1999/xlink" x="0px" y="0px"
	 viewBox="0 0 300 300" style="enable-background:new 0 0 300 300;" xml:space="preserve">
<style type="text/css">
	.st0{fill:#E8C03E;}
	.st1{fill:#BC943A;}
	.st2{opacity:0.25;fill:url(#XMLID_7_);}
	.st3{opacity:0.25;fill:url(#XMLID_13_);}
	.st4{opacity:0.25;fill:url(#XMLID_15_);}
	.st5{opacity:0.25;fill:url(#XMLID_18_);}
	.st6{opacity:5.000000e-002;fill:url(#XMLID_19_);}
</style>
<g id="Calque_4_-_copie">
	<path id="XMLID_12_" class="st0" d="M148.8,217.8c-17.6,0-31.9,22.4-31.9,50.1h63.9C180.7,240.2,166.4,217.8,148.8,217.8z"/>
	<path id="XMLID_14_" class="st1" d="M119.7,247.2c-1.1,3.7-1.8,7.5-2.3,11.6c7.3,2.1,18.6,3.5,31.4,3.5s24.1-1.4,31.4-3.5
		c-0.5-4.1-1.3-7.9-2.3-11.6c-7.3-1.8-17.6-2.9-29.1-2.9S126.9,245.4,119.7,247.2z"/>
	<g id="Calque_1_-_copie_3_1_">
		
			<linearGradient id="XMLID_7_" gradientUnits="userSpaceOnUse" x1="143.75" y1="329.5178" x2="143.75" y2="288.7953" gradientTransform="matrix(1 0 0 1 5 -70.2644)">
			<stop  offset="0" style="stop-color:#CFE6F5;stop-opacity:0"/>
			<stop  offset="0.2989" style="stop-color:#D2E7F6;stop-opacity:0.2989"/>
			<stop  offset="0.5438" style="stop-color:#DBECF8;stop-opacity:0.5438"/>
			<stop  offset="0.7696" style="stop-color:#E9F4FB;stop-opacity:0.7696"/>
			<stop  offset="0.9826" style="stop-color:#FDFEFF;stop-opacity:0.9826"/>
			<stop  offset="1" style="stop-color:#FFFFFF"/>
		</linearGradient>
		<ellipse id="XMLID_5_" class="st2" cx="148.8" cy="238.9" rx="16.1" ry="20.4"/>
	</g>
</g>
<g id="Calque_3_-_copie_2">
	<ellipse id="XMLID_17_" class="st0" cx="149.5" cy="207.3" rx="13.5" ry="13"/>
	
		<linearGradient id="XMLID_13_" gradientUnits="userSpaceOnUse" x1="145.5" y1="86.0946" x2="145.5" y2="69.6698" gradientTransform="matrix(-1 0 0 -1 295 288.5144)">
		<stop  offset="0" style="stop-color:#CFE6F5;stop-opacity:0"/>
		<stop  offset="0.2989" style="stop-color:#D2E7F6;stop-opacity:0.2989"/>
		<stop  offset="0.5438" style="stop-color:#DBECF8;stop-opacity:0.5438"/>
		<stop  offset="0.7696" style="stop-color:#E9F4FB;stop-opacity:0.7696"/>
		<stop  offset="0.9826" style="stop-color:#FDFEFF;stop-opacity:0.9826"/>
		<stop  offset="1" style="stop-color:#FFFFFF"/>
	</linearGradient>
	<ellipse id="XMLID_16_" class="st3" cx="149.5" cy="210.6" rx="6.5" ry="8.2"/>
</g>
<g id="Calque_3_-_copie">
	<ellipse id="XMLID_8_" class="st0" cx="149.5" cy="183.8" rx="13.5" ry="13"/>
	
		<linearGradient id="XMLID_15_" gradientUnits="userSpaceOnUse" x1="145.5" y1="109.5946" x2="145.5" y2="93.1698" gradientTransform="matrix(-1 0 0 -1 295 288.5144)">
		<stop  offset="0" style="stop-color:#CFE6F5;stop-opacity:0"/>
		<stop  offset="0.2989" style="stop-color:#D2E7F6;stop-opacity:0.2989"/>
		<stop  offset="0.5438" style="stop-color:#DBECF8;stop-opacity:0.5438"/>
		<stop  offset="0.7696" style="stop-color:#E9F4FB;stop-opacity:0.7696"/>
		<stop  offset="0.9826" style="stop-color:#FDFEFF;stop-opacity:0.9826"/>
		<stop  offset="1" style="stop-color:#FFFFFF"/>
	</linearGradient>
	<ellipse id="XMLID_4_" class="st4" cx="149.5" cy="187.1" rx="6.5" ry="8.2"/>
</g>
<g id="Calque_6">
	<path id="XMLID_10_" class="st0" d="M105,150.5c-41.7,0-75.6-14.5-75.6-32.5c0-17.9,33.8-32.5,75.6-32.5c19.4,0,15.8-5.1-7.4-5.1
		C55.8,80.5,22,97.3,22,117.9c0,20.7,33.8,37.4,75.6,37.4C120.3,155.3,123.9,150.5,105,150.5z"/>
	<path id="XMLID_2_" class="st0" d="M195,150.5c41.7,0,75.6-14.5,75.6-32.5c0-17.9-33.8-32.5-75.6-32.5c-19.4,0-15.8-5.1,7.4-5.1
		c41.7,0,75.6,16.8,75.6,37.4c0,20.7-33.8,37.4-75.6,37.4C179.7,155.3,176.1,150.5,195,150.5z"/>
</g>
<g id="Calque_4">
	<path id="XMLID_6_" class="st0" d="M150,172.8c39.2,0,71-49.8,71-111.3H79C79,122.9,110.8,172.8,150,172.8z"/>
	<ellipse id="XMLID_3_" class="st1" cx="150" cy="61.5" rx="71" ry="16"/>
	<g id="Calque_1_-_copie">
		
			<linearGradient id="XMLID_18_" gradientUnits="userSpaceOnUse" x1="145" y1="208.0144" x2="145" y2="117.5" gradientTransform="matrix(-1 0 0 -1 295 288.5144)">
			<stop  offset="0" style="stop-color:#CFE6F5;stop-opacity:0"/>
			<stop  offset="0.2989" style="stop-color:#D2E7F6;stop-opacity:0.2989"/>
			<stop  offset="0.5438" style="stop-color:#DBECF8;stop-opacity:0.5438"/>
			<stop  offset="0.7696" style="stop-color:#E9F4FB;stop-opacity:0.7696"/>
			<stop  offset="0.9826" style="stop-color:#FDFEFF;stop-opacity:0.9826"/>
			<stop  offset="1" style="stop-color:#FFFFFF"/>
		</linearGradient>
		<ellipse id="XMLID_11_" class="st5" cx="150" cy="125.8" rx="35.8" ry="45.3"/>
	</g>
	<g id="Calque_1_-_copie_2">
		
			<linearGradient id="XMLID_19_" gradientUnits="userSpaceOnUse" x1="146.25" y1="237.5143" x2="146.25" y2="213.3333" gradientTransform="matrix(-1 0 0 -1 295 288.5144)">
			<stop  offset="0" style="stop-color:#000000;stop-opacity:0"/>
			<stop  offset="0.916" style="stop-color:#000000;stop-opacity:0.916"/>
			<stop  offset="1" style="stop-color:#000000"/>
		</linearGradient>
		<ellipse id="XMLID_9_" class="st6" cx="148.8" cy="63.1" rx="61.8" ry="12.1"/>
	</g>
</g>
</svg>
