<?xml version="1.0" encoding="utf-8"?>
<!-- Generator: Adobe Illustrator 19.0.0, SVG Export Plug-In . SVG Version: 6.00 Build 0)  -->
<svg version="1.0" xmlns="http://www.w3.org/2000/svg" xmlns:xlink="http://www.w3.org/1999/xlink" x="0px" y="0px" width="300px" height="260px"
	 viewBox="0 0 300 260" style="enable-background:new 0 0 300 260;" xml:space="preserve">
<style type="text/css">
	.st0{display:none;}
	.st1{display:inline;fill:#1D935C;}
	.st2{fill:#46A5DC;stroke:#FFFFFF;stroke-width:5;stroke-miterlimit:10;}
	.st3{fill:#297CA5;stroke:#FFFFFF;stroke-width:5;stroke-miterlimit:10;}
	.st4{display:none;opacity:0.25;fill:#0C3444;}
	.st5{fill:none;stroke:#FFFFFF;stroke-width:4;stroke-miterlimit:10;}
	.st6{fill:none;stroke:#FFFFFF;stroke-width:5;stroke-miterlimit:10;}
</style>
<g id="圖層_20" class="st0">
	<rect id="XMLID_188_" x="0.2" y="-0.9" class="st1" width="300" height="260.9"/>
</g>
<g id="圖層_1">
	<path id="XMLID_193_" class="st2" d="M197.7,128.7c0-26.5-21.5-48-48-48c-17.8,0-33.4,9.7-41.7,24.2l0,0l-17.8,25.9h11
		c0,26.5,21.5,48,48,48c17.8,0,33.4-9.7,41.7-24.2l0,0l17.8-25.9H197.7z M149.8,153.6c-13.2,0-23.8-10.7-23.8-23.8
		c0-13.2,10.7-23.8,23.8-23.8s23.8,10.7,23.8,23.8C173.7,142.9,163,153.6,149.8,153.6z"/>
	<path id="XMLID_203_" class="st3" d="M190.8,154.6L190.8,154.6l-20.6-12.5c-4.2,6.9-11.7,11.4-20.4,11.4
		c-13.2,0-23.8-10.7-23.8-23.8c0-4.4,1.2-8.6,3.3-12.2l-21.2-12.8c0,0,0,0,0,0l0,0l-17.8,25.9h11c0,26.5,21.5,48,48,48
		C167,178.8,182.5,169.1,190.8,154.6L190.8,154.6z"/>
	<path id="XMLID_205_" class="st4" d="M149.4,95.1c-19.1,0-34.5,15.5-34.5,34.5c0,19.1,15.5,34.5,34.5,34.5
		c19.1,0,34.5-15.5,34.5-34.5C184,110.5,168.5,95.1,149.4,95.1z M149.8,153.6c-13.2,0-23.8-10.7-23.8-23.8
		c0-13.2,10.7-23.8,23.8-23.8s23.8,10.7,23.8,23.8C173.7,142.9,163,153.6,149.8,153.6z"/>
	<line id="XMLID_202_" class="st5" x1="170.3" y1="142.3" x2="190.8" y2="154.6"/>
	<line id="XMLID_189_" class="st5" x1="108" y1="104.9" x2="129.3" y2="117.6"/>
	<path id="XMLID_190_" class="st6" d="M197.7,128.7c0-26.5-21.5-48-48-48c-17.8,0-33.4,9.7-41.7,24.2l0,0l-17.8,25.9h11
		c0,26.5,21.5,48,48,48c17.8,0,33.4-9.7,41.7-24.2l0,0l17.8-25.9H197.7z M149.8,153.6c-13.2,0-23.8-10.7-23.8-23.8
		c0-13.2,10.7-23.8,23.8-23.8s23.8,10.7,23.8,23.8C173.7,142.9,163,153.6,149.8,153.6z"/>
</g>
</svg>
