<svg version="1.0" id="圖層_1" xmlns="http://www.w3.org/2000/svg" x="0" y="0" width="300" height="260" style="enable-background:new 0 0 300 260" xml:space="preserve"><style>.st0{display:none}.st1{display:inline}.st4{fill:#27aae1}.st5{fill:#1c75bc}.st7{fill:#555;stroke:#424143;stroke-width:2;stroke-miterlimit:10}.st7,.st8{display:inline}.st8,.st9{fill:#010101}.st15{display:inline;fill:#fff;fill-opacity:.78}.st17{fill:#ec2227;stroke:#414042;stroke-width:2;stroke-miterlimit:10}.st17,.st20,.st34{display:inline}.st20{fill:#fff;fill-opacity:.42}.st34{fill:none;stroke:#414042;stroke-width:3;stroke-miterlimit:10}.st35{fill:#fff;fill-opacity:.55}.st36,.st42{display:inline}.st36{fill:#6d6e71;stroke:#414042;stroke-width:2;stroke-miterlimit:10}.st42{opacity:.2;fill:#fff}</style><g id="圖層_1_2_"><path id="XMLID_2_" class="st4" d="M149.3 194.9c-37.2 0-67.3-30.1-67.3-67.3H54.1c0 52.6 42.6 95.2 95.2 95.2s95.2-42.6 95.2-95.2h-27.9c0 37.1-30.1 67.3-67.3 67.3z"/><path id="XMLID_7_" class="st5" d="m265.7 127.6-35.4 28.3-35.4-28.3z"/><path id="XMLID_15_" class="st5" d="M148.8 60.2c37.2 0 67.3 30.1 67.3 67.3H244c0-52.6-42.6-95.2-95.2-95.2S53.6 75 53.6 127.6h27.9c0-37.2 30.1-67.4 67.3-67.4z"/><path id="XMLID_8_" class="st4" d="m32.4 127.6 35.4-28.4 35.4 28.4z"/></g></svg>