<?xml version="1.0" encoding="utf-8"?>
<!-- Generator: Adobe Illustrator 19.0.0, SVG Export Plug-In . SVG Version: 6.00 Build 0)  -->
<svg version="1.0" xmlns="http://www.w3.org/2000/svg" xmlns:xlink="http://www.w3.org/1999/xlink" x="0px" y="0px" width="300px" height="260px"
	 viewBox="0 0 300 260" style="enable-background:new 0 0 300 260;" xml:space="preserve">
<style type="text/css">
	.st0{fill:#A9A8A8;}
	.st1{fill:#C6C6C5;}
	.st2{fill:url(#XMLID_62_);stroke:#414042;stroke-width:3;stroke-miterlimit:10;}
	.st3{fill:none;stroke:#AAA8A8;stroke-width:3;stroke-miterlimit:10;}
	.st4{fill:url(#XMLID_63_);stroke:#414042;stroke-width:3;stroke-miterlimit:10;}
	.st5{display:none;}
	.st6{display:inline;}
	.st7{fill:url(#XMLID_64_);stroke:#414042;stroke-width:3;stroke-miterlimit:10;}
	.st8{fill:url(#XMLID_65_);stroke:#414042;stroke-width:3;stroke-miterlimit:10;}
	.st9{fill:url(#XMLID_66_);stroke:#414042;stroke-width:3;stroke-miterlimit:10;}
	.st10{fill:url(#XMLID_67_);stroke:#414042;stroke-width:3;stroke-miterlimit:10;}
</style>
<g id="Calque_36">
	<g id="Calque_2_-_copie_3">
		<path id="XMLID_31_" class="st0" d="M279.3,209.8c-0.6-5.5-2.7-10.5-6-14.6l3.8-3.8l-4.2-4.2l-3.8,3.8c-4.1-3.3-9.1-5.5-14.6-6
			v-5.4h-5.9v5.4c-5.5,0.6-10.5,2.7-14.6,6l-3.8-3.8l-4.2,4.2l3.8,3.8c-3.3,4.1-5.5,9.1-6,14.6h-5.4v5.9h5.4
			c0.6,5.5,2.7,10.5,6,14.6l-3.8,3.8l4.2,4.2l3.8-3.8c4.1,3.3,9.1,5.5,14.6,6v5.4h5.9v-5.4c5.5-0.6,10.5-2.7,14.6-6l3.8,3.8l4.2-4.2
			l-3.8-3.8c3.3-4.1,5.5-9.1,6-14.6h5.4v-5.9H279.3z M251.6,236.2c-13,0-23.5-10.5-23.5-23.5c0-13,10.5-23.5,23.5-23.5
			c13,0,23.5,10.5,23.5,23.5C275.1,225.7,264.5,236.2,251.6,236.2z"/>
		<path id="XMLID_11_" class="st1" d="M251.6,189.2c-13,0-23.5,10.5-23.5,23.5c0,13,10.5,23.5,23.5,23.5c13,0,23.5-10.5,23.5-23.5
			C275.1,199.7,264.5,189.2,251.6,189.2z M251.6,228.8c-8.9,0-16.1-7.2-16.1-16.1c0-8.9,7.2-16.1,16.1-16.1
			c8.9,0,16.1,7.2,16.1,16.1C267.6,221.6,260.4,228.8,251.6,228.8z"/>
		<radialGradient id="XMLID_62_" cx="251.5544" cy="212.718" r="39.9486" gradientUnits="userSpaceOnUse">
			<stop  offset="0" style="stop-color:#D6D5D5"/>
			<stop  offset="0.3213" style="stop-color:#D4D3D2"/>
			<stop  offset="0.5416" style="stop-color:#CCCACA"/>
			<stop  offset="0.7315" style="stop-color:#BEBDBD"/>
			<stop  offset="0.9032" style="stop-color:#ACABAB"/>
			<stop  offset="1" style="stop-color:#9F9E9E"/>
		</radialGradient>
		<path id="XMLID_78_" class="st2" d="M291.5,218.8v-12.2h-9.6c-0.8-4-2.4-7.7-4.6-11l6.8-6.8l-8.6-8.6l-6.8,6.8
			c-3.3-2.2-7-3.8-11-4.6v-9.6h-12.2v9.6c-4,0.8-7.7,2.4-11,4.6l-6.8-6.8l-8.6,8.6l6.8,6.8c-2.2,3.3-3.8,7-4.6,11h-9.6v12.2h9.6
			c0.8,4,2.4,7.7,4.6,11l-6.8,6.8l8.6,8.6l6.8-6.8c3.3,2.2,7,3.8,11,4.6v9.6h12.2V243c4-0.8,7.7-2.4,11-4.6l6.8,6.8l8.6-8.6
			l-6.8-6.8c2.2-3.3,3.8-7,4.6-11H291.5z M251.6,228.1c-8.5,0-15.4-6.9-15.4-15.4s6.9-15.4,15.4-15.4c8.5,0,15.4,6.9,15.4,15.4
			S260.1,228.1,251.6,228.1z"/>
		<path id="XMLID_5_" class="st3" d="M251.6,191.9c-11.5,0-20.8,9.3-20.8,20.8c0,11.5,9.3,20.8,20.8,20.8c11.5,0,20.8-9.3,20.8-20.8
			C272.4,201.2,263,191.9,251.6,191.9z M251.6,230.6c-9.9,0-17.9-8-17.9-17.9c0-9.9,8-17.9,17.9-17.9c9.9,0,17.9,8,17.9,17.9
			C269.4,222.6,261.4,230.6,251.6,230.6z"/>
	</g>
	<g id="Calque_2_-_copie_6">
		<path id="XMLID_82_" class="st0" d="M72.8,43.2c-0.6-5.5-2.7-10.5-6-14.6l3.8-3.8l-4.2-4.2l-3.8,3.8c-4.1-3.3-9.1-5.5-14.6-6V13
			h-5.9v5.4c-5.5,0.6-10.5,2.7-14.6,6l-3.8-3.8l-4.2,4.2l3.8,3.8c-3.3,4.1-5.5,9.1-6,14.6H12v5.9h5.4c0.6,5.5,2.7,10.5,6,14.6
			l-3.8,3.8l4.2,4.2l3.8-3.8c4.1,3.3,9.1,5.5,14.6,6v5.4h5.9v-5.4c5.5-0.6,10.5-2.7,14.6-6l3.8,3.8l4.2-4.2l-3.8-3.8
			c3.3-4.1,5.5-9.1,6-14.6h5.4v-5.9H72.8z M45.1,69.6c-13,0-23.5-10.5-23.5-23.5c0-13,10.5-23.5,23.5-23.5s23.5,10.5,23.5,23.5
			C68.6,59.1,58.1,69.6,45.1,69.6z"/>
		<path id="XMLID_79_" class="st1" d="M45.1,22.6c-13,0-23.5,10.5-23.5,23.5c0,13,10.5,23.5,23.5,23.5c13,0,23.5-10.5,23.5-23.5
			C68.6,33.1,58.1,22.6,45.1,22.6z M45.1,62.2c-8.9,0-16.1-7.2-16.1-16.1c0-8.9,7.2-16.1,16.1-16.1c8.9,0,16.1,7.2,16.1,16.1
			C61.2,55,54,62.2,45.1,62.2z"/>
		<radialGradient id="XMLID_63_" cx="45.1266" cy="46.126" r="39.9486" gradientUnits="userSpaceOnUse">
			<stop  offset="0" style="stop-color:#D6D5D5"/>
			<stop  offset="0.3213" style="stop-color:#D4D3D2"/>
			<stop  offset="0.5416" style="stop-color:#CCCACA"/>
			<stop  offset="0.7315" style="stop-color:#BEBDBD"/>
			<stop  offset="0.9032" style="stop-color:#ACABAB"/>
			<stop  offset="1" style="stop-color:#9F9E9E"/>
		</radialGradient>
		<path id="XMLID_73_" class="st4" d="M85.1,52.2V40h-9.6c-0.8-4-2.4-7.7-4.6-11l6.8-6.8l-8.6-8.6l-6.8,6.8c-3.3-2.2-7-3.8-11-4.6
			V6.2H39v9.6c-4,0.8-7.7,2.4-11,4.6l-6.8-6.8l-8.6,8.6l6.8,6.8c-2.2,3.3-3.8,7-4.6,11H5.2v12.2h9.6c0.8,4,2.4,7.7,4.6,11l-6.8,6.8
			l8.6,8.6l6.8-6.8c3.3,2.2,7,3.8,11,4.6v9.6h12.2v-9.6c4-0.8,7.7-2.4,11-4.6l6.8,6.8l8.6-8.6l-6.8-6.8c2.2-3.3,3.8-7,4.6-11H85.1z
			 M45.1,61.5c-8.5,0-15.4-6.9-15.4-15.4s6.9-15.4,15.4-15.4c8.5,0,15.4,6.9,15.4,15.4S53.6,61.5,45.1,61.5z"/>
		<path id="XMLID_34_" class="st3" d="M45.1,25.3c-11.5,0-20.8,9.3-20.8,20.8c0,11.5,9.3,20.8,20.8,20.8c11.5,0,20.8-9.3,20.8-20.8
			C65.9,34.6,56.6,25.3,45.1,25.3z M45.1,64c-9.9,0-17.9-8-17.9-17.9c0-9.9,8-17.9,17.9-17.9c9.9,0,17.9,8,17.9,17.9
			C63,56,55,64,45.1,64z"/>
	</g>
</g>
<g id="Calque_36_-_copie" class="st5">
	<g id="Calque_2_-_copie_4" class="st6">
		<path id="XMLID_28_" class="st0" d="M277.6,202.7c-2-5.2-5.4-9.4-9.6-12.5l2.7-4.7l-5.1-2.9l-2.7,4.7c-4.8-2.1-10.2-2.9-15.6-2.1
			l-1.4-5.2l-5.7,1.5l1.4,5.2c-5.2,2-9.4,5.4-12.5,9.6l-4.7-2.7l-2.9,5.1l4.7,2.7c-2.1,4.8-2.9,10.2-2.1,15.6l-5.2,1.4l1.5,5.7
			l5.2-1.4c2,5.2,5.4,9.4,9.6,12.5l-2.7,4.7l5.1,2.9l2.7-4.7c4.8,2.1,10.2,2.9,15.6,2.1l1.4,5.2l5.7-1.5l-1.4-5.2
			c5.2-2,9.4-5.4,12.5-9.6l4.7,2.7l2.9-5.1L277,224c2.1-4.8,2.9-10.2,2.1-15.6l5.2-1.4l-1.5-5.7L277.6,202.7z M257.6,235.4
			c-12.5,3.4-25.4-4.1-28.8-16.6c-3.4-12.5,4.1-25.4,16.6-28.8c12.5-3.4,25.4,4.1,28.8,16.6C277.6,219.2,270.2,232.1,257.6,235.4z"
			/>
		<path id="XMLID_25_" class="st1" d="M245.5,190c-12.5,3.4-20,16.3-16.6,28.8c3.4,12.5,16.3,20,28.8,16.6
			c12.5-3.4,20-16.3,16.6-28.8C270.9,194.1,258,186.6,245.5,190z M255.7,228.2c-8.6,2.3-17.4-2.8-19.7-11.4
			c-2.3-8.6,2.8-17.4,11.4-19.7c8.6-2.3,17.4,2.8,19.7,11.4C269.4,217.1,264.3,225.9,255.7,228.2z"/>
		
			<radialGradient id="XMLID_64_" cx="251.5544" cy="212.718" r="39.9486" gradientTransform="matrix(0.9659 -0.2588 0.2588 0.9659 -46.484 72.3553)" gradientUnits="userSpaceOnUse">
			<stop  offset="0" style="stop-color:#D6D5D5"/>
			<stop  offset="0.3213" style="stop-color:#D4D3D2"/>
			<stop  offset="0.5416" style="stop-color:#CCCACA"/>
			<stop  offset="0.7315" style="stop-color:#BEBDBD"/>
			<stop  offset="0.9032" style="stop-color:#ACABAB"/>
			<stop  offset="1" style="stop-color:#9F9E9E"/>
		</radialGradient>
		<path id="XMLID_22_" class="st7" d="M291.7,208.3l-3.2-11.8l-9.3,2.5c-1.8-3.7-4.3-6.8-7.2-9.4l4.8-8.4l-10.6-6.1l-4.8,8.4
			c-3.7-1.3-7.7-1.8-11.8-1.6l-2.5-9.3l-11.8,3.2l2.5,9.3c-3.7,1.8-6.8,4.3-9.4,7.2l-8.4-4.8l-6.1,10.6l8.4,4.8
			c-1.3,3.7-1.8,7.7-1.6,11.8l-9.3,2.5l3.2,11.8l9.3-2.5c1.8,3.7,4.3,6.8,7.2,9.4l-4.8,8.4l10.6,6.1l4.8-8.4
			c3.7,1.3,7.7,1.8,11.8,1.6l2.5,9.3l11.8-3.2l-2.5-9.3c3.7-1.8,6.8-4.3,9.4-7.2l8.4,4.8l6.1-10.6l-8.4-4.8
			c1.3-3.7,1.8-7.7,1.6-11.8L291.7,208.3z M255.5,227.6c-8.2,2.2-16.7-2.7-18.9-10.9c-2.2-8.2,2.7-16.7,10.9-18.9
			c8.2-2.2,16.7,2.7,18.9,10.9C268.6,217,263.8,225.4,255.5,227.6z"/>
		<path id="XMLID_19_" class="st3" d="M246.2,192.6c-11.1,3-17.7,14.4-14.7,25.5c3,11.1,14.4,17.7,25.5,14.7
			c11.1-3,17.7-14.4,14.7-25.5C268.7,196.2,257.3,189.7,246.2,192.6z M256.2,230c-9.5,2.6-19.3-3.1-21.9-12.6
			c-2.6-9.5,3.1-19.3,12.6-21.9c9.5-2.6,19.3,3.1,21.9,12.6C271.4,217.6,265.7,227.4,256.2,230z"/>
	</g>
	<g id="Calque_2_-_copie_7" class="st6">
		<path id="XMLID_16_" class="st0" d="M71.1,36.1c-2-5.2-5.4-9.4-9.6-12.5l2.7-4.7L59.1,16l-2.7,4.7c-4.8-2.1-10.2-2.9-15.6-2.1
			l-1.4-5.2l-5.7,1.5l1.4,5.2c-5.2,2-9.4,5.4-12.5,9.6L17.9,27L15,32.1l4.7,2.7c-2.1,4.8-2.9,10.2-2.1,15.6l-5.2,1.4l1.5,5.7
			l5.2-1.4c2,5.2,5.4,9.4,9.6,12.5L26,73.3l5.1,2.9l2.7-4.7c4.8,2.1,10.2,2.9,15.6,2.1l1.4,5.2l5.7-1.5l-1.4-5.2
			c5.2-2,9.4-5.4,12.5-9.6l4.7,2.7l2.9-5.1l-4.7-2.7c2.1-4.8,2.9-10.2,2.1-15.6l5.2-1.4l-1.5-5.7L71.1,36.1z M51.2,68.8
			c-12.5,3.4-25.4-4.1-28.8-16.6C19.1,39.7,26.5,26.8,39,23.4S64.5,27.5,67.8,40C71.2,52.6,63.8,65.5,51.2,68.8z"/>
		<path id="XMLID_10_" class="st1" d="M39,23.4c-12.5,3.4-20,16.3-16.6,28.8c3.4,12.5,16.3,20,28.8,16.6c12.5-3.4,20-16.3,16.6-28.8
			C64.5,27.5,51.6,20.1,39,23.4z M49.3,61.6c-8.6,2.3-17.4-2.8-19.7-11.4c-2.3-8.6,2.8-17.4,11.4-19.7c8.6-2.3,17.4,2.8,19.7,11.4
			C62.9,50.5,57.9,59.3,49.3,61.6z"/>
		
			<radialGradient id="XMLID_65_" cx="45.1266" cy="46.126" r="39.9486" gradientTransform="matrix(0.9659 -0.2588 0.2588 0.9659 -10.4006 13.2513)" gradientUnits="userSpaceOnUse">
			<stop  offset="0" style="stop-color:#D6D5D5"/>
			<stop  offset="0.3213" style="stop-color:#D4D3D2"/>
			<stop  offset="0.5416" style="stop-color:#CCCACA"/>
			<stop  offset="0.7315" style="stop-color:#BEBDBD"/>
			<stop  offset="0.9032" style="stop-color:#ACABAB"/>
			<stop  offset="1" style="stop-color:#9F9E9E"/>
		</radialGradient>
		<path id="XMLID_4_" class="st8" d="M85.3,41.7l-3.2-11.8l-9.3,2.5c-1.8-3.7-4.3-6.8-7.2-9.4l4.8-8.4L59.8,8.5L55,16.8
			c-3.7-1.3-7.7-1.8-11.8-1.6L40.7,6L28.9,9.1l2.5,9.3c-3.7,1.8-6.8,4.3-9.4,7.2l-8.4-4.8L7.5,31.4l8.4,4.8C14.6,40,14,44,14.3,48.1
			L5,50.6l3.2,11.8l9.3-2.5c1.8,3.7,4.3,6.8,7.2,9.4l-4.8,8.4l10.6,6.1l4.8-8.4C39,76.7,43,77.2,47.1,77l2.5,9.3l11.8-3.2l-2.5-9.3
			c3.7-1.8,6.8-4.3,9.4-7.2l8.4,4.8l6.1-10.6L74.4,56c1.3-3.7,1.8-7.7,1.6-11.8L85.3,41.7z M49.1,61c-8.2,2.2-16.7-2.7-18.9-10.9
			s2.7-16.7,10.9-18.9C49.4,29,57.8,33.9,60,42.1S57.3,58.8,49.1,61z"/>
		<path id="XMLID_1_" class="st3" d="M39.7,26C28.6,29,22.1,40.4,25,51.5c3,11.1,14.4,17.7,25.5,14.7c11.1-3,17.7-14.4,14.7-25.5
			C62.2,29.6,50.8,23.1,39.7,26z M49.7,63.4c-9.5,2.6-19.3-3.1-21.9-12.6c-2.6-9.5,3.1-19.3,12.6-21.9C50,26.3,59.8,32,62.4,41.5
			C64.9,51,59.3,60.8,49.7,63.4z"/>
	</g>
</g>
<g id="Calque_36_-_copie_2" class="st5">
	<g id="Calque_2_-_copie_5" class="st6">
		<path id="XMLID_58_" class="st0" d="M274.1,196.3c-3.2-4.5-7.6-7.7-12.5-9.6l1.4-5.2l-5.7-1.5l-1.4,5.2
			c-5.2-0.8-10.6-0.2-15.6,2.1l-2.7-4.7l-5.1,2.9l2.7,4.7c-4.5,3.2-7.7,7.6-9.6,12.5l-5.2-1.4l-1.5,5.7l5.2,1.4
			c-0.8,5.2-0.2,10.6,2.1,15.6l-4.7,2.7l2.9,5.1l4.7-2.7c3.2,4.5,7.6,7.7,12.5,9.6l-1.4,5.2l5.7,1.5l1.4-5.2
			c5.2,0.8,10.6,0.2,15.6-2.1l2.7,4.7l5.1-2.9l-2.7-4.7c4.5-3.2,7.7-7.6,9.6-12.5l5.2,1.4l1.5-5.7l-5.2-1.4
			c0.8-5.2,0.2-10.6-2.1-15.6l4.7-2.7l-2.9-5.1L274.1,196.3z M263.3,233.1c-11.2,6.5-25.6,2.6-32.1-8.6c-6.5-11.2-2.6-25.6,8.6-32.1
			s25.6-2.6,32.1,8.6C278.4,212.2,274.6,226.6,263.3,233.1z"/>
		<path id="XMLID_55_" class="st1" d="M239.8,192.4c-11.2,6.5-15.1,20.9-8.6,32.1c6.5,11.2,20.9,15.1,32.1,8.6
			c11.2-6.5,15.1-20.9,8.6-32.1C265.4,189.7,251,185.9,239.8,192.4z M259.6,226.6c-7.7,4.4-17.5,1.8-21.9-5.9
			c-4.4-7.7-1.8-17.5,5.9-21.9c7.7-4.4,17.5-1.8,21.9,5.9C269.9,212.4,267.3,222.2,259.6,226.6z"/>
		
			<radialGradient id="XMLID_66_" cx="251.5544" cy="212.718" r="39.9486" gradientTransform="matrix(0.866 -0.5 0.5 0.866 -72.6571 154.276)" gradientUnits="userSpaceOnUse">
			<stop  offset="0" style="stop-color:#D6D5D5"/>
			<stop  offset="0.3213" style="stop-color:#D4D3D2"/>
			<stop  offset="0.5416" style="stop-color:#CCCACA"/>
			<stop  offset="0.7315" style="stop-color:#BEBDBD"/>
			<stop  offset="0.9032" style="stop-color:#ACABAB"/>
			<stop  offset="1" style="stop-color:#9F9E9E"/>
		</radialGradient>
		<path id="XMLID_52_" class="st9" d="M289.2,198l-6.1-10.6l-8.3,4.8c-2.7-3.1-5.9-5.5-9.4-7.2l2.5-9.3l-11.8-3.2l-2.5,9.3
			c-3.9-0.3-7.9,0.2-11.8,1.5l-4.8-8.3l-10.6,6.1l4.8,8.3c-3.1,2.7-5.5,5.9-7.2,9.4l-9.3-2.5l-3.2,11.8l9.3,2.5
			c-0.3,3.9,0.2,7.9,1.5,11.8l-8.3,4.8L220,238l8.3-4.8c2.7,3.1,5.9,5.5,9.4,7.2l-2.5,9.3l11.8,3.2l2.5-9.3
			c3.9,0.3,7.9-0.2,11.8-1.5l4.8,8.3l10.6-6.1l-4.8-8.3c3.1-2.7,5.5-5.9,7.2-9.4l9.3,2.5l3.2-11.8l-9.3-2.5
			c0.3-3.9-0.2-7.9-1.5-11.8L289.2,198z M259.3,226.1c-7.4,4.3-16.8,1.7-21.1-5.6c-4.3-7.4-1.7-16.8,5.6-21.1
			c7.4-4.3,16.8-1.7,21.1,5.6C269.2,212.4,266.6,221.8,259.3,226.1z"/>
		<path id="XMLID_49_" class="st3" d="M241.2,194.7c-9.9,5.7-13.4,18.5-7.6,28.4c5.7,9.9,18.5,13.4,28.4,7.6
			c9.9-5.7,13.4-18.5,7.6-28.4C263.8,192.4,251.1,189,241.2,194.7z M260.5,228.2c-8.5,4.9-19.5,2-24.4-6.5c-4.9-8.5-2-19.5,6.5-24.4
			c8.5-4.9,19.5-2,24.4,6.5C271.9,212.3,269,223.2,260.5,228.2z"/>
	</g>
	<g id="Calque_2_-_copie_8" class="st6">
		<path id="XMLID_46_" class="st0" d="M67.7,29.7c-3.2-4.5-7.6-7.7-12.5-9.6l1.4-5.2l-5.7-1.5l-1.4,5.2c-5.2-0.8-10.6-0.2-15.6,2.1
			L31.1,16L26,18.9l2.7,4.7c-4.5,3.2-7.7,7.6-9.6,12.5l-5.2-1.4l-1.5,5.7l5.2,1.4c-0.8,5.2-0.2,10.6,2.1,15.6L15,60.1l2.9,5.1
			l4.7-2.7c3.2,4.5,7.6,7.7,12.5,9.6l-1.4,5.2l5.7,1.5l1.4-5.2c5.2,0.8,10.6,0.2,15.6-2.1l2.7,4.7l5.1-2.9l-2.7-4.7
			c4.5-3.2,7.7-7.6,9.6-12.5l5.2,1.4l1.5-5.7l-5.2-1.4c0.8-5.2,0.2-10.6-2.1-15.6l4.7-2.7L72.3,27L67.7,29.7z M56.9,66.5
			c-11.2,6.5-25.6,2.6-32.1-8.6c-6.5-11.2-2.6-25.6,8.6-32.1s25.6-2.6,32.1,8.6C72,45.6,68.1,60,56.9,66.5z"/>
		<path id="XMLID_43_" class="st1" d="M33.4,25.8c-11.2,6.5-15.1,20.9-8.6,32.1c6.5,11.2,20.9,15.1,32.1,8.6
			C68.1,60,72,45.6,65.5,34.4C59,23.1,44.6,19.3,33.4,25.8z M53.2,60c-7.7,4.4-17.5,1.8-21.9-5.9c-4.4-7.7-1.8-17.5,5.9-21.9
			c7.7-4.4,17.5-1.8,21.9,5.9C63.5,45.8,60.8,55.6,53.2,60z"/>
		
			<radialGradient id="XMLID_67_" cx="45.1266" cy="46.126" r="39.9486" gradientTransform="matrix(0.866 -0.5 0.5 0.866 -17.0172 28.743)" gradientUnits="userSpaceOnUse">
			<stop  offset="0" style="stop-color:#D6D5D5"/>
			<stop  offset="0.3213" style="stop-color:#D4D3D2"/>
			<stop  offset="0.5416" style="stop-color:#CCCACA"/>
			<stop  offset="0.7315" style="stop-color:#BEBDBD"/>
			<stop  offset="0.9032" style="stop-color:#ACABAB"/>
			<stop  offset="1" style="stop-color:#9F9E9E"/>
		</radialGradient>
		<path id="XMLID_40_" class="st10" d="M82.8,31.4l-6.1-10.6l-8.3,4.8c-2.7-3.1-5.9-5.5-9.4-7.2l2.5-9.3L49.6,6l-2.5,9.3
			c-3.9-0.3-7.9,0.2-11.8,1.5l-4.8-8.3l-10.6,6.1l4.8,8.3c-3.1,2.7-5.5,5.9-7.2,9.4l-9.3-2.5L5,41.7l9.3,2.5
			c-0.3,3.9,0.2,7.9,1.5,11.8l-8.3,4.8l6.1,10.6l8.3-4.8c2.7,3.1,5.9,5.5,9.4,7.2l-2.5,9.3l11.8,3.2l2.5-9.3
			c3.9,0.3,7.9-0.2,11.8-1.5l4.8,8.3l10.6-6.1l-4.8-8.3c3.1-2.7,5.5-5.9,7.2-9.4l9.3,2.5l3.2-11.8L76,48.1c0.3-3.9-0.2-7.9-1.5-11.8
			L82.8,31.4z M52.8,59.5c-7.4,4.3-16.8,1.7-21.1-5.6S30,37,37.4,32.8c7.4-4.3,16.8-1.7,21.1,5.6S60.2,55.2,52.8,59.5z"/>
		<path id="XMLID_37_" class="st3" d="M34.7,28.1c-9.9,5.7-13.4,18.5-7.6,28.4c5.7,9.9,18.5,13.4,28.4,7.6
			c9.9-5.7,13.4-18.5,7.6-28.4C57.4,25.8,44.7,22.4,34.7,28.1z M54.1,61.6c-8.5,4.9-19.5,2-24.4-6.5c-4.9-8.5-2-19.5,6.5-24.4
			c8.5-4.9,19.5-2,24.4,6.5C65.5,45.7,62.6,56.7,54.1,61.6z"/>
	</g>
</g>
</svg>
