<svg version="1.0" xmlns="http://www.w3.org/2000/svg" width="300" height="260" style="enable-background:new 0 0 300 260" xml:space="preserve"><style>.st0{fill:#a9a8a8}.st1{fill:#c6c6c5}.st3{fill:none;stroke:#aaa8a8;stroke-width:3;stroke-miterlimit:10}.st5{display:none}.st6{display:inline}</style><g id="Calque_36"><g id="Calque_2_-_copie_3"><path id="XMLID_31_" class="st0" d="M279.3 209.8c-.6-5.5-2.7-10.5-6-14.6l3.8-3.8-4.2-4.2-3.8 3.8c-4.1-3.3-9.1-5.5-14.6-6v-5.4h-5.9v5.4c-5.5.6-10.5 2.7-14.6 6l-3.8-3.8-4.2 4.2 3.8 3.8c-3.3 4.1-5.5 9.1-6 14.6h-5.4v5.9h5.4c.6 5.5 2.7 10.5 6 14.6l-3.8 3.8 4.2 4.2 3.8-3.8c4.1 3.3 9.1 5.5 14.6 6v5.4h5.9v-5.4c5.5-.6 10.5-2.7 14.6-6l3.8 3.8 4.2-4.2-3.8-3.8c3.3-4.1 5.5-9.1 6-14.6h5.4v-5.9h-5.4zm-27.7 26.4c-13 0-23.5-10.5-23.5-23.5s10.5-23.5 23.5-23.5 23.5 10.5 23.5 23.5-10.6 23.5-23.5 23.5z"/><path id="XMLID_11_" class="st1" d="M251.6 189.2c-13 0-23.5 10.5-23.5 23.5s10.5 23.5 23.5 23.5 23.5-10.5 23.5-23.5-10.6-23.5-23.5-23.5zm0 39.6c-8.9 0-16.1-7.2-16.1-16.1 0-8.9 7.2-16.1 16.1-16.1 8.9 0 16.1 7.2 16.1 16.1-.1 8.9-7.3 16.1-16.1 16.1z"/><radialGradient id="XMLID_62_" cx="251.554" cy="212.718" r="39.949" gradientUnits="userSpaceOnUse"><stop offset="0" style="stop-color:#d6d5d5"/><stop offset=".321" style="stop-color:#d4d3d2"/><stop offset=".542" style="stop-color:#cccaca"/><stop offset=".732" style="stop-color:#bebdbd"/><stop offset=".903" style="stop-color:#acabab"/><stop offset="1" style="stop-color:#9f9e9e"/></radialGradient><path id="XMLID_78_" d="M291.5 218.8v-12.2h-9.6c-.8-4-2.4-7.7-4.6-11l6.8-6.8-8.6-8.6-6.8 6.8c-3.3-2.2-7-3.8-11-4.6v-9.6h-12.2v9.6c-4 .8-7.7 2.4-11 4.6l-6.8-6.8-8.6 8.6 6.8 6.8c-2.2 3.3-3.8 7-4.6 11h-9.6v12.2h9.6c.8 4 2.4 7.7 4.6 11l-6.8 6.8 8.6 8.6 6.8-6.8c3.3 2.2 7 3.8 11 4.6v9.6h12.2V243c4-.8 7.7-2.4 11-4.6l6.8 6.8 8.6-8.6-6.8-6.8c2.2-3.3 3.8-7 4.6-11h9.6zm-39.9 9.3c-8.5 0-15.4-6.9-15.4-15.4s6.9-15.4 15.4-15.4 15.4 6.9 15.4 15.4-6.9 15.4-15.4 15.4z" style="fill:url(#XMLID_62_);stroke:#414042;stroke-width:3;stroke-miterlimit:10"/><path id="XMLID_5_" class="st3" d="M251.6 191.9c-11.5 0-20.8 9.3-20.8 20.8s9.3 20.8 20.8 20.8 20.8-9.3 20.8-20.8-9.4-20.8-20.8-20.8zm0 38.7c-9.9 0-17.9-8-17.9-17.9 0-9.9 8-17.9 17.9-17.9 9.9 0 17.9 8 17.9 17.9-.1 9.9-8.1 17.9-17.9 17.9z"/></g><g id="Calque_2_-_copie_6"><path id="XMLID_82_" class="st0" d="M72.8 43.2c-.6-5.5-2.7-10.5-6-14.6l3.8-3.8-4.2-4.2-3.8 3.8c-4.1-3.3-9.1-5.5-14.6-6V13h-5.9v5.4c-5.5.6-10.5 2.7-14.6 6l-3.8-3.8-4.2 4.2 3.8 3.8c-3.3 4.1-5.5 9.1-6 14.6H12v5.9h5.4c.6 5.5 2.7 10.5 6 14.6l-3.8 3.8 4.2 4.2 3.8-3.8c4.1 3.3 9.1 5.5 14.6 6v5.4h5.9v-5.4c5.5-.6 10.5-2.7 14.6-6l3.8 3.8 4.2-4.2-3.8-3.8c3.3-4.1 5.5-9.1 6-14.6h5.4v-5.9h-5.5zM45.1 69.6c-13 0-23.5-10.5-23.5-23.5s10.5-23.5 23.5-23.5 23.5 10.5 23.5 23.5-10.5 23.5-23.5 23.5z"/><path id="XMLID_79_" class="st1" d="M45.1 22.6c-13 0-23.5 10.5-23.5 23.5s10.5 23.5 23.5 23.5 23.5-10.5 23.5-23.5-10.5-23.5-23.5-23.5zm0 39.6C36.2 62.2 29 55 29 46.1 29 37.2 36.2 30 45.1 30c8.9 0 16.1 7.2 16.1 16.1 0 8.9-7.2 16.1-16.1 16.1z"/><radialGradient id="XMLID_63_" cx="45.127" cy="46.126" r="39.949" gradientUnits="userSpaceOnUse"><stop offset="0" style="stop-color:#d6d5d5"/><stop offset=".321" style="stop-color:#d4d3d2"/><stop offset=".542" style="stop-color:#cccaca"/><stop offset=".732" style="stop-color:#bebdbd"/><stop offset=".903" style="stop-color:#acabab"/><stop offset="1" style="stop-color:#9f9e9e"/></radialGradient><path id="XMLID_73_" d="M85.1 52.2V40h-9.6c-.8-4-2.4-7.7-4.6-11l6.8-6.8-8.6-8.6-6.8 6.8c-3.3-2.2-7-3.8-11-4.6V6.2H39v9.6c-4 .8-7.7 2.4-11 4.6l-6.8-6.8-8.6 8.6 6.8 6.8c-2.2 3.3-3.8 7-4.6 11H5.2v12.2h9.6c.8 4 2.4 7.7 4.6 11L12.6 70l8.6 8.6 6.8-6.8c3.3 2.2 7 3.8 11 4.6V86h12.2v-9.6c4-.8 7.7-2.4 11-4.6l6.8 6.8 8.6-8.6-6.8-6.8c2.2-3.3 3.8-7 4.6-11h9.7zm-40 9.3c-8.5 0-15.4-6.9-15.4-15.4s6.9-15.4 15.4-15.4 15.4 6.9 15.4 15.4-6.9 15.4-15.4 15.4z" style="fill:url(#XMLID_63_);stroke:#414042;stroke-width:3;stroke-miterlimit:10"/><path id="XMLID_34_" class="st3" d="M45.1 25.3c-11.5 0-20.8 9.3-20.8 20.8s9.3 20.8 20.8 20.8 20.8-9.3 20.8-20.8-9.3-20.8-20.8-20.8zm0 38.7c-9.9 0-17.9-8-17.9-17.9 0-9.9 8-17.9 17.9-17.9 9.9 0 17.9 8 17.9 17.9C63 56 55 64 45.1 64z"/></g></g></svg>