<svg version="1.0" xmlns="http://www.w3.org/2000/svg" width="300" height="260" style="enable-background:new 0 0 300 260" xml:space="preserve"><style>.st0{display:none}.st1{display:inline}.st2{fill:#a9a8a8}.st3{fill:#c6c6c5}.st5{fill:none;stroke:#aaa8a8;stroke-width:3;stroke-miterlimit:10}</style><g id="Calque_36_-_copie_4"><g id="Calque_2_-_copie_10_1_"><path id="XMLID_118_" class="st2" d="M272.2 194c-3.7-4.1-8.4-6.9-13.5-8.2l.8-5.4-5.8-.9-.8 5.4c-5.2-.3-10.6.9-15.3 3.7l-3.2-4.4-4.8 3.5 3.2 4.4c-4.1 3.7-6.9 8.4-8.2 13.5l-5.4-.8-.9 5.8 5.4.8c-.3 5.2.9 10.6 3.7 15.3l-4.4 3.2 3.5 4.8 4.4-3.2c3.7 4.1 8.4 6.9 13.5 8.2l-.8 5.4 5.8.9.8-5.4c5.2.3 10.6-.9 15.3-3.7l3.2 4.4 4.8-3.5-3.2-4.4c4.1-3.7 6.9-8.4 8.2-13.5l5.4.8.9-5.8-5.4-.8c.3-5.2-.9-10.6-3.7-15.3l4.4-3.2-3.5-4.8-4.4 3.2zm-6.8 37.7c-10.5 7.6-25.2 5.3-32.8-5.2-7.6-10.5-5.3-25.2 5.2-32.8 10.5-7.6 25.2-5.3 32.8 5.2 7.6 10.5 5.3 25.2-5.2 32.8z"/><path id="XMLID_115_" class="st3" d="M237.7 193.7c-10.5 7.6-12.8 22.3-5.2 32.8 7.6 10.5 22.3 12.8 32.8 5.2 10.5-7.6 12.8-22.3 5.2-32.8-7.6-10.5-22.3-12.8-32.8-5.2zm23.3 32c-7.2 5.2-17.2 3.6-22.4-3.6-5.2-7.2-3.6-17.2 3.6-22.4 7.2-5.2 17.2-3.6 22.4 3.6 5.2 7.2 3.6 17.2-3.6 22.4z"/><radialGradient id="XMLID_130_" cx="251.554" cy="212.718" r="39.949" gradientTransform="rotate(-36.002 251.543 212.716)" gradientUnits="userSpaceOnUse"><stop offset="0" style="stop-color:#d6d5d5"/><stop offset=".321" style="stop-color:#d4d3d2"/><stop offset=".542" style="stop-color:#cccaca"/><stop offset=".732" style="stop-color:#bebdbd"/><stop offset=".903" style="stop-color:#acabab"/><stop offset="1" style="stop-color:#9f9e9e"/></radialGradient><path id="XMLID_112_" d="m287.5 194.2-7.2-9.9-7.8 5.7c-3-2.8-6.5-4.8-10.2-6.2l1.5-9.5-12.1-1.9-1.5 9.5c-3.9.2-7.9 1.1-11.6 2.8l-5.7-7.8-9.9 7.2 5.7 7.8c-2.8 3-4.8 6.5-6.2 10.2l-9.5-1.5-1.9 12.1 9.5 1.5c.2 3.9 1.1 7.9 2.8 11.6l-7.8 5.7 7.2 9.9 7.8-5.7c3 2.8 6.5 4.8 10.2 6.2l-1.5 9.5 12.1 1.9 1.5-9.5c3.9-.2 7.9-1.1 11.6-2.8l5.7 7.8 9.9-7.2-5.7-7.8c2.8-3 4.8-6.5 6.2-10.2l9.5 1.5L292 213l-9.5-1.5c-.2-3.9-1.1-7.9-2.8-11.6l7.8-5.7zm-26.9 31c-6.9 5-16.5 3.5-21.5-3.4s-3.5-16.5 3.4-21.5 16.5-3.5 21.5 3.4c5 6.8 3.5 16.5-3.4 21.5z" style="fill:url(#XMLID_130_);stroke:#414042;stroke-width:3;stroke-miterlimit:10"/><path id="XMLID_109_" class="st5" d="M239.3 195.9c-9.3 6.8-11.4 19.8-4.6 29.1 6.8 9.3 19.8 11.4 29.1 4.6 9.3-6.8 11.4-19.8 4.6-29.1-6.8-9.3-19.8-11.4-29.1-4.6zm22.7 31.3c-8 5.8-19.1 4-24.9-3.9-5.8-8-4-19.1 3.9-24.9 8-5.8 19.1-4 24.9 3.9 5.9 7.9 4.1 19.1-3.9 24.9z"/></g><g id="Calque_2_-_copie_10"><path id="XMLID_106_" class="st2" d="M65.8 27.5c-3.7-4.1-8.4-6.9-13.5-8.2l.8-5.4-5.8-.9-.8 5.4c-5.2-.4-10.5.8-15.3 3.6L28 17.6l-4.8 3.5 3.2 4.4c-4.1 3.7-6.9 8.4-8.2 13.5l-5.3-1-.9 5.8 5.4.8c-.4 5.3.8 10.7 3.6 15.4l-4.4 3.2 3.5 4.8 4.4-3.2c3.7 4.1 8.4 6.9 13.5 8.2l-1 5.4 5.8.9.8-5.4c5.2.3 10.6-.9 15.3-3.7l3.2 4.4 4.8-3.5-3.2-4.4c4.1-3.7 6.9-8.4 8.2-13.5l5.4.8.9-5.8-5.2-.6c.3-5.2-.9-10.6-3.7-15.3l4.4-3.2-3.5-4.8-4.4 3.2zm-6.9 37.7c-10.5 7.6-25.2 5.3-32.8-5.2-7.6-10.5-5.3-25.2 5.2-32.8s25.2-5.3 32.8 5.2c7.7 10.4 5.4 25.1-5.2 32.8z"/><path id="XMLID_103_" class="st3" d="M31.3 27.1c-10.5 7.6-12.8 22.3-5.2 32.8 7.6 10.5 22.3 12.8 32.8 5.2 10.5-7.6 12.8-22.3 5.2-32.8-7.6-10.5-22.3-12.8-32.8-5.2zm23.3 32c-7.2 5.2-17.2 3.6-22.4-3.6-5.2-7.2-3.6-17.2 3.6-22.4 7.2-5.2 17.2-3.6 22.4 3.6 5.1 7.2 3.5 17.2-3.6 22.4z"/><radialGradient id="XMLID_131_" cx="45.127" cy="46.126" r="39.949" gradientTransform="rotate(-36.002 45.124 46.125)" gradientUnits="userSpaceOnUse"><stop offset="0" style="stop-color:#d6d5d5"/><stop offset=".321" style="stop-color:#d4d3d2"/><stop offset=".542" style="stop-color:#cccaca"/><stop offset=".732" style="stop-color:#bebdbd"/><stop offset=".903" style="stop-color:#acabab"/><stop offset="1" style="stop-color:#9f9e9e"/></radialGradient><path id="XMLID_100_" d="m81 27.6-7.2-9.9-7.8 5.7c-3-2.8-6.5-4.8-10.2-6.2l1.5-9.5-12-2-1.5 9.5c-3.9.2-7.9 1.1-11.6 2.8l-5.7-7.8-9.9 7.2 5.7 7.8c-2.8 3-4.8 6.5-6.2 10.2l-9.5-1.5-1.9 12 9.5 1.5c.2 3.9 1.1 7.9 2.8 11.6l-7.8 5.7 7.2 9.9 7.8-5.7c3 2.8 6.5 4.8 10.2 6.2l-1.5 9.5L45 86.5l1.5-9.5c3.9-.2 7.9-1.1 11.6-2.8l5.7 7.8 9.9-7.2L68 67c2.8-3 4.8-6.5 6.2-10.2l9.5 1.5 1.9-12.1-9.6-1.4c-.2-3.9-1.1-7.9-2.8-11.6l7.8-5.6zm-26.8 31c-6.9 5-16.5 3.5-21.5-3.4s-3.5-16.5 3.4-21.5 16.5-3.5 21.5 3.4 3.5 16.5-3.4 21.5z" style="fill:url(#XMLID_131_);stroke:#414042;stroke-width:3;stroke-miterlimit:10"/><path id="XMLID_97_" class="st5" d="M32.9 29.3c-9.3 6.8-11.4 19.8-4.6 29.1 6.8 9.3 19.8 11.4 29.1 4.6 9.3-6.8 11.4-19.8 4.6-29.1-6.8-9.3-19.8-11.4-29.1-4.6zm22.7 31.3c-8 5.8-19.1 4-24.9-3.9-5.8-8-4-19.1 3.9-24.9 8-5.8 19.1-4 24.9 3.9 5.9 7.9 4.1 19.1-3.9 24.9z"/></g></g></svg>