<svg version="1.0" xmlns="http://www.w3.org/2000/svg" width="300" height="260" style="enable-background:new 0 0 300 260" xml:space="preserve"><style>.st0{display:none}</style><g id="right"><path id="XMLID_7_" d="M247.8 59.1h-9v-4.7c0-2.7-2.3-4.9-5.1-4.9H204c-2.8 0-5.1 2.2-5.1 4.9v6.3h-98v-6.1c0-2.7-2.3-4.9-5.1-4.9H66.1c-.3 0-.6 0-1 .1H65c-.3.1-.5.1-.8.2-.1 0-.1.1-.2.1l-.6.3c-.1.1-.2.1-.3.2-.1.1-.3.2-.4.3l-.3.3c-.8.9-1.4 2-1.4 3.3v4.6h-9c-2.2 0-4 1.6-4 3.6v134c0 1.9 1.8 3.6 4 3.6h9v4.7c-.1 1.2.4 2.4 1.4 3.4.6.6 1.5 1.1 2.3 1.3.2.1.4.1.6.1.3 0 .5.1.8.1h29.6c2.8 0 5.1-2.2 5.1-4.9v-6.2h15.5v-4.5h17.9v4.5h35.6v-4.5h17.8v4.5h11.2v6c-.1 1.2.4 2.4 1.4 3.4.7.7 1.5 1.1 2.4 1.4.2 0 .3.1.5.1.3 0 .5.1.8.1h29.6c2.8 0 5.1-2.2 5.1-4.9v-4.7h9.2c2.2 0 4-1.6 3.9-3.7V62.7c.1-1.9-1.7-3.6-3.9-3.6z" style="fill:none;stroke:#68c7f1;stroke-width:14;stroke-miterlimit:14"/></g></svg>