<svg version="1.0" xmlns="http://www.w3.org/2000/svg" width="300" height="260" style="enable-background:new 0 0 300 260" xml:space="preserve"><path d="M206.7 249.7 93 249.5c-8.9 0-17.1-4.7-21.5-12.1l-56.7-95.6c-4.4-7.5-4.4-16.7 0-24.2L71.7 22c4.5-7.5 12.7-12.1 21.6-12.1l113.7.2c8.9 0 17.1 4.7 21.5 12.1l56.7 95.6c4.4 7.5 4.4 16.7 0 24.2l-56.9 95.6c-4.5 7.4-12.7 12.1-21.6 12.1z" style="fill:none;stroke:#a7a9ac;stroke-width:7;stroke-miterlimit:10"/><path d="m208.5 253.6-117.3-.2c-9.2 0-17.7-4.8-22.2-12.5l-58.6-98.7c-4.5-7.8-4.5-17.3 0-25l58.8-98.7C73.8 10.7 82.3 6 91.5 6l117.3.2c9.2 0 17.7 4.8 22.2 12.5l58.6 98.7c4.5 7.8 4.5 17.3 0 25l-58.8 98.7c-4.6 7.7-13.1 12.5-22.3 12.5z" style="fill:none;stroke:#fff;stroke-width:7;stroke-miterlimit:10"/><path style="fill:#fff;stroke:#58595b;stroke-miterlimit:10" d="M206 158.9h6.3v83.4H206z"/><path style="opacity:.61;fill:#58595b" d="M206.5 158.9h1.7v83.4h-1.7z"/><path style="opacity:.55;fill:#a7a9ac;stroke:#58595b;stroke-miterlimit:10" d="m243 182.6-4.3-3.3-25.4-17.9v42.9z"/><path style="fill:#fff" d="m237.3 178.9-23.4-16.5v33z"/><path style="fill:#a7a9ac;stroke:#58595b;stroke-miterlimit:10" d="M207.3 156.7h3.6v2.2h-3.6z"/></svg>