<svg version="1.0" xmlns="http://www.w3.org/2000/svg" width="300" height="260" style="enable-background:new 0 0 300 260" xml:space="preserve"><path d="M150 7.7C82.4 7.7 27.7 62.4 27.7 130S82.4 252.3 150 252.3 272.3 197.6 272.3 130 217.6 7.7 150 7.7zm0 223.4c-55.8 0-101.1-45.3-101.1-101.1S94.2 28.9 150 28.9 251.1 74.2 251.1 130 205.8 231.1 150 231.1z" style="fill:#414042"/><path d="M150 20.5c-60.5 0-109.5 49-109.5 109.5s49 109.5 109.5 109.5 109.5-49 109.5-109.5S210.5 20.5 150 20.5zm0 212.8C92.9 233.3 46.7 187 46.7 130 46.7 72.9 92.9 26.7 150 26.7S253.3 72.9 253.3 130c0 57.1-46.2 103.3-103.3 103.3z" style="fill:#fff"/></svg>