<svg version="1.0" id="border_-_copie" xmlns="http://www.w3.org/2000/svg" x="0" y="0" width="300" height="260" style="enable-background:new 0 0 300 260" xml:space="preserve"><style>.st0{fill:#353535}</style><g id="border_1_"><path id="XMLID_55_" class="st0" d="M275.8 118.9 223 30.8c-4.1-6.8-11.7-11.1-20-11.1l-105.7-.2c-8.3 0-15.9 4.2-20.1 11.1l-52.9 88.1c-4.1 6.9-4.1 15.4 0 22.3L77 229.2c4.1 6.8 11.7 11.1 20 11.1l105.7.2c8.3 0 15.9-4.3 20.1-11.1l52.9-88.1c4.2-7 4.2-15.5.1-22.4zm-13.1 21.2-47.4 79c-3.7 6.1-10.6 10-18 10l-94.7-.2c-7.4 0-14.3-3.8-17.9-10l-47.3-79c-3.7-6.2-3.7-13.8 0-20l47.4-79c3.7-6.2 10.6-10 18-10l94.7.2c7.4 0 14.3 3.8 17.9 10l47.3 79c3.6 6.2 3.6 13.8 0 20z"/><path id="XMLID_16_" class="st0" d="m284.7 118-56.5-95.3c-4.4-7.4-12.6-12-21.4-12l-113.3-.2c-8.9 0-17.1 4.5-21.5 12l-56.7 95.3c-4.4 7.5-4.4 16.7 0 24.1l56.5 95.3c4.4 7.4 12.6 12 21.4 12l113.2.2c8.9 0 17.1-4.6 21.5-12l56.7-95.3c4.5-7.4 4.5-16.6.1-24.1zm-14 22.9-50.8 85.3c-4 6.6-11.3 10.8-19.3 10.8l-101.4-.2c-7.9 0-15.3-4.2-19.2-10.8l-50.6-85.3c-3.9-6.7-3.9-14.9 0-21.6l50.8-85.3c4-6.7 11.3-10.8 19.3-10.8l101.4.2c7.9 0 15.3 4.2 19.2 10.8l50.6 85.3c3.9 6.7 3.9 14.9 0 21.6z"/><radialGradient id="XMLID_2_" cx="150" cy="130" r="124.242" gradientUnits="userSpaceOnUse"><stop offset="0" style="stop-color:#90d9f8"/><stop offset=".5" style="stop-color:#4487ba"/><stop offset="1" style="stop-color:#90d9f8"/></radialGradient><path id="XMLID_11_" d="m279.7 118.5-54.4-91.7c-4.2-7.1-12.1-11.6-20.6-11.6L95.6 15c-8.5 0-16.4 4.4-20.7 11.6l-54.6 91.7c-4.2 7.2-4.2 16 0 23.2l54.4 91.7c4.2 7.1 12.1 11.6 20.6 11.6l109 .2c8.5 0 16.4-4.5 20.7-11.6l54.6-91.7c4.3-7.2 4.3-16 .1-23.2zm-13.5 22-48.9 82.2c-3.9 6.4-10.9 10.4-18.6 10.4l-97.6-.2c-7.6 0-14.7-4-18.5-10.4l-48.7-82.2c-3.8-6.5-3.8-14.4 0-20.8l48.9-82.2C86.6 30.9 93.7 27 101.3 27l97.6.2c7.6 0 14.7 4 18.5 10.4l48.7 82.2c3.8 6.3 3.8 14.2.1 20.7z" style="fill:url(#XMLID_2_)"/></g></svg>