<svg version="1.0" xmlns="http://www.w3.org/2000/svg" width="300" height="260" style="enable-background:new 0 0 300 260" xml:space="preserve"><path d="m201.1 238.5-102.6-.2c-8 0-15.5-4.2-19.4-10.9l-51.2-86.3c-4-6.8-4-15.1 0-21.9l51.4-86.3c4-6.8 11.4-10.9 19.5-10.9l102.6.2c8 0 15.5 4.2 19.4 10.9l51.2 86.3c4 6.8 4 15.1 0 21.9l-51.4 86.3c-4 6.7-11.5 10.9-19.5 10.9z" style="fill:none;stroke:#333;stroke-width:20;stroke-miterlimit:10"/><path d="m199.8 235.7-99.9-.2c-7.8 0-15-4.1-18.9-10.6l-49.9-84.1c-3.9-6.6-3.9-14.7 0-21.3l50-84.1c4-6.6 11.2-10.6 19-10.6l99.9.2c7.8 0 15 4.1 18.9 10.6l49.9 84.1c3.9 6.6 3.9 14.7 0 21.3l-50 84.1c-4 6.5-11.2 10.6-19 10.6z" style="fill:none;stroke:#fff;stroke-width:8;stroke-miterlimit:10"/></svg>