<svg version="1.0" xmlns="http://www.w3.org/2000/svg" width="300" height="260" style="enable-background:new 0 0 300 260" xml:space="preserve"><style>.st0{display:none}.st1{display:inline}.st2{fill:#e5e5e5}.st3{fill:#9a9999}.st4{fill:#262525}.st5{fill:#e9e8e8}.st6{fill:#8e8e8e}.st7{fill:#313131}.st8,.st9{display:inline;fill:#e5e5e5}.st9{fill:#9a9999}</style><g id="cloud2_1_"><g id="cloud2"><path id="XMLID_17_" class="st5" d="M107.7 126.2c-8.9 0-18.2 2-25.1 7.4-7.4 5.4-11.8 14.3-10.3 23.1 1 6.4 4.9 11.8 10.3 15.3 5.4 3.4 11.8 4.9 18.2 4.9 5.4 0 10.8-2.5 14.8-5.9 9.8 5.9 22.7 6.4 33 1l2-2c4.9 7.9 10.8 15.8 19.2 19.2 3.9 1.5 8.4 2 12.8 1.5 8.4-1 16.2-4.4 22.2-9.8 5.4-4.9 9.8-12.3 7.9-19.2 8.9-.5 17.7-4.4 22.7-11.8 2-2.5 3-5.4 3.4-8.9 0-3-.5-5.9-1.5-8.4-2.5-6.4-6.9-13.3-14.3-14.8.5-4.9 2-11.8.5-16.7-1.5-4.9-4.4-9.8-8.9-12.3-4.4-2.5-9.4-3-13.8-2.5-9.4.5-18.2 3.4-26.1 8.4-2.5 1.5-4.9 3.4-5.9 6.4-1-1.5-2-2.5-3.4-2-3.9.5-7.4 1.5-10.8 3s-6.4 3.9-8.4 6.9c-.5 1.5-1.5 3-.5 3.9-3.9-2.5-6.4-3.9-10.8-3.9-4.9 0-9.4.5-13.8 2.5-2.5 1.5-4.4 3-6.9 4.9-4.5 3.4-7 4.4-6.5 9.8"/><path id="XMLID_31_" class="st6" d="M236.7 133.1c-2.5-6.9-7.4-13.3-14.3-14.8.5-4.9 2-11.8.5-16.7-1.5-4.9-4.4-9.8-8.9-12.3-4.4-2.5-9.4-3-13.8-2.5-9.4.5-18.2 3.4-26.1 8.4-2.5 1.5-4.9 3.4-5.9 6.4-1-1.5-2-2.5-3.4-2-3.9.5-7.4 1.5-10.8 2.5-3.4 1.5-6.4 3.9-8.4 6.9-1 1.5-1.5 3-.5 3.9-3.9-2-6.4-3.9-10.8-3.9-4.9 0-9.4.5-13.8 2.5-2.5 1.5-4.4 3-6.9 4.9-3.9 3.4-6.9 4.4-6.4 9.8-8.9 0-18.2 2-25.1 7.4-7.4 5.4-11.8 14.3-10.8 23.1.5 4.4 3 7.9 5.4 11.3.5-1.5 1.5-3 2-4.4 1.5-3 3.4-5.9 5.9-7.9 4.9-4.9 12.8-6.4 19.2-4.4v.5c6.9-11.8 20.7-19.7 34.5-19.2h1.5c.5-2 1.5-3 3-4.4 8.9-8.4 20.2-13.8 32.5-14.8v.5c0-2.5 2.5-3.9 4.9-4.9 2.5-.5 4.9-1 7.4-1.5 3 0 6.4 0 8.4 2 2.5 2 3 5.4 3 8.9 0 6.9-3.9 13.3-9.4 17.2l6.4-3.9c4.9 0 9.8 3.9 12.3 8.4 2.5 4.4 3.4 9.8 4.4 14.8.5 2 .5 4.4.5 6.9 8.4-.5 16.7-4.9 21.2-11.8 2-2.5 3-5.4 3.4-8.9.4-2.6-.1-5.6-1.1-8z"/><g id="XMLID_57_"><g id="XMLID_83_"><path id="XMLID_87_" class="st7" d="M107.7 123.7c-14.3.5-29.5 4.9-35.9 18.7-5.4 11.3-2 23.6 7.9 30.5 5.9 4.4 13.3 6.4 20.7 6.4 5.9-.5 10.3-4.4 15.3-4.9 3-.5 6.4 2 9.4 2.5 3.9 1 7.9 1 12.3.5 5.4-.5 10.3-2.5 14.8-5.9-1.5 0-2.5-.5-3.9-.5 9.4 14.3 20.7 25.1 38.9 21.2 14.8-3 30-14.8 27.6-31-1 1-1.5 2-2.5 3 11.3-1 24.6-6.9 28.1-19.2 3-11.8-5.4-25.6-16.7-29.1l1.5 3c2-13.8 1-30-14.8-34-12.8-3.4-36.9 2-43.3 15.3 1.5 0 2.5-.5 3.9-.5-7.9-7.9-29.1 3-27.6 13.8 1-1 2.5-2 3.4-3-12.8-7.4-40.9-3.4-40.9 15.3 0 3 4.9 3 4.9 0 0-6.4 9.4-12.3 14.3-13.8 6.9-2 13.3-1 19.2 2.5 2 1 3.9-1 3.4-3-1-5.9 15.3-13.8 19.2-9.4 1 1 3 1 3.9-.5 4.4-9.4 22.2-13.8 31.5-13.3 18.2.5 20.2 14.3 18.2 28.6 0 1.5.5 2.5 1.5 3 12.3 3.9 18.2 20.7 9.4 30.5-4.9 5.4-11.8 7.9-19.2 8.4-2 0-2.5 1.5-2.5 3 2.5 15.8-18.2 27.6-32 25.6-12.8-1.5-19.2-9.8-25.6-19.2-1-1.5-2.5-1.5-3.9-.5-8.4 7.4-23.1 4.9-32 .5-1-.5-2-.5-3 .5-13.3 11.3-39.4 3.4-39.4-15.8 0-17.7 19.2-24.1 33.5-24.6 3.4.3 3.4-4.6.4-4.6z"/></g></g><g id="Calque_5"><g id="XMLID_69_"><g id="XMLID_131_"><path id="XMLID_135_" class="st7" d="M124 172c-19.2-6.4-13.8-34 4.9-36.4 8.4-1 19.7 8.9 14.8 18.2-1.5 3-5.9 5.9-9.8 6.4-3.4 1-5.9.5-8.4-2-3-3.9-1.5-7.9 3.9-11.3 3 1 4.4-3.9 1.5-4.9-13.8-3.9-15.3 17.2-5.4 22.2 13.8 6.9 29.1-10.3 21.7-23.1-3.4-6.4-8.4-10.8-15.8-10.8-7.9 0-13.8 3-18.7 9.4-10.3 12.8-6.9 31.5 9.8 36.9 3 .8 4.4-3.7 1.5-4.6z"/></g></g><g id="XMLID_81_"><g id="XMLID_125_"><path id="XMLID_129_" class="st7" d="M113.1 143.4c-5.9-3.4-16.2-3.9-22.7-.5s-10.8 11.3-7.9 18.2c2.5 5.9 9.8 9.4 15.8 6.9 6.9-3 5.4-12.3 2.5-17.2-1.5-3-5.9-.5-4.4 2.5 2.5 4.4 2.5 11.8-4.4 10.8-6.9-1.5-7.4-8.4-3.4-12.8 4.4-5.4 15.3-6.9 21.2-3.4 3.3 1.4 5.8-3 3.3-4.5z"/></g></g><g id="XMLID_82_"><g id="XMLID_119_"><path id="XMLID_123_" class="st7" d="M204.7 183.8c3-3 4.4-5.9 5.4-9.8 1-3.9 3.4-8.4 3-12.8-.5-6.4-6.4-12.3-11.8-15.3-14.8-7.4-32 1.5-33 18.2-1 15.3 18.2 20.7 27.1 9.8 3.9-4.4 5.4-12.3 1.5-17.2-5.9-7.4-12.3-.5-18.2 2.5-3 1.5-.5 5.4 2.5 4.4 1-.5 2-.5 2.5-1.5 3-3.4 6.4-2.5 10.3 3.9-.5 5.9-8.4 10.3-13.8 8.9-13.3-3-6.4-21.2 2-25.1 7.9-3.4 18.2-1 23.1 6.4 3.9 5.9 0 19.2-4.9 24.1-1.1 2.5 2.4 5.9 4.3 3.5z"/></g></g><g id="XMLID_88_"><g id="XMLID_113_"><path id="XMLID_117_" class="st7" d="M178.6 151.3c5.4-9.4 6.9-21.2-3.9-27.6-9.8-5.9-20.7-1.5-23.6 9.8-2.5 8.4 4.9 19.2 13.8 13.8 3.4-2 6.4-6.9 6.4-10.8 0-2.5-1.5-6.9-4.9-5.9-3 1-1.5 5.9 1.5 4.9-2 .5-2.5 5.9-4.9 7.4-4.9 3-7.9-1-7.9-4.9.5-5.9 5.4-11.3 11.3-10.8 5.4.5 10.3 3.9 11.3 9.4 1.5 4.9-1 9.4-3.4 13.3-1.6 1.9 2.9 4.3 4.3 1.4z"/></g></g><g id="XMLID_89_"><g id="XMLID_107_"><path id="XMLID_111_" class="st7" d="M220.5 119.8c4.9 14.8-23.6 15.8-28.1 2.5-2-6.9 2-14.3 8.9-16.2 4.4-1 8.4 1 9.4 5.4 2 3.9-.5 6.4-6.9 7.4-1-1-2-2-2.5-3-2-2.5-5.4 1-3.4 3.4 3.4 3.9 8.4 7.9 14.3 4.9 5.4-3 5.4-9.4 3.9-14.3-2-5.4-4.9-9.8-10.8-9.8S193 104 190 109c-6.4 11.3 1 24.6 13.3 27.1 11.3 2.5 27.6-3.9 22.7-18.2-1.6-2.6-6.5-1.6-5.5 1.9z"/></g></g></g></g></g></svg>