<svg xmlns="http://www.w3.org/2000/svg" xmlns:xlink="http://www.w3.org/1999/xlink" width="1000" height="1000" style="enable-background:new 0 0 1000 1000" xml:space="preserve"><style>.st2{display:none}.st23{display:inline}.st24{fill:none;stroke:#343434;stroke-width:7;stroke-miterlimit:10}.st25{opacity:.36;fill:#fff;enable-background:new}.st26{opacity:.1}.st27{opacity:.19}.st28{fill:#fff}</style><g id="Calque_1"><radialGradient id="XMLID_4_" cx="501" cy="489.11" r="329.9" gradientTransform="matrix(1 0 0 -1 0 1000.11)" gradientUnits="userSpaceOnUse"><stop offset="0" style="stop-color:#c4e5f1"/><stop offset=".381" style="stop-color:#c4e5f1"/><stop offset="1" style="stop-color:#acddf3"/></radialGradient><path id="XMLID_58_" d="M501 181.1c-182.2 0-329.9 147.7-329.9 329.9S318.8 840.9 501 840.9 830.9 693.2 830.9 511 683.2 181.1 501 181.1zm0 561.2c-127.8 0-231.3-103.6-231.3-231.3S373.2 279.7 501 279.7 732.3 383.2 732.3 511 628.8 742.3 501 742.3z" style="fill:url(#XMLID_4_)"/><radialGradient id="XMLID_20_" cx="501" cy="489.11" r="231.3" gradientTransform="matrix(1 0 0 -1 0 1000.11)" gradientUnits="userSpaceOnUse"><stop offset=".279" style="stop-color:#70c8e0"/><stop offset=".775" style="stop-color:#acddf3"/><stop offset="1" style="stop-color:#bde2ed"/></radialGradient><circle id="XMLID_54_" cx="501" cy="511" r="231.3" style="fill:url(#XMLID_20_)"/><g id="Calque_2"><g id="圖層_3"><circle id="XMLID_15_" class="st25" cx="309.5" cy="463.1" r="7.1"/><ellipse id="XMLID_55_" class="st25" cx="327" cy="432" rx="4.4" ry="4.1"/><ellipse id="XMLID_16_" class="st25" cx="285.1" cy="369.9" rx="5.3" ry="5.1"/><ellipse id="XMLID_59_" class="st25" cx="291.5" cy="438.9" rx="3" ry="2.8"/></g><g id="圖層_3_拷貝_2"><circle id="XMLID_67_" class="st25" cx="346.2" cy="620" r="7.1"/><ellipse id="XMLID_66_" class="st25" cx="363.8" cy="589" rx="4.4" ry="4.1"/><ellipse id="XMLID_65_" class="st25" cx="321.8" cy="526.8" rx="5.3" ry="5.1"/><ellipse id="XMLID_64_" class="st25" cx="328.3" cy="595.9" rx="3" ry="2.8"/></g><g id="圖層_3_拷貝"><circle id="XMLID_63_" class="st25" cx="544.2" cy="681.8" r="7.1"/><ellipse id="XMLID_62_" class="st25" cx="561.7" cy="650.8" rx="4.4" ry="4.1"/><ellipse id="XMLID_61_" class="st25" cx="519.8" cy="588.6" rx="5.3" ry="5.1"/><ellipse id="XMLID_60_" class="st25" cx="526.2" cy="657.7" rx="3" ry="2.8"/></g><g id="圖層_3_拷貝_5"><circle id="XMLID_99_" class="st25" cx="478" cy="384.9" r="7.1"/><ellipse id="XMLID_98_" class="st25" cx="495.5" cy="353.9" rx="4.4" ry="4.1"/><ellipse id="XMLID_90_" class="st25" cx="453.6" cy="291.7" rx="5.3" ry="5.1"/><ellipse id="XMLID_76_" class="st25" cx="460" cy="360.8" rx="3" ry="2.8"/></g><g id="圖層_3_拷貝_4"><circle id="XMLID_108_" class="st25" cx="514.7" cy="541.9" r="7.1"/><ellipse id="XMLID_107_" class="st25" cx="532.2" cy="510.8" rx="4.4" ry="4.1"/><ellipse id="XMLID_106_" class="st25" cx="490.3" cy="448.7" rx="5.3" ry="5.1"/><ellipse id="XMLID_105_" class="st25" cx="496.7" cy="517.7" rx="3" ry="2.8"/></g><g id="圖層_3_拷貝_3"><circle id="XMLID_71_" class="st25" cx="712.7" cy="603.7" r="7.1"/><ellipse id="XMLID_70_" class="st25" cx="730.2" cy="572.6" rx="4.4" ry="4.1"/><ellipse id="XMLID_69_" class="st25" cx="688.3" cy="510.5" rx="5.3" ry="5.1"/><ellipse id="XMLID_68_" class="st25" cx="694.7" cy="579.6" rx="3" ry="2.8"/></g><g id="圖層_3_拷貝_8"><circle id="XMLID_111_" class="st25" cx="441.3" cy="513.6" r="7.1"/><ellipse id="XMLID_110_" transform="rotate(174.977 408.865 498.888) scale(1.00004)" class="st25" cx="408.9" cy="498.9" rx="4.1" ry="4.4"/><ellipse id="XMLID_109_" transform="rotate(174.977 350.582 546.054) scale(1.00004)" class="st25" cx="350.6" cy="546.1" rx="5.1" ry="5.3"/><ellipse id="XMLID_104_" transform="rotate(174.977 418.813 533.653) scale(1.00004)" class="st25" cx="418.8" cy="533.7" rx="2.8" ry="3"/></g><g id="圖層_3_拷貝_7"><circle id="XMLID_120_" class="st25" cx="594.4" cy="463.3" r="7.1"/><ellipse id="XMLID_119_" transform="rotate(174.977 561.924 448.555) scale(1.00004)" class="st25" cx="561.9" cy="448.6" rx="4.1" ry="4.4"/><ellipse id="XMLID_117_" transform="rotate(174.977 503.741 495.713) scale(1.00004)" class="st25" cx="503.7" cy="495.7" rx="5.1" ry="5.3"/><ellipse id="XMLID_116_" transform="rotate(174.977 571.972 483.312) scale(1.00004)" class="st25" cx="572" cy="483.3" rx="2.8" ry="3"/></g><g id="圖層_3_拷貝_6"><circle id="XMLID_75_" class="st25" cx="638.6" cy="260.7" r="7.1"/><ellipse id="XMLID_74_" transform="rotate(174.977 606.16 245.89) scale(1.00004)" class="st25" cx="606.2" cy="245.9" rx="4.1" ry="4.4"/><ellipse id="XMLID_73_" transform="rotate(174.977 547.986 293.148) scale(1.00004)" class="st25" cx="548" cy="293.1" rx="5.1" ry="5.3"/><ellipse id="XMLID_72_" transform="rotate(174.977 616.208 280.647) scale(1.00004)" class="st25" cx="616.2" cy="280.6" rx="2.8" ry="3"/></g></g><g id="Calque_3_-_copie"><g id="XMLID_36_" class="st26"><image style="overflow:visible" width="897" height="1138" id="XMLID_137_" xlink:href="21E0A27D.png" transform="matrix(.24 0 0 .24 324.26 264.058)"/></g><g id="XMLID_35_" class="st26"><image style="overflow:visible" width="1045" height="1001" id="XMLID_135_" xlink:href="21E0A27F.png" transform="matrix(.24 0 0 .24 478.155 263.358)"/></g><g id="XMLID_34_" class="st26"><image style="overflow:visible" width="1312" height="1173" id="XMLID_131_" xlink:href="21E0A27A.png" transform="matrix(.24 0 0 .24 489.863 299.248)"/></g><g id="XMLID_33_" class="st26"><image style="overflow:visible" width="869" height="1317" id="XMLID_129_" xlink:href="21E0A27B.png" transform="matrix(.24 0 0 .24 235.06 286.07)"/></g><g id="XMLID_32_" class="st26"><image style="overflow:visible" width="1202" height="1190" id="XMLID_127_" xlink:href="21E0A285.png" transform="matrix(.24 0 0 .24 212.655 455.875)"/></g><g id="XMLID_31_" class="st26"><image style="overflow:visible" width="1007" height="1287" id="XMLID_123_" xlink:href="21E0A287.png" transform="matrix(.24 0 0 .24 353.476 487.874)"/></g><g id="XMLID_30_" class="st26"><image style="overflow:visible" width="1138" height="917" id="XMLID_121_" xlink:href="21E0A28A.png" transform="matrix(.24 0 0 .24 504.417 466.923)"/></g><g id="XMLID_28_" class="st26"><image style="overflow:visible" width="1216" height="907" id="XMLID_114_" xlink:href="21E0A28B.png" transform="matrix(.24 0 0 .24 438.738 576.293)"/></g></g><g id="Calque_3_-_copie_2"><g id="XMLID_89_" class="st27"><path id="XMLID_53_" class="st28" d="M499.2 499.9c-11.5 6-11.1-10.1-22.3-16.6-11.2-6.6-13.2-3.1-24.5-9.7-11.2-6.6-9.2-10-20.4-16.6-11.2-6.6-19.4 1.1-25.2-10.5-4.4-8.8 7-9.5 10.2-18.8 3.3-9.3-.5-10.6 2.8-19.9 3.3-9.3 7.1-7.9 10.3-17.2 3.3-9.3 5.8-9.2 2.8-18.6-3.7-11.6-5.6-10.3-14.5-18.6s-11.6-5.3-20.5-13.6-6.2-11.2-15-19.5c-8.9-8.3-29.4-8.3-20.5-16.5 11.8-11 17.2 5.1 33.2 6.7 16 1.6 16.4-2.3 32.4-.7 16 1.6 15.6 5.6 31.6 7.3 16 1.6 21.2-10.6 33.5-.2 8.5 7.1-4.3 12.4-5.2 23.4-1 11 3 11.4 2 22.4-1 11-5 10.7-5.9 21.7-1 11 1.6 11.1 2 22.1.4 11.6-2.2 11.8-.4 23.3 1.8 11.4 5.7 10.8 7.5 22.3 1.8 11.4-4.9 13.4-.3 24 5.7 12.8 16.7 18.4 6.4 23.8z"/></g><g id="XMLID_84_" class="st27"><path id="XMLID_50_" class="st28" d="M519.7 465c-9.4-6.6 2.7-13.2 2.2-24.7s-4.5-11.3-5-22.8 3.5-11.7 3-23.1c-.5-11.5-8.4-12.6-4.9-23.5 3.4-10.6 10.5-6.8 17.5-15.4 7-8.6 3.9-11.2 10.9-19.8 7-8.6 10.1-6.1 17.1-14.8s1.2-17.2 11.9-20.5c14.1-4.3 14.9 5.9 29.6 7.9 14.6 2 15.2-1.9 29.8.1 14.6 2 14.1 6 28.7 8s20.6-9.9 30.9.7c6.4 6.5-10.1 4.9-17.7 10s-5.3 8.5-12.9 13.6c-7.6 5.2-9.8 1.8-17.4 7-7.6 5.2-7.5 5.2-12.3 13-5.4 8.8-5.4 8.7-7.2 18.9-1.8 10.1 2.2 10.8.4 20.9-1.8 10.1-5.7 9.4-7.5 19.6-1.8 10.1 7.2 14.9-.2 22-8.8 8.4-13.7-.6-25.5 2.3-11.8 2.8-10.9 6.7-22.7 9.6-11.8 2.8-14.2-3.6-25 2-12.2 6.3-13.8 16-23.7 9z"/></g><g id="XMLID_81_" class="st27"><path id="XMLID_47_" class="st28" d="M532.2 483.5c12.9-6.1 15.3.7 29.2-2.4 14-3.1 13.1-7 27.1-10.1 14-3.1 14.8.8 28.8-2.3 14-3.1 15.8.3 26.1-9.6 8.1-7.7 4.3-9.5 5.2-20.7.9-11.1-3.1-11.5-2.2-22.6.9-11.1 4.9-10.8 5.8-22 .9-11.1-7.7-13.9-1.9-23.5 4.8-8 11-1.4 19.4-5.6 8.4-4.2 6.6-7.8 14.9-12 8.4-4.2 10.2-.7 18.6-4.9 8.4-4.2 7.7-15.2 16.5-12.1 10.4 3.6 3.6 12.2 9.6 21.4s9.3 7.1 15.3 16.3c6 9.2 2.6 11.4 8.6 20.6 6 9.2 17.4 6.8 15.6 17.7-1.9 11.7-12.1 6.1-20.9 14-8.8 7.9-6.1 10.9-14.9 18.8s-11.5 4.9-20.3 12.8-5.6 11.8-15 18.9c-12.3 9.3-15.2 5.2-28.1 13.7-12.9 8.5-10.7 11.8-23.6 20.3-12.9 8.5-15.1 5.1-28 13.6s-9.2 16.9-24.2 20.6c-8.5 2.1-7.9-7.1-16-10.3-8.2-3.3-9.6.4-17.8-2.8-8.2-3.3-6.7-7-14.8-10.3s-12.1 2.8-18.4-3.2c-2.8-2.7 4-5 4.6-8.8.6-3.9-3.3-4.5-2.7-8.4.6-3.9 5.7-3.7 5.2-7.6-.8-5.4-5.3-7.8-1.7-9.5z"/></g><g id="XMLID_78_" class="st27"><path id="XMLID_45_" class="st28" d="M344.5 322.1c-11.6-.6-10.1 3.9-19 11.4-8.9 7.4-6.4 10.5-15.3 18-8.9 7.4-11.5 4.4-20.4 11.8-8.9 7.4-10.1 6.6-14.7 17.2-5.2 12.1-3.8 12.3-3.8 25.5 0 13.1 4 13.1 4 26.3 0 13.1-4 13.1-4 26.3 0 13.1.6 13.1 3.9 25.8 3.1 11.7 2.5 11.9 8.7 22.3 6.2 10.4 9.6 8.3 15.8 18.7 6.2 10.4 2.8 12.4 8.9 22.8 6.2 10.4 2.4 16.2 14.3 17.7 13.4 1.7 11.7-4.6 22.4-12.9 10.7-8.2 8.3-11.4 19-19.6 10.7-8.2 13.2-5 23.9-13.3 10.7-8.2 13.4-6.2 18.4-18.8 2.7-6.9-2.4-5.6-8-10.4-5.6-4.8-8.2-1.8-13.8-6.6-5.6-4.8-3-7.9-8.6-12.7-5.6-4.8-14.5-.7-14.5-8.1 0-11.1 9.3-8.6 14.9-18.2s2.1-11.6 7.7-21.2 9.1-7.6 14.6-17.2 9-8.9 7.5-20c-1.5-11.4-4.6-9.9-12.6-18.2-8-8.3-10.9-5.5-18.9-13.8-8-8.3-6.5-9.5-12.9-19.1-6.1-9.8-6-13.1-17.5-13.7z"/></g><g id="XMLID_56_" class="st27"><path id="XMLID_43_" class="st28" d="M431.4 493.6c-14.2 9.1-14 9.2-25.5 21.5s-8.6 15-20 27.3c-11.5 12.3-14.4 9.6-25.9 21.8-11.5 12.3-4.9 22.5-20.9 27.8-10.3 3.5-9.2-8.9-18.8-14.1-9.5-5.2-11.5-1.7-21-6.9s-7.6-8.7-17.2-13.9c-9.5-5.2-9-8.7-19.7-6.7-7.3 1.3-4 4.8-5.7 12.1-1.7 7.3 2.2 8.2.5 15.4-1.7 7.3-5.6 6.4-7.3 13.6-1.7 7.3-2.2 7.3.4 14.3 5.6 14.6 5.8 14.5 15 27.1 9.3 12.6 12.5 10.2 21.7 22.8 9.3 12.6 6 15 15.3 27.5s4.5 22.2 20.1 22c19-.3 15.4-9.4 29.4-22.3 14-12.9 11.3-15.8 25.3-28.7 14-12.9 16.7-10 30.7-22.9 14-12.9 13.9-13 25.1-28.4 7.4-10.3 7.5-10.2 11.5-22.2s.2-13.3 4.2-25.3 7.8-10.7 11.8-22.8c4-12 4.6-11.9 4.1-24.6-.2-5-1.8-3.9-6.3-5.9-4.6-2-6.2 1.6-10.7-.4-4.6-2-3.1-4.6-7.2-7.5-3.5-2.6-4.7-3.3-8.9-.6z"/></g><g id="XMLID_51_" class="st27"><path id="XMLID_41_" class="st28" d="M493.1 526.6c-9.5 6.7-6.2 9.1-9.4 20.3-3.1 11.2.7 12.3-2.4 23.5-3.1 11.2-7 10.2-10.1 21.4-3.1 11.2 3.3 14-2.6 24-7.4 12.4-13 8.2-22.8 18.7-9.8 10.6-6.9 13.3-16.7 23.8-9.8 10.6-12.8 7.8-22.6 18.4-9.8 10.6-12.7 9-16.3 23-2.3 9 1.5 8.4 6.6 16.2 5.1 7.8 8.5 5.6 13.6 13.4 5.1 7.8 1.8 10 6.9 17.8 5.1 7.8 4.2 8.8 12.7 12.6 5.5 2.5 5.4.3 10.5-2.9 5.1-3.2 3-6.6 8.1-9.8 5.1-3.2 7.2.2 12.4-3 5.1-3.2 5.6-2.8 7.3-8.6 1.7-6.1 1.1-6-1.6-11.8-2.6-5.7-6.3-4-8.9-9.8-2.7-5.7 1-7.4-1.7-13.1-2.7-5.7-11.3-5.4-9-11.3 4-10.3 11.1-5.6 19-13.4 7.9-7.8 5-10.6 12.9-18.4 7.9-7.8 10.7-4.9 18.5-12.7 7.9-7.8 5.9-9.5 12.7-18.2 7.2-9.1 9.4-7.6 15.4-17.6 6.1-9.9 2.7-12 8.7-21.9 6.1-9.9 9.5-7.8 15.6-17.8 6.1-9.9 10.7-9.1 8.5-20.5-1.7-8.9-6-5.2-14.5-8.1-8.6-2.9-9.9.8-18.4-2.1-8.6-2.9-7.7-4.8-15.5-9.5-7.7-4.7-9.5-7.8-16.9-2.6z"/></g><g id="XMLID_48_" class="st27"><path id="XMLID_39_" class="st28" d="M540.4 615.3c.5-8.4 8.2-5.9 12.8-13.1 4.6-7.1 1.2-9.3 5.7-16.4 4.6-7.1 7.9-5 12.5-12.1s-.6-12 6.3-17c3.7-2.6 5.4 4.3 9.8 4.9 4.5.7 5.1-3.3 9.5-2.6 4.5.7 3.9 4.6 8.4 5.3 4.5.7 4.3-.7 8.5-2.5 12-5.2 12.8-3.8 23.6-11.2 10.8-7.3 8.6-10.6 19.5-18 10.9-7.3 13.1-4 23.9-11.3 10.9-7.3 7.3-16.1 20.2-18.3 6.5-1.1 3.6 8 8.3 12.7 4.7 4.6 7.5 1.8 12.2 6.5 4.7 4.6 1.9 7.5 6.6 12.1s15.8 3.1 12.5 8.9c-6.7 11.7-14.3 4.5-25.7 11.7-11.5 7.2-9.4 10.6-20.8 17.7-11.5 7.2-13.6 3.8-25.1 11-11.5 7.2-8.5 13.3-21.2 17.9-5.6 2-6.2-4.8-12-5.7-5.8-.9-6.5 3-12.3 2.1-5.8-.9-5.2-4.9-11-5.8-5.8-.9-6-1.5-10.9 1.7-6.5 4.4-6.3 4.6-9.6 11.7-3.4 7.1.3 8.8-3.1 15.9s-7 5.4-10.3 12.5c-3.4 7.1 3.1 14-4.2 16.9-5.3 2.1-3.2-7.4-7.1-11.6-3.9-4.2-6.8-1.4-10.7-5.6-3.9-4.2-.4-8.4-5.3-11.4-6-3.8-11.3-1.2-11-6.9z"/></g><g id="XMLID_38_" class="st27"><path id="XMLID_29_" class="st28" d="M517.1 650.8c-6.8.6-6.9.6-12.3 4.8-5.5 4.2-3 7.4-8.5 11.5-5.5 4.2-7.9 1-13.4 5.2s-6.9 3.4-7.7 10.2c-1.2 10-.1 9.9 3.7 19.3 3.8 9.4 7.5 7.9 11.3 17.3 3.8 9.4.1 10.9 3.9 20.3s1 12.1 10.2 16.2c10.5 4.7 10.9 1.1 22.1-1.6 11.2-2.7 10.3-6.6 21.5-9.2 11.2-2.7 12.1 1.2 23.3-1.5 11.2-2.7 10.8-3.7 21-9.1 14.4-7.5 15-6.5 27.9-16.4 12.9-9.9 10.4-13.1 23.3-23s15.3-6.7 28.2-16.6c12.9-9.9 19.7-5.7 22.6-21.7 2-11.5-7.2-7.1-17.3-12.9-10.1-5.7-12.1-2.3-22.2-8-10.1-5.8-8.1-9.2-18.3-15-10.1-5.8-9.4-9.3-21-7.8-8.9 1.2-6.5 4.7-11 12.5-4.5 7.7-1 9.7-5.5 17.5-4.5 7.7-8 5.7-12.4 13.4-4.5 7.7 1.8 15.1-6.5 18.3-7.8 3-7.8-6.7-15.6-9.7-7.8-3-9.2.8-17-2.2-7.8-3-6.5-6.1-14-9.6-7.3-3.5-7.9-3-16.3-2.2z"/></g></g></g><g id="圖層_1_1_"><g id="XMLID_101_" style="opacity:.81"><image style="overflow:visible" width="148" height="67" id="XMLID_133_" xlink:href="21E0A28D.png" transform="matrix(.24 0 0 .24 561.751 365.35)"/><g id="XMLID_126_"><path id="XMLID_132_" class="st28" d="M591.2 374.6c-8.5-.2-15.5-1.2-23.5-3.2 6 5 13 3 20.1 3.9l3.4-.7z"/></g></g></g></svg>