<svg version="1.0" xmlns="http://www.w3.org/2000/svg" width="300" height="260" style="enable-background:new 0 0 300 260" xml:space="preserve"><path d="M174.5 179.5h-43c-18 0-32.7-14.7-32.7-32.7v-35.2c0-18 14.7-32.7 32.7-32.7h43c18 0 32.7 14.7 32.7 32.7v35.2c0 18-14.7 32.7-32.7 32.7z" style="fill:#353535"/><path d="M171.5 175.2h-37c-17.1 0-31-14-31-31v-29.9c0-17.1 14-31 31-31h37c17.1 0 31 14 31 31v29.9c0 17-13.9 31-31 31z" style="fill:#fff"/><radialGradient id="a" cx="153" cy="129.023" r="44.212" gradientUnits="userSpaceOnUse"><stop offset="0" style="stop-color:#4487ba"/><stop offset=".275" style="stop-color:#478abc"/><stop offset=".496" style="stop-color:#5193c4"/><stop offset=".699" style="stop-color:#62a4d1"/><stop offset=".889" style="stop-color:#7bbee4"/><stop offset="1" style="stop-color:#90d9f8"/></radialGradient><path d="M173.2 171.7h-40.4c-14 0-25.5-11.5-25.5-25.5v-34.5c0-14 11.5-25.5 25.5-25.5h40.4c14 0 25.5 11.5 25.5 25.5v34.5c0 14.1-11.5 25.5-25.5 25.5z" style="fill:url(#a)"/><linearGradient id="b" gradientUnits="userSpaceOnUse" x1="153" y1="171.211" x2="153" y2="86.834"><stop offset="0" style="stop-color:#90d9f8"/><stop offset=".5" style="stop-color:#4487ba"/><stop offset="1" style="stop-color:#90d9f8"/></linearGradient><path d="M172.9 171.2h-39.8c-13.1 0-23.9-10.7-23.9-23.9v-36.6c0-13.1 10.7-23.9 23.9-23.9h39.8c13.1 0 23.9 10.7 23.9 23.9v36.6c0 13.2-10.8 23.9-23.9 23.9z" style="fill:url(#b)"/><path style="opacity:.75;fill:#fff;enable-background:new" d="m160.4 103.7-24.5 27.8h17.8l-4.3 20.5 25.2-27.6h-18.7z"/><linearGradient id="c" gradientUnits="userSpaceOnUse" x1="153.994" y1="139.43" x2="149.261" y2="85.329"><stop offset="0" style="stop-color:#fff"/><stop offset="1" style="stop-color:#fff;stop-opacity:0"/></linearGradient><path d="M110.8 142c16.5-13.7 37-21.4 57.3-28.2 9.2-3.1 18.6-6.1 28.1-8.6-2.5-10.5-12-18.3-23.2-18.3h-39.8c-13.1 0-23.9 10.7-23.9 23.9v32.6c.4-.5 1-1 1.5-1.4z" style="opacity:.73;fill:url(#c)"/></svg>