<svg version="1.0" id="patrol_-_copie_2" xmlns="http://www.w3.org/2000/svg" x="0" y="0" width="100" height="150" style="enable-background:new 0 0 100 150" xml:space="preserve"><style>.st1{fill:#c1c1c0}</style><path id="XMLID_501_" d="m73.2 50.9-9.5 5.5 2 2c7.1 4.1 11.9 11.8 11.9 20.6 0 13.1-10.6 23.8-23.8 23.8S30 92.1 30 79c0-8.8 4.8-16.5 11.9-20.6l-7.5-7.5C25.4 57 19.6 67.3 19.6 79c0 18.9 15.3 34.2 34.2 34.2S87.9 97.9 87.9 79c0-11.7-5.8-22-14.7-28.1z" style="fill:#868786"/><path id="XMLID_503_" class="st1" d="m71.2 48.9-7.5 7.5c7.1 4.1 11.9 11.8 11.9 20.6 0 13.1-10.6 23.8-23.8 23.8S28 90.1 28 77c0-8.8 4.8-16.5 11.9-20.6l-7.5-7.5C23.4 55 17.6 65.3 17.6 77c0 18.9 15.3 34.2 34.2 34.2S85.9 95.9 85.9 77c0-11.7-5.8-22-14.7-28.1z"/><path id="XMLID_112_" style="fill:#878787" d="M58.4 67.1h-9.3l-2-2 2-25.3 7.3-2 2 2z"/><path id="XMLID_506_" class="st1" d="M47.1 37.8h9.3v27.4h-9.3z"/></svg>