<svg version="1.0" id="Calque_52" xmlns="http://www.w3.org/2000/svg" x="0" y="0" viewBox="0 0 100 150" style="enable-background:new 0 0 100 150" xml:space="preserve"><style>.st3{fill:#40a6ce}</style><g id="Calque_2"><path id="XMLID_12_" d="M74.8 53.4c2 2.9 4.6 6.6 4.8 10 .1 1 0 2-.2 3 .2 1.6-1.5 3.3-2 5l-4.5 13.1c-.6 2.1-.8 3.6-2.3 5.1L59.7 99.8c-3.4 3.4-6.6 5.4-10.8 4.1h-1.3c-2.3-.2-4.6-1.1-6.9-1.3-.1 0-.1.1-.1.1l-.8.7c5.4 6.7 16.6 7.2 22.8 1.2l12.2-11.9c1.8-1.8 3.2-4 3.8-6.5L83 70.7c1.8-6.6-2.3-14.1-8.2-17.3z" style="fill:#6cc1ed"/><path id="XMLID_8_" class="st3" d="M71.9 51.5 57.5 44c-3.6-1.9-7.9-2.1-11.7-.7L30.5 49c-6.5 2.4-10.3 9-9.3 15.8l2.5 16c.4 2.5 1.4 4.9 3 6.9L37.4 101c5.4 6.7 15.3 7.3 21.5 1.3L71 90.4c1.8-1.8 3.2-4 3.8-6.5l4.4-15.6c1.9-6.6-1.2-13.7-7.3-16.8zm3.4 17.6-3.8 13.5c-.6 2.1-1.7 4.1-3.3 5.6L57.6 98.6c-5.3 5.2-14 4.7-18.6-1.1L29.7 86c-1.4-1.7-2.3-3.8-2.6-6L25 66.1c-.9-5.9 2.5-11.6 8.1-13.7l13.2-4.9c3.3-1.2 7-1 10.1.6L69 54.5c5.3 2.8 7.9 8.9 6.3 14.6z"/><path id="XMLID_7_" class="st3" d="m28.7 55.4 1.5 2.6c.3.5.3 1.1 0 1.6l-1 1.8c-.2.4-.7.7-1.2.8l-3.3.4c-1.1.1-1.9-.8-1.8-1.9l.4-2.4c.1-.3.2-.6.4-.8l2.4-2.5c.9-.7 2.1-.5 2.6.4z"/><path id="XMLID_4_" class="st3" d="m26.4 79.5 3-.2c.6 0 1.1.2 1.4.7l1.2 1.6c.3.4.4.9.2 1.4l-1.1 3.2c-.3 1-1.6 1.4-2.4.8l-1.9-1.4c-.3-.2-.4-.4-.6-.7L25 81.6c-.4-.9.3-2 1.4-2.1z"/><path id="XMLID_3_" class="st3" d="m72.2 82.3-3-.6c-.5-.1-1.1.1-1.5.5l-1.3 1.5c-.3.4-.5.9-.4 1.4l.7 3.3c.2 1 1.4 1.6 2.3 1.1l2.1-1.2c.3-.2.5-.4.6-.7l1.6-3c.5-1 0-2.1-1.1-2.3z"/><path id="XMLID_2_" class="st3" d="M72.3 57.5 70.5 60c-.3.4-.4 1-.2 1.5l.8 1.9c.2.5.6.8 1.1.9l3.2.8c1 .3 2-.6 2-1.6l-.1-2.4c0-.3-.1-.6-.3-.9l-2.1-2.7c-.7-.8-1.9-.8-2.6 0z"/><g id="Calque_3"><path id="XMLID_13_" d="m53.7 44.3-26.1 8.6-4.6 9.7 1.9 15 5.6 13.1 10.7 11.4 9.2 2.1s-3-10.8-2.3-29.8c.7-19.1 5.6-30.1 5.6-30.1z" style="opacity:.1;fill:#6bc0e2"/></g></g></svg>