<svg xmlns="http://www.w3.org/2000/svg" width="1000" height="1000" style="enable-background:new 0 0 1000 1000" xml:space="preserve"><linearGradient id="a" gradientUnits="userSpaceOnUse" x1="191.222" y1="576.21" x2="191.222" y2="532.31" gradientTransform="matrix(1 0 0 -1 0 1000.11)"><stop offset="0" style="stop-color:#8fc044"/><stop offset=".145" style="stop-color:#89bf45"/><stop offset=".338" style="stop-color:#7aba48"/><stop offset=".559" style="stop-color:#59b24b"/><stop offset=".798" style="stop-color:#25a94f"/><stop offset="1" style="stop-color:#08a651"/></linearGradient><path d="M184.3 423.9c2.9 2 7.8 6 11 12.8 6.9 14.7-.8 29.3-1.8 31.1.7-5.1 1.1-12.6-.6-21.4-1.9-10.1-5.7-17.8-8.6-22.5z" style="fill:url(#a)"/><linearGradient id="b" gradientUnits="userSpaceOnUse" x1="203.864" y1="587.11" x2="203.864" y2="532.31" gradientTransform="matrix(1 0 0 -1 0 1000.11)"><stop offset="0" style="stop-color:#8fc044"/><stop offset=".145" style="stop-color:#89bf45"/><stop offset=".338" style="stop-color:#7aba48"/><stop offset=".559" style="stop-color:#59b24b"/><stop offset=".798" style="stop-color:#25a94f"/><stop offset="1" style="stop-color:#08a651"/></linearGradient><path d="M198.1 467.8s12.3-34 2.4-54.8c8.5 6.5 10.7 28.6 8.1 35.3s-10.5 19.5-10.5 19.5z" style="fill:url(#b)"/><linearGradient id="c" gradientUnits="userSpaceOnUse" x1="219.9" y1="564.456" x2="219.9" y2="527.894" gradientTransform="matrix(1 0 0 -1 0 1000.11)"><stop offset="0" style="stop-color:#8fc044"/><stop offset=".145" style="stop-color:#89bf45"/><stop offset=".338" style="stop-color:#7aba48"/><stop offset=".559" style="stop-color:#59b24b"/><stop offset=".798" style="stop-color:#25a94f"/><stop offset="1" style="stop-color:#08a651"/></linearGradient><path d="M204.4 472.2s7.6-25.9 13.1-29.8c8.3-5.9 17.9-6.8 17.9-6.8s-23.7 12.9-31 36.6z" style="fill:url(#c)"/><linearGradient id="d" gradientUnits="userSpaceOnUse" x1="223.95" y1="549.206" x2="223.95" y2="523.706" gradientTransform="matrix(1 0 0 -1 0 1000.11)"><stop offset="0" style="stop-color:#8fc044"/><stop offset=".145" style="stop-color:#89bf45"/><stop offset=".338" style="stop-color:#7aba48"/><stop offset=".559" style="stop-color:#59b24b"/><stop offset=".798" style="stop-color:#25a94f"/><stop offset="1" style="stop-color:#08a651"/></linearGradient><path d="M209.7 476.4s3.3-18.3 9.9-21.3 18.6-4.3 18.6-4.3-17.6 5.5-21.3 10.4c-3.4 4.7-7.2 15.2-7.2 15.2z" style="fill:url(#d)"/><g><linearGradient id="e" gradientUnits="userSpaceOnUse" x1="388.422" y1="789.71" x2="388.422" y2="745.81" gradientTransform="matrix(1 0 0 -1 0 1000.11)"><stop offset="0" style="stop-color:#8fc044"/><stop offset=".145" style="stop-color:#89bf45"/><stop offset=".338" style="stop-color:#7aba48"/><stop offset=".559" style="stop-color:#59b24b"/><stop offset=".798" style="stop-color:#25a94f"/><stop offset="1" style="stop-color:#08a651"/></linearGradient><path d="M381.5 210.4c2.9 2 7.8 6 11 12.8 6.9 14.7-.8 29.3-1.8 31.1.7-5.1 1.1-12.6-.6-21.4-1.9-10.1-5.7-17.8-8.6-22.5z" style="fill:url(#e)"/><linearGradient id="f" gradientUnits="userSpaceOnUse" x1="401.064" y1="800.61" x2="401.064" y2="745.81" gradientTransform="matrix(1 0 0 -1 0 1000.11)"><stop offset="0" style="stop-color:#8fc044"/><stop offset=".145" style="stop-color:#89bf45"/><stop offset=".338" style="stop-color:#7aba48"/><stop offset=".559" style="stop-color:#59b24b"/><stop offset=".798" style="stop-color:#25a94f"/><stop offset="1" style="stop-color:#08a651"/></linearGradient><path d="M395.3 254.3s12.3-34 2.4-54.8c8.5 6.5 10.7 28.6 8.1 35.3-2.6 6.7-10.5 19.5-10.5 19.5z" style="fill:url(#f)"/><linearGradient id="g" gradientUnits="userSpaceOnUse" x1="417.1" y1="777.956" x2="417.1" y2="741.394" gradientTransform="matrix(1 0 0 -1 0 1000.11)"><stop offset="0" style="stop-color:#8fc044"/><stop offset=".145" style="stop-color:#89bf45"/><stop offset=".338" style="stop-color:#7aba48"/><stop offset=".559" style="stop-color:#59b24b"/><stop offset=".798" style="stop-color:#25a94f"/><stop offset="1" style="stop-color:#08a651"/></linearGradient><path d="M401.6 258.7s7.6-25.9 13.1-29.8c8.3-5.9 17.9-6.8 17.9-6.8s-23.7 12.9-31 36.6z" style="fill:url(#g)"/><linearGradient id="h" gradientUnits="userSpaceOnUse" x1="421.15" y1="762.706" x2="421.15" y2="737.206" gradientTransform="matrix(1 0 0 -1 0 1000.11)"><stop offset="0" style="stop-color:#8fc044"/><stop offset=".145" style="stop-color:#89bf45"/><stop offset=".338" style="stop-color:#7aba48"/><stop offset=".559" style="stop-color:#59b24b"/><stop offset=".798" style="stop-color:#25a94f"/><stop offset="1" style="stop-color:#08a651"/></linearGradient><path d="M406.9 262.9s3.3-18.3 9.9-21.3 18.6-4.3 18.6-4.3-17.6 5.5-21.3 10.4c-3.4 4.7-7.2 15.2-7.2 15.2z" style="fill:url(#h)"/></g><g><linearGradient id="i" gradientUnits="userSpaceOnUse" x1="547.222" y1="442.31" x2="547.222" y2="398.41" gradientTransform="matrix(1 0 0 -1 0 1000.11)"><stop offset="0" style="stop-color:#8fc044"/><stop offset=".145" style="stop-color:#89bf45"/><stop offset=".338" style="stop-color:#7aba48"/><stop offset=".559" style="stop-color:#59b24b"/><stop offset=".798" style="stop-color:#25a94f"/><stop offset="1" style="stop-color:#08a651"/></linearGradient><path d="M540.3 557.8c2.9 2 7.8 6 11 12.8 6.9 14.7-.8 29.3-1.8 31.1.7-5.1 1.1-12.6-.6-21.4-1.9-10.1-5.7-17.8-8.6-22.5z" style="fill:url(#i)"/><linearGradient id="j" gradientUnits="userSpaceOnUse" x1="559.864" y1="453.21" x2="559.864" y2="398.41" gradientTransform="matrix(1 0 0 -1 0 1000.11)"><stop offset="0" style="stop-color:#8fc044"/><stop offset=".145" style="stop-color:#89bf45"/><stop offset=".338" style="stop-color:#7aba48"/><stop offset=".559" style="stop-color:#59b24b"/><stop offset=".798" style="stop-color:#25a94f"/><stop offset="1" style="stop-color:#08a651"/></linearGradient><path d="M554.1 601.7s12.3-34 2.4-54.8c8.5 6.5 10.7 28.6 8.1 35.3-2.6 6.7-10.5 19.5-10.5 19.5z" style="fill:url(#j)"/><linearGradient id="k" gradientUnits="userSpaceOnUse" x1="575.9" y1="430.556" x2="575.9" y2="393.994" gradientTransform="matrix(1 0 0 -1 0 1000.11)"><stop offset="0" style="stop-color:#8fc044"/><stop offset=".145" style="stop-color:#89bf45"/><stop offset=".338" style="stop-color:#7aba48"/><stop offset=".559" style="stop-color:#59b24b"/><stop offset=".798" style="stop-color:#25a94f"/><stop offset="1" style="stop-color:#08a651"/></linearGradient><path d="M560.4 606.1s7.6-25.9 13.1-29.8c8.3-5.9 17.9-6.8 17.9-6.8s-23.7 12.9-31 36.6z" style="fill:url(#k)"/><linearGradient id="l" gradientUnits="userSpaceOnUse" x1="579.95" y1="415.306" x2="579.95" y2="389.806" gradientTransform="matrix(1 0 0 -1 0 1000.11)"><stop offset="0" style="stop-color:#8fc044"/><stop offset=".145" style="stop-color:#89bf45"/><stop offset=".338" style="stop-color:#7aba48"/><stop offset=".559" style="stop-color:#59b24b"/><stop offset=".798" style="stop-color:#25a94f"/><stop offset="1" style="stop-color:#08a651"/></linearGradient><path d="M565.7 610.3s3.3-18.3 9.9-21.3 18.6-4.3 18.6-4.3-17.6 5.5-21.3 10.4c-3.4 4.7-7.2 15.2-7.2 15.2z" style="fill:url(#l)"/></g><g><linearGradient id="m" gradientUnits="userSpaceOnUse" x1="431.722" y1="344.51" x2="431.722" y2="300.61" gradientTransform="matrix(1 0 0 -1 0 1000.11)"><stop offset="0" style="stop-color:#8fc044"/><stop offset=".145" style="stop-color:#89bf45"/><stop offset=".338" style="stop-color:#7aba48"/><stop offset=".559" style="stop-color:#59b24b"/><stop offset=".798" style="stop-color:#25a94f"/><stop offset="1" style="stop-color:#08a651"/></linearGradient><path d="M424.8 655.6c2.9 2 7.8 6 11 12.8 6.9 14.7-.8 29.3-1.8 31.1.7-5.1 1.1-12.6-.6-21.4-1.9-10.1-5.7-17.8-8.6-22.5z" style="fill:url(#m)"/><linearGradient id="n" gradientUnits="userSpaceOnUse" x1="444.364" y1="355.41" x2="444.364" y2="300.61" gradientTransform="matrix(1 0 0 -1 0 1000.11)"><stop offset="0" style="stop-color:#8fc044"/><stop offset=".145" style="stop-color:#89bf45"/><stop offset=".338" style="stop-color:#7aba48"/><stop offset=".559" style="stop-color:#59b24b"/><stop offset=".798" style="stop-color:#25a94f"/><stop offset="1" style="stop-color:#08a651"/></linearGradient><path d="M438.6 699.5s12.3-34 2.4-54.8c8.5 6.5 10.7 28.6 8.1 35.3-2.6 6.7-10.5 19.5-10.5 19.5z" style="fill:url(#n)"/><linearGradient id="o" gradientUnits="userSpaceOnUse" x1="460.4" y1="332.756" x2="460.4" y2="296.194" gradientTransform="matrix(1 0 0 -1 0 1000.11)"><stop offset="0" style="stop-color:#8fc044"/><stop offset=".145" style="stop-color:#89bf45"/><stop offset=".338" style="stop-color:#7aba48"/><stop offset=".559" style="stop-color:#59b24b"/><stop offset=".798" style="stop-color:#25a94f"/><stop offset="1" style="stop-color:#08a651"/></linearGradient><path d="M444.9 703.9s7.6-25.9 13.1-29.8c8.3-5.9 17.9-6.8 17.9-6.8s-23.7 12.9-31 36.6z" style="fill:url(#o)"/><linearGradient id="p" gradientUnits="userSpaceOnUse" x1="464.45" y1="317.506" x2="464.45" y2="292.006" gradientTransform="matrix(1 0 0 -1 0 1000.11)"><stop offset="0" style="stop-color:#8fc044"/><stop offset=".145" style="stop-color:#89bf45"/><stop offset=".338" style="stop-color:#7aba48"/><stop offset=".559" style="stop-color:#59b24b"/><stop offset=".798" style="stop-color:#25a94f"/><stop offset="1" style="stop-color:#08a651"/></linearGradient><path d="M450.2 708.1s3.3-18.3 9.9-21.3 18.6-4.3 18.6-4.3-17.6 5.5-21.3 10.4c-3.4 4.7-7.2 15.2-7.2 15.2z" style="fill:url(#p)"/></g><g><linearGradient id="q" gradientUnits="userSpaceOnUse" x1="754.122" y1="312.81" x2="754.122" y2="268.91" gradientTransform="matrix(1 0 0 -1 0 1000.11)"><stop offset="0" style="stop-color:#8fc044"/><stop offset=".145" style="stop-color:#89bf45"/><stop offset=".338" style="stop-color:#7aba48"/><stop offset=".559" style="stop-color:#59b24b"/><stop offset=".798" style="stop-color:#25a94f"/><stop offset="1" style="stop-color:#08a651"/></linearGradient><path d="M747.2 687.3c2.9 2 7.8 6 11 12.8 6.9 14.7-.8 29.3-1.8 31.1.7-5.1 1.1-12.6-.6-21.4-1.9-10.1-5.7-17.8-8.6-22.5z" style="fill:url(#q)"/><linearGradient id="r" gradientUnits="userSpaceOnUse" x1="766.764" y1="323.71" x2="766.764" y2="268.91" gradientTransform="matrix(1 0 0 -1 0 1000.11)"><stop offset="0" style="stop-color:#8fc044"/><stop offset=".145" style="stop-color:#89bf45"/><stop offset=".338" style="stop-color:#7aba48"/><stop offset=".559" style="stop-color:#59b24b"/><stop offset=".798" style="stop-color:#25a94f"/><stop offset="1" style="stop-color:#08a651"/></linearGradient><path d="M761 731.2s12.3-34 2.4-54.8c8.5 6.5 10.7 28.6 8.1 35.3-2.6 6.7-10.5 19.5-10.5 19.5z" style="fill:url(#r)"/><linearGradient id="s" gradientUnits="userSpaceOnUse" x1="782.8" y1="301.056" x2="782.8" y2="264.494" gradientTransform="matrix(1 0 0 -1 0 1000.11)"><stop offset="0" style="stop-color:#8fc044"/><stop offset=".145" style="stop-color:#89bf45"/><stop offset=".338" style="stop-color:#7aba48"/><stop offset=".559" style="stop-color:#59b24b"/><stop offset=".798" style="stop-color:#25a94f"/><stop offset="1" style="stop-color:#08a651"/></linearGradient><path d="M767.3 735.6s7.6-25.9 13.1-29.8c8.3-5.9 17.9-6.8 17.9-6.8s-23.7 12.9-31 36.6z" style="fill:url(#s)"/><linearGradient id="t" gradientUnits="userSpaceOnUse" x1="786.85" y1="285.806" x2="786.85" y2="260.306" gradientTransform="matrix(1 0 0 -1 0 1000.11)"><stop offset="0" style="stop-color:#8fc044"/><stop offset=".145" style="stop-color:#89bf45"/><stop offset=".338" style="stop-color:#7aba48"/><stop offset=".559" style="stop-color:#59b24b"/><stop offset=".798" style="stop-color:#25a94f"/><stop offset="1" style="stop-color:#08a651"/></linearGradient><path d="M772.6 739.8s3.3-18.3 9.9-21.3 18.6-4.3 18.6-4.3-17.6 5.5-21.3 10.4c-3.4 4.7-7.2 15.2-7.2 15.2z" style="fill:url(#t)"/></g></svg>