<svg xmlns="http://www.w3.org/2000/svg" width="1000" height="1000" style="enable-background:new 0 0 1000 1000" xml:space="preserve"><linearGradient id="a" gradientUnits="userSpaceOnUse" x1="192.818" y1="577.485" x2="192.818" y2="532.31" gradientTransform="matrix(1 0 0 -1 0 1000.11)"><stop offset="0" style="stop-color:#8fc044"/><stop offset=".145" style="stop-color:#89bf45"/><stop offset=".338" style="stop-color:#7aba48"/><stop offset=".559" style="stop-color:#59b24b"/><stop offset=".798" style="stop-color:#25a94f"/><stop offset="1" style="stop-color:#08a651"/></linearGradient><path d="M188.9 422.6c2.9 2 6.5 6.9 7.4 14.1 1.8 10.6-1.8 29.2-2.8 31 .7-5.1 1.1-12.6-.6-21.4-1.9-10-1.1-19-4-23.7z" style="fill:url(#a)"/><linearGradient id="b" gradientUnits="userSpaceOnUse" x1="205.407" y1="587.11" x2="205.407" y2="532.31" gradientTransform="matrix(1 0 0 -1 0 1000.11)"><stop offset="0" style="stop-color:#8fc044"/><stop offset=".145" style="stop-color:#89bf45"/><stop offset=".338" style="stop-color:#7aba48"/><stop offset=".559" style="stop-color:#59b24b"/><stop offset=".798" style="stop-color:#25a94f"/><stop offset="1" style="stop-color:#08a651"/></linearGradient><path d="M198.1 467.8s13.9-34.3 10-54.8c8.5 6.5 3.1 28.6.5 35.3s-10.5 19.5-10.5 19.5z" style="fill:url(#b)"/><linearGradient id="c" gradientUnits="userSpaceOnUse" x1="220.95" y1="562.502" x2="220.95" y2="527.895" gradientTransform="matrix(1 0 0 -1 0 1000.11)"><stop offset="0" style="stop-color:#8fc044"/><stop offset=".145" style="stop-color:#89bf45"/><stop offset=".338" style="stop-color:#7aba48"/><stop offset=".559" style="stop-color:#59b24b"/><stop offset=".798" style="stop-color:#25a94f"/><stop offset="1" style="stop-color:#08a651"/></linearGradient><path d="M204.4 472.2s9-25.8 14.5-29.7c8.3-5.9 18.6-4.9 18.6-4.9s-8.4 2.9-16.6 9.6c-6.8 5.7-13.2 14.2-16.5 25z" style="fill:url(#c)"/><linearGradient id="d" gradientUnits="userSpaceOnUse" x1="224.6" y1="546.842" x2="224.6" y2="523.707" gradientTransform="matrix(1 0 0 -1 0 1000.11)"><stop offset="0" style="stop-color:#8fc044"/><stop offset=".145" style="stop-color:#89bf45"/><stop offset=".338" style="stop-color:#7aba48"/><stop offset=".559" style="stop-color:#59b24b"/><stop offset=".798" style="stop-color:#25a94f"/><stop offset="1" style="stop-color:#08a651"/></linearGradient><path d="M209.7 476.4s3.3-18.3 9.9-21.3 19.9-1.6 19.9-1.6-18.9 2.8-22.6 7.7c-3.4 4.7-7.2 15.2-7.2 15.2z" style="fill:url(#d)"/><g><linearGradient id="e" gradientUnits="userSpaceOnUse" x1="390.018" y1="790.985" x2="390.018" y2="745.81" gradientTransform="matrix(1 0 0 -1 0 1000.11)"><stop offset="0" style="stop-color:#8fc044"/><stop offset=".145" style="stop-color:#89bf45"/><stop offset=".338" style="stop-color:#7aba48"/><stop offset=".559" style="stop-color:#59b24b"/><stop offset=".798" style="stop-color:#25a94f"/><stop offset="1" style="stop-color:#08a651"/></linearGradient><path d="M386.1 209.1c2.9 2 6.5 6.9 7.4 14.1 1.8 10.6-1.8 29.2-2.8 31 .7-5.1 1.1-12.6-.6-21.4-1.9-10-1.1-19-4-23.7z" style="fill:url(#e)"/><linearGradient id="f" gradientUnits="userSpaceOnUse" x1="402.607" y1="800.61" x2="402.607" y2="745.81" gradientTransform="matrix(1 0 0 -1 0 1000.11)"><stop offset="0" style="stop-color:#8fc044"/><stop offset=".145" style="stop-color:#89bf45"/><stop offset=".338" style="stop-color:#7aba48"/><stop offset=".559" style="stop-color:#59b24b"/><stop offset=".798" style="stop-color:#25a94f"/><stop offset="1" style="stop-color:#08a651"/></linearGradient><path d="M395.3 254.3s13.9-34.3 10-54.8c8.5 6.5 3.1 28.6.5 35.3-2.6 6.7-10.5 19.5-10.5 19.5z" style="fill:url(#f)"/><linearGradient id="g" gradientUnits="userSpaceOnUse" x1="418.15" y1="776.002" x2="418.15" y2="741.395" gradientTransform="matrix(1 0 0 -1 0 1000.11)"><stop offset="0" style="stop-color:#8fc044"/><stop offset=".145" style="stop-color:#89bf45"/><stop offset=".338" style="stop-color:#7aba48"/><stop offset=".559" style="stop-color:#59b24b"/><stop offset=".798" style="stop-color:#25a94f"/><stop offset="1" style="stop-color:#08a651"/></linearGradient><path d="M401.6 258.7s9-25.8 14.5-29.7c8.3-5.9 18.6-4.9 18.6-4.9s-8.4 2.9-16.6 9.6c-6.8 5.7-13.2 14.2-16.5 25z" style="fill:url(#g)"/><linearGradient id="h" gradientUnits="userSpaceOnUse" x1="421.8" y1="760.342" x2="421.8" y2="737.207" gradientTransform="matrix(1 0 0 -1 0 1000.11)"><stop offset="0" style="stop-color:#8fc044"/><stop offset=".145" style="stop-color:#89bf45"/><stop offset=".338" style="stop-color:#7aba48"/><stop offset=".559" style="stop-color:#59b24b"/><stop offset=".798" style="stop-color:#25a94f"/><stop offset="1" style="stop-color:#08a651"/></linearGradient><path d="M406.9 262.9s3.3-18.3 9.9-21.3 19.9-1.6 19.9-1.6-18.9 2.8-22.6 7.7c-3.4 4.7-7.2 15.2-7.2 15.2z" style="fill:url(#h)"/></g><g><linearGradient id="i" gradientUnits="userSpaceOnUse" x1="548.818" y1="443.585" x2="548.818" y2="398.41" gradientTransform="matrix(1 0 0 -1 0 1000.11)"><stop offset="0" style="stop-color:#8fc044"/><stop offset=".145" style="stop-color:#89bf45"/><stop offset=".338" style="stop-color:#7aba48"/><stop offset=".559" style="stop-color:#59b24b"/><stop offset=".798" style="stop-color:#25a94f"/><stop offset="1" style="stop-color:#08a651"/></linearGradient><path d="M544.9 556.5c2.9 2 6.5 6.9 7.4 14.1 1.8 10.6-1.8 29.2-2.8 31 .7-5.1 1.1-12.6-.6-21.4-1.9-10-1.1-19-4-23.7z" style="fill:url(#i)"/><linearGradient id="j" gradientUnits="userSpaceOnUse" x1="561.407" y1="453.21" x2="561.407" y2="398.41" gradientTransform="matrix(1 0 0 -1 0 1000.11)"><stop offset="0" style="stop-color:#8fc044"/><stop offset=".145" style="stop-color:#89bf45"/><stop offset=".338" style="stop-color:#7aba48"/><stop offset=".559" style="stop-color:#59b24b"/><stop offset=".798" style="stop-color:#25a94f"/><stop offset="1" style="stop-color:#08a651"/></linearGradient><path d="M554.1 601.7s13.9-34.3 10-54.8c8.5 6.5 3.1 28.6.5 35.3-2.6 6.7-10.5 19.5-10.5 19.5z" style="fill:url(#j)"/><linearGradient id="k" gradientUnits="userSpaceOnUse" x1="576.95" y1="428.602" x2="576.95" y2="393.995" gradientTransform="matrix(1 0 0 -1 0 1000.11)"><stop offset="0" style="stop-color:#8fc044"/><stop offset=".145" style="stop-color:#89bf45"/><stop offset=".338" style="stop-color:#7aba48"/><stop offset=".559" style="stop-color:#59b24b"/><stop offset=".798" style="stop-color:#25a94f"/><stop offset="1" style="stop-color:#08a651"/></linearGradient><path d="M560.4 606.1s9-25.8 14.5-29.7c8.3-5.9 18.6-4.9 18.6-4.9s-8.4 2.9-16.6 9.6c-6.8 5.7-13.2 14.2-16.5 25z" style="fill:url(#k)"/><linearGradient id="l" gradientUnits="userSpaceOnUse" x1="580.6" y1="412.942" x2="580.6" y2="389.807" gradientTransform="matrix(1 0 0 -1 0 1000.11)"><stop offset="0" style="stop-color:#8fc044"/><stop offset=".145" style="stop-color:#89bf45"/><stop offset=".338" style="stop-color:#7aba48"/><stop offset=".559" style="stop-color:#59b24b"/><stop offset=".798" style="stop-color:#25a94f"/><stop offset="1" style="stop-color:#08a651"/></linearGradient><path d="M565.7 610.3s3.3-18.3 9.9-21.3 19.9-1.6 19.9-1.6-18.9 2.8-22.6 7.7c-3.4 4.7-7.2 15.2-7.2 15.2z" style="fill:url(#l)"/></g><g><linearGradient id="m" gradientUnits="userSpaceOnUse" x1="433.318" y1="345.785" x2="433.318" y2="300.61" gradientTransform="matrix(1 0 0 -1 0 1000.11)"><stop offset="0" style="stop-color:#8fc044"/><stop offset=".145" style="stop-color:#89bf45"/><stop offset=".338" style="stop-color:#7aba48"/><stop offset=".559" style="stop-color:#59b24b"/><stop offset=".798" style="stop-color:#25a94f"/><stop offset="1" style="stop-color:#08a651"/></linearGradient><path d="M429.4 654.3c2.9 2 6.5 6.9 7.4 14.1 1.8 10.6-1.8 29.3-2.8 31 .7-5.1 1.1-12.6-.6-21.4-1.9-10-1.1-19-4-23.7z" style="fill:url(#m)"/><linearGradient id="n" gradientUnits="userSpaceOnUse" x1="445.907" y1="355.41" x2="445.907" y2="300.61" gradientTransform="matrix(1 0 0 -1 0 1000.11)"><stop offset="0" style="stop-color:#8fc044"/><stop offset=".145" style="stop-color:#89bf45"/><stop offset=".338" style="stop-color:#7aba48"/><stop offset=".559" style="stop-color:#59b24b"/><stop offset=".798" style="stop-color:#25a94f"/><stop offset="1" style="stop-color:#08a651"/></linearGradient><path d="M438.6 699.5s13.9-34.3 10-54.8c8.5 6.5 3.1 28.6.5 35.3-2.6 6.7-10.5 19.5-10.5 19.5z" style="fill:url(#n)"/><linearGradient id="o" gradientUnits="userSpaceOnUse" x1="461.45" y1="330.802" x2="461.45" y2="296.195" gradientTransform="matrix(1 0 0 -1 0 1000.11)"><stop offset="0" style="stop-color:#8fc044"/><stop offset=".145" style="stop-color:#89bf45"/><stop offset=".338" style="stop-color:#7aba48"/><stop offset=".559" style="stop-color:#59b24b"/><stop offset=".798" style="stop-color:#25a94f"/><stop offset="1" style="stop-color:#08a651"/></linearGradient><path d="M444.9 703.9s9-25.8 14.5-29.7c8.3-5.9 18.6-4.9 18.6-4.9s-8.4 2.9-16.6 9.6c-6.8 5.7-13.2 14.2-16.5 25z" style="fill:url(#o)"/><linearGradient id="p" gradientUnits="userSpaceOnUse" x1="465.1" y1="315.142" x2="465.1" y2="292.007" gradientTransform="matrix(1 0 0 -1 0 1000.11)"><stop offset="0" style="stop-color:#8fc044"/><stop offset=".145" style="stop-color:#89bf45"/><stop offset=".338" style="stop-color:#7aba48"/><stop offset=".559" style="stop-color:#59b24b"/><stop offset=".798" style="stop-color:#25a94f"/><stop offset="1" style="stop-color:#08a651"/></linearGradient><path d="M450.2 708.1s3.3-18.3 9.9-21.3 19.9-1.6 19.9-1.6-18.9 2.8-22.6 7.7c-3.4 4.7-7.2 15.2-7.2 15.2z" style="fill:url(#p)"/></g><g><linearGradient id="q" gradientUnits="userSpaceOnUse" x1="755.718" y1="314.085" x2="755.718" y2="268.91" gradientTransform="matrix(1 0 0 -1 0 1000.11)"><stop offset="0" style="stop-color:#8fc044"/><stop offset=".145" style="stop-color:#89bf45"/><stop offset=".338" style="stop-color:#7aba48"/><stop offset=".559" style="stop-color:#59b24b"/><stop offset=".798" style="stop-color:#25a94f"/><stop offset="1" style="stop-color:#08a651"/></linearGradient><path d="M751.8 686c2.9 2 6.5 6.9 7.4 14.1 1.8 10.6-1.8 29.2-2.8 31 .7-5.1 1.1-12.6-.6-21.4-1.9-10-1.1-19-4-23.7z" style="fill:url(#q)"/><linearGradient id="r" gradientUnits="userSpaceOnUse" x1="768.307" y1="323.71" x2="768.307" y2="268.91" gradientTransform="matrix(1 0 0 -1 0 1000.11)"><stop offset="0" style="stop-color:#8fc044"/><stop offset=".145" style="stop-color:#89bf45"/><stop offset=".338" style="stop-color:#7aba48"/><stop offset=".559" style="stop-color:#59b24b"/><stop offset=".798" style="stop-color:#25a94f"/><stop offset="1" style="stop-color:#08a651"/></linearGradient><path d="M761 731.2s13.9-34.3 10-54.8c8.5 6.5 3.1 28.6.5 35.3-2.6 6.7-10.5 19.5-10.5 19.5z" style="fill:url(#r)"/><linearGradient id="s" gradientUnits="userSpaceOnUse" x1="783.85" y1="299.102" x2="783.85" y2="264.495" gradientTransform="matrix(1 0 0 -1 0 1000.11)"><stop offset="0" style="stop-color:#8fc044"/><stop offset=".145" style="stop-color:#89bf45"/><stop offset=".338" style="stop-color:#7aba48"/><stop offset=".559" style="stop-color:#59b24b"/><stop offset=".798" style="stop-color:#25a94f"/><stop offset="1" style="stop-color:#08a651"/></linearGradient><path d="M767.3 735.6s9-25.8 14.5-29.7c8.3-5.9 18.6-4.9 18.6-4.9s-8.4 2.9-16.6 9.6c-6.8 5.7-13.2 14.2-16.5 25z" style="fill:url(#s)"/><linearGradient id="t" gradientUnits="userSpaceOnUse" x1="787.5" y1="283.442" x2="787.5" y2="260.307" gradientTransform="matrix(1 0 0 -1 0 1000.11)"><stop offset="0" style="stop-color:#8fc044"/><stop offset=".145" style="stop-color:#89bf45"/><stop offset=".338" style="stop-color:#7aba48"/><stop offset=".559" style="stop-color:#59b24b"/><stop offset=".798" style="stop-color:#25a94f"/><stop offset="1" style="stop-color:#08a651"/></linearGradient><path d="M772.6 739.8s3.3-18.3 9.9-21.3 19.9-1.6 19.9-1.6-18.9 2.8-22.6 7.7c-3.4 4.7-7.2 15.2-7.2 15.2z" style="fill:url(#t)"/></g></svg>