<svg version="1.0" xmlns="http://www.w3.org/2000/svg" width="300" height="260" style="enable-background:new 0 0 300 260" xml:space="preserve"><style>.st0{display:none}.st1{display:inline}.st2{fill:#a9a8a8}.st3{fill:#c6c6c5}.st5{fill:none;stroke:#aaa8a8;stroke-width:3;stroke-miterlimit:10}</style><g id="Calque_36_-_copie"><g id="Calque_2_-_copie_4"><path id="XMLID_28_" class="st2" d="M278.5 205.5c-1.4-5.3-4.4-9.9-8.2-13.4l3.2-4.4-4.8-3.5-3.2 4.4c-4.5-2.6-9.8-4-15.3-3.7l-.8-5.3-5.8.9.8 5.3c-5.3 1.4-9.9 4.4-13.4 8.2l-4.4-3.2-3.5 4.8 4.4 3.2c-2.6 4.5-4 9.8-3.7 15.3l-5.3.8.9 5.8 5.3-.8c1.4 5.3 4.4 9.9 8.2 13.4l-3.2 4.4 4.8 3.5 3.2-4.4c4.5 2.6 9.8 4 15.3 3.7l.8 5.3 5.8-.9-.8-5.3c5.3-1.4 9.9-4.4 13.4-8.2l4.4 3.2 3.5-4.8-4.4-3.2c2.6-4.5 4-9.8 3.7-15.3l5.3-.8-.9-5.8-5.3.8zm-23.3 30.4c-12.8 2-24.9-6.7-26.9-19.5s6.7-24.9 19.5-26.9 24.9 6.7 26.9 19.5c2.1 12.9-6.6 24.9-19.5 26.9z"/><path id="XMLID_25_" class="st3" d="M247.9 189.5c-12.8 2-21.6 14.1-19.5 26.9 2 12.8 14.1 21.6 26.9 19.5 12.8-2 21.6-14.1 19.5-26.9-2.1-12.8-14.1-21.5-26.9-19.5zm6.2 39.1c-8.8 1.4-17-4.6-18.4-13.4-1.4-8.8 4.6-17 13.4-18.4 8.8-1.4 17 4.6 18.4 13.4 1.3 8.8-4.7 17-13.4 18.4z"/><radialGradient id="XMLID_124_" cx="251.554" cy="212.718" r="39.949" gradientTransform="rotate(-8.996 251.623 212.752)" gradientUnits="userSpaceOnUse"><stop offset="0" style="stop-color:#d6d5d5"/><stop offset=".321" style="stop-color:#d4d3d2"/><stop offset=".542" style="stop-color:#cccaca"/><stop offset=".732" style="stop-color:#bebdbd"/><stop offset=".903" style="stop-color:#acabab"/><stop offset="1" style="stop-color:#9f9e9e"/></radialGradient><path id="XMLID_22_" d="m292 212.5-1.9-12.1-9.5 1.5c-1.4-3.8-3.6-7.2-6.2-10.1l5.7-7.8-9.9-7.2-5.7 7.8c-3.6-1.6-7.5-2.6-11.6-2.8l-1.5-9.5-12.1 1.9 1.5 9.5c-3.8 1.4-7.2 3.6-10.1 6.2l-7.8-5.7-7.2 9.9 7.8 5.7c-1.6 3.6-2.6 7.5-2.8 11.6l-9.5 1.5 1.9 12.1 9.5-1.5c1.4 3.8 3.6 7.2 6.2 10.1l-5.7 7.8 9.9 7.2 5.7-7.8c3.6 1.6 7.5 2.6 11.6 2.8l1.5 9.5 12.1-1.9-1.5-9.5c3.8-1.4 7.2-3.6 10.1-6.2l7.8 5.7 7.2-9.9-7.8-5.7c1.6-3.6 2.6-7.5 2.8-11.6l9.5-1.5zm-38 15.4c-8.4 1.3-16.3-4.4-17.6-12.8-1.3-8.4 4.4-16.3 12.8-17.6 8.4-1.3 16.3 4.4 17.6 12.8s-4.4 16.3-12.8 17.6z" style="fill:url(#XMLID_124_);stroke:#414042;stroke-width:3;stroke-miterlimit:10"/><path id="XMLID_19_" class="st5" d="M248.3 192.2C237 194 229.2 204.6 231 216c1.8 11.3 12.5 19.1 23.8 17.3 11.3-1.8 19.1-12.5 17.3-23.8-1.8-11.4-12.5-19.1-23.8-17.3zm6 38.2c-9.7 1.5-18.9-5.1-20.4-14.8-1.5-9.7 5.1-18.9 14.8-20.4 9.7-1.5 18.9 5.1 20.4 14.8 1.6 9.7-5 18.8-14.8 20.4z"/></g><g id="Calque_2_-_copie_7"><path id="XMLID_16_" class="st2" d="M72 38.9c-1.4-5.3-4.4-9.9-8.2-13.4l3.2-4.4-4.8-3.5L59 22c-4.5-2.6-9.8-4-15.3-3.7l-.8-5.3-5.9.9.8 5.3c-5.3 1.4-9.9 4.4-13.4 8.2L20 24.2 16.6 29l4.4 3.2c-2.6 4.5-4 9.8-3.7 15.3l-5.3.8.9 5.8 5.3-.8c1.4 5.3 4.4 9.9 8.2 13.4l-3.2 4.4 4.8 3.5 3.2-4.4c4.5 2.6 9.8 4 15.3 3.7l.8 5.3 5.8-.9-.7-5.3c5.3-1.4 9.9-4.4 13.4-8.2l4.4 3.2 3.5-4.8-4.4-3.2c2.6-4.5 4-9.8 3.7-15.3l5.3-.8-.9-5.9-5.4.9zM48.8 69.4c-12.8 2-24.9-6.7-26.9-19.5S28.6 25 41.4 23s24.9 6.7 26.9 19.5c2.1 12.8-6.7 24.8-19.5 26.9z"/><path id="XMLID_10_" class="st3" d="M41.4 22.9c-12.8 2-21.6 14.1-19.5 26.9 2 12.8 14.1 21.6 26.9 19.5 12.8-2 21.6-14.1 19.5-26.9-2-12.8-14-21.5-26.9-19.5zM47.6 62c-8.8 1.4-17-4.6-18.4-13.4-1.4-8.8 4.6-17 13.4-18.4 8.8-1.4 17 4.6 18.4 13.4 1.4 8.8-4.6 17-13.4 18.4z"/><radialGradient id="XMLID_125_" cx="45.127" cy="46.126" r="39.949" gradientTransform="rotate(-8.996 45.14 46.134)" gradientUnits="userSpaceOnUse"><stop offset="0" style="stop-color:#d6d5d5"/><stop offset=".321" style="stop-color:#d4d3d2"/><stop offset=".542" style="stop-color:#cccaca"/><stop offset=".732" style="stop-color:#bebdbd"/><stop offset=".903" style="stop-color:#acabab"/><stop offset="1" style="stop-color:#9f9e9e"/></radialGradient><path id="XMLID_4_" d="m85.5 45.9-1.9-12.1-9.5 1.5c-1.4-3.8-3.6-7.2-6.2-10.1l5.7-7.8-9.9-7.2L58 18c-3.6-1.6-7.5-2.6-11.6-2.8l-1.5-9.5-12.1 1.9 1.5 9.5c-3.8 1.4-7.2 3.6-10.1 6.2l-7.8-5.7-7.2 9.9 7.8 5.7c-1.6 3.6-2.6 7.5-2.8 11.6l-9.5 1.5 1.9 12.1 9.5-1.5c1.4 3.8 3.6 7.2 6.2 10.1l-5.7 7.8 9.9 7.2 5.7-7.8c3.6 1.6 7.5 2.6 11.6 2.8l1.5 9.5 12.1-1.9-1.5-9.5c3.8-1.4 7.2-3.6 10.1-6.2l7.8 5.7 7.2-9.9-7.8-5.7c1.6-3.6 2.6-7.5 2.8-11.6l9.5-1.5zm-38 15.4c-8.4 1.3-16.3-4.4-17.6-12.8-1.3-8.4 4.4-16.3 12.8-17.6 8.4-1.3 16.3 4.4 17.6 12.8 1.4 8.4-4.4 16.3-12.8 17.6z" style="fill:url(#XMLID_125_);stroke:#414042;stroke-width:3;stroke-miterlimit:10"/><path id="XMLID_1_" class="st5" d="M41.9 25.6a20.74 20.74 0 0 0-17.3 23.8C26.4 60.7 37 68.5 48.4 66.7c11.3-1.8 19.1-12.5 17.3-23.8-1.8-11.4-12.5-19.1-23.8-17.3zm6 38.2C38.2 65.3 29 58.7 27.5 49c-1.5-9.8 5.1-19 14.8-20.5C52 27 61.2 33.6 62.7 43.3c1.6 9.8-5 18.9-14.8 20.5z"/></g></g></svg>