<svg version="1.0" xmlns="http://www.w3.org/2000/svg" viewBox="0 0 30 30" style="enable-background:new 0 0 30 30" xml:space="preserve"><style>.st0{fill:#fff}</style><g id="power_-_copie"><g id="power"><path id="XMLID_471_" class="st0" d="m6.9 18.4 3.7 3.7-2.4 2.4s-1.2 1.2-3-.6c-1.8-1.8-.6-3-.6-3l2.3-2.5z"/></g><g id="圖層_8_拷貝_1_"><path id="XMLID_15_" class="st0" d="m19.7 22.1 3.7-3.7 2.4 2.4s1.2 1.2-.6 3c-1.8 1.8-3 .6-3 .6l-2.5-2.3z"/><path id="XMLID_12_" class="st0" d="M22.4 16.3S11.5 5.3 11.3 5.2c-.3-.2-4.9 0-4.9 0v4.9l11.1 11.1-1.2 1.2 1.2 1.2 7.3-7.3-1.2-1.2-1.2 1.2zm-1.2 1.2-2.4 2.4L7.6 8.8V6.4H10l11.2 11.1z"/></g><g id="XMLID_9_"><path id="XMLID_11_" class="st0" d="M23.8 5.1h-4.9l-4.5 4.5 1.2 1.2 4.5-4.5h2.4v2.4l-4.4 4.4 1.3 1.2 4.4-4.4c.1-.2 0-4.8 0-4.8z"/><path id="XMLID_10_" class="st0" d="m15.8 18-1.2-1.2-3.1 3.1-2.4-2.4 3.1-3.1-1.2-1.2-3.1 3.1L6.5 15l-1.2 1.2 7.3 7.3 1.2-1.2-1.2-1.2s1.4-1.3 3.2-3.1z"/></g></g></svg>