<?xml version="1.0" encoding="utf-8"?>
<!-- Generator: Adobe Illustrator 19.0.0, SVG Export Plug-In . SVG Version: 6.00 Build 0)  -->
<svg version="1.0" xmlns="http://www.w3.org/2000/svg" xmlns:xlink="http://www.w3.org/1999/xlink" x="0px" y="0px"
	 viewBox="0 0 300 300" style="enable-background:new 0 0 300 300;" xml:space="preserve">
<style type="text/css">
	.st0{display:none;}
	.st1{display:inline;fill:#FDE2CB;}
	.st2{display:inline;fill:none;stroke:#010202;stroke-width:2;stroke-miterlimit:10;}
	.st3{fill:#FFFFFF;stroke:#000000;stroke-width:2;stroke-miterlimit:10;}
	.st4{fill:none;stroke:#000000;stroke-width:2;stroke-miterlimit:10;}
	.st5{fill:#86BCE7;}
	.st6{fill:#8E6425;stroke:#000000;stroke-width:2;stroke-miterlimit:10;}
	.st7{opacity:0.25;}
	.st8{fill:#FFFFFF;}
	.st9{display:inline;}
	.st10{fill:#CEA98A;}
	.st11{fill:#8E6425;}
	.st12{fill:none;}
</style>
<g id="Calque_36">
	<g id="Calque_7" class="st0">
		<path id="XMLID_38_" class="st1" d="M161.4,195.8l-6,0.3c-1,0.1-1.8-0.7-1.9-1.7l0,0c-0.1-1,0.7-1.8,1.7-1.9l6-0.3
			c1-0.1,1.8,0.7,1.9,1.7l0,0C163.1,194.9,162.3,195.8,161.4,195.8z"/>
		<path id="XMLID_39_" class="st2" d="M149.5,194.9c1.7-2.1,4.5-3,7.2-3.2s5.4,0,8-0.4"/>
	</g>
	<g id="Calque_7_-_copie" class="st0">
		<path id="XMLID_43_" class="st1" d="M161.4,195.8l-6,0.3c-1,0.1-1.8-0.7-1.9-1.7l0,0c-0.1-1,0.7-1.8,1.7-1.9l6-0.3
			c1-0.1,1.8,0.7,1.9,1.7l0,0C163.1,194.9,162.3,195.8,161.4,195.8z"/>
		<path id="XMLID_44_" class="st2" d="M148.5,193.3c3.3,0,5.5-1.3,8.2-1.6s5.4,0,8-0.4"/>
	</g>
	<g id="Calque_7_-_copie_2" class="st0">
		<path id="XMLID_53_" class="st1" d="M161.4,195.8l-6,0.3c-1,0.1-1.8-0.7-1.9-1.7l0,0c-0.1-1,0.7-1.8,1.7-1.9l6-0.3
			c1-0.1,1.8,0.7,1.9,1.7l0,0C163.1,194.9,162.3,195.8,161.4,195.8z"/>
		<path id="XMLID_54_" class="st2" d="M149.1,191.5c3.3,0,4.9,0.4,7.6,0.2s6.4,0,9.1,1.1"/>
	</g>
</g>
<g id="Calque_31">
	<g id="Calque_28">
		<path id="XMLID_1_" class="st3" d="M124.5,145.2c0,0-0.3,8.1,4.8,8.2c5.1,0.1,8.7,0,8.7,0s5.1-0.7,4.8-8.2H124.5z"/>
		<circle id="XMLID_6_" class="st4" cx="135.6" cy="148.3" r="2.7"/>
		<circle id="XMLID_8_" class="st5" cx="135.6" cy="148.3" r="2.7"/>
		<path id="XMLID_10_" class="st6" d="M142.8,140.7H125c-1.9,0-3.4,1.5-3.4,3.3v2.5c0,0.4,0.3,0.8,0.8,0.8h2.6h17.8h2.6
			c0.4,0,0.8-0.3,0.8-0.8V144C146.2,142.2,144.7,140.7,142.8,140.7z"/>
		<g id="XMLID_9_" class="st7">
			<path id="XMLID_11_" class="st8" d="M137.3,140.7c0,0.1,0,0.2,0.1,0.3c0.1,0.4,0.1,0.8,0.2,1.2c0,0.3,0.1,0.5,0,0.8
				c-0.1,0.4-0.4,0.6-0.7,0.9c-1,0.9-1.7,2.1-2,3.4h4.9c0-0.2,0-0.3,0-0.5c0-0.6-0.2-1.2,0.1-1.8c0.1-0.3,0.4-0.5,0.6-0.7
				c1-1,1.6-2.2,1.8-3.6H137.3z"/>
			<path id="XMLID_22_" class="st8" d="M129.7,147.3c0-0.1,0-0.2,0-0.3c0-0.3,0-0.5,0.1-0.8c0.1-0.3,0.3-0.6,0.6-0.8
				c1.1-1.2,2-2.6,2.7-4.1c0.1-0.2,0.1-0.3,0.2-0.5h-5.6c-0.1,0.2-0.1,0.5-0.2,0.7c-0.2,1.1-0.3,2.3-0.8,3.4
				c-0.2,0.5-0.6,0.9-0.9,1.4c-0.2,0.3-0.3,0.7-0.5,1H129.7z"/>
		</g>
		<path id="XMLID_2_" class="st4" d="M142.8,140.7H125c-1.9,0-3.4,1.5-3.4,3.3v2.4c0,0.5,0.4,0.9,0.9,0.9h2.5h17.8h2.5
			c0.5,0,0.9-0.4,0.9-0.9V144C146.2,142.2,144.7,140.7,142.8,140.7z"/>
	</g>
	<g id="Calque_28_-_copie_2">
		<path id="XMLID_29_" class="st3" d="M186.3,145.2c0,0,0.3,8.1-4.8,8.2c-5.1,0.1-8.7,0-8.7,0s-5.1-0.7-4.8-8.2H186.3z"/>
		<circle id="XMLID_28_" class="st4" cx="175.3" cy="148.3" r="2.7"/>
		<circle id="XMLID_27_" class="st5" cx="175.3" cy="148.3" r="2.7"/>
		<path id="XMLID_26_" class="st6" d="M168,140.7h17.8c1.9,0,3.4,1.5,3.4,3.3v2.5c0,0.4-0.3,0.8-0.8,0.8h-2.6H168h-2.6
			c-0.4,0-0.8-0.3-0.8-0.8V144C164.6,142.2,166.1,140.7,168,140.7z"/>
		<g id="XMLID_23_" class="st7">
			<path id="XMLID_25_" class="st8" d="M173.5,140.7c0,0.1,0,0.2-0.1,0.3c-0.1,0.4-0.1,0.8-0.2,1.2c0,0.3-0.1,0.5,0,0.8
				c0.1,0.4,0.4,0.6,0.7,0.9c1,0.9,1.7,2.1,2,3.4h-4.9c0-0.2,0-0.3,0-0.5c0-0.6,0.2-1.2-0.1-1.8c-0.1-0.3-0.4-0.5-0.6-0.7
				c-1-1-1.6-2.2-1.8-3.6H173.5z"/>
			<path id="XMLID_24_" class="st8" d="M181.2,147.3c0-0.1,0-0.2,0-0.3c0-0.3,0-0.5-0.1-0.8c-0.1-0.3-0.3-0.6-0.6-0.8
				c-1.1-1.2-2-2.6-2.7-4.1c-0.1-0.2-0.1-0.3-0.2-0.5h5.6c0.1,0.2,0.1,0.5,0.2,0.7c0.2,1.1,0.3,2.3,0.8,3.4c0.2,0.5,0.6,0.9,0.9,1.4
				c0.2,0.3,0.3,0.7,0.5,1H181.2z"/>
		</g>
		<path id="XMLID_7_" class="st4" d="M168,140.7h17.8c1.9,0,3.4,1.5,3.4,3.3v2.4c0,0.5-0.4,0.9-0.9,0.9h-2.5H168h-2.5
			c-0.5,0-0.9-0.4-0.9-0.9V144C164.6,142.2,166.1,140.7,168,140.7z"/>
	</g>
</g>
<g id="Calque_31_-_copie" class="st0">
	<g id="Calque_28_-_copie" class="st9">
		<path id="XMLID_21_" class="st10" d="M140.7,145.3c0.4,0.7,0.8,1.4,1.2,2c0.2,0.4,0.5,0.8,0.6,1.2c0.1,0.5,0.1,0.9,0.1,1.4
			c0,0.2,0,0.5-0.3,0.6c-0.1,0.1-0.3,0.1-0.5,0c-1.1-0.1-2.2-0.3-3.3-0.3c-2.3,0-4.7,0.5-6.8,1.4c-0.5,0.2-1.1,0.5-1.7,0.7
			c-0.2,0-0.3,0.1-0.5,0c-0.4-0.1-0.7-0.5-1-0.9c-0.3-0.4-0.5-1-0.2-1.4c0.2-0.2,0.5-0.3,0.7-0.5c0.4-0.4,0.3-1,0.4-1.5
			c0.1-0.6,0.5-1.1,1-1.4s1-0.6,1.6-0.7c1.3-0.4,2.6-0.5,3.9-0.7c1.7-0.2,3.5-0.4,5,0.4"/>
		<path id="XMLID_19_" d="M129.2,152.6c0.9-0.9,2.1-1.4,3.4-1.7c2.8-0.7,5.8-0.9,8.7-0.6c-1.2-1,1.7-0.6,2.7,0.8
			c0.1,0.1,0.2,0.3,0.1,0.4c-0.1,0.1-0.2,0.1-0.3,0.1c-0.8,0-1.5-0.1-2.3-0.1c-3.1-0.3-6.3-0.4-9.2,0.7c-1.2,0.5-2.5,1.2-3.7,0.8"/>
		<path id="XMLID_34_" class="st11" d="M142.8,140.7H125c-1.9,0-3.4,1.6-3.4,3.6v2.8c0,0.5,0.3,0.8,0.8,0.8h2.6l16.5,0.1
			c0.9,0,1.8,0.1,2.6,0.4l1.3,0.3c0.4,0.1,0.8-0.2,0.9-0.6l0.7-2.7C147.6,143.5,144.7,140.7,142.8,140.7z"/>
		<g id="XMLID_31_" class="st7">
			<path id="XMLID_33_" class="st8" d="M137.3,140.7c0,0.1,0,0.2,0.1,0.4c0.1,0.4,0.1,0.8,0.2,1.3c0,0.3,0.1,0.6,0,0.9
				c-0.1,0.4-0.4,0.7-0.7,1c-1,1-1.7,2.4-2,3.8l4.9,0c0-0.2,0-0.5,0-0.7c0-0.6-0.2-1.3,0.1-1.9c0.1-0.3,0.4-0.5,0.6-0.8
				c1-1,1.6-2.4,1.8-3.9H137.3z"/>
			<path id="XMLID_32_" class="st8" d="M129.7,147.8c0-0.1,0-0.2,0-0.4c0-0.3,0-0.6,0.1-0.8c0.1-0.3,0.3-0.6,0.6-0.9
				c1.1-1.3,2-2.8,2.7-4.5c0.1-0.2,0.1-0.4,0.2-0.6h-5.6c-0.1,0.3-0.1,0.5-0.2,0.8c-0.2,1.2-0.3,2.5-0.8,3.7c-0.2,0.5-0.6,1-0.9,1.5
				c-0.2,0.4-0.3,0.7-0.5,1.1H129.7z"/>
		</g>
		<path id="XMLID_20_" class="st12" d="M119.7,151.3C119.7,151.3,119.6,151.3,119.7,151.3"/>
		<path id="XMLID_5_" class="st4" d="M142.8,140.7H125c-1.9,0-3.4,1.6-3.4,3.6v2.8c0,0.5,0.3,0.8,0.8,0.8h2.6l16.5,0.1
			c0.9,0,1.8,0.1,2.6,0.4l1.3,0.3c0.4,0.1,0.8-0.2,0.9-0.6l0.7-2.7C147.6,143.5,144.7,140.7,142.8,140.7z"/>
	</g>
	<g id="Calque_28_-_copie_3" class="st9">
		<path id="XMLID_36_" class="st10" d="M170.9,145.1c-0.4,0.7-0.8,1.4-1.2,2c-0.2,0.4-0.5,0.8-0.6,1.2c-0.1,0.5-0.1,0.9-0.1,1.4
			c0,0.2,0,0.5,0.3,0.6c0.1,0.1,0.3,0.1,0.5,0c1.1-0.1,2.2-0.3,3.3-0.3c2.3,0,4.7,0.5,6.8,1.4c0.5,0.2,1.1,0.5,1.7,0.7
			c0.2,0,0.3,0.1,0.5,0c0.4-0.1,0.7-0.5,1-0.9c0.3-0.4,0.5-1,0.2-1.4c-0.2-0.2-0.5-0.3-0.7-0.5c-0.4-0.4-0.3-1-0.4-1.5
			c-0.1-0.6-0.5-1.1-1-1.4c-0.5-0.3-1-0.6-1.6-0.7c-1.3-0.4-2.6-0.5-3.9-0.7c-1.7-0.2-3.5-0.4-5,0.4"/>
		<path id="XMLID_42_" d="M181.5,152.6c-0.9-0.9-2.1-1.4-3.4-1.7c-2.8-0.7-5.8-0.9-8.7-0.6c1.2-1-1.7-0.6-2.7,0.8
			c-0.1,0.1-0.2,0.3-0.1,0.4c0.1,0.1,0.2,0.1,0.3,0.1c0.8,0,1.5-0.1,2.3-0.1c3.1-0.3,6.3-0.4,9.2,0.7c1.2,0.5,2.5,1.2,3.7,0.8"/>
		<path id="XMLID_41_" class="st11" d="M167.9,140.7h17.8c1.9,0,3.4,1.6,3.4,3.6v2.8c0,0.5-0.3,0.8-0.8,0.8h-2.6l-16.5,0.1
			c-0.9,0-1.8,0.1-2.6,0.4l-1.3,0.3c-0.4,0.1-0.8-0.2-0.9-0.6l-0.7-2.7C163.2,143.5,166,140.7,167.9,140.7z"/>
		<g id="XMLID_17_" class="st7">
			<path id="XMLID_30_" class="st8" d="M173.4,140.7c0,0.1,0,0.2-0.1,0.4c-0.1,0.4-0.1,0.8-0.2,1.3c0,0.3-0.1,0.6,0,0.9
				c0.1,0.4,0.4,0.7,0.7,1c1,1,1.7,2.4,2,3.8l-4.9,0c0-0.2,0-0.5,0-0.7c0-0.6,0.2-1.3-0.1-1.9c-0.1-0.3-0.4-0.5-0.6-0.8
				c-1-1-1.6-2.4-1.8-3.9H173.4z"/>
			<path id="XMLID_18_" class="st8" d="M181.1,147.8c0-0.1,0-0.2,0-0.4c0-0.3,0-0.6-0.1-0.8c-0.1-0.3-0.3-0.6-0.6-0.9
				c-1.1-1.3-2-2.8-2.7-4.5c-0.1-0.2-0.1-0.4-0.2-0.6h5.6c0.1,0.3,0.1,0.5,0.2,0.8c0.2,1.2,0.3,2.5,0.8,3.7c0.2,0.5,0.6,1,0.9,1.5
				c0.2,0.4,0.3,0.7,0.5,1.1H181.1z"/>
		</g>
		<path id="XMLID_16_" class="st12" d="M191.1,151.3C191.1,151.3,191.1,151.3,191.1,151.3"/>
		<path id="XMLID_12_" class="st4" d="M167.9,140.7h17.8c1.9,0,3.4,1.6,3.4,3.6v2.8c0,0.5-0.3,0.8-0.8,0.8h-2.6l-16.5,0.1
			c-0.9,0-1.8,0.1-2.6,0.4l-1.3,0.3c-0.4,0.1-0.8-0.2-0.9-0.6l-0.7-2.7C163.2,143.5,166,140.7,167.9,140.7z"/>
	</g>
</g>
</svg>
