<svg version="1.0" xmlns="http://www.w3.org/2000/svg" viewBox="0 0 300 300" style="enable-background:new 0 0 300 300" xml:space="preserve"><style>.st0{opacity:.1;fill:#fff}.st2{fill:#2a5594}.st3{fill:#020304}.st9{fill:#cea98a}.st10{fill:#fbcfa5}.st11{fill:#010202}.st13{fill:#8e6425}.st15{fill:none;stroke:#020304;stroke-width:5;stroke-miterlimit:10}.st16{opacity:.5}.st17{fill:#4f3819}.st25{fill:#fde2cb}.st26{fill:#cea98a;stroke:#000;stroke-width:3;stroke-miterlimit:10}.st27{fill:#18100b}.st29{display:none}.st30{display:inline}.st31,.st32{fill:#fff;stroke:#000;stroke-width:2;stroke-miterlimit:10}.st32{fill:none}.st33{fill:#86bce7}.st34{fill:#8e6425;stroke:#000;stroke-width:2;stroke-miterlimit:10}.st35{opacity:.25}.st36{fill:#fff}.st37{fill:none}.st39,.st40{display:inline;fill:#fde2cb}.st40{fill:none;stroke:#010202;stroke-width:2;stroke-miterlimit:10}.st43{opacity:.25;fill:#020304}</style><g id="Calque_1"><g id="Calque_12"><circle id="XMLID_86_" cx="152" cy="147.8" r="114.3"/><g id="Calque_5_1_"><path id="XMLID_130_" class="st0" d="M217.4 178.1c3.2-4.6 5.5-10.7 5.5-19.1 0-1.1 0-2.1-.1-3.2h1.5c2.1 0 4.4-.2 6.1-1.4 2.4-1.8 2.8-5 2.2-7.8-.7-3.3-2.6-6.4-5.2-8.7-1.5-1.3-3.5-2.4-5.5-2.1-1.6.2-2.8 1.2-4 2.2-.5-1-.9-1.9-1.4-2.8.1-.1.1-.2.2-.3.2-.5.4-1 .3-1.6-.1-.7-.6-1.2-1.1-1.7-3.3-3.5-5.1-7-7.4-10.1.5-.6 1-1.3 1.4-2 3.5-6.5 5.4-13.8 5.4-21.4 0-28.5-26.9-51.7-60.2-51.7S94.9 69.5 94.9 98.1c0 7.6 1.9 14.9 5.4 21.4.5.9 1.1 1.7 1.9 2.5-.1.2-.2.3-.4.5-2 2.8-3.8 5.9-6.7 9.1-.1.1-.2.2-.3.4-.3.4-.6.8-.7 1.3-.1.5 0 1.1.3 1.6.2.3.3.6.6.9.2.2.3.4.5.6-.3.6-.6 1.1-.8 1.7-1.3-1.2-2.6-2.2-4.3-2.5-2-.3-4 .8-5.5 2.1-2.7 2.3-4.5 5.4-5.2 8.7-.6 2.8-.2 6.1 2.2 7.8 1.7 1.3 4 1.4 6.1 1.4h1.8c-.1 1.1-.1 2.3-.1 3.5 0 7.5 1.8 13.1 4.5 17.5-15.3 7.6-29.3 18-41.3 30.6-19.4 20.3 75.3 55 75.3 55l14.5 3.4 29.2-4.1s102.6-35.2 82.5-55.7c-11.1-11.2-23.4-20.6-37-27.7z"/></g><g id="Calque_4_-_copie"><g id="Calque_14_-_copie"><path id="XMLID_175_" d="m99.2 251 58.4 11.1c11.9-4.5 107.2-32.7 92.9-50.7-24.1-30.3-58.3-49.2-96.3-49.2-38.8 0-73.7 19.7-97.8 51-13.6 17.7 33.3 29.3 42.8 37.8z"/><radialGradient id="XMLID_37_" cx="152.829" cy="215.516" r="65.026" gradientTransform="matrix(1.1726 0 0 1 -25.535 0)" gradientUnits="userSpaceOnUse"><stop offset="0" style="stop-color:#3864ae"/><stop offset="1" style="stop-color:#77bde9"/></radialGradient><path id="XMLID_174_" d="m152 262.1 55-11.1c11-13 49.9-18.2 37-35-22.3-29-54.3-47.1-89.9-47.1-36.8 0-69.8 19.4-92.2 50.2-11.7 16.2 63.9 43.6 90.1 43z" style="fill:url(#XMLID_37_)"/><g id="圖層_1_-_copie_1_"><path id="XMLID_186_" class="st2" d="M226.9 197.7c-2.2 2.4-3.9 4.3-4.3 4.9-2.4-.5-4.9-1-7.3-.2s-4.2 3.3-3.4 5.6c.4 1.1 1.2 1.9 1.9 2.8 2 2.8 1.9 6.8-.1 9.6-2.4 3.2-6.7 4.3-9.1 7.5-1.6 2.2-2 5.1-2.2 7.9-.1 1.2-.2 2.5.3 3.7s1.6 2.1 2.8 1.9c1.6-.2 2.3-2 3.2-3.3 1.4-1.9 4.4-3 6.2-1.4 2.9 2.7-1.3 7.5-.1 11.3.8 2.4 30.2-30.5 29.1-31.9-5.1-6.8-10.8-13-17-18.4z"/><path id="XMLID_185_" class="st2" d="M74 242.1c3-.3 5.5 3.9 8.2 2.7 1.9-.9 1.8-3.6 1.5-5.7-.4-2.1-.2-4.9 1.9-5.5.7-.2 1.4 0 2.2 0 2.4 0 4.8-2 4.8-4.4s-2.8-4.5-5-3.5c-.7.3-1.4.9-2.1.6-.4-.2-.6-.5-.8-.9-1.6-2.8-2.9-6.9-.3-8.8 2-1.5 5.1-.4 7-2 1.8-1.5 1.3-4.5-.1-6.3s-3.5-3-5.1-4.7c-1.5-1.7-2.5-3.8-2.8-6.1-.1-.5-.1-1 0-1.4C75.3 203 67.9 211 61.5 220c-7.3 9.8 10.4 22.3 12.5 22.1z"/><path id="XMLID_184_" class="st2" d="M200.4 257.1c-.8-.8-1.4-1.7-1.7-2.8-.6-2.2.5-5-1.1-6.6-2-2-5.7 0-8.1-1.4-2.2-1.3-2.6-4.8-5-5.5-2-.6-3.8 1.1-5.8 1.7-3 .9-6.3-.8-8.2-3.4-1-1.3-1.8-2.9-3.3-3.5-3.4-1.3-6.7 3.5-10.3 2.9-2.5-.4-4.4-3.3-7-2.9-2.3.4-3.2 3.3-3.5 5.6-.3 2.3-9.3-8.1-11.7-7.9-3.2.3-5.6-4.5-8.7-3.6-2.7.8-2.5 4.8-4.5 6.7-1.4 1.4-3.6 1.5-5.3 2.6-3.7 2.3-4 8.3-8 9.9-1.2.5-2.6.4-3.8.9-1.4.5-2.3 1.5-3 2.8-.9 1.5-1.4 3.4-1.7 5.2l-.4.5c.3 1.1 103.3 1.1 101.1-1.2z"/></g><path id="XMLID_173_" class="st3" d="M181.7 260c-15.6-16.4-25.4-33.9-25.4-33.9s-10.1 18.1-26.3 34.7c-5.3 5.4 57.1 4.9 51.7-.8z"/><path id="XMLID_172_" d="M178.8 259.8c-13.9-15.9-22.6-32.7-22.6-32.7s-9.4 18.2-24.3 34.6c-4.7 5.1 52 3.9 46.9-1.9z" style="fill:#333"/><path id="XMLID_171_" d="M171.7 261.4c-9.5-16.4-15.5-34.3-15.5-34.3s-6.2 18.5-16 35c-2.9 5 34.6 4.5 31.5-.7z" style="fill:#a5a3a3"/><g id="Calque_6_-_copie"><path id="XMLID_120_" class="st3" d="m156 221.1-42.4-9.7 14 12.3s10.9 6.9 16.6 9.9c7.1 3.7 12.1 18.9 12.1 18.9s4.3-14.9 11.4-18.6c5.6-3 16.9-10.2 16.9-10.2l14-11.8-42.6 9.2z"/><path id="XMLID_119_" d="m156 224.2-36.1-9.1 18.4 11.6s7.6 3.9 11.1 5.8c4.4 2.3 6.7 16.4 6.7 16.4s2.1-14.1 6.5-16.4c3.5-1.8 11.1-5.8 11.1-5.8l18-11.3-35.7 8.8z" style="fill:#848480"/><path id="XMLID_118_" d="m156 228.5-13.5-4.5 7.2 4.5s2.7 1.4 3.9 2.1c1.6.8 2.3 10.6 2.3 10.6s.8-9.7 2.3-10.6c1.2-.7 3.9-2.1 3.9-2.1l7.2-4.5-13.3 4.5z" style="fill:#cecece"/></g></g><g id="Calque_5_-_copie"><path id="XMLID_88_" d="M156.3 97.1h-.6c-21.8 0-59.2 29.5-59.2 62 0 23.2 17.3 26.9 22 36 10.3 19.9 10.2 22.6 37.5 22.6s27.2-2.7 37.5-22.6c4.7-9.1 22-12.8 22-36 0-32.5-37.4-62-59.2-62z" style="fill:none;stroke:#040506;stroke-width:8;stroke-miterlimit:10"/><path id="XMLID_87_" class="st9" d="M156.3 97.1h-.6c-21.8 0-59.2 29.5-59.2 62 0 23.2 17.3 26.9 22 36 10.3 19.9 10.2 22.6 37.5 22.6s27.2-2.7 37.5-22.6c4.7-9.1 22-12.8 22-36 0-32.5-37.4-62-59.2-62z"/><path id="XMLID_80_" class="st10" d="M155.7 97h-.5c-18.1 0-49.3 29.5-49.3 62 0 23.2 14.4 26.9 18.4 36 8.6 19.9 8.5 22.6 31.2 22.6s22.6-2.7 31.2-22.6c3.9-9.1 18.4-12.8 18.4-36-.1-32.5-31.3-62-49.4-62z"/><g id="Calque_13_-_copie"><path id="XMLID_114_" class="st11" d="M157.7 248.4c-13 0-24-8.8-27.8-20.8-1.2-3.9-1.5-8-1.1-12.1l1.5-15.4c.2-2.2.2-4.5-.1-6.7-.9-7.8-3.5-17.1.9-21.6 5.3-5.4 18.5-4.8 26.6-4.8 8 0 20.8-.3 26.1 5.2 3.7 3.8 2.9 7.7 2.1 12.5-.6 3.3-.7 6.6-.5 9.9l1.6 23.9c-.1 16.5-13.3 29.9-29.3 29.9z"/><path id="XMLID_113_" d="M157.7 245.3c-13.6 0-24.9-10.5-26.8-24.1-.3-2.2-.2-4.4.2-6.6 1.6-9.3 1.7-18.9.4-28.3-.7-5.3-.9-10.4 1.6-13 4.9-5.1 17.2-4.5 24.6-4.5 7.4 0 19.3-.3 24.2 4.8 4.7 4.9 1.5 10.6 1.2 17.9 0 .7 0 1.4.1 2.2l1.6 22.3c.1.7.1 1.4.1 2.1-.7 15.1-12.7 27.2-27.2 27.2z" style="fill:#66471e"/><path id="XMLID_112_" class="st13" d="M157.7 242.5c-13.6 0-24.9-10.1-26.8-23.2-.3-2.1-.2-4.3.2-6.4 1.6-9 1.7-18.2.4-27.2-.7-5.1-.9-10 1.6-12.5 4.9-4.9 17.2-4.3 24.6-4.3 7.4 0 19.3-.2 24.2 4.7 4.7 4.7 1.5 10.3 1.2 17.2 0 .7 0 1.4.1 2.1l1.6 21.5c.1.7.1 1.4.1 2.1-.7 14.4-12.7 26-27.2 26z"/><path id="XMLID_111_" d="M157.9 217.5c-3.4-3.8-7.9-6.5-11.6-10-5.9-5.6-9-13.8-8.1-21.9.6-5.5 2.9-10.7 3-16-1.9.4-3.7.9-5.2 1.6-1.2 9.1-1.5 18.4-.7 27.6.7 7.6 2 15.2 1.3 22.8-.3 3-.9 5.9-1.5 8.8 3 4.4 7.2 8 12.3 10 .5-.7.9-1.4 1.3-2.2 2.1-4.8 1.4-10.7-1.6-14.9 3.4 1 5 4.9 5.9 8.3.5 2.2 1 4.5 1.1 6.8.1 1.3.2 2.6.5 3.8 1 .1 2 .2 3 .2 3.2 0 6.2-.6 9.1-1.6-1.3-8.3-3.2-16.9-8.8-23.3z" style="opacity:.25;fill:#fff"/></g><g id="Calque_12_-_copie_2_1_"><path id="XMLID_161_" class="st15" d="M188.5 126.9c1.4 0 2.5.9 3.5 1.9 1.8 1.9 3.2 4.1 5 6.1 1.7 2 3.8 3.7 6.4 4.3s5.5-.5 6.6-2.9c.2-.5.3-1 .2-1.5-.1-.6-.5-1.1-1-1.6-5.2-5.9-6.4-11.7-13.2-15.6"/><path id="XMLID_160_" class="st13" d="M188.5 126.9c1.4 0 2.5.9 3.5 1.9 1.8 1.9 3.2 4.1 5 6.1 1.7 2 3.8 3.7 6.4 4.3s5.5-.5 6.6-2.9c.2-.5.3-1 .2-1.5-.1-.6-.5-1.1-1-1.6-5.2-5.9-6.4-11.7-13.2-15.6"/><g id="XMLID_157_" class="st16"><path id="XMLID_159_" class="st17" d="M192.8 122.2c.2-.1.5-.2.7-.3-.1 0-.1-.1-.2-.1l-.5.4z"/><path id="XMLID_158_" class="st17" d="M210.1 134.7c-.1-.6-.5-1.1-1-1.6-5.2-5.9-6.4-11.7-13.2-15.6l-1.3 1.6c-.2.9-.3 1.8-.9 2.4-.1.1-.2.2-.4.3 2.4 1.9 4.9 3.7 6.9 6 .6.7 1.1 1.4 1.7 2.1.7.9 1.3 1.7 2 2.6.9 1.1 1.7 2.2 2.7 3.3.6.7 1.3 1.4 2 2 .5-.4.9-.9 1.2-1.6.3-.4.4-.9.3-1.5z"/></g></g><g id="Calque_12_-_copie_2"><path id="XMLID_105_" class="st15" d="M122.2 126.9c-1.4 0-2.5.9-3.5 1.9-1.8 1.9-3.2 4.1-5 6.1-1.7 2-3.8 3.7-6.4 4.3s-5.5-.5-6.6-2.9c-.2-.5-.3-1-.2-1.5.1-.6.5-1.1 1-1.6 5.2-5.9 6.4-11.7 13.2-15.6"/><path id="XMLID_104_" class="st13" d="M122.2 126.9c-1.4 0-2.5.9-3.5 1.9-1.8 1.9-3.2 4.1-5 6.1-1.7 2-3.8 3.7-6.4 4.3s-5.5-.5-6.6-2.9c-.2-.5-.3-1-.2-1.5.1-.6.5-1.1 1-1.6 5.2-5.9 6.4-11.7 13.2-15.6"/><g id="XMLID_101_" class="st16"><path id="XMLID_103_" class="st17" d="M117.9 122.2c-.2-.1-.5-.2-.7-.3.1 0 .1-.1.2-.1l.5.4z"/><path id="XMLID_102_" class="st17" d="M100.5 134.7c.1-.6.5-1.1 1-1.6 5.2-5.9 6.4-11.7 13.2-15.6l1.3 1.6c.2.9.3 1.8.9 2.4.1.1.2.2.4.3-2.4 1.9-4.9 3.7-6.9 6-.6.7-1.1 1.4-1.7 2.1-.7.9-1.3 1.7-2 2.6-.9 1.1-1.7 2.2-2.7 3.3-.6.7-1.3 1.4-2 2-.5-.4-.9-.9-1.2-1.6-.3-.4-.4-.9-.3-1.5z"/></g></g><path id="XMLID_79_" d="M147.4 167c-1.4.7-2.9.9-3.5 2.7-.4 1.1-.5 3-.4 4.3 0 .4.1.8.3 1.1.2.3.4.4.7.5 1.3.5 2.6.7 3.8 1.1 3.1 1 6.1 3 9.2 2.5 2.8-.5 5.3-3 8.1-3.7.4-.1.8-.2 1.2-.5.6-.5.8-1.5.7-2.4-.1-.9 0-2.7-.4-3.5-.3-.6-1.1-.1-1.6-.5-.9-.8-2.1-.8-3.2-.9-4.8-.1-9.7-.3-14.5-.4" style="opacity:.4;fill:#503717"/><path id="XMLID_78_" d="M171.2 192.4c0 3.7-6.5 4.9-14.1 4.9-7.5 0-13.2-1.1-13.2-4.9 0-2.1 3.2-3.3 6.5-3.8 3.2-.5 4.5-1.9 7.8-1.9 2.6 0 3.8 1.7 7.6 2.1 4 .5 5.4 1.2 5.4 3.6z" style="fill:none;stroke:#010202;stroke-width:5;stroke-miterlimit:10"/><path id="XMLID_77_" class="st10" d="M171.2 192.4c0 3.7-6.5 4.9-14.1 4.9-7.5 0-13.2-1.1-13.2-4.9 0-2.1 3.2-3.3 6.5-3.8 3.2-.5 4.5-1.9 7.8-1.9 2.6 0 3.8 1.7 7.6 2.1 4 .5 5.4 1.2 5.4 3.6z"/><g id="Calque_9_-_copie"><path id="XMLID_97_" class="st11" d="M195.3 127c3.6 0 6.9-2 8.5-5.2 3.1-6.1 4.8-13 4.8-20.2 0-26.9-24-48.7-53.6-48.7s-53.6 21.8-53.6 48.7c0 7.2 1.7 14 4.8 20.2 1.6 3.2 4.9 5.2 8.5 5.2h80.6z"/><radialGradient id="XMLID_40_" cx="154.951" cy="-16171.993" r="43.466" gradientTransform="matrix(1 0 0 -1 0 -16082)" gradientUnits="userSpaceOnUse"><stop offset="0" style="stop-color:#3864ae"/><stop offset="1" style="stop-color:#77bde9"/></radialGradient><path id="XMLID_96_" d="M193 124.9c3.4 0 6.5-1.9 8-4.9 2.9-5.8 4.5-12.2 4.5-19 0-25.4-22.6-45.9-50.6-45.9s-50.6 20.6-50.6 45.9c0 6.8 1.6 13.2 4.5 19 1.5 3 4.6 4.9 8 4.9H193z" style="fill:url(#XMLID_40_)"/><g id="圖層_1_-_copie"><path id="XMLID_147_" class="st2" d="M110.2 79.7c0 .3.2.6-.1.9-.1.1-.3.2-.4.2h-.1c-3.3 6.1-5.2 13-5.2 20.3 0 5.3 1 10.3 2.8 15 .7.1 1.4.1 2-.2.9-.5 1.2-1.7 1.1-2.8-.1-1.5-.5-3-1.2-4.3-.2-.3-.4-.7-.5-1.1-.1-.9.7-1.6 1.6-1.9.8-.3 1.8-.3 2.6-.7.8-.4 1.5-1.3 1.1-2.1-.1-.3-.4-.5-.5-.8-.4-.9.5-1.8 1.4-2.2.8-.5 1.9-1.1 1.7-2.1-.1-.9-1.1-1.3-1.5-2-.8-1.1-.1-2.8 1-3.6.3-.2.8-.5 1-.8.4-.8-.2-1.7-.9-2.3-.7-.6-1.4-1.4-1.2-2.2.3-1.2 2.2-1.6 2.1-2.8-.1-.9-1.2-1.2-2-1.3-.9-.1-1.9-.6-1.9-1.4 0-.3.2-.6.3-.8.3-.9-.1-2.1-1.1-2.4-.4-.1-.8-.1-1.2.1-.4.4-.7.8-.9 1.3z"/><path id="XMLID_146_" class="st2" d="M123.2 65.5c-.1.5-.3 1-.4 1.5-.1.8.3 1.7.9 2.1.7.4 1.6.4 2.3-.1.4-.3.7-.7 1.1-1 1-.6 2.2-.1 3.2.3 0 1 0 2.1.4 2.9.5.9 1.6 1.5 2.5 1 .4-.2.7-.6 1-1 1-1 2.6-1.3 3.8-.7 1.4.7 2.2 2.4 3.7 3.1 1 .5 2.2.4 3.3.3.5-.1 1-.1 1.5-.4.4-.3.7-.8.6-1.3-.2-.6-1-.8-1.6-1.1-.9-.4-1.5-1.6-1-2.4.9-1.3 3.1 0 4.5-.8.9-.5 1.2-1.7 1.1-2.8-.1-1.5-.5-3-1.2-4.3-.2-.3-.4-.7-.5-1.1-.1-.9.7-1.6 1.6-1.9.8-.3 1.8-.3 2.6-.7.8-.4 1.5-1.3 1.1-2.1 0-.1-.1-.2-.2-.3-11.5.3-22.1 4-30.4 10.2.1.4.1.5.1.6z"/><path id="XMLID_145_" class="st2" d="M167 56.4v.3c.2 1.1 1.8 1.3 2.4 2.2.5.6.4 1.6.7 2.3.7 1.6 3.1 2.1 3.5 3.8.1.5 0 1.1.1 1.6.3 1.3 1.7 1.9 2.9 2.4l.2.2c.5 0 .8.6.7 1.1-.1.5-.3 1-.4 1.5-.1.8.3 1.7.9 2.1.7.4 1.6.4 2.3-.1.4-.3.7-.7 1.1-1 1-.6 2.2-.1 3.2.3 0 1 0 2.1.4 2.9.5.9 1.6 1.5 2.5 1 .4-.2.7-.6 1-1 1-1 2.6-1.3 3.8-.7 1.4.7 2.2 2.4 3.7 3.1.9.4 2 .4 3.1.3-6.6-11-18.2-19.3-32.1-22.3z"/><path id="XMLID_144_" class="st2" d="M203 86.6c-.1.1-.1.2-.2.2-.8.7-2.2.4-2.8 1.2-.5.7-.1 1.6-.1 2.5 0 1.3-1.2 2.3-2.4 2.7-.6.2-1.4.3-1.8.8-1 1.1.5 3-.2 4.4-.5.9-1.9 1.3-2 2.3-.2 1 .8 1.7 1.7 2.1.9.4 1.9 1.1 1.8 2-.1 1.3-2.2 2-2 3.3.2 1.1 1.8 1.3 2.4 2.2.5.6.4 1.6.7 2.3.7 1.6 3.1 2.1 3.5 3.8.1.5 0 1.1.1 1.6 0 .1.1.2.1.3 2.4-5.3 3.7-11.2 3.7-17.3 0-5-.9-9.9-2.5-14.4z"/></g><path id="XMLID_91_" class="st0" d="M177.1 71.8c24 13.5 32.1 31.9 20.6 53.7 11.6-22 10.4-47.4-16.6-62.6-24.3-13.7-52.3-6.1-68.8 13.2 16.5-19.2 40.5-18 64.8-4.3z"/><path id="XMLID_90_" d="M180.5 67.6c24 13.5 28.7 36.1 17.3 57.8 11.6-22 10.4-47.4-16.6-62.6-24.3-13.7-52.3-6.1-68.8 13.2 16.4-19.1 43.7-22 68.1-8.4z" style="opacity:.2;fill:#fff"/></g><g id="Calque_8_-_copie"><path id="XMLID_136_" class="st11" d="M108.8 124.5c6.9 3.5 22.3 12.7 45.6 12.7 23 0 38-8.9 45.1-12.5-10.6-6.3-24.8-1.6-45-1.6-20.4-.1-35-5.4-45.7 1.4z"/><path id="XMLID_135_" d="M114.7 124.5c5.5 2.8 21.2 9.9 39.8 9.9 18.3 0 33.9-6.9 39.5-9.8-9.1-4.1-23.4.1-39.5.1-16.3 0-30.8-4.6-39.8-.2z" style="fill:#828282"/><linearGradient id="XMLID_45_" gradientUnits="userSpaceOnUse" x1="154.336" y1="-16206.554" x2="154.336" y2="-16213.452" gradientTransform="matrix(1 0 0 -1 0 -16082)"><stop offset="0" style="stop-color:#fff;stop-opacity:0"/><stop offset="1" style="stop-color:#fff"/></linearGradient><path id="XMLID_134_" d="M124.3 126c4.2 2.1 16.3 5.4 30.4 5.4 13.9 0 25.4-3.2 29.7-5.4-6.9-3.1-17.7 0-30 0-12.3.1-23.3-3.3-30.1 0z" style="opacity:.5;fill:url(#XMLID_45_)"/></g><g id="Calque_10_-_copie"><path id="XMLID_75_" d="M149.8 156.5c-.1 1.8-.3 3.6-.6 5.4 0 .2-.1.5-.2.7-.2.7-.8 1.1-1.4 1.6-1.3 1.1-2.5 2.3-3 3.9s0 3.6 1.4 4.4c.5.3 1.2.5 1.8.6 1.1.2 2.3.4 3.5.4.3 0 .6 0 .8.1.5.1.9.3 1.3.5 1.8.9 4 1.1 5.9.2.6-.3 1.2-.7 1.8-1 .9-.4 1.9-.6 2.8-.9.9-.3 1.8-.9 2.2-1.9.2-.4.2-.9.2-1.3 0-.6 0-1.3-.4-1.8-.3-.4-.7-.7-1.1-.9l-1.8-1.2c-.5-.3-.9-.6-1.3-1-.9-.9-1.3-2.1-1.5-3.3-.2-1.2-.1-2.5 0-3.7.1-1.3.2-2.5.3-3.8" style="fill:#fbcfa5;stroke:#000;stroke-width:2;stroke-miterlimit:10"/><ellipse id="XMLID_74_" transform="rotate(37.307 122.062 161.632)" class="st25" cx="122.1" cy="161.6" rx="5.9" ry="3.7"/><ellipse id="XMLID_73_" transform="rotate(142.693 187.197 160.736)" class="st25" cx="187.2" cy="160.7" rx="5.9" ry="3.7"/><ellipse id="XMLID_72_" transform="rotate(142.693 149.797 167.965)" class="st25" cx="149.8" cy="168" rx="3.6" ry="2.2"/></g><g id="Calque_30"><path id="XMLID_68_" class="st26" d="M101.7 155.3c-2.2.4-4.4.6-6.7.6-1.9 0-4-.2-5.5-1.4-2.1-1.7-2.5-4.8-1.9-7.4.6-3.1 2.3-6.1 4.7-8.2 1.3-1.2 3.1-2.2 4.9-2 3 .4 4.6 4.1 7.5 5.1"/><path id="XMLID_67_" class="st26" d="M210 155.5c2.2.4 4.4.6 6.7.6 1.9 0 4-.2 5.5-1.4 2.1-1.7 2.5-4.8 1.9-7.4-.6-3.1-2.3-6.1-4.7-8.2-1.3-1.2-3.1-2.2-4.9-2-3 .4-4.6 4.1-7.5 5.1"/><path id="XMLID_66_" class="st27" d="M94.9 150.5c.3.4-.3 1-.7.6-1.2-.9-2.1-2.4-1.2-4.8 1.4-3.5 3.8-4 5.6-3.5.6.1.9.8 0 1-1.3.4-3 1.1-3.5 2-.1.1.2.5.6.8.3.3.3.7-.2.8-.4.1-.9.2-.9.3-.3.4-.7 1.4.3 2.8z"/><path id="XMLID_65_" class="st27" d="M217.5 151.2c-.3.4.3 1 .7.6 1.2-.9 2.1-2.4 1.2-4.8-1.4-3.5-3.8-4-5.6-3.5-.6.1-.9.8 0 1 1.3.4 3 1.1 3.5 2 .1.1-.2.5-.6.8-.3.3-.3.7.2.8.4.1.9.2.9.3.3.4.7 1.3-.3 2.8z"/></g><path id="XMLID_69_" style="fill:#fff;stroke:#14283f;stroke-width:3;stroke-miterlimit:10" d="m153.9 80.6 4.2 12.9h13.6l-11 8 4.2 12.9-11-8-11 8 4.2-12.9-11-8h13.6z"/></g></g><circle id="XMLID_4_" cx="152" cy="147.8" r="114.3" style="fill:none;stroke:#0b0b0c;stroke-width:19;stroke-miterlimit:10"/><circle id="XMLID_195_" cx="152" cy="147.8" r="114.3" style="fill:none;stroke:#ddd;stroke-width:6;stroke-miterlimit:10"/></g></g><g id="Calque_5"><path id="XMLID_59_" class="st43" d="m239.3 68 28.5 8.3c3.1.9 13.5 2.7 15.5.3 1.2-1.4-7.4-8.2-8.9-9.1l-9.1-7.1c-2.4-2.5-4-4.8 1-7.1l9.2-1.3c6.9-.8 15.2-.4 14.9-2.2-.4-3.1-10.1-4.8-13.2-5.7l-28.5-8.3c-5.7-1.7-11.8 1.9-13.6 7.9l-3 10.5c-.9 3.1-2.7 7.4-1.3 10 1.3 2.2 5.8 3 8.5 3.8z"/><radialGradient id="XMLID_46_" cx="255.99" cy="-16132.533" r="26.013" gradientTransform="matrix(1 0 0 -1 0 -16082)" gradientUnits="userSpaceOnUse"><stop offset="0" style="stop-color:#77bde9"/><stop offset="1" style="stop-color:#3864ae"/></radialGradient><path id="XMLID_60_" d="m235 62 28.5 8.3c3.1.9 13.5 2.7 15.5.3 1.2-1.4-7.4-8.2-8.9-9.1l-9.1-7.1c-2.4-2.5-4-4.8 1-7.1l9.2-1.3c6.9-.8 15.2-.4 14.9-2.2-.4-3.1-10.1-4.8-13.2-5.7l-28.5-8.3c-5.7-1.7-11.8 1.9-13.6 7.9l-3 10.5c-.9 3.1-2.7 7.4-1.3 10 1.3 2.2 5.8 3 8.5 3.8z" style="fill:url(#XMLID_46_);stroke:#164383;stroke-width:3;stroke-miterlimit:10"/><path id="XMLID_62_" class="st43" d="m60.7 67-28.5 8.3c-3.1.9-13.5 2.7-15.5.3-1.2-1.4 7.4-8.2 8.9-9.1l9.1-7.1c2.4-2.5 4-4.8-1-7.1L24.6 51c-6.9-.8-15.2-.4-14.9-2.2.4-3.1 10.1-4.8 13.2-5.7l28.5-8.3c5.7-1.7 11.8 1.9 13.6 7.9l3 10.5c.9 3.1 2.7 7.4 1.3 10-1.4 2.3-5.9 3-8.6 3.8z"/><radialGradient id="XMLID_47_" cx="518.775" cy="49.562" r="26.013" gradientTransform="matrix(-1 0 0 1 562.785 0)" gradientUnits="userSpaceOnUse"><stop offset="0" style="stop-color:#77bde9"/><stop offset="1" style="stop-color:#3864ae"/></radialGradient><path id="XMLID_61_" d="m65 61-28.5 8.3c-3.1.9-13.4 2.7-15.5.3-1.2-1.4 7.4-8.2 8.9-9.1l9.1-7.1c2.4-2.5 4-4.8-1-7.1L28.9 45c-6.9-.8-15.2-.4-14.9-2.3.4-3.1 10.1-4.8 13.2-5.7l28.5-8.3c5.7-1.7 11.8 1.9 13.6 7.9l3 10.5c.9 3.1 2.7 7.4 1.3 10-1.4 2.4-5.9 3.1-8.6 3.9z" style="fill:url(#XMLID_47_);stroke:#164383;stroke-width:3;stroke-miterlimit:10"/><g id="XMLID_58_" class="st35"><path id="XMLID_52_" class="st3" d="M236 56.5c-56-15.8-115.3-15.8-171.3 0-6.4 1.8-13.4-1.6-15.5-7.8-1.4-4.4-2.9-8.9-4.3-13.3-2.1-6.3 2.1-13.3 9.5-15.4 62.8-17.7 129.2-17.7 192 0 7.3 2.1 11.5 9.2 9.5 15.4-1.4 4.4-2.9 8.9-4.3 13.3-2.2 6.2-9.1 9.6-15.6 7.8z"/></g><g id="XMLID_55_"><radialGradient id="XMLID_48_" cx="150.37" cy="27.474" r="77.022" gradientUnits="userSpaceOnUse"><stop offset="0" style="stop-color:#77bde9"/><stop offset="1" style="stop-color:#3864ae"/></radialGradient><path id="XMLID_15_" d="M236.6 51.5c-56.4-15.9-116.1-15.9-172.5 0-6.4 1.8-13.4-1.6-15.5-7.8l-3.9-12c-2.1-6.3 2.1-13.3 9.4-15.4 62.9-17.8 129.5-17.8 192.4 0 7.3 2.1 11.5 9.1 9.4 15.4l-3.9 12c-2 6.2-8.9 9.6-15.4 7.8z" style="fill:url(#XMLID_48_)"/><path id="XMLID_14_" d="M236.6 51.5c-56.4-15.9-116.1-15.9-172.5 0-6.4 1.8-13.4-1.6-15.5-7.8l-3.9-12c-2.1-6.3 2.1-13.3 9.4-15.4 62.9-17.8 129.5-17.8 192.4 0 7.3 2.1 11.5 9.1 9.4 15.4l-3.9 12c-2 6.2-8.9 9.6-15.4 7.8z" style="fill:none;stroke:#164383;stroke-width:3;stroke-miterlimit:10"/></g><g id="XMLID_3_"><g id="XMLID_336_"><path id="XMLID_379_" class="st36" d="M68.9 25.2c.6 4.5 1.3 9 2 13.6-1.8.5-3.5 1.1-5.3 1.6-2-4.1-4.1-8.2-6.2-12.3 1.3-.4 2.6-.8 3.8-1.2 1.6 3.4 2.8 6.4 3.7 8.8-.6-2.6-1.1-4.8-1.4-6.8-.2-.8-.3-1.7-.5-2.5 1.3-.5 2.6-.8 3.9-1.2z"/><path id="XMLID_376_" class="st36" d="M75.8 23.3c1.8 4.2 3.7 8.4 5.4 12.6l-3.6.9c-.3-.8-.5-1.5-.8-2.3-.4.1-.8.2-1.3.3.1.8.3 1.6.4 2.4-1.2.3-2.4.7-3.6 1-.7-4.5-1.3-9-1.9-13.6 1.9-.4 3.6-.9 5.4-1.3zm.3 8.9c-.6-1.4-1.3-3.2-2-5.4.3 2.6.6 4.5.8 5.7l1.2-.3z"/><path id="XMLID_374_" class="st36" d="M86.8 20.6c1 4.4 2 8.8 2.9 13.2-1 .2-2.1.5-3.1.7-1.1-1.9-2.2-3.7-3.3-5.6.5 2 1 4 1.4 6-1 .2-2 .5-2.9.7l-3.3-13.2c1-.3 2.1-.5 3.1-.8 1.2 1.8 2.3 3.6 3.5 5.5-.5-2-.9-4-1.4-5.9 1-.1 2-.3 3.1-.6z"/><path id="XMLID_371_" class="st36" d="M99.2 31.9c.1.5.2 1.1.3 1.6-.9.2-1.8.3-2.7.5-.6.1-1.1.2-1.4.1-.3 0-.5-.2-.6-.3-.1-.2-.2-.5-.3-1-.8.1-1.5.1-2.2-.2-.7-.3-1.1-.7-1.5-1.2-.3-.6-.6-1.4-.9-2.6-.3-1.4-.6-2.7-.9-4.1-.2-.9-.3-1.6-.3-2.1s.1-1 .4-1.5c.3-.5.7-.9 1.2-1.2.5-.3 1.1-.6 1.8-.7.8-.2 1.6-.2 2.3 0 .7.1 1.2.4 1.6.7.4.3.7.7.9 1.1.2.4.3 1.1.5 1.9.3 1.4.5 2.9.8 4.3.2 1.2.3 2 .3 2.4 0 .4-.2.8-.5 1.1-.3.3-.7.6-1.2.8.1.3.2.5.3.5.1.1.4 0 .8 0 .5.1.9 0 1.3-.1zm-5.5-9.2c-.1-.6-.2-1-.3-1.2-.1-.2-.3-.2-.5-.2s-.3.1-.4.3c-.1.2 0 .6.1 1.3.4 2.1.8 4.1 1.3 6.2.2.8.3 1.2.4 1.4.1.2.3.2.5.2s.4-.2.4-.4 0-.7-.2-1.5c-.5-2-.9-4-1.3-6.1z"/><path id="XMLID_369_" class="st36" d="M106.6 16.9c.5 3 .9 6 1.4 9 .2 1 .2 1.7.2 2.2 0 .4-.1.9-.4 1.4-.3.5-.7.9-1.2 1.2-.5.3-1.1.5-1.9.6-.8.1-1.6.1-2.2 0-.7-.2-1.2-.4-1.6-.8-.4-.4-.7-.8-.8-1.2-.1-.5-.3-1.4-.6-2.9-.5-2.6-1-5.3-1.4-7.9 1.2-.2 2.5-.4 3.7-.7.6 3.3 1.1 6.7 1.7 10 .1.6.2 1 .3 1.1.1.2.2.2.4.2s.4-.2.4-.3c0-.2 0-.6-.1-1.3-.5-3.3-1.1-6.6-1.6-9.9 1.2-.3 2.4-.5 3.7-.7z"/><path id="XMLID_367_" class="st36" d="M111.8 16.2c.6 4.5 1.2 9 1.8 13.4-1.2.2-2.4.3-3.6.5-.7-4.5-1.3-8.9-2-13.4 1.3-.2 2.5-.3 3.8-.5z"/><path id="XMLID_365_" class="st36" d="M121.6 19.2c-1.1.1-2.3.2-3.4.4 0-.3-.1-.7-.1-1-.1-.5-.1-.8-.2-.9-.1-.1-.3-.2-.5-.1-.2 0-.4.1-.5.3-.1.2-.1.5-.1.8.1.4.2.8.3 1 .1.2.5.4 1.1.7 1.7.7 2.8 1.4 3.3 1.9.5.6.8 1.5.9 2.8.1 1 .1 1.7-.1 2.2-.2.5-.6.9-1.2 1.3s-1.4.6-2.2.7c-1 .1-1.8 0-2.5-.2-.7-.3-1.2-.7-1.5-1.2-.3-.5-.5-1.3-.6-2.3 0-.3-.1-.6-.1-.9 1.1-.1 2.2-.3 3.4-.4.1.5.1 1.1.2 1.6s.1.8.3 1c.1.1.3.2.5.2s.4-.1.5-.3c.1-.2.1-.5.1-.8-.1-.8-.3-1.3-.5-1.5-.3-.2-.9-.6-1.8-1l-2-1c-.3-.2-.6-.6-.9-1-.3-.4-.4-1-.5-1.7-.1-1-.1-1.8.1-2.3.2-.5.6-.9 1.2-1.3.6-.3 1.3-.6 2.2-.7 1-.1 1.8-.1 2.5.2.7.2 1.2.5 1.5 1 .3.4.5 1.2.6 2.2v.3z"/><path id="XMLID_363_" class="st36" d="m131.3 14.2.9 13.5-3.6.3c-.2-1.9-.3-3.8-.5-5.7-.4 0-.7.1-1.1.1.2 1.9.3 3.8.5 5.7l-3.6.3c-.4-4.5-.9-9-1.3-13.5 1.3-.1 2.5-.2 3.8-.3.1 1.6.3 3.2.4 4.8.4 0 .7-.1 1.1-.1-.1-1.6-.3-3.2-.4-4.8 1.3-.1 2.6-.2 3.8-.3z"/><path id="XMLID_361_" class="st36" d="M143.6 13.7c0 .9 0 1.8.1 2.7-.7 0-1.5 0-2.2.1.1 3.6.2 7.2.4 10.8-1.2 0-2.4.1-3.6.1-.2-3.6-.3-7.2-.5-10.8-.7 0-1.5.1-2.2.1 0-.9-.1-1.8-.1-2.7 2.6-.1 5.4-.2 8.1-.3z"/><path id="XMLID_359_" class="st36" d="M153.1 13.6c0 4.5-.1 9-.1 13.6h-3.6v-5.7h-1.1c0 1.9 0 3.8.1 5.7-1.2 0-2.4 0-3.6.1-.1-4.5-.2-9-.3-13.6 1.3 0 2.5 0 3.8-.1v4.9h1.1v-4.9h3.7z"/><path id="XMLID_357_" class="st36" d="M154.6 13.6c2.1 0 4.2.1 6.3.1 0 .9-.1 1.8-.1 2.7-.8 0-1.7-.1-2.5-.1 0 .9 0 1.7-.1 2.6.8 0 1.5 0 2.3.1 0 .9-.1 1.7-.1 2.6-.8 0-1.5 0-2.3-.1 0 1 0 2-.1 3 .9 0 1.8 0 2.7.1 0 .9-.1 1.8-.1 2.7-2.1-.1-4.2-.1-6.2-.1.1-4.5.2-9.1.2-13.6z"/><path id="XMLID_353_" class="st36" d="M165.5 13.9c1.3.1 2.5.1 3.8.2 1.2.1 2.1.2 2.7.4.6.2 1.1.6 1.4 1.2.3.6.5 1.4.4 2.6-.1.8-.2 1.3-.5 1.6-.3.3-.8.5-1.6.6.8.2 1.4.6 1.7 1 .3.4.4 1.1.3 2 0 .4-.1.8-.1 1.3-.1.9-.2 1.6-.5 2-.2.4-.6.7-1.1.8-.5.1-1.4.1-2.9 0-1.4-.1-2.8-.2-4.2-.2.1-4.4.4-8.9.6-13.5zm3.6 2.6c-.1 1-.1 2-.2 3h.4c.4 0 .6 0 .7-.2.1-.2.2-.6.2-1.4 0-.4 0-.7-.1-.9-.1-.2-.2-.3-.3-.3-.1-.2-.3-.2-.7-.2zm-.3 5.1c-.1 1.3-.2 2.5-.2 3.8.5 0 .8 0 1-.2.1-.1.2-.5.3-1 0-.4.1-.8.1-1.3 0-.6 0-.9-.1-1.1-.2-.1-.6-.2-1.1-.2z"/><path id="XMLID_351_" class="st36" d="M179.3 15c-.3 3.6-.7 7.2-1 10.8.7.1 1.5.1 2.2.2l-.3 2.7c-1.9-.2-3.8-.4-5.8-.5.4-4.5.8-9 1.1-13.5 1.3 0 2.6.1 3.8.3z"/><path id="XMLID_349_" class="st36" d="m191 16.3-1.2 9c-.1 1-.3 1.7-.4 2.1-.1.4-.4.8-.8 1.2-.4.4-.9.7-1.5.8-.6.2-1.2.2-2 .1s-1.5-.3-2.1-.7c-.6-.3-1-.7-1.3-1.2-.3-.5-.4-.9-.4-1.4 0-.5.1-1.5.2-3 .3-2.7.6-5.3.9-8 1.2.1 2.5.3 3.7.4-.4 3.4-.8 6.7-1.2 10.1-.1.6-.1 1 0 1.1 0 .2.2.3.4.3s.4 0 .5-.2c.1-.2.2-.6.3-1.3l1.2-9.9c1.2.3 2.5.4 3.7.6z"/><path id="XMLID_347_" class="st36" d="M192.5 16.5c2.1.3 4.2.6 6.2.9-.1.9-.3 1.8-.4 2.7-.8-.1-1.6-.3-2.5-.4-.1.8-.3 1.7-.4 2.5.8.1 1.5.2 2.3.4-.1.8-.3 1.7-.4 2.5-.8-.1-1.5-.2-2.3-.4-.2 1-.3 2-.5 2.9.9.1 1.8.3 2.6.4-.1.9-.3 1.8-.4 2.7-2.1-.3-4.1-.7-6.2-.9.7-4.3 1.3-8.8 2-13.3z"/><path id="XMLID_344_" class="st36" d="M209.6 19.5c-.2 4.6-.4 9.1-.7 13.7-1.2-.3-2.4-.5-3.6-.7l.3-2.4c-.4-.1-.9-.2-1.3-.2-.2.8-.4 1.6-.7 2.4-1.2-.2-2.4-.5-3.7-.7 1.4-4.3 2.8-8.7 4.2-13 2 .2 3.7.5 5.5.9zm-3.6 8.1c.1-1.5.3-3.4.5-5.7-.9 2.5-1.5 4.3-1.8 5.5.5.1.9.1 1.3.2z"/><path id="XMLID_341_" class="st36" d="M212.4 20c.9.2 1.7.4 2.6.6 1.7.4 2.9.7 3.5 1 .6.3 1 .7 1.3 1.3.3.6.3 1.5 0 2.6-.2 1-.5 1.7-.9 2-.4.3-.9.4-1.7.3.7.3 1.1.7 1.3 1 .2.3.3.6.3.9 0 .3-.1.9-.4 2-.3 1.2-.6 2.3-.8 3.5-1.1-.3-2.2-.5-3.3-.8.3-1.5.7-2.9 1-4.4.2-.7.2-1.2.1-1.4-.1-.2-.4-.4-.9-.5-.4 2-.9 4-1.3 6-1.2-.3-2.4-.5-3.5-.8.8-4.4 1.7-8.9 2.7-13.3zm3.2 3.1c-.2 1-.4 2-.7 2.9.4.1.7.1.9 0 .2-.1.3-.4.5-1 .1-.2.1-.5.2-.7.1-.4.1-.7-.1-.9-.1-.1-.4-.2-.8-.3z"/><path id="XMLID_339_" class="st36" d="M233.4 25.3c-1.3 4.3-2.5 8.7-3.8 13l-3-.9c.8-2.9 1.6-5.9 2.4-8.8-1.2 2.8-2.5 5.7-3.7 8.5-.7-.2-1.4-.4-2.2-.6.3-3 .7-6 1-9-.7 2.9-1.5 5.8-2.2 8.7-1-.3-2-.5-3.1-.8l3.3-13.2 4.8 1.2c-.1.8-.2 1.8-.3 2.9-.1 1.2-.2 2.3-.4 3.5.8-2 1.6-3.9 2.5-5.9 1.5.5 3.1.9 4.7 1.4z"/><path id="XMLID_337_" class="st36" d="M242.6 28.1c-1.8 2.5-3.5 4.9-5.2 7.4-.5 1.6-1 3.1-1.5 4.7-1.1-.3-2.1-.7-3.2-1 .5-1.6.9-3.1 1.4-4.7 0-3 0-6-.1-9 1.1.3 2.2.7 3.3 1-.2 2.7-.5 4.5-.7 5.4.6-1.3 1.5-2.9 2.6-4.8 1.2.3 2.3.6 3.4 1z"/></g></g></g></svg>