<svg version="1.0" xmlns="http://www.w3.org/2000/svg" viewBox="0 0 300 150" style="enable-background:new 0 0 300 150" xml:space="preserve"><path d="M147.2 137.7c-2.3-4.1-8.1-5.2-13.1-5.4-8.2-.3-16.4.4-24.3 2.3-6 1.4-12.4 3.4-18.2 1.4-1.9-.7-3.7-1.8-5.6-2.4-6.3-2.2-13.3.4-19.6 2.4-6.4 2.1-14.1 3.6-19.4-.2-1.2-.8-2.2-1.9-3.5-2.5-2-.9-4.3-.7-6.6-.7-5.8.1-11.6-1-16.9-3.1-2-.8-4-1.8-5.3-3.4-4.9-6 2.6-14 2.4-21.5-.1-3.7-2.1-7.1-2.7-10.7-1.1-7.6 4.2-15.2 2.5-22.7-.9-4.1-4-8.3-2.2-12.2.8-1.9 2.6-3.3 3.8-5 5.9-8.5-5.3-19.9-1.3-29.3 2.2-5.1 8.2-7.9 13.8-10.2 4.2-1.7 8.8-3.5 13.3-2.3 4 1 6.9 4.3 10.8 5.4 6.9 2 14.1-2.7 21.3-1.9 2.8.3 5.4 1.4 8.2 1.7 8.5 1 16.8-5.7 25.2-3.9 4.7 1 9.2 4.7 13.8 3.4 2.4-.7 4.1-2.6 6.3-3.9 8-4.5 17.8 2.1 27.1 3.1 11.9 1.3 25-6.5 35.2-.9 2.5 1.4 4.5 3.5 7.2 4.6 8 3.2 16.2-3.6 24.6-5.9 4.6-1.2 9.5-1 14.3-.8 12.3.6 24.7 1.2 37 1.7 1.4.1 2.9.1 4.2.7 3.6 1.5 4.4 5.8 4.3 9.4-.1 4-.6 7.9-1.6 11.8-.6 2.5-1.5 5.1-1.2 7.7.6 5.9 6.7 10.7 5.9 16.6-.6 4.9-6 8.6-6.6 13.5-.8 6.5 6.8 12 5.8 18.5-.4 2.8-2.4 5.2-4 7.7-4 6.4-5.2 14.3-3.3 21.5 1.1 4 2.5 9.2-1.4 11.2-1.2.6-2.7.7-4.1.8-7.7.3-15.4.6-23-.6-6-1-12.3-2.9-17.8-.7-5.8 2.3-10.9 9-16.7 6.6-2.2-.9-3.5-2.8-5.4-4.1-4.8-3.1-11.4-1-16.8 1-5.5 2-12.4 3.6-16.6-.2-1.1-1-1.8-2.2-3-3.1-3.4-2.5-8.5-1.1-12.3.9-3.8 2-7.8 4.6-12.2 3.9" style="opacity:.15;fill:#205730"/></svg>