<?xml version="1.0" encoding="utf-8"?>
<!-- Generator: Adobe Illustrator 19.0.0, SVG Export Plug-In . SVG Version: 6.00 Build 0)  -->
<svg version="1.0" id="Calque_1" xmlns="http://www.w3.org/2000/svg" xmlns:xlink="http://www.w3.org/1999/xlink" x="0px" y="0px"
	 viewBox="0 0 300 300" style="enable-background:new 0 0 300 300;" xml:space="preserve">
<style type="text/css">
	.st0{opacity:0.5;}
	.st1{opacity:0.1;fill:#FFFFFF;enable-background:new    ;}
	.st2{fill:#010202;}
	.st3{fill:url(#XMLID_19_);}
	.st4{fill:#014C25;}
	.st5{fill:#030405;}
	.st6{fill:#343434;}
	.st7{fill:#A5A3A3;}
	.st8{fill:#848580;}
	.st9{fill:#CFCECE;}
	.st10{fill:#020304;}
	.st11{fill:url(#XMLID_20_);}
	.st12{opacity:0.2;fill:#FFFFFF;enable-background:new    ;}
	.st13{fill:#D8614E;}
	.st14{fill:#EF795F;}
	.st15{display:none;}
	.st16{display:inline;fill:#020304;}
	.st17{display:inline;fill:#828383;}
	.st18{display:inline;opacity:0.5;fill:url(#XMLID_21_);enable-background:new    ;}
	.st19{display:inline;}
	.st20{opacity:5.000000e-002;fill:#020304;enable-background:new    ;}
	.st21{fill:none;stroke:#0B0B0C;stroke-width:19;stroke-miterlimit:10;}
	.st22{fill:none;stroke:#DDDDDD;stroke-width:6;stroke-miterlimit:10;}
	.st23{fill:none;stroke:#010202;stroke-width:3;stroke-miterlimit:10;}
	.st24{fill:#FFFFFF;stroke:#D8614E;stroke-width:3;stroke-miterlimit:10;}
	.st25{fill:#FFFFFF;}
	.st26{fill:#009FE3;stroke:#272E59;stroke-width:2;stroke-miterlimit:10;}
	.st27{fill:#74CBF0;}
</style>
<g id="Calque_12">
	<circle id="XMLID_86_" cx="152" cy="147.8" r="114.3"/>
	<g id="backgroundEffect" class="st0">
		<g id="Calque_5_-_copie_2_">
			<g id="Calque_9_-_copie_2_">
				<g id="圖層_1_-_copie_2_">
				</g>
			</g>
			<g id="Calque_8_-_copie_2_">
			</g>
			<g id="Calque_3_-_copie_2_4_">
			</g>
			<g id="Calque_3_-_copie_2_1_">
			</g>
			<path id="XMLID_51_" class="st1" d="M202.1,178.3c5.8-6.5,6.4-9.6,9.2-18.3h5.4c3.9,0,7.5-1.5,10.2-4c-0.7,1.6-1.6,3.2-2.5,4.8
				c0.9-1.6,1.7-3.3,2.5-4.9c1.1-1,2.1-2.3,2.8-3.6c0.4-0.9,0.9-1.9,1.3-2.8l0,0c0-0.1,0.1-0.1,0.1-0.1c0.2-0.4,0.4-0.8,0.5-1.3
				c0.1-0.1,0.1-0.3,0.1-0.4c0.1-0.4,0.4-0.8,0.5-1.3c0.1-0.1,0.1-0.3,0.1-0.4c0.1-0.4,0.4-0.8,0.5-1.3c0.1-0.1,0.1-0.2,0.1-0.4
				c0.1-0.4,0.3-0.9,0.4-1.3c0-0.1,0.1-0.1,0.1-0.2c0.7-2,1.3-12.5,1.7-14.6c0.1-0.2,0.1-0.4,0.1-0.6c0.1-0.4,0.1-0.7,0.2-1
				c0.1-0.2,0.1-0.5,0.1-0.7c0.1-0.3,0.1-0.7,0.1-1c0.1-0.3,0.1-0.6,0.1-0.9c0.1-0.3,0.1-0.6,0.1-1c0.1-0.3,0.1-0.6,0.1-1
				c0.1-0.3,0.1-0.6,0.1-0.9s0.1-0.7,0.1-1c0-0.3,0.1-0.6,0.1-0.8c0-0.4,0.1-0.7,0.1-1.1c0-0.3,0.1-0.5,0.1-0.8
				c0-0.4,0.1-0.8,0.1-1.3c0-0.2,0-0.4,0-0.7c0-0.7,0-1.3,0-1.9c0-0.9,0-1.8-0.1-2.7c0-0.2,0-0.4,0-0.6c-0.1-0.9-0.1-1.7-0.1-2.6
				c0-0.1,0-0.2,0-0.3c-0.1-0.8-0.1-1.6-0.3-2.5c0-0.1,0-0.2-0.1-0.3c-0.1-0.9-0.3-1.8-0.4-2.7c0-0.1,0-0.2-0.1-0.3
				c-0.4-1.8-0.7-3.6-1.3-5.4c0-0.1,0-0.1-0.1-0.1c-0.5-1.8-1.1-3.6-1.8-5.4l0,0l0,0c-1.9-4.9-4.2-9.5-7.1-13.9l-0.1-0.1
				c-0.4-0.5-0.7-1-1-1.5c0-0.1-0.1-0.1-0.1-0.1c-0.4-0.4-0.7-1-1-1.4c0-0.1-0.1-0.1-0.1-0.1c-0.4-0.4-0.7-1-1.1-1.4
				c0-0.1-0.1-0.1-0.1-0.1c-0.4-0.4-0.7-1-1.1-1.4l-0.1-0.1c-0.4-0.4-0.8-1-1.2-1.4c0,0,0,0,0-0.1c-4.3-4.9-9.4-9.3-15-13.1
				c0,0,0,0-0.1,0c-0.5-0.4-1.1-0.7-1.6-1.1c0,0-0.1,0-0.1-0.1c-0.5-0.4-1.1-0.7-1.7-1h-0.1c-0.6-0.4-1.1-0.7-1.7-1l0,0
				C186.4,45.3,170.7,41,154,41c-1.8,0-3.6,0.1-5.3,0.1c-0.2,0-0.4,0-0.6,0c-1,0.1-2,0.1-3.1,0.2c-0.1,0-0.4,0-0.5,0.1
				c-1,0.1-2.1,0.2-3.1,0.4l0,0c-1,0.1-2.1,0.3-3.1,0.4c-0.1,0-0.3,0.1-0.5,0.1c-1,0.1-2,0.4-3,0.6c-0.1,0-0.2,0.1-0.4,0.1
				c-2.1,0.4-4.1,1-6.1,1.5c-0.1,0-0.2,0.1-0.4,0.1c-1,0.3-2,0.6-3,0.9c-0.1,0-0.1,0.1-0.2,0.1c-2,0.7-4,1.4-6,2.2
				c-0.1,0-0.1,0.1-0.1,0.1c-3,1.3-5.9,2.6-8.6,4.2c0,0,0,0-0.1,0c-2.8,1.6-5.5,3.2-8,5.1l0,0l0,0C95,61.8,89.1,67.6,84.2,74.1l0,0
				l0,0c-0.8,1.1-1.6,2.3-2.4,3.5l0,0l0,0c-2.7,4.2-4.9,8.6-6.7,13.1c0,0.1-0.1,0.1-0.1,0.2c-0.2,0.5-0.4,1.1-0.6,1.6
				c0,0.1-0.1,0.2-0.1,0.3c-0.1,0.5-0.4,1.1-0.5,1.6c0,0.1-0.1,0.2-0.1,0.3c-0.1,0.6-0.4,1.2-0.5,1.8c0,0.1,0,0.1-0.1,0.1
				c-0.4,1.3-0.7,2.7-1,4c0,0.1,0,0.1-0.1,0.2c-0.1,0.6-0.2,1.1-0.3,1.7c0,0.2-0.1,0.4-0.1,0.6c-0.1,0.4-0.1,0.9-0.2,1.4
				c0,0.2-0.1,9-0.1,9.2c-0.1,0.4-0.1,0.9-0.1,1.3c0,0.2-0.1,0.5-0.1,0.7c-0.1,0.4-0.1,0.8-0.1,1.3c0,0.2-0.1,0.5-0.1,0.7
				c0,0.4-0.1,0.9-0.1,1.4c0,0.2,0,0.4,0,0.7c0,0.7,0,1.3,0,2c0,0.9,0,1.9,0.1,2.8c0,0.2,0,0.4,0,0.6c0.1,0.9,0.1,1.8,0.2,2.7
				c0,0.1,0,0.1,0,0.2c0.1,0.8,0.2,1.7,0.3,2.5c0,0.1,0.1,0.3,0.1,0.5c0.1,0.9,0.3,1.8,0.4,2.7c0,0.1,0.1,0.2,0.1,0.3
				c0.1,0.9,0.4,1.7,0.6,2.5c0,0.1,0.1,0.1,0.1,0.3c0.2,0.9,0.4,1.8,0.7,2.7c0,0.1,0.1,0.1,0.1,0.3c0.3,0.9,0.5,1.8,0.8,2.7l0,0
				c0.3,0.9,0.7,1.8,1,2.7c0,0.1,0,0.1,0.1,0.1l0,0c0.8,2.2,1.8,4.2,2.9,6.3c2.5,4.8,7.5,7.7,13.1,7.7h5.4
				c2.5,8.1,3.6,10.3,8.9,16.6c-14.9,8-29.2,21.6-40.3,37.9c-8.6,12.6,35.6,41.1,35.6,41.1h18.1h3.3h11.2h40.9h11.2h3.3h5.9
				c0,0,53.7-24.2,47.2-35.3C231.8,202.3,217.7,187.2,202.1,178.3z"/>
		</g>
	</g>
	<g id="Calque_4_2_">
		<path id="XMLID_6_" class="st2" d="M234,223.1c-17.5-31.6-47.7-52.5-82.2-52.5c-35.2,0-66.1,21.8-83.4,54.6l39.9,30h84.1
			L234,223.1z"/>
		<radialGradient id="XMLID_19_" cx="151.2924" cy="215.3465" r="61.7788" gradientUnits="userSpaceOnUse">
			<stop  offset="0" style="stop-color:#26872F"/>
			<stop  offset="1" style="stop-color:#42A784"/>
		</radialGradient>
		<path id="XMLID_49_" class="st3" d="M229.1,226.9c-16-30.8-44.6-51.3-77.2-51.3c-33.4,0-62.5,21.5-78.3,53.4l34.8,26.2h84.1
			L229.1,226.9z"/>
		<g id="圖層_1_6_">
			<path id="XMLID_48_" class="st4" d="M205.9,196.9c-1.6,1.8-2.9,3.2-3.2,3.6c-1.8-0.4-3.6-0.7-5.4-0.1c-1.8,0.6-3.1,2.5-2.5,4.2
				c0.3,0.8,0.9,1.4,1.4,2.1c1.5,2.1,1.4,5.1-0.1,7.1c-1.8,2.4-5,3.2-6.8,5.6c-1.2,1.6-1.5,3.8-1.6,5.9c-0.1,0.9-0.1,1.9,0.2,2.8
				c0.4,0.9,1.2,1.6,2.1,1.4c1.2-0.1,1.7-1.5,2.4-2.5c1-1.4,3.3-2.2,4.6-1c2.2,2-1,5.6-0.1,8.4c0.6,1.8,2.7,2.7,4.5,3
				c2.8,0.4,5.5,0.1,8.1-0.8c0.7-0.2,1.3-0.5,2-0.4c1.6,0.1,2.7,1.9,2.9,3.4s-0.1,3.3,0.3,4.8c0.4,1.6,1.9,3.1,3.4,2.6
				c0.5-0.1,1-0.5,1.5-0.7c1.7-0.4,13.4-10.7,11.1-15.6C224.6,217.4,216.1,205.9,205.9,196.9z"/>
			<path id="XMLID_47_" class="st4" d="M76.9,235.4c1.6-2,4.8-1.9,6.8-0.4c0.6,0.4,1.2,1,2,1.2c1.6,0.3,2.8-1.4,3.4-2.8
				c0.7-1.5,1.5-3.2,3.1-3.3c2.2-0.2,4.1,2.9,6.1,2c1.4-0.7,1.3-2.7,1.1-4.2c-0.3-1.6-0.1-3.6,1.4-4.1c0.5-0.1,1,0,1.6,0
				c1.8,0,3.6-1.5,3.6-3.3c0-1.8-2.1-3.3-3.7-2.6c-0.5,0.2-1,0.7-1.6,0.4c-0.3-0.1-0.4-0.4-0.6-0.7c-1.2-2.1-2.2-5.1-0.2-6.5
				c1.5-1.1,3.8-0.3,5.2-1.5c1.3-1.1,1-3.3-0.1-4.7s-2.6-2.2-3.8-3.5c-1.1-1.3-1.9-2.8-2.1-4.5c-0.1-0.4-0.1-0.7,0-1
				c-12.6,10.8-22.9,25.4-29.6,42.4C72.3,237.3,76.2,236.3,76.9,235.4z"/>
			<path id="XMLID_46_" class="st4" d="M189.9,250.4c0.1-1.3,0.9-2.6,0.7-4c-0.3-3.2-5-4.2-5.7-7.4c-0.4-1.6,0.4-3.7-0.8-4.9
				c-1.5-1.5-4.2,0-6-1c-1.6-1-1.9-3.6-3.7-4.1c-1.5-0.4-2.8,0.8-4.3,1.3c-2.2,0.7-4.7-0.6-6.1-2.5c-0.7-1-1.3-2.2-2.5-2.6
				c-2.5-1-5,2.6-7.7,2.2c-1.9-0.3-3.3-2.5-5.2-2.2c-1.7,0.3-2.4,2.5-2.6,4.2c-0.2,1.7-6.9-6-8.7-5.9c-2.4,0.2-4.2-3.3-6.5-2.7
				c-2,0.6-1.9,3.6-3.3,5c-1,1-2.7,1.1-3.9,1.9c-2.8,1.7-3,6.2-6,7.4c-0.9,0.4-1.9,0.3-2.8,0.7c-2.2,0.9-3.1,3.6-3.5,6L111,242
				c0.1,0.9-0.9,1.6-1.9,1.6c-0.9,0.1-1.9-0.3-2.8-0.3c-1.5,0-2.9,0.9-3.5,2.3c-0.3,0.7,0.2,5.5,1,9.6h87.5
				C190.5,253.7,189.7,252.1,189.9,250.4z"/>
		</g>
		<path id="XMLID_45_" class="st5" d="M120.8,255.2h65.1c-19.3-13.4-32.6-37.1-32.6-37.1S140.1,241.8,120.8,255.2z"/>
		<path id="XMLID_44_" class="st6" d="M123.8,255.2h59.1c-17.5-13.1-29.5-36.3-29.5-36.3S141.3,242.1,123.8,255.2z"/>
		<path id="XMLID_43_" class="st7" d="M134.3,255.2h38.2c-11.3-13.1-19-36.3-19-36.3S145.6,242.1,134.3,255.2z"/>
		<g id="Calque_6_2_">
			<path id="XMLID_42_" class="st5" d="M153.2,214.4l-31.5-7.2l10.4,9.2c0,0,8.1,5.1,12.4,7.4c5.3,2.8,9,14.1,9,14.1
				s3.2-11.1,8.5-13.8c4.2-2.2,12.6-7.6,12.6-7.6l10.4-8.8L153.2,214.4z"/>
			<path id="XMLID_41_" class="st8" d="M153.2,216.6l-26.9-6.8l13.7,8.6c0,0,5.7,2.9,8.3,4.3c3.3,1.7,5,12.2,5,12.2
				s1.6-10.5,4.8-12.2c2.6-1.3,8.3-4.3,8.3-4.3l13.4-8.4L153.2,216.6z"/>
			<path id="XMLID_40_" class="st9" d="M153.2,219.9l-10-3.3l5.4,3.3c0,0,2,1,2.9,1.6c1.2,0.6,1.7,7.9,1.7,7.9s0.6-7.2,1.7-7.9
				c0.9-0.5,2.9-1.6,2.9-1.6l5.4-3.3L153.2,219.9z"/>
		</g>
		<g id="Calque_5_2_">
			<g id="Calque_9_2_">
				<path id="XMLID_39_" class="st10" d="M215.1,165.9c5.5,0,10.5-3.1,12.9-8c4.7-9.4,7.4-19.9,7.4-30.8c0-41.1-36.8-74.5-82.1-74.5
					S71.3,85.9,71.3,127c0,11,2.6,21.4,7.4,30.8c2.5,4.9,7.4,8,12.9,8L215.1,165.9L215.1,165.9z"/>
				
					<radialGradient id="XMLID_20_" cx="153.3391" cy="192.7864" r="66.5013" gradientTransform="matrix(1 0 0 -1 0 302)" gradientUnits="userSpaceOnUse">
					<stop  offset="0" style="stop-color:#26872F"/>
					<stop  offset="1" style="stop-color:#42A784"/>
				</radialGradient>
				<path id="XMLID_38_" class="st11" d="M211.6,162.7c5.1,0,9.9-2.9,12.2-7.5c4.5-8.9,6.9-18.7,6.9-29.1
					c0-38.8-34.7-70.3-77.4-70.3S76,87.2,76,126.1c0,10.3,2.5,20.2,6.9,29.1c2.3,4.6,7.1,7.5,12.2,7.5L211.6,162.7L211.6,162.7z"/>
				<g id="圖層_1_2_">
					<path id="XMLID_37_" class="st4" d="M84.8,93.4c0.1,0.4,0.2,1-0.1,1.3c-0.1,0.1-0.4,0.2-0.7,0.3c-0.1,0-0.1,0-0.1,0
						c-5.1,9.4-8,19.9-8,31c0,8,1.5,15.8,4.2,23c1.1,0.1,2.2,0.1,3.1-0.3c1.4-0.7,1.8-2.6,1.7-4.2c-0.1-2.3-0.7-4.6-1.9-6.6
						c-0.3-0.5-0.6-1-0.7-1.6c-0.1-1.3,1.1-2.5,2.4-2.9c1.3-0.4,2.7-0.4,3.9-1c1.3-0.6,2.2-2,1.6-3.3c-0.2-0.4-0.6-0.7-0.7-1.2
						c-0.6-1.3,0.8-2.7,2.1-3.4c1.3-0.7,2.8-1.7,2.7-3.2c-0.1-1.3-1.6-2-2.3-3.1c-1.2-1.8-0.1-4.2,1.6-5.5c0.5-0.4,1.2-0.7,1.5-1.3
						c0.7-1.2-0.4-2.6-1.3-3.5s-2.2-2.1-1.9-3.3c0.4-1.8,3.4-2.5,3.2-4.3c-0.1-1.3-1.8-1.8-3.1-2c-1.3-0.2-3-0.9-2.9-2.2
						c0-0.4,0.3-0.8,0.4-1.3c0.5-1.4-0.2-3.3-1.6-3.7c-0.6-0.2-1.3-0.1-1.9,0.2C85.6,92,85.2,92.7,84.8,93.4L84.8,93.4z"/>
					<path id="XMLID_36_" class="st4" d="M104.8,71.8c-0.1,0.7-0.5,1.5-0.6,2.2c-0.2,1.2,0.4,2.5,1.4,3.2c1,0.7,2.5,0.6,3.5-0.1
						c0.6-0.4,1.1-1.1,1.8-1.5c1.5-0.9,3.3-0.2,5,0.5c-0.1,1.6-0.1,3.1,0.7,4.5s2.5,2.2,3.9,1.5c0.6-0.4,1-1,1.5-1.5
						c1.5-1.6,3.9-1.9,5.9-1c2.2,1.1,3.4,3.6,5.7,4.7c1.6,0.7,3.3,0.7,5.1,0.4c0.7-0.1,1.6-0.1,2.2-0.6c0.7-0.4,1.1-1.3,0.9-1.9
						c-0.3-1-1.5-1.2-2.5-1.6c-1.3-0.6-2.4-2.4-1.6-3.6c1.3-2.1,4.8-0.1,6.9-1.2c1.4-0.7,1.8-2.6,1.7-4.2c-0.1-2.3-0.7-4.6-1.9-6.6
						c-0.3-0.5-0.6-1-0.7-1.6c-0.1-1.3,1.1-2.5,2.4-2.9c1.3-0.4,2.7-0.4,3.9-1c1.3-0.6,2.2-2,1.6-3.3c-0.1-0.1-0.1-0.3-0.2-0.4
						c-17.6,0.4-33.8,6.2-46.6,15.5C104.8,71.5,104.8,71.6,104.8,71.8z"/>
					<path id="XMLID_35_" class="st4" d="M171.7,57.8c0,0.1,0,0.3,0,0.4c0.2,1.7,2.7,2,3.7,3.4c0.7,1,0.6,2.4,1,3.5
						c1,2.5,4.8,3.2,5.4,5.9c0.1,0.8,0,1.6,0.2,2.4c0.4,2,2.6,3,4.5,3.7l0.3,0.3c0.7,0,1.2,1,1.1,1.7c-0.1,0.7-0.5,1.5-0.6,2.2
						c-0.2,1.2,0.4,2.5,1.4,3.2s2.5,0.6,3.5-0.1c0.6-0.4,1.1-1.1,1.8-1.5c1.5-0.9,3.3-0.2,5,0.5c-0.1,1.6-0.1,3.1,0.7,4.5
						c0.7,1.3,2.5,2.2,3.9,1.5c0.6-0.4,1-1,1.5-1.5c1.5-1.6,3.9-1.9,5.9-1c2.2,1.1,3.4,3.6,5.7,4.7c1.4,0.7,3.1,0.7,4.7,0.5
						C210.9,75.2,193,62.5,171.7,57.8z"/>
					<path id="XMLID_34_" class="st4" d="M226.8,104c-0.1,0.1-0.2,0.2-0.3,0.4c-1.2,1-3.3,0.6-4.2,1.9c-0.7,1-0.1,2.5-0.1,3.7
						c-0.1,1.9-1.8,3.6-3.6,4.2c-1,0.3-2.1,0.4-2.8,1.3c-1.5,1.7,0.7,4.6-0.4,6.7c-0.7,1.4-2.8,1.9-3.1,3.5
						c-0.2,1.5,1.3,2.5,2.6,3.2s2.9,1.6,2.8,3.1c-0.1,2-3.3,3-3.1,5c0.2,1.7,2.7,2,3.7,3.4c0.7,1,0.6,2.4,1,3.5
						c1,2.5,4.8,3.2,5.4,5.9c0.1,0.8,0,1.6,0.2,2.4c0,0.1,0.1,0.3,0.1,0.4c3.6-8.2,5.7-17,5.7-26.4C230.7,118.3,229.4,111,226.8,104
						z"/>
				</g>
				<path id="XMLID_33_" class="st1" d="M187.3,81.4c36.7,20.6,49.1,48.8,31.6,82.1c17.7-33.6,15.8-72.5-25.4-95.8
					c-37.2-21-80.1-9.3-105.2,20.2C113.4,58.6,150,60.4,187.3,81.4z"/>
				<path id="XMLID_32_" class="st12" d="M192.4,75c36.7,20.6,44,55.2,26.5,88.5c17.7-33.6,15.8-72.5-25.4-95.8
					c-37.2-21-80.1-9.3-105.2,20.2C113.4,58.6,155.1,54,192.4,75z"/>
			</g>
			<path id="XMLID_31_" class="st2" d="M212.6,142.8c0,35.6-26.6,64.4-59.2,64.4s-59.2-28.9-59.2-64.4c0-7.5,1.2-14.7,3.3-21.5
				c8.1-25,30.1-12,55.9-12c26.2,0,48.4-12.5,56.2,13.1C211.5,128.8,212.6,135.7,212.6,142.8z"/>
			<path id="XMLID_30_" class="st13" d="M207.1,144.1c0,32.3-24.1,58.6-53.8,58.6s-53.8-26.2-53.8-58.6c0-6.8,1-13.4,3.1-19.5
				c7.4-22.8,27.3-10.9,50.7-10.9c23.7,0,43.9-11.3,51,11.9C206.2,131.3,207.1,137.6,207.1,144.1z"/>
			<path id="XMLID_29_" class="st14" d="M200.8,144.1c0,31.2-22.5,58.3-48.8,58.3s-46.2-27.1-46.2-58.3c0-6.6,1-12.9,2.7-18.8
				c6.5-21.9,24.1-8.3,44.8-8.3c21,0,38.8-13.2,45.1,9.2C200,131.9,200.8,137.8,200.8,144.1z"/>
			<g id="Calque_8_2_" class="st15">
				<path id="XMLID_28_" class="st16" d="M101.6,111.5c7.8,5.4,25.3,19.3,51.6,19.3c26,0,43-13.5,51.1-19.1c-12-9.7-28-2.5-51-2.5
					C130.3,109.3,113.8,101.1,101.6,111.5z"/>
				<path id="XMLID_27_" class="st17" d="M108.3,111.6c6.2,4.3,24,15.2,45,15.2c20.8,0,38.3-10.6,44.8-15
					c-10.3-6.3-26.5,0.1-44.7,0.1C134.9,111.8,118.5,104.8,108.3,111.6z"/>
				
					<linearGradient id="XMLID_21_" gradientUnits="userSpaceOnUse" x1="153.1903" y1="16223.5605" x2="153.1903" y2="16234.1133" gradientTransform="matrix(1 0 0 1 0 -16112)">
					<stop  offset="0" style="stop-color:#FFFFFF;stop-opacity:0"/>
					<stop  offset="1" style="stop-color:#FFFFFF"/>
				</linearGradient>
				<path id="XMLID_26_" class="st18" d="M119.2,113.8c4.7,3.3,18.5,8.3,34.4,8.3c15.7,0,28.8-4.8,33.6-8.2
					c-7.7-4.8-20.1,0.1-33.9,0.1C139.4,113.9,126.9,108.7,119.2,113.8z"/>
			</g>
			<path id="XMLID_24_" class="st10" d="M157.8,168h-9.5c-0.7,0-1.4-0.4-1.7-1l-5.1-8.9c-0.7-1.3,0.2-3,1.7-3h2.5l7.7,2.5l7.6-2.5
				h2.4c1.6,0,2.5,1.7,1.7,3.1l-5.6,8.9C159.1,167.7,158.5,168,157.8,168z"/>
			<path id="XMLID_23_" class="st14" d="M156.6,165.1h-7.1c-0.7,0-1.4-0.4-1.8-1l-4.9-8.9c-0.7-1.3,0.1-1.8,1.7-1.8h17
				c2.1,0,2.9,0.4,2.1,1.8l-5.3,9C158,164.7,157.4,165.1,156.6,165.1z"/>
			<g id="Calque_18_-_copie_2_" class="st15">
				<g id="Calque_20_2_" class="st19">
					<path id="XMLID_15_" class="st20" d="M130.3,149.7l-5.9,0.7c-1,0.1-1.9-0.6-2-1.6l0,0c-0.1-1,0.6-1.9,1.6-2l5.9-0.7
						c1-0.1,1.9,0.6,2,1.6l0,0C132,148.7,131.2,149.6,130.3,149.7z"/>
					<polygon id="XMLID_14_" class="st10" points="137.3,146.5 129.8,145.7 122.1,146.5 122.1,144.1 129.8,143.3 137.3,144.1 					
						"/>
				</g>
				<g id="Calque_20_-_copie_2_" class="st19">
					<path id="XMLID_13_" class="st20" d="M173.8,149.9l5.9,0.7c1,0.1,1.9-0.6,2-1.6l0,0c0.1-1-0.6-1.9-1.6-2l-5.9-0.7
						c-1-0.1-1.9,0.6-2,1.6l0,0C172.1,148.9,172.8,149.8,173.8,149.9z"/>
					<polygon id="XMLID_12_" class="st10" points="166.7,146.7 174.3,145.9 182,146.7 182,144.3 174.3,143.5 166.7,144.3 					"/>
				</g>
			</g>
			<path id="XMLID_11_" d="M181.5,132.5H172c-2,0-4,0.3-5.9,0.9l-8.3,2.7c-3.1,1-6.7,1-9.8,0.1l-10-3.1c-1.2-0.4-2.5-0.6-3.8-0.6
				h-12.1c-1.7,0-3.1-1-3.1-2.3l0,0c0-1.3,1.4-2.3,3.1-2.3h12.4c1.3,0,2.7,0.2,3.9,0.6l9.7,3.1c3.2,1,6.8,1,10-0.1l7.7-2.5
				c2-0.7,4.2-1,6.5-1h9.4c1.7,0,3.1,1,3.1,2.3l0,0C184.6,131.5,183.2,132.5,181.5,132.5z"/>
			<path id="XMLID_10_" class="st13" d="M128.3,162.9h-9.7c-1.3,0-2.2-1-2.2-2.2l0,0c0-1.3,1-2.2,2.2-2.2h9.7c1.3,0,2.2,1,2.2,2.2
				l0,0C130.6,161.9,129.5,162.9,128.3,162.9z"/>
			<path id="XMLID_9_" class="st13" d="M188.2,162.2h-9.7c-1.3,0-2.2-1-2.2-2.2l0,0c0-1.3,1-2.2,2.2-2.2h9.7c1.3,0,2.2,1,2.2,2.2
				l0,0C190.5,161.3,189.4,162.2,188.2,162.2z"/>
		</g>
	</g>
	<circle id="XMLID_4_" class="st21" cx="152" cy="147.8" r="114.3"/>
	<circle id="XMLID_195_" class="st22" cx="152" cy="147.8" r="114.3"/>
	<g id="expression">
		<path id="XMLID_8_" class="st23" d="M144.2,186.3c1.7-2.1,6.1-3.7,8.8-3.8c4.6-0.2,7.1,0.9,8.8,2.9"/>
		<path id="XMLID_7_" class="st13" d="M155.9,189.1l-6,0.3c-1,0.1-1.8-0.7-1.9-1.7l0,0c-0.1-1,0.7-1.8,1.7-1.9l6-0.3
			c1-0.1,1.8,0.7,1.9,1.7l0,0C157.6,188.2,156.8,189,155.9,189.1z"/>
		<path id="XMLID_5_" class="st24" d="M177.7,145.3l4-4c0.9-0.9,0.9-2.4,0-3.4c-0.9-0.9-2.4-0.9-3.4,0l-4,4l-4-4
			c-0.9-0.9-2.4-0.9-3.4,0c-0.9,0.9-0.9,2.4,0,3.4l4,4l-4,4c-0.9,0.9-0.9,2.4,0,3.4c0.9,0.9,2.4,0.9,3.4,0l4-4l4,4
			c0.9,0.9,2.4,0.9,3.4,0c0.9-0.9,0.9-2.4,0-3.4L177.7,145.3z"/>
		<path id="XMLID_1_" class="st25" d="M177.7,145.3l4-4c0.9-0.9,0.9-2.4,0-3.4c-0.9-0.9-2.4-0.9-3.4,0l-4,4l-4-4
			c-0.9-0.9-2.4-0.9-3.4,0c-0.9,0.9-0.9,2.4,0,3.4l4,4l-4,4c-0.9,0.9-0.9,2.4,0,3.4c0.9,0.9,2.4,0.9,3.4,0l4-4l4,4
			c0.9,0.9,2.4,0.9,3.4,0c0.9-0.9,0.9-2.4,0-3.4L177.7,145.3z"/>
		<path id="XMLID_18_" class="st24" d="M135.7,145.3l4-4c0.9-0.9,0.9-2.4,0-3.4c-0.9-0.9-2.4-0.9-3.4,0l-4,4l-4-4
			c-0.9-0.9-2.4-0.9-3.4,0c-0.9,0.9-0.9,2.4,0,3.4l4,4l-4,4c-0.9,0.9-0.9,2.4,0,3.4c0.9,0.9,2.4,0.9,3.4,0l4-4l4,4
			c0.9,0.9,2.4,0.9,3.4,0c0.9-0.9,0.9-2.4,0-3.4L135.7,145.3z"/>
		<path id="XMLID_16_" class="st25" d="M135.7,145.3l4-4c0.9-0.9,0.9-2.4,0-3.4c-0.9-0.9-2.4-0.9-3.4,0l-4,4l-4-4
			c-0.9-0.9-2.4-0.9-3.4,0c-0.9,0.9-0.9,2.4,0,3.4l4,4l-4,4c-0.9,0.9-0.9,2.4,0,3.4c0.9,0.9,2.4,0.9,3.4,0l4-4l4,4
			c0.9,0.9,2.4,0.9,3.4,0c0.9-0.9,0.9-2.4,0-3.4L135.7,145.3z"/>
	</g>
	<path id="XMLID_17_" class="st26" d="M202.9,142.8l-5.2-10c0,0,0,0,0,0l-5.8,11.1l0,0c-0.3,0.8-0.5,1.6-0.5,2.5
		c0,3.5,2.8,6.3,6.3,6.3s6.3-2.8,6.3-6.3C204,145.1,203.6,143.8,202.9,142.8z"/>
	<path id="XMLID_3_" class="st27" d="M197.5,144.3l-2.3-4.4c0,0,0,0,0,0l-2.5,4.8l0,0c-0.1,0.3-0.2,0.7-0.2,1.1
		c0,1.5,1.2,2.8,2.8,2.8c1.5,0,2.8-1.2,2.8-2.8C198,145.2,197.8,144.7,197.5,144.3z"/>
</g>
</svg>
