<svg version="1.0" id="Calque_1" xmlns="http://www.w3.org/2000/svg" x="0" y="0" viewBox="0 0 300 300" style="enable-background:new 0 0 300 300" xml:space="preserve"><style>.st1{opacity:.1;fill:#fff;enable-background:new}.st2{fill:#010202}.st4{fill:#014c25}.st5{fill:#030405}.st10{fill:#020304}.st13{fill:#d8614e}.st14{fill:#ef795f}.st15{display:none}.st19{display:inline}.st20{opacity:5.000000e-002;fill:#020304;enable-background:new}.st24{stroke:#d8614e;stroke-width:3;stroke-miterlimit:10}.st24,.st25{fill:#fff}</style><g id="Calque_12"><circle id="XMLID_86_" cx="152" cy="147.8" r="114.3"/><g id="backgroundEffect" style="opacity:.5"><g id="Calque_5_-_copie_2_"><path id="XMLID_51_" class="st1" d="M202.1 178.3c5.8-6.5 6.4-9.6 9.2-18.3h5.4c3.9 0 7.5-1.5 10.2-4-.7 1.6-1.6 3.2-2.5 4.8.9-1.6 1.7-3.3 2.5-4.9 1.1-1 2.1-2.3 2.8-3.6.4-.9.9-1.9 1.3-2.8 0-.1.1-.1.1-.1.2-.4.4-.8.5-1.3.1-.1.1-.3.1-.4.1-.4.4-.8.5-1.3.1-.1.1-.3.1-.4.1-.4.4-.8.5-1.3.1-.1.1-.2.1-.4.1-.4.3-.9.4-1.3 0-.1.1-.1.1-.2.7-2 1.3-12.5 1.7-14.6.1-.2.1-.4.1-.6.1-.4.1-.7.2-1 .1-.2.1-.5.1-.7.1-.3.1-.7.1-1 .1-.3.1-.6.1-.9.1-.3.1-.6.1-1 .1-.3.1-.6.1-1 .1-.3.1-.6.1-.9s.1-.7.1-1c0-.3.1-.6.1-.8 0-.4.1-.7.1-1.1 0-.3.1-.5.1-.8 0-.4.1-.8.1-1.3V113.5c0-.9 0-1.8-.1-2.7v-.6c-.1-.9-.1-1.7-.1-2.6v-.3c-.1-.8-.1-1.6-.3-2.5 0-.1 0-.2-.1-.3-.1-.9-.3-1.8-.4-2.7 0-.1 0-.2-.1-.3-.4-1.8-.7-3.6-1.3-5.4 0-.1 0-.1-.1-.1-.5-1.8-1.1-3.6-1.8-5.4-1.9-4.9-4.2-9.5-7.1-13.9l-.1-.1c-.4-.5-.7-1-1-1.5 0-.1-.1-.1-.1-.1-.4-.4-.7-1-1-1.4 0-.1-.1-.1-.1-.1-.4-.4-.7-1-1.1-1.4 0-.1-.1-.1-.1-.1-.4-.4-.7-1-1.1-1.4l-.1-.1c-.4-.4-.8-1-1.2-1.4V69c-4.3-4.9-9.4-9.3-15-13.1h-.1c-.5-.4-1.1-.7-1.6-1.1 0 0-.1 0-.1-.1-.5-.4-1.1-.7-1.7-1h-.1c-.6-.4-1.1-.7-1.7-1C186.4 45.3 170.7 41 154 41c-1.8 0-3.6.1-5.3.1h-.6c-1 .1-2 .1-3.1.2-.1 0-.4 0-.5.1-1 .1-2.1.2-3.1.4-1 .1-2.1.3-3.1.4-.1 0-.3.1-.5.1-1 .1-2 .4-3 .6-.1 0-.2.1-.4.1-2.1.4-4.1 1-6.1 1.5-.1 0-.2.1-.4.1l-3 .9c-.1 0-.1.1-.2.1-2 .7-4 1.4-6 2.2-.1 0-.1.1-.1.1-3 1.3-5.9 2.6-8.6 4.2h-.1c-2.8 1.6-5.5 3.2-8 5.1-6.9 4.6-12.8 10.4-17.7 16.9-.8 1.1-1.6 2.3-2.4 3.5-2.7 4.2-4.9 8.6-6.7 13.1 0 .1-.1.1-.1.2-.2.5-.4 1.1-.6 1.6 0 .1-.1.2-.1.3-.1.5-.4 1.1-.5 1.6 0 .1-.1.2-.1.3-.1.6-.4 1.2-.5 1.8 0 .1 0 .1-.1.1-.4 1.3-.7 2.7-1 4 0 .1 0 .1-.1.2-.1.6-.2 1.1-.3 1.7 0 .2-.1.4-.1.6-.1.4-.1.9-.2 1.4 0 .2-.1 9-.1 9.2-.1.4-.1.9-.1 1.3 0 .2-.1.5-.1.7-.1.4-.1.8-.1 1.3 0 .2-.1.5-.1.7 0 .4-.1.9-.1 1.4v2.7c0 .9 0 1.9.1 2.8v.6c.1.9.1 1.8.2 2.7v.2c.1.8.2 1.7.3 2.5 0 .1.1.3.1.5.1.9.3 1.8.4 2.7 0 .1.1.2.1.3.1.9.4 1.7.6 2.5 0 .1.1.1.1.3.2.9.4 1.8.7 2.7 0 .1.1.1.1.3.3.9.5 1.8.8 2.7.3.9.7 1.8 1 2.7 0 .1 0 .1.1.1.8 2.2 1.8 4.2 2.9 6.3 2.5 4.8 7.5 7.7 13.1 7.7h5.4c2.5 8.1 3.6 10.3 8.9 16.6-14.9 8-29.2 21.6-40.3 37.9C56.8 226.5 101 255 101 255h93.9s53.7-24.2 47.2-35.3c-10.3-17.4-24.4-32.5-40-41.4z"/></g></g><g id="Calque_4_2_"><path id="XMLID_6_" class="st2" d="M234 223.1c-17.5-31.6-47.7-52.5-82.2-52.5-35.2 0-66.1 21.8-83.4 54.6l39.9 30h84.1l41.6-32.1z"/><radialGradient id="XMLID_19_" cx="151.292" cy="215.346" r="61.779" gradientUnits="userSpaceOnUse"><stop offset="0" style="stop-color:#26872f"/><stop offset="1" style="stop-color:#42a784"/></radialGradient><path id="XMLID_49_" d="M229.1 226.9c-16-30.8-44.6-51.3-77.2-51.3-33.4 0-62.5 21.5-78.3 53.4l34.8 26.2h84.1l36.6-28.3z" style="fill:url(#XMLID_19_)"/><g id="圖層_1_6_"><path id="XMLID_48_" class="st4" d="M205.9 196.9c-1.6 1.8-2.9 3.2-3.2 3.6-1.8-.4-3.6-.7-5.4-.1-1.8.6-3.1 2.5-2.5 4.2.3.8.9 1.4 1.4 2.1 1.5 2.1 1.4 5.1-.1 7.1-1.8 2.4-5 3.2-6.8 5.6-1.2 1.6-1.5 3.8-1.6 5.9-.1.9-.1 1.9.2 2.8.4.9 1.2 1.6 2.1 1.4 1.2-.1 1.7-1.5 2.4-2.5 1-1.4 3.3-2.2 4.6-1 2.2 2-1 5.6-.1 8.4.6 1.8 2.7 2.7 4.5 3 2.8.4 5.5.1 8.1-.8.7-.2 1.3-.5 2-.4 1.6.1 2.7 1.9 2.9 3.4s-.1 3.3.3 4.8c.4 1.6 1.9 3.1 3.4 2.6.5-.1 1-.5 1.5-.7 1.7-.4 13.4-10.7 11.1-15.6-6.1-13.3-14.6-24.8-24.8-33.8z"/><path id="XMLID_47_" class="st4" d="M76.9 235.4c1.6-2 4.8-1.9 6.8-.4.6.4 1.2 1 2 1.2 1.6.3 2.8-1.4 3.4-2.8.7-1.5 1.5-3.2 3.1-3.3 2.2-.2 4.1 2.9 6.1 2 1.4-.7 1.3-2.7 1.1-4.2-.3-1.6-.1-3.6 1.4-4.1.5-.1 1 0 1.6 0 1.8 0 3.6-1.5 3.6-3.3 0-1.8-2.1-3.3-3.7-2.6-.5.2-1 .7-1.6.4-.3-.1-.4-.4-.6-.7-1.2-2.1-2.2-5.1-.2-6.5 1.5-1.1 3.8-.3 5.2-1.5 1.3-1.1 1-3.3-.1-4.7s-2.6-2.2-3.8-3.5c-1.1-1.3-1.9-2.8-2.1-4.5-.1-.4-.1-.7 0-1-12.6 10.8-22.9 25.4-29.6 42.4 2.8-1 6.7-2 7.4-2.9z"/><path id="XMLID_46_" class="st4" d="M189.9 250.4c.1-1.3.9-2.6.7-4-.3-3.2-5-4.2-5.7-7.4-.4-1.6.4-3.7-.8-4.9-1.5-1.5-4.2 0-6-1-1.6-1-1.9-3.6-3.7-4.1-1.5-.4-2.8.8-4.3 1.3-2.2.7-4.7-.6-6.1-2.5-.7-1-1.3-2.2-2.5-2.6-2.5-1-5 2.6-7.7 2.2-1.9-.3-3.3-2.5-5.2-2.2-1.7.3-2.4 2.5-2.6 4.2-.2 1.7-6.9-6-8.7-5.9-2.4.2-4.2-3.3-6.5-2.7-2 .6-1.9 3.6-3.3 5-1 1-2.7 1.1-3.9 1.9-2.8 1.7-3 6.2-6 7.4-.9.4-1.9.3-2.8.7-2.2.9-3.1 3.6-3.5 6l-.3.2c.1.9-.9 1.6-1.9 1.6-.9.1-1.9-.3-2.8-.3-1.5 0-2.9.9-3.5 2.3-.3.7.2 5.5 1 9.6h87.5c-.8-1.5-1.6-3.1-1.4-4.8z"/></g><path id="XMLID_45_" class="st5" d="M120.8 255.2h65.1c-19.3-13.4-32.6-37.1-32.6-37.1s-13.2 23.7-32.5 37.1z"/><path id="XMLID_44_" d="M123.8 255.2h59.1c-17.5-13.1-29.5-36.3-29.5-36.3s-12.1 23.2-29.6 36.3z" style="fill:#343434"/><path id="XMLID_43_" d="M134.3 255.2h38.2c-11.3-13.1-19-36.3-19-36.3s-7.9 23.2-19.2 36.3z" style="fill:#a5a3a3"/><g id="Calque_6_2_"><path id="XMLID_42_" class="st5" d="m153.2 214.4-31.5-7.2 10.4 9.2s8.1 5.1 12.4 7.4c5.3 2.8 9 14.1 9 14.1s3.2-11.1 8.5-13.8c4.2-2.2 12.6-7.6 12.6-7.6l10.4-8.8-31.8 6.7z"/><path id="XMLID_41_" d="m153.2 216.6-26.9-6.8 13.7 8.6s5.7 2.9 8.3 4.3c3.3 1.7 5 12.2 5 12.2s1.6-10.5 4.8-12.2c2.6-1.3 8.3-4.3 8.3-4.3l13.4-8.4-26.6 6.6z" style="fill:#848580"/><path id="XMLID_40_" d="m153.2 219.9-10-3.3 5.4 3.3s2 1 2.9 1.6c1.2.6 1.7 7.9 1.7 7.9s.6-7.2 1.7-7.9c.9-.5 2.9-1.6 2.9-1.6l5.4-3.3-10 3.3z" style="fill:#cfcece"/></g><g id="Calque_5_2_"><g id="Calque_9_2_"><path id="XMLID_39_" class="st10" d="M215.1 165.9c5.5 0 10.5-3.1 12.9-8 4.7-9.4 7.4-19.9 7.4-30.8 0-41.1-36.8-74.5-82.1-74.5s-82 33.3-82 74.4c0 11 2.6 21.4 7.4 30.8 2.5 4.9 7.4 8 12.9 8l123.5.1z"/><radialGradient id="XMLID_20_" cx="153.339" cy="192.786" r="66.501" gradientTransform="matrix(1 0 0 -1 0 302)" gradientUnits="userSpaceOnUse"><stop offset="0" style="stop-color:#26872f"/><stop offset="1" style="stop-color:#42a784"/></radialGradient><path id="XMLID_38_" d="M211.6 162.7c5.1 0 9.9-2.9 12.2-7.5 4.5-8.9 6.9-18.7 6.9-29.1 0-38.8-34.7-70.3-77.4-70.3S76 87.2 76 126.1c0 10.3 2.5 20.2 6.9 29.1 2.3 4.6 7.1 7.5 12.2 7.5h116.5z" style="fill:url(#XMLID_20_)"/><g id="圖層_1_2_"><path id="XMLID_37_" class="st4" d="M84.8 93.4c.1.4.2 1-.1 1.3-.1.1-.4.2-.7.3h-.1c-5.1 9.4-8 19.9-8 31 0 8 1.5 15.8 4.2 23 1.1.1 2.2.1 3.1-.3 1.4-.7 1.8-2.6 1.7-4.2-.1-2.3-.7-4.6-1.9-6.6-.3-.5-.6-1-.7-1.6-.1-1.3 1.1-2.5 2.4-2.9 1.3-.4 2.7-.4 3.9-1 1.3-.6 2.2-2 1.6-3.3-.2-.4-.6-.7-.7-1.2-.6-1.3.8-2.7 2.1-3.4 1.3-.7 2.8-1.7 2.7-3.2-.1-1.3-1.6-2-2.3-3.1-1.2-1.8-.1-4.2 1.6-5.5.5-.4 1.2-.7 1.5-1.3.7-1.2-.4-2.6-1.3-3.5s-2.2-2.1-1.9-3.3c.4-1.8 3.4-2.5 3.2-4.3-.1-1.3-1.8-1.8-3.1-2-1.3-.2-3-.9-2.9-2.2 0-.4.3-.8.4-1.3.5-1.4-.2-3.3-1.6-3.7-.6-.2-1.3-.1-1.9.2l-1.2 2.1z"/><path id="XMLID_36_" class="st4" d="M104.8 71.8c-.1.7-.5 1.5-.6 2.2-.2 1.2.4 2.5 1.4 3.2 1 .7 2.5.6 3.5-.1.6-.4 1.1-1.1 1.8-1.5 1.5-.9 3.3-.2 5 .5-.1 1.6-.1 3.1.7 4.5s2.5 2.2 3.9 1.5c.6-.4 1-1 1.5-1.5 1.5-1.6 3.9-1.9 5.9-1 2.2 1.1 3.4 3.6 5.7 4.7 1.6.7 3.3.7 5.1.4.7-.1 1.6-.1 2.2-.6.7-.4 1.1-1.3.9-1.9-.3-1-1.5-1.2-2.5-1.6-1.3-.6-2.4-2.4-1.6-3.6 1.3-2.1 4.8-.1 6.9-1.2 1.4-.7 1.8-2.6 1.7-4.2-.1-2.3-.7-4.6-1.9-6.6-.3-.5-.6-1-.7-1.6-.1-1.3 1.1-2.5 2.4-2.9 1.3-.4 2.7-.4 3.9-1 1.3-.6 2.2-2 1.6-3.3-.1-.1-.1-.3-.2-.4-17.6.4-33.8 6.2-46.6 15.5v.5z"/><path id="XMLID_35_" class="st4" d="M171.7 57.8v.4c.2 1.7 2.7 2 3.7 3.4.7 1 .6 2.4 1 3.5 1 2.5 4.8 3.2 5.4 5.9.1.8 0 1.6.2 2.4.4 2 2.6 3 4.5 3.7l.3.3c.7 0 1.2 1 1.1 1.7-.1.7-.5 1.5-.6 2.2-.2 1.2.4 2.5 1.4 3.2s2.5.6 3.5-.1c.6-.4 1.1-1.1 1.8-1.5 1.5-.9 3.3-.2 5 .5-.1 1.6-.1 3.1.7 4.5.7 1.3 2.5 2.2 3.9 1.5.6-.4 1-1 1.5-1.5 1.5-1.6 3.9-1.9 5.9-1 2.2 1.1 3.4 3.6 5.7 4.7 1.4.7 3.1.7 4.7.5-10.5-16.9-28.4-29.6-49.7-34.3z"/><path id="XMLID_34_" class="st4" d="M226.8 104c-.1.1-.2.2-.3.4-1.2 1-3.3.6-4.2 1.9-.7 1-.1 2.5-.1 3.7-.1 1.9-1.8 3.6-3.6 4.2-1 .3-2.1.4-2.8 1.3-1.5 1.7.7 4.6-.4 6.7-.7 1.4-2.8 1.9-3.1 3.5-.2 1.5 1.3 2.5 2.6 3.2s2.9 1.6 2.8 3.1c-.1 2-3.3 3-3.1 5 .2 1.7 2.7 2 3.7 3.4.7 1 .6 2.4 1 3.5 1 2.5 4.8 3.2 5.4 5.9.1.8 0 1.6.2 2.4 0 .1.1.3.1.4 3.6-8.2 5.7-17 5.7-26.4 0-7.9-1.3-15.2-3.9-22.2z"/></g><path id="XMLID_33_" class="st1" d="M187.3 81.4c36.7 20.6 49.1 48.8 31.6 82.1 17.7-33.6 15.8-72.5-25.4-95.8-37.2-21-80.1-9.3-105.2 20.2 25.1-29.3 61.7-27.5 99-6.5z"/><path id="XMLID_32_" d="M192.4 75c36.7 20.6 44 55.2 26.5 88.5 17.7-33.6 15.8-72.5-25.4-95.8-37.2-21-80.1-9.3-105.2 20.2C113.4 58.6 155.1 54 192.4 75z" style="opacity:.2;fill:#fff;enable-background:new"/></g><path id="XMLID_31_" class="st2" d="M212.6 142.8c0 35.6-26.6 64.4-59.2 64.4s-59.2-28.9-59.2-64.4c0-7.5 1.2-14.7 3.3-21.5 8.1-25 30.1-12 55.9-12 26.2 0 48.4-12.5 56.2 13.1 1.9 6.4 3 13.3 3 20.4z"/><path id="XMLID_30_" class="st13" d="M207.1 144.1c0 32.3-24.1 58.6-53.8 58.6s-53.8-26.2-53.8-58.6c0-6.8 1-13.4 3.1-19.5 7.4-22.8 27.3-10.9 50.7-10.9 23.7 0 43.9-11.3 51 11.9 1.9 5.7 2.8 12 2.8 18.5z"/><path id="XMLID_29_" class="st14" d="M200.8 144.1c0 31.2-22.5 58.3-48.8 58.3s-46.2-27.1-46.2-58.3c0-6.6 1-12.9 2.7-18.8 6.5-21.9 24.1-8.3 44.8-8.3 21 0 38.8-13.2 45.1 9.2 1.6 5.7 2.4 11.6 2.4 17.9z"/><path id="XMLID_24_" class="st10" d="M157.8 168h-9.5c-.7 0-1.4-.4-1.7-1l-5.1-8.9c-.7-1.3.2-3 1.7-3h2.5l7.7 2.5 7.6-2.5h2.4c1.6 0 2.5 1.7 1.7 3.1l-5.6 8.9c-.4.6-1 .9-1.7.9z"/><path id="XMLID_23_" class="st14" d="M156.6 165.1h-7.1c-.7 0-1.4-.4-1.8-1l-4.9-8.9c-.7-1.3.1-1.8 1.7-1.8h17c2.1 0 2.9.4 2.1 1.8l-5.3 9c-.3.5-.9.9-1.7.9z"/><path id="XMLID_11_" d="M181.5 132.5H172c-2 0-4 .3-5.9.9l-8.3 2.7c-3.1 1-6.7 1-9.8.1l-10-3.1c-1.2-.4-2.5-.6-3.8-.6h-12.1c-1.7 0-3.1-1-3.1-2.3 0-1.3 1.4-2.3 3.1-2.3h12.4c1.3 0 2.7.2 3.9.6l9.7 3.1c3.2 1 6.8 1 10-.1l7.7-2.5c2-.7 4.2-1 6.5-1h9.4c1.7 0 3.1 1 3.1 2.3-.2 1.2-1.6 2.2-3.3 2.2z"/><path id="XMLID_10_" class="st13" d="M128.3 162.9h-9.7c-1.3 0-2.2-1-2.2-2.2 0-1.3 1-2.2 2.2-2.2h9.7c1.3 0 2.2 1 2.2 2.2.1 1.2-1 2.2-2.2 2.2z"/><path id="XMLID_9_" class="st13" d="M188.2 162.2h-9.7c-1.3 0-2.2-1-2.2-2.2 0-1.3 1-2.2 2.2-2.2h9.7c1.3 0 2.2 1 2.2 2.2.1 1.3-1 2.2-2.2 2.2z"/></g></g><circle id="XMLID_4_" cx="152" cy="147.8" r="114.3" style="fill:none;stroke:#0b0b0c;stroke-width:19;stroke-miterlimit:10"/><circle id="XMLID_195_" cx="152" cy="147.8" r="114.3" style="fill:none;stroke:#ddd;stroke-width:6;stroke-miterlimit:10"/><g id="expression"><path id="XMLID_8_" d="M144.2 186.3c1.7-2.1 6.1-3.7 8.8-3.8 4.6-.2 7.1.9 8.8 2.9" style="fill:none;stroke:#010202;stroke-width:3;stroke-miterlimit:10"/><path id="XMLID_7_" class="st13" d="m155.9 189.1-6 .3c-1 .1-1.8-.7-1.9-1.7-.1-1 .7-1.8 1.7-1.9l6-.3c1-.1 1.8.7 1.9 1.7 0 1-.8 1.8-1.7 1.9z"/><path id="XMLID_5_" class="st24" d="m177.7 145.3 4-4c.9-.9.9-2.4 0-3.4-.9-.9-2.4-.9-3.4 0l-4 4-4-4c-.9-.9-2.4-.9-3.4 0-.9.9-.9 2.4 0 3.4l4 4-4 4c-.9.9-.9 2.4 0 3.4.9.9 2.4.9 3.4 0l4-4 4 4c.9.9 2.4.9 3.4 0 .9-.9.9-2.4 0-3.4l-4-4z"/><path id="XMLID_1_" class="st25" d="m177.7 145.3 4-4c.9-.9.9-2.4 0-3.4-.9-.9-2.4-.9-3.4 0l-4 4-4-4c-.9-.9-2.4-.9-3.4 0-.9.9-.9 2.4 0 3.4l4 4-4 4c-.9.9-.9 2.4 0 3.4.9.9 2.4.9 3.4 0l4-4 4 4c.9.9 2.4.9 3.4 0 .9-.9.9-2.4 0-3.4l-4-4z"/><path id="XMLID_18_" class="st24" d="m135.7 145.3 4-4c.9-.9.9-2.4 0-3.4-.9-.9-2.4-.9-3.4 0l-4 4-4-4c-.9-.9-2.4-.9-3.4 0-.9.9-.9 2.4 0 3.4l4 4-4 4c-.9.9-.9 2.4 0 3.4.9.9 2.4.9 3.4 0l4-4 4 4c.9.9 2.4.9 3.4 0 .9-.9.9-2.4 0-3.4l-4-4z"/><path id="XMLID_16_" class="st25" d="m135.7 145.3 4-4c.9-.9.9-2.4 0-3.4-.9-.9-2.4-.9-3.4 0l-4 4-4-4c-.9-.9-2.4-.9-3.4 0-.9.9-.9 2.4 0 3.4l4 4-4 4c-.9.9-.9 2.4 0 3.4.9.9 2.4.9 3.4 0l4-4 4 4c.9.9 2.4.9 3.4 0 .9-.9.9-2.4 0-3.4l-4-4z"/></g><path id="XMLID_17_" d="m202.9 142.8-5.2-10-5.8 11.1c-.3.8-.5 1.6-.5 2.5 0 3.5 2.8 6.3 6.3 6.3s6.3-2.8 6.3-6.3c0-1.3-.4-2.6-1.1-3.6z" style="fill:#009fe3;stroke:#272e59;stroke-width:2;stroke-miterlimit:10"/><path id="XMLID_3_" d="m197.5 144.3-2.3-4.4-2.5 4.8c-.1.3-.2.7-.2 1.1 0 1.5 1.2 2.8 2.8 2.8 1.5 0 2.8-1.2 2.8-2.8-.1-.6-.3-1.1-.6-1.5z" style="fill:#74cbf0"/></g></svg>