<?xml version="1.0" encoding="utf-8"?>
<!-- Generator: Adobe Illustrator 19.0.0, SVG Export Plug-In . SVG Version: 6.00 Build 0)  -->
<svg version="1.0" id="Calque_1" xmlns="http://www.w3.org/2000/svg" xmlns:xlink="http://www.w3.org/1999/xlink" x="0px" y="0px"
	 viewBox="0 0 36 36" style="enable-background:new 0 0 36 36;" xml:space="preserve">
<style type="text/css">
	.st0{display:none;}
	.st1{display:none;fill:none;stroke:#FFFFFF;stroke-miterlimit:10;}
	.st2{fill:none;stroke:#FFFFFF;stroke-miterlimit:10;}
	.st3{display:inline;fill:none;stroke:#FFFFFF;stroke-miterlimit:10;}
	.st4{display:inline;}
	.st5{fill:none;stroke:#FFFFFF;stroke-width:0.75;stroke-miterlimit:10;}
	.st6{display:inline;fill:none;stroke:#FFFFFF;stroke-width:0.75;stroke-miterlimit:10;}
</style>
<rect id="XMLID_2_" class="st0" width="36" height="36"/>
<path id="hexa" class="st1" d="M9.6,29.3L4,19.6c-0.6-1-0.6-2.2,0-3.2l5.6-9.7c0.6-1,1.6-1.6,2.8-1.6h11.2c1.1,0,2.2,0.6,2.8,1.6
	l5.6,9.7c0.6,1,0.6,2.2,0,3.2l-5.6,9.7c-0.6,1-1.6,1.6-2.8,1.6H12.4C11.3,30.9,10.2,30.3,9.6,29.3z"/>
<g id="Power">
	<polygon id="XMLID_3_" class="st2" points="20.2,5.9 8.4,19.8 17,19.8 14.9,30 26.9,16.2 18,16.2 	"/>
</g>
<g id="diamond" class="st0">
	<path id="XMLID_430_" class="st3" d="M30,15L19,30.1c-0.5,0.6-1.4,0.6-1.9,0L6,15c-0.3-0.4-0.3-0.9,0-1.3l3.3-5.1
		C9.5,8.2,9.8,8,10.2,8l15.7,0c0.4,0,0.8,0.2,1,0.6l3.1,5.1C30.3,14.1,30.3,14.6,30,15z"/>
	<line id="XMLID_4_" class="st3" x1="18" y1="30.6" x2="9.7" y2="8.4"/>
	<line id="XMLID_5_" class="st3" x1="26.4" y1="8" x2="18" y2="30.6"/>
	<line id="XMLID_6_" class="st3" x1="5.7" y1="14.4" x2="30.3" y2="14.4"/>
	<line id="XMLID_7_" class="st3" x1="12.1" y1="14.4" x2="18.1" y2="8"/>
	<line id="XMLID_8_" class="st3" x1="18.1" y1="8" x2="24.1" y2="14.4"/>
</g>
<g id="tank" class="st0">
	<g id="圖層_22_2_" class="st4">
		<path id="XMLID_32_" class="st5" d="M28.4,26.6h1.2c0.2,0,0.4-0.2,0.4-0.4V10.5c0-0.2-0.2-0.4-0.4-0.4h-1.2V26.6z"/>
		<path id="XMLID_31_" class="st5" d="M7.5,26.7H6.5c-0.2,0-0.4-0.2-0.4-0.4V10.6c0-0.2,0.2-0.4,0.4-0.4h1.1V26.7z"/>
	</g>
	<polygon id="XMLID_30_" class="st6" points="24.2,26.7 22.6,26.7 22.6,26.7 22.6,26.1 20.4,26.1 20.4,26.1 20.4,26.7 16.2,26.7 
		16.2,26.1 14.1,26.1 14.1,26.7 11.8,26.7 11.9,26.7 11.9,24.1 24.2,24.1 	"/>
	<polygon id="XMLID_29_" class="st6" points="11.9,10.2 16.1,10.2 16.1,7.8 19.9,7.8 19.9,10.2 24.2,10.2 24.2,24.8 11.9,24.8 	"/>
	<path id="XMLID_28_" class="st6" d="M27.9,27.8h-3.4c-0.2,0-0.4-0.2-0.4-0.4V9.6c0-0.2,0.2-0.4,0.4-0.4h3.4c0.2,0,0.4,0.2,0.4,0.4
		v17.8C28.4,27.6,28.2,27.8,27.9,27.8z"/>
	<path id="XMLID_27_" class="st6" d="M7.6,27.7c-0.1-0.1-0.1-0.2-0.1-0.4V9.5C7.5,9.2,7.8,9,8.1,9h3.4c0.3,0,0.5,0.3,0.5,0.5v17.8
		c0,0.3-0.3,0.5-0.5,0.5H8.1C8.1,27.8,7.7,27.8,7.6,27.7z"/>
	<polyline id="XMLID_26_" class="st6" points="12.2,10.2 16.1,10.2 16.1,7.8 19.9,7.8 19.9,10.2 23.9,10.2 	"/>
	<path id="XMLID_25_" class="st6" d="M23.9,25.5"/>
	<path id="XMLID_24_" class="st6" d="M12.2,25.5"/>
	<g id="upside_2_" class="st4">
		<path id="XMLID_23_" class="st5" d="M15.2,20.9l-1.3-1.5c-0.4-0.5-0.4-1.3,0-1.9l1.3-1.5c0.2-0.3,0.6-0.4,0.9-0.4h3.8
			c0.4,0,0.7,0.2,0.9,0.4l1.3,1.5c0.4,0.5,0.4,1.3,0,1.9l-1.3,1.5c-0.2,0.3-0.6,0.4-0.9,0.4h-3.8C15.7,21.3,15.4,21.2,15.2,20.9z"/>
		<rect id="XMLID_22_" x="16.1" y="7.8" class="st5" width="3.9" height="5.8"/>
		<rect id="XMLID_20_" x="15.4" y="13.6" class="st5" width="5.2" height="1.9"/>
		<rect id="XMLID_19_" x="15.3" y="5.8" class="st5" width="5.5" height="2"/>
	</g>
</g>
</svg>
