<?xml version="1.0" encoding="utf-8"?>
<!-- Generator: Adobe Illustrator 19.0.0, SVG Export Plug-In . SVG Version: 6.00 Build 0)  -->
<svg version="1.0" id="Calque_1" xmlns="http://www.w3.org/2000/svg" xmlns:xlink="http://www.w3.org/1999/xlink" x="0px" y="0px"
	 viewBox="0 0 300 195.2" style="enable-background:new 0 0 300 195.2;" xml:space="preserve">
<style type="text/css">
	.st0{opacity:0.25;fill:#030405;enable-background:new    ;}
	.st1{fill:url(#XMLID_5_);stroke:#3B1913;stroke-width:3;stroke-miterlimit:10;}
	.st2{fill:url(#XMLID_7_);stroke:#3B1913;stroke-width:3;stroke-miterlimit:10;}
	.st3{opacity:0.25;}
	.st4{fill:#030405;}
	.st5{fill:url(#XMLID_8_);}
	.st6{fill:none;stroke:#3C1912;stroke-width:3;stroke-miterlimit:10;}
	.st7{fill:#FFFFFF;}
	.st8{fill:#DADADA;}
	.st9{fill:#E5E5E4;}
	.st10{fill:none;stroke:#3B1913;stroke-width:3;stroke-miterlimit:10;}
	.st11{fill:#3B1913;}
	.st12{font-family:'Impact';}
	.st13{font-size:12px;}
</style>
<g id="Calque_2">
	<g id="Calque_39">
		<path id="XMLID_263_" class="st0" d="M228.9,164.6l25.2,7.3c2.7,0.8,11.9,2.4,13.7,0.3c1.1-1.3-6.5-7.3-7.9-8.1l-8-6.3
			c-2.1-2.2-3.5-4.2,0.9-6.3l8.1-1.1c6.1-0.7,13.4-0.3,13.2-2c-0.4-2.8-8.9-4.3-11.7-5.1l-25.2-7.3c-5.1-1.5-10.5,1.7-12,7l-2.7,9.3
			c-0.8,2.8-2.4,6.6-1.1,8.9C222.5,163.2,226.5,163.9,228.9,164.6z"/>
		
			<linearGradient id="XMLID_5_" gradientUnits="userSpaceOnUse" x1="270.2935" y1="17072.9844" x2="217.0979" y2="17072.9844" gradientTransform="matrix(1 0 0 1 0 -16923.8906)">
			<stop  offset="0" style="stop-color:#EB5959"/>
			<stop  offset="8.947212e-002" style="stop-color:#D74746"/>
			<stop  offset="0.2307" style="stop-color:#BE3532"/>
			<stop  offset="0.3825" style="stop-color:#AC2A23"/>
			<stop  offset="0.5477" style="stop-color:#9F211D"/>
			<stop  offset="0.7363" style="stop-color:#981C1A"/>
			<stop  offset="1" style="stop-color:#951919"/>
		</linearGradient>
		<path id="XMLID_262_" class="st1" d="M225.1,159.3l25.2,7.3c2.7,0.8,11.9,2.4,13.7,0.3c1.1-1.3-6.5-7.3-7.9-8.1l-8-6.3
			c-2.1-2.2-3.5-4.2,0.9-6.3l8.1-1.1c6.1-0.7,13.4-0.3,13.2-2c-0.4-2.8-8.9-4.3-11.7-5.1l-25.2-7.3c-5.1-1.5-10.5,1.7-12,7l-2.7,9.3
			c-0.8,2.8-2.4,6.6-1.1,8.9C218.7,157.9,222.7,158.6,225.1,159.3z"/>
		<path id="XMLID_261_" class="st0" d="M70.9,163.7L45.8,171c-2.7,0.8-11.9,2.4-13.7,0.3c-1.1-1.3,6.5-7.3,7.9-8.1l8-6.3
			c2.1-2.2,3.5-4.2-0.9-6.3l-8.1-1.1c-6.1-0.7-13.4-0.3-13.2-2c0.4-2.8,8.9-4.3,11.7-5.1l25.2-7.3c5.1-1.5,10.5,1.7,12,7l2.7,9.3
			c0.8,2.8,2.4,6.6,1.1,8.9C77.3,162.4,73.4,163,70.9,163.7z"/>
		
			<linearGradient id="XMLID_7_" gradientUnits="userSpaceOnUse" x1="239.144" y1="47.9154" x2="185.9484" y2="47.9154" gradientTransform="matrix(-1 0 0 -1 268.7847 196.11)">
			<stop  offset="0" style="stop-color:#EB5959"/>
			<stop  offset="8.947212e-002" style="stop-color:#D74746"/>
			<stop  offset="0.2307" style="stop-color:#BE3532"/>
			<stop  offset="0.3825" style="stop-color:#AC2A23"/>
			<stop  offset="0.5477" style="stop-color:#9F211D"/>
			<stop  offset="0.7363" style="stop-color:#981C1A"/>
			<stop  offset="1" style="stop-color:#951919"/>
		</linearGradient>
		<path id="XMLID_260_" class="st2" d="M74.7,158.4l-25.2,7.3c-2.7,0.8-11.9,2.4-13.7,0.3c-1.1-1.3,6.5-7.3,7.9-8.1l8-6.3
			c2.1-2.2,3.5-4.2-0.9-6.3l-8.1-1.1c-6.1-0.7-13.4-0.3-13.2-2c0.4-2.8,8.9-4.3,11.7-5.1l25.2-7.3c5.1-1.5,10.5,1.7,12,7l2.7,9.3
			c0.8,2.8,2.4,6.6,1.1,8.9C81.1,157,77.2,157.7,74.7,158.4z"/>
		<g id="XMLID_257_" class="st3">
			<path id="XMLID_271_" class="st4" d="M224.6,154.1c-48.7-13.5-100.1-13.5-148.8,0c-6.4,1.8-13.4-1.6-15.5-7.9c-1-3.1-2-6.1-3-9.2
				c-2.1-6.3,2.1-13.3,9.5-15.4c54.5-15.1,112.2-15.1,166.7,0c7.3,2,11.6,9.1,9.5,15.4c-1,3.1-2,6.1-3,9.2
				C238,152.4,231.1,155.8,224.6,154.1z"/>
		</g>
		<g id="XMLID_34_">
			
				<radialGradient id="XMLID_8_" cx="150.295" cy="67.5683" r="67.8625" gradientTransform="matrix(1 0 0 -1 0 196.11)" gradientUnits="userSpaceOnUse">
				<stop  offset="0" style="stop-color:#EB5959"/>
				<stop  offset="1" style="stop-color:#951919"/>
			</radialGradient>
			<path id="XMLID_51_" class="st5" d="M225.2,149.6c-49-13.6-100.8-13.6-149.8,0c-6.4,1.8-13.4-1.6-15.5-7.9
				c-0.9-2.7-1.7-5.3-2.6-8c-2.1-6.3,2.1-13.3,9.4-15.4c54.7-15.2,112.4-15.2,167.1,0c7.3,2,11.5,9.1,9.4,15.4
				c-0.9,2.7-1.7,5.3-2.6,8C238.5,148,231.6,151.4,225.2,149.6z"/>
			<path id="XMLID_50_" class="st6" d="M225.2,149.6c-49-13.6-100.8-13.6-149.8,0c-6.4,1.8-13.4-1.6-15.5-7.9
				c-0.9-2.7-1.7-5.3-2.6-8c-2.1-6.3,2.1-13.3,9.4-15.4c54.7-15.2,112.4-15.2,167.1,0c7.3,2,11.5,9.1,9.4,15.4
				c-0.9,2.7-1.7,5.3-2.6,8C238.5,148,231.6,151.4,225.2,149.6z"/>
		</g>
		<g id="XMLID_26_">
			<g id="XMLID_138_">
				<path id="XMLID_158_" class="st7" d="M102.5,119.4c1.5-0.3,2.9-0.5,4.4-0.7c1.2-0.2,2.1-0.2,2.8-0.2c0.7,0.1,1.2,0.3,1.5,0.5
					c0.4,0.3,0.6,0.7,0.8,1.1c0.2,0.5,0.3,1.2,0.5,2.1c0.1,0.5,0.1,0.9,0.2,1.4c0.1,1,0.1,1.7,0,2.2s-0.5,0.9-1,1.2
					s-1.3,0.6-2.2,0.7c-0.4,0.1-0.8,0.1-1.1,0.2c0.3,2.1,0.7,4.2,1,6.3c-1.4,0.2-2.7,0.4-4.1,0.7
					C104.3,129.8,103.4,124.6,102.5,119.4z M107.3,121.4c0.2,1.3,0.4,2.6,0.6,4c0.1,0,0.2,0,0.3,0c0.4-0.1,0.6-0.2,0.8-0.4
					c0.1-0.2,0.1-0.6,0.1-1.2c-0.1-0.4-0.1-0.9-0.2-1.3c-0.1-0.5-0.2-0.9-0.4-1C108.2,121.3,107.8,121.3,107.3,121.4z"/>
				<path id="XMLID_155_" class="st7" d="M113.1,117.8c1-0.1,2.1-0.3,3.1-0.4c2.1-0.3,3.5-0.3,4.2-0.3c0.7,0.1,1.4,0.4,1.9,1
					s0.8,1.5,1,2.9c0.1,1.2,0,2.1-0.2,2.5c-0.3,0.5-0.9,0.8-1.8,1c0.9,0.1,1.5,0.3,1.8,0.6s0.5,0.6,0.6,0.9c0.1,0.3,0.2,1,0.3,2.3
					c0.1,1.4,0.3,2.8,0.4,4.1c-1.3,0.1-2.5,0.3-3.8,0.4c-0.2-1.7-0.4-3.5-0.6-5.2c-0.1-0.8-0.2-1.4-0.4-1.5
					c-0.2-0.2-0.5-0.2-1.1-0.2c0.3,2.4,0.6,4.7,0.8,7.1c-1.4,0.2-2.7,0.3-4.1,0.5C114.5,128.2,113.8,123,113.1,117.8z M117.8,119.9
					c0.1,1.2,0.3,2.3,0.4,3.5c0.5-0.1,0.8-0.2,1-0.3s0.2-0.6,0.1-1.3c0-0.3-0.1-0.6-0.1-0.9c-0.1-0.5-0.2-0.8-0.4-0.9
					C118.6,119.9,118.3,119.8,117.8,119.9z"/>
				<path id="XMLID_152_" class="st7" d="M135.1,124.9c0.1,1.6,0.1,2.7,0.1,3.4s-0.2,1.3-0.6,1.9c-0.4,0.6-0.9,1-1.5,1.4
					c-0.7,0.3-1.4,0.5-2.3,0.6c-0.8,0.1-1.6,0-2.3-0.2s-1.3-0.6-1.7-1.1c-0.5-0.5-0.8-1.1-0.9-1.7c-0.1-0.6-0.3-1.8-0.4-3.4
					c-0.1-0.9-0.2-1.8-0.3-2.7c-0.1-1.6-0.2-2.7-0.2-3.4s0.2-1.3,0.6-1.9c0.4-0.6,0.9-1.1,1.6-1.4c0.7-0.4,1.5-0.6,2.5-0.6
					c0.9-0.1,1.7,0,2.5,0.2c0.7,0.2,1.3,0.6,1.8,1.1s0.8,1.1,0.9,1.8c0.1,0.6,0.2,1.8,0.3,3.4C134.9,123.1,135,124,135.1,124.9z
					 M130.4,120c-0.1-0.7-0.1-1.2-0.2-1.4c-0.1-0.2-0.3-0.3-0.6-0.3c-0.2,0-0.4,0.1-0.5,0.3s-0.1,0.7-0.1,1.5
					c0.2,2.5,0.4,4.9,0.6,7.4c0.1,0.9,0.2,1.5,0.2,1.7c0.1,0.2,0.3,0.3,0.6,0.3s0.5-0.2,0.5-0.4c0.1-0.3,0.1-0.8,0-1.8
					C130.8,124.9,130.6,122.5,130.4,120z"/>
				<path id="XMLID_150_" class="st7" d="M146.3,121.1c-1.4,0-2.9,0.1-4.3,0.1c0-0.5,0-1,0-1.4c0-0.9-0.1-1.5-0.2-1.7
					c-0.1-0.2-0.3-0.3-0.6-0.3s-0.4,0.1-0.5,0.3s-0.1,0.7-0.1,1.5c0.1,2.5,0.2,5.1,0.3,7.6c0,0.7,0.1,1.2,0.2,1.4
					c0.1,0.2,0.3,0.3,0.6,0.3s0.5-0.1,0.6-0.4c0.1-0.3,0.1-0.8,0.1-1.5c0-0.6,0-1.2-0.1-1.9c-0.3,0-0.6,0-0.9,0
					c0-0.8-0.1-1.6-0.1-2.4c1.7-0.1,3.3-0.1,5-0.1c0,2.8,0.1,5.7,0.1,8.5c-0.9,0-1.7,0-2.6,0.1c-0.1-0.4-0.3-0.7-0.4-1.1
					c-0.3,0.5-0.6,0.9-1,1.1c-0.4,0.3-0.9,0.4-1.5,0.4c-0.7,0-1.3-0.1-2-0.4c-0.6-0.3-1.1-0.7-1.4-1.2c-0.3-0.5-0.6-1-0.7-1.5
					c-0.1-0.5-0.2-1.4-0.2-2.4c-0.1-1.6-0.2-3.1-0.2-4.7c-0.1-1.5-0.1-2.6,0.1-3.3c0.1-0.7,0.6-1.3,1.4-2c0.8-0.6,1.8-0.9,3.2-1
					c1.3,0,2.4,0.2,3.2,0.6c0.9,0.5,1.4,1.1,1.7,1.7c0.3,0.7,0.4,1.7,0.4,3C146.3,120.6,146.3,120.9,146.3,121.1z"/>
				<path id="XMLID_147_" class="st7" d="M147.9,115.2c1,0,2.1,0,3.1,0c2.1,0,3.5,0.1,4.2,0.3s1.3,0.6,1.8,1.2
					c0.4,0.6,0.6,1.6,0.6,3c0,1.2-0.2,2.1-0.5,2.5s-1,0.7-1.9,0.7c0.8,0.2,1.4,0.5,1.7,0.8s0.5,0.7,0.5,0.9c0.1,0.3,0.1,1.1,0,2.3
					c0,1.4-0.1,2.8-0.1,4.2c-1.3,0-2.6-0.1-3.8-0.1c0-1.8,0-3.5,0.1-5.3c0-0.8-0.1-1.4-0.2-1.6c-0.1-0.2-0.5-0.3-1.1-0.3
					c0,2.4,0,4.8,0,7.1c-1.4,0-2.8,0-4.1,0C148,125.8,147.9,120.5,147.9,115.2z M152.2,117.9c0,1.2,0,2.3,0,3.5c0.5,0,0.8-0.1,1-0.2
					c0.2-0.1,0.3-0.5,0.3-1.2c0-0.3,0-0.6,0-0.9c0-0.5-0.1-0.8-0.3-1C153.1,118,152.7,117.9,152.2,117.9z"/>
				<path id="XMLID_144_" class="st7" d="M166.9,115.7c0.5,5.3,1,10.6,1.4,15.9c-1.4-0.1-2.8-0.2-4.2-0.2c0-0.9-0.1-1.9-0.1-2.8
					c-0.5,0-1,0-1.5-0.1c-0.1,0.9-0.3,1.9-0.4,2.8c-1.4-0.1-2.8-0.1-4.3-0.2c0.8-5.2,1.7-10.5,2.7-15.7
					C162.7,115.5,164.8,115.6,166.9,115.7z M164.1,125.7c-0.1-1.8-0.2-4-0.3-6.7c-0.6,3-0.9,5.2-1.1,6.6
					C163.1,125.7,163.6,125.7,164.1,125.7z"/>
				<path id="XMLID_142_" class="st7" d="M183.6,117.2c-0.6,5.2-1.2,10.5-1.9,15.7c-1.2-0.1-2.4-0.3-3.6-0.4
					c0.4-3.5,0.7-7.1,1.1-10.6c-0.9,3.5-1.7,7-2.5,10.5c-0.9-0.1-1.7-0.2-2.6-0.2c-0.2-3.5-0.4-7-0.6-10.5
					c-0.3,3.5-0.6,6.9-0.9,10.4c-1.2-0.1-2.4-0.2-3.6-0.3c0.4-5.3,0.7-10.5,1.1-15.8c1.9,0.1,3.8,0.3,5.7,0.4c0.1,1,0.2,2.1,0.2,3.4
					c0.1,1.4,0.2,2.7,0.2,4.1c0.6-2.4,1.1-4.8,1.7-7.3C179.8,116.7,181.7,116.9,183.6,117.2z"/>
				<path id="XMLID_139_" class="st7" d="M198.3,123.5c-1.4-0.2-2.7-0.5-4.1-0.7c0.1-0.7,0.2-1.2,0.2-1.4s0-0.4-0.2-0.5
					c-0.1-0.2-0.3-0.2-0.6-0.3c-0.2,0-0.4,0-0.5,0.1c-0.2,0.1-0.3,0.2-0.3,0.4c-0.1,0.2-0.1,0.6-0.2,1.2c-0.1,0.8-0.3,1.7-0.4,2.5
					c0.3-0.4,0.6-0.7,1.1-0.8c0.4-0.1,1-0.2,1.5-0.1c0.7,0.1,1.4,0.4,1.9,0.9s0.8,1,0.8,1.6c0.1,0.6,0,1.3-0.2,2.2
					c-0.1,0.4-0.1,0.8-0.2,1.2c-0.2,1.1-0.4,1.9-0.6,2.4c-0.2,0.5-0.5,1-0.9,1.4s-1,0.7-1.7,0.8s-1.4,0.1-2.3,0
					c-1.1-0.2-1.9-0.4-2.5-0.8c-0.6-0.4-1.1-0.9-1.4-1.5c-0.3-0.6-0.4-1.2-0.4-1.8s0.1-1.8,0.4-3.5c0.1-0.7,0.2-1.4,0.3-2.2
					c0.3-1.9,0.5-3.1,0.6-3.7c0.1-0.6,0.5-1.2,1-1.7s1.1-0.8,1.9-1c0.8-0.2,1.6-0.2,2.6,0c1.2,0.2,2.1,0.5,2.8,1s1.1,1.1,1.3,1.8
					C198.4,121.7,198.4,122.6,198.3,123.5z M193.4,127.7c0.1-0.6,0.1-0.9,0-1.2c-0.1-0.2-0.3-0.4-0.6-0.4s-0.5,0-0.7,0.2
					s-0.3,0.6-0.4,1.1c-0.1,0.9-0.3,1.9-0.4,2.8c-0.1,0.7-0.1,1.1,0,1.4c0.1,0.2,0.3,0.4,0.6,0.4c0.2,0,0.4,0,0.6-0.2
					c0.2-0.1,0.4-0.6,0.5-1.3C193.1,129.7,193.2,128.7,193.4,127.7z"/>
			</g>
		</g>
	</g>
</g>
<g id="Layer_3">
	<path id="XMLID_2_" class="st8" d="M168.3,159.3h-36c-3.4,0-6.1-2.7-6.1-6.1v-9.7c0-3.4,2.7-6.1,6.1-6.1h36c3.4,0,6.1,2.7,6.1,6.1
		v9.7C174.4,156.5,171.7,159.3,168.3,159.3z"/>
	<path id="XMLID_6_" class="st9" d="M168.3,137.3h-36c-3.4,0-6.1,2.7-6.1,6.1v9.7c0,2.1,1.1,4,2.8,5.1c2.7-7.1,11.2-12.3,21.3-12.3
		s18.6,5.2,21.3,12.3c1.7-1.1,2.8-3,2.8-5.1v-9.7C174.4,140.1,171.7,137.3,168.3,137.3z"/>
	<path id="XMLID_3_" class="st10" d="M168.3,159.3h-36c-3.4,0-6.1-2.7-6.1-6.1v-9.7c0-3.4,2.7-6.1,6.1-6.1h36c3.4,0,6.1,2.7,6.1,6.1
		v9.7C174.4,156.5,171.7,159.3,168.3,159.3z"/>
	<text id="XMLID_1_" transform="matrix(1 0 0 1 140.55 153.1265)" class="st11 st12 st13">DEV</text>
</g>
</svg>
