<?xml version="1.0" encoding="utf-8"?>
<!-- Generator: Adobe Illustrator 19.0.0, SVG Export Plug-In . SVG Version: 6.00 Build 0)  -->
<svg version="1.1" xmlns="http://www.w3.org/2000/svg" xmlns:xlink="http://www.w3.org/1999/xlink" x="0px" y="0px"
	 viewBox="0 0 300 300" style="enable-background:new 0 0 300 300;" xml:space="preserve">
<style type="text/css">
	.st0{display:none;}
	.st1{display:inline;fill:#616160;}
	.st2{display:inline;fill:#E2E2E1;}
	.st3{display:none;fill:#98C33F;}
	.st4{display:none;opacity:0.5;fill:#D7DE69;}
	.st5{display:none;opacity:0.25;fill:#36491E;}
	.st6{opacity:0.25;fill:#353535;}
	.st7{fill:#141414;}
	.st8{fill:url(#XMLID_8_);}
	.st9{opacity:0.1;fill:#020304;}
	.st10{display:none;opacity:0.5;fill:url(#XMLID_9_);}
	.st11{opacity:0.33;fill:#2D0E0F;}
	.st12{fill:url(#XMLID_10_);}
	.st13{fill:url(#XMLID_11_);}
	.st14{opacity:0.15;fill:#FFFFFF;}
	.st15{fill:#661718;}
	.st16{display:none;fill:#661718;}
	.st17{display:none;fill:#D3D3D1;}
	.st18{fill:url(#XMLID_13_);}
	.st19{fill:#D8D8D8;}
	.st20{fill:url(#XMLID_16_);}
	.st21{fill:#222223;}
	.st22{fill:url(#XMLID_18_);}
	.st23{fill:#310F0F;}
	.st24{fill:#DDDDDD;}
	.st25{display:none;opacity:0.85;fill:#310F0F;}
	.st26{fill:#B2302F;}
	.st27{fill:url(#XMLID_21_);}
	.st28{fill:#3C1112;}
	.st29{fill:url(#XMLID_22_);}
	.st30{fill:#CFCECE;}
</style>
<g id="Calque_1" class="st0">
	<polygon id="XMLID_1_" class="st1" points="104.4,225 58.8,146 104.4,67 195.6,67 241.2,146 195.6,225 	"/>
	<polygon id="XMLID_2_" class="st2" points="117.7,202 85.4,146 117.7,90 182.3,90 214.6,146 182.3,202 	"/>
</g>
<g id="Calque_1_-_copie">
	<polygon id="XMLID_14_" class="st3" points="149.6,284.4 3,176.1 149.6,123.9 290,168.7 	"/>
	<polygon id="XMLID_20_" class="st3" points="150.2,299.7 52.8,227.8 -24.3,170.8 150.2,108.6 317.4,162 245.8,221 	"/>
	<path id="XMLID_6_" class="st4" d="M147.3,270.9c-1.1-5.4-6.6-6.7-11-6.3c-4.3,0.4-9.6,0.8-12.1-3.8c-2.1-3.7-1.2-9.2-3.4-12.8
		c-4.7-7.5-15.5,1.8-21.1-4.5c-3.9-4.3-2.9-13.8-7.4-16.7c-5.5-3.6-11.3,6.8-17.3,4.7c-2.7-1-4.6-4.7-4.1-8.2c0.2-1.8,1-3.5,1-5.3
		c0-4.9-4.9-7.1-8.8-7.4c-3.9-0.3-8.7-0.9-10-5.6c-0.9-3.1,0.3-7-1.2-9.7c-1.9-3.5-6-2.2-9.1-1c-3.9,1.5-9,1.8-11.4-2.6
		c-1.1-1.9-1.4-4.6-2.8-6c-1.6-1.6-3.8-1.2-5.5-2.6c-3.2-2.5-2-9.4,1.1-11.8s7.2-1.8,11-1.4c3.7,0.4,7.9,0.2,10.5-3.2
		c2.4-3.2,3.1-8.7,6.4-10.1c2.5-1,5.1,0.9,7.3,2.6c2.7,2,5.7,3.8,8.8,3.3c4-0.7,6.9-5,9.7-8.8s6.6-7.3,10.6-5.9
		c2.5,0.9,4.4,3.7,6.4,5.9c7.1,7.5,18.3,7.3,25.1-0.4c3.9-4.5,8-11.6,12.9-9.2c1.8,0.9,3.1,2.9,4.6,4.5c5.2,5.5,13.6,5.1,18.3-1
		c1.9-2.5,3.2-5.6,5.1-8c3.9-4.8,10.5-5.7,15.2-1.9c3.1,2.4,5.2,6.3,8,9.2c2.8,2.8,7.1,4.4,9.8,1.5c2.2-2.4,2.7-7,5.3-8.5
		c2.9-1.7,6.1,1.8,8.1,5.1s4.5,7.3,7.7,6.9c2-0.2,3.5-2.2,5.1-3.8c2.6-2.8,5.8-5,9.2-5.1c3.4-0.1,7.1,2.5,8.1,6.7
		c0.6,2.6,0.3,5.8,1.9,7.7c3,3.9,7.6-1.9,11.8-2.4c4.2-0.6,8,6.2,6.2,11.1c-0.4,1-0.9,1.9-1.1,3.1c-0.3,3,2.4,4.8,4.7,5.9
		c2.2,1.1,4.8,3.5,4,6.3c-0.4,1.2-1.3,2-2.3,2.6c-3.5,2.1-7.7,2.6-11.5,1.2c-3.9-1.3-9.1-3.7-10.9,0.8c-1.9,4.9,3.2,12.9-0.6,15.4
		c-1.3,0.8-2.8,0.2-4.2,0.2c-4,0.1-6.7,6.6-4.7,11c0.9,2,2.5,3.4,3,5.6c0.8,3.5-1.7,6.8-4.4,7.7s-5.6,0.4-8.4,0.8
		c-2.8,0.4-5.8,2.3-6.3,5.9c-0.2,1.6,0.1,3.2,0,4.8c-0.5,6.3-7,7.9-12,7c-4.9-0.9-10.9-2-13.8,3c-2.2,3.8-1.9,10.3-5.4,12
		c-3,1.5-6-2.1-8.5-4.9c-3.6-4.1-8.2-7.3-12.9-6.7s-9,6.3-8,12.3c0.7,3.9,3.3,6.9,3.9,10.8c0.7,4.3-1.7,8.9-5.1,9.6
		S145.6,275.4,147.3,270.9"/>
	<path id="XMLID_12_" class="st5" d="M142,254.5c-0.5-4.2-4.7-5.5-8.1-5.5c-3.4,0-7.5-0.1-9.2-3.7c-1.3-3-0.3-7-1.8-9.9
		c-3.1-6-12.1,0.3-16.1-4.8c-2.7-3.5-1.3-10.6-4.7-13.2c-4-3.1-9.3,4.4-13.7,2.4c-2-0.9-3.2-3.9-2.7-6.5c0.3-1.4,1-2.6,1.1-4
		c0.3-3.7-3.3-5.7-6.3-6.2c-3-0.5-6.7-1.3-7.4-4.9c-0.5-2.4,0.7-5.2-0.3-7.4c-1.2-2.8-4.5-2-7-1.3c-3.1,0.9-7.1,0.7-8.7-2.7
		c-0.7-1.5-0.8-3.5-1.8-4.7c-1.1-1.3-2.9-1.2-4.1-2.3c-2.3-2.1-1-7.3,1.7-8.9c2.6-1.6,5.7-0.9,8.6-0.4c2.9,0.5,6.2,0.7,8.4-1.7
		c2.1-2.2,3-6.4,5.6-7.2c2-0.6,3.9,1,5.5,2.4c2,1.7,4.2,3.3,6.6,3.1c3.2-0.2,5.7-3.4,8.1-6s5.6-5.1,8.6-3.8c1.9,0.9,3.2,3.1,4.6,4.9
		c5,6.1,13.8,6.8,19.5,1.4c3.3-3.1,7-8.3,10.7-6.1c1.3,0.8,2.2,2.4,3.2,3.7c3.7,4.5,10.2,4.8,14.3,0.5c1.6-1.7,2.8-4,4.5-5.7
		c3.4-3.4,8.5-3.6,11.9-0.5c2.2,2,3.6,5.1,5.6,7.5s5.2,3.8,7.5,1.8c1.9-1.6,2.5-5.1,4.7-6.1c2.4-1.1,4.7,1.7,6,4.4s3,5.8,5.5,5.7
		c1.6-0.1,2.9-1.4,4.2-2.5c2.2-1.9,4.8-3.4,7.5-3.2c2.7,0.2,5.4,2.4,5.9,5.6c0.3,2-0.1,4.4,0.9,6c2.1,3.1,6-0.9,9.3-1.1
		c3.3-0.1,5.8,5.2,4.1,8.8c-0.4,0.7-0.9,1.4-1,2.2c-0.4,2.2,1.6,3.8,3.2,4.8c1.7,1,3.5,3,2.7,5.1c-0.4,0.9-1.2,1.4-1.9,1.8
		c-2.9,1.4-6.2,1.4-9,0.2c-2.9-1.3-6.8-3.4-8.5-0.1c-1.8,3.6,1.7,10-1.5,11.6c-1,0.5-2.2,0-3.3-0.1c-3.1-0.2-5.7,4.6-4.4,8
		c0.6,1.5,1.7,2.8,2,4.4c0.4,2.7-1.8,5-3.9,5.6c-2.2,0.5-4.4-0.1-6.5,0c-2.2,0.1-4.7,1.4-5.3,4c-0.3,1.2-0.1,2.4-0.3,3.6
		c-0.8,4.7-6,5.5-9.8,4.5c-3.8-1-8.3-2.3-11,1.3c-2,2.7-2.2,7.7-5,8.7c-2.4,0.9-4.6-2-6.3-4.3c-2.5-3.3-5.9-6.1-9.5-5.9
		c-3.7,0.2-7.4,4.2-7,8.7c0.3,3,2.1,5.5,2.3,8.5c0.2,3.3-1.9,6.6-4.6,6.9C143.1,262.3,140.3,257.8,142,254.5"/>
	<path id="XMLID_15_" class="st6" d="M43,228.5l18.5-20.7c1-1.1,2.4-1.8,3.9-2l59.9-5.7c0.8-0.1,1.6,0,2.4,0.2l52.5,16.2
		c2.6,0.8,4.3,3.2,4.3,5.8l-0.2,24.4c0,3-2.2,5.5-5.2,5.9l-79.6,11c-1.2,0.2-2.4,0-3.5-0.6L44.8,238C41.2,236.2,40.3,231.5,43,228.5
		z"/>
	<g id="bottom">
		<g id="Calque_1_-_copie_2">
			<path id="XMLID_17_" class="st7" d="M221,180.1l0-2c0-0.4,0-0.8-0.1-1.1l0.1-13.2c0-2.7-1.7-5.1-4.3-5.9L164,141.5
				c-0.8-0.2-1.6-0.3-2.4-0.2l-60.2,5.7c-1.5,0.1-2.9,0.9-4,2l-18.6,20.8c-1.1,1.2-1.5,2.6-1.5,4.1l0,0l0,5.2l0,5.2c0,0.3,0,0.6,0,1
				l0,39.4c0,3-0.2,8.1,3.4,9.8l51.4,25.3c1.1,0.5,2.3,0.7,3.5,0.6l79.9-11.1c3-0.4,5.2-3,5.2-6l0.2-63.1
				C221,180.2,221,180.1,221,180.1z"/>
		</g>
		<radialGradient id="XMLID_8_" cx="149.1752" cy="208.7355" r="59.2101" gradientUnits="userSpaceOnUse">
			<stop  offset="0" style="stop-color:#D6D5D5"/>
			<stop  offset="0.3213" style="stop-color:#D5D3D2"/>
			<stop  offset="0.5416" style="stop-color:#CCCACA"/>
			<stop  offset="0.7315" style="stop-color:#BEBDBC"/>
			<stop  offset="0.9032" style="stop-color:#ACAAAB"/>
			<stop  offset="1" style="stop-color:#A09E9E"/>
		</radialGradient>
		<path id="XMLID_76_" class="st8" d="M81,223.4l0-46l19.1-9.9c1-1.1,2.3-1.8,3.8-1.9l57.1-5.4c0.8-0.1,1.5,0,2.2,0.2l50,15.4
			c2.4,0.8,4.1,3,4.1,5.6l-0.2,59.8c0,2.9-2.1,5.3-5,5.7l-75.8,10.5c-1.1,0.2-2.3,0-3.3-0.5l-48.8-24C80.8,231,81,226.2,81,223.4z"
			/>
		<path id="XMLID_19_" class="st9" d="M81,223.4c0,0.1,0,0.3,0,0.4v0.9c0,2.8,0.3,6.6,3.2,8.1l48.8,24c0.3,0.2,0.7,0.3,1.1,0.4
			v-48.4L81,183L81,223.4z"/>
		
			<linearGradient id="XMLID_9_" gradientUnits="userSpaceOnUse" x1="78.3531" y1="-16254.665" x2="214.6663" y2="-16254.665" gradientTransform="matrix(1 0 0 -1 0 -16082)">
			<stop  offset="0" style="stop-color:#CECDCD;stop-opacity:0"/>
			<stop  offset="0.1394" style="stop-color:#CDCBCB;stop-opacity:0.3627"/>
			<stop  offset="0.1945" style="stop-color:#C7C6C6;stop-opacity:0.5062"/>
			<stop  offset="0.2348" style="stop-color:#BEBDBD;stop-opacity:0.611"/>
			<stop  offset="0.2678" style="stop-color:#B1B0B0;stop-opacity:0.6969"/>
			<stop  offset="0.2963" style="stop-color:#A1A0A0;stop-opacity:0.7712"/>
			<stop  offset="0.3218" style="stop-color:#8C8C8C;stop-opacity:0.8375"/>
			<stop  offset="0.345" style="stop-color:#737373;stop-opacity:0.898"/>
			<stop  offset="0.3658" style="stop-color:#585958;stop-opacity:0.952"/>
			<stop  offset="0.3842" style="stop-color:#3A3A39"/>
			<stop  offset="0.4145" style="stop-color:#575857;stop-opacity:0.9508"/>
			<stop  offset="0.4512" style="stop-color:#747474;stop-opacity:0.8912"/>
			<stop  offset="0.4919" style="stop-color:#8E8E8E;stop-opacity:0.8252"/>
			<stop  offset="0.5362" style="stop-color:#A5A4A4;stop-opacity:0.7533"/>
			<stop  offset="0.5853" style="stop-color:#B7B6B6;stop-opacity:0.6734"/>
			<stop  offset="0.6414" style="stop-color:#C5C4C4;stop-opacity:0.5823"/>
			<stop  offset="0.7086" style="stop-color:#CFCECE;stop-opacity:0.4733"/>
			<stop  offset="0.7979" style="stop-color:#D5D4D4;stop-opacity:0.3282"/>
			<stop  offset="1" style="stop-color:#D6D5D5;stop-opacity:0"/>
		</linearGradient>
		<path id="XMLID_3_" class="st10" d="M78.4,187.3l0-46l19.1-9.9c1-1.1,2.3-1.8,3.8-1.9l57.1-5.4c0.8-0.1,1.5,0,2.2,0.2l50,15.4
			c2.4,0.8,4.1,3,4.1,5.6l-0.2,59.8c0,2.9-2.1,5.3-5,5.7l-75.8,10.5c-1.1,0.2-2.3,0-3.3-0.5l-48.8-24
			C78.2,195,78.4,190.2,78.4,187.3z"/>
		<path id="XMLID_77_" class="st11" d="M81,188.1l0-9.5l19.1-9.9c1-1.1,2.3-1.8,3.8-1.9l57.1-5.4c0.8-0.1,1.5,0,2.2,0.2l50,15.4
			c2.4,0.8,4.1,3,4.1,5.6l-0.1,28.2c0,0-3.5,0.5-5.1,0.7l-75.8,10.5c-1.1,0.2-2.3,0-3.3-0.5l-52-23.9C81,197.6,81,190,81,188.1z"/>
		<g id="Calque_19_-_copie">
			<path id="XMLID_115_" class="st7" d="M226.4,162.2c0-2.7-1.8-5.1-4.6-6l-56.6-16.5c-0.8-0.2-1.7-0.3-2.5-0.2l-64.6,5.8
				c-1.6,0.1-3.2,0.9-4.2,2l-20,21.1c-0.8,0.8-1.3,1.8-1.5,2.8l-0.2,0.1l0,10.1c0,2,0,8.1,0,8.1s2.3,1.2,3.6,1.9l55.2,25.7
				c1.2,0.5,2.5,0.7,3.8,0.6l85.7-11.2c1.8-0.2,5.8-0.8,5.8-0.8l0.1-30.2c0-0.4,0-0.8-0.1-1.1L226.4,162.2z"/>
		</g>
		<g id="Calque_19">
			
				<radialGradient id="XMLID_10_" cx="149.6019" cy="-16266.9258" r="52.7596" gradientTransform="matrix(1.0723 0 0 -1 -11.2478 -16082)" gradientUnits="userSpaceOnUse">
				<stop  offset="0" style="stop-color:#EB5758"/>
				<stop  offset="1" style="stop-color:#951917"/>
			</radialGradient>
			<path id="XMLID_57_" class="st12" d="M76.1,181.3l0-9.5l20.5-9.9c1-1.1,2.5-1.8,4-1.9l61.2-5.4c0.8-0.1,1.6,0,2.4,0.2l53.6,15.4
				c2.6,0.8,4.4,3,4.4,5.6l-0.1,28.2c0,0-3.7,0.5-5.5,0.7l-81.3,10.5c-1.2,0.2-2.5,0-3.6-0.5l-52.3-24c-1.3-0.6-3.5-1.7-3.5-1.7
				S76.1,183.1,76.1,181.3z"/>
			
				<radialGradient id="XMLID_11_" cx="149.6031" cy="-16254.4121" r="52.7589" gradientTransform="matrix(1.0723 0 0 -1 -11.2478 -16082)" gradientUnits="userSpaceOnUse">
				<stop  offset="0" style="stop-color:#EB5758"/>
				<stop  offset="1" style="stop-color:#951917"/>
			</radialGradient>
			<path id="XMLID_40_" class="st13" d="M77.7,169.1l18.9-19.7c1-1.1,2.5-1.8,4-1.9l61.2-5.4c0.8-0.1,1.6,0,2.4,0.2l53.6,15.4
				c2.6,0.8,4.4,3,4.4,5.6l-0.2,23.3c0,2.9-2.3,5.3-5.3,5.7l-81.3,10.5c-1.2,0.2-2.5,0-3.6-0.5l-52.3-24
				C75.9,176.4,74.9,172,77.7,169.1z"/>
		</g>
		<path id="XMLID_4_" class="st14" d="M107.4,167.9l8.6-9.6c1-1.2,2.5-1.9,4-2l35.4-3.4c0.8-0.1,1.6,0,2.4,0.2l30.1,9.3
			c2.6,0.8,4.4,3.2,4.4,5.9l-0.1,11.1c0,3.1-2.3,5.6-5.3,6.1l-46.1,6.4c-1.2,0.2-2.5,0-3.6-0.6l-27.9-13.8
			C105.6,175.8,104.6,170.9,107.4,167.9z"/>
		<g id="Calque_21">
			<polygon id="XMLID_93_" class="st15" points="103.7,200.9 103.7,189.3 114.4,184.3 115.6,184.9 104.8,190 104.7,201.4 			"/>
			<polygon id="XMLID_92_" class="st15" points="111.3,204.3 111.3,192.7 122,187.7 123.3,188.3 112.4,193.4 112.4,204.8 			"/>
			<polygon id="XMLID_91_" class="st15" points="159,210.8 159,199.7 148.2,194.3 147.1,194.8 157.9,199.9 158,210.9 			"/>
			<polygon id="XMLID_90_" class="st15" points="169.8,209 169.8,197.9 158.9,192.6 157.8,193.1 168.6,198.1 168.7,209.1 			"/>
			<polygon id="XMLID_89_" class="st15" points="182.4,208.2 182.4,197.1 171.6,191.8 170.5,192.3 181.2,197.3 181.4,208.3 			"/>
			<polygon id="XMLID_88_" class="st15" points="193.1,206 193.1,194.9 182.3,189.6 181.2,190.1 192,195.1 192.1,206.1 			"/>
			<polygon id="XMLID_87_" class="st15" points="204.1,204.4 204.1,193.4 193.3,188 192.2,188.5 202.9,193.6 203.1,204.6 			"/>
			<polygon id="XMLID_86_" class="st15" points="96.1,197.3 96.1,185.8 106.8,180.8 108.1,181.4 97.2,186.4 97.2,197.8 			"/>
			<polygon id="XMLID_85_" class="st15" points="87.9,193.4 87.9,181.9 98.6,176.9 99.9,177.5 89,182.5 89,193.9 			"/>
			<polygon id="XMLID_84_" class="st15" points="81.4,165.2 92.6,169.8 91.9,170.7 80.5,166.2 			"/>
			<polygon id="XMLID_83_" class="st15" points="208.3,183 222.2,183.5 222.3,184.8 208.3,184.4 			"/>
			<polygon id="XMLID_82_" class="st15" points="208.3,177 222.2,177.5 222.3,178.8 208.3,178.4 			"/>
			<polygon id="XMLID_81_" class="st15" points="208.3,170.3 222.2,170.8 222.3,172.1 208.3,171.7 			"/>
			<polygon id="XMLID_80_" class="st15" points="208.3,164.3 222.2,164.7 222.3,166 208.3,165.6 			"/>
			<polygon id="XMLID_79_" class="st15" points="197.2,158.1 200.8,152.7 202,153.2 198.5,158.6 			"/>
			<polygon id="XMLID_78_" class="st15" points="189.1,155.7 192.6,150.4 193.9,150.8 190.2,156.4 			"/>
			<polygon id="XMLID_75_" class="st15" points="86,160.4 97.1,165 96.4,165.9 85.1,161.4 			"/>
			<polygon id="XMLID_74_" class="st15" points="90.7,155.6 101.8,160.2 101.2,161.1 89.8,156.6 			"/>
			<polygon id="XMLID_73_" class="st15" points="94.8,151 106,155.6 105.3,156.4 93.9,152 			"/>
		</g>
	</g>
	<g id="Calque_24">
		<polygon id="XMLID_67_" class="st16" points="143.3,189 112.8,173.4 124.9,158.9 157.5,155.3 189.6,164.7 190,183.4 		"/>
		<path id="XMLID_66_" class="st15" d="M189,176.5L189,176.5c-0.7,1-1.9,1.4-3.1,1.2l-63.8-14.6l0.7-0.4c0.7-0.4,1.5-0.6,2.2-0.4
			L189,176.5z"/>
		<path id="XMLID_65_" class="st15" d="M182.8,164.7c0.6-0.1,1.1,0.1,1.6,0.4l1.2,0.9l-65.4,7.4c-1,0.1-1.9-0.4-2.3-1.4l0,0
			L182.8,164.7z"/>
		<path id="XMLID_64_" class="st15" d="M163.8,157.7L163.8,157.7c1,0.2,1.4,1.5,0.6,2.1L137,183.7c-0.3,0.3-0.8,0.4-1.2,0.2
			l-0.8-0.2c-0.9-0.3-1.2-1.5-0.4-2.1l28.2-23.6C163.1,157.8,163.4,157.7,163.8,157.7z"/>
		<path id="XMLID_63_" class="st15" d="M166.6,186.2l-1.2,0.1c-0.4,0-0.8-0.1-1.1-0.4l-23-26.9c-0.6-0.8-0.2-1.9,0.8-2l0,0
			c0.4,0,0.8,0.1,1,0.4l24.1,26.8C168,184.9,167.6,186.1,166.6,186.2z"/>
	</g>
	<path id="XMLID_7_" class="st17" d="M122.3,210.8l-39.5-19.5c-1.5-0.8-2.5-2.3-2.5-4l0-19.1c0-3.3,3.5-5.5,6.5-4l39.5,19.6
		c1.5,0.8,2.5,2.3,2.5,4l0,19C128.8,210.1,125.3,212.3,122.3,210.8z"/>
	<g id="door">
		<path id="XMLID_44_" class="st6" d="M167.6,259.2l-9.9,1.6c-2.8,0.4-5.1-0.5-5.6-2.2v0c-0.5-1.5,3.3-12.9,4.4-14.9l0.3,2.7
			c1.1,1,2.4,5.6,4.2,7l5.9,4.5c1.1,0.8,8.9-0.7,8.7,0C175.6,257.9,169.1,259,167.6,259.2z"/>
		<g id="Calque_6_-_copie">
			<path id="XMLID_49_" class="st7" d="M199.7,242.9L187,225.2c-0.5-0.7-1.1-1.3-1.8-1.8l0,0l-0.2-0.1c-0.2-0.1-0.4-0.3-0.6-0.4
				l-3.1-1.9c-6.1-4.1-10.8-4.3-13.6,1l-10.9,21c-3,5.8,6.5,16.8,12.9,15.9l0,0c0.3,0,0.7,0,1-0.1l23.6-3.3
				C200.3,254.7,203.2,247.8,199.7,242.9z"/>
		</g>
		<radialGradient id="XMLID_13_" cx="176.0474" cy="238.4373" r="18.607" gradientUnits="userSpaceOnUse">
			<stop  offset="0" style="stop-color:#EB5758"/>
			<stop  offset="1" style="stop-color:#951917"/>
		</radialGradient>
		<path id="XMLID_43_" class="st18" d="M158.4,242.6l10.1-19.5c2.5-4.9,7-4.7,12.6-0.9l3.6,2.2l8.2,14.2c3.3,4.5,0.5,10.9-5,11.7
			l-17.5,7C164.4,258.2,155.6,248,158.4,242.6z"/>
		<path id="XMLID_42_" class="st7" d="M162.6,246.9l10.7-20.7c2.7-5.2,10-5.7,13.4-1l12.5,17.4c3.5,4.8,0.6,11.6-5.3,12.4l-23.3,3.2
			C164.3,259.2,159.6,252.6,162.6,246.9z"/>
		<path id="XMLID_41_" class="st19" d="M164.6,246.2l9.5-18.4c2.4-4.6,8.9-5.1,11.9-0.9l11.1,15.5c3.1,4.3,0.5,10.3-4.7,11
			l-20.7,2.9C166.2,257.1,162,251.2,164.6,246.2z"/>
		<path id="XMLID_39_" class="st7" d="M170.5,249.9l7.1-13.7c1.8-3.5,6.6-3.8,8.9-0.6l8.3,11.6c2.3,3.2,0.4,7.7-3.5,8.3l-15.5,2.1
			C171.6,258.1,168.5,253.7,170.5,249.9z"/>
		<radialGradient id="XMLID_16_" cx="182.8695" cy="246.0554" r="10.8049" gradientUnits="userSpaceOnUse">
			<stop  offset="0" style="stop-color:#D6D5D5"/>
			<stop  offset="0.3213" style="stop-color:#D5D3D2"/>
			<stop  offset="0.5416" style="stop-color:#CCCACA"/>
			<stop  offset="0.7315" style="stop-color:#BEBDBC"/>
			<stop  offset="0.9032" style="stop-color:#ACAAAB"/>
			<stop  offset="1" style="stop-color:#A09E9E"/>
		</radialGradient>
		<path id="XMLID_38_" class="st20" d="M172.2,249.9l6.1-11.8c1.5-3,5.7-3.3,7.7-0.6l7.2,10c2,2.8,0.3,6.6-3,7.1l-13.3,1.8
			C173.2,256.9,170.5,253.1,172.2,249.9z"/>
		<g id="Calque_9">
			<path id="XMLID_55_" class="st21" d="M187.8,246c0.7,2.3-0.4,5.1-3,6.2c-3.2,1.3-6.7-0.6-7.1-4c-0.3-3.1,2.1-5.4,4.9-5.6
				C185,242.3,187.2,243.8,187.8,246z"/>
			<radialGradient id="XMLID_18_" cx="183.0852" cy="247.333" r="3.8092" gradientUnits="userSpaceOnUse">
				<stop  offset="0" style="stop-color:#D6D5D5"/>
				<stop  offset="0.3213" style="stop-color:#D5D3D2"/>
				<stop  offset="0.5416" style="stop-color:#CCCACA"/>
				<stop  offset="0.7315" style="stop-color:#BEBDBC"/>
				<stop  offset="0.9032" style="stop-color:#ACAAAB"/>
				<stop  offset="1" style="stop-color:#A09E9E"/>
			</radialGradient>
			<path id="XMLID_54_" class="st22" d="M186.8,246.2c0.5,1.8-0.4,3.9-2.4,4.6c-2.3,0.9-4.9-0.5-5.2-3c-0.3-2.2,1.4-4.1,3.5-4.2
				C184.6,243.4,186.3,244.6,186.8,246.2z"/>
		</g>
	</g>
	<g id="Calque_11">
	</g>
	<g id="Calque_22">
		<path id="XMLID_37_" class="st23" d="M153.2,170.6h-2.3c-1.1,0-1.9-0.7-1.9-1.5V107c0-0.2-0.1-1.6,0.1-1.7
			c0.6-0.4,1.9-0.8,2.8-0.8c0,0,2.8,0.2,2.8,1.1l0.4,63.6C155.1,169.9,154.3,170.6,153.2,170.6z"/>
		<path id="XMLID_36_" class="st24" d="M152.1,168.4L152.1,168.4c-0.9,0-1.6-0.7-1.6-1.5v-62.6c0-0.6,0.7-0.6,1.6-0.6
			c0,0,1.6,0,1.6,0.6v62.6C153.7,167.8,152.9,168.4,152.1,168.4z"/>
		<path id="XMLID_35_" class="st25" d="M151.7,59.6l-15.5-1.3c-2.4-0.2-4.4,1.9-4.1,4.3c2,13.8,7.7,53,8.7,55.4l7.9,19.7
			c0.6,1.6,2.1,8.2,3.3,8.2l0,0c1.3,0,2.5-6.6,3.2-8.2L163,118c0.9-2.4,6.6-41.7,8.6-55.4c0.3-2.4-1.6-4.5-4.1-4.3l-15.2,1.3
			C152.1,59.6,151.9,59.6,151.7,59.6z"/>
		<path id="XMLID_34_" class="st23" d="M151.9,63l-15.5-1.3c-2.4-0.2-4.4,1.9-4.1,4.3c2,13.8,7.5,49.6,8.5,52l7.9,19.7
			c0.6,1.6,2.1,8.2,3.3,8.2l0,0c1.3,0,2.5-6.6,3.2-8.2L163,118c0.9-2.4,6.8-38.2,8.8-52c0.3-2.4-1.6-4.5-4.1-4.3L152.5,63
			C152.3,63,152.1,63,151.9,63z"/>
		<path id="XMLID_33_" class="st26" d="M152,62.9l-15.4-1.3c0,0,6.1,49.2,7,51.4l5.9,14.8c0.5,1.2,1.5,6.1,2.5,6.1l0,0
			c0.9,0,1.9-4.9,2.4-6.1l5.9-14.8c0.9-2.1,7-51.4,7-51.4L152,62.9z"/>
		<radialGradient id="XMLID_21_" cx="151.916" cy="92.7076" r="23.5274" gradientUnits="userSpaceOnUse">
			<stop  offset="0" style="stop-color:#EB5758"/>
			<stop  offset="1" style="stop-color:#951917"/>
		</radialGradient>
		<path id="XMLID_32_" class="st27" d="M152,63.2l-13-1.1c0,0,5.2,41.7,5.9,43.6l5,12.5c0.4,1,1.3,5.2,2.1,5.2l0,0
			c0.8,0,1.6-4.2,2-5.2l5-12.5c0.7-1.8,5.9-43.6,5.9-43.6L152,63.2z"/>
		<g id="Calque_6_2_">
			<path id="XMLID_27_" class="st28" d="M152,75.8l-25.8-5.9l8.5,7.5c0,0,6.6,4.2,10.1,6c4.3,2.3,7.4,11.5,7.4,11.5
				s2.6-9.1,6.9-11.3c3.4-1.8,10.3-6.2,10.3-6.2l8.5-7.2L152,75.8z"/>
			<radialGradient id="XMLID_22_" cx="151.8697" cy="82.4061" r="17.1025" gradientUnits="userSpaceOnUse">
				<stop  offset="0" style="stop-color:#D6D5D5"/>
				<stop  offset="0.3213" style="stop-color:#D5D3D2"/>
				<stop  offset="0.5416" style="stop-color:#CCCACA"/>
				<stop  offset="0.7315" style="stop-color:#BEBDBC"/>
				<stop  offset="0.9032" style="stop-color:#ACAAAB"/>
				<stop  offset="1" style="stop-color:#A09E9E"/>
			</radialGradient>
			<path id="XMLID_26_" class="st29" d="M152,77.7l-22-5.5l11.2,7.1c0,0,4.6,2.4,6.8,3.5c2.7,1.4,4.1,10,4.1,10s1.3-8.6,4-10
				c2.1-1.1,6.8-3.5,6.8-3.5l11-6.9L152,77.7z"/>
			<path id="XMLID_25_" class="st30" d="M152,80.3l-8.2-2.7l4.4,2.7c0,0,1.6,0.9,2.4,1.3c1,0.5,1.4,6.5,1.4,6.5s0.5-5.9,1.4-6.5
				c0.7-0.4,2.4-1.3,2.4-1.3l4.4-2.7L152,80.3z"/>
		</g>
	</g>
</g>
</svg>
