<?xml version="1.0" encoding="utf-8"?>
<!-- Generator: Adobe Illustrator 19.0.0, SVG Export Plug-In . SVG Version: 6.00 Build 0)  -->
<svg version="1.1" id="Calque_4" xmlns="http://www.w3.org/2000/svg" xmlns:xlink="http://www.w3.org/1999/xlink" x="0px" y="0px"
	 viewBox="0 0 300 300" style="enable-background:new 0 0 300 300;" xml:space="preserve">
<style type="text/css">
	.st0{display:none;fill:#98C33F;}
	.st1{display:none;fill:#282828;}
	.st2{opacity:0.25;fill:#383838;}
	.st3{fill:#18130D;}
	.st4{fill:#EFC877;}
	.st5{fill:url(#XMLID_3_);}
	.st6{fill:url(#XMLID_4_);}
	.st7{fill:#322714;}
	.st8{fill:#010202;}
	.st9{fill:#43919B;}
	.st10{opacity:0.25;fill:#9CD6EB;}
	.st11{fill:#56452A;}
	.st12{fill:#141414;}
	.st13{fill:#665334;}
	.st14{opacity:0.5;fill:#310F0F;}
	.st15{fill:#5B1314;}
	.st16{fill:url(#XMLID_5_);}
	.st17{fill:url(#XMLID_9_);}
	.st18{fill:#671415;}
	.st19{opacity:0.1;fill:#FFFFFF;}
	.st20{fill:#C19C5A;}
	.st21{display:none;}
	.st22{display:inline;}
	.st23{opacity:0.1;fill:#010202;}
	.st24{fill:#FBC786;}
	.st25{fill:#E8BA70;}
	.st26{fill:#310F0F;}
	.st27{fill:#DDDDDD;}
	.st28{display:none;opacity:0.85;fill:#310F0F;}
	.st29{opacity:0.85;fill:#310F0F;}
	.st30{fill:#B2302F;}
	.st31{fill:url(#XMLID_10_);}
	.st32{fill:#3C1112;}
	.st33{fill:url(#XMLID_12_);}
	.st34{fill:#CFCECE;}
	.st35{fill:url(#XMLID_13_);}
	.st36{fill:url(#XMLID_15_);}
	.st37{fill:url(#XMLID_16_);}
</style>
<g id="Calque_3">
	<polygon id="XMLID_20_" class="st0" points="162.2,241 76.6,195.9 8.8,160.2 162.2,121.3 309.1,154.7 246.2,191.7 	"/>
	<rect id="XMLID_2_" class="st1" width="300" height="300"/>
</g>
<g id="Calque_24">
	<g id="Calque_3_-_copie_2">
		<path id="XMLID_182_" class="st2" d="M242.8,202.1l-10-66.6c-0.3-2.1-1.5-3.9-3.3-5L201,113.2l0,0l0,0l-2.8-1.7l0,0
			c-0.9-0.5-1.9-0.8-2.9-0.9L86,105c-2.7-0.1-5.3,1.2-6.8,3.4c-2.8,4.2-6.8,11.1-8.7,15c-0.9,1.8-2.5,3.2-4.4,3.9L28,140.8
			c-6.4,2.3-11.8,6.4-16,11.8c-1.6,2.1-3.2,3.7-4.4,5.2c-2.2,2.9-2,6.9,0.3,9.7c1.9,2.2,4.2,5,5.8,6.8c1,1.2,2.3,2.2,3.7,3l90.8,50
			l0,0c1.6,1.1,5.6,1.8,8.3,2.2l34.1,4.7c0.5,0,2.4-5.6,2.9-5.7l82-17C240.1,210.9,243.4,206.5,242.8,202.1z"/>
	</g>
	<g id="Calque_3_-_copie_5">
		<path id="XMLID_219_" class="st3" d="M289.9,206L279.2,135c-0.3-2.2-1.6-4.1-3.5-5.3l-30.4-18.5l0,0l0,0l-3-1.8
			c-0.7-0.4-1.4-0.7-2.2-0.9L174.6,74l-33.3-20.3c-1.5-0.9-3.2-1.3-4.9-1.2l-20.7,1.5l-21.2,1.5c-1.9,0.1-3.6,0.8-5.1,1.9l-35.6,27
			c-2.1,1.6-3.4,3.9-3.7,6.4L42.3,170c0,0.4,0,0.7,0,1.1c0,0.1,0,0.2,0,0.3c0,0.2,0,0.5,0.1,0.7c0,0.1,0,0.2,0.1,0.3
			c0.1,0.2,0.1,0.5,0.2,0.7c0,0.1,0.1,0.2,0.1,0.3c0.1,0.3,0.2,0.5,0.3,0.8c0,0,0,0.1,0.1,0.1c0.6,1.2,1.6,2.2,2.8,3l0,0l0.2,0.1
			c0.1,0.1,0.3,0.1,0.4,0.2l0,0l100.2,55.2l0,0c1.7,1.2,4,1.8,6.5,1.4l67.1-9.5l62-8.7C287,215.3,290.6,210.6,289.9,206z"/>
	</g>
	<g id="Calque_3_-_copie_4">
		<g id="Calque_3_-_copie_3">
			<path id="XMLID_144_" class="st4" d="M187.4,159.8l-10-66.6c-0.3-12.1-1.5-13.9-3.3-15l-31.3-19.1c-1.4-0.8-3-1.2-4.6-1.1
				l-19.4,1.4l-19.9,1.4c-1.7,0.1-3.4,0.8-4.8,1.8L60.7,88c-2,1.5-3.2,3.7-3.5,6l-7.3,74.4c-0.5,5,3.8,8.7,9.1,7.9l63-8.9l58.3-8.2
				C184.7,158.6,188.1,154.2,187.4,159.8z"/>
			<polygon id="XMLID_143_" class="st4" points="147.8,227.3 53.3,175.2 174.1,78.2 240.5,113.2 			"/>
			<g id="Calque_17">
				<linearGradient id="XMLID_3_" gradientUnits="userSpaceOnUse" x1="49.8543" y1="142.6612" x2="240.5225" y2="142.6612">
					<stop  offset="0" style="stop-color:#C48A5C"/>
					<stop  offset="1" style="stop-color:#B69B5D"/>
				</linearGradient>
				<path id="XMLID_179_" class="st5" d="M147.8,227.3l92.7-114.1l-66.4-35l-31.3-19.1c-1.4-0.8-3-1.2-4.6-1.1l-19.4,1.4l-19.9,1.4
					c-1.7,0.1-3.4,0.8-4.8,1.8L60.7,88c-2,1.5-3.2,3.7-3.5,6l-7.3,74.4c-0.3,2.9,1.1,5.4,3.4,6.8l0,0l0.2,0.1
					c0.1,0.1,0.2,0.1,0.4,0.2L147.8,227.3z"/>
			</g>
			<linearGradient id="XMLID_4_" gradientUnits="userSpaceOnUse" x1="213.6076" y1="228.7312" x2="213.6076" y2="110.3689">
				<stop  offset="0" style="stop-color:#E8A26B"/>
				<stop  offset="1" style="stop-color:#EFC876"/>
			</linearGradient>
			<path id="XMLID_142_" class="st6" d="M282.3,202.1l-10-66.6c-0.3-2.1-1.5-3.9-3.3-5l-31.3-19.1c-1.4-0.8-3-1.2-4.6-1.1l-19.4,1.4
				l-19.9,1.4c-1.7,0.1-3.4,0.8-4.8,1.8l-33.4,25.3c-2,1.5-3.2,3.7-3.5,6l-7.3,74.4c-0.5,5,3.8,8.7,9.1,7.9l63-8.9l58.3-8.2
				C279.6,210.9,283,206.5,282.3,202.1z"/>
			<g id="windows">
				<polygon id="XMLID_216_" class="st7" points="188.1,155.8 177.9,157.3 177.9,144.7 188.1,143.3 				"/>
				<polygon id="XMLID_215_" class="st8" points="187.6,155.3 178.4,156.7 178.4,145.2 187.6,143.9 				"/>
				<polygon id="XMLID_214_" class="st9" points="187.4,155 178.6,156.4 178.6,145.4 187.4,144.2 				"/>
				<polygon id="XMLID_213_" class="st10" points="180.6,156.1 185,155.4 185.8,144.4 182.5,144.9 				"/>
				<polygon id="XMLID_212_" class="st8" points="187.6,150.7 178.4,152.1 178.4,150.6 187.6,149.3 				"/>
				<polygon id="XMLID_211_" class="st7" points="202.6,153.8 192.5,155.4 192.5,142.7 202.6,141.3 				"/>
				<polygon id="XMLID_210_" class="st8" points="202.2,153.3 192.9,154.7 192.9,143.2 202.2,141.9 				"/>
				<polygon id="XMLID_209_" class="st9" points="202,153.1 193.1,154.4 193.1,143.5 202,142.2 				"/>
				<polygon id="XMLID_208_" class="st10" points="195.1,154.1 199.5,153.4 200.3,142.5 197.1,142.9 				"/>
				<polygon id="XMLID_207_" class="st8" points="202.2,148.7 192.9,150.1 192.9,148.6 202.2,147.3 				"/>
				<polygon id="XMLID_206_" class="st7" points="243.1,148.7 232.9,150.3 232.9,137.6 243.1,136.2 				"/>
				<polygon id="XMLID_205_" class="st8" points="242.6,148.2 233.4,149.6 233.4,138.2 242.6,136.9 				"/>
				<polygon id="XMLID_204_" class="st9" points="242.4,148 233.6,149.3 233.6,138.4 242.4,137.2 				"/>
				<polygon id="XMLID_203_" class="st10" points="235.6,149 240,148.4 240.8,137.4 237.6,137.8 				"/>
				<polygon id="XMLID_202_" class="st8" points="242.6,143.6 233.4,145 233.4,143.6 242.6,142.3 				"/>
				<polygon id="XMLID_201_" class="st7" points="259.1,146.4 248.9,147.9 248.9,135.3 259.1,133.8 				"/>
				<polygon id="XMLID_200_" class="st8" points="258.6,145.9 249.4,147.3 249.4,135.8 258.6,134.5 				"/>
				<polygon id="XMLID_199_" class="st9" points="258.4,145.6 249.6,147 249.6,136 258.4,134.8 				"/>
				<polygon id="XMLID_198_" class="st10" points="251.6,146.7 256,146 256.7,135 253.5,135.5 				"/>
				<polygon id="XMLID_197_" class="st8" points="258.6,141.3 249.4,142.7 249.4,141.2 258.6,139.9 				"/>
			</g>
			<g id="Calque_26">
				<path id="XMLID_150_" class="st11" d="M201.9,221.9l15-2.1l20.8-2.9c0-20.4-8-37.7-17.9-37.7
					C209.9,179.1,201.9,201.5,201.9,221.9z"/>
				<path id="XMLID_149_" class="st9" d="M203.2,221.7l13.9-2l19.5-2.7c0-19-7.6-36.4-16.8-36.4
					C210.6,180.6,203.2,202.7,203.2,221.7z"/>
			</g>
			<g id="Calque_26_-_copie">
				<path id="XMLID_174_" class="st11" d="M208.2,221.6l10.2-1.4l14.2-2c0-14-5.5-25.8-12.2-25.8
					C213.7,192.4,208.2,207.7,208.2,221.6z"/>
				<path id="XMLID_173_" class="st12" d="M209.6,220.8l9-1.3l12.7-1.8c0-12.3-4.9-23.7-10.9-23.7
					C214.5,194.1,209.6,208.5,209.6,220.8z"/>
			</g>
			<path id="XMLID_141_" class="st13" d="M219,180.7l0.1,38.8l1.6-0.2l-0.1-38.6c-0.3,0-0.6-0.1-0.9-0.1
				C219.5,180.6,219.3,180.6,219,180.7z"/>
			<path id="XMLID_140_" class="st13" d="M203.6,213.8c0,0.4-0.1,0.8-0.1,1.2l32.8-4.6c0-0.4-0.1-0.7-0.1-1.1L203.6,213.8z"/>
			<path id="XMLID_139_" class="st13" d="M234.7,201l-29.8,4.2c-0.1,0.4-0.2,0.8-0.2,1.2l30.3-4.3
				C234.9,201.8,234.8,201.4,234.7,201z"/>
			<path id="XMLID_138_" class="st13" d="M231.4,191.3l-23.6,3.3c-0.1,0.4-0.3,0.8-0.4,1.2l24.5-3.4
				C231.7,192,231.6,191.6,231.4,191.3z"/>
			<path id="XMLID_137_" class="st13" d="M227.6,185l-16.3,2.3c-0.2,0.4-0.5,0.8-0.7,1.2l17.8-2.5
				C228.1,185.7,227.8,185.4,227.6,185z"/>
		</g>
	</g>
	<g id="Calque_5">
		<g id="Calque_15">
			<path id="XMLID_115_" class="st14" d="M156.3,148.6c0.7-2.4,3.5-5.4,5.6-6.8l28.4-20.4c3.2-2.8,5.3-2.8,7.1-3l47.3-2.8l-6.1-4
				l-41.9-18.4l-22.6-11.9l-31.3-19.1c-1.4-0.8-3-1.2-4.6-1.1l-19.4,1.4L98.9,64c-1.7,0.1-3.4,0.8-4.8,1.8L60.7,91.1
				c-2,1.5-3.5,3.6-3.8,5.9l-1.2,12.2c14.5,8.9,75.1,40,99.4,52.7L156.3,148.6z"/>
			<g id="Calque_21">
				<path id="XMLID_162_" class="st15" d="M154.6,149.6c0.2-2.4,1.1-4.9,3.2-6.4l33.6-26c2-1.5,6.6-1.7,6.6-1.7l42.2-2.8l-63.7-34.3
					l-32.6-19.9c-1.4-0.9-3.1-1.3-4.8-1.1l-20.2,1.4l-20.7,1.5c-1.8,0.1-3.6,0.8-5,1.9L58.4,88.5c-2.1,1.6-3.4,3.8-3.6,6.2l-0.9,8.6
					c15.2,9.3,74.2,42.3,99.6,55.5L154.6,149.6z"/>
				<path id="XMLID_161_" class="st15" d="M240.7,112l-64.1-33.7l-32.6-19.9c-1.4-0.9-3.1-1.3-4.8-1.1l-20.2,1.4l-20.7,1.5
					c-0.2,0-1.3,0.2-1.5,0.2c6.4,4.8,80.9,46.7,98.2,54.8c0,0,2-0.3,7.2-0.8c5.4-0.5,12.3-0.9,20.8-1.5
					C232.9,112.3,241,112.1,240.7,112z"/>
			</g>
			<g id="Calque_21_-_copie">
				<radialGradient id="XMLID_5_" cx="126.5654" cy="106.5649" r="60.32" gradientUnits="userSpaceOnUse">
					<stop  offset="0" style="stop-color:#EB5758"/>
					<stop  offset="1" style="stop-color:#951917"/>
				</radialGradient>
				<path id="XMLID_124_" class="st16" d="M152.2,146.3c0.2-2.3,1.5-4.5,3.5-6L189,115c1.4-1.1,3.1-1.7,4.8-1.8l0.8-0.1l2-23
					l-22.6-11.9l-31.3-19.1c-1.4-0.8-3-1.2-4.6-1.1l-19.4,1.4l-19.9,1.4c-1.7,0.1-3.4,0.8-4.8,1.8L60.7,88c-2,1.5-3.2,3.7-3.5,6
					l-0.8,8.3c14.5,8.9,70.5,40.2,94.9,52.9L152.2,146.3z"/>
				<radialGradient id="XMLID_9_" cx="166.5367" cy="85.8182" r="52.6689" gradientUnits="userSpaceOnUse">
					<stop  offset="0" style="stop-color:#EB5758"/>
					<stop  offset="1" style="stop-color:#951917"/>
				</radialGradient>
				<path id="XMLID_123_" class="st17" d="M235.6,110.6l-61.5-32.4l-31.3-19.1c-1.4-0.8-3-1.2-4.6-1.1l-19.4,1.4l-19.9,1.4
					c-0.2,0-1.2,0.2-1.5,0.2c6.1,4.6,77.6,44.9,94.2,52.6c0,0,1.9-0.3,6.9-0.8c5.2-0.5,11.8-0.9,20-1.4
					C228.1,110.8,236,110.7,235.6,110.6z"/>
			</g>
			<g id="XMLID_105_">
				<path id="XMLID_114_" class="st18" d="M62.5,98.9c0.2-2.3,1.5-4.5,3.5-6l33.4-25.3c1-0.8,2.1-1.3,3.4-1.6c0,0,0,0,0,0
					c0,0,0.1,0,0.1,0c0.2-0.1,0.5-0.1,0.7-0.1c0.3,0,0.6-0.1,0.7-0.1l19.9-1.4l19.4-1.4c1.1-0.1,4.5-0.4,7-0.3l-1-0.7
					c-1.4-0.8-5.6-0.4-7.2-0.3l-19.4,1.4l-19.9,1.4c-0.1,0-0.4,0.1-0.7,0.1c-0.2,0-0.5,0.1-0.7,0.1c0,0-0.1,0-0.1,0c0,0,0,0,0,0
					c-1.2,0.3-2.4,0.8-3.4,1.6L64.7,91.7c-2,1.5-3.2,3.7-3.5,6l-0.8,8.3c0.4,0.2,0.8,0.5,1.3,0.8L62.5,98.9z"/>
				<path id="XMLID_107_" class="st18" d="M68.7,102.4c0.2-2.3,1.5-4.5,3.5-6L105.5,71c1-0.8,2.1-1.3,3.4-1.6c0,0,0,0,0,0
					c0,0,0.1,0,0.1,0c0.2-0.1,0.5-0.1,0.7-0.1c0.3,0,0.6-0.1,0.7-0.1l19.9-1.4l19.4-1.4c1.1-0.1,4.5-0.4,7-0.3l-1-0.7
					c-1.4-0.8-5.6-0.4-7.2-0.3L129,66.5L109.1,68c-0.1,0-0.4,0.1-0.7,0.1c-0.2,0-0.5,0.1-0.7,0.1c0,0-0.1,0-0.1,0c0,0,0,0,0,0
					c-1.2,0.3-2.4,0.8-3.4,1.6L70.9,95.1c-2,1.5-3.2,3.7-3.5,6l-0.8,8.3c0.4,0.2,0.8,0.5,1.3,0.8L68.7,102.4z"/>
				<path id="XMLID_106_" class="st18" d="M75.2,106.6c0.2-2.3,1.5-4.5,3.5-6l33.4-25.3c1-0.8,2.1-1.3,3.4-1.6c0,0,0,0,0,0
					c0,0,0.1,0,0.1,0c0.2-0.1,0.5-0.1,0.7-0.1c0.3,0,0.6-0.1,0.7-0.1l19.9-1.4l19.4-1.4c1.1-0.1,4.5-0.4,7-0.3l-1-0.7
					c-1.4-0.8-5.6-0.4-7.2-0.3l-19.4,1.4l-19.9,1.4c-0.1,0-0.4,0.1-0.7,0.1c-0.2,0-0.5,0.1-0.7,0.1c0,0-0.1,0-0.1,0c0,0,0,0,0,0
					c-1.2,0.3-2.4,0.8-3.4,1.6L77.4,99.4c-2,1.5-3.2,3.7-3.5,6l-0.8,8.3c0.4,0.2,0.8,0.5,1.3,0.8L75.2,106.6z"/>
			</g>
			<g id="XMLID_98_">
				<path id="XMLID_103_" class="st18" d="M82,110c0.2-2.3,1.5-4.5,3.5-6l33.4-25.3c1-0.8,2.1-1.3,3.4-1.6c0,0,0,0,0,0
					c0,0,0.1,0,0.1,0c0.2-0.1,0.5-0.1,0.7-0.1c0.3,0,0.6-0.1,0.7-0.1l19.9-1.4l19.4-1.4c1.1-0.1,4.5-0.4,7-0.3l-1-0.7
					c-1.4-0.8-5.6-0.4-7.2-0.3l-19.4,1.4l-19.9,1.4c-0.1,0-0.4,0.1-0.7,0.1c-0.2,0-0.5,0.1-0.7,0.1c0,0-0.1,0-0.1,0c0,0,0,0,0,0
					c-1.2,0.3-2.4,0.8-3.4,1.6l-33.4,25.3c-2,1.5-3.2,3.7-3.5,6l-0.8,8.3c0.4,0.2,0.8,0.5,1.3,0.8L82,110z"/>
				<path id="XMLID_102_" class="st18" d="M88.3,113.5c0.2-2.3,1.5-4.5,3.5-6l33.4-25.3c1-0.8,2.1-1.3,3.4-1.6c0,0,0,0,0,0
					c0,0,0.1,0,0.1,0c0.2-0.1,0.5-0.1,0.7-0.1c0.3,0,0.6-0.1,0.7-0.1l19.9-1.4l19.4-1.4c1.1-0.1,4.5-0.4,7-0.3l-1-0.7
					c-1.4-0.8-5.6-0.4-7.2-0.3l-19.4,1.4l-19.9,1.4c-0.1,0-0.4,0.1-0.7,0.1c-0.2,0-0.5,0.1-0.7,0.1c0,0-0.1,0-0.1,0c0,0,0,0,0,0
					c-1.2,0.3-2.4,0.8-3.4,1.6l-33.4,25.3c-2,1.5-3.2,3.7-3.5,6l-0.8,8.3c0.4,0.2,0.8,0.5,1.3,0.8L88.3,113.5z"/>
				<path id="XMLID_101_" class="st18" d="M94.8,117.7c0.2-2.3,1.5-4.5,3.5-6l33.4-25.3c1-0.8,2.1-1.3,3.4-1.6c0,0,0,0,0,0
					c0,0,0.1,0,0.1,0c0.2-0.1,0.5-0.1,0.7-0.1c0.3,0,0.6-0.1,0.7-0.1l19.9-1.4l19.4-1.4c1.1-0.1,4.5-0.4,7-0.3l-1-0.7
					c-1.4-0.8-5.6-0.4-7.2-0.3l-19.4,1.4l-19.9,1.4c-0.1,0-0.4,0.1-0.7,0.1c-0.2,0-0.5,0.1-0.7,0.1c0,0-0.1,0-0.1,0c0,0,0,0,0,0
					c-1.2,0.3-2.4,0.8-3.4,1.6L97,110.5c-2,1.5-3.2,3.7-3.5,6l-0.8,8.3c0.4,0.2,0.8,0.5,1.3,0.8L94.8,117.7z"/>
			</g>
			<g id="XMLID_75_">
				<path id="XMLID_96_" class="st18" d="M100.9,121.3c0.2-2.3,1.5-4.5,3.5-6L137.8,90c1-0.8,2.1-1.3,3.4-1.6c0,0,0,0,0,0
					c0,0,0.1,0,0.1,0c0.2-0.1,0.5-0.1,0.7-0.1c0.3,0,0.6-0.1,0.7-0.1l19.9-1.4l19.4-1.4c1.1-0.1,4.5-0.4,7-0.3l-1-0.7
					c-1.4-0.8-5.6-0.4-7.2-0.3l-19.4,1.4l-19.9,1.4c-0.1,0-0.4,0.1-0.7,0.1c-0.2,0-0.5,0.1-0.7,0.1c0,0-0.1,0-0.1,0c0,0,0,0,0,0
					c-1.2,0.3-2.4,0.8-3.4,1.6l-33.4,25.3c-2,1.5-3.2,3.7-3.5,6l-0.8,8.3c0.4,0.2,0.8,0.5,1.3,0.8L100.9,121.3z"/>
				<path id="XMLID_81_" class="st18" d="M107.2,124.7c0.2-2.3,1.5-4.5,3.5-6L144,93.4c1-0.8,2.1-1.3,3.4-1.6c0,0,0,0,0,0
					c0,0,0.1,0,0.1,0c0.2-0.1,0.5-0.1,0.7-0.1c0.3,0,0.6-0.1,0.7-0.1l19.9-1.4l19.4-1.4c1.1-0.1,4.5-0.4,7-0.3l-1-0.7
					c-1.4-0.8-5.6-0.4-7.2-0.3l-19.4,1.4l-19.9,1.4c-0.1,0-0.4,0.1-0.7,0.1c-0.2,0-0.5,0.1-0.7,0.1c0,0-0.1,0-0.1,0c0,0,0,0,0,0
					c-1.2,0.3-2.4,0.8-3.4,1.6l-33.4,25.3c-2,1.5-3.2,3.7-3.5,6l-0.8,8.3c0.4,0.2,0.8,0.5,1.3,0.8L107.2,124.7z"/>
				<path id="XMLID_80_" class="st18" d="M113.7,129c0.2-2.3,1.5-4.5,3.5-6l33.4-25.3c1-0.8,2.1-1.3,3.4-1.6c0,0,0,0,0,0
					c0,0,0.1,0,0.1,0c0.2-0.1,0.5-0.1,0.7-0.1c0.3,0,0.6-0.1,0.7-0.1l19.9-1.4l19.4-1.4c1.1-0.1,4.5-0.4,7-0.3l-1-0.7
					c-1.4-0.8-5.6-0.4-7.2-0.3L174,93.2l-19.9,1.4c-0.1,0-0.4,0.1-0.7,0.1c-0.2,0-0.5,0.1-0.7,0.1c0,0-0.1,0-0.1,0c0,0,0,0,0,0
					c-1.2,0.3-2.4,0.8-3.4,1.6l-33.4,25.3c-2,1.5-3.2,3.7-3.5,6l-0.8,8.3c0.4,0.2,0.8,0.5,1.3,0.8L113.7,129z"/>
			</g>
			<g id="XMLID_68_">
				<path id="XMLID_73_" class="st18" d="M121.8,132.2c0.2-2.3,1.5-4.5,3.5-6l33.4-25.3c1-0.8,2.1-1.3,3.4-1.6c0,0,0,0,0,0
					c0,0,0.1,0,0.1,0c0.2-0.1,0.5-0.1,0.7-0.1c0.3,0,0.6-0.1,0.7-0.1l19.9-1.4l19.4-1.4c1.1-0.1,4.5-0.4,7-0.3l-1-0.7
					c-1.4-0.8-5.6-0.4-7.2-0.3l-19.4,1.4l-19.9,1.4c-0.1,0-0.4,0.1-0.7,0.1c-0.2,0-0.5,0.1-0.7,0.1c0,0-0.1,0-0.1,0c0,0,0,0,0,0
					c-1.2,0.3-2.4,0.8-3.4,1.6L124,125c-2,1.5-3.2,3.7-3.5,6l-0.8,8.3c0.4,0.2,0.8,0.5,1.3,0.8L121.8,132.2z"/>
				<path id="XMLID_70_" class="st18" d="M128,135.7c0.2-2.3,1.5-4.5,3.5-6l33.4-25.3c1-0.8,2.1-1.3,3.4-1.6c0,0,0,0,0,0
					c0,0,0.1,0,0.1,0c0.2-0.1,0.5-0.1,0.7-0.1c0.3,0,0.6-0.1,0.7-0.1l19.9-1.4l19.4-1.4c1.1-0.1,4.5-0.4,7-0.3l-1-0.7
					c-1.4-0.8-5.6-0.4-7.2-0.3l-19.4,1.4l-19.9,1.4c-0.1,0-0.4,0.1-0.7,0.1c-0.2,0-0.5,0.1-0.7,0.1c0,0-0.1,0-0.1,0c0,0,0,0,0,0
					c-1.2,0.3-2.4,0.8-3.4,1.6l-33.4,25.3c-2,1.5-3.2,3.7-3.5,6l-0.8,8.3c0.4,0.2,0.8,0.5,1.3,0.8L128,135.7z"/>
				<path id="XMLID_69_" class="st18" d="M134.5,139.9c0.2-2.3,1.5-4.5,3.5-6l33.4-25.3c1-0.8,2.1-1.3,3.4-1.6c0,0,0,0,0,0
					c0,0,0.1,0,0.1,0c0.2-0.1,0.5-0.1,0.7-0.1c0.3,0,0.6-0.1,0.7-0.1l19.9-1.4l19.4-1.4c1.1-0.1,4.5-0.4,7-0.3l-1-0.7
					c-1.4-0.8-5.6-0.4-7.2-0.3l-19.4,1.4l-19.9,1.4c-0.1,0-0.4,0.1-0.7,0.1c-0.2,0-0.5,0.1-0.7,0.1c0,0-0.1,0-0.1,0c0,0,0,0,0,0
					c-1.2,0.3-2.4,0.8-3.4,1.6l-33.4,25.3c-2,1.5-3.2,3.7-3.5,6l-0.8,8.3c0.4,0.2,0.8,0.5,1.3,0.8L134.5,139.9z"/>
			</g>
			<g id="XMLID_64_">
				<path id="XMLID_67_" class="st18" d="M142.8,143.5c0.2-2.3,1.5-4.5,3.5-6l33.4-25.3c1-0.8,2.1-1.3,3.4-1.6c0,0,0,0,0,0
					c0,0,0.1,0,0.1,0c0.2-0.1,0.5-0.1,0.7-0.1c0.3,0,0.6-0.1,0.7-0.1l19.9-1.4l19.4-1.4c1.1-0.1,4.5-0.4,7-0.3l-1-0.7
					c-1.4-0.8-5.6-0.4-7.2-0.3l-19.4,1.4l-19.9,1.4c-0.1,0-0.4,0.1-0.7,0.1c-0.2,0-0.5,0.1-0.7,0.1c0,0-0.1,0-0.1,0c0,0,0,0,0,0
					c-1.2,0.3-2.4,0.8-3.4,1.6L145,136.2c-2,1.5-3.2,3.7-3.5,6l-0.8,8.3c0.4,0.2,0.8,0.5,1.3,0.8L142.8,143.5z"/>
			</g>
			<g id="Calque_5_-_copie">
				<path id="XMLID_156_" class="st19" d="M148.3,134.8L68.5,92c-3.2-1.7-2.3-5.6,1.9-8.6L89,69.9c4.3-3.1,10.3-4.2,13.4-2.4
					l78.6,45c2.7,1.5,1.5,5.1-2.6,7.9l-17.8,12.2C156.6,135.2,151.1,136.2,148.3,134.8z"/>
				<path id="XMLID_155_" class="st19" d="M143.5,149l-83-45.3c-2.5-1.4-2.2-3.4-2.2-3.4l0.8-7.2c0,0,1.3-2.6,4.2-1l82.3,45
					c3.2,1.7,5.4,4.6,5,6.2l-1.8,6.2C148.5,150.7,146.1,150.5,143.5,149z"/>
				<path id="XMLID_154_" class="st19" d="M183.4,110.4L107,65.3c-2.4-1.4-0.7-3,3-3.4l24.3-2.1c4.8-0.2,6.5,0.8,9.1,2.2l79.2,43.8
					c3.4,1.9,2.9,3.6-2.8,3.8l-24.6,1.8C189.6,111.6,186.6,112.2,183.4,110.4z"/>
			</g>
		</g>
		<g id="Calque_34">
			<g id="Calque_7">
				<polygon id="XMLID_129_" class="st20" points="177.9,225.4 170.3,226.3 170.3,168.6 177.4,167.6 				"/>
				<polygon id="XMLID_128_" class="st13" points="175.2,225.7 173.1,226 172.9,168.3 175,168 				"/>
			</g>
			<g id="Calque_7_-_copie">
				<polygon id="XMLID_57_" class="st20" points="198.3,222.4 190.7,223.4 190.7,165.7 197.8,164.8 				"/>
				<polygon id="XMLID_56_" class="st13" points="195.6,222.8 193.5,223 193.2,165.4 195.5,165.1 				"/>
			</g>
			<g id="Calque_7_-_copie_2">
				<polygon id="XMLID_121_" class="st20" points="247,215.5 239.4,216.6 239.4,158.8 246.5,157.9 				"/>
				<polygon id="XMLID_120_" class="st13" points="244.3,215.9 242.1,216.2 242,158.5 244.1,158.2 				"/>
			</g>
			<g id="Calque_7_-_copie_3">
				<polygon id="XMLID_51_" class="st20" points="266.6,212.7 259.1,213.8 259.1,156 266.1,155.1 				"/>
				<polygon id="XMLID_50_" class="st13" points="263.9,213.1 261.8,213.4 261.6,155.7 263.8,155.4 				"/>
			</g>
		</g>
		<g id="Calque_33" class="st21">
			<g id="Calque_7_-_copie_5" class="st22">
				<polygon id="XMLID_104_" class="st20" points="94.2,212.1 89.6,209.6 97.9,171.2 102.2,173.5 				"/>
				<polygon id="XMLID_100_" class="st13" points="92.6,211.1 91.3,210.4 99.5,172 100.8,172.7 				"/>
			</g>
			<g id="Calque_7_-_copie_6" class="st22">
				<polygon id="XMLID_109_" class="st20" points="106.5,218.6 101.9,216.1 110.2,177.7 114.4,180 				"/>
				<polygon id="XMLID_108_" class="st13" points="104.8,217.7 103.5,217 111.7,178.5 113,179.2 				"/>
			</g>
			<g id="Calque_7_-_copie_7" class="st22">
				<polygon id="XMLID_111_" class="st20" points="118.5,225 113.9,222.5 122.2,184.2 126.4,186.4 				"/>
				<polygon id="XMLID_110_" class="st13" points="116.8,224.1 115.5,223.4 123.7,185 125,185.7 				"/>
			</g>
			<g id="Calque_7_-_copie_8" class="st22">
				<polygon id="XMLID_113_" class="st20" points="130.2,231.4 125.6,228.9 133.9,190.5 138.1,192.8 				"/>
				<polygon id="XMLID_112_" class="st13" points="128.5,230.5 127.2,229.8 135.4,191.3 136.7,192 				"/>
			</g>
			<g id="Calque_7_-_copie_4" class="st22">
				<polygon id="XMLID_99_" class="st20" points="82.6,205.8 78,203.3 86.3,165 90.6,167.2 				"/>
				<polygon id="XMLID_97_" class="st13" points="81,204.9 79.7,204.2 87.8,165.8 89.2,166.5 				"/>
			</g>
		</g>
		<g id="Calque_33_-_copie">
			<g id="Calque_7_-_copie_9_4_">
				<polygon id="XMLID_95_" class="st20" points="80.2,188.3 74.2,185.6 80.7,136.4 86.3,138.9 				"/>
				<polygon id="XMLID_82_" class="st13" points="78,187.3 76.4,186.6 82.7,137.3 84.4,138 				"/>
			</g>
			<g id="Calque_7_-_copie_9_3_">
				<polygon id="XMLID_29_" class="st20" points="95.9,196.6 89.9,194 96.4,144.7 102,147.2 				"/>
				<polygon id="XMLID_27_" class="st13" points="93.7,195.7 92.1,194.9 98.4,145.6 100.1,146.3 				"/>
			</g>
			<g id="Calque_7_-_copie_9_2_">
				<polygon id="XMLID_72_" class="st20" points="111.6,205.2 105.5,202.5 112,153.3 117.6,155.7 				"/>
				<polygon id="XMLID_71_" class="st13" points="109.4,204.2 107.7,203.4 114,154.1 115.8,154.9 				"/>
			</g>
			<g id="Calque_7_-_copie_9_1_">
				<polygon id="XMLID_21_" class="st20" points="127,213.3 120.9,210.6 127.4,161.4 133.1,163.8 				"/>
				<polygon id="XMLID_19_" class="st13" points="124.8,212.3 123.1,211.6 129.4,162.3 131.2,163 				"/>
			</g>
			<g id="Calque_7_-_copie_9">
				<polygon id="XMLID_66_" class="st20" points="64.9,180.5 58.9,177.9 65.4,128.6 71,131.1 				"/>
				<polygon id="XMLID_65_" class="st13" points="62.7,179.6 61.1,178.8 67.4,129.5 69.1,130.3 				"/>
			</g>
		</g>
		<g id="Calque_32">
			<path id="XMLID_58_" class="st23" d="M275.1,211.5c4.5-0.6,7.8-5,7.2-9.4l-2.4-15.9c-1,15-22.9,18.3-22.9,18.3s-48,6.7-75.4,9
				c-32.4,2.7-35.1-10.2-35.1-10.2c-4.9,9.5-13.8,5.2-16,4.4c-9.4-3.7-57.9-27.8-71.7-38.2c-5.9-4.4-8-7.7-7.4-16.8l-1.5,15.6
				c-0.3,2.9,1.1,5.4,3.4,6.8l0,0l0.2,0.1c0.1,0.1,0.2,0.1,0.4,0.2l94,51.8l0,0c1.6,1.1,3.7,1.7,6.1,1.3l63-8.9L275.1,211.5z"/>
			<g id="Calque_12_-_copie_2">
				<polygon id="XMLID_14_" class="st11" points="274.5,149.8 149.3,167.2 55,116.5 54.5,121.8 148.7,172.4 275.2,154.5 				"/>
			</g>
			<g id="Calque_12_-_copie_3">
				<polygon id="XMLID_61_" class="st24" points="274,146.8 149.3,164.1 55.3,114.1 54.9,118.9 148.7,169.3 274.7,151.5 				"/>
			</g>
			<g id="Calque_12_-_copie">
				<polygon id="XMLID_11_" class="st25" points="274.3,149 149.9,166.3 55.1,115.3 54.6,120.4 149.3,171.2 275,153.5 				"/>
			</g>
		</g>
	</g>
</g>
<g id="Calque_23" class="st21">
	<g id="Calque_39" class="st22">
		<path id="XMLID_47_" class="st26" d="M197.4,165.2h-2.1c-1,0-1.8-0.6-1.8-1.4v-58.8c0-0.2-0.1-1.5,0.1-1.7
			c0.5-0.4,1.8-0.8,2.6-0.8c0,0,2.7,0.2,2.7,1l0.4,60.3C199.3,164.6,198.4,165.2,197.4,165.2z"/>
		<path id="XMLID_46_" class="st27" d="M196.4,163.2L196.4,163.2c-0.8,0-1.5-0.6-1.5-1.4v-59.3c0-0.6,0.7-0.6,1.5-0.6
			c0,0,1.5,0,1.5,0.6v59.3C197.9,162.6,197.2,163.2,196.4,163.2z"/>
		<path id="XMLID_39_" class="st28" d="M196,60l-14.7-1.2c-2.3-0.2-4.2,1.8-3.9,4.1c1.9,13.1,7.3,50.3,8.2,52.6l7.5,18.7
			c0.6,1.5,2,7.8,3.2,7.8l0,0c1.2,0,2.4-6.3,3-7.8l7.5-18.7c0.9-2.2,6.3-39.5,8.2-52.5c0.3-2.3-1.6-4.3-3.9-4.1L196.6,60
			C196.4,60,196.2,60,196,60z"/>
		<path id="XMLID_28_" class="st29" d="M196.2,63.2L181.5,62c-2.3-0.2-4.2,1.8-3.9,4.1c1.9,13.1,7.1,47,8,49.3l7.5,18.7
			c0.6,1.5,2,7.8,3.2,7.8l0,0c1.2,0,2.4-6.3,3-7.8l7.5-18.7c0.9-2.2,6.5-36.2,8.4-49.3c0.3-2.3-1.6-4.3-3.9-4.1l-14.4,1.2
			C196.6,63.2,196.4,63.2,196.2,63.2z"/>
		<path id="XMLID_23_" class="st30" d="M196.3,63.2L181.7,62c0,0,5.8,46.7,6.6,48.8l5.6,14c0.4,1.1,1.5,5.8,2.4,5.8l0,0
			c0.9,0,1.8-4.7,2.2-5.8l5.6-14c0.8-2,6.6-48.8,6.6-48.8L196.3,63.2z"/>
		<radialGradient id="XMLID_10_" cx="196.2276" cy="91.3985" r="22.2998" gradientUnits="userSpaceOnUse">
			<stop  offset="0" style="stop-color:#EB5758"/>
			<stop  offset="1" style="stop-color:#951917"/>
		</radialGradient>
		<path id="XMLID_38_" class="st31" d="M196.3,63.4l-12.4-1c0,0,4.9,39.6,5.6,41.3l4.7,11.9c0.4,0.9,1.2,4.9,2,4.9l0,0
			c0.8,0,1.5-4,1.9-4.9l4.7-11.9c0.7-1.7,5.6-41.3,5.6-41.3L196.3,63.4z"/>
		<g id="Calque_6_1_">
			<path id="XMLID_37_" class="st32" d="M196.3,75.4l-24.5-5.6l8.1,7.1c0,0,6.3,4,9.6,5.7c4.1,2.1,7,10.9,7,10.9s2.5-8.6,6.6-10.7
				c3.2-1.7,9.8-5.9,9.8-5.9l8.1-6.8L196.3,75.4z"/>
			<radialGradient id="XMLID_12_" cx="196.1837" cy="81.6345" r="16.2101" gradientUnits="userSpaceOnUse">
				<stop  offset="0" style="stop-color:#D6D5D5"/>
				<stop  offset="0.3213" style="stop-color:#D5D3D2"/>
				<stop  offset="0.5416" style="stop-color:#CCCACA"/>
				<stop  offset="0.7315" style="stop-color:#BEBDBC"/>
				<stop  offset="0.9032" style="stop-color:#ACAAAB"/>
				<stop  offset="1" style="stop-color:#A09E9E"/>
			</radialGradient>
			<path id="XMLID_36_" class="st33" d="M196.3,77.1l-20.9-5.3l10.6,6.7c0,0,4.4,2.3,6.4,3.4c2.5,1.3,3.9,9.5,3.9,9.5
				s1.2-8.1,3.8-9.5c2-1,6.4-3.4,6.4-3.4l10.4-6.5L196.3,77.1z"/>
			<path id="XMLID_35_" class="st34" d="M196.3,79.7l-7.8-2.6l4.2,2.6c0,0,1.6,0.8,2.3,1.2c0.9,0.5,1.3,6.1,1.3,6.1s0.5-5.6,1.3-6.1
				c0.7-0.4,2.3-1.2,2.3-1.2l4.2-2.6L196.3,79.7z"/>
		</g>
	</g>
	<g id="Calque_39_-_copie" class="st22">
		<path id="XMLID_44_" class="st26" d="M133,130.3h-2.1c-1,0-1.8-0.6-1.8-1.4V70c0-0.2-0.1-1.5,0.1-1.7c0.5-0.4,1.8-0.8,2.6-0.8
			c0,0,2.7,0.2,2.7,1l0.4,60.3C134.8,129.7,134,130.3,133,130.3z"/>
		<path id="XMLID_43_" class="st27" d="M131.9,128.3L131.9,128.3c-0.8,0-1.5-0.6-1.5-1.4V67.6c0-0.6,0.7-0.6,1.5-0.6
			c0,0,1.5,0,1.5,0.6v59.3C133.5,127.6,132.8,128.3,131.9,128.3z"/>
		<path id="XMLID_42_" class="st28" d="M131.6,25.1l-14.7-1.2c-2.3-0.2-4.2,1.8-3.9,4.1c1.9,13.1,7.3,50.3,8.2,52.6l7.5,18.7
			c0.6,1.5,2,7.8,3.2,7.8l0,0c1.2,0,2.4-6.3,3-7.8l7.5-18.7c0.9-2.2,6.3-39.5,8.2-52.5c0.3-2.3-1.6-4.3-3.9-4.1l-14.4,1.2
			C132,25.1,131.8,25.1,131.6,25.1z"/>
		<path id="XMLID_41_" class="st29" d="M131.8,28.3l-14.7-1.2c-2.3-0.2-4.2,1.8-3.9,4.1c1.9,13.1,7.1,47,8,49.3l7.5,18.7
			c0.6,1.5,2,7.8,3.2,7.8l0,0c1.2,0,2.4-6.3,3-7.8l7.5-18.7c0.9-2.2,6.5-36.2,8.4-49.3c0.3-2.3-1.6-4.3-3.9-4.1l-14.4,1.2
			C132.2,28.3,132,28.3,131.8,28.3z"/>
		<path id="XMLID_40_" class="st30" d="M131.9,28.3l-14.6-1.2c0,0,5.8,46.7,6.6,48.8l5.6,14c0.4,1.1,1.5,5.8,2.4,5.8l0,0
			c0.9,0,1.8-4.7,2.2-5.8l5.6-14c0.8-2,6.6-48.8,6.6-48.8L131.9,28.3z"/>
		<radialGradient id="XMLID_13_" cx="131.802" cy="56.4953" r="22.2998" gradientUnits="userSpaceOnUse">
			<stop  offset="0" style="stop-color:#EB5758"/>
			<stop  offset="1" style="stop-color:#951917"/>
		</radialGradient>
		<path id="XMLID_34_" class="st35" d="M131.9,28.5l-12.4-1c0,0,4.9,39.6,5.6,41.3l4.7,11.9c0.4,0.9,1.2,4.9,2,4.9l0,0
			c0.8,0,1.5-4,1.9-4.9l4.7-11.9c0.7-1.7,5.6-41.3,5.6-41.3L131.9,28.5z"/>
		<g id="Calque_6_5_">
			<path id="XMLID_33_" class="st32" d="M131.9,40.5l-24.5-5.6l8.1,7.1c0,0,6.3,4,9.6,5.7c4.1,2.1,7,10.9,7,10.9s2.5-8.6,6.6-10.7
				c3.2-1.7,9.8-5.9,9.8-5.9l8.1-6.8L131.9,40.5z"/>
			<radialGradient id="XMLID_15_" cx="131.7581" cy="46.7313" r="16.2101" gradientUnits="userSpaceOnUse">
				<stop  offset="0" style="stop-color:#D6D5D5"/>
				<stop  offset="0.3213" style="stop-color:#D5D3D2"/>
				<stop  offset="0.5416" style="stop-color:#CCCACA"/>
				<stop  offset="0.7315" style="stop-color:#BEBDBC"/>
				<stop  offset="0.9032" style="stop-color:#ACAAAB"/>
				<stop  offset="1" style="stop-color:#A09E9E"/>
			</radialGradient>
			<path id="XMLID_32_" class="st36" d="M131.9,42.2L111,37l10.6,6.7c0,0,4.4,2.3,6.4,3.4c2.5,1.3,3.9,9.5,3.9,9.5s1.2-8.1,3.8-9.5
				c2-1,6.4-3.4,6.4-3.4l10.4-6.5L131.9,42.2z"/>
			<path id="XMLID_31_" class="st34" d="M131.9,44.8l-7.8-2.6l4.2,2.6c0,0,1.6,0.8,2.3,1.2c0.9,0.5,1.3,6.1,1.3,6.1s0.5-5.6,1.3-6.1
				c0.7-0.4,2.3-1.2,2.3-1.2l4.2-2.6L131.9,44.8z"/>
		</g>
	</g>
</g>
<g id="Calque_6_3_">
	<path id="XMLID_8_" class="st32" d="M216.4,134.5l-16.6-2l6.4,4.4c0,0,4.3,2,6.3,2.7c2.4,0.9,4.2,5.5,4.2,5.5s1.3-5.1,3.5-6.7
		c1.7-1.3,5.1-4.2,5.1-4.2l4.2-4.6L216.4,134.5z"/>
	<radialGradient id="XMLID_16_" cx="215.1115" cy="137.5151" r="9.8808" gradientUnits="userSpaceOnUse">
		<stop  offset="0" style="stop-color:#D6D5D5"/>
		<stop  offset="0.3213" style="stop-color:#D5D3D2"/>
		<stop  offset="0.5416" style="stop-color:#CCCACA"/>
		<stop  offset="0.7315" style="stop-color:#BEBDBC"/>
		<stop  offset="0.9032" style="stop-color:#ACAAAB"/>
		<stop  offset="1" style="stop-color:#A09E9E"/>
	</radialGradient>
	<path id="XMLID_7_" class="st37" d="M216.4,135.6l-13.7-1.9l7.6,3.6c0,0,2.8,1,4,1.5c1.5,0.6,2.3,5.1,2.3,5.1s0.6-4.8,2-5.8
		c1.1-0.8,3.4-2.5,3.4-2.5l5.4-4.6L216.4,135.6z"/>
	<path id="XMLID_6_" class="st34" d="M216.5,137.2l-4.7-1l2.6,1.3c0,0,0.9,0.4,1.3,0.5c0.5,0.2,0.8,3.5,0.8,3.5s0.2-3.3,0.7-3.7
		c0.4-0.3,1.2-0.9,1.2-0.9l2.3-1.9L216.5,137.2z"/>
</g>
</svg>
