<?xml version="1.0" encoding="utf-8"?>
<!-- Generator: Adobe Illustrator 19.0.0, SVG Export Plug-In . SVG Version: 6.00 Build 0)  -->
<svg version="1.0" id="Calque_32" xmlns="http://www.w3.org/2000/svg" xmlns:xlink="http://www.w3.org/1999/xlink" x="0px" y="0px"
	 viewBox="0 0 300 300" style="enable-background:new 0 0 300 300;" xml:space="preserve">
<style type="text/css">
	.st0{display:none;}
	.st1{display:inline;}
	.st2{opacity:0.1;}
	.st3{fill:#563D1E;stroke:#000000;stroke-width:2;stroke-miterlimit:10;}
	.st4{fill:#FFFFFF;stroke:#000000;stroke-width:2;stroke-miterlimit:10;}
	.st5{fill:#009FE3;stroke:#000000;stroke-width:2;stroke-miterlimit:10;}
	.st6{fill:none;stroke:#000000;stroke-width:2;stroke-miterlimit:10;}
</style>
<g id="Calque_24" class="st0">
	<g id="Calque_23" class="st1">
		<g id="Calque_22">
			<path id="XMLID_29_" class="st2" d="M128.2,140.5c0.7,0.2,1.4,0.3,2.2,0.4c1.9,0.2,3.7-0.1,5.6-0.2c1.9-0.1,3.8,0,5.4,1
				s2.8,2.9,2.3,4.7c-0.2,0.9-0.8,1.6-1.4,2.3c-0.8,0.9-1.6,1.9-2.6,2.6c-0.8,0.5-1.8,0.8-2.7,1.1c-1.8,0.5-3.9,1-5.6,0
				c-1.6-0.9-2.3-2.8-2.8-4.5c-0.5-1.9-1-3.9-1.2-5.9"/>
			<path id="XMLID_34_" class="st3" d="M127.7,133c2.4,2.8,6.3,3.8,10,3.8c1.1,0,2.2,0,3.3,0.3c1,0.3,2,0.9,2.6,1.7
				c0.3,0.4,0.6,0.8,1.1,0.8c0.2-1.4,0.3-2.9-0.5-4.1c-0.6-0.9-1.6-1.4-2.6-1.7c-1-0.3-2.1-0.5-3-0.9c-1.5-0.7-2.8-1.9-4-3
				c-1.3-1.1-2.8-2.1-4.5-2.1c-0.3,0-0.6,0-0.8,0.2c-0.2,0.1-0.4,0.4-0.6,0.6c-0.4,0.6-0.9,1.2-1.3,1.8c-0.4,0.6-0.8,1.3-0.4,1.9"/>
		</g>
		<path id="XMLID_26_" class="st4" d="M119.6,139c1.5,0.2,3,0.2,4.5,0.1c0.9-0.1,2.7-0.1,3.5-0.1c0.8,0.1,2.4,1.2,4.8,1.7
			c1.1,0.2,5.4-0.6,6.2,0.1c1.7,1.3,2.4,5,0.6,7.1c-3,2.3-7.6,2.7-11.1,1.1c-1.5-0.7-2.9-1.8-3.4-3.2c-0.6-1.4-2-5.7-0.8-6.8"/>
		<ellipse id="XMLID_28_" class="st5" cx="133.2" cy="144.9" rx="2.7" ry="3.6"/>
	</g>
	<g id="Calque_23_-_copie_2" class="st1">
		<g id="Calque_22_-_copie">
			<path id="XMLID_57_" class="st2" d="M175.7,140.5c-0.7,0.2-1.4,0.3-2.2,0.4c-1.9,0.2-3.7-0.1-5.6-0.2c-1.9-0.1-3.8,0-5.4,1
				s-2.8,2.9-2.3,4.7c0.2,0.9,0.8,1.6,1.4,2.3c0.8,0.9,1.6,1.9,2.6,2.6c0.8,0.5,1.8,0.8,2.7,1.1c1.8,0.5,3.9,1,5.6,0
				c1.6-0.9,2.3-2.8,2.8-4.5c0.5-1.9,1-3.9,1.2-5.9"/>
			<path id="XMLID_56_" class="st3" d="M176.1,133c-2.4,2.8-6.3,3.8-10,3.8c-1.1,0-2.2,0-3.3,0.3c-1,0.3-2,0.9-2.6,1.7
				c-0.3,0.4-0.6,0.8-1.1,0.8c-0.2-1.4-0.3-2.9,0.5-4.1c0.6-0.9,1.6-1.4,2.6-1.7c1-0.3,2.1-0.5,3-0.9c1.5-0.7,2.8-1.9,4-3
				c1.3-1.1,2.8-2.1,4.5-2.1c0.3,0,0.6,0,0.8,0.2c0.2,0.1,0.4,0.4,0.6,0.6c0.4,0.6,0.9,1.2,1.3,1.8c0.4,0.6,0.8,1.3,0.4,1.9"/>
		</g>
		<path id="XMLID_66_" class="st4" d="M184.3,139c-1.5,0.2-3,0.2-4.5,0.1c-0.9-0.1-2.7-0.1-3.5-0.1c-0.8,0.1-2.4,1.2-4.8,1.7
			c-1.1,0.2-5.4-0.6-6.2,0.1c-1.7,1.3-2.4,5-0.6,7.1c3,2.3,7.6,2.7,11.1,1.1c1.5-0.7,2.9-1.8,3.4-3.2c0.6-1.4,2-5.7,0.8-6.8"/>
		<ellipse id="XMLID_53_" class="st5" cx="170.7" cy="144.9" rx="2.7" ry="3.6"/>
	</g>
</g>
<g id="Calque_34">
	<g id="Calque_23_-_copie_3">
		<g id="Calque_22_-_copie_2">
			<path id="XMLID_37_" class="st2" d="M175.7,140.5c-0.7,0.2-1.4,0.3-2.2,0.4c-1.9,0.2-3.7-0.1-5.6-0.2c-1.9-0.1-3.8,0-5.4,1
				s-2.8,2.9-2.3,4.7c0.2,0.9,0.8,1.6,1.4,2.3c0.8,0.9,1.6,1.9,2.6,2.6c0.8,0.5,1.8,0.8,2.7,1.1c1.8,0.5,3.9,1,5.6,0
				c1.6-0.9,2.3-2.8,2.8-4.5c0.5-1.9,1-3.9,1.2-5.9"/>
			<path id="XMLID_36_" class="st3" d="M176.9,136.3c-1.7,2.9-7.1,4.5-10.8,4.5c-1.1,0-2.2,0-3.3,0.3c-1,0.3-2,0.9-2.6,1.7
				c-0.3,0.4-0.6,0.8-1.1,0.8c-0.2-1.4-0.3-2.9,0.5-4.1c0.6-0.9,1.6-1.4,2.6-1.7c1-0.3,2.1-0.5,3-0.9c1.5-0.7,2.8-1.9,4-3
				c1.3-1.1,2.8-2.1,4.5-2.1c0.3,0,0.6,0,0.8,0.2c0.2,0.1,0.4,0.4,0.6,0.6c0.4,0.6,0.9,1.2,1.3,1.8
				C176.8,135,177.3,135.7,176.9,136.3"/>
			<g id="Calque_30">
			</g>
			<path id="XMLID_13_" class="st6" d="M163.7,146.3c-1.2,1.4,1.7,2.5,2.3,2.6c1.9,0.3,7.7-1.2,8.5-1.5s1.9-1.8,0.5-2.9"/>
		</g>
	</g>
	<g id="Calque_23_-_copie_4">
		<g id="Calque_22_-_copie_3">
			<path id="XMLID_71_" class="st2" d="M128.3,140.5c0.7,0.2,1.4,0.3,2.2,0.4c1.9,0.2,3.7-0.1,5.6-0.2c1.9-0.1,3.8,0,5.4,1
				s2.8,2.9,2.3,4.7c-0.2,0.9-0.8,1.6-1.4,2.3c-0.8,0.9-1.6,1.9-2.6,2.6c-0.8,0.5-1.8,0.8-2.7,1.1c-1.8,0.5-3.9,1-5.6,0
				c-1.6-0.9-2.3-2.8-2.8-4.5c-0.5-1.9-1-3.9-1.2-5.9"/>
			<path id="XMLID_70_" class="st3" d="M127.1,136.3c1.7,2.9,7.1,4.5,10.8,4.5c1.1,0,2.2,0,3.3,0.3c1,0.3,2,0.9,2.6,1.7
				c0.3,0.4,0.6,0.8,1.1,0.8c0.2-1.4,0.3-2.9-0.5-4.1c-0.6-0.9-1.6-1.4-2.6-1.7c-1-0.3-2.1-0.5-3-0.9c-1.5-0.7-2.8-1.9-4-3
				c-1.3-1.1-2.8-2.1-4.5-2.1c-0.3,0-0.6,0-0.8,0.2c-0.2,0.1-0.4,0.4-0.6,0.6c-0.4,0.6-0.9,1.2-1.3,1.8
				C127.1,135,126.7,135.7,127.1,136.3"/>
			<g id="Calque_30_-_copie">
			</g>
			<path id="XMLID_25_" class="st6" d="M140.2,146.3c1.2,1.4-1.7,2.5-2.3,2.6c-1.9,0.3-7.7-1.2-8.5-1.5s-1.9-1.8-0.5-2.9"/>
		</g>
	</g>
</g>
</svg>
