<?xml version="1.0" encoding="utf-8"?>
<!-- Generator: Adobe Illustrator 19.0.0, SVG Export Plug-In . SVG Version: 6.00 Build 0)  -->
<svg version="1.0" xmlns="http://www.w3.org/2000/svg" xmlns:xlink="http://www.w3.org/1999/xlink" x="0px" y="0px"
	 viewBox="0 0 300 300" style="enable-background:new 0 0 300 300;" xml:space="preserve">
<style type="text/css">
	.st0{display:none;}
	.st1{display:inline;}
	.st2{display:inline;fill:#BBAB8E;}
	.st3{opacity:5.000000e-002;fill:#FFFFFF;enable-background:new    ;}
	.st4{fill:#010202;}
	.st5{fill:url(#XMLID_54_);stroke:#1A3A1D;stroke-width:3;stroke-miterlimit:10;}
	.st6{fill:#1C3A1F;}
	.st7{fill:#030405;}
	.st8{fill:#343434;}
	.st9{fill:#A5A3A3;}
	.st10{fill:#848580;}
	.st11{fill:#CFCECE;}
	.st12{fill:none;stroke:#0B0B0C;stroke-width:19;stroke-miterlimit:10;}
	.st13{fill:none;stroke:#DDDDDD;stroke-width:6;stroke-miterlimit:10;}
	.st14{opacity:0.25;}
	.st15{fill:none;stroke:#000000;stroke-width:6;stroke-miterlimit:10;}
	.st16{fill:#EAC37D;}
	.st17{fill:#563D1E;stroke:#000000;stroke-width:3;stroke-miterlimit:10;}
	.st18{opacity:0.1;}
	.st19{fill:#D8B275;stroke:#000000;stroke-width:3;stroke-miterlimit:10;}
	.st20{fill:#D8B275;}
	.st21{fill:url(#XMLID_56_);stroke:#0F1911;stroke-width:2;stroke-miterlimit:10;}
	.st22{stroke:#000000;stroke-width:5;stroke-miterlimit:10;}
	.st23{stroke:#009640;stroke-miterlimit:10;}
	.st24{opacity:0.15;fill:#555550;}
	.st25{fill:url(#XMLID_57_);stroke:#101913;stroke-width:3;stroke-miterlimit:10;}
	.st26{fill:url(#XMLID_66_);stroke:#0F1911;stroke-width:3;stroke-miterlimit:10;}
	.st27{fill:url(#XMLID_67_);stroke:#0F1911;stroke-width:3;stroke-miterlimit:10;}
	.st28{fill:none;stroke:#000000;stroke-width:2;stroke-miterlimit:10;}
	.st29{display:none;fill:none;stroke:#000000;stroke-width:2;stroke-miterlimit:10;}
	.st30{display:inline;opacity:0.25;fill:#020304;}
	.st31{display:inline;fill:url(#XMLID_69_);stroke:#1A3A1D;stroke-width:3;stroke-miterlimit:10;}
	.st32{display:inline;fill:url(#XMLID_70_);stroke:#1A3A1D;stroke-width:3;stroke-miterlimit:10;}
	.st33{display:inline;opacity:0.25;}
	.st34{fill:#020304;}
	.st35{fill:url(#XMLID_71_);}
	.st36{fill:none;stroke:#1A3A1D;stroke-width:3;stroke-miterlimit:10;}
	.st37{fill:#FFFFFF;}
</style>
<g id="Calque_1" class="st0">
	<g id="Calque_12" class="st1">
		<circle id="XMLID_86_" cx="152" cy="147.8" r="114.3"/>
		<g id="Calque_13">
			<g id="Calque_8_-_copie">
				<g id="Calque_4_-_copie_3_1_">
				</g>
				<g id="Calque_4_-_copie_3" class="st0">
					<path id="XMLID_68_" class="st2" d="M193.8,107.9v52.5c0,16.2-13.2,29.4-29.4,29.4h-22.7c-16.2,0-29.4-13.2-29.4-29.4v-52.5
						c-3,4.6-4.8,10.1-4.8,16v40.3c0,16.2,13.2,29.4,29.4,29.4h32.2c16.2,0,29.4-13.2,29.4-29.4v-40.3
						C198.5,118,196.7,112.5,193.8,107.9z"/>
				</g>
				<g id="Calque_6_-_copie_2">
					<g id="Calque_10_-_copie_3_1_">
					</g>
					<g id="Calque_10_-_copie_3">
					</g>
				</g>
				<g id="Calque_9_-_copie">
				</g>
				<g id="Calque_11_-_copie">
				</g>
			</g>
			<path id="XMLID_88_" class="st3" d="M248,223.2L248,223.2c0,0,2.1-10.2-0.2-13c-12.8-16.3-29.5-29.3-48.8-37.5
				c0.8-4.2,1.1-8.7,1.1-13l2.9-3.8c6.4-8.5,10-18.1,10.4-28l0.3-6.6c0-6.5-2.6-12.6-6.9-17.6c-2-5.8-6-10.9-11.2-14.8
				c0,0,0-0.1,0-0.1c0-0.2,0.1-0.4,0.1-0.6c0-0.7,0.6-21.8,0-22.5c0-5.9-19.1-10.6-42.6-10.6s-42.6,4.7-42.6,10.6
				c0,0.6,0.2,1.1,0.6,1.7c-0.3,4.5-0.5,16.6-0.5,19.9c-6.4,4-11.3,9.8-13.7,16.4c-4.4,5-6.9,11.1-6.9,17.6l0.3,6.6
				c0.4,9.8,4,19.5,10.4,28l2.9,3.8c0,4.1,0.3,8.2,1,12.2c-19.1,7.8-35.9,20.3-48.8,36.1c-3.5,4.2,3.6,22.9,5.2,22.8l29.1,18.7
				c0.2,1.4,0.5,2.8,0.8,4.2h110.1c0,0,0-0.1-0.1-0.1h1.4l27.4-18c0.2,0.4,0.3,0.8,0.4,1.2c0.3,1.7-0.1,3.5,0.4,5.2
				C230.5,243.6,248,223.2,248,223.2z"/>
		</g>
		<g id="Calque_4_2_">
			<path id="XMLID_6_" class="st4" d="M234,223.1c-17.5-31.6-47.7-52.5-82.2-52.5c-35.2,0-66.1,21.8-83.4,54.6l39.9,30h84.1
				L234,223.1z"/>
			<radialGradient id="XMLID_54_" cx="151.2924" cy="215.3465" r="61.7788" gradientUnits="userSpaceOnUse">
				<stop  offset="0" style="stop-color:#009640"/>
				<stop  offset="1" style="stop-color:#007936"/>
			</radialGradient>
			<path id="XMLID_49_" class="st5" d="M229.1,226.9c-16-30.8-44.6-51.3-77.2-51.3c-33.4,0-62.5,21.5-78.3,53.4l34.8,26.2h84.1
				L229.1,226.9z"/>
			<g id="圖層_1_6_">
				<path id="XMLID_48_" class="st6" d="M205.9,196.9c-1.6,1.8-2.9,3.2-3.2,3.6c-1.8-0.4-3.6-0.7-5.4-0.1c-1.8,0.6-3.1,2.5-2.5,4.2
					c0.3,0.8,0.9,1.4,1.4,2.1c1.5,2.1,1.4,5.1-0.1,7.1c-1.8,2.4-5,3.2-6.8,5.6c-1.2,1.6-1.5,3.8-1.6,5.9c-0.1,0.9-0.1,1.9,0.2,2.8
					c0.4,0.9,1.2,1.6,2.1,1.4c1.2-0.1,1.7-1.5,2.4-2.5c1-1.4,3.3-2.2,4.6-1c2.2,2-1,5.6-0.1,8.4c0.6,1.8,2.7,2.7,4.5,3
					c2.8,0.4,5.5,0.1,8.1-0.8c0.7-0.2,1.3-0.5,2-0.4c1.6,0.1,2.7,1.9,2.9,3.4s-0.1,3.3,0.3,4.8c0.4,1.6,1.9,3.1,3.4,2.6
					c0.5-0.1,1-0.5,1.5-0.7c1.7-0.4,13.4-10.7,11.1-15.6C224.6,217.4,216.1,205.9,205.9,196.9z"/>
				<path id="XMLID_47_" class="st6" d="M76.9,235.4c1.6-2,4.8-1.9,6.8-0.4c0.6,0.4,1.2,1,2,1.2c1.6,0.3,2.8-1.4,3.4-2.8
					c0.7-1.5,1.5-3.2,3.1-3.3c2.2-0.2,4.1,2.9,6.1,2c1.4-0.7,1.3-2.7,1.1-4.2c-0.3-1.6-0.1-3.6,1.4-4.1c0.5-0.1,1,0,1.6,0
					c1.8,0,3.6-1.5,3.6-3.3c0-1.8-2.1-3.3-3.7-2.6c-0.5,0.2-1,0.7-1.6,0.4c-0.3-0.1-0.4-0.4-0.6-0.7c-1.2-2.1-2.2-5.1-0.2-6.5
					c1.5-1.1,3.8-0.3,5.2-1.5c1.3-1.1,1-3.3-0.1-4.7s-2.6-2.2-3.8-3.5c-1.1-1.3-1.9-2.8-2.1-4.5c-0.1-0.4-0.1-0.7,0-1
					c-12.6,10.8-22.9,25.4-29.6,42.4C72.3,237.3,76.2,236.3,76.9,235.4z"/>
				<path id="XMLID_46_" class="st6" d="M189.9,250.4c0.1-1.3,0.9-2.6,0.7-4c-0.3-3.2-5-4.2-5.7-7.4c-0.4-1.6,0.4-3.7-0.8-4.9
					c-1.5-1.5-4.2,0-6-1c-1.6-1-1.9-3.6-3.7-4.1c-1.5-0.4-2.8,0.8-4.3,1.3c-2.2,0.7-4.7-0.6-6.1-2.5c-0.7-1-1.3-2.2-2.5-2.6
					c-2.5-1-5,2.6-7.7,2.2c-1.9-0.3-3.3-2.5-5.2-2.2c-1.7,0.3-2.4,2.5-2.6,4.2c-0.2,1.7-6.9-6-8.7-5.9c-2.4,0.2-4.2-3.3-6.5-2.7
					c-2,0.6-1.9,3.6-3.3,5c-1,1-2.7,1.1-3.9,1.9c-2.8,1.7-3,6.2-6,7.4c-0.9,0.4-1.9,0.3-2.8,0.7c-2.2,0.9-3.1,3.6-3.5,6L111,242
					c0.1,0.9-0.9,1.6-1.9,1.6c-0.9,0.1-1.9-0.3-2.8-0.3c-1.5,0-2.9,0.9-3.5,2.3c-0.3,0.7,0.2,5.5,1,9.6h87.5
					C190.5,253.7,189.7,252.1,189.9,250.4z"/>
			</g>
			<path id="XMLID_45_" class="st7" d="M120.8,255.2h65.1c-19.3-13.4-32.6-37.1-32.6-37.1S140.1,241.8,120.8,255.2z"/>
			<path id="XMLID_44_" class="st8" d="M123.8,255.2h59.1c-17.5-13.1-29.5-36.3-29.5-36.3S141.3,242.1,123.8,255.2z"/>
			<path id="XMLID_43_" class="st9" d="M134.3,255.2h38.2c-11.3-13.1-19-36.3-19-36.3S145.6,242.1,134.3,255.2z"/>
			<g id="Calque_6_2_">
				<path id="XMLID_42_" class="st7" d="M153.2,214.4l-31.5-7.2l10.4,9.2c0,0,8.1,5.1,12.4,7.4c5.3,2.8,9,14.1,9,14.1
					s3.2-11.1,8.5-13.8c4.2-2.2,12.6-7.6,12.6-7.6l10.4-8.8L153.2,214.4z"/>
				<path id="XMLID_41_" class="st10" d="M153.2,216.6l-26.9-6.8l13.7,8.6c0,0,5.7,2.9,8.3,4.3c3.3,1.7,5,12.2,5,12.2
					s1.6-10.5,4.8-12.2c2.6-1.3,8.3-4.3,8.3-4.3l13.4-8.4L153.2,216.6z"/>
				<path id="XMLID_40_" class="st11" d="M153.2,219.9l-10-3.3l5.4,3.3c0,0,2,1,2.9,1.6c1.2,0.6,1.7,7.9,1.7,7.9s0.6-7.2,1.7-7.9
					c0.9-0.5,2.9-1.6,2.9-1.6l5.4-3.3L153.2,219.9z"/>
			</g>
		</g>
		<circle id="XMLID_4_" class="st12" cx="152" cy="147.8" r="114.3"/>
		<circle id="XMLID_195_" class="st13" cx="152" cy="147.8" r="114.3"/>
		<g id="Calque_8">
			<g id="Calque_4_-_copie_2">
				<path id="XMLID_9_" class="st14" d="M167.6,99.9h-14.9h-0.3h-14.9c-15.6,0-28.3,14.3-28.3,31.7l0.2,6.6
					c0.3,9.9,2.8,19.6,7.3,28.1l-3,3.2c0,17.4,8.3,37.1,23.9,37.1h14.9h0.3h14.9c15.6,0,24.8-21.2,24.8-38.7l-4-1.7
					c4.5-8.6,7-18.2,7.3-28.1l0.2-6.6C195.9,114.1,183.1,99.9,167.6,99.9z"/>
				<path id="XMLID_16_" class="st15" d="M169.4,91.2h-16.6h-0.3h-16.6c-17.4,0-31.7,14.3-31.7,31.7l0.2,6.6
					c0.3,9.9,3.1,19.6,8.1,28.1l2.2,3.8c0,17.4,3.7,36.6,21.1,36.6h16.6h0.3h16.6c17.4,0,21.1-19.1,21.1-36.6l2.2-3.8
					c5-8.6,7.8-18.2,8.1-28.1l0.2-6.6C201.1,105.5,186.8,91.2,169.4,91.2z"/>
				<path id="XMLID_8_" class="st16" d="M169.4,91.2h-16.6h-0.3h-16.6c-17.4,0-31.7,14.3-31.7,31.7l0.2,6.6
					c0.3,9.9,3.1,19.6,8.1,28.1l2.2,3.8c0,17.4,3.7,36.6,21.1,36.6h16.6h0.3h16.6c17.4,0,21.1-19.1,21.1-36.6l2.2-3.8
					c5-8.6,7.8-18.2,8.1-28.1l0.2-6.6C201.1,105.5,186.8,91.2,169.4,91.2z"/>
				<path id="XMLID_39_" class="st17" d="M133,91.4c-0.7,0.1-1.5,0.1-2.2,0.3c-0.1,0-0.2,0-0.3,0c-0.7,0.1-1.3,0.2-2,0.4
					c-0.1,0-0.2,0.1-0.4,0.1c-0.7,0.2-1.4,0.4-2.1,0.6c-0.1,0-0.2,0.1-0.3,0.1c-0.7,0.2-1.4,0.5-2,0.8c0,0-0.1,0-0.1,0
					c-0.7,0.3-1.4,0.6-2.1,1c-0.1,0-0.2,0.1-0.2,0.1c-1.4,0.7-2.7,1.5-3.9,2.4c-8.1,5.8-13.4,15.2-13.4,25.8l0.2,5.9
					c0.9,0.2,1.7,0.4,2.7,0.4c6.2,0,11.5-5.9,13.2-14c8.7,2.9,20.5,4.7,33.6,4.7c12.3,0,23.5-1.6,32-4.2c1.6,8.3,6.9,14.4,13.2,14.4
					c0.6,0,1.3-0.1,1.9-0.2c0-0.1,0-0.2,0-0.4l0.2-6.6c0-10.2-4.9-19.3-12.4-25.1c0,0,0,0,0,0c-2-1.5-4.1-2.8-6.4-3.8
					c-0.1,0-0.1-0.1-0.2-0.1c-0.3-0.1-0.6-0.3-0.9-0.4c-0.1-0.1-0.3-0.1-0.4-0.2c-0.3-0.1-0.6-0.2-0.9-0.3c-0.2-0.1-0.3-0.1-0.5-0.2
					c-0.3-0.1-0.5-0.2-0.8-0.3c-0.2-0.1-0.4-0.1-0.6-0.2c-0.4-0.1-0.8-0.2-1.2-0.3c-0.3-0.1-0.6-0.1-0.9-0.2c-0.2,0-0.4-0.1-0.6-0.1
					c-0.3-0.1-0.6-0.1-0.8-0.2c-0.2,0-0.4-0.1-0.6-0.1c-0.3,0-0.6-0.1-0.9-0.1c-0.2,0-0.4,0-0.6-0.1c-0.3,0-0.7-0.1-1-0.1
					c-0.2,0-0.3,0-0.5,0c-0.5,0-1,0-1.5,0h-16.6h-0.3h-16.6c-0.8,0-1.5,0-2.3,0.1C133.3,91.3,133.2,91.3,133,91.4z"/>
				<path id="XMLID_20_" class="st18" d="M169.4,91.2h-16.6h-0.3h-16.6c-17.4,0-31.7,14.3-31.7,31.7l0.2,6.6
					c0.3,9.9,3.1,19.6,8.1,28.1l2.2,3.8c0,17.4,3.7,36.6,21.1,36.6h16.6h0.3h16.6c17.4,0,21.1-19.1,21.1-36.6l2.2-3.8
					c5-8.6,7.8-18.2,8.1-28.1l0.2-6.6C201.1,105.5,186.8,91.2,169.4,91.2z M195.7,131.2c-0.3,8.8-2.8,17.5-7.3,25.1l-2,3.4
					c0,15.6-3.3,32.6-18.8,32.6h-14.9h-0.3h-14.9c-15.6,0-18.8-17.1-18.8-32.6l-2-3.4c-4.5-7.6-7-16.3-7.3-25.1l-0.2-5.9
					c0-15.6,12.7-28.3,28.3-28.3h14.9h0.3h14.9c15.6,0,28.3,12.7,28.3,28.3L195.7,131.2z"/>
				<path id="XMLID_31_" class="st19" d="M107.8,139.5c-2.8-0.7-5.8-0.7-8.6,0c-0.6,0.1-1.3,0.3-1.8,0.8c-0.7,0.6-0.8,1.6-0.9,2.5
					c-0.2,2.3,0.3,4.7,1.1,6.9c0.7,1.9,1.6,3.7,3.2,5c0.7,0.6,1.5,1,2.3,1.3c2.6,1.1,5.5,1.5,8.4,1.2"/>
				<path id="XMLID_35_" class="st19" d="M196.3,139.5c2.8-0.7,5.8-0.7,8.6,0c0.6,0.1,1.3,0.3,1.8,0.8c0.7,0.6,0.8,1.6,0.9,2.5
					c0.2,2.3-0.3,4.7-1.1,6.9c-0.7,1.9-1.6,3.7-3.2,5c-0.7,0.6-1.5,1-2.3,1.3c-2.6,1.1-5.5,1.5-8.4,1.2"/>
			</g>
			<g id="Calque_4_-_copie" class="st0">
				<path id="XMLID_14_" class="st2" d="M193.8,107.9v52.5c0,16.2-13.2,29.4-29.4,29.4h-22.7c-16.2,0-29.4-13.2-29.4-29.4v-52.5
					c-3,4.6-4.8,10.1-4.8,16v40.3c0,16.2,13.2,29.4,29.4,29.4h32.2c16.2,0,29.4-13.2,29.4-29.4v-40.3
					C198.5,118,196.7,112.5,193.8,107.9z"/>
			</g>
			<ellipse id="XMLID_23_" class="st20" cx="128.8" cy="161" rx="6" ry="2.9"/>
			<ellipse id="XMLID_32_" class="st20" cx="177" cy="160.4" rx="6" ry="2.9"/>
			<g id="Calque_6_-_copie">
				
					<radialGradient id="XMLID_56_" cx="152.3964" cy="137.3451" r="11.4238" gradientTransform="matrix(1 0 0 1.2311 0 -31.3248)" gradientUnits="userSpaceOnUse">
					<stop  offset="0" style="stop-color:#009640"/>
					<stop  offset="1" style="stop-color:#007936"/>
				</radialGradient>
				<path id="XMLID_25_" class="st21" d="M166.8,140H138c-0.9,0-1.7-0.8-1.7-1.7v-1.1c0-0.9,0.8-1.7,1.7-1.7h28.8
					c0.9,0,1.7,0.8,1.7,1.7v1.1C168.5,139.2,167.7,140,166.8,140z"/>
				<g id="Calque_10_-_copie_2">
					<path id="XMLID_36_" class="st22" d="M177.6,150.8h-6.7c-4.6,0-8.4-3.8-8.4-8.4v-2.4c0-4.6,3.8-8.4,8.4-8.4h6.7
						c4.6,0,8.4,3.8,8.4,8.4v2.4C186,147,182.2,150.8,177.6,150.8z"/>
					<path id="XMLID_28_" class="st23" d="M177.6,150.8h-6.7c-4.6,0-8.4-3.8-8.4-8.4v-2.4c0-4.6,3.8-8.4,8.4-8.4h6.7
						c4.6,0,8.4,3.8,8.4,8.4v2.4C186,147,182.2,150.8,177.6,150.8z"/>
					<path id="XMLID_26_" class="st24" d="M162.4,139.6v4.6c0,3.6,2.9,6.6,6.6,6.6h10.5c3.6,0,6.6-2.9,6.6-6.6v-4.6l-7.1,1.2
						c-3,0.5-6,0.5-8.9,0L162.4,139.6z"/>
				</g>
				<g id="Calque_10_-_copie_4">
					<path id="XMLID_29_" class="st22" d="M134.4,150.8h-6.7c-4.6,0-8.4-3.8-8.4-8.4v-2.4c0-4.6,3.8-8.4,8.4-8.4h6.7
						c4.6,0,8.4,3.8,8.4,8.4v2.4C142.8,147,139,150.8,134.4,150.8z"/>
					<path id="XMLID_13_" class="st23" d="M134.4,150.8h-6.7c-4.6,0-8.4-3.8-8.4-8.4v-2.4c0-4.6,3.8-8.4,8.4-8.4h6.7
						c4.6,0,8.4,3.8,8.4,8.4v2.4C142.8,147,139,150.8,134.4,150.8z"/>
					<path id="XMLID_34_" class="st24" d="M119.2,139.6v4.6c0,3.6,2.9,6.6,6.6,6.6h10.5c3.6,0,6.6-2.9,6.6-6.6v-4.6l-7.1,1.2
						c-3,0.5-6,0.5-8.9,0L119.2,139.6z"/>
				</g>
			</g>
			<g id="Calque_9">
				<radialGradient id="XMLID_57_" cx="152.3964" cy="112.6397" r="21.9314" gradientUnits="userSpaceOnUse">
					<stop  offset="0" style="stop-color:#009640"/>
					<stop  offset="1" style="stop-color:#007936"/>
				</radialGradient>
				<path id="XMLID_15_" class="st25" d="M129.5,122.7l22.1-2.1c0.6-0.1,1.2-0.1,1.8,0l21.7,2.1c0.7,0.1,1.4,0.1,2,0
					c3.6-0.6,5.7-3.5,3.9-6.1l-8.3-11.7c-1-1.4-3-2.3-5.2-2.3h-30.4c-2.2,0-4.2,0.9-5.2,2.3l-8.3,11.7c-1.9,2.7,0.6,5.8,4.5,6.1
					C128.7,122.7,129.1,122.7,129.5,122.7z"/>
				
					<radialGradient id="XMLID_66_" cx="153.7471" cy="87.9114" r="24.8347" gradientTransform="matrix(1.27 0 0 1 -41.4892 0)" gradientUnits="userSpaceOnUse">
					<stop  offset="0" style="stop-color:#009640"/>
					<stop  offset="1" style="stop-color:#007936"/>
				</radialGradient>
				<path id="XMLID_12_" class="st26" d="M190.2,97.2c0,5.9-16.4,10.7-36.6,10.7s-36.6-4.8-36.6-10.7c0-0.7,0.2-22,0.7-22.7
					c3.2-4.9,18.1-6.7,35.9-6.7c17.7,0,33.2,1.8,36.6,6.7C190.7,75.3,190.2,96.5,190.2,97.2z"/>
				<path id="XMLID_22_" class="st6" d="M182.3,69.7c-0.3,0.7-0.3,1.4-0.1,2.1c0.3,0.9,1,1.5,1.5,2.2c1.6,2.2,1.5,5.5-0.1,7.7
					c-1.9,2.6-5.4,3.5-7.3,6c-1.3,1.8-1.6,4.1-1.8,6.3c-0.1,1-0.2,2,0.2,3c0.4,1,1.3,1.7,2.2,1.5c1.3-0.2,1.8-1.6,2.6-2.6
					c1.1-1.5,3.5-2.4,5-1.1c1.7,1.6,0.4,4.1-0.1,6.5c2.9-1.5,4.6-3.3,4.6-5.2c0-0.7,0.5-22,0-22.7C188,71.9,185.7,70.7,182.3,69.7z"
					/>
				<path id="XMLID_27_" class="st6" d="M118.2,97.6c2.9,5,18,8.9,36,8.9c9.4,0,17.9-1,24.4-2.7c-0.5,0-1-0.2-1.4-0.4
					c-1.8-1-2.1-3.9-4-4.4c-1.6-0.5-3.1,0.9-4.7,1.4c-2.4,0.7-5.1-0.6-6.6-2.7c-0.8-1-1.4-2.3-2.6-2.8c-2.7-1-5.4,2.8-8.3,2.3
					c-2-0.3-3.5-2.6-5.6-2.3c-1.8,0.3-2.6,2.6-2.8,4.5c-0.2,1.8-7.5-6.5-9.4-6.3c-2.6,0.2-4.5-3.6-7-2.9c-2.2,0.6-2,3.9-3.6,5.4
					c-1.1,1.1-2.9,1.2-4.3,2.1C118.4,97.5,118.3,97.6,118.2,97.6z"/>
				
					<radialGradient id="XMLID_67_" cx="153.6615" cy="74.5785" r="21.7099" gradientTransform="matrix(1.27 0 0 1 -41.4892 0)" gradientUnits="userSpaceOnUse">
					<stop  offset="0" style="stop-color:#009640"/>
					<stop  offset="1" style="stop-color:#007936"/>
				</radialGradient>
				<ellipse id="XMLID_30_" class="st27" cx="153.7" cy="74.6" rx="36.6" ry="10.7"/>
				<path id="XMLID_33_" class="st6" d="M120.2,71.7c0,0,0,0.1-0.1,0.2c0.9,0,1.6-0.1,1.9-0.3c2.3-1.4,5.5-0.1,7,2.2
					c0.4,0.7,0.8,1.5,1.6,2c1.5,0.9,3.3-0.4,4.5-1.5c1.2-1.2,2.7-2.7,4.4-2.2c2.3,0.6,3,4.5,5.4,4.4c1.7-0.1,2.4-2.2,2.7-3.9
					c0.3-1.7,1.2-3.7,3-3.6c0.6,0,1.1,0.4,1.7,0.6c1.8,0.7,4.2-0.1,4.9-1.9c0.3-0.9,0.1-1.8-0.3-2.6c-0.3,0-0.5,0-0.8,0
					C138.3,65.1,123.4,66.8,120.2,71.7z"/>
			</g>
			<path id="XMLID_21_" class="st20" d="M149.3,181.3c5.4-1.2,5.8,1.3,5.8,2.7c-0.1,1.4-3.9,2.3-6,2.3c-2.1-0.1-3.8-1.3-3.7-2.6
				C145.4,182.2,147.3,181.7,149.3,181.3z"/>
			<path id="XMLID_24_" class="st20" d="M160.8,159.7c1.2,4.2-1.9,4.3-3.6,4.1c-1.7-0.2-2.8-3.2-2.6-4.8c0.2-1.6,1.7-2.7,3.4-2.5
				C159.7,156.7,160.3,158.2,160.8,159.7z"/>
			<g id="Calque_11">
				<path id="XMLID_10_" class="st28" d="M146.1,155.8c-3.4,3-3,6.8-3,6.9c-0.1,2,3,3,4.1,3c2.1,0,6.9,0,10.5,0
					c2.2,0,3.6-1.6,3.8-3.5c0.3-2.5-0.8-5.4-2.7-7.3"/>
			</g>
		</g>
	</g>
</g>
<g id="Calque_21">
	<path id="XMLID_11_" class="st29" d="M141.1,177c1.6,2.3,3.6,4.8,6.3,5c2.6,0.2,5.2-1.7,7.6-0.8"/>
	<path id="XMLID_37_" class="st29" d="M141.1,177c1.6,2.3,4.1,3.3,6.8,3.5c2.6,0.2,4.7-0.2,7.1,0.7"/>
	<path id="XMLID_38_" class="st28" d="M141.1,177c1.6,2.3,4.1,3.3,6.8,3.5c2.6,0.2,6.3-1.1,8.7-0.2"/>
	<path id="XMLID_51_" class="st29" d="M141.1,177c1.6,2.3,4.1,3.3,6.8,3.5c2.6,0.2,7.6,1.2,10.7-1"/>
</g>
<g id="Calque_5" class="st0">
	<path id="XMLID_59_" class="st30" d="M239.3,68l28.5,8.3c3.1,0.9,13.5,2.7,15.5,0.3c1.2-1.4-7.4-8.2-8.9-9.1l-9.1-7.1
		c-2.4-2.5-4-4.8,1-7.1l9.2-1.3c6.9-0.8,15.2-0.4,14.9-2.2c-0.4-3.1-10.1-4.8-13.2-5.7l-28.5-8.3c-5.7-1.7-11.8,1.9-13.6,7.9
		l-3,10.5c-0.9,3.1-2.7,7.4-1.3,10C232.1,66.4,236.6,67.2,239.3,68z"/>
	
		<radialGradient id="XMLID_69_" cx="255.9904" cy="-16132.5332" r="26.0126" gradientTransform="matrix(1 0 0 -1 0 -16082)" gradientUnits="userSpaceOnUse">
		<stop  offset="0" style="stop-color:#009640"/>
		<stop  offset="1" style="stop-color:#007936"/>
	</radialGradient>
	<path id="XMLID_60_" class="st31" d="M235,62l28.5,8.3c3.1,0.9,13.5,2.7,15.5,0.3c1.2-1.4-7.4-8.2-8.9-9.1l-9.1-7.1
		c-2.4-2.5-4-4.8,1-7.1l9.2-1.3c6.9-0.8,15.2-0.4,14.9-2.2c-0.4-3.1-10.1-4.8-13.2-5.7l-28.5-8.3c-5.7-1.7-11.8,1.9-13.6,7.9
		l-3,10.5c-0.9,3.1-2.7,7.4-1.3,10C227.8,60.4,232.3,61.2,235,62z"/>
	<path id="XMLID_62_" class="st30" d="M60.7,67l-28.5,8.3c-3.1,0.9-13.5,2.7-15.5,0.3c-1.2-1.4,7.4-8.2,8.9-9.1l9.1-7.1
		c2.4-2.5,4-4.8-1-7.1L24.6,51c-6.9-0.8-15.2-0.4-14.9-2.2c0.4-3.1,10.1-4.8,13.2-5.7l28.5-8.3c5.7-1.7,11.8,1.9,13.6,7.9l3,10.5
		c0.9,3.1,2.7,7.4,1.3,10C67.9,65.5,63.4,66.2,60.7,67z"/>
	
		<radialGradient id="XMLID_70_" cx="518.7751" cy="49.5615" r="26.0126" gradientTransform="matrix(-1 0 0 1 562.7847 0)" gradientUnits="userSpaceOnUse">
		<stop  offset="0" style="stop-color:#009640"/>
		<stop  offset="1" style="stop-color:#007936"/>
	</radialGradient>
	<path id="XMLID_61_" class="st32" d="M65,61l-28.5,8.3C33.4,70.2,23.1,72,21,69.6c-1.2-1.4,7.4-8.2,8.9-9.1l9.1-7.1
		c2.4-2.5,4-4.8-1-7.1L28.9,45C22,44.2,13.7,44.6,14,42.7c0.4-3.1,10.1-4.8,13.2-5.7l28.5-8.3c5.7-1.7,11.8,1.9,13.6,7.9l3,10.5
		c0.9,3.1,2.7,7.4,1.3,10C72.2,59.5,67.7,60.2,65,61z"/>
	<g id="XMLID_58_" class="st33">
		<path id="XMLID_52_" class="st34" d="M236,56.5c-56-15.8-115.3-15.8-171.3,0c-6.4,1.8-13.4-1.6-15.5-7.8
			c-1.4-4.4-2.9-8.9-4.3-13.3c-2.1-6.3,2.1-13.3,9.5-15.4c62.8-17.7,129.2-17.7,192,0c7.3,2.1,11.5,9.2,9.5,15.4
			c-1.4,4.4-2.9,8.9-4.3,13.3C249.4,54.9,242.5,58.3,236,56.5z"/>
	</g>
	<g id="XMLID_55_" class="st1">
		<radialGradient id="XMLID_71_" cx="150.3696" cy="27.4743" r="77.0222" gradientUnits="userSpaceOnUse">
			<stop  offset="0" style="stop-color:#009640"/>
			<stop  offset="1" style="stop-color:#007936"/>
		</radialGradient>
		<path id="XMLID_65_" class="st35" d="M236.6,51.5c-56.4-15.9-116.1-15.9-172.5,0c-6.4,1.8-13.4-1.6-15.5-7.8c-1.3-4-2.6-8-3.9-12
			c-2.1-6.3,2.1-13.3,9.4-15.4c62.9-17.8,129.5-17.8,192.4,0c7.3,2.1,11.5,9.1,9.4,15.4c-1.3,4-2.6,8-3.9,12
			C250,49.9,243.1,53.3,236.6,51.5z"/>
		<path id="XMLID_64_" class="st36" d="M236.6,51.5c-56.4-15.9-116.1-15.9-172.5,0c-6.4,1.8-13.4-1.6-15.5-7.8c-1.3-4-2.6-8-3.9-12
			c-2.1-6.3,2.1-13.3,9.4-15.4c62.9-17.8,129.5-17.8,192.4,0c7.3,2.1,11.5,9.1,9.4,15.4c-1.3,4-2.6,8-3.9,12
			C250,49.9,243.1,53.3,236.6,51.5z"/>
	</g>
	<g id="XMLID_1_" class="st1">
		<g id="XMLID_97_">
			<path id="XMLID_124_" class="st37" d="M100.8,18.3c0.2,0.9,0.3,1.8,0.5,2.7c-0.8,0.1-1.5,0.3-2.3,0.4c0.7,3.6,1.4,7.1,2.1,10.7
				c-1.2,0.2-2.5,0.5-3.7,0.7c-0.8-3.5-1.5-7.1-2.3-10.6c-0.8,0.1-1.5,0.3-2.3,0.5c-0.2-0.9-0.4-1.8-0.6-2.7
				C95.2,19.3,98,18.8,100.8,18.3z"/>
			<path id="XMLID_121_" class="st37" d="M101.7,18.2c0.9-0.2,1.8-0.3,2.8-0.5c1.8-0.3,3.1-0.4,3.8-0.4c0.7,0,1.2,0.3,1.7,0.7
				c0.5,0.5,0.8,1.3,1,2.4c0.2,1,0.1,1.8-0.1,2.2c-0.2,0.4-0.8,0.7-1.6,0.9c0.8,0.1,1.3,0.2,1.6,0.5c0.3,0.3,0.5,0.5,0.6,0.7
				c0.1,0.2,0.2,0.9,0.4,2c0.2,1.2,0.4,2.4,0.5,3.5c-1.1,0.2-2.3,0.3-3.4,0.5c-0.3-1.5-0.5-3-0.7-4.5c-0.1-0.7-0.3-1.2-0.4-1.3
				c-0.2-0.2-0.5-0.2-1-0.1c0.3,2,0.7,4,1,6c-1.2,0.2-2.5,0.4-3.7,0.6C103.3,27.1,102.5,22.6,101.7,18.2z M106,19.8
				c0.2,1,0.3,2,0.5,3c0.4-0.1,0.7-0.2,0.9-0.3c0.2-0.1,0.2-0.5,0.1-1.1c0-0.2-0.1-0.5-0.1-0.7c-0.1-0.4-0.2-0.7-0.4-0.8
				C106.7,19.8,106.4,19.8,106,19.8z"/>
			<path id="XMLID_118_" class="st37" d="M118.6,15.8c1.2,4.4,2.5,8.8,3.7,13.3c-1.3,0.1-2.5,0.3-3.8,0.4c-0.2-0.8-0.3-1.6-0.5-2.4
				c-0.4,0.1-0.9,0.1-1.3,0.2c0,0.8,0.1,1.6,0.1,2.4c-1.3,0.2-2.5,0.3-3.8,0.5c-0.1-4.6,0-9.1,0-13.7
				C114.9,16.2,116.8,16,118.6,15.8z M117.6,24.7c-0.4-1.5-0.8-3.4-1.3-5.6c-0.1,2.6-0.1,4.5,0,5.7
				C116.8,24.8,117.2,24.7,117.6,24.7z"/>
			<path id="XMLID_116_" class="st37" d="M125.4,15.1c0.4,4.5,0.8,9,1.2,13.5c-1.2,0.1-2.5,0.2-3.7,0.3c-0.5-4.5-1-9-1.4-13.5
				C122.8,15.4,124.1,15.2,125.4,15.1z"/>
			<path id="XMLID_114_" class="st37" d="M135.6,14.4c0.2,4.5,0.5,9,0.7,13.5c-1.1,0.1-2.1,0.1-3.2,0.2c-0.8-2-1.6-4-2.4-6
				c0.2,2.1,0.3,4.1,0.5,6.2c-1,0.1-2.1,0.2-3.1,0.2c-0.4-4.5-0.8-9-1.2-13.5c1.1-0.1,2.2-0.2,3.2-0.2c0.9,2,1.7,4,2.6,6
				c-0.1-2-0.3-4.1-0.4-6.1C133.4,14.5,134.5,14.5,135.6,14.4z"/>
			<path id="XMLID_112_" class="st37" d="M141,14.2c0.2,4.5,0.3,9,0.5,13.6c-1.2,0-2.5,0.1-3.7,0.1c-0.2-4.5-0.4-9-0.7-13.5
				C138.4,14.3,139.7,14.2,141,14.2z"/>
			<path id="XMLID_110_" class="st37" d="M151.2,14c0,4.5,0,9,0,13.6c-1.1,0-2.1,0-3.2,0c-0.7-2-1.3-4.1-2-6.1
				c0,2.1,0.1,4.1,0.1,6.2c-1,0-2.1,0-3.1,0.1c-0.1-4.5-0.3-9-0.4-13.6c1.1,0,2.2-0.1,3.2-0.1c0.8,2,1.5,4.1,2.2,6.1
				c0-2,0-4.1-0.1-6.1C149,14,150.1,14,151.2,14z"/>
			<path id="XMLID_108_" class="st37" d="M161.4,19.2c-1.3,0-2.5-0.1-3.8-0.1c0-0.4,0-0.8,0-1.2c0-0.8,0-1.3-0.1-1.5
				c-0.1-0.2-0.2-0.3-0.5-0.3c-0.2,0-0.4,0.1-0.5,0.2c-0.1,0.2-0.1,0.6-0.2,1.3c0,2.2-0.1,4.3-0.1,6.5c0,0.6,0,1,0.1,1.2
				c0.1,0.2,0.2,0.3,0.5,0.3c0.3,0,0.5-0.1,0.6-0.3c0.1-0.2,0.2-0.6,0.2-1.3c0-0.5,0-1.1,0-1.6c-0.3,0-0.5,0-0.8,0
				c0-0.7,0-1.4,0-2.1c1.5,0,3,0.1,4.4,0.1c-0.1,2.4-0.2,4.9-0.3,7.3c-0.8,0-1.5-0.1-2.3-0.1c-0.1-0.3-0.2-0.7-0.3-1
				c-0.3,0.4-0.6,0.7-1,0.9c-0.4,0.2-0.8,0.3-1.4,0.3c-0.6,0-1.2-0.2-1.7-0.5c-0.5-0.3-0.9-0.7-1.2-1.1c-0.3-0.4-0.5-0.9-0.5-1.3
				c-0.1-0.5-0.1-1.2-0.1-2.1c0-1.3,0-2.7,0-4c0-1.3,0.1-2.2,0.2-2.8c0.2-0.6,0.6-1.1,1.3-1.6c0.7-0.5,1.7-0.7,2.8-0.7
				c1.1,0,2.1,0.3,2.8,0.7c0.7,0.4,1.2,1,1.4,1.6c0.2,0.6,0.3,1.4,0.2,2.6C161.4,18.8,161.4,19,161.4,19.2z"/>
			<path id="XMLID_106_" class="st37" d="M175,21c-1.3-0.1-2.5-0.2-3.8-0.3c0.1-0.8,0.1-1.6,0.2-2.4c0.1-0.7,0-1.1,0-1.3
				c-0.1-0.2-0.2-0.3-0.5-0.3c-0.3,0-0.5,0.1-0.6,0.3c-0.1,0.2-0.2,0.6-0.2,1.3c-0.1,2.1-0.3,4.2-0.5,6.3c0,0.7,0,1.1,0,1.3
				c0.1,0.2,0.2,0.3,0.5,0.3c0.3,0,0.5-0.1,0.6-0.3c0.1-0.2,0.2-0.7,0.2-1.4c0-0.6,0.1-1.1,0.1-1.7c1.3,0.1,2.5,0.2,3.8,0.3
				c0,0.2,0,0.4,0,0.5c-0.1,1.4-0.3,2.4-0.6,2.9c-0.3,0.6-0.8,1-1.5,1.4c-0.7,0.4-1.6,0.5-2.7,0.5c-1.1-0.1-2-0.3-2.6-0.7
				c-0.7-0.4-1.1-1-1.3-1.6c-0.2-0.7-0.2-1.7-0.2-3c0.1-1.3,0.2-2.6,0.2-4c0.1-1,0.1-1.7,0.2-2.2c0.1-0.5,0.3-0.9,0.7-1.4
				c0.4-0.4,0.9-0.8,1.6-1c0.7-0.2,1.4-0.3,2.3-0.2c1.1,0.1,2.1,0.4,2.8,0.8c0.7,0.5,1.2,1,1.3,1.6c0.2,0.6,0.2,1.6,0.1,2.8
				C175,20.1,175,20.6,175,21z"/>
			<path id="XMLID_103_" class="st37" d="M183.6,15.9c0.2,4.6,0.4,9.2,0.5,13.7c-1.3-0.2-2.5-0.3-3.8-0.4c0-0.8,0.1-1.6,0.1-2.4
				c-0.4,0-0.9-0.1-1.3-0.1c-0.2,0.8-0.3,1.6-0.5,2.4c-1.3-0.1-2.5-0.3-3.8-0.4c1.1-4.4,2.1-8.9,3.2-13.3
				C179.8,15.5,181.7,15.7,183.6,15.9z M180.6,24.4c0-1.5,0-3.5,0.1-5.7c-0.7,2.5-1.1,4.4-1.4,5.6C179.7,24.3,180.1,24.3,180.6,24.4
				z"/>
			<path id="XMLID_101_" class="st37" d="M198.5,18c-0.8,4.5-1.6,8.9-2.4,13.4c-1.1-0.2-2.2-0.4-3.2-0.5c0.5-3,1-6,1.5-9
				c-0.9,2.9-1.9,5.9-2.8,8.9c-0.8-0.1-1.5-0.2-2.3-0.3c0-3,0-6,0-9.1c-0.4,3-0.9,5.9-1.3,8.9c-1.1-0.1-2.1-0.3-3.2-0.4
				c0.6-4.5,1.2-9,1.8-13.5c1.7,0.2,3.4,0.4,5,0.7c0,0.8,0,1.8,0,2.9c0,1.2,0,2.3,0,3.5c0.6-2,1.2-4.1,1.9-6.1
				C195.1,17.5,196.8,17.7,198.5,18z"/>
			<path id="XMLID_98_" class="st37" d="M200,18.3c1.3,0.2,2.6,0.5,3.9,0.7c1.1,0.2,1.9,0.4,2.4,0.7c0.5,0.3,0.9,0.6,1.2,0.9
				c0.2,0.3,0.3,0.7,0.4,1.1c0,0.4-0.1,1-0.2,1.9c-0.1,0.4-0.2,0.8-0.3,1.2c-0.2,0.8-0.4,1.4-0.7,1.8c-0.3,0.4-0.7,0.6-1.3,0.7
				c-0.6,0.1-1.2,0.1-2.1-0.1c-0.3-0.1-0.7-0.1-1-0.2c-0.4,1.8-0.7,3.6-1.1,5.4c-1.2-0.2-2.5-0.4-3.7-0.7
				C198.4,27.2,199.2,22.7,200,18.3z M203.5,21.2c-0.2,1.1-0.4,2.3-0.7,3.4c0.1,0,0.2,0,0.3,0.1c0.4,0.1,0.6,0,0.8-0.1
				c0.2-0.1,0.3-0.4,0.4-0.9c0.1-0.4,0.1-0.7,0.2-1.1c0.1-0.5,0.1-0.8-0.1-0.9C204.3,21.5,204,21.3,203.5,21.2z"/>
		</g>
	</g>
</g>
</svg>
