<svg version="1.0" id="Calque_1" xmlns="http://www.w3.org/2000/svg" x="0" y="0" viewBox="0 0 300 200" style="enable-background:new 0 0 300 200" xml:space="preserve"><style>.st0{display:none}.st1{display:inline;fill:none;stroke:#503614;stroke-width:3;stroke-miterlimit:10}.st2,.st3,.st4{display:inline;fill:#d29710}.st3,.st4{fill:#f3d414}.st4{opacity:.61;fill:#fcf39e}.st5,.st6,.st8{fill:none;stroke-miterlimit:10}.st5{display:inline;opacity:.5;stroke:#9b4f16;stroke-width:2}.st6,.st8{stroke:#3b3735;stroke-width:13}.st8{stroke:#fff;stroke-width:2.5}.st9{opacity:.25}.st10{fill:#fff}.st12{opacity:.25;fill:#030405;enable-background:new}</style><g id="Calque_52_-_copie"><path id="XMLID_31_" class="st6" d="M80.2 107.1c5.1 1.6 23 5.1 38.7-19.4l.1-.1c3.1-6.4-.9-7.5-7.1-6.8-6.3.7-18.2-1.1-19.9-12.1-1.7-11-5.3-11-20.5-7.1-14.5 3.8-46.3 6.5-55.7 5.8-.6 0-1.1.5-1 1.1.7 3.9 4.5 15.3 23.7 10.8 23-5.4 30.4-6.6 30.4-6.6s6.8-1.4 7.3.2c.4 1.3.6 2-3.7 3.4C70.3 77 41 86.6 27.2 85c-.6-.1-1.1.5-1 1.1.6 3.6 3.4 12.4 23 9.1 10.6-1.8 19.4-5.6 22-6.8.5-.2.9-.4 1.3-.7 2-1.2 9.4-5.5 10.6-3.5 1 1.7-.2 3.3-6.7 6.4-12.2 5.8-24.8 10.7-30.7 10.6-.7 0-.8.9-.2 1.2 5.6 2.5 19 7.7 28.5 3 9.2-4.5 7.2-1.6 5.7.1-.4.6-.2 1.4.5 1.6z"/><linearGradient id="XMLID_2_" gradientUnits="userSpaceOnUse" x1="21.694" y1="69.219" x2="103.448" y2="69.219" gradientTransform="rotate(-32.989 82.905 63.419)"><stop offset="0" style="stop-color:#efeeef"/><stop offset=".5" style="stop-color:#c7c6c6"/><stop offset="1" style="stop-color:#efeeef"/></linearGradient><path id="XMLID_30_" d="M80.2 107.1c5.1 1.6 23 5.1 38.7-19.4l.1-.1c3.1-6.4-.9-7.5-7.1-6.8-6.3.7-18.2-1.1-19.9-12.1-1.7-11-5.3-11-20.5-7.1-14.5 3.8-46.3 6.5-55.7 5.8-.6 0-1.1.5-1 1.1.7 3.9 4.3 15.9 23.7 12.4 24.1-4.4 37.1-10.6 37.8-7.9.3 1.3.3 1.4-3.7 3.4-4.5 2.3-25.9 12.4-45.3 8.7-.6-.1-1.1.5-1 1.1.6 3.6 3.3 11.7 23 9.1 14.2-1.9 31.9-14.1 33.9-11 1.3 2-1.7 4.5-8.2 7.6-12.2 5.8-23.3 9.5-29.2 9.4-.7 0-.8.9-.2 1.2 5.6 2.5 19 7.7 28.5 3 4.3-2.1 7.9-5.3 9-3.9.9 1.2-2.5 3.1-3.3 4-.5.5-.3 1.3.4 1.5z" style="fill:url(#XMLID_2_)"/><path id="XMLID_29_" class="st8" d="M80.2 107.1c5.1 1.6 23 5.1 38.7-19.4l.1-.1c3.1-6.4-.9-7.5-7.1-6.8-6.3.7-18.2-1.1-19.9-12.1-1.7-11-5.3-11-20.5-7.1-14.5 3.8-46.3 6.5-55.7 5.8-.6 0-1.1.5-1 1.1.7 3.9 4.3 15.9 23.7 12.4 24.1-4.4 37.1-10.6 37.8-7.9.3 1.3.3 1.4-3.7 3.4-4.5 2.3-25.9 12.4-45.3 8.7-.6-.1-1.1.5-1 1.1.6 3.6 3.3 11.7 23 9.1 14.2-1.9 31.9-14.1 33.9-11 1.3 2-1.7 4.5-8.2 7.6-12.2 5.8-23.3 9.5-29.2 9.4-.7 0-.8.9-.2 1.2 5.6 2.5 19 7.7 28.5 3 4.3-2.1 7.9-5.3 9-3.9.9 1.2-2.5 3.1-3.3 4-.5.5-.3 1.3.4 1.5z"/><g id="XMLID_3_" class="st9"><path id="XMLID_28_" class="st10" d="M45.8 101.2c-.7 0-.8.9-.2 1.2 4.1 1.9 12.6 5.2 20.5 4.9.7-4 1.7-8.3 2.9-12.7-9.8 4.2-18.3 6.7-23.2 6.6z"/><path id="XMLID_20_" class="st10" d="M15.8 67.4c-.6 0-1.1.5-1 1.1.7 3.9 4.3 15.9 23.7 12.4 24.1-4.4 37.1-10.6 37.8-7.9.3 1.3.3 1.4-3.7 3.4-4.5 2.3-25.9 12.4-45.3 8.7-.6-.1-1.1.5-1 1.1.6 3.6 3.3 11.7 23 9.1 7.2-.9 15.2-4.5 21.7-7.4 3.1-9.4 7.4-19.2 13.6-28.6-3-.1-7.1.8-13 2.4-14.6 3.7-46.4 6.4-55.8 5.7z"/></g></g><g id="Calque_52_-_copie_2"><path id="XMLID_41_" class="st6" d="M216.6 107.1c-5.1 1.6-23 5.1-38.7-19.4l-.1-.1c-3.1-6.4.9-7.5 7.1-6.8 6.3.7 18.2-1.1 19.9-12.1 1.7-11 5.3-11 20.5-7.1 14.5 3.8 46.3 6.5 55.7 5.8.6 0 1.1.5 1 1.1-.7 3.9-4.5 15.3-23.7 10.8-23-5.4-30.4-6.6-30.4-6.6s-6.8-1.4-7.3.2c-.4 1.3-.6 2 3.7 3.4 2.2.7 31.5 10.3 45.3 8.7.6-.1 1.1.5 1 1.1-.6 3.6-3.4 12.4-23 9.1-10.6-1.8-19.4-5.6-22-6.8-.5-.2-.9-.4-1.3-.7-2-1.2-9.4-5.5-10.6-3.5-1 1.7.2 3.3 6.7 6.4 12.2 5.8 24.8 10.7 30.7 10.6.7 0 .8.9.2 1.2-5.6 2.5-19 7.7-28.5 3-9.2-4.5-7.2-1.6-5.7.1.4.6.2 1.4-.5 1.6z"/><linearGradient id="XMLID_5_" gradientUnits="userSpaceOnUse" x1="-110.833" y1="-16.808" x2="-29.079" y2="-16.808" gradientTransform="scale(-1 1) rotate(-32.989 13.498 297.814)"><stop offset="0" style="stop-color:#efeeef"/><stop offset=".5" style="stop-color:#c7c6c6"/><stop offset="1" style="stop-color:#efeeef"/></linearGradient><path id="XMLID_40_" d="M216.6 107.1c-5.1 1.6-23 5.1-38.7-19.4l-.1-.1c-3.1-6.4.9-7.5 7.1-6.8 6.3.7 18.2-1.1 19.9-12.1 1.7-11 5.3-11 20.5-7.1 14.5 3.8 46.3 6.5 55.7 5.8.6 0 1.1.5 1 1.1-.7 3.9-4.3 15.9-23.7 12.4-24.1-4.4-37.1-10.6-37.8-7.9-.3 1.3-.3 1.4 3.7 3.4 4.5 2.3 25.9 12.4 45.3 8.7.6-.1 1.1.5 1 1.1-.6 3.6-3.3 11.7-23 9.1-14.2-1.9-31.9-14.1-33.9-11-1.3 2 1.7 4.5 8.2 7.6 12.2 5.8 23.3 9.5 29.2 9.4.7 0 .8.9.2 1.2-5.6 2.5-19 7.7-28.5 3-4.3-2.1-7.9-5.3-9-3.9-.9 1.2 2.5 3.1 3.3 4 .5.5.3 1.3-.4 1.5z" style="fill:url(#XMLID_5_)"/><path id="XMLID_39_" class="st8" d="M216.6 107.1c-5.1 1.6-23 5.1-38.7-19.4l-.1-.1c-3.1-6.4.9-7.5 7.1-6.8 6.3.7 18.2-1.1 19.9-12.1 1.7-11 5.3-11 20.5-7.1 14.5 3.8 46.3 6.5 55.7 5.8.6 0 1.1.5 1 1.1-.7 3.9-4.3 15.9-23.7 12.4-24.1-4.4-37.1-10.6-37.8-7.9-.3 1.3-.3 1.4 3.7 3.4 4.5 2.3 25.9 12.4 45.3 8.7.6-.1 1.1.5 1 1.1-.6 3.6-3.3 11.7-23 9.1-14.2-1.9-31.9-14.1-33.9-11-1.3 2 1.7 4.5 8.2 7.6 12.2 5.8 23.3 9.5 29.2 9.4.7 0 .8.9.2 1.2-5.6 2.5-19 7.7-28.5 3-4.3-2.1-7.9-5.3-9-3.9-.9 1.2 2.5 3.1 3.3 4 .5.5.3 1.3-.4 1.5z"/><g id="XMLID_36_" class="st9"><path id="XMLID_38_" class="st10" d="M251 101.2c.7 0 .8.9.2 1.2-4.1 1.9-12.6 5.2-20.5 4.9-.7-4-1.7-8.3-2.9-12.7 9.8 4.2 18.4 6.7 23.2 6.6z"/><path id="XMLID_37_" class="st10" d="M281 67.4c.6 0 1.1.5 1 1.1-.7 3.9-4.3 15.9-23.7 12.4-24.1-4.4-37.1-10.6-37.8-7.9-.3 1.3-.3 1.4 3.7 3.4 4.5 2.3 25.9 12.4 45.3 8.7.6-.1 1.1.5 1 1.1-.6 3.6-3.3 11.7-23 9.1-7.2-.9-15.2-4.5-21.7-7.4-3.1-9.4-7.4-19.2-13.6-28.6 3-.1 7.1.8 13 2.4 14.6 3.7 46.4 6.4 55.8 5.7z"/></g></g><g id="Calque_39"><path id="XMLID_263_" class="st12" d="m228.9 190.4 25.2 7.3c2.7.8 11.9 2.4 13.7.3 1.1-1.3-6.5-7.3-7.9-8.1l-8-6.3c-2.1-2.2-3.5-4.2.9-6.3l8.1-1.1c6.1-.7 13.4-.3 13.2-2-.4-2.8-8.9-4.3-11.7-5.1l-25.2-7.3c-5.1-1.5-10.5 1.7-12 7l-2.7 9.3c-.8 2.8-2.4 6.6-1.1 8.9 1.2 2 5.2 2.7 7.5 3.4z"/><linearGradient id="XMLID_27_" gradientUnits="userSpaceOnUse" x1="270.298" y1="17098.785" x2="217.103" y2="17098.785" gradientTransform="translate(0 -16923.89)"><stop offset="0" style="stop-color:#eb5959"/><stop offset=".089" style="stop-color:#d74746"/><stop offset=".231" style="stop-color:#be3532"/><stop offset=".383" style="stop-color:#ac2a23"/><stop offset=".548" style="stop-color:#9f211d"/><stop offset=".736" style="stop-color:#981c1a"/><stop offset="1" style="stop-color:#951919"/></linearGradient><path id="XMLID_262_" d="m225.1 185.1 25.2 7.3c2.7.8 11.9 2.4 13.7.3 1.1-1.3-6.5-7.3-7.9-8.1l-8-6.3c-2.1-2.2-3.5-4.2.9-6.3l8.1-1.1c6.1-.7 13.4-.3 13.2-2-.4-2.8-8.9-4.3-11.7-5.1l-25.2-7.3c-5.1-1.5-10.5 1.7-12 7l-2.7 9.3c-.8 2.8-2.4 6.6-1.1 8.9 1.2 2 5.2 2.7 7.5 3.4z" style="fill:url(#XMLID_27_);stroke:#3b1913;stroke-width:3;stroke-miterlimit:10"/><path id="XMLID_261_" class="st12" d="m70.9 189.5-25.1 7.3c-2.7.8-11.9 2.4-13.7.3-1.1-1.3 6.5-7.3 7.9-8.1l8-6.3c2.1-2.2 3.5-4.2-.9-6.3l-8.1-1.1c-6.1-.7-13.4-.3-13.2-2 .4-2.8 8.9-4.3 11.7-5.1l25.2-7.3c5.1-1.5 10.5 1.7 12 7l2.7 9.3c.8 2.8 2.4 6.6 1.1 8.9-1.2 2.1-5.1 2.7-7.6 3.4z"/><linearGradient id="XMLID_32_" gradientUnits="userSpaceOnUse" x1="239.139" y1="26.115" x2="185.943" y2="26.115" gradientTransform="rotate(180 134.392 100.055)"><stop offset="0" style="stop-color:#eb5959"/><stop offset=".089" style="stop-color:#d74746"/><stop offset=".231" style="stop-color:#be3532"/><stop offset=".383" style="stop-color:#ac2a23"/><stop offset=".548" style="stop-color:#9f211d"/><stop offset=".736" style="stop-color:#981c1a"/><stop offset="1" style="stop-color:#951919"/></linearGradient><path id="XMLID_260_" d="m74.8 184.2-25.2 7.3c-2.7.8-11.9 2.4-13.7.3-1.1-1.3 6.5-7.3 7.9-8.1l8-6.3c2.1-2.2 3.5-4.2-.9-6.3l-8.1-1.1c-6.1-.7-13.4-.3-13.2-2 .4-2.8 8.9-4.3 11.7-5.1l25.2-7.3c5.1-1.5 10.5 1.7 12 7l2.7 9.3c.8 2.8 2.4 6.6 1.1 8.9-1.2 2-5 2.7-7.5 3.4z" style="fill:url(#XMLID_32_);stroke:#3b1913;stroke-width:3;stroke-miterlimit:10"/><g id="XMLID_257_" class="st9"><path id="XMLID_271_" d="M224.6 181.6c-48.7-22.7-100.1-22.7-148.8 0-6.4 3-13.4-2.7-15.5-13.3-1-5.2-2-10.2-3-15.5-2.1-10.6 2.1-22.3 9.5-25.9 54.5-25.4 112.2-25.4 166.7 0 7.3 3.4 11.6 15.3 9.5 25.9-1 5.2-2 10.2-3 15.5-1.9 10.4-8.9 16.1-15.4 13.3z" style="fill:#030405"/></g><g id="XMLID_34_"><radialGradient id="XMLID_33_" cx="150.3" cy="76.105" r="67.862" gradientTransform="matrix(1 0 0 -1.6795 0 266.552)" gradientUnits="userSpaceOnUse"><stop offset="0" style="stop-color:#eb5959"/><stop offset="1" style="stop-color:#951919"/></radialGradient><path id="XMLID_51_" d="M225.3 174c-49-22.8-100.8-22.8-149.8 0-6.4 3-13.4-2.7-15.5-13.3-.9-4.5-1.7-8.9-2.6-13.4-2.1-10.6 2.1-22.3 9.4-25.9 54.7-25.5 112.4-25.5 167.1 0 7.3 3.4 11.5 15.3 9.4 25.9-.9 4.5-1.7 8.9-2.6 13.4-2.1 10.6-9.1 16.4-15.4 13.3z" style="fill:url(#XMLID_33_)"/><path id="XMLID_50_" d="M225.3 174c-49-22.8-100.8-22.8-149.8 0-6.4 3-13.4-2.7-15.5-13.3-.9-4.5-1.7-8.9-2.6-13.4-2.1-10.6 2.1-22.3 9.4-25.9 54.7-25.5 112.4-25.5 167.1 0 7.3 3.4 11.5 15.3 9.4 25.9-.9 4.5-1.7 8.9-2.6 13.4-2.1 10.6-9.1 16.4-15.4 13.3z" style="fill:none;stroke:#3c1912;stroke-width:3;stroke-miterlimit:10"/></g></g><g id="Calque_2"><path id="XMLID_14_" d="M201.7 53.8s0-.1 0 0c0-5.1-3.8-9.9-9.8-9.9h-19.2c-4.3 0-8-2.7-9.3-6.8l-5.9-18.3c-2.9-9-15.7-9-18.7 0l-5.9 18.3c-1.3 4-5.1 6.8-9.3 6.8h-19.2c-5.2 0-8.7 3.6-9.6 7.8-.1.4-.2.9-.2 1.4-.2 3.1 1.1 11.3 4.1 13.5l15.6 11.3c1.9 1.4 3.1 3.3 3.7 5.5-.1.2-.1.4-.1.6l-5.9 18.3c-.4 1.1-.5 2.2-.5 3.3-1.2 8.2 8.4 17.8 15.6 12.6l15.6-11.3c3.4-2.5 8.1-2.5 11.5 0l15.6 11.3c7.3 5.3 17.2-3.6 15.6-12.1.1-1.2-.1-2.5-.5-3.8L179 84c-.1-.2-.1-.4-.1-.6.6-2.2 1.8-4.1 3.7-5.5l15.6-11.3c2.4-2.2 3.6-9.8 3.5-12.8z" style="fill:none;stroke:#503614;stroke-width:6;stroke-miterlimit:10"/><path id="XMLID_12_" d="m157.4 23.7 5.9 18.3c1.3 4 5.1 6.8 9.3 6.8h19.2c5.9 0 9.7.1 9.8 5 .1 3-1.1 10.6-4.1 12.7l-15.6 11.3c-3.4 2.5-4.9 6.9-3.6 11l5.9 18.3c.1.4.4-1.5.5-1.1 1.6 8.4-8.3 17.4-15.6 12.1l-15.6-11.3c-3.4-2.5-8.1-2.5-11.5 0l-15.6 11.3c-7.2 5.2-16.9-4.3-15.6-12.6.1-.6.3 2.2.5 1.6l5.9-18.3c1.3-4-.1-8.5-3.6-11L98.4 66.5c-3-2.2-4.3-10.4-4.1-13.5.3-4.8 4-4.3 9.8-4.3h19.2c4.3 0 8-2.7 9.3-6.8l5.9-18.3c3.1-9 15.9-9 18.9.1z" style="fill:#d29710"/><path id="XMLID_10_" d="m157.4 18.8 5.9 18.3c1.3 4 5.1 6.8 9.3 6.8h19.2c9.5 0 13.5 12.2 5.8 17.8L182 73c-3.4 2.5-4.9 6.9-3.6 11l5.9 18.3c2.9 9-7.4 16.6-15.1 11L153.6 102c-3.4-2.5-8.1-2.5-11.5 0l-15.6 11.3c-7.7 5.6-18-1.9-15.1-11l5.9-18.3c1.3-4-.1-8.5-3.6-11L98.4 61.6c-7.7-5.6-3.7-17.8 5.8-17.8h19.2c4.3 0 8-2.7 9.3-6.8l5.9-18.3c3-9 15.8-9 18.8.1z" style="fill:#f3d414"/><path id="XMLID_11_" d="M177.2 43.9h-4.5c-4.3 0-8-2.7-9.3-6.8l-5.9-18.3c-2.9-9-15.7-9-18.7 0l-5.9 18.3c-1.3 4-5.1 6.8-9.3 6.8h-19.2c-9.5 0-13.5 12.2-5.8 17.8L114.2 73c2.8 2.1 4.3 5.4 4 8.8 18.3-2.1 43.6-10.4 59-37.9z" style="opacity:.61;fill:#fcf39e"/><path id="XMLID_8_" d="m155.5 27.7 4.8 14.6c1.1 3.2 4.1 5.4 7.5 5.4h15.4c7.6 0 10.8 9.7 4.6 14.2l-12.5 9c-2.8 2-3.9 5.5-2.9 8.8l4.8 14.6c2.4 7.2-5.9 13.3-12.1 8.8l-12.5-9c-2.8-2-6.5-2-9.2 0l-12.5 9c-6.2 4.5-14.4-1.5-12.1-8.8l4.8-14.6c1.1-3.2-.1-6.8-2.9-8.8l-12.5-9c-6.2-4.5-3-14.2 4.6-14.2h15.4c3.4 0 6.4-2.2 7.5-5.4l4.8-14.6c2.4-7.2 12.6-7.2 15 0z" style="opacity:.5;fill:none;stroke:#9b4f16;stroke-width:2;stroke-miterlimit:10"/></g><g id="XMLID_18_"><g id="XMLID_4_"><path id="XMLID_59_" class="st10" d="m97.8 146.6-3.5-17.5c2.1-.3 3.2-.4 5.3-.6.4 2.3.7 3.5 1.1 5.8.6-2.5.9-3.7 1.5-6.1 2.1-.2 3.2-.3 5.3-.5-1.9 7.3-2.9 11-4.6 18.4-2 .2-3 .3-5.1.5z"/><path id="XMLID_57_" class="st10" d="M110.5 145.2c.3-7.2.5-10.8 1-17.9 2.1-.2 3.2-.3 5.3-.4-.5 7.2-.7 10.8-1.2 17.9-2.1.2-3.1.3-5.1.4z"/><path id="XMLID_55_" class="st10" d="M136.5 125.7c.1 2 .1 3 .2 5.1-3.7.1-5.6.2-9.3.4-.7 3.1-1.1 4.6-1.8 7.7 4.6-.3 6.8-.4 11.4-.5.1 2 .1 3 .2 5.1-7.1.3-10.7.4-17.8 1 1.5-7.2 2.3-10.9 4-18.1 5.2-.3 7.9-.5 13.1-.7z"/><path id="XMLID_53_" class="st10" d="M152.4 125.5v5.1h-3.9c-1 5.1-1.5 7.6-2.4 12.7-2 0-3.1.1-5.1.1.9-5.1 1.3-7.7 2.3-12.8-2.1 0-3.1.1-5.2.1 1-2.1 1.5-3.1 2.5-5.2h11.8z"/><path id="XMLID_48_" class="st10" d="M171.5 143.6c-7.1-.3-10.7-.4-17.8-.4 2-7.1 3.1-10.7 5.3-17.7 5.3.1 7.9.1 13.2.4-.3 7.1-.4 10.6-.7 17.7zm-4.7-12.9c-1.6 0-2.5-.1-4.1-.1-1 3-1.4 4.5-2.4 7.6 2.5 0 3.8.1 6.3.1.1-3 .1-4.5.2-7.6z"/><path id="XMLID_44_" class="st10" d="M184.1 137.9c-1.6-.1-2.4-.2-4-.3-.9 2.5-1.3 3.7-2.2 6.2-2-.1-3-.2-5.1-.3 2.3-7 3.6-10.5 6.1-17.5 5.3.3 7.9.5 13.2.9-.4 4.6-.6 6.8-1 11.4-.7-.1-1.1-.1-1.8-.1.5 2.6.8 3.9 1.3 6.5-2-.2-3-.2-5.1-.4-.6-2.5-.8-3.8-1.4-6.4zm2.3-6.2c-1.6-.1-2.5-.2-4.1-.3-.2.5-.3.7-.5 1.2 1.8.1 2.7.2 4.5.3 0-.4.1-.7.1-1.2z"/><path id="XMLID_42_" class="st10" d="m199.7 139.3-5.5-.5c1.7-4.4 2.6-6.6 4.4-11.1 2.1.2 3.2.3 5.3.5-1 2.4-1.5 3.7-2.5 6.1l4.5.5c.3-2.5.4-3.8.7-6.3 2.1.2 3.2.4 5.3.6-.6 4.5-.9 6.8-1.4 11.3-2.2-.3-3.3-.4-5.5-.7-.7 2.5-1 3.7-1.6 6.2-2-.2-3-.3-5.1-.5.5-2.4.8-3.6 1.4-6.1z"/></g></g></svg>