<svg version="1.0" xmlns="http://www.w3.org/2000/svg" width="300" height="260" style="enable-background:new 0 0 300 260" xml:space="preserve"><style>.st6{fill:#388e52}.st8,.st9{opacity:.1;fill:#d1e282}.st9{fill:#383838}.st11{fill:#195632}</style><g id="Calque_1"><g id="Calque_11"><g id="third"><path id="XMLID_32_" d="M156.4 76s35.9-30.2 56.7-23.7c0 0 3.6 18.9-8.3 29.3 0 0 14.5 32.9 8.1 33.9 0 0 30.5 45.6 12.2 46 0 0 20.1 11.7 20.1 15.6 0 4-9.6 1.1-9.6 1.1s8.5 22.8 13.4 25c0 0-33.6 9.9-52.6 3.5 0 0 16.7 27.1 8.1 40.4 0 0-13.4 7.5-49.5-38.1 0 0-4.8 30.1-30.3 35.8 0 0-16.3-16.4-10.2-24.3 0 0-7.7 3.5-39.7 3.9 0 0-6.1-20.4 5.3-24.4 0 0-22.9 10.3-53.5 3.3 0 0-5.5-35.1 26-42.3 0 0-18-7-40.3 4.5 0 0 12.7-45.5 33.2-42.4 0 0-23.9-31.5-10.3-50.9 0 0 23.7 8 41.3.1 0 0 .3-10.3-5.8-20.9 0 0 40.6 9.8 42.4 22.8.2 0 30.9-42.9 43.3 1.8z" style="opacity:.15"/><path id="XMLID_3_" d="M165.2 61.8s35.9-30.2 56.7-23.7c0 0 3.6 18.9-8.3 29.3 0 0 30.2 7.7 29.8 11.1s-15.3 21.7-21.7 22.8c0 0 39.9 12 47.2 33.6 0 0-16.7 12-35 12.4 0 0 20.1 11.7 20.1 15.6s-9.6 1.1-9.6 1.1 8.5 22.8 13.4 25c0 0-33.6 9.9-52.6 3.5 0 0 16.7 27.1 8.1 40.4 0 0-19.6 5.9-55.7-39.7 0 0 1.4 31.6-24.1 37.4 0 0-14.9-21.2-8.8-29.1 0 0-9.2 8.2-41.2 8.6 0 0-.6-28.4 10.8-32.3 0 0-28.4 18.2-58.9 11.3 0 0 2.4-32.8 33.8-40 0 0-23.8-14.8-46-3.3 0 0 15.8-32.1 36.3-29 0 0-26.7-30.8-13.1-50.2 0 0 22.8 15 40.4 7.1 0 0-1.1-25.8-7.2-36.4 0 0 40.6 9.8 42.4 22.8 0 0 5-19.1-5.8-36.3.1-.1 36.7-6.7 49 38z" style="fill:#185532"/><path id="XMLID_1_" class="st6" d="M163.9 66.6s33.3-28 52.6-22c0 0 3.3 17.5-7.7 27.2 0 0 28 7.2 27.7 10.3s-14.2 20.2-20.2 21.2c0 0 37 11.2 43.8 31.2 0 0-15.5 11.2-32.5 11.5 0 0 18.7 10.8 18.7 14.5 0 3.7-8 0-8 0s7 22.3 11.5 24.3c0 0-31.2 9.2-48.8 3.2 0 0 15.5 25.2 7.5 37.5 0 0-18.2 5.5-51.7-36.8 0 0 1.3 29.3-22.3 34.7 0 0-12-19.7-6.3-27 0 0-10.3 7.7-40 8 0 0-.6-26.3 10-30 0 0-26.3 16.9-54.7 10.5 0 0 2.2-30.5 31.4-37.1 0 0-22-17-42.7-6.3 0 0 14.7-26.5 33.7-23.7 0 0-27.4-26.9-14.7-44.9 0 0 23.7 12.2 40 4.9 0 0-1-23.9-6.7-33.8 0 0 37.7 9.1 39.3 21.1 0 0 8-17.3-2-33.3 0-.2 30.6-6.7 42.1 34.8z"/><path id="XMLID_31_" d="M164.2 66.6s31.1-24.3 48.6-19.8c0 0 7.3 15.3-3.7 25 0 0 24 8 23.7 11.2-.3 3.2-10.2 19.3-16.2 20.3 0 0 32.2 9.3 39 29.3 0 0-10.7 13-27.7 13.3 0 0 16.7 10.3 16.7 14 0 3.7-6 .5-6 .5s.3 20.8 4.8 22.8c0 0-24.5 10.7-42.2 4.7 0 0 14.8 21.3 6.8 33.7 0 0-17.4 9.3-50.9-33 0 0 2.3 25.3-21.3 30.7 0 0-13-15.7-7.3-23 0 0-6.7 4.5-36.3 4.8 0 0-4.3-23.2 6.3-26.8 0 0-21.3 14.1-49.7 7.7 0 0-2.8-27.7 26.4-34.3 0 0-15.9-21.3-36.5-10.7 0 0 8.5-22.2 27.5-19.3 0 0-19.8-24.5-12.5-40.2 0 0 21.5 7.6 37.8.2 0 0 2.7-20.1-3-30 0 0 34 5.3 35.7 17.3 0 0 10.5-15.2.5-31.2 0-.1 27.3-.8 39.5 32.8z" style="fill:#3a9e47"/><g id="Calque_9_-_copie"><path id="XMLID_25_" class="st8" d="M210.4 137.7c1.1.6 2.5-.2 3.1-1.3 1.6-2.6.4-6-1-8.8-2.1-4.5-5.4-9.7-10.5-10.1 1.1-1.6 0-3.9-1.7-5s-3.8-1.4-5.7-1.8c-.5-.1-1-.3-1.4-.6-.5-.5-.5-1.2-.6-1.8-.2-1.9-.6-4-1.9-5.5-1.3-1.5-3.8-2.3-5.4-1.1-1.5-1.9-2.4-4.1-2.5-6.4-7.2-.3-14.4-1.4-21.4-3.2-.3.8-.7 1.6-1 2.4-3.1-.9-6.1-2.1-8.9-3.5-.4 1.4-2.4 1.8-3.8 1.1-1.4-.6-2.3-1.9-3.4-3-3-2.9-7.6-4.3-11.7-3.6-1.9.3-3.8 1.2-4.7 2.7-1.7 2.8.3 6.5-.9 9.5-1.8-.5-4-1-5.4.2-.8.7-1.1 1.9-1.3 2.9-.8 3.8-8.9 1.4-9.4 5.3-.1 1.1 7.4 8.4 7.2 9.4-.1.9-.2 1.9-.1 2.9.4 1.9 1.9 3.6 1.8 5.5-.2 2.4-10.6-2.5-12.4-.8-3.2 3.1 4.4 14.7 1.1 17.7-1.8 1.7-4.7 3.1-4.2 5.5.7 3.1 6 2.7 7.9 5.2 1.3 1.7.8 4.3 2.2 5.9.6.7 1.6 1.1 2 1.9.4.7.2 1.6 0 2.4-.8 3.8-1.6 7.6-2.4 11.3-.2.8-.3 1.7.1 2.5.4.6 1 1 1.7 1.4 3.5 1.9 7.3 3.7 11.2 3.1 2.9-.4 5.4-2.1 8.2-2.7 2.8-.6 6.6.6 7 3.4.1.9-.1 1.8.1 2.7.5 1.8 2.7 2.8 3 4.6.5 2.5-2.9 5.2-1.2 7.2.4.4.9.7 1.4.9 1.7.8 4.4 1.2 4.8-.5.2-.6-.1-1.2-.2-1.8-.4-2.4 1.5-4.5 3.6-5.7s4.6-1.7 6.8-2.7c2.5-1.1 4.5-2.9 7-4.1 2.4-1.2 5.6-1.6 7.9-.2 4.1 2.6 3.7 9.8 8.4 11.3 2.6.8 5.7-1.2 5.7-3.8 0-.8-.2-1.7.3-2.3.8-1 2.8-.7 3.4-1.8.4-.8-.2-1.8-.4-2.7-.8-3.1 3.3-5.4 3.9-8.5.2-1 .1-2.2.9-2.8.7-.5 1.6-.4 2.4-.6 1.9-.7 2-3.6 3.9-4.5 2.4-1.2 6 1.6 7.9-.2.9-.9.9-2.4 2-3 1.1-.6 2.5.3 3.6.9s3.1.6 3.2-.7c0-.5-.3-1-.6-1.4-2.8-3.7-6.2-6.9-10.1-9.6 2.1-3.1 2.3-7.2.7-10.7-.4-.8-.8-1.5-.9-2.3-.1-.8.5-1.7 1.3-1.8"/><path id="XMLID_16_" class="st9" d="M196.6 147.2c.6.7 1.8.4 2.5-.1 1.7-1.4 1.7-4.1 1.4-6.4-.4-3.7-1.5-8-5-9.5 1.1-.9.9-2.7 0-3.9-.9-1.2-2.3-1.8-3.6-2.6-.3-.2-.6-.4-.8-.8-.2-.4-.1-.9 0-1.4.3-1.4.5-2.9 0-4.3-.6-1.4-2.1-2.5-3.5-2-.6-1.6-.7-3.4-.2-5.1-5-1.9-9.7-4.4-14.2-7.2-.4.5-.8.9-1.3 1.4-1.9-1.4-3.7-2.9-5.4-4.6-.6.9-2.1.7-2.9-.1s-1.2-1.9-1.7-2.9c-1.4-2.7-4.3-4.8-7.3-5.2-1.4-.2-2.9-.1-3.9.8-1.8 1.5-1.3 4.6-2.8 6.4-1.1-.8-2.6-1.6-3.8-1.1-.8.3-1.2 1-1.6 1.7-1.4 2.5-2.7 5-3.9 7.6-.4.7-.7 1.4-1.1 2.2-.3.6-.6 1.3-.7 2-.2 1.4.5 3-.1 4.3-.7 1.6-3 1.8-4.6 2.6-3 1.4-4.3 5.1-7.3 6.5-1.6.7-4 1.1-4.2 2.9-.3 2.3 3.5 3.3 4.3 5.5.5 1.5-.5 3.2.2 4.6.3.6.8 1.2.9 1.8.1.6-.2 1.2-.5 1.7-1.5 2.5-2.9 4.9-4.4 7.4-.3.5-.6 1.1-.5 1.7.1.5.5 1 .9 1.4 2 2.1 4.3 4.3 7.1 4.8 2.1.4 4.2-.2 6.4.1 2.1.3 4.5 2 4.1 4-.1.7-.5 1.2-.5 1.9-.1 1.4 1.2 2.6 1 4-.3 1.9-3.2 2.9-2.5 4.7.2.4.5.7.8 1 1 .9 2.8 1.9 3.5.8.2-.4.2-.9.3-1.3.3-1.7 2.1-2.8 3.8-3.1s3.6-.1 5.4-.3c2-.2 3.9-1 5.8-1.2 2-.2 4.3.2 5.6 1.7 2.3 2.8.3 7.7 3.2 9.9 1.6 1.2 4.2.5 4.9-1.3.2-.5.3-1.2.8-1.5.8-.5 2.1.2 2.8-.5.5-.5.3-1.3.3-2 .2-2.4 3.6-3 4.7-5 .4-.7.5-1.5 1.3-1.8.6-.2 1.2.1 1.8.1 1.5 0 2.3-2 3.8-2.2 1.9-.3 3.8 2.5 5.5 1.7.8-.4 1.2-1.5 2.1-1.6.9-.1 1.7.8 2.3 1.5s2 1.1 2.4.3c.2-.3 0-.8-.1-1.1-1.1-3.2-2.7-6.3-4.8-9.1 2.2-1.7 3.3-4.5 3-7.3-.1-.6-.2-1.2-.1-1.8.2-.6.7-1.1 1.4-.9"/><path id="XMLID_24_" d="M163.7 185c-5.1 1.2-10.3 2.6-15.4 4-1.9.5-4.2 1.4-4.7 3.3-.2.8-.1 1.7-.2 2.6-.3 2.1-2.7 3.5-4.7 2.9-2-.6-3.1-3.2-2.2-5.1.5-1 1.4-1.7 1.5-2.8.4-2.3-2.7-3.8-3.2-6.1-.4-1.6.6-3.7-.6-4.9-.5-.5-1.4-.6-2.1-.7-6.6-.8-13.7-1.5-19.8 1.3-1.5.7-3.3 1.5-4.5.5-1.1-.9-1-2.6-1.8-3.7-.9-1.3-2.8-1.5-4.3-2-1.6-.4-3.3-1.7-2.9-3.3.6-2.6 5.2-1.2 7-3.1 1.7-1.8-.2-4.8.6-7.2.6-1.9-2.5 1.3-1.9-.6.4-1.1.1-2.3-.2-3.5-.8-3.7-2.5-8.2-6.2-8.7-2.5-.3-5.2 1.3-7.5.1-1.6-.9-2.3-3-4-3.8-2.3-1-4.7 1.1-7.1 1.6-3 .6-6.5-2.4-5.2-5.2 1-2.2 3.9-2.5 6.3-2.8 2.4-.3 5.3-1.6 5.2-4-.1-1.4-1.2-2.5-2.1-3.7s-1.3-3-.2-3.9c.9-.7 2.2-.3 3.2.1 1.9.8-3.3-5.5-1.2-5.6s4.3-1.6 4.3-3.7c0-.7 5-5.7 5.2-6.4.6-2.9 3.3-6.1 4.4-8.9.5-1.2-.3-2.8.4-4 .6-1 2-1.2 2.8-2.1 1.6-1.8-.4-4.5-2.3-6s-3.7-4.4-1.9-6c.7-.6 1.9-.7 2.5-1.5 1.3-1.6-.8-3.5-1.7-5.4-.9-2 .2-4.8 2.4-5.4s4.6 1.4 4.3 3.6c1.5-1.9 14.4 9.6 16.7 10 1.4.2 2.8 1 4.2 1.1 1.5.2 3.2-.5 3.5-1.9.5-2-1.8-4.6-.1-5.7 1-.6 2.7 0 3.3-1 .3-.5.2-1.1 0-1.6-.6-2.4-1.3-4.8-1.9-7.2-.2-.6-.3-1.2 0-1.8.7-1.2 2.4-.4 3.8-.3 1.9.2 3.8-1.3 3.9-3.2 3.3-.5 5.4 3.4 5.8 6.7s.3 7.2 3 9.2c3.6 2.7 9.1-.2 13.1 1.7 3.8 1.9 6 7.8 10.1 6.9 1.6-.3 10.1-21.1 11.7-21.2 2.1-.1 3.9 2.2 6 1.8 1.6-.3 2.6-2 2.9-3.5.4-1.6.4-3.3 1.3-4.7.9-1.4 3-2.1 4.1-.9.9.9.6 2.4.9 3.7.6 1.9 2.9 3.1 4.8 2.3 1.8-.8 2.7-3.3 1.7-5-.4-.6-.9-1.2-1.2-1.8-1.2-2.5 2.7-5.1 5.1-3.7 2.4 1.4 2.8 4.9 1.9 7.5-.9 2.6-2.9 4.7-4.4 7.1-1.5 2.3-5.6 7.1-4.6 9.7 1.3 3.3 5.5 5 6.4 8.4.3 1.3.1 2.8.9 3.9 1.4 2.2 4.8 1.4 7.2.4s6-1.4 7 1c.7 1.7-4.7 21.2-3.9 22.9.9 1.8.9 4.9 2.8 4.1s3.3-2.3 5.3-2.8c2.3-.6 5 .5 6.3 2.5 1.3 2.1 1 4.9-.6 6.8-2.5 2.8-7.3 2.8-9.5 5.9-1.3 1.9 1.1 1.5-.7 2.8-1.8 1.2-4.2.4-6.4.7-2.5.3-4.8 2.3-5.4 4.8-.6 2.5.4 5.3 2.5 6.7.9.6 2.1 1.2 2.4 2.2.4 1.3-.7 2.5-1.4 3.7-2.2 3.7 0 9.3 4.2 10.4 2 .5 4.2.1 6.3.4 2.1.3 4.3 1.8 4.3 3.9-.1 1.8-1.8 3.1-2.7 4.7-.8 1.5-.9 3.2-1.6 4.7-.7 1.5-2.6 2.7-4 1.8-1.7-1.1-.8-3.8-1.7-5.6-1-2.3-4.3-2.4-6.6-1.5-2.3.9-4.4 2.6-6.9 2.8-1.9.2-3.9-.6-5.8-.3-2.7.4-4.7 3.1-5 5.9-.2 2.8 1.1 5.5 3 7.5 1.2 1.3 2.8 2.8 2.4 4.5-.2.8-.8 1.4-1.3 1.9-1.5 1.5-3.1 3-5.1 3.9-2 .8-4.5.8-6-.7-3.2-3-.4-9.3-3.5-12.3-2.6-2.6-7.1-.8-10.8-1.4-1.9-.3-3.7-1.2-5.6-1.4-1.9-.1-4.2 1.2-4.1 3.1" style="opacity:.15;fill:#16281d"/></g></g><g id="secondLayout"><g id="Calque_4"><path id="XMLID_27_" class="st11" d="M193.2 64.8s7 21-.4 32.3c0 0 23.7-7.3 25.8-5.1 0 0 8.4 21.2-13.6 36.2 0 0 19.1 14.6 19.7 22.2 0 0-18.7 5.2-26.9 3.2 0 0 10.1 29.8 2.6 40 0 0-31.5-26.7-38.7-25.1 0 0-7.7 22.2-27.2 27.3 0 0 8.4-29.9-.1-32.3 0 0-18.1 7.8-39.1 4.2 0 0 19.7-29.3 15.8-33.2 0 0-33.9-8.3-35.2-30.9 0 0 30.8 7.7 37.9 3.5 0 0-16.5-20-4.7-34.1 0 0 26.4.2 28.8 14.4 0 0 11.3-21.7 1.9-36.5 0 0 29.4 7.6 26.5 31 0 0 17-16.6 26.9-17.1z"/></g><g id="Calque_4_-_copie"><path id="XMLID_23_" class="st6" d="M191.2 68s6.5 20-.7 31c0 0 23.5-6.2 25.5-4 0 0 5.7 18.7-15.8 33.3 0 0 20.2 13.5 20.8 20.8 0 0-18.2 4.5-26.2 2.5 0 0 11.3 28.3 4 38.3 0 0-31.5-26-38.5-24.5 0 0-4.3 21.3-23.3 26.3 0 0 6.6-29.2-1.8-31.5 0 0-14.6 8.7-35.1 5.2 0 0 18.5-28.7 14.7-32.5 0 0-33.7-5.2-35-27.2 0 0 30.3 6.8 37.3 2.7 0 0-18.6-20.5-7.1-34.3 0 0 25.6 3.3 28 17.2 0 0 13-22.5 3.8-37 0 0 25.7 8.3 22.8 31.2.1 0 16.9-17 26.6-17.5z"/></g><g id="Calque_4_-_copie_2"><path id="XMLID_22_" d="M188.9 71.3s8.8 16.8 1.6 27.8c0 0 21.3-4.3 23.3-2.2 0 0 7.9 16.8-13.6 31.5 0 0 15.4 11.7 16.1 19 0 0-13.4 6.3-21.4 4.3 0 0 9.5 24.9 2.2 34.9 0 0-29.7-22.6-36.7-21.1 0 0-2.1 17.5-21.1 22.5 0 0 4.3-25.3-4-27.6 0 0-10.5 6.7-31 3.2 0 0 14.4-26.8 10.6-30.6 0 0-28.3-5-31.5-24.5 0 0 26.8 4.2 33.8 0 0 0-17-17.8-5.5-31.7 0 0 24 .7 26.4 14.5 0 0 15.9-19.1 6.8-33.6 0 0 19.8 8.4 19.9 27.8-.1 0 14.4-13.7 24.1-14.2z" style="fill:#5eb446"/></g><g id="Calque_9"><path id="XMLID_18_" class="st8" d="M122.5 134.7c-.9-.2-1.7.7-1.9 1.5-.6 2.1 1 4.2 2.5 5.8 2.4 2.7 5.7 5.5 9.3 4.7-.4 1.3.8 2.7 2.2 3.1 1.4.4 2.9.2 4.3.1.4 0 .8 0 1.1.1.4.2.6.7.8 1.1.5 1.3 1.2 2.6 2.4 3.4 1.2.8 3.1.8 3.9-.4 1.4 1 2.5 2.4 3 3.9 5-1.3 10.2-2.1 15.4-2.3.1-.6.1-1.2.2-1.8 2.3 0 4.6.2 6.9.5 0-1 1.3-1.7 2.4-1.6 1.1.2 2 .8 3 1.3 2.7 1.4 6.1 1.4 8.8 0 1.2-.6 2.3-1.6 2.7-2.9.6-2.2-1.6-4.4-1.4-6.7 1.4 0 3-.1 3.7-1.2.4-.7.4-1.5.3-2.3-.3-2.8-.7-5.5-1.2-8.2-.1-.8-.3-1.5-.4-2.3-.1-.7-.2-1.4-.6-2-.7-1.2-2.1-2.1-2.4-3.4-.4-1.7 1.3-3.1 2.1-4.7 1.6-2.8.5-6.5 2.1-9.3.9-1.5 2.5-3.1 1.7-4.7-1.1-2-4.6-.6-6.6-1.9-1.3-.9-1.4-2.8-2.8-3.6-.6-.3-1.3-.4-1.8-.9-.4-.4-.5-1.1-.5-1.6-.2-2.8-.5-5.5-.7-8.3-.1-.6-.1-1.3-.6-1.7-.4-.4-.9-.5-1.5-.6-2.8-.6-5.8-1-8.4.2-1.9.9-3.3 2.6-5.1 3.6-1.8 1-4.7 1-5.5-.8-.3-.6-.3-1.3-.7-1.8-.7-1.1-2.5-1.4-3.1-2.6-.9-1.6.9-4.2-.7-5.2-.3-.2-.8-.3-1.2-.3-1.3-.2-3.2.1-3.2 1.4 0 .4.3.8.5 1.2.8 1.5 0 3.4-1.3 4.7-1.2 1.2-2.8 2.1-4.1 3.3-1.5 1.3-2.5 2.9-3.9 4.3C141 97 139 98 137 97.5c-3.4-.9-4.6-6-8.1-6-2 0-3.6 2-3.2 3.8.2.5.5 1.1.3 1.7-.3.9-1.8 1.1-2 2-.1.7.5 1.2.9 1.8 1.2 2-1.1 4.4-.9 6.7.1.7.4 1.5 0 2.1-.3.5-1 .6-1.5.9-1.2.9-.6 2.9-1.7 3.9-1.4 1.3-4.4.1-5.3 1.8-.4.8-.1 1.8-.7 2.5-.7.6-1.8.3-2.7.1-.9-.2-2.2.2-2.1 1.1.1.4.4.6.7.8 2.7 1.9 5.7 3.5 8.9 4.5-.8 2.6-.1 5.5 1.7 7.5.4.4.9.9 1.1 1.4s0 1.3-.5 1.5"/><path id="XMLID_17_" class="st9" d="M130 125.3c-.6-.3-1.3.1-1.7.6-.9 1.4-.3 3.2.4 4.7 1.1 2.4 2.7 5.2 5.4 5.5-.6.8-.1 2.1.8 2.7.9.6 2 .8 3 1.1.3.1.5.2.7.4.2.3.3.6.3.9.1 1 .2 2.1.9 2.9s2 1.3 2.8.7c.8 1 1.2 2.2 1.2 3.4 3.8.3 7.6 1 11.3 2l.6-1.2c1.6.5 3.2 1.2 4.7 2 .2-.7 1.3-.9 2-.5s1.2 1 1.8 1.6c1.6 1.6 3.9 2.4 6.1 2.1 1-.1 2-.6 2.5-1.4.9-1.4 0-3.4.6-5 1 .3 2.1.6 2.9 0 .5-.4.6-1 .8-1.5.5-2 .8-4 1.1-6 .1-.6.2-1.1.3-1.7.1-.5.2-1 .1-1.5-.2-1-1-1.9-.9-2.9.2-1.3 1.6-1.9 2.6-2.8 1.8-1.6 1.9-4.4 3.7-6 1-.8 2.5-1.6 2.3-2.9-.3-1.7-3.1-1.5-4.1-2.9-.7-.9-.4-2.3-1.1-3.1-.3-.4-.8-.6-1-1.1-.2-.4-.1-.9 0-1.3l1.5-6c.1-.4.2-.9 0-1.3-.2-.3-.5-.6-.9-.8-1.8-1-3.8-2.1-5.9-1.8-1.5.2-2.9 1-4.4 1.3-1.5.3-3.5-.4-3.7-1.9-.1-.5.1-1 0-1.4-.2-1-1.4-1.5-1.5-2.5-.2-1.3 1.6-2.7.7-3.8-.2-.2-.5-.4-.8-.5-.9-.4-2.3-.7-2.5.2-.1.3 0 .7.1 1 .2 1.3-.8 2.4-2 3-1.1.6-2.5.8-3.7 1.3-1.3.6-2.4 1.5-3.8 2-1.3.6-3 .8-4.2 0-2.2-1.4-1.8-5.2-4.3-6.1-1.4-.5-3 .5-3.1 1.9 0 .4.1.9-.2 1.2-.4.5-1.5.3-1.8.9-.2.4.1 1 .2 1.4.4 1.7-1.8 2.8-2.2 4.4-.1.5-.1 1.2-.5 1.5-.4.3-.9.2-1.3.3-1 .3-1.1 1.9-2.1 2.3-1.3.6-3.1-.9-4.2 0-.5.4-.5 1.3-1.1 1.5-.6.3-1.3-.2-1.9-.5-.6-.3-1.6-.4-1.7.3 0 .3.1.5.3.8 1.4 2 3.2 3.8 5.2 5.2-1.1 1.6-1.3 3.8-.5 5.6.2.4.4.8.4 1.2s-.3.9-.7.9"/><path id="XMLID_14_" d="M140.6 95.6c2.9-2.2 5.8-4.4 8.7-6.7 1.1-.9 2.3-2 2.1-3.4-.1-.6-.4-1.1-.6-1.7-.3-1.4.8-3 2.2-3.1s2.8 1.2 2.8 2.7c0 .7-.4 1.5-.2 2.2.4 1.6 2.7 1.7 3.7 3 .7.9.6 2.5 1.7 2.9.5.2 1 0 1.5-.1 4.4-1.3 9.1-2.8 12.2-6.2.7-.8 1.7-1.9 2.7-1.6.9.2 1.3 1.4 2.1 1.9 1 .6 2.2.2 3.3.1 1.1-.2 2.6.2 2.8 1.3.3 1.9-3 2.2-3.6 3.9-.6 1.6 1.4 3 1.6 4.7.1 1.4-1 2.6-.9 4 .1.8.6 1.5 1 2.2 1.5 2.1 3.8 4.5 6.3 3.8 1.7-.5 3-2.3 4.7-2.1 1.3.1 2.3 1.3 3.6 1.3 1.7 0 2.7-2 4.1-3 1.7-1.2 4.8-.2 4.7 1.9 0 1.7-1.8 2.7-3.3 3.5-1.5.8-3 2.4-2.2 4 .4.9 1.5 1.3 2.3 1.8.9.5 1.7 1.6 1.2 2.4-.4.7-1.3.8-2 .8-1.4 0-3 0-4.3.6-1.3.6-2.3 2.2-1.7 3.5.2.5.6.8.7 1.3.4 2.1-3.9 2.3-3.9 4.4 0 .9 1 1.7.9 2.6-.1.8-1 1.3-1.2 2.1-.5 1.6 1.5 2.7 3.1 3.2s3.6 1.8 2.9 3.3c-.3.6-1 1-1.2 1.6-.4 1.3 1.5 2 2.5 3 1.1 1 1.2 3.1 0 4.1-1.2 1-3.3.3-3.7-1.1-.4 1.6-1.8 2.9-3.4 3.3-1 .2-2 .2-3 .4s-1.9 1.2-1.7 2.2c.2 1.4 2.4 2.4 1.6 3.6-.5.7-1.7.7-1.8 1.5-.1.4.2.7.4 1 1.1 1.4 2.1 2.7 3.2 4.1.3.3.5.7.5 1.1-.1.9-1.4.9-2.3 1.2-1.3.4-2.1 1.9-1.6 3.1-1.9 1.2-4.4-.7-5.5-2.7-1.1-2-2.2-4.5-4.4-5.1-3-.8-5.7 2.6-8.8 2.5-2.9-.1-5.9-3.3-8.3-1.6-.9.7-1.3 1.9-2.3 2.3-1.3.6-3.1-.3-4.3.5-1 .6-1.1 1.9-.9 3.1s.6 2.2.4 3.3c-.2 1.1-1.3 2.2-2.4 1.7-.8-.4-1-1.4-1.6-2.1-.9-1.1-2.7-1.1-3.7-.1s-.8 2.8.3 3.7c.4.3.9.5 1.3.8 1.4 1.3-.3 4-2.3 3.7-1.9-.3-3.1-2.3-3.2-4.3-.1-1.9.5-3.8.9-5.7s.2-4.1-1.1-5.5c-1.7-1.8-4.9-1.7-6.4-3.6-.6-.7-.8-1.7-1.6-2.3-1.5-1-3.4.4-4.7 1.7-1.3 1.3-3.4 2.6-4.7 1.3-.9-.9-.7-2.5-1.7-3.3-1-.9-2.7-.3-3.7.8-.9 1-1.5 2.4-2.6 3.2-1.3 1-3.3 1.1-4.7.1-1.4-1-2-2.9-1.5-4.5.8-2.5 3.9-3.8 4.4-6.3.3-1.5-.3-3.3.5-4.6.8-1.3 2.6-1.4 3.9-2.2 1.5-.9 2.4-2.8 2.1-4.5-.3-1.7-1.7-3.2-3.4-3.6-.8-.2-1.6-.2-2.1-.8-.6-.7-.2-1.8-.1-2.8.4-3-2.6-5.9-5.5-5.4-1.4.2-2.7 1.1-4.1 1.5-1.4.4-3.2.1-3.8-1.3-.5-1.2.3-2.5.4-3.7.1-1.1-.3-2.3-.3-3.4s.9-2.4 2-2.3c1.4.2 1.6 2.2 2.6 3.1 1.3 1.2 3.4.4 4.6-.9 1.2-1.2 2.1-2.9 3.6-3.7 1.2-.6 2.7-.7 3.8-1.4 1.6-1 2.2-3.3 1.5-5.1-.6-1.8-2.2-3.2-3.9-3.9-1.1-.5-2.6-1-2.7-2.2-.1-.5.1-1.1.3-1.6.6-1.4 1.1-2.8 2.2-3.8s2.6-1.7 4-1.2c2.9 1.1 2.8 5.8 5.6 6.9 2.4.9 4.7-1.4 7.2-2.1 1.3-.3 2.7-.2 3.9-.7 1.3-.5 2.4-1.9 1.7-3.1" style="opacity:.15;fill:#16231b"/></g></g><g id="firstLayout"><path id="XMLID_13_" class="st11" d="m163.1 147.7 19.9 12.7-4.5-18.5 14.3-2.7-13.3-12.9s13.6-8.6 13.3-15.2c0 0-12.7.9-16 1.3 0 0 7.9-2.2.5-26.1 0 0-8.5 13-18.3 15.7 0 0-7.1-6-6.7-14.6 0 0-13.7 12.2-8.8 17.8 0 0-18.5-.7-21.9 3.5 0 0 12.9 4.7 14.2 8.3 0 0-15.3 2-17.9 8.6 0 0 18.4 3.7 19.1 7.2 0 0-11.3 6.3-11.6 13.4 0 0 14.6 5.3 23.3-.2 0 0 3.6 7.4 4.9 13.1.1.2 13-3 9.5-11.4z"/><path id="XMLID_12_" class="st6" d="m161.3 143.9 19.3 13.3-5.3-17.7 14.3-1.7-14.2-11.3s14.2-9.7 14.2-14.3c0 0-15.9 2.8-18 2.4 0 0 10.6-3.3 3.9-25.1 0 0-8 14.3-17.8 15.3 0 0-6.9-6-6.6-13.9 0 0-9.2 11.8-4.7 17 0 0-16.8-2.2-20 1.7 0 0 13.7 5.5 12.3 8.8 0 0-15.3 1.2-17.7 7.2 0 0 19.8 3.2 19.7 6.7 0 0-12.5 5.7-12.8 12.2 0 0 13.1 3.4 21.1-1.6 0 0 5.5 8.4 5.5 13.6.2-.1 10-5 6.8-12.6z"/><path id="XMLID_11_" d="m158.9 140.5 19.6 13.8-4.9-16.2 11.6-1.3-11.4-10.5s13.5-8.4 13.5-12.6c0 0-15.1 2.1-17.1 1.7 0 0 10.8-2.6 4.7-22.6 0 0-8.4 12.6-17.4 13.5 0 0-7.4-4.8-7.1-12 0 0-5.1 10.2-1 14.9 0 0-15.9-3.2-18.8.3 0 0 10.8 6.1 9.6 9.2 0 0-14 1.1-16.2 6.6 0 0 20 3.2 19.8 6.4 0 0-13.3 4.9-13.6 10.8 0 0 12 3.1 19.3-1.5 0 0 6 7.8 6 12.6.2.1 6.3-6 3.4-13.1z" style="fill:#80c460"/><path id="XMLID_10_" d="m152 131.3 3.8 11.2 2.8-7.9 5 2.8-1.5-7.6s7.9.6 9.1-1.1c0 0-6.7-3.6-7.4-4.3 0 0 5.1 2.1 8.5-7.7 0 0-7.1 2.6-10.9.4 0 0-1.6-4.1.6-6.9 0 0-5 2.6-4.8 5.7 0 0-5.4-5.9-7.6-5.3 0 0 2.5 5.6 1.2 6.5 0 0-5.9-3.7-8.4-2.1 0 0 7.1 7.1 6.1 8.4 0 0-6.7-1.9-8.6.4 0 0 3.9 4.7 8.2 5 0 0 .1 4.9-1.3 6.8.1 0 4.3-.6 5.2-4.3z" style="opacity:.2;fill:#fff"/></g></g></g></svg>